<svg width="230" height="230" viewBox="0 0 230 230" fill="none" xmlns="http://www.w3.org/2000/svg">
<g clip-path="url(#clip0_98_1011)">
<path d="M-12.4338 -6.54594L-19.5162 -42L-26.5987 -6.54594L-52.9033 3L-26.5987 12.5459L-19.5162 48L-12.4338 12.5459L13.8709 3L-12.4338 -6.54594Z" fill="black"/>
<path d="M69.516 -42L76.5985 -6.54594L102.903 3L76.5985 12.5459L69.516 48L62.4336 12.5459L36.1289 3L62.4336 -6.54594L69.516 -42Z" fill="black"/>
<path d="M165.631 -6.54594L158.548 -42L151.466 -6.54594L125.161 3L151.466 12.5459L158.548 48L165.631 12.5459L191.935 3L165.631 -6.54594Z" fill="black"/>
<path d="M247.581 -42L254.663 -6.54594L280.968 3L254.663 12.5459L247.581 48L240.498 12.5459L214.194 3L240.498 -6.54594L247.581 -42Z" fill="black"/>
<path d="M-12.4338 113.454L-19.5162 78L-26.5987 113.454L-52.9033 123L-26.5987 132.546L-19.5162 168L-12.4338 132.546L13.8709 123L-12.4338 113.454Z" fill="black"/>
<path d="M69.516 78L76.5985 113.454L102.903 123L76.5985 132.546L69.516 168L62.4336 132.546L36.1289 123L62.4336 113.454L69.516 78Z" fill="black"/>
<path d="M165.631 113.454L158.548 78L151.466 113.454L125.161 123L151.466 132.546L158.548 168L165.631 132.546L191.935 123L165.631 113.454Z" fill="black"/>
<path d="M247.581 78L254.663 113.454L280.968 123L254.663 132.546L247.581 168L240.498 132.546L214.194 123L240.498 113.454L247.581 78Z" fill="black"/>
<path d="M-12.4338 233.454L-19.5162 198L-26.5987 233.454L-52.9033 243L-26.5987 252.546L-19.5162 288L-12.4338 252.546L13.8709 243L-12.4338 233.454Z" fill="black"/>
<path d="M69.516 198L76.5985 233.454L102.903 243L76.5985 252.546L69.516 288L62.4336 252.546L36.1289 243L62.4336 233.454L69.516 198Z" fill="black"/>
<path d="M165.631 233.454L158.548 198L151.466 233.454L125.161 243L151.466 252.546L158.548 288L165.631 252.546L191.935 243L165.631 233.454Z" fill="black"/>
<path d="M247.581 198L254.663 233.454L280.968 243L254.663 252.546L247.581 288L240.498 252.546L214.194 243L240.498 233.454L247.581 198Z" fill="black"/>
</g>
<defs>
<clipPath id="clip0_98_1011">
<rect width="230" height="230" fill="white"/>
</clipPath>
</defs>
</svg>
