<svg width="230" height="230" viewBox="0 0 230 230" fill="none" xmlns="http://www.w3.org/2000/svg">
<g clip-path="url(#clip0_98_1109)">
<path d="M16.4516 -16L23.534 19.4541L49.8387 29L23.534 38.5459L16.4516 74L9.3691 38.5459L-16.9355 29L9.3691 19.4541L16.4516 -16Z" fill="black"/>
<path d="M112.566 19.4541L105.484 -16L98.4013 19.4541L72.0967 29L98.4013 38.5459L105.484 74L112.566 38.5459L138.871 29L112.566 19.4541Z" fill="black"/>
<path d="M194.516 -16L201.599 19.4541L227.903 29L201.599 38.5459L194.516 74L187.434 38.5459L161.129 29L187.434 19.4541L194.516 -16Z" fill="black"/>
<path d="M16.4516 104L23.534 139.454L49.8387 149L23.534 158.546L16.4516 194L9.3691 158.546L-16.9355 149L9.3691 139.454L16.4516 104Z" fill="black"/>
<path d="M112.566 139.454L105.484 104L98.4013 139.454L72.0967 149L98.4013 158.546L105.484 194L112.566 158.546L138.871 149L112.566 139.454Z" fill="black"/>
<path d="M194.516 104L201.599 139.454L227.903 149L201.599 158.546L194.516 194L187.434 158.546L161.129 149L187.434 139.454L194.516 104Z" fill="black"/>
<path d="M16.4516 224L23.534 259.454L49.8387 269L23.534 278.546L16.4516 314L9.3691 278.546L-16.9355 269L9.3691 259.454L16.4516 224Z" fill="black"/>
<path d="M112.566 259.454L105.484 224L98.4013 259.454L72.0967 269L98.4013 278.546L105.484 314L112.566 278.546L138.871 269L112.566 259.454Z" fill="black"/>
<path d="M194.516 224L201.599 259.454L227.903 269L201.599 278.546L194.516 314L187.434 278.546L161.129 269L187.434 259.454L194.516 224Z" fill="black"/>
</g>
<defs>
<clipPath id="clip0_98_1109">
<rect width="230" height="230" fill="white"/>
</clipPath>
</defs>
</svg>
