<svg width="732" height="685" viewBox="0 0 732 685" fill="none" xmlns="http://www.w3.org/2000/svg">
<circle cx="204.904" cy="204.904" r="150" transform="rotate(60 204.904 204.904)" fill="#D9D9D9"/>
<line x1="204.903" y1="205.771" x2="204.404" y2="54.9064" stroke="black"/>
<line x1="205.153" y1="205.335" x2="75.249" y2="280.335" stroke="black"/>
<line x1="204.649" y1="205.335" x2="335.053" y2="279.469" stroke="black"/>
<circle cx="365.257" cy="479.257" r="150" transform="rotate(60 365.257 479.257)" fill="#D9D9D9"/>
<line x1="365.256" y1="480.125" x2="364.757" y2="329.26" stroke="black"/>
<line x1="365.506" y1="479.689" x2="235.602" y2="554.689" stroke="black"/>
<line x1="365.002" y1="479.688" x2="495.406" y2="553.822" stroke="black"/>
<circle cx="526.257" cy="205.257" r="150" transform="rotate(60 526.257 205.257)" fill="#D9D9D9"/>
<line x1="526.256" y1="206.125" x2="525.757" y2="55.26" stroke="black"/>
<line x1="526.506" y1="205.689" x2="396.602" y2="280.689" stroke="black"/>
<line x1="526.002" y1="205.688" x2="656.406" y2="279.822" stroke="black"/>
<path d="M515.886 256.091V291H511.659V260.523H511.455L502.932 266.182V261.886L511.659 256.091H515.886ZM525.926 291V287.932L537.449 275.318C538.801 273.841 539.915 272.557 540.79 271.466C541.665 270.364 542.313 269.33 542.733 268.364C543.165 267.386 543.381 266.364 543.381 265.295C543.381 264.068 543.085 263.006 542.494 262.108C541.915 261.21 541.119 260.517 540.108 260.028C539.097 259.54 537.96 259.295 536.699 259.295C535.358 259.295 534.188 259.574 533.188 260.131C532.199 260.676 531.432 261.443 530.886 262.432C530.352 263.42 530.085 264.58 530.085 265.909H526.062C526.062 263.864 526.534 262.068 527.477 260.523C528.42 258.977 529.705 257.773 531.33 256.909C532.966 256.045 534.801 255.614 536.835 255.614C538.881 255.614 540.693 256.045 542.273 256.909C543.852 257.773 545.091 258.937 545.989 260.403C546.886 261.869 547.335 263.5 547.335 265.295C547.335 266.58 547.102 267.835 546.636 269.062C546.182 270.278 545.386 271.636 544.25 273.136C543.125 274.625 541.562 276.443 539.562 278.591L531.722 286.977V287.25H547.949V291H525.926Z" fill="black"/>
<path d="M339.614 571V567.932L351.136 555.318C352.489 553.841 353.602 552.557 354.477 551.466C355.352 550.364 356 549.33 356.42 548.364C356.852 547.386 357.068 546.364 357.068 545.295C357.068 544.068 356.773 543.006 356.182 542.108C355.602 541.21 354.807 540.517 353.795 540.028C352.784 539.54 351.648 539.295 350.386 539.295C349.045 539.295 347.875 539.574 346.875 540.131C345.886 540.676 345.119 541.443 344.574 542.432C344.04 543.42 343.773 544.58 343.773 545.909H339.75C339.75 543.864 340.222 542.068 341.165 540.523C342.108 538.977 343.392 537.773 345.017 536.909C346.653 536.045 348.489 535.614 350.523 535.614C352.568 535.614 354.381 536.045 355.96 536.909C357.54 537.773 358.778 538.937 359.676 540.403C360.574 541.869 361.023 543.5 361.023 545.295C361.023 546.58 360.79 547.835 360.324 549.062C359.869 550.278 359.074 551.636 357.938 553.136C356.812 554.625 355.25 556.443 353.25 558.591L345.409 566.977V567.25H361.636V571H339.614ZM380.472 571.477C378.222 571.477 376.216 571.091 374.455 570.318C372.705 569.545 371.313 568.472 370.278 567.097C369.256 565.71 368.699 564.102 368.608 562.273H372.903C372.994 563.398 373.381 564.369 374.062 565.188C374.744 565.994 375.636 566.619 376.739 567.062C377.841 567.506 379.063 567.727 380.403 567.727C381.903 567.727 383.233 567.466 384.392 566.943C385.551 566.42 386.46 565.693 387.119 564.761C387.778 563.83 388.108 562.75 388.108 561.523C388.108 560.239 387.79 559.108 387.153 558.131C386.517 557.142 385.585 556.369 384.358 555.812C383.131 555.256 381.631 554.977 379.858 554.977H377.062V551.227H379.858C381.244 551.227 382.46 550.977 383.506 550.477C384.563 549.977 385.386 549.273 385.977 548.364C386.58 547.455 386.881 546.386 386.881 545.159C386.881 543.977 386.619 542.949 386.097 542.074C385.574 541.199 384.835 540.517 383.881 540.028C382.938 539.54 381.824 539.295 380.54 539.295C379.335 539.295 378.199 539.517 377.131 539.96C376.074 540.392 375.21 541.023 374.54 541.852C373.869 542.67 373.506 543.659 373.449 544.818H369.358C369.426 542.989 369.977 541.386 371.011 540.011C372.045 538.625 373.398 537.545 375.068 536.773C376.75 536 378.597 535.614 380.608 535.614C382.767 535.614 384.619 536.051 386.165 536.926C387.71 537.79 388.898 538.932 389.727 540.352C390.557 541.773 390.972 543.307 390.972 544.955C390.972 546.92 390.455 548.597 389.42 549.983C388.398 551.369 387.006 552.33 385.244 552.864V553.136C387.449 553.5 389.17 554.437 390.409 555.949C391.648 557.449 392.267 559.307 392.267 561.523C392.267 563.42 391.75 565.125 390.716 566.636C389.693 568.136 388.295 569.318 386.523 570.182C384.75 571.045 382.733 571.477 380.472 571.477Z" fill="black"/>
<path d="M275.795 453.841V450.364L291.136 426.091H293.659V431.477H291.955L280.364 449.818V450.091H301.023V453.841H275.795ZM292.227 461V452.784V451.165V426.091H296.25V461H292.227ZM319.214 426.091V461H314.987V430.523H314.783L306.26 436.182V431.886L314.987 426.091H319.214Z" fill="black"/>
<path d="M575.762 194.831C573.512 194.831 571.506 194.444 569.745 193.672C567.995 192.899 566.603 191.825 565.569 190.45C564.546 189.064 563.989 187.456 563.898 185.626H568.194C568.285 186.751 568.671 187.723 569.353 188.541C570.035 189.348 570.927 189.973 572.029 190.416C573.131 190.859 574.353 191.081 575.694 191.081C577.194 191.081 578.523 190.819 579.683 190.297C580.842 189.774 581.751 189.047 582.41 188.115C583.069 187.183 583.398 186.104 583.398 184.876C583.398 183.592 583.08 182.461 582.444 181.484C581.808 180.496 580.876 179.723 579.648 179.166C578.421 178.609 576.921 178.331 575.148 178.331H572.353V174.581H575.148C576.535 174.581 577.751 174.331 578.796 173.831C579.853 173.331 580.677 172.626 581.268 171.717C581.87 170.808 582.171 169.74 582.171 168.513C582.171 167.331 581.91 166.302 581.387 165.427C580.864 164.552 580.126 163.871 579.171 163.382C578.228 162.893 577.114 162.649 575.83 162.649C574.626 162.649 573.489 162.871 572.421 163.314C571.364 163.746 570.501 164.376 569.83 165.206C569.16 166.024 568.796 167.013 568.739 168.172H564.648C564.717 166.342 565.268 164.74 566.302 163.365C567.336 161.979 568.688 160.899 570.359 160.126C572.041 159.354 573.887 158.967 575.898 158.967C578.058 158.967 579.91 159.405 581.455 160.28C583.001 161.143 584.188 162.285 585.018 163.706C585.847 165.126 586.262 166.66 586.262 168.308C586.262 170.274 585.745 171.95 584.711 173.336C583.688 174.723 582.296 175.683 580.535 176.217V176.49C582.739 176.854 584.461 177.791 585.7 179.302C586.938 180.802 587.558 182.66 587.558 184.876C587.558 186.774 587.041 188.479 586.006 189.99C584.984 191.49 583.586 192.672 581.813 193.535C580.041 194.399 578.023 194.831 575.762 194.831ZM605.916 194.831C603.347 194.831 601.16 194.132 599.353 192.734C597.546 191.325 596.166 189.285 595.211 186.615C594.256 183.933 593.779 180.694 593.779 176.899C593.779 173.126 594.256 169.905 595.211 167.234C596.177 164.552 597.563 162.507 599.37 161.098C601.188 159.677 603.37 158.967 605.916 158.967C608.461 158.967 610.637 159.677 612.444 161.098C614.262 162.507 615.648 164.552 616.603 167.234C617.569 169.905 618.052 173.126 618.052 176.899C618.052 180.694 617.575 183.933 616.62 186.615C615.666 189.285 614.285 191.325 612.478 192.734C610.671 194.132 608.484 194.831 605.916 194.831ZM605.916 191.081C608.461 191.081 610.438 189.854 611.847 187.399C613.256 184.944 613.961 181.444 613.961 176.899C613.961 173.876 613.637 171.302 612.989 169.177C612.353 167.052 611.433 165.433 610.228 164.319C609.035 163.206 607.597 162.649 605.916 162.649C603.393 162.649 601.421 163.893 600.001 166.382C598.58 168.859 597.87 172.365 597.87 176.899C597.87 179.922 598.188 182.49 598.825 184.604C599.461 186.717 600.376 188.325 601.569 189.427C602.773 190.53 604.222 191.081 605.916 191.081Z" fill="black"/>
<path d="M254.239 158.444V193.354H250.012V162.876H249.808L241.285 168.535V164.24L250.012 158.444H254.239ZM264.279 193.354V190.285L275.802 177.672C277.154 176.194 278.268 174.91 279.143 173.819C280.018 172.717 280.666 171.683 281.086 170.717C281.518 169.74 281.734 168.717 281.734 167.649C281.734 166.422 281.438 165.359 280.847 164.461C280.268 163.564 279.472 162.871 278.461 162.382C277.45 161.893 276.313 161.649 275.052 161.649C273.711 161.649 272.541 161.927 271.541 162.484C270.552 163.03 269.785 163.797 269.239 164.785C268.705 165.774 268.438 166.933 268.438 168.263H264.416C264.416 166.217 264.887 164.422 265.83 162.876C266.773 161.331 268.058 160.126 269.683 159.263C271.319 158.399 273.154 157.967 275.188 157.967C277.234 157.967 279.046 158.399 280.626 159.263C282.205 160.126 283.444 161.291 284.342 162.757C285.239 164.223 285.688 165.854 285.688 167.649C285.688 168.933 285.455 170.189 284.989 171.416C284.535 172.632 283.739 173.99 282.603 175.49C281.478 176.979 279.916 178.797 277.916 180.944L270.075 189.331V189.604H286.302V193.354H264.279Z" fill="black"/>
<path d="M178.614 291V287.932L190.136 275.318C191.489 273.841 192.602 272.557 193.477 271.466C194.352 270.364 195 269.33 195.42 268.364C195.852 267.386 196.068 266.364 196.068 265.295C196.068 264.068 195.773 263.006 195.182 262.108C194.602 261.21 193.807 260.517 192.795 260.028C191.784 259.54 190.648 259.295 189.386 259.295C188.045 259.295 186.875 259.574 185.875 260.131C184.886 260.676 184.119 261.443 183.574 262.432C183.04 263.42 182.773 264.58 182.773 265.909H178.75C178.75 263.864 179.222 262.068 180.165 260.523C181.108 258.977 182.392 257.773 184.017 256.909C185.653 256.045 187.489 255.614 189.523 255.614C191.568 255.614 193.381 256.045 194.96 256.909C196.54 257.773 197.778 258.937 198.676 260.403C199.574 261.869 200.023 263.5 200.023 265.295C200.023 266.58 199.79 267.835 199.324 269.062C198.869 270.278 198.074 271.636 196.938 273.136C195.812 274.625 194.25 276.443 192.25 278.591L184.409 286.977V287.25H200.636V291H178.614ZM219.062 291.477C216.494 291.477 214.307 290.778 212.5 289.381C210.693 287.972 209.313 285.932 208.358 283.261C207.403 280.58 206.926 277.341 206.926 273.545C206.926 269.773 207.403 266.551 208.358 263.881C209.324 261.199 210.71 259.153 212.517 257.744C214.335 256.324 216.517 255.614 219.062 255.614C221.608 255.614 223.784 256.324 225.591 257.744C227.409 259.153 228.795 261.199 229.75 263.881C230.716 266.551 231.199 269.773 231.199 273.545C231.199 277.341 230.722 280.58 229.767 283.261C228.812 285.932 227.432 287.972 225.625 289.381C223.818 290.778 221.631 291.477 219.062 291.477ZM219.062 287.727C221.608 287.727 223.585 286.5 224.994 284.045C226.403 281.591 227.108 278.091 227.108 273.545C227.108 270.523 226.784 267.949 226.136 265.824C225.5 263.699 224.58 262.08 223.375 260.966C222.182 259.852 220.744 259.295 219.062 259.295C216.54 259.295 214.568 260.54 213.148 263.028C211.727 265.506 211.017 269.011 211.017 273.545C211.017 276.568 211.335 279.136 211.972 281.25C212.608 283.364 213.523 284.972 214.716 286.074C215.92 287.176 217.369 287.727 219.062 287.727Z" fill="black"/>
<path d="M139.795 193.477C137.455 193.477 135.386 193.062 133.591 192.233C131.807 191.392 130.415 190.239 129.415 188.773C128.415 187.295 127.92 185.614 127.932 183.727C127.92 182.25 128.21 180.886 128.801 179.636C129.392 178.375 130.199 177.324 131.222 176.483C132.256 175.631 133.409 175.091 134.682 174.864V174.659C133.011 174.227 131.682 173.29 130.693 171.847C129.705 170.392 129.216 168.739 129.227 166.886C129.216 165.114 129.665 163.528 130.574 162.131C131.483 160.733 132.733 159.631 134.324 158.824C135.926 158.017 137.75 157.614 139.795 157.614C141.818 157.614 143.625 158.017 145.216 158.824C146.807 159.631 148.057 160.733 148.966 162.131C149.886 163.528 150.352 165.114 150.364 166.886C150.352 168.739 149.847 170.392 148.847 171.847C147.858 173.29 146.545 174.227 144.909 174.659V174.864C146.17 175.091 147.307 175.631 148.318 176.483C149.33 177.324 150.136 178.375 150.739 179.636C151.341 180.886 151.648 182.25 151.659 183.727C151.648 185.614 151.136 187.295 150.125 188.773C149.125 190.239 147.733 191.392 145.949 192.233C144.176 193.062 142.125 193.477 139.795 193.477ZM139.795 189.727C141.375 189.727 142.739 189.472 143.886 188.96C145.034 188.449 145.92 187.727 146.545 186.795C147.17 185.864 147.489 184.773 147.5 183.523C147.489 182.205 147.148 181.04 146.477 180.028C145.807 179.017 144.892 178.222 143.733 177.642C142.585 177.062 141.273 176.773 139.795 176.773C138.307 176.773 136.977 177.062 135.807 177.642C134.648 178.222 133.733 179.017 133.062 180.028C132.403 181.04 132.08 182.205 132.091 183.523C132.08 184.773 132.381 185.864 132.994 186.795C133.619 187.727 134.511 188.449 135.67 188.96C136.83 189.472 138.205 189.727 139.795 189.727ZM139.795 173.159C141.045 173.159 142.153 172.909 143.119 172.409C144.097 171.909 144.864 171.21 145.42 170.312C145.977 169.415 146.261 168.364 146.273 167.159C146.261 165.977 145.983 164.949 145.438 164.074C144.892 163.187 144.136 162.506 143.17 162.028C142.205 161.54 141.08 161.295 139.795 161.295C138.489 161.295 137.347 161.54 136.369 162.028C135.392 162.506 134.636 163.187 134.102 164.074C133.568 164.949 133.307 165.977 133.318 167.159C133.307 168.364 133.574 169.415 134.119 170.312C134.676 171.21 135.443 171.909 136.42 172.409C137.398 172.909 138.523 173.159 139.795 173.159Z" fill="black"/>
<path d="M451.239 158.444V193.354H447.012V162.876H446.808L438.285 168.535V164.24L447.012 158.444H451.239ZM472.461 193.831C470.12 193.831 468.052 193.416 466.256 192.586C464.472 191.746 463.08 190.592 462.08 189.126C461.08 187.649 460.586 185.967 460.597 184.081C460.586 182.604 460.876 181.24 461.467 179.99C462.058 178.729 462.864 177.677 463.887 176.836C464.921 175.984 466.075 175.444 467.347 175.217V175.013C465.677 174.581 464.347 173.643 463.359 172.2C462.37 170.746 461.881 169.092 461.893 167.24C461.881 165.467 462.33 163.882 463.239 162.484C464.148 161.086 465.398 159.984 466.989 159.177C468.592 158.371 470.416 157.967 472.461 157.967C474.484 157.967 476.291 158.371 477.881 159.177C479.472 159.984 480.722 161.086 481.631 162.484C482.552 163.882 483.018 165.467 483.029 167.24C483.018 169.092 482.512 170.746 481.512 172.2C480.523 173.643 479.211 174.581 477.575 175.013V175.217C478.836 175.444 479.972 175.984 480.984 176.836C481.995 177.677 482.802 178.729 483.404 179.99C484.006 181.24 484.313 182.604 484.325 184.081C484.313 185.967 483.802 187.649 482.791 189.126C481.791 190.592 480.398 191.746 478.614 192.586C476.842 193.416 474.791 193.831 472.461 193.831ZM472.461 190.081C474.041 190.081 475.404 189.825 476.552 189.314C477.7 188.802 478.586 188.081 479.211 187.149C479.836 186.217 480.154 185.126 480.166 183.876C480.154 182.558 479.813 181.393 479.143 180.382C478.472 179.371 477.558 178.575 476.398 177.996C475.251 177.416 473.938 177.126 472.461 177.126C470.972 177.126 469.643 177.416 468.472 177.996C467.313 178.575 466.398 179.371 465.728 180.382C465.069 181.393 464.745 182.558 464.756 183.876C464.745 185.126 465.046 186.217 465.66 187.149C466.285 188.081 467.177 188.802 468.336 189.314C469.495 189.825 470.87 190.081 472.461 190.081ZM472.461 173.513C473.711 173.513 474.819 173.263 475.785 172.763C476.762 172.263 477.529 171.564 478.086 170.666C478.643 169.768 478.927 168.717 478.938 167.513C478.927 166.331 478.648 165.302 478.103 164.427C477.558 163.541 476.802 162.859 475.836 162.382C474.87 161.893 473.745 161.649 472.461 161.649C471.154 161.649 470.012 161.893 469.035 162.382C468.058 162.859 467.302 163.541 466.768 164.427C466.234 165.302 465.972 166.331 465.984 167.513C465.972 168.717 466.239 169.768 466.785 170.666C467.342 171.564 468.109 172.263 469.086 172.763C470.063 173.263 471.188 173.513 472.461 173.513Z" fill="black"/>
<path d="M425.909 455.909V455.636C425.939 452.742 426.242 450.439 426.818 448.727C427.394 447.015 428.212 445.629 429.273 444.568C430.333 443.508 431.606 442.53 433.091 441.636C433.985 441.091 434.788 440.447 435.5 439.705C436.212 438.947 436.773 438.076 437.182 437.091C437.606 436.106 437.818 435.015 437.818 433.818C437.818 432.333 437.47 431.045 436.773 429.955C436.076 428.864 435.144 428.023 433.977 427.432C432.811 426.841 431.515 426.545 430.091 426.545C428.848 426.545 427.652 426.803 426.5 427.318C425.348 427.833 424.386 428.644 423.614 429.75C422.841 430.856 422.394 432.303 422.273 434.091H416.545C416.667 431.515 417.333 429.311 418.545 427.477C419.773 425.644 421.386 424.242 423.386 423.273C425.402 422.303 427.636 421.818 430.091 421.818C432.758 421.818 435.076 422.348 437.045 423.409C439.03 424.47 440.561 425.924 441.636 427.773C442.727 429.621 443.273 431.727 443.273 434.091C443.273 435.758 443.015 437.265 442.5 438.614C442 439.962 441.273 441.167 440.318 442.227C439.379 443.288 438.242 444.227 436.909 445.045C435.576 445.879 434.508 446.758 433.705 447.682C432.902 448.591 432.318 449.674 431.955 450.932C431.591 452.189 431.394 453.758 431.364 455.636V455.909H425.909ZM428.818 469.364C427.697 469.364 426.735 468.962 425.932 468.159C425.129 467.356 424.727 466.394 424.727 465.273C424.727 464.152 425.129 463.189 425.932 462.386C426.735 461.583 427.697 461.182 428.818 461.182C429.939 461.182 430.902 461.583 431.705 462.386C432.508 463.189 432.909 464.152 432.909 465.273C432.909 466.015 432.72 466.697 432.341 467.318C431.977 467.939 431.485 468.439 430.864 468.818C430.258 469.182 429.576 469.364 428.818 469.364Z" fill="#3A506B"/>
</svg>
