<svg width="115" height="115" viewBox="0 0 115 115" fill="none" xmlns="http://www.w3.org/2000/svg">
<circle cx="57.5" cy="57.5" r="57.5" fill="#D9D9D9"/>
<path d="M47.8864 39.0909V74H43.6591V43.5227H43.4545L34.9318 49.1818V44.8864L43.6591 39.0909H47.8864ZM57.9261 74V70.9318L69.4489 58.3182C70.8011 56.8409 71.9148 55.5568 72.7898 54.4659C73.6648 53.3636 74.3125 52.3295 74.733 51.3636C75.1648 50.3864 75.3807 49.3636 75.3807 48.2955C75.3807 47.0682 75.0852 46.0057 74.4943 45.108C73.9148 44.2102 73.1193 43.517 72.108 43.0284C71.0966 42.5398 69.9602 42.2955 68.6989 42.2955C67.358 42.2955 66.1875 42.5739 65.1875 43.1307C64.1989 43.6761 63.4318 44.4432 62.8864 45.4318C62.3523 46.4205 62.0852 47.5795 62.0852 48.9091H58.0625C58.0625 46.8636 58.5341 45.0682 59.4773 43.5227C60.4205 41.9773 61.7045 40.7727 63.3295 39.9091C64.9659 39.0455 66.8011 38.6136 68.8352 38.6136C70.8807 38.6136 72.6932 39.0455 74.2727 39.9091C75.8523 40.7727 77.0909 41.9375 77.9886 43.4034C78.8864 44.8693 79.3352 46.5 79.3352 48.2955C79.3352 49.5795 79.1023 50.8352 78.6364 52.0625C78.1818 53.2784 77.3864 54.6364 76.25 56.1364C75.125 57.625 73.5625 59.4432 71.5625 61.5909L63.7216 69.9773V70.25H79.9489V74H57.9261Z" fill="black"/>
</svg>
