<svg width="115" height="115" viewBox="0 0 115 115" fill="none" xmlns="http://www.w3.org/2000/svg">
<circle cx="57.5" cy="57.5" r="57.5" fill="#D9D9D9"/>
<path d="M47.8864 39.0909V74H43.6591V43.5227H43.4545L34.9318 49.1818V44.8864L43.6591 39.0909H47.8864ZM69.517 74.4773C68.0852 74.4545 66.6534 74.1818 65.2216 73.6591C63.7898 73.1364 62.483 72.2557 61.3011 71.017C60.1193 69.767 59.1705 68.0795 58.4545 65.9545C57.7386 63.8182 57.3807 61.1364 57.3807 57.9091C57.3807 54.8182 57.6705 52.0795 58.25 49.6932C58.8295 47.2955 59.6705 45.2784 60.7727 43.642C61.875 41.9943 63.2045 40.7443 64.7614 39.892C66.3295 39.0398 68.0966 38.6136 70.0625 38.6136C72.017 38.6136 73.7557 39.0057 75.2784 39.7898C76.8125 40.5625 78.0625 41.642 79.0284 43.0284C79.9943 44.4148 80.6193 46.0114 80.9034 47.8182H76.7443C76.358 46.25 75.608 44.9489 74.4943 43.9148C73.3807 42.8807 71.9034 42.3636 70.0625 42.3636C67.358 42.3636 65.2273 43.5398 63.6705 45.892C62.125 48.2443 61.3466 51.5455 61.3352 55.7955H61.608C62.2443 54.8295 63 54.0057 63.875 53.3239C64.7614 52.6307 65.7386 52.0966 66.8068 51.7216C67.875 51.3466 69.0057 51.1591 70.1989 51.1591C72.1989 51.1591 74.0284 51.6591 75.6875 52.6591C77.3466 53.6477 78.6761 55.017 79.6761 56.767C80.6761 58.5057 81.1761 60.5 81.1761 62.75C81.1761 64.9091 80.6932 66.8864 79.7273 68.6818C78.7614 70.4659 77.4034 71.8864 75.6534 72.9432C73.9148 73.9886 71.8693 74.5 69.517 74.4773ZM69.517 70.7273C70.9489 70.7273 72.233 70.3693 73.3693 69.6534C74.517 68.9375 75.4205 67.9773 76.0795 66.7727C76.75 65.5682 77.0852 64.2273 77.0852 62.75C77.0852 61.3068 76.7614 59.9943 76.1136 58.8125C75.4773 57.6193 74.5966 56.6705 73.4716 55.9659C72.358 55.2614 71.0852 54.9091 69.6534 54.9091C68.5739 54.9091 67.5682 55.125 66.6364 55.5568C65.7045 55.9773 64.8864 56.5568 64.1818 57.2955C63.4886 58.0341 62.9432 58.8807 62.5455 59.8352C62.1477 60.7784 61.9489 61.7727 61.9489 62.8182C61.9489 64.2045 62.2727 65.5 62.9205 66.7045C63.5795 67.9091 64.4773 68.8807 65.6136 69.6193C66.7614 70.358 68.0625 70.7273 69.517 70.7273Z" fill="black"/>
</svg>
