<svg width="115" height="115" viewBox="0 0 115 115" fill="none" xmlns="http://www.w3.org/2000/svg">
<circle cx="57.5" cy="57.5" r="57.5" fill="#D9D9D9"/>
<path d="M46.8864 39.0909V74H42.6591V43.5227H42.4545L33.9318 49.1818V44.8864L42.6591 39.0909H46.8864ZM68.0398 38.6136C69.4716 38.625 70.9034 38.8977 72.3352 39.4318C73.767 39.9659 75.0739 40.8523 76.2557 42.0909C77.4375 43.3182 78.3864 44.9943 79.1023 47.1193C79.8182 49.2443 80.1761 51.9091 80.1761 55.1136C80.1761 58.2159 79.8807 60.9716 79.2898 63.3807C78.7102 65.7784 77.8693 67.8011 76.767 69.4489C75.6761 71.0966 74.3466 72.3466 72.7784 73.1989C71.2216 74.0511 69.4602 74.4773 67.4943 74.4773C65.5398 74.4773 63.7955 74.0909 62.2614 73.3182C60.7386 72.5341 59.4886 71.4489 58.5114 70.0625C57.5455 68.6648 56.9261 67.0455 56.6534 65.2045H60.8125C61.1875 66.8068 61.9318 68.1307 63.0455 69.1761C64.1705 70.2102 65.6534 70.7273 67.4943 70.7273C70.1875 70.7273 72.3125 69.5511 73.8693 67.1989C75.4375 64.8466 76.2216 61.5227 76.2216 57.2273H75.9489C75.3125 58.1818 74.5568 59.0057 73.6818 59.6989C72.8068 60.392 71.8352 60.9261 70.767 61.3011C69.6989 61.6761 68.5625 61.8636 67.358 61.8636C65.358 61.8636 63.5227 61.3693 61.8523 60.3807C60.1932 59.3807 58.8636 58.0114 57.8636 56.2727C56.875 54.5227 56.3807 52.5227 56.3807 50.2727C56.3807 48.1364 56.858 46.1818 57.8125 44.4091C58.7784 42.625 60.1307 41.2045 61.8693 40.1477C63.6193 39.0909 65.6761 38.5795 68.0398 38.6136ZM68.0398 42.3636C66.608 42.3636 65.3182 42.7216 64.1705 43.4375C63.0341 44.142 62.1307 45.0966 61.4602 46.3011C60.8011 47.4943 60.4716 48.8182 60.4716 50.2727C60.4716 51.7273 60.7898 53.0511 61.4261 54.2443C62.0739 55.4261 62.9545 56.3693 64.0682 57.0739C65.1932 57.767 66.4716 58.1136 67.9034 58.1136C68.983 58.1136 69.9886 57.9034 70.9205 57.483C71.8523 57.0511 72.6648 56.4659 73.358 55.7273C74.0625 54.9773 74.6136 54.1307 75.0114 53.1875C75.4091 52.233 75.608 51.2386 75.608 50.2045C75.608 48.8409 75.2784 47.5625 74.6193 46.3693C73.9716 45.1761 73.0739 44.2102 71.9261 43.4716C70.7898 42.733 69.4943 42.3636 68.0398 42.3636Z" fill="black"/>
</svg>
