<svg width="573" height="492" viewBox="0 0 573 492" fill="none" xmlns="http://www.w3.org/2000/svg">
<path d="M573 246C573 205.131 538.75 172 496.5 172C454.25 172 420 205.131 420 246C420 286.869 454.25 320 496.5 320C538.75 320 573 286.869 573 246Z" fill="#F1E4D4"/>
<path d="M497.242 214L524 245.5L497.242 277V214Z" fill="#050A0A"/>
<path d="M470.484 245V214H497.242L470.484 245Z" fill="#050A0A"/>
<path d="M470.484 245L497.242 277H470.484V245Z" fill="#050A0A"/>
<path d="M153 418C153 377.131 118.75 344 76.5 344C34.2502 344 0 377.131 0 418C0 458.869 34.2502 492 76.5 492C118.75 492 153 458.869 153 418Z" fill="#F1E4D4"/>
<path d="M109 418.242L77.5 445L46 418.242H109Z" fill="#050A0A"/>
<path d="M78 391.484H109V418.242L78 391.484Z" fill="#050A0A"/>
<path d="M78 391.484L46 418.242V391.484H78Z" fill="#050A0A"/>
<path d="M363 418C363 377.131 328.75 344 286.5 344C244.25 344 210 377.131 210 418C210 458.869 244.25 492 286.5 492C328.75 492 363 458.869 363 418Z" fill="#F1E4D4"/>
<path d="M287.758 449L261 417.5L287.758 386V449Z" fill="#050A0A"/>
<path d="M314.516 418V449H287.758L314.516 418Z" fill="#050A0A"/>
<path d="M314.516 418L287.758 386H314.516V418Z" fill="#050A0A"/>
<path d="M153 74C153 33.1309 118.75 0 76.5 0C34.2502 0 0 33.1309 0 74C0 114.869 34.2502 148 76.5 148C118.75 148 153 114.869 153 74Z" fill="#F1E4D4"/>
<path d="M45 73.7578L76.5 46.9999L108 73.7578H45Z" fill="#050A0A"/>
<path d="M76 100.516H45V73.7577L76 100.516Z" fill="#050A0A"/>
<path d="M76 100.516L108 73.7577V100.516H76Z" fill="#050A0A"/>
<path d="M363 74C363 33.1309 328.75 0 286.5 0C244.25 0 210 33.1309 210 74C210 114.869 244.25 148 286.5 148C328.75 148 363 114.869 363 74Z" fill="#F1E4D4"/>
<path d="M287.242 42L314 73.5L287.242 105V42Z" fill="#050A0A"/>
<path d="M260.484 73V42H287.242L260.484 73Z" fill="#050A0A"/>
<path d="M260.484 73L287.242 105H260.484V73Z" fill="#050A0A"/>
<path d="M573 74C573 33.1309 538.75 0 496.5 0C454.25 0 420 33.1309 420 74C420 114.869 454.25 148 496.5 148C538.75 148 573 114.869 573 74Z" fill="#F1E4D4"/>
<path d="M529 74.2422L497.5 101L466 74.2422H529Z" fill="#050A0A"/>
<path d="M498 47.4844H529V74.2423L498 47.4844Z" fill="#050A0A"/>
<path d="M498 47.4844L466 74.2423V47.4844H498Z" fill="#050A0A"/>
<path d="M153 246C153 205.131 118.75 172 76.5 172C34.2502 172 0 205.131 0 246C0 286.869 34.2502 320 76.5 320C118.75 320 153 286.869 153 246Z" fill="#F1E4D4"/>
<path d="M77.7578 277L50.9999 245.5L77.7578 214V277Z" fill="#050A0A"/>
<path d="M104.516 246V277H77.7577L104.516 246Z" fill="#050A0A"/>
<path d="M104.516 246L77.7577 214H104.516V246Z" fill="#050A0A"/>
<path d="M363 246C363 205.131 328.75 172 286.5 172C244.25 172 210 205.131 210 246C210 286.869 244.25 320 286.5 320C328.75 320 363 286.869 363 246Z" fill="#F1E4D4"/>
<path d="M255 245.758L286.5 219L318 245.758H255Z" fill="#050A0A"/>
<path d="M286 272.516H255V245.758L286 272.516Z" fill="#050A0A"/>
<path d="M286 272.516L318 245.758V272.516H286Z" fill="#050A0A"/>
<path d="M489.766 434.045V433.619C489.814 429.098 490.287 425.499 491.187 422.824C492.086 420.149 493.365 417.982 495.022 416.325C496.679 414.668 498.668 413.141 500.988 411.744C502.385 410.892 503.639 409.886 504.752 408.726C505.865 407.542 506.741 406.181 507.38 404.642C508.043 403.103 508.374 401.399 508.374 399.528C508.374 397.208 507.83 395.196 506.741 393.491C505.652 391.787 504.196 390.473 502.373 389.55C500.55 388.626 498.526 388.165 496.3 388.165C494.359 388.165 492.489 388.567 490.689 389.372C488.89 390.177 487.387 391.444 486.18 393.172C484.972 394.9 484.274 397.161 484.084 399.955H475.135C475.325 395.93 476.367 392.485 478.26 389.621C480.178 386.756 482.699 384.566 485.824 383.051C488.973 381.536 492.465 380.778 496.3 380.778C500.467 380.778 504.089 381.607 507.167 383.264C510.268 384.921 512.659 387.194 514.34 390.082C516.045 392.971 516.897 396.261 516.897 399.955C516.897 402.559 516.494 404.914 515.689 407.021C514.908 409.128 513.772 411.01 512.28 412.668C510.813 414.325 509.037 415.793 506.954 417.071C504.87 418.373 503.201 419.746 501.947 421.19C500.692 422.611 499.78 424.304 499.212 426.268C498.644 428.233 498.336 430.684 498.289 433.619V434.045H489.766ZM494.312 455.068C492.56 455.068 491.056 454.441 489.802 453.186C488.547 451.931 487.92 450.428 487.92 448.676C487.92 446.924 488.547 445.421 489.802 444.166C491.056 442.911 492.56 442.284 494.312 442.284C496.064 442.284 497.567 442.911 498.822 444.166C500.076 445.421 500.704 446.924 500.704 448.676C500.704 449.836 500.408 450.902 499.816 451.872C499.248 452.843 498.478 453.624 497.508 454.216C496.561 454.784 495.495 455.068 494.312 455.068Z" fill="#90A8C5"/>
</svg>
