<svg width="200" height="200" viewBox="0 0 200 200" fill="none" xmlns="http://www.w3.org/2000/svg">
<path d="M0 0H200V200H0V0Z" fill="#D9D9D9"/>
<path d="M99.2727 52.6364C103.091 52.6667 106.909 53.3939 110.727 54.8182C114.545 56.2424 118.03 58.6061 121.182 61.9091C124.333 65.1818 126.864 69.6515 128.773 75.3182C130.682 80.9848 131.636 88.0909 131.636 96.6364C131.636 104.909 130.848 112.258 129.273 118.682C127.727 125.076 125.485 130.47 122.545 134.864C119.636 139.258 116.091 142.591 111.909 144.864C107.758 147.136 103.061 148.273 97.8182 148.273C92.6061 148.273 87.9545 147.242 83.8636 145.182C79.803 143.091 76.4697 140.197 73.8636 136.5C71.2879 132.773 69.6364 128.455 68.9091 123.545H80C81 127.818 82.9848 131.348 85.9545 134.136C88.9545 136.894 92.9091 138.273 97.8182 138.273C105 138.273 110.667 135.136 114.818 128.864C119 122.591 121.091 113.727 121.091 102.273H120.364C118.667 104.818 116.652 107.015 114.318 108.864C111.985 110.712 109.394 112.136 106.545 113.136C103.697 114.136 100.667 114.636 97.4545 114.636C92.1212 114.636 87.2273 113.318 82.7727 110.682C78.3485 108.015 74.803 104.364 72.1364 99.7273C69.5 95.0606 68.1818 89.7273 68.1818 83.7273C68.1818 78.0303 69.4545 72.8182 72 68.0909C74.5758 63.3333 78.1818 59.5455 82.8182 56.7273C87.4848 53.9091 92.9697 52.5455 99.2727 52.6364ZM99.2727 62.6364C95.4545 62.6364 92.0152 63.5909 88.9545 65.5C85.9242 67.3788 83.5152 69.9242 81.7273 73.1364C79.9697 76.3182 79.0909 79.8485 79.0909 83.7273C79.0909 87.6061 79.9394 91.1364 81.6364 94.3182C83.3636 97.4697 85.7121 99.9848 88.6818 101.864C91.6818 103.712 95.0909 104.636 98.9091 104.636C101.788 104.636 104.47 104.076 106.955 102.955C109.439 101.803 111.606 100.242 113.455 98.2727C115.333 96.2727 116.803 94.0151 117.864 91.5C118.924 88.9545 119.455 86.303 119.455 83.5455C119.455 79.9091 118.576 76.5 116.818 73.3182C115.091 70.1364 112.697 67.5606 109.636 65.5909C106.606 63.6212 103.152 62.6364 99.2727 62.6364Z" fill="black"/>
</svg>
