<svg width="200" height="200" viewBox="0 0 200 200" fill="none" xmlns="http://www.w3.org/2000/svg">
<path d="M0 0H200V200H0V0Z" fill="#D9D9D9"/>
<path d="M99.4545 148.273C93.2121 148.273 87.697 147.167 82.9091 144.955C78.1515 142.712 74.4394 139.636 71.7727 135.727C69.1061 131.788 67.7879 127.303 67.8182 122.273C67.7879 118.333 68.5606 114.697 70.1364 111.364C71.7121 108 73.8636 105.197 76.5909 102.955C79.3485 100.682 82.4242 99.2424 85.8182 98.6364V98.0909C81.3636 96.9394 77.8182 94.4394 75.1818 90.5909C72.5455 86.7121 71.2424 82.303 71.2727 77.3636C71.2424 72.6364 72.4394 68.4091 74.8636 64.6818C77.2879 60.9545 80.6212 58.0151 84.8636 55.8636C89.1364 53.7121 94 52.6364 99.4545 52.6364C104.848 52.6364 109.667 53.7121 113.909 55.8636C118.152 58.0151 121.485 60.9545 123.909 64.6818C126.364 68.4091 127.606 72.6364 127.636 77.3636C127.606 82.303 126.258 86.7121 123.591 90.5909C120.955 94.4394 117.455 96.9394 113.091 98.0909V98.6364C116.455 99.2424 119.485 100.682 122.182 102.955C124.879 105.197 127.03 108 128.636 111.364C130.242 114.697 131.061 118.333 131.091 122.273C131.061 127.303 129.697 131.788 127 135.727C124.333 139.636 120.621 142.712 115.864 144.955C111.136 147.167 105.667 148.273 99.4545 148.273ZM99.4545 138.273C103.667 138.273 107.303 137.591 110.364 136.227C113.424 134.864 115.788 132.939 117.455 130.455C119.121 127.97 119.97 125.061 120 121.727C119.97 118.212 119.061 115.106 117.273 112.409C115.485 109.712 113.045 107.591 109.955 106.045C106.894 104.5 103.394 103.727 99.4545 103.727C95.4848 103.727 91.9394 104.5 88.8182 106.045C85.7273 107.591 83.2879 109.712 81.5 112.409C79.7424 115.106 78.8788 118.212 78.9091 121.727C78.8788 125.061 79.6818 127.97 81.3182 130.455C82.9848 132.939 85.3636 134.864 88.4545 136.227C91.5455 137.591 95.2121 138.273 99.4545 138.273ZM99.4545 94.0909C102.788 94.0909 105.742 93.4242 108.318 92.0909C110.924 90.7576 112.97 88.8939 114.455 86.5C115.939 84.1061 116.697 81.303 116.727 78.0909C116.697 74.9394 115.955 72.197 114.5 69.8636C113.045 67.5 111.03 65.6818 108.455 64.4091C105.879 63.1061 102.879 62.4545 99.4545 62.4545C95.9697 62.4545 92.9242 63.1061 90.3182 64.4091C87.7121 65.6818 85.697 67.5 84.2727 69.8636C82.8485 72.197 82.1515 74.9394 82.1818 78.0909C82.1515 81.303 82.8636 84.1061 84.3182 86.5C85.803 88.8939 87.8485 90.7576 90.4545 92.0909C93.0606 93.4242 96.0606 94.0909 99.4545 94.0909Z" fill="black"/>
</svg>
