<svg width="200" height="200" viewBox="0 0 200 200" fill="none" xmlns="http://www.w3.org/2000/svg">
<path d="M0 0H200V200H0V0Z" fill="#D9D9D9"/>
<path d="M103.545 148.273C99.7273 148.212 95.9091 147.485 92.0909 146.091C88.2727 144.697 84.7879 142.348 81.6364 139.045C78.4848 135.712 75.9545 131.212 74.0455 125.545C72.1364 119.848 71.1818 112.697 71.1818 104.091C71.1818 95.8485 71.9545 88.5455 73.5 82.1818C75.0455 75.7879 77.2879 70.4091 80.2273 66.0455C83.1667 61.6515 86.7121 58.3182 90.8636 56.0454C95.0455 53.7727 99.7576 52.6364 105 52.6364C110.212 52.6364 114.848 53.6818 118.909 55.7727C123 57.8333 126.333 60.7121 128.909 64.4091C131.485 68.1061 133.152 72.3636 133.909 77.1818H122.818C121.788 73 119.788 69.5303 116.818 66.7727C113.848 64.0151 109.909 62.6364 105 62.6364C97.7879 62.6364 92.1061 65.7727 87.9545 72.0455C83.8333 78.3182 81.7576 87.1212 81.7273 98.4545H82.4545C84.1515 95.8788 86.1667 93.6818 88.5 91.8636C90.8636 90.0152 93.4697 88.5909 96.3182 87.5909C99.1667 86.5909 102.182 86.0909 105.364 86.0909C110.697 86.0909 115.576 87.4242 120 90.0909C124.424 92.7273 127.97 96.3788 130.636 101.045C133.303 105.682 134.636 111 134.636 117C134.636 122.758 133.348 128.03 130.773 132.818C128.197 137.576 124.576 141.364 119.909 144.182C115.273 146.97 109.818 148.333 103.545 148.273ZM103.545 138.273C107.364 138.273 110.788 137.318 113.818 135.409C116.879 133.5 119.288 130.939 121.045 127.727C122.833 124.515 123.727 120.939 123.727 117C123.727 113.152 122.864 109.652 121.136 106.5C119.439 103.318 117.091 100.788 114.091 98.9091C111.121 97.0303 107.727 96.0909 103.909 96.0909C101.03 96.0909 98.3485 96.6667 95.8636 97.8182C93.3788 98.9394 91.197 100.485 89.3182 102.455C87.4697 104.424 86.0152 106.682 84.9545 109.227C83.8939 111.742 83.3636 114.394 83.3636 117.182C83.3636 120.879 84.2273 124.333 85.9545 127.545C87.7121 130.758 90.1061 133.348 93.1364 135.318C96.197 137.288 99.6667 138.273 103.545 138.273Z" fill="black"/>
</svg>
