<svg width="200" height="200" viewBox="0 0 200 200" fill="none" xmlns="http://www.w3.org/2000/svg">
<path d="M0 0H200V200H0V0Z" fill="#D9D9D9"/>
<path d="M72.3636 53.9091V147H61.0909V65.7273H60.5455L37.8182 80.8182V69.3636L61.0909 53.9091H72.3636ZM129.5 148.273C122.652 148.273 116.818 146.409 112 142.682C107.182 138.924 103.5 133.485 100.955 126.364C98.4091 119.212 97.1364 110.576 97.1364 100.455C97.1364 90.3939 98.4091 81.803 100.955 74.6818C103.53 67.5303 107.227 62.0758 112.045 58.3182C116.894 54.5303 122.712 52.6364 129.5 52.6364C136.288 52.6364 142.091 54.5303 146.909 58.3182C151.758 62.0758 155.455 67.5303 158 74.6818C160.576 81.803 161.864 90.3939 161.864 100.455C161.864 110.576 160.591 119.212 158.045 126.364C155.5 133.485 151.818 138.924 147 142.682C142.182 146.409 136.348 148.273 129.5 148.273ZM129.5 138.273C136.288 138.273 141.561 135 145.318 128.455C149.076 121.909 150.955 112.576 150.955 100.455C150.955 92.3939 150.091 85.5303 148.364 79.8636C146.667 74.197 144.212 69.8788 141 66.9091C137.818 63.9394 133.985 62.4545 129.5 62.4545C122.773 62.4545 117.515 65.7727 113.727 72.4091C109.939 79.0151 108.045 88.3636 108.045 100.455C108.045 108.515 108.894 115.364 110.591 121C112.288 126.636 114.727 130.924 117.909 133.864C121.121 136.803 124.985 138.273 129.5 138.273Z" fill="black"/>
</svg>
