<svg width="204" height="177" viewBox="0 0 204 177" fill="none" xmlns="http://www.w3.org/2000/svg">
<path d="M152.939 177L51.0614 177L0 88.6231L51.0614 0L152.939 0L204 88.6231L152.939 177Z" fill="#2B595F"/>
<path d="M78.4545 52.2273C81.3182 52.25 84.1818 52.7955 87.0455 53.8636C89.9091 54.9318 92.5227 56.7045 94.8864 59.1818C97.25 61.6364 99.1477 64.9886 100.58 69.2386C102.011 73.4886 102.727 78.8182 102.727 85.2273C102.727 91.4318 102.136 96.9432 100.955 101.761C99.7955 106.557 98.1136 110.602 95.9091 113.898C93.7273 117.193 91.0682 119.693 87.9318 121.398C84.8182 123.102 81.2955 123.955 77.3636 123.955C73.4545 123.955 69.9659 123.182 66.8977 121.636C63.8523 120.068 61.3523 117.898 59.3977 115.125C57.4659 112.33 56.2273 109.091 55.6818 105.409H64C64.75 108.614 66.2386 111.261 68.4659 113.352C70.7159 115.42 73.6818 116.455 77.3636 116.455C82.75 116.455 87 114.102 90.1136 109.398C93.25 104.693 94.8182 98.0455 94.8182 89.4545H94.2727C93 91.3636 91.4886 93.0114 89.7386 94.3977C87.9886 95.7841 86.0455 96.8523 83.9091 97.6023C81.7727 98.3523 79.5 98.7273 77.0909 98.7273C73.0909 98.7273 69.4205 97.7386 66.0795 95.7614C62.7614 93.7614 60.1023 91.0227 58.1023 87.5455C56.125 84.0455 55.1364 80.0455 55.1364 75.5455C55.1364 71.2727 56.0909 67.3636 58 63.8182C59.9318 60.25 62.6364 57.4091 66.1136 55.2955C69.6136 53.1818 73.7273 52.1591 78.4545 52.2273ZM78.4545 59.7273C75.5909 59.7273 73.0114 60.4432 70.7159 61.875C68.4432 63.2841 66.6364 65.1932 65.2955 67.6023C63.9773 69.9886 63.3182 72.6364 63.3182 75.5455C63.3182 78.4545 63.9545 81.1023 65.2273 83.4886C66.5227 85.8523 68.2841 87.7386 70.5114 89.1477C72.7614 90.5341 75.3182 91.2273 78.1818 91.2273C80.3409 91.2273 82.3523 90.8068 84.2159 89.9659C86.0795 89.1023 87.7045 87.9318 89.0909 86.4545C90.5 84.9545 91.6023 83.2614 92.3977 81.375C93.1932 79.4659 93.5909 77.4773 93.5909 75.4091C93.5909 72.6818 92.9318 70.125 91.6136 67.7386C90.3182 65.3523 88.5227 63.4205 86.2273 61.9432C83.9545 60.4659 81.3636 59.7273 78.4545 59.7273ZM138.906 123.955C133.77 123.955 129.395 122.557 125.781 119.761C122.168 116.943 119.406 112.864 117.497 107.523C115.588 102.159 114.634 95.6818 114.634 88.0909C114.634 80.5455 115.588 74.1023 117.497 68.7614C119.429 63.3977 122.202 59.3068 125.815 56.4886C129.452 53.6477 133.815 52.2273 138.906 52.2273C143.997 52.2273 148.349 53.6477 151.963 56.4886C155.599 59.3068 158.372 63.3977 160.281 68.7614C162.213 74.1023 163.179 80.5455 163.179 88.0909C163.179 95.6818 162.224 102.159 160.315 107.523C158.406 112.864 155.645 116.943 152.031 119.761C148.418 122.557 144.043 123.955 138.906 123.955ZM138.906 116.455C143.997 116.455 147.952 114 150.77 109.091C153.588 104.182 154.997 97.1818 154.997 88.0909C154.997 82.0455 154.349 76.8977 153.054 72.6477C151.781 68.3977 149.94 65.1591 147.531 62.9318C145.145 60.7045 142.27 59.5909 138.906 59.5909C133.861 59.5909 129.918 62.0795 127.077 67.0568C124.236 72.0114 122.815 79.0227 122.815 88.0909C122.815 94.1364 123.452 99.2727 124.724 103.5C125.997 107.727 127.827 110.943 130.213 113.148C132.622 115.352 135.52 116.455 138.906 116.455Z" fill="white"/>
</svg>
