<svg width="204" height="177" viewBox="0 0 204 177" fill="none" xmlns="http://www.w3.org/2000/svg">
<path d="M152.939 177L51.0614 177L0 88.6231L51.0614 0L152.939 0L204 88.6231L152.939 177Z" fill="#2B595F"/>
<path d="M49.2273 123V116.864L72.2727 91.6364C74.9773 88.6818 77.2045 86.1136 78.9545 83.9318C80.7045 81.7273 82 79.6591 82.8409 77.7273C83.7045 75.7727 84.1364 73.7273 84.1364 71.5909C84.1364 69.1364 83.5455 67.0114 82.3636 65.2159C81.2045 63.4205 79.6136 62.0341 77.5909 61.0568C75.5682 60.0795 73.2955 59.5909 70.7727 59.5909C68.0909 59.5909 65.75 60.1477 63.75 61.2614C61.7727 62.3523 60.2386 63.8864 59.1477 65.8636C58.0795 67.8409 57.5455 70.1591 57.5455 72.8182H49.5C49.5 68.7273 50.4432 65.1364 52.3295 62.0455C54.2159 58.9545 56.7841 56.5455 60.0341 54.8182C63.3068 53.0909 66.9773 52.2273 71.0455 52.2273C75.1364 52.2273 78.7614 53.0909 81.9205 54.8182C85.0795 56.5455 87.5568 58.875 89.3523 61.8068C91.1477 64.7386 92.0455 68 92.0455 71.5909C92.0455 74.1591 91.5795 76.6705 90.6477 79.125C89.7386 81.5568 88.1477 84.2727 85.875 87.2727C83.625 90.25 80.5 93.8864 76.5 98.1818L60.8182 114.955V115.5H93.2727V123H49.2273ZM104.216 108.682V101.727L134.898 53.1818H139.943V63.9545H136.534L113.352 100.636V101.182H154.67V108.682H104.216ZM137.08 123V106.568V103.33V53.1818H145.125V123H137.08Z" fill="white"/>
</svg>
