<svg width="204" height="177" viewBox="0 0 204 177" fill="none" xmlns="http://www.w3.org/2000/svg">
<path d="M152.939 177L51.0614 177L0 88.6231L51.0614 0L152.939 0L204 88.6231L152.939 177Z" fill="#2B595F"/>
<path d="M45.5909 108.682V101.727L76.2727 53.1818H81.3182V63.9545H77.9091L54.7273 100.636V101.182H96.0455V108.682H45.5909ZM78.4545 123V106.568V103.33V53.1818H86.5V123H78.4545ZM130.639 123.955C126.639 123.955 123.037 123.159 119.832 121.568C116.628 119.977 114.06 117.795 112.128 115.023C110.196 112.25 109.139 109.091 108.957 105.545H117.139C117.457 108.705 118.889 111.318 121.435 113.386C124.003 115.432 127.071 116.455 130.639 116.455C133.503 116.455 136.048 115.784 138.276 114.443C140.526 113.102 142.287 111.261 143.56 108.92C144.855 106.557 145.503 103.886 145.503 100.909C145.503 97.8636 144.832 95.1477 143.491 92.7614C142.173 90.3523 140.355 88.4545 138.037 87.0682C135.719 85.6818 133.071 84.9773 130.094 84.9545C127.957 84.9318 125.764 85.2614 123.514 85.9432C121.264 86.6023 119.412 87.4545 117.957 88.5L110.048 87.5455L114.276 53.1818H150.548V60.6818H121.366L118.912 81.2727H119.321C120.753 80.1364 122.548 79.1932 124.707 78.4432C126.866 77.6932 129.116 77.3182 131.457 77.3182C135.73 77.3182 139.537 78.3409 142.878 80.3864C146.241 82.4091 148.878 85.1818 150.787 88.7045C152.719 92.2273 153.685 96.25 153.685 100.773C153.685 105.227 152.685 109.205 150.685 112.705C148.707 116.182 145.98 118.932 142.503 120.955C139.026 122.955 135.071 123.955 130.639 123.955Z" fill="white"/>
</svg>
