<svg width="212" height="185" viewBox="0 0 212 185" fill="none" xmlns="http://www.w3.org/2000/svg">
<g filter="url(#filter0_d_118_758)">
<path d="M156.939 177L55.0614 177L4 88.6231L55.0614 0L156.939 0L208 88.6231L156.939 177Z" fill="#2B595F"/>
</g>
<path d="M49.5909 108.682V101.727L80.2727 53.1818H85.3182V63.9545H81.9091L58.7273 100.636V101.182H100.045V108.682H49.5909ZM82.4545 123V106.568V103.33V53.1818H90.5V123H82.4545ZM135.185 123.955C130.503 123.955 126.366 123.125 122.776 121.466C119.207 119.784 116.423 117.477 114.423 114.545C112.423 111.591 111.435 108.227 111.457 104.455C111.435 101.5 112.014 98.7727 113.196 96.2727C114.378 93.75 115.991 91.6477 118.037 89.9659C120.105 88.2614 122.412 87.1818 124.957 86.7273V86.3182C121.616 85.4545 118.957 83.5795 116.98 80.6932C115.003 77.7841 114.026 74.4773 114.048 70.7727C114.026 67.2273 114.923 64.0568 116.741 61.2614C118.56 58.4659 121.06 56.2614 124.241 54.6477C127.446 53.0341 131.094 52.2273 135.185 52.2273C139.23 52.2273 142.844 53.0341 146.026 54.6477C149.207 56.2614 151.707 58.4659 153.526 61.2614C155.366 64.0568 156.298 67.2273 156.321 70.7727C156.298 74.4773 155.287 77.7841 153.287 80.6932C151.31 83.5795 148.685 85.4545 145.412 86.3182V86.7273C147.935 87.1818 150.207 88.2614 152.23 89.9659C154.253 91.6477 155.866 93.75 157.071 96.2727C158.276 98.7727 158.889 101.5 158.912 104.455C158.889 108.227 157.866 111.591 155.844 114.545C153.844 117.477 151.06 119.784 147.491 121.466C143.946 123.125 139.844 123.955 135.185 123.955ZM135.185 116.455C138.344 116.455 141.071 115.943 143.366 114.92C145.662 113.898 147.435 112.455 148.685 110.591C149.935 108.727 150.571 106.545 150.594 104.045C150.571 101.409 149.889 99.0795 148.548 97.0568C147.207 95.0341 145.378 93.4432 143.06 92.2841C140.764 91.125 138.139 90.5455 135.185 90.5455C132.207 90.5455 129.548 91.125 127.207 92.2841C124.889 93.4432 123.06 95.0341 121.719 97.0568C120.401 99.0795 119.753 101.409 119.776 104.045C119.753 106.545 120.355 108.727 121.582 110.591C122.832 112.455 124.616 113.898 126.935 114.92C129.253 115.943 132.003 116.455 135.185 116.455ZM135.185 83.3182C137.685 83.3182 139.901 82.8182 141.832 81.8182C143.787 80.8182 145.321 79.4205 146.435 77.625C147.548 75.8295 148.116 73.7273 148.139 71.3182C148.116 68.9545 147.56 66.8977 146.469 65.1477C145.378 63.375 143.866 62.0114 141.935 61.0568C140.003 60.0795 137.753 59.5909 135.185 59.5909C132.571 59.5909 130.287 60.0795 128.332 61.0568C126.378 62.0114 124.866 63.375 123.798 65.1477C122.73 66.8977 122.207 68.9545 122.23 71.3182C122.207 73.7273 122.741 75.8295 123.832 77.625C124.946 79.4205 126.48 80.8182 128.435 81.8182C130.389 82.8182 132.639 83.3182 135.185 83.3182Z" fill="white"/>
<defs>
<filter id="filter0_d_118_758" x="0" y="0" width="212" height="185" filterUnits="userSpaceOnUse" color-interpolation-filters="sRGB">
<feFlood flood-opacity="0" result="BackgroundImageFix"/>
<feColorMatrix in="SourceAlpha" type="matrix" values="0 0 0 0 0 0 0 0 0 0 0 0 0 0 0 0 0 0 127 0" result="hardAlpha"/>
<feOffset dy="4"/>
<feGaussianBlur stdDeviation="2"/>
<feComposite in2="hardAlpha" operator="out"/>
<feColorMatrix type="matrix" values="0 0 0 0 0 0 0 0 0 0 0 0 0 0 0 0 0 0 0.25 0"/>
<feBlend mode="normal" in2="BackgroundImageFix" result="effect1_dropShadow_118_758"/>
<feBlend mode="normal" in="SourceGraphic" in2="effect1_dropShadow_118_758" result="shape"/>
</filter>
</defs>
</svg>
