<svg width="204" height="177" viewBox="0 0 204 177" fill="none" xmlns="http://www.w3.org/2000/svg">
<path d="M152.939 177L51.0614 177L0 88.6231L51.0614 0L152.939 0L204 88.6231L152.939 177Z" fill="#2B595F"/>
<path d="M81.7727 53.1818V123H73.3182V62.0455H72.9091L55.8636 73.3636V64.7727L73.3182 53.1818H81.7727ZM123.67 123.955C119.67 123.955 116.068 123.159 112.864 121.568C109.659 119.977 107.091 117.795 105.159 115.023C103.227 112.25 102.17 109.091 101.989 105.545H110.17C110.489 108.705 111.92 111.318 114.466 113.386C117.034 115.432 120.102 116.455 123.67 116.455C126.534 116.455 129.08 115.784 131.307 114.443C133.557 113.102 135.318 111.261 136.591 108.92C137.886 106.557 138.534 103.886 138.534 100.909C138.534 97.8636 137.864 95.1477 136.523 92.7614C135.205 90.3523 133.386 88.4545 131.068 87.0682C128.75 85.6818 126.102 84.9773 123.125 84.9545C120.989 84.9318 118.795 85.2614 116.545 85.9432C114.295 86.6023 112.443 87.4545 110.989 88.5L103.08 87.5455L107.307 53.1818H143.58V60.6818H114.398L111.943 81.2727H112.352C113.784 80.1364 115.58 79.1932 117.739 78.4432C119.898 77.6932 122.148 77.3182 124.489 77.3182C128.761 77.3182 132.568 78.3409 135.909 80.3864C139.273 82.4091 141.909 85.1818 143.818 88.7045C145.75 92.2273 146.716 96.25 146.716 100.773C146.716 105.227 145.716 109.205 143.716 112.705C141.739 116.182 139.011 118.932 135.534 120.955C132.057 122.955 128.102 123.955 123.67 123.955Z" fill="white"/>
</svg>
