<svg width="204" height="177" viewBox="0 0 204 177" fill="none" xmlns="http://www.w3.org/2000/svg">
<path d="M152.939 177L51.0614 177L0 88.6231L51.0614 0L152.939 0L204 88.6231L152.939 177Z" fill="#2B595F"/>
<path d="M71.8182 123.955C67.3182 123.955 63.3068 123.182 59.7841 121.636C56.2841 120.091 53.5 117.943 51.4318 115.193C49.3864 112.42 48.2727 109.205 48.0909 105.545H56.6818C56.8636 107.795 57.6364 109.739 59 111.375C60.3636 112.989 62.1477 114.239 64.3523 115.125C66.5568 116.011 69 116.455 71.6818 116.455C74.6818 116.455 77.3409 115.932 79.6591 114.886C81.9773 113.841 83.7955 112.386 85.1136 110.523C86.4318 108.659 87.0909 106.5 87.0909 104.045C87.0909 101.477 86.4545 99.2159 85.1818 97.2614C83.9091 95.2841 82.0455 93.7386 79.5909 92.625C77.1364 91.5114 74.1364 90.9545 70.5909 90.9545H65V83.4545H70.5909C73.3636 83.4545 75.7955 82.9545 77.8864 81.9545C80 80.9545 81.6477 79.5455 82.8295 77.7273C84.0341 75.9091 84.6364 73.7727 84.6364 71.3182C84.6364 68.9545 84.1136 66.8977 83.0682 65.1477C82.0227 63.3977 80.5455 62.0341 78.6364 61.0568C76.75 60.0795 74.5227 59.5909 71.9545 59.5909C69.5455 59.5909 67.2727 60.0341 65.1364 60.9205C63.0227 61.7841 61.2955 63.0455 59.9545 64.7045C58.6136 66.3409 57.8864 68.3182 57.7727 70.6364H49.5909C49.7273 66.9773 50.8295 63.7727 52.8977 61.0227C54.9659 58.25 57.6705 56.0909 61.0114 54.5455C64.375 53 68.0682 52.2273 72.0909 52.2273C76.4091 52.2273 80.1136 53.1023 83.2045 54.8523C86.2955 56.5795 88.6705 58.8636 90.3295 61.7045C91.9886 64.5455 92.8182 67.6136 92.8182 70.9091C92.8182 74.8409 91.7841 78.1932 89.7159 80.9659C87.6705 83.7386 84.8864 85.6591 81.3636 86.7273V87.2727C85.7727 88 89.2159 89.875 91.6932 92.8977C94.1705 95.8977 95.4091 99.6136 95.4091 104.045C95.4091 107.841 94.375 111.25 92.3068 114.273C90.2614 117.273 87.4659 119.636 83.9205 121.364C80.375 123.091 76.3409 123.955 71.8182 123.955ZM132.125 123.955C126.989 123.955 122.614 122.557 119 119.761C115.386 116.943 112.625 112.864 110.716 107.523C108.807 102.159 107.852 95.6818 107.852 88.0909C107.852 80.5455 108.807 74.1023 110.716 68.7614C112.648 63.3977 115.42 59.3068 119.034 56.4886C122.67 53.6477 127.034 52.2273 132.125 52.2273C137.216 52.2273 141.568 53.6477 145.182 56.4886C148.818 59.3068 151.591 63.3977 153.5 68.7614C155.432 74.1023 156.398 80.5455 156.398 88.0909C156.398 95.6818 155.443 102.159 153.534 107.523C151.625 112.864 148.864 116.943 145.25 119.761C141.636 122.557 137.261 123.955 132.125 123.955ZM132.125 116.455C137.216 116.455 141.17 114 143.989 109.091C146.807 104.182 148.216 97.1818 148.216 88.0909C148.216 82.0455 147.568 76.8977 146.273 72.6477C145 68.3977 143.159 65.1591 140.75 62.9318C138.364 60.7045 135.489 59.5909 132.125 59.5909C127.08 59.5909 123.136 62.0795 120.295 67.0568C117.455 72.0114 116.034 79.0227 116.034 88.0909C116.034 94.1364 116.67 99.2727 117.943 103.5C119.216 107.727 121.045 110.943 123.432 113.148C125.841 115.352 128.739 116.455 132.125 116.455Z" fill="white"/>
</svg>
