<svg width="630" height="630" viewBox="0 0 630 630" fill="none" xmlns="http://www.w3.org/2000/svg">
<path d="M99.7888 178.476L76.1098 173.229C70.9291 172.082 68.4664 166.136 71.3184 161.662L84.3522 141.208L139.993 139.992L99.7888 178.476Z" fill="#2876D5"/>
<path d="M138.774 195.635L118.322 208.668C113.849 211.517 107.903 209.054 106.755 203.877L101.509 180.199L139.993 139.992L138.774 195.635Z" fill="#3A506B"/>
<path d="M178.476 180.196L173.23 203.875C172.083 209.056 166.137 211.518 161.662 208.666L141.209 195.633L139.993 139.992L178.476 180.196Z" fill="#2876D5"/>
<path d="M195.636 141.211L208.668 161.663C211.518 166.135 209.055 172.082 203.877 173.229L180.2 178.476L139.993 139.992L195.636 141.211Z" fill="#3A506B"/>
<path d="M180.197 101.508L203.876 106.755C209.057 107.902 211.519 113.848 208.667 118.322L195.633 138.776L139.993 139.992L180.197 101.508Z" fill="#2876D5"/>
<path d="M141.211 84.3487L161.663 71.3161C166.136 68.4666 172.083 70.9298 173.23 76.1073L178.477 99.7845L139.993 139.992L141.211 84.3487Z" fill="#3A506B"/>
<path d="M101.509 99.7879L106.755 76.1089C107.903 70.9282 113.848 68.4655 118.323 71.3174L138.776 84.3512L139.993 139.992L101.509 99.7879Z" fill="#2876D5"/>
<path d="M84.3534 138.772L71.3208 118.32C68.4712 113.847 70.9345 107.9 76.1119 106.753L99.7892 101.506L139.997 139.99L84.3534 138.772Z" fill="#3A506B"/>
<path d="M109.752 168.94L91.9399 164.994C88.0453 164.13 86.1919 159.656 88.3352 156.291L98.1404 140.906L139.993 139.992L109.752 168.94Z" stroke="#FFFAB6" stroke-miterlimit="10"/>
<path d="M139.076 181.845L123.693 191.65C120.327 193.793 115.856 191.941 114.991 188.045L111.047 170.235L139.993 139.992L139.076 181.845Z" stroke="#FFFAB6" stroke-miterlimit="10"/>
<path d="M168.941 170.233L164.995 188.045C164.131 191.94 159.657 193.793 156.292 191.65L140.907 181.844L139.993 139.992L168.941 170.233Z" stroke="#FFFAB6" stroke-miterlimit="10"/>
<path d="M181.846 140.909L191.651 156.292C193.794 159.658 191.942 164.129 188.046 164.994L170.236 168.938L139.993 139.992L181.846 140.909Z" stroke="#FFFAB6" stroke-miterlimit="10"/>
<path d="M170.234 111.044L188.046 114.99C191.941 115.853 193.794 120.328 191.651 123.692L181.845 139.077L139.993 139.992L170.234 111.044Z" stroke="#FFFAB6" stroke-miterlimit="10"/>
<path d="M140.91 98.1386L156.293 88.3336C159.659 86.1903 164.13 88.0423 164.995 91.9383L168.939 109.749L139.993 139.992L140.91 98.1386Z" stroke="#FFFAB6" stroke-miterlimit="10"/>
<path d="M111.045 109.751L114.991 91.9388C115.854 88.0442 120.329 86.1908 123.694 88.3341L139.079 98.1393L139.993 139.992L111.045 109.751Z" stroke="#FFFAB6" stroke-miterlimit="10"/>
<path d="M98.1397 139.075L88.3348 123.692C86.1915 120.326 88.0434 115.855 91.9394 114.99L109.75 111.046L139.993 139.992L98.1397 139.075Z" stroke="#FFFAB6" stroke-miterlimit="10"/>
<path d="M111.938 166.843L95.4171 163.184C91.8019 162.385 90.0825 158.234 92.0739 155.113L101.168 140.843L139.993 139.992L111.938 166.843Z" fill="#3A506B"/>
<path d="M139.143 178.817L124.874 187.913C121.75 189.901 117.605 188.181 116.804 184.57L113.145 168.048L139.998 139.994L139.143 178.817Z" fill="#3A506B"/>
<path d="M166.844 168.047L163.185 184.568C162.386 188.183 158.235 189.902 155.113 187.911L140.844 178.817L139.993 139.992L166.844 168.047Z" fill="#3A506B"/>
<path d="M178.818 140.842L187.914 155.111C189.902 158.234 188.182 162.38 184.571 163.181L168.049 166.84L139.995 139.987L178.818 140.842Z" fill="#3A506B"/>
<path d="M168.048 113.141L184.569 116.8C188.184 117.599 189.903 121.75 187.912 124.871L178.817 139.141L139.993 139.992L168.048 113.141Z" fill="#3A506B"/>
<path d="M140.842 101.167L155.111 92.0713C158.235 90.0827 162.381 91.8031 163.182 95.4143L166.84 111.936L139.987 139.99L140.842 101.167Z" fill="#3A506B"/>
<path d="M113.141 111.937L116.801 95.4162C117.6 91.801 121.751 90.0816 124.872 92.0731L139.142 101.167L139.993 139.992L113.141 111.937Z" fill="#3A506B"/>
<path d="M101.168 139.142L92.0722 124.873C90.0835 121.75 91.804 117.604 95.4152 116.803L111.936 113.144L139.991 139.997L101.168 139.142Z" fill="#3A506B"/>
<path d="M115.088 163.829L100.42 160.579C97.2113 159.869 95.6849 156.184 97.4515 153.413L105.526 140.743L139.991 139.988L115.088 163.829Z" fill="#3A506B"/>
<path d="M139.238 174.46L126.57 182.532C123.801 184.297 120.116 182.774 119.404 179.563L116.154 164.898L139.993 139.992L139.238 174.46Z" fill="#3A506B"/>
<path d="M163.83 164.897L160.58 179.565C159.87 182.773 156.185 184.3 153.414 182.533L140.744 174.459L139.989 139.993L163.83 164.897Z" fill="#3A506B"/>
<path d="M174.461 140.747L182.533 153.414C184.298 156.184 182.775 159.869 179.564 160.581L164.899 163.831L139.993 139.992L174.461 140.747Z" fill="#3A506B"/>
<path d="M164.898 116.155L179.566 119.404C182.774 120.115 184.301 123.8 182.534 126.571L174.46 139.24L139.994 139.996L164.898 116.155Z" fill="#3A506B"/>
<path d="M140.748 105.523L153.415 97.452C156.185 95.6868 159.87 97.21 160.582 100.421L163.832 115.085L139.993 139.992L140.748 105.523Z" fill="#3A506B"/>
<path d="M116.156 115.087L119.405 100.419C120.116 97.2103 123.801 95.6839 126.572 97.4505L139.241 105.525L139.997 139.99L116.156 115.087Z" fill="#3A506B"/>
<path d="M105.524 139.237L97.4532 126.569C95.6879 123.8 97.2111 120.115 100.422 119.403L115.086 116.153L139.993 139.992L105.524 139.237Z" fill="#3A506B"/>
<path d="M146.982 137.097C145.383 133.237 140.958 131.404 137.098 133.003C133.238 134.602 131.405 139.027 133.004 142.887C134.603 146.747 139.028 148.58 142.888 146.981C146.748 145.382 148.581 140.957 146.982 137.097Z" fill="#2876D5"/>
<path d="M274.789 178.476L251.11 173.229C245.929 172.082 243.466 166.136 246.318 161.662L259.352 141.208L314.993 139.992L274.789 178.476Z" fill="#3A506B"/>
<path d="M313.774 195.635L293.322 208.668C288.849 211.517 282.903 209.054 281.755 203.877L276.509 180.199L314.993 139.992L313.774 195.635Z" fill="#2876D5"/>
<path d="M353.476 180.196L348.23 203.875C347.083 209.056 341.137 211.518 336.662 208.666L316.209 195.633L314.993 139.992L353.476 180.196Z" fill="#3A506B"/>
<path d="M370.636 141.211L383.668 161.663C386.518 166.135 384.055 172.082 378.877 173.229L355.2 178.476L314.993 139.992L370.636 141.211Z" fill="#2876D5"/>
<path d="M355.197 101.508L378.876 106.755C384.057 107.902 386.519 113.848 383.667 118.322L370.633 138.776L314.993 139.992L355.197 101.508Z" fill="#3A506B"/>
<path d="M316.211 84.3487L336.663 71.3161C341.136 68.4666 347.083 70.9298 348.23 76.1073L353.477 99.7845L314.993 139.992L316.211 84.3487Z" fill="#3A506B"/>
<path d="M276.509 99.7879L281.755 76.1089C282.903 70.9282 288.848 68.4655 293.323 71.3174L313.776 84.3512L314.993 139.992L276.509 99.7879Z" fill="#2876D5"/>
<path d="M259.353 138.772L246.321 118.32C243.471 113.847 245.934 107.9 251.112 106.753L274.789 101.506L314.997 139.99L259.353 138.772Z" fill="#2876D5"/>
<path d="M284.752 168.94L266.94 164.994C263.045 164.13 261.192 159.656 263.335 156.291L273.14 140.906L314.993 139.992L284.752 168.94Z" stroke="#FFFAB6" stroke-miterlimit="10"/>
<path d="M314.076 181.845L298.693 191.65C295.327 193.793 290.856 191.941 289.991 188.045L286.047 170.235L314.993 139.992L314.076 181.845Z" stroke="#FFFAB6" stroke-miterlimit="10"/>
<path d="M343.941 170.233L339.995 188.045C339.131 191.94 334.657 193.793 331.292 191.65L315.907 181.844L314.993 139.992L343.941 170.233Z" stroke="#FFFAB6" stroke-miterlimit="10"/>
<path d="M356.846 140.909L366.651 156.292C368.794 159.658 366.942 164.129 363.046 164.994L345.236 168.938L314.993 139.992L356.846 140.909Z" stroke="#FFFAB6" stroke-miterlimit="10"/>
<path d="M345.234 111.044L363.046 114.99C366.941 115.853 368.794 120.328 366.651 123.692L356.845 139.077L314.993 139.992L345.234 111.044Z" stroke="#FFFAB6" stroke-miterlimit="10"/>
<path d="M315.91 98.1386L331.293 88.3336C334.659 86.1903 339.13 88.0423 339.995 91.9383L343.939 109.749L314.993 139.992L315.91 98.1386Z" stroke="#FFFAB6" stroke-miterlimit="10"/>
<path d="M286.045 109.751L289.991 91.9388C290.854 88.0442 295.329 86.1908 298.694 88.3341L314.079 98.1393L314.993 139.992L286.045 109.751Z" stroke="#FFFAB6" stroke-miterlimit="10"/>
<path d="M273.14 139.075L263.335 123.692C261.191 120.326 263.043 115.855 266.939 114.99L284.75 111.046L314.993 139.992L273.14 139.075Z" stroke="#FFFAB6" stroke-miterlimit="10"/>
<path d="M286.938 166.843L270.417 163.184C266.802 162.385 265.082 158.234 267.074 155.113L276.168 140.843L314.993 139.992L286.938 166.843Z" fill="#3A506B"/>
<path d="M314.143 178.817L299.874 187.913C296.75 189.901 292.605 188.181 291.804 184.57L288.145 168.048L314.998 139.994L314.143 178.817Z" fill="#3A506B"/>
<path d="M341.844 168.047L338.185 184.568C337.386 188.183 333.235 189.902 330.113 187.911L315.844 178.817L314.993 139.992L341.844 168.047Z" fill="#3A506B"/>
<path d="M353.818 140.842L362.914 155.111C364.902 158.234 363.182 162.38 359.571 163.181L343.049 166.84L314.995 139.987L353.818 140.842Z" fill="#3A506B"/>
<path d="M343.048 113.141L359.569 116.8C363.184 117.599 364.903 121.75 362.912 124.871L353.817 139.141L314.993 139.992L343.048 113.141Z" fill="#3A506B"/>
<path d="M315.842 101.167L330.111 92.0713C333.235 90.0827 337.381 91.8031 338.182 95.4143L341.84 111.936L314.987 139.99L315.842 101.167Z" fill="#3A506B"/>
<path d="M288.141 111.937L291.801 95.4162C292.6 91.801 296.751 90.0816 299.872 92.0731L314.142 101.167L314.993 139.992L288.141 111.937Z" fill="#3A506B"/>
<path d="M276.168 139.142L267.072 124.873C265.084 121.75 266.804 117.604 270.415 116.803L286.936 113.144L314.991 139.997L276.168 139.142Z" fill="#3A506B"/>
<path d="M290.088 163.829L275.42 160.579C272.211 159.869 270.685 156.184 272.451 153.413L280.526 140.743L314.991 139.988L290.088 163.829Z" fill="#3A506B"/>
<path d="M314.238 174.46L301.57 182.532C298.801 184.297 295.116 182.774 294.404 179.563L291.154 164.898L314.993 139.992L314.238 174.46Z" fill="#3A506B"/>
<path d="M338.83 164.897L335.58 179.565C334.87 182.773 331.185 184.3 328.414 182.533L315.744 174.459L314.989 139.993L338.83 164.897Z" fill="#3A506B"/>
<path d="M349.461 140.747L357.533 153.414C359.298 156.184 357.775 159.869 354.564 160.581L339.899 163.831L314.993 139.992L349.461 140.747Z" fill="#3A506B"/>
<path d="M339.898 116.155L354.566 119.404C357.774 120.115 359.301 123.8 357.534 126.571L349.46 139.24L314.994 139.996L339.898 116.155Z" fill="#3A506B"/>
<path d="M315.748 105.523L328.415 97.452C331.185 95.6868 334.87 97.21 335.582 100.421L338.832 115.085L314.993 139.992L315.748 105.523Z" fill="#3A506B"/>
<path d="M291.156 115.087L294.405 100.419C295.116 97.2103 298.801 95.6839 301.572 97.4505L314.241 105.525L314.997 139.99L291.156 115.087Z" fill="#3A506B"/>
<path d="M280.524 139.237L272.453 126.569C270.688 123.8 272.211 120.115 275.422 119.403L290.086 116.153L314.993 139.992L280.524 139.237Z" fill="#3A506B"/>
<path d="M321.982 137.097C320.383 133.237 315.958 131.404 312.098 133.003C308.238 134.602 306.405 139.027 308.004 142.887C309.603 146.747 314.028 148.58 317.888 146.981C321.748 145.382 323.581 140.957 321.982 137.097Z" fill="#2876D5"/>
<path d="M274.789 353.476L251.11 348.229C245.929 347.082 243.466 341.136 246.318 336.662L259.352 316.208L314.993 314.992L274.789 353.476Z" fill="#2876D5"/>
<path d="M313.774 370.635L293.322 383.668C288.849 386.517 282.903 384.054 281.755 378.877L276.509 355.199L314.993 314.992L313.774 370.635Z" fill="#2876D5"/>
<path d="M353.476 355.196L348.23 378.875C347.083 384.056 341.137 386.518 336.662 383.666L316.209 370.633L314.993 314.992L353.476 355.196Z" fill="#3A506B"/>
<path d="M370.636 316.211L383.668 336.663C386.518 341.135 384.055 347.082 378.877 348.229L355.2 353.476L314.993 314.992L370.636 316.211Z" fill="#3A506B"/>
<path d="M355.197 276.508L378.876 281.755C384.057 282.902 386.519 288.848 383.667 293.322L370.633 313.776L314.993 314.992L355.197 276.508Z" fill="#3A506B"/>
<path d="M316.211 259.349L336.663 246.316C341.136 243.467 347.083 245.93 348.23 251.107L353.477 274.784L314.993 314.992L316.211 259.349Z" fill="#2876D5"/>
<path d="M276.509 274.788L281.755 251.109C282.903 245.928 288.848 243.465 293.323 246.317L313.776 259.351L314.993 314.992L276.509 274.788Z" fill="#3A506B"/>
<path d="M259.353 313.772L246.321 293.32C243.471 288.847 245.934 282.9 251.112 281.753L274.789 276.506L314.997 314.99L259.353 313.772Z" fill="#2876D5"/>
<path d="M284.752 343.94L266.94 339.994C263.045 339.13 261.192 334.656 263.335 331.291L273.14 315.906L314.993 314.992L284.752 343.94Z" stroke="#FFFAB6" stroke-miterlimit="10"/>
<path d="M314.076 356.845L298.693 366.65C295.327 368.793 290.856 366.941 289.991 363.045L286.047 345.235L314.993 314.992L314.076 356.845Z" stroke="#FFFAB6" stroke-miterlimit="10"/>
<path d="M343.941 345.233L339.995 363.045C339.131 366.94 334.657 368.793 331.292 366.65L315.907 356.844L314.993 314.992L343.941 345.233Z" stroke="#FFFAB6" stroke-miterlimit="10"/>
<path d="M356.846 315.909L366.651 331.292C368.794 334.658 366.942 339.129 363.046 339.994L345.236 343.938L314.993 314.992L356.846 315.909Z" stroke="#FFFAB6" stroke-miterlimit="10"/>
<path d="M345.234 286.044L363.046 289.99C366.941 290.853 368.794 295.328 366.651 298.692L356.845 314.077L314.993 314.992L345.234 286.044Z" stroke="#FFFAB6" stroke-miterlimit="10"/>
<path d="M315.91 273.139L331.293 263.334C334.659 261.19 339.13 263.042 339.995 266.938L343.939 284.749L314.993 314.992L315.91 273.139Z" stroke="#FFFAB6" stroke-miterlimit="10"/>
<path d="M286.045 284.751L289.991 266.939C290.854 263.044 295.329 261.191 298.694 263.334L314.079 273.139L314.993 314.992L286.045 284.751Z" stroke="#FFFAB6" stroke-miterlimit="10"/>
<path d="M273.14 314.075L263.335 298.692C261.191 295.326 263.043 290.855 266.939 289.99L284.75 286.046L314.993 314.992L273.14 314.075Z" stroke="#FFFAB6" stroke-miterlimit="10"/>
<path d="M286.938 341.843L270.417 338.184C266.802 337.385 265.082 333.234 267.074 330.113L276.168 315.843L314.993 314.992L286.938 341.843Z" fill="#3A506B"/>
<path d="M314.143 353.817L299.874 362.913C296.75 364.901 292.605 363.181 291.804 359.57L288.145 343.048L314.998 314.994L314.143 353.817Z" fill="#3A506B"/>
<path d="M341.844 343.047L338.185 359.568C337.386 363.183 333.235 364.902 330.113 362.911L315.844 353.817L314.993 314.992L341.844 343.047Z" fill="#3A506B"/>
<path d="M353.818 315.842L362.914 330.111C364.902 333.234 363.182 337.38 359.571 338.181L343.049 341.84L314.995 314.987L353.818 315.842Z" fill="#3A506B"/>
<path d="M343.048 288.141L359.569 291.8C363.184 292.599 364.903 296.75 362.912 299.871L353.817 314.141L314.993 314.992L343.048 288.141Z" fill="#3A506B"/>
<path d="M315.842 276.167L330.111 267.071C333.235 265.083 337.381 266.803 338.182 270.414L341.84 286.936L314.987 314.99L315.842 276.167Z" fill="#3A506B"/>
<path d="M288.141 286.937L291.801 270.416C292.6 266.801 296.751 265.082 299.872 267.073L314.142 276.167L314.993 314.992L288.141 286.937Z" fill="#3A506B"/>
<path d="M276.168 314.142L267.072 299.873C265.084 296.75 266.804 292.604 270.415 291.803L286.936 288.144L314.991 314.997L276.168 314.142Z" fill="#3A506B"/>
<path d="M290.088 338.829L275.42 335.579C272.211 334.869 270.685 331.184 272.451 328.413L280.526 315.743L314.991 314.988L290.088 338.829Z" fill="#3A506B"/>
<path d="M314.238 349.46L301.57 357.532C298.801 359.297 295.116 357.774 294.404 354.563L291.154 339.898L314.993 314.992L314.238 349.46Z" fill="#3A506B"/>
<path d="M338.83 339.897L335.58 354.565C334.87 357.773 331.185 359.3 328.414 357.533L315.744 349.459L314.989 314.993L338.83 339.897Z" fill="#3A506B"/>
<path d="M349.461 315.747L357.533 328.414C359.298 331.184 357.775 334.869 354.564 335.581L339.899 338.831L314.993 314.992L349.461 315.747Z" fill="#3A506B"/>
<path d="M339.898 291.155L354.566 294.404C357.774 295.115 359.301 298.8 357.534 301.571L349.46 314.24L314.994 314.996L339.898 291.155Z" fill="#3A506B"/>
<path d="M315.748 280.523L328.415 272.452C331.185 270.687 334.87 272.21 335.582 275.421L338.832 290.085L314.993 314.992L315.748 280.523Z" fill="#3A506B"/>
<path d="M291.156 290.087L294.405 275.419C295.116 272.21 298.801 270.684 301.572 272.45L314.241 280.525L314.997 314.99L291.156 290.087Z" fill="#3A506B"/>
<path d="M280.524 314.237L272.453 301.569C270.688 298.8 272.211 295.115 275.422 294.403L290.086 291.153L314.993 314.992L280.524 314.237Z" fill="#3A506B"/>
<path d="M321.982 312.097C320.383 308.237 315.958 306.404 312.098 308.003C308.238 309.602 306.405 314.027 308.004 317.887C309.603 321.747 314.028 323.58 317.888 321.981C321.748 320.382 323.581 315.957 321.982 312.097Z" fill="#2876D5"/>
<path d="M274.789 353.476L251.11 348.229C245.929 347.082 243.466 341.136 246.318 336.662L259.352 316.208L314.993 314.992L274.789 353.476Z" fill="#2876D5"/>
<path d="M313.774 370.635L293.322 383.668C288.849 386.517 282.903 384.054 281.755 378.877L276.509 355.199L314.993 314.992L313.774 370.635Z" fill="#2876D5"/>
<path d="M353.476 355.196L348.23 378.875C347.083 384.056 341.137 386.518 336.662 383.666L316.209 370.633L314.993 314.992L353.476 355.196Z" fill="#3A506B"/>
<path d="M370.636 316.211L383.668 336.663C386.518 341.135 384.055 347.082 378.877 348.229L355.2 353.476L314.993 314.992L370.636 316.211Z" fill="#3A506B"/>
<path d="M355.197 276.508L378.876 281.755C384.057 282.902 386.519 288.848 383.667 293.322L370.633 313.776L314.993 314.992L355.197 276.508Z" fill="#3A506B"/>
<path d="M316.211 259.349L336.663 246.316C341.136 243.467 347.083 245.93 348.23 251.107L353.477 274.784L314.993 314.992L316.211 259.349Z" fill="#2876D5"/>
<path d="M276.509 274.788L281.755 251.109C282.903 245.928 288.848 243.465 293.323 246.317L313.776 259.351L314.993 314.992L276.509 274.788Z" fill="#3A506B"/>
<path d="M259.353 313.772L246.321 293.32C243.471 288.847 245.934 282.9 251.112 281.753L274.789 276.506L314.997 314.99L259.353 313.772Z" fill="#2876D5"/>
<path d="M284.752 343.94L266.94 339.994C263.045 339.13 261.192 334.656 263.335 331.291L273.14 315.906L314.993 314.992L284.752 343.94Z" stroke="#FFFAB6" stroke-miterlimit="10"/>
<path d="M314.076 356.845L298.693 366.65C295.327 368.793 290.856 366.941 289.991 363.045L286.047 345.235L314.993 314.992L314.076 356.845Z" stroke="#FFFAB6" stroke-miterlimit="10"/>
<path d="M343.941 345.233L339.995 363.045C339.131 366.94 334.657 368.793 331.292 366.65L315.907 356.844L314.993 314.992L343.941 345.233Z" stroke="#FFFAB6" stroke-miterlimit="10"/>
<path d="M356.846 315.909L366.651 331.292C368.794 334.658 366.942 339.129 363.046 339.994L345.236 343.938L314.993 314.992L356.846 315.909Z" stroke="#FFFAB6" stroke-miterlimit="10"/>
<path d="M345.234 286.044L363.046 289.99C366.941 290.853 368.794 295.328 366.651 298.692L356.845 314.077L314.993 314.992L345.234 286.044Z" stroke="#FFFAB6" stroke-miterlimit="10"/>
<path d="M315.91 273.139L331.293 263.334C334.659 261.19 339.13 263.042 339.995 266.938L343.939 284.749L314.993 314.992L315.91 273.139Z" stroke="#FFFAB6" stroke-miterlimit="10"/>
<path d="M286.045 284.751L289.991 266.939C290.854 263.044 295.329 261.191 298.694 263.334L314.079 273.139L314.993 314.992L286.045 284.751Z" stroke="#FFFAB6" stroke-miterlimit="10"/>
<path d="M273.14 314.075L263.335 298.692C261.191 295.326 263.043 290.855 266.939 289.99L284.75 286.046L314.993 314.992L273.14 314.075Z" stroke="#FFFAB6" stroke-miterlimit="10"/>
<path d="M286.938 341.843L270.417 338.184C266.802 337.385 265.082 333.234 267.074 330.113L276.168 315.843L314.993 314.992L286.938 341.843Z" fill="#3A506B"/>
<path d="M314.143 353.817L299.874 362.913C296.75 364.901 292.605 363.181 291.804 359.57L288.145 343.048L314.998 314.994L314.143 353.817Z" fill="#3A506B"/>
<path d="M341.844 343.047L338.185 359.568C337.386 363.183 333.235 364.902 330.113 362.911L315.844 353.817L314.993 314.992L341.844 343.047Z" fill="#3A506B"/>
<path d="M353.818 315.842L362.914 330.111C364.902 333.234 363.182 337.38 359.571 338.181L343.049 341.84L314.995 314.987L353.818 315.842Z" fill="#3A506B"/>
<path d="M343.048 288.141L359.569 291.8C363.184 292.599 364.903 296.75 362.912 299.871L353.817 314.141L314.993 314.992L343.048 288.141Z" fill="#3A506B"/>
<path d="M315.842 276.167L330.111 267.071C333.235 265.083 337.381 266.803 338.182 270.414L341.84 286.936L314.987 314.99L315.842 276.167Z" fill="#3A506B"/>
<path d="M288.141 286.937L291.801 270.416C292.6 266.801 296.751 265.082 299.872 267.073L314.142 276.167L314.993 314.992L288.141 286.937Z" fill="#3A506B"/>
<path d="M276.168 314.142L267.072 299.873C265.084 296.75 266.804 292.604 270.415 291.803L286.936 288.144L314.991 314.997L276.168 314.142Z" fill="#3A506B"/>
<path d="M290.088 338.829L275.42 335.579C272.211 334.869 270.685 331.184 272.451 328.413L280.526 315.743L314.991 314.988L290.088 338.829Z" fill="#3A506B"/>
<path d="M314.238 349.46L301.57 357.532C298.801 359.297 295.116 357.774 294.404 354.563L291.154 339.898L314.993 314.992L314.238 349.46Z" fill="#3A506B"/>
<path d="M338.83 339.897L335.58 354.565C334.87 357.773 331.185 359.3 328.414 357.533L315.744 349.459L314.989 314.993L338.83 339.897Z" fill="#3A506B"/>
<path d="M349.461 315.747L357.533 328.414C359.298 331.184 357.775 334.869 354.564 335.581L339.899 338.831L314.993 314.992L349.461 315.747Z" fill="#3A506B"/>
<path d="M339.898 291.155L354.566 294.404C357.774 295.115 359.301 298.8 357.534 301.571L349.46 314.24L314.994 314.996L339.898 291.155Z" fill="#3A506B"/>
<path d="M315.748 280.523L328.415 272.452C331.185 270.687 334.87 272.21 335.582 275.421L338.832 290.085L314.993 314.992L315.748 280.523Z" fill="#3A506B"/>
<path d="M291.156 290.087L294.405 275.419C295.116 272.21 298.801 270.684 301.572 272.45L314.241 280.525L314.997 314.99L291.156 290.087Z" fill="#3A506B"/>
<path d="M280.524 314.237L272.453 301.569C270.688 298.8 272.211 295.115 275.422 294.403L290.086 291.153L314.993 314.992L280.524 314.237Z" fill="#3A506B"/>
<path d="M321.982 312.097C320.383 308.237 315.958 306.404 312.098 308.003C308.238 309.602 306.405 314.027 308.004 317.887C309.603 321.747 314.028 323.58 317.888 321.981C321.748 320.382 323.581 315.957 321.982 312.097Z" fill="#2876D5"/>
<path d="M449.788 353.475L426.109 348.229C420.928 347.081 418.466 341.136 421.318 336.661L434.351 316.208L489.992 314.991L449.788 353.475Z" fill="#2876D5"/>
<path d="M488.773 370.634L468.321 383.667C463.849 386.517 457.902 384.053 456.754 378.876L451.508 355.199L489.992 314.991L488.773 370.634Z" fill="#2876D5"/>
<path d="M528.476 355.195L523.229 378.874C522.082 384.055 516.136 386.518 511.662 383.666L491.208 370.632L489.992 314.991L528.476 355.195Z" fill="#3A506B"/>
<path d="M545.635 316.21L558.668 336.662C561.517 341.134 559.054 347.081 553.877 348.229L530.199 353.475L489.992 314.991L545.635 316.21Z" fill="#3A506B"/>
<path d="M530.196 276.507L553.875 281.754C559.056 282.901 561.519 288.847 558.667 293.321L545.633 313.775L489.992 314.991L530.196 276.507Z" fill="#3A506B"/>
<path d="M491.211 259.348L511.663 246.315C516.135 243.466 522.082 245.929 523.23 251.107L528.476 274.784L489.992 314.991L491.211 259.348Z" fill="#2876D5"/>
<path d="M451.508 274.787L456.755 251.108C457.902 245.927 463.848 243.465 468.322 246.317L488.776 259.351L489.992 314.991L451.508 274.787Z" fill="#2876D5"/>
<path d="M434.353 313.771L421.32 293.319C418.47 288.846 420.934 282.9 426.111 281.752L449.788 276.506L489.996 314.99L434.353 313.771Z" fill="#3A506B"/>
<path d="M459.751 343.939L441.939 339.993C438.045 339.13 436.191 334.655 438.334 331.291L448.14 315.906L489.992 314.991L459.751 343.939Z" stroke="#FFFAB6" stroke-miterlimit="10"/>
<path d="M489.075 356.844L473.692 366.649C470.326 368.793 465.855 366.941 464.99 363.045L461.046 345.234L489.992 314.991L489.075 356.844Z" stroke="#FFFAB6" stroke-miterlimit="10"/>
<path d="M518.94 345.232L514.994 363.044C514.131 366.939 509.656 368.792 506.292 366.649L490.907 356.844L489.992 314.991L518.94 345.232Z" stroke="#FFFAB6" stroke-miterlimit="10"/>
<path d="M531.845 315.908L541.65 331.291C543.794 334.657 541.942 339.128 538.046 339.993L520.235 343.937L489.992 314.991L531.845 315.908Z" stroke="#FFFAB6" stroke-miterlimit="10"/>
<path d="M520.233 286.043L538.045 289.989C541.94 290.852 543.793 295.327 541.65 298.692L531.845 314.077L489.992 314.991L520.233 286.043Z" stroke="#FFFAB6" stroke-miterlimit="10"/>
<path d="M490.909 273.138L506.292 263.333C509.658 261.19 514.129 263.042 514.994 266.938L518.938 284.748L489.992 314.991L490.909 273.138Z" stroke="#FFFAB6" stroke-miterlimit="10"/>
<path d="M461.045 284.75L464.99 266.938C465.854 263.043 470.328 261.19 473.693 263.333L489.078 273.139L489.992 314.991L461.045 284.75Z" stroke="#FFFAB6" stroke-miterlimit="10"/>
<path d="M448.139 314.074L438.334 298.691C436.191 295.325 438.043 290.854 441.939 289.989L459.749 286.045L489.992 314.991L448.139 314.074Z" stroke="#FFFAB6" stroke-miterlimit="10"/>
<path d="M461.937 341.842L445.417 338.183C441.801 337.384 440.082 333.233 442.073 330.112L451.168 315.842L489.992 314.991L461.937 341.842Z" fill="#3A506B"/>
<path d="M489.143 353.816L474.874 362.912C471.75 364.9 467.604 363.18 466.803 359.569L463.145 343.047L489.998 314.993L489.143 353.816Z" fill="#3A506B"/>
<path d="M516.843 343.046L513.184 359.567C512.385 363.182 508.234 364.901 505.113 362.91L490.843 353.816L489.992 314.991L516.843 343.046Z" fill="#3A506B"/>
<path d="M528.818 315.841L537.913 330.11C539.902 333.234 538.181 337.379 534.57 338.18L518.049 341.839L489.995 314.986L528.818 315.841Z" fill="#3A506B"/>
<path d="M518.047 288.14L534.568 291.799C538.183 292.598 539.903 296.749 537.911 299.87L528.817 314.14L489.992 314.991L518.047 288.14Z" fill="#3A506B"/>
<path d="M490.842 276.166L505.111 267.07C508.235 265.082 512.38 266.802 513.181 270.413L516.84 286.935L489.987 314.989L490.842 276.166Z" fill="#3A506B"/>
<path d="M463.141 286.936L466.8 270.415C467.599 266.8 471.75 265.081 474.872 267.072L489.141 276.167L489.992 314.991L463.141 286.936Z" fill="#3A506B"/>
<path d="M451.167 314.142L442.072 299.872C440.083 296.749 441.803 292.603 445.415 291.802L461.936 288.144L489.99 314.996L451.167 314.142Z" fill="#3A506B"/>
<path d="M465.087 338.828L450.419 335.578C447.211 334.868 445.684 331.183 447.451 328.412L455.525 315.742L489.991 314.987L465.087 338.828Z" fill="#3A506B"/>
<path d="M489.238 349.459L476.57 357.531C473.8 359.296 470.115 357.773 469.403 354.562L466.153 339.897L489.992 314.991L489.238 349.459Z" fill="#3A506B"/>
<path d="M513.829 339.896L510.58 354.564C509.87 357.772 506.184 359.299 503.413 357.532L490.744 349.458L489.989 314.992L513.829 339.896Z" fill="#3A506B"/>
<path d="M524.461 315.746L532.532 328.413C534.297 331.183 532.774 334.868 529.564 335.58L514.899 338.83L489.992 314.991L524.461 315.746Z" fill="#3A506B"/>
<path d="M514.897 291.154L529.565 294.403C532.774 295.114 534.3 298.799 532.534 301.57L524.459 314.239L489.994 314.995L514.897 291.154Z" fill="#3A506B"/>
<path d="M490.747 280.522L503.415 272.451C506.185 270.686 509.87 272.209 510.581 275.42L513.832 290.084L489.992 314.991L490.747 280.522Z" fill="#3A506B"/>
<path d="M466.156 290.086L469.405 275.418C470.115 272.209 473.8 270.683 476.571 272.45L489.241 280.524L489.996 314.989L466.156 290.086Z" fill="#3A506B"/>
<path d="M455.524 314.236L447.453 301.568C445.687 298.799 447.211 295.114 450.421 294.402L465.086 291.152L489.992 314.991L455.524 314.236Z" fill="#3A506B"/>
<path d="M496.981 312.096C495.382 308.236 490.957 306.403 487.097 308.002C483.237 309.601 481.404 314.026 483.003 317.886C484.602 321.746 489.027 323.579 492.887 321.98C496.747 320.381 498.58 315.956 496.981 312.096Z" fill="#2876D5"/>
<path d="M99.7878 353.474L76.1088 348.228C70.9282 347.081 68.4654 341.135 71.3174 336.661L84.3512 316.207L139.992 314.991L99.7878 353.474Z" fill="#2876D5"/>
<path d="M138.773 370.634L118.321 383.666C113.848 386.516 107.902 384.053 106.754 378.875L101.508 355.198L139.992 314.991L138.773 370.634Z" fill="#2876D5"/>
<path d="M178.475 355.195L173.229 378.874C172.082 384.054 166.136 386.517 161.661 383.665L141.208 370.631L139.992 314.991L178.475 355.195Z" fill="#2876D5"/>
<path d="M195.635 316.209L208.667 336.661C211.517 341.134 209.054 347.081 203.876 348.228L180.199 353.475L139.992 314.991L195.635 316.209Z" fill="#2876D5"/>
<path d="M180.196 276.507L203.875 281.753C209.056 282.901 211.518 288.846 208.666 293.321L195.633 313.774L139.992 314.991L180.196 276.507Z" fill="#3A506B"/>
<path d="M141.21 259.347L161.662 246.315C166.135 243.465 172.082 245.929 173.229 251.106L178.476 274.783L139.992 314.991L141.21 259.347Z" fill="#3A506B"/>
<path d="M101.508 274.787L106.754 251.108C107.902 245.927 113.847 243.464 118.322 246.316L138.775 259.35L139.992 314.991L101.508 274.787Z" fill="#3A506B"/>
<path d="M84.3524 313.77L71.3198 293.318C68.4702 288.846 70.9335 282.899 76.1109 281.752L99.7882 276.505L139.996 314.989L84.3524 313.77Z" fill="#3A506B"/>
<path d="M109.751 343.938L91.9389 339.993C88.0443 339.129 86.1909 334.655 88.3342 331.29L98.1394 315.905L139.992 314.991L109.751 343.938Z" stroke="#FFFAB6" stroke-miterlimit="10"/>
<path d="M139.075 356.844L123.692 366.649C120.326 368.792 115.855 366.94 114.99 363.044L111.046 345.234L139.992 314.991L139.075 356.844Z" stroke="#FFFAB6" stroke-miterlimit="10"/>
<path d="M168.94 345.231L164.994 363.044C164.131 366.938 159.656 368.792 156.291 366.648L140.906 356.843L139.992 314.991L168.94 345.231Z" stroke="#FFFAB6" stroke-miterlimit="10"/>
<path d="M181.845 315.908L191.65 331.291C193.793 334.657 191.942 339.128 188.045 339.993L170.235 343.937L139.992 314.991L181.845 315.908Z" stroke="#FFFAB6" stroke-miterlimit="10"/>
<path d="M170.233 286.043L188.045 289.988C191.94 290.852 193.793 295.327 191.65 298.691L181.845 314.076L139.992 314.991L170.233 286.043Z" stroke="#FFFAB6" stroke-miterlimit="10"/>
<path d="M140.909 273.137L156.292 263.332C159.658 261.189 164.129 263.041 164.994 266.937L168.938 284.748L139.992 314.991L140.909 273.137Z" stroke="#FFFAB6" stroke-miterlimit="10"/>
<path d="M111.044 284.75L114.99 266.938C115.853 263.043 120.328 261.19 123.693 263.333L139.078 273.138L139.992 314.991L111.044 284.75Z" stroke="#FFFAB6" stroke-miterlimit="10"/>
<path d="M98.1388 314.074L88.3338 298.691C86.1905 295.324 88.0424 290.853 91.9384 289.988L109.749 286.044L139.992 314.991L98.1388 314.074Z" stroke="#FFFAB6" stroke-miterlimit="10"/>
<path d="M111.937 341.842L95.4161 338.183C91.8009 337.384 90.0815 333.233 92.073 330.111L101.167 315.842L139.992 314.991L111.937 341.842Z" fill="#3A506B"/>
<path d="M139.142 353.816L124.873 362.911C121.749 364.9 117.604 363.18 116.803 359.568L113.144 343.047L139.997 314.993L139.142 353.816Z" fill="#3A506B"/>
<path d="M166.843 343.046L163.184 359.566C162.385 363.182 158.234 364.901 155.112 362.91L140.843 353.815L139.992 314.991L166.843 343.046Z" fill="#3A506B"/>
<path d="M178.817 315.84L187.913 330.109C189.901 333.233 188.181 337.379 184.57 338.18L168.048 341.838L139.994 314.985L178.817 315.84Z" fill="#3A506B"/>
<path d="M168.047 288.14L184.568 291.799C188.183 292.598 189.902 296.749 187.911 299.87L178.816 314.14L139.992 314.991L168.047 288.14Z" fill="#3A506B"/>
<path d="M140.841 276.166L155.11 267.07C158.234 265.081 162.38 266.802 163.181 270.413L166.839 286.934L139.986 314.989L140.841 276.166Z" fill="#3A506B"/>
<path d="M113.141 286.936L116.8 270.415C117.599 266.8 121.75 265.08 124.871 267.072L139.141 276.166L139.992 314.991L113.141 286.936Z" fill="#3A506B"/>
<path d="M101.167 314.141L92.0712 299.872C90.0826 296.748 91.803 292.603 95.4142 291.802L111.935 288.143L139.99 314.996L101.167 314.141Z" fill="#3A506B"/>
<path d="M115.087 338.827L100.419 335.578C97.2103 334.868 95.6839 331.183 97.4505 328.412L105.525 315.742L139.99 314.987L115.087 338.827Z" fill="#3A506B"/>
<path d="M139.237 349.459L126.569 357.53C123.8 359.296 120.115 357.772 119.403 354.562L116.153 339.897L139.992 314.991L139.237 349.459Z" fill="#3A506B"/>
<path d="M163.829 339.896L160.579 354.564C159.869 357.772 156.184 359.299 153.413 357.532L140.743 349.458L139.988 314.992L163.829 339.896Z" fill="#3A506B"/>
<path d="M174.46 315.745L182.532 328.413C184.297 331.183 182.774 334.868 179.563 335.58L164.898 338.83L139.992 314.991L174.46 315.745Z" fill="#3A506B"/>
<path d="M164.897 291.154L179.565 294.403C182.773 295.113 184.3 298.799 182.533 301.569L174.459 314.239L139.993 314.994L164.897 291.154Z" fill="#3A506B"/>
<path d="M140.747 280.522L153.414 272.451C156.184 270.686 159.869 272.209 160.581 275.419L163.831 290.084L139.992 314.991L140.747 280.522Z" fill="#3A506B"/>
<path d="M116.155 290.086L119.404 275.418C120.115 272.209 123.8 270.683 126.571 272.449L139.24 280.524L139.996 314.989L116.155 290.086Z" fill="#3A506B"/>
<path d="M105.523 314.236L97.4522 301.568C95.6869 298.799 97.2102 295.113 100.421 294.402L115.085 291.151L139.992 314.991L105.523 314.236Z" fill="#3A506B"/>
<path d="M146.981 312.096C145.382 308.236 140.957 306.403 137.097 308.002C133.237 309.6 131.404 314.026 133.003 317.886C134.602 321.746 139.027 323.579 142.887 321.98C146.747 320.381 148.58 315.956 146.981 312.096Z" fill="#2876D5"/>
<path d="M99.7878 353.474L76.1088 348.228C70.9282 347.081 68.4654 341.135 71.3174 336.661L84.3512 316.207L139.992 314.991L99.7878 353.474Z" fill="#2876D5"/>
<path d="M138.773 370.634L118.321 383.666C113.848 386.516 107.902 384.053 106.754 378.875L101.508 355.198L139.992 314.991L138.773 370.634Z" fill="#2876D5"/>
<path d="M178.475 355.195L173.229 378.874C172.082 384.054 166.136 386.517 161.661 383.665L141.208 370.631L139.992 314.991L178.475 355.195Z" fill="#3A506B"/>
<path d="M195.635 316.209L208.667 336.661C211.517 341.134 209.054 347.081 203.876 348.228L180.199 353.475L139.992 314.991L195.635 316.209Z" fill="#3A506B"/>
<path d="M180.196 276.507L203.875 281.753C209.056 282.901 211.518 288.846 208.666 293.321L195.633 313.774L139.992 314.991L180.196 276.507Z" fill="#3A506B"/>
<path d="M141.21 259.347L161.662 246.315C166.135 243.465 172.082 245.929 173.229 251.106L178.476 274.783L139.992 314.991L141.21 259.347Z" fill="#3A506B"/>
<path d="M101.508 274.787L106.754 251.108C107.902 245.927 113.847 243.464 118.322 246.316L138.775 259.35L139.992 314.991L101.508 274.787Z" fill="#2876D5"/>
<path d="M84.3524 313.77L71.3198 293.318C68.4702 288.846 70.9335 282.899 76.1109 281.752L99.7882 276.505L139.996 314.989L84.3524 313.77Z" fill="#2876D5"/>
<path d="M109.751 343.938L91.9389 339.993C88.0443 339.129 86.1909 334.655 88.3342 331.29L98.1394 315.905L139.992 314.991L109.751 343.938Z" stroke="#FFFAB6" stroke-miterlimit="10"/>
<path d="M139.075 356.844L123.692 366.649C120.326 368.792 115.855 366.94 114.99 363.044L111.046 345.234L139.992 314.991L139.075 356.844Z" stroke="#FFFAB6" stroke-miterlimit="10"/>
<path d="M168.94 345.231L164.994 363.044C164.131 366.938 159.656 368.792 156.291 366.648L140.906 356.843L139.992 314.991L168.94 345.231Z" stroke="#FFFAB6" stroke-miterlimit="10"/>
<path d="M181.845 315.908L191.65 331.291C193.793 334.657 191.942 339.128 188.045 339.993L170.235 343.937L139.992 314.991L181.845 315.908Z" stroke="#FFFAB6" stroke-miterlimit="10"/>
<path d="M170.233 286.043L188.045 289.988C191.94 290.852 193.793 295.327 191.65 298.691L181.845 314.076L139.992 314.991L170.233 286.043Z" stroke="#FFFAB6" stroke-miterlimit="10"/>
<path d="M140.909 273.137L156.292 263.332C159.658 261.189 164.129 263.041 164.994 266.937L168.938 284.748L139.992 314.991L140.909 273.137Z" stroke="#FFFAB6" stroke-miterlimit="10"/>
<path d="M111.044 284.75L114.99 266.938C115.853 263.043 120.328 261.19 123.693 263.333L139.078 273.138L139.992 314.991L111.044 284.75Z" stroke="#FFFAB6" stroke-miterlimit="10"/>
<path d="M98.1388 314.074L88.3338 298.691C86.1905 295.324 88.0424 290.853 91.9384 289.988L109.749 286.044L139.992 314.991L98.1388 314.074Z" stroke="#FFFAB6" stroke-miterlimit="10"/>
<path d="M111.937 341.842L95.4161 338.183C91.8009 337.384 90.0815 333.233 92.073 330.111L101.167 315.842L139.992 314.991L111.937 341.842Z" fill="#3A506B"/>
<path d="M139.142 353.816L124.873 362.911C121.749 364.9 117.604 363.18 116.803 359.568L113.144 343.047L139.997 314.993L139.142 353.816Z" fill="#3A506B"/>
<path d="M166.843 343.046L163.184 359.566C162.385 363.182 158.234 364.901 155.112 362.91L140.843 353.815L139.992 314.991L166.843 343.046Z" fill="#3A506B"/>
<path d="M178.817 315.84L187.913 330.109C189.901 333.233 188.181 337.379 184.57 338.18L168.048 341.838L139.994 314.985L178.817 315.84Z" fill="#3A506B"/>
<path d="M168.047 288.14L184.568 291.799C188.183 292.598 189.902 296.749 187.911 299.87L178.816 314.14L139.992 314.991L168.047 288.14Z" fill="#3A506B"/>
<path d="M140.841 276.166L155.11 267.07C158.234 265.081 162.38 266.802 163.181 270.413L166.839 286.934L139.986 314.989L140.841 276.166Z" fill="#3A506B"/>
<path d="M113.141 286.936L116.8 270.415C117.599 266.8 121.75 265.08 124.871 267.072L139.141 276.166L139.992 314.991L113.141 286.936Z" fill="#3A506B"/>
<path d="M101.167 314.141L92.0712 299.872C90.0826 296.748 91.803 292.603 95.4142 291.802L111.935 288.143L139.99 314.996L101.167 314.141Z" fill="#3A506B"/>
<path d="M115.087 338.827L100.419 335.578C97.2103 334.868 95.6839 331.183 97.4505 328.412L105.525 315.742L139.99 314.987L115.087 338.827Z" fill="#3A506B"/>
<path d="M139.237 349.459L126.569 357.53C123.8 359.296 120.115 357.772 119.403 354.562L116.153 339.897L139.992 314.991L139.237 349.459Z" fill="#3A506B"/>
<path d="M163.829 339.896L160.579 354.564C159.869 357.772 156.184 359.299 153.413 357.532L140.743 349.458L139.988 314.992L163.829 339.896Z" fill="#3A506B"/>
<path d="M174.46 315.745L182.532 328.413C184.297 331.183 182.774 334.868 179.563 335.58L164.898 338.83L139.992 314.991L174.46 315.745Z" fill="#3A506B"/>
<path d="M164.897 291.154L179.565 294.403C182.773 295.113 184.3 298.799 182.533 301.569L174.459 314.239L139.993 314.994L164.897 291.154Z" fill="#3A506B"/>
<path d="M140.747 280.522L153.414 272.451C156.184 270.686 159.869 272.209 160.581 275.419L163.831 290.084L139.992 314.991L140.747 280.522Z" fill="#3A506B"/>
<path d="M116.155 290.086L119.404 275.418C120.115 272.209 123.8 270.683 126.571 272.449L139.24 280.524L139.996 314.989L116.155 290.086Z" fill="#3A506B"/>
<path d="M105.523 314.236L97.4522 301.568C95.6869 298.799 97.2102 295.113 100.421 294.402L115.085 291.151L139.992 314.991L105.523 314.236Z" fill="#3A506B"/>
<path d="M146.981 312.096C145.382 308.236 140.957 306.403 137.097 308.002C133.237 309.6 131.404 314.026 133.003 317.886C134.602 321.746 139.027 323.579 142.887 321.98C146.747 320.381 148.58 315.956 146.981 312.096Z" fill="#2876D5"/>
<path d="M99.7878 353.474L76.1088 348.228C70.9282 347.081 68.4654 341.135 71.3174 336.661L84.3512 316.207L139.992 314.991L99.7878 353.474Z" fill="#2876D5"/>
<path d="M138.773 370.634L118.321 383.666C113.848 386.516 107.902 384.053 106.754 378.875L101.508 355.198L139.992 314.991L138.773 370.634Z" fill="#2876D5"/>
<path d="M178.475 355.195L173.229 378.874C172.082 384.054 166.136 386.517 161.661 383.665L141.208 370.631L139.992 314.991L178.475 355.195Z" fill="#2876D5"/>
<path d="M195.635 316.209L208.667 336.661C211.517 341.134 209.054 347.081 203.876 348.228L180.199 353.475L139.992 314.991L195.635 316.209Z" fill="#2876D5"/>
<path d="M180.196 276.507L203.875 281.753C209.056 282.901 211.518 288.846 208.666 293.321L195.633 313.774L139.992 314.991L180.196 276.507Z" fill="#3A506B"/>
<path d="M141.21 259.347L161.662 246.315C166.135 243.465 172.082 245.929 173.229 251.106L178.476 274.783L139.992 314.991L141.21 259.347Z" fill="#3A506B"/>
<path d="M101.508 274.787L106.754 251.108C107.902 245.927 113.847 243.464 118.322 246.316L138.775 259.35L139.992 314.991L101.508 274.787Z" fill="#3A506B"/>
<path d="M84.3524 313.77L71.3198 293.318C68.4702 288.846 70.9335 282.899 76.1109 281.752L99.7882 276.505L139.996 314.989L84.3524 313.77Z" fill="#3A506B"/>
<path d="M109.751 343.938L91.9389 339.993C88.0443 339.129 86.1909 334.655 88.3342 331.29L98.1394 315.905L139.992 314.991L109.751 343.938Z" stroke="#FFFAB6" stroke-miterlimit="10"/>
<path d="M139.075 356.844L123.692 366.649C120.326 368.792 115.855 366.94 114.99 363.044L111.046 345.234L139.992 314.991L139.075 356.844Z" stroke="#FFFAB6" stroke-miterlimit="10"/>
<path d="M168.94 345.231L164.994 363.044C164.131 366.938 159.656 368.792 156.291 366.648L140.906 356.843L139.992 314.991L168.94 345.231Z" stroke="#FFFAB6" stroke-miterlimit="10"/>
<path d="M181.845 315.908L191.65 331.291C193.793 334.657 191.942 339.128 188.045 339.993L170.235 343.937L139.992 314.991L181.845 315.908Z" stroke="#FFFAB6" stroke-miterlimit="10"/>
<path d="M170.233 286.043L188.045 289.988C191.94 290.852 193.793 295.327 191.65 298.691L181.845 314.076L139.992 314.991L170.233 286.043Z" stroke="#FFFAB6" stroke-miterlimit="10"/>
<path d="M140.909 273.137L156.292 263.332C159.658 261.189 164.129 263.041 164.994 266.937L168.938 284.748L139.992 314.991L140.909 273.137Z" stroke="#FFFAB6" stroke-miterlimit="10"/>
<path d="M111.044 284.75L114.99 266.938C115.853 263.043 120.328 261.19 123.693 263.333L139.078 273.138L139.992 314.991L111.044 284.75Z" stroke="#FFFAB6" stroke-miterlimit="10"/>
<path d="M98.1388 314.074L88.3338 298.691C86.1905 295.324 88.0424 290.853 91.9384 289.988L109.749 286.044L139.992 314.991L98.1388 314.074Z" stroke="#FFFAB6" stroke-miterlimit="10"/>
<path d="M111.937 341.842L95.4161 338.183C91.8009 337.384 90.0815 333.233 92.073 330.111L101.167 315.842L139.992 314.991L111.937 341.842Z" fill="#3A506B"/>
<path d="M139.142 353.816L124.873 362.911C121.749 364.9 117.604 363.18 116.803 359.568L113.144 343.047L139.997 314.993L139.142 353.816Z" fill="#3A506B"/>
<path d="M166.843 343.046L163.184 359.566C162.385 363.182 158.234 364.901 155.112 362.91L140.843 353.815L139.992 314.991L166.843 343.046Z" fill="#3A506B"/>
<path d="M178.817 315.84L187.913 330.109C189.901 333.233 188.181 337.379 184.57 338.18L168.048 341.838L139.994 314.985L178.817 315.84Z" fill="#3A506B"/>
<path d="M168.047 288.14L184.568 291.799C188.183 292.598 189.902 296.749 187.911 299.87L178.816 314.14L139.992 314.991L168.047 288.14Z" fill="#3A506B"/>
<path d="M140.841 276.166L155.11 267.07C158.234 265.081 162.38 266.802 163.181 270.413L166.839 286.934L139.986 314.989L140.841 276.166Z" fill="#3A506B"/>
<path d="M113.141 286.936L116.8 270.415C117.599 266.8 121.75 265.08 124.871 267.072L139.141 276.166L139.992 314.991L113.141 286.936Z" fill="#3A506B"/>
<path d="M101.167 314.141L92.0712 299.872C90.0826 296.748 91.803 292.603 95.4142 291.802L111.935 288.143L139.99 314.996L101.167 314.141Z" fill="#3A506B"/>
<path d="M115.087 338.827L100.419 335.578C97.2103 334.868 95.6839 331.183 97.4505 328.412L105.525 315.742L139.99 314.987L115.087 338.827Z" fill="#3A506B"/>
<path d="M139.237 349.459L126.569 357.53C123.8 359.296 120.115 357.772 119.403 354.562L116.153 339.897L139.992 314.991L139.237 349.459Z" fill="#3A506B"/>
<path d="M163.829 339.896L160.579 354.564C159.869 357.772 156.184 359.299 153.413 357.532L140.743 349.458L139.988 314.992L163.829 339.896Z" fill="#3A506B"/>
<path d="M174.46 315.745L182.532 328.413C184.297 331.183 182.774 334.868 179.563 335.58L164.898 338.83L139.992 314.991L174.46 315.745Z" fill="#3A506B"/>
<path d="M164.897 291.154L179.565 294.403C182.773 295.113 184.3 298.799 182.533 301.569L174.459 314.239L139.993 314.994L164.897 291.154Z" fill="#3A506B"/>
<path d="M140.747 280.522L153.414 272.451C156.184 270.686 159.869 272.209 160.581 275.419L163.831 290.084L139.992 314.991L140.747 280.522Z" fill="#3A506B"/>
<path d="M116.155 290.086L119.404 275.418C120.115 272.209 123.8 270.683 126.571 272.449L139.24 280.524L139.996 314.989L116.155 290.086Z" fill="#3A506B"/>
<path d="M105.523 314.236L97.4522 301.568C95.6869 298.799 97.2102 295.113 100.421 294.402L115.085 291.151L139.992 314.991L105.523 314.236Z" fill="#3A506B"/>
<path d="M146.981 312.096C145.382 308.236 140.957 306.403 137.097 308.002C133.237 309.6 131.404 314.026 133.003 317.886C134.602 321.746 139.027 323.579 142.887 321.98C146.747 320.381 148.58 315.956 146.981 312.096Z" fill="#2876D5"/>
<path d="M99.7878 353.474L76.1088 348.228C70.9282 347.081 68.4654 341.135 71.3174 336.661L84.3512 316.207L139.992 314.991L99.7878 353.474Z" fill="#2876D5"/>
<path d="M138.773 370.634L118.321 383.666C113.848 386.516 107.902 384.053 106.754 378.875L101.508 355.198L139.992 314.991L138.773 370.634Z" fill="#2876D5"/>
<path d="M178.475 355.195L173.229 378.874C172.082 384.054 166.136 386.517 161.661 383.665L141.208 370.631L139.992 314.991L178.475 355.195Z" fill="#3A506B"/>
<path d="M195.635 316.209L208.667 336.661C211.517 341.134 209.054 347.081 203.876 348.228L180.199 353.475L139.992 314.991L195.635 316.209Z" fill="#3A506B"/>
<path d="M180.196 276.507L203.875 281.753C209.056 282.901 211.518 288.846 208.666 293.321L195.633 313.774L139.992 314.991L180.196 276.507Z" fill="#3A506B"/>
<path d="M141.21 259.347L161.662 246.315C166.135 243.465 172.082 245.929 173.229 251.106L178.476 274.783L139.992 314.991L141.21 259.347Z" fill="#3A506B"/>
<path d="M101.508 274.787L106.754 251.108C107.902 245.927 113.847 243.464 118.322 246.316L138.775 259.35L139.992 314.991L101.508 274.787Z" fill="#2876D5"/>
<path d="M84.3524 313.77L71.3198 293.318C68.4702 288.846 70.9335 282.899 76.1109 281.752L99.7882 276.505L139.996 314.989L84.3524 313.77Z" fill="#2876D5"/>
<path d="M109.751 343.938L91.9389 339.993C88.0443 339.129 86.1909 334.655 88.3342 331.29L98.1394 315.905L139.992 314.991L109.751 343.938Z" stroke="#FFFAB6" stroke-miterlimit="10"/>
<path d="M139.075 356.844L123.692 366.649C120.326 368.792 115.855 366.94 114.99 363.044L111.046 345.234L139.992 314.991L139.075 356.844Z" stroke="#FFFAB6" stroke-miterlimit="10"/>
<path d="M168.94 345.231L164.994 363.044C164.131 366.938 159.656 368.792 156.291 366.648L140.906 356.843L139.992 314.991L168.94 345.231Z" stroke="#FFFAB6" stroke-miterlimit="10"/>
<path d="M181.845 315.908L191.65 331.291C193.793 334.657 191.942 339.128 188.045 339.993L170.235 343.937L139.992 314.991L181.845 315.908Z" stroke="#FFFAB6" stroke-miterlimit="10"/>
<path d="M170.233 286.043L188.045 289.988C191.94 290.852 193.793 295.327 191.65 298.691L181.845 314.076L139.992 314.991L170.233 286.043Z" stroke="#FFFAB6" stroke-miterlimit="10"/>
<path d="M140.909 273.137L156.292 263.332C159.658 261.189 164.129 263.041 164.994 266.937L168.938 284.748L139.992 314.991L140.909 273.137Z" stroke="#FFFAB6" stroke-miterlimit="10"/>
<path d="M111.044 284.75L114.99 266.938C115.853 263.043 120.328 261.19 123.693 263.333L139.078 273.138L139.992 314.991L111.044 284.75Z" stroke="#FFFAB6" stroke-miterlimit="10"/>
<path d="M98.1388 314.074L88.3338 298.691C86.1905 295.324 88.0424 290.853 91.9384 289.988L109.749 286.044L139.992 314.991L98.1388 314.074Z" stroke="#FFFAB6" stroke-miterlimit="10"/>
<path d="M111.937 341.842L95.4161 338.183C91.8009 337.384 90.0815 333.233 92.073 330.111L101.167 315.842L139.992 314.991L111.937 341.842Z" fill="#3A506B"/>
<path d="M139.142 353.816L124.873 362.911C121.749 364.9 117.604 363.18 116.803 359.568L113.144 343.047L139.997 314.993L139.142 353.816Z" fill="#3A506B"/>
<path d="M166.843 343.046L163.184 359.566C162.385 363.182 158.234 364.901 155.112 362.91L140.843 353.815L139.992 314.991L166.843 343.046Z" fill="#3A506B"/>
<path d="M178.817 315.84L187.913 330.109C189.901 333.233 188.181 337.379 184.57 338.18L168.048 341.838L139.994 314.985L178.817 315.84Z" fill="#3A506B"/>
<path d="M168.047 288.14L184.568 291.799C188.183 292.598 189.902 296.749 187.911 299.87L178.816 314.14L139.992 314.991L168.047 288.14Z" fill="#3A506B"/>
<path d="M140.841 276.166L155.11 267.07C158.234 265.081 162.38 266.802 163.181 270.413L166.839 286.934L139.986 314.989L140.841 276.166Z" fill="#3A506B"/>
<path d="M113.141 286.936L116.8 270.415C117.599 266.8 121.75 265.08 124.871 267.072L139.141 276.166L139.992 314.991L113.141 286.936Z" fill="#3A506B"/>
<path d="M101.167 314.141L92.0712 299.872C90.0826 296.748 91.803 292.603 95.4142 291.802L111.935 288.143L139.99 314.996L101.167 314.141Z" fill="#3A506B"/>
<path d="M115.087 338.827L100.419 335.578C97.2103 334.868 95.6839 331.183 97.4505 328.412L105.525 315.742L139.99 314.987L115.087 338.827Z" fill="#3A506B"/>
<path d="M139.237 349.459L126.569 357.53C123.8 359.296 120.115 357.772 119.403 354.562L116.153 339.897L139.992 314.991L139.237 349.459Z" fill="#3A506B"/>
<path d="M163.829 339.896L160.579 354.564C159.869 357.772 156.184 359.299 153.413 357.532L140.743 349.458L139.988 314.992L163.829 339.896Z" fill="#3A506B"/>
<path d="M174.46 315.745L182.532 328.413C184.297 331.183 182.774 334.868 179.563 335.58L164.898 338.83L139.992 314.991L174.46 315.745Z" fill="#3A506B"/>
<path d="M164.897 291.154L179.565 294.403C182.773 295.113 184.3 298.799 182.533 301.569L174.459 314.239L139.993 314.994L164.897 291.154Z" fill="#3A506B"/>
<path d="M140.747 280.522L153.414 272.451C156.184 270.686 159.869 272.209 160.581 275.419L163.831 290.084L139.992 314.991L140.747 280.522Z" fill="#3A506B"/>
<path d="M116.155 290.086L119.404 275.418C120.115 272.209 123.8 270.683 126.571 272.449L139.24 280.524L139.996 314.989L116.155 290.086Z" fill="#3A506B"/>
<path d="M105.523 314.236L97.4522 301.568C95.6869 298.799 97.2102 295.113 100.421 294.402L115.085 291.151L139.992 314.991L105.523 314.236Z" fill="#3A506B"/>
<path d="M146.981 312.096C145.382 308.236 140.957 306.403 137.097 308.002C133.237 309.6 131.404 314.026 133.003 317.886C134.602 321.746 139.027 323.579 142.887 321.98C146.747 320.381 148.58 315.956 146.981 312.096Z" fill="#2876D5"/>
<path d="M99.7883 528.475L76.1093 523.229C70.9286 522.082 68.4659 516.136 71.3179 511.661L84.3517 491.208L139.992 489.992L99.7883 528.475Z" fill="#2876D5"/>
<path d="M138.774 545.635L118.321 558.667C113.849 561.517 107.902 559.054 106.755 553.876L101.508 530.199L139.992 489.992L138.774 545.635Z" fill="#2876D5"/>
<path d="M178.476 530.196L173.23 553.875C172.082 559.055 166.137 561.518 161.662 558.666L141.209 545.632L139.992 489.992L178.476 530.196Z" fill="#2876D5"/>
<path d="M195.635 491.21L208.668 511.662C211.518 516.135 209.054 522.082 203.877 523.229L180.2 528.476L139.992 489.992L195.635 491.21Z" fill="#2876D5"/>
<path d="M180.196 451.508L203.875 456.754C209.056 457.902 211.519 463.847 208.667 468.322L195.633 488.775L139.992 489.992L180.196 451.508Z" fill="#3A506B"/>
<path d="M141.211 434.348L161.663 421.316C166.135 418.466 172.082 420.929 173.23 426.107L178.476 449.784L139.992 489.992L141.211 434.348Z" fill="#3A506B"/>
<path d="M101.509 449.788L106.755 426.109C107.902 420.928 113.848 418.465 118.323 421.317L138.776 434.351L139.992 489.992L101.509 449.788Z" fill="#3A506B"/>
<path d="M84.3529 488.771L71.3203 468.319C68.4707 463.847 70.934 457.9 76.1114 456.752L99.7887 451.506L139.996 489.99L84.3529 488.771Z" fill="#3A506B"/>
<path d="M109.752 518.939L91.9394 514.994C88.0448 514.13 86.1914 509.655 88.3347 506.291L98.1399 490.906L139.992 489.991L109.752 518.939Z" stroke="#FFFAB6" stroke-miterlimit="10"/>
<path d="M139.075 531.845L123.693 541.65C120.326 543.793 115.855 541.941 114.99 538.045L111.046 520.235L139.992 489.992L139.075 531.845Z" stroke="#FFFAB6" stroke-miterlimit="10"/>
<path d="M168.94 520.232L164.995 538.045C164.131 541.939 159.656 543.793 156.292 541.649L140.907 531.844L139.992 489.991L168.94 520.232Z" stroke="#FFFAB6" stroke-miterlimit="10"/>
<path d="M181.846 490.909L191.651 506.291C193.794 509.658 191.942 514.129 188.046 514.994L170.236 518.938L139.992 489.992L181.846 490.909Z" stroke="#FFFAB6" stroke-miterlimit="10"/>
<path d="M170.233 461.044L188.045 464.989C191.94 465.853 193.794 470.327 191.65 473.692L181.845 489.077L139.992 489.991L170.233 461.044Z" stroke="#FFFAB6" stroke-miterlimit="10"/>
<path d="M140.909 448.138L156.292 438.333C159.659 436.19 164.13 438.042 164.995 441.938L168.939 459.748L139.992 489.991L140.909 448.138Z" stroke="#FFFAB6" stroke-miterlimit="10"/>
<path d="M111.045 459.751L114.99 441.938C115.854 438.044 120.328 436.19 123.693 438.334L139.078 448.139L139.992 489.991L111.045 459.751Z" stroke="#FFFAB6" stroke-miterlimit="10"/>
<path d="M98.1393 489.074L88.3343 473.692C86.191 470.325 88.0429 465.854 91.9389 464.989L109.749 461.045L139.992 489.991L98.1393 489.074Z" stroke="#FFFAB6" stroke-miterlimit="10"/>
<path d="M111.937 516.843L95.4166 513.183C91.8014 512.385 90.082 508.233 92.0735 505.112L101.168 490.843L139.992 489.992L111.937 516.843Z" fill="#3A506B"/>
<path d="M139.143 528.817L124.874 537.912C121.75 539.901 117.604 538.18 116.803 534.569L113.145 518.048L139.998 489.994L139.143 528.817Z" fill="#3A506B"/>
<path d="M166.843 518.047L163.184 534.567C162.385 538.183 158.234 539.902 155.113 537.91L140.843 528.816L139.992 489.992L166.843 518.047Z" fill="#3A506B"/>
<path d="M178.818 490.841L187.913 505.11C189.902 508.234 188.181 512.38 184.57 513.181L168.049 516.839L139.995 489.986L178.818 490.841Z" fill="#3A506B"/>
<path d="M168.047 463.14L184.568 466.8C188.183 467.599 189.903 471.75 187.911 474.871L178.817 489.141L139.992 489.992L168.047 463.14Z" fill="#3A506B"/>
<path d="M140.842 451.166L155.111 442.071C158.235 440.082 162.38 441.803 163.181 445.414L166.84 461.935L139.987 489.989L140.842 451.166Z" fill="#3A506B"/>
<path d="M113.141 461.937L116.8 445.416C117.599 441.801 121.75 440.081 124.872 442.073L139.141 451.167L139.992 489.992L113.141 461.937Z" fill="#3A506B"/>
<path d="M101.167 489.142L92.0717 474.873C90.0831 471.749 91.8035 467.603 95.4147 466.802L111.936 463.144L139.99 489.997L101.167 489.142Z" fill="#3A506B"/>
<path d="M115.087 513.828L100.419 510.579C97.2108 509.869 95.6844 506.184 97.451 503.413L105.525 490.743L139.991 489.988L115.087 513.828Z" fill="#3A506B"/>
<path d="M139.238 524.46L126.57 532.531C123.8 534.296 120.115 532.773 119.403 529.563L116.153 514.898L139.992 489.991L139.238 524.46Z" fill="#3A506B"/>
<path d="M163.829 514.896L160.58 529.565C159.87 532.773 156.184 534.299 153.413 532.533L140.744 524.459L139.989 489.993L163.829 514.896Z" fill="#3A506B"/>
<path d="M174.461 490.746L182.532 503.414C184.297 506.184 182.774 509.869 179.564 510.581L164.899 513.831L139.992 489.992L174.461 490.746Z" fill="#3A506B"/>
<path d="M164.897 466.155L179.565 469.404C182.774 470.114 184.3 473.799 182.534 476.57L174.459 489.24L139.994 489.995L164.897 466.155Z" fill="#3A506B"/>
<path d="M140.747 455.523L153.415 447.452C156.185 445.686 159.87 447.21 160.581 450.42L163.832 465.085L139.992 489.991L140.747 455.523Z" fill="#3A506B"/>
<path d="M116.156 465.087L119.405 450.418C120.115 447.21 123.8 445.684 126.571 447.45L139.241 455.524L139.996 489.99L116.156 465.087Z" fill="#3A506B"/>
<path d="M105.524 489.237L97.4527 476.569C95.6874 473.799 97.2106 470.114 100.421 469.402L115.086 466.152L139.992 489.991L105.524 489.237Z" fill="#3A506B"/>
<path d="M146.981 487.097C145.383 483.237 140.957 481.404 137.097 483.002C133.237 484.601 131.404 489.027 133.003 492.887C134.602 496.746 139.027 498.579 142.887 496.981C146.747 495.382 148.58 490.957 146.981 487.097Z" fill="#2876D5"/>
<path d="M99.7883 528.475L76.1093 523.229C70.9286 522.082 68.4659 516.136 71.3179 511.661L84.3517 491.208L139.992 489.992L99.7883 528.475Z" fill="#3A506B"/>
<path d="M138.774 545.635L118.321 558.667C113.849 561.517 107.902 559.054 106.755 553.876L101.508 530.199L139.992 489.992L138.774 545.635Z" fill="#2876D5"/>
<path d="M178.476 530.196L173.23 553.875C172.082 559.055 166.137 561.518 161.662 558.666L141.209 545.632L139.992 489.992L178.476 530.196Z" fill="#3A506B"/>
<path d="M195.635 491.21L208.668 511.662C211.518 516.135 209.054 522.082 203.877 523.229L180.2 528.476L139.992 489.992L195.635 491.21Z" fill="#3A506B"/>
<path d="M180.196 451.508L203.875 456.754C209.056 457.902 211.519 463.847 208.667 468.322L195.633 488.775L139.992 489.992L180.196 451.508Z" fill="#3A506B"/>
<path d="M141.211 434.348L161.663 421.316C166.135 418.466 172.082 420.929 173.23 426.107L178.476 449.784L139.992 489.992L141.211 434.348Z" fill="#2876D5"/>
<path d="M101.509 449.788L106.755 426.109C107.902 420.928 113.848 418.465 118.323 421.317L138.776 434.351L139.992 489.992L101.509 449.788Z" fill="#2876D5"/>
<path d="M84.3529 488.771L71.3203 468.319C68.4707 463.847 70.934 457.9 76.1114 456.752L99.7887 451.506L139.996 489.99L84.3529 488.771Z" fill="#2876D5"/>
<path d="M109.752 518.939L91.9394 514.994C88.0448 514.13 86.1914 509.655 88.3347 506.291L98.1399 490.906L139.992 489.991L109.752 518.939Z" stroke="#FFFAB6" stroke-miterlimit="10"/>
<path d="M139.075 531.845L123.693 541.65C120.326 543.793 115.855 541.941 114.99 538.045L111.046 520.235L139.992 489.992L139.075 531.845Z" stroke="#FFFAB6" stroke-miterlimit="10"/>
<path d="M168.94 520.232L164.995 538.045C164.131 541.939 159.656 543.793 156.292 541.649L140.907 531.844L139.992 489.991L168.94 520.232Z" stroke="#FFFAB6" stroke-miterlimit="10"/>
<path d="M181.846 490.909L191.651 506.291C193.794 509.658 191.942 514.129 188.046 514.994L170.236 518.938L139.992 489.992L181.846 490.909Z" stroke="#FFFAB6" stroke-miterlimit="10"/>
<path d="M170.233 461.044L188.045 464.989C191.94 465.853 193.794 470.327 191.65 473.692L181.845 489.077L139.992 489.991L170.233 461.044Z" stroke="#FFFAB6" stroke-miterlimit="10"/>
<path d="M140.909 448.138L156.292 438.333C159.659 436.19 164.13 438.042 164.995 441.938L168.939 459.748L139.992 489.991L140.909 448.138Z" stroke="#FFFAB6" stroke-miterlimit="10"/>
<path d="M111.045 459.751L114.99 441.938C115.854 438.044 120.328 436.19 123.693 438.334L139.078 448.139L139.992 489.991L111.045 459.751Z" stroke="#FFFAB6" stroke-miterlimit="10"/>
<path d="M98.1393 489.074L88.3343 473.692C86.191 470.325 88.0429 465.854 91.9389 464.989L109.749 461.045L139.992 489.991L98.1393 489.074Z" stroke="#FFFAB6" stroke-miterlimit="10"/>
<path d="M111.937 516.843L95.4166 513.183C91.8014 512.385 90.082 508.233 92.0735 505.112L101.168 490.843L139.992 489.992L111.937 516.843Z" fill="#3A506B"/>
<path d="M139.143 528.817L124.874 537.912C121.75 539.901 117.604 538.18 116.803 534.569L113.145 518.048L139.998 489.994L139.143 528.817Z" fill="#3A506B"/>
<path d="M166.843 518.047L163.184 534.567C162.385 538.183 158.234 539.902 155.113 537.91L140.843 528.816L139.992 489.992L166.843 518.047Z" fill="#3A506B"/>
<path d="M178.818 490.841L187.913 505.11C189.902 508.234 188.181 512.38 184.57 513.181L168.049 516.839L139.995 489.986L178.818 490.841Z" fill="#3A506B"/>
<path d="M168.047 463.14L184.568 466.8C188.183 467.599 189.903 471.75 187.911 474.871L178.817 489.141L139.992 489.992L168.047 463.14Z" fill="#3A506B"/>
<path d="M140.842 451.166L155.111 442.071C158.235 440.082 162.38 441.803 163.181 445.414L166.84 461.935L139.987 489.989L140.842 451.166Z" fill="#3A506B"/>
<path d="M113.141 461.937L116.8 445.416C117.599 441.801 121.75 440.081 124.872 442.073L139.141 451.167L139.992 489.992L113.141 461.937Z" fill="#3A506B"/>
<path d="M101.167 489.142L92.0717 474.873C90.0831 471.749 91.8035 467.603 95.4147 466.802L111.936 463.144L139.99 489.997L101.167 489.142Z" fill="#3A506B"/>
<path d="M115.087 513.828L100.419 510.579C97.2108 509.869 95.6844 506.184 97.451 503.413L105.525 490.743L139.991 489.988L115.087 513.828Z" fill="#3A506B"/>
<path d="M139.238 524.46L126.57 532.531C123.8 534.296 120.115 532.773 119.403 529.563L116.153 514.898L139.992 489.991L139.238 524.46Z" fill="#3A506B"/>
<path d="M163.829 514.896L160.58 529.565C159.87 532.773 156.184 534.299 153.413 532.533L140.744 524.459L139.989 489.993L163.829 514.896Z" fill="#3A506B"/>
<path d="M174.461 490.746L182.532 503.414C184.297 506.184 182.774 509.869 179.564 510.581L164.899 513.831L139.992 489.992L174.461 490.746Z" fill="#3A506B"/>
<path d="M164.897 466.155L179.565 469.404C182.774 470.114 184.3 473.799 182.534 476.57L174.459 489.24L139.994 489.995L164.897 466.155Z" fill="#3A506B"/>
<path d="M140.747 455.523L153.415 447.452C156.185 445.686 159.87 447.21 160.581 450.42L163.832 465.085L139.992 489.991L140.747 455.523Z" fill="#3A506B"/>
<path d="M116.156 465.087L119.405 450.418C120.115 447.21 123.8 445.684 126.571 447.45L139.241 455.524L139.996 489.99L116.156 465.087Z" fill="#3A506B"/>
<path d="M105.524 489.237L97.4527 476.569C95.6874 473.799 97.2106 470.114 100.421 469.402L115.086 466.152L139.992 489.991L105.524 489.237Z" fill="#3A506B"/>
<path d="M146.981 487.097C145.383 483.237 140.957 481.404 137.097 483.002C133.237 484.601 131.404 489.027 133.003 492.887C134.602 496.746 139.027 498.579 142.887 496.981C146.747 495.382 148.58 490.957 146.981 487.097Z" fill="#2876D5"/>
<path d="M274.789 528.476L251.11 523.23C245.929 522.083 243.466 516.137 246.318 511.662L259.352 491.209L314.993 489.993L274.789 528.476Z" fill="#2876D5"/>
<path d="M313.774 545.636L293.322 558.668C288.849 561.518 282.903 559.055 281.755 553.877L276.509 530.2L314.993 489.993L313.774 545.636Z" fill="#2876D5"/>
<path d="M353.476 530.197L348.23 553.876C347.083 559.056 341.137 561.519 336.662 558.667L316.209 545.633L314.993 489.993L353.476 530.197Z" fill="#2876D5"/>
<path d="M370.636 491.211L383.668 511.663C386.518 516.136 384.055 522.083 378.877 523.23L355.2 528.477L314.993 489.993L370.636 491.211Z" fill="#2876D5"/>
<path d="M355.197 451.509L378.876 456.755C384.057 457.903 386.519 463.848 383.667 468.323L370.633 488.776L314.993 489.993L355.197 451.509Z" fill="#3A506B"/>
<path d="M316.211 434.349L336.663 421.317C341.136 418.467 347.083 420.931 348.23 426.108L353.477 449.785L314.993 489.993L316.211 434.349Z" fill="#3A506B"/>
<path d="M276.509 449.789L281.755 426.11C282.903 420.929 288.848 418.466 293.323 421.318L313.776 434.352L314.993 489.993L276.509 449.789Z" fill="#3A506B"/>
<path d="M259.353 488.772L246.321 468.32C243.471 463.848 245.934 457.901 251.112 456.754L274.789 451.507L314.997 489.991L259.353 488.772Z" fill="#3A506B"/>
<path d="M284.752 518.94L266.94 514.995C263.045 514.131 261.192 509.657 263.335 506.292L273.14 490.907L314.993 489.993L284.752 518.94Z" stroke="#FFFAB6" stroke-miterlimit="10"/>
<path d="M314.076 531.846L298.693 541.651C295.327 543.794 290.856 541.942 289.991 538.046L286.047 520.236L314.993 489.993L314.076 531.846Z" stroke="#FFFAB6" stroke-miterlimit="10"/>
<path d="M343.941 520.233L339.995 538.046C339.131 541.94 334.657 543.794 331.292 541.65L315.907 531.845L314.993 489.993L343.941 520.233Z" stroke="#FFFAB6" stroke-miterlimit="10"/>
<path d="M356.846 490.91L366.651 506.292C368.794 509.659 366.942 514.13 363.046 514.995L345.236 518.939L314.993 489.993L356.846 490.91Z" stroke="#FFFAB6" stroke-miterlimit="10"/>
<path d="M345.234 461.045L363.046 464.99C366.941 465.854 368.794 470.329 366.651 473.693L356.845 489.078L314.993 489.993L345.234 461.045Z" stroke="#FFFAB6" stroke-miterlimit="10"/>
<path d="M315.91 448.139L331.293 438.334C334.659 436.191 339.13 438.043 339.995 441.939L343.939 459.749L314.993 489.993L315.91 448.139Z" stroke="#FFFAB6" stroke-miterlimit="10"/>
<path d="M286.045 459.752L289.991 441.94C290.854 438.045 295.329 436.192 298.694 438.335L314.079 448.14L314.993 489.993L286.045 459.752Z" stroke="#FFFAB6" stroke-miterlimit="10"/>
<path d="M273.14 489.076L263.335 473.693C261.191 470.326 263.043 465.855 266.939 464.99L284.75 461.046L314.993 489.993L273.14 489.076Z" stroke="#FFFAB6" stroke-miterlimit="10"/>
<path d="M286.938 516.844L270.417 513.185C266.802 512.386 265.082 508.235 267.074 505.113L276.168 490.844L314.993 489.993L286.938 516.844Z" fill="#3A506B"/>
<path d="M314.143 528.818L299.874 537.913C296.75 539.902 292.605 538.181 291.804 534.57L288.145 518.049L314.998 489.995L314.143 528.818Z" fill="#3A506B"/>
<path d="M341.844 518.048L338.185 534.568C337.386 538.184 333.235 539.903 330.113 537.912L315.844 528.817L314.993 489.993L341.844 518.048Z" fill="#3A506B"/>
<path d="M353.818 490.842L362.914 505.111C364.902 508.235 363.182 512.381 359.571 513.182L343.049 516.84L314.995 489.987L353.818 490.842Z" fill="#3A506B"/>
<path d="M343.048 463.141L359.569 466.801C363.184 467.6 364.903 471.751 362.912 474.872L353.817 489.142L314.993 489.993L343.048 463.141Z" fill="#3A506B"/>
<path d="M315.842 451.168L330.111 442.072C333.235 440.083 337.381 441.804 338.182 445.415L341.84 461.936L314.987 489.99L315.842 451.168Z" fill="#3A506B"/>
<path d="M288.141 461.938L291.801 445.417C292.6 441.802 296.751 440.082 299.872 442.074L314.142 451.168L314.993 489.993L288.141 461.938Z" fill="#3A506B"/>
<path d="M276.168 489.143L267.072 474.874C265.084 471.75 266.804 467.605 270.415 466.803L286.936 463.145L314.991 489.998L276.168 489.143Z" fill="#3A506B"/>
<path d="M290.088 513.829L275.42 510.58C272.211 509.87 270.685 506.185 272.451 503.414L280.526 490.744L314.991 489.989L290.088 513.829Z" fill="#3A506B"/>
<path d="M314.238 524.461L301.57 532.532C298.801 534.298 295.116 532.774 294.404 529.564L291.154 514.899L314.993 489.992L314.238 524.461Z" fill="#3A506B"/>
<path d="M338.83 514.897L335.58 529.566C334.87 532.774 331.185 534.301 328.414 532.534L315.744 524.46L314.989 489.994L338.83 514.897Z" fill="#3A506B"/>
<path d="M349.461 490.747L357.533 503.415C359.298 506.185 357.775 509.87 354.564 510.582L339.899 513.832L314.993 489.993L349.461 490.747Z" fill="#3A506B"/>
<path d="M339.898 466.156L354.566 469.405C357.774 470.115 359.301 473.8 357.534 476.571L349.46 489.241L314.994 489.996L339.898 466.156Z" fill="#3A506B"/>
<path d="M315.748 455.524L328.415 447.453C331.185 445.687 334.87 447.211 335.582 450.421L338.832 465.086L314.993 489.993L315.748 455.524Z" fill="#3A506B"/>
<path d="M291.156 465.088L294.405 450.42C295.116 447.211 298.801 445.685 301.572 447.451L314.241 455.526L314.997 489.991L291.156 465.088Z" fill="#3A506B"/>
<path d="M280.524 489.238L272.453 476.57C270.688 473.8 272.211 470.115 275.422 469.404L290.086 466.153L314.993 489.993L280.524 489.238Z" fill="#3A506B"/>
<path d="M321.982 487.098C320.383 483.238 315.958 481.405 312.098 483.004C308.238 484.603 306.405 489.028 308.004 492.888C309.603 496.748 314.028 498.581 317.888 496.982C321.748 495.383 323.581 490.958 321.982 487.098Z" fill="#2876D5"/>
<path d="M274.788 528.475L251.109 523.229C245.928 522.082 243.466 516.136 246.318 511.661L259.351 491.208L314.992 489.992L274.788 528.475Z" fill="#2876D5"/>
<path d="M313.773 545.635L293.321 558.667C288.849 561.517 282.902 559.054 281.754 553.876L276.508 530.199L314.992 489.992L313.773 545.635Z" fill="#3A506B"/>
<path d="M353.476 530.196L348.229 553.875C347.082 559.055 341.136 561.518 336.662 558.666L316.208 545.632L314.992 489.992L353.476 530.196Z" fill="#3A506B"/>
<path d="M370.635 491.21L383.668 511.662C386.517 516.135 384.054 522.082 378.877 523.229L355.199 528.476L314.992 489.992L370.635 491.21Z" fill="#3A506B"/>
<path d="M355.196 451.508L378.875 456.754C384.056 457.902 386.519 463.847 383.667 468.322L370.633 488.775L314.992 489.992L355.196 451.508Z" fill="#3A506B"/>
<path d="M316.211 434.348L336.663 421.316C341.135 418.466 347.082 420.93 348.23 426.107L353.476 449.784L314.992 489.992L316.211 434.348Z" fill="#2876D5"/>
<path d="M276.508 449.788L281.755 426.109C282.902 420.928 288.848 418.465 293.322 421.317L313.776 434.351L314.992 489.992L276.508 449.788Z" fill="#2876D5"/>
<path d="M259.353 488.771L246.32 468.319C243.47 463.847 245.934 457.9 251.111 456.753L274.788 451.506L314.996 489.99L259.353 488.771Z" fill="#2876D5"/>
<path d="M284.751 518.939L266.939 514.994C263.044 514.13 261.191 509.656 263.334 506.291L273.139 490.906L314.992 489.992L284.751 518.939Z" stroke="#FFFAB6" stroke-miterlimit="10"/>
<path d="M314.075 531.845L298.692 541.65C295.326 543.793 290.855 541.941 289.99 538.045L286.046 520.235L314.992 489.992L314.075 531.845Z" stroke="#FFFAB6" stroke-miterlimit="10"/>
<path d="M343.94 520.233L339.994 538.045C339.131 541.939 334.656 543.793 331.291 541.649L315.906 531.844L314.992 489.992L343.94 520.233Z" stroke="#FFFAB6" stroke-miterlimit="10"/>
<path d="M356.845 490.909L366.65 506.292C368.793 509.658 366.942 514.129 363.045 514.994L345.235 518.938L314.992 489.992L356.845 490.909Z" stroke="#FFFAB6" stroke-miterlimit="10"/>
<path d="M345.233 461.044L363.045 464.99C366.94 465.853 368.793 470.328 366.65 473.692L356.845 489.077L314.992 489.992L345.233 461.044Z" stroke="#FFFAB6" stroke-miterlimit="10"/>
<path d="M315.909 448.138L331.292 438.334C334.658 436.19 339.129 438.042 339.994 441.938L343.938 459.749L314.992 489.992L315.909 448.138Z" stroke="#FFFAB6" stroke-miterlimit="10"/>
<path d="M286.044 459.751L289.99 441.939C290.853 438.044 295.328 436.191 298.693 438.334L314.078 448.139L314.992 489.992L286.044 459.751Z" stroke="#FFFAB6" stroke-miterlimit="10"/>
<path d="M273.139 489.075L263.334 473.692C261.19 470.325 263.042 465.854 266.938 464.99L284.749 461.045L314.992 489.992L273.139 489.075Z" stroke="#FFFAB6" stroke-miterlimit="10"/>
<path d="M286.937 516.843L270.416 513.184C266.801 512.385 265.082 508.234 267.073 505.112L276.168 490.843L314.992 489.992L286.937 516.843Z" fill="#3A506B"/>
<path d="M314.143 528.817L299.873 537.912C296.75 539.901 292.604 538.18 291.803 534.569L288.144 518.048L314.997 489.994L314.143 528.817Z" fill="#3A506B"/>
<path d="M341.843 518.047L338.184 534.567C337.385 538.183 333.234 539.902 330.113 537.911L315.843 528.816L314.992 489.992L341.843 518.047Z" fill="#3A506B"/>
<path d="M353.817 490.841L362.913 505.11C364.901 508.234 363.181 512.38 359.57 513.181L343.049 516.839L314.994 489.986L353.817 490.841Z" fill="#3A506B"/>
<path d="M343.047 463.141L359.568 466.8C363.183 467.599 364.902 471.75 362.911 474.871L353.817 489.141L314.992 489.992L343.047 463.141Z" fill="#3A506B"/>
<path d="M315.841 451.167L330.111 442.071C333.234 440.082 337.38 441.803 338.181 445.414L341.839 461.935L314.987 489.99L315.841 451.167Z" fill="#3A506B"/>
<path d="M288.141 461.937L291.8 445.416C292.599 441.801 296.75 440.081 299.871 442.073L314.141 451.167L314.992 489.992L288.141 461.937Z" fill="#3A506B"/>
<path d="M276.167 489.142L267.071 474.873C265.083 471.749 266.803 467.604 270.414 466.803L286.936 463.144L314.99 489.997L276.167 489.142Z" fill="#3A506B"/>
<path d="M290.087 513.828L275.419 510.579C272.21 509.869 270.684 506.184 272.451 503.413L280.525 490.743L314.99 489.988L290.087 513.828Z" fill="#3A506B"/>
<path d="M314.237 524.46L301.569 532.531C298.8 534.297 295.115 532.773 294.403 529.563L291.153 514.898L314.992 489.992L314.237 524.46Z" fill="#3A506B"/>
<path d="M338.829 514.897L335.579 529.565C334.869 532.773 331.184 534.3 328.413 532.533L315.743 524.459L314.988 489.993L338.829 514.897Z" fill="#3A506B"/>
<path d="M349.46 490.746L357.532 503.414C359.297 506.184 357.774 509.869 354.563 510.581L339.898 513.831L314.992 489.992L349.46 490.746Z" fill="#3A506B"/>
<path d="M339.897 466.155L354.565 469.404C357.773 470.114 359.3 473.799 357.533 476.57L349.459 489.24L314.993 489.995L339.897 466.155Z" fill="#3A506B"/>
<path d="M315.747 455.523L328.414 447.452C331.184 445.687 334.869 447.21 335.581 450.42L338.831 465.085L314.992 489.992L315.747 455.523Z" fill="#3A506B"/>
<path d="M291.155 465.087L294.404 450.419C295.115 447.21 298.8 445.684 301.571 447.45L314.24 455.525L314.996 489.99L291.155 465.087Z" fill="#3A506B"/>
<path d="M280.523 489.237L272.452 476.569C270.687 473.8 272.21 470.114 275.421 469.403L290.085 466.152L314.992 489.992L280.523 489.237Z" fill="#3A506B"/>
<path d="M321.981 487.097C320.382 483.237 315.957 481.404 312.097 483.003C308.237 484.601 306.404 489.027 308.003 492.887C309.602 496.747 314.027 498.58 317.887 496.981C321.747 495.382 323.58 490.957 321.981 487.097Z" fill="#2876D5"/>
<path d="M274.789 528.476L251.11 523.23C245.929 522.083 243.466 516.137 246.318 511.662L259.352 491.209L314.993 489.993L274.789 528.476Z" fill="#2876D5"/>
<path d="M313.774 545.636L293.322 558.668C288.849 561.518 282.903 559.055 281.755 553.877L276.509 530.2L314.993 489.993L313.774 545.636Z" fill="#2876D5"/>
<path d="M353.476 530.197L348.23 553.876C347.083 559.056 341.137 561.519 336.662 558.667L316.209 545.633L314.993 489.993L353.476 530.197Z" fill="#2876D5"/>
<path d="M370.636 491.211L383.668 511.663C386.518 516.136 384.055 522.083 378.877 523.23L355.2 528.477L314.993 489.993L370.636 491.211Z" fill="#2876D5"/>
<path d="M355.197 451.509L378.876 456.755C384.057 457.903 386.519 463.848 383.667 468.323L370.633 488.776L314.993 489.993L355.197 451.509Z" fill="#3A506B"/>
<path d="M316.211 434.349L336.663 421.317C341.136 418.467 347.083 420.931 348.23 426.108L353.477 449.785L314.993 489.993L316.211 434.349Z" fill="#3A506B"/>
<path d="M276.509 449.789L281.755 426.11C282.903 420.929 288.848 418.466 293.323 421.318L313.776 434.352L314.993 489.993L276.509 449.789Z" fill="#3A506B"/>
<path d="M259.353 488.772L246.321 468.32C243.471 463.848 245.934 457.901 251.112 456.754L274.789 451.507L314.997 489.991L259.353 488.772Z" fill="#3A506B"/>
<path d="M284.752 518.94L266.94 514.995C263.045 514.131 261.192 509.657 263.335 506.292L273.14 490.907L314.993 489.993L284.752 518.94Z" stroke="#FFFAB6" stroke-miterlimit="10"/>
<path d="M314.076 531.846L298.693 541.651C295.327 543.794 290.856 541.942 289.991 538.046L286.047 520.236L314.993 489.993L314.076 531.846Z" stroke="#FFFAB6" stroke-miterlimit="10"/>
<path d="M343.941 520.233L339.995 538.046C339.131 541.94 334.657 543.794 331.292 541.65L315.907 531.845L314.993 489.993L343.941 520.233Z" stroke="#FFFAB6" stroke-miterlimit="10"/>
<path d="M356.846 490.91L366.651 506.292C368.794 509.659 366.942 514.13 363.046 514.995L345.236 518.939L314.993 489.993L356.846 490.91Z" stroke="#FFFAB6" stroke-miterlimit="10"/>
<path d="M345.234 461.045L363.046 464.99C366.941 465.854 368.794 470.329 366.651 473.693L356.845 489.078L314.993 489.993L345.234 461.045Z" stroke="#FFFAB6" stroke-miterlimit="10"/>
<path d="M315.91 448.139L331.293 438.334C334.659 436.191 339.13 438.043 339.995 441.939L343.939 459.749L314.993 489.993L315.91 448.139Z" stroke="#FFFAB6" stroke-miterlimit="10"/>
<path d="M286.045 459.752L289.991 441.94C290.854 438.045 295.329 436.192 298.694 438.335L314.079 448.14L314.993 489.993L286.045 459.752Z" stroke="#FFFAB6" stroke-miterlimit="10"/>
<path d="M273.14 489.076L263.335 473.693C261.191 470.326 263.043 465.855 266.939 464.99L284.75 461.046L314.993 489.993L273.14 489.076Z" stroke="#FFFAB6" stroke-miterlimit="10"/>
<path d="M286.938 516.844L270.417 513.185C266.802 512.386 265.082 508.235 267.074 505.113L276.168 490.844L314.993 489.993L286.938 516.844Z" fill="#3A506B"/>
<path d="M314.143 528.818L299.874 537.913C296.75 539.902 292.605 538.181 291.804 534.57L288.145 518.049L314.998 489.995L314.143 528.818Z" fill="#3A506B"/>
<path d="M341.844 518.048L338.185 534.568C337.386 538.184 333.235 539.903 330.113 537.912L315.844 528.817L314.993 489.993L341.844 518.048Z" fill="#3A506B"/>
<path d="M353.818 490.842L362.914 505.111C364.902 508.235 363.182 512.381 359.571 513.182L343.049 516.84L314.995 489.987L353.818 490.842Z" fill="#3A506B"/>
<path d="M343.048 463.141L359.569 466.801C363.184 467.6 364.903 471.751 362.912 474.872L353.817 489.142L314.993 489.993L343.048 463.141Z" fill="#3A506B"/>
<path d="M315.842 451.168L330.111 442.072C333.235 440.083 337.381 441.804 338.182 445.415L341.84 461.936L314.987 489.99L315.842 451.168Z" fill="#3A506B"/>
<path d="M288.141 461.938L291.801 445.417C292.6 441.802 296.751 440.082 299.872 442.074L314.142 451.168L314.993 489.993L288.141 461.938Z" fill="#3A506B"/>
<path d="M276.168 489.143L267.072 474.874C265.084 471.75 266.804 467.605 270.415 466.803L286.936 463.145L314.991 489.998L276.168 489.143Z" fill="#3A506B"/>
<path d="M290.088 513.829L275.42 510.58C272.211 509.87 270.685 506.185 272.451 503.414L280.526 490.744L314.991 489.989L290.088 513.829Z" fill="#3A506B"/>
<path d="M314.238 524.461L301.57 532.532C298.801 534.298 295.116 532.774 294.404 529.564L291.154 514.899L314.993 489.992L314.238 524.461Z" fill="#3A506B"/>
<path d="M338.83 514.897L335.58 529.566C334.87 532.774 331.185 534.301 328.414 532.534L315.744 524.46L314.989 489.994L338.83 514.897Z" fill="#3A506B"/>
<path d="M349.461 490.747L357.533 503.415C359.298 506.185 357.775 509.87 354.564 510.582L339.899 513.832L314.993 489.993L349.461 490.747Z" fill="#3A506B"/>
<path d="M339.898 466.156L354.566 469.405C357.774 470.115 359.301 473.8 357.534 476.571L349.46 489.241L314.994 489.996L339.898 466.156Z" fill="#3A506B"/>
<path d="M315.748 455.524L328.415 447.453C331.185 445.687 334.87 447.211 335.582 450.421L338.832 465.086L314.993 489.993L315.748 455.524Z" fill="#3A506B"/>
<path d="M291.156 465.088L294.405 450.42C295.116 447.211 298.801 445.685 301.572 447.451L314.241 455.526L314.997 489.991L291.156 465.088Z" fill="#3A506B"/>
<path d="M280.524 489.238L272.453 476.57C270.688 473.8 272.211 470.115 275.422 469.404L290.086 466.153L314.993 489.993L280.524 489.238Z" fill="#3A506B"/>
<path d="M321.982 487.098C320.383 483.238 315.958 481.405 312.098 483.004C308.238 484.603 306.405 489.028 308.004 492.888C309.603 496.748 314.028 498.581 317.888 496.982C321.748 495.383 323.581 490.958 321.982 487.098Z" fill="#2876D5"/>
<path d="M274.788 528.475L251.109 523.229C245.928 522.082 243.466 516.136 246.318 511.661L259.351 491.208L314.992 489.992L274.788 528.475Z" fill="#2876D5"/>
<path d="M313.773 545.635L293.321 558.667C288.849 561.517 282.902 559.054 281.754 553.876L276.508 530.199L314.992 489.992L313.773 545.635Z" fill="#3A506B"/>
<path d="M353.476 530.196L348.229 553.875C347.082 559.055 341.136 561.518 336.662 558.666L316.208 545.632L314.992 489.992L353.476 530.196Z" fill="#3A506B"/>
<path d="M370.635 491.21L383.668 511.662C386.517 516.135 384.054 522.082 378.877 523.229L355.199 528.476L314.992 489.992L370.635 491.21Z" fill="#3A506B"/>
<path d="M355.196 451.508L378.875 456.754C384.056 457.902 386.519 463.847 383.667 468.322L370.633 488.775L314.992 489.992L355.196 451.508Z" fill="#3A506B"/>
<path d="M316.211 434.348L336.663 421.316C341.135 418.466 347.082 420.93 348.23 426.107L353.476 449.784L314.992 489.992L316.211 434.348Z" fill="#2876D5"/>
<path d="M276.508 449.788L281.755 426.109C282.902 420.928 288.848 418.465 293.322 421.317L313.776 434.351L314.992 489.992L276.508 449.788Z" fill="#2876D5"/>
<path d="M259.353 488.771L246.32 468.319C243.47 463.847 245.934 457.9 251.111 456.753L274.788 451.506L314.996 489.99L259.353 488.771Z" fill="#2876D5"/>
<path d="M284.751 518.939L266.939 514.994C263.044 514.13 261.191 509.656 263.334 506.291L273.139 490.906L314.992 489.992L284.751 518.939Z" stroke="#FFFAB6" stroke-miterlimit="10"/>
<path d="M314.075 531.845L298.692 541.65C295.326 543.793 290.855 541.941 289.99 538.045L286.046 520.235L314.992 489.992L314.075 531.845Z" stroke="#FFFAB6" stroke-miterlimit="10"/>
<path d="M343.94 520.233L339.994 538.045C339.131 541.939 334.656 543.793 331.291 541.649L315.906 531.844L314.992 489.992L343.94 520.233Z" stroke="#FFFAB6" stroke-miterlimit="10"/>
<path d="M356.845 490.909L366.65 506.292C368.793 509.658 366.942 514.129 363.045 514.994L345.235 518.938L314.992 489.992L356.845 490.909Z" stroke="#FFFAB6" stroke-miterlimit="10"/>
<path d="M345.233 461.044L363.045 464.99C366.94 465.853 368.793 470.328 366.65 473.692L356.845 489.077L314.992 489.992L345.233 461.044Z" stroke="#FFFAB6" stroke-miterlimit="10"/>
<path d="M315.909 448.138L331.292 438.334C334.658 436.19 339.129 438.042 339.994 441.938L343.938 459.749L314.992 489.992L315.909 448.138Z" stroke="#FFFAB6" stroke-miterlimit="10"/>
<path d="M286.044 459.751L289.99 441.939C290.853 438.044 295.328 436.191 298.693 438.334L314.078 448.139L314.992 489.992L286.044 459.751Z" stroke="#FFFAB6" stroke-miterlimit="10"/>
<path d="M273.139 489.075L263.334 473.692C261.19 470.325 263.042 465.854 266.938 464.99L284.749 461.045L314.992 489.992L273.139 489.075Z" stroke="#FFFAB6" stroke-miterlimit="10"/>
<path d="M286.937 516.843L270.416 513.184C266.801 512.385 265.082 508.234 267.073 505.112L276.168 490.843L314.992 489.992L286.937 516.843Z" fill="#3A506B"/>
<path d="M314.143 528.817L299.873 537.912C296.75 539.901 292.604 538.18 291.803 534.569L288.144 518.048L314.997 489.994L314.143 528.817Z" fill="#3A506B"/>
<path d="M341.843 518.047L338.184 534.567C337.385 538.183 333.234 539.902 330.113 537.911L315.843 528.816L314.992 489.992L341.843 518.047Z" fill="#3A506B"/>
<path d="M353.817 490.841L362.913 505.11C364.901 508.234 363.181 512.38 359.57 513.181L343.049 516.839L314.994 489.986L353.817 490.841Z" fill="#3A506B"/>
<path d="M343.047 463.141L359.568 466.8C363.183 467.599 364.902 471.75 362.911 474.871L353.817 489.141L314.992 489.992L343.047 463.141Z" fill="#3A506B"/>
<path d="M315.841 451.167L330.111 442.071C333.234 440.082 337.38 441.803 338.181 445.414L341.839 461.935L314.987 489.99L315.841 451.167Z" fill="#3A506B"/>
<path d="M288.141 461.937L291.8 445.416C292.599 441.801 296.75 440.081 299.871 442.073L314.141 451.167L314.992 489.992L288.141 461.937Z" fill="#3A506B"/>
<path d="M276.167 489.142L267.071 474.873C265.083 471.749 266.803 467.604 270.414 466.803L286.936 463.144L314.99 489.997L276.167 489.142Z" fill="#3A506B"/>
<path d="M290.087 513.828L275.419 510.579C272.21 509.869 270.684 506.184 272.451 503.413L280.525 490.743L314.99 489.988L290.087 513.828Z" fill="#3A506B"/>
<path d="M314.237 524.46L301.569 532.531C298.8 534.297 295.115 532.773 294.403 529.563L291.153 514.898L314.992 489.992L314.237 524.46Z" fill="#3A506B"/>
<path d="M338.829 514.897L335.579 529.565C334.869 532.773 331.184 534.3 328.413 532.533L315.743 524.459L314.988 489.993L338.829 514.897Z" fill="#3A506B"/>
<path d="M349.46 490.746L357.532 503.414C359.297 506.184 357.774 509.869 354.563 510.581L339.898 513.831L314.992 489.992L349.46 490.746Z" fill="#3A506B"/>
<path d="M339.897 466.155L354.565 469.404C357.773 470.114 359.3 473.799 357.533 476.57L349.459 489.24L314.993 489.995L339.897 466.155Z" fill="#3A506B"/>
<path d="M315.747 455.523L328.414 447.452C331.184 445.687 334.869 447.21 335.581 450.42L338.831 465.085L314.992 489.992L315.747 455.523Z" fill="#3A506B"/>
<path d="M291.155 465.087L294.404 450.419C295.115 447.21 298.8 445.684 301.571 447.45L314.24 455.525L314.996 489.99L291.155 465.087Z" fill="#3A506B"/>
<path d="M280.523 489.237L272.452 476.569C270.687 473.8 272.21 470.114 275.421 469.403L290.085 466.152L314.992 489.992L280.523 489.237Z" fill="#3A506B"/>
<path d="M321.981 487.097C320.382 483.237 315.957 481.404 312.097 483.003C308.237 484.601 306.404 489.027 308.003 492.887C309.602 496.747 314.027 498.58 317.887 496.981C321.747 495.382 323.58 490.957 321.981 487.097Z" fill="#2876D5"/>
<path d="M449.789 178.476L426.11 173.229C420.929 172.082 418.466 166.136 421.318 161.662L434.352 141.208L489.993 139.992L449.789 178.476Z" fill="#2876D5"/>
<path d="M488.774 195.635L468.322 208.668C463.849 211.517 457.903 209.054 456.755 203.877L451.509 180.199L489.993 139.992L488.774 195.635Z" fill="#3A506B"/>
<path d="M528.476 180.196L523.23 203.875C522.083 209.056 516.137 211.518 511.662 208.666L491.209 195.633L489.993 139.992L528.476 180.196Z" fill="#2876D5"/>
<path d="M545.636 141.211L558.668 161.663C561.518 166.135 559.055 172.082 553.877 173.229L530.2 178.476L489.993 139.992L545.636 141.211Z" fill="#3A506B"/>
<path d="M530.197 101.508L553.876 106.755C559.057 107.902 561.519 113.848 558.667 118.322L545.633 138.776L489.993 139.992L530.197 101.508Z" fill="#3A506B"/>
<path d="M491.211 84.3487L511.663 71.3161C516.136 68.4666 522.083 70.9298 523.23 76.1073L528.477 99.7845L489.993 139.992L491.211 84.3487Z" fill="#3A506B"/>
<path d="M451.509 99.7879L456.755 76.1089C457.903 70.9282 463.848 68.4655 468.323 71.3174L488.776 84.3512L489.993 139.992L451.509 99.7879Z" fill="#2876D5"/>
<path d="M434.353 138.772L421.321 118.32C418.471 113.847 420.934 107.9 426.112 106.753L449.789 101.506L489.997 139.99L434.353 138.772Z" fill="#2876D5"/>
<path d="M459.752 168.94L441.94 164.994C438.045 164.13 436.192 159.656 438.335 156.291L448.14 140.906L489.993 139.992L459.752 168.94Z" stroke="#FFFAB6" stroke-miterlimit="10"/>
<path d="M489.076 181.845L473.693 191.65C470.327 193.793 465.856 191.941 464.991 188.045L461.047 170.235L489.993 139.992L489.076 181.845Z" stroke="#FFFAB6" stroke-miterlimit="10"/>
<path d="M518.941 170.233L514.995 188.045C514.131 191.94 509.657 193.793 506.292 191.65L490.907 181.844L489.993 139.992L518.941 170.233Z" stroke="#FFFAB6" stroke-miterlimit="10"/>
<path d="M531.846 140.909L541.651 156.292C543.794 159.658 541.942 164.129 538.046 164.994L520.236 168.938L489.993 139.992L531.846 140.909Z" stroke="#FFFAB6" stroke-miterlimit="10"/>
<path d="M520.234 111.044L538.046 114.99C541.941 115.853 543.794 120.328 541.651 123.692L531.845 139.077L489.993 139.992L520.234 111.044Z" stroke="#FFFAB6" stroke-miterlimit="10"/>
<path d="M490.91 98.1386L506.293 88.3336C509.659 86.1903 514.13 88.0423 514.995 91.9383L518.939 109.749L489.993 139.992L490.91 98.1386Z" stroke="#FFFAB6" stroke-miterlimit="10"/>
<path d="M461.045 109.751L464.991 91.9388C465.854 88.0442 470.329 86.1908 473.694 88.3341L489.079 98.1393L489.993 139.992L461.045 109.751Z" stroke="#FFFAB6" stroke-miterlimit="10"/>
<path d="M448.14 139.075L438.335 123.692C436.191 120.326 438.043 115.855 441.939 114.99L459.75 111.046L489.993 139.992L448.14 139.075Z" stroke="#FFFAB6" stroke-miterlimit="10"/>
<path d="M461.938 166.843L445.417 163.184C441.802 162.385 440.082 158.234 442.074 155.113L451.168 140.843L489.993 139.992L461.938 166.843Z" fill="#3A506B"/>
<path d="M489.143 178.817L474.874 187.913C471.75 189.901 467.605 188.181 466.804 184.57L463.145 168.048L489.998 139.994L489.143 178.817Z" fill="#3A506B"/>
<path d="M516.844 168.047L513.185 184.568C512.386 188.183 508.235 189.902 505.113 187.911L490.844 178.817L489.993 139.992L516.844 168.047Z" fill="#3A506B"/>
<path d="M528.818 140.842L537.914 155.111C539.902 158.234 538.182 162.38 534.571 163.181L518.049 166.84L489.995 139.987L528.818 140.842Z" fill="#3A506B"/>
<path d="M518.048 113.141L534.569 116.8C538.184 117.599 539.903 121.75 537.912 124.871L528.817 139.141L489.993 139.992L518.048 113.141Z" fill="#3A506B"/>
<path d="M490.842 101.167L505.111 92.0713C508.235 90.0827 512.381 91.8031 513.182 95.4143L516.84 111.936L489.987 139.99L490.842 101.167Z" fill="#3A506B"/>
<path d="M463.141 111.937L466.801 95.4162C467.6 91.801 471.751 90.0816 474.872 92.0731L489.142 101.167L489.993 139.992L463.141 111.937Z" fill="#3A506B"/>
<path d="M451.168 139.142L442.072 124.873C440.084 121.75 441.804 117.604 445.415 116.803L461.936 113.144L489.991 139.997L451.168 139.142Z" fill="#3A506B"/>
<path d="M465.088 163.829L450.42 160.579C447.211 159.869 445.685 156.184 447.451 153.413L455.526 140.743L489.991 139.988L465.088 163.829Z" fill="#3A506B"/>
<path d="M489.238 174.46L476.57 182.532C473.801 184.297 470.116 182.774 469.404 179.563L466.154 164.898L489.993 139.992L489.238 174.46Z" fill="#3A506B"/>
<path d="M513.83 164.897L510.58 179.565C509.87 182.773 506.185 184.3 503.414 182.533L490.744 174.459L489.989 139.993L513.83 164.897Z" fill="#3A506B"/>
<path d="M524.461 140.747L532.533 153.414C534.298 156.184 532.775 159.869 529.564 160.581L514.899 163.831L489.993 139.992L524.461 140.747Z" fill="#3A506B"/>
<path d="M514.898 116.155L529.566 119.404C532.774 120.115 534.301 123.8 532.534 126.571L524.46 139.24L489.994 139.996L514.898 116.155Z" fill="#3A506B"/>
<path d="M490.748 105.523L503.415 97.452C506.185 95.6868 509.87 97.21 510.582 100.421L513.832 115.085L489.993 139.992L490.748 105.523Z" fill="#3A506B"/>
<path d="M466.156 115.087L469.405 100.419C470.116 97.2103 473.801 95.6839 476.572 97.4505L489.241 105.525L489.997 139.99L466.156 115.087Z" fill="#3A506B"/>
<path d="M455.524 139.237L447.453 126.569C445.688 123.8 447.211 120.115 450.422 119.403L465.086 116.153L489.993 139.992L455.524 139.237Z" fill="#3A506B"/>
<path d="M496.982 137.097C495.383 133.237 490.958 131.404 487.098 133.003C483.238 134.602 481.405 139.027 483.004 142.887C484.603 146.747 489.028 148.58 492.888 146.981C496.748 145.382 498.581 140.957 496.982 137.097Z" fill="#2876D5"/>
<path d="M482.864 505.363V504.954C482.91 500.613 483.364 497.159 484.228 494.591C485.091 492.022 486.319 489.943 487.91 488.352C489.5 486.761 491.41 485.295 493.637 483.954C494.978 483.136 496.182 482.17 497.25 481.057C498.319 479.92 499.16 478.613 499.773 477.136C500.41 475.659 500.728 474.022 500.728 472.227C500.728 470 500.205 468.068 499.16 466.432C498.114 464.795 496.716 463.534 494.966 462.647C493.216 461.761 491.273 461.318 489.137 461.318C487.273 461.318 485.478 461.704 483.75 462.477C482.023 463.25 480.58 464.466 479.421 466.125C478.262 467.784 477.591 469.954 477.41 472.636H468.819C469 468.772 470 465.466 471.819 462.716C473.66 459.966 476.08 457.863 479.08 456.409C482.103 454.954 485.455 454.227 489.137 454.227C493.137 454.227 496.614 455.022 499.569 456.613C502.546 458.204 504.841 460.386 506.455 463.159C508.091 465.932 508.91 469.091 508.91 472.636C508.91 475.136 508.523 477.397 507.75 479.42C507 481.443 505.91 483.25 504.478 484.841C503.069 486.432 501.364 487.841 499.364 489.068C497.364 490.318 495.762 491.636 494.557 493.022C493.353 494.386 492.478 496.011 491.932 497.897C491.387 499.784 491.091 502.136 491.046 504.954V505.363H482.864ZM487.228 525.545C485.546 525.545 484.103 524.943 482.898 523.738C481.694 522.534 481.091 521.091 481.091 519.409C481.091 517.727 481.694 516.284 482.898 515.079C484.103 513.875 485.546 513.272 487.228 513.272C488.91 513.272 490.353 513.875 491.557 515.079C492.762 516.284 493.364 517.727 493.364 519.409C493.364 520.522 493.08 521.545 492.512 522.477C491.966 523.409 491.228 524.159 490.296 524.727C489.387 525.272 488.364 525.545 487.228 525.545Z" fill="#3A506B"/>
<path d="M31.5746 15H598.425C607.265 15 615 22.7348 615 31.5746V598.425C615 607.265 607.265 615 598.425 615H31.5746C22.7348 615 15 607.265 15 598.425V31.5746C16.105 22.7348 22.7348 15 31.5746 15Z" stroke="#3A506B" stroke-width="30" stroke-miterlimit="10"/>
<path d="M419.144 415H560.856C563.066 415 565 416.934 565 419.144V560.856C565 563.066 563.066 565 560.856 565H419.144C416.934 565 415 563.066 415 560.856V419.144C415.276 416.934 416.934 415 419.144 415Z" stroke="#3A506B" stroke-width="6" stroke-miterlimit="10"/>
</svg>
