<svg width="196" height="196" viewBox="0 0 196 196" fill="none" xmlns="http://www.w3.org/2000/svg">
<path d="M57.7891 136.477L34.11 131.231C28.9294 130.083 26.4667 124.138 29.3186 119.663L42.3524 99.2096L97.9931 97.9932L57.7891 136.477Z" fill="#2876D5"/>
<path d="M96.7742 153.636L76.3221 166.669C71.8497 169.518 65.9029 167.055 64.7554 161.878L59.509 138.201L97.9929 97.9931L96.7742 153.636Z" fill="#2876D5"/>
<path d="M136.477 138.197L131.23 161.876C130.083 167.057 124.137 169.52 119.663 166.668L99.2094 153.634L97.993 97.9932L136.477 138.197Z" fill="#2876D5"/>
<path d="M153.636 99.2118L166.669 119.664C169.518 124.136 167.055 130.083 161.878 131.231L138.2 136.477L97.9929 97.9931L153.636 99.2118Z" fill="#2876D5"/>
<path d="M138.197 59.5094L161.876 64.7558C167.057 65.9032 169.52 71.8488 166.668 76.3234L153.634 96.7768L97.9931 97.9932L138.197 59.5094Z" fill="#3A506B"/>
<path d="M99.2116 42.3499L119.664 29.3174C124.136 26.4678 130.083 28.931 131.23 34.1085L136.477 57.7857L97.9929 97.9932L99.2116 42.3499Z" fill="#3A506B"/>
<path d="M59.5093 57.7891L64.7557 34.1101C65.9031 28.9294 71.8486 26.4667 76.3233 29.3186L96.7766 42.3525L97.993 97.9931L59.5093 57.7891Z" fill="#3A506B"/>
<path d="M42.3536 96.7729L29.321 76.3208C26.4715 71.8483 28.9347 65.9015 34.1122 64.754L57.7894 59.5076L97.9968 97.9916L42.3536 96.7729Z" fill="#3A506B"/>
<path d="M67.7524 126.941L49.9402 122.995C46.0455 122.132 44.1921 117.657 46.3354 114.293L56.1406 98.9076L97.9932 97.9932L67.7524 126.941Z" stroke="#FFFAB6" stroke-miterlimit="10"/>
<path d="M97.0762 139.846L81.6934 149.651C78.3269 151.795 73.856 149.943 72.9911 146.047L69.0469 128.236L97.9932 97.9932L97.0762 139.846Z" stroke="#FFFAB6" stroke-miterlimit="10"/>
<path d="M126.941 128.234L122.995 146.046C122.132 149.941 117.657 151.794 114.293 149.651L98.9076 139.846L97.9932 97.9932L126.941 128.234Z" stroke="#FFFAB6" stroke-miterlimit="10"/>
<path d="M139.846 98.9102L149.651 114.293C151.795 117.66 149.943 122.13 146.047 122.995L128.236 126.94L97.9932 97.9932L139.846 98.9102Z" stroke="#FFFAB6" stroke-miterlimit="10"/>
<path d="M128.234 69.0454L146.046 72.991C149.941 73.8546 151.794 78.3291 149.651 81.6937L139.846 97.0787L97.9932 97.9931L128.234 69.0454Z" stroke="#FFFAB6" stroke-miterlimit="10"/>
<path d="M98.9102 56.1399L114.293 46.335C117.659 44.1917 122.13 46.0436 122.995 49.9396L126.939 67.7501L97.9932 97.9932L98.9102 56.1399Z" stroke="#FFFAB6" stroke-miterlimit="10"/>
<path d="M69.0455 67.7524L72.9911 49.9402C73.8547 46.0455 78.3292 44.1921 81.6938 46.3354L97.0788 56.1406L97.9932 97.9932L69.0455 67.7524Z" stroke="#FFFAB6" stroke-miterlimit="10"/>
<path d="M56.14 97.0762L46.335 81.6933C44.1917 78.3269 46.0436 73.8559 49.9396 72.991L67.7501 69.0469L97.9932 97.9932L56.14 97.0762Z" stroke="#FFFAB6" stroke-miterlimit="10"/>
<path d="M69.9381 124.844L53.4174 121.185C49.8022 120.386 48.0827 116.235 50.0742 113.114L59.1685 98.8443L97.993 97.9932L69.9381 124.844Z" fill="#3A506B"/>
<path d="M97.1435 136.818L82.8744 145.914C79.7506 147.902 75.6048 146.182 74.8038 142.571L71.1455 126.049L97.9984 97.9953L97.1435 136.818Z" fill="#3A506B"/>
<path d="M124.844 126.048L121.185 142.569C120.386 146.184 116.235 147.904 113.114 145.912L98.8441 136.818L97.993 97.9932L124.844 126.048Z" fill="#3A506B"/>
<path d="M136.818 98.8427L145.914 113.112C147.902 116.236 146.182 120.381 142.571 121.182L126.049 124.841L97.9954 97.9879L136.818 98.8427Z" fill="#3A506B"/>
<path d="M126.048 71.142L142.569 74.8014C146.184 75.6003 147.903 79.7514 145.912 82.8725L136.818 97.1421L97.9931 97.9932L126.048 71.142Z" fill="#3A506B"/>
<path d="M98.8424 59.1681L113.112 50.0726C116.235 48.0839 120.381 49.8044 121.182 53.4155L124.84 69.9368L97.9875 97.991L98.8424 59.1681Z" fill="#3A506B"/>
<path d="M71.1417 69.9382L74.8012 53.4175C75.6 49.8023 79.7511 48.0828 82.8723 50.0743L97.1418 59.1686L97.993 97.9931L71.1417 69.9382Z" fill="#3A506B"/>
<path d="M59.168 97.1437L50.0724 82.8746C48.0838 79.7508 49.8042 75.605 53.4154 74.804L69.9367 71.1457L97.9908 97.9986L59.168 97.1437Z" fill="#3A506B"/>
<path d="M73.0882 121.83L58.4201 118.58C55.2116 117.87 53.6851 114.185 55.4517 111.414L63.526 98.7446L97.9916 97.9892L73.0882 121.83Z" fill="#3A506B"/>
<path d="M97.2384 132.461L84.5707 140.533C81.801 142.298 78.1159 140.775 77.4041 137.564L74.1539 122.9L97.9931 97.993L97.2384 132.461Z" fill="#3A506B"/>
<path d="M121.83 122.898L118.58 137.566C117.87 140.775 114.185 142.301 111.414 140.534L98.7446 132.46L97.9892 97.9946L121.83 122.898Z" fill="#3A506B"/>
<path d="M132.461 98.7478L140.533 111.416C142.298 114.185 140.775 117.87 137.564 118.582L122.9 121.832L97.993 97.9931L132.461 98.7478Z" fill="#3A506B"/>
<path d="M122.898 74.1563L137.566 77.4057C140.775 78.1158 142.301 81.801 140.534 84.5719L132.46 97.2414L97.9946 97.9968L122.898 74.1563Z" fill="#3A506B"/>
<path d="M98.7479 63.5246L111.416 55.4533C114.185 53.688 117.87 55.2112 118.582 58.4218L121.832 73.0865L97.9932 97.993L98.7479 63.5246Z" fill="#3A506B"/>
<path d="M74.1564 73.0882L77.4057 58.4201C78.1158 55.2115 81.801 53.6851 84.5719 55.4517L97.2415 63.526L97.9969 97.9916L74.1564 73.0882Z" fill="#3A506B"/>
<path d="M63.5247 97.2384L55.4534 84.5706C53.6881 81.801 55.2114 78.1158 58.4219 77.404L73.0866 74.1538L97.9932 97.9931L63.5247 97.2384Z" fill="#3A506B"/>
<path d="M104.982 95.0984C103.383 91.2385 98.9583 89.4055 95.0983 91.0043C91.2383 92.6032 89.4054 97.0284 91.0042 100.888C92.603 104.748 97.0283 106.581 100.888 104.982C104.748 103.384 106.581 98.9584 104.982 95.0984Z" fill="#2876D5"/>
<path d="M57.7883 136.476L34.1093 131.23C28.9286 130.082 26.4659 124.137 29.3179 119.662L42.3517 99.2086L97.9923 97.9922L57.7883 136.476Z" fill="#2876D5"/>
<path d="M96.7735 153.635L76.3214 166.668C71.8489 169.518 65.9022 167.054 64.7546 161.877L59.5082 138.2L97.9922 97.9921L96.7735 153.635Z" fill="#3A506B"/>
<path d="M136.476 138.196L131.23 161.875C130.082 167.056 124.137 169.519 119.662 166.667L99.2086 153.633L97.9922 97.9922L136.476 138.196Z" fill="#3A506B"/>
<path d="M153.635 99.2108L166.668 119.663C169.518 124.135 167.054 130.082 161.877 131.23L138.2 136.476L97.9922 97.9922L153.635 99.2108Z" fill="#3A506B"/>
<path d="M138.196 59.5084L161.875 64.7548C167.056 65.9023 169.519 71.8478 166.667 76.3224L153.633 96.7758L97.9924 97.9922L138.196 59.5084Z" fill="#2876D5"/>
<path d="M99.2109 42.349L119.663 29.3164C124.135 26.4668 130.082 28.93 131.23 34.1075L136.476 57.7847L97.9922 97.9922L99.2109 42.349Z" fill="#3A506B"/>
<path d="M59.5086 57.7881L64.755 34.1091C65.9024 28.9284 71.8479 26.4657 76.3226 29.3177L96.7759 42.3515L97.9923 97.9921L59.5086 57.7881Z" fill="#2876D5"/>
<path d="M42.3529 96.7719L29.3203 76.3198C26.4707 71.8473 28.934 65.9006 34.1114 64.753L57.7887 59.5066L97.9961 97.9906L42.3529 96.7719Z" fill="#2876D5"/>
<path d="M67.7514 126.94L49.9392 122.994C46.0445 122.131 44.1911 117.656 46.3344 114.292L56.1396 98.9066L97.9922 97.9922L67.7514 126.94Z" stroke="#FFFAB6" stroke-miterlimit="10"/>
<path d="M97.0752 139.845L81.6924 149.65C78.3259 151.794 73.855 149.942 72.9901 146.046L69.0459 128.235L97.9922 97.9923L97.0752 139.845Z" stroke="#FFFAB6" stroke-miterlimit="10"/>
<path d="M126.94 128.233L122.994 146.045C122.131 149.94 117.656 151.793 114.292 149.65L98.9066 139.845L97.9922 97.9922L126.94 128.233Z" stroke="#FFFAB6" stroke-miterlimit="10"/>
<path d="M139.845 98.9093L149.65 114.292C151.794 117.659 149.942 122.13 146.046 122.994L128.235 126.939L97.9922 97.9923L139.845 98.9093Z" stroke="#FFFAB6" stroke-miterlimit="10"/>
<path d="M128.233 69.0445L146.045 72.99C149.94 73.8536 151.793 78.3281 149.65 81.6927L139.845 97.0778L97.9922 97.9921L128.233 69.0445Z" stroke="#FFFAB6" stroke-miterlimit="10"/>
<path d="M98.9092 56.139L114.292 46.334C117.658 44.1907 122.129 46.0426 122.994 49.9386L126.938 67.7491L97.9922 97.9922L98.9092 56.139Z" stroke="#FFFAB6" stroke-miterlimit="10"/>
<path d="M69.0446 67.7514L72.9901 49.9392C73.8537 46.0446 78.3282 44.1911 81.6928 46.3344L97.0779 56.1397L97.9922 97.9922L69.0446 67.7514Z" stroke="#FFFAB6" stroke-miterlimit="10"/>
<path d="M56.139 97.0752L46.3341 81.6924C44.1907 78.3259 46.0427 73.8549 49.9387 72.99L67.7491 69.0459L97.9922 97.9922L56.139 97.0752Z" stroke="#FFFAB6" stroke-miterlimit="10"/>
<path d="M69.9374 124.843L53.4166 121.184C49.8014 120.385 48.082 116.234 50.0735 113.113L59.1678 98.8434L97.9923 97.9922L69.9374 124.843Z" fill="#3A506B"/>
<path d="M97.1428 136.817L82.8736 145.913C79.7499 147.901 75.6041 146.181 74.803 142.57L71.1447 126.049L97.9976 97.9944L97.1428 136.817Z" fill="#3A506B"/>
<path d="M124.843 126.047L121.184 142.568C120.385 146.183 116.234 147.903 113.113 145.911L98.8434 136.817L97.9922 97.9923L124.843 126.047Z" fill="#3A506B"/>
<path d="M136.818 98.8418L145.913 113.111C147.902 116.235 146.181 120.38 142.57 121.182L126.049 124.84L97.9946 97.9869L136.818 98.8418Z" fill="#3A506B"/>
<path d="M126.047 71.141L142.568 74.8004C146.183 75.5993 147.903 79.7504 145.911 82.8716L136.817 97.1411L97.9924 97.9922L126.047 71.141Z" fill="#3A506B"/>
<path d="M98.8417 59.1671L113.111 50.0716C116.235 48.0829 120.38 49.8034 121.181 53.4145L124.84 69.9358L97.9868 97.99L98.8417 59.1671Z" fill="#3A506B"/>
<path d="M71.141 69.9372L74.8004 53.4165C75.5993 49.8013 79.7504 48.0819 82.8716 50.0733L97.1411 59.1676L97.9922 97.9922L71.141 69.9372Z" fill="#3A506B"/>
<path d="M59.1672 97.1427L50.0717 82.8736C48.0831 79.7498 49.8035 75.604 53.4147 74.803L69.936 71.1447L97.9901 97.9976L59.1672 97.1427Z" fill="#3A506B"/>
<path d="M73.0872 121.829L58.4191 118.579C55.2106 117.869 53.6841 114.184 55.4508 111.413L63.5251 98.7436L97.9906 97.9882L73.0872 121.829Z" fill="#3A506B"/>
<path d="M97.2375 132.46L84.5697 140.532C81.8001 142.297 78.1149 140.774 77.4031 137.563L74.1529 122.899L97.9922 97.992L97.2375 132.46Z" fill="#3A506B"/>
<path d="M121.829 122.897L118.579 137.565C117.869 140.774 114.184 142.3 111.413 140.533L98.7437 132.459L97.9883 97.9936L121.829 122.897Z" fill="#3A506B"/>
<path d="M132.46 98.7468L140.532 111.415C142.297 114.184 140.774 117.869 137.563 118.581L122.899 121.831L97.992 97.9921L132.46 98.7468Z" fill="#3A506B"/>
<path d="M122.897 74.1553L137.565 77.4047C140.774 78.1148 142.3 81.8 140.533 84.5709L132.459 97.2405L97.9936 97.9959L122.897 74.1553Z" fill="#3A506B"/>
<path d="M98.7469 63.5236L111.415 55.4523C114.184 53.687 117.869 55.2103 118.581 58.4208L121.831 73.0855L97.9922 97.9921L98.7469 63.5236Z" fill="#3A506B"/>
<path d="M74.1554 73.0872L77.4047 58.4191C78.1149 55.2106 81.8 53.6841 84.5709 55.4507L97.2405 63.525L97.9959 97.9906L74.1554 73.0872Z" fill="#3A506B"/>
<path d="M63.5237 97.2374L55.4524 84.5697C53.6871 81.8 55.2104 78.1148 58.4209 77.403L73.0857 74.1529L97.9922 97.9921L63.5237 97.2374Z" fill="#3A506B"/>
<path d="M104.981 95.0972C103.383 91.2373 98.9573 89.4043 95.0973 91.0031C91.2374 92.602 89.4044 97.0272 91.0032 100.887C92.6021 104.747 97.0273 106.58 100.887 104.981C104.747 103.382 106.58 98.9572 104.981 95.0972Z" fill="#2876D5"/>
</svg>
