<svg width="196" height="196" viewBox="0 0 196 196" fill="none" xmlns="http://www.w3.org/2000/svg">
<g filter="url(#filter0_d_22_635)">
<path d="M57.7883 136.476L34.1093 131.23C28.9286 130.082 26.4659 124.137 29.3179 119.662L42.3517 99.2086L97.9923 97.9922L57.7883 136.476Z" fill="#3A506B"/>
<path d="M96.7735 153.635L76.3214 166.668C71.8489 169.518 65.9022 167.054 64.7546 161.877L59.5082 138.2L97.9922 97.9921L96.7735 153.635Z" fill="#3A506B"/>
<path d="M136.476 138.196L131.23 161.875C130.082 167.056 124.137 169.519 119.662 166.667L99.2086 153.633L97.9922 97.9922L136.476 138.196Z" fill="#2876D5"/>
<path d="M153.635 99.2108L166.668 119.663C169.518 124.135 167.054 130.082 161.877 131.23L138.2 136.476L97.9922 97.9922L153.635 99.2108Z" fill="#2876D5"/>
<path d="M138.196 59.5084L161.875 64.7548C167.056 65.9023 169.519 71.8478 166.667 76.3224L153.633 96.7758L97.9924 97.9922L138.196 59.5084Z" fill="#3A506B"/>
<path d="M99.2109 42.349L119.663 29.3164C124.135 26.4668 130.082 28.93 131.23 34.1075L136.476 57.7847L97.9922 97.9922L99.2109 42.349Z" fill="#3A506B"/>
<path d="M59.5086 57.7881L64.755 34.1091C65.9024 28.9284 71.8479 26.4657 76.3226 29.3177L96.7759 42.3515L97.9923 97.9921L59.5086 57.7881Z" fill="#2876D5"/>
<path d="M42.3529 96.7719L29.3203 76.3198C26.4707 71.8473 28.934 65.9006 34.1114 64.753L57.7887 59.5066L97.9961 97.9906L42.3529 96.7719Z" fill="#2876D5"/>
<path d="M67.7514 126.94L49.9392 122.994C46.0445 122.131 44.1911 117.656 46.3344 114.292L56.1396 98.9066L97.9922 97.9922L67.7514 126.94Z" stroke="#FFFAB6" stroke-miterlimit="10"/>
<path d="M97.0752 139.845L81.6924 149.65C78.3259 151.794 73.855 149.942 72.9901 146.046L69.0459 128.235L97.9922 97.9923L97.0752 139.845Z" stroke="#FFFAB6" stroke-miterlimit="10"/>
<path d="M126.94 128.233L122.994 146.045C122.131 149.94 117.656 151.793 114.292 149.65L98.9066 139.845L97.9922 97.9922L126.94 128.233Z" stroke="#FFFAB6" stroke-miterlimit="10"/>
<path d="M139.845 98.9093L149.65 114.292C151.794 117.659 149.942 122.13 146.046 122.994L128.235 126.939L97.9922 97.9923L139.845 98.9093Z" stroke="#FFFAB6" stroke-miterlimit="10"/>
<path d="M128.233 69.0445L146.045 72.99C149.94 73.8536 151.793 78.3281 149.65 81.6927L139.845 97.0778L97.9922 97.9921L128.233 69.0445Z" stroke="#FFFAB6" stroke-miterlimit="10"/>
<path d="M98.9092 56.139L114.292 46.334C117.658 44.1907 122.129 46.0426 122.994 49.9386L126.938 67.7491L97.9922 97.9922L98.9092 56.139Z" stroke="#FFFAB6" stroke-miterlimit="10"/>
<path d="M69.0446 67.7514L72.9901 49.9392C73.8537 46.0446 78.3282 44.1911 81.6928 46.3344L97.0779 56.1397L97.9922 97.9922L69.0446 67.7514Z" stroke="#FFFAB6" stroke-miterlimit="10"/>
<path d="M56.139 97.0752L46.3341 81.6924C44.1907 78.3259 46.0427 73.8549 49.9387 72.99L67.7491 69.0459L97.9922 97.9922L56.139 97.0752Z" stroke="#FFFAB6" stroke-miterlimit="10"/>
<path d="M69.9374 124.843L53.4166 121.184C49.8014 120.385 48.082 116.234 50.0735 113.113L59.1678 98.8434L97.9923 97.9922L69.9374 124.843Z" fill="#3A506B"/>
<path d="M97.1428 136.817L82.8736 145.913C79.7499 147.901 75.6041 146.181 74.803 142.57L71.1447 126.049L97.9976 97.9944L97.1428 136.817Z" fill="#3A506B"/>
<path d="M124.843 126.047L121.184 142.568C120.385 146.183 116.234 147.903 113.113 145.911L98.8434 136.817L97.9922 97.9923L124.843 126.047Z" fill="#3A506B"/>
<path d="M136.818 98.8418L145.913 113.111C147.902 116.235 146.181 120.38 142.57 121.182L126.049 124.84L97.9946 97.9869L136.818 98.8418Z" fill="#3A506B"/>
<path d="M126.047 71.141L142.568 74.8004C146.183 75.5993 147.903 79.7504 145.911 82.8716L136.817 97.1411L97.9924 97.9922L126.047 71.141Z" fill="#3A506B"/>
<path d="M98.8417 59.1671L113.111 50.0716C116.235 48.0829 120.38 49.8034 121.181 53.4145L124.84 69.9358L97.9868 97.99L98.8417 59.1671Z" fill="#3A506B"/>
<path d="M71.141 69.9372L74.8004 53.4165C75.5993 49.8013 79.7504 48.0819 82.8716 50.0733L97.1411 59.1676L97.9922 97.9922L71.141 69.9372Z" fill="#3A506B"/>
<path d="M59.1672 97.1427L50.0717 82.8736C48.0831 79.7498 49.8035 75.604 53.4147 74.803L69.936 71.1447L97.9901 97.9976L59.1672 97.1427Z" fill="#3A506B"/>
<path d="M73.0872 121.829L58.4191 118.579C55.2106 117.869 53.6841 114.184 55.4508 111.413L63.5251 98.7434L97.9906 97.988L73.0872 121.829Z" fill="#3A506B"/>
<path d="M97.2375 132.46L84.5697 140.532C81.8001 142.297 78.1149 140.774 77.4031 137.563L74.1529 122.898L97.9922 97.9917L97.2375 132.46Z" fill="#3A506B"/>
<path d="M121.829 122.897L118.579 137.565C117.869 140.773 114.184 142.3 111.413 140.533L98.7437 132.459L97.9883 97.9934L121.829 122.897Z" fill="#3A506B"/>
<path d="M132.46 98.7466L140.532 111.414C142.297 114.184 140.774 117.869 137.563 118.581L122.899 121.831L97.992 97.9919L132.46 98.7466Z" fill="#3A506B"/>
<path d="M122.897 74.1551L137.565 77.4044C140.774 78.1146 142.3 81.7997 140.533 84.5707L132.459 97.2402L97.9936 97.9956L122.897 74.1551Z" fill="#3A506B"/>
<path d="M98.7469 63.5233L111.415 55.452C114.184 53.6868 117.869 55.21 118.581 58.4206L121.831 73.0853L97.9922 97.9918L98.7469 63.5233Z" fill="#3A506B"/>
<path d="M74.1554 73.087L77.4047 58.4188C78.1149 55.2103 81.8 53.6839 84.5709 55.4505L97.2405 63.5248L97.9959 97.9903L74.1554 73.087Z" fill="#3A506B"/>
<path d="M63.5237 97.2372L55.4524 84.5694C53.6871 81.7998 55.2104 78.1146 58.4209 77.4028L73.0857 74.1526L97.9922 97.9919L63.5237 97.2372Z" fill="#3A506B"/>
<path d="M104.981 95.0971C103.382 91.2371 98.957 89.4041 95.0971 91.003C91.2371 92.6018 89.4041 97.0271 91.003 100.887C92.6018 104.747 97.0271 106.58 100.887 104.981C104.747 103.382 106.58 98.957 104.981 95.0971Z" fill="#2876D5"/>
</g>
<defs>
<filter id="filter0_d_22_635" x="-4" y="0" width="203.984" height="203.984" filterUnits="userSpaceOnUse" color-interpolation-filters="sRGB">
<feFlood flood-opacity="0" result="BackgroundImageFix"/>
<feColorMatrix in="SourceAlpha" type="matrix" values="0 0 0 0 0 0 0 0 0 0 0 0 0 0 0 0 0 0 127 0" result="hardAlpha"/>
<feOffset dy="4"/>
<feGaussianBlur stdDeviation="2"/>
<feComposite in2="hardAlpha" operator="out"/>
<feColorMatrix type="matrix" values="0 0 0 0 0 0 0 0 0 0 0 0 0 0 0 0 0 0 0.25 0"/>
<feBlend mode="normal" in2="BackgroundImageFix" result="effect1_dropShadow_22_635"/>
<feBlend mode="normal" in="SourceGraphic" in2="effect1_dropShadow_22_635" result="shape"/>
</filter>
</defs>
</svg>
