<svg width="196" height="196" viewBox="0 0 196 196" fill="none" xmlns="http://www.w3.org/2000/svg">
<path d="M57.7883 136.476L34.1093 131.23C28.9286 130.082 26.4659 124.137 29.3179 119.662L42.3517 99.2086L97.9923 97.9922L57.7883 136.476Z" fill="#2876D5"/>
<path d="M96.7735 153.635L76.3214 166.668C71.8489 169.518 65.9022 167.054 64.7546 161.877L59.5082 138.2L97.9922 97.9921L96.7735 153.635Z" fill="#2876D5"/>
<path d="M136.476 138.196L131.23 161.875C130.082 167.056 124.137 169.519 119.662 166.667L99.2086 153.633L97.9922 97.9922L136.476 138.196Z" fill="#2876D5"/>
<path d="M153.635 99.2108L166.668 119.663C169.518 124.135 167.054 130.082 161.877 131.23L138.2 136.476L97.9922 97.9922L153.635 99.2108Z" fill="#2876D5"/>
<path d="M138.196 59.5084L161.875 64.7548C167.056 65.9023 169.519 71.8478 166.667 76.3224L153.633 96.7758L97.9924 97.9922L138.196 59.5084Z" fill="#3A506B"/>
<path d="M99.2109 42.349L119.663 29.3164C124.135 26.4668 130.082 28.93 131.23 34.1075L136.476 57.7847L97.9922 97.9922L99.2109 42.349Z" fill="#3A506B"/>
<path d="M59.5086 57.7881L64.755 34.1091C65.9024 28.9284 71.8479 26.4657 76.3226 29.3177L96.7759 42.3515L97.9923 97.9921L59.5086 57.7881Z" fill="#3A506B"/>
<path d="M42.3529 96.7719L29.3203 76.3198C26.4707 71.8473 28.934 65.9006 34.1114 64.753L57.7887 59.5066L97.9961 97.9906L42.3529 96.7719Z" fill="#3A506B"/>
<path d="M67.7517 126.94L49.9394 122.994C46.0448 122.131 44.1914 117.656 46.3347 114.292L56.1399 98.9065L97.9924 97.9921L67.7517 126.94Z" stroke="#FFFAB6" stroke-miterlimit="10"/>
<path d="M97.0755 139.845L81.6926 149.65C78.3262 151.794 73.8552 149.942 72.9903 146.046L69.0462 128.235L97.9925 97.9921L97.0755 139.845Z" stroke="#FFFAB6" stroke-miterlimit="10"/>
<path d="M126.94 128.233L122.995 146.045C122.131 149.94 117.656 151.793 114.292 149.65L98.9068 139.845L97.9924 97.9921L126.94 128.233Z" stroke="#FFFAB6" stroke-miterlimit="10"/>
<path d="M139.846 98.9091L149.651 114.292C151.794 117.658 149.942 122.129 146.046 122.994L128.236 126.938L97.9924 97.9921L139.846 98.9091Z" stroke="#FFFAB6" stroke-miterlimit="10"/>
<path d="M128.233 69.0443L146.045 72.9899C149.94 73.8535 151.794 78.328 149.65 81.6926L139.845 97.0776L97.9925 97.992L128.233 69.0443Z" stroke="#FFFAB6" stroke-miterlimit="10"/>
<path d="M98.9094 56.1389L114.292 46.3339C117.659 44.1906 122.13 46.0425 122.995 49.9385L126.939 67.749L97.9924 97.9921L98.9094 56.1389Z" stroke="#FFFAB6" stroke-miterlimit="10"/>
<path d="M69.0448 67.7513L72.9904 49.9391C73.8539 46.0444 78.3285 44.191 81.693 46.3343L97.0781 56.1395L97.9925 97.9921L69.0448 67.7513Z" stroke="#FFFAB6" stroke-miterlimit="10"/>
<path d="M56.1393 97.0751L46.3343 81.6922C44.191 78.3258 46.0429 73.8548 49.9389 72.9899L67.7494 69.0458L97.9925 97.9921L56.1393 97.0751Z" stroke="#FFFAB6" stroke-miterlimit="10"/>
<path d="M69.9374 124.843L53.4166 121.184C49.8014 120.385 48.082 116.234 50.0735 113.113L59.1678 98.8434L97.9923 97.9922L69.9374 124.843Z" fill="#3A506B"/>
<path d="M97.1428 136.817L82.8736 145.913C79.7499 147.901 75.6041 146.181 74.803 142.57L71.1447 126.049L97.9976 97.9944L97.1428 136.817Z" fill="#3A506B"/>
<path d="M124.843 126.047L121.184 142.568C120.385 146.183 116.234 147.903 113.113 145.911L98.8434 136.817L97.9922 97.9923L124.843 126.047Z" fill="#3A506B"/>
<path d="M136.818 98.8418L145.913 113.111C147.902 116.235 146.181 120.38 142.57 121.182L126.049 124.84L97.9946 97.9869L136.818 98.8418Z" fill="#3A506B"/>
<path d="M126.047 71.141L142.568 74.8004C146.183 75.5993 147.903 79.7504 145.911 82.8716L136.817 97.1411L97.9924 97.9922L126.047 71.141Z" fill="#3A506B"/>
<path d="M98.8417 59.1671L113.111 50.0716C116.235 48.0829 120.38 49.8034 121.181 53.4145L124.84 69.9358L97.9868 97.99L98.8417 59.1671Z" fill="#3A506B"/>
<path d="M71.141 69.9372L74.8004 53.4165C75.5993 49.8013 79.7504 48.0819 82.8716 50.0733L97.1411 59.1676L97.9922 97.9922L71.141 69.9372Z" fill="#3A506B"/>
<path d="M59.1672 97.1427L50.0717 82.8736C48.0831 79.7498 49.8035 75.604 53.4147 74.803L69.936 71.1447L97.9901 97.9976L59.1672 97.1427Z" fill="#3A506B"/>
<path d="M73.0875 121.829L58.4193 118.579C55.2108 117.869 53.6844 114.184 55.451 111.413L63.5253 98.7436L97.9908 97.9882L73.0875 121.829Z" fill="#3A506B"/>
<path d="M97.2377 132.46L84.57 140.532C81.8003 142.297 78.1151 140.774 77.4033 137.563L74.1532 122.899L97.9924 97.992L97.2377 132.46Z" fill="#3A506B"/>
<path d="M121.829 122.897L118.58 137.565C117.87 140.774 114.184 142.3 111.413 140.533L98.7439 132.459L97.9885 97.9936L121.829 122.897Z" fill="#3A506B"/>
<path d="M132.461 98.7468L140.532 111.415C142.297 114.184 140.774 117.869 137.564 118.581L122.899 121.831L97.9923 97.9921L132.461 98.7468Z" fill="#3A506B"/>
<path d="M122.897 74.1553L137.565 77.4047C140.774 78.1148 142.3 81.8 140.534 84.5709L132.459 97.2405L97.9939 97.9959L122.897 74.1553Z" fill="#3A506B"/>
<path d="M98.7471 63.5236L111.415 55.4523C114.185 53.687 117.87 55.2103 118.581 58.4208L121.832 73.0855L97.9924 97.9921L98.7471 63.5236Z" fill="#3A506B"/>
<path d="M74.1556 73.0872L77.405 58.4191C78.1151 55.2106 81.8003 53.6841 84.5712 55.4507L97.2407 63.525L97.9961 97.9906L74.1556 73.0872Z" fill="#3A506B"/>
<path d="M63.524 97.2374L55.4527 84.5697C53.6874 81.8 55.2106 78.1148 58.4212 77.403L73.0859 74.1529L97.9924 97.9921L63.524 97.2374Z" fill="#3A506B"/>
<path d="M104.981 95.0972C103.383 91.2373 98.9573 89.4043 95.0973 91.0031C91.2374 92.602 89.4044 97.0272 91.0032 100.887C92.6021 104.747 97.0273 106.58 100.887 104.981C104.747 103.382 106.58 98.9572 104.981 95.0972Z" fill="#2876D5"/>
<path d="M57.7883 136.476L34.1093 131.23C28.9286 130.082 26.4659 124.137 29.3179 119.662L42.3517 99.2086L97.9923 97.9922L57.7883 136.476Z" fill="#3A506B"/>
<path d="M96.7735 153.635L76.3214 166.668C71.8489 169.518 65.9022 167.054 64.7546 161.877L59.5082 138.2L97.9922 97.9921L96.7735 153.635Z" fill="#3A506B"/>
<path d="M136.476 138.196L131.23 161.875C130.082 167.056 124.137 169.519 119.662 166.667L99.2086 153.633L97.9922 97.9922L136.476 138.196Z" fill="#2876D5"/>
<path d="M153.635 99.2108L166.668 119.663C169.518 124.135 167.054 130.082 161.877 131.23L138.2 136.476L97.9922 97.9922L153.635 99.2108Z" fill="#3A506B"/>
<path d="M138.196 59.5084L161.875 64.7548C167.056 65.9023 169.519 71.8478 166.667 76.3224L153.633 96.7758L97.9924 97.9922L138.196 59.5084Z" fill="#2876D5"/>
<path d="M99.2109 42.349L119.663 29.3164C124.135 26.4668 130.082 28.93 131.23 34.1075L136.476 57.7847L97.9922 97.9922L99.2109 42.349Z" fill="#2876D5"/>
<path d="M59.5086 57.7881L64.755 34.1091C65.9024 28.9284 71.8479 26.4657 76.3226 29.3177L96.7759 42.3515L97.9923 97.9921L59.5086 57.7881Z" fill="#2876D5"/>
<path d="M42.3529 96.7719L29.3203 76.3198C26.4707 71.8473 28.934 65.9006 34.1114 64.753L57.7887 59.5066L97.9961 97.9906L42.3529 96.7719Z" fill="#3A506B"/>
<path d="M67.7517 126.94L49.9394 122.994C46.0448 122.131 44.1914 117.656 46.3347 114.292L56.1399 98.9065L97.9924 97.9921L67.7517 126.94Z" stroke="#FFFAB6" stroke-miterlimit="10"/>
<path d="M97.0755 139.845L81.6926 149.65C78.3262 151.794 73.8552 149.942 72.9903 146.046L69.0462 128.235L97.9925 97.9921L97.0755 139.845Z" stroke="#FFFAB6" stroke-miterlimit="10"/>
<path d="M126.94 128.233L122.995 146.045C122.131 149.94 117.656 151.793 114.292 149.65L98.9068 139.845L97.9924 97.9921L126.94 128.233Z" stroke="#FFFAB6" stroke-miterlimit="10"/>
<path d="M139.846 98.9091L149.651 114.292C151.794 117.658 149.942 122.129 146.046 122.994L128.236 126.938L97.9924 97.9921L139.846 98.9091Z" stroke="#FFFAB6" stroke-miterlimit="10"/>
<path d="M128.233 69.0443L146.045 72.9899C149.94 73.8535 151.794 78.328 149.65 81.6926L139.845 97.0776L97.9925 97.992L128.233 69.0443Z" stroke="#FFFAB6" stroke-miterlimit="10"/>
<path d="M98.9094 56.1389L114.292 46.3339C117.659 44.1906 122.13 46.0425 122.995 49.9385L126.939 67.749L97.9924 97.9921L98.9094 56.1389Z" stroke="#FFFAB6" stroke-miterlimit="10"/>
<path d="M69.0448 67.7513L72.9904 49.9391C73.8539 46.0444 78.3285 44.191 81.693 46.3343L97.0781 56.1395L97.9925 97.9921L69.0448 67.7513Z" stroke="#FFFAB6" stroke-miterlimit="10"/>
<path d="M56.1393 97.0751L46.3343 81.6922C44.191 78.3258 46.0429 73.8548 49.9389 72.9899L67.7494 69.0458L97.9925 97.9921L56.1393 97.0751Z" stroke="#FFFAB6" stroke-miterlimit="10"/>
<path d="M69.9374 124.843L53.4166 121.184C49.8014 120.385 48.082 116.234 50.0735 113.113L59.1678 98.8434L97.9923 97.9922L69.9374 124.843Z" fill="#3A506B"/>
<path d="M97.1428 136.817L82.8736 145.913C79.7499 147.901 75.6041 146.181 74.803 142.57L71.1447 126.049L97.9976 97.9944L97.1428 136.817Z" fill="#3A506B"/>
<path d="M124.843 126.047L121.184 142.568C120.385 146.183 116.234 147.903 113.113 145.911L98.8434 136.817L97.9922 97.9923L124.843 126.047Z" fill="#3A506B"/>
<path d="M136.818 98.8418L145.913 113.111C147.902 116.235 146.181 120.38 142.57 121.182L126.049 124.84L97.9946 97.9869L136.818 98.8418Z" fill="#3A506B"/>
<path d="M126.047 71.141L142.568 74.8004C146.183 75.5993 147.903 79.7504 145.911 82.8716L136.817 97.1411L97.9924 97.9922L126.047 71.141Z" fill="#3A506B"/>
<path d="M98.8417 59.1671L113.111 50.0716C116.235 48.0829 120.38 49.8034 121.181 53.4145L124.84 69.9358L97.9868 97.99L98.8417 59.1671Z" fill="#3A506B"/>
<path d="M71.141 69.9372L74.8004 53.4165C75.5993 49.8013 79.7504 48.0819 82.8716 50.0733L97.1411 59.1676L97.9922 97.9922L71.141 69.9372Z" fill="#3A506B"/>
<path d="M59.1672 97.1427L50.0717 82.8736C48.0831 79.7498 49.8035 75.604 53.4147 74.803L69.936 71.1447L97.9901 97.9976L59.1672 97.1427Z" fill="#3A506B"/>
<path d="M73.0875 121.829L58.4193 118.579C55.2108 117.869 53.6844 114.184 55.451 111.413L63.5253 98.7436L97.9908 97.9882L73.0875 121.829Z" fill="#3A506B"/>
<path d="M97.2377 132.46L84.57 140.532C81.8003 142.297 78.1151 140.774 77.4033 137.563L74.1532 122.899L97.9924 97.992L97.2377 132.46Z" fill="#3A506B"/>
<path d="M121.829 122.897L118.58 137.565C117.87 140.774 114.184 142.3 111.413 140.533L98.7439 132.459L97.9885 97.9936L121.829 122.897Z" fill="#3A506B"/>
<path d="M132.461 98.7468L140.532 111.415C142.297 114.184 140.774 117.869 137.564 118.581L122.899 121.831L97.9923 97.9921L132.461 98.7468Z" fill="#3A506B"/>
<path d="M122.897 74.1553L137.565 77.4047C140.774 78.1148 142.3 81.8 140.534 84.5709L132.459 97.2405L97.9939 97.9959L122.897 74.1553Z" fill="#3A506B"/>
<path d="M98.7471 63.5236L111.415 55.4523C114.185 53.687 117.87 55.2103 118.581 58.4208L121.832 73.0855L97.9924 97.9921L98.7471 63.5236Z" fill="#3A506B"/>
<path d="M74.1556 73.0872L77.405 58.4191C78.1151 55.2106 81.8003 53.6841 84.5712 55.4507L97.2407 63.525L97.9961 97.9906L74.1556 73.0872Z" fill="#3A506B"/>
<path d="M63.524 97.2374L55.4527 84.5697C53.6874 81.8 55.2106 78.1148 58.4212 77.403L73.0859 74.1529L97.9924 97.9921L63.524 97.2374Z" fill="#3A506B"/>
<path d="M104.981 95.0972C103.383 91.2373 98.9573 89.4043 95.0973 91.0031C91.2374 92.602 89.4044 97.0272 91.0032 100.887C92.6021 104.747 97.0273 106.58 100.887 104.981C104.747 103.382 106.58 98.9572 104.981 95.0972Z" fill="#2876D5"/>
</svg>
