<svg width="675" height="675" viewBox="0 0 675 675" fill="none" xmlns="http://www.w3.org/2000/svg">
<rect x="7.04787" width="269.57" height="269.57" transform="matrix(0.704787 -0.709419 0.704787 0.709419 2.08062 203.332)" stroke="black" stroke-width="10"/>
<rect x="7.04787" width="269.57" height="269.57" transform="matrix(0.704787 -0.709419 0.704787 0.709419 283.006 203.332)" stroke="black" stroke-width="10"/>
<rect x="7.04787" width="101.828" height="101.828" transform="matrix(0.704787 -0.709419 0.704787 0.709419 120.934 200.312)" fill="#FDF0BC" stroke="black" stroke-width="10"/>
<rect x="7.04787" width="101.828" height="101.828" transform="matrix(0.704787 -0.709419 0.704787 0.709419 401.86 200.312)" fill="#FDF0BC" stroke="black" stroke-width="10"/>
<rect x="7.04787" width="269.57" height="269.57" transform="matrix(0.704787 -0.709419 0.704787 0.709419 2.08062 481.668)" stroke="black" stroke-width="10"/>
<rect x="7.04787" width="269.57" height="269.57" transform="matrix(0.704787 -0.709419 0.704787 0.709419 283.006 481.668)" stroke="black" stroke-width="10"/>
<rect x="0.704787" width="110.828" height="110.828" transform="matrix(0.704787 -0.709419 0.704787 0.709419 119.062 474.148)" fill="#FDF0BC" stroke="black"/>
<rect x="7.04787" width="101.828" height="101.828" transform="matrix(0.704787 -0.709419 0.704787 0.709419 401.86 478.648)" fill="#FDF0BC" stroke="black" stroke-width="10"/>
<rect x="249" y="296" width="230" height="230" fill="#A8C7ED"/>
<path d="M358.45 423.659V423.339C358.485 419.948 358.84 417.249 359.515 415.243C360.19 413.237 361.148 411.612 362.391 410.369C363.634 409.126 365.126 407.981 366.866 406.933C367.913 406.294 368.854 405.539 369.689 404.669C370.523 403.782 371.18 402.761 371.66 401.607C372.157 400.452 372.406 399.174 372.406 397.771C372.406 396.031 371.997 394.522 371.18 393.244C370.364 391.965 369.272 390.98 367.905 390.287C366.537 389.595 365.019 389.249 363.35 389.249C361.894 389.249 360.492 389.55 359.142 390.154C357.793 390.758 356.665 391.708 355.76 393.004C354.854 394.3 354.33 395.996 354.188 398.091H347.477C347.619 395.072 348.4 392.489 349.82 390.341C351.259 388.192 353.15 386.55 355.493 385.413C357.855 384.277 360.474 383.709 363.35 383.709C366.475 383.709 369.192 384.33 371.5 385.573C373.826 386.816 375.619 388.521 376.88 390.687C378.158 392.853 378.798 395.321 378.798 398.091C378.798 400.044 378.496 401.811 377.892 403.391C377.306 404.971 376.454 406.383 375.335 407.626C374.234 408.869 372.903 409.969 371.34 410.928C369.778 411.905 368.526 412.935 367.585 414.018C366.644 415.083 365.96 416.353 365.534 417.826C365.108 419.3 364.877 421.138 364.842 423.339V423.659H358.45ZM361.859 439.426C360.545 439.426 359.417 438.956 358.476 438.015C357.535 437.074 357.065 435.946 357.065 434.632C357.065 433.318 357.535 432.191 358.476 431.25C359.417 430.309 360.545 429.838 361.859 429.838C363.173 429.838 364.3 430.309 365.241 431.25C366.182 432.191 366.653 433.318 366.653 434.632C366.653 435.502 366.431 436.301 365.987 437.029C365.561 437.757 364.984 438.343 364.256 438.787C363.545 439.213 362.746 439.426 361.859 439.426Z" fill="white"/>
</svg>
