<svg width="230" height="230" viewBox="0 0 230 230" fill="none" xmlns="http://www.w3.org/2000/svg">
<g clip-path="url(#clip0_98_842)">
<path d="M-35.9622 -274.906L-225.952 -83.668L-35.9622 107.57L154.027 -83.6679L-35.9622 -274.906Z" stroke="black" stroke-width="10"/>
<path d="M244.963 -274.906L54.9736 -83.668L244.963 107.57L434.952 -83.6679L244.963 -274.906Z" stroke="black" stroke-width="10"/>
<path d="M-35.9622 3.4299L-225.952 194.668L-35.9622 385.906L154.027 194.668L-35.9622 3.4299Z" stroke="black" stroke-width="10"/>
<path d="M244.963 3.4299L54.9736 194.668L244.963 385.906L434.952 194.668L244.963 3.4299Z" stroke="black" stroke-width="10"/>
<path d="M-35.3313 113.024L-113.441 191.648L-35.3313 270.271L42.7789 191.648L-35.3313 113.024Z" fill="#FDF0BC" stroke="black"/>
<path d="M245.594 119.409L173.827 191.648L245.594 263.887L317.361 191.648L245.594 119.409Z" fill="#FDF0BC" stroke="black" stroke-width="10"/>
</g>
<defs>
<clipPath id="clip0_98_842">
<rect width="230" height="230" fill="white"/>
</clipPath>
</defs>
</svg>
