<svg width="153" height="148" viewBox="0 0 153 148" fill="none" xmlns="http://www.w3.org/2000/svg">
<path d="M153 74C153 33.1309 118.75 0 76.5 0C34.2502 0 0 33.1309 0 74C0 114.869 34.2502 148 76.5 148C118.75 148 153 114.869 153 74Z" fill="#2876D5"/>
<path d="M153 74C153 33.1309 118.75 0 76.5 0C34.2502 0 0 33.1309 0 74C0 114.869 34.2502 148 76.5 148C118.75 148 153 114.869 153 74Z" fill="#2876D5"/>
<path d="M61 75H92V106L61 75Z" fill="#050A0A"/>
<path d="M61 43L92 75H61V43Z" fill="#050A0A"/>
</svg>
