<svg width="153" height="148" viewBox="0 0 153 148" fill="none" xmlns="http://www.w3.org/2000/svg">
<path d="M153 74C153 33.1309 118.75 0 76.5 0C34.2502 0 0 33.1309 0 74C0 114.869 34.2502 148 76.5 148C118.75 148 153 114.869 153 74Z" fill="#2876D5"/>
<path d="M153 74C153 33.1309 118.75 0 76.5 0C34.2502 0 0 33.1309 0 74C0 114.869 34.2502 148 76.5 148C118.75 148 153 114.869 153 74Z" fill="#2876D5"/>
<path d="M76 105L45 73.5L76 42V105Z" fill="#050A0A"/>
<path d="M76 105V74H107L76 105Z" fill="#050A0A"/>
<path d="M76 43L107 75H76V43Z" fill="#050A0A"/>
</svg>
