<svg width="680" height="680" viewBox="0 0 680 680" fill="none" xmlns="http://www.w3.org/2000/svg">
<path d="M208 137C208 96.1309 173.75 63 131.5 63C89.2502 63 55 96.1309 55 137C55 177.869 89.2502 211 131.5 211C173.75 211 208 177.869 208 137Z" fill="#2876D5"/>
<path d="M132 168L101 136.5L132 105V168Z" fill="#050A0A"/>
<path d="M163 137V168H132L163 137Z" fill="#050A0A"/>
<path d="M163 137L132 105H163V137Z" fill="#050A0A"/>
<path d="M208 340C208 299.131 173.75 266 131.5 266C89.2502 266 55 299.131 55 340C55 380.869 89.2502 414 131.5 414C173.75 414 208 380.869 208 340Z" fill="#2876D5"/>
<path d="M102 336L133.5 305L165 336H102Z" fill="#050A0A"/>
<path d="M133 367H102V336L133 367Z" fill="#050A0A"/>
<path d="M133 367L165 336V367H133Z" fill="#050A0A"/>
<path d="M624 137C624 96.1309 589.75 63 547.5 63C505.25 63 471 96.1309 471 137C471 177.869 505.25 211 547.5 211C589.75 211 624 177.869 624 137Z" fill="#2876D5"/>
<path d="M549 105L580 136.5L549 168V105Z" fill="#050A0A"/>
<path d="M518 136V105H549L518 136Z" fill="#050A0A"/>
<path d="M518 136L549 168H518V136Z" fill="#050A0A"/>
<path d="M416 543C416 502.131 381.75 469 339.5 469C297.25 469 263 502.131 263 543C263 583.869 297.25 617 339.5 617C381.75 617 416 583.869 416 543Z" fill="#2876D5"/>
<path d="M311 543L342.5 512L374 543H311Z" fill="#050A0A"/>
<path d="M342 574H311V543L342 574Z" fill="#050A0A"/>
<path d="M342 574L374 543V574H342Z" fill="#050A0A"/>
<path d="M624 340C624 299.131 589.75 266 547.5 266C505.25 266 471 299.131 471 340C471 380.869 505.25 414 547.5 414C589.75 414 624 380.869 624 340Z" fill="#2876D5"/>
<path d="M579 340L547.5 371L516 340H579Z" fill="#050A0A"/>
<path d="M548 309H579V340L548 309Z" fill="#050A0A"/>
<path d="M548 309L516 340V309H548Z" fill="#050A0A"/>
<path d="M416 340C416 299.131 381.75 266 339.5 266C297.25 266 263 299.131 263 340C263 380.869 297.25 414 339.5 414C381.75 414 416 380.869 416 340Z" fill="#2876D5"/>
<path d="M340 371L309 339.5L340 308V371Z" fill="#050A0A"/>
<path d="M371 340V371H340L371 340Z" fill="#050A0A"/>
<path d="M371 340L340 308H371V340Z" fill="#050A0A"/>
<path d="M208 543C208 502.131 173.75 469 131.5 469C89.2502 469 55 502.131 55 543C55 583.869 89.2502 617 131.5 617C173.75 617 208 583.869 208 543Z" fill="#2876D5"/>
<path d="M140 511L171 542.5L140 574V511Z" fill="#050A0A"/>
<path d="M109 542V511H140L109 542Z" fill="#050A0A"/>
<path d="M109 542L140 574H109V542Z" fill="#050A0A"/>
<path d="M416 137C416 96.1309 381.75 63 339.5 63C297.25 63 263 96.1309 263 137C263 177.869 297.25 211 339.5 211C381.75 211 416 177.869 416 137Z" fill="#2876D5"/>
<path d="M373 137L341.5 168L310 137H373Z" fill="#050A0A"/>
<path d="M342 106H373V137L342 106Z" fill="#050A0A"/>
<path d="M342 106L310 137V106H342Z" fill="#050A0A"/>
<path d="M475.144 469H616.856C619.066 469 621 470.934 621 473.144V614.856C621 617.066 619.066 619 616.856 619H475.144C472.934 619 471 617.066 471 614.856V473.144C471.276 470.934 472.934 469 475.144 469Z" stroke="#3A506B" stroke-width="6" stroke-miterlimit="10"/>
<path d="M539.266 559.545V559.119C539.314 554.598 539.787 550.999 540.687 548.324C541.586 545.649 542.865 543.482 544.522 541.825C546.179 540.168 548.168 538.641 550.488 537.244C551.885 536.392 553.139 535.386 554.252 534.226C555.365 533.042 556.241 531.681 556.88 530.142C557.543 528.603 557.874 526.899 557.874 525.028C557.874 522.708 557.33 520.696 556.241 518.991C555.152 517.287 553.696 515.973 551.873 515.05C550.05 514.126 548.026 513.665 545.8 513.665C543.859 513.665 541.989 514.067 540.189 514.872C538.39 515.677 536.887 516.944 535.68 518.672C534.472 520.4 533.774 522.661 533.584 525.455H524.635C524.825 521.43 525.867 517.985 527.76 515.121C529.678 512.256 532.199 510.066 535.324 508.551C538.473 507.036 541.965 506.278 545.8 506.278C549.967 506.278 553.589 507.107 556.667 508.764C559.768 510.421 562.159 512.694 563.84 515.582C565.545 518.471 566.397 521.761 566.397 525.455C566.397 528.059 565.994 530.414 565.189 532.521C564.408 534.628 563.272 536.51 561.78 538.168C560.313 539.825 558.537 541.293 556.454 542.571C554.37 543.873 552.701 545.246 551.447 546.69C550.192 548.111 549.28 549.804 548.712 551.768C548.144 553.733 547.836 556.184 547.789 559.119V559.545H539.266ZM543.812 580.568C542.06 580.568 540.556 579.941 539.302 578.686C538.047 577.431 537.42 575.928 537.42 574.176C537.42 572.424 538.047 570.921 539.302 569.666C540.556 568.411 542.06 567.784 543.812 567.784C545.564 567.784 547.067 568.411 548.322 569.666C549.576 570.921 550.204 572.424 550.204 574.176C550.204 575.336 549.908 576.402 549.316 577.372C548.748 578.343 547.978 579.124 547.008 579.716C546.061 580.284 544.995 580.568 543.812 580.568Z" fill="#3A506B"/>
<path d="M32.9558 15H647.044C656.621 15 665 23.3794 665 32.9558V647.044C665 656.621 656.621 665 647.044 665H32.9558C23.3794 665 15 656.621 15 647.044V32.9558C16.1971 23.3794 23.3794 15 32.9558 15Z" stroke="#3A506B" stroke-width="30" stroke-miterlimit="10"/>
</svg>
