<svg width="123" height="142" viewBox="0 0 123 142" fill="none" xmlns="http://www.w3.org/2000/svg">
<path d="M61.2 0.499817L61.2 70.6998L0.5 105.8L0.5 35.5998L61.2 0.499817Z" fill="#4F5D75" stroke="#B8B8B8" stroke-miterlimit="10" stroke-linejoin="round"/>
<path d="M61.2 0.499817L61.2 70.6998L122 105.8V35.5998L61.2 0.499817Z" fill="#4F5D75" stroke="#B8B8B8" stroke-miterlimit="10" stroke-linejoin="round"/>
<path d="M25.3 91.4998L25.3 49.9998L61.2 29.1998L97.2 49.9998L97.2 91.4998L61.2 112.3L25.3 91.4998Z" fill="#7ED6E1"/>
<path d="M0.5 105.8L0.5 35.5999L61.2 0.499939L122 35.5999L122 105.8L61.2 140.9L0.5 105.8Z" stroke="#B8B8B8" stroke-miterlimit="10" stroke-linejoin="round"/>
<path d="M0.5 35.6002L61.2 70.7002L122 35.6002L61.2 0.500183L0.5 35.6002Z" fill="#2D3142" stroke="#B8B8B8" stroke-miterlimit="10" stroke-linejoin="round"/>
<path d="M61.2 70.7L61.2 140.9L122 105.8L122 35.5999L61.2 70.7Z" stroke="#B8B8B8" stroke-miterlimit="10" stroke-linecap="round" stroke-linejoin="round"/>
</svg>
