<svg width="123" height="142" viewBox="0 0 123 142" fill="none" xmlns="http://www.w3.org/2000/svg">
<path d="M61.3 140.9L61.3 70.7001L122 35.6001L122 105.8L61.3 140.9Z" fill="#4F5D75" stroke="#B8B8B8" stroke-miterlimit="10" stroke-linejoin="round"/>
<path d="M61.3 140.9L61.3 70.7001L0.500046 35.6001L0.500046 105.8L61.3 140.9Z" fill="#4F5D75" stroke="#B8B8B8" stroke-miterlimit="10" stroke-linejoin="round"/>
<path d="M97.2 49.9001L97.2 91.4001L61.3 112.2L25.3 91.4001L25.3 49.9001L61.3 29.1001L97.2 49.9001Z" fill="#7ED6E1"/>
<path d="M122 35.6L122 105.8L61.3 140.9L0.5 105.8L0.5 35.6L61.3 0.5L122 35.6Z" stroke="#B8B8B8" stroke-miterlimit="10" stroke-linejoin="round"/>
<path d="M122 105.8L61.3 70.6997L0.5 105.8L61.3 140.9L122 105.8Z" fill="#2D3142" stroke="#B8B8B8" stroke-miterlimit="10" stroke-linejoin="round"/>
<path d="M61.3 70.7L61.3 0.5L0.500046 35.6L0.500046 105.8L61.3 70.7Z" stroke="#B8B8B8" stroke-miterlimit="10" stroke-linecap="round" stroke-linejoin="round"/>
</svg>
