<svg width="80" height="100" viewBox="0 0 80 100" fill="none" xmlns="http://www.w3.org/2000/svg">
<path d="M23.7236 87.0837C19.4626 86.2179 16.2557 82.4502 16.2557 77.9336C16.2557 72.7768 20.4361 68.5964 25.5929 68.5964H35.0508M23.7236 87.0837C24.3276 87.2064 24.9527 87.2709 25.5929 87.2709H26.9839V91.7416C25.3944 91.4436 21.9176 91.384 20.7255 93.5297C19.5334 95.6755 19.5003 97.404 19.6328 98H51.3067M23.7236 87.0837L17.7453 88.7614C16.4737 89.3177 12.1448 95.5827 10.158 98C10.158 98 5.48671 98 2.7264 98C2.30174 92.1907 5.85661 92.1911 8.1083 90.1381L7.57686 57.2542C7.57686 52.9579 7.57686 52.7764 7.57686 51.7182C7.57686 50.6599 9.60781 40.5873 10.158 39.9141C11.7635 28.8458 1.93161 34.9127 2.24728 27.8665C0.852663 26.2811 5.70216 19.2591 8.1083 16.6412C7.21295 14.4328 8.79748 5.96022 9.70165 2L18.2172 10.6856C18.2581 10.6851 18.2991 10.6848 18.3402 10.6848C19.7675 10.6848 21.1689 10.8788 22.5093 11.2428C22.8459 7.60789 23.9338 0.815982 25.5929 2.72756C27.2521 4.63914 31.0972 15.1673 32.8123 20.1924C33.4099 21.7113 33.7398 23.3565 33.7398 25.085C33.7398 29.3235 34.6603 34.6584 33.0254 38.7904H33.1428C49.8216 38.7904 63.3425 51.6077 63.3425 67.4187C63.3425 75.5431 57.0408 85.4319 51.3067 90.6426V98M51.3067 98C59.9741 97.8027 73.7603 96.086 76.9997 77C79.5902 61.7368 70.3652 59.05 62.3581 42.1089C51.9995 20.1924 65.4994 18.3665 75.9996 27.8665" stroke="#21C5D9" stroke-width="4" stroke-linecap="round" stroke-linejoin="round"/>
</svg>
