<svg width="81" height="100" viewBox="0 0 81 100" fill="none" xmlns="http://www.w3.org/2000/svg">
<path d="M7.57697 57.2542L8.10841 90.1381C5.85672 92.1911 2.30185 92.1907 2.72652 98M7.57697 57.2542C7.57697 52.9579 7.57697 52.7764 7.57697 51.7182M7.57697 57.2542V51.7182M2.72652 98C5.48683 98 10.1581 98 10.1581 98M2.72652 98H10.1581M10.1581 98C12.1449 95.5828 16.4737 89.3177 17.7453 88.7614L23.7237 87.0837M23.7237 87.0837C19.4626 86.2179 16.2557 82.4503 16.2557 77.9336C16.2557 72.7768 20.4362 68.5964 25.593 68.5964H35.0509M23.7237 87.0837C24.3276 87.2064 24.9528 87.2709 25.593 87.2709H26.9839V91.7416C25.3945 91.4436 21.9176 91.384 20.7255 93.5297C19.5335 95.6755 19.5004 97.404 19.6328 98H51.3068M7.57697 51.7182C7.57697 50.6599 9.60793 40.5873 10.1581 39.9141C11.7636 28.8458 1.93173 34.9127 2.24739 27.8665C0.852777 26.2811 5.70228 19.2591 8.10841 16.6412C7.21306 14.4328 8.79759 5.96022 9.70177 2L18.2173 10.6856C18.2582 10.6851 18.2992 10.6848 18.3402 10.6848C19.7676 10.6848 21.1689 10.8788 22.5094 11.2428C22.8459 7.60789 23.9338 0.815979 25.593 2.72756C27.2521 4.63914 31.0973 15.1673 32.8124 20.1924C33.41 21.7113 33.7398 23.3565 33.7398 25.085C33.7398 29.3235 34.6603 34.6584 33.0255 38.7904H33.1429C49.8217 38.7904 63.3426 51.6078 63.3426 67.4187C63.3426 75.5431 57.0408 85.4319 51.3068 90.6426V98M51.3068 98C59.9742 97.8027 74.9435 96.0182 78.1828 76.9322C80.7733 61.669 44.6023 31.2385 52.4997 14.4929C64.9977 -12.0078 83.9952 25.1927 64.4973 20.1924" stroke="#21C5D9" stroke-width="4" stroke-linecap="round" stroke-linejoin="round"/>
</svg>
