<svg width="78" height="111" viewBox="0 0 78 111" fill="none" xmlns="http://www.w3.org/2000/svg">
<path d="M23.7238 97.7295C19.4627 96.8637 16.2558 93.0961 16.2558 88.5794C16.2558 83.4226 20.4363 79.2422 25.5931 79.2422H35.051M23.7238 97.7295C24.3277 97.8523 24.9529 97.9167 25.5931 97.9167H26.984V102.387C25.3946 102.089 21.9177 102.03 20.7256 104.176C19.5336 106.321 19.5005 108.05 19.6329 108.646H51.3069M23.7238 97.7295L17.7454 99.4073C16.4738 99.9636 12.1449 106.229 10.1582 108.646C10.1582 108.646 5.48685 108.646 2.72654 108.646C2.30188 102.836 5.85675 102.837 8.10844 100.784L7.577 67.9C7.577 63.6037 7.577 63.4222 7.577 62.364C7.577 61.3058 9.60795 51.2332 10.1582 50.5599C11.7636 39.4917 1.93175 45.5586 2.24741 38.5123C0.8528 36.927 5.7023 29.9049 8.10844 27.287C7.21308 25.0786 9.25398 6.10573 10.1582 2.14551L18.2174 21.3315C18.2583 21.3309 18.2992 21.3306 18.3403 21.3306C19.7677 21.3306 21.169 21.5247 22.5095 21.8886C22.846 18.2537 23.9339 0.233868 25.5931 2.14545C27.2522 4.05703 31.0973 25.8131 32.8125 30.8382C33.4101 32.3572 33.7399 34.0023 33.7399 35.7308C33.7399 39.9693 34.6604 45.3042 33.0256 49.4363H33.1429C49.8218 49.4363 63.3427 62.2536 63.3427 78.0645C63.3427 86.1889 57.0409 96.0777 51.3069 101.288V108.646M51.3069 108.646C59.9743 108.449 71.9428 107.665 75.1822 88.5794C77.7727 73.3162 73.6323 66.78 60.5406 53.6883C54.5279 47.6757 49.1369 38.7955 57.1887 30.8382" stroke="#21C5D9" stroke-width="4" stroke-linecap="round" stroke-linejoin="round"/>
</svg>
