<svg width="78" height="100" viewBox="0 0 78 100" fill="none" xmlns="http://www.w3.org/2000/svg">
<path d="M23.7238 87.0837C19.4627 86.2179 16.2558 82.4502 16.2558 77.9336C16.2558 72.7768 20.4363 68.5964 25.5931 68.5964H54.5L23.7238 88.7614M23.7238 87.0837C24.3277 87.2064 25.3585 87.2709 25.9987 87.2709L26.5 86.9424V91.5C24.9106 91.202 16.6921 87.9924 15.5 90.1381C14.3079 92.2838 19.5005 97.404 19.6329 98H51.3069M23.7238 87.0837L17.7454 88.7614C16.4738 89.3177 12.1449 95.5827 10.1582 98C10.1582 98 5.48685 98 2.72654 98C2.30188 92.1907 5.85675 92.1911 8.10844 90.1381L7.577 57.2542C7.577 52.9579 7.577 52.7764 7.577 51.7182C7.577 50.6599 9.60795 40.5873 10.1582 39.9141C11.7636 28.8458 1.93175 34.9127 2.24741 27.8665C0.8528 26.2811 5.7023 19.2591 8.10844 16.6412C7.21308 14.4328 8.79761 5.96022 9.70179 2L18.2174 10.6856C18.2583 10.6851 18.2992 10.6848 18.3403 10.6848C19.7677 10.6848 21.169 10.8788 22.5095 11.2428C22.846 7.60789 23.9339 0.815982 25.5931 2.72756C27.2522 4.63914 31.0973 15.1673 32.8125 20.1924C33.4101 21.7113 33.7399 23.3565 33.7399 25.085C33.7399 29.3235 34.6604 34.6584 33.0256 38.7904H33.1429C49.8218 38.7904 63.3427 51.6077 63.3427 67.4187C63.3427 75.5431 57.0409 85.4319 51.3069 90.6426V98M51.3069 98C59.9743 97.8027 71.9428 97.0196 75.1822 77.9336C77.7727 62.6704 73.6323 56.1342 60.5406 43.0425C54.5279 37.0298 49.1369 28.1496 57.1887 20.1924" stroke="#21C5D9" stroke-width="4" stroke-linecap="round" stroke-linejoin="round"/>
</svg>
