<svg width="230" height="230" viewBox="0 0 230 230" fill="none" xmlns="http://www.w3.org/2000/svg">
<g clip-path="url(#clip0_98_846)">
<path d="M-64.9622 -270.906L-254.952 -79.668L-64.9622 111.57L125.027 -79.6679L-64.9622 -270.906Z" stroke="black" stroke-width="10"/>
<path d="M215.963 -270.906L25.9736 -79.668L215.963 111.57L405.952 -79.6679L215.963 -270.906Z" stroke="black" stroke-width="10"/>
<path d="M-64.9622 7.4299L-254.952 198.668L-64.9622 389.906L125.027 198.668L-64.9622 7.4299Z" stroke="black" stroke-width="10"/>
<path d="M215.963 7.4299L25.9736 198.668L215.963 389.906L405.952 198.668L215.963 7.4299Z" stroke="black" stroke-width="10"/>
<path d="M-64.331 117.024L-142.441 195.648L-64.331 274.271L13.7791 195.648L-64.331 117.024Z" fill="#FDF0BC" stroke="black"/>
<path d="M216.594 123.409L144.827 195.648L216.594 267.887L288.361 195.648L216.594 123.409Z" fill="#FDF0BC" stroke="black" stroke-width="10"/>
</g>
<defs>
<clipPath id="clip0_98_846">
<rect width="230" height="230" fill="white"/>
</clipPath>
</defs>
</svg>
