<svg width="230" height="230" viewBox="0 0 230 230" fill="none" xmlns="http://www.w3.org/2000/svg">
<g clip-path="url(#clip0_98_843)">
<path d="M-31.9622 -302.906L-221.952 -111.668L-31.9622 79.5701L158.027 -111.668L-31.9622 -302.906Z" stroke="black" stroke-width="10"/>
<path d="M248.963 -302.906L58.9736 -111.668L248.963 79.5701L438.952 -111.668L248.963 -302.906Z" stroke="black" stroke-width="10"/>
<path d="M-31.9622 -24.5701L-221.952 166.668L-31.9622 357.906L158.027 166.668L-31.9622 -24.5701Z" stroke="black" stroke-width="10"/>
<path d="M248.963 -24.5701L58.9736 166.668L248.963 357.906L438.952 166.668L248.963 -24.5701Z" stroke="black" stroke-width="10"/>
<path d="M-31.3313 85.0245L-109.441 163.648L-31.3313 242.271L46.7789 163.648L-31.3313 85.0245Z" fill="#FDF0BC" stroke="black"/>
<path d="M249.594 91.4092L177.827 163.648L249.594 235.887L321.361 163.648L249.594 91.4092Z" fill="#FDF0BC" stroke="black" stroke-width="10"/>
</g>
<defs>
<clipPath id="clip0_98_843">
<rect width="230" height="230" fill="white"/>
</clipPath>
</defs>
</svg>
