<svg width="230" height="230" viewBox="0 0 230 230" fill="none" xmlns="http://www.w3.org/2000/svg">
<g clip-path="url(#clip0_98_913)">
<path d="M1.56622 54.4541L-5.51625 19L-12.5987 54.4541L-38.9033 64L-12.5987 73.5459L-5.51625 109L1.56622 73.5459L27.8709 64L1.56622 54.4541Z" fill="black"/>
<path d="M83.516 19L90.5985 54.4541L116.903 64L90.5985 73.5459L83.516 109L76.4336 73.5459L50.1289 64L76.4336 54.4541L83.516 19Z" fill="black"/>
<path d="M179.631 54.4541L172.548 19L165.466 54.4541L139.161 64L165.466 73.5459L172.548 109L179.631 73.5459L205.935 64L179.631 54.4541Z" fill="black"/>
<path d="M261.581 19L268.663 54.4541L294.968 64L268.663 73.5459L261.581 109L254.498 73.5459L228.194 64L254.498 54.4541L261.581 19Z" fill="black"/>
<path d="M1.56622 174.454L-5.51625 139L-12.5987 174.454L-38.9033 184L-12.5987 193.546L-5.51625 229L1.56622 193.546L27.8709 184L1.56622 174.454Z" fill="black"/>
<path d="M83.516 139L90.5985 174.454L116.903 184L90.5985 193.546L83.516 229L76.4336 193.546L50.1289 184L76.4336 174.454L83.516 139Z" fill="black"/>
<path d="M179.631 174.454L172.548 139L165.466 174.454L139.161 184L165.466 193.546L172.548 229L179.631 193.546L205.935 184L179.631 174.454Z" fill="black"/>
<path d="M261.581 139L268.663 174.454L294.968 184L268.663 193.546L261.581 229L254.498 193.546L228.194 184L254.498 174.454L261.581 139Z" fill="black"/>
</g>
<defs>
<clipPath id="clip0_98_913">
<rect width="230" height="230" fill="white"/>
</clipPath>
</defs>
</svg>
