<svg width="230" height="230" viewBox="0 0 230 230" fill="none" xmlns="http://www.w3.org/2000/svg">
<g clip-path="url(#clip0_98_962)">
<path d="M-18.5484 -29L-11.4659 6.45406L14.8387 16L-11.4659 25.5459L-18.5484 61L-25.6308 25.5459L-51.9355 16L-25.6308 6.45406L-18.5484 -29Z" fill="black"/>
<path d="M77.5662 6.45406L70.4838 -29L63.4013 6.45406L37.0967 16L63.4013 25.5459L70.4838 61L77.5662 25.5459L103.871 16L77.5662 6.45406Z" fill="black"/>
<path d="M159.516 -29L166.599 6.45406L192.903 16L166.599 25.5459L159.516 61L152.434 25.5459L126.129 16L152.434 6.45406L159.516 -29Z" fill="black"/>
<path d="M255.631 6.45406L248.548 -29L241.466 6.45406L215.161 16L241.466 25.5459L248.548 61L255.631 25.5459L281.935 16L255.631 6.45406Z" fill="black"/>
<path d="M-18.5484 91L-11.4659 126.454L14.8387 136L-11.4659 145.546L-18.5484 181L-25.6308 145.546L-51.9355 136L-25.6308 126.454L-18.5484 91Z" fill="black"/>
<path d="M77.5662 126.454L70.4838 91L63.4013 126.454L37.0967 136L63.4013 145.546L70.4838 181L77.5662 145.546L103.871 136L77.5662 126.454Z" fill="black"/>
<path d="M159.516 91L166.599 126.454L192.903 136L166.599 145.546L159.516 181L152.434 145.546L126.129 136L152.434 126.454L159.516 91Z" fill="black"/>
<path d="M255.631 126.454L248.548 91L241.466 126.454L215.161 136L241.466 145.546L248.548 181L255.631 145.546L281.935 136L255.631 126.454Z" fill="black"/>
<path d="M-18.5484 211L-11.4659 246.454L14.8387 256L-11.4659 265.546L-18.5484 301L-25.6308 265.546L-51.9355 256L-25.6308 246.454L-18.5484 211Z" fill="black"/>
<path d="M77.5662 246.454L70.4838 211L63.4013 246.454L37.0967 256L63.4013 265.546L70.4838 301L77.5662 265.546L103.871 256L77.5662 246.454Z" fill="black"/>
<path d="M159.516 211L166.599 246.454L192.903 256L166.599 265.546L159.516 301L152.434 265.546L126.129 256L152.434 246.454L159.516 211Z" fill="black"/>
<path d="M255.631 246.454L248.548 211L241.466 246.454L215.161 256L241.466 265.546L248.548 301L255.631 265.546L281.935 256L255.631 246.454Z" fill="black"/>
</g>
<defs>
<clipPath id="clip0_98_962">
<rect width="230" height="230" fill="white"/>
</clipPath>
</defs>
</svg>
