<svg width="230" height="230" viewBox="0 0 230 230" fill="none" xmlns="http://www.w3.org/2000/svg">
<g clip-path="url(#clip0_98_1060)">
<path d="M27.5162 0L34.5987 35.4541L60.9033 45L34.5987 54.5459L27.5162 90L20.4338 54.5459L-5.87085 45L20.4338 35.4541L27.5162 0Z" fill="black"/>
<path d="M123.631 35.4541L116.548 0L109.466 35.4541L83.1614 45L109.466 54.5459L116.548 90L123.631 54.5459L149.935 45L123.631 35.4541Z" fill="black"/>
<path d="M205.581 0L212.663 35.4541L238.968 45L212.663 54.5459L205.581 90L198.498 54.5459L172.194 45L198.498 35.4541L205.581 0Z" fill="black"/>
<path d="M27.5162 120L34.5987 155.454L60.9033 165L34.5987 174.546L27.5162 210L20.4338 174.546L-5.87085 165L20.4338 155.454L27.5162 120Z" fill="black"/>
<path d="M123.631 155.454L116.548 120L109.466 155.454L83.1614 165L109.466 174.546L116.548 210L123.631 174.546L149.935 165L123.631 155.454Z" fill="black"/>
<path d="M205.581 120L212.663 155.454L238.968 165L212.663 174.546L205.581 210L198.498 174.546L172.194 165L198.498 155.454L205.581 120Z" fill="black"/>
</g>
<defs>
<clipPath id="clip0_98_1060">
<rect width="230" height="230" fill="white"/>
</clipPath>
</defs>
</svg>
