<svg width="230" height="230" viewBox="0 0 230 230" fill="none" xmlns="http://www.w3.org/2000/svg">
<g clip-path="url(#clip0_98_864)">
<path d="M43.5662 55.4541L36.4838 20L29.4013 55.4541L3.09668 65L29.4013 74.5459L36.4838 110L43.5662 74.5459L69.8709 65L43.5662 55.4541Z" fill="black"/>
<path d="M125.516 20L132.599 55.4541L158.903 65L132.599 74.5459L125.516 110L118.434 74.5459L92.1289 65L118.434 55.4541L125.516 20Z" fill="black"/>
<path d="M221.631 55.4541L214.548 20L207.466 55.4541L181.161 65L207.466 74.5459L214.548 110L221.631 74.5459L247.935 65L221.631 55.4541Z" fill="black"/>
<path d="M43.5662 175.454L36.4838 140L29.4013 175.454L3.09668 185L29.4013 194.546L36.4838 230L43.5662 194.546L69.8709 185L43.5662 175.454Z" fill="black"/>
<path d="M125.516 140L132.599 175.454L158.903 185L132.599 194.546L125.516 230L118.434 194.546L92.1289 185L118.434 175.454L125.516 140Z" fill="black"/>
<path d="M221.631 175.454L214.548 140L207.466 175.454L181.161 185L207.466 194.546L214.548 230L221.631 194.546L247.935 185L221.631 175.454Z" fill="black"/>
</g>
<defs>
<clipPath id="clip0_98_864">
<rect width="230" height="230" fill="white"/>
</clipPath>
</defs>
</svg>
