<svg width="690" height="690" viewBox="0 0 690 690" fill="none" xmlns="http://www.w3.org/2000/svg">
<path d="M40.4696 35.4541L33.3871 0L26.3046 35.4541L0 45L26.3046 54.5459L33.3871 90L40.4696 54.5459L66.7742 45L40.4696 35.4541Z" fill="black"/>
<path d="M129.502 35.4541L122.419 0L115.337 35.4541L89.0323 45L115.337 54.5459L122.419 90L129.502 54.5459L155.806 45L129.502 35.4541Z" fill="black"/>
<path d="M211.452 0L218.534 35.4541L244.839 45L218.534 54.5459L211.452 90L204.369 54.5459L178.065 45L204.369 35.4541L211.452 0Z" fill="black"/>
<path d="M307.566 35.4541L300.484 0L293.401 35.4541L267.097 45L293.401 54.5459L300.484 90L307.566 54.5459L333.871 45L307.566 35.4541Z" fill="black"/>
<path d="M389.516 0L396.599 35.4541L422.903 45L396.599 54.5459L389.516 90L382.434 54.5459L356.129 45L382.434 35.4541L389.516 0Z" fill="black"/>
<path d="M485.631 35.4541L478.548 0L471.466 35.4541L445.161 45L471.466 54.5459L478.548 90L485.631 54.5459L511.935 45L485.631 35.4541Z" fill="black"/>
<path d="M567.581 0L574.663 35.4541L600.968 45L574.663 54.5459L567.581 90L560.498 54.5459L534.194 45L560.498 35.4541L567.581 0Z" fill="black"/>
<path d="M663.695 35.4541L656.613 0L649.53 35.4541L623.226 45L649.53 54.5459L656.613 90L663.695 54.5459L690 45L663.695 35.4541Z" fill="black"/>
<path d="M33.3871 120L40.4696 155.454L66.7742 165L40.4696 174.546L33.3871 210L26.3046 174.546L0 165L26.3046 155.454L33.3871 120Z" fill="black"/>
<path d="M129.502 155.454L122.419 120L115.337 155.454L89.0323 165L115.337 174.546L122.419 210L129.502 174.546L155.806 165L129.502 155.454Z" fill="black"/>
<path d="M211.452 120L218.534 155.454L244.839 165L218.534 174.546L211.452 210L204.369 174.546L178.065 165L204.369 155.454L211.452 120Z" fill="black"/>
<path d="M307.566 155.454L300.484 120L293.401 155.454L267.097 165L293.401 174.546L300.484 210L307.566 174.546L333.871 165L307.566 155.454Z" fill="black"/>
<path d="M389.516 120L396.599 155.454L422.903 165L396.599 174.546L389.516 210L382.434 174.546L356.129 165L382.434 155.454L389.516 120Z" fill="black"/>
<path d="M485.631 155.454L478.548 120L471.466 155.454L445.161 165L471.466 174.546L478.548 210L485.631 174.546L511.935 165L485.631 155.454Z" fill="black"/>
<path d="M567.581 120L574.663 155.454L600.968 165L574.663 174.546L567.581 210L560.498 174.546L534.194 165L560.498 155.454L567.581 120Z" fill="black"/>
<path d="M663.695 155.454L656.613 120L649.53 155.454L623.226 165L649.53 174.546L656.613 210L663.695 174.546L690 165L663.695 155.454Z" fill="black"/>
<path d="M33.3871 240L40.4696 275.454L66.7742 285L40.4696 294.546L33.3871 330L26.3046 294.546L0 285L26.3046 275.454L33.3871 240Z" fill="black"/>
<path d="M129.502 275.454L122.419 240L115.337 275.454L89.0323 285L115.337 294.546L122.419 330L129.502 294.546L155.806 285L129.502 275.454Z" fill="black"/>
<path d="M211.452 240L218.534 275.454L244.839 285L218.534 294.546L211.452 330L204.369 294.546L178.065 285L204.369 275.454L211.452 240Z" fill="black"/>
<path d="M307.566 275.454L300.484 240L293.401 275.454L267.097 285L293.401 294.546L300.484 330L307.566 294.546L333.871 285L307.566 275.454Z" fill="black"/>
<path d="M389.516 240L396.599 275.454L422.903 285L396.599 294.546L389.516 330L382.434 294.546L356.129 285L382.434 275.454L389.516 240Z" fill="black"/>
<path d="M485.631 275.454L478.548 240L471.466 275.454L445.161 285L471.466 294.546L478.548 330L485.631 294.546L511.935 285L485.631 275.454Z" fill="black"/>
<path d="M567.581 240L574.663 275.454L600.968 285L574.663 294.546L567.581 330L560.498 294.546L534.194 285L560.498 275.454L567.581 240Z" fill="black"/>
<path d="M663.695 275.454L656.613 240L649.53 275.454L623.226 285L649.53 294.546L656.613 330L663.695 294.546L690 285L663.695 275.454Z" fill="black"/>
<path d="M33.3871 360L40.4696 395.454L66.7742 405L40.4696 414.546L33.3871 450L26.3046 414.546L0 405L26.3046 395.454L33.3871 360Z" fill="black"/>
<path d="M129.502 395.454L122.419 360L115.337 395.454L89.0323 405L115.337 414.546L122.419 450L129.502 414.546L155.806 405L129.502 395.454Z" fill="black"/>
<path d="M211.452 360L218.534 395.454L244.839 405L218.534 414.546L211.452 450L204.369 414.546L178.065 405L204.369 395.454L211.452 360Z" fill="black"/>
<path d="M307.566 395.454L300.484 360L293.401 395.454L267.097 405L293.401 414.546L300.484 450L307.566 414.546L333.871 405L307.566 395.454Z" fill="black"/>
<path d="M389.516 360L396.599 395.454L422.903 405L396.599 414.546L389.516 450L382.434 414.546L356.129 405L382.434 395.454L389.516 360Z" fill="black"/>
<path d="M485.631 395.454L478.548 360L471.466 395.454L445.161 405L471.466 414.546L478.548 450L485.631 414.546L511.935 405L485.631 395.454Z" fill="black"/>
<path d="M567.581 360L574.663 395.454L600.968 405L574.663 414.546L567.581 450L560.498 414.546L534.194 405L560.498 395.454L567.581 360Z" fill="black"/>
<path d="M663.695 395.454L656.613 360L649.53 395.454L623.226 405L649.53 414.546L656.613 450L663.695 414.546L690 405L663.695 395.454Z" fill="black"/>
<path d="M33.3871 480L40.4696 515.454L66.7742 525L40.4696 534.546L33.3871 570L26.3046 534.546L0 525L26.3046 515.454L33.3871 480Z" fill="black"/>
<path d="M129.502 515.454L122.419 480L115.337 515.454L89.0323 525L115.337 534.546L122.419 570L129.502 534.546L155.806 525L129.502 515.454Z" fill="black"/>
<path d="M211.452 480L218.534 515.454L244.839 525L218.534 534.546L211.452 570L204.369 534.546L178.065 525L204.369 515.454L211.452 480Z" fill="black"/>
<path d="M307.566 515.454L300.484 480L293.401 515.454L267.097 525L293.401 534.546L300.484 570L307.566 534.546L333.871 525L307.566 515.454Z" fill="black"/>
<path d="M389.516 480L396.599 515.454L422.903 525L396.599 534.546L389.516 570L382.434 534.546L356.129 525L382.434 515.454L389.516 480Z" fill="black"/>
<path d="M485.631 515.454L478.548 480L471.466 515.454L445.161 525L471.466 534.546L478.548 570L485.631 534.546L511.935 525L485.631 515.454Z" fill="black"/>
<path d="M567.581 480L574.663 515.454L600.968 525L574.663 534.546L567.581 570L560.498 534.546L534.194 525L560.498 515.454L567.581 480Z" fill="black"/>
<path d="M663.695 515.454L656.613 480L649.53 515.454L623.226 525L649.53 534.546L656.613 570L663.695 534.546L690 525L663.695 515.454Z" fill="black"/>
<path d="M33.3871 600L40.4696 635.454L66.7742 645L40.4696 654.546L33.3871 690L26.3046 654.546L0 645L26.3046 635.454L33.3871 600Z" fill="black"/>
<path d="M129.502 635.454L122.419 600L115.337 635.454L89.0323 645L115.337 654.546L122.419 690L129.502 654.546L155.806 645L129.502 635.454Z" fill="black"/>
<path d="M211.452 600L218.534 635.454L244.839 645L218.534 654.546L211.452 690L204.369 654.546L178.065 645L204.369 635.454L211.452 600Z" fill="black"/>
<path d="M307.566 635.454L300.484 600L293.401 635.454L267.097 645L293.401 654.546L300.484 690L307.566 654.546L333.871 645L307.566 635.454Z" fill="black"/>
<path d="M389.516 600L396.599 635.454L422.903 645L396.599 654.546L389.516 690L382.434 654.546L356.129 645L382.434 635.454L389.516 600Z" fill="black"/>
<path d="M485.631 635.454L478.548 600L471.466 635.454L445.161 645L471.466 654.546L478.548 690L485.631 654.546L511.935 645L485.631 635.454Z" fill="black"/>
<path d="M567.581 600L574.663 635.454L600.968 645L574.663 654.546L567.581 690L560.498 654.546L534.194 645L560.498 635.454L567.581 600Z" fill="black"/>
<path d="M663.695 635.454L656.613 600L649.53 635.454L623.226 645L649.53 654.546L656.613 690L663.695 654.546L690 645L663.695 635.454Z" fill="black"/>
<rect x="282" y="120" width="230" height="230" fill="#A8C7ED"/>
<path d="M391.45 247.659V247.339C391.485 243.948 391.84 241.249 392.515 239.243C393.19 237.237 394.148 235.612 395.391 234.369C396.634 233.126 398.126 231.981 399.866 230.933C400.913 230.294 401.854 229.539 402.689 228.669C403.523 227.782 404.18 226.761 404.66 225.607C405.157 224.452 405.406 223.174 405.406 221.771C405.406 220.031 404.997 218.522 404.18 217.244C403.364 215.965 402.272 214.98 400.905 214.287C399.537 213.595 398.019 213.249 396.35 213.249C394.894 213.249 393.492 213.55 392.142 214.154C390.793 214.758 389.665 215.708 388.76 217.004C387.854 218.3 387.33 219.996 387.188 222.091H380.477C380.619 219.072 381.4 216.489 382.82 214.341C384.259 212.192 386.15 210.55 388.493 209.413C390.855 208.277 393.474 207.709 396.35 207.709C399.475 207.709 402.192 208.33 404.5 209.573C406.826 210.816 408.619 212.521 409.88 214.687C411.158 216.853 411.798 219.321 411.798 222.091C411.798 224.044 411.496 225.811 410.892 227.391C410.306 228.971 409.454 230.383 408.335 231.626C407.234 232.869 405.903 233.969 404.34 234.928C402.778 235.905 401.526 236.935 400.585 238.018C399.644 239.083 398.96 240.353 398.534 241.826C398.108 243.3 397.877 245.138 397.842 247.339V247.659H391.45ZM394.859 263.426C393.545 263.426 392.417 262.956 391.476 262.015C390.535 261.074 390.065 259.946 390.065 258.632C390.065 257.318 390.535 256.191 391.476 255.25C392.417 254.309 393.545 253.838 394.859 253.838C396.173 253.838 397.3 254.309 398.241 255.25C399.182 256.191 399.653 257.318 399.653 258.632C399.653 259.502 399.431 260.301 398.987 261.029C398.561 261.757 397.984 262.343 397.256 262.787C396.545 263.213 395.746 263.426 394.859 263.426Z" fill="white"/>
</svg>
