<svg version="1.1" xmlns="http://www.w3.org/2000/svg" style="display: block;" viewBox="0 0 2048 1365" width="2000" height="1333" preserveAspectRatio="none">
<path transform="translate(0,0)" fill="rgb(218,230,253)" d="M 319.159 266.171 C 377.481 205.063 457.558 169.433 541.997 167.02 C 580.3 166.166 620.987 171.561 658.989 176.279 C 726.709 184.687 794.412 192.546 862.754 186.207 C 901.908 182.212 940.376 176.248 978.45 165.762 C 1028.13 152.079 1074.08 131.537 1124.87 120.782 C 1312.42 81.0699 1538.46 109.76 1682.92 244.76 C 1749 306.517 1776.81 393.172 1776.76 481.272 C 1776.81 489.774 1776.92 498.398 1776.91 506.903 C 1776.82 562.807 1769.28 619.688 1783.53 674.573 C 1790.57 701.689 1808.61 719.111 1825.78 739.77 C 1911.26 856.399 1879.56 1052.37 1784.04 1153.38 C 1730.88 1209.6 1663.55 1225.59 1589.88 1228.73 C 1570.34 1229.64 1545.59 1227.52 1526.9 1229.14 C 1484.77 1232.79 1442.72 1236.81 1400.49 1239.58 C 1383.29 1240.71 1364.68 1242.91 1347.59 1243.14 C 1331.38 1244.8 1301.05 1248.57 1285.98 1247.66 C 1197.08 1251.62 1108.23 1259.27 1019.04 1260.52 C 994.96 1260.86 969.839 1262.59 945.846 1262.39 C 937.347 1263.95 898.593 1264.79 890.253 1263.57 C 885.193 1264.09 880.678 1264.58 875.592 1264.66 C 823.341 1266.73 767.924 1264.22 715.464 1263.88 C 705.331 1263.81 694.841 1264.07 684.883 1262.23 C 669.58 1263.04 656.088 1260.34 638.961 1261.68 L 636.251 1261.1 C 629.633 1259.88 601.216 1259.34 592.501 1258.77 C 577.677 1257.89 559.216 1257.13 544.795 1255.07 C 544.358 1255.07 543.921 1255.07 543.484 1255.07 C 443.599 1244.77 308.815 1234.77 235.684 1159.52 C 140.449 1061.52 168.558 909.591 220.54 798.563 C 229.623 779.162 236.655 760.814 238.76 739.386 C 247.558 658.442 229.033 578.121 230.347 496.887 C 228.968 424.707 247.583 349.858 293.968 293.49 C 301.367 284.498 309.847 273.214 319.159 266.171 z"/>
<path transform="translate(0,0)" fill="rgb(218,230,253)" d="M 319.159 266.171 C 377.481 205.063 457.558 169.433 541.997 167.02 C 580.3 166.166 620.987 171.561 658.989 176.279 C 726.709 184.687 794.412 192.546 862.754 186.207 C 901.908 182.212 940.376 176.248 978.45 165.762 C 1028.13 152.079 1074.08 131.537 1124.87 120.782 C 1312.42 81.0699 1538.46 109.76 1682.92 244.76 C 1749 306.517 1776.81 393.172 1776.76 481.272 C 1776.81 489.774 1776.92 498.398 1776.91 506.903 C 1776.82 562.807 1769.28 619.688 1783.53 674.573 C 1790.57 701.689 1808.61 719.111 1825.78 739.77 C 1911.26 856.399 1879.56 1052.37 1784.04 1153.38 C 1730.88 1209.6 1663.55 1225.59 1589.88 1228.73 C 1570.34 1229.64 1545.59 1227.52 1526.9 1229.14 C 1484.77 1232.79 1442.72 1236.81 1400.49 1239.58 C 1383.29 1240.71 1364.68 1242.91 1347.59 1243.14 L 1347.53 891.741 L 1348.37 888.83 C 1355.72 885.535 1664.26 888.71 1702.76 887.541 C 1700.84 809.303 1703.87 727.369 1702.65 648.748 C 1701.7 587.962 1683.07 536.134 1638.88 493.069 C 1611.68 466.439 1577.81 447.64 1540.82 438.652 C 1510.72 431.331 1486.75 432.673 1456.14 432.702 L 1385.95 432.722 C 1319.73 432.693 1252.29 432.044 1186.17 433.001 C 1170.55 432.826 1154.11 432.295 1138.62 433.714 C 1089.93 438.173 1044.33 459.468 1009.66 493.932 C 1008.06 495.477 1006.49 497.048 1004.95 498.644 C 995.174 494.227 913.952 457.895 910.781 454.848 C 904.231 444.051 867.958 411.725 856.465 401.835 C 832.542 381.248 799.871 366.741 771.816 352.523 C 749.025 340.972 716.716 322.64 692.667 315.646 C 652.127 303.854 558.688 322.119 512.493 325.591 C 491.623 322.603 462.036 314.953 442.469 313.277 L 444.659 301.899 C 405.593 290.769 357.851 275.394 319.159 266.171 z"/>
<path transform="translate(0,0)" fill="rgb(253,103,100)" d="M 1186.17 433.001 C 1252.29 432.044 1319.73 432.693 1385.95 432.722 L 1456.14 432.702 C 1486.75 432.673 1510.72 431.331 1540.82 438.652 C 1577.81 447.64 1611.68 466.439 1638.88 493.069 C 1683.07 536.134 1701.7 587.962 1702.65 648.748 C 1703.87 727.369 1700.84 809.303 1702.76 887.541 C 1664.26 888.71 1355.72 885.535 1348.37 888.83 L 1347.53 891.741 L 1347.11 889.245 C 1343.38 886.592 1295.3 887.837 1286.77 887.894 C 1265.95 887.018 1238.96 887.757 1217.68 887.757 L 1083.63 887.757 L 684.29 887.831 L 684.198 863.055 L 946.791 862.958 L 969.403 863.069 C 969.361 849.858 967.566 790.097 969.931 781.315 C 977.795 784.925 1025.48 808.098 1030.66 808.745 L 1033.25 810.861 C 1037.73 812.147 1054.07 820.047 1058.77 822.23 L 1108.61 845.332 C 1134.43 791.603 1159.62 735.174 1184.71 680.926 L 1208.52 629.522 C 1211.39 623.333 1218.93 607.976 1220.77 602.095 L 1222.07 601.205 L 1221.94 599.639 C 1216.58 595.826 1175.92 577.799 1167.28 573.803 L 1028.07 509.455 L 1004.95 498.644 C 1006.49 497.048 1008.06 495.477 1009.66 493.932 C 1044.33 459.468 1089.93 438.173 1138.62 433.714 C 1154.11 432.295 1170.55 432.826 1186.17 433.001 z"/>
<path transform="translate(0,0)" fill="rgb(189,6,23)" d="M 1004.95 498.644 C 1006.49 497.048 1008.06 495.477 1009.66 493.932 C 1044.33 459.468 1089.93 438.173 1138.62 433.714 C 1154.11 432.295 1170.55 432.826 1186.17 433.001 C 1202.16 437.973 1215.23 439.794 1231.91 445.848 C 1281.3 463.97 1322.16 499.857 1346.5 546.496 C 1357.25 567.086 1364.5 589.32 1367.96 612.288 C 1371.65 636.759 1370.34 677.889 1370.34 704.317 L 1370.31 862.997 L 1347.76 863.081 L 969.403 863.069 C 969.361 849.858 967.566 790.097 969.931 781.315 C 977.795 784.925 1025.48 808.098 1030.66 808.745 L 1033.25 810.861 C 1037.73 812.147 1054.07 820.047 1058.77 822.23 L 1108.61 845.332 C 1134.43 791.603 1159.62 735.174 1184.71 680.926 L 1208.52 629.522 C 1211.39 623.333 1218.93 607.976 1220.77 602.095 L 1222.07 601.205 L 1221.94 599.639 C 1216.58 595.826 1175.92 577.799 1167.28 573.803 L 1028.07 509.455 L 1004.95 498.644 z"/>
<path transform="translate(0,0)" fill="rgb(227,59,59)" d="M 1004.95 498.644 C 1006.49 497.048 1008.06 495.477 1009.66 493.932 C 1044.33 459.468 1089.93 438.173 1138.62 433.714 C 1154.11 432.295 1170.55 432.826 1186.17 433.001 C 1202.16 437.973 1215.23 439.794 1231.91 445.848 C 1281.3 463.97 1322.16 499.857 1346.5 546.496 C 1357.25 567.086 1364.5 589.32 1367.96 612.288 C 1371.65 636.759 1370.34 677.889 1370.34 704.317 L 1370.31 862.997 L 1347.76 863.081 C 1346.87 795.82 1347.89 727.972 1347.7 660.647 C 1347.53 601.887 1335.81 557.003 1293.32 513.627 C 1258.23 477.893 1210.36 457.584 1160.28 457.179 C 1111.81 456.713 1062.82 475.459 1028.07 509.455 L 1004.95 498.644 z"/>
<path transform="translate(0,0)" fill="rgb(246,247,252)" d="M 512.493 325.591 C 558.688 322.119 652.127 303.854 692.667 315.646 C 716.716 322.64 749.025 340.972 771.816 352.523 C 799.871 366.741 832.542 381.248 856.465 401.835 C 867.958 411.725 904.231 444.051 910.781 454.848 C 913.952 457.895 995.174 494.227 1004.95 498.644 L 1028.07 509.455 L 1167.28 573.803 C 1175.92 577.799 1216.58 595.826 1221.94 599.639 L 1222.07 601.205 L 1220.77 602.095 C 1218.93 607.976 1211.39 623.333 1208.52 629.522 L 1184.71 680.926 C 1159.62 735.174 1134.43 791.603 1108.61 845.332 L 1058.77 822.23 C 1054.07 820.047 1037.73 812.147 1033.25 810.861 L 1030.66 808.745 C 1025.48 808.098 977.795 784.925 969.931 781.315 L 946.884 770.623 C 942.911 768.181 932.781 764.009 928.074 761.861 L 892.215 745.317 L 774.94 691.01 C 769.321 688.442 744.983 678.735 743.05 674.612 C 740.217 675.338 741.346 675.283 738.272 674.091 C 728.588 668.6 696.903 655.007 686.103 650.227 C 690.522 641.717 694.416 631.887 698.957 622.912 C 665.615 599.444 642.475 591.343 606.269 576.375 C 584.529 567.292 563.41 556.788 543.048 544.934 C 533.784 539.455 520.89 530.402 512.925 523.192 C 496.01 507.879 495.615 499.692 472.756 491.562 C 486.134 436.961 498.217 379.631 512.493 325.591 z"/>
<path transform="translate(0,0)" fill="rgb(251,164,145)" d="M 512.493 325.591 C 558.688 322.119 652.127 303.854 692.667 315.646 C 716.716 322.64 749.025 340.972 771.816 352.523 C 799.871 366.741 832.542 381.248 856.465 401.835 C 867.958 411.725 904.231 444.051 910.781 454.848 C 880.211 442.707 849.783 425.818 819.373 412.849 C 812.812 410.051 807.079 407.059 800.228 404.682 L 798.601 405.109 L 798.502 406.744 C 793.797 417.054 787.916 431.033 782.758 440.799 L 777.536 452.562 L 771.353 465.74 C 770.028 468.312 766.666 474.491 765.788 476.949 C 762.19 487.465 750.407 511.104 745.296 521.808 C 738.516 538.846 728.133 556.881 721.909 573.222 C 744.296 592.09 786.857 626.587 759.571 658.006 C 758.208 659.569 756.755 661.051 755.219 662.446 C 737.203 655.871 714.998 635.421 698.957 622.912 C 665.615 599.444 642.475 591.343 606.269 576.375 C 584.529 567.292 563.41 556.788 543.048 544.934 C 533.784 539.455 520.89 530.402 512.925 523.192 C 496.01 507.879 495.615 499.692 472.756 491.562 C 486.134 436.961 498.217 379.631 512.493 325.591 z"/>
<path transform="translate(0,0)" fill="rgb(218,230,253)" d="M 721.909 573.222 C 689.904 547.292 642.244 502.19 679.67 457.112 C 682.253 454.001 684.665 450.69 688.173 448.59 C 710.374 460.804 739.948 478.118 741.658 506.007 C 741.991 511.446 743.405 516.718 745.296 521.808 C 738.516 538.846 728.133 556.881 721.909 573.222 z"/>
<path transform="translate(0,0)" fill="rgb(253,103,100)" d="M 688.173 448.59 C 688.303 448.015 688.392 447.365 688.82 446.903 C 703.386 431.189 726.233 424.126 746.984 430.111 C 750.659 431.171 754.191 432.946 757.657 434.696 C 762.229 435.885 779.812 439.385 782.758 440.799 L 777.536 452.562 L 771.353 465.74 C 770.028 468.312 766.666 474.491 765.788 476.949 C 762.19 487.465 750.407 511.104 745.296 521.808 C 743.405 516.718 741.991 511.446 741.658 506.007 C 739.948 478.118 710.374 460.804 688.173 448.59 z"/>
<path transform="translate(0,0)" fill="rgb(218,230,253)" d="M 753.944 442.848 C 759.512 448.686 766.435 458.898 771.353 465.74 C 770.028 468.312 766.666 474.491 765.788 476.949 C 763.188 467.429 757.38 452.853 753.944 442.848 z"/>
<path transform="translate(0,0)" fill="rgb(231,143,125)" d="M 757.657 434.696 C 762.229 435.885 779.812 439.385 782.758 440.799 L 777.536 452.562 C 772.293 447.211 763.476 439.848 757.657 434.696 z"/>
<path transform="translate(0,0)" fill="rgb(246,247,252)" d="M 1220.77 602.095 C 1218.93 607.976 1211.39 623.333 1208.52 629.522 L 1184.71 680.926 C 1159.62 735.174 1134.43 791.603 1108.61 845.332 L 1058.77 822.23 C 1054.07 820.047 1037.73 812.147 1033.25 810.861 C 1032.24 802.258 1022.7 768.406 1020.24 758.976 L 989.844 642.561 C 1014.15 639.097 1042.8 633.338 1067.42 629.014 L 1220.77 602.095 z"/>
<path transform="translate(0,0)" fill="rgb(246,247,252)" d="M 798.502 406.744 C 837.157 472.849 878.489 543.334 915.631 610.152 L 789.838 655.163 C 782.584 657.749 743.026 671.307 738.272 674.091 C 728.588 668.6 696.903 655.007 686.103 650.227 C 690.522 641.717 694.416 631.887 698.957 622.912 C 714.998 635.421 737.203 655.871 755.219 662.446 C 756.755 661.051 758.208 659.569 759.571 658.006 C 786.857 626.587 744.296 592.09 721.909 573.222 C 728.133 556.881 738.516 538.846 745.296 521.808 C 750.407 511.104 762.19 487.465 765.788 476.949 C 766.666 474.491 770.028 468.312 771.353 465.74 L 777.536 452.562 L 782.758 440.799 C 787.916 431.033 793.797 417.054 798.502 406.744 z"/>
<path transform="translate(0,0)" fill="rgb(246,247,252)" d="M 743.05 674.612 L 858.356 633.441 C 877.191 626.741 898.466 619.691 916.896 612.304 C 940.29 653.936 940.78 651.993 987.277 643.038 C 1001.52 697.652 1015.58 754.565 1030.66 808.745 C 1025.48 808.098 977.795 784.925 969.931 781.315 L 946.884 770.623 C 942.911 768.181 932.781 764.009 928.074 761.861 L 892.215 745.317 L 774.94 691.01 C 769.321 688.442 744.983 678.735 743.05 674.612 z"/>
<path transform="translate(0,0)" fill="rgb(17,17,28)" d="M 798.502 406.744 L 798.601 405.109 L 800.228 404.682 L 890.307 561.152 L 917.781 609.056 C 922.995 618.146 927.929 627.878 934.035 636.385 C 936.645 640.022 940.96 643.853 945.367 645.153 C 960.911 649.738 1182.9 603.911 1221.94 599.639 L 1222.07 601.205 L 1220.77 602.095 L 1067.42 629.014 C 1042.8 633.338 1014.15 639.097 989.844 642.561 L 1020.24 758.976 C 1022.7 768.406 1032.24 802.258 1033.25 810.861 L 1030.66 808.745 C 1015.58 754.565 1001.52 697.652 987.277 643.038 C 940.78 651.993 940.29 653.936 916.896 612.304 C 898.466 619.691 877.191 626.741 858.356 633.441 L 743.05 674.612 C 740.217 675.338 741.346 675.283 738.272 674.091 C 743.026 671.307 782.584 657.749 789.838 655.163 L 915.631 610.152 C 878.489 543.334 837.157 472.849 798.502 406.744 z"/>
<path transform="translate(0,0)" fill="rgb(253,103,100)" d="M 953.091 585.81 C 972.605 583.929 992.331 604.653 967.359 620.414 C 943.375 627.651 933.455 602.407 953.091 585.81 z"/>
<path transform="translate(0,0)" fill="rgb(137,137,240)" d="M 230.347 496.887 C 228.968 424.707 247.583 349.858 293.968 293.49 C 301.367 284.498 309.847 273.214 319.159 266.171 C 357.851 275.394 405.593 290.769 444.659 301.899 L 442.469 313.277 C 462.036 314.953 491.623 322.603 512.493 325.591 C 498.217 379.631 486.134 436.961 472.756 491.562 C 463.339 492.72 419.646 490.55 407.455 490.744 C 406.767 490.255 406.079 489.767 405.391 489.279 L 404.451 493.173 C 401.114 495.112 247.84 496.44 230.347 496.887 z"/>
<path transform="translate(0,0)" fill="rgb(246,247,252)" d="M 442.469 313.277 C 462.036 314.953 491.623 322.603 512.493 325.591 C 498.217 379.631 486.134 436.961 472.756 491.562 C 463.339 492.72 419.646 490.55 407.455 490.744 C 406.767 490.255 406.079 489.767 405.391 489.279 L 442.469 313.277 z"/>
<path transform="translate(0,0)" fill="rgb(3,2,61)" d="M 438.748 470.487 C 442.074 468.957 446.011 470.412 447.544 473.736 C 449.077 477.061 447.628 480.999 444.306 482.537 C 440.977 484.077 437.03 482.625 435.494 479.294 C 433.958 475.964 435.415 472.019 438.748 470.487 z"/>
<path transform="translate(0,0)" fill="rgb(187,206,247)" d="M 608.811 1051.23 C 607.584 1043.36 606.768 1038.66 606.773 1030.62 C 608.031 1033.69 610.06 1047.37 607.237 1049.63 C 605.211 1048.58 594.28 1036.14 592.112 1033.41 C 578.024 1015.66 544.847 990.888 527.388 1019.98 C 523.096 1027.1 521.915 1035.67 524.123 1043.69 C 526.048 1050.65 530.047 1056.37 536.219 1060.04 C 551.83 1069.33 599.393 1062.84 615.234 1059.23 C 634.569 1052.12 663.541 1037.4 674.509 1019.77 C 683.645 1005.09 673.383 979.865 655.066 978.861 C 651.361 978.658 640.362 978.165 637.131 979.784 C 620.773 987.981 617.706 1011.32 614.72 1027.55 C 613.748 1032.89 614.551 1038.91 612.371 1043.86 L 611.549 1042.96 C 610.967 1033.02 617.42 1008.19 620.233 998.074 C 627.535 971.814 665.981 967.879 676.892 994.909 C 680.063 1002.71 679.948 1011.47 676.573 1019.18 C 669.081 1036.08 631.351 1055.1 614.513 1061.69 C 616.873 1082.03 620.559 1105.68 623.672 1126.01 C 627.521 1109.05 640.662 1076.9 651.39 1062.81 C 657.263 1055.1 666.529 1049.64 676.367 1048.63 C 686.125 1047.67 695.862 1050.63 703.441 1056.85 C 711.034 1063.03 715.859 1071.98 716.852 1081.72 C 717.873 1091.36 714.968 1101.01 708.793 1108.49 C 695.309 1124.75 646.243 1139.5 625.607 1141.36 C 627.37 1162.36 631.591 1189.72 634.256 1210.98 C 642.442 1185.32 655.484 1136.07 687.145 1133.02 C 697.121 1131.98 707.096 1135 714.817 1141.4 C 722.373 1147.58 727.157 1156.52 728.114 1166.23 C 728.929 1176.02 725.754 1185.71 719.309 1193.12 C 705.451 1209.24 656.461 1223.67 635.46 1225.5 L 632.767 1226.57 C 630.96 1226.49 622.775 1228.9 620.547 1229.49 C 589.5 1237.75 522.393 1254.88 521.39 1202.66 C 521.272 1192.63 525.172 1182.98 532.22 1175.84 C 562.954 1144.66 609.249 1192.71 630.792 1214.48 C 628.651 1190.66 625.148 1165.35 622.119 1141.54 C 603.135 1148.64 578.429 1153.01 558.216 1154.68 C 544.976 1155.78 532.588 1154.44 522.282 1145.24 C 514.955 1138.67 510.659 1129.37 510.405 1119.53 C 510.004 1109.52 513.651 1099.78 520.522 1092.5 C 552.148 1059.32 597.837 1108.66 620.516 1130.86 C 617.36 1107.64 614.057 1084.43 610.608 1061.24 C 589.713 1065.01 542.822 1073.63 527.829 1054.32 C 511.417 1033.04 529.096 1000.76 556.087 1005.83 C 574.643 1009.31 598.302 1036.2 608.811 1051.23 z"/>
<path transform="translate(0,0)" fill="rgb(3,2,61)" d="M 1286.77 887.894 C 1295.3 887.837 1343.38 886.592 1347.11 889.245 L 1347.53 891.741 L 1347.59 1243.14 C 1331.38 1244.8 1301.05 1248.57 1285.98 1247.66 C 1287.37 1245.39 1286.78 919.005 1286.77 887.894 z"/>
<path transform="translate(0,0)" fill="rgb(187,206,247)" d="M 903.988 1262.59 C 890.157 1252.89 852.093 1266.82 838.779 1251.3 C 823.129 1233.05 847.747 1205.75 867.292 1221.49 C 875.527 1228.13 885.277 1241.56 892.091 1249.97 C 895.859 1250.31 891.779 1248.73 895.406 1246.35 L 896.29 1249.69 C 899.799 1249.32 920.534 1222.86 933.853 1223.34 C 959.209 1224.27 961.376 1246.18 945.846 1262.39 C 937.347 1263.95 898.593 1264.79 890.253 1263.57 C 892.403 1262.16 900.855 1262.6 903.988 1262.59 z"/>
<path transform="translate(0,0)" fill="rgb(227,59,59)" d="M 946.884 770.623 L 969.931 781.315 C 967.566 790.097 969.361 849.858 969.403 863.069 L 946.791 862.958 L 946.884 770.623 z"/>
<path transform="translate(0,0)" fill="rgb(187,206,247)" d="M 684.883 1262.23 C 698.284 1263.3 712.884 1234.14 745.34 1263.66 L 827.686 1263.64 C 835.734 1263.63 870.095 1262.99 875.592 1264.66 C 823.341 1266.73 767.924 1264.22 715.464 1263.88 C 705.331 1263.81 694.841 1264.07 684.883 1262.23 z"/>
<path transform="translate(0,0)" fill="rgb(191,208,236)" d="M 544.795 1255.07 C 556.818 1255.3 581.667 1240.93 592.501 1258.77 C 577.677 1257.89 559.216 1257.13 544.795 1255.07 z"/>
<path transform="translate(0,0)" fill="rgb(191,208,236)" d="M 632.767 1226.57 L 635.46 1225.5 C 637.163 1233.83 639.335 1253.17 638.961 1261.68 L 636.251 1261.1 C 635.705 1249.65 633.113 1238.81 632.767 1226.57 z"/>
<path transform="translate(0,0)" fill="rgb(187,206,247)" d="M 552.347 806.049 C 541.559 798.817 527.962 789.515 522.287 777.803 C 514.136 760.98 533.019 749.137 546.773 756.193 C 563.374 765.422 552.944 791.567 556.615 805.617 C 559.481 816.586 564.24 828.09 567.827 838.65 C 568.842 827.78 568.42 812.95 578.286 806.11 C 582.088 803.499 586.782 802.529 591.308 803.422 C 601.558 805.547 607.995 815.485 605.082 825.405 C 601.247 838.46 583.94 848.88 572.835 855.292 C 576.588 868.922 578.981 881.269 583.44 895.12 C 584.449 884.303 585.017 876.509 588.735 866.107 C 605.931 848.048 628.041 862.075 620.078 884.238 C 616.574 893.99 596.156 908.189 586.179 912.001 L 584.418 914.882 C 581.283 913.551 564.74 917.908 559.478 918.33 C 553.774 918.789 549.198 919.051 543.308 918.922 C 531.546 912.764 525.064 898.601 534.918 888.336 C 549.237 873.42 570.906 893.465 580.976 903.043 C 577.577 886.381 573.899 872.642 569.223 856.404 C 551.995 860.155 546.597 861.997 528.694 862.82 C 496.218 847.385 521.819 798.48 567.896 851.016 C 562.745 834.852 558.951 821.769 552.347 806.049 z"/>
<path transform="translate(0,0)" fill="rgb(187,206,247)" d="M 911.263 1160.69 C 908.04 1160.1 904.865 1159.27 901.761 1158.21 C 889.612 1154.16 871.434 1147.86 865.815 1135.53 C 863.607 1130.58 863.486 1124.94 865.481 1119.89 C 867.672 1114.37 872.088 1110.04 877.642 1107.95 C 882.641 1106.08 888.205 1106.43 892.931 1108.91 C 905.6 1115.6 909.837 1136.79 913.697 1150.05 L 915.985 1152.07 L 916.81 1153.2 C 928.011 1145.61 945.872 1129.54 959.625 1131.46 C 977.858 1133.99 982.495 1159.66 967.423 1168.98 C 957.104 1175.08 938.888 1170.07 927.842 1166.46 C 923.08 1164.9 918.343 1163.25 913.634 1161.53 L 911.263 1160.69 z"/>
<path transform="translate(0,0)" fill="rgb(187,206,247)" d="M 966.601 1192.36 C 966.966 1230.07 932.025 1216.81 908.947 1209.91 C 891.811 1204.79 861.741 1196.33 854.292 1178.46 C 850.072 1168.34 861.218 1154.57 870.352 1152.6 C 892.549 1147.83 900.278 1183.61 903.596 1196.84 L 905.779 1200.57 C 918.787 1190.27 930.063 1180.37 946.526 1176.73 C 948.304 1177.2 950.07 1177.71 951.823 1178.27 C 960.426 1181.04 962.729 1184.85 966.601 1192.36 z"/>
<path transform="translate(0,0)" fill="rgb(187,206,247)" d="M 921.683 1117.57 C 911.302 1113.33 892.282 1100.58 889.398 1089.22 C 888.219 1084.64 889.059 1079.78 891.704 1075.86 C 894.314 1072 898.365 1069.35 902.946 1068.51 C 922.445 1065.04 923 1091.47 924.427 1103.97 L 926.439 1106.96 L 926.786 1108.95 C 928.828 1108.09 933.549 1103.47 934.868 1101.81 C 941.32 1093.66 967.842 1080.76 972.206 1097.2 C 982.676 1136.64 938.646 1118.05 923.657 1117.93 L 921.683 1117.57 z"/>
<path transform="translate(0,0)" fill="rgb(187,206,247)" d="M 932.556 1074.6 C 930.431 1073.36 928.332 1072.07 926.261 1070.74 C 917.991 1065.47 907.512 1058.5 905.265 1048.09 C 903.561 1040.19 909.095 1032.79 917.131 1031.86 C 920.949 1031.41 924.781 1032.55 927.736 1035.01 C 935.188 1041.18 934.458 1055.05 935.058 1064.53 C 935.674 1066.09 935.893 1066.83 936.806 1068.25 C 944.307 1062.86 956.133 1052.9 966.048 1053.41 C 973.397 1053.79 980.266 1064.08 978.229 1071.33 C 974.472 1084.69 957.495 1082.32 947.466 1079.23 C 943.13 1077.87 938.814 1076.44 934.517 1074.96 L 932.556 1074.6 z"/>
<path transform="translate(0,0)" fill="rgb(187,206,247)" d="M 943.708 1036.67 C 938.501 1031.36 927.012 1024.82 925.712 1017.27 C 924.567 1010.62 933.834 1000.94 940.816 1007.21 C 946.834 1012.61 946.237 1018.28 946.872 1025.45 C 947.529 1026.37 948.664 1027.84 949.178 1028.77 L 950.429 1029.04 C 959.842 1022.48 977.532 1014.03 975.299 1035.17 C 974.077 1046.75 952.206 1039.39 945.494 1037.28 L 943.708 1036.67 z"/>
<path transform="translate(0,0)" fill="rgb(187,206,247)" d="M 953.518 1005.68 C 948.307 1001.11 944.049 997.921 940.314 992.035 C 930.336 976.308 953.293 969.01 957.192 984.689 C 957.145 990.569 956.2 993.397 959.89 997.475 L 959.396 999.124 C 962.103 999.304 968.499 994.327 972.084 993.118 C 980.705 990.213 987.407 991.958 986.957 1002.34 C 986.312 1017.22 964.344 1009.08 956.828 1006.35 C 956.099 1006.41 954.341 1005.89 953.518 1005.68 z"/>
<path transform="translate(0,0)" fill="rgb(191,208,236)" d="M 598.361 967.205 C 601.091 944.645 602.004 903.92 634.8 908.621 C 645.191 910.111 651.002 916.694 655.333 926.237 C 661.954 940.827 637.834 968.31 625.252 968.269 L 624.916 967.303 L 625.661 966.981 C 638.213 961.457 660.107 944.662 654.59 928.299 C 652.699 922.689 645.358 912.174 639.053 910.835 C 597.83 902.084 606.704 946.821 599.192 966.845 C 598.619 966.768 597.53 966.573 597.008 966.611 L 597.416 966.593 L 596.552 966.885 C 595.904 969.42 595.812 969.824 595.631 972.419 C 587.666 971.385 553.452 927.949 533.655 944.457 C 530.124 947.402 528.504 950.571 524.582 952.861 L 523.934 952.161 C 545.717 922.254 577.705 956.08 595.715 972.607 C 592.76 953.047 587.014 933.241 584.418 914.882 L 586.179 912.001 C 592.043 929.958 593.42 949.656 598.361 967.205 z"/>
<path transform="translate(0,0)" fill="rgb(187,206,247)" d="M 965.709 978.958 C 966.09 970.85 966.42 946.277 978.435 951.056 C 997.854 958.779 979.112 972.776 971.254 977.38 C 970.209 978.002 969.146 978.592 968.064 979.149 L 965.709 978.958 z"/>
<path transform="translate(0,0)" fill="rgb(191,208,236)" d="M 911.263 1160.69 L 913.634 1161.53 C 911.942 1169.13 906.061 1193.78 905.779 1200.57 L 903.596 1196.84 C 905.721 1192.95 910.738 1165.94 911.263 1160.69 z"/>
<path transform="translate(0,0)" fill="rgb(191,208,236)" d="M 921.683 1117.57 L 923.657 1117.93 C 920.821 1129.25 918.262 1140.63 915.985 1152.07 L 913.697 1150.05 C 915.435 1146.25 920.419 1123.13 921.683 1117.57 z"/>
<path transform="translate(0,0)" fill="rgb(191,208,236)" d="M 932.556 1074.6 L 934.517 1074.96 C 932.52 1082.53 927.696 1099.64 926.439 1106.96 L 924.427 1103.97 C 926.522 1100.18 931.093 1080.24 932.556 1074.6 z"/>
<path transform="translate(0,0)" fill="rgb(191,208,236)" d="M 943.708 1036.67 L 945.494 1037.28 C 942.242 1047.77 939.118 1057.48 936.806 1068.25 C 935.893 1066.83 935.674 1066.09 935.058 1064.53 L 943.708 1036.67 z"/>
<path transform="translate(0,0)" fill="rgb(191,208,236)" d="M 965.709 978.958 L 968.064 979.149 C 965.07 985.425 962.416 990.958 959.89 997.475 C 956.2 993.397 957.145 990.569 957.192 984.689 C 957.514 987.404 957.466 988.362 958.595 990.799 L 959.949 990.469 C 961.956 986.676 963.877 982.838 965.709 978.958 z"/>
<path transform="translate(0,0)" fill="rgb(191,208,236)" d="M 953.518 1005.68 C 954.341 1005.89 956.099 1006.41 956.828 1006.35 C 954.269 1008.58 948.772 1025.68 949.178 1028.77 C 948.664 1027.84 947.529 1026.37 946.872 1025.45 C 949.531 1018.58 951.896 1012.93 953.518 1005.68 z"/>
</svg>