<svg width="600" height="600" viewBox="0 0 600 600" fill="none" xmlns="http://www.w3.org/2000/svg">
<path d="M300 600C134.52 600 0 465.48 0 300C0 134.52 134.52 0 300 0C465.48 0 600 134.52 600 300C600 465.48 465.48 600 300 600ZM300 3.84342C136.655 3.84342 3.84342 136.655 3.84342 300C3.84342 463.345 136.655 596.157 300 596.157C463.345 596.157 596.157 463.345 596.157 300C596.157 136.655 463.345 3.84342 300 3.84342Z" fill="#3A506B"/>
<path d="M300 563.914C154.591 563.914 36.0852 445.623 36.0852 300C36.0852 154.591 154.377 36.0852 300 36.0852C445.623 36.0852 563.914 154.377 563.914 300C563.914 445.623 445.409 563.914 300 563.914ZM300 39.9286C156.726 39.9286 39.9286 156.512 39.9286 300C39.9286 443.274 156.512 560.071 300 560.071C443.487 560.071 560.071 443.487 560.071 300C560.071 156.726 443.274 39.9286 300 39.9286Z" fill="#3A506B"/>
<path d="M300 527.829C174.448 527.829 72.384 425.551 72.384 300C72.384 174.448 174.448 72.384 300 72.384C425.551 72.384 527.615 174.448 527.615 300C527.615 425.551 425.551 527.829 300 527.829ZM300 76.2274C176.583 76.2274 76.2275 176.583 76.2275 300C76.2275 423.416 176.583 523.772 300 523.772C423.416 523.772 523.772 423.416 523.772 300C523.772 176.583 423.416 76.2274 300 76.2274Z" fill="#3A506B"/>
<path d="M300 491.53C194.306 491.53 108.47 405.694 108.47 300C108.47 194.306 194.306 108.47 300 108.47C405.694 108.47 491.53 194.306 491.53 300C491.53 405.694 405.694 491.53 300 491.53ZM300 112.313C196.441 112.313 112.313 196.441 112.313 300C112.313 403.559 196.441 487.687 300 487.687C403.559 487.687 487.687 403.559 487.687 300C487.687 196.441 403.559 112.313 300 112.313Z" fill="#3A506B"/>
<path d="M300 455.445C214.377 455.445 144.555 385.836 144.555 300C144.555 214.164 214.164 144.555 300 144.555C385.836 144.555 455.445 214.164 455.445 300C455.445 385.836 385.623 455.445 300 455.445ZM300 148.612C216.512 148.612 148.399 216.512 148.399 300.214C148.399 383.915 216.299 451.815 300 451.815C383.701 451.815 451.601 383.915 451.601 300.214C451.601 216.512 383.488 148.612 300 148.612Z" fill="#3A506B"/>
<path d="M300 419.146C234.235 419.146 180.854 365.765 180.854 300C180.854 234.235 234.235 180.854 300 180.854C365.765 180.854 419.146 234.235 419.146 300C419.146 365.765 365.765 419.146 300 419.146ZM300 184.697C236.37 184.697 184.697 236.37 184.697 300C184.697 363.63 236.37 415.302 300 415.302C363.63 415.302 415.302 363.63 415.302 300C415.302 236.37 363.63 184.697 300 184.697Z" fill="#3A506B"/>
<path d="M300 383.061C254.306 383.061 216.94 345.908 216.94 300C216.94 254.093 254.093 216.94 300 216.94C345.908 216.94 383.061 254.093 383.061 300C383.061 345.908 345.694 383.061 300 383.061ZM300 220.783C256.441 220.783 220.783 256.228 220.783 300C220.783 343.772 256.228 379.217 300 379.217C343.772 379.217 379.217 343.772 379.217 300C379.217 256.228 343.772 220.783 300 220.783Z" fill="#3A506B"/>
<path d="M300 346.975C274.164 346.975 253.025 326.05 253.025 300C253.025 273.95 273.95 253.025 300 253.025C326.05 253.025 346.975 273.95 346.975 300C346.975 326.05 325.836 346.975 300 346.975ZM300 257.082C276.299 257.082 257.082 276.299 257.082 300C257.082 323.701 276.299 342.918 300 342.918C323.701 342.918 342.918 323.701 342.918 300C342.918 276.299 323.701 257.082 300 257.082Z" fill="#3A506B"/>
<rect x="300" y="300" width="150" height="150" fill="#A8C7ED"/>
<path d="M368.266 390.545V390.119C368.314 385.598 368.787 381.999 369.687 379.324C370.586 376.649 371.865 374.482 373.522 372.825C375.179 371.168 377.168 369.641 379.488 368.244C380.885 367.392 382.139 366.386 383.252 365.226C384.365 364.042 385.241 362.681 385.88 361.142C386.543 359.603 386.874 357.899 386.874 356.028C386.874 353.708 386.33 351.696 385.241 349.991C384.152 348.287 382.696 346.973 380.873 346.05C379.05 345.126 377.026 344.665 374.8 344.665C372.859 344.665 370.989 345.067 369.189 345.872C367.39 346.677 365.887 347.944 364.68 349.672C363.472 351.4 362.774 353.661 362.584 356.455H353.635C353.825 352.43 354.867 348.985 356.76 346.121C358.678 343.256 361.199 341.066 364.324 339.551C367.473 338.036 370.965 337.278 374.8 337.278C378.967 337.278 382.589 338.107 385.667 339.764C388.768 341.421 391.159 343.694 392.84 346.582C394.545 349.471 395.397 352.761 395.397 356.455C395.397 359.059 394.994 361.414 394.189 363.521C393.408 365.628 392.272 367.51 390.78 369.168C389.313 370.825 387.537 372.293 385.454 373.571C383.37 374.873 381.701 376.246 380.447 377.69C379.192 379.111 378.28 380.804 377.712 382.768C377.144 384.733 376.836 387.184 376.789 390.119V390.545H368.266ZM372.812 411.568C371.06 411.568 369.556 410.941 368.302 409.686C367.047 408.431 366.42 406.928 366.42 405.176C366.42 403.424 367.047 401.921 368.302 400.666C369.556 399.411 371.06 398.784 372.812 398.784C374.564 398.784 376.067 399.411 377.322 400.666C378.576 401.921 379.204 403.424 379.204 405.176C379.204 406.336 378.908 407.402 378.316 408.372C377.748 409.343 376.978 410.124 376.008 410.716C375.061 411.284 373.995 411.568 372.812 411.568Z" fill="white"/>
</svg>
