<svg width="61" height="49" viewBox="0 0 61 49" fill="none" xmlns="http://www.w3.org/2000/svg">
<g clip-path="url(#clip0_24_796)">
<path d="M70.5 204C-7 204 -70 141 -70 63.5C-70 -14 -7 -77 70.5 -77C148 -77 211 -14 211 63.5C211 141 148 204 70.5 204ZM70.5 -75.2C-6 -75.2 -68.2 -13 -68.2 63.5C-68.2 140 -6 202.2 70.5 202.2C147 202.2 209.2 140 209.2 63.5C209.2 -13 147 -75.2 70.5 -75.2Z" fill="#3A506B"/>
<path d="M70.4999 187.1C2.39992 187.1 -53.1001 131.7 -53.1001 63.4999C-53.1001 -4.60009 2.29992 -60.1001 70.4999 -60.1001C138.7 -60.1001 194.1 -4.70009 194.1 63.4999C194.1 131.7 138.6 187.1 70.4999 187.1ZM70.4999 -58.3001C3.39992 -58.3001 -51.3001 -3.70009 -51.3001 63.4999C-51.3001 130.6 3.29992 185.3 70.4999 185.3C137.7 185.3 192.3 130.7 192.3 63.4999C192.3 -3.60009 137.6 -58.3001 70.4999 -58.3001Z" fill="#3A506B"/>
<path d="M70.4999 170.2C11.6999 170.2 -36.1001 122.3 -36.1001 63.4999C-36.1001 4.69991 11.6999 -43.1001 70.4999 -43.1001C129.3 -43.1001 177.1 4.69991 177.1 63.4999C177.1 122.3 129.3 170.2 70.4999 170.2ZM70.4999 -41.3001C12.6999 -41.3001 -34.3001 5.69991 -34.3001 63.4999C-34.3001 121.3 12.6999 168.3 70.4999 168.3C128.3 168.3 175.3 121.3 175.3 63.4999C175.3 5.69991 128.3 -41.3001 70.4999 -41.3001Z" fill="#3A506B"/>
<path d="M70.5002 153.2C21.0002 153.2 -19.2 113 -19.2 63.5C-19.2 14 21.0002 -26.2 70.5002 -26.2C120 -26.2 160.2 14 160.2 63.5C160.2 113 120 153.2 70.5002 153.2ZM70.5002 -24.4C22.0002 -24.4 -17.4 15 -17.4 63.5C-17.4 112 22.0002 151.4 70.5002 151.4C119 151.4 158.4 112 158.4 63.5C158.4 15 119 -24.4 70.5002 -24.4Z" fill="#3A506B"/>
<path d="M70.5 136.3C30.4 136.3 -2.30005 103.7 -2.30005 63.5C-2.30005 23.3 30.3 -9.30005 70.5 -9.30005C110.7 -9.30005 143.3 23.3 143.3 63.5C143.3 103.7 110.6 136.3 70.5 136.3ZM70.5 -7.40005C31.4 -7.40005 -0.500052 24.4 -0.500052 63.6C-0.500052 102.8 31.3 134.6 70.5 134.6C109.7 134.6 141.5 102.8 141.5 63.6C141.5 24.4 109.6 -7.40005 70.5 -7.40005Z" fill="#3A506B"/>
<path d="M70.5 119.3C39.7 119.3 14.7 94.3 14.7 63.5C14.7 32.7 39.7 7.69995 70.5 7.69995C101.3 7.69995 126.3 32.7 126.3 63.5C126.3 94.3 101.3 119.3 70.5 119.3ZM70.5 9.49995C40.7 9.49995 16.4999 33.7 16.4999 63.5C16.4999 93.3 40.7 117.5 70.5 117.5C100.3 117.5 124.5 93.3 124.5 63.5C124.5 33.7 100.3 9.49995 70.5 9.49995Z" fill="#3A506B"/>
<path d="M70.5001 102.4C49.1001 102.4 31.6001 85.0001 31.6001 63.5001C31.6001 42.0001 49.0001 24.6001 70.5001 24.6001C92.0001 24.6001 109.4 42.0001 109.4 63.5001C109.4 85.0001 91.9001 102.4 70.5001 102.4ZM70.5001 26.4001C50.1001 26.4001 33.4001 43.0001 33.4001 63.5001C33.4001 84.0001 50.0001 100.6 70.5001 100.6C91.0001 100.6 107.6 84.0001 107.6 63.5001C107.6 43.0001 91.0001 26.4001 70.5001 26.4001Z" fill="#3A506B"/>
<path d="M70.5 85.5C58.4 85.5 48.5 75.7 48.5 63.5C48.5 51.3 58.3 41.5 70.5 41.5C82.7 41.5 92.5 51.3 92.5 63.5C92.5 75.7 82.6 85.5 70.5 85.5ZM70.5 43.4C59.4 43.4 50.4 52.4 50.4 63.5C50.4 74.6 59.4 83.6 70.5 83.6C81.6 83.6 90.6 74.6 90.6 63.5C90.6 52.4 81.6 43.4 70.5 43.4Z" fill="#3A506B"/>
</g>
<defs>
<clipPath id="clip0_24_796">
<rect width="61" height="49" fill="white"/>
</clipPath>
</defs>
</svg>
