<svg width="61" height="49" viewBox="0 0 61 49" fill="none" xmlns="http://www.w3.org/2000/svg">
<g clip-path="url(#clip0_24_776)">
<path d="M-7.5 204C-85 204 -148 141 -148 63.5C-148 -14 -85 -77 -7.5 -77C70 -77 133 -14 133 63.5C133 141 70 204 -7.5 204ZM-7.5 -75.2C-84 -75.2 -146.2 -13 -146.2 63.5C-146.2 140 -84 202.2 -7.5 202.2C69 202.2 131.2 140 131.2 63.5C131.2 -13 69 -75.2 -7.5 -75.2Z" fill="#3A506B"/>
<path d="M-7.50018 187.1C-75.6002 187.1 -131.1 131.7 -131.1 63.4999C-131.1 -4.60009 -75.7002 -60.1001 -7.50018 -60.1001C60.6998 -60.1001 116.1 -4.70009 116.1 63.4999C116.1 131.7 60.5998 187.1 -7.50018 187.1ZM-7.50018 -58.3001C-74.6002 -58.3001 -129.3 -3.70009 -129.3 63.4999C-129.3 130.6 -74.7002 185.3 -7.50018 185.3C59.6998 185.3 114.3 130.7 114.3 63.4999C114.3 -3.60009 59.5998 -58.3001 -7.50018 -58.3001Z" fill="#3A506B"/>
<path d="M-7.50019 170.2C-66.3002 170.2 -114.1 122.3 -114.1 63.4999C-114.1 4.69991 -66.3002 -43.1001 -7.50019 -43.1001C51.2998 -43.1001 99.0998 4.69991 99.0998 63.4999C99.0998 122.3 51.2998 170.2 -7.50019 170.2ZM-7.50019 -41.3001C-65.3002 -41.3001 -112.3 5.69991 -112.3 63.4999C-112.3 121.3 -65.3002 168.3 -7.50019 168.3C50.2998 168.3 97.2998 121.3 97.2998 63.4999C97.2998 5.69991 50.2998 -41.3001 -7.50019 -41.3001Z" fill="#3A506B"/>
<path d="M-7.4999 153.2C-56.9999 153.2 -97.2 113 -97.2 63.5C-97.2 14 -56.9999 -26.2 -7.4999 -26.2C42.0002 -26.2 82.2 14 82.2 63.5C82.2 113 42.0002 153.2 -7.4999 153.2ZM-7.4999 -24.4C-55.9999 -24.4 -95.4 15 -95.4 63.5C-95.4 112 -55.9999 151.4 -7.4999 151.4C41.0002 151.4 80.4001 112 80.4001 63.5C80.4001 15 41.0002 -24.4 -7.4999 -24.4Z" fill="#3A506B"/>
<path d="M-7.5001 136.3C-47.6 136.3 -80.3 103.7 -80.3 63.5C-80.3 23.3 -47.7001 -9.30005 -7.5001 -9.30005C32.7 -9.30005 65.2999 23.3 65.2999 63.5C65.2999 103.7 32.6 136.3 -7.5001 136.3ZM-7.5001 -7.40005C-46.6 -7.40005 -78.5001 24.4 -78.5001 63.6C-78.5001 102.8 -46.7001 134.6 -7.5001 134.6C31.7 134.6 63.5 102.8 63.5 63.6C63.5 24.4 31.6 -7.40005 -7.5001 -7.40005Z" fill="#3A506B"/>
<path d="M-7.5001 119.3C-38.3 119.3 -63.3 94.3 -63.3 63.5C-63.3 32.7 -38.3 7.69995 -7.5001 7.69995C23.2999 7.69995 48.2999 32.7 48.2999 63.5C48.2999 94.3 23.2999 119.3 -7.5001 119.3ZM-7.5001 9.49995C-37.3 9.49995 -61.5001 33.7 -61.5001 63.5C-61.5001 93.3 -37.3 117.5 -7.5001 117.5C22.2999 117.5 46.5 93.3 46.5 63.5C46.5 33.7 22.2999 9.49995 -7.5001 9.49995Z" fill="#3A506B"/>
<path d="M-7.49989 102.4C-28.8999 102.4 -46.3999 85.0001 -46.3999 63.5001C-46.3999 42.0001 -28.9999 24.6001 -7.49989 24.6001C14.0001 24.6001 31.4001 42.0001 31.4001 63.5001C31.4001 85.0001 13.9001 102.4 -7.49989 102.4ZM-7.49989 26.4001C-27.8999 26.4001 -44.5999 43.0001 -44.5999 63.5001C-44.5999 84.0001 -27.9999 100.6 -7.49989 100.6C13.0001 100.6 29.6001 84.0001 29.6001 63.5001C29.6001 43.0001 13.0001 26.4001 -7.49989 26.4001Z" fill="#3A506B"/>
<path d="M-7.5 85.5C-19.6 85.5 -29.5 75.7 -29.5 63.5C-29.5 51.3 -19.7 41.5 -7.5 41.5C4.7 41.5 14.5 51.3 14.5 63.5C14.5 75.7 4.6 85.5 -7.5 85.5ZM-7.5 43.4C-18.6 43.4 -27.6 52.4 -27.6 63.5C-27.6 74.6 -18.6 83.6 -7.5 83.6C3.6 83.6 12.6 74.6 12.6 63.5C12.6 52.4 3.6 43.4 -7.5 43.4Z" fill="#3A506B"/>
</g>
<defs>
<clipPath id="clip0_24_776">
<rect width="61" height="49" fill="white"/>
</clipPath>
</defs>
</svg>
