<svg width="61" height="49" viewBox="0 0 61 49" fill="none" xmlns="http://www.w3.org/2000/svg">
<g clip-path="url(#clip0_24_763)">
<path d="M-7.5 126C-85 126 -148 63 -148 -14.5C-148 -92 -85 -155 -7.5 -155C70 -155 133 -92 133 -14.5C133 63 70 126 -7.5 126ZM-7.5 -153.2C-84 -153.2 -146.2 -91 -146.2 -14.5C-146.2 62 -84 124.2 -7.5 124.2C69 124.2 131.2 62 131.2 -14.5C131.2 -91 69 -153.2 -7.5 -153.2Z" fill="#3A506B"/>
<path d="M-7.50018 109.1C-75.6002 109.1 -131.1 53.6998 -131.1 -14.5002C-131.1 -82.6002 -75.7002 -138.1 -7.50018 -138.1C60.6998 -138.1 116.1 -82.7002 116.1 -14.5002C116.1 53.6998 60.5998 109.1 -7.50018 109.1ZM-7.50018 -136.3C-74.6002 -136.3 -129.3 -81.7002 -129.3 -14.5002C-129.3 52.5998 -74.7002 107.3 -7.50018 107.3C59.6998 107.3 114.3 52.6998 114.3 -14.5002C114.3 -81.6002 59.5998 -136.3 -7.50018 -136.3Z" fill="#3A506B"/>
<path d="M-7.50019 92.1998C-66.3002 92.1998 -114.1 44.2998 -114.1 -14.5002C-114.1 -73.3002 -66.3002 -121.1 -7.50019 -121.1C51.2998 -121.1 99.0998 -73.3002 99.0998 -14.5002C99.0998 44.2998 51.2998 92.1998 -7.50019 92.1998ZM-7.50019 -119.3C-65.3002 -119.3 -112.3 -72.3002 -112.3 -14.5002C-112.3 43.2998 -65.3002 90.2998 -7.50019 90.2998C50.2998 90.2998 97.2998 43.2998 97.2998 -14.5002C97.2998 -72.3002 50.2998 -119.3 -7.50019 -119.3Z" fill="#3A506B"/>
<path d="M-7.4999 75.2C-56.9999 75.2 -97.2 35 -97.2 -14.5C-97.2 -64 -56.9999 -104.2 -7.4999 -104.2C42.0002 -104.2 82.2 -64 82.2 -14.5C82.2 35 42.0002 75.2 -7.4999 75.2ZM-7.4999 -102.4C-55.9999 -102.4 -95.4 -63 -95.4 -14.5C-95.4 34 -55.9999 73.4001 -7.4999 73.4001C41.0002 73.4001 80.4001 34 80.4001 -14.5C80.4001 -63 41.0002 -102.4 -7.4999 -102.4Z" fill="#3A506B"/>
<path d="M-7.5001 58.3C-47.6 58.3 -80.3 25.7 -80.3 -14.5C-80.3 -54.7 -47.7001 -87.3 -7.5001 -87.3C32.7 -87.3 65.2999 -54.7 65.2999 -14.5C65.2999 25.7 32.6 58.3 -7.5001 58.3ZM-7.5001 -85.4C-46.6 -85.4 -78.5001 -53.6 -78.5001 -14.4C-78.5001 24.8 -46.7001 56.5999 -7.5001 56.5999C31.7 56.5999 63.5 24.8 63.5 -14.4C63.5 -53.6 31.6 -85.4 -7.5001 -85.4Z" fill="#3A506B"/>
<path d="M-7.5001 41.3C-38.3 41.3 -63.3 16.3 -63.3 -14.5C-63.3 -45.3 -38.3 -70.3 -7.5001 -70.3C23.2999 -70.3 48.2999 -45.3 48.2999 -14.5C48.2999 16.3 23.2999 41.3 -7.5001 41.3ZM-7.5001 -68.5C-37.3 -68.5 -61.5001 -44.3 -61.5001 -14.5C-61.5001 15.3 -37.3 39.5 -7.5001 39.5C22.2999 39.5 46.5 15.3 46.5 -14.5C46.5 -44.3 22.2999 -68.5 -7.5001 -68.5Z" fill="#3A506B"/>
<path d="M-7.49989 24.4001C-28.8999 24.4001 -46.3999 7.0001 -46.3999 -14.4999C-46.3999 -35.9999 -28.9999 -53.3999 -7.49989 -53.3999C14.0001 -53.3999 31.4001 -35.9999 31.4001 -14.4999C31.4001 7.0001 13.9001 24.4001 -7.49989 24.4001ZM-7.49989 -51.5999C-27.8999 -51.5999 -44.5999 -34.9999 -44.5999 -14.4999C-44.5999 6.0001 -27.9999 22.6001 -7.49989 22.6001C13.0001 22.6001 29.6001 6.0001 29.6001 -14.4999C29.6001 -34.9999 13.0001 -51.5999 -7.49989 -51.5999Z" fill="#3A506B"/>
<path d="M-7.5 7.5C-19.6 7.5 -29.5 -2.3 -29.5 -14.5C-29.5 -26.7 -19.7 -36.5 -7.5 -36.5C4.7 -36.5 14.5 -26.7 14.5 -14.5C14.5 -2.3 4.6 7.5 -7.5 7.5ZM-7.5 -34.6C-18.6 -34.6 -27.6 -25.6 -27.6 -14.5C-27.6 -3.4 -18.6 5.60001 -7.5 5.60001C3.6 5.60001 12.6 -3.4 12.6 -14.5C12.6 -25.6 3.6 -34.6 -7.5 -34.6Z" fill="#3A506B"/>
</g>
<defs>
<clipPath id="clip0_24_763">
<rect width="61" height="49" fill="white"/>
</clipPath>
</defs>
</svg>
