<svg width="150" height="150" viewBox="0 0 150 150" fill="none" xmlns="http://www.w3.org/2000/svg">
<g clip-path="url(#clip0_175_570)">
<path d="M-97 167C-262.48 167 -397 32.4804 -397 -133C-397 -298.48 -262.48 -433 -97 -433C68.4804 -433 203 -298.48 203 -133C203 32.4804 68.4804 167 -97 167ZM-97 -429.157C-260.345 -429.157 -393.157 -296.345 -393.157 -133C-393.157 30.3452 -260.345 163.157 -97 163.157C66.3452 163.157 199.157 30.3452 199.157 -133C199.157 -296.345 66.3452 -429.157 -97 -429.157Z" fill="#3A506B"/>
<path d="M-97.0002 130.914C-242.409 130.914 -360.915 12.6226 -360.915 -133C-360.915 -278.409 -242.623 -396.915 -97.0002 -396.915C48.6226 -396.915 166.914 -278.623 166.914 -133C166.914 12.6226 48.4091 130.914 -97.0002 130.914ZM-97.0002 -393.071C-240.274 -393.071 -357.071 -276.488 -357.071 -133C-357.071 10.2738 -240.488 127.071 -97.0002 127.071C46.4874 127.071 163.071 10.4874 163.071 -133C163.071 -276.274 46.2738 -393.071 -97.0002 -393.071Z" fill="#3A506B"/>
<path d="M-97.0005 94.8288C-222.552 94.8288 -324.616 -7.44873 -324.616 -133C-324.616 -258.552 -222.552 -360.616 -97.0005 -360.616C28.5511 -360.616 130.615 -258.552 130.615 -133C130.615 -7.44873 28.5511 94.8288 -97.0005 94.8288ZM-97.0005 -356.773C-220.417 -356.773 -320.773 -256.417 -320.773 -133C-320.773 -9.58396 -220.417 90.7719 -97.0005 90.7719C26.4159 90.7719 126.772 -9.58396 126.772 -133C126.772 -256.417 26.4159 -356.773 -97.0005 -356.773Z" fill="#3A506B"/>
<path d="M-96.9998 58.5302C-202.694 58.5302 -288.53 -27.3061 -288.53 -133C-288.53 -238.694 -202.694 -324.53 -96.9998 -324.53C8.69415 -324.53 94.5304 -238.694 94.5304 -133C94.5304 -27.3061 8.69415 58.5302 -96.9998 58.5302ZM-96.9998 -320.687C-200.559 -320.687 -284.687 -236.559 -284.687 -133C-284.687 -29.4413 -200.559 54.6868 -96.9998 54.6868C6.55891 54.6868 90.687 -29.4413 90.687 -133C90.687 -236.559 6.55891 -320.687 -96.9998 -320.687Z" fill="#3A506B"/>
<path d="M-96.9998 22.4448C-182.623 22.4448 -252.445 -47.1638 -252.445 -133C-252.445 -218.836 -182.836 -288.445 -96.9998 -288.445C-11.1635 -288.445 58.445 -218.836 58.445 -133C58.445 -47.1638 -11.377 22.4448 -96.9998 22.4448ZM-96.9998 -284.388C-180.488 -284.388 -248.601 -216.488 -248.601 -132.786C-248.601 -49.0855 -180.701 18.8149 -96.9998 18.8149C-13.2987 18.8149 54.6016 -49.0855 54.6016 -132.786C54.6016 -216.488 -13.5122 -284.388 -96.9998 -284.388Z" fill="#3A506B"/>
</g>
<defs>
<clipPath id="clip0_175_570">
<rect width="150" height="150" fill="white"/>
</clipPath>
</defs>
</svg>
