<svg width="150" height="150" viewBox="0 0 150 150" fill="none" xmlns="http://www.w3.org/2000/svg">
<g clip-path="url(#clip0_175_537)">
<path d="M0 300C-165.48 300 -300 165.48 -300 0C-300 -165.48 -165.48 -300 0 -300C165.48 -300 300 -165.48 300 0C300 165.48 165.48 300 0 300ZM0 -296.157C-163.345 -296.157 -296.157 -163.345 -296.157 0C-296.157 163.345 -163.345 296.157 0 296.157C163.345 296.157 296.157 163.345 296.157 0C296.157 -163.345 163.345 -296.157 0 -296.157Z" fill="#3A506B"/>
<path d="M-0.000213623 263.914C-145.409 263.914 -263.915 145.623 -263.915 -0.000213623C-263.915 -145.409 -145.623 -263.915 -0.000213623 -263.915C145.623 -263.915 263.914 -145.623 263.914 -0.000213623C263.914 145.623 145.409 263.914 -0.000213623 263.914ZM-0.000213623 -260.071C-143.274 -260.071 -260.071 -143.488 -260.071 -0.000213623C-260.071 143.274 -143.488 260.071 -0.000213623 260.071C143.487 260.071 260.071 143.487 260.071 -0.000213623C260.071 -143.274 143.274 -260.071 -0.000213623 -260.071Z" fill="#3A506B"/>
<path d="M-0.000244141 227.829C-125.552 227.829 -227.616 125.551 -227.616 -0.000320435C-227.616 -125.552 -125.552 -227.616 -0.000244141 -227.616C125.551 -227.616 227.615 -125.552 227.615 -0.000320435C227.615 125.551 125.551 227.829 -0.000244141 227.829ZM-0.000244141 -223.773C-123.417 -223.773 -223.773 -123.417 -223.773 -0.000320435C-223.773 123.416 -123.417 223.772 -0.000244141 223.772C123.416 223.772 223.772 123.416 223.772 -0.000320435C223.772 -123.417 123.416 -223.773 -0.000244141 -223.773Z" fill="#3A506B"/>
<path d="M-4.57764e-05 191.53C-105.694 191.53 -191.53 105.694 -191.53 -6.10352e-05C-191.53 -105.694 -105.694 -191.53 -4.57764e-05 -191.53C105.694 -191.53 191.53 -105.694 191.53 -6.10352e-05C191.53 105.694 105.694 191.53 -4.57764e-05 191.53ZM-4.57764e-05 -187.687C-103.559 -187.687 -187.687 -103.559 -187.687 -6.10352e-05C-187.687 103.559 -103.559 187.687 -4.57764e-05 187.687C103.559 187.687 187.687 103.559 187.687 -6.10352e-05C187.687 -103.559 103.559 -187.687 -4.57764e-05 -187.687Z" fill="#3A506B"/>
<path d="M-4.57764e-05 155.445C-85.6229 155.445 -155.445 85.8362 -155.445 -3.05176e-05C-155.445 -85.8364 -85.8364 -155.445 -4.57764e-05 -155.445C85.8362 -155.445 155.445 -85.8364 155.445 -3.05176e-05C155.445 85.8362 85.6227 155.445 -4.57764e-05 155.445ZM-4.57764e-05 -151.388C-83.4876 -151.388 -151.601 -83.4876 -151.601 0.213516C-151.601 83.9145 -83.7011 151.815 -4.57764e-05 151.815C83.701 151.815 151.601 83.9145 151.601 0.213516C151.601 -83.4876 83.4875 -151.388 -4.57764e-05 -151.388Z" fill="#3A506B"/>
<path d="M-7.62939e-05 119.146C-65.7652 119.146 -119.146 65.7651 -119.146 -6.10352e-05C-119.146 -65.7652 -65.7652 -119.146 -7.62939e-05 -119.146C65.765 -119.146 119.146 -65.7652 119.146 -6.10352e-05C119.146 65.7651 65.765 119.146 -7.62939e-05 119.146ZM-7.62939e-05 -115.303C-63.63 -115.303 -115.303 -63.63 -115.303 -6.10352e-05C-115.303 63.6298 -63.63 115.302 -7.62939e-05 115.302C63.6298 115.302 115.302 63.6298 115.302 -6.10352e-05C115.302 -63.63 63.6298 -115.303 -7.62939e-05 -115.303Z" fill="#3A506B"/>
<path d="M-3.05176e-05 83.0607C-45.6939 83.0607 -83.0605 45.9077 -83.0605 0.000198364C-83.0605 -45.9073 -45.9075 -83.0603 -3.05176e-05 -83.0603C45.9075 -83.0603 83.0605 -45.9073 83.0605 0.000198364C83.0605 45.9077 45.694 83.0607 -3.05176e-05 83.0607ZM-3.05176e-05 -79.2169C-43.5587 -79.2169 -79.2171 -43.772 -79.2171 0.000198364C-79.2171 43.7724 -43.7722 79.2173 -3.05176e-05 79.2173C43.7723 79.2173 79.2171 43.7724 79.2171 0.000198364C79.2171 -43.772 43.7723 -79.2169 -3.05176e-05 -79.2169Z" fill="#3A506B"/>
<path d="M-7.62939e-06 46.9751C-25.8363 46.9751 -46.9751 26.0498 -46.9751 -7.62939e-06C-46.9751 -26.0498 -26.0498 -46.9751 -7.62939e-06 -46.9751C26.0498 -46.9751 46.9751 -26.0498 46.9751 -7.62939e-06C46.9751 26.0498 25.8363 46.9751 -7.62939e-06 46.9751ZM-7.62939e-06 -42.9182C-23.7011 -42.9182 -42.9182 -23.7011 -42.9182 -7.62939e-06C-42.9182 23.7011 -23.7011 42.9182 -7.62939e-06 42.9182C23.7011 42.9182 42.9181 23.7011 42.9181 -7.62939e-06C42.9181 -23.7011 23.7011 -42.9182 -7.62939e-06 -42.9182Z" fill="#3A506B"/>
</g>
<defs>
<clipPath id="clip0_175_537">
<rect width="150" height="150" fill="white"/>
</clipPath>
</defs>
</svg>
