<svg width="150" height="150" viewBox="0 0 150 150" fill="none" xmlns="http://www.w3.org/2000/svg">
<g clip-path="url(#clip0_175_567)">
<path d="M11 222C-154.48 222 -289 87.4804 -289 -78C-289 -243.48 -154.48 -378 11 -378C176.48 -378 311 -243.48 311 -78C311 87.4804 176.48 222 11 222ZM11 -374.157C-152.345 -374.157 -285.157 -241.345 -285.157 -78C-285.157 85.3452 -152.345 218.157 11 218.157C174.345 218.157 307.157 85.3452 307.157 -78C307.157 -241.345 174.345 -374.157 11 -374.157Z" fill="#3A506B"/>
<path d="M10.9998 185.914C-134.409 185.914 -252.915 67.6226 -252.915 -78.0002C-252.915 -223.409 -134.623 -341.915 10.9998 -341.915C156.623 -341.915 274.914 -223.623 274.914 -78.0002C274.914 67.6226 156.409 185.914 10.9998 185.914ZM10.9998 -338.071C-132.274 -338.071 -249.071 -221.488 -249.071 -78.0002C-249.071 65.2738 -132.488 182.071 10.9998 182.071C154.487 182.071 271.071 65.4874 271.071 -78.0002C271.071 -221.274 154.274 -338.071 10.9998 -338.071Z" fill="#3A506B"/>
<path d="M10.9995 149.829C-114.552 149.829 -216.616 47.5512 -216.616 -78.0003C-216.616 -203.552 -114.552 -305.616 10.9995 -305.616C136.551 -305.616 238.615 -203.552 238.615 -78.0003C238.615 47.5512 136.551 149.829 10.9995 149.829ZM10.9995 -301.773C-112.417 -301.773 -212.773 -201.417 -212.773 -78.0003C-212.773 45.416 -112.417 145.772 10.9995 145.772C134.416 145.772 234.772 45.416 234.772 -78.0003C234.772 -201.417 134.416 -301.773 10.9995 -301.773Z" fill="#3A506B"/>
<path d="M11.0002 113.53C-94.6938 113.53 -180.53 27.6939 -180.53 -78C-180.53 -183.694 -94.6938 -269.53 11.0002 -269.53C116.694 -269.53 202.53 -183.694 202.53 -78C202.53 27.6939 116.694 113.53 11.0002 113.53ZM11.0002 -265.687C-92.5585 -265.687 -176.687 -181.559 -176.687 -78C-176.687 25.5587 -92.5585 109.687 11.0002 109.687C114.559 109.687 198.687 25.5587 198.687 -78C198.687 -181.559 114.559 -265.687 11.0002 -265.687Z" fill="#3A506B"/>
<path d="M11.0002 77.4448C-74.6226 77.4448 -144.445 7.83628 -144.445 -78.0001C-144.445 -163.836 -74.8361 -233.445 11.0002 -233.445C96.8365 -233.445 166.445 -163.836 166.445 -78.0001C166.445 7.83628 96.623 77.4448 11.0002 77.4448ZM11.0002 -229.388C-72.4873 -229.388 -140.601 -161.488 -140.601 -77.7865C-140.601 5.91458 -72.7008 73.8149 11.0002 73.8149C94.7013 73.8149 162.601 5.91458 162.601 -77.7865C162.601 -161.488 94.4878 -229.388 11.0002 -229.388Z" fill="#3A506B"/>
<path d="M10.9999 41.1459C-54.7652 41.1459 -108.146 -12.2349 -108.146 -78.0001C-108.146 -143.765 -54.7652 -197.146 10.9999 -197.146C76.765 -197.146 130.146 -143.765 130.146 -78.0001C130.146 -12.2349 76.765 41.1459 10.9999 41.1459ZM10.9999 -193.303C-52.63 -193.303 -104.303 -141.63 -104.303 -78.0001C-104.303 -14.3702 -52.63 37.3024 10.9999 37.3024C74.6298 37.3024 126.302 -14.3702 126.302 -78.0001C126.302 -141.63 74.6298 -193.303 10.9999 -193.303Z" fill="#3A506B"/>
<path d="M11 5.06062C-34.6939 5.06062 -72.0605 -32.0924 -72.0605 -77.9999C-72.0605 -123.907 -34.9075 -161.06 11 -161.06C56.9075 -161.06 94.0605 -123.907 94.0605 -77.9999C94.0605 -32.0924 56.694 5.06062 11 5.06062ZM11 -157.217C-32.5587 -157.217 -68.2171 -121.772 -68.2171 -77.9999C-68.2171 -34.2277 -32.7722 1.21722 11 1.21722C54.7723 1.21722 90.2171 -34.2277 90.2171 -77.9999C90.2171 -121.772 54.7723 -157.217 11 -157.217Z" fill="#3A506B"/>
</g>
<defs>
<clipPath id="clip0_175_567">
<rect width="150" height="150" fill="white"/>
</clipPath>
</defs>
</svg>
