<svg width="150" height="150" viewBox="0 0 150 150" fill="none" xmlns="http://www.w3.org/2000/svg">
<g clip-path="url(#clip0_175_568)">
<path d="M-27 274C-192.48 274 -327 139.48 -327 -26C-327 -191.48 -192.48 -326 -27 -326C138.48 -326 273 -191.48 273 -26C273 139.48 138.48 274 -27 274ZM-27 -322.157C-190.345 -322.157 -323.157 -189.345 -323.157 -26C-323.157 137.345 -190.345 270.157 -27 270.157C136.345 270.157 269.157 137.345 269.157 -26C269.157 -189.345 136.345 -322.157 -27 -322.157Z" fill="#3A506B"/>
<path d="M-27.0002 237.914C-172.409 237.914 -290.915 119.623 -290.915 -26.0002C-290.915 -171.409 -172.623 -289.915 -27.0002 -289.915C118.623 -289.915 236.914 -171.623 236.914 -26.0002C236.914 119.623 118.409 237.914 -27.0002 237.914ZM-27.0002 -286.071C-170.274 -286.071 -287.071 -169.488 -287.071 -26.0002C-287.071 117.274 -170.488 234.071 -27.0002 234.071C116.487 234.071 233.071 117.487 233.071 -26.0002C233.071 -169.274 116.274 -286.071 -27.0002 -286.071Z" fill="#3A506B"/>
<path d="M-27.0003 201.829C-152.552 201.829 -254.616 99.5512 -254.616 -26.0003C-254.616 -151.552 -152.552 -253.616 -27.0003 -253.616C98.5513 -253.616 200.615 -151.552 200.615 -26.0003C200.615 99.5512 98.5513 201.829 -27.0003 201.829ZM-27.0003 -249.773C-150.417 -249.773 -250.773 -149.417 -250.773 -26.0003C-250.773 97.416 -150.417 197.772 -27.0003 197.772C96.4161 197.772 196.772 97.416 196.772 -26.0003C196.772 -149.417 96.4161 -249.773 -27.0003 -249.773Z" fill="#3A506B"/>
<path d="M-27 165.53C-132.694 165.53 -218.53 79.6939 -218.53 -26C-218.53 -131.694 -132.694 -217.53 -27 -217.53C78.6939 -217.53 164.53 -131.694 164.53 -26C164.53 79.6939 78.6939 165.53 -27 165.53ZM-27 -213.687C-130.559 -213.687 -214.687 -129.559 -214.687 -26C-214.687 77.5587 -130.559 161.687 -27 161.687C76.5587 161.687 160.687 77.5587 160.687 -26C160.687 -129.559 76.5587 -213.687 -27 -213.687Z" fill="#3A506B"/>
<path d="M-27.0001 129.445C-112.623 129.445 -182.445 59.8362 -182.445 -26.0001C-182.445 -111.836 -112.836 -181.445 -27.0001 -181.445C58.8362 -181.445 128.445 -111.836 128.445 -26.0001C128.445 59.8362 58.6227 129.445 -27.0001 129.445ZM-27.0001 -177.388C-110.488 -177.388 -178.601 -109.488 -178.601 -25.7865C-178.601 57.9145 -110.701 125.815 -27.0001 125.815C56.701 125.815 124.601 57.9145 124.601 -25.7865C124.601 -109.488 56.4875 -177.388 -27.0001 -177.388Z" fill="#3A506B"/>
<path d="M-27.0001 93.1459C-92.7652 93.1459 -146.146 39.7651 -146.146 -26.0001C-146.146 -91.7652 -92.7652 -145.146 -27.0001 -145.146C38.765 -145.146 92.1458 -91.7652 92.1458 -26.0001C92.1458 39.7651 38.765 93.1459 -27.0001 93.1459ZM-27.0001 -141.303C-90.63 -141.303 -142.303 -89.63 -142.303 -26.0001C-142.303 37.6298 -90.63 89.3024 -27.0001 89.3024C36.6298 89.3024 88.3024 37.6298 88.3024 -26.0001C88.3024 -89.63 36.6298 -141.303 -27.0001 -141.303Z" fill="#3A506B"/>
<path d="M-26.9999 57.0606C-72.6938 57.0606 -110.06 19.9076 -110.06 -25.9999C-110.06 -71.9074 -72.9074 -109.06 -26.9999 -109.06C18.9076 -109.06 56.0606 -71.9074 56.0606 -25.9999C56.0606 19.9076 18.6941 57.0606 -26.9999 57.0606ZM-26.9999 -105.217C-70.5586 -105.217 -106.217 -69.7721 -106.217 -25.9999C-106.217 17.7723 -70.7721 53.2172 -26.9999 53.2172C16.7724 53.2172 52.2172 17.7723 52.2172 -25.9999C52.2172 -69.7721 16.7724 -105.217 -26.9999 -105.217Z" fill="#3A506B"/>
<path d="M-27 20.9751C-52.8363 20.9751 -73.9751 0.0498104 -73.9751 -26C-73.9751 -52.0498 -53.0498 -72.9751 -27 -72.9751C-0.95019 -72.9751 19.9751 -52.0498 19.9751 -26C19.9751 0.0498104 -1.16371 20.9751 -27 20.9751ZM-27 -68.9182C-50.7011 -68.9182 -69.9182 -49.7011 -69.9182 -26C-69.9182 -2.29894 -50.7011 16.9182 -27 16.9182C-3.29894 16.9182 15.9181 -2.29894 15.9181 -26C15.9181 -49.7011 -3.29894 -68.9182 -27 -68.9182Z" fill="#3A506B"/>
</g>
<defs>
<clipPath id="clip0_175_568">
<rect width="150" height="150" fill="white"/>
</clipPath>
</defs>
</svg>
