<svg width="150" height="150" viewBox="0 0 150 150" fill="none" xmlns="http://www.w3.org/2000/svg">
<g clip-path="url(#clip0_175_566)">
<path d="M-99 341C-264.48 341 -399 206.48 -399 41C-399 -124.48 -264.48 -259 -99 -259C66.4804 -259 201 -124.48 201 41C201 206.48 66.4804 341 -99 341ZM-99 -255.157C-262.345 -255.157 -395.157 -122.345 -395.157 41C-395.157 204.345 -262.345 337.157 -99 337.157C64.3452 337.157 197.157 204.345 197.157 41C197.157 -122.345 64.3452 -255.157 -99 -255.157Z" fill="#3A506B"/>
<path d="M-99.0002 304.914C-244.409 304.914 -362.915 186.623 -362.915 40.9998C-362.915 -104.409 -244.623 -222.915 -99.0002 -222.915C46.6226 -222.915 164.914 -104.623 164.914 40.9998C164.914 186.623 46.4091 304.914 -99.0002 304.914ZM-99.0002 -219.071C-242.274 -219.071 -359.071 -102.488 -359.071 40.9998C-359.071 184.274 -242.488 301.071 -99.0002 301.071C44.4874 301.071 161.071 184.487 161.071 40.9998C161.071 -102.274 44.2738 -219.071 -99.0002 -219.071Z" fill="#3A506B"/>
<path d="M-99.0005 268.829C-224.552 268.829 -326.616 166.551 -326.616 40.9997C-326.616 -84.5519 -224.552 -186.616 -99.0005 -186.616C26.5511 -186.616 128.615 -84.5519 128.615 40.9997C128.615 166.551 26.5511 268.829 -99.0005 268.829ZM-99.0005 -182.773C-222.417 -182.773 -322.773 -82.4167 -322.773 40.9997C-322.773 164.416 -222.417 264.772 -99.0005 264.772C24.4159 264.772 124.772 164.416 124.772 40.9997C124.772 -82.4167 24.4159 -182.773 -99.0005 -182.773Z" fill="#3A506B"/>
<path d="M-98.9998 232.53C-204.694 232.53 -290.53 146.694 -290.53 41C-290.53 -64.694 -204.694 -150.53 -98.9998 -150.53C6.69415 -150.53 92.5304 -64.694 92.5304 41C92.5304 146.694 6.69415 232.53 -98.9998 232.53ZM-98.9998 -146.687C-202.559 -146.687 -286.687 -62.5588 -286.687 41C-286.687 144.559 -202.559 228.687 -98.9998 228.687C4.55891 228.687 88.687 144.559 88.687 41C88.687 -62.5588 4.55891 -146.687 -98.9998 -146.687Z" fill="#3A506B"/>
<path d="M-98.9998 196.445C-184.623 196.445 -254.445 126.836 -254.445 40.9999C-254.445 -44.8364 -184.836 -114.445 -98.9998 -114.445C-13.1635 -114.445 56.445 -44.8364 56.445 40.9999C56.445 126.836 -13.377 196.445 -98.9998 196.445ZM-98.9998 -110.388C-182.488 -110.388 -250.601 -42.4876 -250.601 41.2135C-250.601 124.915 -182.701 192.815 -98.9998 192.815C-15.2987 192.815 52.6016 124.915 52.6016 41.2135C52.6016 -42.4876 -15.5122 -110.388 -98.9998 -110.388Z" fill="#3A506B"/>
<path d="M-99.0001 160.146C-164.765 160.146 -218.146 106.765 -218.146 40.9999C-218.146 -24.7652 -164.765 -78.146 -99.0001 -78.146C-33.235 -78.146 20.1458 -24.7652 20.1458 40.9999C20.1458 106.765 -33.235 160.146 -99.0001 160.146ZM-99.0001 -74.3026C-162.63 -74.3026 -214.303 -22.63 -214.303 40.9999C-214.303 104.63 -162.63 156.302 -99.0001 156.302C-35.3702 156.302 16.3024 104.63 16.3024 40.9999C16.3024 -22.63 -35.3702 -74.3026 -99.0001 -74.3026Z" fill="#3A506B"/>
</g>
<defs>
<clipPath id="clip0_175_566">
<rect width="150" height="150" fill="white"/>
</clipPath>
</defs>
</svg>
