<svg width="150" height="150" viewBox="0 0 150 150" fill="none" xmlns="http://www.w3.org/2000/svg">
<g clip-path="url(#clip0_175_569)">
<path d="M-8 208C-173.48 208 -308 73.4804 -308 -92C-308 -257.48 -173.48 -392 -8 -392C157.48 -392 292 -257.48 292 -92C292 73.4804 157.48 208 -8 208ZM-8 -388.157C-171.345 -388.157 -304.157 -255.345 -304.157 -92C-304.157 71.3452 -171.345 204.157 -8 204.157C155.345 204.157 288.157 71.3452 288.157 -92C288.157 -255.345 155.345 -388.157 -8 -388.157Z" fill="#3A506B"/>
<path d="M-8.00021 171.914C-153.409 171.914 -271.915 53.6226 -271.915 -92.0002C-271.915 -237.409 -153.623 -355.915 -8.00021 -355.915C137.623 -355.915 255.914 -237.623 255.914 -92.0002C255.914 53.6226 137.409 171.914 -8.00021 171.914ZM-8.00021 -352.071C-151.274 -352.071 -268.071 -235.488 -268.071 -92.0002C-268.071 51.2738 -151.488 168.071 -8.00021 168.071C135.487 168.071 252.071 51.4874 252.071 -92.0002C252.071 -235.274 135.274 -352.071 -8.00021 -352.071Z" fill="#3A506B"/>
<path d="M-8.00024 135.829C-133.552 135.829 -235.616 33.5512 -235.616 -92.0003C-235.616 -217.552 -133.552 -319.616 -8.00024 -319.616C117.551 -319.616 219.615 -217.552 219.615 -92.0003C219.615 33.5512 117.551 135.829 -8.00024 135.829ZM-8.00024 -315.773C-131.417 -315.773 -231.773 -215.417 -231.773 -92.0003C-231.773 31.416 -131.417 131.772 -8.00024 131.772C115.416 131.772 215.772 31.416 215.772 -92.0003C215.772 -215.417 115.416 -315.773 -8.00024 -315.773Z" fill="#3A506B"/>
<path d="M-8.00005 99.5302C-113.694 99.5302 -199.53 13.6939 -199.53 -92C-199.53 -197.694 -113.694 -283.53 -8.00005 -283.53C97.6939 -283.53 183.53 -197.694 183.53 -92C183.53 13.6939 97.6939 99.5302 -8.00005 99.5302ZM-8.00005 -279.687C-111.559 -279.687 -195.687 -195.559 -195.687 -92C-195.687 11.5587 -111.559 95.6868 -8.00005 95.6868C95.5587 95.6868 179.687 11.5587 179.687 -92C179.687 -195.559 95.5587 -279.687 -8.00005 -279.687Z" fill="#3A506B"/>
<path d="M-8.00005 63.4448C-93.6229 63.4448 -163.445 -6.16372 -163.445 -92.0001C-163.445 -177.836 -93.8364 -247.445 -8.00005 -247.445C77.8362 -247.445 147.445 -177.836 147.445 -92.0001C147.445 -6.16372 77.6227 63.4448 -8.00005 63.4448ZM-8.00005 -243.388C-91.4876 -243.388 -159.601 -175.488 -159.601 -91.7865C-159.601 -8.08542 -91.7011 59.8149 -8.00005 59.8149C75.701 59.8149 143.601 -8.08542 143.601 -91.7865C143.601 -175.488 75.4875 -243.388 -8.00005 -243.388Z" fill="#3A506B"/>
<path d="M-8.00008 27.1459C-73.7652 27.1459 -127.146 -26.2349 -127.146 -92.0001C-127.146 -157.765 -73.7652 -211.146 -8.00008 -211.146C57.765 -211.146 111.146 -157.765 111.146 -92.0001C111.146 -26.2349 57.765 27.1459 -8.00008 27.1459ZM-8.00008 -207.303C-71.63 -207.303 -123.303 -155.63 -123.303 -92.0001C-123.303 -28.3702 -71.63 23.3024 -8.00008 23.3024C55.6298 23.3024 107.302 -28.3702 107.302 -92.0001C107.302 -155.63 55.6298 -207.303 -8.00008 -207.303Z" fill="#3A506B"/>
</g>
<defs>
<clipPath id="clip0_175_569">
<rect width="150" height="150" fill="white"/>
</clipPath>
</defs>
</svg>
