<svg width="780" height="780" viewBox="0 0 780 780" fill="none" xmlns="http://www.w3.org/2000/svg">
<path opacity="0.1" d="M134.61 673.675C142.377 673.675 148.675 667.377 148.675 659.61C148.675 651.842 142.377 645.544 134.61 645.544C126.842 645.544 120.544 651.842 120.544 659.61C120.544 667.377 126.842 673.675 134.61 673.675Z" fill="black" stroke="black" stroke-width="3.92128" stroke-miterlimit="10"/>
<path d="M78.3492 612.698C83.5126 612.698 87.6983 608.513 87.6983 603.349C87.6983 598.186 83.5126 594 78.3492 594C73.1858 594 69 598.186 69 603.349C69 608.513 73.1858 612.698 78.3492 612.698Z" fill="black" stroke="black" stroke-width="1.30708" stroke-miterlimit="10" stroke-linecap="round" stroke-linejoin="round"/>
<path d="M190.952 725.302C196.116 725.302 200.302 721.116 200.302 715.953C200.302 710.789 196.116 706.604 190.952 706.604C185.789 706.604 181.603 710.789 181.603 715.953C181.603 721.116 185.789 725.302 190.952 725.302Z" stroke="black" stroke-width="1.30708" stroke-miterlimit="10" stroke-linecap="round" stroke-linejoin="round"/>
<path d="M134.61 683.024C147.541 683.024 158.024 672.541 158.024 659.61C158.024 646.678 147.541 636.195 134.61 636.195C121.679 636.195 111.196 646.678 111.196 659.61C111.196 672.541 121.679 683.024 134.61 683.024Z" stroke="black" stroke-width="1.30708" stroke-miterlimit="10" stroke-linecap="round" stroke-linejoin="round"/>
<path d="M151.322 676.322L176.888 701.888" stroke="black" stroke-width="1.30708" stroke-miterlimit="10" stroke-linecap="round" stroke-linejoin="round"/>
<path d="M92.4141 617.414L117.897 642.98" stroke="black" stroke-width="1.30708" stroke-miterlimit="10" stroke-linecap="round" stroke-linejoin="round"/>
<path d="M78.3492 725.302C83.5126 725.302 87.6983 721.116 87.6983 715.953C87.6983 710.789 83.5126 706.604 78.3492 706.604C73.1858 706.604 69 710.789 69 715.953C69 721.116 73.1858 725.302 78.3492 725.302Z" stroke="black" stroke-width="1.30708" stroke-miterlimit="10" stroke-linecap="round" stroke-linejoin="round"/>
<path d="M190.952 612.698C196.116 612.698 200.302 608.513 200.302 603.349C200.302 598.186 196.116 594 190.952 594C185.789 594 181.603 598.186 181.603 603.349C181.603 608.513 185.789 612.698 190.952 612.698Z" fill="black" stroke="black" stroke-width="1.30708" stroke-miterlimit="10" stroke-linecap="round" stroke-linejoin="round"/>
<path d="M151.322 642.98L176.888 617.414" stroke="black" stroke-width="1.30708" stroke-miterlimit="10" stroke-linecap="round" stroke-linejoin="round"/>
<path d="M92.4141 701.888L117.897 676.322" stroke="black" stroke-width="1.30708" stroke-miterlimit="10" stroke-linecap="round" stroke-linejoin="round"/>
<path opacity="0.1" d="M309.61 673.675C317.377 673.675 323.675 667.377 323.675 659.61C323.675 651.842 317.377 645.544 309.61 645.544C301.842 645.544 295.544 651.842 295.544 659.61C295.544 667.377 301.842 673.675 309.61 673.675Z" fill="black" stroke="black" stroke-width="3.92128" stroke-miterlimit="10"/>
<path d="M253.349 612.698C258.513 612.698 262.698 608.513 262.698 603.349C262.698 598.186 258.513 594 253.349 594C248.186 594 244 598.186 244 603.349C244 608.513 248.186 612.698 253.349 612.698Z" stroke="black" stroke-width="1.30708" stroke-miterlimit="10" stroke-linecap="round" stroke-linejoin="round"/>
<path d="M365.952 725.302C371.116 725.302 375.302 721.116 375.302 715.953C375.302 710.789 371.116 706.604 365.952 706.604C360.789 706.604 356.603 710.789 356.603 715.953C356.603 721.116 360.789 725.302 365.952 725.302Z" stroke="black" stroke-width="1.30708" stroke-miterlimit="10" stroke-linecap="round" stroke-linejoin="round"/>
<path d="M309.61 683.024C322.541 683.024 333.024 672.541 333.024 659.61C333.024 646.678 322.541 636.195 309.61 636.195C296.679 636.195 286.196 646.678 286.196 659.61C286.196 672.541 296.679 683.024 309.61 683.024Z" stroke="black" stroke-width="1.30708" stroke-miterlimit="10" stroke-linecap="round" stroke-linejoin="round"/>
<path d="M326.322 676.322L351.888 701.888" stroke="black" stroke-width="1.30708" stroke-miterlimit="10" stroke-linecap="round" stroke-linejoin="round"/>
<path d="M267.414 617.414L292.897 642.98" stroke="black" stroke-width="1.30708" stroke-miterlimit="10" stroke-linecap="round" stroke-linejoin="round"/>
<path d="M253.349 725.302C258.513 725.302 262.698 721.116 262.698 715.953C262.698 710.789 258.513 706.604 253.349 706.604C248.186 706.604 244 710.789 244 715.953C244 721.116 248.186 725.302 253.349 725.302Z" stroke="black" stroke-width="1.30708" stroke-miterlimit="10" stroke-linecap="round" stroke-linejoin="round"/>
<path d="M365.952 612.698C371.116 612.698 375.302 608.513 375.302 603.349C375.302 598.186 371.116 594 365.952 594C360.789 594 356.603 598.186 356.603 603.349C356.603 608.513 360.789 612.698 365.952 612.698Z" fill="black" stroke="black" stroke-width="1.30708" stroke-miterlimit="10" stroke-linecap="round" stroke-linejoin="round"/>
<path d="M326.322 642.98L351.888 617.414" stroke="black" stroke-width="1.30708" stroke-miterlimit="10" stroke-linecap="round" stroke-linejoin="round"/>
<path d="M267.414 701.888L292.897 676.322" stroke="black" stroke-width="1.30708" stroke-miterlimit="10" stroke-linecap="round" stroke-linejoin="round"/>
<path opacity="0.1" d="M309.61 148.675C317.377 148.675 323.675 142.378 323.675 134.61C323.675 126.842 317.377 120.544 309.61 120.544C301.842 120.544 295.544 126.842 295.544 134.61C295.544 142.378 301.842 148.675 309.61 148.675Z" fill="black" stroke="black" stroke-width="3.92128" stroke-miterlimit="10"/>
<path d="M253.349 87.6984C258.513 87.6984 262.698 83.5126 262.698 78.3492C262.698 73.1858 258.513 69 253.349 69C248.186 69 244 73.1858 244 78.3492C244 83.5126 248.186 87.6984 253.349 87.6984Z" fill="black" stroke="black" stroke-width="1.30708" stroke-miterlimit="10" stroke-linecap="round" stroke-linejoin="round"/>
<path d="M365.952 200.302C371.116 200.302 375.302 196.116 375.302 190.953C375.302 185.789 371.116 181.604 365.952 181.604C360.789 181.604 356.603 185.789 356.603 190.953C356.603 196.116 360.789 200.302 365.952 200.302Z" fill="black" stroke="black" stroke-width="1.30708" stroke-miterlimit="10" stroke-linecap="round" stroke-linejoin="round"/>
<path d="M309.61 158.024C322.541 158.024 333.024 147.541 333.024 134.61C333.024 121.678 322.541 111.195 309.61 111.195C296.679 111.195 286.196 121.678 286.196 134.61C286.196 147.541 296.679 158.024 309.61 158.024Z" stroke="black" stroke-width="1.30708" stroke-miterlimit="10" stroke-linecap="round" stroke-linejoin="round"/>
<path d="M326.322 151.322L351.888 176.888" stroke="black" stroke-width="1.30708" stroke-miterlimit="10" stroke-linecap="round" stroke-linejoin="round"/>
<path d="M267.414 92.4143L292.897 117.98" stroke="black" stroke-width="1.30708" stroke-miterlimit="10" stroke-linecap="round" stroke-linejoin="round"/>
<path d="M253.349 200.302C258.513 200.302 262.698 196.116 262.698 190.953C262.698 185.789 258.513 181.604 253.349 181.604C248.186 181.604 244 185.789 244 190.953C244 196.116 248.186 200.302 253.349 200.302Z" stroke="black" stroke-width="1.30708" stroke-miterlimit="10" stroke-linecap="round" stroke-linejoin="round"/>
<path d="M365.952 87.6984C371.116 87.6984 375.302 83.5126 375.302 78.3492C375.302 73.1858 371.116 69 365.952 69C360.789 69 356.603 73.1858 356.603 78.3492C356.603 83.5126 360.789 87.6984 365.952 87.6984Z" fill="black" stroke="black" stroke-width="1.30708" stroke-miterlimit="10" stroke-linecap="round" stroke-linejoin="round"/>
<path d="M326.322 117.98L351.888 92.4143" stroke="black" stroke-width="1.30708" stroke-miterlimit="10" stroke-linecap="round" stroke-linejoin="round"/>
<path d="M267.414 176.888L292.897 151.322" stroke="black" stroke-width="1.30708" stroke-miterlimit="10" stroke-linecap="round" stroke-linejoin="round"/>
<path opacity="0.1" d="M484.61 323.675C492.377 323.675 498.675 317.377 498.675 309.61C498.675 301.842 492.377 295.544 484.61 295.544C476.842 295.544 470.544 301.842 470.544 309.61C470.544 317.377 476.842 323.675 484.61 323.675Z" fill="black" stroke="black" stroke-width="3.92128" stroke-miterlimit="10"/>
<path d="M428.349 262.698C433.513 262.698 437.698 258.513 437.698 253.349C437.698 248.186 433.513 244 428.349 244C423.186 244 419 248.186 419 253.349C419 258.513 423.186 262.698 428.349 262.698Z" stroke="black" stroke-width="1.30708" stroke-miterlimit="10" stroke-linecap="round" stroke-linejoin="round"/>
<path d="M540.952 375.302C546.116 375.302 550.302 371.116 550.302 365.953C550.302 360.789 546.116 356.604 540.952 356.604C535.789 356.604 531.603 360.789 531.603 365.953C531.603 371.116 535.789 375.302 540.952 375.302Z" stroke="black" stroke-width="1.30708" stroke-miterlimit="10" stroke-linecap="round" stroke-linejoin="round"/>
<path d="M484.61 333.024C497.541 333.024 508.024 322.541 508.024 309.61C508.024 296.678 497.541 286.195 484.61 286.195C471.679 286.195 461.196 296.678 461.196 309.61C461.196 322.541 471.679 333.024 484.61 333.024Z" stroke="black" stroke-width="1.30708" stroke-miterlimit="10" stroke-linecap="round" stroke-linejoin="round"/>
<path d="M501.322 326.322L526.888 351.888" stroke="black" stroke-width="1.30708" stroke-miterlimit="10" stroke-linecap="round" stroke-linejoin="round"/>
<path d="M442.414 267.414L467.897 292.98" stroke="black" stroke-width="1.30708" stroke-miterlimit="10" stroke-linecap="round" stroke-linejoin="round"/>
<path d="M428.349 375.302C433.513 375.302 437.698 371.116 437.698 365.953C437.698 360.789 433.513 356.604 428.349 356.604C423.186 356.604 419 360.789 419 365.953C419 371.116 423.186 375.302 428.349 375.302Z" stroke="black" stroke-width="1.30708" stroke-miterlimit="10" stroke-linecap="round" stroke-linejoin="round"/>
<path d="M540.952 262.698C546.116 262.698 550.302 258.513 550.302 253.349C550.302 248.186 546.116 244 540.952 244C535.789 244 531.603 248.186 531.603 253.349C531.603 258.513 535.789 262.698 540.952 262.698Z" stroke="black" stroke-width="1.30708" stroke-miterlimit="10" stroke-linecap="round" stroke-linejoin="round"/>
<path d="M501.322 292.98L526.888 267.414" stroke="black" stroke-width="1.30708" stroke-miterlimit="10" stroke-linecap="round" stroke-linejoin="round"/>
<path d="M442.414 351.888L467.897 326.322" stroke="black" stroke-width="1.30708" stroke-miterlimit="10" stroke-linecap="round" stroke-linejoin="round"/>
<path opacity="0.1" d="M309.61 323.675C317.377 323.675 323.675 317.377 323.675 309.61C323.675 301.842 317.377 295.544 309.61 295.544C301.842 295.544 295.544 301.842 295.544 309.61C295.544 317.377 301.842 323.675 309.61 323.675Z" fill="black" stroke="black" stroke-width="3.92128" stroke-miterlimit="10"/>
<path d="M253.349 262.698C258.513 262.698 262.698 258.513 262.698 253.349C262.698 248.186 258.513 244 253.349 244C248.186 244 244 248.186 244 253.349C244 258.513 248.186 262.698 253.349 262.698Z" fill="black" stroke="black" stroke-width="1.30708" stroke-miterlimit="10" stroke-linecap="round" stroke-linejoin="round"/>
<path d="M365.952 375.302C371.116 375.302 375.302 371.116 375.302 365.953C375.302 360.789 371.116 356.604 365.952 356.604C360.789 356.604 356.603 360.789 356.603 365.953C356.603 371.116 360.789 375.302 365.952 375.302Z" stroke="black" stroke-width="1.30708" stroke-miterlimit="10" stroke-linecap="round" stroke-linejoin="round"/>
<path d="M309.61 333.024C322.541 333.024 333.024 322.541 333.024 309.61C333.024 296.678 322.541 286.195 309.61 286.195C296.679 286.195 286.196 296.678 286.196 309.61C286.196 322.541 296.679 333.024 309.61 333.024Z" stroke="black" stroke-width="1.30708" stroke-miterlimit="10" stroke-linecap="round" stroke-linejoin="round"/>
<path d="M326.322 326.322L351.888 351.888" stroke="black" stroke-width="1.30708" stroke-miterlimit="10" stroke-linecap="round" stroke-linejoin="round"/>
<path d="M267.414 267.414L292.897 292.98" stroke="black" stroke-width="1.30708" stroke-miterlimit="10" stroke-linecap="round" stroke-linejoin="round"/>
<path d="M253.349 375.302C258.513 375.302 262.698 371.116 262.698 365.953C262.698 360.789 258.513 356.604 253.349 356.604C248.186 356.604 244 360.789 244 365.953C244 371.116 248.186 375.302 253.349 375.302Z" stroke="black" stroke-width="1.30708" stroke-miterlimit="10" stroke-linecap="round" stroke-linejoin="round"/>
<path d="M365.952 262.698C371.116 262.698 375.302 258.513 375.302 253.349C375.302 248.186 371.116 244 365.952 244C360.789 244 356.603 248.186 356.603 253.349C356.603 258.513 360.789 262.698 365.952 262.698Z" stroke="black" stroke-width="1.30708" stroke-miterlimit="10" stroke-linecap="round" stroke-linejoin="round"/>
<path d="M326.322 292.98L351.888 267.414" stroke="black" stroke-width="1.30708" stroke-miterlimit="10" stroke-linecap="round" stroke-linejoin="round"/>
<path d="M267.414 351.888L292.897 326.322" stroke="black" stroke-width="1.30708" stroke-miterlimit="10" stroke-linecap="round" stroke-linejoin="round"/>
<path opacity="0.1" d="M134.61 323.675C142.377 323.675 148.675 317.377 148.675 309.61C148.675 301.842 142.377 295.544 134.61 295.544C126.842 295.544 120.544 301.842 120.544 309.61C120.544 317.377 126.842 323.675 134.61 323.675Z" fill="black" stroke="black" stroke-width="3.92128" stroke-miterlimit="10"/>
<path d="M78.3492 262.698C83.5126 262.698 87.6983 258.513 87.6983 253.349C87.6983 248.186 83.5126 244 78.3492 244C73.1858 244 69 248.186 69 253.349C69 258.513 73.1858 262.698 78.3492 262.698Z" fill="black" stroke="black" stroke-width="1.30708" stroke-miterlimit="10" stroke-linecap="round" stroke-linejoin="round"/>
<path d="M190.952 375.302C196.116 375.302 200.302 371.116 200.302 365.953C200.302 360.789 196.116 356.604 190.952 356.604C185.789 356.604 181.603 360.789 181.603 365.953C181.603 371.116 185.789 375.302 190.952 375.302Z" stroke="black" stroke-width="1.30708" stroke-miterlimit="10" stroke-linecap="round" stroke-linejoin="round"/>
<path d="M134.61 333.024C147.541 333.024 158.024 322.541 158.024 309.61C158.024 296.678 147.541 286.195 134.61 286.195C121.679 286.195 111.196 296.678 111.196 309.61C111.196 322.541 121.679 333.024 134.61 333.024Z" stroke="black" stroke-width="1.30708" stroke-miterlimit="10" stroke-linecap="round" stroke-linejoin="round"/>
<path d="M151.322 326.322L176.888 351.888" stroke="black" stroke-width="1.30708" stroke-miterlimit="10" stroke-linecap="round" stroke-linejoin="round"/>
<path d="M92.4141 267.414L117.897 292.98" stroke="black" stroke-width="1.30708" stroke-miterlimit="10" stroke-linecap="round" stroke-linejoin="round"/>
<path d="M78.3492 375.302C83.5126 375.302 87.6983 371.116 87.6983 365.953C87.6983 360.789 83.5126 356.604 78.3492 356.604C73.1858 356.604 69 360.789 69 365.953C69 371.116 73.1858 375.302 78.3492 375.302Z" fill="black" stroke="black" stroke-width="1.30708" stroke-miterlimit="10" stroke-linecap="round" stroke-linejoin="round"/>
<path d="M190.952 262.698C196.116 262.698 200.302 258.513 200.302 253.349C200.302 248.186 196.116 244 190.952 244C185.789 244 181.603 248.186 181.603 253.349C181.603 258.513 185.789 262.698 190.952 262.698Z" stroke="black" stroke-width="1.30708" stroke-miterlimit="10" stroke-linecap="round" stroke-linejoin="round"/>
<path d="M151.322 292.98L176.888 267.414" stroke="black" stroke-width="1.30708" stroke-miterlimit="10" stroke-linecap="round" stroke-linejoin="round"/>
<path d="M92.4141 351.888L117.897 326.322" stroke="black" stroke-width="1.30708" stroke-miterlimit="10" stroke-linecap="round" stroke-linejoin="round"/>
<path opacity="0.1" d="M659.61 498.675C667.377 498.675 673.675 492.377 673.675 484.61C673.675 476.842 667.377 470.544 659.61 470.544C651.842 470.544 645.544 476.842 645.544 484.61C645.544 492.377 651.842 498.675 659.61 498.675Z" fill="black" stroke="black" stroke-width="3.92128" stroke-miterlimit="10"/>
<path d="M603.349 437.698C608.513 437.698 612.698 433.513 612.698 428.349C612.698 423.186 608.513 419 603.349 419C598.186 419 594 423.186 594 428.349C594 433.513 598.186 437.698 603.349 437.698Z" fill="black" stroke="black" stroke-width="1.30708" stroke-miterlimit="10" stroke-linecap="round" stroke-linejoin="round"/>
<path d="M715.952 550.302C721.116 550.302 725.302 546.116 725.302 540.953C725.302 535.789 721.116 531.604 715.952 531.604C710.789 531.604 706.603 535.789 706.603 540.953C706.603 546.116 710.789 550.302 715.952 550.302Z" stroke="black" stroke-width="1.30708" stroke-miterlimit="10" stroke-linecap="round" stroke-linejoin="round"/>
<path d="M659.61 508.024C672.541 508.024 683.024 497.541 683.024 484.61C683.024 471.678 672.541 461.195 659.61 461.195C646.679 461.195 636.196 471.678 636.196 484.61C636.196 497.541 646.679 508.024 659.61 508.024Z" stroke="black" stroke-width="1.30708" stroke-miterlimit="10" stroke-linecap="round" stroke-linejoin="round"/>
<path d="M676.322 501.322L701.888 526.888" stroke="black" stroke-width="1.30708" stroke-miterlimit="10" stroke-linecap="round" stroke-linejoin="round"/>
<path d="M617.414 442.414L642.897 467.98" stroke="black" stroke-width="1.30708" stroke-miterlimit="10" stroke-linecap="round" stroke-linejoin="round"/>
<path d="M603.349 550.302C608.513 550.302 612.698 546.116 612.698 540.953C612.698 535.789 608.513 531.604 603.349 531.604C598.186 531.604 594 535.789 594 540.953C594 546.116 598.186 550.302 603.349 550.302Z" fill="black" stroke="black" stroke-width="1.30708" stroke-miterlimit="10" stroke-linecap="round" stroke-linejoin="round"/>
<path d="M715.952 437.698C721.116 437.698 725.302 433.513 725.302 428.349C725.302 423.186 721.116 419 715.952 419C710.789 419 706.603 423.186 706.603 428.349C706.603 433.513 710.789 437.698 715.952 437.698Z" fill="black" stroke="black" stroke-width="1.30708" stroke-miterlimit="10" stroke-linecap="round" stroke-linejoin="round"/>
<path d="M676.322 467.98L701.888 442.414" stroke="black" stroke-width="1.30708" stroke-miterlimit="10" stroke-linecap="round" stroke-linejoin="round"/>
<path d="M617.414 526.888L642.897 501.322" stroke="black" stroke-width="1.30708" stroke-miterlimit="10" stroke-linecap="round" stroke-linejoin="round"/>
<path d="M35.7182 15H744.282C755.332 15 765 24.6685 765 35.7182V744.282C765 755.331 755.332 765 744.282 765H35.7182C24.6685 765 15 755.331 15 744.282V35.7182C16.3812 24.6685 24.6685 15 35.7182 15Z" stroke="#3A506B" stroke-width="30" stroke-miterlimit="10"/>
<path d="M589.144 585H730.856C733.066 585 735 586.934 735 589.144V730.856C735 733.066 733.066 735 730.856 735H589.144C586.934 735 585 733.066 585 730.856V589.144C585.276 586.934 586.934 585 589.144 585Z" stroke="#90A8C5" stroke-width="6" stroke-miterlimit="10"/>
<path d="M589.144 585H730.856C733.066 585 735 586.934 735 589.144V730.856C735 733.066 733.066 735 730.856 735H589.144C586.934 735 585 733.066 585 730.856V589.144C585.276 586.934 586.934 585 589.144 585Z" stroke="#90A8C5" stroke-width="6" stroke-miterlimit="10"/>
<path d="M653.266 675.546V675.119C653.314 670.598 653.787 666.999 654.687 664.324C655.586 661.649 656.865 659.483 658.522 657.825C660.179 656.168 662.168 654.641 664.488 653.244C665.885 652.392 667.139 651.386 668.252 650.226C669.365 649.042 670.241 647.681 670.88 646.142C671.543 644.603 671.874 642.899 671.874 641.029C671.874 638.708 671.33 636.696 670.241 634.992C669.152 633.287 667.696 631.973 665.873 631.05C664.05 630.127 662.026 629.665 659.8 629.665C657.859 629.665 655.989 630.067 654.189 630.872C652.39 631.677 650.887 632.944 649.68 634.672C648.472 636.4 647.774 638.661 647.584 641.455H638.635C638.825 637.43 639.867 633.985 641.76 631.121C643.678 628.256 646.199 626.066 649.324 624.551C652.473 623.036 655.965 622.279 659.8 622.279C663.967 622.279 667.589 623.107 670.667 624.764C673.768 626.422 676.159 628.694 677.84 631.583C679.545 634.471 680.397 637.761 680.397 641.455C680.397 644.059 679.994 646.414 679.189 648.521C678.408 650.628 677.272 652.511 675.78 654.168C674.313 655.825 672.537 657.293 670.454 658.571C668.37 659.873 666.701 661.246 665.447 662.69C664.192 664.111 663.28 665.804 662.712 667.769C662.144 669.734 661.836 672.184 661.789 675.119V675.546H653.266ZM657.812 696.568C656.06 696.568 654.556 695.941 653.302 694.686C652.047 693.431 651.42 691.928 651.42 690.176C651.42 688.424 652.047 686.921 653.302 685.666C654.556 684.412 656.06 683.784 657.812 683.784C659.564 683.784 661.067 684.412 662.322 685.666C663.576 686.921 664.204 688.424 664.204 690.176C664.204 691.336 663.908 692.402 663.316 693.372C662.748 694.343 661.978 695.124 661.008 695.716C660.061 696.284 658.995 696.568 657.812 696.568Z" fill="#90A8C5"/>
<path opacity="0.1" d="M659.61 148.675C667.377 148.675 673.675 142.378 673.675 134.61C673.675 126.842 667.377 120.544 659.61 120.544C651.842 120.544 645.544 126.842 645.544 134.61C645.544 142.378 651.842 148.675 659.61 148.675Z" fill="black" stroke="black" stroke-width="3.92128" stroke-miterlimit="10"/>
<path d="M603.349 87.6984C608.513 87.6984 612.698 83.5126 612.698 78.3492C612.698 73.1858 608.513 69 603.349 69C598.186 69 594 73.1858 594 78.3492C594 83.5126 598.186 87.6984 603.349 87.6984Z" fill="black" stroke="black" stroke-width="1.30708" stroke-miterlimit="10" stroke-linecap="round" stroke-linejoin="round"/>
<path d="M715.952 200.302C721.116 200.302 725.302 196.116 725.302 190.953C725.302 185.789 721.116 181.604 715.952 181.604C710.789 181.604 706.603 185.789 706.603 190.953C706.603 196.116 710.789 200.302 715.952 200.302Z" fill="black" stroke="black" stroke-width="1.30708" stroke-miterlimit="10" stroke-linecap="round" stroke-linejoin="round"/>
<path d="M659.61 158.024C672.541 158.024 683.024 147.541 683.024 134.61C683.024 121.678 672.541 111.195 659.61 111.195C646.679 111.195 636.196 121.678 636.196 134.61C636.196 147.541 646.679 158.024 659.61 158.024Z" stroke="black" stroke-width="1.30708" stroke-miterlimit="10" stroke-linecap="round" stroke-linejoin="round"/>
<path d="M676.322 151.322L701.888 176.888" stroke="black" stroke-width="1.30708" stroke-miterlimit="10" stroke-linecap="round" stroke-linejoin="round"/>
<path d="M617.414 92.4143L642.897 117.98" stroke="black" stroke-width="1.30708" stroke-miterlimit="10" stroke-linecap="round" stroke-linejoin="round"/>
<path d="M603.349 200.302C608.513 200.302 612.698 196.116 612.698 190.953C612.698 185.789 608.513 181.604 603.349 181.604C598.186 181.604 594 185.789 594 190.953C594 196.116 598.186 200.302 603.349 200.302Z" fill="black" stroke="black" stroke-width="1.30708" stroke-miterlimit="10" stroke-linecap="round" stroke-linejoin="round"/>
<path d="M715.952 87.6984C721.116 87.6984 725.302 83.5126 725.302 78.3492C725.302 73.1858 721.116 69 715.952 69C710.789 69 706.603 73.1858 706.603 78.3492C706.603 83.5126 710.789 87.6984 715.952 87.6984Z" stroke="black" stroke-width="1.30708" stroke-miterlimit="10" stroke-linecap="round" stroke-linejoin="round"/>
<path d="M676.322 117.98L701.888 92.4143" stroke="black" stroke-width="1.30708" stroke-miterlimit="10" stroke-linecap="round" stroke-linejoin="round"/>
<path d="M617.414 176.888L642.897 151.322" stroke="black" stroke-width="1.30708" stroke-miterlimit="10" stroke-linecap="round" stroke-linejoin="round"/>
<path opacity="0.1" d="M484.61 148.675C492.377 148.675 498.675 142.378 498.675 134.61C498.675 126.842 492.377 120.544 484.61 120.544C476.842 120.544 470.544 126.842 470.544 134.61C470.544 142.378 476.842 148.675 484.61 148.675Z" fill="black" stroke="black" stroke-width="3.92128" stroke-miterlimit="10"/>
<path d="M428.349 87.6984C433.513 87.6984 437.698 83.5126 437.698 78.3492C437.698 73.1858 433.513 69 428.349 69C423.186 69 419 73.1858 419 78.3492C419 83.5126 423.186 87.6984 428.349 87.6984Z" fill="black" stroke="black" stroke-width="1.30708" stroke-miterlimit="10" stroke-linecap="round" stroke-linejoin="round"/>
<path d="M540.952 200.302C546.116 200.302 550.302 196.116 550.302 190.953C550.302 185.789 546.116 181.604 540.952 181.604C535.789 181.604 531.603 185.789 531.603 190.953C531.603 196.116 535.789 200.302 540.952 200.302Z" fill="black" stroke="black" stroke-width="1.30708" stroke-miterlimit="10" stroke-linecap="round" stroke-linejoin="round"/>
<path d="M484.61 158.024C497.541 158.024 508.024 147.541 508.024 134.61C508.024 121.678 497.541 111.195 484.61 111.195C471.679 111.195 461.196 121.678 461.196 134.61C461.196 147.541 471.679 158.024 484.61 158.024Z" stroke="black" stroke-width="1.30708" stroke-miterlimit="10" stroke-linecap="round" stroke-linejoin="round"/>
<path d="M501.322 151.322L526.888 176.888" stroke="black" stroke-width="1.30708" stroke-miterlimit="10" stroke-linecap="round" stroke-linejoin="round"/>
<path d="M442.414 92.4143L467.897 117.98" stroke="black" stroke-width="1.30708" stroke-miterlimit="10" stroke-linecap="round" stroke-linejoin="round"/>
<path d="M428.349 200.302C433.513 200.302 437.698 196.116 437.698 190.953C437.698 185.789 433.513 181.604 428.349 181.604C423.186 181.604 419 185.789 419 190.953C419 196.116 423.186 200.302 428.349 200.302Z" fill="black" stroke="black" stroke-width="1.30708" stroke-miterlimit="10" stroke-linecap="round" stroke-linejoin="round"/>
<path d="M540.952 87.6984C546.116 87.6984 550.302 83.5126 550.302 78.3492C550.302 73.1858 546.116 69 540.952 69C535.789 69 531.603 73.1858 531.603 78.3492C531.603 83.5126 535.789 87.6984 540.952 87.6984Z" fill="black" stroke="black" stroke-width="1.30708" stroke-miterlimit="10" stroke-linecap="round" stroke-linejoin="round"/>
<path d="M501.322 117.98L526.888 92.4143" stroke="black" stroke-width="1.30708" stroke-miterlimit="10" stroke-linecap="round" stroke-linejoin="round"/>
<path d="M442.414 176.888L467.897 151.322" stroke="black" stroke-width="1.30708" stroke-miterlimit="10" stroke-linecap="round" stroke-linejoin="round"/>
<path opacity="0.1" d="M484.61 498.675C492.377 498.675 498.675 492.377 498.675 484.61C498.675 476.842 492.377 470.544 484.61 470.544C476.842 470.544 470.544 476.842 470.544 484.61C470.544 492.377 476.842 498.675 484.61 498.675Z" fill="black" stroke="black" stroke-width="3.92128" stroke-miterlimit="10"/>
<path d="M428.349 437.698C433.513 437.698 437.698 433.513 437.698 428.349C437.698 423.186 433.513 419 428.349 419C423.186 419 419 423.186 419 428.349C419 433.513 423.186 437.698 428.349 437.698Z" fill="black" stroke="black" stroke-width="1.30708" stroke-miterlimit="10" stroke-linecap="round" stroke-linejoin="round"/>
<path d="M540.952 550.302C546.116 550.302 550.302 546.116 550.302 540.953C550.302 535.789 546.116 531.604 540.952 531.604C535.789 531.604 531.603 535.789 531.603 540.953C531.603 546.116 535.789 550.302 540.952 550.302Z" fill="black" stroke="black" stroke-width="1.30708" stroke-miterlimit="10" stroke-linecap="round" stroke-linejoin="round"/>
<path d="M484.61 508.024C497.541 508.024 508.024 497.541 508.024 484.61C508.024 471.678 497.541 461.195 484.61 461.195C471.679 461.195 461.196 471.678 461.196 484.61C461.196 497.541 471.679 508.024 484.61 508.024Z" stroke="black" stroke-width="1.30708" stroke-miterlimit="10" stroke-linecap="round" stroke-linejoin="round"/>
<path d="M501.322 501.322L526.888 526.888" stroke="black" stroke-width="1.30708" stroke-miterlimit="10" stroke-linecap="round" stroke-linejoin="round"/>
<path d="M442.414 442.414L467.897 467.98" stroke="black" stroke-width="1.30708" stroke-miterlimit="10" stroke-linecap="round" stroke-linejoin="round"/>
<path d="M428.349 550.302C433.513 550.302 437.698 546.116 437.698 540.953C437.698 535.789 433.513 531.604 428.349 531.604C423.186 531.604 419 535.789 419 540.953C419 546.116 423.186 550.302 428.349 550.302Z" fill="black" stroke="black" stroke-width="1.30708" stroke-miterlimit="10" stroke-linecap="round" stroke-linejoin="round"/>
<path d="M540.952 437.698C546.116 437.698 550.302 433.513 550.302 428.349C550.302 423.186 546.116 419 540.952 419C535.789 419 531.603 423.186 531.603 428.349C531.603 433.513 535.789 437.698 540.952 437.698Z" fill="black" stroke="black" stroke-width="1.30708" stroke-miterlimit="10" stroke-linecap="round" stroke-linejoin="round"/>
<path d="M501.322 467.98L526.888 442.414" stroke="black" stroke-width="1.30708" stroke-miterlimit="10" stroke-linecap="round" stroke-linejoin="round"/>
<path d="M442.414 526.888L467.897 501.322" stroke="black" stroke-width="1.30708" stroke-miterlimit="10" stroke-linecap="round" stroke-linejoin="round"/>
<path opacity="0.1" d="M659.61 323.675C667.377 323.675 673.675 317.377 673.675 309.61C673.675 301.842 667.377 295.544 659.61 295.544C651.842 295.544 645.544 301.842 645.544 309.61C645.544 317.377 651.842 323.675 659.61 323.675Z" fill="black" stroke="black" stroke-width="3.92128" stroke-miterlimit="10"/>
<path d="M603.349 262.698C608.513 262.698 612.698 258.513 612.698 253.349C612.698 248.186 608.513 244 603.349 244C598.186 244 594 248.186 594 253.349C594 258.513 598.186 262.698 603.349 262.698Z" stroke="black" stroke-width="1.30708" stroke-miterlimit="10" stroke-linecap="round" stroke-linejoin="round"/>
<path d="M715.952 375.302C721.116 375.302 725.302 371.116 725.302 365.953C725.302 360.789 721.116 356.604 715.952 356.604C710.789 356.604 706.603 360.789 706.603 365.953C706.603 371.116 710.789 375.302 715.952 375.302Z" stroke="black" stroke-width="1.30708" stroke-miterlimit="10" stroke-linecap="round" stroke-linejoin="round"/>
<path d="M659.61 333.024C672.541 333.024 683.024 322.541 683.024 309.61C683.024 296.678 672.541 286.195 659.61 286.195C646.679 286.195 636.196 296.678 636.196 309.61C636.196 322.541 646.679 333.024 659.61 333.024Z" stroke="black" stroke-width="1.30708" stroke-miterlimit="10" stroke-linecap="round" stroke-linejoin="round"/>
<path d="M676.322 326.322L701.888 351.888" stroke="black" stroke-width="1.30708" stroke-miterlimit="10" stroke-linecap="round" stroke-linejoin="round"/>
<path d="M617.414 267.414L642.897 292.98" stroke="black" stroke-width="1.30708" stroke-miterlimit="10" stroke-linecap="round" stroke-linejoin="round"/>
<path d="M603.349 375.302C608.513 375.302 612.698 371.116 612.698 365.953C612.698 360.789 608.513 356.604 603.349 356.604C598.186 356.604 594 360.789 594 365.953C594 371.116 598.186 375.302 603.349 375.302Z" stroke="black" stroke-width="1.30708" stroke-miterlimit="10" stroke-linecap="round" stroke-linejoin="round"/>
<path d="M715.952 262.698C721.116 262.698 725.302 258.513 725.302 253.349C725.302 248.186 721.116 244 715.952 244C710.789 244 706.603 248.186 706.603 253.349C706.603 258.513 710.789 262.698 715.952 262.698Z" fill="black" stroke="black" stroke-width="1.30708" stroke-miterlimit="10" stroke-linecap="round" stroke-linejoin="round"/>
<path d="M676.322 292.98L701.888 267.414" stroke="black" stroke-width="1.30708" stroke-miterlimit="10" stroke-linecap="round" stroke-linejoin="round"/>
<path d="M617.414 351.888L642.897 326.322" stroke="black" stroke-width="1.30708" stroke-miterlimit="10" stroke-linecap="round" stroke-linejoin="round"/>
<path opacity="0.1" d="M484.61 673.675C492.377 673.675 498.675 667.377 498.675 659.61C498.675 651.842 492.377 645.544 484.61 645.544C476.842 645.544 470.544 651.842 470.544 659.61C470.544 667.377 476.842 673.675 484.61 673.675Z" fill="black" stroke="black" stroke-width="3.92128" stroke-miterlimit="10"/>
<path d="M428.349 612.698C433.513 612.698 437.698 608.513 437.698 603.349C437.698 598.186 433.513 594 428.349 594C423.186 594 419 598.186 419 603.349C419 608.513 423.186 612.698 428.349 612.698Z" stroke="black" stroke-width="1.30708" stroke-miterlimit="10" stroke-linecap="round" stroke-linejoin="round"/>
<path d="M540.952 725.302C546.116 725.302 550.302 721.116 550.302 715.953C550.302 710.789 546.116 706.604 540.952 706.604C535.789 706.604 531.603 710.789 531.603 715.953C531.603 721.116 535.789 725.302 540.952 725.302Z" stroke="black" stroke-width="1.30708" stroke-miterlimit="10" stroke-linecap="round" stroke-linejoin="round"/>
<path d="M484.61 683.024C497.541 683.024 508.024 672.541 508.024 659.61C508.024 646.678 497.541 636.195 484.61 636.195C471.679 636.195 461.196 646.678 461.196 659.61C461.196 672.541 471.679 683.024 484.61 683.024Z" stroke="black" stroke-width="1.30708" stroke-miterlimit="10" stroke-linecap="round" stroke-linejoin="round"/>
<path d="M501.322 676.322L526.888 701.888" stroke="black" stroke-width="1.30708" stroke-miterlimit="10" stroke-linecap="round" stroke-linejoin="round"/>
<path d="M442.414 617.414L467.897 642.98" stroke="black" stroke-width="1.30708" stroke-miterlimit="10" stroke-linecap="round" stroke-linejoin="round"/>
<path d="M428.349 725.302C433.513 725.302 437.698 721.116 437.698 715.953C437.698 710.789 433.513 706.604 428.349 706.604C423.186 706.604 419 710.789 419 715.953C419 721.116 423.186 725.302 428.349 725.302Z" stroke="black" stroke-width="1.30708" stroke-miterlimit="10" stroke-linecap="round" stroke-linejoin="round"/>
<path d="M540.952 612.698C546.116 612.698 550.302 608.513 550.302 603.349C550.302 598.186 546.116 594 540.952 594C535.789 594 531.603 598.186 531.603 603.349C531.603 608.513 535.789 612.698 540.952 612.698Z" stroke="black" stroke-width="1.30708" stroke-miterlimit="10" stroke-linecap="round" stroke-linejoin="round"/>
<path d="M501.322 642.98L526.888 617.414" stroke="black" stroke-width="1.30708" stroke-miterlimit="10" stroke-linecap="round" stroke-linejoin="round"/>
<path d="M442.414 701.888L467.897 676.322" stroke="black" stroke-width="1.30708" stroke-miterlimit="10" stroke-linecap="round" stroke-linejoin="round"/>
<path opacity="0.1" d="M134.61 498.675C142.377 498.675 148.675 492.377 148.675 484.61C148.675 476.842 142.377 470.544 134.61 470.544C126.842 470.544 120.544 476.842 120.544 484.61C120.544 492.377 126.842 498.675 134.61 498.675Z" fill="black" stroke="black" stroke-width="3.92128" stroke-miterlimit="10"/>
<path d="M78.3492 437.698C83.5126 437.698 87.6983 433.513 87.6983 428.349C87.6983 423.186 83.5126 419 78.3492 419C73.1858 419 69 423.186 69 428.349C69 433.513 73.1858 437.698 78.3492 437.698Z" stroke="black" stroke-width="1.30708" stroke-miterlimit="10" stroke-linecap="round" stroke-linejoin="round"/>
<path d="M190.952 550.302C196.116 550.302 200.302 546.116 200.302 540.953C200.302 535.789 196.116 531.604 190.952 531.604C185.789 531.604 181.603 535.789 181.603 540.953C181.603 546.116 185.789 550.302 190.952 550.302Z" fill="black" stroke="black" stroke-width="1.30708" stroke-miterlimit="10" stroke-linecap="round" stroke-linejoin="round"/>
<path d="M134.61 508.024C147.541 508.024 158.024 497.541 158.024 484.61C158.024 471.678 147.541 461.195 134.61 461.195C121.679 461.195 111.196 471.678 111.196 484.61C111.196 497.541 121.679 508.024 134.61 508.024Z" stroke="black" stroke-width="1.30708" stroke-miterlimit="10" stroke-linecap="round" stroke-linejoin="round"/>
<path d="M151.322 501.322L176.888 526.888" stroke="black" stroke-width="1.30708" stroke-miterlimit="10" stroke-linecap="round" stroke-linejoin="round"/>
<path d="M92.4141 442.414L117.897 467.98" stroke="black" stroke-width="1.30708" stroke-miterlimit="10" stroke-linecap="round" stroke-linejoin="round"/>
<path d="M78.3492 550.302C83.5126 550.302 87.6983 546.116 87.6983 540.953C87.6983 535.789 83.5126 531.604 78.3492 531.604C73.1858 531.604 69 535.789 69 540.953C69 546.116 73.1858 550.302 78.3492 550.302Z" stroke="black" stroke-width="1.30708" stroke-miterlimit="10" stroke-linecap="round" stroke-linejoin="round"/>
<path d="M190.952 437.698C196.116 437.698 200.302 433.513 200.302 428.349C200.302 423.186 196.116 419 190.952 419C185.789 419 181.603 423.186 181.603 428.349C181.603 433.513 185.789 437.698 190.952 437.698Z" fill="black" stroke="black" stroke-width="1.30708" stroke-miterlimit="10" stroke-linecap="round" stroke-linejoin="round"/>
<path d="M151.322 467.98L176.888 442.414" stroke="black" stroke-width="1.30708" stroke-miterlimit="10" stroke-linecap="round" stroke-linejoin="round"/>
<path d="M92.4141 526.888L117.897 501.322" stroke="black" stroke-width="1.30708" stroke-miterlimit="10" stroke-linecap="round" stroke-linejoin="round"/>
<path opacity="0.1" d="M309.61 498.675C317.377 498.675 323.675 492.377 323.675 484.61C323.675 476.842 317.377 470.544 309.61 470.544C301.842 470.544 295.544 476.842 295.544 484.61C295.544 492.377 301.842 498.675 309.61 498.675Z" fill="black" stroke="black" stroke-width="3.92128" stroke-miterlimit="10"/>
<path d="M253.349 437.698C258.513 437.698 262.698 433.513 262.698 428.349C262.698 423.186 258.513 419 253.349 419C248.186 419 244 423.186 244 428.349C244 433.513 248.186 437.698 253.349 437.698Z" stroke="black" stroke-width="1.30708" stroke-miterlimit="10" stroke-linecap="round" stroke-linejoin="round"/>
<path d="M365.952 550.302C371.116 550.302 375.302 546.116 375.302 540.953C375.302 535.789 371.116 531.604 365.952 531.604C360.789 531.604 356.603 535.789 356.603 540.953C356.603 546.116 360.789 550.302 365.952 550.302Z" fill="black" stroke="black" stroke-width="1.30708" stroke-miterlimit="10" stroke-linecap="round" stroke-linejoin="round"/>
<path d="M309.61 508.024C322.541 508.024 333.024 497.541 333.024 484.61C333.024 471.678 322.541 461.195 309.61 461.195C296.679 461.195 286.196 471.678 286.196 484.61C286.196 497.541 296.679 508.024 309.61 508.024Z" stroke="black" stroke-width="1.30708" stroke-miterlimit="10" stroke-linecap="round" stroke-linejoin="round"/>
<path d="M326.322 501.322L351.888 526.888" stroke="black" stroke-width="1.30708" stroke-miterlimit="10" stroke-linecap="round" stroke-linejoin="round"/>
<path d="M267.414 442.414L292.897 467.98" stroke="black" stroke-width="1.30708" stroke-miterlimit="10" stroke-linecap="round" stroke-linejoin="round"/>
<path d="M253.349 550.302C258.513 550.302 262.698 546.116 262.698 540.953C262.698 535.789 258.513 531.604 253.349 531.604C248.186 531.604 244 535.789 244 540.953C244 546.116 248.186 550.302 253.349 550.302Z" fill="black" stroke="black" stroke-width="1.30708" stroke-miterlimit="10" stroke-linecap="round" stroke-linejoin="round"/>
<path d="M365.952 437.698C371.116 437.698 375.302 433.513 375.302 428.349C375.302 423.186 371.116 419 365.952 419C360.789 419 356.603 423.186 356.603 428.349C356.603 433.513 360.789 437.698 365.952 437.698Z" fill="black" stroke="black" stroke-width="1.30708" stroke-miterlimit="10" stroke-linecap="round" stroke-linejoin="round"/>
<path d="M326.322 467.98L351.888 442.414" stroke="black" stroke-width="1.30708" stroke-miterlimit="10" stroke-linecap="round" stroke-linejoin="round"/>
<path d="M267.414 526.888L292.897 501.322" stroke="black" stroke-width="1.30708" stroke-miterlimit="10" stroke-linecap="round" stroke-linejoin="round"/>
<path opacity="0.1" d="M134.61 148.675C142.377 148.675 148.675 142.378 148.675 134.61C148.675 126.842 142.377 120.544 134.61 120.544C126.842 120.544 120.544 126.842 120.544 134.61C120.544 142.378 126.842 148.675 134.61 148.675Z" fill="black" stroke="black" stroke-width="3.92128" stroke-miterlimit="10"/>
<path d="M78.3492 87.6984C83.5126 87.6984 87.6983 83.5126 87.6983 78.3492C87.6983 73.1858 83.5126 69 78.3492 69C73.1858 69 69 73.1858 69 78.3492C69 83.5126 73.1858 87.6984 78.3492 87.6984Z" fill="black" stroke="black" stroke-width="1.30708" stroke-miterlimit="10" stroke-linecap="round" stroke-linejoin="round"/>
<path d="M190.952 200.302C196.116 200.302 200.302 196.116 200.302 190.953C200.302 185.789 196.116 181.604 190.952 181.604C185.789 181.604 181.603 185.789 181.603 190.953C181.603 196.116 185.789 200.302 190.952 200.302Z" stroke="black" stroke-width="1.30708" stroke-miterlimit="10" stroke-linecap="round" stroke-linejoin="round"/>
<path d="M134.61 158.024C147.541 158.024 158.024 147.541 158.024 134.61C158.024 121.678 147.541 111.195 134.61 111.195C121.679 111.195 111.196 121.678 111.196 134.61C111.196 147.541 121.679 158.024 134.61 158.024Z" stroke="black" stroke-width="1.30708" stroke-miterlimit="10" stroke-linecap="round" stroke-linejoin="round"/>
<path d="M151.322 151.322L176.888 176.888" stroke="black" stroke-width="1.30708" stroke-miterlimit="10" stroke-linecap="round" stroke-linejoin="round"/>
<path d="M92.4141 92.4143L117.897 117.98" stroke="black" stroke-width="1.30708" stroke-miterlimit="10" stroke-linecap="round" stroke-linejoin="round"/>
<path d="M78.3492 200.302C83.5126 200.302 87.6983 196.116 87.6983 190.953C87.6983 185.789 83.5126 181.604 78.3492 181.604C73.1858 181.604 69 185.789 69 190.953C69 196.116 73.1858 200.302 78.3492 200.302Z" stroke="black" stroke-width="1.30708" stroke-miterlimit="10" stroke-linecap="round" stroke-linejoin="round"/>
<path d="M190.952 87.6984C196.116 87.6984 200.302 83.5126 200.302 78.3492C200.302 73.1858 196.116 69 190.952 69C185.789 69 181.603 73.1858 181.603 78.3492C181.603 83.5126 185.789 87.6984 190.952 87.6984Z" fill="black" stroke="black" stroke-width="1.30708" stroke-miterlimit="10" stroke-linecap="round" stroke-linejoin="round"/>
<path d="M151.322 117.98L176.888 92.4143" stroke="black" stroke-width="1.30708" stroke-miterlimit="10" stroke-linecap="round" stroke-linejoin="round"/>
<path d="M92.4141 176.888L117.897 151.322" stroke="black" stroke-width="1.30708" stroke-miterlimit="10" stroke-linecap="round" stroke-linejoin="round"/>
</svg>
