<svg width="133" height="133" viewBox="0 0 133 133" fill="none" xmlns="http://www.w3.org/2000/svg">
<path opacity="0.1" d="M66.2631 80.3282C74.031 80.3282 80.3282 74.031 80.3282 66.2631C80.3282 58.4952 74.031 52.198 66.2631 52.198C58.4952 52.198 52.198 58.4952 52.198 66.2631C52.198 74.031 58.4952 80.3282 66.2631 80.3282Z" fill="black" stroke="black" stroke-width="3.92128" stroke-miterlimit="10"/>
<path d="M10.0028 19.352C15.1661 19.352 19.3518 15.1662 19.3518 10.0028C19.3518 4.83936 15.1661 0.653564 10.0028 0.653564C4.83936 0.653564 0.653564 4.83936 0.653564 10.0028C0.653564 15.1662 4.83936 19.352 10.0028 19.352Z" stroke="black" stroke-width="1.30708" stroke-miterlimit="10" stroke-linecap="round" stroke-linejoin="round"/>
<path d="M122.606 131.956C127.769 131.956 131.955 127.77 131.955 122.606C131.955 117.443 127.769 113.257 122.606 113.257C117.443 113.257 113.257 117.443 113.257 122.606C113.257 127.77 117.443 131.956 122.606 131.956Z" stroke="black" stroke-width="1.30708" stroke-miterlimit="10" stroke-linecap="round" stroke-linejoin="round"/>
<path d="M66.2634 89.6775C79.1947 89.6775 89.6776 79.1945 89.6776 66.2632C89.6776 53.3318 79.1947 42.8489 66.2634 42.8489C53.3321 42.8489 42.8491 53.3318 42.8491 66.2632C42.8491 79.1945 53.3321 89.6775 66.2634 89.6775Z" stroke="black" stroke-width="1.30708" stroke-miterlimit="10" stroke-linecap="round" stroke-linejoin="round"/>
<path d="M82.9758 82.9757L108.541 108.541" stroke="black" stroke-width="1.30708" stroke-miterlimit="10" stroke-linecap="round" stroke-linejoin="round"/>
<path d="M24.0676 24.0679L49.5502 49.6334" stroke="black" stroke-width="1.30708" stroke-miterlimit="10" stroke-linecap="round" stroke-linejoin="round"/>
<path d="M10.0028 131.956C15.1661 131.956 19.3518 127.77 19.3518 122.606C19.3518 117.443 15.1661 113.257 10.0028 113.257C4.83936 113.257 0.653564 117.443 0.653564 122.606C0.653564 127.77 4.83936 131.956 10.0028 131.956Z" fill="black" stroke="black" stroke-width="1.30708" stroke-miterlimit="10" stroke-linecap="round" stroke-linejoin="round"/>
<path d="M122.606 19.352C127.769 19.352 131.955 15.1662 131.955 10.0028C131.955 4.83936 127.769 0.653564 122.606 0.653564C117.443 0.653564 113.257 4.83936 113.257 10.0028C113.257 15.1662 117.443 19.352 122.606 19.352Z" stroke="black" stroke-width="1.30708" stroke-miterlimit="10" stroke-linecap="round" stroke-linejoin="round"/>
<path d="M82.9758 49.6334L108.541 24.0679" stroke="black" stroke-width="1.30708" stroke-miterlimit="10" stroke-linecap="round" stroke-linejoin="round"/>
<path d="M24.0676 108.541L49.5502 82.9757" stroke="black" stroke-width="1.30708" stroke-miterlimit="10" stroke-linecap="round" stroke-linejoin="round"/>
</svg>
