<svg width="600" height="600" viewBox="0 0 600 600" fill="none" xmlns="http://www.w3.org/2000/svg">
<path d="M73.75 117.25C73.75 92.3972 93.8972 72.25 118.75 72.25" stroke="#B09E85" stroke-width="50"/>
<path d="M25 113.554C25 64.6471 64.2921 25 112.761 25" stroke="#B09E85" stroke-width="20"/>
<path d="M40.6716 107.229C40.6716 144.658 70.7421 175 107.836 175C144.93 175 175 144.658 175 107.229C175 69.8 144.93 39.4578 107.836 39.4578" stroke="#B09E85" stroke-width="4" stroke-linecap="round"/>
<path d="M375 86.4458C375 135.353 335.708 175 287.239 175" stroke="#B09E85" stroke-width="20"/>
<path d="M359.328 92.7711C359.328 55.3421 329.258 25 292.164 25C255.07 25 225 55.3421 225 92.7711C225 130.2 255.07 160.542 292.164 160.542" stroke="#B09E85" stroke-width="4" stroke-linecap="round"/>
<path d="M482.75 73.7503C507.603 73.7503 527.75 93.8973 527.75 118.75" stroke="#B09E85" stroke-width="50"/>
<path d="M486.446 24.9991C535.353 24.9991 575 64.2909 575 112.76" stroke="#B09E85" stroke-width="20"/>
<path d="M492.771 40.6725C455.342 40.6725 425 70.7427 425 107.836C425 144.93 455.342 175 492.771 175C530.2 175 560.542 144.93 560.542 107.836" stroke="#B09E85" stroke-width="4" stroke-linecap="round"/>
<path d="M113.554 375.001C64.6471 375.001 25 335.709 25 287.24" stroke="#B09E85" stroke-width="20"/>
<path d="M107.229 359.329C144.658 359.329 175 329.259 175 292.166C175 255.072 144.658 225.002 107.229 225.002C69.8 225.002 39.4578 255.072 39.4578 292.166" stroke="#B09E85" stroke-width="4" stroke-linecap="round"/>
<path d="M273.75 317.25C273.75 292.397 293.897 272.25 318.75 272.25" stroke="#B09E85" stroke-width="50"/>
<path d="M225 313.554C225 264.647 264.292 225 312.761 225" stroke="#B09E85" stroke-width="20"/>
<path d="M240.672 307.229C240.672 344.658 270.742 375 307.836 375C344.93 375 375 344.658 375 307.229C375 269.8 344.93 239.458 307.836 239.458" stroke="#B09E85" stroke-width="4" stroke-linecap="round"/>
<path d="M575 286.446C575 335.353 535.708 375 487.239 375" stroke="#B09E85" stroke-width="20"/>
<path d="M559.328 292.771C559.328 255.342 529.258 225 492.164 225C455.07 225 425 255.342 425 292.771C425 330.2 455.07 360.542 492.164 360.542" stroke="#B09E85" stroke-width="4" stroke-linecap="round"/>
<path d="M82.75 473.752C107.603 473.752 127.75 493.899 127.75 518.752" stroke="#B09E85" stroke-width="50"/>
<path d="M86.4458 425C135.353 425 175 464.292 175 512.762" stroke="#B09E85" stroke-width="20"/>
<path d="M92.7711 440.673C55.3421 440.673 25 470.744 25 507.838C25 544.931 55.3421 575.002 92.7711 575.002C130.2 575.002 160.542 544.931 160.542 507.838" stroke="#B09E85" stroke-width="4" stroke-linecap="round"/>
<path d="M313.554 575.001C264.647 575.001 225 535.709 225 487.24" stroke="#B09E85" stroke-width="20"/>
<path d="M307.229 559.329C344.658 559.329 375 529.259 375 492.166C375 455.072 344.658 425.002 307.229 425.002C269.8 425.002 239.458 455.072 239.458 492.166" stroke="#B09E85" stroke-width="4" stroke-linecap="round"/>
<path d="M493.818 518.818V518.273C493.879 512.485 494.485 507.879 495.636 504.455C496.788 501.03 498.424 498.258 500.545 496.136C502.667 494.015 505.212 492.061 508.182 490.273C509.97 489.182 511.576 487.894 513 486.409C514.424 484.894 515.545 483.152 516.364 481.182C517.212 479.212 517.636 477.03 517.636 474.636C517.636 471.667 516.939 469.091 515.545 466.909C514.152 464.727 512.288 463.045 509.955 461.864C507.621 460.682 505.03 460.091 502.182 460.091C499.697 460.091 497.303 460.606 495 461.636C492.697 462.667 490.773 464.288 489.227 466.5C487.682 468.712 486.788 471.606 486.545 475.182H475.091C475.333 470.03 476.667 465.621 479.091 461.955C481.545 458.288 484.773 455.485 488.773 453.545C492.803 451.606 497.273 450.636 502.182 450.636C507.515 450.636 512.152 451.697 516.091 453.818C520.061 455.939 523.121 458.848 525.273 462.545C527.455 466.242 528.545 470.455 528.545 475.182C528.545 478.515 528.03 481.53 527 484.227C526 486.924 524.545 489.333 522.636 491.455C520.758 493.576 518.485 495.455 515.818 497.091C513.152 498.758 511.015 500.515 509.409 502.364C507.803 504.182 506.636 506.348 505.909 508.864C505.182 511.379 504.788 514.515 504.727 518.273V518.818H493.818ZM499.636 545.727C497.394 545.727 495.47 544.924 493.864 543.318C492.258 541.712 491.455 539.788 491.455 537.545C491.455 535.303 492.258 533.379 493.864 531.773C495.47 530.167 497.394 529.364 499.636 529.364C501.879 529.364 503.803 530.167 505.409 531.773C507.015 533.379 507.818 535.303 507.818 537.545C507.818 539.03 507.439 540.394 506.682 541.636C505.955 542.879 504.97 543.879 503.727 544.636C502.515 545.364 501.152 545.727 499.636 545.727Z" fill="white"/>
</svg>
