<svg width="690" height="690" viewBox="0 0 690 690" fill="none" xmlns="http://www.w3.org/2000/svg">
<path d="M80 138C80 104.863 106.863 78 140 78" stroke="#B09E85" stroke-width="50"/>
<path d="M15.0002 133.072C15.0002 67.8628 67.3896 15 132.015 15" stroke="#B09E85" stroke-width="20"/>
<path d="M35.8955 124.639C35.8955 174.544 75.9894 215 125.448 215C174.906 215 215 174.544 215 124.639C215 74.7333 174.906 34.2771 125.448 34.2771" stroke="#B09E85" stroke-width="4" stroke-linecap="round"/>
<path d="M445 96.9277C445 162.137 392.61 215 327.985 215" stroke="#B09E85" stroke-width="20"/>
<path d="M424.104 105.361C424.104 55.4562 384.011 15 334.552 15C285.094 15 245 55.4562 245 105.361C245 155.267 285.094 195.723 334.552 195.723" stroke="#B09E85" stroke-width="4" stroke-linecap="round"/>
<path d="M552 80C585.137 80 612 106.863 612 140" stroke="#B09E85" stroke-width="50"/>
<path d="M556.928 14.9987C622.137 14.9987 675 67.3881 675 132.014" stroke="#B09E85" stroke-width="20"/>
<path d="M565.361 35.8955C515.456 35.8955 475 75.9894 475 125.448C475 174.906 515.456 215 565.361 215C615.267 215 655.723 174.906 655.723 125.448" stroke="#B09E85" stroke-width="4" stroke-linecap="round"/>
<path d="M133.072 444.999C67.8628 444.999 15 392.61 15 327.984" stroke="#B09E85" stroke-width="20"/>
<path d="M124.639 424.104C174.544 424.104 215 384.011 215 334.552C215 285.094 174.544 245 124.639 245C74.7333 245 34.2771 285.094 34.2771 334.552" stroke="#B09E85" stroke-width="4" stroke-linecap="round"/>
<path d="M310 368C310 334.863 336.863 308 370 308" stroke="#B09E85" stroke-width="50"/>
<path d="M245 363.072C245 297.863 297.39 245 362.015 245" stroke="#B09E85" stroke-width="20"/>
<path d="M265.896 354.639C265.896 404.544 305.989 445 355.448 445C404.906 445 445 404.544 445 354.639C445 304.733 404.906 264.277 355.448 264.277" stroke="#B09E85" stroke-width="4" stroke-linecap="round"/>
<path d="M675 326.928C675 392.137 622.61 445 557.985 445" stroke="#B09E85" stroke-width="20"/>
<path d="M654.104 335.361C654.104 285.456 614.011 245 564.552 245C515.094 245 475 285.456 475 335.361C475 385.267 515.094 425.723 564.552 425.723" stroke="#B09E85" stroke-width="4" stroke-linecap="round"/>
<path d="M92 540C125.137 540 152 566.863 152 600" stroke="#B09E85" stroke-width="50"/>
<path d="M96.9277 474.999C162.137 474.999 215 527.388 215 592.014" stroke="#B09E85" stroke-width="20"/>
<path d="M105.361 495.896C55.4562 495.896 15 535.989 15 585.448C15 634.906 55.4562 675 105.361 675C155.267 675 195.723 634.906 195.723 585.448" stroke="#B09E85" stroke-width="4" stroke-linecap="round"/>
<path d="M363.072 674.999C297.863 674.999 245 622.61 245 557.984" stroke="#B09E85" stroke-width="20"/>
<path d="M354.639 654.104C404.544 654.104 445 614.011 445 564.552C445 515.094 404.544 475 354.639 475C304.733 475 264.277 515.094 264.277 564.552" stroke="#B09E85" stroke-width="4" stroke-linecap="round"/>
<path d="M568.818 593.818V593.273C568.879 587.485 569.485 582.879 570.636 579.455C571.788 576.03 573.424 573.258 575.545 571.136C577.667 569.015 580.212 567.061 583.182 565.273C584.97 564.182 586.576 562.894 588 561.409C589.424 559.894 590.545 558.152 591.364 556.182C592.212 554.212 592.636 552.03 592.636 549.636C592.636 546.667 591.939 544.091 590.545 541.909C589.152 539.727 587.288 538.045 584.955 536.864C582.621 535.682 580.03 535.091 577.182 535.091C574.697 535.091 572.303 535.606 570 536.636C567.697 537.667 565.773 539.288 564.227 541.5C562.682 543.712 561.788 546.606 561.545 550.182H550.091C550.333 545.03 551.667 540.621 554.091 536.955C556.545 533.288 559.773 530.485 563.773 528.545C567.803 526.606 572.273 525.636 577.182 525.636C582.515 525.636 587.152 526.697 591.091 528.818C595.061 530.939 598.121 533.848 600.273 537.545C602.455 541.242 603.545 545.455 603.545 550.182C603.545 553.515 603.03 556.53 602 559.227C601 561.924 599.545 564.333 597.636 566.455C595.758 568.576 593.485 570.455 590.818 572.091C588.152 573.758 586.015 575.515 584.409 577.364C582.803 579.182 581.636 581.348 580.909 583.864C580.182 586.379 579.788 589.515 579.727 593.273V593.818H568.818ZM574.636 620.727C572.394 620.727 570.47 619.924 568.864 618.318C567.258 616.712 566.455 614.788 566.455 612.545C566.455 610.303 567.258 608.379 568.864 606.773C570.47 605.167 572.394 604.364 574.636 604.364C576.879 604.364 578.803 605.167 580.409 606.773C582.015 608.379 582.818 610.303 582.818 612.545C582.818 614.03 582.439 615.394 581.682 616.636C580.955 617.879 579.97 618.879 578.727 619.636C577.515 620.364 576.152 620.727 574.636 620.727Z" fill="#3A506B"/>
</svg>
