<svg width="750" height="750" viewBox="0 0 750 750" fill="none" xmlns="http://www.w3.org/2000/svg">
<path d="M338.869 234.881L295.324 238.176C289.13 238.644 283.226 235.807 279.836 230.733L256.012 195.064C252.623 189.99 252.264 183.45 255.069 177.908L274.79 138.944C277.595 133.402 283.139 129.699 289.334 129.23L332.879 125.936C339.074 125.467 344.977 128.304 348.366 133.378L372.191 169.047C375.58 174.121 375.939 180.661 373.134 186.204L353.413 225.167C350.607 230.71 345.063 234.413 338.869 234.881Z" fill="#6577EE"/>
<path fill-rule="evenodd" clip-rule="evenodd" d="M346.856 253.806C354.691 253.135 361.75 248.42 365.371 241.439L393.757 186.723C397.379 179.742 397.014 171.555 392.8 165.246L359.771 115.795C355.556 109.485 348.133 106.013 340.297 106.684L278.882 111.95C271.046 112.621 263.988 117.336 260.366 124.317L231.98 179.033C228.358 186.014 228.723 194.201 232.938 200.511L265.967 249.961C270.181 256.27 277.604 259.743 285.44 259.071L346.856 253.806ZM356.041 227.471C352.42 234.452 345.362 239.166 337.526 239.838L293.458 243.616C285.623 244.287 278.199 240.815 273.985 234.505L250.286 199.023C246.072 192.714 245.706 184.526 249.328 177.546L269.696 138.285C273.317 131.304 280.376 126.59 288.212 125.918L332.279 122.141C340.115 121.468 347.538 124.941 351.752 131.251L375.452 166.733C379.666 173.042 380.031 181.23 376.409 188.211L356.041 227.471Z" fill="#6577EE"/>
<path d="M187.967 175.192C186.476 178.152 183.522 180.125 180.217 180.368L135.393 183.664C132.088 183.908 128.934 182.384 127.119 179.667L102.508 142.82C100.694 140.104 100.494 136.606 101.984 133.646L122.197 93.5026C123.688 90.543 126.642 88.5698 129.947 88.3265L174.771 85.0304C178.076 84.7871 181.23 86.3116 183.044 89.028L207.655 125.875C209.47 128.592 209.67 132.089 208.179 135.049L187.967 175.192Z" stroke="#EBD976" stroke-width="3"/>
<path d="M143.783 262.794C142.816 264.582 140.974 265.813 138.952 266.02L117.182 268.258C115.159 268.465 113.262 267.619 112.207 266.039L100.841 249.022C99.7848 247.441 99.73 245.365 100.697 243.577L111.101 224.323C112.068 222.535 113.91 221.304 115.932 221.097L137.703 218.86C139.725 218.651 141.621 219.497 142.678 221.079L154.043 238.095C155.099 239.675 155.154 241.752 154.188 243.54L143.783 262.794Z" fill="#EBD976"/>
<path d="M506.617 201L431 220.058L450.058 295.675L525.675 276.617L506.617 201Z" stroke="#EBD976" stroke-width="6"/>
<path d="M352.606 312.467L320.98 364.54L268.451 333.677L300.077 281.605L352.606 312.467ZM276.101 331.749L277.694 332.685L317.488 356.065L319.08 357.001L344.956 314.395L343.364 313.46L303.57 290.08L301.977 289.144L276.101 331.749ZM334.754 316.967L316.546 346.947L286.302 329.178L304.511 299.197L334.754 316.967Z" fill="#6577EE" stroke="#6577EE" stroke-width="4"/>
<path d="M231.53 393.178L207.974 435.819L229.747 479.397L181.914 470.171L147.197 504.344L141.19 456.001L97.9619 433.542L142.082 412.892L150.083 364.839L183.357 400.419L231.53 393.178Z" fill="#6577EE"/>
<path fill-rule="evenodd" clip-rule="evenodd" d="M189.015 384.162L140.125 331.886L128.37 402.489L63.5444 432.831L127.06 465.829L135.885 536.858L186.895 486.648L257.175 500.204L225.185 436.176L259.795 373.524L189.015 384.162ZM184.292 397.735L236.198 389.934L210.817 435.879L234.276 482.833L182.737 472.891L145.33 509.713L138.859 457.624L92.2806 433.426L139.819 411.175L148.44 359.399L184.292 397.735Z" fill="#6577EE"/>
<path d="M391.719 362.17L392.351 362.363L392.868 361.95L410.472 347.923L410.897 370.428L410.91 371.089L411.462 371.455L430.242 383.862L408.971 391.22L408.345 391.437L408.169 392.075L402.17 413.77L388.6 395.813L388.201 395.285L387.541 395.314L365.052 396.315L377.938 377.858L378.316 377.315L378.085 376.697L370.183 355.619L391.719 362.17Z" stroke="#EBD976" stroke-width="2"/>
<path d="M206.264 250.6L215.081 263.795L230.949 264.012L221.125 276.475L225.822 291.633L210.933 286.141L197.968 295.293L198.591 279.436L185.88 269.933L201.154 265.625L206.264 250.6Z" fill="#EBD976"/>
<path d="M607.514 395.137L494.58 460.951L494.051 330.24L607.514 395.137Z" fill="#6577EE"/>
<path d="M480.258 600.789L673 651.599L620.632 459.276L611.942 468.036L657.826 636.549L488.948 592.029L480.258 600.789Z" fill="#6577EE"/>
<path d="M499.176 581.716L639.967 618.832L601.714 478.346L499.176 581.716Z" fill="#6577EE"/>
<path d="M395.51 570.172L311.249 547.958L372.616 486.091L395.51 570.172Z" stroke="#EBD976" stroke-width="5"/>
</svg>
