<svg width="162" height="147" viewBox="0 0 162 147" fill="none" xmlns="http://www.w3.org/2000/svg">
<path d="M96.3827 141.202C91.9068 141.202 87.6406 140.433 84.2137 139.034C80.6469 137.566 77.6397 136.866 74.4925 136.866C71.1355 136.866 67.7086 137.636 62.813 138.755C60.0855 139.384 57.1482 139.734 53.9311 139.734C40.7829 139.734 23.9981 134.069 16.375 118.123C12.0389 109.101 12.3886 102.108 12.7382 96.5826C13.018 90.9876 13.2278 87.6307 8.82179 81.3364C2.31766 71.9648 -0.270005 60.8449 1.68823 49.9347C3.36671 40.2834 8.40216 31.4714 15.5357 25.7366C22.6693 19.9318 31.0617 18.3232 37.8456 17.0644C42.7412 16.1552 47.0073 15.316 49.4551 13.3577C56.8684 7.41311 65.9602 1.04883 80.9966 1.04883C82.4653 1.04883 84.0039 1.1188 85.5425 1.25867C103.656 2.72735 110.79 11.1197 117.783 19.2324C122.609 24.8274 127.575 30.6321 137.715 35.6676C145.828 39.654 151.493 46.5078 154.221 55.6695C157.438 66.5797 155.829 80.2174 150.164 89.6588C147.646 93.925 145.059 97.0722 142.751 99.8696C139.324 104.066 136.876 107.073 134.918 112.878L134.149 115.116L135.058 115.815L131.841 121.97L130.722 125.257L130.162 124.837C122.749 136.097 108.202 141.202 96.3827 141.202Z" fill="white"/>
<path d="M96.3827 141.202C91.9068 141.202 87.6406 140.433 84.2137 139.034C80.6469 137.566 77.6397 136.866 74.4925 136.866C71.1355 136.866 67.7086 137.636 62.813 138.755C60.0855 139.384 57.1482 139.734 53.9311 139.734C40.7829 139.734 23.9981 134.069 16.375 118.123C12.0389 109.101 12.3886 102.108 12.7382 96.5826C13.018 90.9876 13.2278 87.6307 8.82179 81.3364C2.31766 71.9648 -0.270005 60.8449 1.68823 49.9347C3.36671 40.2834 8.40216 31.4714 15.5357 25.7366C22.6693 19.9318 31.0617 18.3232 37.8456 17.0644C42.7412 16.1552 47.0073 15.316 49.4551 13.3577C56.8684 7.41311 65.9602 1.04883 80.9966 1.04883C82.4653 1.04883 84.0039 1.1188 85.5425 1.25867C103.656 2.72735 110.79 11.1197 117.783 19.2324C122.609 24.8274 127.575 30.6321 137.715 35.6676C145.828 39.654 151.493 46.5078 154.221 55.6695C157.438 66.5797 155.829 80.2174 150.164 89.6588C147.646 93.925 145.059 97.0722 142.751 99.8696C139.324 104.066 136.876 107.073 134.918 112.878L134.149 115.116L135.058 115.815L131.841 121.97L130.722 125.257L130.162 124.837C122.749 136.097 108.202 141.202 96.3827 141.202Z" stroke="white" stroke-width="2.09811" stroke-miterlimit="10"/>
<path d="M146.807 145.049C143.8 145.049 140.863 144 138.485 142.112L111.629 120.711L115.126 113.997C115.475 113.368 115.755 112.668 115.895 111.969C116.315 110.221 116.804 108.542 117.364 107.003L121.56 94.5547L155.06 121.271C157.857 123.509 159.606 126.656 160.025 130.222C160.445 133.789 159.396 137.216 157.228 140.014C154.71 143.161 150.864 145.049 146.807 145.049Z" fill="white"/>
<path d="M146.807 145.049C143.8 145.049 140.863 144 138.485 142.112L111.629 120.711L115.126 113.997C115.475 113.368 115.755 112.668 115.895 111.969C116.315 110.221 116.804 108.542 117.364 107.003L121.56 94.5547L155.06 121.271C157.857 123.509 159.606 126.656 160.025 130.222C160.445 133.789 159.396 137.216 157.228 140.014C154.71 143.161 150.864 145.049 146.807 145.049Z" stroke="white" stroke-width="2.09811" stroke-miterlimit="10"/>
<path d="M106.104 93.925L126.036 109.871C130.092 97.9813 136.317 94.6243 142.121 84.9031C148.695 73.993 149.465 51.753 133.519 43.9901C106.873 30.9119 110.44 12.5884 84.6333 10.4903C70.4361 9.30136 62.4633 14.6865 55.05 20.5612C46.238 27.6948 31.4813 24.5476 21.2006 32.94C10.9199 41.2625 4.97525 59.9357 16.305 76.0911C27.6348 92.2465 17.2841 98.8206 24.6275 114.207C31.9709 129.593 50.9937 132.18 60.645 129.873C70.2963 127.635 77.0801 126.236 87.6406 130.572C97.222 134.558 116.734 130.572 123.169 118.263L100.859 100.429L106.104 93.925Z" fill="#010101"/>
<path d="M149.395 128.404L126.106 109.801C125.686 111.13 125.267 112.528 124.847 114.067C124.497 115.536 123.938 116.864 123.308 118.123L144.219 134.908C146.038 136.307 148.625 136.027 150.024 134.279C151.423 132.46 151.143 129.873 149.395 128.404Z" fill="#010101"/>
<path d="M126.106 109.87L106.174 93.9248L100.999 100.429L123.308 118.263C124.008 117.004 124.497 115.605 124.847 114.206C125.197 112.598 125.616 111.199 126.106 109.87Z" stroke="white" stroke-width="2.09811" stroke-miterlimit="10"/>
<path d="M108.342 95.673C113.237 89.1689 116.175 80.9862 116.175 72.2441C116.175 50.6336 98.6906 33.1494 77.0801 33.1494C55.4696 33.1494 37.9854 50.6336 37.9854 72.2441C37.9854 93.8546 55.4696 111.339 77.0801 111.339C86.8712 111.339 95.8232 107.702 102.677 101.757L123.308 118.193C124.008 116.934 124.497 115.535 124.847 114.136C125.267 112.598 125.686 111.199 126.106 109.87L108.342 95.673ZM41.0626 72.2441C41.0626 52.3821 57.1481 36.2966 77.0101 36.2966C96.8722 36.2966 112.958 52.3821 112.958 72.2441C112.958 92.1062 96.8722 108.192 77.0101 108.192C57.1481 108.192 41.0626 92.1062 41.0626 72.2441Z" fill="white"/>
<path d="M77.0099 108.261C96.872 108.261 112.957 92.1758 112.957 72.3138C112.957 52.4517 96.872 36.3662 77.0099 36.3662C57.1479 36.3662 41.0624 52.4517 41.0624 72.3138C41.0624 92.1758 57.1479 108.261 77.0099 108.261ZM47.7763 58.2565C49.1751 55.3191 51.0633 52.5916 53.3013 50.2137C56.5884 46.647 60.6447 43.8495 65.1906 42.101C68.6874 40.7023 72.534 39.933 76.5204 39.8631C76.6602 39.8631 76.87 39.8631 77.0099 39.8631C80.9264 39.8631 84.703 40.5625 88.1998 41.8213C95.3334 44.4789 101.278 49.5144 105.055 56.0185C106.383 58.3963 107.502 60.9141 108.202 63.5717C108.971 66.3691 109.391 69.2366 109.391 72.2439C109.391 74.4119 109.181 76.51 108.761 78.5382C108.132 81.8252 106.943 84.9723 105.404 87.8398C104.425 89.6581 103.236 91.3366 101.907 92.9451C100.579 94.5537 99.04 96.0224 97.4315 97.3512C95.1935 99.1695 92.7457 100.708 90.0881 101.897C86.0318 103.715 81.6258 104.695 76.94 104.695C68.8972 104.695 61.5539 101.757 55.889 96.9316C52.602 94.1341 49.9444 90.7072 47.9861 86.8606C45.7481 82.4546 44.4893 77.4891 44.4893 72.2439C44.6292 67.2783 45.7481 62.5226 47.7763 58.2565Z" fill="#010101"/>
<path d="M65.3306 97.4919C61.9037 98.1913 58.8264 97.8416 56.029 96.9325C61.6938 101.758 69.0372 104.695 77.08 104.695C81.7657 104.695 86.2417 103.716 90.2281 101.898C87.6404 96.5828 77.9891 94.8343 65.3306 97.4919Z" fill="#FFCA49"/>
<path d="M75.8211 88.1193C73.7929 88.3291 71.6948 88.469 69.5967 88.6788C64.7711 89.0285 61.0644 88.1193 58.197 86.3009C50.6439 81.6151 49.1052 71.1246 49.1052 64.3407C49.1052 61.8929 48.6157 59.9347 47.8464 58.3262C45.8182 62.5923 44.6992 67.2781 44.6992 72.3135C44.6992 77.5588 45.9581 82.5243 48.1961 86.9304C50.1543 90.7769 52.8818 94.2038 56.0989 97.0012C58.8265 97.9104 61.9736 98.2601 65.4005 97.5607C78.0591 94.9031 87.7803 96.6516 90.298 101.967C92.9556 100.778 95.4034 99.2392 97.6414 97.4209C99.25 96.0921 100.789 94.6234 102.117 93.0148C97.3617 86.3708 87.2908 87.0702 75.8211 88.1193Z" fill="#4BC17E"/>
<path d="M90.2281 74.831C89.8784 74.831 89.5986 74.831 89.2489 74.831C71.5549 74.3415 65.96 65.6693 64.9109 57.9063C64.4214 54.1997 64.9109 50.7028 65.6103 48.325C66.3097 45.8772 65.96 43.7791 65.1907 42.1006C60.6448 43.9189 56.5884 46.7164 53.3014 50.2133C51.0634 52.5911 49.2451 55.3187 47.7764 58.256C48.5457 59.8646 49.0353 61.8228 49.0353 64.2706C49.0353 71.0545 50.5739 81.545 58.1271 86.2308C60.9945 87.9792 64.7011 88.9583 69.5268 88.6086C71.6249 88.4687 73.723 88.2589 75.7511 88.0491C87.2208 87.0001 97.2917 86.3706 101.977 92.9447C103.306 91.3361 104.425 89.6577 105.474 87.8393C107.013 84.9719 108.202 81.8247 108.831 78.5377C104.565 76.4396 98.5506 74.901 90.2281 74.831Z" fill="#FF77E6"/>
<path d="M108.272 63.5719C107.502 60.9143 106.453 58.3966 105.125 56.0187C103.656 55.5292 102.257 55.1095 100.858 54.8997C91.9066 53.2912 84.5632 56.2985 80.2971 53.0114C76.1008 49.7943 76.1708 43.5 76.5904 39.8633C72.604 39.9332 68.7575 40.7025 65.2606 42.1013C66.0299 43.7798 66.4496 45.8079 65.6802 48.3257C64.9809 50.7035 64.4913 54.2004 64.9809 57.907C66.0299 65.74 71.6249 74.3422 89.3189 74.8317C89.6686 74.8317 89.9483 74.8317 90.298 74.8317C98.6205 74.9016 104.635 76.4403 108.901 78.6083C109.321 76.5801 109.531 74.482 109.531 72.314C109.461 69.2368 109.041 66.2994 108.272 63.5719Z" fill="#4BC17E"/>
<path d="M88.2698 41.8215C84.7729 40.5627 80.9963 39.8633 77.0799 39.8633C76.94 39.8633 76.7302 39.8633 76.5903 39.8633C76.1707 43.5 76.1707 49.7943 80.297 53.0114C84.6331 56.3684 91.9764 53.2912 100.858 54.8997C102.257 55.1795 103.656 55.5292 105.125 56.0187C101.348 49.5146 95.4033 44.4092 88.2698 41.8215Z" fill="#FFCA49"/>
<path d="M97.4318 69.5869C98.8305 71.0556 98.8305 73.3635 97.4318 74.8322C93.7951 78.7486 86.0321 85.7423 77.0102 85.7423C68.0583 85.7423 60.2953 78.7486 56.5887 74.8322C55.1899 73.3635 55.1899 71.0556 56.5887 69.5869C60.2254 65.6704 67.9884 58.6768 77.0102 58.6768C86.0321 58.6768 93.7951 65.6704 97.4318 69.5869Z" fill="white"/>
<path d="M77.01 83.2954C83.1128 83.2954 88.0601 78.3481 88.0601 72.2454C88.0601 66.1426 83.1128 61.1953 77.01 61.1953C70.9073 61.1953 65.96 66.1426 65.96 72.2454C65.96 78.3481 70.9073 83.2954 77.01 83.2954Z" fill="#010101"/>
<path d="M31.2714 52.103L32.0407 52.3128L31.3413 52.5226C27.7745 53.5017 25.1169 56.509 24.4875 60.1457L23.6483 65.6008L22.809 60.1457C22.2495 56.509 19.5919 53.5017 15.9552 52.5226L15.2558 52.3128L16.0251 52.103C19.5919 51.1239 22.2495 48.2565 22.809 44.6198L23.5783 40.0039L24.3476 44.6198C25.1169 48.2565 27.7745 51.1938 31.2714 52.103Z" fill="#FFCA49"/>
<path d="M50.574 115.536L51.2034 115.676L50.6439 115.816C47.8465 116.586 45.6784 118.963 45.2588 121.831L44.6294 126.167L43.9999 121.831C43.5803 118.963 41.4123 116.586 38.6148 115.816L38.0553 115.676L38.6847 115.536C41.4822 114.767 43.5803 112.459 44.0699 109.592L44.6993 105.955L45.3287 109.592C45.6784 112.459 47.7765 114.767 50.574 115.536Z" fill="#FFCA49"/>
<path d="M139.394 71.5454L140.163 71.7552L139.464 71.965C135.897 72.9441 133.239 75.9514 132.61 79.5881L131.771 85.0432L130.931 79.5881C130.372 75.9514 127.714 72.9441 124.078 71.965L123.378 71.7552L124.148 71.5454C127.714 70.5663 130.372 67.6989 130.931 64.0621L131.701 59.4463L132.47 64.0621C133.169 67.6989 135.827 70.6362 139.394 71.5454Z" fill="#FFCA49"/>
<path d="M127.085 52.8022C128.166 52.8022 129.043 51.9255 129.043 50.844C129.043 49.7625 128.166 48.8857 127.085 48.8857C126.003 48.8857 125.127 49.7625 125.127 50.844C125.127 51.9255 126.003 52.8022 127.085 52.8022Z" fill="#FFCA49"/>
<path d="M30.0824 72.3852C31.1639 72.3852 32.0406 71.5085 32.0406 70.427C32.0406 69.3455 31.1639 68.4688 30.0824 68.4688C29.0009 68.4688 28.1241 69.3455 28.1241 70.427C28.1241 71.5085 29.0009 72.3852 30.0824 72.3852Z" fill="#FFCA49"/>
<path d="M63.9319 26.8559C65.0134 26.8559 65.8901 25.9792 65.8901 24.8977C65.8901 23.8162 65.0134 22.9395 63.9319 22.9395C62.8504 22.9395 61.9737 23.8162 61.9737 24.8977C61.9737 25.9792 62.8504 26.8559 63.9319 26.8559Z" fill="#FFCA49"/>
<path d="M81.5561 72.8737C83.6805 72.8737 85.4026 71.1516 85.4026 69.0272C85.4026 66.9028 83.6805 65.1807 81.5561 65.1807C79.4317 65.1807 77.7096 66.9028 77.7096 69.0272C77.7096 71.1516 79.4317 72.8737 81.5561 72.8737Z" fill="white"/>
</svg>
