<svg width="751" height="95" viewBox="0 0 751 95" fill="none" xmlns="http://www.w3.org/2000/svg">
<path d="M25.9062 75.3711C24.0312 75.3711 22.1445 75.207 20.2461 74.8789C18.3711 74.5508 16.5664 73.9883 14.832 73.1914C13.0977 72.3945 11.4805 71.3398 9.98047 70.0273C8.48047 68.6914 7.16797 67.0391 6.04297 65.0703C4.94141 63.0781 4.07422 60.7344 3.44141 58.0391C2.80859 55.3203 2.49219 52.168 2.49219 48.582C2.49219 45.0195 2.80859 41.8789 3.44141 39.1602C4.07422 36.4414 4.94141 34.0977 6.04297 32.1289C7.16797 30.1367 8.48047 28.4844 9.98047 27.1719C11.4805 25.8594 13.0977 24.8164 14.832 24.043C16.5664 23.2461 18.3711 22.6836 20.2461 22.3555C22.1445 22.0273 24.0312 21.8633 25.9062 21.8633C27.7812 21.8633 29.668 22.0273 31.5664 22.3555C33.4648 22.6836 35.2812 23.2461 37.0156 24.043C38.75 24.8164 40.3672 25.8594 41.8672 27.1719C43.3672 28.4844 44.668 30.1367 45.7695 32.1289C46.8711 34.0977 47.7383 36.4414 48.3711 39.1602C49.0039 41.8789 49.3203 45.0195 49.3203 48.582C49.3203 52.1445 49.0039 55.2852 48.3711 58.0039C47.7383 60.7227 46.8711 63.0781 45.7695 65.0703C44.668 67.0391 43.3672 68.6914 41.8672 70.0273C40.3672 71.3398 38.75 72.3945 37.0156 73.1914C35.2812 73.9883 33.4648 74.5508 31.5664 74.8789C29.668 75.207 27.7812 75.3711 25.9062 75.3711ZM29.0703 48.582C29.0703 51.5117 29.2812 53.9609 29.7031 55.9297C30.1484 57.8984 30.7344 59.4805 31.4609 60.6758C32.1875 61.8711 32.9961 62.7266 33.8867 63.2422C34.8008 63.7344 35.7383 63.9805 36.6992 63.9805C37.6602 63.9805 38.5977 63.7344 39.5117 63.2422C40.4258 62.7266 41.2344 61.8711 41.9375 60.6758C42.6641 59.4805 43.2383 57.8984 43.6602 55.9297C44.1055 53.9609 44.3281 51.5117 44.3281 48.582C44.3281 45.6523 44.1055 43.2031 43.6602 41.2344C43.2383 39.2656 42.6641 37.6836 41.9375 36.4883C41.2344 35.293 40.4258 34.4492 39.5117 33.957C38.5977 33.4414 37.6602 33.1836 36.6992 33.1836C35.7383 33.1836 34.8008 33.4414 33.8867 33.957C32.9961 34.4492 32.1875 35.293 31.4609 36.4883C30.7344 37.6836 30.1484 39.2656 29.7031 41.2344C29.2812 43.2031 29.0703 45.6523 29.0703 48.582ZM77.0234 75.3711C75.1484 75.3711 73.2617 75.207 71.3633 74.8789C69.4883 74.5508 67.6836 73.9883 65.9492 73.1914C64.2148 72.3945 62.5977 71.3398 61.0977 70.0273C59.5977 68.6914 58.2852 67.0391 57.1602 65.0703C56.0586 63.0781 55.1914 60.7344 54.5586 58.0391C53.9258 55.3203 53.6094 52.168 53.6094 48.582C53.6094 45.0195 53.9258 41.8789 54.5586 39.1602C55.1914 36.4414 56.0586 34.0977 57.1602 32.1289C58.2852 30.1367 59.5977 28.4844 61.0977 27.1719C62.5977 25.8594 64.2148 24.8164 65.9492 24.043C67.6836 23.2461 69.4883 22.6836 71.3633 22.3555C73.2617 22.0273 75.1484 21.8633 77.0234 21.8633C78.8984 21.8633 80.7852 22.0273 82.6836 22.3555C84.582 22.6836 86.3984 23.2461 88.1328 24.043C89.8672 24.8164 91.4844 25.8594 92.9844 27.1719C94.4844 28.4844 95.7852 30.1367 96.8867 32.1289C97.9883 34.0977 98.8555 36.4414 99.4883 39.1602C100.121 41.8789 100.438 45.0195 100.438 48.582C100.438 52.5195 100.062 55.9297 99.3125 58.8125C98.5625 61.6719 97.5312 64.1211 96.2188 66.1602L101.176 73.2266C101.434 73.625 101.562 73.9648 101.562 74.2461C101.562 74.5742 101.445 74.8555 101.211 75.0898C101 75.3477 100.754 75.5586 100.473 75.7227L98.2578 76.9531C98.0938 77.0469 97.9297 77.1172 97.7656 77.1641C97.6016 77.2344 97.4258 77.2695 97.2383 77.2695C96.957 77.2695 96.6875 77.1875 96.4297 77.0234C96.1719 76.8594 95.9375 76.5781 95.7266 76.1797L92.5625 70.3789C91.4609 71.3164 90.2891 72.1016 89.0469 72.7344C87.8047 73.3672 86.5156 73.8711 85.1797 74.2461C83.8672 74.6445 82.5195 74.9258 81.1367 75.0898C79.7539 75.2773 78.3828 75.3711 77.0234 75.3711ZM89.3633 58.2148C89.9258 57.8633 90.4414 58.0039 90.9102 58.6367L92.7031 61.2031C93.5 60.0547 94.1562 58.4609 94.6719 56.4219C95.1875 54.3594 95.4453 51.7461 95.4453 48.582C95.4453 45.6523 95.2227 43.2031 94.7773 41.2344C94.3555 39.2656 93.7812 37.6836 93.0547 36.4883C92.3516 35.293 91.543 34.4492 90.6289 33.957C89.7148 33.4414 88.7773 33.1836 87.8164 33.1836C86.8555 33.1836 85.918 33.4414 85.0039 33.957C84.1133 34.4492 83.3047 35.293 82.5781 36.4883C81.8516 37.6836 81.2656 39.2656 80.8203 41.2344C80.3984 43.2031 80.1875 45.6523 80.1875 48.582C80.1875 51.5117 80.3984 53.9609 80.8203 55.9297C81.2656 57.8984 81.8516 59.4805 82.5781 60.6758C83.3047 61.8711 84.1133 62.7266 85.0039 63.2422C85.918 63.7344 86.8555 63.9805 87.8164 63.9805C88.2617 63.9805 88.6719 63.9336 89.0469 63.8398L87.3242 60.6406C87.1602 60.3359 87.1016 60.0547 87.1484 59.7969C87.1953 59.5156 87.3828 59.2812 87.7109 59.0938L89.3633 58.2148ZM128.141 75.3711C126.266 75.3711 124.379 75.207 122.48 74.8789C120.605 74.5508 118.801 73.9883 117.066 73.1914C115.332 72.3945 113.715 71.3398 112.215 70.0273C110.715 68.6914 109.402 67.0391 108.277 65.0703C107.176 63.0781 106.309 60.7344 105.676 58.0391C105.043 55.3203 104.727 52.168 104.727 48.582C104.727 45.0195 105.043 41.8789 105.676 39.1602C106.309 36.4414 107.176 34.0977 108.277 32.1289C109.402 30.1367 110.715 28.4844 112.215 27.1719C113.715 25.8594 115.332 24.8164 117.066 24.043C118.801 23.2461 120.605 22.6836 122.48 22.3555C124.379 22.0273 126.266 21.8633 128.141 21.8633C130.016 21.8633 131.902 22.0273 133.801 22.3555C135.699 22.6836 137.516 23.2461 139.25 24.043C140.984 24.8164 142.602 25.8594 144.102 27.1719C145.602 28.4844 146.902 30.1367 148.004 32.1289C149.105 34.0977 149.973 36.4414 150.605 39.1602C151.238 41.8789 151.555 45.0195 151.555 48.582C151.555 52.5195 151.18 55.9297 150.43 58.8125C149.68 61.6719 148.648 64.1211 147.336 66.1602L152.293 73.2266C152.551 73.625 152.68 73.9648 152.68 74.2461C152.68 74.5742 152.562 74.8555 152.328 75.0898C152.117 75.3477 151.871 75.5586 151.59 75.7227L149.375 76.9531C149.211 77.0469 149.047 77.1172 148.883 77.1641C148.719 77.2344 148.543 77.2695 148.355 77.2695C148.074 77.2695 147.805 77.1875 147.547 77.0234C147.289 76.8594 147.055 76.5781 146.844 76.1797L143.68 70.3789C142.578 71.3164 141.406 72.1016 140.164 72.7344C138.922 73.3672 137.633 73.8711 136.297 74.2461C134.984 74.6445 133.637 74.9258 132.254 75.0898C130.871 75.2773 129.5 75.3711 128.141 75.3711ZM140.48 58.2148C141.043 57.8633 141.559 58.0039 142.027 58.6367L143.82 61.2031C144.617 60.0547 145.273 58.4609 145.789 56.4219C146.305 54.3594 146.562 51.7461 146.562 48.582C146.562 45.6523 146.34 43.2031 145.895 41.2344C145.473 39.2656 144.898 37.6836 144.172 36.4883C143.469 35.293 142.66 34.4492 141.746 33.957C140.832 33.4414 139.895 33.1836 138.934 33.1836C137.973 33.1836 137.035 33.4414 136.121 33.957C135.23 34.4492 134.422 35.293 133.695 36.4883C132.969 37.6836 132.383 39.2656 131.938 41.2344C131.516 43.2031 131.305 45.6523 131.305 48.582C131.305 51.5117 131.516 53.9609 131.938 55.9297C132.383 57.8984 132.969 59.4805 133.695 60.6758C134.422 61.8711 135.23 62.7266 136.121 63.2422C137.035 63.7344 137.973 63.9805 138.934 63.9805C139.379 63.9805 139.789 63.9336 140.164 63.8398L138.441 60.6406C138.277 60.3359 138.219 60.0547 138.266 59.7969C138.312 59.5156 138.5 59.2812 138.828 59.0938L140.48 58.2148ZM195.957 55.8242C195.957 58.4961 195.699 60.8398 195.184 62.8555C194.668 64.8477 193.953 66.5703 193.039 68.0234C192.125 69.4766 191.047 70.6719 189.805 71.6094C188.562 72.5469 187.203 73.2969 185.727 73.8594C184.273 74.4219 182.727 74.8086 181.086 75.0195C179.469 75.2539 177.828 75.3711 176.164 75.3711C174.57 75.3711 172.977 75.2656 171.383 75.0547C169.812 74.8672 168.312 74.5156 166.883 74C165.477 73.4844 164.164 72.7695 162.945 71.8555C161.727 70.9414 160.672 69.7578 159.781 68.3047C158.891 66.8516 158.188 65.1055 157.672 63.0664C157.18 61.0273 156.934 58.6133 156.934 55.8242V28.4375C156.934 27.6172 157.004 26.9023 157.145 26.293C157.285 25.6836 157.555 25.1797 157.953 24.7812C158.352 24.3594 158.902 24.043 159.605 23.832C160.309 23.6211 161.223 23.5156 162.348 23.5156H178.027C179.387 23.5156 180.418 23.7148 181.121 24.1133C181.848 24.5117 182.352 25.0156 182.633 25.625C182.938 26.2109 183.102 26.8438 183.125 27.5234C183.148 28.1797 183.16 28.7891 183.16 29.3516V65.457C183.16 65.8086 183.254 66.0664 183.441 66.2305C183.652 66.3711 183.852 66.4414 184.039 66.4414C184.883 66.4414 185.621 66.2188 186.254 65.7734C186.887 65.3047 187.414 64.6719 187.836 63.875C188.258 63.0781 188.574 62.1406 188.785 61.0625C189.02 59.9844 189.137 58.8242 189.137 57.582V25.168C189.137 24.7695 189.219 24.3945 189.383 24.043C189.57 23.6914 189.969 23.5156 190.578 23.5156H194.234C194.445 23.5156 194.656 23.5273 194.867 23.5508C195.078 23.5742 195.266 23.6445 195.43 23.7617C195.594 23.8555 195.723 24.0195 195.816 24.2539C195.91 24.4648 195.957 24.7695 195.957 25.168V55.8242ZM224.75 75.3711C222.875 75.3711 220.988 75.207 219.09 74.8789C217.215 74.5508 215.41 73.9883 213.676 73.1914C211.941 72.3945 210.324 71.3398 208.824 70.0273C207.324 68.6914 206.012 67.0391 204.887 65.0703C203.785 63.0781 202.918 60.7344 202.285 58.0391C201.652 55.3203 201.336 52.168 201.336 48.582C201.336 45.0195 201.652 41.8789 202.285 39.1602C202.918 36.4414 203.785 34.0977 204.887 32.1289C206.012 30.1367 207.324 28.4844 208.824 27.1719C210.324 25.8594 211.941 24.8164 213.676 24.043C215.41 23.2461 217.215 22.6836 219.09 22.3555C220.988 22.0273 222.875 21.8633 224.75 21.8633C226.625 21.8633 228.512 22.0273 230.41 22.3555C232.309 22.6836 234.125 23.2461 235.859 24.043C237.594 24.8164 239.211 25.8594 240.711 27.1719C242.211 28.4844 243.512 30.1367 244.613 32.1289C245.715 34.0977 246.582 36.4414 247.215 39.1602C247.848 41.8789 248.164 45.0195 248.164 48.582C248.164 52.5195 247.789 55.9297 247.039 58.8125C246.289 61.6719 245.258 64.1211 243.945 66.1602L248.902 73.2266C249.16 73.625 249.289 73.9648 249.289 74.2461C249.289 74.5742 249.172 74.8555 248.938 75.0898C248.727 75.3477 248.48 75.5586 248.199 75.7227L245.984 76.9531C245.82 77.0469 245.656 77.1172 245.492 77.1641C245.328 77.2344 245.152 77.2695 244.965 77.2695C244.684 77.2695 244.414 77.1875 244.156 77.0234C243.898 76.8594 243.664 76.5781 243.453 76.1797L240.289 70.3789C239.188 71.3164 238.016 72.1016 236.773 72.7344C235.531 73.3672 234.242 73.8711 232.906 74.2461C231.594 74.6445 230.246 74.9258 228.863 75.0898C227.48 75.2773 226.109 75.3711 224.75 75.3711ZM237.09 58.2148C237.652 57.8633 238.168 58.0039 238.637 58.6367L240.43 61.2031C241.227 60.0547 241.883 58.4609 242.398 56.4219C242.914 54.3594 243.172 51.7461 243.172 48.582C243.172 45.6523 242.949 43.2031 242.504 41.2344C242.082 39.2656 241.508 37.6836 240.781 36.4883C240.078 35.293 239.27 34.4492 238.355 33.957C237.441 33.4414 236.504 33.1836 235.543 33.1836C234.582 33.1836 233.645 33.4414 232.73 33.957C231.84 34.4492 231.031 35.293 230.305 36.4883C229.578 37.6836 228.992 39.2656 228.547 41.2344C228.125 43.2031 227.914 45.6523 227.914 48.582C227.914 51.5117 228.125 53.9609 228.547 55.9297C228.992 57.8984 229.578 59.4805 230.305 60.6758C231.031 61.8711 231.84 62.7266 232.73 63.2422C233.645 63.7344 234.582 63.9805 235.543 63.9805C235.988 63.9805 236.398 63.9336 236.773 63.8398L235.051 60.6406C234.887 60.3359 234.828 60.0547 234.875 59.7969C234.922 59.5156 235.109 59.2812 235.438 59.0938L237.09 58.2148ZM275.867 75.3711C273.992 75.3711 272.105 75.207 270.207 74.8789C268.332 74.5508 266.527 73.9883 264.793 73.1914C263.059 72.3945 261.441 71.3398 259.941 70.0273C258.441 68.6914 257.129 67.0391 256.004 65.0703C254.902 63.0781 254.035 60.7344 253.402 58.0391C252.77 55.3203 252.453 52.168 252.453 48.582C252.453 45.0195 252.77 41.8789 253.402 39.1602C254.035 36.4414 254.902 34.0977 256.004 32.1289C257.129 30.1367 258.441 28.4844 259.941 27.1719C261.441 25.8594 263.059 24.8164 264.793 24.043C266.527 23.2461 268.332 22.6836 270.207 22.3555C272.105 22.0273 273.992 21.8633 275.867 21.8633C277.742 21.8633 279.629 22.0273 281.527 22.3555C283.426 22.6836 285.242 23.2461 286.977 24.043C288.711 24.8164 290.328 25.8594 291.828 27.1719C293.328 28.4844 294.629 30.1367 295.73 32.1289C296.832 34.0977 297.699 36.4414 298.332 39.1602C298.965 41.8789 299.281 45.0195 299.281 48.582C299.281 52.1445 298.965 55.2852 298.332 58.0039C297.699 60.7227 296.832 63.0781 295.73 65.0703C294.629 67.0391 293.328 68.6914 291.828 70.0273C290.328 71.3398 288.711 72.3945 286.977 73.1914C285.242 73.9883 283.426 74.5508 281.527 74.8789C279.629 75.207 277.742 75.3711 275.867 75.3711ZM279.031 48.582C279.031 51.5117 279.242 53.9609 279.664 55.9297C280.109 57.8984 280.695 59.4805 281.422 60.6758C282.148 61.8711 282.957 62.7266 283.848 63.2422C284.762 63.7344 285.699 63.9805 286.66 63.9805C287.621 63.9805 288.559 63.7344 289.473 63.2422C290.387 62.7266 291.195 61.8711 291.898 60.6758C292.625 59.4805 293.199 57.8984 293.621 55.9297C294.066 53.9609 294.289 51.5117 294.289 48.582C294.289 45.6523 294.066 43.2031 293.621 41.2344C293.199 39.2656 292.625 37.6836 291.898 36.4883C291.195 35.293 290.387 34.4492 289.473 33.957C288.559 33.4414 287.621 33.1836 286.66 33.1836C285.699 33.1836 284.762 33.4414 283.848 33.957C282.957 34.4492 282.148 35.293 281.422 36.4883C280.695 37.6836 280.109 39.2656 279.664 41.2344C279.242 43.2031 279.031 45.6523 279.031 48.582ZM326.984 75.3711C325.109 75.3711 323.223 75.207 321.324 74.8789C319.449 74.5508 317.645 73.9883 315.91 73.1914C314.176 72.3945 312.559 71.3398 311.059 70.0273C309.559 68.6914 308.246 67.0391 307.121 65.0703C306.02 63.0781 305.152 60.7344 304.52 58.0391C303.887 55.3203 303.57 52.168 303.57 48.582C303.57 45.0195 303.887 41.8789 304.52 39.1602C305.152 36.4414 306.02 34.0977 307.121 32.1289C308.246 30.1367 309.559 28.4844 311.059 27.1719C312.559 25.8594 314.176 24.8164 315.91 24.043C317.645 23.2461 319.449 22.6836 321.324 22.3555C323.223 22.0273 325.109 21.8633 326.984 21.8633C328.859 21.8633 330.746 22.0273 332.645 22.3555C334.543 22.6836 336.359 23.2461 338.094 24.043C339.828 24.8164 341.445 25.8594 342.945 27.1719C344.445 28.4844 345.746 30.1367 346.848 32.1289C347.949 34.0977 348.816 36.4414 349.449 39.1602C350.082 41.8789 350.398 45.0195 350.398 48.582C350.398 52.1445 350.082 55.2852 349.449 58.0039C348.816 60.7227 347.949 63.0781 346.848 65.0703C345.746 67.0391 344.445 68.6914 342.945 70.0273C341.445 71.3398 339.828 72.3945 338.094 73.1914C336.359 73.9883 334.543 74.5508 332.645 74.8789C330.746 75.207 328.859 75.3711 326.984 75.3711ZM330.148 48.582C330.148 51.5117 330.359 53.9609 330.781 55.9297C331.227 57.8984 331.812 59.4805 332.539 60.6758C333.266 61.8711 334.074 62.7266 334.965 63.2422C335.879 63.7344 336.816 63.9805 337.777 63.9805C338.738 63.9805 339.676 63.7344 340.59 63.2422C341.504 62.7266 342.312 61.8711 343.016 60.6758C343.742 59.4805 344.316 57.8984 344.738 55.9297C345.184 53.9609 345.406 51.5117 345.406 48.582C345.406 45.6523 345.184 43.2031 344.738 41.2344C344.316 39.2656 343.742 37.6836 343.016 36.4883C342.312 35.293 341.504 34.4492 340.59 33.957C339.676 33.4414 338.738 33.1836 337.777 33.1836C336.816 33.1836 335.879 33.4414 334.965 33.957C334.074 34.4492 333.266 35.293 332.539 36.4883C331.812 37.6836 331.227 39.2656 330.781 41.2344C330.359 43.2031 330.148 45.6523 330.148 48.582ZM394.801 55.8242C394.801 58.4961 394.543 60.8398 394.027 62.8555C393.512 64.8477 392.797 66.5703 391.883 68.0234C390.969 69.4766 389.891 70.6719 388.648 71.6094C387.406 72.5469 386.047 73.2969 384.57 73.8594C383.117 74.4219 381.57 74.8086 379.93 75.0195C378.312 75.2539 376.672 75.3711 375.008 75.3711C373.414 75.3711 371.82 75.2656 370.227 75.0547C368.656 74.8672 367.156 74.5156 365.727 74C364.32 73.4844 363.008 72.7695 361.789 71.8555C360.57 70.9414 359.516 69.7578 358.625 68.3047C357.734 66.8516 357.031 65.1055 356.516 63.0664C356.023 61.0273 355.777 58.6133 355.777 55.8242V28.4375C355.777 27.6172 355.848 26.9023 355.988 26.293C356.129 25.6836 356.398 25.1797 356.797 24.7812C357.195 24.3594 357.746 24.043 358.449 23.832C359.152 23.6211 360.066 23.5156 361.191 23.5156H376.871C378.23 23.5156 379.262 23.7148 379.965 24.1133C380.691 24.5117 381.195 25.0156 381.477 25.625C381.781 26.2109 381.945 26.8438 381.969 27.5234C381.992 28.1797 382.004 28.7891 382.004 29.3516V65.457C382.004 65.8086 382.098 66.0664 382.285 66.2305C382.496 66.3711 382.695 66.4414 382.883 66.4414C383.727 66.4414 384.465 66.2188 385.098 65.7734C385.73 65.3047 386.258 64.6719 386.68 63.875C387.102 63.0781 387.418 62.1406 387.629 61.0625C387.863 59.9844 387.98 58.8242 387.98 57.582V25.168C387.98 24.7695 388.062 24.3945 388.227 24.043C388.414 23.6914 388.812 23.5156 389.422 23.5156H393.078C393.289 23.5156 393.5 23.5273 393.711 23.5508C393.922 23.5742 394.109 23.6445 394.273 23.7617C394.438 23.8555 394.566 24.0195 394.66 24.2539C394.754 24.4648 394.801 24.7695 394.801 25.168V55.8242ZM423.594 75.3711C421.719 75.3711 419.832 75.207 417.934 74.8789C416.059 74.5508 414.254 73.9883 412.52 73.1914C410.785 72.3945 409.168 71.3398 407.668 70.0273C406.168 68.6914 404.855 67.0391 403.73 65.0703C402.629 63.0781 401.762 60.7344 401.129 58.0391C400.496 55.3203 400.18 52.168 400.18 48.582C400.18 45.0195 400.496 41.8789 401.129 39.1602C401.762 36.4414 402.629 34.0977 403.73 32.1289C404.855 30.1367 406.168 28.4844 407.668 27.1719C409.168 25.8594 410.785 24.8164 412.52 24.043C414.254 23.2461 416.059 22.6836 417.934 22.3555C419.832 22.0273 421.719 21.8633 423.594 21.8633C425.469 21.8633 427.355 22.0273 429.254 22.3555C431.152 22.6836 432.969 23.2461 434.703 24.043C436.438 24.8164 438.055 25.8594 439.555 27.1719C441.055 28.4844 442.355 30.1367 443.457 32.1289C444.559 34.0977 445.426 36.4414 446.059 39.1602C446.691 41.8789 447.008 45.0195 447.008 48.582C447.008 52.1445 446.691 55.2852 446.059 58.0039C445.426 60.7227 444.559 63.0781 443.457 65.0703C442.355 67.0391 441.055 68.6914 439.555 70.0273C438.055 71.3398 436.438 72.3945 434.703 73.1914C432.969 73.9883 431.152 74.5508 429.254 74.8789C427.355 75.207 425.469 75.3711 423.594 75.3711ZM426.758 48.582C426.758 51.5117 426.969 53.9609 427.391 55.9297C427.836 57.8984 428.422 59.4805 429.148 60.6758C429.875 61.8711 430.684 62.7266 431.574 63.2422C432.488 63.7344 433.426 63.9805 434.387 63.9805C435.348 63.9805 436.285 63.7344 437.199 63.2422C438.113 62.7266 438.922 61.8711 439.625 60.6758C440.352 59.4805 440.926 57.8984 441.348 55.9297C441.793 53.9609 442.016 51.5117 442.016 48.582C442.016 45.6523 441.793 43.2031 441.348 41.2344C440.926 39.2656 440.352 37.6836 439.625 36.4883C438.922 35.293 438.113 34.4492 437.199 33.957C436.285 33.4414 435.348 33.1836 434.387 33.1836C433.426 33.1836 432.488 33.4414 431.574 33.957C430.684 34.4492 429.875 35.293 429.148 36.4883C428.422 37.6836 427.836 39.2656 427.391 41.2344C426.969 43.2031 426.758 45.6523 426.758 48.582ZM474.711 75.3711C472.836 75.3711 470.949 75.207 469.051 74.8789C467.176 74.5508 465.371 73.9883 463.637 73.1914C461.902 72.3945 460.285 71.3398 458.785 70.0273C457.285 68.6914 455.973 67.0391 454.848 65.0703C453.746 63.0781 452.879 60.7344 452.246 58.0391C451.613 55.3203 451.297 52.168 451.297 48.582C451.297 45.0195 451.613 41.8789 452.246 39.1602C452.879 36.4414 453.746 34.0977 454.848 32.1289C455.973 30.1367 457.285 28.4844 458.785 27.1719C460.285 25.8594 461.902 24.8164 463.637 24.043C465.371 23.2461 467.176 22.6836 469.051 22.3555C470.949 22.0273 472.836 21.8633 474.711 21.8633C476.586 21.8633 478.473 22.0273 480.371 22.3555C482.27 22.6836 484.086 23.2461 485.82 24.043C487.555 24.8164 489.172 25.8594 490.672 27.1719C492.172 28.4844 493.473 30.1367 494.574 32.1289C495.676 34.0977 496.543 36.4414 497.176 39.1602C497.809 41.8789 498.125 45.0195 498.125 48.582C498.125 52.5195 497.75 55.9297 497 58.8125C496.25 61.6719 495.219 64.1211 493.906 66.1602L498.863 73.2266C499.121 73.625 499.25 73.9648 499.25 74.2461C499.25 74.5742 499.133 74.8555 498.898 75.0898C498.688 75.3477 498.441 75.5586 498.16 75.7227L495.945 76.9531C495.781 77.0469 495.617 77.1172 495.453 77.1641C495.289 77.2344 495.113 77.2695 494.926 77.2695C494.645 77.2695 494.375 77.1875 494.117 77.0234C493.859 76.8594 493.625 76.5781 493.414 76.1797L490.25 70.3789C489.148 71.3164 487.977 72.1016 486.734 72.7344C485.492 73.3672 484.203 73.8711 482.867 74.2461C481.555 74.6445 480.207 74.9258 478.824 75.0898C477.441 75.2773 476.07 75.3711 474.711 75.3711ZM487.051 58.2148C487.613 57.8633 488.129 58.0039 488.598 58.6367L490.391 61.2031C491.188 60.0547 491.844 58.4609 492.359 56.4219C492.875 54.3594 493.133 51.7461 493.133 48.582C493.133 45.6523 492.91 43.2031 492.465 41.2344C492.043 39.2656 491.469 37.6836 490.742 36.4883C490.039 35.293 489.23 34.4492 488.316 33.957C487.402 33.4414 486.465 33.1836 485.504 33.1836C484.543 33.1836 483.605 33.4414 482.691 33.957C481.801 34.4492 480.992 35.293 480.266 36.4883C479.539 37.6836 478.953 39.2656 478.508 41.2344C478.086 43.2031 477.875 45.6523 477.875 48.582C477.875 51.5117 478.086 53.9609 478.508 55.9297C478.953 57.8984 479.539 59.4805 480.266 60.6758C480.992 61.8711 481.801 62.7266 482.691 63.2422C483.605 63.7344 484.543 63.9805 485.504 63.9805C485.949 63.9805 486.359 63.9336 486.734 63.8398L485.012 60.6406C484.848 60.3359 484.789 60.0547 484.836 59.7969C484.883 59.5156 485.07 59.2812 485.398 59.0938L487.051 58.2148ZM525.828 75.3711C523.953 75.3711 522.066 75.207 520.168 74.8789C518.293 74.5508 516.488 73.9883 514.754 73.1914C513.02 72.3945 511.402 71.3398 509.902 70.0273C508.402 68.6914 507.09 67.0391 505.965 65.0703C504.863 63.0781 503.996 60.7344 503.363 58.0391C502.73 55.3203 502.414 52.168 502.414 48.582C502.414 45.0195 502.73 41.8789 503.363 39.1602C503.996 36.4414 504.863 34.0977 505.965 32.1289C507.09 30.1367 508.402 28.4844 509.902 27.1719C511.402 25.8594 513.02 24.8164 514.754 24.043C516.488 23.2461 518.293 22.6836 520.168 22.3555C522.066 22.0273 523.953 21.8633 525.828 21.8633C527.703 21.8633 529.59 22.0273 531.488 22.3555C533.387 22.6836 535.203 23.2461 536.938 24.043C538.672 24.8164 540.289 25.8594 541.789 27.1719C543.289 28.4844 544.59 30.1367 545.691 32.1289C546.793 34.0977 547.66 36.4414 548.293 39.1602C548.926 41.8789 549.242 45.0195 549.242 48.582C549.242 52.5195 548.867 55.9297 548.117 58.8125C547.367 61.6719 546.336 64.1211 545.023 66.1602L549.98 73.2266C550.238 73.625 550.367 73.9648 550.367 74.2461C550.367 74.5742 550.25 74.8555 550.016 75.0898C549.805 75.3477 549.559 75.5586 549.277 75.7227L547.062 76.9531C546.898 77.0469 546.734 77.1172 546.57 77.1641C546.406 77.2344 546.23 77.2695 546.043 77.2695C545.762 77.2695 545.492 77.1875 545.234 77.0234C544.977 76.8594 544.742 76.5781 544.531 76.1797L541.367 70.3789C540.266 71.3164 539.094 72.1016 537.852 72.7344C536.609 73.3672 535.32 73.8711 533.984 74.2461C532.672 74.6445 531.324 74.9258 529.941 75.0898C528.559 75.2773 527.188 75.3711 525.828 75.3711ZM538.168 58.2148C538.73 57.8633 539.246 58.0039 539.715 58.6367L541.508 61.2031C542.305 60.0547 542.961 58.4609 543.477 56.4219C543.992 54.3594 544.25 51.7461 544.25 48.582C544.25 45.6523 544.027 43.2031 543.582 41.2344C543.16 39.2656 542.586 37.6836 541.859 36.4883C541.156 35.293 540.348 34.4492 539.434 33.957C538.52 33.4414 537.582 33.1836 536.621 33.1836C535.66 33.1836 534.723 33.4414 533.809 33.957C532.918 34.4492 532.109 35.293 531.383 36.4883C530.656 37.6836 530.07 39.2656 529.625 41.2344C529.203 43.2031 528.992 45.6523 528.992 48.582C528.992 51.5117 529.203 53.9609 529.625 55.9297C530.07 57.8984 530.656 59.4805 531.383 60.6758C532.109 61.8711 532.918 62.7266 533.809 63.2422C534.723 63.7344 535.66 63.9805 536.621 63.9805C537.066 63.9805 537.477 63.9336 537.852 63.8398L536.129 60.6406C535.965 60.3359 535.906 60.0547 535.953 59.7969C536 59.5156 536.188 59.2812 536.516 59.0938L538.168 58.2148ZM593.645 55.8242C593.645 58.4961 593.387 60.8398 592.871 62.8555C592.355 64.8477 591.641 66.5703 590.727 68.0234C589.812 69.4766 588.734 70.6719 587.492 71.6094C586.25 72.5469 584.891 73.2969 583.414 73.8594C581.961 74.4219 580.414 74.8086 578.773 75.0195C577.156 75.2539 575.516 75.3711 573.852 75.3711C572.258 75.3711 570.664 75.2656 569.07 75.0547C567.5 74.8672 566 74.5156 564.57 74C563.164 73.4844 561.852 72.7695 560.633 71.8555C559.414 70.9414 558.359 69.7578 557.469 68.3047C556.578 66.8516 555.875 65.1055 555.359 63.0664C554.867 61.0273 554.621 58.6133 554.621 55.8242V28.4375C554.621 27.6172 554.691 26.9023 554.832 26.293C554.973 25.6836 555.242 25.1797 555.641 24.7812C556.039 24.3594 556.59 24.043 557.293 23.832C557.996 23.6211 558.91 23.5156 560.035 23.5156H575.715C577.074 23.5156 578.105 23.7148 578.809 24.1133C579.535 24.5117 580.039 25.0156 580.32 25.625C580.625 26.2109 580.789 26.8438 580.812 27.5234C580.836 28.1797 580.848 28.7891 580.848 29.3516V65.457C580.848 65.8086 580.941 66.0664 581.129 66.2305C581.34 66.3711 581.539 66.4414 581.727 66.4414C582.57 66.4414 583.309 66.2188 583.941 65.7734C584.574 65.3047 585.102 64.6719 585.523 63.875C585.945 63.0781 586.262 62.1406 586.473 61.0625C586.707 59.9844 586.824 58.8242 586.824 57.582V25.168C586.824 24.7695 586.906 24.3945 587.07 24.043C587.258 23.6914 587.656 23.5156 588.266 23.5156H591.922C592.133 23.5156 592.344 23.5273 592.555 23.5508C592.766 23.5742 592.953 23.6445 593.117 23.7617C593.281 23.8555 593.41 24.0195 593.504 24.2539C593.598 24.4648 593.645 24.7695 593.645 25.168V55.8242ZM597.617 92C597.125 92 596.879 91.7422 596.879 91.2266V84.8984C596.879 84.4062 597.125 84.1602 597.617 84.1602H625.109C625.602 84.1602 625.848 84.4062 625.848 84.8984V91.2266C625.848 91.7422 625.602 92 625.109 92H597.617ZM626.586 92C626.094 92 625.848 91.7422 625.848 91.2266V84.8984C625.848 84.4062 626.094 84.1602 626.586 84.1602H654.078C654.57 84.1602 654.816 84.4062 654.816 84.8984V91.2266C654.816 91.7422 654.57 92 654.078 92H626.586ZM689.797 34.9062C689.797 35.8203 689.727 36.793 689.586 37.8242C689.445 38.832 689.152 39.8398 688.707 40.8477C688.285 41.832 687.652 42.8047 686.809 43.7656C685.965 44.7031 684.84 45.5586 683.434 46.332C682.051 47.1055 680.328 47.7734 678.266 48.3359C676.227 48.8984 673.766 49.2969 670.883 49.5312V53.8555C670.883 54.2539 670.789 54.6289 670.602 54.9805C670.438 55.332 670.051 55.5078 669.441 55.5078H666.277C666.113 55.5078 665.938 55.4961 665.75 55.4727C665.586 55.4492 665.422 55.3906 665.258 55.2969C665.117 55.1797 665 55.0156 664.906 54.8047C664.812 54.5703 664.766 54.2539 664.766 53.8555V45.5234C664.766 45.3125 664.812 45.1836 664.906 45.1367C665 45.0898 665.07 45.043 665.117 44.9961C666.336 44.4102 667.344 43.6953 668.141 42.8516C668.961 41.9844 669.605 41.082 670.074 40.1445C670.543 39.1836 670.871 38.2344 671.059 37.2969C671.27 36.3594 671.375 35.5156 671.375 34.7656C671.375 32.5156 670.789 30.7813 669.617 29.5625C668.445 28.3203 666.781 27.6992 664.625 27.6992C663.641 27.6992 662.703 27.8516 661.812 28.1562C660.945 28.4375 660.266 28.707 659.773 28.9648C659.656 29.0117 659.551 29.0586 659.457 29.1055C659.387 29.1523 659.305 29.1758 659.211 29.1758C659.023 29.1758 658.859 29.0586 658.719 28.8242L657.312 26.6445C657.219 26.4805 657.172 26.3398 657.172 26.2227C657.172 26.082 657.219 25.9648 657.312 25.8711C657.43 25.7773 657.523 25.707 657.594 25.6602C659.281 24.5352 661.391 23.6445 663.922 22.9883C666.453 22.332 669.324 22.0039 672.535 22.0039C675.723 22.0039 678.418 22.3906 680.621 23.1641C682.824 23.9375 684.605 24.9453 685.965 26.1875C687.324 27.4297 688.297 28.8242 688.883 30.3711C689.492 31.8945 689.797 33.4062 689.797 34.9062ZM659.703 66.582C659.703 65.457 659.914 64.4023 660.336 63.418C660.781 62.4336 661.367 61.5781 662.094 60.8516C662.844 60.1016 663.711 59.5156 664.695 59.0938C665.68 58.6719 666.734 58.4609 667.859 58.4609C668.984 58.4609 670.039 58.6719 671.023 59.0938C672.008 59.5156 672.863 60.1016 673.59 60.8516C674.34 61.5781 674.926 62.4336 675.348 63.418C675.77 64.4023 675.98 65.457 675.98 66.582C675.98 67.707 675.77 68.7617 675.348 69.7461C674.926 70.7305 674.34 71.5977 673.59 72.3477C672.863 73.0742 672.008 73.6484 671.023 74.0703C670.039 74.4922 668.984 74.7031 667.859 74.7031C666.734 74.7031 665.68 74.4922 664.695 74.0703C663.711 73.6484 662.844 73.0742 662.094 72.3477C661.367 71.5977 660.781 70.7305 660.336 69.7461C659.914 68.7617 659.703 67.707 659.703 66.582ZM693.453 92C692.961 92 692.715 91.7422 692.715 91.2266V84.8984C692.715 84.4062 692.961 84.1602 693.453 84.1602H720.945C721.438 84.1602 721.684 84.4062 721.684 84.8984V91.2266C721.684 91.7422 721.438 92 720.945 92H693.453ZM722.422 92C721.93 92 721.684 91.7422 721.684 91.2266V84.8984C721.684 84.4062 721.93 84.1602 722.422 84.1602H749.914C750.406 84.1602 750.652 84.4062 750.652 84.8984V91.2266C750.652 91.7422 750.406 92 749.914 92H722.422Z" fill="black"/>
<path d="M654.816 81.207H692.715V92.007H654.816V81.207Z" fill="black"/>
</svg>
