<svg width="266" height="127" viewBox="0 0 266 127" fill="none" xmlns="http://www.w3.org/2000/svg">
<path d="M56.3438 74.7656C56.3438 78.3281 56 81.4531 55.3125 84.1406C54.625 86.7969 53.6719 89.0938 52.4531 91.0312C51.2344 92.9688 49.7969 94.5625 48.1406 95.8125C46.4844 97.0625 44.6719 98.0625 42.7031 98.8125C40.7656 99.5625 38.7031 100.078 36.5156 100.359C34.3594 100.672 32.1719 100.828 29.9531 100.828C27.8281 100.828 25.7031 100.688 23.5781 100.406C21.4844 100.156 19.4844 99.6875 17.5781 99C15.7031 98.3125 13.9531 97.3594 12.3281 96.1406C10.7031 94.9219 9.29688 93.3438 8.10938 91.4062C6.92188 89.4688 5.98438 87.1406 5.29688 84.4219C4.64062 81.7031 4.3125 78.4844 4.3125 74.7656V38.25C4.3125 37.1562 4.40625 36.2031 4.59375 35.3906C4.78125 34.5781 5.14062 33.9062 5.67188 33.375C6.20312 32.8125 6.9375 32.3906 7.875 32.1094C8.8125 31.8281 10.0312 31.6875 11.5312 31.6875H32.4375C34.25 31.6875 35.625 31.9531 36.5625 32.4844C37.5312 33.0156 38.2031 33.6875 38.5781 34.5C38.9844 35.2812 39.2031 36.125 39.2344 37.0312C39.2656 37.9062 39.2812 38.7188 39.2812 39.4688V87.6094C39.2812 88.0781 39.4062 88.4219 39.6562 88.6406C39.9375 88.8281 40.2031 88.9219 40.4531 88.9219C41.5781 88.9219 42.5625 88.625 43.4062 88.0312C44.25 87.4062 44.9531 86.5625 45.5156 85.5C46.0781 84.4375 46.5 83.1875 46.7812 81.75C47.0938 80.3125 47.25 78.7656 47.25 77.1094V33.8906C47.25 33.3594 47.3594 32.8594 47.5781 32.3906C47.8281 31.9219 48.3594 31.6875 49.1719 31.6875H54.0469C54.3281 31.6875 54.6094 31.7031 54.8906 31.7344C55.1719 31.7656 55.4219 31.8594 55.6406 32.0156C55.8594 32.1406 56.0312 32.3594 56.1562 32.6719C56.2812 32.9531 56.3438 33.3594 56.3438 33.8906V74.7656ZM94.7344 100.828C92.2344 100.828 89.7188 100.609 87.1875 100.172C84.6875 99.7344 82.2812 98.9844 79.9688 97.9219C77.6562 96.8594 75.5 95.4531 73.5 93.7031C71.5 91.9219 69.75 89.7188 68.25 87.0938C66.7812 84.4375 65.625 81.3125 64.7812 77.7188C63.9375 74.0938 63.5156 69.8906 63.5156 65.1094C63.5156 60.3594 63.9375 56.1719 64.7812 52.5469C65.625 48.9219 66.7812 45.7969 68.25 43.1719C69.75 40.5156 71.5 38.3125 73.5 36.5625C75.5 34.8125 77.6562 33.4219 79.9688 32.3906C82.2812 31.3281 84.6875 30.5781 87.1875 30.1406C89.7188 29.7031 92.2344 29.4844 94.7344 29.4844C97.2344 29.4844 99.75 29.7031 102.281 30.1406C104.812 30.5781 107.234 31.3281 109.547 32.3906C111.859 33.4219 114.016 34.8125 116.016 36.5625C118.016 38.3125 119.75 40.5156 121.219 43.1719C122.688 45.7969 123.844 48.9219 124.688 52.5469C125.531 56.1719 125.953 60.3594 125.953 65.1094C125.953 70.3594 125.453 74.9062 124.453 78.75C123.453 82.5625 122.078 85.8281 120.328 88.5469L126.938 97.9688C127.281 98.5 127.453 98.9531 127.453 99.3281C127.453 99.7656 127.297 100.141 126.984 100.453C126.703 100.797 126.375 101.078 126 101.297L123.047 102.938C122.828 103.062 122.609 103.156 122.391 103.219C122.172 103.312 121.938 103.359 121.688 103.359C121.312 103.359 120.953 103.25 120.609 103.031C120.266 102.812 119.953 102.438 119.672 101.906L115.453 94.1719C113.984 95.4219 112.422 96.4688 110.766 97.3125C109.109 98.1562 107.391 98.8281 105.609 99.3281C103.859 99.8594 102.062 100.234 100.219 100.453C98.375 100.703 96.5469 100.828 94.7344 100.828ZM111.188 77.9531C111.938 77.4844 112.625 77.6719 113.25 78.5156L115.641 81.9375C116.703 80.4062 117.578 78.2812 118.266 75.5625C118.953 72.8125 119.297 69.3281 119.297 65.1094C119.297 61.2031 119 57.9375 118.406 55.3125C117.844 52.6875 117.078 50.5781 116.109 48.9844C115.172 47.3906 114.094 46.2656 112.875 45.6094C111.656 44.9219 110.406 44.5781 109.125 44.5781C107.844 44.5781 106.594 44.9219 105.375 45.6094C104.188 46.2656 103.109 47.3906 102.141 48.9844C101.172 50.5781 100.391 52.6875 99.7969 55.3125C99.2344 57.9375 98.9531 61.2031 98.9531 65.1094C98.9531 69.0156 99.2344 72.2812 99.7969 74.9062C100.391 77.5312 101.172 79.6406 102.141 81.2344C103.109 82.8281 104.188 83.9688 105.375 84.6562C106.594 85.3125 107.844 85.6406 109.125 85.6406C109.719 85.6406 110.266 85.5781 110.766 85.4531L108.469 81.1875C108.25 80.7812 108.172 80.4062 108.234 80.0625C108.297 79.6875 108.547 79.375 108.984 79.125L111.188 77.9531ZM162.891 100.828C160.391 100.828 157.875 100.609 155.344 100.172C152.844 99.7344 150.438 98.9844 148.125 97.9219C145.812 96.8594 143.656 95.4531 141.656 93.7031C139.656 91.9219 137.906 89.7188 136.406 87.0938C134.938 84.4375 133.781 81.3125 132.938 77.7188C132.094 74.0938 131.672 69.8906 131.672 65.1094C131.672 60.3594 132.094 56.1719 132.938 52.5469C133.781 48.9219 134.938 45.7969 136.406 43.1719C137.906 40.5156 139.656 38.3125 141.656 36.5625C143.656 34.8125 145.812 33.4219 148.125 32.3906C150.438 31.3281 152.844 30.5781 155.344 30.1406C157.875 29.7031 160.391 29.4844 162.891 29.4844C165.391 29.4844 167.906 29.7031 170.438 30.1406C172.969 30.5781 175.391 31.3281 177.703 32.3906C180.016 33.4219 182.172 34.8125 184.172 36.5625C186.172 38.3125 187.906 40.5156 189.375 43.1719C190.844 45.7969 192 48.9219 192.844 52.5469C193.688 56.1719 194.109 60.3594 194.109 65.1094C194.109 69.8594 193.688 74.0469 192.844 77.6719C192 81.2969 190.844 84.4375 189.375 87.0938C187.906 89.7188 186.172 91.9219 184.172 93.7031C182.172 95.4531 180.016 96.8594 177.703 97.9219C175.391 98.9844 172.969 99.7344 170.438 100.172C167.906 100.609 165.391 100.828 162.891 100.828ZM167.109 65.1094C167.109 69.0156 167.391 72.2812 167.953 74.9062C168.547 77.5312 169.328 79.6406 170.297 81.2344C171.266 82.8281 172.344 83.9688 173.531 84.6562C174.75 85.3125 176 85.6406 177.281 85.6406C178.562 85.6406 179.812 85.3125 181.031 84.6562C182.25 83.9688 183.328 82.8281 184.266 81.2344C185.234 79.6406 186 77.5312 186.562 74.9062C187.156 72.2812 187.453 69.0156 187.453 65.1094C187.453 61.2031 187.156 57.9375 186.562 55.3125C186 52.6875 185.234 50.5781 184.266 48.9844C183.328 47.3906 182.25 46.2656 181.031 45.6094C179.812 44.9219 178.562 44.5781 177.281 44.5781C176 44.5781 174.75 44.9219 173.531 45.6094C172.344 46.2656 171.266 47.3906 170.297 48.9844C169.328 50.5781 168.547 52.6875 167.953 55.3125C167.391 57.9375 167.109 61.2031 167.109 65.1094ZM231.047 100.828C228.547 100.828 226.031 100.609 223.5 100.172C221 99.7344 218.594 98.9844 216.281 97.9219C213.969 96.8594 211.812 95.4531 209.812 93.7031C207.812 91.9219 206.062 89.7188 204.562 87.0938C203.094 84.4375 201.938 81.3125 201.094 77.7188C200.25 74.0938 199.828 69.8906 199.828 65.1094C199.828 60.3594 200.25 56.1719 201.094 52.5469C201.938 48.9219 203.094 45.7969 204.562 43.1719C206.062 40.5156 207.812 38.3125 209.812 36.5625C211.812 34.8125 213.969 33.4219 216.281 32.3906C218.594 31.3281 221 30.5781 223.5 30.1406C226.031 29.7031 228.547 29.4844 231.047 29.4844C233.547 29.4844 236.062 29.7031 238.594 30.1406C241.125 30.5781 243.547 31.3281 245.859 32.3906C248.172 33.4219 250.328 34.8125 252.328 36.5625C254.328 38.3125 256.062 40.5156 257.531 43.1719C259 45.7969 260.156 48.9219 261 52.5469C261.844 56.1719 262.266 60.3594 262.266 65.1094C262.266 69.8594 261.844 74.0469 261 77.6719C260.156 81.2969 259 84.4375 257.531 87.0938C256.062 89.7188 254.328 91.9219 252.328 93.7031C250.328 95.4531 248.172 96.8594 245.859 97.9219C243.547 98.9844 241.125 99.7344 238.594 100.172C236.062 100.609 233.547 100.828 231.047 100.828ZM235.266 65.1094C235.266 69.0156 235.547 72.2812 236.109 74.9062C236.703 77.5312 237.484 79.6406 238.453 81.2344C239.422 82.8281 240.5 83.9688 241.688 84.6562C242.906 85.3125 244.156 85.6406 245.438 85.6406C246.719 85.6406 247.969 85.3125 249.188 84.6562C250.406 83.9688 251.484 82.8281 252.422 81.2344C253.391 79.6406 254.156 77.5312 254.719 74.9062C255.312 72.2812 255.609 69.0156 255.609 65.1094C255.609 61.2031 255.312 57.9375 254.719 55.3125C254.156 52.6875 253.391 50.5781 252.422 48.9844C251.484 47.3906 250.406 46.2656 249.188 45.6094C247.969 44.9219 246.719 44.5781 245.438 44.5781C244.156 44.5781 242.906 44.9219 241.688 45.6094C240.5 46.2656 239.422 47.3906 238.453 48.9844C237.484 50.5781 236.703 52.6875 236.109 55.3125C235.547 57.9375 235.266 61.2031 235.266 65.1094Z" fill="black"/>
</svg>
