<svg width="266" height="127" viewBox="0 0 266 127" fill="none" xmlns="http://www.w3.org/2000/svg">
<path d="M34.5156 100.828C32.0156 100.828 29.5 100.609 26.9688 100.172C24.4688 99.7344 22.0625 98.9844 19.75 97.9219C17.4375 96.8594 15.2812 95.4531 13.2812 93.7031C11.2812 91.9219 9.53125 89.7188 8.03125 87.0938C6.5625 84.4375 5.40625 81.3125 4.5625 77.7188C3.71875 74.0938 3.29688 69.8906 3.29688 65.1094C3.29688 60.3594 3.71875 56.1719 4.5625 52.5469C5.40625 48.9219 6.5625 45.7969 8.03125 43.1719C9.53125 40.5156 11.2812 38.3125 13.2812 36.5625C15.2812 34.8125 17.4375 33.4219 19.75 32.3906C22.0625 31.3281 24.4688 30.5781 26.9688 30.1406C29.5 29.7031 32.0156 29.4844 34.5156 29.4844C37.0156 29.4844 39.5312 29.7031 42.0625 30.1406C44.5938 30.5781 47.0156 31.3281 49.3281 32.3906C51.6406 33.4219 53.7969 34.8125 55.7969 36.5625C57.7969 38.3125 59.5312 40.5156 61 43.1719C62.4688 45.7969 63.625 48.9219 64.4688 52.5469C65.3125 56.1719 65.7344 60.3594 65.7344 65.1094C65.7344 70.3594 65.2344 74.9062 64.2344 78.75C63.2344 82.5625 61.8594 85.8281 60.1094 88.5469L66.7188 97.9688C67.0625 98.5 67.2344 98.9531 67.2344 99.3281C67.2344 99.7656 67.0781 100.141 66.7656 100.453C66.4844 100.797 66.1562 101.078 65.7812 101.297L62.8281 102.938C62.6094 103.062 62.3906 103.156 62.1719 103.219C61.9531 103.312 61.7188 103.359 61.4688 103.359C61.0938 103.359 60.7344 103.25 60.3906 103.031C60.0469 102.812 59.7344 102.438 59.4531 101.906L55.2344 94.1719C53.7656 95.4219 52.2031 96.4688 50.5469 97.3125C48.8906 98.1562 47.1719 98.8281 45.3906 99.3281C43.6406 99.8594 41.8438 100.234 40 100.453C38.1562 100.703 36.3281 100.828 34.5156 100.828ZM50.9688 77.9531C51.7188 77.4844 52.4062 77.6719 53.0312 78.5156L55.4219 81.9375C56.4844 80.4062 57.3594 78.2812 58.0469 75.5625C58.7344 72.8125 59.0781 69.3281 59.0781 65.1094C59.0781 61.2031 58.7812 57.9375 58.1875 55.3125C57.625 52.6875 56.8594 50.5781 55.8906 48.9844C54.9531 47.3906 53.875 46.2656 52.6562 45.6094C51.4375 44.9219 50.1875 44.5781 48.9062 44.5781C47.625 44.5781 46.375 44.9219 45.1562 45.6094C43.9688 46.2656 42.8906 47.3906 41.9219 48.9844C40.9531 50.5781 40.1719 52.6875 39.5781 55.3125C39.0156 57.9375 38.7344 61.2031 38.7344 65.1094C38.7344 69.0156 39.0156 72.2812 39.5781 74.9062C40.1719 77.5312 40.9531 79.6406 41.9219 81.2344C42.8906 82.8281 43.9688 83.9688 45.1562 84.6562C46.375 85.3125 47.625 85.6406 48.9062 85.6406C49.5 85.6406 50.0469 85.5781 50.5469 85.4531L48.25 81.1875C48.0312 80.7812 47.9531 80.4062 48.0156 80.0625C48.0781 79.6875 48.3281 79.375 48.7656 79.125L50.9688 77.9531ZM124.938 74.7656C124.938 78.3281 124.594 81.4531 123.906 84.1406C123.219 86.7969 122.266 89.0938 121.047 91.0312C119.828 92.9688 118.391 94.5625 116.734 95.8125C115.078 97.0625 113.266 98.0625 111.297 98.8125C109.359 99.5625 107.297 100.078 105.109 100.359C102.953 100.672 100.766 100.828 98.5469 100.828C96.4219 100.828 94.2969 100.688 92.1719 100.406C90.0781 100.156 88.0781 99.6875 86.1719 99C84.2969 98.3125 82.5469 97.3594 80.9219 96.1406C79.2969 94.9219 77.8906 93.3438 76.7031 91.4062C75.5156 89.4688 74.5781 87.1406 73.8906 84.4219C73.2344 81.7031 72.9062 78.4844 72.9062 74.7656V38.25C72.9062 37.1562 73 36.2031 73.1875 35.3906C73.375 34.5781 73.7344 33.9062 74.2656 33.375C74.7969 32.8125 75.5312 32.3906 76.4688 32.1094C77.4062 31.8281 78.625 31.6875 80.125 31.6875H101.031C102.844 31.6875 104.219 31.9531 105.156 32.4844C106.125 33.0156 106.797 33.6875 107.172 34.5C107.578 35.2812 107.797 36.125 107.828 37.0312C107.859 37.9062 107.875 38.7188 107.875 39.4688V87.6094C107.875 88.0781 108 88.4219 108.25 88.6406C108.531 88.8281 108.797 88.9219 109.047 88.9219C110.172 88.9219 111.156 88.625 112 88.0312C112.844 87.4062 113.547 86.5625 114.109 85.5C114.672 84.4375 115.094 83.1875 115.375 81.75C115.688 80.3125 115.844 78.7656 115.844 77.1094V33.8906C115.844 33.3594 115.953 32.8594 116.172 32.3906C116.422 31.9219 116.953 31.6875 117.766 31.6875H122.641C122.922 31.6875 123.203 31.7031 123.484 31.7344C123.766 31.7656 124.016 31.8594 124.234 32.0156C124.453 32.1406 124.625 32.3594 124.75 32.6719C124.875 32.9531 124.938 33.3594 124.938 33.8906V74.7656ZM163.328 100.828C160.828 100.828 158.312 100.609 155.781 100.172C153.281 99.7344 150.875 98.9844 148.562 97.9219C146.25 96.8594 144.094 95.4531 142.094 93.7031C140.094 91.9219 138.344 89.7188 136.844 87.0938C135.375 84.4375 134.219 81.3125 133.375 77.7188C132.531 74.0938 132.109 69.8906 132.109 65.1094C132.109 60.3594 132.531 56.1719 133.375 52.5469C134.219 48.9219 135.375 45.7969 136.844 43.1719C138.344 40.5156 140.094 38.3125 142.094 36.5625C144.094 34.8125 146.25 33.4219 148.562 32.3906C150.875 31.3281 153.281 30.5781 155.781 30.1406C158.312 29.7031 160.828 29.4844 163.328 29.4844C165.828 29.4844 168.344 29.7031 170.875 30.1406C173.406 30.5781 175.828 31.3281 178.141 32.3906C180.453 33.4219 182.609 34.8125 184.609 36.5625C186.609 38.3125 188.344 40.5156 189.812 43.1719C191.281 45.7969 192.438 48.9219 193.281 52.5469C194.125 56.1719 194.547 60.3594 194.547 65.1094C194.547 70.3594 194.047 74.9062 193.047 78.75C192.047 82.5625 190.672 85.8281 188.922 88.5469L195.531 97.9688C195.875 98.5 196.047 98.9531 196.047 99.3281C196.047 99.7656 195.891 100.141 195.578 100.453C195.297 100.797 194.969 101.078 194.594 101.297L191.641 102.938C191.422 103.062 191.203 103.156 190.984 103.219C190.766 103.312 190.531 103.359 190.281 103.359C189.906 103.359 189.547 103.25 189.203 103.031C188.859 102.812 188.547 102.438 188.266 101.906L184.047 94.1719C182.578 95.4219 181.016 96.4688 179.359 97.3125C177.703 98.1562 175.984 98.8281 174.203 99.3281C172.453 99.8594 170.656 100.234 168.812 100.453C166.969 100.703 165.141 100.828 163.328 100.828ZM179.781 77.9531C180.531 77.4844 181.219 77.6719 181.844 78.5156L184.234 81.9375C185.297 80.4062 186.172 78.2812 186.859 75.5625C187.547 72.8125 187.891 69.3281 187.891 65.1094C187.891 61.2031 187.594 57.9375 187 55.3125C186.438 52.6875 185.672 50.5781 184.703 48.9844C183.766 47.3906 182.688 46.2656 181.469 45.6094C180.25 44.9219 179 44.5781 177.719 44.5781C176.438 44.5781 175.188 44.9219 173.969 45.6094C172.781 46.2656 171.703 47.3906 170.734 48.9844C169.766 50.5781 168.984 52.6875 168.391 55.3125C167.828 57.9375 167.547 61.2031 167.547 65.1094C167.547 69.0156 167.828 72.2812 168.391 74.9062C168.984 77.5312 169.766 79.6406 170.734 81.2344C171.703 82.8281 172.781 83.9688 173.969 84.6562C175.188 85.3125 176.438 85.6406 177.719 85.6406C178.312 85.6406 178.859 85.5781 179.359 85.4531L177.062 81.1875C176.844 80.7812 176.766 80.4062 176.828 80.0625C176.891 79.6875 177.141 79.375 177.578 79.125L179.781 77.9531ZM231.484 100.828C228.984 100.828 226.469 100.609 223.938 100.172C221.438 99.7344 219.031 98.9844 216.719 97.9219C214.406 96.8594 212.25 95.4531 210.25 93.7031C208.25 91.9219 206.5 89.7188 205 87.0938C203.531 84.4375 202.375 81.3125 201.531 77.7188C200.688 74.0938 200.266 69.8906 200.266 65.1094C200.266 60.3594 200.688 56.1719 201.531 52.5469C202.375 48.9219 203.531 45.7969 205 43.1719C206.5 40.5156 208.25 38.3125 210.25 36.5625C212.25 34.8125 214.406 33.4219 216.719 32.3906C219.031 31.3281 221.438 30.5781 223.938 30.1406C226.469 29.7031 228.984 29.4844 231.484 29.4844C233.984 29.4844 236.5 29.7031 239.031 30.1406C241.562 30.5781 243.984 31.3281 246.297 32.3906C248.609 33.4219 250.766 34.8125 252.766 36.5625C254.766 38.3125 256.5 40.5156 257.969 43.1719C259.438 45.7969 260.594 48.9219 261.438 52.5469C262.281 56.1719 262.703 60.3594 262.703 65.1094C262.703 69.8594 262.281 74.0469 261.438 77.6719C260.594 81.2969 259.438 84.4375 257.969 87.0938C256.5 89.7188 254.766 91.9219 252.766 93.7031C250.766 95.4531 248.609 96.8594 246.297 97.9219C243.984 98.9844 241.562 99.7344 239.031 100.172C236.5 100.609 233.984 100.828 231.484 100.828ZM235.703 65.1094C235.703 69.0156 235.984 72.2812 236.547 74.9062C237.141 77.5312 237.922 79.6406 238.891 81.2344C239.859 82.8281 240.938 83.9688 242.125 84.6562C243.344 85.3125 244.594 85.6406 245.875 85.6406C247.156 85.6406 248.406 85.3125 249.625 84.6562C250.844 83.9688 251.922 82.8281 252.859 81.2344C253.828 79.6406 254.594 77.5312 255.156 74.9062C255.75 72.2812 256.047 69.0156 256.047 65.1094C256.047 61.2031 255.75 57.9375 255.156 55.3125C254.594 52.6875 253.828 50.5781 252.859 48.9844C251.922 47.3906 250.844 46.2656 249.625 45.6094C248.406 44.9219 247.156 44.5781 245.875 44.5781C244.594 44.5781 243.344 44.9219 242.125 45.6094C240.938 46.2656 239.859 47.3906 238.891 48.9844C237.922 50.5781 237.141 52.6875 236.547 55.3125C235.984 57.9375 235.703 61.2031 235.703 65.1094Z" fill="black"/>
</svg>
