<svg width="266" height="127" viewBox="0 0 266 127" fill="none" xmlns="http://www.w3.org/2000/svg">
<path d="M34.5156 100.828C32.0156 100.828 29.5 100.609 26.9688 100.172C24.4688 99.7344 22.0625 98.9844 19.75 97.9219C17.4375 96.8594 15.2812 95.4531 13.2812 93.7031C11.2812 91.9219 9.53125 89.7188 8.03125 87.0938C6.5625 84.4375 5.40625 81.3125 4.5625 77.7188C3.71875 74.0938 3.29688 69.8906 3.29688 65.1094C3.29688 60.3594 3.71875 56.1719 4.5625 52.5469C5.40625 48.9219 6.5625 45.7969 8.03125 43.1719C9.53125 40.5156 11.2812 38.3125 13.2812 36.5625C15.2812 34.8125 17.4375 33.4219 19.75 32.3906C22.0625 31.3281 24.4688 30.5781 26.9688 30.1406C29.5 29.7031 32.0156 29.4844 34.5156 29.4844C37.0156 29.4844 39.5312 29.7031 42.0625 30.1406C44.5938 30.5781 47.0156 31.3281 49.3281 32.3906C51.6406 33.4219 53.7969 34.8125 55.7969 36.5625C57.7969 38.3125 59.5312 40.5156 61 43.1719C62.4688 45.7969 63.625 48.9219 64.4688 52.5469C65.3125 56.1719 65.7344 60.3594 65.7344 65.1094C65.7344 70.3594 65.2344 74.9062 64.2344 78.75C63.2344 82.5625 61.8594 85.8281 60.1094 88.5469L66.7188 97.9688C67.0625 98.5 67.2344 98.9531 67.2344 99.3281C67.2344 99.7656 67.0781 100.141 66.7656 100.453C66.4844 100.797 66.1562 101.078 65.7812 101.297L62.8281 102.938C62.6094 103.062 62.3906 103.156 62.1719 103.219C61.9531 103.312 61.7188 103.359 61.4688 103.359C61.0938 103.359 60.7344 103.25 60.3906 103.031C60.0469 102.812 59.7344 102.438 59.4531 101.906L55.2344 94.1719C53.7656 95.4219 52.2031 96.4688 50.5469 97.3125C48.8906 98.1562 47.1719 98.8281 45.3906 99.3281C43.6406 99.8594 41.8438 100.234 40 100.453C38.1562 100.703 36.3281 100.828 34.5156 100.828ZM50.9688 77.9531C51.7188 77.4844 52.4062 77.6719 53.0312 78.5156L55.4219 81.9375C56.4844 80.4062 57.3594 78.2812 58.0469 75.5625C58.7344 72.8125 59.0781 69.3281 59.0781 65.1094C59.0781 61.2031 58.7812 57.9375 58.1875 55.3125C57.625 52.6875 56.8594 50.5781 55.8906 48.9844C54.9531 47.3906 53.875 46.2656 52.6562 45.6094C51.4375 44.9219 50.1875 44.5781 48.9062 44.5781C47.625 44.5781 46.375 44.9219 45.1562 45.6094C43.9688 46.2656 42.8906 47.3906 41.9219 48.9844C40.9531 50.5781 40.1719 52.6875 39.5781 55.3125C39.0156 57.9375 38.7344 61.2031 38.7344 65.1094C38.7344 69.0156 39.0156 72.2812 39.5781 74.9062C40.1719 77.5312 40.9531 79.6406 41.9219 81.2344C42.8906 82.8281 43.9688 83.9688 45.1562 84.6562C46.375 85.3125 47.625 85.6406 48.9062 85.6406C49.5 85.6406 50.0469 85.5781 50.5469 85.4531L48.25 81.1875C48.0312 80.7812 47.9531 80.4062 48.0156 80.0625C48.0781 79.6875 48.3281 79.375 48.7656 79.125L50.9688 77.9531ZM102.672 100.828C100.172 100.828 97.6562 100.609 95.125 100.172C92.625 99.7344 90.2188 98.9844 87.9062 97.9219C85.5938 96.8594 83.4375 95.4531 81.4375 93.7031C79.4375 91.9219 77.6875 89.7188 76.1875 87.0938C74.7188 84.4375 73.5625 81.3125 72.7188 77.7188C71.875 74.0938 71.4531 69.8906 71.4531 65.1094C71.4531 60.3594 71.875 56.1719 72.7188 52.5469C73.5625 48.9219 74.7188 45.7969 76.1875 43.1719C77.6875 40.5156 79.4375 38.3125 81.4375 36.5625C83.4375 34.8125 85.5938 33.4219 87.9062 32.3906C90.2188 31.3281 92.625 30.5781 95.125 30.1406C97.6562 29.7031 100.172 29.4844 102.672 29.4844C105.172 29.4844 107.688 29.7031 110.219 30.1406C112.75 30.5781 115.172 31.3281 117.484 32.3906C119.797 33.4219 121.953 34.8125 123.953 36.5625C125.953 38.3125 127.688 40.5156 129.156 43.1719C130.625 45.7969 131.781 48.9219 132.625 52.5469C133.469 56.1719 133.891 60.3594 133.891 65.1094C133.891 70.3594 133.391 74.9062 132.391 78.75C131.391 82.5625 130.016 85.8281 128.266 88.5469L134.875 97.9688C135.219 98.5 135.391 98.9531 135.391 99.3281C135.391 99.7656 135.234 100.141 134.922 100.453C134.641 100.797 134.312 101.078 133.938 101.297L130.984 102.938C130.766 103.062 130.547 103.156 130.328 103.219C130.109 103.312 129.875 103.359 129.625 103.359C129.25 103.359 128.891 103.25 128.547 103.031C128.203 102.812 127.891 102.438 127.609 101.906L123.391 94.1719C121.922 95.4219 120.359 96.4688 118.703 97.3125C117.047 98.1562 115.328 98.8281 113.547 99.3281C111.797 99.8594 110 100.234 108.156 100.453C106.312 100.703 104.484 100.828 102.672 100.828ZM119.125 77.9531C119.875 77.4844 120.562 77.6719 121.188 78.5156L123.578 81.9375C124.641 80.4062 125.516 78.2812 126.203 75.5625C126.891 72.8125 127.234 69.3281 127.234 65.1094C127.234 61.2031 126.938 57.9375 126.344 55.3125C125.781 52.6875 125.016 50.5781 124.047 48.9844C123.109 47.3906 122.031 46.2656 120.812 45.6094C119.594 44.9219 118.344 44.5781 117.062 44.5781C115.781 44.5781 114.531 44.9219 113.312 45.6094C112.125 46.2656 111.047 47.3906 110.078 48.9844C109.109 50.5781 108.328 52.6875 107.734 55.3125C107.172 57.9375 106.891 61.2031 106.891 65.1094C106.891 69.0156 107.172 72.2812 107.734 74.9062C108.328 77.5312 109.109 79.6406 110.078 81.2344C111.047 82.8281 112.125 83.9688 113.312 84.6562C114.531 85.3125 115.781 85.6406 117.062 85.6406C117.656 85.6406 118.203 85.5781 118.703 85.4531L116.406 81.1875C116.188 80.7812 116.109 80.4062 116.172 80.0625C116.234 79.6875 116.484 79.375 116.922 79.125L119.125 77.9531ZM193.094 74.7656C193.094 78.3281 192.75 81.4531 192.062 84.1406C191.375 86.7969 190.422 89.0938 189.203 91.0312C187.984 92.9688 186.547 94.5625 184.891 95.8125C183.234 97.0625 181.422 98.0625 179.453 98.8125C177.516 99.5625 175.453 100.078 173.266 100.359C171.109 100.672 168.922 100.828 166.703 100.828C164.578 100.828 162.453 100.688 160.328 100.406C158.234 100.156 156.234 99.6875 154.328 99C152.453 98.3125 150.703 97.3594 149.078 96.1406C147.453 94.9219 146.047 93.3438 144.859 91.4062C143.672 89.4688 142.734 87.1406 142.047 84.4219C141.391 81.7031 141.062 78.4844 141.062 74.7656V38.25C141.062 37.1562 141.156 36.2031 141.344 35.3906C141.531 34.5781 141.891 33.9062 142.422 33.375C142.953 32.8125 143.688 32.3906 144.625 32.1094C145.562 31.8281 146.781 31.6875 148.281 31.6875H169.188C171 31.6875 172.375 31.9531 173.312 32.4844C174.281 33.0156 174.953 33.6875 175.328 34.5C175.734 35.2812 175.953 36.125 175.984 37.0312C176.016 37.9062 176.031 38.7188 176.031 39.4688V87.6094C176.031 88.0781 176.156 88.4219 176.406 88.6406C176.688 88.8281 176.953 88.9219 177.203 88.9219C178.328 88.9219 179.312 88.625 180.156 88.0312C181 87.4062 181.703 86.5625 182.266 85.5C182.828 84.4375 183.25 83.1875 183.531 81.75C183.844 80.3125 184 78.7656 184 77.1094V33.8906C184 33.3594 184.109 32.8594 184.328 32.3906C184.578 31.9219 185.109 31.6875 185.922 31.6875H190.797C191.078 31.6875 191.359 31.7031 191.641 31.7344C191.922 31.7656 192.172 31.8594 192.391 32.0156C192.609 32.1406 192.781 32.3594 192.906 32.6719C193.031 32.9531 193.094 33.3594 193.094 33.8906V74.7656ZM231.484 100.828C228.984 100.828 226.469 100.609 223.938 100.172C221.438 99.7344 219.031 98.9844 216.719 97.9219C214.406 96.8594 212.25 95.4531 210.25 93.7031C208.25 91.9219 206.5 89.7188 205 87.0938C203.531 84.4375 202.375 81.3125 201.531 77.7188C200.688 74.0938 200.266 69.8906 200.266 65.1094C200.266 60.3594 200.688 56.1719 201.531 52.5469C202.375 48.9219 203.531 45.7969 205 43.1719C206.5 40.5156 208.25 38.3125 210.25 36.5625C212.25 34.8125 214.406 33.4219 216.719 32.3906C219.031 31.3281 221.438 30.5781 223.938 30.1406C226.469 29.7031 228.984 29.4844 231.484 29.4844C233.984 29.4844 236.5 29.7031 239.031 30.1406C241.562 30.5781 243.984 31.3281 246.297 32.3906C248.609 33.4219 250.766 34.8125 252.766 36.5625C254.766 38.3125 256.5 40.5156 257.969 43.1719C259.438 45.7969 260.594 48.9219 261.438 52.5469C262.281 56.1719 262.703 60.3594 262.703 65.1094C262.703 70.3594 262.203 74.9062 261.203 78.75C260.203 82.5625 258.828 85.8281 257.078 88.5469L263.688 97.9688C264.031 98.5 264.203 98.9531 264.203 99.3281C264.203 99.7656 264.047 100.141 263.734 100.453C263.453 100.797 263.125 101.078 262.75 101.297L259.797 102.938C259.578 103.062 259.359 103.156 259.141 103.219C258.922 103.312 258.688 103.359 258.438 103.359C258.062 103.359 257.703 103.25 257.359 103.031C257.016 102.812 256.703 102.438 256.422 101.906L252.203 94.1719C250.734 95.4219 249.172 96.4688 247.516 97.3125C245.859 98.1562 244.141 98.8281 242.359 99.3281C240.609 99.8594 238.812 100.234 236.969 100.453C235.125 100.703 233.297 100.828 231.484 100.828ZM247.938 77.9531C248.688 77.4844 249.375 77.6719 250 78.5156L252.391 81.9375C253.453 80.4062 254.328 78.2812 255.016 75.5625C255.703 72.8125 256.047 69.3281 256.047 65.1094C256.047 61.2031 255.75 57.9375 255.156 55.3125C254.594 52.6875 253.828 50.5781 252.859 48.9844C251.922 47.3906 250.844 46.2656 249.625 45.6094C248.406 44.9219 247.156 44.5781 245.875 44.5781C244.594 44.5781 243.344 44.9219 242.125 45.6094C240.938 46.2656 239.859 47.3906 238.891 48.9844C237.922 50.5781 237.141 52.6875 236.547 55.3125C235.984 57.9375 235.703 61.2031 235.703 65.1094C235.703 69.0156 235.984 72.2812 236.547 74.9062C237.141 77.5312 237.922 79.6406 238.891 81.2344C239.859 82.8281 240.938 83.9688 242.125 84.6562C243.344 85.3125 244.594 85.6406 245.875 85.6406C246.469 85.6406 247.016 85.5781 247.516 85.4531L245.219 81.1875C245 80.7812 244.922 80.4062 244.984 80.0625C245.047 79.6875 245.297 79.375 245.734 79.125L247.938 77.9531Z" fill="black"/>
</svg>
