<svg width="266" height="127" viewBox="0 0 266 127" fill="none" xmlns="http://www.w3.org/2000/svg">
<path d="M34.5156 100.828C32.0156 100.828 29.5 100.609 26.9688 100.172C24.4688 99.7344 22.0625 98.9844 19.75 97.9219C17.4375 96.8594 15.2812 95.4531 13.2812 93.7031C11.2812 91.9219 9.53125 89.7188 8.03125 87.0938C6.5625 84.4375 5.40625 81.3125 4.5625 77.7188C3.71875 74.0938 3.29688 69.8906 3.29688 65.1094C3.29688 60.3594 3.71875 56.1719 4.5625 52.5469C5.40625 48.9219 6.5625 45.7969 8.03125 43.1719C9.53125 40.5156 11.2812 38.3125 13.2812 36.5625C15.2812 34.8125 17.4375 33.4219 19.75 32.3906C22.0625 31.3281 24.4688 30.5781 26.9688 30.1406C29.5 29.7031 32.0156 29.4844 34.5156 29.4844C37.0156 29.4844 39.5312 29.7031 42.0625 30.1406C44.5938 30.5781 47.0156 31.3281 49.3281 32.3906C51.6406 33.4219 53.7969 34.8125 55.7969 36.5625C57.7969 38.3125 59.5312 40.5156 61 43.1719C62.4688 45.7969 63.625 48.9219 64.4688 52.5469C65.3125 56.1719 65.7344 60.3594 65.7344 65.1094C65.7344 69.8594 65.3125 74.0469 64.4688 77.6719C63.625 81.2969 62.4688 84.4375 61 87.0938C59.5312 89.7188 57.7969 91.9219 55.7969 93.7031C53.7969 95.4531 51.6406 96.8594 49.3281 97.9219C47.0156 98.9844 44.5938 99.7344 42.0625 100.172C39.5312 100.609 37.0156 100.828 34.5156 100.828ZM38.7344 65.1094C38.7344 69.0156 39.0156 72.2812 39.5781 74.9062C40.1719 77.5312 40.9531 79.6406 41.9219 81.2344C42.8906 82.8281 43.9688 83.9688 45.1562 84.6562C46.375 85.3125 47.625 85.6406 48.9062 85.6406C50.1875 85.6406 51.4375 85.3125 52.6562 84.6562C53.875 83.9688 54.9531 82.8281 55.8906 81.2344C56.8594 79.6406 57.625 77.5312 58.1875 74.9062C58.7812 72.2812 59.0781 69.0156 59.0781 65.1094C59.0781 61.2031 58.7812 57.9375 58.1875 55.3125C57.625 52.6875 56.8594 50.5781 55.8906 48.9844C54.9531 47.3906 53.875 46.2656 52.6562 45.6094C51.4375 44.9219 50.1875 44.5781 48.9062 44.5781C47.625 44.5781 46.375 44.9219 45.1562 45.6094C43.9688 46.2656 42.8906 47.3906 41.9219 48.9844C40.9531 50.5781 40.1719 52.6875 39.5781 55.3125C39.0156 57.9375 38.7344 61.2031 38.7344 65.1094ZM102.672 100.828C100.172 100.828 97.6562 100.609 95.125 100.172C92.625 99.7344 90.2188 98.9844 87.9062 97.9219C85.5938 96.8594 83.4375 95.4531 81.4375 93.7031C79.4375 91.9219 77.6875 89.7188 76.1875 87.0938C74.7188 84.4375 73.5625 81.3125 72.7188 77.7188C71.875 74.0938 71.4531 69.8906 71.4531 65.1094C71.4531 60.3594 71.875 56.1719 72.7188 52.5469C73.5625 48.9219 74.7188 45.7969 76.1875 43.1719C77.6875 40.5156 79.4375 38.3125 81.4375 36.5625C83.4375 34.8125 85.5938 33.4219 87.9062 32.3906C90.2188 31.3281 92.625 30.5781 95.125 30.1406C97.6562 29.7031 100.172 29.4844 102.672 29.4844C105.172 29.4844 107.688 29.7031 110.219 30.1406C112.75 30.5781 115.172 31.3281 117.484 32.3906C119.797 33.4219 121.953 34.8125 123.953 36.5625C125.953 38.3125 127.688 40.5156 129.156 43.1719C130.625 45.7969 131.781 48.9219 132.625 52.5469C133.469 56.1719 133.891 60.3594 133.891 65.1094C133.891 70.3594 133.391 74.9062 132.391 78.75C131.391 82.5625 130.016 85.8281 128.266 88.5469L134.875 97.9688C135.219 98.5 135.391 98.9531 135.391 99.3281C135.391 99.7656 135.234 100.141 134.922 100.453C134.641 100.797 134.312 101.078 133.938 101.297L130.984 102.938C130.766 103.062 130.547 103.156 130.328 103.219C130.109 103.312 129.875 103.359 129.625 103.359C129.25 103.359 128.891 103.25 128.547 103.031C128.203 102.812 127.891 102.438 127.609 101.906L123.391 94.1719C121.922 95.4219 120.359 96.4688 118.703 97.3125C117.047 98.1562 115.328 98.8281 113.547 99.3281C111.797 99.8594 110 100.234 108.156 100.453C106.312 100.703 104.484 100.828 102.672 100.828ZM119.125 77.9531C119.875 77.4844 120.562 77.6719 121.188 78.5156L123.578 81.9375C124.641 80.4062 125.516 78.2812 126.203 75.5625C126.891 72.8125 127.234 69.3281 127.234 65.1094C127.234 61.2031 126.938 57.9375 126.344 55.3125C125.781 52.6875 125.016 50.5781 124.047 48.9844C123.109 47.3906 122.031 46.2656 120.812 45.6094C119.594 44.9219 118.344 44.5781 117.062 44.5781C115.781 44.5781 114.531 44.9219 113.312 45.6094C112.125 46.2656 111.047 47.3906 110.078 48.9844C109.109 50.5781 108.328 52.6875 107.734 55.3125C107.172 57.9375 106.891 61.2031 106.891 65.1094C106.891 69.0156 107.172 72.2812 107.734 74.9062C108.328 77.5312 109.109 79.6406 110.078 81.2344C111.047 82.8281 112.125 83.9688 113.312 84.6562C114.531 85.3125 115.781 85.6406 117.062 85.6406C117.656 85.6406 118.203 85.5781 118.703 85.4531L116.406 81.1875C116.188 80.7812 116.109 80.4062 116.172 80.0625C116.234 79.6875 116.484 79.375 116.922 79.125L119.125 77.9531ZM170.828 100.828C168.328 100.828 165.812 100.609 163.281 100.172C160.781 99.7344 158.375 98.9844 156.062 97.9219C153.75 96.8594 151.594 95.4531 149.594 93.7031C147.594 91.9219 145.844 89.7188 144.344 87.0938C142.875 84.4375 141.719 81.3125 140.875 77.7188C140.031 74.0938 139.609 69.8906 139.609 65.1094C139.609 60.3594 140.031 56.1719 140.875 52.5469C141.719 48.9219 142.875 45.7969 144.344 43.1719C145.844 40.5156 147.594 38.3125 149.594 36.5625C151.594 34.8125 153.75 33.4219 156.062 32.3906C158.375 31.3281 160.781 30.5781 163.281 30.1406C165.812 29.7031 168.328 29.4844 170.828 29.4844C173.328 29.4844 175.844 29.7031 178.375 30.1406C180.906 30.5781 183.328 31.3281 185.641 32.3906C187.953 33.4219 190.109 34.8125 192.109 36.5625C194.109 38.3125 195.844 40.5156 197.312 43.1719C198.781 45.7969 199.938 48.9219 200.781 52.5469C201.625 56.1719 202.047 60.3594 202.047 65.1094C202.047 70.3594 201.547 74.9062 200.547 78.75C199.547 82.5625 198.172 85.8281 196.422 88.5469L203.031 97.9688C203.375 98.5 203.547 98.9531 203.547 99.3281C203.547 99.7656 203.391 100.141 203.078 100.453C202.797 100.797 202.469 101.078 202.094 101.297L199.141 102.938C198.922 103.062 198.703 103.156 198.484 103.219C198.266 103.312 198.031 103.359 197.781 103.359C197.406 103.359 197.047 103.25 196.703 103.031C196.359 102.812 196.047 102.438 195.766 101.906L191.547 94.1719C190.078 95.4219 188.516 96.4688 186.859 97.3125C185.203 98.1562 183.484 98.8281 181.703 99.3281C179.953 99.8594 178.156 100.234 176.312 100.453C174.469 100.703 172.641 100.828 170.828 100.828ZM187.281 77.9531C188.031 77.4844 188.719 77.6719 189.344 78.5156L191.734 81.9375C192.797 80.4062 193.672 78.2812 194.359 75.5625C195.047 72.8125 195.391 69.3281 195.391 65.1094C195.391 61.2031 195.094 57.9375 194.5 55.3125C193.938 52.6875 193.172 50.5781 192.203 48.9844C191.266 47.3906 190.188 46.2656 188.969 45.6094C187.75 44.9219 186.5 44.5781 185.219 44.5781C183.938 44.5781 182.688 44.9219 181.469 45.6094C180.281 46.2656 179.203 47.3906 178.234 48.9844C177.266 50.5781 176.484 52.6875 175.891 55.3125C175.328 57.9375 175.047 61.2031 175.047 65.1094C175.047 69.0156 175.328 72.2812 175.891 74.9062C176.484 77.5312 177.266 79.6406 178.234 81.2344C179.203 82.8281 180.281 83.9688 181.469 84.6562C182.688 85.3125 183.938 85.6406 185.219 85.6406C185.812 85.6406 186.359 85.5781 186.859 85.4531L184.562 81.1875C184.344 80.7812 184.266 80.4062 184.328 80.0625C184.391 79.6875 184.641 79.375 185.078 79.125L187.281 77.9531ZM261.25 74.7656C261.25 78.3281 260.906 81.4531 260.219 84.1406C259.531 86.7969 258.578 89.0938 257.359 91.0312C256.141 92.9688 254.703 94.5625 253.047 95.8125C251.391 97.0625 249.578 98.0625 247.609 98.8125C245.672 99.5625 243.609 100.078 241.422 100.359C239.266 100.672 237.078 100.828 234.859 100.828C232.734 100.828 230.609 100.688 228.484 100.406C226.391 100.156 224.391 99.6875 222.484 99C220.609 98.3125 218.859 97.3594 217.234 96.1406C215.609 94.9219 214.203 93.3438 213.016 91.4062C211.828 89.4688 210.891 87.1406 210.203 84.4219C209.547 81.7031 209.219 78.4844 209.219 74.7656V38.25C209.219 37.1562 209.312 36.2031 209.5 35.3906C209.688 34.5781 210.047 33.9062 210.578 33.375C211.109 32.8125 211.844 32.3906 212.781 32.1094C213.719 31.8281 214.938 31.6875 216.438 31.6875H237.344C239.156 31.6875 240.531 31.9531 241.469 32.4844C242.438 33.0156 243.109 33.6875 243.484 34.5C243.891 35.2812 244.109 36.125 244.141 37.0312C244.172 37.9062 244.188 38.7188 244.188 39.4688V87.6094C244.188 88.0781 244.312 88.4219 244.562 88.6406C244.844 88.8281 245.109 88.9219 245.359 88.9219C246.484 88.9219 247.469 88.625 248.312 88.0312C249.156 87.4062 249.859 86.5625 250.422 85.5C250.984 84.4375 251.406 83.1875 251.688 81.75C252 80.3125 252.156 78.7656 252.156 77.1094V33.8906C252.156 33.3594 252.266 32.8594 252.484 32.3906C252.734 31.9219 253.266 31.6875 254.078 31.6875H258.953C259.234 31.6875 259.516 31.7031 259.797 31.7344C260.078 31.7656 260.328 31.8594 260.547 32.0156C260.766 32.1406 260.938 32.3594 261.062 32.6719C261.188 32.9531 261.25 33.3594 261.25 33.8906V74.7656Z" fill="black"/>
</svg>
