<svg width="451" height="455" viewBox="0 0 451 455" fill="none" xmlns="http://www.w3.org/2000/svg">
<rect x="305.25" y="49.25" width="96" height="96" rx="48" fill="#F9A8C4"/>
<path d="M373.25 97.25L353.25 117.25L333.25 97.25H373.25Z" fill="#050A0A"/>
<path d="M353.25 77.25H373.25V97.25L353.25 77.25Z" fill="#050A0A"/>
<path d="M353.25 77.25L333.25 97.25V77.25H353.25Z" fill="#050A0A"/>
<rect x="177.25" y="49.25" width="96" height="96" rx="48" fill="#7ED6E1"/>
<path d="M225.25 77.25L245.25 97.25L225.25 117.25V77.25Z" fill="#050A0A"/>
<path d="M205.25 97.25V77.25H225.25L205.25 97.25Z" fill="#050A0A"/>
<path d="M205.25 97.25L225.25 117.25H205.25V97.25Z" fill="#050A0A"/>
<rect x="305.25" y="309.25" width="96" height="96" rx="48" fill="#8E86FF"/>
<path d="M333.25 357.25L353.25 337.25L373.25 357.25H333.25Z" fill="#050A0A"/>
<path d="M353.25 377.25H333.25V357.25L353.25 377.25Z" fill="#050A0A"/>
<path d="M353.25 377.25L373.25 357.25V377.25H353.25Z" fill="#050A0A"/>
<rect x="177.25" y="309.25" width="96" height="96" rx="48" fill="#F9A8C4"/>
<path d="M225.25 377.25L205.25 357.25L225.25 337.25V377.25Z" fill="#050A0A"/>
<path d="M245.25 357.25V377.25H225.25L245.25 357.25Z" fill="#050A0A"/>
<path d="M245.25 357.25L225.25 337.25H245.25V357.25Z" fill="#050A0A"/>
<rect x="305.25" y="179.25" width="96" height="96" rx="48" fill="#7ED6E1"/>
<path d="M353.25 207.25L373.25 227.25L353.25 247.25V207.25Z" fill="#050A0A"/>
<path d="M333.25 227.25V207.25H353.25L333.25 227.25Z" fill="#050A0A"/>
<path d="M333.25 227.25L353.25 247.25H333.25V227.25Z" fill="#050A0A"/>
<rect x="49.25" y="49.25" width="96" height="96" rx="48" fill="#8E86FF"/>
<path d="M77.25 97.25L97.25 77.25L117.25 97.25H77.25Z" fill="#050A0A"/>
<path d="M97.25 117.25H77.25V97.25L97.25 117.25Z" fill="#050A0A"/>
<path d="M97.25 117.25L117.25 97.25V117.25L97.25 117.25Z" fill="#050A0A"/>
<rect x="49.25" y="309.25" width="96" height="96" rx="48" fill="#7ED6E1"/>
<path d="M117.25 357.25L97.25 377.25L77.25 357.25H117.25Z" fill="#050A0A"/>
<path d="M97.25 337.25H117.25V357.25L97.25 337.25Z" fill="#050A0A"/>
<path d="M97.25 337.25L77.25 357.25V337.25H97.25Z" fill="#050A0A"/>
<rect x="49.25" y="179.25" width="96" height="96" rx="48" fill="#F9A8C4"/>
<path d="M97.25 247.25L77.25 227.25L97.25 207.25V247.25Z" fill="#050A0A"/>
<path d="M117.25 227.25V247.25H97.25L117.25 227.25Z" fill="#050A0A"/>
<path d="M117.25 227.25L97.25 207.25H117.25V227.25Z" fill="#050A0A"/>
<path d="M4.25 227.25C4.25 122.127 4.25 69.5653 36.6146 36.9075C68.9795 4.25 121.07 4.25 225.25 4.25C329.429 4.25 381.52 4.25 413.886 36.9075C446.25 69.5653 446.25 122.127 446.25 227.25C446.25 332.372 446.25 384.934 413.886 417.593C381.52 450.25 329.429 450.25 225.25 450.25C121.07 450.25 68.9795 450.25 36.6146 417.593C4.25 384.934 4.25 332.372 4.25 227.25Z" stroke="#B6D8F2" stroke-width="8.5"/>
<path d="M225.25 276.417C252.404 276.417 274.417 254.404 274.417 227.25C274.417 200.096 252.404 178.083 225.25 178.083C198.096 178.083 176.083 200.096 176.083 227.25C176.083 254.404 198.096 276.417 225.25 276.417Z" stroke="#B6D8F2" stroke-width="8.5" stroke-linejoin="round"/>
</svg>
