<svg width="78" height="100" viewBox="0 0 78 100" fill="none" xmlns="http://www.w3.org/2000/svg">
<path d="M70.3378 57.2542L69.8064 90.1381C72.058 92.1911 75.6129 92.1907 75.1883 98M70.3378 57.2542C70.3378 52.9579 70.3378 52.7764 70.3378 51.7182M70.3378 57.2542V51.7182M75.1883 98C72.4279 98 67.7566 98 67.7566 98M75.1883 98H67.7566M67.7566 98C65.7699 95.5827 61.441 89.3177 60.1694 88.7614L54.191 87.0837M54.191 87.0837C58.4521 86.2179 61.659 82.4502 61.659 77.9336C61.659 72.7768 57.4785 68.5964 52.3217 68.5964H42.8638M54.191 87.0837C53.5871 87.2064 52.9619 87.2709 52.3217 87.2709H50.9308V91.7416C52.5202 91.4436 55.9971 91.384 57.1892 93.5297C58.3812 95.6755 58.4143 97.404 58.2819 98H26.6079M70.3378 51.7182C70.3378 50.6599 68.3068 40.5873 67.7566 39.9141C66.1512 28.8458 75.983 34.9127 75.6674 27.8665C77.062 26.2811 72.2125 19.2591 69.8064 16.6412C70.7017 14.4328 69.1172 5.96022 68.213 2L59.6974 10.6856C59.6565 10.6851 59.6156 10.6848 59.5745 10.6848C58.1471 10.6848 56.7458 10.8788 55.4053 11.2428C55.0688 7.60789 53.9809 0.815982 52.3217 2.72756C50.6626 4.63914 46.8175 15.1673 45.1023 20.1924C44.5047 21.7113 44.1749 23.3565 44.1749 25.085C44.1749 29.3235 43.2544 34.6584 44.8892 38.7904H44.7719C28.093 38.7904 14.5721 51.6077 14.5721 67.4187C14.5721 75.5431 20.8739 85.4319 26.6079 90.6426V98M26.6079 98C17.9405 97.8027 5.97197 97.0196 2.73264 77.9336C0.142131 62.6704 4.2825 56.1342 17.3742 43.0425C23.3869 37.0298 28.7779 28.1496 20.7261 20.1924" stroke="#21C5D9" stroke-width="4" stroke-linecap="round" stroke-linejoin="round"/>
</svg>
