<svg width="600" height="600" viewBox="0 0 600 600" fill="none" xmlns="http://www.w3.org/2000/svg">
<path d="M406.137 451.181L404.34 560.794C411.956 567.637 423.979 567.636 422.543 587M406.137 451.181C406.137 436.86 406.137 436.255 406.137 432.727M406.137 451.181V432.727M422.543 587C413.207 587 397.407 587 397.407 587M422.543 587H397.407M397.407 587C390.687 578.942 376.046 558.059 371.745 556.205L351.524 550.612M351.524 550.612C365.936 547.726 376.783 535.167 376.783 520.112C376.783 502.923 362.644 488.988 345.202 488.988H313.213M351.524 550.612C349.482 551.021 347.367 551.236 345.202 551.236H340.497V566.139C345.873 565.145 357.633 564.947 361.665 572.099C365.697 579.252 365.809 585.013 365.361 587H258.231M406.137 432.727C406.137 429.2 399.268 395.624 397.407 393.38C391.977 356.486 425.231 376.709 424.163 353.222C428.88 347.937 412.478 324.53 404.34 315.804C407.368 308.443 402.009 280.201 398.951 267L370.149 295.952C370.01 295.95 369.872 295.949 369.733 295.949C364.905 295.949 360.165 296.596 355.631 297.809C354.493 285.693 350.814 263.053 345.202 269.425C339.59 275.797 326.585 310.891 320.784 327.641C318.763 332.704 317.647 338.188 317.647 343.95C317.647 358.078 314.534 375.861 320.063 389.635H319.666C263.254 389.635 217.522 432.359 217.522 485.062C217.522 512.144 238.837 545.106 258.231 562.475V587M258.231 587C228.915 586.342 188.434 583.732 177.478 520.112C168.716 469.235 182.72 447.447 227 403.808C247.336 383.766 265.57 354.165 238.337 327.641" stroke="#21C5D9" stroke-width="4" stroke-linecap="round" stroke-linejoin="round"/>
</svg>
