<svg width="600" height="600" viewBox="0 0 600 600" fill="none" xmlns="http://www.w3.org/2000/svg">
<path d="M406.137 311.181L404.34 420.794C411.956 427.637 423.979 427.636 422.543 447M406.137 311.181C406.137 296.86 406.137 296.255 406.137 292.727M406.137 311.181V292.727M422.543 447C413.207 447 397.407 447 397.407 447M422.543 447H397.407M397.407 447C390.687 438.942 376.046 418.059 371.745 416.205L351.524 410.612M351.524 410.612C365.936 407.726 376.783 395.167 376.783 380.112C376.783 362.923 362.644 348.988 345.202 348.988H313.213M351.524 410.612C349.482 411.021 347.367 411.236 345.202 411.236H340.497V426.139C345.873 425.145 357.633 424.947 361.665 432.099C365.697 439.252 365.809 445.013 365.361 447H258.231M406.137 292.727C406.137 289.2 399.268 255.624 397.407 253.38C391.977 216.486 425.231 236.709 424.163 213.222C428.88 207.937 412.478 184.53 404.34 175.804C407.368 168.443 402.009 140.201 398.951 127L370.149 155.952C370.01 155.95 369.872 155.949 369.733 155.949C364.905 155.949 360.165 156.596 355.631 157.809C354.493 145.693 350.814 123.053 345.202 129.425C339.59 135.797 326.585 170.891 320.784 187.641C318.763 192.704 317.647 198.188 317.647 203.95C317.647 218.078 314.534 235.861 320.063 249.635H319.666C263.254 249.635 217.522 292.359 217.522 345.062C217.522 372.144 238.837 405.106 258.231 422.475V447M258.231 447C228.915 446.342 188.434 443.732 177.478 380.112C168.716 329.235 182.72 307.447 227 263.808C247.336 243.766 265.57 214.165 238.337 187.641" stroke="#21C5D9" stroke-width="4" stroke-linecap="round" stroke-linejoin="round"/>
</svg>
