<svg width="736" height="736" viewBox="0 0 736 736" fill="none" xmlns="http://www.w3.org/2000/svg">
<rect width="178.667" height="178.667" rx="5" fill="#D9D9D9"/>
<path d="M141.147 28.5879L156.104 54.4945H126.189L141.147 28.5879Z" fill="black"/>
<path d="M42.2843 28.5879L57.2415 54.4945H27.3271L42.2843 28.5879Z" fill="black"/>
<ellipse cx="88.7377" cy="138.169" rx="16.08" ry="17.8666" fill="black"/>
<ellipse cx="89.3333" cy="368" rx="89.3333" ry="88.7378" fill="#D9D9D9"/>
<ellipse cx="88.7377" cy="368" rx="16.08" ry="17.7476" fill="black"/>
<rect y="557.93" width="178.667" height="177.476" rx="5" fill="#D9D9D9"/>
<ellipse cx="88.7377" cy="697.544" rx="16.08" ry="17.7476" fill="black"/>
<path d="M640.03 662.03V661.621C640.076 657.28 640.53 653.825 641.394 651.257C642.257 648.689 643.485 646.609 645.076 645.018C646.667 643.427 648.576 641.961 650.803 640.621C652.144 639.802 653.348 638.836 654.417 637.723C655.485 636.586 656.326 635.28 656.939 633.802C657.576 632.325 657.894 630.689 657.894 628.893C657.894 626.666 657.371 624.734 656.326 623.098C655.28 621.461 653.882 620.2 652.132 619.314C650.382 618.427 648.439 617.984 646.303 617.984C644.439 617.984 642.644 618.371 640.917 619.143C639.189 619.916 637.746 621.132 636.587 622.791C635.428 624.45 634.757 626.621 634.576 629.302H625.985C626.167 625.439 627.167 622.132 628.985 619.382C630.826 616.632 633.246 614.53 636.246 613.075C639.269 611.621 642.621 610.893 646.303 610.893C650.303 610.893 653.78 611.689 656.735 613.28C659.712 614.871 662.007 617.052 663.621 619.825C665.257 622.598 666.076 625.757 666.076 629.302C666.076 631.802 665.689 634.064 664.917 636.086C664.167 638.109 663.076 639.916 661.644 641.507C660.235 643.098 658.53 644.507 656.53 645.734C654.53 646.984 652.928 648.302 651.723 649.689C650.519 651.052 649.644 652.677 649.098 654.564C648.553 656.45 648.257 658.802 648.212 661.621V662.03H640.03ZM644.394 682.211C642.712 682.211 641.269 681.609 640.064 680.405C638.86 679.2 638.257 677.757 638.257 676.075C638.257 674.393 638.86 672.95 640.064 671.746C641.269 670.541 642.712 669.939 644.394 669.939C646.076 669.939 647.519 670.541 648.723 671.746C649.928 672.95 650.53 674.393 650.53 676.075C650.53 677.189 650.246 678.211 649.678 679.143C649.132 680.075 648.394 680.825 647.462 681.393C646.553 681.939 645.53 682.211 644.394 682.211Z" fill="#3A506B"/>
<path d="M630.44 49.9389C635.548 34.2203 657.785 34.2203 662.893 49.9389C665.177 56.9685 671.727 61.7279 679.119 61.7279C695.646 61.7279 702.518 82.8772 689.147 92.5919C683.167 96.9364 680.665 104.637 682.949 111.667C688.057 127.386 670.066 140.456 656.695 130.742C650.715 126.397 642.618 126.397 636.638 130.742C623.267 140.456 605.276 127.386 610.384 111.667C612.668 104.637 610.166 96.9364 604.186 92.5919C590.815 82.8772 597.687 61.7279 614.214 61.7279C621.606 61.7279 628.156 56.9685 630.44 49.9389Z" fill="#D9D9D9"/>
<ellipse cx="646.666" cy="88.9365" rx="10.72" ry="11.9111" fill="black"/>
<rect x="278.667" y="278.834" width="178.667" height="178.333" rx="5" fill="#D9D9D9"/>
<path d="M335.244 351.355L350.201 377.214H320.287L335.244 351.355Z" fill="black"/>
<path d="M400.755 351.355L415.713 377.214H385.798L400.755 351.355Z" fill="black"/>
<circle cx="366.917" cy="88.25" r="88.25" fill="#D9D9D9"/>
<path d="M400.451 72.9531L415.227 98.5456H385.675L400.451 72.9531Z" fill="black"/>
<path d="M334.558 72.9531L349.334 98.5456H319.782L334.558 72.9531Z" fill="black"/>
<path d="M624.899 318.555C631.331 298.761 659.336 298.761 665.768 318.555V318.555C668.644 327.408 676.893 333.402 686.202 333.402V333.402C707.015 333.402 715.669 360.035 698.83 372.269V372.269C691.3 377.741 688.149 387.438 691.025 396.291V396.291C697.457 416.086 674.801 432.547 657.962 420.313V420.313C650.432 414.841 640.235 414.841 632.705 420.313V420.313C615.866 432.547 593.21 416.086 599.642 396.291V396.291C602.518 387.438 599.367 377.741 591.837 372.269V372.269C574.998 360.035 583.652 333.402 604.465 333.402V333.402C613.774 333.402 622.023 327.408 624.899 318.555V318.555Z" fill="#D9D9D9"/>
<ellipse cx="644.833" cy="323.666" rx="13.5" ry="15" fill="black"/>
<path d="M614.395 338.666L629.171 364.259H599.619L614.395 338.666Z" fill="black"/>
<path d="M675.395 338.666L690.171 364.259H660.619L675.395 338.666Z" fill="black"/>
<path d="M346.232 597.223C352.664 577.428 380.669 577.428 387.101 597.223V597.223C389.977 606.076 398.226 612.07 407.535 612.07V612.07C428.348 612.07 437.002 638.703 420.163 650.937V650.937C412.633 656.409 409.482 666.106 412.358 674.959V674.959C418.79 694.754 396.134 711.215 379.295 698.981V698.981C371.765 693.509 361.568 693.509 354.038 698.981V698.981C337.199 711.215 314.543 694.754 320.975 674.959V674.959C323.851 666.106 320.7 656.409 313.17 650.937V650.937C296.331 638.703 304.985 612.07 325.798 612.07V612.07C335.107 612.07 343.356 606.076 346.232 597.223V597.223Z" fill="#D9D9D9"/>
<path d="M335.728 617.334L350.504 642.926H320.952L335.728 617.334Z" fill="black"/>
<path d="M396.728 617.334L411.504 642.926H381.952L396.728 617.334Z" fill="black"/>
</svg>
