<svg width="736" height="736" viewBox="0 0 736 736" fill="none" xmlns="http://www.w3.org/2000/svg">
<rect width="178.667" height="178.667" rx="5" fill="#D9D9D9"/>
<path d="M141.147 28.5879L156.104 54.4945H126.189L141.147 28.5879Z" fill="black"/>
<path d="M42.2843 28.5879L57.2415 54.4945H27.3271L42.2843 28.5879Z" fill="black"/>
<ellipse cx="88.7377" cy="138.169" rx="16.08" ry="17.8666" fill="black"/>
<ellipse cx="89.3333" cy="368" rx="89.3333" ry="88.7378" fill="#D9D9D9"/>
<ellipse cx="88.7377" cy="368" rx="16.08" ry="17.7476" fill="black"/>
<rect y="557.93" width="178.667" height="177.476" rx="5" fill="#D9D9D9"/>
<ellipse cx="88.7377" cy="697.544" rx="16.08" ry="17.7476" fill="black"/>
<circle cx="368" cy="89.3335" r="89.3335" fill="#D9D9D9"/>
<ellipse cx="335.245" cy="82.187" rx="16.08" ry="17.8667" fill="black"/>
<ellipse cx="400.756" cy="82.187" rx="16.08" ry="17.8667" fill="black"/>
<path d="M351.774 607.343C356.887 591.638 379.113 591.638 384.225 607.343V607.343C386.51 614.361 393.062 619.113 400.442 619.113V619.113C416.941 619.113 423.837 640.233 410.48 649.919V649.919C404.502 654.254 402.001 661.95 404.287 668.972V668.972C409.394 684.661 391.388 697.687 378.031 688V688C372.056 683.667 363.944 683.667 357.968 688V688C344.611 697.687 326.605 684.661 331.713 668.972V668.972C333.998 661.95 331.497 654.254 325.519 649.919V649.919C312.162 640.233 319.058 619.113 335.558 619.113V619.113C342.938 619.113 349.49 614.361 351.774 607.343V607.343Z" fill="#D9D9D9"/>
<ellipse cx="334.649" cy="635.965" rx="10.72" ry="11.8889" fill="black"/>
<ellipse cx="402.939" cy="635.965" rx="10.72" ry="11.8889" fill="black"/>
<ellipse cx="402.939" cy="635.965" rx="10.72" ry="11.8889" fill="black"/>
<path d="M640.03 662.03V661.621C640.076 657.28 640.53 653.825 641.394 651.257C642.257 648.689 643.485 646.609 645.076 645.018C646.667 643.427 648.576 641.961 650.803 640.621C652.144 639.802 653.348 638.836 654.417 637.723C655.485 636.586 656.326 635.28 656.939 633.802C657.576 632.325 657.894 630.689 657.894 628.893C657.894 626.666 657.371 624.734 656.326 623.098C655.28 621.461 653.882 620.2 652.132 619.314C650.382 618.427 648.439 617.984 646.303 617.984C644.439 617.984 642.644 618.371 640.917 619.143C639.189 619.916 637.746 621.132 636.587 622.791C635.428 624.45 634.757 626.621 634.576 629.302H625.985C626.167 625.439 627.167 622.132 628.985 619.382C630.826 616.632 633.246 614.53 636.246 613.075C639.269 611.621 642.621 610.893 646.303 610.893C650.303 610.893 653.78 611.689 656.735 613.28C659.712 614.871 662.007 617.052 663.621 619.825C665.257 622.598 666.076 625.757 666.076 629.302C666.076 631.802 665.689 634.064 664.917 636.086C664.167 638.109 663.076 639.916 661.644 641.507C660.235 643.098 658.53 644.507 656.53 645.734C654.53 646.984 652.928 648.302 651.723 649.689C650.519 651.052 649.644 652.677 649.098 654.564C648.553 656.45 648.257 658.802 648.212 661.621V662.03H640.03ZM644.394 682.211C642.712 682.211 641.269 681.609 640.064 680.405C638.86 679.2 638.257 677.757 638.257 676.075C638.257 674.393 638.86 672.95 640.064 671.746C641.269 670.541 642.712 669.939 644.394 669.939C646.076 669.939 647.519 670.541 648.723 671.746C649.928 672.95 650.53 674.393 650.53 676.075C650.53 677.189 650.246 678.211 649.678 679.143C649.132 680.075 648.394 680.825 647.462 681.393C646.553 681.939 645.53 682.211 644.394 682.211Z" fill="#3A506B"/>
<path d="M630.431 328.46C635.526 312.71 657.808 312.71 662.902 328.46V328.46C665.18 335.501 671.743 340.272 679.144 340.272V340.272C695.697 340.272 702.526 361.509 689.155 371.267V371.267C683.18 375.627 680.67 383.386 682.947 390.423V390.423C688.033 406.148 670.07 419.353 656.72 409.61V409.61C650.731 405.239 642.603 405.239 636.614 409.61V409.61C623.263 419.353 605.3 406.148 610.387 390.423V390.423C612.664 383.386 610.153 375.627 604.179 371.267V371.267C590.808 361.509 597.637 340.272 614.19 340.272V340.272C621.59 340.272 628.153 335.501 630.431 328.46V328.46Z" fill="#D9D9D9"/>
<ellipse cx="646.667" cy="332.507" rx="10.72" ry="11.964" fill="black"/>
<ellipse cx="680.018" cy="356.435" rx="10.72" ry="11.964" fill="black"/>
<ellipse cx="614.11" cy="357.232" rx="10.72" ry="11.964" fill="black"/>
<path d="M630.44 49.9389C635.548 34.2203 657.785 34.2203 662.893 49.9389V49.9389C665.177 56.9685 671.727 61.7279 679.119 61.7279V61.7279C695.646 61.7279 702.518 82.8772 689.147 92.5919V92.5919C683.167 96.9364 680.665 104.637 682.949 111.667V111.667C688.057 127.386 670.066 140.456 656.695 130.742V130.742C650.715 126.397 642.618 126.397 636.638 130.742V130.742C623.267 140.457 605.276 127.386 610.384 111.667V111.667C612.668 104.637 610.166 96.9364 604.186 92.5919V92.5919C590.815 82.8772 597.687 61.7279 614.214 61.7279V61.7279C621.606 61.7279 628.156 56.9685 630.44 49.9389V49.9389Z" fill="#D9D9D9"/>
<ellipse cx="646.666" cy="88.9365" rx="10.72" ry="11.9111" fill="black"/>
<rect x="278.667" y="278.834" width="178.667" height="178.333" rx="5" fill="#D9D9D9"/>
<path d="M335.244 351.355L350.201 377.214H320.287L335.244 351.355Z" fill="black"/>
<path d="M400.755 351.355L415.713 377.214H385.798L400.755 351.355Z" fill="black"/>
</svg>
