<svg width="177" height="178" viewBox="0 0 177 178" fill="none" xmlns="http://www.w3.org/2000/svg">
<path d="M67.566 39.8894C73.9977 20.0945 102.002 20.0945 108.434 39.8894V39.8894C111.31 48.742 119.56 54.7356 128.868 54.7356V54.7356C149.682 54.7356 158.335 81.3695 141.497 93.6034V93.6034C133.966 99.0746 130.815 108.772 133.692 117.625V117.625C140.124 137.42 117.467 153.881 100.629 141.647V141.647C93.0985 136.175 82.9015 136.175 75.3711 141.647V141.647C58.5325 153.881 35.8764 137.42 42.3082 117.625V117.625C45.1845 108.772 42.0335 99.0746 34.5031 93.6034V93.6034C17.6645 81.3695 26.3184 54.7356 47.132 54.7356V54.7356C56.4401 54.7356 64.6896 48.742 67.566 39.8894V39.8894Z" fill="#D9D9D9"/>
<ellipse cx="45" cy="74" rx="13.5" ry="15" fill="black"/>
<ellipse cx="131" cy="74" rx="13.5" ry="15" fill="black"/>
</svg>
