<svg width="512" height="533" viewBox="0 0 512 533" fill="none" xmlns="http://www.w3.org/2000/svg">
<path d="M205.35 176.5L154.578 88.624L205.351 0.5L306.649 0.5L357.423 88.624L306.65 176.5L205.35 176.5Z" fill="#BB7E14" stroke="white"/>
<path d="M51.3496 265.5L0.578125 177.624L51.3506 89.5L152.649 89.5L203.423 177.624L152.65 265.5H51.3496Z" fill="#BB7E14" stroke="white"/>
<path d="M51.3496 443.5L0.578125 355.624L51.3506 267.5H152.649L203.423 355.624L152.65 443.5H51.3496Z" fill="#BB7E14" stroke="white"/>
<path d="M51.3496 265.5L0.578125 177.624L51.3506 89.5L152.649 89.5L203.423 177.624L152.65 265.5H51.3496Z" fill="#BB7E14" stroke="white"/>
<path d="M51.3496 443.5L0.578125 355.624L51.3506 267.5H152.649L203.423 355.624L152.65 443.5H51.3496Z" fill="#BB7E14" stroke="white"/>
<path d="M359.35 265.5L308.578 177.624L359.351 89.5L460.649 89.5L511.423 177.624L460.65 265.5H359.35Z" fill="#5D5953" stroke="white"/>
<path d="M359.35 443.5L308.578 355.624L359.351 267.5H460.649L511.423 355.624L460.65 443.5H359.35Z" fill="#5D5953" stroke="white"/>
<path d="M205.35 532.5L154.578 444.624L205.351 356.5H306.649L357.423 444.624L306.65 532.5H205.35Z" fill="#BB7E14" stroke="white"/>
<path d="M205.35 354.5L154.578 266.624L205.351 178.5L306.649 178.5L357.423 266.624L306.65 354.5H205.35Z" fill="#BB7E14" stroke="white"/>
<rect x="311" y="218" width="93" height="96" fill="#A8C7ED"/>
<path d="M355.345 271.455V271.318C355.36 269.871 355.512 268.72 355.8 267.864C356.088 267.008 356.497 266.314 357.027 265.784C357.557 265.254 358.194 264.765 358.936 264.318C359.383 264.045 359.785 263.723 360.141 263.352C360.497 262.973 360.777 262.538 360.982 262.045C361.194 261.553 361.3 261.008 361.3 260.409C361.3 259.667 361.125 259.023 360.777 258.477C360.429 257.932 359.963 257.511 359.379 257.216C358.796 256.92 358.148 256.773 357.436 256.773C356.815 256.773 356.216 256.902 355.641 257.159C355.065 257.417 354.584 257.822 354.197 258.375C353.811 258.928 353.588 259.652 353.527 260.545H350.663C350.724 259.258 351.057 258.155 351.663 257.239C352.277 256.322 353.084 255.621 354.084 255.136C355.091 254.652 356.209 254.409 357.436 254.409C358.769 254.409 359.929 254.674 360.913 255.205C361.906 255.735 362.671 256.462 363.209 257.386C363.754 258.311 364.027 259.364 364.027 260.545C364.027 261.379 363.898 262.133 363.641 262.807C363.391 263.481 363.027 264.083 362.55 264.614C362.08 265.144 361.512 265.614 360.845 266.023C360.179 266.439 359.644 266.879 359.243 267.341C358.841 267.795 358.55 268.337 358.368 268.966C358.186 269.595 358.088 270.379 358.072 271.318V271.455H355.345ZM356.8 278.182C356.239 278.182 355.758 277.981 355.357 277.58C354.955 277.178 354.754 276.697 354.754 276.136C354.754 275.576 354.955 275.095 355.357 274.693C355.758 274.292 356.239 274.091 356.8 274.091C357.36 274.091 357.841 274.292 358.243 274.693C358.644 275.095 358.845 275.576 358.845 276.136C358.845 276.508 358.75 276.848 358.561 277.159C358.379 277.47 358.133 277.72 357.822 277.909C357.519 278.091 357.179 278.182 356.8 278.182Z" fill="white"/>
</svg>
