<svg width="142" height="123" viewBox="0 0 142 123" fill="none" xmlns="http://www.w3.org/2000/svg">
<path d="M0.500061 61.3L70.7001 61.3L105.8 122L35.6 122L0.500061 61.3Z" fill="#4F5D75" stroke="#B8B8B8" stroke-miterlimit="10" stroke-linejoin="round"/>
<path d="M0.500061 61.2998L70.7001 61.2998L105.8 0.499802L35.6 0.499802L0.500061 61.2998Z" fill="#4F5D75" stroke="#B8B8B8" stroke-miterlimit="10" stroke-linejoin="round"/>
<path d="M91.5001 97.2002L50.0001 97.2002L29.2001 61.3002L50.0001 25.3002L91.5001 25.3002L112.3 61.3002L91.5001 97.2002Z" fill="#7ED6E1"/>
<path d="M105.8 122L35.6002 122L0.500183 61.3L35.6002 0.5L105.8 0.5L140.9 61.3L105.8 122Z" stroke="#B8B8B8" stroke-miterlimit="10" stroke-linejoin="round"/>
<path d="M35.6004 122L70.7004 61.3L35.6004 0.5L0.500427 61.3L35.6004 122Z" fill="#2D3142" stroke="#B8B8B8" stroke-miterlimit="10" stroke-linejoin="round"/>
<path d="M70.7002 61.2998L140.9 61.2998L105.8 0.499802L35.6002 0.499802L70.7002 61.2998Z" stroke="#B8B8B8" stroke-miterlimit="10" stroke-linecap="round" stroke-linejoin="round"/>
</svg>
