<svg version="1.1" xmlns="http://www.w3.org/2000/svg" style="display: block;" viewBox="0 0 2048 2048" width="2000" height="2000" preserveAspectRatio="none">
<path transform="translate(0,0)" fill="rgb(0,0,0)" d="M 518.269 950.489 C 521.375 943.134 533.037 934.298 539.854 930.07 C 562.889 915.78 596.717 912.799 621.527 923.264 C 643.7 932.666 661.197 950.537 670.128 972.903 C 678.103 993.164 678.802 1020.01 668.841 1039.74 L 669.426 1040.57 C 683.47 1060.32 729.296 1114.22 730.424 1137.28 C 756.655 1074.61 776.26 1048.34 821.788 998.16 C 833.471 989.249 845.449 984.235 860.641 987.257 C 905.841 996.251 950.921 1030.66 989.194 1055.23 C 996.823 1060.13 1017.7 1070.94 1022.43 1074.93 C 1022.47 1076.46 1022.48 1080.07 1022.69 1081.41 C 1018.09 1094.17 1021.85 1126.16 1021.79 1140.67 C 1056.49 1150.16 1105.36 1157.16 1141.49 1162.91 L 1302.12 1188.54 C 1327.06 1192.49 1348.04 1189.28 1373.16 1198.55 C 1435.64 1221.6 1426.11 1303.77 1421.7 1357.01 C 1421.33 1361.43 1419.3 1377.68 1420.29 1380.9 C 1422.43 1381.44 1422.53 1381.44 1424.74 1381.48 C 1437.79 1382.32 1473.77 1383.65 1483.56 1390.64 C 1484.13 1386.89 1484.08 1383.99 1486.44 1381.14 C 1490.18 1382.9 1488.69 1389.52 1488.35 1393.21 C 1501.34 1386.7 1564.97 1415.22 1577.68 1424.14 C 1579.13 1427.67 1577.98 1426.17 1581.88 1428.27 C 1590.84 1428.88 1607.95 1443.53 1615.13 1449.18 C 1694.96 1511.99 1737.55 1613.9 1739.78 1714.04 C 1739.82 1715.83 1738.57 1718.7 1737.87 1720.24 C 1774.54 1720.59 1811.21 1720.66 1847.89 1720.45 C 1855.83 1720.44 1895.58 1718.98 1899.43 1722.16 C 1900.04 1725.7 1900.36 1724.16 1899.02 1727.02 C 1894.19 1729.63 1786.71 1728.1 1772.2 1728.09 L 1485.5 1728.05 L 1395.51 1728.11 C 1381.43 1728.12 1359.57 1728.77 1346.18 1727.64 L 1345.69 1728.46 C 1346.8 1731.33 1350.86 1736.17 1353.08 1738.55 C 1378.93 1766.36 1417.77 1762.77 1450.36 1779.77 C 1477.87 1794.11 1492.94 1807.46 1511.19 1832.12 C 1519.45 1834.08 1526.03 1838.57 1525.83 1848.54 C 1525.71 1854.6 1517.16 1857.65 1511.77 1857.48 C 1495.09 1856.94 1478.26 1855.89 1461.53 1854.98 L 1369.1 1850.1 L 1302.1 1846.52 C 1291.09 1845.96 1271.7 1845.52 1261.43 1843.66 C 1249.9 1833.12 1250.77 1826.8 1263.99 1819.13 C 1266.13 1814.03 1263.14 1738.76 1262.88 1728.04 L 1078.4 1728.02 C 1079.94 1734.66 1080.99 1741.1 1080.77 1747.91 C 1080.33 1764.31 1073.23 1779.81 1061.1 1790.84 C 1028.07 1821 988.961 1797.43 951.826 1789.48 C 944.602 1787.94 936.799 1785.34 929.611 1783.37 L 782.045 1742.82 C 766.852 1738.65 735.546 1728.49 721.393 1728.1 C 694.378 1728.98 665.289 1727.43 638.121 1727.99 C 628.403 1728.2 610.702 1727.3 601.703 1728.86 L 599.481 1729.8 L 596.117 1728.21 C 592.864 1731.02 584.705 1761.66 581.459 1769.68 C 578.321 1777.46 574.377 1784.89 569.691 1791.86 C 561.624 1803.84 551.691 1814.45 540.27 1823.3 C 532.775 1829.03 523.185 1834.49 515.994 1840.47 C 512.825 1843.11 512.585 1851.02 505.503 1850.97 C 496.055 1850.9 490.001 1847.12 489.94 1837.02 C 490.417 1825.22 491.41 1813.44 492.129 1801.66 C 493.515 1777.11 495.087 1752.57 496.843 1728.04 L 482.956 1728.11 L 479.146 1728.24 C 456.525 1727.27 428.208 1727.93 405.365 1727.95 L 271.282 1728.09 L 223.398 1728.22 C 215.354 1728.27 191.752 1730.01 187.271 1724.37 C 192.541 1718.32 216.288 1720.32 224.731 1720.35 L 288.626 1720.57 C 299.583 1720.6 314.23 1721.37 324.827 1720.01 C 315.813 1712.67 299.676 1689.45 291.986 1679.44 C 243.243 1616 204.431 1554.63 169.426 1482.81 C 151.719 1480.31 138.805 1477.2 122.212 1469.41 C 89.9222 1454.27 59.2594 1414.46 77.5832 1378.02 C 86.6832 1359.93 107.145 1350.72 125.863 1344.94 C 123.873 1336.34 121.934 1317.73 121.188 1308.44 C 114.877 1229.85 131.26 1149.01 171.66 1080.98 C 184.328 1059.65 229.185 1001.8 252.791 996.159 C 255.149 994.963 255.045 995.122 256.348 992.837 C 275.317 971.028 351.954 947.813 382.312 943.832 C 401.316 941.34 417.801 941.252 435.712 939.403 L 437.629 937.166 L 439.602 937.396 L 441.057 939.654 C 464.432 941.376 495.688 943.648 518.269 950.489 z M 949.122 1385.71 C 959.703 1386.59 977.119 1394.69 988.478 1397.44 C 1051.58 1412.68 1116.29 1409.16 1180.23 1402.35 C 1193.65 1400.93 1211.89 1397.49 1224.76 1397.83 L 1226.73 1397.86 C 1227.12 1397.88 1227.52 1397.9 1227.91 1397.91 L 1230.74 1397.15 C 1232.85 1395.87 1232.37 1396.2 1234.15 1394.51 C 1235.03 1389.35 1239.8 1383.72 1245.14 1383.1 L 1245.99 1384.39 C 1244.99 1388.46 1242.04 1390.5 1238.89 1393.52 C 1249.11 1392.96 1268.53 1389.84 1276.81 1390.39 C 1277.37 1381.09 1279.49 1366.83 1280.61 1357.22 C 1277.06 1360.16 1274.03 1363.54 1269.66 1363.29 L 1269.81 1361.25 C 1272.66 1356.44 1276.47 1354.57 1281.2 1351.42 C 1282.85 1337.2 1284.58 1322.98 1286.38 1308.77 C 1259.77 1310.58 1230.91 1311.36 1204.15 1312.53 L 1026.17 1320.31 C 992.963 1321.74 957.593 1322.72 924.58 1324.92 C 927.685 1333.21 945.282 1382.85 949.122 1385.71 z M 1378.88 1783.93 C 1381.37 1791.72 1401.77 1795.15 1409.29 1795.98 L 1408.66 1793.11 C 1405.48 1791.72 1381.33 1784.05 1378.88 1783.93 z M 1321.96 1732.82 C 1321.37 1737.21 1321.82 1737.28 1325.18 1741.71 C 1329.87 1747.87 1345.17 1764.97 1351.97 1767.31 C 1351.92 1766.25 1351.87 1765.19 1351.82 1764.12 C 1344.84 1756.66 1337.55 1749.42 1330.93 1741.63 C 1328.41 1738.66 1326.43 1736.37 1323.83 1733.63 C 1323.21 1733.36 1322.59 1733.09 1321.96 1732.82 z M 766.109 1139.1 L 767.288 1141.71 C 769.477 1139.04 781.363 1114.04 786.135 1106.6 C 796.866 1089.75 809.839 1074.44 824.696 1061.09 C 828.295 1057.87 842.52 1048.19 842.448 1044.27 C 837.537 1044.08 832.962 1048.84 828.962 1052.14 C 806.516 1070.73 787.909 1093.53 774.181 1119.24 C 771.019 1125.07 766.716 1132.6 766.109 1139.1 z M 628.267 1665.23 C 617.92 1669 585.711 1688.25 586.378 1699.04 C 589.229 1699.08 591.418 1696.43 593.327 1694.34 C 602.369 1685.25 611.589 1676.69 623.551 1671.28 C 626.392 1670 634.375 1668.44 638.01 1667.47 C 638.021 1666.84 638.032 1666.22 638.044 1665.59 C 635.016 1664.03 631.831 1664.87 628.267 1665.23 z M 566.566 1744.59 C 557.501 1773.19 545.777 1793.13 522.16 1812.7 L 521.641 1814.82 L 523.619 1816.53 C 538.57 1804.21 551.371 1789.11 560.441 1771.94 C 563.3 1766.53 571.188 1751.39 568.244 1745.7 L 566.566 1744.59 z M 706.639 1642 C 707.266 1643.79 707.3 1645.2 708.641 1645.57 C 731.933 1652.03 761.903 1659.62 784.889 1665.32 L 908.076 1695.78 C 921.493 1699.11 963.099 1711.51 974.662 1711.16 C 974.187 1710.36 973.712 1709.56 973.237 1708.76 C 961.349 1704.97 937.871 1699.22 927.132 1696.48 L 774.047 1658.39 C 764.922 1656.09 713.175 1642.27 706.639 1642 z"/>
<path transform="translate(0,0)" fill="rgb(0,0,0)" d="M 1261.16 1366.67 C 1263.5 1367.88 1262.72 1366.96 1263.57 1369.39 C 1261.56 1373.26 1257.12 1376.42 1253.67 1379.36 L 1251.51 1378.19 L 1251.16 1376.11 C 1253.14 1372.7 1257.95 1369.29 1261.16 1366.67 z"/>
<path transform="translate(0,0)" fill="rgb(0,0,0)" d="M 1234.15 1394.51 C 1235.03 1389.35 1239.8 1383.72 1245.14 1383.1 L 1245.99 1384.39 C 1244.99 1388.46 1242.04 1390.5 1238.89 1393.52 L 1234.15 1394.51 z"/>
<path transform="translate(0,0)" fill="rgb(208,206,205)" d="M 518.269 950.489 C 521.375 943.134 533.037 934.298 539.854 930.07 C 562.889 915.78 596.717 912.799 621.527 923.264 C 643.7 932.666 661.197 950.537 670.128 972.903 C 678.103 993.164 678.802 1020.01 668.841 1039.74 L 669.426 1040.57 C 683.47 1060.32 729.296 1114.22 730.424 1137.28 C 727.607 1147.39 723.816 1157.2 721.048 1167.27 C 714.563 1191.54 711.194 1216.55 711.023 1241.67 C 706.72 1240.22 703.431 1238.56 699.067 1239.25 L 698.184 1240.6 C 701.354 1244.53 706.076 1244.76 711.06 1245.73 C 711.394 1278.85 717.727 1311.64 729.753 1342.5 C 742.279 1374.88 766.476 1412.03 784.848 1442.56 C 814.078 1492.18 844.625 1541.01 876.456 1589 C 886.964 1604.63 918.217 1642.86 923.318 1657.57 L 683.913 1591.87 C 681.529 1600.7 679.184 1609.97 676.622 1618.72 L 600.443 1613.99 C 593.955 1570.3 582.208 1527.56 565.457 1486.69 C 565.778 1486.49 566.101 1486.29 566.418 1486.09 C 581.377 1476.4 592.627 1463.88 596.565 1446.02 C 604.432 1410.32 583.447 1371.67 564.985 1342.6 C 516.214 1265.79 360.48 1115.93 272.165 1096.65 C 244.493 1090.61 211.363 1090.22 186.77 1106.36 C 171.052 1116.68 160.132 1130.43 156.514 1149.13 C 152.66 1169.04 160.385 1188.13 171.126 1204.54 C 189.77 1195.95 211.821 1200.33 225.768 1215.39 C 239.714 1230.46 242.391 1252.78 232.401 1270.71 C 241.559 1278.53 265.535 1297.07 276.014 1303.17 C 277.221 1307.32 277.83 1306.87 282.511 1307.1 C 298.607 1318.94 316.316 1329.71 332.814 1341.18 C 353.883 1355.89 374.184 1371.67 393.637 1388.45 C 408.183 1400.99 422.298 1414.01 435.957 1427.51 C 469.196 1460.35 509.675 1508.03 561.537 1488.9 C 579.589 1535.26 587.644 1565.15 596.114 1613.85 L 531.097 1609.85 C 524.431 1592.03 506.72 1597.68 505.533 1605.53 C 499.888 1642.86 500.929 1682.91 497.23 1720.75 L 496.843 1728.04 L 482.956 1728.11 L 479.146 1728.24 C 456.525 1727.27 428.208 1727.93 405.365 1727.95 L 271.282 1728.09 L 223.398 1728.22 C 215.354 1728.27 191.752 1730.01 187.271 1724.37 C 192.541 1718.32 216.288 1720.32 224.731 1720.35 L 288.626 1720.57 C 299.583 1720.6 314.23 1721.37 324.827 1720.01 C 315.813 1712.67 299.676 1689.45 291.986 1679.44 C 243.243 1616 204.431 1554.63 169.426 1482.81 C 151.719 1480.31 138.805 1477.2 122.212 1469.41 C 89.9222 1454.27 59.2594 1414.46 77.5832 1378.02 C 86.6832 1359.93 107.145 1350.72 125.863 1344.94 C 123.873 1336.34 121.934 1317.73 121.188 1308.44 C 114.877 1229.85 131.26 1149.01 171.66 1080.98 C 184.328 1059.65 229.185 1001.8 252.791 996.159 C 255.149 994.963 255.045 995.122 256.348 992.837 C 275.317 971.028 351.954 947.813 382.312 943.832 C 401.316 941.34 417.801 941.252 435.712 939.403 L 437.629 937.166 L 439.602 937.396 L 441.057 939.654 C 464.432 941.376 495.688 943.648 518.269 950.489 z"/>
<path transform="translate(0,0)" fill="rgb(208,206,205)" d="M 291.194 1453.4 C 292.488 1449.67 298.023 1446.78 301.493 1445.37 C 335.642 1431.45 364.434 1432.15 398.197 1445.58 C 416.98 1455.46 436.411 1468.85 449.981 1485.38 C 481.913 1524.27 540.128 1589.15 465.717 1620.63 C 475.518 1654.6 481.572 1685.11 483.022 1720.75 L 482.956 1728.11 L 479.146 1728.24 C 456.525 1727.27 428.208 1727.93 405.365 1727.95 L 271.282 1728.09 L 223.398 1728.22 C 215.354 1728.27 191.752 1730.01 187.271 1724.37 C 192.541 1718.32 216.288 1720.32 224.731 1720.35 L 288.626 1720.57 C 299.583 1720.6 314.23 1721.37 324.827 1720.01 C 315.813 1712.67 299.676 1689.45 291.986 1679.44 C 243.243 1616 204.431 1554.63 169.426 1482.81 C 208.157 1483.32 231.544 1478.32 267.534 1464.13 C 274.435 1461.41 285.505 1457.67 291.194 1453.4 z"/>
<path transform="translate(0,0)" fill="rgb(0,0,0)" d="M 291.194 1453.4 C 292.488 1449.67 298.023 1446.78 301.493 1445.37 C 335.642 1431.45 364.434 1432.15 398.197 1445.58 C 416.98 1455.46 436.411 1468.85 449.981 1485.38 C 481.913 1524.27 540.128 1589.15 465.717 1620.63 C 475.518 1654.6 481.572 1685.11 483.022 1720.75 L 482.956 1728.11 L 479.146 1728.24 L 478.782 1720.68 C 476.221 1684.08 471.996 1656.93 461.4 1622.03 C 413.625 1628.93 381.78 1593.97 360.973 1555.42 C 340.899 1518.23 326.966 1478.84 291.194 1453.4 z"/>
<path transform="translate(0,0)" fill="rgb(46,27,18)" d="M 324.827 1720.01 C 330.946 1721.94 464.676 1721.12 478.782 1720.68 L 479.146 1728.24 C 456.525 1727.27 428.208 1727.93 405.365 1727.95 L 271.282 1728.09 L 223.398 1728.22 C 215.354 1728.27 191.752 1730.01 187.271 1724.37 C 192.541 1718.32 216.288 1720.32 224.731 1720.35 L 288.626 1720.57 C 299.583 1720.6 314.23 1721.37 324.827 1720.01 z"/>
<path transform="translate(0,0)" fill="rgb(46,27,18)" d="M 229.136 1538.51 C 234.343 1536.4 240.281 1538.84 242.509 1543.99 C 244.738 1549.15 242.442 1555.14 237.338 1557.49 C 233.929 1559.06 229.938 1558.66 226.908 1556.44 C 223.879 1554.23 222.288 1550.55 222.751 1546.82 C 223.213 1543.1 225.657 1539.92 229.136 1538.51 z"/>
<path transform="translate(0,0)" fill="rgb(208,206,205)" d="M 231.722 1542.55 C 234.768 1541.85 237.814 1543.72 238.565 1546.76 C 239.315 1549.79 237.492 1552.87 234.47 1553.66 C 232.472 1554.19 230.345 1553.6 228.905 1552.12 C 227.465 1550.64 226.936 1548.5 227.519 1546.51 C 228.103 1544.53 229.709 1543.02 231.722 1542.55 z"/>
<path transform="translate(0,0)" fill="rgb(254,143,164)" d="M 125.863 1344.94 C 201.384 1329.02 260.72 1342.74 326.686 1383.78 C 344.261 1394.72 386.247 1428.56 398.197 1445.58 C 364.434 1432.15 335.642 1431.45 301.493 1445.37 C 298.023 1446.78 292.488 1449.67 291.194 1453.4 C 285.505 1457.67 274.435 1461.41 267.534 1464.13 C 231.544 1478.32 208.157 1483.32 169.426 1482.81 C 151.719 1480.31 138.805 1477.2 122.212 1469.41 C 89.9222 1454.27 59.2594 1414.46 77.5832 1378.02 C 86.6832 1359.93 107.145 1350.72 125.863 1344.94 z"/>
<path transform="translate(0,0)" fill="rgb(254,216,32)" d="M 518.269 950.489 C 521.375 943.134 533.037 934.298 539.854 930.07 C 562.889 915.78 596.717 912.799 621.527 923.264 C 643.7 932.666 661.197 950.537 670.128 972.903 C 678.103 993.164 678.802 1020.01 668.841 1039.74 C 666.279 1042.67 659.213 1056.13 653.792 1062.71 C 639.789 1079.71 617.642 1090.28 596.055 1092.45 C 574.477 1094.69 552.849 1088.69 535.503 1075.66 C 530.201 1071.67 527.145 1067.93 522.346 1063.99 C 520.145 1064.68 520.853 1064.4 518.978 1065.17 L 517.802 1065.67 L 516.458 1064.16 C 516.771 1063.54 518.399 1060.06 518.104 1059.51 C 513.409 1050.68 507.582 1041.77 504.336 1032.29 C 497.927 1013.56 498.59 991.306 506.496 973.132 C 510.2 964.365 514.073 959.371 517.547 952.043 L 518.269 950.489 z"/>
<path transform="translate(0,0)" fill="rgb(46,27,18)" d="M 579.951 936.469 C 617.656 932.222 651.729 959.179 656.271 996.849 C 660.813 1034.52 634.124 1068.8 596.491 1073.64 C 558.438 1078.53 523.689 1051.48 519.097 1013.39 C 514.504 975.299 541.827 940.764 579.951 936.469 z"/>
<path transform="translate(0,0)" fill="rgb(254,216,32)" d="M 577.48 941.511 C 612.69 935.866 645.789 959.894 651.327 995.121 C 656.865 1030.35 632.736 1063.37 597.493 1068.8 C 562.4 1074.21 529.547 1050.21 524.033 1015.13 C 518.518 980.057 542.421 947.132 577.48 941.511 z"/>
<path transform="translate(0,0)" fill="rgb(46,27,18)" d="M 584.764 969.878 C 586.496 967.167 584.048 965.472 588.89 963.001 C 590.311 965.068 589.955 966.847 589.931 969.423 C 589.957 972.098 589.128 974.934 591.81 976.254 C 589.113 979.539 589.469 992.793 590.293 996.882 C 600.216 1001.67 610.279 1008.96 604.121 1022.41 C 601.819 1027.44 597.521 1029.73 592.489 1031.69 L 590.892 1032.33 C 590.564 1032.45 590.235 1032.57 589.907 1032.69 C 590.041 1037.64 590.253 1041.1 589.656 1046.05 C 587.926 1047.53 588.881 1047.27 586.894 1047.13 C 584.87 1043.21 586.279 1039.08 584.976 1033.64 L 583.206 1032.69 C 584.459 1032.03 583.981 1032.4 585.043 1031.31 C 586.382 1029.95 585.764 1028.37 585.726 1026.54 C 585.415 1018.89 585.601 1011.6 585.746 1003.95 C 566.037 994.94 563.404 978.63 584.764 969.878 z"/>
<path transform="translate(0,0)" fill="rgb(0,0,0)" d="M 590.293 996.882 C 600.216 1001.67 610.279 1008.96 604.121 1022.41 C 601.819 1027.44 597.521 1029.73 592.489 1031.69 L 590.892 1032.33 C 590.564 1032.45 590.235 1032.57 589.907 1032.69 L 590.113 1025.83 C 589.917 1018.69 590.062 1012.15 590.249 1005.01 C 589.625 1001.56 590.01 1000.4 590.293 996.882 z"/>
<path transform="translate(0,0)" fill="rgb(254,216,32)" d="M 590.249 1005.01 C 599.446 1012.6 601.012 1018.83 590.113 1025.83 C 589.917 1018.69 590.062 1012.15 590.249 1005.01 z"/>
<path transform="translate(0,0)" fill="rgb(0,0,0)" d="M 585.746 1003.95 C 566.037 994.94 563.404 978.63 584.764 969.878 C 586.02 973.816 586.364 972.895 585.489 976.313 L 584.487 976.9 C 586.27 981.415 585.585 990.398 585.541 995.65 C 585.813 998.975 585.946 1000.54 585.746 1003.95 z"/>
<path transform="translate(0,0)" fill="rgb(254,216,32)" d="M 584.487 976.9 C 586.27 981.415 585.585 990.398 585.541 995.65 C 576.471 988.89 575.295 984.104 584.487 976.9 z"/>
<path transform="translate(0,0)" fill="rgb(0,0,0)" d="M 583.206 1032.69 C 578.77 1032.07 571.371 1031.68 569.203 1027.62 L 570.663 1023.34 C 572.52 1022.48 581.937 1025.71 585.726 1026.54 C 585.764 1028.37 586.382 1029.95 585.043 1031.31 C 583.981 1032.4 584.459 1032.03 583.206 1032.69 z"/>
<path transform="translate(0,0)" fill="rgb(0,0,0)" d="M 589.931 969.423 C 595.692 970.24 599.633 969.708 602.443 975.487 L 601.586 977.452 C 597.397 978.844 596.581 977.995 591.81 976.254 C 589.128 974.934 589.957 972.098 589.931 969.423 z"/>
<path transform="translate(0,0)" fill="rgb(254,216,32)" d="M 171.126 1204.54 C 189.77 1195.95 211.821 1200.33 225.768 1215.39 C 239.714 1230.46 242.391 1252.78 232.401 1270.71 C 222.393 1288.67 201.949 1298.14 181.775 1294.16 C 161.6 1290.17 146.292 1273.64 143.866 1253.22 C 141.439 1232.8 152.447 1213.14 171.126 1204.54 z"/>
<path transform="translate(0,0)" fill="rgb(46,27,18)" d="M 190.081 1219.6 L 192.063 1220.88 C 193.921 1225.07 193.119 1243.37 193.006 1248.85 C 198.945 1248.75 215.53 1247.87 219.73 1250.89 C 215.249 1254.13 199.162 1253.17 193.009 1253.07 C 193.116 1260.44 194.045 1276.51 191.547 1282.88 C 186.937 1277.68 188.651 1261 188.784 1253.06 C 182.636 1253.17 166.022 1254.03 161.622 1250.98 C 166.022 1247.9 182.637 1248.77 188.771 1248.86 C 188.678 1242.06 187.822 1225.29 190.081 1219.6 z"/>
<path transform="translate(0,0)" fill="rgb(46,27,18)" d="M 483.022 1720.75 L 497.23 1720.75 L 496.843 1728.04 L 482.956 1728.11 L 483.022 1720.75 z"/>
<path transform="translate(0,0)" fill="rgb(0,0,0)" d="M 435.712 939.403 L 437.629 937.166 L 439.602 937.396 L 441.057 939.654 C 440.645 943.363 442.289 949.43 438.595 951.508 C 436.249 947.877 436.257 943.824 435.712 939.403 z"/>
<path transform="translate(0,0)" fill="rgb(46,27,18)" d="M 661.453 1378.45 C 675.414 1377.08 687.901 1387.15 689.518 1401.08 C 691.135 1415.02 681.287 1427.68 667.382 1429.54 C 658.168 1430.77 649.006 1426.94 643.417 1419.51 C 637.829 1412.08 636.683 1402.21 640.422 1393.7 C 644.161 1385.19 652.201 1379.36 661.453 1378.45 z"/>
<path transform="translate(0,0)" fill="rgb(208,206,205)" d="M 659.283 1383.51 C 670.567 1380.93 681.815 1387.94 684.465 1399.21 C 687.115 1410.48 680.172 1421.77 668.922 1424.49 C 657.57 1427.24 646.152 1420.22 643.478 1408.85 C 640.804 1397.48 647.897 1386.11 659.283 1383.51 z"/>
<path transform="translate(0,0)" fill="rgb(46,27,18)" d="M 632.752 1328.53 C 636.295 1327.16 640.306 1327.83 643.209 1330.28 C 646.111 1332.74 647.439 1336.58 646.67 1340.3 C 645.902 1344.02 643.16 1347.03 639.523 1348.13 C 634.187 1349.75 628.525 1346.86 626.704 1341.59 C 624.882 1336.32 627.554 1330.55 632.752 1328.53 z"/>
<path transform="translate(0,0)" fill="rgb(208,206,205)" d="M 635.444 1332.59 C 638.364 1332.04 641.219 1333.82 642.009 1336.68 C 642.799 1339.55 641.259 1342.54 638.468 1343.56 C 636.448 1344.3 634.183 1343.84 632.609 1342.37 C 631.036 1340.91 630.422 1338.68 631.021 1336.61 C 631.62 1334.54 633.33 1332.99 635.444 1332.59 z"/>
<path transform="translate(0,0)" fill="rgb(0,0,0)" d="M 492.436 1084.02 L 493.983 1083.46 L 494.762 1084.56 C 494.334 1085.42 493.253 1087.75 492.731 1088.27 C 490.81 1090.17 495.681 1092.73 494.185 1097.14 C 490.843 1096.99 491.605 1096.67 488.378 1093.73 L 487.731 1092.2 C 485.01 1092.51 484.504 1092.34 481.743 1092.01 L 481.015 1090.71 C 482.657 1089.03 483.552 1088.13 484.963 1086.25 L 485.98 1084.87 L 492.436 1084.02 z"/>
<path transform="translate(0,0)" fill="rgb(0,0,0)" d="M 614.309 1203.85 C 618.991 1205.05 624.567 1207.32 627.783 1211.03 L 627.537 1214.06 C 621.754 1212.09 614.591 1210.58 614.309 1203.85 z"/>
<path transform="translate(0,0)" fill="rgb(0,0,0)" d="M 267.412 1020.51 L 270.904 1021.17 C 275.022 1024.86 277.184 1028.23 279.139 1033.38 C 277.657 1033.6 277.209 1033.5 275.705 1033.45 C 270.993 1029.43 269.345 1026.4 267.412 1020.51 z"/>
<path transform="translate(0,0)" fill="rgb(0,0,0)" d="M 313.867 1068.58 C 319.414 1070.08 326.359 1074.15 326.819 1080.3 C 320.744 1078.39 314.426 1075.4 313.867 1068.58 z"/>
<path transform="translate(0,0)" fill="rgb(0,0,0)" d="M 525.213 1136.59 C 530.828 1136.91 536.388 1143.26 538.169 1148.21 L 535.028 1148.5 C 529.978 1145.49 526.881 1142.25 525.213 1136.59 z"/>
<path transform="translate(0,0)" fill="rgb(0,0,0)" d="M 575.86 1180.7 C 581.048 1181.12 588.711 1185.56 589.657 1191.14 C 583.855 1190.91 577.101 1186.63 575.86 1180.7 z"/>
<path transform="translate(0,0)" fill="rgb(0,0,0)" d="M 510.958 1119.45 C 516.689 1120.81 522.233 1127.11 521.497 1133.29 C 516.374 1131.56 511.573 1124.77 510.958 1119.45 z"/>
<path transform="translate(0,0)" fill="rgb(0,0,0)" d="M 558.5 1166.69 C 564.009 1167.49 570.114 1173.12 571.454 1178.64 C 565.477 1177.3 558.895 1173.24 558.5 1166.69 z"/>
<path transform="translate(0,0)" fill="rgb(0,0,0)" d="M 510.391 1068.75 C 512.198 1070.63 511.71 1069.49 512.187 1072.08 C 510.095 1075.93 505.834 1078.56 502.219 1081.32 C 500.084 1079.69 500.644 1080.78 500.261 1078.11 C 502.287 1074.84 507.231 1071.31 510.391 1068.75 z"/>
<path transform="translate(0,0)" fill="rgb(0,0,0)" d="M 282.453 1037.7 C 287.381 1040.4 293.441 1046.06 292.154 1052.03 C 287.237 1048.44 280.654 1044.19 282.453 1037.7 z"/>
<path transform="translate(0,0)" fill="rgb(0,0,0)" d="M 331.856 1081.82 C 337.563 1081.88 344.894 1085.36 346.345 1091.26 C 340.736 1090.96 333.502 1087.6 331.856 1081.82 z"/>
<path transform="translate(0,0)" fill="rgb(0,0,0)" d="M 473.36 1064.6 C 479.609 1066.26 483.299 1072.97 482.051 1079.19 C 477.704 1077.58 473.45 1069.09 473.36 1064.6 z"/>
<path transform="translate(0,0)" fill="rgb(0,0,0)" d="M 634.401 1213.93 C 640.581 1215.53 646.821 1217.11 648.637 1223.5 C 642.854 1222.35 634.253 1220.69 634.401 1213.93 z"/>
<path transform="translate(0,0)" fill="rgb(0,0,0)" d="M 351.838 1091.84 C 357.231 1092.45 365.63 1094.19 366.861 1100.05 C 361.427 1100.32 353.115 1097.79 351.838 1091.84 z"/>
<path transform="translate(0,0)" fill="rgb(0,0,0)" d="M 542.654 1151.96 C 547.811 1154.16 553.096 1158.75 554.052 1164.41 C 548.887 1163.81 541.354 1157.98 542.654 1151.96 z"/>
<path transform="translate(0,0)" fill="rgb(0,0,0)" d="M 455.211 1023.3 C 460.261 1026.17 463.924 1033.8 462.097 1039.27 L 459.64 1037.85 C 456.384 1033.04 454.75 1029.12 455.211 1023.3 z"/>
<path transform="translate(0,0)" fill="rgb(0,0,0)" d="M 497.93 1101.84 C 502.611 1102.91 507.669 1110.97 508.208 1115.63 C 502.143 1113.89 497.183 1108.37 497.93 1101.84 z"/>
<path transform="translate(0,0)" fill="rgb(0,0,0)" d="M 442.989 980.651 L 445.373 982.069 C 447.929 986.79 448.407 991.367 448.701 996.692 C 442.584 994.98 441.19 985.744 442.989 980.651 z"/>
<path transform="translate(0,0)" fill="rgb(0,0,0)" d="M 372.087 1100.09 C 377.952 1099.44 386.033 1100.3 388.572 1106.17 C 382.647 1107.25 375.439 1105.33 372.087 1100.09 z"/>
<path transform="translate(0,0)" fill="rgb(0,0,0)" d="M 257.51 1000.54 C 262.295 1002.31 265.832 1010.88 266.085 1015.69 C 260.363 1013.34 255.885 1006.75 257.51 1000.54 z"/>
<path transform="translate(0,0)" fill="rgb(0,0,0)" d="M 438.965 958.647 L 441.684 960.285 C 443.999 965.508 443.829 969.481 443.789 975.208 C 442.766 974.751 441.663 974.049 440.672 973.475 C 438.375 968.429 437.744 964.128 438.965 958.647 z"/>
<path transform="translate(0,0)" fill="rgb(0,0,0)" d="M 655.07 1223.01 C 659.703 1224.35 665.571 1225.46 668.712 1229.05 L 668.42 1232.08 C 662.966 1230.49 654.098 1229.54 655.07 1223.01 z"/>
<path transform="translate(0,0)" fill="rgb(0,0,0)" d="M 594.926 1192.67 C 601.155 1194.24 607.277 1197.05 608.582 1203.61 C 602.524 1201.64 595.602 1199.56 594.926 1192.67 z"/>
<path transform="translate(0,0)" fill="rgb(0,0,0)" d="M 296.169 1054.65 C 302.179 1054.81 307.778 1060.87 309.643 1066.26 C 303.756 1066.41 297.742 1060.02 296.169 1054.65 z"/>
<path transform="translate(0,0)" fill="rgb(0,0,0)" d="M 463.588 1044.67 L 466.606 1045.46 C 469.887 1049.54 472.474 1054.32 471.896 1059.68 C 466.653 1057.82 463.617 1049.83 463.588 1044.67 z"/>
<path transform="translate(0,0)" fill="rgb(0,0,0)" d="M 675.499 1231 C 681.484 1232.25 688.793 1232.66 690.24 1239.12 C 684.311 1238.45 676.193 1237.7 675.499 1231 z"/>
<path transform="translate(0,0)" fill="rgb(0,0,0)" d="M 447.864 1002.46 L 450.862 1003.67 C 453.819 1008.49 454.482 1012.46 455.053 1018.06 C 453.648 1017.88 453.242 1017.61 451.895 1017.11 C 448.572 1012.16 448.177 1008.4 447.864 1002.46 z"/>
<path transform="translate(0,0)" fill="rgb(0,0,0)" d="M 472.479 1093.89 L 475.102 1094.99 L 475.195 1096.5 C 472.058 1099.45 468.364 1100.48 464.295 1102.11 C 463.604 1102.04 462.021 1101.53 461.28 1101.33 L 461.148 1099.65 C 464.135 1097.05 468.734 1095.48 472.479 1093.89 z"/>
<path transform="translate(0,0)" fill="rgb(0,0,0)" d="M 395.295 1104.25 L 402.019 1104.76 C 405.699 1105.02 406.272 1104.71 409.526 1106.73 L 410.173 1109.83 C 405.023 1109.71 398.947 1110.32 395.258 1107 L 395.295 1104.25 z"/>
<path transform="translate(0,0)" fill="rgb(0,0,0)" d="M 428.069 1105.48 C 430.49 1105.24 429.578 1105.16 431.891 1106.06 L 431.589 1107.9 C 427.319 1110.7 426.165 1110.25 420.759 1110.2 C 418.21 1109.89 419.07 1110.21 416.997 1108.72 L 417.483 1107.48 C 421.429 1105.26 423.354 1105.63 428.069 1105.48 z"/>
<path transform="translate(0,0)" fill="rgb(0,0,0)" d="M 452.261 1101.26 L 454.292 1103.04 L 453.728 1104.73 C 449.935 1106.81 445.523 1107.35 441.21 1108.24 L 439.597 1106.69 L 439.797 1104.98 C 442.809 1102.92 448.48 1102.09 452.261 1101.26 z"/>
<path transform="translate(0,0)" fill="rgb(208,206,205)" d="M 1483.56 1390.64 C 1484.13 1386.89 1484.08 1383.99 1486.44 1381.14 C 1490.18 1382.9 1488.69 1389.52 1488.35 1393.21 C 1501.34 1386.7 1564.97 1415.22 1577.68 1424.14 C 1579.13 1427.67 1577.98 1426.17 1581.88 1428.27 C 1590.84 1428.88 1607.95 1443.53 1615.13 1449.18 C 1694.96 1511.99 1737.55 1613.9 1739.78 1714.04 C 1739.82 1715.83 1738.57 1718.7 1737.87 1720.24 C 1774.54 1720.59 1811.21 1720.66 1847.89 1720.45 C 1855.83 1720.44 1895.58 1718.98 1899.43 1722.16 C 1900.04 1725.7 1900.36 1724.16 1899.02 1727.02 C 1894.19 1729.63 1786.71 1728.1 1772.2 1728.09 L 1485.5 1728.05 L 1395.51 1728.11 C 1381.43 1728.12 1359.57 1728.77 1346.18 1727.64 C 1343.04 1725.98 1342.21 1724.57 1341.73 1721.34 L 1344.02 1718.96 C 1338.75 1713.54 1337.85 1708.87 1335.68 1701.76 C 1354.58 1702.73 1387.3 1707.35 1406.86 1709.92 C 1406.57 1686.1 1408.12 1660.21 1409.45 1636.32 C 1414.12 1552.36 1413.77 1467.29 1419.18 1383.49 C 1421.09 1381.14 1420.65 1381.9 1424.74 1381.48 C 1437.79 1382.32 1473.77 1383.65 1483.56 1390.64 z"/>
<path transform="translate(0,0)" fill="rgb(46,27,18)" d="M 1344.02 1718.96 C 1349.91 1721.81 1411.71 1720.7 1422.57 1720.7 L 1559.41 1720.71 L 1673.24 1720.69 C 1693.16 1720.68 1718.38 1721.33 1737.87 1720.24 C 1774.54 1720.59 1811.21 1720.66 1847.89 1720.45 C 1855.83 1720.44 1895.58 1718.98 1899.43 1722.16 C 1900.04 1725.7 1900.36 1724.16 1899.02 1727.02 C 1894.19 1729.63 1786.71 1728.1 1772.2 1728.09 L 1485.5 1728.05 L 1395.51 1728.11 C 1381.43 1728.12 1359.57 1728.77 1346.18 1727.64 C 1343.04 1725.98 1342.21 1724.57 1341.73 1721.34 L 1344.02 1718.96 z"/>
<path transform="translate(0,0)" fill="rgb(0,0,0)" d="M 1483.56 1390.64 C 1484.13 1386.89 1484.08 1383.99 1486.44 1381.14 C 1490.18 1382.9 1488.69 1389.52 1488.35 1393.21 C 1486.97 1395.28 1487.64 1394.65 1485.37 1395.76 C 1482.9 1393.46 1483.81 1394.93 1483.56 1390.64 z"/>
<path transform="translate(0,0)" fill="rgb(0,0,0)" d="M 1490.11 1490.31 L 1492.64 1491.76 C 1495.32 1495.87 1498.35 1501.44 1497.38 1506.43 L 1494.31 1504.72 C 1491.01 1499.93 1489.4 1496.16 1490.11 1490.31 z"/>
<path transform="translate(0,0)" fill="rgb(0,0,0)" d="M 1550.63 1514.88 C 1552.4 1514.85 1551.83 1514.91 1553.63 1515.84 L 1553.45 1517.3 C 1550.08 1521 1547.72 1522.02 1543.41 1524.5 C 1541.59 1524.7 1542.07 1524.55 1540.13 1523.9 L 1540.11 1522.49 C 1542.79 1519.25 1546.95 1517.15 1550.63 1514.88 z"/>
<path transform="translate(0,0)" fill="rgb(0,0,0)" d="M 1517.8 1523.16 C 1522.73 1523.19 1528.08 1522.71 1532.56 1524.39 L 1533.79 1527.39 C 1527.96 1528.27 1519.83 1529.9 1517.8 1523.16 z"/>
<path transform="translate(0,0)" fill="rgb(0,0,0)" d="M 1579.99 1433.51 C 1581.79 1434.26 1581.48 1434.26 1583.04 1435.56 C 1584.75 1441.24 1584.38 1444.64 1582.9 1450.4 C 1581.78 1449.82 1581.2 1449.18 1580.21 1448.34 C 1578.89 1443.23 1579.13 1438.67 1579.99 1433.51 z"/>
<path transform="translate(0,0)" fill="rgb(0,0,0)" d="M 1576.37 1477.67 L 1578.06 1479 C 1579.39 1483.93 1575.65 1489.09 1573.13 1493.55 C 1571.5 1492.57 1571.93 1492.79 1570.63 1491.31 C 1571.28 1485.88 1573.61 1482.41 1576.37 1477.67 z"/>
<path transform="translate(0,0)" fill="rgb(0,0,0)" d="M 1482.91 1446.48 L 1485.34 1448.08 C 1487.15 1453.35 1487.87 1458 1485.92 1463.33 L 1483.54 1461.54 C 1481.59 1455.74 1481.55 1452.46 1482.91 1446.48 z"/>
<path transform="translate(0,0)" fill="rgb(0,0,0)" d="M 1499.9 1510.44 C 1503.5 1511.28 1508.15 1515.68 1510.54 1518.46 C 1512.37 1520.58 1511.75 1519.91 1511.41 1523.14 C 1505.38 1521.28 1500.49 1516.82 1499.9 1510.44 z"/>
<path transform="translate(0,0)" fill="rgb(0,0,0)" d="M 1566.54 1497.64 C 1568.47 1499.32 1567.71 1498.34 1568.45 1500.88 C 1567.04 1504.93 1563.75 1508.04 1560.86 1511.37 C 1558.42 1510.6 1559.36 1511.35 1558.11 1509.04 C 1559.66 1504.82 1563.47 1501.15 1566.54 1497.64 z"/>
<path transform="translate(0,0)" fill="rgb(0,0,0)" d="M 1481.84 1424.24 C 1487.79 1426.83 1485.66 1435.19 1485.11 1440.78 C 1483.14 1440.13 1483.63 1440.27 1481.87 1439.09 C 1480.13 1433.83 1481.08 1429.77 1481.84 1424.24 z"/>
<path transform="translate(0,0)" fill="rgb(0,0,0)" d="M 1484.59 1469.03 C 1486.75 1469.63 1486.18 1469.45 1488.15 1470.59 C 1490.17 1475.01 1490.38 1479.84 1490.98 1484.74 C 1487.91 1484.52 1489.24 1485.05 1486.86 1483.03 C 1484.84 1478.49 1484.95 1474.05 1484.59 1469.03 z"/>
<path transform="translate(0,0)" fill="rgb(0,0,0)" d="M 1579.62 1456.21 C 1581.03 1456.73 1581.28 1456.98 1582.58 1457.76 C 1583.94 1463.61 1582.45 1466.67 1580.72 1472.62 C 1578.74 1471.7 1579.43 1472.18 1578.01 1470.42 C 1577.37 1465.71 1578.7 1460.97 1579.62 1456.21 z"/>
<path transform="translate(0,0)" fill="rgb(0,0,0)" d="M 1482.76 1402.19 C 1485.1 1403.02 1484.05 1402.38 1485.88 1404.14 C 1486.92 1409.46 1486.5 1413.83 1484.55 1418.91 C 1483.28 1418 1482.99 1417.55 1481.91 1416.41 C 1480.89 1411.31 1481.95 1407.37 1482.76 1402.19 z"/>
<path transform="translate(0,0)" fill="rgb(208,206,205)" d="M 949.122 1385.71 C 959.703 1386.59 977.119 1394.69 988.478 1397.44 C 1051.58 1412.68 1116.29 1409.16 1180.23 1402.35 C 1193.65 1400.93 1211.89 1397.49 1224.76 1397.83 L 1226.73 1397.86 C 1227.12 1397.88 1227.52 1397.9 1227.91 1397.91 L 1230.74 1397.15 C 1232.85 1395.87 1232.37 1396.2 1234.15 1394.51 L 1238.89 1393.52 C 1249.11 1392.96 1268.53 1389.84 1276.81 1390.39 L 1253.67 1589.97 C 1250.07 1620.96 1246.65 1660.4 1241.82 1690.68 C 1248.35 1691.42 1255.53 1692.09 1261.98 1693 C 1262.24 1702.21 1262.57 1711.42 1262.96 1720.62 L 1262.88 1728.04 L 1078.4 1728.02 L 1075.34 1720.7 C 1035.08 1618.47 997.604 1514.81 957.655 1412.42 C 955.594 1407.14 948.29 1390.29 949.122 1385.71 z"/>
<path transform="translate(0,0)" fill="rgb(46,27,18)" d="M 1075.34 1720.7 L 1262.96 1720.62 L 1262.88 1728.04 L 1078.4 1728.02 L 1075.34 1720.7 z"/>
<path transform="translate(0,0)" fill="rgb(0,0,0)" d="M 1230.74 1397.15 C 1230.91 1403.38 1227.4 1407.06 1221.54 1408.82 L 1219.89 1408.31 C 1220.68 1405.07 1225.43 1400.65 1227.91 1397.91 L 1230.74 1397.15 z"/>
<path transform="translate(0,0)" fill="rgb(0,0,0)" d="M 1199.93 1431.57 C 1201.82 1432.61 1201.12 1432.1 1202.36 1434.12 C 1201.27 1438.45 1197.83 1442.22 1195.05 1445.92 C 1192.5 1444.92 1193.3 1445.81 1192.26 1443.53 C 1193.48 1439.18 1197.08 1435.28 1199.93 1431.57 z"/>
<path transform="translate(0,0)" fill="rgb(0,0,0)" d="M 1175.44 1469.36 C 1177.48 1470.21 1176.73 1469.76 1178.24 1471.54 C 1177.67 1475.97 1174.55 1480.35 1172.2 1484.37 C 1169.79 1483.48 1170.81 1484.16 1169.34 1481.99 C 1169.95 1477.67 1173.12 1473.28 1175.44 1469.36 z"/>
<path transform="translate(0,0)" fill="rgb(0,0,0)" d="M 1213.29 1414.5 L 1215.07 1415.08 L 1215.99 1416.94 C 1214.58 1420.9 1210.82 1424.58 1207.96 1427.89 C 1205.71 1427.05 1206.64 1427.72 1205.37 1425.53 C 1206.76 1421.36 1210.32 1417.94 1213.29 1414.5 z"/>
<path transform="translate(0,0)" fill="rgb(0,0,0)" d="M 1156.3 1509.33 L 1158.45 1510.85 C 1159.67 1515.42 1155.92 1521.27 1153.72 1525.49 C 1151.59 1523.96 1152.39 1524.95 1151.34 1522.5 C 1151.84 1517.69 1154.18 1513.76 1156.3 1509.33 z"/>
<path transform="translate(0,0)" fill="rgb(0,0,0)" d="M 1186.91 1450.35 C 1189.08 1451.14 1188.12 1450.47 1189.67 1452.52 C 1188.97 1456.58 1185.46 1461.08 1183.09 1464.68 C 1180.54 1463.49 1181.33 1464.46 1180.32 1462.03 C 1181.17 1458.06 1184.54 1453.85 1186.91 1450.35 z"/>
<path transform="translate(0,0)" fill="rgb(0,0,0)" d="M 1148.37 1530.32 C 1150.9 1531.68 1149.98 1530.7 1151.11 1533.47 C 1150.41 1539.29 1149.2 1541.35 1146.9 1546.67 C 1144.75 1545.32 1145.63 1546.21 1144.29 1543.95 C 1144.4 1539.12 1146.55 1534.89 1148.37 1530.32 z"/>
<path transform="translate(0,0)" fill="rgb(0,0,0)" d="M 1133.81 1595.4 L 1136.23 1597.32 C 1137 1602.47 1136.72 1607.8 1134.07 1612.39 L 1131.76 1610.27 C 1131 1604.77 1131.71 1600.52 1133.81 1595.4 z"/>
<path transform="translate(0,0)" fill="rgb(0,0,0)" d="M 1165.08 1489.48 C 1167.56 1490.39 1166.63 1489.57 1167.84 1491.98 C 1167.03 1496.73 1164.51 1500.61 1162.2 1504.92 C 1160.3 1503.41 1160.86 1504.06 1159.71 1501.97 C 1160.3 1497.12 1162.67 1493.81 1165.08 1489.48 z"/>
<path transform="translate(0,0)" fill="rgb(0,0,0)" d="M 1137.12 1573.41 L 1139.38 1575.01 C 1140.85 1579.86 1138.77 1585.27 1137.34 1590.09 C 1131.39 1586.81 1135.39 1578.88 1137.12 1573.41 z"/>
<path transform="translate(0,0)" fill="rgb(0,0,0)" d="M 1142.34 1551.64 L 1144.61 1553.67 C 1145.09 1559.17 1143.3 1563.04 1141.36 1568.25 C 1140.12 1567.39 1139.84 1567.02 1138.75 1565.97 C 1138.4 1559.95 1139.95 1557.33 1142.34 1551.64 z"/>
<path transform="translate(0,0)" fill="rgb(254,143,164)" d="M 171.126 1204.54 C 160.385 1188.13 152.66 1169.04 156.514 1149.13 C 160.132 1130.43 171.052 1116.68 186.77 1106.36 C 211.363 1090.22 244.493 1090.61 272.165 1096.65 C 360.48 1115.93 516.214 1265.79 564.985 1342.6 C 583.447 1371.67 604.432 1410.32 596.565 1446.02 C 592.627 1463.88 581.377 1476.4 566.418 1486.09 C 566.101 1486.29 565.778 1486.49 565.457 1486.69 C 543.886 1433.14 513.577 1383.54 475.765 1339.91 C 418.217 1272.27 346.067 1216.27 269.709 1171.53 C 259.473 1165.53 239.88 1152.07 228.594 1151.16 C 230.6 1155.46 260.608 1171.41 266.254 1174.7 C 284.219 1185.21 301.845 1196.29 319.108 1207.91 C 367.214 1240.06 411.58 1277.48 451.382 1319.47 C 431.412 1318.52 281.249 1301.04 276.014 1303.17 C 265.535 1297.07 241.559 1278.53 232.401 1270.71 C 242.391 1252.78 239.714 1230.46 225.768 1215.39 C 211.821 1200.33 189.77 1195.95 171.126 1204.54 z"/>
<path transform="translate(0,0)" fill="rgb(254,143,164)" d="M 282.511 1307.1 C 339.463 1312.67 399.321 1319.76 456.102 1324.42 C 503.451 1377.5 534.475 1422.31 561.537 1488.9 C 509.675 1508.03 469.196 1460.35 435.957 1427.51 C 422.298 1414.01 408.183 1400.99 393.637 1388.45 C 374.184 1371.67 353.883 1355.89 332.814 1341.18 C 316.316 1329.71 298.607 1318.94 282.511 1307.1 z"/>
<path transform="translate(0,0)" fill="rgb(208,206,205)" d="M 602.602 1720.74 C 604.723 1697.16 639.117 1686.67 658.929 1683.58 L 652.325 1707.03 C 667.66 1711.26 684.267 1715.49 699.395 1720.08 C 703.702 1720.56 718.167 1724.93 721.393 1728.1 C 694.378 1728.98 665.289 1727.43 638.121 1727.99 C 628.403 1728.2 610.702 1727.3 601.703 1728.86 L 602.602 1720.74 z"/>
<path transform="translate(0,0)" fill="rgb(46,27,18)" d="M 699.395 1720.08 C 703.702 1720.56 718.167 1724.93 721.393 1728.1 C 694.378 1728.98 665.289 1727.43 638.121 1727.99 C 628.403 1728.2 610.702 1727.3 601.703 1728.86 L 602.602 1720.74 L 666.728 1720.86 C 673.7 1720.87 693.645 1721.22 699.395 1720.08 z"/>
<path transform="translate(0,0)" fill="rgb(208,206,205)" d="M 799.534 1363.56 C 800.749 1363.97 801.777 1364.46 802.548 1365.62 C 808.129 1373.97 813.018 1382.97 817.989 1391.72 C 866.932 1477.87 910.951 1566.74 959.956 1652.86 C 965.85 1663.22 972.13 1673.63 977.423 1684.13 C 977.325 1685.17 977.228 1686.22 977.13 1687.27 C 971.506 1684.9 954.392 1652.14 949.787 1643.93 C 929.479 1607.53 909.615 1570.88 890.199 1533.99 C 871.028 1497.72 851.594 1461.58 831.901 1425.6 C 821.868 1407.44 811.418 1389.44 801.266 1371.36 C 798.979 1367.28 799.117 1367.57 799.534 1363.56 z"/>
<path transform="translate(0,0)" fill="rgb(208,206,205)" d="M 767.288 1141.71 C 767.823 1144.7 758.589 1169.3 757.338 1175.42 C 753.891 1191 752.114 1206.35 751.705 1222.31 C 751.557 1228.07 754.34 1247.12 750.89 1250.31 C 750.693 1250.02 750.47 1249.74 750.298 1249.43 C 742.041 1234.66 750.939 1181.98 755.462 1165.91 C 757.145 1159.93 761.4 1141.73 766.109 1139.1 L 767.288 1141.71 z"/>
<path transform="translate(0,0)" fill="rgb(238,69,65)" d="M 331.175 462.695 C 334.25 457.541 348.299 450.925 353.976 448.186 C 372.081 439.453 391.475 435.089 411.436 433.766 C 465.103 430.209 512.196 458.505 561.83 473.825 C 573.747 477.501 587.166 481.45 599.687 478.895 C 623.077 473.755 626.691 444.947 638.41 427.947 C 665.854 388.135 722.766 407.127 761.082 415.131 C 778.95 418.864 799.339 414.337 814.631 404.098 C 838.004 388.449 847.541 356.945 874.476 345.814 C 890.501 338.99 895.998 345.578 911.711 345.658 C 922.264 344.373 930.742 336.477 941.264 334.862 C 970.74 330.34 990.131 359.411 1011.42 374.569 L 1012.94 375.636 C 1014.36 406.399 1019.84 423.344 1034.81 449.912 L 1039.27 449.424 C 1023.77 423.578 1019.22 407.587 1016.95 378.091 C 1040.22 386.573 1055.75 381.682 1078.83 388.243 C 1106.31 396.053 1121.05 408.776 1134.85 432.932 C 1147.1 431.126 1159.13 428.113 1171.63 426.618 C 1173.95 422.841 1174.65 421.267 1178.41 419.725 C 1181.81 421.538 1180.72 420.862 1182.8 424.925 C 1205.87 419.448 1248.62 413.367 1273.14 409.336 C 1276.12 402.04 1279.93 389.208 1287.89 386.702 L 1289.93 388.082 C 1292.66 394.111 1291.45 399.982 1290.78 406.556 C 1301.7 403.692 1315.25 403.033 1325.85 399.871 L 1327.17 397.567 L 1328.95 397.305 L 1331.11 399.159 C 1337.22 398.674 1368.84 393.505 1373.17 391.312 L 1375 389.942 C 1375.69 390.237 1376.83 390.615 1377.27 391.069 C 1389.76 390.436 1406.69 386.523 1419.41 384.278 L 1489.72 372.024 C 1506.27 369.048 1518.35 364.761 1535.37 366.148 C 1551.91 367.382 1567.63 373.851 1580.26 384.619 C 1596.38 398.482 1606.23 419.606 1607.6 440.676 C 1608.84 461.557 1601.69 482.069 1587.75 497.665 C 1577.2 509.514 1562.58 518.517 1546.95 521.672 C 1559.25 550.18 1562.75 564.878 1561.86 595.693 C 1514.22 591.944 1472.62 563.279 1456.56 517.541 C 1455.48 515.196 1455.85 515.944 1453.97 513.987 L 1452.34 514.237 L 1451.29 516.371 C 1467.77 552.856 1484.54 576.431 1523.8 591.495 C 1535.82 596.193 1548.56 598.791 1561.45 599.174 C 1554.38 666.931 1490.95 722.215 1422.26 713.871 C 1376.39 708.3 1335.97 686.187 1291.9 673.398 C 1291.68 722.236 1289.3 771.868 1288.51 820.761 C 1288.22 838.615 1289.68 857.137 1275.11 870.464 C 1253.89 889.881 1236.54 879.614 1213.99 874.226 C 1203.65 871.129 1193.21 868.108 1182.99 864.617 C 1183.14 883.093 1185.05 903.015 1170.98 917.208 C 1151.21 937.155 1126.1 926.97 1104.11 920.197 C 1104.1 954.435 1089.13 999.08 1071.61 1028.41 L 1068.73 1031.64 C 1063.38 1042.47 1034.45 1082.01 1022.69 1081.41 C 1022.48 1080.07 1022.47 1076.46 1022.43 1074.93 C 1017.7 1070.94 996.823 1060.13 989.194 1055.23 C 950.921 1030.66 905.841 996.251 860.641 987.257 C 845.449 984.235 833.471 989.249 821.788 998.16 C 821.388 989.219 824.168 973.841 825.844 964.862 C 831.872 932.587 831.658 919.089 824.792 888.071 C 822.307 888.736 822.46 888.699 819.892 888.426 L 819.018 887.096 C 820.529 884.305 820.253 885.126 823.831 883.462 C 818.35 872.88 803.888 833.044 799.166 820.219 C 776.585 792.94 769.612 770.883 783.605 737.102 C 774.179 740.162 768.202 743.298 757.907 745.552 C 688.405 760.769 648.874 695.884 597.485 664.259 C 566.345 645.096 528.188 634.957 497.579 659.371 C 470.503 680.968 462.235 696.005 425.757 704.488 C 392.086 712.255 356.709 706.394 327.341 688.183 C 261.133 646.355 251.113 546.77 301.014 488.552 C 306.12 482.596 320.498 466.249 328.023 464.607 L 331.175 462.695 z M 1186.01 690.371 C 1185.88 713.028 1185.51 735.684 1184.9 758.334 C 1191.58 760.971 1201.01 765.842 1207.7 769.05 C 1211.22 745.898 1214.91 722.771 1218.75 699.671 C 1219.76 690.633 1221.37 681.901 1222.93 672.955 C 1208.21 678.39 1199.65 682.572 1186.01 690.371 z M 1294.21 577.429 C 1325.67 573.092 1350.08 572.845 1381.19 581.414 C 1425.54 593.703 1463.94 621.639 1489.28 660.052 C 1496.75 671.251 1499.07 677.747 1505.1 688.42 L 1506.93 688.868 L 1507.97 687.423 C 1507.2 682.399 1504.19 677.591 1501.74 673.041 C 1488.91 648.953 1471.12 627.864 1449.53 611.17 C 1402.19 574.562 1352.27 565.85 1294.34 573.471 L 1294.21 577.429 z M 1131.71 515.177 C 1111.62 508.791 1098.03 503.041 1080.77 491.1 L 1072.68 490.113 C 1054.78 489.427 1033.01 487.458 1015.03 485.991 L 1015.03 453.434 C 1021.13 452.617 1028.64 451.039 1034.81 449.912 C 1019.84 423.344 1014.36 406.399 1012.94 375.636 L 1011.42 374.569 C 990.131 359.411 970.74 330.34 941.264 334.862 C 930.742 336.477 922.264 344.373 911.711 345.658 C 895.998 345.578 890.501 338.99 874.476 345.814 C 847.541 356.945 838.004 388.449 814.631 404.098 C 799.339 414.337 778.95 418.864 761.082 415.131 C 722.766 407.127 665.854 388.135 638.41 427.947 C 626.691 444.947 623.077 473.755 599.687 478.895 C 587.166 481.45 573.747 477.501 561.83 473.825 C 512.196 458.505 465.103 430.209 411.436 433.766 C 391.475 435.089 372.081 439.453 353.976 448.186 C 348.299 450.925 334.25 457.541 331.175 462.695 L 328.023 464.607 C 320.498 466.249 306.12 482.596 301.014 488.552 C 251.113 546.77 261.133 646.355 327.341 688.183 C 356.709 706.394 392.086 712.255 425.757 704.488 C 462.235 696.005 470.503 680.968 497.579 659.371 C 528.188 634.957 566.345 645.096 597.485 664.259 C 648.874 695.884 688.405 760.769 757.907 745.552 C 768.202 743.298 774.179 740.162 783.605 737.102 L 785.536 730.753 C 791.597 696.116 812.412 682.307 834.421 660.751 L 835.848 659.337 C 835.627 658.789 835.364 657.086 835.24 656.426 L 836.304 655.653 L 840.617 656.604 C 847.276 652.249 853.616 648.476 860.482 644.444 C 862.873 647.712 865.626 650.7 868.689 653.349 C 898.892 679.343 957.345 678.763 985.455 648.509 C 988.31 645.436 988.477 644.44 987.962 640.714 C 993.458 642.702 1007.82 648.435 1012.5 649.685 L 1015.42 651.168 C 1045.87 667.489 1062.06 678.714 1080.83 708.266 L 1111.69 723.07 C 1113.01 713.852 1114.08 704.562 1115.17 695.307 C 1121.66 639.919 1128.85 584.585 1134.85 529.148 C 1135.19 526.091 1134.2 522.646 1133.31 519.736 L 1131.71 515.177 z M 1563.76 441.757 C 1560.86 445.777 1549.7 475.73 1550.91 479.419 L 1551.96 479.658 C 1563.31 464.806 1565.03 460.342 1564.61 442.658 L 1563.76 441.757 z"/>
<path transform="translate(0,0)" fill="rgb(0,0,0)" d="M 331.175 462.695 C 334.25 457.541 348.299 450.925 353.976 448.186 C 372.081 439.453 391.475 435.089 411.436 433.766 C 465.103 430.209 512.196 458.505 561.83 473.825 C 573.747 477.501 587.166 481.45 599.687 478.895 C 623.077 473.755 626.691 444.947 638.41 427.947 C 665.854 388.135 722.766 407.127 761.082 415.131 C 778.95 418.864 799.339 414.337 814.631 404.098 C 838.004 388.449 847.541 356.945 874.476 345.814 C 890.501 338.99 895.998 345.578 911.711 345.658 C 922.264 344.373 930.742 336.477 941.264 334.862 C 970.74 330.34 990.131 359.411 1011.42 374.569 L 1012.94 375.636 C 1014.36 406.399 1019.84 423.344 1034.81 449.912 C 1028.64 451.039 1021.13 452.617 1015.03 453.434 L 1015.03 485.991 C 1033.01 487.458 1054.78 489.427 1072.68 490.113 C 1090.3 504.576 1111.54 513.576 1133.31 519.736 C 1134.2 522.646 1135.19 526.091 1134.85 529.148 C 1128.85 584.585 1121.66 639.919 1115.17 695.307 C 1114.08 704.562 1113.01 713.852 1111.69 723.07 L 1080.83 708.266 C 1062.06 678.714 1045.87 667.489 1015.42 651.168 L 1012.5 649.685 C 1007.82 648.435 993.458 642.702 987.962 640.714 C 988.477 644.44 988.31 645.436 985.455 648.509 C 957.345 678.763 898.892 679.343 868.689 653.349 C 865.626 650.7 862.873 647.712 860.482 644.444 C 853.616 648.476 847.276 652.249 840.617 656.604 L 836.304 655.653 L 835.24 656.426 C 835.364 657.086 835.627 658.789 835.848 659.337 L 834.421 660.751 C 812.412 682.307 791.597 696.116 785.536 730.753 L 783.605 737.102 C 774.179 740.162 768.202 743.298 757.907 745.552 C 688.405 760.769 648.874 695.884 597.485 664.259 C 566.345 645.096 528.188 634.957 497.579 659.371 C 470.503 680.968 462.235 696.005 425.757 704.488 C 392.086 712.255 356.709 706.394 327.341 688.183 C 261.133 646.355 251.113 546.77 301.014 488.552 C 306.12 482.596 320.498 466.249 328.023 464.607 L 331.175 462.695 z M 670.958 503.354 C 711.26 497.709 767.308 489.097 785.652 444.236 C 788.209 437.984 788.94 423.627 785.839 417.29 L 783.662 417.072 C 781.308 427.143 788.995 437.926 775.744 454.578 C 746.965 490.742 706.861 494.035 665.871 500.467 L 670.958 503.354 z M 746.989 583.018 C 770.365 574.923 781.561 573.96 806.507 575.512 L 808.119 572.554 C 788.323 568.925 762.635 571.276 744.613 580.232 L 746.989 583.018 z"/>
<path transform="translate(0,0)" fill="rgb(238,69,65)" d="M 859.202 430.777 C 885.654 452.944 892.129 429.73 912.733 436.533 C 932.84 443.171 934.792 461.005 960.753 436.576 C 966.872 430.818 982.266 433.547 991.033 434.885 C 990.908 457.062 990.932 479.239 991.104 501.416 C 991.088 514.366 991.467 533.208 983.426 544.099 L 982.241 544.845 L 982.593 545.853 C 977.781 555.507 971.283 562.571 962.304 568.422 L 959.514 568.158 L 957.898 571.694 L 959.127 572.181 C 957.153 581.08 954.955 588.733 952.41 597.439 L 948.443 612.905 L 960.729 612.901 C 967.635 623.664 974.616 637.886 987.962 640.714 C 988.477 644.44 988.31 645.436 985.455 648.509 C 957.345 678.763 898.892 679.343 868.689 653.349 C 865.626 650.7 862.873 647.712 860.482 644.444 C 889.84 629.706 897.676 604.333 895.809 573.538 C 880.572 563.877 870.613 555.202 863.567 537.723 C 860.772 530.788 861.701 517.375 857.044 513.527 L 852.931 514.634 C 845.969 504.613 839.432 502.988 828.871 508.578 C 822.814 500.876 819.519 492.531 822.41 482.714 C 824.337 476.276 828.815 470.908 834.802 467.858 C 843.576 463.419 850.454 464.501 859.276 467.429 L 859.202 430.777 z"/>
<path transform="translate(0,0)" fill="rgb(0,0,0)" d="M 957.898 571.694 L 959.127 572.181 C 957.153 581.08 954.955 588.733 952.41 597.439 C 936.403 594.952 928.407 590.402 916.754 579.893 C 934.444 580.572 941.908 578.962 957.898 571.694 z"/>
<path transform="translate(0,0)" fill="rgb(0,0,0)" d="M 956.885 471.951 C 964.94 471.547 978.593 469.412 981.947 478.652 C 978.958 487.599 963.916 487.673 956.886 485.132 C 952.697 485.078 948.529 484.277 945.597 481.112 C 944.431 473.907 951.371 473.259 956.885 471.951 z"/>
<path transform="translate(0,0)" fill="rgb(208,206,205)" d="M 956.886 485.132 C 952.697 485.078 948.529 484.277 945.597 481.112 C 944.431 473.907 951.371 473.259 956.885 471.951 C 955.783 477.18 955.487 479.844 956.886 485.132 z"/>
<path transform="translate(0,0)" fill="rgb(0,0,0)" d="M 963.154 455.419 C 970.338 455.038 979.832 453.033 983.273 460.812 L 982.132 462.889 C 978.755 464.732 978.864 464.598 975.25 464.928 C 968.686 465.188 959.126 466.613 954.124 462.736 C 953.438 459.504 953.338 461.104 954.849 457.818 C 958.286 455.273 958.232 456.044 963.154 455.419 z"/>
<path transform="translate(0,0)" fill="rgb(0,0,0)" d="M 888.916 454.171 C 896.017 453.832 911.323 451.49 915.325 458.077 C 914.274 461.051 914.245 460.834 911.887 463.004 C 905.033 463.561 890.867 466.373 886.48 460.363 C 886.473 457.001 886.951 456.889 888.916 454.171 z"/>
<path transform="translate(0,0)" fill="rgb(65,17,16)" d="M 931.436 483.831 C 933.701 487.576 932.348 499.08 932.105 504.262 L 948.809 496.145 L 940.074 517.63 L 939.055 518.917 L 938.217 518.37 C 939.423 512.36 942.423 505.955 944.795 500.197 C 939.875 502.791 934.843 505.13 929.818 507.514 C 930.013 498.836 930.51 492.485 931.436 483.831 z"/>
<path transform="translate(0,0)" fill="rgb(65,17,16)" d="M 889.538 475.094 C 899.954 474.451 903.537 474.588 912.629 480.393 L 912.603 481.714 C 914.232 482.315 913.689 481.795 914.417 483.051 C 911.866 481.822 913.295 483.357 909.419 480.539 C 901.238 475.63 893.18 477.396 883.744 478.064 C 884.832 476.201 886.898 476.065 889.538 475.094 z"/>
<path transform="translate(0,0)" fill="rgb(65,17,16)" d="M 919.303 519.837 C 921.094 520.332 921.578 520.373 922.561 521.13 C 934.796 530.55 942.018 522.031 947.331 523.969 C 943.506 526.41 939.958 527.22 935.627 528.581 C 927.749 526.743 923.984 526.26 919.303 519.837 z"/>
<path transform="translate(0,0)" fill="rgb(65,17,16)" d="M 884.019 484.169 C 891.32 483.393 900.411 488.691 904.127 494.827 C 903.428 494.643 887.165 485.636 884.019 484.169 z"/>
<path transform="translate(0,0)" fill="rgb(254,216,32)" d="M 982.593 545.853 L 982.241 544.845 L 983.426 544.099 L 984.492 544.925 C 992.436 551.212 1006.44 566.965 1018.64 562.176 L 1018.69 565.332 C 1022.54 575.089 1028.52 601.909 1031.3 613.065 C 1007.9 613.036 984.102 613.213 960.729 612.901 L 948.443 612.905 L 952.41 597.439 C 954.955 588.733 957.153 581.08 959.127 572.181 L 957.898 571.694 L 959.514 568.158 L 962.304 568.422 C 971.283 562.571 977.781 555.507 982.593 545.853 z"/>
<path transform="translate(0,0)" fill="rgb(89,60,26)" d="M 957.898 571.694 L 959.514 568.158 L 962.304 568.422 C 971.768 575.09 994.886 596.748 990.255 609.595 L 989.055 609.465 C 983.045 596.257 978.921 578.076 961.411 571.311 C 959.357 571.914 960.031 571.455 959.127 572.181 L 957.898 571.694 z"/>
<path transform="translate(0,0)" fill="rgb(89,60,26)" d="M 982.593 545.853 L 982.241 544.845 L 983.426 544.099 L 984.492 544.925 C 992.436 551.212 1006.44 566.965 1018.64 562.176 L 1018.69 565.332 C 1003.3 565.691 992.123 556.713 982.593 545.853 z"/>
<path transform="translate(0,0)" fill="rgb(254,216,32)" d="M 819.55 529.967 C 833.533 547.61 841.948 552.282 863.38 557.634 L 863.361 559.106 C 866.484 562.078 876.724 608.162 878.844 616.133 C 867.373 616.155 850.129 616.648 839.148 615.743 L 837.007 616.033 L 836.584 614.355 C 832.313 597.711 825.401 575.482 809.723 566.206 L 807.593 563.545 L 810.43 562.108 C 813.481 552.985 816.049 542.318 818.537 532.925 L 819.55 529.967 z"/>
<path transform="translate(0,0)" fill="rgb(89,60,26)" d="M 810.43 562.108 C 813.559 566.624 817.916 569.433 821.379 573.601 C 831.19 585.412 835.533 601.116 839.148 615.743 L 837.007 616.033 L 836.584 614.355 C 832.313 597.711 825.401 575.482 809.723 566.206 L 807.593 563.545 L 810.43 562.108 z"/>
<path transform="translate(0,0)" fill="rgb(89,60,26)" d="M 819.55 529.967 C 833.533 547.61 841.948 552.282 863.38 557.634 L 863.361 559.106 C 843.322 557.903 830.859 547.216 818.537 532.925 L 819.55 529.967 z"/>
<path transform="translate(0,0)" fill="rgb(208,206,205)" d="M 331.175 462.695 C 335.61 474.291 338.972 484.553 344.676 495.727 C 363.009 531.049 392.704 559.168 428.973 575.548 C 464.452 591.486 502.829 594.928 540.09 581.923 C 586.552 565.706 614.113 503.907 665.871 500.467 L 670.958 503.354 C 649.014 508.418 631.682 513.961 614.576 529.661 C 585.1 556.713 563.979 583.799 522.498 591.524 C 458.633 603.418 395.463 574.114 356.795 523.216 C 344.98 507.642 331.757 484.037 328.023 464.607 L 331.175 462.695 z"/>
<path transform="translate(0,0)" fill="rgb(254,216,32)" d="M 828.871 508.578 C 839.432 502.988 845.969 504.613 852.931 514.634 C 854.861 520.837 863.853 552.801 863.38 557.634 C 841.948 552.282 833.533 547.61 819.55 529.967 C 821.926 520.282 822.319 516.269 828.871 508.578 z"/>
<path transform="translate(0,0)" fill="rgb(254,216,32)" d="M 809.723 566.206 C 825.401 575.482 832.313 597.711 836.584 614.355 L 837.007 616.033 C 823.543 616.288 809.414 616.076 795.895 616.083 C 798.681 606.006 805.149 584.829 806.507 575.512 L 808.119 572.554 C 808.231 571.276 809.332 567.64 809.723 566.206 z"/>
<path transform="translate(0,0)" fill="rgb(254,216,32)" d="M 991.104 501.416 C 998.03 503.769 1002.42 505.814 1005.41 513.049 C 1011.62 528.129 1013.85 546.197 1018.64 562.176 C 1006.44 566.965 992.436 551.212 984.492 544.925 L 983.426 544.099 C 991.467 533.208 991.088 514.366 991.104 501.416 z"/>
<path transform="translate(0,0)" fill="rgb(208,206,205)" d="M 746.989 583.018 C 697.417 607.67 669.396 645.259 658.238 698.863 C 657.788 701.025 657.211 701.143 655.524 701.867 L 654.219 700.518 C 653.711 690.536 662.834 667.3 666.936 657.659 C 678.739 629.918 714.093 587.764 744.613 580.232 L 746.989 583.018 z"/>
<path transform="translate(0,0)" fill="rgb(2,208,221)" d="M 1377.27 391.069 C 1389.76 390.436 1406.69 386.523 1419.41 384.278 L 1489.72 372.024 C 1506.27 369.048 1518.35 364.761 1535.37 366.148 C 1551.91 367.382 1567.63 373.851 1580.26 384.619 C 1596.38 398.482 1606.23 419.606 1607.6 440.676 C 1608.84 461.557 1601.69 482.069 1587.75 497.665 C 1577.2 509.514 1562.58 518.517 1546.95 521.672 C 1559.25 550.18 1562.75 564.878 1561.86 595.693 C 1514.22 591.944 1472.62 563.279 1456.56 517.541 C 1455.48 515.196 1455.85 515.944 1453.97 513.987 L 1452.34 514.237 L 1451.29 516.371 C 1445.54 517.23 1387.57 512.509 1377.11 511.742 C 1373.94 511.975 1374.1 512.298 1371.24 511.451 C 1361.95 510.623 1338.01 508.211 1329.56 509.192 L 1326.62 507.953 C 1325.28 473.432 1328.03 433.37 1325.85 399.871 L 1327.17 397.567 L 1328.95 397.305 L 1331.11 399.159 C 1337.22 398.674 1368.84 393.505 1373.17 391.312 L 1375 389.942 C 1375.69 390.237 1376.83 390.615 1377.27 391.069 z M 1551.96 479.658 C 1563.31 464.806 1565.03 460.342 1564.61 442.658 L 1563.76 441.757 C 1560.86 445.777 1549.7 475.73 1550.91 479.419 L 1551.96 479.658 z"/>
<path transform="translate(0,0)" fill="rgb(2,208,221)" d="M 1373.17 391.312 L 1375 389.942 C 1375.69 390.237 1376.83 390.615 1377.27 391.069 L 1377.11 511.742 C 1373.94 511.975 1374.1 512.298 1371.24 511.451 C 1361.95 510.623 1338.01 508.211 1329.56 509.192 L 1326.62 507.953 C 1325.28 473.432 1328.03 433.37 1325.85 399.871 L 1327.17 397.567 L 1328.95 397.305 L 1331.11 399.159 C 1337.22 398.674 1368.84 393.505 1373.17 391.312 z"/>
<path transform="translate(0,0)" fill="rgb(0,0,0)" d="M 1373.17 391.312 L 1375 389.942 C 1375.69 390.237 1376.83 390.615 1377.27 391.069 L 1377.11 511.742 C 1373.94 511.975 1374.1 512.298 1371.24 511.451 C 1371.72 510.975 1372.21 510.499 1372.69 510.023 C 1373.63 479.677 1372.64 418.475 1373.17 391.312 z"/>
<path transform="translate(0,0)" fill="rgb(0,0,0)" d="M 1325.85 399.871 L 1327.17 397.567 L 1328.95 397.305 L 1331.11 399.159 C 1326.77 409.776 1333.22 489.647 1329.56 509.192 L 1326.62 507.953 C 1325.28 473.432 1328.03 433.37 1325.85 399.871 z"/>
<path transform="translate(0,0)" fill="rgb(0,0,0)" d="M 1456.56 517.541 C 1469.1 518.275 1481.63 519.16 1494.15 520.195 C 1511.86 521.795 1529.53 526.694 1546.95 521.672 C 1559.25 550.18 1562.75 564.878 1561.86 595.693 C 1514.22 591.944 1472.62 563.279 1456.56 517.541 z"/>
<path transform="translate(0,0)" fill="rgb(16,33,34)" d="M 1525.85 372.455 C 1564.6 369.965 1598.07 399.266 1600.73 438.003 C 1603.39 476.74 1574.23 510.338 1535.51 513.165 C 1496.54 516.008 1462.69 486.634 1460.02 447.659 C 1457.34 408.684 1486.86 374.961 1525.85 372.455 z M 1551.96 479.658 C 1563.31 464.806 1565.03 460.342 1564.61 442.658 L 1563.76 441.757 C 1560.86 445.777 1549.7 475.73 1550.91 479.419 L 1551.96 479.658 z"/>
<path transform="translate(0,0)" fill="rgb(2,208,221)" d="M 1527.51 376.498 C 1564.1 374.908 1595.07 403.249 1596.73 439.84 C 1598.38 476.43 1570.09 507.448 1533.5 509.165 C 1496.83 510.885 1465.72 482.513 1464.06 445.834 C 1462.4 409.154 1490.83 378.092 1527.51 376.498 z M 1551.96 479.658 C 1563.31 464.806 1565.03 460.342 1564.61 442.658 L 1563.76 441.757 C 1560.86 445.777 1549.7 475.73 1550.91 479.419 L 1551.96 479.658 z"/>
<path transform="translate(0,0)" fill="rgb(0,0,0)" d="M 1524.35 384.467 C 1556.37 381.151 1585.09 404.261 1588.7 436.255 C 1592.31 468.25 1569.47 497.178 1537.51 501.084 C 1505.13 505.04 1475.74 481.831 1472.08 449.416 C 1468.42 417.002 1491.9 387.826 1524.35 384.467 z M 1551.96 479.658 C 1563.31 464.806 1565.03 460.342 1564.61 442.658 L 1563.76 441.757 C 1560.86 445.777 1549.7 475.73 1550.91 479.419 L 1551.96 479.658 z"/>
<path transform="translate(0,0)" fill="rgb(254,143,164)" d="M 799.166 820.219 C 803.988 823.098 815.546 830.564 819.896 832.072 C 830.556 835.769 842.492 839.304 853.35 842.654 L 918.899 862.864 C 930.963 866.581 987.605 885.653 996.551 886.063 C 997.608 886.85 999.007 887.65 999.575 888.627 C 1002.18 888.048 1094.57 916.504 1104.11 920.197 C 1104.1 954.435 1089.13 999.08 1071.61 1028.41 L 1068.73 1031.64 C 1063.38 1042.47 1034.45 1082.01 1022.69 1081.41 C 1022.48 1080.07 1022.47 1076.46 1022.43 1074.93 C 1017.7 1070.94 996.823 1060.13 989.194 1055.23 C 950.921 1030.66 905.841 996.251 860.641 987.257 C 845.449 984.235 833.471 989.249 821.788 998.16 C 821.388 989.219 824.168 973.841 825.844 964.862 C 831.872 932.587 831.658 919.089 824.792 888.071 C 822.307 888.736 822.46 888.699 819.892 888.426 L 819.018 887.096 C 820.529 884.305 820.253 885.126 823.831 883.462 C 818.35 872.88 803.888 833.044 799.166 820.219 z"/>
<path transform="translate(0,0)" fill="rgb(254,143,164)" d="M 824.792 888.071 C 840.529 884.196 857.377 891.492 870.596 899.591 C 937.358 940.499 974.138 1048.25 1068.73 1031.64 C 1063.38 1042.47 1034.45 1082.01 1022.69 1081.41 C 1022.48 1080.07 1022.47 1076.46 1022.43 1074.93 C 1017.7 1070.94 996.823 1060.13 989.194 1055.23 C 950.921 1030.66 905.841 996.251 860.641 987.257 C 845.449 984.235 833.471 989.249 821.788 998.16 C 821.388 989.219 824.168 973.841 825.844 964.862 C 831.872 932.587 831.658 919.089 824.792 888.071 z"/>
<path transform="translate(0,0)" fill="rgb(65,17,16)" d="M 823.831 883.462 C 917.847 876.401 956.451 1040.06 1057.47 1028.68 C 1061 1028.29 1068.52 1027.25 1071.61 1028.41 L 1068.73 1031.64 C 974.138 1048.25 937.358 940.499 870.596 899.591 C 857.377 891.492 840.529 884.196 824.792 888.071 C 822.307 888.736 822.46 888.699 819.892 888.426 L 819.018 887.096 C 820.529 884.305 820.253 885.126 823.831 883.462 z"/>
<path transform="translate(0,0)" fill="rgb(65,17,16)" d="M 996.551 886.063 C 997.608 886.85 999.007 887.65 999.575 888.627 C 1000.95 933.034 1028.05 960.114 1068.42 975.708 C 1073.37 977.618 1086.07 980.018 1088.17 982.348 L 1087.43 983.686 C 1084.97 984.899 1082.74 984.985 1080.1 984.225 C 1046.4 974.513 1014.08 953.686 1000.88 919.831 C 996.973 909.819 994.147 896.75 996.551 886.063 z"/>
<path transform="translate(0,0)" fill="rgb(0,0,0)" d="M 1310.19 507.079 C 1315.8 507.483 1320.99 507.876 1326.62 507.953 L 1329.56 509.192 C 1338.01 508.211 1361.95 510.623 1371.24 511.451 C 1374.1 512.298 1373.94 511.975 1377.11 511.742 C 1387.57 512.509 1445.54 517.23 1451.29 516.371 C 1467.77 552.856 1484.54 576.431 1523.8 591.495 C 1535.82 596.193 1548.56 598.791 1561.45 599.174 C 1554.38 666.931 1490.95 722.215 1422.26 713.871 C 1376.39 708.3 1335.97 686.187 1291.9 673.398 C 1292.16 641.71 1293.67 609.304 1294.21 577.429 C 1325.67 573.092 1350.08 572.845 1381.19 581.414 C 1425.54 593.703 1463.94 621.639 1489.28 660.052 C 1496.75 671.251 1499.07 677.747 1505.1 688.42 L 1506.93 688.868 L 1507.97 687.423 C 1507.2 682.399 1504.19 677.591 1501.74 673.041 C 1488.91 648.953 1471.12 627.864 1449.53 611.17 C 1402.19 574.562 1352.27 565.85 1294.34 573.471 C 1297.12 534.657 1288.71 544.13 1310.19 507.079 z"/>
<path transform="translate(0,0)" fill="rgb(238,69,65)" d="M 1245.46 502.395 C 1266.85 503.873 1288.88 505.128 1310.19 507.079 C 1288.71 544.13 1297.12 534.657 1294.34 573.471 L 1294.21 577.429 C 1293.67 609.304 1292.16 641.71 1291.9 673.398 C 1291.68 722.236 1289.3 771.868 1288.51 820.761 C 1288.22 838.615 1289.68 857.137 1275.11 870.464 C 1253.89 889.881 1236.54 879.614 1213.99 874.226 C 1203.65 871.129 1193.21 868.108 1182.99 864.617 C 1182.39 833.489 1183.61 789.397 1184.9 758.334 C 1191.58 760.971 1201.01 765.842 1207.7 769.05 C 1211.22 745.898 1214.91 722.771 1218.75 699.671 C 1219.76 690.633 1221.37 681.901 1222.93 672.955 C 1224.06 666.566 1225.07 659.973 1226.04 653.533 C 1233.05 606.879 1241.79 560.351 1247.68 513.559 C 1248.11 510.095 1246.56 505.667 1245.46 502.395 z"/>
<path transform="translate(0,0)" fill="rgb(0,0,0)" d="M 1207.7 769.05 C 1211.22 745.898 1214.91 722.771 1218.75 699.671 C 1242.77 765.069 1257.24 812.224 1213.99 874.226 C 1203.65 871.129 1193.21 868.108 1182.99 864.617 C 1182.39 833.489 1183.61 789.397 1184.9 758.334 C 1191.58 760.971 1201.01 765.842 1207.7 769.05 z"/>
<path transform="translate(0,0)" fill="rgb(254,143,164)" d="M 987.962 640.714 C 993.458 642.702 1007.82 648.435 1012.5 649.685 L 1015.42 651.168 C 1045.87 667.489 1062.06 678.714 1080.83 708.266 C 1094.62 739.092 1102.71 781.293 1100.96 815.266 L 934.07 733.774 C 917.979 725.968 878.804 704.912 863.447 700.838 C 849.782 697.326 835.376 698.013 822.107 702.81 C 809.254 707.397 803.119 712.959 793.721 722.812 C 790.763 725.913 788.345 730.997 785.536 730.753 C 791.597 696.116 812.412 682.307 834.421 660.751 L 835.848 659.337 C 835.627 658.789 835.364 657.086 835.24 656.426 L 836.304 655.653 L 840.617 656.604 C 847.276 652.249 853.616 648.476 860.482 644.444 C 862.873 647.712 865.626 650.7 868.689 653.349 C 898.892 679.343 957.345 678.763 985.455 648.509 C 988.31 645.436 988.477 644.44 987.962 640.714 z"/>
<path transform="translate(0,0)" fill="rgb(254,143,164)" d="M 987.962 640.714 C 993.458 642.702 1007.82 648.435 1012.5 649.685 C 995.879 671.805 982.482 680.596 954.261 685.521 C 922.58 691.048 866.029 674.856 840.617 656.604 C 847.276 652.249 853.616 648.476 860.482 644.444 C 862.873 647.712 865.626 650.7 868.689 653.349 C 898.892 679.343 957.345 678.763 985.455 648.509 C 988.31 645.436 988.477 644.44 987.962 640.714 z"/>
<path transform="translate(0,0)" fill="rgb(65,17,16)" d="M 1012.5 649.685 L 1015.42 651.168 C 1009.09 665.527 990.478 679.119 975.958 684.482 C 938.648 698.265 894.716 687.148 859.785 671.439 C 851.964 667.922 842.74 662.299 835.848 659.337 C 835.627 658.789 835.364 657.086 835.24 656.426 L 836.304 655.653 L 840.617 656.604 C 866.029 674.856 922.58 691.048 954.261 685.521 C 982.482 680.596 995.879 671.805 1012.5 649.685 z"/>
<path transform="translate(0,0)" fill="rgb(65,17,16)" d="M 1037.37 664.569 C 1041.65 669.182 1036.47 673.746 1034.53 679.717 C 1030.48 692.302 1029.53 705.681 1031.77 718.712 C 1036.45 744.746 1053.3 765.267 1077.54 775.6 C 1081.48 777.275 1095.26 781.377 1096.55 782.28 L 1096.54 785.445 C 1084 784.065 1070.58 778.15 1060.39 770.854 C 1042.81 758.399 1030.94 739.426 1027.43 718.165 C 1024.68 701.378 1027.2 678.573 1037.37 664.569 z"/>
<path transform="translate(0,0)" fill="rgb(2,208,221)" d="M 1016.95 378.091 C 1040.22 386.573 1055.75 381.682 1078.83 388.243 C 1106.31 396.053 1121.05 408.776 1134.85 432.932 C 1147.1 431.126 1159.13 428.113 1171.63 426.618 C 1166.37 438.273 1162.67 447.037 1158.54 459.249 C 1155.31 468.805 1151.77 482.766 1148.06 491.661 C 1143.28 483.171 1135.35 464.428 1126.76 461.677 C 1119.13 465.303 1125.14 487.062 1126.53 494.009 C 1128.16 500.497 1130.48 508.758 1131.71 515.177 C 1111.62 508.791 1098.03 503.041 1080.77 491.1 L 1072.68 490.113 C 1054.78 489.427 1033.01 487.458 1015.03 485.991 L 1015.03 453.434 C 1021.13 452.617 1028.64 451.039 1034.81 449.912 L 1039.27 449.424 C 1023.77 423.578 1019.22 407.587 1016.95 378.091 z"/>
<path transform="translate(0,0)" fill="rgb(0,0,0)" d="M 1016.95 378.091 C 1040.22 386.573 1055.75 381.682 1078.83 388.243 C 1106.31 396.053 1121.05 408.776 1134.85 432.932 L 1039.27 449.424 C 1023.77 423.578 1019.22 407.587 1016.95 378.091 z"/>
<path transform="translate(0,0)" fill="rgb(0,0,0)" d="M 1080.77 491.1 C 1093.65 491.191 1113.31 492.822 1126.53 494.009 C 1128.16 500.497 1130.48 508.758 1131.71 515.177 C 1111.62 508.791 1098.03 503.041 1080.77 491.1 z"/>
<path transform="translate(0,0)" fill="rgb(2,208,221)" d="M 1273.14 409.336 C 1276.12 402.04 1279.93 389.208 1287.89 386.702 L 1289.93 388.082 C 1292.66 394.111 1291.45 399.982 1290.78 406.556 C 1301.7 403.692 1315.25 403.033 1325.85 399.871 C 1328.03 433.37 1325.28 473.432 1326.62 507.953 C 1320.99 507.876 1315.8 507.483 1310.19 507.079 C 1288.88 505.128 1266.85 503.873 1245.46 502.395 C 1235.17 501.781 1224.89 501.001 1214.62 500.056 C 1215.39 492.336 1216.59 480.729 1208.01 476.701 C 1187.25 466.955 1212.36 455.07 1178.03 451.707 C 1180.15 443.223 1181.58 433.59 1182.8 424.925 C 1205.87 419.448 1248.62 413.367 1273.14 409.336 z"/>
<path transform="translate(0,0)" fill="rgb(238,69,65)" d="M 1273.14 409.336 C 1276.12 402.04 1279.93 389.208 1287.89 386.702 L 1289.93 388.082 C 1292.66 394.111 1291.45 399.982 1290.78 406.556 C 1285.01 407.46 1278.86 408.311 1273.14 409.336 z"/>
<path transform="translate(0,0)" fill="rgb(0,0,0)" d="M 1214.62 500.056 C 1224.89 501.001 1235.17 501.781 1245.46 502.395 C 1246.56 505.667 1248.11 510.095 1247.68 513.559 C 1241.79 560.351 1233.05 606.879 1226.04 653.533 C 1225.07 659.973 1224.06 666.566 1222.93 672.955 C 1208.21 678.39 1199.65 682.572 1186.01 690.371 C 1185.68 663.788 1186.99 635.883 1187.02 609.168 C 1187.03 600.017 1187.12 563.495 1189.06 556.491 C 1194.74 535.937 1209.16 523.94 1214.62 500.056 z"/>
<path transform="translate(0,0)" fill="rgb(0,0,0)" d="M 1720.72 748.404 C 1774.39 741.889 1834.28 761.492 1875.96 795.162 C 1920.4 830.837 1948.84 882.699 1955.05 939.343 C 1961.48 996.968 1944.41 1054.75 1907.68 1099.63 C 1868.11 1148.08 1817.58 1172.13 1756.24 1178.34 C 1729.05 1184.79 1671.54 1170.31 1646.49 1157.07 C 1635.01 1151 1639 1156.12 1632.58 1154.92 L 1631.73 1153.47 L 1633.03 1151.57 C 1632.91 1151.03 1632.8 1150.49 1632.68 1149.95 C 1624.56 1145.29 1611.93 1136.34 1605.23 1130.87 C 1560.65 1095.05 1532.24 1042.89 1526.33 986.008 C 1520.14 928.386 1537.43 870.699 1574.3 825.986 C 1610.73 781.542 1663.48 753.591 1720.72 748.404 z"/>
<path transform="translate(0,0)" fill="rgb(254,216,32)" d="M 1661.79 830.795 L 1827.91 830.815 L 1827.76 855.859 L 1827.79 860.039 L 1827.98 890.804 C 1841.53 876.176 1853.98 865.473 1874.99 864.503 C 1899.41 863.375 1918.33 885.495 1916.63 909.091 C 1913.53 951.985 1870.76 967.067 1834.51 964.835 C 1829.97 964.515 1825.44 964.117 1820.91 963.642 C 1810.09 984.528 1797.04 998.807 1774.1 1007.66 C 1770.18 1009.17 1764.45 1009.79 1761.06 1012.01 C 1759.88 1015.35 1760.04 1016.63 1759.94 1020.1 C 1750.88 1020.16 1741.66 1020.36 1732.63 1019.85 C 1732.47 1016.99 1732.27 1015.73 1731.8 1012.98 C 1728.39 1010.56 1720.06 1009.59 1715.3 1007.66 C 1691.28 997.899 1678.3 983.482 1667.55 960.872 C 1642.91 963.101 1622.41 961.127 1600.98 945.861 C 1567.93 922.315 1572.21 865.418 1617.32 861.115 C 1633.79 859.545 1648.32 868.679 1660.62 879.484 C 1661.25 870.82 1659.98 865.295 1661.94 855.959 C 1661.52 848.541 1661.8 838.422 1661.79 830.795 z"/>
<path transform="translate(0,0)" fill="rgb(254,216,32)" d="M 1661.79 830.795 L 1827.91 830.815 L 1827.76 855.859 C 1772.77 855.888 1716.84 855.355 1661.94 855.959 C 1661.52 848.541 1661.8 838.422 1661.79 830.795 z"/>
<path transform="translate(0,0)" fill="rgb(46,27,18)" d="M 1827.76 855.859 L 1827.79 860.039 L 1661.86 859.966 C 1661.91 864.059 1662.43 876.353 1661.29 879.459 L 1660.62 879.484 C 1661.25 870.82 1659.98 865.295 1661.94 855.959 C 1716.84 855.355 1772.77 855.888 1827.76 855.859 z"/>
<path transform="translate(0,0)" fill="rgb(0,0,0)" d="M 1868.84 874.127 C 1885.46 872.789 1900.51 877.553 1905.95 895.029 C 1909.16 905.508 1907.97 916.847 1902.64 926.424 C 1894.05 942.013 1880.46 949.181 1864.23 953.892 C 1849.49 956.747 1839.2 956.807 1824.25 954.73 C 1828.8 937.899 1827.97 923.506 1827.89 906.221 C 1839.49 889.984 1849.05 879.41 1868.84 874.127 z"/>
<path transform="translate(0,0)" fill="rgb(0,0,0)" d="M 1614.6 870.261 C 1636.43 869.013 1648.65 879.029 1661.81 894.512 C 1661.69 913.853 1660.55 933.309 1664.65 952.124 C 1654.89 953.233 1648.13 952.673 1638.43 951.735 C 1625.54 949.537 1615.22 945.733 1605.11 937.265 C 1580.91 916.984 1580.23 879.572 1614.6 870.261 z"/>
<path transform="translate(0,0)" fill="rgb(208,206,205)" d="M 1682.79 875.521 C 1687.96 873.555 1693.78 874.566 1697.99 878.156 C 1702.19 881.746 1704.09 887.343 1702.96 892.752 C 1701.82 898.161 1697.83 902.519 1692.54 904.116 C 1684.74 906.469 1676.49 902.228 1673.86 894.522 C 1671.23 886.817 1675.18 878.416 1682.79 875.521 z"/>
<path transform="translate(0,0)" fill="rgb(208,206,205)" d="M 1684.81 918.458 L 1689.02 919.883 C 1694.37 924.718 1691.61 937.838 1696.45 948.411 L 1697.27 950.166 L 1695.8 950.733 C 1693.53 948.598 1692.93 948.486 1690.13 947.299 L 1689.28 946.943 C 1684.15 952.588 1689.89 948.326 1686.46 953.306 C 1682.83 949.991 1681.55 935.005 1681.22 929.769 C 1680.8 922.893 1681.04 922.642 1684.81 918.458 z"/>
<path transform="translate(0,0)" fill="rgb(208,206,205)" d="M 1704.03 961.821 C 1706.43 963.759 1709.07 967.252 1709.53 970.56 C 1708.42 975.078 1708.9 973.582 1705.22 977.307 C 1700.95 975.501 1700.15 975.062 1699.27 970.718 C 1701.17 965.83 1703.55 965.753 1704.03 961.821 z"/>
<path transform="translate(0,0)" fill="rgb(254,216,32)" d="M 1732.63 1019.85 C 1741.66 1020.36 1750.88 1020.16 1759.94 1020.1 L 1760.01 1024.14 C 1759.93 1029.33 1759.96 1034.76 1759.87 1039.91 C 1758.82 1106.03 1825.13 1056.22 1831.56 1118.97 C 1805.38 1119.17 1697.35 1119.13 1663.62 1119.03 C 1663.12 1118.56 1662.62 1118.09 1662.11 1117.62 C 1662.01 1095.34 1673.9 1086.22 1694.62 1082.01 C 1721.77 1076.49 1731.55 1071.26 1732.77 1041.75 C 1732.97 1037.43 1732.86 1033.09 1732.46 1028.78 C 1731.17 1026.01 1732.13 1023.04 1732.63 1019.85 z"/>
<path transform="translate(0,0)" fill="rgb(46,27,18)" d="M 1732.63 1019.85 C 1741.66 1020.36 1750.88 1020.16 1759.94 1020.1 L 1760.01 1024.14 C 1752.67 1023.98 1741.07 1023.24 1734.21 1024.69 C 1732.21 1026.73 1733.02 1025.54 1732.46 1028.78 C 1731.17 1026.01 1732.13 1023.04 1732.63 1019.85 z"/>
<path transform="translate(0,0)" fill="rgb(208,206,205)" d="M 1853.49 1017.51 C 1862.25 1016.02 1870.62 1021.69 1872.49 1030.36 C 1874.37 1039.04 1869.08 1047.66 1860.49 1049.92 C 1854.59 1051.47 1848.31 1049.65 1844.14 1045.19 C 1839.98 1040.73 1838.6 1034.34 1840.55 1028.56 C 1842.51 1022.78 1847.48 1018.53 1853.49 1017.51 z"/>
<path transform="translate(0,0)" fill="rgb(208,206,205)" d="M 1775.64 787.523 C 1780.05 786.058 1784.81 788.435 1786.29 792.839 C 1787.78 797.242 1785.42 802.016 1781.02 803.517 C 1776.6 805.026 1771.79 802.653 1770.3 798.223 C 1768.81 793.794 1771.2 788.996 1775.64 787.523 z"/>
<path transform="translate(0,0)" fill="rgb(208,206,205)" d="M 1605.24 975.509 C 1609.09 975.005 1612.69 977.52 1613.53 981.306 C 1614.38 985.092 1612.2 988.899 1608.5 990.082 C 1605.8 990.947 1602.84 990.211 1600.85 988.18 C 1598.87 986.148 1598.2 983.17 1599.13 980.488 C 1600.06 977.805 1602.43 975.877 1605.24 975.509 z"/>
<path transform="translate(0,0)" fill="rgb(208,206,205)" d="M 1651.7 1017.5 C 1654.32 1016.75 1657.05 1018.26 1657.82 1020.87 C 1658.58 1023.48 1657.1 1026.23 1654.5 1027.02 C 1651.86 1027.82 1649.08 1026.31 1648.3 1023.67 C 1647.52 1021.02 1649.05 1018.25 1651.7 1017.5 z"/>
<path transform="translate(0,0)" fill="rgb(254,216,32)" d="M 644.247 232.825 C 672.378 232.438 695.56 254.804 696.181 282.931 C 696.802 311.058 674.629 334.425 646.508 335.28 C 618.055 336.145 594.351 313.652 593.722 285.193 C 593.094 256.733 615.783 233.217 644.247 232.825 z"/>
<path transform="translate(0,0)" fill="rgb(46,27,18)" d="M 644.101 254.644 L 646.319 256.118 C 648.251 261.197 647.435 279.041 647.329 285.525 C 653.346 285.465 671.551 284.45 675.548 287.856 C 670.964 291.075 653.723 290.08 647.354 289.989 C 647.379 300.186 647.586 310.667 646.888 320.817 C 644.924 320.221 645.435 320.364 643.663 319.217 C 642.054 313.101 642.801 297.104 642.94 289.997 C 638.16 290.054 617.309 291.053 614.506 287.676 C 619.225 284.549 636.527 285.359 642.901 285.408 C 642.834 278.169 642.041 260.736 644.101 254.644 z"/>
<path transform="translate(0,0)" fill="rgb(254,216,32)" d="M 1293.82 1041.76 C 1322.05 1038.95 1347.18 1059.61 1349.87 1087.85 C 1352.57 1116.09 1331.79 1141.13 1303.54 1143.7 C 1275.47 1146.25 1250.61 1125.63 1247.94 1097.57 C 1245.27 1069.51 1265.77 1044.56 1293.82 1041.76 z"/>
<path transform="translate(0,0)" fill="rgb(46,27,18)" d="M 1295.86 1094.32 C 1297.98 1086.73 1294.75 1069.08 1298.81 1064.19 L 1300.37 1064.82 C 1302.26 1069.6 1300.4 1086.96 1301.54 1094 C 1301.85 1095.49 1302.28 1096.97 1302.34 1098.44 C 1298.93 1103.06 1303.95 1123.47 1299.1 1128.74 L 1297.55 1128.29 C 1295.43 1122.92 1297.61 1106.61 1296.06 1098.73 L 1295.86 1094.32 z"/>
<path transform="translate(0,0)" fill="rgb(46,27,18)" d="M 1296.06 1098.73 C 1287.05 1098.98 1277.34 1099.89 1268.84 1097.21 L 1268.3 1096 C 1274 1092.77 1288.69 1094.05 1295.86 1094.32 L 1296.06 1098.73 z"/>
<path transform="translate(0,0)" fill="rgb(46,27,18)" d="M 1301.54 1094 C 1307.16 1094 1327.75 1092.89 1331.46 1095.79 C 1328.41 1101.01 1308.77 1099.01 1302.34 1098.44 C 1302.28 1096.97 1301.85 1095.49 1301.54 1094 z"/>
<path transform="translate(0,0)" fill="rgb(254,216,32)" d="M 1883.37 1326.32 C 1909.39 1320.97 1934.85 1337.63 1940.38 1363.61 C 1945.91 1389.6 1929.44 1415.17 1903.49 1420.89 C 1877.28 1426.67 1851.39 1409.99 1845.8 1383.74 C 1840.21 1357.49 1857.08 1331.71 1883.37 1326.32 z"/>
<path transform="translate(0,0)" fill="rgb(46,27,18)" d="M 1891.54 1346.22 C 1892.98 1346.75 1893.15 1346.96 1894.47 1347.78 C 1896.03 1353.63 1895.41 1368.5 1895.34 1375.01 C 1901.47 1374.89 1917.97 1374.03 1922.36 1377.09 C 1918.01 1380.26 1901.42 1379.3 1895.3 1379.18 C 1895.33 1388.37 1895.67 1399.22 1894.75 1408.23 C 1894.02 1408.05 1892.72 1407.42 1891.98 1407.09 C 1890.09 1402.25 1890.94 1384.92 1891.06 1379.22 C 1885.21 1379.32 1868.31 1380.27 1864.35 1377.09 C 1868.31 1374.04 1885.18 1374.93 1891.04 1375.01 C 1891.01 1366.03 1890.66 1355 1891.54 1346.22 z"/>
<path transform="translate(0,0)" fill="rgb(0,0,0)" d="M 1393.55 807.581 C 1396.5 810.043 1402.3 828.887 1403.98 833.822 L 1430.69 821.376 L 1418.19 848.03 C 1427.14 850.979 1436.5 854.59 1445.4 857.848 C 1436.24 861.709 1427.52 864.683 1418.13 867.815 C 1422.35 876.529 1426.41 885.318 1430.31 894.176 C 1421.13 890.215 1412.9 886.196 1403.96 881.788 C 1401.4 890.101 1397.55 900.03 1394.58 908.352 C 1391.18 904.66 1386.11 887.536 1384.18 881.724 C 1376.51 886.099 1365.92 890.605 1357.72 894.36 C 1361.29 885.723 1366.07 876.249 1370.12 867.73 C 1360.11 864.506 1352.64 861.76 1342.9 857.895 C 1351.93 854.211 1360.8 851.192 1370 848.008 L 1357.58 821.543 C 1366.71 825.54 1375.12 829.613 1384.04 833.987 L 1393.55 807.581 z"/>
<path transform="translate(0,0)" fill="rgb(0,0,0)" d="M 162.204 560.662 C 164.949 565.386 170.336 581.849 172.386 587.759 C 180.917 583.364 190.517 579.11 199.273 575.023 C 194.936 583.36 190.535 593.258 186.47 601.844 C 195.426 604.948 204.573 607.934 213.224 611.775 C 205.411 615.304 194.911 618.799 186.686 621.787 L 198.694 648.076 C 189.882 644.042 181.114 639.912 172.39 635.689 L 162.773 662.382 C 159.879 658.646 154.393 641.227 152.56 635.81 C 144.067 640.154 134.307 644.418 125.578 648.458 C 129.775 640.583 134.405 629.947 138.285 621.7 L 110.901 611.85 C 119.788 608.017 129.209 604.942 138.412 601.944 C 134.184 593.084 130.014 584.196 125.903 575.281 C 134.824 579.291 143.671 583.464 152.439 587.797 C 155.574 578.754 158.945 569.672 162.204 560.662 z"/>
<path transform="translate(0,0)" fill="rgb(0,0,0)" d="M 1044.29 172.556 C 1047.4 175.367 1053.09 193.493 1054.85 198.529 L 1081.22 186.417 C 1077.32 195.329 1073.2 204.147 1068.88 212.865 C 1077.97 215.973 1086.99 219.284 1095.93 222.796 C 1086.19 226.823 1079 229.448 1068.98 232.683 L 1081.47 259.455 C 1072.53 255.325 1063.64 251.09 1054.8 246.751 C 1053.04 252.07 1047.47 269.93 1044.41 273.325 C 1040.99 264.156 1038.04 255.941 1035.09 246.564 C 1027.04 251.102 1017.03 255.386 1008.52 259.282 C 1012.41 250.337 1016.75 241.53 1020.98 232.734 C 1011.54 229.779 1002.79 226.347 993.575 222.805 C 1002.56 219.268 1011.65 215.989 1020.83 212.974 C 1016.53 204.336 1012.62 195.422 1008.65 186.617 C 1017.23 190.236 1026.58 194.908 1035.07 198.923 C 1037.44 190.911 1041.44 180.607 1044.29 172.556 z"/>
<path transform="translate(0,0)" fill="rgb(46,27,18)" d="M 1443.01 1006.54 C 1456.89 1003.05 1470.96 1011.49 1474.41 1025.37 C 1477.87 1039.26 1469.39 1053.31 1455.5 1056.73 C 1441.66 1060.14 1427.66 1051.7 1424.22 1037.86 C 1420.78 1024.03 1429.18 1010.01 1443.01 1006.54 z M 1453.51 1052.04 C 1460.96 1050.51 1466.99 1045.04 1469.24 1037.77 C 1471.5 1030.5 1469.62 1022.58 1464.33 1017.1 C 1459.05 1011.62 1451.21 1009.45 1443.86 1011.44 C 1432.97 1014.38 1426.38 1025.44 1428.99 1036.42 C 1431.6 1047.39 1442.45 1054.31 1453.51 1052.04 z"/>
<path transform="translate(0,0)" fill="rgb(46,27,18)" d="M 356.069 328.503 C 369.834 324.974 383.866 333.218 387.485 346.96 C 391.104 360.702 382.953 374.788 369.235 378.497 C 355.39 382.242 341.142 373.997 337.49 360.127 C 333.837 346.257 342.175 332.064 356.069 328.503 z M 368.484 373.498 C 379.462 370.207 385.725 358.673 382.508 347.674 C 379.291 336.674 367.799 330.333 356.778 333.476 C 345.652 336.649 339.238 348.275 342.485 359.379 C 345.733 370.484 357.401 376.82 368.484 373.498 z"/>
<path transform="translate(0,0)" fill="rgb(46,27,18)" d="M 1235.77 267.409 C 1249.64 264.245 1263.46 272.889 1266.69 286.745 C 1269.91 300.602 1261.33 314.458 1247.48 317.744 C 1233.56 321.05 1219.59 312.401 1216.35 298.458 C 1213.11 284.515 1221.81 270.592 1235.77 267.409 z M 1247.86 312.482 C 1258.76 309.014 1264.84 297.433 1261.52 286.493 C 1258.2 275.552 1246.7 269.315 1235.71 272.495 C 1228.48 274.59 1222.93 280.415 1221.19 287.743 C 1219.45 295.071 1221.79 302.767 1227.31 307.889 C 1232.83 313.011 1240.68 314.765 1247.86 312.482 z"/>
<path transform="translate(0,0)" fill="rgb(46,27,18)" d="M 704.943 910.454 C 714.117 908.924 723.405 912.443 729.262 919.667 C 735.12 926.891 736.643 936.706 733.25 945.365 C 729.857 954.025 722.072 960.193 712.866 961.515 C 698.854 963.528 685.831 953.89 683.66 939.902 C 681.49 925.913 690.98 912.782 704.943 910.454 z M 688.197 936 C 688.208 942.244 691.008 948.156 695.832 952.121 C 700.655 956.085 706.998 957.687 713.126 956.489 C 724.488 954.266 731.884 943.235 729.623 931.88 C 727.362 920.524 716.306 913.167 704.958 915.466 C 695.193 917.444 688.18 926.036 688.197 936 z"/>
<path transform="translate(0,0)" fill="rgb(46,27,18)" d="M 1688.44 611.541 C 1702.14 607.729 1716.35 615.708 1720.22 629.391 C 1724.1 643.075 1716.18 657.317 1702.52 661.254 C 1688.76 665.218 1674.41 657.242 1670.51 643.469 C 1666.61 629.696 1674.65 615.378 1688.44 611.541 z M 1701.02 656.498 C 1708.33 654.445 1713.94 648.592 1715.69 641.21 C 1717.44 633.827 1715.05 626.076 1709.45 620.964 C 1703.84 615.851 1695.9 614.18 1688.71 616.6 C 1677.98 620.213 1672.08 631.726 1675.42 642.55 C 1678.76 653.374 1690.12 659.562 1701.02 656.498 z"/>
<path transform="translate(0,0)" fill="rgb(46,27,18)" d="M 1757.83 1449.44 C 1771.62 1446.5 1785.22 1455.15 1788.4 1468.88 C 1791.58 1482.61 1783.16 1496.36 1769.48 1499.77 C 1760.43 1502.03 1750.86 1499.23 1744.45 1492.44 C 1738.04 1485.65 1735.79 1475.94 1738.57 1467.03 C 1741.34 1458.12 1748.71 1451.39 1757.83 1449.44 z M 1742.34 1475 C 1742.41 1481.25 1745.27 1487.15 1750.15 1491.07 C 1755.02 1494.99 1761.39 1496.52 1767.51 1495.24 C 1774.94 1493.69 1780.94 1488.24 1783.2 1481 C 1785.45 1473.76 1783.61 1465.87 1778.39 1460.37 C 1773.16 1454.88 1765.37 1452.65 1758.03 1454.54 C 1748.72 1456.94 1742.24 1465.38 1742.34 1475 z"/>
<path transform="translate(0,0)" fill="rgb(46,27,18)" d="M 140.949 1522.45 C 155.024 1521.1 167.568 1531.32 169.088 1545.38 C 170.609 1559.44 160.542 1572.11 146.504 1573.8 C 137.269 1574.91 128.149 1570.97 122.629 1563.49 C 117.108 1556 116.04 1546.12 119.832 1537.63 C 123.624 1529.14 131.69 1523.34 140.949 1522.45 z M 148.303 1568.47 C 159.364 1565.86 166.317 1554.9 163.964 1543.78 C 161.611 1532.66 150.813 1525.46 139.643 1527.55 C 132.183 1528.95 126.066 1534.28 123.659 1541.48 C 121.251 1548.68 122.931 1556.61 128.048 1562.22 C 133.165 1567.82 140.917 1570.22 148.303 1568.47 z"/>
<path transform="translate(0,0)" fill="rgb(0,0,0)" d="M 247.941 728.258 C 262.556 728.86 274.704 738.854 269.034 755.029 C 265.679 764.601 257.47 765.896 249.118 767.972 C 247.57 768.357 247.098 771.011 246.488 772.589 C 246.453 773.613 245.954 775.044 245.661 776.111 C 244.097 776.443 244.758 776.604 243.627 775.935 C 242.136 771.114 242.564 772.69 243.844 767.149 C 226.004 755.144 226.113 734.168 247.941 728.258 z"/>
<path transform="translate(0,0)" fill="rgb(46,27,18)" d="M 1782.33 336.536 C 1786.97 334.959 1792.09 336.012 1795.74 339.288 C 1799.38 342.565 1800.96 347.553 1799.88 352.331 C 1798.8 357.108 1795.22 360.929 1790.53 362.32 C 1783.46 364.412 1776.02 360.467 1773.79 353.446 C 1771.56 346.424 1775.35 338.907 1782.33 336.536 z M 1789.53 357.406 C 1792.49 356.335 1794.62 353.734 1795.1 350.624 C 1795.58 347.515 1794.32 344.393 1791.82 342.485 C 1789.31 340.577 1785.97 340.188 1783.1 341.47 C 1778.87 343.356 1776.9 348.247 1778.63 352.538 C 1780.36 356.829 1785.18 358.98 1789.53 357.406 z"/>
<path transform="translate(0,0)" fill="rgb(46,27,18)" d="M 456.909 352.506 C 464.238 352.266 470.422 357.91 470.852 365.23 C 471.281 372.55 465.799 378.878 458.493 379.497 C 453.595 379.912 448.858 377.637 446.121 373.555 C 443.383 369.473 443.075 364.228 445.317 359.854 C 447.558 355.48 451.997 352.666 456.909 352.506 z M 458.532 374.5 C 463.175 373.841 466.424 369.571 465.823 364.92 C 465.221 360.269 460.991 356.966 456.333 357.51 C 453.268 357.868 450.633 359.847 449.434 362.69 C 448.235 365.534 448.657 368.802 450.541 371.247 C 452.424 373.692 455.476 374.934 458.532 374.5 z"/>
<path transform="translate(0,0)" fill="rgb(46,27,18)" d="M 1391.13 973.486 C 1398.14 971.909 1405.15 976.087 1407.1 982.998 C 1409.05 989.909 1405.25 997.136 1398.45 999.45 C 1393.72 1001.06 1388.49 999.928 1384.84 996.504 C 1381.2 993.081 1379.75 987.926 1381.07 983.105 C 1382.38 978.284 1386.25 974.583 1391.13 973.486 z M 1397.64 994.454 C 1401.82 992.575 1403.79 987.742 1402.1 983.48 C 1400.42 979.218 1395.68 977.035 1391.34 978.524 C 1388.36 979.549 1386.18 982.132 1385.67 985.248 C 1385.16 988.363 1386.4 991.507 1388.9 993.431 C 1391.41 995.355 1394.76 995.748 1397.64 994.454 z"/>
<path transform="translate(0,0)" fill="rgb(46,27,18)" d="M 818.778 224.471 C 826.023 222.997 833.107 227.623 834.671 234.849 C 836.235 242.074 831.7 249.215 824.494 250.87 C 819.752 251.96 814.79 250.414 811.505 246.824 C 808.221 243.234 807.121 238.154 808.627 233.527 C 810.132 228.9 814.01 225.441 818.778 224.471 z M 823.504 246.169 C 826.548 245.465 828.972 243.168 829.837 240.165 C 830.703 237.163 829.875 233.928 827.673 231.711 C 825.471 229.494 822.241 228.644 819.233 229.49 C 814.73 230.756 812.062 235.385 813.222 239.916 C 814.382 244.447 818.947 247.223 823.504 246.169 z"/>
<path transform="translate(0,0)" fill="rgb(46,27,18)" d="M 1128.77 316.543 C 1133.37 314.83 1138.53 315.747 1142.25 318.936 C 1145.98 322.125 1147.68 327.085 1146.69 331.888 C 1145.71 336.692 1142.19 340.582 1137.51 342.047 C 1130.54 344.231 1123.1 340.464 1120.73 333.551 C 1118.36 326.638 1121.92 319.096 1128.77 316.543 z M 1136.54 337.287 C 1139.52 336.163 1141.64 333.481 1142.04 330.317 C 1142.45 327.154 1141.07 324.026 1138.46 322.189 C 1135.86 320.352 1132.45 320.105 1129.6 321.549 C 1125.53 323.619 1123.78 328.515 1125.62 332.701 C 1127.47 336.886 1132.26 338.9 1136.54 337.287 z"/>
<path transform="translate(0,0)" fill="rgb(46,27,18)" d="M 1647.97 584.592 C 1652.5 582.728 1657.69 583.477 1661.51 586.547 C 1665.33 589.616 1667.19 594.521 1666.34 599.35 C 1665.5 604.18 1662.1 608.17 1657.47 609.767 C 1650.59 612.14 1643.06 608.608 1640.49 601.795 C 1637.92 594.983 1641.23 587.36 1647.97 584.592 z M 1654.5 605.458 C 1657.59 604.966 1660.18 602.834 1661.25 599.889 C 1662.32 596.944 1661.71 593.65 1659.65 591.285 C 1657.6 588.919 1654.42 587.856 1651.36 588.507 C 1646.78 589.478 1643.82 593.917 1644.67 598.514 C 1645.52 603.111 1649.88 606.191 1654.5 605.458 z"/>
<path transform="translate(0,0)" fill="rgb(46,27,18)" d="M 729.764 871.459 C 735.325 869.949 741.065 873.199 742.632 878.745 C 744.198 884.29 741.007 890.063 735.477 891.686 C 731.85 892.75 727.931 891.785 725.213 889.157 C 722.495 886.53 721.398 882.645 722.339 878.984 C 723.281 875.323 726.116 872.45 729.764 871.459 z M 735.219 886.485 C 737.882 885.052 738.923 881.762 737.568 879.058 C 736.213 876.355 732.954 875.219 730.212 876.496 C 728.367 877.355 727.135 879.149 726.995 881.179 C 726.856 883.21 727.831 885.156 729.541 886.259 C 731.252 887.363 733.427 887.449 735.219 886.485 z"/>
<path transform="translate(0,0)" fill="rgb(46,27,18)" d="M 1738.48 1359.44 C 1744.15 1358.72 1749.36 1362.67 1750.19 1368.33 C 1751.01 1373.99 1747.16 1379.27 1741.51 1380.2 C 1737.77 1380.82 1733.98 1379.37 1731.61 1376.41 C 1729.24 1373.44 1728.65 1369.43 1730.08 1365.91 C 1731.5 1362.4 1734.71 1359.92 1738.48 1359.44 z M 1742.47 1374.75 C 1745.1 1373.4 1746.23 1370.23 1745.04 1367.53 C 1743.86 1364.82 1740.77 1363.5 1737.99 1364.51 C 1736.04 1365.23 1734.64 1366.97 1734.37 1369.03 C 1734.1 1371.1 1734.99 1373.14 1736.69 1374.34 C 1738.39 1375.54 1740.62 1375.7 1742.47 1374.75 z"/>
<path transform="translate(0,0)" fill="rgb(0,0,0)" d="M 1496.6 1309.17 C 1500.41 1310.23 1506.23 1312.17 1508.17 1315.68 C 1508.36 1319.75 1504.69 1325.76 1503.04 1329.97 C 1502.71 1330.2 1500.86 1330.83 1500.41 1331 L 1499.27 1329.46 C 1499.74 1324.76 1501.41 1321.46 1503.17 1317.07 C 1497.72 1314.58 1495.77 1315.02 1496.6 1309.17 z"/>
<path transform="translate(0,0)" fill="rgb(0,0,0)" d="M 570.684 843.453 C 572.125 843.883 572.693 844.262 574.042 844.935 C 577.452 849.938 578.386 853.531 578.598 859.589 C 577.004 859.218 576.624 858.948 575.118 858.286 C 572.221 853.726 570.17 848.933 570.684 843.453 z"/>
<path transform="translate(0,0)" fill="rgb(0,0,0)" d="M 489.646 799.983 C 492.42 799.872 491.481 799.7 493.96 800.747 L 493.767 802.389 C 490.099 805.485 486.719 806.519 482.282 808.363 C 480.025 808.586 481.097 808.796 479.073 807.704 L 479.492 805.873 C 483.337 802.267 484.621 802.066 489.646 799.983 z"/>
<path transform="translate(0,0)" fill="rgb(0,0,0)" d="M 559.162 824.44 C 565.641 826.353 569.88 832.94 569.492 839.59 C 564.528 837.761 558.84 829.658 559.162 824.44 z"/>
<path transform="translate(0,0)" fill="rgb(0,0,0)" d="M 1496.33 1336.16 C 1498.72 1337.2 1498.09 1336.65 1499.54 1338.65 C 1499.78 1343.4 1497.45 1348.22 1495.75 1352.84 C 1493.17 1351.82 1494.21 1352.61 1492.54 1350.38 C 1492.41 1345.61 1494.66 1340.79 1496.33 1336.16 z"/>
<path transform="translate(0,0)" fill="rgb(0,0,0)" d="M 521.954 800.956 C 527.911 800.411 536.369 802.571 537.86 809.105 C 532.819 809.097 523.489 806.3 521.954 800.956 z"/>
<path transform="translate(0,0)" fill="rgb(0,0,0)" d="M 442.581 870.139 L 445.451 871.045 C 447.231 875.278 445.123 880.952 443.951 885.752 L 441.461 885.792 L 440.172 884.497 C 439.586 879.693 441.322 874.945 442.581 870.139 z"/>
<path transform="translate(0,0)" fill="rgb(0,0,0)" d="M 237.085 803.729 C 237.698 804.107 238.921 805.197 239.526 805.702 C 240.198 811.353 238.828 815.628 237.372 821.138 C 235.005 820.043 236.015 820.803 234.324 818.885 C 233.53 813.118 234.625 808.969 237.085 803.729 z"/>
<path transform="translate(0,0)" fill="rgb(0,0,0)" d="M 578.372 864.49 C 583.571 868.525 584.4 876.392 581.682 882.147 C 577.572 878.663 575.955 868.994 578.372 864.49 z"/>
<path transform="translate(0,0)" fill="rgb(0,0,0)" d="M 1515.13 1320.65 C 1520.98 1322.51 1527.95 1326.53 1527.59 1333.27 C 1521.85 1330.95 1515.33 1327.25 1515.13 1320.65 z"/>
<path transform="translate(0,0)" fill="rgb(0,0,0)" fill-opacity="0.988235" d="M 230.739 848.185 C 232.769 848.91 232.242 848.735 234.047 850.027 C 235.324 855.609 234.114 859.97 233.093 865.669 C 230.498 864.601 231.564 865.399 229.826 863.126 C 228.902 857.36 229.834 853.927 230.739 848.185 z"/>
<path transform="translate(0,0)" fill="rgb(0,0,0)" d="M 1591.15 1186.61 C 1593.49 1187.83 1592.71 1186.86 1593.68 1189.44 C 1591.9 1193.4 1587.97 1196.43 1584.69 1199.5 L 1582.22 1198.7 L 1581.82 1197.06 C 1583.89 1192.93 1587.72 1189.87 1591.15 1186.61 z"/>
<path transform="translate(0,0)" fill="rgb(0,0,0)" fill-opacity="0.988235" d="M 458.474 827.495 C 460.68 828.967 459.809 828.061 460.842 830.487 C 460.015 835.327 457.425 839.528 455.148 843.966 C 452.778 842.546 453.607 843.589 452.397 840.984 C 453.078 835.762 455.778 832.119 458.474 827.495 z"/>
<path transform="translate(0,0)" fill="rgb(0,0,0)" d="M 1523.59 1274.66 C 1525.48 1275.98 1524.89 1275.34 1525.88 1277.5 C 1525.1 1282.36 1522.23 1286.28 1519.67 1290.61 C 1517.1 1289.33 1518.02 1290.29 1516.91 1287.55 C 1518 1282.66 1520.86 1278.96 1523.59 1274.66 z"/>
<path transform="translate(0,0)" fill="rgb(0,0,0)" d="M 499.888 798.281 C 506.692 797.664 514.995 795.03 516.321 803.025 C 512.156 802.716 503.876 802.826 500.646 801.209 L 499.888 798.281 z"/>
<path transform="translate(0,0)" fill="rgb(0,0,0)" fill-opacity="0.984314" d="M 449.342 848.236 L 451.845 849.655 C 453.113 853.213 449.988 860.824 448.686 864.802 L 445.984 863.911 L 445.137 862.049 C 445.277 857.119 447.461 852.893 449.342 848.236 z"/>
<path transform="translate(0,0)" fill="rgb(0,0,0)" fill-opacity="0.988235" d="M 232.862 826.193 C 235.201 826.982 234.483 826.563 236.27 828.11 C 237.212 832.997 235.923 837.779 235.061 842.788 C 232.301 842.173 233.418 842.912 231.456 840.913 C 230.627 835.777 231.894 831.367 232.862 826.193 z"/>
<path transform="translate(0,0)" fill="rgb(0,0,0)" d="M 542.636 809.552 C 548.949 810.999 554.767 815.306 556.432 821.679 C 550.378 820.791 543.405 816.005 542.636 809.552 z"/>
<path transform="translate(0,0)" fill="rgb(0,0,0)" d="M 1577.68 1424.14 C 1576.83 1420.4 1575.64 1417.23 1576.85 1413.69 L 1578.25 1413.09 C 1582.17 1417.38 1582.38 1422.66 1581.88 1428.27 C 1577.98 1426.17 1579.13 1427.67 1577.68 1424.14 z"/>
<path transform="translate(0,0)" fill="rgb(0,0,0)" fill-opacity="0.980392" d="M 230.176 870.581 L 232.578 871.748 C 235.047 875.494 233.645 883.248 233.103 887.798 C 231.091 887.076 231.7 887.291 229.949 885.894 C 228.191 880.128 228.696 876.453 230.176 870.581 z"/>
<path transform="translate(0,0)" fill="rgb(0,0,0)" fill-opacity="0.984314" d="M 1512.61 1295.25 C 1515.28 1295.88 1514.29 1295.1 1515.79 1297.47 C 1515.3 1301.9 1512.54 1306.67 1510.54 1310.82 C 1507.79 1309.61 1508.76 1310.56 1507.43 1308.01 C 1507.88 1303.7 1510.6 1299.25 1512.61 1295.25 z"/>
<path transform="translate(0,0)" fill="rgb(0,0,0)" d="M 235.54 937.254 L 238.472 938.514 C 241.103 943.619 241.587 947.988 241.779 953.705 C 240.151 953.27 239.726 952.974 238.193 952.259 C 235.372 946.95 235.258 943.282 235.54 937.254 z"/>
<path transform="translate(0,0)" fill="rgb(0,0,0)" d="M 252.791 996.159 C 250.601 991.597 248.387 987.993 248.823 983.052 L 250.298 982.434 C 253.543 984.84 254.717 988.995 256.348 992.837 C 255.045 995.122 255.149 994.963 252.791 996.159 z"/>
<path transform="translate(0,0)" fill="rgb(0,0,0)" fill-opacity="0.984314" d="M 1475.05 1300.88 C 1481.84 1302.01 1488.45 1302.32 1490.66 1309.45 C 1484.49 1308.59 1476.32 1307.55 1475.05 1300.88 z"/>
<path transform="translate(0,0)" fill="rgb(0,0,0)" fill-opacity="0.988235" d="M 1546.95 1237.42 C 1549.33 1238.14 1548.4 1237.44 1549.77 1239.49 C 1548.92 1243.66 1545.37 1247.8 1542.79 1251.43 L 1540.41 1250.81 L 1539.6 1249.11 C 1540.66 1245.14 1544.38 1240.86 1546.95 1237.42 z"/>
<path transform="translate(0,0)" fill="rgb(0,0,0)" fill-opacity="0.988235" d="M 1560.9 1219.46 C 1563.26 1220.78 1562.46 1219.86 1563.18 1222.43 C 1561.55 1226.84 1557.92 1230.4 1554.79 1234.07 C 1552.72 1232.51 1553.37 1233.56 1552.57 1231.03 C 1554.01 1226.61 1557.74 1223.08 1560.9 1219.46 z"/>
<path transform="translate(0,0)" fill="rgb(0,0,0)" d="M 439.211 891.702 L 441.377 892.957 C 443.604 896.839 441.269 904.483 440.201 908.815 C 438.319 908.008 438.935 908.319 437.367 906.899 C 436.293 900.744 437.259 897.688 439.211 891.702 z"/>
<path transform="translate(0,0)" fill="rgb(0,0,0)" fill-opacity="0.980392" d="M 240.404 782.163 C 242.572 782.965 241.844 782.554 243.55 784.096 C 244.277 789.152 242.607 793.474 241.267 798.51 C 238.508 797.989 239.672 798.565 237.866 796.474 C 237.483 791.68 239.163 786.918 240.404 782.163 z"/>
<path transform="translate(0,0)" fill="rgb(0,0,0)" fill-opacity="0.984314" d="M 231.77 915.104 C 233.734 915.778 233.42 915.694 235.215 916.763 C 237.4 921.884 237.104 926.412 237.32 932.028 C 235.155 931.405 235.66 931.539 233.675 930.379 C 231.383 925.016 231.825 920.959 231.77 915.104 z"/>
<path transform="translate(0,0)" fill="rgb(0,0,0)" d="M 1535.21 1255.56 C 1536.85 1256.91 1536.26 1256.29 1537.13 1258.48 C 1535.76 1263.91 1533 1267.54 1529.04 1271.42 C 1527.85 1269.63 1528.21 1270.18 1527.61 1268.03 C 1529.14 1262.9 1531.96 1259.86 1535.21 1255.56 z"/>
<path transform="translate(0,0)" fill="rgb(0,0,0)" fill-opacity="0.988235" d="M 1569.18 1390.33 C 1570.74 1390.8 1571.13 1391.08 1572.59 1391.81 C 1575.76 1396.78 1577.17 1400.73 1576.65 1406.65 L 1573.87 1405.22 C 1570.78 1400.28 1569.33 1396.18 1569.18 1390.33 z"/>
<path transform="translate(0,0)" fill="rgb(0,0,0)" fill-opacity="0.972549" d="M 1531.24 1335.67 L 1534.92 1336.14 C 1539.58 1339.23 1543.2 1342.57 1544.45 1348.15 L 1541.52 1347.77 C 1536.84 1344.53 1533.05 1341.16 1531.24 1335.67 z"/>
<path transform="translate(0,0)" fill="rgb(0,0,0)" fill-opacity="0.984314" d="M 471.662 810.648 C 473.244 811.042 472.342 810.703 474.234 811.973 C 473.817 815.582 468.902 820.387 466.198 823.512 L 463.591 822.896 L 462.943 821.079 C 464.758 816.905 468.358 813.942 471.662 810.648 z"/>
<path transform="translate(0,0)" fill="rgb(0,0,0)" fill-opacity="0.980392" d="M 1547.4 1351.64 C 1552.7 1353.51 1557.77 1360.26 1557.05 1366.03 C 1551.89 1365.01 1547.04 1356.93 1547.4 1351.64 z"/>
<path transform="translate(0,0)" fill="rgb(0,0,0)" fill-opacity="0.976471" d="M 229.801 893.051 C 231.807 893.681 231.456 893.595 233.297 894.648 C 235.08 899.55 234.722 903.958 234.792 909.22 C 231.916 909.203 233.218 909.514 230.912 907.979 C 229.208 903.363 229.744 898.105 229.801 893.051 z"/>
<path transform="translate(0,0)" fill="rgb(0,0,0)" fill-opacity="0.972549" d="M 1575.7 1202.62 C 1577.71 1203.97 1576.89 1203.13 1577.84 1205.46 C 1576.15 1209.51 1572 1213.29 1568.87 1216.61 C 1566.78 1215.07 1567.51 1216.09 1566.74 1213.53 C 1568.42 1209.28 1572.38 1205.98 1575.7 1202.62 z"/>
<path transform="translate(0,0)" fill="rgb(0,0,0)" fill-opacity="0.988235" d="M 1559.43 1370.56 L 1562.7 1371.73 C 1566.35 1375.93 1568.67 1379.89 1568.64 1385.59 L 1565.59 1384.43 C 1562.41 1380.51 1559.36 1375.75 1559.43 1370.56 z"/>
<path transform="translate(0,0)" fill="rgb(0,0,0)" fill-opacity="0.980392" d="M 1607.86 1171.74 C 1609.24 1172.65 1608.88 1172.54 1609.88 1174.03 C 1608.99 1177.44 1602.6 1182.16 1599.66 1184.78 C 1597.83 1182.88 1598.33 1184.03 1597.77 1181.48 C 1600.02 1177.17 1603.92 1174.8 1607.86 1171.74 z"/>
<path transform="translate(0,0)" fill="rgb(0,0,0)" d="M 240.41 959.133 L 243.652 960.424 C 246.89 965.455 247.22 969.056 248.102 975.018 L 245.205 974.368 C 241.211 969.731 241.204 965.138 240.41 959.133 z"/>
<path transform="translate(0,0)" fill="rgb(0,0,0)" d="M 1490.25 1358.19 C 1492.65 1359.08 1491.7 1358.29 1493.35 1360.28 C 1493.74 1365.31 1492.01 1369.73 1490.59 1374.66 C 1487.9 1373.51 1488.94 1374.39 1487.36 1371.97 C 1487.11 1367.19 1488.85 1362.86 1490.25 1358.19 z"/>
<path transform="translate(0,0)" fill="rgb(0,0,0)" fill-opacity="0.980392" d="M 1624.32 1157.55 L 1626.4 1158.23 L 1627.21 1159.96 C 1625.35 1163.57 1620.88 1166.44 1617.53 1169.03 L 1615.29 1168.6 L 1614.78 1167.05 C 1616.74 1163.48 1621.1 1160.3 1624.32 1157.55 z"/>
<path transform="translate(0,0)" fill="rgb(0,0,0)" d="M 436.634 914.206 L 439.453 915.492 C 441.25 921.471 440.362 925.162 439.641 931.479 L 437.222 930.19 C 434.549 925.574 435.933 919.523 436.634 914.206 z"/>
<path transform="translate(0,0)" fill="rgb(0,0,0)" d="M 580.057 887.079 C 582.354 887.777 581.646 887.408 583.476 888.784 C 584.967 893.679 584.279 898.736 584.035 903.945 C 581.695 903.198 582.399 903.571 580.525 902.197 C 578.944 897.333 579.74 892.301 580.057 887.079 z"/>
<path transform="translate(0,0)" fill="rgb(0,0,0)" fill-opacity="0.972549" d="M 1453.52 1295.98 C 1459.99 1296.56 1466.77 1295.8 1469.66 1302.04 C 1463.51 1301.83 1454.65 1303.04 1453.52 1295.98 z"/>
<path transform="translate(0,0)" fill="rgb(0,0,0)" fill-opacity="0.976471" d="M 1431.06 1295.24 C 1437.51 1294.67 1444.76 1292.52 1447.7 1299.04 C 1442.52 1299.31 1436.64 1300.09 1431.99 1297.9 L 1431.06 1295.24 z"/>
</svg>