<svg version="1.1" xmlns="http://www.w3.org/2000/svg" style="display: block;" viewBox="0 0 2048 2048" width="2000" height="2000" preserveAspectRatio="none">
<path transform="translate(0,0)" fill="rgb(234,236,254)" d="M 917.269 531.637 C 927.061 511.442 1031.56 415.898 1052.99 411.376 C 1055.51 414.203 1048.53 445.501 1047.58 451.354 C 1043.82 474.948 1040.5 498.612 1037.64 522.332 C 1035.57 539.838 1033.72 556.987 1032.16 574.546 C 1031.06 586.986 1031.47 609.945 1029.03 621.098 C 1047.26 658.156 1037.94 687.325 1027.78 725.499 C 1036.15 742.156 1037.1 752.02 1036.52 770.864 C 1036.38 775.463 1035.86 783.737 1036.63 788.091 C 1039.63 797.06 1047.48 830.693 1047.4 839.337 C 1050.11 845.653 1052.76 851.607 1054.93 858.139 C 1059.42 856.445 1064 854.239 1068.43 856.813 C 1081.25 864.259 1100.53 884.001 1114.47 888.557 C 1123.2 804.373 1226.56 746.218 1281 691.972 C 1320.8 652.322 1346.9 605.252 1347.04 547.914 C 1347.06 541.854 1345.82 529.144 1347.32 524.245 L 1348.34 524.201 C 1355.38 529.283 1376.18 566.147 1381.05 575.069 C 1421.98 650.151 1420.94 717.724 1399.35 798.049 C 1394.76 815.106 1391.85 834.568 1386.55 851.963 C 1422.74 831.936 1483.86 828.004 1518.83 852.285 C 1523.69 855.659 1528.69 858.68 1533.53 862.125 C 1576.92 819.305 1597.29 805.101 1618.22 743.97 C 1640.98 767.936 1658.3 805.042 1665.55 836.989 C 1684.59 920.93 1647.89 1002.97 1638.47 1084.83 C 1658.8 1088.23 1677.6 1117.99 1678.57 1137.96 C 1679.38 1154.68 1673.31 1172.31 1673.36 1187.31 C 1673.39 1195.07 1692.37 1233.2 1697.16 1239.54 L 1701.25 1241.92 L 1702.56 1241.19 C 1704.25 1234.91 1701.82 1226.93 1701.57 1220.42 C 1697.82 1122.24 1794.55 1080.24 1875.12 1061.33 C 1872.06 1082.73 1861.67 1121.46 1856.67 1144 C 1845.73 1192.97 1836 1242.21 1827.49 1291.66 C 1818.31 1344.77 1810.64 1397.81 1808.41 1451.68 C 1808.16 1457.68 1807.58 1463.63 1806.55 1469.55 C 1808.78 1490.37 1817.46 1515.78 1819.2 1539.12 C 1830.32 1546.19 1834.11 1558.84 1836.79 1571.12 C 1853.76 1648.87 1814.44 1841.98 1797.53 1924.74 C 1789.17 1965.69 1781.34 2007.91 1769.52 2048 L 1605.57 2048 L 1344.26 2048 L 1115.2 2048 L 781.291 2048 L 779.981 2048 L 688.674 2048 L 538.329 2048 L 363.08 2048 C 327.146 1994.41 304.493 1921.54 322.189 1860.27 C 348.421 1774.55 327.105 1729.39 257.382 1674.78 C 210.602 1638.14 195.766 1561.31 187.645 1505.01 C 180.005 1452.04 175.435 1396.91 172.285 1343.19 C 186.766 1365.32 196.494 1383.34 215.861 1403.38 C 238.591 1426.89 268.416 1451.21 302.747 1452.08 C 329.226 1452.76 345.543 1436.1 362.92 1419.23 C 312.491 1370.29 276.137 1318.99 274.616 1245.32 C 274.312 1229.54 275.557 1213.77 278.333 1198.23 C 283.472 1170.87 304.156 1109.76 323.626 1089.39 C 294.766 1060.43 298.799 1059.33 309.828 1025.22 C 313.623 1013.48 311.32 984.135 312.902 970.263 C 313.857 961.883 310.69 934.069 317.8 925.509 C 336.465 914.204 384.379 894.822 405.271 891.959 C 411.678 891.081 450.048 912.185 454.771 917.392 C 459.084 928.486 444.528 944.21 435.18 948.079 C 425.509 952.082 411.016 945.936 401.831 942.274 C 393.887 948.336 387.514 952.013 378.965 957.064 C 378.652 978.285 378.543 990.957 382.392 1011.99 C 386.348 1007.78 388.64 1003.6 393.59 1000.88 C 397.315 1000.7 395.975 1000.57 399.7 1003.93 C 407.268 991.459 414.939 979.022 422.587 966.598 C 433.16 949.422 450.418 946.004 468.488 939.476 C 468.264 907.429 483.259 884.319 518.121 881.144 C 525.629 880.46 531.793 885.256 530.467 893.016 C 528.749 910.66 525.02 927.884 524.477 945.664 C 530.871 953.629 539.212 963.611 545.161 971.767 C 546.11 965.379 555.325 945.526 558.011 938.505 C 565.893 917.903 573.889 898.293 579.519 876.879 C 585.185 855.96 589.139 834.615 591.343 813.055 C 592.271 803.653 591.298 786.778 593.326 779.866 C 568.952 757.255 563.652 723.197 573.602 692.04 C 578.297 677.339 592.696 670.019 603.226 659.39 C 629.597 632.774 653.498 603.592 682.513 579.668 C 729.054 540.547 796.201 530.938 854.902 538.639 C 872.236 540.909 888.025 546.135 904.391 552.172 C 903.541 545.177 906.309 542.809 912.155 540.593 L 912.236 534.833 C 914.342 531.544 912.875 532.775 917.269 531.637 z M 532.329 1241.03 C 539.628 1242.08 548.571 1245.43 555.804 1247.6 C 572.653 1252.66 589.06 1256.94 606.739 1257.68 C 581.542 1236.52 552.341 1211.61 535.051 1183.45 C 531.576 1187.56 528.895 1191.12 525.733 1195.42 C 524.11 1212.34 524.554 1225.54 532.329 1241.03 z"/>
<path transform="translate(0,0)" fill="rgb(254,153,147)" d="M 917.269 531.637 C 927.061 511.442 1031.56 415.898 1052.99 411.376 C 1055.51 414.203 1048.53 445.501 1047.58 451.354 C 1043.82 474.948 1040.5 498.612 1037.64 522.332 C 1035.57 539.838 1033.72 556.987 1032.16 574.546 C 1031.06 586.986 1031.47 609.945 1029.03 621.098 C 1047.26 658.156 1037.94 687.325 1027.78 725.499 C 1036.15 742.156 1037.1 752.02 1036.52 770.864 C 1036.38 775.463 1035.86 783.737 1036.63 788.091 C 1039.63 797.06 1047.48 830.693 1047.4 839.337 C 1050.11 845.653 1052.76 851.607 1054.93 858.139 C 1055.39 859.782 1056.66 864.674 1057.21 866.003 C 1050.38 883.874 1039.97 874.863 1027.39 877.391 C 1006.11 881.667 996.891 890.412 973.196 882.309 L 970.038 880.465 C 971.261 917.384 940.875 1062.52 918.234 1086.58 C 903.087 1102.68 893.912 1099.2 876.905 1106.18 C 880.538 1110.05 884.572 1114.13 887.871 1118.24 C 885.045 1145.53 881.38 1179.14 884.282 1206.42 C 887.335 1211.7 891.195 1216.07 895.699 1220.17 C 898.363 1221.85 901.013 1223.63 903.846 1224.98 C 919.534 1267.12 931.63 1309.16 943.005 1350.86 C 962.455 1422.15 908.849 1421.71 903.913 1460.28 C 903.565 1461.65 903.304 1464.73 901.85 1465.01 C 850.259 1474.94 804.254 1506.02 772.227 1547.52 C 792.402 1576.75 798.797 1565.87 814.6 1576.6 C 838.45 1592.79 841.559 1657.61 836.207 1682.88 C 832.834 1723.92 788.78 1746.6 788.145 1780.89 C 788.676 1785.28 789.656 1791.83 789.923 1796.07 L 789.35 1797.31 C 782.814 1811.16 763.422 1836.06 754.209 1850.44 C 715.264 1911.22 679.675 1973.43 688.674 2048 L 538.329 2048 L 363.08 2048 C 327.146 1994.41 304.493 1921.54 322.189 1860.27 C 348.421 1774.55 327.105 1729.39 257.382 1674.78 C 210.602 1638.14 195.766 1561.31 187.645 1505.01 C 180.005 1452.04 175.435 1396.91 172.285 1343.19 C 186.766 1365.32 196.494 1383.34 215.861 1403.38 C 238.591 1426.89 268.416 1451.21 302.747 1452.08 C 329.226 1452.76 345.543 1436.1 362.92 1419.23 C 312.491 1370.29 276.137 1318.99 274.616 1245.32 C 274.312 1229.54 275.557 1213.77 278.333 1198.23 C 283.472 1170.87 304.156 1109.76 323.626 1089.39 C 294.766 1060.43 298.799 1059.33 309.828 1025.22 C 313.623 1013.48 311.32 984.135 312.902 970.263 C 313.857 961.883 310.69 934.069 317.8 925.509 C 336.465 914.204 384.379 894.822 405.271 891.959 C 411.678 891.081 450.048 912.185 454.771 917.392 C 459.084 928.486 444.528 944.21 435.18 948.079 C 425.509 952.082 411.016 945.936 401.831 942.274 C 393.887 948.336 387.514 952.013 378.965 957.064 C 378.652 978.285 378.543 990.957 382.392 1011.99 C 386.348 1007.78 388.64 1003.6 393.59 1000.88 C 397.315 1000.7 395.975 1000.57 399.7 1003.93 C 407.268 991.459 414.939 979.022 422.587 966.598 C 433.16 949.422 450.418 946.004 468.488 939.476 C 468.264 907.429 483.259 884.319 518.121 881.144 C 525.629 880.46 531.793 885.256 530.467 893.016 C 528.749 910.66 525.02 927.884 524.477 945.664 C 530.871 953.629 539.212 963.611 545.161 971.767 C 546.11 965.379 555.325 945.526 558.011 938.505 C 565.893 917.903 573.889 898.293 579.519 876.879 C 585.185 855.96 589.139 834.615 591.343 813.055 C 592.271 803.653 591.298 786.778 593.326 779.866 C 568.952 757.255 563.652 723.197 573.602 692.04 C 578.297 677.339 592.696 670.019 603.226 659.39 C 629.597 632.774 653.498 603.592 682.513 579.668 C 729.054 540.547 796.201 530.938 854.902 538.639 C 872.236 540.909 888.025 546.135 904.391 552.172 C 903.541 545.177 906.309 542.809 912.155 540.593 L 912.236 534.833 C 914.342 531.544 912.875 532.775 917.269 531.637 z M 532.329 1241.03 C 539.628 1242.08 548.571 1245.43 555.804 1247.6 C 572.653 1252.66 589.06 1256.94 606.739 1257.68 C 581.542 1236.52 552.341 1211.61 535.051 1183.45 C 531.576 1187.56 528.895 1191.12 525.733 1195.42 C 524.11 1212.34 524.554 1225.54 532.329 1241.03 z"/>
<path transform="translate(0,0)" fill="rgb(254,222,112)" d="M 323.626 1089.39 C 326.762 1091.94 336.236 1099.28 337.838 1102.27 C 345.159 1115.97 352.309 1130.46 359.377 1144.3 C 372.313 1169.44 385.464 1194.46 398.831 1219.37 C 406.801 1234.28 418.196 1250.21 425.768 1264.14 C 428.206 1268.63 435.375 1298.25 437.352 1305.23 C 443.751 1327.28 450.77 1349.15 458.4 1370.81 C 468.97 1400.35 480.255 1429.63 492.247 1458.62 C 497.725 1471.86 508.312 1494.86 512.494 1507.42 C 546.563 1576.91 634.31 1793.82 702.889 1817.34 C 709.524 1819.61 715.794 1819.5 722.676 1818.91 C 748.389 1818.58 770.929 1797.92 788.145 1780.89 C 788.676 1785.28 789.656 1791.83 789.923 1796.07 L 789.35 1797.31 C 782.814 1811.16 763.422 1836.06 754.209 1850.44 C 715.264 1911.22 679.675 1973.43 688.674 2048 L 538.329 2048 L 363.08 2048 C 327.146 1994.41 304.493 1921.54 322.189 1860.27 C 348.421 1774.55 327.105 1729.39 257.382 1674.78 C 210.602 1638.14 195.766 1561.31 187.645 1505.01 C 180.005 1452.04 175.435 1396.91 172.285 1343.19 C 186.766 1365.32 196.494 1383.34 215.861 1403.38 C 238.591 1426.89 268.416 1451.21 302.747 1452.08 C 329.226 1452.76 345.543 1436.1 362.92 1419.23 C 312.491 1370.29 276.137 1318.99 274.616 1245.32 C 274.312 1229.54 275.557 1213.77 278.333 1198.23 C 283.472 1170.87 304.156 1109.76 323.626 1089.39 z"/>
<path transform="translate(0,0)" fill="rgb(254,150,78)" d="M 512.494 1507.42 C 546.563 1576.91 634.31 1793.82 702.889 1817.34 C 709.524 1819.61 715.794 1819.5 722.676 1818.91 C 748.389 1818.58 770.929 1797.92 788.145 1780.89 C 788.676 1785.28 789.656 1791.83 789.923 1796.07 L 789.35 1797.31 C 782.814 1811.16 763.422 1836.06 754.209 1850.44 C 715.264 1911.22 679.675 1973.43 688.674 2048 L 538.329 2048 C 535.23 2028.29 537.768 1997.36 543.24 1979.77 C 562.429 1913.28 530.242 1891.77 487.158 1853.09 C 443.675 1814.05 433.337 1679.42 432.867 1625.25 C 451.351 1656.69 486.817 1701.69 528.404 1701.11 C 546.206 1700.86 558.763 1690.11 570.429 1677.9 C 517.962 1631.71 494.38 1576.35 512.494 1507.42 z"/>
<path transform="translate(0,0)" fill="rgb(85,84,84)" d="M 917.269 531.637 C 927.061 511.442 1031.56 415.898 1052.99 411.376 C 1055.51 414.203 1048.53 445.501 1047.58 451.354 C 1043.82 474.948 1040.5 498.612 1037.64 522.332 C 1035.57 539.838 1033.72 556.987 1032.16 574.546 C 1031.06 586.986 1031.47 609.945 1029.03 621.098 C 1047.26 658.156 1037.94 687.325 1027.78 725.499 C 1036.15 742.156 1037.1 752.02 1036.52 770.864 C 1036.38 775.463 1035.86 783.737 1036.63 788.091 C 1039.63 797.06 1047.48 830.693 1047.4 839.337 C 1050.11 845.653 1052.76 851.607 1054.93 858.139 C 1055.39 859.782 1056.66 864.674 1057.21 866.003 C 1050.38 883.874 1039.97 874.863 1027.39 877.391 C 1006.11 881.667 996.891 890.412 973.196 882.309 L 970.038 880.465 C 971.261 917.384 940.875 1062.52 918.234 1086.58 C 903.087 1102.68 893.912 1099.2 876.905 1106.18 C 858.074 1106.31 846.59 1107.7 826.788 1106.55 C 824.267 1106.03 815.91 1105.66 812.916 1105.46 C 800.715 1110.85 793.799 1110.27 780.644 1110.55 C 763.47 1108.19 740.14 1104.84 726.115 1093.63 C 713.275 1083.37 711.855 1063.58 710.236 1048.32 L 708.284 1040.32 C 706.042 1027.63 697.225 1013.77 695.28 1003.04 C 691.604 982.77 693.671 978.432 679.225 960.98 C 666.673 945.816 657.234 927.473 655.743 907.281 C 629.071 896.3 621.868 874.283 618.54 847.657 C 610.366 835.618 606.014 824.655 607.608 809.761 C 606.601 803.008 608.099 795.431 609.378 788.774 C 602.768 785.667 599.514 783.789 593.326 779.866 C 568.952 757.255 563.652 723.197 573.602 692.04 C 578.297 677.339 592.696 670.019 603.226 659.39 C 629.597 632.774 653.498 603.592 682.513 579.668 C 729.054 540.547 796.201 530.938 854.902 538.639 C 872.236 540.909 888.025 546.135 904.391 552.172 C 903.541 545.177 906.309 542.809 912.155 540.593 L 912.236 534.833 C 914.342 531.544 912.875 532.775 917.269 531.637 z"/>
<path transform="translate(0,0)" fill="rgb(254,153,147)" d="M 914.181 741.515 C 915.363 735.367 916.581 723.846 921.029 720.242 C 924.306 720.194 922.777 719.75 925.6 722.105 C 927.353 728.151 921.401 744.625 920.211 752.623 C 922.896 763.84 921.927 783.511 924.025 787.198 C 930.491 778.574 950.11 779.642 953.845 788.196 C 953.088 791.511 953.978 790.316 951.317 792.057 C 944.816 791.667 937.424 788.31 932.064 791.955 C 931.277 794.042 930.766 795.362 930.116 797.497 C 930.849 803.121 936.177 825.237 941.05 829.278 C 943.702 831.477 944.31 830.993 947.134 830.796 C 961.189 822.555 962.9 789.721 958.33 775.681 L 958.95 769.812 C 970.651 756.382 979.736 758.184 992.792 769.127 C 1016.11 788.67 1015.41 843.641 995.461 864.293 C 989.33 870.585 980.83 874.001 972.05 873.7 C 968.27 873.566 963.504 872.146 959.786 871.2 C 962.938 874.371 966.303 878.16 970.038 880.465 C 971.261 917.384 940.875 1062.52 918.234 1086.58 C 903.087 1102.68 893.912 1099.2 876.905 1106.18 C 858.074 1106.31 846.59 1107.7 826.788 1106.55 C 824.267 1106.03 815.91 1105.66 812.916 1105.46 C 800.715 1110.85 793.799 1110.27 780.644 1110.55 C 763.47 1108.19 740.14 1104.84 726.115 1093.63 C 713.275 1083.37 711.855 1063.58 710.236 1048.32 L 708.284 1040.32 C 706.042 1027.63 697.225 1013.77 695.28 1003.04 C 691.604 982.77 693.671 978.432 679.225 960.98 C 666.673 945.816 657.234 927.473 655.743 907.281 C 629.071 896.3 621.868 874.283 618.54 847.657 C 610.366 835.618 606.014 824.655 607.608 809.761 C 606.601 803.008 608.099 795.431 609.378 788.774 C 608.765 778.419 606.875 754.125 616.051 745.867 C 616.818 745.177 617.802 744.473 618.935 745.204 C 629.962 752.316 640.604 760.231 652.449 765.973 C 664.199 771.667 676.79 765.783 688.637 767.27 C 709.476 769.886 729.783 778.777 751.121 777.085 C 761.459 776.266 767.103 773.052 774.991 767.109 C 771.059 758.063 769.211 755.741 762.501 749.065 C 778.544 753.594 826.962 765.562 840.609 752.915 C 843.263 747.368 842.069 743.385 841.018 737.26 C 857.341 739.692 876.5 742.575 893.272 740.907 C 894.92 740.743 904.824 736.156 906.943 735.189 C 910.059 736.335 911.875 738.971 914.181 741.515 z"/>
<path transform="translate(0,0)" fill="rgb(85,84,84)" d="M 746.514 862.831 C 743.57 858.439 739.919 854.109 740.767 848.832 C 744.996 842.669 751.456 837.914 757.419 833.519 C 770.372 823.973 850.791 771.984 862.664 770.178 C 865.133 769.802 867.707 769.906 869.802 771.395 C 871.357 772.5 872.148 774.764 872.339 776.611 C 873.265 785.582 867.257 793.545 861.605 799.86 C 849.067 813.87 782.364 874.579 766.611 875.378 C 763.569 875.532 759.817 873.52 757.12 872.308 C 752.475 868.881 750.488 866.841 746.514 862.831 z"/>
<path transform="translate(0,0)" fill="rgb(205,116,115)" d="M 705.028 861.109 C 721.456 838.161 693.725 815.856 698.7 804.841 L 701.146 803.422 C 708.237 806.176 716.574 830.197 718.839 837.668 C 721.634 830.567 725.683 816.364 734.078 814.79 L 735.27 815.642 C 737.034 828.126 716.072 846.057 731.435 857.964 C 735.573 861.172 740.165 862.73 745.297 863.302 L 746.514 862.831 C 750.488 866.841 752.475 868.881 757.12 872.308 C 739.45 873.135 730.028 870.329 718.751 856.412 C 710.789 885.523 729.074 881.392 732.827 892.421 L 731.913 895.609 C 726.511 898.201 725.071 892.113 721.421 895.591 C 717.074 912.55 703.436 979.308 728.748 989.246 C 738.264 992.982 754.283 978.138 761.268 973.221 C 770.044 967.848 784.433 967.777 787.555 955.248 C 790.178 944.724 775.54 940.792 773.317 936.203 C 773.78 932.81 773.06 934.196 775.474 931.862 C 792.624 929.358 807.119 955.514 794.491 968.184 C 788.008 974.599 776.864 975.177 769.165 979.341 C 761.542 983.319 755.674 991.532 747.627 994.714 C 733.693 999.713 725.447 1000.41 714.861 989.778 C 707.61 982.492 698.376 985.029 699.768 969.126 C 701.705 946.991 718.877 912.895 696.9 894.82 C 704.62 881.79 705.081 875.758 705.028 861.109 z"/>
<path transform="translate(0,0)" fill="rgb(85,84,84)" d="M 607.608 809.761 C 613.369 812.166 634.316 822.301 638.652 825.302 C 650.096 833.222 698.404 852.334 705.028 861.109 C 705.081 875.758 704.62 881.79 696.9 894.82 C 695.782 895.28 692.973 896.539 691.991 896.382 C 671.038 893.044 631.664 860.204 618.54 847.657 C 610.366 835.618 606.014 824.655 607.608 809.761 z"/>
<path transform="translate(0,0)" fill="rgb(234,236,254)" d="M 914.181 741.515 C 915.363 735.367 916.581 723.846 921.029 720.242 C 924.306 720.194 922.777 719.75 925.6 722.105 C 927.353 728.151 921.401 744.625 920.211 752.623 C 919.238 755.574 918.647 758.046 915.776 759.868 C 907.91 764.859 879.452 756.217 875.938 748.199 L 877.317 745.628 C 887.654 742.24 899.055 757.574 910.803 751.748 C 913.596 748.965 913.577 745.499 914.181 741.515 z"/>
<path transform="translate(0,0)" fill="rgb(234,236,254)" d="M 924.025 787.198 C 930.491 778.574 950.11 779.642 953.845 788.196 C 953.088 791.511 953.978 790.316 951.317 792.057 C 944.816 791.667 937.424 788.31 932.064 791.955 C 931.277 794.042 930.766 795.362 930.116 797.497 C 929.178 805.034 928.97 824.222 924.378 828.139 C 921.378 827.879 922.734 828.415 920.346 826.101 C 917.923 812.892 921.243 800.044 924.025 787.198 z"/>
<path transform="translate(0,0)" fill="rgb(205,116,115)" d="M 708.284 1040.32 C 712.453 1038.72 711.361 1038.43 715.034 1039.25 C 720.404 1045.34 720.125 1048.28 726.944 1054.06 L 728.215 1055.12 C 728.817 1058.64 729.391 1058.48 728.189 1061.23 C 721.904 1062.42 713.478 1052.97 710.236 1048.32 L 708.284 1040.32 z"/>
<path transform="translate(0,0)" fill="rgb(234,236,254)" d="M 858.315 966.32 C 864.765 966.083 869.966 966.682 876.033 969.17 C 885.079 972.98 892.18 980.317 895.692 989.483 C 899.405 999.148 897.787 1011.73 893.687 1020.52 C 875.002 1060.53 835.889 1034.46 805.963 1033.68 C 797.345 1033.46 774.386 1044.38 764.8 1048.21 C 755.412 1050.87 745.587 1052.03 736.913 1047 C 726.395 1040.9 717.741 1018.53 726.595 1008.81 C 740.167 993.925 759.077 1015.39 779.92 1007.03 C 808.396 995.604 827.121 970.366 858.315 966.32 z"/>
<path transform="translate(0,0)" fill="rgb(205,116,115)" d="M 977.872 782.211 C 1005.77 785.304 1008.33 854.313 975.161 861.917 C 972.085 861.205 971.194 860.576 968.478 859.117 C 961.238 848.462 995.047 839.833 966.604 810.783 C 965.473 797.901 962.759 786.301 977.872 782.211 z"/>
<path transform="translate(0,0)" fill="rgb(205,116,115)" d="M 791.592 1052.34 C 805.562 1051.39 815.131 1055.5 828.471 1058.12 C 834.849 1059.37 849.433 1053.15 853.362 1059.9 L 852.638 1062.26 C 846.182 1067.37 833.589 1066.58 825.745 1066.02 C 814.318 1063.86 803.026 1061.31 791.34 1061.06 C 783.6 1060.9 772.036 1069.98 767.073 1064.24 C 767.333 1060.28 766.737 1062.12 769.372 1058.69 C 777.701 1054.99 782.655 1053.36 791.592 1052.34 z"/>
<path transform="translate(0,0)" fill="rgb(234,236,254)" d="M 871.522 762.08 C 899.794 768.044 913.602 772.939 908.387 803.799 C 907.051 811.703 910.425 816.968 903.567 823.399 C 892.538 816.974 906.244 800.087 899.97 786.172 C 892.649 769.933 874.262 774.889 868.865 767.068 C 869.495 763.489 868.835 765.186 871.522 762.08 z"/>
<path transform="translate(0,0)" fill="rgb(85,84,84)" d="M 829.567 860.597 C 833.671 862.388 832.345 861.002 834.401 864.149 C 833.985 869.263 821.916 879.322 817.05 886.506 L 816.189 887.793 C 823.291 888.069 844.24 884.971 845.652 892.292 C 843.97 894.767 844.281 894.056 841.512 895.845 C 832.243 896.118 807.61 899.838 805.756 888.662 C 808.432 879.849 822.451 866.627 829.567 860.597 z"/>
<path transform="translate(0,0)" fill="rgb(85,84,84)" d="M 662.185 906.526 C 677.179 907.333 729.546 920.178 686.446 934.303 C 684.134 934.584 682.9 934.615 680.572 934.715 C 677.413 932.667 678.48 933.994 676.988 930.831 C 680.402 924.421 690.212 926.31 692.938 922.587 C 687.693 919.293 671.029 920.066 662.017 913.422 C 660.388 909.989 660.829 911.235 662.185 906.526 z"/>
<path transform="translate(0,0)" fill="rgb(205,116,115)" d="M 812.502 923.263 C 823.308 922.251 858.952 924.299 862.996 936.061 L 861.785 938.136 C 858.216 940.081 860.014 939.871 856.238 939.037 C 848.721 935.277 837.888 932.048 829.556 931.516 C 820.357 930.929 810.099 933.877 801.598 930.101 L 801 928.44 C 803.858 924.188 807.799 923.717 812.502 923.263 z"/>
<path transform="translate(0,0)" fill="rgb(205,116,115)" d="M 884.107 828.557 L 887.657 829.454 C 888.601 830.417 890.006 831.288 889.725 832.561 C 886.919 845.269 872.89 854.919 861.229 855.937 C 857.224 855.016 853.914 854.283 853.564 849.676 C 859.373 843.689 863.357 847.121 868.363 845.838 C 873.925 844.412 880.701 833.446 884.107 828.557 z"/>
<path transform="translate(0,0)" fill="rgb(205,116,115)" d="M 905.275 977.527 L 909.56 977.933 C 916.839 982.468 915.882 1006.11 913.669 1013.59 C 910.446 1013.48 910.552 1013.5 907.497 1012.46 C 906.857 1007.89 904.235 980.5 905.275 977.527 z"/>
<path transform="translate(0,0)" fill="rgb(205,116,115)" d="M 880.345 868.569 C 883.08 868.86 881.901 868.356 884.003 870.132 C 884.134 872.212 883.997 871.645 883.098 873.824 C 877.275 878.379 876.225 877.937 868.611 878.033 C 865.585 877.098 862.507 876.228 862.04 872.715 L 863.433 871.012 C 866.581 869.778 867.676 869.268 871.143 869.104 C 874.212 868.951 877.279 868.773 880.345 868.569 z"/>
<path transform="translate(0,0)" fill="rgb(205,116,115)" d="M 868.394 882.42 C 872.68 882.539 873.94 883.241 876.874 886.156 C 878.246 890.589 878.091 888.762 876.746 893.518 C 872.558 893.442 870.836 892.593 868.179 889.433 C 867.038 884.839 867.027 887.092 868.394 882.42 z"/>
<path transform="translate(0,0)" fill="rgb(254,222,112)" d="M 917.269 531.637 C 927.061 511.442 1031.56 415.898 1052.99 411.376 C 1055.51 414.203 1048.53 445.501 1047.58 451.354 C 1043.82 474.948 1040.5 498.612 1037.64 522.332 C 1035.57 539.838 1033.72 556.987 1032.16 574.546 C 1031.06 586.986 1031.47 609.945 1029.03 621.098 C 1023.26 613.513 1015.62 607.718 1011.13 601.81 C 996.829 582.999 982.209 547.734 952.192 562.168 C 950.898 559.765 949.557 557.389 948.169 555.039 C 940.345 541.955 931.919 535.382 917.269 531.637 z"/>
<path transform="translate(0,0)" fill="rgb(234,236,254)" d="M 958.33 775.681 C 957.372 775.843 956.545 776.046 955.475 775.893 C 940.95 773.816 932.18 769.813 934.476 752.943 C 935.506 745.372 936.862 735.771 943.569 730.413 L 945.605 731.293 C 946.775 735.392 943.209 755.479 942.66 762.524 C 948.641 764.808 953.647 766.195 958.95 769.812 L 958.33 775.681 z"/>
<path transform="translate(0,0)" fill="rgb(254,222,112)" d="M 1029.58 819.65 C 1030.73 814.833 1034.68 789.492 1036.63 788.091 C 1039.63 797.06 1047.48 830.693 1047.4 839.337 C 1040.97 830.353 1038.23 826.415 1029.58 819.65 z"/>
<path transform="translate(0,0)" fill="rgb(254,222,112)" d="M 904.391 552.172 C 903.541 545.177 906.309 542.809 912.155 540.593 C 913.387 545.976 914.861 553.298 916.365 558.431 C 912.429 556.396 908.239 554.324 904.391 552.172 z"/>
<path transform="translate(0,0)" fill="rgb(234,236,254)" d="M 812.916 1105.46 C 815.91 1105.66 824.267 1106.03 826.788 1106.55 C 846.59 1107.7 858.074 1106.31 876.905 1106.18 C 880.538 1110.05 884.572 1114.13 887.871 1118.24 C 885.045 1145.53 881.38 1179.14 884.282 1206.42 C 887.335 1211.7 891.195 1216.07 895.699 1220.17 C 898.363 1221.85 901.013 1223.63 903.846 1224.98 C 919.534 1267.12 931.63 1309.16 943.005 1350.86 C 962.455 1422.15 908.849 1421.71 903.913 1460.28 C 903.565 1461.65 903.304 1464.73 901.85 1465.01 C 850.259 1474.94 804.254 1506.02 772.227 1547.52 C 767.484 1538.8 764.445 1531.59 761.286 1522.25 C 752.023 1516.02 742.909 1509.71 733.26 1504.09 C 728.808 1499.44 723.938 1492.5 720.197 1487.18 C 706.29 1467.39 690.359 1449.02 676.102 1429.54 C 679.227 1418.92 682.771 1408.24 680.442 1397.16 C 678.871 1389.69 677.532 1384.85 677.052 1377.19 L 676.967 1375.7 C 680.719 1372.09 684.056 1370.4 683.192 1365.22 C 676.094 1347.95 705.272 1310.68 715.062 1297.73 C 686.564 1282.96 706.327 1276.08 712.303 1259.22 C 715.905 1249.06 695.604 1240.72 691.226 1232.83 C 687.003 1225.22 687.458 1216.68 689.19 1208.04 C 696.643 1170.97 722.549 1147.2 752.97 1127.15 C 761.793 1121.33 771.235 1116.81 779.744 1111.16 L 780.644 1110.55 C 793.799 1110.27 800.715 1110.85 812.916 1105.46 z"/>
<path transform="translate(0,0)" fill="rgb(196,197,213)" d="M 748.292 1381 C 748.022 1351.31 730.495 1306.4 750.686 1280.28 C 757.378 1271.62 769.124 1271.66 770.075 1284.83 C 770.604 1293.45 765.669 1306.16 764.62 1314.91 C 752.149 1382.87 754.551 1453.73 761.286 1522.25 C 752.023 1516.02 742.909 1509.71 733.26 1504.09 C 728.808 1499.44 723.938 1492.5 720.197 1487.18 C 706.29 1467.39 690.359 1449.02 676.102 1429.54 C 679.227 1418.92 682.771 1408.24 680.442 1397.16 C 678.871 1389.69 677.532 1384.85 677.052 1377.19 L 676.967 1375.7 C 680.719 1372.09 684.056 1370.4 683.192 1365.22 C 694.347 1368.66 705.576 1372.05 716.96 1374.64 C 727.301 1376.99 738.09 1378.31 748.292 1381 z"/>
<path transform="translate(0,0)" fill="rgb(234,236,254)" d="M 826.788 1106.55 C 846.59 1107.7 858.074 1106.31 876.905 1106.18 C 880.538 1110.05 884.572 1114.13 887.871 1118.24 C 885.045 1145.53 881.38 1179.14 884.282 1206.42 C 884.326 1230.31 877.315 1237.33 862.612 1254.13 C 822.908 1209.14 825.497 1170.85 824.949 1113.18 C 824.91 1109.09 824.635 1108.61 826.788 1106.55 z"/>
<path transform="translate(0,0)" fill="rgb(196,197,213)" d="M 812.916 1105.46 C 815.91 1105.66 824.267 1106.03 826.788 1106.55 C 824.635 1108.61 824.91 1109.09 824.949 1113.18 C 825.497 1170.85 822.908 1209.14 862.612 1254.13 C 877.315 1237.33 884.326 1230.31 884.282 1206.42 C 887.335 1211.7 891.195 1216.07 895.699 1220.17 C 893.861 1232.02 889.084 1242.43 881.045 1251.4 C 876.97 1255.95 870.178 1267.33 865.299 1269.51 C 861.521 1269.59 860.205 1268.6 857.511 1266.08 C 805.778 1217.72 816.097 1165.8 812.916 1105.46 z"/>
<path transform="translate(0,0)" fill="rgb(254,222,112)" d="M 593.326 779.866 C 599.514 783.789 602.768 785.667 609.378 788.774 C 608.099 795.431 606.601 803.008 607.608 809.761 C 606.014 824.655 610.366 835.618 618.54 847.657 C 621.868 874.283 629.071 896.3 655.743 907.281 C 657.234 927.473 666.673 945.816 679.225 960.98 C 693.671 978.432 691.604 982.77 695.28 1003.04 C 697.225 1013.77 706.042 1027.63 708.284 1040.32 L 710.236 1048.32 C 711.855 1063.58 713.275 1083.37 726.115 1093.63 C 740.14 1104.84 763.47 1108.19 780.644 1110.55 L 779.744 1111.16 C 771.235 1116.81 761.793 1121.33 752.97 1127.15 C 722.549 1147.2 696.643 1170.97 689.19 1208.04 C 687.458 1216.68 687.003 1225.22 691.226 1232.83 C 695.604 1240.72 715.905 1249.06 712.303 1259.22 C 706.327 1276.08 686.564 1282.96 715.062 1297.73 C 705.272 1310.68 676.094 1347.95 683.192 1365.22 C 684.056 1370.4 680.719 1372.09 676.967 1375.7 L 677.052 1377.19 C 677.532 1384.85 678.871 1389.69 680.442 1397.16 C 682.771 1408.24 679.227 1418.92 676.102 1429.54 C 664.686 1416.76 648.363 1394.12 637.606 1380.02 L 568.981 1290.08 C 559.876 1278.15 543.983 1256.07 534.752 1246.15 L 532.329 1241.03 C 539.628 1242.08 548.571 1245.43 555.804 1247.6 C 572.653 1252.66 589.06 1256.94 606.739 1257.68 C 581.542 1236.52 552.341 1211.61 535.051 1183.45 C 535.807 1181.33 540.942 1173.71 542.531 1171.26 C 555.339 1151.45 565.599 1131.99 569.503 1108.64 C 576.973 1063.95 535.505 1044.17 525.179 1005.83 C 538.409 997.869 542.877 999.447 553.027 984.649 L 545.161 971.767 C 546.11 965.379 555.325 945.526 558.011 938.505 C 565.893 917.903 573.889 898.293 579.519 876.879 C 585.185 855.96 589.139 834.615 591.343 813.055 C 592.271 803.653 591.298 786.778 593.326 779.866 z"/>
<path transform="translate(0,0)" fill="rgb(205,116,115)" d="M 475.153 1000.25 C 486.806 1000.09 492.87 999.158 502.737 992.321 C 509.549 998.645 514.322 1003.18 524.015 1004.15 L 525.179 1005.83 C 535.505 1044.17 576.973 1063.95 569.503 1108.64 C 565.599 1131.99 555.339 1151.45 542.531 1171.26 C 540.942 1173.71 535.807 1181.33 535.051 1183.45 C 531.576 1187.56 528.895 1191.12 525.733 1195.42 C 524.11 1212.34 524.554 1225.54 532.329 1241.03 L 534.752 1246.15 C 535.776 1256.94 534.854 1274.7 525.609 1282.03 C 514.928 1284.03 511.401 1268.76 507.681 1261.35 C 501.699 1249.44 492.259 1246.19 480.523 1242.2 C 522.897 1226.85 519.138 1179.22 495.949 1149.06 C 499.472 1146.29 502.603 1143.46 505.945 1140.49 C 511.926 1146.77 517.393 1150.07 526.465 1148.48 C 550.021 1144.36 536.596 1111.73 531.997 1096.72 C 521.257 1095.33 504.77 1097.94 492.763 1098.27 C 502.781 1091.55 513.406 1087.26 524.814 1083.59 C 528.382 1087.51 529.02 1090.23 533.188 1094.6 C 536.225 1095.59 537.132 1096.09 540.363 1094.79 C 571.05 1082.38 531.105 1041.44 515.004 1035.95 C 499.932 1030.81 474.224 1043.84 460.324 1050.22 C 463.941 1030.33 466.332 1018.66 475.153 1000.25 z"/>
<path transform="translate(0,0)" fill="rgb(205,116,115)" d="M 733.26 1504.09 C 742.909 1509.71 752.023 1516.02 761.286 1522.25 C 764.445 1531.59 767.484 1538.8 772.227 1547.52 C 792.402 1576.75 798.797 1565.87 814.6 1576.6 C 838.45 1592.79 841.559 1657.61 836.207 1682.88 C 832.834 1723.92 788.78 1746.6 788.145 1780.89 C 770.929 1797.92 748.389 1818.58 722.676 1818.91 C 752.281 1813.29 784.54 1750.75 792.334 1724.01 C 810.984 1660.03 791.893 1601.1 759.051 1545.77 C 751.079 1532.34 741.189 1518.78 733.814 1505.14 L 733.26 1504.09 z"/>
<path transform="translate(0,0)" fill="rgb(205,116,115)" d="M 468.488 939.476 C 468.264 907.429 483.259 884.319 518.121 881.144 C 525.629 880.46 531.793 885.256 530.467 893.016 C 528.749 910.66 525.02 927.884 524.477 945.664 C 520.13 941.123 514.973 934.215 510.493 929.124 C 496.309 929.402 482.014 934.986 468.488 939.476 z"/>
<path transform="translate(0,0)" fill="rgb(254,222,112)" d="M 382.392 1011.99 C 386.348 1007.78 388.64 1003.6 393.59 1000.88 C 397.315 1000.7 395.975 1000.57 399.7 1003.93 C 396.198 1009.69 393.933 1013.97 388.253 1017.57 C 384.95 1017.73 386.351 1018.23 383.889 1016.1 L 382.392 1011.99 z"/>
<path transform="translate(0,0)" fill="rgb(205,116,115)" d="M 550.089 1288.4 C 551.613 1288.85 552.924 1289.47 554.399 1290.09 C 558.495 1295.37 564.111 1308.09 567.215 1314.36 C 584.846 1349.99 606.897 1382.93 631.855 1413.82 C 637.729 1421.09 650.976 1435.11 654.101 1443.1 C 653.688 1446.87 652.54 1446.73 649.068 1450.24 C 627.914 1442.11 550.342 1320.28 545.105 1295.57 C 546.169 1291.37 546.594 1292.04 550.089 1288.4 z"/>
<path transform="translate(0,0)" fill="rgb(205,116,115)" d="M 369.331 1048.51 C 370.638 1048.95 371.761 1049.65 373.007 1050.3 C 376.908 1057.94 360.068 1070.32 362.189 1083.95 C 364.979 1101.88 371.932 1113.12 379.743 1129.05 C 379.457 1130.17 379.172 1131.29 378.886 1132.41 C 376.403 1132.39 376.164 1132.24 373.725 1131.62 C 361.34 1120.39 352.176 1090.85 355.392 1074.03 C 356.845 1066.43 364.465 1054.77 369.331 1048.51 z"/>
<path transform="translate(0,0)" fill="rgb(205,116,115)" d="M 425.448 1083.41 C 429.232 1083.7 429.679 1084.04 431.638 1086.31 C 431.55 1090.57 427.358 1093.86 425.817 1100.04 C 423.525 1109.23 425.913 1114.91 424.229 1123.02 L 419.975 1123.04 C 410.117 1115.08 418.942 1091.73 425.448 1083.41 z"/>
<path transform="translate(0,0)" fill="rgb(205,116,115)" d="M 448.679 1116.58 L 452.038 1117.76 C 456.513 1122.37 455.117 1129.25 451.512 1133.95 C 444.024 1130.85 443.975 1121.91 448.679 1116.58 z"/>
<path transform="translate(0,0)" fill="rgb(254,153,147)" d="M 1342.08 916.709 C 1352.05 894.033 1364.45 862.165 1393.04 860.644 C 1408.56 859.819 1424.55 867.713 1424.88 884.847 L 1424.85 896.315 C 1431.73 886.348 1435.67 878.856 1448.52 877.142 C 1464.8 874.969 1478.02 878.032 1480.63 895.394 C 1481.74 903.356 1484.77 942.592 1486.37 946.355 C 1492.15 947.254 1492.88 946.304 1496.23 951.567 C 1496.22 970.653 1522.49 989.753 1530.75 1005.38 C 1534.55 1012.55 1533.54 1023.5 1532.94 1031.46 C 1527.35 1077.31 1511.96 1125.91 1476.87 1157.66 C 1484.09 1178.52 1480.89 1195.87 1476.57 1217.26 C 1492.68 1251.62 1549.71 1302.11 1579.54 1326.53 C 1612.19 1297.3 1673.47 1286.17 1716.22 1280.88 C 1711.18 1274.11 1699.56 1247.9 1697.16 1239.54 L 1701.25 1241.92 L 1702.56 1241.19 C 1704.25 1234.91 1701.82 1226.93 1701.57 1220.42 C 1697.82 1122.24 1794.55 1080.24 1875.12 1061.33 C 1872.06 1082.73 1861.67 1121.46 1856.67 1144 C 1845.73 1192.97 1836 1242.21 1827.49 1291.66 C 1818.31 1344.77 1810.64 1397.81 1808.41 1451.68 C 1808.16 1457.68 1807.58 1463.63 1806.55 1469.55 C 1808.78 1490.37 1817.46 1515.78 1819.2 1539.12 C 1830.32 1546.19 1834.11 1558.84 1836.79 1571.12 C 1853.76 1648.87 1814.44 1841.98 1797.53 1924.74 C 1789.17 1965.69 1781.34 2007.91 1769.52 2048 L 1605.57 2048 L 1344.26 2048 C 1392.37 2010.5 1353.73 2011.22 1359.7 1976.2 C 1361.83 1963.69 1390.28 1916.94 1398.27 1901.91 C 1423.73 1854.02 1451.27 1805.74 1464.61 1752.41 C 1470.23 1730.01 1465.83 1716.31 1465.23 1695.89 C 1464.45 1669.18 1483.03 1616.05 1497.24 1592.21 C 1496 1585.12 1491.95 1574.98 1490.22 1567.42 C 1470.47 1480.8 1408.42 1408.69 1353.18 1341.87 C 1337.51 1322.91 1317.5 1305.18 1303.06 1285.45 C 1292.72 1271.3 1285.27 1247.13 1278.14 1230.82 C 1268.02 1203.16 1256.52 1176.25 1244.8 1149.31 C 1233.36 1123.03 1214.83 1107.57 1202.33 1083.7 C 1188.75 1057.78 1184.92 1020.31 1193.43 992.373 C 1196.63 981.867 1204.01 978.003 1213.22 973.645 C 1229 970.137 1242.8 968.859 1259.06 966.948 C 1268.69 965.465 1288.75 964.222 1295.99 957.091 C 1300.28 952.876 1303.87 939.503 1309.23 933.627 C 1318.08 923.927 1324.08 923.528 1336.63 922.824 C 1339.43 922.667 1340.82 918.851 1342.08 916.709 z"/>
<path transform="translate(0,0)" fill="rgb(254,150,78)" d="M 1819.2 1539.12 C 1830.32 1546.19 1834.11 1558.84 1836.79 1571.12 C 1853.76 1648.87 1814.44 1841.98 1797.53 1924.74 C 1789.17 1965.69 1781.34 2007.91 1769.52 2048 L 1605.57 2048 L 1344.26 2048 C 1392.37 2010.5 1353.73 2011.22 1359.7 1976.2 C 1361.83 1963.69 1390.28 1916.94 1398.27 1901.91 C 1423.73 1854.02 1451.27 1805.74 1464.61 1752.41 C 1470.23 1730.01 1465.83 1716.31 1465.23 1695.89 C 1464.45 1669.18 1483.03 1616.05 1497.24 1592.21 C 1517.4 1633.73 1529.54 1648.07 1576.04 1664.55 C 1587.6 1668.65 1605.46 1673.98 1617.5 1676.37 C 1627.01 1679.6 1649.72 1685.19 1661.12 1687.39 C 1699.64 1694.85 1767.88 1710.45 1803.33 1691.66 C 1816.07 1684.91 1816.81 1654.75 1819.44 1640.3 C 1824.24 1599.56 1821.15 1578.69 1819.2 1539.12 z"/>
<path transform="translate(0,0)" fill="rgb(254,222,112)" d="M 1819.2 1539.12 C 1830.32 1546.19 1834.11 1558.84 1836.79 1571.12 C 1853.76 1648.87 1814.44 1841.98 1797.53 1924.74 C 1789.17 1965.69 1781.34 2007.91 1769.52 2048 L 1605.57 2048 C 1609.61 2033.64 1615.72 2001.84 1618.49 1986.06 C 1629.65 1922.48 1643.89 1852.87 1637.73 1788.31 C 1636.41 1774.51 1627.94 1768.85 1623.21 1758.87 C 1612.68 1736.67 1616.08 1700.35 1617.5 1676.37 C 1627.01 1679.6 1649.72 1685.19 1661.12 1687.39 C 1699.64 1694.85 1767.88 1710.45 1803.33 1691.66 C 1816.07 1684.91 1816.81 1654.75 1819.44 1640.3 C 1824.24 1599.56 1821.15 1578.69 1819.2 1539.12 z"/>
<path transform="translate(0,0)" fill="rgb(254,222,112)" d="M 1697.16 1239.54 L 1701.25 1241.92 L 1702.56 1241.19 C 1704.25 1234.91 1701.82 1226.93 1701.57 1220.42 C 1697.82 1122.24 1794.55 1080.24 1875.12 1061.33 C 1872.06 1082.73 1861.67 1121.46 1856.67 1144 C 1845.73 1192.97 1836 1242.21 1827.49 1291.66 C 1818.31 1344.77 1810.64 1397.81 1808.41 1451.68 C 1808.16 1457.68 1807.58 1463.63 1806.55 1469.55 L 1806.03 1469.53 C 1803.73 1466.91 1798.2 1448.12 1796.27 1443.27 C 1790.43 1428.64 1783.19 1415.76 1775.51 1402.15 C 1777.29 1396.84 1778.51 1390.68 1779.57 1385.13 C 1781.39 1375.53 1784.33 1366.18 1784.18 1356.33 C 1784.01 1341.32 1767.54 1344.47 1760.49 1337.37 C 1749.93 1326.73 1766.6 1301.65 1756.77 1291.51 C 1748.24 1282.7 1728.06 1281.56 1716.22 1280.88 C 1711.18 1274.11 1699.56 1247.9 1697.16 1239.54 z"/>
<path transform="translate(0,0)" fill="rgb(196,197,213)" d="M 1716.22 1280.88 C 1728.06 1281.56 1748.24 1282.7 1756.77 1291.51 C 1766.6 1301.65 1749.93 1326.73 1760.49 1337.37 C 1767.54 1344.47 1784.01 1341.32 1784.18 1356.33 C 1784.33 1366.18 1781.39 1375.53 1779.57 1385.13 C 1778.51 1390.68 1777.29 1396.84 1775.51 1402.15 C 1773.87 1399.94 1767.3 1390.26 1766.14 1389.68 C 1749.59 1381.42 1697.81 1392.75 1680.76 1395.95 C 1649.49 1388.43 1605 1348.04 1579.54 1326.53 C 1612.19 1297.3 1673.47 1286.17 1716.22 1280.88 z"/>
<path transform="translate(0,0)" fill="rgb(205,116,115)" d="M 1680.76 1395.95 C 1697.81 1392.75 1749.59 1381.42 1766.14 1389.68 C 1767.3 1390.26 1773.87 1399.94 1775.51 1402.15 C 1783.19 1415.76 1790.43 1428.64 1796.27 1443.27 C 1798.2 1448.12 1803.73 1466.91 1806.03 1469.53 L 1806.55 1469.55 C 1808.78 1490.37 1817.46 1515.78 1819.2 1539.12 C 1821.15 1578.69 1824.24 1599.56 1819.44 1640.3 C 1818.06 1630.63 1818.66 1609.49 1817.59 1597.78 C 1814.23 1560.87 1808.22 1526.96 1795.13 1492.3 C 1774.79 1438.46 1730.01 1417.51 1680.76 1395.95 z"/>
<path transform="translate(0,0)" fill="rgb(205,116,115)" d="M 1455.24 1008.59 C 1464.58 971.347 1472.63 933.792 1479.36 895.992 L 1480.63 895.394 C 1481.74 903.356 1484.77 942.592 1486.37 946.355 C 1492.15 947.254 1492.88 946.304 1496.23 951.567 C 1485 965.716 1478.33 987.105 1476.33 1004.87 C 1482.93 1008.27 1499.8 1010.11 1497.73 1017.5 C 1494.33 1021.2 1489.88 1022.66 1485.21 1024.77 L 1488.08 1026.43 C 1493.21 1029.29 1495.78 1030.15 1497.33 1036.26 C 1494.87 1043.37 1486.25 1040.07 1480.54 1038.84 C 1475.86 1049.81 1470.48 1062.18 1464.39 1072.38 C 1464.1 1048.32 1463.23 1031.47 1455.24 1008.59 z"/>
<path transform="translate(0,0)" fill="rgb(205,116,115)" d="M 1424.88 884.847 L 1424.85 896.315 C 1419.67 910.425 1413.58 927.67 1403.49 938.453 C 1397.47 940.565 1391.22 942.78 1386.37 937.64 C 1385.32 932.34 1397.96 897.818 1405.02 896.631 C 1408.75 901.276 1405.17 903.839 1408 910.508 L 1409.55 910.582 C 1417.15 904.068 1419.44 893.724 1424.88 884.847 z"/>
<path transform="translate(0,0)" fill="rgb(205,116,115)" d="M 1285.91 975.218 C 1299.67 977.692 1288.6 990.985 1292.68 1002.46 C 1297.31 1015.48 1308.41 1024.47 1313.1 1037.1 C 1317.71 1049.51 1327.88 1094.43 1323 1105.31 C 1314.7 1103.42 1315.91 1099.01 1315.25 1091.93 C 1313.71 1076.21 1310.79 1049.59 1301.68 1036.12 C 1285.87 1012.72 1277.7 1005.97 1285.91 975.218 z"/>
<path transform="translate(0,0)" fill="rgb(205,116,115)" d="M 1361.36 1004.54 C 1364.47 1004.73 1364.36 1004.56 1367.04 1006.05 C 1370.51 1011.02 1369.65 1019 1372.53 1024.83 C 1375.42 1030.69 1385.22 1044.71 1387.24 1050.12 C 1392.77 1064.87 1403.32 1124.39 1401.91 1136.69 C 1398.43 1136.4 1398.62 1136.48 1395.48 1134.99 C 1391.26 1128.86 1388.02 1068.29 1379.9 1054.78 C 1372.82 1043 1359.61 1020.01 1360.98 1007.37 C 1361.09 1006.43 1361.21 1005.48 1361.36 1004.54 z"/>
<path transform="translate(0,0)" fill="rgb(205,116,115)" d="M 1395.82 955.337 C 1402.56 954.771 1420.15 955.181 1421.27 963.739 C 1414.29 971.231 1393.99 953.113 1368.47 977.133 C 1364.1 982.653 1364.06 989.783 1357.02 991.715 C 1351.94 988.383 1357.61 977.362 1360.52 973.722 C 1369.67 962.294 1381.76 957.234 1395.82 955.337 z"/>
<path transform="translate(0,0)" fill="rgb(205,116,115)" d="M 1218.59 988.319 C 1221.7 988.493 1221.71 988.276 1224.38 989.743 C 1225.59 992.756 1225.52 1018.78 1225.12 1023.67 C 1222.15 1023.23 1219.67 1023.53 1218.29 1020.79 C 1214.58 1013.41 1216.23 995.165 1218.59 988.319 z"/>
<path transform="translate(0,0)" fill="rgb(85,84,84)" d="M 887.871 1118.24 C 903.283 1116.13 929.857 1110.95 942.23 1120.31 C 964.529 1136.39 980.721 1155.2 995.901 1178.09 C 992.567 1182.65 991.402 1184.25 987.301 1188.06 C 978.278 1195.28 971.241 1200.41 961.742 1206.95 C 984.015 1245.98 1014.05 1302.6 1020.31 1348.06 C 1021.43 1356.23 1018.87 1371.92 1016.66 1379.99 C 1014.82 1386.71 1012.34 1393.24 1009.26 1399.49 C 985.135 1448.25 979.116 1439.21 1027.41 1476.12 C 1031.79 1479.47 1037.21 1484.95 1041 1489.11 C 1059.03 1513.4 1056.46 1526.46 1044.79 1552.34 C 1036 1576.19 1028.47 1600.49 1022.23 1625.13 C 1004.07 1693.89 986.304 1774.38 976.171 1844.76 C 974.789 1854.06 971.574 1876.76 971.752 1885.72 C 972.345 1915.64 974.129 1927.2 950.472 1950.29 C 982.402 1976.43 1032.71 2002.85 1068.93 2023.36 C 1080.16 2029.73 1105.89 2041.55 1115.2 2048 L 781.291 2048 L 779.981 2048 L 688.674 2048 C 679.675 1973.43 715.264 1911.22 754.209 1850.44 C 763.422 1836.06 782.814 1811.16 789.35 1797.31 L 789.923 1796.07 C 789.656 1791.83 788.676 1785.28 788.145 1780.89 C 788.78 1746.6 832.834 1723.92 836.207 1682.88 C 841.559 1657.61 838.45 1592.79 814.6 1576.6 C 798.797 1565.87 792.402 1576.75 772.227 1547.52 C 804.254 1506.02 850.259 1474.94 901.85 1465.01 C 903.304 1464.73 903.565 1461.65 903.913 1460.28 C 908.849 1421.71 962.455 1422.15 943.005 1350.86 C 931.63 1309.16 919.534 1267.12 903.846 1224.98 C 901.013 1223.63 898.363 1221.85 895.699 1220.17 C 891.195 1216.07 887.335 1211.7 884.282 1206.42 C 881.38 1179.14 885.045 1145.53 887.871 1118.24 z"/>
<path transform="translate(0,0)" fill="rgb(196,197,213)" d="M 903.913 1460.28 L 903.922 1461.76 C 904.348 1490.03 937.099 1500.95 945.582 1526.51 C 958.218 1564.58 902.628 1679.54 882.287 1714.82 C 871.81 1733 859.994 1751.77 845.387 1766.86 C 834.04 1778.58 820.936 1787.24 812.162 1801.36 C 777.584 1857.02 779.621 1983.76 779.981 2048 L 688.674 2048 C 679.675 1973.43 715.264 1911.22 754.209 1850.44 C 763.422 1836.06 782.814 1811.16 789.35 1797.31 L 789.923 1796.07 C 789.656 1791.83 788.676 1785.28 788.145 1780.89 C 788.78 1746.6 832.834 1723.92 836.207 1682.88 C 841.559 1657.61 838.45 1592.79 814.6 1576.6 C 798.797 1565.87 792.402 1576.75 772.227 1547.52 C 804.254 1506.02 850.259 1474.94 901.85 1465.01 C 903.304 1464.73 903.565 1461.65 903.913 1460.28 z"/>
<path transform="translate(0,0)" fill="rgb(196,197,213)" d="M 950.472 1950.29 C 982.402 1976.43 1032.71 2002.85 1068.93 2023.36 C 1080.16 2029.73 1105.89 2041.55 1115.2 2048 L 781.291 2048 C 784.739 2045.52 816.294 2033.43 823.833 2029.99 C 869.173 2009.3 914.688 1985.55 950.472 1950.29 z"/>
<path transform="translate(0,0)" fill="rgb(196,197,213)" d="M 976.171 1844.76 C 986.304 1774.38 1004.07 1693.89 1022.23 1625.13 C 1030.78 1633.03 1120.93 1640.54 1136.6 1642.84 C 1203.82 1652.7 1272.49 1674.52 1320.84 1724.72 C 1340.08 1744.69 1362.64 1782.25 1344.89 1809.15 C 1309.01 1827.86 1186.31 1750.46 1141.26 1747.67 C 1115.12 1746.06 1094.31 1748.92 1105 1782.17 C 1116.84 1813.48 1233.23 1877.3 1227.06 1905.09 C 1217.23 1913.81 1164.03 1893.6 1150.76 1889.81 C 1097.39 1874.55 1031.99 1847.4 976.171 1844.76 z"/>
<path transform="translate(0,0)" fill="rgb(254,222,112)" d="M 1114.47 888.557 C 1123.2 804.373 1226.56 746.218 1281 691.972 C 1320.8 652.322 1346.9 605.252 1347.04 547.914 C 1347.06 541.854 1345.82 529.144 1347.32 524.245 L 1348.34 524.201 C 1355.38 529.283 1376.18 566.147 1381.05 575.069 C 1421.98 650.151 1420.94 717.724 1399.35 798.049 C 1394.76 815.106 1391.85 834.568 1386.55 851.963 C 1377.34 856.649 1367.57 860.151 1358.28 865.103 C 1337.94 875.938 1318.08 890.489 1296.16 897.66 C 1282.71 902.063 1270.6 891.468 1258.13 888.669 C 1221.08 882.996 1170.77 882.442 1135.11 893.919 C 1129.7 894.504 1126.6 893.282 1121.4 891.886 L 1114.47 888.557 z"/>
<path transform="translate(0,0)" fill="rgb(234,236,254)" d="M 1054.93 858.139 C 1059.42 856.445 1064 854.239 1068.43 856.813 C 1081.25 864.259 1100.53 884.001 1114.47 888.557 L 1121.4 891.886 C 1139.43 945.725 1135.05 967.562 1108.53 1019.03 C 1084.12 1066.41 1065.96 1109.94 1049.21 1160.89 C 1044.23 1175.95 1039.58 1191.11 1035.25 1206.37 C 1033.4 1212.96 1029.59 1228.47 1027.41 1234.04 C 1014.02 1214.35 1007.31 1198.12 995.901 1178.09 C 980.721 1155.2 964.529 1136.39 942.23 1120.31 C 929.857 1110.95 903.283 1116.13 887.871 1118.24 C 884.572 1114.13 880.538 1110.05 876.905 1106.18 C 893.912 1099.2 903.087 1102.68 918.234 1086.58 C 940.875 1062.52 971.261 917.384 970.038 880.465 L 973.196 882.309 C 996.891 890.412 1006.11 881.667 1027.39 877.391 C 1039.97 874.863 1050.38 883.874 1057.21 866.003 C 1056.66 864.674 1055.39 859.782 1054.93 858.139 z"/>
<path transform="translate(0,0)" fill="rgb(205,116,115)" d="M 1057.21 866.003 C 1069.02 911.419 1036.42 975.097 1007.67 1009.91 C 984.814 1042.15 962.027 1085.43 942.23 1120.31 C 929.857 1110.95 903.283 1116.13 887.871 1118.24 C 884.572 1114.13 880.538 1110.05 876.905 1106.18 C 893.912 1099.2 903.087 1102.68 918.234 1086.58 C 940.875 1062.52 971.261 917.384 970.038 880.465 L 973.196 882.309 C 996.891 890.412 1006.11 881.667 1027.39 877.391 C 1039.97 874.863 1050.38 883.874 1057.21 866.003 z"/>
<path transform="translate(0,0)" fill="rgb(254,153,147)" d="M 1057.21 866.003 C 1069.02 911.419 1036.42 975.097 1007.67 1009.91 C 1009.26 998.841 1016.08 935.749 1005.32 930.796 C 996.568 938.581 996.146 974.938 975.571 996.697 C 981.012 959.038 982.361 919.386 973.196 882.309 C 996.891 890.412 1006.11 881.667 1027.39 877.391 C 1039.97 874.863 1050.38 883.874 1057.21 866.003 z"/>
<path transform="translate(0,0)" fill="rgb(205,116,115)" d="M 996.033 895.389 C 998.088 896.712 999.07 897.828 1000.61 899.635 C 1010.6 911.353 1028.89 914.029 1032.1 931.946 C 1033.01 937.045 1032.03 944.727 1028.83 949.203 L 1024.74 947.169 C 1021.96 943.379 1024.05 930.122 1019.33 924.376 C 1012.25 915.762 996.283 913.267 992.628 901.574 C 993.3 897.463 992.883 898.896 996.033 895.389 z"/>
<path transform="translate(0,0)" fill="rgb(205,116,115)" d="M 1014.47 887.379 C 1020.12 888.27 1027.7 891.021 1032.06 894.839 C 1033.79 898.571 1033.28 897.337 1032.61 902.071 C 1027.64 900.963 1017.28 898.566 1014.19 894.293 C 1012.38 891.789 1013.62 890.101 1014.47 887.379 z"/>
<path transform="translate(0,0)" fill="rgb(254,222,112)" d="M 1533.53 862.125 C 1576.92 819.305 1597.29 805.101 1618.22 743.97 C 1640.98 767.936 1658.3 805.042 1665.55 836.989 C 1684.59 920.93 1647.89 1002.97 1638.47 1084.83 C 1627.08 1080.37 1611.32 1057.74 1604.07 1047.09 C 1600.05 979.554 1584.24 910.252 1533.53 862.125 z"/>
<path transform="translate(0,0)" fill="rgb(196,197,213)" d="M 1041 1489.11 C 1073.43 1494.65 1106.21 1497.95 1139.09 1498.98 C 1186.65 1500.83 1234.35 1499.26 1281.85 1503.13 C 1304.33 1505.42 1338.26 1510.4 1352.28 1530.19 C 1368.67 1553.31 1360.57 1565.52 1334.11 1563.08 C 1274.33 1557.58 1217.35 1549 1157.1 1547.22 C 1131.23 1546.55 1105.34 1547.06 1079.51 1548.76 C 1068.51 1549.54 1055.03 1551.87 1044.79 1552.34 C 1056.46 1526.46 1059.03 1513.4 1041 1489.11 z"/>
<path transform="translate(0,0)" fill="rgb(196,197,213)" d="M 1121.4 891.886 C 1126.6 893.282 1129.7 894.504 1135.11 893.919 C 1162 957.87 1130.72 995.757 1105.6 1051.72 C 1084.03 1099.43 1065.58 1148.48 1050.36 1198.58 C 1047.72 1207.5 1038.02 1249.85 1033.04 1253.23 C 1017.9 1255.1 995.83 1201.01 987.301 1188.06 C 991.402 1184.25 992.567 1182.65 995.901 1178.09 C 1007.31 1198.12 1014.02 1214.35 1027.41 1234.04 C 1029.59 1228.47 1033.4 1212.96 1035.25 1206.37 C 1039.58 1191.11 1044.23 1175.95 1049.21 1160.89 C 1065.96 1109.94 1084.12 1066.41 1108.53 1019.03 C 1135.05 967.562 1139.43 945.725 1121.4 891.886 z"/>
<path transform="translate(0,0)" fill="rgb(205,116,115)" d="M 1280.35 947.549 C 1299.33 922.603 1303.41 899.979 1342.08 916.709 C 1340.82 918.851 1339.43 922.667 1336.63 922.824 C 1324.08 923.528 1318.08 923.927 1309.23 933.627 C 1303.87 939.503 1300.28 952.876 1295.99 957.091 C 1288.75 964.222 1268.69 965.465 1259.06 966.948 C 1242.8 968.859 1229 970.137 1213.22 973.645 C 1235.88 942.895 1244.56 944.332 1280.35 947.549 z"/>
</svg>