<svg version="1.1" xmlns="http://www.w3.org/2000/svg" style="display: block;" viewBox="0 0 2048 2048" width="2000" height="2000" preserveAspectRatio="none">
<path transform="translate(0,0)" fill="rgb(55,90,99)" d="M 716.052 280.043 C 735.254 278.519 733.618 278.14 744.177 293.876 C 747.211 293.35 756.758 291.838 758.884 292.472 C 774.88 297.245 769.981 304.425 776.283 314.243 C 781.229 315.215 785.809 314.579 789.021 319.196 C 792.179 323.736 789.461 326.588 790.352 332.206 C 817.291 343.063 810.069 369.397 806.183 391.771 C 828.958 400.618 818.229 441.567 790.911 445.139 C 787.691 455.805 786.872 461.987 779.198 470.357 L 779.168 501.369 C 799.016 506.579 819.804 513.94 839.239 520.162 C 863.29 528.297 878.877 547.372 889.396 569.605 C 902.556 597.417 918.55 624.329 931.182 652.213 C 930.444 668.138 931.629 673.096 943.613 684.096 C 940.958 696.067 940.441 704.196 946.927 715.354 L 927.548 721.092 C 922.5 722.383 915.714 723.964 910.834 726.751 C 868.273 751.056 887.091 808.045 896.612 845.33 C 896.694 845.537 896.776 845.744 896.858 845.952 C 892.235 850.045 889.211 855.741 885.485 860.589 C 868.63 882.52 860.517 908.071 843.108 929.516 L 846.889 1046.79 C 847.575 1070.25 847.846 1094.79 849.363 1118.13 C 849.922 1126.72 854.697 1145.19 856.454 1154.56 C 859.945 1173.99 861.828 1193.68 862.084 1213.41 C 862.804 1276.29 851.867 1339.01 848.764 1401.2 C 851.123 1404.89 852.949 1408.42 853.596 1412.8 C 856.138 1429.99 855.751 1447.19 858.462 1464.48 C 861.184 1481.85 867.644 1499.34 869.551 1516.52 C 871.222 1532.54 870.125 1554.55 859.065 1567.32 C 846.544 1581.78 814.59 1591.41 798.768 1577.54 C 793.054 1572.53 789.476 1563.87 787.874 1556.48 C 781.441 1526.78 788.511 1496.69 788.744 1466.77 C 788.865 1449.63 787.743 1432.42 787.773 1415.28 C 787.779 1411.71 790.815 1407.65 791.158 1404.14 C 789.985 1390.85 786.917 1375.74 784.616 1362.79 L 767.776 1268.78 C 751.16 1175.86 736.786 1094.03 731.35 999.059 C 730.05 1002.27 718.318 1117.01 718.968 1125.21 C 724.395 1193.67 710.234 1253.33 701.184 1320.73 C 698.975 1337.17 695.34 1355.84 694.379 1372 C 695.09 1372.76 697.218 1375.26 697.242 1376.58 C 697.573 1394.76 710.656 1436.39 700.673 1451.11 C 697.017 1456.51 667.52 1463.57 659.51 1467.65 C 647.792 1473.62 639.929 1481.17 629.568 1489.23 C 610.212 1503.83 583.406 1510.85 559.363 1511.02 C 546.623 1511.11 523.454 1506.93 513.943 1497.72 C 510.237 1493.65 510.004 1485.97 510.118 1480.88 C 510.325 1469.92 519.935 1462.62 528.621 1457.57 C 554.753 1442.38 583.928 1429.77 606.591 1409.5 C 613.418 1403.39 623.681 1391.15 623.476 1381.94 C 621.458 1291.14 615.289 1200.3 611.498 1109.53 C 610.122 1073.77 611.291 1036.46 611.673 1000.92 L 612.856 869.157 C 613.758 787.732 612.884 706.112 615.321 624.82 C 587.514 641.623 593.946 649.746 591.053 678.605 C 587.547 713.584 592.202 774.625 569.437 802.57 C 538.773 840.21 483.245 771.814 460.582 752.452 C 457.586 749.882 457.491 748.93 453.496 749.043 C 449.918 754.621 452.339 772.401 451.487 780.112 C 450.513 788.927 450.566 796.39 453.545 804.887 C 458.82 819.929 464.187 835.186 468.231 850.625 C 481.205 899.898 488.879 950.417 491.122 1001.32 L 486.146 1007.38 C 488.774 1091.96 486.51 1184.64 472.85 1268 L 449.728 1401.27 C 446.469 1419.51 439.275 1453.31 437.897 1470.5 C 447.799 1484.1 442.311 1497.12 457.279 1513.21 C 468.887 1525.68 474.593 1529.24 487.53 1539.48 C 503.226 1551.91 528.099 1561.88 535.22 1580.12 L 535.72 1581.43 C 533.944 1591.22 533.157 1604.25 524.228 1609.09 C 504.869 1619.57 485.7 1617.77 466.265 1614.01 C 425.489 1606.14 426.607 1584.1 395.367 1568.09 C 388.485 1564.56 362.827 1558.93 360.705 1551.53 C 355.434 1528.51 363.399 1501.75 368.831 1479.18 C 368.426 1480.86 375.467 1455.59 375.868 1463.37 C 372.569 1399.42 361.758 1335.05 361.122 1271.1 C 360.992 1257.99 367.688 1239.14 372.641 1227.19 C 367.277 1187.09 359.375 1146.61 354.124 1106.26 C 346.263 1164.77 322.256 1226.11 301.329 1280.85 L 255.962 1398.73 C 246.91 1421.84 236.413 1445.32 227.995 1468.66 C 226.49 1472.83 227.473 1482.69 226.301 1485.88 C 221.568 1499.41 216.103 1511.77 213.551 1526.01 C 209.581 1548.17 207.792 1570.94 204.303 1593.11 C 202.249 1604.29 198.412 1624.12 190.623 1632.78 C 157.928 1669.11 114.594 1623.99 123.671 1584.45 C 127.668 1567.04 128.194 1561.39 136.168 1545.32 C 145.604 1526.29 150.602 1505.48 156.483 1485.36 C 159.607 1474.11 162.527 1461.18 170.365 1452.32 C 175.944 1418.38 178.436 1381.47 180.325 1347.08 C 183.532 1288.75 180.964 1254.76 219.374 1206.91 C 218.328 1181.41 216.064 1155.19 214.427 1129.65 L 207.823 1018.14 L 201.03 1011.45 C 201.116 979.037 201.553 949.052 204.831 916.799 C 183.139 879.37 133.058 827.921 123.406 785.955 C 118.054 762.684 184.511 668.89 199.002 647.129 C 215.178 622.839 229.577 615.497 256.79 611.153 L 292.091 605.629 C 291.945 591.314 291.815 577.684 290.984 563.398 C 269.689 529.534 239.709 518.718 243.268 470.315 C 245.173 445.42 257.01 422.338 276.114 406.263 C 306.696 380.163 360.421 371.963 398.579 383.416 C 415.78 388.579 428.24 397.855 439.604 411.463 L 438.431 410.96 C 431.168 407.786 428.589 407.14 420.784 405.166 C 422.521 406.526 424.231 407.919 425.912 409.345 C 440.793 422.014 441.674 435.62 443.048 453.523 C 435.45 446.168 433.191 444.907 423.597 441.019 C 423.885 451.163 423.562 456.71 426.41 466.499 C 431.693 466.464 440.311 465.886 444.588 468.501 C 444.963 469.459 445.573 471.302 445.279 472.285 C 440.918 486.851 438.106 503.268 426.727 513.858 C 424.701 532.147 418.91 557.967 405.059 571.216 C 393.797 581.989 379.722 581.402 365.453 580.679 C 365.393 587.352 365.606 594.222 365.735 600.911 C 383.324 599.392 407.943 595.892 423.084 606.454 C 440.845 618.843 456.941 639.748 471.569 655.999 C 490.489 677.11 509.562 698.084 528.786 718.919 C 533.547 695.538 538.164 672.129 542.639 648.691 C 545.926 630.793 548.473 606.392 555.358 589.931 C 563.059 571.517 583.062 551.538 597.444 537.727 C 598.683 536.537 598.782 537.073 601.071 537.425 C 612.965 546.792 594.543 561.775 597.514 568.764 C 614.542 571.437 642.869 526.63 658.676 517.616 C 675.907 507.791 685.023 505.791 704.585 501.956 C 704.402 497.525 704.536 492.421 704.541 487.93 C 611.926 488.655 660.635 428.28 639.601 369.878 C 635.602 358.774 641.7 344.056 647.933 334.983 C 640.536 334.63 636.871 335.141 630.557 330.334 C 629.068 327.466 628.995 328.725 629.694 326.39 C 645.879 330.481 640.988 317.2 646.142 308.816 C 649.462 303.416 658.809 305.12 664.122 301.953 C 670.581 298.103 672.756 291.287 678.22 287.105 C 685.042 285.011 697.087 287.385 703.478 290.723 C 708.905 284.982 709.49 284.236 716.052 280.043 z M 195.372 784.363 C 202.145 804.683 209.885 824.668 218.567 844.249 L 222.954 853.868 C 235.046 829.759 249.575 811.358 262.994 788.361 C 261.838 786.725 259.414 783.227 259.103 781.37 C 257.255 770.335 256.108 724.448 248.55 716.646 C 230.224 738.741 212.492 761.321 195.372 784.363 z M 843.818 789.901 L 850.017 773.982 C 856.592 756.082 862.536 737.958 867.838 719.642 C 864.322 713.957 846.053 683.789 841.935 680.532 C 841.21 705.896 839.186 730.419 841.595 755.723 C 842.664 766.953 842.922 778.6 843.818 789.901 z M 686.372 443.515 C 701.053 449.764 725.316 445.284 723.333 426.048 C 721.674 425.223 722.442 425.295 721.106 425.417 C 714.805 426.342 682.178 430.271 679.603 433.185 C 680.739 437.244 683.103 440.853 686.372 443.515 z M 411.181 481.121 C 406.174 482.457 402.685 482.931 398.572 486.046 L 397.333 488.353 C 398.834 492.114 400.17 492.838 403.96 494.41 C 410.219 493.375 415.118 490.185 416.301 483.515 L 415.525 481.428 C 413.363 480.594 413.49 480.705 411.181 481.121 z M 348.165 482.56 C 350.602 493.253 356.184 498.97 367.145 493.046 L 368.33 489.458 C 365.014 483.102 354.85 483.051 348.165 482.56 z M 730.057 383.239 C 724.508 384.494 715.212 385.534 712.3 390.127 C 712.63 393.604 712.553 393.413 716.107 396.549 C 728.078 397.669 736.06 386.064 730.057 383.239 z M 431.104 501.471 C 434.017 492.988 438.294 484.032 434.642 475.811 C 431.992 473.077 430.672 473.08 427.002 472.131 C 427.921 482.384 428.731 494.587 427.412 504.824 C 429.709 504.487 428.846 504.357 431.104 501.471 z M 656.229 382.32 C 658.309 394.681 663.147 400.914 675.986 394.762 C 676.917 390.667 677.301 392.419 675.35 389.228 C 670.116 385.719 662.426 384.053 656.229 382.32 z M 360.774 527.06 C 365.263 546.368 384.14 550.717 399.101 540.531 C 401.73 536.535 402.774 535.533 403.686 530.992 L 402.869 529.462 C 392.754 527.867 371.821 527.523 360.774 527.06 z"/>
<path transform="translate(0,0)" fill="rgb(55,90,99)" d="M 1183.59 872.367 C 1184.59 865.816 1184.17 859.138 1184.51 852.527 C 1185.32 836.883 1186.96 821.203 1191.01 806.031 C 1195.52 789.114 1201.99 772.314 1209.21 756.375 C 1214.14 745.489 1220.3 734.644 1223.59 723.142 C 1226.97 711.311 1224.75 697.559 1223.38 685.475 C 1217.49 633.403 1206.69 604.033 1175.49 561.729 C 1160.98 542.043 1144.74 523.901 1128.73 505.441 C 1119.05 494.283 1107.6 482.56 1100.43 469.615 C 1081.15 434.813 1082.17 291.798 1087.9 252.877 C 1089.93 239.055 1094.47 227.366 1106.08 218.718 C 1116.54 210.937 1135.48 204.916 1148.8 207.235 C 1150.31 207.499 1151.53 208.178 1152.83 208.961 C 1158.64 219.089 1135.88 262.199 1139.59 269.328 C 1147.52 267.305 1155.79 248.747 1165.97 250.859 C 1168.67 253.485 1167.79 251.977 1168.83 255.474 C 1166.19 264.013 1160.39 275.883 1155.87 284.319 C 1153.25 289.215 1138.86 307.257 1138.49 311.762 C 1135.45 349.147 1147.95 404.397 1161.46 438.879 C 1164.79 447.373 1188 471.618 1193.19 476.94 C 1200.34 460.48 1211.25 451.859 1215.27 436.43 C 1216.84 430.428 1210.79 414.772 1209.37 407.986 C 1203.76 381.023 1213.47 356.557 1239.69 345.595 C 1246.93 327.526 1256.73 315.15 1274.2 308.366 C 1309.36 294.71 1346.94 300.563 1378.75 319.487 C 1391.42 327.028 1415.82 327.12 1422.94 345.478 C 1427.09 354.558 1421.28 360.731 1416.83 368.138 C 1426.27 390.567 1424.44 407.564 1396.07 408.959 C 1395.2 431.261 1394.36 464.019 1376.54 479.998 C 1365.27 490.108 1352.86 489.447 1338.92 489.482 C 1339.16 496.204 1339.24 504.264 1339.85 510.847 C 1375.11 515.335 1400.5 508.968 1425.16 542.661 C 1441.58 565.094 1458.29 593.065 1473.22 616.786 C 1473.37 593.761 1473.05 583.197 1458.21 564.079 C 1443.63 545.285 1436.54 527.742 1433.96 504.114 C 1442.14 490.814 1435.73 488.175 1447.05 471.251 C 1446.03 464.67 1444.18 458.602 1447.87 453.071 C 1458.86 449.699 1471.95 485.751 1476.73 494.118 C 1482.41 504.051 1484.13 507.669 1494.95 512.998 C 1492.89 504.119 1487.08 481.711 1500.65 478.552 C 1510.6 482.998 1525.98 539.586 1524.66 554.997 C 1521.65 590.179 1533.58 629.037 1537.59 664.427 L 1590.81 607.31 C 1595.63 602.154 1600.58 596.823 1605.41 591.707 C 1630.76 564.905 1642.48 546.091 1681.65 544.354 C 1692.45 543.978 1703.27 544.165 1714.05 544.912 L 1714.41 532.685 C 1701.87 531.885 1680.51 532.189 1672.42 522.436 C 1659.02 506.27 1661.8 449.535 1662.98 429.146 C 1646.83 420.895 1640.88 407.105 1656.46 394.434 C 1651.38 389.184 1643.16 379.894 1648.6 372.451 C 1654.55 371.848 1666.58 372.082 1671.4 370.688 C 1681.49 367.77 1692.46 357.013 1702.15 352.987 C 1735.93 338.958 1784.6 340.438 1805.35 374.797 C 1806.13 369.575 1806.42 357.152 1813.39 357.808 C 1817.81 361.99 1818.11 366.231 1818.28 371.91 L 1818.32 373.723 L 1819.78 374.558 C 1822.99 372.964 1824.01 371.62 1826.47 372.426 C 1829.02 379.771 1824.56 383.011 1819.59 387.521 C 1820.73 389.289 1821.74 390.814 1822.92 392.496 C 1830.72 403.647 1829.44 425.264 1827.49 437.854 C 1826.78 442.509 1825.88 447.133 1824.8 451.716 C 1837.2 477.897 1818.61 501.529 1799.04 499.604 C 1797.5 499.453 1790.98 509.402 1789.33 511.974 C 1789.01 522.751 1788.84 533.532 1788.83 544.313 C 1814.04 552.232 1855.85 563.157 1877.43 577.688 C 1885.8 583.327 1900.38 622.17 1904.89 633.462 L 1931.85 702.056 C 1938.35 718.651 1950.05 745.321 1954.19 761.48 C 1959.72 783.019 1936.99 827.535 1927.92 847.979 C 1915.4 876.239 1902.62 904.387 1889.6 932.419 C 1887.21 937.504 1869.3 973.002 1869.08 976.231 C 1866.62 1011.78 1871.47 1048.28 1871.37 1084.08 C 1871.32 1102.11 1872.76 1120.51 1872.73 1138.54 C 1872.66 1174.87 1888.88 1209.7 1889.87 1246.1 C 1891.53 1306.9 1888.26 1367.95 1887.05 1428.74 C 1886.87 1437.35 1890.2 1440.78 1891.95 1448.63 C 1893.58 1460.22 1892.93 1475.47 1894.38 1487.02 C 1898.32 1518.21 1924.33 1583.11 1888.69 1605.03 C 1887.56 1605.72 1886.41 1606.36 1885.23 1606.96 C 1866.28 1616.62 1839.14 1616.42 1830.4 1594.02 C 1820.13 1567.7 1826.55 1530.83 1830.06 1503.02 C 1832.16 1486.47 1829.29 1448.74 1833.75 1437.15 C 1801.94 1303.77 1778.1 1170.09 1740.03 1038.13 C 1740.98 1083.47 1739.06 1129.28 1739.79 1174.65 C 1740.23 1201.62 1743.55 1228.04 1740.49 1255.07 C 1734.12 1311.47 1721.69 1367.16 1713.84 1423.36 C 1713.03 1429.16 1715.2 1429.54 1716.58 1434.86 C 1718.03 1451.02 1728.18 1496.28 1715.81 1507.34 C 1706.23 1514.42 1691.87 1514.17 1681.6 1519.41 C 1669.65 1525.5 1659.4 1534.56 1648.57 1542.22 C 1622.99 1560.3 1570.63 1565.13 1548.31 1539.82 C 1547.11 1532.66 1546.63 1526.68 1547.09 1519.36 C 1552.86 1510.1 1558.55 1506.3 1568.06 1502.12 C 1598.45 1488.73 1630.1 1473.46 1645.4 1442.16 C 1647.17 1438.53 1650.76 1431.91 1653.04 1428.57 C 1648.35 1374.25 1643.98 1319.9 1639.93 1265.53 C 1636.27 1217.85 1632.13 1170 1630.28 1122.23 C 1627.25 1035.16 1627.07 948.014 1629.72 860.93 C 1630.14 840.963 1629.77 820.957 1630.22 801.011 C 1631.43 758.672 1633.14 716.349 1635.36 674.051 C 1605.41 701.878 1572.82 732.305 1538.12 753.838 C 1524.96 762.002 1503.22 764.244 1492.99 750.72 C 1488.06 744.197 1484.99 737.205 1481.86 729.706 C 1461.87 756.065 1441.55 782.174 1420.91 808.024 L 1426.38 1017.88 C 1427.26 1050.99 1429.4 1089.65 1428.78 1122.09 C 1427.74 1174.76 1426.26 1227.41 1424.35 1280.05 C 1424.14 1286.79 1424.09 1293.42 1423.99 1300.16 C 1423.92 1304.56 1424.35 1310.78 1423.89 1315.02 C 1421.46 1337.34 1418.89 1359.64 1420.27 1382.16 C 1423.59 1415.65 1468.85 1436.83 1495.03 1450.23 C 1504.09 1454.86 1525.59 1459.73 1526.37 1472.23 C 1526.58 1475.67 1526.01 1481.6 1525.74 1485.21 C 1505.42 1511.37 1452.83 1505.19 1428.75 1487.14 C 1420.96 1481.3 1412.09 1474.02 1403.66 1469.85 C 1387.29 1461.74 1366.8 1467.62 1364.62 1444.29 C 1362.3 1419.47 1370.4 1397.99 1370.03 1373.76 C 1368.92 1356.99 1361.33 1335.94 1358.68 1319.34 C 1349.53 1262.15 1334.37 1205.49 1336.06 1147.15 C 1336.42 1134.67 1336.35 1121.47 1336.05 1108.96 C 1334.99 1097.59 1330.88 1078.8 1328.66 1067 C 1323.09 1038.11 1317.68 1009.19 1312.42 980.245 C 1310.66 1003.75 1306.79 1027.8 1304.27 1051.27 C 1296.4 1124.85 1283.38 1195.67 1268.74 1268.19 L 1250.51 1356.68 C 1248.17 1367.78 1241.81 1393.59 1241.12 1403.67 C 1240.4 1421.46 1239.36 1437.44 1239.32 1455.41 C 1239.24 1488.56 1251.25 1543.37 1229.35 1570.69 C 1218.35 1584.42 1187.27 1570.9 1178.58 1557.25 C 1167.38 1539.64 1170.47 1517.39 1173.92 1497.54 C 1179.82 1470.37 1182.24 1444.58 1183.24 1416.9 C 1183.41 1412 1187.62 1405.42 1187.98 1400.33 C 1186.76 1332.27 1183.01 1263.99 1184 1195.92 C 1184.19 1182.87 1185.66 1159.65 1188.37 1147.03 C 1199.75 1094 1188.82 1039.39 1188.8 985.568 C 1188.8 968.647 1186.52 950.745 1186.93 933.482 C 1199.87 917.469 1191.4 889.464 1183.59 872.367 z M 1855.99 723.664 C 1857.47 761.283 1858.23 798.927 1858.27 836.575 L 1863.78 817.821 C 1868.92 802.661 1873.88 787.441 1878.66 772.165 C 1874.77 763.437 1860.11 729.552 1855.99 723.664 z M 1691.39 484.485 C 1693.58 489.907 1694.46 492.34 1698.61 496.496 C 1713.21 504.246 1738.61 499.45 1738.01 480.858 C 1737.57 480.406 1737.12 479.954 1736.68 479.502 C 1721.57 480.99 1706.35 483.062 1691.39 484.485 z M 1416.25 721.866 L 1422.79 709.503 L 1434.37 688.989 C 1430.05 682.052 1417.47 661.012 1413.01 655.623 C 1413.91 677.498 1415.58 700.185 1416.25 721.866 z M 1316.08 394.512 C 1317.46 405.501 1323.01 410.712 1334.17 406.581 C 1336.17 402.287 1336.22 404.237 1335.29 400.557 C 1330.53 396.367 1322.33 394.948 1316.08 394.512 z M 1384.27 394.043 C 1378.87 395.722 1371.71 397.355 1367.44 400.677 C 1365.57 404.849 1367.1 405.437 1370.36 408.31 C 1378.51 408.9 1385.7 405.101 1386.44 396.282 C 1385.24 394.62 1385.64 394.488 1384.27 394.043 z M 1739.47 437.15 C 1734.32 438.398 1724.25 439.599 1725.96 446.633 C 1728.95 449.635 1729.28 449.63 1733.35 451.173 C 1739.18 449.747 1745.34 445.987 1746.06 439.428 C 1744.42 435.922 1743.48 436.589 1739.47 437.15 z M 1672.99 436.524 C 1676.08 447.3 1681.14 454.397 1693.13 448.478 C 1694.68 443.943 1694.96 445.377 1693.46 441.881 C 1688.11 437.663 1679.79 436.847 1672.99 436.524 z M 1325.55 436.67 C 1328.95 455.489 1345.34 461.172 1360.72 451.202 C 1362.37 448.494 1364.08 446.517 1363.99 443.467 C 1358.03 441.232 1333.16 437.811 1325.55 436.67 z"/>
<path transform="translate(0,0)" fill="rgb(42,67,77)" d="M 918.859 931.059 L 923.341 933.181 C 924.471 937.817 924.866 938.655 927.145 942.867 C 934.229 945.81 941.339 949.642 948.917 948.538 L 950.954 946.791 L 950.941 947.999 C 967.095 947.574 998.477 946.226 1013.66 948.031 L 1017.09 942.443 C 1055.89 946.03 1101.47 947.091 1140.23 947.151 C 1140.87 959.406 1142.68 975.849 1138.56 987.093 C 1138.92 992.816 1139.94 1002.6 1138.83 1007.84 C 1140.54 1034.1 1142.88 1058.79 1144.09 1085.29 C 1145.93 1131.13 1146.53 1177.01 1145.89 1222.88 C 1145.69 1253.26 1145.63 1287.63 1144.36 1317.71 C 1142.36 1359.44 1139.9 1401.14 1136.96 1442.81 C 1135.81 1459.92 1133.02 1487.99 1133.06 1503.8 C 1132.81 1509.13 1132.68 1525.23 1130.46 1528.73 C 1110.81 1538.59 1088.66 1539.02 1067.47 1534.38 C 1063.42 1531.2 1063.06 1518.91 1062.48 1513.72 C 1052.61 1444.17 1036.4 1378.76 1041.97 1308.55 C 1042.69 1299.47 1039.3 1285.59 1039.28 1276.04 C 1036.61 1250.69 1035.01 1224.19 1031.68 1199.04 C 1024.01 1276.72 1008.66 1357.01 993.458 1433.49 C 989.432 1453.82 985.118 1474.09 980.518 1494.3 C 979.296 1499.71 974.118 1520.75 973.765 1525.35 C 971.356 1534.54 966.522 1546.55 964.639 1554.74 L 964.169 1552.89 C 960.676 1551.79 954.243 1554.7 950.061 1554.97 C 931.941 1556.11 919.686 1554.65 903.861 1546.77 C 901.631 1542.96 901.806 1532.31 901.716 1527.72 C 900.825 1524.71 900.172 1502.7 899.695 1497.24 C 895.827 1452.92 895.674 1411.2 900.208 1366.97 C 900.878 1348.64 907.571 1328.45 907.503 1310.37 C 907.422 1288.82 906.02 1266.53 905.43 1244.94 C 904.468 1206.06 904.02 1167.16 904.087 1128.26 C 904.125 1088.75 904.15 1053.44 908.359 1014.21 C 908.937 1008.96 911.053 999.846 912.164 994.374 C 908.181 984.37 909.595 978.847 911.665 968.537 C 914.169 956.068 916.592 943.574 918.859 931.059 z"/>
<path transform="translate(0,0)" fill="rgb(207,104,203)" d="M 918.859 931.059 L 923.341 933.181 C 924.471 937.817 924.866 938.655 927.145 942.867 C 934.229 945.81 941.339 949.642 948.917 948.538 L 950.954 946.791 L 950.941 947.999 C 967.095 947.574 998.477 946.226 1013.66 948.031 L 1017.09 942.443 C 1055.89 946.03 1101.47 947.091 1140.23 947.151 C 1140.87 959.406 1142.68 975.849 1138.56 987.093 C 1138.92 992.816 1139.94 1002.6 1138.83 1007.84 C 1104.4 1037.55 1034.34 1044.37 990.21 1041.12 C 977.984 1040.26 965.845 1038.44 953.909 1035.66 C 951.686 1035.21 948.251 1034.19 945.96 1033.59 L 933.758 1029.23 L 930.276 1027.83 C 924.372 1025.55 912.076 1019.4 908.359 1014.21 C 908.937 1008.96 911.053 999.846 912.164 994.374 C 908.181 984.37 909.595 978.847 911.665 968.537 C 914.169 956.068 916.592 943.574 918.859 931.059 z"/>
<path transform="translate(0,0)" fill="rgb(157,77,154)" d="M 912.164 994.374 C 933.087 1012.32 987.865 1022.75 1014.96 1022.37 C 1059.71 1021.75 1105.05 1019.21 1138.56 987.093 C 1138.92 992.816 1139.94 1002.6 1138.83 1007.84 C 1104.4 1037.55 1034.34 1044.37 990.21 1041.12 C 977.984 1040.26 965.845 1038.44 953.909 1035.66 C 951.686 1035.21 948.251 1034.19 945.96 1033.59 L 933.758 1029.23 L 930.276 1027.83 C 924.372 1025.55 912.076 1019.4 908.359 1014.21 C 908.937 1008.96 911.053 999.846 912.164 994.374 z"/>
<path transform="translate(0,0)" fill="rgb(254,169,168)" d="M 950.941 947.999 C 967.095 947.574 998.477 946.226 1013.66 948.031 C 1001.94 965.975 982.181 986.033 958.534 977.512 C 951.54 966.591 950.762 960.745 950.941 947.999 z"/>
<path transform="translate(0,0)" fill="rgb(157,77,154)" d="M 927.145 942.867 C 934.229 945.81 941.339 949.642 948.917 948.538 L 950.954 946.791 L 950.941 947.999 C 950.762 960.745 951.54 966.591 958.534 977.512 C 944.235 974.351 932.583 955.476 927.145 942.867 z"/>
<path transform="translate(0,0)" fill="rgb(42,67,77)" d="M 901.716 1527.72 C 900.825 1524.71 900.172 1502.7 899.695 1497.24 C 895.827 1452.92 895.674 1411.2 900.208 1366.97 C 900.878 1348.64 907.571 1328.45 907.503 1310.37 C 907.422 1288.82 906.02 1266.53 905.43 1244.94 C 904.468 1206.06 904.02 1167.16 904.087 1128.26 C 904.125 1088.75 904.15 1053.44 908.359 1014.21 C 912.076 1019.4 924.372 1025.55 930.276 1027.83 C 922.62 1069.91 923.813 1127.23 923.722 1171.07 C 923.607 1214.81 922.897 1258.55 921.591 1302.27 C 920.736 1334.91 916.072 1363.51 913.774 1395.62 C 911.093 1438.14 910.252 1480.76 911.255 1523.36 C 908.053 1521.95 905.428 1520.01 902.746 1520.85 C 901.56 1524.28 902.31 1524.83 901.716 1527.72 z"/>
<path transform="translate(0,0)" fill="rgb(55,90,99)" d="M 930.276 1027.83 L 933.758 1029.23 L 945.96 1033.59 C 948.251 1034.19 951.686 1035.21 953.909 1035.66 C 944.892 1038.04 940.812 1039.08 931.297 1039.21 C 926.548 1079.05 927.021 1114.16 926.865 1154.22 C 926.704 1195.64 926.16 1237.06 925.235 1278.46 C 924.811 1292.67 925.079 1310.46 923.473 1324.37 C 915.82 1390.67 913.373 1457.34 914.095 1524.21 C 935.266 1530.08 952.526 1530.98 973.765 1525.35 C 971.356 1534.54 966.522 1546.55 964.639 1554.74 L 964.169 1552.89 C 960.676 1551.79 954.243 1554.7 950.061 1554.97 C 931.941 1556.11 919.686 1554.65 903.861 1546.77 C 901.631 1542.96 901.806 1532.31 901.716 1527.72 C 902.31 1524.83 901.56 1524.28 902.746 1520.85 C 905.428 1520.01 908.053 1521.95 911.255 1523.36 C 910.252 1480.76 911.093 1438.14 913.774 1395.62 C 916.072 1363.51 920.736 1334.91 921.591 1302.27 C 922.897 1258.55 923.607 1214.81 923.722 1171.07 C 923.813 1127.23 922.62 1069.91 930.276 1027.83 z"/>
<path transform="translate(0,0)" fill="rgb(42,67,77)" d="M 945.96 1033.59 C 942.107 1035.78 936.107 1037.69 932.15 1035.1 C 931.873 1032.03 932.24 1032.04 933.758 1029.23 L 945.96 1033.59 z"/>
<path transform="translate(0,0)" fill="rgb(55,90,99)" d="M 1062.48 1513.72 L 1063.19 1512.07 C 1065.75 1511.03 1087.38 1513.86 1094.99 1513.16 C 1112.79 1511.55 1116.75 1509.93 1133.06 1503.8 C 1132.81 1509.13 1132.68 1525.23 1130.46 1528.73 C 1110.81 1538.59 1088.66 1539.02 1067.47 1534.38 C 1063.42 1531.2 1063.06 1518.91 1062.48 1513.72 z"/>
<path transform="translate(0,0)" fill="rgb(27,46,52)" d="M 953.117 551.834 C 956.69 526.521 968.225 508.974 992.501 501.035 C 1027.11 489.717 1061.6 497.723 1089.92 519.548 C 1105.55 531.586 1117.32 536.922 1123.89 557.965 C 1129.08 574.602 1130.19 592.2 1121.98 608.159 C 1120.49 610.92 1120.04 611.818 1117.6 612.474 L 1116.35 610.049 L 1114.79 610.407 C 1113.13 613.536 1111.53 616.703 1110.01 619.905 C 1113.9 644.918 1104.47 687.304 1073.96 689.819 C 1067.53 690.35 1056.33 689.793 1050.07 688.171 L 1049.93 696.083 C 1049.87 698.413 1049.87 702.098 1049.66 704.303 C 1055.34 705.323 1063.38 706.991 1068.95 707.481 C 1098.48 713.326 1113.85 716.753 1131.21 744.029 C 1155.31 781.915 1169.24 830.207 1183.59 872.367 C 1191.4 889.464 1199.87 917.469 1186.93 933.482 C 1180.03 938.448 1177.41 939.908 1168.89 942.274 C 1158.29 945.149 1151.29 946.494 1140.23 947.151 C 1101.47 947.091 1055.89 946.03 1017.09 942.443 L 1013.66 948.031 C 998.477 946.226 967.095 947.574 950.941 947.999 L 950.954 946.791 L 948.917 948.538 C 941.339 949.642 934.229 945.81 927.145 942.867 C 924.866 938.655 924.471 937.817 923.341 933.181 L 918.859 931.059 C 900.624 917.229 898.473 895.759 895.491 874.386 C 894.868 869.918 898.687 866.596 901.603 863.83 L 896.858 845.952 C 896.776 845.744 896.694 845.537 896.612 845.33 C 887.091 808.045 868.273 751.056 910.834 726.751 C 915.714 723.964 922.5 722.383 927.548 721.092 L 946.927 715.354 C 940.441 704.196 940.958 696.067 943.613 684.096 C 931.629 673.096 930.444 668.138 931.182 652.213 C 933.302 642.582 936.02 637.427 940.28 628.647 C 928.466 600.634 927.538 572.821 953.117 551.834 z"/>
<path transform="translate(0,0)" fill="rgb(254,169,168)" d="M 1049.66 704.303 C 1055.34 705.323 1063.38 706.991 1068.95 707.481 C 1098.48 713.326 1113.85 716.753 1131.21 744.029 C 1155.31 781.915 1169.24 830.207 1183.59 872.367 C 1191.4 889.464 1199.87 917.469 1186.93 933.482 C 1180.03 938.448 1177.41 939.908 1168.89 942.274 C 1158.29 945.149 1151.29 946.494 1140.23 947.151 C 1101.47 947.091 1055.89 946.03 1017.09 942.443 L 1013.66 948.031 C 998.477 946.226 967.095 947.574 950.941 947.999 L 950.954 946.791 L 948.917 948.538 C 941.339 949.642 934.229 945.81 927.145 942.867 C 924.866 938.655 924.471 937.817 923.341 933.181 L 918.859 931.059 C 900.624 917.229 898.473 895.759 895.491 874.386 C 894.868 869.918 898.687 866.596 901.603 863.83 C 905.16 874.142 907.337 884.167 918.395 889.086 C 921.497 890.475 924.789 891.397 928.162 891.819 C 928.537 890.289 929.494 890.202 931.424 888.781 C 930.856 885.695 930.473 886.115 928.158 883.379 C 923.366 879.238 921.491 875.153 922.339 868.951 L 923.173 868.72 C 924.336 863.828 923.409 864.227 926.484 861.571 C 929.565 861.463 974.063 883.691 978.604 887.394 C 982.05 883.095 985.768 878.648 988.928 874.163 C 992.795 869.26 995.889 865.208 999.421 860.056 C 1004.23 853.475 1009.8 845.98 1012.07 838.095 C 1015.11 827.511 1011.58 815.554 1012.61 804.734 C 1013.75 792.757 1018.16 789.01 1016.28 776.495 C 1014.36 763.771 1008.79 762.51 1007.5 752.718 C 1006.66 746.375 1010.33 739.042 1011.33 733.573 C 1010.92 735.838 1011.72 726.75 1011.6 727.889 C 1010.94 724.551 1009.64 723.185 1007.81 720.15 C 1017.88 721.892 1046.92 724.556 1052.74 714.474 C 1053 710.75 1050.69 708.29 1049.66 704.303 z"/>
<path transform="translate(0,0)" fill="rgb(207,104,203)" d="M 1049.66 704.303 C 1055.34 705.323 1063.38 706.991 1068.95 707.481 C 1098.48 713.326 1113.85 716.753 1131.21 744.029 C 1155.31 781.915 1169.24 830.207 1183.59 872.367 C 1191.4 889.464 1199.87 917.469 1186.93 933.482 C 1180.03 938.448 1177.41 939.908 1168.89 942.274 C 1178.57 930.782 1174.69 917.646 1167 905.941 C 1157.12 890.9 1144.43 880.923 1126.65 876.871 L 1123.17 876.894 C 1110.64 877.504 1099.59 880.253 1088.35 881.081 C 1072.6 883.585 1055.97 886.504 1040.22 888.572 C 1048.4 865.112 1054.19 842.875 1060.56 818.915 C 1063.47 807.965 1067.8 798.614 1070.41 786.975 C 1066.62 772.986 1054.83 753.533 1043.52 744.343 C 1037.7 739.615 1018.89 728.843 1011.6 727.889 C 1010.94 724.551 1009.64 723.185 1007.81 720.15 C 1017.88 721.892 1046.92 724.556 1052.74 714.474 C 1053 710.75 1050.69 708.29 1049.66 704.303 z"/>
<path transform="translate(0,0)" fill="rgb(157,77,154)" d="M 1068.95 707.481 C 1098.48 713.326 1113.85 716.753 1131.21 744.029 C 1155.31 781.915 1169.24 830.207 1183.59 872.367 C 1191.4 889.464 1199.87 917.469 1186.93 933.482 C 1180.03 938.448 1177.41 939.908 1168.89 942.274 C 1178.57 930.782 1174.69 917.646 1167 905.941 C 1157.12 890.9 1144.43 880.923 1126.65 876.871 L 1123.17 876.894 C 1123.45 875.661 1125.76 871.28 1126.45 869.881 C 1142.45 832.566 1142.44 798.62 1118.29 765.498 C 1102.54 743.895 1087.98 726.294 1068.95 707.481 z"/>
<path transform="translate(0,0)" fill="rgb(122,53,119)" d="M 1126.45 869.881 C 1148.27 867.264 1157.61 870.557 1175.16 883.439 C 1157.79 876.91 1146.52 871.584 1126.65 876.871 L 1123.17 876.894 C 1123.45 875.661 1125.76 871.28 1126.45 869.881 z"/>
<path transform="translate(0,0)" fill="rgb(249,146,145)" d="M 950.873 941.199 C 975.173 941.395 992.467 940.581 1017.09 942.443 L 1013.66 948.031 C 998.477 946.226 967.095 947.574 950.941 947.999 L 950.954 946.791 L 950.873 941.199 z"/>
<path transform="translate(0,0)" fill="rgb(249,146,145)" d="M 1040.22 888.572 C 1055.97 886.504 1072.6 883.585 1088.35 881.081 C 1075.82 889.567 993.847 900.841 981.298 891.042 L 981.79 890.12 C 985.971 890.638 991.688 892.805 994.025 892.829 C 1006.68 892.959 1027.97 891.196 1040.22 888.572 z"/>
<path transform="translate(0,0)" fill="rgb(122,53,119)" d="M 923.341 933.181 C 934.103 938.562 938.54 941.214 950.873 941.199 L 950.954 946.791 L 948.917 948.538 C 941.339 949.642 934.229 945.81 927.145 942.867 C 924.866 938.655 924.471 937.817 923.341 933.181 z"/>
<path transform="translate(0,0)" fill="rgb(122,53,119)" d="M 928.158 883.379 C 923.366 879.238 921.491 875.153 922.339 868.951 L 923.173 868.72 C 926.224 876.051 927.289 878.145 933.036 883.53 C 936.748 886.614 937.842 886.487 939.255 890.329 C 936.374 893.215 932.044 892.185 928.162 891.819 C 928.537 890.289 929.494 890.202 931.424 888.781 C 930.856 885.695 930.473 886.115 928.158 883.379 z"/>
<path transform="translate(0,0)" fill="rgb(249,146,145)" d="M 1021.52 744.513 C 1033.26 755.124 1035.09 757.98 1041.92 772.096 C 1047.5 771.136 1048.96 770.761 1054.53 771.37 C 1052.53 773.062 1045.31 773.783 1041.89 774.542 C 1032.21 769.237 1026.46 754.584 1021.52 744.513 z"/>
<path transform="translate(0,0)" fill="rgb(254,169,168)" d="M 1008.3 600.338 C 1021.64 604.325 1022.07 597.721 1035.52 595.109 C 1049.02 592.487 1052.01 595.002 1062.35 601.593 C 1069.95 606.438 1077.51 595.797 1083.89 593.591 C 1092.42 590.637 1102.86 592.717 1110.91 596.714 C 1114.86 604.689 1112.87 604.054 1114.79 610.407 C 1113.13 613.536 1111.53 616.703 1110.01 619.905 C 1113.9 644.918 1104.47 687.304 1073.96 689.819 C 1067.53 690.35 1056.33 689.793 1050.07 688.171 L 1049.93 696.083 C 1049.87 698.413 1049.87 702.098 1049.66 704.303 C 1050.69 708.29 1053 710.75 1052.74 714.474 C 1046.92 724.556 1017.88 721.892 1007.81 720.15 C 1001.87 714.543 1000.07 712.991 993.238 708.39 C 993.297 707.051 993.333 705.712 993.346 704.372 C 993.489 687.23 991.346 679.704 979.371 667.54 C 979.019 660.053 979.059 651.827 978.94 644.275 L 970.133 647.444 C 933.473 636.847 944.094 581.494 974.723 598.82 C 975.729 599.747 979.641 603.509 980.541 603.964 C 984.128 602.296 1001.37 603.714 1005.28 605.217 L 1005.9 605.177 L 1007.87 601.037 L 1008.3 600.338 z"/>
<path transform="translate(0,0)" fill="rgb(68,64,67)" d="M 1008.3 600.338 C 1021.64 604.325 1022.07 597.721 1035.52 595.109 C 1049.02 592.487 1052.01 595.002 1062.35 601.593 C 1069.95 606.438 1077.51 595.797 1083.89 593.591 C 1092.42 590.637 1102.86 592.717 1110.91 596.714 C 1114.86 604.689 1112.87 604.054 1114.79 610.407 C 1113.13 613.536 1111.53 616.703 1110.01 619.905 C 1100.05 628.653 1092.37 630.814 1080.19 624.181 C 1074.45 618.175 1071.44 604.575 1064.23 606.999 C 1061.23 610.111 1060.89 613.87 1059.82 618.23 C 1047.36 638.527 1020.84 631.478 1019.65 605.422 C 1014.44 605.05 1011.12 605.014 1005.9 605.177 L 1007.87 601.037 L 1008.3 600.338 z"/>
<path transform="translate(0,0)" fill="rgb(254,169,168)" d="M 1035.28 598.357 C 1043.29 597.79 1052.59 596.66 1057.28 604.82 C 1058.71 607.303 1059.06 610.265 1058.23 613.01 C 1056.41 619.234 1051.27 622.78 1045.95 625.672 C 1024.39 627.743 1012.41 603.164 1035.28 598.357 z"/>
<path transform="translate(0,0)" fill="rgb(27,46,52)" d="M 1043.14 604.702 C 1046.35 605.191 1046.12 605.309 1048.47 607.631 C 1050.46 614.107 1048.27 616.422 1042.53 618.993 C 1037.89 617.525 1035.52 617.447 1035.37 612.222 C 1037.12 608.561 1039.76 607.186 1043.14 604.702 z"/>
<path transform="translate(0,0)" fill="rgb(254,169,168)" d="M 1091.89 596.372 C 1118.05 595.508 1115.07 617.304 1094.83 624.717 C 1083.56 623.526 1069.86 615.154 1077.68 601.26 C 1080.06 597.045 1087.25 596.806 1091.89 596.372 z"/>
<path transform="translate(0,0)" fill="rgb(27,46,52)" d="M 1086.94 602.459 C 1091.51 604.13 1095.7 605.176 1097.81 609.609 C 1097.63 613.527 1097.66 612.333 1095.07 616.074 C 1089.11 616.636 1086.16 616.698 1083.78 610.629 C 1084 606.278 1084.28 606.126 1086.94 602.459 z"/>
<path transform="translate(0,0)" fill="rgb(27,46,52)" d="M 980.541 603.964 C 984.128 602.296 1001.37 603.714 1005.28 605.217 C 1001.53 618.01 1007.24 642.732 989.929 645.47 C 988.174 643.86 988.16 630.319 987.023 626.024 C 984.991 618.348 983.831 611.438 980.541 603.964 z"/>
<path transform="translate(0,0)" fill="rgb(249,146,145)" d="M 987.828 652.036 C 1001.78 675.133 1025.78 679.884 1050.07 688.171 L 1049.93 696.083 C 1039.45 694.22 1017.94 686.343 1008.44 680.973 C 994.591 673.145 991.731 665.958 987.828 652.036 z"/>
<path transform="translate(0,0)" fill="rgb(249,146,145)" d="M 1059.82 618.23 C 1060.89 613.87 1061.23 610.111 1064.23 606.999 C 1071.44 604.575 1074.45 618.175 1080.19 624.181 C 1080.61 628.87 1082.61 628.716 1081.51 633.87 C 1078.37 636.734 1067.15 638.284 1061.82 639.547 C 1061.64 634.196 1061.84 622.526 1059.82 618.23 z"/>
<path transform="translate(0,0)" fill="rgb(198,102,103)" d="M 1049.53 647.923 C 1054.83 648.002 1062.51 650.459 1060.59 657.197 L 1058.52 657.797 C 1053.3 655.187 1047.75 655.3 1045.48 652.941 C 1046.5 649.627 1046.35 650.559 1049.53 647.923 z"/>
<path transform="translate(0,0)" fill="rgb(157,77,154)" d="M 896.858 845.952 C 896.776 845.744 896.694 845.537 896.612 845.33 C 887.091 808.045 868.273 751.056 910.834 726.751 C 915.714 723.964 922.5 722.383 927.548 721.092 C 965.729 748.77 977.299 828.861 988.928 874.163 C 985.768 878.648 982.05 883.095 978.604 887.394 C 974.063 883.691 929.565 861.463 926.484 861.571 C 923.409 864.227 924.336 863.828 923.173 868.72 L 922.339 868.951 C 921.491 875.153 923.366 879.238 928.158 883.379 C 930.473 886.115 930.856 885.695 931.424 888.781 C 929.494 890.202 928.537 890.289 928.162 891.819 C 924.789 891.397 921.497 890.475 918.395 889.086 C 907.337 884.167 905.16 874.142 901.603 863.83 L 896.858 845.952 z"/>
<path transform="translate(0,0)" fill="rgb(207,104,203)" d="M 927.548 721.092 L 946.927 715.354 C 951.499 721.097 955.376 724.431 961.596 728.487 C 965.065 746.287 968.417 750.78 983.679 761.191 C 984.277 761.597 984.881 761.993 985.491 762.379 C 985.445 778.034 988.386 783.525 998.888 795.148 C 993.021 810.391 994.618 817.947 1005.45 830.292 C 997.527 840.991 995.324 846.704 999.421 860.056 C 995.889 865.208 992.795 869.26 988.928 874.163 C 977.299 828.861 965.729 748.77 927.548 721.092 z"/>
<path transform="translate(0,0)" fill="rgb(254,169,168)" d="M 1008.3 600.338 C 1022.61 580.863 1031.8 583.3 1039.66 555.212 C 1050.27 572.544 1056.63 582.16 1075.99 590.154 C 1072.12 584.73 1059.63 567.532 1064.55 561.238 C 1085.1 579.463 1097.35 571.254 1112.26 589.059 C 1110.74 592.33 1110.94 593.177 1110.91 596.714 C 1102.86 592.717 1092.42 590.637 1083.89 593.591 C 1077.51 595.797 1069.95 606.438 1062.35 601.593 C 1052.01 595.002 1049.02 592.487 1035.52 595.109 C 1022.07 597.721 1021.64 604.325 1008.3 600.338 z"/>
<path transform="translate(0,0)" fill="rgb(27,46,52)" d="M 1040.31 579.838 L 1042.44 580.492 L 1043.47 582.59 C 1042.48 589.43 1038.65 592.271 1032.02 593.315 C 1028.59 590.865 1028.87 591.846 1027.66 588.548 C 1029.44 585.008 1036.33 582.043 1040.31 579.838 z"/>
<path transform="translate(0,0)" fill="rgb(27,46,52)" d="M 1082.19 578.4 C 1087.75 580.242 1094.24 581.921 1098.59 585.718 L 1098.38 588.732 C 1087.35 593.857 1083.4 589.245 1082.19 578.4 z"/>
<path transform="translate(0,0)" fill="rgb(42,67,77)" d="M 974.723 598.82 C 985.777 599.478 996.825 600.217 1007.87 601.037 L 1005.9 605.177 L 1005.28 605.217 C 1001.37 603.714 984.128 602.296 980.541 603.964 C 979.641 603.509 975.729 599.747 974.723 598.82 z"/>
<path transform="translate(0,0)" fill="rgb(250,251,251)" d="M 1110.91 596.714 C 1110.94 593.177 1110.74 592.33 1112.26 589.059 C 1116.1 595.723 1117.45 599.844 1117.7 607.526 C 1117.39 608.136 1116.74 609.597 1116.35 610.049 L 1114.79 610.407 C 1112.87 604.054 1114.86 604.689 1110.91 596.714 z"/>
<path transform="translate(0,0)" fill="rgb(207,104,203)" d="M 662.916 75.5834 C 694.154 72.0657 744.146 75.4638 769.108 96.0317 C 785.725 109.361 793.476 126.786 795.755 147.693 C 800.259 189.017 785.32 220.811 740.115 224.412 C 740.597 237.503 740.923 250.599 741.095 263.697 C 731.051 253.678 719.198 239.911 709.498 229.263 C 702.146 229.866 694.272 230.13 686.864 230.504 C 644.959 231.288 571.687 231.457 536.98 205.302 C 525.992 196.701 519.606 181.786 518.324 168.099 C 511.34 93.5437 609.917 80.9022 662.916 75.5834 z"/>
<path transform="translate(0,0)" fill="rgb(207,104,203)" d="M 1300.31 75.5746 C 1336.08 71.5054 1409.08 77.3334 1434.8 101.008 C 1461.35 125.445 1465.72 189.284 1438.28 215.199 C 1415.11 237.084 1367.04 234.781 1337.09 235.602 C 1336.06 242.406 1335.3 249.881 1334.45 256.764 C 1333.77 259.38 1331.71 277.067 1331.16 280.933 C 1320.52 266.11 1309.45 248.292 1299.15 232.868 C 1275.78 231.058 1237.22 227.382 1219.66 211.256 C 1184.85 179.292 1211.39 100.864 1252.45 85.0746 C 1267.02 79.472 1285.03 76.6766 1300.31 75.5746 z"/>
<path transform="translate(0,0)" fill="rgb(207,104,203)" d="M 1567.71 182.452 C 1595.75 180.513 1638.81 182.889 1662.69 198.379 C 1694.13 218.782 1710.04 271.809 1687.77 304.134 C 1673.87 324.321 1649.11 329.128 1626.8 333.5 C 1627.1 346.467 1628.31 360.915 1629.17 373.934 C 1623.31 369.278 1616.71 363.272 1610.96 358.31 C 1604.46 352.013 1590.58 340.246 1583.39 335.274 C 1553.1 334.714 1498.47 332.282 1475.05 313.993 C 1445.21 290.694 1464.52 237.141 1484.9 213.662 C 1506.91 188.311 1536.43 184.94 1567.71 182.452 z"/>
<path transform="translate(0,0)" fill="rgb(207,104,203)" d="M 388.153 194.444 C 392.965 194.274 397.779 194.166 402.594 194.122 C 437.217 193.746 484.464 196.325 510.42 221.85 C 532.111 243.18 540.533 282.953 515.336 305.298 C 481.213 335.557 428.75 335.919 385.751 334.909 C 376.331 334.861 357.779 332.518 348.013 331.436 C 335.747 342.275 324.43 353.891 311.708 364.92 C 313.663 353.595 314.476 333.221 315.269 321.018 C 312.017 318.436 308.8 315.809 305.619 313.14 C 245.698 261.916 287.328 209.444 349.741 198.818 C 363.36 196.499 374.387 195.266 388.153 194.444 z"/>
<path transform="translate(0,0)" fill="rgb(42,67,77)" d="M 1067.47 1534.38 C 1088.66 1539.02 1110.81 1538.59 1130.46 1528.73 C 1131.3 1546.33 1128.87 1562.38 1130.04 1580.19 C 1131.14 1580.81 1132.24 1581.42 1133.34 1582.04 C 1137.33 1590.68 1139.41 1598.16 1144.21 1606.46 L 1145.15 1610.35 C 1149.2 1611.68 1152.26 1615.49 1155.16 1618.78 L 1157.49 1622.48 C 1161.32 1624.59 1164.03 1626.65 1166.92 1630.01 L 1170.73 1633.84 C 1175.4 1636.38 1178.03 1638.5 1182.19 1641.68 L 1187.81 1645.91 C 1192.82 1649.01 1198.82 1653.04 1204.12 1655.35 C 1218.4 1660.55 1234.9 1666.59 1234.4 1684.31 C 1231.58 1699.49 1221.7 1702.23 1207.95 1705.23 C 1183.41 1710.59 1154.78 1705.39 1134.2 1690.82 C 1123.36 1683.15 1113.66 1673.69 1101.77 1667.53 C 1091.91 1662.43 1079.11 1661.63 1069.74 1655.18 C 1064.81 1651.79 1065.09 1648.98 1064.16 1643.07 C 1063.91 1632.25 1068.79 1588.15 1073.72 1580.6 L 1067.47 1534.38 z"/>
<path transform="translate(0,0)" fill="rgb(254,169,168)" d="M 1067.47 1534.38 C 1088.66 1539.02 1110.81 1538.59 1130.46 1528.73 C 1131.3 1546.33 1128.87 1562.38 1130.04 1580.19 C 1122.81 1582.31 1103.49 1582.02 1098.38 1587.66 C 1093.97 1592.54 1097.16 1602.24 1098.05 1608.25 C 1094.57 1602.95 1091.44 1598.09 1088.21 1592.64 C 1083.48 1591.17 1079.2 1590.45 1075.84 1587.05 C 1074.65 1584.26 1074.44 1583.55 1073.72 1580.6 L 1067.47 1534.38 z"/>
<path transform="translate(0,0)" fill="rgb(250,251,251)" d="M 1204.12 1655.35 C 1218.4 1660.55 1234.9 1666.59 1234.4 1684.31 C 1224.99 1695.62 1214.33 1698.85 1200.01 1700.19 C 1185.43 1701.65 1170.7 1699.67 1157.02 1694.41 C 1157.41 1665.28 1180.19 1658.87 1204.12 1655.35 z"/>
<path transform="translate(0,0)" fill="rgb(27,46,52)" d="M 1064.16 1643.07 C 1080.89 1653.94 1091.66 1655.14 1106.34 1663.37 C 1127.33 1675.13 1132.25 1684.93 1157.02 1694.41 C 1170.7 1699.67 1185.43 1701.65 1200.01 1700.19 C 1214.33 1698.85 1224.99 1695.62 1234.4 1684.31 C 1231.58 1699.49 1221.7 1702.23 1207.95 1705.23 C 1183.41 1710.59 1154.78 1705.39 1134.2 1690.82 C 1123.36 1683.15 1113.66 1673.69 1101.77 1667.53 C 1091.91 1662.43 1079.11 1661.63 1069.74 1655.18 C 1064.81 1651.79 1065.09 1648.98 1064.16 1643.07 z"/>
<path transform="translate(0,0)" fill="rgb(250,251,251)" d="M 1145.15 1610.35 C 1128.5 1610.67 1125.6 1612.22 1112.83 1620.66 L 1111.21 1619.78 C 1110.5 1610.13 1136.95 1606.95 1144.21 1606.46 L 1145.15 1610.35 z"/>
<path transform="translate(0,0)" fill="rgb(250,251,251)" d="M 1155.16 1618.78 L 1157.49 1622.48 C 1138.17 1623.6 1136.67 1628.95 1120.98 1636.19 C 1131.01 1623.3 1139.43 1620.43 1155.16 1618.78 z"/>
<path transform="translate(0,0)" fill="rgb(250,251,251)" d="M 1182.19 1641.68 L 1187.81 1645.91 C 1173.61 1645.94 1174.25 1646.32 1160.62 1652.73 C 1158.55 1653.7 1155.42 1655.09 1153.24 1654.2 C 1158.25 1645.57 1173.11 1643.12 1182.19 1641.68 z"/>
<path transform="translate(0,0)" fill="rgb(250,251,251)" d="M 1166.92 1630.01 L 1170.73 1633.84 C 1148.95 1634.97 1151.67 1640.8 1139.08 1643.27 L 1137.85 1642.41 C 1142.58 1634.03 1158.09 1631.31 1166.92 1630.01 z"/>
<path transform="translate(0,0)" fill="rgb(42,67,77)" d="M 903.861 1546.77 C 919.686 1554.65 931.941 1556.11 950.061 1554.97 C 954.243 1554.7 960.676 1551.79 964.169 1552.89 L 964.639 1554.74 C 963.391 1561.92 957.93 1591.37 957.896 1597.67 C 959.83 1604.78 957.532 1635.47 956.852 1644.17 C 954.796 1670.51 958.016 1694.78 958.152 1720.5 C 958.084 1730.79 956.752 1732.79 955.618 1742.04 C 948.634 1777.61 917.18 1781.71 891.696 1758.32 C 882.817 1750.17 881.032 1732.34 881.857 1720.48 C 881.341 1700.17 890.958 1672.93 894.801 1652.68 C 897.366 1639.16 897.717 1604.86 904.231 1594.91 C 905.495 1590.45 904.05 1555.07 903.861 1546.77 z"/>
<path transform="translate(0,0)" fill="rgb(250,251,251)" d="M 882.677 1720.17 C 882.889 1716.5 882.291 1714.72 885.057 1712.06 C 892.526 1704.88 909.897 1705.16 919.68 1705.92 C 933.002 1706.96 948.682 1710.61 958.152 1720.5 C 958.084 1730.79 956.752 1732.79 955.618 1742.04 C 948.634 1777.61 917.18 1781.71 891.696 1758.32 C 882.817 1750.17 881.032 1732.34 881.857 1720.48 L 882.677 1720.17 z"/>
<path transform="translate(0,0)" fill="rgb(27,46,52)" d="M 881.857 1720.48 L 882.677 1720.17 C 883.325 1733.89 885.579 1744.85 896.089 1754.87 C 909.81 1767.95 933.131 1772.5 947.035 1757.21 C 949.82 1754.08 953.638 1745.88 955.618 1742.04 C 948.634 1777.61 917.18 1781.71 891.696 1758.32 C 882.817 1750.17 881.032 1732.34 881.857 1720.48 z"/>
<path transform="translate(0,0)" fill="rgb(254,169,168)" d="M 903.861 1546.77 C 919.686 1554.65 931.941 1556.11 950.061 1554.97 C 954.243 1554.7 960.676 1551.79 964.169 1552.89 L 964.639 1554.74 C 963.391 1561.92 957.93 1591.37 957.896 1597.67 C 956.051 1601.37 954.356 1616.74 953.47 1622.07 C 952.348 1616.15 952.998 1609.88 950.113 1606.04 C 942.829 1602.47 917.287 1601.4 911.109 1603.44 C 906.977 1607 907.654 1609.33 904.678 1613.29 C 904.73 1607.3 904.813 1602.05 904.331 1596.07 L 904.231 1594.91 C 905.495 1590.45 904.05 1555.07 903.861 1546.77 z"/>
<path transform="translate(0,0)" fill="rgb(250,251,251)" d="M 912.82 1651.3 C 924.797 1650.51 936.875 1650.94 947.134 1658.25 L 947.206 1659.68 C 943.88 1660.44 942.26 1659.34 938.987 1658.08 L 937.638 1657.54 C 923.65 1653.37 917.829 1655.3 903.978 1657.22 C 902.014 1657.49 899.847 1657.46 898.355 1656.08 C 901.226 1653.27 908.784 1651.99 912.82 1651.3 z"/>
<path transform="translate(0,0)" fill="rgb(250,251,251)" d="M 919.707 1632.42 C 925.649 1632.64 946.895 1635.35 948.843 1640.9 C 942.623 1641.51 937.224 1639.17 931.09 1637.32 C 927.026 1636.78 923.075 1636.39 918.971 1636.55 C 914.578 1636.73 903.742 1639.76 899.831 1638.5 L 899.979 1637.26 C 904.785 1633.02 913.188 1632.92 919.707 1632.42 z"/>
<path transform="translate(0,0)" fill="rgb(250,251,251)" d="M 905.001 1687.22 C 913.224 1686.53 941.988 1686.27 945.659 1694.4 L 944.452 1695.52 L 941.373 1694.9 C 930.538 1691.5 923.391 1690.74 911.911 1691.14 C 908.05 1691.28 900.105 1692.12 896.992 1691.37 L 896.473 1690.08 C 899.385 1687.91 901.431 1687.88 905.001 1687.22 z"/>
<path transform="translate(0,0)" fill="rgb(250,251,251)" d="M 911.296 1668.31 C 922.987 1667.63 935.302 1668.41 945.338 1675.12 L 945.434 1676.6 C 941.909 1677.16 940.336 1676.19 936.946 1674.94 L 935.598 1674.43 C 930.723 1673.38 927.2 1672.69 922.192 1672.23 C 917.342 1671.78 901.298 1675 898.48 1672.95 C 901.95 1669.3 906.537 1668.99 911.296 1668.31 z"/>
<path transform="translate(0,0)" fill="rgb(207,104,203)" fill-opacity="0.94902" d="M 887.342 463.84 C 884.942 456.322 885.344 449.02 889.393 442.185 C 902.92 419.351 927.567 406.18 952.61 399.743 C 961.245 397.523 962.534 399.636 968.956 398.863 C 979.569 397.586 990.838 392.721 1001.47 399.3 C 1013.43 406.707 997.564 420.809 999.625 428.986 C 1003.73 431.504 1012.39 428.914 1017.48 428.958 C 1025.07 429.024 1038.05 430.391 1041.77 438.279 C 1045.97 447.164 1039.55 453.115 1037.14 461.105 C 1038.13 462.859 1038.13 462.064 1037.84 463.385 C 1032.12 464.058 1014.99 475.47 1008.27 478.287 C 995.387 483.689 990.144 483.333 976.767 483.003 C 956.447 495.281 948.961 499.801 925.086 499.162 C 900.365 498.499 872.515 498.485 887.342 463.84 z M 912.631 471.462 C 913.76 471.113 914.888 470.764 916.017 470.416 C 919.771 465.219 924.333 457.639 928.068 452.736 C 943.461 432.528 970.165 411.085 996.903 421.73 C 1000.6 415.503 1003.32 412.618 1002.62 405.434 C 998.63 397.421 988.848 399.161 981.198 399.451 L 976.764 400.724 L 976.512 401.774 L 977.735 403.463 C 974.583 403.61 969.931 402.286 968.065 402.926 C 944.647 410.953 920.866 428.092 904.15 446.137 C 900.779 449.776 892.22 460.58 891.754 464 C 896.252 469.499 905.59 470.355 912.631 471.462 z M 1006.61 433.434 C 998.334 440.787 992.481 450.038 993.994 461.561 L 995.044 462.121 L 996.852 461.039 C 1001.78 454.554 1009.71 445.762 1010.62 438.022 C 1009.15 434.278 1010.3 435.865 1006.61 433.434 z M 974.716 480.193 C 982.68 475.26 986.729 471.575 992.934 464.669 C 992.261 461.3 991.304 457.16 990.786 453.843 C 986.456 459.326 972.56 473.022 971.855 477.212 L 974.716 480.193 z M 941.207 496.214 C 949.973 493.905 965.452 488.877 971.485 482.133 L 971.811 480.116 L 968.411 477.27 C 957.339 484.96 950.028 490.229 937.388 495.521 C 939.911 496.404 938.635 496.189 941.207 496.214 z M 938.169 465.66 C 956.582 457.616 963.707 453.093 977.776 438.218 C 981.936 433.82 988.514 431.665 993.34 425.607 L 993.572 423.654 C 990.325 420.578 981.931 421.537 977.512 422.158 C 952.624 428.376 935.571 444.237 922.471 465.984 C 921.649 467.351 920.843 468.728 920.053 470.114 C 927.342 469.053 931.219 468.643 938.169 465.66 z M 995.069 480.471 C 1000.5 478.767 1002.33 477.998 1007.4 475.393 C 1001.23 473.317 1000.99 473.205 995.737 469.806 L 994.059 468.743 C 990.743 471.626 983.835 476.731 982.917 480.364 C 985.617 482.182 991.759 480.955 995.069 480.471 z M 953.511 402.257 C 931.787 405.041 888.08 428.818 887.664 456.847 C 887.633 458.977 888.003 459.079 889.487 460.303 L 891.078 458.432 C 903.742 439.81 919.335 427.18 938.07 414.683 C 942.736 411.57 955.185 405.5 958.33 402.081 C 955.932 401.868 955.821 401.736 953.511 402.257 z M 1033.85 459.366 C 1039.68 451.486 1046.89 440.529 1034.25 434.7 C 1036.31 448.476 1029.53 455.03 1031 460.404 C 1033.29 460.173 1032.38 460.623 1033.85 459.366 z M 1027 457.381 C 1030.25 451.491 1036.85 441.369 1030.44 435.562 C 1022.23 442.124 1022.69 448.285 1027 457.381 z M 1015.67 430.208 L 1011.11 432.25 C 1020.92 449.439 997.143 456.05 997.798 468.903 C 1000.98 472.54 1006.18 472.095 1010.64 472.011 C 1018.55 469.671 1021.23 465.297 1026.26 458.928 C 1019.71 447.183 1022.07 444.843 1026.99 432.868 C 1024.67 429.277 1019.68 430.121 1015.67 430.208 z M 969.728 472.502 C 979.691 463.006 992.588 449.422 995.582 435.451 C 994.835 433.015 995.564 433.951 993.416 432.629 C 979.516 444.146 964.511 452.11 968.199 472.072 L 969.728 472.502 z M 915.133 473.934 C 904.968 472.651 898.613 472.291 889.921 466.165 C 877.281 492.559 895.731 497.095 919.069 497.197 L 920.459 496.108 L 919.723 494.909 C 914.487 486.231 913.895 483.718 915.133 473.934 z M 966.773 474.658 C 965.861 468.564 966.038 457.775 965.473 454.965 C 949.913 463.851 937.006 469.138 919.759 474.011 C 912.772 475.986 918.373 489.724 922.189 493.862 C 934.277 498.625 957.375 481.817 966.773 474.658 z"/>
<path transform="translate(0,0)" fill="rgb(157,77,154)" fill-opacity="0.917647" d="M 1037.14 461.105 C 1043.15 459.761 1047.71 453.699 1051.91 449.281 L 1052.27 450.19 C 1049.79 455.148 1043.75 463.041 1037.84 463.385 C 1038.13 462.064 1038.13 462.859 1037.14 461.105 z"/>
</svg>