<svg version="1.1" xmlns="http://www.w3.org/2000/svg" style="display: block;" viewBox="0 0 2048 1704" width="2000" height="1664" preserveAspectRatio="none">
<defs>
	<linearGradient id="Gradient1" gradientUnits="userSpaceOnUse" x1="1578.12" y1="587.852" x2="1806.21" y2="1083">
		<stop class="stop0" offset="0" stop-opacity="1" stop-color="rgb(142,170,111)"/>
		<stop class="stop1" offset="1" stop-opacity="1" stop-color="rgb(197,193,109)"/>
	</linearGradient>
	<linearGradient id="Gradient2" gradientUnits="userSpaceOnUse" x1="494.479" y1="872.209" x2="340.793" y2="406.701">
		<stop class="stop0" offset="0" stop-opacity="1" stop-color="rgb(168,195,128)"/>
		<stop class="stop1" offset="1" stop-opacity="1" stop-color="rgb(114,174,143)"/>
	</linearGradient>
	<linearGradient id="Gradient3" gradientUnits="userSpaceOnUse" x1="1312.01" y1="1588.57" x2="1049.44" y2="1046.7">
		<stop class="stop0" offset="0" stop-opacity="1" stop-color="rgb(247,212,104)"/>
		<stop class="stop1" offset="1" stop-opacity="1" stop-color="rgb(180,199,118)"/>
	</linearGradient>
</defs>
<path transform="translate(0,0)" fill="rgb(120,143,112)" d="M 978.065 171.529 C 1035.79 120.395 1118.23 81.0642 1196.91 84.0416 C 1260.6 86.4517 1341.58 107.424 1394.1 144.485 C 1396.85 145.583 1397.1 145.965 1400.05 145.477 C 1487.02 135.434 1564.42 151.499 1632.85 207.586 C 1658.19 228.356 1697.34 265.655 1713.37 294.188 C 1724.77 288.235 1784.58 251.435 1789.51 250.933 C 1804.25 260.038 1820.21 267.033 1834 277.379 C 1853.56 292.052 1867.35 312.954 1873.1 336.78 C 1878.81 360.595 1879.11 385.388 1873.96 409.332 C 1873.01 413.923 1868.8 429.543 1868.58 431.975 L 1869.17 432.947 C 1864.99 436.326 1854.19 439.286 1849.35 441.718 C 1835.31 448.769 1790.81 464.353 1781.03 471.671 C 1786.57 493.317 1789.85 518.886 1792.2 541.107 C 1800.44 619.259 1798.11 698.41 1791.15 776.576 C 1788.4 807.548 1784.99 847.287 1778 877.492 C 1777.56 885.083 1777.01 892.876 1776.78 900.46 C 1781.55 928.003 1780.11 978.621 1778.37 1007.26 C 1771.23 1124.55 1735.79 1241.41 1667.52 1338.27 C 1645.61 1369.51 1620.42 1398.3 1592.36 1424.14 C 1491.46 1516.71 1340.47 1586.56 1206.13 1609.45 C 1037.57 1637.83 864.459 1619.56 705.547 1556.6 C 636.812 1530.12 571.666 1497.32 511.621 1454.15 C 484.532 1434.67 423.051 1384.59 403.669 1357.28 C 401.728 1355.73 394.979 1355.53 392.49 1355.42 C 343.264 1353.05 299.295 1354.59 259.731 1319 C 231.071 1293.22 218.646 1273.84 220.364 1235.15 C 222.393 1235.94 227.282 1239.68 229.48 1241.07 C 263.656 1262.82 300.805 1268.65 340.944 1268.68 C 421.673 1268.75 502.191 1238.77 575.815 1207.96 L 576.282 1203.43 C 574.216 1193.43 573.309 1173.01 572.856 1162.63 C 571.272 1127 571.509 1091.31 573.565 1055.7 L 574.028 1051.62 C 574.477 1032.67 579.222 997.281 582.122 978.579 C 586.735 952.368 594.889 922.808 603.424 897.786 C 585.98 880.219 557.85 862.884 538.835 846.353 C 527.604 836.588 486.69 814.372 479.848 804.734 C 475.298 804.826 456.267 792.279 451.07 789.485 C 414.889 770.036 379.986 755.206 338.242 760.351 C 313.302 769.49 288.735 791.759 297.166 822.188 C 297.951 825.023 301.008 830.819 302.35 833.771 C 294.398 856.542 288.025 879.835 283.278 903.484 C 281.711 911.469 276.345 945.994 274.084 951.164 C 273.064 948.729 272.123 946.261 271.263 943.764 C 265.784 927.698 261.648 901.707 259.114 884.953 C 242.792 777.5 259.419 667.624 306.804 569.813 C 344.982 491.402 412.748 407.746 489.28 364.039 C 513.657 350.117 535.485 341.409 561.925 332.303 C 565.12 331.243 569.94 330.086 572.141 327.838 C 577.857 318.494 588.118 309.199 595.84 301.287 C 682.596 212.397 809.185 159.915 933.768 168.342 C 946.08 169.175 963.428 170.282 974.826 174.181 L 978.065 171.529 z"/>
<path transform="translate(0,0)" fill="url(#Gradient3)" d="M 1701.14 1135.61 C 1728.92 1085.05 1747.14 1019.94 1762.09 964.34 C 1764.23 956.387 1766.3 947.693 1768.48 939.753 C 1770.87 931.062 1771.76 906.886 1776.78 900.46 C 1781.55 928.003 1780.11 978.621 1778.37 1007.26 C 1771.23 1124.55 1735.79 1241.41 1667.52 1338.27 C 1645.61 1369.51 1620.42 1398.3 1592.36 1424.14 C 1491.46 1516.71 1340.47 1586.56 1206.13 1609.45 C 1037.57 1637.83 864.459 1619.56 705.547 1556.6 C 636.812 1530.12 571.666 1497.32 511.621 1454.15 C 484.532 1434.67 423.051 1384.59 403.669 1357.28 C 401.728 1355.73 394.979 1355.53 392.49 1355.42 C 343.264 1353.05 299.295 1354.59 259.731 1319 C 231.071 1293.22 218.646 1273.84 220.364 1235.15 C 222.393 1235.94 227.282 1239.68 229.48 1241.07 C 263.656 1262.82 300.805 1268.65 340.944 1268.68 C 421.673 1268.75 502.191 1238.77 575.815 1207.96 C 574.169 1308.13 649.685 1330.53 736.331 1318.28 C 756.461 1315.43 771.063 1313.73 791.519 1315.52 C 840.436 1317.65 875.609 1299.78 908.886 1264.9 C 937.757 1237.46 955.213 1214.36 979.947 1185.38 C 998.368 1221.86 1016.36 1258.56 1033.91 1295.47 L 1056.11 1295.58 C 1089.25 1294.3 1120.85 1290.71 1151.91 1278.45 C 1157.07 1284.55 1156.13 1289.54 1158.74 1291.7 L 1160.59 1293.18 C 1171.82 1292.06 1183.15 1293.12 1193.96 1296.3 C 1199.94 1297.99 1220.76 1307.47 1223.2 1307.14 C 1225.27 1298.47 1243.81 1293.02 1251.1 1290.61 C 1249.62 1289.19 1231.08 1242.2 1230.52 1237.48 L 1239.4 1232.85 C 1238.36 1227.18 1237.74 1223.35 1237.26 1217.63 L 1238.62 1216.22 L 1239.51 1214.51 C 1243.09 1213.1 1264.59 1211.18 1273.26 1208.31 C 1316 1194.16 1336.08 1165.76 1350.16 1124.55 C 1356.84 1105 1361.8 1086.14 1371.36 1067.98 L 1374.15 1063.72 C 1394.11 1030.34 1412.34 1037.35 1438.07 1013.08 C 1456.87 995.333 1463.74 971.193 1464.12 945.903 C 1502.96 947.33 1540.29 952.453 1576.22 967.346 C 1579.49 968.704 1584.37 970.967 1587.57 971.909 C 1601.23 980.422 1617.03 989.131 1629.44 999.08 C 1644.15 1010.87 1670.33 1036.74 1676.51 1054.23 C 1694.01 1088.06 1696.83 1098.43 1701.14 1135.61 z"/>
<path transform="translate(0,0)" fill="rgb(89,98,145)" d="M 575.815 1207.96 C 574.169 1308.13 649.685 1330.53 736.331 1318.28 C 756.461 1315.43 771.063 1313.73 791.519 1315.52 C 840.436 1317.65 875.609 1299.78 908.886 1264.9 C 937.757 1237.46 955.213 1214.36 979.947 1185.38 C 998.368 1221.86 1016.36 1258.56 1033.91 1295.47 L 1056.11 1295.58 C 1089.25 1294.3 1120.85 1290.71 1151.91 1278.45 C 1157.07 1284.55 1156.13 1289.54 1158.74 1291.7 L 1160.59 1293.18 C 1171.82 1292.06 1183.15 1293.12 1193.96 1296.3 C 1199.94 1297.99 1220.76 1307.47 1223.2 1307.14 C 1225.27 1298.47 1243.81 1293.02 1251.1 1290.61 C 1249.62 1289.19 1231.08 1242.2 1230.52 1237.48 L 1239.4 1232.85 C 1238.36 1227.18 1237.74 1223.35 1237.26 1217.63 L 1238.62 1216.22 C 1272.39 1223.51 1306.17 1235.41 1339.1 1246.16 C 1426.69 1274.76 1522.6 1294.64 1612.5 1262.63 C 1598.39 1391.25 1375.48 1440.68 1272.48 1446.62 C 1237.98 1448.61 1201.57 1446.92 1167.16 1443.47 C 1159.2 1442.73 1151.62 1441.38 1143.52 1440.99 C 1121.02 1436.15 1096.05 1433.74 1073.11 1430.06 C 1033.63 1423.72 994.44 1417.62 954.301 1418.99 C 908.106 1420.56 864.118 1435.06 818.851 1443.05 C 813.927 1443.92 807.584 1444.88 802.862 1446.18 C 794.589 1446.31 774.873 1450.11 765.083 1450.94 C 728.419 1454.07 691.363 1456.62 655.121 1449.4 C 608.893 1440.19 579.708 1416.96 540.467 1396.51 C 509.556 1380.3 476.448 1368.69 442.187 1362.04 C 432.376 1360.08 413.309 1356.15 403.669 1357.28 C 401.728 1355.73 394.979 1355.53 392.49 1355.42 C 343.264 1353.05 299.295 1354.59 259.731 1319 C 231.071 1293.22 218.646 1273.84 220.364 1235.15 C 222.393 1235.94 227.282 1239.68 229.48 1241.07 C 263.656 1262.82 300.805 1268.65 340.944 1268.68 C 421.673 1268.75 502.191 1238.77 575.815 1207.96 z"/>
<path transform="translate(0,0)" fill="rgb(67,66,71)" d="M 1056.11 1295.58 C 1089.25 1294.3 1120.85 1290.71 1151.91 1278.45 C 1157.07 1284.55 1156.13 1289.54 1158.74 1291.7 L 1160.59 1293.18 C 1171.82 1292.06 1183.15 1293.12 1193.96 1296.3 C 1199.94 1297.99 1220.76 1307.47 1223.2 1307.14 C 1225.27 1298.47 1243.81 1293.02 1251.1 1290.61 L 1254.24 1292.86 C 1298.52 1291.61 1341.3 1315.69 1347.08 1362.57 C 1341.55 1363.42 1324.27 1363.16 1318.28 1363.15 L 1263.73 1362.99 C 1200.84 1362.58 1137.95 1362.52 1075.06 1362.82 C 1068.68 1343.19 1060.71 1315.08 1056.11 1295.58 z"/>
<path transform="translate(0,0)" fill="rgb(49,50,53)" d="M 1251.1 1290.61 L 1254.24 1292.86 C 1298.52 1291.61 1341.3 1315.69 1347.08 1362.57 C 1339.79 1361.75 1321.9 1362.28 1313.93 1362.3 L 1254.73 1362.21 C 1253.39 1351.02 1251.96 1342.22 1245.88 1332.47 C 1240.17 1323.29 1229.83 1316.72 1224.09 1308.23 L 1223.2 1307.14 C 1225.27 1298.47 1243.81 1293.02 1251.1 1290.61 z"/>
<path transform="translate(0,0)" fill="rgb(254,254,253)" d="M 1251.1 1290.61 L 1254.24 1292.86 C 1241 1296.54 1234.55 1299.15 1224.09 1308.23 L 1223.2 1307.14 C 1225.27 1298.47 1243.81 1293.02 1251.1 1290.61 z"/>
<path transform="translate(0,0)" fill="rgb(254,254,253)" d="M 1160.59 1293.18 C 1153.03 1297.58 1137.81 1301.02 1130.29 1309.77 C 1125.89 1314.89 1123.52 1320.08 1118.39 1325.18 L 1117.13 1324.68 C 1116.61 1320.85 1118.97 1318.35 1121.21 1315.33 C 1129.74 1303.84 1144.31 1293.66 1158.74 1291.7 L 1160.59 1293.18 z"/>
<path transform="translate(0,0)" fill="rgb(120,143,112)" d="M 802.862 1446.18 C 807.584 1444.88 813.927 1443.92 818.851 1443.05 C 864.118 1435.06 908.106 1420.56 954.301 1418.99 C 994.44 1417.62 1033.63 1423.72 1073.11 1430.06 C 1096.05 1433.74 1121.02 1436.15 1143.52 1440.99 C 1063.07 1462.17 975.302 1473.58 892.281 1463.86 C 859.258 1460 834.838 1454.05 802.862 1446.18 z"/>
<path transform="translate(0,0)" fill="rgb(194,201,115)" d="M 1371.36 1067.98 L 1374.15 1063.72 C 1391.38 1063.12 1410.86 1062.46 1428.34 1063.63 C 1496.11 1068.17 1568.87 1093.28 1620.26 1138.54 C 1625.22 1142.9 1629.94 1148.6 1633.43 1154.14 C 1625.55 1150.21 1618.59 1142.96 1611.75 1137.37 C 1603.08 1130.28 1594.66 1123.29 1584.95 1117.6 C 1517.11 1075.78 1449.52 1065.01 1371.36 1067.98 z"/>
<path transform="translate(0,0)" fill="rgb(253,216,118)" d="M 830.083 731.27 C 832.199 734.644 834.528 738.024 836.747 741.344 L 837.327 736.993 C 843.901 745.683 848.782 752.075 857.288 759.218 L 858.657 764.084 C 864.302 769.092 878.937 776.364 880.116 778.833 L 882.968 781.535 L 891.244 784.125 C 908.971 786.683 1010.52 799.881 1019 808.298 C 1017.42 821.732 1015.63 845.682 1014.73 859.733 C 1058.2 862.418 1089.13 882.4 1118.21 913.961 C 1133.07 930.081 1140.7 946.317 1152.94 961.834 C 1156.76 972.958 1168.3 989.042 1173.63 1000.93 C 1192.69 1043.27 1207.79 1087.29 1218.75 1132.41 C 1220.98 1141.8 1235.34 1212.15 1237.31 1213.93 L 1239.51 1214.51 L 1238.62 1216.22 L 1237.26 1217.63 C 1237.74 1223.35 1238.36 1227.18 1239.4 1232.85 L 1230.52 1237.48 C 1231.08 1242.2 1249.62 1289.19 1251.1 1290.61 C 1243.81 1293.02 1225.27 1298.47 1223.2 1307.14 C 1220.76 1307.47 1199.94 1297.99 1193.96 1296.3 C 1183.15 1293.12 1171.82 1292.06 1160.59 1293.18 L 1158.74 1291.7 C 1156.13 1289.54 1157.07 1284.55 1151.91 1278.45 C 1120.85 1290.71 1089.25 1294.3 1056.11 1295.58 L 1033.91 1295.47 C 1016.36 1258.56 998.368 1221.86 979.947 1185.38 C 955.213 1214.36 937.757 1237.46 908.886 1264.9 C 875.609 1299.78 840.436 1317.65 791.519 1315.52 C 771.063 1313.73 756.461 1315.43 736.331 1318.28 C 649.685 1330.53 574.169 1308.13 575.815 1207.96 L 576.282 1203.43 C 574.216 1193.43 573.309 1173.01 572.856 1162.63 C 571.272 1127 571.509 1091.31 573.565 1055.7 L 574.028 1051.62 C 574.477 1032.67 579.222 997.281 582.122 978.579 C 586.735 952.368 594.889 922.808 603.424 897.786 C 615.455 867.652 629.935 840.978 652.251 817.079 C 683.393 787.845 712.597 774.756 755.61 772.879 L 781.039 772.633 C 787.297 772.945 794.884 772.214 800.814 772.911 C 807.93 773.748 804.959 777.928 807.297 781.574 L 809.13 780.877 C 811.958 775.253 814.179 768.105 816.695 762.158 C 821.073 751.814 825.564 741.552 830.083 731.27 z"/>
<path transform="translate(0,0)" fill="rgb(254,157,92)" d="M 830.083 731.27 C 832.199 734.644 834.528 738.024 836.747 741.344 L 837.327 736.993 C 843.901 745.683 848.782 752.075 857.288 759.218 L 858.657 764.084 C 864.302 769.092 878.937 776.364 880.116 778.833 L 882.968 781.535 L 891.244 784.125 C 908.971 786.683 1010.52 799.881 1019 808.298 C 1017.42 821.732 1015.63 845.682 1014.73 859.733 C 1001.24 860.104 970.26 862.627 959.926 870.338 L 958.935 871.146 C 909.799 851.401 849.459 880.4 808.232 906.913 C 803.149 899.14 775.782 861.739 774.531 856.722 L 777.279 853.934 C 765.746 854.312 694.198 926.735 689.412 940.115 C 688.242 943.356 682.681 950.548 680.407 953.688 C 689.441 963.621 698.355 973.661 707.147 983.808 L 705.061 984.618 L 713.292 993.153 C 703.761 1005.49 692.977 1016.17 683.238 1028.76 C 649.9 1071.85 613.705 1118.67 589.039 1167.27 C 583.455 1178.27 580.257 1192.15 576.282 1203.43 C 574.216 1193.43 573.309 1173.01 572.856 1162.63 C 571.272 1127 571.509 1091.31 573.565 1055.7 L 574.028 1051.62 C 574.477 1032.67 579.222 997.281 582.122 978.579 C 586.735 952.368 594.889 922.808 603.424 897.786 C 615.455 867.652 629.935 840.978 652.251 817.079 C 683.393 787.845 712.597 774.756 755.61 772.879 L 781.039 772.633 C 787.297 772.945 794.884 772.214 800.814 772.911 C 807.93 773.748 804.959 777.928 807.297 781.574 L 809.13 780.877 C 811.958 775.253 814.179 768.105 816.695 762.158 C 821.073 751.814 825.564 741.552 830.083 731.27 z"/>
<path transform="translate(0,0)" fill="rgb(254,254,253)" d="M 830.083 731.27 C 832.199 734.644 834.528 738.024 836.747 741.344 L 837.327 736.993 C 843.901 745.683 848.782 752.075 857.288 759.218 L 858.657 764.084 C 864.302 769.092 878.937 776.364 880.116 778.833 L 882.968 781.535 L 891.244 784.125 C 896.65 799.794 902.289 837.961 890.369 852.083 C 872.137 873.682 835.692 857.231 818.536 842.182 C 796.937 823.237 783.741 801.304 781.039 772.633 C 787.297 772.945 794.884 772.214 800.814 772.911 C 807.93 773.748 804.959 777.928 807.297 781.574 L 809.13 780.877 C 811.958 775.253 814.179 768.105 816.695 762.158 C 821.073 751.814 825.564 741.552 830.083 731.27 z"/>
<path transform="translate(0,0)" fill="rgb(14,14,14)" d="M 880.116 778.833 L 882.968 781.535 C 878.764 788.815 873.247 806.582 868.771 809.308 L 867.493 808.023 C 868.017 803.532 877.711 783.596 880.116 778.833 z"/>
<path transform="translate(0,0)" fill="rgb(14,14,14)" d="M 837.327 736.993 C 843.901 745.683 848.782 752.075 857.288 759.218 L 858.657 764.084 C 849.731 757.68 843.428 749.885 836.747 741.344 L 837.327 736.993 z"/>
<path transform="translate(0,0)" fill="rgb(49,50,53)" d="M 680.407 953.688 C 689.441 963.621 698.355 973.661 707.147 983.808 L 705.061 984.618 C 700.604 985.461 693.596 989.328 688.307 990.931 C 662.966 998.612 672.48 965.943 680.407 953.688 z"/>
<path transform="translate(0,0)" fill="rgb(254,254,253)" d="M 689.412 940.115 C 694.198 926.735 765.746 854.312 777.279 853.934 L 774.531 856.722 C 775.782 861.739 803.149 899.14 808.232 906.913 C 818.116 921.124 860.574 981.939 874.597 986.581 C 908.984 997.962 961.099 1003.84 997.392 1002.24 C 1004.93 1001.92 1012.44 1001.1 1019.87 999.775 C 1032.52 997.462 1116.54 976.362 1116.57 999.406 L 1115.49 1001.1 L 1112.16 1003.6 L 1113.84 1008.95 C 1121.55 1009.85 1137.1 1010.37 1137.65 1020.26 C 1136.3 1023.79 1134.79 1024.38 1131.59 1026.76 C 1135.21 1029.86 1138.1 1031.82 1140.33 1036.01 C 1139.96 1043.01 1134.88 1038.54 1135.94 1050.28 C 1130.08 1058.76 1113.93 1054.52 1105.25 1056.91 C 1086.28 1062.11 1068.06 1070.36 1048.77 1074.34 C 1038.57 1076.29 1023.9 1077.05 1013.01 1078.38 L 932.997 1087.73 L 930.802 1087.14 C 911.594 1093.58 833.525 1093.97 815.354 1083.13 C 780.927 1062.59 740.707 1023.28 713.292 993.153 L 705.061 984.618 L 707.147 983.808 C 698.355 973.661 689.441 963.621 680.407 953.688 C 682.681 950.548 688.242 943.356 689.412 940.115 z"/>
<path transform="translate(0,0)" fill="rgb(56,47,32)" d="M 707.147 983.808 C 733.309 1010.75 787.038 1069.36 820.365 1083.19 C 857.862 1098.74 956.211 1081.83 998.009 1078.52 C 1004.61 1077.99 1013.18 1074.54 1020.01 1073.8 C 1029.02 1072.89 1038.55 1075.04 1048.03 1072.97 C 1066.71 1068.89 1083.09 1061.36 1101.58 1056.07 C 1112.94 1052.81 1126.68 1055.94 1132.83 1050.43 C 1134.31 1046.88 1134.2 1048.61 1133.53 1045.1 C 1122.81 1035.71 1093.83 1042.55 1080.6 1041.8 C 1087.81 1039.09 1098.32 1038.67 1106.03 1038.21 C 1115.55 1037.63 1125.04 1040.29 1134.44 1041.25 C 1136.47 1041.46 1137.16 1038.82 1137.88 1037.38 C 1135.16 1018.23 1085.62 1026.96 1080.11 1024.25 C 1084.91 1018.57 1123.6 1026.42 1134.35 1021.9 C 1136.11 1019.57 1135.67 1020.89 1135.35 1017.69 C 1130.26 1011.29 1113.22 1009.46 1105.47 1009.78 C 1107.95 1009.41 1111.29 1009.19 1113.84 1008.95 C 1121.55 1009.85 1137.1 1010.37 1137.65 1020.26 C 1136.3 1023.79 1134.79 1024.38 1131.59 1026.76 C 1135.21 1029.86 1138.1 1031.82 1140.33 1036.01 C 1139.96 1043.01 1134.88 1038.54 1135.94 1050.28 C 1130.08 1058.76 1113.93 1054.52 1105.25 1056.91 C 1086.28 1062.11 1068.06 1070.36 1048.77 1074.34 C 1038.57 1076.29 1023.9 1077.05 1013.01 1078.38 L 932.997 1087.73 L 930.802 1087.14 C 911.594 1093.58 833.525 1093.97 815.354 1083.13 C 780.927 1062.59 740.707 1023.28 713.292 993.153 L 705.061 984.618 L 707.147 983.808 z"/>
<path transform="translate(0,0)" fill="rgb(56,47,32)" d="M 689.412 940.115 C 694.198 926.735 765.746 854.312 777.279 853.934 L 774.531 856.722 C 775.782 861.739 803.149 899.14 808.232 906.913 C 818.116 921.124 860.574 981.939 874.597 986.581 C 908.984 997.962 961.099 1003.84 997.392 1002.24 C 1004.93 1001.92 1012.44 1001.1 1019.87 999.775 C 1032.52 997.462 1116.54 976.362 1116.57 999.406 L 1115.49 1001.1 L 1114.75 1000.1 C 1115.06 996.676 1115.44 998.197 1113.69 995.354 C 1091.23 980.741 1027.67 1002.92 1001.65 1004.05 C 969.5 1005.51 937.292 1003.03 905.744 996.663 C 893.648 994.274 879.011 992.187 868.541 985.329 C 848.69 972.327 787.134 880.965 771.884 858.195 C 739.832 880.257 714.874 912.347 689.412 940.115 z"/>
<path transform="translate(0,0)" fill="rgb(230,232,164)" d="M 1078.69 1010.12 C 1090.12 1006.34 1100.83 1006.92 1112.16 1003.6 L 1113.84 1008.95 C 1111.29 1009.19 1107.95 1009.41 1105.47 1009.78 C 1102.22 1010.59 1083.25 1010.16 1078.69 1010.12 z"/>
<path transform="translate(0,0)" fill="rgb(14,14,14)" d="M 1114.75 1000.1 L 1115.49 1001.1 L 1112.16 1003.6 C 1100.83 1006.92 1090.12 1006.34 1078.69 1010.12 C 1075.95 1010.67 1074.92 1010.55 1072.2 1010.47 C 1075.45 1004.06 1103.3 1005.01 1114.75 1000.1 z"/>
<path transform="translate(0,0)" fill="rgb(49,50,53)" d="M 1230.52 1237.48 C 1231.08 1242.2 1249.62 1289.19 1251.1 1290.61 C 1243.81 1293.02 1225.27 1298.47 1223.2 1307.14 C 1220.76 1307.47 1199.94 1297.99 1193.96 1296.3 C 1183.15 1293.12 1171.82 1292.06 1160.59 1293.18 L 1158.74 1291.7 C 1156.13 1289.54 1157.07 1284.55 1151.91 1278.45 C 1160.64 1274.22 1166.31 1271.31 1174.64 1266.22 L 1172.17 1255.81 C 1195.96 1250.53 1208.28 1247.45 1230.52 1237.48 z"/>
<path transform="translate(0,0)" fill="rgb(235,192,95)" d="M 958.935 871.146 L 959.926 870.338 C 1004.99 885.472 1064.39 945.459 1076.92 991.181 C 1071.01 982.314 1064.34 968.212 1057.96 958.189 C 1028.84 912.422 1003.25 896.427 958.935 871.146 z"/>
<path transform="translate(0,0)" fill="rgb(235,192,95)" d="M 930.802 1087.14 L 932.997 1087.73 C 933.417 1089.33 939.053 1100.86 940.149 1103.05 C 946.85 1116.48 952.872 1130.62 959.662 1143.98 C 963.598 1151.72 975.927 1173.06 977.257 1180.76 C 972.52 1177.78 931.934 1094.9 930.802 1087.14 z"/>
<path transform="translate(0,0)" fill="rgb(235,192,95)" d="M 1112.9 1061.65 C 1115.88 1067.34 1123.82 1094.22 1126.39 1101.98 C 1137 1133.93 1146.77 1166.65 1156.31 1198.95 C 1160.11 1211.82 1169.79 1240.98 1171.5 1253.48 C 1171.29 1253.33 1171.06 1253.19 1170.87 1253.01 C 1168.79 1250.95 1117.86 1083.96 1114.29 1070.92 C 1113.43 1067.81 1112.92 1064.9 1112.9 1061.65 z"/>
<path transform="translate(0,0)" fill="rgb(49,50,53)" d="M 819.798 559.884 C 850.821 509.779 917.243 506.827 969.967 516.36 C 1026.97 526.667 1061.8 562.635 1092.58 609.236 L 1092.46 613.332 C 1092.71 616.609 1104.52 640.455 1107.15 647.229 C 1112.68 661.356 1117.79 675.645 1122.47 690.077 C 1143.35 755.862 1151.89 775.927 1224.19 796.187 C 1289.33 814.441 1365.17 813.214 1420.71 855.264 C 1428.25 861.05 1439.81 875.428 1445.15 883.268 C 1457.61 904.831 1463.49 920.36 1464.12 945.903 C 1463.74 971.193 1456.87 995.333 1438.07 1013.08 C 1412.34 1037.35 1394.11 1030.34 1374.15 1063.72 L 1371.36 1067.98 C 1361.8 1086.14 1356.84 1105 1350.16 1124.55 C 1336.08 1165.76 1316 1194.16 1273.26 1208.31 C 1264.59 1211.18 1243.09 1213.1 1239.51 1214.51 L 1237.31 1213.93 C 1235.34 1212.15 1220.98 1141.8 1218.75 1132.41 C 1207.79 1087.29 1192.69 1043.27 1173.63 1000.93 C 1168.3 989.042 1156.76 972.958 1152.94 961.834 C 1140.7 946.317 1133.07 930.081 1118.21 913.961 C 1089.13 882.4 1058.2 862.418 1014.73 859.733 C 1015.63 845.682 1017.42 821.732 1019 808.298 C 1010.52 799.881 908.971 786.683 891.244 784.125 L 882.968 781.535 L 880.116 778.833 C 878.937 776.364 864.302 769.092 858.657 764.084 L 857.288 759.218 C 848.782 752.075 843.901 745.683 837.327 736.993 L 836.747 741.344 C 834.528 738.024 832.199 734.644 830.083 731.27 C 825.564 741.552 821.073 751.814 816.695 762.158 C 814.179 768.105 811.958 775.253 809.13 780.877 L 807.297 781.574 C 804.959 777.928 807.93 773.748 800.814 772.911 C 794.884 772.214 787.297 772.945 781.039 772.633 L 755.61 772.879 C 738.02 724.982 724.184 687.797 742.611 635.441 C 756.197 596.839 784.012 576.692 819.798 559.884 z"/>
<path transform="translate(0,0)" fill="rgb(254,254,253)" d="M 950.893 585.615 C 944.14 584.284 932.674 586.507 925.525 587.626 C 922.534 581.436 941.315 572.166 946.021 571.082 C 993.964 560.043 1017.28 615.776 1020.75 650.23 C 1034.67 660.953 1046.6 675.184 1058.54 688.095 C 1091.92 724.193 1124.89 763.84 1150.62 805.875 C 1180.25 854.289 1219.42 924.715 1152.94 961.834 C 1140.7 946.317 1133.07 930.081 1118.21 913.961 C 1089.13 882.4 1058.2 862.418 1014.73 859.733 C 1015.63 845.682 1017.42 821.732 1019 808.298 C 1010.52 799.881 908.971 786.683 891.244 784.125 L 882.968 781.535 L 880.116 778.833 C 878.937 776.364 864.302 769.092 858.657 764.084 L 857.288 759.218 C 848.782 752.075 843.901 745.683 837.327 736.993 C 833.39 730.255 824.66 712.56 824.438 704.242 C 824.394 702.615 825.024 702.667 826.519 701.462 L 828.773 702.23 L 829.436 699.399 C 829.602 681.775 843.482 687.015 853.074 693.046 C 866.787 677.104 893.883 664.953 905.766 645 C 907.298 642.428 912.841 635.652 915.056 634.101 L 919.084 631.767 C 917.769 631.139 916.47 630.397 915.186 629.698 C 910.171 622.361 916.907 616.099 922.842 612.151 L 919.254 610.443 C 918.445 606.289 920.618 598.559 923.672 595.528 C 930.656 588.595 941.607 588.351 950.821 588.332 L 950.893 585.615 z"/>
<path transform="translate(0,0)" fill="rgb(254,254,253)" d="M 915.056 634.101 C 924.343 635.18 929.129 634.115 937.689 630.198 C 938.966 644.059 939.219 648.867 947.877 660.087 C 952.998 664.995 957.34 668.364 962.96 672.745 C 974.606 736.704 928.72 811.94 863.457 763.882 C 861.379 762.355 859.323 760.8 857.288 759.218 C 848.782 752.075 843.901 745.683 837.327 736.993 C 833.39 730.255 824.66 712.56 824.438 704.242 C 824.394 702.615 825.024 702.667 826.519 701.462 L 828.773 702.23 L 829.436 699.399 C 829.602 681.775 843.482 687.015 853.074 693.046 C 866.787 677.104 893.883 664.953 905.766 645 C 907.298 642.428 912.841 635.652 915.056 634.101 z"/>
<path transform="translate(0,0)" fill="rgb(14,14,14)" d="M 829.436 699.399 L 830.231 700.42 C 833.622 704.705 843.088 711.772 843.052 712.887 C 837.146 712.882 831.516 707.046 828.773 702.23 L 829.436 699.399 z"/>
<path transform="translate(0,0)" fill="rgb(14,14,14)" d="M 918.417 732.23 C 923.935 732.054 932.221 733.074 936.818 736.321 L 936.984 737.991 L 935.872 738.457 C 927.799 735.064 923.316 734.007 914.679 735.491 L 913.448 735.708 C 907.788 737.496 902.085 739.144 896.344 740.648 L 895.935 740.197 C 905.303 734.908 907.805 734.112 918.417 732.23 z"/>
<path transform="translate(0,0)" fill="rgb(49,50,53)" d="M 906.233 694.077 L 907.268 695.339 C 902.712 698.88 900.582 700.801 896.517 704.904 L 884.25 699.644 L 881.285 698.815 L 880.533 697.418 C 893.721 695.796 890.157 700.111 906.233 694.077 z"/>
<path transform="translate(0,0)" fill="rgb(14,14,14)" d="M 951.363 689.653 C 952.646 690.17 952.128 689.759 952.923 690.879 C 949.714 693.776 944.009 699.715 939.934 699.701 C 936.215 697.465 935.423 697.034 931.231 695.855 L 930.287 695.599 L 927.544 694.957 L 926.54 693.593 L 926.218 694.084 L 925.659 693.123 C 931.134 692.758 935.768 693.821 941.163 694.755 C 944.464 693.266 948.095 691.31 951.363 689.653 z"/>
<path transform="translate(0,0)" fill="rgb(14,14,14)" d="M 891.678 671.048 C 896.406 670.951 907.414 671.924 908.509 677.545 L 906.74 677.574 C 897.768 674.385 895.362 676.129 887.792 674.018 L 888.026 672.779 L 891.678 671.048 z"/>
<path transform="translate(0,0)" fill="rgb(14,14,14)" d="M 938.408 667.068 C 943.249 666.71 942.46 665.965 945.375 668.194 L 945.839 668.05 L 944.896 666.902 L 946.789 667.302 L 946.757 667.792 C 943.395 669.329 939.99 670.77 936.546 672.114 C 933.327 674.028 932.914 674.39 929.357 675.297 L 928.889 674.191 C 931.83 670.354 934.254 669.368 938.408 667.068 z"/>
<path transform="translate(0,0)" fill="rgb(14,14,14)" d="M 926.389 712.018 L 926.34 714.3 C 922.593 718.665 919.159 718.733 913.434 719.267 L 913.271 717.851 C 917.677 715.248 919.039 717.084 926.389 712.018 z"/>
<path transform="translate(0,0)" fill="rgb(49,50,53)" d="M 950.743 658.82 C 954.419 662.4 958.264 666.252 962.952 668.51 C 967.259 670.584 973.753 668.34 977.086 671.06 C 973.998 675.232 971.599 672.372 970.698 676.03 L 1020.04 773.719 C 1026.05 785.451 1037.63 805.147 1042.35 816.271 L 1041.04 818.874 C 1036.45 814.682 1025.97 811.714 1019 808.298 C 1010.52 799.881 908.971 786.683 891.244 784.125 L 882.968 781.535 L 880.116 778.833 C 878.937 776.364 864.302 769.092 858.657 764.084 L 857.288 759.218 C 859.323 760.8 861.379 762.355 863.457 763.882 C 928.72 811.94 974.606 736.704 962.96 672.745 C 957.34 668.364 952.998 664.995 947.877 660.087 L 950.743 658.82 z"/>
<path transform="translate(0,0)" fill="rgb(14,14,14)" d="M 942.779 625.003 C 941.163 639.496 941.881 646.468 950.743 658.82 L 947.877 660.087 C 939.219 648.867 938.966 644.059 937.689 630.198 C 929.129 634.115 924.343 635.18 915.056 634.101 L 919.084 631.767 C 927.658 631.786 934.885 628.272 942.779 625.003 z"/>
<path transform="translate(0,0)" fill="rgb(14,14,14)" d="M 1041.04 818.874 L 1042.35 816.271 C 1045.15 821.187 1068.35 860.921 1067.83 862.854 C 1062.35 857.809 1044.93 827.082 1041.04 818.874 z"/>
<path transform="translate(0,0)" fill="rgb(14,14,14)" d="M 919.254 610.443 C 927.024 607.47 947.955 600.229 955.899 605.347 C 955.248 605.863 930.718 608.809 922.842 612.151 L 919.254 610.443 z"/>
<path transform="translate(0,0)" fill="rgb(14,14,14)" d="M 950.893 585.615 C 956.066 586.187 970.552 587.424 973.57 591.756 C 968.284 592.038 957.11 589.311 950.821 588.332 L 950.893 585.615 z"/>
<path transform="translate(0,0)" fill="rgb(122,169,108)" d="M 572.141 327.838 C 577.857 318.494 588.118 309.199 595.84 301.287 C 682.596 212.397 809.185 159.915 933.768 168.342 C 946.08 169.175 963.428 170.282 974.826 174.181 C 947.241 201.304 923.668 227.966 903.165 260.863 C 891.051 280.299 880.49 301.167 868.927 320.91 C 800.412 437.296 731.33 511.227 606.188 569.797 C 538.876 601.301 481.681 627.912 421.666 672.442 L 420.935 673.189 C 412.886 681.259 402.241 688.908 393.742 696.697 C 386.36 703.463 378.983 711.288 372.134 718.604 C 364.259 726.974 356.851 735.771 349.942 744.954 C 347.132 748.63 341.001 757.385 338.242 760.351 C 313.302 769.49 288.735 791.759 297.166 822.188 C 297.951 825.023 301.008 830.819 302.35 833.771 C 294.398 856.542 288.025 879.835 283.278 903.484 C 281.711 911.469 276.345 945.994 274.084 951.164 C 273.064 948.729 272.123 946.261 271.263 943.764 C 265.784 927.698 261.648 901.707 259.114 884.953 C 242.792 777.5 259.419 667.624 306.804 569.813 C 344.982 491.402 412.748 407.746 489.28 364.039 C 513.657 350.117 535.485 341.409 561.925 332.303 C 565.12 331.243 569.94 330.086 572.141 327.838 z"/>
<path transform="translate(0,0)" fill="url(#Gradient2)" d="M 274.084 951.164 C 273.064 948.729 272.123 946.261 271.263 943.764 C 265.784 927.698 261.648 901.707 259.114 884.953 C 242.792 777.5 259.419 667.624 306.804 569.813 C 344.982 491.402 412.748 407.746 489.28 364.039 C 513.657 350.117 535.485 341.409 561.925 332.303 C 563.306 337.914 560.681 341.73 557.455 346.748 C 545.491 365.365 531.51 382.878 520.234 401.983 C 481.228 468.659 451.943 540.564 433.265 615.519 C 428.854 633.053 423.727 654.422 421.666 672.442 L 420.935 673.189 C 412.886 681.259 402.241 688.908 393.742 696.697 C 386.36 703.463 378.983 711.288 372.134 718.604 C 364.259 726.974 356.851 735.771 349.942 744.954 C 347.132 748.63 341.001 757.385 338.242 760.351 C 313.302 769.49 288.735 791.759 297.166 822.188 C 297.951 825.023 301.008 830.819 302.35 833.771 C 294.398 856.542 288.025 879.835 283.278 903.484 C 281.711 911.469 276.345 945.994 274.084 951.164 z"/>
<path transform="translate(0,0)" fill="rgb(253,216,118)" d="M 572.141 327.838 C 577.857 318.494 588.118 309.199 595.84 301.287 C 682.596 212.397 809.185 159.915 933.768 168.342 C 946.08 169.175 963.428 170.282 974.826 174.181 C 947.241 201.304 923.668 227.966 903.165 260.863 C 891.051 280.299 880.49 301.167 868.927 320.91 C 801.311 317.452 731.199 308.69 663.494 314.095 C 641.596 315.882 619.834 319.053 598.337 323.589 C 593.05 324.704 576.262 329.096 572.141 327.838 z"/>
<path transform="translate(0,0)" fill="rgb(254,254,253)" d="M 1713.37 294.188 C 1724.77 288.235 1784.58 251.435 1789.51 250.933 C 1804.25 260.038 1820.21 267.033 1834 277.379 C 1853.56 292.052 1867.35 312.954 1873.1 336.78 C 1878.81 360.595 1879.11 385.388 1873.96 409.332 C 1873.01 413.923 1868.8 429.543 1868.58 431.975 L 1869.17 432.947 C 1864.99 436.326 1854.19 439.286 1849.35 441.718 C 1835.31 448.769 1790.81 464.353 1781.03 471.671 C 1773.62 473.702 1765.91 478.054 1758.8 480.988 C 1729.43 493.108 1703.79 511.875 1683.18 536.396 C 1669.79 550.074 1648.07 572.921 1633.94 584.75 C 1607.38 606.987 1566 629.959 1534.81 646.498 C 1500.93 664.871 1466.52 685.467 1430.84 699.535 C 1419.56 703.981 1398.29 703.131 1402.87 685.574 C 1409.06 661.849 1491.75 622.928 1492.68 606.573 C 1481.68 603.092 1400.04 658.628 1384.86 668.528 C 1360.33 685.481 1335.16 702.024 1308.37 715.181 C 1305.26 716.708 1296.29 716.306 1293.42 715.25 C 1260.2 703.06 1299.81 677.052 1312.69 667.556 C 1316.49 664.75 1324.7 657.256 1328.66 657.087 C 1331.29 655.998 1338.33 650.586 1340.16 647.955 C 1349.78 633.971 1421.86 589.548 1423.27 580.35 L 1421.86 578.699 C 1408.87 575.742 1277.47 660.371 1253.5 669.752 C 1242.9 673.901 1228.41 676.626 1223.83 662.871 C 1217.29 643.229 1249.97 625.818 1262.1 615.721 C 1277.37 599.16 1404 529.007 1406.36 523.883 L 1405.16 521.363 C 1386.64 508.513 1256.41 588.704 1216.53 575.71 C 1210.61 573.779 1206.05 569.903 1203.39 564.25 C 1202.02 561.315 1201.37 558.318 1202.61 555.233 C 1214.26 526.328 1352.55 472.313 1387.63 457.586 C 1404.48 450.382 1421.26 442.998 1437.95 435.438 L 1393.24 431.506 C 1371.12 429.546 1325.71 428.007 1317.38 402.223 C 1313.27 382.193 1350.17 384.216 1359.9 384.241 C 1415.52 384.381 1465.98 363.79 1518.98 351.662 C 1535.5 347.884 1571.12 353.017 1589.07 353.033 C 1617.3 353.804 1685.9 310.216 1713.37 294.188 z"/>
<path transform="translate(0,0)" fill="rgb(33,39,32)" d="M 1713.37 294.188 C 1724.77 288.235 1784.58 251.435 1789.51 250.933 C 1779.12 262.36 1644.27 336.816 1620.47 347.687 C 1612.57 351.295 1602.29 354.805 1593.1 355.077 C 1569.44 355.778 1545.42 350.749 1521.75 353.4 C 1503.12 355.486 1484.4 363.576 1466.26 368.524 C 1432.33 377.782 1399.98 385.221 1364.63 386.436 C 1354.47 386.786 1329.12 385.652 1321.85 393.045 C 1320.14 394.782 1319.48 397.452 1319.61 399.911 C 1319.92 405.353 1325.69 411.315 1329.93 414.335 C 1357.47 433.955 1406.58 427.525 1438.81 433.313 C 1448.41 435.036 1467.9 444.375 1477.65 448.443 C 1510.12 461.98 1546.07 472.804 1581.5 468.037 C 1589.9 466.968 1598.12 464.829 1605.98 461.673 C 1608.5 460.66 1612.94 458.165 1614.97 458.625 C 1610.67 463.718 1596.76 467.587 1590.34 469.012 C 1543.31 479.453 1496.04 459.823 1454.03 440.534 C 1450.06 438.713 1446.17 436.811 1442.08 435.274 C 1405.46 457.244 1213.71 524.014 1205.29 555.283 C 1204.3 558.975 1204.77 563.391 1206.73 566.699 C 1209.17 570.842 1213.98 572.925 1218.49 573.944 C 1246.28 580.237 1293.75 555.898 1319.78 545.397 C 1337.81 537.947 1356.03 530.98 1374.43 524.505 C 1383.55 521.363 1401.18 512.953 1407.74 521.839 C 1407.66 531.439 1383.44 540.873 1374.61 546.106 C 1325.48 575.215 1275 604.365 1231.97 642.188 C 1220.88 651.529 1222.98 671.865 1240.36 671.064 C 1254.8 670.399 1273.4 655.08 1285.33 650.019 C 1310.72 639.254 1404.4 574.561 1424.43 576.026 L 1425.98 578.763 C 1419.86 593.561 1372.13 622.216 1359.21 634.108 C 1356.56 636.543 1343.65 645.812 1340.16 647.955 C 1349.78 633.971 1421.86 589.548 1423.27 580.35 L 1421.86 578.699 C 1408.87 575.742 1277.47 660.371 1253.5 669.752 C 1242.9 673.901 1228.41 676.626 1223.83 662.871 C 1217.29 643.229 1249.97 625.818 1262.1 615.721 C 1277.37 599.16 1404 529.007 1406.36 523.883 L 1405.16 521.363 C 1386.64 508.513 1256.41 588.704 1216.53 575.71 C 1210.61 573.779 1206.05 569.903 1203.39 564.25 C 1202.02 561.315 1201.37 558.318 1202.61 555.233 C 1214.26 526.328 1352.55 472.313 1387.63 457.586 C 1404.48 450.382 1421.26 442.998 1437.95 435.438 L 1393.24 431.506 C 1371.12 429.546 1325.71 428.007 1317.38 402.223 C 1313.27 382.193 1350.17 384.216 1359.9 384.241 C 1415.52 384.381 1465.98 363.79 1518.98 351.662 C 1535.5 347.884 1571.12 353.017 1589.07 353.033 C 1617.3 353.804 1685.9 310.216 1713.37 294.188 z"/>
<path transform="translate(0,0)" fill="rgb(33,39,32)" d="M 1868.58 431.975 L 1869.17 432.947 C 1864.99 436.326 1854.19 439.286 1849.35 441.718 C 1835.31 448.769 1790.81 464.353 1781.03 471.671 C 1773.62 473.702 1765.91 478.054 1758.8 480.988 C 1729.43 493.108 1703.79 511.875 1683.18 536.396 C 1669.79 550.074 1648.07 572.921 1633.94 584.75 C 1607.38 606.987 1566 629.959 1534.81 646.498 C 1500.93 664.871 1466.52 685.467 1430.84 699.535 C 1419.56 703.981 1398.29 703.131 1402.87 685.574 C 1409.06 661.849 1491.75 622.928 1492.68 606.573 C 1481.68 603.092 1400.04 658.628 1384.86 668.528 C 1360.33 685.481 1335.16 702.024 1308.37 715.181 C 1305.26 716.708 1296.29 716.306 1293.42 715.25 C 1260.2 703.06 1299.81 677.052 1312.69 667.556 C 1316.49 664.75 1324.7 657.256 1328.66 657.087 C 1318.15 666.031 1306.54 673.731 1296.04 682.721 C 1290.76 687.236 1283.49 693.917 1283.31 701.342 C 1283.23 704.607 1284.68 707.541 1287.01 709.774 C 1291.37 713.943 1295.98 715.135 1301.87 714.116 C 1320.28 710.931 1345.68 691.835 1361.48 681.66 C 1379.74 669.9 1479.61 601.843 1492.46 602.556 C 1494.47 602.667 1494.76 603.194 1496.03 604.571 C 1495.16 620.733 1423.28 659.724 1410.87 675.745 C 1401.07 688.394 1403.36 703.978 1421.63 699.497 C 1451.31 691.564 1480.29 673.774 1507.38 659.065 C 1548.83 636.551 1591.51 614.698 1628.98 585.978 C 1661.06 561.397 1685.88 523.815 1718.26 500.709 C 1748.06 479.445 1789.04 466.138 1822.14 450.667 C 1833.04 445.654 1857.92 433.944 1868.58 431.975 z"/>
<path transform="translate(0,0)" fill="url(#Gradient1)" d="M 1683.18 536.396 C 1703.79 511.875 1729.43 493.108 1758.8 480.988 C 1765.91 478.054 1773.62 473.702 1781.03 471.671 C 1786.57 493.317 1789.85 518.886 1792.2 541.107 C 1800.44 619.259 1798.11 698.41 1791.15 776.576 C 1788.4 807.548 1784.99 847.287 1778 877.492 C 1777.56 885.083 1777.01 892.876 1776.78 900.46 C 1771.76 906.886 1770.87 931.062 1768.48 939.753 C 1766.3 947.693 1764.23 956.387 1762.09 964.34 C 1747.14 1019.94 1728.92 1085.05 1701.14 1135.61 C 1696.83 1098.43 1694.01 1088.06 1676.51 1054.23 C 1680.96 1047.61 1687.76 1028.02 1690.53 1020.01 C 1707.83 969.927 1715.51 912.775 1705.83 860.179 C 1694.11 796.441 1656.72 740.83 1608.34 698.612 C 1586.66 679.695 1558.9 662.72 1534.81 646.498 C 1566 629.959 1607.38 606.987 1633.94 584.75 C 1648.07 572.921 1669.79 550.074 1683.18 536.396 z"/>
<path transform="translate(0,0)" fill="rgb(194,201,115)" d="M 1683.18 536.396 C 1703.79 511.875 1729.43 493.108 1758.8 480.988 C 1765.91 478.054 1773.62 473.702 1781.03 471.671 C 1786.57 493.317 1789.85 518.886 1792.2 541.107 C 1800.44 619.259 1798.11 698.41 1791.15 776.576 C 1788.4 807.548 1784.99 847.287 1778 877.492 C 1777.62 877.144 1775.59 874.842 1775.59 874.77 C 1773.61 853.829 1770.89 822.206 1767.4 802.391 C 1751.8 710.249 1723.46 620.725 1683.18 536.396 z"/>
<path transform="translate(0,0)" fill="rgb(125,179,139)" d="M 978.065 171.529 C 1035.79 120.395 1118.23 81.0642 1196.91 84.0416 C 1260.6 86.4517 1341.58 107.424 1394.1 144.485 C 1391.22 147.854 1365.06 152.11 1358.87 153.635 C 1347.67 156.394 1337.15 159.402 1326.13 163.248 C 1303.56 171.126 1279.25 180.5 1258.19 191.677 C 1231.82 205.667 1207.04 222.662 1180.57 236.46 C 1171.91 240.967 1152.53 253.028 1143.78 255.882 C 1134.32 248.866 1125.93 240.456 1116.67 233.27 C 1085.76 209.281 1049.78 191.947 1012.02 181.882 C 1004.46 179.867 983.906 175.576 978.065 171.529 z"/>
<path transform="translate(0,0)" fill="rgb(125,179,139)" d="M 1400.05 145.477 C 1487.02 135.434 1564.42 151.499 1632.85 207.586 C 1658.19 228.356 1697.34 265.655 1713.37 294.188 C 1685.9 310.216 1617.3 353.804 1589.07 353.033 C 1585.54 343.767 1574.2 328.977 1568.51 320.729 C 1522.6 254.161 1467.4 193.753 1400.64 147.634 C 1400.45 146.915 1400.25 146.196 1400.05 145.477 z"/>
<path transform="translate(0,0)" fill="rgb(122,169,108)" d="M 978.065 171.529 C 983.906 175.576 1004.46 179.867 1012.02 181.882 C 1049.78 191.947 1085.76 209.281 1116.67 233.27 C 1125.93 240.456 1134.32 248.866 1143.78 255.882 C 1050.1 303.75 973.692 321.183 868.927 320.91 C 880.49 301.167 891.051 280.299 903.165 260.863 C 923.668 227.966 947.241 201.304 974.826 174.181 L 978.065 171.529 z"/>
<path transform="translate(0,0)" fill="rgb(230,232,164)" d="M 479.848 804.734 C 472.819 788.558 466.241 771.719 473.388 754.715 C 486.692 723.056 526.59 716.99 554.925 730.024 C 593.165 747.615 627.507 784.378 652.251 817.079 C 629.935 840.978 615.455 867.652 603.424 897.786 C 585.98 880.219 557.85 862.884 538.835 846.353 C 527.604 836.588 486.69 814.372 479.848 804.734 z"/>
<path transform="translate(0,0)" fill="rgb(230,232,164)" d="M 1445.15 883.268 C 1451.81 879.531 1463.89 875.934 1471.47 873.774 C 1500.81 865.408 1530.21 858.599 1560.61 866.633 C 1591.97 874.919 1618.66 906.839 1609.45 940.333 C 1605.99 952.933 1596.97 962.998 1587.57 971.909 C 1584.37 970.967 1579.49 968.704 1576.22 967.346 C 1540.29 952.453 1502.96 947.33 1464.12 945.903 C 1463.49 920.36 1457.61 904.831 1445.15 883.268 z"/>
<path transform="translate(0,0)" fill="rgb(33,39,32)" d="M 1092.58 609.236 C 1106.06 627.053 1117.55 646.292 1126.84 666.609 C 1134.4 683.354 1140.01 701.158 1147.98 717.942 C 1167.91 760.932 1207.7 784.191 1253.77 790.048 C 1314.16 797.725 1377.18 784.104 1434.99 808.461 C 1445.49 812.885 1458.75 818.994 1465.7 828.419 L 1465 828.817 C 1445.59 816.958 1446.39 814.103 1422.11 805.981 C 1341.35 778.954 1238.48 820.818 1171.74 755.242 C 1133.11 717.287 1130.62 655.19 1092.46 613.332 L 1092.58 609.236 z"/>
<path transform="translate(0,0)" fill="rgb(230,232,164)" d="M 338.242 760.351 C 379.986 755.206 414.889 770.036 451.07 789.485 C 456.267 792.279 475.298 804.826 479.848 804.734 C 486.69 814.372 527.604 836.588 538.835 846.353 C 557.85 862.884 585.98 880.219 603.424 897.786 C 594.889 922.808 586.735 952.368 582.122 978.579 C 579.222 997.281 574.477 1032.67 574.028 1051.62 L 573.565 1055.7 C 571.509 1091.31 571.272 1127 572.856 1162.63 C 573.309 1173.01 574.216 1193.43 576.282 1203.43 L 575.815 1207.96 C 502.191 1238.77 421.673 1268.75 340.944 1268.68 C 300.805 1268.65 263.656 1262.82 229.48 1241.07 C 227.282 1239.68 222.393 1235.94 220.364 1235.15 C 208.391 1227.06 194.885 1211.17 187.458 1198.92 C 147.149 1132.41 173.321 1046.25 227.836 996.36 C 242.749 982.712 256.734 973.362 274 962.94 C 273.979 959.014 274.007 955.089 274.084 951.164 C 276.345 945.994 281.711 911.469 283.278 903.484 C 288.025 879.835 294.398 856.542 302.35 833.771 C 301.008 830.819 297.951 825.023 297.166 822.188 C 288.735 791.759 313.302 769.49 338.242 760.351 z"/>
<path transform="translate(0,0)" fill="rgb(194,201,115)" d="M 338.242 760.351 C 379.986 755.206 414.889 770.036 451.07 789.485 C 456.267 792.279 475.298 804.826 479.848 804.734 C 486.69 814.372 527.604 836.588 538.835 846.353 C 557.85 862.884 585.98 880.219 603.424 897.786 C 594.889 922.808 586.735 952.368 582.122 978.579 C 542.021 955.708 509.803 943.478 463.773 935.25 C 453.038 933.331 442.95 932.698 432.505 931.002 C 370.066 929.569 331.078 935.448 274 962.94 C 273.979 959.014 274.007 955.089 274.084 951.164 C 276.345 945.994 281.711 911.469 283.278 903.484 C 288.025 879.835 294.398 856.542 302.35 833.771 C 301.008 830.819 297.951 825.023 297.166 822.188 C 288.735 791.759 313.302 769.49 338.242 760.351 z"/>
<path transform="translate(0,0)" fill="rgb(120,143,112)" d="M 274.084 951.164 C 276.345 945.994 281.711 911.469 283.278 903.484 C 288.025 879.835 294.398 856.542 302.35 833.771 C 326.169 869.384 361.905 889.455 398.241 910.598 C 408.44 916.532 424.011 923.94 432.505 931.002 C 370.066 929.569 331.078 935.448 274 962.94 C 273.979 959.014 274.007 955.089 274.084 951.164 z"/>
<path transform="translate(0,0)" fill="rgb(194,201,115)" d="M 573.565 1055.7 C 552.503 1052.81 532.834 1049.6 512.28 1048.36 C 423.873 1043 331.872 1067.37 263.59 1125.19 C 258.063 1129.87 243.672 1145.41 239.012 1147.14 L 238.114 1146.15 C 243.189 1132.92 283.707 1103.86 296.789 1095.45 C 374.266 1045.65 484.5 1030.67 574.028 1051.62 L 573.565 1055.7 z"/>
</svg>