<svg version="1.1" xmlns="http://www.w3.org/2000/svg" style="display: block;" viewBox="0 0 2048 1410" width="2000" height="1377" preserveAspectRatio="none">
<path transform="translate(0,0)" fill="rgb(248,167,74)" d="M 1754.12 700.158 C 1762.57 699.814 1770.88 697.98 1779.71 698.197 C 1788.22 729.679 1792.23 754.497 1790.49 787.478 C 1790.01 796.609 1787.54 806.749 1787.14 812.992 C 1787.13 814.595 1787.37 814.434 1786.75 815.717 C 1783.96 826.801 1781.77 839.691 1779.59 851.038 C 1779.65 852.026 1779.86 854.755 1779.78 855.582 C 1777.67 864.24 1774.65 885.12 1775.46 893.955 L 1776.51 896.106 L 1775.44 898.109 C 1777.01 906.763 1794.99 948.645 1800.08 956.886 L 1801.44 959.188 C 1803.68 967.133 1817.89 998.584 1822.78 1004.79 L 1823.54 1007.11 C 1834.94 1037.15 1855.24 1072.6 1868.53 1102.47 C 1873.13 1112.81 1880.25 1124.66 1884.23 1135.03 C 1879.52 1136.61 1871.84 1138.78 1867.59 1140.44 C 1856.29 1143.14 1843.44 1147.23 1832.34 1150.96 C 1830.36 1152.07 1831 1151.72 1828.05 1151 C 1817.91 1157.48 1800.61 1159.19 1788.13 1165.96 C 1786.38 1166.41 1784.73 1166.9 1782.94 1167.15 C 1775.03 1167.49 1740.77 1179.64 1729.55 1182.32 C 1723.94 1175.54 1717.13 1163.9 1712.29 1156.12 L 1711.09 1153.74 C 1703.18 1137.45 1688.89 1114.74 1679.69 1098.26 C 1671.06 1082.81 1658.43 1056.69 1649.24 1042.87 C 1647.66 1040.19 1647.89 1039.19 1647.75 1035.95 L 1644.33 1031.9 L 1642.6 1031.63 C 1637.73 1039.8 1620.55 1070.08 1618.05 1077.55 L 1616.63 1079.5 C 1613.22 1084.22 1591.4 1122.98 1590.35 1127.53 L 1589.05 1129.48 C 1578.94 1145.3 1563.34 1178.66 1553.94 1191.3 C 1538.51 1184.53 1522.77 1177.4 1507.28 1170.86 C 1499.54 1167.12 1485.41 1160.32 1477.5 1158.13 L 1474.74 1157.08 C 1470.75 1153.5 1435.61 1139.02 1429.69 1137.7 C 1426.16 1135.84 1422.28 1134 1418.69 1132.22 C 1413.55 1129.2 1401.16 1124.48 1394.22 1120.87 C 1399.59 1110.16 1404.88 1099.4 1410.08 1088.6 L 1411.48 1084.54 C 1415.92 1079.09 1457.57 994.364 1460.47 985.198 C 1461.29 983.391 1462.24 982.162 1463.36 980.551 C 1472.95 960.792 1493.68 922.609 1500.67 903.9 L 1501.9 901.675 C 1508.04 891.847 1518.1 869.824 1523.6 858.709 C 1537.25 831.481 1550.68 804.141 1563.88 776.694 L 1563.99 774.448 C 1567.36 771.252 1580.25 743.732 1583.13 737.896 C 1585.99 731.868 1591.44 719.697 1594.78 714.497 L 1597.83 714.922 C 1601.98 714.767 1607.8 714.065 1612.07 713.684 L 1614.21 713.44 L 1625.35 712.553 C 1626.62 712.124 1631.28 711.946 1632.9 711.837 C 1636.87 711.472 1639.11 711.518 1642.81 709.95 C 1643.69 710.268 1644.17 710.582 1645 710.542 C 1650.09 710.157 1654.76 709.579 1659.83 708.927 L 1661.49 709.175 L 1685.45 706.647 L 1687.35 706.574 C 1693.81 706.026 1698.87 705.56 1705.31 704.428 L 1706.71 703.897 C 1710.28 704.974 1714.67 704.1 1718.53 703.694 L 1721.38 703.063 C 1724.57 703.106 1727.11 702.735 1730.25 702.367 L 1732.07 702.378 C 1738.81 701.769 1745.55 701.064 1752.27 700.263 L 1754.12 700.158 z"/>
<path transform="translate(0,0)" fill="rgb(248,167,74)" d="M 1563.99 774.448 C 1567.36 771.252 1580.25 743.732 1583.13 737.896 L 1587.72 738.6 C 1592.05 742.542 1618.52 750.415 1626.12 753.154 C 1612.97 809.473 1601.56 859.726 1602.34 918.047 C 1593.95 917.513 1584.2 916.438 1577.62 922.503 C 1563.45 935.545 1576.79 957.676 1585.98 968.324 C 1558.04 1003.36 1564.95 1020.04 1602.07 1041.21 C 1598.94 1056.85 1599.72 1072.42 1616.63 1079.5 C 1613.22 1084.22 1591.4 1122.98 1590.35 1127.53 L 1589.05 1129.48 C 1578.94 1145.3 1563.34 1178.66 1553.94 1191.3 C 1538.51 1184.53 1522.77 1177.4 1507.28 1170.86 C 1499.54 1167.12 1485.41 1160.32 1477.5 1158.13 L 1474.74 1157.08 C 1470.75 1153.5 1435.61 1139.02 1429.69 1137.7 C 1426.16 1135.84 1422.28 1134 1418.69 1132.22 C 1413.55 1129.2 1401.16 1124.48 1394.22 1120.87 C 1399.59 1110.16 1404.88 1099.4 1410.08 1088.6 L 1411.48 1084.54 C 1415.92 1079.09 1457.57 994.364 1460.47 985.198 C 1461.29 983.391 1462.24 982.162 1463.36 980.551 C 1472.95 960.792 1493.68 922.609 1500.67 903.9 L 1501.9 901.675 C 1508.04 891.847 1518.1 869.824 1523.6 858.709 C 1537.25 831.481 1550.68 804.141 1563.88 776.694 L 1563.99 774.448 z"/>
<path transform="translate(0,0)" fill="rgb(248,167,74)" d="M 1460.47 985.198 C 1468.34 982.576 1480.04 977.916 1487.46 982.512 C 1499.91 990.235 1484.76 1002.28 1479 1006.79 C 1507.27 1027.87 1502.05 1066.49 1464.71 1070.81 C 1458.29 1071.55 1451.63 1071.23 1445.17 1070.95 C 1445.4 1078.89 1446.18 1086.34 1440.15 1092.42 C 1429.16 1103.5 1417.47 1095.2 1411.48 1084.54 C 1415.92 1079.09 1457.57 994.364 1460.47 985.198 z"/>
<path transform="translate(0,0)" fill="rgb(248,167,74)" d="M 1530.58 1146.73 C 1533.48 1139.8 1535.93 1134.07 1541.2 1128.56 C 1547.86 1121.47 1557.16 1117.46 1566.89 1117.46 C 1576.76 1117.4 1583.51 1120.88 1590.35 1127.53 L 1589.05 1129.48 C 1578.94 1145.3 1563.34 1178.66 1553.94 1191.3 C 1538.51 1184.53 1522.77 1177.4 1507.28 1170.86 C 1499.54 1167.12 1485.41 1160.32 1477.5 1158.13 L 1474.74 1157.08 C 1478.57 1140.32 1484.1 1133.13 1500.86 1128.58 C 1515.05 1131.94 1519.77 1137.15 1530.58 1146.73 z"/>
<path transform="translate(0,0)" fill="rgb(234,100,83)" d="M 1530.58 1146.73 C 1533.48 1139.8 1535.93 1134.07 1541.2 1128.56 C 1547.86 1121.47 1557.16 1117.46 1566.89 1117.46 C 1576.76 1117.4 1583.51 1120.88 1590.35 1127.53 L 1589.05 1129.48 C 1560.71 1109.74 1540.43 1123.29 1532.09 1153.85 C 1523.74 1144.79 1513.76 1132.84 1500.45 1132.45 C 1485.5 1132.01 1479.95 1146.15 1477.5 1158.13 L 1474.74 1157.08 C 1478.57 1140.32 1484.1 1133.13 1500.86 1128.58 C 1515.05 1131.94 1519.77 1137.15 1530.58 1146.73 z"/>
<path transform="translate(0,0)" fill="rgb(248,167,74)" d="M 1563.88 776.694 C 1569.65 779.228 1576.92 782.243 1580.42 787.534 C 1604.39 823.747 1564.88 845.459 1536.13 848.637 C 1551.94 877.88 1535.69 911.793 1501.9 901.675 C 1508.04 891.847 1518.1 869.824 1523.6 858.709 C 1537.25 831.481 1550.68 804.141 1563.88 776.694 z"/>
<path transform="translate(0,0)" fill="rgb(234,100,83)" d="M 1463.36 980.551 C 1471.78 978.832 1484.06 974.404 1491.17 980.25 C 1501.16 988.468 1490.97 1001.09 1484.4 1006.79 C 1499.65 1021.87 1507.45 1044.88 1490.63 1062.83 C 1480.16 1074.01 1462.84 1074.39 1448.43 1074.25 C 1447.4 1102.62 1429.05 1109.2 1410.08 1088.6 L 1411.48 1084.54 C 1417.47 1095.2 1429.16 1103.5 1440.15 1092.42 C 1446.18 1086.34 1445.4 1078.89 1445.17 1070.95 C 1451.63 1071.23 1458.29 1071.55 1464.71 1070.81 C 1502.05 1066.49 1507.27 1027.87 1479 1006.79 C 1484.76 1002.28 1499.91 990.235 1487.46 982.512 C 1480.04 977.916 1468.34 982.576 1460.47 985.198 C 1461.29 983.391 1462.24 982.162 1463.36 980.551 z"/>
<path transform="translate(0,0)" fill="rgb(234,100,83)" d="M 1563.99 774.448 C 1584.44 780.343 1594.96 797.397 1588.7 818.268 C 1582.4 839.302 1560.05 846.934 1540.68 851.108 C 1555.23 881.519 1535.25 915.181 1500.67 903.9 L 1501.9 901.675 C 1535.69 911.793 1551.94 877.88 1536.13 848.637 C 1564.88 845.459 1604.39 823.747 1580.42 787.534 C 1576.92 782.243 1569.65 779.228 1563.88 776.694 L 1563.99 774.448 z"/>
<path transform="translate(0,0)" fill="rgb(234,100,83)" d="M 1587.72 738.6 C 1595.44 739.078 1621.13 748.01 1629.83 750.908 C 1625.44 768.516 1621.78 788.659 1617.37 805.288 C 1627.68 798.342 1640.64 788.961 1653.64 791.753 C 1672.41 795.783 1661.07 817.665 1655.67 827.196 C 1705.15 835.933 1705.54 878.51 1668.47 905.388 C 1687.52 931.427 1686.38 945.054 1650.72 949.689 C 1656.11 977.282 1643.55 979.509 1619.99 976.327 C 1627.33 994.485 1638.14 1015.76 1644.33 1031.9 L 1642.6 1031.63 C 1637.73 1039.8 1620.55 1070.08 1618.05 1077.55 L 1616.63 1079.5 C 1599.72 1072.42 1598.94 1056.85 1602.07 1041.21 C 1564.95 1020.04 1558.04 1003.36 1585.98 968.324 C 1576.79 957.676 1563.45 935.545 1577.62 922.503 C 1584.2 916.438 1593.95 917.513 1602.34 918.047 C 1601.56 859.726 1612.97 809.473 1626.12 753.154 C 1618.52 750.415 1592.05 742.542 1587.72 738.6 z"/>
<path transform="translate(0,0)" fill="rgb(248,167,74)" d="M 1590.8 968.697 C 1582.71 959.899 1574.44 949.426 1574.58 936.98 C 1574.77 919.217 1590.85 920.575 1602.73 921.197 C 1606.86 947.565 1626.21 1012.54 1642.6 1031.63 C 1637.73 1039.8 1620.55 1070.08 1618.05 1077.55 C 1602 1069.14 1602.41 1054.82 1605.98 1039.37 C 1568.87 1022.24 1559.99 998.921 1590.8 968.697 z"/>
<path transform="translate(0,0)" fill="rgb(248,167,74)" d="M 1643.74 794.098 C 1671.98 791.094 1658.29 816.856 1650.56 829.444 C 1652.5 829.629 1654.44 829.882 1656.37 830.203 C 1694.67 836.86 1703.32 870.954 1674.39 896.634 C 1671.08 899.572 1667.14 902.065 1663.45 904.523 C 1687.39 932.861 1680.79 943.212 1646.54 946.698 C 1653.61 973.808 1644.29 978.093 1618.83 972.42 C 1602.96 928.452 1602.52 898.702 1609.41 852.784 C 1611.53 838.703 1613.24 824.813 1616.43 810.786 C 1626.69 802.057 1631.16 798.509 1643.74 794.098 z"/>
<path transform="translate(0,0)" fill="rgb(248,167,74)" d="M 1649.24 1042.87 C 1650.54 1039.63 1653.01 1030.26 1654.06 1028.55 C 1669.95 1002.7 1677.72 1028.07 1677.96 1044.04 C 1690.94 1040.58 1710.31 1036.95 1721.78 1045.03 C 1748.7 1064 1737.53 1096.41 1717.95 1114.43 C 1739.95 1132.09 1736.79 1144.34 1711.09 1153.74 C 1703.18 1137.45 1688.89 1114.74 1679.69 1098.26 C 1671.06 1082.81 1658.43 1056.69 1649.24 1042.87 z"/>
<path transform="translate(0,0)" fill="rgb(248,167,74)" d="M 1823.6 1072.71 C 1796.81 1050.52 1797.58 1028.76 1823.54 1007.11 C 1834.94 1037.15 1855.24 1072.6 1868.53 1102.47 C 1873.13 1112.81 1880.25 1124.66 1884.23 1135.03 C 1879.52 1136.61 1871.84 1138.78 1867.59 1140.44 C 1856.29 1143.14 1843.44 1147.23 1832.34 1150.96 C 1803.41 1130.17 1814.24 1101.74 1823.6 1072.71 z"/>
<path transform="translate(0,0)" fill="rgb(248,167,74)" d="M 1768.16 935.446 C 1750.23 937.876 1726.08 937.37 1721.73 916.745 C 1717.23 895.43 1732.67 883.548 1745.07 870.884 C 1746.29 869.636 1742.66 857.608 1747.11 852.569 C 1758.28 839.933 1769.34 848.574 1779.78 855.582 C 1777.67 864.24 1774.65 885.12 1775.46 893.955 L 1776.51 896.106 L 1775.44 898.109 C 1777.01 906.763 1794.99 948.645 1800.08 956.886 C 1776.3 969.435 1763.91 964.356 1768.16 935.446 z"/>
<path transform="translate(0,0)" fill="rgb(234,100,83)" d="M 1775.46 893.955 L 1776.51 896.106 L 1775.44 898.109 C 1766.62 903.915 1742.68 921.311 1735.07 904.721 C 1737.03 892.234 1765.77 893.974 1775.46 893.955 z"/>
<path transform="translate(0,0)" fill="rgb(248,167,74)" d="M 1756.33 897.405 C 1760.11 897 1767.27 897.086 1771.32 897.015 C 1763.93 902.749 1761.15 904.564 1752.36 907.865 C 1747.49 908.613 1741.59 909.078 1738.45 904.707 L 1739.08 902.689 C 1744.61 897.25 1748.38 897.985 1756.33 897.405 z"/>
<path transform="translate(0,0)" fill="rgb(248,167,74)" d="M 1706.71 703.897 C 1710.28 704.974 1714.67 704.1 1718.53 703.694 C 1712.54 741.061 1689.12 751.32 1664.47 720.684 C 1656.42 726.53 1639.06 739.371 1629.5 730.414 C 1626.17 724.195 1629.92 717.494 1632.9 711.837 C 1636.87 711.472 1639.11 711.518 1642.81 709.95 C 1643.69 710.268 1644.17 710.582 1645 710.542 C 1650.09 710.157 1654.76 709.579 1659.83 708.927 L 1661.49 709.175 L 1685.45 706.647 L 1687.35 706.574 C 1693.81 706.026 1698.87 705.56 1705.31 704.428 L 1706.71 703.897 z"/>
<path transform="translate(0,0)" fill="rgb(234,100,83)" d="M 1647.75 1035.95 C 1650.68 1028.39 1653.74 1019.24 1661.76 1015.99 C 1677.01 1009.82 1680.33 1030.45 1681.47 1039.66 C 1706.75 1034.78 1733.11 1034.35 1739.55 1066.19 C 1743.17 1084.09 1735.54 1100.92 1723.02 1113.69 C 1729.37 1119.62 1735.49 1125.02 1735.71 1134.31 C 1736.02 1147.09 1722.8 1153.88 1712.29 1156.12 L 1711.09 1153.74 C 1736.79 1144.34 1739.95 1132.09 1717.95 1114.43 C 1737.53 1096.41 1748.7 1064 1721.78 1045.03 C 1710.31 1036.95 1690.94 1040.58 1677.96 1044.04 C 1677.72 1028.07 1669.95 1002.7 1654.06 1028.55 C 1653.01 1030.26 1650.54 1039.63 1649.24 1042.87 C 1647.66 1040.19 1647.89 1039.19 1647.75 1035.95 z"/>
<path transform="translate(0,0)" fill="rgb(234,100,83)" d="M 1742.07 870.803 C 1737.26 842.896 1757.37 836.878 1778.22 851.431 L 1779.59 851.038 C 1779.65 852.026 1779.86 854.755 1779.78 855.582 C 1769.34 848.574 1758.28 839.933 1747.11 852.569 C 1742.66 857.608 1746.29 869.636 1745.07 870.884 C 1732.67 883.548 1717.23 895.43 1721.73 916.745 C 1726.08 937.37 1750.23 937.876 1768.16 935.446 C 1763.91 964.356 1776.3 969.435 1800.08 956.886 L 1801.44 959.188 C 1792.92 965.08 1777.74 971.202 1769.24 961.736 C 1763.14 954.938 1763.78 947.782 1764.09 939.209 C 1711.34 946.01 1704.33 898.53 1742.07 870.803 z"/>
<path transform="translate(0,0)" fill="rgb(234,100,83)" d="M 1822.78 1004.79 L 1823.54 1007.11 C 1797.58 1028.76 1796.81 1050.52 1823.6 1072.71 C 1814.24 1101.74 1803.41 1130.17 1832.34 1150.96 C 1830.36 1152.07 1831 1151.72 1828.05 1151 C 1800.65 1133.29 1811.33 1098.96 1820.34 1073.58 C 1796.03 1052.57 1792.44 1021.68 1822.78 1004.79 z"/>
<path transform="translate(0,0)" fill="rgb(234,100,83)" d="M 1718.53 703.694 L 1721.38 703.063 C 1717.28 741.419 1691.43 756.262 1664.11 725.367 C 1647.53 736.052 1615.09 748.253 1628.5 713.443 C 1626.99 712.083 1627.89 712.601 1625.35 712.553 C 1626.62 712.124 1631.28 711.946 1632.9 711.837 C 1629.92 717.494 1626.17 724.195 1629.5 730.414 C 1639.06 739.371 1656.42 726.53 1664.47 720.684 C 1689.12 751.32 1712.54 741.061 1718.53 703.694 z"/>
<path transform="translate(0,0)" fill="rgb(234,100,83)" d="M 1748.08 743.67 C 1741.04 739.729 1726.36 728.852 1728.6 719.725 C 1731.65 720.513 1735.98 732.455 1743.09 737.617 C 1754.88 746.176 1761.24 740.073 1771.71 747.494 C 1768.03 749.311 1755.34 745.98 1751.21 744.837 C 1745.48 769.836 1749.28 782.317 1776.28 784.523 C 1775.95 797.375 1774.21 806.074 1787.14 812.992 C 1787.13 814.595 1787.37 814.434 1786.75 815.717 C 1772.94 809.791 1773.35 801.665 1772.93 788.062 C 1744.13 781.633 1743.68 770.512 1748.08 743.67 z"/>
<path transform="translate(0,0)" fill="rgb(45,57,108)" d="M 1647.75 377.306 C 1648.26 368.19 1648.32 350.848 1655.78 345.868 C 1677.82 331.17 1709.95 334.702 1726.92 355.569 C 1738.86 370.254 1732.44 378.316 1737.78 394.425 C 1750.15 410.662 1774.87 409.192 1785.98 432.118 C 1797.63 456.027 1773.2 488.355 1813.75 493.238 C 1829.66 495.153 1844.76 496.807 1855.33 510.175 C 1864.14 521.329 1862.31 536.002 1858.17 548.293 C 1861.92 563.319 1865.71 581.377 1856.88 595.227 C 1842.34 618.016 1806.96 626.413 1782.23 620.727 C 1784.22 629.5 1796.47 684.648 1799.41 690.518 C 1800.12 692.337 1800.78 693.616 1800.83 695.57 C 1794.58 696.35 1788.33 697.081 1782.07 697.764 L 1780.77 697.85 L 1779.71 698.197 C 1770.88 697.98 1762.57 699.814 1754.12 700.158 L 1752.27 700.263 C 1745.55 701.064 1738.81 701.769 1732.07 702.378 L 1730.25 702.367 C 1727.11 702.735 1724.57 703.106 1721.38 703.063 L 1718.53 703.694 C 1714.67 704.1 1710.28 704.974 1706.71 703.897 L 1705.31 704.428 C 1698.87 705.56 1693.81 706.026 1687.35 706.574 L 1685.45 706.647 L 1661.49 709.175 L 1659.83 708.927 C 1654.76 709.579 1650.09 710.157 1645 710.542 C 1644.17 710.582 1643.69 710.268 1642.81 709.95 C 1639.11 711.518 1636.87 711.472 1632.9 711.837 C 1631.28 711.946 1626.62 712.124 1625.35 712.553 L 1614.21 713.44 L 1612.07 713.684 C 1607.8 714.065 1601.98 714.767 1597.83 714.922 L 1594.78 714.497 L 1594.51 712.329 L 1592.87 657.002 C 1555.12 664.84 1522.58 666.085 1484.44 662.347 L 1482.58 661.694 C 1471.24 661.035 1473.64 653.041 1471.25 642.946 C 1471.52 637.65 1462.79 589.144 1460.59 586.926 C 1457.15 586.934 1455.97 586.926 1452.59 586.238 L 1451.85 586.08 C 1455.72 579.995 1454.32 584.762 1460.08 580.446 L 1459.74 578.968 C 1457.62 578.922 1455.49 578.804 1453.38 578.613 C 1451.79 574.376 1451.68 565.554 1451.74 560.836 L 1451.61 559.846 C 1450.42 555.294 1448.94 539.68 1449.42 535.032 L 1449.3 533.495 C 1448.3 530.517 1447.89 522.732 1446.54 517.584 L 1446.69 513.173 L 1450.04 511.315 C 1476.08 512.31 1508.85 513.234 1534.17 508.311 L 1536.78 507.767 C 1558.31 504.267 1597.34 486.954 1617.9 477.717 C 1610.29 451.352 1626.27 428.14 1639.45 407.024 C 1641.68 398.944 1643.5 391.193 1645.4 383.035 C 1649.32 384.043 1650.04 384.228 1654.06 384.067 C 1651.74 382.797 1649.59 381.625 1647.34 380.23 L 1647.75 377.306 z"/>
<path transform="translate(0,0)" fill="rgb(234,100,83)" d="M 1647.75 377.306 C 1648.26 368.19 1648.32 350.848 1655.78 345.868 C 1677.82 331.17 1709.95 334.702 1726.92 355.569 C 1738.86 370.254 1732.44 378.316 1737.78 394.425 C 1750.15 410.662 1774.87 409.192 1785.98 432.118 C 1797.63 456.027 1773.2 488.355 1813.75 493.238 C 1829.66 495.153 1844.76 496.807 1855.33 510.175 C 1864.14 521.329 1862.31 536.002 1858.17 548.293 C 1861.92 563.319 1865.71 581.377 1856.88 595.227 C 1842.34 618.016 1806.96 626.413 1782.23 620.727 C 1769.76 587.114 1760.71 507.354 1740.05 483.752 C 1729.99 472.27 1718.73 468.347 1703.85 467.269 C 1694.89 468.567 1687.77 470.166 1679.07 472.901 C 1672.34 475.017 1661.6 484.766 1656.08 480.405 C 1650.42 475.932 1654.97 473.557 1655.57 467.555 C 1642.44 469.579 1630.05 471.848 1617.9 477.717 C 1610.29 451.352 1626.27 428.14 1639.45 407.024 C 1641.68 398.944 1643.5 391.193 1645.4 383.035 C 1649.32 384.043 1650.04 384.228 1654.06 384.067 C 1651.74 382.797 1649.59 381.625 1647.34 380.23 L 1647.75 377.306 z"/>
<path transform="translate(0,0)" fill="rgb(247,136,108)" d="M 1662.24 356.328 C 1665.91 373.684 1669.77 372.977 1673.35 384.127 C 1671.27 384.795 1671.23 384.776 1669.04 384.897 L 1668.65 385.907 C 1673.37 390.134 1695.29 401.879 1701.44 403.621 C 1711.71 400.46 1728.15 394.626 1730.88 409.58 C 1733.94 426.324 1722.39 440.018 1705.12 437.301 C 1704.32 447.187 1703.65 457.341 1703.85 467.269 C 1694.89 468.567 1687.77 470.166 1679.07 472.901 C 1672.34 475.017 1661.6 484.766 1656.08 480.405 C 1650.42 475.932 1654.97 473.557 1655.57 467.555 C 1642.44 469.579 1630.05 471.848 1617.9 477.717 C 1610.29 451.352 1626.27 428.14 1639.45 407.024 C 1641.68 398.944 1643.5 391.193 1645.4 383.035 C 1649.32 384.043 1650.04 384.228 1654.06 384.067 C 1651.74 382.797 1649.59 381.625 1647.34 380.23 L 1647.75 377.306 C 1653.12 370.856 1657.67 363.397 1662.24 356.328 z"/>
<path transform="translate(0,0)" fill="rgb(234,100,83)" d="M 1639.45 407.024 C 1638.7 425.345 1637.3 444.836 1658.19 451.915 C 1657.38 455.997 1656.26 458.987 1657.75 462.719 C 1655.44 464.544 1656.17 463.771 1655.57 467.555 C 1642.44 469.579 1630.05 471.848 1617.9 477.717 C 1610.29 451.352 1626.27 428.14 1639.45 407.024 z"/>
<path transform="translate(0,0)" fill="rgb(1,0,0)" d="M 1658.19 451.915 C 1676.77 454.039 1688.12 449.254 1703.82 439.24 C 1689.77 455.04 1678.7 458.815 1657.75 462.719 C 1656.26 458.987 1657.38 455.997 1658.19 451.915 z"/>
<path transform="translate(0,0)" fill="rgb(1,0,0)" d="M 1670.95 420.114 C 1672.29 421.914 1672 422.069 1672.32 424.487 C 1670.31 430.682 1664.71 431.629 1658.92 431.003 C 1657.27 429.002 1656.8 428.725 1656.62 426.107 C 1659.33 422.644 1666.28 421.486 1670.95 420.114 z"/>
<path transform="translate(0,0)" fill="rgb(1,0,0)" d="M 1720.76 407.628 C 1722.13 408.237 1721.65 408.037 1722.69 409.385 C 1721.38 411.788 1719.81 413.444 1718.05 415.514 C 1720.17 416.932 1721.09 417.692 1723.01 419.374 L 1721.76 420.122 L 1722.85 419.179 L 1722.26 418.633 L 1720.37 420.202 C 1717.65 419.631 1716.12 419.058 1713.42 419.897 C 1711.44 421.743 1710.95 422.511 1708.28 423.081 L 1707.99 421.797 C 1711.63 416.088 1715.94 412.307 1720.76 407.628 z"/>
<path transform="translate(0,0)" fill="rgb(1,0,0)" d="M 1659.56 396.702 C 1660.29 397.425 1660.39 397.956 1660.87 398.967 C 1657.94 406.6 1657.78 414.491 1655.66 420.135 C 1650.52 412.364 1654.82 403.451 1659.56 396.702 z"/>
<path transform="translate(0,0)" fill="rgb(1,0,0)" d="M 1646.76 388.253 C 1648.58 389.064 1648.75 389.516 1650.06 391.006 C 1651.53 395.012 1650.33 398.178 1649.43 402.487 L 1647.94 402.543 C 1646.42 400.391 1647.02 392.3 1646.76 388.253 z"/>
<path transform="translate(0,0)" fill="rgb(1,0,0)" d="M 1668.76 391.445 C 1670.96 392.238 1670.95 392.562 1672.36 394.393 C 1673.47 398.517 1672.32 401.535 1671.35 405.777 L 1669.99 405.581 C 1668.6 403.301 1669.47 397.04 1668.89 392.477 L 1668.76 391.445 z"/>
<path transform="translate(0,0)" fill="rgb(254,254,253)" d="M 1752.57 694.068 C 1752.96 693.191 1753.37 692.323 1753.8 691.464 C 1756.48 686.141 1760 680.549 1765.84 678.623 C 1776.33 678.66 1774.66 689.827 1783.32 688.216 C 1785.73 686.023 1786.29 685.12 1789.33 684.429 C 1793.31 685.27 1796.2 687.999 1799.41 690.518 C 1800.12 692.337 1800.78 693.616 1800.83 695.57 C 1794.58 696.35 1788.33 697.081 1782.07 697.764 L 1780.77 697.85 L 1779.71 698.197 C 1770.88 697.98 1762.57 699.814 1754.12 700.158 L 1752.27 700.263 C 1745.55 701.064 1738.81 701.769 1732.07 702.378 L 1730.25 702.367 C 1727.11 702.735 1724.57 703.106 1721.38 703.063 L 1718.53 703.694 C 1714.67 704.1 1710.28 704.974 1706.71 703.897 L 1705.31 704.428 C 1698.87 705.56 1693.81 706.026 1687.35 706.574 L 1685.45 706.647 L 1661.49 709.175 L 1659.83 708.927 C 1654.76 709.579 1650.09 710.157 1645 710.542 C 1644.17 710.582 1643.69 710.268 1642.81 709.95 C 1639.11 711.518 1636.87 711.472 1632.9 711.837 C 1631.28 711.946 1626.62 712.124 1625.35 712.553 L 1614.21 713.44 L 1612.07 713.684 C 1607.8 714.065 1601.98 714.767 1597.83 714.922 L 1594.78 714.497 L 1594.51 712.329 C 1597.66 706.669 1600.74 699.225 1608.12 699.999 C 1619.84 709.916 1618.56 694.899 1628.98 693.603 C 1635.59 694.968 1639.64 699.758 1643.98 704.606 C 1647.53 700.253 1648.34 698.71 1653.33 697.929 C 1656.88 698.976 1657.84 700.406 1660.47 703.021 C 1669.08 688.568 1675.93 683.733 1686.65 700.005 C 1693.61 690.84 1696.48 692.124 1704.55 698.473 C 1712.96 680.893 1719.92 678.378 1731.07 695.647 C 1738.98 684.478 1743.37 684.795 1752.57 694.068 z"/>
<path transform="translate(0,0)" fill="rgb(45,57,108)" d="M 1754.12 700.158 C 1761.9 678.511 1769.67 676.679 1780.77 697.85 L 1779.71 698.197 C 1770.88 697.98 1762.57 699.814 1754.12 700.158 z"/>
<path transform="translate(0,0)" fill="rgb(45,57,108)" d="M 1614.21 713.44 C 1622.5 695.55 1631.41 691.711 1642.81 709.95 C 1639.11 711.518 1636.87 711.472 1632.9 711.837 C 1631.28 711.946 1626.62 712.124 1625.35 712.553 L 1614.21 713.44 z"/>
<path transform="translate(0,0)" fill="rgb(45,57,108)" d="M 1706.71 703.897 C 1708.95 696.511 1710.81 688.234 1719.69 688.186 C 1725.74 691.071 1727.32 696.306 1730.25 702.367 C 1727.11 702.735 1724.57 703.106 1721.38 703.063 L 1718.53 703.694 C 1714.67 704.1 1710.28 704.974 1706.71 703.897 z"/>
<path transform="translate(0,0)" fill="rgb(45,57,108)" d="M 1661.49 709.175 C 1668.68 691.387 1676.8 686.825 1685.45 706.647 L 1661.49 709.175 z"/>
<path transform="translate(0,0)" fill="rgb(45,57,108)" d="M 1732.07 702.378 C 1734.4 697.115 1736.12 691.974 1742.27 690.856 C 1747.68 692.055 1749.26 695.648 1752.27 700.263 C 1745.55 701.064 1738.81 701.769 1732.07 702.378 z"/>
<path transform="translate(0,0)" fill="rgb(45,57,108)" d="M 1597.83 714.922 C 1599.78 709.895 1601.98 702.254 1608.56 704.128 C 1611.35 706.965 1611.35 709.669 1612.07 713.684 C 1607.8 714.065 1601.98 714.767 1597.83 714.922 z"/>
<path transform="translate(0,0)" fill="rgb(45,57,108)" d="M 1687.35 706.574 C 1689.75 701.582 1691.07 697.487 1697.05 697.373 C 1700.83 698.973 1702.52 701.37 1705.31 704.428 C 1698.87 705.56 1693.81 706.026 1687.35 706.574 z"/>
<path transform="translate(0,0)" fill="rgb(45,57,108)" d="M 1782.07 697.764 C 1783.93 692.78 1784.06 690.551 1788.61 688.241 C 1792.94 689.13 1796.49 693.265 1800.83 695.57 C 1794.58 696.35 1788.33 697.081 1782.07 697.764 z"/>
<path transform="translate(0,0)" fill="rgb(45,57,108)" d="M 1645 710.542 C 1647.26 706.261 1648.31 702.413 1653.37 701.717 C 1656.63 703.323 1657.76 705.818 1659.83 708.927 C 1654.76 709.579 1650.09 710.157 1645 710.542 z"/>
<path transform="translate(0,0)" fill="rgb(45,57,108)" d="M 1451.74 560.836 C 1454.15 562.31 1458.77 564.409 1459.32 566.471 L 1457.68 568.653 C 1463.38 571.908 1472.18 571.326 1475.43 576.646 C 1474.75 581.925 1466.51 588.304 1462.35 591.491 L 1461.64 592.032 C 1467.7 592.646 1484.31 593.014 1482.49 602.806 C 1481.65 607.333 1475.82 610.695 1472.03 612.893 C 1470.98 613.498 1469.93 614.095 1468.87 614.683 C 1490.82 620.167 1502.86 627.577 1473.18 638.505 C 1478.45 640.708 1489.96 644.635 1492.18 649.571 C 1491.16 653.22 1486.56 657.134 1483.49 659.111 L 1482.58 661.694 C 1471.24 661.035 1473.64 653.041 1471.25 642.946 C 1471.52 637.65 1462.79 589.144 1460.59 586.926 C 1457.15 586.934 1455.97 586.926 1452.59 586.238 L 1451.85 586.08 C 1455.72 579.995 1454.32 584.762 1460.08 580.446 L 1459.74 578.968 C 1457.62 578.922 1455.49 578.804 1453.38 578.613 C 1451.79 574.376 1451.68 565.554 1451.74 560.836 z"/>
<path transform="translate(0,0)" fill="rgb(254,254,253)" d="M 1446.69 513.173 L 1450.04 511.315 C 1455.22 514.759 1459.69 516.847 1461.13 522.984 C 1460.49 529.874 1457.06 527.993 1458.37 533.138 C 1464.24 539.583 1469.88 537.862 1470.39 545.308 C 1468.1 551.664 1462.02 556.064 1456.89 560.176 C 1471.11 569.176 1486.39 571.872 1470.91 589.397 C 1486.71 593.2 1493.23 599.729 1478.92 612.753 L 1478.3 613.304 C 1495.14 619.585 1503.23 628.291 1482.89 638.549 C 1488.59 641.643 1493.42 643.352 1495.29 649.641 C 1495.18 656.501 1489.86 659.245 1484.44 662.347 L 1482.58 661.694 L 1483.49 659.111 C 1486.56 657.134 1491.16 653.22 1492.18 649.571 C 1489.96 644.635 1478.45 640.708 1473.18 638.505 C 1502.86 627.577 1490.82 620.167 1468.87 614.683 C 1469.93 614.095 1470.98 613.498 1472.03 612.893 C 1475.82 610.695 1481.65 607.333 1482.49 602.806 C 1484.31 593.014 1467.7 592.646 1461.64 592.032 L 1462.35 591.491 C 1466.51 588.304 1474.75 581.925 1475.43 576.646 C 1472.18 571.326 1463.38 571.908 1457.68 568.653 L 1459.32 566.471 C 1458.77 564.409 1454.15 562.31 1451.74 560.836 L 1451.61 559.846 C 1450.42 555.294 1448.94 539.68 1449.42 535.032 L 1449.3 533.495 C 1448.3 530.517 1447.89 522.732 1446.54 517.584 L 1446.69 513.173 z"/>
<path transform="translate(0,0)" fill="rgb(45,57,108)" d="M 1451.61 559.846 C 1450.42 555.294 1448.94 539.68 1449.42 535.032 C 1455.94 536.528 1461.31 536.887 1465.27 542.264 C 1466.77 550.754 1457.85 555.327 1451.61 559.846 z"/>
<path transform="translate(0,0)" fill="rgb(45,57,108)" d="M 1446.54 517.584 L 1446.69 513.173 C 1458.67 520.515 1463.15 524.249 1449.3 533.495 C 1448.3 530.517 1447.89 522.732 1446.54 517.584 z"/>
<path transform="translate(0,0)" fill="rgb(254,254,253)" d="M 1534.17 508.311 L 1536.78 507.767 C 1542.14 514.471 1551.42 525.456 1548.11 534.471 C 1545.45 536.587 1546.79 536.141 1543.15 535.915 C 1534.95 531.161 1533.41 517.009 1534.17 508.311 z"/>
<path transform="translate(0,0)" fill="rgb(45,57,108)" d="M 1537.93 515.76 C 1538.31 516.078 1538.69 516.397 1539.07 516.715 C 1543.74 521.511 1546.35 527.944 1546.33 534.638 L 1543.74 533.768 C 1539.41 529.635 1538.86 521.717 1537.93 515.76 z"/>
<path transform="translate(0,0)" fill="rgb(254,254,253)" d="M 1632.95 497.705 C 1634.71 498.84 1634.09 498.053 1634.63 500.306 C 1621.42 515.69 1591.35 532.594 1573.07 541.054 C 1579.32 547.642 1593.12 560.715 1584.18 569.924 C 1570.52 571.583 1569.67 552.244 1568.88 542.908 C 1556.56 547.782 1546.2 551.083 1533.5 554.727 C 1526.76 556.111 1501.15 562.328 1495.67 560.314 L 1495.45 558.891 C 1497.81 557.445 1521.73 554.073 1526.64 553.034 C 1566.35 544.331 1603.04 525.237 1632.95 497.705 z"/>
<path transform="translate(0,0)" fill="rgb(45,57,108)" d="M 1572.84 545.852 C 1578.89 551.491 1584.48 558.191 1585.33 566.613 C 1572.97 568.382 1572.99 554.744 1572.84 545.852 z"/>
<path transform="translate(0,0)" fill="rgb(254,254,253)" d="M 1738.59 550.528 L 1740.22 551.879 C 1740.69 554.002 1740.19 554.922 1739.26 556.864 C 1719.99 597.247 1687.5 625.586 1646.22 641.338 L 1644.48 640.292 C 1644.9 637.368 1653.16 635.036 1656.4 633.576 C 1695.85 615.789 1719.75 588.56 1738.59 550.528 z"/>
<path transform="translate(0,0)" fill="rgb(45,57,108)" d="M 234.008 680.58 C 250.059 685.832 259.071 687.397 276.048 689.105 L 279.085 689.778 L 282.201 689.11 C 287.353 688.616 305.786 688.417 310.882 689.107 C 315.728 689.03 320.434 689.068 325.242 688.436 C 326.524 687.626 328.313 688.244 330.266 688.465 L 351.165 684.799 C 353.494 705.753 356.337 728.016 357.726 749.104 C 357.75 749.461 355.1 752.242 354.673 752.687 C 353.516 774.512 356.5 884.724 362.202 897.812 C 360.633 904.733 360.018 944.699 359.682 954.129 C 358.187 998.486 356.443 1042.83 354.451 1087.17 C 353.667 1103.42 352.397 1140.12 349.487 1155.43 C 344.64 1156.43 328.024 1157.94 325.212 1159.13 L 322.012 1158.82 C 314.477 1159.28 304.511 1159.6 297.198 1160.43 L 294.706 1160.61 C 286.691 1160.66 276.893 1161.14 269.147 1160.94 L 266.43 1161.42 C 258.905 1161.08 253.154 1161.24 245.682 1161.52 L 239.29 1161.66 L 236.278 1162.16 C 234.066 1161.28 217.658 1160.05 213.656 1159.58 C 212.267 1144.58 213.734 1116.81 214.214 1101.02 L 217.762 999.745 C 221.463 893.276 226.879 786.874 234.008 680.58 z"/>
<path transform="translate(0,0)" fill="rgb(45,57,108)" d="M 234.008 680.58 C 250.059 685.832 259.071 687.397 276.048 689.105 L 279.085 689.778 C 278.521 788.374 275.279 890.612 273.047 989.423 L 270.614 1102.85 C 270.21 1121.24 270.417 1142.98 269.147 1160.94 L 266.43 1161.42 C 258.905 1161.08 253.154 1161.24 245.682 1161.52 L 239.29 1161.66 L 236.278 1162.16 C 234.066 1161.28 217.658 1160.05 213.656 1159.58 C 212.267 1144.58 213.734 1116.81 214.214 1101.02 L 217.762 999.745 C 221.463 893.276 226.879 786.874 234.008 680.58 z"/>
<path transform="translate(0,0)" fill="rgb(107,105,222)" d="M 236.271 745.126 C 243.858 735.419 250.097 731.994 255.944 720.549 C 259.894 712.815 257.489 704.741 259.932 701.932 L 261.434 702.735 C 265.042 717.444 256.081 722.497 253.005 734.573 C 252.01 738.478 252.144 754.348 252.005 759.483 L 250.529 805.129 L 239.29 1161.66 L 236.278 1162.16 C 235.848 1139.34 237.702 1115.38 238.189 1092.46 C 240.708 973.861 247.369 854.765 249.309 736.215 C 244.795 739.584 241.198 742.4 236.271 745.126 z"/>
<path transform="translate(0,0)" fill="rgb(107,105,222)" d="M 276.048 689.105 L 279.085 689.778 C 278.521 788.374 275.279 890.612 273.047 989.423 L 270.614 1102.85 C 270.21 1121.24 270.417 1142.98 269.147 1160.94 L 266.43 1161.42 C 265.728 1147.7 266.88 1124.88 267.199 1110.45 L 269.239 1015.81 L 276.048 689.105 z"/>
<path transform="translate(0,0)" fill="rgb(45,57,108)" d="M 330.266 688.465 L 351.165 684.799 C 353.494 705.753 356.337 728.016 357.726 749.104 C 357.75 749.461 355.1 752.242 354.673 752.687 C 353.516 774.512 356.5 884.724 362.202 897.812 C 360.633 904.733 360.018 944.699 359.682 954.129 C 358.187 998.486 356.443 1042.83 354.451 1087.17 C 353.667 1103.42 352.397 1140.12 349.487 1155.43 C 344.64 1156.43 328.024 1157.94 325.212 1159.13 C 324.346 1145.04 326.037 1115.87 326.422 1100.92 L 328.618 992.52 C 330.334 891.597 329.783 789.498 330.266 688.465 z"/>
<path transform="translate(0,0)" fill="rgb(45,57,108)" d="M 282.201 689.11 C 287.353 688.616 305.786 688.417 310.882 689.107 C 307.133 689.896 306.691 689.322 304.459 691.792 C 302.997 727.4 303.377 766.365 302.856 802.174 L 299.424 1035.12 L 298.258 1119.62 C 298.097 1129.91 298.378 1151.08 297.198 1160.43 L 294.706 1160.61 C 286.691 1160.66 276.893 1161.14 269.147 1160.94 C 270.417 1142.98 270.21 1121.24 270.614 1102.85 L 273.047 989.423 C 275.279 890.612 278.521 788.374 279.085 689.778 L 282.201 689.11 z"/>
<path transform="translate(0,0)" fill="rgb(107,105,222)" d="M 282.201 689.11 C 287.353 688.616 305.786 688.417 310.882 689.107 C 307.133 689.896 306.691 689.322 304.459 691.792 C 302.997 727.4 303.377 766.365 302.856 802.174 L 299.424 1035.12 L 298.258 1119.62 C 298.097 1129.91 298.378 1151.08 297.198 1160.43 L 294.706 1160.61 C 293.929 1147.8 294.911 1123.02 295.096 1109.22 L 296.582 1008.47 L 301.106 689.961 C 294.363 689.951 288.927 690.066 282.201 689.11 z"/>
<path transform="translate(0,0)" fill="rgb(107,105,222)" d="M 325.242 688.436 C 326.524 687.626 328.313 688.244 330.266 688.465 C 329.783 789.498 330.334 891.597 328.618 992.52 L 326.422 1100.92 C 326.037 1115.87 324.346 1145.04 325.212 1159.13 L 322.012 1158.82 C 321.4 1107.17 324.396 1046.58 325.304 993.91 C 326.238 916.023 326.743 838.13 326.82 760.237 C 326.928 742.129 327.451 709.451 326.714 690.025 C 326.223 689.495 325.733 688.965 325.242 688.436 z"/>
<path transform="translate(0,0)" fill="rgb(107,105,222)" d="M 309.82 435.324 L 310.884 435.619 C 321.06 438.372 335.1 438.785 344.253 442.858 C 361.32 450.453 379.984 472.686 394.092 486.398 C 403.072 495.164 412.349 503.619 421.908 511.748 L 424.111 513.622 C 428.636 516.787 433.082 520.064 437.444 523.45 C 436.547 526.659 435.48 530.935 434.464 534.015 C 429.669 549.674 425.146 565.414 420.897 581.23 C 442.036 593.471 465.219 604.101 485.298 615.827 C 498.339 612.305 512.302 607.473 525.64 607.613 C 531.163 611.755 533.984 613.786 538.805 618.805 L 540.838 620.913 C 544.382 622.791 543.159 621.703 545.405 625.164 C 560.141 632.378 570.704 635.439 556.004 651.133 C 552.133 651.154 548.623 650.705 545.392 652.555 C 548.26 653.972 551.171 653.193 554.484 652.612 C 553.224 665.634 553.334 676.061 542.3 684.953 C 533.883 691.637 523.333 695.051 512.596 694.565 C 509.653 693.541 505.174 692.424 502.059 691.555 C 489.2 688.631 469.449 678.229 458.994 676.116 C 441.729 672.627 425.824 671.911 407.175 667.423 L 406.035 667.12 C 402.591 669.447 401.37 670.428 397.306 671.772 L 393.807 673.401 L 375.935 679.07 L 372.84 680.419 C 367.383 681.447 359.855 683.256 354.715 684.002 L 351.165 684.799 L 330.266 688.465 C 328.313 688.244 326.524 687.626 325.242 688.436 C 320.434 689.068 315.728 689.03 310.882 689.107 C 305.786 688.417 287.353 688.616 282.201 689.11 L 279.085 689.778 L 276.048 689.105 C 259.071 687.397 250.059 685.832 234.008 680.58 C 230.681 679.078 228.596 678.531 226.386 675.659 C 218.735 645.782 218.497 608.795 211.485 578.235 C 208.01 563.091 201.408 550.929 199.222 535.317 C 197.673 524.392 197.64 513.305 199.122 502.371 C 202.722 476.644 217.148 455.608 240.834 444.329 C 246.181 441.783 257.046 437.431 262.842 438.255 L 262.647 439.183 C 260.898 439.301 261.509 439.116 259.925 439.938 C 261.637 454.686 305.812 458.808 314.524 449.264 C 309.824 444.625 310.867 442.696 309.82 435.324 z"/>
<path transform="translate(0,0)" fill="rgb(247,136,108)" d="M 377.744 558.328 C 383.749 561.2 398.38 567.617 402.683 571.906 L 405.677 573.162 C 410.549 574.656 416.552 578.417 420.897 581.23 C 442.036 593.471 465.219 604.101 485.298 615.827 C 498.339 612.305 512.302 607.473 525.64 607.613 C 531.163 611.755 533.984 613.786 538.805 618.805 L 540.838 620.913 C 544.382 622.791 543.159 621.703 545.405 625.164 C 560.141 632.378 570.704 635.439 556.004 651.133 C 552.133 651.154 548.623 650.705 545.392 652.555 C 548.26 653.972 551.171 653.193 554.484 652.612 C 553.224 665.634 553.334 676.061 542.3 684.953 C 533.883 691.637 523.333 695.051 512.596 694.565 C 509.653 693.541 505.174 692.424 502.059 691.555 C 489.2 688.631 469.449 678.229 458.994 676.116 C 441.729 672.627 425.824 671.911 407.175 667.423 L 406.035 667.12 C 388.809 663.581 368.556 656.411 352.203 650.151 C 358.349 627.525 369.771 589.181 374.017 567.029 C 376.928 563.877 376.951 562.42 377.744 558.328 z"/>
<path transform="translate(0,0)" fill="rgb(1,0,0)" d="M 545.405 625.164 C 535.815 624.036 527.017 623.283 517.623 620.865 L 517.819 620.289 C 527.446 619.287 531.493 620.541 540.838 620.913 C 544.382 622.791 543.159 621.703 545.405 625.164 z"/>
<path transform="translate(0,0)" fill="rgb(254,254,253)" d="M 362.044 541.815 C 345.091 531.758 331.156 522.812 311.877 517.58 C 307.458 516.381 301.701 510.844 300.17 505.992 C 300.788 502.389 299.984 503.857 302.59 501.393 C 312.097 499.065 326.446 516.616 334.059 521.424 C 348.801 530.736 364.107 539.154 379.274 547.76 L 377.744 558.328 C 376.951 562.42 376.928 563.877 374.017 567.029 C 373.482 562.035 374.86 554.641 375.591 549.471 L 364.84 543.451 C 355.967 581.272 344.934 621.062 335.124 658.83 C 315.295 653.583 299.757 648.368 281.688 638.301 C 258.196 625.17 237.526 607.534 220.859 586.403 C 218.196 582.999 214.075 578.135 212.929 574.135 L 214.155 573.287 C 216.207 574.504 230.111 592.148 233.698 596.068 C 262.297 627.312 292.666 643.789 332.881 654.705 C 341.506 617.863 352.479 578.567 362.044 541.815 z"/>
<path transform="translate(0,0)" fill="rgb(107,105,222)" d="M 303.136 503.802 C 310.61 504.992 319.195 513.197 324.808 518.257 C 316.726 516.753 305.124 512.772 303.136 503.802 z"/>
<path transform="translate(0,0)" fill="rgb(107,105,222)" d="M 424.111 513.622 C 428.636 516.787 433.082 520.064 437.444 523.45 C 436.547 526.659 435.48 530.935 434.464 534.015 C 429.669 549.674 425.146 565.414 420.897 581.23 C 416.552 578.417 410.549 574.656 405.677 573.162 C 411.938 553.351 418.083 533.504 424.111 513.622 z"/>
<path transform="translate(0,0)" fill="rgb(254,254,253)" d="M 421.908 511.748 L 424.111 513.622 C 418.083 533.504 411.938 553.351 405.677 573.162 L 402.683 571.906 C 405.962 561.046 417.492 520.662 421.908 511.748 z"/>
<path transform="translate(0,0)" fill="rgb(107,105,222)" d="M 406.035 667.12 L 407.175 667.423 C 412.174 680.042 427.158 704.775 434.305 719.971 C 459.561 769.874 480.518 829.134 496.127 882.752 C 499.023 892.7 504.503 911.389 506.32 921.233 C 509.577 932.057 518.503 961.19 519.081 971.028 C 520.631 984.713 526.437 1007.5 529.263 1022.08 C 535.21 1052.96 539.741 1084.1 542.842 1115.39 C 538.683 1116.8 528.176 1120.06 524.856 1122.03 L 522.644 1121.85 L 519.448 1122.88 C 510.557 1125.72 501.138 1128.55 492.35 1131.56 L 490.417 1131.86 C 484.031 1134.3 469.379 1138.4 464.94 1140.54 L 462.135 1141.18 L 447.324 1146.02 L 438.301 1148.8 L 436.778 1149.29 C 427.575 1152.24 418.389 1155.25 409.222 1158.32 C 401.678 1115.42 394.54 1072.45 387.809 1029.41 C 382.879 996.783 378.808 965.007 371.029 932.823 C 368.433 922.083 365.774 907.988 362.202 897.812 C 356.5 884.724 353.516 774.512 354.673 752.687 C 355.1 752.242 357.75 749.461 357.726 749.104 C 356.337 728.016 353.494 705.753 351.165 684.799 L 354.715 684.002 C 359.855 683.256 367.383 681.447 372.84 680.419 L 375.935 679.07 L 393.807 673.401 L 397.306 671.772 C 401.37 670.428 402.591 669.447 406.035 667.12 z"/>
<path transform="translate(0,0)" fill="rgb(45,57,108)" d="M 392.208 738.312 C 398.413 735.93 405.622 732.494 411.783 729.752 C 441.115 781.132 479.759 858.403 499.125 914.234 C 502.773 924.431 506.143 934.726 509.232 945.106 C 511.114 951.577 514.359 967.707 519.081 971.028 C 520.631 984.713 526.437 1007.5 529.263 1022.08 C 535.21 1052.96 539.741 1084.1 542.842 1115.39 C 538.683 1116.8 528.176 1120.06 524.856 1122.03 L 522.644 1121.85 C 509.504 1050.83 489.6 972.246 465.741 904.232 C 446.337 848.916 417.879 790.938 392.208 738.312 z"/>
<path transform="translate(0,0)" fill="rgb(45,57,108)" d="M 357.607 753.781 C 360.571 752.695 365.212 750.501 368.237 749.178 C 378.087 768.256 386.782 790.457 395.664 809.817 C 435.924 897.568 462.28 987.945 479.686 1082.79 C 480.881 1089.3 487.926 1128.69 490.417 1131.86 C 484.031 1134.3 469.379 1138.4 464.94 1140.54 C 457.746 1106.76 449.02 1072.13 440.933 1038.52 C 433.568 1007.92 425.902 976.068 417.296 945.843 C 406.49 907.895 393.026 870.112 380.148 832.783 C 373.088 812.317 364.321 791.38 358.542 770.559 C 357.512 766.851 357.605 757.972 357.607 753.781 z"/>
<path transform="translate(0,0)" fill="rgb(45,57,108)" d="M 371.243 747.992 C 376.047 745.405 384.099 742.111 389.287 739.798 C 417.259 796.437 444.353 854.821 465.939 914.194 C 480.238 955.691 491.467 998.499 501.498 1041.2 C 507.811 1068.08 514.599 1095.72 519.448 1122.88 C 510.557 1125.72 501.138 1128.55 492.35 1131.56 C 482.258 1074.27 466.383 997.53 449.76 942.242 C 431.104 880.198 398.588 806.388 371.243 747.992 z"/>
<path transform="translate(0,0)" fill="rgb(45,57,108)" d="M 438.301 1148.8 C 437.872 1141.09 424.548 1090.62 422.132 1080.25 C 412.1 1037.16 402.939 993.631 392.344 950.734 C 385.957 924.515 379.24 898.377 372.195 872.327 C 367.938 856.551 361.82 836.177 359.213 820.44 C 357.82 812.033 358.216 790.843 358.345 781.998 C 376.165 835.276 397.089 886.613 412.603 941.54 C 431.327 1007.84 445.596 1074.47 462.135 1141.18 L 447.324 1146.02 L 438.301 1148.8 z"/>
<path transform="translate(0,0)" fill="rgb(45,57,108)" d="M 362.202 897.812 C 363.904 888.293 360.195 854.329 360.254 840.865 C 370.485 877.759 380.172 914.802 389.312 951.982 C 394.505 973.15 432.573 1144.9 436.778 1149.29 C 427.575 1152.24 418.389 1155.25 409.222 1158.32 C 401.678 1115.42 394.54 1072.45 387.809 1029.41 C 382.879 996.783 378.808 965.007 371.029 932.823 C 368.433 922.083 365.774 907.988 362.202 897.812 z"/>
<path transform="translate(0,0)" fill="rgb(45,57,108)" d="M 415.247 728.888 C 419.633 725.479 427.841 724.127 434.305 719.971 C 459.561 769.874 480.518 829.134 496.127 882.752 C 499.023 892.7 504.503 911.389 506.32 921.233 C 504.023 918.144 493.682 890.768 491.226 884.686 C 485.662 870.931 479.82 857.29 473.701 843.772 C 455.751 804.716 436.251 766.391 415.247 728.888 z"/>
<path transform="translate(0,0)" fill="rgb(45,57,108)" d="M 406.035 667.12 L 407.175 667.423 C 412.174 680.042 427.158 704.775 434.305 719.971 C 427.841 724.127 419.633 725.479 415.247 728.888 C 414.46 727.82 413.842 727.468 412.793 726.595 C 408.785 726.779 404.955 729.2 401.23 731.066 C 400.001 714.478 397.205 687.542 397.306 671.772 C 401.37 670.428 402.591 669.447 406.035 667.12 z"/>
<path transform="translate(0,0)" fill="rgb(45,57,108)" d="M 372.84 680.419 C 374.876 700.532 377.036 720.632 379.32 740.719 L 361.365 748.372 C 359.915 727.721 355.641 703.658 354.715 684.002 C 359.855 683.256 367.383 681.447 372.84 680.419 z"/>
<path transform="translate(0,0)" fill="rgb(45,57,108)" d="M 393.807 673.401 C 394.812 692.465 396.143 713.639 397.985 732.624 L 382.414 738.885 C 380.73 720.414 378.482 697.467 375.935 679.07 L 393.807 673.401 z"/>
<path transform="translate(0,0)" fill="rgb(248,167,74)" d="M 578.658 1136.73 C 579.206 1125.82 581.14 1110.77 593.719 1107.18 C 602.962 1108.55 599.817 1118.8 598.32 1125.18 C 605.274 1120.17 617.215 1111.65 625.652 1118.5 C 629.631 1128.07 618.432 1134.77 611.802 1139.89 C 663.138 1138.47 684.31 1137.25 710.507 1188.21 C 698.528 1194.48 683.104 1200.08 670.235 1204.96 C 644.151 1214.73 617.855 1223.92 591.365 1232.53 C 577.806 1236.93 558.263 1245.63 544.606 1241.94 C 538.321 1240.24 529.567 1235.07 523.178 1235.47 C 517.671 1239.51 517.597 1250.95 515.608 1252.8 C 508.268 1259.63 484.324 1268.78 474.869 1268.55 C 465.907 1263.85 450.242 1193.92 448.852 1180.95 C 448.336 1176.13 449.559 1171.95 453.942 1169.21 C 451.819 1163.21 447.04 1151.6 447.324 1146.02 L 462.135 1141.18 L 464.94 1140.54 C 469.379 1138.4 484.031 1134.3 490.417 1131.86 L 492.35 1131.56 C 501.138 1128.55 510.557 1125.72 519.448 1122.88 L 522.644 1121.85 L 524.856 1122.03 C 528.452 1123 529.393 1123.38 533.047 1123.41 C 544.718 1117.33 566.019 1134.45 578.658 1136.73 z M 600.931 1140.93 C 607.165 1138.18 625.376 1128.63 621.341 1120.68 C 610.029 1115.66 596.942 1132.2 590.659 1139.73 C 593.996 1140.18 597.591 1140.76 600.931 1140.93 z M 584.129 1139.27 C 589.152 1136.27 599.407 1117.29 594.343 1112.06 L 591.657 1112.54 C 584.234 1117.92 581.083 1130.15 582.908 1138.69 L 584.129 1139.27 z"/>
<path transform="translate(0,0)" fill="rgb(247,136,108)" d="M 522.644 1121.85 L 524.856 1122.03 C 528.452 1123 529.393 1123.38 533.047 1123.41 C 523.912 1140.27 512.703 1156.24 493.513 1161.88 C 480.68 1165.65 466.536 1165.92 453.942 1169.21 C 451.819 1163.21 447.04 1151.6 447.324 1146.02 L 462.135 1141.18 L 464.94 1140.54 C 469.379 1138.4 484.031 1134.3 490.417 1131.86 L 492.35 1131.56 C 501.138 1128.55 510.557 1125.72 519.448 1122.88 L 522.644 1121.85 z"/>
<path transform="translate(0,0)" fill="rgb(234,100,83)" d="M 578.658 1136.73 C 579.206 1125.82 581.14 1110.77 593.719 1107.18 C 602.962 1108.55 599.817 1118.8 598.32 1125.18 C 605.274 1120.17 617.215 1111.65 625.652 1118.5 C 629.631 1128.07 618.432 1134.77 611.802 1139.89 L 610.924 1140.24 C 603.521 1143.25 598.861 1148.36 591.977 1147.56 L 591.666 1147.87 L 593.182 1148.21 L 591.518 1148.04 C 595.57 1144.5 595.692 1144.66 600.706 1142.73 L 600.931 1140.93 C 607.165 1138.18 625.376 1128.63 621.341 1120.68 C 610.029 1115.66 596.942 1132.2 590.659 1139.73 C 589.095 1141.41 587.458 1143.67 585.359 1144.07 C 584.456 1141.8 584.48 1141.59 584.129 1139.27 C 589.152 1136.27 599.407 1117.29 594.343 1112.06 L 591.657 1112.54 C 584.234 1117.92 581.083 1130.15 582.908 1138.69 C 582.111 1141.71 582.19 1143.52 580.187 1145.4 C 578.633 1142.89 578.842 1139.81 578.658 1136.73 z"/>
<path transform="translate(0,0)" fill="rgb(107,105,222)" d="M 1832.34 1150.96 C 1843.44 1147.23 1856.29 1143.14 1867.59 1140.44 C 1871.49 1152.53 1876.38 1168.27 1878.97 1180.59 C 1879.69 1180.43 1880.8 1180.1 1881.57 1180.14 C 1883.25 1180.22 1884.14 1180.42 1885.14 1181.8 C 1888.47 1186.39 1887.14 1256.22 1885.66 1267.26 C 1885.3 1269.9 1884.52 1275.16 1882.32 1276.75 C 1878.68 1279.38 1870.75 1280.13 1866.35 1280.57 C 1829.29 1284.28 1788.12 1284.71 1750.56 1286.59 C 1731.04 1287.58 1678.62 1292.53 1662.01 1289.35 C 1659.52 1288.87 1657.65 1286.86 1656.42 1284.76 C 1651.98 1277.18 1651.63 1262.57 1654.16 1254.3 C 1660.36 1234.03 1688.64 1223.94 1707.04 1217.99 C 1715.06 1215.41 1723.96 1213.5 1731.09 1208.88 C 1737.66 1204.63 1743.47 1196.93 1749.02 1191.32 C 1758.96 1181.25 1770.42 1173.62 1782.94 1167.15 C 1784.73 1166.9 1786.38 1166.41 1788.13 1165.96 C 1800.61 1159.19 1817.91 1157.48 1828.05 1151 C 1831 1151.72 1830.36 1152.07 1832.34 1150.96 z"/>
<path transform="translate(0,0)" fill="rgb(247,136,108)" d="M 1832.34 1150.96 C 1843.44 1147.23 1856.29 1143.14 1867.59 1140.44 C 1871.49 1152.53 1876.38 1168.27 1878.97 1180.59 C 1868.47 1183.23 1823.62 1193.96 1816.44 1197.14 L 1815.59 1196.19 C 1811.43 1178.86 1809.12 1165.35 1788.13 1165.96 C 1800.61 1159.19 1817.91 1157.48 1828.05 1151 C 1831 1151.72 1830.36 1152.07 1832.34 1150.96 z"/>
<path transform="translate(0,0)" fill="rgb(45,57,108)" d="M 1815.59 1196.19 L 1816.44 1197.14 C 1813.19 1199.91 1793.91 1205.4 1789.08 1205.29 L 1788.8 1204.18 C 1792.84 1200.32 1809.56 1197.34 1815.59 1196.19 z"/>
<path transform="translate(0,0)" fill="rgb(107,105,222)" d="M 1498.68 1190.61 C 1500.2 1200.13 1468.69 1250.04 1463.44 1260.75 C 1461.05 1265.64 1455.18 1273.88 1449.2 1275.41 C 1444.84 1274.57 1439.62 1272.95 1435.5 1271 C 1401.79 1255.05 1370.9 1240.86 1337.05 1224.44 C 1311.12 1211.87 1277.15 1197.33 1252.09 1182.55 C 1249.97 1180.97 1248.47 1175.91 1248.83 1173.58 C 1251.72 1154.51 1261.04 1140.67 1281.07 1138.39 C 1297.78 1136.48 1307.94 1136.7 1324.2 1140.36 C 1332.05 1142.12 1340.52 1143.97 1348.42 1143.46 C 1355.49 1142.8 1364.73 1139.74 1371.69 1137.62 C 1389.61 1132.18 1400.2 1131.29 1418.69 1132.22 C 1422.28 1134 1426.16 1135.84 1429.69 1137.7 C 1435.61 1139.02 1470.75 1153.5 1474.74 1157.08 L 1477.5 1158.13 C 1485.41 1160.32 1499.54 1167.12 1507.28 1170.86 C 1505.33 1174.87 1498.97 1186.99 1498.68 1190.61 z"/>
<path transform="translate(0,0)" fill="rgb(234,100,83)" d="M 1429.69 1137.7 C 1435.61 1139.02 1470.75 1153.5 1474.74 1157.08 L 1477.5 1158.13 C 1485.41 1160.32 1499.54 1167.12 1507.28 1170.86 C 1505.33 1174.87 1498.97 1186.99 1498.68 1190.61 C 1476.44 1183.45 1453.54 1179.61 1431.27 1173.35 L 1430.79 1172.3 C 1434.49 1158.14 1436.97 1150.61 1429.69 1137.7 z"/>
<path transform="translate(0,0)" fill="rgb(45,57,108)" d="M 1431.27 1173.35 C 1424.99 1175.28 1410.96 1170.11 1404.34 1168.06 L 1404.55 1167.74 C 1415.52 1168.09 1420.28 1169.53 1430.79 1172.3 L 1431.27 1173.35 z"/>
<path transform="translate(0,0)" fill="rgb(254,254,253)" d="M 1825.63 210.44 C 1854.99 211.488 1886.19 216.789 1906.69 240.346 C 1921.65 258.402 1916.23 280.007 1898.41 293.271 C 1865.98 317.408 1831.85 316.137 1794.43 311.476 C 1785.78 312.928 1762.55 325.887 1749.68 330.162 C 1755.73 320.769 1763.58 311.916 1770.81 303.335 C 1719.04 275.003 1731.68 234.559 1782.79 217.384 C 1798.17 212.216 1809.72 211.601 1825.63 210.44 z"/>
<path transform="translate(0,0)" fill="rgb(218,191,186)" d="M 147.639 204.434 C 178.702 202.803 232.2 212.512 242.739 246.36 C 245.436 254.93 244.485 264.233 240.111 272.081 C 228.877 292.702 204.992 299.62 184.383 305.672 C 190.806 312.642 197.789 322.412 203.623 330.158 C 197.908 328.336 192.721 325.904 187.254 323.471 C 162.7 311.787 156.204 308.142 129.008 305.558 C 107.041 302.306 69.1106 284.388 67.9654 259.14 C 66.219 220.635 117.696 206.714 147.639 204.434 z"/>
<path transform="translate(0,0)" fill="rgb(248,167,74)" d="M 322.012 1158.82 L 325.212 1159.13 C 326.201 1164.06 325.848 1171.27 326.908 1174.08 C 339.249 1184.15 329.836 1215.01 332.568 1225.71 C 344.998 1274.4 348.258 1281.85 291.845 1284 C 264.815 1285.03 237.044 1282.48 208.068 1280.05 C 203.562 1275.99 203.873 1272.16 200.238 1269.92 C 195.72 1248.23 216.678 1230.97 224.036 1213.06 C 227.733 1204.06 228.611 1191.29 233 1182.21 C 235.266 1177.52 240.499 1176.31 245.333 1174.6 C 245.209 1169.84 245.384 1166.27 245.682 1161.52 C 253.154 1161.24 258.905 1161.08 266.43 1161.42 L 269.147 1160.94 C 276.893 1161.14 286.691 1160.66 294.706 1160.61 L 297.198 1160.43 C 304.511 1159.6 314.477 1159.28 322.012 1158.82 z"/>
<path transform="translate(0,0)" fill="rgb(247,136,108)" d="M 322.012 1158.82 L 325.212 1159.13 C 326.201 1164.06 325.848 1171.27 326.908 1174.08 L 326.026 1173.98 C 312.79 1172.38 290.02 1165.56 277.939 1167.06 C 268.498 1168.23 256.598 1172.92 245.333 1174.6 C 245.209 1169.84 245.384 1166.27 245.682 1161.52 C 253.154 1161.24 258.905 1161.08 266.43 1161.42 L 269.147 1160.94 C 276.893 1161.14 286.691 1160.66 294.706 1160.61 L 297.198 1160.43 C 304.511 1159.6 314.477 1159.28 322.012 1158.82 z"/>
<path transform="translate(0,0)" fill="rgb(234,100,83)" d="M 270.479 1207.68 C 272.773 1206.78 273.844 1206.47 275.907 1205.02 C 279.271 1205.21 279.939 1205.1 282.993 1206.33 L 283.758 1209.05 C 279.439 1212.19 275.9 1211.1 270.306 1210.68 C 263.293 1211.02 254.145 1210.81 248.165 1214.19 L 247.824 1215.82 C 261.19 1230.71 274.651 1216.96 286.163 1218.6 L 286.093 1219.72 C 278.909 1225.69 256.587 1228.43 249.15 1221.8 C 233.413 1207.76 262.71 1207.89 270.479 1207.68 z"/>
<path transform="translate(0,0)" fill="rgb(234,100,83)" d="M 260.749 1180.63 C 270.877 1180.37 288.239 1193.96 288.545 1202.59 C 285.563 1201.87 283.93 1198.96 281.88 1196.36 C 277.1 1191.26 269.296 1181.73 261.995 1185.28 C 260.093 1188.34 260.289 1189.64 260.113 1193.24 L 260.057 1194.49 L 258.618 1194.58 C 254.968 1190.72 257.738 1184.22 260.749 1180.63 z"/>
<path transform="translate(0,0)" fill="rgb(234,100,83)" d="M 434.464 534.015 C 476.97 536.207 516.699 533.033 558.977 530.84 C 565.121 530.521 585.297 533.726 589.981 537.916 C 592.788 540.712 591.929 539.331 593.017 543.424 C 596.339 546.958 600.224 550.466 601.814 554.941 C 598.372 555.121 594.962 554.751 593.115 558.278 C 595.796 564.493 602.516 563.056 608.197 562.729 C 617.01 577.368 624.105 584.722 604.45 593.204 L 601.783 595.048 C 577.764 621.033 559.565 639.551 533.618 602.014 L 525.64 607.613 C 512.302 607.473 498.339 612.305 485.298 615.827 C 465.219 604.101 442.036 593.471 420.897 581.23 C 425.146 565.414 429.669 549.674 434.464 534.015 z"/>
<path transform="translate(0,0)" fill="rgb(1,0,0)" d="M 589.981 537.916 C 592.788 540.712 591.929 539.331 593.017 543.424 C 596.339 546.958 600.224 550.466 601.814 554.941 C 598.372 555.121 594.962 554.751 593.115 558.278 C 595.796 564.493 602.516 563.056 608.197 562.729 C 617.01 577.368 624.105 584.722 604.45 593.204 L 601.783 595.048 C 599.236 592.515 588.525 581.427 586.555 581.399 C 572.557 581.206 574.451 578.256 567.556 564.099 C 544.11 570.137 583.236 598.249 586.726 606.44 L 585.667 607.802 C 578.319 603.737 564.922 583.23 554.918 580.435 C 534.973 584.742 567.101 610.15 566.498 620.656 L 564.656 620.864 C 558.768 615.258 554.973 602.478 548.628 596.423 C 542.208 590.299 539.854 592.649 534.862 598.369 L 531.719 597.922 L 531.605 596.691 C 534.552 593.379 537.48 592.187 541.378 589.974 C 544.871 588.931 546.864 581.848 549.361 580.301 C 559.152 574.236 556.453 573.207 560.806 563.826 C 551.957 562.216 538.005 558.616 533.666 549.895 C 533.605 546.281 533.205 547.689 535.268 544.603 L 536.655 545.058 C 543.894 560.988 555.772 559.935 571.112 559.796 C 572.641 567.217 574.5 579.617 584.918 578.399 C 595.17 571.709 586.708 546.031 589.981 537.916 z"/>
<path transform="translate(0,0)" fill="rgb(234,100,83)" d="M 593.017 543.424 C 596.339 546.958 600.224 550.466 601.814 554.941 C 598.372 555.121 594.962 554.751 593.115 558.278 C 595.796 564.493 602.516 563.056 608.197 562.729 C 617.01 577.368 624.105 584.722 604.45 593.204 L 589.958 578.85 C 594.755 568.047 593.273 555.295 593.017 543.424 z"/>
<path transform="translate(0,0)" fill="rgb(247,136,108)" d="M 238.821 334.031 C 241.437 321.496 245.982 311.902 257.883 305.689 C 272.481 298.068 276.929 313.764 279.677 315.179 C 287.028 309.742 312.581 290.972 320.554 305.261 C 327.03 316.867 319.428 334.079 316.033 345.956 L 315.223 348.028 L 308.804 348.718 L 308.904 350.189 C 311.136 350.578 317.584 350.417 318.148 351.765 C 326.273 371.188 335.871 414.491 307.692 422.686 C 308.541 426.748 309.128 428.815 308.931 433.051 L 309.82 435.324 C 310.867 442.696 309.824 444.625 314.524 449.264 C 305.812 458.808 261.637 454.686 259.925 439.938 C 261.509 439.116 260.898 439.301 262.647 439.183 L 262.842 438.255 C 262.988 428.002 262.715 418.377 262.38 408.124 C 247.371 408.097 244.373 406.15 236.961 393.451 C 236.761 389.992 236.917 385.242 236.94 381.664 C 222.961 362.496 220.459 350.765 238.821 334.031 z"/>
<path transform="translate(0,0)" fill="rgb(1,0,0)" d="M 238.821 334.031 C 241.437 321.496 245.982 311.902 257.883 305.689 C 272.481 298.068 276.929 313.764 279.677 315.179 C 287.028 309.742 312.581 290.972 320.554 305.261 C 327.03 316.867 319.428 334.079 316.033 345.956 C 307.095 331.456 285.021 338.981 290.243 350.7 L 296.978 349.728 L 297.846 350.49 C 295.785 354.431 290.377 354.561 289.372 356.341 C 284.558 364.876 283.622 368.66 273.573 372.106 C 257.809 377.512 245.889 362.367 236.94 381.664 C 222.961 362.496 220.459 350.765 238.821 334.031 z"/>
<path transform="translate(0,0)" fill="rgb(1,0,0)" d="M 271.64 415.865 C 286.712 421.746 291.296 423.552 307.692 422.686 C 308.541 426.748 309.128 428.815 308.931 433.051 C 291.384 430.365 284.036 428.388 271.64 415.865 z"/>
<path transform="translate(0,0)" fill="rgb(1,0,0)" d="M 300.697 391.412 C 305.806 391.505 314.882 390.188 316.593 395.258 L 314.538 399.291 C 313.039 400.528 311.694 400.984 309.928 401.76 C 303.571 401.644 301.062 397.393 300.697 391.412 z"/>
<path transform="translate(0,0)" fill="rgb(1,0,0)" d="M 242.099 378.859 C 246.143 379.787 259.029 387.717 260.489 391.672 L 258.986 392.37 L 254.793 390.711 C 251.658 391.771 246.745 393.965 244.051 392.023 C 245.119 388.98 247.898 390.853 250.516 387.451 C 246.363 384.572 243.19 383.206 242.099 378.859 z"/>
<path transform="translate(0,0)" fill="rgb(1,0,0)" d="M 303.318 364.636 C 312.546 366.099 313.671 377.226 313.648 384.76 C 311.928 384.765 312.599 384.849 310.959 384.041 C 310.145 378.914 308.995 374.445 306.392 369.931 L 303.318 364.636 z"/>
<path transform="translate(0,0)" fill="rgb(218,191,186)" d="M 495.951 209.461 C 508.755 213.914 544.652 235.555 558.881 242.861 L 549.11 247.989 C 551.741 264.625 560.318 287.329 563.825 305.046 C 552.257 308.46 540.643 311.719 528.988 314.824 C 515.72 318.937 504.555 322.271 490.963 325.497 C 486.372 315.625 477.536 280.991 474.386 269.305 C 471.013 269.683 467.893 270.504 465.039 269.031 C 465.917 263.263 490.942 219.835 495.951 209.461 z"/>
<path transform="translate(0,0)" fill="rgb(254,254,253)" d="M 526.803 260.207 C 528.503 259.875 528.432 260.069 530.239 260.3 C 533.871 264.649 539.213 288.184 540.836 294.975 C 530.104 298.197 519.046 301.235 508.253 304.332 L 506.076 304.344 C 502.672 300.504 496.854 275.936 495.064 269.223 C 505.594 266.047 516.176 263.041 526.803 260.207 z"/>
<path transform="translate(0,0)" fill="rgb(218,191,186)" d="M 1303.02 677.022 L 1306.24 677.335 C 1310.52 681.567 1329.12 731.849 1329.55 738.854 C 1327.47 740.846 1325.54 739.61 1321.04 739.543 C 1317.7 742.028 1300.23 783.565 1295.5 791.43 C 1285.28 787.528 1273.85 782.111 1263.75 777.588 C 1253 772.736 1235.73 765.687 1226.38 759.595 C 1230.46 747.78 1244.7 719.706 1250.59 705.965 L 1240.79 700.833 C 1256.25 692.977 1286.13 683.042 1303.02 677.022 z"/>
<path transform="translate(0,0)" fill="rgb(254,254,253)" d="M 1265.78 720.221 C 1270.67 721.197 1293.92 732.319 1299.94 735.109 C 1296.85 744.096 1289.06 759.701 1284.84 768.556 C 1281.01 768.594 1256.24 756.365 1250.85 753.799 C 1253.92 744.978 1261.68 729.227 1265.78 720.221 z"/>
<path transform="translate(0,0)" fill="rgb(247,136,108)" d="M 1407.39 590.203 C 1413.97 587.618 1413.29 580.933 1420.45 580.619 C 1423.12 582.404 1423.24 582.448 1424.42 585.333 L 1422.54 586.441 C 1424.92 587.731 1447.94 586.374 1451.85 586.08 L 1452.59 586.238 C 1455.97 586.926 1457.15 586.934 1460.59 586.926 C 1462.79 589.144 1471.52 637.65 1471.25 642.946 C 1466.83 652.24 1460.9 662.884 1456.91 671.536 C 1453.53 675.425 1451.8 677.125 1449.57 681.799 L 1449.67 682.696 C 1449.25 683.339 1448.33 684.497 1447.78 684.97 C 1428.54 701.606 1404.04 674.369 1392.2 662.178 L 1389.49 660.446 C 1377.42 655.891 1372.3 652.387 1379.83 639.04 C 1386.16 627.817 1394.24 618.805 1405.74 612.811 L 1407.65 609.025 C 1402.72 609.206 1400.68 609.449 1395.84 608.381 L 1396.04 607.223 C 1399.28 604.807 1403.71 594.982 1407.39 590.203 z"/>
<path transform="translate(0,0)" fill="rgb(1,0,0)" d="M 1407.65 609.025 C 1412.35 606.286 1417.54 602.777 1422.8 601.889 L 1423.6 602.643 L 1422.75 603.712 L 1422.01 602.22 L 1421.99 604.399 C 1417.86 607.455 1410.75 611.849 1405.74 612.811 L 1407.65 609.025 z"/>
<path transform="translate(0,0)" fill="rgb(1,0,0)" d="M 1389.49 660.446 C 1392.94 657.735 1396.03 654.725 1400.27 653.962 L 1401.38 654.807 C 1399.42 658.222 1395.68 659.992 1392.2 662.178 L 1389.49 660.446 z"/>
<path transform="translate(0,0)" fill="rgb(234,100,83)" d="M 1372.1 522.357 C 1391.63 515.355 1404.49 515.079 1424.85 517.364 C 1430.73 518.025 1440.78 518.466 1446.54 517.584 C 1447.89 522.732 1448.3 530.517 1449.3 533.495 L 1449.42 535.032 C 1448.94 539.68 1450.42 555.294 1451.61 559.846 L 1451.74 560.836 C 1451.68 565.554 1451.79 574.376 1453.38 578.613 C 1455.49 578.804 1457.62 578.922 1459.74 578.968 L 1460.08 580.446 C 1454.32 584.762 1455.72 579.995 1451.85 586.08 C 1447.94 586.374 1424.92 587.731 1422.54 586.441 L 1424.42 585.333 C 1423.24 582.448 1423.12 582.404 1420.45 580.619 C 1413.29 580.933 1413.97 587.618 1407.39 590.203 C 1403.71 594.982 1399.28 604.807 1396.04 607.223 L 1395.84 608.381 C 1381.56 605.605 1369.77 590.551 1359.7 580.614 L 1357.07 578.568 C 1340.02 572.032 1343.03 566.778 1349.8 552.977 C 1355.68 551.981 1360.98 554.134 1365.18 550.546 L 1365.13 547 C 1363.28 544.026 1358.02 544.72 1354.89 544.754 C 1359.96 541.689 1361.25 534.534 1368.6 528.894 C 1369.64 523.806 1368.62 525.436 1372.1 522.357 z"/>
<path transform="translate(0,0)" fill="rgb(1,0,0)" d="M 1368.6 528.894 C 1369.64 523.806 1368.62 525.436 1372.1 522.357 C 1374.1 532.61 1366.85 555.261 1375.99 563.768 C 1386.1 566.039 1388.89 552.879 1390.48 545.663 L 1390.63 544.967 C 1400.46 545.175 1411.05 546.292 1419.1 539.014 C 1423.6 534.948 1422.54 531.738 1427.3 530.917 C 1429.51 540.24 1411.16 549.233 1402.25 548.603 C 1403.13 552.988 1403.61 555.436 1403.94 559.935 C 1410.9 565.428 1413.66 565.845 1417.96 574.091 C 1423.57 576.187 1426.1 575.729 1428.91 582.477 L 1428.2 583.385 C 1420.36 582.528 1421.86 577.626 1415.89 579.152 C 1412.28 582.507 1409.97 586.018 1407.39 590.203 C 1403.71 594.982 1399.28 604.807 1396.04 607.223 L 1395.84 608.381 C 1381.56 605.605 1369.77 590.551 1359.7 580.614 L 1357.07 578.568 C 1340.02 572.032 1343.03 566.778 1349.8 552.977 C 1355.68 551.981 1360.98 554.134 1365.18 550.546 L 1365.13 547 C 1363.28 544.026 1358.02 544.72 1354.89 544.754 C 1359.96 541.689 1361.25 534.534 1368.6 528.894 z"/>
<path transform="translate(0,0)" fill="rgb(234,100,83)" d="M 1359.7 580.614 C 1364.49 575.749 1371.97 565.8 1378.97 566.657 C 1390.24 568.035 1389.07 554.212 1394.38 550.159 C 1399.52 551.106 1401.71 556.568 1400.62 561.449 C 1398.27 571.888 1376.2 582.864 1375.51 592.283 L 1376.78 593.186 C 1385.25 587.901 1395.05 567.572 1407.29 566.834 C 1411.75 568.765 1411.93 569.827 1414.04 575.094 L 1414.39 576.011 C 1408.15 582.6 1397.55 596.271 1395.29 604.886 L 1396.04 607.223 L 1395.84 608.381 C 1381.56 605.605 1369.77 590.551 1359.7 580.614 z"/>
<path transform="translate(0,0)" fill="rgb(234,100,83)" d="M 1365.13 547 L 1365.84 549.522 L 1367.55 550.21 C 1368.57 554.802 1369.61 560.134 1371.16 564.507 L 1357.07 578.568 C 1340.02 572.032 1343.03 566.778 1349.8 552.977 C 1355.68 551.981 1360.98 554.134 1365.18 550.546 L 1365.13 547 z"/>
<path transform="translate(0,0)" fill="rgb(247,136,108)" d="M 1368.6 528.894 C 1368.33 536.003 1367.98 543.109 1367.55 550.21 L 1365.84 549.522 L 1365.13 547 C 1363.28 544.026 1358.02 544.72 1354.89 544.754 C 1359.96 541.689 1361.25 534.534 1368.6 528.894 z"/>
<path transform="translate(0,0)" fill="rgb(254,254,253)" d="M 1354.89 544.754 C 1358.02 544.72 1363.28 544.026 1365.13 547 L 1365.18 550.546 C 1360.98 554.134 1355.68 551.981 1349.8 552.977 C 1330.14 551.984 1304.4 553.325 1284.09 553.57 L 1137.09 555.701 L 608.197 562.729 C 602.516 563.056 595.796 564.493 593.115 558.278 C 594.962 554.751 598.372 555.121 601.814 554.941 L 1021.11 548.434 C 1101.13 548.23 1181.14 547.25 1261.13 545.493 C 1292.09 545.092 1324.08 545.705 1354.89 544.754 z"/>
<path transform="translate(0,0)" fill="rgb(218,191,186)" d="M 1458.1 260.019 C 1454.14 248.096 1452.23 231.506 1469.05 226.176 C 1478.24 223.265 1493.75 230.661 1495.65 239.881 C 1500.06 252.236 1480.54 266.438 1487.72 273.958 C 1489.31 273.772 1490.89 273.561 1492.47 273.327 C 1497.31 272.636 1497.63 274.129 1502.24 271.655 C 1507.84 263.851 1500.4 251.477 1505.32 246.242 C 1524.82 225.495 1550.53 252.789 1525.7 273.084 C 1526.82 274.94 1529.55 279.463 1529.81 281.353 C 1531.46 293.175 1525.18 313.936 1522.34 325.626 C 1515.67 324.548 1497.16 322.218 1492.19 318.428 L 1491.16 315.272 C 1483.71 317.74 1479.39 316.272 1471.83 314.664 C 1463.26 313.015 1451.39 311.024 1443.46 307.866 C 1445.27 294.141 1449.03 270.312 1458.1 260.019 z"/>
<path transform="translate(0,0)" fill="rgb(254,254,253)" d="M 1471.83 314.664 C 1472.29 311.397 1476.86 296.215 1477.01 297.001 C 1474.43 283.973 1471.46 276.936 1493.89 277.759 L 1495.04 278.548 C 1495.37 284.413 1490.6 282.237 1493.05 285.759 C 1497.35 286.625 1499.08 285.891 1501.71 288.115 C 1503.29 296.09 1498.42 295.902 1494.96 301.488 C 1492.85 304.884 1496.09 313.15 1491.16 315.272 C 1483.71 317.74 1479.39 316.272 1471.83 314.664 z"/>
<path transform="translate(0,0)" fill="rgb(254,254,253)" d="M 858.25 317.082 C 891.881 318.081 878.148 363.808 870.838 382.331 C 867.897 389.784 866.084 399.02 859.863 404.542 C 852.706 405.673 836.091 392.552 829.873 388.176 C 820.613 381.758 775.907 348.435 803.253 330.553 C 811.389 325.232 830.014 331.975 839.241 335.995 C 845.091 326.552 847.629 320.518 858.25 317.082 z"/>
<path transform="translate(0,0)" fill="rgb(218,191,186)" d="M 1155.73 252.16 C 1172.67 250.469 1173.61 257.526 1183.11 268.774 C 1191.47 261.727 1213.27 250.435 1222.54 260.837 C 1238.01 278.19 1215.07 302.464 1202.76 314.443 C 1196.72 319.747 1190.64 325.002 1184.52 330.207 C 1180.73 333.376 1175.42 337.935 1170.43 337.481 C 1167.77 335.055 1165.05 331.51 1163.52 328.238 C 1154.32 308.576 1127.62 267.113 1155.73 252.16 z"/>
<path transform="translate(0,0)" fill="rgb(254,254,253)" d="M 1449.67 682.696 L 1449.57 681.799 C 1451.8 677.125 1453.53 675.425 1456.91 671.536 C 1464.13 688.892 1457.4 723.113 1450.05 740.757 C 1440.18 764.45 1424.2 783.059 1408.64 803.042 C 1362.38 862.454 1344.91 899.28 1367.06 972.098 C 1389.9 974.813 1396.71 986.887 1384.58 1007.2 L 1385.04 1008.2 C 1389.33 1017.36 1397.76 1024.62 1398 1033.36 L 1396.89 1034.55 C 1388.88 1032.16 1380.31 1017.22 1376 1010.35 C 1353.63 1009.46 1343.81 994.549 1359.05 975.741 C 1343.24 925.38 1342.52 896.691 1367.57 847.602 C 1392.23 799.254 1444.61 762.195 1450.46 706.669 C 1451.22 699.484 1451.46 689.76 1449.67 682.696 z"/>
<path transform="translate(0,0)" fill="rgb(254,254,253)" d="M 502.059 691.555 C 505.174 692.424 509.653 693.541 512.596 694.565 C 512.545 694.775 512.494 694.986 512.443 695.196 L 512.212 696.251 C 510.109 705.506 510.708 711.171 511.469 720.73 C 515.844 775.674 566.182 810.874 591.444 857.608 C 616.95 904.793 618.372 933.851 605.042 983.278 C 617.944 999.828 611.438 1015.08 590.087 1017.56 C 584.858 1026.16 574.57 1045.16 565.247 1048.81 L 564.152 1047.84 C 564.171 1039.71 576.904 1022.34 581.725 1014.86 C 566.095 997.022 573.938 981.818 596.872 979.351 C 618.158 910.325 592.177 865.877 549.542 813.221 C 530.204 789.339 512.076 765.486 504.565 735.104 C 500.623 719.155 501.546 707.729 502.059 691.555 z"/>
<path transform="translate(0,0)" fill="rgb(254,254,253)" d="M 710.184 696.068 C 712.812 696.196 714.436 696.428 716.929 697.336 C 727.152 701.064 725.045 714.159 726.381 722.582 C 726.668 724.391 729.506 730.501 730.409 732.454 C 724.994 736.067 723.053 737.034 716.884 738.693 C 713.979 739.505 713.215 740.011 710.488 739.155 C 707.249 735.751 707.446 730.312 706.783 725.183 C 694.138 715.951 694.268 699.955 710.184 696.068 z"/>
<path transform="translate(0,0)" fill="rgb(218,191,186)" fill-opacity="0.509804" d="M 721.421 650.03 C 725.688 649.791 725.616 649.325 729.807 651.209 C 732.165 654.984 737.336 667.661 736.402 672.378 C 735.938 674.724 735.934 675.27 736.638 677.392 L 735.211 677.909 C 734.842 676.17 734.588 674.764 734.318 673.027 C 729.403 672.914 721.986 671.802 721.553 678.282 C 725.208 685.07 740.38 689.258 744.045 683.58 C 746.037 686.939 746.88 688.361 746.028 691.824 C 743.376 693.282 744.752 693.013 741.763 692.683 C 735.412 684.406 726.539 689.634 717.336 682.394 C 701.725 670.114 703.813 658.145 721.421 650.03 z"/>
<path transform="translate(0,0)" fill="rgb(223,204,202)" d="M 208.068 1280.05 C 197.736 1280.98 163.708 1280.36 158.922 1270.39 L 159.809 1268.12 C 165.667 1263.54 188.183 1261.57 195.776 1261.86 C 196.761 1264.89 198.924 1273.14 200.772 1274.82 L 200.238 1269.92 C 203.873 1272.16 203.562 1275.99 208.068 1280.05 z"/>
<path transform="translate(0,0)" fill="rgb(218,191,186)" fill-opacity="0.47451" d="M 694.89 690.204 C 684.505 696.636 687.482 684.505 670.824 695.938 C 669.119 695.966 667.099 695.426 666.148 694.371 C 652.398 679.127 660.563 658.408 682.841 662.35 C 691.004 663.795 687.116 661.186 694.239 666.889 C 681.929 670.39 685.594 671.27 671.885 670.53 C 667.516 676.002 663.299 679.997 667.898 686.653 C 673.834 689.088 676.099 686.507 680.957 683.122 C 683.119 685.402 686.126 688.863 688.61 690.575 L 694.89 690.204 z"/>
<path transform="translate(0,0)" fill="rgb(223,204,202)" fill-opacity="0.584314" d="M 671.885 670.53 C 685.594 671.27 681.929 670.39 694.239 666.889 L 696.036 669.074 C 688.121 672.982 684.707 682.668 688.61 690.575 C 686.126 688.863 683.119 685.402 680.957 683.122 C 676.099 686.507 673.834 689.088 667.898 686.653 C 663.299 679.997 667.516 676.002 671.885 670.53 z M 672.679 686.482 C 674.633 683.168 677.03 680.169 676.831 676.549 C 674.935 674.373 675.327 675.068 671.576 674.525 C 669.279 677.357 667.818 678.528 667.494 682.104 C 669.016 684.865 669.17 685.005 672.679 686.482 z"/>
<path transform="translate(0,0)" fill="rgb(223,204,202)" fill-opacity="0.690196" d="M 671.576 674.525 C 675.327 675.068 674.935 674.373 676.831 676.549 C 677.03 680.169 674.633 683.168 672.679 686.482 C 669.17 685.005 669.016 684.865 667.494 682.104 C 667.818 678.528 669.279 677.357 671.576 674.525 z"/>
<path transform="translate(0,0)" fill="rgb(218,191,186)" fill-opacity="0.698039" d="M 696.036 669.074 C 700.726 677.393 701.954 682.413 694.89 690.204 L 688.61 690.575 C 684.707 682.668 688.121 672.982 696.036 669.074 z"/>
<path transform="translate(0,0)" fill="rgb(223,204,202)" fill-opacity="0.709804" d="M 744.045 683.58 C 740.38 689.258 725.208 685.07 721.553 678.282 C 721.986 671.802 729.403 672.914 734.318 673.027 C 734.588 674.764 734.842 676.17 735.211 677.909 L 736.638 677.392 C 740.711 679.544 741.237 679.844 744.045 683.58 z"/>
<path transform="translate(0,0)" fill="rgb(223,204,202)" fill-opacity="0.54902" d="M 751.129 703.517 C 754.573 706.458 757.723 716.379 757.747 721.028 C 757.764 724.382 756.393 724.827 754.198 726.871 C 751.767 726.411 751.889 726.45 749.742 725.215 C 745.428 718.963 745.108 708.711 751.129 703.517 z"/>
<path transform="translate(0,0)" fill="rgb(254,254,253)" d="M 522.292 404.572 C 526.837 408.852 518.955 420.969 515.929 424.984 C 512.474 421.28 520.062 408.848 522.292 404.572 z"/>
<path transform="translate(0,0)" fill="rgb(254,254,253)" d="M 505.487 435.705 L 506.649 436.661 L 506.604 438.669 C 503.391 444.208 498.635 448.025 493.58 451.84 L 492.425 450.486 C 493.008 446.91 502.538 438.455 505.487 435.705 z"/>
<path transform="translate(0,0)" fill="rgb(254,254,253)" d="M 531.145 335.432 C 532.809 336.276 532.344 336.107 533.685 337.586 C 534.847 344.5 534.349 349.619 532.533 356.348 C 528.415 352.786 529.958 340.352 531.145 335.432 z"/>
<path transform="translate(0,0)" fill="rgb(254,254,253)" fill-opacity="0.984314" d="M 476.599 458.994 C 479.094 458.817 478.07 458.456 479.871 459.72 C 478.153 463.563 468.118 466.42 464.32 467.712 C 462.945 467.881 463.089 467.717 461.64 467.338 C 463.633 463.174 472.121 460.718 476.599 458.994 z"/>
<path transform="translate(0,0)" fill="rgb(254,254,253)" fill-opacity="0.976471" d="M 530.226 371.426 L 531.666 372.83 C 531.6 378.505 529.859 386.097 527.612 391.333 L 526.269 389.496 C 526.358 382.725 527.286 377.533 530.226 371.426 z"/>
<path transform="translate(0,0)" fill="rgb(218,191,186)" fill-opacity="0.952941" d="M 1485.79 394.646 C 1490.35 396.429 1495.14 405.091 1498.08 409.486 C 1491.44 407.753 1488 400.534 1485.79 394.646 z"/>
<path transform="translate(0,0)" fill="rgb(218,191,186)" fill-opacity="0.921569" d="M 1505.93 418.697 C 1510.99 419.233 1518.23 425.782 1522.59 429.132 C 1515.95 428.551 1509.85 423.857 1505.93 418.697 z"/>
</svg>