<svg version="1.1" xmlns="http://www.w3.org/2000/svg" style="display: block;" viewBox="0 0 2048 1499" width="2000" height="1464" preserveAspectRatio="none">
<path transform="translate(0,0)" fill="rgb(241,254,219)" d="M 228.755 1222.19 C 149.708 1100.06 110.647 941.075 198.489 812.156 C 227.365 769.737 267.551 737.919 302.45 700.69 C 347.599 652.527 383.898 599.587 420.181 544.672 C 476.381 459.612 495.518 367.483 554.65 283.173 C 658.395 135.253 825.607 77.0136 1001.23 88.3275 C 1053.77 91.6651 1107.36 100.274 1159.52 108.464 C 1214.75 116.52 1269.19 118.315 1324.13 129.12 C 1470.41 157.888 1607.35 229.855 1704.8 344.568 C 1809.59 467.922 1870.8 622.889 1888.77 782.953 C 1906.22 938.325 1895.79 1081.4 1823.77 1222.53 C 1818.52 1233.78 1809.01 1247.35 1801.83 1257.46 C 1775.8 1294.62 1744.43 1325.07 1706.46 1349.86 C 1599.85 1419.47 1467.07 1420.18 1346.02 1397.13 C 1319.65 1392.11 1294.95 1381.03 1269.37 1373.52 C 1215.91 1357.82 1159.78 1353.03 1104.27 1355.1 C 1093.32 1355.9 1080.65 1356.17 1069.95 1358.06 C 882.981 1391.03 691.886 1440.76 501.781 1398.47 C 449.505 1386.84 385.099 1367.6 339.824 1338.08 C 297.951 1310.79 255.619 1264.35 228.755 1222.19 z"/>
<path transform="translate(0,0)" fill="rgb(218,254,163)" d="M 826.894 747.04 C 845.848 747.105 864.803 747.028 883.756 746.807 C 893.826 746.728 904.641 746.148 914.61 747.233 C 923.974 748.252 925.629 755.396 926.701 762.97 C 916.881 765.361 907.297 768.633 898.065 772.747 C 884.501 778.922 876.288 787.731 862.681 788.032 C 864.895 788.431 867.68 788.596 869.233 789.878 C 864.622 798.774 857.202 810.546 853.54 819.204 C 845.082 839.202 839.832 862.147 833.483 882.802 C 771.458 891.253 731.009 922.336 670.382 924.745 C 654.794 925.365 641.084 923.17 625.724 921.233 C 653.712 959.276 674.61 977.262 715.191 1000.17 C 727.156 1006.92 724.542 1034.37 724.43 1047.54 C 724.128 1064.92 724.103 1082.29 724.356 1099.67 C 734.731 1093.09 740.317 1091.3 751.789 1087.66 C 788.59 1080.19 800.571 1089.59 832.993 1095.65 C 848.872 1099.99 873.168 1105.77 887.973 1110.93 L 888.937 1123.18 C 904.041 1130.15 919.908 1135.54 935.373 1142.54 C 964.126 1140.52 990.391 1140.78 1019.08 1140.53 C 1061.72 1139.88 1104.37 1140.02 1147.01 1140.95 L 1176.72 1129.17 C 1177.15 1124.24 1177.01 1114.79 1180.19 1112.1 C 1180.32 1110.3 1180.13 1106.57 1180.1 1104.61 C 1179.82 1098.09 1179.99 1093.16 1181.32 1086.8 C 1181.33 1085.14 1183.63 1071.56 1184.02 1069.05 L 1231.67 1044.71 C 1234.66 1066.75 1238.26 1075.34 1247.09 1095.58 C 1264.2 1090.9 1278.37 1086.91 1295.87 1084.4 C 1334.13 1081.93 1372.89 1097.4 1382.99 1137.52 C 1385.89 1156.52 1384.07 1170.19 1374.38 1186.89 C 1357.02 1212 1337.78 1224.05 1308.99 1233.41 C 1314.96 1234 1322.94 1233.8 1326.64 1238.18 L 1326.97 1239.53 C 1328.18 1256.23 1324.28 1277.61 1325.15 1296.06 C 1345.45 1300.18 1366.52 1304.38 1387.37 1303.87 C 1466.43 1301.96 1524.38 1272.32 1578.83 1217.62 C 1580.49 1219.09 1581.66 1219.92 1583.98 1219.96 C 1649.6 1221.19 1715.25 1219.47 1780.87 1220.49 C 1789.38 1220.62 1818.21 1220.11 1823.77 1222.53 C 1818.52 1233.78 1809.01 1247.35 1801.83 1257.46 C 1775.8 1294.62 1744.43 1325.07 1706.46 1349.86 C 1599.85 1419.47 1467.07 1420.18 1346.02 1397.13 C 1319.65 1392.11 1294.95 1381.03 1269.37 1373.52 C 1215.91 1357.82 1159.78 1353.03 1104.27 1355.1 C 1093.32 1355.9 1080.65 1356.17 1069.95 1358.06 C 882.981 1391.03 691.886 1440.76 501.781 1398.47 C 449.505 1386.84 385.099 1367.6 339.824 1338.08 C 297.951 1310.79 255.619 1264.35 228.755 1222.19 C 235.513 1219.77 240.421 1220.54 247.423 1220.43 C 307.615 1219.49 367.808 1221.21 427.994 1220.55 C 428.458 1220.13 428.922 1219.71 429.385 1219.28 C 428.988 1210.33 427.374 1186.75 428.314 1179.07 C 430.158 1177.54 432.662 1177.9 435.242 1177.83 C 453.161 1178.92 487.625 1178.63 506.106 1178.11 C 515.23 1178.1 525.064 1177.91 534.124 1178.12 C 533.359 1192.21 532.379 1206.74 531.926 1220.8 C 540.72 1221.8 565.697 1220.3 576.43 1220.25 C 590.525 1151.27 615.938 1104.24 674.495 1061.96 C 684.573 1054.19 701.644 1049.62 707.881 1037.42 C 719.391 1014.9 697.979 1003.93 682.95 995.02 C 630.991 964.212 591.049 905.305 580.518 845.932 C 578.736 835.344 577.522 824.668 576.882 813.95 C 576.417 806.72 576.354 797.126 574.731 790.291 C 572.613 788.874 567.262 788.547 564.456 788.185 C 540.751 786.536 543.706 749.024 562.198 747.439 C 573.75 746.448 589.566 747.18 601.486 747.235 C 626.701 747.309 651.916 747.217 677.13 746.959 C 696.818 747.164 716.508 747.122 736.195 746.832 L 742.286 746.898 L 776.256 746.967 C 790.019 746.909 805.642 746.489 819.26 747.023 L 826.894 747.04 z"/>
<path transform="translate(0,0)" fill="rgb(4,57,80)" d="M 1231.67 1044.71 C 1234.66 1066.75 1238.26 1075.34 1247.09 1095.58 C 1264.2 1090.9 1278.37 1086.91 1295.87 1084.4 C 1334.13 1081.93 1372.89 1097.4 1382.99 1137.52 C 1385.89 1156.52 1384.07 1170.19 1374.38 1186.89 C 1357.02 1212 1337.78 1224.05 1308.99 1233.41 C 1314.96 1234 1322.94 1233.8 1326.64 1238.18 L 1326.97 1239.53 C 1328.18 1256.23 1324.28 1277.61 1325.15 1296.06 C 1324.89 1299.56 1324.19 1308.82 1320.52 1309.72 C 1288.81 1317.51 1226.1 1315.24 1198.73 1299.01 C 1195.73 1296.09 1188.29 1294.44 1184.2 1293.37 C 1180.06 1302.9 1178.37 1311.87 1174.98 1321.1 C 1165.46 1318.72 1156.66 1316.49 1147.27 1313.63 C 1117.6 1306.15 1087.49 1300.13 1057.71 1292.86 C 1039.65 1288.46 1037.56 1289.12 1019.57 1293.17 C 988.717 1300.12 957.875 1306.29 927.295 1314.54 C 920.291 1315.82 909.09 1318.97 901.872 1320.77 C 900.143 1314.43 897.26 1306.82 895.055 1300.5 C 889.199 1300.63 885.951 1300.79 880.201 1299.89 C 842.276 1312.9 815.453 1315.06 775.653 1313.62 C 764.844 1313.23 756.737 1314.34 752.564 1303.19 C 751.679 1288.84 751.375 1274.34 750.512 1259.94 C 748.823 1240.22 745.688 1235.06 767.744 1232.19 C 725.036 1217.03 691.1 1193.55 694.785 1143.17 C 699.048 1122.9 706.813 1111.14 724.356 1099.67 C 734.731 1093.09 740.317 1091.3 751.789 1087.66 C 788.59 1080.19 800.571 1089.59 832.993 1095.65 C 848.872 1099.99 873.168 1105.77 887.973 1110.93 L 888.937 1123.18 C 904.041 1130.15 919.908 1135.54 935.373 1142.54 C 964.126 1140.52 990.391 1140.78 1019.08 1140.53 C 1061.72 1139.88 1104.37 1140.02 1147.01 1140.95 L 1176.72 1129.17 C 1177.15 1124.24 1177.01 1114.79 1180.19 1112.1 C 1180.32 1110.3 1180.13 1106.57 1180.1 1104.61 C 1179.82 1098.09 1179.99 1093.16 1181.32 1086.8 C 1181.33 1085.14 1183.63 1071.56 1184.02 1069.05 L 1231.67 1044.71 z"/>
<path transform="translate(0,0)" fill="rgb(241,254,219)" d="M 1231.67 1044.71 C 1234.66 1066.75 1238.26 1075.34 1247.09 1095.58 C 1229.1 1100 1197.42 1109.02 1180.19 1112.1 C 1180.32 1110.3 1180.13 1106.57 1180.1 1104.61 C 1179.82 1098.09 1179.99 1093.16 1181.32 1086.8 C 1181.33 1085.14 1183.63 1071.56 1184.02 1069.05 L 1231.67 1044.71 z"/>
<path transform="translate(0,0)" fill="rgb(248,177,138)" d="M 1181.32 1086.8 C 1184.87 1090.61 1189.56 1094.67 1189.5 1099.85 C 1187.04 1103.92 1184.67 1103.73 1180.1 1104.61 C 1179.82 1098.09 1179.99 1093.16 1181.32 1086.8 z"/>
<path transform="translate(0,0)" fill="rgb(125,212,105)" d="M 1171.74 1239.74 C 1180.08 1242 1191.36 1244.68 1198.51 1249.03 C 1194.24 1256.77 1187.09 1283.32 1184.2 1293.37 C 1180.06 1302.9 1178.37 1311.87 1174.98 1321.1 C 1165.46 1318.72 1156.66 1316.49 1147.27 1313.63 C 1149.8 1311.65 1168.99 1248.33 1171.74 1239.74 z"/>
<path transform="translate(0,0)" fill="rgb(125,212,105)" d="M 881.304 1255.32 C 891.394 1257.5 902.045 1260 912.141 1261.9 C 917.124 1279.25 922.625 1297.18 927.295 1314.54 C 920.291 1315.82 909.09 1318.97 901.872 1320.77 C 900.143 1314.43 897.26 1306.82 895.055 1300.5 C 891.639 1294.6 885.098 1264.9 881.304 1255.32 z"/>
<path transform="translate(0,0)" fill="rgb(125,212,105)" d="M 935.373 1142.54 C 964.126 1140.52 990.391 1140.78 1019.08 1140.53 C 1061.72 1139.88 1104.37 1140.02 1147.01 1140.95 C 1143.27 1142.89 1138.37 1146.09 1134.19 1146.64 C 1121.03 1148.39 950.121 1147.86 942.293 1145.49 C 939.906 1144.76 937.607 1143.63 935.373 1142.54 z"/>
<path transform="translate(0,0)" fill="rgb(248,177,138)" d="M 880.201 1299.89 C 873.148 1290.47 866.815 1266.19 876.622 1255.07 C 877.402 1254.18 879.96 1255.06 881.304 1255.32 C 885.098 1264.9 891.639 1294.6 895.055 1300.5 C 889.199 1300.63 885.951 1300.79 880.201 1299.89 z"/>
<path transform="translate(0,0)" fill="rgb(248,177,138)" d="M 1198.51 1249.03 C 1206.08 1263.78 1207.22 1272.98 1201.99 1289.31 C 1200.94 1292.56 1199.86 1295.79 1198.73 1299.01 C 1195.73 1296.09 1188.29 1294.44 1184.2 1293.37 C 1187.09 1283.32 1194.24 1256.77 1198.51 1249.03 z"/>
<path transform="translate(0,0)" fill="rgb(252,254,238)" d="M 1246.22 1261.6 L 1247.58 1262.58 C 1250.42 1267.25 1248.86 1288.47 1247.91 1294.52 L 1246.11 1293.41 C 1243.74 1289.04 1244.68 1266.97 1246.22 1261.6 z"/>
<path transform="translate(0,0)" fill="rgb(252,254,238)" d="M 830.373 1262.35 L 832.323 1263.23 C 835.058 1268.55 833.196 1286.96 832.83 1293.6 L 831.005 1293.57 C 828.638 1290.06 830.175 1267.73 830.373 1262.35 z"/>
<path transform="translate(0,0)" fill="rgb(252,254,238)" d="M 1228.53 1262.36 C 1233 1265.35 1231.72 1289.44 1229.5 1294.15 C 1225.58 1289.69 1227.49 1268.79 1228.53 1262.36 z"/>
<path transform="translate(0,0)" fill="rgb(252,254,238)" d="M 848.309 1261.66 C 851.923 1264.51 850.281 1288.41 849.569 1293.68 C 845.172 1289.52 845.991 1266.98 848.309 1261.66 z"/>
<path transform="translate(0,0)" fill="rgb(182,240,120)" d="M 613.516 1152.08 C 642.649 1151.33 667.36 1153.18 694.785 1143.17 C 691.1 1193.55 725.036 1217.03 767.744 1232.19 C 745.688 1235.06 748.823 1240.22 750.512 1259.94 C 751.375 1274.34 751.679 1288.84 752.564 1303.19 C 738.146 1302.2 710.757 1303.14 695.464 1303.3 C 665.354 1303.72 635.24 1303.83 605.127 1303.64 C 590.23 1303.66 575.591 1304.24 560.526 1303.44 C 544.143 1303.01 542.073 1276.55 551.314 1267.41 C 556.851 1261.94 573.041 1263.71 580.434 1263.99 C 583.797 1263.36 585.595 1263.72 585.975 1260.34 C 589.786 1226.5 594.409 1181.07 613.516 1152.08 z"/>
<path transform="translate(0,0)" fill="rgb(182,240,120)" d="M 826.894 747.04 C 845.848 747.105 864.803 747.028 883.756 746.807 C 893.826 746.728 904.641 746.148 914.61 747.233 C 923.974 748.252 925.629 755.396 926.701 762.97 C 916.881 765.361 907.297 768.633 898.065 772.747 C 884.501 778.922 876.288 787.731 862.681 788.032 C 857.557 788.588 841.467 788.119 835.552 788.087 C 818.125 787.935 800.697 787.931 783.269 788.072 L 564.456 788.185 C 540.751 786.536 543.706 749.024 562.198 747.439 C 573.75 746.448 589.566 747.18 601.486 747.235 C 626.701 747.309 651.916 747.217 677.13 746.959 C 696.818 747.164 716.508 747.122 736.195 746.832 L 742.286 746.898 L 776.256 746.967 C 790.019 746.909 805.642 746.489 819.26 747.023 L 826.894 747.04 z"/>
<path transform="translate(0,0)" fill="rgb(213,252,157)" d="M 435.242 1177.83 C 453.161 1178.92 487.625 1178.63 506.106 1178.11 C 515.23 1178.1 525.064 1177.91 534.124 1178.12 C 533.359 1192.21 532.379 1206.74 531.926 1220.8 C 531.274 1230.11 529.977 1243.25 530.002 1252.3 C 520.531 1252.37 510.997 1252.6 501.551 1252 C 479.086 1251.15 453.359 1251.79 430.655 1251.84 C 430.642 1244.1 430.712 1226.47 429.385 1219.28 C 428.988 1210.33 427.374 1186.75 428.314 1179.07 C 430.158 1177.54 432.662 1177.9 435.242 1177.83 z"/>
<path transform="translate(0,0)" fill="rgb(182,240,120)" d="M 506.106 1178.11 C 515.23 1178.1 525.064 1177.91 534.124 1178.12 C 533.359 1192.21 532.379 1206.74 531.926 1220.8 C 531.274 1230.11 529.977 1243.25 530.002 1252.3 C 520.531 1252.37 510.997 1252.6 501.551 1252 C 517.63 1228.01 512.114 1204.3 506.106 1178.11 z"/>
<path transform="translate(0,0)" fill="rgb(213,252,157)" d="M 430.963 1262.16 L 496.518 1262.06 L 530.168 1263.28 C 529.772 1270.41 529.323 1277.55 528.819 1284.67 C 513.281 1284.9 497.741 1284.97 482.201 1284.88 C 474.041 1285.76 440.532 1285.14 432.053 1284.4 C 431.524 1276.99 431.161 1269.58 430.963 1262.16 z"/>
<path transform="translate(0,0)" fill="rgb(182,240,120)" d="M 496.518 1262.06 L 530.168 1263.28 C 529.772 1270.41 529.323 1277.55 528.819 1284.67 C 513.281 1284.9 497.741 1284.97 482.201 1284.88 C 478.803 1284.31 470.506 1284.19 466.687 1284.04 C 477.05 1279.23 488.292 1270.05 496.518 1262.06 z"/>
<path transform="translate(0,0)" fill="rgb(213,252,157)" d="M 498.778 1259.07 C 480.579 1258.16 448.54 1260.02 432.64 1257.74 C 435.189 1255.61 491.288 1256.3 498.111 1256.29 L 498.778 1259.07 z"/>
<path transform="translate(0,0)" fill="rgb(182,240,120)" d="M 498.111 1256.29 C 507.272 1256.1 522.059 1255.38 530.61 1257.91 C 520.99 1259.62 508.638 1259.27 498.778 1259.07 L 498.111 1256.29 z"/>
<path transform="translate(0,0)" fill="rgb(252,254,238)" d="M 776.256 746.967 C 771.695 737.189 762.378 727.872 756.548 718.664 C 749.674 707.805 743.003 696.393 737.057 685.007 C 696.621 606.045 689.315 514.226 716.756 429.863 C 746.501 339.769 805.73 270.789 890.612 228.225 C 970.184 188.596 1062.28 182.364 1146.47 210.911 C 1231.44 239.683 1301.57 300.941 1341.49 381.282 C 1380.24 458.563 1385.19 556.161 1357.92 637.964 C 1337.56 698.062 1301.58 751.662 1253.67 793.263 C 1246.68 799.648 1228.39 812.623 1219.97 819.143 C 1206.33 790.696 1195.97 779.184 1165.02 768.143 C 1141.23 759.658 1118.76 753.91 1094.1 748.592 C 1091.88 758.735 1089.84 768.915 1084.13 777.538 C 1060.21 813.67 1001.76 807.495 988.129 765.51 C 986.237 759.685 985.217 754.315 984.046 748.415 C 974.603 750.269 967.03 751.942 957.95 754.39 C 951.887 756.024 931.229 762.86 926.701 762.97 C 925.629 755.396 923.974 748.252 914.61 747.233 C 904.641 746.148 893.826 746.728 883.756 746.807 C 864.803 747.028 845.848 747.105 826.894 747.04 L 819.26 747.023 C 805.642 746.489 790.019 746.909 776.256 746.967 z"/>
<path transform="translate(0,0)" fill="rgb(248,177,138)" d="M 1022.25 617.991 C 1033.5 623.846 1040.05 620.165 1049.73 614.372 C 1060.59 630.127 1071.96 634.011 1088.12 621.892 C 1091.24 625.608 1095.65 630.099 1099.02 633.735 C 1098.83 637.141 1097.89 646.904 1099.03 649.42 C 1104.78 652.167 1112.72 642.744 1114.66 659.63 C 1115.38 665.92 1114.61 668.619 1113.28 674.917 C 1109.77 677.398 1109.51 676.756 1108.03 680.089 C 1104.43 683.101 1100.96 683.637 1096.42 684.847 C 1093.14 692.821 1089.73 700.736 1086.17 708.589 C 1083.37 711.936 1081.02 714.531 1078.79 718.313 C 1079.01 728.23 1079.54 736.79 1080.35 746.685 L 1094.1 748.592 C 1091.88 758.735 1089.84 768.915 1084.13 777.538 C 1060.21 813.67 1001.76 807.495 988.129 765.51 C 986.237 759.685 985.217 754.315 984.046 748.415 L 998.761 745.718 C 999.622 737.74 999.722 729.743 999.955 721.722 L 999.824 720.648 C 999.536 719.772 999.237 718.898 998.929 718.029 C 997.39 713.705 996.913 712.029 992.796 710.088 C 976.903 706.424 974.183 697.081 972.681 682.747 L 964.71 677.076 C 964.268 670.261 959.757 663.353 962.805 655.954 C 965.875 648.501 972.533 651.535 978.176 649.271 C 979.37 645.338 979.006 638.59 978.987 634.235 C 981.758 630.541 987.121 625.558 990.593 622.149 C 1003.66 633.599 1011.97 628.811 1022.25 617.991 z"/>
<path transform="translate(0,0)" fill="rgb(220,135,105)" d="M 999.824 720.648 C 1004.19 721.661 1007.22 726.58 1010.96 729.029 C 1031.15 742.247 1054.07 738.445 1072.8 724.639 C 1075.48 722.66 1079 720.08 1081.91 718.433 C 1052.86 748.918 1036.21 757.653 1002.69 724.717 C 1001.73 723.764 1000.82 722.765 999.955 721.722 L 999.824 720.648 z"/>
<path transform="translate(0,0)" fill="rgb(4,57,80)" d="M 972.681 682.747 C 975.449 682.837 978.897 682.516 980.97 684.084 C 982.323 687.072 992.636 708.531 992.796 710.088 C 976.903 706.424 974.183 697.081 972.681 682.747 z"/>
<path transform="translate(0,0)" fill="rgb(252,254,238)" d="M 1034.88 701.527 C 1040.53 701.165 1050.78 699.174 1053.24 705.687 C 1050.93 710.297 1045.45 710.925 1040.79 712.054 C 1030.72 711.845 1028.27 709.986 1022.44 702.303 L 1034.88 701.527 z"/>
<path transform="translate(0,0)" fill="rgb(4,57,80)" d="M 1001.34 651.067 C 1007.78 650.155 1020.57 649.938 1026.2 653.732 C 1027.31 654.481 1027.08 656.809 1027.17 658.19 C 1022 658.228 1007.07 658.199 1002.79 655.24 C 1001.5 654.343 1001.66 652.928 1001.34 651.067 z"/>
<path transform="translate(0,0)" fill="rgb(42,43,53)" d="M 1063.05 650.389 L 1064.24 650.294 C 1069.32 649.901 1071.48 649.259 1075.28 652.502 L 1075.09 654.377 C 1072.46 656.637 1069.85 656.39 1066.25 656.717 C 1060.7 657.324 1056.07 658.905 1051.8 654.798 L 1052.39 652.946 C 1055.62 650.482 1058.85 650.731 1063.05 650.389 z"/>
<path transform="translate(0,0)" fill="rgb(42,43,53)" d="M 1058.15 665.694 C 1062.37 665.821 1063.56 665.8 1066.03 669.356 C 1066.35 673.133 1065.75 673.983 1064.17 677.491 C 1059.79 677.165 1059.16 676.708 1056.98 673.163 C 1056.74 669.565 1056.91 669.098 1058.15 665.694 z"/>
<path transform="translate(0,0)" fill="rgb(42,43,53)" d="M 1014.25 666.492 C 1019.05 667.387 1018.23 666.451 1020.7 669.4 C 1021.03 672.767 1019.93 674.432 1018.57 677.547 C 1014.59 676.862 1013.88 676.453 1011.84 673.087 C 1011.79 669.692 1012.22 669.448 1014.25 666.492 z"/>
<path transform="translate(0,0)" fill="rgb(190,107,80)" d="M 1036.34 671.697 C 1040.15 677.661 1032.48 686.104 1040.79 695.75 C 1031.36 691.246 1034.61 680.375 1036.34 671.697 z"/>
<path transform="translate(0,0)" fill="rgb(220,135,105)" d="M 971.243 657.674 C 978.034 655.258 981.575 661.209 983.692 666.413 C 983.722 666.435 969.654 655.918 971.243 657.674 z"/>
<path transform="translate(0,0)" fill="rgb(4,57,80)" d="M 1019.02 531.621 C 1039.96 528.042 1056.29 531.938 1070.09 548.957 C 1079.62 544.124 1088.35 543.641 1097.92 549.123 C 1104.45 556.635 1105.28 558.853 1105.57 569.245 C 1128.11 577.269 1140.18 594.648 1131.51 618.562 C 1129.16 624.853 1125.75 630.696 1121.43 635.837 C 1128.87 650.576 1130.18 665.963 1113.28 674.917 C 1114.61 668.619 1115.38 665.92 1114.66 659.63 C 1112.72 642.744 1104.78 652.167 1099.03 649.42 C 1097.89 646.904 1098.83 637.141 1099.02 633.735 C 1095.65 630.099 1091.24 625.608 1088.12 621.892 C 1071.96 634.011 1060.59 630.127 1049.73 614.372 C 1040.05 620.165 1033.5 623.846 1022.25 617.991 C 1011.97 628.811 1003.66 633.599 990.593 622.149 C 987.121 625.558 981.758 630.541 978.987 634.235 C 979.006 638.59 979.37 645.338 978.176 649.271 C 972.533 651.535 965.875 648.501 962.805 655.954 C 959.757 663.353 964.268 670.261 964.71 677.076 C 947.039 666.427 947.259 647.943 955.528 631.241 C 951.021 627.046 947.472 623.115 944.9 617.478 C 940.085 607.063 939.731 595.134 943.922 584.452 C 955.572 554.801 983.999 563.733 986.584 561.199 C 999.437 548.596 993.511 542.94 1019.02 531.621 z"/>
<path transform="translate(0,0)" fill="rgb(213,252,157)" d="M 1019.02 531.621 C 1022.54 501.467 1030.94 470.3 1035.81 440.142 C 1041.93 402.304 1050.44 364.687 1055.61 326.659 C 1056.06 323.338 1057.11 319.464 1058.96 316.646 C 1062.35 316.804 1061.61 316.273 1063.94 317.983 C 1064.92 322.931 1061.5 349.927 1060.82 357.188 L 1048.8 476.186 C 1047.29 491.096 1044.56 510.555 1043.74 525.031 C 1071.7 525.13 1108.63 535.265 1136.94 538.81 C 1145.67 539.902 1161.46 542.102 1169.26 544.477 C 1170.32 547.238 1170.12 546.146 1169.07 549.533 C 1162.34 554.727 1109.63 544.847 1097.92 549.123 C 1088.35 543.641 1079.62 544.124 1070.09 548.957 C 1056.29 531.938 1039.96 528.042 1019.02 531.621 z"/>
<path transform="translate(0,0)" fill="rgb(213,252,157)" d="M 819.26 747.023 C 823.014 737.388 847.124 715.948 855.402 706.428 C 858.803 705.454 857.211 705.284 860.334 706.972 L 861.398 709.52 C 858.205 716.082 834.149 738.48 826.894 747.04 L 819.26 747.023 z"/>
<path transform="translate(0,0)" fill="rgb(4,57,80)" d="M 1108.03 680.089 C 1111.3 698.338 1102 703.673 1086.17 708.589 C 1089.73 700.736 1093.14 692.821 1096.42 684.847 C 1100.96 683.637 1104.43 683.101 1108.03 680.089 z"/>
<path transform="translate(0,0)" fill="rgb(213,252,157)" d="M 1287.8 524.551 C 1298.49 524.565 1331.69 523.954 1340.55 525.495 C 1342.36 527.793 1341.93 529.782 1342.21 533.15 C 1330.75 533.222 1298.85 534.061 1289.17 532.686 C 1287.68 530.853 1287.93 527.122 1287.8 524.551 z"/>
<path transform="translate(0,0)" fill="rgb(213,252,157)" d="M 1036.46 227.118 C 1039.3 227.174 1042.06 226.859 1043.76 228.494 C 1044.9 240.28 1044.03 268.468 1043.96 281.519 C 1041.67 281.397 1039.67 281.112 1037.41 280.815 C 1034.51 277.505 1036.19 234.503 1036.46 227.118 z"/>
<path transform="translate(0,0)" fill="rgb(213,252,157)" d="M 1252.47 312.605 C 1254.86 314.201 1256.77 315.025 1257.23 317.729 C 1251.01 326.98 1229.97 345.932 1221.04 354.403 C 1218.53 353.516 1217.25 352.346 1216.18 349.912 C 1217.3 344.801 1246.05 319.53 1252.47 312.605 z"/>
<path transform="translate(0,0)" fill="rgb(213,252,157)" d="M 825.357 311.377 C 829.986 313.904 858.098 343.207 862.673 348.482 C 863.1 352.018 863.064 350.792 860.291 354.596 C 855.631 353.269 826.721 323.356 822.219 318.055 C 822.086 314.519 822.843 314.74 825.357 311.377 z"/>
<path transform="translate(0,0)" fill="rgb(213,252,157)" d="M 1219.12 705.641 C 1229.34 715.162 1247.42 731.84 1256.1 742.091 C 1256.23 745.141 1255.13 745.743 1253.25 748.718 C 1248.9 746.807 1220.93 717.352 1216.41 711.865 C 1216.03 708.587 1216.51 709.261 1219.12 705.641 z"/>
<path transform="translate(0,0)" fill="rgb(213,252,157)" d="M 760.883 524.506 C 769.609 524.402 780.747 523.583 788.599 527.224 L 788.728 529.54 C 782.491 532.72 771.591 532.04 764.5 531.903 C 755.816 532.102 742.223 533.223 734.621 529.276 L 734.533 527.057 C 740.857 523.649 753.573 524.393 760.883 524.506 z"/>
<path transform="translate(0,0)" fill="rgb(182,240,120)" d="M 926.701 762.97 C 931.229 762.86 951.887 756.024 957.95 754.39 C 967.03 751.942 974.603 750.269 984.046 748.415 C 985.217 754.315 986.237 759.685 988.129 765.51 C 1001.76 807.495 1060.21 813.67 1084.13 777.538 C 1089.84 768.915 1091.88 758.735 1094.1 748.592 C 1118.76 753.91 1141.23 759.658 1165.02 768.143 C 1195.97 779.184 1206.33 790.696 1219.97 819.143 C 1228.39 812.623 1246.68 799.648 1253.67 793.263 C 1266.52 792.022 1297.46 773.981 1315.27 770.035 L 1322.03 767.758 C 1340.59 762.241 1368.24 759.603 1387.64 760.743 C 1465.52 765.181 1530.39 793.584 1582.74 852.249 C 1605.92 877.757 1623.96 907.496 1635.87 939.836 C 1645.78 937.08 1654.33 934.884 1663.87 931.021 L 1673.53 905.929 C 1697.56 895.338 1732.13 887.228 1757.24 878.21 C 1751.76 891.984 1745.85 906.253 1740.85 920.153 C 1752.16 927.432 1765.67 935.69 1776.27 943.666 C 1748.73 952.121 1720.45 962.11 1693.66 970.257 C 1685.86 964.711 1677.87 958.884 1669.98 953.522 C 1658.36 955.342 1644.68 960.734 1633.26 964.185 C 1562.75 985.497 1492.76 1009.45 1422.51 1031.46 C 1418.66 1089.19 1343.44 1075.67 1348.19 1028.94 C 1349.32 1018.41 1354.59 1008.76 1362.83 1002.1 C 1380.53 987.843 1402.29 993.028 1415.73 1010.24 C 1436.38 1002.71 1457.68 996.936 1477.77 989.635 C 1422.42 876.58 1260.62 936.461 1284 1055.05 C 1285.54 1062.9 1292.29 1076.89 1295.87 1084.4 C 1278.37 1086.91 1264.2 1090.9 1247.09 1095.58 C 1238.26 1075.34 1234.66 1066.75 1231.67 1044.71 L 1184.02 1069.05 C 1183.63 1071.56 1181.33 1085.14 1181.32 1086.8 C 1179.99 1093.16 1179.82 1098.09 1180.1 1104.61 C 1180.13 1106.57 1180.32 1110.3 1180.19 1112.1 C 1177.01 1114.79 1177.15 1124.24 1176.72 1129.17 L 1147.01 1140.95 C 1104.37 1140.02 1061.72 1139.88 1019.08 1140.53 C 990.391 1140.78 964.126 1140.52 935.373 1142.54 C 919.908 1135.54 904.041 1130.15 888.937 1123.18 L 887.973 1110.93 C 873.168 1105.77 848.872 1099.99 832.993 1095.65 C 800.571 1089.59 788.59 1080.19 751.789 1087.66 C 740.317 1091.3 734.731 1093.09 724.356 1099.67 C 724.103 1082.29 724.128 1064.92 724.43 1047.54 C 724.542 1034.37 727.156 1006.92 715.191 1000.17 C 674.61 977.262 653.712 959.276 625.724 921.233 C 641.084 923.17 654.794 925.365 670.382 924.745 C 731.009 922.336 771.458 891.253 833.483 882.802 C 839.832 862.147 845.082 839.202 853.54 819.204 C 857.202 810.546 864.622 798.774 869.233 789.878 C 867.68 788.596 864.895 788.431 862.681 788.032 C 876.288 787.731 884.501 778.922 898.065 772.747 C 907.297 768.633 916.881 765.361 926.701 762.97 z"/>
<path transform="translate(0,0)" fill="rgb(218,254,163)" d="M 1170.59 953.782 C 1186.27 953.109 1191.92 953.884 1198.99 969.114 C 1197.94 976.214 1196.73 983.288 1195.37 990.333 C 1191.88 1016.61 1188.1 1042.85 1184.02 1069.05 C 1183.63 1071.56 1181.33 1085.14 1181.32 1086.8 C 1179.99 1093.16 1179.82 1098.09 1180.1 1104.61 C 1180.13 1106.57 1180.32 1110.3 1180.19 1112.1 C 1177.01 1114.79 1177.15 1124.24 1176.72 1129.17 L 1147.01 1140.95 C 1104.37 1140.02 1061.72 1139.88 1019.08 1140.53 C 990.391 1140.78 964.126 1140.52 935.373 1142.54 C 919.908 1135.54 904.041 1130.15 888.937 1123.18 L 887.973 1110.93 C 886.139 1095.33 883.061 1080.37 881.268 1065 C 881.069 1061.72 880.55 1058.46 880.058 1055.22 C 876.603 1032.47 873.847 1009.58 870.034 986.882 C 865.31 954.186 877.682 953.453 905.375 953.8 L 912.609 953.93 L 1086.11 953.804 C 1109.92 953.792 1140.02 953.073 1163.61 954.028 L 1170.59 953.782 z"/>
<path transform="translate(0,0)" fill="rgb(241,254,219)" d="M 751.789 1087.66 L 750.827 1087 C 748.354 1082.27 750.614 1029.85 749.857 1020.84 C 747.745 995.741 777.277 991.07 792.625 978.572 C 797.549 974.563 802.588 970.085 807.456 965.773 C 812.965 968.589 815.85 969.799 821.696 972.071 C 831.687 973.749 858.47 983.39 870.034 986.882 C 873.847 1009.58 876.603 1032.47 880.058 1055.22 C 880.55 1058.46 881.069 1061.72 881.268 1065 C 883.061 1080.37 886.139 1095.33 887.973 1110.93 C 873.168 1105.77 848.872 1099.99 832.993 1095.65 C 800.571 1089.59 788.59 1080.19 751.789 1087.66 z"/>
<path transform="translate(0,0)" fill="rgb(248,177,138)" d="M 821.696 972.071 C 831.687 973.749 858.47 983.39 870.034 986.882 C 873.847 1009.58 876.603 1032.47 880.058 1055.22 C 880.55 1058.46 881.069 1061.72 881.268 1065 C 873.678 1061.5 866.886 1057.1 859.599 1052.94 C 845.387 1044.84 824.628 1036.36 816.666 1021.53 C 809.181 1007.6 815.331 988.07 819.689 973.852 L 821.696 972.071 z"/>
<path transform="translate(0,0)" fill="rgb(218,254,163)" d="M 751.789 1087.66 L 750.827 1087 C 748.354 1082.27 750.614 1029.85 749.857 1020.84 C 747.745 995.741 777.277 991.07 792.625 978.572 C 797.549 974.563 802.588 970.085 807.456 965.773 C 812.965 968.589 815.85 969.799 821.696 972.071 L 819.689 973.852 L 817.609 973.381 C 807.457 983.4 799.116 990.583 786.535 997.889 C 715.405 1039.19 820.971 1060.77 832.993 1095.65 C 800.571 1089.59 788.59 1080.19 751.789 1087.66 z"/>
<path transform="translate(0,0)" fill="rgb(248,177,138)" d="M 1195.37 990.333 C 1207.78 985.854 1244.43 973.796 1256.34 972.061 C 1263.49 1013.23 1271.14 1019.11 1231.67 1044.71 L 1184.02 1069.05 C 1188.1 1042.85 1191.88 1016.61 1195.37 990.333 z"/>
<path transform="translate(0,0)" fill="rgb(125,212,105)" d="M 905.375 953.8 C 905.035 945.915 906.31 891.667 908.547 886.488 C 911.012 884.946 909.697 885.239 912.639 885.662 C 914.996 889.722 912.64 944.056 912.609 953.93 L 905.375 953.8 z"/>
<path transform="translate(0,0)" fill="rgb(125,212,105)" d="M 1163.61 954.028 C 1162.94 942.617 1161.53 895.11 1163.85 886.295 L 1165.26 885.847 C 1166.4 887.101 1167.66 888.049 1167.7 889.888 C 1168.07 911.138 1170.23 932.556 1170.59 953.782 L 1163.61 954.028 z"/>
<path transform="translate(0,0)" fill="rgb(241,254,219)" d="M 1374.7 811.427 C 1403.14 808.806 1438.92 816.855 1465.21 827.781 C 1525.73 852.939 1564.1 895.369 1588.86 955.232 C 1585.82 956.504 1582.7 957.481 1579.54 958.373 C 1561.22 963.537 1543.34 970.349 1524.89 975.033 C 1510.55 942.285 1491.04 917.69 1459.49 900.12 C 1384.15 857.523 1310.37 880.382 1258.79 945.078 C 1251.36 918.686 1244.97 894.725 1236.27 868.644 C 1280 833.446 1318.52 815.622 1374.7 811.427 z"/>
<path transform="translate(0,0)" fill="rgb(125,212,105)" d="M 966.147 759.471 C 970.209 760.372 973.053 769.818 974.478 773.782 C 994.373 829.117 1077.82 830.263 1101.25 777.601 C 1102.61 774.542 1106.75 762.908 1108.12 761.505 L 1110.04 761.734 C 1112.4 764.245 1111.83 762.921 1111.77 766.947 C 1111.56 767.6 1111.35 768.25 1111.14 768.897 C 1103.91 790.387 1094.34 804.393 1073.72 814.493 C 1054.32 824.082 1031.88 825.434 1011.47 818.245 C 992.883 811.84 977.722 798.103 969.52 780.231 C 966.991 774.726 963.922 765.361 966.147 759.471 z"/>
<path transform="translate(0,0)" fill="rgb(218,254,163)" d="M 677.13 746.959 C 678.067 743.055 676.3 740.97 674.244 737.553 C 559.365 546.599 631.245 286.019 820.325 171.971 C 914.683 115.057 1023.32 94.0384 1130.36 120.167 C 1242.35 146.432 1338.86 217.08 1397.73 315.897 C 1454.63 410.256 1471.77 523.335 1445.38 630.317 C 1433.22 679.109 1414.61 718.845 1387.64 760.743 C 1368.24 759.603 1340.59 762.241 1322.03 767.758 L 1315.27 770.035 C 1297.46 773.981 1266.52 792.022 1253.67 793.263 C 1301.58 751.662 1337.56 698.062 1357.92 637.964 C 1385.19 556.161 1380.24 458.563 1341.49 381.282 C 1301.57 300.941 1231.44 239.683 1146.47 210.911 C 1062.28 182.364 970.184 188.596 890.612 228.225 C 805.73 270.789 746.501 339.769 716.756 429.863 C 689.315 514.226 696.621 606.045 737.057 685.007 C 743.003 696.393 749.674 707.805 756.548 718.664 C 762.378 727.872 771.695 737.189 776.256 746.967 L 742.286 746.898 L 736.195 746.832 C 716.508 747.122 696.818 747.164 677.13 746.959 z"/>
<path transform="translate(0,0)" fill="rgb(218,254,163)" d="M 742.286 746.898 C 740.514 739.923 727.177 723.524 722.833 716.022 C 659.425 606.499 657.113 476.564 715.206 363.43 C 757.739 280.598 836.074 211.705 927.388 182.515 C 1018.24 152.626 1117.3 160.618 1202.18 204.684 C 1305.01 257.845 1378.37 353.721 1398.23 468.256 C 1411.54 547.089 1398.87 628.115 1362.12 699.118 C 1355.41 711.783 1348.07 724.105 1340.13 736.038 C 1335.98 742.194 1315.82 765.983 1315.27 770.035 C 1297.46 773.981 1266.52 792.022 1253.67 793.263 C 1301.58 751.662 1337.56 698.062 1357.92 637.964 C 1385.19 556.161 1380.24 458.563 1341.49 381.282 C 1301.57 300.941 1231.44 239.683 1146.47 210.911 C 1062.28 182.364 970.184 188.596 890.612 228.225 C 805.73 270.789 746.501 339.769 716.756 429.863 C 689.315 514.226 696.621 606.045 737.057 685.007 C 743.003 696.393 749.674 707.805 756.548 718.664 C 762.378 727.872 771.695 737.189 776.256 746.967 L 742.286 746.898 z"/>
<path transform="translate(0,0)" fill="rgb(241,254,219)" d="M 736.195 746.832 C 725.717 730.43 715.977 715.424 707.242 697.959 C 669.003 622.128 658.491 535.311 677.525 452.544 C 749.964 124.886 1180.86 53.7317 1355.26 338.401 C 1407.02 422.901 1419.84 523.668 1396.99 618.972 C 1385.41 667.241 1356.66 732.025 1322.03 767.758 L 1315.27 770.035 C 1315.82 765.983 1335.98 742.194 1340.13 736.038 C 1348.07 724.105 1355.41 711.783 1362.12 699.118 C 1398.87 628.115 1411.54 547.089 1398.23 468.256 C 1378.37 353.721 1305.01 257.845 1202.18 204.684 C 1117.3 160.618 1018.24 152.626 927.388 182.515 C 836.074 211.705 757.739 280.598 715.206 363.43 C 657.113 476.564 659.425 606.499 722.833 716.022 C 727.177 723.524 740.514 739.923 742.286 746.898 L 736.195 746.832 z"/>
<path transform="translate(0,0)" fill="rgb(213,252,157)" d="M 443.094 1145.27 C 442.11 1134.56 441.07 1118.19 438.62 1108.22 C 433.114 1085.8 415.439 1077.39 399.395 1064.05 C 392.877 1058.63 386.533 1048.56 382.415 1040.94 C 371.035 1019.86 377.646 999.869 369.017 978.136 C 361.148 958.318 347.938 949.551 336.912 932.68 C 325.473 915.178 329.458 898.126 333.708 879.355 C 351.136 923.284 401.901 917.435 423.539 959.189 C 429.705 971.088 440.773 1016.68 448.261 1020.78 C 450.951 1029.19 467.18 1041.79 472.69 1050.12 C 485.736 1069.87 478.891 1096.43 473.259 1117.37 C 471.298 1119.19 472.403 1118.78 470.084 1119.36 C 471.726 1126.48 469.265 1144.03 479.41 1143.97 C 481.962 1141.62 481.843 1140.1 482.577 1136.49 C 482.746 1139.36 482.877 1142.23 482.971 1145.1 C 484.425 1138.99 484.44 1128.53 485.859 1121.29 C 488.221 1109.23 493.246 1101.28 497.784 1090.06 L 498.124 1089.33 C 503.687 1083.88 521.444 1069.05 523.36 1062.98 L 525.57 1063.44 C 555.412 1038.93 549.434 983.195 589.885 964.804 C 606.85 957.092 611.549 956.033 629.999 955.214 C 619.178 966.431 611.926 975.63 613.733 991.644 C 617.845 1025.49 608.016 1049.31 576.235 1063.93 C 549.656 1076.16 543.878 1098.58 536.713 1124.3 C 534.615 1131.83 525.728 1142.42 529.73 1145.85 L 535.559 1146.52 C 535.242 1153.25 535.062 1162.51 534.408 1168.99 C 534.766 1171.2 535.334 1172.86 534.482 1174.85 L 534.124 1178.12 C 525.064 1177.91 515.23 1178.1 506.106 1178.11 C 487.625 1178.63 453.161 1178.92 435.242 1177.83 C 434.255 1177.53 432.842 1176.88 431.847 1176.47 L 432.976 1176.05 C 429.695 1175.07 428.27 1175.35 426.958 1173.01 L 427.967 1171.27 L 435.653 1169.2 C 426.921 1169.25 425.983 1167.84 426.135 1158.36 C 426.198 1154.4 426.19 1150.1 426.155 1146.12 C 431.885 1146.14 437.392 1145.68 443.094 1145.27 z"/>
<path transform="translate(0,0)" fill="rgb(218,254,163)" d="M 435.653 1169.2 C 459.121 1167.69 487.226 1169.36 511.1 1168.98 L 534.408 1168.99 C 534.766 1171.2 535.334 1172.86 534.482 1174.85 L 534.124 1178.12 C 525.064 1177.91 515.23 1178.1 506.106 1178.11 C 487.625 1178.63 453.161 1178.92 435.242 1177.83 C 434.255 1177.53 432.842 1176.88 431.847 1176.47 L 432.976 1176.05 C 429.695 1175.07 428.27 1175.35 426.958 1173.01 L 427.967 1171.27 L 435.653 1169.2 z"/>
<path transform="translate(0,0)" fill="rgb(234,254,204)" d="M 435.653 1169.2 C 459.121 1167.69 487.226 1169.36 511.1 1168.98 L 534.408 1168.99 C 534.766 1171.2 535.334 1172.86 534.482 1174.85 L 534.076 1174.16 C 531.163 1170.19 509.071 1171.81 503.601 1171.9 C 501.783 1171.56 486.059 1171.53 483.431 1171.53 C 464.822 1171.5 446.605 1171.84 427.967 1171.27 L 435.653 1169.2 z"/>
<path transform="translate(0,0)" fill="rgb(182,240,120)" d="M 503.601 1171.9 C 509.071 1171.81 531.163 1170.19 534.076 1174.16 C 529.561 1175.81 509.134 1175.6 504.327 1174.17 L 503.601 1171.9 z"/>
<path transform="translate(0,0)" fill="rgb(182,240,120)" d="M 495.903 1147.12 C 504.024 1146.83 529.566 1147.36 535.559 1146.52 C 535.242 1153.25 535.062 1162.51 534.408 1168.99 L 511.1 1168.98 C 508.872 1168.76 505.497 1168.67 503.998 1167.18 C 501.378 1164.58 493.762 1150.92 493.887 1148.13 L 495.903 1147.12 z"/>
<path transform="translate(0,0)" fill="rgb(182,240,120)" d="M 482.971 1145.1 C 470.605 1153.19 466.878 1119.95 464.711 1112.43 C 458.716 1091.62 449.947 1071.36 432.479 1057.46 C 401.297 1032.64 407.319 994.45 387.406 963.809 C 378.398 949.283 339.942 922.351 340.093 910.88 C 355.284 933.348 372.015 938.547 387.545 959.37 C 403.981 981.406 403.382 1007.5 415.095 1031.21 C 423.423 1048.07 436.332 1056.7 448.017 1070.47 C 459.096 1083.53 465.125 1102.95 470.084 1119.36 C 471.726 1126.48 469.265 1144.03 479.41 1143.97 C 481.962 1141.62 481.843 1140.1 482.577 1136.49 C 482.746 1139.36 482.877 1142.23 482.971 1145.1 z"/>
<path transform="translate(0,0)" fill="rgb(182,240,120)" d="M 606.78 968.286 C 600.759 978.115 591.994 984.658 586.005 995.886 C 576.047 1014.55 570.721 1034.98 559.413 1052.81 C 551.557 1065.21 540.599 1076.21 531.194 1087.11 C 520.653 1099.33 500.25 1132.41 495.903 1147.12 L 493.887 1148.13 C 501.033 1127.13 515.448 1102.01 529.898 1085.06 C 540.024 1073.17 549.267 1064.49 557.758 1050.9 C 576.06 1021.6 576.93 990.431 606.78 968.286 z"/>
<path transform="translate(0,0)" fill="rgb(182,240,120)" d="M 1597.95 989.994 C 1613.47 984.568 1629.83 980.329 1645.73 976.07 C 1648.2 986.014 1650.09 998.568 1651.09 1008.74 C 1656.21 1064.9 1643.36 1121.23 1614.38 1169.61 C 1603.22 1188 1592.33 1201.17 1578.83 1217.62 C 1524.38 1272.32 1466.43 1301.96 1387.37 1303.87 C 1366.52 1304.38 1345.45 1300.18 1325.15 1296.06 C 1324.28 1277.61 1328.18 1256.23 1326.97 1239.53 C 1327.52 1241.38 1327.8 1243.99 1329.57 1244.69 C 1355.68 1255.08 1393.58 1255.85 1419.9 1251.23 C 1476.75 1241.01 1527.2 1208.6 1560.14 1161.16 C 1597.28 1108.25 1609.04 1053.33 1597.95 989.994 z"/>
<path transform="translate(0,0)" fill="rgb(218,254,163)" d="M 448.261 1020.78 C 442.827 982.523 465.605 969.479 474.154 937.28 C 481.304 910.343 469.325 881.055 490.236 855.031 C 502.918 839.248 508.968 832.206 512.751 812.152 C 527.268 836.366 541.266 864.795 534.546 894.338 C 532.415 903.71 526.441 915.175 525.651 925.1 C 523.17 956.247 542.784 986.047 538.625 1017.02 C 536.559 1032.41 527.978 1048.18 523.36 1062.98 C 521.444 1069.05 503.687 1083.88 498.124 1089.33 L 497.784 1090.06 C 493.246 1101.28 488.221 1109.23 485.859 1121.29 C 484.44 1128.53 484.425 1138.99 482.971 1145.1 C 482.877 1142.23 482.746 1139.36 482.577 1136.49 C 481.843 1140.1 481.962 1141.62 479.41 1143.97 C 469.265 1144.03 471.726 1126.48 470.084 1119.36 C 472.403 1118.78 471.298 1119.19 473.259 1117.37 C 478.891 1096.43 485.736 1069.87 472.69 1050.12 C 467.18 1041.79 450.951 1029.19 448.261 1020.78 z"/>
<path transform="translate(0,0)" fill="rgb(182,240,120)" d="M 497.784 1090.06 L 496.508 1089.17 C 495.637 1087.4 495.671 1063.7 495.057 1057.99 C 491.39 1023.89 488.115 989.795 494.455 955.783 C 497.9 937.304 504.416 920.039 509.572 902.062 C 511.866 894.065 513.152 883.582 515.023 875.336 C 516.375 869.374 515.52 861.672 515.17 855.362 L 515.737 855.414 C 518.919 861.868 513.918 894.801 511.393 902.178 C 497.752 942.022 489.811 981.881 494.411 1024.23 C 496.668 1045.01 500.158 1068.21 498.124 1089.33 L 497.784 1090.06 z"/>
<path transform="translate(0,0)" fill="rgb(182,240,120)" d="M 1486.65 1024.93 C 1502.65 1020.18 1518.57 1015.16 1534.4 1009.88 C 1537.88 1058.52 1530.61 1097.43 1497.4 1135.82 C 1471.59 1165.65 1435.11 1184.16 1395.79 1187.37 C 1388.6 1187.89 1381.52 1188.02 1374.38 1186.89 C 1384.07 1170.19 1385.89 1156.52 1382.99 1137.52 C 1395.72 1135.85 1405.11 1134.83 1417.27 1130.36 C 1462.21 1113.86 1489.48 1072.76 1486.65 1024.93 z"/>
</svg>