<svg version="1.1" xmlns="http://www.w3.org/2000/svg" style="display: block;" viewBox="0 0 2048 2048" width="2000" height="2000" preserveAspectRatio="none">
<path transform="translate(0,0)" fill="rgb(62,190,221)" d="M 1554.35 816.868 C 1557.03 820.25 1559.73 823.641 1562.33 827.075 C 1572.58 840.586 1586.81 850.136 1597.26 863.411 C 1590.17 870.95 1585.41 881.038 1578.49 887.246 L 1586.44 902.832 C 1576.76 917.681 1566.74 932.313 1556.41 946.718 C 1551.33 953.713 1539.64 968.475 1535.78 974.998 C 1552.37 977.044 1574.86 992.436 1584.87 1005.78 C 1593.96 1017.89 1594.49 1022.59 1598.38 1036.01 C 1633.16 1016.89 1665.53 1009.3 1704.64 1019.09 C 1732.03 1024.78 1764.73 1053.64 1753.73 1084.42 C 1729.07 1153.37 1645.68 1182.9 1582.47 1206.16 C 1540.05 1221.78 1392 1294.81 1360.06 1241.63 C 1360.01 1236.92 1359.85 1231.99 1360.17 1227.31 C 1329.27 1236.4 1295.3 1251.82 1264.07 1261.59 C 1270.44 1289.86 1267.95 1315.62 1249.28 1338.67 C 1295.93 1341.29 1336.28 1350.44 1364.44 1390.26 C 1404.8 1468.74 1336.05 1536.78 1269.54 1567.95 C 1238.57 1582.46 1208.21 1594.81 1174.87 1603.26 C 1071.98 1630.83 964.531 1640.93 868.477 1690.31 C 863.06 1693.1 842.342 1702.13 839.68 1706.32 C 834.8 1706.65 816.613 1717.67 811.193 1720.71 C 725.256 1768.93 640.555 1825.27 544.449 1851.2 C 484.282 1867.43 414.838 1872.96 357.247 1845.42 C 333.399 1834.01 302.348 1817.3 292.571 1790.8 C 287.938 1778.34 288.65 1764.52 294.538 1752.6 C 307.909 1725.01 338.535 1709.79 365.978 1700.2 C 328.586 1683.98 291.927 1659.39 280.694 1617.63 C 273.513 1590.93 281.809 1558.08 296.212 1535.09 C 337.066 1469.86 420.391 1459.11 489.271 1444.67 C 541.812 1433.57 594.401 1416.08 640.317 1388.21 C 672.982 1368.38 704.072 1342.16 732.974 1317.21 C 782.589 1274.38 830.751 1229.94 888.84 1198.53 C 899.302 1192.87 918.928 1183.08 930.03 1180.37 C 932.429 1177.79 941.965 1149.03 944.558 1142.94 C 957.166 1113.32 971.731 1085.09 985.451 1056.06 C 991.836 1045.59 1001.16 1025.48 1006.92 1013.99 C 1018.7 990.507 1030.65 967.107 1042.77 943.792 C 1049.72 949.24 1056.4 952.786 1064.88 955.505 C 1093.79 964.782 1135.53 956.484 1161.97 943.107 C 1175.52 936.255 1191.38 922.05 1195.22 907.124 C 1199.17 891.779 1194.2 881.798 1187.26 869.075 C 1252.23 899.243 1295.88 940.796 1344.88 991.875 C 1352.64 986.756 1364.96 983.279 1374.04 981.506 C 1392.96 959.991 1406.4 941.271 1427.55 919.212 C 1462.95 882.296 1497.87 851.306 1536.57 818.283 C 1538.87 821.578 1541.12 825.324 1543.28 828.753 C 1545.66 823.887 1550.21 820.508 1554.35 816.868 z M 1543.28 828.753 C 1541.12 825.324 1538.87 821.578 1536.57 818.283 C 1497.87 851.306 1462.95 882.296 1427.55 919.212 C 1406.4 941.271 1392.96 959.991 1374.04 981.506 C 1364.96 983.279 1352.64 986.756 1344.88 991.875 C 1295.88 940.796 1252.23 899.243 1187.26 869.075 C 1194.2 881.798 1199.17 891.779 1195.22 907.124 C 1191.38 922.05 1175.52 936.255 1161.97 943.107 C 1135.53 956.484 1093.79 964.782 1064.88 955.505 C 1056.4 952.786 1049.72 949.24 1042.77 943.792 C 1030.65 967.107 1018.7 990.507 1006.92 1013.99 C 1001.16 1025.48 991.836 1045.59 985.451 1056.06 C 971.731 1085.09 957.166 1113.32 944.558 1142.94 C 941.965 1149.03 932.429 1177.79 930.03 1180.37 C 930.143 1185.99 924.348 1206.28 922.605 1213.71 C 919.959 1225.49 917.624 1237.33 915.605 1249.23 C 909.817 1283.42 904.313 1317.66 899.092 1351.95 C 898.077 1358.68 893.762 1392.9 892.509 1396.92 C 888.446 1427.6 884.723 1458.6 880.356 1489.2 C 883.985 1492.51 897.3 1491.83 902.664 1491.86 C 926.28 1491.82 952.196 1487.28 975.25 1482.33 C 983.752 1480.57 992.206 1478.58 1000.61 1476.38 C 1004.33 1459.66 1008.13 1429.39 1010.51 1412.08 C 1097.56 1365.28 1148.78 1340.06 1249.28 1338.67 C 1267.95 1315.62 1270.44 1289.86 1264.07 1261.59 C 1295.3 1251.82 1329.27 1236.4 1360.17 1227.31 C 1359.85 1231.99 1360.01 1236.92 1360.06 1241.63 C 1392 1294.81 1540.05 1221.78 1582.47 1206.16 C 1645.68 1182.9 1729.07 1153.37 1753.73 1084.42 C 1764.73 1053.64 1732.03 1024.78 1704.64 1019.09 C 1665.53 1009.3 1633.16 1016.89 1598.38 1036.01 C 1594.49 1022.59 1593.96 1017.89 1584.87 1005.78 C 1574.86 992.436 1552.37 977.044 1535.78 974.998 C 1539.64 968.475 1551.33 953.713 1556.41 946.718 C 1566.74 932.313 1576.76 917.681 1586.44 902.832 L 1578.49 887.246 C 1585.41 881.038 1590.17 870.95 1597.26 863.411 C 1586.81 850.136 1572.58 840.586 1562.33 827.075 C 1559.73 823.641 1557.03 820.25 1554.35 816.868 C 1550.21 820.508 1545.66 823.887 1543.28 828.753 z M 695.344 1735.75 C 665.284 1754.19 634.408 1771.25 602.81 1786.9 C 596.689 1789.95 571.123 1801.27 568.267 1805.04 L 568.61 1806.65 L 570.328 1806.65 C 607.139 1789.83 643.07 1771.14 677.983 1750.67 C 682.414 1748.03 694.637 1741.1 697.999 1737.85 L 698.052 1736.14 C 697.489 1736.05 695.834 1735.72 695.344 1735.75 z M 1305.09 1433.54 C 1302.34 1440.69 1302.05 1447.76 1299.52 1454.85 C 1288.74 1485.82 1266.07 1511.24 1236.52 1525.47 C 1231.55 1527.81 1226.72 1529.95 1221.55 1531.83 C 1217.14 1533.44 1213.01 1532.83 1209.35 1535.37 C 1209.05 1537.8 1208.77 1536.69 1210.17 1538.68 C 1242.71 1531.83 1271.16 1512.22 1289.15 1484.25 C 1294.07 1476.71 1313.15 1440.2 1305.09 1433.54 z"/>
<path transform="translate(0,0)" fill="rgb(62,190,221)" d="M 1554.35 816.868 C 1557.03 820.25 1559.73 823.641 1562.33 827.075 C 1572.58 840.586 1586.81 850.136 1597.26 863.411 C 1590.17 870.95 1585.41 881.038 1578.49 887.246 L 1586.44 902.832 C 1576.76 917.681 1566.74 932.313 1556.41 946.718 C 1551.33 953.713 1539.64 968.475 1535.78 974.998 C 1552.37 977.044 1574.86 992.436 1584.87 1005.78 C 1593.96 1017.89 1594.49 1022.59 1598.38 1036.01 C 1633.16 1016.89 1665.53 1009.3 1704.64 1019.09 C 1732.03 1024.78 1764.73 1053.64 1753.73 1084.42 C 1729.07 1153.37 1645.68 1182.9 1582.47 1206.16 C 1540.05 1221.78 1392 1294.81 1360.06 1241.63 C 1360.01 1236.92 1359.85 1231.99 1360.17 1227.31 C 1329.27 1236.4 1295.3 1251.82 1264.07 1261.59 C 1270.44 1289.86 1267.95 1315.62 1249.28 1338.67 C 1148.78 1340.06 1097.56 1365.28 1010.51 1412.08 C 1008.13 1429.39 1004.33 1459.66 1000.61 1476.38 C 992.206 1478.58 983.752 1480.57 975.25 1482.33 C 952.196 1487.28 926.28 1491.82 902.664 1491.86 C 897.3 1491.83 883.985 1492.51 880.356 1489.2 C 884.723 1458.6 888.446 1427.6 892.509 1396.92 C 893.762 1392.9 898.077 1358.68 899.092 1351.95 C 904.313 1317.66 909.817 1283.42 915.605 1249.23 C 917.624 1237.33 919.959 1225.49 922.605 1213.71 C 924.348 1206.28 930.143 1185.99 930.03 1180.37 C 932.429 1177.79 941.965 1149.03 944.558 1142.94 C 957.166 1113.32 971.731 1085.09 985.451 1056.06 C 991.836 1045.59 1001.16 1025.48 1006.92 1013.99 C 1018.7 990.507 1030.65 967.107 1042.77 943.792 C 1049.72 949.24 1056.4 952.786 1064.88 955.505 C 1093.79 964.782 1135.53 956.484 1161.97 943.107 C 1175.52 936.255 1191.38 922.05 1195.22 907.124 C 1199.17 891.779 1194.2 881.798 1187.26 869.075 C 1252.23 899.243 1295.88 940.796 1344.88 991.875 C 1352.64 986.756 1364.96 983.279 1374.04 981.506 C 1392.96 959.991 1406.4 941.271 1427.55 919.212 C 1462.95 882.296 1497.87 851.306 1536.57 818.283 C 1538.87 821.578 1541.12 825.324 1543.28 828.753 C 1545.66 823.887 1550.21 820.508 1554.35 816.868 z M 1070.86 1150.26 C 1084.63 1146.99 1132.93 1152.53 1146.67 1156.54 C 1164.08 1148.49 1201.37 1101.69 1215.73 1085.43 C 1222 1078.32 1230.38 1067.51 1238.4 1062.2 C 1212.46 1041.48 1190.47 1021.98 1167.98 997.291 C 1149.64 1027.85 1130.64 1058.01 1110.99 1087.75 C 1099.34 1105.36 1080.01 1132.17 1070.86 1150.26 z M 1360.17 1227.31 C 1359.85 1231.99 1360.01 1236.92 1360.06 1241.63 C 1392 1294.81 1540.05 1221.78 1582.47 1206.16 C 1645.68 1182.9 1729.07 1153.37 1753.73 1084.42 C 1764.73 1053.64 1732.03 1024.78 1704.64 1019.09 C 1665.53 1009.3 1633.16 1016.89 1598.38 1036.01 C 1580.83 1048.16 1570.93 1056.38 1557.45 1073.41 C 1541.9 1093.06 1526.88 1119.54 1506.96 1134.88 C 1456.25 1173.92 1395.82 1166.32 1360.17 1227.31 z"/>
<path transform="translate(0,0)" fill="rgb(0,0,0)" d="M 1554.35 816.868 C 1557.03 820.25 1559.73 823.641 1562.33 827.075 C 1572.58 840.586 1586.81 850.136 1597.26 863.411 C 1590.17 870.95 1585.41 881.038 1578.49 887.246 L 1586.44 902.832 C 1576.76 917.681 1566.74 932.313 1556.41 946.718 C 1551.33 953.713 1539.64 968.475 1535.78 974.998 C 1521.5 991.01 1508.46 1008.08 1494.11 1024.07 C 1476.34 1043.84 1391.56 1133 1369.97 1134.27 C 1351.46 1135.35 1289.97 1097.77 1272.5 1086.24 C 1260.87 1078.57 1249.89 1070.03 1238.4 1062.2 C 1212.46 1041.48 1190.47 1021.98 1167.98 997.291 C 1149.64 1027.85 1130.64 1058.01 1110.99 1087.75 C 1099.34 1105.36 1080.01 1132.17 1070.86 1150.26 C 1060.76 1163.87 1051.64 1190.82 1047.25 1207.1 C 1036.02 1247.58 1026.37 1307.79 1019.98 1350.38 L 1010.51 1412.08 C 1008.13 1429.39 1004.33 1459.66 1000.61 1476.38 C 992.206 1478.58 983.752 1480.57 975.25 1482.33 C 952.196 1487.28 926.28 1491.82 902.664 1491.86 C 897.3 1491.83 883.985 1492.51 880.356 1489.2 C 884.723 1458.6 888.446 1427.6 892.509 1396.92 C 893.762 1392.9 898.077 1358.68 899.092 1351.95 C 904.313 1317.66 909.817 1283.42 915.605 1249.23 C 917.624 1237.33 919.959 1225.49 922.605 1213.71 C 924.348 1206.28 930.143 1185.99 930.03 1180.37 C 932.429 1177.79 941.965 1149.03 944.558 1142.94 C 957.166 1113.32 971.731 1085.09 985.451 1056.06 C 991.836 1045.59 1001.16 1025.48 1006.92 1013.99 C 1018.7 990.507 1030.65 967.107 1042.77 943.792 C 1049.72 949.24 1056.4 952.786 1064.88 955.505 C 1093.79 964.782 1135.53 956.484 1161.97 943.107 C 1175.52 936.255 1191.38 922.05 1195.22 907.124 C 1199.17 891.779 1194.2 881.798 1187.26 869.075 C 1252.23 899.243 1295.88 940.796 1344.88 991.875 C 1352.64 986.756 1364.96 983.279 1374.04 981.506 C 1392.96 959.991 1406.4 941.271 1427.55 919.212 C 1462.95 882.296 1497.87 851.306 1536.57 818.283 C 1538.87 821.578 1541.12 825.324 1543.28 828.753 C 1545.66 823.887 1550.21 820.508 1554.35 816.868 z"/>
<path transform="translate(0,0)" fill="rgb(245,182,130)" d="M 1554.35 816.868 C 1557.03 820.25 1559.73 823.641 1562.33 827.075 C 1572.58 840.586 1586.81 850.136 1597.26 863.411 C 1590.17 870.95 1585.41 881.038 1578.49 887.246 C 1566.64 868.305 1555.39 848.168 1543.28 828.753 C 1545.66 823.887 1550.21 820.508 1554.35 816.868 z"/>
<path transform="translate(0,0)" fill="rgb(62,190,221)" d="M 1344.88 991.875 C 1352.64 986.756 1364.96 983.279 1374.04 981.506 C 1371.18 985.632 1361.3 1000.01 1357.9 1003.16 L 1353.96 1002.58 C 1353.13 1000.37 1346.89 994.063 1344.88 991.875 z"/>
<path transform="translate(0,0)" fill="rgb(221,65,64)" d="M 1353.96 1002.58 L 1357.9 1003.16 C 1358.42 1005.22 1358.92 1007.28 1359.38 1009.35 C 1360.82 1015.79 1364.36 1035.06 1360.9 1040.47 C 1358.48 1038.29 1354.35 1007.05 1353.96 1002.58 z"/>
<path transform="translate(0,0)" fill="rgb(127,229,252)" d="M 1598.38 1036.01 C 1633.16 1016.89 1665.53 1009.3 1704.64 1019.09 C 1732.03 1024.78 1764.73 1053.64 1753.73 1084.42 C 1729.07 1153.37 1645.68 1182.9 1582.47 1206.16 C 1540.05 1221.78 1392 1294.81 1360.06 1241.63 C 1360.01 1236.92 1359.85 1231.99 1360.17 1227.31 C 1395.82 1166.32 1456.25 1173.92 1506.96 1134.88 C 1526.88 1119.54 1541.9 1093.06 1557.45 1073.41 C 1570.93 1056.38 1580.83 1048.16 1598.38 1036.01 z M 1444.24 1233.36 L 1560.24 1189.69 C 1616.57 1168.44 1684.16 1147.54 1717.73 1093.75 L 1717.46 1091.88 L 1715.69 1090.63 C 1711.11 1096.28 1707.05 1102.2 1702.34 1107.74 C 1670.51 1145.18 1619.28 1162.76 1574.82 1179.57 L 1493.23 1210.32 C 1485.52 1213.2 1444.6 1227.25 1442.08 1231.96 C 1443.61 1233.3 1442.83 1232.93 1444.24 1233.36 z"/>
<path transform="translate(0,0)" fill="rgb(127,229,252)" d="M 1019.98 1350.38 C 1031.48 1346.38 1043 1342.26 1054.41 1338.02 C 1124.1 1312.13 1194.52 1287.79 1264.07 1261.59 C 1270.44 1289.86 1267.95 1315.62 1249.28 1338.67 C 1148.78 1340.06 1097.56 1365.28 1010.51 1412.08 L 1019.98 1350.38 z"/>
<path transform="translate(0,0)" fill="rgb(127,229,252)" d="M 1070.86 1150.26 C 1084.63 1146.99 1132.93 1152.53 1146.67 1156.54 C 1141.33 1168.58 1061.87 1205.8 1047.25 1207.1 C 1051.64 1190.82 1060.76 1163.87 1070.86 1150.26 z"/>
<path transform="translate(0,0)" fill="rgb(127,229,252)" d="M 365.978 1700.2 C 328.586 1683.98 291.927 1659.39 280.694 1617.63 C 273.513 1590.93 281.809 1558.08 296.212 1535.09 C 337.066 1469.86 420.391 1459.11 489.271 1444.67 C 541.812 1433.57 594.401 1416.08 640.317 1388.21 C 672.982 1368.38 704.072 1342.16 732.974 1317.21 C 782.589 1274.38 830.751 1229.94 888.84 1198.53 C 899.302 1192.87 918.928 1183.08 930.03 1180.37 C 930.143 1185.99 924.348 1206.28 922.605 1213.71 C 919.959 1225.49 917.624 1237.33 915.605 1249.23 C 909.817 1283.42 904.313 1317.66 899.092 1351.95 C 898.077 1358.68 893.762 1392.9 892.509 1396.92 C 888.446 1427.6 884.723 1458.6 880.356 1489.2 C 872.546 1502.82 646.859 1603.76 614.649 1615.05 C 618.337 1659.54 591.62 1700.95 549.558 1715.93 C 507.496 1730.91 460.621 1715.7 435.358 1678.89 C 415.37 1684.7 385.401 1693.34 365.978 1700.2 z"/>
<path transform="translate(0,0)" fill="rgb(221,65,64)" d="M 435.358 1678.89 C 411.972 1644.81 412.361 1599.75 436.33 1566.08 C 460.3 1532.41 502.747 1517.3 542.602 1528.24 C 582.457 1539.19 611.234 1573.86 614.649 1615.05 C 618.337 1659.54 591.62 1700.95 549.558 1715.93 C 507.496 1730.91 460.621 1715.7 435.358 1678.89 z"/>
<path transform="translate(0,0)" fill="rgb(0,0,0)" d="M 493.965 1551.76 C 496.552 1552.53 495.521 1551.78 497.05 1554.02 C 496.301 1555.16 496.15 1555.78 495.117 1556.31 C 477.461 1565.28 466.313 1580.8 463.842 1600.51 C 462.927 1607.8 463.432 1614.49 463.834 1622.13 C 461.956 1621.83 462.394 1621.84 460.625 1620.91 C 457.349 1614.76 458.858 1598.33 460.874 1591.47 C 466.607 1571.95 477.136 1561.42 493.965 1551.76 z"/>
<path transform="translate(0,0)" fill="rgb(0,0,0)" d="M 582.814 1635.76 C 584.711 1637.36 584.161 1636.64 585.043 1638.98 C 581.812 1656.09 545.787 1656.37 533.826 1666.03 L 532.158 1664.4 C 534.562 1650.97 567.129 1659.35 582.814 1635.76 z"/>
<path transform="translate(0,0)" fill="rgb(0,0,0)" d="M 432.36 1625.22 C 437.767 1628.01 436.84 1636.15 439.72 1642.58 C 443.744 1651.56 446.935 1656.61 453.582 1664.01 C 458.127 1669.07 464.933 1671.01 466.624 1676.37 C 447.717 1673.64 429.887 1642.84 432.36 1625.22 z"/>
<path transform="translate(0,0)" fill="rgb(0,0,0)" d="M 573.273 1676.68 L 575.662 1678.33 L 575.661 1680.27 C 573.143 1683.54 570.386 1686.62 567.411 1689.49 C 553.335 1703.29 542.447 1703.04 524.078 1702.94 C 522.342 1702.18 523.075 1702.48 521.694 1700.6 C 523.942 1697.08 544.467 1698.23 549.883 1696.47 C 558.405 1693.71 567.461 1683.04 573.273 1676.68 z"/>
<path transform="translate(0,0)" fill="rgb(0,0,0)" d="M 503.496 1609.24 L 506.175 1610.28 C 515.976 1623.35 499.535 1653.63 489.742 1663.77 C 483.983 1659.48 495.662 1650.87 498.486 1644.85 C 504.444 1632.14 502.975 1622.45 503.496 1609.24 z"/>
<path transform="translate(0,0)" fill="rgb(0,0,0)" d="M 579.461 1597.54 C 580.526 1598.6 582.155 1599.5 581.644 1600.85 C 576.017 1615.66 554.376 1620.48 542.209 1631.2 L 540.763 1629.54 C 540.681 1620.68 564.589 1614.08 571.457 1607.63 C 575.65 1603.7 576.372 1602.26 579.461 1597.54 z"/>
<path transform="translate(0,0)" fill="rgb(0,0,0)" d="M 505.585 1582.21 C 516.872 1581.73 545.698 1585.97 550.477 1597.99 L 549.342 1600.55 C 540.1 1594.29 535.868 1591.59 525.01 1588.46 C 518.39 1586.55 509.106 1587.7 505.371 1585.36 L 505.585 1582.21 z"/>
<path transform="translate(0,0)" fill="rgb(0,0,0)" d="M 544.297 1547.97 C 554.647 1547.14 579.562 1566.33 577.228 1579.5 C 572.239 1577.37 569.548 1567.55 563.644 1562.3 C 557.853 1557.15 545.478 1554.47 544.297 1547.97 z"/>
<path transform="translate(0,0)" fill="rgb(0,0,0)" d="M 513.358 1678.81 L 515.262 1679.44 L 515.764 1681.3 C 510.492 1689.61 490.299 1701.47 480.345 1703.61 L 478.58 1701 L 479.491 1699.24 C 493.683 1695.93 501.471 1687.83 513.358 1678.81 z"/>
<path transform="translate(0,0)" fill="rgb(0,0,0)" d="M 595.464 1609.32 C 607.866 1613.66 604.237 1641.64 600.912 1651.85 L 598.428 1651.01 C 596.081 1647.48 600.339 1638.88 599.909 1632.49 C 599.332 1623.9 597.046 1617.65 595.464 1609.32 z"/>
<path transform="translate(0,0)" fill="rgb(0,0,0)" d="M 444.112 1573.52 C 445.308 1573.98 445.741 1574.34 446.837 1575.01 C 446.344 1582.04 437.953 1591.45 440.275 1599.09 C 440.953 1601.32 440.695 1603.01 439.955 1605.18 C 429.925 1597.92 438.828 1581.8 444.112 1573.52 z"/>
<path transform="translate(0,0)" fill="rgb(0,0,0)" d="M 516.878 1535.57 C 526.22 1538.44 523.273 1558.84 520.322 1565.74 C 518.23 1564.58 519.127 1565.36 517.676 1563.33 C 518.197 1557.01 518.496 1548.15 517.273 1541.98 C 516.616 1538.66 516.411 1538.96 516.878 1535.57 z"/>
<path transform="translate(0,0)" fill="rgb(62,190,221)" d="M 892.509 1396.92 C 887.621 1397.9 878.841 1400.84 873.18 1402.32 C 850.1 1408.34 820.798 1413.69 798.4 1402.61 C 772.376 1389.74 761.554 1360.34 776.223 1334.5 C 792.788 1305.31 826.246 1280.2 856.99 1267.97 C 875.296 1260.68 896.919 1255.1 915.605 1249.23 C 909.817 1283.42 904.313 1317.66 899.092 1351.95 C 898.077 1358.68 893.762 1392.9 892.509 1396.92 z"/>
<path transform="translate(0,0)" fill="rgb(221,65,64)" d="M 901.4 1529.06 C 931.901 1522.75 942.133 1521.15 973.073 1522.65 C 973.833 1533.34 971.968 1547.3 970.648 1558.06 C 959.509 1573.99 887.078 1613.16 866.446 1623.04 C 861.959 1625.19 852.704 1630.47 847.762 1631.75 C 846.437 1632.09 846.186 1631.3 844.909 1630.13 C 838.147 1612.37 885.559 1560.27 895.957 1545.55 C 898.398 1542.1 900.28 1533.39 901.4 1529.06 z"/>
<path transform="translate(0,0)" fill="rgb(245,182,130)" d="M 902.664 1491.86 C 926.28 1491.82 952.196 1487.28 975.25 1482.33 C 975.007 1491.75 972.486 1516.16 973.073 1522.65 C 942.133 1521.15 931.901 1522.75 901.4 1529.06 C 902.448 1517.43 902.421 1503.64 902.664 1491.86 z"/>
<path transform="translate(0,0)" fill="rgb(127,229,252)" d="M 1790.71 1258.43 C 1782.51 1273.38 1770.92 1286.13 1762.32 1300.08 C 1784.48 1295.29 1798.74 1293.81 1821 1298.77 C 1802.85 1313.21 1796.11 1319.4 1780.76 1337.41 C 1798.58 1337.78 1813.3 1337.76 1830.88 1341.48 C 1820.77 1348.19 1802.32 1358.31 1794.24 1364.66 C 1816.8 1369.63 1838.57 1375.64 1857.32 1390.15 C 1833.54 1391.21 1809.76 1392.54 1786 1394.15 C 1777.25 1394.79 1762.09 1396.85 1754.22 1397.02 C 1751.45 1421.94 1741.95 1445.84 1729.26 1467.32 C 1780.99 1457.6 1837.54 1472.68 1848.29 1530.94 C 1853.72 1559.86 1847.28 1589.75 1830.43 1613.87 C 1774.09 1695.14 1615.84 1717.07 1523.22 1738.2 C 1490.83 1745.41 1458.93 1754.65 1427.69 1765.85 C 1409.33 1772.56 1391.43 1780.43 1374.07 1789.41 C 1341.65 1806.53 1302.73 1832.31 1266.55 1839.41 C 1226.04 1847.36 1146.19 1830.64 1142.13 1779.11 C 1086.28 1805.78 1030.44 1832.47 971.359 1851.32 C 917.637 1868.45 844.602 1858.48 826.554 1796.76 C 819.632 1773.09 827.554 1727.17 839.68 1706.32 C 842.342 1702.13 863.06 1693.1 868.477 1690.31 C 964.531 1640.93 1071.98 1630.83 1174.87 1603.26 C 1208.21 1594.81 1238.57 1582.46 1269.54 1567.95 C 1336.05 1536.78 1404.8 1468.74 1364.44 1390.26 C 1379.95 1382.01 1397.71 1371 1413.27 1363.2 C 1469.62 1334.98 1655.89 1250.37 1712.57 1284.62 C 1742.14 1270.8 1762.59 1270.43 1790.71 1258.43 z M 1520.88 1568.65 C 1532.79 1586.13 1549.83 1609.62 1560.53 1627.19 C 1539.33 1617.44 1515.02 1603.42 1494.54 1594.88 C 1491.4 1615.68 1487.09 1639.52 1483.03 1660.23 C 1472.88 1639.06 1465.48 1612.92 1455.62 1592.03 C 1439.29 1607.49 1412.95 1634.13 1396.34 1647.85 C 1402.62 1634.53 1409.68 1621.35 1415.81 1608.2 C 1345.09 1628.52 1188.87 1675.95 1151.51 1744.14 C 1145.24 1755.59 1143.02 1766.15 1142.13 1779.11 C 1146.19 1830.64 1226.04 1847.36 1266.55 1839.41 C 1302.73 1832.31 1341.65 1806.53 1374.07 1789.41 C 1391.43 1780.43 1409.33 1772.56 1427.69 1765.85 C 1458.93 1754.65 1490.83 1745.41 1523.22 1738.2 C 1615.84 1717.07 1774.09 1695.14 1830.43 1613.87 C 1847.28 1589.75 1853.72 1559.86 1848.29 1530.94 C 1837.54 1472.68 1780.99 1457.6 1729.26 1467.32 C 1652.46 1481.48 1589.72 1532.82 1520.88 1568.65 z"/>
<path transform="translate(0,0)" fill="rgb(62,190,221)" d="M 1729.26 1467.32 C 1780.99 1457.6 1837.54 1472.68 1848.29 1530.94 C 1853.72 1559.86 1847.28 1589.75 1830.43 1613.87 C 1774.09 1695.14 1615.84 1717.07 1523.22 1738.2 C 1490.83 1745.41 1458.93 1754.65 1427.69 1765.85 C 1409.33 1772.56 1391.43 1780.43 1374.07 1789.41 C 1341.65 1806.53 1302.73 1832.31 1266.55 1839.41 C 1226.04 1847.36 1146.19 1830.64 1142.13 1779.11 C 1143.02 1766.15 1145.24 1755.59 1151.51 1744.14 C 1188.87 1675.95 1345.09 1628.52 1415.81 1608.2 C 1409.68 1621.35 1402.62 1634.53 1396.34 1647.85 C 1412.95 1634.13 1439.29 1607.49 1455.62 1592.03 C 1465.48 1612.92 1472.88 1639.06 1483.03 1660.23 C 1487.09 1639.52 1491.4 1615.68 1494.54 1594.88 C 1515.02 1603.42 1539.33 1617.44 1560.53 1627.19 C 1549.83 1609.62 1532.79 1586.13 1520.88 1568.65 C 1589.72 1532.82 1652.46 1481.48 1729.26 1467.32 z M 1543.56 1707.99 C 1556.02 1707.96 1585.42 1701.2 1598.36 1697.91 C 1660.83 1682.41 1720.04 1655.89 1773.21 1619.6 C 1778.87 1615.76 1794.84 1604.84 1797.76 1599.92 L 1797.03 1599.23 C 1791.09 1601.68 1775.73 1613.22 1769.39 1617.59 C 1758.72 1624.92 1747.76 1631.83 1736.55 1638.29 C 1689.02 1665.32 1637.76 1685.18 1584.42 1697.25 C 1570.87 1700.27 1555.82 1702.28 1541.95 1704.86 L 1543.56 1707.99 z M 1249.19 1793.99 C 1237.9 1794.09 1234.6 1793.94 1223.78 1792.4 C 1217.33 1791.49 1197.61 1783.79 1194.8 1785.55 L 1195.15 1786.21 L 1196.53 1784.8 L 1195.52 1786.59 C 1212.29 1797.67 1230.65 1798.98 1250.16 1797.65 L 1249.19 1793.99 z"/>
<path transform="translate(0,0)" fill="rgb(239,250,249)" d="M 1249.19 1793.99 C 1270.08 1790.95 1280.26 1788.8 1299.94 1781.4 C 1325.96 1771.62 1408.35 1724.36 1433.53 1730.3 L 1433.68 1731.81 C 1429.1 1735.29 1414.45 1736.66 1408.15 1738.37 C 1355.61 1752.62 1305.71 1795.5 1250.16 1797.65 L 1249.19 1793.99 z"/>
<path transform="translate(0,0)" fill="rgb(239,250,249)" d="M 1543.56 1707.99 C 1539.05 1709.97 1519.73 1713.13 1515.61 1709.5 C 1518.64 1705.68 1536.36 1705.3 1541.95 1704.86 L 1543.56 1707.99 z"/>
<path transform="translate(0,0)" fill="rgb(254,181,45)" d="M 1790.71 1258.43 C 1782.51 1273.38 1770.92 1286.13 1762.32 1300.08 C 1784.48 1295.29 1798.74 1293.81 1821 1298.77 C 1802.85 1313.21 1796.11 1319.4 1780.76 1337.41 C 1798.58 1337.78 1813.3 1337.76 1830.88 1341.48 C 1820.77 1348.19 1802.32 1358.31 1794.24 1364.66 C 1816.8 1369.63 1838.57 1375.64 1857.32 1390.15 C 1833.54 1391.21 1809.76 1392.54 1786 1394.15 C 1777.25 1394.79 1762.09 1396.85 1754.22 1397.02 C 1751.45 1421.94 1741.95 1445.84 1729.26 1467.32 C 1652.46 1481.48 1589.72 1532.82 1520.88 1568.65 L 1515.93 1561.53 C 1533.43 1544.06 1549.55 1529.12 1569.26 1514.35 C 1545.07 1518.28 1516.5 1521.82 1492.09 1524.47 C 1489.65 1525.13 1489.66 1524.99 1487.1 1524.72 C 1484.28 1522.34 1484.42 1522.56 1483.5 1518.98 L 1484.4 1517.98 C 1481.98 1515.69 1482.6 1517.04 1482.26 1513.91 C 1480.71 1511.36 1479.67 1508.05 1478.62 1505.21 C 1488.2 1491.75 1497.94 1471.86 1509.86 1455.5 C 1569.17 1374.17 1624.75 1329.66 1712.57 1284.62 C 1742.14 1270.8 1762.59 1270.43 1790.71 1258.43 z"/>
<path transform="translate(0,0)" fill="rgb(127,229,252)" d="M 1492.09 1524.47 C 1495.18 1517.36 1512.22 1502.57 1518.16 1496.31 C 1580.17 1430.98 1666.95 1405.54 1754.22 1397.02 C 1751.45 1421.94 1741.95 1445.84 1729.26 1467.32 C 1652.46 1481.48 1589.72 1532.82 1520.88 1568.65 L 1515.93 1561.53 C 1533.43 1544.06 1549.55 1529.12 1569.26 1514.35 C 1545.07 1518.28 1516.5 1521.82 1492.09 1524.47 z"/>
<path transform="translate(0,0)" fill="rgb(0,0,0)" d="M 1482.26 1513.91 C 1511.09 1460.51 1545.95 1419.24 1596.29 1384.33 C 1605.4 1378.01 1617.14 1369.51 1627.56 1366.3 L 1628.76 1366.53 C 1626.76 1371.48 1601.16 1385.83 1593.51 1391.36 C 1582.21 1399.48 1571.41 1408.27 1561.16 1417.67 C 1534.1 1442.53 1511.56 1470.44 1493.55 1502.35 C 1491.05 1506.77 1487.34 1514.12 1484.4 1517.98 C 1481.98 1515.69 1482.6 1517.04 1482.26 1513.91 z"/>
<path transform="translate(0,0)" fill="rgb(0,0,0)" d="M 1703.09 1373.33 C 1706.35 1372.72 1708.24 1372.35 1710.71 1374.65 C 1708.73 1376.61 1667.9 1385 1661 1387.08 C 1628.33 1396.9 1600.51 1410.65 1571.94 1429.14 C 1569.33 1430.68 1570.72 1430.31 1567.56 1430.11 L 1566.84 1428.7 C 1568.79 1425.07 1582.23 1417.5 1586.12 1415.21 C 1622.65 1393.72 1661.4 1380.28 1703.09 1373.33 z"/>
<path transform="translate(0,0)" fill="rgb(0,0,0)" d="M 1715.23 1329.06 C 1717.24 1330.56 1716.62 1329.57 1717.06 1332.05 C 1714.66 1334.13 1657.93 1355.58 1649.29 1359.11 C 1648.07 1358.04 1648.67 1358.75 1647.79 1356.75 C 1652.11 1351.39 1704.16 1333.11 1715.23 1329.06 z"/>
<path transform="translate(0,0)" fill="rgb(0,0,0)" d="M 1762.74 1357.35 C 1766.18 1357.25 1764.81 1356.67 1767.12 1358.82 L 1766.37 1360.32 C 1760.04 1362.54 1750.17 1363.61 1743.24 1364.6 C 1742.87 1364.67 1740.85 1364.5 1740.39 1364.47 L 1739.13 1362.73 C 1741.62 1359.64 1757.67 1358.09 1762.74 1357.35 z"/>
<path transform="translate(0,0)" fill="rgb(221,65,64)" d="M 1455.85 1444.49 C 1463.38 1462.32 1471.59 1486.67 1478.62 1505.21 C 1479.67 1508.05 1480.71 1511.36 1482.26 1513.91 C 1482.6 1517.04 1481.98 1515.69 1484.4 1517.98 L 1483.5 1518.98 C 1484.42 1522.56 1484.28 1522.34 1487.1 1524.72 C 1489.66 1524.99 1489.65 1525.13 1492.09 1524.47 C 1516.5 1521.82 1545.07 1518.28 1569.26 1514.35 C 1549.55 1529.12 1533.43 1544.06 1515.93 1561.53 L 1520.88 1568.65 C 1532.79 1586.13 1549.83 1609.62 1560.53 1627.19 C 1539.33 1617.44 1515.02 1603.42 1494.54 1594.88 C 1491.4 1615.68 1487.09 1639.52 1483.03 1660.23 C 1472.88 1639.06 1465.48 1612.92 1455.62 1592.03 C 1439.29 1607.49 1412.95 1634.13 1396.34 1647.85 C 1402.62 1634.53 1409.68 1621.35 1415.81 1608.2 C 1421.26 1597.72 1426.53 1587.16 1431.62 1576.5 C 1409.96 1563.44 1384.42 1548.4 1363.86 1534.08 C 1382.42 1538.41 1412.05 1541.31 1431.34 1543.25 C 1417.96 1524.73 1401.65 1506.82 1388.11 1487.69 C 1403.37 1496.45 1425.7 1512.25 1440.87 1522.28 L 1455.85 1444.49 z"/>
<path transform="translate(0,0)" fill="rgb(0,0,0)" d="M 1467.45 1539.16 C 1471.68 1539.4 1474.47 1539.66 1478.4 1541.44 C 1483.81 1543.87 1487.97 1548.44 1489.89 1554.06 C 1491.79 1559.65 1491.18 1565.78 1488.21 1570.88 C 1484.27 1577.71 1479.06 1579.84 1471.91 1581.79 C 1462.2 1580.86 1453.43 1579.4 1449.8 1569.19 C 1444.3 1553.69 1454.09 1543.6 1467.45 1539.16 z"/>
<path transform="translate(0,0)" fill="rgb(221,65,64)" d="M 656.629 605.16 C 658.352 602.549 659.248 600.032 661.565 599.216 C 668.898 603.371 682.069 615.878 689.012 622.031 C 738.016 665.464 784.409 669.035 846.753 676.596 C 893.149 682.52 939.717 687.019 986.389 690.086 C 988.725 698.719 990.146 706.343 990.203 715.378 C 1006.82 697.913 1023.97 688.607 1048.85 691.376 C 1069.82 700.102 1075.96 716.186 1087.34 734.572 C 1096.4 749.206 1105.83 763.602 1115.63 777.746 C 1139.62 811.744 1163.22 837.124 1187.26 869.075 C 1194.2 881.798 1199.17 891.779 1195.22 907.124 C 1191.38 922.05 1175.52 936.255 1161.97 943.107 C 1135.53 956.484 1093.79 964.782 1064.88 955.505 C 1056.4 952.786 1049.72 949.24 1042.77 943.792 C 1036.64 938.642 1031.73 932.494 1026.88 926.199 C 1017.66 912.974 1012.02 899.513 1006.01 884.724 L 997.991 864.328 C 900.208 923.475 771.086 929.216 660.872 912.651 C 651.909 911.304 648.856 900.969 645.719 893.635 C 641.292 874.976 641.432 867.913 642.98 848.508 C 643.242 846.483 643.855 844.007 644.289 841.967 C 646.188 840.796 675.691 841.858 680.663 841.861 C 700.339 841.833 720.01 841.203 739.647 839.97 C 789.469 836.921 849.101 831.355 895.778 814.331 C 907.527 809.939 919.138 805.189 930.596 800.087 C 937.014 797.17 965.922 782.368 970.136 781.848 C 972.643 778.804 972.79 779.893 972.639 777.322 C 969.263 775.977 959.312 777.149 954.189 777.157 C 941.019 778.391 921.663 777.938 908.398 777.637 C 806.568 775.326 701.514 746.59 629.512 670.374 C 632.738 663.205 637.325 656.181 639.678 648.745 C 644.836 641.588 654.255 614.874 657.629 605.767 L 656.629 605.16 z"/>
<path transform="translate(0,0)" fill="rgb(0,0,0)" d="M 997.991 864.328 C 1011.79 853.257 1025.16 841.647 1038.05 829.526 C 1042.88 824.956 1050.67 814.025 1056.51 813.388 C 1071.73 827.632 1033.15 854.197 1024.99 866.23 C 1021.29 871.691 1012.45 875.326 1006.01 884.724 L 997.991 864.328 z"/>
<path transform="translate(0,0)" fill="rgb(0,0,0)" d="M 974.875 776.506 C 983.162 768.667 989.048 762.602 996.78 754.276 C 1002.39 748.236 1012.59 732.705 1016.94 730.001 L 1018.44 730.361 C 1017.94 739.287 982.041 778.641 973.476 782.241 L 970.136 781.848 C 972.643 778.804 972.79 779.893 972.639 777.322 C 969.263 775.977 959.312 777.149 954.189 777.157 C 957.498 768.378 959.848 763.614 963.589 755.53 C 966.138 750.023 965.815 736.9 971.177 730.253 L 972.376 730.716 C 974.599 738.621 975.345 768.014 974.875 776.506 z"/>
<path transform="translate(0,0)" fill="rgb(62,190,221)" d="M 1474.52 530.947 C 1475.92 526.621 1477.49 521.739 1479.29 517.597 C 1490.32 492.498 1510.93 472.855 1536.54 463.043 C 1563.62 452.63 1593.74 453.509 1620.17 465.484 C 1642.44 475.618 1663.58 496.329 1672.29 519.395 C 1681.82 521.103 1686.71 522.312 1695.18 527.167 C 1717.14 539.75 1727.18 568.256 1708.18 588.123 C 1697.4 599.397 1683.72 603.734 1669.06 607.508 C 1662.37 627.571 1641.32 646.217 1622.78 655.38 C 1597.18 667.828 1567.68 669.583 1540.78 660.258 C 1518.77 652.628 1494.87 634.676 1484.69 613.449 C 1484.3 612.623 1483.92 611.79 1483.56 610.949 C 1460.02 604.146 1405.39 594.193 1425.44 556.453 C 1433.08 542.073 1459.62 534.487 1474.52 530.947 z M 1472.57 539.529 C 1458.38 544.361 1439.07 549.183 1431.75 563.58 C 1420.22 586.261 1463.27 597.614 1478.39 600.909 C 1469.25 582.963 1469.06 558.955 1472.57 539.529 z M 1674.16 597.607 C 1695.14 590.404 1719.53 576.306 1705.54 548.888 C 1700.09 538.203 1686.93 531.519 1675.62 528.275 C 1683.07 551.846 1683.07 574.44 1674.16 597.607 z"/>
<path transform="translate(0,0)" fill="rgb(62,190,221)" d="M 1483.56 610.949 C 1552.05 622.697 1601.44 620.355 1669.06 607.508 C 1662.37 627.571 1641.32 646.217 1622.78 655.38 C 1597.18 667.828 1567.68 669.583 1540.78 660.258 C 1518.77 652.628 1494.87 634.676 1484.69 613.449 C 1484.3 612.623 1483.92 611.79 1483.56 610.949 z"/>
<path transform="translate(0,0)" fill="rgb(64,91,218)" d="M 1569.07 633.786 C 1584.05 637.081 1583.96 648.863 1571.87 656.036 C 1558.02 655.495 1556.53 640.511 1569.07 633.786 z"/>
<path transform="translate(0,0)" fill="rgb(221,65,64)" d="M 1672.29 519.395 C 1681.82 521.103 1686.71 522.312 1695.18 527.167 C 1717.14 539.75 1727.18 568.256 1708.18 588.123 C 1697.4 599.397 1683.72 603.734 1669.06 607.508 C 1601.44 620.355 1552.05 622.697 1483.56 610.949 C 1460.02 604.146 1405.39 594.193 1425.44 556.453 C 1433.08 542.073 1459.62 534.487 1474.52 530.947 L 1472.57 539.529 C 1458.38 544.361 1439.07 549.183 1431.75 563.58 C 1420.22 586.261 1463.27 597.614 1478.39 600.909 C 1541.61 615.456 1611.22 611.844 1674.16 597.607 C 1695.14 590.404 1719.53 576.306 1705.54 548.888 C 1700.09 538.203 1686.93 531.519 1675.62 528.275 L 1672.29 519.395 z"/>
<path transform="translate(0,0)" fill="rgb(64,91,218)" d="M 1641.8 559.852 C 1648.3 558.429 1654.74 562.483 1656.27 568.959 C 1657.8 575.435 1653.85 581.94 1647.4 583.571 C 1643.13 584.65 1638.61 583.345 1635.58 580.157 C 1632.55 576.969 1631.47 572.394 1632.76 568.186 C 1634.05 563.979 1637.5 560.793 1641.8 559.852 z"/>
<path transform="translate(0,0)" fill="rgb(64,91,218)" d="M 1514.98 533.829 C 1531.36 533.341 1533.83 547.186 1520.19 556.112 C 1502.26 556.429 1502.69 543.991 1514.98 533.829 z"/>
<path transform="translate(0,0)" fill="rgb(64,91,218)" d="M 1553.45 517.401 C 1557.52 516.056 1561.92 518.239 1563.31 522.297 C 1564.7 526.354 1562.56 530.773 1558.52 532.207 C 1555.86 533.149 1552.91 532.592 1550.78 530.748 C 1548.65 528.904 1547.68 526.059 1548.23 523.297 C 1548.78 520.535 1550.77 518.284 1553.45 517.401 z"/>
<path transform="translate(0,0)" fill="rgb(64,91,218)" d="M 1532.16 499.57 C 1535.25 497.963 1539.05 499.1 1540.75 502.137 C 1542.45 505.174 1541.43 509.011 1538.44 510.802 C 1536.43 512.01 1533.92 512.027 1531.89 510.847 C 1529.86 509.666 1528.64 507.476 1528.69 505.13 C 1528.75 502.784 1530.08 500.653 1532.16 499.57 z"/>
<path transform="translate(0,0)" fill="rgb(64,91,218)" d="M 651.663 317.349 C 701.172 310.199 747.102 344.544 754.242 394.055 C 761.382 443.565 727.028 489.488 677.515 496.618 C 628.018 503.746 582.111 469.404 574.973 419.907 C 567.835 370.411 602.168 324.498 651.663 317.349 z M 713.684 441.719 C 726.471 433.163 732.513 421.643 735.795 406.917 C 737.61 398.774 737.349 389.83 727.916 387.484 C 727.026 388.389 725.921 389.511 724.603 390.851 C 722.067 400.958 723.194 411.397 717.998 421.196 C 715.075 426.709 709.711 427.648 707.176 433.543 C 707.633 439.4 708.367 439.356 713.684 441.719 z M 666.76 427.634 C 657.089 439.913 651.247 451.502 652.987 467.491 C 653.779 474.768 656.843 479.691 664.091 481.271 C 672.99 471.641 661.702 460.686 666.963 448.658 C 670.231 441.186 680.412 435.542 672.303 428.565 C 669.985 428.077 669.114 427.863 666.76 427.634 z M 636.653 410.65 C 638.567 407.227 639.723 406.046 639.148 402.209 C 635.915 397.683 605.121 387.74 598.471 380.806 C 598.147 380.467 594.498 380.614 593.628 380.663 C 591.244 385.026 591.394 383.384 591.586 387.892 C 597.742 399.214 624.555 411.086 636.653 410.65 z M 691.166 363.118 C 694.053 360.065 698.816 354.187 693.245 350.833 C 686.379 346.7 675.659 347.217 667.993 345.052 C 664.018 343.931 657.585 338.258 653.064 336.487 C 649.559 338.76 649.141 338.802 647.644 342.487 C 649.09 357.189 679.959 359.547 691.166 363.118 z M 679.868 394.11 C 688.974 393.535 699.626 398.762 705.827 394.125 L 706.94 391.321 C 702.67 382.238 689.601 380.767 680.766 381.187 C 672.764 383.353 659.591 387.847 658.285 397.259 C 662.996 404.936 674.621 396.474 679.868 394.11 z M 625.492 466.546 C 633.067 452.186 616.624 427.866 600.719 427.783 C 598.382 432.262 598.176 431.11 598.343 435.52 C 601.909 440.906 608.748 444.372 611.675 448.703 C 617.608 457.484 611.278 465.638 625.492 466.546 z"/>
<path transform="translate(0,0)" fill="rgb(0,0,0)" d="M 935.41 605.693 C 921.8 602.088 915.657 594.061 920.11 579.485 C 922.345 572.183 927.512 566.138 934.376 562.793 C 947.198 556.469 962.26 561.909 975.887 560.992 C 983.349 560.529 992.577 555.671 1000.04 557.131 C 1005.14 558.13 1010.29 562.51 1015.67 564.294 C 1021.99 566.378 1024.83 568.129 1030.64 571.365 C 1057.75 574.547 1085.65 563.66 1109.03 576.747 C 1184.77 619.15 1134.05 746.809 1043.36 679.103 L 1048.85 691.376 C 1023.97 688.607 1006.82 697.913 990.203 715.378 C 990.146 706.343 988.725 698.719 986.389 690.086 L 981.117 679.334 C 980.647 678.887 977.107 673.224 976.527 672.315 C 962.329 673.863 950.801 665.521 942.694 654.126 C 940.734 651.371 940.894 648.76 941.848 645.601 C 944.467 644.757 946.71 644.279 949.375 643.68 L 946.755 642.597 C 940.866 645.319 923.814 646.051 918.168 641.82 C 909.877 635.606 905.982 620.29 912.362 611.673 C 916.27 606.396 929.053 606.396 935.41 605.693 z"/>
<path transform="translate(0,0)" fill="rgb(0,0,0)" d="M 935.41 605.693 C 921.8 602.088 915.657 594.061 920.11 579.485 C 922.345 572.183 927.512 566.138 934.376 562.793 C 947.198 556.469 962.26 561.909 975.887 560.992 C 983.349 560.529 992.577 555.671 1000.04 557.131 C 1005.14 558.13 1010.29 562.51 1015.67 564.294 C 1021.99 566.378 1024.83 568.129 1030.64 571.365 C 1014.88 585.783 1005.83 604.748 987.322 616.074 C 984.183 617.995 979.73 620.216 976.986 622.118 C 970.822 623.957 964.834 626.233 958.723 628.246 C 959.113 632.024 959.772 634.353 958.22 637.783 C 953.815 642.115 952.682 641.192 949.375 643.68 L 946.755 642.597 C 940.866 645.319 923.814 646.051 918.168 641.82 C 909.877 635.606 905.982 620.29 912.362 611.673 C 916.27 606.396 929.053 606.396 935.41 605.693 z"/>
<path transform="translate(0,0)" fill="rgb(221,65,64)" d="M 1015.67 564.294 C 1021.99 566.378 1024.83 568.129 1030.64 571.365 C 1014.88 585.783 1005.83 604.748 987.322 616.074 C 984.183 617.995 979.73 620.216 976.986 622.118 C 970.822 623.957 964.834 626.233 958.723 628.246 L 955.863 612.886 C 961.672 611.934 965.209 611.723 969.99 608.385 C 970.308 608.422 970.621 608.508 971.332 608.184 C 990.386 599.491 1005.94 581.422 1015.67 564.294 z"/>
<path transform="translate(0,0)" fill="rgb(64,91,218)" d="M 935.41 605.693 C 945.248 609.186 946.726 633.667 946.755 642.597 C 940.866 645.319 923.814 646.051 918.168 641.82 C 909.877 635.606 905.982 620.29 912.362 611.673 C 916.27 606.396 929.053 606.396 935.41 605.693 z"/>
<path transform="translate(0,0)" fill="rgb(245,182,130)" d="M 955.863 612.886 C 952.816 605.142 952.294 609.828 949.532 604.19 C 957.876 602.397 963.105 603.693 969.99 608.385 C 965.209 611.723 961.672 611.934 955.863 612.886 z"/>
<path transform="translate(0,0)" fill="rgb(245,182,130)" d="M 958.723 628.246 C 964.834 626.233 970.822 623.957 976.986 622.118 C 989.319 640.168 1003.99 635.152 1019.81 643.96 C 1022.57 645.497 1031.84 664.842 1034.6 668.792 C 1037.18 672.472 1040.13 675.644 1043.36 679.103 L 1048.85 691.376 C 1023.97 688.607 1006.82 697.913 990.203 715.378 C 990.146 706.343 988.725 698.719 986.389 690.086 L 981.117 679.334 C 980.647 678.887 977.107 673.224 976.527 672.315 C 962.329 673.863 950.801 665.521 942.694 654.126 C 940.734 651.371 940.894 648.76 941.848 645.601 C 944.467 644.757 946.71 644.279 949.375 643.68 C 952.682 641.192 953.815 642.115 958.22 637.783 C 959.772 634.353 959.113 632.024 958.723 628.246 z"/>
<path transform="translate(0,0)" fill="rgb(0,0,0)" d="M 976.527 672.315 C 980.059 669.51 982.564 666.823 986.876 666.139 L 988.754 667.147 C 989.216 672.317 984.528 675.971 981.117 679.334 C 980.647 678.887 977.107 673.224 976.527 672.315 z"/>
<path transform="translate(0,0)" fill="rgb(127,229,252)" d="M 744.686 1164.42 C 791.935 1162.98 807.715 1190.25 778.178 1227.92 C 751.906 1261.36 708.555 1266.92 673.631 1287.49 C 629.44 1313.51 590.314 1350.68 542.015 1369.46 C 532.038 1373.34 522.266 1374.92 511.7 1376.04 C 497.976 1376.36 480.404 1374.95 470.36 1365.79 C 443.005 1340.84 474.577 1311.53 497.892 1301.65 C 525.771 1289.84 550.089 1286.43 577.982 1279.65 C 626.044 1267.96 655.327 1229.34 685.396 1193.57 C 701.469 1174.42 719.691 1166.01 744.686 1164.42 z"/>
<path transform="translate(0,0)" fill="rgb(254,181,45)" d="M 311.291 1258.83 C 312.86 1248.52 316.822 1233.39 319.954 1223.15 C 361.562 1087.13 468.188 996.674 589.118 930.995 C 579.785 941.504 561.239 962.784 555.868 975.516 C 570.031 970.061 585.35 962.127 599.659 957.778 C 591.57 971.065 580.046 982.144 572.754 994.323 C 586.753 991.069 600.693 987.513 615.112 987.013 C 605.929 998.106 591.879 1009.06 580.209 1017.51 C 598.724 1015.89 615.969 1014.99 634.493 1016.81 C 628.902 1019.66 614.704 1024.41 607.802 1027.08 C 591.968 1033.35 576.312 1040.06 560.852 1047.19 C 484.839 1082.88 415.063 1131.06 362.824 1197.87 C 350.305 1213.89 338.686 1234.38 328.568 1251.91 C 322.789 1254.16 316.979 1256.36 311.291 1258.83 z"/>
<path transform="translate(0,0)" fill="rgb(0,0,0)" d="M 440.847 1063.61 C 442.667 1064.11 441.707 1063.66 443.549 1065.27 C 442.952 1068.21 430.037 1080.68 426.738 1084.17 C 398.38 1114.17 375.025 1146.56 352.971 1181.38 C 350.925 1180.75 351.666 1181.13 350.098 1179.53 C 350.925 1175.97 357.336 1166.53 359.648 1162.97 C 383.153 1127.09 410.37 1093.79 440.847 1063.61 z"/>
<path transform="translate(0,0)" fill="rgb(0,0,0)" d="M 541.244 983.741 C 542.499 984.135 542.377 984.323 543.478 985.331 C 542.504 987.978 477.389 1030.78 471.177 1040.88 C 470.941 1041.26 460.914 1050.57 459.747 1051.68 L 457.855 1051.16 L 457.224 1049.53 C 463.192 1035.71 525.911 993.166 541.244 983.741 z"/>
<path transform="translate(0,0)" fill="rgb(0,0,0)" d="M 460.907 1080.73 C 462.781 1081.25 462.173 1081.13 463.804 1082.56 C 462.656 1085.04 454.575 1090.25 451.877 1092.15 C 437.363 1102.35 424.873 1113.72 412.732 1126.64 C 411.236 1126.57 412.073 1126.78 410.387 1125.55 L 410.775 1123.1 C 420.865 1109.26 446.492 1090.41 460.907 1080.73 z"/>
<path transform="translate(0,0)" fill="rgb(0,0,0)" d="M 509.392 1050.83 C 510.192 1051.06 510.731 1051.65 511.474 1052.23 L 511.07 1053.99 C 506.19 1057.75 492.116 1064.87 485.218 1069.18 L 483.209 1068.54 L 482.724 1066.83 C 486.46 1061.77 503.029 1054.07 509.392 1050.83 z"/>
<path transform="translate(0,0)" fill="rgb(254,181,45)" d="M 1188.68 430.308 C 1207.69 356.632 1301.12 261.718 1367.08 223.481 C 1398.45 205.299 1424.65 194.471 1458.53 182.709 C 1451.47 196.509 1439.41 214.245 1430.79 227.52 C 1452.47 226.566 1476.26 226.496 1497.38 232.167 C 1480.32 245.043 1470.37 249.892 1455.09 266.413 C 1473.99 269.943 1500.11 278.001 1515.6 289.667 C 1391.62 298.389 1290.62 333.12 1207.48 428.506 C 1206.02 430.205 1204.6 431.941 1203.22 433.713 C 1199.31 435.131 1195.23 437.127 1191.22 436.675 C 1188.58 434.109 1189.41 434.806 1188.68 430.308 z"/>
<path transform="translate(0,0)" fill="rgb(0,0,0)" d="M 1345.5 268.785 L 1346.85 271 C 1345.86 274.342 1338.87 278.344 1335.67 280.457 C 1317.52 292.342 1300.45 305.779 1284.62 320.616 C 1259.66 343.648 1237.47 369.517 1218.5 397.697 C 1210.9 409.067 1203.93 423.628 1195.97 433.984 C 1191.66 428.07 1203.98 412.876 1207.83 406.612 C 1242.74 350.874 1289.8 303.756 1345.5 268.785 z"/>
<path transform="translate(0,0)" fill="rgb(0,0,0)" d="M 1376.6 289.892 L 1378.44 290.395 L 1378.97 292.242 C 1376.02 295.44 1365.27 299.35 1360.9 301.184 C 1332.3 313.181 1306.9 330.741 1283.1 350.289 C 1281.62 349.859 1281.71 349.656 1280.39 348.643 L 1281.11 346.636 C 1310.17 320.954 1341.17 304.543 1376.6 289.892 z"/>
<path transform="translate(0,0)" fill="rgb(0,0,0)" d="M 1427.07 234.147 C 1428.5 235.052 1427.82 234.39 1428.72 236.453 C 1426.1 240.083 1410.19 243.305 1404.19 245.656 C 1388.62 251.807 1373.45 258.939 1358.79 267.011 L 1357.25 265.562 L 1357.58 263.582 C 1368.69 253.665 1411.2 238.837 1427.07 234.147 z"/>
<path transform="translate(0,0)" fill="rgb(0,0,0)" d="M 1448.93 267.335 L 1450.23 268.103 L 1450.28 269.866 C 1447.56 271.893 1416.96 279.388 1410.24 281.649 L 1408.77 280.612 L 1408.88 278.738 C 1415.7 273.635 1439.98 268.9 1448.93 267.335 z"/>
<path transform="translate(0,0)" fill="rgb(62,190,221)" d="M 985.451 1056.06 C 978.551 1059.35 969.854 1061.64 962.563 1064.57 C 956.64 1066.95 951.542 1069.28 945.661 1071.87 C 919.356 1083.46 896.558 1110.17 865.511 1106.53 C 854.348 1105.23 841.312 1096.16 834.725 1086.54 C 796.738 1008.53 918.331 1010.43 958.572 983.26 C 978.748 969.637 985.921 964.356 1001.72 948.847 C 1010.27 940.459 1018.64 931.931 1026.88 926.199 C 1031.73 932.494 1036.64 938.642 1042.77 943.792 C 1030.65 967.107 1018.7 990.507 1006.92 1013.99 C 1001.16 1025.48 991.836 1045.59 985.451 1056.06 z"/>
<path transform="translate(0,0)" fill="rgb(221,65,64)" d="M 289.124 1189.17 C 292.587 1199.63 306.028 1254.76 309.242 1259.04 L 311.291 1258.83 C 316.979 1256.36 322.789 1254.16 328.568 1251.91 C 346.085 1245.19 365.568 1237.21 383.152 1231.18 C 371.702 1248.92 354.293 1274.98 341.489 1291.56 C 363.494 1308.39 388.48 1327.81 409.711 1345.52 C 380.285 1337.73 350.383 1330.43 320.832 1323.02 C 324.321 1355.23 327.612 1387.79 331.475 1419.94 L 289.372 1335.3 C 267.423 1357.82 246.216 1381.82 224.384 1404.68 L 245.677 1346.3 C 249.085 1336.92 254.66 1322.8 257.208 1313.62 L 191.841 1288.44 C 209.939 1286.3 230.251 1284.35 248.085 1281.7 C 237.429 1264.15 227.009 1246.45 216.827 1228.61 C 236.834 1239.01 255.662 1251.87 274.856 1261.94 C 279.613 1237.96 284.844 1213.17 289.124 1189.17 z"/>
<path transform="translate(0,0)" fill="rgb(0,0,0)" d="M 292.448 1268.11 C 326.693 1265.25 337.955 1296.6 311.746 1317.56 C 306.749 1321.56 301.677 1323.9 295.887 1326.61 L 295.062 1326.79 C 257.302 1335.17 249.05 1282.72 292.448 1268.11 z"/>
<path transform="translate(0,0)" fill="rgb(221,65,64)" d="M 291.321 1285.01 C 308.19 1286.28 308.069 1301.24 293.128 1308.47 C 273.34 1307.55 276.663 1291.87 291.321 1285.01 z"/>
<path transform="translate(0,0)" fill="rgb(127,229,252)" d="M 707.562 1032.29 C 722.784 1030.85 732.674 1030.73 734.467 1049.33 C 735.384 1058.86 730.392 1068.8 723.924 1075.54 C 701.1 1099.32 665.673 1104.29 636.337 1116.46 C 609.829 1127.68 599.288 1140.35 568.962 1141.57 C 563.07 1140.71 556.741 1139.61 551.474 1136.77 C 545.844 1133.78 541.707 1128.59 540.044 1122.43 C 529.66 1085.01 614.191 1079.77 635.432 1069.76 C 661.367 1057.54 679.018 1039.28 707.562 1032.29 z"/>
<path transform="translate(0,0)" fill="rgb(245,182,130)" d="M 554.152 839.529 C 552.37 838.831 550.604 838.093 548.855 837.318 C 543.286 834.873 537.943 833.121 535.695 827.406 C 536.023 823.218 535.303 824.99 537.639 821.787 C 540.487 820.698 541.955 820.087 545.054 821.326 C 577.287 834.215 608.59 843.104 642.98 848.508 C 641.432 867.913 641.292 874.976 645.719 893.635 C 637.988 892.39 629.212 887.793 621.865 887.204 C 613.948 886.569 604.648 891.243 595.984 892.081 C 581.195 893.512 566.238 885.496 552.153 890.187 C 543.96 892.915 533.489 904.364 525.082 905.614 C 521.297 904.056 522.161 904.023 519.243 900.297 C 515.437 899.708 513.346 899.827 511.017 897.366 C 511.47 887.632 528.141 881.304 533.943 874.52 C 526.721 878.069 513.99 887.307 506.935 883.042 L 506.384 880.743 C 510.115 871.539 536.262 861.018 546.657 855.946 C 533.317 858.767 522.231 865.865 509.058 866.819 C 507.743 866.914 507.124 865.545 506.288 864.532 C 505.593 852.928 544.085 842.316 554.152 839.529 z"/>
<path transform="translate(0,0)" fill="rgb(240,196,154)" d="M 550.583 865.943 L 552.309 866.13 C 549.861 868.968 544.918 870.825 541.255 872.634 L 539.562 872.983 L 539.363 871.65 C 543.712 868.265 545.508 867.866 550.583 865.943 z"/>
<path transform="translate(0,0)" fill="rgb(221,65,64)" d="M 1172.92 373.316 C 1178.58 391.928 1182.75 411.668 1188.68 430.308 C 1189.41 434.806 1188.58 434.109 1191.22 436.675 C 1195.23 437.127 1199.31 435.131 1203.22 433.713 C 1217.33 429.419 1231.87 424.791 1246.08 421.021 C 1236.73 433.58 1220.37 452.644 1209.99 464.611 C 1218.44 481.603 1228.8 498.951 1236.56 516.096 L 1185.1 491.851 C 1180.38 503.935 1169.48 524.01 1163.25 535.741 C 1162.39 519.422 1161.26 503.12 1159.84 486.84 C 1142.94 487.027 1124.44 486.308 1107.43 485.977 C 1122.07 478.393 1137.14 469.707 1151.95 461.88 L 1115.03 423.529 C 1130.94 428.771 1147.98 435.138 1163.61 441.183 C 1167.35 422.606 1170.49 392.634 1172.92 373.316 z"/>
<path transform="translate(0,0)" fill="rgb(0,0,0)" d="M 1178.12 449.047 C 1187.24 448.553 1193.28 449.934 1197.01 459.4 C 1199.02 464.389 1198.81 469.995 1196.44 474.821 C 1193.83 480.054 1191.24 481.283 1185.98 482.962 C 1163.58 480.843 1158.59 460.811 1178.12 449.047 z"/>
<path transform="translate(0,0)" fill="rgb(221,65,64)" d="M 1554.35 816.868 C 1554.59 810.3 1563.04 805.329 1567.25 800.557 C 1579.15 787.097 1596.85 796.818 1610.71 800.859 C 1631.58 806.942 1693.57 829.277 1697.65 853.014 C 1692.01 868.962 1620.88 851.828 1605.85 858.575 C 1602.1 860.262 1600.6 861.068 1597.26 863.411 C 1586.81 850.136 1572.58 840.586 1562.33 827.075 C 1559.73 823.641 1557.03 820.25 1554.35 816.868 z"/>
<path transform="translate(0,0)" fill="rgb(127,229,252)" d="M 1366.63 756.224 C 1429.27 750.134 1423.75 834.901 1371.57 843.803 C 1314.38 848.623 1308.47 766.653 1366.63 756.224 z"/>
<path transform="translate(0,0)" fill="rgb(245,182,130)" d="M 582.474 563.758 C 574.687 560.775 542.883 555.547 546.297 546.033 C 553.532 542.28 564.656 545.755 572.27 547.088 C 610.836 553.837 632.401 576.226 656.629 605.16 L 657.629 605.767 C 654.255 614.874 644.836 641.588 639.678 648.745 C 635.959 644.866 631.626 638.536 627.569 635.349 C 617.44 627.393 608.875 626.574 597.604 618.859 C 587.904 612.219 583.474 602.629 576.603 599.287 C 568.796 595.489 546.465 595.417 541.101 587.058 L 541.919 584.987 C 547.217 582.748 550.72 585.456 555.921 583.838 C 550.439 580.061 540.174 583.954 535.996 576.605 C 536.538 573.331 537.344 573.106 539.791 570.779 C 551.237 572.325 562.713 573.638 574.213 574.715 C 561.348 570.309 553.281 570.305 539.809 569.403 C 537.561 567.235 536.434 566.586 535.776 563.543 C 539.009 554.492 573.439 562.885 582.474 563.758 z"/>
<path transform="translate(0,0)" fill="rgb(239,250,249)" d="M 555.921 583.838 C 560.829 582.883 577.121 583.58 580.688 586.877 C 574.242 588.166 561.639 586.997 555.921 583.838 z"/>
<path transform="translate(0,0)" fill="rgb(62,190,221)" d="M 981.317 313.627 C 1004.1 308.791 1026.47 323.392 1031.21 346.191 C 1035.95 368.99 1021.26 391.301 998.441 395.949 C 975.755 400.571 953.602 385.982 948.887 363.315 C 944.172 340.648 958.67 318.435 981.317 313.627 z"/>
<path transform="translate(0,0)" fill="rgb(127,229,252)" d="M 397.966 714.13 C 408.98 713.582 416.233 712.66 426.046 719.332 C 434.199 724.875 439.274 734.334 440.894 743.958 C 442.693 754.49 440.195 765.304 433.957 773.979 C 426.465 784.394 418.189 787.885 406.311 790.059 C 350.34 791.148 342.961 730.371 397.966 714.13 z"/>
<path transform="translate(0,0)" fill="rgb(62,190,221)" d="M 578.618 1173.15 C 585.861 1172.39 591.65 1172.08 598.522 1175.28 C 611.922 1181.53 621.531 1200.02 613.703 1213.86 C 609.042 1222.1 601.386 1224.76 592.743 1227.17 C 543.216 1234.28 541.626 1185.67 578.618 1173.15 z"/>
<path transform="translate(0,0)" fill="rgb(64,91,218)" d="M 1367.68 1290.17 C 1403.59 1288.45 1412.48 1329.75 1376.22 1343.22 C 1343.38 1350.45 1327 1299.77 1367.68 1290.17 z"/>
<path transform="translate(0,0)" fill="rgb(62,190,221)" d="M 1337.77 692.154 C 1375.54 691.184 1377.59 730.519 1346.53 743.137 C 1321.46 747.765 1308.83 724.639 1319.88 703.101 C 1323.6 695.853 1330.34 693.921 1337.77 692.154 z"/>
<path transform="translate(0,0)" fill="rgb(62,190,221)" d="M 303.855 760.258 C 314.57 759.991 325.428 764.94 328.479 775.947 C 330.104 781.921 329.194 788.301 325.963 793.582 C 320.981 801.751 315.075 803.85 306.563 806.117 C 294.305 806.041 281.928 802.948 279.423 788.79 C 278.346 782.628 279.798 776.292 283.452 771.214 C 289.044 763.465 295.183 761.907 303.855 760.258 z"/>
<path transform="translate(0,0)" fill="rgb(127,229,252)" d="M 903.219 365.243 C 906.102 365.213 911.96 365.971 915.056 366.274 C 935.23 378.768 930.251 398.839 909.209 406.908 C 879.957 411.522 872.608 369.671 903.219 365.243 z"/>
<path transform="translate(0,0)" fill="rgb(64,91,218)" d="M 1423.27 713.168 C 1455.86 710.829 1456.19 735.827 1433.05 747.52 C 1408.29 752.647 1396.68 723.955 1423.27 713.168 z"/>
<path transform="translate(0,0)" fill="rgb(64,91,218)" d="M 513.429 1229.45 C 521.54 1227.42 529.817 1232.12 532.22 1240.13 C 534.623 1248.14 530.302 1256.62 522.411 1259.39 C 516.975 1261.3 510.932 1260.06 506.68 1256.17 C 502.429 1252.29 500.656 1246.38 502.066 1240.8 C 503.477 1235.21 507.842 1230.85 513.429 1229.45 z"/>
<path transform="translate(0,0)" fill="rgb(62,190,221)" d="M 347.371 827.195 C 352.557 826.857 357.088 830.665 357.647 835.832 C 358.206 840.999 354.594 845.689 349.455 846.468 C 345.931 847.001 342.397 845.56 340.253 842.712 C 338.108 839.865 337.698 836.071 339.184 832.831 C 340.67 829.591 343.813 827.427 347.371 827.195 z"/>
<path transform="translate(0,0)" fill="rgb(240,196,154)" fill-opacity="0.0941176" d="M 539.809 569.403 C 553.281 570.305 561.348 570.309 574.213 574.715 C 562.713 573.638 551.237 572.325 539.791 570.779 L 539.809 569.403 z"/>
</svg>