<svg version="1.1" xmlns="http://www.w3.org/2000/svg" style="display: block;" viewBox="0 0 2048 2048" width="2000" height="2000" preserveAspectRatio="none">
<path transform="translate(0,0)" fill="rgb(27,35,109)" d="M 1014.33 538.062 L 1015.74 537.126 C 1023.21 532.088 1033.35 522.866 1041.27 517.021 C 1058.75 504.387 1076.87 492.664 1095.56 481.9 C 1146.61 452.773 1205.06 432.302 1263.1 423.637 C 1424.47 399.545 1607 441.371 1703.39 582.695 C 1790.94 713.252 1823.15 873.195 1792.97 1027.46 C 1788.57 1050.43 1767.11 1137.5 1751.47 1152.25 C 1750.9 1158.66 1749.54 1172.59 1748.18 1178.44 C 1740.18 1212.67 1716.02 1261.85 1694.02 1289.77 C 1687.48 1290.58 1680.96 1291.52 1674.45 1292.57 C 1676.98 1297.96 1677.7 1301.07 1677.97 1307.11 L 1679.6 1308.56 C 1678.47 1311.74 1673.13 1316.9 1670.6 1319.74 C 1651.44 1341.28 1615.91 1368.55 1587.14 1375.18 C 1587.22 1386.34 1575.84 1396.83 1565.98 1400.5 L 1562.85 1399.85 C 1553.05 1424.98 1542.96 1470.04 1540.77 1496.98 C 1534.03 1496.82 1529.45 1496.71 1522.72 1497.31 C 1518.36 1482.19 1513.14 1467.32 1507.1 1452.79 C 1488.72 1465.76 1470.59 1479.48 1451.79 1491.82 C 1449.12 1493.56 1435.61 1501.05 1434.93 1502.34 C 1424.05 1507.36 1414.12 1516.53 1404.33 1523 C 1383.86 1536.53 1296.36 1584.46 1276.6 1584.68 C 1273.01 1608.7 1271.58 1646.04 1267.06 1668.12 C 1266.57 1678.58 1264.79 1690.37 1263.46 1700.87 L 1261.74 1715.48 C 1286.35 1705.13 1406.71 1735.4 1325.34 1766.34 C 1312.07 1771.39 1290.07 1769.35 1276.02 1770.74 C 1223.26 1771.54 1164.89 1777.09 1112.59 1775.9 C 1100.58 1776.48 1093.28 1777.07 1081.27 1775.75 C 1056.2 1777.86 1030.67 1777.02 1005.5 1777.44 C 950.448 1778.35 749.617 1783.74 710.662 1765.14 C 701.257 1760.65 695.69 1754.74 692.17 1744.96 L 691.316 1739.49 L 689.969 1734.1 C 688.679 1728.01 697.316 1625.65 698.832 1616.06 L 508.74 1615.92 C 468.562 1615.93 427.02 1615.4 387.008 1616.11 C 380.641 1615.94 363.408 1615.09 358.371 1616.88 L 357.531 1619.69 C 356.51 1616.78 355.622 1615.34 356.445 1612.4 C 356.996 1608.37 355.385 1590.63 354.99 1585.7 L 350.599 1531.83 C 350.542 1530.58 350.791 1529.32 350.951 1528.05 C 359.067 1500.95 369.343 1489.27 396.938 1482.26 C 398.866 1472.17 400.374 1455.15 401.652 1444.59 L 410.321 1372.84 C 411.449 1363.5 413.336 1342.95 415.52 1334.88 C 415.374 1333.4 415.255 1331.93 415.16 1330.45 C 404.534 1171 536.612 1136.02 634.149 1046.93 C 672.952 1011.49 705.641 969.972 736.714 927.907 C 740.531 922.74 748.579 917.446 753.568 911.521 C 759.349 906.422 772.659 900.572 783.352 891.486 C 817.142 912.929 837.401 935.697 856.511 970.689 C 863.23 942.159 869.02 913.342 875.797 884.84 C 882.546 856.457 894.45 835.922 920.272 821.599 C 911.569 816.041 904.438 809.718 896.767 802.859 C 901.554 795.149 920.413 749.281 922.259 740.98 L 922.808 741.022 C 923.527 744.186 922.713 742.842 925.8 744.875 L 925.43 745.538 L 924.559 744.778 C 926.712 744.776 926.087 745.192 927.4 744.239 C 929.256 739.184 928.875 731.326 928.678 725.777 C 927.986 706.203 923.139 685.257 916.182 667 C 912.522 657.396 908.109 648.688 905.252 638.735 L 904.858 637.333 C 919.306 659.187 928.431 687.044 932.795 712.732 C 964.629 687.85 951.648 676.92 938.786 644.327 C 936.698 639.036 934.264 633.639 932.045 628.398 C 930.96 625.916 930.173 623.52 929.271 620.97 C 932.13 615.275 933.228 615.535 939.153 614.148 C 942.24 613.471 942.309 612.947 944.998 611.002 C 948.356 610.531 949.315 611.207 953.395 610.324 C 957.829 611.828 957.118 612.313 959.105 616.91 C 962.032 619.207 961.878 619.304 965.708 620.086 C 972.584 617.428 969.606 612.065 973.964 612.251 L 976.645 615.767 C 977.308 613.363 977.872 610.871 978.459 608.442 C 975.297 604.704 974.972 603.499 970.186 605.058 C 967.189 608.178 966.454 611.002 964.857 615.012 C 962.223 610.03 957.83 602.753 958.628 597.245 C 965.316 590.89 990.513 562.845 993.095 555.268 C 991.939 553.136 992.18 554.303 992.518 551.739 C 995.379 550.326 998.301 551.06 1001.62 551.37 C 1003.81 547.996 1007.91 543.441 1010.62 540.243 C 1011.84 538.758 1012.25 538.97 1014.33 538.062 z M 753.568 911.521 C 748.579 917.446 740.531 922.74 736.714 927.907 C 705.641 969.972 672.952 1011.49 634.149 1046.93 C 536.612 1136.02 404.534 1171 415.16 1330.45 C 415.255 1331.93 415.374 1333.4 415.52 1334.88 C 413.336 1342.95 411.449 1363.5 410.321 1372.84 L 401.652 1444.59 C 400.374 1455.15 398.866 1472.17 396.938 1482.26 C 369.343 1489.27 359.067 1500.95 350.951 1528.05 C 350.791 1529.32 350.542 1530.58 350.599 1531.83 L 354.99 1585.7 C 355.385 1590.63 356.996 1608.37 356.445 1612.4 C 355.622 1615.34 356.51 1616.78 357.531 1619.69 L 358.371 1616.88 C 363.408 1615.09 380.641 1615.94 387.008 1616.11 C 427.02 1615.4 468.562 1615.93 508.74 1615.92 L 698.832 1616.06 C 705.715 1616.1 724.201 1616.68 729.996 1615 L 729.94 1607.82 C 756.77 1613.38 780.602 1617.73 807.538 1622.43 C 802.508 1576.64 798.737 1530.72 796.229 1484.73 C 792.658 1408.58 792.473 1365.21 873.751 1338.48 C 868.227 1325.77 864.975 1312.19 864.144 1298.35 C 861.225 1253.11 880.947 1206.23 910.622 1172.68 C 887.38 1171.15 874.089 1165.32 868.649 1140.24 C 864.939 1123.13 864.778 1104.64 864.039 1087.14 C 862.743 1052.08 862.049 1017 861.958 981.918 L 856.619 978.389 C 854.904 974.94 855.63 975.462 856.511 970.689 C 837.401 935.697 817.142 912.929 783.352 891.486 C 772.659 900.572 759.349 906.422 753.568 911.521 z"/>
<path transform="translate(0,0)" fill="rgb(243,236,254)" d="M 1014.33 538.062 L 1015.74 537.126 C 1023.21 532.088 1033.35 522.866 1041.27 517.021 C 1058.75 504.387 1076.87 492.664 1095.56 481.9 C 1146.61 452.773 1205.06 432.302 1263.1 423.637 C 1424.47 399.545 1607 441.371 1703.39 582.695 C 1790.94 713.252 1823.15 873.195 1792.97 1027.46 C 1788.57 1050.43 1767.11 1137.5 1751.47 1152.25 C 1750.9 1158.66 1749.54 1172.59 1748.18 1178.44 C 1740.18 1212.67 1716.02 1261.85 1694.02 1289.77 C 1687.48 1290.58 1680.96 1291.52 1674.45 1292.57 C 1676.98 1297.96 1677.7 1301.07 1677.97 1307.11 L 1679.6 1308.56 C 1678.47 1311.74 1673.13 1316.9 1670.6 1319.74 C 1651.44 1341.28 1615.91 1368.55 1587.14 1375.18 C 1587.22 1386.34 1575.84 1396.83 1565.98 1400.5 L 1562.85 1399.85 C 1553.05 1424.98 1542.96 1470.04 1540.77 1496.98 C 1534.03 1496.82 1529.45 1496.71 1522.72 1497.31 C 1518.36 1482.19 1513.14 1467.32 1507.1 1452.79 C 1488.72 1465.76 1470.59 1479.48 1451.79 1491.82 C 1449.12 1493.56 1435.61 1501.05 1434.93 1502.34 C 1424.05 1507.36 1414.12 1516.53 1404.33 1523 C 1383.86 1536.53 1296.36 1584.46 1276.6 1584.68 L 1275.98 1581.78 C 1277.43 1575.85 1279.09 1553.74 1279.57 1546.67 C 1281.76 1506.14 1287.13 1464.41 1284.03 1423.88 C 1280.37 1375.9 1250.7 1353.88 1209.05 1339.27 C 1216.55 1326.66 1219.98 1312.61 1221.55 1298.14 C 1226.97 1248.21 1212.38 1198.17 1180.98 1158.98 C 1203.13 1155.1 1239.04 1145.53 1240.36 1118.09 C 1242.19 1079.79 1240.77 1036.76 1236.86 998.538 L 1247.34 989.475 L 1243.5 961.962 C 1239.43 932.259 1232.19 899.575 1222.68 871.171 C 1212.65 841.196 1202.07 827.594 1174.02 813.893 C 1160.23 808.003 1145.81 803.895 1131.21 800.506 C 1111.66 795.969 1104.97 792.735 1098.54 773.86 C 1102.66 773.687 1106.96 773.21 1111.08 772.828 C 1112.97 763.362 1113.85 757.132 1114.77 747.515 C 1118.25 756.2 1118.8 760.664 1119.82 769.761 L 1135.45 764.204 C 1133.82 753.517 1131.96 740.895 1131.81 730.194 C 1135.45 739.339 1139.9 756.837 1143.47 763.448 L 1144.93 763.024 C 1145.3 748.472 1135.84 728.921 1129.56 716.122 C 1145.24 704.704 1150.96 697.614 1147.81 677.804 C 1142.41 665.824 1140.91 660.648 1127.9 656.92 C 1128.07 640.604 1130.99 618.547 1123.95 603.849 C 1105.19 564.719 1062.57 546.439 1022.96 563.173 C 1020.98 551.549 1019.91 548.45 1014.33 538.062 z"/>
<path transform="translate(0,0)" fill="rgb(94,80,128)" d="M 1147.81 677.804 C 1148.4 654.649 1188.65 572.935 1202.49 551.52 C 1211.48 537.329 1222.13 524.268 1234.23 512.615 C 1296.88 453.147 1365.53 463.255 1438.84 497.097 C 1457.71 479.313 1477.02 470.169 1503.37 470.587 C 1512.55 470.732 1539.85 475.546 1543.91 483.75 L 1543.28 485.707 C 1533.33 483.193 1522.54 478.687 1512.72 476.93 C 1487.19 472.356 1461.99 482.88 1443.77 500.19 C 1455.65 495.979 1497.07 487.376 1504.5 500.203 L 1504.1 502.375 C 1501.89 503.636 1499.85 503.114 1497 502.167 C 1481.45 496.993 1467.02 498.982 1451.28 503.269 C 1516.58 540.047 1576.11 590.685 1596.22 665.806 C 1602.45 689.097 1612.28 727.976 1599.46 749.667 C 1597.66 752.708 1595.35 756.313 1591.79 757.237 L 1589.84 756.181 C 1589.89 751.564 1597.65 740.971 1598.83 736.142 C 1603.26 718.154 1596.36 690.94 1592.45 673.298 C 1592.31 683.314 1592.44 695.765 1590.4 705.457 C 1584.41 733.916 1578.64 760.688 1577.19 790.01 C 1575.03 833.569 1596.15 883.429 1569.16 922.829 C 1568.7 923.482 1567.58 923.966 1566.84 924.33 L 1565.23 923.764 C 1565 923.082 1564.77 922.4 1564.54 921.718 C 1568.01 913.256 1574.74 899.888 1576.08 891.101 C 1579.46 868.871 1575.77 844.834 1572.99 822.75 C 1571.87 828.606 1570.62 834.552 1569.5 840.4 C 1564.86 864.648 1540.69 930.093 1508.3 923.551 C 1505.46 922.961 1502.64 922.321 1499.84 921.629 C 1511.82 908.986 1520.79 887.306 1524.76 870.54 C 1516.31 884.02 1489.45 922.955 1476.18 928.155 L 1474.06 927.38 L 1473.3 925.673 C 1475.48 920.834 1489.18 908.897 1493.4 904.163 C 1499.88 896.889 1504.16 892.004 1509.4 883.585 C 1483.87 905.357 1469.09 920.638 1434.87 924.045 C 1428.96 919.142 1423.91 912.168 1419.1 906.07 C 1414.25 906.369 1407.83 907.709 1402.21 908.059 C 1372.37 909.92 1356.03 904.303 1330.77 889.872 C 1324.56 888.296 1321.92 884.34 1317.52 879.656 C 1290.05 899.025 1276.49 911.033 1256.38 938.907 C 1258.25 941.804 1259.2 942.61 1258.89 946.022 L 1257.72 946.871 C 1255.14 946.052 1255.33 946.008 1253.39 944.06 C 1249.54 949.346 1246.47 956.072 1243.5 961.962 C 1239.43 932.259 1232.19 899.575 1222.68 871.171 C 1212.65 841.196 1202.07 827.594 1174.02 813.893 C 1160.23 808.003 1145.81 803.895 1131.21 800.506 C 1111.66 795.969 1104.97 792.735 1098.54 773.86 C 1102.66 773.687 1106.96 773.21 1111.08 772.828 C 1112.97 763.362 1113.85 757.132 1114.77 747.515 C 1118.25 756.2 1118.8 760.664 1119.82 769.761 L 1135.45 764.204 C 1133.82 753.517 1131.96 740.895 1131.81 730.194 C 1135.45 739.339 1139.9 756.837 1143.47 763.448 L 1144.93 763.024 C 1145.3 748.472 1135.84 728.921 1129.56 716.122 C 1145.24 704.704 1150.96 697.614 1147.81 677.804 z"/>
<path transform="translate(0,0)" fill="rgb(181,162,247)" d="M 1503.64 614.56 C 1503.18 630.803 1501.52 643.927 1493.42 658.945 C 1491 663.428 1481.82 674.283 1478.22 679.058 C 1478.59 679.689 1478.96 680.321 1479.33 680.952 C 1489.85 682.638 1499.59 659.009 1503.01 650.858 C 1508.54 637.687 1509.2 623.04 1509.29 608.943 C 1519.49 638.254 1521.58 666.507 1507.69 695.379 C 1505.68 699.497 1503.52 703.544 1501.22 707.511 C 1503.13 720.649 1506.94 731.392 1518.25 739.629 C 1529.49 747.81 1542.28 747.729 1555.41 745.991 C 1555.75 746.369 1556.1 746.746 1556.44 747.124 C 1557.58 753.89 1557.12 763.048 1557 770.101 C 1543.85 791.074 1528.37 806.14 1514.27 825.018 C 1482.1 868.104 1472.72 889.547 1419.1 906.07 C 1414.25 906.369 1407.83 907.709 1402.21 908.059 C 1372.37 909.92 1356.03 904.303 1330.77 889.872 C 1330.78 888.617 1330.8 887.362 1330.82 886.107 C 1303.55 856.595 1270.87 810.38 1275.97 768.148 C 1263.76 766.938 1255.51 765.488 1244.64 759.41 C 1211.97 741.129 1204.36 704.54 1208.19 670.006 C 1212.34 632.588 1235.97 608.848 1274.87 615.518 C 1294.78 618.933 1312.9 628.773 1325.08 645.285 C 1336.41 660.899 1333.83 674.596 1334.11 692.222 C 1334.62 692.644 1335.14 693.066 1335.65 693.488 C 1343.69 693.122 1349.69 680.424 1352.76 673.897 C 1408.04 678.455 1448.28 656.427 1489.14 621.765 C 1491.81 619.504 1494.47 617.227 1497.11 614.933 C 1487.1 641.676 1473.89 657.591 1447.95 670.763 C 1431.08 679.332 1418.11 676.396 1406.24 680.483 L 1406.4 682.758 C 1409.78 685.509 1416.14 684.771 1420.41 684.294 C 1446.24 681.145 1469.81 668.012 1486.09 647.704 C 1494.33 637.209 1498.74 626.802 1503.64 614.56 z"/>
<path transform="translate(0,0)" fill="rgb(94,80,128)" d="M 1246.31 626.052 C 1276.05 625.063 1296.65 646.617 1303.32 673.954 C 1306.05 685.166 1308.8 705.849 1303.44 716.868 C 1302.36 719.1 1300.17 719.579 1298.02 720.007 L 1296.23 718.745 L 1296.23 716.603 C 1302.91 708.033 1301 701.156 1300.32 690.185 C 1287.98 694.501 1281.67 696.879 1272.77 706.949 C 1269.49 713.01 1269.15 714.855 1267.48 721.471 C 1268.67 726.228 1271.94 730.971 1267.58 734.534 C 1260.28 730.085 1262.48 713.858 1266.1 707.269 C 1273.42 693.98 1286.24 688.901 1299.74 684.444 C 1295.54 663.617 1286.64 641.139 1263.52 634.475 C 1258.46 633.017 1252.36 632.871 1247.69 630.597 C 1246.42 629.978 1246.54 627.515 1246.31 626.052 z"/>
<path transform="translate(0,0)" fill="rgb(94,80,128)" d="M 1482.84 706.473 L 1486.23 707.452 L 1487.04 709.513 C 1485.68 711.408 1478.54 722.358 1478.27 724.191 C 1473.94 754.164 1488.61 784.049 1447.34 792.344 C 1444.54 791.929 1444.65 791.777 1442.23 790.198 L 1442.2 788.428 C 1447.23 784.672 1457.95 786.455 1464.74 778.573 C 1473.93 767.919 1471.71 754.836 1471.87 741.987 C 1472.07 726.319 1471.6 717.87 1482.84 706.473 z"/>
<path transform="translate(0,0)" fill="rgb(94,80,128)" d="M 1382.78 674.577 C 1385.55 675.328 1388.22 678.309 1390.31 680.279 C 1406.73 695.73 1426.27 701.395 1447.98 694.807 C 1451.7 693.68 1455.12 691.592 1459.17 691.531 C 1461.32 693.755 1460.68 692.407 1460.7 695.903 C 1448.28 701.391 1435.92 704.602 1422.21 702.575 C 1410.81 700.891 1379.24 688.756 1382.78 674.577 z"/>
<path transform="translate(0,0)" fill="rgb(94,80,128)" d="M 1393.44 816.22 C 1407.66 815.074 1456.34 817.634 1459.8 834.282 L 1458.08 835.406 L 1454.59 834.314 C 1443.05 827.946 1437.34 825.629 1423.95 822.903 C 1410.99 820.262 1401.47 822.178 1388.48 822.095 C 1387.71 821.519 1386.95 820.943 1386.18 820.368 L 1386.4 819.105 C 1388.79 816.843 1390.21 816.881 1393.44 816.22 z"/>
<path transform="translate(0,0)" fill="rgb(94,80,128)" d="M 1394.56 704.363 C 1401.44 707.488 1405.33 723.391 1417.16 727.981 C 1426.23 731.5 1431.39 725.921 1436.2 727.679 C 1437.19 730.461 1436.99 728.991 1435.91 732.259 C 1416.8 739.784 1389.54 721.093 1394.56 704.363 z"/>
<path transform="translate(0,0)" fill="rgb(94,80,128)" d="M 1489.67 742.439 C 1497.55 744.906 1496.93 757.412 1505.43 760.112 C 1510.32 761.664 1515.01 757.669 1519.97 757.046 L 1521.35 758.235 L 1521.47 761.011 C 1505.11 774.312 1486.09 756.678 1489.67 742.439 z"/>
<path transform="translate(0,0)" fill="rgb(181,162,247)" d="M 1204.24 791.101 L 1209.59 801.329 C 1219.85 807.327 1226.17 812.401 1225.41 825.523 C 1227.47 826.3 1229.19 827.269 1231.07 828.418 C 1232.57 820.491 1232.93 804.316 1233.37 795.675 C 1245.19 821.318 1262.78 855.236 1286.46 871.06 C 1274.28 847.277 1273.03 831.767 1273.89 804.969 C 1286.06 836.356 1294.38 853.8 1317.52 879.656 C 1290.05 899.025 1276.49 911.033 1256.38 938.907 C 1258.25 941.804 1259.2 942.61 1258.89 946.022 L 1257.72 946.871 C 1255.14 946.052 1255.33 946.008 1253.39 944.06 C 1249.54 949.346 1246.47 956.072 1243.5 961.962 C 1239.43 932.259 1232.19 899.575 1222.68 871.171 C 1212.65 841.196 1202.07 827.594 1174.02 813.893 C 1179.95 811.168 1185.22 807.322 1190.15 803.107 C 1186.29 803.336 1183.74 803.898 1180.85 800.929 C 1182.21 798.8 1181.41 799.77 1184.45 798.614 C 1188.65 797.707 1192.91 797.914 1197.23 797.883 L 1204.24 791.101 z"/>
<path transform="translate(0,0)" fill="rgb(27,35,109)" d="M 1204.24 791.101 L 1209.59 801.329 C 1219.85 807.327 1226.17 812.401 1225.41 825.523 C 1227.02 828.686 1234.12 834.165 1237.52 837.198 C 1242.87 841.963 1251.56 859.809 1245.55 865.329 C 1242.57 864.446 1242.75 861.074 1242.24 856.523 C 1240.75 843.234 1232.6 838.126 1222.42 830.184 C 1219.04 808.914 1212.13 802.694 1190.15 803.107 C 1186.29 803.336 1183.74 803.898 1180.85 800.929 C 1182.21 798.8 1181.41 799.77 1184.45 798.614 C 1188.65 797.707 1192.91 797.914 1197.23 797.883 L 1204.24 791.101 z"/>
<path transform="translate(0,0)" fill="rgb(181,162,247)" d="M 1204.24 791.101 L 1209.59 801.329 C 1201.09 798.414 1193.37 798.807 1184.45 798.614 C 1188.65 797.707 1192.91 797.914 1197.23 797.883 L 1204.24 791.101 z"/>
<path transform="translate(0,0)" fill="rgb(27,35,109)" d="M 1252.03 929.726 C 1249.35 925.938 1246.05 922.566 1246.58 918.239 L 1248.25 918.063 C 1252.16 920.522 1253.56 923.762 1256.02 927.774 C 1255.93 931.714 1255.66 935.005 1256.38 938.907 C 1258.25 941.804 1259.2 942.61 1258.89 946.022 L 1257.72 946.871 C 1255.14 946.052 1255.33 946.008 1253.39 944.06 C 1250.68 938.436 1251.5 935.895 1252.03 929.726 z"/>
<path transform="translate(0,0)" fill="rgb(27,35,109)" d="M 1247.7 878.84 C 1259.72 881.732 1263.16 904.392 1261.83 914.032 C 1254.71 912.672 1256.47 895.071 1254.52 889.846 C 1252.59 884.688 1247.5 886.983 1247.7 878.84 z"/>
<path transform="translate(0,0)" fill="rgb(243,236,254)" d="M 1168.3 701.219 C 1172.44 678.954 1181.94 645.576 1195.67 627.427 L 1195.34 628.935 C 1192.14 642.8 1165.52 712.093 1168.68 721.515 C 1170.63 721.783 1170.27 722.159 1171.61 721.064 C 1176.33 717.22 1183.37 680.881 1187.03 672.566 C 1186.28 686.622 1181.71 717 1178.96 731.582 C 1186.67 750.57 1195.16 772.965 1204.24 791.101 L 1197.23 797.883 C 1192.91 797.914 1188.65 797.707 1184.45 798.614 C 1181.41 799.77 1182.21 798.8 1180.85 800.929 C 1183.74 803.898 1186.29 803.336 1190.15 803.107 C 1185.22 807.322 1179.95 811.168 1174.02 813.893 C 1160.23 808.003 1145.81 803.895 1131.21 800.506 C 1111.66 795.969 1104.97 792.735 1098.54 773.86 C 1102.66 773.687 1106.96 773.21 1111.08 772.828 C 1112.97 763.362 1113.85 757.132 1114.77 747.515 C 1118.25 756.2 1118.8 760.664 1119.82 769.761 L 1135.45 764.204 C 1133.82 753.517 1131.96 740.895 1131.81 730.194 C 1135.45 739.339 1139.9 756.837 1143.47 763.448 L 1144.93 763.024 C 1145.3 748.472 1135.84 728.921 1129.56 716.122 C 1145.24 704.704 1150.96 697.614 1147.81 677.804 C 1154.43 689.779 1157.5 692.603 1168.3 701.219 z"/>
<path transform="translate(0,0)" fill="rgb(181,162,247)" d="M 1522.18 634.791 C 1530.36 641.885 1532.46 691.771 1529.96 702.978 C 1528.96 707.474 1527.26 720.078 1529.16 723.684 L 1530.81 723.859 C 1540.53 714.579 1535.43 663.529 1533.5 649.422 C 1539.44 663.522 1543.22 676.168 1547.3 690.773 C 1551.63 707.076 1554.56 723.72 1556.06 740.523 C 1529.17 743.788 1513.58 736.993 1506.85 709.386 C 1520.79 683.226 1525.24 664.65 1522.18 634.791 z"/>
<path transform="translate(0,0)" fill="rgb(118,118,169)" d="M 1564.4 1375.16 C 1555.28 1368.09 1549.81 1360.8 1546.99 1349.4 C 1538.39 1314.76 1553.2 1267.93 1571.27 1238.3 C 1597.17 1195.86 1643.68 1138.37 1693.25 1125.42 C 1705.95 1122.1 1726.01 1120.6 1737.16 1128.02 C 1746.99 1134.57 1748.88 1141.95 1751.47 1152.25 C 1750.9 1158.66 1749.54 1172.59 1748.18 1178.44 C 1740.18 1212.67 1716.02 1261.85 1694.02 1289.77 C 1687.48 1290.58 1680.96 1291.52 1674.45 1292.57 C 1676.98 1297.96 1677.7 1301.07 1677.97 1307.11 L 1679.6 1308.56 C 1678.47 1311.74 1673.13 1316.9 1670.6 1319.74 C 1651.44 1341.28 1615.91 1368.55 1587.14 1375.18 C 1587.22 1386.34 1575.84 1396.83 1565.98 1400.5 L 1562.85 1399.85 C 1553.05 1424.98 1542.96 1470.04 1540.77 1496.98 C 1534.03 1496.82 1529.45 1496.71 1522.72 1497.31 C 1518.36 1482.19 1513.14 1467.32 1507.1 1452.79 C 1501.42 1439.2 1495.37 1425.78 1488.96 1412.53 C 1480.08 1415.72 1469.04 1416.67 1460.15 1412.27 C 1415.02 1388.78 1372.1 1345.59 1341.62 1304.94 C 1288.67 1234.33 1309.74 1175.37 1400.99 1222.06 L 1398.82 1264 C 1409.02 1250.91 1411.07 1247.31 1416.49 1231.62 C 1421.75 1235.17 1426.89 1238.88 1431.93 1242.74 C 1468.48 1271.18 1500.93 1309.01 1506.95 1356.63 C 1509.38 1375.93 1507.06 1391.8 1494.87 1407.38 C 1502.34 1420.05 1509.12 1433.58 1515.52 1446.81 C 1521.58 1440.65 1534.84 1430.18 1542.2 1425.28 L 1544.64 1425.78 C 1551.67 1407.01 1555.64 1393.95 1564.4 1375.16 z"/>
<path transform="translate(0,0)" fill="rgb(254,254,254)" d="M 1515.52 1446.81 C 1521.58 1440.65 1534.84 1430.18 1542.2 1425.28 L 1544.64 1425.78 C 1541.14 1437.46 1538.04 1449.25 1535.36 1461.13 C 1534.07 1466.8 1531.9 1478.62 1530.26 1483.56 C 1525.91 1471.09 1520.99 1458.83 1515.52 1446.81 z"/>
<path transform="translate(0,0)" fill="rgb(243,236,254)" d="M 1672.46 1292.53 L 1674.45 1292.57 C 1676.98 1297.96 1677.7 1301.07 1677.97 1307.11 L 1662.62 1307 L 1627.77 1307.39 C 1647.09 1298.32 1651.79 1296.68 1672.46 1292.53 z"/>
<path transform="translate(0,0)" fill="rgb(254,254,254)" d="M 1672.46 1292.53 L 1674.45 1292.57 C 1676.98 1297.96 1677.7 1301.07 1677.97 1307.11 L 1662.62 1307 C 1665.8 1301.8 1669.02 1298.48 1672.46 1292.53 z"/>
<path transform="translate(0,0)" fill="rgb(243,236,254)" d="M 1569.98 1376.75 C 1575.5 1376.39 1581.59 1375.72 1587.14 1375.18 C 1587.22 1386.34 1575.84 1396.83 1565.98 1400.5 L 1562.85 1399.85 C 1562.08 1397.06 1568.53 1380.72 1569.98 1376.75 z"/>
<path transform="translate(0,0)" fill="rgb(27,35,109)" d="M 1235.05 1203.52 L 1237.57 1205.34 C 1238.4 1211.92 1243.11 1218.12 1243.74 1222.71 C 1245.89 1238.33 1253.91 1259.73 1246.21 1273.52 C 1241.43 1268.54 1247.15 1261.59 1245.53 1254.98 C 1243.05 1244.88 1241.62 1234.68 1239.19 1224.55 C 1237.15 1216.02 1232.02 1212.19 1235.05 1203.52 z"/>
<path transform="translate(0,0)" fill="rgb(27,35,109)" d="M 1242.8 1289.25 L 1245.92 1290.16 C 1247.76 1293.23 1248.02 1297.35 1248.56 1301 C 1246.03 1305.56 1241.96 1311.46 1239.01 1315.98 C 1237.34 1314.34 1237.84 1314.97 1236.76 1312.91 C 1237.85 1308.12 1241.27 1304.19 1244.19 1300.06 C 1242.71 1294.99 1242.27 1294.35 1242.8 1289.25 z"/>
<path transform="translate(0,0)" fill="rgb(243,236,254)" d="M 783.352 891.486 C 817.142 912.929 837.401 935.697 856.511 970.689 C 855.63 975.462 854.904 974.94 856.619 978.389 L 861.958 981.918 C 862.049 1017 862.743 1052.08 864.039 1087.14 C 864.778 1104.64 864.939 1123.13 868.649 1140.24 C 874.089 1165.32 887.38 1171.15 910.622 1172.68 C 880.947 1206.23 861.225 1253.11 864.144 1298.35 C 864.975 1312.19 868.227 1325.77 873.751 1338.48 C 792.473 1365.21 792.658 1408.58 796.229 1484.73 C 798.737 1530.72 802.508 1576.64 807.538 1622.43 C 780.602 1617.73 756.77 1613.38 729.94 1607.82 L 729.996 1615 C 724.201 1616.68 705.715 1616.1 698.832 1616.06 L 508.74 1615.92 C 468.562 1615.93 427.02 1615.4 387.008 1616.11 C 380.641 1615.94 363.408 1615.09 358.371 1616.88 L 357.531 1619.69 C 356.51 1616.78 355.622 1615.34 356.445 1612.4 C 356.996 1608.37 355.385 1590.63 354.99 1585.7 L 350.599 1531.83 C 350.542 1530.58 350.791 1529.32 350.951 1528.05 C 359.067 1500.95 369.343 1489.27 396.938 1482.26 C 398.866 1472.17 400.374 1455.15 401.652 1444.59 L 410.321 1372.84 C 411.449 1363.5 413.336 1342.95 415.52 1334.88 C 415.374 1333.4 415.255 1331.93 415.16 1330.45 C 404.534 1171 536.612 1136.02 634.149 1046.93 C 672.952 1011.49 705.641 969.972 736.714 927.907 C 740.531 922.74 748.579 917.446 753.568 911.521 C 759.349 906.422 772.659 900.572 783.352 891.486 z M 626.731 1297.08 C 617.141 1310.89 610.329 1334.98 596.947 1342.1 C 573.232 1354.73 552.427 1362.17 548.835 1392.96 C 548.152 1398.82 547.731 1404.95 545.949 1410.95 C 568.752 1412.37 614.681 1414.61 637.664 1414.11 C 647.674 1391.57 660.423 1393.84 680.351 1383.4 C 682.657 1382.2 682.326 1382 682.814 1380.1 C 680.836 1377.1 669.507 1372.43 664.721 1368.95 C 640.56 1351.34 631.66 1325.01 626.731 1297.08 z M 482.889 1482.04 C 488.188 1481.45 491.289 1481.24 496.614 1481.25 L 487.696 1445.91 C 486.53 1454.29 483.163 1474.51 482.889 1482.04 z"/>
<path transform="translate(0,0)" fill="rgb(197,200,247)" d="M 415.52 1334.88 C 445.188 1335.12 474.856 1335.17 504.524 1335.03 C 501.721 1352.76 496.946 1375.73 497.268 1393.27 C 497.311 1395.61 500.629 1405.26 501.572 1408.05 C 505.842 1410.67 538.555 1410.75 545.949 1410.95 C 568.752 1412.37 614.681 1414.61 637.664 1414.11 C 657.921 1415.86 678.982 1415.12 698.777 1416.74 L 683.473 1481.07 L 684.783 1481.5 C 709.049 1489.44 732.61 1496.84 734.119 1528.78 C 736.682 1538.28 730.975 1594.22 729.94 1607.82 L 729.996 1615 C 724.201 1616.68 705.715 1616.1 698.832 1616.06 L 508.74 1615.92 C 468.562 1615.93 427.02 1615.4 387.008 1616.11 C 380.641 1615.94 363.408 1615.09 358.371 1616.88 L 357.531 1619.69 C 356.51 1616.78 355.622 1615.34 356.445 1612.4 C 356.996 1608.37 355.385 1590.63 354.99 1585.7 L 350.599 1531.83 C 350.542 1530.58 350.791 1529.32 350.951 1528.05 C 359.067 1500.95 369.343 1489.27 396.938 1482.26 C 398.866 1472.17 400.374 1455.15 401.652 1444.59 L 410.321 1372.84 C 411.449 1363.5 413.336 1342.95 415.52 1334.88 z M 482.889 1482.04 C 488.188 1481.45 491.289 1481.24 496.614 1481.25 L 487.696 1445.91 C 486.53 1454.29 483.163 1474.51 482.889 1482.04 z"/>
<path transform="translate(0,0)" fill="rgb(197,200,247)" d="M 350.599 1531.83 C 350.542 1530.58 350.791 1529.32 350.951 1528.05 L 643.156 1528.04 C 655.866 1528.05 727.847 1526.72 734.119 1528.78 C 736.682 1538.28 730.975 1594.22 729.94 1607.82 L 729.996 1615 C 724.201 1616.68 705.715 1616.1 698.832 1616.06 L 508.74 1615.92 C 468.562 1615.93 427.02 1615.4 387.008 1616.11 C 380.641 1615.94 363.408 1615.09 358.371 1616.88 L 357.531 1619.69 C 356.51 1616.78 355.622 1615.34 356.445 1612.4 C 356.996 1608.37 355.385 1590.63 354.99 1585.7 L 350.599 1531.83 z"/>
<path transform="translate(0,0)" fill="rgb(118,118,169)" d="M 350.599 1531.83 C 350.542 1530.58 350.791 1529.32 350.951 1528.05 L 643.156 1528.04 C 655.866 1528.05 727.847 1526.72 734.119 1528.78 L 733.083 1531.37 C 729.459 1532.45 720.562 1532.02 716.318 1531.97 C 594.713 1530.39 472.099 1534.1 350.599 1531.83 z"/>
<path transform="translate(0,0)" fill="rgb(118,118,169)" d="M 356.445 1612.4 L 636.871 1612.35 C 648.808 1612.35 722.089 1610.93 728.748 1612.91 L 729.996 1615 C 724.201 1616.68 705.715 1616.1 698.832 1616.06 L 508.74 1615.92 C 468.562 1615.93 427.02 1615.4 387.008 1616.11 C 380.641 1615.94 363.408 1615.09 358.371 1616.88 L 357.531 1619.69 C 356.51 1616.78 355.622 1615.34 356.445 1612.4 z"/>
<path transform="translate(0,0)" fill="rgb(118,118,169)" d="M 437.589 1556.55 C 440.813 1555.19 444.52 1555.69 447.267 1557.85 C 450.014 1560.02 451.365 1563.51 450.794 1566.96 C 450.223 1570.41 447.82 1573.28 444.522 1574.45 C 439.626 1576.18 434.241 1573.7 432.366 1568.86 C 430.49 1564.02 432.804 1558.56 437.589 1556.55 z"/>
<path transform="translate(0,0)" fill="rgb(118,118,169)" d="M 632.706 1556.49 C 635.926 1555.19 639.598 1555.73 642.307 1557.91 C 645.016 1560.08 646.34 1563.55 645.768 1566.97 C 645.196 1570.4 642.818 1573.25 639.55 1574.42 C 634.63 1576.19 629.199 1573.7 627.334 1568.81 C 625.469 1563.93 627.858 1558.45 632.706 1556.49 z"/>
<path transform="translate(0,0)" fill="rgb(118,118,169)" d="M 415.52 1334.88 C 445.188 1335.12 474.856 1335.17 504.524 1335.03 C 501.721 1352.76 496.946 1375.73 497.268 1393.27 C 497.311 1395.61 500.629 1405.26 501.572 1408.05 L 498.756 1409.78 C 497.624 1415.91 507.845 1471.73 509.44 1482.06 C 505.099 1482.1 500.698 1482.48 496.614 1481.25 L 487.696 1445.91 C 486.53 1454.29 483.163 1474.51 482.889 1482.04 C 455.343 1482.95 424.983 1481.79 396.938 1482.26 C 398.866 1472.17 400.374 1455.15 401.652 1444.59 L 410.321 1372.84 C 411.449 1363.5 413.336 1342.95 415.52 1334.88 z"/>
<path transform="translate(0,0)" fill="rgb(243,236,254)" d="M 427.206 1353.76 L 486.44 1353.8 C 480.679 1387.77 476.248 1427.97 471.545 1462.67 C 469.514 1464.47 421.875 1463.62 415.275 1463.6 C 419.801 1427.28 422.723 1390.24 427.206 1353.76 z"/>
<path transform="translate(0,0)" fill="rgb(181,162,247)" d="M 501.572 1408.05 C 505.842 1410.67 538.555 1410.75 545.949 1410.95 C 568.752 1412.37 614.681 1414.61 637.664 1414.11 C 657.921 1415.86 678.982 1415.12 698.777 1416.74 L 683.473 1481.07 C 679.663 1483.13 525.596 1482.32 509.44 1482.06 C 507.845 1471.73 497.624 1415.91 498.756 1409.78 L 501.572 1408.05 z"/>
<path transform="translate(0,0)" fill="rgb(27,35,109)" d="M 839.521 1247.56 L 841.548 1249.3 C 843.091 1260.44 825.777 1269.72 839.593 1288.34 L 837.397 1302.14 C 842.474 1312.19 842.078 1313.29 841.912 1324.33 C 844.249 1327.76 846.021 1329.2 846.399 1332.94 L 844.167 1334.98 C 835.859 1325.78 832.764 1301.15 834.813 1289.09 L 829.361 1281.75 C 829.418 1268.63 833.002 1258.7 839.521 1247.56 z"/>
<path transform="translate(0,0)" fill="rgb(27,35,109)" d="M 850.037 1298.43 C 854.557 1301.06 857.57 1315.93 855.593 1321.51 C 851.211 1318.55 847.689 1304.54 850.037 1298.43 z"/>
<path transform="translate(0,0)" fill="rgb(243,236,254)" d="M 729.94 1607.82 C 756.77 1613.38 780.602 1617.73 807.538 1622.43 C 810.606 1650.16 814.35 1678.35 817.24 1705.94 C 818.408 1715.79 819.704 1725.61 821.128 1735.43 L 868.724 1735.4 C 868.266 1723.93 868.005 1712.46 867.942 1700.99 C 884.715 1699.01 931.415 1698.04 948.61 1698.89 C 961.914 1741.18 977.001 1785.54 1032.39 1767.14 C 1039.49 1764.83 1046.03 1761.08 1051.62 1756.14 C 1067.27 1772.8 1067.93 1767.44 1081.27 1775.75 C 1056.2 1777.86 1030.67 1777.02 1005.5 1777.44 C 950.448 1778.35 749.617 1783.74 710.662 1765.14 C 701.257 1760.65 695.69 1754.74 692.17 1744.96 L 691.316 1739.49 L 689.969 1734.1 C 688.679 1728.01 697.316 1625.65 698.832 1616.06 C 705.715 1616.1 724.201 1616.68 729.996 1615 L 729.94 1607.82 z"/>
<path transform="translate(0,0)" fill="rgb(254,254,254)" d="M 729.94 1607.82 C 756.77 1613.38 780.602 1617.73 807.538 1622.43 C 810.606 1650.16 814.35 1678.35 817.24 1705.94 C 795.101 1708.64 773.27 1713.45 752.041 1720.29 C 747.164 1721.85 724.015 1730.21 720.735 1730.91 L 719.608 1733.43 C 714.494 1734.94 696.101 1734.18 689.969 1734.1 C 688.679 1728.01 697.316 1625.65 698.832 1616.06 C 705.715 1616.1 724.201 1616.68 729.996 1615 L 729.94 1607.82 z"/>
<path transform="translate(0,0)" fill="rgb(197,200,247)" d="M 698.832 1616.06 C 705.715 1616.1 724.201 1616.68 729.996 1615 C 727.596 1628.23 726.237 1653.43 725.273 1667.73 C 723.932 1687.59 721.332 1711.3 720.735 1730.91 L 719.608 1733.43 C 714.494 1734.94 696.101 1734.18 689.969 1734.1 C 688.679 1728.01 697.316 1625.65 698.832 1616.06 z"/>
<path transform="translate(0,0)" fill="rgb(254,254,254)" d="M 691.316 1739.49 L 692.4 1736.14 C 697.452 1734.15 705.492 1735.01 711.258 1735.16 L 692.17 1744.96 L 691.316 1739.49 z"/>
<path transform="translate(0,0)" fill="rgb(254,254,254)" d="M 1184.3 1473.59 L 1280.06 1473.53 C 1278.53 1510.13 1275.48 1545.21 1272.34 1581.71 C 1273.65 1586.99 1272.77 1589.69 1273.52 1595.43 C 1274.31 1591.79 1274.15 1586.59 1274.85 1581.98 L 1275.98 1581.78 L 1276.6 1584.68 C 1273.01 1608.7 1271.58 1646.04 1267.06 1668.12 C 1266.57 1678.58 1264.79 1690.37 1263.46 1700.87 L 1259.4 1700.7 C 1254.1 1702 1222.88 1701.44 1216.14 1701.37 L 1219.95 1551.7 L 1164.84 1551.71 C 1166.33 1543.95 1167.39 1531.18 1168.33 1522.99 C 1171.96 1519.61 1175.54 1516.18 1179.09 1512.7 C 1180.91 1499.68 1182.65 1486.64 1184.3 1473.59 z"/>
<path transform="translate(0,0)" fill="rgb(29,43,90)" d="M 1272.34 1581.71 C 1273.65 1586.99 1272.77 1589.69 1273.52 1595.43 C 1274.31 1591.79 1274.15 1586.59 1274.85 1581.98 L 1275.98 1581.78 L 1276.6 1584.68 C 1273.01 1608.7 1271.58 1646.04 1267.06 1668.12 C 1266.82 1661.87 1266.81 1660.87 1264.56 1655.09 C 1267.35 1630.65 1269.94 1606.19 1272.34 1581.71 z"/>
<path transform="translate(0,0)" fill="rgb(27,35,109)" d="M 1259.4 1700.7 C 1260.57 1686.23 1262.88 1669.67 1264.56 1655.09 C 1266.81 1660.87 1266.82 1661.87 1267.06 1668.12 C 1266.57 1678.58 1264.79 1690.37 1263.46 1700.87 L 1259.4 1700.7 z"/>
<path transform="translate(0,0)" fill="rgb(243,236,254)" d="M 1160.46 1702.27 C 1163.97 1704.77 1201.85 1706.2 1208.93 1706.34 C 1210.85 1706.38 1211.1 1704.92 1212.04 1703.1 C 1211.8 1713.84 1211.65 1724.67 1211 1735.38 L 1258.73 1735.42 C 1259.27 1731.35 1260.7 1719.19 1261.74 1715.48 C 1286.35 1705.13 1406.71 1735.4 1325.34 1766.34 C 1312.07 1771.39 1290.07 1769.35 1276.02 1770.74 C 1223.26 1771.54 1164.89 1777.09 1112.59 1775.9 C 1111.98 1775.28 1112.31 1775.72 1111.92 1774.4 C 1118.7 1771.84 1124.05 1770.38 1130.23 1766.31 C 1151.24 1752.5 1155.93 1725.11 1160.46 1702.27 z"/>
<path transform="translate(0,0)" fill="rgb(243,236,254)" d="M 944.998 611.002 C 948.356 610.531 949.315 611.207 953.395 610.324 C 957.829 611.828 957.118 612.313 959.105 616.91 C 962.032 619.207 961.878 619.304 965.708 620.086 C 972.584 617.428 969.606 612.065 973.964 612.251 L 976.645 615.767 C 972.858 631.985 976.758 641.472 975.01 656.995 C 958.593 662.201 951.641 679.947 956.538 695.956 C 958.632 702.801 963.41 707.542 968.632 712.201 C 966.763 724.08 964.958 737.455 954.334 745.133 C 950.427 747.957 947.71 748.147 945.999 751.7 C 949.425 756.652 956.945 749.78 960.428 747.125 L 954.136 762.042 C 957.534 763.349 961.354 764.924 964.786 766.029 C 972.401 756.489 975.589 752.301 980.942 741.49 C 979.574 752.504 978.276 761.201 975.188 771.932 C 991.707 778.996 1002.03 779.353 1019.81 777.031 C 1015.16 788.954 1011.19 792.49 998.611 798.138 C 974.076 809.154 944.47 810.489 920.272 821.599 C 911.569 816.041 904.438 809.718 896.767 802.859 C 901.554 795.149 920.413 749.281 922.259 740.98 L 922.808 741.022 C 923.527 744.186 922.713 742.842 925.8 744.875 L 925.43 745.538 L 924.559 744.778 C 926.712 744.776 926.087 745.192 927.4 744.239 C 929.256 739.184 928.875 731.326 928.678 725.777 C 927.986 706.203 923.139 685.257 916.182 667 C 912.522 657.396 908.109 648.688 905.252 638.735 L 904.858 637.333 C 919.306 659.187 928.431 687.044 932.795 712.732 C 964.629 687.85 951.648 676.92 938.786 644.327 C 936.698 639.036 934.264 633.639 932.045 628.398 C 930.96 625.916 930.173 623.52 929.271 620.97 C 932.13 615.275 933.228 615.535 939.153 614.148 C 942.24 613.471 942.309 612.947 944.998 611.002 z"/>
<path transform="translate(0,0)" fill="rgb(254,254,254)" d="M 929.271 620.97 C 932.13 615.275 933.228 615.535 939.153 614.148 L 941.359 615.741 C 941.127 619.778 935.059 625.265 932.045 628.398 C 930.96 625.916 930.173 623.52 929.271 620.97 z"/>
<path transform="translate(0,0)" fill="rgb(243,236,254)" d="M 864.104 1555.75 L 929.062 1555.76 C 929.53 1567.1 931.598 1581.97 931.752 1592.02 C 932.04 1610.82 932.374 1617.19 935.163 1635.67 C 913.174 1635.47 889.081 1632.71 867.004 1630.63 C 867.229 1637.04 867.695 1643.01 866.867 1649.36 C 865.784 1642.77 865.756 1624.15 865.588 1616.7 L 864.104 1555.75 z"/>
<path transform="translate(0,0)" fill="rgb(254,254,254)" d="M 867.004 1630.63 C 889.081 1632.71 913.174 1635.47 935.163 1635.67 C 938.336 1657.46 942.112 1677.75 948.61 1698.89 C 931.415 1698.04 884.715 1699.01 867.942 1700.99 C 867.316 1684.87 866.301 1665.43 866.867 1649.36 C 867.695 1643.01 867.229 1637.04 867.004 1630.63 z"/>
<path transform="translate(0,0)" fill="rgb(254,254,254)" d="M 1163.78 1628.2 C 1164.1 1625.92 1164.45 1623.64 1164.84 1621.37 C 1167.54 1619.65 1208.61 1610.5 1214.2 1609.12 C 1213.71 1640.39 1212.38 1672.01 1212.04 1703.1 C 1211.1 1704.92 1210.85 1706.38 1208.93 1706.34 C 1201.85 1706.2 1163.97 1704.77 1160.46 1702.27 C 1164.17 1675.24 1164.01 1655.36 1163.78 1628.2 z"/>
<path transform="translate(0,0)" fill="rgb(243,236,254)" d="M 1164.44 1555.82 L 1215.94 1555.78 C 1214.7 1573.27 1215.32 1591.29 1214.2 1609.12 C 1208.61 1610.5 1167.54 1619.65 1164.84 1621.37 C 1164.45 1623.64 1164.1 1625.92 1163.78 1628.2 C 1160.27 1601.41 1161.55 1582.15 1164.44 1555.82 z"/>
<path transform="translate(0,0)" fill="rgb(243,236,254)" d="M 993.095 555.268 C 991.939 553.136 992.18 554.303 992.518 551.739 C 995.379 550.326 998.301 551.06 1001.62 551.37 C 1009.14 555.603 1012.08 557.652 1018.01 564.47 L 1014.53 566.926 C 1012.14 570.551 1007.1 573.4 1003.49 576.212 C 991.045 585.905 984.612 594.183 978.459 608.442 C 975.297 604.704 974.972 603.499 970.186 605.058 C 967.189 608.178 966.454 611.002 964.857 615.012 C 962.223 610.03 957.83 602.753 958.628 597.245 C 965.316 590.89 990.513 562.845 993.095 555.268 z"/>
<path transform="translate(0,0)" fill="rgb(27,35,109)" d="M 993.095 555.268 C 991.939 553.136 992.18 554.303 992.518 551.739 C 995.379 550.326 998.301 551.06 1001.62 551.37 C 1009.14 555.603 1012.08 557.652 1018.01 564.47 L 1014.53 566.926 C 1012.89 565.266 1011.21 563.635 1009.51 562.032 C 1004.14 557.024 1000.38 555.052 993.095 555.268 z"/>
<path transform="translate(0,0)" fill="rgb(254,254,254)" d="M 1010.62 540.243 C 1013.97 547.02 1019.06 556.714 1018.01 564.47 C 1012.08 557.652 1009.14 555.603 1001.62 551.37 C 1003.81 547.996 1007.91 543.441 1010.62 540.243 z"/>
<path transform="translate(0,0)" fill="rgb(254,254,254)" d="M 1127.1 803.566 C 1173.07 815.607 1202.81 823.55 1218.51 872.396 C 1230.9 910.946 1237.08 947.656 1242.68 987.779 C 1240.83 989.409 1238.94 990.981 1237 992.492 C 1220.5 1005.09 1185.58 1003.44 1166.33 1000.74 C 1175.87 958.435 1179.4 941.415 1171.91 897.942 C 1175.07 889.831 1177.81 883.844 1176.77 875.121 L 1175.45 874.836 C 1172.61 878.897 1171.99 883.953 1170.88 888.924 C 1169.4 883.957 1169.03 878.243 1165.6 874.69 C 1163.36 877.609 1170.29 918.741 1171.19 927.05 C 1176.68 977.721 1143.63 1039.18 1148.89 1087.79 C 1132.91 1093.11 1117.2 1099.2 1101.81 1106.05 C 1069.62 1099.23 1038.3 1093.36 1005.54 1089.79 C 990.798 1088.18 975.143 1089.28 961.832 1087.97 L 959.948 1087.78 C 952.474 1044.11 925.738 1005.25 923.97 960.528 C 922.978 935.417 928.018 909.253 932.917 884.682 C 933.884 879.831 935.162 875.34 935.307 870.368 L 933.85 869.488 C 929.745 872.358 929.02 881.146 927.696 886.968 C 925.06 881.203 922.911 871.44 917.957 867.934 C 916.59 874.51 923.512 888.006 926.523 893.762 C 920.08 928.041 915.912 957.963 924.566 992.248 C 904.41 992.088 877.94 983.953 860.085 974.97 C 863.745 959.12 867.307 943.248 870.77 927.354 C 875.712 904.128 879.158 880.624 889.58 859.239 C 910.522 816.271 948.602 819.703 988.613 806.339 C 998.027 822.973 1012.34 837.488 1031.2 842.009 C 1065.06 850.125 1116.59 841.855 1127.1 803.566 z"/>
<path transform="translate(0,0)" fill="rgb(27,35,109)" d="M 1073.26 942.675 C 1074.54 943.716 1074.37 943.766 1075.34 945.172 C 1073.62 961.685 1042.12 1005.3 1029.59 1019.29 C 1027.83 1017.58 1028.32 1018.31 1027.51 1016.02 C 1030.12 1011.52 1034.66 1006.1 1038.26 1002.12 C 1054.03 984.662 1061.39 961.796 1073.26 942.675 z"/>
<path transform="translate(0,0)" fill="rgb(27,35,109)" d="M 1068.99 985.514 L 1071.34 986.417 L 1071.77 988.373 C 1069.51 992.666 1064.61 996.909 1061.03 1000.45 L 1058.94 999.816 L 1058.31 998.089 C 1060.41 993.72 1065.47 989.152 1068.99 985.514 z"/>
<path transform="translate(0,0)" fill="rgb(254,254,254)" d="M 983.703 1176.32 C 1001.68 1174.9 1018.62 1176.47 1029.71 1192.91 C 1045.75 1216.67 1046.97 1262.2 1046.61 1289.97 C 1046.08 1330.86 1034.07 1373.36 1025.9 1413.07 C 1021.8 1433.02 1018.2 1451.42 1015.37 1471.58 C 985.642 1487.88 962.011 1492.12 928.552 1486.01 C 923.433 1449.33 920.757 1426.92 921.115 1390.2 C 922.76 1362.95 925.039 1337.01 930.207 1310.13 C 934.135 1289.7 944.101 1272.25 936.829 1251.93 C 939.536 1247.42 942.039 1244.49 941.83 1239.32 L 940.433 1238.89 C 936.603 1241.57 935.14 1245.63 932.911 1249.92 C 933.386 1245.98 934.808 1239.62 933.052 1236.5 L 931.302 1236.26 C 927.249 1242.01 931.871 1245.65 925.968 1249.18 L 925.067 1248.57 C 926.63 1245.39 927.143 1245.73 926.641 1242.89 C 913.129 1237.97 882.51 1253.09 871.179 1261.04 C 873.981 1244.62 882.138 1222.98 890.623 1208.43 C 897.401 1196.81 914.195 1195.11 927.162 1192.3 C 921.762 1195.72 902.958 1206.84 901.159 1212.02 L 902.49 1213.52 C 904.725 1213.01 915.996 1204.73 919.273 1202.63 C 940.051 1189.31 959.154 1180.04 983.703 1176.32 z"/>
<path transform="translate(0,0)" fill="rgb(254,254,254)" d="M 1118.41 1166.16 C 1145.75 1164.67 1164.7 1173 1183.13 1194.87 C 1186.04 1198.32 1188.68 1207.06 1192.4 1208.78 L 1194.28 1207.6 C 1195.11 1199.14 1178.51 1183.09 1172.5 1177.64 C 1181.6 1179.6 1186.47 1181.57 1194.58 1185.79 C 1204.62 1204.95 1208.45 1217.03 1213.89 1237.53 C 1206.48 1237.05 1199.13 1238 1192.06 1236.58 L 1190.15 1233.39 L 1188.54 1233.06 C 1186.25 1235.4 1187.04 1235.11 1186.93 1239.56 L 1185.49 1240.54 C 1182.51 1237.35 1181.05 1235.68 1177.65 1233.03 L 1176.66 1233.73 C 1176.62 1237.13 1178.02 1239.47 1179.4 1242.62 C 1169.66 1258.68 1169.39 1264.36 1177.61 1280.77 C 1176.26 1284.56 1171.69 1295.26 1171.45 1298.59 C 1170.29 1314.56 1173.37 1331.79 1173.53 1348.07 C 1173.81 1375.21 1172.38 1401.77 1170.18 1428.75 C 1169.63 1440.74 1168.42 1453.82 1167.63 1465.94 C 1139.85 1477.38 1108.47 1486.05 1078.31 1481.86 C 1074.77 1441.19 1070.2 1400.62 1064.59 1360.18 C 1060.24 1330.8 1050.93 1297.32 1052.1 1268.02 C 1053.82 1225.02 1072 1176.05 1118.41 1166.16 z"/>
<path transform="translate(0,0)" fill="rgb(254,254,254)" d="M 1230.36 1001.09 L 1230.98 1001.15 C 1232.85 1003.05 1232.96 1003.92 1233.13 1007.35 C 1234.99 1043.61 1238.89 1081.68 1236.13 1117.86 C 1235.76 1122.81 1232.46 1130.43 1229.21 1134.04 C 1214.94 1149.91 1187.15 1152.78 1167.37 1157.53 C 1161.74 1158.89 1146.14 1162.35 1141.55 1162.48 C 1129.32 1162.84 1124.77 1159.75 1111.56 1162.96 C 1097.89 1166.28 1091.41 1174.74 1081.13 1179.42 C 1070.23 1184.38 1044.51 1187.01 1031.93 1188.37 C 1029.64 1185.63 1027.12 1183.11 1024.4 1180.81 C 1009.67 1168.49 989.223 1169.99 971.724 1174.48 C 963.799 1176.52 956.618 1179.76 948.47 1180.35 C 942.755 1175.72 935.654 1173 933.344 1167.85 C 936.732 1163.77 980.276 1174.23 990.057 1166.77 L 990.203 1165.03 C 984.551 1161.31 934.017 1170.68 928.19 1155.47 L 929.468 1153.66 C 937.001 1150.11 940.247 1152.04 948.775 1153.88 C 952.51 1154.34 956.254 1154.72 960.004 1155.02 C 966.734 1155.52 989.78 1156.03 994.555 1151.93 C 991.298 1148.38 932.901 1154.39 930.458 1142.72 C 937.652 1127.5 985.458 1147.44 995.849 1136.07 C 993.022 1132.36 984.009 1132.58 981.207 1127.62 L 982.611 1125.72 C 1003 1115.23 1038.44 1120.39 1059.96 1126.18 C 1071.83 1129.36 1085.12 1118.29 1095.6 1113.47 C 1116.7 1103.92 1138.34 1095.6 1160.39 1088.54 C 1166.43 1086.67 1195.02 1080.81 1194.77 1075.83 C 1188.97 1074.35 1170.98 1080.81 1164.41 1082.82 C 1158.03 1041.65 1156.18 1045.1 1165.5 1005.21 C 1188.73 1007.97 1208.08 1008.5 1230.36 1001.09 z"/>
<path transform="translate(0,0)" fill="rgb(254,254,254)" d="M 799.917 1473.54 L 915.804 1473.51 C 919.806 1497.41 919.8 1523.28 929.084 1545.25 C 930.063 1547.56 928.914 1549.14 927.843 1550.94 C 922.068 1552.46 869.008 1551.71 859.932 1551.68 L 862.015 1635.25 C 862.648 1657.33 862.898 1679.25 863.948 1701.33 L 820.839 1701.36 C 812.11 1634.72 801.615 1540.73 799.917 1473.54 z"/>
<path transform="translate(0,0)" fill="rgb(254,254,254)" d="M 866.062 983.134 C 891.253 991.327 898.152 994.599 925.654 996.917 C 929.979 1011.42 938.101 1030.1 941.77 1043.27 C 943.595 1049.82 943.113 1078.98 943.883 1089.46 C 937.375 1090 923.053 1091.31 917.23 1093.74 L 917.052 1095.36 C 918.927 1096.33 921.529 1096.63 923.576 1096.29 C 982.982 1086.58 1035.92 1097.51 1094.91 1108.94 C 1087.42 1112.96 1075.75 1119.92 1067.69 1121.4 C 1056.69 1123.42 1045.31 1117.13 1033.35 1116.24 C 1023.31 1115.49 1016.04 1115.72 1006.02 1115.99 C 996.769 1117.13 977.598 1117.1 976.03 1127.86 C 977.259 1131.88 978.052 1132.2 981.294 1135.18 C 969.636 1134.8 941.185 1130.15 931.223 1134.89 C 926.631 1135.58 926.954 1148.32 926.987 1148.28 C 914.228 1162.74 941.778 1178.26 941.638 1184.43 C 936.703 1186.86 909.311 1191.7 899.027 1194.98 C 906.012 1184.61 912.892 1176.95 921.278 1167.9 C 909.392 1168.15 892.55 1169.26 883.693 1160.2 C 868.322 1144.48 869.803 1111.76 868.548 1091.55 C 866.297 1055.31 867.522 1019.16 866.062 983.134 z"/>
<path transform="translate(0,0)" fill="rgb(254,254,254)" d="M 1048.66 596.262 C 1048.74 602.052 1048.12 607.727 1047.61 613.491 C 1048.62 616.238 1049.97 619.467 1050.46 622.298 C 1051.24 629.035 1046.9 633.453 1049.84 639.111 C 1054.91 636.534 1055.95 615.975 1056.33 610.486 C 1057.47 616.068 1058.07 627.837 1060.5 630.613 C 1065.09 624.284 1060.45 607.155 1058.87 599.349 C 1062.56 606.193 1071.42 628.904 1075.52 631.627 L 1076.68 630.186 C 1075.16 623.854 1071.89 616.703 1069.59 610.383 C 1072.85 613.942 1073.25 614.394 1079.39 621.037 C 1089.31 631.77 1102.83 645.508 1113.4 656.292 C 1113.41 656.981 1113.41 657.671 1113.42 658.361 L 1111.52 661.378 L 1114.55 664.706 C 1116.48 691.981 1103.4 738.759 1073.99 747.735 C 1016.2 765.374 999.692 708.711 985.21 666.701 C 1012.09 646.039 1023.33 630.659 1041.91 603.43 C 1039.11 612.347 1028.4 631.84 1028.77 636.304 C 1038.05 631.55 1045.68 606.14 1048.66 596.262 z"/>
<path transform="translate(0,0)" fill="rgb(27,35,109)" d="M 1114.55 664.706 C 1110.52 672.503 1111.58 678.518 1108.19 686.142 L 1106.88 686.562 L 1105.83 684.678 C 1105.37 677.566 1107.51 667.338 1111.52 661.378 L 1114.55 664.706 z"/>
<path transform="translate(0,0)" fill="rgb(27,35,109)" d="M 1050.46 622.298 C 1048.78 626.799 1048.7 627.409 1045.83 631.13 L 1044.33 631.147 C 1044.1 624.893 1046.1 619.747 1047.61 613.491 C 1048.62 616.238 1049.97 619.467 1050.46 622.298 z"/>
<path transform="translate(0,0)" fill="rgb(27,35,109)" d="M 1051.22 641.261 L 1054.16 642.752 C 1060.87 653.641 1050.92 664.608 1051.34 675.543 C 1051.53 680.394 1056.39 683.873 1056.88 690.427 L 1053.53 689.434 C 1039.79 676.341 1053.11 663.864 1051.61 649.229 C 1051.23 645.631 1051.16 644.975 1051.22 641.261 z"/>
<path transform="translate(0,0)" fill="rgb(27,35,109)" d="M 1056.18 699.355 C 1062.64 698.871 1068.66 699.585 1074.53 702.278 L 1074.14 703.47 C 1068.43 705.109 1063.27 704.09 1057.18 703.683 C 1052.76 704.015 1041.85 706.782 1039.84 706.003 L 1039.4 703.83 C 1042.15 700.521 1051.68 699.9 1056.18 699.355 z"/>
<path transform="translate(0,0)" fill="rgb(27,35,109)" d="M 1061.59 631.758 C 1069.59 635.539 1075.02 646.279 1087.19 643.705 C 1091.74 642.742 1092.07 643.554 1093.79 647.048 C 1083.67 649.817 1059.44 645.283 1061.59 631.758 z"/>
<path transform="translate(0,0)" fill="rgb(27,35,109)" d="M 1038.58 634.515 L 1040.71 635.414 L 1041.52 637.505 C 1037.77 646.304 1025.67 651.789 1016.6 652.423 L 1014.73 649.759 L 1015.62 648.301 C 1027.02 646.36 1031.99 643.584 1038.58 634.515 z"/>
<path transform="translate(0,0)" fill="rgb(27,35,109)" d="M 1034.01 656.187 C 1035.16 656.491 1036.96 657.19 1038.14 657.606 C 1043.35 663.096 1041.37 667.986 1037.86 673.709 C 1028.77 670.201 1030.93 663.201 1034.01 656.187 z"/>
<path transform="translate(0,0)" fill="rgb(27,35,109)" d="M 1074.19 655.374 L 1077.97 656.348 C 1083.47 661.184 1081.43 666.648 1078.73 672.412 L 1075.12 671.387 C 1069.59 666.54 1071.54 661.237 1074.19 655.374 z"/>
<path transform="translate(0,0)" fill="rgb(27,35,109)" d="M 1052.13 710.028 C 1056.21 709.753 1060.18 708.688 1061.87 713.1 L 1060.56 714.145 L 1057.77 713.789 C 1054.01 714.884 1053.15 715.565 1049.81 714.577 C 1049.9 711.458 1049.56 713.013 1052.13 710.028 z"/>
<path transform="translate(0,0)" fill="rgb(243,236,254)" d="M 1020.46 1473.6 L 1073.02 1473.58 C 1075.35 1491.97 1075.83 1512.81 1078.81 1530.94 C 1080.4 1540.6 1085.21 1532.9 1085.25 1551.75 L 1085.02 1555.79 C 1084.18 1570.34 1083.17 1582.68 1080.27 1597.14 C 1069.05 1603.65 1070.87 1607.96 1075.57 1618.38 C 1073.68 1624.85 1072.32 1629.58 1069.74 1635.82 C 1063.87 1650.3 1057.15 1665.68 1051.64 1680.12 C 1044.87 1666.47 1038.41 1652.66 1032.27 1638.72 C 1028.9 1631.34 1020.12 1614.76 1021.32 1607.22 C 1023.31 1594.77 1017.69 1595.87 1014.36 1590.04 C 1011.17 1584.46 1008.06 1562.54 1009.75 1555.75 L 1010.27 1551.94 C 1008.74 1549.74 1008.33 1542.74 1008.88 1540.27 C 1013.84 1518.09 1017.24 1496.1 1020.46 1473.6 z"/>
<path transform="translate(0,0)" fill="rgb(254,254,254)" d="M 1020.46 1473.6 L 1073.02 1473.58 C 1075.35 1491.97 1075.83 1512.81 1078.81 1530.94 C 1080.4 1540.6 1085.21 1532.9 1085.25 1551.75 C 1066.65 1551.68 1027.64 1550.45 1010.27 1551.94 C 1008.74 1549.74 1008.33 1542.74 1008.88 1540.27 C 1013.84 1518.09 1017.24 1496.1 1020.46 1473.6 z"/>
<path transform="translate(0,0)" fill="rgb(254,254,254)" d="M 1032.27 1638.72 C 1034.42 1635.49 1065.55 1634.23 1069.74 1635.82 C 1063.87 1650.3 1057.15 1665.68 1051.64 1680.12 C 1044.87 1666.47 1038.41 1652.66 1032.27 1638.72 z"/>
<path transform="translate(0,0)" fill="rgb(27,35,109)" d="M 1085.25 1551.75 L 1085.02 1555.79 L 1009.75 1555.75 L 1010.27 1551.94 C 1027.64 1550.45 1066.65 1551.68 1085.25 1551.75 z"/>
<path transform="translate(0,0)" fill="rgb(254,254,254)" d="M 1088.17 745.239 C 1090.82 749.034 1092.13 774.684 1097.2 783.424 C 1104.87 796.653 1109.4 798.308 1123.23 802.837 C 1120.61 809.274 1119.36 813.435 1114.48 818.85 C 1094.53 840.965 1054.65 844.629 1028.03 836.482 C 1012.22 830.134 1000.91 820.107 993.201 804.925 C 1025.28 791.556 1025.13 782.352 1027.35 749.053 C 1050.56 757.447 1066.05 757.584 1088.17 745.239 z"/>
<path transform="translate(0,0)" fill="rgb(254,254,254)" d="M 1164.5 1471.97 L 1165.9 1471.83 C 1167.62 1475.15 1164.1 1512.29 1163.65 1519.59 C 1137.66 1535.71 1115.01 1538.35 1085.31 1533.09 C 1080.98 1528.63 1080.23 1496.8 1078.73 1486.68 C 1111.74 1489.03 1133.36 1483.47 1164.5 1471.97 z"/>
<path transform="translate(0,0)" fill="rgb(254,254,254)" d="M 916.209 1247.3 C 917.597 1247.05 917.96 1247.21 919.403 1247.33 C 919.091 1250.41 919.054 1250.33 919.634 1253.35 C 922.918 1255.23 923.451 1254.26 928.267 1253.59 L 929.303 1254.68 C 928.406 1260.88 917.528 1279.94 914.779 1288.12 C 905.893 1314.55 904.627 1339.51 903.805 1366.77 C 900.05 1364.19 897.067 1361.78 893.538 1358.94 C 868.049 1331.82 866.41 1303.08 869.564 1267.86 C 884.179 1255.82 897.844 1250.51 916.209 1247.3 z"/>
<path transform="translate(0,0)" fill="rgb(254,254,254)" d="M 1012.9 1478.04 L 1013.78 1479.08 C 1013.69 1487.35 1009.12 1517.36 1007.72 1526.38 C 984.807 1540.33 965.155 1547.08 938.726 1541.19 C 935.917 1531.8 932.554 1508.73 930.98 1504.8 L 929.532 1504.5 C 927.456 1508.08 928.148 1507.18 928.395 1512.08 C 929.047 1517.94 931.913 1532.91 932.058 1537.36 C 930.861 1535.52 928.071 1530.66 927.88 1528.75 C 927.101 1520.92 922.596 1496.03 923.204 1489.59 L 924.489 1489.86 C 925.146 1492.53 925.002 1492.78 926.546 1494.98 C 931.468 1494.54 928.305 1491.17 931.374 1491.51 C 962.688 1494.96 984.536 1492.29 1012.9 1478.04 z"/>
<path transform="translate(0,0)" fill="rgb(254,254,254)" d="M 1071.3 1701.77 L 1073.62 1701.94 L 1074.49 1702.96 C 1070.66 1705.24 1069.15 1705.66 1067.77 1709.34 C 1069.37 1711.96 1068.25 1711.06 1071.42 1711.91 C 1082.65 1706.4 1089.15 1731.09 1119.63 1714.33 C 1122.55 1715.95 1125.41 1717.7 1128.18 1719.57 C 1138.29 1726.47 1141.02 1731.69 1143.18 1742.77 C 1139.12 1748.1 1137.05 1749.81 1131.43 1753.31 C 1108.11 1762.48 1080.34 1761.02 1061.28 1743.2 C 1041.17 1724.39 1049.45 1712.07 1071.3 1701.77 z"/>
<path transform="translate(0,0)" fill="rgb(254,254,254)" d="M 1181.21 1248.67 C 1184.91 1255.67 1188.04 1271.03 1189.21 1278.96 C 1197.86 1337.89 1189.15 1395.51 1182.42 1454 C 1180.07 1456.55 1177.18 1459.23 1174.67 1461.68 L 1173.24 1461.76 C 1171.8 1458.22 1174.33 1436.54 1174.75 1431.19 C 1178.16 1387.88 1178.98 1345.79 1175.35 1302.5 C 1174.95 1297.82 1182.51 1284.45 1181.13 1279.88 C 1176.61 1264.9 1171.78 1264.48 1181.21 1248.67 z"/>
<path transform="translate(0,0)" fill="rgb(254,254,254)" d="M 1039.11 1701.27 C 1042.68 1701.02 1042.65 1700.4 1045.06 1701.96 C 1044.52 1717.63 1044.05 1723.26 1046.52 1738.53 C 1029.18 1753.17 1010.63 1757.88 988.673 1751.68 C 984.286 1749.97 980.512 1747.71 976.391 1745.44 C 982.45 1732.14 986.339 1725.74 998.904 1717.99 C 1026.16 1719.04 1020.6 1703.91 1039.11 1701.27 z"/>
<path transform="translate(0,0)" fill="rgb(254,254,254)" d="M 1192.06 1241.26 C 1198.95 1241.19 1207.56 1241.73 1214.57 1241.99 C 1220.5 1272.75 1220.58 1307.53 1205.96 1335.93 C 1203.05 1340.31 1200.48 1343.13 1197.07 1347.07 C 1197.13 1317.96 1195.72 1291.77 1191.47 1262.98 C 1190.94 1259.4 1192.02 1246.09 1192.06 1241.26 z"/>
<path transform="translate(0,0)" fill="rgb(254,254,254)" d="M 1161.72 1525.96 C 1164.18 1528.16 1160.79 1551.07 1160.3 1555.5 C 1137.83 1567.6 1119.61 1569.47 1095.35 1561.4 C 1092.84 1560.36 1092.96 1560.46 1090.95 1558.64 C 1089.22 1552.55 1089.82 1545.2 1089.74 1538.58 C 1117.8 1541.75 1136.79 1539.67 1161.72 1525.96 z"/>
<path transform="translate(0,0)" fill="rgb(254,254,254)" d="M 939.082 1631.87 C 947.91 1641.15 951.66 1634.76 957.537 1642.27 L 956.942 1644.17 C 954.055 1645.39 951.917 1645.9 950.07 1648.37 C 950.505 1651.69 949.871 1650.29 951.842 1652.79 C 962.139 1649.49 962.544 1657.97 965.034 1666.29 C 961.486 1668.42 959.759 1668.97 957.98 1672.55 C 959.8 1675.13 963.078 1674.78 967.223 1675.6 C 970.07 1679.4 972.075 1685.52 973.873 1690.09 C 969.713 1692.66 967.187 1693.19 965.479 1697.04 C 966.452 1700.34 965.527 1699.03 968.48 1701.03 C 971.43 1701.14 972.466 1699.91 974.947 1698.14 L 975.934 1697.42 C 978.68 1699.34 983.467 1707.2 984.424 1710.42 C 982.179 1712.42 980.136 1713.38 977.525 1714.82 C 976.428 1718.27 976.303 1716.67 977.602 1719.79 C 981.393 1721.55 979.472 1721.27 983.568 1720.71 C 984.908 1716.31 984.984 1715.17 989.628 1713.52 L 991.712 1714.72 L 991.539 1716.1 C 981.289 1727.25 977.99 1731.78 971.555 1745.28 C 954.365 1709.34 944.306 1671.25 939.082 1631.87 z"/>
<path transform="translate(0,0)" fill="rgb(254,254,254)" d="M 933.344 1258.58 C 938.843 1263.54 929.736 1292.67 928.135 1300.02 C 916.973 1351.26 913.45 1404.9 920.232 1456.99 C 921.348 1465.57 923.233 1474.84 923.361 1483.44 L 922.386 1484 L 921.518 1481.75 C 910.125 1402.64 893.128 1333.37 933.344 1258.58 z"/>
<path transform="translate(0,0)" fill="rgb(254,254,254)" d="M 1155.94 1612.46 C 1157 1613.05 1158.04 1613.28 1158.18 1614.34 C 1161.34 1637.79 1159.26 1681.44 1155.72 1703.39 C 1153.99 1714.71 1151.14 1725.83 1147.2 1736.59 C 1143.12 1726.96 1136.98 1722.19 1132.66 1713.08 C 1131.08 1709.75 1130.06 1708.48 1128.16 1705.47 L 1129.21 1701.73 C 1135.03 1694.6 1142.83 1700.04 1147.31 1692.65 C 1144.51 1686.38 1137.98 1687.27 1135.33 1681.95 L 1136.62 1679.75 C 1141.91 1679.35 1139.9 1683.33 1145.79 1683.66 C 1148.69 1681.48 1147.77 1682.85 1148.77 1679.48 C 1148.18 1674.89 1142.46 1670.48 1138.94 1667.42 C 1139.74 1664.12 1140.09 1661.51 1141.9 1658.64 C 1145.63 1656.7 1144.32 1657.61 1149.67 1658.35 C 1151.54 1655.78 1151.49 1653.32 1150.04 1650.64 C 1146.69 1649.69 1147.63 1650.31 1144.99 1648.38 C 1144.94 1643.89 1144.33 1645.15 1146.45 1641.84 C 1149.11 1640.87 1150.97 1640.55 1152.69 1638.35 C 1150.11 1626.93 1149.27 1623.18 1155.94 1612.46 z"/>
<path transform="translate(0,0)" fill="rgb(254,254,254)" d="M 968.959 1611.93 C 959.573 1609.71 954.198 1614.06 947.696 1608.04 C 940.451 1592.31 970.831 1567.24 987.246 1576.16 C 997.467 1581.71 998.102 1585.89 1001.87 1595.75 C 998.492 1598.4 995.154 1601.09 991.861 1603.84 C 990.924 1604.73 990.115 1605.19 989.782 1606.2 C 987.788 1610.28 985.485 1614.74 983.67 1618.86 C 978.935 1615.92 976.673 1614.24 971.203 1612.69 L 968.959 1611.93 z"/>
<path transform="translate(0,0)" fill="rgb(27,35,109)" d="M 968.959 1611.93 C 962.935 1605.22 959.943 1596.49 967.297 1589.39 C 970.655 1586.2 975.13 1584.45 979.762 1584.52 C 990.626 1584.71 992.589 1595.02 991.861 1603.84 C 990.924 1604.73 990.115 1605.19 989.782 1606.2 C 987.788 1610.28 985.485 1614.74 983.67 1618.86 C 978.935 1615.92 976.673 1614.24 971.203 1612.69 L 968.959 1611.93 z"/>
<path transform="translate(0,0)" fill="rgb(254,254,254)" d="M 971.203 1612.69 C 979.12 1611.53 983.02 1610.41 989.782 1606.2 C 987.788 1610.28 985.485 1614.74 983.67 1618.86 C 978.935 1615.92 976.673 1614.24 971.203 1612.69 z"/>
<path transform="translate(0,0)" fill="rgb(254,254,254)" d="M 977.694 1589.01 C 980.268 1588.79 980.252 1588.87 982.811 1589.4 C 992.402 1596.72 987.414 1603.8 977.821 1607.05 C 974.883 1607.71 974.905 1607.59 971.861 1607.3 C 966.065 1603.45 966.515 1600.41 969.068 1594.32 C 970.346 1591.27 974.774 1590.1 977.694 1589.01 z"/>
<path transform="translate(0,0)" fill="rgb(27,35,109)" d="M 977.667 1593.85 C 980.45 1593.86 979.776 1593.82 982.48 1594.42 L 983.122 1595.88 C 980.986 1598.57 978.991 1598.81 975.699 1599.91 L 973.195 1600.71 L 972.243 1599.42 C 974.143 1595.14 973.143 1596.61 977.667 1593.85 z"/>
<path transform="translate(0,0)" fill="rgb(254,254,254)" d="M 1079.68 1621.95 C 1083.25 1623.94 1088.76 1625.38 1087.35 1629.99 C 1082.96 1632.68 1079.82 1633.37 1079.59 1638.68 C 1082.84 1639.67 1083.54 1639.63 1086.26 1641.72 C 1087.14 1649.28 1081.95 1649.11 1076.47 1649.86 C 1073.75 1652.39 1074.67 1650.86 1073.99 1654.82 L 1075.14 1656.18 C 1077.99 1655.94 1079.38 1655.84 1082.3 1655.91 L 1083.17 1657.66 C 1080.46 1670.09 1071.19 1661.84 1070.61 1670.53 C 1073.03 1673.19 1074.63 1672.27 1079.54 1672.66 L 1079.84 1674.19 C 1076.64 1684.91 1070.16 1686.31 1068.98 1690.22 C 1070.47 1692.59 1072.41 1693 1075.05 1694.11 L 1074.43 1696.33 C 1062.4 1700.6 1057.03 1703.74 1048.33 1713.07 C 1051.67 1687.78 1057.5 1678.61 1067.53 1655.47 C 1071.57 1646.14 1076.29 1631.79 1079.68 1621.95 z"/>
<path transform="translate(0,0)" fill="rgb(254,254,254)" d="M 1003.57 1534 C 1005.48 1536.61 1004.16 1544.62 1003.93 1548.81 C 980.028 1561.86 960.919 1565.64 933.942 1561.61 C 933.312 1555.6 933.363 1549.61 933.292 1543.56 C 957.946 1553.08 981.113 1545.3 1003.57 1534 z"/>
<path transform="translate(0,0)" fill="rgb(254,254,254)" d="M 1117.67 685.773 C 1118.56 680.692 1120.35 666.3 1122.67 662.851 C 1135.45 654.661 1147.78 681.34 1143.7 693.502 C 1139.98 704.591 1125.32 716.781 1114.61 717.697 C 1111.32 716.407 1112.51 717.484 1110.89 714.409 C 1110.74 705.451 1116.16 695.576 1121.02 688.194 L 1123.66 685.409 C 1127.18 682.069 1130.24 679.385 1134.82 677.556 C 1137.41 676.521 1137.04 675.732 1137.6 673.37 L 1137.58 674.968 L 1135.78 673.254 C 1126.14 676.148 1124.49 678.024 1117.67 685.773 z"/>
<path transform="translate(0,0)" fill="rgb(27,35,109)" d="M 1121.02 688.194 L 1123.66 685.409 C 1127.34 689.88 1130.84 697.839 1127.79 703.345 C 1123.98 700.719 1124.03 693.45 1121.02 688.194 z"/>
<path transform="translate(0,0)" fill="rgb(254,254,254)" d="M 966.192 677.596 L 968.492 677.027 C 975.443 678.357 978.922 683.288 983.878 688.476 C 979.441 691.688 972.171 702.021 976.042 706.87 L 979.097 707.088 L 980.205 705.947 C 980.255 701.07 980.281 697.84 982.998 693.681 L 984.927 693.502 C 989.987 697.425 993.013 699.396 995.351 705.252 L 998.509 711.936 C 998.268 715.679 998.913 714.031 996.285 716.96 C 977.404 723.113 940.979 683.718 966.192 677.596 z"/>
<path transform="translate(0,0)" fill="rgb(254,254,254)" d="M 1051.1 1737.76 C 1055.67 1741.43 1057.2 1747.44 1065.27 1752.71 C 1078.89 1761.58 1095.72 1763.94 1111.67 1763.13 C 1114.82 1762.97 1126.36 1759.5 1131.25 1758.62 L 1131.91 1759.4 L 1128.95 1762.07 C 1123.21 1765.68 1116.94 1768.4 1110.38 1770.13 C 1090.64 1775.3 1066.78 1770.37 1055.57 1751.68 C 1053.54 1748.29 1052.11 1741.73 1051.1 1737.76 z"/>
<path transform="translate(0,0)" fill="rgb(254,254,254)" d="M 993.299 1648.86 C 1000.96 1648.81 1011.08 1651.38 1018.74 1653.13 C 1012.67 1657.99 1002.45 1668.33 995.75 1668.34 C 986.34 1668.75 976.645 1669.63 967.23 1670.35 C 976.378 1660.85 982.314 1656.21 993.299 1648.86 z"/>
<path transform="translate(0,0)" fill="rgb(254,254,254)" d="M 1121.44 1579.24 C 1136.49 1578.78 1141.02 1582.94 1149.49 1594.62 C 1140.85 1594.1 1138.86 1595.77 1130.77 1599.12 L 1129.65 1592.61 C 1127.51 1590.46 1125.86 1590.54 1122.8 1589.98 L 1121.56 1589.77 C 1107.64 1589.57 1108.9 1592.66 1106.74 1605.51 C 1103.63 1603.08 1099.84 1600.72 1096.52 1598.53 C 1103.46 1586.71 1108.78 1582.93 1121.44 1579.24 z"/>
<path transform="translate(0,0)" fill="rgb(254,254,254)" d="M 1047.08 1743.95 C 1062.31 1755.21 1013.61 1778.17 981.417 1757.35 C 978.98 1755.17 978.645 1755.08 976.907 1752.2 C 979.589 1751.67 989.789 1757.23 995.282 1758.06 C 1015.99 1761.2 1030.71 1755.35 1047.08 1743.95 z"/>
<path transform="translate(0,0)" fill="rgb(254,254,254)" d="M 1050.3 1306.7 C 1052.65 1313.96 1059.45 1352.21 1059.73 1360.19 C 1057.69 1362.61 1057.23 1361.99 1053.38 1362.89 C 1049.34 1363.23 1045.17 1363.29 1041.11 1363.42 C 1045.88 1343.7 1047.09 1326.26 1050.3 1306.7 z"/>
<path transform="translate(0,0)" fill="rgb(254,254,254)" d="M 1113.58 1679.39 C 1118.04 1678.63 1125.96 1683.28 1130.29 1685.42 C 1130 1686.68 1129.33 1690.11 1128.79 1691.08 C 1124.82 1698.18 1110.13 1696.61 1105.09 1693.9 C 1096.42 1690.41 1089.66 1688.6 1080.56 1686.97 C 1092.81 1682.05 1100.4 1681.21 1113.58 1679.39 z"/>
<path transform="translate(0,0)" fill="rgb(254,254,254)" d="M 1000.97 1672.84 C 1007.95 1672.48 1023 1670.8 1025.56 1678.66 C 1022.59 1685.81 1011.32 1687.25 1004.5 1687.7 C 994.89 1688.48 987.358 1690.08 978.003 1692.02 C 985.42 1685.63 993.419 1679.14 1000.97 1672.84 z"/>
<path transform="translate(0,0)" fill="rgb(254,254,254)" d="M 1016.46 1691.39 C 1021.49 1691.1 1023.88 1690.17 1027.54 1693.74 C 1029.61 1704.77 1014.13 1712.11 1005.1 1714.2 C 1000.68 1713.67 996.358 1714.14 994.399 1709.91 C 996.532 1703.44 1010.21 1695.65 1016.46 1691.39 z"/>
<path transform="translate(0,0)" fill="rgb(254,254,254)" d="M 1107.37 1659.1 C 1113.6 1657.89 1130 1664.87 1132.47 1671.48 L 1131 1673.26 C 1126.17 1675.05 1121.07 1674.31 1115.8 1674.09 C 1103.47 1670.18 1095.84 1668.86 1082.99 1667.48 C 1091.84 1663.76 1098.14 1661.78 1107.37 1659.1 z"/>
<path transform="translate(0,0)" fill="rgb(254,254,254)" d="M 1159.01 1561.13 C 1159.08 1561.33 1156.81 1598.58 1157.13 1604.59 C 1152.54 1592.68 1151.93 1588.75 1142.79 1580.14 C 1139.03 1578.19 1134.73 1576.82 1132.67 1573.13 L 1133.27 1571.09 C 1136.61 1568.41 1140.36 1568.13 1144.67 1567.22 C 1144.25 1572.05 1143.38 1575.59 1145.96 1579.65 L 1147.5 1578.93 C 1149.61 1574.77 1149 1570.66 1148.94 1565.84 L 1159.01 1561.13 z"/>
<path transform="translate(0,0)" fill="rgb(254,254,254)" d="M 1090.14 1563.97 C 1101.58 1567.64 1095.86 1571.16 1097.55 1581 L 1099.07 1581.81 C 1102.78 1577.96 1099.05 1570.64 1106.26 1568.03 C 1109.72 1569 1109.69 1569.25 1112.33 1571.53 L 1112.36 1573.93 C 1109.84 1578.53 1109.49 1579.11 1104.93 1581.65 C 1098.38 1586.67 1094.75 1594.76 1090.08 1597.66 L 1088.5 1597.05 C 1086.16 1591.59 1089.52 1571.29 1090.14 1563.97 z"/>
<path transform="translate(0,0)" fill="rgb(254,254,254)" d="M 1105.52 1701.27 C 1111.34 1700.29 1115.78 1704.22 1120.86 1707.44 C 1112.4 1714.24 1108.21 1715.39 1097.64 1716.11 C 1093.09 1715.13 1084.19 1712.78 1082.46 1708.21 C 1085.49 1703.71 1099.82 1702.27 1105.52 1701.27 z"/>
<path transform="translate(0,0)" fill="rgb(254,254,254)" d="M 1180.02 1463.07 C 1181.72 1466.61 1176.5 1502.41 1175.41 1510.04 L 1169.24 1516.11 C 1167.35 1513.57 1171.27 1474.94 1171.78 1468.66 L 1180.02 1463.07 z"/>
<path transform="translate(0,0)" fill="rgb(254,254,254)" d="M 1060.7 1205.57 L 1062.07 1205.47 C 1062.52 1208.07 1057.97 1216.9 1056.81 1220.2 C 1053.6 1229.39 1051.56 1238.05 1049.59 1247.52 L 1048.73 1246.75 C 1047.43 1229.89 1046.86 1221.87 1041.68 1205.91 C 1048.81 1206.29 1053.55 1206.01 1060.7 1205.57 z"/>
<path transform="translate(0,0)" fill="rgb(254,254,254)" d="M 1074.19 1186.36 L 1074.74 1187.38 C 1072.05 1191.66 1069.08 1195.79 1066.17 1199.94 C 1055.04 1201.9 1050.65 1202.8 1039.48 1200.69 L 1034.74 1192.38 C 1047.84 1191.38 1061.29 1188.81 1074.19 1186.36 z"/>
<path transform="translate(0,0)" fill="rgb(254,254,254)" d="M 1003.71 1553.95 C 1004.98 1559.22 1007.43 1583.15 1005.76 1588.09 C 1000.68 1585.94 999.869 1576.26 988.732 1571.75 C 984.804 1570.94 979.844 1570.44 980.779 1565.34 C 983.446 1561.97 986.6 1561.53 990.821 1560.15 C 992.153 1564.74 992.613 1568.43 995.988 1571.6 L 997.406 1571.12 C 998.318 1566.71 996.434 1563.05 994.919 1558.61 L 1003.71 1553.95 z"/>
<path transform="translate(0,0)" fill="rgb(254,254,254)" d="M 934.228 1565.41 L 937.989 1566.88 C 940.445 1570.5 938.845 1577.88 940.727 1584.33 L 942.187 1583.92 C 944.876 1578.54 941.847 1569.66 946.054 1567.21 C 950.256 1570.45 948.676 1577.8 950.426 1583.42 L 949.329 1585.43 C 943.58 1594.48 945.24 1598.07 940.317 1606.18 L 937.631 1605.53 C 936.208 1597.73 934.088 1572.84 934.228 1565.41 z"/>
<path transform="translate(0,0)" fill="rgb(254,254,254)" d="M 1117 1640.15 C 1124.41 1638.58 1131.45 1645.18 1136.91 1649.5 C 1127.9 1650.22 1120.33 1651.64 1111.55 1653.64 C 1109.63 1653.46 1096.02 1650.11 1091.89 1649.39 C 1100.7 1645.03 1107.62 1642.73 1117 1640.15 z"/>
<path transform="translate(0,0)" fill="rgb(254,254,254)" d="M 1176.01 1160.31 C 1180.2 1163.61 1187.11 1173.79 1190.26 1178.26 C 1183.43 1175.93 1179.81 1174.9 1172.75 1173.42 C 1163.79 1172.92 1159 1169.58 1150.85 1165.62 C 1158.67 1163.65 1168.01 1161.96 1176.01 1160.31 z"/>
<path transform="translate(0,0)" fill="rgb(254,254,254)" d="M 1042.79 1673.99 C 1045.51 1677.06 1047.67 1682.51 1049.47 1686.39 L 1046.6 1695.95 C 1042.91 1696.5 1034.82 1698.39 1031.95 1696.63 L 1032.36 1693.17 L 1034.41 1692.07 C 1037.7 1695.06 1038.12 1694.86 1042.19 1694.08 C 1044.13 1691.21 1043.49 1692.85 1043.37 1688.78 C 1039.13 1683.74 1037.18 1689.9 1032.33 1686.53 C 1031.21 1679.93 1037.36 1678.29 1042.79 1673.99 z"/>
<path transform="translate(0,0)" fill="rgb(254,254,254)" d="M 975.602 660.819 C 981.986 662.494 985.235 679.19 987.42 685.795 L 980.207 678.214 C 974.391 673.667 965.324 673.062 963.512 669.228 C 965.618 665.64 971.808 662.515 975.602 660.819 z"/>
<path transform="translate(0,0)" fill="rgb(254,254,254)" d="M 1009.74 1633.35 L 1011 1633.38 C 1010.42 1635.15 995.446 1642.53 992.649 1644.04 C 984.121 1643.98 977.657 1643.85 969.236 1644.83 L 968.026 1644.63 L 968.424 1643.48 C 980.607 1636.73 995.744 1635.46 1009.74 1633.35 z"/>
<path transform="translate(0,0)" fill="rgb(254,254,254)" d="M 959.078 1619.26 C 965.341 1619.16 977.631 1620.79 980.847 1626.78 C 979.53 1629.38 980.389 1628.22 977.721 1629.87 C 970.326 1629.57 961.834 1631.14 956.748 1626.18 C 955.223 1622.41 955.101 1624.06 955.695 1620.72 L 959.078 1619.26 z"/>
<path transform="translate(0,0)" fill="rgb(254,254,254)" d="M 1140.41 1598.93 C 1157.41 1597.69 1152.69 1610.86 1144.77 1618.64 C 1140.87 1622.46 1137.44 1623.7 1132.64 1625.76 C 1138.43 1621.05 1142.03 1617.9 1147.32 1612.66 C 1148.32 1608.64 1148.41 1610.54 1147.3 1606.75 C 1138.02 1599.37 1128.56 1611.75 1121.94 1618.2 C 1128.27 1608.38 1130.68 1604.98 1140.41 1598.93 z"/>
<path transform="translate(0,0)" fill="rgb(254,254,254)" d="M 884.466 1358.89 C 887.628 1359.06 886.39 1358.79 889.281 1360.64 L 889.201 1362.19 C 876.218 1366.47 868.671 1369.93 858.645 1379.02 C 857.182 1380.37 857.947 1379.78 855.643 1380.27 L 854.697 1378.48 C 857.936 1368.88 875.623 1362.07 884.466 1358.89 z"/>
<path transform="translate(0,0)" fill="rgb(254,254,254)" d="M 1000.94 1692.38 C 1003.6 1692 1002.78 1692.07 1005.51 1692.45 C 1004.09 1695.54 991.973 1704.26 988.615 1706.88 C 985.266 1703.62 983.383 1699.83 980.98 1695.78 C 987.876 1694.32 993.96 1693.4 1000.94 1692.38 z"/>
<path transform="translate(0,0)" fill="rgb(254,254,254)" d="M 1030.94 1652.05 C 1033.44 1656.43 1039.47 1664.15 1038.46 1668.82 L 1034.83 1671.06 C 1026.71 1669.12 1024.44 1662.43 1026.15 1654.76 L 1030.94 1652.05 z"/>
<path transform="translate(0,0)" fill="rgb(254,254,254)" d="M 1155.29 1053.72 C 1157.28 1060.98 1158.98 1072.86 1159.56 1080.56 C 1159.85 1084.35 1159.38 1083.72 1156.83 1086.44 C 1154.26 1085.97 1155.35 1086.6 1153.37 1084.86 C 1150.77 1076.12 1152.77 1062.4 1155.29 1053.72 z"/>
<path transform="translate(0,0)" fill="rgb(254,254,254)" d="M 1113.56 1594.01 C 1118.53 1593.96 1121.63 1593.32 1125.34 1596.14 C 1126.47 1599.8 1125.2 1602.33 1124.09 1606.11 L 1110.91 1605.97 L 1113.56 1594.01 z"/>
<path transform="translate(0,0)" fill="rgb(254,254,254)" d="M 982.052 1673.4 C 984.947 1673.03 991.003 1672.95 994.152 1672.81 L 983.208 1681.81 L 979.658 1684.88 C 976.473 1684.77 977.362 1684.68 974.268 1682.22 C 972.806 1678.13 973.01 1680.23 974.107 1675.66 C 976.818 1672.98 977.069 1673.86 982.052 1673.4 z"/>
<path transform="translate(0,0)" fill="rgb(254,254,254)" d="M 978.129 1648.44 C 981.134 1648.34 981.638 1647.74 983.306 1649.19 C 981.935 1651.88 973.276 1658.41 970.004 1661.25 L 968.935 1661.69 C 966.762 1659.68 965.104 1652.91 964.082 1649.71 L 978.129 1648.44 z"/>
<path transform="translate(0,0)" fill="rgb(254,254,254)" d="M 947.365 1059.82 C 950.919 1063.67 954.59 1083.23 955.648 1088.74 C 953.168 1088.88 952.505 1088.83 950.024 1088.58 C 945.764 1084.14 947.281 1066.83 947.365 1059.82 z"/>
<path transform="translate(0,0)" fill="rgb(254,254,254)" d="M 1080.28 1691.2 C 1084.4 1691.95 1097.52 1694.33 1099.38 1697.51 L 1096.72 1698.37 C 1090.72 1699.68 1084.61 1702.8 1079.74 1700.25 C 1078.45 1697.27 1079.56 1694.54 1080.28 1691.2 z"/>
<path transform="translate(0,0)" fill="rgb(254,254,254)" d="M 1203.59 1344.83 C 1209.83 1346.66 1222.32 1353.95 1225.86 1359.48 C 1227.5 1362.03 1226.84 1361.74 1226.15 1364.89 C 1222.97 1362.43 1202.48 1347.45 1202.56 1347.53 L 1203.59 1344.83 z"/>
<path transform="translate(0,0)" fill="rgb(254,254,254)" d="M 1004.65 1607.91 C 1005.95 1609.71 1005.73 1609.89 1006.45 1612.12 C 1004.59 1618.19 997.869 1622.48 992.812 1626.47 C 992.008 1626.32 991.558 1625.71 990.742 1625.04 L 990.858 1622.51 C 994.199 1616.18 999.073 1612.16 1004.65 1607.91 z"/>
<path transform="translate(0,0)" fill="rgb(254,254,254)" d="M 1196.35 1353.95 C 1205.16 1355.95 1217.37 1364.27 1219.3 1373.61 L 1216.21 1373.27 C 1210.87 1368.03 1203.33 1361.83 1197.12 1357.35 C 1196.86 1356.21 1196.6 1355.08 1196.35 1353.95 z"/>
<path transform="translate(0,0)" fill="rgb(254,254,254)" d="M 1131.42 1654.35 C 1133.82 1653.89 1133.92 1654.03 1136.39 1654.35 C 1138.03 1657.39 1137.47 1655.75 1137.46 1659.68 C 1135.27 1663.39 1136.69 1662.31 1133.6 1664.13 L 1130.34 1662.5 C 1126.87 1660.58 1121.83 1658.36 1118.14 1656.59 C 1122.45 1655.73 1127.06 1655.06 1131.42 1654.35 z"/>
<path transform="translate(0,0)" fill="rgb(254,254,254)" d="M 1084.49 1671.86 C 1090.61 1672.71 1096.84 1673.32 1102.7 1675.23 L 1103.2 1676.39 L 1099.78 1677.08 C 1094.48 1677.91 1087.93 1680.96 1084.12 1679.79 C 1082.69 1676.5 1083.56 1676.25 1084.49 1671.86 z"/>
<path transform="translate(0,0)" fill="rgb(254,254,254)" d="M 1019.84 1657.94 C 1022.32 1660.34 1024.38 1664.33 1022.82 1667.69 C 1019.29 1669.99 1016.17 1669.11 1011.75 1668.75 C 1009.33 1668.6 1010.32 1669.05 1008.69 1667.62 C 1010.4 1664.57 1016.76 1660.29 1019.84 1657.94 z"/>
<path transform="translate(0,0)" fill="rgb(254,254,254)" d="M 1091.62 1636.23 C 1098.78 1635.67 1105.87 1635.99 1113.05 1636.15 L 1103.75 1639.57 C 1100.28 1641.07 1094.08 1644.38 1090.74 1643.88 C 1089.6 1640.53 1090.41 1640.45 1091.62 1636.23 z"/>
<path transform="translate(0,0)" fill="rgb(254,254,254)" d="M 896.867 1367.91 C 899.92 1369.41 899.242 1368.31 900.042 1370.66 C 897.449 1372.98 889.222 1376.65 884.646 1379.66 L 883.463 1380.45 C 883.031 1380.59 881.468 1380.6 880.939 1380.63 L 880.368 1378.77 C 883.342 1373.97 891.801 1370.23 896.867 1367.91 z"/>
<path transform="translate(0,0)" fill="rgb(254,254,254)" d="M 953.553 1567.35 C 956.343 1567.21 957.222 1567.23 960.006 1567.49 C 962.735 1569.94 962.041 1568.49 962.52 1571.8 C 961.118 1575.68 960.396 1575.77 956.699 1578.14 C 955.036 1579.42 955.987 1578.94 953.806 1579.49 C 951.97 1576.33 953.062 1571.03 953.553 1567.35 z"/>
<path transform="translate(0,0)" fill="rgb(254,254,254)" d="M 1013.83 1638.04 C 1016.12 1640.23 1017.66 1643.55 1016.32 1646.55 C 1012.68 1648.11 1010.2 1646.86 1006.24 1645.8 C 1003.93 1645.57 1004.08 1645.61 1002.03 1644.51 C 1003.95 1641.85 1010.47 1639.53 1013.83 1638.04 z"/>
<path transform="translate(0,0)" fill="rgb(254,254,254)" d="M 1139.66 1608.75 L 1141.77 1608.66 L 1142.77 1609.94 C 1140.18 1615.14 1133.36 1619.24 1128.47 1622.48 L 1126.88 1622.97 L 1126.31 1621.79 C 1129.11 1616.23 1134.61 1612.12 1139.66 1608.75 z"/>
<path transform="translate(0,0)" fill="rgb(254,254,254)" d="M 935.589 1609.24 C 939.82 1611.02 942.083 1610.6 946.041 1612.74 C 945.854 1615.67 944.693 1615.69 941.818 1618.44 L 938.224 1624.96 C 937.377 1619.72 936.499 1614.48 935.589 1609.24 z"/>
<path transform="translate(0,0)" fill="rgb(254,254,254)" d="M 1130.71 1637.49 C 1134.83 1637.09 1138.61 1636.2 1141.91 1637.83 C 1142.87 1640.8 1141.47 1643.24 1140.38 1646.36 C 1136.93 1643.96 1133.81 1641.58 1130.48 1639.03 L 1130.71 1637.49 z"/>
<path transform="translate(0,0)" fill="rgb(254,254,254)" d="M 1022.97 1634.49 C 1028.08 1640.42 1029.35 1644.08 1022.91 1648.36 C 1020.66 1646.3 1019.56 1639.39 1020.04 1636.31 L 1022.97 1634.49 z"/>
<path transform="translate(0,0)" fill="rgb(254,254,254)" d="M 1110.8 1628.75 C 1117.17 1630.86 1121.37 1630.88 1127.63 1632.67 L 1127.81 1633.53 L 1123.59 1634.87 C 1120.34 1634.72 1109.52 1632.68 1106.46 1631.11 L 1106.59 1630.2 L 1110.8 1628.75 z"/>
<path transform="translate(0,0)" fill="rgb(254,254,254)" d="M 1093.35 1610.65 C 1099.84 1612.09 1103.05 1615.92 1107 1620.97 C 1099.05 1618.75 1094.4 1619.15 1093.35 1610.65 z"/>
<path transform="translate(0,0)" fill="rgb(254,254,254)" d="M 974.15 1565.32 C 974.791 1565.52 975.433 1565.72 976.074 1565.93 L 976.647 1569.01 C 974.145 1571.69 973.835 1570.91 969.228 1571.7 C 967.602 1571.76 967.858 1571.59 966.178 1570.92 L 966.373 1568.5 C 969.969 1565.18 968.575 1566.2 974.15 1565.32 z"/>
<path transform="translate(0,0)" fill="rgb(254,254,254)" d="M 1118.44 1570.51 C 1124.45 1570.43 1123.22 1569.59 1127.74 1572.2 L 1127.74 1574.24 L 1125.16 1574.63 C 1122.14 1575.18 1120.58 1575.47 1117.47 1575.69 L 1116.15 1574.54 C 1116.83 1571.25 1116.01 1572.51 1118.44 1570.51 z"/>
<path transform="translate(0,0)" fill="rgb(254,254,254)" d="M 1087.61 1653.81 C 1091.13 1653.86 1097.01 1654.11 1099.85 1656.03 L 1098.48 1656.99 C 1095.21 1658.3 1092.06 1659.9 1088.58 1659.96 L 1087.35 1658.63 L 1087.61 1653.81 z"/>
<path transform="translate(0,0)" fill="rgb(94,80,128)" d="M 618.773 512 C 629.117 497.029 643.117 485.829 658.174 474.137 C 724.518 422.618 787.217 388.311 871.008 371.18 C 954.597 354.091 1073.63 380.624 1005.22 490.55 C 992.213 511.455 941.256 554.106 917.195 568.407 C 919.279 573.025 931.97 587.491 936.084 591.211 C 944.96 591 942.604 599.815 949.216 605.657 L 950.548 605.08 C 951.605 600.916 951.846 595.874 954.376 593.844 C 957.138 594.905 956.958 594.792 958.628 597.245 C 957.83 602.753 962.223 610.03 964.857 615.012 C 966.454 611.002 967.189 608.178 970.186 605.058 C 974.972 603.499 975.297 604.704 978.459 608.442 C 977.872 610.871 977.308 613.363 976.645 615.767 L 973.964 612.251 C 969.606 612.065 972.584 617.428 965.708 620.086 C 961.878 619.304 962.032 619.207 959.105 616.91 C 957.118 612.313 957.829 611.828 953.395 610.324 C 949.315 611.207 948.356 610.531 944.998 611.002 C 942.924 607.276 917.899 578.733 914.315 576.546 L 913.16 577.974 L 911.462 582.617 C 913.239 589.244 925.412 612.842 929.271 620.97 C 930.173 623.52 930.96 625.916 932.045 628.398 C 934.264 633.639 936.698 639.036 938.786 644.327 C 951.648 676.92 964.629 687.85 932.795 712.732 C 928.431 687.044 919.306 659.187 904.858 637.333 L 905.252 638.735 C 908.109 648.688 912.522 657.396 916.182 667 C 923.139 685.257 927.986 706.203 928.678 725.777 C 928.875 731.326 929.256 739.184 927.4 744.239 C 926.087 745.192 926.712 744.776 924.559 744.778 L 925.43 745.538 L 925.8 744.875 C 922.713 742.842 923.527 744.186 922.808 741.022 L 922.259 740.98 C 920.413 749.281 901.554 795.149 896.767 802.859 C 904.438 809.718 911.569 816.041 920.272 821.599 C 894.45 835.922 882.546 856.457 875.797 884.84 C 869.02 913.342 863.23 942.159 856.511 970.689 C 837.401 935.697 817.142 912.929 783.352 891.486 C 772.659 900.572 759.349 906.422 753.568 911.521 L 751.986 911.872 C 743.205 913.874 737.631 916.915 726.991 918.476 C 723.72 918.955 708.776 920.468 707.972 920.669 C 680.61 940.74 659.021 952.884 628.02 965.898 C 628.171 942.13 622.905 920.753 612.906 899.339 C 612.803 907.822 613.036 916.306 613.606 924.77 C 614.276 934.487 617.248 950.385 615.211 959.034 L 614.092 959.289 C 608.278 948.366 608.068 926.993 607.305 914.353 C 600.417 940.935 589.892 954.151 565.748 966.473 C 571.574 938.54 571.294 909.678 564.929 881.863 L 564.638 899.344 C 564.343 912.085 560.436 955.91 540.859 953.507 C 539.311 949.872 541.42 948.961 544.906 946.154 C 554.706 938.262 556.413 924.585 558.083 912.684 C 543.36 936.825 542.762 940.117 521.562 960.763 C 524.063 947.592 525.681 931.347 526.945 918.025 C 511.049 918.832 498.816 911.949 485.947 903.798 C 482.775 906.213 473.946 913.717 470.794 913.659 C 468.904 908.596 475.461 900.875 472.926 895.462 C 466.656 892.376 466.555 892.946 465.766 886.455 C 458.26 871.48 452.363 867.156 444.929 847.181 C 430.04 807.179 439.391 753.04 457.729 715.568 C 486.184 658.942 522.528 603.743 567.065 558.453 C 578.183 547.148 585.67 535.001 600.933 544.055 L 602.353 543.534 C 600.475 540.048 595.794 537.09 592.555 534.892 C 565.935 516.833 535.032 526.117 530.182 522.954 C 530.292 521.918 530.105 520.58 531.101 520.257 C 551.323 513.697 576.69 517.052 594.235 529.277 C 599.712 533.093 604.296 538.423 609.621 539.451 C 611.763 537.926 612.068 537.708 612.443 534.797 C 617.032 499.245 601.121 464.352 563.504 456.91 C 560.107 456.238 557.615 456.796 555.804 453.472 L 557.037 451.241 C 564.429 449.237 581.703 456.319 588.081 460.485 C 607.622 473.249 613.903 490.118 618.773 512 z"/>
<path transform="translate(0,0)" fill="rgb(181,162,247)" d="M 592.041 620.712 C 591.82 647.369 595.535 667.505 614.132 688.805 C 615.833 690.754 618.596 693.37 621.201 693.784 L 622.457 692.285 C 621.726 686.069 612.418 678.976 609.15 672.961 C 599.973 656.07 597.988 644.238 597.464 625.697 C 609.537 656.155 621.912 673.299 652.191 688.267 C 647.924 696.113 640.443 708.536 633.099 713.823 L 629.208 713.427 C 627.248 715.389 627.741 714.234 627.674 716.999 C 630.485 720.246 628.823 719.398 632.397 720.341 C 642.36 717.645 652.904 699.132 657.43 690.292 C 664.924 692.613 688.216 699.079 694.949 694.587 L 694.489 693.095 C 688.864 690.184 669.821 688.043 659.816 685.012 C 661.44 679.863 663.097 674.746 664.546 669.544 C 697.951 683.598 712.382 687.209 748.707 685.867 C 751.157 691.153 759.199 707.941 766.33 704.391 C 769.576 697.751 766.309 683.107 767.638 675.462 C 771.546 652.996 793.932 637.359 814.013 630.156 C 887.481 603.805 910.846 692.869 883.534 743.606 C 874.985 759.643 860.353 771.576 842.924 776.725 C 837.2 778.435 831.427 779.219 825.468 779.515 C 824.349 800.551 816.293 821.813 800.798 836.617 C 794.368 842.761 787.406 843.681 785.313 846.46 L 786.078 848.926 C 796.064 852.982 810.19 835.383 815.732 828.206 C 814.601 835.382 809.345 862.391 811.749 867.833 L 813.39 869.102 L 815.183 868.28 C 816.741 863.445 818.479 847.273 819.325 841.418 C 821.032 829.74 823.403 818.169 826.427 806.762 C 830.279 834.66 827.098 857.738 814.876 882.807 C 832.745 869.151 844.077 853.467 854.512 833.491 L 856.299 835.273 C 859.905 827.282 862.104 824.966 868.432 819.397 C 878.54 813.068 884.339 812.941 894.636 808.401 C 894.946 806.828 896.101 804.432 896.767 802.859 C 904.438 809.718 911.569 816.041 920.272 821.599 C 894.45 835.922 882.546 856.457 875.797 884.84 C 869.02 913.342 863.23 942.159 856.511 970.689 C 837.401 935.697 817.142 912.929 783.352 891.486 C 772.659 900.572 759.349 906.422 753.568 911.521 L 751.986 911.872 C 743.205 913.874 737.631 916.915 726.991 918.476 C 723.72 918.955 708.776 920.468 707.972 920.669 C 671.853 918.194 642.562 907.333 618.68 878.85 C 607.121 865.064 597.782 849.957 586.587 835.975 C 572.023 817.784 555.624 801.301 543.957 780.925 C 543.792 767.234 544.727 755.634 546.02 742.153 L 546.641 736.87 C 551.293 711.393 556.809 684.927 567.997 661.421 C 564.925 678.023 561.671 718.612 568.961 734.12 L 570.896 735.308 L 573.097 734.019 C 573.848 729.473 571.143 718.338 570.647 712.337 C 568.588 687.452 571.425 665.725 579.423 642.198 C 577.385 660.361 577.207 677.486 582.883 695.117 C 585.719 703.927 588.488 716.559 597.568 720.851 L 598.946 720.635 C 599.265 716.892 594.089 709.074 592.176 704.499 C 580.81 677.314 580.914 647.748 592.041 620.712 z"/>
<path transform="translate(0,0)" fill="rgb(27,35,109)" d="M 894.636 808.401 C 898.706 809.388 897.789 808.301 899.398 810.701 C 897.402 813.375 893.403 814.037 890.155 814.803 C 880.423 817.856 877.039 818.732 868.575 824.897 C 863.19 830.46 861.667 833.452 859.236 840.85 C 860.53 846.605 863.574 855.462 860.605 860.248 C 849.336 866.236 852.781 869.366 853.946 875.038 C 854.302 876.771 843.448 892.133 841.195 894.18 L 840.361 894.202 C 839.15 888.32 844.939 879.878 848.277 875.349 L 848.226 874.429 C 847.672 863.064 850.468 863.038 858.606 856.403 C 855.901 847.452 854.432 844.561 856.299 835.273 C 859.905 827.282 862.104 824.966 868.432 819.397 C 878.54 813.068 884.339 812.941 894.636 808.401 z"/>
<path transform="translate(0,0)" fill="rgb(94,80,128)" d="M 546.641 736.87 C 560.963 737.796 579.568 740.232 592.357 734.226 C 596.288 732.38 603.233 728.631 606.615 730.624 L 606.864 732.239 C 594.898 746.611 562.375 744.07 546.02 742.153 L 546.641 736.87 z"/>
<path transform="translate(0,0)" fill="rgb(94,80,128)" d="M 868.575 824.897 C 877.039 818.732 880.423 817.856 890.155 814.803 C 883.665 825.456 878.734 832.705 869.764 841.559 C 869.419 836.607 869.138 829.682 868.575 824.897 z"/>
<path transform="translate(0,0)" fill="rgb(94,80,128)" d="M 672.792 865.183 C 666.034 868.841 656.187 872.452 650.786 865.708 C 636.357 847.691 658.186 813.983 671.217 801.638 C 687.45 785.539 710.537 778.094 733.062 777.911 C 740.813 777.848 762.715 783.558 762.309 793.318 C 769.71 799.266 767.575 812.665 761.544 818.864 C 747.076 833.736 723.351 834.82 705.411 843.741 C 693.902 849.628 685.02 858.893 672.792 865.183 z"/>
<path transform="translate(0,0)" fill="rgb(254,197,249)" d="M 672.792 865.183 C 672.552 848.327 689.544 823.86 701.822 812.759 C 718.924 797.298 739.571 791.888 762.309 793.318 C 769.71 799.266 767.575 812.665 761.544 818.864 C 747.076 833.736 723.351 834.82 705.411 843.741 C 693.902 849.628 685.02 858.893 672.792 865.183 z"/>
<path transform="translate(0,0)" fill="rgb(94,80,128)" d="M 842.597 638.239 C 846.45 637.889 851.255 637.16 854.476 639.182 L 854.642 641.02 C 851.106 644.318 837.737 643.545 828.12 650.291 C 810.379 662.736 805.691 676.186 801.301 695.972 C 819.691 701.501 841.089 713.039 838.388 736.055 C 837.97 739.62 837.547 743.676 834.587 746.028 L 832.21 745.633 C 830.041 742.269 834.124 735.82 832.416 727.181 C 826.999 711.501 815.271 707.012 800.948 701.769 C 800.638 707.475 799.947 715.037 800.808 720.712 C 801.478 725.121 805.398 726.138 804.94 730.402 L 802.959 731.832 L 800.457 731.002 C 792.608 723.38 794.361 711.813 795.302 701.802 C 798.213 670.811 810.977 647.334 842.597 638.239 z"/>
<path transform="translate(0,0)" fill="rgb(94,80,128)" d="M 655.215 711.808 C 672.059 711.47 682.798 736.18 673.598 749.017 C 657.415 749.454 646.717 725.566 655.215 711.808 z"/>
<path transform="translate(0,0)" fill="rgb(94,80,128)" d="M 588.11 748.743 C 590.53 748.937 592.88 749.646 595.003 750.824 C 606.316 757.113 612.586 774.82 605.5 786.548 C 588.203 785.825 576.739 760.953 588.11 748.743 z"/>
<path transform="translate(0,0)" fill="rgb(94,80,128)" d="M 615.155 717.491 C 634.995 722.682 627.439 759.291 629.621 774.51 C 633.318 800.301 648.184 792.052 658.608 799.706 L 658.66 801.697 L 656.61 803.741 C 643.949 802.826 633.342 799.43 627.62 787.04 C 617.451 765.018 632.372 741.075 614.55 721.706 C 613.429 720.488 614.489 719.252 615.155 717.491 z"/>
<path transform="translate(0,0)" fill="rgb(94,80,128)" d="M 739.808 842.242 C 743.416 841.725 748.034 840.932 750.97 843.669 C 748.739 849.076 730.515 849.203 723.665 853.432 C 715.587 858.42 713.687 860.168 707.342 867.067 C 705.138 870.096 704.717 871.23 701.122 871.489 L 700.188 869.981 C 703.253 854.905 726.16 845.184 739.808 842.242 z"/>
<path transform="translate(0,0)" fill="rgb(94,80,128)" d="M 688.96 730.351 L 691.912 732.61 C 695.231 743.546 679.529 756.493 671.24 761.291 L 668.855 759.523 C 668.007 756.932 667.537 756.583 671.722 754.265 C 682.585 748.248 683.9 740.862 688.96 730.351 z"/>
<path transform="translate(0,0)" fill="rgb(27,35,109)" d="M 842.69 904.427 C 844.949 905.556 844.088 904.704 845.23 907.024 C 842.962 911.553 841.233 928.276 840.54 933.989 C 839.894 933.861 838.328 933.178 837.644 932.905 C 835.367 929.105 837.658 919.695 838.023 915.137 C 838.431 910.034 839.232 908.199 842.69 904.427 z"/>
<path transform="translate(0,0)" fill="rgb(94,80,128)" d="M 605.529 789.334 C 606.345 789.068 607.084 789.255 608.053 789.323 L 608.782 790.987 L 607.596 793.414 C 601.44 797.728 600.003 797.131 592.26 796.738 C 589.678 795.189 589.496 795.413 588.309 792.737 C 590.352 789.564 599.873 791.544 605.529 789.334 z"/>
<path transform="translate(0,0)" fill="rgb(94,80,128)" d="M 694.978 749.573 C 697.326 749.892 696.42 749.665 698.547 751.118 L 698.622 753.335 C 695.902 757.778 692.862 759.796 688.849 763.124 C 686.074 761.996 687.186 762.862 685.425 760.393 C 686.442 756.961 692.098 752.417 694.978 749.573 z"/>
<path transform="translate(0,0)" fill="rgb(243,236,254)" d="M 618.773 512 C 629.117 497.029 643.117 485.829 658.174 474.137 C 724.518 422.618 787.217 388.311 871.008 371.18 C 954.597 354.091 1073.63 380.624 1005.22 490.55 C 992.213 511.455 941.256 554.106 917.195 568.407 C 914.025 566.315 894.566 542.963 890.467 538.353 C 876.155 522.255 867.568 519.382 849.396 508.715 C 831.143 498.002 815.823 488.012 794.313 483.989 C 735.275 472.945 667.01 501.669 618.497 533.763 C 618.935 527.532 617.887 516.426 618.773 512 z"/>
<path transform="translate(0,0)" fill="rgb(243,236,254)" d="M 465.766 886.455 C 458.26 871.48 452.363 867.156 444.929 847.181 C 430.04 807.179 439.391 753.04 457.729 715.568 C 486.184 658.942 522.528 603.743 567.065 558.453 C 578.183 547.148 585.67 535.001 600.933 544.055 L 601.234 545.63 C 556.429 582.867 515.772 620.944 509.409 682.889 C 506.672 709.536 514.159 730.419 519.189 755.855 C 522.493 774.747 506.983 802.266 492.844 813.507 C 487.879 817.888 474.65 823.727 472.744 826.579 C 473.527 829.679 472.693 828.454 475.455 830.288 C 481.316 830.653 491.966 821.097 496.578 817.203 C 506.632 808.712 514.441 797.372 520.13 785.537 C 519.299 797.119 514.989 859.266 505.699 865.478 C 497.302 871.093 479.462 873.962 465.766 886.455 z"/>
<path transform="translate(0,0)" fill="rgb(243,236,254)" d="M 526.325 767.443 C 532.559 796.506 531.774 888.534 526.945 918.025 C 511.049 918.832 498.816 911.949 485.947 903.798 C 483.97 902.012 482.762 901.293 481.739 898.875 C 481.961 895.844 481.667 895.322 480.424 892.546 C 477.039 890.515 475.566 890.053 471.81 888.664 C 474.74 886.733 480.388 882.905 483.304 881.544 C 505.014 871.408 512.824 875.566 518.077 849.632 C 523.816 821.305 525.01 795.877 526.325 767.443 z"/>
<path transform="translate(0,0)" fill="rgb(243,236,254)" d="M 911.462 582.617 L 911.119 582.586 C 909.693 581.518 909.649 581.781 908.982 580.414 C 899.937 561.889 886.526 547.456 875.082 531.127 C 879.566 535.295 883.9 539.621 888.078 544.096 C 894.793 551.255 907.659 565.63 913.267 574.419 C 913.231 575.604 913.195 576.789 913.16 577.974 L 911.462 582.617 z"/>
<path transform="translate(0,0)" fill="rgb(243,236,254)" d="M 912.514 673.9 C 918.929 691.067 925.391 722.855 922.808 741.022 L 922.259 740.98 C 919.917 733.227 913.272 683.978 912.514 673.9 z"/>
<path transform="translate(0,0)" fill="rgb(181,162,247)" d="M 867.605 807.531 L 868.432 819.397 C 862.104 824.966 859.905 827.282 856.299 835.273 L 854.512 833.491 C 859.273 824.58 863.388 816.766 867.605 807.531 z"/>
<path transform="translate(0,0)" fill="rgb(181,162,247)" d="M 604.763 627.678 C 608.377 629.73 622.969 642.354 627.313 645.842 C 639.032 655.252 646.329 659.659 659.172 666.837 L 655.775 679.795 L 654.587 681.687 C 651.916 681.895 649.705 681.143 647.408 679.806 C 628.499 668.802 611.017 648.601 604.763 627.678 z"/>
<path transform="translate(0,0)" fill="rgb(197,200,247)" d="M 1434.93 1502.34 C 1439.06 1501.81 1446.06 1496.88 1450.97 1496.64 C 1458.9 1496.24 1466.93 1496.71 1474.88 1496.83 C 1490.83 1497.07 1506.77 1497.23 1522.72 1497.31 C 1529.45 1496.71 1534.03 1496.82 1540.77 1496.98 C 1553.78 1497.09 1566.8 1497.03 1579.82 1496.8 C 1594.95 1496.53 1611.61 1495.03 1624.61 1504.1 C 1649.33 1521.35 1673.54 1552.22 1681.22 1581.54 C 1683.87 1592.76 1685.01 1600.51 1685.11 1612.08 C 1686.76 1622.09 1683.31 1637.21 1680.61 1646.97 C 1658.13 1728.01 1562.95 1746.65 1490.35 1735.4 C 1447.68 1728.79 1401.94 1703.15 1380.21 1664.72 C 1372.08 1650.34 1367.55 1622.23 1372.45 1606.29 C 1373.98 1592.78 1375.41 1585.07 1379.73 1572.24 C 1390.83 1538.02 1411.52 1524.94 1434.93 1502.34 z"/>
<path transform="translate(0,0)" fill="rgb(197,200,247)" d="M 1434.93 1502.34 C 1439.06 1501.81 1446.06 1496.88 1450.97 1496.64 C 1458.9 1496.24 1466.93 1496.71 1474.88 1496.83 C 1490.83 1497.07 1506.77 1497.23 1522.72 1497.31 C 1529.45 1496.71 1534.03 1496.82 1540.77 1496.98 C 1553.78 1497.09 1566.8 1497.03 1579.82 1496.8 C 1594.95 1496.53 1611.61 1495.03 1624.61 1504.1 C 1649.33 1521.35 1673.54 1552.22 1681.22 1581.54 C 1584.79 1598.8 1475.31 1590.9 1379.73 1572.24 C 1390.83 1538.02 1411.52 1524.94 1434.93 1502.34 z"/>
<path transform="translate(0,0)" fill="rgb(243,236,254)" d="M 1379.73 1572.24 C 1475.31 1590.9 1584.79 1598.8 1681.22 1581.54 C 1683.87 1592.76 1685.01 1600.51 1685.11 1612.08 C 1619.41 1627.83 1502.88 1628.97 1433.86 1621.74 C 1424.81 1620.79 1376.5 1611.6 1372.45 1606.29 C 1373.98 1592.78 1375.41 1585.07 1379.73 1572.24 z"/>
<path transform="translate(0,0)" fill="rgb(197,200,247)" d="M 357.531 1619.69 L 358.371 1616.88 C 363.408 1615.09 380.641 1615.94 387.008 1616.11 C 390.499 1634.9 391.922 1662.38 393.4 1681.91 C 394.505 1696.53 397.186 1722.69 396.992 1736.72 C 386.906 1736.78 375.994 1737.07 365.989 1736.49 C 363.54 1697.53 360.721 1658.6 357.531 1619.69 z"/>
</svg>