<svg version="1.1" xmlns="http://www.w3.org/2000/svg" style="display: block;" viewBox="0 0 2048 1389" width="2000" height="1356" preserveAspectRatio="none">
<path transform="translate(0,0)" fill="rgb(232,237,253)" d="M 641.66 238.846 C 635.221 226.906 630.064 214.652 631.279 200.733 C 638.024 123.461 727.03 120.73 762.897 179.829 C 764.881 183.097 769.142 183.747 772.592 183.121 C 776.182 183.369 776.467 176.283 776.952 173.688 C 790.329 102.11 873.897 75.6663 935.517 102.321 C 977.67 120.555 998.021 140.04 1028.75 171.478 C 1037.95 153.096 1052.16 137.694 1069.75 127.053 C 1103.51 106.352 1153.65 91.4734 1192.58 102.072 C 1224.28 110.701 1251.37 127.041 1268.55 155.462 C 1275.92 148.783 1283.99 142.916 1292.62 137.961 C 1384.09 84.3956 1494.43 109.495 1548.45 202.123 C 1556.81 202.13 1565.16 201.253 1573.85 201.359 C 1612.77 201.831 1649.55 213.881 1682.42 234.38 C 1687.61 237.614 1695.95 242.241 1700.02 246.411 C 1703.03 243.917 1713.88 230.92 1718.25 226.448 C 1722.75 222.288 1731.31 211.893 1735.14 207.072 L 1734.79 205.79 C 1746.52 198.778 1790.44 133.672 1801.17 137.871 C 1803.35 142.732 1802.38 143.816 1799.47 147.611 C 1816.16 149.747 1832.82 152.205 1849.42 154.983 C 1839.57 166.648 1829.63 178.225 1819.57 189.712 L 1802.31 187.864 C 1808.8 190.622 1815.16 193.376 1821.77 195.848 C 1813.29 203.641 1795.77 221.384 1787.54 227.282 L 1787.12 227.594 C 1778.6 228.386 1734.3 233.949 1730.27 231.802 C 1730.07 229.705 1730.04 229.839 1730.68 227.843 C 1723.01 234.888 1713.85 246.264 1706.88 254.43 C 1716.82 259.41 1729.85 278.093 1736.67 287.092 C 1761.37 319.657 1782.36 391.511 1771.27 431.879 C 1775.79 432.632 1795.65 436.525 1798.59 435.279 C 1801.7 438.12 1814.76 440.281 1818.52 439.363 C 1833.49 443.023 1907.9 452.988 1915.48 457.749 C 1917.11 461.121 1917.01 459.691 1916.14 463.047 C 1913.66 465.148 1913.23 465.206 1909.98 465.631 C 1910.15 471.004 1924.77 505.421 1928.23 511.404 C 1917.16 509.568 1893.32 506.377 1883.29 503.632 C 1881.41 499.892 1880.28 496.987 1877.3 494.048 L 1876.14 494.321 C 1875.55 498.945 1877.37 504.418 1878.57 509.047 C 1868.19 506.256 1841.97 499.967 1833.15 496.071 C 1826.57 487.062 1803.02 457.512 1799.28 450.691 L 1800.71 449.508 L 1801.48 447.845 C 1794.68 445.265 1776.8 442.754 1769.08 441.511 C 1768.75 445.956 1768.46 450.011 1767.84 454.433 C 1827.92 559.396 1758.4 657.822 1683.69 729.069 C 1677.32 735.145 1669.96 741.627 1664.04 747.83 C 1667.14 748.244 1670.22 748.689 1673.32 749.162 C 1699.35 753.135 1721.8 775.717 1717.96 803.257 C 1734.03 803.295 1750.87 803.584 1766.87 803.313 L 1766.87 1102.3 C 1788.18 1116.55 1789.48 1136.25 1787.27 1159.99 C 1793.94 1155.04 1797.2 1153.04 1805.18 1150.57 C 1820.49 1158.08 1826.05 1164.23 1833.54 1179.38 C 1859.49 1139.89 1924.69 1161.15 1906.78 1189.98 C 1924.4 1193.71 1942.37 1187.93 1937.31 1217.08 C 1947.74 1218.92 2000.78 1221.4 2003.95 1230.48 C 1996.75 1238.27 1936.65 1242.3 1922.99 1243.42 C 1843.14 1249.35 1763.15 1253.27 1683.11 1255.18 C 1567.86 1258.76 1452.58 1261.09 1337.28 1262.18 C 1035.31 1266.1 733.279 1264.4 431.363 1257.08 C 341.589 1255.07 251.859 1251.43 162.218 1246.17 C 147.827 1245.23 49.4065 1239.89 43.7734 1229.8 C 50.8479 1220.1 122.681 1216.59 138.02 1214.85 C 132.273 1206.67 112.374 1172.03 132.67 1169.12 C 153.434 1166.15 159.353 1181.79 172.901 1192.12 L 174.01 1192.96 C 164.269 1165.08 166.466 1115.71 194.773 1099.77 C 195.912 1096.27 195.206 1058.65 195.203 1052.81 L 195.073 911.233 C 176.338 904.778 154.036 882.011 145.814 864.326 C 110.037 787.375 158.191 683.309 232.085 647.147 C 216.168 643.409 205.34 640.632 194.209 627.416 C 169.155 597.667 189.352 556.633 226.521 552.595 C 233.698 551.815 238.639 552.531 245.751 553.321 C 212.513 500.141 210.726 440.303 231.104 381.953 C 291.363 209.414 489.237 185.378 641.66 238.846 z M 1720.21 958.305 C 1726.47 958.476 1732.73 958.61 1738.99 958.706 C 1739.06 948.931 1739.42 937.152 1738.73 927.567 L 1737.34 926.477 C 1730.16 926.343 1722.98 926.413 1715.81 926.685 C 1715.88 935.781 1714.04 949.174 1719.18 954.74 C 1720.3 955.947 1720.24 956.981 1720.21 958.305 z M 274.727 741.154 C 258.925 750.252 255.504 769.655 247.817 778.869 L 245.103 778.877 L 233.044 781.61 C 231.651 784.606 230.392 789.514 231.608 792.673 C 235.821 793.241 239.795 793.421 244.04 793.484 C 283.56 794.071 323.165 797.891 362.663 798.135 C 352.531 790.052 348.167 788.528 335.723 785.856 C 317.272 765.141 307.494 739.713 274.727 741.154 z M 311.555 497.023 L 592.126 497.642 C 604.301 497.801 616.478 497.691 628.648 497.312 C 620.198 488.718 587.234 451.875 570.845 462.879 C 568.732 464.298 563.852 473.016 561.17 473.987 C 558.076 470.754 556.594 467.027 554.704 463.064 C 547.331 447.557 538.483 431.992 526.036 419.995 C 521.135 415.272 513.609 409.609 507.537 415.996 C 497.63 426.414 495.448 443.422 493.493 457.049 L 492.668 456.132 C 484.173 446.556 479.193 434.113 472.016 424.098 C 457.863 404.35 432.115 364.31 404.548 366.133 C 374.481 383.167 379.761 445.605 376.838 474.993 C 347.477 472.752 336.038 480.08 311.555 497.023 z"/>
<path transform="translate(0,0)" fill="rgb(26,41,67)" d="M 1717.96 803.257 C 1734.03 803.295 1750.87 803.584 1766.87 803.313 L 1766.87 1102.3 C 1788.18 1116.55 1789.48 1136.25 1787.27 1159.99 C 1793.94 1155.04 1797.2 1153.04 1805.18 1150.57 C 1820.49 1158.08 1826.05 1164.23 1833.54 1179.38 C 1859.49 1139.89 1924.69 1161.15 1906.78 1189.98 C 1924.4 1193.71 1942.37 1187.93 1937.31 1217.08 C 1947.74 1218.92 2000.78 1221.4 2003.95 1230.48 C 1996.75 1238.27 1936.65 1242.3 1922.99 1243.42 C 1843.14 1249.35 1763.15 1253.27 1683.11 1255.18 C 1567.86 1258.76 1452.58 1261.09 1337.28 1262.18 C 1035.31 1266.1 733.279 1264.4 431.363 1257.08 C 341.589 1255.07 251.859 1251.43 162.218 1246.17 C 147.827 1245.23 49.4065 1239.89 43.7734 1229.8 C 50.8479 1220.1 122.681 1216.59 138.02 1214.85 C 217.737 1208.62 304.435 1206.07 384.675 1203.72 C 445.652 1201.94 515.131 1199.02 575.927 1199.31 C 575.872 1202.32 576.006 1204.59 576.227 1207.59 C 579.273 1209.3 591.063 1208.5 595.01 1208.15 C 596.452 1205.61 595.919 1202.24 595.957 1198.9 C 621.221 1198.95 647.487 1197.99 673.032 1197.86 C 673.047 1201.21 672.431 1205.78 673.966 1208.09 C 679.318 1208.58 691.389 1209.11 696.564 1207.77 C 697.245 1204.02 697.012 1201.08 696.897 1197.32 C 782.17 1196.25 867.449 1195.72 952.729 1195.75 C 1007.57 1195.74 1065.36 1196.62 1119.94 1195.43 L 1120 1208.65 C 1127.85 1208.58 1135.93 1208.4 1143.76 1208.54 L 1143.78 1195.58 C 1169.13 1195.93 1194.49 1196.09 1219.85 1196.06 C 1219.9 1198.81 1219.91 1206.24 1220.4 1208.51 C 1221.39 1201.65 1220.74 1184.28 1220.79 1176.15 C 1220.96 1152.81 1220.38 1129.2 1220.7 1105.85 C 1221.33 1041.66 1221.47 977.457 1221.14 913.259 L 1221.17 845.414 C 1221.17 832.122 1221.6 816.288 1220.72 803.271 C 1234.85 802.235 1262.3 803.264 1277.39 803.248 C 1318.93 803.03 1360.48 803.047 1402.02 803.297 L 1628.07 803.251 C 1656.14 803.36 1685.44 802.563 1713.34 803.314 L 1717.96 803.257 z M 1720.21 958.305 C 1726.47 958.476 1732.73 958.61 1738.99 958.706 C 1739.06 948.931 1739.42 937.152 1738.73 927.567 L 1737.34 926.477 C 1730.16 926.343 1722.98 926.413 1715.81 926.685 C 1715.88 935.781 1714.04 949.174 1719.18 954.74 C 1720.3 955.947 1720.24 956.981 1720.21 958.305 z"/>
<path transform="translate(0,0)" fill="rgb(151,182,140)" d="M 1766.87 1102.3 C 1788.18 1116.55 1789.48 1136.25 1787.27 1159.99 C 1793.94 1155.04 1797.2 1153.04 1805.18 1150.57 C 1820.49 1158.08 1826.05 1164.23 1833.54 1179.38 C 1859.49 1139.89 1924.69 1161.15 1906.78 1189.98 C 1924.4 1193.71 1942.37 1187.93 1937.31 1217.08 C 1947.74 1218.92 2000.78 1221.4 2003.95 1230.48 C 1996.75 1238.27 1936.65 1242.3 1922.99 1243.42 C 1843.14 1249.35 1763.15 1253.27 1683.11 1255.18 C 1567.86 1258.76 1452.58 1261.09 1337.28 1262.18 C 1035.31 1266.1 733.279 1264.4 431.363 1257.08 C 341.589 1255.07 251.859 1251.43 162.218 1246.17 C 147.827 1245.23 49.4065 1239.89 43.7734 1229.8 C 50.8479 1220.1 122.681 1216.59 138.02 1214.85 C 217.737 1208.62 304.435 1206.07 384.675 1203.72 C 445.652 1201.94 515.131 1199.02 575.927 1199.31 C 575.872 1202.32 576.006 1204.59 576.227 1207.59 C 579.273 1209.3 591.063 1208.5 595.01 1208.15 C 596.452 1205.61 595.919 1202.24 595.957 1198.9 C 621.221 1198.95 647.487 1197.99 673.032 1197.86 C 673.047 1201.21 672.431 1205.78 673.966 1208.09 C 679.318 1208.58 691.389 1209.11 696.564 1207.77 C 697.245 1204.02 697.012 1201.08 696.897 1197.32 C 782.17 1196.25 867.449 1195.72 952.729 1195.75 C 1007.57 1195.74 1065.36 1196.62 1119.94 1195.43 L 1120 1208.65 C 1127.85 1208.58 1135.93 1208.4 1143.76 1208.54 L 1143.78 1195.58 C 1169.13 1195.93 1194.49 1196.09 1219.85 1196.06 C 1219.9 1198.81 1219.91 1206.24 1220.4 1208.51 L 1248.03 1208.52 L 1248.06 1196.29 C 1289.82 1196.56 1730.75 1202.2 1739.08 1207.29 C 1742.63 1209.49 1761.91 1208.63 1766.75 1208.21 L 1766.87 1102.3 z"/>
<path transform="translate(0,0)" fill="rgb(120,155,103)" d="M 1766.87 1102.3 C 1788.18 1116.55 1789.48 1136.25 1787.27 1159.99 C 1793.94 1155.04 1797.2 1153.04 1805.18 1150.57 C 1820.49 1158.08 1826.05 1164.23 1833.54 1179.38 C 1859.49 1139.89 1924.69 1161.15 1906.78 1189.98 C 1924.4 1193.71 1942.37 1187.93 1937.31 1217.08 C 1896.76 1214.43 1856.04 1210.99 1815.39 1209.45 C 1804.44 1209.04 1776.03 1206.86 1766.75 1208.21 L 1766.87 1102.3 z"/>
<path transform="translate(0,0)" fill="rgb(232,237,253)" d="M 1248.05 986.084 L 1599.85 986.1 L 1694.32 986.008 C 1702.95 985.997 1731.87 985.423 1739.08 986.617 L 1739.07 1091.29 L 1739.08 1207.29 C 1730.75 1202.2 1289.82 1196.56 1248.06 1196.29 L 1248.08 1078.53 L 1248.05 986.084 z"/>
<path transform="translate(0,0)" fill="rgb(120,155,103)" d="M 1364.84 1104.48 C 1405.55 1066.95 1451.95 1047.4 1447.65 1126.2 C 1447.39 1130.56 1447.07 1134.92 1446.7 1139.28 C 1458.84 1131.35 1480.57 1127.74 1483.32 1146.08 C 1485.93 1145.77 1488.02 1144.77 1489.48 1142.54 C 1500.53 1125.52 1503.17 1103.03 1527.21 1099.14 C 1538.83 1097.25 1555.16 1100.83 1564.96 1108.02 C 1573.78 1114.48 1577.05 1122.17 1579.05 1132.64 C 1579.17 1141.27 1578.56 1146.53 1577.58 1155.09 C 1591.21 1139.07 1618.48 1129.87 1631.46 1151.04 C 1640.64 1131.52 1659.03 1119.42 1678.36 1134.59 L 1679.34 1135.36 C 1684.88 1129.07 1685.72 1113.77 1696.96 1104.01 C 1710.05 1092.65 1722.36 1090.97 1739.07 1091.29 L 1739.08 1207.29 C 1730.75 1202.2 1289.82 1196.56 1248.06 1196.29 L 1248.08 1078.53 C 1260.39 1076.44 1269.79 1074.47 1279.77 1083.66 C 1282.44 1080.61 1285.1 1077.44 1288.01 1074.62 C 1297.89 1112.08 1332.35 1116.8 1363.73 1101.53 L 1364.72 1102.12 L 1364.84 1104.48 z"/>
<path transform="translate(0,0)" fill="rgb(254,254,254)" d="M 1279.77 1083.66 C 1282.44 1080.61 1285.1 1077.44 1288.01 1074.62 C 1297.89 1112.08 1332.35 1116.8 1363.73 1101.53 L 1364.72 1102.12 L 1364.84 1104.48 C 1359 1110.28 1355.36 1114.35 1350.43 1120.93 C 1347.56 1124.75 1341.91 1133.42 1338.87 1136.4 C 1327.81 1115.34 1303.3 1116.77 1288.12 1133.28 C 1286.95 1118.17 1285.98 1097.5 1279.77 1083.66 z"/>
<path transform="translate(0,0)" fill="rgb(254,254,254)" d="M 1739.08 986.617 L 1739.07 1091.29 C 1722.36 1090.97 1710.05 1092.65 1696.96 1104.01 C 1685.72 1113.77 1684.88 1129.07 1679.34 1135.36 L 1678.36 1134.59 C 1659.03 1119.42 1640.64 1131.52 1631.46 1151.04 C 1618.48 1129.87 1591.21 1139.07 1577.58 1155.09 C 1578.56 1146.53 1579.17 1141.27 1579.05 1132.64 C 1642.91 1104.5 1689.26 1054.99 1707.5 987.233 C 1716.33 987.188 1731 987.806 1739.08 986.617 z"/>
<path transform="translate(0,0)" fill="rgb(254,199,139)" d="M 1220.72 803.271 C 1234.85 802.235 1262.3 803.264 1277.39 803.248 C 1318.93 803.03 1360.48 803.047 1402.02 803.297 L 1628.07 803.251 C 1656.14 803.36 1685.44 802.563 1713.34 803.314 C 1702.02 803.61 1690.7 803.668 1679.37 803.489 L 1615.56 926.01 L 1550.17 925.95 L 1494.28 925.985 L 1428.87 925.958 L 1372.74 925.991 L 1307.36 925.945 C 1289.15 926.192 1270.36 925.943 1252.11 925.937 L 1248.05 926.053 L 1248.08 803.572 C 1238.96 803.664 1229.84 803.564 1220.72 803.271 z"/>
<path transform="translate(0,0)" fill="rgb(26,41,67)" d="M 1315.6 803.49 L 1371.19 803.609 L 1328.82 884.959 C 1322.34 897.367 1314.18 914.151 1307.36 925.945 C 1289.15 926.192 1270.36 925.943 1252.11 925.937 C 1255.55 916.962 1267.99 894.624 1272.96 885.118 L 1315.6 803.49 z"/>
<path transform="translate(0,0)" fill="rgb(26,41,67)" d="M 1436.92 803.502 L 1492.58 803.615 L 1450.59 884.051 C 1443.91 896.838 1434.82 913.091 1428.87 925.958 L 1372.74 925.991 C 1394.91 885.915 1414.99 843.513 1436.92 803.502 z"/>
<path transform="translate(0,0)" fill="rgb(26,41,67)" d="M 1558.1 803.528 L 1613.81 803.633 L 1572.37 883.083 C 1565.37 896.468 1556.48 912.426 1550.17 925.95 L 1494.28 925.985 C 1514.9 886.471 1538.73 843.203 1558.1 803.528 z"/>
<path transform="translate(0,0)" fill="rgb(232,237,253)" d="M 1615.56 926.01 L 1671.27 925.941 C 1678.62 925.931 1710.63 925.457 1715.81 926.685 C 1715.88 935.781 1714.04 949.174 1719.18 954.74 C 1720.3 955.947 1720.24 956.981 1720.21 958.305 C 1713.9 959.442 1686.49 958.942 1678.4 958.936 L 1589.41 958.862 L 1248.06 958.899 L 1248.05 926.053 L 1252.11 925.937 C 1270.36 925.943 1289.15 926.192 1307.36 925.945 L 1372.74 925.991 L 1428.87 925.958 L 1494.28 925.985 L 1550.17 925.95 L 1615.56 926.01 z"/>
<path transform="translate(0,0)" fill="rgb(254,199,139)" d="M 1671.27 925.941 L 1715.5 841.231 C 1720.16 832.301 1733 806.39 1738.26 799.031 C 1740.56 815.624 1738.31 851.575 1739.13 870.079 C 1739.44 876.999 1739.47 920.399 1738.6 925.596 L 1737.34 926.477 C 1730.16 926.343 1722.98 926.413 1715.81 926.685 C 1710.63 925.457 1678.62 925.931 1671.27 925.941 z"/>
<path transform="translate(0,0)" fill="rgb(26,41,67)" d="M 1069.01 859.673 C 1073.89 858.952 1137.14 858.741 1143.82 859.395 L 1143.76 1017.74 C 1143.75 1044.89 1142.94 1076.02 1143.94 1102.86 C 1143.66 1133.76 1143.61 1164.67 1143.78 1195.58 L 1143.76 1208.54 C 1135.93 1208.4 1127.85 1208.58 1120 1208.65 L 1119.94 1195.43 C 1065.36 1196.62 1007.57 1195.74 952.729 1195.75 C 867.449 1195.72 782.17 1196.25 696.897 1197.32 C 697.012 1201.08 697.245 1204.02 696.564 1207.77 C 691.389 1209.11 679.318 1208.58 673.966 1208.09 C 672.431 1205.78 673.047 1201.21 673.032 1197.86 L 673.028 1080.34 L 673.047 859.634 L 696.944 859.652 C 704.799 859.589 749.606 858.913 754.275 859.954 L 755.02 859.744 C 762.065 858.352 799.39 859.189 808.468 859.377 C 823.301 859.686 844.527 859.045 858.97 859.976 L 860.053 859.614 C 864.404 859.088 869.516 858.949 873.922 859.102 C 903.399 860.126 934.44 858.339 963.71 859.741 C 979.805 859.555 995.901 859.498 1012 859.57 C 1028.39 859.528 1052.36 858.811 1068.15 859.81 L 1069.01 859.673 z"/>
<path transform="translate(0,0)" fill="rgb(120,155,103)" d="M 696.913 1016.91 L 1097.33 1016.96 L 1119.95 1016.92 L 1119.94 1075.07 L 1119.94 1195.43 C 1065.36 1196.62 1007.57 1195.74 952.729 1195.75 C 867.449 1195.72 782.17 1196.25 696.897 1197.32 L 696.93 1072.99 L 696.913 1016.91 z"/>
<path transform="translate(0,0)" fill="rgb(232,237,253)" d="M 696.913 1016.91 L 1097.33 1016.96 C 1072.23 1050.91 989.577 1115.64 947.986 1122.43 C 948.336 1112.05 949.024 1101.35 946.267 1091.27 C 939.913 1068.04 910.542 1057.18 888.881 1063.72 C 868.425 1069.89 852.556 1097.31 842.887 1115.21 C 842.018 1113.62 837.739 1110.5 836.167 1109.27 C 821.399 1097.68 813.435 1090.51 806.507 1072.52 C 801.063 1099.38 783.529 1116.19 755.429 1109.8 C 750.956 1108.79 747.576 1106.18 743.343 1106.9 C 732.483 1078.86 728.253 1072.31 696.93 1072.99 L 696.913 1016.91 z"/>
<path transform="translate(0,0)" fill="rgb(254,254,254)" d="M 1097.33 1016.96 L 1119.95 1016.92 L 1119.94 1075.07 C 1082.85 1068.62 1054.94 1114.13 1047.04 1144.89 C 1042.95 1126.87 1032.75 1118.19 1013.59 1123.2 C 998.789 1127.06 992.775 1137.61 988.043 1151.25 L 973.118 1134.18 C 970.025 1135.22 967.157 1136.17 964.199 1137.63 C 959.828 1139.78 955.717 1145.47 951.302 1146.16 C 947.944 1142.47 947.839 1127.73 947.986 1122.43 C 989.577 1115.64 1072.23 1050.91 1097.33 1016.96 z"/>
<path transform="translate(0,0)" fill="rgb(254,254,254)" d="M 806.507 1072.52 C 813.435 1090.51 821.399 1097.68 836.167 1109.27 C 837.739 1110.5 842.018 1113.62 842.887 1115.21 C 839.948 1122.17 837.082 1130.12 834.333 1137.23 C 827.646 1107.76 794.689 1109.59 775.587 1126.37 C 765.024 1135.65 764.733 1149.69 764.836 1162.81 C 757.528 1144.23 750.364 1125.59 743.343 1106.9 C 747.576 1106.18 750.956 1108.79 755.429 1109.8 C 783.529 1116.19 801.063 1099.38 806.507 1072.52 z"/>
<path transform="translate(0,0)" fill="rgb(254,199,139)" d="M 860.053 859.614 C 864.404 859.088 869.516 858.949 873.922 859.102 C 903.399 860.126 934.44 858.339 963.71 859.741 C 979.805 859.555 995.901 859.498 1012 859.57 C 1028.39 859.528 1052.36 858.811 1068.15 859.81 C 1050.35 894.917 1031.71 930.13 1013.44 965.033 L 957.134 965.068 L 908.699 965.085 C 890.035 964.864 870.982 965.058 852.285 965.052 L 804.377 965.119 C 821.571 930.155 841.54 895.161 858.97 859.976 L 860.053 859.614 z"/>
<path transform="translate(0,0)" fill="rgb(254,199,139)" d="M 1012 859.57 C 1028.39 859.528 1052.36 858.811 1068.15 859.81 C 1050.35 894.917 1031.71 930.13 1013.44 965.033 L 957.134 965.068 L 908.699 965.085 C 914.708 954.817 921.708 940.413 927.332 929.664 L 963.71 859.741 C 979.805 859.555 995.901 859.498 1012 859.57 z"/>
<path transform="translate(0,0)" fill="rgb(26,41,67)" d="M 963.71 859.741 C 979.805 859.555 995.901 859.498 1012 859.57 C 994.388 893.215 973.35 931.191 957.134 965.068 L 908.699 965.085 C 914.708 954.817 921.708 940.413 927.332 929.664 L 963.71 859.741 z"/>
<path transform="translate(0,0)" fill="rgb(26,41,67)" d="M 860.053 859.614 L 907.405 859.714 L 870.719 929.946 C 865.274 940.365 858.011 955.465 852.285 965.052 L 804.377 965.119 C 821.571 930.155 841.54 895.161 858.97 859.976 L 860.053 859.614 z"/>
<path transform="translate(0,0)" fill="rgb(26,41,67)" d="M 755.02 859.744 C 762.065 858.352 799.39 859.189 808.468 859.377 C 823.301 859.686 844.527 859.045 858.97 859.976 C 841.54 895.161 821.571 930.155 804.377 965.119 C 785.908 964.779 766.597 965.063 748.063 965.068 L 699.611 965.149 L 696.914 965.441 L 696.944 859.652 C 704.799 859.589 749.606 858.913 754.275 859.954 L 755.02 859.744 z"/>
<path transform="translate(0,0)" fill="rgb(254,199,139)" d="M 755.02 859.744 C 762.065 858.352 799.39 859.189 808.468 859.377 C 823.301 859.686 844.527 859.045 858.97 859.976 C 841.54 895.161 821.571 930.155 804.377 965.119 C 785.908 964.779 766.597 965.063 748.063 965.068 C 764.637 930.685 785.021 894.048 802.744 859.735 L 755.02 859.744 z"/>
<path transform="translate(0,0)" fill="rgb(254,199,139)" d="M 696.944 859.652 C 704.799 859.589 749.606 858.913 754.275 859.954 C 739.011 892.269 716.666 933.232 699.611 965.149 L 696.914 965.441 L 696.944 859.652 z"/>
<path transform="translate(0,0)" fill="rgb(232,237,253)" d="M 1013.44 965.033 L 1061.48 965.131 C 1080.63 965.072 1100.86 964.708 1119.91 965.24 L 1119.95 993.158 L 696.912 993.148 L 696.914 965.441 L 699.611 965.149 L 748.063 965.068 C 766.597 965.063 785.908 964.779 804.377 965.119 L 852.285 965.052 C 870.982 965.058 890.035 964.864 908.699 965.085 L 957.134 965.068 L 1013.44 965.033 z"/>
<path transform="translate(0,0)" fill="rgb(26,41,67)" d="M 1069.01 859.673 C 1073.89 858.952 1137.14 858.741 1143.82 859.395 C 1135.87 859.722 1127.92 859.808 1119.96 859.654 L 1119.91 965.24 C 1100.86 964.708 1080.63 965.072 1061.48 965.131 L 1013.44 965.033 C 1031.71 930.13 1050.35 894.917 1068.15 859.81 L 1069.01 859.673 z"/>
<path transform="translate(0,0)" fill="rgb(254,199,139)" d="M 1069.01 859.673 C 1073.89 858.952 1137.14 858.741 1143.82 859.395 C 1135.87 859.722 1127.92 859.808 1119.96 859.654 L 1119.91 965.24 C 1100.86 964.708 1080.63 965.072 1061.48 965.131 C 1079.08 930.158 1098.29 894.497 1116.45 859.692 L 1069.01 859.673 z"/>
<path transform="translate(0,0)" fill="rgb(120,155,103)" d="M 395.187 911.052 L 442.861 911.055 L 484.279 911.035 C 500.151 911.118 516.024 911.115 531.897 911.025 L 573.246 911.011 L 575.928 911.051 L 595.993 911.057 L 595.981 1100.87 L 595.957 1198.9 C 595.919 1202.24 596.452 1205.61 595.01 1208.15 C 591.063 1208.5 579.273 1209.3 576.227 1207.59 C 576.006 1204.59 575.872 1202.32 575.927 1199.31 C 515.131 1199.02 445.652 1201.94 384.675 1203.72 C 304.435 1206.07 217.737 1208.62 138.02 1214.85 C 132.273 1206.67 112.374 1172.03 132.67 1169.12 C 153.434 1166.15 159.353 1181.79 172.901 1192.12 L 174.01 1192.96 C 164.269 1165.08 166.466 1115.71 194.773 1099.77 C 195.912 1096.27 195.206 1058.65 195.203 1052.81 L 195.073 911.233 L 215.436 911.007 C 231.658 911.059 248.573 911.364 264.736 911.138 L 306.229 911.041 C 322.09 911.134 337.952 911.127 353.812 911.02 L 395.187 911.052 z"/>
<path transform="translate(0,0)" fill="rgb(26,41,67)" d="M 395.187 911.052 L 442.861 911.055 L 484.279 911.035 C 500.151 911.118 516.024 911.115 531.897 911.025 L 573.246 911.011 L 575.928 911.051 L 595.993 911.057 L 595.981 1100.87 L 595.957 1198.9 C 595.919 1202.24 596.452 1205.61 595.01 1208.15 C 591.063 1208.5 579.273 1209.3 576.227 1207.59 C 576.006 1204.59 575.872 1202.32 575.927 1199.31 L 575.938 1084.95 L 575.923 1045.12 L 339.243 1045.12 C 300.469 1045.12 254.025 1043.83 215.989 1045.34 C 214.029 1049.67 215.381 1190.47 215.365 1208.85 L 195.23 1208.67 L 195.21 1135.57 C 195.221 1127.84 195.692 1105.99 194.773 1099.77 C 195.912 1096.27 195.206 1058.65 195.203 1052.81 L 195.073 911.233 L 215.436 911.007 C 231.658 911.059 248.573 911.364 264.736 911.138 L 306.229 911.041 C 322.09 911.134 337.952 911.127 353.812 911.02 L 395.187 911.052 z"/>
<path transform="translate(0,0)" fill="rgb(254,199,139)" d="M 395.187 911.052 L 442.861 911.055 C 430.644 935.827 409.699 977.211 396.006 1001.03 L 348.222 1001.04 L 306.923 1001.05 L 259.238 1001.03 C 246.355 1000.97 233.051 1000.72 220.213 1001.24 L 218.707 1000.76 C 219.744 996.82 229.999 977.963 232.223 973.622 C 242.86 952.856 254.595 932.161 264.736 911.138 L 306.229 911.041 C 322.09 911.134 337.952 911.127 353.812 911.02 L 395.187 911.052 z"/>
<path transform="translate(0,0)" fill="rgb(254,199,139)" d="M 395.187 911.052 L 442.861 911.055 C 430.644 935.827 409.699 977.211 396.006 1001.03 L 348.222 1001.04 C 352.626 991.253 359.931 978.212 365 968.493 C 374.934 949.279 384.997 930.132 395.187 911.052 z"/>
<path transform="translate(0,0)" fill="rgb(26,41,67)" d="M 353.812 911.02 L 395.187 911.052 C 384.997 930.132 374.934 949.279 365 968.493 C 359.931 978.212 352.626 991.253 348.222 1001.04 L 306.923 1001.05 C 309.091 997.37 311.196 993.15 313.142 989.339 C 326.484 963.197 340.972 937.39 353.812 911.02 z"/>
<path transform="translate(0,0)" fill="rgb(26,41,67)" d="M 264.736 911.138 L 306.229 911.041 C 296.331 929.334 286.63 947.733 277.128 966.236 C 271.606 976.825 263.968 990.422 259.238 1001.03 C 246.355 1000.97 233.051 1000.72 220.213 1001.24 L 218.707 1000.76 C 219.744 996.82 229.999 977.963 232.223 973.622 C 242.86 952.856 254.595 932.161 264.736 911.138 z"/>
<path transform="translate(0,0)" fill="rgb(254,199,139)" d="M 484.279 911.035 C 500.151 911.118 516.024 911.115 531.897 911.025 L 573.246 911.011 L 575.928 911.051 L 575.947 1001.15 L 526.256 1000.98 L 484.953 1001.03 L 437.259 1000.99 L 396.006 1001.03 C 409.699 977.211 430.644 935.827 442.861 911.055 L 484.279 911.035 z"/>
<path transform="translate(0,0)" fill="rgb(26,41,67)" d="M 573.246 911.011 L 575.928 911.051 L 575.947 1001.15 L 526.256 1000.98 L 484.953 1001.03 C 498.455 977.811 519.969 935.194 531.897 911.025 L 573.246 911.011 z"/>
<path transform="translate(0,0)" fill="rgb(254,199,139)" d="M 573.246 911.011 L 575.928 911.051 L 575.947 1001.15 L 526.256 1000.98 C 530.467 991.558 537.976 978.279 543.021 968.599 C 552.967 949.335 563.042 930.139 573.246 911.011 z"/>
<path transform="translate(0,0)" fill="rgb(26,41,67)" d="M 442.861 911.055 L 484.279 911.035 C 470.364 936.226 449.711 975.016 437.259 1000.99 L 396.006 1001.03 C 409.699 977.211 430.644 935.827 442.861 911.055 z"/>
<path transform="translate(0,0)" fill="rgb(232,237,253)" d="M 484.953 1001.03 L 526.256 1000.98 L 575.947 1001.15 L 575.921 1025.24 L 251.758 1025.18 L 215.617 1025.29 C 215.892 1019.9 215.561 1005.83 216.554 1001.75 L 218.707 1000.76 L 220.213 1001.24 C 233.051 1000.72 246.355 1000.97 259.238 1001.03 L 306.923 1001.05 L 348.222 1001.04 L 396.006 1001.03 L 437.259 1000.99 L 484.953 1001.03 z"/>
<path transform="translate(0,0)" fill="rgb(254,254,254)" d="M 215.617 1025.29 C 215.892 1019.9 215.561 1005.83 216.554 1001.75 L 218.707 1000.76 L 220.213 1001.24 C 227.791 1001.86 234.931 1001.69 242.382 1002.09 C 245.171 1011.1 247.618 1016.68 251.758 1025.18 L 215.617 1025.29 z"/>
<path transform="translate(0,0)" fill="rgb(254,199,139)" d="M 215.436 911.007 C 231.658 911.059 248.573 911.364 264.736 911.138 C 254.595 932.161 242.86 952.856 232.223 973.622 C 229.999 977.963 219.744 996.82 218.707 1000.76 L 216.554 1001.75 C 215.561 1005.83 215.892 1019.9 215.617 1025.29 C 214.704 1018.58 215.275 995.291 215.292 987.531 L 215.436 911.007 z"/>
<path transform="translate(0,0)" fill="rgb(232,237,253)" d="M 215.989 1045.34 C 254.025 1043.83 300.469 1045.12 339.243 1045.12 L 575.923 1045.12 L 575.938 1084.95 C 542.809 1086.59 532.038 1134.87 529.515 1161.8 C 521.742 1148.84 510.147 1146.94 497.443 1154.31 C 491.594 1135.84 475.144 1086.71 447.378 1095.47 C 427.345 1101.78 410.619 1133.14 406.285 1153.03 C 390.13 1135.68 385.955 1111.34 400.054 1091.51 C 379.201 1060.01 340.088 1076.82 307.971 1066.96 C 291.321 1061.85 283.73 1057.67 270.716 1046.39 C 254.205 1045.64 232.915 1046.23 216.036 1046.22 L 215.989 1045.34 z"/>
<path transform="translate(0,0)" fill="rgb(254,254,254)" d="M 216.036 1046.22 C 232.915 1046.23 254.205 1045.64 270.716 1046.39 C 283.73 1057.67 291.321 1061.85 307.971 1066.96 C 340.088 1076.82 379.201 1060.01 400.054 1091.51 C 385.955 1111.34 390.13 1135.68 406.285 1153.03 C 405.329 1157.13 404.753 1162.48 404.179 1166.74 C 396.613 1156.65 392.36 1156.02 380.305 1153.08 C 378.265 1157.99 376.262 1162.91 374.297 1167.86 C 367.528 1150.23 357.759 1134.13 346.922 1118.75 C 338.831 1107.26 330.061 1094.33 313.938 1097.47 C 292.089 1101.73 282.923 1121.67 279.354 1141.67 C 278.519 1146.35 278.292 1155.9 275.984 1159.44 C 268.284 1161.85 272.429 1153.32 255.441 1162.66 C 252.331 1158.96 250.255 1151.61 247.919 1147.03 C 239.408 1130.32 230.941 1113.33 215.774 1101.92 C 215.749 1084.06 215.313 1063.89 216.036 1046.22 z"/>
<path transform="translate(0,0)" fill="rgb(232,237,253)" d="M 1734.79 205.79 C 1746.52 198.778 1790.44 133.672 1801.17 137.871 C 1803.35 142.732 1802.38 143.816 1799.47 147.611 C 1816.16 149.747 1832.82 152.205 1849.42 154.983 C 1839.57 166.648 1829.63 178.225 1819.57 189.712 L 1802.31 187.864 C 1808.8 190.622 1815.16 193.376 1821.77 195.848 C 1813.29 203.641 1795.77 221.384 1787.54 227.282 L 1787.12 227.594 C 1778.6 228.386 1734.3 233.949 1730.27 231.802 C 1730.07 229.705 1730.04 229.839 1730.68 227.843 C 1723.01 234.888 1713.85 246.264 1706.88 254.43 C 1716.82 259.41 1729.85 278.093 1736.67 287.092 C 1761.37 319.657 1782.36 391.511 1771.27 431.879 C 1775.79 432.632 1795.65 436.525 1798.59 435.279 C 1801.7 438.12 1814.76 440.281 1818.52 439.363 C 1833.49 443.023 1907.9 452.988 1915.48 457.749 C 1917.11 461.121 1917.01 459.691 1916.14 463.047 C 1913.66 465.148 1913.23 465.206 1909.98 465.631 C 1910.15 471.004 1924.77 505.421 1928.23 511.404 C 1917.16 509.568 1893.32 506.377 1883.29 503.632 C 1881.41 499.892 1880.28 496.987 1877.3 494.048 L 1876.14 494.321 C 1875.55 498.945 1877.37 504.418 1878.57 509.047 C 1868.19 506.256 1841.97 499.967 1833.15 496.071 C 1826.57 487.062 1803.02 457.512 1799.28 450.691 L 1800.71 449.508 L 1801.48 447.845 C 1794.68 445.265 1776.8 442.754 1769.08 441.511 C 1755.29 438.566 1741.36 436.457 1727.44 434.219 C 1722.03 433.13 1716.2 432.314 1710.72 431.447 C 1709.57 432.517 1701.19 457.243 1699.13 461.812 C 1684.03 495.683 1655.99 522.088 1621.27 535.117 C 1586.15 548.513 1547.12 547.246 1512.95 531.601 C 1478.79 515.988 1452.24 487.428 1439.16 452.219 C 1426 416.509 1427.79 376.997 1444.15 342.631 C 1460.17 308.769 1489.09 282.74 1524.44 270.368 C 1560.95 257.564 1601.11 260.228 1635.61 277.742 C 1644.17 282.012 1652.14 289.298 1660.39 292.967 L 1671.91 279.899 C 1677.32 273.48 1697.31 252.03 1700.02 246.411 C 1703.03 243.917 1713.88 230.92 1718.25 226.448 C 1722.75 222.288 1731.31 211.893 1735.14 207.072 L 1734.79 205.79 z"/>
<path transform="translate(0,0)" fill="rgb(220,89,74)" d="M 1734.79 205.79 C 1746.52 198.778 1790.44 133.672 1801.17 137.871 C 1803.35 142.732 1802.38 143.816 1799.47 147.611 C 1816.16 149.747 1832.82 152.205 1849.42 154.983 C 1839.57 166.648 1829.63 178.225 1819.57 189.712 L 1802.31 187.864 C 1808.8 190.622 1815.16 193.376 1821.77 195.848 C 1813.29 203.641 1795.77 221.384 1787.54 227.282 L 1787.12 227.594 C 1778.6 228.386 1734.3 233.949 1730.27 231.802 C 1730.07 229.705 1730.04 229.839 1730.68 227.843 C 1723.01 234.888 1713.85 246.264 1706.88 254.43 C 1716.82 259.41 1729.85 278.093 1736.67 287.092 C 1761.37 319.657 1782.36 391.511 1771.27 431.879 C 1775.79 432.632 1795.65 436.525 1798.59 435.279 C 1801.7 438.12 1814.76 440.281 1818.52 439.363 C 1833.49 443.023 1907.9 452.988 1915.48 457.749 C 1917.11 461.121 1917.01 459.691 1916.14 463.047 C 1913.66 465.148 1913.23 465.206 1909.98 465.631 C 1910.15 471.004 1924.77 505.421 1928.23 511.404 C 1917.16 509.568 1893.32 506.377 1883.29 503.632 C 1881.41 499.892 1880.28 496.987 1877.3 494.048 L 1876.14 494.321 C 1875.55 498.945 1877.37 504.418 1878.57 509.047 C 1868.19 506.256 1841.97 499.967 1833.15 496.071 C 1826.57 487.062 1803.02 457.512 1799.28 450.691 L 1800.71 449.508 L 1801.48 447.845 C 1794.68 445.265 1776.8 442.754 1769.08 441.511 C 1755.29 438.566 1741.36 436.457 1727.44 434.219 C 1722.03 433.13 1716.2 432.314 1710.72 431.447 C 1705.66 429.801 1668.17 423.946 1660.7 422.679 L 1642.37 419.644 L 1599.88 412.613 C 1591.41 410.923 1572.24 410.274 1567.88 403.551 C 1568.29 396.988 1580.94 384.305 1586.04 378.248 C 1589.6 375.413 1611.8 348.97 1615.86 344.222 L 1626.59 331.845 C 1637.99 319.006 1649.26 306.046 1660.39 292.967 L 1671.91 279.899 C 1677.32 273.48 1697.31 252.03 1700.02 246.411 C 1703.03 243.917 1713.88 230.92 1718.25 226.448 C 1722.75 222.288 1731.31 211.893 1735.14 207.072 L 1734.79 205.79 z"/>
<path transform="translate(0,0)" fill="rgb(232,237,253)" d="M 1706.88 254.43 C 1716.82 259.41 1729.85 278.093 1736.67 287.092 C 1761.37 319.657 1782.36 391.511 1771.27 431.879 C 1757.55 430.188 1740.87 427.145 1727.25 424.567 L 1711.1 421.854 C 1714.06 383.401 1707.72 351.548 1685.02 319.744 C 1681.19 314.382 1669.74 303.646 1667.96 298.694 L 1678.47 286.514 C 1687.37 276.18 1697.39 263.992 1706.88 254.43 z"/>
<path transform="translate(0,0)" fill="rgb(254,254,254)" d="M 1678.47 286.514 C 1705.21 306.878 1725.13 349.795 1728.88 382.851 C 1729.8 390.901 1732.37 419.862 1727.25 424.567 L 1711.1 421.854 C 1714.06 383.401 1707.72 351.548 1685.02 319.744 C 1681.19 314.382 1669.74 303.646 1667.96 298.694 L 1678.47 286.514 z"/>
<path transform="translate(0,0)" fill="rgb(232,237,253)" d="M 1634.37 337.137 C 1645.31 325.364 1657.04 311.002 1667.96 298.694 C 1669.74 303.646 1681.19 314.382 1685.02 319.744 C 1707.72 351.548 1714.06 383.401 1711.1 421.854 C 1695.81 419.813 1677.6 416.246 1662.15 413.645 L 1644.77 410.578 C 1646.09 382.529 1638.87 371.663 1623.39 350.029 L 1634.37 337.137 z"/>
<path transform="translate(0,0)" fill="rgb(254,254,254)" d="M 1634.37 337.137 C 1650.91 352.447 1661.81 375.232 1663.01 397.883 C 1663.2 401.533 1663.31 410.204 1662.15 413.645 L 1644.77 410.578 C 1646.09 382.529 1638.87 371.663 1623.39 350.029 L 1634.37 337.137 z"/>
<path transform="translate(0,0)" fill="rgb(254,199,139)" d="M 1801.48 447.845 C 1805.81 446.401 1860.65 456.32 1869.19 458.247 C 1874.45 458.529 1906.14 463.307 1909.98 465.631 C 1910.15 471.004 1924.77 505.421 1928.23 511.404 C 1917.16 509.568 1893.32 506.377 1883.29 503.632 C 1881.41 499.892 1880.28 496.987 1877.3 494.048 L 1876.14 494.321 C 1875.55 498.945 1877.37 504.418 1878.57 509.047 C 1868.19 506.256 1841.97 499.967 1833.15 496.071 C 1826.57 487.062 1803.02 457.512 1799.28 450.691 L 1800.71 449.508 L 1801.48 447.845 z"/>
<path transform="translate(0,0)" fill="rgb(254,254,254)" d="M 1801.48 447.845 C 1805.81 446.401 1860.65 456.32 1869.19 458.247 C 1860.78 459.403 1806.29 452.981 1800.71 449.508 L 1801.48 447.845 z"/>
<path transform="translate(0,0)" fill="rgb(254,199,139)" d="M 1799.47 147.611 C 1816.16 149.747 1832.82 152.205 1849.42 154.983 C 1839.57 166.648 1829.63 178.225 1819.57 189.712 L 1802.31 187.864 C 1808.8 190.622 1815.16 193.376 1821.77 195.848 C 1813.29 203.641 1795.77 221.384 1787.54 227.282 L 1787.12 227.594 C 1778.6 228.386 1734.3 233.949 1730.27 231.802 C 1730.07 229.705 1730.04 229.839 1730.68 227.843 C 1731.17 223.951 1746.7 210.321 1750.32 207.148 C 1754.46 196.339 1762.93 188.969 1770.78 180.444 C 1772.45 177.338 1795.91 151.003 1799.47 147.611 z"/>
<path transform="translate(0,0)" fill="rgb(254,180,149)" d="M 1770.78 180.444 C 1770.31 186.938 1756.3 204.425 1750.32 207.148 C 1754.46 196.339 1762.93 188.969 1770.78 180.444 z"/>
<path transform="translate(0,0)" fill="rgb(232,237,253)" d="M 1593.66 384.156 C 1603.43 372.662 1613.34 361.286 1623.39 350.029 C 1638.87 371.663 1646.09 382.529 1644.77 410.578 C 1630.67 408.571 1611.94 405.582 1598.19 402.573 C 1598.85 402.456 1599.85 401.978 1600.52 401.702 C 1601.96 395.629 1598 388.282 1593.66 384.156 z"/>
<path transform="translate(0,0)" fill="rgb(254,254,254)" d="M 1593.66 384.156 C 1598 388.282 1601.96 395.629 1600.52 401.702 C 1599.85 401.978 1598.85 402.456 1598.19 402.573 C 1592.44 401.993 1585.79 400.691 1580.02 399.711 L 1593.66 384.156 z"/>
<path transform="translate(0,0)" fill="rgb(232,237,253)" d="M 1642.37 419.644 C 1641.97 426.471 1638.63 433.944 1635.28 439.826 C 1602.58 497.268 1516.32 485.286 1500.07 421.935 C 1495.09 402.577 1498.14 382.03 1508.53 364.955 C 1527.52 333.203 1565.97 321.681 1599.72 335.484 C 1605.34 337.783 1610.66 341.102 1615.86 344.222 C 1611.8 348.97 1589.6 375.413 1586.04 378.248 C 1580.94 384.305 1568.29 396.988 1567.88 403.551 C 1572.24 410.274 1591.41 410.923 1599.88 412.613 L 1642.37 419.644 z"/>
<path transform="translate(0,0)" fill="rgb(254,254,254)" d="M 1599.88 412.613 C 1594.7 425.96 1583.93 434.144 1569.57 433.143 C 1528.96 430.314 1533.8 369.35 1575.08 373.505 C 1580.29 374.029 1582.48 374.099 1586.04 378.248 C 1580.94 384.305 1568.29 396.988 1567.88 403.551 C 1572.24 410.274 1591.41 410.923 1599.88 412.613 z"/>
<path transform="translate(0,0)" fill="rgb(254,254,254)" d="M 1660.7 422.679 C 1657.58 442.218 1644.71 461.272 1629.7 473.938 C 1591.32 506.325 1531.06 500.731 1499.65 460.617 C 1484.23 441.184 1477.26 416.375 1480.3 391.755 C 1483.51 367.578 1496.1 345.632 1515.34 330.65 C 1535.12 315.429 1560.26 308.956 1584.93 312.736 C 1597.67 314.58 1618.56 321.132 1626.59 331.845 L 1615.86 344.222 C 1610.66 341.102 1605.34 337.783 1599.72 335.484 C 1565.97 321.681 1527.52 333.203 1508.53 364.955 C 1498.14 382.03 1495.09 402.577 1500.07 421.935 C 1516.32 485.286 1602.58 497.268 1635.28 439.826 C 1638.63 433.944 1641.97 426.471 1642.37 419.644 L 1660.7 422.679 z"/>
<path transform="translate(0,0)" fill="rgb(254,254,254)" d="M 1727.44 434.219 C 1722.1 456.277 1714.76 475.069 1701.78 493.974 C 1677.99 528.285 1641.64 551.843 1600.61 559.546 C 1558.4 567.46 1514.78 557.99 1479.65 533.284 C 1445.18 508.915 1421.79 471.856 1414.62 430.25 C 1407.51 388.754 1417.12 346.129 1441.35 311.699 C 1464.03 279.33 1503.92 252.7 1543.04 246.912 C 1595.36 239.172 1630.13 250.279 1671.91 279.899 L 1660.39 292.967 C 1652.14 289.298 1644.17 282.012 1635.61 277.742 C 1601.11 260.228 1560.95 257.564 1524.44 270.368 C 1489.09 282.74 1460.17 308.769 1444.15 342.631 C 1427.79 376.997 1426 416.509 1439.16 452.219 C 1452.24 487.428 1478.79 515.988 1512.95 531.601 C 1547.12 547.246 1586.15 548.513 1621.27 535.117 C 1655.99 522.088 1684.03 495.683 1699.13 461.812 C 1701.19 457.243 1709.57 432.517 1710.72 431.447 C 1716.2 432.314 1722.03 433.13 1727.44 434.219 z"/>
<path transform="translate(0,0)" fill="rgb(120,155,103)" d="M 649.917 1130.67 C 651.234 1108.48 653.039 1093.25 673.028 1080.34 L 673.032 1197.86 C 647.487 1197.99 621.221 1198.95 595.957 1198.9 L 595.981 1100.87 C 606.338 1114.85 610.558 1124.11 616.041 1140.27 C 618.351 1127.37 621.377 1123.28 629.773 1113.58 C 639.039 1118.26 643.764 1122.56 649.917 1130.67 z"/>
<path transform="translate(0,0)" fill="rgb(120,155,103)" d="M 1220.72 803.271 C 1221.6 816.288 1221.17 832.122 1221.17 845.414 L 1221.14 913.259 C 1221.47 977.457 1221.33 1041.66 1220.7 1105.85 C 1220.38 1129.2 1220.96 1152.81 1220.79 1176.15 C 1220.74 1184.28 1221.39 1201.65 1220.4 1208.51 C 1219.91 1206.24 1219.9 1198.81 1219.85 1196.06 C 1194.49 1196.09 1169.13 1195.93 1143.78 1195.58 C 1143.61 1164.67 1143.66 1133.76 1143.94 1102.86 C 1150.2 1119.52 1151.41 1132.41 1151.48 1149.86 C 1160.91 1133.2 1172.87 1128.53 1189.97 1138.88 C 1196.58 1118.58 1204.21 1107.89 1220.32 1094.3 C 1221.2 1011.57 1219.76 928.558 1220.33 845.803 C 1220.42 832.026 1219.69 816.943 1220.72 803.271 z"/>
<path transform="translate(0,0)" fill="rgb(250,137,108)" d="M 999.881 314.879 L 1000.23 313.895 C 1002.11 312.021 1009.6 309.23 1012.48 308.586 C 1020.84 306.716 1023.47 304.425 1030.89 308.362 C 1039.46 313.263 1045.49 316.82 1053.45 322.819 C 1060.17 328.835 1065.93 334.149 1070.95 341.828 C 1080.56 347.829 1123.53 384.416 1126.02 392.177 C 1124.42 397.412 1122.45 403.949 1119.68 408.711 C 1113.52 423.588 1107.84 433.488 1097.71 446.245 C 1095.25 444.738 1093.25 444.176 1090.56 443.241 L 1090.12 444.516 L 1089.18 445.525 C 1085.01 446.245 1074.71 439.193 1070.54 436.694 C 1061.2 448.717 1044.24 478.167 1035.62 492.241 C 1009.1 493.28 992.913 495.277 966.739 498.285 C 960.4 500.629 946.546 506.041 940.5 506.889 L 937.971 508.179 C 929.127 511.773 905.572 520.658 896.374 521.645 L 893.406 522.035 C 883.598 528.08 841.399 536.438 828.346 540.389 L 811.127 544.295 C 819.507 520.301 823.038 488.356 826.005 463.186 C 834.569 468.251 841.039 471.811 849.984 476.143 C 869.362 449.412 894.25 420.087 915.595 394.764 C 910.967 393.496 908.013 392.784 903.648 390.74 L 903.389 386.065 C 899.829 369.062 896.067 348.588 891.784 332.014 L 900.75 329.115 C 915.553 309.356 992.449 319.086 999.881 314.879 z"/>
<path transform="translate(0,0)" fill="rgb(220,89,74)" d="M 1063.33 431.791 L 1070.54 436.694 C 1061.2 448.717 1044.24 478.167 1035.62 492.241 C 1009.1 493.28 992.913 495.277 966.739 498.285 C 960.4 500.629 946.546 506.041 940.5 506.889 L 937.971 508.179 C 929.127 511.773 905.572 520.658 896.374 521.645 L 893.406 522.035 C 883.598 528.08 841.399 536.438 828.346 540.389 L 811.127 544.295 C 819.507 520.301 823.038 488.356 826.005 463.186 C 834.569 468.251 841.039 471.811 849.984 476.143 C 856.848 479.12 863.888 481.672 871.066 483.782 C 929.711 500.958 983.43 483.32 1034.83 455.293 C 1045.48 447.587 1054.05 441.198 1063.33 431.791 z"/>
<path transform="translate(0,0)" fill="rgb(254,199,139)" d="M 1063.33 431.791 L 1070.54 436.694 C 1061.2 448.717 1044.24 478.167 1035.62 492.241 C 1009.1 493.28 992.913 495.277 966.739 498.285 C 992.057 483.894 1013.58 480.923 1034.83 455.293 C 1045.48 447.587 1054.05 441.198 1063.33 431.791 z"/>
<path transform="translate(0,0)" fill="rgb(220,89,74)" d="M 999.881 314.879 L 1000.23 313.895 C 1002.11 312.021 1009.6 309.23 1012.48 308.586 C 1020.84 306.716 1023.47 304.425 1030.89 308.362 C 1039.46 313.263 1045.49 316.82 1053.45 322.819 C 1060.17 328.835 1065.93 334.149 1070.95 341.828 C 1058.98 342.133 1011.67 321.003 999.881 314.879 z"/>
<path transform="translate(0,0)" fill="rgb(220,89,74)" d="M 1063.33 431.791 C 1048.29 419.844 1035.11 407.068 1032.66 386.808 C 1031.65 378.398 1032.87 369.899 1038.34 363.162 C 1041.99 358.758 1046.68 355.335 1051.99 353.205 L 1052.7 353.934 C 1049.43 358.827 1040.18 363.881 1038.34 368.818 C 1028.37 395.542 1047.04 417.579 1068.44 431.042 C 1072.97 433.892 1088.69 442.954 1090.12 444.516 L 1089.18 445.525 C 1085.01 446.245 1074.71 439.193 1070.54 436.694 L 1063.33 431.791 z"/>
<path transform="translate(0,0)" fill="rgb(220,89,74)" d="M 900.75 329.115 C 904.299 333.782 904.196 378.896 903.389 386.065 C 899.829 369.062 896.067 348.588 891.784 332.014 L 900.75 329.115 z"/>
<path transform="translate(0,0)" fill="rgb(220,89,74)" d="M 1090.56 443.241 C 1095.03 436.209 1111.2 417.554 1116.73 409.623 C 1117.88 409.267 1118.87 408.963 1119.68 408.711 C 1113.52 423.588 1107.84 433.488 1097.71 446.245 C 1095.25 444.738 1093.25 444.176 1090.56 443.241 z"/>
<path transform="translate(0,0)" fill="rgb(220,89,74)" d="M 915.595 394.764 C 916.48 390.486 946.357 361.34 951.531 356.884 C 952.314 356.823 953.478 356.674 954.211 356.746 C 943.759 368.765 928.505 383.636 917.065 395.218 L 915.595 394.764 z"/>
<path transform="translate(0,0)" fill="rgb(28,136,173)" d="M 1035.62 492.241 C 1073.44 493.595 1144.45 498.624 1138.77 552.957 C 1131.75 620.219 1090.5 686.984 1058.46 745.56 C 1053.75 754.048 1040.14 776.763 1035.15 783.395 C 1030.53 782.212 1020.36 777.342 1013.74 775.353 L 1011.62 774.116 L 1004.09 771.054 C 1007.38 760.764 1012.62 737.585 1015.27 725.131 C 1024.52 682.501 1037.69 637.74 1040.05 594.301 C 1041.89 560.58 976.555 588.263 957.622 592.348 L 956.093 594.473 C 919.065 602.007 872.965 603.673 845.123 573.463 L 845.114 571.926 C 835.676 558.196 833.878 556.006 828.346 540.389 C 841.399 536.438 883.598 528.08 893.406 522.035 L 896.374 521.645 C 905.572 520.658 929.127 511.773 937.971 508.179 L 940.5 506.889 C 946.546 506.041 960.4 500.629 966.739 498.285 C 992.913 495.277 1009.1 493.28 1035.62 492.241 z"/>
<path transform="translate(0,0)" fill="rgb(28,136,173)" d="M 937.971 508.179 L 940.5 506.889 C 943.434 517.46 944.666 525.295 938.988 535.356 C 938.387 536.416 937.764 537.464 937.122 538.499 C 955.144 541.009 963.534 540.711 981.749 540.282 C 1011.44 540.015 1053.11 526.882 1074.92 553.715 C 1082.45 562.979 1082.91 581.928 1080.47 592.853 C 1073.35 624.797 1056.42 654.065 1045.07 684.976 C 1038.3 703.615 1031.83 722.36 1025.66 741.204 C 1022.62 750.375 1017.65 767.005 1013.74 775.353 L 1011.62 774.116 L 1004.09 771.054 C 1007.38 760.764 1012.62 737.585 1015.27 725.131 C 1024.52 682.501 1037.69 637.74 1040.05 594.301 C 1041.89 560.58 976.555 588.263 957.622 592.348 L 956.093 594.473 C 919.065 602.007 872.965 603.673 845.123 573.463 L 845.114 571.926 C 835.676 558.196 833.878 556.006 828.346 540.389 C 841.399 536.438 883.598 528.08 893.406 522.035 L 896.374 521.645 C 905.572 520.658 929.127 511.773 937.971 508.179 z"/>
<path transform="translate(0,0)" fill="rgb(2,88,120)" d="M 937.971 508.179 L 940.5 506.889 C 943.434 517.46 944.666 525.295 938.988 535.356 C 938.387 536.416 937.764 537.464 937.122 538.499 C 955.144 541.009 963.534 540.711 981.749 540.282 C 1011.44 540.015 1053.11 526.882 1074.92 553.715 C 1082.45 562.979 1082.91 581.928 1080.47 592.853 C 1073.35 624.797 1056.42 654.065 1045.07 684.976 C 1038.3 703.615 1031.83 722.36 1025.66 741.204 C 1022.62 750.375 1017.65 767.005 1013.74 775.353 L 1011.62 774.116 C 1021.85 738.563 1034.85 704.236 1047.78 668.701 C 1058.23 639.989 1093.61 584.705 1071.38 554.538 C 1055.35 532.788 1008.06 542.128 983.877 543.411 C 969.081 544.28 954.238 543.898 939.507 542.269 C 923.235 540.347 904.693 536.496 894.135 522.977 L 893.406 522.035 L 896.374 521.645 C 905.572 520.658 929.127 511.773 937.971 508.179 z"/>
<path transform="translate(0,0)" fill="rgb(28,136,173)" d="M 937.971 508.179 C 939.447 515.29 941.736 525.349 937.17 531.611 C 927.929 544.282 903.807 528.951 896.374 521.645 C 905.572 520.658 929.127 511.773 937.971 508.179 z"/>
<path transform="translate(0,0)" fill="rgb(2,88,120)" d="M 845.114 571.926 C 845.783 571.902 846.452 571.879 847.121 571.856 C 851.653 575.934 866.454 586.574 871.743 588.469 C 893.592 596.3 916.662 597.739 939.507 594.247 C 944.911 593.421 954.403 589.961 957.622 592.348 L 956.093 594.473 C 919.065 602.007 872.965 603.673 845.123 573.463 L 845.114 571.926 z"/>
<path transform="translate(0,0)" fill="rgb(28,136,173)" d="M 845.123 573.463 C 872.965 603.673 919.065 602.007 956.093 594.473 C 933.658 650.536 879.701 712.526 823.122 735.869 C 763.315 760.544 704.303 754.403 645.533 730.941 C 635.758 727.073 626.179 722.727 616.831 717.92 L 627.394 691.537 L 627.97 691.72 C 671.375 705.46 722.201 706.247 763.11 684.512 C 807.481 660.938 830.754 619.805 845.123 573.463 z"/>
<path transform="translate(0,0)" fill="rgb(254,180,149)" d="M 1126.02 392.177 C 1129.32 396.458 1140.65 399.895 1146.09 400.672 C 1170.37 404.136 1185.98 393.055 1204.27 378.427 C 1220.75 365.24 1241.6 348.216 1254.28 330.851 C 1259.87 323.182 1256.63 307.338 1265.38 300.283 C 1272.46 294.573 1282.97 295.554 1291.67 293.415 C 1299.86 297.57 1314.13 310.051 1312.71 320.097 C 1298.6 338.911 1288.48 343.184 1273.49 358.264 C 1244.33 387.595 1220.23 423.919 1187.49 449.713 C 1184.43 452.168 1170.68 454.89 1166.54 455.419 C 1142.6 458.485 1120.04 454.86 1097.71 446.245 C 1107.84 433.488 1113.52 423.588 1119.68 408.711 C 1122.45 403.949 1124.42 397.412 1126.02 392.177 z"/>
<path transform="translate(0,0)" fill="rgb(220,89,74)" d="M 1162.84 403.445 C 1166.33 403.738 1167.1 404.997 1169.62 407.495 C 1170.35 406.304 1171.08 405.125 1171.84 403.957 L 1172.88 405.157 C 1173.19 408.811 1173.76 412.029 1169.98 413.429 L 1168.29 411.951 L 1164.98 408.386 L 1163.94 408.426 C 1163.2 411.333 1162.75 412.957 1161.65 415.738 L 1159.82 415.947 C 1158.58 412.904 1161.26 406.174 1162.84 403.445 z"/>
<path transform="translate(0,0)" fill="rgb(220,89,74)" d="M 1283.16 295.432 C 1284.56 295.778 1284.23 295.776 1285.5 296.675 C 1284.78 299.801 1281.09 302.8 1278.64 305.283 C 1277.74 305.179 1277.29 304.801 1276.4 304.345 C 1277.13 301.061 1280.67 298.066 1283.16 295.432 z"/>
<path transform="translate(0,0)" fill="rgb(254,180,149)" d="M 749.121 508.025 C 745.943 513.036 739.154 532.783 734.419 533.409 L 733.263 531.279 C 733.255 524.289 735.343 517.163 738.404 510.958 C 743.338 500.96 750.805 485.582 757.746 477.066 C 764.864 468.175 774.695 458.66 780.329 448.833 C 800.807 413.11 809.603 378.272 846.347 354.587 C 861.919 344.551 873.815 338.836 891.784 332.014 C 896.067 348.588 899.829 369.062 903.389 386.065 L 903.648 390.74 C 899.724 389.151 870.25 395.25 866.388 397.218 C 842.146 409.571 807.293 458.29 797.47 481.474 C 799.655 493.376 804.286 523.683 795.404 532.676 L 793.85 531.798 C 789.72 524.64 789.075 512.603 788.301 504.306 C 782.363 516.773 780.4 527.966 777.424 541.259 C 776.613 544.885 774.905 551.178 771.665 553.11 C 769.465 549.281 770.888 525.271 770.782 518.315 C 767.765 527.643 760.271 557.39 750.983 559.83 C 745.746 553.603 760.367 529.49 758.705 519.754 C 752.398 522.005 749.02 547.412 741.035 551.754 L 739.402 550.578 C 737.45 543.341 746.697 518.525 749.121 508.025 z"/>
<path transform="translate(0,0)" fill="rgb(220,89,74)" d="M 783.728 481.365 L 785.491 482.418 C 785.624 486.113 779.007 494.96 779.093 496.731 C 779.981 514.913 774.601 514.935 756.04 505.017 L 754.614 503.057 L 755.199 501.768 C 757.086 501.968 771.011 507.804 775.227 509.159 C 774.702 495.836 776.877 492.534 783.728 481.365 z"/>
<path transform="translate(0,0)" fill="rgb(26,41,67)" d="M 1001.17 259.594 C 984.18 234.511 1003.44 241.329 1017.21 232.611 C 1035.74 220.879 1044.34 207.538 1063.97 228.584 C 1067.42 229.158 1070.88 229.759 1074.31 230.422 C 1090.89 233.633 1091.15 247.854 1081.65 259.02 C 1078.7 269.378 1085.19 274.537 1093.02 279.076 C 1078.88 302.762 1094.08 315.704 1059.45 311.084 L 1056.29 314.744 C 1054.76 318.108 1054.16 319.147 1053.45 322.819 C 1045.49 316.82 1039.46 313.263 1030.89 308.362 L 1034.82 301.877 C 1029.12 302.527 1026.48 303.587 1022.07 299.56 C 1020.44 295.595 1020.94 291.488 1021.01 287.094 C 1016.35 287.834 1006.93 290.587 1004.74 285.889 C 1006.07 281.333 1007.34 278.091 1005.39 273.8 C 1002.8 270.705 998.671 269.882 994.763 268.64 L 1001.17 259.594 z"/>
<path transform="translate(0,0)" fill="rgb(254,180,149)" d="M 1047.39 259.3 C 1044.66 256.672 1041.59 254.316 1040.34 250.89 C 1042.32 238.067 1079.65 224.807 1081.65 259.02 C 1078.7 269.378 1085.19 274.537 1093.02 279.076 C 1078.88 302.762 1094.08 315.704 1059.45 311.084 L 1056.29 314.744 C 1054.76 318.108 1054.16 319.147 1053.45 322.819 C 1045.49 316.82 1039.46 313.263 1030.89 308.362 L 1034.82 301.877 C 1036.16 296.365 1035.46 294.024 1032.51 289.245 C 1034.09 288.493 1036.1 288.137 1037.85 287.707 C 1036.17 284.476 1035.67 283.627 1034.88 280.102 L 1037.38 277.776 C 1039.27 279.242 1039.27 279.482 1041.71 279.668 C 1046.31 274.659 1035.82 270.496 1047.39 259.3 z"/>
<path transform="translate(0,0)" fill="rgb(220,89,74)" d="M 1056.29 314.744 C 1049.87 312.434 1043.98 308.773 1042.76 301.386 L 1043.53 301.107 L 1047.74 306.636 C 1051.6 308.225 1055.51 309.709 1059.45 311.084 L 1056.29 314.744 z"/>
<path transform="translate(0,0)" fill="rgb(254,254,254)" d="M 1072.61 286.124 C 1078.11 285.459 1081.89 284.906 1084.7 290.269 C 1084.15 292.715 1084.22 292.577 1082.83 294.665 C 1078.5 293.124 1072.22 293.777 1070.59 289.537 L 1072.61 286.124 z"/>
<path transform="translate(0,0)" fill="rgb(26,41,67)" d="M 1072.31 255.452 C 1075.51 255.796 1075.93 255.64 1078.18 257.686 C 1077.01 260.664 1076.96 259.849 1073.05 261.748 C 1069.63 262.654 1070.23 263.068 1067.46 262.112 C 1068.38 258.697 1069.65 258.235 1072.31 255.452 z"/>
<path transform="translate(0,0)" fill="rgb(250,137,108)" d="M 1032.51 289.245 C 1029.08 288.808 1026.28 285.948 1025.16 282.762 C 1025.1 276.976 1027.49 274.56 1032.93 273.976 C 1035.66 275.105 1035.69 275.238 1037.38 277.776 L 1034.88 280.102 C 1035.67 283.627 1036.17 284.476 1037.85 287.707 C 1036.1 288.137 1034.09 288.493 1032.51 289.245 z"/>
<path transform="translate(0,0)" fill="rgb(220,89,74)" d="M 1037.85 287.707 C 1037.38 287.665 1036.9 287.615 1036.43 287.558 C 1032.63 287.076 1032.06 286.727 1029.76 283.715 C 1029.23 279.926 1028.87 281.26 1030.6 278.311 L 1032.8 278.029 L 1034.88 280.102 C 1035.67 283.627 1036.17 284.476 1037.85 287.707 z"/>
<path transform="translate(0,0)" fill="rgb(254,254,254)" d="M 1422.99 647.21 C 1424.77 646.996 1426.56 646.88 1428.36 646.861 C 1457.58 646.372 1476.41 682.029 1492.53 700.435 C 1494.87 703.101 1505.5 701.536 1510.71 704.962 C 1515.94 708.402 1518.5 710.834 1523.06 715.2 C 1501.69 714.134 1480.3 713.331 1458.9 712.793 C 1430.42 709.011 1397.52 712.627 1369.19 708.059 C 1366.06 707.555 1367.18 691.007 1370.8 687.811 C 1378.78 680.75 1385.49 690.64 1389.73 695.937 C 1395.89 676.439 1402.41 655.55 1422.99 647.21 z"/>
<path transform="translate(0,0)" fill="rgb(119,48,82)" d="M 595.563 749.129 C 588.489 751.97 577.714 767.888 570.186 763.226 C 566.82 754.147 591.807 691.715 600.31 684.98 C 607.792 682.215 620.202 688.458 627.394 691.537 L 616.831 717.92 C 615.134 721.867 613.644 725.55 611.499 729.284 C 611.259 734.33 611.82 734.629 606.67 736.353 C 605.894 739.11 601.064 744.838 598.645 748.515 L 595.563 749.129 z"/>
<path transform="translate(0,0)" fill="rgb(247,127,56)" d="M 601.882 722.84 C 601.812 720.231 601.567 719.205 602.706 716.829 C 608.182 717.008 609.433 725.236 611.499 729.284 C 611.259 734.33 611.82 734.629 606.67 736.353 C 605.894 739.11 601.064 744.838 598.645 748.515 L 595.563 749.129 C 593.508 743.965 587.461 733.271 593.453 730.374 L 596.256 731.392 C 597.413 728.63 596.812 728.571 596.268 725.041 C 598.318 722.817 598.109 723.502 601.882 722.84 z"/>
<path transform="translate(0,0)" fill="rgb(119,48,82)" d="M 1004.09 771.054 L 1011.62 774.116 L 1013.74 775.353 C 1020.36 777.342 1030.53 782.212 1035.15 783.395 L 1041.96 787.27 C 1046.87 787.214 1047.32 786.87 1049.52 791.716 C 1053.46 793.562 1053.28 793.229 1055.28 798.179 C 1059.44 798.427 1058.73 797.706 1060.91 799.963 L 1061.2 803.105 C 1065.04 810.626 1078.38 818.848 1076.17 828.189 C 1068.07 832.79 1004.23 807.21 997.117 797.406 C 994.302 793.523 1001.79 776.701 1004.09 771.054 z"/>
<path transform="translate(0,0)" fill="rgb(247,127,56)" d="M 1041.96 787.27 C 1046.87 787.214 1047.32 786.87 1049.52 791.716 C 1053.46 793.562 1053.28 793.229 1055.28 798.179 C 1059.44 798.427 1058.73 797.706 1060.91 799.963 L 1061.2 803.105 C 1056.7 805.008 1046.57 810.562 1043.07 806.042 L 1043.49 802.854 C 1039.53 802.565 1038.94 803.176 1036.11 801.038 L 1035.77 798.153 C 1031.28 796.73 1032.38 797.682 1029.65 794.789 L 1029.85 793.126 C 1033.24 790.08 1037.55 788.991 1041.96 787.27 z"/>
<path transform="translate(0,0)" fill="rgb(254,254,254)" d="M 233.044 781.61 C 231.16 779.112 231.893 776.621 233.092 774.142 C 239.126 771.127 241.777 773.821 245.103 778.877 L 233.044 781.61 z"/>
<path transform="translate(0,0)" fill="rgb(254,199,139)" d="M 1770.76 94.0715 C 1776.78 108.591 1781.31 123.678 1787.76 138.891 C 1778.72 153.391 1738.7 194.479 1734.79 205.79 L 1735.14 207.072 C 1731.31 211.893 1722.75 222.288 1718.25 226.448 C 1712.7 218.004 1713.34 191.018 1711.91 179.887 C 1711.56 177.204 1711.67 167.946 1712.77 165.498 C 1717.07 155.933 1729.34 135.646 1736.1 128.2 C 1740.5 135.957 1742.2 138.502 1747.56 145.429 L 1742.98 129.126 C 1748 121.188 1764.17 100.936 1770.76 94.0715 z"/>
<path transform="translate(0,0)" fill="rgb(254,199,139)" d="M 1845.77 399.096 C 1852.46 399.479 1887.28 399.877 1890.13 401.75 C 1888.13 408.622 1885.06 412.25 1882.68 418.568 L 1893.1 406.774 C 1908.19 408.573 1923.26 410.465 1938.32 412.452 C 1932.14 421.241 1915.63 442.927 1908.34 450.509 C 1878.97 447.114 1849.63 441.61 1820.22 437.975 L 1818.52 439.363 C 1814.76 440.281 1801.7 438.12 1798.59 435.279 L 1799.32 433.763 C 1803.74 427.511 1837.65 404.424 1845.77 399.096 z"/>
<path transform="translate(0,0)" fill="rgb(254,254,254)" d="M 1799.32 433.763 C 1805.41 434.49 1814.49 435.913 1820.22 437.975 L 1818.52 439.363 C 1814.76 440.281 1801.7 438.12 1798.59 435.279 L 1799.32 433.763 z"/>
</svg>