<svg version="1.1" xmlns="http://www.w3.org/2000/svg" style="display: block;" viewBox="0 0 2048 1634" width="2000" height="1596" preserveAspectRatio="none">
<defs>
	<linearGradient id="Gradient1" gradientUnits="userSpaceOnUse" x1="561.66" y1="837.638" x2="464.879" y2="117.724">
		<stop class="stop0" offset="0" stop-opacity="1" stop-color="rgb(198,65,65)"/>
		<stop class="stop1" offset="1" stop-opacity="1" stop-color="rgb(237,114,112)"/>
	</linearGradient>
</defs>
<path transform="translate(0,0)" fill="rgb(254,155,153)" d="M 974.879 488.243 C 975.184 488.088 975.493 487.938 975.795 487.777 C 990.116 480.154 1018.68 453.945 1033.85 442.527 C 1098.78 393.65 1196.3 322.036 1277.46 308.445 C 1287.97 306.685 1301.52 304.847 1311.93 307.984 C 1350.94 319.741 1377.09 363.52 1394.35 397.903 C 1397.37 403.901 1404.24 422.728 1410.25 424.757 C 1414.54 426.203 1418.94 425.063 1422.77 422.902 C 1470.37 396.016 1494.55 181.286 1571.55 167.97 C 1577.59 166.926 1584.33 166.621 1590.3 168.227 C 1597.86 170.262 1603.77 174.816 1607.47 181.758 C 1617.31 200.258 1601.36 259.976 1614.84 264.699 C 1617.25 265.544 1619.55 264.966 1621.73 263.775 C 1661.89 241.88 1718.22 156.181 1769.79 170.007 C 1779.6 172.639 1788.57 179.979 1793.55 188.805 C 1798.7 197.953 1798.66 208.352 1795.84 218.233 C 1777.84 281.407 1630.43 358.905 1593.55 422.603 C 1588.9 430.623 1586.84 437.725 1585.39 446.814 C 1615.96 521.096 1732.81 400.433 1762.89 479.055 C 1784.83 536.404 1752.42 625.411 1729.65 678.746 C 1697.3 754.597 1656.26 826.437 1607.35 892.826 C 1626 892.225 1701.1 888.431 1713.6 895.936 C 1718.76 905.354 1717.28 937.34 1717.26 949.683 L 1717.21 1026.15 L 1717.25 1177.48 C 1717.26 1192.43 1719.61 1258.95 1713.79 1267.35 C 1702.87 1274.09 1679.94 1272.06 1666.75 1272 C 1644.67 1271.81 1622.6 1271.8 1600.53 1271.97 L 1600.59 1274.27 C 1602.09 1332.41 1606.29 1387.26 1562.46 1431.99 C 1533.57 1461.47 1498.84 1474.33 1458.24 1474.4 C 1384.41 1474.53 1310.58 1474.41 1236.77 1474.4 L 800.703 1474.38 L 600.902 1474.45 L 541.348 1474.53 C 524.289 1474.55 507.197 1475.04 490.244 1472.38 C 434.826 1463.64 389.074 1420 378.121 1364.95 C 373.74 1342.93 375.044 1317.84 375.068 1295.24 L 375.204 1207.6 L 375.125 867.949 C 376.419 859.764 376.061 842.736 375.792 834.133 C 373.371 756.717 426.73 697.736 503.203 689.993 C 505.489 682.476 506.778 672.133 509.469 663.112 C 512.803 659.505 513.878 659.074 518.126 656.847 C 526.967 655.207 532.139 653.911 540.882 656.326 C 548.276 650.007 555.328 644.336 563.906 639.698 C 566.776 639.031 569.856 638.11 572.718 637.32 C 574.215 638.537 573.481 638.418 574.987 638.511 C 596.857 637.587 592.45 653.197 599.815 657.232 L 604.151 656.633 L 603.851 656.034 C 606.688 654.843 619.446 648.602 620.939 648.801 C 619.492 627.563 645.426 600.076 660.382 586.512 C 712.173 551.454 741.121 558.645 798.191 552.284 C 802.263 550.746 800.608 547.234 808.135 542.759 C 829.542 537.617 828.62 543.763 845.868 542.242 C 858.223 541.153 860.82 534.11 879.274 535.459 C 917.894 523.764 939.54 506.262 974.879 488.243 z M 879.274 535.459 C 886.23 543.816 886.634 554.779 883.957 564.998 C 888.772 578.076 892.895 594.381 897.498 605.893 C 904.411 623.121 911.157 640.415 917.735 657.774 C 927.325 656.353 938.736 657.119 948.556 656.499 C 971.737 655.034 1005.24 657.412 1027.2 651.117 L 1028.48 648.1 C 1029.14 659.277 1028.21 669.778 1027.24 680.899 C 1025.82 685.439 1024.76 686.498 1020.6 689.141 C 1053.4 689.515 1088.22 688.299 1120.55 689.245 C 1127.67 689.131 1136.04 689.217 1143.04 688.823 C 1195.6 689.405 1248.16 689.545 1300.72 689.243 C 1299.58 705.761 1298.67 723.239 1297.03 739.645 C 1294.77 786.942 1290.36 834.276 1288.45 881.685 C 1286.86 921.154 1283.03 962.815 1286.39 1002.23 C 1287.17 1011.36 1297.37 1020.57 1304.15 1026.11 L 1308.82 1028.75 C 1317.69 1034.8 1333.27 1034.25 1343.41 1032.77 C 1347.91 1030.91 1352.6 1029.1 1356.49 1026.11 C 1394.4 996.977 1393.01 793.469 1399.91 739.7 C 1400.24 724.913 1402.19 704.633 1403.02 689.106 L 1408.25 689.864 L 1409.68 695.319 C 1420.29 712.169 1506.49 708.274 1526.51 704.947 C 1561.41 725.975 1584.28 751.087 1595.52 791.822 C 1596.91 796.844 1599.11 807.15 1599.53 816.011 C 1600.66 839.564 1599.05 867.436 1600.26 891.273 C 1600.82 891.656 1601.38 892.039 1601.94 892.422 L 1607.35 892.826 C 1656.26 826.437 1697.3 754.597 1729.65 678.746 C 1752.42 625.411 1784.83 536.404 1762.89 479.055 C 1732.81 400.433 1615.96 521.096 1585.39 446.814 C 1586.84 437.725 1588.9 430.623 1593.55 422.603 C 1630.43 358.905 1777.84 281.407 1795.84 218.233 C 1798.66 208.352 1798.7 197.953 1793.55 188.805 C 1788.57 179.979 1779.6 172.639 1769.79 170.007 C 1718.22 156.181 1661.89 241.88 1621.73 263.775 C 1619.55 264.966 1617.25 265.544 1614.84 264.699 C 1601.36 259.976 1617.31 200.258 1607.47 181.758 C 1603.77 174.816 1597.86 170.262 1590.3 168.227 C 1584.33 166.621 1577.59 166.926 1571.55 167.97 C 1494.55 181.286 1470.37 396.016 1422.77 422.902 C 1418.94 425.063 1414.54 426.203 1410.25 424.757 C 1404.24 422.728 1397.37 403.901 1394.35 397.903 C 1377.09 363.52 1350.94 319.741 1311.93 307.984 C 1301.52 304.847 1287.97 306.685 1277.46 308.445 C 1196.3 322.036 1098.78 393.65 1033.85 442.527 C 1018.68 453.945 990.116 480.154 975.795 487.777 C 975.493 487.938 975.184 488.088 974.879 488.243 C 939.54 506.262 917.894 523.764 879.274 535.459 z"/>
<path transform="translate(0,0)" fill="rgb(254,254,254)" d="M 1403.02 689.106 L 1408.25 689.864 L 1409.68 695.319 C 1420.29 712.169 1506.49 708.274 1526.51 704.947 C 1561.41 725.975 1584.28 751.087 1595.52 791.822 C 1596.91 796.844 1599.11 807.15 1599.53 816.011 C 1600.66 839.564 1599.05 867.436 1600.26 891.273 C 1600.82 891.656 1601.38 892.039 1601.94 892.422 L 1607.35 892.826 C 1626 892.225 1701.1 888.431 1713.6 895.936 C 1718.76 905.354 1717.28 937.34 1717.26 949.683 L 1717.21 1026.15 L 1717.25 1177.48 C 1717.26 1192.43 1719.61 1258.95 1713.79 1267.35 C 1702.87 1274.09 1679.94 1272.06 1666.75 1272 C 1644.67 1271.81 1622.6 1271.8 1600.53 1271.97 L 1600.59 1274.27 C 1602.09 1332.41 1606.29 1387.26 1562.46 1431.99 C 1533.57 1461.47 1498.84 1474.33 1458.24 1474.4 C 1384.41 1474.53 1310.58 1474.41 1236.77 1474.4 L 800.703 1474.38 L 600.902 1474.45 L 541.348 1474.53 C 524.289 1474.55 507.197 1475.04 490.244 1472.38 C 434.826 1463.64 389.074 1420 378.121 1364.95 C 373.74 1342.93 375.044 1317.84 375.068 1295.24 L 375.204 1207.6 L 375.125 867.949 C 376.419 859.764 376.061 842.736 375.792 834.133 C 373.371 756.717 426.73 697.736 503.203 689.993 C 493.109 720.244 465.523 723.583 462.557 755.213 C 464.855 769.223 471.069 774.527 480.376 784.767 L 486.899 792.006 C 470.208 808.659 469.804 820.14 469.768 843.267 L 469.945 1181.92 C 469.91 1194.59 470.44 1212.26 469.794 1224.49 L 469.945 1238.51 C 498.219 1252.39 521.287 1249.76 551.657 1249.74 L 636.747 1249.65 C 649.206 1249.64 668.982 1248.99 680.902 1249.77 L 681.116 1249.3 C 686.438 1250.79 722.932 1249.78 730.659 1249.77 L 872.076 1249.72 L 1260.34 1249.74 C 1327.21 1249.75 1394.11 1249.94 1460.99 1249.54 C 1479.36 1249.43 1495.08 1245.32 1510.57 1235.31 C 1529.96 1222.77 1538.62 1207.04 1547.51 1186.64 L 1547.61 1186.89 C 1548.26 1186.13 1549.41 1181.43 1549.93 1179.81 C 1550.7 1172.64 1550.1 1152.93 1550.1 1144.34 L 1550.03 1070.6 L 1550.1 837.217 C 1549.99 807.65 1545.98 785.95 1523.7 764.224 C 1498.49 739.641 1474.14 739.425 1441.83 739.515 L 1399.91 739.7 C 1400.24 724.913 1402.19 704.633 1403.02 689.106 z"/>
<path transform="translate(0,0)" fill="rgb(235,143,142)" d="M 425.714 1177.49 C 436.574 1206.63 441.65 1220.34 469.334 1237.75 C 469.401 1233.93 469.325 1228.12 469.794 1224.49 L 469.945 1238.51 C 498.219 1252.39 521.287 1249.76 551.657 1249.74 L 636.747 1249.65 C 649.206 1249.64 668.982 1248.99 680.902 1249.77 L 681.116 1249.3 C 686.438 1250.79 722.932 1249.78 730.659 1249.77 L 872.076 1249.72 L 1260.34 1249.74 C 1327.21 1249.75 1394.11 1249.94 1460.99 1249.54 C 1479.36 1249.43 1495.08 1245.32 1510.57 1235.31 C 1529.96 1222.77 1538.62 1207.04 1547.51 1186.64 L 1547.61 1186.89 C 1548.26 1186.13 1549.41 1181.43 1549.93 1179.81 C 1549.96 1180.66 1549.98 1181.5 1550 1182.35 C 1550.81 1227.44 1549.49 1272.86 1550.11 1317.99 C 1550.54 1349.41 1548.77 1373.93 1525.32 1397.65 C 1504.65 1418.56 1484.48 1423.93 1456.01 1424.04 L 798.119 1424.03 L 598.131 1424.06 L 539.051 1424.11 C 526.595 1424.11 513.445 1424.43 500.994 1423.17 C 468.379 1419.88 435.469 1391.5 428.547 1359.24 C 423.861 1337.4 425.616 1307.45 425.631 1284.53 L 425.714 1177.49 z"/>
<path transform="translate(0,0)" fill="rgb(229,81,81)" d="M 469.945 1238.51 C 498.219 1252.39 521.287 1249.76 551.657 1249.74 L 636.747 1249.65 C 649.206 1249.64 668.982 1248.99 680.902 1249.77 C 681.042 1281.16 682.715 1314.51 679.195 1345.5 C 677.492 1360.5 658.435 1380.62 643.524 1382.34 C 608.935 1386.16 571.835 1383.14 537.163 1384.09 C 472.061 1385.88 469.745 1354.35 469.832 1301.45 L 469.945 1238.51 z"/>
<path transform="translate(0,0)" fill="rgb(254,155,153)" d="M 425.714 1177.49 L 425.702 938.65 L 425.712 863.85 C 425.719 816.034 421.465 788.85 462.557 755.213 C 464.855 769.223 471.069 774.527 480.376 784.767 L 486.899 792.006 C 470.208 808.659 469.804 820.14 469.768 843.267 L 469.945 1181.92 C 469.91 1194.59 470.44 1212.26 469.794 1224.49 C 469.325 1228.12 469.401 1233.93 469.334 1237.75 C 441.65 1220.34 436.574 1206.63 425.714 1177.49 z"/>
<path transform="translate(0,0)" fill="rgb(254,208,207)" d="M 480.376 784.767 L 486.899 792.006 C 470.208 808.659 469.804 820.14 469.768 843.267 L 469.945 1181.92 C 463.774 1186.16 459.552 1188.31 452.83 1191.75 C 452.394 1186.95 452.274 1181.93 452.144 1177.09 C 450.553 1116.9 449.955 1056.7 450.351 996.491 C 450.6 969.665 451.162 942.863 452.071 915.732 C 453.068 885.956 449.039 850.528 454.838 821.628 C 457.648 807.628 470.877 794.784 480.376 784.767 z"/>
<path transform="translate(0,0)" fill="rgb(228,99,107)" d="M 974.879 488.243 C 975.184 488.088 975.493 487.938 975.795 487.777 C 990.116 480.154 1018.68 453.945 1033.85 442.527 C 1098.78 393.65 1196.3 322.036 1277.46 308.445 C 1287.97 306.685 1301.52 304.847 1311.93 307.984 C 1350.94 319.741 1377.09 363.52 1394.35 397.903 C 1397.37 403.901 1404.24 422.728 1410.25 424.757 C 1414.54 426.203 1418.94 425.063 1422.77 422.902 C 1470.37 396.016 1494.55 181.286 1571.55 167.97 C 1577.59 166.926 1584.33 166.621 1590.3 168.227 C 1597.86 170.262 1603.77 174.816 1607.47 181.758 C 1617.31 200.258 1601.36 259.976 1614.84 264.699 C 1617.25 265.544 1619.55 264.966 1621.73 263.775 C 1661.89 241.88 1718.22 156.181 1769.79 170.007 C 1779.6 172.639 1788.57 179.979 1793.55 188.805 C 1798.7 197.953 1798.66 208.352 1795.84 218.233 C 1777.84 281.407 1630.43 358.905 1593.55 422.603 C 1588.9 430.623 1586.84 437.725 1585.39 446.814 C 1615.96 521.096 1732.81 400.433 1762.89 479.055 C 1784.83 536.404 1752.42 625.411 1729.65 678.746 C 1697.3 754.597 1656.26 826.437 1607.35 892.826 L 1601.94 892.422 C 1601.38 892.039 1600.82 891.656 1600.26 891.273 C 1599.05 867.436 1600.66 839.564 1599.53 816.011 C 1599.11 807.15 1596.91 796.844 1595.52 791.822 C 1584.28 751.087 1561.41 725.975 1526.51 704.947 C 1506.49 708.274 1420.29 712.169 1409.68 695.319 L 1408.25 689.864 L 1403.02 689.106 C 1402.19 704.633 1400.24 724.913 1399.91 739.7 C 1393.01 793.469 1394.4 996.977 1356.49 1026.11 C 1352.6 1029.1 1347.91 1030.91 1343.41 1032.77 C 1333.27 1034.25 1317.69 1034.8 1308.82 1028.75 L 1304.15 1026.11 C 1297.37 1020.57 1287.17 1011.36 1286.39 1002.23 C 1283.03 962.815 1286.86 921.154 1288.45 881.685 C 1290.36 834.276 1294.77 786.942 1297.03 739.645 C 1298.67 723.239 1299.58 705.761 1300.72 689.243 C 1248.16 689.545 1195.6 689.405 1143.04 688.823 C 1136.04 689.217 1127.67 689.131 1120.55 689.245 C 1088.22 688.299 1053.4 689.515 1020.6 689.141 C 1024.76 686.498 1025.82 685.439 1027.24 680.899 C 1028.21 669.778 1029.14 659.277 1028.48 648.1 L 1027.2 651.117 C 1005.24 657.412 971.737 655.034 948.556 656.499 C 938.736 657.119 927.325 656.353 917.735 657.774 C 911.157 640.415 904.411 623.121 897.498 605.893 C 892.895 594.381 888.772 578.076 883.957 564.998 C 886.634 554.779 886.23 543.816 879.274 535.459 C 917.894 523.764 939.54 506.262 974.879 488.243 z M 1220.05 485.611 C 1231.64 483.673 1240.59 477.432 1251.61 473.111 C 1260.07 469.799 1265.58 468.361 1274.47 466.168 C 1290.77 474.442 1282.78 486.482 1295.63 492.88 C 1286.41 473.166 1277.76 455.001 1276.88 432.818 C 1258.97 450.254 1236.97 468.077 1220.05 485.611 z M 1178.87 553.603 C 1179.65 543.175 1180.66 526.899 1183.12 517.197 C 1169.2 528.806 1154.58 541.717 1140.48 552.881 C 1153.28 553.293 1166.07 553.534 1178.87 553.603 z M 1449.11 544.189 L 1450.69 547.816 L 1451.96 548.039 C 1455.25 542.379 1463.26 521.265 1467.72 511.829 C 1479.98 485.84 1508.12 435.171 1526.79 415.664 C 1531.95 410.275 1598.84 381.863 1605.13 374.825 L 1604.4 372.719 C 1598.58 370.584 1542.41 399.594 1534.13 404.667 C 1572.29 358.327 1614.07 316.665 1665.53 285.046 C 1669.3 282.73 1673.21 281.465 1672.94 276.707 C 1671.11 275.606 1671.26 275.598 1669.14 275.698 C 1628.98 297.999 1593.39 329.65 1561.51 362.609 C 1550.87 373.611 1538.84 390.418 1528.56 400.266 C 1529.69 389.681 1538.41 302.412 1536.85 299.075 L 1535.02 298.164 C 1533.54 299.092 1533.55 298.683 1533.11 300.599 C 1532.26 304.233 1532.65 308.142 1532.05 311.873 C 1528.47 334.448 1526.27 356.697 1524.23 379.46 C 1523.4 388.771 1523.52 402.363 1520.15 411.015 C 1516.06 421.5 1504.6 434.376 1498.15 444.138 C 1486.71 461.442 1449.17 524.677 1449.13 543.278 C 1449.13 543.582 1449.12 543.886 1449.11 544.189 z M 1477.21 641.38 C 1521.77 625.653 1567.48 605.693 1611.69 588.643 C 1618.58 585.986 1661.07 569.095 1664.63 566.257 L 1664.75 564.526 C 1664.17 564.247 1661.88 563.087 1661.44 562.971 C 1645.43 567.771 1622.94 577.109 1607.02 583.279 C 1571.05 597.262 1535.18 611.511 1499.42 626.027 C 1494.02 628.193 1476.26 634.082 1473.7 637.561 C 1473.72 640.774 1473.2 639.435 1475.02 641.807 L 1477.21 641.38 z"/>
<path transform="translate(0,0)" fill="rgb(172,54,97)" d="M 1027.54 634.871 C 1121.04 639.9 1215.39 630.913 1308.69 639.081 C 1315.98 639.719 1335.61 643.129 1339.94 649.109 C 1348.53 660.991 1344.95 689.695 1343.21 703.62 C 1338.28 743.253 1329.41 782.509 1324.73 822.161 C 1321.27 851.424 1321.76 881.457 1319.28 910.9 C 1316.49 944.014 1313.98 977.123 1310.52 1010.18 C 1309.88 1016.29 1309.24 1022.64 1308.82 1028.75 L 1304.15 1026.11 C 1297.37 1020.57 1287.17 1011.36 1286.39 1002.23 C 1283.03 962.815 1286.86 921.154 1288.45 881.685 C 1290.36 834.276 1294.77 786.942 1297.03 739.645 C 1298.67 723.239 1299.58 705.761 1300.72 689.243 C 1248.16 689.545 1195.6 689.405 1143.04 688.823 C 1136.04 689.217 1127.67 689.131 1120.55 689.245 C 1088.22 688.299 1053.4 689.515 1020.6 689.141 C 1024.76 686.498 1025.82 685.439 1027.24 680.899 C 1028.21 669.778 1029.14 659.277 1028.48 648.1 L 1027.54 634.871 z"/>
<path transform="translate(0,0)" fill="rgb(235,143,142)" d="M 1027.24 680.899 C 1067.55 685.216 1103.9 685.559 1143.04 688.823 C 1136.04 689.217 1127.67 689.131 1120.55 689.245 C 1088.22 688.299 1053.4 689.515 1020.6 689.141 C 1024.76 686.498 1025.82 685.439 1027.24 680.899 z"/>
<path transform="translate(0,0)" fill="rgb(172,54,97)" d="M 1087.65 553.469 C 1122.01 519.822 1208.65 428.944 1245.29 412.877 C 1257.45 407.543 1275.62 406.382 1288.82 406.569 C 1292.84 406.626 1298.12 407.255 1301.06 410.317 C 1310.73 420.366 1321.15 446.465 1327.83 459.566 C 1342.26 487.945 1357.05 516.142 1372.19 544.151 C 1383.14 564.62 1394.14 585.404 1407.34 604.562 C 1413.33 613.262 1448.83 653.736 1448.77 659.581 C 1447.02 660.362 1446.93 660.449 1445.07 660.958 C 1440.28 660.924 1425.22 660.662 1421.28 661.685 C 1409.32 662.671 1406.68 655.077 1399.86 646.096 C 1394.27 633.168 1390 621.693 1376.99 610.324 C 1351.39 587.963 1331.81 552.199 1313.65 523.705 C 1308.76 516.023 1299.05 495.902 1295.63 492.88 C 1286.41 473.166 1277.76 455.001 1276.88 432.818 C 1258.97 450.254 1236.97 468.077 1220.05 485.611 C 1221.24 483.666 1185.6 514.775 1183.12 517.197 C 1169.2 528.806 1154.58 541.717 1140.48 552.881 L 1087.65 553.469 z"/>
<path transform="translate(0,0)" fill="rgb(254,254,254)" d="M 879.274 535.459 C 917.894 523.764 939.54 506.262 974.879 488.243 C 999.405 541.516 1019.99 575.382 1027.54 634.871 L 1028.48 648.1 L 1027.2 651.117 C 1005.24 657.412 971.737 655.034 948.556 656.499 C 938.736 657.119 927.325 656.353 917.735 657.774 C 911.157 640.415 904.411 623.121 897.498 605.893 C 892.895 594.381 888.772 578.076 883.957 564.998 C 886.634 554.779 886.23 543.816 879.274 535.459 z"/>
<path transform="translate(0,0)" fill="rgb(48,31,104)" d="M 1445.07 660.958 C 1452.12 660.54 1460.58 660.055 1467.58 660.06 C 1478.99 669.771 1483.99 668.855 1494.39 675.578 C 1502.49 677.291 1532.97 692.14 1533.78 701.184 C 1531.69 703.976 1530.51 703.991 1526.51 704.947 C 1506.49 708.274 1420.29 712.169 1409.68 695.319 C 1409.64 685.845 1412.66 679.492 1418.34 671.956 C 1418.42 670.978 1420.4 666.394 1420.86 664.329 L 1422.43 662.689 L 1421.28 661.685 C 1425.22 660.662 1440.28 660.924 1445.07 660.958 z"/>
<path transform="translate(0,0)" fill="rgb(252,91,91)" d="M 1445.07 660.958 C 1452.12 660.54 1460.58 660.055 1467.58 660.06 C 1478.99 669.771 1483.99 668.855 1494.39 675.578 C 1497.49 678.386 1498.67 679.345 1499.21 682.994 C 1491.9 693.175 1438.95 685.919 1427.74 682.132 L 1418.34 671.956 C 1418.42 670.978 1420.4 666.394 1420.86 664.329 L 1422.43 662.689 L 1421.28 661.685 C 1425.22 660.662 1440.28 660.924 1445.07 660.958 z"/>
<path transform="translate(0,0)" fill="rgb(235,143,142)" d="M 1399.86 646.096 C 1406.68 655.077 1409.32 662.671 1421.28 661.685 L 1422.43 662.689 L 1420.86 664.329 C 1420.4 666.394 1418.42 670.978 1418.34 671.956 C 1412.66 679.492 1409.64 685.845 1409.68 695.319 L 1408.25 689.864 L 1403.02 689.106 C 1402.72 678.791 1402.7 675.772 1405.63 665.878 C 1401.91 658.303 1400.56 654.545 1399.86 646.096 z"/>
<path transform="translate(0,0)" fill="rgb(229,81,81)" d="M 1420.86 664.329 C 1420.4 666.394 1418.42 670.978 1418.34 671.956 C 1412.66 679.492 1409.64 685.845 1409.68 695.319 L 1408.25 689.864 L 1407.08 688.866 C 1406.65 684.018 1409.33 675.912 1411.49 671.477 C 1414.15 666.018 1414.99 666.304 1420.86 664.329 z"/>
<path transform="translate(0,0)" fill="rgb(228,99,107)" d="M 572.718 637.32 C 574.215 638.537 573.481 638.418 574.987 638.511 C 596.857 637.587 592.45 653.197 599.815 657.232 L 604.151 656.633 C 601.242 668.247 594.756 671.167 588.342 679.074 L 600.144 677.749 C 600.042 681.201 600.059 686.082 599.774 689.396 C 595.709 706.956 589.624 721.711 582.279 738.177 L 581.516 740.028 L 562.202 780.007 C 578.648 779.63 595.074 779.504 611.455 779.543 C 631.4 779.504 649.491 778.453 664.885 793.415 C 678.381 806.532 680.848 818.761 680.99 837.131 C 681.581 913.652 679.654 990.738 680.953 1067.19 L 681.011 1187 C 681.013 1206.86 680.488 1229.73 681.116 1249.3 L 680.902 1249.77 C 668.982 1248.99 649.206 1249.64 636.747 1249.65 L 551.657 1249.74 C 521.287 1249.76 498.219 1252.39 469.945 1238.51 L 469.794 1224.49 C 470.44 1212.26 469.91 1194.59 469.945 1181.92 L 469.768 843.267 C 469.804 820.14 470.208 808.659 486.899 792.006 L 480.376 784.767 C 471.069 774.527 464.855 769.223 462.557 755.213 C 465.523 723.583 493.109 720.244 503.203 689.993 C 505.489 682.476 506.778 672.133 509.469 663.112 C 512.803 659.505 513.878 659.074 518.126 656.847 C 526.967 655.207 532.139 653.911 540.882 656.326 C 548.276 650.007 555.328 644.336 563.906 639.698 C 566.776 639.031 569.856 638.11 572.718 637.32 z"/>
<path transform="translate(0,0)" fill="rgb(252,91,91)" d="M 469.945 1181.92 C 482.399 1176.79 507.848 1160.66 521.138 1153.49 C 564.233 1130.25 606.901 1105.19 650.512 1082.94 C 659.489 1078.36 672.705 1069.7 680.953 1067.19 L 681.011 1187 C 681.013 1206.86 680.488 1229.73 681.116 1249.3 L 680.902 1249.77 C 668.982 1248.99 649.206 1249.64 636.747 1249.65 L 551.657 1249.74 C 521.287 1249.76 498.219 1252.39 469.945 1238.51 L 469.794 1224.49 C 470.44 1212.26 469.91 1194.59 469.945 1181.92 z"/>
<path transform="translate(0,0)" fill="rgb(48,31,104)" d="M 572.718 637.32 C 574.215 638.537 573.481 638.418 574.987 638.511 C 596.857 637.587 592.45 653.197 599.815 657.232 L 604.151 656.633 C 601.242 668.247 594.756 671.167 588.342 679.074 L 600.144 677.749 C 600.042 681.201 600.059 686.082 599.774 689.396 C 595.709 706.956 589.624 721.711 582.279 738.177 L 581.516 740.028 L 562.202 780.007 C 559.006 791.115 561.552 800.362 565.19 809.966 C 572.307 828.754 578.234 847.636 565.581 865.505 C 550.334 895.219 467.984 911.542 481.555 861.162 C 488.055 837.027 506.413 817.511 486.899 792.006 L 480.376 784.767 C 471.069 774.527 464.855 769.223 462.557 755.213 C 465.523 723.583 493.109 720.244 503.203 689.993 C 505.489 682.476 506.778 672.133 509.469 663.112 C 512.803 659.505 513.878 659.074 518.126 656.847 C 526.967 655.207 532.139 653.911 540.882 656.326 C 548.276 650.007 555.328 644.336 563.906 639.698 C 566.776 639.031 569.856 638.11 572.718 637.32 z"/>
<path transform="translate(0,0)" fill="rgb(252,91,91)" d="M 572.718 637.32 C 574.215 638.537 573.481 638.418 574.987 638.511 C 596.857 637.587 592.45 653.197 599.815 657.232 L 604.151 656.633 C 601.242 668.247 594.756 671.167 588.342 679.074 L 587.494 679.343 C 581.123 681.995 578.309 687.253 571.352 689.481 C 566.31 692.125 562.68 684.916 562.432 684.877 C 545.597 682.241 528.154 677.039 540.882 656.326 C 548.276 650.007 555.328 644.336 563.906 639.698 C 566.776 639.031 569.856 638.11 572.718 637.32 z"/>
<path transform="translate(0,0)" fill="rgb(172,54,97)" d="M 574.987 638.511 C 596.857 637.587 592.45 653.197 599.815 657.232 L 604.151 656.633 C 601.242 668.247 594.756 671.167 588.342 679.074 L 587.494 679.343 C 593.376 662.338 595.469 646.044 574.987 638.511 z"/>
<path transform="translate(0,0)" fill="rgb(254,254,254)" d="M 808.135 542.759 C 829.542 537.617 828.62 543.763 845.868 542.242 C 858.223 541.153 860.82 534.11 879.274 535.459 C 886.23 543.816 886.634 554.779 883.957 564.998 C 888.772 578.076 892.895 594.381 897.498 605.893 C 904.411 623.121 911.157 640.415 917.735 657.774 C 923.012 671.839 928.164 685.453 932.788 699.768 C 923.632 699.977 914.48 700.347 905.337 700.876 C 904.619 713.493 903.593 727.636 899.5 739.646 C 899.08 740.91 898.634 742.165 898.161 743.411 C 887.102 772.818 859.011 772.952 831.828 770.296 C 793.919 766.593 757.81 753.757 722.599 740.002 C 719.016 741.084 715.411 740.113 711.674 740.11 C 668.373 740.081 624.79 739.532 581.516 740.028 L 582.279 738.177 C 589.624 721.711 595.709 706.956 599.774 689.396 C 600.059 686.082 600.042 681.201 600.144 677.749 L 588.342 679.074 C 594.756 671.167 601.242 668.247 604.151 656.633 L 603.851 656.034 C 606.688 654.843 619.446 648.602 620.939 648.801 C 619.492 627.563 645.426 600.076 660.382 586.512 C 712.173 551.454 741.121 558.645 798.191 552.284 C 802.263 550.746 800.608 547.234 808.135 542.759 z"/>
<path transform="translate(0,0)" fill="rgb(252,91,91)" d="M 808.135 542.759 C 829.542 537.617 828.62 543.763 845.868 542.242 C 858.223 541.153 860.82 534.11 879.274 535.459 C 886.23 543.816 886.634 554.779 883.957 564.998 C 888.772 578.076 892.895 594.381 897.498 605.893 C 904.411 623.121 911.157 640.415 917.735 657.774 C 923.012 671.839 928.164 685.453 932.788 699.768 C 923.632 699.977 914.48 700.347 905.337 700.876 C 904.619 713.493 903.593 727.636 899.5 739.646 C 899.08 740.91 898.634 742.165 898.161 743.411 C 887.102 772.818 859.011 772.952 831.828 770.296 C 793.919 766.593 757.81 753.757 722.599 740.002 C 727.125 730.341 731.159 722.736 735.581 712.623 C 739.464 701.903 742.528 690.905 744.748 679.722 L 745.953 678.172 C 774.584 684.328 812.016 698.255 841.484 706.005 C 842.533 691.679 844.86 676.089 846.717 661.742 C 851.18 630.092 855.845 600.969 863.036 569.724 C 854.793 557.606 858.25 556.14 846 544.848 C 845.053 544.827 837.16 546.494 835.688 546.787 C 840.895 551.224 847.471 556.011 846.164 563.548 C 836.797 572.985 818.393 561.294 810.28 555.817 C 807.818 562.05 805.379 567.836 797.531 568.611 L 796.558 567.522 C 796.393 561.571 798.709 560 799.541 553.615 L 798.191 552.284 C 802.263 550.746 800.608 547.234 808.135 542.759 z"/>
<path transform="translate(0,0)" fill="rgb(172,54,97)" d="M 883.957 564.998 C 888.772 578.076 892.895 594.381 897.498 605.893 C 904.411 623.121 911.157 640.415 917.735 657.774 C 923.012 671.839 928.164 685.453 932.788 699.768 C 923.632 699.977 914.48 700.347 905.337 700.876 C 904.619 713.493 903.593 727.636 899.5 739.646 C 899.08 740.91 898.634 742.165 898.161 743.411 C 887.102 772.818 859.011 772.952 831.828 770.296 C 793.919 766.593 757.81 753.757 722.599 740.002 C 727.125 730.341 731.159 722.736 735.581 712.623 C 748.304 716.009 760.901 721.253 773.504 725.234 C 797.233 732.73 840.373 743.554 864.565 739.382 C 871.479 738.189 877.101 734.296 880.603 728.214 C 891.026 710.11 888.716 661.061 886.569 639.942 C 884.94 623.914 873.952 578.428 883.339 565.801 C 883.54 565.53 883.751 565.266 883.957 564.998 z"/>
<path transform="translate(0,0)" fill="rgb(48,31,104)" d="M 897.498 605.893 C 904.411 623.121 911.157 640.415 917.735 657.774 C 923.012 671.839 928.164 685.453 932.788 699.768 C 923.632 699.977 914.48 700.347 905.337 700.876 C 906.08 681.571 905.17 662.239 902.618 643.089 C 901.242 633.224 897.592 614.936 897.498 605.893 z"/>
<path transform="translate(0,0)" fill="rgb(254,254,254)" d="M 622.057 675.276 L 629.817 672.723 C 636.28 675.151 647.136 671.725 650.927 674.032 C 651.362 676.794 650.886 677.713 653.228 678.976 C 670.909 688.51 716.541 709.901 735.581 712.623 C 731.159 722.736 727.125 730.341 722.599 740.002 C 719.016 741.084 715.411 740.113 711.674 740.11 C 668.373 740.081 624.79 739.532 581.516 740.028 L 582.279 738.177 C 589.624 721.711 595.709 706.956 599.774 689.396 C 600.059 686.082 600.042 681.201 600.144 677.749 C 606.29 676.874 616.145 675.158 622.057 675.276 z"/>
<path transform="translate(0,0)" fill="rgb(254,208,207)" d="M 622.057 675.276 L 629.817 672.723 C 636.28 675.151 647.136 671.725 650.927 674.032 C 651.362 676.794 650.886 677.713 653.228 678.976 C 670.909 688.51 716.541 709.901 735.581 712.623 C 731.159 722.736 727.125 730.341 722.599 740.002 C 719.016 741.084 715.411 740.113 711.674 740.11 C 668.373 740.081 624.79 739.532 581.516 740.028 L 582.279 738.177 C 587.596 740.226 699.468 738.844 713.808 738.821 C 702.419 733.032 691.852 727.228 681.021 720.403 C 663.676 709.474 646.203 689.643 624.517 690.003 C 626.858 689.841 628.543 690 630.457 688.71 C 630.17 685.916 624.699 679.829 622.057 675.276 z"/>
<path transform="translate(0,0)" fill="rgb(229,81,81)" d="M 600.144 677.749 C 606.29 676.874 616.145 675.158 622.057 675.276 C 624.699 679.829 630.17 685.916 630.457 688.71 C 628.543 690 626.858 689.841 624.517 690.003 C 620.98 689.443 604.489 689.458 599.774 689.396 C 600.059 686.082 600.042 681.201 600.144 677.749 z"/>
<path transform="translate(0,0)" fill="rgb(254,208,207)" d="M 718.12 670.653 C 753.268 666.392 810.185 663.442 846.717 661.742 C 844.86 676.089 842.533 691.679 841.484 706.005 C 812.016 698.255 774.584 684.328 745.953 678.172 L 744.748 679.722 C 742.55 675.047 723.676 671.861 718.12 670.653 z"/>
<path transform="translate(0,0)" fill="rgb(252,91,91)" d="M 620.939 648.801 C 649.32 632.47 644.597 660.086 629.817 672.723 L 622.057 675.276 C 616.145 675.158 606.29 676.874 600.144 677.749 L 588.342 679.074 C 594.756 671.167 601.242 668.247 604.151 656.633 L 603.851 656.034 C 606.688 654.843 619.446 648.602 620.939 648.801 z"/>
<path transform="translate(0,0)" fill="rgb(254,254,254)" d="M 1028.48 648.1 C 1029.14 659.277 1028.21 669.778 1027.24 680.899 C 1025.82 685.439 1024.76 686.498 1020.6 689.141 C 1053.4 689.515 1088.22 688.299 1120.55 689.245 C 1127.67 689.131 1136.04 689.217 1143.04 688.823 C 1195.6 689.405 1248.16 689.545 1300.72 689.243 C 1299.58 705.761 1298.67 723.239 1297.03 739.645 C 1287.13 738.883 1265.48 739.545 1254.84 739.55 L 1169.14 739.561 L 899.5 739.646 C 903.593 727.636 904.619 713.493 905.337 700.876 C 914.48 700.347 923.632 699.977 932.788 699.768 C 928.164 685.453 923.012 671.839 917.735 657.774 C 927.325 656.353 938.736 657.119 948.556 656.499 C 971.737 655.034 1005.24 657.412 1027.2 651.117 L 1028.48 648.1 z"/>
<path transform="translate(0,0)" fill="rgb(254,208,207)" d="M 1028.48 648.1 C 1029.14 659.277 1028.21 669.778 1027.24 680.899 C 1025.82 685.439 1024.76 686.498 1020.6 689.141 C 1053.4 689.515 1088.22 688.299 1120.55 689.245 C 1112 690.938 1098.04 690.235 1089.03 690.278 C 1053.24 690.447 1021.91 687.851 986.575 695.59 C 972.752 698.618 948.197 698.184 932.788 699.768 C 928.164 685.453 923.012 671.839 917.735 657.774 C 927.325 656.353 938.736 657.119 948.556 656.499 C 971.737 655.034 1005.24 657.412 1027.2 651.117 L 1028.48 648.1 z"/>
<path transform="translate(0,0)" fill="rgb(48,31,104)" d="M 1304.15 1026.11 L 1308.82 1028.75 C 1317.69 1034.8 1333.27 1034.25 1343.41 1032.77 C 1347.21 1056.9 1358.82 1054.65 1368.43 1067.03 C 1376.73 1073.85 1401.09 1091.61 1398.8 1102.61 C 1387.56 1113.74 1303.02 1079.39 1289.77 1068.43 C 1276.56 1057.51 1287.99 1047.91 1295.57 1039.36 C 1299.9 1034.02 1300.92 1032.22 1304.15 1026.11 z"/>
<path transform="translate(0,0)" fill="rgb(252,91,91)" d="M 1304.15 1026.11 L 1308.82 1028.75 C 1317.69 1034.8 1333.27 1034.25 1343.41 1032.77 C 1347.21 1056.9 1358.82 1054.65 1368.43 1067.03 C 1369.83 1070.42 1371.78 1073.79 1371.22 1077.21 C 1362.87 1082.13 1314.47 1061.58 1305.66 1054.44 C 1302.96 1052.25 1297.74 1042.96 1295.57 1039.36 C 1299.9 1034.02 1300.92 1032.22 1304.15 1026.11 z"/>
<path transform="translate(0,0)" fill="url(#Gradient1)" d="M 375.125 867.949 C 368.173 860.852 355.813 848.705 349.828 840.966 C 297.77 773.637 243.206 683.827 242.206 596.081 C 241.825 562.628 256.345 518.774 280.258 495.761 C 310.009 465.745 346.251 484.465 377.274 500.761 C 390.461 507.688 409.932 516.935 422.009 503.557 C 430.482 494.172 429.495 484.315 426.649 472.993 C 420.097 446.929 407.367 422.679 395.869 398.537 C 367.057 337.521 327.229 269.753 319.98 201.921 C 318.035 183.721 322.24 162.414 334.856 148.94 C 349.342 133.47 373.022 127.758 393.505 126.725 C 514.356 120.629 549.54 277.437 580.374 365.1 C 586.277 381.883 598.99 421.496 612.592 431.681 C 643.139 454.557 695.015 385.827 727.649 386.619 C 744.431 387.027 752.729 392.981 763.939 403.094 C 804.599 439.774 807.05 491.366 808.135 542.759 C 800.608 547.234 802.263 550.746 798.191 552.284 C 741.121 558.645 712.173 551.454 660.382 586.512 C 645.426 600.076 619.492 627.563 620.939 648.801 C 619.446 648.602 606.688 654.843 603.851 656.034 L 604.151 656.633 L 599.815 657.232 C 592.45 653.197 596.857 637.587 574.987 638.511 C 573.481 638.418 574.215 638.537 572.718 637.32 C 569.856 638.11 566.776 639.031 563.906 639.698 C 555.328 644.336 548.276 650.007 540.882 656.326 C 532.139 653.911 526.967 655.207 518.126 656.847 C 513.878 659.074 512.803 659.505 509.469 663.112 C 506.778 672.133 505.489 682.476 503.203 689.993 C 426.73 697.736 373.371 756.717 375.792 834.133 C 376.061 842.736 376.419 859.764 375.125 867.949 z M 497.071 410.905 C 492.797 395.633 481.55 370.557 474.919 355.085 C 461.262 322.876 447.126 290.872 432.515 259.084 C 425.014 242.578 417.895 225.709 409.264 209.749 C 404.964 201.798 401.134 184.211 390.761 184.382 C 387.714 190.097 402.353 216.579 405.497 223.111 C 414.56 242.003 423.466 260.97 432.214 280.01 C 453.093 325.352 470.459 369.399 490.129 414.647 L 497.071 410.905 z M 510.735 653.259 C 496.281 643.558 421.506 597.614 411.027 596.573 L 408.902 597.381 C 407.759 600.761 407.82 599.1 408.694 602.544 C 414.31 607.751 495.211 655.022 499.915 655.812 C 500.212 654.698 499.947 655.37 501.049 653.968 L 510.735 653.259 z"/>
<path transform="translate(0,0)" fill="rgb(235,143,142)" d="M 497.071 410.905 L 499.227 412.263 C 505.989 400.328 510.435 345.817 519.103 341.348 C 522.631 342.331 521.194 341.368 523.398 344.566 C 524.07 349.364 508.246 420.169 505.715 429.913 C 533.377 505.225 553.343 559.206 572.718 637.32 C 569.856 638.11 566.776 639.031 563.906 639.698 C 546.735 569.9 524.513 501.441 497.417 434.864 C 486.95 430.525 436.213 416.273 436.753 405.59 L 438.666 404.534 C 449.229 403.692 479.198 417.456 491.47 421.495 C 491.891 420.377 490.501 415.946 490.129 414.647 L 497.071 410.905 z"/>
<path transform="translate(0,0)" fill="rgb(235,143,142)" d="M 603.851 656.034 C 603.144 652.183 669.193 554.565 676.251 543.178 C 677.788 540.698 679.383 538.848 682.287 538.028 C 686.327 540.87 686.71 544.465 684.192 548.785 C 678.213 559.046 663.782 575.877 660.382 586.512 C 645.426 600.076 619.492 627.563 620.939 648.801 C 619.446 648.602 606.688 654.843 603.851 656.034 z"/>
<path transform="translate(0,0)" fill="rgb(235,143,142)" d="M 510.735 653.259 C 514.423 654.397 514.949 654.654 518.126 656.847 C 513.878 659.074 512.803 659.505 509.469 663.112 C 505.768 661.125 501.689 659.292 499.915 655.812 C 500.212 654.698 499.947 655.37 501.049 653.968 L 510.735 653.259 z"/>
</svg>