<svg version="1.1" xmlns="http://www.w3.org/2000/svg" style="display: block;" viewBox="0 0 2048 2048" width="2000" height="2000" preserveAspectRatio="none">
<defs>
	<linearGradient id="Gradient1" gradientUnits="userSpaceOnUse" x1="1084.4" y1="343.089" x2="1082.07" y2="351.303">
		<stop class="stop0" offset="0" stop-opacity="1" stop-color="rgb(42,28,24)"/>
		<stop class="stop1" offset="1" stop-opacity="1" stop-color="rgb(27,29,31)"/>
	</linearGradient>
	<linearGradient id="Gradient2" gradientUnits="userSpaceOnUse" x1="1105.51" y1="336.71" x2="1115.92" y2="206.321">
		<stop class="stop0" offset="0" stop-opacity="1" stop-color="rgb(44,15,41)"/>
		<stop class="stop1" offset="1" stop-opacity="1" stop-color="rgb(100,19,54)"/>
	</linearGradient>
</defs>
<path transform="translate(0,0)" fill="rgb(232,158,130)" d="M 930.424 839.334 C 942.265 836.654 954.029 833.645 965.703 830.313 C 984.78 865.657 1007.15 885.513 1033.13 914.572 C 1039.28 921.453 1047.89 941.567 1053.11 946.471 C 1061.01 947.919 1068.94 949.258 1076.88 950.488 C 1130.25 958.56 1153.02 942.182 1195.48 910.868 C 1203.34 905.069 1210.68 897.152 1218.44 891.503 L 1219.8 890.527 C 1231.56 906.186 1255.22 963.014 1260.16 981.954 C 1266.15 1004.9 1263.35 1046.85 1264.31 1072.32 C 1264.26 1079.13 1264.31 1083.85 1264.88 1090.63 C 1265.09 1096.97 1265.15 1103.38 1265.96 1109.66 C 1267.12 1139.97 1269.29 1179.46 1272.02 1209.6 C 1272.21 1214.19 1272.87 1233.79 1273.77 1237.07 C 1274.14 1256.84 1287.04 1281.28 1295.23 1300.41 L 1301.09 1315.03 L 1306.35 1328.09 L 1312.52 1343.68 C 1320.32 1362.67 1327.1 1382.27 1334.18 1401.56 C 1335.54 1406.24 1337.75 1413.09 1338.61 1417.7 L 1356.75 1491.78 L 1359.35 1501.95 C 1365.03 1524.68 1373.46 1563.84 1380.28 1584.87 C 1382.72 1593.63 1389.42 1611.45 1385.98 1618.49 C 1379.39 1624.63 1367.16 1621.95 1358.55 1622.19 C 1353.69 1622.06 1333.39 1620.27 1331.34 1623.99 C 1334.44 1644.44 1338.19 1666.5 1340.4 1686.95 C 1343.09 1696.5 1355.74 1740.22 1356.92 1748.47 L 1361.61 1765.05 L 1351.91 1771.92 C 1347.41 1785.23 1343.94 1797.47 1332 1806.17 C 1312.75 1806.41 1301.29 1802.42 1283.37 1795.15 C 1277.8 1792.89 1270.78 1789.73 1264.96 1788.58 C 1253.27 1784.89 1244.09 1782.67 1233.87 1775.67 C 1233.76 1765.94 1235.02 1759.15 1236.49 1749.61 L 1238.77 1739.44 L 1238.59 1735.12 C 1236.71 1730.52 1235.18 1721.84 1234.24 1716.94 C 1227.54 1682.02 1227.39 1658.5 1208.08 1627.77 C 1199.09 1613.46 1185.9 1588.38 1178.65 1572.78 C 1177.01 1568.44 1173.58 1562.44 1170.86 1558.75 C 1164.36 1545.57 1154.59 1528.77 1147.4 1515.58 C 1129.98 1483.57 1112.25 1451.72 1094.21 1420.05 C 1081.49 1412.52 1076.95 1412.03 1064.46 1401.03 C 1034.26 1374.41 1022.1 1347.77 1018.82 1308.44 C 1012.84 1301.44 1002.93 1287.26 997.131 1279.39 L 955.586 1222.86 C 954.334 1218.86 940.846 1201.41 937.568 1197.02 C 933.927 1191.11 925.727 1180.41 921.435 1174.44 C 909.056 1157.53 896.957 1140.42 885.141 1123.11 C 876.395 1122.94 851.721 1119.68 845.196 1120.44 L 843.59 1119.56 C 823.821 1118.05 788.899 1112.84 769.45 1108.71 C 754.308 1106.24 738.753 1102.72 724.116 1099.69 C 716.107 1098.03 681.077 1088.52 675.983 1089.04 L 666.501 1084.35 C 672.419 1075.25 691.422 1033.63 696.487 1021.95 C 705.012 1002.3 723.223 967.62 729.693 948.675 C 732.648 944.898 742.004 922.871 744.746 917.093 C 750.299 921.727 756.832 928.289 762.666 931.769 C 776.505 928.527 786.639 925.312 800.194 920.744 L 822.197 934.4 C 824.92 931.406 826.589 930.03 828.109 926.367 L 828.546 924.725 C 831.658 922.339 833.68 916.478 834.644 912.748 L 836.288 910.205 L 841.432 897.138 C 835.6 891.39 828.613 885.151 823.91 878.639 C 818.273 868.576 807.698 866.395 801.892 858.72 C 802.786 858.123 803.681 857.526 804.575 856.929 C 816.651 857.507 828.583 860.006 840.647 860.82 C 845.536 861.15 850.325 861.034 855.192 860.806 C 859.988 852.944 847.443 850.016 841.671 847.686 L 841.075 844.595 C 872.58 847.898 899.704 845.288 930.424 839.334 z M 1082.01 1093.89 C 1086.31 1116.16 1100.15 1153.34 1101.39 1174.3 L 1102.18 1169.04 C 1102.68 1160.6 1106.64 1160.89 1107.65 1151.39 C 1103.57 1139.65 1102.1 1127.94 1099.03 1116.02 C 1094.73 1099.3 1090.67 1081.6 1083.86 1065.73 C 1083.98 1072.56 1084.44 1088.14 1082.01 1093.89 z"/>
<path transform="translate(0,0)" fill="rgb(79,65,65)" d="M 1053.11 946.471 C 1061.01 947.919 1068.94 949.258 1076.88 950.488 C 1130.25 958.56 1153.02 942.182 1195.48 910.868 C 1203.34 905.069 1210.68 897.152 1218.44 891.503 L 1219.8 890.527 C 1231.56 906.186 1255.22 963.014 1260.16 981.954 C 1266.15 1004.9 1263.35 1046.85 1264.31 1072.32 C 1264.26 1079.13 1264.31 1083.85 1264.88 1090.63 C 1265.09 1096.97 1265.15 1103.38 1265.96 1109.66 C 1267.12 1139.97 1269.29 1179.46 1272.02 1209.6 C 1272.21 1214.19 1272.87 1233.79 1273.77 1237.07 C 1274.14 1256.84 1287.04 1281.28 1295.23 1300.41 L 1301.09 1315.03 L 1306.35 1328.09 L 1312.52 1343.68 C 1320.32 1362.67 1327.1 1382.27 1334.18 1401.56 C 1335.54 1406.24 1337.75 1413.09 1338.61 1417.7 L 1356.75 1491.78 L 1359.35 1501.95 C 1365.03 1524.68 1373.46 1563.84 1380.28 1584.87 C 1382.72 1593.63 1389.42 1611.45 1385.98 1618.49 C 1379.39 1624.63 1367.16 1621.95 1358.55 1622.19 C 1353.69 1622.06 1333.39 1620.27 1331.34 1623.99 L 1330.28 1621.83 C 1322.95 1620.59 1288.8 1621.32 1279.34 1621.38 C 1258.39 1545.86 1242.2 1468.04 1220.98 1392.45 C 1217.03 1378.36 1214.3 1364.37 1206.58 1351.91 C 1192.11 1328.55 1160.91 1303.4 1141.61 1286.12 L 1139.43 1275.22 L 1136.61 1261.98 C 1130.58 1237.83 1124.39 1213.73 1118.04 1189.67 C 1111.87 1184.49 1108.56 1181.61 1101.7 1177.51 L 1101.39 1174.3 L 1102.18 1169.04 C 1102.68 1160.6 1106.64 1160.89 1107.65 1151.39 C 1103.57 1139.65 1102.1 1127.94 1099.03 1116.02 C 1094.73 1099.3 1090.67 1081.6 1083.86 1065.73 C 1082.47 1061.57 1080.96 1040.52 1079.88 1034.1 C 1075.72 1009.43 1069.74 987.586 1060.54 964.342 C 1058.53 958.459 1054.98 953.617 1053.11 946.471 z"/>
<path transform="translate(0,0)" fill="rgb(51,39,42)" d="M 1053.11 946.471 C 1061.01 947.919 1068.94 949.258 1076.88 950.488 C 1130.25 958.56 1153.02 942.182 1195.48 910.868 C 1203.34 905.069 1210.68 897.152 1218.44 891.503 L 1219.8 890.527 C 1231.56 906.186 1255.22 963.014 1260.16 981.954 C 1266.15 1004.9 1263.35 1046.85 1264.31 1072.32 C 1264.26 1079.13 1264.31 1083.85 1264.88 1090.63 C 1265.09 1096.97 1265.15 1103.38 1265.96 1109.66 C 1267.12 1139.97 1269.29 1179.46 1272.02 1209.6 C 1272.21 1214.19 1272.87 1233.79 1273.77 1237.07 C 1274.14 1256.84 1287.04 1281.28 1295.23 1300.41 L 1301.09 1315.03 L 1306.35 1328.09 L 1312.52 1343.68 C 1320.32 1362.67 1327.1 1382.27 1334.18 1401.56 C 1335.54 1406.24 1337.75 1413.09 1338.61 1417.7 L 1356.75 1491.78 L 1359.35 1501.95 C 1365.03 1524.68 1373.46 1563.84 1380.28 1584.87 C 1382.72 1593.63 1389.42 1611.45 1385.98 1618.49 C 1379.39 1624.63 1367.16 1621.95 1358.55 1622.19 C 1350.27 1576.16 1338.73 1528.28 1328.31 1482.48 C 1323.26 1460.29 1315.43 1421.2 1308.1 1400.94 C 1295.73 1366.76 1278.11 1329.9 1264.23 1295.9 C 1257.74 1280.01 1247.49 1260.81 1243.69 1244.26 C 1242.89 1240.79 1243.62 1225.04 1243.72 1220.3 L 1244.5 1177.13 C 1245.13 1138.63 1245.41 1100.12 1245.34 1061.61 C 1245.26 1051.28 1245.46 1016.7 1242.83 1009.08 C 1233.82 982.976 1215.59 951.252 1202.27 926.665 C 1183.18 939.738 1148.18 964.648 1128.83 974.248 C 1105.69 971.692 1083.51 967.359 1060.54 964.342 C 1058.53 958.459 1054.98 953.617 1053.11 946.471 z"/>
<path transform="translate(0,0)" fill="rgb(60,116,127)" d="M 1102.18 1169.04 C 1105.24 1170.94 1111.32 1175.22 1114.39 1175.79 C 1115.79 1180.6 1116.93 1184.75 1118.04 1189.67 C 1111.87 1184.49 1108.56 1181.61 1101.7 1177.51 L 1101.39 1174.3 L 1102.18 1169.04 z"/>
<path transform="translate(0,0)" fill="rgb(71,140,143)" d="M 1107.65 1151.39 C 1110.07 1157.8 1112.88 1168.86 1114.39 1175.79 C 1111.32 1175.22 1105.24 1170.94 1102.18 1169.04 C 1102.68 1160.6 1106.64 1160.89 1107.65 1151.39 z"/>
<path transform="translate(0,0)" fill="rgb(205,92,91)" d="M 930.424 839.334 C 942.265 836.654 954.029 833.645 965.703 830.313 C 984.78 865.657 1007.15 885.513 1033.13 914.572 C 1039.28 921.453 1047.89 941.567 1053.11 946.471 C 1054.98 953.617 1058.53 958.459 1060.54 964.342 C 1069.74 987.586 1075.72 1009.43 1079.88 1034.1 C 1080.96 1040.52 1082.47 1061.57 1083.86 1065.73 C 1083.98 1072.56 1084.44 1088.14 1082.01 1093.89 C 1076.6 1095.02 1064.08 1101.92 1057.47 1104.38 C 1043.64 1109.7 1029.39 1113.82 1014.85 1116.71 C 1005.56 1118.33 996.248 1119.87 986.925 1121.32 C 968.87 1084.07 949.795 1045.92 932.509 1008.4 C 936.076 1046.38 940.485 1086.33 943.314 1124.19 C 926.745 1124.81 901.631 1124.78 885.141 1123.11 C 876.395 1122.94 851.721 1119.68 845.196 1120.44 L 843.59 1119.56 C 823.821 1118.05 788.899 1112.84 769.45 1108.71 C 754.308 1106.24 738.753 1102.72 724.116 1099.69 C 716.107 1098.03 681.077 1088.52 675.983 1089.04 L 666.501 1084.35 C 672.419 1075.25 691.422 1033.63 696.487 1021.95 C 705.012 1002.3 723.223 967.62 729.693 948.675 C 732.648 944.898 742.004 922.871 744.746 917.093 C 750.299 921.727 756.832 928.289 762.666 931.769 C 776.505 928.527 786.639 925.312 800.194 920.744 L 822.197 934.4 C 824.92 931.406 826.589 930.03 828.109 926.367 L 828.546 924.725 C 831.658 922.339 833.68 916.478 834.644 912.748 L 836.288 910.205 L 841.432 897.138 C 835.6 891.39 828.613 885.151 823.91 878.639 C 818.273 868.576 807.698 866.395 801.892 858.72 C 802.786 858.123 803.681 857.526 804.575 856.929 C 816.651 857.507 828.583 860.006 840.647 860.82 C 845.536 861.15 850.325 861.034 855.192 860.806 C 859.988 852.944 847.443 850.016 841.671 847.686 L 841.075 844.595 C 872.58 847.898 899.704 845.288 930.424 839.334 z"/>
<path transform="translate(0,0)" fill="rgb(174,52,51)" d="M 930.424 839.334 C 942.265 836.654 954.029 833.645 965.703 830.313 C 984.78 865.657 1007.15 885.513 1033.13 914.572 C 1039.28 921.453 1047.89 941.567 1053.11 946.471 C 1054.98 953.617 1058.53 958.459 1060.54 964.342 C 1069.74 987.586 1075.72 1009.43 1079.88 1034.1 C 1080.96 1040.52 1082.47 1061.57 1083.86 1065.73 C 1083.98 1072.56 1084.44 1088.14 1082.01 1093.89 C 1076.6 1095.02 1064.08 1101.92 1057.47 1104.38 C 1043.64 1109.7 1029.39 1113.82 1014.85 1116.71 C 1011.55 1113.78 1007.45 1084.36 1006.98 1078.93 C 1000.13 1000.83 970.516 929.507 926.656 863.874 C 927.729 855.667 928.985 847.485 930.424 839.334 z"/>
<path transform="translate(0,0)" fill="rgb(227,124,112)" d="M 801.892 858.72 C 802.786 858.123 803.681 857.526 804.575 856.929 C 816.651 857.507 828.583 860.006 840.647 860.82 C 845.536 861.15 850.325 861.034 855.192 860.806 C 854.627 862.775 854.327 865.612 852.192 866.11 C 840.113 868.929 813.297 861.313 801.892 858.72 z"/>
<path transform="translate(0,0)" fill="rgb(227,124,112)" d="M 1057.47 1104.38 C 1064.08 1101.92 1076.6 1095.02 1082.01 1093.89 C 1086.31 1116.16 1100.15 1153.34 1101.39 1174.3 L 1101.7 1177.51 C 1108.56 1181.61 1111.87 1184.49 1118.04 1189.67 C 1124.39 1213.73 1130.58 1237.83 1136.61 1261.98 L 1139.43 1275.22 L 1141.61 1286.12 C 1160.91 1303.4 1192.11 1328.55 1206.58 1351.91 C 1214.3 1364.37 1217.03 1378.36 1220.98 1392.45 C 1242.2 1468.04 1258.39 1545.86 1279.34 1621.38 C 1288.8 1621.32 1322.95 1620.59 1330.28 1621.83 L 1331.34 1623.99 C 1334.44 1644.44 1338.19 1666.5 1340.4 1686.95 C 1343.09 1696.5 1355.74 1740.22 1356.92 1748.47 L 1361.61 1765.05 L 1351.91 1771.92 C 1347.41 1785.23 1343.94 1797.47 1332 1806.17 C 1312.75 1806.41 1301.29 1802.42 1283.37 1795.15 C 1277.8 1792.89 1270.78 1789.73 1264.96 1788.58 C 1253.27 1784.89 1244.09 1782.67 1233.87 1775.67 C 1233.76 1765.94 1235.02 1759.15 1236.49 1749.61 L 1238.77 1739.44 L 1238.59 1735.12 C 1257.66 1739.62 1278.75 1750.84 1299.05 1753.46 C 1303.97 1746.84 1310.38 1733.18 1307.6 1725.04 C 1297.03 1694.1 1278.9 1665.16 1267.37 1634.71 C 1236.19 1552.14 1212.04 1466.53 1178.38 1385 C 1176.49 1380.42 1169.78 1370.67 1166.85 1366.07 C 1144.59 1331.11 1115.53 1300.21 1091.82 1266.72 C 1091.17 1265.8 1083.67 1224.05 1082.73 1219.38 C 1075.15 1180.87 1066.73 1142.53 1057.47 1104.38 z"/>
<path transform="translate(0,0)" fill="rgb(251,251,251)" d="M 1304.08 1668.31 C 1321.23 1666.47 1325.06 1677.6 1332.84 1690.93 L 1340.4 1686.95 C 1343.09 1696.5 1355.74 1740.22 1356.92 1748.47 L 1361.61 1765.05 L 1351.91 1771.92 C 1347.41 1785.23 1343.94 1797.47 1332 1806.17 C 1312.75 1806.41 1301.29 1802.42 1283.37 1795.15 C 1277.8 1792.89 1270.78 1789.73 1264.96 1788.58 C 1253.27 1784.89 1244.09 1782.67 1233.87 1775.67 C 1233.76 1765.94 1235.02 1759.15 1236.49 1749.61 L 1238.77 1739.44 C 1248.79 1750.32 1279.65 1766.05 1294.6 1769.27 C 1326.08 1776.06 1331.82 1739.06 1335.41 1715.86 C 1325.53 1699.73 1314.68 1683.99 1304.08 1668.31 z"/>
<path transform="translate(0,0)" fill="rgb(231,231,231)" d="M 1236.49 1749.61 C 1246.81 1753.26 1245.04 1759.46 1248.65 1768.98 C 1251.95 1777.69 1261.74 1781.02 1264.96 1788.58 C 1253.27 1784.89 1244.09 1782.67 1233.87 1775.67 C 1233.76 1765.94 1235.02 1759.15 1236.49 1749.61 z"/>
<path transform="translate(0,0)" fill="rgb(231,231,231)" d="M 1356.92 1748.47 L 1361.61 1765.05 L 1351.91 1771.92 C 1352.68 1764.68 1352.67 1753.58 1356.92 1748.47 z"/>
<path transform="translate(0,0)" fill="rgb(232,158,130)" d="M 1330.28 1621.83 L 1331.34 1623.99 C 1334.44 1644.44 1338.19 1666.5 1340.4 1686.95 L 1332.84 1690.93 C 1325.06 1677.6 1321.23 1666.47 1304.08 1668.31 C 1299.14 1661.65 1290.94 1650.8 1287.03 1643.88 L 1286.04 1642.1 C 1281.88 1634.71 1281.24 1630.53 1279.24 1622.22 C 1295.35 1622.23 1314.42 1622.68 1330.28 1621.83 z"/>
<path transform="translate(0,0)" fill="rgb(71,140,143)" d="M 1101.7 1177.51 C 1108.56 1181.61 1111.87 1184.49 1118.04 1189.67 C 1124.39 1213.73 1130.58 1237.83 1136.61 1261.98 C 1129.05 1256.9 1121.42 1251.94 1113.7 1247.11 C 1110.06 1223.85 1106.06 1200.65 1101.7 1177.51 z"/>
<path transform="translate(0,0)" fill="rgb(60,116,127)" d="M 1113.7 1247.11 C 1121.42 1251.94 1129.05 1256.9 1136.61 1261.98 L 1139.43 1275.22 C 1133.34 1272.9 1121.93 1264.82 1115.58 1260.89 C 1115.5 1257.26 1114.29 1250.92 1113.7 1247.11 z"/>
<path transform="translate(0,0)" fill="rgb(71,140,143)" d="M 1115.58 1260.89 C 1121.93 1264.82 1133.34 1272.9 1139.43 1275.22 L 1141.61 1286.12 C 1132.91 1279.6 1117.75 1270.53 1115.58 1260.89 z"/>
<path transform="translate(0,0)" fill="rgb(71,140,143)" d="M 1018.82 1308.44 C 1037.15 1329.39 1084.72 1395.23 1094.21 1420.05 C 1081.49 1412.52 1076.95 1412.03 1064.46 1401.03 C 1034.26 1374.41 1022.1 1347.77 1018.82 1308.44 z"/>
<path transform="translate(0,0)" fill="rgb(71,140,143)" d="M 1264.31 1072.32 C 1297.44 1062.99 1319.04 1056.07 1336.33 1024.68 C 1365.18 972.288 1390.97 899.664 1453.84 881.037 C 1483.13 871.934 1511.57 880.37 1540.6 883.851 C 1571.84 887.597 1613.7 891.828 1644.15 881.685 C 1696.59 864.211 1746.69 825.432 1794.58 798.028 C 1816.42 785.532 1835.55 771.657 1858.88 761.957 C 1866.3 758.677 1876.24 754.749 1884.25 756.565 C 1891.37 762.812 1884.08 777.846 1879.89 784.731 C 1840.13 850.135 1784.27 911.6 1758.28 984.414 C 1740.03 1035.53 1771.43 1096.45 1753.49 1150.23 C 1750.64 1158.85 1746.17 1166.85 1740.33 1173.79 C 1739.83 1174.37 1739.33 1174.95 1738.82 1175.52 C 1730.47 1184.78 1720.77 1190.8 1710.71 1198.04 C 1695.22 1209.18 1683.24 1225.03 1673.94 1241.57 C 1652.23 1280.17 1643.55 1321.69 1632.1 1363.61 C 1614.86 1426.68 1585.35 1491.69 1536.81 1536.78 C 1502.32 1568.82 1466.12 1584.4 1419 1586.64 C 1404.62 1587.33 1393.98 1585.55 1380.28 1584.87 C 1373.46 1563.84 1365.03 1524.68 1359.35 1501.95 L 1356.75 1491.78 L 1338.61 1417.7 C 1337.75 1413.09 1335.54 1406.24 1334.18 1401.56 C 1327.1 1382.27 1320.32 1362.67 1312.52 1343.68 L 1306.35 1328.09 L 1301.09 1315.03 L 1295.23 1300.41 C 1287.04 1281.28 1274.14 1256.84 1273.77 1237.07 C 1272.87 1233.79 1272.21 1214.19 1272.02 1209.6 C 1269.29 1179.46 1267.12 1139.97 1265.96 1109.66 C 1265.15 1103.38 1265.09 1096.97 1264.88 1090.63 C 1264.31 1083.85 1264.26 1079.13 1264.31 1072.32 z"/>
<path transform="translate(0,0)" fill="rgb(60,116,127)" d="M 1724.18 922.988 C 1763.9 886.826 1802.36 850.012 1837.2 808.93 C 1841.29 804.111 1850.44 792.232 1855.99 790.02 L 1856.85 790.915 C 1856.41 795.613 1843.89 809.201 1840.2 813.556 C 1814.08 844.47 1786.54 874.148 1757.66 902.494 C 1741.05 918.574 1723.82 933.205 1707.53 948.758 C 1717.4 947.249 1727.52 945.877 1737.44 944.536 C 1744.55 943.574 1757.42 939.063 1763.67 939.769 L 1764.92 940.931 C 1761.86 957.862 1702.77 959.069 1689.28 965.107 C 1684.88 967.074 1680.26 970.462 1676.45 973.449 C 1647.61 996.073 1617.15 1017.25 1588.44 1039.96 C 1604.93 1037.56 1621.79 1033.74 1637.85 1031.74 C 1659.3 1029.06 1683.76 1030.73 1705.5 1030.91 C 1711.33 1030.96 1727.72 1030.8 1732.62 1031.9 C 1734.74 1034.38 1734.18 1032.93 1733.98 1036.51 C 1725.6 1043.36 1672.72 1041.51 1659.68 1042.47 C 1632.24 1044.49 1598.59 1048.01 1572.05 1053.17 C 1565.96 1054.35 1522.41 1088.68 1515.42 1094.05 C 1543.15 1095.91 1677.96 1105.21 1693.52 1119.91 L 1694.12 1121.95 C 1693.4 1123.07 1692.6 1124.61 1690.77 1124.48 C 1665.69 1122.65 1631.72 1117.16 1607.41 1114.42 C 1571.05 1110.32 1533.11 1111.99 1497.93 1108.02 C 1486.13 1117.29 1474.56 1126.85 1463.23 1136.67 C 1495.52 1134.13 1662.31 1138.18 1686.89 1150.78 L 1688.33 1152.64 C 1688.04 1153.82 1687.85 1156 1686.91 1156.13 C 1676.29 1157.59 1651.11 1154.02 1641.05 1153.17 C 1616.08 1151.18 1591.05 1149.87 1566.01 1149.23 C 1535.76 1148.54 1472.49 1152.11 1441.43 1156.19 C 1418.58 1177.29 1398.62 1197.77 1377.17 1220.22 C 1415.04 1228.87 1451.62 1223.96 1489.94 1224.98 C 1510.62 1225.53 1531.89 1229.97 1552.57 1231.55 C 1561.54 1232.35 1578.1 1229.89 1581.67 1235.2 C 1581.17 1236.71 1581.1 1238.1 1579.89 1238.56 C 1567.56 1242.51 1550.61 1240.34 1538.03 1238.88 C 1518.7 1236.64 1499.37 1235.3 1480.02 1236.05 C 1440.28 1237.61 1406.88 1240.15 1367.44 1231.17 C 1361.74 1237.73 1355.28 1244.86 1349.95 1251.63 C 1421.09 1261.92 1486.23 1269 1557.99 1266.85 C 1565.54 1266.63 1593.77 1265.94 1597.85 1269.68 L 1598.25 1271.97 C 1595.93 1274.3 1593.28 1275.47 1589.9 1275.57 C 1522.96 1277.58 1456.48 1279.45 1389.78 1271.41 C 1373.11 1269.4 1355.04 1268.87 1338.58 1265.61 C 1326.59 1279.21 1311.87 1300.15 1301.09 1315.03 L 1295.23 1300.41 C 1287.04 1281.28 1274.14 1256.84 1273.77 1237.07 C 1272.87 1233.79 1272.21 1214.19 1272.02 1209.6 C 1269.29 1179.46 1267.12 1139.97 1265.96 1109.66 C 1265.15 1103.38 1265.09 1096.97 1264.88 1090.63 C 1269.68 1094.76 1273.07 1101.15 1276.48 1106.52 C 1302.99 1148.17 1328.87 1188.16 1349.54 1233.17 C 1363.15 1217 1382.68 1196.38 1397.91 1181.5 C 1377.26 1160.06 1367.61 1134.77 1359.63 1106.52 C 1357.7 1099.68 1350.78 1086.22 1355.29 1080.04 C 1356.09 1079.85 1358.44 1078.9 1358.9 1079.8 C 1375.41 1112.07 1378.19 1145.86 1406.59 1172.85 L 1440.64 1141 C 1426.27 1101.42 1411.6 1061.93 1396.63 1022.57 C 1392.73 1012.22 1388.78 1001.89 1384.76 991.582 C 1382.12 984.959 1375.79 975.153 1378.04 967.966 L 1379.76 967.254 C 1398.89 976.589 1441.3 1109.18 1448.67 1134.31 C 1452.24 1131.18 1456.11 1127.63 1459.77 1124.68 C 1454.09 1097.48 1446.87 1070.9 1439.29 1044.2 C 1436.43 1034.12 1425.27 1008.73 1426.71 1000.22 L 1428.59 999.338 C 1443.13 1008.8 1465.7 1094.87 1470.71 1115.45 C 1489.75 1100.25 1512.14 1082.02 1531.84 1067.94 C 1515.31 1019.54 1501.76 969.846 1486.9 920.886 C 1485.95 917.767 1485.87 914.588 1486.19 911.363 L 1487.44 909.479 C 1489.06 909.466 1489.26 909.106 1490.51 910.325 C 1496.97 916.593 1539.18 1044.9 1543.07 1059.81 C 1559.86 1047.31 1576.82 1035.04 1593.95 1023.01 C 1587.18 1007.13 1554.44 916.874 1571.62 908.881 L 1574.04 909.657 C 1577.29 916.425 1576.91 928.547 1579.07 936.022 C 1587.28 964.472 1598.13 986.841 1602.98 1016.42 C 1619.53 1004.71 1643.81 985.579 1659.68 975.35 C 1655.52 952.336 1652.47 910.013 1656.1 887.029 C 1658.2 884.14 1656.83 885.006 1660.31 884.318 C 1661.76 884.983 1664.33 885.811 1664.35 887.813 C 1664.61 914.446 1667.3 940.214 1670.41 966.7 C 1685.38 955.917 1700.7 943.009 1714.76 931.006 C 1716.12 907.39 1717.3 883.896 1717.65 860.238 C 1717.68 858.146 1718.68 852.72 1720.31 851.204 C 1728.17 857.822 1723.94 910.439 1724.18 922.988 z"/>
<path transform="translate(0,0)" fill="rgb(71,140,143)" d="M 1265.96 1109.66 C 1272.25 1115.8 1276.57 1126.18 1281.79 1133.2 C 1306.62 1166.62 1319.24 1208.6 1340.73 1242.68 C 1330.45 1255.59 1317.34 1271.01 1307.9 1284.02 C 1297.01 1262.74 1284.68 1227.86 1272.02 1209.6 C 1269.29 1179.46 1267.12 1139.97 1265.96 1109.66 z"/>
<path transform="translate(0,0)" fill="rgb(71,140,143)" d="M 1273.77 1237.07 C 1277.99 1242.3 1297.67 1284.52 1299.7 1293.81 C 1299.99 1295.13 1296.54 1298.88 1295.23 1300.41 C 1287.04 1281.28 1274.14 1256.84 1273.77 1237.07 z"/>
<path transform="translate(0,0)" fill="rgb(60,116,127)" d="M 1306.35 1328.09 C 1339.01 1327.98 1371.91 1327.36 1404.5 1329.96 C 1462.98 1334.64 1520.09 1349.37 1578.52 1354.79 C 1581.1 1355.03 1585.02 1356.06 1587.1 1357.53 L 1587.13 1359.83 C 1575.98 1370.95 1463.84 1350.14 1441.95 1348.3 C 1399.35 1344.72 1355.22 1342.02 1312.52 1343.68 L 1306.35 1328.09 z"/>
<path transform="translate(0,0)" fill="rgb(60,116,127)" d="M 1334.18 1401.56 C 1405.65 1406.57 1475.13 1426.19 1547.04 1422.73 C 1555.41 1422.33 1567.6 1420.33 1575.24 1423.42 L 1576.49 1425.1 C 1575.38 1427.4 1574.06 1429.15 1571.29 1429.65 C 1513.82 1440.18 1455.18 1431.85 1397.94 1424.33 C 1378.01 1421.71 1358.04 1418.54 1338.61 1417.7 C 1337.75 1413.09 1335.54 1406.24 1334.18 1401.56 z"/>
<path transform="translate(0,0)" fill="rgb(60,116,127)" d="M 1356.75 1491.78 C 1408.72 1499.11 1461.02 1503.85 1513.47 1505.98 C 1519.89 1506.3 1539.47 1505.97 1543.27 1508.99 C 1544.56 1512.9 1544.63 1511.05 1543.33 1514.74 C 1526.7 1528.52 1407.22 1504.41 1382.72 1503.91 C 1376.91 1503.79 1365.22 1500.52 1359.35 1501.95 L 1356.75 1491.78 z"/>
<path transform="translate(0,0)" fill="rgb(60,116,127)" d="M 1443.02 1178.09 C 1481.25 1178.43 1521.36 1181.9 1559.51 1184.76 C 1578.46 1186.18 1654.08 1189.05 1662.75 1201.58 C 1663.5 1204.92 1662.69 1206.1 1661.49 1209.31 C 1605.4 1198.75 1549.46 1192.7 1492.46 1189.32 C 1482.77 1188.75 1447.32 1188.86 1442.39 1185.07 C 1441.43 1181.62 1441.83 1181.44 1443.02 1178.09 z"/>
<path transform="translate(0,0)" fill="rgb(60,116,127)" d="M 1436.64 899.344 L 1440.3 900.464 C 1446.35 907.561 1465.63 958.759 1470.09 970.662 C 1479.1 994.721 1486.38 1026.41 1495.53 1051.28 C 1496.43 1053.75 1495.08 1055.51 1494.05 1057.7 L 1489.49 1057.95 C 1486.43 1056.26 1485.84 1055.78 1484.59 1052.35 C 1468.76 1008.9 1458.12 964.635 1439.39 922.042 C 1436.73 916.007 1433.6 905.417 1436.64 899.344 z"/>
<path transform="translate(0,0)" fill="rgb(60,116,127)" d="M 1611.63 1072.46 C 1634.33 1070.61 1723.07 1085.54 1745.63 1099.33 C 1746.68 1099.98 1747.1 1102.67 1746.93 1103.54 C 1746.24 1107.21 1746.38 1106.41 1743.94 1108.23 C 1739.21 1108.82 1735.67 1107.15 1731.04 1105.66 C 1697.71 1094.37 1662.61 1084.78 1627.45 1082.2 C 1616.73 1081.41 1603.75 1084.02 1593.16 1082.74 C 1589.99 1080.23 1590.93 1081.74 1589.62 1078.47 L 1590.26 1077.08 C 1596.05 1072.63 1604.51 1072.8 1611.63 1072.46 z"/>
<path transform="translate(0,0)" fill="rgb(60,116,127)" d="M 1459.44 1365.94 C 1478.34 1368.31 1503.16 1372.53 1522.08 1376.34 C 1525.11 1376.96 1524.98 1377.74 1526.03 1379.79 C 1525.9 1383.15 1524.33 1384.44 1522.2 1387.11 C 1504.85 1385.74 1478.46 1380.67 1460.77 1377.34 C 1457.43 1376.72 1456.94 1375.38 1455.87 1373.12 C 1456.1 1369.73 1457.36 1368.66 1459.44 1365.94 z"/>
<path transform="translate(0,0)" fill="rgb(60,116,127)" d="M 1488.87 1472.29 C 1496.97 1471.95 1505.59 1471.86 1513.72 1471.84 C 1520.21 1471.82 1538.31 1470.04 1540.04 1477.88 C 1537.78 1481.05 1537.84 1480.9 1534.83 1482.98 C 1522.58 1482.93 1510.37 1483.84 1498.14 1483.81 C 1492.15 1483.79 1486.18 1483.7 1484.68 1477.21 C 1486.01 1473.28 1484.9 1475.04 1488.87 1472.29 z"/>
<path transform="translate(0,0)" fill="rgb(233,185,103)" d="M 182.405 438.6 C 195.596 447.873 218.845 468.859 232.363 479.771 C 257.821 500.321 285.961 522.609 310.089 544.538 C 372.563 601.318 384.698 674.103 386.85 754.288 C 420.991 810.41 453.181 867.696 483.361 926.043 C 432.192 750.718 445.084 703.412 496.567 529.383 C 509.67 594.985 553.496 651.474 570.197 716.31 C 585.981 777.59 580.178 842.706 553.168 900.033 C 539.99 928.002 524.38 954.353 512.895 983.008 C 520.161 999.165 531.404 1019.85 539.648 1036.33 C 555.999 1068.88 571.982 1101.61 587.594 1134.52 C 591.68 1022.68 582.617 922.226 645.166 821.31 C 660.436 833.177 674.848 846.931 689.772 859.308 C 701.648 869.156 713.644 879.224 724.962 889.672 C 727.587 892.185 728.566 895.726 729.945 898.947 C 731.969 913.778 731.16 933.885 729.693 948.675 C 723.223 967.62 705.012 1002.3 696.487 1021.95 C 691.422 1033.63 672.419 1075.25 666.501 1084.35 C 644.995 1108.73 618.084 1127.27 597.515 1153.9 C 607.736 1177.46 621.979 1205.25 633.641 1228.39 C 630.723 1238.12 625.423 1257.8 619.366 1265.32 C 617.104 1258.91 613.821 1252.01 610.923 1245.79 C 598.442 1219.02 586.946 1191.49 573.997 1164.96 C 568.494 1168.06 566.139 1168.13 560.1 1169.62 C 528.64 1177.35 500.026 1191.11 468.523 1199.23 C 436.373 1207.39 402.953 1209.28 370.088 1204.8 C 267.085 1190.59 233.252 1123.76 153.672 1076.66 C 275.444 1058.38 341.05 1051.41 457.195 1103.44 C 489.744 1118.03 534.442 1137.85 567.565 1150.85 C 543.195 1099.19 518.359 1047.74 493.06 996.528 C 480.708 995.599 463.488 996.763 450.9 997.86 C 413.261 1001.14 383.906 1005.32 345.807 997.818 C 327.014 994.072 308.901 987.481 292.095 978.273 C 229.394 944.477 210.435 891.056 179.43 831.591 C 170.933 815.295 162.141 801.659 151.971 786.384 C 160.667 788.285 174.334 790.17 183.409 791.536 C 206.284 794.98 226.377 799.497 248.606 804.766 C 348.516 828.445 406.304 903.08 479.358 969.661 C 457.142 922.975 431.177 876.94 406.598 831.444 C 394.785 809.576 382.094 787.062 369.099 765.914 C 360.037 761.668 349.345 758.041 339.797 753.679 C 311.344 740.744 285.581 722.564 263.858 700.09 C 193.93 627.233 180.613 534.894 182.405 438.6 z M 562.338 1166.81 C 566.819 1165.66 568.49 1165.75 571.214 1162.38 L 571.426 1160.32 C 567.583 1156.28 537.795 1152.55 531.199 1151.86 C 469.155 1145.37 409.227 1135.14 348.943 1118.93 C 338.012 1115.99 322.8 1112.33 311.607 1110.95 C 308.76 1113.65 307.512 1114.32 306.614 1118.14 C 307.78 1121.55 308.712 1122.62 312.24 1124.12 C 379.786 1152.83 453.177 1167.13 526.428 1169.01 C 534.636 1169.22 555.629 1169.39 562.338 1166.81 z M 508.188 665.375 C 503.376 669.934 502.839 672.182 502.872 679.158 C 502.943 694.344 504.648 710.335 505.748 725.557 C 508.146 755.157 509.773 784.815 510.629 814.5 C 511.597 862.635 504.745 909.582 502.436 957.48 C 502.238 961.581 504.72 969.38 507.755 972.032 C 508.98 969.951 508.697 970.77 509.092 968.335 C 533.1 882.974 535.704 757.071 511.704 667.952 C 511.321 666.529 509.556 666.077 508.188 665.375 z M 487.648 989.263 L 488.829 989.054 C 487.15 984.189 485.743 981.703 483.379 977.201 C 466.992 968.823 450.214 961.327 433.626 952.825 C 408.679 939.898 384.189 926.111 360.199 911.486 C 344.578 901.839 329.2 891.803 314.079 881.389 C 309.834 878.519 293.459 867.013 289.371 865.355 C 286.312 869.296 286.168 868.25 285.761 872.447 C 288.82 880.818 294.944 884.239 301.535 890.163 C 333.492 918.92 369.687 942.586 408.847 960.328 C 430.042 970.154 464.721 983.803 487.648 989.263 z M 383.692 768.573 C 384.867 766.445 385.387 764.324 384.465 761.907 C 380.768 752.22 372.718 739.804 367.397 730.833 C 338.118 681.47 308.428 632.306 270.791 588.732 C 266.338 583.577 255.721 570.932 250.345 567.383 C 248.403 570.598 246.767 572.444 246.85 576.14 C 248.559 581.077 287.408 633.782 293.589 642.831 C 311.462 669.254 328.733 696.081 345.387 723.289 C 352.2 734.27 366.251 756.554 376.325 765.954 C 376.545 766.16 382.788 768.281 383.692 768.573 z M 594.192 1146.38 C 637.747 1070.37 670.917 990.979 680.333 903.221 C 680.594 900.79 676.214 899.779 674.639 899.419 C 670.515 907.364 666.259 923.688 663.78 932.618 C 658.997 950.246 654.096 967.842 649.078 985.405 C 635.962 1029.83 611.109 1094.94 588.797 1136.39 C 590.344 1139.9 591.576 1143.99 594.192 1146.38 z"/>
<path transform="translate(0,0)" fill="rgb(205,92,91)" d="M 884.001 275.407 C 893.393 267.267 902.453 260.869 915.256 259.661 C 949.497 256.431 976.615 267.275 1002.85 287.428 C 1014.81 299.079 1021.46 307.209 1028.88 322.518 C 1030.72 326.333 1033.83 334.153 1035.77 337.285 C 1036.05 344.869 1037.98 350.518 1038.36 357.813 C 1039.84 378.682 1033.25 394.147 1031.69 412.908 C 1031.3 418.647 1030.96 421.982 1031.59 427.794 C 1032.86 438.621 1035.32 449.246 1032.32 459.623 L 1032.21 461.14 C 1028.86 467.112 1021.05 479.602 1020.18 485.625 C 1018.63 496.205 1021.96 507.994 1020.82 519.371 C 1011.91 517.76 1009.87 508.185 991.143 507.68 C 980.814 521.615 970.422 590.38 973.483 607.896 C 981.228 622.032 989.296 628.018 1004.77 618.873 C 1006.66 617.745 1008.49 616.535 1010.27 615.247 C 998.947 650.423 986.846 685.485 974.995 720.494 C 968.7 739.09 959.379 758.094 951.755 776.322 C 952.647 797.417 956.643 811.195 965.703 830.313 C 954.029 833.645 942.265 836.654 930.424 839.334 C 899.704 845.288 872.58 847.898 841.075 844.595 L 841.671 847.686 C 847.443 850.016 859.988 852.944 855.192 860.806 C 850.325 861.034 845.536 861.15 840.647 860.82 C 828.583 860.006 816.651 857.507 804.575 856.929 C 803.681 857.526 802.786 858.123 801.892 858.72 C 807.698 866.395 818.273 868.576 823.91 878.639 C 828.613 885.151 835.6 891.39 841.432 897.138 L 836.288 910.205 L 834.644 912.748 C 833.68 916.478 831.658 922.339 828.546 924.725 L 828.109 926.367 C 826.589 930.03 824.92 931.406 822.197 934.4 L 800.194 920.744 C 786.639 925.312 776.505 928.527 762.666 931.769 C 756.832 928.289 750.299 921.727 744.746 917.093 C 738.159 911.127 735.016 906.232 729.945 898.947 C 728.566 895.726 727.587 892.185 724.962 889.672 C 713.644 879.224 701.648 869.156 689.772 859.308 C 674.848 846.931 660.436 833.177 645.166 821.31 C 629.591 807.529 600.593 782.906 590.058 766.373 C 600.081 742.219 636.112 688.253 651.736 664.832 C 638.758 638.599 639.519 592.738 662.76 573.972 C 694.113 548.655 677.32 529.061 693.128 500.924 C 704.301 481.037 741.927 459.497 760.107 444.594 C 767.367 438.644 777.799 433.2 784.557 426.035 C 795.648 415.577 790.183 403.629 790.076 387.644 C 793.881 377.897 809.535 369.774 817.02 357.816 C 831.977 333.919 830.187 296.146 851.981 278.248 C 860.627 271.147 874.003 273.6 884.001 275.407 z M 710.469 778.103 C 713.729 793.694 744.55 826.907 755.503 841.622 C 764.38 827.621 770.854 822.108 784.791 813.725 C 783.242 800.84 781.925 787.777 780.527 774.863 C 779.727 772.492 778.482 760.35 778.033 757.093 C 775.757 740.565 775.22 721.24 771.812 705.029 C 762.337 698.456 754.525 693.292 748.318 683.32 C 735.886 695.71 719.184 711.295 708.295 725.271 C 706.764 727.236 706.662 731.448 706.469 734.096 C 708.089 748.7 708.759 763.414 710.469 778.103 z"/>
<path transform="translate(0,0)" fill="rgb(51,39,42)" d="M 884.001 275.407 C 893.393 267.267 902.453 260.869 915.256 259.661 C 949.497 256.431 976.615 267.275 1002.85 287.428 C 1014.81 299.079 1021.46 307.209 1028.88 322.518 C 1030.72 326.333 1033.83 334.153 1035.77 337.285 C 1036.05 344.869 1037.98 350.518 1038.36 357.813 C 1039.84 378.682 1033.25 394.147 1031.69 412.908 C 1031.3 418.647 1030.96 421.982 1031.59 427.794 C 1032.86 438.621 1035.32 449.246 1032.32 459.623 L 1032.21 461.14 C 1028.86 467.112 1021.05 479.602 1020.18 485.625 C 1018.63 496.205 1021.96 507.994 1020.82 519.371 C 1011.91 517.76 1009.87 508.185 991.143 507.68 L 975.747 507.834 C 953.729 506.756 931.87 506.547 909.653 505.252 C 909.546 495.604 909.75 485.956 910.265 476.322 C 894.242 474.594 887.605 464.988 876.477 453.629 C 874.598 456.618 873.977 457.768 871.477 460.383 C 869.378 462.317 866.424 464.797 864.816 466.99 C 858.482 479.047 855.451 488.55 851.069 501.421 L 816.928 495.482 L 801.785 492.83 C 786.58 494.773 775.646 495.924 760.945 500.551 C 755.442 502.723 750.969 504.357 747.162 509.247 C 726.96 535.196 712.727 568.296 696.42 596.884 C 688.346 611.038 677.656 625.738 668.961 639.587 C 665.962 644.365 654.804 661.504 651.736 664.832 C 638.758 638.599 639.519 592.738 662.76 573.972 C 694.113 548.655 677.32 529.061 693.128 500.924 C 704.301 481.037 741.927 459.497 760.107 444.594 C 767.367 438.644 777.799 433.2 784.557 426.035 C 795.648 415.577 790.183 403.629 790.076 387.644 C 793.881 377.897 809.535 369.774 817.02 357.816 C 831.977 333.919 830.187 296.146 851.981 278.248 C 860.627 271.147 874.003 273.6 884.001 275.407 z"/>
<path transform="translate(0,0)" fill="rgb(79,65,65)" d="M 884.001 275.407 C 893.393 267.267 902.453 260.869 915.256 259.661 C 949.497 256.431 976.615 267.275 1002.85 287.428 C 1014.81 299.079 1021.46 307.209 1028.88 322.518 C 1030.72 326.333 1033.83 334.153 1035.77 337.285 C 1036.05 344.869 1037.98 350.518 1038.36 357.813 C 1039.84 378.682 1033.25 394.147 1031.69 412.908 C 1031.3 418.647 1030.96 421.982 1031.59 427.794 C 1032.86 438.621 1035.32 449.246 1032.32 459.623 C 1019.87 431.048 1026.63 421.039 1023.82 391.824 C 1021.33 365.937 1012.2 346.666 1013.07 318.963 C 999.824 319.081 994.965 317.579 985.488 307.769 C 982.473 312.359 981.79 313.775 977.426 316.988 L 975.737 317.091 C 975.562 311.393 978.332 308.61 976.776 304.595 L 975.192 304.327 C 959.508 316.356 948.234 319.449 939.381 297.794 C 935.295 304.499 933.228 307.181 927.45 312.824 C 927.117 307.798 927.297 305.066 925.224 300.451 L 923.963 300.227 C 904.923 329.389 899.501 323.572 868.32 325.148 C 844.462 339.775 865.694 363.569 843.867 378.436 C 838.484 382.103 830.657 384.175 825.557 388.517 C 808.791 404.359 809.857 443.269 796.819 459.608 C 784.419 475.148 767.987 476.486 760.945 500.551 C 755.442 502.723 750.969 504.357 747.162 509.247 C 726.96 535.196 712.727 568.296 696.42 596.884 C 688.346 611.038 677.656 625.738 668.961 639.587 C 665.962 644.365 654.804 661.504 651.736 664.832 C 638.758 638.599 639.519 592.738 662.76 573.972 C 694.113 548.655 677.32 529.061 693.128 500.924 C 704.301 481.037 741.927 459.497 760.107 444.594 C 767.367 438.644 777.799 433.2 784.557 426.035 C 795.648 415.577 790.183 403.629 790.076 387.644 C 793.881 377.897 809.535 369.774 817.02 357.816 C 831.977 333.919 830.187 296.146 851.981 278.248 C 860.627 271.147 874.003 273.6 884.001 275.407 z"/>
<path transform="translate(0,0)" fill="rgb(90,90,90)" d="M 884.001 275.407 C 893.393 267.267 902.453 260.869 915.256 259.661 C 949.497 256.431 976.615 267.275 1002.85 287.428 C 1014.81 299.079 1021.46 307.209 1028.88 322.518 C 1030.72 326.333 1033.83 334.153 1035.77 337.285 C 1036.05 344.869 1037.98 350.518 1038.36 357.813 C 1019.45 338.782 1029.88 328.706 1017.33 315.053 C 1004.63 301.227 987.231 308.958 977.396 284.459 C 974.427 286.493 972.015 288.173 968.885 289.936 C 966.897 284.929 969.588 283.667 967.702 278.581 C 962.75 278.079 943.418 294.601 922.183 277.262 C 919.137 286.081 918.468 289.317 911.469 295.795 L 909.555 296.333 C 908.303 290.953 911.791 286.412 910.377 280.941 L 908.664 280.335 C 904.833 282.927 906.629 283.684 904.782 287.041 C 891.466 311.135 850.453 291.713 841.179 323.498 C 838.939 331.177 837.869 339.167 835.955 346.723 C 831.317 365.026 806.646 379.965 790.076 387.644 C 793.881 377.897 809.535 369.774 817.02 357.816 C 831.977 333.919 830.187 296.146 851.981 278.248 C 860.627 271.147 874.003 273.6 884.001 275.407 z"/>
<path transform="translate(0,0)" fill="rgb(232,158,130)" d="M 889.423 344.083 C 900.813 346.965 912.995 348.169 922.706 339.786 C 926.419 336.58 927.905 333.986 932.366 332.027 L 932.907 332.653 C 931.235 336.737 930.603 337.148 927.544 340.568 L 926.633 341.574 L 927.438 343.143 C 940.335 348.315 946.509 341.532 952.441 330.965 C 964.014 350.779 972.549 345.928 988.817 336.769 C 986.489 339.631 979.898 346.007 979.465 348.47 C 986.897 352.499 994.728 345.967 1000.5 342.043 L 1007.73 344.836 C 1008.65 350.572 1008.1 357.273 1007.73 363.137 C 1009.46 365.188 1012.48 368.088 1012.92 370.325 L 1008.11 370.425 C 1007.65 371.152 1007 372.054 1006.69 372.811 C 1005.99 380.548 1006.27 391.177 1001 396.487 C 993.314 399.666 986.044 394.514 979.399 390.724 C 981.093 393.044 985.116 398.863 987.423 400.058 C 999.322 406.219 1002.85 398.509 1000.77 411.458 C 1000.64 412.261 1000.51 413.062 1000.36 413.862 C 1004.25 413.974 1006.9 413.539 1009.92 415.806 L 1010.25 417.586 C 1006.31 422.136 1003.38 422.487 997.434 424.103 C 994.547 433.7 991.509 442.846 987.098 451.881 L 984.832 455.849 C 976.417 470.2 965.792 481.163 949.347 485.873 L 940.97 486.054 C 928.445 486.034 921.107 479.829 911.591 472.663 L 910.265 476.322 C 894.242 474.594 887.605 464.988 876.477 453.629 C 877.848 450.728 879.178 446.97 880.358 443.926 L 878.703 438.367 C 878.328 432.666 876.724 429.537 873.396 425.026 L 867.895 418.565 L 866.007 417.52 L 865.944 416.84 L 862.971 415.75 C 857.25 413.874 855.455 413.426 849.485 413.078 C 842.491 397.037 850.891 388.94 863.306 380.3 C 872.527 384.176 873.47 385.643 879.394 393.316 C 882.961 380.581 886.808 357.403 889.423 344.083 z"/>
<path transform="translate(0,0)" fill="rgb(240,184,148)" d="M 993.932 424.166 L 997.434 424.103 C 994.547 433.7 991.509 442.846 987.098 451.881 L 984.832 455.849 C 976.417 470.2 965.792 481.163 949.347 485.873 L 940.97 486.054 C 928.445 486.034 921.107 479.829 911.591 472.663 L 910.265 476.322 C 894.242 474.594 887.605 464.988 876.477 453.629 C 877.848 450.728 879.178 446.97 880.358 443.926 L 878.703 438.367 C 881.865 440.36 886.29 445.155 889.381 447.913 C 901.117 457.996 916.235 474.893 931.463 478.882 C 965.037 487.677 986.886 450.144 993.932 424.166 z"/>
<path transform="translate(0,0)" fill="rgb(227,124,112)" d="M 880.358 443.926 C 890.43 454.121 900.44 463.647 911.591 472.663 L 910.265 476.322 C 894.242 474.594 887.605 464.988 876.477 453.629 C 877.848 450.728 879.178 446.97 880.358 443.926 z"/>
<path transform="translate(0,0)" fill="rgb(227,124,112)" d="M 862.971 415.75 C 859.138 409.49 850.361 386.097 863.44 387.017 C 866.029 389.118 866.144 389.328 868.221 391.976 C 867.372 394.464 867.018 393.825 867.805 395.694 C 872.312 406.395 865.081 404.21 865.944 416.84 L 862.971 415.75 z"/>
<path transform="translate(0,0)" fill="rgb(227,124,112)" d="M 1000.36 413.862 C 1004.25 413.974 1006.9 413.539 1009.92 415.806 L 1010.25 417.586 C 1006.31 422.136 1003.38 422.487 997.434 424.103 L 993.932 424.166 C 990.295 424.224 987.198 424.474 984.433 422.24 L 984.365 420.316 C 989.63 415.089 993.098 415.137 1000.36 413.862 z"/>
<path transform="translate(0,0)" fill="rgb(79,65,65)" d="M 1007.73 344.836 C 1008.65 350.572 1008.1 357.273 1007.73 363.137 C 1009.46 365.188 1012.48 368.088 1012.92 370.325 L 1008.11 370.425 C 1007.65 371.152 1007 372.054 1006.69 372.811 C 1004.29 364.934 996.096 370.314 990.333 363.978 L 990.656 360.854 C 995.498 355.877 1001.94 359.301 1006.97 362.385 C 1007.04 356.137 1007.07 351.062 1007.73 344.836 z"/>
<path transform="translate(0,0)" fill="rgb(174,52,51)" d="M 865.944 416.84 C 865.081 404.21 872.312 406.395 867.805 395.694 C 867.018 393.825 867.372 394.464 868.221 391.976 C 877.019 407.165 868.309 403.693 867.915 417.984 L 867.895 418.565 L 866.007 417.52 L 865.944 416.84 z"/>
<path transform="translate(0,0)" fill="rgb(205,92,91)" d="M 926.912 423.331 L 925.96 418.634 C 929.435 419.1 939.964 432.71 944.603 435.02 C 950.986 438.198 960.433 440.401 967.335 441.885 C 966.954 443.664 967.394 442.861 965.827 444.178 C 940.846 462.107 929.3 450.614 926.912 423.331 z"/>
<path transform="translate(0,0)" fill="rgb(175,44,15)" d="M 926.912 423.331 L 925.96 418.634 C 929.435 419.1 939.964 432.71 944.603 435.02 C 950.986 438.198 960.433 440.401 967.335 441.885 C 966.954 443.664 967.394 442.861 965.827 444.178 C 947.963 446.557 936.11 437.887 926.912 423.331 z"/>
<path transform="translate(0,0)" fill="rgb(227,124,112)" d="M 901.806 396.052 C 910.514 395.33 935.162 399.885 929.713 412.53 C 919.939 413.063 901.129 408.545 901.806 396.052 z"/>
<path transform="translate(0,0)" fill="rgb(79,65,65)" d="M 938.143 350.162 C 944.37 349.599 951.662 349.051 955.698 354.782 C 954.498 362.018 942.954 359.971 937.405 359.694 C 930.009 359.135 922.091 358.901 914.642 358.547 C 922.508 354.62 929.715 352.437 938.143 350.162 z"/>
<path transform="translate(0,0)" fill="rgb(205,92,91)" d="M 971.213 415.768 C 965.242 403.989 966.724 392.331 976.018 382.853 L 977.998 382.25 L 978.205 385.072 C 968.18 394.951 967.888 404.426 976.885 415.734 C 972.068 420.501 970.155 423.089 963.343 424.211 C 958.888 419.433 956.918 416.727 953.143 411.454 C 959.976 414.13 963.877 415.969 971.213 415.768 z"/>
<path transform="translate(0,0)" fill="rgb(227,124,112)" d="M 953.143 411.454 C 959.976 414.13 963.877 415.969 971.213 415.768 C 969.238 419.722 965.504 419.49 963.343 424.211 C 958.888 419.433 956.918 416.727 953.143 411.454 z"/>
<path transform="translate(0,0)" fill="rgb(51,39,42)" d="M 922.379 384.792 C 943.607 398.22 944.676 388.17 952.882 390.554 L 951.81 393.022 C 939.018 401.933 928.72 399.266 922.379 384.792 z"/>
<path transform="translate(0,0)" fill="rgb(51,39,42)" d="M 849.485 413.078 C 855.455 413.426 857.25 413.874 862.971 415.75 L 865.944 416.84 L 866.007 417.52 L 867.895 418.565 L 873.396 425.026 C 876.724 429.537 878.328 432.666 878.703 438.367 L 880.358 443.926 C 879.178 446.97 877.848 450.728 876.477 453.629 C 874.598 456.618 873.977 457.768 871.477 460.383 C 869.378 462.317 866.424 464.797 864.816 466.99 C 854.359 467.236 849.718 472.752 836.146 464.739 C 830.042 461.136 825.835 456.054 824.037 449.038 C 822.114 441.434 823.391 433.374 827.57 426.736 C 833.354 417.601 839.865 415.289 849.485 413.078 z"/>
<path transform="translate(0,0)" fill="rgb(211,141,62)" d="M 849.485 413.078 C 855.455 413.426 857.25 413.874 862.971 415.75 L 865.944 416.84 L 866.007 417.52 L 866.253 422.691 C 861.342 419.841 857.792 418.366 852.25 417.276 C 844.251 418.229 838.464 419.568 833.01 426.16 C 828.736 431.389 826.876 438.183 827.889 444.86 C 831.421 467.767 861.838 471.206 869.185 454.746 L 871.477 460.383 C 869.378 462.317 866.424 464.797 864.816 466.99 C 854.359 467.236 849.718 472.752 836.146 464.739 C 830.042 461.136 825.835 456.054 824.037 449.038 C 822.114 441.434 823.391 433.374 827.57 426.736 C 833.354 417.601 839.865 415.289 849.485 413.078 z"/>
<path transform="translate(0,0)" fill="rgb(217,134,64)" d="M 866.007 417.52 L 867.895 418.565 L 873.396 425.026 C 876.724 429.537 878.328 432.666 878.703 438.367 L 880.358 443.926 C 879.178 446.97 877.848 450.728 876.477 453.629 C 874.598 456.618 873.977 457.768 871.477 460.383 L 869.185 454.746 C 871.65 447.941 874.985 441.001 873.734 433.978 C 871.497 430.8 872.965 431.808 869.154 430.89 L 872.152 428.91 L 866.253 422.691 L 866.007 417.52 z"/>
<path transform="translate(0,0)" fill="rgb(232,158,130)" d="M 852.25 417.276 C 857.792 418.366 861.342 419.841 866.253 422.691 L 872.152 428.91 L 869.154 430.89 C 860.521 428.15 857.305 424.497 852.25 417.276 z"/>
<path transform="translate(0,0)" fill="rgb(51,39,42)" d="M 984.832 455.849 C 995.298 465.169 997.677 478.562 988.182 489.61 C 983.809 494.76 977.484 497.849 970.735 498.131 C 961.275 498.433 954.484 493.36 949.347 485.873 C 965.792 481.163 976.417 470.2 984.832 455.849 z"/>
<path transform="translate(0,0)" fill="rgb(211,141,62)" d="M 987.098 451.881 C 1007.96 472.437 997.873 501.516 968.304 502.132 C 952.1 502.471 950.194 488.429 940.97 486.054 L 949.347 485.873 C 954.484 493.36 961.275 498.433 970.735 498.131 C 977.484 497.849 983.809 494.76 988.182 489.61 C 997.677 478.562 995.298 465.169 984.832 455.849 L 987.098 451.881 z"/>
<path transform="translate(0,0)" fill="rgb(232,158,130)" d="M 760.945 500.551 C 775.646 495.924 786.58 494.773 801.785 492.83 C 798.119 512.986 789.731 556.672 782.86 574.045 C 772.112 601.223 737.356 629.158 742.2 664.042 C 743.173 671.045 746.536 676.455 748.318 683.32 C 735.886 695.71 719.184 711.295 708.295 725.271 C 706.764 727.236 706.662 731.448 706.469 734.096 C 708.089 748.7 708.759 763.414 710.469 778.103 C 713.729 793.694 744.55 826.907 755.503 841.622 C 759.805 845.728 764.284 850.156 768.649 854.144 C 802.263 837.416 806.019 838.971 841.671 847.686 C 847.443 850.016 859.988 852.944 855.192 860.806 C 850.325 861.034 845.536 861.15 840.647 860.82 C 828.583 860.006 816.651 857.507 804.575 856.929 C 803.681 857.526 802.786 858.123 801.892 858.72 C 807.698 866.395 818.273 868.576 823.91 878.639 C 828.613 885.151 835.6 891.39 841.432 897.138 L 836.288 910.205 L 834.644 912.748 C 833.68 916.478 831.658 922.339 828.546 924.725 L 828.109 926.367 C 826.589 930.03 824.92 931.406 822.197 934.4 L 800.194 920.744 C 786.639 925.312 776.505 928.527 762.666 931.769 C 756.832 928.289 750.299 921.727 744.746 917.093 C 738.159 911.127 735.016 906.232 729.945 898.947 C 728.566 895.726 727.587 892.185 724.962 889.672 C 713.644 879.224 701.648 869.156 689.772 859.308 C 674.848 846.931 660.436 833.177 645.166 821.31 C 629.591 807.529 600.593 782.906 590.058 766.373 C 600.081 742.219 636.112 688.253 651.736 664.832 C 654.804 661.504 665.962 644.365 668.961 639.587 C 677.656 625.738 688.346 611.038 696.42 596.884 C 712.727 568.296 726.96 535.196 747.162 509.247 C 750.969 504.357 755.442 502.723 760.945 500.551 z"/>
<path transform="translate(0,0)" fill="rgb(233,185,103)" d="M 698.824 734.254 C 699.662 733.756 703.14 729.297 705.06 727.619 C 706.744 729.584 706.404 731.412 706.469 734.096 C 708.089 748.7 708.759 763.414 710.469 778.103 L 708.039 781.308 C 704.356 777.792 690.097 759.159 686.293 754.234 C 690.751 747.587 694.68 741.106 698.824 734.254 z"/>
<path transform="translate(0,0)" fill="rgb(174,52,51)" d="M 793.871 903.806 C 809.956 905.431 820.959 909.014 828.546 924.725 L 828.109 926.367 C 815.378 916.054 808.755 910.436 793.871 903.806 z"/>
<path transform="translate(0,0)" fill="rgb(227,124,112)" d="M 796.977 868.537 C 799.089 865.047 800.862 862.643 801.892 858.72 C 807.698 866.395 818.273 868.576 823.91 878.639 C 814.907 872.723 807.215 871.317 796.977 868.537 z"/>
<path transform="translate(0,0)" fill="rgb(174,52,51)" d="M 803.471 892.381 C 805.423 892.646 807.372 892.933 809.318 893.239 C 822.915 895.358 828.515 899.486 836.288 910.205 L 834.644 912.748 C 823.027 903.646 816.648 898.858 803.471 892.381 z"/>
<path transform="translate(0,0)" fill="rgb(79,65,65)" d="M 686.293 754.234 C 683.621 750.804 684.035 752.591 684.082 748.974 C 687.558 743.097 693.313 738.223 698.824 734.254 C 694.68 741.106 690.751 747.587 686.293 754.234 z"/>
<path transform="translate(0,0)" fill="rgb(232,158,130)" d="M 876.477 453.629 C 887.605 464.988 894.242 474.594 910.265 476.322 C 909.75 485.956 909.546 495.604 909.653 505.252 C 931.87 506.547 953.729 506.756 975.747 507.834 C 966.36 541.579 887.137 598.329 853.086 605.176 C 826.549 610.512 816.929 515.855 816.928 495.482 L 851.069 501.421 C 855.451 488.55 858.482 479.047 864.816 466.99 C 866.424 464.797 869.378 462.317 871.477 460.383 C 873.977 457.768 874.598 456.618 876.477 453.629 z"/>
<path transform="translate(0,0)" fill="rgb(232,158,130)" d="M 780.527 774.863 C 785.309 774.202 822.322 781.163 831.87 782.04 C 858.906 784.524 883.964 786.581 911.371 784.435 C 921.657 783.63 929.156 781.828 938.593 780.657 C 942.907 779.436 947.482 777.775 951.755 776.322 C 952.647 797.417 956.643 811.195 965.703 830.313 C 954.029 833.645 942.265 836.654 930.424 839.334 C 899.704 845.288 872.58 847.898 841.075 844.595 L 841.671 847.686 C 806.019 838.971 802.263 837.416 768.649 854.144 C 764.284 850.156 759.805 845.728 755.503 841.622 C 764.38 827.621 770.854 822.108 784.791 813.725 C 783.242 800.84 781.925 787.777 780.527 774.863 z"/>
<path transform="translate(0,0)" fill="rgb(227,124,112)" d="M 810.703 801.188 C 818.912 807.156 827.454 813.165 835.407 819.452 C 839.199 822.448 846.097 827.418 842.431 832.214 C 834.696 834.865 829.108 832.974 820.842 831.629 C 825.107 834.174 838.805 843.919 841.075 844.595 L 841.671 847.686 C 806.019 838.971 802.263 837.416 768.649 854.144 C 764.284 850.156 759.805 845.728 755.503 841.622 C 764.38 827.621 770.854 822.108 784.791 813.725 C 793.267 809.355 801.855 804.689 810.703 801.188 z"/>
<path transform="translate(0,0)" fill="rgb(174,52,51)" d="M 859.167 818.612 C 860.925 823.1 861.939 828.058 861.059 832.844 C 855.832 827.588 854.875 824.949 859.167 818.612 z"/>
<path transform="translate(0,0)" fill="rgb(174,52,51)" d="M 938.593 780.657 C 945.903 719.311 957.277 667.518 973.483 607.896 C 981.228 622.032 989.296 628.018 1004.77 618.873 C 1006.66 617.745 1008.49 616.535 1010.27 615.247 C 998.947 650.423 986.846 685.485 974.995 720.494 C 968.7 739.09 959.379 758.094 951.755 776.322 C 947.482 777.775 942.907 779.436 938.593 780.657 z"/>
<path transform="translate(0,0)" fill="rgb(174,52,51)" d="M 857.938 701.739 C 875.94 704.154 890.952 705.062 909.037 705.776 L 901.783 712.666 C 883.782 724.282 865.055 724.659 857.938 701.739 z"/>
<path transform="translate(0,0)" fill="rgb(251,251,251)" d="M 1032.21 461.14 C 1034.79 470.059 1036.26 470.217 1044.83 475.232 C 1062.14 485.373 1066.81 483.424 1076.78 501.26 C 1086.12 501.099 1094.62 501.519 1103.93 501.957 C 1111.95 502.135 1119.22 503.745 1126.43 501.346 C 1128.42 498.625 1127.63 498.843 1127.2 494.327 C 1154.85 499.822 1191.6 503.296 1220.23 502.865 C 1257.84 500.526 1295.86 503.753 1332.93 508.334 C 1363.87 512.156 1414.71 523.418 1419.58 561.429 C 1425.09 604.364 1432.73 656.538 1433.17 700.012 L 1356.11 675.109 C 1344.28 671.301 1325.09 665.704 1314.29 661.195 C 1316.12 643.139 1318.3 618.897 1321.15 600.964 C 1280.05 605.5 1260.32 611.181 1221.22 619.739 C 1220.58 628.377 1220.01 640.695 1218.55 648.957 C 1220.98 647.298 1223.51 645.743 1225.99 644.166 C 1246.37 631.207 1281.07 637.323 1297.35 656.018 C 1298.38 657.194 1298.18 658.857 1298.01 660.28 C 1312.99 673.467 1323.02 681.164 1330.02 699.887 C 1313.62 726.688 1294.87 724.372 1266.91 718.522 C 1262.66 723.979 1264.28 726.81 1266.11 732.981 C 1266.18 737.903 1267.38 741.445 1267.76 746.038 C 1268.66 756.779 1268.81 769.128 1266.8 779.774 C 1262.82 782.563 1258.8 785.315 1254.77 788.03 C 1247.39 791.882 1240.05 795.797 1232.74 799.775 C 1231.09 807.099 1229.7 819.904 1224.57 824.262 L 1220.56 825.4 C 1227.44 834.591 1239.96 850.544 1244.78 860.373 C 1238.59 872.792 1229.84 881.047 1219.8 890.527 L 1218.44 891.503 C 1210.68 897.152 1203.34 905.069 1195.48 910.868 C 1153.02 942.182 1130.25 958.56 1076.88 950.488 C 1068.94 949.258 1061.01 947.919 1053.11 946.471 C 1047.89 941.567 1039.28 921.453 1033.13 914.572 C 1007.15 885.513 984.78 865.657 965.703 830.313 C 956.643 811.195 952.647 797.417 951.755 776.322 C 959.379 758.094 968.7 739.09 974.995 720.494 C 986.846 685.485 998.947 650.423 1010.27 615.247 C 1008.49 616.535 1006.66 617.745 1004.77 618.873 C 989.296 628.018 981.228 622.032 973.483 607.896 C 970.422 590.38 980.814 521.615 991.143 507.68 C 1009.87 508.185 1011.91 517.76 1020.82 519.371 C 1021.96 507.994 1018.63 496.205 1020.18 485.625 C 1021.05 479.602 1028.86 467.112 1032.21 461.14 z"/>
<path transform="translate(0,0)" fill="rgb(251,251,251)" d="M 1010.27 615.247 C 1024.54 634.946 1081.28 721.08 1097.13 729.571 C 1117.52 740.496 1143.66 744.899 1164.81 755.047 C 1175.68 738.979 1189.6 735.734 1207.32 729.364 L 1214.16 705.848 L 1215.68 693.726 C 1204.52 676.316 1205.84 664.9 1218.55 648.957 C 1220.98 647.298 1223.51 645.743 1225.99 644.166 C 1246.37 631.207 1281.07 637.323 1297.35 656.018 C 1298.38 657.194 1298.18 658.857 1298.01 660.28 C 1312.99 673.467 1323.02 681.164 1330.02 699.887 C 1313.62 726.688 1294.87 724.372 1266.91 718.522 C 1262.66 723.979 1264.28 726.81 1266.11 732.981 C 1266.18 737.903 1267.38 741.445 1267.76 746.038 C 1268.66 756.779 1268.81 769.128 1266.8 779.774 C 1262.82 782.563 1258.8 785.315 1254.77 788.03 C 1247.39 791.882 1240.05 795.797 1232.74 799.775 C 1231.09 807.099 1229.7 819.904 1224.57 824.262 L 1220.56 825.4 C 1227.44 834.591 1239.96 850.544 1244.78 860.373 C 1238.59 872.792 1229.84 881.047 1219.8 890.527 L 1218.44 891.503 C 1210.68 897.152 1203.34 905.069 1195.48 910.868 C 1153.02 942.182 1130.25 958.56 1076.88 950.488 C 1068.94 949.258 1061.01 947.919 1053.11 946.471 C 1047.89 941.567 1039.28 921.453 1033.13 914.572 C 1007.15 885.513 984.78 865.657 965.703 830.313 C 956.643 811.195 952.647 797.417 951.755 776.322 C 959.379 758.094 968.7 739.09 974.995 720.494 C 986.846 685.485 998.947 650.423 1010.27 615.247 z"/>
<path transform="translate(0,0)" fill="rgb(227,124,112)" d="M 1225.99 644.166 C 1246.37 631.207 1281.07 637.323 1297.35 656.018 C 1298.38 657.194 1298.18 658.857 1298.01 660.28 C 1312.99 673.467 1323.02 681.164 1330.02 699.887 C 1313.62 726.688 1294.87 724.372 1266.91 718.522 C 1262.66 723.979 1264.28 726.81 1266.11 732.981 C 1266.18 737.903 1267.38 741.445 1267.76 746.038 C 1268.66 756.779 1268.81 769.128 1266.8 779.774 C 1262.82 782.563 1258.8 785.315 1254.77 788.03 C 1247.39 791.882 1240.05 795.797 1232.74 799.775 C 1231.09 807.099 1229.7 819.904 1224.57 824.262 L 1220.56 825.4 C 1218.18 823.703 1217.94 823.776 1215.12 822.828 C 1210.81 821.462 1206.27 819.799 1201.97 818.319 L 1199.03 817.24 L 1186.22 811.636 C 1186.28 791.015 1184.01 783.124 1194.29 765.484 L 1180.55 760.317 C 1175.22 768.408 1157.93 793.896 1148.29 793.043 L 1147.15 790.935 C 1147.69 779.482 1158.41 764.93 1164.81 755.047 C 1175.68 738.979 1189.6 735.734 1207.32 729.364 L 1214.16 705.848 L 1215.68 693.726 C 1204.52 676.316 1205.84 664.9 1218.55 648.957 C 1220.98 647.298 1223.51 645.743 1225.99 644.166 z"/>
<path transform="translate(0,0)" fill="rgb(231,231,231)" d="M 1298.01 660.28 C 1312.99 673.467 1323.02 681.164 1330.02 699.887 C 1313.62 726.688 1294.87 724.372 1266.91 718.522 C 1265.82 716.376 1294.23 664.354 1298.01 660.28 z"/>
<path transform="translate(0,0)" fill="rgb(231,231,231)" d="M 1225.99 644.166 C 1225.21 651.067 1218.21 688.26 1215.68 693.726 C 1204.52 676.316 1205.84 664.9 1218.55 648.957 C 1220.98 647.298 1223.51 645.743 1225.99 644.166 z"/>
<path transform="translate(0,0)" fill="rgb(174,52,51)" d="M 1222.65 785.772 C 1221.8 789.735 1215.8 821.867 1215.12 822.828 C 1210.37 811.006 1212.45 794.224 1222.65 785.772 z"/>
<path transform="translate(0,0)" fill="rgb(174,52,51)" d="M 1199.03 817.24 C 1197.6 808.849 1198.51 791.454 1206.43 786.412 C 1206.91 791.018 1202.81 811.118 1201.97 818.319 L 1199.03 817.24 z"/>
<path transform="translate(0,0)" fill="rgb(232,158,130)" d="M 1180.55 760.317 C 1185.02 755.774 1190.11 756.072 1195.28 759.586 L 1196.28 761.6 L 1194.29 765.484 L 1180.55 760.317 z"/>
<path transform="translate(0,0)" fill="rgb(231,231,231)" d="M 1093.29 799.483 C 1096.28 797.972 1099.93 799.104 1101.54 802.042 C 1103.15 804.979 1102.14 808.665 1099.26 810.372 C 1097.3 811.528 1094.88 811.529 1092.92 810.372 C 1090.97 809.216 1089.8 807.088 1089.88 804.82 C 1089.96 802.552 1091.26 800.506 1093.29 799.483 z"/>
<path transform="translate(0,0)" fill="rgb(231,231,231)" d="M 1089.18 836.562 C 1092.18 834.969 1095.91 836.091 1097.53 839.078 C 1099.16 842.065 1098.07 845.802 1095.11 847.459 C 1093.16 848.546 1090.77 848.502 1088.87 847.344 C 1086.96 846.186 1085.82 844.093 1085.88 841.862 C 1085.95 839.631 1087.21 837.607 1089.18 836.562 z"/>
<path transform="translate(0,0)" fill="rgb(231,231,231)" d="M 1097.35 762.531 C 1100.34 760.974 1104.03 762.115 1105.63 765.092 C 1107.22 768.069 1106.13 771.775 1103.17 773.408 C 1101.23 774.483 1098.85 774.428 1096.96 773.264 C 1095.07 772.1 1093.94 770.006 1094.02 767.785 C 1094.1 765.563 1095.37 763.555 1097.35 762.531 z"/>
<path transform="translate(0,0)" fill="rgb(232,158,130)" d="M 991.143 507.68 C 1009.87 508.185 1011.91 517.76 1020.82 519.371 C 1021.75 523.467 1047.47 543.75 1052.07 549.474 C 1065.31 565.974 1080.54 585.494 1092.17 602.94 L 1094.17 604.155 C 1095.13 597.449 1088.98 556.026 1088.5 545.427 C 1097.71 561.342 1105.01 578.29 1110.24 595.918 C 1111.95 601.725 1113.85 612.943 1115.67 617.556 C 1117.4 614.378 1116.96 612.182 1118.89 611.39 C 1121.56 616.968 1122.68 619.163 1126.19 624.359 C 1126.11 632.407 1125.94 638.004 1123.85 645.896 C 1126.47 649.641 1134.33 661.262 1137.35 663.571 C 1146.5 670.565 1160.81 677.583 1171.28 683.054 C 1185.32 690.382 1200.15 698.922 1214.16 705.848 L 1207.32 729.364 C 1189.6 735.734 1175.68 738.979 1164.81 755.047 C 1143.66 744.899 1117.52 740.496 1097.13 729.571 C 1081.28 721.08 1024.54 634.946 1010.27 615.247 C 1008.49 616.535 1006.66 617.745 1004.77 618.873 C 989.296 628.018 981.228 622.032 973.483 607.896 C 970.422 590.38 980.814 521.615 991.143 507.68 z"/>
<path transform="translate(0,0)" fill="rgb(231,231,231)" d="M 1032.21 461.14 C 1034.79 470.059 1036.26 470.217 1044.83 475.232 C 1062.14 485.373 1066.81 483.424 1076.78 501.26 L 1057.5 501.497 C 1063.86 507.858 1078.13 525.586 1081.85 533.57 C 1080.64 538.865 1075.47 540.328 1073.36 544.571 C 1078.41 543.67 1077.34 539.597 1083.25 537.916 C 1087.13 541.048 1093.65 597.545 1092.17 602.94 C 1080.54 585.494 1065.31 565.974 1052.07 549.474 C 1047.47 543.75 1021.75 523.467 1020.82 519.371 C 1021.96 507.994 1018.63 496.205 1020.18 485.625 C 1021.05 479.602 1028.86 467.112 1032.21 461.14 z"/>
<path transform="translate(0,0)" fill="rgb(231,231,231)" d="M 1138.89 614.493 C 1140.85 613.268 1143.33 613.245 1145.31 614.434 C 1147.3 615.622 1148.45 617.822 1148.29 620.128 C 1148.13 622.434 1146.7 624.458 1144.57 625.367 C 1141.62 626.63 1138.19 625.407 1136.7 622.559 C 1135.21 619.71 1136.17 616.197 1138.89 614.493 z"/>
<path transform="translate(0,0)" fill="rgb(79,65,65)" d="M 843.59 1119.56 L 845.196 1120.44 C 851.721 1119.68 876.395 1122.94 885.141 1123.11 C 896.957 1140.42 909.056 1157.53 921.435 1174.44 C 925.727 1180.41 933.927 1191.11 937.568 1197.02 C 940.846 1201.41 954.334 1218.86 955.586 1222.86 C 952.221 1223.77 939.428 1246.32 936.793 1250.97 C 925.912 1270.18 902 1284.58 916.02 1307.39 L 926.392 1301.46 C 924.385 1308.47 923.31 1312.21 922.769 1319.46 L 923.267 1321.15 C 930.16 1344.13 949.051 1375.05 958.892 1398.25 C 969.911 1424.21 978.58 1447.94 987.666 1474.65 C 999.154 1507.8 1010.19 1541.1 1020.79 1574.55 C 1024.72 1586.66 1039.34 1624.83 1039.53 1635.17 C 1035.47 1642.27 1009.12 1649.5 1000.63 1651.31 C 997.136 1652.09 993.667 1652.73 990.299 1653.89 C 966.374 1656.47 940.578 1655.85 917.293 1649.32 C 914.942 1648.03 898.858 1645.18 894.588 1643.95 C 886.571 1641.65 883.426 1640.42 875.703 1636.82 C 867.15 1589.16 855.646 1543.12 844.95 1496.02 C 842.295 1486.97 837.715 1463.25 833.692 1456.74 C 832.658 1451.67 828.145 1426.98 825.405 1425.14 C 826.272 1419.21 817.14 1389.39 815.099 1382.14 C 809.362 1362 804.997 1341.9 799.593 1322.58 C 782.814 1334.23 764.445 1345.28 748.505 1356.46 C 745.192 1353.01 744.062 1351.2 741.335 1347.18 C 775.97 1289.08 791.299 1252.66 803.251 1184.49 C 803.397 1184.14 803.543 1183.78 803.689 1183.43 L 804.456 1181.69 C 807.615 1174.38 839.039 1123.05 843.59 1119.56 z"/>
<path transform="translate(0,0)" fill="rgb(51,39,42)" d="M 937.568 1197.02 C 940.846 1201.41 954.334 1218.86 955.586 1222.86 C 952.221 1223.77 939.428 1246.32 936.793 1250.97 C 925.912 1270.18 902 1284.58 916.02 1307.39 L 926.392 1301.46 C 924.385 1308.47 923.31 1312.21 922.769 1319.46 L 923.267 1321.15 C 930.16 1344.13 949.051 1375.05 958.892 1398.25 C 969.911 1424.21 978.58 1447.94 987.666 1474.65 C 999.154 1507.8 1010.19 1541.1 1020.79 1574.55 C 1024.72 1586.66 1039.34 1624.83 1039.53 1635.17 C 1035.47 1642.27 1009.12 1649.5 1000.63 1651.31 C 998.057 1635.99 991.889 1613.55 987.985 1598.02 L 964.989 1506.67 C 960.602 1489.26 956.308 1471.84 952.109 1454.39 C 949.33 1442.49 945.532 1422.01 941.037 1411.55 C 922.977 1369.52 899.627 1324.05 876.902 1284.23 C 895.974 1259.77 919.269 1223.31 937.568 1197.02 z"/>
<path transform="translate(0,0)" fill="rgb(233,185,103)" d="M 916.02 1307.39 L 926.392 1301.46 C 924.385 1308.47 923.31 1312.21 922.769 1319.46 C 920.622 1316.73 917.735 1310.69 916.02 1307.39 z"/>
<path transform="translate(0,0)" fill="rgb(233,185,103)" d="M 843.59 1119.56 L 845.196 1120.44 C 830.444 1161.73 808.707 1208.63 796.33 1250.78 C 792.087 1265.24 795.824 1307.95 799.593 1322.58 C 782.814 1334.23 764.445 1345.28 748.505 1356.46 C 745.192 1353.01 744.062 1351.2 741.335 1347.18 C 775.97 1289.08 791.299 1252.66 803.251 1184.49 C 803.397 1184.14 803.543 1183.78 803.689 1183.43 L 804.456 1181.69 C 807.615 1174.38 839.039 1123.05 843.59 1119.56 z"/>
<path transform="translate(0,0)" fill="rgb(232,158,130)" d="M 675.983 1089.04 C 681.077 1088.52 716.107 1098.03 724.116 1099.69 C 738.753 1102.72 754.308 1106.24 769.45 1108.71 C 788.899 1112.84 823.821 1118.05 843.59 1119.56 C 839.039 1123.05 807.615 1174.38 804.456 1181.69 L 803.689 1183.43 C 803.543 1183.78 803.397 1184.14 803.251 1184.49 C 799.191 1188.3 768.632 1236.52 765.32 1243.81 C 752.228 1272.65 741.108 1302.27 726.278 1331.01 C 730.771 1335.72 737.397 1342.29 741.335 1347.18 C 744.062 1351.2 745.192 1353.01 748.505 1356.46 C 752.154 1362.24 757.137 1370.04 758.938 1376.54 C 767.117 1406.05 766.555 1442.83 769.412 1473.17 C 769.832 1481.6 770.074 1490.72 771.292 1499.01 C 771.506 1500.76 772.931 1509.16 772.937 1509.91 C 771.123 1514.56 775.328 1582.73 777.089 1590.57 C 776.743 1606.34 779.088 1623.49 779.176 1639.49 C 791.3 1652.08 795.929 1665.91 798.142 1683.14 C 799.531 1693.96 802.4 1741.45 796.487 1748.64 L 794.159 1749.3 C 788.831 1745.58 785.185 1711.57 782.858 1702.7 C 774.811 1717.36 765.424 1732.15 756.615 1746.22 C 750.108 1756.61 743.552 1763.21 731.549 1766.04 C 691.554 1778.62 569.273 1796.96 666.228 1730.35 C 670.982 1726.4 674.819 1722.5 679.194 1718.16 C 695.562 1697.82 710.504 1676.38 723.913 1653.98 C 714.177 1617.9 702.793 1581.43 692.615 1545.32 C 691.698 1538.8 690.303 1534.04 687.662 1528.06 C 686.475 1524.14 683.941 1513.26 681.186 1511.67 L 682.548 1509.98 C 682.416 1505.27 681.206 1503.72 679.066 1499.33 C 671.213 1466.28 655.839 1428.63 648.481 1395.57 L 645.529 1387.52 C 644.191 1383.77 641.711 1373.27 639.232 1371.74 C 640.758 1366.21 636.447 1357.54 633.837 1352.65 C 632.862 1346.3 626.107 1330.82 623.762 1324 C 617.51 1305.83 618.513 1284.3 619.366 1265.32 C 625.423 1257.8 630.723 1238.12 633.641 1228.39 C 646.647 1182.14 663.115 1135.92 675.983 1089.04 z"/>
<path transform="translate(0,0)" fill="rgb(227,124,112)" d="M 769.45 1108.71 C 788.899 1112.84 823.821 1118.05 843.59 1119.56 C 839.039 1123.05 807.615 1174.38 804.456 1181.69 L 803.689 1183.43 C 803.543 1183.78 803.397 1184.14 803.251 1184.49 C 799.191 1188.3 768.632 1236.52 765.32 1243.81 C 752.228 1272.65 741.108 1302.27 726.278 1331.01 C 730.771 1335.72 737.397 1342.29 741.335 1347.18 C 744.062 1351.2 745.192 1353.01 748.505 1356.46 C 752.154 1362.24 757.137 1370.04 758.938 1376.54 C 767.117 1406.05 766.555 1442.83 769.412 1473.17 C 769.832 1481.6 770.074 1490.72 771.292 1499.01 C 771.506 1500.76 772.931 1509.16 772.937 1509.91 C 771.123 1514.56 775.328 1582.73 777.089 1590.57 C 776.743 1606.34 779.088 1623.49 779.176 1639.49 C 791.3 1652.08 795.929 1665.91 798.142 1683.14 C 799.531 1693.96 802.4 1741.45 796.487 1748.64 L 794.159 1749.3 C 788.831 1745.58 785.185 1711.57 782.858 1702.7 C 774.811 1717.36 765.424 1732.15 756.615 1746.22 C 750.108 1756.61 743.552 1763.21 731.549 1766.04 C 691.554 1778.62 569.273 1796.96 666.228 1730.35 C 670.982 1726.4 674.819 1722.5 679.194 1718.16 C 686.036 1721.73 698.688 1730.63 705.643 1735.17 C 718.373 1726.01 737.688 1704.18 746.779 1691.21 C 751.028 1685.15 757.68 1652.21 757.274 1644.19 C 755.802 1615.1 752.594 1585.39 749.629 1556.37 C 745.536 1515.32 740.658 1474.35 734.997 1433.48 C 733.067 1419.97 728.233 1380.26 721.739 1369.64 C 711.948 1353.63 699.352 1334.53 689.486 1317.8 C 716.679 1248.96 743.116 1177.98 769.45 1108.71 z"/>
<path transform="translate(0,0)" fill="rgb(251,251,251)" d="M 779.176 1639.49 C 791.3 1652.08 795.929 1665.91 798.142 1683.14 C 799.531 1693.96 802.4 1741.45 796.487 1748.64 L 794.159 1749.3 C 788.831 1745.58 785.185 1711.57 782.858 1702.7 C 774.811 1717.36 765.424 1732.15 756.615 1746.22 C 750.108 1756.61 743.552 1763.21 731.549 1766.04 C 691.554 1778.62 569.273 1796.96 666.228 1730.35 C 675.054 1740.63 687.82 1755.55 702.661 1750.28 C 724.735 1742.45 755.584 1705.89 763.81 1684.65 C 770.387 1667.67 769.563 1657.1 779.176 1639.49 z"/>
<path transform="translate(0,0)" fill="rgb(232,158,130)" d="M 1105.93 208.077 C 1111.55 207.992 1117.59 207.746 1123.17 208.125 C 1128.97 212.7 1130.92 215.531 1135.46 221.331 C 1139.7 217.652 1144.04 213.3 1149.31 211.361 C 1173.17 202.567 1192.71 216.346 1195.98 240.526 C 1216.34 245.552 1225.25 256.722 1218.37 278.737 C 1211.54 300.56 1200.72 312.141 1178.31 317.889 C 1175.79 327.687 1171.45 353.315 1168.87 360.152 L 1167.12 366.054 C 1166.87 371.115 1166.83 372.147 1165.28 376.935 C 1171.11 379.358 1171.1 378.299 1174.96 382.935 L 1175.08 385.339 C 1170.62 389.92 1163.21 391.352 1161.71 394.77 C 1158 413.775 1155.2 423.757 1140.85 438.187 C 1130.59 448.503 1119.72 465.14 1103.21 458.3 L 1104.31 465.58 L 1104.6 467.813 C 1108.95 472.704 1125.48 489.66 1127.2 494.327 C 1127.63 498.843 1128.42 498.625 1126.43 501.346 C 1119.22 503.745 1111.95 502.135 1103.93 501.957 C 1094.62 501.519 1086.12 501.099 1076.78 501.26 C 1066.81 483.424 1062.14 485.373 1044.83 475.232 C 1036.26 470.217 1034.79 470.059 1032.21 461.14 L 1032.32 459.623 C 1035.32 449.246 1032.86 438.621 1031.59 427.794 C 1030.96 421.982 1031.3 418.647 1031.69 412.908 C 1033.25 394.147 1039.84 378.682 1038.36 357.813 C 1037.98 350.518 1036.05 344.869 1035.77 337.285 C 1033.83 334.153 1030.72 326.333 1028.88 322.518 C 1021.46 307.209 1014.81 299.079 1002.85 287.428 C 1004.34 243.33 1010.03 217.626 1062.88 227.625 C 1068.54 223.572 1071.69 221.05 1078.1 218.307 C 1083.27 219.121 1088.34 219.895 1093.48 220.92 C 1097.45 216.347 1101.08 211.628 1105.93 208.077 z"/>
<path transform="translate(0,0)" fill="url(#Gradient2)" d="M 1105.93 208.077 C 1111.55 207.992 1117.59 207.746 1123.17 208.125 C 1128.97 212.7 1130.92 215.531 1135.46 221.331 C 1139.7 217.652 1144.04 213.3 1149.31 211.361 C 1173.17 202.567 1192.71 216.346 1195.98 240.526 C 1216.34 245.552 1225.25 256.722 1218.37 278.737 C 1211.54 300.56 1200.72 312.141 1178.31 317.889 C 1166.48 312.831 1161.79 313.186 1160.5 299.357 L 1158.66 297.407 C 1151.84 298.566 1147.91 302.652 1140.68 299.624 C 1132.95 296.39 1136.79 289.972 1132.33 285.774 C 1127.24 286.17 1115.94 299.697 1101.95 290.183 C 1097.61 287.231 1096.44 281.495 1090.23 278.159 C 1081.39 279.49 1080.9 289.523 1065.03 278.895 C 1060.84 296.492 1056.35 305.673 1039.3 314.182 C 1038.53 322.825 1037.44 328.715 1035.77 337.285 C 1033.83 334.153 1030.72 326.333 1028.88 322.518 C 1021.46 307.209 1014.81 299.079 1002.85 287.428 C 1004.34 243.33 1010.03 217.626 1062.88 227.625 C 1068.54 223.572 1071.69 221.05 1078.1 218.307 C 1083.27 219.121 1088.34 219.895 1093.48 220.92 C 1097.45 216.347 1101.08 211.628 1105.93 208.077 z"/>
<path transform="translate(0,0)" fill="rgb(232,158,130)" d="M 1031.59 427.794 C 1050.77 438.437 1084.51 457.443 1104.31 465.58 L 1104.6 467.813 C 1108.95 472.704 1125.48 489.66 1127.2 494.327 C 1127.63 498.843 1128.42 498.625 1126.43 501.346 C 1119.22 503.745 1111.95 502.135 1103.93 501.957 C 1094.62 501.519 1086.12 501.099 1076.78 501.26 C 1066.81 483.424 1062.14 485.373 1044.83 475.232 C 1036.26 470.217 1034.79 470.059 1032.21 461.14 L 1032.32 459.623 C 1035.32 449.246 1032.86 438.621 1031.59 427.794 z"/>
<path transform="translate(0,0)" fill="rgb(231,231,231)" d="M 1104.6 467.813 C 1108.95 472.704 1125.48 489.66 1127.2 494.327 C 1127.63 498.843 1128.42 498.625 1126.43 501.346 C 1119.22 503.745 1111.95 502.135 1103.93 501.957 C 1104.99 489.884 1104.6 479.853 1104.6 467.813 z"/>
<path transform="translate(0,0)" fill="rgb(227,124,112)" d="M 1031.69 412.908 C 1046.5 425.828 1066.25 436.734 1083.02 447.09 C 1086.25 449.085 1102.06 456.977 1103.21 458.3 L 1104.31 465.58 C 1084.51 457.443 1050.77 438.437 1031.59 427.794 C 1030.96 421.982 1031.3 418.647 1031.69 412.908 z"/>
<path transform="translate(0,0)" fill="rgb(227,124,112)" d="M 1161.71 394.77 L 1160.36 393.407 C 1154.87 393.629 1150.4 393.84 1146.1 390.02 L 1146.01 387.885 C 1151.8 379.754 1160.72 381.804 1165.28 376.935 C 1171.11 379.358 1171.1 378.299 1174.96 382.935 L 1175.08 385.339 C 1170.62 389.92 1163.21 391.352 1161.71 394.77 z"/>
<path transform="translate(0,0)" fill="rgb(51,39,42)" d="M 1137.82 346.99 C 1149.16 358.102 1153.61 360.171 1168.87 360.152 L 1167.12 366.054 C 1150.07 370.816 1143.97 360.769 1137.82 346.99 z"/>
<path transform="translate(0,0)" fill="rgb(227,124,112)" d="M 1057.44 364.159 C 1068.3 363.19 1092.09 366.709 1094.85 379.233 C 1093.67 383.757 1094.76 381.76 1091.03 385.183 C 1080.13 387.142 1045.5 379.367 1057.44 364.159 z"/>
<path transform="translate(0,0)" fill="rgb(75,15,44)" d="M 1082.33 306.168 C 1090.6 305.214 1100.79 306.118 1101.59 316.518 C 1097.42 323.993 1088.92 320.617 1082.21 319.115 L 1057.72 314.165 C 1066.3 310.403 1073.27 308.197 1082.33 306.168 z"/>
<path transform="translate(0,0)" fill="rgb(205,92,91)" d="M 1125.24 346.226 C 1126.9 368.08 1126.72 374.321 1134.38 394.343 C 1125.96 394.625 1117.34 395.644 1110.85 389.587 L 1105.79 382.714 C 1113.34 382.874 1118.17 382.526 1125.73 381.846 C 1122.18 367.38 1122.94 360.76 1125.24 346.226 z"/>
<path transform="translate(0,0)" fill="rgb(227,124,112)" d="M 1125.73 381.846 L 1128.36 390.381 C 1123.85 389.953 1114.79 388.729 1110.85 389.587 L 1105.79 382.714 C 1113.34 382.874 1118.17 382.526 1125.73 381.846 z"/>
<path transform="translate(0,0)" fill="url(#Gradient1)" d="M 1066.32 335.693 C 1079.45 346.831 1085.21 349.132 1101.68 345.226 L 1102.66 345.905 L 1101.33 348.171 C 1085.54 359.076 1071.76 354.212 1066.32 335.693 z"/>
<path transform="translate(0,0)" fill="rgb(75,15,44)" d="M 1148.66 327.744 C 1156.13 327.801 1165.98 334.525 1167.01 341.576 L 1164.72 341.747 C 1158.5 340.562 1145.41 339.973 1142.69 334.724 C 1143.56 331.367 1145.9 330.054 1148.66 327.744 z"/>
<path transform="translate(0,0)" fill="rgb(125,80,65)" d="M 1095.66 420.945 C 1103.49 422.595 1107.78 421.844 1112.35 422.751 C 1104.59 426.092 1102.57 425.54 1095.66 420.945 z"/>
<path transform="translate(0,0)" fill="rgb(233,185,103)" d="M 261.003 1241.88 C 271.719 1241.28 284.141 1242.03 294.964 1242.4 C 340.827 1243.99 388.611 1246.45 433.265 1257.6 C 505.316 1275.59 569.952 1316.06 633.837 1352.65 C 636.447 1357.54 640.758 1366.21 639.232 1371.74 C 573.748 1359.39 512.599 1346.04 450.583 1320.54 C 440.547 1316.41 411.25 1305.12 401.194 1307.39 C 398.526 1309.46 399.303 1308.14 398.792 1311.48 C 400.119 1316.43 406.78 1319.59 411.388 1322.08 C 481.437 1359.99 567.025 1380.15 645.529 1387.52 L 648.481 1395.57 C 625.7 1397.12 595.254 1405.96 567.839 1407.89 C 535.614 1410.41 503.194 1407.7 471.834 1399.87 C 391.643 1379.68 354.741 1333.33 300.074 1277.52 C 288.048 1265.24 274.017 1253.2 261.003 1241.88 z"/>
<path transform="translate(0,0)" fill="rgb(251,251,251)" d="M 917.293 1649.32 C 940.578 1655.85 966.374 1656.47 990.299 1653.89 C 991.913 1662.9 998.277 1701.06 1000.99 1707.16 C 1004.77 1713.13 1007.78 1746.74 1008.32 1755.05 L 1008.64 1774.88 L 810.979 1776.63 C 810.926 1771.92 811.076 1760.7 810.502 1756.56 C 813.763 1744.14 836.724 1738.2 848.225 1732.51 C 844.554 1729.53 844.123 1728.15 843.089 1723.83 C 845.292 1716.64 858.701 1722.91 864.131 1724.79 C 862.623 1720.92 862.521 1720.87 862.073 1716.8 C 865.399 1710.04 874.821 1715.09 880.832 1717.07 L 881.001 1715.95 C 878.452 1712.78 877.942 1712.42 876.691 1708.66 C 877.296 1704.77 876.419 1706.28 879.046 1703.78 C 885.028 1702.09 887.882 1703.87 893.615 1706.5 C 902.024 1693.43 913.222 1672.54 926.904 1693.89 C 926.384 1686.5 919.308 1657.29 917.293 1649.32 z"/>
<path transform="translate(0,0)" fill="rgb(232,158,130)" d="M 917.293 1649.32 C 940.578 1655.85 966.374 1656.47 990.299 1653.89 C 991.913 1662.9 998.277 1701.06 1000.99 1707.16 C 981.755 1711.86 962.541 1716.65 943.352 1721.55 C 938.161 1712.24 932.081 1703.29 926.904 1693.89 C 926.384 1686.5 919.308 1657.29 917.293 1649.32 z"/>
<path transform="translate(0,0)" fill="rgb(231,231,231)" d="M 1008.32 1755.05 L 1008.64 1774.88 L 810.979 1776.63 C 810.926 1771.92 811.076 1760.7 810.502 1756.56 C 875.425 1757.36 942.838 1754.9 1008.32 1755.05 z"/>
<path transform="translate(0,0)" fill="rgb(231,231,231)" d="M 848.225 1732.51 C 844.554 1729.53 844.123 1728.15 843.089 1723.83 C 845.292 1716.64 858.701 1722.91 864.131 1724.79 C 862.623 1720.92 862.521 1720.87 862.073 1716.8 C 865.399 1710.04 874.821 1715.09 880.832 1717.07 C 884.735 1723.99 890.499 1723.14 891.782 1732.37 C 887.581 1738.49 867.99 1726.19 862.639 1723.57 C 866.178 1727.33 875.748 1735.32 870.55 1740.12 C 860.217 1740.76 856.499 1735.72 848.225 1732.51 z"/>
<path transform="translate(0,0)" fill="rgb(231,231,231)" d="M 881.001 1715.95 C 878.452 1712.78 877.942 1712.42 876.691 1708.66 C 877.296 1704.77 876.419 1706.28 879.046 1703.78 C 885.028 1702.09 887.882 1703.87 893.615 1706.5 C 900.002 1711.42 904.045 1713.2 906.234 1720.77 L 905.67 1723.02 C 897.131 1726.19 887.413 1716.05 881.001 1715.95 z"/>
<path transform="translate(0,0)" fill="rgb(233,185,103)" d="M 415.117 1470.11 C 466.386 1464.86 513.26 1455.11 565.333 1463.74 C 605.931 1470.46 640.984 1484.55 679.066 1499.33 C 681.206 1503.72 682.416 1505.27 682.548 1509.98 L 681.186 1511.67 C 652.675 1507.16 624.21 1502.37 595.795 1497.29 C 586.583 1495.69 550.044 1487.57 544.468 1491.79 C 543.888 1497.87 557.306 1500.64 561.974 1502.25 C 602.759 1516.31 644.887 1523.4 687.662 1528.06 C 690.303 1534.04 691.698 1538.8 692.615 1545.32 C 684.756 1547.98 676.848 1550.47 668.893 1552.82 C 644.273 1560.02 618.524 1562.54 592.974 1560.27 C 514.423 1553.19 480.337 1505.96 415.117 1470.11 z"/>
<path transform="translate(0,0)" fill="rgb(232,158,130)" d="M 1266.11 732.981 C 1287.21 744.95 1311.6 756.688 1331.87 768.912 C 1349.58 744.095 1355.57 747.508 1383.07 743.733 C 1391.55 742.57 1405.05 730.659 1416.08 737.811 C 1420.21 748.253 1393.93 762.148 1385.74 765.336 C 1399.57 772.05 1446.73 794.927 1456.02 805.004 C 1457.16 808.943 1455.46 810.609 1452.45 813.247 C 1446.36 814.158 1405.08 799.481 1394.36 796.855 C 1403.34 803.269 1436.27 823.531 1437.78 831.496 L 1436.79 834.495 L 1431.67 839.073 L 1426.22 844.415 L 1423.71 850.335 C 1422.33 852.182 1422.1 852.269 1420.41 853.874 C 1408.99 856.659 1374.16 840.966 1361.98 836.773 C 1348.61 832.168 1338.09 826.523 1329.72 814.999 C 1306.72 805.875 1278.32 795.84 1254.77 788.03 C 1258.8 785.315 1262.82 782.563 1266.8 779.774 C 1268.81 769.128 1268.66 756.779 1267.76 746.038 C 1267.38 741.445 1266.18 737.903 1266.11 732.981 z"/>
<path transform="translate(0,0)" fill="rgb(174,52,51)" d="M 1399.13 817.233 C 1412.12 821.6 1424.56 828.274 1436.79 834.495 L 1431.67 839.073 C 1417.71 832.314 1411.26 826.766 1399.13 817.233 z"/>
<path transform="translate(0,0)" fill="rgb(174,52,51)" d="M 1399.09 834.671 C 1409.17 837.601 1416.67 840.196 1426.22 844.415 L 1423.71 850.335 C 1415.12 846.48 1406.62 840.229 1399.09 834.671 z"/>
<path transform="translate(0,0)" fill="rgb(233,185,103)" d="M 833.692 1456.74 C 837.715 1463.25 842.295 1486.97 844.95 1496.02 C 822.167 1505.5 801.575 1510.23 778.581 1517.77 C 787.726 1538.86 868.818 1694.48 867.511 1704.77 C 865.963 1707.15 864.895 1708.35 861.883 1708.89 C 858.365 1709.53 853.561 1708.94 850.663 1706.76 C 838.222 1697.39 787.127 1609.13 777.089 1590.57 C 775.328 1582.73 771.123 1514.56 772.937 1509.91 L 775.428 1512.57 C 788.289 1513.23 826.446 1469.12 833.692 1456.74 z"/>
<path transform="translate(0,0)" fill="rgb(233,185,103)" d="M 815.099 1382.14 C 817.14 1389.39 826.272 1419.21 825.405 1425.14 C 809.23 1466.3 802.071 1469.49 771.292 1499.01 C 770.074 1490.72 769.832 1481.6 769.412 1473.17 C 780.676 1439.22 792.885 1410.55 815.099 1382.14 z"/>
<path transform="translate(0,0)" fill="rgb(60,116,127)" d="M 1170.86 1558.75 C 1173.58 1562.44 1177.01 1568.44 1178.65 1572.78 C 1177.8 1580.19 1149.36 1647.39 1145.07 1658.68 C 1139.44 1673.27 1134 1687.93 1128.74 1702.66 C 1125.04 1713.15 1120.71 1727.09 1116.26 1736.89 C 1111.33 1736.99 1105.97 1736.9 1101.01 1736.89 C 1110.74 1703.68 1124.05 1669.72 1137.12 1637.76 C 1147.84 1611.52 1158.76 1584.37 1170.86 1558.75 z"/>
</svg>