<svg version="1.1" xmlns="http://www.w3.org/2000/svg" style="display: block;" viewBox="0 0 2048 1280" width="2000" height="1250" preserveAspectRatio="none">
<path transform="translate(0,0)" fill="rgb(255,255,255)" d="M 0 0 L 2048 0 L 2048 1280 L 0 1280 L 0 0 z"/>
<path transform="translate(0,0)" fill="rgb(221,232,253)" d="M 397.043 567.078 C 401.237 566.038 430.104 549.629 435.918 546.405 C 468.813 528.348 499.976 507.301 529.012 483.531 C 640.121 392.863 716.608 282.525 850.428 218.263 C 961.125 164.997 1086.33 149.814 1206.55 175.079 C 1322.37 200.015 1425.08 262.167 1532.47 309.288 C 1576.21 328.479 1624.23 338.022 1668.99 353.756 C 1691.68 329.767 1731.85 327.831 1756.6 350.37 C 1769.69 362.291 1773.79 381.728 1774.11 398.915 C 1832.1 438.167 1868.34 487.108 1881.83 556.711 C 1899.71 648.929 1873.33 739.029 1840.05 824.235 C 1828.71 853.271 1816.89 882.442 1803.62 910.657 C 1796.61 925.546 1769.66 976.496 1768.16 989.55 L 1768.12 1013.82 C 1784.22 1015.07 1874.58 1023.4 1876.62 1037.87 C 1869.24 1051.45 1793.43 1058.36 1775.6 1060.21 C 1715.63 1066.09 1655.52 1070.42 1595.33 1073.2 C 1364.96 1083.62 1134.34 1087.62 903.748 1085.19 C 829.131 1084.62 173.669 1077.64 161.697 1037.1 C 162.206 1035.74 162.631 1034.75 163.753 1033.77 C 178.771 1020.64 303.217 1008.81 328.891 1009.05 L 329.915 1008.17 C 330.142 1005.85 326.172 1005.05 323.706 1003.97 C 276.262 982.811 237.854 951.754 215.635 904.624 C 161.985 790.821 204.923 679.476 310.398 616.539 C 335.951 601.291 359.81 586.381 387.043 573.196 L 387.024 760.079 L 397.095 760.017 L 396.93 759.222 C 397.658 736.407 397.179 711.515 397.18 688.58 L 397.043 567.078 z"/>
<path transform="translate(0,0)" fill="rgb(190,210,248)" d="M 1668.99 353.756 C 1691.68 329.767 1731.85 327.831 1756.6 350.37 C 1769.69 362.291 1773.79 381.728 1774.11 398.915 C 1832.1 438.167 1868.34 487.108 1881.83 556.711 C 1899.71 648.929 1873.33 739.029 1840.05 824.235 C 1828.71 853.271 1816.89 882.442 1803.62 910.657 C 1796.61 925.546 1769.66 976.496 1768.16 989.55 L 1768.12 1013.82 C 1764.08 1017.45 1667.51 1017.28 1663.58 1014.73 C 1661.36 1011.71 1661.92 1008.86 1661.97 1004.95 L 1661.91 932.059 L 1713.43 932.074 L 1713.35 837.76 C 1690.24 835.569 1654.37 833.35 1635.32 820.207 C 1618.55 808.638 1611.48 789.37 1607.66 769.818 C 1601.74 739.427 1613.06 713.357 1626.13 686.684 C 1650.15 640.988 1628.22 596.953 1630.01 548.946 C 1631.18 517.586 1650.56 490.901 1657.15 460.454 C 1664.98 424.263 1645.3 386.397 1668.99 353.756 z"/>
<path transform="translate(0,0)" fill="rgb(221,232,253)" d="M 1774.11 398.915 C 1832.1 438.167 1868.34 487.108 1881.83 556.711 C 1899.71 648.929 1873.33 739.029 1840.05 824.235 C 1828.71 853.271 1816.89 882.442 1803.62 910.657 C 1796.61 925.546 1769.66 976.496 1768.16 989.55 L 1768.2 932.054 L 1718.98 932.063 L 1719.02 838.587 C 1747.49 839.257 1770.63 838.764 1794.4 819.066 C 1826.77 792.244 1834.34 734.811 1817.97 697.608 C 1808.46 675.99 1789.7 657.77 1785.11 632.171 C 1780.04 603.92 1795.41 582.43 1794.43 555.47 C 1793.52 530.441 1769 509.253 1765.58 484.078 C 1761.64 455.16 1771.9 428.987 1774.11 398.915 z"/>
<path transform="translate(0,0)" fill="rgb(145,183,246)" d="M 1713.25 710.054 C 1713.27 688.88 1711.41 549.487 1714.65 542.162 L 1716.34 541.695 C 1721.13 545.18 1719.17 563.933 1719.13 570.502 L 1719.05 619.494 L 1719.05 785.348 C 1730.46 769.121 1742.09 753.045 1752.62 736.244 C 1753.95 734.115 1757.13 732.163 1759.42 731.282 L 1761.34 731.723 C 1761.09 737.567 1725.12 786.186 1719.51 793.861 C 1718.54 807.551 1719.01 824.639 1719.02 838.587 L 1718.98 932.063 L 1768.2 932.054 L 1768.16 989.55 L 1768.12 1013.82 C 1764.08 1017.45 1667.51 1017.28 1663.58 1014.73 C 1661.36 1011.71 1661.92 1008.86 1661.97 1004.95 L 1661.91 932.059 L 1713.43 932.074 L 1713.35 837.76 C 1713.32 816.707 1715.83 733.356 1711.53 720.735 C 1706.85 706.956 1670.25 633.721 1670.29 628.547 C 1670.3 627.758 1670.75 627.037 1670.98 626.282 L 1672.36 625.696 C 1677.88 629.243 1707.2 697.775 1713.25 710.054 z"/>
<path transform="translate(0,0)" fill="rgb(190,210,248)" d="M 1619.06 979.559 C 1624.13 984.516 1633.69 992.707 1635.16 999.486 L 1634.39 1002.6 C 1637.6 1004.98 1656.62 1005 1661.97 1004.95 C 1661.92 1008.86 1661.36 1011.71 1663.58 1014.73 C 1667.51 1017.28 1764.08 1017.45 1768.12 1013.82 C 1784.22 1015.07 1874.58 1023.4 1876.62 1037.87 C 1869.24 1051.45 1793.43 1058.36 1775.6 1060.21 C 1715.63 1066.09 1655.52 1070.42 1595.33 1073.2 C 1364.96 1083.62 1134.34 1087.62 903.748 1085.19 C 829.131 1084.62 173.669 1077.64 161.697 1037.1 C 162.206 1035.74 162.631 1034.75 163.753 1033.77 C 178.771 1020.64 303.217 1008.81 328.891 1009.05 C 331.299 1008.99 336.28 1008.04 338.917 1007.62 L 339.005 1022.77 C 396.87 1023.47 457.035 1023.13 514.955 1022.69 L 514.975 998.213 C 567.046 997.369 622.249 994.601 674.972 993.173 C 674.495 1001.49 671.749 1015.92 674.906 1021.85 C 678.571 1023.94 679.057 1023.16 683.948 1023.11 L 704.247 1023.11 L 715.121 1022.99 C 716.662 1012.22 718.258 999.716 720.431 989.196 C 720.684 990.143 720.692 991.104 721.456 991.279 C 728.11 992.801 765.412 991.7 770.3 990.157 L 771.528 986.995 C 772.179 994.965 772.873 1024.78 775.783 1029.64 C 777.193 1030.06 778.135 1030.42 779.604 1030.63 C 787.182 1029.77 794.671 1030.06 802.294 1030.16 L 816.175 1030.11 C 816.089 1016.96 816.52 1003.23 816.741 990.04 C 842.244 990.119 867.747 989.937 893.247 989.492 C 901.119 989.377 929.166 988.563 935.013 989.73 L 935.805 989.907 C 941.098 993.662 943.703 994.905 949.947 996.954 C 952.054 995.762 954.785 992.7 956.585 990.867 L 963.614 994.861 L 972.098 987.71 C 976.785 990.136 1071.98 988.85 1085.37 989.143 L 1082.64 1029.06 C 1088.73 1029.11 1097.21 1028.91 1103.03 1029.89 L 1107.59 1029.9 C 1110 1030.06 1110.83 1030.3 1113.1 1029.36 C 1118.15 1022.66 1121.73 998.826 1123.52 989.267 C 1142.46 989.565 1364.59 993.394 1367.52 992.216 L 1368.68 1001.8 C 1372.23 1002.88 1377.72 1004.74 1381.16 1005.55 C 1389.88 1007.55 1396.08 1008.2 1405.08 1007.91 C 1406.94 1007.62 1408.08 1007.22 1409.84 1006.68 C 1412.22 1003.71 1411.82 998.527 1411.93 994.51 C 1470 994.876 1534.54 998.537 1592.89 1001.3 C 1594.42 998.488 1596.55 995.103 1598.22 992.301 C 1608.48 990.227 1612.16 987.355 1619.06 979.559 z"/>
<path transform="translate(0,0)" fill="rgb(2,0,88)" d="M 1619.06 979.559 C 1624.13 984.516 1633.69 992.707 1635.16 999.486 L 1634.39 1002.6 C 1622.84 1006.47 1594.45 1042.82 1582.54 1038.79 C 1577.16 1030.67 1589.02 1009.19 1592.89 1001.3 C 1594.42 998.488 1596.55 995.103 1598.22 992.301 C 1608.48 990.227 1612.16 987.355 1619.06 979.559 z"/>
<path transform="translate(0,0)" fill="rgb(2,0,88)" d="M 1380.7 1031.65 C 1389.05 1037.08 1394.78 1037.34 1404.62 1035.86 C 1405.14 1042.03 1407.44 1057.22 1403.35 1061.48 C 1392.3 1062.68 1348.26 1064.06 1339.3 1058.86 C 1337.35 1055.82 1337.59 1057.18 1338.22 1053.94 C 1344.3 1045.19 1370.39 1035.22 1380.7 1031.65 z"/>
<path transform="translate(0,0)" fill="rgb(1,1,49)" d="M 779.604 1030.63 C 787.182 1029.77 794.671 1030.06 802.294 1030.16 C 809.687 1036.03 814.326 1038.83 823.234 1042.65 C 826.3 1043.95 829.357 1045.26 832.408 1046.59 C 837.667 1048.89 844.162 1050.94 846.261 1056.3 C 840.179 1065.07 794.287 1060.2 784.467 1057.53 C 782.394 1050.97 781.621 1046.4 780.424 1039.7 C 780.184 1038.51 779.739 1032.16 779.604 1030.63 z"/>
<path transform="translate(0,0)" fill="rgb(254,146,144)" d="M 779.604 1030.63 C 787.182 1029.77 794.671 1030.06 802.294 1030.16 C 809.687 1036.03 814.326 1038.83 823.234 1042.65 C 811.158 1053.8 793.719 1043.98 780.424 1039.7 C 780.184 1038.51 779.739 1032.16 779.604 1030.63 z"/>
<path transform="translate(0,0)" fill="rgb(1,1,49)" d="M 659.633 1042.71 C 672.825 1053.26 688.834 1045 702.47 1039.05 C 701.277 1046.69 700.785 1050.24 698.208 1057.64 C 689.471 1059.85 640.838 1065.51 637.457 1056.07 C 640.376 1049.73 653.158 1045.44 659.633 1042.71 z"/>
<path transform="translate(0,0)" fill="rgb(1,1,49)" d="M 1105.57 1038.59 C 1115.24 1041.01 1131.83 1048.34 1137.26 1056.95 C 1119.85 1056.77 1102.44 1056.76 1085.03 1056.94 C 1084.74 1051.83 1085.56 1042.41 1089.08 1038.75 C 1096.03 1039.26 1098.69 1039.37 1105.57 1038.59 z"/>
<path transform="translate(0,0)" fill="rgb(1,1,49)" d="M 935.013 989.73 L 935.805 989.907 C 941.098 993.662 943.703 994.905 949.947 996.954 C 956.849 1000.68 970.659 1018.81 970.99 1026.54 C 958.552 1021.81 936.747 1010.72 923.935 1004.73 C 926.834 998.823 930.091 994.113 935.013 989.73 z"/>
<path transform="translate(0,0)" fill="rgb(254,146,144)" d="M 1381.16 1005.55 C 1389.88 1007.55 1396.08 1008.2 1405.08 1007.91 C 1405 1011.58 1404.2 1033.84 1404.62 1035.86 C 1394.78 1037.34 1389.05 1037.08 1380.7 1031.65 C 1381.23 1024.47 1381.03 1013.07 1381.16 1005.55 z"/>
<path transform="translate(0,0)" fill="rgb(254,146,144)" d="M 683.948 1023.11 L 704.247 1023.11 L 702.47 1039.05 C 688.834 1045 672.825 1053.26 659.633 1042.71 C 672.009 1036.83 678.228 1035.5 683.948 1023.11 z"/>
<path transform="translate(0,0)" fill="rgb(255,255,255)" d="M 923.935 1004.73 C 936.747 1010.72 958.552 1021.81 970.99 1026.54 C 970.587 1028.5 970.921 1027.55 969.359 1029.22 C 960.952 1029.67 931.912 1015.84 924.105 1010.11 C 922.73 1009.1 923.682 1006.18 923.935 1004.73 z"/>
<path transform="translate(0,0)" fill="rgb(255,255,255)" d="M 1085.03 1056.94 C 1102.44 1056.76 1119.85 1056.77 1137.26 1056.95 C 1137.13 1057.67 1136.56 1059.04 1136.3 1059.71 C 1129.59 1062.8 1097.01 1063.06 1088.46 1062.72 C 1085.64 1060.94 1086.27 1060.67 1085.03 1056.94 z"/>
<path transform="translate(0,0)" fill="rgb(255,255,255)" d="M 1103.03 1029.89 L 1107.59 1029.9 C 1107.16 1032.73 1106.91 1036.19 1105.57 1038.59 C 1098.69 1039.37 1096.03 1039.26 1089.08 1038.75 C 1088.03 1036.27 1088 1033.87 1089.37 1031.56 C 1092.96 1029.6 1098.61 1030.04 1103.03 1029.89 z"/>
<path transform="translate(0,0)" fill="rgb(65,79,242)" d="M 1457.96 495.65 C 1486.88 491.614 1529.26 513.565 1548.5 533.952 C 1589.78 577.671 1622.12 639.543 1553.78 677.096 L 1553.86 753.494 C 1548.94 754.512 1542.04 755.141 1538.59 758.243 C 1537.4 760.656 1537.69 761.901 1537.73 764.684 C 1537.39 761.656 1537.7 759.684 1536.03 757.629 L 1531.57 758.451 C 1528.34 755.772 1523.77 747.809 1521.3 743.912 L 1513.46 759.277 C 1456.76 764.416 1437.48 765.447 1384.06 746.424 L 1376.93 743.48 C 1384.51 720.419 1387.18 691.157 1391.5 667.111 C 1387.62 660.393 1386.02 657.452 1385.73 649.732 C 1371.26 662.37 1330.17 690.804 1312 692.931 L 1309.78 691.53 C 1307.77 688.071 1299.84 678.307 1297.02 674.703 L 1291.3 667.318 C 1314.01 644.291 1334.87 615.581 1352.65 588.737 C 1367.87 565.767 1396.39 503.543 1429.21 503.963 C 1437.39 508.263 1456.48 506.011 1457.96 495.65 z"/>
<path transform="translate(0,0)" fill="rgb(254,115,105)" d="M 1463.35 527.735 L 1464.29 530.837 C 1474.21 535.284 1488.47 517.804 1496.51 521.413 C 1500.78 530.072 1492.97 547.943 1489.28 556.491 C 1490 560.831 1490.61 567.815 1493.1 571.057 C 1498.2 573.945 1500.41 572.444 1506.56 570.752 L 1507.07 569.713 C 1509.99 567.486 1512.64 564.998 1516.25 564.55 L 1518.69 565.196 C 1522.7 574.347 1506.14 581.172 1499.7 583.376 C 1506.81 586.479 1509 587.246 1516.6 589.12 C 1520.25 587.839 1523.55 586.185 1527.19 587.398 L 1529.08 589.187 C 1528.8 594.811 1526.47 595.872 1522.26 599.248 C 1505.15 601.155 1479.62 601.838 1463.54 607.205 C 1459.83 607.796 1457.56 607.92 1454.25 609.845 L 1443.27 598.461 C 1454.08 592.787 1460.29 586.804 1468.21 577.878 C 1464.36 569.408 1457.3 558.539 1451.57 551.125 C 1455.1 550.839 1459.73 548.887 1460.86 545.327 C 1458.13 542.455 1458.18 543.206 1453.68 542.146 L 1458.28 535.819 C 1463.39 533.127 1462.72 532.984 1463.35 527.735 z"/>
<path transform="translate(0,0)" fill="rgb(254,115,105)" d="M 1389.31 619.019 C 1375.97 610.413 1360.89 602.204 1366.36 582.601 C 1367.36 579.005 1366.95 578.738 1370.11 577.018 C 1378.29 581.973 1378.4 605.461 1389.17 609.649 C 1392.77 608.538 1401.44 602.182 1407.22 599.392 L 1404.66 597.051 L 1404.8 595.453 C 1409.56 592.685 1424.66 596.487 1431.12 597.627 C 1429.54 594.085 1428.09 591.584 1428.2 587.66 L 1429.41 586.704 C 1434.09 588.879 1439.25 594.698 1443.27 598.461 L 1454.25 609.845 C 1453.53 613.543 1451.9 623.005 1450.85 626.167 C 1451.38 627.554 1451.42 628.507 1452.41 629.044 L 1454.34 633.142 C 1448.84 634.687 1421.74 637.727 1421.03 638.196 L 1420.81 638.722 C 1415.68 637.183 1410.4 643.251 1405.93 646.102 C 1393.3 654.203 1403.48 659.569 1398.17 667.036 C 1394.59 668.276 1395.94 667.961 1391.5 667.111 C 1387.62 660.393 1386.02 657.452 1385.73 649.732 L 1386.15 649.022 C 1393.26 636.759 1392.78 632.223 1389.31 619.019 z"/>
<path transform="translate(0,0)" fill="rgb(254,146,144)" d="M 1431.12 597.627 C 1429.54 594.085 1428.09 591.584 1428.2 587.66 L 1429.41 586.704 C 1434.09 588.879 1439.25 594.698 1443.27 598.461 L 1454.25 609.845 C 1453.53 613.543 1451.9 623.005 1450.85 626.167 C 1440.62 622.869 1415.04 627.752 1406.95 618.256 C 1408.15 616.096 1408.32 616.66 1411.43 615.538 C 1407.73 612.787 1404.86 613.391 1403.04 609.992 L 1404.2 608.435 C 1406.62 608.446 1409.05 608.52 1411.47 608.656 L 1411.92 608.066 L 1404.69 604.687 L 1404.51 603.307 C 1408.1 600.705 1407.04 601.46 1411.88 601.02 L 1409.83 600.608 L 1409.66 599.769 L 1407.22 599.392 L 1404.66 597.051 L 1404.8 595.453 C 1409.56 592.685 1424.66 596.487 1431.12 597.627 z"/>
<path transform="translate(0,0)" fill="rgb(243,88,84)" d="M 1453.68 542.146 C 1458.18 543.206 1458.13 542.455 1460.86 545.327 C 1459.73 548.887 1455.1 550.839 1451.57 551.125 C 1446.68 557.767 1443.24 576.525 1431.17 569.422 C 1424.38 557.482 1445.71 546.266 1453.68 542.146 z"/>
<path transform="translate(0,0)" fill="rgb(243,88,84)" d="M 1405.93 646.102 C 1410.4 643.251 1415.68 637.183 1420.81 638.722 L 1416.19 651.428 C 1417.92 654.966 1419.53 657.129 1418.74 660.834 L 1417.07 662.45 C 1408.22 661.713 1406.9 653.262 1405.93 646.102 z"/>
<path transform="translate(0,0)" fill="rgb(33,41,141)" d="M 1452.41 629.044 C 1458.97 635.205 1463.62 641.4 1470.11 647.342 C 1492.43 667.749 1515.48 677.842 1545.98 676.866 C 1548.43 676.795 1550.87 676.663 1553.31 676.47 L 1552.85 677.562 C 1513.65 684.361 1478.34 662.546 1454.34 633.142 L 1452.41 629.044 z"/>
<path transform="translate(0,0)" fill="rgb(243,88,84)" d="M 1458.28 535.819 C 1454.08 528.98 1449.59 520.541 1456.8 514.054 C 1464.69 514.431 1463.47 521.693 1463.35 527.735 C 1462.72 532.984 1463.39 533.127 1458.28 535.819 z"/>
<path transform="translate(0,0)" fill="rgb(33,41,141)" d="M 1522.26 599.248 C 1532.23 599.865 1538.74 599.992 1548.69 601.844 C 1543.02 602.731 1517.01 601.082 1506.5 602.155 C 1498.64 602.958 1467.63 607.335 1463.54 607.205 C 1479.62 601.838 1505.15 601.155 1522.26 599.248 z"/>
<path transform="translate(0,0)" fill="rgb(33,41,141)" d="M 1506.56 570.752 C 1504.01 567.479 1499.31 558.992 1499 554.805 C 1502.12 556.743 1505.5 565.991 1507.07 569.713 L 1506.56 570.752 z"/>
<path transform="translate(0,0)" fill="rgb(221,232,253)" d="M 387.043 573.196 L 387.024 760.079 L 368.333 760.045 C 377.449 771.266 372.532 770.703 370.331 781.683 L 369.416 781.888 L 325.841 781.966 C 317.423 789.522 315.175 797.52 324.577 805.894 C 322.488 806.456 320.244 806.528 319.558 808.284 C 317.473 813.622 318.997 822.461 318.98 828.302 L 338.899 828.224 L 338.917 1007.62 C 336.28 1008.04 331.299 1008.99 328.891 1009.05 L 329.915 1008.17 C 330.142 1005.85 326.172 1005.05 323.706 1003.97 C 276.262 982.811 237.854 951.754 215.635 904.624 C 161.985 790.821 204.923 679.476 310.398 616.539 C 335.951 601.291 359.81 586.381 387.043 573.196 z"/>
<path transform="translate(0,0)" fill="rgb(190,210,248)" d="M 317.848 763.134 C 316.205 762.496 316.906 763.004 315.987 761.263 C 319.749 759.095 360.743 760.015 368.333 760.045 C 377.449 771.266 372.532 770.703 370.331 781.683 L 369.416 781.888 L 325.841 781.966 C 321.294 782.093 318.091 782.721 314.623 780.018 L 319.571 778.72 C 323.213 772.798 323.569 771.751 321.332 765.127 L 317.848 763.134 z"/>
<path transform="translate(0,0)" fill="rgb(255,255,255)" d="M 321.332 765.127 C 338.842 764.957 350.028 764.237 361.672 778.698 C 347.64 778.98 333.603 778.987 319.571 778.72 C 323.213 772.798 323.569 771.751 321.332 765.127 z"/>
<path transform="translate(0,0)" fill="rgb(71,83,208)" d="M 317.848 763.134 C 316.205 762.496 316.906 763.004 315.987 761.263 C 319.749 759.095 360.743 760.015 368.333 760.045 C 377.449 771.266 372.532 770.703 370.331 781.683 L 369.416 781.888 L 325.841 781.966 C 321.294 782.093 318.091 782.721 314.623 780.018 C 325.267 779.374 362.595 781.339 365.989 778.019 C 388.082 756.407 322.168 763.024 317.848 763.134 z"/>
<path transform="translate(0,0)" fill="rgb(221,232,253)" d="M 830.197 759.847 C 830.001 735.668 830.013 711.489 830.233 687.311 C 835.911 699.305 837.692 704.231 846.973 714.032 C 852.828 711.406 857.007 709.6 863.162 707.53 C 865.806 703.464 866.256 701.633 867.738 697.047 C 918.854 698.282 973.737 697.254 1025.18 697.155 C 1023.39 707.666 1009.51 798.984 1011.85 805.169 C 1016.57 807.8 1016.32 807.145 1016.47 812.748 C 1014.06 844.193 1004.04 870.198 989.663 898.246 C 982.846 911.422 975.418 924.274 967.405 936.76 C 963.477 942.919 938.922 976.313 938.715 979.792 L 940.545 981.534 C 939.323 983.574 936.568 987.892 935.805 989.907 L 935.013 989.73 C 929.166 988.563 901.119 989.377 893.247 989.492 C 867.747 989.937 842.244 990.119 816.741 990.04 L 819.759 765.524 C 823.497 763.889 826.688 761.912 830.197 759.847 z"/>
<path transform="translate(0,0)" fill="rgb(254,146,144)" d="M 846.973 714.032 C 852.828 711.406 857.007 709.6 863.162 707.53 C 867.652 714.055 881.492 733.086 878.772 740.86 C 876.79 740.459 876.11 739.343 874.715 737.833 C 874.655 742.47 875.926 746.605 876.441 751.192 L 870.343 743.46 C 870.361 745.816 870.001 748.05 869.582 750.365 C 867.519 750.087 866.041 747.872 864.269 746.061 C 863.264 749.758 866.001 751.581 864.065 754.929 C 858.734 752.433 853.815 739.948 851.065 734.241 C 849.354 737.206 848.275 740.007 845.338 741.4 L 844.031 740.407 C 843.297 734.99 845.606 719.615 846.973 714.032 z"/>
<path transform="translate(0,0)" fill="rgb(2,0,88)" d="M 1521.3 743.912 C 1523.77 747.809 1528.34 755.772 1531.57 758.451 L 1536.03 757.629 C 1537.7 759.684 1537.39 761.656 1537.73 764.684 C 1540.23 831.206 1549.81 892.009 1598.63 941.128 C 1605.89 948.431 1607.78 949.97 1601.11 957.553 C 1594.78 963.31 1589.62 967.677 1582.88 972.957 C 1587.53 978.804 1593.97 986.398 1598.22 992.301 C 1596.55 995.103 1594.42 998.488 1592.89 1001.3 C 1534.54 998.537 1470 994.876 1411.93 994.51 C 1411.82 998.527 1412.22 1003.71 1409.84 1006.68 C 1408.08 1007.22 1406.94 1007.62 1405.08 1007.91 C 1396.08 1008.2 1389.88 1007.55 1381.16 1005.55 C 1377.72 1004.74 1372.23 1002.88 1368.68 1001.8 L 1367.52 992.216 C 1365.37 962.584 1362 931.291 1359.35 901.562 C 1356.01 864.084 1357.47 851.686 1366.26 815.37 C 1371.98 792.331 1377.91 769.348 1384.06 746.424 C 1437.48 765.447 1456.76 764.416 1513.46 759.277 L 1521.3 743.912 z"/>
<path transform="translate(0,0)" fill="rgb(221,232,253)" d="M 1411.93 994.51 C 1412.76 955.304 1417.78 909.044 1421.47 869.766 C 1422.6 857.75 1443.43 793.696 1452.43 791.913 C 1463.39 801.433 1481.26 878.283 1495.75 898.555 C 1519.51 931.802 1543.19 953.287 1573.02 980.176 L 1582.88 972.957 C 1587.53 978.804 1593.97 986.398 1598.22 992.301 C 1596.55 995.103 1594.42 998.488 1592.89 1001.3 C 1534.54 998.537 1470 994.876 1411.93 994.51 z"/>
<path transform="translate(0,0)" fill="rgb(65,79,242)" d="M 736.203 679.308 L 778.177 679.365 C 778.333 690.659 778.582 702.124 778.855 713.391 C 779.573 743.085 779.929 775.322 819.759 765.524 L 816.741 990.04 C 816.52 1003.23 816.089 1016.96 816.175 1030.11 L 802.294 1030.16 C 794.671 1030.06 787.182 1029.77 779.604 1030.63 C 778.135 1030.42 777.193 1030.06 775.783 1029.64 C 772.873 1024.78 772.179 994.965 771.528 986.995 L 770.3 990.157 C 765.412 991.7 728.11 992.801 721.456 991.279 C 720.692 991.104 720.684 990.143 720.431 989.196 C 718.258 999.716 716.662 1012.22 715.121 1022.99 L 704.247 1023.11 L 683.948 1023.11 C 679.057 1023.16 678.571 1023.94 674.906 1021.85 C 671.749 1015.92 674.495 1001.49 674.972 993.173 L 682.63 838.961 C 683.748 816.738 686.584 782.842 685.978 761.586 C 745.029 788.842 736.034 715.358 736.203 679.308 z"/>
<path transform="translate(0,0)" fill="rgb(221,232,253)" d="M 755.169 768.412 C 758.119 792.448 759.516 822.379 761.293 846.797 L 771.528 986.995 L 770.3 990.157 C 765.412 991.7 728.11 992.801 721.456 991.279 C 720.692 991.104 720.684 990.143 720.431 989.196 C 722.645 970.431 726.922 949.313 729.701 930.321 C 737.556 876.619 747.978 822.119 755.169 768.412 z"/>
<path transform="translate(0,0)" fill="rgb(145,183,246)" d="M 338.899 828.224 C 396.119 828.143 458.025 827.035 514.968 828.384 L 514.975 998.213 L 514.955 1022.69 C 457.035 1023.13 396.87 1023.47 339.005 1022.77 L 338.917 1007.62 L 338.899 828.224 z"/>
<path transform="translate(0,0)" fill="rgb(190,210,248)" d="M 351.516 925.495 C 367.736 924.822 387.25 925.276 403.725 925.267 L 500.193 925.339 C 500.364 934.745 502.335 988.268 498.678 992.524 L 349.902 992.627 C 349.853 975.092 349.513 945.652 350.104 926.973 C 350.575 926.48 351.045 925.987 351.516 925.495 z"/>
<path transform="translate(0,0)" fill="rgb(145,183,246)" d="M 407.858 932.019 C 417.593 931.924 430.526 931.455 439.961 932.264 C 441.405 934.103 440.991 936.17 441.122 938.938 C 433.724 938.813 415.507 940.663 408.946 937.608 C 407.925 937.133 408 933.686 407.858 932.019 z"/>
<path transform="translate(0,0)" fill="rgb(190,210,248)" d="M 349.883 846.679 L 500.177 846.811 C 500.352 869.16 500.327 891.509 500.101 913.858 L 349.891 913.961 C 349.473 892 349.874 868.746 349.883 846.679 z"/>
<path transform="translate(0,0)" fill="rgb(145,183,246)" d="M 407.409 852.92 C 416.997 852.833 430.748 852.334 439.939 853.279 C 441.416 855.096 441.226 857.166 441.581 859.826 C 433.403 859.696 416.474 861.537 409.064 858.64 C 407.811 858.15 407.712 854.807 407.409 852.92 z"/>
<path transform="translate(0,0)" fill="rgb(1,1,49)" d="M 1016.47 812.748 C 1017.41 801.237 1026.77 803.63 1036.13 804.998 C 1064.56 809.151 1103.48 829.195 1130.15 812.422 C 1131.06 829.963 1132.87 847.264 1133.51 864.932 C 1134.92 903.618 1132.16 951.124 1123.52 989.267 C 1121.73 998.826 1118.15 1022.66 1113.1 1029.36 C 1110.83 1030.3 1110 1030.06 1107.59 1029.9 L 1103.03 1029.89 C 1097.21 1028.91 1088.73 1029.11 1082.64 1029.06 L 1085.37 989.143 C 1071.98 988.85 976.785 990.136 972.098 987.71 L 963.614 994.861 L 956.585 990.867 C 954.785 992.7 952.054 995.762 949.947 996.954 C 943.703 994.905 941.098 993.662 935.805 989.907 C 936.568 987.892 939.323 983.574 940.545 981.534 L 938.715 979.792 C 938.922 976.313 963.477 942.919 967.405 936.76 C 975.418 924.274 982.846 911.422 989.663 898.246 C 1004.04 870.198 1014.06 844.193 1016.47 812.748 z"/>
<path transform="translate(0,0)" fill="rgb(221,232,253)" d="M 972.098 987.71 C 1009.13 952.773 1034.7 915.611 1055.27 868.895 C 1059 860.4 1069.84 831.881 1079.91 831.85 C 1082.99 833.43 1084.08 835.865 1085.09 839.036 C 1092.23 861.308 1089.15 965.854 1085.37 989.143 C 1071.98 988.85 976.785 990.136 972.098 987.71 z"/>
<path transform="translate(0,0)" fill="rgb(255,255,255)" d="M 940.545 981.534 C 946.422 984.647 950.974 987.377 956.585 990.867 C 954.785 992.7 952.054 995.762 949.947 996.954 C 943.703 994.905 941.098 993.662 935.805 989.907 C 936.568 987.892 939.323 983.574 940.545 981.534 z"/>
<path transform="translate(0,0)" fill="rgb(254,115,105)" d="M 774.772 485.916 L 780.942 485.65 C 793.614 491.091 806.889 496.919 817.534 505.841 C 819.099 507.153 821.978 510.368 823.66 510.58 C 826.26 517.62 830.087 524.153 832.334 531.038 L 835.218 537.897 L 842.714 560.268 C 854.277 595.123 868.519 645.035 869.125 681.017 L 869.001 686.968 L 868.399 691.972 L 867.738 697.047 C 866.256 701.633 865.806 703.464 863.162 707.53 C 857.007 709.6 852.828 711.406 846.973 714.032 C 837.692 704.231 835.911 699.305 830.233 687.311 C 830.013 711.489 830.001 735.668 830.197 759.847 C 826.688 761.912 823.497 763.889 819.759 765.524 C 779.929 775.322 779.573 743.085 778.855 713.391 C 778.582 702.124 778.333 690.659 778.177 679.365 L 736.203 679.308 C 736.613 614.781 735.849 550.252 733.912 485.754 C 736.561 485.832 741.775 485.833 744.18 486.264 C 749.842 493.226 769.616 495.514 774.772 485.916 z"/>
<path transform="translate(0,0)" fill="rgb(255,255,255)" d="M 774.772 485.916 L 780.942 485.65 C 779.39 511.572 779.397 539.622 778.994 565.742 C 778.199 603.611 777.926 641.489 778.177 679.365 L 736.203 679.308 C 736.613 614.781 735.849 550.252 733.912 485.754 C 736.561 485.832 741.775 485.833 744.18 486.264 C 749.842 493.226 769.616 495.514 774.772 485.916 z"/>
<path transform="translate(0,0)" fill="rgb(254,115,105)" d="M 1037.01 606.323 C 1054.79 604.057 1068.16 605.385 1085.63 609.633 L 1085.33 612.934 C 1090.63 619.087 1104.13 616.7 1110.94 614.735 C 1122 616.079 1149.32 619.727 1159.18 623.477 C 1159.33 632.879 1159.71 639.868 1160.63 649.221 C 1161.53 653.752 1162.37 653.89 1160.69 657.401 C 1154.11 662.76 1146.88 663.078 1138.66 666.761 C 1134.86 702.94 1131.02 739.27 1129.5 775.669 C 1129.29 780.525 1130.7 810.694 1130.15 812.422 C 1103.48 829.195 1064.56 809.151 1036.13 804.998 C 1026.77 803.63 1017.41 801.237 1016.47 812.748 C 1016.32 807.145 1016.57 807.8 1011.85 805.169 C 1009.51 798.984 1023.39 707.666 1025.18 697.155 L 1026.09 692.219 C 1028.82 676.006 1032.05 664.142 1039.16 649.47 C 1031.63 643.961 1023.72 640.444 1018.41 633.131 C 1018.15 629.62 1018.71 630.138 1021.32 626.751 C 1026.28 619.981 1031.46 612.528 1037.01 606.323 z"/>
<path transform="translate(0,0)" fill="rgb(254,115,105)" d="M 675.925 549.106 C 682.683 536.435 684.116 518.321 695.312 507.566 C 705.576 497.708 720.728 490.9 733.912 485.754 C 735.849 550.252 736.613 614.781 736.203 679.308 C 736.034 715.358 745.029 788.842 685.978 761.586 C 684.009 758.194 684.468 697.345 683.859 687.265 C 678.684 699.233 674.919 704.984 663.862 711.793 C 658.626 708.944 655.06 706.888 649.365 704.907 C 636.135 686.224 661.251 601.954 667.274 578.773 C 669.041 571.972 675.329 555.118 675.925 549.106 z"/>
<path transform="translate(0,0)" fill="rgb(2,0,88)" d="M 675.925 549.106 C 649.348 525.856 684.464 510.146 681.648 491.127 C 677.365 462.186 662.321 456.043 698.125 438.244 C 709.238 432.719 707.012 416.982 709.812 405.01 C 717.088 373.901 740.935 367.733 769.268 374.94 C 818.843 387.05 802.782 432.951 810.523 469.769 C 812.305 478.244 819.298 487.97 823.953 495.483 C 824.139 500.212 823.819 505.778 823.66 510.58 C 821.978 510.368 819.099 507.153 817.534 505.841 C 806.889 496.919 793.614 491.091 780.942 485.65 L 774.772 485.916 C 769.616 495.514 749.842 493.226 744.18 486.264 C 741.775 485.833 736.561 485.832 733.912 485.754 C 720.728 490.9 705.576 497.708 695.312 507.566 C 684.116 518.321 682.683 536.435 675.925 549.106 z"/>
<path transform="translate(0,0)" fill="rgb(254,146,144)" d="M 766.309 394.094 C 777.656 400.079 788.4 404.912 792.897 417.945 C 794.973 423.962 794.25 424.683 799.571 428.463 C 800.104 432.664 796.376 434.954 793.346 437.457 C 790.578 452.24 789.873 462.145 774.249 467.898 C 774.22 472.304 773.843 482.076 774.772 485.916 C 769.616 495.514 749.842 493.226 744.18 486.264 C 750.167 469.939 743.176 458.904 734.883 445.26 C 727.25 443.351 716.464 436.348 727.693 430.683 C 731.531 430.963 735.765 432.494 737.369 430.534 C 745.21 420.951 761.122 404.282 766.309 394.094 z"/>
<path transform="translate(0,0)" fill="rgb(254,115,105)" d="M 771.304 428.434 L 772.618 428.237 C 775.219 434.872 777.585 438.645 771.845 443.74 C 770.12 443.225 770.234 443.256 768.842 442.102 L 772.368 439.564 C 773.455 436.914 771.24 433.221 771.304 428.434 z"/>
<path transform="translate(0,0)" fill="rgb(2,0,88)" d="M 751.444 419.701 C 753.813 419.537 754.412 419.294 756.447 420.547 C 754.967 422.596 752.267 423.09 749.763 423.931 L 747.931 425.095 L 746.448 424.652 C 747.872 421.423 748.263 421.885 751.444 419.701 z"/>
<path transform="translate(0,0)" fill="rgb(2,0,88)" d="M 778.348 415.319 C 783.753 415.593 787.342 414.665 789.732 419.794 C 785.776 419.064 782.673 418.461 778.788 417.413 L 778.348 415.319 z"/>
<path transform="translate(0,0)" fill="rgb(190,210,248)" d="M 843.266 543.942 L 938.799 543.939 L 938.768 680.979 L 869.125 681.017 C 868.519 645.035 854.277 595.123 842.714 560.268 C 843.356 554.152 843.333 550.01 843.266 543.942 z"/>
<path transform="translate(0,0)" fill="rgb(190,210,248)" d="M 408.738 781.886 C 413.401 781.822 418.885 781.482 423.324 782.603 L 423.889 783.669 C 423.003 784.235 422.448 784.728 421.499 784.999 L 417.439 787.918 C 416.242 793.671 415.458 796.265 418.824 801.462 C 419.37 802.321 419.955 803.154 420.578 803.958 C 423.183 804.628 423.151 804.496 425.111 806.244 C 433.683 808.782 518.259 806.809 532.738 806.792 C 532.761 813.79 532.918 821.356 532.711 828.295 L 514.968 828.384 C 458.025 827.035 396.119 828.143 338.899 828.224 L 318.98 828.302 C 318.997 822.461 317.473 813.622 319.558 808.284 C 320.244 806.528 322.488 806.456 324.577 805.894 C 315.175 797.52 317.423 789.522 325.841 781.966 L 369.416 781.888 L 370.331 781.683 L 408.738 781.886 z"/>
<path transform="translate(0,0)" fill="rgb(243,88,84)" d="M 408.738 781.886 C 413.401 781.822 418.885 781.482 423.324 782.603 L 423.889 783.669 C 423.003 784.235 422.448 784.728 421.499 784.999 L 417.439 787.918 C 416.242 793.671 415.458 796.265 418.824 801.462 C 419.37 802.321 419.955 803.154 420.578 803.958 C 423.183 804.628 423.151 804.496 425.111 806.244 C 416.484 807.802 380.753 806.997 370.471 806.909 C 359.192 799.977 361.426 790.104 369.416 781.888 L 370.331 781.683 L 408.738 781.886 z"/>
<path transform="translate(0,0)" fill="rgb(255,255,255)" d="M 376.069 804.212 C 384.245 786.825 400.556 787.473 417.439 787.918 C 416.242 793.671 415.458 796.265 418.824 801.462 C 419.37 802.321 419.955 803.154 420.578 803.958 L 376.069 804.212 z"/>
<path transform="translate(0,0)" fill="rgb(190,210,248)" d="M 376.069 804.212 C 374.525 804.046 370.915 803.171 370.04 801.957 C 352.827 778.085 408.821 784.757 421.499 784.999 L 417.439 787.918 C 400.556 787.473 384.245 786.825 376.069 804.212 z"/>
<path transform="translate(0,0)" fill="rgb(254,115,105)" d="M 325.841 781.966 L 369.416 781.888 C 361.426 790.104 359.192 799.977 370.471 806.909 C 360.721 807.034 332.156 807.872 324.577 805.894 C 315.175 797.52 317.423 789.522 325.841 781.966 z"/>
<path transform="translate(0,0)" fill="rgb(145,183,246)" d="M 832.334 531.038 L 953.587 530.962 C 955.018 540.726 954.026 568.799 954.159 580.384 C 954.583 617.413 953.616 655.06 954.181 692.096 C 977.202 692.117 1003.35 691.501 1026.09 692.219 L 1025.18 697.155 C 973.737 697.254 918.854 698.282 867.738 697.047 L 868.399 691.972 L 869.001 686.968 L 869.125 681.017 L 938.768 680.979 L 938.799 543.939 L 843.266 543.942 C 843.333 550.01 843.356 554.152 842.714 560.268 L 835.218 537.897 L 832.334 531.038 z"/>
<path transform="translate(0,0)" fill="rgb(255,255,255)" d="M 835.218 537.897 L 946.751 537.861 L 946.766 686.875 C 921.053 686.899 894.664 686.644 869.001 686.968 L 869.125 681.017 L 938.768 680.979 L 938.799 543.939 L 843.266 543.942 C 843.333 550.01 843.356 554.152 842.714 560.268 L 835.218 537.897 z"/>
<path transform="translate(0,0)" fill="rgb(190,210,248)" d="M 953.587 530.962 C 955.018 540.726 954.026 568.799 954.159 580.384 C 954.583 617.413 953.616 655.06 954.181 692.096 C 977.202 692.117 1003.35 691.501 1026.09 692.219 L 1025.18 697.155 C 973.737 697.254 918.854 698.282 867.738 697.047 L 868.399 691.972 C 894.858 692.912 926.464 692.158 953.3 692.156 C 952.216 653.5 953.711 614.119 953.096 575.387 C 952.873 561.363 952.523 544.802 953.587 530.962 z"/>
<path transform="translate(0,0)" fill="rgb(254,146,144)" d="M 1087.39 535.29 C 1101.43 536.306 1115.09 538.104 1128.94 535.701 C 1130.03 538.628 1131.58 544.545 1133.74 545.712 L 1133.61 546.917 C 1132.8 554.602 1134.22 552.708 1137.63 559.305 C 1138.8 561.565 1135.45 565.191 1135.25 566.986 C 1132.52 590.419 1126.23 589.518 1107.26 596.203 C 1106.32 603.725 1105.14 608.765 1110.94 614.735 C 1104.13 616.7 1090.63 619.087 1085.33 612.934 L 1085.63 609.633 C 1086.33 609.303 1087.46 608.441 1088.15 607.963 C 1089.73 603.859 1089.36 597.722 1089.38 593.142 C 1081.47 585.989 1079.71 583.635 1074.98 574.287 C 1069.56 572.026 1066.07 571.084 1064.51 565.053 C 1065.79 561.426 1065.05 562.749 1068.5 559.892 C 1072.73 560.094 1074.48 561.231 1078.29 563.048 C 1082.72 553.009 1085.74 546.363 1087.39 535.29 z"/>
<path transform="translate(0,0)" fill="rgb(255,255,255)" d="M 1120.13 576.387 C 1120.68 576.303 1122.19 576.47 1122.82 576.517 L 1123.47 578.264 C 1122.13 584.95 1117.3 587.037 1111.07 586.475 C 1108.22 584.429 1105.19 582.947 1105.71 579.332 C 1109.17 577.235 1115.81 576.904 1120.13 576.387 z"/>
<path transform="translate(0,0)" fill="rgb(254,146,144)" d="M 1421.54 435.4 C 1428.68 430.948 1433.99 425.787 1442.16 427.091 C 1449.11 430.685 1450.79 442.306 1452.7 449.572 C 1455.34 448.417 1458.28 446.935 1461.07 446.418 C 1464.88 449.577 1464.01 448.084 1465.45 452.15 C 1463.04 458.586 1457.75 458.447 1455.84 461.649 C 1451.47 468.995 1452.91 489.041 1457.96 495.65 C 1456.48 506.011 1437.39 508.263 1429.21 503.963 C 1428.59 498.402 1427.18 492.711 1425.96 487.228 C 1405.76 486.617 1405.83 477.902 1399.14 461.907 C 1398.74 460.938 1394.12 457.213 1394.29 456.383 C 1396.28 446.35 1399.14 449.91 1397.03 438.555 C 1405.21 434.266 1409.32 431.602 1418.54 434.426 C 1419.54 434.736 1420.55 435.06 1421.54 435.4 z"/>
<path transform="translate(0,0)" fill="rgb(1,1,49)" d="M 1433.4 437.66 C 1438.6 437.831 1441.22 437.014 1444.06 441.889 L 1443.31 443.454 L 1441.81 442.532 C 1437.66 440.917 1435.4 442.441 1430.91 442.204 L 1430.67 440.799 L 1433.4 437.66 z"/>
<path transform="translate(0,0)" fill="rgb(254,146,144)" d="M 1159.18 623.477 L 1160.13 623.352 C 1197.55 618.087 1212.86 587.81 1216.68 553.633 C 1217.44 546.758 1215.52 527.448 1219.18 523.16 L 1220.63 523.689 C 1221.43 526.168 1222.05 528.789 1223.54 530.874 C 1227.57 526.437 1229.47 520.638 1233.71 517.305 L 1235.06 517.592 C 1235.08 520.076 1234.99 522.117 1234.85 524.597 C 1237.38 521.961 1237.64 520.722 1240.67 520.29 C 1240.89 522.848 1240.6 523.411 1239.93 525.949 L 1240.77 526.198 L 1243.17 523.462 L 1244.7 523.719 C 1246.08 526.546 1245.9 527.148 1245.97 530.404 L 1246.15 530.086 C 1244.62 543.607 1235.86 546.215 1233.3 556.388 C 1220.08 609.025 1219.68 633.898 1160.63 649.221 C 1159.71 639.868 1159.33 632.879 1159.18 623.477 z"/>
<path transform="translate(0,0)" fill="rgb(254,146,144)" d="M 1021.32 626.751 C 1006.57 617.019 989.433 606.535 983.475 589.587 C 974.846 565.592 978.619 539.822 979.9 515.023 C 980.251 508.209 976.909 487.463 984.982 484.492 C 985.838 486.492 986.061 487.32 987.524 488.996 L 988.216 483.998 L 989.381 483.207 L 992.366 487.818 L 994.371 484.103 L 995.868 483.747 C 997.791 487.408 998.403 494.756 999.02 499.152 C 1002.51 494.87 1003.85 493.591 1008.06 489.979 C 1004.52 502.141 1002.43 504.464 997.739 515.498 C 991.531 530.095 993.939 559.301 1000.37 573.886 C 1006.35 587.452 1023.05 601.219 1037.01 606.323 C 1031.46 612.528 1026.28 619.981 1021.32 626.751 z"/>
<path transform="translate(0,0)" fill="rgb(1,1,49)" d="M 1406.24 402.872 C 1414.07 395.252 1415.2 394.652 1426.31 395.217 C 1436.99 395.76 1450.8 392.37 1459.14 401.227 C 1470.73 413.535 1463.67 432.564 1461.07 446.418 C 1458.28 446.935 1455.34 448.417 1452.7 449.572 C 1450.79 442.306 1449.11 430.685 1442.16 427.091 C 1433.99 425.787 1428.68 430.948 1421.54 435.4 C 1420.55 435.06 1419.54 434.736 1418.54 434.426 C 1409.32 431.602 1405.21 434.266 1397.03 438.555 C 1393.17 437.703 1392.58 438.035 1389.81 434.647 C 1385.71 429.641 1378.06 431.083 1375.59 424.789 C 1379.29 415.929 1379.95 419.434 1382.77 407.736 C 1391.28 405.14 1398.33 404.923 1406.24 402.872 z"/>
<path transform="translate(0,0)" fill="rgb(1,1,49)" d="M 1068.5 559.892 C 1065.01 551.225 1061.05 524.741 1062.12 515.9 L 1063.58 515.035 C 1066.6 516.191 1065.99 516.365 1068.35 519.341 C 1072.04 518.637 1079.7 508.195 1086.85 506.29 C 1095.22 504.061 1134.71 505.812 1140.37 509.426 L 1140.74 511.685 C 1138.97 515.077 1135.42 517.057 1132.18 519.38 C 1134.39 520.821 1136.81 521.542 1139.3 522.453 C 1143.89 528.13 1136.4 529.915 1134.1 536.212 C 1133.5 537.856 1133.69 543.702 1133.74 545.712 C 1131.58 544.545 1130.03 538.628 1128.94 535.701 C 1115.09 538.104 1101.43 536.306 1087.39 535.29 C 1085.74 546.363 1082.72 553.009 1078.29 563.048 C 1074.48 561.231 1072.73 560.094 1068.5 559.892 z"/>
<path transform="translate(0,0)" fill="rgb(254,146,144)" d="M 1279.53 687.419 C 1275.99 686.929 1272.61 686.814 1269.8 684.612 L 1269.65 682.927 C 1274.24 679.44 1290.73 676.2 1297.02 674.703 C 1299.84 678.307 1307.77 688.071 1309.78 691.53 C 1305.41 698.196 1292.57 717.761 1284.84 718.178 C 1283.99 715.931 1285.34 714.39 1286.57 711.57 C 1283.02 713.752 1280.67 716.783 1276.97 717.114 L 1276.36 715.699 C 1277.09 711.523 1280.12 708.812 1282.97 705.564 C 1277.19 710.127 1274.65 712.142 1268.02 715.694 L 1274.74 703.516 C 1269.38 707.641 1267.29 709.166 1261.3 712.206 L 1261.64 711.511 C 1267.24 700.206 1271.3 696.775 1279.53 687.419 z"/>
<path transform="translate(0,0)" fill="rgb(254,146,144)" d="M 649.365 704.907 C 655.06 706.888 658.626 708.944 663.862 711.793 C 665.176 718.426 667.987 733.749 666.962 739.75 L 665.656 740.541 C 662.728 739.006 661.623 735.982 659.955 732.921 C 657.186 738.751 652.364 751.833 646.965 753.848 C 645.005 750.421 648.161 748.959 646.71 745.152 C 644.704 747.367 644.228 748.027 641.787 749.674 C 640.572 747.057 640.765 746.664 640.928 743.64 L 640.983 742.774 C 639.525 743.726 636.147 748.678 634.841 750.446 C 635.259 745.941 636.251 741.212 636.543 737.11 C 634.268 739.176 634.944 739.163 632.343 739.707 C 629.924 731.127 644.182 711.902 649.365 704.907 z"/>
<path transform="translate(0,0)" fill="rgb(65,79,242)" d="M 387.024 760.079 L 397.095 760.017 C 403.54 759.893 408.346 759.367 413.302 764.282 C 419.748 770.676 414.719 777.761 408.738 781.886 L 370.331 781.683 C 372.532 770.703 377.449 771.266 368.333 760.045 L 387.024 760.079 z"/>
<path transform="translate(0,0)" fill="rgb(254,146,144)" d="M 1601.11 957.553 C 1607.07 964.814 1613.27 972.191 1619.06 979.559 C 1612.16 987.355 1608.48 990.227 1598.22 992.301 C 1593.97 986.398 1587.53 978.804 1582.88 972.957 C 1589.62 967.677 1594.78 963.31 1601.11 957.553 z"/>
<path transform="translate(0,0)" fill="rgb(190,210,248)" d="M 904.91 413.354 C 892.827 400.869 885.086 390.197 878.296 374.089 C 867.555 348.397 867.617 319.461 878.466 293.814 C 928.33 172.792 1141.06 197.566 1142.67 336.495 C 1142.87 353.731 1137.34 368.087 1130.83 383.653 L 1128.56 387.037 C 1126 391.259 1123.76 394.369 1120.83 398.353 C 1116.48 404.286 1114.38 406.786 1109.32 412.148 C 1051.81 465.825 962.959 466.588 904.91 413.354 z"/>
<path transform="translate(0,0)" fill="rgb(65,79,242)" d="M 937.587 376.208 C 937.061 375.367 929.199 368.098 928.074 367.082 C 888.371 331.25 892.18 243.66 962.708 257.925 C 978.607 261.141 987.674 267.245 998.489 278.984 C 1004.61 288.235 1007.57 293.245 1011.54 303.998 L 1015.52 314.792 C 1018.66 317.741 1018.74 319.728 1019.16 324.107 C 1028.13 337.13 1037.11 330.839 1045.42 341.168 C 1053.55 351.264 1043.18 371.427 1031.78 376.098 L 1029.86 378.116 C 1011.3 385.547 999.617 387.013 979.955 388.073 L 977.163 388.071 C 961.672 386.058 954.206 385.292 940.134 376.899 L 937.587 376.208 z"/>
<path transform="translate(0,0)" fill="rgb(254,115,105)" d="M 967.478 329.316 C 961.816 329.29 956.982 330.488 953.271 325.903 L 953.76 324.559 C 956.965 324.205 959.012 324.033 962.177 323.158 C 962.813 319.389 959.437 322.435 956.463 315.468 C 960.587 313.763 961.479 318.044 967.033 316.888 C 970.88 310.829 962.576 304.138 964.286 296.644 C 966.774 295.254 968.464 298.813 974.667 299.428 C 978.013 297.874 977.128 297.155 979.338 293.021 L 981.347 293.429 C 982.582 296.05 981.502 298.052 980.827 301.48 C 984.651 307.388 993.434 305.525 991.894 313.99 L 990.065 314.978 C 986.052 314.009 987.011 312.731 983.555 308.416 C 981.25 310.209 978.536 315.858 976.985 318.678 C 982.513 323.476 984.993 324.855 991.83 327.257 C 1001.48 325.095 1002.63 324.135 1010.49 330.375 L 1011.75 331.511 C 1006.29 339.067 1012.44 340.216 1012.11 348.446 C 1010.46 351.931 1011.43 351.252 1008.58 352.563 L 1007.25 351.426 C 1007.19 348.635 1007.28 348.023 1005.6 345.787 L 1005.83 345.582 C 1003.78 348.357 1003.35 349.94 1000.55 351.069 C 998.363 348.665 1000.37 341.95 997.897 341.676 C 981.187 339.826 979.561 340.806 967.478 329.316 z"/>
<path transform="translate(0,0)" fill="rgb(243,88,84)" d="M 1015.52 314.792 C 1018.66 317.741 1018.74 319.728 1019.16 324.107 C 1016.23 327.707 1015.52 328.698 1011.75 331.511 L 1010.49 330.375 C 1013.32 325.542 1014.24 320.244 1015.52 314.792 z"/>
<path transform="translate(0,0)" fill="rgb(190,210,248)" d="M 955.978 346.823 C 963.245 347.055 980.46 347.228 983.48 353.865 C 983.211 357.432 982.27 358.305 980.286 361.274 C 976.507 361.915 954.894 355.336 953.103 353.514 C 953.246 349.825 953.762 350.167 955.978 346.823 z"/>
<path transform="translate(0,0)" fill="rgb(145,183,246)" d="M 937.587 376.208 L 940.134 376.899 C 954.206 385.292 961.672 386.058 977.163 388.071 L 979.955 388.073 C 999.617 387.013 1011.3 385.547 1029.86 378.116 C 1031.99 387.804 1034.31 397.449 1036.83 407.045 L 1037.82 410.217 L 1039.27 410.666 L 1040.31 408.181 C 1043.87 407.218 1050.02 406.656 1053.45 407.684 L 1055.65 413.171 C 1059.92 406.883 1062.89 404.475 1069.3 400.522 C 1072.14 401.039 1074.3 402.549 1076.84 403.99 L 1078.89 406.644 C 1079.35 407.597 1079.77 409.067 1080.51 409.22 C 1091.58 411.507 1097.43 408.855 1109.32 412.148 C 1051.81 465.825 962.959 466.588 904.91 413.354 C 908.442 411.706 924.457 411.154 929.005 410.963 C 932.061 400.41 934.93 387.071 937.587 376.208 z"/>
<path transform="translate(0,0)" fill="rgb(190,210,248)" d="M 979.955 388.073 C 999.617 387.013 1011.3 385.547 1029.86 378.116 C 1031.99 387.804 1034.31 397.449 1036.83 407.045 L 1025.35 407.278 C 1023.12 407.562 1020.95 407.615 1018.95 408.497 C 1010.62 405.891 981.577 410.571 975.324 407.238 L 979.955 388.073 z"/>
<path transform="translate(0,0)" fill="rgb(190,210,248)" d="M 937.587 376.208 L 940.134 376.899 C 954.206 385.292 961.672 386.058 977.163 388.071 L 979.955 388.073 L 975.324 407.238 C 974.566 410.855 974.33 413.806 971.632 416.356 L 970.821 415.464 C 971.192 412.717 971.367 411.501 972.121 408.849 C 967.013 408.885 954.607 408.529 950.377 410.304 C 948.021 408.948 947.525 408.529 944.923 407.923 C 936.952 410.837 940.966 416.527 931.204 414.77 L 928.367 412.404 L 929.005 410.963 C 932.061 400.41 934.93 387.071 937.587 376.208 z"/>
<path transform="translate(0,0)" fill="rgb(2,0,88)" d="M 937.587 376.208 L 940.134 376.899 L 931.204 414.77 L 928.367 412.404 L 929.005 410.963 C 932.061 400.41 934.93 387.071 937.587 376.208 z"/>
<path transform="translate(0,0)" fill="rgb(2,0,88)" d="M 977.163 388.071 L 979.955 388.073 L 975.324 407.238 C 974.566 410.855 974.33 413.806 971.632 416.356 L 970.821 415.464 C 971.192 412.717 971.367 411.501 972.121 408.849 L 977.163 388.071 z"/>
<path transform="translate(0,0)" fill="rgb(255,255,255)" d="M 1018.95 408.497 C 1020.95 407.615 1023.12 407.562 1025.35 407.278 C 1026.51 411.223 1028.84 417.418 1027.9 421.124 C 1024.04 424.958 1021.72 423.871 1016.46 423.372 L 1007.49 428.643 C 1003.84 427.308 999.393 426.209 997.134 423.208 C 996.339 417.923 999.276 416.138 1002.84 412.415 C 1011.18 412.893 1012.86 414.135 1018.95 408.497 z"/>
<path transform="translate(0,0)" fill="rgb(255,255,255)" d="M 1069.3 400.522 C 1072.14 401.039 1074.3 402.549 1076.84 403.99 L 1078.89 406.644 C 1077.82 410.02 1077.55 412.315 1074.8 414.38 C 1071.48 418.43 1069.67 418.689 1064.38 419.403 C 1059.93 417.101 1059.18 416.728 1055.65 413.171 C 1059.92 406.883 1062.89 404.475 1069.3 400.522 z"/>
<path transform="translate(0,0)" fill="rgb(243,88,84)" d="M 1064.38 419.403 C 1066.78 415.07 1069.4 406.789 1071.77 404.691 C 1073.95 406.839 1074.19 411.088 1074.8 414.38 C 1071.48 418.43 1069.67 418.689 1064.38 419.403 z"/>
<path transform="translate(0,0)" fill="rgb(255,255,255)" d="M 931.204 414.77 C 940.966 416.527 936.952 410.837 944.923 407.923 C 947.525 408.529 948.021 408.948 950.377 410.304 C 952.36 413.027 952.324 414.493 952.752 417.806 C 949.099 426.596 933.607 422.057 926.239 420.243 L 925.398 419.134 C 926.313 415.817 926.45 415.238 928.367 412.404 L 931.204 414.77 z"/>
<path transform="translate(0,0)" fill="rgb(127,177,246)" d="M 1029.56 286.092 C 1040.34 296.952 1054.83 312.431 1065.92 322.318 L 1065.93 322.894 C 1069.95 324.667 1076.82 324.037 1081.49 323.964 C 1083.91 331.404 1080.05 331.166 1083.03 332.804 C 1088.68 332.724 1094.32 332.604 1099.96 332.443 C 1107.04 332.619 1118.49 332.787 1125.99 332.584 C 1126.51 333.078 1127.03 333.572 1127.55 334.067 C 1128.14 337.929 1128.52 336.738 1127 339.752 L 1122.1 340.498 C 1119.82 344.25 1121.32 365.562 1120.65 372.818 L 1121.08 373.703 L 1120.89 378.655 C 1123.17 381.024 1126.74 384.509 1128.56 387.037 C 1126 391.259 1123.76 394.369 1120.83 398.353 C 1116.48 404.286 1114.38 406.786 1109.32 412.148 C 1097.43 408.855 1091.58 411.507 1080.51 409.22 C 1079.77 409.067 1079.35 407.597 1078.89 406.644 L 1076.84 403.99 C 1074.3 402.549 1072.14 401.039 1069.3 400.522 C 1062.89 404.475 1059.92 406.883 1055.65 413.171 L 1053.45 407.684 C 1050.02 406.656 1043.87 407.218 1040.31 408.181 L 1039.27 410.666 L 1037.82 410.217 L 1036.83 407.045 C 1034.31 397.449 1031.99 387.804 1029.86 378.116 L 1031.78 376.098 C 1043.18 371.427 1053.55 351.264 1045.42 341.168 C 1037.11 330.839 1028.13 337.13 1019.16 324.107 C 1018.74 319.728 1018.66 317.741 1015.52 314.792 L 1011.54 303.998 L 1029.56 286.092 z"/>
<path transform="translate(0,0)" fill="rgb(190,210,248)" d="M 1029.56 286.092 C 1040.34 296.952 1054.83 312.431 1065.92 322.318 L 1065.93 322.894 L 1063.31 324.061 C 1064.35 325.358 1065.59 325.042 1067.84 325.349 C 1073.09 326.209 1074.91 326.262 1079.35 329.252 L 1078.46 331.229 C 1072.99 332.751 1067.15 331.709 1061.6 332.162 C 1055.18 332.686 1050.23 330.237 1050.93 338.391 C 1052.77 340.19 1053.49 340.153 1056.09 340.838 C 1057.88 344.686 1056.84 387.818 1057.29 396.154 L 1058.98 396.671 L 1062.68 394.302 C 1065.58 394.302 1069.61 396.904 1069.38 399.84 L 1069.3 400.522 C 1062.89 404.475 1059.92 406.883 1055.65 413.171 L 1053.45 407.684 C 1050.02 406.656 1043.87 407.218 1040.31 408.181 L 1039.27 410.666 L 1037.82 410.217 L 1036.83 407.045 C 1034.31 397.449 1031.99 387.804 1029.86 378.116 L 1031.78 376.098 C 1043.18 371.427 1053.55 351.264 1045.42 341.168 C 1037.11 330.839 1028.13 337.13 1019.16 324.107 C 1018.74 319.728 1018.66 317.741 1015.52 314.792 L 1011.54 303.998 L 1029.56 286.092 z"/>
<path transform="translate(0,0)" fill="rgb(243,88,84)" d="M 1053.45 407.684 C 1054.36 404.245 1054.36 403.616 1056.3 400.732 C 1061.37 397.776 1063.33 398.736 1069.38 399.84 L 1069.3 400.522 C 1062.89 404.475 1059.92 406.883 1055.65 413.171 L 1053.45 407.684 z"/>
<path transform="translate(0,0)" fill="rgb(2,0,88)" d="M 1031.78 376.098 C 1034.31 384.948 1037.52 400.992 1040.31 408.181 L 1039.27 410.666 L 1037.82 410.217 L 1036.83 407.045 C 1034.31 397.449 1031.99 387.804 1029.86 378.116 L 1031.78 376.098 z"/>
<path transform="translate(0,0)" fill="rgb(255,255,255)" d="M 1079.35 329.252 C 1075.89 331.834 1067.11 332.593 1064.62 328.384 L 1065.24 326.564 L 1067.84 325.349 C 1073.09 326.209 1074.91 326.262 1079.35 329.252 z"/>
<path transform="translate(0,0)" fill="rgb(145,183,246)" d="M 1062.31 375.139 L 1116.46 375.082 C 1116.9 383.605 1117.01 390.398 1116.83 398.931 C 1108.4 398.999 1084.93 397.945 1078.74 400.709 L 1076.84 403.99 C 1074.3 402.549 1072.14 401.039 1069.3 400.522 L 1069.38 399.84 C 1069.61 396.904 1065.58 394.302 1062.68 394.302 C 1061.83 387.911 1062.17 381.581 1062.31 375.139 z"/>
<path transform="translate(0,0)" fill="rgb(145,183,246)" d="M 1065.93 322.894 C 1069.95 324.667 1076.82 324.037 1081.49 323.964 C 1083.91 331.404 1080.05 331.166 1083.03 332.804 C 1088.68 332.724 1094.32 332.604 1099.96 332.443 C 1107.04 332.619 1118.49 332.787 1125.99 332.584 C 1126.51 333.078 1127.03 333.572 1127.55 334.067 C 1128.14 337.929 1128.52 336.738 1127 339.752 L 1122.1 340.498 C 1119.82 344.25 1121.32 365.562 1120.65 372.818 C 1119.53 366.952 1120.03 347.286 1119.99 340.274 C 1099.76 340.528 1077.95 340.835 1057.76 340.193 C 1057.87 349.634 1058.75 389.663 1057.29 396.154 C 1056.84 387.818 1057.88 344.686 1056.09 340.838 C 1053.49 340.153 1052.77 340.19 1050.93 338.391 C 1050.23 330.237 1055.18 332.686 1061.6 332.162 C 1067.15 331.709 1072.99 332.751 1078.46 331.229 L 1079.35 329.252 C 1074.91 326.262 1073.09 326.209 1067.84 325.349 C 1065.59 325.042 1064.35 325.358 1063.31 324.061 L 1065.93 322.894 z"/>
<path transform="translate(0,0)" fill="rgb(190,210,248)" d="M 1120.89 378.655 C 1123.17 381.024 1126.74 384.509 1128.56 387.037 C 1126 391.259 1123.76 394.369 1120.83 398.353 L 1120.89 378.655 z"/>
<path transform="translate(0,0)" fill="rgb(145,183,246)" d="M 1062.35 346.848 C 1080.43 347.031 1098.51 347.018 1116.59 346.811 C 1116.92 354.906 1116.75 362.864 1116.65 370.961 L 1062.36 370.916 L 1062.35 346.848 z"/>
<path transform="translate(0,0)" fill="rgb(145,183,246)" d="M 1040.02 237.842 C 1045.61 243.511 1053.45 251.963 1059.22 257.051 C 1054.73 261.388 1041.95 273.236 1038.71 277.504 L 1038.93 279.275 L 1037.36 280.132 C 1034.07 281.087 1035.09 280.265 1033.55 282.979 C 1035.75 289.228 1059 310.632 1065.14 316.872 L 1065.92 322.318 C 1054.83 312.431 1040.34 296.952 1029.56 286.092 L 1011.54 303.998 C 1007.57 293.245 1004.61 288.235 998.489 278.984 L 1040.02 237.842 z"/>
<path transform="translate(0,0)" fill="rgb(127,177,246)" d="M 1082.01 322.671 L 1086.05 323.066 C 1090.03 322.822 1096.39 321.81 1099.38 323.809 C 1100.59 326.769 1100.13 329.197 1099.96 332.443 C 1094.32 332.604 1088.68 332.724 1083.03 332.804 C 1080.05 331.166 1083.91 331.404 1081.49 323.964 L 1082.01 322.671 z"/>
<path transform="translate(0,0)" fill="rgb(65,79,242)" d="M 1069.38 315.714 C 1073.58 316.001 1075.75 316.17 1079.98 315.837 L 1082.22 317.263 C 1082.12 319.039 1081.97 320.904 1082.01 322.671 L 1081.49 323.964 C 1076.82 324.037 1069.95 324.667 1065.93 322.894 L 1065.92 322.318 L 1065.14 316.872 L 1069.38 315.714 z"/>
<path transform="translate(0,0)" fill="rgb(145,183,246)" d="M 1069.38 315.714 C 1074.33 315.134 1097.76 314.007 1101.04 316.518 L 1099.14 317.018 C 1095.07 317.286 1091.01 317.108 1087.65 319.244 L 1086.19 321.507 L 1086.05 323.066 L 1082.01 322.671 C 1081.97 320.904 1082.12 319.039 1082.22 317.263 L 1079.98 315.837 C 1075.75 316.17 1073.58 316.001 1069.38 315.714 z"/>
<path transform="translate(0,0)" fill="rgb(255,255,255)" d="M 1086.19 321.507 L 1087.65 319.244 C 1091.01 317.108 1095.07 317.286 1099.14 317.018 L 1098.83 320.5 C 1095.1 323.304 1091.11 322.072 1086.19 321.507 z"/>
<path transform="translate(0,0)" fill="rgb(145,183,246)" d="M 1121.08 373.703 L 1130.83 383.653 L 1128.56 387.037 C 1126.74 384.509 1123.17 381.024 1120.89 378.655 L 1121.08 373.703 z"/>
<path transform="translate(0,0)" fill="rgb(145,183,246)" d="M 1038.93 279.275 C 1042.56 282.569 1047.24 286.382 1049.72 290.48 L 1049.18 291.257 C 1044.88 288.928 1040.76 283.847 1037.36 280.132 L 1038.93 279.275 z"/>
<path transform="translate(0,0)" fill="rgb(145,183,246)" d="M 1169.32 416.081 L 1312.91 416.047 L 1312.9 495.035 L 1169.34 495.029 L 1169.32 416.081 z"/>
<path transform="translate(0,0)" fill="rgb(255,255,255)" d="M 1297.49 421.49 L 1307.35 421.555 L 1307.36 489.852 L 1184.75 489.857 L 1174.84 489.884 L 1174.92 421.612 L 1297.49 421.49 z"/>
<path transform="translate(0,0)" fill="rgb(145,183,246)" d="M 1181.87 429.284 C 1220.94 429.773 1260.96 429.331 1300.1 429.338 L 1300.07 483.08 L 1181.78 483.097 L 1181.87 429.284 z"/>
<path transform="translate(0,0)" fill="rgb(145,183,246)" d="M 860.786 383.795 C 876.415 384.327 891.419 403.133 876.466 414.847 C 860.947 413.777 846.628 396.504 860.786 383.795 z"/>
<path transform="translate(0,0)" fill="rgb(145,183,246)" d="M 842.584 400.514 C 847.101 399.465 851.618 402.26 852.694 406.771 C 853.77 411.282 851.003 415.816 846.498 416.919 C 841.955 418.033 837.374 415.236 836.288 410.686 C 835.202 406.136 838.027 401.572 842.584 400.514 z"/>
<path transform="translate(0,0)" fill="rgb(190,210,248)" d="M 283.968 382.011 L 499.76 381.976 L 499.719 455.371 L 446.688 455.273 C 438.414 455.264 424.963 454.806 417.358 455.75 C 420.21 466.836 417.652 478.471 418.053 490.111 C 418.265 496.27 417.03 500.709 419.308 506.811 L 418.226 509.288 C 415.157 510.177 416.554 510.359 413.878 508.931 C 411.809 504.375 413.803 476.078 414.041 469.751 C 414.149 466.899 412.836 462.769 412.79 457.685 L 413.815 455.737 C 410.008 454.732 401.32 455.239 396.997 455.32 C 396.992 491.508 396.13 531.202 397.043 567.078 L 397.18 688.58 C 397.179 711.515 397.658 736.407 396.93 759.222 L 397.095 760.017 L 387.024 760.079 L 387.043 573.196 L 387.06 455.437 L 283.985 455.325 L 283.968 382.011 z"/>
<path transform="translate(0,0)" fill="rgb(145,183,246)" d="M 387.06 455.437 C 391.471 455.428 392.021 454.725 395.431 456.712 C 396.912 461.371 395.982 499.414 395.983 506.773 L 396.356 680.412 C 396.335 690.13 395.525 753.509 396.93 759.222 L 397.095 760.017 L 387.024 760.079 L 387.043 573.196 L 387.06 455.437 z"/>
</svg>