<svg version="1.1" xmlns="http://www.w3.org/2000/svg" style="display: block;" viewBox="0 0 2048 1280" width="2000" height="1250" preserveAspectRatio="none">
<path transform="translate(0,0)" fill="rgb(220,231,253)" d="M 397.94 567.819 C 409.912 559.75 432.774 548.272 446.572 540.246 C 477.303 522.61 506.444 502.336 533.666 479.655 C 646.264 385.959 720.671 278.383 857.747 214.892 C 972.053 161.847 1100.99 149.214 1223.42 179.063 C 1340.1 207.973 1441.99 272.731 1552.35 317.172 C 1589.22 332.021 1630.86 340.341 1668.35 354.072 C 1706.03 318.157 1770.8 333.409 1773.37 389.456 C 1773.48 391.932 1774.06 397.946 1775.07 400.045 C 1828.03 432.382 1865.63 484.782 1879.32 545.302 C 1906.48 660.601 1863.5 771.731 1818.76 876.391 C 1808.23 901.022 1785.25 953.434 1771.84 975.171 C 1771.02 976.508 1770.17 977.824 1769.29 979.118 C 1768.36 990.957 1768.51 1002.35 1768.53 1014.2 C 1770.85 1014.14 1773.19 1014.35 1775.51 1014.51 C 1792.42 1015.71 1866.45 1023.93 1875.1 1034.99 C 1876.43 1036.68 1876.25 1037.17 1876.02 1039.27 C 1875.29 1040.21 1874.52 1040.98 1873.56 1041.68 C 1852.27 1057.21 1715.14 1065.9 1681.39 1068.13 C 1416.17 1083.08 1150.51 1088.73 884.899 1085.06 C 747.14 1084.43 609.409 1080.9 471.799 1074.48 C 432.185 1072.54 178.988 1061.03 162.412 1040.01 C 161.911 1037.63 161.665 1036.56 163.288 1034.43 C 174.829 1019.32 310.61 1010.02 336.088 1008.37 C 330.116 1006.17 323.357 1003.4 317.524 1000.87 C 267.984 979.529 228.9 939.45 208.808 889.388 C 188.352 837.693 186.704 777.281 209.029 725.8 C 235.356 665.09 291.863 625.025 348.112 594.08 C 358.977 588.103 375.851 578.449 386.883 574.151 C 388.133 536.864 387.007 493.107 386.999 455.307 C 390.315 455.339 393.804 455.432 397.104 455.343 C 397.003 468.514 395.944 563.852 397.94 567.819 z"/>
<path transform="translate(0,0)" fill="rgb(188,208,247)" d="M 1668.35 354.072 C 1706.03 318.157 1770.8 333.409 1773.37 389.456 C 1773.48 391.932 1774.06 397.946 1775.07 400.045 C 1828.03 432.382 1865.63 484.782 1879.32 545.302 C 1906.48 660.601 1863.5 771.731 1818.76 876.391 C 1808.23 901.022 1785.25 953.434 1771.84 975.171 C 1771.02 976.508 1770.17 977.824 1769.29 979.118 C 1768.36 990.957 1768.51 1002.35 1768.53 1014.2 C 1765.66 1015.55 1761.13 1016.34 1758.15 1016.1 C 1746.69 1015.19 1668.03 1018.2 1663.44 1014.75 C 1661.43 1011.66 1661.94 1008.77 1661.97 1004.94 L 1661.92 932.08 L 1713.39 932.104 C 1712.48 926.974 1712.81 907.019 1712.81 900.901 L 1712.85 837.629 C 1707.35 837.233 1701.37 836.288 1696.17 835.797 C 1651.19 831.552 1620.48 826.289 1608.75 775.572 C 1600.95 741.809 1611.39 717.01 1626.08 686.762 C 1630.58 677.52 1635.33 664.688 1636.59 654.429 C 1641.09 618.799 1628.41 585.038 1630 549.187 C 1631.5 515.67 1651.36 490.276 1657.52 458.697 C 1664.81 421.261 1645.55 389.258 1668.35 354.072 z"/>
<path transform="translate(0,0)" fill="rgb(220,231,253)" d="M 1719.03 838.418 C 1739.35 839.125 1756.69 839.291 1775.93 830.779 C 1826.94 808.204 1839.24 733.117 1812.94 687.883 C 1802.46 669.862 1789.17 652.993 1785 632.004 C 1778.85 601.081 1801.79 572.665 1791.87 542.087 C 1787.08 527.167 1777.49 516.18 1771.22 502.071 C 1759.79 476.365 1765.46 452.673 1770.68 426.568 C 1771.99 420.027 1772.85 405.72 1775.07 400.045 C 1828.03 432.382 1865.63 484.782 1879.32 545.302 C 1906.48 660.601 1863.5 771.731 1818.76 876.391 C 1808.23 901.022 1785.25 953.434 1771.84 975.171 C 1771.02 976.508 1770.17 977.824 1769.29 979.118 C 1767.42 971.419 1768.12 942.21 1768.16 932.104 L 1718.98 932.072 L 1719.03 838.418 z"/>
<path transform="translate(0,0)" fill="rgb(145,181,244)" d="M 1713.19 709.118 C 1714.04 656.045 1712.53 602.669 1713.44 549.572 C 1713.48 547.018 1713.99 544.63 1715.43 542.504 L 1716.89 543.085 C 1720.61 550.134 1719.08 565.036 1719.07 573.458 L 1719.05 624.502 L 1719.14 785.144 C 1724.75 777.284 1754.15 732.95 1759.75 729.865 L 1761.18 731.949 C 1760.81 736.698 1724.74 786.582 1719.31 794.348 C 1718.65 807.656 1719.06 824.84 1719.03 838.418 L 1718.98 932.072 L 1768.16 932.104 C 1768.12 942.21 1767.42 971.419 1769.29 979.118 C 1768.36 990.957 1768.51 1002.35 1768.53 1014.2 C 1765.66 1015.55 1761.13 1016.34 1758.15 1016.1 C 1746.69 1015.19 1668.03 1018.2 1663.44 1014.75 C 1661.43 1011.66 1661.94 1008.77 1661.97 1004.94 L 1661.92 932.08 L 1713.39 932.104 C 1714.89 924.994 1713.94 729.728 1712.19 723.008 C 1706.6 701.398 1670.92 641.489 1671.43 626.727 L 1672.92 626.98 C 1682.75 637.76 1703.13 691.277 1713.19 709.118 z"/>
<path transform="translate(0,0)" fill="rgb(188,208,247)" d="M 1619.04 979.537 C 1624.11 984.504 1633.67 992.705 1635.16 999.485 L 1634.36 1002.6 C 1637.72 1005.11 1656.55 1004.98 1661.97 1004.94 C 1661.94 1008.77 1661.43 1011.66 1663.44 1014.75 C 1668.03 1018.2 1746.69 1015.19 1758.15 1016.1 C 1761.13 1016.34 1765.66 1015.55 1768.53 1014.2 C 1770.85 1014.14 1773.19 1014.35 1775.51 1014.51 C 1792.42 1015.71 1866.45 1023.93 1875.1 1034.99 C 1876.43 1036.68 1876.25 1037.17 1876.02 1039.27 C 1875.29 1040.21 1874.52 1040.98 1873.56 1041.68 C 1852.27 1057.21 1715.14 1065.9 1681.39 1068.13 C 1416.17 1083.08 1150.51 1088.73 884.899 1085.06 C 747.14 1084.43 609.409 1080.9 471.799 1074.48 C 432.185 1072.54 178.988 1061.03 162.412 1040.01 C 161.911 1037.63 161.665 1036.56 163.288 1034.43 C 174.829 1019.32 310.61 1010.02 336.088 1008.37 L 338.95 1007.03 L 339.037 1022.83 C 396.178 1023.69 457.738 1023.42 514.938 1022.71 L 514.975 998.185 C 534.259 998.089 557.153 996.642 576.665 995.942 C 609.435 994.781 642.212 993.835 674.995 993.106 C 674.551 1001.55 671.754 1016.03 674.911 1021.86 C 678.577 1023.97 679.191 1023.18 684.1 1023.15 L 704.183 1023.12 L 715.143 1022.96 C 716.578 1012.67 718.333 999.229 720.423 989.185 C 720.674 990.128 720.689 991.112 721.451 991.287 C 728.356 992.878 765.356 991.683 770.298 990.147 L 771.54 986.99 C 772.222 995.093 772.868 1024.61 775.806 1029.61 C 777.193 1030.06 778.113 1030.43 779.564 1030.67 C 787.167 1029.77 794.657 1030.06 802.308 1030.15 L 816.175 1030.09 C 816.046 1016.97 816.497 1003.2 816.725 990.037 C 842.862 990.088 868.999 989.933 895.134 989.572 C 902.386 989.486 928.958 988.645 935.007 989.75 L 935.809 989.931 C 941.526 993.93 943.315 994.638 949.947 996.949 C 952.042 995.756 954.797 992.701 956.598 990.883 L 963.662 994.832 L 972.094 987.698 C 976.831 990.212 1071.82 988.843 1085.39 989.137 L 1082.63 1029.07 C 1088.28 1029.13 1097.16 1028.94 1102.47 1029.87 L 1107.52 1029.86 C 1110.15 1030.06 1110.2 1030.04 1112.81 1029.58 C 1118.07 1023.58 1121.77 998.675 1123.52 989.239 C 1146.73 989.641 1364.9 993.267 1367.52 992.228 L 1368.67 1001.81 L 1381.17 1005.55 C 1389.89 1007.54 1396.05 1008.17 1405.05 1007.93 C 1406.93 1007.63 1408.05 1007.25 1409.84 1006.69 C 1412.22 1003.71 1411.83 998.49 1411.94 994.46 C 1472.29 996.044 1532.62 998.312 1592.91 1001.26 C 1594.42 998.468 1596.57 995.093 1598.24 992.313 C 1608.52 990.204 1612.19 987.397 1619.04 979.537 z"/>
<path transform="translate(0,0)" fill="rgb(2,2,72)" d="M 1619.04 979.537 C 1624.11 984.504 1633.67 992.705 1635.16 999.485 L 1634.36 1002.6 C 1622.83 1006.49 1594.44 1042.84 1582.53 1038.79 C 1577.15 1030.65 1589.03 1009.17 1592.91 1001.26 C 1594.42 998.468 1596.57 995.093 1598.24 992.313 C 1608.52 990.204 1612.19 987.397 1619.04 979.537 z"/>
<path transform="translate(0,0)" fill="rgb(2,2,72)" d="M 1380.72 1031.65 C 1389.22 1037.21 1394.66 1037.29 1404.62 1035.86 C 1405.18 1042.33 1407.57 1056.87 1402.93 1061.55 C 1388.9 1063.15 1356.23 1062.15 1341.11 1061.06 C 1338.92 1060.9 1338.15 1058.88 1337.38 1057.29 C 1339.8 1046.42 1370.51 1035.17 1380.72 1031.65 z"/>
<path transform="translate(0,0)" fill="rgb(2,2,72)" d="M 779.564 1030.67 C 787.167 1029.77 794.657 1030.06 802.308 1030.15 C 809.653 1036.25 814.45 1038.89 823.25 1042.67 C 827.256 1044.36 831.246 1046.08 835.222 1047.84 C 839.857 1049.91 844.404 1051.51 846.241 1056.29 C 839.285 1065.02 794.825 1060.34 784.467 1057.53 C 782.395 1050.97 781.623 1046.41 780.426 1039.7 L 779.564 1030.67 z"/>
<path transform="translate(0,0)" fill="rgb(253,146,145)" d="M 779.564 1030.67 C 787.167 1029.77 794.657 1030.06 802.308 1030.15 C 809.653 1036.25 814.45 1038.89 823.25 1042.67 C 810.903 1053.88 793.935 1043.91 780.426 1039.7 L 779.564 1030.67 z"/>
<path transform="translate(0,0)" fill="rgb(2,2,72)" d="M 659.688 1042.74 C 672.755 1053.21 688.903 1045.04 702.398 1039.06 C 701.294 1046.8 700.804 1050.08 698.206 1057.65 C 688.831 1060 642.427 1065.24 637.636 1056.17 C 639.651 1049.82 653.641 1045.23 659.688 1042.74 z"/>
<path transform="translate(0,0)" fill="rgb(2,2,72)" d="M 1105.59 1038.59 C 1114.96 1040.95 1132.35 1048.64 1137.3 1056.96 C 1119.86 1056.75 1102.43 1056.75 1084.99 1056.96 C 1084.71 1051.94 1085.59 1042.32 1089.12 1038.74 C 1096.09 1039.27 1098.69 1039.38 1105.59 1038.59 z"/>
<path transform="translate(0,0)" fill="rgb(2,2,72)" d="M 935.007 989.75 L 935.809 989.931 C 941.526 993.93 943.315 994.638 949.947 996.949 C 956.951 1001.01 970.607 1018.53 971.012 1026.55 C 958.346 1021.7 936.698 1010.71 923.935 1004.7 C 926.838 998.837 930.119 994.108 935.007 989.75 z"/>
<path transform="translate(0,0)" fill="rgb(253,146,145)" d="M 1381.17 1005.55 C 1389.89 1007.54 1396.05 1008.17 1405.05 1007.93 C 1404.94 1013.48 1403.78 1031.45 1404.62 1035.86 C 1394.66 1037.29 1389.22 1037.21 1380.72 1031.65 C 1381.24 1024.46 1381.04 1013.09 1381.17 1005.55 z"/>
<path transform="translate(0,0)" fill="rgb(253,146,145)" d="M 684.1 1023.15 L 704.183 1023.12 C 703.648 1027.86 702.683 1034.46 702.398 1039.06 C 688.903 1045.04 672.755 1053.21 659.688 1042.74 C 672.395 1036.75 677.714 1035.59 684.1 1023.15 z"/>
<path transform="translate(0,0)" fill="rgb(249,250,250)" d="M 923.935 1004.7 C 936.698 1010.71 958.346 1021.7 971.012 1026.55 C 970.673 1028.61 971.101 1027.68 969.399 1029.26 C 960.908 1029.65 931.975 1015.89 924.131 1010.11 C 922.804 1009.13 923.708 1006.11 923.935 1004.7 z"/>
<path transform="translate(0,0)" fill="rgb(249,250,250)" d="M 1084.99 1056.96 C 1102.43 1056.75 1119.86 1056.75 1137.3 1056.96 C 1137.15 1057.67 1136.57 1059.02 1136.3 1059.68 C 1130.21 1062.7 1096.54 1063.1 1088.47 1062.69 C 1085.7 1060.87 1086.28 1060.56 1084.99 1056.96 z"/>
<path transform="translate(0,0)" fill="rgb(249,250,250)" d="M 1102.47 1029.87 L 1107.52 1029.86 C 1107.13 1032.9 1107.04 1035.97 1105.59 1038.59 C 1098.69 1039.38 1096.09 1039.27 1089.12 1038.74 C 1087.89 1036.22 1088.07 1034.29 1089.12 1031.79 C 1092.64 1029.54 1098.04 1029.99 1102.47 1029.87 z"/>
<path transform="translate(0,0)" fill="rgb(220,231,253)" d="M 336.088 1008.37 C 330.116 1006.17 323.357 1003.4 317.524 1000.87 C 267.984 979.529 228.9 939.45 208.808 889.388 C 188.352 837.693 186.704 777.281 209.029 725.8 C 235.356 665.09 291.863 625.025 348.112 594.08 C 358.977 588.103 375.851 578.449 386.883 574.151 L 387.015 760.095 L 368.72 760.125 L 368.857 760.604 C 377.685 771.097 372.613 771.556 369.833 781.551 L 369.119 781.832 C 361.404 791.427 360.208 797.837 369.769 806.913 C 360.124 807.029 332.11 807.848 324.553 805.907 C 322.534 806.482 320.231 806.624 319.559 808.319 C 317.471 813.587 318.941 822.559 318.969 828.335 L 338.914 828.251 L 338.95 1007.03 L 336.088 1008.37 z"/>
<path transform="translate(0,0)" fill="rgb(254,115,105)" d="M 325.783 781.898 C 339.298 781.863 355.856 781.362 369.119 781.832 C 361.404 791.427 360.208 797.837 369.769 806.913 C 360.124 807.029 332.11 807.848 324.553 805.907 C 314.83 797.448 317.823 789.571 325.783 781.898 z"/>
<path transform="translate(0,0)" fill="rgb(188,208,247)" d="M 363.475 762.092 C 364.904 761.102 367.068 760.929 368.857 760.604 C 377.685 771.097 372.613 771.556 369.833 781.551 L 369.119 781.832 C 355.856 781.362 339.298 781.863 325.783 781.898 C 321.309 782.029 318.078 782.649 314.643 780.013 L 320.168 778.699 C 323.029 772.208 323.519 771.622 321.31 765.08 L 317.773 763.141 C 324.135 763.046 359.538 763.345 363.475 762.092 z"/>
<path transform="translate(0,0)" fill="rgb(249,250,250)" d="M 321.31 765.08 C 338.846 765.029 349.961 764.224 361.713 778.702 C 348.484 778.967 333.439 779.187 320.168 778.699 C 323.029 772.208 323.519 771.622 321.31 765.08 z"/>
<path transform="translate(0,0)" fill="rgb(41,49,167)" d="M 363.475 762.092 C 364.904 761.102 367.068 760.929 368.857 760.604 C 377.685 771.097 372.613 771.556 369.833 781.551 L 369.119 781.832 C 355.856 781.362 339.298 781.863 325.783 781.898 C 321.309 782.029 318.078 782.649 314.643 780.013 C 328.621 779.386 360.675 783.257 369.578 774.613 C 372.11 768.31 368.486 765.59 363.475 762.092 z"/>
<path transform="translate(0,0)" fill="rgb(66,79,241)" d="M 317.773 763.141 C 317.258 762.953 315.979 762.059 315.454 761.719 L 315.965 760.718 C 320.671 759.195 360.79 760.016 368.72 760.125 L 368.857 760.604 C 367.068 760.929 364.904 761.102 363.475 762.092 C 359.538 763.345 324.135 763.046 317.773 763.141 z"/>
<path transform="translate(0,0)" fill="rgb(66,79,241)" d="M 1457.26 495.11 C 1495.32 496.347 1527.42 510.454 1553.07 538.681 C 1592.07 581.596 1619.58 642.262 1553.71 676.922 L 1553.85 753.491 C 1549.29 754.397 1541.78 755.311 1538.35 758.149 C 1538.11 759.313 1537.73 760.886 1537.59 762.023 C 1537.32 759.723 1537.24 759.77 1536.19 757.829 C 1534.12 758.371 1533.9 758.361 1531.87 758.466 C 1528.55 756.143 1523.73 747.78 1521.29 743.978 L 1513.46 759.273 C 1458.6 765.492 1434.66 764.749 1384.07 746.389 L 1376.96 743.48 C 1384.37 720.851 1387.35 690.874 1391.5 667.103 C 1387.65 660.411 1386.07 657.447 1385.74 649.765 C 1374.53 659.385 1323.41 696.103 1309.89 692.558 C 1307.91 687.69 1300.6 679.149 1297.08 674.679 L 1291.31 667.261 C 1313.66 644.471 1333.98 616.831 1351.73 590.36 C 1367.21 567.268 1395.87 503.613 1429.21 503.972 C 1437.55 507.968 1458.19 506.252 1457.26 495.11 z"/>
<path transform="translate(0,0)" fill="rgb(66,79,241)" d="M 1454.37 633.194 C 1478.04 660.021 1500.55 676.523 1537.69 679.076 C 1542.53 679.408 1549.37 679.266 1553.71 676.922 L 1553.85 753.491 C 1549.29 754.397 1541.78 755.311 1538.35 758.149 C 1538.11 759.313 1537.73 760.886 1537.59 762.023 C 1537.32 759.723 1537.24 759.77 1536.19 757.829 C 1534.12 758.371 1533.9 758.361 1531.87 758.466 C 1528.55 756.143 1523.73 747.78 1521.29 743.978 L 1513.46 759.273 C 1458.6 765.492 1434.66 764.749 1384.07 746.389 L 1376.96 743.48 C 1384.37 720.851 1387.35 690.874 1391.5 667.103 C 1395.95 667.981 1394.59 668.293 1398.17 667.049 C 1403.49 659.607 1393.42 654.165 1405.84 646.09 C 1410.7 642.81 1415.52 638.488 1420.82 638.183 C 1421.91 637.498 1448.61 634.778 1454.37 633.194 z"/>
<path transform="translate(0,0)" fill="rgb(236,90,86)" d="M 1405.84 646.09 C 1410.7 642.81 1415.52 638.488 1420.82 638.183 L 1416.34 651.517 C 1417.97 655.024 1419.47 657.144 1418.77 660.832 L 1417.11 662.542 C 1408.37 661.752 1406.93 653.203 1405.84 646.09 z"/>
<path transform="translate(0,0)" fill="rgb(254,115,105)" d="M 1463.97 531.992 C 1468.47 530.782 1473 529.554 1477.49 528.284 C 1483.76 526.509 1491.44 519.269 1497.75 522.177 C 1500.12 526.814 1496.62 536.445 1494.94 541.627 C 1493.32 546.685 1491.44 551.656 1489.32 556.52 C 1490.02 560.929 1490.58 567.984 1493.17 571.258 C 1497.94 573.882 1500.23 572.56 1505.79 571.047 L 1507.17 569.623 C 1510.26 567.282 1512.91 564.734 1516.75 564.506 L 1519.02 565.436 C 1521.25 575.059 1506.68 580.991 1499.8 583.492 C 1506.17 586.106 1509.58 587.474 1516.37 589.186 C 1520.08 587.893 1523.53 586.164 1527.19 587.444 L 1529.1 589.239 C 1528.83 594.84 1526.46 595.908 1522.22 599.178 C 1504.57 601.762 1480.56 601.451 1463.61 607.21 C 1459.21 607.837 1458.41 607.914 1454.29 609.84 C 1451.4 607.233 1446.19 601.39 1443.3 598.362 C 1453.58 593.467 1460.72 586.243 1468.23 578.073 C 1465.31 570.65 1456.53 557.816 1451.6 551.132 C 1454.98 550.816 1460.77 548.808 1460.77 544.8 C 1458.49 542.564 1456.66 542.757 1453.4 542.383 L 1458.15 536.029 L 1463.97 531.992 z"/>
<path transform="translate(0,0)" fill="rgb(254,115,105)" d="M 1389.32 619.028 C 1381.44 614.09 1371.86 609.025 1367.73 600.225 C 1364.81 594.034 1362.75 580.723 1370.87 577.662 C 1376.97 580.714 1378.04 595.605 1381.65 602.116 C 1389.36 616.037 1392.7 606.932 1402.4 601.918 C 1405.04 605.193 1406.54 605.381 1410.44 606.619 L 1411.58 608.842 C 1408.82 608.809 1406.07 608.849 1403.31 608.961 L 1402.77 610.153 C 1405.6 612.493 1408.36 613.754 1411.6 615.416 L 1407.5 617.202 L 1407.16 618.31 C 1416.01 627.303 1444.38 623.745 1450.51 626.468 L 1452.26 628.803 L 1454.37 633.194 C 1448.61 634.778 1421.91 637.498 1420.82 638.183 C 1415.52 638.488 1410.7 642.81 1405.84 646.09 C 1393.42 654.165 1403.49 659.607 1398.17 667.049 C 1394.59 668.293 1395.95 667.981 1391.5 667.103 C 1387.65 660.411 1386.07 657.447 1385.74 649.765 C 1393.33 637.75 1392.66 631.933 1389.32 619.028 z"/>
<path transform="translate(0,0)" fill="rgb(253,146,145)" d="M 1431.1 597.622 C 1429.1 593.149 1428.55 592.204 1428.08 587.345 L 1429.28 586.286 C 1433.52 588.392 1439.27 594.751 1443.3 598.362 C 1446.19 601.39 1451.4 607.233 1454.29 609.84 C 1453.5 613.871 1451.99 623.103 1450.51 626.468 C 1444.38 623.745 1416.01 627.303 1407.16 618.31 L 1407.5 617.202 L 1411.6 615.416 C 1408.36 613.754 1405.6 612.493 1402.77 610.153 L 1403.31 608.961 C 1406.07 608.849 1408.82 608.809 1411.58 608.842 L 1410.44 606.619 C 1406.54 605.381 1405.04 605.193 1402.4 601.918 C 1404.51 601.109 1403.56 601.714 1405.14 599.745 L 1405.43 600.498 L 1406.44 599.598 C 1404.11 597.349 1404.64 598.503 1404.4 595.46 C 1408.84 592.549 1424.64 596.528 1431.1 597.622 z"/>
<path transform="translate(0,0)" fill="rgb(236,90,86)" d="M 1453.4 542.383 C 1456.66 542.757 1458.49 542.564 1460.77 544.8 C 1460.77 548.808 1454.98 550.816 1451.6 551.132 C 1447.61 556.589 1441.7 578.474 1431.03 568.874 C 1425.88 556.251 1444.69 546.701 1453.4 542.383 z"/>
<path transform="translate(0,0)" fill="rgb(41,49,167)" d="M 1452.26 628.803 C 1457.76 634.27 1462.53 640.191 1467.93 645.397 C 1487.76 664.504 1513.71 678.092 1541.82 676.795 C 1543.62 676.712 1552.42 676.562 1553.71 676.922 C 1549.37 679.266 1542.53 679.408 1537.69 679.076 C 1500.55 676.523 1478.04 660.021 1454.37 633.194 L 1452.26 628.803 z"/>
<path transform="translate(0,0)" fill="rgb(236,90,86)" d="M 1458.15 536.029 C 1455.09 529.65 1449.05 519.017 1456.94 513.587 L 1459.26 514.38 C 1464.53 519.434 1463.63 524.57 1463.97 531.992 L 1458.15 536.029 z"/>
<path transform="translate(0,0)" fill="rgb(41,49,167)" d="M 1522.22 599.178 C 1528.71 599.655 1544.45 600.19 1549.71 601.565 L 1549.7 602.862 C 1546.17 603.111 1538.84 602.14 1534.86 601.583 C 1511.59 598.333 1485.52 607.183 1463.61 607.21 C 1480.56 601.451 1504.57 601.762 1522.22 599.178 z"/>
<path transform="translate(0,0)" fill="rgb(41,49,167)" d="M 1505.79 571.047 C 1503.57 564.232 1501.33 563.236 1499.04 553.771 C 1502.29 559.429 1504.72 563.503 1507.17 569.623 L 1505.79 571.047 z"/>
<path transform="translate(0,0)" fill="rgb(220,231,253)" d="M 830.361 688.14 C 835.974 699.372 838.25 704.795 846.963 714.115 C 852.686 711.527 857.222 709.594 863.166 707.406 C 866.008 703.055 866.255 701.929 867.738 696.927 C 912.589 698.4 958.136 696.588 1003.07 697.207 C 1010.33 697.307 1017.9 697.304 1025.16 697.146 C 1023.03 709.937 1009.57 798.798 1011.87 805.174 C 1016.54 807.845 1016.35 807.219 1016.47 812.807 C 1012.33 866.524 982.026 915.682 952.267 959.271 C 949.603 963.173 938.513 976.409 938.306 979.639 L 940.651 981.644 C 939.413 983.633 936.549 987.956 935.809 989.931 L 935.007 989.75 C 928.958 988.645 902.386 989.486 895.134 989.572 C 868.999 989.933 842.862 990.088 816.725 990.037 L 819.73 765.637 C 823.151 763.947 826.961 761.755 830.356 759.906 C 829.471 737.944 829.986 710.199 830.361 688.14 z"/>
<path transform="translate(0,0)" fill="rgb(253,146,145)" d="M 846.963 714.115 C 852.686 711.527 857.222 709.594 863.166 707.406 C 867.249 713.4 881.837 733.765 878.665 740.69 C 876.239 740.284 877.09 740.56 875.08 738.406 C 874.677 742.589 876.254 745.21 874.561 747.809 C 872.001 746.62 871.208 744.818 869.618 742.417 C 869.562 742.884 868.576 749.164 868.555 748.682 L 867.957 748.282 C 866.494 747.319 865.832 746.609 864.139 746.704 C 864.654 749.592 864.882 750.839 864.878 753.762 L 863.621 754.571 C 858.686 752.36 853.658 739.714 851.102 734.382 C 849.27 737.481 848.299 740.081 845.123 741.371 C 842.177 738.216 845.636 719.044 846.963 714.115 z"/>
<path transform="translate(0,0)" fill="rgb(2,2,72)" d="M 1521.29 743.978 C 1523.73 747.78 1528.55 756.143 1531.87 758.466 C 1533.9 758.361 1534.12 758.371 1536.19 757.829 C 1537.24 759.77 1537.32 759.723 1537.59 762.023 C 1539.31 804.714 1542.35 843.12 1559.4 882.973 C 1571.16 910.445 1586.24 926.919 1605.06 949.362 C 1606.74 951.365 1602.4 956.165 1601.05 957.61 C 1594.72 963.342 1589.61 967.701 1582.89 972.945 C 1587.54 978.793 1593.99 986.41 1598.24 992.313 C 1596.57 995.093 1594.42 998.468 1592.91 1001.26 C 1532.62 998.312 1472.29 996.044 1411.94 994.46 C 1411.83 998.49 1412.22 1003.71 1409.84 1006.69 C 1408.05 1007.25 1406.93 1007.63 1405.05 1007.93 C 1396.05 1008.17 1389.89 1007.54 1381.17 1005.55 L 1368.67 1001.81 L 1367.52 992.228 C 1365.35 962.457 1361.98 931.108 1359.33 901.247 C 1356.02 863.918 1357.57 851.191 1366.36 814.975 C 1372.05 792.058 1377.95 769.195 1384.07 746.389 C 1434.66 764.749 1458.6 765.492 1513.46 759.273 L 1521.29 743.978 z"/>
<path transform="translate(0,0)" fill="rgb(220,231,253)" d="M 1411.94 994.46 C 1412.64 955.904 1418.12 911.717 1420.87 873.053 C 1421.75 860.713 1442.96 794.075 1452.34 791.856 C 1463.27 801.143 1481.45 878.886 1496.11 899.141 C 1519.98 932.127 1543.33 953.375 1573.03 980.187 L 1582.89 972.945 C 1587.54 978.793 1593.99 986.41 1598.24 992.313 C 1596.57 995.093 1594.42 998.468 1592.91 1001.26 C 1532.62 998.312 1472.29 996.044 1411.94 994.46 z"/>
<path transform="translate(0,0)" fill="rgb(66,79,241)" d="M 736.253 679.354 L 778.163 679.364 C 778.368 690.399 778.676 701.676 778.873 712.686 C 779.395 741.851 779.897 775.77 819.73 765.637 L 816.725 990.037 C 816.497 1003.2 816.046 1016.97 816.175 1030.09 L 802.308 1030.15 C 794.657 1030.06 787.167 1029.77 779.564 1030.67 C 778.113 1030.43 777.193 1030.06 775.806 1029.61 C 772.868 1024.61 772.222 995.093 771.54 986.99 L 770.298 990.147 C 765.356 991.683 728.356 992.878 721.451 991.287 C 720.689 991.112 720.674 990.128 720.423 989.185 C 718.333 999.229 716.578 1012.67 715.143 1022.96 L 704.183 1023.12 L 684.1 1023.15 C 679.191 1023.18 678.577 1023.97 674.911 1021.86 C 671.754 1016.03 674.551 1001.55 674.995 993.106 C 675.181 975.583 676.943 952.699 677.848 934.876 L 683.615 820.512 C 684.517 802.332 686.235 779.392 686.059 761.612 C 744.995 789.163 735.964 714.999 736.253 679.354 z"/>
<path transform="translate(0,0)" fill="rgb(220,231,253)" d="M 755.288 769.201 C 758.082 794.042 759.547 822.668 761.376 847.782 L 771.54 986.99 L 770.298 990.147 C 765.356 991.683 728.356 992.878 721.451 991.287 C 720.689 991.112 720.674 990.128 720.423 989.185 L 755.288 769.201 z"/>
<path transform="translate(0,0)" fill="rgb(145,181,244)" d="M 338.914 828.251 C 396.303 827.969 457.83 827.143 514.962 828.393 L 514.975 998.185 L 514.938 1022.71 C 457.738 1023.42 396.178 1023.69 339.037 1022.83 L 338.95 1007.03 L 338.914 828.251 z"/>
<path transform="translate(0,0)" fill="rgb(188,208,247)" d="M 351.762 925.498 C 397.644 923.783 453.388 925.248 500.245 925.309 L 500.362 967.744 C 500.373 972.699 501.638 990.107 498.16 992.473 C 450.042 991.991 397.907 991.652 349.924 992.642 C 349.87 972.614 349.778 952.455 349.86 932.422 C 349.876 928.578 349.539 927.588 351.762 925.498 z"/>
<path transform="translate(0,0)" fill="rgb(145,181,244)" d="M 407.389 932.013 C 417.724 931.901 429.357 931.527 439.554 932.203 C 441.527 934.085 441.114 935.677 441.557 938.939 C 433.488 938.82 416.324 940.649 409.048 937.683 C 407.789 937.17 407.695 933.898 407.389 932.013 z"/>
<path transform="translate(0,0)" fill="rgb(188,208,247)" d="M 349.858 846.752 L 500.185 846.851 C 500.413 869.169 500.377 891.488 500.077 913.805 C 451.012 914.729 399.188 913.898 349.918 913.971 L 349.858 846.752 z"/>
<path transform="translate(0,0)" fill="rgb(145,181,244)" d="M 407.39 852.969 C 416.232 852.793 431.634 852.35 439.942 853.265 C 441.407 855.1 441.231 857.226 441.588 859.883 C 433.149 859.648 416.555 861.519 409.039 858.649 C 407.776 858.166 407.691 854.861 407.39 852.969 z"/>
<path transform="translate(0,0)" fill="rgb(2,2,72)" d="M 1016.47 812.807 C 1016.68 810.438 1016.41 807.334 1018.1 806.24 C 1023.3 802.873 1030.75 804.184 1036.13 805.01 C 1064.23 809.323 1104.43 829.101 1130.17 812.409 C 1130.98 829.845 1132.84 847.058 1133.5 864.705 C 1135 904.501 1132.12 950.068 1123.52 989.239 C 1121.77 998.675 1118.07 1023.58 1112.81 1029.58 C 1110.2 1030.04 1110.15 1030.06 1107.52 1029.86 L 1102.47 1029.87 C 1097.16 1028.94 1088.28 1029.13 1082.63 1029.07 L 1085.39 989.137 C 1071.82 988.843 976.831 990.212 972.094 987.698 L 963.662 994.832 L 956.598 990.883 C 954.797 992.701 952.042 995.756 949.947 996.949 C 943.315 994.638 941.526 993.93 935.809 989.931 C 936.549 987.956 939.413 983.633 940.651 981.644 L 938.306 979.639 C 938.513 976.409 949.603 963.173 952.267 959.271 C 982.026 915.682 1012.33 866.524 1016.47 812.807 z"/>
<path transform="translate(0,0)" fill="rgb(220,231,253)" d="M 972.094 987.698 C 1003.37 958.212 1022.35 933.302 1042.38 895.054 C 1052.19 876.325 1061.84 850.59 1074.34 834.165 C 1076.29 831.61 1077.55 831.87 1080.06 831.829 C 1083.31 833.71 1084.57 836.746 1085.49 840.239 C 1091.76 863.896 1089.28 964.752 1085.39 989.137 C 1071.82 988.843 976.831 990.212 972.094 987.698 z"/>
<path transform="translate(0,0)" fill="rgb(249,250,250)" d="M 940.651 981.644 C 946.496 984.606 951.073 987.452 956.598 990.883 C 954.797 992.701 952.042 995.756 949.947 996.949 C 943.315 994.638 941.526 993.93 935.809 989.931 C 936.549 987.956 939.413 983.633 940.651 981.644 z"/>
<path transform="translate(0,0)" fill="rgb(254,115,105)" d="M 733.878 485.744 C 736.546 485.823 741.763 485.826 744.189 486.256 C 750.366 493.214 769.594 495.616 774.738 485.944 L 780.99 485.668 C 793.619 491.069 806.806 496.882 817.408 505.749 C 818.964 507.05 822.002 510.378 823.651 510.559 C 826.315 517.332 830.223 524.503 832.359 531.124 L 835.197 537.846 C 837.809 545.281 840.308 552.755 842.693 560.265 C 854.506 595.221 868.27 644.861 869.152 680.978 L 869.015 686.989 L 868.409 691.866 L 867.738 696.927 C 866.255 701.929 866.008 703.055 863.166 707.406 C 857.222 709.594 852.686 711.527 846.963 714.115 C 838.25 704.795 835.974 699.372 830.361 688.14 C 829.986 710.199 829.471 737.944 830.356 759.906 C 826.961 761.755 823.151 763.947 819.73 765.637 C 779.897 775.77 779.395 741.851 778.873 712.686 C 778.676 701.676 778.368 690.399 778.163 679.364 L 736.253 679.354 C 737.411 616.856 735.709 548.276 733.878 485.744 z"/>
<path transform="translate(0,0)" fill="rgb(249,250,250)" d="M 733.878 485.744 C 736.546 485.823 741.763 485.826 744.189 486.256 C 750.366 493.214 769.594 495.616 774.738 485.944 L 780.99 485.668 C 779.309 508.873 779.402 535.642 779.041 559.168 C 778.193 599.227 777.901 639.297 778.163 679.364 L 736.253 679.354 C 737.411 616.856 735.709 548.276 733.878 485.744 z"/>
<path transform="translate(0,0)" fill="rgb(254,115,105)" d="M 1037 606.361 C 1054.74 603.829 1068.34 605.522 1085.75 609.589 L 1085.45 612.903 C 1090.54 618.981 1104.26 616.528 1110.95 614.739 C 1123.27 616.134 1147.44 619.546 1159.04 623.184 C 1159.38 632.028 1159.62 640.443 1160.63 649.244 C 1161.65 653.82 1162.28 653.362 1160.9 657.176 C 1154.54 662.708 1147.01 662.999 1138.76 666.776 C 1134.56 702.896 1131.43 739.133 1129.39 775.439 C 1129.08 781.517 1130.85 809.917 1130.17 812.409 C 1104.43 829.101 1064.23 809.323 1036.13 805.01 C 1030.75 804.184 1023.3 802.873 1018.1 806.24 C 1016.41 807.334 1016.68 810.438 1016.47 812.807 C 1016.35 807.219 1016.54 807.845 1011.87 805.174 C 1009.57 798.798 1023.03 709.937 1025.16 697.146 L 1026.05 692.396 C 1028.9 675.93 1032 664.434 1039.15 649.455 C 1031.79 644.094 1023.53 640.263 1018.4 633.106 C 1018.19 629.637 1018.7 630.162 1021.23 626.853 C 1025.93 620.359 1031.61 612.031 1037 606.361 z"/>
<path transform="translate(0,0)" fill="rgb(254,115,105)" d="M 675.927 549.095 C 682.664 536.353 684.099 518.356 695.32 507.565 C 705.562 497.717 720.707 490.877 733.878 485.744 C 735.709 548.276 737.411 616.856 736.253 679.354 C 735.964 714.999 744.995 789.163 686.059 761.612 C 683.975 758.194 684.501 697.412 683.826 687.452 C 678.661 699.287 674.889 705.054 663.911 711.767 C 658.697 708.99 654.964 706.915 649.347 704.899 C 636.199 686.072 661.309 601.338 667.679 577.587 C 669.366 571.298 675.443 554.22 675.927 549.095 z"/>
<path transform="translate(0,0)" fill="rgb(2,2,72)" d="M 675.927 549.095 C 649.57 526.033 683.838 510.496 681.64 491.851 C 678.256 463.148 661.396 456.284 698.128 438.237 C 709.222 432.786 707.023 416.955 709.812 405.01 C 716.975 374.329 740.421 367.743 768.622 374.788 C 818.876 386.63 802.794 432.578 810.524 469.768 C 812.272 478.179 819.345 488.039 823.961 495.518 C 824.152 500.149 823.816 505.831 823.651 510.559 C 822.002 510.378 818.964 507.05 817.408 505.749 C 806.806 496.882 793.619 491.069 780.99 485.668 L 774.738 485.944 C 769.594 495.616 750.366 493.214 744.189 486.256 C 741.763 485.826 736.546 485.823 733.878 485.744 C 720.707 490.877 705.562 497.717 695.32 507.565 C 684.099 518.356 682.664 536.353 675.927 549.095 z"/>
<path transform="translate(0,0)" fill="rgb(253,146,145)" d="M 766.31 394.054 C 777.955 400.258 787.668 404.363 792.843 417.599 C 796.119 425.978 793.537 423.298 799.733 428.742 C 799.686 432.85 796.353 435.057 793.325 437.469 C 790.592 452.234 789.877 462.137 774.281 467.896 C 774.242 472.331 773.857 482.052 774.738 485.944 C 769.594 495.616 750.366 493.214 744.189 486.256 C 750.154 469.992 743.188 458.848 734.878 445.334 C 727.49 443.267 716.327 436.464 727.694 430.662 C 730.394 430.862 735.892 432.465 737.369 430.527 C 746.286 418.822 759.589 406.981 766.31 394.054 z"/>
<path transform="translate(0,0)" fill="rgb(254,115,105)" d="M 771.274 428.462 L 772.626 428.248 C 775.135 434.695 777.462 438.624 771.905 443.588 C 770.142 443.17 770.261 443.198 768.813 442.097 L 772.422 439.639 C 773.494 436.986 771.403 433.241 771.274 428.462 z"/>
<path transform="translate(0,0)" fill="rgb(28,2,33)" d="M 778.327 415.309 C 783.673 415.421 787.332 414.843 789.832 419.798 C 785.802 419.078 782.735 418.505 778.785 417.433 L 778.327 415.309 z"/>
<path transform="translate(0,0)" fill="rgb(28,2,33)" d="M 751.586 419.695 C 754.128 419.606 754.012 419.563 756.38 420.449 C 754.921 422.513 752.514 422.824 749.715 423.886 L 747.936 425.091 L 746.5 424.625 C 748.118 421.161 747.918 422.046 751.586 419.695 z"/>
<path transform="translate(0,0)" fill="rgb(188,208,247)" d="M 843.23 543.91 L 938.794 543.895 L 938.834 680.977 L 869.152 680.978 C 868.27 644.861 854.506 595.221 842.693 560.265 C 843.627 554.439 843.357 549.758 843.23 543.91 z"/>
<path transform="translate(0,0)" fill="rgb(145,181,244)" d="M 832.359 531.124 C 872.628 530.637 913.315 530.933 953.615 530.952 C 954.975 540.319 954.108 553.707 954.181 563.37 C 954.507 606.247 953.723 649.241 954.168 692.109 C 977.27 692.091 1003.17 691.503 1026.05 692.396 L 1025.16 697.146 C 1017.9 697.304 1010.33 697.307 1003.07 697.207 C 958.136 696.588 912.589 698.4 867.738 696.927 L 868.409 691.866 L 869.015 686.989 L 869.152 680.978 L 938.834 680.977 L 938.794 543.895 L 843.23 543.91 C 843.357 549.758 843.627 554.439 842.693 560.265 C 840.308 552.755 837.809 545.281 835.197 537.846 L 832.359 531.124 z"/>
<path transform="translate(0,0)" fill="rgb(249,250,250)" d="M 835.197 537.846 L 946.771 537.858 L 946.731 686.871 L 869.015 686.989 L 869.152 680.978 L 938.834 680.977 L 938.794 543.895 L 843.23 543.91 C 843.357 549.758 843.627 554.439 842.693 560.265 C 840.308 552.755 837.809 545.281 835.197 537.846 z"/>
<path transform="translate(0,0)" fill="rgb(188,208,247)" d="M 953.615 530.952 C 954.975 540.319 954.108 553.707 954.181 563.37 C 954.507 606.247 953.723 649.241 954.168 692.109 C 977.27 692.091 1003.17 691.503 1026.05 692.396 L 1025.16 697.146 C 1017.9 697.304 1010.33 697.307 1003.07 697.207 C 958.136 696.588 912.589 698.4 867.738 696.927 L 868.409 691.866 C 894.03 692.985 927.098 692.155 953.26 692.145 C 952.53 649.95 953.6 607.424 953.132 565.196 C 953.009 554.14 952.852 541.941 953.615 530.952 z"/>
<path transform="translate(0,0)" fill="rgb(188,208,247)" d="M 318.969 828.335 C 318.941 822.559 317.471 813.587 319.559 808.319 C 320.231 806.624 322.534 806.482 324.553 805.907 C 332.11 807.848 360.124 807.029 369.769 806.913 C 380.234 807.001 416.402 807.83 425.199 806.225 C 432.462 808.523 517.228 806.811 532.76 806.852 C 532.78 813.768 532.959 821.535 532.7 828.361 L 514.962 828.393 C 457.83 827.143 396.303 827.969 338.914 828.251 L 318.969 828.335 z"/>
<path transform="translate(0,0)" fill="rgb(253,146,145)" d="M 1087.39 535.268 C 1101.58 536.288 1114.84 538.068 1128.88 535.713 C 1129.99 538.619 1131.6 544.535 1133.75 545.724 L 1133.64 546.788 C 1133.23 551.155 1133.28 551.429 1135.14 555.415 C 1139.06 563.838 1134.5 574.348 1131.67 582.152 C 1126.83 595.461 1099.27 591.818 1107.13 608.919 C 1108.5 611.896 1108.69 612.191 1110.95 614.739 C 1104.26 616.528 1090.54 618.981 1085.45 612.903 L 1085.75 609.589 C 1086.43 609.283 1087.58 608.423 1088.18 608.012 C 1089.68 603.866 1089.4 597.851 1089.45 593.279 C 1081.7 586.126 1079.76 583.793 1075.07 574.359 C 1069.61 572.004 1066.14 571.088 1064.46 565.059 C 1065.93 561.224 1064.97 562.612 1068.51 559.914 C 1072.94 560.196 1074.3 561.117 1078.27 563.057 C 1082.72 552.989 1085.72 546.375 1087.39 535.268 z"/>
<path transform="translate(0,0)" fill="rgb(249,250,250)" d="M 1120.58 576.409 C 1121.37 576.272 1121.95 576.526 1122.83 576.715 L 1123.24 578.969 C 1121.47 585.7 1116.77 586.778 1110.81 586.299 C 1108.11 584.348 1107.42 583.982 1105.68 581.178 L 1106.19 579.33 C 1109.75 577.224 1116.21 576.923 1120.58 576.409 z"/>
<path transform="translate(0,0)" fill="rgb(253,146,145)" d="M 1421.79 435.399 C 1454.9 413.242 1444.45 436.672 1452.24 447.861 C 1455.63 448.977 1457.06 447.682 1461.12 446.376 C 1464.81 449.609 1464.01 448.142 1465.43 452.16 C 1463.11 458.687 1457.98 458.405 1455.85 461.678 C 1451.78 467.923 1453.07 489.501 1457.26 495.11 C 1458.19 506.252 1437.55 507.968 1429.21 503.972 C 1428.72 498.794 1427.11 492.419 1425.96 487.238 C 1404.9 486.093 1406.9 478.692 1398.87 461.792 C 1397.94 460.471 1393.62 456.912 1394.24 455.122 C 1397.3 446.189 1398.86 448.801 1397.19 438.572 C 1408.2 432.402 1410.07 432.012 1421.79 435.399 z"/>
<path transform="translate(0,0)" fill="rgb(28,2,33)" d="M 1406.93 436.97 C 1410.58 437.701 1414.99 438.319 1415.12 442.835 C 1412.07 443.486 1412.75 443.116 1409.23 441.626 C 1408.25 441.396 1403.73 442.311 1402.28 442.473 L 1401.66 440.369 C 1401.45 440.62 1401.2 440.847 1401.05 441.139 C 1402.6 438.981 1404.55 438.248 1406.93 436.97 z"/>
<path transform="translate(0,0)" fill="rgb(2,0,5)" d="M 1433.41 437.665 C 1438.63 437.839 1441.19 437.035 1444.08 441.888 L 1443.32 443.464 L 1441.78 442.561 C 1437.75 440.905 1435.35 442.433 1430.92 442.203 L 1430.75 440.702 L 1433.41 437.665 z"/>
<path transform="translate(0,0)" fill="rgb(133,72,71)" d="M 1429.79 469.202 L 1430.36 469.531 C 1427.75 474.639 1419.51 473.606 1414.91 472.374 L 1414.51 470.661 C 1421.16 471.861 1423.86 471.988 1429.79 469.202 z"/>
<path transform="translate(0,0)" fill="rgb(145,181,244)" d="M 386.999 455.307 C 390.315 455.339 393.804 455.432 397.104 455.343 C 397.003 468.514 395.944 563.852 397.94 567.819 C 397.612 568.223 397.284 568.626 396.956 569.029 C 397.171 620.91 395.791 712.121 396.805 760.037 L 387.015 760.095 L 386.883 574.151 C 388.133 536.864 387.007 493.107 386.999 455.307 z"/>
<path transform="translate(0,0)" fill="rgb(253,146,145)" d="M 1236.07 513.709 C 1235.6 516.856 1234.31 521.114 1235.49 523.392 C 1238.16 520.857 1237.33 520.896 1240.4 520.269 C 1241.46 522.339 1240.85 522.565 1240.27 525.523 C 1242.15 525.398 1242.57 524.631 1244.39 523.366 C 1245.33 525.29 1244.33 528.19 1243.85 530.453 C 1245.46 530.123 1245.53 530.051 1247.01 529.33 C 1248.89 537.247 1235.78 547.132 1234.31 552.596 C 1219.78 606.505 1222.69 632.716 1160.63 649.244 C 1159.62 640.443 1159.38 632.028 1159.04 623.184 C 1170.46 622.977 1187.81 614.369 1195.52 606.087 C 1208.61 592.021 1217.58 566.077 1217.01 546.86 C 1216.8 539.873 1215.87 529.086 1218.72 523.211 L 1220.12 523.262 C 1221.38 525.839 1222.46 528.132 1223.58 530.777 C 1227.29 525.525 1231.99 518.482 1236.07 513.709 z"/>
<path transform="translate(0,0)" fill="rgb(253,146,145)" d="M 1021.23 626.853 C 1011.52 620.079 995.037 609.453 989.048 600.332 C 973.39 576.489 978.411 541.932 980.081 515.097 C 980.531 507.852 978.218 496.021 979.439 489.392 C 981.549 489.502 980.494 489.251 982.524 490.72 C 982.938 487.718 982.992 487.092 984.258 484.358 C 986.24 485.517 985.916 485.84 987.23 488.218 C 987.914 485.48 987.527 484.963 989.234 483.458 C 990.165 484.635 990.778 485.417 991.587 486.688 L 992.208 487.672 L 994.419 483.975 L 995.879 483.739 C 997.745 487.42 998.308 494.539 998.902 498.909 C 1002.28 495.172 1004.32 493.267 1008.15 489.97 C 1004.55 502.035 1002.34 504.651 997.743 515.497 C 991.614 529.971 993.986 559.442 1000.36 573.843 C 1006.36 587.432 1023.06 601.147 1037 606.361 C 1031.61 612.031 1025.93 620.359 1021.23 626.853 z"/>
<path transform="translate(0,0)" fill="rgb(2,2,72)" d="M 1414.69 394.999 C 1420.13 395.175 1427.21 395.519 1432.57 395.159 C 1471.52 392.546 1467.69 416.843 1461.12 446.376 C 1457.06 447.682 1455.63 448.977 1452.24 447.861 C 1444.45 436.672 1454.9 413.242 1421.79 435.399 C 1410.07 432.012 1408.2 432.402 1397.19 438.572 C 1389.39 436.879 1393.03 436.51 1387.91 432.78 C 1384.71 430.444 1380.32 430.205 1376.22 426.647 C 1375.52 423.913 1375.89 423.206 1377.78 420.314 C 1381.01 415.363 1381.33 413.543 1382.77 407.731 C 1391.43 405.206 1398.39 404.914 1406.23 402.869 L 1414.69 394.999 z"/>
<path transform="translate(0,0)" fill="rgb(2,2,72)" d="M 1068.51 559.914 C 1065.83 553.068 1059.48 520.284 1063.07 515.339 C 1066.87 516.521 1065.58 516.277 1068.69 519.852 C 1082.99 501.96 1102.66 504.555 1122.98 506.28 C 1128.16 506.719 1139.93 506.036 1140.84 511.841 C 1139.02 515.178 1135.42 517.125 1132.17 519.385 C 1134.4 520.81 1136.81 521.541 1139.3 522.461 C 1143.91 528.128 1136.39 529.919 1134.1 536.212 C 1133.5 537.852 1133.69 543.717 1133.75 545.724 C 1131.6 544.535 1129.99 538.619 1128.88 535.713 C 1114.84 538.068 1101.58 536.288 1087.39 535.268 C 1085.72 546.375 1082.72 552.989 1078.27 563.057 C 1074.3 561.117 1072.94 560.196 1068.51 559.914 z"/>
<path transform="translate(0,0)" fill="rgb(236,90,86)" d="M 387.015 760.095 L 396.805 760.037 C 403.278 759.894 408.324 759.297 413.287 764.289 C 419.897 770.938 414.744 777.448 408.777 781.771 C 413.003 781.761 419.751 781.405 423.518 782.65 L 423.615 784.096 L 421.35 785.25 C 415.393 789.075 411.804 786.343 404.912 787.841 C 410.23 788.051 411.949 787.164 415.487 789.777 C 415.559 789.932 419.547 802.659 419.876 803.876 C 422.719 804.242 423.042 804.345 425.199 806.225 C 416.402 807.83 380.234 807.001 369.769 806.913 C 360.208 797.837 361.404 791.427 369.119 781.832 L 369.833 781.551 C 372.613 771.556 377.685 771.097 368.857 760.604 L 368.72 760.125 L 387.015 760.095 z"/>
<path transform="translate(0,0)" fill="rgb(66,79,241)" d="M 387.015 760.095 L 396.805 760.037 C 403.278 759.894 408.324 759.297 413.287 764.289 C 419.897 770.938 414.744 777.448 408.777 781.771 C 397.176 781.256 381.698 781.605 369.833 781.551 C 372.613 771.556 377.685 771.097 368.857 760.604 L 368.72 760.125 L 387.015 760.095 z"/>
<path transform="translate(0,0)" fill="rgb(249,250,250)" d="M 404.912 787.841 C 410.23 788.051 411.949 787.164 415.487 789.777 C 415.559 789.932 419.547 802.659 419.876 803.876 L 375.945 804.173 C 382.805 790.875 390.574 789.252 404.912 787.841 z"/>
<path transform="translate(0,0)" fill="rgb(188,208,247)" d="M 375.945 804.173 C 362.655 801.827 363.109 784.716 381.035 784.665 C 394.408 784.627 407.948 784.888 421.35 785.25 C 415.393 789.075 411.804 786.343 404.912 787.841 C 390.574 789.252 382.805 790.875 375.945 804.173 z"/>
<path transform="translate(0,0)" fill="rgb(253,146,145)" d="M 1279.4 687.469 C 1275.21 686.925 1271.87 686.937 1269.34 683.676 C 1271.8 679.766 1291.35 676.061 1297.08 674.679 C 1300.6 679.149 1307.91 687.69 1309.89 692.558 C 1303.6 696.2 1295.85 716.766 1285 718.232 L 1283.97 717.254 C 1284.68 715.321 1285.26 713.923 1286.11 712.051 C 1283.16 714.304 1279.05 718.511 1275.45 716.711 C 1275.97 713.18 1279.26 709.887 1281.63 706.901 C 1278.53 709.354 1274.86 712.843 1271.06 712.614 C 1270.93 709.034 1272.21 707.947 1274.02 704.379 C 1271.17 706.562 1268.27 709.517 1264.65 708.729 C 1264.74 703.047 1275.24 692.279 1279.4 687.469 z"/>
<path transform="translate(0,0)" fill="rgb(253,146,145)" d="M 649.347 704.899 C 654.964 706.915 658.697 708.99 663.911 711.767 C 665.17 718.361 668.038 733.696 666.945 739.721 L 665.635 740.506 C 662.722 739.035 661.598 736.064 659.916 733.06 C 657.606 737.933 651.974 752.559 646.948 753.893 C 645.345 750.963 647.267 749.763 646.597 745.343 C 644.691 747.321 643.468 749.408 641.307 749.537 C 641.227 747.278 641.127 745.585 640.877 743.338 L 635.95 745.978 C 636.001 743.212 636.023 740.99 635.872 738.23 C 634.399 739.136 633.887 739.353 632.284 740.024 C 630.323 730.799 643.842 712.324 649.347 704.899 z"/>
<path transform="translate(0,0)" fill="rgb(253,146,145)" d="M 1601.05 957.61 C 1606.45 964.162 1614.14 972.913 1619.04 979.537 C 1612.19 987.397 1608.52 990.204 1598.24 992.313 C 1593.99 986.41 1587.54 978.793 1582.89 972.945 C 1589.61 967.701 1594.72 963.342 1601.05 957.61 z"/>
<path transform="translate(0,0)" fill="rgb(198,221,246)" d="M 904.973 413.351 C 893.802 402.034 886.208 391.559 879.646 377.035 C 868.013 351.649 867.188 322.628 877.36 296.622 C 925.573 171.012 1145.88 197.449 1142.5 340.626 C 1142.12 356.72 1136.71 369.002 1130.87 383.712 L 1128.62 386.935 C 1126.01 391.301 1123.87 394.267 1120.83 398.362 C 1116.6 404.271 1114.1 407.048 1109.21 412.228 C 1052.32 465.797 962.356 466.488 904.973 413.351 z"/>
<path transform="translate(0,0)" fill="rgb(66,79,241)" d="M 937.628 376.108 C 936.999 375.179 937.33 375.537 936.44 374.778 C 933.037 371.929 929.783 368.906 926.691 365.721 C 910.805 349.67 902.176 327.82 902.806 305.245 C 903.914 248.139 965.249 242.92 998.462 278.969 C 1004.68 288.304 1007.43 293.123 1011.54 303.974 L 1015.57 314.753 C 1018.99 318.011 1018.95 319.378 1019.21 324.206 C 1021.31 326.967 1023.5 330.073 1025.95 332.485 C 1039.8 333.268 1048.07 338.438 1047.86 353.922 C 1047.74 362.833 1039.48 372.36 1031.69 376.161 L 1029.85 378.119 C 1011.31 385.62 999.505 386.981 979.965 388.05 L 977.292 387.737 C 963.933 387.623 951.562 383.663 940.135 376.933 L 937.628 376.108 z"/>
<path transform="translate(0,0)" fill="rgb(254,115,105)" d="M 967.356 329.229 C 961.13 329.375 957.484 330.663 953.431 325.784 C 955.395 322.432 959.608 325.386 962.654 321.961 C 959.337 319.485 957.259 318.827 956.65 315.473 C 960.154 313.663 960.842 317.705 966.644 317.199 C 971.437 310.075 959.149 299.004 966.351 295.696 C 968.918 297.691 969.831 298.405 972.724 299.853 C 976.273 298.88 976.816 297.516 978.957 293.96 L 979.282 293.412 L 981.176 293.408 C 982.734 295.5 981.141 297.584 980.876 301.977 L 983.087 304.153 L 983.157 307.295 L 977.169 318.603 C 982.229 322.993 983.792 323.946 989.755 327.047 C 1000.7 325.588 1001.7 324.255 1011.29 330.362 C 1012.79 325.18 1014.22 319.976 1015.57 314.753 C 1018.99 318.011 1018.95 319.378 1019.21 324.206 C 1014.51 329.521 1009.52 332.938 1009.77 340.647 C 1011.33 342.972 1011.97 343.562 1012.49 346.238 C 1011.72 349.53 1011.67 350.272 1009.47 352.777 C 1006.08 351.282 1008.17 348.408 1005.09 345.667 C 1003.9 348.372 1003.81 348.603 1001.92 350.838 L 1001.07 350.686 C 998.878 350.298 1000.2 342.17 997.754 341.85 C 982.096 339.801 979.123 340.391 967.356 329.229 z"/>
<path transform="translate(0,0)" fill="rgb(236,90,86)" d="M 983.087 304.153 C 986.527 305.649 988.903 306.305 991.093 309.408 C 991.937 312.667 992.197 311.639 990.908 313.987 C 985.849 314.226 985.365 311.392 983.157 307.295 L 983.087 304.153 z"/>
<path transform="translate(0,0)" fill="rgb(188,208,247)" d="M 955.982 346.822 C 963.208 347.119 979.896 347.368 983.434 353.422 C 983.543 356.928 982.275 358.195 980.359 361.199 C 975.847 361.833 955.875 355.781 953.122 353.491 C 953.244 349.831 953.776 350.153 955.982 346.822 z"/>
<path transform="translate(0,0)" fill="rgb(145,181,244)" d="M 937.628 376.108 L 940.135 376.933 C 951.562 383.663 963.933 387.623 977.292 387.737 L 979.965 388.05 C 999.505 386.981 1011.31 385.62 1029.85 378.119 C 1032 387.802 1034.33 397.445 1036.83 407.042 L 1037.84 410.191 L 1039.26 410.638 L 1040.31 408.182 C 1044.14 406.98 1049.84 406.832 1053.71 407.616 L 1055.58 413.183 C 1060.35 406.663 1062.63 404.581 1069.63 400.578 L 1070.78 401.215 L 1075.7 399.449 C 1076.3 399.941 1076.97 400.687 1077.54 400.755 C 1078.16 404.051 1078.16 406.15 1080.45 408.515 C 1090.01 413.644 1098.19 407.567 1109.21 412.228 C 1052.32 465.797 962.356 466.488 904.973 413.351 C 908.295 411.632 924.404 411.169 928.989 410.975 C 932.069 400.547 934.992 386.887 937.628 376.108 z"/>
<path transform="translate(0,0)" fill="rgb(198,221,246)" d="M 979.965 388.05 C 999.505 386.981 1011.31 385.62 1029.85 378.119 C 1032 387.802 1034.33 397.445 1036.83 407.042 C 1033.92 407.129 1028.05 407.096 1025.57 407.872 C 1022.4 407.595 1021.93 407.546 1018.91 408.483 C 1010.97 405.694 981.131 410.845 975.312 407.234 L 979.965 388.05 z"/>
<path transform="translate(0,0)" fill="rgb(198,221,246)" d="M 937.628 376.108 L 940.135 376.933 C 951.562 383.663 963.933 387.623 977.292 387.737 L 979.965 388.05 L 975.312 407.234 C 974.488 410.8 974.278 413.934 971.681 416.243 C 970.468 414.103 971.41 411.323 972.109 408.896 C 967.81 408.91 953.525 408.516 950.343 410.269 C 943.206 406.173 942.311 408.07 937.642 414.287 C 933.694 415.674 935.386 415.531 931.214 414.762 L 928.364 412.414 L 928.989 410.975 C 932.069 400.547 934.992 386.887 937.628 376.108 z"/>
<path transform="translate(0,0)" fill="rgb(2,2,72)" d="M 937.628 376.108 L 940.135 376.933 L 931.214 414.762 L 928.364 412.414 L 928.989 410.975 C 932.069 400.547 934.992 386.887 937.628 376.108 z"/>
<path transform="translate(0,0)" fill="rgb(2,2,72)" d="M 977.292 387.737 L 979.965 388.05 L 975.312 407.234 C 974.488 410.8 974.278 413.934 971.681 416.243 C 970.468 414.103 971.41 411.323 972.109 408.896 L 977.292 387.737 z"/>
<path transform="translate(0,0)" fill="rgb(249,250,250)" d="M 1018.91 408.483 C 1021.93 407.546 1022.4 407.595 1025.57 407.872 C 1026.07 409.556 1026.56 411.243 1027.04 412.934 C 1028.37 417.664 1028.99 418.672 1026.87 422.47 C 1023.72 424.44 1020.16 423.682 1016.43 423.365 L 1007.45 428.646 C 1002.87 427.085 998.496 424.871 994.129 422.784 L 1002.57 412.524 C 1003.52 412.577 1004.46 412.623 1005.41 412.665 C 1013.09 412.993 1013.52 413.423 1018.91 408.483 z"/>
<path transform="translate(0,0)" fill="rgb(249,250,250)" d="M 931.214 414.762 C 935.386 415.531 933.694 415.674 937.642 414.287 C 942.311 408.07 943.206 406.173 950.343 410.269 C 952.349 413.028 952.311 414.441 952.745 417.794 C 949.572 426.405 928.075 422.148 925.451 419.547 C 925.873 416.042 926.504 415.424 928.364 412.414 L 931.214 414.762 z"/>
<path transform="translate(0,0)" fill="rgb(249,250,250)" d="M 1069.63 400.578 L 1070.78 401.215 L 1071.65 401.939 C 1069.33 409.472 1067.97 412.277 1064.49 419.209 C 1059.82 417.127 1059.24 416.756 1055.58 413.183 C 1060.35 406.663 1062.63 404.581 1069.63 400.578 z"/>
<path transform="translate(0,0)" fill="rgb(236,90,86)" d="M 1064.49 419.209 C 1067.97 412.277 1069.33 409.472 1071.65 401.939 C 1075 412.459 1077.27 417.422 1064.49 419.209 z"/>
<path transform="translate(0,0)" fill="rgb(128,177,243)" d="M 1029.76 286.266 C 1041.02 297.654 1054.24 311.688 1065.87 322.346 L 1065.94 322.778 C 1069.9 324.677 1076.84 324.061 1081.49 323.973 L 1082.01 322.682 L 1086.12 323.048 C 1090.93 322.815 1095.46 321.806 1099.33 323.718 C 1100.38 326.72 1100.43 328.492 1100.77 331.61 C 1109.89 334.947 1120.9 328.923 1127.4 335.17 L 1127.85 338.406 C 1123.98 342.678 1121.59 337.212 1121.08 344.45 C 1120.46 353.185 1121.87 364.481 1120.62 372.873 L 1121.15 373.7 L 1120.89 378.663 C 1122.82 380.656 1127.11 384.881 1128.62 386.935 C 1126.01 391.301 1123.87 394.267 1120.83 398.362 C 1116.6 404.271 1114.1 407.048 1109.21 412.228 C 1098.19 407.567 1090.01 413.644 1080.45 408.515 C 1078.16 406.15 1078.16 404.051 1077.54 400.755 C 1076.97 400.687 1076.3 399.941 1075.7 399.449 L 1070.78 401.215 L 1069.63 400.578 C 1062.63 404.581 1060.35 406.663 1055.58 413.183 L 1053.71 407.616 C 1049.84 406.832 1044.14 406.98 1040.31 408.182 L 1039.26 410.638 L 1037.84 410.191 L 1036.83 407.042 C 1034.33 397.445 1032 387.802 1029.85 378.119 L 1031.69 376.161 C 1039.48 372.36 1047.74 362.833 1047.86 353.922 C 1048.07 338.438 1039.8 333.268 1025.95 332.485 C 1023.5 330.073 1021.31 326.967 1019.21 324.206 C 1018.95 319.378 1018.99 318.011 1015.57 314.753 L 1011.54 303.974 C 1017.65 297.799 1023.31 292.085 1029.76 286.266 z"/>
<path transform="translate(0,0)" fill="rgb(198,221,246)" d="M 1029.76 286.266 C 1041.02 297.654 1054.24 311.688 1065.87 322.346 L 1065.94 322.778 L 1063.33 324.003 L 1063.92 324.815 L 1067.84 325.344 L 1065.49 326.416 C 1064.97 328.299 1064.55 329.882 1064.14 331.793 C 1061.26 332.057 1053.43 332.509 1051.25 333.554 C 1050.31 336.841 1050.09 335.859 1050.99 338.663 C 1053.03 339.58 1054.48 340.277 1056.44 341.357 C 1058.05 349.512 1055.81 395.112 1057.7 397.405 L 1062.48 394.019 C 1062.43 394.017 1071.62 396.322 1073.42 396.666 L 1075.7 399.449 L 1070.78 401.215 L 1069.63 400.578 C 1062.63 404.581 1060.35 406.663 1055.58 413.183 L 1053.71 407.616 C 1049.84 406.832 1044.14 406.98 1040.31 408.182 L 1039.26 410.638 L 1037.84 410.191 L 1036.83 407.042 C 1034.33 397.445 1032 387.802 1029.85 378.119 L 1031.69 376.161 C 1039.48 372.36 1047.74 362.833 1047.86 353.922 C 1048.07 338.438 1039.8 333.268 1025.95 332.485 C 1023.5 330.073 1021.31 326.967 1019.21 324.206 C 1018.95 319.378 1018.99 318.011 1015.57 314.753 L 1011.54 303.974 C 1017.65 297.799 1023.31 292.085 1029.76 286.266 z"/>
<path transform="translate(0,0)" fill="rgb(236,90,86)" d="M 1053.71 407.616 C 1054.05 405.492 1054.76 403.715 1055.47 401.686 C 1059.66 397.463 1064.67 397.811 1069.63 400.578 C 1062.63 404.581 1060.35 406.663 1055.58 413.183 L 1053.71 407.616 z"/>
<path transform="translate(0,0)" fill="rgb(2,2,72)" d="M 1031.69 376.161 C 1034.68 385.639 1037.21 400.02 1040.31 408.182 L 1039.26 410.638 L 1037.84 410.191 L 1036.83 407.042 C 1034.33 397.445 1032 387.802 1029.85 378.119 L 1031.69 376.161 z"/>
<path transform="translate(0,0)" fill="rgb(188,208,247)" d="M 1062.32 375.155 L 1116.78 375.162 C 1116.88 383.018 1117.08 391.112 1116.95 398.941 C 1110.92 398.933 1081.91 398.217 1077.54 400.755 C 1076.97 400.687 1076.3 399.941 1075.7 399.449 L 1073.42 396.666 C 1071.62 396.322 1062.43 394.017 1062.48 394.019 C 1061.79 387.796 1062.15 381.423 1062.32 375.155 z"/>
<path transform="translate(0,0)" fill="rgb(188,208,247)" d="M 1082.01 322.682 L 1086.12 323.048 C 1090.93 322.815 1095.46 321.806 1099.33 323.718 C 1100.38 326.72 1100.43 328.492 1100.77 331.61 C 1109.89 334.947 1120.9 328.923 1127.4 335.17 L 1127.85 338.406 C 1123.98 342.678 1121.59 337.212 1121.08 344.45 C 1120.46 353.185 1121.87 364.481 1120.62 372.873 C 1119.47 366.581 1119.95 347.741 1119.98 340.255 C 1102.38 340.923 1075.55 340.959 1057.85 340.216 C 1057.92 350.944 1058.84 388.852 1057.7 397.405 C 1055.81 395.112 1058.05 349.512 1056.44 341.357 C 1054.48 340.277 1053.03 339.58 1050.99 338.663 C 1050.09 335.859 1050.31 336.841 1051.25 333.554 C 1053.43 332.509 1061.26 332.057 1064.14 331.793 C 1064.55 329.882 1064.97 328.299 1065.49 326.416 L 1067.84 325.344 L 1063.92 324.815 L 1063.33 324.003 L 1065.94 322.778 C 1069.9 324.677 1076.84 324.061 1081.49 323.973 L 1082.01 322.682 z"/>
<path transform="translate(0,0)" fill="rgb(128,177,243)" d="M 1082.01 322.682 L 1086.12 323.048 C 1090.93 322.815 1095.46 321.806 1099.33 323.718 C 1100.38 326.72 1100.43 328.492 1100.77 331.61 C 1096.01 332.741 1085.49 334.786 1081.83 331.658 C 1082.75 328.172 1082.9 327.312 1081.49 323.973 L 1082.01 322.682 z"/>
<path transform="translate(0,0)" fill="rgb(249,250,250)" d="M 1064.14 331.793 C 1064.55 329.882 1064.97 328.299 1065.49 326.416 L 1067.84 325.344 C 1071.71 325.996 1074.48 326.077 1077.59 328.379 L 1077.57 329.937 C 1073.62 332.325 1068.94 331.713 1064.14 331.793 z"/>
<path transform="translate(0,0)" fill="rgb(198,221,246)" d="M 1120.89 378.663 C 1122.82 380.656 1127.11 384.881 1128.62 386.935 C 1126.01 391.301 1123.87 394.267 1120.83 398.362 C 1120.71 392.026 1120.86 385.048 1120.89 378.663 z"/>
<path transform="translate(0,0)" fill="rgb(188,208,247)" d="M 1062.7 346.857 C 1080.74 347.017 1098.79 347.034 1116.83 346.907 C 1117.11 354.454 1116.83 363.308 1116.75 370.955 L 1062.2 370.895 L 1062.7 346.857 z"/>
<path transform="translate(0,0)" fill="rgb(145,181,244)" d="M 998.462 278.969 C 1011.96 265.615 1026.93 251.401 1040 237.816 C 1045.52 243.423 1053.5 252.03 1059.21 257.029 C 1055.79 260.3 1038.87 275.542 1038.59 278.938 L 1037.4 279.934 C 1034.51 280.86 1034.21 281.088 1032.03 283.218 C 1031.41 284.16 1030.58 285.651 1029.76 286.266 C 1023.31 292.085 1017.65 297.799 1011.54 303.974 C 1007.43 293.123 1004.68 288.304 998.462 278.969 z"/>
<path transform="translate(0,0)" fill="rgb(145,181,244)" d="M 1029.76 286.266 C 1030.58 285.651 1031.41 284.16 1032.03 283.218 L 1065.09 316.866 L 1065.87 322.346 C 1054.24 311.688 1041.02 297.654 1029.76 286.266 z"/>
<path transform="translate(0,0)" fill="rgb(66,79,241)" d="M 1069.14 315.773 C 1073.2 315.959 1075.9 316.087 1079.98 315.814 L 1082.23 317.268 C 1082.12 319.047 1081.96 320.909 1082.01 322.682 L 1081.49 323.973 C 1076.84 324.061 1069.9 324.677 1065.94 322.778 L 1065.87 322.346 L 1065.09 316.866 L 1069.14 315.773 z"/>
<path transform="translate(0,0)" fill="rgb(145,181,244)" d="M 1069.14 315.773 C 1074.17 315.137 1097.71 313.943 1101.07 316.59 L 1099.19 317.009 C 1095.14 317.254 1091.03 317.047 1087.68 319.164 L 1086.2 321.522 L 1086.12 323.048 L 1082.01 322.682 C 1081.96 320.909 1082.12 319.047 1082.23 317.268 L 1079.98 315.814 C 1075.9 316.087 1073.2 315.959 1069.14 315.773 z"/>
<path transform="translate(0,0)" fill="rgb(249,250,250)" d="M 1086.2 321.522 L 1087.68 319.164 C 1091.03 317.047 1095.14 317.254 1099.19 317.009 L 1098.63 320.826 C 1095.26 322.997 1090.49 321.91 1086.2 321.522 z"/>
<path transform="translate(0,0)" fill="rgb(145,181,244)" d="M 1121.15 373.7 L 1130.87 383.712 L 1128.62 386.935 C 1127.11 384.881 1122.82 380.656 1120.89 378.663 L 1121.15 373.7 z"/>
<path transform="translate(0,0)" fill="rgb(188,208,247)" d="M 1038.59 278.938 C 1042.43 282.41 1047.3 286.25 1049.64 290.739 L 1048.76 291.186 C 1044.25 288.34 1040.91 283.985 1037.4 279.934 L 1038.59 278.938 z"/>
<path transform="translate(0,0)" fill="rgb(145,181,244)" d="M 1169.27 416.049 L 1312.91 416.017 C 1313.45 441.498 1312.95 469.381 1312.93 495.025 L 1169.34 495.021 C 1168.95 469.058 1169.29 442.086 1169.27 416.049 z"/>
<path transform="translate(0,0)" fill="rgb(249,250,250)" d="M 1174.92 421.713 C 1217.01 420.516 1264.7 421.663 1307.28 421.528 L 1307.35 489.848 L 1174.91 489.893 L 1174.92 421.713 z"/>
<path transform="translate(0,0)" fill="rgb(145,181,244)" d="M 1181.83 429.276 L 1300.07 429.319 L 1300.05 483.111 L 1181.76 483.086 C 1182.1 465.462 1181.83 446.968 1181.83 429.276 z"/>
<path transform="translate(0,0)" fill="rgb(145,181,244)" d="M 860.778 383.789 C 876.512 384.358 891.429 403.163 876.406 414.911 C 860.863 413.353 846.509 396.62 860.778 383.789 z"/>
<path transform="translate(0,0)" fill="rgb(145,181,244)" d="M 842.561 400.52 C 847.085 399.45 851.622 402.242 852.706 406.763 C 853.79 411.283 851.013 415.829 846.495 416.927 C 841.958 418.03 837.388 415.237 836.299 410.697 C 835.21 406.156 838.017 401.595 842.561 400.52 z"/>
<path transform="translate(0,0)" fill="rgb(188,208,247)" d="M 283.95 382.09 L 500.06 382.034 C 499.836 405.532 500.689 432.011 499.892 455.042 L 451.085 455.06 C 442.342 455.036 428.29 454.585 420.234 455.663 C 414.613 461.558 421.408 503.606 416.06 509.866 L 413.881 509.373 C 412.236 505.035 414.757 505.293 413.551 501.434 C 411.024 493.353 415.809 462.071 412.075 456.508 C 407.396 454.574 402.231 455.118 397.104 455.343 C 393.804 455.432 390.315 455.339 386.999 455.307 C 353.25 454.568 317.71 455.117 283.829 455.146 L 283.95 382.09 z"/>
</svg>