<svg version="1.1" xmlns="http://www.w3.org/2000/svg" style="display: block;" viewBox="0 0 2048 2048" width="2000" height="2000" preserveAspectRatio="none">
<defs>
	<linearGradient id="Gradient1" gradientUnits="userSpaceOnUse" x1="1026.3" y1="969.641" x2="1033.89" y2="951.189">
		<stop class="stop0" offset="0" stop-opacity="1" stop-color="rgb(251,227,217)"/>
		<stop class="stop1" offset="1" stop-opacity="1" stop-color="rgb(239,242,240)"/>
	</linearGradient>
	<linearGradient id="Gradient2" gradientUnits="userSpaceOnUse" x1="837.557" y1="1217.12" x2="868.501" y2="1175.22">
		<stop class="stop0" offset="0" stop-opacity="1" stop-color="rgb(251,231,215)"/>
		<stop class="stop1" offset="1" stop-opacity="1" stop-color="rgb(239,242,242)"/>
	</linearGradient>
	<linearGradient id="Gradient3" gradientUnits="userSpaceOnUse" x1="1405.79" y1="1207.36" x2="952.001" y2="2098.7">
		<stop class="stop0" offset="0" stop-opacity="1" stop-color="rgb(53,92,158)"/>
		<stop class="stop1" offset="1" stop-opacity="1" stop-color="rgb(53,124,154)"/>
	</linearGradient>
	<linearGradient id="Gradient4" gradientUnits="userSpaceOnUse" x1="775.109" y1="1577.27" x2="779.324" y2="1579.49">
		<stop class="stop0" offset="0" stop-opacity="1" stop-color="rgb(214,107,97)"/>
		<stop class="stop1" offset="1" stop-opacity="1" stop-color="rgb(176,72,65)"/>
	</linearGradient>
</defs>
<path transform="translate(0,0)" fill="rgb(20,45,75)" d="M 1330.43 208.533 L 1331.44 207.75 C 1344.53 197.425 1357.46 183.956 1369.68 172.384 C 1391.41 151.803 1418.55 116.731 1451.72 118.325 C 1474.16 119.403 1488.22 159.236 1500.61 171.321 L 1501.82 171.097 C 1502.39 170.07 1503.75 167.741 1504.09 166.768 L 1503.65 166.171 C 1502.8 168.699 1503.06 167.69 1503.62 170.654 C 1507.32 174.839 1508.91 170.493 1509.76 173.759 C 1505.5 173.957 1505.02 173.215 1502.41 175.337 C 1502.57 176.787 1516.72 200.059 1518.23 201.888 C 1520.5 201.461 1519.36 201.817 1521.63 200.75 L 1522.15 202.476 C 1521.28 203.229 1520.41 203.981 1519.54 204.734 C 1521.34 210.032 1527.69 219.091 1527.97 220.994 C 1529.8 233.338 1533.37 247.016 1535.6 258.96 C 1538.98 260.193 1537.14 256.574 1539.63 258.428 L 1538.7 259.405 C 1534.23 264.173 1535.26 262.574 1534.24 268.612 L 1534.95 270.084 L 1537.17 270.185 C 1535.35 277.362 1529.85 294.841 1526.89 301.519 C 1585.27 360.761 1635.4 474.649 1643.82 555.939 C 1654.11 655.167 1656.96 678.397 1746.78 731.381 C 1844.05 788.763 1909.79 886.983 1905.15 1002.52 C 1903.69 1083.89 1883.88 1193.24 1829.04 1256.85 C 1815.55 1278.22 1795.18 1303.14 1779.92 1323.8 C 1768.49 1339.27 1751.09 1356.13 1742.58 1373.9 C 1732.21 1417.29 1735.89 1449.29 1731.5 1492.39 C 1722.24 1583.46 1669.55 1688.02 1589.92 1736 C 1562.01 1752.81 1484.1 1779.44 1452.5 1777.74 C 1384.11 1774.07 1314.8 1732.78 1248.54 1777.49 C 1214.5 1800.46 1193.65 1834.84 1163.98 1864.19 C 1236.87 1976.72 1078.17 1958.02 1017 1955.61 C 969.442 1953.87 921.925 1951.12 874.481 1947.38 C 831.209 1943.79 786.108 1938.63 743.028 1935.92 C 727 1934.99 710.943 1934.69 694.893 1935.02 C 660.227 1935.65 602.626 1939.64 583.286 1904.95 C 560.775 1864.57 612.728 1796.86 636.57 1764.62 C 645.357 1752.74 655.577 1742.35 663.639 1730.93 C 657 1722.16 650.083 1716.22 640.793 1710.56 C 594.123 1695.93 577.724 1703.59 531.64 1705 C 482.896 1709.27 458.473 1716.76 412.576 1693.87 C 377.813 1676.57 348.227 1650.41 326.8 1618.03 C 307.013 1588.39 293.427 1556.21 288.436 1520.79 C 281.769 1473.47 293.78 1411.96 268.498 1369.93 C 256.951 1350.73 238.538 1336.08 221.944 1321.41 C 175.833 1280.64 129.418 1236.63 109.503 1176.51 C 94.5857 1131.47 94.0226 1080.1 103.643 1033.83 C 135.971 878.36 222.608 858.157 318.54 758.156 C 337.605 738.282 356.17 715.891 369.223 691.567 C 403.183 628.286 406.501 558.091 424.995 490.11 C 434.582 454.869 451.024 421.661 467.215 389.076 C 469.592 384.146 471.571 380.607 474.298 375.952 C 530.298 268.194 677.553 187.442 797.15 183.685 C 825.06 182.808 866.902 189.388 893.862 197.922 C 965 220.437 1023.72 249.08 1100.14 250.23 C 1135.69 229.059 1202.87 226.11 1245.03 218.462 C 1268.75 213.379 1306.81 207.076 1330.43 208.533 z"/>
<path transform="translate(0,0)" fill="rgb(20,45,75)" d="M 474.298 375.952 C 530.298 268.194 677.553 187.442 797.15 183.685 C 825.06 182.808 866.902 189.388 893.862 197.922 C 965 220.437 1023.72 249.08 1100.14 250.23 C 1089.55 260.823 1071.25 275.359 1059.11 285.715 C 1040.79 301.333 1017.56 324.485 999.082 338.782 C 979.398 354.504 952.33 372.035 949.55 399.467 C 946.796 426.652 980.344 540.492 990.093 570.928 C 997.283 570.676 998.922 570.259 1004.26 575.58 C 1014.05 585.344 1020.13 602.015 1025.09 614.667 C 1026.86 620.235 1026.29 623.321 1025.87 629.046 C 1025.04 630.223 1024.26 631.163 1023.67 632.44 C 1024.64 637.206 1023.52 663.491 1023.94 671.479 C 1025.55 701.618 1040.35 752.646 1021.79 778.863 C 987.221 827.69 883.399 831.363 831.763 850.2 C 751.343 879.538 667.603 954.433 648.143 1039.29 C 644.829 1054.38 643.415 1069.82 643.936 1085.25 C 644.103 1090.08 645.042 1098.51 645.038 1102.61 C 655.984 1154.56 684.068 1196.96 728.834 1225.77 C 736.466 1230.69 742.963 1234.35 751.648 1237.1 L 754.746 1238.32 C 792.453 1256.4 819.708 1260.09 860.785 1260.2 C 873.207 1261.84 883.896 1264.31 896.066 1266.33 C 906.621 1268.08 921.703 1268.17 932.402 1268.18 L 938.977 1269.3 C 929.924 1281.42 911.267 1291.52 896.944 1295.99 C 895.095 1290.88 894.789 1289.8 891.528 1285.51 C 890.458 1283.75 889.727 1283.28 888.237 1281.77 C 887.846 1281.37 887.456 1280.97 887.065 1280.56 C 880.179 1273.68 870.78 1269.9 861.043 1270.1 C 830.006 1274.45 810.983 1296.82 806.463 1327.53 C 805.669 1332.93 807.192 1338.07 805.177 1343.44 C 810.447 1367.17 818.702 1383.64 831.857 1404.38 C 830.046 1423.39 826.549 1441.8 823.351 1460.6 C 823.168 1461.68 823.508 1462.96 824.155 1463.83 C 821.492 1479.48 811.795 1499.38 805.421 1514.21 C 801.231 1523.96 793.222 1536.88 792.569 1546.91 C 789.753 1553.74 786.092 1559.17 781.266 1564.74 L 779.375 1566.32 C 778.438 1568.62 773.56 1580.11 773.393 1581.76 C 758.532 1610.74 749.563 1629.69 732.265 1658.92 C 727.623 1665.28 724.997 1668.96 721.243 1675.8 C 699.686 1688.65 678.625 1710.64 663.639 1730.93 C 657 1722.16 650.083 1716.22 640.793 1710.56 C 594.123 1695.93 577.724 1703.59 531.64 1705 C 482.896 1709.27 458.473 1716.76 412.576 1693.87 C 377.813 1676.57 348.227 1650.41 326.8 1618.03 C 307.013 1588.39 293.427 1556.21 288.436 1520.79 C 281.769 1473.47 293.78 1411.96 268.498 1369.93 C 256.951 1350.73 238.538 1336.08 221.944 1321.41 C 175.833 1280.64 129.418 1236.63 109.503 1176.51 C 94.5857 1131.47 94.0226 1080.1 103.643 1033.83 C 135.971 878.36 222.608 858.157 318.54 758.156 C 337.605 738.282 356.17 715.891 369.223 691.567 C 403.183 628.286 406.501 558.091 424.995 490.11 C 434.582 454.869 451.024 421.661 467.215 389.076 C 469.592 384.146 471.571 380.607 474.298 375.952 z"/>
<path transform="translate(0,0)" fill="rgb(111,165,216)" d="M 667.823 1243.14 L 671.675 1243.02 L 672.602 1241.69 C 668.754 1236.44 663.987 1231.89 659.871 1226.61 C 647.466 1211 638.741 1192.78 634.346 1173.33 C 628.846 1148.58 631.303 1124.35 645.038 1102.61 C 655.984 1154.56 684.068 1196.96 728.834 1225.77 C 736.466 1230.69 742.963 1234.35 751.648 1237.1 L 754.746 1238.32 C 792.453 1256.4 819.708 1260.09 860.785 1260.2 C 873.207 1261.84 883.896 1264.31 896.066 1266.33 C 906.621 1268.08 921.703 1268.17 932.402 1268.18 L 938.977 1269.3 C 929.924 1281.42 911.267 1291.52 896.944 1295.99 C 895.095 1290.88 894.789 1289.8 891.528 1285.51 C 890.458 1283.75 889.727 1283.28 888.237 1281.77 C 887.846 1281.37 887.456 1280.97 887.065 1280.56 C 880.179 1273.68 870.78 1269.9 861.043 1270.1 C 830.006 1274.45 810.983 1296.82 806.463 1327.53 C 805.669 1332.93 807.192 1338.07 805.177 1343.44 C 810.447 1367.17 818.702 1383.64 831.857 1404.38 C 830.046 1423.39 826.549 1441.8 823.351 1460.6 C 823.168 1461.68 823.508 1462.96 824.155 1463.83 C 821.492 1479.48 811.795 1499.38 805.421 1514.21 C 801.231 1523.96 793.222 1536.88 792.569 1546.91 C 789.753 1553.74 786.092 1559.17 781.266 1564.74 L 779.375 1566.32 L 778.142 1565.92 C 769.941 1563.3 763.998 1560.35 756.236 1556.71 C 753.868 1516.14 747.957 1477.03 745.926 1436.49 C 745.206 1422.13 743.626 1406.9 744.173 1392.56 C 715.334 1398.2 689.483 1386.97 671.921 1364.33 C 644.367 1328.8 626.006 1279.21 666.876 1246.42 L 667.823 1243.14 z"/>
<path transform="translate(0,0)" fill="rgb(235,128,108)" d="M 805.177 1343.44 C 797.673 1323.66 808.701 1290.01 825.515 1277.67 C 837.745 1268.69 846.882 1268.37 861.043 1270.1 C 830.006 1274.45 810.983 1296.82 806.463 1327.53 C 805.669 1332.93 807.192 1338.07 805.177 1343.44 z"/>
<path transform="translate(0,0)" fill="rgb(238,238,238)" d="M 751.648 1237.1 L 754.746 1238.32 C 746.165 1245.97 719.249 1257.2 711.392 1245.99 L 713.277 1244.6 C 714.806 1244.67 716.95 1245.49 718.455 1246.06 C 729.789 1250.33 743.015 1243.64 751.648 1237.1 z"/>
<path transform="translate(0,0)" fill="rgb(238,238,238)" d="M 793.056 1458.26 L 794.836 1459.16 C 796.604 1463.07 792.353 1484.44 791.426 1490.16 L 789.745 1489.37 C 787.372 1483.83 791.561 1464.6 793.056 1458.26 z"/>
<path transform="translate(0,0)" fill="rgb(238,238,238)" d="M 723.699 1324.16 L 724.336 1324.07 C 736.756 1345.19 749.02 1332.62 754.819 1338.41 C 744.568 1342.55 722.963 1338.23 723.699 1324.16 z"/>
<path transform="translate(0,0)" fill="rgb(56,91,162)" d="M 474.298 375.952 C 530.298 268.194 677.553 187.442 797.15 183.685 C 825.06 182.808 866.902 189.388 893.862 197.922 C 965 220.437 1023.72 249.08 1100.14 250.23 C 1089.55 260.823 1071.25 275.359 1059.11 285.715 C 1040.79 301.333 1017.56 324.485 999.082 338.782 C 986.96 335.081 966.515 328.671 955.568 323.425 C 928.834 310.616 904.08 296.288 876.889 284.045 C 770.884 236.315 675.381 243.631 574.223 297.576 C 537.085 317.497 504.733 345.271 479.417 378.964 L 474.298 375.952 z"/>
<path transform="translate(0,0)" fill="rgb(246,180,173)" d="M 990.093 570.928 C 997.283 570.676 998.922 570.259 1004.26 575.58 C 1014.05 585.344 1020.13 602.015 1025.09 614.667 C 1026.86 620.235 1026.29 623.321 1025.87 629.046 C 1025.04 630.223 1024.26 631.163 1023.67 632.44 L 1018.99 631.767 C 1015.62 629.798 1015 627.378 1013.29 623.806 C 1002.91 604.931 996.898 591.112 990.093 570.928 z"/>
<path transform="translate(0,0)" fill="rgb(238,238,238)" d="M 1013.29 623.806 C 1017.92 622.603 1019.74 621.34 1023.94 622.442 C 1025.62 624.493 1025.53 626.364 1025.87 629.046 C 1025.04 630.223 1024.26 631.163 1023.67 632.44 L 1018.99 631.767 C 1015.62 629.798 1015 627.378 1013.29 623.806 z"/>
<path transform="translate(0,0)" fill="rgb(56,91,162)" d="M 531.64 1705 L 530.727 1702.82 C 534.243 1700.9 543.361 1699.78 547.56 1698.78 C 570.753 1693.22 623.36 1688.66 640.406 1708.84 L 640.793 1710.56 C 594.123 1695.93 577.724 1703.59 531.64 1705 z"/>
<path transform="translate(0,0)" fill="rgb(111,165,216)" d="M 666.876 1246.42 C 603.278 1225.32 584.925 1138.89 621.886 1087.46 C 624.536 1083.77 629.182 1077.43 633.106 1075.36 C 632.753 1077.08 632.979 1077.16 631.937 1078.39 C 597.968 1118.75 596.458 1185.57 635.249 1223.31 C 646.214 1233.98 653.797 1237.39 667.823 1243.14 L 666.876 1246.42 z"/>
<path transform="translate(0,0)" fill="rgb(43,70,109)" d="M 474.298 375.952 L 479.417 378.964 C 477.401 382.952 473.508 388.038 469.679 390.491 C 467.568 390.005 468.333 390.564 467.215 389.076 C 469.592 384.146 471.571 380.607 474.298 375.952 z"/>
<path transform="translate(0,0)" fill="rgb(111,165,216)" d="M 502.389 882.643 C 512.199 884.269 550.115 923.779 565.784 926.932 C 571.306 928.042 587.183 935.653 589.787 941.373 C 589.419 946.227 585.429 949.522 581.978 952.566 C 558.526 950.172 516.274 918.018 498.639 900.896 C 490.555 893.047 495.659 887.983 502.389 882.643 z"/>
<path transform="translate(0,0)" fill="rgb(111,165,216)" d="M 598.579 1453.9 C 600.074 1453.76 603.625 1453.83 604.743 1454.6 C 619.938 1465.02 587.014 1487.58 579.186 1493.34 C 571.599 1498.92 561.182 1507.13 552.359 1510.24 C 540.7 1510.37 538.859 1498.52 544.951 1494.98 C 565.223 1483.19 580.694 1467.96 598.579 1453.9 z"/>
<path transform="translate(0,0)" fill="rgb(111,165,216)" d="M 782.227 682.86 C 790.486 682.845 790.599 687.676 792.144 695.24 C 796.189 715.963 796.713 735.796 808.237 754.224 C 812.224 760.601 822.24 770.983 821.097 777.429 C 807.588 775.62 794.819 751.004 791.948 739.066 C 789.174 727.53 779.184 692.845 782.227 682.86 z"/>
<path transform="translate(0,0)" fill="rgb(111,165,216)" d="M 508.961 1200.36 C 515.906 1199.5 517.709 1198.85 522.893 1203.8 L 522.702 1205.81 C 515.406 1212.33 462.23 1217.53 449.245 1218.39 C 444.657 1218.83 442.474 1219.27 438.799 1216.22 C 437.499 1213.09 437.396 1213.31 438.061 1210.02 C 441.257 1207.02 456.333 1207.31 461.784 1206.75 C 477.618 1205.14 493.22 1202.73 508.961 1200.36 z"/>
<path transform="translate(0,0)" fill="rgb(66,127,179)" d="M 902.945 783.229 C 909.263 782.373 913.662 780.883 917.119 786.461 C 917.352 797.864 887.602 803.103 877.213 806.41 C 871.281 807.705 868.813 809.155 864.128 804.669 C 860.601 791.628 894.076 785.212 902.945 783.229 z"/>
<path transform="translate(0,0)" fill="rgb(66,127,179)" d="M 634.928 983.965 C 636.868 984.463 643.374 985.983 642.347 988.62 C 638.792 997.741 634.136 1031.9 628.214 1037.01 C 626.796 1036.66 623.852 1036.23 623.145 1035.21 C 614.891 1023.29 627.278 992.314 634.928 983.965 z"/>
<path transform="translate(0,0)" fill="rgb(66,127,179)" d="M 585.986 1203.48 C 586.573 1203.71 589.023 1204.8 589.215 1205.04 C 593.161 1209.97 610.005 1232.09 610.751 1236.87 C 609.507 1240.7 609.57 1239.73 606.063 1242.82 C 596.924 1237.79 581.311 1220.52 581.447 1209.55 C 581.479 1206.91 584.109 1205.04 585.986 1203.48 z"/>
<path transform="translate(0,0)" fill="rgb(111,165,216)" d="M 646.912 1258.92 C 646.229 1262.74 634.987 1275.07 632.908 1282.81 C 622.446 1321.75 641.274 1345.15 657.17 1377.46 L 657.981 1379.13 C 653.296 1376.53 651.116 1372.67 648.142 1368.37 C 630.495 1342.85 613.957 1279.86 646.912 1258.92 z"/>
<path transform="translate(0,0)" fill="rgb(66,127,179)" d="M 729.974 1424.51 C 735.309 1428.07 741.36 1484.63 741.929 1494.4 C 742.511 1503.25 742.4 1512.12 741.597 1520.95 L 739.75 1520.54 C 738.518 1518.24 738.401 1498.39 738.258 1493.5 C 737.6 1470.94 731.267 1446.39 729.974 1424.51 z"/>
<path transform="translate(0,0)" fill="rgb(43,70,109)" d="M 769.659 854.658 C 773.209 854.876 774.685 856.081 776.175 859.243 C 776.403 866.545 769.919 867.903 764.356 869.404 C 761.238 869.525 761.236 869.786 758.567 868.323 L 757.967 866.119 C 760.241 860.673 764.767 857.698 769.659 854.658 z"/>
<path transform="translate(0,0)" fill="rgb(111,165,216)" d="M 683.754 1397.19 C 704.213 1406.56 712.179 1407.78 734.325 1400.17 C 737.394 1399.12 740.041 1398.06 743.24 1398.55 C 742.048 1399.29 740.83 1399.99 739.59 1400.64 C 726.331 1407.56 691.878 1412.99 683.754 1397.19 z"/>
<path transform="translate(0,0)" fill="rgb(235,128,108)" d="M 1202.92 1174.62 C 1205.84 1169.93 1208.91 1167.17 1214.45 1166.58 C 1224.23 1165.54 1228.39 1167.78 1229.88 1176.91 L 1231.36 1184.68 L 1231.76 1186.83 L 1235.34 1191.77 C 1244.05 1215.16 1230.33 1236.89 1225.45 1259.91 C 1224.02 1283.97 1268.19 1338.55 1282.78 1360.07 C 1291.87 1373.46 1313.32 1385.53 1293.37 1407.15 C 1279.55 1419.81 1251.48 1415.16 1239.63 1433.51 C 1238.79 1440.07 1238.61 1443.02 1238.65 1449.6 C 1239.48 1454.08 1241.11 1461.55 1241.34 1465.86 C 1236.88 1473.96 1231.81 1478.79 1226.03 1485.93 L 1225.25 1487.21 C 1224.52 1494.91 1225.37 1503.73 1220.41 1508.49 C 1218.16 1516.53 1215.38 1529.23 1217.32 1537.46 C 1223.71 1564.5 1234.97 1594.1 1203.24 1611.55 C 1179.94 1624.37 1151.05 1620.71 1125.34 1614.52 C 1118.84 1616.7 1115.33 1617.78 1109.94 1622.5 C 1097.2 1637.24 1095.38 1647.68 1095.7 1667.03 C 1096.75 1680.87 1096.27 1693.89 1085.6 1704.27 C 1064.23 1725.06 1063.29 1735.74 1065.51 1764.19 L 1064.35 1764.5 C 1061.16 1763.79 1058.45 1761.17 1055.79 1759.07 C 1047.05 1751.62 1035.71 1745.09 1026.08 1738.97 C 984.705 1712.66 938.755 1692.85 891.271 1680.66 C 882.051 1678.29 869.615 1674.69 860.293 1673.17 C 829.337 1664.1 784.194 1660.26 752.55 1666.18 C 744.039 1667.77 726.693 1675.4 721.243 1675.8 C 724.997 1668.96 727.623 1665.28 732.265 1658.92 C 749.563 1629.69 758.532 1610.74 773.393 1581.76 C 773.56 1580.11 778.438 1568.62 779.375 1566.32 L 781.266 1564.74 C 786.092 1559.17 789.753 1553.74 792.569 1546.91 C 793.222 1536.88 801.231 1523.96 805.421 1514.21 C 811.795 1499.38 821.492 1479.48 824.155 1463.83 C 823.508 1462.96 823.168 1461.68 823.351 1460.6 C 826.549 1441.8 830.046 1423.39 831.857 1404.38 C 818.702 1383.64 810.447 1367.17 805.177 1343.44 C 807.192 1338.07 805.669 1332.93 806.463 1327.53 C 810.983 1296.82 830.006 1274.45 861.043 1270.1 C 870.78 1269.9 880.179 1273.68 887.065 1280.56 C 887.456 1280.97 887.846 1281.37 888.237 1281.77 C 889.727 1283.28 890.458 1283.75 891.528 1285.51 C 894.789 1289.8 895.095 1290.88 896.944 1295.99 C 911.267 1291.52 929.924 1281.42 938.977 1269.3 C 943.862 1268.77 951.395 1271.69 955.573 1271.13 C 979.161 1267.98 996.662 1280.53 1018.99 1285.03 C 1032.12 1287.68 1039.44 1282.96 1050.7 1278.55 C 1070.81 1270.68 1081.47 1255.19 1097.48 1243.66 C 1120.93 1235.1 1143.33 1221.98 1163.63 1207.57 C 1171.7 1201.07 1179.27 1193.54 1187.46 1186.93 C 1192.97 1182.49 1198.11 1179.89 1203.29 1175.62 L 1202.92 1174.62 z"/>
<path transform="translate(0,0)" fill="rgb(227,113,88)" d="M 1202.92 1174.62 C 1205.84 1169.93 1208.91 1167.17 1214.45 1166.58 C 1224.23 1165.54 1228.39 1167.78 1229.88 1176.91 L 1231.36 1184.68 C 1223.17 1188.56 1206.86 1195.91 1198.1 1197.8 L 1200.46 1198.58 C 1195.73 1204.79 1171.23 1210.86 1163.63 1207.57 C 1171.7 1201.07 1179.27 1193.54 1187.46 1186.93 C 1192.97 1182.49 1198.11 1179.89 1203.29 1175.62 L 1202.92 1174.62 z"/>
<path transform="translate(0,0)" fill="rgb(196,168,171)" d="M 1229.88 1176.91 L 1231.36 1184.68 C 1223.17 1188.56 1206.86 1195.91 1198.1 1197.8 L 1194.06 1197.56 L 1193.36 1196.38 C 1210.96 1190.64 1216.03 1189.71 1229.88 1176.91 z"/>
<path transform="translate(0,0)" fill="rgb(227,113,88)" d="M 1215.79 1487.51 L 1225.25 1487.21 C 1224.52 1494.91 1225.37 1503.73 1220.41 1508.49 C 1210.53 1508.01 1201.7 1510.27 1193.16 1508.83 C 1182.87 1507.1 1170.47 1495.04 1160.37 1493.56 C 1158.08 1493.22 1158.61 1493.88 1156.01 1492.47 L 1156.59 1491.11 C 1161.12 1489.45 1164.88 1489.62 1169.72 1489.39 C 1171.21 1490.31 1212.52 1488.37 1215.79 1487.51 z"/>
<path transform="translate(0,0)" fill="rgb(201,89,72)" d="M 1169.72 1489.39 L 1170.18 1488.75 L 1169.77 1486.51 L 1170.75 1485.12 C 1185.18 1479.21 1226.1 1466.72 1241.34 1465.86 C 1236.88 1473.96 1231.81 1478.79 1226.03 1485.93 L 1225.25 1487.21 L 1215.79 1487.51 C 1212.52 1488.37 1171.21 1490.31 1169.72 1489.39 z"/>
<path transform="translate(0,0)" fill="rgb(186,77,62)" d="M 1215.79 1487.51 L 1213.43 1487.12 L 1213.88 1486.09 C 1219.32 1485.23 1220.5 1485.36 1226.03 1485.93 L 1225.25 1487.21 L 1215.79 1487.51 z"/>
<path transform="translate(0,0)" fill="rgb(186,77,62)" d="M 861.043 1270.1 C 870.78 1269.9 880.179 1273.68 887.065 1280.56 C 887.456 1280.97 887.846 1281.37 888.237 1281.77 C 884.111 1281.54 881.401 1278.99 877.809 1277.11 C 848.085 1261.53 815.907 1291.41 810.439 1319.81 C 805.209 1346.97 816.366 1376.87 831.364 1399.22 C 834.456 1403.86 849.686 1424.01 850.163 1426.14 L 849.393 1426.78 C 844.246 1420.92 836.406 1410.82 831.857 1404.38 C 818.702 1383.64 810.447 1367.17 805.177 1343.44 C 807.192 1338.07 805.669 1332.93 806.463 1327.53 C 810.983 1296.82 830.006 1274.45 861.043 1270.1 z"/>
<path transform="translate(0,0)" fill="rgb(238,238,238)" d="M 824.155 1463.83 L 826.788 1464.24 C 831.267 1472.1 799.549 1538.37 792.569 1546.91 C 793.222 1536.88 801.231 1523.96 805.421 1514.21 C 811.795 1499.38 821.492 1479.48 824.155 1463.83 z"/>
<path transform="translate(0,0)" fill="rgb(201,89,72)" d="M 732.265 1658.92 C 749.563 1629.69 758.532 1610.74 773.393 1581.76 C 772.707 1584.78 772.16 1586.99 771.236 1589.95 L 771.849 1591.65 L 774.099 1592.24 C 768.396 1604.4 741.716 1653.98 732.265 1658.92 z"/>
<path transform="translate(0,0)" fill="rgb(201,89,72)" d="M 1231.76 1186.83 L 1235.34 1191.77 C 1244.05 1215.16 1230.33 1236.89 1225.45 1259.91 C 1219.3 1240.93 1232.43 1227.98 1234.48 1210.15 C 1235.43 1201.85 1233.48 1194.97 1231.76 1186.83 z"/>
<path transform="translate(0,0)" fill="rgb(201,89,72)" d="M 1095.7 1667.03 C 1095.25 1665.81 1094.82 1664.59 1094.39 1663.37 C 1089.04 1647.9 1092.74 1628.03 1109.94 1622.5 C 1097.2 1637.24 1095.38 1647.68 1095.7 1667.03 z"/>
<path transform="translate(0,0)" fill="url(#Gradient4)" d="M 781.266 1564.74 C 783.229 1565.21 784.439 1565.51 786.458 1565.36 C 786 1569.14 776.271 1588.09 774.099 1592.24 L 771.849 1591.65 L 771.236 1589.95 C 772.16 1586.99 772.707 1584.78 773.393 1581.76 C 773.56 1580.11 778.438 1568.62 779.375 1566.32 L 781.266 1564.74 z"/>
<path transform="translate(0,0)" fill="rgb(186,77,62)" d="M 891.528 1285.51 C 894.789 1289.8 895.095 1290.88 896.944 1295.99 C 898.709 1306.69 899.448 1312.81 897.887 1323.81 C 897.463 1313.06 896.602 1301.2 892.964 1290.99 C 892.03 1288.36 891.729 1288.4 891.528 1285.51 z"/>
<path transform="translate(0,0)" fill="rgb(227,113,88)" d="M 1238.65 1449.6 C 1238.23 1447.89 1237.81 1446.35 1237.34 1444.66 L 1235.11 1443.47 C 1232.66 1439.47 1232.52 1440.68 1233.15 1437.13 C 1236 1434.49 1235.87 1434.64 1239.63 1433.51 C 1238.79 1440.07 1238.61 1443.02 1238.65 1449.6 z"/>
<path transform="translate(0,0)" fill="rgb(43,70,109)" d="M 1209.28 1230.88 C 1215.45 1232.41 1212.17 1247.74 1210.26 1251.52 C 1196.54 1278.75 1152.04 1270.1 1126.67 1273.11 C 1120.18 1273.88 1112.23 1273.85 1105.41 1274.54 C 1104.99 1274.59 1103.25 1274.34 1102.75 1274.28 C 1099.32 1254.43 1158.39 1249.9 1171.73 1245.06 C 1184.45 1240.44 1196.68 1235.92 1209.28 1230.88 z"/>
<path transform="translate(0,0)" fill="rgb(201,89,72)" d="M 1123.63 1386.74 L 1122.35 1386.34 C 1120.39 1387.82 1120.44 1387.67 1119.2 1389.77 C 1117.45 1388.06 1117.59 1387.44 1116.59 1384.87 C 1119.56 1381.07 1122.72 1384.32 1121.78 1379.79 C 1121.51 1378.45 1121.63 1377.16 1121.82 1375.81 L 1123.03 1374.96 C 1124.59 1376.63 1124.82 1377 1126.06 1378.94 C 1128.52 1377.51 1127.86 1377.96 1129.91 1375.99 C 1132.86 1376.11 1131.88 1375.49 1133.54 1377.01 C 1132.02 1382.31 1131.75 1377.96 1130.6 1380.86 C 1129.64 1383.29 1130.48 1389.62 1130.75 1392.03 L 1132.1 1389.44 L 1131.16 1387.04 C 1132.1 1384.01 1132.23 1384.11 1134.19 1381.54 L 1136.39 1381.28 C 1140.41 1384.13 1141.38 1384.62 1146.26 1385.31 L 1143.6 1389.97 L 1140.56 1390.69 L 1140.62 1390.65 C 1141.67 1392.25 1142.91 1393.54 1144.28 1394.88 C 1144.86 1397.3 1144.47 1396.54 1143.29 1399.7 L 1143.12 1401.96 C 1145.53 1414.46 1142.47 1407.43 1140.7 1413.71 L 1140.46 1413.76 L 1140.45 1412.24 C 1138.61 1411.27 1139.14 1411.34 1137.17 1411 L 1135.87 1412.46 L 1137.71 1412.91 C 1138.92 1420.38 1132.18 1422.66 1134.29 1429.97 L 1133.76 1428.91 L 1134.3 1429.99 C 1136.35 1428.82 1135.62 1429.39 1137.03 1427.31 C 1139.2 1428.06 1138.4 1427.37 1139.47 1429.32 C 1138.5 1432.36 1139.45 1431.41 1137.19 1432.82 C 1136.35 1432.31 1135.52 1431.79 1134.69 1431.27 C 1134.26 1434.62 1134.68 1437.07 1132.76 1438.66 C 1132.17 1436.07 1131.71 1433.41 1130.66 1431 L 1130.41 1434.04 L 1129.35 1434.12 L 1125.62 1437.51 L 1123.53 1437.09 L 1122.8 1435.16 L 1122.05 1435.54 C 1121.65 1437.69 1121.58 1436.68 1122.09 1438.55 L 1121.29 1438.76 L 1120.24 1437.98 L 1120.28 1437.17 C 1118.32 1435.01 1117.54 1431.04 1116.55 1428.1 C 1115.24 1430.22 1116.15 1429.62 1114.12 1430.4 L 1112.65 1428.88 C 1113.63 1427.4 1113.43 1427.27 1113.6 1425.52 C 1115.66 1424.16 1115.07 1425.05 1115.69 1423.06 L 1113.88 1423.85 C 1110.45 1423.38 1107.39 1423.02 1104.43 1424.79 L 1103.97 1427 C 1105.56 1429.87 1106.85 1430.28 1109.68 1431.93 L 1110.71 1432.53 L 1109.91 1433.44 C 1105.85 1433.32 1107.17 1434.07 1104.29 1432.31 C 1105 1427.72 1101.8 1428.69 1102.67 1424.14 L 1105.38 1422.77 C 1103.07 1421.08 1102.55 1421.14 1101.61 1418.56 L 1103.41 1416.06 C 1102.8 1415.93 1102.18 1415.79 1101.56 1415.65 L 1100.89 1414.3 C 1103.34 1413.64 1104.55 1413.86 1105.53 1412.28 L 1101.61 1411.77 L 1100.88 1410.52 C 1101.73 1408.76 1102.61 1407.02 1103.52 1405.29 L 1102.08 1405.07 C 1098.99 1408.84 1089.97 1414.3 1084.89 1415.04 L 1084.3 1414.32 C 1087.26 1413.03 1087.37 1413.64 1088.69 1411.65 C 1086.51 1403.51 1083.72 1387.96 1097.06 1388.26 C 1096.7 1390.07 1096.67 1390.38 1096.71 1391.73 C 1096.83 1395.18 1094.1 1392.49 1092.85 1398.54 C 1094.44 1401.85 1093.36 1401.08 1095.85 1402.8 L 1099.31 1400.01 C 1102.04 1401.07 1100.77 1400.28 1102.59 1403.43 L 1103.99 1403.61 L 1104.59 1403.12 C 1103.18 1401.16 1102.05 1400.25 1100.16 1398.73 C 1103.05 1395.03 1105.4 1397.87 1106.85 1397.35 C 1108.93 1396.6 1115.1 1393.82 1118.34 1393.2 C 1121.55 1390.68 1121.6 1390.4 1123.63 1386.74 z"/>
<path transform="translate(0,0)" fill="rgb(227,113,88)" d="M 1130.75 1392.03 L 1132.1 1389.44 L 1131.16 1387.04 C 1132.1 1384.01 1132.23 1384.11 1134.19 1381.54 L 1136.39 1381.28 C 1140.41 1384.13 1141.38 1384.62 1146.26 1385.31 C 1140.03 1386.44 1138.63 1388.93 1134.59 1393.64 L 1132.39 1394.21 L 1130.75 1392.03 z"/>
<path transform="translate(0,0)" fill="rgb(227,113,88)" d="M 1116.55 1428.1 C 1119.95 1426.3 1118.4 1426.29 1121.4 1426.84 C 1122.25 1429.97 1122.09 1432.1 1122.8 1435.16 L 1122.05 1435.54 C 1121.65 1437.69 1121.58 1436.68 1122.09 1438.55 L 1121.29 1438.76 L 1120.24 1437.98 L 1120.28 1437.17 C 1118.32 1435.01 1117.54 1431.04 1116.55 1428.1 z"/>
<path transform="translate(0,0)" fill="rgb(227,113,88)" d="M 1118.34 1393.2 C 1121.55 1390.68 1121.6 1390.4 1123.63 1386.74 C 1126 1389.42 1126.79 1389.91 1127.47 1393.46 L 1126.34 1394.95 C 1123.66 1395.06 1122.7 1394.35 1120.21 1393.29 L 1118.34 1393.2 z"/>
<path transform="translate(0,0)" fill="rgb(227,113,88)" d="M 1143.12 1401.96 C 1141.14 1400.51 1142.26 1401.07 1139.1 1401.23 C 1136.66 1399.72 1136.83 1399.83 1135.5 1397.26 L 1136.41 1396.01 C 1140.57 1396.26 1139.36 1396.3 1143.29 1399.7 L 1143.12 1401.96 z"/>
<path transform="translate(0,0)" fill="rgb(201,89,72)" d="M 875.228 1329.68 C 878.286 1328.11 878.041 1327.62 881.004 1327.8 C 879.894 1330.18 880.23 1329.24 877.572 1331.12 L 876.878 1331.87 C 873 1336.16 868.772 1344.58 867.217 1346.17 C 850.776 1363.05 846.157 1384.11 868.402 1398.88 C 875.12 1403.34 904.354 1418.35 910.544 1406.51 C 910.491 1399.88 905.906 1395.03 901.959 1389.58 C 905.135 1391.91 911.995 1397.14 912.494 1401.11 C 915.312 1427.33 871.782 1403.77 862.534 1398.36 C 841.651 1386.16 845.27 1378.21 845.661 1358.06 L 849.227 1355.2 C 849.087 1352.1 849.359 1350.84 847.435 1348.44 C 840.623 1348.69 847.215 1350.68 840.149 1350.61 L 839.41 1349.1 L 840.521 1347.37 C 846.796 1343.36 855.604 1345.67 860.145 1341.01 C 865.497 1335.52 869.228 1333.66 875.228 1329.68 z"/>
<path transform="translate(0,0)" fill="rgb(186,77,62)" d="M 898.353 1483.68 C 899.178 1487.06 895.782 1505.23 896.243 1509.97 C 902.576 1575.11 1032.25 1593.79 1082.9 1606.87 C 1089.57 1608.59 1105.49 1608.49 1109.41 1612.09 C 1066.58 1611.96 999.098 1588.02 957.729 1574.19 C 921.087 1561.94 880.344 1527.31 898.353 1483.68 z"/>
<path transform="translate(0,0)" fill="rgb(201,89,72)" d="M 855.84 1308.16 C 855.441 1313.25 850.121 1311.83 849.95 1318.83 L 850.877 1319.75 L 852.118 1318.7 C 855.57 1321.63 853.685 1320.9 857.737 1321.5 L 857.253 1322.93 C 851.554 1324.17 850.703 1316.98 842.691 1328.3 C 840.964 1330.74 837.368 1338.4 835.293 1339.27 C 833.91 1320.85 855.634 1290.77 875.648 1306.71 C 881.852 1311.65 889.584 1334.88 884.984 1339.89 C 883.999 1336.79 883.775 1333.53 883.361 1330.26 C 881.543 1318.23 869.21 1295.23 855.84 1308.16 z"/>
<path transform="translate(0,0)" fill="rgb(18,11,11)" d="M 1142.51 1292.04 L 1145.45 1292.12 C 1148.83 1296.79 1151.67 1302.89 1149.3 1308.68 L 1148.22 1313.9 C 1142.53 1316.73 1139.89 1316.68 1133.52 1315.71 C 1131.64 1308.51 1131.11 1304.1 1132.32 1296.8 C 1134.89 1294.33 1139.04 1293.28 1142.51 1292.04 z"/>
<path transform="translate(0,0)" fill="rgb(44,7,7)" d="M 1142.51 1292.04 L 1145.45 1292.12 C 1148.83 1296.79 1151.67 1302.89 1149.3 1308.68 C 1148.21 1306.22 1148.17 1306.81 1145.76 1304.84 C 1146.76 1300.65 1146.93 1298.41 1144.39 1294.82 L 1142.51 1292.04 z"/>
<path transform="translate(0,0)" fill="rgb(196,168,171)" d="M 1144.39 1294.82 C 1146.93 1298.41 1146.76 1300.65 1145.76 1304.84 L 1144.72 1304.56 C 1143.45 1301.53 1144.13 1298.23 1144.39 1294.82 z"/>
<path transform="translate(0,0)" fill="rgb(227,113,88)" d="M 1102.67 1371.76 C 1108.2 1372.61 1113.68 1378.79 1115.41 1383.87 L 1114.6 1384.97 L 1111.58 1383.35 L 1112.07 1384.38 C 1115.51 1386.39 1117.39 1386.61 1116.5 1390.66 L 1113.79 1392.36 C 1112.41 1393.44 1112.11 1393.38 1110.44 1394.07 C 1108.23 1393.57 1107.72 1392.95 1106.06 1391.45 C 1103.48 1393.95 1103.51 1394.51 1100.31 1395.68 L 1102.72 1394.47 L 1099.7 1395.35 C 1097.36 1387.52 1103.27 1379.69 1102.67 1371.76 z"/>
<path transform="translate(0,0)" fill="rgb(201,89,72)" d="M 924.373 1407.3 L 925.837 1407.5 C 946.73 1441.42 898.424 1470.75 862.148 1439.64 L 860.809 1438.35 L 861.344 1437.51 C 865.463 1439.54 868.762 1442.55 872.94 1444.68 C 890.329 1453.58 917.858 1453.68 926.632 1432.92 C 931.211 1422.09 927.929 1418.41 924.511 1408.34 C 924.465 1407.99 924.419 1407.65 924.373 1407.3 z"/>
<path transform="translate(0,0)" fill="rgb(201,89,72)" d="M 836.057 1353.47 L 838.27 1355.13 C 839.29 1367.17 841.331 1373.71 845.403 1384.74 L 845.607 1386.54 L 844.433 1387.61 C 837.313 1382.46 832.341 1361.39 836.057 1353.47 z"/>
<path transform="translate(0,0)" fill="rgb(186,77,62)" d="M 1132.32 1296.8 C 1129.53 1295.37 1112.72 1300.47 1108.57 1301.61 C 1110.9 1299.14 1113.36 1298.24 1116.65 1297.71 C 1121.37 1296.95 1127.53 1295.8 1131.82 1293.77 C 1140.28 1289.79 1150.46 1288.07 1158.44 1283.21 C 1161.68 1281.23 1161.78 1281.16 1165.37 1279.88 L 1166 1280.68 C 1161.34 1284.5 1151.39 1288.92 1145.45 1292.12 L 1142.51 1292.04 C 1139.04 1293.28 1134.89 1294.33 1132.32 1296.8 z"/>
<path transform="translate(0,0)" fill="rgb(201,89,72)" d="M 849.036 1396.55 C 854.945 1397.83 866.114 1411.42 873.139 1415.12 C 879.522 1418.48 889.726 1420.54 894.63 1424.74 C 874.013 1421.42 862.31 1411.62 849.036 1396.55 z"/>
<path transform="translate(0,0)" fill="rgb(246,180,173)" d="M 817.982 1327.18 L 821.407 1328.45 C 819.61 1346 824.37 1347.87 823.861 1358.24 C 816.506 1356.31 816.276 1333.86 817.982 1327.18 z"/>
<path transform="translate(0,0)" fill="rgb(227,113,88)" d="M 1093.09 1428.53 C 1094.85 1431.21 1093.91 1430.55 1096.45 1431.97 C 1097.28 1430.32 1096.68 1430.82 1097.99 1430.2 C 1098.63 1436.21 1100.86 1443.05 1099.92 1448.2 C 1094.61 1446.64 1093.38 1446.93 1091.95 1441.56 L 1092.51 1442.3 C 1092.76 1436.83 1092.37 1434.15 1093.09 1428.53 z"/>
<path transform="translate(0,0)" fill="rgb(186,77,62)" d="M 1148.22 1313.9 C 1153.44 1317.08 1159.3 1315.82 1165.3 1318.25 C 1151.99 1318.34 1126.38 1318.23 1114.7 1313.37 C 1120.17 1312.92 1127.82 1314.68 1133.52 1315.71 C 1139.89 1316.68 1142.53 1316.73 1148.22 1313.9 z"/>
<path transform="translate(0,0)" fill="rgb(244,216,213)" d="M 1216.86 1282.87 C 1221.84 1286.1 1235.9 1309.77 1239.7 1316.37 C 1232.9 1313.68 1219.16 1290.2 1216.86 1282.87 z"/>
<path transform="translate(0,0)" fill="rgb(244,216,213)" d="M 1259.1 1347.8 C 1262.84 1349.82 1271.56 1366.03 1271.93 1370.88 L 1269.68 1369.94 C 1265.97 1364.19 1258.16 1354.18 1259.1 1347.8 z"/>
<path transform="translate(0,0)" fill="rgb(201,89,72)" d="M 1100.21 1433.89 C 1102.3 1434.32 1102.94 1434.6 1104.94 1435.39 L 1105.37 1437.08 C 1106.65 1434.9 1106.11 1435.51 1107.95 1434 L 1109.22 1434.3 C 1111.44 1437.01 1112.7 1439.2 1115.9 1440.46 C 1113.86 1442.92 1113.92 1443.57 1111.11 1443.82 L 1108.57 1439.9 C 1105.42 1438.37 1105.93 1438.99 1101.69 1439.63 C 1099.71 1437.33 1100.37 1437.69 1100.21 1433.89 z"/>
<path transform="translate(0,0)" fill="rgb(186,77,62)" d="M 1264.41 1400.21 C 1266.45 1399.85 1267.61 1399.81 1269.65 1400 C 1263.32 1404.11 1252.38 1402.61 1242.2 1410.11 C 1240.41 1412.3 1240.02 1413.37 1237.35 1414.07 C 1240.66 1404.24 1255.7 1401.8 1264.41 1400.21 z"/>
<path transform="translate(0,0)" fill="rgb(201,89,72)" d="M 1153.78 1386.85 L 1155.4 1386.69 L 1156.69 1388.53 C 1156.54 1388.91 1150.35 1398.27 1149.93 1398.66 C 1148.26 1394.91 1147.25 1393.22 1146.67 1389.22 C 1151.62 1385.37 1147.12 1390.76 1153.78 1386.85 z"/>
<path transform="translate(0,0)" fill="rgb(201,89,72)" d="M 907.124 1357.58 C 910.584 1360.69 908.34 1366.81 910.052 1372.46 C 912.316 1379.93 915.965 1385.63 918.031 1393.11 C 909.89 1385.13 906.606 1368.74 907.124 1357.58 z"/>
<path transform="translate(0,0)" fill="rgb(201,89,72)" d="M 1067.81 1392.04 L 1068.24 1392.25 C 1069.68 1395.98 1070.4 1397.81 1068.13 1401.28 L 1066.84 1401.14 L 1066.5 1398.87 C 1060.63 1397.85 1061.85 1398.27 1059.06 1393.69 C 1060.99 1390.62 1060.91 1395.61 1067.81 1392.04 z"/>
<path transform="translate(0,0)" fill="rgb(186,77,62)" d="M 1215.53 1400.86 L 1216.37 1401.89 C 1216.86 1412.9 1218.99 1416.59 1219.97 1425.58 C 1213.08 1419.29 1213.13 1409.19 1215.53 1400.86 z"/>
<path transform="translate(0,0)" fill="rgb(186,77,62)" d="M 1188.23 1542.53 C 1194.4 1541.96 1208.68 1541.44 1214.22 1543.73 L 1213.64 1545.02 C 1207.22 1544.81 1192.38 1544.7 1186.73 1543.53 L 1188.23 1542.53 z"/>
<path transform="translate(0,0)" fill="rgb(244,216,213)" d="M 1290.48 1385.7 C 1291.76 1391.74 1288.66 1398.3 1286.1 1403.57 C 1283.79 1396.19 1284.87 1391.12 1290.48 1385.7 z"/>
<path transform="translate(0,0)" fill="rgb(201,89,72)" d="M 1194.09 1519.84 C 1198.78 1520.15 1201.88 1522.79 1205.49 1525.5 C 1201.1 1525.58 1197.66 1522.44 1194.09 1519.84 z"/>
<path transform="translate(0,0)" fill="rgb(227,113,88)" d="M 1330.43 208.533 L 1331.44 207.75 C 1344.53 197.425 1357.46 183.956 1369.68 172.384 C 1391.41 151.803 1418.55 116.731 1451.72 118.325 C 1474.16 119.403 1488.22 159.236 1500.61 171.321 L 1501.82 171.097 C 1502.39 170.07 1503.75 167.741 1504.09 166.768 L 1503.65 166.171 C 1502.8 168.699 1503.06 167.69 1503.62 170.654 C 1507.32 174.839 1508.91 170.493 1509.76 173.759 C 1505.5 173.957 1505.02 173.215 1502.41 175.337 C 1502.57 176.787 1516.72 200.059 1518.23 201.888 C 1520.5 201.461 1519.36 201.817 1521.63 200.75 L 1522.15 202.476 C 1521.28 203.229 1520.41 203.981 1519.54 204.734 C 1521.34 210.032 1527.69 219.091 1527.97 220.994 C 1529.8 233.338 1533.37 247.016 1535.6 258.96 C 1538.98 260.193 1537.14 256.574 1539.63 258.428 L 1538.7 259.405 C 1534.23 264.173 1535.26 262.574 1534.24 268.612 L 1534.95 270.084 L 1537.17 270.185 C 1535.35 277.362 1529.85 294.841 1526.89 301.519 C 1508.26 327.771 1494.2 334.293 1463.99 346.231 C 1432.87 359.491 1400.34 368.664 1371.09 386.763 C 1360.25 393.466 1347.8 406.267 1336.9 413.818 C 1308.51 433.489 1278.98 452.182 1249.88 470.811 C 1237.01 479.044 1211.98 498.503 1199.81 504.488 C 1187.15 509.14 1146.85 546.45 1136.47 556.035 L 1131.8 564.201 C 1127.8 570.074 1122.83 576.441 1117.59 581.247 L 1115.73 583.032 C 1104.8 592.238 1093.84 601.905 1080.27 606.97 C 1071.57 610.621 1068.53 610.502 1059.22 610.1 L 1053.06 606.722 C 1046.96 605.331 1048.74 602.523 1042.7 602.051 L 1040.04 604.692 C 1038.69 592.739 1050.15 583.901 1048.25 578.972 C 1037.91 577.973 1030.59 614.075 1025.09 614.667 C 1020.13 602.015 1014.05 585.344 1004.26 575.58 C 998.922 570.259 997.283 570.676 990.093 570.928 C 980.344 540.492 946.796 426.652 949.55 399.467 C 952.33 372.035 979.398 354.504 999.082 338.782 C 1017.56 324.485 1040.79 301.333 1059.11 285.715 C 1071.25 275.359 1089.55 260.823 1100.14 250.23 C 1135.69 229.059 1202.87 226.11 1245.03 218.462 C 1268.75 213.379 1306.81 207.076 1330.43 208.533 z"/>
<path transform="translate(0,0)" fill="rgb(246,180,173)" d="M 1058.83 571.182 C 1062.21 565.733 1077.11 551.537 1082.63 547.403 C 1094.09 538.815 1108.19 531.642 1122.87 533.528 C 1133.39 539.022 1135.81 544.184 1136.47 556.035 L 1131.8 564.201 C 1127.8 570.074 1122.83 576.441 1117.59 581.247 L 1115.73 583.032 C 1104.8 592.238 1093.84 601.905 1080.27 606.97 C 1071.57 610.621 1068.53 610.502 1059.22 610.1 L 1053.06 606.722 C 1047.97 593.002 1050.59 582.418 1058.83 571.182 z"/>
<path transform="translate(0,0)" fill="rgb(238,238,238)" d="M 1058.83 571.182 C 1061.29 577.36 1060.31 589.028 1063.84 595.397 C 1067 601.089 1074.44 604.538 1080.27 606.97 C 1071.57 610.621 1068.53 610.502 1059.22 610.1 L 1053.06 606.722 C 1047.97 593.002 1050.59 582.418 1058.83 571.182 z"/>
<path transform="translate(0,0)" fill="rgb(244,216,213)" d="M 1122.87 533.528 C 1133.39 539.022 1135.81 544.184 1136.47 556.035 L 1131.8 564.201 C 1127.34 562.044 1120.31 553.858 1116.52 549.855 C 1115.35 545.551 1113.2 539.351 1114.88 535.534 C 1117.92 533.155 1118.19 533.924 1122.87 533.528 z"/>
<path transform="translate(0,0)" fill="rgb(56,91,162)" d="M 1245.03 218.462 C 1268.75 213.379 1306.81 207.076 1330.43 208.533 C 1327 212.795 1321.38 214.65 1316.11 214.489 C 1296.09 213.875 1263.49 220.668 1245.03 218.462 z"/>
<path transform="translate(0,0)" fill="rgb(186,77,62)" d="M 1144.53 371.353 C 1150.64 370.272 1164.9 370.8 1170.64 373.284 C 1172.75 374.199 1174.93 375.323 1175.68 377.733 C 1177.66 384.006 1173.54 396.395 1170.8 402.746 C 1166.26 412.042 1147.4 451.218 1139.2 455.687 C 1124.54 463.68 1116.03 465.878 1100.44 481.976 C 1076.58 506.599 1062.57 532.472 1051.31 564.813 C 1049.14 571.034 1047.4 577.526 1045.05 583.696 C 1044.14 577.73 1044.74 573.025 1045.12 567.028 C 1046.29 548.569 1045.36 537.584 1035.74 521.535 C 1031.79 515.611 1030.02 512.592 1024.84 507.697 C 1021.3 508.297 1017.75 508.844 1014.2 509.337 C 1010.81 509.795 1007.29 510.493 1004.69 508.508 C 1008.78 505.06 1019.07 506.78 1022.15 501.892 C 1039.37 474.546 1051.73 436.151 1015.42 417.603 C 1010.94 415.315 1005.03 405.414 1004.29 400.634 C 1007.69 402.754 1008.87 408.194 1014.14 412.553 C 1020.57 417.859 1026.01 420.227 1032.8 424.874 C 1040.6 420.86 1060.45 414.137 1065.81 410.075 C 1098.07 385.623 1103.63 377.051 1144.53 371.353 z"/>
<path transform="translate(0,0)" fill="rgb(186,77,62)" d="M 1173.98 468.06 C 1182.54 468.105 1203.55 484.647 1206.24 492.441 L 1202.88 491.731 C 1197.41 486.767 1175.43 471.247 1173.98 468.06 z"/>
<path transform="translate(0,0)" fill="rgb(201,89,72)" d="M 1159.6 476.74 C 1169.93 478.097 1188.88 492.711 1194.25 501.338 C 1189.65 500.434 1164.48 480.868 1159.6 476.74 z"/>
<path transform="translate(0,0)" fill="rgb(186,77,62)" d="M 1097.87 352.448 C 1099.81 355.849 1100.76 373.161 1100.96 377.69 C 1094.78 372.919 1096.49 359.425 1097.87 352.448 z"/>
<path transform="translate(0,0)" fill="url(#Gradient3)" d="M 1158.16 1854.18 C 1183.56 1831.69 1197.51 1794.84 1224.27 1775.76 C 1268.44 1743.55 1331.24 1737.07 1383.63 1750.09 C 1440.3 1764.18 1477.55 1773.38 1536.35 1754.51 C 1566.93 1744.7 1595.25 1728.88 1619.65 1708 C 1717.21 1623.75 1671.06 1500.49 1724.37 1397.54 C 1728.01 1390.51 1734.97 1376.31 1742.58 1373.9 C 1732.21 1417.29 1735.89 1449.29 1731.5 1492.39 C 1722.24 1583.46 1669.55 1688.02 1589.92 1736 C 1562.01 1752.81 1484.1 1779.44 1452.5 1777.74 C 1384.11 1774.07 1314.8 1732.78 1248.54 1777.49 C 1214.5 1800.46 1193.65 1834.84 1163.98 1864.19 C 1236.87 1976.72 1078.17 1958.02 1017 1955.61 C 969.442 1953.87 921.925 1951.12 874.481 1947.38 C 831.209 1943.79 786.108 1938.63 743.028 1935.92 C 727 1934.99 710.943 1934.69 694.893 1935.02 C 660.227 1935.65 602.626 1939.64 583.286 1904.95 C 560.775 1864.57 612.728 1796.86 636.57 1764.62 C 645.357 1752.74 655.577 1742.35 663.639 1730.93 C 678.625 1710.64 699.686 1688.65 721.243 1675.8 C 726.693 1675.4 744.039 1667.77 752.55 1666.18 C 784.194 1660.26 829.337 1664.1 860.293 1673.17 C 869.615 1674.69 882.051 1678.29 891.271 1680.66 C 938.755 1692.85 984.705 1712.66 1026.08 1738.97 C 1035.71 1745.09 1047.05 1751.62 1055.79 1759.07 C 1058.45 1761.17 1061.16 1763.79 1064.35 1764.5 L 1065.51 1764.19 C 1067.34 1769.25 1082.22 1777.98 1087.04 1782.21 C 1111.89 1803.97 1139.43 1826.77 1158.16 1854.18 z"/>
<path transform="translate(0,0)" fill="rgb(56,91,162)" d="M 783.738 1669.41 L 782.439 1668.48 C 802.043 1664.1 852.554 1675.52 860.293 1673.17 C 869.615 1674.69 882.051 1678.29 891.271 1680.66 C 938.755 1692.85 984.705 1712.66 1026.08 1738.97 C 1035.71 1745.09 1047.05 1751.62 1055.79 1759.07 L 1052.89 1762.51 C 1042.94 1754.42 1015.55 1737.71 1004.15 1731.62 C 934.971 1694.62 862.849 1668.14 783.738 1669.41 z"/>
<path transform="translate(0,0)" fill="rgb(238,238,238)" d="M 783.738 1669.41 C 862.849 1668.14 934.971 1694.62 1004.15 1731.62 C 1015.55 1737.71 1042.94 1754.42 1052.89 1762.51 L 1052.6 1763.86 L 1051.19 1764.47 C 1046.23 1762.5 1039.59 1757.21 1034.65 1754.08 C 1025.59 1748.43 1016.42 1742.93 1007.16 1737.6 C 974.286 1718.78 939.541 1703.42 903.49 1691.78 C 878.072 1683.5 851.881 1677.81 825.317 1674.8 C 819.576 1674.16 779.541 1672.58 777.799 1671.66 C 779.564 1669.52 780.197 1670.09 783.738 1669.41 z"/>
<path transform="translate(0,0)" fill="rgb(238,238,238)" d="M 1091.13 1794.63 C 1097.88 1796.41 1160.53 1867.71 1164.03 1877.16 C 1160.59 1876.43 1131.59 1841.7 1127.06 1836.13 C 1120.15 1827.62 1093.59 1802.45 1091.13 1794.63 z"/>
<path transform="translate(0,0)" fill="rgb(248,157,102)" d="M 1025.09 614.667 C 1030.59 614.075 1037.91 577.973 1048.25 578.972 C 1050.15 583.901 1038.69 592.739 1040.04 604.692 C 1038.69 611.067 1036.2 617.821 1034.38 624.329 C 1017.33 685.192 1070.45 762.582 1004.28 804.919 C 965.32 829.851 926.23 832.338 884.166 844.284 C 867.792 847.937 842.412 853.086 827.041 859.665 C 770.613 883.818 716.007 925.275 682.548 976.896 C 658.615 1013.82 649.771 1048.82 651.156 1091.75 C 658.762 1142.44 684.502 1185.32 726.22 1214.43 C 733.157 1219.27 749.889 1231.9 757.526 1230.71 C 761.139 1230.15 764.705 1235.89 768.42 1237.18 C 777.663 1240.38 788.115 1244.02 797.502 1246.6 C 813.642 1251.04 833.585 1252.13 850.397 1251.92 C 764.822 1208.02 754.929 1125.05 807.187 1049.52 C 812.811 1030.96 819.794 1008.32 836.422 996.561 C 862.902 977.842 891.078 966.386 921.961 957.328 C 927.578 958.246 947.972 953.64 960.887 953.981 C 971.084 947.078 975.834 944.317 987.206 939.684 C 999.632 937.146 1012.37 936.488 1024.99 937.732 C 1069.54 935.35 1121.47 949.227 1156.49 977.362 C 1186.82 964.344 1209.46 960.208 1191.64 1002.24 C 1210.18 1006.38 1226.9 1014.06 1237.53 1030.41 C 1259.26 1063.83 1239.14 1097.13 1220.46 1125.8 C 1216.65 1138.85 1213.73 1146.68 1207.31 1158.73 C 1205.58 1161.98 1196.87 1175.34 1196.71 1176.66 C 1198.77 1175.94 1200.84 1175.26 1202.92 1174.62 L 1203.29 1175.62 C 1198.11 1179.89 1192.97 1182.49 1187.46 1186.93 C 1179.27 1193.54 1171.7 1201.07 1163.63 1207.57 C 1143.33 1221.98 1120.93 1235.1 1097.48 1243.66 C 1081.47 1255.19 1070.81 1270.68 1050.7 1278.55 C 1039.44 1282.96 1032.12 1287.68 1018.99 1285.03 C 996.662 1280.53 979.161 1267.98 955.573 1271.13 C 951.395 1271.69 943.862 1268.77 938.977 1269.3 L 932.402 1268.18 C 921.703 1268.17 906.621 1268.08 896.066 1266.33 C 883.896 1264.31 873.207 1261.84 860.785 1260.2 C 819.708 1260.09 792.453 1256.4 754.746 1238.32 L 751.648 1237.1 C 742.963 1234.35 736.466 1230.69 728.834 1225.77 C 684.068 1196.96 655.984 1154.56 645.038 1102.61 C 645.042 1098.51 644.103 1090.08 643.936 1085.25 C 643.415 1069.82 644.829 1054.38 648.143 1039.29 C 667.603 954.433 751.343 879.538 831.763 850.2 C 883.399 831.363 987.221 827.69 1021.79 778.863 C 1040.35 752.646 1025.55 701.618 1023.94 671.479 C 1023.52 663.491 1024.64 637.206 1023.67 632.44 C 1024.26 631.163 1025.04 630.223 1025.87 629.046 C 1026.29 623.321 1026.86 620.235 1025.09 614.667 z"/>
<path transform="translate(0,0)" fill="rgb(238,238,238)" d="M 807.187 1049.52 L 807.103 1050.74 C 806.267 1061.31 802.709 1068.65 801.186 1078.42 C 797.737 1100.55 816.719 1112.99 826.592 1129.41 C 818.468 1159.35 814.105 1186.93 830.066 1215.47 C 840.371 1233.89 852.549 1242.47 872.358 1248.37 C 876.029 1249.44 877.479 1249.23 880.697 1250.02 C 878.127 1250.03 877.428 1250.2 875.014 1251.09 L 874.371 1251.88 C 865.164 1253.12 859.732 1252.48 850.397 1251.92 C 764.822 1208.02 754.929 1125.05 807.187 1049.52 z"/>
<path transform="translate(0,0)" fill="rgb(238,238,238)" d="M 1024.99 937.732 C 1069.54 935.35 1121.47 949.227 1156.49 977.362 C 1154.31 979.38 1134.54 989.674 1130.53 992.134 C 1115.62 988.575 1106.43 988.091 1091.17 986.96 C 1069.13 957.602 1057.61 951.01 1024.99 937.732 z"/>
<path transform="translate(0,0)" fill="rgb(238,238,238)" d="M 1097.48 1243.66 C 1100.53 1231.6 1111.83 1229.36 1119.41 1221.05 C 1122.8 1217.31 1126.48 1206.76 1130.24 1203.77 C 1138.73 1196.17 1152.03 1191.2 1160.4 1183.75 C 1173.88 1171.74 1187.78 1159.04 1201.07 1146.81 C 1207.58 1140.82 1214.54 1132.39 1220.46 1125.8 C 1216.65 1138.85 1213.73 1146.68 1207.31 1158.73 C 1205.58 1161.98 1196.87 1175.34 1196.71 1176.66 C 1198.77 1175.94 1200.84 1175.26 1202.92 1174.62 L 1203.29 1175.62 C 1198.11 1179.89 1192.97 1182.49 1187.46 1186.93 C 1179.27 1193.54 1171.7 1201.07 1163.63 1207.57 C 1143.33 1221.98 1120.93 1235.1 1097.48 1243.66 z"/>
<path transform="translate(0,0)" fill="rgb(238,238,238)" d="M 900.251 1255.49 C 912.035 1260.77 920.168 1263.78 932.402 1268.18 C 921.703 1268.17 906.621 1268.08 896.066 1266.33 C 883.896 1264.31 873.207 1261.84 860.785 1260.2 C 872.866 1257.83 886.096 1258.33 900.251 1255.49 z"/>
<path transform="translate(0,0)" fill="rgb(243,172,121)" d="M 872.358 1248.37 C 880.368 1247.43 888.112 1246.85 896.184 1247.56 C 889.745 1250.1 881.345 1252.9 874.371 1251.88 L 875.014 1251.09 C 877.428 1250.2 878.127 1250.03 880.697 1250.02 C 877.479 1249.23 876.029 1249.44 872.358 1248.37 z"/>
<path transform="translate(0,0)" fill="rgb(238,238,238)" d="M 1187 1052.53 C 1206.67 1068.67 1198.37 1120.2 1188.12 1140.04 C 1176.64 1162.24 1162.17 1168.93 1139.78 1176.43 C 1136.74 1176.93 1137.87 1177.08 1135.05 1176.29 C 1131.86 1167.94 1142.83 1159.9 1132.9 1139.5 C 1150.08 1119.29 1152.89 1112.42 1165.86 1090.06 C 1175.79 1072.95 1179.44 1074.31 1187 1052.53 z"/>
<path transform="translate(0,0)" fill="rgb(238,238,238)" d="M 1175.84 1025.16 C 1178.65 1021.12 1184.52 1011.73 1189.08 1010.72 C 1239.51 1019.21 1251.9 1063.73 1224.1 1102.6 C 1214.59 1121.19 1210.34 1125.94 1195.28 1140.82 C 1200.55 1128.16 1206.07 1113.3 1206.78 1099.54 C 1208.75 1061.66 1198.18 1051.11 1175.84 1025.16 z"/>
<path transform="translate(0,0)" fill="rgb(111,165,216)" d="M 1189.08 1010.72 C 1239.51 1019.21 1251.9 1063.73 1224.1 1102.6 C 1225.3 1075.66 1212.03 1027.31 1189.08 1010.72 z"/>
<path transform="translate(0,0)" fill="rgb(238,238,238)" d="M 902.104 1012.15 C 905.798 1011.67 907.276 1011.1 910.63 1012.69 C 914.07 1021.69 892.985 1028.96 886.988 1031.54 C 861.045 1042.75 842.873 1065.38 839.386 1093.68 C 838.753 1098.81 836.31 1113.52 830.397 1114.45 C 824.092 1103.78 811.008 1066.77 819.833 1056.69 C 838.009 1035.92 875.903 1019.46 902.104 1012.15 z"/>
<path transform="translate(0,0)" fill="rgb(243,172,121)" d="M 831.979 1142.71 C 835.161 1147.63 844.288 1157.49 843.973 1161.12 C 844.979 1164.44 845.266 1164.39 847.684 1166.74 C 850.554 1169.39 853.741 1172.21 856.487 1174.94 C 857.061 1191.83 856.01 1204.07 864.673 1219.46 C 866.504 1222.55 869.929 1227.82 870.347 1231.29 C 873.235 1232.57 878.174 1235.51 879.623 1238.37 L 878.88 1239.72 C 865.528 1242.35 848.931 1230.02 841.748 1219.46 C 825.087 1194.97 827.218 1170.29 831.979 1142.71 z"/>
<path transform="translate(0,0)" fill="url(#Gradient2)" d="M 831.979 1142.71 C 835.161 1147.63 844.288 1157.49 843.973 1161.12 C 822.541 1189.23 841.649 1218.78 870.347 1231.29 C 873.235 1232.57 878.174 1235.51 879.623 1238.37 L 878.88 1239.72 C 865.528 1242.35 848.931 1230.02 841.748 1219.46 C 825.087 1194.97 827.218 1170.29 831.979 1142.71 z"/>
<path transform="translate(0,0)" fill="rgb(241,232,223)" d="M 847.684 1166.74 C 850.554 1169.39 853.741 1172.21 856.487 1174.94 C 857.061 1191.83 856.01 1204.07 864.673 1219.46 C 841.25 1210.79 840.888 1186.94 847.684 1166.74 z"/>
<path transform="translate(0,0)" fill="rgb(238,238,238)" d="M 1050.25 1226.39 C 1063.84 1232.59 1069.29 1233.71 1083.97 1235.57 C 1079.75 1242.06 1076.08 1248.9 1069.25 1252.6 C 1057.64 1271.13 1025.93 1281.47 1006.13 1270.02 C 1004.46 1269.05 1003.67 1268 1002.83 1266.27 L 1003.19 1264.29 C 1005.79 1263.41 1006.07 1263.67 1008.88 1263.9 C 1033.59 1250.07 1033.03 1251.03 1050.25 1226.39 z"/>
<path transform="translate(0,0)" fill="rgb(235,128,108)" d="M 1008.88 1263.9 C 1023.73 1264.44 1053.47 1256.36 1069.25 1252.6 C 1057.64 1271.13 1025.93 1281.47 1006.13 1270.02 C 1004.46 1269.05 1003.67 1268 1002.83 1266.27 L 1003.19 1264.29 C 1005.79 1263.41 1006.07 1263.67 1008.88 1263.9 z"/>
<path transform="translate(0,0)" fill="rgb(238,238,238)" d="M 1009.87 1040.11 C 1018.75 1043.73 1032.24 1059.17 1036.79 1067.23 C 1026.28 1078.75 1017.78 1088.29 1007.72 1100.3 L 1005.38 1103.08 C 1000.62 1103.5 999.116 1097.59 998.68 1093.7 C 998.046 1088.04 1003.12 1091.59 1007.25 1086.43 C 1006.2 1085.64 1005.17 1084.82 1004.16 1083.98 C 986.529 1069.55 997.455 1053.57 1009.87 1040.11 z"/>
<path transform="translate(0,0)" fill="rgb(238,238,238)" d="M 943.748 961.389 C 947.278 961.009 947.663 960.47 950.589 961.777 C 949.477 965.566 943.075 969.9 939.81 972.429 C 932.871 971.916 913.075 970.436 908.434 976.365 L 909.759 977.877 C 913.856 979.297 915.437 979.949 919.704 980.045 L 932.411 980.339 C 927.713 987.787 918.415 1005.67 907.692 1000.58 C 894.236 995.258 883.323 990.543 869.039 987.452 C 892.006 973.979 917.385 965.126 943.748 961.389 z"/>
<path transform="translate(0,0)" fill="rgb(238,238,238)" d="M 858.878 996.256 C 874.857 995.124 884.075 998.251 897.639 1005.63 C 874.641 1013.45 863.745 1017.8 842.212 1029.08 C 832.862 1033.86 826.171 1038.88 817.676 1044.93 C 824.071 1023.98 840.238 1007.14 858.878 996.256 z"/>
<path transform="translate(0,0)" fill="rgb(238,238,238)" d="M 864.064 1185.62 C 869.017 1188.42 877.855 1196.22 882.617 1200.25 C 895.688 1211.32 906.626 1218.99 922.449 1225.69 L 924.066 1226.37 L 924.603 1227.81 L 922.689 1230.13 C 888.548 1242.92 862.467 1220.08 864.064 1185.62 z"/>
<path transform="translate(0,0)" fill="rgb(241,232,223)" d="M 899.866 1036.75 C 898.097 1044.81 895.479 1058.84 890.956 1065.24 C 875.871 1076.43 865.019 1086.79 856.726 1104.09 C 854.661 1108.4 852.346 1115.56 850.395 1119.16 C 848.387 1114.69 847.52 1111.84 846.075 1107.22 C 852.251 1083.42 880.691 1052.07 899.866 1036.75 z"/>
<path transform="translate(0,0)" fill="rgb(238,238,238)" d="M 1082.35 1063.1 C 1087.81 1068.05 1089.53 1070.07 1094.1 1075.9 C 1089.51 1086.78 1087.73 1098.7 1082.33 1108.45 C 1081.19 1110.52 1077.34 1109.87 1074.73 1109.84 C 1066.12 1107.52 1065.68 1095.8 1062.19 1087.94 L 1061.69 1086.84 C 1070.61 1078.2 1075.68 1073.42 1082.35 1063.1 z"/>
<path transform="translate(0,0)" fill="rgb(238,238,238)" d="M 1162.43 983.069 C 1171.72 978.693 1179.24 976.829 1189.2 974.706 C 1189.4 987.743 1189.03 988.824 1183.43 1000.65 C 1178.92 1003.35 1163.48 1003.98 1157.25 1004.48 C 1150.82 1001.31 1147.07 998.975 1141.02 995.1 C 1148.28 991.305 1155.41 987.293 1162.43 983.069 z"/>
<path transform="translate(0,0)" fill="rgb(111,165,216)" d="M 1162.43 983.069 C 1171.72 978.693 1179.24 976.829 1189.2 974.706 C 1189.4 987.743 1189.03 988.824 1183.43 1000.65 C 1179.27 994.68 1168.69 987.617 1162.43 983.069 z"/>
<path transform="translate(0,0)" fill="url(#Gradient1)" d="M 1006.55 945.421 C 1032.23 943.649 1056.95 959.807 1074.28 977.433 C 1076.03 979.216 1077.2 982.371 1076.87 984.875 L 1075.08 985.07 C 1069.78 982.308 1066.93 979.786 1062.34 976.081 C 1049.96 967.208 1035.69 963.553 1020.66 953.115 C 1004.37 954.837 994.808 954.09 978.432 951.31 C 989.423 947.535 995.006 946.362 1006.55 945.421 z"/>
<path transform="translate(0,0)" fill="rgb(241,232,223)" d="M 1119.69 1102.7 C 1121.42 1092.37 1143.31 1066.53 1150.77 1060.28 L 1151.66 1061.29 C 1150.2 1072.37 1151.21 1075.96 1146.81 1087.17 C 1146.3 1098.86 1138.26 1096.82 1137.25 1102.67 L 1140.49 1102.95 L 1140.63 1103.68 L 1139.7 1104.07 C 1136.18 1109.8 1132.15 1116.74 1128.12 1121.99 C 1126.46 1117.99 1124.47 1114.3 1124.36 1110.06 C 1124.89 1109.5 1125.75 1108.5 1126.33 1108.09 C 1124.97 1104.61 1123.97 1105.1 1119.69 1102.7 z"/>
<path transform="translate(0,0)" fill="rgb(243,172,121)" d="M 1146.81 1087.17 C 1146.3 1098.86 1138.26 1096.82 1137.25 1102.67 L 1140.49 1102.95 L 1140.63 1103.68 L 1139.7 1104.07 C 1136.18 1109.8 1132.15 1116.74 1128.12 1121.99 C 1126.46 1117.99 1124.47 1114.3 1124.36 1110.06 C 1124.89 1109.5 1125.75 1108.5 1126.33 1108.09 C 1124.97 1104.61 1123.97 1105.1 1119.69 1102.7 C 1129.5 1099.28 1140.17 1095.36 1146.81 1087.17 z"/>
<path transform="translate(0,0)" fill="rgb(241,232,223)" d="M 1126.33 1108.09 C 1130.69 1107.05 1133.9 1105.27 1139.7 1104.07 C 1136.18 1109.8 1132.15 1116.74 1128.12 1121.99 C 1126.46 1117.99 1124.47 1114.3 1124.36 1110.06 C 1124.89 1109.5 1125.75 1108.5 1126.33 1108.09 z"/>
<path transform="translate(0,0)" fill="rgb(238,238,238)" d="M 950.57 1050.77 C 954.569 1052.83 956.311 1054.4 959.888 1057.22 C 951.787 1068.3 943.825 1078.13 935.15 1088.78 L 927.238 1089.79 C 923.889 1090.02 923.761 1090.27 920.662 1088.76 C 911.783 1077.49 942.49 1056.36 950.57 1050.77 z"/>
<path transform="translate(0,0)" fill="rgb(241,232,223)" d="M 1147.73 1038.24 C 1150.18 1040.18 1150.4 1041.73 1150.87 1044.49 C 1148.97 1052.71 1127.23 1075.31 1120.45 1082.94 C 1118.85 1077.22 1117.14 1064.36 1115.87 1057.61 C 1126.49 1046.67 1133.43 1042.98 1147.73 1038.24 z"/>
<path transform="translate(0,0)" fill="rgb(238,238,238)" d="M 938.213 1159.1 C 941.699 1159.6 950.101 1169.13 955.045 1173.16 C 948.488 1185.27 948.693 1188.61 934.449 1185.95 C 923.48 1182.45 920.82 1180.87 914.677 1171.19 C 922.226 1164.15 928.638 1161.7 938.213 1159.1 z"/>
<path transform="translate(0,0)" fill="rgb(238,238,238)" d="M 1023.4 1112.28 C 1031.52 1111.82 1043.2 1113.15 1051.53 1113.96 C 1051.08 1120.78 1051.62 1130.94 1047.05 1135.12 L 1042.76 1134.62 C 1035.51 1133.3 1028 1132.62 1020.65 1131.84 C 1015.6 1126.12 1014.38 1123.51 1011.21 1116.89 C 1015.83 1114.57 1018.56 1113.79 1023.4 1112.28 z"/>
<path transform="translate(0,0)" fill="rgb(238,238,238)" d="M 969.749 996.399 C 979.997 994.88 989.451 1003.63 986.692 1013.06 C 982.922 1015.52 972.708 1011.39 967.612 1011.1 C 963.45 1010.87 959.502 1010.7 955.349 1010.69 C 948.104 1010.83 939.74 1013.56 934.293 1011.54 L 933.52 1009.61 C 937.741 998.4 959.121 997.836 969.749 996.399 z"/>
<path transform="translate(0,0)" fill="rgb(238,238,238)" d="M 856.572 1126.07 C 857.169 1110.02 870.556 1095.07 880.446 1083.25 C 883.164 1080 886.275 1076.77 890.516 1076.53 L 891.491 1083.02 L 889.432 1096.33 C 878.743 1105.85 867.717 1113.2 859.557 1125.54 C 859.393 1125.79 857.035 1126.07 856.572 1126.07 z"/>
<path transform="translate(0,0)" fill="rgb(238,238,238)" d="M 1090.26 1122.57 C 1098.96 1123.53 1104.37 1127.21 1111.91 1131.48 C 1112.29 1136.94 1112.07 1141.92 1111.94 1147.37 L 1105.7 1153.93 L 1096.09 1160.42 C 1091.79 1145.58 1089.81 1137.91 1090.26 1122.57 z"/>
<path transform="translate(0,0)" fill="rgb(238,238,238)" d="M 993.685 1144.38 L 994.576 1144.34 L 995.751 1145.46 C 994.523 1158.33 990.655 1177.33 977.521 1182.51 C 972.983 1174.68 970.726 1158.84 976.611 1151.35 C 981.714 1144.86 986.261 1145.35 993.685 1144.38 z"/>
<path transform="translate(0,0)" fill="rgb(238,238,238)" d="M 935.893 1136.54 C 943.814 1134.87 958.36 1130.51 965.165 1133.35 C 971.471 1142.16 960.017 1143.48 955.111 1145.34 C 955.539 1148.78 955.449 1148.54 957.496 1151.33 C 954.176 1152.85 950.129 1154.54 947.004 1156.28 L 944.046 1155.76 C 941.645 1153.35 940.259 1151.24 937.029 1150.9 L 935.04 1152.52 C 932.744 1148.43 930.442 1144.92 929.187 1140.41 C 931.474 1139 933.55 1137.83 935.893 1136.54 z"/>
<path transform="translate(0,0)" fill="rgb(243,172,121)" d="M 929.187 1140.41 C 931.474 1139 933.55 1137.83 935.893 1136.54 C 936.496 1141.25 939.954 1145.9 942.635 1149.99 L 955.111 1145.34 C 955.539 1148.78 955.449 1148.54 957.496 1151.33 C 954.176 1152.85 950.129 1154.54 947.004 1156.28 L 944.046 1155.76 C 941.645 1153.35 940.259 1151.24 937.029 1150.9 L 935.04 1152.52 C 932.744 1148.43 930.442 1144.92 929.187 1140.41 z"/>
<path transform="translate(0,0)" fill="rgb(238,238,238)" d="M 1132.37 1019.14 C 1139.55 1017.86 1143.88 1024.86 1147.68 1029.86 C 1136.38 1034.22 1131.54 1036.06 1121.13 1042.37 L 1115.01 1047.09 C 1112.79 1040.63 1110.82 1033.46 1108.87 1026.86 C 1117.03 1023.3 1123.76 1021.15 1132.37 1019.14 z"/>
<path transform="translate(0,0)" fill="rgb(238,238,238)" d="M 944.237 1098.27 C 956.543 1097.64 964.474 1101.06 975.185 1106.28 C 964.828 1109.21 958.858 1110.31 948.754 1114.51 C 943.706 1116.65 932.551 1123.34 928.314 1121.85 C 926.471 1112.52 934.642 1100.24 944.237 1098.27 z"/>
<path transform="translate(0,0)" fill="rgb(238,238,238)" d="M 991.215 969.261 C 996.899 967.738 998.299 969.782 1002.48 973.481 C 1001.26 977.063 998.901 982.099 999.891 985.432 C 996.178 985.314 996.912 983.751 993.097 984.453 L 989.878 986.679 C 985.684 987.034 980.519 986.815 976.226 986.774 C 972.202 984.349 968.282 980.775 964.643 977.714 C 974.93 972.949 980.066 971.062 991.215 969.261 z"/>
<path transform="translate(0,0)" fill="rgb(243,172,121)" d="M 991.215 969.261 C 996.899 967.738 998.299 969.782 1002.48 973.481 C 1001.26 977.063 998.901 982.099 999.891 985.432 C 996.178 985.314 996.912 983.751 993.097 984.453 L 989.878 986.679 C 991.351 981.758 993.915 975.197 993.471 970.364 L 991.215 969.261 z"/>
<path transform="translate(0,0)" fill="rgb(238,238,238)" d="M 941.717 1246.2 C 944.51 1246.06 960.664 1260.13 964.256 1262.95 C 955.694 1262.95 951.161 1262.72 942.695 1261.66 C 931.694 1259.88 925.64 1258.48 915.49 1253.95 C 923.683 1251.17 933.319 1248.57 941.717 1246.2 z"/>
<path transform="translate(0,0)" fill="rgb(238,238,238)" d="M 1047.84 1017.8 C 1062.65 1019.52 1064.56 1020.73 1076.39 1030.22 L 1068.86 1036.77 C 1065.25 1039.48 1063.35 1040.17 1059.18 1042.08 L 1050.89 1035.23 C 1050.06 1029.36 1048.93 1023.62 1047.84 1017.8 z"/>
<path transform="translate(0,0)" fill="rgb(238,238,238)" d="M 1025.75 990.447 L 1027.41 990.307 C 1032.47 989.918 1033.05 990.071 1036.21 992.791 C 1032.74 996.549 1015.3 1001.9 1008.23 1005.51 L 1006.95 1006.17 C 1001.68 1007.68 995.865 1003.21 995.245 998.302 C 999.298 990.511 1017.5 990.956 1025.75 990.447 z"/>
<path transform="translate(0,0)" fill="rgb(241,232,223)" d="M 952.192 1242.85 C 963.115 1244.89 969.099 1245.32 980.291 1245.95 C 983.403 1251.8 985.259 1255.86 987.815 1261.98 C 972.788 1265.19 961.838 1252.93 952.192 1242.85 z"/>
<path transform="translate(0,0)" fill="rgb(238,238,238)" d="M 879.411 1135.28 C 885.745 1135.73 891.015 1134.98 893.207 1141.79 C 892.061 1148.08 887.849 1151.1 883.195 1155.35 C 878.595 1156.54 876.547 1156.6 872.731 1153.55 C 869.6 1146.54 873.132 1139.08 879.411 1135.28 z"/>
<path transform="translate(0,0)" fill="rgb(241,232,223)" d="M 1002.48 973.481 C 1003.42 972.188 1004.25 970.243 1005.74 970.056 C 1013.02 969.14 1028.15 973.056 1030.37 980.872 C 1027.54 983.579 1008.07 983.578 999.891 985.432 C 998.901 982.099 1001.26 977.063 1002.48 973.481 z"/>
<path transform="translate(0,0)" fill="rgb(241,232,223)" d="M 1039.65 1074.8 C 1043.39 1078.89 1042.84 1084.86 1043.85 1091.04 C 1036.52 1095.96 1029.47 1101.16 1021.28 1104.37 L 1018.19 1103.88 L 1017.95 1101.99 C 1021.16 1094.91 1033.91 1081.31 1039.65 1074.8 z"/>
<path transform="translate(0,0)" fill="rgb(241,232,223)" d="M 964.607 1065.59 C 968.855 1068.92 974.783 1076.4 978.31 1080.69 C 971.339 1082.79 964.014 1084.73 956.98 1086.71 L 945.266 1089.36 C 951.3 1081.11 957.755 1073.18 964.607 1065.59 z"/>
<path transform="translate(0,0)" fill="rgb(241,232,223)" d="M 1014.25 1166.91 C 1010.28 1159.75 1003.09 1148.74 1009.85 1141.57 C 1019.62 1140.22 1022.78 1152.57 1025.41 1159.82 C 1021.51 1162.48 1018.34 1164.55 1014.25 1166.91 z"/>
<path transform="translate(0,0)" fill="rgb(241,232,223)" d="M 1023 1203.82 C 1026.55 1204.8 1034.64 1214.23 1037.57 1217.36 C 1030.13 1218.79 1026.46 1218.98 1018.86 1219.34 C 1012.49 1219.33 1009.54 1218.68 1003.4 1217.53 C 1010.6 1211.58 1015.02 1208.7 1023 1203.82 z"/>
<path transform="translate(0,0)" fill="rgb(245,218,193)" d="M 1088.6 1184.85 C 1092.8 1187.45 1095.27 1188.82 1095.7 1193.92 C 1092.48 1199.51 1078.76 1203.34 1071.73 1206.32 C 1068.8 1207.58 1068.08 1208.52 1065.54 1208.02 C 1066.27 1203.04 1084.05 1188.42 1088.6 1184.85 z"/>
<path transform="translate(0,0)" fill="rgb(241,232,223)" d="M 1022.23 1243.23 L 1023.47 1243.03 L 1024.21 1243.93 C 1020.75 1250.65 1004.18 1261.85 996.045 1258.41 C 993.358 1254.69 991.998 1251.5 990.011 1247.39 C 1004.1 1247.76 1008.42 1246.73 1022.23 1243.23 z"/>
<path transform="translate(0,0)" fill="rgb(241,232,223)" d="M 915.473 1110.09 L 916.271 1110.26 C 919.634 1115.66 919.365 1121.04 914.892 1125.65 C 910.345 1130.34 905.161 1129.12 899.237 1128.8 L 897.487 1128.22 C 895.712 1125.87 896.217 1127.23 896.684 1123.8 C 901.008 1116.94 908.371 1113.81 915.473 1110.09 z"/>
<path transform="translate(0,0)" fill="rgb(238,238,238)" d="M 932.84 1029.89 C 935.109 1029.11 934.757 1029.18 936.844 1027.9 L 937.389 1025.5 C 940.022 1027.6 942.837 1029.76 945.343 1031.99 C 944.506 1034.08 943.668 1037.15 942.167 1038.39 C 933.678 1041.33 929.417 1043.67 921.337 1047.9 C 922.853 1042.32 924.143 1029.07 929.554 1027.12 L 932.84 1029.89 z"/>
<path transform="translate(0,0)" fill="rgb(243,172,121)" d="M 932.84 1029.89 C 935.109 1029.11 934.757 1029.18 936.844 1027.9 L 937.389 1025.5 C 940.022 1027.6 942.837 1029.76 945.343 1031.99 C 944.506 1034.08 943.668 1037.15 942.167 1038.39 C 938.424 1035.29 936.186 1033.46 932.84 1029.89 z"/>
<path transform="translate(0,0)" fill="rgb(245,218,193)" d="M 973.896 958.416 L 1001.73 959.822 C 987.234 963.012 980.824 963.281 966.646 968.994 C 962.618 971.031 955.683 975.625 951.579 973.4 C 951.73 972.263 951.987 971.032 952.845 970.213 C 961.117 962.315 962.782 959.375 973.896 958.416 z"/>
<path transform="translate(0,0)" fill="rgb(241,232,223)" d="M 913.377 1161.9 C 914.868 1154.47 915.866 1141 922.944 1137.38 C 927.401 1138.05 925.31 1137.27 929.187 1140.41 C 930.442 1144.92 932.744 1148.43 935.04 1152.52 C 925.944 1153.66 921.243 1157.25 913.377 1161.9 z"/>
<path transform="translate(0,0)" fill="rgb(238,238,238)" d="M 985.333 1044.79 C 988.463 1051.95 987.449 1067.44 980.319 1070.63 L 978.222 1068.7 C 975.18 1065.22 973.234 1062.49 970.561 1058.76 C 974.038 1054.69 981.157 1048.58 985.333 1044.79 z"/>
<path transform="translate(0,0)" fill="rgb(245,218,193)" d="M 1165.33 1039.65 C 1172.64 1047.16 1162.55 1075.82 1157.4 1084.27 C 1156.55 1083.44 1157.1 1084.07 1156.22 1082.05 C 1157.78 1070.37 1158.92 1047.72 1165.33 1039.65 z"/>
<path transform="translate(0,0)" fill="rgb(241,232,223)" d="M 910.013 1060.13 C 910.938 1061.28 912.115 1071.5 912.415 1073.68 C 907.53 1080.33 904.461 1082.78 898.284 1088.06 L 898.036 1088.2 L 897.19 1087.69 C 897.26 1080.87 899.41 1072.83 901.57 1066.39 L 910.013 1060.13 z"/>
<path transform="translate(0,0)" fill="rgb(241,232,223)" d="M 1070.19 1053.8 C 1073.58 1055.81 1073.99 1055.95 1074.68 1059.42 C 1072.81 1066.95 1066.31 1072.01 1060.68 1077.66 C 1058.28 1077.73 1059.49 1077.89 1057.01 1076.03 C 1055.3 1066.37 1063.28 1059.17 1070.19 1053.8 z"/>
<path transform="translate(0,0)" fill="rgb(245,218,193)" d="M 1025.41 1159.82 C 1026.14 1163.45 1025.46 1164.8 1028.84 1166.67 C 1030.64 1170.06 1030.99 1170.12 1030.79 1174.04 C 1028.14 1179.57 1024.93 1180.9 1019.05 1179.04 C 1016.9 1177.12 1016.91 1177.31 1015.85 1174.67 C 1015.39 1172.07 1014.85 1169.49 1014.25 1166.91 C 1018.34 1164.55 1021.51 1162.48 1025.41 1159.82 z"/>
<path transform="translate(0,0)" fill="rgb(243,172,121)" d="M 1025.41 1159.82 C 1026.14 1163.45 1025.46 1164.8 1028.84 1166.67 C 1023.24 1169.28 1020.72 1170.48 1015.85 1174.67 C 1015.39 1172.07 1014.85 1169.49 1014.25 1166.91 C 1018.34 1164.55 1021.51 1162.48 1025.41 1159.82 z"/>
<path transform="translate(0,0)" fill="rgb(241,232,223)" d="M 1060.99 1186.98 C 1063.88 1193.57 1058.15 1203.12 1051.39 1205.86 L 1048.91 1205.5 C 1046.35 1201.88 1046.26 1192.68 1047.52 1188.64 C 1053.46 1187.2 1054.87 1187.08 1060.99 1186.98 z"/>
<path transform="translate(0,0)" fill="rgb(241,232,223)" d="M 1069.12 1138.48 C 1072.24 1140.96 1082.03 1167.51 1080.64 1170.46 C 1077.56 1171.9 1075.13 1173.47 1071.82 1173.33 C 1070.11 1166.07 1069.19 1146.18 1069.12 1138.48 z"/>
<path transform="translate(0,0)" fill="rgb(241,232,223)" d="M 937.389 1025.5 C 947.025 1023.82 958.938 1024.75 968.646 1026.11 C 960.426 1032.85 954.87 1040.3 945.343 1031.99 C 942.837 1029.76 940.022 1027.6 937.389 1025.5 z"/>
<path transform="translate(0,0)" fill="rgb(241,232,223)" d="M 1025.41 1140.44 C 1031.53 1140.35 1043.07 1140.08 1047.22 1144.62 C 1046.27 1147.97 1045.98 1147.29 1042.71 1150.02 C 1039.33 1152.05 1035.63 1154.04 1032.18 1155.99 C 1029.61 1150.8 1026.91 1146.01 1025.41 1140.44 z"/>
<path transform="translate(0,0)" fill="rgb(241,232,223)" d="M 958.922 1221.22 C 963.703 1220.92 968.46 1220.09 972.199 1223.28 L 972.048 1225.26 C 969.094 1228.55 965.594 1229.16 961.281 1230.62 L 957.282 1232.33 C 953.701 1232.16 953.958 1232.1 951.007 1229.99 C 949.491 1226.63 949.664 1228.33 950.523 1224.71 C 952.847 1222.05 955.369 1222 958.922 1221.22 z"/>
<path transform="translate(0,0)" fill="rgb(244,216,213)" d="M 1092.19 1216.16 C 1092.47 1216.76 1092.74 1217.35 1093.01 1217.95 C 1091.47 1222.89 1090.58 1223.94 1087.76 1228.43 C 1079.13 1227.76 1075.76 1227.31 1067.25 1225.44 C 1065.52 1224.78 1066.28 1225.27 1064.98 1223.95 C 1068.47 1221.96 1086.84 1217.66 1092.19 1216.16 z"/>
<path transform="translate(0,0)" fill="rgb(238,238,238)" d="M 1099.08 1084.07 C 1104.08 1087.41 1105.72 1089.45 1109.15 1094.28 L 1098.23 1104.94 C 1096.1 1106.93 1096.23 1106.99 1093.59 1108.1 C 1091.63 1104.01 1097.36 1089.38 1099.08 1084.07 z"/>
<path transform="translate(0,0)" fill="rgb(241,232,223)" d="M 1099.29 1031.6 L 1101.22 1032.32 C 1105.56 1038.41 1110 1052.73 1105.36 1059.27 C 1101.81 1054.41 1096.26 1044.2 1095.61 1037.93 C 1095.26 1034.5 1096.76 1034.08 1099.29 1031.6 z"/>
<path transform="translate(0,0)" fill="rgb(241,232,223)" d="M 916.664 1027.82 L 917.309 1028.49 C 918.563 1032.34 915.648 1041.97 914.459 1046.07 C 912.51 1052.79 911.723 1053.04 905.848 1056.08 L 904.915 1054.89 C 904.7 1046.98 909.682 1031.96 916.664 1027.82 z"/>
<path transform="translate(0,0)" fill="rgb(241,232,223)" d="M 1039.1 1020.16 C 1040.92 1021.4 1043.65 1032.67 1044.5 1035.66 L 1032.92 1031.76 L 1020.25 1028.09 C 1027.44 1024.35 1031.33 1022.36 1039.1 1020.16 z"/>
<path transform="translate(0,0)" fill="rgb(241,232,223)" d="M 974.715 1038.28 L 977.64 1038.39 L 978.066 1039.67 C 975.041 1044.22 968.954 1049.41 964.755 1053.33 C 960.726 1049.51 959.858 1047.85 956.877 1043.28 C 964.393 1040.47 966.841 1039.59 974.715 1038.28 z"/>
<path transform="translate(0,0)" fill="rgb(241,232,223)" d="M 1029.92 1039.42 C 1044.73 1041.14 1047.73 1041.94 1045.99 1057.41 L 1043.96 1057.18 C 1037.88 1051.95 1033.56 1046.52 1029.92 1039.42 z"/>
<path transform="translate(0,0)" fill="rgb(245,218,193)" d="M 957.496 1151.33 C 961.154 1150.57 960.963 1149.92 963.303 1151.37 C 964.177 1155.77 960.395 1163.15 958.558 1167.75 C 953.413 1163.42 951.435 1161.25 947.004 1156.28 C 950.129 1154.54 954.176 1152.85 957.496 1151.33 z"/>
<path transform="translate(0,0)" fill="rgb(241,232,223)" d="M 1059.4 1001.36 C 1066.45 1006.04 1067.56 1008.73 1071.63 1015.93 L 1061.34 1011.45 C 1056.75 1010.23 1051.77 1009.88 1048.48 1006.92 L 1048.5 1005.15 C 1052.02 1002.42 1055 1002.26 1059.4 1001.36 z"/>
<path transform="translate(0,0)" fill="rgb(245,218,193)" d="M 868.694 1051.97 L 870.257 1055.42 C 865.046 1062.45 851.58 1080.6 846.205 1086.42 C 850.742 1070.15 856.695 1063.22 868.694 1051.97 z"/>
<path transform="translate(0,0)" fill="rgb(243,172,121)" d="M 1061.86 1166.3 L 1063.02 1177.46 C 1060.64 1181.18 1059.77 1181.15 1059.76 1184.8 L 1060.99 1186.98 C 1054.87 1187.08 1053.46 1187.2 1047.52 1188.64 C 1048.66 1186.71 1050.49 1182.74 1051.55 1180.59 C 1056.51 1174.87 1057.95 1172.8 1061.86 1166.3 z"/>
<path transform="translate(0,0)" fill="rgb(245,218,193)" d="M 1061.86 1166.3 L 1063.02 1177.46 C 1057.96 1179.52 1056.94 1179.95 1051.55 1180.59 C 1056.51 1174.87 1057.95 1172.8 1061.86 1166.3 z"/>
<path transform="translate(0,0)" fill="rgb(245,218,193)" d="M 944.032 1196.2 C 937.303 1198.34 922.801 1199.79 917.457 1194.17 C 916.52 1190.71 915.962 1190.37 916.573 1187.07 C 925.916 1192.38 929.231 1193.05 939.793 1194.27 L 944.032 1196.2 z"/>
<path transform="translate(0,0)" fill="rgb(245,218,193)" d="M 964.467 1117.04 L 968.446 1117.14 C 970.106 1119.75 969.972 1118.41 969.415 1121.16 C 964.923 1124.23 952.041 1125.99 946.216 1127.05 L 943.111 1127.56 L 942.128 1126.77 C 947.213 1122.25 957.983 1118.95 964.467 1117.04 z"/>
<path transform="translate(0,0)" fill="rgb(245,218,193)" d="M 909.902 1098.06 C 913.976 1098.33 912.68 1097.44 914.912 1099.57 L 914.471 1101.38 C 910.519 1105.36 905.299 1107.99 900.397 1110.87 C 898.404 1111.58 899.388 1111.32 896.943 1110.88 C 895.763 1103.02 903.996 1099.98 909.902 1098.06 z"/>
<path transform="translate(0,0)" fill="rgb(241,232,223)" d="M 1147.42 1015.18 C 1152.48 1016.17 1160.73 1020.49 1163.53 1025 C 1164.36 1026.34 1163.71 1027.17 1163.27 1029.21 C 1159.49 1029.92 1159.14 1030.71 1155.93 1028.47 C 1151.69 1025.51 1148.57 1020.09 1147.42 1015.18 z"/>
<path transform="translate(0,0)" fill="rgb(245,218,193)" d="M 1068.45 996.863 C 1079.87 997.106 1084.07 1011.05 1085.6 1020.35 C 1080.99 1017.36 1071.78 1002 1068.45 996.863 z"/>
<path transform="translate(0,0)" fill="rgb(243,172,121)" d="M 1037.28 1009.62 L 1039.74 1011.37 L 1039.81 1012.7 C 1034.56 1016.59 1026.12 1019.55 1019.9 1022.03 L 1018.27 1022.43 L 1018.04 1021.24 C 1024.76 1012.6 1027.2 1011.41 1037.28 1009.62 z"/>
<path transform="translate(0,0)" fill="rgb(245,218,193)" d="M 1038.46 1192.02 C 1040.36 1196.29 1041.46 1204.94 1041.11 1209.66 L 1039.73 1210.6 L 1038.21 1209.31 L 1037.5 1208.36 L 1036.33 1206.77 C 1033.91 1203.53 1031.64 1201.57 1031.47 1197.66 C 1033.69 1193.67 1033.7 1194.63 1038.46 1192.02 z"/>
<path transform="translate(0,0)" fill="rgb(245,218,193)" d="M 1122.58 1006.94 C 1125.28 1008.11 1127.54 1009.45 1130.11 1010.86 L 1114.73 1017.04 C 1111.57 1018.39 1111.33 1019.15 1108.5 1018.66 C 1109.64 1014.34 1118.68 1009.25 1122.58 1006.94 z"/>
<path transform="translate(0,0)" fill="rgb(245,218,193)" d="M 1006.27 1176.65 C 1008.47 1176.76 1009.04 1177.33 1011.24 1178.3 L 1011.71 1180.69 C 1008.86 1185.56 1005.44 1185.18 1000.26 1185.61 C 997.36 1185.44 998.241 1185.53 995.416 1184.52 L 995.314 1183.17 C 998.369 1180.16 1002.36 1178.59 1006.27 1176.65 z"/>
<path transform="translate(0,0)" fill="rgb(245,218,193)" d="M 1097.48 997.784 C 1101.79 998.273 1112.7 998.069 1112.72 1003.14 L 1109.03 1006.33 L 1103.91 1010.43 C 1101.97 1005.69 1099.94 1002.23 1097.48 997.784 z"/>
<path transform="translate(0,0)" fill="rgb(245,218,193)" d="M 1082.96 1175.89 L 1084.14 1176.35 L 1083.93 1177.94 C 1079.76 1184.17 1074.69 1187.45 1068.6 1191.48 L 1067.76 1191.49 C 1067.9 1188.33 1070.5 1184.29 1072.06 1181.32 L 1082.96 1175.89 z"/>
<path transform="translate(0,0)" fill="rgb(245,218,193)" d="M 1037.02 970.713 C 1043.79 971.69 1055.47 978.036 1058.42 984.658 C 1050.77 984.809 1041.57 976.471 1037.02 970.713 z"/>
<path transform="translate(0,0)" fill="rgb(241,232,223)" d="M 935.957 1048.91 L 938.021 1049.22 C 936.721 1051.4 924.527 1061.14 921.141 1064.24 L 920.053 1064.59 C 915.611 1057.54 930.932 1051.27 935.957 1048.91 z"/>
<path transform="translate(0,0)" fill="rgb(245,218,193)" d="M 908.522 1140.69 C 909.638 1147.03 908.685 1152.34 906.623 1158.37 L 905.092 1158.6 C 901.032 1150.08 899.881 1146.4 908.522 1140.69 z"/>
<path transform="translate(0,0)" fill="rgb(245,218,193)" d="M 997.199 1194.28 C 1000.32 1193.87 1000.32 1193.97 1003.47 1194.47 L 1003.02 1195.56 C 996.918 1198.5 993.365 1199.09 986.768 1200.59 C 984.043 1200.99 980.899 1201.9 978.945 1200.72 C 983.458 1197.03 991.546 1195.28 997.199 1194.28 z"/>
<path transform="translate(0,0)" fill="rgb(245,218,193)" d="M 1084.09 1151.09 C 1081.75 1145.42 1077.77 1137.99 1078.28 1132.33 C 1080.14 1129.55 1078.87 1130.37 1081.72 1129.27 C 1084.24 1133.32 1084.36 1144.74 1086.14 1151.01 L 1084.09 1151.09 z"/>
<path transform="translate(0,0)" fill="rgb(245,218,193)" d="M 1037.96 1225.02 L 1038.77 1226.39 C 1034.61 1232.3 1021.41 1236.54 1014.49 1238.03 L 1014.02 1237.79 L 1014.32 1236.62 C 1022.04 1232.32 1029.96 1228.75 1037.96 1225.02 z"/>
<path transform="translate(0,0)" fill="rgb(245,218,193)" d="M 941.335 980.744 C 943.917 980.872 943.872 980.74 946.188 981.795 L 946.362 983.601 C 943.564 987.677 938.656 990.519 934.477 993.441 L 931.91 994.65 C 931.713 991.071 938.641 983.848 941.335 980.744 z"/>
<path transform="translate(0,0)" fill="rgb(245,218,193)" d="M 982.651 1090.45 C 986.605 1094.49 991.542 1098.6 991.584 1104.31 L 990.721 1104.14 L 989.287 1103.83 C 985.868 1103.13 983.954 1103.32 981.717 1100.69 C 980.557 1097.25 981.787 1094.08 982.651 1090.45 z"/>
<path transform="translate(0,0)" fill="rgb(243,172,121)" d="M 1176.32 1039.54 C 1182.86 1044.93 1177.84 1056.34 1175.05 1062.73 C 1174.65 1062.69 1175.03 1062.82 1173.43 1061.99 C 1173.35 1056.65 1175.42 1045.31 1176.32 1039.54 z"/>
<path transform="translate(0,0)" fill="rgb(241,232,223)" d="M 1002.86 1120.62 C 1006.52 1123.36 1010.46 1129.66 1012.71 1133.63 C 1009.41 1134.15 1006.69 1135.12 1003.97 1133.56 C 1001.89 1130.42 1002.72 1124.7 1002.86 1120.62 z"/>
<path transform="translate(0,0)" fill="rgb(245,218,193)" d="M 976.343 1112.06 C 980.515 1112.02 982.929 1111.7 986.413 1114.09 C 987.041 1116.89 987.17 1115.54 985.521 1118.15 C 982.514 1119.22 980.326 1120.31 977.162 1120.15 C 975.282 1117.14 976.11 1116.48 976.343 1112.06 z"/>
<path transform="translate(0,0)" fill="rgb(245,218,193)" d="M 1002.46 1158.66 C 1008.24 1164.09 1007.73 1169.28 1001.36 1173.29 L 999.636 1173.56 L 998.437 1172.53 C 998.586 1168.12 1000.89 1162.95 1002.46 1158.66 z"/>
<path transform="translate(0,0)" fill="rgb(245,218,193)" d="M 1084.4 995.493 C 1090.25 997.917 1096.32 1010.27 1095.93 1016.63 L 1093.73 1016.31 C 1091.62 1013.51 1086.43 999.99 1084.4 995.493 z"/>
<path transform="translate(0,0)" fill="rgb(241,232,223)" d="M 1090.21 1050.82 C 1093.8 1054.22 1097.86 1062.24 1096.96 1067.29 C 1089.73 1060.67 1086.79 1060.15 1090.21 1050.82 z"/>
<path transform="translate(0,0)" fill="rgb(244,216,213)" d="M 1171.3 1010.24 C 1173.49 1010.32 1172.91 1010.29 1175.04 1010.94 C 1175.08 1014.7 1172.98 1016.63 1170.69 1020.3 C 1168.31 1017.84 1165.65 1015.65 1164.52 1012.53 C 1166.51 1010.17 1167.26 1010.85 1171.3 1010.24 z"/>
<path transform="translate(0,0)" fill="rgb(241,232,223)" d="M 1044.67 1098.1 C 1046.52 1099.64 1048.79 1102.27 1049.12 1104.78 C 1046.91 1106.7 1046.79 1105.94 1042.77 1105.72 C 1039.98 1105.44 1038.49 1105.55 1036.14 1104.02 C 1037.31 1101.46 1041.68 1099.77 1044.67 1098.1 z"/>
<path transform="translate(0,0)" fill="rgb(245,218,193)" d="M 1094.74 1175.44 C 1098.45 1176.28 1101.35 1176.8 1103.92 1179.55 C 1105.68 1183.29 1105.12 1184.54 1104.58 1188.87 L 1103.03 1188.66 C 1099.88 1185.52 1096.99 1179.51 1094.74 1175.44 z"/>
<path transform="translate(0,0)" fill="rgb(243,172,121)" d="M 882.752 1113.88 L 883.147 1114.46 C 883.134 1116.63 872.868 1126.82 869.586 1131.28 C 867.05 1121.89 875.412 1118.96 882.752 1113.88 z"/>
<path transform="translate(0,0)" fill="rgb(245,218,193)" d="M 901.207 1179.48 C 906.118 1182.62 907.803 1187.04 909.331 1192.4 C 905.568 1191.82 903.957 1191.99 901.317 1189.29 C 899.773 1185.73 900.601 1183.37 901.207 1179.48 z"/>
<path transform="translate(0,0)" fill="rgb(243,172,121)" d="M 1096.07 1203.93 C 1098.07 1205.14 1097.28 1204.28 1098.29 1206.66 L 1096.41 1209.08 C 1091.38 1211.61 1088.41 1211.56 1082.91 1212.08 L 1082.16 1211.84 L 1081.68 1210.8 C 1086.42 1208.39 1091.21 1206.1 1096.07 1203.93 z"/>
<path transform="translate(0,0)" fill="rgb(245,218,193)" d="M 980.548 1125.73 L 982.396 1126.24 L 982.851 1128.38 C 981.12 1133.24 979.331 1134.98 976.153 1139 C 974.812 1137.26 974.562 1134.01 974.551 1131.88 C 977.072 1127.19 975.86 1128.8 980.548 1125.73 z"/>
<path transform="translate(0,0)" fill="rgb(245,218,193)" d="M 837.945 1137.59 C 844.194 1139.48 849.517 1145.16 850.042 1151.76 L 848.209 1151.58 C 843.02 1147.56 840.998 1143.39 837.945 1137.59 z"/>
<path transform="translate(0,0)" fill="rgb(241,232,223)" d="M 1108.6 1113.97 L 1110.93 1114.2 L 1112.1 1115.87 C 1112.36 1119.53 1112.81 1117.93 1110.87 1120.89 L 1107.39 1120.89 C 1104.38 1119.67 1103.91 1119.51 1101.07 1117.69 L 1101.68 1116.37 L 1108.6 1113.97 z"/>
<path transform="translate(0,0)" fill="rgb(245,218,193)" d="M 971.313 1090.39 C 974.004 1090.14 972.799 1089.78 975.078 1091.05 C 975.294 1094.07 974.438 1094.67 972.752 1097.29 L 971.35 1096.9 C 968.35 1095.58 965.544 1094.64 963.147 1092.46 C 965.664 1090.52 967.636 1090.9 971.313 1090.39 z"/>
<path transform="translate(0,0)" fill="rgb(245,218,193)" d="M 919.507 1241.29 L 921.471 1241.6 L 921.081 1242.9 C 915.501 1245.31 911.144 1245.95 905.229 1247.17 C 903.374 1246.96 904.315 1247.23 902.447 1246.23 C 905.334 1243.12 915.049 1241.91 919.507 1241.29 z"/>
<path transform="translate(0,0)" fill="rgb(243,172,121)" d="M 953.017 1192.07 C 957.772 1191.66 961.676 1190.75 965.899 1192.62 L 965.701 1193.91 C 961.13 1195.74 956.147 1196.31 951.281 1195.54 L 953.017 1192.07 z"/>
<path transform="translate(0,0)" fill="rgb(243,172,121)" d="M 952.558 1200.5 C 956.154 1200.36 959.189 1200.06 962.752 1200.64 L 962.774 1201.67 L 959.234 1204.49 C 955.945 1205.59 953.923 1206.6 950.707 1205.43 L 950.356 1203.76 L 952.558 1200.5 z"/>
<path transform="translate(0,0)" fill="rgb(245,218,193)" d="M 894.102 1155.52 C 896.41 1158.11 898.269 1163.34 898.762 1166.89 L 897.3 1168.74 C 895.462 1167.01 893.995 1165.37 892.304 1163.51 C 891.698 1159.18 892.072 1160.22 894.102 1155.52 z"/>
<path transform="translate(0,0)" fill="rgb(245,218,193)" d="M 990.17 1224.02 C 993.841 1224.01 996.291 1223.64 999.58 1225.22 C 998.009 1227.04 995.864 1226.81 992.825 1227.4 C 989.401 1228.55 986.951 1229.74 983.94 1228.38 C 985.354 1225.68 987.307 1225.28 990.17 1224.02 z"/>
<path transform="translate(0,0)" fill="rgb(243,172,121)" d="M 1022.5 1007.45 L 1024.28 1008.07 L 1024.02 1008.92 C 1020.27 1011.96 1018.83 1012.27 1014.23 1014.1 L 1012.97 1014.67 L 1012.11 1013.24 C 1014.55 1008.45 1017.64 1008.24 1022.5 1007.45 z"/>
<path transform="translate(0,0)" fill="rgb(245,218,193)" d="M 955.342 984.517 C 958.389 985.445 958.851 985.343 961.286 987.466 L 960.633 988.829 L 956.219 990.178 C 953.436 990.681 953.155 990.683 950.32 990.608 L 950.3 989.245 L 955.342 984.517 z"/>
<path transform="translate(0,0)" fill="rgb(241,232,223)" d="M 1081.28 1042.68 C 1083.28 1044.22 1082.4 1043.3 1083.4 1045.98 C 1082.74 1049.65 1081.89 1050.31 1079.63 1053.22 L 1076.81 1048.95 C 1077.25 1045.4 1077.93 1045.91 1081.28 1042.68 z"/>
<path transform="translate(0,0)" fill="rgb(245,218,193)" d="M 1143.78 1184.41 L 1143.46 1185.43 C 1139.14 1189.24 1137.96 1189.69 1132.68 1192.14 C 1131.89 1189.78 1131.94 1189.95 1132.61 1187.54 C 1135.66 1185.04 1139.75 1184.99 1143.78 1184.41 z"/>
<path transform="translate(0,0)" fill="rgb(241,232,223)" d="M 996.017 1035.37 C 999.699 1035.8 998.274 1035.04 1000.72 1037.1 C 1000.12 1040.13 997.269 1042.06 994.837 1044.33 C 994.263 1044.65 994.747 1044.45 992.758 1044.74 C 992.751 1041.35 994.527 1038.53 996.017 1035.37 z"/>
<path transform="translate(0,0)" fill="rgb(243,172,121)" d="M 1084.09 1151.09 L 1086.14 1151.01 C 1087.88 1156.36 1092.53 1160.52 1092.03 1166.11 L 1090.88 1165.73 C 1087.54 1161.25 1086.03 1156.32 1084.09 1151.09 z"/>
<path transform="translate(0,0)" fill="rgb(243,172,121)" d="M 1106.78 1211.01 L 1107.39 1212.09 C 1105.26 1217.59 1102.18 1222.68 1098.29 1227.12 L 1097.62 1225.91 C 1099.44 1220.17 1102.88 1215.53 1106.78 1211.01 z"/>
<path transform="translate(0,0)" fill="rgb(245,218,193)" d="M 993.258 1131.06 C 994.115 1131.57 994.804 1132.62 995.518 1133.49 L 995.151 1135.2 C 992.243 1137.29 990.559 1137.14 987.008 1137.54 L 985.787 1136.88 C 986.536 1134.89 991.036 1132.52 993.258 1131.06 z"/>
<path transform="translate(0,0)" fill="rgb(243,172,121)" d="M 1053.02 1148.55 L 1054.86 1150.18 C 1054.78 1153.19 1052.88 1154.91 1050.95 1157.42 L 1048.96 1156.09 C 1049.31 1152.72 1050.81 1151.63 1053.02 1148.55 z"/>
<path transform="translate(0,0)" fill="rgb(243,172,121)" d="M 933.162 1232.74 C 933.737 1232.77 933.282 1232.67 934.942 1233.63 C 932.941 1236.64 931.078 1237.12 927.709 1239.13 C 927.342 1238.95 926.213 1237.83 925.856 1237.5 L 926.284 1235.99 C 929.204 1234.34 930.152 1233.94 933.162 1232.74 z"/>
<path transform="translate(0,0)" fill="rgb(243,172,121)" d="M 1152.72 1094.75 C 1153.15 1099.79 1149.46 1103.65 1146.31 1107.2 C 1146.27 1102.4 1149.51 1098.02 1152.72 1094.75 z"/>
<path transform="translate(0,0)" fill="rgb(243,172,121)" d="M 868.694 1051.97 C 872.778 1048.48 875.257 1047.3 879.895 1044.71 C 876.708 1048.3 873.495 1051.87 870.257 1055.42 L 868.694 1051.97 z"/>
<path transform="translate(0,0)" fill="rgb(243,172,121)" d="M 913.518 1212.07 C 918.018 1213.06 920.383 1214.83 923.424 1218.06 C 918.454 1217.63 916.289 1216.18 913.518 1212.07 z"/>
<path transform="translate(0,0)" fill="rgb(243,172,121)" d="M 1107.17 1061.81 C 1109.86 1064.36 1109.56 1067.5 1109.75 1071.16 C 1107.47 1068.68 1107.56 1065.21 1107.17 1061.81 z"/>
<path transform="translate(0,0)" fill="rgb(243,172,121)" d="M 978.814 1028.47 C 981.427 1028.11 981.866 1028.12 984.51 1028.25 L 984.693 1029.74 C 981.933 1030.07 982.294 1029.98 979.474 1029.76 L 978.814 1028.47 z"/>
<path transform="translate(0,0)" fill="rgb(111,165,216)" d="M 976.704 887.022 C 981.161 879.345 986.149 870.756 991.98 864.024 C 1017.17 834.313 1063.76 807.144 1103.71 810.877 C 1135.76 813.872 1176.61 833.972 1187.54 866.489 C 1190.65 875.747 1191.23 881.826 1192.1 891.487 C 1195.75 890.137 1201.53 888.483 1204.1 885.91 C 1213.28 885.38 1223.18 882.897 1232.39 881.562 C 1308.19 870.575 1389.3 1001.61 1312.03 1049.62 C 1309.86 1050.96 1302.27 1057.09 1301.25 1058.83 C 1301.9 1061.97 1302.07 1061.91 1303.8 1064.69 L 1304.43 1066.31 L 1304.46 1068.07 C 1304.69 1077.51 1306.09 1085.88 1305.95 1095.81 C 1305.4 1132.75 1274.93 1185.77 1235.34 1191.77 L 1231.76 1186.83 L 1231.36 1184.68 L 1229.88 1176.91 C 1228.39 1167.78 1224.23 1165.54 1214.45 1166.58 C 1208.91 1167.17 1205.84 1169.93 1202.92 1174.62 C 1200.84 1175.26 1198.77 1175.94 1196.71 1176.66 C 1196.87 1175.34 1205.58 1161.98 1207.31 1158.73 C 1213.73 1146.68 1216.65 1138.85 1220.46 1125.8 C 1239.14 1097.13 1259.26 1063.83 1237.53 1030.41 C 1226.9 1014.06 1210.18 1006.38 1191.64 1002.24 C 1209.46 960.208 1186.82 964.344 1156.49 977.362 C 1121.47 949.227 1069.54 935.35 1024.99 937.732 C 1012.37 936.488 999.632 937.146 987.206 939.684 C 975.834 944.317 971.084 947.078 960.887 953.981 C 947.972 953.64 927.578 958.246 921.961 957.328 C 891.078 966.386 862.902 977.842 836.422 996.561 C 819.794 1008.32 812.811 1030.96 807.187 1049.52 C 754.929 1125.05 764.822 1208.02 850.397 1251.92 C 833.585 1252.13 813.642 1251.04 797.502 1246.6 C 788.115 1244.02 777.663 1240.38 768.42 1237.18 C 764.705 1235.89 761.139 1230.15 757.526 1230.71 C 749.889 1231.9 733.157 1219.27 726.22 1214.43 C 684.502 1185.32 658.762 1142.44 651.156 1091.75 C 678.661 1051.81 709.651 1028.6 758.792 1046.32 C 760.756 1046.53 759.835 1046.47 762.198 1044.74 C 764.848 1047.87 765.024 1048.29 768.511 1050.26 C 772.282 1048.68 767.285 1034.58 766.523 1030.34 C 754.414 963.059 802.266 887.552 868.515 870.353 C 896.398 863.114 919.162 870.921 942.638 885.488 C 944.932 887.431 946.047 888.56 948.788 889.918 C 957.761 899.223 963.748 906.048 971.146 916.686 C 971.007 907.919 970.923 902.997 971.774 894.433 L 972.02 891.767 C 974.528 890.038 975.531 889.774 976.704 887.022 z"/>
<path transform="translate(0,0)" fill="rgb(238,238,238)" d="M 953.999 947.906 C 962.714 945.398 978.718 940.182 987.206 939.684 C 975.834 944.317 971.084 947.078 960.887 953.981 C 947.972 953.64 927.578 958.246 921.961 957.328 C 930.615 954.03 940.798 951.266 949.769 948.606 L 942.274 940.175 C 947.036 942.857 949.674 944.745 953.999 947.906 z"/>
<path transform="translate(0,0)" fill="rgb(238,238,238)" d="M 874.497 921.239 C 879.226 920.984 887.392 920.089 891.215 922.299 L 891.057 923.063 C 872.85 924.729 859.413 925.274 843.812 935.99 C 824.324 949.375 817.619 963.804 813.278 986.039 C 812.699 990.636 813.952 997.813 812.31 1000.65 L 810.647 999.604 C 803.902 975.246 827.171 938.581 849.339 929.279 C 858.953 925.244 864.105 922.915 874.497 921.239 z"/>
<path transform="translate(0,0)" fill="rgb(238,238,238)" d="M 725.897 1085.96 L 726.479 1086.7 C 725.39 1089.57 709.75 1102.2 706.028 1107.33 C 691.07 1127.94 692.921 1134.82 694.787 1156.82 L 694.93 1158.61 C 689.901 1154.33 688.444 1143.16 689.459 1136.87 C 693.074 1114.44 708.374 1098.67 725.897 1085.96 z"/>
<path transform="translate(0,0)" fill="rgb(185,214,235)" d="M 1142.48 896.279 C 1165.21 894.357 1183.19 902.064 1191.07 924.672 C 1184.85 919.567 1185.61 911.732 1172.18 904.047 C 1171.13 903.529 1170.07 903.044 1168.99 902.594 C 1146.86 893.466 1128.86 901.546 1108.96 909.478 L 1108.51 909.126 C 1121.39 901.345 1127.52 898.434 1142.48 896.279 z"/>
<path transform="translate(0,0)" fill="rgb(238,238,238)" d="M 1096.11 836.312 C 1099.08 836.113 1101.57 835.646 1104.34 836.61 C 1102.13 838.65 1092.21 840.068 1088.24 841.319 C 1073.18 846.067 1064.73 852.586 1057.14 866.104 C 1055.91 868.546 1054.59 870.654 1053.17 872.983 L 1052.56 872.403 C 1054.45 853.014 1078.56 839.309 1096.11 836.312 z"/>
<path transform="translate(0,0)" fill="rgb(238,238,238)" d="M 1247.15 1080.8 C 1258.05 1090.87 1245.52 1118.59 1236.83 1128.02 C 1235.99 1127.86 1236.52 1128.03 1235.45 1127.1 C 1247.17 1109.27 1249.14 1101.65 1247.15 1080.8 z"/>
<path transform="translate(0,0)" fill="rgb(185,214,235)" d="M 1240.62 972.761 C 1253.24 976.149 1264.58 1008.4 1263.7 1021.25 C 1261.21 1018.87 1260.94 1006.62 1258.3 1000.8 C 1253.35 989.915 1246.85 982.658 1240.62 972.761 z"/>
<path transform="translate(0,0)" fill="rgb(238,238,238)" d="M 1265.08 913.204 C 1279.89 914.43 1293.42 929.81 1291.81 944.602 C 1288.31 940.213 1286.23 930.062 1281.62 924.634 C 1276.61 918.749 1267.54 918.012 1265.08 913.204 z"/>
<path transform="translate(0,0)" fill="rgb(185,214,235)" d="M 1249.64 1142.86 C 1249.92 1143.23 1250.29 1144.46 1250.47 1144.98 C 1248.05 1154.18 1238.69 1165.13 1229.45 1167.96 L 1228.65 1166.8 C 1228.94 1164.44 1232.89 1163.19 1235.82 1161.37 C 1242.41 1157.26 1245.81 1149.62 1249.64 1142.86 z"/>
<path transform="translate(0,0)" fill="rgb(56,91,162)" d="M 1526.89 301.519 C 1585.27 360.761 1635.4 474.649 1643.82 555.939 C 1654.11 655.167 1656.96 678.397 1746.78 731.381 C 1844.05 788.763 1909.79 886.983 1905.15 1002.52 C 1903.69 1083.89 1883.88 1193.24 1829.04 1256.85 C 1828.54 1256.27 1828.04 1255.69 1827.54 1255.11 C 1829.72 1247.68 1834.28 1239.91 1837.68 1232.91 C 1869.01 1168.58 1876.2 1081.29 1862.08 1011.86 C 1847.81 942.972 1815.51 879.105 1768.49 826.781 C 1741.31 796.165 1716.88 775.455 1678.34 760.722 C 1614.59 736.356 1589.02 656.12 1580.14 594.288 C 1564.8 487.435 1541.32 423.193 1463.99 346.231 C 1494.2 334.293 1508.26 327.771 1526.89 301.519 z"/>
<path transform="translate(0,0)" fill="rgb(248,157,102)" d="M 1117.59 581.247 C 1134.07 588.691 1146.61 597.407 1160.78 608.747 C 1169.46 617.639 1179.55 628.418 1186.7 638.57 C 1223.29 690.521 1245.77 747.821 1308.7 774.311 C 1329.79 782.959 1352.32 787.549 1375.11 787.839 C 1416.42 788.333 1468.69 768.879 1503.92 747.126 C 1508.34 744.399 1519.59 736.569 1525.01 734.13 C 1525.63 734.464 1526.25 734.798 1526.88 735.133 C 1527.59 736.579 1528.61 737.732 1527.82 738.659 C 1511.31 758.163 1460.13 778.371 1439.45 784.791 C 1388.1 800.733 1337.86 799.153 1290.78 774.142 C 1225.48 739.445 1206.98 665.864 1157.53 616.089 C 1148.17 605.754 1129.89 594.074 1117.32 588.082 L 1114.82 585.62 L 1115.73 583.032 L 1117.59 581.247 z"/>
<path transform="translate(0,0)" fill="rgb(201,89,72)" d="M 1136.47 556.035 C 1146.85 546.45 1187.15 509.14 1199.81 504.488 C 1202.16 529.348 1210.08 570.55 1187.33 587.744 C 1176.91 571.023 1168.49 552.612 1158.11 536.267 C 1161.69 556.947 1164.83 588.088 1160.78 608.747 C 1146.61 597.407 1134.07 588.691 1117.59 581.247 C 1122.83 576.441 1127.8 570.074 1131.8 564.201 L 1136.47 556.035 z"/>
<path transform="translate(0,0)" fill="rgb(201,89,72)" d="M 1115.73 583.032 L 1114.82 585.62 C 1113.13 588.686 1114.18 600.258 1114.05 604.302 C 1113.53 620.128 1108.07 667.331 1084.73 663.985 C 1071.26 662.054 1063.76 620.034 1059.22 610.1 C 1068.53 610.502 1071.57 610.621 1080.27 606.97 C 1093.84 601.905 1104.8 592.238 1115.73 583.032 z"/>
<path transform="translate(0,0)" fill="rgb(111,165,216)" d="M 758.792 1046.32 C 755.294 1038.95 750.925 1030.01 748.962 1021.93 C 741.174 989.885 759.294 945.412 774.918 917.58 C 781.338 906.143 801.753 877.598 814.862 874.341 L 815.643 875.626 C 782.274 899.686 763.812 938.343 753.579 977.473 C 747.103 1002.23 748.639 1022.74 762.198 1044.74 C 759.835 1046.47 760.756 1046.53 758.792 1046.32 z"/>
<path transform="translate(0,0)" fill="rgb(111,165,216)" d="M 972.02 891.767 C 979.843 837.768 1015.34 802.025 1071.04 794.536 C 1077.43 793.677 1099.81 793.875 1104.31 798.068 L 1103.44 798.939 C 1064.17 794.424 1036.49 800.172 1005.96 827.45 C 991.839 840.069 976.304 867.885 976.704 887.022 C 975.531 889.774 974.528 890.038 972.02 891.767 z"/>
<path transform="translate(0,0)" fill="rgb(201,89,72)" d="M 1117.32 588.082 C 1129.89 594.074 1148.17 605.754 1157.53 616.089 C 1144.53 638.945 1126.43 599.318 1118.19 589.146 L 1117.32 588.082 z"/>
<path transform="translate(0,0)" fill="rgb(111,165,216)" d="M 1204.1 885.91 C 1208.16 878.171 1215.59 875.011 1223.47 871.895 C 1259.37 857.683 1318.85 888.618 1325.25 927.738 L 1323.23 928.333 C 1319.95 924.383 1317.84 915.492 1314.28 909.786 C 1300.54 888.152 1277.61 874.052 1252.1 871.563 C 1235.67 869.989 1222.01 873.61 1208.45 882.933 C 1206.99 883.913 1205.54 884.906 1204.1 885.91 z"/>
<path transform="translate(0,0)" fill="rgb(66,127,179)" d="M 880.989 847.793 C 905.222 847.755 920.401 855.227 937.488 872.127 C 941.433 876.03 949.184 884.356 948.788 889.918 C 946.047 888.56 944.932 887.431 942.638 885.488 L 943.027 884.708 C 941.232 878.768 933.562 872.063 929.075 868.427 C 917.468 859.022 896.938 847.581 881.526 850.72 C 879.694 851.094 878.349 850.957 876.407 850.626 C 878.444 848.254 877.696 849.101 880.989 847.793 z"/>
<path transform="translate(0,0)" fill="rgb(111,165,216)" d="M 1303.8 1064.69 C 1314.4 1058.5 1322.32 1052.95 1331.22 1044.38 C 1333.77 1041.92 1342.22 1031.26 1343.51 1031.15 C 1344.26 1040.28 1313.41 1065.14 1304.43 1066.31 L 1303.8 1064.69 z"/>
<path transform="translate(0,0)" fill="rgb(111,165,216)" d="M 1463.56 1137.26 C 1479.09 1136.28 1506.46 1137.84 1515.44 1153.6 C 1517.9 1157.93 1516.58 1162.92 1511.65 1164.83 C 1505.35 1167.26 1500.04 1164.17 1494.24 1161.74 C 1486.18 1158.91 1482.24 1158.04 1473.65 1157.42 C 1466.12 1156.87 1442.72 1167.22 1440.81 1155.86 C 1438.4 1141.46 1453.05 1139.26 1463.56 1137.26 z"/>
<path transform="translate(0,0)" fill="rgb(111,165,216)" d="M 1126.94 653.741 C 1132.71 653.996 1137.57 654.852 1139.82 660.576 C 1137.23 674.456 1126.37 694.565 1125.19 711.409 C 1124.61 719.712 1125.98 727.875 1121.06 733.232 C 1116.49 733.064 1113.13 733.106 1109.55 730.245 C 1100.74 715.758 1115.56 665.152 1126.94 653.741 z"/>
<path transform="translate(0,0)" fill="rgb(111,165,216)" d="M 1391.6 1381.41 C 1394.36 1381.93 1440.03 1419.94 1447.33 1425.82 C 1448.1 1428.89 1447.65 1428.15 1445.45 1431.94 C 1434.94 1430.29 1395.73 1396.61 1389.21 1386.56 C 1389.1 1383.69 1389.41 1384.31 1391.6 1381.41 z"/>
<path transform="translate(0,0)" fill="rgb(111,165,216)" d="M 1453.62 827.954 C 1455.98 828.014 1454.79 827.75 1457.08 829.908 C 1458.22 836.001 1445.44 840.767 1440.42 843.16 C 1422.41 851.743 1411.77 860.716 1400.93 877.329 L 1399.9 877.816 L 1397.81 876.637 C 1392.35 860.281 1441.6 834.493 1453.62 827.954 z"/>
<path transform="translate(0,0)" fill="rgb(66,127,179)" d="M 1371.92 988.673 C 1375.11 988.786 1375.07 988.781 1378.12 989.741 C 1385.72 999.721 1369.86 1023.05 1361.84 1029.9 C 1358.72 1030.99 1358.29 1030.99 1356.07 1029.3 C 1355.09 1023.65 1368.6 994.115 1371.92 988.673 z"/>
<path transform="translate(0,0)" fill="rgb(56,91,162)" d="M 1341.42 1100.14 C 1347 1099.78 1350.22 1099.86 1353.07 1105.27 C 1353.7 1113.24 1348.59 1115.03 1342.43 1117.66 C 1327.16 1121.28 1324.77 1107.63 1341.42 1100.14 z"/>
<path transform="translate(0,0)" fill="rgb(56,91,162)" d="M 1292.02 1430.9 C 1296.74 1431.1 1294.78 1430.35 1298.37 1432.54 C 1299.64 1440.54 1288.89 1446.15 1282.37 1448 C 1278.23 1447.66 1277.58 1447.69 1274.89 1445.39 L 1274.9 1442.92 C 1278.9 1436.55 1285.39 1434.02 1292.02 1430.9 z"/>
<path transform="translate(0,0)" fill="rgb(111,165,216)" d="M 1312.5 1110.69 C 1315.67 1122.52 1308.19 1145.86 1302.85 1156.55 C 1294.7 1172.85 1285.04 1183.18 1267.68 1189.12 L 1267.53 1187.76 C 1270.38 1185.76 1272.79 1184.65 1275.74 1182.93 C 1305.77 1165.34 1305.14 1139.18 1312.5 1110.69 z"/>
<path transform="translate(0,0)" fill="rgb(111,165,216)" d="M 1143.05 803.26 C 1168.03 800.35 1196.95 835.576 1198.76 859.613 C 1194.94 859.049 1193.77 848.012 1191.94 843.975 C 1181.34 820.565 1165.92 812.291 1143.05 803.26 z"/>
<path transform="translate(0,0)" fill="rgb(111,165,216)" d="M 710.545 1021.34 C 717.995 1020.92 736.678 1022.12 740.56 1028.57 C 737.888 1029.1 736.241 1027.78 733.176 1026.56 C 718.02 1022.62 715.283 1025.4 700.75 1024.85 C 703.085 1022.87 707.385 1022.15 710.545 1021.34 z"/>
<path transform="translate(0,0)" fill="rgb(111,165,216)" d="M 1338.62 941.504 L 1341.85 942.649 C 1349.68 950.859 1352.67 962.434 1352.73 973.547 C 1351.53 973.074 1351.32 972.767 1350.25 971.982 C 1349.52 959.05 1344.89 952.531 1338.62 941.504 z"/>
<path transform="translate(0,0)" fill="rgb(111,165,216)" d="M 666.605 1040.6 L 668.025 1040.92 L 668.634 1041.92 C 664.573 1046.97 660.677 1051.49 656.393 1056.36 L 655.524 1056.43 C 656.457 1051.72 663.28 1044.31 666.605 1040.6 z"/>
</svg>