<svg version="1.1" xmlns="http://www.w3.org/2000/svg" style="display: block;" viewBox="0 0 2048 2048" width="2000" height="2000" preserveAspectRatio="none">
<path transform="translate(0,0)" fill="rgb(22,27,26)" d="M 1519.81 280.991 L 1631.39 281.097 C 1653.95 281.134 1678.87 281.693 1701.21 280.549 C 1701.31 302.971 1702.37 330.5 1701.88 352.375 C 1717.36 358.909 1727.68 366.116 1741.12 375.965 C 1791.69 413.415 1830.83 464.21 1854.15 522.656 C 1888.34 606.629 1893.08 696.026 1888.12 785.181 C 1887.41 797.948 1885.34 811.775 1884.89 824.02 L 1886.47 825.461 C 1883.53 828.649 1852.59 842.191 1846.34 845.247 C 1783.79 876.258 1720.73 906.219 1657.18 935.115 C 1598.23 961.376 1526.41 994.881 1462.27 997.982 C 1355.89 1003.13 1263.76 928.757 1185.38 867.598 C 1127.37 822.324 1068.4 765.417 993.724 809.107 C 967.26 824.589 933.537 837.4 906.032 851.495 C 881.937 863.053 856.342 872.296 832.5 883.592 L 830.871 881.575 C 825.703 880.576 798.13 881.332 791.509 881.433 L 789.763 879.944 C 799.087 880.075 829.928 880.999 837.987 879.176 L 838.281 878.382 L 837.065 877.251 C 794.593 868.529 735.368 847.882 694.522 852.654 C 692.076 853.067 677.887 859.398 677.385 860.678 C 678.041 867.79 679.069 870.464 681.622 877.177 C 689.219 897.152 703.614 875.103 719.792 886.048 L 721.679 886.145 L 732.15 883.762 C 735.478 879.002 747.039 870.609 752.77 864.162 C 755.843 869.831 759.461 879.713 765.743 881.054 L 765.773 882.016 L 764.233 883.581 C 766.16 888.102 774.311 905.247 778.981 905.936 L 779.539 907.225 L 778.536 908.973 C 782.237 917.39 789.184 928.867 793.86 937.119 C 781.592 949.599 770.68 961.754 764.827 978.542 C 782.158 1004.05 838.554 1009.14 839.921 1024.72 C 835.861 1033.23 829.772 1037.95 827.034 1046.6 C 837.553 1042.15 851.688 1025.39 856.609 1014.58 C 862.422 1001.82 859.662 987.295 862.154 979.363 C 865.983 988.944 860.422 1010.57 857.363 1020.15 C 868.805 1013.02 887.328 1010.35 900.526 1006.38 C 950.045 991.488 998.992 974.611 1008.05 917.973 L 1009.14 917.663 C 1010.84 922.948 1005.01 940.071 1001.83 945.914 C 983.231 979.849 946.045 993.96 911.519 1005.32 C 899.911 1009.14 867.152 1015.37 859.851 1021.07 C 845.291 1032.45 835.784 1044.9 818.025 1056.22 C 829.243 1061.99 841.675 1068.93 853.139 1073.82 C 881.119 1085.77 903.494 1103.77 929.625 1118.93 C 959.103 1136.04 998.277 1143.25 1021.8 1168.5 C 1033.95 1163.69 1046.81 1158.81 1058.73 1153.59 L 1059.25 1155.35 C 1009.45 1177.69 954.029 1197.71 903.135 1217.55 C 849.104 1238.61 800.693 1245.61 752.68 1281.61 C 750.266 1295.41 738.598 1292.44 734.57 1303.94 C 740.18 1307.49 762.563 1300.65 770.568 1300.85 C 785.05 1301.21 802.811 1309.92 810.577 1322.37 C 820.046 1337.56 821.495 1356.99 820.783 1374.09 C 840.061 1365.71 861.194 1354.32 880.682 1347.59 C 897.633 1341.73 919.281 1336.59 936.677 1332.33 C 1009.92 1314.38 1089.03 1308.6 1162.47 1329.15 C 1208.65 1342.08 1252 1359.08 1301.31 1361.15 C 1358.85 1363.57 1417.59 1339.59 1459.8 1300.78 L 1461.56 1302.56 L 1461.25 1302.89 L 1461.35 1303.69 C 1507.22 1291.33 1570.27 1280.2 1617.61 1270.73 C 1635.45 1267.23 1653.26 1263.59 1671.04 1259.81 C 1685.2 1256.73 1700.99 1252.8 1715.17 1250.8 L 1716.49 1251.6 L 1718.6 1250.69 C 1715.14 1253.04 1711.59 1253.37 1707.71 1254.87 L 1711.19 1256.42 C 1711.89 1261.92 1706.8 1265.72 1703.15 1269.64 C 1701.46 1280.99 1702.01 1304.49 1701.83 1317.15 C 1704.55 1318.28 1704.73 1318.42 1707.61 1318.89 C 1725.86 1321.77 1748.22 1333.02 1759.53 1348.48 C 1769.41 1362.03 1773.4 1378.99 1770.6 1395.53 C 1767.78 1412.31 1758.24 1427.21 1744.18 1436.79 C 1730.01 1446.48 1717.84 1447.61 1701.16 1447.1 C 1703.06 1458.41 1702.3 1499.76 1701.86 1513.13 C 1710.97 1515.22 1726.43 1513.29 1737.03 1514.61 C 1734.28 1517.93 1705.56 1516.83 1700.03 1516.8 L 1653.64 1516.88 L 1601.25 1517.03 C 1594.65 1517.05 1578.71 1517.35 1572.97 1516.31 L 1570.16 1517.33 C 1568.38 1522.86 1569.76 1564.7 1569.16 1574.8 C 1577.8 1574.29 1628.7 1573.5 1633.58 1576.23 C 1623.38 1577.82 1581.64 1577.4 1569.39 1577.18 C 1570.86 1611.61 1569.81 1658.99 1569.24 1693.9 L 1246.51 1693.86 L 1246.74 1665.29 C 1234.2 1665.28 1221.51 1665.17 1208.98 1665.3 L 1208.8 1636.15 C 1155.57 1658.41 1100.46 1675.89 1044.14 1688.4 L 1044.04 1688.94 C 1048.68 1697.54 1047.67 1701.5 1043.45 1710.01 C 1045.69 1724.57 1046.33 1732.08 1045.83 1746.74 L 1045.61 1747.08 L 1044.92 1748.19 C 994.738 1826.69 554.835 1818.14 459.113 1792.64 C 434.262 1786.01 355.486 1775.63 348.143 1742.66 C 346.299 1734.38 345.355 1694.39 351.166 1688.29 C 379.82 1658.25 448.971 1648.24 488.116 1641.79 L 489.858 1641.9 C 504.233 1638.78 535.708 1635.85 550.703 1634.68 C 531.188 1617.46 538.141 1603.98 532.542 1579.2 L 532.085 1577.25 L 531.742 1574.57 C 531.515 1567.56 529.071 1555.27 527.821 1547.92 C 535.002 1533.24 543.627 1528.78 556.637 1519.82 L 560.858 1516.72 C 487.501 1517.9 412.93 1516.7 339.389 1517.35 L 314.179 1517.14 C 309.817 1510.23 295.118 1493.53 288.634 1484.22 C 268.632 1455.49 252.578 1425.39 238.871 1393.18 C 190.598 1278.83 172.38 1154.04 185.949 1030.67 C 187.525 1016.94 192.186 978.969 197.197 966.535 C 175.724 955.321 165.4 930.31 172.71 907.215 C 180.021 884.12 202.856 869.606 226.871 872.791 C 228.116 849.619 277.203 768.107 295.001 748.776 C 299.343 744.059 301.815 742.359 306.17 738.229 C 299.075 736.645 270.644 737.205 261.901 737.22 L 173.765 737.269 C 162.832 717.008 158.133 712.18 157.523 688.656 C 156.825 661.773 161.675 656.102 173.816 633.436 C 196.844 632.763 222.928 633.35 246.134 633.354 L 382.132 633.342 C 391.85 633.338 441.906 633.859 446.813 632.427 C 457.081 625.084 472.158 621.837 484.458 619.819 C 562.607 607.003 642.475 624.481 719.7 633.269 C 737.316 635.228 754.967 636.846 772.645 638.122 C 782.084 638.835 797.465 639.161 806.042 641.521 C 809.063 639.647 811.714 635.132 813.83 631.992 C 838.713 595.083 831.765 541.696 862.797 509.022 C 876.856 494.489 896.136 486.169 916.356 485.912 C 941.392 485.403 957.444 496.258 974.582 512.884 C 986.592 510.913 1023.61 512.157 1038 511.899 C 1039.52 545.07 1038.31 585.045 1038.37 618.785 C 1043.74 613.902 1083.37 599.395 1094.16 594.975 C 1125.69 582.062 1151.66 564.478 1181.07 550.25 C 1183.67 548.115 1182.08 518.235 1181.95 513.525 C 1211.34 509.775 1229.26 501.383 1251.75 482.416 L 1255.12 479.569 C 1272.29 459.483 1284.11 442.083 1287.68 415.427 C 1288.25 411.186 1289.39 398.255 1290.86 395.334 C 1312.4 393.226 1339.99 395.903 1363.87 394.155 C 1363.91 401.198 1364.06 408.672 1363.9 415.674 C 1382.56 394.769 1455.1 345.99 1483.51 340.492 C 1489.7 345.361 1493.28 348.646 1498.93 354.181 L 1500.97 352.01 C 1497.33 348.557 1491.27 343.531 1489.25 339.303 C 1494.26 333.22 1512.1 330.024 1519.62 328.565 C 1519.91 312.709 1519.97 296.849 1519.81 280.991 z M 173.816 633.436 C 161.675 656.102 156.825 661.773 157.523 688.656 C 158.133 712.18 162.832 717.008 173.765 737.269 L 261.901 737.22 C 270.644 737.205 299.075 736.645 306.17 738.229 C 301.815 742.359 299.343 744.059 295.001 748.776 C 277.203 768.107 228.116 849.619 226.871 872.791 C 202.856 869.606 180.021 884.12 172.71 907.215 C 165.4 930.31 175.724 955.321 197.197 966.535 C 192.186 978.969 187.525 1016.94 185.949 1030.67 C 172.38 1154.04 190.598 1278.83 238.871 1393.18 C 252.578 1425.39 268.632 1455.49 288.634 1484.22 C 295.118 1493.53 309.817 1510.23 314.179 1517.14 L 339.389 1517.35 C 340.742 1458.92 338.864 1394.95 339.192 1335.63 C 337.306 1335.04 335.447 1334.37 333.62 1333.62 C 317.629 1327.04 305.078 1314.13 298.949 1297.96 C 292.983 1282.06 293.573 1264.44 300.59 1248.97 C 308.605 1231.44 321.579 1221.48 339.208 1214.92 C 338.264 1163.02 338.941 1108.97 338.952 1056.97 C 346.294 1057.03 353.636 1057.14 360.976 1057.31 C 390.822 1043.06 427.222 1032.87 455.672 1018.37 C 482.876 1004.5 503.9 987.127 533.116 972.652 C 482.669 973.139 369.672 976.826 351.004 914.499 C 345.634 896.567 363.928 877.991 382.531 875.617 C 415.015 871.472 446.999 873.886 479.734 874.15 C 514.441 874.616 549.122 872.047 583.381 866.473 C 602.823 864.131 623.435 858.45 642.668 855.117 C 689.797 846.948 718.814 845.897 764.823 857.842 C 790.998 864.442 817.267 870.669 843.62 876.521 L 857.498 870.704 C 889.755 858.07 924.457 840.213 956.045 825.559 C 980.335 814.29 1006.35 798.016 1032.16 792.012 C 1034.44 792.014 1035.69 791.919 1037.96 791.765 C 1038.81 783.567 1038.24 762.28 1038.24 752.968 L 1038.2 664.455 C 1038.18 651.075 1037.32 631.621 1038.37 618.785 C 1038.31 585.045 1039.52 545.07 1038 511.899 C 1023.61 512.157 986.592 510.913 974.582 512.884 C 957.444 496.258 941.392 485.403 916.356 485.912 C 896.136 486.169 876.856 494.489 862.797 509.022 C 831.765 541.696 838.713 595.083 813.83 631.992 C 811.714 635.132 809.063 639.647 806.042 641.521 C 797.465 639.161 782.084 638.835 772.645 638.122 C 754.967 636.846 737.316 635.228 719.7 633.269 C 642.475 624.481 562.607 607.003 484.458 619.819 C 472.158 621.837 457.081 625.084 446.813 632.427 C 441.906 633.859 391.85 633.338 382.132 633.342 L 246.134 633.354 C 222.928 633.35 196.844 632.763 173.816 633.436 z M 667.249 865.498 C 663.798 871.184 661.591 881.257 667.399 886.179 C 670.768 880.592 674.05 869.66 667.249 865.498 z"/>
<path transform="translate(0,0)" fill="rgb(218,225,252)" d="M 1519.81 280.991 L 1631.39 281.097 C 1653.95 281.134 1678.87 281.693 1701.21 280.549 C 1701.31 302.971 1702.37 330.5 1701.88 352.375 C 1717.36 358.909 1727.68 366.116 1741.12 375.965 C 1791.69 413.415 1830.83 464.21 1854.15 522.656 C 1888.34 606.629 1893.08 696.026 1888.12 785.181 C 1887.41 797.948 1885.34 811.775 1884.89 824.02 C 1877.6 829.009 1834.87 848.903 1824.88 853.604 C 1784.6 872.563 1743.43 893.828 1702.95 911.821 C 1667.84 929.265 1628.01 945.573 1591.9 960.846 C 1590.63 961.21 1589.54 961.423 1588.4 962.003 C 1567.85 970.616 1542.5 980.201 1521.06 986.58 C 1463.49 1001.99 1419.49 998.404 1363.94 979.118 C 1304.69 956.169 1254.48 918.827 1204.73 880.073 C 1197 874.052 1189.24 868.187 1181.8 861.791 C 1176.53 857.998 1170.81 853.413 1165.59 849.427 L 1162.8 847.209 C 1155.07 840.982 1147.17 834.955 1139.13 829.133 C 1111.96 809.378 1073.13 786.205 1037.96 791.765 C 1038.81 783.567 1038.24 762.28 1038.24 752.968 L 1038.2 664.455 C 1038.18 651.075 1037.32 631.621 1038.37 618.785 C 1043.74 613.902 1083.37 599.395 1094.16 594.975 C 1125.69 582.062 1151.66 564.478 1181.07 550.25 C 1183.67 548.115 1182.08 518.235 1181.95 513.525 C 1211.34 509.775 1229.26 501.383 1251.75 482.416 L 1255.12 479.569 C 1272.29 459.483 1284.11 442.083 1287.68 415.427 C 1288.25 411.186 1289.39 398.255 1290.86 395.334 C 1312.4 393.226 1339.99 395.903 1363.87 394.155 C 1363.91 401.198 1364.06 408.672 1363.9 415.674 C 1382.56 394.769 1455.1 345.99 1483.51 340.492 C 1489.7 345.361 1493.28 348.646 1498.93 354.181 L 1500.97 352.01 C 1497.33 348.557 1491.27 343.531 1489.25 339.303 C 1494.26 333.22 1512.1 330.024 1519.62 328.565 C 1519.91 312.709 1519.97 296.849 1519.81 280.991 z"/>
<path transform="translate(0,0)" fill="rgb(218,225,252)" d="M 1519.81 280.991 L 1631.39 281.097 C 1653.95 281.134 1678.87 281.693 1701.21 280.549 C 1701.31 302.971 1702.37 330.5 1701.88 352.375 C 1717.36 358.909 1727.68 366.116 1741.12 375.965 C 1791.69 413.415 1830.83 464.21 1854.15 522.656 C 1888.34 606.629 1893.08 696.026 1888.12 785.181 C 1887.41 797.948 1885.34 811.775 1884.89 824.02 C 1877.6 829.009 1834.87 848.903 1824.88 853.604 C 1784.6 872.563 1743.43 893.828 1702.95 911.821 C 1701.14 907.991 1701.7 821.226 1701.63 810.503 C 1659.13 788.181 1611.4 765.81 1567.98 744.286 L 1564.09 742.78 C 1559.3 739.315 1527.87 724.458 1520.65 720.942 L 1512.2 716.608 L 1520.63 712.336 L 1561.14 691.764 L 1564.95 689.879 C 1563.4 685.412 1562.13 640.556 1561.79 633.112 C 1559.26 577.737 1559.36 522.537 1554.66 467.251 L 1551.35 467.109 C 1544.1 466.788 1540.81 466.016 1533.99 464.104 C 1529.56 463.021 1525.14 461.913 1520.72 460.778 C 1511.95 457.597 1503.95 452.6 1497.24 446.114 C 1485.08 434.286 1478.23 418.041 1478.25 401.08 C 1478.23 381.8 1485.66 367.544 1498.93 354.181 L 1500.97 352.01 C 1497.33 348.557 1491.27 343.531 1489.25 339.303 C 1494.26 333.22 1512.1 330.024 1519.62 328.565 C 1519.91 312.709 1519.97 296.849 1519.81 280.991 z"/>
<path transform="translate(0,0)" fill="rgb(187,199,252)" d="M 1519.81 280.991 L 1631.39 281.097 C 1653.95 281.134 1678.87 281.693 1701.21 280.549 C 1701.31 302.971 1702.37 330.5 1701.88 352.375 C 1699.95 372.82 1701.26 418.064 1701.29 439.745 L 1701.65 620.636 L 1564.95 689.879 C 1563.4 685.412 1562.13 640.556 1561.79 633.112 C 1559.26 577.737 1559.36 522.537 1554.66 467.251 L 1551.35 467.109 C 1544.1 466.788 1540.81 466.016 1533.99 464.104 C 1529.56 463.021 1525.14 461.913 1520.72 460.778 C 1511.95 457.597 1503.95 452.6 1497.24 446.114 C 1485.08 434.286 1478.23 418.041 1478.25 401.08 C 1478.23 381.8 1485.66 367.544 1498.93 354.181 L 1500.97 352.01 C 1497.33 348.557 1491.27 343.531 1489.25 339.303 C 1494.26 333.22 1512.1 330.024 1519.62 328.565 C 1519.91 312.709 1519.97 296.849 1519.81 280.991 z"/>
<path transform="translate(0,0)" fill="rgb(83,119,237)" d="M 1489.25 339.303 C 1494.26 333.22 1512.1 330.024 1519.62 328.565 C 1519.93 333.034 1520.19 336.843 1520.21 341.351 C 1540.33 335.698 1552.59 336.81 1571.57 345.379 L 1571.76 348.156 C 1587.05 358.394 1597.16 370.091 1600.94 388.525 C 1604.29 404.582 1601.02 421.309 1591.87 434.924 C 1582.75 448.604 1568.45 457.987 1552.27 460.919 C 1546.27 462.011 1540.13 462.226 1534.07 461.559 L 1533.99 464.104 C 1529.56 463.021 1525.14 461.913 1520.72 460.778 C 1511.95 457.597 1503.95 452.6 1497.24 446.114 C 1485.08 434.286 1478.23 418.041 1478.25 401.08 C 1478.23 381.8 1485.66 367.544 1498.93 354.181 L 1500.97 352.01 C 1497.33 348.557 1491.27 343.531 1489.25 339.303 z"/>
<path transform="translate(0,0)" fill="rgb(23,19,28)" d="M 1489.25 339.303 C 1494.26 333.22 1512.1 330.024 1519.62 328.565 C 1519.93 333.034 1520.19 336.843 1520.21 341.351 C 1540.33 335.698 1552.59 336.81 1571.57 345.379 L 1571.76 348.156 C 1555.5 340.098 1540.27 337.11 1522.44 343.015 C 1506.75 348.229 1493.85 359.593 1486.7 374.501 C 1479.63 389.216 1478.7 406.141 1484.14 421.537 C 1489.53 436.879 1500.95 449.359 1515.75 456.092 C 1521.58 458.742 1527.74 460.582 1534.07 461.559 L 1533.99 464.104 C 1529.56 463.021 1525.14 461.913 1520.72 460.778 C 1511.95 457.597 1503.95 452.6 1497.24 446.114 C 1485.08 434.286 1478.23 418.041 1478.25 401.08 C 1478.23 381.8 1485.66 367.544 1498.93 354.181 L 1500.97 352.01 C 1497.33 348.557 1491.27 343.531 1489.25 339.303 z"/>
<path transform="translate(0,0)" fill="rgb(218,225,252)" d="M 1489.25 339.303 C 1494.26 333.22 1512.1 330.024 1519.62 328.565 C 1519.93 333.034 1520.19 336.843 1520.21 341.351 C 1511.39 345.036 1508.94 347.005 1500.97 352.01 C 1497.33 348.557 1491.27 343.531 1489.25 339.303 z"/>
<path transform="translate(0,0)" fill="rgb(5,2,2)" d="M 1537.56 355.033 C 1540.44 355.047 1541.49 354.691 1543.79 356.294 C 1547.13 370.039 1553.47 363.114 1558.96 368.32 L 1558.94 371.32 C 1553.68 377.756 1539.65 371.331 1535.47 374.494 C 1516.42 389.877 1556.54 393.348 1561.9 408.557 C 1566.89 422.713 1558.03 429.58 1544.83 435.309 C 1545.08 442.439 1546.77 444.079 1540.14 447.401 C 1536.55 443.795 1537.35 441.174 1537.35 435.767 C 1531.57 435.314 1522.7 435.29 1518.74 431.296 L 1519.14 427.8 C 1526.67 419.581 1549.37 434.593 1551.09 415.99 C 1552.65 401.742 1528.05 402.852 1522.88 393.067 C 1514.97 378.093 1523.55 370.707 1535.88 364.094 C 1537.98 362.97 1537.49 357.407 1537.56 355.033 z"/>
<path transform="translate(0,0)" fill="rgb(5,2,2)" d="M 1571.57 345.379 C 1589.11 352.122 1601.88 361.329 1609.89 379.029 C 1616.75 394.362 1617.26 411.786 1611.3 427.491 C 1605.4 442.881 1593.57 455.261 1578.46 461.859 C 1570.93 465.107 1562.86 466.935 1554.66 467.251 L 1551.35 467.109 C 1544.1 466.788 1540.81 466.016 1533.99 464.104 L 1534.07 461.559 C 1540.13 462.226 1546.27 462.011 1552.27 460.919 C 1568.45 457.987 1582.75 448.604 1591.87 434.924 C 1601.02 421.309 1604.29 404.582 1600.94 388.525 C 1597.16 370.091 1587.05 358.394 1571.76 348.156 L 1571.57 345.379 z"/>
<path transform="translate(0,0)" fill="rgb(117,207,181)" d="M 1701.65 620.636 C 1725.92 608.347 1751.49 594.833 1775.89 583.137 C 1774.08 590.374 1763.89 635.015 1761.64 638.177 C 1767.27 656.746 1777.18 677.509 1783.9 695.994 C 1785.28 699.8 1790.95 713.45 1791.64 716.651 C 1783.59 717.397 1754.91 721.848 1746.98 723.91 C 1741.68 756.371 1734.95 792.364 1730.6 824.648 L 1701.63 810.503 C 1659.13 788.181 1611.4 765.81 1567.98 744.286 L 1564.09 742.78 C 1559.3 739.315 1527.87 724.458 1520.65 720.942 L 1512.2 716.608 L 1520.63 712.336 L 1561.14 691.764 L 1564.95 689.879 L 1701.65 620.636 z"/>
<path transform="translate(0,0)" fill="rgb(5,2,2)" d="M 1759.74 639.378 L 1761.64 638.177 C 1767.27 656.746 1777.18 677.509 1783.9 695.994 C 1785.28 699.8 1790.95 713.45 1791.64 716.651 C 1783.59 717.397 1754.91 721.848 1746.98 723.91 L 1744.83 723.348 L 1750.4 690.583 C 1708.81 694.989 1665.13 702.788 1623.38 707.519 C 1606.61 709.42 1585.32 713.495 1568.85 714.135 C 1615.58 694.823 1664.93 677.617 1711.9 658.609 C 1718.43 655.967 1755.92 642.197 1759.74 639.378 z"/>
<path transform="translate(0,0)" fill="rgb(22,27,26)" d="M 1701.65 620.636 C 1725.92 608.347 1751.49 594.833 1775.89 583.137 C 1774.08 590.374 1763.89 635.015 1761.64 638.177 L 1759.74 639.378 L 1772.37 587.583 C 1687.78 629.261 1601.61 676.011 1517.1 716.526 L 1728.6 821.119 C 1734.66 789.437 1739.62 755.335 1744.83 723.348 L 1746.98 723.91 C 1741.68 756.371 1734.95 792.364 1730.6 824.648 L 1701.63 810.503 C 1659.13 788.181 1611.4 765.81 1567.98 744.286 L 1564.09 742.78 C 1559.3 739.315 1527.87 724.458 1520.65 720.942 L 1512.2 716.608 L 1520.63 712.336 L 1561.14 691.764 L 1564.95 689.879 L 1701.65 620.636 z"/>
<path transform="translate(0,0)" fill="rgb(22,27,26)" d="M 1591.29 743.025 C 1596.52 742.74 1639.82 763.516 1644.32 767.49 C 1639.52 767.988 1596.68 747.146 1591.29 743.025 z"/>
<path transform="translate(0,0)" fill="rgb(22,27,26)" d="M 1657.88 773.027 C 1666.19 773.535 1676.14 779.444 1681.95 785.242 C 1678.44 785.096 1661.02 775.394 1657.88 773.027 z"/>
<path transform="translate(0,0)" fill="rgb(187,199,252)" d="M 1290.86 395.334 C 1312.4 393.226 1339.99 395.903 1363.87 394.155 C 1363.91 401.198 1364.06 408.672 1363.9 415.674 C 1362.79 428.124 1363.23 445.831 1363.26 458.841 L 1363.86 541.665 L 1363.86 622.09 C 1363.86 632.494 1363.21 652.161 1364.18 661.433 C 1366.51 662.506 1365.64 662.258 1368.17 662.461 C 1351.13 665.457 1338.08 671.722 1327.69 686.216 C 1318.36 699.195 1314.87 715.479 1318.06 731.144 C 1323.26 756.997 1342.13 771.198 1366.79 776.549 L 1364.3 777.599 C 1363.11 785.047 1363.91 830.431 1363.96 840.977 L 1363.94 979.118 C 1304.69 956.169 1254.48 918.827 1204.73 880.073 C 1197 874.052 1189.24 868.187 1181.8 861.791 C 1176.53 857.998 1170.81 853.413 1165.59 849.427 L 1162.8 847.209 C 1155.07 840.982 1147.17 834.955 1139.13 829.133 C 1111.96 809.378 1073.13 786.205 1037.96 791.765 C 1038.81 783.567 1038.24 762.28 1038.24 752.968 L 1038.2 664.455 C 1038.18 651.075 1037.32 631.621 1038.37 618.785 C 1043.74 613.902 1083.37 599.395 1094.16 594.975 C 1125.69 582.062 1151.66 564.478 1181.07 550.25 C 1183.67 548.115 1182.08 518.235 1181.95 513.525 C 1211.34 509.775 1229.26 501.383 1251.75 482.416 L 1255.12 479.569 C 1272.29 459.483 1284.11 442.083 1287.68 415.427 C 1288.25 411.186 1289.39 398.255 1290.86 395.334 z"/>
<path transform="translate(0,0)" fill="rgb(218,225,252)" d="M 1181.07 550.25 C 1184.64 556.99 1182.04 801.736 1183 833.405 C 1176.64 838.58 1170.18 843.519 1162.8 847.209 C 1155.07 840.982 1147.17 834.955 1139.13 829.133 C 1111.96 809.378 1073.13 786.205 1037.96 791.765 C 1038.81 783.567 1038.24 762.28 1038.24 752.968 L 1038.2 664.455 C 1038.18 651.075 1037.32 631.621 1038.37 618.785 C 1043.74 613.902 1083.37 599.395 1094.16 594.975 C 1125.69 582.062 1151.66 564.478 1181.07 550.25 z"/>
<path transform="translate(0,0)" fill="rgb(187,199,252)" d="M 1251.75 482.416 C 1250.09 514.944 1248.78 547.49 1247.82 580.047 C 1245.16 658.103 1242.86 776.493 1183 833.405 C 1182.04 801.736 1184.64 556.99 1181.07 550.25 C 1183.67 548.115 1182.08 518.235 1181.95 513.525 C 1211.34 509.775 1229.26 501.383 1251.75 482.416 z"/>
<path transform="translate(0,0)" fill="rgb(18,28,79)" d="M 1255.12 479.569 C 1248.86 579.19 1261.61 768.266 1182.01 838.396 L 1180.98 839.294 C 1175.9 842.783 1170.92 846.341 1165.59 849.427 L 1162.8 847.209 C 1170.18 843.519 1176.64 838.58 1183 833.405 C 1242.86 776.493 1245.16 658.103 1247.82 580.047 C 1248.78 547.49 1250.09 514.944 1251.75 482.416 L 1255.12 479.569 z"/>
<path transform="translate(0,0)" fill="rgb(218,225,252)" d="M 1180.98 839.294 C 1183.55 843.299 1183.6 857.5 1181.8 861.791 C 1176.53 857.998 1170.81 853.413 1165.59 849.427 C 1170.92 846.341 1175.9 842.783 1180.98 839.294 z"/>
<path transform="translate(0,0)" fill="rgb(187,199,252)" d="M 1567.98 744.286 C 1611.4 765.81 1659.13 788.181 1701.63 810.503 C 1701.7 821.226 1701.14 907.991 1702.95 911.821 C 1667.84 929.265 1628.01 945.573 1591.9 960.846 C 1585.27 943.218 1565.32 759.7 1567.98 744.286 z"/>
<path transform="translate(0,0)" fill="rgb(187,199,252)" d="M 1520.65 720.942 C 1527.87 724.458 1559.3 739.315 1564.09 742.78 L 1567.98 744.286 C 1565.32 759.7 1585.27 943.218 1591.9 960.846 C 1590.63 961.21 1589.54 961.423 1588.4 962.003 C 1567.85 970.616 1542.5 980.201 1521.06 986.58 C 1519.85 955.812 1520.6 920.596 1520.61 889.536 L 1520.65 720.942 z"/>
<path transform="translate(0,0)" fill="rgb(18,28,79)" d="M 1564.09 742.78 L 1567.98 744.286 C 1565.32 759.7 1585.27 943.218 1591.9 960.846 C 1590.63 961.21 1589.54 961.423 1588.4 962.003 C 1576.54 889.394 1568.42 816.223 1564.09 742.78 z"/>
<path transform="translate(0,0)" fill="rgb(5,2,2)" d="M 1368.17 662.461 C 1384.6 661.442 1399.31 665.108 1411.98 676.201 C 1423.69 686.485 1430.7 701.103 1431.39 716.673 C 1432.21 732.067 1426.8 747.143 1416.37 758.499 C 1406.02 769.734 1391.57 776.32 1376.3 776.768 C 1373.13 776.885 1369.95 776.812 1366.79 776.549 C 1342.13 771.198 1323.26 756.997 1318.06 731.144 C 1314.87 715.479 1318.36 699.195 1327.69 686.216 C 1338.08 671.722 1351.13 665.457 1368.17 662.461 z"/>
<path transform="translate(0,0)" fill="rgb(218,225,252)" d="M 1353.12 682.145 C 1385.61 680.165 1417.73 675.772 1414.47 718.824 C 1413.12 736.752 1415.48 748.34 1395.75 756.865 C 1383.57 757.647 1361.96 758.329 1350.73 755.875 C 1336.23 752.706 1333.55 731.829 1334.07 720.03 C 1334.87 701.485 1334.17 690.201 1353.12 682.145 z"/>
<path transform="translate(0,0)" fill="rgb(5,2,2)" d="M 1356.95 687.32 C 1386.77 686.746 1411.46 680.564 1408.83 720.007 C 1407.86 734.631 1409.1 747.818 1391.23 751.647 C 1362.51 751.992 1337.37 758.667 1339.7 719.816 C 1340.6 704.821 1339.22 692.017 1356.95 687.32 z"/>
<path transform="translate(0,0)" fill="rgb(218,225,252)" d="M 1368.43 698.52 C 1380.02 695.283 1392.04 702.042 1395.3 713.625 C 1398.56 725.209 1391.82 737.242 1380.24 740.519 C 1368.63 743.805 1356.56 737.047 1353.3 725.435 C 1350.03 713.823 1356.81 701.765 1368.43 698.52 z"/>
<path transform="translate(0,0)" fill="rgb(5,2,2)" d="M 1373.05 703.486 C 1381.93 702.802 1389.68 709.452 1390.35 718.331 C 1391.03 727.211 1384.37 734.952 1375.49 735.612 C 1366.62 736.272 1358.9 729.627 1358.23 720.764 C 1357.56 711.901 1364.19 704.169 1373.05 703.486 z"/>
<path transform="translate(0,0)" fill="rgb(218,225,252)" d="M 1393.3 694.534 C 1395.5 693.241 1398.32 693.972 1399.61 696.167 C 1400.9 698.361 1400.17 701.186 1397.97 702.473 C 1395.78 703.757 1392.96 703.023 1391.67 700.833 C 1390.38 698.643 1391.11 695.824 1393.3 694.534 z"/>
<path transform="translate(0,0)" fill="rgb(187,199,252)" d="M 1520.72 460.778 C 1525.14 461.913 1529.56 463.021 1533.99 464.104 C 1540.81 466.016 1544.1 466.788 1551.35 467.109 L 1554.66 467.251 C 1559.36 522.537 1559.26 577.737 1561.79 633.112 C 1562.13 640.556 1563.4 685.412 1564.95 689.879 L 1561.14 691.764 L 1520.63 712.336 C 1518.33 654.48 1521.54 594.223 1520.26 536.133 C 1519.72 512.104 1519.57 484.72 1520.72 460.778 z"/>
<path transform="translate(0,0)" fill="rgb(18,28,79)" d="M 1551.35 467.109 L 1554.66 467.251 C 1559.36 522.537 1559.26 577.737 1561.79 633.112 C 1562.13 640.556 1563.4 685.412 1564.95 689.879 L 1561.14 691.764 C 1559.39 651.223 1557.85 610.673 1556.54 570.116 C 1555.38 535.481 1555.02 501.585 1551.35 467.109 z"/>
<path transform="translate(0,0)" fill="rgb(218,225,252)" d="M 806.042 641.521 C 809.063 639.647 811.714 635.132 813.83 631.992 C 838.713 595.083 831.765 541.696 862.797 509.022 C 876.856 494.489 896.136 486.169 916.356 485.912 C 941.392 485.403 957.444 496.258 974.582 512.884 C 986.592 510.913 1023.61 512.157 1038 511.899 C 1039.52 545.07 1038.31 585.045 1038.37 618.785 C 1037.32 631.621 1038.18 651.075 1038.2 664.455 L 1038.24 752.968 C 1038.24 762.28 1038.81 783.567 1037.96 791.765 C 1035.69 791.919 1034.44 792.014 1032.16 792.012 C 1006.35 798.016 980.335 814.29 956.045 825.559 C 924.457 840.213 889.755 858.07 857.498 870.704 L 843.62 876.521 C 817.267 870.669 790.998 864.442 764.823 857.842 C 718.814 845.897 689.797 846.948 642.668 855.117 C 623.435 858.45 602.823 864.131 583.381 866.473 C 549.122 872.047 514.441 874.616 479.734 874.15 C 446.999 873.886 415.015 871.472 382.531 875.617 C 363.928 877.991 345.634 896.567 351.004 914.499 C 369.672 976.826 482.669 973.139 533.116 972.652 C 503.9 987.127 482.876 1004.5 455.672 1018.37 C 427.222 1032.87 390.822 1043.06 360.976 1057.31 C 353.636 1057.14 346.294 1057.03 338.952 1056.97 C 338.941 1108.97 338.264 1163.02 339.208 1214.92 C 321.579 1221.48 308.605 1231.44 300.59 1248.97 C 293.573 1264.44 292.983 1282.06 298.949 1297.96 C 305.078 1314.13 317.629 1327.04 333.62 1333.62 C 335.447 1334.37 337.306 1335.04 339.192 1335.63 C 338.864 1394.95 340.742 1458.92 339.389 1517.35 L 314.179 1517.14 C 309.817 1510.23 295.118 1493.53 288.634 1484.22 C 268.632 1455.49 252.578 1425.39 238.871 1393.18 C 190.598 1278.83 172.38 1154.04 185.949 1030.67 C 187.525 1016.94 192.186 978.969 197.197 966.535 C 175.724 955.321 165.4 930.31 172.71 907.215 C 180.021 884.12 202.856 869.606 226.871 872.791 C 228.116 849.619 277.203 768.107 295.001 748.776 C 299.343 744.059 301.815 742.359 306.17 738.229 C 299.075 736.645 270.644 737.205 261.901 737.22 L 173.765 737.269 C 162.832 717.008 158.133 712.18 157.523 688.656 C 156.825 661.773 161.675 656.102 173.816 633.436 C 196.844 632.763 222.928 633.35 246.134 633.354 L 382.132 633.342 C 391.85 633.338 441.906 633.859 446.813 632.427 C 457.081 625.084 472.158 621.837 484.458 619.819 C 562.607 607.003 642.475 624.481 719.7 633.269 C 737.316 635.228 754.967 636.846 772.645 638.122 C 782.084 638.835 797.465 639.161 806.042 641.521 z M 604.444 651.744 C 603.582 678.013 601.704 709.929 603.562 735.885 C 632.569 724.821 668.362 713.04 696.228 701.392 C 695.508 688.624 695.762 685.315 699.115 673.009 C 693.883 670.977 685.099 667.218 679.898 666.379 L 673.934 665.112 C 670.414 667.929 666.194 666.094 661.797 665.318 L 661.677 665.688 C 654.735 663.209 649.985 657.89 643.623 655.586 C 635.859 652.774 624.328 657.214 625.67 644.14 C 619.617 641.692 611.013 637.912 605.025 635.927 C 604.912 639.982 604.892 648.026 604.444 651.744 z M 856.928 641.942 C 857.614 614.048 856.661 585.743 857.088 557.809 C 857.253 547.001 857.29 534.372 855.864 523.75 C 841.675 548.067 839.967 570.259 832.678 596.686 C 828.281 612.626 820.51 627.665 811.564 641.514 C 826.466 641.057 841.973 641.608 856.928 641.942 z M 969.08 511.861 C 954.646 496.262 933.526 487.626 912.299 489.152 C 893.94 490.293 876.772 498.631 864.525 512.357 C 897.239 511.771 937.605 513.54 969.08 511.861 z"/>
<path transform="translate(0,0)" fill="rgb(187,199,252)" d="M 806.042 641.521 C 809.063 639.647 811.714 635.132 813.83 631.992 C 838.713 595.083 831.765 541.696 862.797 509.022 C 876.856 494.489 896.136 486.169 916.356 485.912 C 941.392 485.403 957.444 496.258 974.582 512.884 C 986.592 510.913 1023.61 512.157 1038 511.899 C 1039.52 545.07 1038.31 585.045 1038.37 618.785 C 1037.32 631.621 1038.18 651.075 1038.2 664.455 L 1038.24 752.968 C 1038.24 762.28 1038.81 783.567 1037.96 791.765 C 1035.69 791.919 1034.44 792.014 1032.16 792.012 C 1006.35 798.016 980.335 814.29 956.045 825.559 C 924.457 840.213 889.755 858.07 857.498 870.704 C 856.166 846.354 857.025 813.936 857.029 789.227 L 856.928 641.942 C 857.614 614.048 856.661 585.743 857.088 557.809 C 857.253 547.001 857.29 534.372 855.864 523.75 C 841.675 548.067 839.967 570.259 832.678 596.686 C 828.281 612.626 820.51 627.665 811.564 641.514 C 807.105 645.702 800.277 655.022 793.384 661.595 C 783.14 671.365 759.281 686.418 745.41 686.078 L 744.431 684.823 C 749.291 681.451 758.094 679.853 763.817 677.7 C 773.654 673.999 804.674 651.737 806.042 641.521 z M 969.08 511.861 C 954.646 496.262 933.526 487.626 912.299 489.152 C 893.94 490.293 876.772 498.631 864.525 512.357 C 897.239 511.771 937.605 513.54 969.08 511.861 z"/>
<path transform="translate(0,0)" fill="rgb(187,199,252)" d="M 974.582 512.884 C 986.592 510.913 1023.61 512.157 1038 511.899 C 1039.52 545.07 1038.31 585.045 1038.37 618.785 C 1037.32 631.621 1038.18 651.075 1038.2 664.455 L 1038.24 752.968 C 1038.24 762.28 1038.81 783.567 1037.96 791.765 C 1033.05 789.677 1029.36 780.237 1027.13 775.393 C 991.954 698.879 1023.33 582.143 974.582 512.884 z"/>
<path transform="translate(0,0)" fill="rgb(18,28,79)" d="M 806.042 641.521 C 809.063 639.647 811.714 635.132 813.83 631.992 C 838.713 595.083 831.765 541.696 862.797 509.022 C 876.856 494.489 896.136 486.169 916.356 485.912 C 941.392 485.403 957.444 496.258 974.582 512.884 C 1023.33 582.143 991.954 698.879 1027.13 775.393 C 1029.36 780.237 1033.05 789.677 1037.96 791.765 C 1035.69 791.919 1034.44 792.014 1032.16 792.012 C 1019.54 768.565 1014.92 751.661 1009.97 725.889 C 998.421 665.848 1010.84 559.633 969.08 511.861 C 954.646 496.262 933.526 487.626 912.299 489.152 C 893.94 490.293 876.772 498.631 864.525 512.357 C 861.556 515.203 857.573 519.999 855.864 523.75 C 841.675 548.067 839.967 570.259 832.678 596.686 C 828.281 612.626 820.51 627.665 811.564 641.514 C 807.105 645.702 800.277 655.022 793.384 661.595 C 783.14 671.365 759.281 686.418 745.41 686.078 L 744.431 684.823 C 749.291 681.451 758.094 679.853 763.817 677.7 C 773.654 673.999 804.674 651.737 806.042 641.521 z"/>
<path transform="translate(0,0)" fill="rgb(235,157,201)" d="M 446.813 632.427 C 456.047 633.795 479.506 633.178 489.936 633.16 L 569.346 633.003 C 576.441 632.988 596.918 632.478 602.704 633.565 C 611.33 635.187 629.755 642.886 638.582 646.482 C 652.581 652.186 667.838 657.822 681.704 663.701 L 679.898 666.379 L 673.934 665.112 C 670.414 667.929 666.194 666.094 661.797 665.318 L 661.677 665.688 C 654.735 663.209 649.985 657.89 643.623 655.586 C 635.859 652.774 624.328 657.214 625.67 644.14 C 619.617 641.692 611.013 637.912 605.025 635.927 C 604.912 639.982 604.892 648.026 604.444 651.744 L 602.102 656.568 C 601.885 659.13 601.827 660.778 601.286 663.314 L 601.771 665.55 C 601.838 673.449 601.568 698.883 600.342 705.691 L 600.752 708.009 C 600.914 714.581 600.875 725.004 601.6 731.228 C 602.538 733.8 602.377 733.783 602.274 736.571 L 603.836 737.629 C 532.667 739.31 455.207 737.79 383.432 737.793 L 331.662 737.643 C 326.413 737.633 310.69 737.398 306.17 738.229 C 299.075 736.645 270.644 737.205 261.901 737.22 L 173.765 737.269 C 162.832 717.008 158.133 712.18 157.523 688.656 C 156.825 661.773 161.675 656.102 173.816 633.436 C 196.844 632.763 222.928 633.35 246.134 633.354 L 382.132 633.342 C 391.85 633.338 441.906 633.859 446.813 632.427 z"/>
<path transform="translate(0,0)" fill="rgb(235,157,201)" d="M 219.315 635.482 L 602.906 635.604 L 602.102 656.568 C 601.885 659.13 601.827 660.778 601.286 663.314 C 561.241 661.454 508.375 663.069 467.36 663.07 L 205.084 663.025 C 209.922 653.893 214.666 644.712 219.315 635.482 z"/>
<path transform="translate(0,0)" fill="rgb(235,157,201)" d="M 205.302 707.909 C 336.184 707.916 470.059 706.385 600.752 708.009 C 600.914 714.581 600.875 725.004 601.6 731.228 L 601.245 733.815 C 597.256 736.465 561.663 735.17 555 735.162 L 474.123 735.175 L 219.369 735.259 L 205.302 707.909 z"/>
<path transform="translate(0,0)" fill="rgb(52,37,46)" d="M 227.064 727.463 C 234.93 726.818 291.313 726.956 296.576 727.68 L 297.805 729.564 C 289.692 730.433 233.339 730.542 227.83 729.262 L 227.064 727.463 z"/>
<path transform="translate(0,0)" fill="rgb(52,37,46)" d="M 312.087 727.439 C 319.408 727.159 327.843 726.693 335.122 727.368 C 337.522 727.59 336.802 727.498 338.284 729.572 C 332.218 729.863 318.476 730.774 312.964 729.327 L 312.087 727.439 z"/>
<path transform="translate(0,0)" fill="rgb(52,37,46)" d="M 446.813 632.427 C 456.047 633.795 479.506 633.178 489.936 633.16 L 569.346 633.003 C 576.441 632.988 596.918 632.478 602.704 633.565 C 611.33 635.187 629.755 642.886 638.582 646.482 C 652.581 652.186 667.838 657.822 681.704 663.701 L 679.898 666.379 L 673.934 665.112 C 670.414 667.929 666.194 666.094 661.797 665.318 L 661.677 665.688 C 654.735 663.209 649.985 657.89 643.623 655.586 C 635.859 652.774 624.328 657.214 625.67 644.14 C 619.617 641.692 611.013 637.912 605.025 635.927 C 604.912 639.982 604.892 648.026 604.444 651.744 L 602.102 656.568 L 602.906 635.604 L 219.315 635.482 C 214.666 644.712 209.922 653.893 205.084 663.025 L 467.36 663.07 C 508.375 663.069 561.241 661.454 601.286 663.314 L 601.771 665.55 L 204.144 665.51 L 204.149 705.317 L 481.524 705.314 L 561.047 705.207 C 569.446 705.195 593.212 704.688 600.342 705.691 L 600.752 708.009 C 470.059 706.385 336.184 707.916 205.302 707.909 L 219.369 735.259 L 474.123 735.175 L 555 735.162 C 561.663 735.17 597.256 736.465 601.245 733.815 L 601.6 731.228 C 602.538 733.8 602.377 733.783 602.274 736.571 L 603.836 737.629 C 532.667 739.31 455.207 737.79 383.432 737.793 L 331.662 737.643 C 326.413 737.633 310.69 737.398 306.17 738.229 C 299.075 736.645 270.644 737.205 261.901 737.22 L 173.765 737.269 C 162.832 717.008 158.133 712.18 157.523 688.656 C 156.825 661.773 161.675 656.102 173.816 633.436 C 196.844 632.763 222.928 633.35 246.134 633.354 L 382.132 633.342 C 391.85 633.338 441.906 633.859 446.813 632.427 z"/>
<path transform="translate(0,0)" fill="rgb(254,254,254)" d="M 625.67 644.14 C 632.426 646.736 671.674 660.987 673.758 664.277 L 673.934 665.112 C 670.414 667.929 666.194 666.094 661.797 665.318 L 661.677 665.688 C 654.735 663.209 649.985 657.89 643.623 655.586 C 635.859 652.774 624.328 657.214 625.67 644.14 z"/>
<path transform="translate(0,0)" fill="rgb(83,119,237)" d="M 160.11 665.371 C 173.901 665.43 188.053 665.648 201.81 665.444 C 201.878 675.915 202.539 695.869 201.332 705.819 L 201.883 707.793 C 206.507 715.101 212.625 727.241 216.509 735.226 C 203.297 735.196 188.46 734.873 175.412 735.625 C 170.889 726.793 165.54 716.925 161.398 708.016 L 160.733 705.208 C 159.469 696.787 160.057 674.828 160.11 665.371 z"/>
<path transform="translate(0,0)" fill="rgb(83,119,237)" d="M 161.398 708.016 C 174.892 707.834 188.388 707.759 201.883 707.793 C 206.507 715.101 212.625 727.241 216.509 735.226 C 203.297 735.196 188.46 734.873 175.412 735.625 C 170.889 726.793 165.54 716.925 161.398 708.016 z"/>
<path transform="translate(0,0)" fill="rgb(18,28,79)" d="M 160.733 705.208 C 166.816 705.167 196.697 704.62 201.332 705.819 L 201.883 707.793 C 188.388 707.759 174.892 707.834 161.398 708.016 L 160.733 705.208 z"/>
<path transform="translate(0,0)" fill="rgb(83,119,237)" d="M 175.515 635.49 L 216.484 635.49 C 212.362 644.278 206.93 654.307 202.448 663.054 L 161.139 663.061 C 165.741 653.773 170.534 644.58 175.515 635.49 z"/>
<path transform="translate(0,0)" fill="rgb(187,199,252)" d="M 583.724 766.439 C 641.35 764.568 706.798 766.057 764.82 766.101 L 764.823 857.842 C 718.814 845.897 689.797 846.948 642.668 855.117 C 623.435 858.45 602.823 864.131 583.381 866.473 C 584.136 863.305 583.845 842.051 583.839 837.195 L 583.724 766.439 z"/>
<path transform="translate(0,0)" fill="rgb(5,2,2)" d="M 226.871 872.791 C 246.628 875.411 262.934 889.532 268.351 908.712 C 273.768 927.892 267.259 948.456 251.792 961.025 C 236.324 973.595 214.863 975.76 197.197 966.535 C 175.724 955.321 165.4 930.31 172.71 907.215 C 180.021 884.12 202.856 869.606 226.871 872.791 z"/>
<path transform="translate(0,0)" fill="rgb(218,225,252)" d="M 223.865 892.081 C 228.147 891.735 234.175 892.004 238.601 892.07 C 238.695 895.801 238.684 898.671 238.485 902.396 C 235.626 904.756 233.739 903.051 228.147 904.28 C 225.167 907.401 224.549 913.765 227.516 917.132 L 238.367 917.224 C 235.97 936.69 232.185 926.205 226.863 930.981 C 224.973 937.716 225.765 952.113 225.861 959.898 L 225.257 960.8 C 222.489 962.168 216.249 961.617 212.834 961.56 C 212.925 953.862 213.518 938.06 212.495 931.07 L 210.973 930.114 C 207.895 930.188 204.884 930.729 202.456 929.152 C 201.456 924.661 201.187 924.178 201.752 919.73 C 204.41 916.924 204.422 917.868 209.651 917.479 C 220.192 910.254 205.145 900.894 223.865 892.081 z"/>
<path transform="translate(0,0)" fill="rgb(5,2,2)" d="M 604.444 651.744 C 603.582 678.013 601.704 709.929 603.562 735.885 C 632.569 724.821 668.362 713.04 696.228 701.392 C 695.508 688.624 695.762 685.315 699.115 673.009 C 693.883 670.977 685.099 667.218 679.898 666.379 L 681.704 663.701 C 700.82 671.33 721.71 679.222 740.382 687.574 L 650.349 720.64 C 636.519 725.735 617.49 733.385 603.836 737.629 L 602.274 736.571 C 602.377 733.783 602.538 733.8 601.6 731.228 C 600.875 725.004 600.914 714.581 600.752 708.009 L 600.342 705.691 C 601.568 698.883 601.838 673.449 601.771 665.55 L 601.286 663.314 C 601.827 660.778 601.885 659.13 602.102 656.568 L 604.444 651.744 z"/>
<path transform="translate(0,0)" fill="rgb(235,157,201)" d="M 1702.05 1255.28 L 1707.71 1254.87 L 1711.19 1256.42 C 1711.89 1261.92 1706.8 1265.72 1703.15 1269.64 C 1701.46 1280.99 1702.01 1304.49 1701.83 1317.15 C 1704.55 1318.28 1704.73 1318.42 1707.61 1318.89 C 1725.86 1321.77 1748.22 1333.02 1759.53 1348.48 C 1769.41 1362.03 1773.4 1378.99 1770.6 1395.53 C 1767.78 1412.31 1758.24 1427.21 1744.18 1436.79 C 1730.01 1446.48 1717.84 1447.61 1701.16 1447.1 C 1703.06 1458.41 1702.3 1499.76 1701.86 1513.13 C 1710.97 1515.22 1726.43 1513.29 1737.03 1514.61 C 1734.28 1517.93 1705.56 1516.83 1700.03 1516.8 L 1653.64 1516.88 L 1601.25 1517.03 C 1594.65 1517.05 1578.71 1517.35 1572.97 1516.31 L 1570.16 1517.33 C 1568.38 1522.86 1569.76 1564.7 1569.16 1574.8 C 1577.8 1574.29 1628.7 1573.5 1633.58 1576.23 C 1623.38 1577.82 1581.64 1577.4 1569.39 1577.18 C 1570.86 1611.61 1569.81 1658.99 1569.24 1693.9 L 1246.51 1693.86 L 1246.74 1665.29 C 1234.2 1665.28 1221.51 1665.17 1208.98 1665.3 L 1208.8 1636.15 C 1209.78 1617.36 1208.5 1596.71 1209.27 1577.33 L 1209.35 1574.58 C 1208.17 1556.41 1209.56 1536.69 1208.67 1518.05 L 1208.44 1515.21 C 1200.97 1514.82 1190.93 1515.09 1183.25 1515.06 C 1182.37 1456.5 1183.1 1396.16 1183.09 1337.46 C 1245.7 1357.51 1298.64 1372.69 1364.16 1355.98 C 1402.73 1345.21 1424.29 1330.85 1454.96 1308.92 C 1461.3 1304.39 1509.1 1295.03 1520.33 1292.5 C 1528.35 1291.14 1536.7 1289.27 1544.69 1287.59 C 1596.98 1276.55 1649.98 1267.25 1702.05 1255.28 z"/>
<path transform="translate(0,0)" fill="rgb(187,199,252)" d="M 1702.05 1255.28 L 1707.71 1254.87 L 1711.19 1256.42 C 1711.89 1261.92 1706.8 1265.72 1703.15 1269.64 C 1701.46 1280.99 1702.01 1304.49 1701.83 1317.15 C 1704.55 1318.28 1704.73 1318.42 1707.61 1318.89 C 1725.86 1321.77 1748.22 1333.02 1759.53 1348.48 C 1769.41 1362.03 1773.4 1378.99 1770.6 1395.53 C 1767.78 1412.31 1758.24 1427.21 1744.18 1436.79 C 1730.01 1446.48 1717.84 1447.61 1701.16 1447.1 C 1703.06 1458.41 1702.3 1499.76 1701.86 1513.13 C 1710.97 1515.22 1726.43 1513.29 1737.03 1514.61 C 1734.28 1517.93 1705.56 1516.83 1700.03 1516.8 L 1653.64 1516.88 L 1601.25 1517.03 C 1594.65 1517.05 1578.71 1517.35 1572.97 1516.31 C 1572.53 1515.84 1569.63 1514.41 1569.16 1514.17 L 1569.21 1490.73 L 1532.86 1490.72 C 1533.66 1484.8 1533.24 1467.15 1533.24 1460.36 L 1521.14 1460.34 L 1521.19 1451.76 C 1520.16 1415.42 1521.81 1377.29 1521.12 1340.8 C 1520.82 1325.1 1521.45 1308.07 1520.33 1292.5 C 1528.35 1291.14 1536.7 1289.27 1544.69 1287.59 C 1596.98 1276.55 1649.98 1267.25 1702.05 1255.28 z"/>
<path transform="translate(0,0)" fill="rgb(83,119,237)" d="M 1707.61 1318.89 C 1725.86 1321.77 1748.22 1333.02 1759.53 1348.48 C 1769.41 1362.03 1773.4 1378.99 1770.6 1395.53 C 1767.78 1412.31 1758.24 1427.21 1744.18 1436.79 C 1730.01 1446.48 1717.84 1447.61 1701.16 1447.1 C 1696.8 1446.16 1692.54 1444.93 1688.24 1443.76 L 1689.95 1441.53 C 1668.05 1438.89 1649.3 1424.62 1640.92 1404.22 C 1632.54 1383.82 1635.85 1360.49 1649.56 1343.22 C 1663.28 1325.95 1685.26 1317.46 1707.03 1321 L 1707.61 1318.89 z"/>
<path transform="translate(0,0)" fill="rgb(5,2,2)" d="M 1707.61 1318.89 C 1725.86 1321.77 1748.22 1333.02 1759.53 1348.48 C 1769.41 1362.03 1773.4 1378.99 1770.6 1395.53 C 1767.78 1412.31 1758.24 1427.21 1744.18 1436.79 C 1730.01 1446.48 1717.84 1447.61 1701.16 1447.1 C 1696.8 1446.16 1692.54 1444.93 1688.24 1443.76 L 1689.95 1441.53 C 1722.84 1445.49 1752.86 1422.43 1757.5 1389.63 C 1762.15 1356.83 1739.72 1326.34 1707.03 1321 L 1707.61 1318.89 z"/>
<path transform="translate(0,0)" fill="rgb(5,2,2)" d="M 1693.51 1335.17 C 1697.22 1335.35 1696.81 1334.76 1699.39 1336.55 C 1702.77 1351.66 1711.3 1340.48 1715.21 1351.59 L 1714.21 1353.67 C 1709.31 1356.7 1695.76 1351.64 1691.12 1354.51 C 1673.55 1365.36 1704.63 1375.67 1709.22 1379.22 C 1728.5 1394.17 1718.32 1407.58 1700.38 1415.7 L 1700.3 1423.6 C 1698.46 1426.72 1699.27 1425.7 1695.06 1427.25 C 1692.76 1423.34 1693.33 1420.37 1693.4 1415.85 C 1688.41 1415.49 1676.62 1415.54 1674.3 1410.85 C 1679.17 1395.75 1705.25 1417.08 1706.95 1395.99 C 1708.08 1382.11 1684.78 1382.8 1679.3 1373.9 C 1670.61 1359.78 1678.58 1350.7 1691.3 1344.59 C 1693.96 1343.31 1693.39 1338.06 1693.51 1335.17 z"/>
<path transform="translate(0,0)" fill="rgb(18,28,79)" d="M 1701.86 1513.13 C 1710.97 1515.22 1726.43 1513.29 1737.03 1514.61 C 1734.28 1517.93 1705.56 1516.83 1700.03 1516.8 L 1653.64 1516.88 L 1601.25 1517.03 C 1594.65 1517.05 1578.71 1517.35 1572.97 1516.31 C 1572.53 1515.84 1569.63 1514.41 1569.16 1514.17 C 1599.67 1512.58 1636.03 1515.09 1666.97 1513.97 C 1674.62 1513.7 1695.3 1514.61 1701.86 1513.13 z"/>
<path transform="translate(0,0)" fill="rgb(23,19,28)" d="M 1701.83 1317.15 C 1704.55 1318.28 1704.73 1318.42 1707.61 1318.89 L 1707.03 1321 C 1685.26 1317.46 1663.28 1325.95 1649.56 1343.22 C 1635.85 1360.49 1632.54 1383.82 1640.92 1404.22 C 1649.3 1424.62 1668.05 1438.89 1689.95 1441.53 L 1688.24 1443.76 C 1679.19 1441.83 1673.58 1440.34 1665.46 1435.6 C 1650.83 1427.09 1640.22 1413.07 1636 1396.68 C 1631.87 1380.64 1634.23 1363.62 1642.59 1349.32 C 1651.89 1333.61 1667.48 1321.86 1685.84 1319.38 C 1689.44 1318.9 1699.22 1318.19 1701.83 1317.15 z"/>
<path transform="translate(0,0)" fill="rgb(218,225,252)" d="M 1702.05 1255.28 L 1707.71 1254.87 L 1711.19 1256.42 C 1711.89 1261.92 1706.8 1265.72 1703.15 1269.64 C 1701.5 1265.24 1702.01 1260.12 1702.05 1255.28 z"/>
<path transform="translate(0,0)" fill="rgb(218,225,252)" d="M 1364.16 1355.98 C 1402.73 1345.21 1424.29 1330.85 1454.96 1308.92 C 1461.3 1304.39 1509.1 1295.03 1520.33 1292.5 C 1521.45 1308.07 1520.82 1325.1 1521.12 1340.8 C 1521.81 1377.29 1520.16 1415.42 1521.19 1451.76 L 1521.14 1460.34 L 1510.92 1460.33 C 1462.64 1460.99 1412.69 1460.32 1364.27 1460.31 L 1364.16 1355.98 z"/>
<path transform="translate(0,0)" fill="rgb(254,254,254)" d="M 1521.19 1451.76 L 1521.14 1460.34 L 1510.92 1460.33 C 1513.69 1457.49 1518 1454.29 1521.19 1451.76 z"/>
<path transform="translate(0,0)" fill="rgb(187,199,252)" d="M 1183.09 1337.46 C 1245.7 1357.51 1298.64 1372.69 1364.16 1355.98 L 1364.27 1460.31 L 1209.01 1460.32 C 1209.05 1469.89 1209.67 1508.23 1208.44 1515.21 C 1200.97 1514.82 1190.93 1515.09 1183.25 1515.06 C 1182.37 1456.5 1183.1 1396.16 1183.09 1337.46 z"/>
<path transform="translate(0,0)" fill="rgb(23,19,28)" d="M 1521.14 1460.34 L 1533.24 1460.36 C 1533.24 1467.15 1533.66 1484.8 1532.86 1490.72 C 1531.24 1494.62 1531.8 1518.21 1531.8 1523.9 L 1531.95 1616.21 C 1531.97 1626.29 1532.67 1654.07 1531.51 1663.11 C 1530.35 1656.75 1531.03 1611.66 1531.03 1602.91 L 1530.92 1463.61 L 1432.09 1524.85 C 1413.01 1536.78 1389.29 1551.06 1371.29 1564.19 L 1211.19 1463.59 L 1211.13 1638 L 1208.8 1636.15 C 1209.78 1617.36 1208.5 1596.71 1209.27 1577.33 L 1209.35 1574.58 C 1208.17 1556.41 1209.56 1536.69 1208.67 1518.05 L 1208.44 1515.21 C 1209.67 1508.23 1209.05 1469.89 1209.01 1460.32 L 1364.27 1460.31 C 1412.69 1460.32 1462.64 1460.99 1510.92 1460.33 L 1521.14 1460.34 z"/>
<path transform="translate(0,0)" fill="rgb(235,157,201)" d="M 1214.76 1462.9 C 1250.58 1461.7 1292.71 1462.68 1329.12 1462.68 L 1527.89 1462.79 L 1465.6 1501.23 C 1434.65 1520.51 1400.88 1540.89 1370.89 1561.47 C 1355.82 1551.1 1335.77 1539.23 1319.99 1529.3 L 1214.76 1462.9 z"/>
<path transform="translate(0,0)" fill="rgb(23,19,28)" d="M 1405.35 1526.83 L 1406.56 1527.49 C 1404.49 1531.34 1382.82 1544 1377.79 1547.14 C 1376.97 1546.85 1377.46 1547.11 1376.64 1545.91 C 1379.63 1542.78 1400.51 1529.91 1405.35 1526.83 z"/>
<path transform="translate(0,0)" fill="rgb(23,19,28)" d="M 1425.58 1512.96 L 1426.3 1514.06 C 1424.57 1516.72 1419.87 1519.06 1416.86 1520.93 C 1416.25 1520.27 1416.64 1520.78 1416.28 1519.1 C 1418.44 1516.52 1422.53 1514.65 1425.58 1512.96 z"/>
<path transform="translate(0,0)" fill="rgb(5,2,2)" d="M 1531.51 1663.11 C 1532.67 1654.07 1531.97 1626.29 1531.95 1616.21 L 1531.8 1523.9 C 1531.8 1518.21 1531.24 1494.62 1532.86 1490.72 L 1569.21 1490.73 L 1569.16 1514.17 C 1569.63 1514.41 1572.53 1515.84 1572.97 1516.31 L 1570.16 1517.33 C 1568.38 1522.86 1569.76 1564.7 1569.16 1574.8 C 1577.8 1574.29 1628.7 1573.5 1633.58 1576.23 C 1623.38 1577.82 1581.64 1577.4 1569.39 1577.18 C 1570.86 1611.61 1569.81 1658.99 1569.24 1693.9 L 1246.51 1693.86 L 1246.74 1665.29 C 1234.2 1665.28 1221.51 1665.17 1208.98 1665.3 L 1208.8 1636.15 L 1211.13 1638 L 1211.12 1663.13 L 1531.51 1663.11 z"/>
<path transform="translate(0,0)" fill="rgb(52,37,46)" d="M 1516.97 1586.56 L 1518.46 1587.83 C 1521.38 1598.23 1519.68 1626.67 1518.89 1638.5 L 1517.8 1637.65 C 1517.22 1636.22 1517.06 1591.07 1516.97 1586.56 z"/>
<path transform="translate(0,0)" fill="rgb(52,37,46)" d="M 1517.09 1557.57 L 1518.64 1559.13 C 1519.42 1564.61 1518.57 1571.91 1518.18 1577.59 L 1516.36 1575.84 C 1515.51 1569.55 1516.45 1563.91 1517.09 1557.57 z"/>
<path transform="translate(0,0)" fill="rgb(52,37,46)" d="M 1507.39 1572.51 L 1508.98 1573.86 C 1510.21 1578.09 1509.59 1581.8 1509.31 1586.25 L 1507.53 1585.6 C 1506.51 1581.31 1507.12 1576.97 1507.39 1572.51 z"/>
<path transform="translate(0,0)" fill="rgb(239,115,116)" d="M 804.914 1633.92 C 855.554 1636.26 1006.34 1650.53 1041.6 1689.18 L 1044.04 1688.94 C 1048.68 1697.54 1047.67 1701.5 1043.45 1710.01 C 1045.69 1724.57 1046.33 1732.08 1045.83 1746.74 L 1045.61 1747.08 L 1044.92 1748.19 C 994.738 1826.69 554.835 1818.14 459.113 1792.64 C 434.262 1786.01 355.486 1775.63 348.143 1742.66 C 346.299 1734.38 345.355 1694.39 351.166 1688.29 C 379.82 1658.25 448.971 1648.24 488.116 1641.79 L 489.858 1641.9 L 489.069 1644.16 C 508.493 1641.4 534.25 1637.66 553.777 1636.78 C 558.864 1639.83 563.991 1642.82 569.158 1645.73 C 562.279 1646 525.889 1647.23 522.698 1650.07 C 528.203 1652.3 563.364 1646.48 571.912 1648.17 C 585.559 1650.88 599.167 1657.81 613.208 1661.01 C 663.082 1672.38 729.511 1680.58 778.094 1663.29 C 786.397 1660.33 793.924 1654.44 799.345 1648 C 842.222 1650.98 989.601 1660.36 1014.74 1688.32 C 1017.39 1691.27 1019 1695.14 1018.75 1699.14 C 1018.45 1704.01 1015.29 1707.85 1011.62 1710.77 C 991.966 1726.4 956.748 1730.89 932.354 1733.93 C 924.88 1734.86 915.401 1734.97 908.51 1737.76 L 908.553 1738.74 C 932.28 1739.05 998.512 1727.36 1015.15 1710.74 C 1018.79 1707.1 1021.22 1702.43 1020.91 1697.18 C 1020.6 1691.64 1017.09 1687.04 1012.93 1683.63 C 982.533 1658.68 844.984 1647.72 800.63 1645.82 L 804.914 1633.92 z"/>
<path transform="translate(0,0)" fill="rgb(5,2,2)" d="M 488.116 1641.79 L 489.858 1641.9 L 489.069 1644.16 C 334.326 1667.79 279.732 1719.9 474.777 1751.32 C 634.974 1777.13 814.503 1772.95 972.897 1740.31 C 992.984 1735.98 1057.49 1718.35 1041.6 1689.18 L 1044.04 1688.94 C 1048.68 1697.54 1047.67 1701.5 1043.45 1710.01 C 1045.69 1724.57 1046.33 1732.08 1045.83 1746.74 L 1045.61 1747.08 L 1044.92 1748.19 C 994.738 1826.69 554.835 1818.14 459.113 1792.64 C 434.262 1786.01 355.486 1775.63 348.143 1742.66 C 346.299 1734.38 345.355 1694.39 351.166 1688.29 C 379.82 1658.25 448.971 1648.24 488.116 1641.79 z"/>
<path transform="translate(0,0)" fill="rgb(31,12,12)" d="M 392.315 1712.18 C 400.83 1713.98 412.796 1719.17 421.298 1721.96 C 496.928 1746.79 577.275 1749.98 656.227 1750.74 C 664.071 1750.82 693.245 1749.67 698.28 1752.5 C 690.3 1753.7 661.178 1753.03 651.633 1752.95 C 587.644 1752.38 522.227 1749.61 459.697 1735.07 C 448.686 1732.51 396.704 1719.21 392.315 1712.18 z"/>
<path transform="translate(0,0)" fill="rgb(31,12,12)" d="M 822.813 1746.49 L 823.352 1746.71 L 823.708 1747.76 C 815.902 1751.78 732.507 1752.33 717.259 1752.31 L 716.552 1751.08 C 716.171 1751.33 810.272 1747.3 822.813 1746.49 z"/>
<path transform="translate(0,0)" fill="rgb(31,12,12)" d="M 442.125 1663.38 L 443.349 1664.38 C 441.606 1666.1 431.013 1667.23 426.407 1668.6 C 414.363 1672.21 405.933 1676.03 394.801 1681.45 L 393.999 1681.12 L 394.241 1679.38 C 406.783 1671.64 427.435 1665.24 442.125 1663.38 z"/>
<path transform="translate(0,0)" fill="rgb(187,199,252)" d="M 338.952 1056.97 C 346.294 1057.03 353.636 1057.14 360.976 1057.31 C 346.298 1066.83 335.534 1080.03 347.28 1098.89 C 354.599 1110.63 368.658 1119 381.79 1120.63 C 427.408 1127.87 457.967 1116.28 499.723 1101.42 L 499.943 1515.88 C 520.305 1515.79 542.34 1515.28 562.574 1515.9 L 560.858 1516.72 C 487.501 1517.9 412.93 1516.7 339.389 1517.35 C 340.742 1458.92 338.864 1394.95 339.192 1335.63 C 337.306 1335.04 335.447 1334.37 333.62 1333.62 C 317.629 1327.04 305.078 1314.13 298.949 1297.96 C 292.983 1282.06 293.573 1264.44 300.59 1248.97 C 308.605 1231.44 321.579 1221.48 339.208 1214.92 C 338.264 1163.02 338.941 1108.97 338.952 1056.97 z"/>
<path transform="translate(0,0)" fill="rgb(83,119,237)" d="M 339.208 1214.92 C 353.549 1211.35 369.192 1210.66 382.848 1217.37 L 381.075 1218.99 C 407.41 1229.81 422.728 1257.43 417.953 1285.5 C 413.179 1313.57 389.587 1334.58 361.156 1336.08 C 358.147 1337.51 356.969 1337.16 353.666 1336.98 L 350.941 1338.51 L 339.192 1335.63 C 337.306 1335.04 335.447 1334.37 333.62 1333.62 C 317.629 1327.04 305.078 1314.13 298.949 1297.96 C 292.983 1282.06 293.573 1264.44 300.59 1248.97 C 308.605 1231.44 321.579 1221.48 339.208 1214.92 z"/>
<path transform="translate(0,0)" fill="rgb(23,19,28)" d="M 339.208 1214.92 C 353.549 1211.35 369.192 1210.66 382.848 1217.37 L 381.075 1218.99 C 357.96 1209.49 331.389 1215.09 314.067 1233.1 C 296.745 1251.11 292.192 1277.88 302.583 1300.61 C 312.975 1323.33 336.201 1337.4 361.156 1336.08 C 358.147 1337.51 356.969 1337.16 353.666 1336.98 L 350.941 1338.51 L 339.192 1335.63 C 337.306 1335.04 335.447 1334.37 333.62 1333.62 C 317.629 1327.04 305.078 1314.13 298.949 1297.96 C 292.983 1282.06 293.573 1264.44 300.59 1248.97 C 308.605 1231.44 321.579 1221.48 339.208 1214.92 z"/>
<path transform="translate(0,0)" fill="rgb(5,2,2)" d="M 354.025 1229.73 C 357.733 1229.7 358.852 1229.19 361.089 1231.93 C 360.791 1234.63 360.494 1235.05 361.251 1237.58 C 365.534 1241.33 371.471 1237.89 375.595 1242.59 L 374.926 1246.6 C 369.693 1252.5 357.113 1244.75 352.897 1248.53 C 329.691 1269.33 388.503 1266.63 379.077 1292.98 C 373.217 1309.36 364.525 1303.49 360.92 1312.02 C 361.737 1317.94 362.248 1318.31 357.445 1321.85 C 355.498 1320.4 356.011 1320.81 354.469 1318.88 C 353.43 1305.18 349.856 1311.41 336.446 1307.05 C 334.416 1304.51 335.076 1306.03 335.338 1302 C 342.137 1294.17 366.222 1308.66 367.764 1290.5 C 369.448 1276.07 344.49 1277.07 339.347 1267.52 C 331.554 1253.03 340.222 1245.05 352.256 1238.62 C 354.802 1237.26 354.027 1232.44 354.025 1229.73 z"/>
<path transform="translate(0,0)" fill="rgb(5,2,2)" d="M 382.848 1217.37 C 402.931 1225.41 417.713 1233.4 426.917 1254.43 C 433.496 1269.53 433.814 1286.63 427.801 1301.97 C 421.669 1317.63 409.47 1330.16 393.973 1336.69 C 380.661 1342.27 364.659 1343.04 350.941 1338.51 L 353.666 1336.98 C 356.969 1337.16 358.147 1337.51 361.156 1336.08 C 389.587 1334.58 413.179 1313.57 417.953 1285.5 C 422.728 1257.43 407.41 1229.81 381.075 1218.99 L 382.848 1217.37 z"/>
<path transform="translate(0,0)" fill="rgb(187,199,252)" d="M 1039 1318.95 C 1092.1 1315.91 1132.77 1321.95 1183.09 1337.46 C 1183.1 1396.16 1182.37 1456.5 1183.25 1515.06 C 1138.1 1514.75 1088.05 1514.4 1043.1 1515.42 C 1024.64 1516.11 1004.72 1515.97 986.188 1515.65 C 940.639 1514.87 893.856 1517.33 848.427 1515.81 C 851.53 1515.13 854.374 1514.64 857.509 1514.12 C 858.854 1502.54 858.123 1463.32 857.818 1448.75 C 857.249 1421.52 859.139 1385.82 857.394 1359.48 C 901.833 1338.49 989.026 1321.21 1039 1318.95 z"/>
<path transform="translate(0,0)" fill="rgb(218,225,252)" d="M 1039 1318.95 C 1092.1 1315.91 1132.77 1321.95 1183.09 1337.46 C 1183.1 1396.16 1182.37 1456.5 1183.25 1515.06 C 1138.1 1514.75 1088.05 1514.4 1043.1 1515.42 L 1040.39 1514.67 C 1037.53 1510.28 1038.87 1479.39 1038.95 1471.87 C 1069.62 1466.86 1092.13 1447.93 1112.84 1426.36 C 1093.25 1403.16 1068.66 1386.67 1038.84 1380.42 L 1039 1318.95 z"/>
<path transform="translate(0,0)" fill="rgb(5,2,2)" d="M 941.968 1426.25 C 968.444 1396.93 998.231 1376.9 1038.84 1380.42 C 1068.66 1386.67 1093.25 1403.16 1112.84 1426.36 C 1092.13 1447.93 1069.62 1466.86 1038.95 1471.87 C 998.247 1476.55 968.628 1454.35 941.968 1426.25 z"/>
<path transform="translate(0,0)" fill="rgb(218,225,252)" d="M 1039.55 1384.04 C 1064.54 1386.46 1091.85 1408.68 1108.45 1426.12 C 1098.96 1437.19 1087.69 1445.92 1075.66 1454 C 1063.18 1461.93 1053.04 1465.41 1038.93 1468.98 C 1067.1 1446.97 1067.98 1406.29 1039.55 1384.04 z"/>
<path transform="translate(0,0)" fill="rgb(187,199,252)" d="M 1013.29 1384.22 L 1014.32 1384.61 C 998.525 1398.8 992.703 1412.3 995.185 1433.88 C 997.011 1449.75 1003.79 1459.5 1016.16 1469.08 C 1000.24 1464.78 996.156 1463.4 981.383 1455.41 C 967.482 1446.48 957.452 1438.29 946.413 1426.08 C 966.059 1405.67 985.298 1390.74 1013.29 1384.22 z"/>
<path transform="translate(0,0)" fill="rgb(218,225,252)" d="M 1183.25 1515.06 C 1190.93 1515.09 1200.97 1514.82 1208.44 1515.21 L 1208.67 1518.05 C 1209.56 1536.69 1208.17 1556.41 1209.35 1574.58 L 1209.27 1577.33 C 1208.5 1596.71 1209.78 1617.36 1208.8 1636.15 C 1155.57 1658.41 1100.46 1675.89 1044.14 1688.4 C 1005.32 1647.72 860.473 1634.48 805.829 1631.75 C 809.624 1620.69 824.851 1585.67 824.738 1577.43 L 823.584 1574.82 C 815.936 1553.23 781.564 1531.77 777.067 1519.23 L 776.178 1515.98 C 793.641 1516.02 832.904 1517.16 848.427 1515.81 C 893.856 1517.33 940.639 1514.87 986.188 1515.65 C 1004.72 1515.97 1024.64 1516.11 1043.1 1515.42 C 1088.05 1514.4 1138.1 1514.75 1183.25 1515.06 z"/>
<path transform="translate(0,0)" fill="rgb(218,225,252)" d="M 1183.25 1515.06 C 1190.93 1515.09 1200.97 1514.82 1208.44 1515.21 L 1208.67 1518.05 C 1209.56 1536.69 1208.17 1556.41 1209.35 1574.58 L 1209.27 1577.33 C 1082.52 1576.54 951.375 1576.06 824.738 1577.43 L 823.584 1574.82 C 815.936 1553.23 781.564 1531.77 777.067 1519.23 L 776.178 1515.98 C 793.641 1516.02 832.904 1517.16 848.427 1515.81 C 893.856 1517.33 940.639 1514.87 986.188 1515.65 C 1004.72 1515.97 1024.64 1516.11 1043.1 1515.42 C 1088.05 1514.4 1138.1 1514.75 1183.25 1515.06 z"/>
<path transform="translate(0,0)" fill="rgb(18,28,79)" d="M 1183.25 1515.06 C 1190.93 1515.09 1200.97 1514.82 1208.44 1515.21 L 1208.67 1518.05 L 943.829 1518.83 C 888.564 1518.99 832.23 1518.34 777.067 1519.23 L 776.178 1515.98 C 793.641 1516.02 832.904 1517.16 848.427 1515.81 C 893.856 1517.33 940.639 1514.87 986.188 1515.65 C 1004.72 1515.97 1024.64 1516.11 1043.1 1515.42 C 1088.05 1514.4 1138.1 1514.75 1183.25 1515.06 z"/>
<path transform="translate(0,0)" fill="rgb(18,28,79)" d="M 823.584 1574.82 C 841.806 1573.92 864.22 1574.51 882.663 1574.52 L 986.854 1574.57 L 1134.83 1574.56 C 1159.03 1574.55 1185.29 1574.02 1209.35 1574.58 L 1209.27 1577.33 C 1082.52 1576.54 951.375 1576.06 824.738 1577.43 L 823.584 1574.82 z"/>
<path transform="translate(0,0)" fill="rgb(254,254,254)" d="M 752.77 864.162 C 755.843 869.831 759.461 879.713 765.743 881.054 L 765.773 882.016 L 764.233 883.581 C 766.16 888.102 774.311 905.247 778.981 905.936 L 779.539 907.225 L 778.536 908.973 C 782.237 917.39 789.184 928.867 793.86 937.119 C 781.592 949.599 770.68 961.754 764.827 978.542 C 782.158 1004.05 838.554 1009.14 839.921 1024.72 C 835.861 1033.23 829.772 1037.95 827.034 1046.6 L 823.707 1045.74 L 832.005 1032.24 C 786.381 1043.33 688.129 1032.49 645.119 1012.45 C 643.458 1011.6 643.419 1011.93 641.278 1011.88 L 651.771 1043.46 C 635.037 1051.13 629.187 1050.68 613.429 1056.46 C 601.504 1060.83 585.468 1070.2 572.762 1075.28 C 550.34 1084.24 528.794 1090.06 505.803 1097.25 C 479.092 1105.61 452.386 1117.73 424.081 1119.88 C 407.918 1121.11 382.478 1120.63 367.082 1114.08 C 364.587 1113.02 359.773 1108.9 357.531 1107 C 401.875 1101.67 443.767 1093.4 412.119 1039.07 C 432.263 1031.14 451.164 1023.85 470.055 1013.06 C 485.357 1004.31 501.765 991.687 517.035 983.669 C 554.848 963.815 593.51 944.737 631.721 925.626 C 663.416 909.775 685.763 896.14 720.998 888.458 L 721.679 886.145 L 732.15 883.762 C 735.478 879.002 747.039 870.609 752.77 864.162 z"/>
<path transform="translate(0,0)" fill="rgb(5,2,2)" d="M 752.77 864.162 C 755.843 869.831 759.461 879.713 765.743 881.054 L 765.773 882.016 L 764.233 883.581 C 766.16 888.102 774.311 905.247 778.981 905.936 L 779.539 907.225 L 778.536 908.973 C 782.237 917.39 789.184 928.867 793.86 937.119 C 781.592 949.599 770.68 961.754 764.827 978.542 C 782.158 1004.05 838.554 1009.14 839.921 1024.72 C 835.861 1033.23 829.772 1037.95 827.034 1046.6 L 823.707 1045.74 L 832.005 1032.24 C 786.381 1043.33 688.129 1032.49 645.119 1012.45 C 643.458 1011.6 643.419 1011.93 641.278 1011.88 C 638.813 1006.57 634.775 1005.76 637.001 999.043 C 640.035 996.117 642.114 995.732 646.176 994.2 L 647.521 995.889 C 669.463 991.745 690.715 990.683 711.464 980.268 L 709.459 979.333 C 714.764 975.12 716.893 975.014 716.011 967.919 L 714.592 967.854 L 712.811 966.816 C 718.742 958.248 702.557 933.944 697.853 926.045 L 733.104 886.229 C 728.723 886.795 725.295 887.534 720.998 888.458 L 721.679 886.145 L 732.15 883.762 C 735.478 879.002 747.039 870.609 752.77 864.162 z"/>
<path transform="translate(0,0)" fill="rgb(117,207,181)" d="M 711.464 980.268 L 716.421 976.827 C 740.495 983.069 738.182 987.768 765.989 984.697 C 782.508 998.007 798.995 1005.57 819.213 1011.9 C 790.935 1033.99 764.321 1027.59 730.52 1024.63 C 716.286 1023.38 650.437 1011 647.521 995.889 C 669.463 991.745 690.715 990.683 711.464 980.268 z"/>
<path transform="translate(0,0)" fill="rgb(20,42,35)" d="M 669.099 1003.14 C 673.512 1002.71 699.945 1010.91 704.284 1012.81 C 697.423 1014.68 675.194 1006.89 669.099 1003.14 z"/>
<path transform="translate(0,0)" fill="rgb(20,42,35)" d="M 709.924 1014.32 C 715.148 1014.49 725.635 1015.12 729.148 1018.68 C 724.279 1018.71 713.234 1017.67 709.924 1014.32 z"/>
<path transform="translate(0,0)" fill="rgb(22,27,26)" d="M 712.811 966.816 L 714.592 967.854 L 716.011 967.919 C 716.893 975.014 714.764 975.12 709.459 979.333 L 711.464 980.268 C 690.715 990.683 669.463 991.745 647.521 995.889 L 646.176 994.2 C 666.786 989.604 678.746 989.424 700.359 982.63 C 704.497 977.045 708.136 971.977 712.811 966.816 z"/>
<path transform="translate(0,0)" fill="rgb(254,254,254)" d="M 714.592 967.854 L 716.011 967.919 C 716.893 975.014 714.764 975.12 709.459 979.333 C 707.643 979.69 708.632 979.671 706.494 979.171 C 707.644 975.439 711.925 971.031 714.592 967.854 z"/>
<path transform="translate(0,0)" fill="rgb(23,19,28)" d="M 540.176 981.842 C 543.36 984.144 553.433 1010.88 555.715 1016.49 C 550.459 1013.77 540.974 988.457 540.176 981.842 z"/>
<path transform="translate(0,0)" fill="rgb(23,19,28)" d="M 425.649 1055.62 C 431.015 1060.37 429.429 1078.18 427.332 1084.69 C 426.952 1084.07 425.697 1058.31 425.649 1055.62 z"/>
<path transform="translate(0,0)" fill="rgb(23,19,28)" d="M 550.008 980.872 C 555.764 986.217 559.533 997.76 560.638 1005.48 L 558.741 1004.94 C 556.655 996.457 550.354 986.215 550.008 980.872 z"/>
<path transform="translate(0,0)" fill="rgb(23,19,28)" d="M 536.338 993.592 C 539.649 996.476 544.608 1007.31 545.133 1011.94 C 541.18 1008.15 536.722 999.238 536.338 993.592 z"/>
<path transform="translate(0,0)" fill="rgb(218,225,252)" d="M 499.723 1101.42 C 529.777 1092.23 554.211 1085.65 583.035 1073.18 C 586.636 1085.12 583.416 1147.5 584.266 1164.85 C 566.514 1189.85 553.239 1209.19 584.048 1232.9 C 583.53 1286.08 584.192 1339.87 584.144 1393.09 C 584.134 1404.8 583.217 1451.42 584.959 1460.32 L 584.588 1465.13 C 583.064 1468.03 584.149 1497.34 584.219 1502.79 C 577.528 1507.06 569.568 1512.45 562.574 1515.9 C 542.34 1515.28 520.305 1515.79 499.943 1515.88 L 499.723 1101.42 z"/>
<path transform="translate(0,0)" fill="rgb(254,254,254)" d="M 436.365 875.661 C 482.754 875.39 508.984 877.617 557.264 872.322 C 574.686 870.369 592.02 867.69 609.219 864.294 C 633.513 859.521 670.72 849.779 694.522 852.654 C 692.076 853.067 677.887 859.398 677.385 860.678 C 678.041 867.79 679.069 870.464 681.622 877.177 C 689.219 897.152 703.614 875.103 719.792 886.048 C 667.259 900.538 630.915 925.165 582.042 947.983 C 573.899 950.905 544.798 969.141 538.259 969.213 C 482.481 969.826 370.096 977.559 351.562 909.719 C 361.073 913.24 368.137 915.374 378.265 916.517 C 414.744 920.632 432.137 915.155 436.365 875.661 z M 667.399 886.179 C 670.768 880.592 674.05 869.66 667.249 865.498 C 663.798 871.184 661.591 881.257 667.399 886.179 z"/>
<path transform="translate(0,0)" fill="rgb(218,225,252)" fill-opacity="0.258824" d="M 667.249 865.498 C 674.05 869.66 670.768 880.592 667.399 886.179 C 661.591 881.257 663.798 871.184 667.249 865.498 z"/>
<path transform="translate(0,0)" fill="rgb(23,19,28)" d="M 439.556 885.779 C 443.916 889.921 437.213 902.302 434.479 906.248 C 433.361 904.43 438.451 891.686 439.556 885.779 z"/>
<path transform="translate(0,0)" fill="rgb(117,207,181)" d="M 645.119 1012.45 C 688.129 1032.49 786.381 1043.33 832.005 1032.24 L 823.707 1045.74 C 815.809 1058.34 808.04 1071.01 800.4 1083.77 C 784.01 1111.72 780.591 1137.66 788.772 1168.92 C 732.821 1169.32 710.302 1170.47 655.138 1153.67 C 684.51 1101.91 664.43 1077.57 647.783 1025.05 C 646.649 1021.47 644.119 1015.79 645.119 1012.45 z"/>
<path transform="translate(0,0)" fill="rgb(20,42,35)" d="M 798.399 1067.74 C 798.68 1068.37 798.961 1069 799.242 1069.62 C 793.932 1077.78 781.394 1107.68 778.827 1114.35 L 777.981 1113.58 C 777.266 1105.99 793.703 1075.23 798.399 1067.74 z"/>
<path transform="translate(0,0)" fill="rgb(20,42,35)" d="M 777.296 1121.59 C 779.114 1125.87 777.121 1142.12 776.511 1147.63 C 773.544 1143.19 775.57 1126.76 777.296 1121.59 z"/>
<path transform="translate(0,0)" fill="rgb(187,199,252)" d="M 584.048 1232.9 C 615.899 1251.48 640.263 1241 667.709 1221.45 C 660.868 1309.05 656.88 1392.68 587.988 1452.79 C 586.978 1453.67 585.432 1458.73 584.959 1460.32 C 583.217 1451.42 584.134 1404.8 584.144 1393.09 C 584.192 1339.87 583.53 1286.08 584.048 1232.9 z"/>
<path transform="translate(0,0)" fill="rgb(218,225,252)" d="M 765.62 1394.62 C 794.469 1390.74 830.497 1372.28 857.394 1359.48 C 859.139 1385.82 857.249 1421.52 857.818 1448.75 C 858.123 1463.32 858.854 1502.54 857.509 1514.12 C 854.374 1514.64 851.53 1515.13 848.427 1515.81 C 832.904 1517.16 793.641 1516.02 776.178 1515.98 C 773.42 1509 781.638 1500.03 785.764 1494.72 C 786.812 1487.03 787.022 1480.7 787.327 1472.92 C 778.11 1463.06 768.535 1445.13 764.216 1432.45 C 766.269 1420.07 763.807 1405.33 765.62 1394.62 z"/>
<path transform="translate(0,0)" fill="rgb(254,254,254)" d="M 752.68 1281.61 C 750.266 1295.41 738.598 1292.44 734.57 1303.94 C 740.18 1307.49 762.563 1300.65 770.568 1300.85 C 785.05 1301.21 802.811 1309.92 810.577 1322.37 C 820.046 1337.56 821.495 1356.99 820.783 1374.09 C 818.61 1375.28 818.353 1375.21 815.941 1375.96 C 814.46 1374.35 814.083 1366.57 813.795 1363.91 C 807.98 1310.03 781.638 1288.7 734.137 1324.37 C 720.256 1334.8 719.007 1344.34 722.264 1360.63 C 723.813 1368.38 723.572 1372.73 727.961 1380.08 L 728.788 1380.25 C 725.735 1368.08 723.451 1355.74 721.949 1343.29 C 732.732 1322.51 771.133 1296.86 793.075 1315.65 C 808.286 1328.68 811.543 1358.88 812.715 1377.89 C 784.665 1389.08 741.005 1407.04 719.226 1374.87 C 711.111 1362.88 707.059 1346.18 710.035 1332.01 C 714.545 1310.55 735.279 1293.07 752.68 1281.61 z"/>
<path transform="translate(0,0)" fill="rgb(187,199,252)" d="M 583.035 1073.18 C 601.922 1063.82 619.047 1055.96 639.453 1050.68 C 643.137 1049.73 649.429 1046.22 652.683 1047.1 C 654.202 1050.3 654.526 1051.04 655.52 1054.41 C 649.528 1065.93 643.355 1077.36 637.354 1088.87 C 622.904 1116.57 603.347 1140.27 584.266 1164.85 C 583.416 1147.5 586.636 1085.12 583.035 1073.18 z"/>
<path transform="translate(0,0)" fill="rgb(187,199,252)" d="M 765.62 1394.62 C 763.807 1405.33 766.269 1420.07 764.216 1432.45 C 758.941 1420.49 755.87 1408 753.275 1395.25 C 757.351 1395.15 761.541 1394.86 765.62 1394.62 z"/>
<path transform="translate(0,0)" fill="rgb(187,199,252)" d="M 584.219 1502.79 C 584.149 1497.34 583.064 1468.03 584.588 1465.13 C 585.373 1480.79 599.823 1490.05 584.219 1502.79 z"/>
<path transform="translate(0,0)" fill="rgb(117,207,181)" d="M 663.783 1187.49 C 701.577 1197.81 733.344 1199.95 772.202 1199.96 C 756.715 1222.4 756.249 1250.97 752.599 1278.41 C 719.999 1302.19 689.546 1331.13 717.227 1376.02 C 725.094 1388.77 736.696 1392.8 750.828 1395.41 C 754.647 1414.38 762.709 1439.8 772.607 1456.6 C 782.691 1473.72 795.564 1479.06 765.788 1490.48 C 726.23 1503.98 608.215 1497.43 589.642 1453.06 C 651.836 1407.22 662.003 1317.93 667.943 1246.94 C 669.756 1225.27 673.549 1207.92 663.783 1187.49 z"/>
<path transform="translate(0,0)" fill="rgb(20,42,35)" d="M 658.267 1358.68 L 659.264 1360.14 C 656.998 1381.77 636.031 1418.68 618.953 1434.7 L 618.126 1434.07 C 618.316 1432.87 634.171 1414.13 637.189 1409.08 C 646.55 1393.4 652.156 1375.78 658.267 1358.68 z"/>
<path transform="translate(0,0)" fill="rgb(20,42,35)" d="M 755.437 1209.74 L 756.51 1211.52 C 753.809 1223.61 751.145 1237.76 747.712 1249.46 C 746.776 1248.67 747.33 1249.23 746.349 1247.52 C 748.193 1237.92 751.887 1218.4 755.437 1209.74 z"/>
<path transform="translate(0,0)" fill="rgb(20,42,35)" d="M 744.897 1258.49 C 747.299 1262.3 745.752 1268.36 744.842 1272.5 C 742.52 1268.86 744.084 1262.54 744.897 1258.49 z"/>
<path transform="translate(0,0)" fill="rgb(218,225,252)" d="M 818.313 1058.83 C 830.893 1065.58 844.46 1071.96 857.35 1078.24 C 882.109 1090.42 903.113 1105.27 926.593 1119.64 C 955.083 1137.08 996.902 1144.99 1019.51 1169.23 C 965.112 1191.61 913.804 1212.46 857.975 1231.05 C 821.676 1242.09 799.441 1250.49 766.048 1269.57 C 764.399 1270.93 757.277 1275.38 755.104 1276.81 C 756.96 1262.71 760.281 1232.99 764.06 1220.64 C 767.029 1210.95 769.472 1207.98 775.374 1200.07 C 779.614 1199.72 783.851 1199.34 788.084 1198.91 C 826.978 1194.84 825.627 1180.79 790.689 1167.66 L 790.483 1166.8 C 779.14 1119.03 794.606 1097.36 818.313 1058.83 z"/>
<path transform="translate(0,0)" fill="rgb(187,199,252)" d="M 857.35 1078.24 C 882.109 1090.42 903.113 1105.27 926.593 1119.64 C 955.083 1137.08 996.902 1144.99 1019.51 1169.23 C 965.112 1191.61 913.804 1212.46 857.975 1231.05 C 857.534 1210.44 858.152 1189.56 857.747 1169 C 857.149 1138.68 856.759 1108.58 857.35 1078.24 z"/>
<path transform="translate(0,0)" fill="rgb(187,199,252)" d="M 755.104 1276.81 C 756.96 1262.71 760.281 1232.99 764.06 1220.64 C 766.44 1233.32 763.558 1261.81 766.048 1269.57 C 764.399 1270.93 757.277 1275.38 755.104 1276.81 z"/>
<path transform="translate(0,0)" fill="rgb(117,207,181)" d="M 592.249 1481.6 C 601.879 1488.8 612.402 1494.72 623.554 1499.21 C 665.806 1516.59 732.222 1522.83 775.072 1504.91 L 772.38 1515.35 C 781.94 1537.96 814.241 1553.08 821.455 1576.78 C 828.389 1599.55 783.376 1608.08 769.227 1610.83 C 705.3 1620.59 602.479 1610.48 546.321 1573.68 C 539.818 1569.41 532.4 1561.51 531.44 1553.61 C 528.372 1528.37 578.126 1516.47 590.36 1499.51 C 594.92 1493.19 593.491 1488.64 592.249 1481.6 z"/>
<path transform="translate(0,0)" fill="rgb(20,42,35)" d="M 580.368 1578.25 C 585.286 1579.12 603.324 1585.52 609.333 1587.36 C 622.862 1591.5 636.189 1594.87 649.695 1598.77 L 650.571 1600.68 C 640.799 1599.03 584.041 1584.19 580.368 1578.25 z"/>
<path transform="translate(0,0)" fill="rgb(20,42,35)" d="M 808.429 1566.81 C 810.833 1568.05 814.663 1572.87 815.346 1575.41 C 818.168 1585.9 808.455 1591.66 800.67 1593.83 L 800.709 1592.17 C 823.722 1580.86 810.67 1578.84 808.429 1566.81 z"/>
<path transform="translate(0,0)" fill="rgb(20,42,35)" d="M 661.29 1601.36 C 667.439 1600.42 684.645 1602.59 689.955 1605.68 C 684.722 1606.46 666.283 1603.41 661.29 1601.36 z"/>
<path transform="translate(0,0)" fill="rgb(117,207,181)" d="M 532.99 1564.68 C 540.444 1571.54 551.663 1580.4 560.598 1584.82 C 620.814 1614.63 761.019 1633.55 816.728 1595.87 C 811.88 1608.94 807.059 1622.26 802.226 1635.34 C 794.16 1657.16 778.614 1662.17 757.863 1666.77 C 703.372 1676.83 620.15 1667.01 568.974 1642.9 C 556.973 1637.24 544.54 1629.26 540.036 1616.19 C 550.04 1626.85 568.348 1642.26 583.177 1644.21 C 560.816 1630.57 559.179 1633.43 539.397 1611.9 C 537.943 1597.19 535.035 1579.56 532.99 1564.68 z"/>
<path transform="translate(0,0)" fill="rgb(20,42,35)" d="M 590.159 1645.09 C 594.857 1645.51 599.139 1647.22 602.976 1649.9 C 597.358 1649.75 594.179 1648.89 590.159 1645.09 z"/>
<path transform="translate(0,0)" fill="rgb(117,207,181)" d="M 649.239 1155.36 C 654.521 1154.73 672.665 1160.74 678.731 1162.36 C 714.394 1171.91 751.189 1172.21 787.817 1170.55 C 794.462 1170.25 812.017 1177.99 815.123 1184.44 C 814.53 1193.32 801.264 1194.55 794.048 1195.76 C 758.745 1201.2 707.154 1196.31 672.308 1187.52 C 660.649 1184.58 633.221 1177.64 626.761 1166.83 C 626.608 1157.88 642.117 1156.45 649.239 1155.36 z"/>
<path transform="translate(0,0)" fill="rgb(20,42,35)" d="M 636.354 1161.62 C 636.772 1162.76 636.628 1164.26 636.924 1164.98 C 640.033 1172.44 660.111 1176.95 666.236 1179.57 L 666.444 1181.45 C 656.966 1178.57 641.029 1174.88 635.13 1167.55 C 634.317 1163.7 634.182 1165.64 636.354 1161.62 z"/>
<path transform="translate(0,0)" fill="rgb(20,42,35)" d="M 673.979 1183.25 C 679.518 1182.57 688.671 1184.76 693.541 1187.81 C 687.404 1187.69 679.382 1186.29 673.979 1183.25 z"/>
<path transform="translate(0,0)" fill="rgb(20,42,35)" d="M 790.043 1177.31 C 795.12 1177.68 796.507 1177.48 801.009 1179.51 C 803.682 1182.67 803.066 1180.93 803.305 1184.76 L 802.626 1184.89 C 799 1179.27 794.806 1181.36 790.043 1177.31 z"/>
<path transform="translate(0,0)" fill="rgb(254,254,254)" d="M 606.187 1140.5 C 615.002 1142.36 623.319 1151.9 624.348 1160.94 C 625.288 1169.19 623.941 1168.75 630.228 1174.66 C 630.427 1195.93 620.491 1229.93 595.17 1231.37 C 573.022 1224.43 560.886 1204.38 573.977 1183.73 C 583.622 1168.52 595.065 1154.55 606.187 1140.5 z"/>
<path transform="translate(0,0)" fill="rgb(254,254,254)" d="M 408.924 1040.02 C 414.734 1043.81 419.372 1059.73 420.61 1066.37 C 423.2 1080.25 414.471 1091.17 401.733 1095.82 C 387.993 1100.84 371.744 1103.11 357.236 1104.77 C 348.023 1103.39 341.963 1083.49 346.426 1075.16 C 356.438 1056.45 389.542 1047.54 408.924 1040.02 z"/>
<path transform="translate(0,0)" fill="rgb(254,254,254)" d="M 656.28 1057.7 C 672.717 1091.18 671.595 1120.82 653 1152.63 C 646.218 1153.19 630.216 1158.12 627.681 1157.71 L 626.15 1155.22 C 620.665 1146.49 616.26 1143.24 607.891 1138.14 C 629.719 1109.97 640.047 1088.97 656.28 1057.7 z"/>
<path transform="translate(0,0)" fill="rgb(117,207,181)" d="M 588.345 1456.83 C 589.459 1458.03 591.574 1462.11 593.21 1464.13 C 610.781 1485.79 662.372 1495.52 688.561 1497.77 C 718.808 1500.37 760.129 1502.06 784.739 1481.78 C 784.329 1487.34 784.306 1490.02 782.79 1495.45 C 781.14 1497.29 778.427 1500.3 776.281 1501.45 C 745.637 1517.98 691.291 1514.84 658.772 1507.87 C 639.425 1503.72 600.562 1491.83 589.717 1474.2 C 585.823 1467.87 586.747 1463.5 588.345 1456.83 z"/>
<path transform="translate(0,0)" fill="rgb(254,254,254)" d="M 425.765 875.46 C 428.806 875.084 429.857 875.258 432.885 875.459 C 434.52 877.766 434.04 878.121 433.734 880.958 C 429.464 920.544 399.108 918.365 365.298 912.242 C 360.078 910.513 357.214 909.238 352.288 906.964 C 361.604 870.735 395.663 876.041 425.765 875.46 z"/>
<path transform="translate(0,0)" fill="rgb(254,254,254)" d="M 632.343 1175.84 C 642.555 1180.98 650.24 1183.46 661.147 1186.96 C 666.84 1198.5 667.967 1205.44 668.084 1217.99 C 652.781 1229.82 642.138 1236.08 623.254 1239.92 C 607.497 1242.03 598.922 1238.71 585.805 1231.35 C 610.148 1236.67 617.771 1225.25 627.325 1204.09 C 631.584 1194.66 632.262 1186.09 632.343 1175.84 z"/>
<path transform="translate(0,0)" fill="rgb(218,225,252)" d="M 796.94 262.752 C 805.466 252.994 824.813 214.578 835.851 243.391 C 851.541 236.236 880.284 234.435 895.783 241.313 C 956.948 268.46 974.994 339.132 950.215 397.718 C 926.219 459.113 875.192 497.072 815.627 521.653 C 752.61 547.659 667.469 567.093 601.049 543.599 C 547.89 524.796 524.954 472.304 546.536 420.615 C 560.175 387.947 583.052 365.315 616.189 351.982 C 642.991 341.181 671.203 334.974 696.836 321.257 C 719.364 309.201 740.052 294.116 761.672 280.584 C 770.952 274.775 786.26 262.96 796.94 262.752 z"/>
<path transform="translate(0,0)" fill="rgb(5,2,2)" d="M 796.94 262.752 C 805.466 252.994 824.813 214.578 835.851 243.391 C 831.138 251.277 825.521 258.347 820.111 265.756 C 800.778 292.235 780.749 318.294 761.535 344.851 C 764.41 347.425 766.265 348.483 767.14 352.194 C 766.601 357.459 762.022 361.895 758.488 366.574 C 771.855 385.165 778.679 403.543 774.939 426.844 C 771.789 446.827 760.83 464.74 744.473 476.644 C 727.841 488.535 707.125 493.236 686.989 489.688 C 666.995 486.203 649.229 474.857 637.656 458.184 C 626.286 441.73 621.947 421.422 625.598 401.757 C 634.476 353.467 678.644 331.296 724.483 343.22 C 727.645 338.573 731.253 331.857 736.095 329.724 C 740.213 329.4 741.693 330.761 745.151 333.19 L 778.763 288.094 C 784.129 280.845 792.413 270.253 796.94 262.752 z"/>
<path transform="translate(0,0)" fill="rgb(83,119,237)" d="M 692.742 355.472 C 725.677 351.418 755.666 374.822 759.736 407.755 C 763.807 440.688 740.42 470.689 707.489 474.777 C 674.534 478.869 644.505 455.46 640.431 422.502 C 636.357 389.544 659.782 359.528 692.742 355.472 z"/>
<path transform="translate(0,0)" fill="rgb(23,19,28)" d="M 695.121 369.246 C 712.79 367.598 739.175 379.231 742.13 397.892 C 739.54 396.7 739.02 394.83 737.593 392.193 L 736.966 391.017 C 714.903 360.025 689.488 376.422 684.144 372.141 C 687.749 370.371 691.17 369.994 695.121 369.246 z"/>
<path transform="translate(0,0)" fill="rgb(23,19,28)" d="M 673.89 375.797 L 674.931 376.187 L 675.126 377.293 C 671.54 380.117 668.587 382.097 664.808 384.608 L 663.573 383.434 C 666.168 380.019 670.139 378.094 673.89 375.797 z"/>
<path transform="translate(0,0)" fill="rgb(31,12,12)" d="M 1181.95 513.525 C 1162.5 515.15 1142.93 512.107 1124.89 504.647 C 1095.58 492.254 1072.44 468.656 1060.62 439.106 C 1048.97 409.558 1049.53 376.596 1062.16 347.459 C 1075.03 318.409 1098.93 295.668 1128.58 284.245 C 1158.19 272.939 1191.1 273.893 1220.01 286.897 C 1254.92 302.769 1272.73 328.009 1285.73 362.726 L 1287.37 365.597 C 1286.81 368.705 1289.9 393.173 1290.86 395.334 C 1289.39 398.255 1288.25 411.186 1287.68 415.427 C 1284.11 442.083 1272.29 459.483 1255.12 479.569 L 1251.75 482.416 C 1229.26 501.383 1211.34 509.775 1181.95 513.525 z"/>
<path transform="translate(0,0)" fill="rgb(239,115,116)" d="M 1142.34 343.899 C 1161.28 347.233 1180.66 347.215 1199.6 343.846 C 1201.28 358.911 1203.86 385.944 1202.61 400.817 L 1139.2 400.87 C 1139.09 379.969 1140.22 364.757 1142.34 343.899 z"/>
<path transform="translate(0,0)" fill="rgb(239,115,116)" d="M 1242.12 329.92 C 1243.18 330.021 1243.53 329.849 1244.04 330.667 C 1256.09 350.087 1259.18 380.1 1259.12 400.859 L 1220.5 400.864 L 1205.1 400.854 C 1205.27 381.72 1204.12 362.598 1201.69 343.62 C 1217.57 340.501 1227.69 336.792 1242.12 329.92 z"/>
<path transform="translate(0,0)" fill="rgb(239,115,116)" d="M 1098.24 329.336 C 1114.9 336.813 1122.43 339.713 1140.26 343.669 C 1137.88 364.867 1136.97 379.398 1136.98 400.774 L 1124.14 400.864 L 1082.99 400.871 C 1082.56 373.468 1086.26 354.102 1098.24 329.336 z"/>
<path transform="translate(0,0)" fill="rgb(239,115,116)" d="M 1139.13 403.049 L 1202.72 403.039 C 1202.25 419.554 1201.16 432.468 1199.22 448.774 C 1197.27 448.872 1184.26 447.604 1181.53 447.416 C 1167.07 446.42 1157.18 447.011 1143.04 449.359 C 1140.54 435.738 1139.84 416.902 1139.13 403.049 z"/>
<path transform="translate(0,0)" fill="rgb(239,115,116)" d="M 1083.04 403.056 L 1136.89 403.046 C 1137.4 418.574 1138.64 434.069 1140.6 449.48 L 1130.79 451.758 C 1118.72 454.832 1110.75 458.169 1099.5 463.422 C 1089.01 443.947 1084.61 424.893 1083.04 403.056 z"/>
<path transform="translate(0,0)" fill="rgb(239,115,116)" d="M 1204.99 403.079 L 1259.19 403.074 C 1257.08 423.768 1255.27 433.468 1247.65 452.881 L 1242.52 463.482 C 1227.07 455.879 1218.02 453.39 1201.62 449.402 C 1203.32 434.008 1204.44 418.556 1204.99 403.079 z"/>
<path transform="translate(0,0)" fill="rgb(239,115,116)" d="M 1167.53 278.999 C 1189.95 277.521 1196.28 325.036 1199.35 341.575 C 1190.95 343.257 1183.14 343.748 1174.61 344.091 C 1162.89 344.211 1154.18 343.607 1142.64 341.622 C 1145.95 321.812 1150.77 291.591 1167.53 278.999 z"/>
<path transform="translate(0,0)" fill="rgb(239,115,116)" d="M 1161.32 449.417 C 1172.69 448.181 1187.42 449.821 1198.68 451.438 C 1196.39 469.83 1190.82 493.428 1178.92 507.96 C 1155.49 525.614 1145.33 464.148 1143.35 451.425 C 1149.21 450.385 1155.38 449.965 1161.32 449.417 z"/>
<path transform="translate(0,0)" fill="rgb(239,115,116)" d="M 1082.45 319.638 C 1085.33 320.567 1093.22 326.066 1096.23 328.033 C 1083.52 355.237 1081.12 371.385 1080.53 400.779 L 1071.25 400.875 L 1054.66 400.842 C 1054.44 369.019 1061.61 344.426 1082.45 319.638 z"/>
<path transform="translate(0,0)" fill="rgb(239,115,116)" d="M 1258.41 319.755 C 1263.45 320.638 1272.36 337.362 1274.7 341.998 C 1284.1 360.616 1287.68 380.099 1287.55 400.807 L 1271.12 400.852 L 1270.83 388.152 C 1270.64 387.545 1269.79 385.526 1269.53 384.875 C 1266.62 386.646 1272.02 397.995 1265.04 401.627 C 1260.1 399.626 1261.41 398.074 1261.28 391.118 C 1260.84 367.349 1255.56 349.361 1245.74 328.001 C 1250.02 325.375 1254.22 322.53 1258.41 319.755 z"/>
<path transform="translate(0,0)" fill="rgb(31,12,12)" d="M 1275.23 362.788 L 1276.53 363.859 C 1280.12 371.475 1280.35 386.556 1279.54 394.858 C 1279.05 394.394 1278.55 393.929 1278.06 393.465 C 1277.79 384.746 1276.07 370.834 1275.23 362.788 z"/>
<path transform="translate(0,0)" fill="rgb(239,115,116)" d="M 1179.36 279.12 C 1182.5 279.671 1185.62 280.34 1188.72 281.125 C 1213.42 287.448 1230.06 305.859 1242.52 327.019 L 1234.53 331.013 C 1223.06 336.176 1213.58 338.593 1201.49 341.553 C 1197.78 318.422 1194.23 297.639 1179.36 279.12 z"/>
<path transform="translate(0,0)" fill="rgb(239,115,116)" d="M 1161.78 279.43 C 1161.62 280.65 1161.8 280.238 1160.85 281.435 C 1147.32 298.48 1144.35 320.262 1140.33 341.47 C 1129.27 338.953 1122.23 336.759 1111.6 332.849 L 1099.37 327.303 C 1101.86 322.815 1104.62 318.478 1107.62 314.316 C 1121.43 295.285 1138.52 283.331 1161.78 279.43 z"/>
<path transform="translate(0,0)" fill="rgb(239,115,116)" d="M 1200.98 451.689 C 1216.8 455.117 1226.84 458.507 1241.29 465.448 C 1232.34 480.993 1223.64 489.982 1209.23 500.172 C 1198.68 506.708 1191.08 509.028 1179.13 511.258 C 1193.6 494.958 1197.35 472.559 1200.98 451.689 z"/>
<path transform="translate(0,0)" fill="rgb(239,115,116)" d="M 1138.57 452.168 L 1140.1 452.241 C 1143.85 456.998 1144.29 490.627 1163.22 511.52 C 1151.49 509.189 1146.76 507.551 1136.09 502.182 C 1119.04 491.447 1111.48 482.75 1100.78 465.591 C 1112.97 458.893 1125.18 455.437 1138.57 452.168 z"/>
<path transform="translate(0,0)" fill="rgb(239,115,116)" d="M 1054.79 403.063 L 1080.8 403.037 C 1081.7 427.037 1087.77 442.044 1096.66 463.517 C 1095.89 466.296 1094.72 466.159 1091.5 468.258 L 1084.36 473.048 C 1066.14 451.683 1057.23 431.036 1054.79 403.063 z"/>
<path transform="translate(0,0)" fill="rgb(239,115,116)" d="M 1261.25 402.659 L 1266.24 403.177 C 1268.77 405.749 1268.04 406.738 1268.04 410.514 L 1269.47 410.725 C 1270.31 408.091 1270.7 406.312 1271.3 403.638 C 1274.88 402.52 1283.01 403.019 1287.21 403.054 C 1285.79 424.749 1279.11 442.379 1267.46 460.483 C 1264.37 464.871 1261.12 468.853 1257.78 473.037 C 1253.36 470.029 1248.93 467.331 1244.38 464.526 C 1255.45 444.535 1259.5 425.106 1261.25 402.659 z"/>
<path transform="translate(0,0)" fill="rgb(31,12,12)" d="M 1277.18 413.65 C 1280.66 418.173 1273.98 434.236 1271.87 439.357 C 1271.81 439.292 1271.72 439.243 1271.67 439.163 C 1269.79 436.133 1276.17 417.962 1277.18 413.65 z"/>
<path transform="translate(0,0)" fill="rgb(239,115,116)" d="M 1136.09 284.104 L 1137.19 284.397 C 1135.9 285.493 1136.28 285.28 1135.01 286.019 C 1117.04 296.519 1108.97 309.025 1097.32 325.479 L 1092.34 322.938 L 1084.32 317.214 C 1100.52 300.316 1114.13 291.541 1136.09 284.104 z"/>
<path transform="translate(0,0)" fill="rgb(239,115,116)" d="M 1203.56 283.809 C 1215.72 286.299 1254.81 305.913 1256.24 317.853 L 1253.67 320.363 L 1244.67 326.015 C 1232.45 305.205 1223.54 296.557 1203.56 283.809 z"/>
<path transform="translate(0,0)" fill="rgb(239,115,116)" d="M 1098.05 466.912 C 1099.74 468.084 1112.7 486.395 1117.14 490.8 C 1124.76 498.362 1127.82 499.123 1135.98 505.238 L 1135.34 505.806 L 1130.74 504.441 C 1112.53 498.197 1099.59 487.868 1085.83 474.936 C 1089.47 472.12 1094.1 469.395 1098.05 466.912 z"/>
<path transform="translate(0,0)" fill="rgb(239,115,116)" d="M 1243.32 466.513 C 1247.57 469.084 1251.85 471.984 1256.02 474.715 C 1242.58 488.724 1231.27 496.016 1213.61 503.634 C 1210.03 504.912 1206.04 506.028 1202.38 507.132 C 1222.03 495.483 1231.43 485.87 1243.32 466.513 z"/>
<path transform="translate(0,0)" fill="rgb(218,225,252)" d="M 318.959 1521.19 C 306.419 1517.56 240.84 1523.36 235.592 1519.35 C 240.962 1516.26 303.275 1517.18 314.179 1517.14 L 339.389 1517.35 C 412.93 1516.7 487.501 1517.9 560.858 1516.72 L 556.637 1519.82 C 543.627 1528.78 535.002 1533.24 527.821 1547.92 C 529.071 1555.27 531.515 1567.56 531.742 1574.57 L 532.085 1577.25 L 532.542 1579.2 C 538.141 1603.98 531.188 1617.46 550.703 1634.68 C 535.708 1635.85 504.233 1638.78 489.858 1641.9 L 488.116 1641.79 C 462.88 1627.38 409.227 1596.57 388.929 1577.64 C 367.533 1576.23 342.387 1577.9 320.59 1577.14 C 312.126 1576.85 301.075 1577.62 292.918 1576.32 C 299.979 1573.05 367.944 1574.18 380.275 1574.18 C 357.573 1554.81 340.74 1545.21 318.959 1521.19 z"/>
<path transform="translate(0,0)" fill="rgb(218,225,252)" d="M 532.085 1577.25 L 532.542 1579.2 C 538.141 1603.98 531.188 1617.46 550.703 1634.68 C 535.708 1635.85 504.233 1638.78 489.858 1641.9 L 488.116 1641.79 C 462.88 1627.38 409.227 1596.57 388.929 1577.64 C 404.352 1576.7 424.86 1577.23 440.541 1577.23 L 532.085 1577.25 z"/>
<path transform="translate(0,0)" fill="rgb(18,28,79)" d="M 318.959 1521.19 C 306.419 1517.56 240.84 1523.36 235.592 1519.35 C 240.962 1516.26 303.275 1517.18 314.179 1517.14 L 339.389 1517.35 C 412.93 1516.7 487.501 1517.9 560.858 1516.72 L 556.637 1519.82 L 385.221 1520.06 C 375.923 1520.07 324.09 1519.63 318.959 1521.19 z"/>
<path transform="translate(0,0)" fill="rgb(18,28,79)" d="M 380.275 1574.18 C 394.147 1575.3 417.345 1574.59 431.71 1574.58 L 531.742 1574.57 L 532.085 1577.25 L 440.541 1577.23 C 424.86 1577.23 404.352 1576.7 388.929 1577.64 C 367.533 1576.23 342.387 1577.9 320.59 1577.14 C 312.126 1576.85 301.075 1577.62 292.918 1576.32 C 299.979 1573.05 367.944 1574.18 380.275 1574.18 z"/>
<path transform="translate(0,0)" fill="rgb(18,28,79)" fill-opacity="0.980392" d="M 1285.73 362.726 C 1301.95 338.588 1322.66 321.748 1349.97 311.32 C 1385.64 297.496 1425.65 300.52 1458.84 319.551 C 1465.31 323.343 1484.45 337.857 1489.25 339.303 C 1491.27 343.531 1497.33 348.557 1500.97 352.01 L 1498.93 354.181 C 1493.28 348.646 1489.7 345.361 1483.51 340.492 C 1454.17 316.562 1421.72 302.529 1383.34 306.708 C 1343.82 311.012 1308.81 331.943 1287.37 365.597 L 1285.73 362.726 z"/>
<path transform="translate(0,0)" fill="rgb(5,2,2)" fill-opacity="0.878431" d="M 1881.94 855.599 L 1883.37 857.489 C 1882.15 872.803 1876.52 902.515 1873.29 918.117 C 1854.93 1006.73 1825.35 1091.3 1777.58 1168.38 L 1776.21 1166.56 C 1823.31 1089.57 1851.34 1010.09 1870.46 921.769 C 1875.32 899.304 1877.95 877.949 1881.94 855.599 z"/>
<path transform="translate(0,0)" fill="rgb(23,19,28)" fill-opacity="0.976471" d="M 1668.82 1575.41 C 1679.01 1574.44 1830.15 1574.43 1833.54 1575.48 L 1834.77 1577.9 C 1801.33 1579.18 1763.78 1577.35 1729.91 1578.07 C 1720.6 1578.26 1677.23 1578.62 1670.07 1577.69 L 1668.82 1575.41 z"/>
<path transform="translate(0,0)" fill="rgb(5,2,2)" fill-opacity="0.890196" d="M 1065.77 1048.54 C 1066.5 1061.63 1068.92 1074.57 1072.94 1087.04 C 1074.72 1092.37 1080.21 1103.36 1080.57 1107.54 C 1055.1 1073.26 1063.54 1006.64 1074.46 968.404 C 1078.78 953.27 1081.75 936.251 1079.83 920.563 C 1079.47 917.66 1079.18 916.546 1079.27 913.561 L 1080.49 913.964 C 1088.21 930.129 1073.54 980.339 1069.92 997.45 C 1067.69 1008 1066.69 1017.67 1065.86 1028.62 C 1064.87 1034.64 1064.54 1042.51 1065.77 1048.54 z"/>
<path transform="translate(0,0)" fill="rgb(5,2,2)" fill-opacity="0.776471" d="M 1048.11 883.481 L 1049.69 885.138 C 1049.76 886.83 1049.88 888.327 1049.63 890.007 C 1043.31 932.103 1026.59 958.384 995.006 984.664 L 994.418 984.175 C 994.656 981.239 1003.92 974.56 1006.63 971.971 C 1032.52 947.191 1043.4 918.193 1048.11 883.481 z"/>
<path transform="translate(0,0)" fill="rgb(5,2,2)" fill-opacity="0.862745" d="M 1081.61 1138.57 C 1101.24 1116.49 1101.81 1098.71 1103.47 1070.02 C 1103.6 1067.8 1103.75 1060.03 1104.55 1058.46 C 1106.18 1060.12 1105.7 1063.81 1105.63 1066.75 C 1104.96 1093.76 1102.95 1119.36 1083.31 1139.52 L 1081.61 1138.57 z"/>
<path transform="translate(0,0)" fill="rgb(5,2,2)" fill-opacity="0.85098" d="M 1589.26 1225.83 L 1590.38 1226.08 L 1590.36 1227.29 C 1573.75 1236.02 1546.29 1247.46 1528.52 1255.47 L 1528.21 1255.49 L 1527.5 1254.62 C 1530.11 1251.75 1581.49 1229.36 1589.26 1225.83 z"/>
<path transform="translate(0,0)" fill="rgb(5,2,2)" fill-opacity="0.843137" d="M 778.981 905.936 C 787.58 898.187 818.698 887.788 830.871 881.575 L 832.5 883.592 C 821.2 888.082 811.095 892.233 800.075 897.347 C 794.146 900.097 785.046 905.024 779.539 907.225 L 778.981 905.936 z"/>
<path transform="translate(0,0)" fill="rgb(5,2,2)" fill-opacity="0.788235" d="M 1091.33 1158.2 L 1092.28 1160.26 C 1088.08 1164.42 1072.04 1180.43 1066.19 1180.45 C 1068.95 1176.39 1083.24 1167.45 1090.42 1159.26 L 1091.33 1158.2 z"/>
<path transform="translate(0,0)" fill="rgb(5,2,2)" fill-opacity="0.705882" d="M 1081.61 1138.57 L 1083.31 1139.52 C 1076.64 1145.56 1067.8 1152.32 1059.25 1155.35 L 1058.73 1153.59 C 1068.05 1148.27 1073.23 1145.18 1081.61 1138.57 z"/>
<path transform="translate(0,0)" fill="rgb(5,2,2)" fill-opacity="0.87451" d="M 1477.52 1284.31 C 1487.04 1276.16 1492.06 1272 1503.08 1266.23 C 1501.24 1268.78 1483.5 1281.34 1479.16 1285.27 L 1477.52 1284.31 z"/>
<path transform="translate(0,0)" fill="rgb(5,2,2)" fill-opacity="0.443137" d="M 775.625 879.84 C 782.801 878.094 827.961 879.082 837.987 879.176 C 829.928 880.999 799.087 880.075 789.763 879.944 L 775.625 879.84 z"/>
<path transform="translate(0,0)" fill="rgb(5,2,2)" fill-opacity="0.752941" d="M 1477.52 1284.31 L 1479.16 1285.27 C 1474.87 1289.39 1465 1298.38 1461.56 1302.56 L 1459.8 1300.78 C 1465.65 1295.22 1471.56 1289.73 1477.52 1284.31 z"/>
<path transform="translate(0,0)" fill="rgb(5,2,2)" fill-opacity="0.854902" d="M 1453.27 1291.76 L 1454.44 1292.54 C 1452.18 1297.14 1439.93 1305.73 1435.54 1308.95 L 1434.39 1308.75 C 1435.07 1306.99 1450.02 1294.96 1453.27 1291.76 z"/>
<path transform="translate(0,0)" fill="rgb(5,2,2)" fill-opacity="0.898039" d="M 775.625 879.84 L 789.763 879.944 L 791.509 881.433 C 783.461 881.931 773.836 882.366 765.773 882.016 L 765.743 881.054 C 768.617 879.981 772.486 880.014 775.625 879.84 z"/>
<path transform="translate(0,0)" fill="rgb(5,2,2)" fill-opacity="0.854902" d="M 1755.26 1202.57 C 1758.32 1197.67 1761.31 1192.08 1765.5 1188.28 L 1765.51 1189.49 L 1764.51 1189.36 L 1764.02 1189.98 L 1764.59 1191.58 C 1762.17 1195.95 1760.11 1199.32 1757.43 1203.51 L 1755.26 1202.57 z"/>
<path transform="translate(0,0)" fill="rgb(5,2,2)" fill-opacity="0.85098" d="M 1095.44 1153.59 C 1097.81 1149.98 1100.55 1145.03 1103.94 1142.65 L 1103.06 1143.43 C 1103.38 1146.91 1099.29 1151.62 1097.23 1154.39 L 1095.44 1153.59 z"/>
<path transform="translate(0,0)" fill="rgb(5,2,2)" fill-opacity="0.709804" d="M 1757.43 1203.51 C 1755.4 1206.28 1753.24 1209.94 1750.08 1210.58 C 1750.38 1207.48 1753.09 1205.12 1755.26 1202.57 L 1757.43 1203.51 z"/>
<path transform="translate(0,0)" fill="rgb(5,2,2)" fill-opacity="0.937255" d="M 789.016 1293.13 C 795.223 1292.53 798.465 1294.83 802.404 1299.14 C 798.438 1298.7 792.684 1295.13 789.016 1293.13 z"/>
<path transform="translate(0,0)" fill="rgb(5,2,2)" fill-opacity="0.627451" d="M 1095.44 1153.59 L 1097.23 1154.39 L 1092.28 1160.26 L 1091.33 1158.2 C 1092.1 1157.07 1094.4 1154.72 1095.44 1153.59 z"/>
<path transform="translate(0,0)" fill="rgb(5,2,2)" fill-opacity="0.568627" d="M 1065.77 1048.54 C 1064.54 1042.51 1064.87 1034.64 1065.86 1028.62 C 1065.89 1034.9 1066.11 1042.37 1065.77 1048.54 z"/>
</svg>