<svg version="1.1" xmlns="http://www.w3.org/2000/svg" style="display: block;" viewBox="0 0 2048 1638" width="2000" height="1600" preserveAspectRatio="none">
<path transform="translate(0,0)" fill="rgb(245,237,243)" d="M 342.879 467.938 C 346.391 461.165 350.529 454.735 355.24 448.732 C 394.372 398.234 446.991 375.893 509.646 368.513 C 595.104 358.944 717.251 341.573 781.921 414.644 C 822.799 463.03 837.384 508.06 907.725 521.568 C 993.554 538.051 1043.76 465.275 1111.1 426.453 C 1171.01 391.915 1220.82 367.71 1290.66 359.572 C 1371.61 350.139 1450.1 365.369 1515.15 416.109 C 1523.7 422.793 1556.81 451.031 1557.97 460.6 L 1558.99 461.741 C 1577.17 462.792 1595.99 461.258 1613.88 462.269 C 1637.99 463.631 1661.94 482.184 1664 507.137 C 1666.17 533.38 1665.03 562.001 1664.92 588.539 L 1664.46 750.329 C 1664.41 759.431 1663.12 796.138 1664.54 801.833 C 1663.01 815.616 1663.54 847.977 1663.68 862.684 C 1663.88 885.214 1662.68 913.34 1663.98 935.219 C 1663.96 942.86 1663.12 976.536 1664.92 982.208 L 1665.03 982.66 C 1663.62 986.636 1663.59 990.719 1664.27 994.884 C 1662.02 998.647 1662.94 1092.16 1664.05 1093.41 C 1661.32 1099.99 1664.01 1114.1 1662.69 1121.93 C 1660.71 1133.74 1655.95 1141.59 1648.82 1150.84 L 1649.45 1152.75 C 1646.39 1180.22 1595.19 1207.25 1571.75 1217.93 C 1462.97 1267.48 1346.42 1276.35 1228.79 1276.11 C 1161.27 1275.39 1093.8 1272.29 1026.5 1266.82 C 997.028 1264.39 941.082 1257.25 918.906 1233.83 C 910.066 1224.06 917.752 1213.39 918.393 1203.89 C 919.591 1186.12 883.108 1184.87 871.753 1183.8 C 833.77 1180.24 794.458 1177.93 756.841 1185.33 C 732.658 1190.09 708.891 1198.79 685.14 1205.35 C 657.607 1212.87 629.125 1216.34 600.591 1215.66 C 545.254 1214.57 491.913 1200.74 441.681 1177.87 C 421.148 1168.52 396.009 1158.62 396.915 1132.14 C 396.533 1130.26 394.435 1126.57 393.519 1124.63 C 388.764 1114.55 387.531 1110.79 386.853 1099.98 C 385.665 1090.58 380.527 1095.24 384.824 1082.3 C 383.609 1077.27 383.569 1050.72 384.601 1045.53 L 387.192 1044.16 C 388.875 1030.48 389.288 984.271 388.94 969.733 L 389.11 968.078 C 389.986 960.667 390.007 951.954 390.003 944.446 C 389.99 919.866 391.496 894.87 390.956 870.318 C 389.093 867.961 383.062 850 381.465 845.945 C 373.168 817.125 344.309 778.21 325.757 754.799 C 318.535 745.685 309 737.905 301.834 728.781 C 301.692 728.551 301.549 728.32 301.407 728.09 C 301.187 727.697 300.967 727.303 300.748 726.91 C 300.094 725.901 298.972 723.642 298.697 722.583 C 288.752 684.365 292.538 578.05 308.843 544.984 C 289.375 544.102 183.115 547.481 173.539 543.035 C 170.864 541.793 169.078 538.521 168.324 535.811 C 165.836 526.859 166.529 479.843 170.399 472.548 C 176.749 466.486 209.099 468.266 219.069 468.253 L 297.624 468.24 C 309.923 468.285 329.968 469.062 341.714 468.045 L 342.879 467.938 z M 308.843 544.984 C 319.359 544.714 328.255 544.617 338.755 545.025 C 350.311 551.642 355.51 557.753 359.216 570.487 C 360.731 541.732 359.872 509.405 359.453 480.418 C 359.306 470.265 351.443 468.453 342.879 467.938 L 341.714 468.045 C 329.968 469.062 309.923 468.285 297.624 468.24 L 219.069 468.253 C 209.099 468.266 176.749 466.486 170.399 472.548 C 166.529 479.843 165.836 526.859 168.324 535.811 C 169.078 538.521 170.864 541.793 173.539 543.035 C 183.115 547.481 289.375 544.102 308.843 544.984 z"/>
<path transform="translate(0,0)" fill="rgb(203,219,233)" d="M 390.956 870.318 C 393.699 782.144 394.228 691.714 395.835 603.363 L 396.904 535.333 C 397.101 521.148 396.856 505.217 398.819 491.363 C 401.11 475.197 414.463 458.903 429.3 452.576 C 437.629 449.024 448.315 447.742 457.367 447.881 C 521.973 449.226 586.707 450.213 651.302 451.448 L 709.974 452.426 C 732.564 452.798 755.575 450.718 772.8 468.657 C 789.847 486.41 788.331 504.791 788.067 527.643 C 803.768 531.513 810.374 536.395 818.85 550.252 C 834.983 576.628 829.439 604.51 807.282 625.175 C 805.514 637.791 804.866 643.671 799.954 655.752 C 796.943 663.158 785.815 675.965 785.349 679.655 C 784.741 700.531 784.761 721.372 784.022 742.239 C 794.929 747.066 806 752.198 817.28 755.993 L 846.533 857.553 C 857.199 893.386 882.084 969.086 882.122 1002.57 C 1009.42 997.245 1145.1 988.148 1272.02 988.532 C 1271.96 981.85 1271.66 975.102 1272.83 968.538 C 1272.94 983.882 1272.95 999.227 1272.86 1014.57 C 1278.08 1013.49 1281.51 1012.09 1286.11 1009.57 C 1290.68 1012.81 1297.17 1033.56 1299.15 1039.96 L 1289.09 1042.44 C 1279.04 1043.49 1279.09 1047.37 1272.66 1048.63 C 1272.7 1061.12 1272.68 1073.61 1272.59 1086.1 C 1272.32 1110.1 1269.68 1132.34 1288.46 1150.92 C 1295.95 1158.21 1305.37 1163.2 1315.61 1165.3 C 1322.09 1166.6 1340.47 1166.37 1347.65 1166.39 L 1398.93 1166.62 C 1469.25 1167.1 1539.6 1166.88 1609.92 1167.06 C 1626.68 1167.11 1635.96 1160.72 1648.82 1150.84 L 1649.45 1152.75 C 1646.39 1180.22 1595.19 1207.25 1571.75 1217.93 C 1462.97 1267.48 1346.42 1276.35 1228.79 1276.11 C 1161.27 1275.39 1093.8 1272.29 1026.5 1266.82 C 997.028 1264.39 941.082 1257.25 918.906 1233.83 C 910.066 1224.06 917.752 1213.39 918.393 1203.89 C 919.591 1186.12 883.108 1184.87 871.753 1183.8 C 833.77 1180.24 794.458 1177.93 756.841 1185.33 C 732.658 1190.09 708.891 1198.79 685.14 1205.35 C 657.607 1212.87 629.125 1216.34 600.591 1215.66 C 545.254 1214.57 491.913 1200.74 441.681 1177.87 C 421.148 1168.52 396.009 1158.62 396.915 1132.14 C 396.533 1130.26 394.435 1126.57 393.519 1124.63 C 388.764 1114.55 387.531 1110.79 386.853 1099.98 C 385.665 1090.58 380.527 1095.24 384.824 1082.3 C 383.609 1077.27 383.569 1050.72 384.601 1045.53 L 387.192 1044.16 C 388.875 1030.48 389.288 984.271 388.94 969.733 L 389.11 968.078 C 389.986 960.667 390.007 951.954 390.003 944.446 C 389.99 919.866 391.496 894.87 390.956 870.318 z"/>
<path transform="translate(0,0)" fill="rgb(195,209,190)" d="M 1272.02 988.532 C 1271.96 981.85 1271.66 975.102 1272.83 968.538 C 1272.94 983.882 1272.95 999.227 1272.86 1014.57 C 1278.08 1013.49 1281.51 1012.09 1286.11 1009.57 C 1290.68 1012.81 1297.17 1033.56 1299.15 1039.96 L 1289.09 1042.44 C 1279.04 1043.49 1279.09 1047.37 1272.66 1048.63 C 1272.7 1061.12 1272.68 1073.61 1272.59 1086.1 C 1272.32 1110.1 1269.68 1132.34 1288.46 1150.92 C 1295.95 1158.21 1305.37 1163.2 1315.61 1165.3 C 1322.09 1166.6 1340.47 1166.37 1347.65 1166.39 L 1398.93 1166.62 C 1469.25 1167.1 1539.6 1166.88 1609.92 1167.06 C 1626.68 1167.11 1635.96 1160.72 1648.82 1150.84 L 1649.45 1152.75 C 1646.39 1180.22 1595.19 1207.25 1571.75 1217.93 C 1462.97 1267.48 1346.42 1276.35 1228.79 1276.11 C 1161.27 1275.39 1093.8 1272.29 1026.5 1266.82 C 997.028 1264.39 941.082 1257.25 918.906 1233.83 C 910.066 1224.06 917.752 1213.39 918.393 1203.89 C 919.591 1186.12 883.108 1184.87 871.753 1183.8 C 833.77 1180.24 794.458 1177.93 756.841 1185.33 C 732.658 1190.09 708.891 1198.79 685.14 1205.35 C 657.607 1212.87 629.125 1216.34 600.591 1215.66 C 545.254 1214.57 491.913 1200.74 441.681 1177.87 C 421.148 1168.52 396.009 1158.62 396.915 1132.14 C 401.027 1133.27 413.979 1148.25 424.116 1150.39 C 447.176 1155.27 471.164 1152.47 494.653 1153.82 C 520.596 1154.29 547.11 1155.12 572.492 1155.03 C 569.433 1149.39 568.107 1144.62 566.621 1138.47 L 563.435 1126.17 C 560.847 1118.32 559.713 1115.18 555.657 1108.07 L 549.953 1099.64 C 562.44 1092.01 575.046 1084.58 587.768 1077.36 C 598.597 1092.99 602.5 1097.62 618.034 1109.41 C 624.416 1108.4 635.839 1108.9 642.615 1108.88 C 668.269 1108.79 691.319 1112.57 716.585 1106.98 C 713.916 1098.95 713.436 1088.4 712.638 1079.82 C 714.801 1072.04 722.04 1060.81 725.463 1052.88 C 732.774 1035.92 741.376 1018.74 748.022 1001.61 C 752.058 1003.62 760.022 1007.22 763.045 1009.98 C 766.753 1011.11 776.406 1013.7 779.014 1015.69 C 804.481 1032.01 872.499 1044.34 882.122 1002.57 C 1009.42 997.245 1145.1 988.148 1272.02 988.532 z"/>
<path transform="translate(0,0)" fill="rgb(93,92,104)" d="M 748.022 1001.61 C 752.058 1003.62 760.022 1007.22 763.045 1009.98 C 766.753 1011.11 776.406 1013.7 779.014 1015.69 C 778.87 1036.27 778.573 1056.85 778.122 1077.42 C 777.673 1100.77 780.007 1124.73 761.692 1142.66 C 751.827 1152.32 736.561 1157.78 722.848 1157.73 C 696.922 1157.64 670.941 1156.94 645.016 1156.39 L 634.046 1156.15 C 635.255 1161.05 635.571 1165.68 636.062 1170.69 C 620.931 1191.31 594.342 1182.89 580.176 1166.31 C 577.247 1162.89 574.856 1158.86 572.492 1155.03 C 569.433 1149.39 568.107 1144.62 566.621 1138.47 L 563.435 1126.17 C 560.847 1118.32 559.713 1115.18 555.657 1108.07 L 549.953 1099.64 C 562.44 1092.01 575.046 1084.58 587.768 1077.36 C 598.597 1092.99 602.5 1097.62 618.034 1109.41 C 624.416 1108.4 635.839 1108.9 642.615 1108.88 C 668.269 1108.79 691.319 1112.57 716.585 1106.98 C 713.916 1098.95 713.436 1088.4 712.638 1079.82 C 714.801 1072.04 722.04 1060.81 725.463 1052.88 C 732.774 1035.92 741.376 1018.74 748.022 1001.61 z"/>
<path transform="translate(0,0)" fill="rgb(229,181,157)" d="M 587.768 1077.36 C 598.597 1092.99 602.5 1097.62 618.034 1109.41 C 622.91 1113.82 634.673 1126.54 637.756 1128.94 L 637.015 1132.96 C 630.659 1136.88 619.881 1127.81 614.165 1124.04 L 624.093 1139.69 C 627.751 1145.37 630.76 1150.25 634.046 1156.15 C 635.255 1161.05 635.571 1165.68 636.062 1170.69 C 620.931 1191.31 594.342 1182.89 580.176 1166.31 C 577.247 1162.89 574.856 1158.86 572.492 1155.03 C 569.433 1149.39 568.107 1144.62 566.621 1138.47 L 563.435 1126.17 C 560.847 1118.32 559.713 1115.18 555.657 1108.07 L 549.953 1099.64 C 562.44 1092.01 575.046 1084.58 587.768 1077.36 z"/>
<path transform="translate(0,0)" fill="rgb(200,216,233)" d="M 748.022 1001.61 C 752.058 1003.62 760.022 1007.22 763.045 1009.98 C 761.606 1052.29 765.487 1089.73 716.585 1106.98 C 713.916 1098.95 713.436 1088.4 712.638 1079.82 C 714.801 1072.04 722.04 1060.81 725.463 1052.88 C 732.774 1035.92 741.376 1018.74 748.022 1001.61 z"/>
<path transform="translate(0,0)" fill="rgb(70,61,59)" d="M 614.165 1124.04 C 619.881 1127.81 630.659 1136.88 637.015 1132.96 L 637.756 1128.94 C 643.345 1125.9 649.306 1127.59 653.502 1132.02 L 654.302 1134.55 C 649.141 1142.39 632.569 1139.97 624.093 1139.69 L 614.165 1124.04 z"/>
<path transform="translate(0,0)" fill="rgb(120,88,75)" d="M 1286.11 1009.57 C 1290.68 1012.81 1297.17 1033.56 1299.15 1039.96 L 1289.09 1042.44 C 1279.04 1043.49 1279.09 1047.37 1272.66 1048.63 C 1254.9 1057.11 1242.93 1065.4 1222.45 1058.53 C 1216.21 1056.44 1206.65 1050.89 1203.76 1044.65 C 1202.41 1041.76 1203.15 1040.62 1204.03 1038.14 C 1209.3 1033 1233.19 1031.29 1247.13 1025.03 C 1240.74 1026.02 1222.77 1030.56 1219.13 1024.29 L 1220.42 1021.37 C 1231.65 1013.15 1259.64 1015 1272.86 1014.57 C 1278.08 1013.49 1281.51 1012.09 1286.11 1009.57 z"/>
<path transform="translate(0,0)" fill="rgb(80,100,139)" d="M 619.881 719.471 C 641.865 717.533 660.441 714.796 681.35 707.543 C 692.497 730.043 711.529 742.133 736.832 739.855 C 747.717 738.282 755.097 734.905 764.168 729.036 L 767.75 732.194 C 771.188 735.034 779.765 739.909 784.022 742.239 C 794.929 747.066 806 752.198 817.28 755.993 L 846.533 857.553 C 857.199 893.386 882.084 969.086 882.122 1002.57 C 872.499 1044.34 804.481 1032.01 779.014 1015.69 C 776.406 1013.7 766.753 1011.11 763.045 1009.98 C 760.022 1007.22 752.058 1003.62 748.022 1001.61 C 741.376 1018.74 732.774 1035.92 725.463 1052.88 C 722.04 1060.81 714.801 1072.04 712.638 1079.82 C 713.436 1088.4 713.916 1098.95 716.585 1106.98 C 691.319 1112.57 668.269 1108.79 642.615 1108.88 C 635.839 1108.9 624.416 1108.4 618.034 1109.41 C 602.5 1097.62 598.597 1092.99 587.768 1077.36 C 587.604 1075.4 578.735 1056.13 577.405 1052.94 C 570.239 1039.65 553.282 991.62 549.963 977.729 C 556.174 951.782 564.598 925.115 570.632 899.027 C 572.41 891.339 577.669 873.876 577.863 867.02 C 585.31 857.481 593.797 848.053 600.667 838.158 C 615.539 816.736 620.962 788.549 624.077 763.004 C 625.712 749.603 628.468 730.381 619.881 719.471 z"/>
<path transform="translate(0,0)" fill="rgb(111,101,136)" d="M 577.405 1052.94 C 616.196 1061.72 656.345 1076.14 696.066 1081.93 C 701.341 1082.7 707.862 1082.34 712.638 1079.82 C 713.436 1088.4 713.916 1098.95 716.585 1106.98 C 691.319 1112.57 668.269 1108.79 642.615 1108.88 C 635.839 1108.9 624.416 1108.4 618.034 1109.41 C 602.5 1097.62 598.597 1092.99 587.768 1077.36 C 587.604 1075.4 578.735 1056.13 577.405 1052.94 z"/>
<path transform="translate(0,0)" fill="rgb(229,181,157)" d="M 653.917 888.088 C 672.505 886.012 687.971 903.599 701.202 915.179 C 698.238 908.739 691.365 898.271 693.98 891.348 L 695.962 890.917 C 709.291 897.048 721.162 925.608 736.765 939.497 L 730.425 951.39 L 715.276 979.493 C 695.128 960.538 669.883 961.626 652.013 940.289 C 639.605 925.473 638.175 900.976 653.917 888.088 z"/>
<path transform="translate(0,0)" fill="rgb(93,92,104)" d="M 780.466 950.132 C 779.437 951.306 779.643 950.826 777.524 951.322 C 773.641 950.198 770.814 949.75 767.672 947.247 C 766.418 943.276 774.749 919.928 778.575 917.44 C 781.052 918.702 780.011 917.739 781.149 921.044 C 785.38 928.371 793.61 945.442 786.082 952.757 C 783.589 952.548 782.126 952.586 780.466 950.132 z"/>
<path transform="translate(0,0)" fill="rgb(245,237,243)" d="M 781.149 921.044 C 785.38 928.371 793.61 945.442 786.082 952.757 C 783.589 952.548 782.126 952.586 780.466 950.132 C 780.936 940.555 780.979 930.653 781.149 921.044 z"/>
<path transform="translate(0,0)" fill="rgb(93,92,104)" d="M 390.956 870.318 C 393.699 782.144 394.228 691.714 395.835 603.363 L 396.904 535.333 C 397.101 521.148 396.856 505.217 398.819 491.363 C 401.11 475.197 414.463 458.903 429.3 452.576 C 437.629 449.024 448.315 447.742 457.367 447.881 C 521.973 449.226 586.707 450.213 651.302 451.448 L 709.974 452.426 C 732.564 452.798 755.575 450.718 772.8 468.657 C 789.847 486.41 788.331 504.791 788.067 527.643 L 786.769 525.129 C 780.161 520.085 772.756 524.09 764.895 522.511 C 762.891 512.126 751.782 500.896 743.12 495.118 C 733.999 489.024 723.59 485.124 712.709 483.724 C 702.989 482.388 683.884 482.617 673.483 482.45 L 604.965 481.279 L 517.561 479.736 C 481.016 479.112 446.657 473.674 423.432 509.694 C 410.198 530.22 413.045 560.068 412.73 584.018 L 411.578 648.887 L 407.646 875.499 L 405.572 988.2 C 404.81 1027.56 396.285 1071.62 434.813 1095.57 C 456.97 1109.34 485.353 1106.51 510.546 1106.88 C 520.084 1106.9 547.681 1106.42 555.657 1108.07 C 559.713 1115.18 560.847 1118.32 563.435 1126.17 L 566.621 1138.47 C 568.107 1144.62 569.433 1149.39 572.492 1155.03 C 547.11 1155.12 520.596 1154.29 494.653 1153.82 C 471.164 1152.47 447.176 1155.27 424.116 1150.39 C 413.979 1148.25 401.027 1133.27 396.915 1132.14 C 396.533 1130.26 394.435 1126.57 393.519 1124.63 C 388.764 1114.55 387.531 1110.79 386.853 1099.98 C 385.665 1090.58 380.527 1095.24 384.824 1082.3 C 383.609 1077.27 383.569 1050.72 384.601 1045.53 L 387.192 1044.16 C 388.875 1030.48 389.288 984.271 388.94 969.733 L 389.11 968.078 C 389.986 960.667 390.007 951.954 390.003 944.446 C 389.99 919.866 391.496 894.87 390.956 870.318 z"/>
<path transform="translate(0,0)" fill="rgb(70,61,59)" d="M 566.621 1138.47 C 554.326 1138.4 503.374 1140.59 496.936 1133.4 C 496.473 1130.74 497.03 1130.04 498.079 1127.56 C 504.135 1123.39 552.265 1126.05 563.435 1126.17 L 566.621 1138.47 z"/>
<path transform="translate(0,0)" fill="rgb(245,237,243)" d="M 387.192 1044.16 C 388.709 1050 387.456 1079.41 386.83 1086.69 C 384.221 1084 386.249 1085.61 384.824 1082.3 C 383.609 1077.27 383.569 1050.72 384.601 1045.53 L 387.192 1044.16 z"/>
<path transform="translate(0,0)" fill="rgb(83,87,124)" d="M 523.672 1065.33 C 519.631 1055.66 512.511 1044.67 507.459 1034.5 C 491.798 1002.96 467.609 954.135 468.219 918.405 C 468.587 896.886 492.465 853.203 504.136 835.033 C 528.149 797.647 574.282 730.367 619.881 719.471 C 628.468 730.381 625.712 749.603 624.077 763.004 C 620.962 788.549 615.539 816.736 600.667 838.158 C 593.797 848.053 585.31 857.481 577.863 867.02 C 577.669 873.876 572.41 891.339 570.632 899.027 C 564.598 925.115 556.174 951.782 549.963 977.729 C 553.282 991.62 570.239 1039.65 577.405 1052.94 C 578.735 1056.13 587.604 1075.4 587.768 1077.36 C 575.046 1084.58 562.44 1092.01 549.953 1099.64 L 555.657 1108.07 C 547.681 1106.42 520.084 1106.9 510.546 1106.88 C 514.172 1093.63 519.761 1079.2 523.672 1065.33 z"/>
<path transform="translate(0,0)" fill="rgb(200,216,233)" d="M 577.863 867.02 C 577.669 873.876 572.41 891.339 570.632 899.027 C 564.598 925.115 556.174 951.782 549.963 977.729 C 536.016 922.25 543.402 911.04 577.863 867.02 z"/>
<path transform="translate(0,0)" fill="rgb(111,101,136)" d="M 523.672 1065.33 C 527.719 1072.46 540.975 1097.44 546.194 1101.17 C 548.326 1100.8 548.255 1100.93 549.953 1099.64 L 555.657 1108.07 C 547.681 1106.42 520.084 1106.9 510.546 1106.88 C 514.172 1093.63 519.761 1079.2 523.672 1065.33 z"/>
<path transform="translate(0,0)" fill="rgb(229,181,157)" d="M 696.082 593.619 C 695.043 574.591 696.85 565.785 706.545 548.491 C 713.879 535.409 726.799 526.66 741.456 524.112 C 746.683 523.203 750.569 523.739 756.011 522.377 C 759.9 518.263 760.285 520.079 764.895 522.511 C 772.756 524.09 780.161 520.085 786.769 525.129 L 788.067 527.643 C 803.768 531.513 810.374 536.395 818.85 550.252 C 834.983 576.628 829.439 604.51 807.282 625.175 C 805.514 637.791 804.866 643.671 799.954 655.752 C 796.943 663.158 785.815 675.965 785.349 679.655 C 784.741 700.531 784.761 721.372 784.022 742.239 C 779.765 739.909 771.188 735.034 767.75 732.194 L 764.168 729.036 C 755.097 734.905 747.717 738.282 736.832 739.855 C 711.529 742.133 692.497 730.043 681.35 707.543 C 690.431 706.254 697.841 703.386 703.26 695.215 C 704.741 692.982 706.788 687.042 706.052 684.44 C 701.692 678.825 701.028 662.969 698.327 654.386 C 698.185 653.583 698.043 652.78 697.901 651.976 C 697.535 650.497 697.197 649.01 696.889 647.517 C 694.618 636.442 693.129 616.59 692.159 604.7 C 691.893 601.437 694.17 596.499 696.082 593.619 z"/>
<path transform="translate(0,0)" fill="rgb(70,61,59)" d="M 696.082 593.619 C 695.043 574.591 696.85 565.785 706.545 548.491 C 713.879 535.409 726.799 526.66 741.456 524.112 C 746.683 523.203 750.569 523.739 756.011 522.377 C 759.9 518.263 760.285 520.079 764.895 522.511 C 772.756 524.09 780.161 520.085 786.769 525.129 L 788.067 527.643 C 803.768 531.513 810.374 536.395 818.85 550.252 C 834.983 576.628 829.439 604.51 807.282 625.175 C 805.293 617.416 805.919 603.628 805.944 594.952 C 786.963 568.062 784.576 585.845 757.729 575.601 C 755.074 574.587 755.146 570.624 754.472 568 C 745.994 567.53 738.113 565.697 731.441 569.981 C 729.63 569.478 725.855 567.935 725.023 568.906 C 719.102 575.815 710.571 608.858 703.618 613.2 C 697.436 611.184 696.84 599.271 696.082 593.619 z"/>
<path transform="translate(0,0)" fill="rgb(221,165,140)" d="M 731.441 569.981 C 738.113 565.697 745.994 567.53 754.472 568 C 755.146 570.624 755.074 574.587 757.729 575.601 C 784.576 585.845 786.963 568.062 805.944 594.952 C 805.919 603.628 805.293 617.416 807.282 625.175 C 805.514 637.791 804.866 643.671 799.954 655.752 C 796.943 663.158 785.815 675.965 785.349 679.655 C 783.238 678.889 783.368 679.377 780.671 680.255 C 781.265 677.756 785.493 670.201 786.943 667.756 C 797.122 650.591 797.339 642.655 796.789 623.401 L 801.237 624.605 L 802.391 623.786 C 800.657 620.939 799.423 620.756 796.228 619.261 C 803.934 588.454 776.454 591.205 757.303 586.199 C 751.66 584.723 752.002 581.2 749.828 577.349 C 747.115 572.542 736.769 571.345 731.441 569.981 z"/>
<path transform="translate(0,0)" fill="rgb(93,92,104)" d="M 780.671 680.255 C 783.368 679.377 783.238 678.889 785.349 679.655 C 784.741 700.531 784.761 721.372 784.022 742.239 C 779.765 739.909 771.188 735.034 767.75 732.194 L 764.168 729.036 C 755.768 715.927 753.181 713.342 757.419 697.79 C 760.663 695.725 764.893 693.404 768.281 691.43 C 772.075 687.361 776.39 685.911 780.671 680.255 z"/>
<path transform="translate(0,0)" fill="rgb(203,219,233)" d="M 768.281 691.43 L 767.75 732.194 L 764.168 729.036 C 755.768 715.927 753.181 713.342 757.419 697.79 C 760.663 695.725 764.893 693.404 768.281 691.43 z"/>
<path transform="translate(0,0)" fill="rgb(221,165,140)" d="M 736.832 739.855 C 752.017 721.21 739.38 704.001 723.942 691.142 C 720.914 688.62 712.418 683.751 710.757 680.67 C 731.785 688.421 727.865 696.905 757.419 697.79 C 753.181 713.342 755.768 715.927 764.168 729.036 C 755.097 734.905 747.717 738.282 736.832 739.855 z"/>
<path transform="translate(0,0)" fill="rgb(70,61,59)" d="M 698.327 654.386 C 702.084 660.357 705.576 666.975 709.27 672.662 C 708.514 676.77 708.128 680.916 706.052 684.44 C 701.692 678.825 701.028 662.969 698.327 654.386 z"/>
<path transform="translate(0,0)" fill="rgb(65,47,42)" d="M 796.789 623.401 C 790.673 623.016 783.444 624.161 779.727 618.807 C 783.737 615.236 791.569 618.081 796.228 619.261 C 799.423 620.756 800.657 620.939 802.391 623.786 L 801.237 624.605 L 796.789 623.401 z"/>
<path transform="translate(0,0)" fill="rgb(221,165,140)" d="M 756.934 621.627 C 761.633 622.187 761.095 621.36 763.898 623.959 C 766.723 632.052 765.398 638.185 763.48 646.459 C 762.745 649.632 760.835 649.968 758.087 651.427 C 754.341 650.075 753.713 650.079 751.026 647.335 C 748.404 640.941 754.445 629.72 756.934 621.627 z"/>
<path transform="translate(0,0)" fill="rgb(245,237,243)" d="M 738.063 658.689 C 744.434 659.931 760.84 661.939 764.383 665.912 L 763.076 669.088 C 752.156 676.042 740.062 672.363 738.063 658.689 z"/>
<path transform="translate(0,0)" fill="rgb(65,47,42)" d="M 727.084 601.96 C 733.152 602.358 749.483 604.579 751.42 611.116 L 749.63 614.237 C 748.157 613.602 723.149 603.391 724.163 604.088 L 727.084 601.96 z"/>
<path transform="translate(0,0)" fill="rgb(70,61,59)" d="M 735.382 617.554 C 737.822 616.309 740.809 617.189 742.186 619.557 C 743.563 621.924 742.85 624.956 740.562 626.461 C 738.965 627.512 736.918 627.594 735.242 626.674 C 733.566 625.754 732.537 623.983 732.566 622.072 C 732.595 620.16 733.679 618.422 735.382 617.554 z"/>
<path transform="translate(0,0)" fill="rgb(70,61,59)" d="M 778.628 628.657 C 781.028 627.827 783.657 629.021 784.611 631.374 C 785.564 633.727 784.508 636.415 782.208 637.49 C 780.61 638.236 778.73 638.04 777.32 636.98 C 775.911 635.92 775.201 634.168 775.475 632.426 C 775.749 630.683 776.961 629.234 778.628 628.657 z"/>
<path transform="translate(0,0)" fill="rgb(93,92,104)" d="M 1557.97 460.6 L 1558.99 461.741 C 1577.17 462.792 1595.99 461.258 1613.88 462.269 C 1637.99 463.631 1661.94 482.184 1664 507.137 C 1666.17 533.38 1665.03 562.001 1664.92 588.539 L 1664.46 750.329 C 1664.41 759.431 1663.12 796.138 1664.54 801.833 C 1663.01 815.616 1663.54 847.977 1663.68 862.684 C 1663.88 885.214 1662.68 913.34 1663.98 935.219 C 1663.96 942.86 1663.12 976.536 1664.92 982.208 L 1665.03 982.66 C 1663.62 986.636 1663.59 990.719 1664.27 994.884 C 1662.02 998.647 1662.94 1092.16 1664.05 1093.41 C 1661.32 1099.99 1664.01 1114.1 1662.69 1121.93 C 1660.71 1133.74 1655.95 1141.59 1648.82 1150.84 C 1635.96 1160.72 1626.68 1167.11 1609.92 1167.06 C 1539.6 1166.88 1469.25 1167.1 1398.93 1166.62 L 1347.65 1166.39 C 1340.47 1166.37 1322.09 1166.6 1315.61 1165.3 C 1305.37 1163.2 1295.95 1158.21 1288.46 1150.92 C 1269.68 1132.34 1272.32 1110.1 1272.59 1086.1 C 1272.68 1073.61 1272.7 1061.12 1272.66 1048.63 C 1279.09 1047.37 1279.04 1043.49 1289.09 1042.44 L 1299.15 1039.96 C 1301.04 1045.86 1302.15 1051.82 1306.13 1056.23 C 1308.22 1056.67 1308.93 1056.25 1311 1055.68 C 1315.05 1052.91 1346.57 1042.48 1353.16 1039.79 C 1394.29 1023.01 1453.54 1002.69 1489.22 977.766 C 1497.27 971.62 1500.59 964.219 1501.75 954.34 C 1507.78 903.26 1492.64 805.214 1463.01 764.199 C 1457.49 757.966 1454.84 756.154 1447.22 753.121 C 1444.33 753.215 1440.8 752.211 1437.91 751.562 C 1428.06 752.165 1419.77 752.838 1409.92 754.212 L 1401.98 753.681 L 1401.74 754.444 C 1397.52 768.466 1398.73 777.796 1385.95 778.812 C 1386.57 778.763 1372.06 791.106 1372.39 790.717 C 1367.35 786.61 1367.84 785.381 1361 786.877 C 1355.07 777.283 1339.66 781.92 1338.24 761.674 C 1332.23 761.997 1331.23 761.316 1328.05 766.449 C 1308.52 774.2 1310.55 770.816 1291.71 772.159 L 1290.95 772.21 C 1284.73 771.861 1279.2 770.31 1273.24 768.641 C 1229.44 751.571 1212.94 720.856 1223.39 672.93 C 1225.89 661.437 1234.28 643.812 1245.7 638.976 C 1250.16 637.089 1256.62 636.361 1260.84 633.447 C 1268.1 628.149 1264.87 624.666 1273.82 619.48 C 1274.44 612.254 1274.06 598.261 1274.04 590.659 L 1273.94 539.437 C 1273.92 525.992 1273.12 512.116 1276.78 499.039 C 1281.12 483.571 1294.65 469.611 1309.82 464.385 C 1327.49 458.3 1407.48 461.515 1431.23 461.705 L 1521.02 461.929 C 1527.96 461.962 1553.11 463.327 1557.97 460.6 z"/>
<path transform="translate(0,0)" fill="rgb(200,216,233)" d="M 1463.01 764.199 C 1472.63 759.498 1633.82 730.858 1647.78 731.123 L 1646.98 958.248 L 1646.97 1023.37 C 1646.96 1052.15 1650.18 1078.37 1627.59 1100.59 C 1600.6 1127.14 1559.14 1119.77 1523.69 1119.74 C 1514.21 1071.95 1502.71 1024.58 1489.22 977.766 C 1497.27 971.62 1500.59 964.219 1501.75 954.34 C 1507.78 903.26 1492.64 805.214 1463.01 764.199 z"/>
<path transform="translate(0,0)" fill="rgb(70,61,59)" d="M 1291.04 589.71 C 1300.78 585.708 1295.97 585.127 1297.22 575.329 C 1298.58 564.69 1310.16 555.865 1319.13 551.232 C 1340.98 541.646 1360.06 538.981 1377.92 556.08 C 1408.94 529.866 1459.5 554.585 1466.01 592.541 C 1466.72 596.667 1467.15 600.858 1467.53 605.029 C 1466.2 614.462 1465.16 618.647 1461.16 627.32 C 1477.44 647.146 1484.96 672.737 1482 698.219 C 1480.94 707.68 1477.71 720.624 1471.05 727.907 C 1469.14 729.997 1462.85 734.768 1462.02 736.801 C 1457.24 748.517 1459.06 747.079 1447.22 753.121 C 1444.33 753.215 1440.8 752.211 1437.91 751.562 C 1428.06 752.165 1419.77 752.838 1409.92 754.212 L 1401.98 753.681 L 1401.74 754.444 C 1397.52 768.466 1398.73 777.796 1385.95 778.812 C 1386.57 778.763 1372.06 791.106 1372.39 790.717 C 1367.35 786.61 1367.84 785.381 1361 786.877 C 1355.07 777.283 1339.66 781.92 1338.24 761.674 C 1332.23 761.997 1331.23 761.316 1328.05 766.449 C 1308.52 774.2 1310.55 770.816 1291.71 772.159 L 1290.95 772.21 C 1284.73 771.861 1279.2 770.31 1273.24 768.641 C 1229.44 751.571 1212.94 720.856 1223.39 672.93 C 1225.89 661.437 1234.28 643.812 1245.7 638.976 C 1250.16 637.089 1256.62 636.361 1260.84 633.447 C 1268.1 628.149 1264.87 624.666 1273.82 619.48 C 1290.97 618.325 1273.7 604.27 1291.04 589.71 z"/>
<path transform="translate(0,0)" fill="rgb(120,88,75)" d="M 1306.63 651.262 C 1319.36 637.988 1332.16 624.789 1345.05 611.665 C 1351.16 618.404 1355.91 626.232 1363.59 631.818 C 1373.95 639.433 1388.34 642.329 1397.72 651.101 C 1405.82 658.675 1397.8 668.695 1395.38 676.155 C 1390.71 690.528 1390.15 700.415 1377.4 709.94 C 1381.01 729.472 1385.74 741.394 1401.98 753.681 L 1401.74 754.444 C 1397.52 768.466 1398.73 777.796 1385.95 778.812 C 1386.57 778.763 1372.06 791.106 1372.39 790.717 C 1367.35 786.61 1367.84 785.381 1361 786.877 C 1355.07 777.283 1339.66 781.92 1338.24 761.674 C 1349.56 746.024 1348.77 737.791 1347.58 719.39 C 1338.59 717.421 1332.51 715.716 1325.61 708.95 C 1312.41 695.999 1306.82 668.908 1306.63 651.262 z"/>
<path transform="translate(0,0)" fill="rgb(112,80,68)" d="M 1341.46 660.436 C 1349.51 661.632 1352.42 677.98 1349.7 683.431 L 1344.85 683.844 C 1337.27 680.127 1338.73 666.819 1341.46 660.436 z"/>
<path transform="translate(0,0)" fill="rgb(242,68,52)" d="M 1344.84 691.278 C 1349.79 690.886 1358.25 689.237 1359.56 695.431 C 1358.1 699.028 1356.31 699.908 1353.22 702.277 C 1347.46 702.974 1338.92 701.966 1338.9 694.636 C 1341.5 691.796 1340.75 692.666 1344.84 691.278 z"/>
<path transform="translate(0,0)" fill="rgb(65,47,42)" d="M 1363.07 657.441 C 1364.74 656.591 1366.74 656.717 1368.29 657.771 C 1369.85 658.824 1370.7 660.639 1370.53 662.507 C 1370.36 664.376 1369.19 666.004 1367.47 666.756 C 1364.91 667.875 1361.93 666.759 1360.74 664.237 C 1359.55 661.716 1360.58 658.704 1363.07 657.441 z"/>
<path transform="translate(0,0)" fill="rgb(65,47,42)" d="M 1322.05 661.655 C 1324.37 660.181 1327.45 660.857 1328.95 663.169 C 1330.44 665.481 1329.79 668.565 1327.49 670.08 C 1325.17 671.614 1322.03 670.956 1320.52 668.615 C 1319.01 666.274 1319.69 663.148 1322.05 661.655 z"/>
<path transform="translate(0,0)" fill="rgb(65,47,42)" d="M 1368.48 647.112 C 1372.3 646.711 1376.79 646.868 1379.76 649.643 C 1377.07 651.101 1375.44 650.387 1371.97 650.145 C 1367.39 651.48 1364.07 653.037 1359.61 651.83 L 1359.04 650.697 C 1361.92 648.12 1364.63 647.965 1368.48 647.112 z"/>
<path transform="translate(0,0)" fill="rgb(65,47,42)" d="M 1316.62 651.159 C 1320.83 650.942 1329.41 649.777 1331.49 654.131 C 1329.77 655.211 1328.12 654.867 1326.02 654.796 C 1320.87 654.233 1317.52 655.081 1312.24 655.116 L 1312.46 653.962 L 1316.62 651.159 z"/>
<path transform="translate(0,0)" fill="rgb(203,219,233)" d="M 1467.53 605.029 C 1467.89 604.16 1468.3 600.197 1468.45 599.01 C 1477.3 591.733 1555.65 575.009 1571.66 570.479 C 1592.3 564.642 1625.44 563.184 1646.92 558.31 L 1648.12 558.029 C 1648.03 613.811 1649.34 676.083 1647.78 731.123 C 1633.82 730.858 1472.63 759.498 1463.01 764.199 C 1457.49 757.966 1454.84 756.154 1447.22 753.121 C 1459.06 747.079 1457.24 748.517 1462.02 736.801 C 1462.85 734.768 1469.14 729.997 1471.05 727.907 C 1477.71 720.624 1480.94 707.68 1482 698.219 C 1484.96 672.737 1477.44 647.146 1461.16 627.32 C 1465.16 618.647 1466.2 614.462 1467.53 605.029 z"/>
<path transform="translate(0,0)" fill="rgb(200,216,233)" d="M 1291.04 589.71 C 1289.03 563.512 1288.54 532.892 1308.08 513.147 C 1322.61 498.473 1339.07 491.855 1359.6 492.035 C 1437.85 492.723 1516.41 491.233 1594.55 493.939 C 1600.33 495.029 1606.89 497.428 1612.02 499.954 C 1635.26 511.388 1647.5 532.948 1648.12 558.029 L 1646.92 558.31 C 1625.44 563.184 1592.3 564.642 1571.66 570.479 C 1555.65 575.009 1477.3 591.733 1468.45 599.01 C 1468.3 600.197 1467.89 604.16 1467.53 605.029 C 1467.15 600.858 1466.72 596.667 1466.01 592.541 C 1459.5 554.585 1408.94 529.866 1377.92 556.08 C 1360.06 538.981 1340.98 541.646 1319.13 551.232 C 1310.16 555.865 1298.58 564.69 1297.22 575.329 C 1295.97 585.127 1300.78 585.708 1291.04 589.71 z"/>
<path transform="translate(0,0)" fill="rgb(111,101,136)" d="M 1311 1055.68 C 1315.05 1052.91 1346.57 1042.48 1353.16 1039.79 C 1394.29 1023.01 1453.54 1002.69 1489.22 977.766 C 1502.71 1024.58 1514.21 1071.95 1523.69 1119.74 L 1409.25 1119.5 C 1401.46 1119.5 1393.39 1119.5 1385.61 1119.49 C 1351.74 1119.43 1334.46 1121.97 1307.57 1099.26 C 1309.2 1088.16 1311.04 1066.51 1311 1055.68 z"/>
<path transform="translate(0,0)" fill="rgb(200,216,233)" d="M 1299.15 1039.96 C 1301.04 1045.86 1302.15 1051.82 1306.13 1056.23 C 1308.22 1056.67 1308.93 1056.25 1311 1055.68 C 1311.04 1066.51 1309.2 1088.16 1307.57 1099.26 C 1290.48 1081.18 1289.18 1065.78 1289.09 1042.44 L 1299.15 1039.96 z"/>
<path transform="translate(0,0)" fill="rgb(70,61,59)" d="M 1398.1 1138.14 C 1426.72 1137.26 1458.59 1138.58 1487.44 1138.08 C 1497.44 1137.9 1544.11 1137.62 1550.78 1139.56 C 1554.17 1143.45 1553.16 1147.04 1549.76 1150.45 C 1514.99 1153.09 1438.52 1148.56 1399.51 1149.8 C 1397.72 1149.85 1396.81 1147.47 1396.04 1145.99 C 1396 1142.1 1396.37 1141.77 1398.1 1138.14 z"/>
<path transform="translate(0,0)" fill="rgb(111,101,136)" d="M 1409.92 754.212 C 1419.77 752.838 1428.06 752.165 1437.91 751.562 C 1440.8 752.211 1444.33 753.215 1447.22 753.121 C 1454.84 756.154 1457.49 757.966 1463.01 764.199 C 1492.64 805.214 1507.78 903.26 1501.75 954.34 C 1500.59 964.219 1497.27 971.62 1489.22 977.766 C 1453.54 1002.69 1394.29 1023.01 1353.16 1039.79 C 1346.57 1042.48 1315.05 1052.91 1311 1055.68 C 1308.93 1056.25 1308.22 1056.67 1306.13 1056.23 C 1302.15 1051.82 1301.04 1045.86 1299.15 1039.96 C 1297.17 1033.56 1290.68 1012.81 1286.11 1009.57 C 1287.72 1004.58 1286.49 1001.32 1288.9 998.476 L 1289.46 1003.45 C 1295.25 1006.4 1305.62 1000.45 1312.09 998.66 C 1312.1 958.565 1318.71 914.904 1313.54 874.608 C 1312.61 862.444 1306.42 784.53 1302.6 778.056 C 1302.54 778.201 1305.16 774.093 1305.52 773.433 C 1304.45 772.879 1294.89 772.775 1291.71 772.159 C 1310.55 770.816 1308.52 774.2 1328.05 766.449 C 1331.23 761.316 1332.23 761.997 1338.24 761.674 C 1339.66 781.92 1355.07 777.283 1361 786.877 C 1367.84 785.381 1367.35 786.61 1372.39 790.717 C 1372.06 791.106 1386.57 778.763 1385.95 778.812 C 1398.73 777.796 1397.52 768.466 1401.74 754.444 L 1401.98 753.681 L 1409.92 754.212 z"/>
<path transform="translate(0,0)" fill="rgb(83,87,124)" d="M 1437.91 751.562 C 1440.8 752.211 1444.33 753.215 1447.22 753.121 C 1454.84 756.154 1457.49 757.966 1463.01 764.199 C 1492.64 805.214 1507.78 903.26 1501.75 954.34 C 1500.59 964.219 1497.27 971.62 1489.22 977.766 C 1453.54 1002.69 1394.29 1023.01 1353.16 1039.79 C 1346.57 1042.48 1315.05 1052.91 1311 1055.68 C 1308.93 1056.25 1308.22 1056.67 1306.13 1056.23 C 1302.15 1051.82 1301.04 1045.86 1299.15 1039.96 C 1297.17 1033.56 1290.68 1012.81 1286.11 1009.57 C 1287.72 1004.58 1286.49 1001.32 1288.9 998.476 L 1289.46 1003.45 C 1295.25 1006.4 1305.62 1000.45 1312.09 998.66 C 1351.18 984.887 1401.47 966.806 1431.2 936.268 C 1440.79 926.417 1443.05 906.863 1443.5 893.63 C 1445.09 846.532 1442.36 798.505 1437.91 751.562 z"/>
<path transform="translate(0,0)" fill="rgb(120,88,75)" d="M 1401.98 753.681 L 1409.92 754.212 L 1410.17 760.002 C 1414.48 787.139 1398.6 853.729 1356.97 829.024 C 1346.25 822.661 1335.57 790.586 1334.59 778.784 C 1333.17 771.98 1332.43 771.886 1328.05 766.449 C 1331.23 761.316 1332.23 761.997 1338.24 761.674 C 1339.66 781.92 1355.07 777.283 1361 786.877 C 1367.84 785.381 1367.35 786.61 1372.39 790.717 C 1372.06 791.106 1386.57 778.763 1385.95 778.812 C 1398.73 777.796 1397.52 768.466 1401.74 754.444 L 1401.98 753.681 z"/>
<path transform="translate(0,0)" fill="rgb(83,87,124)" d="M 1401.98 753.681 L 1409.92 754.212 L 1410.17 760.002 L 1407.55 763.644 C 1410.32 775.098 1403.81 776.399 1395.91 782.875 C 1395.93 782.856 1395.13 790.169 1392.77 790.259 C 1383.35 790.617 1386.6 795.847 1380.56 799.056 C 1373.46 798.879 1374.1 793.544 1370.42 796.977 C 1364.86 802.16 1362.2 799.005 1358.57 793.86 C 1356.23 792.658 1355.05 792.954 1352.44 793.059 C 1347.78 789.5 1340.81 785.089 1338.33 780.246 L 1334.59 778.784 C 1333.17 771.98 1332.43 771.886 1328.05 766.449 C 1331.23 761.316 1332.23 761.997 1338.24 761.674 C 1339.66 781.92 1355.07 777.283 1361 786.877 C 1367.84 785.381 1367.35 786.61 1372.39 790.717 C 1372.06 791.106 1386.57 778.763 1385.95 778.812 C 1398.73 777.796 1397.52 768.466 1401.74 754.444 L 1401.98 753.681 z"/>
<path transform="translate(0,0)" fill="rgb(83,87,124)" d="M 1273.24 768.641 C 1279.2 770.31 1284.73 771.861 1290.95 772.21 L 1291.71 772.159 C 1294.89 772.775 1304.45 772.879 1305.52 773.433 C 1305.16 774.093 1302.54 778.201 1302.6 778.056 C 1306.42 784.53 1312.61 862.444 1313.54 874.608 C 1318.71 914.904 1312.1 958.565 1312.09 998.66 C 1305.62 1000.45 1295.25 1006.4 1289.46 1003.45 L 1288.9 998.476 C 1286.49 1001.32 1287.72 1004.58 1286.11 1009.57 C 1281.51 1012.09 1278.08 1013.49 1272.86 1014.57 C 1272.95 999.227 1272.94 983.882 1272.83 968.538 C 1273.48 953.855 1272.94 935.341 1272.93 920.364 C 1264.43 927.179 1253.56 935.407 1239.56 932.235 C 1219.02 927.578 1152.37 813.418 1156.92 804.092 C 1164.68 802.798 1180.3 791.734 1185.68 785.863 C 1199.02 805.566 1207.41 829.875 1226.28 846.299 C 1245.72 863.228 1262.45 839.829 1273.24 825.951 L 1273.24 768.641 z"/>
<path transform="translate(0,0)" fill="rgb(200,216,233)" d="M 1313.54 874.608 C 1318.71 914.904 1312.1 958.565 1312.09 998.66 C 1305.62 1000.45 1295.25 1006.4 1289.46 1003.45 L 1288.9 998.476 C 1290.92 971.704 1289.53 932.301 1289.79 904.014 C 1298.24 894.938 1306.16 884.552 1313.54 874.608 z"/>
<path transform="translate(0,0)" fill="rgb(203,219,233)" d="M 1291.71 772.159 C 1294.89 772.775 1304.45 772.879 1305.52 773.433 C 1305.16 774.093 1302.54 778.201 1302.6 778.056 L 1289.96 800.917 C 1289.94 795.3 1289.41 776.585 1290.95 772.21 L 1291.71 772.159 z"/>
<path transform="translate(0,0)" fill="rgb(200,216,233)" d="M 342.879 467.938 C 351.443 468.453 359.306 470.265 359.453 480.418 C 359.872 509.405 360.731 541.732 359.216 570.487 C 355.51 557.753 350.311 551.642 338.755 545.025 C 328.255 544.617 319.359 544.714 308.843 544.984 C 289.375 544.102 183.115 547.481 173.539 543.035 C 170.864 541.793 169.078 538.521 168.324 535.811 C 165.836 526.859 166.529 479.843 170.399 472.548 C 176.749 466.486 209.099 468.266 219.069 468.253 L 297.624 468.24 C 309.923 468.285 329.968 469.062 341.714 468.045 L 342.879 467.938 z M 184.393 476.404 L 181.497 477.304 L 180.459 479.829 C 181.195 481.416 180.986 481.856 182.703 482.576 C 188.369 484.953 298.94 483.934 313.25 483.195 L 318.445 482.815 C 319.585 480.755 319.345 481.873 318.837 479.3 C 313.409 474.46 283.104 476.531 274.092 476.488 L 184.393 476.404 z M 276.517 533.12 L 275.706 528.541 C 271.614 525.718 194.475 527.519 182.897 527.376 C 183.022 530.446 182.469 531.852 184.023 533.674 C 198.788 534.342 265.1 535.835 276.517 533.12 z M 197.559 499.473 C 206.659 499.587 215.76 499.566 224.86 499.412 C 233.216 499.368 272.796 501.274 276.959 496.17 C 276.191 494.941 275.241 493.482 273.717 493.427 C 260.739 492.964 188.619 491.384 182.68 494.284 L 182.36 496.278 C 185.047 501.169 192.585 499.577 197.559 499.473 z M 184.057 502.751 C 182.63 510.126 183.914 520.456 192.101 523.112 C 195.02 522.496 195.041 522.049 197.051 519.856 C 199.383 514.84 202.162 510.828 200.333 505.768 C 196.187 501.712 190.191 502.769 184.057 502.751 z M 223.117 502.802 C 218.227 501.342 216.708 504.941 208.417 501.976 C 204.127 509.605 206.282 521.063 216.281 521.603 C 219.186 520.398 220.848 519.965 222.188 516.311 C 223.809 511.995 224.132 507.299 223.117 502.802 z"/>
<path transform="translate(0,0)" fill="rgb(203,219,233)" d="M 197.559 499.473 C 206.659 499.587 215.76 499.566 224.86 499.412 L 223.117 502.802 C 218.227 501.342 216.708 504.941 208.417 501.976 C 204.78 500.314 202.347 503.084 197.559 499.473 z"/>
<path transform="translate(0,0)" fill="rgb(120,88,75)" d="M 1156.92 804.092 C 1153.98 799.183 1151.92 795.49 1147.43 791.625 C 1133.84 779.928 1062.29 761.417 1078.62 734.261 C 1091.02 726.164 1102.96 746.223 1114.25 751.344 C 1123.34 755.468 1123.95 755.083 1134.08 756.401 C 1127.7 751.112 1113.2 746.083 1112.63 738.056 C 1115.2 734.825 1119.43 734.028 1122.9 736.062 C 1140.06 746.133 1158.16 754.181 1175.6 763.572 C 1182.16 767.1 1184.34 779.134 1185.68 785.863 C 1180.3 791.734 1164.68 802.798 1156.92 804.092 z"/>
<path transform="translate(0,0)" fill="rgb(242,68,52)" d="M 1134.28 667.104 C 1169.71 663.616 1147.72 710.647 1138.48 725.226 L 1119.2 718.216 C 1090.55 703.716 1083.74 671.215 1121.19 676.869 C 1121.43 676.907 1130.01 668.874 1134.28 667.104 z"/>
<path transform="translate(0,0)" fill="rgb(242,68,52)" d="M 1013.97 646.008 C 1016.92 645.982 1020.7 646.412 1022.97 648.142 C 1029.95 654.447 1033.65 647.379 1038.39 647.282 C 1067.75 646.677 1045.23 678.616 1039.4 686.139 C 1035.66 690.13 1031.28 693.501 1027.04 696.968 C 1013.75 684.904 989.109 660.632 1013.97 646.008 z"/>
<path transform="translate(0,0)" fill="rgb(242,68,52)" d="M 942.97 685.915 C 966.156 685.889 951.388 713.402 944.748 723.441 L 934.958 719.117 C 927.877 715.182 918.574 707.753 918.532 698.443 C 918.51 693.737 925.517 689.667 929.934 691.047 C 936.207 693.005 937.844 689.498 942.97 685.915 z"/>
<path transform="translate(0,0)" fill="rgb(203,219,233)" d="M 888.307 845.124 L 962.457 844.999 C 978.375 844.98 997.354 844.513 1012.96 845.317 C 1015.2 847.135 1014.57 847.827 1015.22 851.636 C 1009.91 851.94 1003.15 852.01 997.79 851.819 C 962.931 850.577 925.226 853.993 890.68 851.563 C 888.458 849.725 889.025 848.854 888.307 845.124 z"/>
<path transform="translate(0,0)" fill="rgb(242,68,52)" d="M 953.934 594.845 C 962.754 594.615 963.586 599.434 970.595 597.608 C 975.86 596.237 977.1 596.256 981.677 599.369 C 986.905 607.146 978.333 616.948 973.216 622.635 C 970.725 624.903 966.464 627.788 963.624 629.841 C 962.424 628.706 961.238 627.554 960.068 626.388 C 951.268 617.587 942.408 605.329 953.934 594.845 z"/>
<path transform="translate(0,0)" fill="rgb(203,219,233)" d="M 887.192 815.109 C 916.573 814.695 946.053 815.19 975.443 814.861 C 981.284 814.795 987.015 814.782 992.832 815.427 C 994.352 817.214 994.006 818.783 994.354 821.618 C 964.295 821.732 918.817 823.231 889.687 821.512 C 887.413 819.739 887.978 818.859 887.192 815.109 z"/>
<path transform="translate(0,0)" fill="rgb(203,219,233)" d="M 887.181 831.056 C 905.243 830.759 923.781 830.954 941.877 830.866 C 954.024 830.808 969.473 830.371 981.381 831.229 C 983.433 833.242 982.769 833.617 983.145 837.394 C 962.422 838.952 939.608 837.062 918.687 837.878 C 909.689 838.229 898.697 838.112 889.735 837.514 C 887.252 835.176 887.988 835.23 887.181 831.056 z"/>
<path transform="translate(0,0)" fill="rgb(242,68,52)" d="M 878.138 589.862 C 894.982 592.565 884.12 613.433 874.538 618.282 C 872.537 619.294 870.459 617.369 868.524 616.258 C 860.288 610.087 846.329 594.059 867.584 591.905 C 874.336 591.221 870.921 593.673 878.138 589.862 z"/>
<path transform="translate(0,0)" fill="rgb(242,68,52)" d="M 853.123 673.814 C 868.469 674.296 861.619 695.296 854.591 701.54 C 851.677 702.122 848.976 700.32 846.16 698.967 C 841.939 696.79 834.931 690.922 833.858 686.239 C 836.94 676.058 845.757 680.24 853.123 673.814 z"/>
<path transform="translate(0,0)" fill="rgb(242,68,52)" d="M 847.096 516.007 C 850.568 516.187 850.725 516.14 853.39 518.182 C 857.889 525.559 850.509 536.906 844.086 541.13 C 842.95 541.877 842.019 540.908 840.724 540.277 C 835.77 536.651 827.115 528.306 829.677 521.751 C 837.846 514.718 839.25 520.22 847.096 516.007 z"/>
<path transform="translate(0,0)" fill="rgb(203,219,233)" d="M 902.78 859.781 C 904.642 859.061 906.736 859.991 907.449 861.856 C 908.162 863.721 907.225 865.811 905.357 866.518 C 903.499 867.221 901.422 866.289 900.712 864.433 C 900.002 862.578 900.927 860.498 902.78 859.781 z"/>
<path transform="translate(0,0)" fill="rgb(181,193,180)" d="M 1664.27 994.884 C 1693.21 969.502 1733.78 939.055 1770.73 926.092 C 1817.33 909.746 1874.98 921.622 1922.75 927.885 C 1935.64 929.575 1954.75 931.362 1966.84 934.347 C 1936.53 953.317 1917.45 982.93 1891.27 1007.44 C 1841.44 1054.09 1779.09 1088.55 1710.22 1094.68 C 1698.66 1095.7 1677.9 1096.45 1666.96 1094.18 C 1665.98 1093.97 1665.01 1093.72 1664.05 1093.41 C 1662.94 1092.16 1662.02 998.647 1664.27 994.884 z"/>
<path transform="translate(0,0)" fill="rgb(181,193,180)" d="M 1828.29 692.897 C 1826.14 679.736 1822.68 645.248 1840.09 640.483 C 1858.85 643.669 1836.73 681.017 1832.07 690.824 C 1850.31 681.098 1868.36 670.926 1886.39 660.904 C 1892.93 657.273 1903.6 655.406 1910.9 654.224 C 1932.57 649.338 1938.41 668.488 1918.15 675.929 C 1911.04 678.54 1893.25 680.084 1885.44 680.119 C 1849.96 680.274 1822.05 697.818 1798 724.647 C 1816.92 721.418 1850.34 712.086 1867.91 721.986 C 1873.18 724.956 1874.92 733.014 1870.05 737.664 C 1850.69 753.071 1811.9 737.49 1795.26 727.614 C 1778.87 745.535 1761.83 770.71 1748.23 791.171 C 1767.89 779.393 1803.96 753.645 1827.28 755.817 C 1829.21 755.997 1832.53 758.045 1833.36 759.924 C 1838.74 772.497 1819.9 782.118 1811.59 785.915 C 1790.36 795.609 1767.56 798.746 1744.61 796.933 C 1733.86 812.99 1724.46 831.037 1715.44 848.174 C 1738.52 834.127 1761.83 820.157 1785.46 807.094 C 1788.25 805.554 1802.76 798.971 1805.12 798.898 C 1848.02 797.572 1838.41 823.886 1809.92 837.067 C 1775.98 852.765 1748.96 856.511 1713.5 852.766 C 1699.75 880.037 1685.99 916.093 1678.81 945.84 C 1695.93 928.338 1713.46 911.239 1731.38 894.556 C 1742.6 883.996 1753.95 872.739 1766.77 864.571 C 1776.12 858.613 1795.14 856.499 1802.4 865.225 C 1814.5 879.77 1783.39 904.04 1775 910.51 C 1747.05 932.064 1712.4 944.657 1677.77 949.375 C 1675.91 956.435 1670.72 978.719 1665.03 982.66 L 1664.92 982.208 C 1666.69 972.697 1670.08 959.887 1672.25 950.067 L 1663.98 935.219 C 1662.68 913.34 1663.88 885.214 1663.68 862.684 C 1663.54 847.977 1663.01 815.616 1664.54 801.833 C 1686.46 812.917 1680.98 854.431 1679.23 875.258 C 1677.59 894.747 1677.44 923.977 1673.26 942.453 L 1674.36 942.718 C 1677.03 938.56 1676.71 935.479 1678.05 930.954 C 1686.06 903.944 1696.82 877.577 1708.19 851.981 C 1686.66 815.73 1672.15 779.431 1680.46 736.46 C 1684.58 715.173 1710.76 728.232 1713.01 740.947 C 1718.13 769.907 1715.63 816.804 1711.35 846.106 C 1719.96 828.731 1728.86 811.934 1739.62 795.764 C 1728.18 764.959 1721.02 736.44 1725.12 703.108 C 1726.12 694.904 1727.51 685.549 1731 677.968 C 1733.18 673.224 1736.84 667.768 1741.89 665.73 C 1744.6 664.638 1747.53 664.819 1750.15 666.073 C 1756.62 669.171 1761.13 676.763 1763.11 683.473 C 1768.41 701.378 1748.34 771.878 1741.47 792.399 C 1757.44 769.676 1773.85 744.148 1792.5 723.589 C 1782.06 703.482 1774.08 682.745 1779.5 659.776 C 1782.75 646.002 1797.65 645.264 1801.22 657.573 C 1806.01 674.054 1798.63 704.974 1794.23 721.415 C 1805.09 709.805 1814.11 700.988 1828.29 692.897 z"/>
<path transform="translate(0,0)" fill="rgb(195,209,190)" d="M 183.458 919.757 C 174.896 908.413 143.589 869.559 156.236 857.472 C 163.653 854.423 169.839 858.911 174.145 864.856 C 184.903 879.712 189.072 904.069 186.414 921.797 C 206.966 932.654 239.968 956.164 258.465 970.001 C 240.067 942.7 216.297 918.892 200.381 889.223 C 187.763 865.701 206.532 849.11 222.29 866.084 C 248.49 894.306 261.064 933.542 261.246 971.853 C 276.8 983.858 292.372 995.469 306.332 1009.34 C 296.909 988.416 260.628 932.393 264.017 911.483 C 264.785 906.745 266.748 903.419 270.658 900.643 C 273.55 898.59 276.593 897.529 280.146 898.252 C 285.459 899.332 289.605 904.052 292.593 908.314 C 313.063 937.506 318.001 978.977 311.96 1013.57 C 338.791 1039.94 353.457 1056.41 378.297 1084.69 C 367.325 1062.96 354.517 1042.79 343.401 1019.91 C 336.309 1005.31 309.85 963.91 337.223 954.164 C 340.219 953.097 347.295 955.2 349.598 957.496 C 369.67 977.499 380.744 1014.53 384.385 1042.37 L 384.5 1043.31 L 387.192 1044.16 L 384.601 1045.53 C 383.569 1050.72 383.609 1077.27 384.824 1082.3 C 380.527 1095.24 385.665 1090.58 386.853 1099.98 C 382.071 1096.93 380.893 1095.03 377.372 1090.6 C 337.624 1094.47 307.607 1093.31 269.329 1078.57 C 257.997 1073.84 239.172 1066.69 234.048 1054.49 C 228.704 1040.49 253.806 1035.71 263.104 1038.64 C 300.858 1050.55 340.346 1070.93 375.713 1088.29 C 355.953 1063.88 331.497 1035.78 307.628 1015.34 C 281.27 1026.92 245.735 1031.15 217.509 1025.84 C 211.173 1025.32 188.67 1019.83 186.457 1012.93 C 172.578 969.707 286.071 1007.27 304.522 1012.34 C 288.675 998.157 275.179 987.262 258.361 974.428 C 248.053 977.856 236.163 980.64 225.404 981.812 C 212.386 983.229 164.946 983.361 164.247 963.552 C 169.933 946.384 236.118 966.333 250.911 969.706 C 241.204 961.35 197.209 931.518 185.928 926.843 C 172.917 940.436 161.653 949.48 142.494 954.963 C 131.261 960.1 109.866 951.107 119.936 937.897 C 127.622 927.813 170.734 926.038 182.397 924.711 C 168.85 916.817 156.36 911.885 141.268 908.008 C 133.278 918.199 107.599 942.771 95.0944 927.346 C 92.3175 913.511 124.474 910.381 134.48 907.167 L 135.599 906.802 C 129.96 905.94 116.95 903.728 111.706 903.828 C 96.96 904.358 82.5937 909.321 67.9528 911.431 C 57.9588 912.872 41.2349 913.005 39.8076 899.63 C 46.1094 879.563 109.021 898.199 123.874 900.854 C 129.066 901.782 133.752 902.579 138.851 904.071 C 129.453 895.369 108.332 878.505 107.306 866.21 C 108.628 862.396 107.467 863.821 110.847 861.736 C 128.075 860.728 139.743 890.71 142.363 904.493 C 158.74 908.645 168.198 913.602 183.458 919.757 z"/>
<path transform="translate(0,0)" fill="rgb(195,209,190)" d="M 388.94 969.733 C 376.827 964.048 356.087 942.604 344.498 934.216 C 282.339 889.228 250.325 819.286 225.969 748.693 C 217.468 724.051 211.626 699.489 193.769 678.558 C 227.49 686.373 260.416 695.545 287.468 718.307 C 291.908 722.043 296.726 726.054 301.834 728.781 C 309 737.905 318.535 745.685 325.757 754.799 C 344.309 778.21 373.168 817.125 381.465 845.945 C 383.062 850 389.093 867.961 390.956 870.318 C 391.496 894.87 389.99 919.866 390.003 944.446 C 390.007 951.954 389.986 960.667 389.11 968.078 L 388.94 969.733 z"/>
<path transform="translate(0,0)" fill="rgb(181,193,180)" d="M 381.465 845.945 C 383.062 850 389.093 867.961 390.956 870.318 C 391.496 894.87 389.99 919.866 390.003 944.446 C 390.007 951.954 389.986 960.667 389.11 968.078 C 388.435 963.126 389.734 954.617 386.975 950.832 C 380.59 942.072 375.503 930.862 369.322 922.249 C 366.774 901.687 367.09 886.738 376.275 868.108 C 378.391 863.815 381.165 858.982 382.749 854.567 C 381.577 850.529 381.288 850.045 381.465 845.945 z"/>
<path transform="translate(0,0)" fill="rgb(213,220,197)" d="M 382.749 854.567 C 381.165 858.982 378.391 863.815 376.275 868.108 C 367.09 886.738 366.774 901.687 369.322 922.249 C 367.852 920.844 367.016 918.988 366.121 917.182 C 363.242 920.909 366.355 917.597 365.505 921.963 L 360.022 918.014 L 360.114 916.871 L 364.602 915.407 C 369.185 908.364 363.933 868.125 382.749 854.567 z"/>
<path transform="translate(0,0)" fill="rgb(213,220,197)" d="M 259.302 829.143 C 276.895 828.389 305.081 845.153 319.959 855.229 C 325.111 858.718 332.23 865.516 337.523 867.943 L 337.201 865.732 L 338.129 865.314 L 340.233 867.67 L 340.979 867.448 L 341.765 868.416 L 341.43 872.598 C 337.221 873.766 330.177 865.762 326.456 862.53 C 304.134 843.139 283.068 839.584 260.053 829.481 L 259.302 829.143 z"/>
<path transform="translate(0,0)" fill="rgb(245,237,243)" d="M 1702.42 461.46 C 1737.99 460.371 1778.64 462.392 1814.63 461.581 C 1830.23 461.229 1885.68 460.384 1896.65 463.221 C 1906.78 470.402 1905.18 548.246 1898.6 560.37 C 1895.97 565.219 1870.13 563.753 1865.25 563.673 L 1783.88 563.594 C 1764.86 563.479 1719.13 561.306 1702.71 566.361 C 1697.86 571.852 1691.39 582.022 1687.09 588.422 C 1685.13 572.957 1683.02 475.046 1689.5 466.007 C 1692.37 461.998 1697.99 461.964 1702.42 461.46 z"/>
<path transform="translate(0,0)" fill="rgb(203,219,233)" d="M 1695.32 523.819 C 1725.31 523.207 1756.62 523.779 1786.72 523.609 C 1801.75 523.524 1830.73 522.732 1844.84 524.07 C 1846.8 526.34 1846.05 526.95 1846.09 530.936 C 1806.75 531.73 1767.1 530.702 1727.73 531.141 C 1717.72 531.252 1707.05 531.372 1697.11 530.699 C 1694.96 528.708 1695.67 527.803 1695.32 523.819 z"/>
<path transform="translate(0,0)" fill="rgb(200,216,233)" d="M 1695.49 493.057 C 1721.59 492.712 1748.23 492.997 1774.37 492.896 C 1787.2 492.846 1810.35 492.147 1821.82 493.4 C 1823.6 495.94 1822.86 496.66 1822.77 500.589 C 1799.02 501.679 1771.02 500.34 1746.87 500.822 C 1736.76 501.024 1705.83 501.543 1697.18 500.417 C 1694.78 497.638 1695.61 497.84 1695.49 493.057 z"/>
<path transform="translate(0,0)" fill="rgb(203,219,233)" d="M 1695.2 477.863 L 1776.6 477.765 C 1788.47 477.739 1810.71 477.091 1821.82 478.226 C 1823.57 480.323 1822.97 481.489 1823.16 484.935 L 1745.11 485.089 C 1731.19 485.14 1709.81 485.937 1696.76 484.642 C 1694.79 482.478 1695.46 481.66 1695.2 477.863 z"/>
<path transform="translate(0,0)" fill="rgb(203,219,233)" d="M 1695.43 508.201 C 1721.57 507.293 1748.69 508.559 1774.94 508.013 C 1785.41 507.795 1797.95 507.524 1808.2 508.434 C 1810.06 511.515 1809.37 511.563 1809.38 515.823 L 1736.97 515.917 C 1727.13 515.942 1706.15 516.549 1697.03 515.421 C 1694.75 512.368 1695.52 512.901 1695.43 508.201 z"/>
<path transform="translate(0,0)" fill="rgb(203,219,233)" d="M 1723.85 539.529 C 1725.76 538.423 1728.21 539.019 1729.39 540.882 C 1730.58 542.745 1730.09 545.214 1728.28 546.483 C 1727.04 547.355 1725.42 547.474 1724.06 546.793 C 1722.71 546.113 1721.83 544.743 1721.79 543.226 C 1721.74 541.708 1722.53 540.289 1723.85 539.529 z"/>
<path transform="translate(0,0)" fill="rgb(203,219,233)" d="M 1710.72 539.567 C 1712.64 538.329 1715.2 538.884 1716.43 540.806 C 1717.66 542.728 1717.1 545.286 1715.18 546.513 C 1713.26 547.736 1710.71 547.176 1709.48 545.262 C 1708.26 543.347 1708.81 540.8 1710.72 539.567 z"/>
<path transform="translate(0,0)" fill="rgb(195,209,190)" d="M 1736.59 1153.6 C 1753.19 1129.3 1788.26 1107.97 1817.54 1104.26 C 1826.82 1103.08 1833.21 1115.15 1825.46 1122.76 C 1815.75 1132.29 1803.59 1134.93 1791.02 1139.06 C 1784.3 1141.69 1743.27 1152.44 1741.39 1154.59 C 1743.35 1155.53 1743.91 1155.97 1746.08 1156.19 L 1741.01 1157.57 C 1761.72 1170.67 1784.51 1179.47 1804.38 1194.31 C 1824.13 1209.06 1813.97 1225.3 1793.02 1217.21 C 1766.37 1206.94 1745.84 1181.92 1734.06 1156.42 C 1709.13 1150.97 1687.51 1145.37 1663.04 1139.37 L 1660.69 1137.71 L 1661.33 1136.53 C 1667.11 1136.53 1679.38 1140.73 1685.53 1142.24 C 1701.35 1146.11 1720.44 1152.04 1736.59 1153.6 z"/>
<path transform="translate(0,0)" fill="rgb(195,209,190)" d="M 1906.81 1154.99 C 1915.7 1151.94 1919.35 1150.33 1927.21 1145.45 C 1935.74 1140.16 1971.57 1101.65 1977.93 1122.75 C 1974.34 1141.31 1924.63 1149.81 1908.14 1158.41 C 1914.95 1160.33 1951 1164.7 1945.11 1175.14 C 1932.01 1181.7 1912.05 1168.16 1902.6 1159.59 C 1889.17 1162.81 1878.94 1164.37 1865.08 1165.59 C 1878.41 1170.73 1893.11 1175.78 1905.68 1182.61 C 1910.96 1185.48 1914 1188.95 1913.33 1195.21 C 1906.6 1206.36 1891.93 1196.33 1884.45 1190.71 C 1875.56 1184.04 1869.46 1175.56 1863.86 1166.11 L 1860.88 1164.89 L 1861.18 1163.99 C 1866.66 1147.35 1869.93 1130.65 1886.76 1121.78 C 1892.76 1118.62 1899.76 1118.01 1903.75 1124.17 C 1906.04 1137.35 1874.23 1156.5 1863.96 1163.59 C 1877 1161.95 1889.57 1160.33 1902.19 1156.46 C 1903.7 1145.11 1909.77 1122.2 1925.02 1124.08 C 1934.25 1132.53 1912.91 1149.38 1906.81 1154.99 z"/>
<path transform="translate(0,0)" fill="rgb(195,209,190)" d="M 1790.04 1161.15 C 1796.91 1146.7 1849.54 1112.6 1860.09 1129.23 C 1861.78 1147.65 1807.97 1153.14 1797.82 1160.86 L 1798.44 1161.97 L 1799.8 1162.24 L 1794.86 1163.71 C 1794.95 1166.36 1830.32 1177.17 1835.6 1179.47 C 1848.95 1185.26 1868 1188.56 1877.62 1200.75 C 1886.09 1211.48 1874.6 1220.98 1862.14 1217.25 C 1833.49 1208.68 1804.77 1189.29 1789.04 1163.49 L 1790.04 1161.15 z"/>
<path transform="translate(0,0)" fill="rgb(195,209,190)" d="M 1736.71 1209.18 C 1713.16 1209.23 1652.6 1161.64 1657.21 1141.65 C 1660.05 1139.05 1658.72 1139.79 1663.04 1139.37 C 1674.46 1149.5 1777.26 1189.68 1736.71 1209.18 z"/>
<path transform="translate(0,0)" fill="rgb(195,209,190)" d="M 1757.6 1094.49 C 1771.66 1095.02 1780.1 1103.46 1771.11 1112.04 C 1755.81 1126.64 1697.76 1129.09 1677.76 1131.19 C 1672.41 1131.86 1667.17 1133.62 1663.07 1129.8 C 1663.1 1127.38 1663.37 1125.85 1665.47 1124.22 C 1690.54 1104.72 1727.36 1095.77 1757.6 1094.49 z"/>
<path transform="translate(0,0)" fill="rgb(181,193,180)" fill-opacity="0.941176" d="M 1819.53 1162.63 C 1826.68 1162.79 1856.59 1162.75 1861.18 1163.99 L 1860.88 1164.89 L 1863.86 1166.11 C 1847.39 1165.95 1828.38 1166.22 1812.2 1164.59 C 1814.19 1163.17 1817.02 1163.04 1819.53 1162.63 z"/>
<path transform="translate(0,0)" fill="rgb(181,193,180)" fill-opacity="0.972549" d="M 1746.08 1156.19 C 1759.83 1157.55 1776.63 1158.83 1790.04 1161.15 L 1789.04 1163.49 C 1776.51 1161.9 1752.65 1158.36 1741.01 1157.57 L 1746.08 1156.19 z"/>
<path transform="translate(0,0)" fill="rgb(245,237,243)" fill-opacity="0.878431" d="M 1068.4 304.749 C 1076.65 306.309 1095.37 321.465 1103.42 327.207 C 1094.22 324.612 1076.83 310.977 1068.4 304.749 z"/>
<path transform="translate(0,0)" fill="rgb(245,237,243)" fill-opacity="0.439216" d="M 1659.48 352.513 C 1664.2 351.556 1692.29 352.148 1694.68 353.568 C 1691.62 355.201 1663.1 354.117 1659.48 352.513 z"/>
<path transform="translate(0,0)" fill="rgb(181,193,180)" fill-opacity="0.823529" d="M 1799.8 1162.24 C 1807.45 1161.92 1811.89 1162.04 1819.53 1162.63 C 1817.02 1163.04 1814.19 1163.17 1812.2 1164.59 C 1808.47 1163.84 1799.11 1163.83 1794.86 1163.71 L 1799.8 1162.24 z"/>
<path transform="translate(0,0)" fill="rgb(245,237,243)" fill-opacity="0.337255" d="M 1139.99 299.893 C 1144.23 297.792 1150.16 295.948 1153.25 300.664 C 1151.72 301.652 1152.47 301.523 1151.13 301.475 C 1146.86 299.318 1144.77 299.797 1139.99 299.893 z"/>
</svg>