<svg version="1.1" xmlns="http://www.w3.org/2000/svg" style="display: block;" viewBox="0 0 2048 1365" width="2000" height="1333" preserveAspectRatio="none">
<defs>
	<linearGradient id="Gradient1" gradientUnits="userSpaceOnUse" x1="581.409" y1="382.438" x2="585.713" y2="439.173">
		<stop class="stop0" offset="0" stop-opacity="1" stop-color="rgb(19,197,221)"/>
		<stop class="stop1" offset="1" stop-opacity="1" stop-color="rgb(23,170,231)"/>
	</linearGradient>
	<linearGradient id="Gradient2" gradientUnits="userSpaceOnUse" x1="627.508" y1="358.969" x2="537.199" y2="499.485">
		<stop class="stop0" offset="0" stop-opacity="1" stop-color="rgb(21,201,220)"/>
		<stop class="stop1" offset="1" stop-opacity="1" stop-color="rgb(24,154,238)"/>
	</linearGradient>
	<linearGradient id="Gradient3" gradientUnits="userSpaceOnUse" x1="1473.7" y1="694.803" x2="1484.86" y2="878.461">
		<stop class="stop0" offset="0" stop-opacity="1" stop-color="rgb(244,147,248)"/>
		<stop class="stop1" offset="1" stop-opacity="1" stop-color="rgb(185,110,252)"/>
	</linearGradient>
	<linearGradient id="Gradient4" gradientUnits="userSpaceOnUse" x1="1231.7" y1="914.559" x2="1089.57" y2="918.328">
		<stop class="stop0" offset="0" stop-opacity="1" stop-color="rgb(133,138,250)"/>
		<stop class="stop1" offset="1" stop-opacity="1" stop-color="rgb(97,106,255)"/>
	</linearGradient>
	<linearGradient id="Gradient5" gradientUnits="userSpaceOnUse" x1="1193.91" y1="720.056" x2="1175.43" y2="850.567">
		<stop class="stop0" offset="0" stop-opacity="1" stop-color="rgb(139,143,251)"/>
		<stop class="stop1" offset="1" stop-opacity="1" stop-color="rgb(102,110,255)"/>
	</linearGradient>
	<linearGradient id="Gradient6" gradientUnits="userSpaceOnUse" x1="1178.55" y1="367.698" x2="1144.8" y2="493.277">
		<stop class="stop0" offset="0" stop-opacity="1" stop-color="rgb(20,205,218)"/>
		<stop class="stop1" offset="1" stop-opacity="1" stop-color="rgb(23,153,240)"/>
	</linearGradient>
	<linearGradient id="Gradient7" gradientUnits="userSpaceOnUse" x1="887.924" y1="427.337" x2="928.199" y2="428.255">
		<stop class="stop0" offset="0" stop-opacity="1" stop-color="rgb(190,114,248)"/>
		<stop class="stop1" offset="1" stop-opacity="1" stop-color="rgb(234,143,244)"/>
	</linearGradient>
	<linearGradient id="Gradient8" gradientUnits="userSpaceOnUse" x1="998.507" y1="653.28" x2="1040.54" y2="643.932">
		<stop class="stop0" offset="0" stop-opacity="1" stop-color="rgb(164,165,219)"/>
		<stop class="stop1" offset="1" stop-opacity="1" stop-color="rgb(139,141,235)"/>
	</linearGradient>
	<linearGradient id="Gradient9" gradientUnits="userSpaceOnUse" x1="960.887" y1="659.365" x2="1044.39" y2="666.325">
		<stop class="stop0" offset="0" stop-opacity="1" stop-color="rgb(222,220,192)"/>
		<stop class="stop1" offset="1" stop-opacity="1" stop-color="rgb(207,216,221)"/>
	</linearGradient>
	<linearGradient id="Gradient10" gradientUnits="userSpaceOnUse" x1="994.513" y1="619.914" x2="1112.1" y2="857.138">
		<stop class="stop0" offset="0" stop-opacity="1" stop-color="rgb(20,201,219)"/>
		<stop class="stop1" offset="1" stop-opacity="1" stop-color="rgb(23,155,240)"/>
	</linearGradient>
	<linearGradient id="Gradient11" gradientUnits="userSpaceOnUse" x1="843.642" y1="791.038" x2="722.086" y2="795.403">
		<stop class="stop0" offset="0" stop-opacity="1" stop-color="rgb(49,99,158)"/>
		<stop class="stop1" offset="1" stop-opacity="1" stop-color="rgb(84,143,202)"/>
	</linearGradient>
	<linearGradient id="Gradient12" gradientUnits="userSpaceOnUse" x1="1023.52" y1="1154.26" x2="1023.21" y2="979.115">
		<stop class="stop0" offset="0" stop-opacity="1" stop-color="rgb(138,193,223)"/>
		<stop class="stop1" offset="1" stop-opacity="1" stop-color="rgb(162,223,227)"/>
	</linearGradient>
</defs>
<path transform="translate(0,0)" fill="url(#Gradient12)" d="M 1103.96 266.703 C 1117.87 264.242 1133.76 265.085 1147.87 265.268 C 1251.35 266.61 1332.26 319.468 1397.12 396.146 L 1399.7 399.666 C 1432.93 440.184 1461.83 508.554 1473.92 559.052 C 1479.07 571.842 1481.91 585.084 1485.71 598.311 C 1492.72 622.766 1499.39 648.876 1508.59 672.508 L 1509.71 675.878 C 1515.31 683.832 1520.14 698.316 1524.81 707.182 C 1546.32 748.041 1576.91 775.013 1617.83 795.785 C 1645.22 809.69 1671.61 834.527 1686.69 861.804 L 1688.81 866.022 C 1692.43 872.975 1696.63 879.305 1699.75 886.596 C 1722.61 939.921 1726.46 1007.53 1711.36 1063.44 C 1707.16 1078.96 1690.64 1116.13 1678.08 1125.94 C 1692.36 1126.5 1735.89 1123.27 1741.42 1132.18 C 1759.81 1161.85 1704.81 1155.36 1697.76 1155.35 L 1634.08 1155.34 L 1433.21 1155.35 L 594.895 1155.36 L 392.83 1155.33 C 377.393 1155.32 328.288 1157.35 315.46 1154.44 C 311.455 1153.54 307.308 1151.81 304.909 1148.31 C 302.983 1145.49 302.898 1142.12 303.616 1138.88 C 304.549 1134.67 306.741 1130.7 310.636 1128.59 C 319.164 1123.98 385.701 1126.72 401.098 1126 C 393.701 1120.97 386.159 1110.37 380.347 1103.14 C 347.669 1062.46 315.702 1006.97 304.352 955.885 L 302.922 952.023 C 296.997 933.103 293.735 902.9 293.49 882.886 C 292.423 824.429 307.661 766.831 337.496 716.549 C 345.409 703.03 352.932 690.723 363.959 679.397 L 367.318 675.038 C 368.438 673.251 370.633 670.608 372.074 669.045 C 418.597 618.58 485.311 596.866 551.081 585.078 C 569.51 581.776 586.624 577.387 605.213 576.35 L 606.495 575.732 C 607.262 570.127 597.598 523.228 595.957 514.3 C 599.053 513.825 602.119 513.179 605.144 512.368 C 621.431 507.997 636.064 498.914 647.208 486.258 C 654.333 487.21 684.518 486.718 693.002 486.747 L 792.851 486.928 C 809.029 468.086 837.73 413.012 859.873 400.181 L 865.256 393.514 C 869.695 384.229 892.772 364.317 901.226 357.537 L 905.737 353.966 C 910.15 348.437 925.201 338.465 931.458 334.053 C 981.124 299.037 1037.37 275.867 1097.72 267.115 L 1103.96 266.703 z"/>
<path transform="translate(0,0)" fill="rgb(228,247,252)" d="M 859.873 400.181 C 859.255 404.163 858.726 408.07 859.18 412.097 C 861.041 428.609 885.35 556.667 890.333 563.7 C 893.823 568.626 900.16 571.048 905.971 571.664 C 912.649 572.371 919.798 571.83 926.526 571.706 C 928.835 586.838 940.455 660.64 946.13 669.226 L 946.163 669.635 C 927.72 671.335 918.883 674.756 907.92 689.798 C 903.194 689.799 898.61 689.355 894.382 691.323 L 893.238 692.698 C 895.598 695.478 913.451 763.617 915.886 772.141 C 913.411 774.788 911.392 774.076 907.717 773.854 L 908.009 784.127 C 890.133 783.323 867.268 783.992 849.013 784.006 C 841.725 791.736 842.061 796.248 849.637 803.404 C 845.337 803.492 839.644 803.775 835.467 803.613 C 826.95 802.759 777.134 802.736 768.518 803.527 C 766.429 805.822 766.787 807.312 766.196 810.789 L 765.02 808.95 L 765.823 805.687 C 761.119 805.518 747.377 804.664 744.14 806.445 C 742.596 811.101 743.048 813.58 740.82 817.103 C 737.601 823.375 733.494 873.334 730.267 883.556 C 730.123 883.359 730.007 883.14 729.836 882.967 C 724.427 877.502 660.168 875.66 648.653 874.89 L 647.411 878.995 C 627.888 914.954 609.735 935.66 607.916 978.545 L 594.432 978.5 C 588.812 978.606 555.747 979.555 551.797 977.925 C 546.59 979.263 531.709 978.735 525.688 978.655 C 526.874 991.783 528.987 1019.04 531.471 1031.21 L 531.226 1033.66 C 532.887 1039.93 533.057 1051.3 534.047 1058.21 C 537.044 1079.14 537.61 1105.92 541.079 1126.3 L 452.689 1126.35 C 436.378 1126.36 417.21 1126.82 401.098 1126 C 393.701 1120.97 386.159 1110.37 380.347 1103.14 C 347.669 1062.46 315.702 1006.97 304.352 955.885 L 302.922 952.023 C 296.997 933.103 293.735 902.9 293.49 882.886 C 292.423 824.429 307.661 766.831 337.496 716.549 C 345.409 703.03 352.932 690.723 363.959 679.397 L 367.318 675.038 C 368.438 673.251 370.633 670.608 372.074 669.045 C 418.597 618.58 485.311 596.866 551.081 585.078 C 569.51 581.776 586.624 577.387 605.213 576.35 L 606.495 575.732 C 607.262 570.127 597.598 523.228 595.957 514.3 C 599.053 513.825 602.119 513.179 605.144 512.368 C 621.431 507.997 636.064 498.914 647.208 486.258 C 654.333 487.21 684.518 486.718 693.002 486.747 L 792.851 486.928 C 809.029 468.086 837.73 413.012 859.873 400.181 z"/>
<path transform="translate(0,0)" fill="rgb(228,247,252)" d="M 302.922 952.023 C 296.997 933.103 293.735 902.9 293.49 882.886 C 292.423 824.429 307.661 766.831 337.496 716.549 C 345.409 703.03 352.932 690.723 363.959 679.397 C 370.154 690.389 375.167 712.001 381.375 725.31 C 403.767 773.312 446.928 817.391 495.491 838.393 L 500.01 837.966 C 508.231 837.676 512.557 841.955 518.84 847.209 L 523.479 852.53 C 527.246 853.373 536.183 855.722 539.559 856.121 L 542.178 873.7 C 550.307 875.242 553.59 876.874 559.418 882.998 L 561.305 884.275 C 566.568 893.484 580.337 918.2 581.671 928.804 L 585.77 940.845 C 586.681 943.217 587.887 946.096 588.657 948.459 C 589.098 954.429 592.882 971.956 594.432 978.5 C 588.812 978.606 555.747 979.555 551.797 977.925 C 546.59 979.263 531.709 978.735 525.688 978.655 C 526.874 991.783 528.987 1019.04 531.471 1031.21 L 531.226 1033.66 C 532.887 1039.93 533.057 1051.3 534.047 1058.21 C 537.044 1079.14 537.61 1105.92 541.079 1126.3 L 452.689 1126.35 C 436.378 1126.36 417.21 1126.82 401.098 1126 C 393.701 1120.97 386.159 1110.37 380.347 1103.14 C 347.669 1062.46 315.702 1006.97 304.352 955.885 L 302.922 952.023 z"/>
<path transform="translate(0,0)" fill="rgb(228,247,252)" d="M 304.352 955.885 C 309.434 956.866 349.744 980.633 358.09 984.678 C 403.343 1006.61 449.785 1021.35 499.264 1030.26 C 506.005 1031.47 525.107 1034.67 531.226 1033.66 C 532.887 1039.93 533.057 1051.3 534.047 1058.21 C 537.044 1079.14 537.61 1105.92 541.079 1126.3 L 452.689 1126.35 C 436.378 1126.36 417.21 1126.82 401.098 1126 C 393.701 1120.97 386.159 1110.37 380.347 1103.14 C 347.669 1062.46 315.702 1006.97 304.352 955.885 z"/>
<path transform="translate(0,0)" fill="rgb(150,134,250)" d="M 500.01 837.966 C 508.231 837.676 512.557 841.955 518.84 847.209 L 523.479 852.53 C 527.246 853.373 536.183 855.722 539.559 856.121 L 542.178 873.7 C 550.307 875.242 553.59 876.874 559.418 882.998 L 561.305 884.275 C 566.568 893.484 580.337 918.2 581.671 928.804 L 585.77 940.845 C 586.681 943.217 587.887 946.096 588.657 948.459 C 589.098 954.429 592.882 971.956 594.432 978.5 C 588.812 978.606 555.747 979.555 551.797 977.925 C 548.113 971.382 542.948 965.319 538.261 959.407 C 534.774 956.876 520.277 940.005 517.875 936.438 C 507.786 921.456 508.919 911.826 511.839 895.554 C 499.864 882.637 478.463 854.062 495.491 838.393 L 500.01 837.966 z"/>
<path transform="translate(0,0)" fill="rgb(124,125,245)" d="M 565.728 961.791 C 574.764 955.66 574.396 956.728 584.304 952.809 C 589.057 946.67 580.232 936.933 581.671 928.804 L 585.77 940.845 C 586.681 943.217 587.887 946.096 588.657 948.459 C 589.098 954.429 592.882 971.956 594.432 978.5 C 588.812 978.606 555.747 979.555 551.797 977.925 C 548.113 971.382 542.948 965.319 538.261 959.407 C 542.317 959.601 546.069 966.055 548.125 969.098 L 550.777 969.416 C 569.796 958.281 550.082 951.331 550.591 935.84 C 554.412 942.134 565.242 973.336 567.569 975.03 L 567.195 975.671 L 567.599 976.312 C 568.669 968.464 555.954 946.154 554.493 937.098 C 557.446 938.277 563.341 956.891 565.728 961.791 z"/>
<path transform="translate(0,0)" fill="rgb(79,93,249)" d="M 550.591 935.84 C 546.946 923.712 530.005 894.016 523.512 882.154 C 519.903 875.56 511.385 864.798 508.948 857.699 L 509.684 857.061 C 518.929 863.322 549.122 925.799 554.493 937.098 C 555.954 946.154 568.669 968.464 567.599 976.312 L 567.195 975.671 L 567.569 975.03 C 565.242 973.336 554.412 942.134 550.591 935.84 z"/>
<path transform="translate(0,0)" fill="rgb(229,239,243)" d="M 523.479 852.53 C 527.246 853.373 536.183 855.722 539.559 856.121 L 542.178 873.7 C 536.758 873.672 527.502 857.619 523.479 852.53 z"/>
<path transform="translate(0,0)" fill="rgb(252,254,253)" d="M 302.922 952.023 L 304.507 950.431 C 308.964 951.188 316.987 956.388 321.143 958.934 C 350.525 976.934 379.922 990.51 412.323 1002.27 C 436.929 1011.22 462.21 1018.2 487.926 1023.14 C 496.349 1024.78 526.087 1029.18 531.471 1031.21 L 531.226 1033.66 C 525.107 1034.67 506.005 1031.47 499.264 1030.26 C 449.785 1021.35 403.343 1006.61 358.09 984.678 C 349.744 980.633 309.434 956.866 304.352 955.885 L 302.922 952.023 z"/>
<path transform="translate(0,0)" fill="rgb(229,239,243)" d="M 859.873 400.181 C 859.255 404.163 858.726 408.07 859.18 412.097 C 861.041 428.609 885.35 556.667 890.333 563.7 C 893.823 568.626 900.16 571.048 905.971 571.664 C 912.649 572.371 919.798 571.83 926.526 571.706 C 928.835 586.838 940.455 660.64 946.13 669.226 L 946.163 669.635 C 927.72 671.335 918.883 674.756 907.92 689.798 C 903.194 689.799 898.61 689.355 894.382 691.323 L 893.238 692.698 L 892.104 693.539 C 892.292 692.084 892.559 691.474 892.99 690.041 L 895.77 688.778 C 891.22 686.327 878.253 679.876 875.022 676.826 C 862.403 680.908 787.582 678.856 770.452 678.848 L 688.371 678.879 C 673.323 678.895 658.311 678.988 643.241 678.708 C 637.337 679.456 626.782 673.331 625.075 666.99 C 617.698 639.596 614.871 610.142 608.796 582.332 C 607.967 578.538 608.349 578.265 605.213 576.35 L 606.495 575.732 C 607.262 570.127 597.598 523.228 595.957 514.3 C 599.053 513.825 602.119 513.179 605.144 512.368 C 621.431 507.997 636.064 498.914 647.208 486.258 C 654.333 487.21 684.518 486.718 693.002 486.747 L 792.851 486.928 C 809.029 468.086 837.73 413.012 859.873 400.181 z"/>
<path transform="translate(0,0)" fill="rgb(124,125,245)" d="M 595.957 514.3 C 599.053 513.825 602.119 513.179 605.144 512.368 L 622.611 611.02 C 625.358 626.608 627.6 643.816 632 658.998 C 634.159 666.448 643.399 670.609 650.605 670.157 C 667.801 670.513 685.004 670.265 702.208 670.201 L 791.378 670.234 L 845.842 670.252 C 857.527 670.239 872.499 673.454 878.94 662.693 C 879.195 662.263 879.443 661.829 879.684 661.39 C 882.118 664.164 880.3 670.148 878.47 672.991 L 875.022 676.826 C 862.403 680.908 787.582 678.856 770.452 678.848 L 688.371 678.879 C 673.323 678.895 658.311 678.988 643.241 678.708 C 637.337 679.456 626.782 673.331 625.075 666.99 C 617.698 639.596 614.871 610.142 608.796 582.332 C 607.967 578.538 608.349 578.265 605.213 576.35 L 606.495 575.732 C 607.262 570.127 597.598 523.228 595.957 514.3 z"/>
<path transform="translate(0,0)" fill="rgb(252,254,253)" d="M 878.47 672.991 C 884.199 676.576 901.762 684.459 902.863 688.225 C 900.462 689.412 898.545 688.963 895.77 688.778 C 891.22 686.327 878.253 679.876 875.022 676.826 L 878.47 672.991 z"/>
<path transform="translate(0,0)" fill="rgb(211,128,248)" d="M 686.82 617.036 C 724.941 615.287 765.606 617.619 803.912 616.967 C 818.211 616.724 831.622 636.437 814.14 647.804 C 783.308 649.168 751.138 647.37 720.235 648.245 C 703.555 648.716 678.202 651.38 678.935 627.628 C 679.088 622.65 683.209 619.649 686.82 617.036 z"/>
<path transform="translate(0,0)" fill="rgb(124,125,245)" d="M 640.998 589.047 C 707.065 587.039 774.99 590.437 841.227 589.063 C 844.453 588.996 847.009 588.706 849.689 590.666 C 851.317 593.648 851.13 593.919 850.693 597.459 C 834.762 598.475 792.796 598.384 778.044 597.896 C 761.644 597.355 648.106 599.956 642.41 596.292 C 640.483 593.334 640.778 592.789 640.998 589.047 z"/>
<path transform="translate(0,0)" fill="rgb(124,125,245)" d="M 636.995 561.255 L 769.553 561.355 C 779.487 561.362 839.189 560.044 844.562 563.044 C 846.351 566.558 845.801 565.443 845.48 569.937 L 706.689 570.121 C 685.391 570.14 663.194 570.244 641.835 570.028 C 638.883 569.998 638.948 569.676 636.841 568.039 C 635.745 564 635.843 565.707 636.995 561.255 z"/>
<path transform="translate(0,0)" fill="rgb(124,125,245)" d="M 713.996 533.971 L 794.147 533.939 C 801.704 533.926 835.419 532.481 839.795 536.222 C 841.16 539.919 840.973 538.309 839.979 542.622 C 803.548 544.373 765.072 541.728 728.478 543.12 C 724.118 543.285 717.565 543.605 714.124 540.803 C 712.739 536.972 712.982 538.593 713.996 533.971 z"/>
<path transform="translate(0,0)" fill="rgb(124,125,245)" d="M 710.096 508.337 C 748.485 507.141 788.086 509.116 826.595 508.471 C 830.583 508.404 832.906 508.484 835.625 511.368 C 836.026 515.178 836.327 513.741 834.75 516.949 C 796.114 517.251 757.365 517.251 718.725 517.293 C 713.673 517.299 712.1 517.691 708.899 514.408 C 708.463 510.669 708.319 512.195 710.096 508.337 z"/>
<path transform="translate(0,0)" fill="rgb(124,125,245)" d="M 647.31 512.682 C 649.338 513.255 648.594 512.992 650.33 514.491 L 650.236 516.172 C 647.369 520.061 640.351 524.663 636.215 527.677 C 641.069 530.388 652.844 534.92 654.706 539.474 L 653.573 541.998 C 644.996 537.569 635.912 533.107 627.827 527.906 C 632.882 523.241 641.544 517.039 647.31 512.682 z"/>
<path transform="translate(0,0)" fill="rgb(124,125,245)" d="M 665.963 512.8 C 672.601 513.181 688.214 524.094 694.209 528.036 C 688.644 532.049 682 536.323 676.247 540.202 C 675.234 540.718 673.352 541.065 672.166 541.35 L 671.178 539.977 C 672.587 535.315 681.124 530.6 685.461 527.806 C 677.818 522.923 669.393 520.607 665.963 512.8 z"/>
<path transform="translate(0,0)" fill="rgb(211,128,248)" d="M 596.666 828.241 L 601.058 830.879 C 604.821 829.619 610.601 819.657 613.473 815.733 C 624.066 801.262 645.435 771.982 666.337 781.818 C 678.373 787.482 661.685 813.994 656.449 821.735 C 650.991 829.757 645.117 837.489 638.853 844.898 C 650.926 853.507 653.244 860.888 648.653 874.89 L 647.411 878.995 C 627.888 914.954 609.735 935.66 607.916 978.545 L 594.432 978.5 C 592.882 971.956 589.098 954.429 588.657 948.459 C 587.887 946.096 586.681 943.217 585.77 940.845 L 581.671 928.804 C 580.337 918.2 566.568 893.484 561.305 884.275 C 564.266 871.474 565.985 862.632 570.31 850.164 C 578.743 838.721 575.528 824.861 596.666 828.241 z"/>
<path transform="translate(0,0)" fill="rgb(161,80,218)" d="M 585.77 940.845 L 586.114 939.99 C 589.551 931.229 592.063 914.67 594.927 904.855 C 605.064 870.128 619.053 830.465 643.357 803.022 L 644.129 803.017 C 640.119 811.524 635.287 816.653 630.634 824.52 C 609.063 860.988 593.993 906.524 588.657 948.459 C 587.887 946.096 586.681 943.217 585.77 940.845 z"/>
<path transform="translate(0,0)" fill="rgb(150,134,250)" d="M 538.399 758.543 C 533.325 747.516 523.488 711.676 528.912 702.697 C 543.055 679.282 562.957 711.999 566.3 724.844 C 570.477 740.897 572.506 749.016 573.33 763.884 C 606.418 769.256 599.168 802.769 596.666 828.241 C 575.528 824.861 578.743 838.721 570.31 850.164 C 565.985 862.632 564.266 871.474 561.305 884.275 L 559.418 882.998 C 553.59 876.874 550.307 875.242 542.178 873.7 L 539.559 856.121 L 538.208 850.048 C 531.417 826.65 512.636 785.362 542.505 771.558 C 540.871 767.117 539.274 763.206 538.399 758.543 z"/>
<path transform="translate(0,0)" fill="rgb(124,125,245)" d="M 538.399 758.543 C 538.01 751.78 534.551 739.475 533.44 731.407 C 534.747 735.256 536.351 741.275 540.316 742.391 C 558.774 747.591 550.658 756.787 555.404 771.27 L 556.336 770.938 C 563.675 797.698 560.149 855.096 559.418 882.998 C 553.59 876.874 550.307 875.242 542.178 873.7 L 539.559 856.121 L 538.208 850.048 C 531.417 826.65 512.636 785.362 542.505 771.558 C 540.871 767.117 539.274 763.206 538.399 758.543 z"/>
<path transform="translate(0,0)" fill="rgb(79,93,249)" d="M 556.336 770.938 C 555.587 762.955 554.357 755.024 552.652 747.188 C 551.169 740.386 547.835 733.505 548.23 727.046 L 548.963 726.484 C 558.013 744.157 563.1 802.553 563.572 824.112 C 563.702 830.052 564.724 854.88 566.068 859.155 C 566.113 857.235 567.969 850.544 569.744 849.865 L 570.31 850.164 C 565.985 862.632 564.266 871.474 561.305 884.275 L 559.418 882.998 C 560.149 855.096 563.675 797.698 556.336 770.938 z"/>
<path transform="translate(0,0)" fill="url(#Gradient11)" d="M 742.609 803.253 C 737.881 803.311 727.983 804.123 724.469 801.211 C 717.492 795.429 721.281 784.548 730.761 784.148 C 743.452 783.611 756.223 783.883 768.943 783.897 L 849.013 784.006 C 841.725 791.736 842.061 796.248 849.637 803.404 C 845.337 803.492 839.644 803.775 835.467 803.613 C 826.95 802.759 777.134 802.736 768.518 803.527 C 766.429 805.822 766.787 807.312 766.196 810.789 L 765.02 808.95 L 765.823 805.687 C 761.119 805.518 747.377 804.664 744.14 806.445 C 742.596 811.101 743.048 813.58 740.82 817.103 L 742.609 803.253 z"/>
<path transform="translate(0,0)" fill="rgb(252,254,253)" d="M 367.318 675.038 C 371.938 680.938 375.519 700.052 378.802 708.132 C 388.777 732.682 401.953 755.315 419.446 775.255 C 432.769 790.428 447.873 803.938 464.43 815.495 C 471.742 820.512 497.884 833.463 500.01 837.966 L 495.491 838.393 C 446.928 817.391 403.767 773.312 381.375 725.31 C 375.167 712.001 370.154 690.389 363.959 679.397 L 367.318 675.038 z"/>
<path transform="translate(0,0)" fill="rgb(124,125,245)" d="M 893.238 692.698 C 895.598 695.478 913.451 763.617 915.886 772.141 C 913.411 774.788 911.392 774.076 907.717 773.854 C 902.353 752.909 895.572 732.016 890.439 711.006 C 888.602 703.49 887.973 699.981 892.104 693.539 L 893.238 692.698 z"/>
<path transform="translate(0,0)" fill="rgb(252,254,253)" d="M 518.84 847.209 C 525.866 844.832 530.696 850.359 538.208 850.048 L 539.559 856.121 C 536.183 855.722 527.246 853.373 523.479 852.53 L 518.84 847.209 z"/>
<path transform="translate(0,0)" fill="rgb(228,247,252)" d="M 1103.96 266.703 C 1117.87 264.242 1133.76 265.085 1147.87 265.268 C 1251.35 266.61 1332.26 319.468 1397.12 396.146 L 1399.7 399.666 C 1432.93 440.184 1461.83 508.554 1473.92 559.052 C 1479.07 571.842 1481.91 585.084 1485.71 598.311 C 1492.72 622.766 1499.39 648.876 1508.59 672.508 L 1509.71 675.878 C 1504.46 677.111 1489.65 674.033 1483.83 673.112 C 1410.91 661.582 1335.45 665.686 1262.45 674.308 C 1246.42 676.247 1230.43 678.568 1214.51 681.27 C 1205.26 682.809 1162.42 691.629 1156.08 690.456 C 1167.27 701.315 1173.6 711.155 1178.7 725.977 C 1173.87 727.81 1150.2 726.657 1142.43 727.212 C 1137.04 728.675 1128.93 733.028 1127.17 737.839 C 1118.54 761.324 1109.1 804.066 1104.72 828.293 C 1107.37 837.067 1108.26 838.899 1115.75 844.471 C 1113.62 844.702 1111.49 844.847 1109.35 844.906 C 1101.78 845.141 1098.52 842.746 1093.35 837.94 C 1083.9 863.372 1087.81 881.074 1053.87 884.512 C 1046.47 874.48 1044.91 867.268 1042.74 855.217 C 1041.96 850.863 1042.59 849.585 1040.93 845.242 C 1041.82 844.235 1041.29 843.061 1042.14 841.701 C 1044.25 838.319 1048.8 834.974 1051.88 832.526 C 1055.76 809.977 1062.67 802.878 1035.77 803.495 C 1033.63 804.26 1031.6 804.784 1029.83 806.169 C 1028.48 812.18 1011.3 820.611 1005.06 821.703 C 987.131 824.842 973.052 813.346 959.326 803.987 L 958.582 803.058 C 953.346 797.814 949.035 792.477 944.309 786.793 L 944.266 784.198 L 943.293 783.76 C 942.224 771.178 944.864 766.811 955.072 759.543 C 939.625 755.567 935.026 763.234 926.042 774.191 L 925.188 774.261 C 921.976 774.282 920.192 774.199 917.003 773.829 L 915.886 772.141 C 913.451 763.617 895.598 695.478 893.238 692.698 L 894.382 691.323 C 898.61 689.355 903.194 689.799 907.92 689.798 C 918.883 674.756 927.72 671.335 946.163 669.635 L 946.13 669.226 C 940.455 660.64 928.835 586.838 926.526 571.706 C 919.798 571.83 912.649 572.371 905.971 571.664 C 900.16 571.048 893.823 568.626 890.333 563.7 C 885.35 556.667 861.041 428.609 859.18 412.097 C 858.726 408.07 859.255 404.163 859.873 400.181 L 865.256 393.514 C 869.695 384.229 892.772 364.317 901.226 357.537 L 905.737 353.966 C 910.15 348.437 925.201 338.465 931.458 334.053 C 981.124 299.037 1037.37 275.867 1097.72 267.115 L 1103.96 266.703 z"/>
<path transform="translate(0,0)" fill="url(#Gradient10)" d="M 1076.24 578.865 C 1082.99 579.08 1092.33 579.802 1098.37 583.262 C 1111.3 588.574 1122.35 597.484 1127.75 610.701 C 1128.71 613.005 1129.5 615.374 1130.13 617.789 C 1131.12 624.679 1131.12 629.259 1131.18 636.143 L 1130.58 643.967 L 1128.6 654.082 C 1127.4 658.252 1125.97 663.796 1124.4 667.7 C 1128.66 670.262 1127.81 669.042 1129.93 672.655 C 1132.51 677.087 1132.37 677.817 1137.85 679.321 C 1145.68 682.683 1149.65 684.78 1156.08 690.456 C 1167.27 701.315 1173.6 711.155 1178.7 725.977 C 1173.87 727.81 1150.2 726.657 1142.43 727.212 C 1137.04 728.675 1128.93 733.028 1127.17 737.839 C 1118.54 761.324 1109.1 804.066 1104.72 828.293 C 1107.37 837.067 1108.26 838.899 1115.75 844.471 C 1113.62 844.702 1111.49 844.847 1109.35 844.906 C 1101.78 845.141 1098.52 842.746 1093.35 837.94 C 1083.9 863.372 1087.81 881.074 1053.87 884.512 C 1046.47 874.48 1044.91 867.268 1042.74 855.217 C 1041.96 850.863 1042.59 849.585 1040.93 845.242 C 1041.82 844.235 1041.29 843.061 1042.14 841.701 C 1044.25 838.319 1048.8 834.974 1051.88 832.526 C 1055.76 809.977 1062.67 802.878 1035.77 803.495 C 1033.63 804.26 1031.6 804.784 1029.83 806.169 C 1028.48 812.18 1011.3 820.611 1005.06 821.703 C 987.131 824.842 973.052 813.346 959.326 803.987 L 958.582 803.058 C 953.346 797.814 949.035 792.477 944.309 786.793 L 944.266 784.198 L 943.293 783.76 C 942.224 771.178 944.864 766.811 955.072 759.543 C 939.625 755.567 935.026 763.234 926.042 774.191 L 925.188 774.261 C 921.976 774.282 920.192 774.199 917.003 773.829 L 915.886 772.141 C 913.451 763.617 895.598 695.478 893.238 692.698 L 894.382 691.323 C 898.61 689.355 903.194 689.799 907.92 689.798 C 918.883 674.756 927.72 671.335 946.163 669.635 L 946.13 669.226 L 955.491 668.717 L 956.268 669.466 C 963.773 675.422 986.705 673.317 996.673 673.176 C 1013.66 672.903 1030.65 672.768 1047.64 672.772 C 1045.57 666.682 1044.67 659.584 1043.62 653.18 L 1042.96 644.11 L 1043.53 638.042 C 1042.88 636.395 1038.72 629.053 1037.65 627.076 C 1035.91 623.194 1034.92 621.049 1032.69 617.377 C 1033.51 608.794 1037.4 608.26 1044.72 606.502 C 1053.63 593.834 1061.15 583.894 1076.24 578.865 z"/>
<path transform="translate(0,0)" fill="rgb(223,229,183)" d="M 955.491 668.717 L 956.268 669.466 C 963.773 675.422 986.705 673.317 996.673 673.176 C 1013.66 672.903 1030.65 672.768 1047.64 672.772 L 1049.56 676.91 L 1050.93 679.015 L 1054.88 682.14 C 1017.34 679.7 1001.23 738.144 995.225 766.691 C 987.593 764.608 979.394 762.535 971.858 760.3 C 966.117 760.008 960.851 759.652 955.072 759.543 C 939.625 755.567 935.026 763.234 926.042 774.191 L 925.188 774.261 C 921.976 774.282 920.192 774.199 917.003 773.829 L 915.886 772.141 C 913.451 763.617 895.598 695.478 893.238 692.698 L 894.382 691.323 C 898.61 689.355 903.194 689.799 907.92 689.798 C 918.883 674.756 927.72 671.335 946.163 669.635 L 946.13 669.226 L 955.491 668.717 z"/>
<path transform="translate(0,0)" fill="rgb(198,212,230)" d="M 893.238 692.698 L 894.382 691.323 C 898.61 689.355 903.194 689.799 907.92 689.798 C 906.871 692.764 904.916 698.19 905.57 701.107 C 909.17 717.176 919.606 760.48 925.188 774.261 C 921.976 774.282 920.192 774.199 917.003 773.829 L 915.886 772.141 C 913.451 763.617 895.598 695.478 893.238 692.698 z"/>
<path transform="translate(0,0)" fill="rgb(174,174,204)" d="M 955.491 668.717 L 956.268 669.466 C 963.773 675.422 986.705 673.317 996.673 673.176 C 1013.66 672.903 1030.65 672.768 1047.64 672.772 L 1049.56 676.91 L 1050.93 679.015 C 1023.26 678.925 986.206 679.833 958.348 677.159 C 956.13 676.946 949.003 671.349 946.163 669.635 L 946.13 669.226 L 955.491 668.717 z"/>
<path transform="translate(0,0)" fill="rgb(79,93,249)" d="M 1093.35 837.94 C 1089.38 831.155 1090.72 823.661 1092.44 816.346 C 1098.23 791.67 1103.29 766.741 1110.02 742.313 C 1114.78 725.038 1128.03 726.747 1142.43 727.212 C 1137.04 728.675 1128.93 733.028 1127.17 737.839 C 1118.54 761.324 1109.1 804.066 1104.72 828.293 C 1107.37 837.067 1108.26 838.899 1115.75 844.471 C 1113.62 844.702 1111.49 844.847 1109.35 844.906 C 1101.78 845.141 1098.52 842.746 1093.35 837.94 z"/>
<path transform="translate(0,0)" fill="rgb(20,167,225)" d="M 1098.37 583.262 C 1111.3 588.574 1122.35 597.484 1127.75 610.701 C 1128.71 613.005 1129.5 615.374 1130.13 617.789 C 1131.12 624.679 1131.12 629.259 1131.18 636.143 L 1130.58 643.967 L 1128.6 654.082 C 1127.4 658.252 1125.97 663.796 1124.4 667.7 C 1116.91 662.854 1095.4 652.402 1094.25 645.003 C 1092.58 634.257 1110.14 625.737 1117.05 612.749 L 1117.62 611.659 C 1112.24 593.985 1100.4 590.819 1098.37 583.262 z"/>
<path transform="translate(0,0)" fill="rgb(19,132,220)" d="M 1039.57 744.645 C 1041.16 751.737 1046.87 781.746 1047 787.758 C 1042.97 789.822 1036.74 798.546 1034.83 802.501 L 1035.64 803.26 L 1035.77 803.495 C 1033.63 804.26 1031.6 804.784 1029.83 806.169 C 1024.07 795.74 1035.74 756.232 1039.57 744.645 z"/>
<path transform="translate(0,0)" fill="rgb(252,165,150)" d="M 1043.53 638.042 C 1049.48 647.356 1055.39 656.964 1062.57 665.385 C 1059.36 672.31 1057.3 674.854 1049.56 676.91 L 1047.64 672.772 C 1045.57 666.682 1044.67 659.584 1043.62 653.18 L 1042.96 644.11 L 1043.53 638.042 z"/>
<path transform="translate(0,0)" fill="rgb(153,213,234)" d="M 955.072 759.543 C 960.851 759.652 966.117 760.008 971.858 760.3 C 955.318 762.93 951.945 770.263 944.266 784.198 L 943.293 783.76 C 942.224 771.178 944.864 766.811 955.072 759.543 z"/>
<path transform="translate(0,0)" fill="rgb(35,68,126)" d="M 1035.64 803.26 L 1034.83 802.501 C 1036.74 798.546 1042.97 789.822 1047 787.758 C 1049.86 793.533 1051.57 797.261 1053.76 803.303 L 1035.64 803.26 z"/>
<path transform="translate(0,0)" fill="rgb(240,140,132)" d="M 1062.57 665.385 C 1067.35 672.093 1064.06 675.58 1059.29 681.562 C 1057.56 681.889 1056.65 682.135 1054.88 682.14 L 1050.93 679.015 L 1049.56 676.91 C 1057.3 674.854 1059.36 672.31 1062.57 665.385 z"/>
<path transform="translate(0,0)" fill="rgb(229,239,243)" d="M 865.256 393.514 C 869.695 384.229 892.772 364.317 901.226 357.537 C 902.123 366.201 902.899 375.467 904.458 384.065 C 905.195 388.128 905.653 389.807 909.783 390.789 C 919.141 389.522 982.048 389.496 991.874 391.602 C 994.29 393.757 998.933 397.715 999.845 400.829 C 1009.29 433.065 1012.89 467.261 1019.93 500.122 C 1021.08 505.495 1021.96 510.549 1022.57 516.002 C 1027.58 516.078 1046.63 516.047 1050.5 516.712 C 1046.82 516.791 1027.27 516.819 1025.42 517.984 C 1024.68 525.089 1026.77 532.975 1029.06 539.625 C 1033.68 544.149 1054.84 537.862 1060.77 541.841 C 1049.74 542.092 1038.7 542.139 1027.67 541.985 C 1028.19 545.014 1028.99 548.963 1029.28 551.941 C 1040.89 551.896 1058.54 551.273 1069.68 552.045 C 1059.69 556.219 1033.13 550.3 1030.6 554.708 L 1030.79 555.687 C 1031.3 558.485 1031.8 559.373 1030.61 561.698 L 1029.75 561.978 L 1027.56 566.793 C 1025.83 568.195 1024.01 569.758 1022.13 570.927 C 1025.22 574.639 1025.14 575.588 1030.6 576.12 C 1043.96 577.422 1059.82 574.921 1072.94 576.532 L 1067.98 577.714 C 1070.87 578.69 1073.21 578.662 1076.24 578.865 C 1061.15 583.894 1053.63 593.834 1044.72 606.502 C 1037.4 608.26 1033.51 608.794 1032.69 617.377 C 1034.92 621.049 1035.91 623.194 1037.65 627.076 C 1038.72 629.053 1042.88 636.395 1043.53 638.042 L 1042.96 644.11 L 1043.62 653.18 C 1044.67 659.584 1045.57 666.682 1047.64 672.772 C 1030.65 672.768 1013.66 672.903 996.673 673.176 C 986.705 673.317 963.773 675.422 956.268 669.466 L 955.491 668.717 L 946.13 669.226 C 940.455 660.64 928.835 586.838 926.526 571.706 C 919.798 571.83 912.649 572.371 905.971 571.664 C 900.16 571.048 893.823 568.626 890.333 563.7 C 885.35 556.667 861.041 428.609 859.18 412.097 C 858.726 408.07 859.255 404.163 859.873 400.181 L 865.256 393.514 z"/>
<path transform="translate(0,0)" fill="rgb(198,212,230)" d="M 1022.13 570.927 C 1025.22 574.639 1025.14 575.588 1030.6 576.12 C 1043.96 577.422 1059.82 574.921 1072.94 576.532 L 1067.98 577.714 C 1070.87 578.69 1073.21 578.662 1076.24 578.865 C 1061.15 583.894 1053.63 593.834 1044.72 606.502 C 1037.4 608.26 1033.51 608.794 1032.69 617.377 C 1034.92 621.049 1035.91 623.194 1037.65 627.076 C 1038.72 629.053 1042.88 636.395 1043.53 638.042 L 1042.96 644.11 L 1043.62 653.18 C 1044.67 659.584 1045.57 666.682 1047.64 672.772 C 1030.65 672.768 1013.66 672.903 996.673 673.176 C 986.705 673.317 963.773 675.422 956.268 669.466 L 955.491 668.717 C 948.393 662.169 947.111 655.82 945.306 646.591 C 940.453 621.771 936.783 596.587 931.564 571.853 L 959.381 571.842 C 960.347 578.513 961.522 598.657 969.312 599.787 C 978.207 601.077 1000.62 602.673 1008.15 598.138 C 1010.57 591.592 1006.99 579.072 1005.5 571.834 C 1011.63 571.878 1016 571.51 1022.13 570.927 z"/>
<path transform="translate(0,0)" fill="url(#Gradient9)" d="M 997.855 644.069 L 998.8 643.729 C 1012.26 644.638 1029.24 644.149 1042.96 644.11 L 1043.62 653.18 C 1044.67 659.584 1045.57 666.682 1047.64 672.772 C 1030.65 672.768 1013.66 672.903 996.673 673.176 C 986.705 673.317 963.773 675.422 956.268 669.466 C 974.433 666.245 982.421 670.666 995.206 653.978 C 988.528 654.236 982.997 654.6 976.302 653.835 C 983.734 652.838 991.122 655.433 996.492 650.962 C 997.929 647.866 998.111 647.455 997.855 644.069 z"/>
<path transform="translate(0,0)" fill="url(#Gradient8)" d="M 997.855 644.069 L 998.8 643.729 C 1012.26 644.638 1029.24 644.149 1042.96 644.11 L 1043.62 653.18 C 1027.87 654.336 1009.64 652.612 995.206 653.978 C 988.528 654.236 982.997 654.6 976.302 653.835 C 983.734 652.838 991.122 655.433 996.492 650.962 C 997.929 647.866 998.111 647.455 997.855 644.069 z"/>
<path transform="translate(0,0)" fill="rgb(229,239,243)" d="M 1032.69 617.377 C 1034.92 621.049 1035.91 623.194 1037.65 627.076 C 1038.72 629.053 1042.88 636.395 1043.53 638.042 L 1042.96 644.11 C 1029.24 644.149 1012.26 644.638 998.8 643.729 C 1002.11 638.883 1000.98 634.362 1006.65 627.04 C 1007.58 624.968 1011.34 620.069 1012.84 617.995 C 1018.14 618.029 1027.85 618.418 1032.69 617.377 z"/>
<path transform="translate(0,0)" fill="rgb(150,134,250)" d="M 1032.69 617.377 C 1034.92 621.049 1035.91 623.194 1037.65 627.076 L 1006.65 627.04 C 1007.58 624.968 1011.34 620.069 1012.84 617.995 C 1018.14 618.029 1027.85 618.418 1032.69 617.377 z"/>
<path transform="translate(0,0)" fill="rgb(124,125,245)" d="M 1006.65 627.04 C 998.455 627.159 975.354 628.775 969.397 624.779 C 968.202 621.558 968.294 623.147 969.044 619.846 C 973.314 616.114 1004.72 617.882 1012.84 617.995 C 1011.34 620.069 1007.58 624.968 1006.65 627.04 z"/>
<path transform="translate(0,0)" fill="rgb(124,125,245)" d="M 976.302 653.835 C 973.533 650.651 973.37 650.327 973.198 646.945 L 974.994 645.093 C 980.358 643.194 991.663 643.95 997.855 644.069 C 998.111 647.455 997.929 647.866 996.492 650.962 C 991.122 655.433 983.734 652.838 976.302 653.835 z"/>
<path transform="translate(0,0)" fill="rgb(124,125,245)" d="M 865.256 393.514 C 864.399 397.353 863.666 400.946 864.129 404.888 C 865.931 420.229 890.498 550.491 894.363 556.704 C 896.197 559.652 899.171 562.593 902.628 563.439 C 913.266 566.042 998.016 565.697 1012.23 564.528 C 1016.33 564.191 1022.55 563.804 1025.96 561.319 C 1027.15 560.455 1028.02 559.181 1028.82 557.976 C 1030.05 559.474 1029.63 559.581 1029.75 561.978 L 1027.56 566.793 C 1025.83 568.195 1024.01 569.758 1022.13 570.927 C 1016 571.51 1011.63 571.878 1005.5 571.834 C 1006.99 579.072 1010.57 591.592 1008.15 598.138 C 1000.62 602.673 978.207 601.077 969.312 599.787 C 961.522 598.657 960.347 578.513 959.381 571.842 L 931.564 571.853 C 936.783 596.587 940.453 621.771 945.306 646.591 C 947.111 655.82 948.393 662.169 955.491 668.717 L 946.13 669.226 C 940.455 660.64 928.835 586.838 926.526 571.706 C 919.798 571.83 912.649 572.371 905.971 571.664 C 900.16 571.048 893.823 568.626 890.333 563.7 C 885.35 556.667 861.041 428.609 859.18 412.097 C 858.726 408.07 859.255 404.163 859.873 400.181 L 865.256 393.514 z"/>
<path transform="translate(0,0)" fill="url(#Gradient7)" d="M 897.378 447.91 C 873.195 425.671 891.257 401.558 918.212 414.659 C 930.584 420.672 933.965 435.095 926.379 447.055 C 916.904 455.282 907.478 454.274 897.378 447.91 z"/>
<path transform="translate(0,0)" fill="rgb(211,128,248)" d="M 897.378 447.91 C 898.658 441.899 901.363 438.476 902.482 432.718 C 899.929 427.583 898.277 423.278 904.383 419.463 C 914.14 420.064 919.057 440.773 926.379 447.055 C 916.904 455.282 907.478 454.274 897.378 447.91 z"/>
<path transform="translate(0,0)" fill="rgb(124,125,245)" d="M 894.819 467.119 C 905.926 466.805 990.838 465.982 996.349 468.361 C 998.328 471.438 997.755 470.274 997.727 474.453 C 984.47 474.843 904.222 476.409 896.445 473.713 C 894.3 470.512 894.961 471.556 894.819 467.119 z"/>
<path transform="translate(0,0)" fill="rgb(124,125,245)" d="M 907.98 532.202 C 919.17 531.873 1003 531.353 1008.71 533.464 C 1010.55 536.444 1009.97 535.504 1009.54 539.814 C 996.265 539.845 913.229 541.941 908.37 538.112 C 907.124 534.62 907.314 536.127 907.98 532.202 z"/>
<path transform="translate(0,0)" fill="rgb(124,125,245)" d="M 919.052 510.491 C 930.616 510.485 1003.26 507.565 1006.21 515.334 L 1004.96 517.05 C 1002.13 518.73 996.859 518.162 993.25 518.138 C 969.453 518.226 930.669 519.053 905.75 517.506 C 904.85 516.881 904.087 516.352 903.462 515.919 C 903.298 512.667 902.845 514.111 905.066 511.51 C 908.887 509.714 914.615 510.367 919.052 510.491 z"/>
<path transform="translate(0,0)" fill="rgb(124,125,245)" d="M 898.735 489.016 C 909.54 488.775 994.713 487.92 1000.53 489.985 C 1002.26 493.02 1001.7 492.205 1001.69 496.194 C 988.625 496.298 908.2 498.082 900.885 495.54 C 898.467 492.484 899.216 493.488 898.735 489.016 z"/>
<path transform="translate(0,0)" fill="rgb(211,128,248)" d="M 943 417.351 C 951.87 417.273 980.726 415.691 986.953 419.146 C 988.943 422.157 988.439 420.832 988.25 424.882 C 979.258 425.043 948.201 426.888 942.691 422.955 C 941.535 419.757 941.669 421.103 943 417.351 z"/>
<path transform="translate(0,0)" fill="rgb(211,128,248)" d="M 944.996 436.911 C 953.664 436.2 982.199 435.684 989.593 437.825 C 992.502 440.309 991.602 439.175 992.32 443.881 C 982.655 444.121 955.177 445.751 947.517 442.95 C 944.878 440.087 945.675 441.45 944.996 436.911 z"/>
<path transform="translate(0,0)" fill="url(#Gradient6)" d="M 1198.43 371.587 C 1216.43 376.029 1215.99 389.077 1216.08 404.676 C 1216.16 419.393 1215.27 434.574 1215.96 449.217 L 1215.38 452.94 C 1216.44 460.415 1217.66 480.773 1211.53 486.136 C 1201.19 489.161 1122.42 489.053 1111.59 486.266 C 1104.27 480.848 1107.43 455.458 1107.35 446.047 C 1107.2 428.283 1106.36 410.003 1107.07 392.294 C 1107.54 380.411 1114.62 373.719 1125.97 371.405 C 1137.24 372.5 1187.62 372.41 1198.43 371.587 z"/>
<path transform="translate(0,0)" fill="rgb(19,132,220)" d="M 1156.71 409.047 C 1172.06 407.897 1177.38 416.856 1168.95 429.775 C 1172.38 443.174 1175.46 457.601 1178.6 471.169 L 1168.23 471.532 L 1144.91 471.255 C 1148.11 457.565 1151.22 443.853 1154.24 430.121 C 1147.81 420.731 1147.7 416.352 1156.71 409.047 z"/>
<path transform="translate(0,0)" fill="rgb(229,239,243)" d="M 1180.03 370.9 C 1179.88 351.629 1175.85 318.043 1190.25 304.537 C 1215.96 280.42 1252.57 299.504 1251.35 334.144 C 1251.24 337.409 1251.26 338.639 1249.71 341.686 C 1246.72 343.579 1248.1 343.173 1244.01 342.583 C 1237.72 336.878 1240.76 293.372 1208.47 306.066 C 1187.9 314.154 1191.11 327.39 1190.97 346.404 C 1191.01 350.963 1190.11 366.922 1192.04 370.016 C 1194.6 371.434 1195.42 371.303 1198.43 371.587 C 1187.62 372.41 1137.24 372.5 1125.97 371.405 C 1133.59 370.184 1170.52 370.87 1180.03 370.9 z"/>
<path transform="translate(0,0)" fill="rgb(252,254,253)" d="M 1156.08 690.456 C 1160.27 683.545 1188.84 680.963 1198.27 679.36 C 1300.23 662.028 1406.31 652.486 1508.59 672.508 L 1509.71 675.878 C 1504.46 677.111 1489.65 674.033 1483.83 673.112 C 1410.91 661.582 1335.45 665.686 1262.45 674.308 C 1246.42 676.247 1230.43 678.568 1214.51 681.27 C 1205.26 682.809 1162.42 691.629 1156.08 690.456 z"/>
<path transform="translate(0,0)" fill="rgb(252,254,253)" d="M 1166.45 563.124 C 1167.42 561.3 1167.11 561.863 1168.68 560.388 C 1179.25 558.34 1202.04 557.095 1213.48 556.255 C 1287.29 550.835 1362.51 547.171 1436.31 553.851 C 1445.09 554.646 1466.27 556.602 1473.92 559.052 L 1473.33 561.426 C 1470.17 562.844 1457.82 561.027 1453.83 560.556 C 1359.19 549.392 1263.57 556.977 1168.98 564.591 C 1168.98 564.591 1166.67 563.253 1166.45 563.124 z"/>
<path transform="translate(0,0)" fill="rgb(211,128,248)" d="M 1060.77 541.841 C 1073.97 542.085 1132.86 540.943 1141.35 544.001 L 1142.88 545.692 C 1142.15 548.117 1141.54 548.981 1139.28 550.296 C 1131.57 554.79 1083.33 550.251 1069.68 552.045 C 1058.54 551.273 1040.89 551.896 1029.28 551.941 C 1028.99 548.963 1028.19 545.014 1027.67 541.985 C 1038.7 542.139 1049.74 542.092 1060.77 541.841 z"/>
<path transform="translate(0,0)" fill="rgb(252,254,253)" d="M 1397.12 396.146 L 1399.7 399.666 C 1359.18 427.654 1265.24 463.625 1215.38 452.94 L 1215.96 449.217 C 1227.91 448.7 1239.87 450.756 1253.8 449.175 C 1300.75 443.847 1356.77 420.525 1397.12 396.146 z"/>
<path transform="translate(0,0)" fill="rgb(252,254,253)" d="M 1097.72 267.115 L 1103.96 266.703 C 1100.12 281.085 1110.97 326.111 1114.14 342.19 C 1115.35 348.342 1124.06 365.974 1121.39 371.242 L 1119.4 371.235 C 1117.32 369.179 1115.54 361.894 1114.4 358.597 C 1104.1 328.932 1099.53 298.472 1097.72 267.115 z"/>
<path transform="translate(0,0)" fill="rgb(211,128,248)" d="M 1027.56 566.793 C 1037.27 566.697 1066.04 565.181 1072.78 568.835 C 1074.98 572.096 1075.19 572.987 1072.94 576.532 C 1059.82 574.921 1043.96 577.422 1030.6 576.12 C 1025.14 575.588 1025.22 574.639 1022.13 570.927 C 1024.01 569.758 1025.83 568.195 1027.56 566.793 z"/>
<path transform="translate(0,0)" fill="rgb(150,134,250)" d="M 1129.93 672.655 C 1138.26 672.815 1147.3 672.918 1155.55 673.097 C 1170.54 673.42 1170.25 674.583 1181.25 664.409 C 1189.15 682.699 1146.16 678.07 1137.85 679.321 C 1132.37 677.817 1132.51 677.087 1129.93 672.655 z"/>
<path transform="translate(0,0)" fill="rgb(150,134,250)" d="M 1128.6 654.082 L 1130.58 643.967 C 1138.35 643.827 1157.11 641.056 1159.32 649.817 C 1156.36 656.855 1136.4 653.246 1128.6 654.082 z"/>
<path transform="translate(0,0)" fill="rgb(150,134,250)" d="M 1130.13 617.789 C 1135.31 617.777 1147.91 617.311 1152.25 618.623 C 1153.99 620.444 1155.07 621.193 1155.59 623.647 C 1152.2 630.455 1137.04 625.339 1132.18 627.955 L 1131.18 636.143 C 1131.12 629.259 1131.12 624.679 1130.13 617.789 z"/>
<path transform="translate(0,0)" fill="rgb(252,254,253)" d="M 901.226 357.537 L 905.737 353.966 C 906.99 362.219 910.594 383.632 909.783 390.789 C 905.653 389.807 905.195 388.128 904.458 384.065 C 902.899 375.467 902.123 366.201 901.226 357.537 z"/>
<path transform="translate(0,0)" fill="rgb(228,247,252)" d="M 1156.08 690.456 C 1162.42 691.629 1205.26 682.809 1214.51 681.27 C 1230.43 678.568 1246.42 676.247 1262.45 674.308 C 1335.45 665.686 1410.91 661.582 1483.83 673.112 C 1489.65 674.033 1504.46 677.111 1509.71 675.878 C 1515.31 683.832 1520.14 698.316 1524.81 707.182 C 1546.32 748.041 1576.91 775.013 1617.83 795.785 C 1645.22 809.69 1671.61 834.527 1686.69 861.804 C 1680.04 860.6 1651.7 845.009 1643.46 841.077 C 1620.68 830.196 1602.06 822.2 1577.25 816.071 L 1576.32 819.602 C 1569.81 826.916 1564.09 836.7 1556.83 844.952 C 1578.75 859.871 1565.92 879.838 1555.15 897.597 C 1538.57 924.912 1527.33 945.861 1526.01 978.649 C 1521.47 978.66 1515.32 978.869 1510.91 978.638 C 1502.59 978.796 1494.28 978.751 1485.96 978.504 L 1470.42 978.692 L 1443.61 978.711 L 1459.18 1126.65 C 1458.21 1126.81 1456.44 1127.12 1455 1127.12 C 1376.89 1126.96 1298.68 1127.52 1220.59 1126.85 C 1220.02 1126.33 1219.45 1125.81 1218.88 1125.29 C 1214.23 1126.81 1212.93 1126.46 1208.26 1125.64 C 1203.51 1122.54 1202.3 1119.65 1200.15 1114.74 C 1200.72 1111.91 1201.53 1108.86 1202.22 1106.03 C 1192.46 1103.57 1183.01 1101.61 1173.15 1099.58 L 1172.88 1095.62 C 1171.39 1092.31 1170.25 1089.53 1168.95 1086.14 L 1170.76 1085.5 C 1172.39 1081.69 1164.73 1039.12 1163.97 1031.3 C 1162.56 1025.43 1160.98 1012.09 1160.02 1005.72 L 1152.5 956.187 C 1166.71 956.312 1167.08 952.102 1167.07 939.007 C 1151.29 937.463 1126.52 937.914 1110.3 938.199 C 1110.63 913.937 1103.87 907.396 1083.18 895.834 L 1068.3 895.703 C 1061.92 892.043 1058.97 889.732 1053.87 884.512 C 1087.81 881.074 1083.9 863.372 1093.35 837.94 C 1098.52 842.746 1101.78 845.141 1109.35 844.906 C 1111.49 844.847 1113.62 844.702 1115.75 844.471 C 1108.26 838.899 1107.37 837.067 1104.72 828.293 C 1109.1 804.066 1118.54 761.324 1127.17 737.839 C 1128.93 733.028 1137.04 728.675 1142.43 727.212 C 1150.2 726.657 1173.87 727.81 1178.7 725.977 C 1173.6 711.155 1167.27 701.315 1156.08 690.456 z"/>
<path transform="translate(0,0)" fill="rgb(228,247,252)" d="M 1178.7 725.977 C 1185.78 730.03 1242.51 723.744 1254.32 728.036 C 1268.25 733.095 1265.91 744.13 1263.28 756.207 C 1261.29 765.383 1258.86 774.755 1256.72 783.99 C 1255.29 789.236 1253.28 797.776 1252.39 803.243 L 1291.88 803.292 C 1294.79 811.129 1299.14 886.25 1300.22 899.969 L 1311.87 1050.48 C 1313.52 1072.21 1317.05 1104.9 1317.35 1126.14 C 1305.9 1126.17 1224.83 1127.23 1219.84 1125.23 L 1218.88 1125.29 C 1214.23 1126.81 1212.93 1126.46 1208.26 1125.64 C 1203.51 1122.54 1202.3 1119.65 1200.15 1114.74 C 1200.72 1111.91 1201.53 1108.86 1202.22 1106.03 C 1192.46 1103.57 1183.01 1101.61 1173.15 1099.58 L 1172.88 1095.62 C 1171.39 1092.31 1170.25 1089.53 1168.95 1086.14 L 1170.76 1085.5 C 1172.39 1081.69 1164.73 1039.12 1163.97 1031.3 C 1162.56 1025.43 1160.98 1012.09 1160.02 1005.72 L 1152.5 956.187 C 1166.71 956.312 1167.08 952.102 1167.07 939.007 C 1151.29 937.463 1126.52 937.914 1110.3 938.199 C 1110.63 913.937 1103.87 907.396 1083.18 895.834 L 1068.3 895.703 C 1061.92 892.043 1058.97 889.732 1053.87 884.512 C 1087.81 881.074 1083.9 863.372 1093.35 837.94 C 1098.52 842.746 1101.78 845.141 1109.35 844.906 C 1111.49 844.847 1113.62 844.702 1115.75 844.471 C 1108.26 838.899 1107.37 837.067 1104.72 828.293 C 1109.1 804.066 1118.54 761.324 1127.17 737.839 C 1128.93 733.028 1137.04 728.675 1142.43 727.212 C 1150.2 726.657 1173.87 727.81 1178.7 725.977 z"/>
<path transform="translate(0,0)" fill="url(#Gradient5)" d="M 1178.7 725.977 C 1185.78 730.03 1242.51 723.744 1254.32 728.036 C 1268.25 733.095 1265.91 744.13 1263.28 756.207 C 1261.29 765.383 1258.86 774.755 1256.72 783.99 C 1255.29 789.236 1253.28 797.776 1252.39 803.243 C 1246.36 827.117 1247.45 844.702 1218.08 845.136 L 1217.42 845.14 L 1193.19 845.228 C 1192.47 854.81 1187.97 886.133 1185.97 896.015 C 1194.24 895.97 1200.25 895.976 1208.47 897.296 C 1228.26 904.137 1236.02 917.995 1235.71 938.47 C 1229.08 937.981 1171.81 937.652 1168.14 938.812 L 1167.07 939.007 C 1151.29 937.463 1126.52 937.914 1110.3 938.199 C 1110.63 913.937 1103.87 907.396 1083.18 895.834 L 1068.3 895.703 C 1061.92 892.043 1058.97 889.732 1053.87 884.512 C 1087.81 881.074 1083.9 863.372 1093.35 837.94 C 1098.52 842.746 1101.78 845.141 1109.35 844.906 C 1111.49 844.847 1113.62 844.702 1115.75 844.471 C 1108.26 838.899 1107.37 837.067 1104.72 828.293 C 1109.1 804.066 1118.54 761.324 1127.17 737.839 C 1128.93 733.028 1137.04 728.675 1142.43 727.212 C 1150.2 726.657 1173.87 727.81 1178.7 725.977 z"/>
<path transform="translate(0,0)" fill="url(#Gradient4)" d="M 1175.93 928.421 C 1175.79 915.493 1175.56 907.693 1178.21 895.051 C 1181.55 896.141 1182.42 896.042 1185.97 896.015 C 1194.24 895.97 1200.25 895.976 1208.47 897.296 C 1228.26 904.137 1236.02 917.995 1235.71 938.47 C 1229.08 937.981 1171.81 937.652 1168.14 938.812 L 1167.07 939.007 C 1151.29 937.463 1126.52 937.914 1110.3 938.199 C 1110.63 913.937 1103.87 907.396 1083.18 895.834 L 1151.93 895.894 C 1148.48 909.1 1149.07 914.814 1149.13 928.419 C 1158.07 928.513 1167 928.513 1175.93 928.421 z"/>
<path transform="translate(0,0)" fill="rgb(19,132,220)" d="M 1093.35 837.94 C 1098.52 842.746 1101.78 845.141 1109.35 844.906 C 1111.49 844.847 1113.62 844.702 1115.75 844.471 C 1129.66 845.69 1150.04 845.073 1164.54 845.193 C 1163.29 852.934 1155 887.557 1151.93 895.894 L 1083.18 895.834 L 1068.3 895.703 C 1061.92 892.043 1058.97 889.732 1053.87 884.512 C 1087.81 881.074 1083.9 863.372 1093.35 837.94 z"/>
<path transform="translate(0,0)" fill="rgb(79,93,249)" d="M 1164.54 845.193 C 1167.63 834.983 1176.43 789.2 1183.67 785.673 C 1188.68 783.231 1196.16 783.655 1201.59 784.259 C 1206.57 790.108 1201.31 805.135 1199.34 812.275 C 1196.45 822.76 1194.27 834.901 1190.85 845.063 L 1193.19 845.228 C 1192.47 854.81 1187.97 886.133 1185.97 896.015 C 1182.42 896.042 1181.55 896.141 1178.21 895.051 C 1175.56 907.693 1175.79 915.493 1175.93 928.421 C 1167 928.513 1158.07 928.513 1149.13 928.419 C 1149.07 914.814 1148.48 909.1 1151.93 895.894 C 1155 887.557 1163.29 852.934 1164.54 845.193 z"/>
<path transform="translate(0,0)" fill="rgb(228,247,252)" d="M 1190.85 845.063 L 1193.19 845.228 C 1192.47 854.81 1187.97 886.133 1185.97 896.015 C 1182.42 896.042 1181.55 896.141 1178.21 895.051 C 1184.83 872.803 1186.54 869.068 1190.85 845.063 z"/>
<path transform="translate(0,0)" fill="rgb(153,213,234)" d="M 1168.14 938.812 C 1171.81 937.652 1229.08 937.981 1235.71 938.47 C 1225.99 939.428 1210.84 938.998 1200.68 938.995 C 1193.69 988.353 1181.82 1045.92 1172.88 1095.62 C 1171.39 1092.31 1170.25 1089.53 1168.95 1086.14 L 1170.76 1085.5 C 1172.39 1081.69 1164.73 1039.12 1163.97 1031.3 C 1162.56 1025.43 1160.98 1012.09 1160.02 1005.72 L 1152.5 956.187 C 1166.71 956.312 1167.08 952.102 1167.07 939.007 L 1168.14 938.812 z"/>
<path transform="translate(0,0)" fill="rgb(228,247,252)" d="M 1168.14 938.812 C 1170.96 938.934 1177.08 938.638 1178.69 940.115 C 1177.93 950.496 1166.82 1027.46 1163.97 1031.3 C 1162.56 1025.43 1160.98 1012.09 1160.02 1005.72 L 1152.5 956.187 C 1166.71 956.312 1167.08 952.102 1167.07 939.007 L 1168.14 938.812 z"/>
<path transform="translate(0,0)" fill="rgb(153,213,234)" d="M 1193.19 845.228 L 1217.42 845.14 C 1215.28 861.59 1210.11 881.887 1208.47 897.296 C 1200.25 895.976 1194.24 895.97 1185.97 896.015 C 1187.97 886.133 1192.47 854.81 1193.19 845.228 z"/>
<path transform="translate(0,0)" fill="rgb(35,68,126)" d="M 1202.22 1106.03 C 1206.81 1102.88 1209.85 1099.56 1215.79 1100.78 C 1228.97 1103.49 1230.09 1117.94 1219.84 1125.23 L 1218.88 1125.29 C 1214.23 1126.81 1212.93 1126.46 1208.26 1125.64 C 1203.51 1122.54 1202.3 1119.65 1200.15 1114.74 C 1200.72 1111.91 1201.53 1108.86 1202.22 1106.03 z"/>
<path transform="translate(0,0)" fill="rgb(124,125,245)" d="M 1211.27 1108.46 C 1214.02 1107.12 1217.33 1108.21 1218.74 1110.93 C 1220.15 1113.64 1219.13 1116.98 1216.45 1118.45 C 1214.66 1119.43 1212.48 1119.37 1210.75 1118.28 C 1209.02 1117.2 1208.01 1115.26 1208.12 1113.22 C 1208.23 1111.18 1209.44 1109.36 1211.27 1108.46 z"/>
<path transform="translate(0,0)" fill="rgb(124,125,245)" d="M 1536.01 809.251 C 1546.27 797.164 1559.09 781.731 1575.66 779.397 C 1584.32 778.178 1588.2 785.598 1587.68 793.318 C 1587.24 799.702 1582.25 812.232 1577.25 816.071 L 1576.32 819.602 C 1569.81 826.916 1564.09 836.7 1556.83 844.952 C 1578.75 859.871 1565.92 879.838 1555.15 897.597 C 1538.57 924.912 1527.33 945.861 1526.01 978.649 C 1521.47 978.66 1515.32 978.869 1510.91 978.638 C 1510.89 968.271 1508.45 960.158 1506.35 950.055 C 1505.51 946.885 1504.66 944.121 1503.67 941.011 C 1497.9 921.721 1489.45 900.914 1478.8 883.786 L 1479.18 880.99 C 1481.08 877.597 1481.16 874.024 1481.54 870.181 C 1486.92 861.354 1489.15 839.951 1498.62 831.917 C 1504.56 826.879 1507.44 827.64 1514.68 828.156 C 1515.28 821.838 1515.81 815.533 1516.77 809.26 C 1520 813.673 1527.47 812.217 1533.01 813.337 L 1536.01 809.251 z"/>
<path transform="translate(0,0)" fill="rgb(79,93,249)" d="M 1503.67 941.011 C 1507.9 928.005 1510.48 914.698 1514.19 901.524 C 1521.99 873.828 1533.06 844.704 1548.37 820.231 C 1551.07 815.924 1558.09 805.75 1561.85 802.818 L 1562.85 803.403 C 1558.42 811.223 1552.6 817.531 1547.84 825.476 C 1530.97 853.563 1521.74 882.86 1512.89 914.255 C 1510.03 924.38 1509.08 939.391 1506.35 950.055 C 1505.51 946.885 1504.66 944.121 1503.67 941.011 z"/>
<path transform="translate(0,0)" fill="rgb(229,239,243)" d="M 1514.68 828.156 C 1515.28 821.838 1515.81 815.533 1516.77 809.26 C 1520 813.673 1527.47 812.217 1533.01 813.337 C 1529.38 818.384 1524.74 826.609 1520.55 830.133 C 1517.27 830.582 1518.27 830.406 1514.68 828.156 z"/>
<path transform="translate(0,0)" fill="url(#Gradient3)" d="M 1460.49 771.275 C 1453.8 752.695 1439.34 716.938 1449.55 697.961 C 1453.42 690.772 1463.52 694.241 1468.5 698.667 C 1485.7 713.956 1489.81 742.218 1491.51 763.797 C 1517.01 767.703 1517.18 785.931 1516.72 807.658 L 1516.77 809.26 C 1515.81 815.533 1515.28 821.838 1514.68 828.156 C 1507.44 827.64 1504.56 826.879 1498.62 831.917 C 1489.15 839.951 1486.92 861.354 1481.54 870.181 C 1481.16 874.024 1481.08 877.597 1479.18 880.99 L 1478.8 883.786 C 1477.75 882.711 1476.67 881.662 1475.57 880.641 C 1471.15 876.58 1466.42 873.655 1460.23 873.955 C 1458.48 855.741 1454.69 842.121 1448.48 825.016 L 1447.79 821.471 C 1440.96 803.837 1441.63 780.756 1460.49 771.275 z"/>
<path transform="translate(0,0)" fill="rgb(161,80,218)" d="M 1479.18 880.99 C 1478.4 837.108 1481.19 794.593 1471.37 751.071 C 1470.3 746.324 1465.28 730.083 1466.94 726.379 C 1481.51 756.346 1481.97 836.074 1481.54 870.181 C 1481.16 874.024 1481.08 877.597 1479.18 880.99 z"/>
<path transform="translate(0,0)" fill="rgb(211,128,248)" d="M 1448.48 825.016 C 1454.69 842.121 1458.48 855.741 1460.23 873.955 C 1466.42 873.655 1471.15 876.58 1475.57 880.641 C 1476.67 881.662 1477.75 882.711 1478.8 883.786 C 1489.45 900.914 1497.9 921.721 1503.67 941.011 C 1504.66 944.121 1505.51 946.885 1506.35 950.055 C 1508.45 960.158 1510.89 968.271 1510.91 978.638 C 1502.59 978.796 1494.28 978.751 1485.96 978.504 L 1470.42 978.692 C 1451.76 947.292 1419.59 937.315 1430.14 896.084 C 1419.49 883.597 1406.67 865.672 1406.78 848.573 C 1406.83 841.223 1413.36 836.915 1420.23 838.086 L 1423.39 838.034 C 1425.81 837.189 1445.37 826.784 1448.48 825.016 z"/>
<path transform="translate(0,0)" fill="rgb(228,247,252)" d="M 1448.48 825.016 C 1454.69 842.121 1458.48 855.741 1460.23 873.955 C 1458.88 873.902 1457.04 873.405 1456.2 872.359 C 1445.33 858.766 1439.94 845.927 1423.39 838.034 C 1425.81 837.189 1445.37 826.784 1448.48 825.016 z"/>
<path transform="translate(0,0)" fill="rgb(161,80,218)" d="M 1485.96 978.504 C 1483.11 974.252 1473.71 947.379 1470.82 940.385 C 1463.28 922.337 1454.56 904.8 1444.74 887.885 C 1442.22 883.456 1427.15 859.186 1427.15 856.946 L 1428.29 856.699 C 1454.12 892.884 1472.26 934.986 1487.66 976.442 L 1487.25 977.932 L 1485.96 978.504 z"/>
<path transform="translate(0,0)" fill="rgb(153,213,234)" d="M 1291.88 803.292 C 1305.11 803.521 1327.5 802.373 1339.37 803.524 C 1332.06 804.24 1325.39 804.059 1318.07 803.993 C 1322.48 909.683 1327.08 1020.83 1333.87 1126.3 C 1343.92 1126.23 1373.48 1125.39 1382.34 1126.63 L 1385.86 1126.02 C 1403.32 1126.49 1444.66 1124.89 1459.18 1126.65 C 1458.21 1126.81 1456.44 1127.12 1455 1127.12 C 1376.89 1126.96 1298.68 1127.52 1220.59 1126.85 C 1220.02 1126.33 1219.45 1125.81 1218.88 1125.29 L 1219.84 1125.23 C 1224.83 1127.23 1305.9 1126.17 1317.35 1126.14 C 1317.05 1104.9 1313.52 1072.21 1311.87 1050.48 L 1300.22 899.969 C 1299.14 886.25 1294.79 811.129 1291.88 803.292 z"/>
<path transform="translate(0,0)" fill="rgb(35,68,126)" d="M 1256.72 783.99 C 1268.37 783.951 1338.61 781.615 1344.06 786.723 C 1346.22 788.749 1347.24 791.565 1347.1 794.505 C 1346.99 796.902 1346.07 799.017 1344.21 800.575 C 1342.78 801.768 1341.04 802.722 1339.37 803.524 C 1327.5 802.373 1305.11 803.521 1291.88 803.292 L 1252.39 803.243 C 1253.28 797.776 1255.29 789.236 1256.72 783.99 z"/>
<path transform="translate(0,0)" fill="rgb(252,254,253)" d="M 1382.34 1126.63 C 1378.93 1116.65 1375.66 1106.7 1371.9 1096.76 C 1366.52 1082.55 1359.58 1068.48 1355.47 1053.82 C 1338.54 993.487 1348.15 922.942 1384.82 871.543 C 1388.65 866.172 1398.36 850.657 1405.82 851.632 L 1404.06 851.812 L 1405.78 854.088 C 1353.41 906.825 1339.43 993.168 1363.36 1062.48 C 1369.22 1079.44 1384.75 1109.2 1385.86 1126.02 L 1382.34 1126.63 z"/>
<path transform="translate(0,0)" fill="rgb(252,254,253)" d="M 1420.23 838.086 C 1423.9 830.811 1439.89 822.92 1447.79 821.471 L 1448.48 825.016 C 1445.37 826.784 1425.81 837.189 1423.39 838.034 L 1420.23 838.086 z"/>
<path transform="translate(0,0)" fill="rgb(252,254,253)" d="M 1516.72 807.658 C 1520.79 806.631 1532.32 807.413 1536.01 809.251 L 1533.01 813.337 C 1527.47 812.217 1520 813.673 1516.77 809.26 L 1516.72 807.658 z"/>
<path transform="translate(0,0)" fill="rgb(228,247,252)" d="M 1035.77 803.495 C 1062.67 802.878 1055.76 809.977 1051.88 832.526 C 1048.8 834.974 1044.25 838.319 1042.14 841.701 C 1041.29 843.061 1041.82 844.235 1040.93 845.242 C 1042.59 849.585 1041.96 850.863 1042.74 855.217 C 1044.91 867.268 1046.47 874.48 1053.87 884.512 C 1058.97 889.732 1061.92 892.043 1068.3 895.703 L 1083.18 895.834 C 1103.87 907.396 1110.63 913.937 1110.3 938.199 C 1126.52 937.914 1151.29 937.463 1167.07 939.007 C 1167.08 952.102 1166.71 956.312 1152.5 956.187 L 1160.02 1005.72 C 1160.98 1012.09 1162.56 1025.43 1163.97 1031.3 C 1164.73 1039.12 1172.39 1081.69 1170.76 1085.5 L 1168.95 1086.14 C 1170.25 1089.53 1171.39 1092.31 1172.88 1095.62 L 1173.15 1099.58 C 1183.01 1101.61 1192.46 1103.57 1202.22 1106.03 C 1201.53 1108.86 1200.72 1111.91 1200.15 1114.74 C 1197.25 1113.82 1178.8 1111.08 1174.95 1110.45 C 1159.99 1108.12 1145 1106.06 1129.97 1104.27 C 1120.47 1105.74 1072.3 1112.15 1065.2 1114.99 C 1064.69 1119.36 1062 1123.17 1058.06 1125.12 C 1054.28 1127 1049.82 1126.92 1046.1 1124.91 C 1041.87 1125.6 1038.19 1126.09 1033.92 1126.54 C 1035.25 1120.89 1035.63 1118.02 1036.17 1112.21 C 1036.27 1105.05 1034.38 1090.58 1034.69 1086.87 C 1028.61 1085.25 1004.88 1085.6 998.375 1086.48 C 979.294 1105.6 957.506 1092.08 952.818 1125.98 L 952 1126.22 C 942.374 1126.13 927.161 1125.62 918.115 1126.6 L 914.56 1126.14 C 911.5 1123.49 905.636 1116.2 900.976 1111.99 C 891.684 1103.59 884.692 1099.74 874.9 1092.41 L 874.691 1090.34 C 870.399 1026.22 868.803 961.395 865.058 897.178 C 863.265 866.433 861.788 834.977 860.881 804.204 C 893.696 804.361 926.512 804.288 959.326 803.987 C 973.052 813.346 987.131 824.842 1005.06 821.703 C 1011.3 820.611 1028.48 812.18 1029.83 806.169 C 1031.6 804.784 1033.63 804.26 1035.77 803.495 z"/>
<path transform="translate(0,0)" fill="rgb(228,247,252)" d="M 1083.06 938.186 C 1092.6 937.668 1101.59 938.838 1110.3 938.199 C 1126.52 937.914 1151.29 937.463 1167.07 939.007 C 1167.08 952.102 1166.71 956.312 1152.5 956.187 L 1160.02 1005.72 C 1160.98 1012.09 1162.56 1025.43 1163.97 1031.3 C 1164.73 1039.12 1172.39 1081.69 1170.76 1085.5 L 1168.95 1086.14 C 1170.25 1089.53 1171.39 1092.31 1172.88 1095.62 L 1173.15 1099.58 C 1183.01 1101.61 1192.46 1103.57 1202.22 1106.03 C 1201.53 1108.86 1200.72 1111.91 1200.15 1114.74 C 1197.25 1113.82 1178.8 1111.08 1174.95 1110.45 C 1159.99 1108.12 1145 1106.06 1129.97 1104.27 C 1120.47 1105.74 1072.3 1112.15 1065.2 1114.99 C 1064.69 1119.36 1062 1123.17 1058.06 1125.12 C 1054.28 1127 1049.82 1126.92 1046.1 1124.91 C 1041.87 1125.6 1038.19 1126.09 1033.92 1126.54 C 1035.25 1120.89 1035.63 1118.02 1036.17 1112.21 C 1036.27 1105.05 1034.38 1090.58 1034.69 1086.87 L 1037.37 1085.54 C 1038.52 1082.13 1022.37 952.426 1020.4 938.651 C 1027.61 938.592 1072.13 937.831 1077.2 938.968 L 1083.06 938.186 z"/>
<path transform="translate(0,0)" fill="rgb(79,93,249)" d="M 1083.06 938.186 C 1092.6 937.668 1101.59 938.838 1110.3 938.199 C 1126.52 937.914 1151.29 937.463 1167.07 939.007 C 1167.08 952.102 1166.71 956.312 1152.5 956.187 L 1160.02 1005.72 C 1160.98 1012.09 1162.56 1025.43 1163.97 1031.3 C 1164.73 1039.12 1172.39 1081.69 1170.76 1085.5 L 1168.95 1086.14 C 1170.25 1089.53 1171.39 1092.31 1172.88 1095.62 L 1173.15 1099.58 C 1183.01 1101.61 1192.46 1103.57 1202.22 1106.03 C 1201.53 1108.86 1200.72 1111.91 1200.15 1114.74 C 1197.25 1113.82 1178.8 1111.08 1174.95 1110.45 C 1159.99 1108.12 1145 1106.06 1129.97 1104.27 C 1120.47 1105.74 1072.3 1112.15 1065.2 1114.99 C 1065.51 1112.31 1064.98 1109.59 1063.68 1107.22 C 1076.51 1102.62 1113.46 1097.19 1123.98 1091.52 C 1125.13 1088.81 1125 1090.2 1124.19 1087.22 C 1119.01 1080.75 1082.9 956.965 1077.2 938.968 L 1083.06 938.186 z"/>
<path transform="translate(0,0)" fill="rgb(35,68,126)" d="M 1083.06 938.186 C 1087.24 938.298 1090.78 937.815 1093.94 940.217 C 1098.84 947.024 1090.48 953.47 1106.01 955.933 C 1110.98 956.721 1119.66 956.293 1124.89 956.248 L 1124.97 1041.02 C 1124.97 1052.13 1125.54 1077.09 1124.19 1087.22 C 1119.01 1080.75 1082.9 956.965 1077.2 938.968 L 1083.06 938.186 z"/>
<path transform="translate(0,0)" fill="rgb(35,68,126)" d="M 1139.05 956.167 L 1152.5 956.187 L 1160.02 1005.72 C 1160.98 1012.09 1162.56 1025.43 1163.97 1031.3 C 1164.73 1039.12 1172.39 1081.69 1170.76 1085.5 L 1168.95 1086.14 C 1161.23 1085.53 1147.34 1085.96 1139.16 1085.96 L 1139.05 956.167 z"/>
<path transform="translate(0,0)" fill="rgb(20,167,225)" d="M 1139.16 1085.96 C 1147.34 1085.96 1161.23 1085.53 1168.95 1086.14 C 1170.25 1089.53 1171.39 1092.31 1172.88 1095.62 L 1173.15 1099.58 C 1164.23 1097.47 1148.57 1095.37 1140.39 1091.17 C 1139.02 1090.47 1139.33 1088.08 1139.16 1085.96 z"/>
<path transform="translate(0,0)" fill="rgb(35,68,126)" d="M 1040.05 1109.07 C 1041.79 1104.26 1046.18 1100.91 1051.27 1100.51 C 1056.37 1100.11 1061.23 1102.74 1063.68 1107.22 C 1064.98 1109.59 1065.51 1112.31 1065.2 1114.99 C 1064.69 1119.36 1062 1123.17 1058.06 1125.12 C 1054.28 1127 1049.82 1126.92 1046.1 1124.91 C 1041.87 1125.6 1038.19 1126.09 1033.92 1126.54 C 1035.25 1120.89 1035.63 1118.02 1036.17 1112.21 C 1037.53 1111.2 1038.75 1110.15 1040.05 1109.07 z"/>
<path transform="translate(0,0)" fill="rgb(228,247,252)" d="M 1036.17 1112.21 C 1037.53 1111.2 1038.75 1110.15 1040.05 1109.07 C 1037.88 1115.12 1040.45 1121.85 1046.1 1124.91 C 1041.87 1125.6 1038.19 1126.09 1033.92 1126.54 C 1035.25 1120.89 1035.63 1118.02 1036.17 1112.21 z"/>
<path transform="translate(0,0)" fill="rgb(124,125,245)" d="M 1049.58 1108.55 C 1052.33 1107.07 1055.77 1108.12 1057.23 1110.89 C 1058.69 1113.65 1057.62 1117.08 1054.84 1118.53 C 1052.09 1119.96 1048.7 1118.9 1047.25 1116.15 C 1045.81 1113.41 1046.84 1110.01 1049.58 1108.55 z"/>
<path transform="translate(0,0)" fill="rgb(35,68,126)" d="M 1040.93 845.242 C 1042.59 849.585 1041.96 850.863 1042.74 855.217 C 1044.91 867.268 1046.47 874.48 1053.87 884.512 C 1058.97 889.732 1061.92 892.043 1068.3 895.703 L 1083.18 895.834 C 1103.87 907.396 1110.63 913.937 1110.3 938.199 C 1101.59 938.838 1092.6 937.668 1083.06 938.186 L 1077.2 938.968 C 1072.13 937.831 1027.61 938.592 1020.4 938.651 C 1022.37 952.426 1038.52 1082.13 1037.37 1085.54 L 1034.69 1086.87 C 1028.61 1085.25 1004.88 1085.6 998.375 1086.48 C 994.749 1086.03 994.867 1086.62 992.413 1084.72 C 981.529 1055.81 949.794 938.72 955.816 906.092 C 959.609 885.542 1020.27 855.104 1040.93 845.242 z"/>
<path transform="translate(0,0)" fill="rgb(79,93,249)" d="M 1068.3 895.703 L 1083.18 895.834 C 1103.87 907.396 1110.63 913.937 1110.3 938.199 C 1101.59 938.838 1092.6 937.668 1083.06 938.186 L 1077.2 938.968 C 1072.13 937.831 1027.61 938.592 1020.4 938.651 C 1019.99 936.513 1019.84 934.108 1019.83 931.923 C 1019.76 922.864 1023.32 914.154 1029.71 907.728 C 1041.11 896.227 1053.49 895.761 1068.3 895.703 z"/>
<path transform="translate(0,0)" fill="rgb(252,254,253)" d="M 874.691 1090.34 C 885.897 1090.04 917.515 1116.51 918.115 1126.6 L 914.56 1126.14 C 911.5 1123.49 905.636 1116.2 900.976 1111.99 C 891.684 1103.59 884.692 1099.74 874.9 1092.41 L 874.691 1090.34 z"/>
<path transform="translate(0,0)" fill="rgb(153,213,234)" d="M 926.042 774.191 C 935.026 763.234 939.625 755.567 955.072 759.543 C 944.864 766.811 942.224 771.178 943.293 783.76 L 944.266 784.198 L 944.309 786.793 C 949.035 792.477 953.346 797.814 958.582 803.058 L 959.326 803.987 C 926.512 804.288 893.696 804.361 860.881 804.204 C 861.788 834.977 863.265 866.433 865.058 897.178 C 868.803 961.395 870.399 1026.22 874.691 1090.34 L 874.9 1092.41 C 884.692 1099.74 891.684 1103.59 900.976 1111.99 C 905.636 1116.2 911.5 1123.49 914.56 1126.14 L 918.115 1126.6 C 927.161 1125.62 942.374 1126.13 952 1126.22 C 949.297 1127.18 625.075 1128.25 613.806 1126.61 C 614.822 1102.81 617.129 1079.07 618.576 1055.3 C 618.855 1050.73 619.218 1046.18 619.884 1041.64 L 619.599 1037.95 C 621.848 1019.92 622.86 997.198 624.157 978.759 C 618.743 978.726 613.329 978.655 607.916 978.545 C 609.735 935.66 627.888 914.954 647.411 878.995 L 648.653 874.89 C 660.168 875.66 724.427 877.502 729.836 882.967 C 730.007 883.14 730.123 883.359 730.267 883.556 C 733.494 873.334 737.601 823.375 740.82 817.103 C 743.048 813.58 742.596 811.101 744.14 806.445 C 747.377 804.664 761.119 805.518 765.823 805.687 L 765.02 808.95 L 766.196 810.789 C 766.787 807.312 766.429 805.822 768.518 803.527 C 777.134 802.736 826.95 802.759 835.467 803.613 C 839.644 803.775 845.337 803.492 849.637 803.404 C 842.061 796.248 841.725 791.736 849.013 784.006 C 867.268 783.992 890.133 783.323 908.009 784.127 L 907.717 773.854 C 911.392 774.076 913.411 774.788 915.886 772.141 L 917.003 773.829 C 920.192 774.199 921.976 774.282 925.188 774.261 L 926.042 774.191 z"/>
<path transform="translate(0,0)" fill="rgb(228,247,252)" d="M 766.196 810.789 C 766.787 807.312 766.429 805.822 768.518 803.527 C 777.134 802.736 826.95 802.759 835.467 803.613 C 837.537 846.301 842.334 894.198 845.692 937.192 L 860.234 1126.16 L 710.056 1126.16 L 719.117 1074.33 C 719.918 1069.78 722.549 1053.75 723.712 1050.4 L 723.982 1048.74 C 724.223 1045.16 725.307 1040.09 725.996 1036.46 C 735.283 987.499 742.66 937.812 752.613 889.009 L 752.006 886.239 C 754.654 881.372 765.49 819.655 766.196 810.789 z"/>
<path transform="translate(0,0)" fill="rgb(252,254,253)" d="M 723.982 1048.74 C 745.307 1049.34 840.096 1068.93 855.104 1079.69 L 855.624 1082 L 854.747 1083.09 C 846.4 1081.2 838.008 1077.72 829.799 1075.14 C 805.816 1067.6 781.458 1062.53 756.783 1057.93 C 750.481 1056.76 726.058 1055.41 723.712 1050.4 L 723.982 1048.74 z"/>
<path transform="translate(0,0)" fill="rgb(252,254,253)" d="M 752.006 886.239 C 764.093 884.653 835.324 903.187 843.292 911.973 L 842.819 913.543 C 837.221 913.33 810.806 904.263 803.819 901.698 C 789.566 896.464 764.532 893.497 752.613 889.009 L 752.006 886.239 z"/>
<path transform="translate(0,0)" fill="rgb(228,247,252)" d="M 648.653 874.89 C 660.168 875.66 724.427 877.502 729.836 882.967 C 730.007 883.14 730.123 883.359 730.267 883.556 L 729.972 885.357 C 726.586 917.554 719.195 954.603 714.787 987.269 C 713.234 998.782 707.826 1038.4 705.561 1047.27 L 705.088 1050.27 L 650.135 1044.83 C 640.957 1043.94 628.544 1043.33 619.884 1041.64 L 619.599 1037.95 C 621.848 1019.92 622.86 997.198 624.157 978.759 C 618.743 978.726 613.329 978.655 607.916 978.545 C 609.735 935.66 627.888 914.954 647.411 878.995 L 648.653 874.89 z"/>
<path transform="translate(0,0)" fill="rgb(252,254,253)" d="M 619.599 1037.95 C 642.132 1037.73 679.963 1043.06 703.406 1045.48 C 704.255 1046.19 704.973 1046.78 705.561 1047.27 L 705.088 1050.27 L 650.135 1044.83 C 640.957 1043.94 628.544 1043.33 619.884 1041.64 L 619.599 1037.95 z"/>
<path transform="translate(0,0)" fill="rgb(252,254,253)" d="M 648.653 874.89 C 660.168 875.66 724.427 877.502 729.836 882.967 C 730.007 883.14 730.123 883.359 730.267 883.556 L 729.972 885.357 C 727.665 885.604 651.631 879.995 647.411 878.995 L 648.653 874.89 z"/>
<path transform="translate(0,0)" fill="rgb(228,247,252)" d="M 619.884 1041.64 C 628.544 1043.33 640.957 1043.94 650.135 1044.83 L 705.088 1050.27 C 701.717 1073.12 696.105 1104.01 693.765 1126.12 L 640.481 1126.06 C 635.324 1126.07 618.159 1125.9 613.806 1126.61 C 614.822 1102.81 617.129 1079.07 618.576 1055.3 C 618.855 1050.73 619.218 1046.18 619.884 1041.64 z"/>
<path transform="translate(0,0)" fill="rgb(35,68,126)" d="M 926.042 774.191 C 935.026 763.234 939.625 755.567 955.072 759.543 C 944.864 766.811 942.224 771.178 943.293 783.76 L 944.266 784.198 L 944.309 786.793 C 949.035 792.477 953.346 797.814 958.582 803.058 C 938.384 803.715 915.729 803.087 895.323 803.192 C 881.259 803.265 863.219 803.94 849.637 803.404 C 842.061 796.248 841.725 791.736 849.013 784.006 C 867.268 783.992 890.133 783.323 908.009 784.127 L 907.717 773.854 C 911.392 774.076 913.411 774.788 915.886 772.141 L 917.003 773.829 C 920.192 774.199 921.976 774.282 925.188 774.261 L 926.042 774.191 z"/>
<path transform="translate(0,0)" fill="rgb(252,165,150)" d="M 926.042 774.191 C 935.026 763.234 939.625 755.567 955.072 759.543 C 944.864 766.811 942.224 771.178 943.293 783.76 C 937.782 784.321 925.524 784.021 919.487 784.028 C 922.07 780.528 923.77 777.894 926.042 774.191 z"/>
<path transform="translate(0,0)" fill="rgb(124,125,245)" d="M 915.886 772.141 L 917.003 773.829 C 920.192 774.199 921.976 774.282 925.188 774.261 L 926.042 774.191 C 923.77 777.894 922.07 780.528 919.487 784.028 C 925.524 784.021 937.782 784.321 943.293 783.76 L 944.266 784.198 L 944.309 786.793 C 935.199 787.12 914.382 789.406 908.009 784.127 L 907.717 773.854 C 911.392 774.076 913.411 774.788 915.886 772.141 z"/>
<path transform="translate(0,0)" fill="rgb(228,247,252)" d="M 874.9 1092.41 C 884.692 1099.74 891.684 1103.59 900.976 1111.99 C 905.636 1116.2 911.5 1123.49 914.56 1126.14 L 876.259 1126.21 C 875.961 1115.01 875.327 1103.64 874.9 1092.41 z"/>
<path transform="translate(0,0)" fill="rgb(228,247,252)" d="M 1577.25 816.071 C 1602.06 822.2 1620.68 830.196 1643.46 841.077 C 1651.7 845.009 1680.04 860.6 1686.69 861.804 L 1688.81 866.022 C 1692.43 872.975 1696.63 879.305 1699.75 886.596 C 1722.61 939.921 1726.46 1007.53 1711.36 1063.44 C 1707.16 1078.96 1690.64 1116.13 1678.08 1125.94 C 1633.51 1127.95 1577.24 1126.32 1531.79 1126.29 L 1542.18 978.794 L 1526.01 978.649 C 1527.33 945.861 1538.57 924.912 1555.15 897.597 C 1565.92 879.838 1578.75 859.871 1556.83 844.952 C 1564.09 836.7 1569.81 826.916 1576.32 819.602 L 1577.25 816.071 z"/>
<path transform="translate(0,0)" fill="rgb(252,254,253)" d="M 1577.25 816.071 C 1602.06 822.2 1620.68 830.196 1643.46 841.077 C 1651.7 845.009 1680.04 860.6 1686.69 861.804 L 1688.81 866.022 C 1688.13 868.014 1688.7 867.197 1687 868.514 C 1679.49 867.72 1636.63 840.403 1622.86 836.722 C 1618.97 835.685 1577.81 820.556 1576.32 819.602 L 1577.25 816.071 z"/>
<path transform="translate(0,0)" fill="rgb(20,167,225)" d="M 998.375 1086.48 C 1004.88 1085.6 1028.61 1085.25 1034.69 1086.87 C 1034.38 1090.58 1036.27 1105.05 1036.17 1112.21 C 1035.63 1118.02 1035.25 1120.89 1033.92 1126.54 C 1026.18 1127.58 958.872 1127.29 952.818 1125.98 C 957.506 1092.08 979.294 1105.6 998.375 1086.48 z"/>
<path transform="translate(0,0)" fill="rgb(228,247,252)" d="M 1065.2 1114.99 C 1072.3 1112.15 1120.47 1105.74 1129.97 1104.27 C 1130.04 1112.57 1130.41 1118.25 1131.25 1126.51 C 1114.16 1125.54 1071.79 1127.52 1058.06 1125.12 C 1062 1123.17 1064.69 1119.36 1065.2 1114.99 z"/>
<path transform="translate(0,0)" fill="rgb(20,167,225)" d="M 1129.97 1104.27 C 1145 1106.06 1159.99 1108.12 1174.95 1110.45 L 1175.04 1126.65 C 1161.19 1126.73 1144.9 1127.21 1131.25 1126.51 C 1130.41 1118.25 1130.04 1112.57 1129.97 1104.27 z"/>
<path transform="translate(0,0)" fill="rgb(228,247,252)" d="M 1174.95 1110.45 C 1178.8 1111.08 1197.25 1113.82 1200.15 1114.74 C 1202.3 1119.65 1203.51 1122.54 1208.26 1125.64 C 1202.09 1126.77 1183.02 1126.39 1175.04 1126.65 L 1174.95 1110.45 z"/>
<path transform="translate(0,0)" fill="url(#Gradient2)" d="M 595.957 514.3 C 554.878 520.612 515.199 496.509 501.867 457.145 C 488.534 417.78 505.4 374.526 541.861 354.576 C 578.321 334.627 623.843 343.746 649.806 376.199 C 675.769 408.653 674.674 455.066 647.208 486.258 C 636.064 498.914 621.431 507.997 605.144 512.368 C 602.119 513.179 599.053 513.825 595.957 514.3 z"/>
<path transform="translate(0,0)" fill="rgb(229,239,243)" d="M 578.839 358.392 C 618.367 356.145 652.2 386.435 654.322 425.97 C 656.444 465.505 626.047 499.242 586.506 501.239 C 547.141 503.228 513.586 472.995 511.474 433.637 C 509.361 394.278 539.488 360.628 578.839 358.392 z"/>
<path transform="translate(0,0)" fill="url(#Gradient1)" d="M 572.191 381.003 L 593.471 380.998 C 592.472 401.203 591.591 421.414 590.828 441.63 C 588.519 442.099 578.032 441.942 575.093 441.95 C 574.289 421.627 573.322 401.311 572.191 381.003 z"/>
<path transform="translate(0,0)" fill="rgb(19,132,220)" d="M 579.184 454.552 C 585.469 452.541 592.217 455.874 594.44 462.088 C 596.662 468.301 593.56 475.158 587.425 477.59 C 583.267 479.238 578.542 478.488 575.1 475.633 C 571.657 472.778 570.046 468.273 570.897 463.882 C 571.747 459.492 574.925 455.915 579.184 454.552 z"/>
</svg>