<svg version="1.1" xmlns="http://www.w3.org/2000/svg" style="display: block;" viewBox="0 0 2048 1365" width="2000" height="1333" preserveAspectRatio="none">
<path transform="translate(0,0)" fill="rgb(226,215,252)" d="M 773.114 160.28 C 773.04 156.213 773.037 152.359 773.187 148.23 C 775.034 97.302 838.76 55.55 881.809 91.3233 C 904.845 110.467 909.819 138.913 912.506 167.371 C 931.923 144.37 959.452 123.795 983.932 153.671 C 1019.29 143.492 1073.51 136.051 1110.51 132.28 C 1267.47 116.283 1433.24 133.566 1573.23 210.682 C 1657.64 257.188 1738.22 338.594 1765.32 433.073 C 1766.25 436.336 1766.98 439.653 1767.51 443.004 C 1794.77 459.444 1803.33 480.548 1805.52 511.608 C 1819.07 497.148 1841.28 497.571 1850.63 516.302 C 1850.21 530.575 1847.47 534.521 1840.41 546.914 C 1833.04 546.636 1786.8 544.594 1782.89 546.833 C 1779.52 631.298 1762.54 685.997 1724.18 761.587 C 1700.31 773.971 1685.89 790.216 1676.89 816.112 C 1673.39 826.149 1673.15 837.496 1666.31 845.054 C 1653.27 851.601 1613.3 821.189 1593.56 870.229 C 1584.94 891.649 1596.94 921.367 1578.62 931.536 C 1572.33 935.029 1562.8 934.358 1555.59 934.295 L 1539.82 1015.33 C 1537.16 1028.92 1533.21 1046.44 1531.27 1059.9 L 1530.39 1063.36 L 1531.25 1063.98 C 1539.22 1070.02 1541.13 1070.7 1549.41 1075.41 C 1540.22 1083.46 1531.36 1091.89 1522.86 1100.68 L 1520.43 1112.24 L 1519.55 1117.24 L 1518.37 1124.9 C 1517.07 1131.34 1514.34 1143.23 1514.35 1149.28 C 1511.62 1154.65 1511.25 1158.02 1510.12 1163.98 L 1509.24 1167.99 C 1508.61 1171.6 1506.99 1179.63 1506.83 1182.91 C 1502.99 1198.45 1499.47 1213.92 1496.29 1229.61 C 1494.19 1239.97 1492.88 1251.24 1489.31 1261.18 C 1487.83 1265.3 1485.76 1270.25 1481.87 1272.6 C 1464.1 1283.37 1358.94 1269.49 1332.68 1265.37 C 1305.04 1260.92 1277.54 1255.67 1250.22 1249.61 C 1201.51 1238.85 1148.31 1222.78 1102.26 1204.34 C 1036.65 1220.03 976.376 1232.01 908.754 1236.57 C 892.104 1237.69 868.991 1240.2 852.741 1237.82 C 842.94 1239.21 818.029 1246.37 806.734 1249.04 C 778.8 1255.72 750.57 1261.11 722.135 1265.17 C 699.11 1268.5 579.525 1285.04 568.016 1271.72 C 563.355 1266.33 555.659 1218.45 553.585 1208.62 C 552.719 1204.51 551.18 1191.15 548.196 1188.92 C 550.087 1185.02 539.712 1143.19 538.665 1134.55 C 537.32 1131.99 538.258 1133.07 535.461 1131.52 C 536.282 1130.72 535.997 1130.78 536.411 1129.4 L 533.301 1128.49 C 535.27 1128.17 534.528 1128.4 536.249 1127.21 C 536.622 1122.7 534.683 1116.41 533.543 1111.82 L 528.386 1085.84 C 526.228 1076.8 518.418 1032.35 515.271 1027.87 C 515.63 1022.61 516.044 1021.38 513.38 1017.54 C 514.055 1010.73 493.053 912.55 490.413 901.678 C 488.091 901.163 479.923 889.945 470.552 887.972 C 452.109 884.09 437.293 890.922 419.773 884.174 C 395.076 874.662 403.756 833.285 376.871 821.252 C 352.178 810.201 329.212 828.346 303.032 819.614 C 288.561 814.787 280.981 809.735 268.727 801.56 C 266.893 793.321 268.026 781.978 269.133 773.51 C 285.828 645.809 357.379 532.338 445.687 441.451 C 453.063 433.86 460.019 424.78 469.74 420.316 C 462.594 418.718 437.748 418.932 428.64 418.67 L 347.676 415.748 C 344.373 406.375 336.799 379.579 354.778 375.032 C 359.47 373.845 367.806 380.258 371.307 383.56 C 371.065 379.334 370.608 373.447 371.293 369.333 C 372.644 360.951 377.326 353.471 384.276 348.594 C 391.512 343.583 400.455 341.682 409.104 343.317 C 422.722 345.855 432.85 357.124 434.641 370.726 C 435.006 373.504 434.191 377.1 435.318 378.74 C 454.897 342.155 506.419 327.638 528.952 367.359 C 535.154 360.88 552.818 347.678 560.96 341.713 C 624.32 295.296 694.125 255.975 765.96 224.325 C 788.093 214.573 813.095 203.747 836.083 196.748 C 828.992 195.539 810.332 195.251 802.556 194.918 L 739.353 191.829 C 738.626 185.064 737.231 175.262 738.101 168.757 C 741.077 146.486 759.9 140.396 773.114 160.28 z"/>
<path transform="translate(0,0)" fill="rgb(48,47,85)" d="M 490.413 901.678 C 485.931 863.663 418.541 569.301 425.708 559.296 C 438.938 540.83 659.679 491.931 696.252 486.429 L 697.783 487.552 C 697.156 489.544 674.349 517.256 671.748 520.246 C 670.809 523.091 667.215 529.489 665.21 531.663 C 660.278 544.217 657.068 552.455 653.919 565.602 C 646.233 615.459 663.066 634.385 688.004 673.896 C 695.873 686.363 734.063 710.072 728.534 723.674 C 719.351 745.85 758.66 750.367 773.196 748.821 C 774.698 744.787 775.531 742.033 777.986 738.47 C 797.451 717.291 827.468 720.025 854.722 713.306 C 857.645 726.839 862.148 744.972 864.383 758.246 C 868.859 759.103 884.605 762.951 887.739 761.181 C 896.766 769.166 984.266 773.029 1002.34 777.272 L 1004.84 780.444 C 1000.84 783.997 1000.1 784.308 999.946 789.969 C 999.86 793.14 999.798 800.796 1002.8 802.378 C 1007.98 804.477 1013.65 806.921 1018.85 808.832 L 1019.98 809.987 L 1022.13 809.708 C 1030.23 818.388 1050.26 806.52 1060.15 802.46 L 1059.78 807.366 C 1059.65 811.307 1059.03 811.505 1060.78 814.69 C 1074.62 822.397 1133.38 829.861 1150.2 830.202 L 1102.19 1069.63 C 1094.81 1106.79 1087.32 1143.94 1080.22 1181.15 C 1079.83 1183.19 1078.81 1189.68 1079.9 1191.03 C 1083.2 1195.15 1097.64 1203.63 1102.26 1204.34 C 1036.65 1220.03 976.376 1232.01 908.754 1236.57 C 892.104 1237.69 868.991 1240.2 852.741 1237.82 C 842.94 1239.21 818.029 1246.37 806.734 1249.04 C 778.8 1255.72 750.57 1261.11 722.135 1265.17 C 699.11 1268.5 579.525 1285.04 568.016 1271.72 C 563.355 1266.33 555.659 1218.45 553.585 1208.62 C 552.719 1204.51 551.18 1191.15 548.196 1188.92 C 550.087 1185.02 539.712 1143.19 538.665 1134.55 C 537.32 1131.99 538.258 1133.07 535.461 1131.52 C 536.282 1130.72 535.997 1130.78 536.411 1129.4 L 533.301 1128.49 C 535.27 1128.17 534.528 1128.4 536.249 1127.21 C 536.622 1122.7 534.683 1116.41 533.543 1111.82 L 528.386 1085.84 C 526.228 1076.8 518.418 1032.35 515.271 1027.87 C 515.63 1022.61 516.044 1021.38 513.38 1017.54 C 514.055 1010.73 493.053 912.55 490.413 901.678 z"/>
<path transform="translate(0,0)" fill="rgb(168,138,248)" d="M 653.919 565.602 C 646.233 615.459 663.066 634.385 688.004 673.896 C 695.873 686.363 734.063 710.072 728.534 723.674 C 719.351 745.85 758.66 750.367 773.196 748.821 C 774.698 744.787 775.531 742.033 777.986 738.47 C 797.451 717.291 827.468 720.025 854.722 713.306 C 857.645 726.839 862.148 744.972 864.383 758.246 C 868.859 759.103 884.605 762.951 887.739 761.181 C 896.766 769.166 984.266 773.029 1002.34 777.272 L 1004.84 780.444 C 1000.84 783.997 1000.1 784.308 999.946 789.969 C 999.86 793.14 999.798 800.796 1002.8 802.378 C 1002.68 804.539 1002.23 805.553 1003.12 807.106 C 1002.33 809.218 1001.61 813.291 998.241 814.339 C 967.756 823.821 934.338 824.317 902.603 824.59 C 902.144 824.983 901.685 825.375 901.226 825.767 C 900.014 823.476 883.591 822.872 879.805 822.515 C 856.174 820.638 827.721 813.265 805.202 806.091 C 803.918 859.76 796.432 915.911 789.864 969.358 C 788.233 982.627 783.597 992.55 767.962 990.789 C 768.764 988.416 769.05 988.256 768.431 985.796 C 766.485 984.238 738.477 980.995 734.07 980.272 C 719.245 977.757 704.531 974.628 689.966 970.893 C 662.709 963.954 634.128 952.972 607.729 943.17 C 599.941 940.278 591.72 935.263 584.311 932.46 L 581.524 935.254 C 580.231 934.608 578.671 933.716 577.617 932.734 C 576.113 931.332 575.245 929.599 575.145 927.561 C 574.358 911.586 625.707 825.876 636.555 809.895 C 646.322 795.344 657.108 781.503 668.832 768.476 C 630.809 739.027 598.933 709.924 567.447 673.293 C 557.888 662.172 544.029 650.484 539.064 635.584 C 537.169 629.896 540.32 624.307 542.951 619.392 L 546.554 616.08 C 550.489 614.796 558.696 606.668 559.539 602.192 L 562.705 599.084 C 562.132 596.22 561.918 589.572 561.738 586.324 L 653.919 565.602 z"/>
<path transform="translate(0,0)" fill="rgb(109,110,179)" d="M 653.919 565.602 C 646.233 615.459 663.066 634.385 688.004 673.896 C 695.873 686.363 734.063 710.072 728.534 723.674 C 727.091 722.37 685.983 704.743 679.521 701.295 C 636.578 678.381 600.036 647.836 572.691 607.369 C 568.241 600.785 567.517 599.301 562.705 599.084 C 562.132 596.22 561.918 589.572 561.738 586.324 L 653.919 565.602 z"/>
<path transform="translate(0,0)" fill="rgb(109,110,179)" d="M 777.986 738.47 C 797.451 717.291 827.468 720.025 854.722 713.306 C 857.645 726.839 862.148 744.972 864.383 758.246 C 852.903 755.978 783.689 742.737 777.986 738.47 z"/>
<path transform="translate(0,0)" fill="rgb(226,215,252)" d="M 1002.8 802.378 C 1007.98 804.477 1013.65 806.921 1018.85 808.832 L 1019.98 809.987 L 1022.13 809.708 C 1030.23 818.388 1050.26 806.52 1060.15 802.46 L 1059.78 807.366 C 1059.65 811.307 1059.03 811.505 1060.78 814.69 C 1074.62 822.397 1133.38 829.861 1150.2 830.202 L 1102.19 1069.63 C 1094.81 1106.79 1087.32 1143.94 1080.22 1181.15 C 1079.83 1183.19 1078.81 1189.68 1079.9 1191.03 C 1083.2 1195.15 1097.64 1203.63 1102.26 1204.34 C 1036.65 1220.03 976.376 1232.01 908.754 1236.57 C 892.104 1237.69 868.991 1240.2 852.741 1237.82 C 860.74 1233.61 871.904 1231.48 880.626 1228.79 C 896.733 1223.83 965.161 1203.32 971.827 1192.06 C 974.111 1188.2 974.288 1183.33 973.797 1178.99 C 972.224 1165.06 968.628 1150.97 965.857 1137.22 L 950.65 1062.07 C 934.691 983.195 918.216 904.426 901.226 825.767 C 901.685 825.375 902.144 824.983 902.603 824.59 C 934.338 824.317 967.756 823.821 998.241 814.339 C 1001.61 813.291 1002.33 809.218 1003.12 807.106 C 1002.23 805.553 1002.68 804.539 1002.8 802.378 z"/>
<path transform="translate(0,0)" fill="rgb(59,29,101)" d="M 1002.8 802.378 C 1007.98 804.477 1013.65 806.921 1018.85 808.832 L 1019.98 809.987 L 1022.13 809.708 C 1030.23 818.388 1050.26 806.52 1060.15 802.46 L 1059.78 807.366 C 1049.57 811.219 1046.42 812.196 1037.76 818.892 C 1024.88 818.211 1015.15 812.384 1003.12 807.106 C 1002.23 805.553 1002.68 804.539 1002.8 802.378 z"/>
<path transform="translate(0,0)" fill="rgb(109,110,179)" d="M 805.202 806.091 C 827.721 813.265 856.174 820.638 879.805 822.515 C 877.238 828.358 923.162 1022.89 927.018 1045.38 C 929.187 1058.04 939.597 1104.85 942.702 1121.55 C 940.605 1124.13 937.15 1128.79 934.114 1129.54 C 913.174 1134.78 889.372 1137.65 868.024 1141.53 C 821.123 1150.19 774.296 1159.25 727.547 1168.69 C 739.864 1124.2 752.302 1079.67 760.836 1034.21 C 761.919 1028.44 766.096 993.882 767.962 990.789 C 783.597 992.55 788.233 982.627 789.864 969.358 C 796.432 915.911 803.918 859.76 805.202 806.091 z"/>
<path transform="translate(0,0)" fill="rgb(109,110,179)" d="M 506.565 598.852 C 512.152 611.707 530.311 615.032 542.951 619.392 C 540.32 624.307 537.169 629.896 539.064 635.584 C 544.029 650.484 557.888 662.172 567.447 673.293 C 598.933 709.924 630.809 739.027 668.832 768.476 C 657.108 781.503 646.322 795.344 636.555 809.895 C 625.707 825.876 574.358 911.586 575.145 927.561 C 575.245 929.599 576.113 931.332 577.617 932.734 C 578.671 933.716 580.231 934.608 581.524 935.254 C 580.392 946.464 544.095 1009.23 535.785 1021.52 C 531.162 1002.73 526.985 979.866 522.986 960.671 L 497.601 838.565 C 481.858 763.44 464.173 688.33 450.856 612.74 C 464.709 610.638 489.497 602.29 506.565 598.852 z"/>
<path transform="translate(0,0)" fill="rgb(252,251,254)" d="M 546.554 616.08 C 538.731 613.671 510.15 606.119 511.428 596.822 C 518.302 597.002 522.419 606.094 529.527 603.014 C 527.975 599.571 508.416 592.185 513.119 584.552 C 522.087 583.857 524.029 596.122 533.058 598.692 L 534.057 597.509 C 532.311 592.551 520.101 587.178 519.442 577.434 C 520.883 574.857 519.865 575.88 522.901 574.602 C 532.902 577.263 531.866 593.804 540.759 592.633 C 539.818 587.633 530.9 578.509 530.197 571.166 L 531.511 570.263 C 539.052 571.02 545.145 585.126 548.478 591.308 L 549.587 591.537 C 551.268 587.763 546.303 585.069 548.429 577.835 C 551.016 576.141 550.122 576.193 552.759 576.249 C 558.131 581.954 558.38 594.04 559.539 602.192 C 558.696 606.668 550.489 614.796 546.554 616.08 z"/>
<path transform="translate(0,0)" fill="rgb(109,110,179)" d="M 671.748 520.246 C 670.809 523.091 667.215 529.489 665.21 531.663 C 642.425 538.597 619.526 542.938 595.989 546.391 C 591.276 547.083 580.551 547.782 580.054 541.381 C 582.28 539.059 590.363 537.664 593.817 537.276 C 620.816 534.241 645.623 527.316 671.748 520.246 z"/>
<path transform="translate(0,0)" fill="rgb(252,251,254)" d="M 585.802 937.59 C 638.536 968.126 703.13 986.416 763.869 990.223 C 745.847 1052.05 735.262 1110.32 718.859 1170.47 C 703.962 1173.76 671.399 1181.84 658.082 1183.3 C 655.548 1184.32 654.007 1185.11 651.321 1185.49 C 635.465 1188.18 584.705 1203.91 573.879 1197.36 C 570.414 1192.55 557.017 1129.33 557.352 1124.29 C 556.044 1121.17 555.775 1118.99 555.155 1115.71 C 548.666 1087.95 544.065 1058.96 537.466 1031.38 C 554.851 1002.61 576.699 969.467 585.802 937.59 z"/>
<path transform="translate(0,0)" fill="rgb(109,110,179)" d="M 640.198 1020.67 C 644.447 1022.35 649.77 1024.62 654.026 1025.93 C 654.322 1080.98 655.978 1129.91 651.321 1185.49 C 635.465 1188.18 584.705 1203.91 573.879 1197.36 C 570.414 1192.55 557.017 1129.33 557.352 1124.29 C 583.9 1089.24 614.343 1056.91 640.198 1020.67 z"/>
<path transform="translate(0,0)" fill="rgb(59,29,101)" d="M 636.55 1018.94 C 630.001 1015.31 610.801 1004.91 608.233 998.566 C 613.472 998.634 629.709 1008.38 635.742 1011.09 C 643.034 1014.32 650.489 1017.17 658.076 1019.63 C 665.824 1022.1 673.731 1024.04 681.743 1025.44 C 686.489 1026.27 698.982 1026.83 702.086 1029.04 L 702.892 1031.45 C 698.34 1038.17 665.274 1029.57 657.493 1027.07 C 663.04 1062.53 663.966 1102.22 662.462 1138.28 C 661.877 1152.3 658.932 1168.6 658.082 1183.3 C 655.548 1184.32 654.007 1185.11 651.321 1185.49 C 655.978 1129.91 654.322 1080.98 654.026 1025.93 C 649.77 1024.62 644.447 1022.35 640.198 1020.67 C 614.343 1056.91 583.9 1089.24 557.352 1124.29 C 556.044 1121.17 555.775 1118.99 555.155 1115.71 C 577.411 1088.22 612.586 1042.83 636.55 1018.94 z"/>
<path transform="translate(0,0)" fill="rgb(109,110,179)" d="M 757.176 1182.17 C 761.877 1181.78 766.835 1181.57 771.288 1183.25 C 777.575 1185.63 782.621 1190.47 785.265 1196.65 C 792.509 1213.37 784.134 1228.16 767.96 1234.62 C 734.587 1238.64 726.027 1195.92 757.176 1182.17 z"/>
<path transform="translate(0,0)" fill="rgb(254,233,137)" d="M 1351.76 489.293 C 1359.29 488.66 1381.59 492.714 1389.84 494.058 C 1453.11 504.251 1515.77 517.91 1577.54 534.973 C 1587.97 537.886 1615.91 545.251 1624.93 549.155 C 1619.77 595.159 1608.78 647.462 1600.47 693.728 C 1586.16 774.038 1571.2 854.229 1555.59 934.295 L 1539.82 1015.33 C 1537.16 1028.92 1533.21 1046.44 1531.27 1059.9 L 1530.39 1063.36 L 1531.25 1063.98 C 1539.22 1070.02 1541.13 1070.7 1549.41 1075.41 C 1540.22 1083.46 1531.36 1091.89 1522.86 1100.68 L 1520.43 1112.24 L 1519.55 1117.24 L 1518.37 1124.9 C 1517.07 1131.34 1514.34 1143.23 1514.35 1149.28 C 1511.62 1154.65 1511.25 1158.02 1510.12 1163.98 L 1509.24 1167.99 C 1508.61 1171.6 1506.99 1179.63 1506.83 1182.91 C 1502.99 1198.45 1499.47 1213.92 1496.29 1229.61 C 1494.19 1239.97 1492.88 1251.24 1489.31 1261.18 C 1487.83 1265.3 1485.76 1270.25 1481.87 1272.6 C 1464.1 1283.37 1358.94 1269.49 1332.68 1265.37 C 1305.04 1260.92 1277.54 1255.67 1250.22 1249.61 C 1201.51 1238.85 1148.31 1222.78 1102.26 1204.34 C 1097.64 1203.63 1083.2 1195.15 1079.9 1191.03 C 1078.81 1189.68 1079.83 1183.19 1080.22 1181.15 C 1087.32 1143.94 1094.81 1106.79 1102.19 1069.63 L 1150.2 830.202 C 1133.38 829.861 1074.62 822.397 1060.78 814.69 C 1059.03 811.505 1059.65 811.307 1059.78 807.366 L 1060.15 802.46 C 1061.58 800.267 1063.36 787.021 1063.51 783.889 L 1064.75 780.68 C 1066.65 776.014 1065.55 776.954 1068.87 774.554 C 1075.67 774.148 1096.6 779.321 1105.33 780.286 C 1124.38 782.394 1140.84 782.621 1159.86 782.848 C 1166.12 782.522 1174.32 782.372 1180.29 781.1 C 1201.68 780.372 1228.54 774.177 1249.49 769.251 C 1258.1 767.226 1271.88 762.879 1280.15 761.808 C 1293.83 774.147 1328.07 769.392 1325.82 750.9 L 1326.32 748.783 C 1330.67 743.853 1384.17 715.585 1394.41 709.125 C 1414.7 696.055 1433.68 681.078 1451.11 664.397 C 1460.31 655.633 1469.23 646.573 1477.85 637.232 C 1481.7 633.045 1488.55 623.183 1493.52 621.928 C 1494.41 602.571 1496.03 594.457 1509.15 598.92 C 1510.96 599.535 1517.74 591.626 1525.1 590.13 C 1515.82 589.52 1492.33 584.327 1482.32 582.371 L 1403.99 567.366 C 1398.07 555.054 1392.82 545.086 1386.24 533.218 C 1385.5 532.458 1379.68 523.244 1378.71 521.742 C 1370.54 510.271 1361.53 499.425 1351.76 489.293 z"/>
<path transform="translate(0,0)" fill="rgb(252,251,254)" d="M 1351.76 489.293 C 1359.29 488.66 1381.59 492.714 1389.84 494.058 C 1453.11 504.251 1515.77 517.91 1577.54 534.973 C 1587.97 537.886 1615.91 545.251 1624.93 549.155 C 1619.77 595.159 1608.78 647.462 1600.47 693.728 C 1586.16 774.038 1571.2 854.229 1555.59 934.295 L 1539.82 1015.33 C 1537.16 1028.92 1533.21 1046.44 1531.27 1059.9 L 1530.39 1063.36 L 1531.25 1063.98 C 1539.22 1070.02 1541.13 1070.7 1549.41 1075.41 C 1540.22 1083.46 1531.36 1091.89 1522.86 1100.68 L 1520.43 1112.24 L 1519.55 1117.24 L 1518.37 1124.9 C 1517.07 1131.34 1514.34 1143.23 1514.35 1149.28 C 1511.62 1154.65 1511.25 1158.02 1510.12 1163.98 L 1509.24 1167.99 C 1508.61 1171.6 1506.99 1179.63 1506.83 1182.91 C 1502.99 1198.45 1499.47 1213.92 1496.29 1229.61 C 1494.19 1239.97 1492.88 1251.24 1489.31 1261.18 C 1487.83 1265.3 1485.76 1270.25 1481.87 1272.6 C 1464.1 1283.37 1358.94 1269.49 1332.68 1265.37 C 1305.04 1260.92 1277.54 1255.67 1250.22 1249.61 C 1201.51 1238.85 1148.31 1222.78 1102.26 1204.34 C 1097.64 1203.63 1083.2 1195.15 1079.9 1191.03 C 1078.81 1189.68 1079.83 1183.19 1080.22 1181.15 C 1087.32 1143.94 1094.81 1106.79 1102.19 1069.63 L 1150.2 830.202 C 1157.43 830.677 1163.12 831.016 1170.41 830.879 C 1195.86 830.741 1226.1 828.864 1251.09 823.474 C 1250.94 868.065 1251.9 914.588 1249.86 958.879 C 1247.66 1006.41 1240.01 1056 1232.36 1102.89 C 1229.52 1120.33 1230.5 1132.11 1226.03 1149.36 C 1247.3 1152.79 1271.95 1158.24 1293.2 1162.54 C 1347.23 1173.27 1401.02 1185.18 1454.52 1198.26 C 1463.61 1200.42 1480.71 1205.83 1483.79 1192.91 C 1502.74 1113.58 1513.1 1031.4 1530.31 951.734 L 1574.51 717.104 L 1587 650.794 C 1589.2 639.1 1593.4 619.8 1593.64 608.366 C 1588.28 600.906 1539.29 593.428 1527.76 591.446 L 1525.1 590.13 C 1515.82 589.52 1492.33 584.327 1482.32 582.371 L 1403.99 567.366 C 1398.07 555.054 1392.82 545.086 1386.24 533.218 C 1385.5 532.458 1379.68 523.244 1378.71 521.742 C 1370.54 510.271 1361.53 499.425 1351.76 489.293 z"/>
<path transform="translate(0,0)" fill="rgb(109,110,179)" d="M 1170.41 830.879 C 1195.86 830.741 1226.1 828.864 1251.09 823.474 C 1250.94 868.065 1251.9 914.588 1249.86 958.879 C 1247.66 1006.41 1240.01 1056 1232.36 1102.89 C 1229.52 1120.33 1230.5 1132.11 1226.03 1149.36 C 1204.55 1143.62 1125.85 1135.18 1114.11 1124.49 C 1112.83 1113.18 1130.01 1033.85 1133.19 1017.95 L 1170.41 830.879 z"/>
<path transform="translate(0,0)" fill="rgb(226,215,252)" d="M 1378.71 521.742 C 1393.14 521.106 1426.15 535.058 1443.27 534.982 C 1448.71 534.958 1466.92 537.497 1470.7 540.721 L 1470.92 542.836 C 1456.38 554.66 1403.07 532.13 1386.24 533.218 C 1385.5 532.458 1379.68 523.244 1378.71 521.742 z"/>
<path transform="translate(0,0)" fill="rgb(226,215,252)" d="M 1281.45 1181.28 C 1315.06 1179.36 1319.18 1222.56 1286.88 1233.56 C 1280.81 1233.71 1275.48 1233.26 1270.17 1230.1 C 1264.45 1226.71 1260.37 1221.13 1258.87 1214.65 C 1255.33 1199.29 1266.5 1184.54 1281.45 1181.28 z"/>
<path transform="translate(0,0)" fill="rgb(109,110,179)" d="M 1525.1 590.13 L 1527.76 591.446 C 1539.29 593.428 1588.28 600.906 1593.64 608.366 C 1593.4 619.8 1589.2 639.1 1587 650.794 L 1574.51 717.104 L 1530.31 951.734 C 1471.81 897.979 1426.22 841.338 1396.99 766.918 C 1436.99 738.524 1468.76 710.251 1499.94 672.025 C 1504.35 666.617 1513.94 656.106 1515.29 649.534 C 1514.22 646.189 1514.8 647.354 1511.76 644.866 L 1509.65 641.342 C 1504.34 636.25 1498.55 632.202 1497.62 625.353 C 1497.22 626.074 1497.54 625.608 1496.36 626.476 L 1493.52 621.928 C 1494.41 602.571 1496.03 594.457 1509.15 598.92 C 1510.96 599.535 1517.74 591.626 1525.1 590.13 z"/>
<path transform="translate(0,0)" fill="rgb(252,251,254)" d="M 1525.1 590.13 L 1527.76 591.446 L 1529.21 594.743 C 1531.62 595.546 1532.27 595.354 1534.75 595.181 C 1539.08 598.129 1538.6 598.973 1539.25 604.479 C 1544.96 604.828 1543.73 604.075 1547.08 607.278 C 1548.07 610.51 1547.08 612.463 1546.12 615.778 L 1546.45 616.842 C 1552.36 636.13 1525.13 638.29 1512.37 644.727 C 1512.16 644.773 1511.96 644.82 1511.76 644.866 L 1509.65 641.342 C 1504.34 636.25 1498.55 632.202 1497.62 625.353 C 1497.22 626.074 1497.54 625.608 1496.36 626.476 L 1493.52 621.928 C 1494.41 602.571 1496.03 594.457 1509.15 598.92 C 1510.96 599.535 1517.74 591.626 1525.1 590.13 z"/>
<path transform="translate(0,0)" fill="rgb(59,29,101)" d="M 1525.1 590.13 L 1527.76 591.446 L 1529.21 594.743 C 1531.62 595.546 1532.27 595.354 1534.75 595.181 C 1539.08 598.129 1538.6 598.973 1539.25 604.479 C 1544.96 604.828 1543.73 604.075 1547.08 607.278 C 1548.07 610.51 1547.08 612.463 1546.12 615.778 L 1546.45 616.842 C 1552.36 636.13 1525.13 638.29 1512.37 644.727 C 1512.16 644.773 1511.96 644.82 1511.76 644.866 L 1509.65 641.342 C 1517.77 638.136 1544.13 630.447 1544.55 620.961 C 1539.93 620.151 1534.56 627.812 1527.89 628.743 L 1526.85 627.872 C 1530.6 621.381 1541.37 618.023 1543.34 610.545 C 1542.09 607.819 1543.06 608.823 1540.16 607.582 C 1535.06 609.37 1531.68 619.996 1523.52 623.301 L 1521.74 622.505 C 1522.77 616.636 1537.34 609.83 1534.51 599.885 L 1532.84 599.194 C 1524.3 603.161 1524.78 612.712 1511.61 621.965 C 1513.79 616.536 1526.08 600.008 1523.29 595.656 C 1512.84 597.182 1511.96 611.488 1506.78 617.574 L 1505.46 616.887 C 1504.02 612.481 1508.03 610.474 1507.6 604.238 C 1505.53 601.945 1506.44 602.663 1503.04 601.842 L 1501.17 603.017 C 1497.81 608.6 1497.87 618.733 1497.62 625.353 C 1497.22 626.074 1497.54 625.608 1496.36 626.476 L 1493.52 621.928 C 1494.41 602.571 1496.03 594.457 1509.15 598.92 C 1510.96 599.535 1517.74 591.626 1525.1 590.13 z"/>
<path transform="translate(0,0)" fill="rgb(59,29,101)" d="M 1148.18 482.534 C 1160.78 449.797 1193.09 438.832 1225.48 437.305 C 1275.64 434.941 1315.76 456.885 1351.76 489.293 C 1361.53 499.425 1370.54 510.271 1378.71 521.742 C 1379.68 523.244 1385.5 532.458 1386.24 533.218 C 1392.82 545.086 1398.07 555.054 1403.99 567.366 L 1482.32 582.371 C 1492.33 584.327 1515.82 589.52 1525.1 590.13 C 1517.74 591.626 1510.96 599.535 1509.15 598.92 C 1496.03 594.457 1494.41 602.571 1493.52 621.928 C 1488.55 623.183 1481.7 633.045 1477.85 637.232 C 1469.23 646.573 1460.31 655.633 1451.11 664.397 C 1433.68 681.078 1414.7 696.055 1394.41 709.125 C 1384.17 715.585 1330.67 743.853 1326.32 748.783 L 1325.82 750.9 C 1328.07 769.392 1293.83 774.147 1280.15 761.808 C 1271.88 762.879 1258.1 767.226 1249.49 769.251 C 1228.54 774.177 1201.68 780.372 1180.29 781.1 C 1174.32 782.372 1166.12 782.522 1159.86 782.848 C 1161.25 776.378 1162.47 769.874 1163.52 763.341 C 1157.12 765.595 1150.95 767.522 1144.18 765.126 C 1128.72 759.652 1108.29 724.587 1101 710.54 C 1073.09 654.524 1069.73 581.616 1087.32 522.088 C 1095.57 494.144 1117.79 471.857 1148.18 482.534 z"/>
<path transform="translate(0,0)" fill="rgb(109,110,179)" d="M 1403.99 567.366 L 1482.32 582.371 C 1492.33 584.327 1515.82 589.52 1525.1 590.13 C 1517.74 591.626 1510.96 599.535 1509.15 598.92 C 1496.03 594.457 1494.41 602.571 1493.52 621.928 C 1488.55 623.183 1481.7 633.045 1477.85 637.232 C 1469.23 646.573 1460.31 655.633 1451.11 664.397 C 1433.68 681.078 1414.7 696.055 1394.41 709.125 C 1384.17 715.585 1330.67 743.853 1326.32 748.783 L 1325.82 750.9 C 1318.31 733.918 1352.22 706.479 1361.7 695.604 C 1369.26 686.932 1373.94 679.957 1379.1 669.491 C 1446.63 637.022 1430.06 632.025 1403.99 567.366 z"/>
<path transform="translate(0,0)" fill="rgb(109,110,179)" d="M 1199.65 740.586 C 1209.64 744.375 1214.99 745.894 1225.77 747.151 C 1240.1 748.821 1275.25 743.614 1280.15 761.808 C 1271.88 762.879 1258.1 767.226 1249.49 769.251 C 1228.54 774.177 1201.68 780.372 1180.29 781.1 C 1174.32 782.372 1166.12 782.522 1159.86 782.848 C 1161.25 776.378 1162.47 769.874 1163.52 763.341 C 1171.97 759.096 1177.81 755.343 1185.79 750.211 C 1190.36 746.927 1194.98 743.718 1199.65 740.586 z"/>
<path transform="translate(0,0)" fill="rgb(252,251,254)" d="M 1185.79 750.211 C 1184.96 760.118 1181.9 771.161 1180.29 781.1 C 1174.32 782.372 1166.12 782.522 1159.86 782.848 C 1161.25 776.378 1162.47 769.874 1163.52 763.341 C 1171.97 759.096 1177.81 755.343 1185.79 750.211 z"/>
<path transform="translate(0,0)" fill="rgb(252,251,254)" d="M 1291.69 537.407 C 1316.07 535.709 1340.8 549.819 1349.44 573.23 C 1351.33 578.38 1351.69 588.34 1354.88 590.965 C 1362.33 592.732 1376.28 582.734 1383.07 590.851 C 1393.54 603.358 1385.32 612.985 1376.84 621.583 C 1389.81 656.187 1369.52 677.68 1346.82 701.512 C 1331.33 717.774 1314.81 727.971 1321.39 752.884 C 1290.74 782.62 1289.43 751.021 1270.04 743.983 C 1259.61 740.2 1233 742.894 1217.39 739.567 C 1183 732.746 1161.04 704.412 1141.22 678.289 C 1132.38 682.254 1122.6 686.124 1115.23 677.514 C 1113.14 675.077 1110.11 670.517 1110.92 667.148 C 1115.3 648.988 1138.98 650.571 1150.2 638.906 C 1168.16 621.176 1149.12 597.028 1152.06 579.167 C 1155 561.277 1159.79 557.792 1160.6 538.256 L 1161.58 539.097 C 1202.38 573.527 1245.77 540.935 1291.69 537.407 z"/>
<path transform="translate(0,0)" fill="rgb(236,67,72)" d="M 1331.08 624.117 C 1350.23 622.802 1352.96 639.537 1333.86 647.783 C 1311.18 649.701 1314.32 632.584 1331.08 624.117 z"/>
<path transform="translate(0,0)" fill="rgb(236,67,72)" d="M 1198.13 669.209 C 1219.29 667.884 1222.43 681.584 1204.17 691.615 C 1185.69 695.991 1178.96 678.665 1198.13 669.209 z"/>
<path transform="translate(0,0)" fill="rgb(59,29,101)" d="M 1255.15 614.673 C 1256.03 615.142 1257.6 616.033 1257.81 617.077 C 1259.45 625.237 1268.76 651.109 1266.84 657.764 C 1262.59 658.207 1258.86 657.639 1257.85 662.241 C 1259.22 665.396 1259.44 665.741 1262.18 667.807 C 1269.04 669.559 1269.47 662.472 1276.79 666.924 C 1273.95 671.722 1269.79 674.657 1264.01 674.257 C 1260.33 673.989 1256.94 672.124 1254.75 669.153 C 1252.82 666.468 1252.17 663.068 1252.99 659.863 C 1254.17 655.026 1256.89 653.495 1260.8 651.104 C 1257.43 641.922 1251.79 623.724 1255.15 614.673 z"/>
<path transform="translate(0,0)" fill="rgb(59,29,101)" d="M 1299.52 681.414 C 1303.54 682.274 1302.58 681.43 1304.43 684.104 C 1306.32 704.562 1276.98 722.928 1255.4 705.137 C 1252.78 702.176 1252.59 701.646 1251.26 697.904 L 1252.12 696.785 C 1257.65 698.973 1261.96 702.22 1267.96 704.098 C 1287.62 710.251 1294.8 697.942 1299.52 681.414 z"/>
<path transform="translate(0,0)" fill="rgb(59,29,101)" d="M 1205.01 621.667 C 1218.45 622.02 1225.77 638.735 1216.81 650.073 C 1201.48 650.952 1197.33 631.515 1205.01 621.667 z"/>
<path transform="translate(0,0)" fill="rgb(59,29,101)" d="M 1292.96 596.767 C 1306.69 596.933 1311 615.492 1302.71 625.892 C 1286.48 626.433 1285.09 606.843 1292.96 596.767 z"/>
<path transform="translate(0,0)" fill="rgb(59,29,101)" d="M 1200.93 603.035 C 1207.01 603.087 1208.06 602.419 1212.1 607.092 L 1211.64 608.724 C 1207.07 610.285 1205.41 608.763 1199.76 609.373 L 1198.94 609.469 C 1196.59 611.889 1195.39 613.943 1192.07 613.847 C 1190.72 607.987 1196.43 604.972 1200.93 603.035 z"/>
<path transform="translate(0,0)" fill="rgb(59,29,101)" d="M 1288.97 578.015 C 1292.79 577.653 1300.7 577.475 1301.75 582.12 C 1298.6 584.253 1295.61 583.297 1291.41 582.956 C 1287.4 586.395 1287.74 587.183 1283.25 587.988 L 1281.79 586.686 C 1282.34 581.41 1284.73 580.685 1288.97 578.015 z"/>
<path transform="translate(0,0)" fill="rgb(59,29,101)" d="M 1121.11 659.47 C 1123.7 659.989 1122.74 659.353 1124.34 660.95 L 1120.8 665.313 C 1120.49 673.949 1127.67 670.718 1133.14 671.634 L 1134.54 674.326 C 1129.51 676.932 1123.12 677.444 1118.86 673.071 C 1117.41 671.571 1116.63 669.549 1116.7 667.466 C 1116.8 663.762 1118.65 661.975 1121.11 659.47 z"/>
<path transform="translate(0,0)" fill="rgb(59,29,101)" d="M 1379.01 595.474 C 1383.03 599.626 1385.48 606.246 1382.63 611.643 L 1380.88 612.194 L 1378.89 610.901 C 1378.8 608.622 1378.81 608.139 1379.09 605.878 L 1378.02 604.798 C 1375.37 604.99 1372.95 605.284 1370.3 605.003 C 1371.38 602.197 1374.66 600.925 1376.9 598.613 L 1379.01 595.474 z"/>
<path transform="translate(0,0)" fill="rgb(59,29,101)" d="M 1376.9 598.613 C 1375.57 598.136 1374.26 597.647 1372.94 597.145 C 1369.86 595.952 1368.96 595.837 1367.83 593.257 L 1369.64 595.259 L 1369.71 592.91 C 1373.76 592.987 1375.38 593.92 1379.01 595.474 L 1376.9 598.613 z"/>
<path transform="translate(0,0)" fill="rgb(59,29,101)" d="M 725.034 470.534 C 713.388 462.479 705.139 453.781 702.472 439.215 C 700.459 428.19 702.999 416.82 709.512 407.7 C 734.637 372.62 779.144 393.627 807.385 411.681 C 810.24 406.304 812.045 403.314 818.443 401.233 C 827.937 398.145 841.071 404.895 849.203 409.532 C 888.21 431.773 911.37 471.944 930.85 510.911 C 943.512 512.834 951.348 515.749 959.354 526.746 C 974.475 547.516 976.211 587.353 972.09 612.129 C 966.621 643.822 948.713 672.014 922.351 690.435 C 905.698 702.24 895.157 705.352 876.55 711.583 C 866.607 713.097 864.812 713.498 854.722 713.306 C 827.468 720.025 797.451 717.291 777.986 738.47 C 775.531 742.033 774.698 744.787 773.196 748.821 C 758.66 750.367 719.351 745.85 728.534 723.674 C 734.063 710.072 695.873 686.363 688.004 673.896 C 663.066 634.385 646.233 615.459 653.919 565.602 C 657.068 552.455 660.278 544.217 665.21 531.663 C 667.215 529.489 670.809 523.091 671.748 520.246 C 674.349 517.256 697.156 489.544 697.783 487.552 L 696.252 486.429 C 706.734 484.687 714.845 476.065 725.034 470.534 z"/>
<path transform="translate(0,0)" fill="rgb(252,251,254)" d="M 736.104 506.102 C 758.167 505.056 781.163 527.272 802.429 536.487 C 840.107 552.814 873.953 558.09 912.757 544.095 C 913.501 571.544 916.735 601.157 915.597 628.777 C 914.939 644.769 928.063 634.139 935.001 643.673 C 936.053 647.05 935.497 653.615 933.378 655.867 C 919.442 670.684 912.625 649.574 900.667 672.015 C 888.416 695.006 859.761 705.693 835.5 711.815 C 809.248 716.893 781.141 714.225 770.393 742.958 C 752.553 743.098 744.613 741.217 730.821 730.068 C 744.369 708.461 718.383 696.658 704.455 683.518 C 698.823 678.16 693.926 672.08 689.89 665.437 C 674.253 639.72 674.486 615.691 681.355 587.728 C 657.484 572.751 666.828 547.961 695.008 559.201 C 705.591 539.933 714.264 515.857 736.104 506.102 z"/>
<path transform="translate(0,0)" fill="rgb(59,29,101)" d="M 787.231 598.45 C 790.043 600.542 787.862 606.946 786.773 609.938 C 784.158 617.119 785.276 631.887 782.768 637.886 C 779.854 638.744 776.741 636.514 772.121 635.764 C 767.899 637.541 766.185 641.216 767.779 645.554 C 771.705 648.273 775.87 647.199 781.295 648.784 L 782.03 650.86 L 780.468 653.835 C 767.418 655.681 755.586 649.062 764.367 634.057 C 766.348 630.672 773.666 630.965 777.708 630.772 C 782.313 619.454 777.364 615.808 787.231 598.45 z"/>
<path transform="translate(0,0)" fill="rgb(59,29,101)" d="M 840.585 614.863 C 841.767 614.754 843.733 614.808 844.989 614.8 C 854.832 619.865 851.893 636.476 843.273 642.592 C 826.706 640.259 831.484 623.499 840.585 614.863 z"/>
<path transform="translate(0,0)" fill="rgb(59,29,101)" d="M 738.631 578.592 L 742.928 579.114 C 753.054 586.163 744.65 601.367 734.732 605.085 C 716.891 599.574 730.015 585.35 738.631 578.592 z"/>
<path transform="translate(0,0)" fill="rgb(59,29,101)" d="M 745.791 658.505 C 748.137 660.143 750.282 669.84 754.223 675.212 C 770.419 697.288 780.76 676.175 790.18 677.727 L 791.284 679.958 L 790.178 683.059 C 779.338 690.757 770.257 692.301 757.533 686.937 C 747.359 682.648 740.129 668.474 745.791 658.505 z"/>
<path transform="translate(0,0)" fill="rgb(59,29,101)" d="M 739.081 553.212 C 747.414 553.197 762.008 557.58 757.448 568.351 L 755.063 568.618 L 753.542 567.298 C 744.626 556.911 742.873 562.394 731.193 558.478 L 730.943 557.025 C 733.746 554.552 735.522 554.314 739.081 553.212 z"/>
<path transform="translate(0,0)" fill="rgb(59,29,101)" d="M 844.974 591.128 C 851.395 590.811 856.906 590.881 862.063 595.353 C 865.189 598.064 869.415 602.597 866.022 606.412 L 864.004 606.245 C 854.533 593.492 845.064 601.618 839.904 596.221 C 841.148 593.051 841.847 593.329 844.974 591.128 z"/>
<path transform="translate(0,0)" fill="rgb(59,29,101)" d="M 677.783 559.631 C 680.294 559.547 684.323 559.531 685.923 561.553 C 683.292 563.061 680.679 564.597 678.082 566.162 C 676.849 569.424 677.261 568.452 678.392 572.562 C 679.155 572.907 679.339 573.326 679.975 574.042 C 677.919 574.918 679.068 574.754 676.359 573.696 C 673.957 570.991 673.577 570.843 673.171 567.426 C 673.954 563.319 674.99 562.564 677.783 559.631 z"/>
<path transform="translate(0,0)" fill="rgb(59,29,101)" d="M 919.448 643.239 C 922.673 642.671 922.815 642.758 926.052 643.594 C 931.437 648.355 929.796 651.57 925.39 656.567 C 923.455 655.644 924.073 655.932 922.501 654.274 L 924.58 648.142 C 923.431 644.727 923.16 645.438 919.448 643.239 z"/>
<path transform="translate(0,0)" fill="rgb(168,138,248)" d="M 773.114 160.28 C 773.04 156.213 773.037 152.359 773.187 148.23 C 775.034 97.302 838.76 55.55 881.809 91.3233 C 904.845 110.467 909.819 138.913 912.506 167.371 C 931.923 144.37 959.452 123.795 983.932 153.671 C 986.529 164.285 990.625 185.401 988.541 195.715 C 976.527 201.243 877.571 194.773 858.509 196.697 C 852.897 197.263 843.084 195.37 836.083 196.748 C 828.992 195.539 810.332 195.251 802.556 194.918 L 739.353 191.829 C 738.626 185.064 737.231 175.262 738.101 168.757 C 741.077 146.486 759.9 140.396 773.114 160.28 z"/>
<path transform="translate(0,0)" fill="rgb(168,138,248)" d="M 1696.78 514.651 C 1688 467.909 1717.84 426.267 1767.51 443.004 C 1794.77 459.444 1803.33 480.548 1805.52 511.608 C 1819.07 497.148 1841.28 497.571 1850.63 516.302 C 1850.21 530.575 1847.47 534.521 1840.41 546.914 C 1833.04 546.636 1786.8 544.594 1782.89 546.833 C 1780.3 544.989 1689.18 543.396 1677.74 543.007 C 1656.37 518.392 1672.61 493.519 1696.78 514.651 z"/>
<path transform="translate(0,0)" fill="rgb(168,138,248)" d="M 371.307 383.56 C 371.065 379.334 370.608 373.447 371.293 369.333 C 372.644 360.951 377.326 353.471 384.276 348.594 C 391.512 343.583 400.455 341.682 409.104 343.317 C 422.722 345.855 432.85 357.124 434.641 370.726 C 435.006 373.504 434.191 377.1 435.318 378.74 C 454.897 342.155 506.419 327.638 528.952 367.359 C 531.576 377.611 532.494 382.125 529.83 392.339 C 533.716 394.653 577.414 387.455 554.75 420.473 L 554.18 421.291 C 537.807 421.111 521.435 420.754 505.069 420.22 C 497.664 420.004 476.227 419.333 469.74 420.316 C 462.594 418.718 437.748 418.932 428.64 418.67 L 347.676 415.748 C 344.373 406.375 336.799 379.579 354.778 375.032 C 359.47 373.845 367.806 380.258 371.307 383.56 z"/>
<path transform="translate(0,0)" fill="rgb(252,251,254)" d="M 1002.34 777.272 C 1011.13 769.318 1021.28 757.14 1030.71 770.244 L 1032.69 770.809 L 1033.56 769.784 C 1043.96 757.673 1051.72 766.554 1060.36 775.543 C 1061.93 777.161 1063.4 778.876 1064.75 780.68 L 1063.51 783.889 C 1063.36 787.021 1061.58 800.267 1060.15 802.46 C 1050.26 806.52 1030.23 818.388 1022.13 809.708 L 1019.98 809.987 L 1018.85 808.832 C 1013.65 806.921 1007.98 804.477 1002.8 802.378 C 999.798 800.796 999.86 793.14 999.946 789.969 C 1000.1 784.308 1000.84 783.997 1004.84 780.444 L 1002.34 777.272 z"/>
<path transform="translate(0,0)" fill="rgb(59,29,101)" d="M 1002.34 777.272 C 1011.13 769.318 1021.28 757.14 1030.71 770.244 L 1032.69 770.809 L 1033.56 769.784 C 1043.96 757.673 1051.72 766.554 1060.36 775.543 C 1061.93 777.161 1063.4 778.876 1064.75 780.68 L 1063.51 783.889 C 1058.13 778.962 1046.21 765.565 1038.47 768.896 C 1038.44 773.951 1044.99 777.052 1048.12 782.411 C 1046.63 781.68 1045.11 780.984 1043.59 780.325 C 1035.06 776.62 1028.17 774.562 1019.44 778 L 1017.67 776.446 L 1013.23 776.839 C 1016.07 782.196 1016.07 781.794 1012.32 787.044 C 1012.79 795.59 1019.23 792.906 1012.92 801.735 C 1011.55 803.645 1017.38 807.665 1018.85 808.832 C 1013.65 806.921 1007.98 804.477 1002.8 802.378 C 999.798 800.796 999.86 793.14 999.946 789.969 C 1000.1 784.308 1000.84 783.997 1004.84 780.444 L 1002.34 777.272 z"/>
<path transform="translate(0,0)" fill="rgb(252,251,254)" d="M 1004.84 780.444 C 1013.06 772.906 1013.81 772.227 1024.1 768.254 L 1025.72 769.253 C 1024.38 772.151 1017.61 774.193 1013.23 776.839 C 1016.07 782.196 1016.07 781.794 1012.32 787.044 C 1012.79 795.59 1019.23 792.906 1012.92 801.735 C 1011.55 803.645 1017.38 807.665 1018.85 808.832 C 1013.65 806.921 1007.98 804.477 1002.8 802.378 C 999.798 800.796 999.86 793.14 999.946 789.969 C 1000.1 784.308 1000.84 783.997 1004.84 780.444 z"/>
<path transform="translate(0,0)" fill="rgb(59,29,101)" d="M 1013.23 776.839 L 1017.67 776.446 L 1019.44 778 L 1020.49 778.707 C 1030.74 785.541 1032.99 783.354 1042.54 786.765 L 1042.87 788.391 C 1034.72 795.232 1023.85 779.284 1016.52 787.797 C 1016.27 791.028 1015.84 789.613 1017.93 792.161 C 1025.82 796.014 1037.73 793.812 1041.1 796.418 L 1040.57 798.098 C 1033.44 801.472 1020.37 794.466 1016.36 800.311 C 1019.01 807.282 1035.7 801.768 1041.2 804.252 C 1034.74 809.286 1029.28 808.27 1022.13 809.708 L 1019.98 809.987 L 1018.85 808.832 C 1017.38 807.665 1011.55 803.645 1012.92 801.735 C 1019.23 792.906 1012.79 795.59 1012.32 787.044 C 1016.07 781.794 1016.07 782.196 1013.23 776.839 z"/>
<path transform="translate(0,0)" fill="rgb(48,47,85)" d="M 854.722 713.306 C 864.812 713.498 866.607 713.097 876.55 711.583 C 879.386 724.464 884.115 749.478 887.739 761.181 C 884.605 762.951 868.859 759.103 864.383 758.246 C 862.148 744.972 857.645 726.839 854.722 713.306 z"/>
<path transform="translate(0,0)" fill="rgb(168,138,248)" d="M 1301.39 244.357 C 1323.52 240.73 1349.72 246.146 1366.32 261.737 C 1390.28 284.254 1394 311.966 1395.36 342.671 C 1396.88 338.022 1398.3 333.327 1400.24 328.826 C 1423.41 275.169 1520.63 264.619 1527.93 335.285 C 1528.55 341.227 1527.51 352.701 1530.08 357.404 C 1553.84 349.299 1555.24 376.236 1554.9 391.849 C 1544.21 392.4 1528.78 391.915 1517.79 391.919 L 1448.25 392.164 C 1360.15 392.258 1270.04 395.823 1181.74 397.138 C 1172.92 381.006 1158.42 350.473 1180.05 337.229 C 1184.93 334.305 1190.82 333.591 1196.26 335.265 C 1208.5 338.946 1215.28 351.899 1220.85 362.242 C 1220.13 357.974 1219.47 353.695 1218.89 349.407 C 1215.47 323.494 1219.57 296.564 1236 275.52 C 1252.82 253.983 1275.6 247.575 1301.39 244.357 z"/>
<path transform="translate(0,0)" fill="rgb(236,67,72)" d="M 1019.14 422.886 C 1048.18 423.134 1027 459.249 1012.71 464.12 C 1009.56 465.191 1002.16 459.821 999.737 458.222 C 991.916 450.731 980.101 440.411 987.913 427.51 C 993.999 417.459 1003.25 431.708 1010.61 429.924 C 1014 425.9 1014.55 425.461 1019.14 422.886 z"/>
<path transform="translate(0,0)" fill="rgb(236,67,72)" d="M 1081.93 385.736 C 1108.9 386.976 1094 413.566 1076.76 422.069 C 1069.23 420.112 1066.88 419.306 1059.7 416.068 C 1057.14 414.571 1054.71 412.88 1052.42 411.011 C 1048.99 408.22 1046.87 404.133 1046.57 399.722 C 1046.08 392.383 1051.39 386.886 1058.79 386.957 C 1065.46 387.021 1068.99 390.626 1073.43 394.973 C 1076.62 390.382 1077.7 389.469 1081.93 385.736 z"/>
<path transform="translate(0,0)" fill="rgb(236,67,72)" d="M 998.947 378.001 C 1016.89 377.925 1017.76 395.252 1005.8 404.768 C 999.994 409.385 995.093 407.627 988.144 406.527 C 980.919 403.755 970.344 398.558 974.057 388.912 C 978.579 384.694 985.209 386.225 991.45 385.655 C 994.427 381.786 995.141 381.058 998.947 378.001 z"/>
<path transform="translate(0,0)" fill="rgb(245,188,252)" d="M 1724.18 761.587 C 1746.82 753.359 1766.76 751.171 1789.48 761.946 C 1805.53 769.438 1817.82 783.171 1823.48 799.955 C 1830.77 821.454 1826.11 841.602 1817.23 861.248 C 1803.52 891.581 1776.5 901.028 1755.38 923.379 C 1749.19 929.937 1757.25 947.407 1757.31 955.02 C 1758.76 983.06 1741.53 999.561 1717.94 1009.71 C 1729.61 1009.34 1759.35 1007.96 1769.03 1011.82 C 1779.91 1023.44 1751.99 1030.43 1744.3 1037.63 C 1736.13 1045.27 1725.13 1052.53 1716.91 1060.43 C 1704.12 1073.36 1682.5 1081.29 1669.85 1091.99 C 1666.27 1092.66 1664.04 1093.94 1660.8 1095.38 C 1646.95 1101.5 1632.77 1108.14 1618.22 1112.37 C 1609.19 1114.9 1600.07 1117.11 1590.88 1119 C 1586.55 1119.86 1559.82 1123.84 1557.96 1124.84 C 1545.25 1124.57 1531.67 1125.16 1518.37 1124.9 L 1519.55 1117.24 L 1520.43 1112.24 L 1522.86 1100.68 C 1531.36 1091.89 1540.22 1083.46 1549.41 1075.41 C 1541.13 1070.7 1539.22 1070.02 1531.25 1063.98 L 1530.39 1063.36 L 1531.27 1059.9 C 1533.21 1046.44 1537.16 1028.92 1539.82 1015.33 L 1555.59 934.295 C 1562.8 934.358 1572.33 935.029 1578.62 931.536 C 1596.94 921.367 1584.94 891.649 1593.56 870.229 C 1613.3 821.189 1653.27 851.601 1666.31 845.054 C 1673.15 837.496 1673.39 826.149 1676.89 816.112 C 1685.89 790.216 1700.31 773.971 1724.18 761.587 z"/>
<path transform="translate(0,0)" fill="rgb(168,138,248)" d="M 1699.87 1011.66 C 1704.49 1011.5 1713.06 1010.26 1717.94 1009.71 C 1729.61 1009.34 1759.35 1007.96 1769.03 1011.82 C 1779.91 1023.44 1751.99 1030.43 1744.3 1037.63 C 1736.13 1045.27 1725.13 1052.53 1716.91 1060.43 C 1704.12 1073.36 1682.5 1081.29 1669.85 1091.99 C 1666.27 1092.66 1664.04 1093.94 1660.8 1095.38 C 1646.95 1101.5 1632.77 1108.14 1618.22 1112.37 C 1609.19 1114.9 1600.07 1117.11 1590.88 1119 C 1586.55 1119.86 1559.82 1123.84 1557.96 1124.84 C 1545.25 1124.57 1531.67 1125.16 1518.37 1124.9 L 1519.55 1117.24 L 1520.43 1112.24 L 1522.86 1100.68 C 1531.36 1091.89 1540.22 1083.46 1549.41 1075.41 C 1550.82 1074.64 1555.35 1070.89 1556.92 1069.67 C 1593.97 1040.87 1635.89 1023.43 1682.06 1014.41 L 1699.87 1011.66 z"/>
<path transform="translate(0,0)" fill="rgb(59,29,101)" d="M 1703.51 1034.97 C 1705.76 1030.77 1707.75 1025.64 1712.87 1025.29 L 1712.83 1024.28 L 1711.27 1024.77 L 1712.82 1024.2 L 1712.99 1029.37 C 1713.54 1029.82 1714.1 1030.26 1714.65 1030.7 C 1724.97 1029.59 1748.81 1018.57 1758.13 1018.99 L 1757.98 1019.89 C 1751.59 1023.46 1717 1033.48 1706.31 1038.2 L 1705.21 1038.69 L 1703.95 1041.46 C 1701.81 1040.4 1700.16 1039.6 1697.51 1040.87 C 1692.05 1043.49 1675.32 1047.51 1672.45 1051.95 C 1672.4 1055.2 1672.07 1053.93 1674.28 1056.8 C 1677.05 1058.23 1679.63 1057.83 1682.84 1057.79 L 1682.3 1059.34 C 1674.65 1062.33 1671.83 1057.25 1667.69 1052.01 C 1661.36 1054.38 1636.16 1063.24 1632.05 1067.45 C 1641.1 1081.87 1641.23 1074.07 1649.68 1081.18 L 1649.29 1082.16 C 1639.9 1082.46 1633.81 1076.14 1630.66 1067.77 C 1626.78 1067.39 1606.13 1076.38 1602.88 1079.25 L 1601.88 1080.58 C 1596.86 1079.66 1574.8 1089.25 1572.82 1094.08 L 1571.79 1094.73 C 1571.03 1094.51 1570.12 1094.24 1569.05 1093.93 C 1555.21 1099.01 1531.83 1110.74 1519.55 1117.24 L 1520.43 1112.24 C 1536.92 1104.19 1553.46 1096.23 1570.05 1088.38 C 1570.77 1085.11 1571.21 1083.72 1572.41 1080.6 C 1573.43 1083.87 1572.69 1083.13 1575.01 1084.91 C 1582.43 1084.86 1589.87 1079.73 1596.38 1076.31 C 1599.41 1074.71 1599.25 1072.96 1599.86 1070.12 L 1602.23 1072.6 C 1607.33 1072.91 1620.67 1066.76 1625.52 1064.21 C 1630.16 1061.77 1629.63 1061.52 1630.99 1057.18 L 1633.21 1059.62 C 1637.78 1060.15 1661.06 1050.28 1667.4 1047.97 C 1669.23 1043.08 1671.91 1037.27 1676.34 1034.16 C 1675.14 1036.46 1672.51 1040.58 1672.85 1042.84 L 1675.03 1044.37 C 1680.97 1043.6 1696.88 1037.32 1703.51 1034.97 z"/>
<path transform="translate(0,0)" fill="rgb(60,33,116)" d="M 1601.88 1080.58 L 1602.88 1079.25 C 1607.95 1087.08 1617.55 1088.55 1617.85 1090.71 C 1612.99 1093.4 1603.48 1085.19 1601.88 1080.58 z"/>
<path transform="translate(0,0)" fill="rgb(60,33,116)" d="M 1703.95 1041.46 L 1705.21 1038.69 L 1705.41 1039.69 C 1706.82 1046.49 1709.21 1047.86 1714.2 1053.03 L 1713.44 1053.84 C 1708.32 1052.18 1704.72 1046.7 1703.95 1041.46 z"/>
<path transform="translate(0,0)" fill="rgb(60,33,116)" d="M 1630.99 1057.18 C 1632.67 1050.11 1635.22 1046.11 1639.98 1040.7 L 1640.7 1040.77 C 1637.37 1046.55 1632.46 1053.16 1633.21 1059.62 L 1630.99 1057.18 z"/>
<path transform="translate(0,0)" fill="rgb(60,33,116)" d="M 1599.86 1070.12 C 1600.37 1066.31 1604.12 1058.3 1608.66 1059.11 C 1604.54 1065.23 1601.4 1064.57 1602.23 1072.6 L 1599.86 1070.12 z"/>
<path transform="translate(0,0)" fill="rgb(60,33,116)" d="M 1572.82 1094.08 C 1575.25 1096.78 1577.08 1098.71 1579.09 1101.79 L 1578.99 1102.34 C 1574.72 1101.21 1573.7 1098.58 1571.79 1094.73 L 1572.82 1094.08 z"/>
<path transform="translate(0,0)" fill="rgb(59,29,101)" d="M 1756.99 826.5 C 1761.48 821.066 1789.77 786.285 1792.96 783.713 C 1787.38 793.646 1766.91 819.478 1758.84 829.115 C 1773.05 843.121 1777.72 842.832 1796.43 846.272 L 1796.07 847.579 C 1782.27 849.927 1766.83 840.077 1757.52 830.744 C 1746.17 845.03 1734.54 859.087 1722.63 872.907 C 1740.52 891.665 1751.58 882.168 1756.91 886.257 C 1755.04 888.138 1750 887.998 1747.09 888.061 C 1737.89 888.26 1729.07 882.838 1722.83 876.33 C 1722.25 875.727 1721.68 875.115 1721.12 874.493 C 1710.18 887.241 1699.06 899.841 1687.78 912.292 C 1696.48 917.126 1697.68 917.572 1707.19 919.489 C 1713.93 920.848 1724.57 917.622 1726.84 919.12 C 1724.19 921.728 1716.51 922.103 1712.84 922.107 C 1703.4 922.125 1694.19 919.191 1686.5 913.716 C 1673.86 927.309 1661.11 940.789 1648.23 954.156 C 1662.9 966.964 1672.09 967.42 1691.17 966.143 L 1691.09 967.365 C 1677.46 975.101 1657.04 965.657 1646.63 955.876 C 1632.65 970.014 1618.57 984.047 1604.38 997.972 C 1626.15 1016.63 1626.16 1003.67 1636.99 1008.51 L 1638.48 1010.21 L 1638.14 1011.11 C 1626.88 1015.88 1610.84 1007.49 1602.7 999.485 C 1593.72 1007.96 1578.9 1021.1 1570.83 1029.68 C 1586.1 1042.67 1590.71 1035.4 1598.15 1040.65 L 1597.34 1041.58 C 1584.82 1041.89 1578.41 1039.76 1569.14 1030.97 C 1563.86 1035.86 1535.9 1062.35 1531.25 1063.98 L 1530.39 1063.36 L 1531.27 1059.9 L 1566.65 1027.93 C 1562.66 1020.22 1557.46 1000.93 1565.32 994.539 C 1565.48 1010.19 1559.43 1007.51 1568.11 1026.4 L 1600.13 996.044 C 1595.06 986.252 1592.96 978.446 1596.23 967.343 C 1596.98 964.809 1600.07 957.947 1602.3 956.832 C 1599.15 972.295 1591.7 971.122 1601.47 994.459 C 1615.67 981.331 1630.13 966.254 1643.64 952.349 C 1635.87 939.564 1632.79 930.17 1636.55 915.057 C 1637.15 912.665 1637.9 910.079 1639.69 908.554 C 1637.39 926.36 1632.49 930.624 1645.05 950.662 C 1658 937.514 1670.68 924.107 1683.1 910.448 C 1674.52 899.396 1670.79 887.378 1677.58 874.34 L 1678.48 874.749 C 1681.39 886.009 1667.26 884.419 1684.37 909.206 C 1695.75 896.613 1707.68 883.71 1718.73 870.89 C 1712.91 857.45 1711.41 843.539 1717.27 829.692 C 1717.59 828.926 1717.95 828.176 1718.34 827.445 C 1719.46 830.147 1715.16 844.46 1715.37 849.011 C 1715.71 856.537 1717.51 862.229 1720.11 869.147 C 1732.21 855.909 1743.97 841.755 1755.62 828.058 C 1747.32 815.098 1744.26 803.823 1747.65 788.505 L 1747.84 787.681 C 1747.79 802.898 1747.66 813.378 1756.99 826.5 z"/>
<path transform="translate(0,0)" fill="rgb(252,251,254)" d="M 1682.06 1014.41 C 1681.6 1013.49 1681.85 1013.67 1682.08 1012.23 C 1686.46 1009.29 1695.27 1009.01 1699.87 1011.66 L 1682.06 1014.41 z"/>
<path transform="translate(0,0)" fill="rgb(168,138,248)" d="M 310.757 995.419 C 300.478 994.369 293.866 993.623 284.743 988.545 C 263.524 976.736 269.804 967.074 265.045 951.163 C 256.984 924.211 213.33 924.537 192.437 912.528 C 173.858 901.849 158.883 887.458 152.702 866.488 C 147.808 849.599 149.818 831.459 158.29 816.052 C 166.743 800.671 181.014 789.325 197.904 784.558 C 225.41 776.855 245.936 788.517 268.727 801.56 C 280.981 809.735 288.561 814.787 303.032 819.614 C 329.212 828.346 352.178 810.201 376.871 821.252 C 403.756 833.285 395.076 874.662 419.773 884.174 C 437.293 890.922 452.109 884.09 470.552 887.972 C 479.923 889.945 488.091 901.163 490.413 901.678 C 493.053 912.55 514.055 1010.73 513.38 1017.54 C 516.044 1021.38 515.63 1022.61 515.271 1027.87 C 518.418 1032.35 526.228 1076.8 528.386 1085.84 L 533.543 1111.82 C 529.526 1111.19 500.724 1097.95 494.915 1095.37 C 479.326 1088.42 463.613 1081.76 447.783 1075.38 C 412.889 1061.43 377.142 1049.71 340.758 1040.3 C 332.152 1031.82 316.345 1006.2 310.757 995.419 z"/>
<path transform="translate(0,0)" fill="rgb(226,215,252)" d="M 310.757 995.419 L 312.094 995.243 C 325.415 993.413 348.141 982.232 357.388 989.995 C 372.455 1002.64 362.046 1024.67 379.538 1040.05 C 400.044 1058.08 441.311 1042.39 456.205 1047.94 C 491.352 1061.05 471.537 1089.48 528.386 1085.84 L 533.543 1111.82 C 529.526 1111.19 500.724 1097.95 494.915 1095.37 C 479.326 1088.42 463.613 1081.76 447.783 1075.38 C 412.889 1061.43 377.142 1049.71 340.758 1040.3 C 332.152 1031.82 316.345 1006.2 310.757 995.419 z"/>
<path transform="translate(0,0)" fill="rgb(60,33,116)" d="M 231.691 858.097 C 222.955 853.383 191.075 839.188 186.019 834.343 C 189.486 833.764 224.473 851.34 231.744 854.25 C 237.073 852.234 234.816 836.242 232.885 832.129 C 231.146 828.426 228.446 825.548 226.956 821.513 L 228.029 821.108 C 238.179 830.59 238.275 843.798 234.99 856.264 C 251.355 864.331 267.607 872.626 283.739 881.148 C 295.571 857.092 283.581 843.794 285.014 840.118 C 289.492 842.898 291.803 855.619 291.668 860.872 C 291.457 869.076 289.147 874.876 285.773 882.175 C 305.538 892.766 325.176 903.59 344.684 914.645 C 356.086 894.849 347.53 878.461 338.735 859.737 L 339.868 859.583 C 353.423 876.317 356.581 896.654 346.605 915.738 C 362.817 925.091 378.901 934.666 394.851 944.46 C 402.345 934.415 406.302 923.907 404.364 911.136 C 403.672 906.57 402.193 902.364 402.574 897.843 L 403.817 898.121 C 405.795 900.918 406.131 903.373 406.724 906.644 C 409.611 922.564 405.546 932.63 396.621 945.458 C 415.763 957.239 434.723 969.315 453.493 981.679 C 466.753 970.23 469.621 963.478 466.781 946.157 L 467.938 945.171 C 470.17 947.11 471.944 955.691 471.581 958.574 C 470.263 969.066 462.86 976.077 455.51 982.885 C 462.34 987.443 505.35 1017.69 509.812 1019.65 L 513.38 1017.54 C 516.044 1021.38 515.63 1022.61 515.271 1027.87 C 513.968 1027.14 511.144 1025.1 509.931 1025.84 C 491.285 1037.26 486.047 1043.38 462.808 1040.67 C 464.853 1038.98 480.214 1039.24 486.778 1036.52 C 497.312 1032.15 499.396 1030.88 507.977 1022.98 C 489.603 1010.07 471.051 997.414 452.327 985.016 C 442.581 990.656 432.425 994.809 421.116 995.852 C 416.599 996.269 400.659 996.318 397.403 993.634 C 420.866 992.532 425.939 997.034 450.385 983.776 C 431.837 971.586 413.081 959.713 394.128 948.162 C 392.386 949.707 390.613 951.217 388.809 952.689 C 383.26 957.182 360.146 971.006 354.453 963.409 C 373.604 961.902 376.763 960.515 392.269 947.031 C 376.385 937.355 360.378 927.882 344.253 918.613 C 332.197 930.93 308.739 938.808 291.808 936.53 C 295.272 934.478 298.87 934.406 302.904 933.949 C 320.286 931.981 329.575 929.419 342.285 917.579 C 322.898 906.459 303.365 895.594 283.691 884.99 C 282.815 886.12 281.894 887.214 280.929 888.27 C 271.478 898.772 253.729 906.096 240.139 906.785 L 239.51 905.728 C 258.936 901.864 268.155 898.961 281.809 884.25 C 267.145 875.714 248.954 866.847 233.767 859.148 C 227.118 869.773 211.878 883.372 198.655 877.166 C 200.159 875.281 221.777 879.331 231.691 858.097 z"/>
<path transform="translate(0,0)" fill="rgb(245,188,252)" d="M 482.755 1159.51 C 479.257 1158.18 460.003 1164.06 454.686 1165.31 C 440.03 1168.65 425.219 1171.27 410.306 1173.16 C 376.671 1177.3 332.813 1176.03 299.701 1171.17 C 268.91 1166.18 237.781 1157.62 218.382 1131.2 C 197.726 1103.08 202.901 1066.44 232.286 1046.67 C 267.087 1023.25 303.348 1033.51 340.758 1040.3 C 377.142 1049.71 412.889 1061.43 447.783 1075.38 C 463.613 1081.76 479.326 1088.42 494.915 1095.37 C 500.724 1097.95 529.526 1111.19 533.543 1111.82 C 534.683 1116.41 536.622 1122.7 536.249 1127.21 C 534.528 1128.4 535.27 1128.17 533.301 1128.49 L 536.411 1129.4 C 535.997 1130.78 536.282 1130.72 535.461 1131.52 C 538.258 1133.07 537.32 1131.99 538.665 1134.55 C 539.712 1143.19 550.087 1185.02 548.196 1188.92 C 530.145 1183.37 499.144 1168.44 482.755 1159.51 z"/>
<path transform="translate(0,0)" fill="rgb(226,215,252)" d="M 482.755 1159.51 C 485.33 1157.78 488.206 1156.7 491.068 1155.54 C 507.114 1148.99 523.736 1143.49 538.665 1134.55 C 539.712 1143.19 550.087 1185.02 548.196 1188.92 C 530.145 1183.37 499.144 1168.44 482.755 1159.51 z"/>
<path transform="translate(0,0)" fill="rgb(59,29,101)" d="M 288.592 1057.28 C 304.051 1070.38 312.721 1086.88 311.768 1107.21 C 326.125 1110.44 340.594 1113.15 355.147 1115.33 C 354.854 1091.53 342.231 1082.73 342.181 1077.31 C 354.114 1083.42 357.138 1103.85 356.941 1115.67 C 374.007 1118.86 392.36 1120.91 409.647 1123.11 C 412.822 1105.59 409.357 1100.77 399.941 1086.56 L 401.052 1086.12 C 413.063 1095.4 413.633 1109.74 411.716 1123.37 C 418.885 1124.02 455.548 1128.25 459.795 1125.8 C 460.995 1121.25 456.372 1113.95 454.082 1109.54 L 454.55 1108.3 L 456.936 1109.38 C 460.833 1114.5 461.842 1120.99 462.105 1127.23 C 481.965 1128.99 513.889 1129.07 533.301 1128.49 L 536.411 1129.4 C 535.997 1130.78 536.282 1130.72 535.461 1131.52 C 517.295 1132.25 479.57 1132.01 461.601 1130.13 C 457.441 1137.96 455.346 1142.69 446.509 1145.75 L 446.015 1145.01 C 454.215 1140.19 455.43 1139.08 459.45 1130.26 C 444.484 1129.17 425.428 1128.22 410.773 1126.07 C 407.509 1132.26 397.504 1147.71 389.157 1146.87 C 390.727 1144.85 393.129 1144.12 395.334 1142.59 C 401.766 1138.14 405.263 1132.79 408.736 1126.06 C 391.914 1123.95 373.068 1121.95 356.512 1118.8 C 353.86 1126.9 351.178 1133.81 345.162 1140.11 C 342.174 1143.24 332.993 1150.8 328.586 1150.04 C 332.55 1141.94 345.678 1147.86 354.417 1118.54 C 340.802 1116.24 324.184 1113.75 310.973 1110.39 C 303.864 1124.56 300.04 1127.25 287.217 1136.24 L 285.365 1135.25 C 296.95 1128.34 303.009 1122.09 308.856 1110.23 C 294.429 1107.11 280.076 1103.65 265.809 1099.87 C 262.774 1112.21 257.82 1124.6 242.69 1123.77 C 251.26 1122.67 263.891 1111.28 264.03 1102.4 C 261.873 1098.72 234.274 1089.11 228.978 1087.73 C 233.461 1087.02 257.402 1094.07 263.405 1095.73 C 260.112 1083.4 254.571 1077.33 248.767 1066.14 L 249.203 1065.77 C 258.465 1076.51 261.815 1082.4 265.36 1096.25 C 280.247 1100.02 294.847 1103.81 309.912 1106.85 C 310.676 1083.93 300.753 1075.87 288.592 1057.28 z"/>
<path transform="translate(0,0)" fill="rgb(164,121,171)" d="M 287.217 1136.24 C 284.447 1138.02 279.715 1141.61 276.538 1140.71 C 279.058 1137.85 281.882 1136.9 285.365 1135.25 L 287.217 1136.24 z"/>
<path transform="translate(0,0)" fill="rgb(245,188,252)" d="M 1669.85 1091.99 C 1715.62 1086.67 1759.79 1088.5 1804.52 1100.35 C 1812.18 1102.37 1834.48 1105.17 1828.66 1115.97 C 1819.8 1122.1 1800.6 1126.77 1790.03 1132.71 C 1701.48 1182.53 1606.74 1181.03 1506.83 1182.91 C 1506.99 1179.63 1508.61 1171.6 1509.24 1167.99 L 1510.12 1163.98 C 1511.25 1158.02 1511.62 1154.65 1514.35 1149.28 C 1531.78 1138.03 1539.74 1133.74 1557.96 1124.84 C 1559.82 1123.84 1586.55 1119.86 1590.88 1119 C 1600.07 1117.11 1609.19 1114.9 1618.22 1112.37 C 1632.77 1108.14 1646.95 1101.5 1660.8 1095.38 C 1664.04 1093.94 1666.27 1092.66 1669.85 1091.99 z"/>
<path transform="translate(0,0)" fill="rgb(59,29,101)" d="M 1747.62 1122.28 C 1749.55 1114.77 1749.51 1113.33 1755.63 1108.43 C 1753.46 1111.79 1750.84 1115.28 1750.05 1119.15 L 1750.83 1121.07 C 1759.21 1123.01 1812.16 1112.26 1816.7 1115.59 C 1800.07 1119.28 1782.22 1119.61 1765.35 1122.75 C 1760.5 1123.65 1755.79 1123.41 1750.91 1125.11 L 1749.89 1126.75 C 1751.48 1131.02 1757.74 1134.89 1761.52 1137.52 C 1757.01 1139.64 1750.85 1131.42 1749.12 1127.78 C 1748.72 1126.92 1748.35 1126.05 1748.01 1125.17 C 1741.42 1126.07 1712.32 1129.23 1709.19 1131.78 C 1709.15 1135.32 1711.93 1138.23 1714.33 1140.7 C 1716.74 1143.22 1719.34 1145.56 1722.09 1147.71 L 1721.43 1148.71 C 1713.13 1145.27 1710.06 1139.28 1706.84 1131.52 L 1706.59 1130.92 C 1694.66 1132.76 1676.4 1135.02 1665.17 1137.94 L 1664.48 1139.19 C 1667.1 1146.9 1671.55 1150.56 1678.58 1154.06 C 1679.2 1154.37 1679.82 1154.67 1680.45 1154.97 L 1680.24 1156.21 C 1673.37 1159.62 1663.69 1143.48 1661.47 1138 C 1655.2 1139.05 1626.16 1142.71 1623.32 1146.67 C 1625.53 1153.8 1637.07 1156.4 1639.2 1160.58 C 1631.11 1161.79 1624.17 1151.67 1620.92 1145.31 C 1614.96 1146.4 1584.85 1151.15 1582.28 1154.06 C 1583.84 1159.21 1593.12 1161.87 1592.94 1164.71 C 1586.25 1163.06 1582.71 1158.82 1578.69 1153.68 C 1569.04 1155.57 1555.45 1157.85 1546.4 1160.76 C 1547.06 1163.43 1549.27 1164.09 1552.13 1166.07 L 1551.07 1166.81 C 1547.39 1165.93 1545.25 1163.66 1542.4 1161.19 C 1536.54 1162.57 1513.74 1168.26 1509.24 1167.99 L 1510.12 1163.98 C 1520.31 1161.72 1530.84 1159.53 1540.97 1157.11 C 1541.67 1151.91 1541.65 1149.22 1545.91 1145.65 C 1544.56 1148.95 1543.15 1151.53 1543.21 1155.04 L 1544.56 1156.38 C 1555.71 1154.6 1566.95 1151.79 1577.98 1150.08 C 1578.02 1140.78 1577.73 1136.58 1584.35 1129.51 L 1584.32 1129.52 L 1585.28 1129.61 C 1583.28 1136.24 1578.2 1140.26 1579.6 1146.73 C 1585.4 1150.84 1611.93 1143.31 1619.97 1142.27 C 1620.05 1133.77 1619.69 1130.85 1624.25 1123.7 C 1624.86 1128.76 1619.5 1136.97 1623.13 1141.11 C 1631.66 1140.96 1651.97 1136.62 1661.75 1135.13 C 1662.19 1127.54 1664.39 1115.14 1672.98 1112.3 L 1673.28 1112.88 C 1663.99 1122.3 1664.96 1121.91 1662.29 1134.68 C 1677.16 1132.55 1691.99 1130.26 1706.8 1127.8 C 1707.48 1122.06 1710.56 1110.92 1716.03 1108.13 L 1717.86 1108.54 C 1713.69 1113.15 1709.84 1117.49 1708.46 1123.71 L 1708.96 1125.96 C 1713.86 1128.36 1739.52 1122.97 1747.62 1122.28 z"/>
</svg>