<svg version="1.1" xmlns="http://www.w3.org/2000/svg" style="display: block;" viewBox="0 0 2048 1775" width="2000" height="1733" preserveAspectRatio="none">
<defs>
	<linearGradient id="Gradient1" gradientUnits="userSpaceOnUse" x1="778.735" y1="580.762" x2="777.489" y2="660.836">
		<stop class="stop0" offset="0" stop-opacity="1" stop-color="rgb(236,101,79)"/>
		<stop class="stop1" offset="1" stop-opacity="1" stop-color="rgb(248,160,130)"/>
	</linearGradient>
	<linearGradient id="Gradient2" gradientUnits="userSpaceOnUse" x1="1178.2" y1="629.749" x2="1184.43" y2="628.083">
		<stop class="stop0" offset="0" stop-opacity="1" stop-color="rgb(48,67,60)"/>
		<stop class="stop1" offset="1" stop-opacity="1" stop-color="rgb(79,95,95)"/>
	</linearGradient>
</defs>
<path transform="translate(0,0)" fill="rgb(12,70,118)" d="M 753.727 639.848 C 754.584 640.83 757.85 644.464 758.38 645.328 C 771.062 655.071 780.034 663.771 796.344 662.666 C 798.489 661.209 800.614 659.721 802.717 658.204 L 804.91 656.304 C 805.359 667.06 805.162 674.363 812.267 682.955 C 814.058 684.103 818.941 686.986 820.076 688.355 C 861.773 712.723 861.165 718.201 874.858 766.003 C 876.598 772.079 878.871 783.225 881.476 788.863 C 885.831 791.969 887.846 801.185 889.597 806.692 C 883.77 808.293 880.796 809.052 874.819 809.873 C 865.77 811.861 842.319 816.305 834.352 818.94 C 830.835 829.39 826.567 836.755 824.177 847.729 C 821.811 858.593 821.621 875.972 818.679 885.878 C 817.802 893.17 817.695 903.292 815.227 909.61 C 816.809 917.92 818.055 920.582 815.081 928.44 C 841.458 1018.93 864.559 1110.21 890.672 1200.75 C 892.551 1207.27 896.4 1221.26 899.288 1226.71 C 905.584 1238.59 912.158 1240.78 915.686 1255.32 C 919.164 1267.8 913.727 1281.23 915.171 1293.5 C 920.513 1338.88 927.023 1384.22 931.816 1429.67 C 934.4 1454.16 937.957 1480.69 938.103 1505.26 C 926.353 1509.43 916.534 1511.46 904.213 1513.53 C 905.691 1522.96 907.985 1541.08 910.577 1549.35 C 898.207 1552.62 885.685 1555.29 873.056 1557.35 C 872.861 1550.41 866.019 1527.59 864.775 1515.89 C 858.115 1515.5 851.168 1514.99 844.527 1514.86 C 830.308 1459.38 804.43 1331.63 817.247 1279.89 C 784.807 1256.17 770.734 1222.28 755.527 1186.36 C 752.147 1202.14 748.149 1217.78 743.542 1233.25 C 740.302 1244.05 736.428 1255.52 733.537 1266.35 C 731.82 1272.79 734.562 1281.35 731.281 1289.52 C 727.8 1298.19 724.888 1302.25 719.04 1309.45 C 714.032 1358.75 710.741 1408.63 703.951 1457.88 C 701.25 1477.48 698.914 1504.79 694.532 1523.61 C 689.159 1524.84 672.91 1527.22 670.122 1528.78 L 669.616 1530.72 C 668.644 1540.12 664.238 1557.5 663.985 1563.56 C 654.748 1564.83 636.906 1564.29 628.075 1561.62 C 629.443 1557.92 627.853 1532.64 627.889 1526.19 C 622.028 1524.83 616.244 1522.9 610.495 1521.11 C 607.169 1470.85 594.701 1420.39 599.214 1369.83 C 600.082 1360.1 600.808 1350.68 602.193 1340.99 C 603.99 1328.11 606.733 1315.38 610.399 1302.91 C 618.543 1275.99 623.013 1275.32 624.574 1243.39 C 627.14 1190.88 616.763 1140.08 620.229 1087.88 C 623.759 1034.73 634.14 971.328 675.733 934.231 C 676.967 925.323 683.071 911.498 681.933 904.336 C 678.867 885.046 677.558 864.315 674.847 845.135 C 667.983 845.964 661.102 846.634 654.207 847.146 C 653.832 838.509 653.344 826.388 654.824 817.94 L 654.876 817.292 C 655.003 805.981 654.93 794.602 658.049 783.644 C 657.936 762.002 672.961 728.263 686.288 711.085 C 696.857 697.463 720.495 693.196 735.857 685.934 L 737.037 685.369 L 744.863 681.412 C 753.971 674.23 753.297 666.249 753.333 655.715 C 755.006 649.489 754.426 646.03 753.727 639.848 z M 739.656 915.865 C 741.017 924.952 741.431 931.912 741.944 941.015 C 763.876 941.396 799.068 945.366 815.081 928.44 C 818.055 920.582 816.809 917.92 815.227 909.61 C 781.251 917.352 775.037 917.853 739.656 915.865 z"/>
<path transform="translate(0,0)" fill="rgb(250,190,75)" d="M 753.727 639.848 C 754.584 640.83 757.85 644.464 758.38 645.328 C 771.062 655.071 780.034 663.771 796.344 662.666 C 798.489 661.209 800.614 659.721 802.717 658.204 L 804.91 656.304 C 805.359 667.06 805.162 674.363 812.267 682.955 C 814.058 684.103 818.941 686.986 820.076 688.355 C 861.773 712.723 861.165 718.201 874.858 766.003 C 876.598 772.079 878.871 783.225 881.476 788.863 C 885.831 791.969 887.846 801.185 889.597 806.692 C 883.77 808.293 880.796 809.052 874.819 809.873 C 865.77 811.861 842.319 816.305 834.352 818.94 C 830.835 829.39 826.567 836.755 824.177 847.729 C 821.811 858.593 821.621 875.972 818.679 885.878 C 817.802 893.17 817.695 903.292 815.227 909.61 C 781.251 917.352 775.037 917.853 739.656 915.865 L 736.199 905.633 C 738.204 895.105 739.916 884.524 741.333 873.901 L 744.42 851.781 L 746.653 836.821 C 745.128 835.438 745.524 835.207 744.127 835.366 C 721.207 837.964 697.727 842.155 674.847 845.135 C 667.983 845.964 661.102 846.634 654.207 847.146 C 653.832 838.509 653.344 826.388 654.824 817.94 L 654.876 817.292 C 655.003 805.981 654.93 794.602 658.049 783.644 C 657.936 762.002 672.961 728.263 686.288 711.085 C 696.857 697.463 720.495 693.196 735.857 685.934 L 737.037 685.369 L 744.863 681.412 C 753.971 674.23 753.297 666.249 753.333 655.715 C 755.006 649.489 754.426 646.03 753.727 639.848 z"/>
<path transform="translate(0,0)" fill="rgb(200,99,83)" d="M 753.727 639.848 C 754.584 640.83 757.85 644.464 758.38 645.328 C 771.062 655.071 780.034 663.771 796.344 662.666 C 798.489 661.209 800.614 659.721 802.717 658.204 L 804.91 656.304 C 805.359 667.06 805.162 674.363 812.267 682.955 C 812.13 691.328 811.488 695.547 809.015 703.401 C 794.625 717.555 774.852 715.209 760.079 703.166 C 752.947 697.351 749.094 689.384 744.863 681.412 C 753.971 674.23 753.297 666.249 753.333 655.715 C 755.006 649.489 754.426 646.03 753.727 639.848 z"/>
<path transform="translate(0,0)" fill="rgb(226,101,94)" d="M 758.38 645.328 C 771.062 655.071 780.034 663.771 796.344 662.666 C 791.964 682.852 759.435 661.468 758.38 645.328 z"/>
<path transform="translate(0,0)" fill="rgb(236,161,46)" d="M 654.824 817.94 L 655.386 823.423 C 655.794 823.662 695.383 821.833 698.585 821.598 C 718.771 820.002 738.893 817.668 758.909 814.602 L 759.072 832.864 C 754.836 833.352 752.106 833.656 747.92 834.638 L 746.653 836.821 C 745.128 835.438 745.524 835.207 744.127 835.366 C 721.207 837.964 697.727 842.155 674.847 845.135 C 667.983 845.964 661.102 846.634 654.207 847.146 C 653.832 838.509 653.344 826.388 654.824 817.94 z"/>
<path transform="translate(0,0)" fill="rgb(236,161,46)" d="M 843.696 793.186 C 838.792 779.468 822.846 738.905 823.736 725.586 L 824.96 725.422 C 826.649 730.633 826.997 734.982 828.641 740.297 C 834.248 758.43 840.094 778.013 847.753 795.348 C 859.635 793.669 869.743 791.44 881.476 788.863 C 885.831 791.969 887.846 801.185 889.597 806.692 C 883.77 808.293 880.796 809.052 874.819 809.873 C 865.77 811.861 842.319 816.305 834.352 818.94 C 833.354 819.172 829.799 820.995 828.546 821.557 C 829.232 818.076 835.661 812.7 837.584 809.373 C 840.012 805.174 842.158 797.902 843.696 793.186 z"/>
<path transform="translate(0,0)" fill="rgb(236,161,46)" d="M 737.037 685.369 L 744.863 681.412 C 749.094 689.384 752.947 697.351 760.079 703.166 C 774.852 715.209 794.625 717.555 809.015 703.401 C 811.488 695.547 812.13 691.328 812.267 682.955 C 814.058 684.103 818.941 686.986 820.076 688.355 C 818.665 690.775 818.912 698.895 818.824 702.195 C 801.106 733.183 760.886 723.18 743.18 698.157 C 740.711 694.667 738.708 689.363 737.037 685.369 z"/>
<path transform="translate(0,0)" fill="rgb(236,161,46)" d="M 744.42 851.781 C 745.804 861.593 761.21 859.123 747.004 876.173 C 743.867 876.392 744.642 876.126 741.333 873.901 L 744.42 851.781 z"/>
<path transform="translate(0,0)" fill="rgb(236,161,46)" d="M 658.049 783.644 C 661.098 787.74 661.055 814.312 658.66 818.301 C 656.078 818.369 657.317 818.611 654.876 817.292 C 655.003 805.981 654.93 794.602 658.049 783.644 z"/>
<path transform="translate(0,0)" fill="rgb(236,161,46)" d="M 755.089 775.435 C 759.189 778.028 757.103 804.237 756.676 809.715 C 750.306 804.173 753.489 782.962 755.089 775.435 z"/>
<path transform="translate(0,0)" fill="rgb(200,99,83)" d="M 674.847 845.135 C 697.727 842.155 721.207 837.964 744.127 835.366 C 745.524 835.207 745.128 835.438 746.653 836.821 L 744.42 851.781 L 741.333 873.901 C 739.916 884.524 738.204 895.105 736.199 905.633 L 739.656 915.865 C 741.017 924.952 741.431 931.912 741.944 941.015 C 741.765 970.171 746.718 1002.4 745.576 1031.97 C 745.145 1043.11 742.878 1053.71 740.905 1064.65 C 749.052 1068.12 764.022 1073.02 766.744 1081.94 C 768.404 1087.37 765.328 1100.52 762.83 1105.41 C 759.791 1105.71 759.756 1103.89 755.895 1101.47 C 755.324 1105.94 754.551 1111.66 751.779 1115.21 L 750.188 1115.84 C 744.255 1118.23 744.879 1117.32 740.955 1122.75 L 740.131 1123.91 C 737.457 1121.43 736.505 1120.16 733.186 1118.89 C 730.222 1120.46 726.736 1122.47 723.329 1121.42 C 716.901 1112.4 719.599 1120.34 712.159 1118 C 705.133 1110.74 706.489 1090.14 707.842 1080.38 C 708.251 1077.42 711.348 1073.5 713.237 1071.05 C 698.919 1042.06 687.889 987.114 685.902 954.784 C 678.02 947.408 677.69 944.518 675.733 934.231 C 676.967 925.323 683.071 911.498 681.933 904.336 C 678.867 885.046 677.558 864.315 674.847 845.135 z"/>
<path transform="translate(0,0)" fill="rgb(71,95,92)" d="M 815.227 909.61 C 816.809 917.92 818.055 920.582 815.081 928.44 C 799.068 945.366 763.876 941.396 741.944 941.015 C 741.431 931.912 741.017 924.952 739.656 915.865 C 775.037 917.853 781.251 917.352 815.227 909.61 z M 801.879 932.515 C 804.19 930.911 804.843 927.781 803.368 925.386 C 801.892 922.991 798.803 922.167 796.331 923.51 C 794.607 924.446 793.541 926.258 793.562 928.219 C 793.582 930.181 794.684 931.97 796.427 932.871 C 798.17 933.771 800.268 933.634 801.879 932.515 z"/>
<path transform="translate(0,0)" fill="rgb(200,99,83)" d="M 864.775 1515.89 C 878.484 1515.39 890.583 1514.84 904.213 1513.53 C 905.691 1522.96 907.985 1541.08 910.577 1549.35 C 898.207 1552.62 885.685 1555.29 873.056 1557.35 C 872.861 1550.41 866.019 1527.59 864.775 1515.89 z"/>
<path transform="translate(0,0)" fill="rgb(200,99,83)" d="M 627.889 1526.19 C 633.178 1526.94 668.762 1528.85 669.171 1529.14 L 669.616 1530.72 C 668.644 1540.12 664.238 1557.5 663.985 1563.56 C 654.748 1564.83 636.906 1564.29 628.075 1561.62 C 629.443 1557.92 627.853 1532.64 627.889 1526.19 z"/>
<path transform="translate(0,0)" fill="rgb(82,151,197)" d="M 643.231 1282.52 L 644.719 1284.06 C 645.079 1286.8 637.437 1308.72 635.986 1313.74 C 632.232 1327.18 629.286 1340.83 627.166 1354.62 C 624.06 1375.88 624.19 1397.74 623.131 1417.5 C 622.371 1431.69 625.003 1496.71 622.543 1503.57 C 618.173 1500.1 619.778 1476.42 619.695 1469.7 C 619.065 1419.18 617.306 1328.06 643.231 1282.52 z"/>
<path transform="translate(0,0)" fill="rgb(82,151,197)" d="M 668.579 1049.35 L 670.536 1050.65 C 670.906 1053.51 661.009 1081.71 659.146 1087.92 C 647.706 1126.02 655.022 1170.65 649.321 1207.75 C 648.144 1207 646.899 1206.58 646.755 1205.52 C 645.762 1198.16 646.436 1186.55 646.669 1179.1 C 648.146 1131.97 649.172 1092.95 668.579 1049.35 z"/>
<path transform="translate(0,0)" fill="rgb(82,151,197)" d="M 840.663 1329.22 C 845.953 1331.55 843.901 1353.99 844.521 1360.99 C 846.816 1389.12 851.462 1417.01 858.412 1444.37 C 861.428 1456.59 868.162 1477.61 869.805 1488.53 L 867.431 1487.77 C 864.412 1483.68 860.621 1467.34 859.183 1462.1 C 850.471 1430.37 836.437 1361.59 840.663 1329.22 z"/>
<path transform="translate(0,0)" fill="rgb(82,151,197)" d="M 788.307 1147.26 C 789.847 1147.87 790.029 1147.89 790.085 1148.4 C 790.512 1152.32 793.195 1174.27 793.299 1176.33 C 794.074 1191.73 818.932 1245.76 818.549 1256.59 C 817.706 1256.13 816.563 1255.23 815.749 1254.64 C 805.394 1231.56 783.591 1171.93 788.307 1147.26 z"/>
<path transform="translate(0,0)" fill="rgb(12,70,118)" d="M 1175.52 623.919 C 1176.36 618.454 1178.68 617.197 1182.99 614.05 C 1183.67 617.919 1186.98 636.656 1185.66 640.42 C 1185.55 640.739 1184.2 642.135 1183.84 642.522 C 1196.39 639.475 1205.73 641.05 1218.06 644.876 C 1238.84 651.323 1252.82 658.046 1258.19 680.845 C 1258.61 682.594 1258.98 684.353 1259.3 686.122 C 1271.36 690.598 1319.7 712.674 1328.05 720.66 C 1350.24 734.866 1378.2 764.242 1395.11 784.581 C 1403.51 794.678 1410.94 805.91 1420.3 815.248 C 1430.85 826.995 1434.17 830.497 1438.27 845.771 C 1467.35 857.616 1470.25 902.781 1442.5 902.448 C 1428.03 922.634 1409.74 939.797 1388.68 952.97 C 1378.23 959.605 1372.28 962.136 1361.89 970.002 L 1362.3 971.177 C 1366.51 977.605 1359.71 1021.21 1359.86 1028.52 L 1360.63 1030.82 C 1362.61 1034.37 1362.82 1037.29 1363.54 1041.3 C 1363.21 1056.74 1362.16 1056.6 1358.74 1069.92 C 1351.83 1078.55 1334.23 1086.08 1323.7 1088.55 C 1317.91 1090.09 1313.33 1091.71 1307.68 1093.73 C 1305.1 1090.43 1306.25 1090.86 1303 1090.24 C 1300.68 1092.67 1301.35 1091.55 1301.14 1095.66 C 1283.31 1101.81 1273.6 1100.73 1258.18 1104.7 C 1246.68 1107.27 1235.87 1106.57 1224.2 1106.15 C 1204.24 1104.28 1169.91 1103.64 1156.01 1089.58 C 1149.94 1085.75 1149.2 1078.15 1147.93 1071.7 C 1148.64 1066.4 1149.08 1061 1151.03 1056.05 C 1150.89 999.812 1133.7 967.861 1119.74 917.203 C 1102.37 934.659 1077.55 954.081 1055.42 964.725 C 1043.66 991.97 1003.46 981.214 998.583 951.374 C 965.545 915.681 959.064 850.211 958.184 803.258 L 956.349 799.787 C 954.156 795.603 951.522 788.919 952.05 784.173 C 954.107 780.883 953.773 781.853 958.331 780.129 C 956.59 772.854 955.346 765.47 954.606 758.027 C 965.225 758.621 965.243 754.337 969.555 754.879 L 968.991 757.78 L 971.193 758.087 C 971.588 756.855 972.006 755.631 972.447 754.415 C 976.893 755.943 977.51 756.168 982.155 755.665 L 990.365 754.135 C 992.236 757.135 996.729 764.98 999.043 766.824 C 1007.23 765.814 1007.25 773.531 1008.75 780.204 C 1008.97 792.288 1034.41 829.827 1042.21 841.177 L 1043.18 840.192 L 1039.01 831.929 C 1054.94 793.848 1072.49 759.338 1093.33 723.976 C 1099.54 713.441 1099.54 697.694 1107.68 687.189 C 1113.22 680.035 1120.08 675.295 1127.29 670.202 L 1128.08 670.331 C 1141.55 670.146 1165.88 655.528 1172.83 644.174 L 1174.7 625.428 L 1175.52 623.919 z M 1396.07 792.121 C 1391.53 782.727 1344.05 733.67 1335.31 729.298 C 1345.21 739.867 1356.66 750.903 1366.78 761.458 C 1372 766.897 1391.55 789.013 1396.07 792.121 z M 1126.21 920.339 C 1125.66 911.347 1111.32 856.473 1105.3 852.506 C 1108.14 862.061 1123.55 917.13 1126.21 920.339 z"/>
<path transform="translate(0,0)" fill="rgb(16,31,44)" fill-opacity="0.141176" d="M 1335.31 729.298 C 1344.05 733.67 1391.53 782.727 1396.07 792.121 C 1391.55 789.013 1372 766.897 1366.78 761.458 C 1356.66 750.903 1345.21 739.867 1335.31 729.298 z"/>
<path transform="translate(0,0)" fill="rgb(123,180,208)" d="M 1359.86 1028.52 L 1360.63 1030.82 C 1362.61 1034.37 1362.82 1037.29 1363.54 1041.3 C 1363.21 1056.74 1362.16 1056.6 1358.74 1069.92 C 1351.83 1078.55 1334.23 1086.08 1323.7 1088.55 C 1317.91 1090.09 1313.33 1091.71 1307.68 1093.73 C 1305.1 1090.43 1306.25 1090.86 1303 1090.24 C 1300.68 1092.67 1301.35 1091.55 1301.14 1095.66 C 1283.31 1101.81 1273.6 1100.73 1258.18 1104.7 C 1246.68 1107.27 1235.87 1106.57 1224.2 1106.15 C 1204.24 1104.28 1169.91 1103.64 1156.01 1089.58 C 1149.94 1085.75 1149.2 1078.15 1147.93 1071.7 C 1148.64 1066.4 1149.08 1061 1151.03 1056.05 L 1151.75 1056.23 C 1176.1 1062.39 1182.46 1066.44 1210.59 1066.97 C 1222.55 1067.2 1245.92 1066.02 1256.36 1066.95 C 1267.5 1068.11 1327.53 1050.27 1333.87 1041.51 C 1344.66 1036.1 1348.43 1036.15 1359.86 1028.52 z"/>
<path transform="translate(0,0)" fill="rgb(211,228,230)" d="M 1151.03 1056.05 L 1151.75 1056.23 C 1176.1 1062.39 1182.46 1066.44 1210.59 1066.97 C 1222.55 1067.2 1245.92 1066.02 1256.36 1066.95 C 1246.44 1074.51 1155.69 1069.06 1151.03 1056.05 z"/>
<path transform="translate(0,0)" fill="rgb(211,228,230)" d="M 1156.01 1089.58 C 1163.79 1091.31 1171.39 1096.91 1179.92 1098.58 C 1193.78 1101.29 1207.95 1101.86 1222 1103.25 C 1230.17 1104.32 1253.91 1102.4 1258.18 1104.7 C 1246.68 1107.27 1235.87 1106.57 1224.2 1106.15 C 1204.24 1104.28 1169.91 1103.64 1156.01 1089.58 z"/>
<path transform="translate(0,0)" fill="rgb(211,228,230)" d="M 1323.7 1088.55 L 1322.8 1087.78 L 1323.34 1086.48 C 1331.49 1083.62 1338.61 1080.55 1346.06 1076.11 C 1350.59 1073.42 1353.4 1069.97 1358.74 1069.92 C 1351.83 1078.55 1334.23 1086.08 1323.7 1088.55 z"/>
<path transform="translate(0,0)" fill="rgb(211,228,230)" d="M 1359.86 1028.52 L 1360.63 1030.82 C 1355.17 1034.51 1340.36 1044.18 1333.87 1041.51 C 1344.66 1036.1 1348.43 1036.15 1359.86 1028.52 z"/>
<path transform="translate(0,0)" fill="rgb(237,245,244)" d="M 1348.63 1039.33 C 1354.66 1040.95 1357.75 1059.58 1356.84 1064.8 C 1355.41 1064.05 1355.05 1063.67 1353.77 1062.68 C 1351.2 1056.17 1347.53 1046.33 1348.63 1039.33 z"/>
<path transform="translate(0,0)" fill="rgb(237,245,244)" d="M 1199.81 1069.99 L 1202.58 1070.94 C 1205.61 1074.99 1204.23 1089.11 1203.93 1094.76 L 1201.5 1093.85 C 1198.44 1090.35 1199.66 1075.31 1199.81 1069.99 z"/>
<path transform="translate(0,0)" fill="rgb(237,245,244)" d="M 1283.78 1064.17 C 1285.66 1065 1285.08 1064.71 1286.66 1066.12 C 1287.68 1070.8 1287.62 1077.72 1287.76 1082.73 C 1285.27 1082.16 1285.3 1082.36 1283.65 1080.47 C 1281.55 1074.17 1282.64 1070.59 1283.78 1064.17 z"/>
<path transform="translate(0,0)" fill="rgb(237,245,244)" d="M 1314.75 1052.38 L 1317.43 1053.87 C 1319.91 1058.29 1319.35 1060.44 1318.04 1065.41 L 1316.18 1064.38 C 1313.24 1060.13 1313.88 1057.52 1314.75 1052.38 z"/>
<path transform="translate(0,0)" fill="rgb(211,228,230)" d="M 1245.31 1074.73 L 1246.59 1075.87 C 1248.14 1080.68 1247.98 1083.48 1248.12 1088.44 L 1247.01 1087.62 C 1245.36 1084.45 1245.5 1078.56 1245.31 1074.73 z"/>
<path transform="translate(0,0)" fill="rgb(200,99,83)" d="M 1175.52 623.919 C 1176.36 618.454 1178.68 617.197 1182.99 614.05 C 1183.67 617.919 1186.98 636.656 1185.66 640.42 C 1185.55 640.739 1184.2 642.135 1183.84 642.522 L 1182.15 644.142 C 1184.73 658.911 1193.57 670.975 1191.75 685.812 C 1189.95 713.731 1168.73 717.425 1167.83 742.018 C 1166.34 742.539 1167.08 742.521 1165.61 742.123 C 1160.1 747.561 1148.75 744.3 1143.27 739.98 C 1142.64 736.253 1135.58 728.314 1133.28 720.327 C 1130.82 709.013 1133.69 695.905 1130.54 685.676 C 1131.18 681.6 1129.99 675.417 1129.41 671.124 L 1128.08 670.331 C 1141.55 670.146 1165.88 655.528 1172.83 644.174 L 1174.7 625.428 L 1175.52 623.919 z"/>
<path transform="translate(0,0)" fill="rgb(236,161,46)" d="M 1133.28 720.327 C 1139.35 721.241 1142.12 723.709 1148.65 724.691 C 1156.63 726.569 1162.59 725.303 1170.66 724.064 C 1167.57 730.83 1165.95 734.406 1165.61 742.123 C 1160.1 747.561 1148.75 744.3 1143.27 739.98 C 1142.64 736.253 1135.58 728.314 1133.28 720.327 z"/>
<path transform="translate(0,0)" fill="rgb(226,101,94)" d="M 1172.83 644.174 C 1175.7 655.539 1157.31 671.949 1147.05 674.813 C 1139.77 676.844 1134.86 671.486 1129.41 671.124 L 1128.08 670.331 C 1141.55 670.146 1165.88 655.528 1172.83 644.174 z"/>
<path transform="translate(0,0)" fill="url(#Gradient2)" d="M 1175.52 623.919 C 1176.36 618.454 1178.68 617.197 1182.99 614.05 C 1183.67 617.919 1186.98 636.656 1185.66 640.42 C 1185.55 640.739 1184.2 642.135 1183.84 642.522 L 1182.15 644.142 C 1178.71 635.685 1177.67 632.977 1175.52 623.919 z"/>
<path transform="translate(0,0)" fill="rgb(243,215,181)" d="M 1172.77 721.487 C 1177.68 713.653 1182.57 708.146 1186.67 699.099 C 1188.92 694.125 1189.35 689.806 1191.75 685.812 C 1189.95 713.731 1168.73 717.425 1167.83 742.018 C 1166.34 742.539 1167.08 742.521 1165.61 742.123 C 1165.95 734.406 1167.57 730.83 1170.66 724.064 C 1162.59 725.303 1156.63 726.569 1148.65 724.691 C 1155.73 723.241 1165.42 722.363 1172.77 721.487 z"/>
<path transform="translate(0,0)" fill="rgb(123,180,208)" d="M 982.155 755.665 L 990.365 754.135 C 992.236 757.135 996.729 764.98 999.043 766.824 C 1007.23 765.814 1007.25 773.531 1008.75 780.204 C 1007.07 783.966 1006.39 783.833 1002.08 784.66 C 987.505 791.794 971.782 796.226 958.184 803.258 L 956.349 799.787 C 954.156 795.603 951.522 788.919 952.05 784.173 C 954.107 780.883 953.773 781.853 958.331 780.129 C 956.59 772.854 955.346 765.47 954.606 758.027 C 965.225 758.621 965.243 754.337 969.555 754.879 L 968.991 757.78 L 971.193 758.087 C 971.588 756.855 972.006 755.631 972.447 754.415 C 976.893 755.943 977.51 756.168 982.155 755.665 z"/>
<path transform="translate(0,0)" fill="rgb(184,81,74)" d="M 982.155 755.665 L 990.365 754.135 C 992.236 757.135 996.729 764.98 999.043 766.824 C 991.009 773.052 969.514 775.999 958.331 780.129 C 956.59 772.854 955.346 765.47 954.606 758.027 C 965.225 758.621 965.243 754.337 969.555 754.879 L 968.991 757.78 L 971.193 758.087 C 971.588 756.855 972.006 755.631 972.447 754.415 C 976.893 755.943 977.51 756.168 982.155 755.665 z"/>
<path transform="translate(0,0)" fill="rgb(237,245,244)" d="M 956.349 799.787 C 966.803 795.533 988.046 788.287 999.464 783.776 C 1000.33 784.07 1001.21 784.365 1002.08 784.66 C 987.505 791.794 971.782 796.226 958.184 803.258 L 956.349 799.787 z"/>
<path transform="translate(0,0)" fill="rgb(51,78,97)" d="M 1328.05 720.66 C 1350.24 734.866 1378.2 764.242 1395.11 784.581 C 1403.51 794.678 1410.94 805.91 1420.3 815.248 L 1417.5 816.844 C 1414.5 813.122 1413.64 811.639 1409.55 809.038 C 1406.26 806.274 1397.48 796.123 1396.07 792.121 C 1391.53 782.727 1344.05 733.67 1335.31 729.298 L 1327.91 722.597 L 1328.05 720.66 z"/>
<path transform="translate(0,0)" fill="rgb(237,245,244)" d="M 1362.3 971.177 C 1359.92 973.903 1322.74 997.657 1319.73 998.456 L 1319.59 997.041 C 1324.82 992.731 1355.9 972.651 1361.89 970.002 L 1362.3 971.177 z"/>
<path transform="translate(0,0)" fill="rgb(237,245,244)" d="M 1143.27 739.98 C 1141.04 739.241 1140.28 737.251 1138.84 735.686 C 1129.2 725.208 1128.31 699.779 1130.54 685.676 C 1133.69 695.905 1130.82 709.013 1133.28 720.327 C 1135.58 728.314 1142.64 736.253 1143.27 739.98 z"/>
<path transform="translate(0,0)" fill="rgb(211,228,230)" d="M 1043.18 840.192 C 1046.86 845.097 1059.15 863.445 1058.72 869.026 C 1054.33 866.686 1044.76 846.663 1042.21 841.177 L 1043.18 840.192 z"/>
<path transform="translate(0,0)" fill="rgb(211,228,230)" d="M 1409.55 809.038 C 1413.64 811.639 1414.5 813.122 1417.5 816.844 C 1418.23 818.103 1418.69 819.205 1419.31 820.53 L 1418.34 821.078 C 1414.94 818.301 1410.59 813.363 1409.55 809.038 z"/>
<path transform="translate(0,0)" fill="rgb(200,99,83)" d="M 1197.01 978.282 C 1224.06 967.991 1221.62 960.27 1243.09 985.964 C 1246.67 983.158 1253.07 978.589 1255.52 975.122 C 1262.6 981.991 1277.04 1003.68 1281.2 1012.78 C 1267.32 1020.23 1203.88 1050.54 1194.71 1033.02 C 1195.22 1030.61 1195.85 1029.15 1194.84 1026.96 C 1192.24 1025.65 1192.02 1025.56 1189.62 1023.65 C 1188.28 1019.18 1188.46 1019.47 1189.8 1014.74 L 1190.23 1013.24 C 1189.22 1010.1 1185.98 1008.27 1183.23 1006.18 C 1197.18 993.401 1182.1 989.819 1205.29 984.929 L 1197.01 978.282 z"/>
<path transform="translate(0,0)" fill="rgb(123,180,208)" d="M 1255.52 975.122 C 1255.63 970.715 1255.58 971.731 1258.73 967.927 C 1262.3 963.622 1271.07 962.286 1274.12 958.37 C 1280.15 950.635 1286.06 942.172 1291.83 934.24 C 1301.54 920.834 1311.63 907.706 1322.09 894.871 C 1326.35 889.685 1332.24 882.069 1337.46 878.367 L 1338.29 878.702 C 1334.49 884.918 1320.39 900.571 1314.83 907.619 C 1300.55 926.075 1286.68 944.845 1273.23 963.914 C 1285.51 980.925 1291.5 988.116 1306 1003.26 C 1300.43 1008.69 1297.46 1012.12 1289.93 1014.63 L 1286.12 1017.14 C 1282.75 1015.79 1283.74 1016.11 1281.2 1012.78 C 1277.04 1003.68 1262.6 981.991 1255.52 975.122 z"/>
<path transform="translate(0,0)" fill="rgb(237,245,244)" d="M 1255.52 975.122 C 1255.63 970.715 1255.58 971.731 1258.73 967.927 C 1262.3 963.622 1271.07 962.286 1274.12 958.37 C 1280.15 950.635 1286.06 942.172 1291.83 934.24 C 1301.54 920.834 1311.63 907.706 1322.09 894.871 C 1326.35 889.685 1332.24 882.069 1337.46 878.367 L 1338.29 878.702 C 1334.49 884.918 1320.39 900.571 1314.83 907.619 C 1300.55 926.075 1286.68 944.845 1273.23 963.914 C 1285.51 980.925 1291.5 988.116 1306 1003.26 C 1300.43 1008.69 1297.46 1012.12 1289.93 1014.63 L 1289.74 1012.52 C 1294.03 1009.64 1298.1 1007.41 1302.32 1004.7 C 1297.51 999.616 1269.37 965.547 1267.96 964.995 C 1263.2 967.562 1261.93 968.541 1257.84 971.834 C 1265.63 982.461 1283.89 1005.61 1286.12 1017.14 C 1282.75 1015.79 1283.74 1016.11 1281.2 1012.78 C 1277.04 1003.68 1262.6 981.991 1255.52 975.122 z"/>
<path transform="translate(0,0)" fill="rgb(237,245,244)" d="M 1161.1 762.444 C 1163.68 763.67 1163.66 763.459 1165.06 765.896 C 1163.72 780.262 1163.33 791.152 1168.91 804.507 C 1170.39 808.041 1172.37 813.957 1173.55 817.751 C 1174.25 820.039 1173.06 820.769 1171.59 822.838 C 1162.27 817.976 1158.8 798.559 1157.24 788.918 C 1155.7 779.469 1155.15 770.502 1161.1 762.444 z"/>
<path transform="translate(0,0)" fill="rgb(237,245,244)" d="M 1141.58 763.371 L 1145.36 764.343 C 1152.03 771.969 1154.92 810.131 1150.49 820.53 C 1146.45 820.098 1148.03 820.885 1145.2 818.866 C 1144.28 815.178 1145.89 806.688 1145.9 801.863 C 1145.92 792.728 1138.24 770.481 1141.58 763.371 z"/>
<path transform="translate(0,0)" fill="rgb(237,245,244)" d="M 1259.75 824.627 C 1262.3 825.225 1280.24 838.422 1283.36 840.862 C 1291.09 846.915 1323.19 862.862 1326.62 868.035 C 1316.63 866.499 1267.06 834.5 1259.75 824.627 z"/>
<path transform="translate(0,0)" fill="rgb(211,228,230)" d="M 1213.43 661.804 L 1214.53 663.298 C 1214.88 683.012 1200.49 713.46 1188.32 729.158 L 1187.74 728.385 C 1187.92 724.917 1197.15 712.894 1199.66 707.753 C 1207.47 691.777 1209.17 678.231 1213.43 661.804 z"/>
<path transform="translate(0,0)" fill="rgb(8,8,11)" fill-opacity="0.0509804" d="M 1105.3 852.506 C 1111.32 856.473 1125.66 911.347 1126.21 920.339 C 1123.55 917.13 1108.14 862.061 1105.3 852.506 z"/>
<path transform="translate(0,0)" fill="rgb(211,228,230)" d="M 1090.18 744.521 C 1092.55 746.336 1093.09 757.61 1093.28 761.249 C 1094.3 780.011 1100.68 797.611 1103.71 815.81 C 1096.01 811.997 1090.29 754.613 1090.18 744.521 z"/>
<path transform="translate(0,0)" fill="rgb(211,228,230)" d="M 1105.59 693.582 C 1109.31 696.432 1113.07 713.731 1116.68 719.667 C 1121.27 727.217 1126.03 731.491 1131.22 738.288 C 1118.16 733.336 1107.28 706.436 1105.59 693.582 z"/>
<path transform="translate(0,0)" fill="rgb(237,245,244)" d="M 1234.55 703.676 L 1235.62 705.073 C 1231.66 713.578 1213.39 729.492 1205.66 736.253 L 1204.74 735.085 C 1204.81 734.896 1231.28 707.745 1234.55 703.676 z"/>
<path transform="translate(0,0)" fill="rgb(237,245,244)" d="M 1376.57 850.048 L 1377.45 850.996 C 1375.19 854.613 1351.3 861.977 1345.36 864.293 L 1344.66 863.102 C 1346.46 859.943 1371.1 852.098 1376.57 850.048 z"/>
<path transform="translate(0,0)" fill="rgb(237,245,244)" d="M 1098.72 727.621 C 1099.12 727.763 1120.12 749.429 1121.53 751.155 C 1113.4 749.321 1101.4 735.56 1098.72 727.621 z"/>
<path transform="translate(0,0)" fill="rgb(211,228,230)" d="M 1448.22 855.754 C 1459.98 859.682 1461.87 877.4 1458.16 887.717 C 1457.36 888.014 1457.83 887.951 1456.74 887.662 C 1460.34 872.599 1457.88 867.31 1448.22 855.754 z"/>
<path transform="translate(0,0)" fill="rgb(237,245,244)" d="M 1059.51 875.776 C 1062.91 877.544 1070.26 895.364 1069.74 899.071 L 1068.08 898.449 C 1065.11 892.864 1060.48 881.869 1059.51 875.776 z"/>
<path transform="translate(0,0)" fill="rgb(82,151,197)" d="M 1300.66 797.055 C 1305.72 798.242 1318.25 808.53 1322.9 812.244 C 1318.4 812.024 1303.1 800.881 1300.66 797.055 z"/>
<path transform="translate(0,0)" fill="rgb(82,151,197)" d="M 1353.43 889.848 L 1354.27 890.491 C 1352.28 895.418 1344.19 904.12 1340.32 908.151 L 1339.68 907.514 C 1340.32 904.702 1350.8 892.986 1353.43 889.848 z"/>
<path transform="translate(0,0)" fill="rgb(123,180,208)" d="M 1358.61 786.647 C 1364.01 788.609 1374.69 799.657 1378.36 804.326 C 1373.49 802.392 1362.24 790.951 1358.61 786.647 z"/>
<path transform="translate(0,0)" fill="rgb(211,228,230)" d="M 1162.27 754.397 C 1171.04 753.205 1176.81 758.457 1177.32 767.204 C 1175.12 765.187 1173.69 761.662 1171.81 759.149 C 1168.42 754.623 1165.41 758.265 1162.27 754.397 z"/>
<path transform="translate(0,0)" fill="rgb(237,245,244)" d="M 1351.78 867.14 C 1355.66 866.886 1362.45 866.316 1364.64 870.056 L 1363.55 870.219 C 1360.07 870.011 1353 870.729 1350.62 869.518 L 1351.78 867.14 z"/>
<path transform="translate(0,0)" fill="rgb(237,245,244)" d="M 1052.9 879.728 C 1058.56 883.254 1056.68 890.237 1055.54 895.598 L 1053.7 894.273 C 1053.84 888.169 1053.71 885.782 1052.9 879.728 z"/>
<path transform="translate(0,0)" fill="rgb(211,228,230)" d="M 1237.91 657.899 C 1244.46 661.151 1245.43 666.578 1244.6 673.255 C 1243.67 672.67 1238.83 660.142 1237.91 657.899 z"/>
<path transform="translate(0,0)" fill="rgb(211,228,230)" d="M 1144.28 755.869 C 1148.64 756.867 1150.45 757.221 1152.66 761.481 L 1151.58 761.837 L 1147.94 758.504 C 1144.81 758.064 1143.14 759.681 1138.33 759.63 C 1140.41 757.316 1141.47 757.095 1144.28 755.869 z"/>
<path transform="translate(0,0)" fill="rgb(82,151,197)" d="M 1152.9 964.561 C 1154.52 967.422 1154.82 976.409 1154.35 979.782 L 1153.33 979.2 C 1151.8 974.351 1151.83 969.489 1152.9 964.561 z"/>
<path transform="translate(0,0)" fill="rgb(82,151,197)" d="M 1381.5 918.886 L 1382.35 919.613 C 1380.65 922.565 1374.95 926.327 1371.96 928.57 L 1371.15 927.604 C 1373.48 924.375 1378.17 921.356 1381.5 918.886 z"/>
<path transform="translate(0,0)" fill="rgb(82,151,197)" d="M 1275.07 729.185 C 1281.13 728.418 1285.55 731.159 1290.63 734.046 C 1286.34 734.016 1279 731.024 1275.07 729.185 z"/>
<path transform="translate(0,0)" fill="rgb(82,151,197)" d="M 1194.07 908.549 L 1195.66 909.868 C 1197.18 914.626 1197.03 916.524 1197.1 921.384 C 1194.17 918.385 1194.46 913.022 1194.07 908.549 z"/>
<path transform="translate(0,0)" fill="rgb(123,180,208)" d="M 1025.98 879.63 C 1029.82 881.4 1031.42 887.269 1033.19 891.477 C 1029.34 889.409 1027.84 883.945 1025.98 879.63 z"/>
<path transform="translate(0,0)" fill="rgb(82,151,197)" d="M 998.462 823.572 C 1002.51 825.748 1003.67 830.254 1004.87 834.368 C 1001.31 832.092 1000.12 827.595 998.462 823.572 z"/>
<path transform="translate(0,0)" fill="rgb(27,44,59)" d="M 1363.54 1041.3 C 1369.07 1057.23 1372.33 1071.28 1373.92 1088.23 C 1375.85 1108.66 1374.35 1129.7 1373.84 1150.27 C 1372.94 1186.95 1373.85 1227.38 1364.38 1263.13 C 1378.6 1276.29 1381.66 1283.85 1387.54 1302.19 C 1402.62 1349.24 1413.15 1399.15 1415.03 1448.64 C 1415.38 1461.06 1415.27 1473.5 1414.71 1485.92 C 1414.54 1490.52 1413.67 1504.08 1414.22 1507.65 C 1416.93 1520 1414.7 1527.95 1402.27 1531.66 C 1401.91 1536.22 1401.1 1546.39 1399.44 1550.65 C 1397.95 1550.23 1398.39 1550.2 1397.05 1550.3 C 1381.51 1551.42 1367.29 1551.67 1351.75 1549.86 C 1350.75 1544.19 1350.3 1537.68 1349.76 1531.88 C 1333.56 1527.43 1332.27 1523.23 1330.39 1507.73 C 1319.51 1480.84 1316.18 1452.36 1309.36 1423.62 C 1303.52 1398.99 1294.07 1367.38 1285.09 1343.19 C 1283.73 1339.52 1273.03 1329.18 1270.53 1323.77 C 1258.83 1298.34 1253.14 1271.16 1247.99 1243.85 C 1247.44 1239.34 1243.98 1225.88 1242.87 1220.84 C 1240.33 1209.1 1238.08 1197.31 1236.09 1185.46 C 1231.49 1159.26 1228.96 1131.06 1224.2 1106.15 C 1235.87 1106.57 1246.68 1107.27 1258.18 1104.7 C 1273.6 1100.73 1283.31 1101.81 1301.14 1095.66 C 1301.35 1091.55 1300.68 1092.67 1303 1090.24 C 1306.25 1090.86 1305.1 1090.43 1307.68 1093.73 C 1313.33 1091.71 1317.91 1090.09 1323.7 1088.55 C 1334.23 1086.08 1351.83 1078.55 1358.74 1069.92 C 1362.16 1056.6 1363.21 1056.74 1363.54 1041.3 z"/>
<path transform="translate(0,0)" fill="rgb(51,78,97)" d="M 1330.39 1507.73 C 1344.2 1507.6 1360.61 1510.53 1374.6 1510.23 C 1388.15 1509.93 1400.25 1507.22 1414.22 1507.65 C 1416.93 1520 1414.7 1527.95 1402.27 1531.66 C 1401.91 1536.22 1401.1 1546.39 1399.44 1550.65 C 1397.95 1550.23 1398.39 1550.2 1397.05 1550.3 C 1381.51 1551.42 1367.29 1551.67 1351.75 1549.86 C 1350.75 1544.19 1350.3 1537.68 1349.76 1531.88 C 1333.56 1527.43 1332.27 1523.23 1330.39 1507.73 z"/>
<path transform="translate(0,0)" fill="rgb(200,99,83)" d="M 1349.76 1531.88 C 1369.23 1534.4 1383 1535.35 1402.27 1531.66 C 1401.91 1536.22 1401.1 1546.39 1399.44 1550.65 C 1397.95 1550.23 1398.39 1550.2 1397.05 1550.3 C 1381.51 1551.42 1367.29 1551.67 1351.75 1549.86 C 1350.75 1544.19 1350.3 1537.68 1349.76 1531.88 z"/>
<path transform="translate(0,0)" fill="rgb(150,211,228)" d="M 1301.14 1095.66 C 1301.35 1091.55 1300.68 1092.67 1303 1090.24 C 1306.25 1090.86 1305.1 1090.43 1307.68 1093.73 C 1321.98 1115.75 1338.43 1105.31 1352.71 1111.57 L 1354.1 1113.95 C 1353.27 1115.6 1353.17 1116.44 1350.96 1116.77 C 1331.36 1119.73 1311.31 1112.71 1301.14 1095.66 z"/>
<path transform="translate(0,0)" fill="rgb(211,228,230)" d="M 1330.44 1315.69 L 1331.36 1316.65 C 1331.26 1318.47 1331.11 1319.89 1330.89 1321.7 C 1320.03 1336.98 1301.02 1331.45 1287.58 1323.32 L 1287.38 1322.41 L 1288.49 1321.66 C 1290.49 1322.8 1292.51 1323.9 1294.56 1324.95 C 1309.87 1332.68 1322.95 1332.93 1330.44 1315.69 z"/>
<path transform="translate(0,0)" fill="rgb(16,31,44)" d="M 1147.93 1071.7 C 1149.2 1078.15 1149.94 1085.75 1156.01 1089.58 C 1169.91 1103.64 1204.24 1104.28 1224.2 1106.15 C 1228.96 1131.06 1231.49 1159.26 1236.09 1185.46 C 1238.08 1197.31 1240.33 1209.1 1242.87 1220.84 C 1243.98 1225.88 1247.44 1239.34 1247.99 1243.85 C 1241.03 1268.55 1232.76 1295.65 1221.17 1318.68 C 1240.42 1371.1 1235.5 1423.24 1228.69 1477.58 C 1227.26 1489.02 1225.87 1500.46 1223.77 1511.8 C 1221.95 1519.1 1218.65 1527 1215.05 1533.6 C 1210.66 1534.51 1208.37 1534.23 1205.39 1536.91 C 1203.9 1541.91 1205.12 1544.22 1204.3 1549.26 C 1204.41 1550.48 1204.56 1553.02 1204.79 1554.09 C 1189.57 1554.05 1174.71 1554.14 1159.5 1553.16 C 1158.75 1547.15 1159.24 1540.53 1159.77 1534.54 C 1155.16 1534 1143.99 1533.53 1141.97 1529.92 C 1138.6 1523.91 1137.58 1512.14 1139.39 1505.71 L 1141.52 1504.87 C 1144.08 1494.54 1126.63 1351.6 1124.68 1332.02 C 1124.02 1325.41 1118.41 1314.17 1118.1 1300.58 C 1117.25 1263.33 1122.36 1229.3 1127.67 1192.62 C 1133.5 1152.16 1140.25 1111.84 1147.93 1071.7 z"/>
<path transform="translate(0,0)" fill="rgb(51,78,97)" d="M 1159.77 1534.54 C 1155.16 1534 1143.99 1533.53 1141.97 1529.92 C 1138.6 1523.91 1137.58 1512.14 1139.39 1505.71 L 1141.52 1504.87 C 1159.47 1511.57 1220.35 1508.7 1223.16 1510.16 L 1223.77 1511.8 C 1221.95 1519.1 1218.65 1527 1215.05 1533.6 C 1210.66 1534.51 1208.37 1534.23 1205.39 1536.91 C 1203.9 1541.91 1205.12 1544.22 1204.3 1549.26 C 1204.41 1550.48 1204.56 1553.02 1204.79 1554.09 C 1189.57 1554.05 1174.71 1554.14 1159.5 1553.16 C 1158.75 1547.15 1159.24 1540.53 1159.77 1534.54 z"/>
<path transform="translate(0,0)" fill="rgb(200,99,83)" d="M 1159.77 1534.54 C 1176.56 1535.95 1187.01 1536.46 1204.01 1535.63 C 1204.11 1540.14 1204.26 1544.76 1204.3 1549.26 C 1204.41 1550.48 1204.56 1553.02 1204.79 1554.09 C 1189.57 1554.05 1174.71 1554.14 1159.5 1553.16 C 1158.75 1547.15 1159.24 1540.53 1159.77 1534.54 z"/>
<path transform="translate(0,0)" fill="rgb(51,78,97)" d="M 1189.26 1324.29 C 1191.78 1324.49 1191.8 1324.27 1193.78 1325.76 C 1205.37 1348.37 1212.48 1461.47 1205.19 1488.42 C 1202.82 1487.88 1202.94 1487.81 1200.94 1486.36 C 1199.74 1482.77 1201.45 1469.63 1201.63 1464.94 C 1202.32 1448.84 1202.25 1432.72 1201.4 1416.62 C 1200.47 1400.33 1198.82 1385.84 1196.67 1369.86 C 1195.34 1359.97 1188.74 1331.9 1189.26 1324.29 z"/>
<path transform="translate(0,0)" fill="rgb(211,228,230)" d="M 1123.09 1323.78 C 1128.66 1325.2 1136.07 1330.08 1144.13 1329.48 C 1146.47 1329.31 1148.43 1329.73 1150.66 1330.36 C 1141.39 1334.34 1129.87 1330.94 1123.09 1323.78 z"/>
<path transform="translate(0,0)" fill="rgb(226,101,94)" d="M 1621.36 230.21 C 1624.85 229.955 1628.36 230.045 1631.83 230.478 C 1637.67 231.256 1645.75 233.735 1650.57 236.855 C 1702.53 270.475 1663.98 307.084 1632.29 334.787 C 1612.27 352.285 1594.72 365.088 1574.32 379.708 C 1575.78 380.385 1577.19 381.127 1578.59 381.929 C 1592.77 390.042 1625.65 416.543 1629.6 432.744 C 1630.91 438.084 1629.31 442.996 1626.48 447.552 C 1601.15 488.32 1438.72 557.394 1387.8 569.752 C 1355.59 572.448 1376.14 538.127 1385.39 524.951 C 1413.81 484.477 1486.37 444.448 1534.03 434.235 C 1508.08 428.53 1476.17 420.26 1451.37 409.941 C 1447.51 408.335 1443.7 405.382 1442.52 401.071 C 1440.59 393.96 1444.77 385.98 1447.95 380.062 C 1468.06 342.645 1585.13 240.242 1621.36 230.21 z"/>
<path transform="translate(0,0)" fill="rgb(226,101,94)" d="M 259.82 633.237 C 304.332 630.352 424.421 649.43 465.068 677.329 C 467.735 679.16 471.679 685.535 471.042 688.257 C 467.194 704.701 427.843 740.28 416.373 751.54 C 441.682 743.099 467.676 742.409 494.92 742.716 C 530.265 743.069 566.365 745.34 593.207 771.492 C 601.324 779.4 599.373 784.181 590.826 789.738 C 586.73 791.293 582.526 792.549 578.247 793.497 C 532.717 803.87 383.995 825.449 347.864 801.618 C 344.023 799.085 341.216 796.18 340.497 791.524 C 338.13 776.21 351.516 740.592 360.047 728.179 C 326.909 724.449 293.394 721.154 261.657 710.695 C 243.292 704.638 228.688 692.722 231.492 671.393 C 233.855 653.424 243.405 640.661 259.82 633.237 z"/>
<path transform="translate(0,0)" fill="rgb(226,101,94)" d="M 869.034 89.1227 C 877.213 88.6039 884.673 88.6605 891.252 94.1734 C 912.802 112.232 918.875 177.625 922.387 204.328 C 933.515 195.861 962.097 185.007 976.225 186.105 C 980.098 186.406 983.834 187.727 986.212 190.954 C 1008.97 221.84 992.368 357.407 984.884 398.255 C 983.824 404.04 981.739 415.409 976.399 418.594 C 974.84 419.524 972.619 419.816 970.841 419.317 C 962.655 417.022 956.222 404.196 951.978 397.301 C 937.843 370.163 937.93 344.281 937.514 314.337 C 937.223 293.349 937.816 275.649 943.925 255.274 C 932.892 267.275 906.241 300.124 891.97 305.312 C 889.436 306.233 887.082 306.046 884.719 304.763 C 872.667 298.22 864.004 268.956 860.027 255.855 C 852.03 229.511 827.54 130.207 840.176 108.014 C 846.282 97.2902 857.568 91.9646 869.034 89.1227 z"/>
<path transform="translate(0,0)" fill="rgb(226,101,94)" d="M 1476.14 977.426 C 1478.59 977.234 1481.04 977.166 1483.49 977.22 C 1512.36 978.035 1620.23 996.54 1644.8 1019.9 C 1646.58 1021.59 1648.96 1026.16 1648.48 1028.93 C 1646.39 1040.97 1630.43 1058.72 1621.64 1066.06 C 1638.76 1073 1655.85 1081.23 1671.75 1090.15 C 1687.57 1099.01 1708.12 1113.89 1693.96 1133.97 C 1687.13 1143.66 1680.78 1146.75 1669.63 1149.02 L 1668.43 1148.81 C 1646.46 1144.92 1532.37 1092.57 1537.83 1067.82 C 1543.72 1058.7 1577.85 1043.97 1589.03 1039.13 C 1560.28 1038.65 1504.4 1023.64 1483.84 1002.28 C 1478.92 997.172 1471.29 989.908 1471.27 982.497 C 1473.14 978.631 1472.21 979.955 1476.14 977.426 z"/>
<path transform="translate(0,0)" fill="rgb(184,81,74)" d="M 834.352 818.94 C 842.319 816.305 865.77 811.861 874.819 809.873 C 878.544 847.5 882.213 883.977 880.463 921.741 C 880.269 925.914 886.827 939.615 886.448 945.31 C 890.964 977.856 897.16 1016.24 895.064 1048.83 C 912.228 1054.48 909.991 1058.06 922.466 1068.43 C 921.719 1072.62 921.112 1079.03 918.832 1082.26 L 917.159 1082.36 C 912.186 1077.81 911.122 1072.93 906.657 1070.33 C 905.491 1074.89 905.395 1081.67 907.433 1086.04 L 909.266 1087.15 C 911.059 1086.36 912.832 1085.53 914.582 1084.66 C 916.707 1089.07 914.264 1096.7 910.499 1100.07 C 908.011 1100.64 907.934 1100.87 905.496 1100.35 C 895.29 1109.44 887.872 1104.56 876.306 1100.69 C 868.414 1085.99 863.396 1072.85 870.585 1056.77 C 848.025 1029.33 837.458 988.92 837.717 953.675 C 826.007 941.176 830.297 936.431 827.283 921.109 C 825.068 909.848 821.929 896.94 818.679 885.878 C 821.621 875.972 821.811 858.593 824.177 847.729 C 826.567 836.755 830.835 829.39 834.352 818.94 z"/>
<path transform="translate(0,0)" fill="rgb(226,101,94)" d="M 876.306 1100.69 C 881.146 1092.72 881.115 1076.64 888.339 1073.72 C 890.874 1076.59 891.388 1077.74 893.271 1081.14 L 893.513 1080.28 C 893.883 1079 894.266 1077.91 894.707 1076.66 L 896.005 1076.01 C 900.012 1079.07 903.825 1094.71 905.496 1100.35 C 895.29 1109.44 887.872 1104.56 876.306 1100.69 z"/>
<path transform="translate(0,0)" fill="rgb(200,99,83)" d="M 885.087 1080.72 C 886.789 1085.03 889.479 1091.27 888.643 1095.77 L 887.458 1095.45 C 886.148 1089.81 885.725 1086.48 885.087 1080.72 z"/>
<path transform="translate(0,0)" fill="rgb(240,126,101)" d="M 1097.22 582.949 C 1091.36 577.724 1080.25 577.49 1078.34 565.665 C 1077.43 560.078 1085.36 557.047 1089.36 555.103 C 1089.6 546.098 1088.38 532.298 1095.93 526.328 C 1111.92 513.687 1137.09 531.404 1149.69 539.521 L 1150.7 537.851 C 1151.7 538.301 1152.69 538.771 1153.67 539.262 C 1154.78 536.689 1154.92 534.828 1156.81 534.018 C 1157.02 536.576 1156.22 538.435 1155.49 540.907 C 1161.92 542.834 1168.62 531.919 1177.75 542.042 C 1191.77 557.591 1181.65 572.323 1183.36 592.649 C 1188.56 600.949 1189.42 606.078 1182.99 614.05 C 1178.68 617.197 1176.36 618.454 1175.52 623.919 L 1174.7 625.428 L 1172.83 644.174 C 1165.88 655.528 1141.55 670.146 1128.08 670.331 L 1127.29 670.202 C 1114.97 664.856 1111.58 643.058 1103.59 632.328 C 1100.62 628.346 1099.96 622.42 1099.75 617.457 C 1098.71 603.641 1095.9 597.464 1097.22 582.949 z M 1144.3 639.554 C 1138.72 631.494 1120.24 627.203 1116.84 637.017 C 1116.99 637.695 1117.53 640.235 1117.73 640.719 C 1127.48 635.293 1134.32 636.588 1144.3 639.554 z M 1147.96 647.189 C 1139.66 644.295 1131.18 643.807 1124.48 650.65 C 1131.77 649.272 1142.43 649.921 1147.96 647.189 z"/>
<path transform="translate(0,0)" fill="rgb(44,68,64)" d="M 1097.22 582.949 C 1091.36 577.724 1080.25 577.49 1078.34 565.665 C 1077.43 560.078 1085.36 557.047 1089.36 555.103 C 1089.6 546.098 1088.38 532.298 1095.93 526.328 C 1111.92 513.687 1137.09 531.404 1149.69 539.521 L 1150.7 537.851 C 1151.7 538.301 1152.69 538.771 1153.67 539.262 C 1154.78 536.689 1154.92 534.828 1156.81 534.018 C 1157.02 536.576 1156.22 538.435 1155.49 540.907 C 1161.92 542.834 1168.62 531.919 1177.75 542.042 C 1191.77 557.591 1181.65 572.323 1183.36 592.649 C 1179.07 592.748 1177.81 592.368 1174.5 594.701 C 1171.61 600.398 1177.21 614.349 1171.99 618.678 L 1169.66 617.256 C 1167.03 603.164 1168.19 608.765 1163.27 595.234 C 1158.96 590.242 1156.41 577.214 1149.73 573.502 C 1143.31 569.937 1133.64 574.325 1127.14 576.631 C 1120.08 579.546 1114.96 581.336 1107.29 582.31 C 1105.02 582.599 1098.67 582.373 1097.22 582.949 z"/>
<path transform="translate(0,0)" fill="rgb(226,101,94)" d="M 1127.14 576.631 C 1154.29 555.557 1160.75 563.063 1163.27 595.234 C 1158.96 590.242 1156.41 577.214 1149.73 573.502 C 1143.31 569.937 1133.64 574.325 1127.14 576.631 z"/>
<path transform="translate(0,0)" fill="rgb(237,245,244)" d="M 1103.14 524.238 C 1114 523.387 1120.14 524.482 1129.94 529.59 C 1128.57 529.672 1118.43 527.073 1113.1 526.812 L 1111.75 526.753 C 1110.24 526.949 1108.73 527.186 1107.23 527.464 C 1099.65 528.854 1096.59 531.578 1092.54 537.471 L 1091.77 538.605 L 1091.15 538.412 C 1091.64 530.716 1097.01 527.45 1103.14 524.238 z"/>
<path transform="translate(0,0)" fill="rgb(71,95,92)" d="M 1111.76 537.323 L 1112.61 537.35 C 1122.73 537.762 1133.84 539.414 1140.96 547.178 C 1141.68 547.304 1110.87 536.8 1111.76 537.323 z"/>
<path transform="translate(0,0)" fill="rgb(71,95,92)" d="M 1116.69 564.16 L 1117.44 564.619 C 1113.93 572.088 1100.42 568.88 1094.23 566.987 C 1093.74 566.319 1093.99 566.779 1093.84 565.47 C 1103.13 566.576 1108.47 568.334 1116.69 564.16 z"/>
<path transform="translate(0,0)" fill="rgb(200,99,83)" d="M 1127.14 576.631 C 1133.64 574.325 1143.31 569.937 1149.73 573.502 C 1156.41 577.214 1158.96 590.242 1163.27 595.234 C 1168.19 608.765 1167.03 603.164 1169.66 617.256 L 1171.99 618.678 C 1177.21 614.349 1171.61 600.398 1174.5 594.701 C 1177.81 592.368 1179.07 592.748 1183.36 592.649 C 1188.56 600.949 1189.42 606.078 1182.99 614.05 C 1178.68 617.197 1176.36 618.454 1175.52 623.919 L 1174.7 625.428 C 1173.82 623.318 1174.19 621.78 1174.11 619.45 C 1171.42 620.115 1171.22 620.379 1168.48 619.699 C 1165.09 615.117 1169 612.759 1165.44 606.303 C 1161.64 599.414 1156.34 580.391 1150.34 576.055 C 1140.98 569.293 1125.39 582.142 1117.14 585.739 C 1114.95 586.689 1102 588.57 1098.85 589.055 C 1099.36 598.006 1101.7 609.109 1099.75 617.457 C 1098.71 603.641 1095.9 597.464 1097.22 582.949 C 1098.67 582.373 1105.02 582.599 1107.29 582.31 C 1114.96 581.336 1120.08 579.546 1127.14 576.631 z"/>
<path transform="translate(0,0)" fill="rgb(226,101,94)" d="M 1118.76 600.351 C 1128.25 603.766 1130.73 620.422 1124.24 628.529 C 1120.06 629.409 1120.87 629.936 1117.8 628.456 C 1116.11 625.23 1118.89 607.773 1118.76 600.351 z"/>
<path transform="translate(0,0)" fill="rgb(184,81,74)" d="M 1117.73 640.719 C 1127.48 635.293 1134.32 636.588 1144.3 639.554 C 1146.49 642.828 1147.19 643.455 1147.96 647.189 C 1139.66 644.295 1131.18 643.807 1124.48 650.65 L 1117.73 640.719 z"/>
<path transform="translate(0,0)" fill="rgb(53,50,45)" d="M 1143.2 583.626 C 1144.81 583.761 1143.97 583.515 1145.63 584.652 C 1144.16 589.391 1139.57 593.832 1136.04 597.296 C 1133.47 595.591 1133.16 595.984 1132.02 593.588 C 1133.79 589.695 1139.26 586.641 1143.2 583.626 z"/>
<path transform="translate(0,0)" fill="rgb(8,8,11)" d="M 1135.56 597.244 C 1143.54 598.685 1142.76 604.843 1140.64 610.77 L 1137.09 609.913 C 1134.84 605.308 1134.09 602.071 1135.56 597.244 z"/>
<path transform="translate(0,0)" fill="rgb(200,99,83)" d="M 1107.47 624.453 C 1110.51 625.198 1110.3 625.156 1112.7 627.186 C 1113.09 630.503 1113.29 628.841 1111.39 632.2 C 1108.46 631.231 1108.14 631.297 1105.61 629.389 C 1105.33 626.071 1105.04 627.738 1107.47 624.453 z"/>
<path transform="translate(0,0)" fill="rgb(44,68,64)" d="M 721.551 582.305 C 746.239 548.462 752.223 552.346 789.37 562.583 C 812.736 569.022 829.971 588.372 828.587 612.592 C 826.852 606.129 824.985 598.361 822.738 592.166 L 821.998 592.563 L 822.309 593.462 C 826.485 605.915 825.061 636.634 813.309 643.976 C 810.542 645.462 806.331 653.308 804.91 656.304 L 802.717 658.204 C 800.614 659.721 798.489 661.209 796.344 662.666 C 780.034 663.771 771.062 655.071 758.38 645.328 C 757.85 644.464 754.584 640.83 753.727 639.848 C 754.426 646.03 755.006 649.489 753.333 655.715 C 748.948 657.452 748.582 658.514 746.106 662.635 C 746.541 664.878 746.523 663.72 745.427 666.148 L 745.968 665.471 L 745.528 666.224 L 744.988 665.901 L 745.626 665.569 C 745.861 660.935 745.978 657.974 745.275 653.298 C 738.255 636.039 726.024 638.354 715.531 618.272 C 715.701 615.313 715.546 612.849 716.846 610.23 L 717.99 611.293 C 718.732 610.608 721.511 589.604 721.76 586.315 L 721.551 582.305 z M 801.367 638.163 C 792.743 637.983 788.218 638.09 780.898 643.334 C 788.596 655.113 794.516 649.061 801.654 640.91 L 801.367 638.163 z"/>
<path transform="translate(0,0)" fill="url(#Gradient1)" d="M 793.406 578.649 C 818.144 591.795 810.687 603.72 815.216 626.101 C 815.068 630.349 813.194 642.795 813.309 643.976 C 810.542 645.462 806.331 653.308 804.91 656.304 L 802.717 658.204 C 800.614 659.721 798.489 661.209 796.344 662.666 C 780.034 663.771 771.062 655.071 758.38 645.328 C 757.85 644.464 754.584 640.83 753.727 639.848 C 752.805 637.804 753.306 638.456 751.46 637.144 C 747.09 636.788 745.653 636.689 741.465 635.402 L 740.582 635.121 C 740.709 633.093 742.19 631.076 743.494 629.536 C 753.504 617.706 752.04 605.715 762.53 594.926 C 774.105 589.996 786.021 592.848 793.406 578.649 z M 801.367 638.163 C 792.743 637.983 788.218 638.09 780.898 643.334 C 788.596 655.113 794.516 649.061 801.654 640.91 L 801.367 638.163 z"/>
<path transform="translate(0,0)" fill="rgb(240,126,101)" d="M 799.139 628.567 C 802.324 621.975 809.691 624.755 815.216 626.101 C 815.068 630.349 813.194 642.795 813.309 643.976 C 810.542 645.462 806.331 653.308 804.91 656.304 L 802.717 658.204 L 802.019 657.203 C 796.243 654.593 778.131 664.758 780.898 643.334 C 788.596 655.113 794.516 649.061 801.654 640.91 L 801.367 638.163 C 800.087 635.946 800.19 636.099 797.875 634.975 C 798.806 632.525 798.789 631.173 799.139 628.567 z"/>
<path transform="translate(0,0)" fill="rgb(226,101,94)" d="M 797.875 634.975 C 789.792 631.989 785.781 622.949 791.351 616.436 L 793.211 618.428 L 793.444 619.461 C 794.747 625.058 794.651 625.754 799.139 628.567 C 798.789 631.173 798.806 632.525 797.875 634.975 z"/>
<path transform="translate(0,0)" fill="rgb(200,99,83)" d="M 767.122 629.983 C 771.236 630.152 772.145 629.895 775.555 631.881 C 777.143 635.377 776.834 633.901 775.977 638.117 C 771.941 638.206 769.585 638.556 766.546 636.071 C 765.76 632.533 765.909 633.796 767.122 629.983 z"/>
<path transform="translate(0,0)" fill="rgb(53,50,45)" d="M 768.555 601.668 C 774.09 601.782 779.097 603.988 783.5 607.292 L 783.63 609.612 C 781.125 610.776 781.306 610.708 778.534 610.698 C 774.293 608.884 771.712 605.217 768.555 601.668 z"/>
<path transform="translate(0,0)" fill="rgb(36,54,51)" d="M 740.582 635.121 L 741.465 635.402 C 745.653 636.689 747.09 636.788 751.46 637.144 C 753.306 638.456 752.805 637.804 753.727 639.848 C 754.426 646.03 755.006 649.489 753.333 655.715 C 748.948 657.452 748.582 658.514 746.106 662.635 C 746.541 664.878 746.523 663.72 745.427 666.148 L 745.968 665.471 L 745.528 666.224 L 744.988 665.901 L 745.626 665.569 C 745.861 660.935 745.978 657.974 745.275 653.298 C 746.805 649.704 747.093 649.198 747.652 645.399 C 746.744 640.804 743.9 638.625 740.582 635.121 z"/>
<path transform="translate(0,0)" fill="rgb(116,92,79)" d="M 762.53 594.926 C 765.053 588.104 787.231 577.785 793.406 578.649 C 786.021 592.848 774.105 589.996 762.53 594.926 z"/>
<path transform="translate(0,0)" fill="rgb(36,54,51)" d="M 798.894 575.536 C 809.157 576.857 818.666 593.769 818.468 603.454 C 815.705 601.656 815.084 597.175 813.069 593.746 C 808.9 586.653 804.302 581.632 798.894 575.536 z"/>
<path transform="translate(0,0)" fill="rgb(36,54,51)" d="M 730.292 599.664 C 731.344 603.493 728.805 614.314 731.915 619.224 C 732.729 620.511 733.179 623.642 733.392 625.23 C 726.534 619.032 727.105 607.563 730.292 599.664 z"/>
<path transform="translate(0,0)" fill="rgb(71,95,92)" d="M 780.119 571.975 L 780.874 572.864 C 779.466 575.415 772.603 579.351 769.771 581.203 L 768.882 579.644 C 771.71 576.417 776.297 574.196 780.119 571.975 z"/>
<path transform="translate(0,0)" fill="rgb(71,95,92)" d="M 742.414 600.668 C 743.584 604.509 739.426 611.313 737.528 615.348 C 736.113 610.672 739.981 604.581 742.414 600.668 z"/>
<path transform="translate(0,0)" fill="rgb(226,101,94)" d="M 1641.55 693.445 L 1644.06 693.39 C 1657.84 693.113 1701.39 691.604 1707.65 701.821 C 1735.5 747.318 1660.5 737.158 1645.35 736.232 C 1646.84 742.743 1651.88 770.333 1643.63 773.384 C 1626.05 779.886 1596.44 770.384 1578.74 765.062 C 1564.38 760.369 1549.31 755.344 1535.26 749.762 C 1530 747.671 1522.07 744.457 1524.1 737.951 C 1543.12 718.322 1593.12 731.688 1614.28 741.439 C 1585.06 697.205 1588.42 696.63 1641.55 693.445 z"/>
<path transform="translate(0,0)" fill="rgb(226,101,94)" d="M 542.092 1010.14 C 545.901 1010.13 546.486 1010.03 548.764 1011.99 C 553.465 1036.72 497.354 1061.64 479.69 1067.02 C 487.889 1068.75 514.578 1073.5 517.537 1081.79 C 517.246 1099.05 455.563 1147.69 438.38 1152.15 C 406.954 1148.3 414.307 1122.84 433.96 1109.13 C 442.886 1102.9 450.71 1096.2 460.226 1089.95 C 453.534 1084.93 440.963 1076.03 437.762 1067.98 C 436.915 1065.85 437.769 1062.34 439.021 1060.63 C 453.472 1040.84 520.565 1015.47 542.092 1010.14 z"/>
<path transform="translate(0,0)" fill="rgb(12,70,118)" d="M 1159.5 1553.16 C 1174.71 1554.14 1189.57 1554.05 1204.79 1554.09 C 1208.55 1563.7 1206.8 1571.82 1211.94 1581.84 C 1215.77 1589.33 1212.44 1605.51 1211.15 1614.18 C 1213.77 1616.69 1214.66 1620.76 1213.84 1624.25 C 1212.78 1625.43 1211.62 1627.09 1209.78 1627.17 C 1199.43 1627.61 1187.47 1627.34 1177.11 1627.55 C 1151.16 1627.61 1124.48 1631.36 1098.61 1630.41 C 1078.63 1629.68 1075.82 1624.15 1073.76 1606.65 C 1084.17 1596.02 1104.49 1601.31 1117.01 1592.36 C 1117.67 1591.39 1118.08 1591.17 1118.99 1590.38 L 1121.77 1591.46 C 1124.57 1590.23 1125.32 1589.33 1127.55 1587.32 C 1127.02 1585.99 1127.2 1586.82 1127.44 1584.79 L 1130.26 1583.11 C 1135.19 1580.44 1136.65 1581.23 1140.3 1579 L 1139.7 1577.53 C 1140.45 1573.05 1140.34 1578.25 1143.32 1575.19 C 1147.13 1571.27 1153.79 1565.41 1157.12 1561.61 C 1156.96 1558.38 1158.24 1556.18 1159.5 1553.16 z"/>
<path transform="translate(0,0)" fill="rgb(211,228,230)" d="M 1159.5 1553.16 C 1174.71 1554.14 1189.57 1554.05 1204.79 1554.09 C 1208.55 1563.7 1206.8 1571.82 1211.94 1581.84 C 1215.77 1589.33 1212.44 1605.51 1211.15 1614.18 C 1204.01 1612.78 1200 1612.86 1192.66 1612.78 L 1180.63 1613.33 C 1172.94 1604.79 1156.41 1588.22 1147.08 1582.36 C 1144.18 1580.93 1143.2 1581.01 1140.3 1579 L 1139.7 1577.53 C 1140.45 1573.05 1140.34 1578.25 1143.32 1575.19 C 1147.13 1571.27 1153.79 1565.41 1157.12 1561.61 C 1156.96 1558.38 1158.24 1556.18 1159.5 1553.16 z"/>
<path transform="translate(0,0)" fill="rgb(250,190,75)" d="M 1164.94 1579.17 C 1180.4 1581.36 1183.98 1590.11 1200.95 1591.22 C 1204.62 1585.47 1205.7 1584.89 1211.94 1581.84 C 1215.77 1589.33 1212.44 1605.51 1211.15 1614.18 C 1204.01 1612.78 1200 1612.86 1192.66 1612.78 L 1180.63 1613.33 C 1172.94 1604.79 1156.41 1588.22 1147.08 1582.36 C 1153.9 1580.69 1157.93 1580.04 1164.94 1579.17 z"/>
<path transform="translate(0,0)" fill="rgb(113,183,173)" d="M 1211.94 1581.84 C 1215.77 1589.33 1212.44 1605.51 1211.15 1614.18 C 1204.01 1612.78 1200 1612.86 1192.66 1612.78 C 1196.48 1612.42 1196.25 1613.02 1198.96 1611.12 C 1200.25 1606.43 1199.69 1598.44 1200.95 1591.22 C 1204.62 1585.47 1205.7 1584.89 1211.94 1581.84 z"/>
<path transform="translate(0,0)" fill="rgb(123,180,208)" d="M 1157.12 1561.61 C 1164.59 1563.91 1173.09 1572.47 1164.94 1579.17 C 1157.93 1580.04 1153.9 1580.69 1147.08 1582.36 C 1144.18 1580.93 1143.2 1581.01 1140.3 1579 L 1139.7 1577.53 C 1140.45 1573.05 1140.34 1578.25 1143.32 1575.19 C 1147.13 1571.27 1153.79 1565.41 1157.12 1561.61 z"/>
<path transform="translate(0,0)" fill="rgb(236,161,46)" d="M 1140.3 1579 C 1143.2 1581.01 1144.18 1580.93 1147.08 1582.36 C 1156.41 1588.22 1172.94 1604.79 1180.63 1613.33 C 1160.93 1615.26 1141.49 1616.27 1121.92 1618.12 C 1120 1612.22 1120.69 1605.12 1120.86 1598.79 C 1120.24 1596.58 1118.4 1594.39 1117.01 1592.36 C 1117.67 1591.39 1118.08 1591.17 1118.99 1590.38 L 1121.77 1591.46 C 1124.57 1590.23 1125.32 1589.33 1127.55 1587.32 C 1127.02 1585.99 1127.2 1586.82 1127.44 1584.79 L 1130.26 1583.11 C 1135.19 1580.44 1136.65 1581.23 1140.3 1579 z"/>
<path transform="translate(0,0)" fill="rgb(55,42,21)" d="M 1130.26 1583.11 C 1134.19 1588.07 1135.33 1589.12 1136.9 1595.33 L 1136.58 1597.01 C 1130.45 1593.21 1133.28 1591.12 1127.55 1587.32 C 1127.02 1585.99 1127.2 1586.82 1127.44 1584.79 L 1130.26 1583.11 z"/>
<path transform="translate(0,0)" fill="rgb(53,50,45)" d="M 1117.01 1592.36 C 1117.67 1591.39 1118.08 1591.17 1118.99 1590.38 L 1121.77 1591.46 C 1123.7 1595.26 1126.42 1599.98 1124.1 1604.21 L 1122.5 1603.54 C 1121.68 1601.45 1121.44 1600.97 1120.86 1598.79 C 1120.24 1596.58 1118.4 1594.39 1117.01 1592.36 z"/>
<path transform="translate(0,0)" fill="rgb(250,190,75)" d="M 1117.01 1592.36 C 1118.4 1594.39 1120.24 1596.58 1120.86 1598.79 C 1120.69 1605.12 1120 1612.22 1121.92 1618.12 L 1116.01 1618.49 C 1099.37 1619.44 1086.53 1618.05 1073.76 1606.65 C 1084.17 1596.02 1104.49 1601.31 1117.01 1592.36 z"/>
<path transform="translate(0,0)" fill="rgb(226,101,94)" d="M 523.243 300.109 C 525.524 299.98 529.786 299.656 531.853 300.724 C 546.689 308.391 600.592 358.417 592.992 374.84 C 586.064 379.764 567.802 382.462 558.819 384.277 C 560.595 384.932 562.36 385.62 564.111 386.339 C 579.987 392.715 625.15 421.562 615.062 443.45 C 592.389 439.294 539.82 409.182 523.321 390.908 C 512.862 379.324 533.528 366.725 543.14 361.428 C 526.671 346.288 487.029 316.682 523.243 300.109 z"/>
<path transform="translate(0,0)" fill="rgb(236,161,46)" d="M 1351.75 1549.86 C 1367.29 1551.67 1381.51 1551.42 1397.05 1550.3 C 1398.39 1550.2 1397.95 1550.23 1399.44 1550.65 C 1398.63 1559.52 1398.03 1568.4 1397.63 1577.3 C 1400.84 1589.25 1401.53 1594.02 1401.05 1606.3 C 1401.4 1613.56 1402.03 1622.01 1401.88 1629.18 C 1378.45 1634.91 1353.61 1642.22 1329.44 1641.01 C 1311.63 1640.12 1300.69 1640.68 1299.38 1620.84 C 1301.02 1612.7 1311.5 1605.01 1318 1599.42 C 1321.29 1597.05 1324.63 1594.75 1328.04 1592.55 L 1330.4 1589.94 L 1332.12 1587.45 L 1337.09 1582.19 C 1338.14 1576.55 1339.04 1576.73 1343.14 1573.92 C 1340.8 1570.1 1339.76 1569 1342.6 1565.28 C 1346.28 1563.86 1346.75 1564.16 1350.83 1564.76 L 1351.07 1564.2 C 1350.79 1557.94 1350.6 1556.07 1351.75 1549.86 z"/>
<path transform="translate(0,0)" fill="rgb(12,70,118)" d="M 1318 1599.42 C 1322.93 1602.87 1325.04 1602.4 1331.15 1601.89 C 1334.02 1603.17 1339.04 1605.22 1341.47 1606.88 C 1342.04 1614.98 1343.68 1617.95 1347.65 1624.99 C 1356.65 1624.92 1379.67 1618.21 1389.98 1616.02 C 1395.72 1613.03 1397.16 1611.49 1401.05 1606.3 C 1401.4 1613.56 1402.03 1622.01 1401.88 1629.18 C 1378.45 1634.91 1353.61 1642.22 1329.44 1641.01 C 1311.63 1640.12 1300.69 1640.68 1299.38 1620.84 C 1301.02 1612.7 1311.5 1605.01 1318 1599.42 z"/>
<path transform="translate(0,0)" fill="rgb(250,190,75)" d="M 1318 1599.42 C 1322.93 1602.87 1325.04 1602.4 1331.15 1601.89 C 1334.02 1603.17 1339.04 1605.22 1341.47 1606.88 C 1342.04 1614.98 1343.68 1617.95 1347.65 1624.99 C 1330.42 1626.43 1315.13 1628.71 1299.38 1620.84 C 1301.02 1612.7 1311.5 1605.01 1318 1599.42 z"/>
<path transform="translate(0,0)" fill="rgb(211,228,230)" d="M 1351.75 1549.86 C 1367.29 1551.67 1381.51 1551.42 1397.05 1550.3 C 1398.39 1550.2 1397.95 1550.23 1399.44 1550.65 C 1398.63 1559.52 1398.03 1568.4 1397.63 1577.3 L 1396.85 1578.55 L 1395.53 1578.38 C 1388.12 1577.47 1384.75 1578.82 1378.48 1583.73 C 1376.27 1585.5 1374.09 1587.31 1371.95 1589.16 L 1369.73 1589.38 L 1365.83 1589.92 L 1365.19 1590.03 C 1356.48 1584.2 1347.53 1581.49 1337.09 1582.19 C 1338.14 1576.55 1339.04 1576.73 1343.14 1573.92 C 1340.8 1570.1 1339.76 1569 1342.6 1565.28 C 1346.28 1563.86 1346.75 1564.16 1350.83 1564.76 L 1351.07 1564.2 C 1350.79 1557.94 1350.6 1556.07 1351.75 1549.86 z"/>
<path transform="translate(0,0)" fill="rgb(123,180,208)" d="M 1351.07 1564.2 C 1360.88 1562.33 1371.26 1561.88 1373.78 1574.12 L 1374.44 1577.95 C 1374.46 1582.63 1373.43 1584.76 1371.95 1589.16 L 1369.73 1589.38 L 1365.83 1589.92 L 1365.19 1590.03 C 1356.48 1584.2 1347.53 1581.49 1337.09 1582.19 C 1338.14 1576.55 1339.04 1576.73 1343.14 1573.92 C 1340.8 1570.1 1339.76 1569 1342.6 1565.28 C 1346.28 1563.86 1346.75 1564.16 1350.83 1564.76 L 1351.07 1564.2 z"/>
<path transform="translate(0,0)" fill="rgb(16,31,44)" d="M 1359.05 1580.27 C 1357.69 1581.68 1358.54 1581.23 1356.4 1581.45 L 1355.4 1579.18 C 1356.96 1567.24 1365.84 1568.75 1373.78 1574.12 L 1374.44 1577.95 C 1369.69 1580.84 1367.13 1582.59 1361.62 1581.76 L 1359.76 1580.19 L 1359.05 1580.27 z"/>
<path transform="translate(0,0)" fill="rgb(123,180,208)" d="M 1359.05 1580.27 C 1359.68 1575.81 1358.85 1577.15 1361.69 1574.34 C 1365.81 1573.79 1363.87 1573.5 1367.69 1575.35 L 1368.21 1576.75 C 1365.67 1577.93 1361.51 1578.88 1359.76 1580.19 L 1359.05 1580.27 z"/>
<path transform="translate(0,0)" fill="rgb(16,31,44)" d="M 1343.14 1573.92 C 1340.8 1570.1 1339.76 1569 1342.6 1565.28 C 1346.28 1563.86 1346.75 1564.16 1350.83 1564.76 C 1354.19 1569.22 1357.16 1573.23 1351.28 1577.1 C 1346.75 1577.06 1347.58 1576.81 1343.14 1573.92 z"/>
<path transform="translate(0,0)" fill="rgb(250,190,75)" d="M 1397.63 1577.3 C 1400.84 1589.25 1401.53 1594.02 1401.05 1606.3 C 1397.16 1611.49 1395.72 1613.03 1389.98 1616.02 C 1381.43 1604.09 1383.74 1600.8 1369.73 1589.38 L 1371.95 1589.16 C 1374.09 1587.31 1376.27 1585.5 1378.48 1583.73 C 1384.75 1578.82 1388.12 1577.47 1395.53 1578.38 L 1396.85 1578.55 L 1397.63 1577.3 z"/>
<path transform="translate(0,0)" fill="rgb(55,42,21)" d="M 1328.04 1592.55 L 1330.4 1589.94 C 1339.18 1591.15 1360.3 1596.02 1360.57 1607.36 L 1358.54 1607.64 C 1356.5 1605.36 1353.35 1601.54 1350.98 1599.88 L 1344.4 1604.4 C 1347.88 1607.69 1349.18 1608.53 1351.22 1612.93 L 1351.15 1615.23 L 1349.52 1615.53 C 1346.9 1612.08 1345.12 1609.12 1341.47 1606.88 C 1339.04 1605.22 1334.02 1603.17 1331.15 1601.89 C 1325.04 1602.4 1322.93 1602.87 1318 1599.42 C 1321.29 1597.05 1324.63 1594.75 1328.04 1592.55 z"/>
<path transform="translate(0,0)" fill="rgb(55,42,21)" d="M 1331.15 1601.89 C 1328.26 1601.46 1327.68 1601.55 1325.02 1600.24 L 1324.75 1598.81 C 1328.3 1597.32 1329.47 1598.04 1333.46 1598.98 C 1337.12 1600.73 1340.86 1602.44 1344.4 1604.4 C 1347.88 1607.69 1349.18 1608.53 1351.22 1612.93 L 1351.15 1615.23 L 1349.52 1615.53 C 1346.9 1612.08 1345.12 1609.12 1341.47 1606.88 C 1339.04 1605.22 1334.02 1603.17 1331.15 1601.89 z"/>
<path transform="translate(0,0)" fill="rgb(236,161,46)" d="M 1328.04 1592.55 C 1331.92 1594.3 1334.39 1594.18 1338.62 1594.49 L 1333.46 1598.98 C 1329.47 1598.04 1328.3 1597.32 1324.75 1598.81 L 1325.02 1600.24 C 1327.68 1601.55 1328.26 1601.46 1331.15 1601.89 C 1325.04 1602.4 1322.93 1602.87 1318 1599.42 C 1321.29 1597.05 1324.63 1594.75 1328.04 1592.55 z"/>
<path transform="translate(0,0)" fill="rgb(250,190,75)" d="M 1338.62 1594.49 C 1342.16 1595.97 1347.77 1598.12 1350.98 1599.88 L 1344.4 1604.4 C 1340.86 1602.44 1337.12 1600.73 1333.46 1598.98 L 1338.62 1594.49 z"/>
<path transform="translate(0,0)" fill="rgb(27,44,59)" d="M 1337.09 1582.19 C 1347.53 1581.49 1356.48 1584.2 1365.19 1590.03 L 1362.41 1592.45 C 1354.01 1589.03 1345.63 1584 1336.49 1587.93 C 1335.04 1588.56 1334.06 1587.92 1332.12 1587.45 L 1337.09 1582.19 z"/>
<path transform="translate(0,0)" fill="rgb(53,50,45)" d="M 1365.19 1590.03 L 1365.83 1589.92 C 1369.5 1594.01 1370.58 1594.98 1372.7 1600.27 C 1366.81 1598.6 1367.04 1596.31 1362.41 1592.45 L 1365.19 1590.03 z"/>
<path transform="translate(0,0)" fill="rgb(44,68,64)" d="M 680.612 578.54 C 696.158 579.412 702.571 581.345 714.09 592.423 L 711.854 601.847 L 711.324 604.184 C 710.794 613.537 710.268 616.133 708.131 625.11 L 706.479 622.072 L 706.09 620.621 C 700.834 626.676 700.694 649.248 699.61 658.497 C 698.669 658.509 698.32 657.94 697.219 657.169 C 685.4 674.187 678.146 678.411 657.191 679.787 L 655.206 679.572 L 653.566 681.741 C 646.144 678.477 602.746 656.044 604.071 648.365 C 608.688 649.339 611.623 651.465 615.698 653.865 C 614.124 648.933 614.117 649.786 616.752 646.072 C 615.468 643.792 614.484 644.064 611.411 642.767 C 623.161 641.81 624.864 642.162 634.925 636.122 C 640.678 625.781 640.735 622.82 641.642 611.017 L 644.046 610.803 C 651.229 594.141 659.371 588.472 674.995 580.357 L 675.652 579.306 L 680.612 578.54 z"/>
<path transform="translate(0,0)" fill="rgb(36,54,51)" d="M 711.324 604.184 C 706.446 605.147 703.208 611.946 699.333 615.947 L 698.212 615.337 C 701.103 608.558 704.614 603.823 711.854 601.847 L 711.324 604.184 z"/>
<path transform="translate(0,0)" fill="rgb(71,95,92)" d="M 683.113 610.551 C 683.697 611.663 684.194 612.717 683.944 614.044 C 680.698 631.289 674.042 646.572 660.83 657.677 C 660.676 653.821 668.449 647.819 671.742 641.536 C 677.375 630.79 679.724 621.966 683.113 610.551 z"/>
<path transform="translate(0,0)" fill="rgb(71,95,92)" d="M 654.326 627.564 L 655.244 628.383 C 657.567 637.209 641.951 650.111 634.57 653.229 L 633.653 651.976 C 645.872 642.25 646.943 644.989 654.326 627.564 z"/>
<path transform="translate(0,0)" fill="rgb(71,95,92)" d="M 686.657 589.047 C 692.889 588.56 694.775 588.213 700.924 589.549 C 694.978 591.806 688.345 590.461 680.711 593.483 C 677.741 594.995 672.797 597.918 669.742 597.808 C 674.291 593.093 680.614 591.132 686.657 589.047 z"/>
<path transform="translate(0,0)" fill="rgb(36,54,51)" d="M 667.53 609.628 C 669.454 615.017 662.22 639.106 658.578 644.336 L 658.123 642.362 C 662.448 631.215 663.54 619.973 667.53 609.628 z"/>
<path transform="translate(0,0)" fill="rgb(226,101,94)" d="M 1248.84 196.176 C 1282.75 192.647 1270.35 232.807 1265.34 252.871 C 1285.23 251.81 1303.12 249.76 1294.13 277.479 C 1288.71 294.222 1268.67 344.623 1254.75 352.592 C 1239.37 333.211 1254.47 296.638 1265.82 278.651 C 1260.46 281.133 1234.17 295.375 1232.06 286.92 C 1226.05 262.84 1232.32 231.384 1238.63 207.567 C 1240.44 200.769 1242.95 198.976 1248.84 196.176 z"/>
<path transform="translate(0,0)" fill="rgb(113,183,173)" d="M 873.056 1557.35 C 885.685 1555.29 898.207 1552.62 910.577 1549.35 C 912.033 1552.36 913.714 1555.36 914.406 1558.61 C 921.294 1562.66 921.698 1564.5 926.884 1570.29 L 929.873 1569.57 L 930.634 1570.83 C 930.109 1571.69 929.348 1573.04 928.763 1573.8 C 933.372 1577.1 934.112 1577.16 939.8 1577.55 C 944.218 1590.66 982.233 1585.35 984.898 1596.31 C 984.962 1599.87 985.303 1606.21 982.033 1608.55 C 962.903 1622.18 929.818 1611.78 907.062 1613.79 C 901.946 1614.24 872.228 1615.17 869.373 1613 C 868.909 1608.91 869.182 1606.94 870.381 1602.87 C 870.357 1595.8 865.768 1580.47 871.443 1576.01 C 872.437 1569.58 871.061 1563.31 873.056 1557.35 z"/>
<path transform="translate(0,0)" fill="rgb(150,211,228)" d="M 873.056 1557.35 C 885.685 1555.29 898.207 1552.62 910.577 1549.35 C 912.033 1552.36 913.714 1555.36 914.406 1558.61 C 921.294 1562.66 921.698 1564.5 926.884 1570.29 L 923.528 1575.43 L 921.888 1577.81 C 916.815 1580.12 901.167 1597.03 896.515 1601.89 L 879.748 1601.74 L 870.381 1602.87 C 870.357 1595.8 865.768 1580.47 871.443 1576.01 C 872.437 1569.58 871.061 1563.31 873.056 1557.35 z"/>
<path transform="translate(0,0)" fill="rgb(51,78,97)" d="M 906.963 1573.18 C 912.205 1573.74 918.521 1574.23 923.528 1575.43 L 921.888 1577.81 C 916.815 1580.12 901.167 1597.03 896.515 1601.89 L 879.748 1601.74 L 870.381 1602.87 C 870.357 1595.8 865.768 1580.47 871.443 1576.01 C 874.157 1579.02 878.194 1583.01 882.259 1583.55 C 891.661 1582.43 896.964 1576.1 906.963 1573.18 z"/>
<path transform="translate(0,0)" fill="rgb(113,183,173)" d="M 871.443 1576.01 C 874.157 1579.02 878.194 1583.01 882.259 1583.55 L 879.912 1584.09 C 879.072 1590.21 880.845 1594.32 879.748 1601.74 L 870.381 1602.87 C 870.357 1595.8 865.768 1580.47 871.443 1576.01 z"/>
<path transform="translate(0,0)" fill="rgb(123,180,208)" d="M 914.406 1558.61 C 921.294 1562.66 921.698 1564.5 926.884 1570.29 L 923.528 1575.43 C 918.521 1574.23 912.205 1573.74 906.963 1573.18 C 905.947 1565.77 907.675 1561.83 914.406 1558.61 z"/>
<path transform="translate(0,0)" fill="rgb(236,161,46)" d="M 944.884 1604.88 C 956.196 1605.33 965.017 1606.03 975.461 1601.04 C 978.489 1599.59 982.026 1597.28 984.898 1596.31 C 984.962 1599.87 985.303 1606.21 982.033 1608.55 C 962.903 1622.18 929.818 1611.78 907.062 1613.79 C 901.946 1614.24 872.228 1615.17 869.373 1613 C 868.909 1608.91 869.182 1606.94 870.381 1602.87 L 879.748 1601.74 L 896.515 1601.89 C 909.894 1602.85 932.847 1603.15 944.884 1604.88 z"/>
<path transform="translate(0,0)" fill="rgb(51,78,97)" d="M 926.501 1576.36 L 928.763 1573.8 C 933.372 1577.1 934.112 1577.16 939.8 1577.55 C 944.218 1590.66 982.233 1585.35 984.898 1596.31 C 982.026 1597.28 978.489 1599.59 975.461 1601.04 C 965.017 1606.03 956.196 1605.33 944.884 1604.88 C 948.639 1597.97 943.499 1585.38 937.095 1583.9 C 935.71 1586.35 936.3 1585.81 934.325 1587.63 L 933.047 1586.48 L 932.897 1585.57 C 931.765 1579 931.784 1580.07 926.501 1576.36 z"/>
<path transform="translate(0,0)" fill="rgb(12,70,118)" d="M 926.884 1570.29 L 929.873 1569.57 L 930.634 1570.83 C 930.109 1571.69 929.348 1573.04 928.763 1573.8 L 926.501 1576.36 C 925.192 1580.07 925.923 1580 923.328 1581.62 C 922.064 1579.82 922.041 1579.98 921.888 1577.81 L 923.528 1575.43 L 926.884 1570.29 z"/>
<path transform="translate(0,0)" fill="rgb(113,183,173)" d="M 628.075 1561.62 C 636.906 1564.29 654.748 1564.83 663.985 1563.56 C 668.207 1566.15 667.761 1565.25 668.491 1570.74 C 669.535 1574.03 670.7 1574.01 673.975 1576.66 C 677.854 1576.67 677.669 1576.06 680.444 1577.78 C 680.76 1580.37 679.232 1582.23 677.872 1584.64 C 679.234 1589.16 680.632 1587.49 683.046 1591.85 C 685.954 1594.3 688.56 1596.68 691.341 1599.26 C 698.164 1603.77 705.293 1608.64 710.034 1615.41 C 711.382 1632.75 697.32 1632.9 683.254 1633.74 C 663.447 1634.93 642.625 1630.12 623.083 1626.58 C 622.534 1618.37 622.542 1611.78 624.214 1603.74 C 623.751 1594.48 625.155 1573.79 625.316 1563.02 L 628.075 1561.62 z"/>
<path transform="translate(0,0)" fill="rgb(236,161,46)" d="M 691.341 1599.26 C 698.164 1603.77 705.293 1608.64 710.034 1615.41 C 711.382 1632.75 697.32 1632.9 683.254 1633.74 C 663.447 1634.93 642.625 1630.12 623.083 1626.58 C 622.534 1618.37 622.542 1611.78 624.214 1603.74 C 628.569 1610.06 629.75 1611.81 636.802 1615.57 C 647.297 1617.35 660.157 1619.83 670.544 1620.87 C 673.384 1615.6 674.965 1612.22 674.901 1606.24 C 679.511 1602.22 685.344 1600.03 691.341 1599.26 z"/>
<path transform="translate(0,0)" fill="rgb(51,78,97)" d="M 691.341 1599.26 C 698.164 1603.77 705.293 1608.64 710.034 1615.41 C 696.463 1622.58 685.694 1621.51 670.544 1620.87 C 673.384 1615.6 674.965 1612.22 674.901 1606.24 C 679.511 1602.22 685.344 1600.03 691.341 1599.26 z"/>
<path transform="translate(0,0)" fill="rgb(150,211,228)" d="M 628.075 1561.62 C 636.906 1564.29 654.748 1564.83 663.985 1563.56 C 668.207 1566.15 667.761 1565.25 668.491 1570.74 C 662.615 1573.56 659.245 1570.27 652.657 1577.2 C 650.529 1582.44 651.082 1585.9 652.164 1591.46 L 653.374 1592.27 C 644.301 1599.03 640.996 1605.19 636.802 1615.57 C 629.75 1611.81 628.569 1610.06 624.214 1603.74 C 623.751 1594.48 625.155 1573.79 625.316 1563.02 L 628.075 1561.62 z"/>
<path transform="translate(0,0)" fill="rgb(51,78,97)" d="M 624.214 1603.74 C 623.751 1594.48 625.155 1573.79 625.316 1563.02 C 625.704 1568.57 626.148 1574 626.174 1579.57 C 633.459 1587.66 641.637 1588.56 652.164 1591.46 L 653.374 1592.27 C 644.301 1599.03 640.996 1605.19 636.802 1615.57 C 629.75 1611.81 628.569 1610.06 624.214 1603.74 z"/>
<path transform="translate(0,0)" fill="rgb(12,70,118)" d="M 652.164 1591.46 C 651.082 1585.9 650.529 1582.44 652.657 1577.2 C 659.245 1570.27 662.615 1573.56 668.491 1570.74 C 669.535 1574.03 670.7 1574.01 673.975 1576.66 C 677.854 1576.67 677.669 1576.06 680.444 1577.78 C 680.76 1580.37 679.232 1582.23 677.872 1584.64 C 679.234 1589.16 680.632 1587.49 683.046 1591.85 C 672.25 1596.53 672.901 1590.3 663.11 1597.43 C 659.98 1597.4 661.38 1597.91 658.932 1595.46 C 655.679 1598.72 655.78 1600.26 652.242 1600.79 C 652.49 1597.35 652.954 1597.82 655.324 1594.49 L 653.374 1592.27 L 652.164 1591.46 z"/>
<path transform="translate(0,0)" fill="rgb(123,180,208)" d="M 652.164 1591.46 C 651.082 1585.9 650.529 1582.44 652.657 1577.2 C 659.245 1570.27 662.615 1573.56 668.491 1570.74 C 669.535 1574.03 670.7 1574.01 673.975 1576.66 L 671.088 1579.1 C 665.441 1578.36 658.526 1575.84 656.453 1583.52 C 660.549 1587.58 661.173 1584.86 662.075 1588.83 C 660.43 1591.77 658.228 1592.69 655.324 1594.49 L 653.374 1592.27 L 652.164 1591.46 z"/>
<path transform="translate(0,0)" fill="rgb(123,180,208)" d="M 658.932 1595.46 C 668.498 1589.7 672.338 1587.39 683.046 1591.85 C 672.25 1596.53 672.901 1590.3 663.11 1597.43 C 659.98 1597.4 661.38 1597.91 658.932 1595.46 z"/>
<path transform="translate(0,0)" fill="rgb(12,70,118)" d="M 683.046 1591.85 C 685.954 1594.3 688.56 1596.68 691.341 1599.26 C 685.344 1600.03 679.511 1602.22 674.901 1606.24 C 673.089 1608.71 672.167 1610.59 669.377 1611.75 C 668.359 1609.22 670.988 1608.38 672.464 1603.93 L 670.381 1602.64 C 666.218 1602.74 665.301 1605.23 661.285 1605.9 L 664.566 1599.62 L 663.11 1597.43 C 672.901 1590.3 672.25 1596.53 683.046 1591.85 z"/>
<path transform="translate(0,0)" fill="rgb(226,101,94)" d="M 953.255 702.869 C 967.197 693.544 999.219 675.265 998.37 707.03 C 998.328 708.63 1005.57 714.637 1006.62 716.267 C 1016.09 730.93 1001.1 746.689 990.365 754.135 L 982.155 755.665 C 977.51 756.168 976.893 755.943 972.447 754.415 C 972.006 755.631 971.588 756.855 971.193 758.087 L 968.991 757.78 L 969.555 754.879 C 965.243 754.337 965.225 758.621 954.606 758.027 C 948.274 737.876 947.129 723.228 953.255 702.869 z"/>
<path transform="translate(0,0)" fill="rgb(200,99,83)" d="M 953.255 702.869 L 954.244 703.914 C 961.362 711.554 966.575 728.788 974.461 729.953 C 977.849 726.161 973.221 725.556 978.157 721.206 L 980.281 723.038 L 981.732 721.148 L 982.835 721.351 L 982.902 723.427 C 989.456 724.172 991.844 717.325 996.614 715.515 L 997.969 717.529 L 995.665 720.011 L 996.886 722.107 L 998.293 722.422 C 999.855 722.781 1001.02 723.097 1002.54 723.546 C 1002.19 724.031 989.51 732.165 990.42 732.236 C 982.886 731.654 974.892 742.908 975.375 750.434 C 977.361 753.943 977.85 754.802 982.155 755.665 C 977.51 756.168 976.893 755.943 972.447 754.415 C 972.006 755.631 971.588 756.855 971.193 758.087 L 968.991 757.78 L 969.555 754.879 C 965.243 754.337 965.225 758.621 954.606 758.027 C 948.274 737.876 947.129 723.228 953.255 702.869 z"/>
<path transform="translate(0,0)" fill="rgb(184,81,74)" d="M 973.929 733.293 L 974.675 734.341 C 972.541 736.561 969.056 736.252 965.284 736.764 L 964.316 735.842 C 966.126 734.115 971.185 733.746 973.929 733.293 z"/>
<path transform="translate(0,0)" fill="rgb(184,81,74)" d="M 981.732 721.148 C 983.365 716.969 987.99 700.843 988.64 699.79 C 989.441 702.087 989.301 702.841 989.368 705.26 L 994.478 706.929 L 994.827 707.833 C 992.909 707.644 991.061 707.529 989.137 707.646 C 986.845 712.14 984.915 717.442 982.835 721.351 L 981.732 721.148 z"/>
<path transform="translate(0,0)" fill="rgb(51,78,97)" fill-opacity="0.984314" d="M 926.906 1551.18 C 928.559 1552.35 928.009 1551.86 929.17 1553.58 C 928.981 1557.07 928.325 1559.64 930.247 1562.37 C 932.651 1559.18 931.49 1558.77 935.503 1556.84 C 939.025 1556.7 938.891 1556.57 941.955 1558.18 C 943.205 1561.32 942.446 1561.27 941.354 1565.4 C 945.258 1566.95 945.4 1567 948.103 1570.11 C 945.925 1573.56 945.339 1574.72 941.696 1575.98 C 938.93 1575.56 928.669 1565.54 926.252 1563.43 C 924.39 1561.81 926.167 1553.87 926.906 1551.18 z"/>
<path transform="translate(0,0)" fill="rgb(27,44,59)" d="M 1140.15 1553.32 C 1146.22 1556.18 1146.35 1565.04 1142.93 1569.96 C 1137.23 1578.18 1131.51 1573.63 1125.44 1569.32 C 1124.46 1566.42 1124.27 1566.55 1124.95 1563.64 C 1127.79 1559.97 1126.61 1560.41 1130.38 1559.02 C 1134.32 1560.1 1136.49 1563.57 1139.77 1566.8 L 1140.71 1565.7 C 1141.13 1561.15 1140.61 1557.83 1140.15 1553.32 z"/>
<path transform="translate(0,0)" fill="rgb(8,8,11)" fill-opacity="0.917647" d="M 641.642 611.017 C 641.724 609.628 641.824 608.24 641.943 606.853 C 643.986 583.301 659.061 575.792 680.612 578.54 L 675.652 579.306 L 674.995 580.357 C 654.208 580.082 644.399 590.101 644.046 610.803 L 641.642 611.017 z"/>
<path transform="translate(0,0)" fill="rgb(8,8,11)" fill-opacity="0.901961" d="M 697.219 657.169 C 698.32 657.94 698.669 658.509 699.61 658.497 C 695.654 686.722 676.538 688.847 653.566 681.741 L 655.206 679.572 L 657.191 679.787 L 656.984 680.052 L 657.398 681.065 C 678.688 688.409 695.282 681.159 697.219 657.169 z"/>
<path transform="translate(0,0)" fill="rgb(27,44,59)" fill-opacity="0.988235" d="M 1121.27 1571.51 C 1124.35 1571.63 1127.35 1572.49 1130.02 1574.01 C 1132.56 1575.46 1132.77 1576.33 1133.49 1578.58 L 1131.06 1581.89 C 1126.06 1583.37 1124.15 1583.72 1120.55 1579.61 C 1119.59 1575.74 1119.88 1575.45 1121.27 1571.51 z"/>
<path transform="translate(0,0)" fill="rgb(36,54,51)" fill-opacity="0.815686" d="M 721.551 582.305 L 721.76 586.315 C 716.63 594.825 716.866 600.555 716.846 610.23 C 715.546 612.849 715.701 615.313 715.531 618.272 C 710.766 607.319 715.266 591.886 721.551 582.305 z"/>
<path transform="translate(0,0)" fill="rgb(8,8,11)" fill-opacity="0.964706" d="M 706.479 622.072 L 708.131 625.11 C 708.16 629.66 708.5 642.817 707 646.693 C 705.411 636.789 705.545 632.082 706.479 622.072 z"/>
<path transform="translate(0,0)" fill="rgb(8,8,11)" fill-opacity="0.0352941" d="M 721.76 586.315 C 721.511 589.604 718.732 610.608 717.99 611.293 L 716.846 610.23 C 716.866 600.555 716.63 594.825 721.76 586.315 z"/>
</svg>