<svg version="1.1" xmlns="http://www.w3.org/2000/svg" style="display: block;" viewBox="0 0 2048 2048" width="2000" height="2000" preserveAspectRatio="none">
<path transform="translate(0,0)" fill="rgb(1,0,1)" d="M 863.999 448.97 C 859.021 434.062 837.203 384.275 840.035 373.944 C 843.477 369.901 846.845 368.338 851.91 366.708 C 900.41 351.095 950.79 341.843 998.974 325.096 C 1019.58 317.936 1039.4 308.823 1061.48 307.543 C 1137.66 303.682 1210.81 330.724 1284.35 346.525 C 1315.61 353.467 1401.19 366.575 1424.28 381.992 C 1427.68 387.966 1415.59 414.56 1412.75 421.717 C 1406.16 438.465 1399.45 455.167 1392.63 471.823 C 1380.87 504.065 1365.68 536.888 1353 568.863 C 1347.32 583.181 1333.86 612.093 1332 626.201 C 1337.69 643.225 1342.07 691.108 1343.04 709.807 C 1375.1 710.39 1407.84 708.911 1439.93 709.397 C 1457.28 709.659 1481.17 707.844 1497.35 712.142 C 1507.01 720.865 1510.33 726.073 1510.6 740.062 C 1510.8 750.069 1510.22 760.1 1509.86 770.103 C 1519.24 769.426 1527.5 766.589 1528.51 778.029 C 1534.02 784.11 1566.12 775.676 1568.54 782.871 C 1572.33 794.155 1570.3 834.84 1570.29 846.934 C 1570.44 883.956 1570.32 920.978 1569.93 957.997 L 1593.87 958.053 L 1593.78 981.901 L 1420.92 981.902 L 1420.84 958.642 C 1428.73 958.575 1437.33 958.327 1445.15 958.605 L 1444.99 838.499 C 1444.99 828.883 1444.25 789.135 1446.44 781.647 C 1453.04 778.789 1478.44 780.062 1486.78 780.169 L 1488.24 770.005 L 1505.82 770.007 C 1505.99 757.231 1508.56 729.102 1499.22 720.211 C 1490.12 711.557 1461.26 714.941 1447.96 714.616 C 1413.28 713.769 1377.65 715.905 1342.98 714.376 C 1344.98 807.385 1327.82 877.306 1286.6 960.167 C 1290.4 988.867 1299.49 1032.38 1305.72 1060.91 C 1393.68 1066.71 1515.88 1076.16 1576.47 1147.31 C 1655.95 1240.62 1653.77 1405.96 1653.95 1520.63 C 1654.15 1572.55 1653.71 1624.47 1652.61 1676.38 C 1651.93 1705.84 1650.25 1736.4 1649.9 1765.64 C 1669.42 1765.42 1688.94 1765.43 1708.46 1765.68 C 1715.38 1765.73 1734.12 1765.48 1740.3 1766.83 L 1740.02 1768.18 C 1726.49 1771.32 1676.86 1769.92 1659.14 1769.92 L 1490.53 1769.96 L 1015.1 1769.75 C 958.14 1769.57 901.062 1769.95 844.091 1769.85 C 835.765 1769.83 827.707 1769.08 819.574 1767.26 C 834.104 1764.87 855.481 1765.73 870.586 1765.3 C 872.123 1726.15 874.006 1687.24 876.725 1648.17 C 878.442 1623.5 878.845 1597.49 880.971 1572.97 C 810.075 1631.13 711.709 1702.25 616.275 1690.96 C 580.202 1686.69 548.803 1675.61 525.135 1647.05 C 490.446 1605.19 492.092 1534.4 498.046 1482.45 C 506.037 1412.74 527.718 1336.89 551.242 1270.96 C 556.501 1256.22 564.729 1231.29 576.608 1220.88 C 582.198 1215.99 588.464 1215.12 595.486 1214.38 C 596.492 1207.35 598.852 1182.29 603.125 1178.41 C 605.668 1177.97 606.984 1177.79 609.552 1177.64 C 613.585 1173.78 615.951 1137.85 612.351 1132.74 C 588.047 1098.21 544.895 1067.73 523.654 1031.47 C 507.987 1004.72 512.101 942.375 518.636 912.342 C 524.124 891.017 540.469 856.783 554.042 839.409 C 558.204 777.411 546.832 689.184 597.939 642.519 C 633.138 610.38 699.976 606.259 745.576 609.587 C 834.843 616.102 896.821 637.541 901.126 737.882 C 914.776 738.995 922.224 740.502 935.511 743.692 C 930.186 708.303 924.369 666.034 933.235 630.617 C 929.037 611.54 914.537 577.413 906.748 557.841 L 863.999 448.97 z M 855.537 972.477 C 829.141 1032.02 795.574 1092.33 721.306 1087.37 C 726.573 1108.4 728.227 1121.53 727.663 1143.65 C 727.422 1153.11 726.506 1167.99 726.975 1177.05 C 731.187 1179.51 735.298 1177.34 735.967 1182.01 C 737.432 1192.24 734.902 1203.69 735.062 1214.2 C 744.034 1220.45 746.339 1226.67 748.186 1237.63 C 751.677 1258.32 751.198 1281.54 751.199 1302.62 L 764.696 1286.31 C 835.6 1203.86 898.949 1139.89 1001.53 1099.48 C 994.315 1091.84 988.051 1085.18 988.026 1073.64 C 988.014 1068.25 992.379 1062.78 991.894 1058.76 C 986.432 1056.14 985.136 1062.03 978.515 1058.78 C 965.747 1052.52 969.601 1037.52 975.54 1026.82 C 976.851 1024.45 978.273 1022.15 979.799 1019.91 C 972.091 1007.96 960.236 994.612 963.077 981.628 L 963.38 980.304 C 961.089 976.976 955.307 967.953 952.563 966.007 L 951.509 965.851 C 918.227 981.685 890.695 983.44 855.537 972.477 z M 1329.49 829.766 L 1332.44 812.763 C 1339.75 763.41 1342.69 689.381 1330.26 640.945 C 1278.26 685.67 987.512 685.872 936.132 639.729 C 930.458 667.969 932.021 717.701 942.39 746.055 C 943.798 747.715 947.942 750.019 949.877 749.408 C 978.308 740.431 1011.8 730.926 1042.17 733.262 C 1089.44 736.898 1131.88 776.195 1178.69 786.984 C 1198.79 791.615 1209.87 783.304 1227.45 796.612 L 1228.87 797.671 L 1229.71 798.319 C 1265.61 800.559 1302.62 804.331 1329.49 829.766 z M 1590.12 962.006 L 1424.9 962.134 L 1424.91 977.955 C 1479.29 978.004 1536.09 976.838 1590.12 977.456 L 1590.12 962.006 z M 669.72 1057.65 C 665.601 1055.38 641.995 1021.12 638.024 1014.25 C 631.957 1003.76 626.711 991.119 619.193 980.294 C 612.077 993.593 610.494 1000.11 609.725 1015.14 C 614.968 1021.92 625.024 1035.62 631.552 1040.01 C 644.703 1048.86 655.09 1053.67 667.91 1063.97 L 669.596 1062.62 L 669.72 1057.65 z M 585.722 870.391 C 589.792 853.151 585.852 833.391 587.263 814.687 C 591.361 760.361 591.739 704.654 611.748 653.285 C 614.301 646.731 617.789 641.92 620.494 635.383 L 617.779 633.869 C 553.069 668.19 558.13 775.259 558.779 838.575 C 581.093 852.57 564.289 878.9 561.313 898.847 C 568.731 891.689 579.175 878.616 585.722 870.391 z M 984.617 966.175 C 1006.11 968.153 1003.71 991.37 1016.23 996.312 C 1021.68 997.128 1027.52 998.13 1032.97 998.637 C 1022.46 987.754 1014.66 979.345 1007.16 965.936 C 1004.15 960.57 993.862 933.21 991.193 931.761 L 973.989 950.862 L 984.617 966.175 z M 1526.35 780.086 L 1524.64 774.636 C 1519.3 773.405 1496.79 773.999 1489.57 774.05 L 1491.19 779.496 C 1494.75 780.735 1520.81 780.131 1526.35 780.086 z M 1448.73 958.566 C 1480.05 956.731 1521.25 958.974 1553.75 958.386 L 1566.92 958.187 L 1566.78 866.707 C 1566.72 851.109 1566.05 832.997 1566.61 817.571 L 1462.04 817.489 L 1448.93 817.641 C 1448.96 863.287 1449.99 913.199 1448.73 958.566 z M 1448.94 814.042 C 1488.26 813.827 1527.58 813.866 1566.89 814.158 L 1566.95 784.073 L 1448.95 784.139 L 1448.94 814.042 z"/>
<path transform="translate(0,0)" fill="rgb(245,245,244)" d="M 863.999 448.97 C 859.021 434.062 837.203 384.275 840.035 373.944 C 843.477 369.901 846.845 368.338 851.91 366.708 C 900.41 351.095 950.79 341.843 998.974 325.096 C 1019.58 317.936 1039.4 308.823 1061.48 307.543 C 1137.66 303.682 1210.81 330.724 1284.35 346.525 C 1315.61 353.467 1401.19 366.575 1424.28 381.992 C 1427.68 387.966 1415.59 414.56 1412.75 421.717 C 1406.16 438.465 1399.45 455.167 1392.63 471.823 C 1380.87 504.065 1365.68 536.888 1353 568.863 C 1347.32 583.181 1333.86 612.093 1332 626.201 C 1327.78 622.641 1323.71 619.264 1318.81 616.653 C 1263.04 586.926 1117.38 588.48 1053.93 593.914 C 1025.75 596.327 957.09 603.066 938.128 624.046 C 936.3 626.069 934.788 628.383 933.235 630.617 C 929.037 611.54 914.537 577.413 906.748 557.841 L 863.999 448.97 z"/>
<path transform="translate(0,0)" fill="rgb(216,227,240)" d="M 863.999 448.97 C 859.021 434.062 837.203 384.275 840.035 373.944 C 843.477 369.901 846.845 368.338 851.91 366.708 C 900.41 351.095 950.79 341.843 998.974 325.096 C 1019.58 317.936 1039.4 308.823 1061.48 307.543 C 1137.66 303.682 1210.81 330.724 1284.35 346.525 C 1315.61 353.467 1401.19 366.575 1424.28 381.992 C 1427.68 387.966 1415.59 414.56 1412.75 421.717 C 1406.16 438.465 1399.45 455.167 1392.63 471.823 C 1355.75 451.658 1299.87 440.18 1259.13 428.355 C 1236.72 422.584 1219.6 416.043 1196.58 410.657 C 1109.44 390.273 1024.09 410.641 939.023 429.252 C 924.93 432.336 869.206 444.771 863.999 448.97 z"/>
<path transform="translate(0,0)" fill="rgb(1,0,1)" d="M 1158.52 483.48 C 1159.1 483.777 1160.01 484.606 1160.56 485.053 C 1160.53 489.775 1147.42 506.537 1143.92 511.353 L 1141.71 510.095 C 1141.76 505.378 1155.05 488.297 1158.52 483.48 z"/>
<path transform="translate(0,0)" fill="rgb(1,0,1)" d="M 1042.45 507.645 C 1048.65 507.795 1064.58 524.325 1066.3 529.587 C 1064.8 529.622 1064.43 529.412 1062.94 529.091 C 1057.09 524.134 1045.66 514.214 1042.45 507.645 z"/>
<path transform="translate(0,0)" fill="rgb(1,0,1)" d="M 1112.16 494.641 C 1116.1 497.709 1114.59 523.742 1113.55 529.095 C 1109.52 524.983 1110.57 500.365 1112.16 494.641 z"/>
<path transform="translate(0,0)" fill="rgb(1,0,1)" d="M 1130.12 542.487 C 1135.86 541.283 1155.31 540.463 1159.51 544.292 C 1154.4 545.797 1133.98 546.197 1130.12 542.487 z"/>
<path transform="translate(0,0)" fill="rgb(1,0,1)" d="M 1067.98 542.469 C 1074.92 542.141 1082.73 541.633 1089.67 542.05 C 1093.11 542.257 1092.46 542.369 1094.22 544.673 C 1089.6 545.717 1073.3 546.142 1068.73 544.656 L 1067.98 542.469 z"/>
<path transform="translate(0,0)" fill="rgb(1,0,1)" d="M 1111.54 558.25 C 1112.8 559.117 1112.92 559.441 1113.96 560.602 C 1114.95 567.295 1114.81 574.106 1113.54 580.753 L 1111.48 578.787 C 1110.25 572.103 1110.8 564.98 1111.54 558.25 z"/>
<path transform="translate(0,0)" fill="rgb(65,108,179)" d="M 996.512 1104.98 C 1000.08 1105.83 1000.23 1123.57 1007.12 1128.59 C 1011.48 1131.77 1015.46 1146.2 1017.55 1151.87 C 1027.18 1178.07 1044.08 1180.8 1068.77 1180.24 C 1075.59 1189.77 1078.1 1193.75 1088.58 1198.92 C 1092.52 1198.72 1096.94 1198.12 1100.9 1197.69 L 1117.15 1215.86 C 1111.96 1219.4 1107.59 1222.21 1102.97 1226.49 C 1107.27 1238.89 1112.6 1249.85 1118.15 1261.71 C 1114.15 1264.86 1109.57 1268.01 1106.62 1272.21 C 1102.26 1278.42 1101.54 1285.65 1102.2 1293.04 C 1107.09 1347.6 1183.07 1471.32 1213.89 1520.06 C 1222.66 1533.92 1231.7 1547.61 1240.99 1561.12 C 1244.68 1566.51 1257.83 1584.27 1259.1 1588.64 C 1274.69 1642.59 1265.09 1724.14 1233.69 1766.14 C 1219.61 1766.6 1204.7 1766.43 1190.56 1766.31 C 1085.12 1765.4 979.317 1767.61 873.912 1766.27 C 873.914 1754.65 875.447 1738.17 876.192 1726.28 C 877.759 1701.95 879.179 1677.61 880.452 1653.26 L 891.518 1420.98 C 892.975 1394.01 895.861 1366.89 896.329 1339.75 C 896.448 1332.81 897.998 1318.68 897.12 1312.91 L 895.848 1312.64 C 892.777 1318.23 894.126 1360.61 889.5 1374.02 C 870.72 1428.45 851.278 1482.72 827.627 1535.25 C 816.405 1561.01 801.708 1588.68 786.254 1612.3 C 759.381 1653.94 728.511 1674.17 679.782 1684.09 C 602.709 1699.78 515.731 1674.85 502.636 1586.86 C 487.767 1486.96 519.331 1379.65 550.237 1285.6 C 556.608 1266.22 569.991 1217.41 594.266 1217.96 C 614.844 1218.22 636.624 1218.04 657.296 1218.02 L 705.498 1217.83 C 713.961 1217.78 722.882 1217.16 731.283 1217.97 C 733.578 1218.19 735.162 1218.37 736.997 1219.88 C 753.34 1233.32 747.351 1345.92 745.47 1370.08 C 743.897 1389.26 741.693 1408.37 738.862 1427.4 C 737.203 1438.95 727.189 1485.63 727.876 1493 C 733.059 1480.5 735.709 1462.94 738.03 1449.49 C 746.453 1402.6 750.763 1355.07 750.91 1307.43 C 763.557 1291.28 778.389 1274.71 792.122 1259.45 C 853.594 1191.18 911.845 1140.82 996.512 1104.98 z"/>
<path transform="translate(0,0)" fill="rgb(65,108,179)" d="M 1305.62 1064.94 C 1331.23 1065.74 1356.93 1068.55 1382.33 1071.82 C 1450.26 1080.59 1522.99 1095.95 1571.99 1147.83 C 1633.02 1212.45 1652.16 1361.44 1649.08 1446.98 C 1646.42 1520.97 1613.14 1618.21 1558.52 1668.79 C 1528.22 1696.85 1491.47 1710.86 1450.19 1709.13 C 1386.98 1706.46 1333.48 1668.8 1292.14 1623.5 C 1280.56 1610.69 1269.68 1597.27 1259.55 1583.29 C 1221.8 1531.11 1101.37 1342.47 1105 1285.56 C 1105.51 1277.43 1108.68 1273.34 1114.81 1268.15 C 1128.45 1256.6 1146.25 1247.47 1161.44 1237.99 C 1183.66 1224.13 1205.69 1209.33 1228.44 1196.37 L 1223.34 1195.5 C 1217.82 1187.21 1208.02 1171.63 1201.72 1164.61 L 1189.1 1171.05 C 1178.14 1151.75 1168.42 1131.83 1157.77 1112.5 C 1213.98 1111.77 1259.73 1097.84 1305.62 1064.94 z"/>
<path transform="translate(0,0)" fill="rgb(1,0,1)" d="M 1223.34 1195.5 C 1235.45 1193.75 1241.67 1195.38 1251.34 1203.19 C 1266.89 1215.74 1282.43 1229.69 1297.4 1242.94 C 1326.9 1268.58 1355.56 1295.17 1383.34 1322.66 C 1383.97 1310.85 1386.73 1233.13 1392.01 1228.3 C 1392.48 1238.33 1390.45 1255.52 1389.63 1266.45 C 1388.15 1286.01 1387.04 1305.6 1386.33 1325.21 C 1418.36 1355.66 1495.03 1429.93 1515.16 1467.92 L 1514.44 1467.94 C 1501.31 1452.01 1489.41 1435.87 1475.22 1420.28 C 1403.95 1341.96 1325.6 1267.82 1243.41 1201.03 C 1240.11 1198.34 1232.2 1197.79 1228.44 1196.37 L 1223.34 1195.5 z"/>
<path transform="translate(0,0)" fill="rgb(245,245,244)" d="M 617.779 633.869 C 623.17 629.251 632.635 626.073 639.348 623.824 C 673.893 612.249 715.452 611.253 751.856 614.144 C 792.54 617.375 842.595 624.6 870.805 657.06 C 888.589 677.523 896.638 711.378 897.101 737.917 C 867.997 738.596 859.026 742.996 833.096 754.057 C 823.202 758.277 804.661 752.872 792.782 762.374 C 790.822 767.484 791.352 772.996 795.983 776.24 C 800.079 776.73 802.599 776.639 806.757 776.574 C 798.073 787.288 790.063 797.598 784.997 810.534 C 758.474 878.257 787.874 941.337 851.793 971.053 C 826.49 1033.89 783.914 1099.57 706.28 1082.3 C 696.9 1080.29 687.556 1078.11 678.251 1075.77 C 674.715 1071.87 671.202 1068.09 667.91 1063.97 L 669.596 1062.62 L 669.72 1057.65 C 665.601 1055.38 641.995 1021.12 638.024 1014.25 C 631.957 1003.76 626.711 991.119 619.193 980.294 C 620.456 975.365 646.769 957.49 649.385 948.327 C 651.093 942.344 659.588 927.757 651.829 921.907 C 644.199 921.567 620.651 938.524 613.195 943.569 C 620.921 933.791 654.924 893.544 635.001 882.178 C 626.604 881.444 607.257 901.026 599.483 907.383 C 603.787 900.519 615.692 882.517 615.705 874.858 C 615.763 839.32 597.288 858.674 585.722 870.391 C 589.792 853.151 585.852 833.391 587.263 814.687 C 591.361 760.361 591.739 704.654 611.748 653.285 C 614.301 646.731 617.789 641.92 620.494 635.383 L 617.779 633.869 z"/>
<path transform="translate(0,0)" fill="rgb(216,227,240)" d="M 669.72 1057.65 C 673.169 1059.49 679.6 1064.65 683.082 1067.25 C 689.367 1071.93 701.66 1077.01 706.28 1082.3 C 696.9 1080.29 687.556 1078.11 678.251 1075.77 C 674.715 1071.87 671.202 1068.09 667.91 1063.97 L 669.596 1062.62 L 669.72 1057.65 z"/>
<path transform="translate(0,0)" fill="rgb(1,0,1)" d="M 716.838 953.149 C 727.636 952.092 731.168 954.182 739.923 959.533 C 762.851 948.473 777.57 968.765 791.999 983.95 C 781.137 999.348 770.07 1006.56 751.937 1010.75 C 740.202 1012.67 728.192 1012.03 716.726 1008.89 C 695.382 1002.81 682.082 989.642 671.436 970.819 C 683.254 966.341 706.135 955.742 716.838 953.149 z"/>
<path transform="translate(0,0)" fill="rgb(241,144,141)" d="M 677.653 973.991 C 688.705 975.304 703.392 978.68 715.054 980.408 C 738.975 983.959 763.144 985.57 787.324 985.226 C 783.019 990.357 780.254 992.675 775.224 997.082 C 769.632 1001.15 763.335 1004.14 756.652 1005.9 C 734.302 1011.81 707.527 1006.04 690.016 990.777 C 685.892 987.183 679.054 979.311 677.653 973.991 z"/>
<path transform="translate(0,0)" fill="rgb(241,144,141)" d="M 719.997 956.167 C 729.759 956.444 731.35 958.257 739.685 963.326 C 762.555 953.635 770.757 966.893 785.688 982.546 C 774.473 982.291 763.927 981.613 752.754 980.865 C 728.795 979.078 704.964 975.868 681.387 971.253 C 691.124 965.984 709.388 959.211 719.997 956.167 z"/>
<path transform="translate(0,0)" fill="rgb(1,0,1)" d="M 648.416 788.284 C 677.82 786.494 698.222 797.316 713.104 822.782 C 701.527 833.699 687.801 839.418 672.255 841.665 C 645.072 844.835 623.468 831.107 607.692 810.126 C 618.17 796.953 632.356 791.084 648.416 788.284 z"/>
<path transform="translate(0,0)" fill="rgb(216,227,240)" d="M 653.274 791.411 C 658.01 791.263 662.748 791.601 667.414 792.419 C 686.556 795.673 698.795 806.787 709.53 822.121 C 696.052 833.113 685.794 836.686 668.615 838.268 C 665.01 838.332 661.405 838.177 657.819 837.805 C 637.99 835.793 623.524 825.243 611.386 810.248 C 623.842 797.624 636.133 792.943 653.274 791.411 z"/>
<path transform="translate(0,0)" fill="rgb(1,0,1)" d="M 653.969 738.393 C 667.907 736.746 744.185 745.534 720.62 769.727 C 718.176 770.463 717.538 770.956 714.622 769.926 C 699.868 764.716 691.897 760.928 676.226 758.139 C 661.737 756.168 654.966 756.906 640.849 758.719 C 631.859 759.873 609.164 768.906 604.925 767.525 C 595.031 755.445 607.954 751.465 616.87 747.731 C 629.54 742.425 640.381 739.924 653.969 738.393 z"/>
<path transform="translate(0,0)" fill="rgb(1,0,1)" d="M 763.982 801.26 L 766.339 802.377 C 769.348 810.862 768.964 839.903 770.203 850.786 C 771.324 867.35 773.476 885.159 774.212 901.625 C 774.652 911.496 772.807 922.014 761.577 922.415 C 743.519 923.059 738.045 914.634 719.214 920.843 C 717.802 918.584 718.294 917.891 719.542 916.096 C 733.888 910.396 742.703 919.92 756.307 919.783 C 761.479 919.73 769.637 915.689 770.398 909.848 C 772.151 901.998 768.976 892.08 769.209 884.585 C 769.827 864.717 760.188 819.021 763.982 801.26 z"/>
<path transform="translate(0,0)" fill="rgb(241,144,141)" d="M 1016.62 737.391 C 1034.2 735.425 1057.61 735.941 1073.95 743.71 C 1098.43 755.351 1127.63 833.345 1137.47 860.721 C 1150.39 860.056 1158.75 858.579 1171.3 856.059 C 1169.76 833.675 1167.72 801.88 1195.83 792.898 C 1202.99 790.609 1214.53 791.51 1221.02 795.669 C 1241.11 808.548 1244.6 842.535 1231.68 861.451 C 1226.28 869.404 1219.45 875.688 1209.81 877.552 C 1207.03 878.089 1205.94 878.428 1203.57 879.718 L 1203.54 881.335 C 1206.5 882.217 1206.74 882.046 1209.8 882.226 C 1212.23 885.464 1210.84 899.206 1212.32 904.363 C 1222.06 938.368 1249.48 957.323 1283.23 961.525 C 1286.46 991.152 1296.46 1033.21 1302.66 1063.4 C 1273.12 1086.72 1229.98 1102.4 1192.87 1106.9 C 1186.9 1107.86 1158.65 1111.96 1155.89 1107.55 C 1145.08 1090.3 1135.3 1069.82 1125.24 1051.93 C 1161.35 1028.93 1175.16 995.723 1189.04 956.967 C 1184.98 961.123 1180.17 967.597 1175.77 972.355 C 1161.68 987.685 1144.14 999.447 1124.61 1006.67 C 1112.68 1011.15 1097.07 1015.65 1084.76 1011.41 C 1070.46 1006.49 1048.36 1005.22 1036.33 996.298 C 1014.54 980.136 1003.55 951.735 994.338 927.149 L 1000.74 915.943 C 1007.48 916.351 1013.05 917.111 1019.67 915.624 L 1018.45 914.724 L 1018.66 915.735 L 1017.77 914.498 C 1013.8 913.469 1007 913.189 1002.7 912.864 C 1010.04 894.079 1015.09 879.067 1015.13 858.607 C 1015.2 812.505 990.612 775.976 952.602 752.194 C 973.344 744.965 994.807 740.002 1016.62 737.391 z"/>
<path transform="translate(0,0)" fill="rgb(1,0,1)" d="M 1032.28 774.23 C 1052.29 773.091 1061.72 774.058 1080.11 782.758 C 1079.1 786.338 1077.1 791.525 1075.83 795.176 C 1067.04 791.833 1062.66 790.203 1053.56 788.242 C 1035.78 786.23 1026.45 789.034 1010.13 795.105 L 1005.82 782.741 C 1015.85 777.758 1021.3 776.357 1032.28 774.23 z"/>
<path transform="translate(0,0)" fill="rgb(1,0,1)" d="M 1038.83 813.818 C 1053.62 817.296 1055.82 834.062 1044.01 842.523 C 1029.05 839.863 1027.39 823.002 1038.83 813.818 z"/>
<path transform="translate(0,0)" fill="rgb(1,0,1)" d="M 1199.4 810.142 C 1207.16 810.209 1213.84 813.825 1218.3 820.152 C 1222.32 825.905 1223.89 833.021 1222.64 839.929 C 1221.14 848.462 1212.14 860.946 1202.57 859 L 1202.35 857.731 L 1204.44 856.478 C 1220.16 848.557 1224.6 832.919 1213.04 818.566 C 1208.59 813.038 1196.83 815.397 1190.59 815.708 L 1190.9 813.99 C 1194.47 811.318 1194.98 811.35 1199.4 810.142 z"/>
<path transform="translate(0,0)" fill="rgb(65,108,179)" d="M 954.826 959.467 C 900.471 991.573 830.451 974.838 796.487 921.624 C 762.523 868.41 776.83 797.854 828.839 762.072 C 880.849 726.291 951.857 738.153 989.413 788.896 C 1026.97 839.639 1017.57 911.014 968.151 950.3 C 963.926 953.659 959.474 956.722 954.826 959.467 z"/>
<path transform="translate(0,0)" fill="rgb(1,0,1)" d="M 877.36 758.34 C 932.773 748.376 985.723 785.368 995.431 840.826 C 1005.14 896.283 967.904 949.062 912.402 958.515 C 857.26 967.906 804.898 930.965 795.253 875.867 C 785.608 820.77 822.308 768.238 877.36 758.34 z"/>
<path transform="translate(0,0)" fill="rgb(216,227,240)" d="M 893.097 760.126 C 947.206 758.912 992.127 801.648 993.61 855.751 C 995.094 909.854 952.582 954.987 898.487 956.739 C 844.01 958.505 798.488 915.627 796.994 861.141 C 795.5 806.656 838.605 761.348 893.097 760.126 z"/>
<path transform="translate(0,0)" fill="rgb(1,0,1)" d="M 886.536 814.328 C 907.107 812.121 927.852 816.414 945.858 826.603 C 953.387 830.79 974.274 844.736 976.482 852.528 C 974.933 869.224 926.249 888.902 909.917 891.001 C 891.64 893.389 873.139 890.913 856.506 883.154 C 848.136 879.25 809.211 858.916 819.921 847.903 C 837.285 830.046 861.823 817.524 886.536 814.328 z"/>
<path transform="translate(0,0)" fill="rgb(65,108,179)" d="M 892.034 815.58 C 911.915 812.721 930.353 826.508 933.231 846.385 C 936.11 866.263 922.342 884.715 902.468 887.614 C 885.645 890.068 869.365 880.548 863.254 864.684 C 857.143 848.82 862.829 830.839 876.95 821.373 C 881.481 818.336 886.636 816.356 892.034 815.58 z"/>
<path transform="translate(0,0)" fill="rgb(1,0,1)" d="M 903.28 833.663 C 916.782 809.547 937.001 845.041 916.18 848.611 C 917.713 849.099 916.934 848.646 918.223 850.384 C 917.853 861.773 908.593 869.743 898.073 871.283 C 878.072 874.212 871.448 849.373 883.873 836.404 C 889.034 831.017 897.714 827.193 903.28 833.663 z"/>
<path transform="translate(0,0)" fill="rgb(245,245,244)" d="M 903.28 833.663 C 916.782 809.547 937.001 845.041 916.18 848.611 C 905.424 846.959 902.386 845.017 903.28 833.663 z"/>
<path transform="translate(0,0)" fill="rgb(245,245,244)" d="M 869.104 821.09 L 869.812 822.004 C 851.471 847.696 854.973 866.092 877.894 887.192 C 866.882 883.956 859.534 881.115 849.349 875.995 C 837.698 869.554 829.407 863.014 820.076 853.691 C 834.898 836.598 848.269 828.76 869.104 821.09 z"/>
<path transform="translate(0,0)" fill="rgb(245,245,244)" d="M 924.693 821.353 C 944.063 826.862 960.609 839.077 974.214 853.567 C 965.14 863.044 956.089 869.258 944.823 875.742 C 935.655 880.747 925.77 883.944 915.853 887.06 C 940.072 866.443 942.598 848.143 924.693 821.353 z"/>
<path transform="translate(0,0)" fill="rgb(1,0,1)" d="M 884.603 797.265 C 910.373 795.088 952.601 803.918 966.107 828.046 C 963.455 827.579 953.153 819.154 949.561 816.793 C 938.234 809.35 929.632 805.902 916.731 802.234 C 915.644 802.006 914.554 801.788 913.463 801.581 C 880.189 795.198 857.244 806.569 830.778 824.636 L 829.731 824.398 C 839.342 809.051 867.43 800.083 884.603 797.265 z"/>
<path transform="translate(0,0)" fill="rgb(241,144,141)" d="M 604.483 857.743 C 606.392 857.894 606.629 857.893 608.455 858.652 C 610.313 859.425 612.639 862.451 613.057 864.465 C 616.277 879.987 596.252 907.053 587.615 918.106 C 579.757 928.164 568.473 937.276 563.245 948.094 C 558.513 957.885 537.426 1010.02 539.106 1014.73 L 540.423 1014.53 C 543.815 1009.16 548.857 993.008 550.558 987.068 C 561.182 949.972 579.538 927.692 609.01 903.653 C 614.6 899.093 628.01 883.225 635.501 886.532 C 648.835 909.152 597.721 952.794 585.185 967.652 C 580.563 973.129 561.898 1027.56 563.109 1032.41 L 564.447 1032.64 C 566.931 1029.67 569.64 1018.18 570.682 1014.61 C 579.928 982.903 586.03 960.749 617.707 944.62 C 626.734 940.023 637.365 928.621 648.598 926.138 C 649.595 926.554 651.227 926.825 651.429 927.996 C 655.993 954.456 615.53 968.648 610.256 989.174 C 608.563 996.449 602.868 1026.97 606.412 1030.61 C 614.343 1038.77 640.185 1048.57 651.941 1056.19 C 661.211 1062.12 669.422 1069.56 676.232 1078.21 C 683.421 1087.39 688.879 1098.42 691.468 1109.87 C 692.733 1115.47 692.22 1120.44 694.743 1125.5 L 696.274 1125.32 C 698.683 1119.38 692.755 1101.34 690.591 1095.09 C 702.181 1102.3 711.346 1106.49 723.673 1112.11 C 725.105 1132.85 723.881 1157.35 722.872 1178 L 615.125 1177.96 C 616.754 1165.54 620.51 1149.59 617.722 1137.35 C 612.544 1114.62 544.534 1061.57 527.56 1030.15 C 523.322 1022.3 521.251 1014.72 519.433 1006.02 C 523.473 998.116 525.418 985.328 528.006 976.587 C 531.558 964.588 537.042 945.286 542.755 934.906 C 553.538 915.313 586.671 867.781 604.483 857.743 z"/>
<path transform="translate(0,0)" fill="rgb(241,144,141)" d="M 1010.52 999.292 C 1029.14 999.354 1066.17 1009.88 1085.24 1014.26 C 1090.46 1015.45 1100.49 1019.68 1103.84 1023.88 C 1118.47 1042.25 1131.1 1068.55 1142.02 1089.35 C 1156.85 1117.6 1170.97 1144.76 1186.52 1172.43 L 1119.59 1214 C 1095.21 1191.23 1087.75 1164.55 1070.54 1139.55 C 1064.18 1143.03 1049.61 1148.86 1045.15 1152.33 L 1045.75 1153.3 C 1046.53 1153.29 1050.61 1153.22 1050.9 1153.31 C 1055.82 1154.94 1064.83 1172.42 1067.25 1176.84 C 1057.87 1176.94 1052.15 1176.92 1042.94 1174.04 C 1025.13 1168.48 1012.24 1147.13 1019.5 1129.14 C 1028.9 1121.07 1068.2 1104.89 1071.03 1101.3 L 1070.06 1100.06 C 1063.16 1099.77 1028.04 1120.02 1020.19 1125.19 C 1018.53 1126.29 1015.28 1130.81 1014.01 1132.66 C 972.826 1084.02 1045.15 1088.69 1066.4 1070.16 C 1056.97 1069.69 1010.62 1089.88 1001.21 1095.35 C 968.641 1053.26 1024.22 1052.3 1051.53 1044.12 C 1055.76 1042.85 1062.56 1042.27 1065.92 1039.54 L 1065.55 1038.38 C 1059.82 1037.72 1047.79 1042.57 1041.47 1041.95 C 1034.98 1041.32 1014.45 1032.26 1009.27 1034.09 C 1009.45 1043.32 999.073 1050.81 991.706 1053.97 C 972.903 1062.05 970.825 1043.52 976.754 1031.17 C 982.658 1018.86 998.554 1004.1 1010.52 999.292 z"/>
<path transform="translate(0,0)" fill="rgb(252,238,201)" d="M 1104.26 594.452 C 1159.91 592.877 1270.06 594.891 1322.19 622.516 C 1323.92 623.281 1331.36 630.08 1330.19 632.498 C 1313.96 665.961 1186.32 669.703 1162.58 670.278 C 1129 672.556 945.849 668.693 936.716 632.119 C 940.034 602.68 1079.02 595.465 1104.26 594.452 z"/>
<path transform="translate(0,0)" fill="rgb(1,0,1)" d="M 1501.82 851.199 C 1524.68 849.244 1537.5 868.294 1526.22 888.217 C 1533.88 894.023 1538.78 898.556 1541.2 908.458 C 1543.19 916.944 1541.72 925.874 1537.12 933.277 C 1530.95 943.276 1522.63 947.486 1511.74 950.002 C 1508.65 950.154 1506.4 950.168 1503.31 949.716 C 1493.75 948.395 1485.14 943.234 1479.46 935.423 C 1473.95 927.594 1471.94 917.827 1473.91 908.458 C 1476.24 897.694 1481.59 893.307 1490.02 887.778 C 1480.64 872.052 1485.16 858.588 1501.82 851.199 z M 1495.95 889.248 C 1479.55 897.305 1471.5 912.62 1480.59 929.91 C 1484.33 936.955 1490.76 942.191 1498.41 944.428 C 1501.97 945.49 1505.92 945.761 1509.63 945.641 C 1542.48 940.558 1548.26 901.608 1519.11 889.963 C 1530.99 874.24 1527.32 855.612 1505.82 855.018 C 1487.72 860.303 1485.32 874.973 1495.95 889.248 z"/>
<path transform="translate(0,0)" fill="rgb(65,108,179)" d="M 604.754 1181.03 C 646.735 1180.44 690.282 1180.97 732.365 1180.97 C 732.511 1187.47 733.782 1210.07 731.209 1214.61 L 728.25 1215.09 L 598.921 1215.01 L 604.754 1181.03 z"/>
<path transform="translate(0,0)" fill="rgb(65,108,179)" d="M 1199.49 1167.84 C 1204.04 1169.06 1217.94 1191.95 1221.42 1197.4 C 1191.37 1217.23 1156.42 1237.95 1125.57 1257.11 C 1123.46 1258.34 1123.59 1258.27 1121.17 1258.64 C 1116.27 1255.01 1108.42 1233.44 1105.43 1226.37 L 1199.49 1167.84 z"/>
<path transform="translate(0,0)" fill="rgb(1,0,1)" fill-opacity="0.984314" d="M 1460.34 792.767 C 1466.41 792.351 1470.84 792.394 1473.58 798.516 C 1473.5 802.418 1472.86 802.799 1470.48 805.842 C 1460.37 806.872 1454.03 802.87 1460.34 792.767 z"/>
<path transform="translate(0,0)" fill="rgb(1,0,1)" d="M 1545.5 792.523 C 1549.1 790.687 1553.5 792.127 1555.32 795.733 C 1557.13 799.339 1555.67 803.734 1552.05 805.531 C 1548.47 807.315 1544.11 805.865 1542.31 802.286 C 1540.51 798.708 1541.93 794.345 1545.5 792.523 z"/>
<path transform="translate(0,0)" fill="rgb(241,144,141)" d="M 555.732 842.52 C 559.133 842.684 563.732 844.36 564.788 847.924 C 571.185 869.516 556.004 895.37 549.257 915.605 C 546.43 924.084 538.732 933.398 535.862 942.211 C 530.332 957.696 526.19 971.771 521.82 987.24 C 520.975 991.17 519.519 995.631 518.356 999.535 C 515.25 951.97 515.293 917.352 537.789 874.356 C 543.679 863.099 547.641 853.099 555.732 842.52 z"/>
<path transform="translate(0,0)" fill="rgb(65,108,179)" d="M 954.826 959.467 C 959.474 956.722 963.926 953.659 968.151 950.3 L 970.891 951.805 L 981.924 968.098 C 977.014 971.301 970.787 975.592 965.736 978.28 C 962.185 973.419 958.564 969.005 956.126 963.53 L 956.662 961.481 L 954.826 959.467 z"/>
<path transform="translate(0,0)" fill="rgb(14,22,40)" d="M 954.826 959.467 C 959.474 956.722 963.926 953.659 968.151 950.3 L 970.891 951.805 C 966.882 954.543 960.635 959.116 956.662 961.481 L 954.826 959.467 z"/>
<path transform="translate(0,0)" fill="rgb(1,0,1)" d="M 533.865 522.283 C 548.97 523.547 560.859 531.39 561.481 547.652 C 561.815 555.15 559.012 562.448 553.745 567.795 C 541.22 580.368 521.513 575.832 510.001 564.253 C 480.767 569.244 461.249 573.074 440.237 594.286 C 440.023 599.605 439.701 602.972 439.016 608.223 C 461.233 608.196 479.02 621.096 479.975 644.981 C 480.09 647.851 477.305 654.909 476.23 657.897 L 476.7 658.621 C 480.594 658.632 487.868 657.934 490.188 660.854 L 488.976 662.594 C 481.962 663.964 464.79 663.492 457.255 663.139 C 465.548 669.12 513.79 702.94 517.285 708.264 L 516.525 708.598 C 505.301 706.552 478.474 684.261 467.5 676.384 C 462.285 672.976 456.875 667.893 452.132 663.718 C 437.252 663.537 318.079 665.564 311.172 661.767 L 311.69 660.327 C 315.724 658.208 319.368 658.828 324.055 658.919 C 312.548 627.946 333.083 608.354 363.885 608.947 C 362.202 599.608 361.234 593.091 364.711 583.68 C 368.234 574.393 375.364 566.925 384.48 562.979 C 394.4 558.649 405.633 558.435 415.711 562.382 C 428.99 567.586 434.226 576.424 439.569 588.499 C 459.228 569.746 479.529 564.705 505.06 560.562 C 504.334 540.523 512.753 525.46 533.865 522.283 z M 371.322 614.747 C 366.182 613.957 360.051 612.714 354.934 613.234 C 329.842 615.78 319.026 636.73 328.449 659.169 L 382.25 659.201 L 447.799 659.2 C 427.255 635.86 420.772 621.573 435.748 591.574 C 427.655 571.148 417.447 562.572 394.587 564.197 C 373.18 570.373 360.732 585.662 368.722 608.358 C 369.498 610.524 370.365 612.655 371.322 614.747 z M 509.586 559.364 C 520.273 568.059 523.945 570.69 538.172 570.272 C 551.812 567.749 560.3 557.701 556.613 543.59 C 555.018 537.574 550.986 532.496 545.489 529.578 C 540.498 526.884 535.715 526.834 530.212 527.059 C 513.743 534.333 510.245 541.524 509.586 559.364 z M 452.599 658.767 C 456.917 658.839 469.612 659.846 472.197 657.451 C 479.583 639.568 473.091 623.058 455.504 614.975 C 446.06 610.635 439.812 614.262 431.746 612.52 C 431.195 633.324 435.635 640.942 449.872 655.93 C 450.773 656.884 451.682 657.829 452.599 658.767 z"/>
<path transform="translate(0,0)" fill="rgb(1,0,1)" d="M 776.981 344.383 C 794.662 343.155 808.678 349.276 822.884 358.88 C 814.946 369.37 736.105 457.138 731.524 458.624 L 728.554 456.341 C 723.865 459.863 716.529 469.188 712.438 474.029 C 717.224 478.074 729.827 487.544 730.802 492.964 L 729.06 494.338 C 723.148 489.254 687.828 459.734 688.256 454.803 L 688.998 454.649 C 694.493 455.981 704.329 466.243 709.387 470.8 L 725.236 453.218 C 718.737 441.5 714.244 432.355 712.921 418.71 C 710.984 400.579 716.361 382.425 727.858 368.272 C 740.775 352.692 757.321 346.358 776.981 344.383 z M 734.9 429.962 C 746.647 419.886 749.036 433.289 753.942 428.777 C 761.572 421.761 769.57 412.385 776.573 404.589 L 817.206 359.707 C 804.234 351.912 791.212 346.582 775.576 348.296 C 764.788 350.151 757.528 352.051 747.887 357.294 C 712.023 376.799 707.557 423.768 731.652 453.9 C 734.609 450.897 738.24 447.963 739.361 444.055 C 738.487 441.179 737.07 440.161 734.958 438.02 C 733.7 434.263 733.939 433.977 734.9 429.962 z M 745.124 439.518 C 748.045 435.563 748.284 436.548 748.394 432.524 C 746.033 429.922 743.837 429.997 740.296 429.518 C 738.705 433.6 738.703 433.359 739.61 437.629 C 741.907 440.338 740.501 439.583 743.895 440.103 L 745.124 439.518 z"/>
<path transform="translate(0,0)" fill="rgb(1,0,1)" d="M 1503.01 449.54 C 1519.92 447.065 1535.67 458.697 1538.27 475.593 C 1540.88 492.49 1529.37 508.324 1512.49 511.059 C 1495.43 513.824 1479.38 502.16 1476.75 485.079 C 1474.12 467.998 1485.91 452.042 1503.01 449.54 z"/>
<path transform="translate(0,0)" fill="rgb(252,238,201)" d="M 1504.21 453.543 C 1518.76 451.717 1532.13 461.798 1534.37 476.291 C 1536.61 490.785 1526.92 504.435 1512.5 507.095 C 1502.79 508.886 1492.88 505.259 1486.62 497.626 C 1480.36 489.994 1478.75 479.562 1482.4 470.394 C 1486.06 461.226 1494.41 454.771 1504.21 453.543 z"/>
<path transform="translate(0,0)" fill="rgb(252,238,201)" d="M 708.383 294.456 C 716.882 292.619 725.294 297.903 727.328 306.357 C 729.362 314.811 724.274 323.343 715.869 325.572 C 710.256 327.06 704.278 325.392 700.246 321.213 C 696.215 317.034 694.763 310.999 696.452 305.444 C 698.142 299.888 702.707 295.684 708.383 294.456 z"/>
<path transform="translate(0,0)" fill="rgb(1,0,1)" d="M 1444.72 510.734 L 1446.81 512.987 C 1445.74 516.969 1380.28 560.891 1372.64 566.179 C 1371.96 566.052 1370.92 565.561 1370.23 565.279 L 1370.39 563.343 C 1374.14 559.109 1388.52 549.942 1394.01 546.103 L 1444.72 510.734 z"/>
<path transform="translate(0,0)" fill="rgb(1,0,1)" d="M 731.662 1766.4 C 748.171 1764.67 785.093 1766.3 803.066 1766.27 C 804.484 1766.27 804.593 1767.23 805.474 1768.71 C 797.683 1769.96 739.032 1770.29 732.706 1768.53 L 731.662 1766.4 z"/>
<path transform="translate(0,0)" fill="rgb(1,0,1)" d="M 1540.1 646.139 C 1546.21 648.473 1543.56 661.914 1543.25 667.857 C 1541.02 668.073 1542.03 668.361 1540.22 666.909 C 1539.28 660.565 1539.86 652.692 1540.1 646.139 z"/>
<path transform="translate(0,0)" fill="rgb(1,0,1)" d="M 1540.05 686.117 C 1541.47 686.6 1541.5 686.805 1542.77 687.688 C 1544.11 694.534 1543.33 701.507 1542.84 708.479 C 1537.51 705.733 1539.81 691.629 1540.05 686.117 z"/>
<path transform="translate(0,0)" fill="rgb(1,0,1)" d="M 1511.45 675.515 C 1515.62 675.404 1519.8 675.334 1523.97 675.305 C 1528.38 675.31 1529.56 675.166 1532.22 677.793 C 1528.12 679.725 1515.44 679.794 1511.43 677.932 L 1511.45 675.515 z"/>
<path transform="translate(0,0)" fill="rgb(1,0,1)" d="M 1555.1 675.49 C 1559.29 675.387 1569.56 674.292 1572.07 677.408 L 1570.84 678.954 C 1564.94 679.035 1559.42 679.488 1553.67 678.26 L 1552.97 676.764 L 1555.1 675.49 z"/>
</svg>