<svg version="1.1" xmlns="http://www.w3.org/2000/svg" style="display: block;" viewBox="0 0 2048 2048" width="2000" height="2000" preserveAspectRatio="none">
<defs>
	<linearGradient id="Gradient1" gradientUnits="userSpaceOnUse" x1="1192.67" y1="698.636" x2="1132.33" y2="694.364">
		<stop class="stop0" offset="0" stop-opacity="1" stop-color="rgb(41,42,77)"/>
		<stop class="stop1" offset="1" stop-opacity="1" stop-color="rgb(71,76,133)"/>
	</linearGradient>
	<linearGradient id="Gradient2" gradientUnits="userSpaceOnUse" x1="705" y1="504.993" x2="726.002" y2="505.961">
		<stop class="stop0" offset="0" stop-opacity="1" stop-color="rgb(253,140,148)"/>
		<stop class="stop1" offset="1" stop-opacity="1" stop-color="rgb(247,117,174)"/>
	</linearGradient>
	<linearGradient id="Gradient3" gradientUnits="userSpaceOnUse" x1="634.67" y1="530.136" x2="653.918" y2="522.785">
		<stop class="stop0" offset="0" stop-opacity="1" stop-color="rgb(253,138,145)"/>
		<stop class="stop1" offset="1" stop-opacity="1" stop-color="rgb(249,117,175)"/>
	</linearGradient>
	<linearGradient id="Gradient4" gradientUnits="userSpaceOnUse" x1="810.362" y1="487.154" x2="822.916" y2="501.993">
		<stop class="stop0" offset="0" stop-opacity="1" stop-color="rgb(253,139,146)"/>
		<stop class="stop1" offset="1" stop-opacity="1" stop-color="rgb(250,118,172)"/>
	</linearGradient>
	<linearGradient id="Gradient5" gradientUnits="userSpaceOnUse" x1="616.261" y1="474.599" x2="634.851" y2="468.356">
		<stop class="stop0" offset="0" stop-opacity="1" stop-color="rgb(254,138,147)"/>
		<stop class="stop1" offset="1" stop-opacity="1" stop-color="rgb(252,117,174)"/>
	</linearGradient>
	<linearGradient id="Gradient6" gradientUnits="userSpaceOnUse" x1="711.555" y1="446.871" x2="731.066" y2="448.416">
		<stop class="stop0" offset="0" stop-opacity="1" stop-color="rgb(254,139,148)"/>
		<stop class="stop1" offset="1" stop-opacity="1" stop-color="rgb(250,117,175)"/>
	</linearGradient>
	<linearGradient id="Gradient7" gradientUnits="userSpaceOnUse" x1="628.459" y1="738.718" x2="687.592" y2="728.171">
		<stop class="stop0" offset="0" stop-opacity="1" stop-color="rgb(110,107,217)"/>
		<stop class="stop1" offset="1" stop-opacity="1" stop-color="rgb(152,124,245)"/>
	</linearGradient>
	<linearGradient id="Gradient8" gradientUnits="userSpaceOnUse" x1="623.911" y1="816.421" x2="702.942" y2="733.486">
		<stop class="stop0" offset="0" stop-opacity="1" stop-color="rgb(76,80,204)"/>
		<stop class="stop1" offset="1" stop-opacity="1" stop-color="rgb(122,102,232)"/>
	</linearGradient>
	<linearGradient id="Gradient9" gradientUnits="userSpaceOnUse" x1="642.983" y1="672.027" x2="685.905" y2="624.446">
		<stop class="stop0" offset="0" stop-opacity="1" stop-color="rgb(253,176,74)"/>
		<stop class="stop1" offset="1" stop-opacity="1" stop-color="rgb(249,146,79)"/>
	</linearGradient>
	<linearGradient id="Gradient10" gradientUnits="userSpaceOnUse" x1="1455.02" y1="1533" x2="1423.99" y2="1533">
		<stop class="stop0" offset="0" stop-opacity="1" stop-color="rgb(156,157,232)"/>
		<stop class="stop1" offset="1" stop-opacity="1" stop-color="rgb(196,171,249)"/>
	</linearGradient>
	<linearGradient id="Gradient11" gradientUnits="userSpaceOnUse" x1="985.428" y1="1058.6" x2="1178.59" y2="1060.62">
		<stop class="stop0" offset="0" stop-opacity="1" stop-color="rgb(253,143,138)"/>
		<stop class="stop1" offset="1" stop-opacity="1" stop-color="rgb(251,111,186)"/>
	</linearGradient>
	<linearGradient id="Gradient12" gradientUnits="userSpaceOnUse" x1="1321.7" y1="1094.52" x2="1393.98" y2="1169.82">
		<stop class="stop0" offset="0" stop-opacity="1" stop-color="rgb(255,123,117)"/>
		<stop class="stop1" offset="1" stop-opacity="1" stop-color="rgb(255,112,137)"/>
	</linearGradient>
	<linearGradient id="Gradient13" gradientUnits="userSpaceOnUse" x1="1226.4" y1="1011.71" x2="1469.09" y2="1222.2">
		<stop class="stop0" offset="0" stop-opacity="1" stop-color="rgb(255,150,125)"/>
		<stop class="stop1" offset="1" stop-opacity="1" stop-color="rgb(254,125,164)"/>
	</linearGradient>
	<linearGradient id="Gradient14" gradientUnits="userSpaceOnUse" x1="1317.57" y1="1412.76" x2="1100.83" y2="1413.74">
		<stop class="stop0" offset="0" stop-opacity="1" stop-color="rgb(93,42,94)"/>
		<stop class="stop1" offset="1" stop-opacity="1" stop-color="rgb(134,57,117)"/>
	</linearGradient>
	<linearGradient id="Gradient15" gradientUnits="userSpaceOnUse" x1="524.799" y1="1612.97" x2="578.269" y2="1615.68">
		<stop class="stop0" offset="0" stop-opacity="1" stop-color="rgb(40,41,81)"/>
		<stop class="stop1" offset="1" stop-opacity="1" stop-color="rgb(68,73,135)"/>
	</linearGradient>
</defs>
<path transform="translate(0,0)" fill="rgb(248,249,250)" d="M 257.444 775.859 C 244.539 755.957 260.485 690.612 266.839 667.373 C 273.947 641.374 287.474 607.336 299.086 582.916 C 341.018 496.176 405.346 422.202 485.427 368.637 C 523.311 343.74 588.097 311.163 632.126 298.457 C 794.519 252.171 967.608 250.589 1135.17 256.092 C 1193.55 258.009 1258.18 265.664 1314.29 281.338 C 1326.12 284.643 1342.58 286.414 1352.9 291.365 C 1352.96 285.65 1352.26 270.264 1355.06 266.623 C 1358.17 271.188 1357.37 289.894 1357.46 296.464 C 1364.24 296.844 1381.29 305.247 1388.26 308.543 C 1600.52 408.966 1721.97 640.66 1767.12 861.928 C 1769.93 875.738 1770.58 886.449 1771.17 900.328 C 1772.72 907.461 1776.6 913.551 1777.81 920.823 C 1790.41 996.393 1798.48 1075.63 1799.09 1152.06 C 1800.19 1288.52 1768.48 1428.42 1679.84 1535.47 C 1662.51 1556.4 1600.03 1620.68 1575.43 1632.26 C 1586.77 1645.29 1595.84 1656.44 1594.74 1675.3 C 1594.1 1686.18 1587.12 1697.2 1578.35 1703.63 C 1531.15 1738.26 1453.14 1741.88 1396.24 1735.83 C 1386.61 1734.8 1368.98 1732.15 1360.57 1729.69 C 1355.14 1733.9 1343.81 1741.92 1337.41 1744.16 C 1293 1759.68 1246.3 1766.65 1200.45 1776.59 C 1176.59 1781.76 1150.28 1783.26 1125.92 1784.97 C 1102.26 1786.66 1089.39 1771.23 1073.51 1756.79 C 1067.63 1751.5 1060.95 1747.1 1055.09 1741.39 C 1053.77 1738.18 1054.53 1736.8 1055.41 1733.39 L 1055.75 1732.14 C 1053.64 1730.16 1048.18 1728.72 1045.1 1727.65 C 1034.44 1727.56 1019.75 1730.27 1008.95 1731.96 C 988.638 1735.12 968.35 1738.42 948.088 1741.88 C 935.601 1744.02 918.814 1747.52 906.527 1748.37 C 895.422 1745.96 866.692 1736.04 855.294 1732.33 L 760.292 1701.67 C 732.289 1727.72 718.409 1723.76 682.873 1720.87 C 646.683 1729.61 584.097 1725.35 549.807 1712.04 C 524.648 1702.28 478.356 1670.11 491.363 1637.6 C 450.229 1620.72 401.217 1584.05 372.46 1551.09 C 313.916 1483.98 295.348 1392.35 294.173 1305.66 C 293.601 1263.4 295.674 1221.91 296.103 1179.63 C 296.251 1151.34 295.113 1123.06 292.691 1094.87 C 290.039 1063.57 285.029 1032.35 279.653 1001.57 C 271.051 952.332 240.751 859.361 256.151 813.611 C 255.725 799.825 256.301 789.468 257.444 775.859 z M 1107.56 1564.4 L 1106.51 1567.62 C 1104.18 1573.17 1106.62 1583.25 1107.78 1589.23 C 1107.09 1592.59 1108.46 1598.87 1109.04 1602.53 L 1116.48 1610.14 L 1099.52 1615.18 C 1104 1616.25 1108.47 1617.38 1112.92 1618.57 C 1113.7 1649.87 1116.74 1682.88 1117.19 1713.47 C 1115.06 1713.84 1108.27 1714.71 1106.91 1715.67 L 1108.72 1716.28 C 1099.75 1718.83 1080.25 1718.59 1073.85 1723.48 L 1073.61 1721.6 C 1067.29 1721.16 1050.34 1723.92 1045.1 1727.65 C 1048.18 1728.72 1053.64 1730.16 1055.75 1732.14 L 1055.41 1733.39 C 1054.53 1736.8 1053.77 1738.18 1055.09 1741.39 C 1060.95 1747.1 1067.63 1751.5 1073.51 1756.79 C 1089.39 1771.23 1102.26 1786.66 1125.92 1784.97 C 1150.28 1783.26 1176.59 1781.76 1200.45 1776.59 C 1246.3 1766.65 1293 1759.68 1337.41 1744.16 C 1343.81 1741.92 1355.14 1733.9 1360.57 1729.69 C 1368.98 1732.15 1386.61 1734.8 1396.24 1735.83 C 1453.14 1741.88 1531.15 1738.26 1578.35 1703.63 C 1587.12 1697.2 1594.1 1686.18 1594.74 1675.3 C 1595.84 1656.44 1586.77 1645.29 1575.43 1632.26 C 1535.1 1599.37 1509.12 1588.55 1457.08 1581.72 C 1456.73 1588.58 1458.45 1601.7 1454.64 1607.06 C 1448.62 1614.36 1432.28 1613.76 1425.68 1607.8 C 1421.04 1603.6 1422.7 1588.16 1422.83 1581.73 L 1422.82 1454.92 C 1390.94 1452.95 1364.92 1448.53 1334.53 1438.28 C 1328.15 1436.13 1306.41 1426.1 1302.64 1426.77 C 1300.67 1422.05 1259.58 1404.52 1253.58 1396.5 C 1250.61 1392.53 1249.78 1391.26 1247.25 1386.82 C 1233.87 1386.72 1221.04 1387.73 1211.74 1398.9 C 1203.01 1407.11 1189.27 1437.86 1181.46 1451.88 C 1161.36 1487.99 1138.58 1530.04 1113.4 1563.14 C 1112.56 1564.24 1109.28 1564.21 1107.56 1564.4 z"/>
<path transform="translate(0,0)" fill="rgb(235,237,242)" fill-opacity="0.121569" d="M 1108.72 1716.28 C 1113.14 1716.03 1116.59 1715.4 1120.05 1718.29 C 1115.67 1725.63 1081.41 1727.63 1073.85 1723.48 C 1080.25 1718.59 1099.75 1718.83 1108.72 1716.28 z"/>
<path transform="translate(0,0)" fill="rgb(66,70,131)" d="M 257.444 775.859 C 260.645 765.49 262.833 754.187 267.494 744.393 C 326.737 619.898 490.134 619.115 605.656 634.532 C 603.411 662.855 625.242 748.519 634.417 779.792 L 640.043 800.361 C 644.987 817.358 649.891 835.119 655.506 851.843 C 665.854 837.563 672.776 826.697 681.389 811.319 C 702.874 766.834 719.079 712.284 719.054 662.55 C 721.153 663.306 723.247 664.076 725.337 664.858 C 743.399 671.408 761.168 678.739 778.594 686.831 C 810.634 701.414 836.294 713.77 842.989 751.871 C 845.939 768.657 843.886 786.572 844.187 803.576 C 844.446 818.209 844.496 836.267 851.042 849.693 C 853.166 854.051 856.704 858.842 861.71 859.999 C 864.455 860.633 866.954 859.892 869.318 858.498 C 884.287 849.67 910.266 758.921 913.977 740.109 C 918.115 741.301 922.928 742.848 927.08 743.681 C 930.243 744.189 936.249 745.344 939.208 745.468 C 940.243 746.022 943.084 747.002 943.012 748.166 C 942.267 760.173 940.808 772.214 938.719 784.252 C 927.385 849.573 917.074 924.083 880.34 980.667 C 859.052 1013.46 830.626 1002.66 806.11 982.638 C 787.77 968.415 776.835 955.886 763.771 936.799 C 749.341 973.31 736.256 1010.34 724.543 1047.81 C 717.821 1068.83 709.32 1099.75 700.962 1119.16 C 697.815 1126.07 696.234 1128.54 691.957 1134.9 C 691.975 1139.77 692.791 1142.43 690.608 1146.18 C 687.244 1147.39 686.29 1147.18 682.792 1147.12 C 678.221 1147.11 678.876 1146.39 675.829 1148.54 C 672.079 1157.86 676.323 1163.07 677.28 1171.1 L 679.685 1167.4 C 683.434 1167.96 688.296 1168.52 691.913 1169.27 C 692.058 1175.3 692.021 1184.81 692.859 1190.48 C 692.989 1212.02 694.261 1233.33 695.182 1254.83 C 695.481 1272.16 694.114 1285.28 694.15 1301.39 L 695.503 1302.04 C 695.665 1305.68 695.728 1310.53 696.08 1314.05 C 695.943 1321.3 692.854 1352.45 695.127 1355.69 C 698.776 1356.18 698.816 1356.09 702.279 1355.63 L 699.442 1357.58 C 700.672 1359.77 701.974 1359.91 704.554 1361.38 C 698.451 1362.95 696.221 1363.75 689.91 1362.74 L 688.958 1363.19 L 687.684 1364.69 C 689.858 1366.92 879.337 1414.61 896.996 1418.34 C 899.858 1421.08 902.372 1437.5 903.513 1442.92 L 892.72 1454.03 C 899.389 1496.02 902.97 1538.45 903.436 1580.96 L 892.659 1591.85 C 894.992 1595.68 903.01 1608.29 903.148 1612.33 C 904.663 1656.73 907.994 1704.23 906.527 1748.37 C 895.422 1745.96 866.692 1736.04 855.294 1732.33 L 760.292 1701.67 C 732.289 1727.72 718.409 1723.76 682.873 1720.87 C 646.683 1729.61 584.097 1725.35 549.807 1712.04 C 524.648 1702.28 478.356 1670.11 491.363 1637.6 C 450.229 1620.72 401.217 1584.05 372.46 1551.09 C 313.916 1483.98 295.348 1392.35 294.173 1305.66 C 293.601 1263.4 295.674 1221.91 296.103 1179.63 C 296.251 1151.34 295.113 1123.06 292.691 1094.87 C 290.039 1063.57 285.029 1032.35 279.653 1001.57 C 271.051 952.332 240.751 859.361 256.151 813.611 C 255.725 799.825 256.301 789.468 257.444 775.859 z"/>
<path transform="translate(0,0)" fill="rgb(254,135,148)" d="M 566.754 1376.83 C 568.533 1340.65 574.249 1299.49 576.827 1262.86 C 577.717 1250.2 581.518 1206.01 583.948 1196.46 C 599.184 1260.1 625.301 1311.66 636.764 1374.29 L 637.651 1375.51 L 639.14 1375.53 C 648.581 1375.71 652.329 1375.71 660.947 1379.59 C 667.93 1385.04 671.489 1387.62 676.991 1394.74 L 677.148 1381.78 C 679.315 1376.33 675.588 1368.02 679.657 1364.08 C 682.688 1363.7 685.9 1363.47 688.958 1363.19 L 687.684 1364.69 C 689.858 1366.92 879.337 1414.61 896.996 1418.34 C 899.858 1421.08 902.372 1437.5 903.513 1442.92 L 892.72 1454.03 C 899.389 1496.02 902.97 1538.45 903.436 1580.96 L 892.659 1591.85 C 894.992 1595.68 903.01 1608.29 903.148 1612.33 C 904.663 1656.73 907.994 1704.23 906.527 1748.37 C 895.422 1745.96 866.692 1736.04 855.294 1732.33 L 760.292 1701.67 C 732.289 1727.72 718.409 1723.76 682.873 1720.87 C 646.683 1729.61 584.097 1725.35 549.807 1712.04 C 524.648 1702.28 478.356 1670.11 491.363 1637.6 C 502.25 1625.36 507.869 1623.32 523.671 1621.51 C 522.971 1613.87 523.036 1607.54 527.392 1601.14 L 527.713 1599.83 C 513.139 1597.55 501.298 1601.67 485.293 1595.45 C 453.377 1583.04 452.685 1540.22 474.074 1518.13 C 480.575 1511.41 486.186 1509.11 494.505 1506.01 C 491.86 1491.72 491.191 1479.16 490.518 1464.77 C 489.81 1460.79 478.705 1449.36 475.687 1445.02 C 457.098 1418.34 460.644 1397.84 487.358 1379.38 C 507.141 1368.03 530.66 1360.94 553.258 1369.07 C 557.401 1370.56 562.224 1374.85 566.754 1376.83 z"/>
<path transform="translate(0,0)" fill="rgb(190,197,210)" d="M 679.657 1364.08 C 682.688 1363.7 685.9 1363.47 688.958 1363.19 L 687.684 1364.69 C 689.858 1366.92 879.337 1414.61 896.996 1418.34 C 899.858 1421.08 902.372 1437.5 903.513 1442.92 L 892.72 1454.03 C 899.389 1496.02 902.97 1538.45 903.436 1580.96 L 892.659 1591.85 C 894.992 1595.68 903.01 1608.29 903.148 1612.33 C 904.663 1656.73 907.994 1704.23 906.527 1748.37 C 895.422 1745.96 866.692 1736.04 855.294 1732.33 L 760.292 1701.67 C 768.517 1692.56 774.272 1684.81 781.396 1675 C 784.964 1667.32 789.436 1659.97 793.12 1651.61 C 803.367 1628.38 808.138 1607.28 810.594 1582.24 C 812.971 1560.35 810.668 1529.64 804.285 1508.89 C 797.6 1487.15 791.284 1474.97 771.323 1463.93 C 761.32 1461.83 756.547 1460.34 746.316 1461.66 L 740.405 1460.34 C 730.854 1457.17 709.636 1445.14 696.766 1440.28 L 694.956 1434.95 C 694.818 1423.88 682.747 1403.62 676.991 1394.74 L 677.148 1381.78 C 679.315 1376.33 675.588 1368.02 679.657 1364.08 z"/>
<path transform="translate(0,0)" fill="rgb(235,237,242)" d="M 694.956 1434.95 C 733.046 1440.98 774.637 1451.65 813.015 1458.63 C 822.227 1460.3 866.168 1468.97 872.156 1471.24 C 841.06 1469.99 801.177 1463.73 771.323 1463.93 C 761.32 1461.83 756.547 1460.34 746.316 1461.66 L 740.405 1460.34 C 730.854 1457.17 709.636 1445.14 696.766 1440.28 L 694.956 1434.95 z"/>
<path transform="translate(0,0)" fill="rgb(254,135,148)" d="M 810.594 1582.24 C 813.708 1585.65 816.651 1588.84 818.822 1592.97 C 833.553 1621 805.436 1661.04 781.396 1675 C 784.964 1667.32 789.436 1659.97 793.12 1651.61 C 803.367 1628.38 808.138 1607.28 810.594 1582.24 z"/>
<path transform="translate(0,0)" fill="rgb(150,121,240)" d="M 696.766 1440.28 C 709.636 1445.14 730.854 1457.17 740.405 1460.34 L 746.316 1461.66 C 756.547 1460.34 761.32 1461.83 771.323 1463.93 C 791.284 1474.97 797.6 1487.15 804.285 1508.89 C 810.668 1529.64 812.971 1560.35 810.594 1582.24 C 808.138 1607.28 803.367 1628.38 793.12 1651.61 C 789.436 1659.97 784.964 1667.32 781.396 1675 C 774.272 1684.81 768.517 1692.56 760.292 1701.67 C 732.289 1727.72 718.409 1723.76 682.873 1720.87 C 679.749 1719.02 672.102 1716.14 667.918 1713.99 C 651.966 1705.8 635.897 1693.85 628.117 1677.23 C 625.032 1670.63 621.2 1653.54 631.923 1651.47 C 649.99 1648 665.453 1665.56 681.049 1672.77 C 683.597 1673.51 685.093 1674.08 687.786 1674.18 C 684.054 1664.82 680.026 1655.58 675.707 1646.48 C 672.978 1645.13 669.909 1643.8 667.117 1642.52 C 643.49 1630.92 626.525 1612.9 638.525 1584.9 C 639.377 1584.17 641.559 1581.08 642.363 1580 C 669.077 1557.93 682.498 1607.6 696.317 1611.07 C 718.637 1616.69 717.767 1589.74 701.922 1575.73 C 688.298 1563.68 669.521 1551.58 662.024 1536.46 C 654.571 1521.41 672.07 1512.86 684.044 1509.2 C 699.812 1483.2 700.391 1470.42 696.766 1440.28 z"/>
<path transform="translate(0,0)" fill="rgb(254,135,148)" d="M 696.766 1440.28 C 709.636 1445.14 730.854 1457.17 740.405 1460.34 L 746.316 1461.66 C 703.351 1475.56 769.26 1540.53 761.8 1566.33 C 759.427 1574.53 744.188 1572.12 738.914 1569.05 C 728.129 1562.76 719.695 1542.96 716.31 1531.67 C 706.988 1515.75 703.434 1509.7 684.044 1509.2 C 699.812 1483.2 700.391 1470.42 696.766 1440.28 z"/>
<path transform="translate(0,0)" fill="rgb(190,197,210)" d="M 696.766 1440.28 C 709.636 1445.14 730.854 1457.17 740.405 1460.34 C 710.468 1467.06 715.727 1507.48 716.31 1531.67 C 706.988 1515.75 703.434 1509.7 684.044 1509.2 C 699.812 1483.2 700.391 1470.42 696.766 1440.28 z"/>
<path transform="translate(0,0)" fill="rgb(254,135,148)" d="M 675.707 1646.48 C 685.984 1650.88 706.121 1664.88 687.786 1674.18 C 684.054 1664.82 680.026 1655.58 675.707 1646.48 z"/>
<path transform="translate(0,0)" fill="rgb(248,249,250)" d="M 566.754 1376.83 C 568.533 1340.65 574.249 1299.49 576.827 1262.86 C 577.717 1250.2 581.518 1206.01 583.948 1196.46 C 599.184 1260.1 625.301 1311.66 636.764 1374.29 C 630.637 1382.96 608.725 1376.23 616.062 1411.41 C 620.152 1431.03 633.29 1461.93 622.68 1479.97 C 617.127 1489.42 602.081 1487.4 599.091 1472.47 C 594.709 1450.59 592.586 1428.49 584.981 1407.48 C 578.611 1389.95 575.361 1389.74 566.754 1376.83 z"/>
<path transform="translate(0,0)" fill="rgb(248,249,250)" d="M 543.633 1602.86 L 543.777 1599.6 C 548.368 1596.06 565.973 1597.71 571.867 1598.34 C 593.468 1600.64 612.05 1613.3 608.269 1637.42 C 606.794 1646.83 602.574 1657.46 590.632 1653.7 C 578.276 1649.8 568.565 1638.08 557.924 1631.02 C 554.914 1628.99 550.753 1627.22 547.333 1625.22 C 549.882 1624.97 552.238 1624.71 554.803 1624.58 C 544.688 1624.18 533.942 1622.48 523.671 1621.51 C 522.971 1613.87 523.036 1607.54 527.392 1601.14 L 527.713 1599.83 C 532.537 1599.05 537.792 1597.63 542.261 1598.98 C 543.374 1601.18 543.149 1600.43 543.633 1602.86 z"/>
<path transform="translate(0,0)" fill="url(#Gradient15)" d="M 527.713 1599.83 C 532.537 1599.05 537.792 1597.63 542.261 1598.98 C 543.374 1601.18 543.149 1600.43 543.633 1602.86 L 544.515 1604.21 C 553.939 1605.94 578.947 1609.5 580.415 1621.09 C 576.172 1627.8 562.112 1625.11 554.803 1624.58 C 544.688 1624.18 533.942 1622.48 523.671 1621.51 C 522.971 1613.87 523.036 1607.54 527.392 1601.14 L 527.713 1599.83 z"/>
<path transform="translate(0,0)" fill="rgb(253,185,73)" d="M 527.713 1599.83 C 532.537 1599.05 537.792 1597.63 542.261 1598.98 C 543.374 1601.18 543.149 1600.43 543.633 1602.86 L 544.515 1604.21 C 541.645 1608.12 536.712 1610.05 532.031 1607.83 C 528.643 1606.23 528.683 1604.38 527.392 1601.14 L 527.713 1599.83 z"/>
<path transform="translate(0,0)" fill="rgb(66,70,131)" d="M 490.518 1464.77 L 491.625 1463.61 C 498.116 1468.12 504.655 1473.19 511.458 1477.31 C 519.404 1482.12 554.847 1496.52 556.451 1504.59 C 555.541 1516.72 554.293 1529.93 553.727 1542 C 539.75 1538.14 540.441 1503.1 494.505 1506.01 C 491.86 1491.72 491.191 1479.16 490.518 1464.77 z"/>
<path transform="translate(0,0)" fill="rgb(253,159,173)" d="M 638.525 1584.9 C 619.546 1548.88 595.247 1512.95 571.356 1479.91 C 567.853 1475.06 549.974 1452.71 549.235 1448.77 L 550.392 1447.51 C 551.283 1447.54 551.737 1447.49 552.637 1447.89 C 566.606 1454.22 631.798 1561.26 642.363 1580 C 641.559 1581.08 639.377 1584.17 638.525 1584.9 z"/>
<path transform="translate(0,0)" fill="rgb(248,249,250)" d="M 556.451 1504.59 L 557.933 1503.92 C 569.646 1512.21 583.064 1537.46 577.24 1550.99 C 569.705 1557.75 556.078 1548.44 553.727 1542 C 554.293 1529.93 555.541 1516.72 556.451 1504.59 z"/>
<path transform="translate(0,0)" fill="rgb(253,159,173)" d="M 667.117 1642.52 C 669.909 1643.8 672.978 1645.13 675.707 1646.48 C 680.026 1655.58 684.054 1664.82 687.786 1674.18 C 685.093 1674.08 683.597 1673.51 681.049 1672.77 C 677.613 1664.53 671.879 1649.38 667.117 1642.52 z"/>
<path transform="translate(0,0)" fill="rgb(248,249,250)" d="M 256.151 813.611 C 258.633 824.822 260.524 835.285 263.967 846.988 C 280.208 902.182 347.712 955.303 406.516 947.724 C 412.964 946.893 419.677 942.651 424.95 938.769 C 437.259 941.704 443.726 942.502 454.611 949.292 C 449.135 974.875 444.088 1000.55 439.474 1026.3 C 436.324 1043.68 426.115 1089.06 435.732 1103.13 C 437.967 1106.39 441.527 1108.51 445.462 1108.91 C 447.614 1109.14 451.095 1108.77 453.236 1108.41 C 463.975 1106.02 474.225 1102.25 484.563 1099.58 C 506.675 1093.86 531.652 1097.06 553.109 1103.9 C 560.916 1106.28 584.574 1114.07 590.996 1114.85 C 589.268 1135.4 583.415 1178.49 583.948 1196.46 C 581.518 1206.01 577.717 1250.2 576.827 1262.86 C 574.249 1299.49 568.533 1340.65 566.754 1376.83 C 562.224 1374.85 557.401 1370.56 553.258 1369.07 C 530.66 1360.94 507.141 1368.03 487.358 1379.38 C 460.644 1397.84 457.098 1418.34 475.687 1445.02 C 478.705 1449.36 489.81 1460.79 490.518 1464.77 C 491.191 1479.16 491.86 1491.72 494.505 1506.01 C 486.186 1509.11 480.575 1511.41 474.074 1518.13 C 452.685 1540.22 453.377 1583.04 485.293 1595.45 C 501.298 1601.67 513.139 1597.55 527.713 1599.83 L 527.392 1601.14 C 523.036 1607.54 522.971 1613.87 523.671 1621.51 C 507.869 1623.32 502.25 1625.36 491.363 1637.6 C 450.229 1620.72 401.217 1584.05 372.46 1551.09 C 313.916 1483.98 295.348 1392.35 294.173 1305.66 C 293.601 1263.4 295.674 1221.91 296.103 1179.63 C 296.251 1151.34 295.113 1123.06 292.691 1094.87 C 290.039 1063.57 285.029 1032.35 279.653 1001.57 C 271.051 952.332 240.751 859.361 256.151 813.611 z"/>
<path transform="translate(0,0)" fill="rgb(66,70,131)" d="M 453.236 1108.41 C 463.975 1106.02 474.225 1102.25 484.563 1099.58 C 506.675 1093.86 531.652 1097.06 553.109 1103.9 C 560.916 1106.28 584.574 1114.07 590.996 1114.85 C 589.268 1135.4 583.415 1178.49 583.948 1196.46 C 581.518 1206.01 577.717 1250.2 576.827 1262.86 C 574.249 1299.49 568.533 1340.65 566.754 1376.83 C 562.224 1374.85 557.401 1370.56 553.258 1369.07 C 530.66 1360.94 507.141 1368.03 487.358 1379.38 C 476.993 1315.42 462.176 1252.02 455.455 1187.27 C 453.619 1169.58 452.179 1152.42 452.358 1134.61 C 452.418 1128.71 454.555 1112.49 453.236 1108.41 z"/>
<path transform="translate(0,0)" fill="rgb(54,59,117)" d="M 465.006 778.607 C 477.267 778.319 493.216 774.763 502.755 784.207 C 514.289 795.626 505.903 818.709 503.585 832.58 C 499.095 857.998 503.967 880.268 521.22 900.023 C 535.933 916.87 560.644 925.896 562.276 950.903 C 564.347 982.626 505.068 1003.94 500.197 1022.1 L 500.683 1024.26 C 518.098 1030.61 565.876 1013.59 596.696 1028.31 C 638.635 1048.33 625.934 1083.92 664.862 1107.31 C 679.296 1115.98 691.658 1115.17 700.962 1119.16 C 697.815 1126.07 696.234 1128.54 691.957 1134.9 C 691.975 1139.77 692.791 1142.43 690.608 1146.18 C 687.244 1147.39 686.29 1147.18 682.792 1147.12 C 678.221 1147.11 678.876 1146.39 675.829 1148.54 C 672.079 1157.86 676.323 1163.07 677.28 1171.1 L 679.685 1167.4 C 683.434 1167.96 688.296 1168.52 691.913 1169.27 C 692.058 1175.3 692.021 1184.81 692.859 1190.48 C 692.989 1212.02 694.261 1233.33 695.182 1254.83 C 695.481 1272.16 694.114 1285.28 694.15 1301.39 L 695.503 1302.04 C 695.665 1305.68 695.728 1310.53 696.08 1314.05 C 695.943 1321.3 692.854 1352.45 695.127 1355.69 C 698.776 1356.18 698.816 1356.09 702.279 1355.63 L 699.442 1357.58 C 700.672 1359.77 701.974 1359.91 704.554 1361.38 C 698.451 1362.95 696.221 1363.75 689.91 1362.74 L 688.958 1363.19 C 685.9 1363.47 682.688 1363.7 679.657 1364.08 C 675.588 1368.02 679.315 1376.33 677.148 1381.78 L 676.991 1394.74 C 671.489 1387.62 667.93 1385.04 660.947 1379.59 C 652.329 1375.71 648.581 1375.71 639.14 1375.53 L 637.651 1375.51 L 636.764 1374.29 C 625.301 1311.66 599.184 1260.1 583.948 1196.46 C 583.415 1178.49 589.268 1135.4 590.996 1114.85 C 584.574 1114.07 560.916 1106.28 553.109 1103.9 C 531.652 1097.06 506.675 1093.86 484.563 1099.58 C 474.225 1102.25 463.975 1106.02 453.236 1108.41 C 451.095 1108.77 447.614 1109.14 445.462 1108.91 C 441.527 1108.51 437.967 1106.39 435.732 1103.13 C 426.115 1089.06 436.324 1043.68 439.474 1026.3 C 444.088 1000.55 449.135 974.875 454.611 949.292 C 443.726 942.502 437.259 941.704 424.95 938.769 C 431.108 930.687 432.226 927.121 435.065 917.75 C 443.623 918.457 453.669 921.654 460.994 917.854 C 466.582 887.177 468.744 855.974 467.439 824.82 C 466.906 810.281 465.004 793.87 464.999 779.78 L 465.006 778.607 z"/>
<path transform="translate(0,0)" fill="rgb(66,70,131)" d="M 679.685 1167.4 C 683.434 1167.96 688.296 1168.52 691.913 1169.27 C 692.058 1175.3 692.021 1184.81 692.859 1190.48 C 692.989 1212.02 694.261 1233.33 695.182 1254.83 C 695.481 1272.16 694.114 1285.28 694.15 1301.39 L 695.503 1302.04 C 695.665 1305.68 695.728 1310.53 696.08 1314.05 C 695.943 1321.3 692.854 1352.45 695.127 1355.69 C 698.776 1356.18 698.816 1356.09 702.279 1355.63 L 699.442 1357.58 C 700.672 1359.77 701.974 1359.91 704.554 1361.38 C 698.451 1362.95 696.221 1363.75 689.91 1362.74 L 688.958 1363.19 C 685.9 1363.47 682.688 1363.7 679.657 1364.08 C 681.649 1355.74 680.199 1310.26 680.198 1298.6 L 680.168 1214.02 C 680.157 1200.44 680.702 1180.39 679.685 1167.4 z"/>
<path transform="translate(0,0)" fill="rgb(214,220,228)" d="M 694.15 1301.39 L 695.503 1302.04 C 695.665 1305.68 695.728 1310.53 696.08 1314.05 C 695.943 1321.3 692.854 1352.45 695.127 1355.69 C 698.776 1356.18 698.816 1356.09 702.279 1355.63 L 699.442 1357.58 C 700.672 1359.77 701.974 1359.91 704.554 1361.38 C 698.451 1362.95 696.221 1363.75 689.91 1362.74 C 691.965 1343.12 692.352 1321.54 694.15 1301.39 z"/>
<path transform="translate(0,0)" fill="rgb(244,112,87)" d="M 460.994 917.854 C 491.608 912.014 495.707 971.731 454.611 949.292 C 443.726 942.502 437.259 941.704 424.95 938.769 C 431.108 930.687 432.226 927.121 435.065 917.75 C 443.623 918.457 453.669 921.654 460.994 917.854 z"/>
<path transform="translate(0,0)" fill="rgb(214,220,228)" d="M 679.685 1167.4 C 680.702 1180.39 680.157 1200.44 680.168 1214.02 L 680.198 1298.6 C 680.199 1310.26 681.649 1355.74 679.657 1364.08 C 675.588 1368.02 679.315 1376.33 677.148 1381.78 C 675.76 1327.46 677.868 1272.41 676.961 1218.01 C 676.707 1202.71 676.666 1186.34 677.28 1171.1 L 679.685 1167.4 z"/>
<path transform="translate(0,0)" fill="rgb(248,249,250)" d="M 435.065 917.75 C 435.954 911.532 434.792 912.348 428.827 909.52 C 413.339 902.177 401.676 894.886 390.427 881.574 C 344.84 827.626 408.786 776.424 461.915 776.162 C 463.849 776.152 463.844 777.086 465.006 778.607 L 464.999 779.78 C 465.004 793.87 466.906 810.281 467.439 824.82 C 468.744 855.974 466.582 887.177 460.994 917.854 C 453.669 921.654 443.623 918.457 435.065 917.75 z"/>
<path transform="translate(0,0)" fill="rgb(248,249,250)" d="M 677.28 1171.1 C 676.323 1163.07 672.079 1157.86 675.829 1148.54 C 678.876 1146.39 678.221 1147.11 682.792 1147.12 C 691.979 1151.69 746.999 1158.47 759.546 1160.37 L 885.133 1179.36 L 955.779 1190.09 C 963.147 1191.21 970.985 1192.11 978.253 1193.47 C 995.257 1196.66 1011.48 1194.59 1028.68 1193.45 L 1090.67 1189.33 L 1149.19 1185.55 C 1157.48 1185.02 1172.59 1184.47 1180.39 1183.28 C 1191.03 1187.03 1199.91 1189.98 1210.89 1192.9 C 1217.48 1194.65 1228.72 1196.69 1234.64 1198.77 C 1239.23 1199.03 1247.67 1199.73 1251.95 1199.6 L 1254.86 1200.08 C 1262.11 1200.04 1267.77 1199.69 1275.01 1199.09 L 1275.06 1239.63 L 1278.06 1239.31 C 1295.93 1239.73 1316.43 1242.92 1334.04 1246.61 C 1330.11 1259.02 1323.86 1271.73 1319.59 1285.43 C 1316.15 1297.53 1313.56 1308.6 1310.42 1320.59 C 1299.44 1327.41 1260.9 1350.16 1254.05 1357.35 C 1250.35 1361.21 1247.77 1365.99 1246.57 1371.19 C 1245.41 1376.23 1246.16 1381.81 1247.25 1386.82 C 1233.87 1386.72 1221.04 1387.73 1211.74 1398.9 C 1203.01 1407.11 1189.27 1437.86 1181.46 1451.88 C 1161.36 1487.99 1138.58 1530.04 1113.4 1563.14 C 1112.56 1564.24 1109.28 1564.21 1107.56 1564.4 L 1106.51 1567.62 C 1104.18 1573.17 1106.62 1583.25 1107.78 1589.23 C 1107.09 1592.59 1108.46 1598.87 1109.04 1602.53 L 1116.48 1610.14 L 1099.52 1615.18 C 1104 1616.25 1108.47 1617.38 1112.92 1618.57 C 1113.7 1649.87 1116.74 1682.88 1117.19 1713.47 C 1115.06 1713.84 1108.27 1714.71 1106.91 1715.67 L 1108.72 1716.28 C 1099.75 1718.83 1080.25 1718.59 1073.85 1723.48 L 1073.61 1721.6 C 1067.29 1721.16 1050.34 1723.92 1045.1 1727.65 C 1034.44 1727.56 1019.75 1730.27 1008.95 1731.96 C 988.638 1735.12 968.35 1738.42 948.088 1741.88 C 935.601 1744.02 918.814 1747.52 906.527 1748.37 C 907.994 1704.23 904.663 1656.73 903.148 1612.33 C 903.01 1608.29 894.992 1595.68 892.659 1591.85 L 903.436 1580.96 C 902.97 1538.45 899.389 1496.02 892.72 1454.03 L 903.513 1442.92 C 902.372 1437.5 899.858 1421.08 896.996 1418.34 C 879.337 1414.61 689.858 1366.92 687.684 1364.69 L 688.958 1363.19 L 689.91 1362.74 C 696.221 1363.75 698.451 1362.95 704.554 1361.38 C 701.974 1359.91 700.672 1359.77 699.442 1357.58 L 702.279 1355.63 C 698.816 1356.09 698.776 1356.18 695.127 1355.69 C 692.854 1352.45 695.943 1321.3 696.08 1314.05 C 695.728 1310.53 695.665 1305.68 695.503 1302.04 L 694.15 1301.39 C 694.114 1285.28 695.481 1272.16 695.182 1254.83 C 694.261 1233.33 692.989 1212.02 692.859 1190.48 C 692.021 1184.81 692.058 1175.3 691.913 1169.27 C 688.296 1168.52 683.434 1167.96 679.685 1167.4 L 677.28 1171.1 z"/>
<path transform="translate(0,0)" fill="rgb(214,220,228)" d="M 1099.38 1391.36 L 1101.41 1391.35 C 1100.43 1407.62 1102.73 1409.35 1110.49 1424.3 L 1098.89 1433.24 C 1100.23 1452.54 1100.66 1472.01 1101.62 1491.34 C 1101.88 1496.65 1108.12 1499.93 1108.47 1505.27 C 1106.47 1506.06 1104.89 1506.72 1102.95 1507.64 C 1101.12 1513.36 1102.53 1555.33 1104.86 1562.61 L 1107.56 1564.4 L 1106.51 1567.62 C 1104.18 1573.17 1106.62 1583.25 1107.78 1589.23 C 1107.09 1592.59 1108.46 1598.87 1109.04 1602.53 L 1116.48 1610.14 L 1099.52 1615.18 C 1104 1616.25 1108.47 1617.38 1112.92 1618.57 C 1113.7 1649.87 1116.74 1682.88 1117.19 1713.47 C 1115.06 1713.84 1108.27 1714.71 1106.91 1715.67 L 1108.72 1716.28 C 1099.75 1718.83 1080.25 1718.59 1073.85 1723.48 L 1073.61 1721.6 C 1067.29 1721.16 1050.34 1723.92 1045.1 1727.65 C 1034.44 1727.56 1019.75 1730.27 1008.95 1731.96 C 988.638 1735.12 968.35 1738.42 948.088 1741.88 C 935.601 1744.02 918.814 1747.52 906.527 1748.37 C 907.994 1704.23 904.663 1656.73 903.148 1612.33 C 903.01 1608.29 894.992 1595.68 892.659 1591.85 L 903.436 1580.96 C 902.97 1538.45 899.389 1496.02 892.72 1454.03 L 903.513 1442.92 C 902.372 1437.5 899.858 1421.08 896.996 1418.34 C 915.124 1418.35 953.141 1411.94 973.052 1409.13 L 1099.38 1391.36 z"/>
<path transform="translate(0,0)" fill="url(#Gradient14)" d="M 1278.06 1239.31 C 1295.93 1239.73 1316.43 1242.92 1334.04 1246.61 C 1330.11 1259.02 1323.86 1271.73 1319.59 1285.43 C 1316.15 1297.53 1313.56 1308.6 1310.42 1320.59 C 1299.44 1327.41 1260.9 1350.16 1254.05 1357.35 C 1250.35 1361.21 1247.77 1365.99 1246.57 1371.19 C 1245.41 1376.23 1246.16 1381.81 1247.25 1386.82 C 1233.87 1386.72 1221.04 1387.73 1211.74 1398.9 C 1203.01 1407.11 1189.27 1437.86 1181.46 1451.88 C 1161.36 1487.99 1138.58 1530.04 1113.4 1563.14 C 1112.56 1564.24 1109.28 1564.21 1107.56 1564.4 L 1104.86 1562.61 C 1102.53 1555.33 1101.12 1513.36 1102.95 1507.64 C 1104.89 1506.72 1106.47 1506.06 1108.47 1505.27 C 1108.12 1499.93 1101.88 1496.65 1101.62 1491.34 C 1100.66 1472.01 1100.23 1452.54 1098.89 1433.24 L 1110.49 1424.3 C 1102.73 1409.35 1100.43 1407.62 1101.41 1391.35 C 1102.61 1384.82 1104.52 1377.25 1106.36 1370.83 C 1107.67 1366.27 1110.11 1366.99 1114.97 1364.67 C 1112.33 1363.91 1111.81 1364.01 1109.7 1362.36 C 1111.12 1353.23 1114.63 1347.14 1118.19 1338.91 C 1128.72 1314.53 1141.52 1293.49 1163.39 1277.81 C 1188.66 1259.7 1208.22 1264.59 1236.61 1269.51 C 1242.1 1259.99 1247.26 1254.74 1255.45 1247.7 L 1258.2 1245.71 C 1264.57 1241.8 1267.65 1240.23 1275.06 1239.63 L 1278.06 1239.31 z"/>
<path transform="translate(0,0)" fill="rgb(40,36,78)" d="M 1278.06 1239.31 C 1295.93 1239.73 1316.43 1242.92 1334.04 1246.61 C 1330.11 1259.02 1323.86 1271.73 1319.59 1285.43 C 1291.89 1280.31 1264.23 1275.01 1236.61 1269.51 C 1242.1 1259.99 1247.26 1254.74 1255.45 1247.7 L 1258.2 1245.71 C 1264.57 1241.8 1267.65 1240.23 1275.06 1239.63 L 1278.06 1239.31 z"/>
<path transform="translate(0,0)" fill="rgb(190,197,210)" d="M 677.28 1171.1 C 676.323 1163.07 672.079 1157.86 675.829 1148.54 C 678.876 1146.39 678.221 1147.11 682.792 1147.12 C 691.979 1151.69 746.999 1158.47 759.546 1160.37 L 885.133 1179.36 L 955.779 1190.09 C 963.147 1191.21 970.985 1192.11 978.253 1193.47 C 995.257 1196.66 1011.48 1194.59 1028.68 1193.45 L 1090.67 1189.33 L 1149.19 1185.55 C 1157.48 1185.02 1172.59 1184.47 1180.39 1183.28 C 1191.03 1187.03 1199.91 1189.98 1210.89 1192.9 C 1217.48 1194.65 1228.72 1196.69 1234.64 1198.77 C 1165.04 1204.38 1093.65 1208.16 1023.84 1212.7 L 1020.5 1212.81 C 1013.01 1213.28 1003.98 1213.63 996.681 1214.64 L 993.361 1214.68 C 898.144 1200.93 799.946 1183.7 705.111 1171.28 L 699.291 1266.53 C 698.746 1275.42 699.097 1294.21 697.901 1301.71 C 697.353 1305.49 696.794 1310.41 696.08 1314.05 C 695.728 1310.53 695.665 1305.68 695.503 1302.04 L 694.15 1301.39 C 694.114 1285.28 695.481 1272.16 695.182 1254.83 C 694.261 1233.33 692.989 1212.02 692.859 1190.48 C 692.021 1184.81 692.058 1175.3 691.913 1169.27 C 688.296 1168.52 683.434 1167.96 679.685 1167.4 L 677.28 1171.1 z"/>
<path transform="translate(0,0)" fill="rgb(248,249,250)" d="M 692.859 1190.48 C 693.143 1183.26 691.561 1173.41 695.523 1169.5 C 699.188 1169.59 697.368 1169.23 700.992 1171.44 C 702.605 1178.46 697.689 1242.66 696.717 1253.57 C 695.486 1254.84 696.111 1254.62 695.182 1254.83 C 694.261 1233.33 692.989 1212.02 692.859 1190.48 z"/>
<path transform="translate(0,0)" fill="rgb(235,237,242)" d="M 704.554 1361.38 C 716.634 1364.2 732.83 1370.02 745.267 1373.75 C 769.58 1381.18 794.117 1387.87 818.842 1393.79 C 828.971 1396.22 846.154 1400.51 856.007 1400.44 C 870.622 1407.01 920.239 1407.17 935.013 1400.25 C 942.713 1400.28 960.172 1396.69 968.252 1395.17 C 983.863 1392.17 999.453 1389.06 1015.02 1385.83 C 1021.64 1384.49 1039.04 1380.71 1045 1380.92 C 1058.35 1381.39 1086.85 1387.22 1099.38 1391.36 L 973.052 1409.13 C 953.141 1411.94 915.124 1418.35 896.996 1418.34 C 879.337 1414.61 689.858 1366.92 687.684 1364.69 L 688.958 1363.19 L 689.91 1362.74 C 696.221 1363.75 698.451 1362.95 704.554 1361.38 z"/>
<path transform="translate(0,0)" fill="rgb(248,249,250)" d="M 1254.86 1200.08 C 1262.11 1200.04 1267.77 1199.69 1275.01 1199.09 L 1275.06 1239.63 C 1267.65 1240.23 1264.57 1241.8 1258.2 1245.71 C 1257.68 1231.64 1256.4 1214 1254.86 1200.08 z"/>
<path transform="translate(0,0)" fill="rgb(214,220,228)" d="M 856.007 1400.44 C 871.168 1398.08 884.295 1396.27 896.814 1386.77 C 910.788 1394.8 919.183 1397.57 935.013 1400.25 C 920.239 1407.17 870.622 1407.01 856.007 1400.44 z"/>
<path transform="translate(0,0)" fill="rgb(190,197,210)" d="M 1020.5 1212.81 L 1023.84 1212.7 C 1021.79 1240.54 1020.59 1268.63 1018.67 1296.49 C 1017.61 1311.91 1017.21 1327.76 1015.07 1343.02 L 1014.08 1344.23 L 1014.38 1345.8 L 1014.24 1345.73 C 1011.27 1335.62 1019.48 1230.74 1020.5 1212.81 z"/>
<path transform="translate(0,0)" fill="rgb(190,197,210)" d="M 993.361 1214.68 L 996.681 1214.64 C 996.685 1228.93 997.761 1337.31 995.088 1341.69 L 995.92 1339.82 L 995.343 1342.61 C 991.257 1331.04 993.424 1233.91 993.361 1214.68 z"/>
<path transform="translate(0,0)" fill="rgb(66,70,131)" d="M 697.901 1301.71 C 698.8 1309.67 703.311 1350.17 702.279 1355.63 C 698.816 1356.09 698.776 1356.18 695.127 1355.69 C 692.854 1352.45 695.943 1321.3 696.08 1314.05 C 696.794 1310.41 697.353 1305.49 697.901 1301.71 z"/>
<path transform="translate(0,0)" fill="rgb(190,197,210)" d="M 1251.95 1199.6 L 1254.86 1200.08 C 1256.4 1214 1257.68 1231.64 1258.2 1245.71 L 1255.45 1247.7 C 1254.09 1231.68 1252.93 1215.65 1251.95 1199.6 z"/>
<path transform="translate(0,0)" fill="rgb(248,249,250)" d="M 1211.74 1398.9 C 1221.04 1387.73 1233.87 1386.72 1247.25 1386.82 C 1249.78 1391.26 1250.61 1392.53 1253.58 1396.5 C 1259.58 1404.52 1300.67 1422.05 1302.64 1426.77 C 1306.41 1426.1 1328.15 1436.13 1334.53 1438.28 C 1364.92 1448.53 1390.94 1452.95 1422.82 1454.92 L 1422.83 1581.73 C 1422.7 1588.16 1421.04 1603.6 1425.68 1607.8 C 1432.28 1613.76 1448.62 1614.36 1454.64 1607.06 C 1458.45 1601.7 1456.73 1588.58 1457.08 1581.72 C 1509.12 1588.55 1535.1 1599.37 1575.43 1632.26 C 1586.77 1645.29 1595.84 1656.44 1594.74 1675.3 C 1594.1 1686.18 1587.12 1697.2 1578.35 1703.63 C 1531.15 1738.26 1453.14 1741.88 1396.24 1735.83 C 1386.61 1734.8 1368.98 1732.15 1360.57 1729.69 C 1355.14 1733.9 1343.81 1741.92 1337.41 1744.16 C 1293 1759.68 1246.3 1766.65 1200.45 1776.59 C 1176.59 1781.76 1150.28 1783.26 1125.92 1784.97 C 1102.26 1786.66 1089.39 1771.23 1073.51 1756.79 C 1067.63 1751.5 1060.95 1747.1 1055.09 1741.39 C 1053.77 1738.18 1054.53 1736.8 1055.41 1733.39 L 1055.75 1732.14 C 1053.64 1730.16 1048.18 1728.72 1045.1 1727.65 C 1050.34 1723.92 1067.29 1721.16 1073.61 1721.6 L 1073.85 1723.48 C 1081.41 1727.63 1115.67 1725.63 1120.05 1718.29 C 1116.59 1715.4 1113.14 1716.03 1108.72 1716.28 L 1106.91 1715.67 C 1108.27 1714.71 1115.06 1713.84 1117.19 1713.47 C 1116.74 1682.88 1113.7 1649.87 1112.92 1618.57 C 1108.47 1617.38 1104 1616.25 1099.52 1615.18 L 1116.48 1610.14 L 1109.04 1602.53 C 1108.46 1598.87 1107.09 1592.59 1107.78 1589.23 C 1106.62 1583.25 1104.18 1573.17 1106.51 1567.62 L 1107.56 1564.4 C 1109.28 1564.21 1112.56 1564.24 1113.4 1563.14 C 1138.58 1530.04 1161.36 1487.99 1181.46 1451.88 C 1189.27 1437.86 1203.01 1407.11 1211.74 1398.9 z M 1296.53 1723.62 C 1301.12 1721.07 1302.49 1722.01 1306.94 1720.32 C 1301.67 1714.14 1288.09 1716.8 1280.42 1717.23 C 1270.81 1717.24 1253.75 1727.1 1240.5 1730.57 C 1224.86 1734.66 1211.62 1732.32 1201.38 1734.5 C 1196.35 1735.26 1187.2 1735.14 1182.14 1734.79 C 1173.55 1733.08 1153.14 1728.21 1145.74 1730.17 L 1144.64 1731.72 C 1146.43 1734.14 1151.63 1735.09 1154.87 1736.41 C 1167.11 1741.4 1164.88 1746.55 1179.63 1747.82 C 1190.34 1748.41 1200.08 1749.25 1210.84 1749.18 C 1214.32 1748.79 1252.11 1736.96 1254.66 1735.07 C 1271.11 1722.83 1281.88 1729.23 1296.53 1723.62 z"/>
<path transform="translate(0,0)" fill="rgb(115,103,225)" d="M 1457.08 1581.72 C 1509.12 1588.55 1535.1 1599.37 1575.43 1632.26 C 1586.77 1645.29 1595.84 1656.44 1594.74 1675.3 C 1594.1 1686.18 1587.12 1697.2 1578.35 1703.63 C 1531.15 1738.26 1453.14 1741.88 1396.24 1735.83 C 1386.61 1734.8 1368.98 1732.15 1360.57 1729.69 C 1333.93 1720.92 1305.84 1713.95 1289.36 1689.15 C 1272.15 1651.07 1315.23 1619.69 1344.25 1604.63 C 1372.56 1590.25 1392.2 1585.91 1422.83 1581.73 C 1422.7 1588.16 1421.04 1603.6 1425.68 1607.8 C 1432.28 1613.76 1448.62 1614.36 1454.64 1607.06 C 1458.45 1601.7 1456.73 1588.58 1457.08 1581.72 z"/>
<path transform="translate(0,0)" fill="rgb(150,121,240)" d="M 1344.25 1604.63 C 1341.87 1607.89 1340.98 1608.7 1337.72 1611.11 C 1325.08 1635.93 1377.63 1653.73 1395.02 1655.53 C 1393.29 1655.85 1391.56 1656.15 1389.82 1656.41 C 1387.99 1659.57 1390.67 1678.42 1390.3 1684.3 C 1389.47 1697.32 1388.05 1709.32 1385.29 1722.04 C 1391.25 1723.84 1396.91 1723.81 1403.14 1723.65 L 1403.18 1724.4 C 1382.94 1727.1 1318.74 1709.84 1301.53 1696.47 C 1296.26 1692.37 1292.43 1688.58 1289.34 1682.52 L 1289.36 1689.15 C 1272.15 1651.07 1315.23 1619.69 1344.25 1604.63 z"/>
<path transform="translate(0,0)" fill="rgb(40,36,78)" d="M 1211.74 1398.9 C 1221.04 1387.73 1233.87 1386.72 1247.25 1386.82 C 1249.78 1391.26 1250.61 1392.53 1253.58 1396.5 C 1259.58 1404.52 1300.67 1422.05 1302.64 1426.77 C 1305.13 1476.75 1291.39 1517.43 1259.36 1556.85 C 1256.31 1560.6 1254.74 1561.93 1250.25 1562.39 C 1247.27 1560.47 1235.97 1560.05 1231.92 1559.72 C 1229.1 1559.35 1228.73 1559.64 1226.63 1557.89 C 1223.62 1545.44 1221.66 1528.32 1219.99 1515.44 C 1214.65 1476.82 1211.9 1437.89 1211.74 1398.9 z"/>
<path transform="translate(0,0)" fill="rgb(54,59,117)" d="M 1230.72 1578.4 C 1235.37 1581.52 1237.28 1582.24 1242.73 1581.36 C 1244.9 1579.71 1244.58 1580.3 1246.01 1578.17 C 1249.34 1586.86 1254.39 1598.81 1239.31 1600.56 C 1224.31 1602.3 1196.47 1593.98 1184.42 1585.34 L 1184.48 1583.9 C 1191.44 1580.96 1222.68 1577.95 1230.72 1578.4 z"/>
<path transform="translate(0,0)" fill="rgb(253,185,73)" d="M 1231.92 1559.72 C 1235.97 1560.05 1247.27 1560.47 1250.25 1562.39 C 1248.15 1565.19 1246.24 1574.54 1246.01 1578.17 C 1244.58 1580.3 1244.9 1579.71 1242.73 1581.36 C 1237.28 1582.24 1235.37 1581.52 1230.72 1578.4 L 1231.92 1559.72 z"/>
<path transform="translate(0,0)" fill="rgb(54,59,117)" d="M 1107.78 1589.23 C 1106.62 1583.25 1104.18 1573.17 1106.51 1567.62 C 1109.26 1575 1114.02 1582.89 1107.78 1589.23 z"/>
<path transform="translate(0,0)" fill="rgb(248,249,250)" fill-opacity="0.745098" d="M 1201.38 1734.5 C 1211.62 1732.32 1224.86 1734.66 1240.5 1730.57 C 1253.75 1727.1 1270.81 1717.24 1280.42 1717.23 L 1284.68 1718.04 L 1284.2 1717.84 L 1287.8 1719.04 C 1286.88 1719.18 1285.95 1719.32 1285.02 1719.46 C 1286.64 1722.84 1293.11 1723.48 1296.53 1723.62 C 1281.88 1729.23 1271.11 1722.83 1254.66 1735.07 C 1252.11 1736.96 1214.32 1748.79 1210.84 1749.18 C 1212.13 1747.43 1212.56 1745.55 1213.31 1743.44 C 1212.06 1736.74 1207.51 1735.4 1201.38 1734.5 z"/>
<path transform="translate(0,0)" fill="rgb(248,249,250)" fill-opacity="0.768627" d="M 1179.63 1747.82 C 1164.88 1746.55 1167.11 1741.4 1154.87 1736.41 C 1151.63 1735.09 1146.43 1734.14 1144.64 1731.72 L 1145.74 1730.17 C 1153.14 1728.21 1173.55 1733.08 1182.14 1734.79 C 1178.1 1740.6 1177.44 1741.04 1179.63 1747.82 z"/>
<path transform="translate(0,0)" fill="rgb(214,220,228)" fill-opacity="0.560784" d="M 1280.42 1717.23 C 1288.09 1716.8 1301.67 1714.14 1306.94 1720.32 C 1302.49 1722.01 1301.12 1721.07 1296.53 1723.62 C 1293.11 1723.48 1286.64 1722.84 1285.02 1719.46 C 1285.95 1719.32 1286.88 1719.18 1287.8 1719.04 L 1284.2 1717.84 L 1284.68 1718.04 L 1280.42 1717.23 z"/>
<path transform="translate(0,0)" fill="rgb(131,55,115)" d="M 1412.12 1150.81 C 1462.41 1121.24 1503.48 1121.76 1559.38 1124.5 C 1591.35 1126.38 1658.41 1127.33 1652.29 1177.46 C 1649.23 1202.55 1640.12 1224.22 1638.5 1250.6 C 1637.44 1266.74 1637.92 1282.96 1639.94 1299.01 C 1642.8 1322.84 1649.69 1347.55 1637.16 1369.82 C 1627.33 1387.28 1613.46 1398.26 1596.01 1407.77 L 1592.71 1409.45 L 1585.67 1412.66 L 1582.1 1414.37 C 1537.56 1438.26 1507.28 1448.56 1457.04 1454.05 C 1445.26 1454.59 1434.63 1455.01 1422.82 1454.92 C 1390.94 1452.95 1364.92 1448.53 1334.53 1438.28 C 1328.15 1436.13 1306.41 1426.1 1302.64 1426.77 C 1300.67 1422.05 1259.58 1404.52 1253.58 1396.5 C 1250.61 1392.53 1249.78 1391.26 1247.25 1386.82 C 1246.16 1381.81 1245.41 1376.23 1246.57 1371.19 C 1247.77 1365.99 1250.35 1361.21 1254.05 1357.35 C 1260.9 1350.16 1299.44 1327.41 1310.42 1320.59 C 1313.56 1308.6 1316.15 1297.53 1319.59 1285.43 C 1323.86 1271.73 1330.11 1259.02 1334.04 1246.61 C 1337.9 1240.37 1345.17 1225.4 1349.02 1218.16 C 1368.47 1188.23 1382.37 1171.32 1412.12 1150.81 z"/>
<path transform="translate(0,0)" fill="rgb(149,74,132)" d="M 1511.46 1141.32 C 1521.44 1140.69 1537.73 1139.64 1544.19 1148.56 C 1560.78 1171.46 1539.72 1211.23 1535.41 1235.79 C 1532.66 1251.39 1528.91 1263.34 1528.92 1279.22 C 1528.13 1311.11 1539.64 1337.16 1567.68 1353.6 C 1575.94 1358.61 1586.31 1362.41 1593.11 1369.31 C 1602.66 1379.01 1590.06 1393.09 1582 1398.69 C 1527.7 1436.46 1459.04 1442.44 1395.22 1433.02 C 1363.41 1426.69 1332.58 1417.87 1304.41 1401.03 C 1296.66 1396.4 1284.99 1388.04 1283.33 1378.84 C 1282.9 1376.42 1282.83 1374.98 1284.72 1373.88 C 1289.2 1371.28 1296.33 1369.77 1301.52 1368.98 C 1323.47 1365.66 1343.9 1358.76 1359.15 1341.57 C 1380.04 1318.01 1379.84 1283.25 1387.45 1254.13 C 1392.07 1236.45 1399.66 1218.02 1410.66 1203.27 C 1433.53 1172.62 1473.56 1147.14 1511.46 1141.32 z"/>
<path transform="translate(0,0)" fill="rgb(40,36,78)" d="M 1361.13 874.213 L 1360.06 873.2 C 1352.86 866.34 1348.67 859.591 1358.5 851.974 C 1368.38 844.308 1383.21 838.869 1395.91 841.089 C 1424.27 848.775 1433.74 867.861 1465.54 844.872 C 1484.38 831.25 1503.65 817.273 1529.03 821.797 C 1549.33 825.417 1555.98 834.736 1578.55 833.483 C 1603.25 832.111 1614.69 820.136 1634 813.293 C 1675.17 798.695 1731.63 831.975 1754.18 866.062 C 1766.84 885.196 1773.54 906.294 1769.02 929.756 C 1761.28 969.901 1723.53 1000.16 1691.39 1022.1 C 1653.59 1047.9 1602.89 1063.96 1556.99 1055.78 C 1554.11 1055.27 1550.46 1054.32 1547.7 1053.37 C 1523.3 1043.68 1496.86 1029.1 1473.3 1017.07 C 1453.38 1006.91 1430.51 995.579 1412.4 982.722 C 1400.9 974.557 1398.22 968.599 1396.39 955.353 C 1395.53 943.125 1397.1 921.92 1395.04 910.87 C 1395.12 905.615 1386.69 890.992 1380.79 891.607 C 1379.62 893.92 1379.33 895.155 1377.26 896.626 C 1374.61 894.742 1375.58 895.947 1374.4 892.764 C 1378.06 880.056 1370.98 878.95 1361.13 874.213 z"/>
<path transform="translate(0,0)" fill="url(#Gradient13)" d="M 1395.04 910.87 C 1397.1 921.92 1395.53 943.125 1396.39 955.353 C 1398.22 968.599 1400.9 974.557 1412.4 982.722 C 1430.51 995.579 1453.38 1006.91 1473.3 1017.07 C 1496.86 1029.1 1523.3 1043.68 1547.7 1053.37 C 1546.85 1056.25 1558.04 1118.58 1559.38 1124.5 C 1503.48 1121.76 1462.41 1121.24 1412.12 1150.81 C 1382.37 1171.32 1368.47 1188.23 1349.02 1218.16 C 1345.17 1225.4 1337.9 1240.37 1334.04 1246.61 C 1316.43 1242.92 1295.93 1239.73 1278.06 1239.31 L 1275.06 1239.63 L 1275.01 1199.09 C 1267.77 1199.69 1262.11 1200.04 1254.86 1200.08 L 1251.95 1199.6 C 1247.67 1199.73 1239.23 1199.03 1234.64 1198.77 C 1228.72 1196.69 1217.48 1194.65 1210.89 1192.9 C 1199.91 1189.98 1191.03 1187.03 1180.39 1183.28 C 1162.76 1175.93 1148.55 1169.57 1131.68 1160.67 L 1121.16 1154.72 C 1116.97 1152.54 1114.74 1151.72 1112.71 1147.95 C 1113.8 1144.65 1114.64 1142.88 1114.57 1139.38 C 1112.29 1136.45 1112.67 1137.36 1108 1136.29 L 1120.67 1136.07 C 1134.93 1133.77 1173.26 1132.06 1188.15 1131.66 C 1193.63 1132.29 1200.92 1132.92 1206.22 1133.82 C 1218.73 1131.12 1230.43 1122.06 1236.89 1111.17 C 1243.53 1099.97 1246.48 1084.75 1250.32 1072.02 C 1258.52 1044.83 1268.05 1017.03 1283.73 993.204 C 1302.5 964.67 1338.26 945.909 1371.28 939.586 C 1381.74 936.783 1389.77 940.481 1393.59 929.097 C 1395.35 925.065 1394.6 916.466 1395.04 910.87 z"/>
<path transform="translate(0,0)" fill="url(#Gradient12)" d="M 1365.25 1048.79 C 1388.78 1070.31 1404.58 1094.95 1410 1126.76 C 1411.12 1133.31 1409.64 1145.35 1412.12 1150.81 C 1382.37 1171.32 1368.47 1188.23 1349.02 1218.16 L 1341.6 1191.9 C 1339.02 1182.83 1336.68 1174.59 1333.51 1165.68 C 1333.74 1164.19 1333.54 1164.3 1334.29 1163.2 C 1358.53 1127.92 1361.47 1090.41 1365.25 1048.79 z"/>
<path transform="translate(0,0)" fill="rgb(248,249,250)" d="M 1341.6 1191.9 L 1349.02 1218.16 C 1345.17 1225.4 1337.9 1240.37 1334.04 1246.61 C 1316.43 1242.92 1295.93 1239.73 1278.06 1239.31 L 1275.06 1239.63 L 1275.01 1199.09 L 1278.04 1198.34 C 1282.91 1197.95 1290.51 1195.84 1295.46 1194.65 C 1307.26 1194.97 1329.41 1192.92 1341.6 1191.9 z"/>
<path transform="translate(0,0)" fill="rgb(190,197,210)" d="M 1275.01 1199.09 L 1278.04 1198.34 C 1278.14 1211.99 1278.14 1225.65 1278.06 1239.31 L 1275.06 1239.63 L 1275.01 1199.09 z"/>
<path transform="translate(0,0)" fill="rgb(250,157,78)" d="M 1395.04 910.87 C 1397.1 921.92 1395.53 943.125 1396.39 955.353 C 1387.6 957.089 1362.51 963.203 1355.06 957.446 C 1353.9 949.278 1367.3 946.774 1371.28 939.586 C 1381.74 936.783 1389.77 940.481 1393.59 929.097 C 1395.35 925.065 1394.6 916.466 1395.04 910.87 z"/>
<path transform="translate(0,0)" fill="rgb(190,197,210)" d="M 1295.46 1194.65 C 1305.84 1188.97 1310.61 1186.14 1319.6 1178.38 C 1323.32 1175.16 1330.32 1167.3 1333.51 1165.68 C 1336.68 1174.59 1339.02 1182.83 1341.6 1191.9 C 1329.41 1192.92 1307.26 1194.97 1295.46 1194.65 z"/>
<path transform="translate(0,0)" fill="rgb(190,197,210)" d="M 1120.67 1136.07 C 1134.93 1133.77 1173.26 1132.06 1188.15 1131.66 C 1193.63 1132.29 1200.92 1132.92 1206.22 1133.82 C 1185.36 1142.69 1141.6 1141.69 1120.67 1136.07 z"/>
<path transform="translate(0,0)" fill="rgb(253,159,173)" d="M 983.881 1002 C 1024.33 1001.5 1064.77 1001.21 1105.22 1001.13 C 1117.04 1001.07 1171.04 999.967 1179.42 1002.45 C 1181.97 1011.6 1181.71 1107.67 1179.99 1119.69 C 1172.51 1121.17 1167.81 1121.12 1160.13 1121.29 L 1160.23 1121.53 C 1108.54 1123.89 1056.57 1128.36 1004.85 1130.92 C 998.392 1131.24 977.493 1133.59 973.311 1129.42 C 972.739 1124.6 972.38 1100.02 972.853 1096.2 C 974.463 1083.19 969.897 1010.57 974.617 1003.29 C 977.262 1001.29 979.802 1001.74 983.246 1001.68 L 983.881 1002 z"/>
<path transform="translate(0,0)" fill="url(#Gradient11)" d="M 983.881 1002 C 1024.33 1001.5 1064.77 1001.21 1105.22 1001.13 C 1117.04 1001.07 1171.04 999.967 1179.42 1002.45 C 1181.97 1011.6 1181.71 1107.67 1179.99 1119.69 C 1172.51 1121.17 1167.81 1121.12 1160.13 1121.29 C 1147.77 1116.72 1146.31 1100.54 1134.66 1093.35 C 1121.67 1085.34 1107.83 1092.64 1097.61 1085.07 L 1103.16 1084.8 C 1106.91 1082.41 1105.72 1083.99 1107.29 1080.3 C 1105.56 1077.95 1106.68 1078.86 1103.43 1078.12 C 1098.85 1077.66 1090.68 1077.88 1085.77 1077.88 C 1084.12 1074.78 1082.55 1072.49 1082.13 1069.02 C 1084.05 1066.37 1084.29 1067.13 1088.57 1066.15 C 1107.34 1066.1 1126.05 1065.12 1144.81 1065.45 C 1150.56 1065.55 1159.14 1065.23 1163.41 1061.04 C 1158.76 1057.38 1082.88 1060.05 1071.03 1059.99 C 1064.86 1055.25 1055.9 1055.15 1053.18 1048.1 C 1061.29 1048.03 1100.95 1047.95 1106.16 1046.7 C 1107.04 1044.15 1106.96 1045.45 1106.39 1042.81 C 1100.44 1039.71 1069.28 1041.2 1060.19 1041.14 C 1055.38 1040.52 1048.41 1040.76 1043.41 1040.76 C 1041.68 1036.66 1040.53 1033.12 1039.13 1028.91 C 1026.72 1028.92 1002.25 1030.04 990.74 1028.01 L 989.787 1024.89 C 994.642 1020.34 1025.32 1022.2 1034.49 1022.23 C 1018.09 1006.63 998.691 1023.78 983.881 1002 z"/>
<path transform="translate(0,0)" fill="rgb(248,249,250)" d="M 1034.49 1022.23 L 1121.36 1022.21 C 1128.59 1022.19 1156.63 1020.97 1161.23 1023.84 L 1162.7 1026.02 C 1159.69 1030.69 1134.38 1028.61 1128.03 1028.64 L 1039.13 1028.91 C 1026.72 1028.92 1002.25 1030.04 990.74 1028.01 L 989.787 1024.89 C 994.642 1020.34 1025.32 1022.2 1034.49 1022.23 z"/>
<path transform="translate(0,0)" fill="rgb(248,249,250)" d="M 1071.03 1059.99 C 1082.88 1060.05 1158.76 1057.38 1163.41 1061.04 C 1159.14 1065.23 1150.56 1065.55 1144.81 1065.45 C 1126.05 1065.12 1107.34 1066.1 1088.57 1066.15 L 1028.7 1067.48 C 1018.93 1067.68 999.361 1068.59 990.686 1067.01 L 989.378 1064.43 L 990.204 1066.85 L 989.449 1064.36 C 996.333 1059.4 1016.11 1061.03 1025.28 1060.96 C 1040.53 1060.72 1055.78 1060.4 1071.03 1059.99 z"/>
<path transform="translate(0,0)" fill="rgb(248,249,250)" d="M 1060.19 1041.14 C 1069.28 1041.2 1100.44 1039.71 1106.39 1042.81 C 1106.96 1045.45 1107.04 1044.15 1106.16 1046.7 C 1100.95 1047.95 1061.29 1048.03 1053.18 1048.1 C 1041.77 1047.65 998.331 1050.04 990.527 1047.23 L 989.582 1044.92 C 989.961 1044.29 991.768 1042.4 992.195 1042.37 C 1008.38 1041.01 1044.85 1042.54 1058.83 1041.27 L 1060.19 1041.14 z"/>
<path transform="translate(0,0)" fill="rgb(248,249,250)" d="M 1103.43 1078.12 C 1106.68 1078.86 1105.56 1077.95 1107.29 1080.3 C 1105.72 1083.99 1106.91 1082.41 1103.16 1084.8 L 1097.61 1085.07 C 1067.04 1082.97 1029.02 1088.18 997.882 1087.79 C 992.982 1087.73 991.364 1087.01 990.718 1082.59 C 993.927 1078.97 1086.17 1079.92 1102.18 1078.26 L 1103.43 1078.12 z"/>
<path transform="translate(0,0)" fill="rgb(131,55,115)" d="M 916.385 675.52 C 960.404 681.508 1033.15 677.039 1074.25 661.017 C 1086.22 689.771 1083.33 715.813 1071.57 744.449 C 1067.5 754.255 1062.54 763.673 1056.77 772.586 C 1021.88 752.051 985.818 733.586 948.76 717.287 L 926.158 708.743 C 921.009 707.354 915.849 706.004 910.68 704.693 C 916.219 692.467 918.93 688.689 916.385 675.52 z"/>
<path transform="translate(0,0)" fill="url(#Gradient10)" d="M 1422.82 1454.92 C 1434.63 1455.01 1445.26 1454.59 1457.04 1454.05 C 1457.04 1495.96 1456.36 1539.98 1457.08 1581.72 C 1456.73 1588.58 1458.45 1601.7 1454.64 1607.06 C 1448.62 1614.36 1432.28 1613.76 1425.68 1607.8 C 1421.04 1603.6 1422.7 1588.16 1422.83 1581.73 L 1422.82 1454.92 z"/>
<path transform="translate(0,0)" fill="rgb(40,36,78)" d="M 665.9 598.076 C 651.315 552.563 687.873 559.678 716.529 557.217 C 722.554 556.699 725.517 541.656 736.9 543.578 C 750.969 553.277 752.869 579.399 743.096 592.846 C 737.751 600.2 731.234 601.341 722.912 602.574 C 717.306 618.886 713.523 638.57 691.066 635.457 C 675.049 622.678 680.051 621.871 670.916 607.3 C 669.206 604.726 667.37 600.892 665.9 598.076 z"/>
<path transform="translate(0,0)" fill="rgb(253,185,73)" d="M 665.9 598.076 C 668.211 595.174 668.872 593.738 672.388 592.6 C 677.103 593.705 675.607 593.863 679.718 597.327 C 682.625 593.035 683.294 584.522 688.895 584.666 C 702.223 585.009 720.039 587.652 722.912 602.574 C 717.306 618.886 713.523 638.57 691.066 635.457 C 675.049 622.678 680.051 621.871 670.916 607.3 C 669.206 604.726 667.37 600.892 665.9 598.076 z"/>
<path transform="translate(0,0)" fill="rgb(254,135,148)" d="M 1353.62 433.199 L 1354.58 436.791 L 1356.51 437.192 C 1380.35 435.163 1408.42 456.317 1413.46 479.593 C 1413.93 481.742 1415.59 488.879 1416.3 490.386 C 1409.31 491.314 1371.15 490.237 1362.51 489.748 C 1348.17 488.935 1309.54 489.486 1297.1 487.238 C 1297.57 486.441 1301.33 473.78 1303 470.033 C 1310.99 452.028 1321.47 444.067 1340.2 439.013 C 1343.75 438.056 1349.92 436.966 1352.88 435.828 L 1353.62 433.199 z"/>
<path transform="translate(0,0)" fill="url(#Gradient9)" d="M 670.916 607.3 C 680.051 621.871 675.049 622.678 691.066 635.457 C 690.625 657.802 714.325 655.89 716.099 667.617 C 712.236 675.24 690.976 677.289 682.917 678.065 C 671.889 678.072 659.602 674.568 648.795 671.89 C 629.756 662.484 615.63 654.655 605.306 635.488 C 644.611 633.043 652.242 648.679 670.916 607.3 z"/>
<path transform="translate(0,0)" fill="rgb(214,220,228)" d="M 1004.68 1140.96 C 996.967 1140.96 969.405 1144.94 964.957 1140.91 C 963.69 1135.6 963.232 1130.01 963.179 1124.56 L 963.095 1041.78 C 963.104 1028.12 962.812 1013.28 963.643 999.618 C 963.862 996.009 964.269 996.355 966.476 994.1 C 971.13 992.312 974.988 992.832 980.028 992.913 C 980.925 995.441 982.189 999.36 983.246 1001.68 C 979.802 1001.74 977.262 1001.29 974.617 1003.29 C 969.897 1010.57 974.463 1083.19 972.853 1096.2 C 972.38 1100.02 972.739 1124.6 973.311 1129.42 C 977.493 1133.59 998.392 1131.24 1004.85 1130.92 C 1056.57 1128.36 1108.54 1123.89 1160.23 1121.53 C 1165 1122.61 1168.01 1123.95 1172.62 1125.47 C 1176.61 1126.78 1181.82 1127.12 1185.34 1128.17 L 1186.14 1128.3 C 1186.65 1129.23 1187.48 1130.99 1188.15 1131.66 C 1173.26 1132.06 1134.93 1133.77 1120.67 1136.07 L 1108 1136.29 L 1103.96 1135.55 C 1086.54 1131.86 1064.45 1130.45 1047.72 1137.89 C 1034.96 1138.7 1017.17 1139.33 1004.68 1140.96 z"/>
<path transform="translate(0,0)" fill="rgb(235,237,242)" d="M 1186.14 1128.3 C 1186.65 1129.23 1187.48 1130.99 1188.15 1131.66 C 1173.26 1132.06 1134.93 1133.77 1120.67 1136.07 L 1108 1136.29 L 1103.96 1135.55 C 1114.62 1130.9 1169.12 1132.92 1185.34 1128.17 L 1186.14 1128.3 z"/>
<path transform="translate(0,0)" fill="url(#Gradient8)" d="M 674.009 701.07 C 677.301 725.227 676.634 756.576 678.984 781.446 C 679.882 790.959 679.499 801.956 681.389 811.319 C 672.776 826.697 665.854 837.563 655.506 851.843 C 649.891 835.119 644.987 817.358 640.043 800.361 C 645.49 793.262 654.389 785.37 661.016 779.092 C 668.785 756.251 656.957 733.392 664.158 711.064 C 665.859 705.791 669.442 703.842 674.009 701.07 z"/>
<path transform="translate(0,0)" fill="rgb(190,197,210)" d="M 980.028 992.913 L 1104.92 992.945 C 1117.26 992.942 1178.12 991.799 1186.45 994.841 C 1192.49 1009.35 1185.27 1082.24 1188.38 1102.01 C 1189.11 1106.6 1188.75 1124.72 1186.14 1128.3 L 1185.34 1128.17 C 1181.82 1127.12 1176.61 1126.78 1172.62 1125.47 C 1168.01 1123.95 1165 1122.61 1160.23 1121.53 L 1160.13 1121.29 C 1167.81 1121.12 1172.51 1121.17 1179.99 1119.69 C 1181.71 1107.67 1181.97 1011.6 1179.42 1002.45 C 1171.04 999.967 1117.04 1001.07 1105.22 1001.13 C 1064.77 1001.21 1024.33 1001.5 983.881 1002 L 983.246 1001.68 C 982.189 999.36 980.925 995.441 980.028 992.913 z"/>
<path transform="translate(0,0)" fill="url(#Gradient7)" d="M 648.795 671.89 C 659.602 674.568 671.889 678.072 682.917 678.065 C 680.599 683.468 674.98 695.956 674.009 701.07 C 669.442 703.842 665.859 705.791 664.158 711.064 C 656.957 733.392 668.785 756.251 661.016 779.092 C 654.389 785.37 645.49 793.262 640.043 800.361 L 634.417 779.792 C 636.907 773.792 641.015 757.369 642.867 750.609 L 657.722 696.891 C 654.577 689.256 651.55 679.798 648.795 671.89 z"/>
<path transform="translate(0,0)" fill="rgb(250,111,186)" d="M 1074.25 661.017 C 1078.25 661.125 1088.87 660.855 1090.97 663.677 C 1098.78 677.019 1097.71 703.521 1095.6 718.345 C 1092.99 736.659 1085.71 761.046 1072.56 774.317 C 1068.83 778.084 1060.89 774.352 1056.77 772.586 C 1062.54 763.673 1067.5 754.255 1071.57 744.449 C 1083.33 715.813 1086.22 689.771 1074.25 661.017 z"/>
<path transform="translate(0,0)" fill="rgb(190,197,210)" d="M 1592.71 1409.45 L 1596.01 1407.77 C 1596.03 1425.19 1597.13 1571.23 1594.48 1574.88 C 1591.61 1566.28 1591 1547 1590.37 1537.07 L 1584.95 1452.36 C 1584.5 1445.39 1583.26 1419.57 1582.1 1414.37 L 1585.67 1412.66 L 1592.71 1409.45 z"/>
<path transform="translate(0,0)" fill="rgb(248,249,250)" d="M 1592.71 1409.45 C 1593.28 1426.75 1592.99 1445.07 1593.02 1462.42 C 1593.03 1471.98 1593.47 1490.21 1591.85 1499.06 C 1590.49 1492.43 1589.87 1476.96 1589.33 1469.23 C 1587.93 1450.39 1586.7 1431.53 1585.67 1412.66 L 1592.71 1409.45 z"/>
<path transform="translate(0,0)" fill="rgb(190,197,210)" d="M 1047.72 1137.89 C 1064.45 1130.45 1086.54 1131.86 1103.96 1135.55 L 1108 1136.29 C 1112.67 1137.36 1112.29 1136.45 1114.57 1139.38 C 1114.64 1142.88 1113.8 1144.65 1112.71 1147.95 L 1111.19 1147.09 C 1104.38 1148.41 1095.1 1148.3 1088.22 1149.16 C 1057.71 1152.97 1033.71 1148.37 1003.45 1144.34 L 1003.78 1143.71 L 1004.68 1140.96 C 1017.17 1139.33 1034.96 1138.7 1047.72 1137.89 z"/>
<path transform="translate(0,0)" fill="rgb(253,185,73)" d="M 1047.72 1137.89 C 1064.45 1130.45 1086.54 1131.86 1103.96 1135.55 L 1108 1136.29 C 1112.67 1137.36 1112.29 1136.45 1114.57 1139.38 C 1114.64 1142.88 1113.8 1144.65 1112.71 1147.95 L 1111.19 1147.09 C 1098.62 1141.37 1081.61 1144.42 1067.92 1143.1 C 1061.55 1142.48 1057.7 1141.36 1051.51 1139.65 L 1047.72 1137.89 z"/>
<path transform="translate(0,0)" fill="rgb(235,237,242)" d="M 1004.68 1140.96 C 1017.17 1139.33 1034.96 1138.7 1047.72 1137.89 L 1051.51 1139.65 C 1038.24 1140.82 1015.43 1141.49 1003.78 1143.71 L 1004.68 1140.96 z"/>
<path transform="translate(0,0)" fill="rgb(190,197,210)" d="M 1131.68 1160.67 C 1116.2 1161.77 1101.09 1163.05 1085.18 1164.29 C 1045.91 1167.34 1005.68 1154.71 966.671 1150.65 C 964.92 1150.47 963.417 1146.87 963.033 1145.31 L 964.103 1143.92 C 968.901 1143.5 984.304 1146.6 990.126 1147.4 C 1012.54 1150.5 1038.69 1155.53 1060.8 1158.15 C 1072.49 1159.53 1107.86 1155.77 1121.16 1154.72 L 1131.68 1160.67 z"/>
<path transform="translate(0,0)" fill="rgb(253,185,73)" d="M 1361.13 874.213 C 1370.98 878.95 1378.06 880.056 1374.4 892.764 C 1375.58 895.947 1374.61 894.742 1377.26 896.626 C 1379.33 895.155 1379.62 893.92 1380.79 891.607 C 1386.69 890.992 1395.12 905.615 1395.04 910.87 C 1394.6 916.466 1395.35 925.065 1393.59 929.097 C 1393.33 925.22 1393.47 921.413 1391.59 918.104 C 1387.51 917.422 1381.89 921.635 1377.47 921.937 C 1358.82 923.214 1360.98 885.867 1361.13 874.213 z"/>
<path transform="translate(0,0)" fill="rgb(244,112,87)" d="M 926.158 708.743 L 948.76 717.287 L 946.199 719.999 C 949.845 723.114 949.951 722.214 951.083 726.046 C 949.332 734.428 940.961 735.053 939.208 745.468 C 936.249 745.344 930.243 744.189 927.08 743.681 C 922.928 742.848 918.115 741.301 913.977 740.109 C 915.483 733.232 923.003 715.453 926.158 708.743 z"/>
<path transform="translate(0,0)" fill="rgb(250,111,186)" d="M 926.158 708.743 L 948.76 717.287 L 946.199 719.999 C 942.921 718.914 939.656 717.789 936.406 716.624 C 925.039 723.103 917.672 731.609 927.08 743.681 C 922.928 742.848 918.115 741.301 913.977 740.109 C 915.483 733.232 923.003 715.453 926.158 708.743 z"/>
<path transform="translate(0,0)" fill="rgb(131,55,115)" d="M 1297.1 487.238 C 1309.54 489.486 1348.17 488.935 1362.51 489.748 C 1371.15 490.237 1409.31 491.314 1416.3 490.386 C 1419.81 492.094 1418.55 490.881 1420.57 493.74 L 1419.69 495.462 C 1413.99 497.774 1296.13 494.654 1292.58 492.466 L 1292.25 490.871 C 1294.26 487.416 1292.84 488.751 1297.1 487.238 z"/>
<path transform="translate(0,0)" fill="rgb(254,135,148)" d="M 1352.9 291.365 C 1352.96 285.65 1352.26 270.264 1355.06 266.623 C 1358.17 271.188 1357.37 289.894 1357.46 296.464 C 1356.49 308.046 1356.94 323.829 1356.96 335.741 L 1357.1 401.235 C 1357.11 409.849 1357.56 429.493 1356.51 437.192 L 1354.58 436.791 L 1353.62 433.199 C 1352.67 421.104 1353.54 407.228 1353.25 394.933 C 1352.49 361.412 1354.66 324.451 1352.9 291.365 z"/>
<path transform="translate(0,0)" fill="rgb(250,111,186)" d="M 910.68 704.693 C 906.545 696.809 905.894 677.259 916.385 675.52 C 918.93 688.689 916.219 692.467 910.68 704.693 z"/>
<path transform="translate(0,0)" fill="rgb(250,157,78)" d="M 1279.1 708.399 C 1283.34 711.696 1328.55 761.167 1332.84 766.693 L 1321.48 792.534 C 1335.21 801.039 1349.65 811.006 1363.19 819.989 L 1347.75 819.538 C 1330.37 818.455 1312.96 818.468 1295.38 817.146 C 1299.08 806.275 1302.61 793.873 1306.02 782.799 L 1261 755.051 C 1266.62 739.761 1273.07 723.526 1279.1 708.399 z"/>
<path transform="translate(0,0)" fill="rgb(250,157,78)" d="M 1367.41 689.758 C 1382.33 689.873 1397.25 689.788 1412.17 689.503 C 1412.57 716.528 1410.64 749.73 1409.72 777.183 L 1384.84 779.04 L 1384.05 805.412 C 1383.98 810.379 1383.86 815.345 1383.69 820.31 L 1363.6 764.509 L 1380.83 760.538 C 1375.91 739.069 1371.57 711.813 1367.41 689.758 z"/>
<path transform="translate(0,0)" fill="rgb(250,157,78)" d="M 1505.9 743.629 C 1510.84 746.725 1530.41 765.858 1535.49 770.703 C 1513.35 786.495 1490.08 802.157 1467.65 817.655 C 1462.45 813.359 1456.92 809.128 1451.6 804.952 L 1439.47 811.131 C 1431.59 815.217 1424.21 818.648 1416.16 822.322 C 1428.57 806.862 1441.1 791.502 1453.76 776.242 L 1467.45 787.376 C 1480.1 774.034 1493.7 757.644 1505.9 743.629 z"/>
<path transform="translate(0,0)" fill="url(#Gradient6)" d="M 713.336 412.808 C 720.319 413.017 729.132 414.801 735.913 416.513 C 734.165 435.757 729.942 459.099 727.379 478.78 C 724.648 485.125 715.908 483.062 711.638 480.026 C 708.268 475.369 712.174 422.093 713.336 412.808 z"/>
<path transform="translate(0,0)" fill="url(#Gradient5)" d="M 621.503 438.119 C 623.438 437.909 623.595 438.145 625.587 438.503 C 629.683 443.104 644.877 497.226 643.114 501.798 C 639.003 504.553 634.625 505.264 629.776 506.518 C 624.612 498.389 608.182 454.479 603.809 443.266 C 609.17 441.067 615.815 439.595 621.503 438.119 z"/>
<path transform="translate(0,0)" fill="url(#Gradient4)" d="M 834.934 464.96 C 840.115 466.8 846.484 477.28 849.758 481.957 C 842.135 490.098 810.415 514.219 800.275 522.276 C 797.572 523.134 798.944 522.932 796.074 522.371 C 791.768 519.276 790.139 516.05 787.202 511.621 C 793.299 504.146 827.191 471.378 834.934 464.96 z"/>
<path transform="translate(0,0)" fill="url(#Gradient3)" d="M 641.202 515.163 C 647.644 513.182 654.48 516.763 656.52 523.187 C 658.559 529.612 655.041 536.48 648.635 538.578 C 642.146 540.702 635.17 537.128 633.104 530.621 C 631.039 524.113 634.676 517.17 641.202 515.163 z"/>
<path transform="translate(0,0)" fill="rgb(254,135,148)" d="M 772.584 521.786 C 776.971 521.201 781.332 523.024 783.998 526.556 C 786.665 530.088 787.223 534.781 785.459 538.84 C 783.695 542.898 779.882 545.693 775.481 546.153 C 768.808 546.851 762.812 542.06 762.02 535.397 C 761.228 528.735 765.934 522.672 772.584 521.786 z"/>
<path transform="translate(0,0)" fill="url(#Gradient2)" d="M 711.151 494.599 C 715.219 492.844 719.917 493.418 723.442 496.102 C 726.967 498.786 728.771 503.162 728.161 507.55 C 727.551 511.938 724.623 515.657 720.499 517.278 C 714.268 519.728 707.222 516.728 704.67 510.537 C 702.118 504.346 705.003 497.252 711.151 494.599 z"/>
<path transform="translate(0,0)" fill="rgb(54,59,117)" d="M 1107.06 767.422 C 1115.52 768.446 1148.63 798.536 1156.98 805.039 C 1158.97 806.585 1158.34 808.508 1158.22 810.707 C 1149.86 811.012 1117.09 780.246 1108.64 773.888 C 1106.32 772.139 1106.83 769.833 1107.06 767.422 z"/>
<path transform="translate(0,0)" fill="rgb(54,59,117)" d="M 1120.06 732.61 C 1127.19 733.224 1169.58 750.857 1178.77 755.122 C 1180.77 756.052 1180.1 759.208 1180.02 761.473 C 1171.59 760.028 1130.66 743.263 1120.81 737.841 C 1119.7 737.228 1120.08 734.383 1120.06 732.61 z"/>
<path transform="translate(0,0)" fill="url(#Gradient1)" d="M 1186.64 691.417 C 1191.51 690.782 1192.28 690.238 1195.48 694.109 L 1194.98 695.621 C 1188.97 699.186 1151.66 700.793 1141.27 701.885 C 1136.73 702.206 1133.04 703.563 1130.69 699.362 L 1131.66 697.8 C 1139.32 693.94 1175.84 692.238 1186.64 691.417 z"/>
</svg>