<svg version="1.1" xmlns="http://www.w3.org/2000/svg" style="display: block;" viewBox="0 0 2048 2048" width="2000" height="2000" preserveAspectRatio="none">
<defs>
	<linearGradient id="Gradient1" gradientUnits="userSpaceOnUse" x1="1820.4" y1="322.226" x2="1856.77" y2="344.781">
		<stop class="stop0" offset="0" stop-opacity="1" stop-color="rgb(238,194,214)"/>
		<stop class="stop1" offset="1" stop-opacity="1" stop-color="rgb(254,254,253)"/>
	</linearGradient>
	<linearGradient id="Gradient2" gradientUnits="userSpaceOnUse" x1="365.102" y1="1336.55" x2="399.322" y2="1406.24">
		<stop class="stop0" offset="0" stop-opacity="1" stop-color="rgb(114,85,160)"/>
		<stop class="stop1" offset="1" stop-opacity="1" stop-color="rgb(159,121,170)"/>
	</linearGradient>
</defs>
<path transform="translate(0,0)" fill="rgb(20,46,80)" d="M 561.757 524.898 C 565.72 518.603 577.964 504.156 583.058 497.827 L 626.746 443.561 L 689.216 365.801 C 700.395 351.908 723.198 315.933 743.56 322.748 C 765.58 330.118 790.499 345.37 811.443 356.602 L 916.656 412.975 L 979.892 446.766 C 990.196 452.284 1001.18 458.038 1011.26 464.035 C 1013.33 465.271 1017.54 471.357 1019.45 473.793 C 1021.93 480.001 1025.63 492.947 1021.52 498.447 C 980.004 553.999 934.348 606.846 891.66 661.607 C 886.474 668.26 882.462 668.866 874.404 666.933 C 872.391 661.079 869.265 645.727 867.771 639.198 C 863.862 622.419 860.081 605.611 856.43 588.775 C 832.32 596.596 805.094 603.229 780.564 610.519 C 769.533 613.797 738.483 622.82 728.574 623.726 C 717.825 619.637 680.682 599.283 668.845 592.702 C 635.236 574.017 597.493 555.669 564.676 536.313 C 563.278 532.988 562.523 528.503 561.757 524.898 z"/>
<path transform="translate(0,0)" fill="rgb(60,95,128)" d="M 585.886 537.837 L 684.091 415.771 C 699.413 396.723 720.655 371.91 734.497 352.774 C 743.43 357.577 755.88 363.801 764.321 368.886 L 662.795 495.222 C 651.146 509.685 625.535 539.551 615.834 553.934 L 585.886 537.837 z"/>
<path transform="translate(0,0)" fill="rgb(186,198,214)" d="M 561.757 524.898 L 585.886 537.837 L 615.834 553.934 C 652.08 573.284 689.828 592.943 725.719 612.832 C 766.629 601.585 813.784 589.548 853.879 577.052 L 856.43 588.775 C 832.32 596.596 805.094 603.229 780.564 610.519 C 769.533 613.797 738.483 622.82 728.574 623.726 C 717.825 619.637 680.682 599.283 668.845 592.702 C 635.236 574.017 597.493 555.669 564.676 536.313 C 563.278 532.988 562.523 528.503 561.757 524.898 z"/>
<path transform="translate(0,0)" fill="rgb(186,198,214)" d="M 874.404 666.933 C 884.801 653.133 897.771 637.765 908.694 624.169 L 976.702 539.583 C 989.556 523.633 1004.3 506.552 1016.05 489.842 C 1018.93 485.739 1019.03 478.949 1019.45 473.793 C 1021.93 480.001 1025.63 492.947 1021.52 498.447 C 980.004 553.999 934.348 606.846 891.66 661.607 C 886.474 668.26 882.462 668.866 874.404 666.933 z"/>
<path transform="translate(0,0)" fill="rgb(60,95,128)" d="M 888.288 464.713 C 905.968 472.97 932.759 487.981 950.12 497.778 C 941.778 507.635 933.525 518.126 925.408 528.214 C 916.9 532.01 911.386 527.108 904.046 522.824 C 907.906 518.357 917.448 508.931 916.672 503.301 C 910.972 496.491 885.667 484.422 876.283 479.515 L 888.288 464.713 z"/>
<path transform="translate(0,0)" fill="rgb(60,95,128)" d="M 903.879 446.822 C 912.283 446.642 916.316 450.025 923.785 454.234 L 910.67 471.206 L 891.26 460.796 C 895.625 455.33 898.524 451.351 903.879 446.822 z"/>
<path transform="translate(0,0)" fill="rgb(60,95,128)" d="M 873.17 483.061 C 878.246 485.325 887.353 490.643 892.553 493.466 L 880.848 508.139 C 880.34 508.58 879.306 508.775 878.549 509.008 C 872.483 506.476 864.791 503.914 863.787 496.663 C 865.508 492.029 869.982 487.094 873.17 483.061 z"/>
<path transform="translate(0,0)" fill="rgb(60,95,128)" d="M 948.565 467.549 C 967.147 476.645 966.148 479.461 952.683 493.779 L 935.254 484.454 C 939.762 478.875 944.199 473.239 948.565 467.549 z"/>
<path transform="translate(0,0)" fill="rgb(60,95,128)" d="M 927.898 456.534 C 931.834 458.158 940.619 463.16 944.746 465.359 C 940.319 470.545 935.621 476.825 931.365 482.259 L 914.595 473.306 L 927.898 456.534 z"/>
<path transform="translate(0,0)" fill="rgb(60,95,128)" d="M 896.499 495.517 L 913.088 504.534 L 899.932 520.946 L 883.411 511.867 L 896.499 495.517 z"/>
<path transform="translate(0,0)" fill="rgb(253,253,253)" d="M 700.146 506.786 C 706.378 506.961 716.433 510.854 717.592 517.876 C 716.86 521.136 715.407 521.92 712.884 524.165 C 706.881 523.832 697.288 519.977 695.573 513.555 C 696.83 509.136 696.507 510.454 700.146 506.786 z"/>
<path transform="translate(0,0)" fill="rgb(20,46,80)" d="M 699.287 509.703 C 705.317 509.899 714.048 513.569 714.439 520.466 C 708.033 521.218 698.224 517.682 699.287 509.703 z"/>
<path transform="translate(0,0)" fill="rgb(253,253,253)" d="M 754.01 439.738 C 759.898 439.972 770.064 443.89 771.523 450.429 C 770.115 454.835 770.516 453.497 766.778 457.07 C 760.832 457.003 750.704 452.959 749.517 446.121 C 750.139 442.901 751.609 442.026 754.01 439.738 z"/>
<path transform="translate(0,0)" fill="rgb(20,46,80)" d="M 753.137 442.662 C 757.517 442.946 764.769 445.755 767.507 449.5 C 768.627 451.031 767.846 451.978 767.472 454.006 C 761.125 453.688 752.143 450.308 753.137 442.662 z"/>
<path transform="translate(0,0)" fill="rgb(253,253,253)" d="M 782.339 405.827 C 788.712 407.468 797.308 410.302 798.637 417.35 C 797.504 420.845 796.129 421.411 793.182 423.636 C 786.885 422.722 777.335 419.034 776.604 411.787 C 777.918 408.436 779.366 407.885 782.339 405.827 z"/>
<path transform="translate(0,0)" fill="rgb(20,46,80)" d="M 781.46 408.813 C 787.877 410.755 796.01 412.762 794.818 420.383 C 790.741 420.114 782.014 417.222 780.27 413.072 C 779.604 411.49 780.674 410.508 781.46 408.813 z"/>
<path transform="translate(0,0)" fill="rgb(253,253,253)" d="M 714.245 489.778 C 720.558 490.727 729.167 493.698 731.168 500.348 C 730.712 503.881 729.33 504.643 726.733 507.151 C 720.613 507.179 710.337 503.174 709.191 496.119 C 709.986 492.735 711.518 492.01 714.245 489.778 z"/>
<path transform="translate(0,0)" fill="rgb(20,46,80)" d="M 713.331 492.526 C 720.016 494.168 728.725 496.415 726.964 504.369 C 722.836 503.784 715.078 501.05 712.85 497.125 C 711.87 495.399 712.735 494.609 713.331 492.526 z"/>
<path transform="translate(0,0)" fill="rgb(253,253,253)" d="M 768.293 422.76 C 774.329 423.826 783.756 427.057 784.957 433.888 C 784.105 437.444 782.875 438.003 780.074 440.381 C 773.553 439.83 764.707 436.08 763.051 429.133 C 763.97 425.671 765.457 425.007 768.293 422.76 z"/>
<path transform="translate(0,0)" fill="rgb(20,46,80)" d="M 767.372 425.543 C 774.047 427.257 782.484 429.526 780.96 437.384 C 776.835 436.86 768.89 434.097 766.725 430.122 C 765.825 428.469 766.751 427.497 767.372 425.543 z"/>
<path transform="translate(0,0)" fill="rgb(253,253,253)" d="M 793.913 389.679 C 800.579 389.484 810.182 392.799 812.07 399.929 C 811.647 403.191 810.418 403.948 808.12 406.343 C 801.559 406.245 792.048 403 790.072 396.06 C 790.455 392.801 791.633 392.079 793.913 389.679 z"/>
<path transform="translate(0,0)" fill="rgb(20,46,80)" d="M 793.074 392.736 C 799.749 392.213 808.419 395.786 809.032 403.248 C 802.377 403.372 793.781 400.15 793.074 392.736 z"/>
<path transform="translate(0,0)" fill="rgb(253,253,253)" d="M 672.184 541.004 C 679.001 540.416 687.773 543.74 690.464 550.514 C 689.81 554.713 689.954 553.466 686.962 557.236 C 680.333 557.651 670.767 554.4 668.484 547.517 C 669.267 543.452 669.154 544.596 672.184 541.004 z"/>
<path transform="translate(0,0)" fill="rgb(20,46,80)" d="M 672.093 543.589 C 678.155 543.729 687.652 547.037 687.014 554.346 C 682.211 554.539 675.546 551.996 672.442 548.098 C 671.011 546.303 671.751 546.054 672.093 543.589 z"/>
<path transform="translate(0,0)" fill="rgb(253,253,253)" d="M 686.369 523.846 C 692.594 523.777 702.627 527.545 704.055 534.42 C 703.254 537.995 702.295 538.391 699.515 540.776 C 693.388 540.798 683.579 536.876 682.126 530.09 C 682.661 526.889 684 526.119 686.369 523.846 z"/>
<path transform="translate(0,0)" fill="rgb(20,46,80)" d="M 685.36 526.772 C 691.473 526.691 701.313 530.074 700.379 537.697 C 696.467 537.796 689.878 535.224 687.051 532.392 C 684.559 529.895 685.343 530.545 685.36 526.772 z"/>
<path transform="translate(0,0)" fill="rgb(20,46,80)" d="M 1509.53 1408.41 C 1518.53 1416.95 1520.84 1416.3 1529.7 1422.48 C 1530.3 1424.51 1531.05 1426.41 1531.15 1428.46 C 1537.83 1456.2 1544.35 1495.42 1548.48 1524.2 C 1561.74 1530.64 1624.17 1558.43 1631.97 1565.05 L 1632.31 1566.39 C 1629.29 1569.93 1628.14 1573.78 1626.38 1578.15 C 1615.81 1577.17 1547.76 1553.14 1533.55 1548.57 C 1524.57 1545.68 1521.22 1535.67 1518.06 1527.42 L 1508.64 1503.86 C 1490.86 1525.66 1468.69 1531.24 1480.98 1561.86 C 1507.79 1572.65 1536.92 1583.29 1564.06 1593.27 C 1602.4 1607.36 1593.69 1620.7 1587.56 1655.43 L 1577.53 1712.06 L 1568.98 1760.17 C 1567.76 1767 1565.78 1780.01 1563.89 1786.06 C 1562.2 1786.92 1562.68 1786.85 1560.87 1787.18 C 1554.36 1785.57 1549.76 1784.38 1543.08 1784.9 C 1541.07 1786.6 1541.63 1785.49 1541.13 1788.14 C 1541.11 1787.83 1541.14 1787.51 1541.07 1787.2 C 1537.06 1767.87 1540.37 1720.71 1541.96 1699.42 C 1542.81 1676.28 1545.58 1657.74 1552.82 1635.73 C 1519.25 1625.9 1484.77 1617.77 1451.08 1608.19 C 1441.4 1605.44 1429.61 1601.85 1419.85 1600.23 C 1395.9 1618.37 1369.35 1635.82 1344.86 1653.46 C 1337.66 1658.64 1311.88 1677.33 1305.44 1680.29 C 1300.32 1682.7 1294.62 1683.59 1289.01 1682.86 C 1279.16 1681.52 1161.68 1612.43 1158.61 1607.78 C 1161.94 1602.97 1167.27 1594.96 1169.15 1589.55 C 1175.85 1588.06 1202.02 1602.62 1210.87 1604.48 C 1212.82 1604.89 1228.17 1610.82 1229.66 1611.67 C 1252.03 1618.91 1273.59 1629.13 1292.6 1642.99 C 1318.42 1615.45 1346.62 1587.66 1373.14 1560.51 L 1372.91 1558.76 C 1348.21 1557.53 1356.39 1541.83 1332.97 1535.56 C 1323.82 1536.78 1321.03 1537.16 1311.91 1539.42 C 1313.37 1532.31 1316.1 1525.52 1319.96 1519.37 C 1334.6 1496.07 1358.26 1492.84 1382.99 1487.13 C 1388.39 1485.36 1396.27 1483.57 1401.94 1482.1 C 1404.48 1476.59 1406.91 1471.03 1409.25 1465.43 C 1404.24 1464.11 1388.23 1456.64 1383.22 1454.19 C 1361.66 1443.63 1348.79 1446.04 1325.85 1447.07 C 1316.51 1447.49 1309.58 1441.73 1303.28 1435.07 C 1307.15 1424.97 1311.02 1415.27 1323.25 1414.19 C 1360.15 1410.92 1389.12 1426.88 1418.4 1447.1 C 1423.99 1437.33 1428.32 1430.22 1434.65 1420.84 C 1457.86 1431.99 1473.74 1440.8 1494.68 1419.09 L 1495.09 1421.4 C 1497.3 1417.53 1497.35 1417.24 1500.79 1414.58 C 1505.55 1412.53 1505.74 1412.15 1509.53 1408.41 z"/>
<path transform="translate(0,0)" fill="rgb(253,253,253)" d="M 1509.53 1408.41 C 1518.53 1416.95 1520.84 1416.3 1529.7 1422.48 C 1530.3 1424.51 1531.05 1426.41 1531.15 1428.46 C 1532.05 1460.87 1520.99 1476.97 1498.78 1499.81 C 1483.1 1515.92 1468.63 1534.08 1455.69 1552.49 C 1441.63 1548.45 1420.15 1542.99 1406.73 1538.21 L 1406.06 1538.28 L 1386.06 1532.47 C 1382.03 1539.77 1379.95 1557.59 1372.91 1558.76 C 1348.21 1557.53 1356.39 1541.83 1332.97 1535.56 C 1323.82 1536.78 1321.03 1537.16 1311.91 1539.42 C 1313.37 1532.31 1316.1 1525.52 1319.96 1519.37 C 1334.6 1496.07 1358.26 1492.84 1382.99 1487.13 C 1388.39 1485.36 1396.27 1483.57 1401.94 1482.1 C 1404.48 1476.59 1406.91 1471.03 1409.25 1465.43 C 1404.24 1464.11 1388.23 1456.64 1383.22 1454.19 C 1361.66 1443.63 1348.79 1446.04 1325.85 1447.07 C 1316.51 1447.49 1309.58 1441.73 1303.28 1435.07 C 1307.15 1424.97 1311.02 1415.27 1323.25 1414.19 C 1360.15 1410.92 1389.12 1426.88 1418.4 1447.1 C 1423.99 1437.33 1428.32 1430.22 1434.65 1420.84 C 1457.86 1431.99 1473.74 1440.8 1494.68 1419.09 L 1495.09 1421.4 C 1497.3 1417.53 1497.35 1417.24 1500.79 1414.58 C 1505.55 1412.53 1505.74 1412.15 1509.53 1408.41 z"/>
<path transform="translate(0,0)" fill="rgb(241,85,116)" d="M 1303.28 1435.07 C 1307.15 1424.97 1311.02 1415.27 1323.25 1414.19 C 1360.15 1410.92 1389.12 1426.88 1418.4 1447.1 C 1423.99 1437.33 1428.32 1430.22 1434.65 1420.84 C 1457.86 1431.99 1473.74 1440.8 1494.68 1419.09 L 1495.09 1421.4 C 1497.3 1417.53 1497.35 1417.24 1500.79 1414.58 C 1500.43 1434.65 1498.95 1449.63 1489.23 1467.61 L 1490.49 1467.38 C 1507.78 1464.05 1529.77 1443.68 1520.96 1426.17 C 1522.02 1423.94 1521.89 1423.98 1523.68 1422.32 L 1525.21 1422.17 C 1527.91 1426.3 1527.3 1437.83 1526.06 1442.68 C 1520.94 1462.67 1503.96 1478.8 1482.63 1479.25 L 1478.02 1480.2 C 1456.68 1479.9 1443.17 1476.89 1423.21 1470.29 C 1418.55 1468.7 1413.89 1467.08 1409.25 1465.43 C 1404.24 1464.11 1388.23 1456.64 1383.22 1454.19 C 1361.66 1443.63 1348.79 1446.04 1325.85 1447.07 C 1316.51 1447.49 1309.58 1441.73 1303.28 1435.07 z"/>
<path transform="translate(0,0)" fill="rgb(20,46,80)" d="M 1495.09 1421.4 C 1497.3 1417.53 1497.35 1417.24 1500.79 1414.58 C 1500.43 1434.65 1498.95 1449.63 1489.23 1467.61 C 1469.03 1469.03 1454.94 1463.67 1436.43 1456.12 C 1430.06 1453.24 1424.58 1450.37 1418.4 1447.1 C 1423.99 1437.33 1428.32 1430.22 1434.65 1420.84 C 1457.86 1431.99 1473.74 1440.8 1494.68 1419.09 L 1495.09 1421.4 z"/>
<path transform="translate(0,0)" fill="rgb(5,26,53)" d="M 1494.68 1419.09 L 1495.09 1421.4 C 1483.2 1442.06 1469.27 1443.57 1447.37 1444.4 L 1436.43 1456.12 C 1430.06 1453.24 1424.58 1450.37 1418.4 1447.1 C 1423.99 1437.33 1428.32 1430.22 1434.65 1420.84 C 1457.86 1431.99 1473.74 1440.8 1494.68 1419.09 z"/>
<path transform="translate(0,0)" fill="rgb(20,46,80)" d="M 1409.25 1465.43 C 1413.89 1467.08 1418.55 1468.7 1423.21 1470.29 C 1443.17 1476.89 1456.68 1479.9 1478.02 1480.2 C 1449.05 1502.93 1420.02 1497.78 1394.08 1515.25 C 1391.6 1521.01 1389.2 1527.05 1386.06 1532.47 C 1382.03 1539.77 1379.95 1557.59 1372.91 1558.76 C 1348.21 1557.53 1356.39 1541.83 1332.97 1535.56 C 1323.82 1536.78 1321.03 1537.16 1311.91 1539.42 C 1313.37 1532.31 1316.1 1525.52 1319.96 1519.37 C 1334.6 1496.07 1358.26 1492.84 1382.99 1487.13 C 1388.39 1485.36 1396.27 1483.57 1401.94 1482.1 C 1404.48 1476.59 1406.91 1471.03 1409.25 1465.43 z"/>
<path transform="translate(0,0)" fill="rgb(60,95,128)" d="M 1332.97 1535.56 C 1336.88 1533.57 1357.73 1528.29 1363.73 1526.47 C 1375.18 1522.98 1383.05 1519.91 1394.08 1515.25 C 1391.6 1521.01 1389.2 1527.05 1386.06 1532.47 C 1382.03 1539.77 1379.95 1557.59 1372.91 1558.76 C 1348.21 1557.53 1356.39 1541.83 1332.97 1535.56 z"/>
<path transform="translate(0,0)" fill="rgb(5,26,53)" d="M 1409.25 1465.43 C 1413.89 1467.08 1418.55 1468.7 1423.21 1470.29 C 1418.86 1474.85 1414.29 1479.8 1409.79 1484.16 C 1411.23 1487.26 1412.6 1488.59 1411.97 1491.17 C 1408.95 1489.88 1407.71 1488.36 1405.35 1486.11 C 1398.08 1487.69 1389.3 1490.82 1382.99 1487.13 C 1388.39 1485.36 1396.27 1483.57 1401.94 1482.1 C 1404.48 1476.59 1406.91 1471.03 1409.25 1465.43 z"/>
<path transform="translate(0,0)" fill="rgb(218,225,238)" d="M 1478.02 1480.2 L 1482.63 1479.25 C 1459.1 1510.96 1418.85 1497.19 1406.73 1538.21 L 1406.06 1538.28 L 1386.06 1532.47 C 1389.2 1527.05 1391.6 1521.01 1394.08 1515.25 C 1420.02 1497.78 1449.05 1502.93 1478.02 1480.2 z"/>
<path transform="translate(0,0)" fill="rgb(20,46,80)" d="M 1371.13 1585.88 C 1392.94 1602.7 1395.63 1597.93 1418.03 1600.04 L 1419.85 1600.23 C 1395.9 1618.37 1369.35 1635.82 1344.86 1653.46 C 1337.66 1658.64 1311.88 1677.33 1305.44 1680.29 C 1300.32 1682.7 1294.62 1683.59 1289.01 1682.86 C 1279.16 1681.52 1161.68 1612.43 1158.61 1607.78 C 1161.94 1602.97 1167.27 1594.96 1169.15 1589.55 C 1175.85 1588.06 1202.02 1602.62 1210.87 1604.48 C 1212.82 1604.89 1228.17 1610.82 1229.66 1611.67 C 1234.95 1620.79 1284.74 1640.4 1292.9 1654.61 C 1295.37 1658.91 1296.23 1661.27 1298.07 1665.81 C 1298.79 1659.4 1299.29 1655.84 1300.74 1649.56 L 1371.13 1585.88 z"/>
<path transform="translate(0,0)" fill="rgb(5,26,53)" d="M 1386.06 1532.47 L 1406.06 1538.28 C 1402.77 1555.7 1400.85 1572.51 1420.6 1580.58 C 1436.08 1586.91 1452.04 1591.99 1467.86 1597.45 L 1558.09 1628.59 C 1562.16 1626.6 1566.42 1624.6 1570.38 1622.44 C 1545.39 1649.69 1554.78 1682.04 1541.96 1699.42 C 1542.81 1676.28 1545.58 1657.74 1552.82 1635.73 C 1519.25 1625.9 1484.77 1617.77 1451.08 1608.19 C 1441.4 1605.44 1429.61 1601.85 1419.85 1600.23 L 1418.03 1600.04 C 1395.63 1597.93 1392.94 1602.7 1371.13 1585.88 L 1300.74 1649.56 C 1299.29 1655.84 1298.79 1659.4 1298.07 1665.81 C 1296.23 1661.27 1295.37 1658.91 1292.9 1654.61 C 1284.74 1640.4 1234.95 1620.79 1229.66 1611.67 C 1252.03 1618.91 1273.59 1629.13 1292.6 1642.99 C 1318.42 1615.45 1346.62 1587.66 1373.14 1560.51 L 1372.91 1558.76 C 1379.95 1557.59 1382.03 1539.77 1386.06 1532.47 z"/>
<path transform="translate(0,0)" fill="rgb(5,26,53)" d="M 1508.64 1503.86 C 1521.32 1486.99 1525.71 1478.34 1533.24 1458.6 C 1530.29 1477.91 1525.9 1489.35 1518.69 1507.33 C 1517.54 1510.19 1518.86 1522.24 1518.06 1527.42 L 1508.64 1503.86 z"/>
<path transform="translate(0,0)" fill="rgb(248,195,208)" d="M 1216.49 810.343 C 1219.42 800.551 1224.43 784.45 1233.61 779.351 C 1248.76 770.937 1260.27 799.647 1264.98 809.425 C 1284.68 815.695 1295.62 822.377 1308.72 838.202 C 1323.95 847.602 1333.27 858.385 1327.76 877.18 C 1328.47 886.135 1328.68 894.297 1327.18 903.227 C 1327.59 918.843 1358.32 964.774 1310.52 953.743 C 1307.73 950.967 1305.37 947.904 1301.65 947.094 L 1300.84 948.433 C 1304.22 961.955 1308.45 972.679 1294.52 980.836 C 1281.83 982.757 1279.47 980.335 1268.99 973.114 L 1262.13 977.332 C 1266.24 984.77 1266.68 986.046 1268.27 994.652 C 1265.4 1003.57 1264.33 1005.86 1255.94 1010.06 C 1239.97 1010.31 1228.3 999.165 1215.02 989.76 C 1213.62 989.235 1205.47 987.788 1203.27 987.215 C 1186.65 982.87 1177.72 978.903 1166 966.528 C 1163.49 964.799 1161.52 962.88 1159.24 960.854 L 1162.89 946.593 C 1145.06 940.15 1148.16 939.389 1146.47 922.153 C 1129.36 921.324 1141.34 891.09 1136.77 882.042 C 1133.27 879.794 1129.06 880.537 1124.3 879.893 L 1123.96 878.543 C 1126.8 874.521 1136.36 874.368 1141.12 873.867 C 1145.45 861.348 1149.34 853.526 1158.34 843.471 C 1161.77 838.984 1170.76 832.39 1172.49 827.23 C 1177.78 811.403 1184.8 810.28 1200.73 815.096 L 1216.49 810.343 z"/>
<path transform="translate(0,0)" fill="rgb(253,253,253)" d="M 1313.07 894.384 L 1310 896.651 L 1308.81 896.464 L 1313.72 891.752 C 1293.33 890.701 1276.01 875.843 1277.87 853.908 C 1277.99 852.485 1280.12 848.714 1280.65 846.248 C 1277.6 847.624 1277.64 848.222 1274.84 847.84 C 1281.15 840.26 1298.96 837.557 1308.72 838.202 C 1323.95 847.602 1333.27 858.385 1327.76 877.18 C 1323.47 883.448 1318.23 888.811 1313.07 894.384 z"/>
<path transform="translate(0,0)" fill="rgb(241,85,116)" d="M 1288.56 861.666 C 1291.05 860.164 1294.29 860.934 1295.83 863.397 C 1297.38 865.859 1296.67 869.107 1294.24 870.7 C 1292.62 871.757 1290.56 871.86 1288.85 870.969 C 1287.14 870.077 1286.04 868.331 1285.98 866.402 C 1285.92 864.473 1286.91 862.662 1288.56 861.666 z"/>
<path transform="translate(0,0)" fill="rgb(241,85,116)" d="M 1306.69 847.859 C 1308.3 846.811 1310.35 846.717 1312.05 847.614 C 1313.75 848.511 1314.83 850.257 1314.88 852.178 C 1314.92 854.099 1313.92 855.893 1312.26 856.865 C 1309.78 858.322 1306.59 857.531 1305.08 855.084 C 1303.56 852.636 1304.28 849.428 1306.69 847.859 z"/>
<path transform="translate(0,0)" fill="rgb(241,85,116)" d="M 1212.44 906.489 C 1209.83 921.399 1207.7 939.164 1205.96 954.36 C 1195.06 953.062 1184.17 951.696 1173.29 950.26 L 1166 966.528 C 1163.49 964.799 1161.52 962.88 1159.24 960.854 L 1162.89 946.593 C 1145.06 940.15 1148.16 939.389 1146.47 922.153 C 1165.44 917.344 1174.88 925.679 1190.72 933.396 C 1197.91 924.507 1205.4 915.463 1212.44 906.489 z"/>
<path transform="translate(0,0)" fill="rgb(218,156,182)" d="M 1215.02 989.76 C 1219.05 989.011 1229.02 986.993 1232.49 988.322 C 1230.27 991.726 1230.27 990.241 1230.82 993.068 C 1237.44 999.306 1247.89 1005.64 1255.94 1010.06 C 1239.97 1010.31 1228.3 999.165 1215.02 989.76 z"/>
<path transform="translate(0,0)" fill="rgb(218,156,182)" d="M 1268.99 973.114 C 1271.82 970.877 1273.45 968.874 1276.63 968.329 C 1278.38 977.213 1288.15 975.788 1294.52 980.836 C 1281.83 982.757 1279.47 980.335 1268.99 973.114 z"/>
<path transform="translate(0,0)" fill="rgb(218,156,182)" d="M 1327.76 877.18 C 1328.47 886.135 1328.68 894.297 1327.18 903.227 C 1327.11 897.864 1327.5 895.771 1323.11 892.387 C 1319.06 891.708 1317.1 892.916 1313.07 894.384 C 1318.23 888.811 1323.47 883.448 1327.76 877.18 z"/>
<path transform="translate(0,0)" fill="rgb(241,85,116)" d="M 1190.19 853.688 C 1190.04 855.503 1189.8 855.744 1189.2 857.508 L 1187.86 857.314 C 1181.43 848.274 1170.51 810.98 1193.87 818.401 C 1197.77 819.64 1206.04 822.594 1207.98 826.384 L 1206.77 827.435 C 1198.87 836.48 1194.35 842.237 1190.19 853.688 z"/>
<path transform="translate(0,0)" fill="rgb(207,57,86)" d="M 1190.19 853.688 C 1185.93 843.917 1198.76 831.522 1206.77 827.435 C 1198.87 836.48 1194.35 842.237 1190.19 853.688 z"/>
<path transform="translate(0,0)" fill="rgb(241,85,116)" d="M 1237.22 810.437 C 1235.83 810.992 1234.45 811.248 1232.98 811.612 L 1231.26 810.405 C 1227.23 802.577 1231.27 786.671 1238.6 781.677 C 1249.71 780.482 1260.84 805.265 1258.84 809.709 L 1257.03 809.105 C 1247.91 808.989 1245.98 809.267 1237.22 810.437 z"/>
<path transform="translate(0,0)" fill="rgb(207,57,86)" d="M 1237.22 810.437 L 1236.79 809.731 C 1240.16 804.768 1252.04 804.633 1257.1 807.546 L 1257.03 809.105 C 1247.91 808.989 1245.98 809.267 1237.22 810.437 z"/>
<path transform="translate(0,0)" fill="rgb(241,85,116)" d="M 1246.41 840.156 C 1250.84 839.232 1255.21 841.953 1256.34 846.335 C 1257.47 850.717 1254.95 855.212 1250.63 856.542 C 1247.65 857.459 1244.4 856.662 1242.18 854.469 C 1239.97 852.276 1239.13 849.041 1240.02 846.049 C 1240.9 843.057 1243.35 840.793 1246.41 840.156 z"/>
<path transform="translate(0,0)" fill="rgb(241,85,116)" d="M 1272.03 820.109 C 1276.53 818.836 1281.21 821.458 1282.48 825.962 C 1283.74 830.467 1281.11 835.142 1276.6 836.396 C 1272.11 837.646 1267.45 835.023 1266.19 830.533 C 1264.93 826.042 1267.54 821.379 1272.03 820.109 z"/>
<path transform="translate(0,0)" fill="rgb(246,216,71)" d="M 1066.33 1214.75 C 1075.4 1201.41 1081.61 1191.83 1099.4 1188.93 C 1148.74 1180.88 1213.59 1220.17 1224.94 1269.86 C 1228.14 1283.89 1222.62 1295.07 1214.68 1306.1 C 1180.83 1363.65 1032.38 1283.47 1066.33 1214.75 z"/>
<path transform="translate(0,0)" fill="rgb(241,199,45)" d="M 1214.68 1306.1 C 1180.83 1363.65 1032.38 1283.47 1066.33 1214.75 C 1069.48 1220.15 1068.69 1223.1 1069.54 1228.85 C 1077.1 1280.08 1147.04 1322.18 1196.07 1312.27 C 1201.62 1311.15 1208.68 1307.55 1214.68 1306.1 z"/>
<path transform="translate(0,0)" fill="rgb(241,199,45)" d="M 1113.47 1197.19 C 1180.86 1191.43 1260.4 1290.18 1181.2 1305.13 C 1107.21 1309.17 1035.72 1208.62 1113.47 1197.19 z"/>
<path transform="translate(0,0)" fill="rgb(209,154,45)" d="M 1116.55 1213.29 C 1119.39 1213.56 1141.19 1227.92 1145.06 1230.4 C 1135.52 1227.96 1116.62 1217.96 1108.78 1227.63 C 1108.14 1230.73 1108.54 1230.33 1108.52 1232.29 C 1108.44 1239.33 1121.21 1246.55 1126.49 1245.72 C 1144.5 1242.89 1157.01 1236.67 1174.69 1247.74 C 1179.6 1250.81 1183.33 1256.96 1183.9 1262.85 C 1184.68 1270.92 1187.3 1267.51 1191.05 1273.05 C 1189.74 1275.95 1189.36 1275.93 1187.18 1278.32 C 1183.36 1279.56 1182.76 1278.28 1178.11 1276.51 C 1174.7 1277.73 1175.64 1277.53 1172.93 1280.67 L 1172.74 1280.97 C 1170.01 1281.26 1150.82 1268.59 1147.6 1266.43 C 1158.17 1270.31 1171.62 1278.13 1180.07 1267.87 C 1181.6 1261.46 1177.34 1258.64 1172.15 1255.69 C 1160.85 1249.26 1154.16 1253.84 1143.1 1256.93 C 1127.89 1261.17 1112.3 1254.24 1106.36 1239.3 C 1102.69 1230.75 1104.23 1229.79 1095.96 1225.17 L 1100.94 1216.41 C 1105.26 1219.44 1106.8 1221.25 1112.21 1219.67 C 1115.04 1217.01 1115.33 1217.09 1116.55 1213.29 z"/>
<path transform="translate(0,0)" fill="rgb(42,26,78)" d="M 1667.12 1570.8 C 1696.77 1535.81 1689.68 1524.99 1727.9 1557 C 1738.26 1565.34 1769.46 1587.64 1772.04 1598.38 C 1771.42 1604.61 1762.71 1613.3 1758.25 1618.48 L 1720.95 1664.08 C 1714.43 1672.04 1700.84 1691.24 1691.56 1693.56 C 1683.56 1692.04 1652.39 1665.28 1644.6 1658.15 L 1634.97 1650.51 C 1629.3 1645.98 1620.59 1639.93 1620.1 1632.26 C 1619.58 1623.95 1638.02 1605.93 1643.72 1600.09 C 1636.51 1594.14 1635.26 1593.76 1636.15 1584.08 C 1631.99 1580.92 1631.12 1580.02 1626.38 1578.15 C 1628.14 1573.78 1629.29 1569.93 1632.31 1566.39 C 1636.17 1566.62 1644.95 1565.07 1650.71 1565.07 C 1659.75 1564.88 1660.01 1565.08 1667.12 1570.8 z"/>
<path transform="translate(0,0)" fill="rgb(42,26,78)" d="M 1667.12 1570.8 C 1696.77 1535.81 1689.68 1524.99 1727.9 1557 C 1717.7 1569.48 1707.32 1581.99 1697.28 1594.58 L 1695.93 1596.3 C 1688.18 1591.82 1659.03 1596.43 1650.21 1598.49 L 1643.72 1600.09 C 1636.51 1594.14 1635.26 1593.76 1636.15 1584.08 C 1631.99 1580.92 1631.12 1580.02 1626.38 1578.15 C 1628.14 1573.78 1629.29 1569.93 1632.31 1566.39 C 1636.17 1566.62 1644.95 1565.07 1650.71 1565.07 C 1659.75 1564.88 1660.01 1565.08 1667.12 1570.8 z"/>
<path transform="translate(0,0)" fill="rgb(248,150,120)" d="M 1632.31 1566.39 C 1636.17 1566.62 1644.95 1565.07 1650.71 1565.07 C 1656.13 1569.57 1664.62 1574.77 1657.47 1582.94 C 1655.54 1585.14 1653.38 1587.3 1650.91 1588.88 C 1643.54 1588.82 1644.22 1588.06 1639 1582.73 L 1636.15 1584.08 C 1631.99 1580.92 1631.12 1580.02 1626.38 1578.15 C 1628.14 1573.78 1629.29 1569.93 1632.31 1566.39 z"/>
<path transform="translate(0,0)" fill="rgb(72,40,104)" d="M 1650.21 1598.49 C 1659.03 1596.43 1688.18 1591.82 1695.93 1596.3 L 1691.82 1601 C 1692.36 1605.61 1694.67 1607.22 1694.75 1612.2 C 1692.12 1617.87 1686.02 1616 1681.86 1613.26 C 1671.18 1625.86 1655.15 1647.22 1644.6 1658.15 L 1634.97 1650.51 C 1629.3 1645.98 1620.59 1639.93 1620.1 1632.26 C 1619.58 1623.95 1638.02 1605.93 1643.72 1600.09 L 1650.21 1598.49 z"/>
<path transform="translate(0,0)" fill="rgb(27,12,45)" d="M 1727.9 1557 C 1738.26 1565.34 1769.46 1587.64 1772.04 1598.38 C 1771.42 1604.61 1762.71 1613.3 1758.25 1618.48 C 1738.8 1603.24 1720.62 1598.99 1697.28 1594.58 C 1707.32 1581.99 1717.7 1569.48 1727.9 1557 z"/>
<path transform="translate(0,0)" fill="rgb(42,26,78)" d="M 324.925 1326.39 C 318.203 1324.27 315.613 1320.82 313.146 1314.25 L 313.765 1312.99 C 316.896 1312.36 320.121 1314.4 324.417 1315.17 L 324.975 1314.35 C 323.037 1309.5 307.53 1304.86 302.833 1287.05 C 297.13 1265.43 301.936 1250.06 311.989 1231.27 C 313.417 1234.4 317.044 1242.61 318.938 1244.93 C 328.707 1256.88 343.907 1262.54 347.023 1279.2 C 349.588 1292.92 345.171 1302.64 337.739 1313.55 C 340.623 1317.95 343.498 1323.25 346.148 1327.87 C 358.054 1289.95 377.801 1276.16 418.359 1282.64 C 415.079 1291.25 410.703 1299.71 404.822 1306.84 C 401.62 1310.71 398.006 1314.21 394.042 1317.29 C 386.845 1322.91 378.117 1327.09 370.48 1332.19 C 365.95 1335.22 363.026 1340.1 357.78 1340.56 C 356.447 1339.3 356.566 1339.32 355.028 1338.34 C 352.09 1341.58 350.469 1339.33 351.207 1342.68 C 353.084 1351.21 353.696 1360.96 361.797 1365.42 C 360.001 1372.65 358.124 1374.59 360.534 1381.94 C 351.219 1372.42 341.697 1364.99 329.608 1359.41 C 292.407 1389.4 266.401 1372.22 239.132 1341.46 C 261.765 1325.51 298.801 1313.62 319.596 1338.94 C 322.952 1342.87 326.454 1350.89 330.106 1354.07 C 337.22 1360.28 346.538 1366.13 354.318 1371.6 C 341.9 1357.33 334.048 1342.79 324.925 1326.39 z M 328.019 1325.24 C 334.229 1336.26 340.922 1347.01 348.077 1357.44 L 349.487 1358.29 C 349.178 1355.68 348.843 1354.99 347.786 1352.6 C 344.809 1345.89 344.776 1337.94 345.11 1330.61 C 343.07 1327.24 336.392 1315.66 334.106 1313.58 C 332.762 1319.22 332.204 1321.07 328.019 1325.24 z"/>
<path transform="translate(0,0)" fill="rgb(159,140,192)" d="M 514.16 195.677 C 522.119 196.921 557.269 210.924 566.429 214.53 C 568.14 222.547 575.636 261.098 574.895 267.471 C 559.585 285.358 549.153 289.317 534.177 302.529 L 533.79 303.278 L 532.228 303.709 L 529.815 301.65 C 525.934 300.787 522.043 299.969 518.143 299.197 L 514.775 297.105 C 509.288 293.586 504.846 292.374 498.38 291.782 L 496.397 291.888 C 489.285 290.565 486.613 289.428 481.075 284.859 C 478.203 274.786 473.687 242.378 471.767 230.686 C 483.768 219.824 501.384 206.118 514.16 195.677 z"/>
<path transform="translate(0,0)" fill="rgb(199,183,216)" d="M 555.466 244.573 C 560.57 250.732 569.525 262.214 574.895 267.471 C 559.585 285.358 549.153 289.317 534.177 302.529 L 533.79 303.278 L 532.228 303.709 L 529.815 301.65 C 524.521 292.904 499.668 264.277 492.291 255.473 C 509.412 251.478 537.496 247.479 555.466 244.573 z"/>
<path transform="translate(0,0)" fill="rgb(159,140,192)" d="M 555.466 244.573 C 560.57 250.732 569.525 262.214 574.895 267.471 C 559.585 285.358 549.153 289.317 534.177 302.529 C 540.723 283.436 548.391 263.565 555.466 244.573 z"/>
<path transform="translate(0,0)" fill="rgb(83,73,158)" d="M 514.16 195.677 C 522.119 196.921 557.269 210.924 566.429 214.53 C 568.14 222.547 575.636 261.098 574.895 267.471 C 569.525 262.214 560.57 250.732 555.466 244.573 C 547.039 234.531 522.069 202.594 514.16 195.677 z"/>
<path transform="translate(0,0)" fill="rgb(83,73,158)" d="M 471.767 230.686 C 483.768 219.824 501.384 206.118 514.16 195.677 C 503.569 225.337 491.323 255.415 481.075 284.859 C 478.203 274.786 473.687 242.378 471.767 230.686 z"/>
<path transform="translate(0,0)" fill="rgb(20,46,80)" d="M 1317.24 1309.14 C 1329.2 1310.61 1380.97 1366.04 1404.03 1372.22 C 1411.43 1374.62 1429 1380.71 1436.01 1382.02 C 1453.6 1385.31 1462.7 1385.52 1479.91 1391.58 C 1467.98 1402.9 1481.07 1411.96 1492.27 1415.3 L 1494.5 1415.72 C 1494.61 1416.98 1494.74 1417.81 1494.68 1419.09 C 1473.74 1440.8 1457.86 1431.99 1434.65 1420.84 C 1428.14 1418.28 1380.52 1396.27 1377.51 1393.42 C 1360.46 1377.27 1322.23 1337.54 1308.66 1319.55 C 1312.49 1315.5 1314.08 1313.71 1317.24 1309.14 z"/>
<path transform="translate(0,0)" fill="rgb(48,67,117)" d="M 1404.03 1372.22 C 1411.43 1374.62 1429 1380.71 1436.01 1382.02 C 1453.6 1385.31 1462.7 1385.52 1479.91 1391.58 C 1467.98 1402.9 1481.07 1411.96 1492.27 1415.3 C 1488.01 1417.81 1485.72 1418.29 1480.9 1418.83 C 1458.89 1421.32 1456.71 1397.07 1442.39 1389.28 C 1433.05 1384.67 1421.28 1389.63 1411.79 1387.24 C 1404.29 1385.35 1402.03 1379.18 1404.03 1372.22 z"/>
<path transform="translate(0,0)" fill="rgb(159,140,192)" d="M 272.749 481.788 C 279.188 483.554 310.469 496.549 315.233 500.257 C 318.47 513.435 319.769 539.065 321.919 546.13 C 321.914 546.777 321.91 547.425 321.905 548.072 C 315.23 550.059 315.239 550.023 311.469 555.841 L 309.803 557.7 C 304.726 559.662 302.362 562.878 298.99 567.163 L 297.036 567.801 L 296.163 569.995 C 291.592 573.141 287.954 573.385 282.562 574.358 C 278.567 574.519 246.351 559.588 240.257 556.85 C 238.885 541.679 236.225 525.977 235.626 510.909 L 235.208 509.319 C 247.438 500.111 260.361 491.016 272.749 481.788 z"/>
<path transform="translate(0,0)" fill="rgb(199,183,216)" d="M 289.417 503.47 L 315.233 500.257 C 318.47 513.435 319.769 539.065 321.919 546.13 C 321.914 546.777 321.91 547.425 321.905 548.072 C 315.23 550.059 315.239 550.023 311.469 555.841 L 309.803 557.7 C 304.726 559.662 302.362 562.878 298.99 567.163 L 297.036 567.801 L 296.163 569.995 C 291.592 573.141 287.954 573.385 282.562 574.358 C 281.062 571.111 270.652 557.62 267.938 553.977 C 271.576 542.982 284.504 515.009 289.417 503.47 z"/>
<path transform="translate(0,0)" fill="rgb(159,140,192)" d="M 267.938 553.977 C 281.038 551.768 308.965 548.759 321.905 548.072 C 315.23 550.059 315.239 550.023 311.469 555.841 L 309.803 557.7 C 304.726 559.662 302.362 562.878 298.99 567.163 L 297.036 567.801 L 296.163 569.995 C 291.592 573.141 287.954 573.385 282.562 574.358 C 281.062 571.111 270.652 557.62 267.938 553.977 z"/>
<path transform="translate(0,0)" fill="rgb(159,140,192)" d="M 289.417 503.47 L 315.233 500.257 C 318.47 513.435 319.769 539.065 321.919 546.13 C 312.64 535.973 298.86 515.474 289.417 503.47 z"/>
<path transform="translate(0,0)" fill="rgb(83,73,158)" d="M 235.626 510.909 L 267.938 553.977 C 270.652 557.62 281.062 571.111 282.562 574.358 C 278.567 574.519 246.351 559.588 240.257 556.85 C 238.885 541.679 236.225 525.977 235.626 510.909 z"/>
<path transform="translate(0,0)" fill="rgb(83,73,158)" d="M 272.749 481.788 C 279.188 483.554 310.469 496.549 315.233 500.257 L 289.417 503.47 C 272.463 505.485 251.993 508.441 235.208 509.319 C 247.438 500.111 260.361 491.016 272.749 481.788 z"/>
<path transform="translate(0,0)" fill="url(#Gradient2)" d="M 405.989 1314.48 C 414.098 1331.22 416.623 1344.79 403.037 1359.61 C 409.468 1367.7 403.774 1369.61 406.768 1374.73 C 409.296 1373.7 410.056 1372.11 411.671 1369.87 C 412.071 1371.62 412.454 1373.28 412.92 1375.02 C 413.575 1378.07 413.724 1379.52 415.18 1382.27 C 417.903 1380.88 418.81 1379.75 420.802 1377.54 L 422.71 1377.39 C 424.935 1379.82 426.34 1381.48 428.375 1384.08 C 428.732 1387.32 429.167 1389.08 428.365 1392.27 C 426.215 1398 429.626 1397.7 430.253 1405 C 432.375 1408.06 434.561 1410.33 434.756 1413.91 C 433.638 1416.93 433.577 1416.72 431.13 1418.91 L 428.598 1420.92 C 427.334 1422.03 425.126 1424.11 423.868 1425.03 L 419.904 1428.8 C 417.694 1431.18 416.515 1433.11 413.419 1433.65 C 413.494 1426.97 408.446 1425.87 403.121 1423.71 C 398.966 1425.44 398.433 1425.55 393.937 1425.38 C 390.709 1421.87 383.482 1416.78 379.314 1413.1 C 377.695 1410.57 370.67 1398.26 369.938 1397.51 L 370.233 1396.42 L 371.038 1396.31 C 368.963 1390.71 372.238 1391.62 368.108 1387.92 C 365.082 1388.88 364.406 1387.63 362.628 1385.66 L 360.534 1381.94 C 358.124 1374.59 360.001 1372.65 361.797 1365.42 C 353.696 1360.96 353.084 1351.21 351.207 1342.68 C 350.469 1339.33 352.09 1341.58 355.028 1338.34 C 356.566 1339.32 356.447 1339.3 357.78 1340.56 C 365.2 1344.65 358.683 1344.67 364.181 1345.76 C 367.836 1342.8 366.287 1343.24 370.513 1342.79 C 374.191 1344.16 374.03 1344.06 376.934 1346.7 C 377.808 1349.13 378.406 1350.86 379.504 1353.21 L 382.301 1346.99 C 386.076 1330.15 392.676 1324.65 405.989 1314.48 z"/>
<path transform="translate(0,0)" fill="rgb(129,92,163)" d="M 368.108 1387.92 C 372.468 1386.43 376.267 1386.61 380.531 1385.2 C 388.446 1382.6 392.143 1391.09 397.273 1394.27 C 408.98 1405.79 414.278 1405.71 428.598 1420.92 C 427.334 1422.03 425.126 1424.11 423.868 1425.03 L 419.904 1428.8 C 417.694 1431.18 416.515 1433.11 413.419 1433.65 C 413.494 1426.97 408.446 1425.87 403.121 1423.71 C 398.966 1425.44 398.433 1425.55 393.937 1425.38 C 390.709 1421.87 383.482 1416.78 379.314 1413.1 C 377.695 1410.57 370.67 1398.26 369.938 1397.51 L 370.233 1396.42 L 371.038 1396.31 C 368.963 1390.71 372.238 1391.62 368.108 1387.92 z"/>
<path transform="translate(0,0)" fill="rgb(72,40,104)" d="M 368.108 1387.92 C 372.468 1386.43 376.267 1386.61 380.531 1385.2 C 388.446 1382.6 392.143 1391.09 397.273 1394.27 C 408.98 1405.79 414.278 1405.71 428.598 1420.92 C 427.334 1422.03 425.126 1424.11 423.868 1425.03 C 420.047 1421.73 415.758 1418.54 411.752 1415.43 C 403.688 1413.19 402.439 1411.17 396.257 1405.43 L 395.008 1404.91 L 394.755 1403.31 C 396.333 1403.38 397.636 1403.41 399.199 1403.42 C 394.646 1398.06 390.153 1392.65 385.718 1387.2 C 380.143 1389.99 375.467 1391.91 371.038 1396.31 C 368.963 1390.71 372.238 1391.62 368.108 1387.92 z"/>
<path transform="translate(0,0)" fill="rgb(27,12,45)" d="M 396.257 1405.43 C 401.476 1404.81 410.386 1410.64 411.752 1415.43 C 403.688 1413.19 402.439 1411.17 396.257 1405.43 z"/>
<path transform="translate(0,0)" fill="rgb(248,195,208)" d="M 383.712 1400.75 L 395.008 1404.91 L 396.257 1405.43 C 402.439 1411.17 403.688 1413.19 411.752 1415.43 C 415.758 1418.54 420.047 1421.73 423.868 1425.03 L 419.904 1428.8 C 417.694 1431.18 416.515 1433.11 413.419 1433.65 C 413.494 1426.97 408.446 1425.87 403.121 1423.71 C 399.673 1419.36 398.448 1418.67 393.868 1415.91 L 392.559 1415.13 L 392.399 1413.83 L 396.512 1411.7 C 392.51 1407.41 388.309 1404.36 383.712 1400.75 z"/>
<path transform="translate(0,0)" fill="rgb(72,40,104)" d="M 396.512 1411.7 C 399.191 1414.73 415.176 1425.69 419.904 1428.8 C 417.694 1431.18 416.515 1433.11 413.419 1433.65 C 413.494 1426.97 408.446 1425.87 403.121 1423.71 C 399.673 1419.36 398.448 1418.67 393.868 1415.91 L 392.559 1415.13 L 392.399 1413.83 L 396.512 1411.7 z"/>
<path transform="translate(0,0)" fill="rgb(42,26,78)" d="M 405.989 1314.48 C 414.098 1331.22 416.623 1344.79 403.037 1359.61 C 399.754 1358.08 392.305 1353.47 388.871 1351.46 L 384.335 1365.12 C 384.249 1359.76 384.99 1350.73 382.301 1346.99 C 386.076 1330.15 392.676 1324.65 405.989 1314.48 z"/>
<path transform="translate(0,0)" fill="rgb(248,195,208)" d="M 415.18 1382.27 C 417.903 1380.88 418.81 1379.75 420.802 1377.54 L 422.71 1377.39 C 424.935 1379.82 426.34 1381.48 428.375 1384.08 C 428.732 1387.32 429.167 1389.08 428.365 1392.27 C 426.215 1398 429.626 1397.7 430.253 1405 C 432.375 1408.06 434.561 1410.33 434.756 1413.91 C 433.638 1416.93 433.577 1416.72 431.13 1418.91 C 424.527 1411.65 424.497 1404.46 419.403 1396.55 C 416.824 1392.54 412.712 1387.58 409.747 1383.62 L 408.299 1381.35 L 408.877 1380.08 L 407.332 1378.16 L 407.344 1378.27 C 409.046 1378.87 412.09 1382.74 413.476 1384.28 L 415.07 1383.28 L 415.18 1382.27 z"/>
<path transform="translate(0,0)" fill="rgb(129,92,163)" d="M 415.18 1382.27 C 417.903 1380.88 418.81 1379.75 420.802 1377.54 L 422.71 1377.39 C 424.935 1379.82 426.34 1381.48 428.375 1384.08 C 428.732 1387.32 429.167 1389.08 428.365 1392.27 C 426.215 1398 429.626 1397.7 430.253 1405 C 423.844 1394.59 425.385 1392.65 415.07 1383.28 L 415.18 1382.27 z"/>
<path transform="translate(0,0)" fill="rgb(218,156,182)" d="M 394.353 1369.82 C 398.896 1373.67 405.595 1382.1 409.747 1383.62 C 412.712 1387.58 416.824 1392.54 419.403 1396.55 C 424.497 1404.46 424.527 1411.65 431.13 1418.91 L 428.598 1420.92 C 414.278 1405.71 408.98 1405.79 397.273 1394.27 C 400.952 1394.55 404.518 1399 409.624 1401.67 C 407.083 1398.87 403.386 1395.17 401.619 1391.98 L 404.904 1392.58 C 407.456 1395.67 411.744 1398.93 414.927 1401.56 C 410.471 1392.45 408.486 1389.86 401.631 1382.94 C 399.314 1378.5 396.887 1374.13 394.353 1369.82 z"/>
<path transform="translate(0,0)" fill="rgb(248,195,208)" d="M 390.632 1372.55 C 394.417 1376.32 397.602 1379.37 401.631 1382.94 C 408.486 1389.86 410.471 1392.45 414.927 1401.56 C 411.744 1398.93 407.456 1395.67 404.904 1392.58 C 398.174 1384.5 395.806 1381.71 390.632 1372.55 z"/>
<path transform="translate(0,0)" fill="rgb(20,46,80)" d="M 1513.68 1358.33 C 1515.35 1350.76 1516.52 1344.33 1522.95 1341.18 C 1543.72 1331.02 1570.25 1351.97 1569.08 1374.46 C 1569.05 1374.99 1582.58 1381.68 1578.55 1387.22 C 1576.36 1391.64 1575.03 1394.04 1570.54 1395.86 C 1557.15 1395.74 1566.89 1384.9 1550.03 1397.56 C 1538.15 1402.58 1543.92 1400.41 1537.83 1408.6 L 1531.45 1415.74 C 1529.63 1418.34 1529.05 1418.28 1529.7 1422.48 C 1520.84 1416.3 1518.53 1416.95 1509.53 1408.41 C 1505.74 1412.15 1505.55 1412.53 1500.79 1414.58 C 1497.35 1417.24 1497.3 1417.53 1495.09 1421.4 L 1494.68 1419.09 C 1494.74 1417.81 1494.61 1416.98 1494.5 1415.72 L 1492.27 1415.3 C 1481.07 1411.96 1467.98 1402.9 1479.91 1391.58 C 1490.18 1394.23 1498.02 1384.42 1500.75 1375.65 C 1500.88 1373.02 1501.23 1372.55 1502.13 1370.03 C 1506.11 1364.78 1508.47 1362.33 1513.68 1358.33 z"/>
<path transform="translate(0,0)" fill="rgb(20,46,80)" d="M 1533.94 1374.03 L 1534.94 1372.92 C 1537.79 1374.99 1538.9 1377.37 1540.78 1380.38 C 1543.27 1382.91 1543.65 1382.87 1544.22 1386.43 C 1541.8 1395.73 1528.67 1391.61 1537.83 1408.6 L 1531.45 1415.74 C 1529.63 1418.34 1529.05 1418.28 1529.7 1422.48 C 1520.84 1416.3 1518.53 1416.95 1509.53 1408.41 C 1505.74 1412.15 1505.55 1412.53 1500.79 1414.58 C 1497.35 1417.24 1497.3 1417.53 1495.09 1421.4 L 1494.68 1419.09 C 1494.74 1417.81 1494.61 1416.98 1494.5 1415.72 L 1492.27 1415.3 C 1481.07 1411.96 1467.98 1402.9 1479.91 1391.58 C 1490.18 1394.23 1498.02 1384.42 1500.75 1375.65 C 1504.83 1380.97 1507.18 1386.4 1513.73 1388.95 C 1525.44 1393.51 1530.4 1383.11 1533.94 1374.03 z"/>
<path transform="translate(0,0)" fill="rgb(248,150,120)" d="M 1540.78 1380.38 C 1543.27 1382.91 1543.65 1382.87 1544.22 1386.43 C 1541.8 1395.73 1528.67 1391.61 1537.83 1408.6 L 1531.45 1415.74 C 1529.63 1418.34 1529.05 1418.28 1529.7 1422.48 C 1520.84 1416.3 1518.53 1416.95 1509.53 1408.41 C 1512.84 1399.23 1515.4 1398.25 1524.3 1394.52 C 1530.87 1390.33 1530.93 1385.87 1540.78 1380.38 z"/>
<path transform="translate(0,0)" fill="rgb(235,110,70)" d="M 1509.53 1408.41 C 1512.84 1399.23 1515.4 1398.25 1524.3 1394.52 C 1521.26 1404.98 1521.99 1409.36 1531.45 1415.74 C 1529.63 1418.34 1529.05 1418.28 1529.7 1422.48 C 1520.84 1416.3 1518.53 1416.95 1509.53 1408.41 z"/>
<path transform="translate(0,0)" fill="rgb(248,150,120)" d="M 1516.09 1359.22 C 1528.48 1351.64 1538.93 1354.65 1548.48 1365.38 C 1543.8 1363.23 1539.9 1360.58 1535.55 1358.54 C 1533.4 1361.73 1530.68 1364.73 1530.99 1368.36 C 1532.06 1370.31 1532.98 1372.03 1533.94 1374.03 C 1530.4 1383.11 1525.44 1393.51 1513.73 1388.95 C 1507.18 1386.4 1504.83 1380.97 1500.75 1375.65 C 1500.88 1373.02 1501.23 1372.55 1502.13 1370.03 C 1506.11 1364.78 1508.47 1362.33 1513.68 1358.33 L 1516.09 1359.22 z"/>
<path transform="translate(0,0)" fill="rgb(253,253,253)" d="M 1513.68 1358.33 L 1516.09 1359.22 C 1512.08 1365.52 1510.3 1369.51 1502.13 1370.03 C 1506.11 1364.78 1508.47 1362.33 1513.68 1358.33 z"/>
<path transform="translate(0,0)" fill="rgb(253,253,253)" d="M 1518.52 1361.6 L 1521.03 1362.64 L 1521.52 1365.04 C 1519.26 1371.38 1515.33 1374.41 1510.01 1378.39 L 1507.51 1377.51 L 1507.07 1375.07 C 1509.32 1368.86 1513.38 1365.56 1518.52 1361.6 z"/>
<path transform="translate(0,0)" fill="rgb(48,67,117)" d="M 1535.55 1358.54 C 1539.9 1360.58 1543.8 1363.23 1548.48 1365.38 C 1552.25 1368.12 1555.07 1376.22 1556.71 1380.7 C 1554.54 1387.35 1552.91 1391.19 1550.03 1397.56 C 1538.15 1402.58 1543.92 1400.41 1537.83 1408.6 C 1528.67 1391.61 1541.8 1395.73 1544.22 1386.43 C 1543.65 1382.87 1543.27 1382.91 1540.78 1380.38 C 1538.9 1377.37 1537.79 1374.99 1534.94 1372.92 L 1533.94 1374.03 C 1532.98 1372.03 1532.06 1370.31 1530.99 1368.36 C 1530.68 1364.73 1533.4 1361.73 1535.55 1358.54 z"/>
<path transform="translate(0,0)" fill="rgb(100,60,133)" d="M 428.365 1392.27 C 431.458 1396.1 431.745 1396.79 435.863 1399.22 C 436.941 1402.99 437.475 1408.29 439.585 1410.33 C 442.746 1409.58 450.873 1400.96 453.779 1398.14 C 461.323 1406.18 483.875 1428.49 486.932 1437.58 C 485.862 1446.47 473.095 1456.14 466.915 1461.74 C 461.606 1466.54 437.426 1489.67 431.817 1487.14 C 421.989 1482.7 403.588 1458.95 395.841 1450.33 C 400.137 1445.85 404.577 1441.52 409.155 1437.33 C 410.923 1436.6 411.974 1435.13 413.419 1433.65 C 416.515 1433.11 417.694 1431.18 419.904 1428.8 L 423.868 1425.03 C 425.126 1424.11 427.334 1422.03 428.598 1420.92 L 431.13 1418.91 C 433.577 1416.72 433.638 1416.93 434.756 1413.91 C 434.561 1410.33 432.375 1408.06 430.253 1405 C 429.626 1397.7 426.215 1398 428.365 1392.27 z"/>
<path transform="translate(0,0)" fill="rgb(129,92,163)" d="M 445.169 1410.64 C 447.094 1408.58 446.246 1409.21 448.916 1408.17 C 453.192 1409.76 479.784 1439.05 481.744 1443.68 C 479.542 1445.46 479.686 1445.38 477.003 1446.29 C 476.09 1449.09 474.672 1450.38 472.214 1451.67 C 468.466 1449.71 444.28 1421.34 440.461 1416.86 C 441.06 1413.6 442.228 1413.51 445.169 1410.64 z"/>
<path transform="translate(0,0)" fill="rgb(114,71,150)" d="M 445.169 1410.64 C 447.094 1408.58 446.246 1409.21 448.916 1408.17 C 453.192 1409.76 479.784 1439.05 481.744 1443.68 C 479.542 1445.46 479.686 1445.38 477.003 1446.29 C 473.266 1443.31 449.262 1415.56 445.169 1410.64 z"/>
<path transform="translate(0,0)" fill="rgb(20,46,80)" d="M 501.982 1255.67 C 509.658 1252.05 527.718 1252.74 536.093 1254.34 C 539.506 1263.52 553.743 1292.43 550.798 1298.91 C 546.784 1301.65 539.849 1305.25 535.366 1307.73 C 524.553 1302.82 513.794 1297.8 503.09 1292.66 C 502.604 1285.87 500.473 1260.8 501.982 1255.67 z"/>
<path transform="translate(0,0)" fill="rgb(186,198,214)" d="M 501.982 1255.67 C 509.658 1252.05 527.718 1252.74 536.093 1254.34 C 539.506 1263.52 553.743 1292.43 550.798 1298.91 C 546.626 1291.43 536.674 1264.97 533.191 1256.23 C 523.999 1256.27 510.802 1256.71 501.982 1255.67 z"/>
<path transform="translate(0,0)" fill="url(#Gradient1)" d="M 1841.62 318.659 C 1853.99 317.172 1866.38 315.828 1878.78 314.626 C 1873.36 320.117 1852.12 342.139 1846.84 345.327 C 1841.85 350.897 1837.67 354.95 1832.22 360.1 C 1829.26 357.695 1823.16 353.048 1820.65 350.592 C 1814.88 358.243 1816.52 354.808 1809.52 356.217 L 1808.68 356.957 C 1807.06 354.69 1808.07 342.22 1808.19 338.424 C 1802.12 333.832 1796.55 329.604 1790.75 324.676 C 1806.56 322.043 1825.48 320.417 1841.62 318.659 z"/>
<path transform="translate(0,0)" fill="rgb(253,253,253)" d="M 1790.75 324.676 C 1806.56 322.043 1825.48 320.417 1841.62 318.659 L 1846.93 319.531 L 1845.68 319.748 C 1840.98 320.597 1836.11 321.393 1832.77 324.996 L 1832.73 326.796 L 1833.94 327.95 C 1837.61 327.142 1845.36 324.047 1847.57 324.306 C 1834.95 329.832 1819.66 333.128 1808.19 338.424 C 1802.12 333.832 1796.55 329.604 1790.75 324.676 z"/>
<path transform="translate(0,0)" fill="rgb(253,253,253)" d="M 1814.27 344.329 C 1819.36 341.924 1838.01 332.736 1842.37 332.274 C 1839.71 335.734 1834.58 334.605 1834.11 337.441 C 1840.02 339.967 1839.56 341.032 1843.25 346.037 L 1846.84 345.327 C 1841.85 350.897 1837.67 354.95 1832.22 360.1 C 1829.26 357.695 1823.16 353.048 1820.65 350.592 C 1819.44 348.956 1815.93 345.878 1814.27 344.329 z"/>
<path transform="translate(0,0)" fill="rgb(241,85,116)" d="M 1814.27 344.329 C 1815.93 345.878 1819.44 348.956 1820.65 350.592 C 1814.88 358.243 1816.52 354.808 1809.52 356.217 C 1811.11 351.604 1812.17 348.722 1814.27 344.329 z"/>
<path transform="translate(0,0)" fill="rgb(42,26,78)" d="M 230.2 1364.63 C 267.31 1388.08 282.449 1383.83 326.31 1379.7 C 331.123 1380.68 331.472 1379.82 335.288 1380.09 C 329.884 1386.04 322.162 1390.79 317.819 1398.02 C 313.213 1404.72 309.457 1428.18 301.994 1431.81 C 287.15 1439.04 285.705 1414.77 290.648 1406.1 C 299.287 1390.94 309.079 1386.76 323.643 1381.36 C 318.297 1381.87 307.117 1382.91 303.007 1385.45 C 263.236 1410.02 262.053 1401.21 230.2 1364.63 z"/>
<path transform="translate(0,0)" fill="rgb(253,253,253)" d="M 1125.23 1598.72 C 1110.18 1603.35 1114.33 1601.47 1104.79 1614.98 C 1103.23 1617.2 1101.53 1617.17 1099.39 1617.19 C 1087.07 1604.28 1137.35 1568.1 1147.7 1561.33 C 1153.6 1570.02 1154.79 1575.13 1157.79 1585.05 C 1160.33 1587.24 1165.77 1588.66 1169.15 1589.55 C 1167.27 1594.96 1161.94 1602.97 1158.61 1607.78 C 1146.78 1597.25 1140.63 1596.44 1125.23 1598.72 z"/>
<path transform="translate(0,0)" fill="rgb(248,150,120)" d="M 1157.79 1585.05 C 1160.33 1587.24 1165.77 1588.66 1169.15 1589.55 C 1167.27 1594.96 1161.94 1602.97 1158.61 1607.78 C 1146.78 1597.25 1140.63 1596.44 1125.23 1598.72 C 1125.4 1597.77 1125.57 1596.83 1125.73 1595.89 C 1132.53 1589.61 1149 1588.69 1157.79 1585.05 z"/>
<path transform="translate(0,0)" fill="rgb(253,253,253)" d="M 1541.13 1788.14 C 1541.63 1785.49 1541.07 1786.6 1543.08 1784.9 C 1549.76 1784.38 1554.36 1785.57 1560.87 1787.18 C 1558.11 1801.16 1559.29 1804.86 1566.03 1817.25 C 1576.15 1836.46 1584.37 1824.79 1591.19 1835.35 C 1583.48 1851.63 1533.88 1816.26 1522.37 1809.77 C 1529.41 1800.03 1532.15 1798.56 1542.11 1791.76 L 1541.13 1788.14 z"/>
<path transform="translate(0,0)" fill="rgb(248,150,120)" d="M 1541.13 1788.14 C 1541.63 1785.49 1541.07 1786.6 1543.08 1784.9 C 1549.76 1784.38 1554.36 1785.57 1560.87 1787.18 C 1558.11 1801.16 1559.29 1804.86 1566.03 1817.25 L 1562.03 1817.99 C 1557.07 1815.63 1546.23 1797.51 1542.11 1791.76 L 1541.13 1788.14 z"/>
<path transform="translate(0,0)" fill="rgb(253,253,253)" d="M 474.945 321.205 C 478.337 322.758 481.413 324.719 484.956 324.09 L 485.961 324.317 C 488.416 327.267 490.89 327.668 494.555 328.949 L 501.96 330.972 L 502.892 332.264 L 505.392 332.239 L 514.565 336.279 C 511.761 344.079 508.741 353.164 505.48 360.67 C 500.407 358.281 489.139 354.37 486.128 352.718 C 480.837 350.336 472.216 347.399 466.348 345.01 L 474.945 321.205 z"/>
<path transform="translate(0,0)" fill="rgb(83,73,158)" d="M 474.945 321.205 C 478.337 322.758 481.413 324.719 484.956 324.09 L 485.961 324.317 C 488.416 327.267 490.89 327.668 494.555 328.949 C 492.138 335.996 488.043 346.139 486.128 352.718 C 480.837 350.336 472.216 347.399 466.348 345.01 L 474.945 321.205 z"/>
<path transform="translate(0,0)" fill="rgb(42,26,78)" d="M 326.799 1398.31 C 342.317 1389.89 354.54 1387.95 369.938 1397.51 C 370.67 1398.26 377.695 1410.57 379.314 1413.1 C 355.354 1424.07 340.93 1420.61 326.799 1398.31 z"/>
<path transform="translate(0,0)" fill="rgb(20,46,80)" d="M 1299.68 1206 C 1302.06 1205.84 1304.38 1205.02 1306.14 1207.22 C 1320.03 1224.61 1322.38 1239.5 1293.88 1236.86 C 1289.14 1234.56 1278.84 1231.08 1273.51 1229.12 C 1278.38 1209.29 1280.35 1211 1299.68 1206 z"/>
<path transform="translate(0,0)" fill="rgb(83,73,158)" d="M 318.969 571.035 C 322.276 573.785 324.559 577.144 327.202 580.563 L 328.408 579.16 C 330.63 578.455 332.526 577.834 334.725 577.018 C 342.772 578.856 344.17 585.362 349.389 592.636 C 344.382 596.759 340.304 599.963 335.027 603.72 C 330.46 607.358 325.395 610.77 320.6 614.138 C 316.202 608.518 312.841 604.35 309.153 598.23 C 308.144 589.431 315.348 596.265 306.589 582.419 L 308.894 581.372 C 310.039 582.526 312.37 584.442 312.675 585.701 C 314.428 579.118 319.943 577.533 318.969 571.035 z"/>
<path transform="translate(0,0)" fill="rgb(253,253,253)" d="M 328.408 579.16 C 330.63 578.455 332.526 577.834 334.725 577.018 C 342.772 578.856 344.17 585.362 349.389 592.636 C 344.382 596.759 340.304 599.963 335.027 603.72 L 322.092 586.063 C 325.955 583.252 325.549 584.382 327.202 580.563 L 328.408 579.16 z"/>
<path transform="translate(0,0)" fill="rgb(159,140,192)" d="M 318.969 571.035 C 322.276 573.785 324.559 577.144 327.202 580.563 C 325.549 584.382 325.955 583.252 322.092 586.063 C 319.682 587.985 319.091 588.433 316.415 589.932 C 313.306 588.922 314.766 589.769 312.675 585.701 C 314.428 579.118 319.943 577.533 318.969 571.035 z"/>
<path transform="translate(0,0)" fill="rgb(248,150,120)" d="M 1303.67 1296.2 C 1305.4 1282.8 1301.15 1275.46 1302.54 1269.22 L 1303.93 1268.63 C 1320.16 1278.09 1308.89 1298.2 1317.24 1309.14 C 1314.08 1313.71 1312.49 1315.5 1308.66 1319.55 C 1303.98 1315.24 1289.91 1298.17 1294.73 1292.4 C 1298.48 1292.3 1300.43 1294.13 1303.67 1296.2 z"/>
<path transform="translate(0,0)" fill="rgb(246,216,71)" d="M 1179.24 1072.06 C 1196.7 1070.83 1201.49 1092.16 1191.45 1103.83 C 1190.1 1104 1188.73 1104.13 1187.36 1104.23 C 1174.05 1105.01 1168.73 1082.71 1179.24 1072.06 z"/>
<path transform="translate(0,0)" fill="rgb(246,216,71)" d="M 1079.51 908.841 C 1086.45 908.356 1094.05 911.127 1091.67 919.785 C 1089.3 928.402 1084.32 932.118 1076.92 936.406 C 1071.8 937.043 1069.42 936.996 1065.72 933.021 C 1061.34 922.441 1070.58 913.088 1079.51 908.841 z"/>
<path transform="translate(0,0)" fill="rgb(246,216,71)" d="M 1318.67 1009.18 C 1320.8 1009.05 1322.93 1008.98 1325.07 1008.97 C 1336.48 1009.05 1352.08 1018.11 1336.56 1029.11 C 1322.3 1032.23 1302.25 1020.92 1318.67 1009.18 z"/>
<path transform="translate(0,0)" fill="rgb(20,46,80)" d="M 970.975 1237.99 C 976.287 1238.54 983.74 1248.21 987.766 1252.55 C 981.774 1254.67 974.425 1256.67 968.243 1258.52 L 957.95 1261.7 C 956.799 1256.41 955.827 1250.49 954.838 1245.11 L 970.975 1237.99 z"/>
<path transform="translate(0,0)" fill="rgb(246,216,71)" d="M 1126.72 996.268 C 1139.87 997.67 1151.17 1006.39 1133.99 1013.68 C 1126.65 1013.08 1114.45 1009.89 1118.66 999.996 C 1121.94 997.087 1122.27 997.167 1126.72 996.268 z"/>
<path transform="translate(0,0)" fill="rgb(20,46,80)" d="M 1139.59 1408.55 C 1143.5 1410.37 1164.59 1424.88 1166.24 1429.27 L 1163.56 1430.95 L 1149.02 1436.06 L 1139.59 1408.55 z"/>
<path transform="translate(0,0)" fill="rgb(42,26,78)" d="M 403.121 1423.71 C 408.446 1425.87 413.494 1426.97 413.419 1433.65 C 411.974 1435.13 410.923 1436.6 409.155 1437.33 C 403.398 1437.04 384.005 1441.13 382.083 1433.47 C 386.808 1428.32 394.706 1429.89 400.657 1431.53 C 399.675 1429.22 396.243 1427.16 393.937 1425.38 C 398.433 1425.55 398.966 1425.44 403.121 1423.71 z"/>
<path transform="translate(0,0)" fill="rgb(83,73,158)" fill-opacity="0.411765" d="M 1784.45 1840.33 C 1783.18 1839.96 1783.46 1840.15 1782.39 1839.43 C 1770.76 1831.58 1753.03 1834.42 1737.69 1829.75 C 1744.16 1826.75 1788.61 1829.2 1797.19 1830.9 C 1793.28 1831.06 1790.66 1830.65 1787.68 1833.02 C 1786.09 1835.85 1785.16 1837.12 1784.45 1840.33 z"/>
<path transform="translate(0,0)" fill="rgb(42,26,78)" d="M 412.92 1375.02 C 414.978 1368.46 415.628 1364.55 420.033 1359.35 L 422.247 1358.35 C 427.334 1361.85 426.14 1376.81 428.375 1384.08 C 426.34 1381.48 424.935 1379.82 422.71 1377.39 L 420.802 1377.54 C 418.81 1379.75 417.903 1380.88 415.18 1382.27 C 413.724 1379.52 413.575 1378.07 412.92 1375.02 z"/>
<path transform="translate(0,0)" fill="rgb(20,46,80)" d="M 1112.99 1057.74 C 1115.69 1060.31 1118.77 1072.33 1120.09 1076.59 C 1115.92 1077.47 1111.77 1078 1107.56 1078.6 C 1106.24 1078.62 1105.53 1077.81 1103.99 1076.91 C 1099.92 1070.47 1108.84 1062.56 1112.99 1057.74 z"/>
<path transform="translate(0,0)" fill="rgb(83,73,158)" fill-opacity="0.988235" d="M 1797.19 1830.9 C 1806.21 1832.42 1811.27 1832.93 1819.74 1836.57 C 1806.66 1839.69 1797.97 1841.14 1784.45 1840.33 C 1785.16 1837.12 1786.09 1835.85 1787.68 1833.02 C 1790.66 1830.65 1793.28 1831.06 1797.19 1830.9 z"/>
<path transform="translate(0,0)" fill="rgb(20,46,80)" d="M 1709.32 1275.75 C 1711.29 1279.89 1714.61 1290.56 1716.23 1295.35 L 1702.86 1298.54 L 1698.85 1298.88 L 1698.08 1297.52 C 1699.86 1291.57 1706.06 1281.65 1709.32 1275.75 z"/>
<path transform="translate(0,0)" fill="rgb(20,46,80)" d="M 1188.23 1152.64 C 1191.2 1155.76 1196.23 1160.06 1196.89 1163.94 C 1195.04 1166.77 1194.62 1166.01 1190.22 1167.19 C 1186.27 1166.92 1183.11 1162.94 1180.08 1160.06 L 1188.23 1152.64 z"/>
<path transform="translate(0,0)" fill="rgb(218,225,238)" d="M 514.775 297.105 L 518.143 299.197 C 513.834 310.188 509.583 321.202 505.392 332.239 L 502.892 332.264 L 501.96 330.972 C 505.14 327.019 512.753 303.26 514.775 297.105 z"/>
<path transform="translate(0,0)" fill="rgb(20,46,80)" d="M 1009.79 1156.26 L 1026.88 1158.53 C 1025.76 1161.8 1024.29 1165.23 1022.98 1168.45 C 1022.52 1168.88 1022.05 1169.31 1021.58 1169.74 C 1017.94 1167.32 1011.9 1160.09 1009.79 1156.26 z"/>
<path transform="translate(0,0)" fill="rgb(42,26,78)" fill-opacity="0.945098" d="M 326.31 1379.7 C 341.108 1376.5 349.428 1379.92 362.628 1385.66 C 364.406 1387.63 365.082 1388.88 368.108 1387.92 C 372.238 1391.62 368.963 1390.71 371.038 1396.31 L 370.233 1396.42 C 366.157 1385.7 345.111 1382.3 335.288 1380.09 C 331.472 1379.82 331.123 1380.68 326.31 1379.7 z"/>
<path transform="translate(0,0)" fill="rgb(218,225,238)" d="M 311.469 555.841 C 316.957 562.252 324.071 571.949 328.408 579.16 L 327.202 580.563 C 324.559 577.144 322.276 573.785 318.969 571.035 C 313.062 566.46 312.412 564.832 309.803 557.7 L 311.469 555.841 z"/>
<path transform="translate(0,0)" fill="rgb(20,46,80)" d="M 1599.65 1291.98 C 1603.43 1291.89 1608.36 1291.16 1611.29 1293.12 C 1612.79 1296.13 1611.55 1299.76 1610.88 1303.26 L 1610.39 1303.29 C 1607.23 1301.75 1602.2 1295.02 1599.65 1291.98 z"/>
<path transform="translate(0,0)" fill="rgb(83,73,158)" fill-opacity="0.945098" d="M 496.397 291.888 L 498.38 291.782 C 495.936 299.165 489.736 318.361 485.961 324.317 L 484.956 324.09 C 486.233 317.38 493.677 298.526 496.397 291.888 z"/>
<path transform="translate(0,0)" fill="rgb(20,46,80)" d="M 1054.33 1062.74 C 1055.49 1066.83 1051.71 1076.75 1049.87 1080.56 C 1047.06 1070.87 1047.91 1070.39 1054.33 1062.74 z"/>
<path transform="translate(0,0)" fill="rgb(83,73,158)" fill-opacity="0.929412" d="M 296.163 569.995 L 297.036 567.801 L 298.99 567.163 C 302.101 572.522 305.169 576.44 308.894 581.372 L 306.589 582.419 C 303.088 577.666 300.649 573.876 296.163 569.995 z"/>
<path transform="translate(0,0)" fill="rgb(5,26,53)" d="M 756.002 636.252 C 769.364 635.811 784.227 636.047 797.683 635.988 C 803.889 642.489 806.642 670.46 806.557 679.249 L 807.876 683.311 C 834.49 691.39 864.767 703.786 887.98 719.595 C 896.786 707.4 903.733 701.763 918.648 698.067 C 929.244 695.442 945.353 701.689 949.05 700.248 L 951.544 703.19 C 951.15 707.847 943.565 715.674 939.613 717.725 C 924.533 710.611 912.079 716.914 902.16 728.988 C 921.696 743.706 929.626 752.83 946.727 767.5 C 951.064 773.707 954.153 775.84 957.884 780.676 C 1010.45 842.459 1036.29 922.604 1029.72 1003.45 C 1023.35 1085.23 984.487 1161.04 921.818 1213.96 C 907.591 1226.04 894.529 1234.8 879.01 1244.75 C 876.259 1241.73 867.377 1226.23 864.747 1221.76 L 837.08 1174.51 L 826.291 1172.48 C 797.392 1168.86 761.577 1164.4 733.334 1159.71 L 726.233 1240.95 C 724.988 1254.98 722.806 1273.26 722.279 1287.05 C 686.074 1286.22 655.966 1281.85 621.131 1269.84 C 544.141 1242.8 480.987 1186.39 445.473 1112.92 C 410.035 1039.13 405.305 954.303 432.32 877.032 C 459.431 800.527 515.55 737.758 588.555 702.284 C 584.866 694.47 563.144 650.683 563.712 645.506 C 565.703 645.243 568.188 644.831 569.963 645.763 C 590.844 656.727 613.422 672.321 633.529 683.949 C 653.57 679.875 671.004 674.727 691.979 672.793 C 701.873 671.88 722.099 672.591 730.152 671.09 C 729.722 665.066 750.971 642.041 756.002 636.252 z"/>
<path transform="translate(0,0)" fill="rgb(20,46,80)" d="M 563.712 645.506 C 565.703 645.243 568.188 644.831 569.963 645.763 C 590.844 656.727 613.422 672.321 633.529 683.949 C 641.949 690.799 665.303 704.337 675.299 710.415 C 674.875 719.19 672.744 777.611 669.958 781.382 L 665.124 782.695 C 654.01 776.001 613.108 742.595 602.937 731.846 C 598.893 727.572 591.017 708.697 588.555 702.284 C 584.866 694.47 563.144 650.683 563.712 645.506 z"/>
<path transform="translate(0,0)" fill="rgb(186,198,214)" d="M 563.712 645.506 C 565.703 645.243 568.188 644.831 569.963 645.763 C 590.844 656.727 613.422 672.321 633.529 683.949 C 641.949 690.799 665.303 704.337 675.299 710.415 C 674.875 719.19 672.744 777.611 669.958 781.382 L 665.124 782.695 C 666.731 759.172 668.112 735.633 669.267 712.084 L 598.071 668.073 C 590.585 663.441 569.003 650.76 563.712 645.506 z"/>
<path transform="translate(0,0)" fill="rgb(20,46,80)" d="M 756.002 636.252 C 769.364 635.811 784.227 636.047 797.683 635.988 C 803.889 642.489 806.642 670.46 806.557 679.249 C 805.455 682.394 805.292 683.236 804.688 686.393 C 796.122 703.145 787.495 723.664 779.663 741.07 C 771.952 741.032 749.782 740.485 743.119 741.718 C 743.158 738.323 754.779 705.338 756.702 699.71 C 749.935 691.821 737.675 677.162 730.152 671.09 C 729.722 665.066 750.971 642.041 756.002 636.252 z"/>
<path transform="translate(0,0)" fill="rgb(186,198,214)" d="M 797.683 635.988 C 803.889 642.489 806.642 670.46 806.557 679.249 C 805.455 682.394 805.292 683.236 804.688 686.393 C 802.373 671.779 798.512 650.218 797.683 635.988 z"/>
<path transform="translate(0,0)" fill="rgb(186,198,214)" d="M 806.557 679.249 L 807.876 683.311 C 809.21 695.779 789.581 731.897 783.521 744.981 C 773.595 745.105 749.446 747.225 743.119 741.718 C 749.782 740.485 771.952 741.032 779.663 741.07 C 787.495 723.664 796.122 703.145 804.688 686.393 C 805.292 683.236 805.455 682.394 806.557 679.249 z"/>
<path transform="translate(0,0)" fill="rgb(241,85,116)" d="M 606.204 827.045 C 615.935 833.755 641.111 854.348 647.486 862.777 C 677.281 902.17 642.935 952.108 595.862 944.001 C 576.243 937.923 557.2 919.231 541.017 905.809 C 562.139 881.997 585.638 851.938 606.204 827.045 z"/>
<path transform="translate(0,0)" fill="rgb(5,26,53)" d="M 611.575 864.913 C 620.673 871.938 629.383 878.252 630.047 890.931 C 630.382 897.834 627.877 904.573 623.116 909.582 C 616.78 916.122 609.43 917.587 600.826 917.543 C 591.114 914.358 587.37 910.445 579.617 903.914 C 590.343 890.974 600.996 877.973 611.575 864.913 z"/>
<path transform="translate(0,0)" fill="rgb(241,85,116)" d="M 754.157 948.936 C 765.953 958.136 782.538 970.409 792.503 981.073 C 813.11 1003.12 803.412 1023.33 775.881 1027.98 C 771.855 1032.18 784.903 1067.99 742.755 1065.94 C 726.148 1061.61 703.243 1039.55 689.086 1027.7 L 754.157 948.936 z"/>
<path transform="translate(0,0)" fill="rgb(5,26,53)" d="M 736.328 1012.88 C 746.544 1019.61 763.492 1034.26 741.881 1040.01 C 736.26 1036.8 729.905 1031.24 724.755 1027.03 C 728.604 1022.55 732.566 1017.49 736.328 1012.88 z"/>
<path transform="translate(0,0)" fill="rgb(5,26,53)" d="M 760.673 983.529 C 771.368 987.769 784.255 1001.67 766.673 1009.11 C 759.903 1005.16 755.9 1001.74 749.866 996.674 L 760.673 983.529 z"/>
<path transform="translate(0,0)" fill="rgb(241,85,116)" d="M 689.86 896.443 C 697.321 899.838 732.55 930.928 740.814 937.815 L 725.314 956.549 C 715.742 949.04 705.846 940.639 696.388 932.888 L 686.852 944.262 L 712.757 965.718 L 698.121 983.743 C 691.874 978.867 677.585 963.927 670.948 964.055 L 668.292 966.956 L 662.532 974.116 L 692.358 998.617 L 676.66 1017.48 L 625.085 974.981 C 646.468 950.23 669.116 921.873 689.86 896.443 z"/>
<path transform="translate(0,0)" fill="rgb(241,85,116)" d="M 820.612 1003.59 C 841.156 1019.22 864.871 1040.08 885.459 1056.85 L 869.277 1076.52 L 847.784 1058.78 C 837.783 1071.32 827.179 1083.93 816.985 1096.35 L 798.859 1118.15 L 776.974 1100.04 C 793.102 1081.75 810.042 1060.01 825.926 1041.01 C 819.039 1035.08 811.526 1029.08 804.486 1023.25 L 820.612 1003.59 z"/>
<path transform="translate(0,0)" fill="rgb(60,95,128)" d="M 562.572 746.073 C 583.777 744.357 580.86 757.786 573.344 771.651 C 561.218 794.021 537.686 818.324 513.04 826.219 C 493.747 829.64 494.634 816.574 501.215 803.433 C 513.667 778.567 536.301 755.743 562.572 746.073 z"/>
<path transform="translate(0,0)" fill="rgb(20,46,80)" d="M 883.789 802.871 C 885.436 802.658 886.053 802.198 886.921 803.335 C 895.463 814.52 906.737 835.101 913.684 847.024 C 908.353 861.265 903.115 875.54 897.969 889.848 C 891.308 892.093 886.791 894.305 879.87 894.158 C 878.542 890.545 882.711 810.313 883.789 802.871 z"/>
<path transform="translate(0,0)" fill="rgb(186,198,214)" d="M 883.789 802.871 C 885.436 802.658 886.053 802.198 886.921 803.335 C 895.463 814.52 906.737 835.101 913.684 847.024 C 908.353 861.265 903.115 875.54 897.969 889.848 C 891.308 892.093 886.791 894.305 879.87 894.158 C 883.911 891.024 888.663 889.951 893.608 888.348 L 909.352 845.421 C 900.99 831.143 892.468 816.959 883.789 802.871 z"/>
<path transform="translate(0,0)" fill="rgb(20,46,80)" d="M 519.29 1012.78 C 525.688 1024.64 540.617 1054.48 545.081 1066.71 C 544.126 1067.11 542.563 1067.75 541.649 1067.43 C 528.574 1062.86 512.076 1055.86 499.426 1050.92 C 503.193 1042.92 513.516 1017.33 519.29 1012.78 z"/>
<path transform="translate(0,0)" fill="rgb(186,198,214)" d="M 499.426 1050.92 C 503.193 1042.92 513.516 1017.33 519.29 1012.78 C 517.223 1020.59 506.826 1041.34 502.877 1049.59 C 516.538 1055.11 531.688 1060.86 545.081 1066.71 C 544.126 1067.11 542.563 1067.75 541.649 1067.43 C 528.574 1062.86 512.076 1055.86 499.426 1050.92 z"/>
<path transform="translate(0,0)" fill="rgb(20,46,80)" d="M 774.029 806.003 C 779.426 803.26 787.214 798.995 792.736 797.212 C 796.155 801.604 798.188 812.936 799.559 818.778 C 791.426 819.303 772.205 822.057 765.857 820.152 C 765.255 814.571 763.809 809.862 765.987 805.404 C 769.644 804.24 769.612 804.98 774.029 806.003 z"/>
<path transform="translate(0,0)" fill="rgb(186,198,214)" d="M 792.736 797.212 C 796.155 801.604 798.188 812.936 799.559 818.778 C 791.426 819.303 772.205 822.057 765.857 820.152 C 770.611 818.449 790.482 817.215 796.501 816.739 C 794.989 811.052 792.282 802.819 792.736 797.212 z"/>
<path transform="translate(0,0)" fill="rgb(20,46,80)" d="M 662.385 1101.61 C 669.582 1102.02 676.413 1102.76 683.461 1104.28 C 684.629 1109.94 675.775 1139 673.273 1145.76 L 672.087 1146.5 L 671.042 1145.11 L 662.385 1101.61 z"/>
<path transform="translate(0,0)" fill="rgb(186,198,214)" d="M 683.461 1104.28 C 684.629 1109.94 675.775 1139 673.273 1145.76 L 672.087 1146.5 L 671.042 1145.11 C 673.378 1136.85 679.842 1110.28 683.461 1104.28 z"/>
<path transform="translate(0,0)" fill="rgb(20,46,80)" d="M 868.875 964.296 C 874.305 959.276 878.423 956.016 884.331 951.518 C 888.605 957.104 897.552 968.088 901.002 973.593 L 901.971 975.09 L 901.046 975.685 C 894.615 973.902 871.757 968.438 868.875 964.296 z"/>
<path transform="translate(0,0)" fill="rgb(186,198,214)" d="M 868.875 964.296 C 877.33 966.645 893.264 971.982 901.002 973.593 L 901.971 975.09 L 901.046 975.685 C 894.615 973.902 871.757 968.438 868.875 964.296 z"/>
<path transform="translate(0,0)" fill="rgb(20,46,80)" d="M 840.551 840.151 C 844.744 841.431 853.284 845.341 857.688 847.232 L 849.879 861.891 L 848.754 864.031 L 847.337 864.376 C 843.86 862.104 840.714 856.816 838.21 853.228 L 840.551 840.151 z"/>
<path transform="translate(0,0)" fill="rgb(20,46,80)" d="M 843.9 952.655 C 845.468 953.611 846.396 955.429 846.929 957.192 C 847.57 959.281 847.294 961.544 846.168 963.417 C 844.149 966.732 841.501 966.464 837.359 967.512 L 835.838 967.479 L 834.521 965.994 C 834.768 960.387 839.875 956.536 843.9 952.655 z"/>
<path transform="translate(0,0)" fill="rgb(20,46,80)" d="M 846.85 794.548 C 849.63 795.615 853.188 799.213 854.48 801.926 L 853.338 802.644 C 850.096 802.064 846.028 801.671 843.387 799.96 L 843.284 798.106 L 846.85 794.548 z"/>
<path transform="translate(0,0)" fill="rgb(20,46,80)" d="M 804.053 904.092 C 809.072 903.812 811.289 903.936 816.022 905.34 L 816.438 906.912 C 811.905 908.266 809.12 909.816 805.194 907.975 L 804.053 904.092 z"/>
<path transform="translate(0,0)" fill="rgb(20,46,80)" d="M 733.334 1159.71 C 761.577 1164.4 797.392 1168.86 826.291 1172.48 L 837.08 1174.51 L 864.747 1221.76 C 867.377 1226.23 876.259 1241.73 879.01 1244.75 L 945.797 1358.33 C 955.847 1375.43 967.247 1392.65 975.31 1410.61 C 980.425 1422.01 975.812 1435.81 966.879 1443.76 C 938.762 1468.81 910.234 1493.77 882.006 1518.69 C 840.792 1555.08 799.329 1591.11 758.031 1627.39 C 748.907 1635.34 741.423 1638.43 733.369 1644.77 C 725.903 1643.23 722.139 1643.73 717.781 1637.02 C 714.028 1634.43 710.349 1631.51 707.882 1627.64 C 693.225 1604.62 679.111 1580.08 665.205 1556.63 L 581.452 1415 L 602.148 1396.86 L 627.759 1374.78 C 641.894 1358.89 717.287 1300.15 721.574 1290.95 C 722.132 1289.75 722.044 1288.35 722.279 1287.05 C 722.806 1273.26 724.988 1254.98 726.233 1240.95 L 733.334 1159.71 z"/>
<path transform="translate(0,0)" fill="rgb(60,95,128)" d="M 627.759 1374.78 L 747.285 1576.4 C 739.647 1583.34 729.421 1591.93 722.241 1598.99 L 640.784 1461.79 C 630.013 1443.6 613.577 1413.67 602.148 1396.86 L 627.759 1374.78 z"/>
<path transform="translate(0,0)" fill="rgb(186,198,214)" d="M 826.291 1172.48 L 837.08 1174.51 L 864.747 1221.76 C 867.377 1226.23 876.259 1241.73 879.01 1244.75 L 945.797 1358.33 C 955.847 1375.43 967.247 1392.65 975.31 1410.61 C 980.425 1422.01 975.812 1435.81 966.879 1443.76 C 938.762 1468.81 910.234 1493.77 882.006 1518.69 C 840.792 1555.08 799.329 1591.11 758.031 1627.39 C 748.907 1635.34 741.423 1638.43 733.369 1644.77 C 725.903 1643.23 722.139 1643.73 717.781 1637.02 C 722.134 1637.23 729.947 1637.52 733.641 1634.82 C 743.546 1627.59 753.737 1618.13 762.955 1610.03 L 822.685 1557.48 L 909.515 1481.24 C 924.888 1467.79 940.439 1454.46 955.389 1440.55 C 962.903 1433.56 968.205 1418.6 963.563 1408.97 C 952.092 1385.19 936.965 1362.79 923.854 1339.81 C 892.133 1284.21 856.987 1229.79 825.684 1174.02 L 826.291 1172.48 z"/>
<path transform="translate(0,0)" fill="rgb(253,253,253)" d="M 892.118 1422.81 C 902.095 1429.28 902.263 1447.83 885.831 1449.38 C 880.715 1444.86 879.823 1442.64 876.361 1436.79 L 892.118 1422.81 z"/>
<path transform="translate(0,0)" fill="rgb(20,46,80)" d="M 890.946 1430.69 C 898.456 1433.7 893.771 1441.45 888.271 1444.63 C 885.701 1442.49 884.679 1442.02 883.605 1438.83 C 884.303 1435.49 888.149 1433.05 890.946 1430.69 z"/>
<path transform="translate(0,0)" fill="rgb(253,253,253)" d="M 814.495 1291.09 C 823.951 1301.73 824.083 1317.6 806.843 1317.4 C 802.807 1313.21 801.288 1310.09 798.362 1305.12 L 814.495 1291.09 z"/>
<path transform="translate(0,0)" fill="rgb(20,46,80)" d="M 813.447 1298.72 C 819.594 1305.57 816.421 1309.39 809.746 1313.29 C 807.476 1310.95 806.673 1310.46 805.707 1307.29 C 807.272 1303.05 809.685 1302 813.447 1298.72 z"/>
<path transform="translate(0,0)" fill="rgb(253,253,253)" d="M 791.004 1251.83 C 799.318 1259.08 800.829 1268.03 789.127 1271.99 C 787.417 1272.57 784.928 1277.65 783.606 1279.56 L 780.957 1275.84 C 782.351 1272.6 783.625 1270.5 783.544 1266.99 C 781.339 1267.79 780.02 1268.17 777.744 1268.74 L 775.928 1267.55 L 775.758 1266.23 C 779.143 1261.75 786.536 1255.73 791.004 1251.83 z"/>
<path transform="translate(0,0)" fill="rgb(253,253,253)" d="M 879.992 1401.83 C 882.368 1403.99 885.984 1409.67 886.889 1413.01 C 885.625 1420.09 882.015 1419.08 876.547 1422.93 C 876.39 1423.03 874.457 1427.63 872.46 1429.59 L 869.996 1425.81 C 871.849 1421.84 871.952 1421.5 872.663 1417.21 C 866.696 1417.41 870.471 1420.08 865.229 1418 L 864.698 1416.34 C 868.137 1411.75 875.439 1405.81 879.992 1401.83 z"/>
<path transform="translate(0,0)" fill="rgb(253,253,253)" d="M 869.066 1384.04 C 877.23 1389.24 865.501 1404.07 860.739 1408.38 L 859.352 1407.89 L 858.752 1405.57 C 860.797 1397.78 855.544 1397.87 851.1 1393.41 C 853.656 1388.84 863.736 1386.05 869.066 1384.04 z"/>
<path transform="translate(0,0)" fill="rgb(253,253,253)" d="M 705.961 1399.66 C 710.698 1400.46 712.157 1401.77 713.064 1406.2 C 711.478 1413.04 706.211 1416.49 700.916 1420.83 C 699.306 1420.76 697.047 1420.4 695.815 1419.39 C 687.932 1412.97 702.606 1402.32 705.961 1399.66 z"/>
<path transform="translate(0,0)" fill="rgb(20,46,80)" d="M 707.248 1402.54 C 710.035 1406.05 709.561 1404.19 709.447 1408.08 C 707.176 1412.22 702.652 1415.12 698.805 1418.15 C 697.274 1416.16 697.33 1416.32 696.7 1413.9 C 698.166 1409.22 703.308 1405.84 707.248 1402.54 z"/>
<path transform="translate(0,0)" fill="rgb(253,253,253)" d="M 761.258 1491.7 C 765.351 1493.38 766.501 1494.4 767.831 1498.6 C 767.141 1505.29 760.937 1509.13 755.714 1513.49 C 750.621 1512.68 749.319 1511.52 748.381 1506.77 C 750.042 1500 755.964 1496.05 761.258 1491.7 z"/>
<path transform="translate(0,0)" fill="rgb(20,46,80)" d="M 761.637 1495.65 C 762.678 1496.16 763.456 1496.92 764.398 1497.68 L 764.57 1500.19 C 762.283 1504.34 758.019 1507.22 754.241 1510.32 C 751.293 1507.51 751.896 1509.11 751.596 1505.71 C 753.584 1501.61 757.974 1498.67 761.637 1495.65 z"/>
<path transform="translate(0,0)" fill="rgb(253,253,253)" d="M 771.996 1510.66 C 776.172 1511.63 777.554 1512.82 778.918 1516.76 C 777.893 1523.77 772.277 1527.43 766.926 1531.98 C 764.071 1532.02 763.58 1531.42 761.058 1530.04 C 755.97 1522.27 766.531 1514.97 771.996 1510.66 z"/>
<path transform="translate(0,0)" fill="rgb(20,46,80)" d="M 772.103 1514.62 C 774.563 1515.04 773.647 1514.7 775.669 1516.41 L 775.625 1518.81 C 773.191 1522.76 769.624 1525.27 766.035 1528.31 C 763.965 1527.9 764.568 1527.94 762.665 1526.59 L 762.403 1524.59 C 764.538 1520.49 768.502 1517.7 772.103 1514.62 z"/>
<path transform="translate(0,0)" fill="rgb(253,253,253)" d="M 695.454 1380.57 C 699.438 1382.37 700.807 1383.3 701.945 1387.58 C 700.989 1394.41 695.151 1397.91 689.756 1402.36 C 685.24 1401.71 683.655 1400.45 682.474 1396.24 C 683.91 1388.9 689.74 1385.18 695.454 1380.57 z"/>
<path transform="translate(0,0)" fill="rgb(20,46,80)" d="M 695.346 1384.71 C 697.744 1385.38 696.895 1384.95 698.718 1386.78 L 698.643 1389.2 C 696.173 1393.27 692.006 1396.18 688.264 1399.29 C 685.601 1396.72 686.317 1398.21 685.677 1394.87 C 687.508 1390.62 691.668 1387.83 695.346 1384.71 z"/>
<path transform="translate(0,0)" fill="rgb(253,253,253)" d="M 716.165 1418.64 C 721.765 1418.53 723.212 1419.81 723.957 1424.78 C 721.35 1432.51 718.832 1433.8 712.541 1438.92 C 709.836 1439.25 709.919 1438.96 707.086 1438.3 C 699.887 1431.69 711.213 1422.8 716.165 1418.64 z"/>
<path transform="translate(0,0)" fill="rgb(20,46,80)" d="M 717.843 1421.65 C 720.639 1422.88 720.472 1423.45 720.821 1425.91 C 718.676 1430.13 714.58 1432.98 710.868 1436.14 C 707.883 1434.92 707.896 1434.22 707.828 1431.56 C 710.08 1427.56 714.22 1424.68 717.843 1421.65 z"/>
<path transform="translate(0,0)" fill="rgb(253,253,253)" d="M 749.645 1473.59 C 766.847 1476.49 749.681 1490.78 744.103 1495.11 C 739.686 1493.83 738.622 1492.77 737.354 1488.5 C 738.667 1481.61 744.266 1478.05 749.645 1473.59 z"/>
<path transform="translate(0,0)" fill="rgb(20,46,80)" d="M 751.186 1476.63 C 753.757 1479.2 753.502 1478.88 753.353 1481.99 C 751.037 1486.13 746.594 1489 742.742 1492.04 C 740.42 1488.9 740.991 1490.59 740.711 1486.9 C 742.72 1482.72 747.402 1479.67 751.186 1476.63 z"/>
<path transform="translate(0,0)" fill="rgb(253,253,253)" d="M 683.557 1362.63 C 701.206 1364.44 683.861 1379.55 678.631 1383.77 C 674.023 1383.32 672.46 1381.88 671.512 1377.71 C 673.025 1370.45 677.957 1367.27 683.557 1362.63 z"/>
<path transform="translate(0,0)" fill="rgb(20,46,80)" d="M 684.972 1365.7 C 687.648 1367.3 687.497 1367.84 687.7 1370.39 C 685.505 1374.56 681.434 1377.31 677.699 1380.4 C 677.079 1380.07 675.587 1378.85 674.964 1378.37 L 674.674 1375.91 C 676.859 1371.79 681.261 1368.78 684.972 1365.7 z"/>
<path transform="translate(0,0)" fill="rgb(253,253,253)" d="M 782.27 1529.69 C 786.924 1529.88 789.002 1530.97 789.963 1535.42 C 788.395 1542.76 783.57 1545.83 777.911 1550.36 C 760.422 1550.2 777.195 1533.89 782.27 1529.69 z"/>
<path transform="translate(0,0)" fill="rgb(20,46,80)" d="M 783.965 1532.68 C 786.904 1535.06 786.483 1533.77 786.633 1537.28 C 784.379 1541.4 780.327 1544.2 776.631 1547.29 C 773.8 1545.91 773.742 1545.32 773.617 1542.72 C 776 1538.49 780.087 1535.81 783.965 1532.68 z"/>
<path transform="translate(0,0)" fill="rgb(253,253,253)" d="M 803.172 1272.8 C 805.859 1274.66 809.621 1281.12 810.337 1284.61 L 808.396 1286.15 C 805.376 1285.5 805.289 1283.66 802.235 1280.62 C 800.648 1282.07 801.152 1281.14 800.989 1283.54 C 802.522 1285.94 803.199 1286.54 803.653 1289.34 L 802.03 1291.16 L 800.021 1291.01 L 796.006 1284.89 L 794.556 1287.29 C 795.792 1292.25 796.749 1292.26 796.108 1297.4 L 794.979 1297.99 C 791.886 1294.97 789.67 1290.57 787.437 1286.77 L 803.172 1272.8 z"/>
<path transform="translate(0,0)" fill="rgb(253,253,253)" d="M 849.206 1358.82 C 857.027 1360.17 864.213 1368.01 859.555 1374.88 C 855.617 1370.61 854.403 1364.5 848.749 1365.18 C 845.822 1367.25 845.466 1368.55 843.99 1371.65 C 845.143 1376.01 846.723 1377.1 849.741 1380.48 L 849.602 1382.53 L 847.931 1383.13 C 834.389 1378.17 838.657 1365.53 849.206 1358.82 z"/>
<path transform="translate(0,0)" fill="rgb(253,253,253)" d="M 772.077 1231.88 C 779.477 1232 783.719 1234.96 786.224 1242.25 C 785.774 1246.02 786.365 1244.25 783.993 1247.59 C 779.231 1246.39 781.843 1237.88 773.748 1237.67 C 770.721 1239.3 770.519 1240.01 768.694 1242.87 L 768.144 1243.75 C 769.9 1250.69 773.959 1249.71 774.409 1254.77 L 773.068 1255.74 C 759.642 1253.46 763.114 1239.43 772.077 1231.88 z"/>
<path transform="translate(0,0)" fill="rgb(253,253,253)" d="M 833.671 1324.61 C 837.422 1326.99 842.753 1335.62 841.443 1340.49 L 839.646 1341.29 L 837.091 1338.16 C 834.209 1338.48 830.917 1342.14 828.258 1344.42 C 826.379 1346.13 826.365 1346.09 824.268 1347.5 C 821.993 1345.8 822.822 1346.84 822.035 1344.13 C 824.087 1340.31 829.68 1337.06 833.418 1332.56 C 833.064 1331.2 832.762 1330.13 832.328 1328.78 L 831.939 1327.6 L 833.671 1324.61 z"/>
<path transform="translate(0,0)" fill="rgb(253,253,253)" d="M 828.008 1314.72 C 830.272 1316.36 829.548 1315.24 830.472 1317.96 C 828.247 1322.4 819.987 1328.76 815.85 1332.34 C 813.332 1331.09 814.29 1331.96 813.119 1329.5 C 814.578 1325.35 824.282 1317.86 828.008 1314.72 z"/>
<path transform="translate(0,0)" fill="rgb(253,253,253)" d="M 1421.73 0 L 1432.16 0 L 1438.61 0 C 1429.47 25.8285 1406.94 69.4987 1394.24 94.6917 C 1325.01 229.146 1244.76 357.639 1154.32 478.853 C 1116.96 529.285 1078.43 578.841 1038.76 627.478 C 1024.79 644.546 1010.04 661.125 996.156 678.292 C 989.697 686.279 993.17 684.133 991.861 693.398 C 989.516 694.691 988.187 695.57 985.649 696.476 C 979.116 691.757 972.338 686.924 966.989 680.838 C 967.624 676.931 968.229 676.479 970.532 673.364 C 974.322 672.468 974.704 671.764 978.498 674.01 C 984.37 668.163 997.749 651.248 1003.71 644.147 C 1024.3 619.793 1044.47 595.09 1064.22 570.047 C 1201.91 397.389 1330.85 201.314 1421.73 0 z"/>
<path transform="translate(0,0)" fill="rgb(218,225,238)" d="M 1432.16 0 L 1438.61 0 C 1429.47 25.8285 1406.94 69.4987 1394.24 94.6917 C 1325.01 229.146 1244.76 357.639 1154.32 478.853 C 1116.96 529.285 1078.43 578.841 1038.76 627.478 C 1024.79 644.546 1010.04 661.125 996.156 678.292 C 989.697 686.279 993.17 684.133 991.861 693.398 C 989.516 694.691 988.187 695.57 985.649 696.476 C 979.116 691.757 972.338 686.924 966.989 680.838 C 967.624 676.931 968.229 676.479 970.532 673.364 C 974.322 672.468 974.704 671.764 978.498 674.01 C 980.464 676.537 983.954 679.034 986.564 681.098 C 995.668 671.428 1007.98 655.94 1016.73 645.486 C 1040.14 617.546 1063.06 589.209 1085.49 560.487 C 1203.16 410.102 1312.08 247.486 1397.06 76.1957 C 1403.86 62.4843 1428.85 12.1661 1432.16 0 z"/>
<path transform="translate(0,0)" fill="rgb(253,253,253)" d="M 966.989 680.838 C 967.624 676.931 968.229 676.479 970.532 673.364 C 977.397 677.325 988.821 685.989 991.861 693.398 C 989.516 694.691 988.187 695.57 985.649 696.476 C 979.116 691.757 972.338 686.924 966.989 680.838 z"/>
<path transform="translate(0,0)" fill="rgb(253,253,253)" d="M 966.989 680.838 C 972.338 686.924 979.116 691.757 985.649 696.476 L 983.691 702.407 C 981.766 703.655 980.645 704.514 978.528 705.44 L 976.501 706.322 C 976.093 708.078 975.48 710.372 975.202 712.098 C 972.603 713.893 971.552 714.965 968.406 715.356 L 967.508 717.249 L 964.939 715.353 C 961.375 716.381 953.687 724.442 952.78 727.819 C 948.006 732.659 947.588 733.09 940.72 733.119 L 939.66 733.114 C 933.422 727.673 934.712 723.297 939.613 717.725 C 943.565 715.674 951.15 707.847 951.544 703.19 L 949.05 700.248 L 951.59 694.216 C 954.013 692.155 955.86 691.649 958.815 690.305 C 959.076 687.526 959.686 686.535 960.654 683.893 C 962.908 683.047 964.859 681.95 966.989 680.838 z"/>
<path transform="translate(0,0)" fill="rgb(253,253,253)" d="M 966.989 680.838 C 972.338 686.924 979.116 691.757 985.649 696.476 L 983.691 702.407 C 981.766 703.655 980.645 704.514 978.528 705.44 C 971.663 704.135 963.337 695.555 958.815 690.305 C 959.076 687.526 959.686 686.535 960.654 683.893 C 962.908 683.047 964.859 681.95 966.989 680.838 z"/>
<path transform="translate(0,0)" fill="rgb(218,225,238)" d="M 966.989 680.838 C 972.338 686.924 979.116 691.757 985.649 696.476 L 983.691 702.407 C 979.764 695.302 968.567 686.226 960.654 683.893 C 962.908 683.047 964.859 681.95 966.989 680.838 z"/>
<path transform="translate(0,0)" fill="rgb(218,225,238)" d="M 961.113 710.1 C 964.297 712.126 965.495 712.971 968.406 715.356 L 967.508 717.249 L 964.939 715.353 C 961.375 716.381 953.687 724.442 952.78 727.819 C 948.006 732.659 947.588 733.09 940.72 733.119 L 939.66 733.114 C 945.055 729.089 956.201 715.737 961.113 710.1 z"/>
<path transform="translate(0,0)" fill="rgb(218,225,238)" d="M 958.815 690.305 C 963.337 695.555 971.663 704.135 978.528 705.44 L 976.501 706.322 C 976.093 708.078 975.48 710.372 975.202 712.098 C 971.093 703.702 961.063 695.248 951.59 694.216 C 954.013 692.155 955.86 691.649 958.815 690.305 z"/>
<path transform="translate(0,0)" fill="rgb(20,46,80)" d="M 952.78 727.819 C 953.687 724.442 961.375 716.381 964.939 715.353 L 967.508 717.249 C 978.492 741.312 978.604 761.65 957.884 780.676 C 954.153 775.84 951.064 773.707 946.727 767.5 C 958.553 755.219 960.662 743.036 952.78 727.819 z"/>
</svg>