<svg version="1.1" xmlns="http://www.w3.org/2000/svg" style="display: block;" viewBox="0 0 2048 1575" width="2000" height="1538" preserveAspectRatio="none">
<path transform="translate(0,0)" fill="rgb(105,94,247)" d="M 1088.09 446.402 C 1125.83 458.496 1160.6 467.02 1196.55 484.741 C 1252.29 512.22 1268.91 559 1298.93 607.792 C 1302.75 597.395 1304.18 595.105 1315.86 593.363 C 1314.62 598.548 1311.33 613.191 1309.34 617.294 L 1308.86 618.212 C 1308.67 626.879 1315.54 635.706 1321.53 641.55 C 1357.07 676.165 1395.83 704.484 1446.11 709.05 C 1450.89 691.638 1456.07 658.177 1474.29 651.127 C 1482.03 657.925 1483.13 659.549 1486.95 669.121 C 1487.94 674.253 1488.23 675.51 1488.01 680.816 C 1488.6 691.57 1486.75 701.326 1485.05 711.848 C 1475.12 773.112 1464.69 836.179 1435.79 891.816 C 1418.14 925.813 1390.25 939.095 1353.3 941.167 C 1315.92 943.264 1294.02 924.219 1271.82 896.766 C 1280.7 952.044 1288.38 1014.07 1289.78 1070.48 C 1290.33 1092.54 1250.94 1108.77 1232.66 1114.78 C 1197.76 1126.03 1158.72 1130.17 1122.18 1129.96 L 1112.33 975.956 C 1110.41 947.405 1108.9 914.256 1105.95 886.141 L 1106.42 882.446 C 1104.33 872.89 1103.64 847.129 1102.26 835.287 C 1102.02 822.027 1100.31 805.633 1099.26 792.247 C 1097.13 763.414 1094.83 734.592 1092.37 705.784 C 1090.92 688.788 1088.58 668.05 1087.99 651.241 C 1088.88 650.682 1090.74 649.452 1091.1 648.603 C 1098.67 630.49 1124.45 523.655 1122.64 510.696 C 1118.83 503.946 1104.89 499.382 1097.31 496.225 C 1102.61 495.366 1113.96 494.179 1118.02 491.23 C 1121.9 478.576 1089.69 454.927 1088.09 446.402 z"/>
<path transform="translate(0,0)" fill="rgb(34,10,24)" d="M 1486.95 669.121 C 1487.94 674.253 1488.23 675.51 1488.01 680.816 C 1481.46 692.659 1476.53 699.061 1463.26 703.807 C 1459.63 705.103 1454.25 707.625 1450.67 706.006 L 1450.49 704.717 C 1464.28 694.639 1480.14 698.129 1483.06 674.377 C 1483.51 670.685 1484.25 670.769 1486.95 669.121 z"/>
<path transform="translate(0,0)" fill="rgb(34,10,24)" d="M 1308.86 618.212 C 1306.26 618.74 1307.61 618.725 1304.72 617.617 C 1301.18 611.862 1304.17 603.704 1308.78 599.293 C 1310.07 600.632 1308.33 610.372 1309.17 616.165 L 1309.34 617.294 L 1308.86 618.212 z"/>
<path transform="translate(0,0)" fill="rgb(34,10,24)" d="M 1230.35 606.49 C 1235.16 609.192 1238.11 635.171 1239.21 641.708 C 1249.77 703.821 1258.46 766.239 1265.25 828.877 C 1266.26 838.237 1272.84 889.036 1269.69 895.089 C 1268.74 894.255 1267.08 892.613 1266.94 891.463 C 1264.09 867.255 1261.61 837.686 1258.84 813.893 C 1252.67 759.676 1245.07 705.631 1236.04 651.814 C 1234.81 644.579 1227.75 611.23 1230.35 606.49 z"/>
<path transform="translate(0,0)" fill="rgb(34,10,24)" d="M 1296.35 608.205 C 1298.34 608.941 1298.19 608.987 1299.61 610.605 C 1297.68 620.988 1287.95 647.084 1284.11 659.675 C 1275.22 688.845 1269.73 716.262 1262.35 745.373 C 1260.4 745.018 1260.53 744.907 1259.07 743.508 C 1258.18 728.27 1288.84 625.704 1296.35 608.205 z"/>
<path transform="translate(0,0)" fill="rgb(105,94,247)" d="M 945.669 446.403 C 944.172 453.627 917.086 477.865 918.619 489.61 C 921.517 493.563 934.212 494.6 939.51 495.421 C 931.463 499.803 919.961 502.767 915.286 509.091 C 910.816 526.013 934.669 614.992 938.483 636.876 C 939.326 641.711 941.479 648.66 946.096 651.296 C 945.493 669.901 942.918 691.151 941.558 710.149 C 938.471 752.074 935.973 794.041 934.064 836.037 C 933.17 851.044 932.853 868.369 931.668 883.035 L 931.735 886.958 C 930.291 906.38 929.957 927.419 929.215 947.028 L 925.275 1059.98 C 924.844 1073.39 924.11 1122.23 921.509 1130.85 C 909.898 1139.14 839.322 1126.58 824.414 1120.95 C 804.704 1114.78 759.524 1097.06 760.777 1074.8 C 764.414 1010.2 769.569 936.041 778.433 872.269 C 755.312 902.283 736.357 937.47 693.319 940.87 C 670.673 942.659 636.434 937.033 619.646 920.236 C 574.458 875.023 564.085 797.542 552.039 737.319 C 548.901 721.385 545.718 702.484 544.597 687.461 C 543.932 682.55 544.779 673.718 545.89 668.861 C 551.524 660.785 548.776 659.876 558.413 651.252 C 577.184 657.956 581.55 691.617 586.915 709.187 C 602.25 707.496 608.382 705.978 623.489 701.142 C 654.618 691.179 710.819 651.134 724.309 622.537 C 723.032 615.114 718.949 601.528 716.96 593.511 C 728.71 595.494 729.524 597.137 733.889 608.033 L 735.024 607.668 C 737.183 600.938 757.369 566.296 761.783 558.405 C 793.54 501.633 833.306 480.183 893.758 461.985 C 910.526 456.938 928.257 450.833 945.669 446.403 z"/>
<path transform="translate(0,0)" fill="rgb(34,10,24)" d="M 733.889 608.033 L 735.024 607.668 C 743.298 616.085 776.625 736.791 772.266 744.366 C 768.274 741.542 761.943 709.217 760.249 702.506 C 754.772 680.547 748.513 658.791 741.484 637.279 C 739.569 631.412 732.249 612.592 733.889 608.033 z"/>
<path transform="translate(0,0)" fill="rgb(34,10,24)" d="M 545.89 668.861 C 553.053 674.218 547.81 683.71 558.942 693.011 C 565.921 698.843 581.371 700.537 582.752 705.911 C 575.267 707.743 567.341 703.316 560.844 699.658 C 552.476 694.948 549.877 689.883 545.582 681.766 C 545.195 683.742 544.812 685.451 544.597 687.461 C 543.932 682.55 544.779 673.718 545.89 668.861 z"/>
<path transform="translate(0,0)" fill="rgb(34,10,24)" d="M 822.423 602.179 L 825.076 603.105 C 827.081 607.333 820.039 635.843 818.681 642.843 C 809.427 690.52 801.293 738.408 794.286 786.466 C 791.189 807.377 788.452 838.612 784.425 857.717 C 783.202 857.463 782.106 857.667 781.48 856.432 C 776.513 846.642 816.022 627.437 822.423 602.179 z"/>
<path transform="translate(0,0)" fill="rgb(41,12,11)" d="M 892.399 782.912 C 893.006 782.85 893.614 782.801 894.223 782.766 C 911.537 781.849 910.899 804.652 900.207 815.557 C 880.734 819.063 881.781 792.986 892.399 782.912 z"/>
<path transform="translate(0,0)" fill="rgb(41,12,11)" d="M 903.335 672.94 C 922.508 671.695 921.993 694.631 910.482 706.013 C 891.108 707.749 892.407 683.06 903.335 672.94 z"/>
<path transform="translate(0,0)" fill="rgb(34,10,24)" d="M 722.752 598.638 C 731.607 600.996 729.719 612.221 727.478 619.018 L 725.661 618.606 C 723.999 616.566 722.664 601.897 722.752 598.638 z"/>
<path transform="translate(0,0)" fill="rgb(103,55,57)" d="M 1102.26 835.287 C 1103.64 847.129 1104.33 872.89 1106.42 882.446 L 1105.95 886.141 C 1108.9 914.256 1110.41 947.405 1112.33 975.956 L 1122.18 1129.96 C 1158.72 1130.17 1197.76 1126.03 1232.66 1114.78 C 1237.08 1153.36 1239.06 1190.32 1242.24 1228.91 C 1245.14 1263.99 1250.29 1299.84 1252.5 1335.06 C 1252.78 1339.52 1253.05 1339.43 1250.88 1342.58 C 1246.93 1344.98 1214.61 1344.12 1208.25 1344.12 L 1138.35 1344.13 L 1075.82 1344.08 C 1064.94 1344.07 1045.74 1344.98 1035.63 1342.39 C 1033.32 1336.4 1033.01 1288.16 1032.69 1277.71 C 1033.35 1267.07 1032.17 1246.82 1032.47 1235.69 C 1032.67 1227.79 1032.65 1198.19 1031.37 1191.93 L 1030 1191.86 L 1030.18 1213.47 C 1029.95 1240.34 1029.88 1267.2 1029.96 1294.07 C 1029.96 1308.06 1029.32 1329.28 1030.37 1342.38 C 1026.28 1345 1006.52 1344.13 1000.6 1344.13 L 952.937 1344.13 C 906.603 1344.13 859.3 1344.64 813.1 1343.89 C 812.66 1320.92 814.194 1293.72 815.092 1270.49 C 816.686 1220.56 819.795 1170.69 824.414 1120.95 C 839.322 1126.58 909.898 1139.14 921.509 1130.85 C 924.11 1122.23 924.844 1073.39 925.275 1059.98 L 929.215 947.028 C 929.957 927.419 930.291 906.38 931.735 886.958 L 931.668 883.035 C 932.853 868.369 933.17 851.044 934.064 836.037 L 1102.26 835.287 z"/>
<path transform="translate(0,0)" fill="rgb(103,55,57)" d="M 1102.26 835.287 C 1103.64 847.129 1104.33 872.89 1106.42 882.446 C 1101.68 882.093 1087.89 882.946 1082.58 883.136 C 1067.85 883.685 1053.12 884.071 1038.38 884.296 C 1002.11 884.934 967.756 883.766 931.668 883.035 C 932.853 868.369 933.17 851.044 934.064 836.037 L 1102.26 835.287 z"/>
<path transform="translate(0,0)" fill="rgb(41,12,11)" d="M 931.668 883.035 C 967.756 883.766 1002.11 884.934 1038.38 884.296 C 1053.12 884.071 1067.85 883.685 1082.58 883.136 C 1087.89 882.946 1101.68 882.093 1106.42 882.446 L 1105.95 886.141 C 1081.32 887.561 1056.67 888.284 1032 888.307 C 1032.19 896.679 1034.74 950.057 1031.01 954.571 C 1026.43 956.614 1024.49 955.627 1019.97 955.929 C 1007.08 956.789 1007.18 947.854 1006.89 937.38 C 1006.45 921.366 1005.79 904.983 1006.05 888.82 C 981.193 888.051 956.63 887.933 931.735 886.958 L 931.668 883.035 z"/>
<path transform="translate(0,0)" fill="rgb(103,55,57)" d="M 1010.12 888.823 C 1015.8 888.575 1022.2 888.628 1027.95 888.542 C 1028.68 909.609 1028.95 930.688 1028.76 951.766 C 1023.96 951.86 1017.18 952.688 1013.68 949.767 C 1009.75 941.503 1010.13 899.801 1010.12 888.823 z"/>
<path transform="translate(0,0)" fill="rgb(41,12,11)" d="M 1030 1191.86 C 1023.36 1183.49 1023.62 1049.99 1016.55 1028.12 C 1014.36 1021.31 1004.08 1007.92 1003.62 1003.75 L 1005.06 1002.73 C 1009.55 1004.31 1014.32 1013.13 1016.3 1017.3 C 1019.78 1024.57 1022.07 1032.34 1023.09 1040.33 C 1024.64 1051.88 1032.71 1186.34 1031.37 1191.93 L 1030 1191.86 z"/>
<path transform="translate(0,0)" fill="rgb(254,163,110)" d="M 1315.86 593.363 C 1321.69 577.898 1324.11 561.378 1333.85 547.587 C 1346.81 529.225 1429.54 484.957 1452.16 474.75 C 1460.09 471.175 1472.98 465.999 1481.7 469.316 C 1484.41 470.348 1485.83 472.248 1486.84 474.919 C 1489.43 481.753 1489.07 491.07 1485.74 497.512 C 1476.16 516.075 1435.69 523.874 1439.32 535.011 C 1440.08 537.337 1442.33 539.733 1444.58 540.682 C 1457.71 546.22 1495.49 534.068 1507.79 528.354 C 1519.51 522.907 1532.54 515.298 1542.45 506.951 C 1556.96 494.726 1585.51 453.373 1606.27 461.101 C 1609.81 462.418 1612.33 464.938 1613.76 468.409 C 1614.57 470.385 1615.27 472.409 1615.96 474.43 C 1624.13 470.134 1636.81 465.096 1642.25 475.795 C 1647.59 486.315 1641.88 496.336 1637.23 505.335 C 1646.98 523.844 1641.04 527.668 1636.24 545.594 C 1628.56 574.3 1597.87 609.443 1571.71 622.375 C 1544.04 636.054 1504.71 643.68 1474.29 651.127 C 1456.07 658.177 1450.89 691.638 1446.11 709.05 C 1395.83 704.484 1357.07 676.165 1321.53 641.55 C 1315.54 635.706 1308.67 626.879 1308.86 618.212 L 1309.34 617.294 C 1311.33 613.191 1314.62 598.548 1315.86 593.363 z"/>
<path transform="translate(0,0)" fill="rgb(190,91,59)" d="M 1616.63 534.047 C 1622.16 533.878 1632.28 536.147 1631.38 543.269 C 1610.43 536.224 1609.13 540.604 1595.36 555.618 C 1580.96 571.319 1548.12 605.635 1525.38 602.782 C 1485.45 597.772 1453.92 574.554 1419.49 611.114 C 1416.99 615.032 1414.87 622.343 1409.88 622.808 C 1409.77 619.892 1410.81 617.259 1412.25 614.657 C 1427.25 587.518 1455.32 583.555 1483.5 588.472 C 1500.27 591.008 1522 603.809 1538.86 596.043 C 1558.92 586.805 1576.77 567.949 1591.8 552.02 C 1600.33 542.982 1604.77 537.917 1616.63 534.047 z"/>
<path transform="translate(0,0)" fill="rgb(190,91,59)" d="M 1622.44 504.285 C 1625.84 504.497 1629.81 504.557 1632.31 506.842 C 1629.67 509.588 1611.68 511.135 1607.75 515.077 C 1586.31 536.576 1572.57 554.451 1546.58 571.161 C 1543.26 573.181 1541.58 574.414 1538.34 573.645 L 1538.01 571.578 C 1541.65 567.551 1548.15 565.021 1552.7 561.724 C 1565.94 552.267 1577.06 540.44 1588.07 528.564 C 1598.76 517.028 1606.44 507.565 1622.44 504.285 z"/>
<path transform="translate(0,0)" fill="rgb(190,91,59)" d="M 1608.9 477.689 L 1611.38 479.875 L 1611.09 481.905 C 1584.26 507.245 1562.17 535.846 1531.62 555.585 C 1529.76 555.409 1530.69 555.668 1528.98 553.97 C 1530.01 550.136 1539.12 544.739 1542.83 541.755 C 1566.9 522.371 1585.81 498.293 1608.9 477.689 z"/>
<path transform="translate(0,0)" fill="rgb(254,163,110)" d="M 417.694 474.888 C 418.108 472.873 419.267 466.767 420.482 465.52 C 439.247 446.267 467.797 485.028 477.42 495.035 C 483.34 501.23 489.804 506.88 496.735 511.918 C 521.039 529.746 555.905 543.056 586.188 541.39 C 594.801 540.576 596.622 527.141 583.579 523.059 C 563.702 516.839 528.208 493.344 551.402 469.348 C 557.715 462.816 586.592 477.091 596.344 482.65 C 625.521 499.282 659.541 516.538 687.128 536.45 C 705.618 549.615 710.874 572.8 716.96 593.511 C 718.949 601.528 723.032 615.114 724.309 622.537 C 710.819 651.134 654.618 691.179 623.489 701.142 C 608.382 705.978 602.25 707.496 586.915 709.187 C 581.55 691.617 577.184 657.956 558.413 651.252 C 526.965 643.542 492.748 636.611 463.271 623.506 C 429.723 608.591 376.612 543.135 395.436 505.187 C 391.277 496.57 385.436 486.104 389.898 476.508 C 395.412 464.648 409.668 470.581 417.694 474.888 z"/>
<path transform="translate(0,0)" fill="rgb(190,91,59)" d="M 411.093 534.01 C 417.87 534.031 423.494 535.406 428.525 540.073 C 442.82 553.334 454.214 568.383 469.971 580.305 C 482.68 589.921 495.825 601.085 513.079 598.021 C 519.954 596.8 526.028 594.82 532.694 592.814 C 558.322 584.383 589.775 581.796 610.797 601.942 C 616.612 607.506 622.361 613.456 622.695 622.17 L 621.578 623.239 C 617.946 620.853 618.128 619.574 615.97 615.346 C 611.948 608.308 603.777 601.054 596.704 597.432 C 560.902 579.099 531.152 606.047 498.901 602.35 C 484.911 600.746 457.866 577.05 447.369 566.434 C 439.177 558.149 429.024 543.276 417.274 539.422 C 410.402 537.168 407.878 541.406 402.874 543.985 L 402.029 542.69 C 403.553 536.525 405.518 536.518 411.093 534.01 z"/>
<path transform="translate(0,0)" fill="rgb(190,91,59)" d="M 400.205 505.423 C 432.382 500.184 446.032 535.996 468.45 552.752 C 475.09 557.715 490.299 566.67 494.882 571.544 L 494.443 575.101 C 472.086 566.641 447.199 538.92 431.661 520.996 C 418.807 506.168 408.495 512.842 400.522 508.507 L 400.205 505.423 z"/>
<path transform="translate(0,0)" fill="rgb(190,91,59)" d="M 421.474 477.593 C 431.56 478.741 479.126 538.453 493.323 544.292 C 496.83 545.734 503.277 551.104 504.321 555.308 C 487.454 554.734 438.874 496.449 423.866 483.887 C 421.049 481.528 421.373 480.769 421.474 477.593 z"/>
<path transform="translate(0,0)" fill="rgb(68,134,98)" d="M 1649.22 262.086 C 1654.13 261.883 1657.04 261.554 1661.09 264.713 C 1690.1 287.312 1719.13 310.054 1747.6 333.332 C 1751.22 336.296 1754.8 340.542 1757.07 344.612 C 1757.45 348.561 1757.37 356.726 1754.31 359.612 C 1725.81 386.495 1694.45 411.189 1664.34 436.36 C 1660.37 439.675 1652.07 444.61 1647.71 439.436 C 1639 429.107 1649.04 408.681 1640.85 398.278 C 1638.64 395.513 1627.36 396.945 1623.75 397.202 C 1587.21 400.208 1551.02 400.859 1514.39 400.638 C 1504.4 400.578 1492.52 401.764 1482.78 399.757 C 1480.5 399.286 1478.75 398.988 1477.48 396.908 C 1475.63 393.895 1473.91 321.526 1475.52 315.945 C 1476.28 313.323 1478.34 312.752 1480.77 312.106 C 1490.24 309.591 1502.47 310.862 1512.31 310.634 L 1591.3 308.85 C 1600.3 308.663 1633.7 309.411 1640.13 305.673 C 1647.52 294.595 1633.79 273.633 1649.22 262.086 z"/>
<path transform="translate(0,0)" fill="rgb(41,12,11)" d="M 1667.25 285.689 C 1673.9 286.439 1702.11 310.866 1708.6 316.553 C 1717.71 324.526 1741.1 337.331 1742.17 349.518 C 1743.15 360.813 1719.8 373.02 1712.61 380.568 C 1703.84 388.63 1696.96 395.383 1689.06 403.967 C 1687.45 403.174 1687.91 403.281 1686.68 401.674 C 1688.18 395.615 1708.71 376.387 1714.48 372.55 C 1748.49 349.939 1740.93 347.074 1711.22 324.257 C 1699.43 315.173 1687.73 305.985 1676.11 296.693 C 1671.44 292.898 1667.81 291.129 1667.25 285.689 z"/>
<path transform="translate(0,0)" fill="rgb(41,12,11)" d="M 1485.94 352.275 C 1496.27 357.962 1477.31 385.653 1508.37 384.961 C 1537.6 384.31 1568.23 383.153 1597.6 382.362 C 1603.34 382.207 1616.61 381.286 1621.35 382.432 L 1622.12 383.929 L 1620.99 386.515 C 1602.47 387.136 1509.1 391.79 1496.01 388.5 C 1491.93 387.476 1488.7 383.924 1486.85 380.292 C 1482.74 372.261 1483.23 360.649 1485.94 352.275 z"/>
<path transform="translate(0,0)" fill="rgb(199,149,201)" d="M 444.136 252.004 C 478.441 249.332 441.529 293.746 470.13 297.67 C 489.112 300.274 616.074 297.556 624.477 303.036 C 625.462 304.389 626.63 306.212 626.495 307.879 C 625.495 320.314 628.234 381.796 622.97 388.072 C 608.849 393.151 503.979 388.993 485.5 387.51 C 478.501 386.926 465.232 384.549 459.911 388.672 C 456.311 394.416 457.511 408.658 457.687 416.268 C 458.937 428.2 449.103 436.382 438.861 427.462 C 409.128 401.566 377.133 376.882 348.308 350.138 C 342.816 345.043 343.387 332.458 349.449 326.909 C 362.736 314.746 377.801 303.967 391.828 292.596 C 409.069 279.76 426.313 263.612 444.136 252.004 z"/>
<path transform="translate(0,0)" fill="rgb(41,12,11)" d="M 611.461 361.308 C 613.67 361.784 613.556 361.885 615.379 363.287 C 616.171 365.128 616.646 366.508 616.578 368.543 C 616.466 371.838 615.132 374.311 612.6 376.406 C 596.189 389.981 506.762 383.973 481.136 382.191 L 478.34 381.534 L 477.21 379.354 C 480.301 374.864 594.443 387.121 610.749 372.341 C 612.699 368.544 611.476 366.313 611.461 361.308 z"/>
<path transform="translate(0,0)" fill="rgb(41,12,11)" d="M 440.917 260.77 L 443.368 261.438 L 444.09 263.025 C 439.349 271.933 360.083 320.885 357.941 339.823 C 357.651 342.389 364.823 345.87 365.46 352.003 C 365.143 352.005 364.824 352.038 364.508 352.008 C 361.267 351.696 358.777 349.492 356.774 347.091 C 354.255 344.072 352.358 340.443 352.89 336.398 C 354.578 323.565 425.442 272.016 440.917 260.77 z"/>
<path transform="translate(0,0)" fill="rgb(41,12,11)" d="M 986.815 398.423 L 987.545 387.861 C 992.665 394.817 994.923 402.57 1002.07 407.821 C 1014.94 417.279 1031.96 417.043 1047.26 417.172 L 1047.3 418.89 C 1049.58 422.272 1050.55 423.792 1052.28 427.472 C 1062.57 430.886 1066.89 432.759 1075.96 438.763 C 1077.97 440.09 1086.56 445.88 1088.09 446.402 C 1089.69 454.927 1121.9 478.576 1118.02 491.23 C 1113.96 494.179 1102.61 495.366 1097.31 496.225 C 1104.89 499.382 1118.83 503.946 1122.64 510.696 C 1124.45 523.655 1098.67 630.49 1091.1 648.603 C 1090.74 649.452 1088.88 650.682 1087.99 651.241 C 1085.34 634.037 1083.66 612.646 1081.53 595.012 C 1077.71 562.111 1072.77 529.35 1066.72 496.786 C 1063.72 479.888 1060.85 461.92 1056.68 445.338 C 1054.18 454.869 1050.14 463.926 1044.71 472.148 C 1041.86 476.381 1039.45 479.76 1034.34 480.721 C 1028.03 478.175 1026.82 469.713 1021.75 463.654 L 1020.99 466.092 L 1018.69 466.508 L 1016.39 463.732 L 1015.78 463.263 C 1012.9 470.587 1010.53 475.654 1006.52 482.487 C 991.764 473.854 982.735 462.636 977.025 446.437 C 972.901 461.536 969.962 480.761 967.175 496.468 C 961.015 530.121 955.975 563.971 952.064 597.96 C 950.2 614.187 948.569 635.525 946.096 651.296 C 941.479 648.66 939.326 641.711 938.483 636.876 C 934.669 614.992 910.816 526.013 915.286 509.091 C 919.961 502.767 931.463 499.803 939.51 495.421 C 934.212 494.6 921.517 493.563 918.619 489.61 C 917.086 477.865 944.172 453.627 945.669 446.403 C 947.388 445.987 954.616 440.895 956.515 439.579 C 965.2 433.564 971.814 430.708 981.836 427.301 C 983.556 422.819 984.569 420.936 986.875 416.796 C 987.236 412.579 986.858 403.038 986.815 398.423 z"/>
<path transform="translate(0,0)" fill="rgb(254,163,110)" d="M 986.815 398.423 L 987.545 387.861 C 992.665 394.817 994.923 402.57 1002.07 407.821 C 1014.94 417.279 1031.96 417.043 1047.26 417.172 L 1047.3 418.89 C 1032.05 463.171 1004.82 451.749 986.875 416.796 C 987.236 412.579 986.858 403.038 986.815 398.423 z"/>
<path transform="translate(0,0)" fill="rgb(254,163,110)" d="M 1022.85 273.889 C 1037.36 264.626 1062.1 258.586 1056.72 285.152 L 1058.73 285.481 C 1067.14 284.623 1082.66 283.951 1083.14 296.201 C 1083.71 310.839 1072.02 319.256 1060.77 325.815 C 1061.41 345.236 1076.53 409.907 1049.31 413.52 L 1047.26 417.172 C 1031.96 417.043 1014.94 417.279 1002.07 407.821 C 994.923 402.57 992.665 394.817 987.545 387.861 L 986.815 398.423 C 986.053 388.027 986.114 385.168 983.193 374.979 C 974.632 375.098 968.47 364.46 966.742 357.086 C 964.026 340.792 958.709 312.592 967.958 299.457 C 973.085 291.207 982.843 288.126 990.139 282.551 C 1001.72 273.704 1007.52 263.477 1022.85 273.889 z"/>
<path transform="translate(0,0)" fill="rgb(190,91,59)" d="M 1022.85 273.889 C 1037.36 264.626 1062.1 258.586 1056.72 285.152 L 1058.73 285.481 C 1067.14 284.623 1082.66 283.951 1083.14 296.201 C 1083.71 310.839 1072.02 319.256 1060.77 325.815 C 1058.93 317.52 1047.69 315.595 1039.84 312.19 C 1034.04 313.274 1021.17 314.302 1017.37 315.351 C 1009.45 317.537 1007.28 320.765 996.327 322.805 L 995.156 324.34 C 994.415 332.83 993.762 348.28 984.047 350.134 C 978.611 348.613 974.447 345.2 970.408 345.688 C 966.291 348.765 966.669 352.247 966.742 357.086 C 964.026 340.792 958.709 312.592 967.958 299.457 C 973.085 291.207 982.843 288.126 990.139 282.551 C 1001.72 273.704 1007.52 263.477 1022.85 273.889 z"/>
<path transform="translate(0,0)" fill="rgb(118,47,19)" d="M 1058.73 285.481 C 1067.89 292.734 1076.35 309.542 1063.24 317.062 L 1062.26 316.208 C 1062.2 308.017 1069.19 302.526 1060.34 293.083 C 1052.97 285.227 1049.09 290.036 1043.18 296.459 C 1038.63 301.421 1035.29 290.584 1028.79 291.571 C 1017.23 291.544 1018.02 305.947 1014.14 309.227 C 1011.5 308.496 1012.6 309.226 1010.98 306.631 C 1010.91 301.337 1015.08 295.172 1018.6 291.513 C 1028.94 280.762 1033.31 290.611 1040.86 289.891 C 1045.93 289.409 1045.97 285 1056.72 285.152 L 1058.73 285.481 z"/>
<path transform="translate(0,0)" fill="rgb(118,47,19)" d="M 995.156 324.34 C 979.375 329.081 971.769 320.227 976.774 304.979 C 979.122 297.828 992.859 290.331 995.556 297.95 C 993.333 301.162 987.635 299.255 983.805 303.146 C 978.675 308.359 977.723 315.277 983.71 320.316 C 989.012 322.244 989.775 319.604 994.662 320.375 L 996.327 322.805 L 995.156 324.34 z"/>
<path transform="translate(0,0)" fill="rgb(190,91,59)" d="M 983.193 374.979 C 985.881 375.487 987.317 375.222 988.902 378.033 C 998.202 394.524 996.767 403.085 1015.95 409.635 C 1025.35 412.843 1044.29 411.131 1049.31 413.52 L 1047.26 417.172 C 1031.96 417.043 1014.94 417.279 1002.07 407.821 C 994.923 402.57 992.665 394.817 987.545 387.861 L 986.815 398.423 C 986.053 388.027 986.114 385.168 983.193 374.979 z"/>
<path transform="translate(0,0)" fill="rgb(190,91,59)" d="M 1009.81 332.175 C 1015.61 331.887 1023.64 331.577 1026.65 337.872 L 1025.96 339.804 C 1022.87 342.101 1020.25 341.555 1016.25 341.529 C 1010.61 342.36 1004.83 344.19 1001.3 338.648 C 1002.28 334.994 1006.68 333.478 1009.81 332.175 z"/>
<path transform="translate(0,0)" fill="rgb(190,91,59)" d="M 1037.91 339.786 C 1043.5 328.795 1056.54 327.312 1059.48 338.194 C 1057.11 343.211 1048.18 340.299 1041.98 341.393 L 1037.91 339.786 z"/>
<path transform="translate(0,0)" fill="rgb(190,91,59)" d="M 1049.97 361.374 C 1049.37 362.071 1047.93 367.133 1046.57 369.331 L 1044.55 369.696 C 1041.98 359.286 1036.86 348.226 1037.91 339.786 L 1041.98 341.393 C 1042.01 346.352 1041.86 348.96 1045.46 352.623 C 1047.45 355.903 1048.72 357.696 1049.97 361.374 z"/>
<path transform="translate(0,0)" fill="rgb(41,12,11)" d="M 1014.57 345.333 C 1025.13 346.263 1023.53 353.663 1020.94 361.158 L 1016.88 360.438 C 1010.95 356.319 1012.38 351.47 1014.57 345.333 z"/>
<path transform="translate(0,0)" fill="rgb(41,12,11)" d="M 1045.46 352.623 C 1046.35 349.058 1046.25 347.959 1048.92 345.788 C 1056.65 345.443 1058.2 356.714 1049.97 361.374 C 1048.72 357.696 1047.45 355.903 1045.46 352.623 z"/>
<path transform="translate(0,0)" fill="rgb(190,91,59)" d="M 971.003 347.668 C 977.699 350.057 984.452 358.301 981.867 365.574 C 978.586 364.067 972.609 354.031 970.345 350.463 L 971.003 347.668 z"/>
<path transform="translate(0,0)" fill="rgb(41,12,11)" fill-opacity="0.988235" d="M 1018.09 561.233 C 1019.85 558.675 1019.82 558.488 1020.48 555.354 L 1020.64 554.558 C 1021.39 556.459 1022.12 558.365 1022.84 560.277 L 1025.08 732.395 C 1025.34 754.497 1027.08 794.225 1025.77 815.443 L 1024.38 816.635 C 1020.75 815.673 1020.86 811.878 1020.93 808.487 C 1022.68 726.463 1016.84 643.107 1018.09 561.233 z"/>
<path transform="translate(0,0)" fill="rgb(0,0,0)" fill-opacity="0.980392" d="M 1016.39 463.732 L 1018.69 466.508 L 1020.99 466.092 C 1022.53 476.558 1022.33 503.132 1022.26 514.969 C 1022.17 528.731 1023.24 546.987 1022.84 560.277 C 1022.12 558.365 1021.39 556.459 1020.64 554.558 L 1020.48 555.354 C 1019.82 558.488 1019.85 558.675 1018.09 561.233 L 1017.62 500.662 C 1017.53 490.041 1017.68 473.923 1016.39 463.732 z"/>
<path transform="translate(0,0)" fill="rgb(41,12,11)" fill-opacity="0.0470588" d="M 1030 1191.86 L 1031.37 1191.93 C 1032.65 1198.19 1032.67 1227.79 1032.47 1235.69 C 1032.17 1246.82 1033.35 1267.07 1032.69 1277.71 C 1031.26 1275.98 1031.4 1273.33 1031.09 1270.73 C 1030.42 1254.53 1032.23 1228.19 1030.18 1213.47 L 1030 1191.86 z"/>
<path transform="translate(0,0)" fill="rgb(65,30,36)" fill-opacity="0.305882" d="M 1030.18 1213.47 C 1032.23 1228.19 1030.42 1254.53 1031.09 1270.73 C 1031.04 1281.59 1031.65 1335.21 1030.37 1342.38 C 1029.32 1329.28 1029.96 1308.06 1029.96 1294.07 C 1029.88 1267.2 1029.95 1240.34 1030.18 1213.47 z"/>
</svg>