<svg version="1.1" xmlns="http://www.w3.org/2000/svg" style="display: block;" viewBox="0 0 2048 1536" width="2000" height="1500" preserveAspectRatio="none">
<path transform="translate(0,0)" fill="rgb(197,219,239)" d="M 898.782 168.38 C 996.105 162.688 1098.87 191.673 1194.86 204.167 C 1256.53 212.192 1313.61 204.885 1374.48 207.94 C 1474.14 212.942 1583.65 277.476 1630.35 366.732 C 1668.15 438.481 1656.15 520.818 1710.38 585.089 C 1757.5 640.92 1851.08 662.091 1902.22 713.079 C 1955.22 765.92 1988.41 845.938 1988.56 920.577 C 1988.76 1017.96 1946.31 1102.12 1880.58 1170.58 C 1802.72 1251.18 1713.61 1320.11 1616.03 1375.22 C 1580.53 1395.34 1546.5 1412.95 1506.98 1424.01 C 1432.38 1444.91 1357.68 1419.85 1284.22 1406.01 C 1233.53 1396.46 1181.37 1393.79 1129.75 1394.79 C 993.925 1397.03 864.716 1427.01 730.476 1440.82 C 677.044 1446.31 618.137 1439.76 566.383 1426.42 C 464.707 1400.2 317.07 1370.99 288.312 1251.42 C 284.806 1236.92 283.686 1220.82 280.056 1206.23 C 272.43 1173.31 262.391 1141.09 247.693 1110.61 C 237.562 1089.61 223.951 1076.89 208.289 1060.12 C 124.468 970.417 58.5979 865.222 50.8605 739.644 C 45.1009 646.167 63.5719 565.047 126.502 493.36 C 174.175 437.955 243.691 406.166 316.783 406.347 C 332.086 406.286 348.646 408.433 364.209 409.076 C 410.541 410.99 450.92 406.305 493.969 388.89 C 534.7 372.413 568.53 345.25 601.11 316.327 C 705.161 223.955 757.087 177.628 898.782 168.38 z"/>
<path transform="translate(0,0)" fill="rgb(32,85,163)" d="M 1093.62 474.032 C 1124.07 444.281 1159.74 420.811 1200.32 407.38 C 1287.01 378.692 1398.18 372.115 1476.58 426.053 C 1559.92 483.391 1590.11 589.698 1596.36 685.6 C 1598.26 714.641 1596.78 743.63 1596.89 772.679 C 1594.76 933.54 1546.42 1137.89 1428.33 1252.33 C 1413.09 1267.21 1396.27 1280.39 1378.18 1291.64 C 1333.82 1316.61 1304.37 1323.01 1252.9 1324.6 C 1195.76 1326.36 1145.41 1319.65 1102.04 1279.61 C 1097.44 1279.63 1077.95 1280.37 1075.4 1278.05 C 1075.47 1275.37 1075.79 1273.7 1074.43 1271.26 C 1073.94 1258.74 1070.45 1245.68 1066.56 1233.81 L 1054.39 1223.9 C 1054.15 1218.85 1053.77 1213.81 1053.22 1208.79 C 1053.07 1205.45 1053.11 1203.34 1053.31 1200 L 1054.63 1199.16 C 1053.73 1193.67 1052.99 1187.5 1052.37 1181.95 L 1051.73 1182.56 C 1049.85 1180.57 1047.96 1178.59 1046.05 1176.63 C 1041.08 1179.14 1014.3 1189.58 1012.67 1191.81 C 1009.68 1190.89 1006.05 1192.37 1003.45 1193.91 C 997.861 1195 963.189 1199.91 960.922 1200.8 C 955.662 1202.44 952.455 1203.23 947.707 1206.07 C 938.236 1232.34 932.574 1250.68 932.999 1279.13 C 926.566 1279.29 904.688 1280.42 900.044 1278.78 C 858.911 1326.17 807.252 1334.68 747.256 1334.07 C 692.563 1333.51 649.644 1324.78 603.944 1293.67 C 580.814 1277.47 559.868 1258.37 541.623 1236.82 C 419.241 1094.27 386.84 868.048 397.603 685.217 C 407.821 511.628 508.295 375.224 694.971 396.533 C 790.054 407.387 854.988 429.552 918.648 504.8 C 925.647 496.869 934.974 490.959 944.617 486.76 C 963.523 453.561 994.286 438.037 1032.41 441.771 C 1056.31 443.896 1078.36 455.517 1093.62 474.032 z"/>
<path transform="translate(0,0)" fill="rgb(32,85,163)" d="M 603.944 1293.67 C 580.814 1277.47 559.868 1258.37 541.623 1236.82 C 419.241 1094.27 386.84 868.048 397.603 685.217 C 407.821 511.628 508.295 375.224 694.971 396.533 C 790.054 407.387 854.988 429.552 918.648 504.8 L 921.08 508.413 C 904.359 504.815 886.892 508.133 872.656 517.614 C 849.084 532.989 839.576 556.372 843.409 583.796 C 819.213 592.098 804.879 616.418 814.11 641.09 C 815.784 645.607 818.301 649.764 821.527 653.34 C 832.262 654.71 862.667 653.877 874.911 653.871 L 983.713 653.809 C 986.7 667.929 987.848 681.685 990.546 694.725 C 992.881 691.742 991.441 692.8 995.082 691.516 C 998.457 691.917 998.292 691.829 1000.89 694.005 L 1001.39 699.054 C 998.955 721.759 997.752 744.579 997.783 767.414 C 997.875 773.399 998.185 780.7 997.783 786.57 C 998.259 864.141 1012.95 931.493 1024.38 1006.71 C 1036.34 1007.84 1044.49 1011.04 1052.41 1020.61 C 1064.82 1035.58 1067.41 1056.24 1070.44 1074.77 C 1071.04 1078.4 1072.94 1087.26 1073.08 1090.2 C 1072.52 1088.77 1071.97 1087.34 1071.44 1085.9 L 1070.37 1086.59 C 1070.19 1091.38 1070.08 1101.29 1069.18 1105.65 C 1071.52 1113.84 1074.49 1123.05 1075.67 1131.4 C 1076.03 1139.84 1077.52 1150.4 1071.83 1156.84 C 1066.15 1163.26 1062.54 1161.76 1057.43 1163.92 C 1055.54 1164.16 1055.45 1163.84 1053.42 1163.16 L 1047.71 1162.66 L 1045.62 1164.42 C 1045.64 1166.09 1045.45 1166.51 1045.97 1168 C 1045.76 1171.54 1045.55 1173.16 1046.05 1176.63 C 1041.08 1179.14 1014.3 1189.58 1012.67 1191.81 C 1009.68 1190.89 1006.05 1192.37 1003.45 1193.91 C 997.861 1195 963.189 1199.91 960.922 1200.8 C 955.662 1202.44 952.455 1203.23 947.707 1206.07 C 938.236 1232.34 932.574 1250.68 932.999 1279.13 C 926.566 1279.29 904.688 1280.42 900.044 1278.78 C 858.911 1326.17 807.252 1334.68 747.256 1334.07 C 692.563 1333.51 649.644 1324.78 603.944 1293.67 z"/>
<path transform="translate(0,0)" fill="rgb(18,56,117)" d="M 963.206 1060.64 C 969.84 1050.99 972.884 1038.99 981.508 1028.81 C 994.064 1013.98 1005.52 1008.62 1024.38 1006.71 C 1036.34 1007.84 1044.49 1011.04 1052.41 1020.61 C 1064.82 1035.58 1067.41 1056.24 1070.44 1074.77 C 1071.04 1078.4 1072.94 1087.26 1073.08 1090.2 C 1072.52 1088.77 1071.97 1087.34 1071.44 1085.9 L 1070.37 1086.59 C 1070.19 1091.38 1070.08 1101.29 1069.18 1105.65 C 1071.52 1113.84 1074.49 1123.05 1075.67 1131.4 C 1076.03 1139.84 1077.52 1150.4 1071.83 1156.84 C 1066.15 1163.26 1062.54 1161.76 1057.43 1163.92 C 1055.54 1164.16 1055.45 1163.84 1053.42 1163.16 L 1047.71 1162.66 L 1045.62 1164.42 C 1045.64 1166.09 1045.45 1166.51 1045.97 1168 C 1045.76 1171.54 1045.55 1173.16 1046.05 1176.63 C 1041.08 1179.14 1014.3 1189.58 1012.67 1191.81 C 1009.68 1190.89 1006.05 1192.37 1003.45 1193.91 C 997.861 1195 963.189 1199.91 960.922 1200.8 C 955.662 1202.44 952.455 1203.23 947.707 1206.07 C 950.438 1196.58 945.788 1195.18 942.047 1186.75 C 940.4 1183.05 939.06 1179.42 937.135 1175.8 L 937.207 1175.23 C 937.127 1172.57 935.111 1163.3 934.568 1159.96 C 931.612 1141.79 928.129 1122.26 933.524 1104.28 C 937.977 1098.84 939.707 1096.71 945.955 1093.99 C 951.043 1088.65 953.164 1086.1 957.3 1080.05 C 960.897 1073.74 963.511 1068.25 964.994 1061.15 L 963.206 1060.64 z"/>
<path transform="translate(0,0)" fill="rgb(242,80,86)" d="M 960.734 1095.45 C 966.57 1094.47 969.329 1094.01 975.214 1093.97 C 985.498 1101.66 968.216 1151.22 1005.67 1166.44 L 1012.88 1166.38 C 1020.14 1165.98 1042.61 1161.94 1047.71 1162.66 L 1045.62 1164.42 C 1045.64 1166.09 1045.45 1166.51 1045.97 1168 C 1045.76 1171.54 1045.55 1173.16 1046.05 1176.63 C 1041.08 1179.14 1014.3 1189.58 1012.67 1191.81 C 1009.68 1190.89 1006.05 1192.37 1003.45 1193.91 C 997.861 1195 963.189 1199.91 960.922 1200.8 C 955.662 1202.44 952.455 1203.23 947.707 1206.07 C 950.438 1196.58 945.788 1195.18 942.047 1186.75 C 940.4 1183.05 939.06 1179.42 937.135 1175.8 L 937.207 1175.23 C 937.127 1172.57 935.111 1163.3 934.568 1159.96 C 931.612 1141.79 928.129 1122.26 933.524 1104.28 C 937.977 1098.84 939.707 1096.71 945.955 1093.99 C 952.598 1093.85 954.183 1094.12 960.734 1095.45 z"/>
<path transform="translate(0,0)" fill="rgb(235,29,37)" d="M 960.734 1095.45 C 966.57 1094.47 969.329 1094.01 975.214 1093.97 C 985.498 1101.66 968.216 1151.22 1005.67 1166.44 C 996.361 1167.97 986.921 1168.25 978.038 1164.97 L 975.173 1160.88 C 971.449 1139.59 976.212 1109.4 960.734 1095.45 z"/>
<path transform="translate(0,0)" fill="rgb(218,39,43)" d="M 975.173 1160.88 L 978.038 1164.97 C 972.765 1166.91 965.421 1170.49 960.134 1172.88 C 965.041 1168.85 970.193 1164.85 975.173 1160.88 z"/>
<path transform="translate(0,0)" fill="rgb(242,80,86)" d="M 1040.97 1052.89 C 1043.75 1053.21 1043.72 1053.13 1046.32 1052.6 L 1047.43 1050.18 C 1049.02 1057.74 1065.3 1094.66 1069.18 1105.65 C 1071.52 1113.84 1074.49 1123.05 1075.67 1131.4 C 1076.03 1139.84 1077.52 1150.4 1071.83 1156.84 C 1066.15 1163.26 1062.54 1161.76 1057.43 1163.92 C 1055.54 1164.16 1055.45 1163.84 1053.42 1163.16 C 1031.85 1146.93 1041.83 1104.31 1033.34 1088.57 C 1034.87 1079.17 1030.82 1059.23 1034.05 1052.78 L 1040.97 1052.89 z"/>
<path transform="translate(0,0)" fill="rgb(235,29,37)" d="M 1033.34 1088.57 C 1041.83 1104.31 1031.85 1146.93 1053.42 1163.16 L 1047.71 1162.66 C 1042.61 1161.94 1020.14 1165.98 1012.88 1166.38 C 1010.22 1150.68 1007.44 1137.3 1005.36 1121.2 C 1004.63 1116.05 1004.37 1110.19 1004.01 1104.95 C 1007.04 1104.99 1011.32 1105.18 1014.22 1104.81 L 1014.77 1104.95 L 1016.1 1103.87 C 1023.5 1101.09 1028.54 1094.48 1033.34 1088.57 z"/>
<path transform="translate(0,0)" fill="rgb(218,39,43)" d="M 1014.22 1104.81 L 1014.77 1104.95 L 1018.25 1114.94 C 1014.37 1116.08 1008.08 1116.62 1006.21 1118.41 L 1005.36 1121.2 C 1004.63 1116.05 1004.37 1110.19 1004.01 1104.95 C 1007.04 1104.99 1011.32 1105.18 1014.22 1104.81 z"/>
<path transform="translate(0,0)" fill="rgb(117,16,26)" d="M 1014.77 1104.95 L 1016.1 1103.87 C 1022.1 1121.02 1026.37 1128.88 1019.45 1145.32 L 1018.98 1144.98 C 1020.48 1128.47 1022.93 1131.83 1018.25 1114.94 L 1014.77 1104.95 z"/>
<path transform="translate(0,0)" fill="rgb(245,156,116)" d="M 1020.19 1047.94 C 1022.92 1045.61 1023.19 1045.03 1026.57 1044.72 C 1031.34 1046.44 1032.1 1047.88 1034.05 1052.78 C 1030.82 1059.23 1034.87 1079.17 1033.34 1088.57 C 1028.54 1094.48 1023.5 1101.09 1016.1 1103.87 C 1011.48 1092.89 1010.86 1078.64 1011.89 1066.87 C 1012.66 1058.13 1014.67 1054.53 1020.19 1047.94 z"/>
<path transform="translate(0,0)" fill="rgb(245,156,116)" d="M 1018.51 1046.74 L 1020.19 1047.94 C 1014.67 1054.53 1012.66 1058.13 1011.89 1066.87 C 1010.86 1078.64 1011.48 1092.89 1016.1 1103.87 L 1014.77 1104.95 L 1014.22 1104.81 C 1011.32 1105.18 1007.04 1104.99 1004.01 1104.95 C 1002.91 1087.2 1001.72 1057.88 1018.51 1046.74 z"/>
<path transform="translate(0,0)" fill="rgb(124,80,65)" d="M 1018.51 1046.74 L 1020.19 1047.94 C 1014.67 1054.53 1012.66 1058.13 1011.89 1066.87 C 1010.86 1078.64 1011.48 1092.89 1016.1 1103.87 L 1014.77 1104.95 L 1014.22 1104.81 C 1008.56 1085.04 1005.33 1063.99 1018.51 1046.74 z"/>
<path transform="translate(0,0)" fill="rgb(245,156,116)" d="M 1040.97 1052.89 C 1037.35 1047.31 1036.32 1043.21 1035.07 1036.67 C 1035.24 1037.57 1025.52 1030.58 1024.95 1030.11 L 1025.01 1028.72 C 1028.37 1027.7 1035.03 1027.97 1038.87 1027.96 C 1049.49 1036.16 1048.91 1036.91 1047.43 1050.18 L 1046.32 1052.6 C 1043.72 1053.13 1043.75 1053.21 1040.97 1052.89 z"/>
<path transform="translate(0,0)" fill="rgb(197,219,239)" d="M 990.546 694.725 C 992.881 691.742 991.441 692.8 995.082 691.516 C 998.457 691.917 998.292 691.829 1000.89 694.005 L 1001.39 699.054 C 998.955 721.759 997.752 744.579 997.783 767.414 C 997.875 773.399 998.185 780.7 997.783 786.57 C 998.259 864.141 1012.95 931.493 1024.38 1006.71 C 1005.52 1008.62 994.064 1013.98 981.508 1028.81 C 972.884 1038.99 969.84 1050.99 963.206 1060.64 C 961.878 1061.97 962.409 1061.6 960.751 1062.35 C 960.189 1059.4 965.313 1035.2 966.297 1029.59 C 969.81 1009.57 973.501 989.261 976.93 969.198 C 977.726 964.541 974.1 963.264 975.111 957.07 C 979.554 954.235 979.453 953.806 980.206 948.833 C 986.039 910.329 991.641 871.718 994.354 832.854 C 997.591 786.494 995.304 740.857 990.546 694.725 z"/>
<path transform="translate(0,0)" fill="rgb(176,199,214)" d="M 997.783 786.57 C 996.242 779.812 996.199 774.104 997.783 767.414 C 997.875 773.399 998.185 780.7 997.783 786.57 z"/>
<path transform="translate(0,0)" fill="rgb(197,219,239)" d="M 937.135 1175.8 C 939.06 1179.42 940.4 1183.05 942.047 1186.75 C 945.788 1195.18 950.438 1196.58 947.707 1206.07 C 938.236 1232.34 932.574 1250.68 932.999 1279.13 C 926.566 1279.29 904.688 1280.42 900.044 1278.78 C 918.44 1251.57 921.315 1242.3 928.632 1209.53 C 929.496 1205.67 933.38 1188.33 934.714 1185.34 L 937.625 1185.3 C 934.881 1180.09 935.173 1181.1 937.135 1175.8 z"/>
<path transform="translate(0,0)" fill="rgb(18,56,117)" d="M 921.112 1166.04 C 914.787 1152.73 912.3 1136.45 918.294 1122.57 C 921.762 1114.54 927.257 1110.03 933.524 1104.28 C 928.129 1122.26 931.612 1141.79 934.568 1159.96 C 935.111 1163.3 937.127 1172.57 937.207 1175.23 C 932.264 1174.05 925.385 1168.99 921.112 1166.04 z"/>
<path transform="translate(0,0)" fill="rgb(197,219,239)" d="M 957.3 1080.05 C 957.75 1071.49 958.684 1067.55 964.994 1061.15 C 963.511 1068.25 960.897 1073.74 957.3 1080.05 z"/>
<path transform="translate(0,0)" fill="rgb(197,219,239)" d="M 566.817 727.436 C 572.938 727.281 579.063 727.452 585.165 727.948 C 621.433 731.135 650.946 756.53 673.41 783.25 C 650.29 805.595 624.825 821.133 592.723 826.603 C 563.533 829.628 524.908 819.95 502.217 801.071 C 487.216 788.59 481.249 767.897 495.649 752.508 C 513.242 733.707 542.393 728.977 566.817 727.436 z"/>
<path transform="translate(0,0)" fill="rgb(197,219,239)" d="M 919.022 735.04 L 922.835 735.442 C 926.608 737.802 930.677 737.924 934.9 739.382 C 947.227 743.643 961.066 750.909 965.857 763.903 C 968.173 770.188 965.262 776.697 962.491 782.31 C 957.408 792.606 934.778 810.296 923.675 811.083 C 923.386 815.274 923.701 818.357 921.161 821.509 C 918.188 819.947 918.842 816.521 918.856 813.372 C 874.833 828.216 844.712 816.078 809.232 788.875 C 832.28 757.159 860.911 732.255 902.532 734.84 C 907.708 735.161 913.805 735.089 919.022 735.04 z"/>
<path transform="translate(0,0)" fill="rgb(248,251,252)" d="M 918.856 813.372 C 918.982 810.065 918.875 809.222 921.32 807.095 C 923.361 808.428 922.73 808.108 923.675 811.083 C 923.386 815.274 923.701 818.357 921.161 821.509 C 918.188 819.947 918.842 816.521 918.856 813.372 z"/>
<path transform="translate(0,0)" fill="rgb(248,251,252)" d="M 919.126 778.06 C 921.064 778.563 920.625 778.479 922.409 779.493 C 923.988 784.124 923.177 788.852 922.839 793.854 C 921.527 793.381 920.93 792.992 919.701 792.336 C 918.108 787.877 918.865 782.93 919.126 778.06 z"/>
<path transform="translate(0,0)" fill="rgb(248,251,252)" d="M 919.065 749.128 C 920.456 749.574 921.048 749.955 922.351 750.614 C 924.005 755.113 923.216 760.011 922.934 764.941 C 920.999 764.353 921.456 764.478 919.698 763.399 C 918.212 758.871 918.861 754 919.065 749.128 z"/>
<path transform="translate(0,0)" fill="rgb(18,56,117)" d="M 636.023 1054.8 C 640.869 1056.5 667.014 1077.19 674.125 1081.75 C 713.186 1106.81 761.958 1129.47 809.422 1119.77 C 849.703 1111.53 872.255 1087.62 893.587 1055.69 C 889.743 1066.29 885.878 1075.63 881.456 1086.02 C 825.663 1205.03 732.002 1158.08 662.534 1085.24 C 653.75 1076.03 643.194 1065.25 636.023 1054.8 z"/>
<path transform="translate(0,0)" fill="rgb(248,251,252)" d="M 881.074 877.449 C 881.776 877.773 882.964 878.661 883.654 879.134 C 885.099 884.321 884.664 889.355 883.036 894.449 L 880.77 892.669 C 879.406 887.378 880.106 882.721 881.074 877.449 z"/>
<path transform="translate(0,0)" fill="rgb(248,251,252)" d="M 880.332 848.124 C 882.889 848.556 881.787 848.046 883.769 849.689 C 885.129 854.247 884.218 859.695 883.806 864.539 C 882.025 863.871 882.356 863.894 880.785 862.69 C 879.545 858.406 880.145 852.761 880.332 848.124 z"/>
<path transform="translate(0,0)" fill="rgb(248,251,252)" d="M 880.798 907.205 C 886.672 909.12 884.189 919.704 883.603 924.554 L 881.353 923.05 C 879.029 919.183 880.273 911.668 880.798 907.205 z"/>
<path transform="translate(0,0)" fill="rgb(248,251,252)" d="M 880.723 967.22 C 883.195 968.116 882.105 967.432 883.954 969.57 C 885.014 975.19 884.306 978.614 883.619 984.278 C 882.283 983.409 881.933 982.999 880.748 981.928 C 879.375 976.957 880.214 972.367 880.723 967.22 z"/>
<path transform="translate(0,0)" fill="rgb(248,251,252)" d="M 880.812 937.211 C 886.639 938.966 884.18 949.659 883.616 954.403 C 881.988 953.45 881.908 953.159 880.651 951.716 C 879.442 946.353 880.191 942.663 880.812 937.211 z"/>
<path transform="translate(0,0)" fill="rgb(248,251,252)" d="M 880.661 997.224 C 883.164 998.12 882.062 997.433 883.939 999.574 C 885.007 1005.19 884.314 1008.47 883.617 1014.14 C 882.295 1013.29 881.929 1012.88 880.755 1011.83 C 879.391 1006.94 880.197 1002.31 880.661 997.224 z"/>
<path transform="translate(0,0)" fill="rgb(248,251,252)" d="M 919.693 835.206 C 921.507 836.068 920.996 835.81 922.533 837.169 C 923.912 842.068 923.081 846.704 922.598 851.793 L 920.108 850.483 C 917.802 846.316 919.077 839.9 919.693 835.206 z"/>
<path transform="translate(0,0)" fill="rgb(248,251,252)" d="M 919.193 893.151 C 921.03 893.659 920.684 893.597 922.377 894.536 C 923.921 899.13 923.194 903.984 922.932 908.942 C 920.98 908.378 921.456 908.502 919.679 907.426 C 918.198 902.868 918.922 898.049 919.193 893.151 z"/>
<path transform="translate(0,0)" fill="rgb(248,251,252)" d="M 919.934 691.44 C 921.663 692.301 921.239 692.173 922.67 693.621 C 923.83 698.595 923.084 702.706 922.568 707.783 C 921.667 707.368 920.574 706.621 919.7 706.078 C 918.117 700.791 918.848 696.814 919.934 691.44 z"/>
<path transform="translate(0,0)" fill="rgb(248,251,252)" d="M 975.697 782.313 C 977.45 783.103 977.327 783.146 978.562 784.657 C 979.7 789.58 978.928 793.76 978.396 798.783 L 975.646 797.178 C 973.972 791.906 974.811 787.682 975.697 782.313 z"/>
<path transform="translate(0,0)" fill="rgb(248,251,252)" d="M 975.192 811.288 C 977.004 811.93 976.676 811.867 978.311 812.956 C 979.746 817.627 979.012 822.23 978.699 827.197 C 976.567 826.719 977.337 827.011 975.523 825.704 C 974.071 821.384 974.868 815.938 975.192 811.288 z"/>
<path transform="translate(0,0)" fill="rgb(248,251,252)" d="M 919.471 864.228 C 920.879 864.769 921.119 865.008 922.411 865.799 C 923.976 870.8 923.466 875.383 921.852 880.315 L 919.57 878.604 C 918.29 873.867 919.058 869.152 919.471 864.228 z"/>
<path transform="translate(0,0)" fill="rgb(248,251,252)" d="M 975.184 696.258 C 976.992 696.897 976.674 696.826 978.311 697.881 C 979.782 702.097 979 707.432 978.69 711.99 C 976.602 711.645 977.38 711.883 975.545 710.662 C 974.069 706.377 974.868 700.89 975.184 696.258 z"/>
<path transform="translate(0,0)" fill="rgb(248,251,252)" d="M 976.118 753.665 L 978.421 755.392 C 979.676 760.135 978.905 764.852 978.486 769.773 C 977.582 769.408 976.48 768.71 975.599 768.208 C 974.024 763.189 974.516 758.623 976.118 753.665 z"/>
<path transform="translate(0,0)" fill="rgb(248,251,252)" d="M 919.164 922.084 C 921.103 922.546 920.621 922.454 922.41 923.463 C 923.932 928.126 923.161 932.813 922.84 937.814 C 921.517 937.346 920.968 936.977 919.733 936.313 C 918.208 931.873 918.925 926.907 919.164 922.084 z"/>
<path transform="translate(0,0)" fill="rgb(248,251,252)" d="M 975.475 926.212 L 978.135 927.774 C 979.922 932.946 978.925 937.327 978.093 942.641 C 976.382 941.941 976.496 941.847 975.308 940.385 C 974.2 934.802 974.815 931.851 975.475 926.212 z"/>
<path transform="translate(0,0)" fill="rgb(248,251,252)" d="M 976.103 897.648 C 977.149 898.245 977.627 898.829 978.536 899.665 C 979.655 904.594 978.905 908.758 978.389 913.783 L 975.644 912.209 C 974.029 907.18 974.514 902.633 976.103 897.648 z"/>
<path transform="translate(0,0)" fill="rgb(248,251,252)" d="M 975.043 869.047 C 977.013 869.616 976.519 869.483 978.31 870.575 C 979.752 875.126 979.022 879.886 978.735 884.76 C 977.856 884.465 976.55 883.78 975.67 883.361 C 974.058 878.877 974.797 873.943 975.043 869.047 z"/>
<path transform="translate(0,0)" fill="rgb(248,251,252)" d="M 975.12 725.138 C 976.492 725.605 976.998 725.968 978.274 726.66 C 979.751 731.128 979.031 736.027 978.775 740.851 C 976.93 740.357 977.315 740.43 975.617 739.476 C 974.056 734.874 974.822 730.106 975.12 725.138 z"/>
<path transform="translate(0,0)" fill="rgb(248,251,252)" d="M 975.154 840.187 C 976.068 840.524 977.253 841.164 978.159 841.609 C 979.781 846.115 979.06 850.976 978.823 855.89 C 976.926 855.399 977.357 855.484 975.612 854.496 C 974.052 849.878 974.835 845.166 975.154 840.187 z"/>
<path transform="translate(0,0)" fill="rgb(248,251,252)" d="M 919.022 735.04 C 918.879 730.361 918.244 726.66 920.313 722.599 L 921.65 722.357 C 923.933 726.604 923.183 730.488 922.835 735.442 L 919.022 735.04 z"/>
<path transform="translate(0,0)" fill="rgb(248,251,252)" d="M 944.617 486.76 C 963.523 453.561 994.286 438.037 1032.41 441.771 C 1056.31 443.896 1078.36 455.517 1093.62 474.032 C 1103.99 487.393 1108.27 498.322 1111.12 515.097 C 1143.21 506.445 1176.96 517.909 1188.32 551.738 C 1190.65 558.652 1189.43 568.002 1195 573.348 C 1213.25 573.839 1223.33 572.976 1236.82 587.196 C 1255.12 606.502 1255.38 634.896 1236.4 653.185 C 1229.94 654.332 1217.06 653.858 1210.05 653.812 C 1210.2 670.055 1208.32 680.077 1196.04 691.783 C 1146.98 693.683 1057.95 691.285 1004.94 692.062 C 1004.36 691.678 1003.77 691.295 1003.18 690.911 L 1002.48 689.261 C 1002.1 692.523 1001.73 695.787 1001.39 699.054 L 1000.89 694.005 C 998.292 691.829 998.457 691.917 995.082 691.516 C 991.441 692.8 992.881 691.742 990.546 694.725 C 987.848 681.685 986.7 667.929 983.713 653.809 L 874.911 653.871 C 862.667 653.877 832.262 654.71 821.527 653.34 C 818.301 649.764 815.784 645.607 814.11 641.09 C 804.879 616.418 819.213 592.098 843.409 583.796 C 839.576 556.372 849.084 532.989 872.656 517.614 C 886.892 508.133 904.359 504.815 921.08 508.413 L 918.648 504.8 C 925.647 496.869 934.974 490.959 944.617 486.76 z"/>
<path transform="translate(0,0)" fill="rgb(30,79,148)" d="M 1007.45 653.907 L 1210.05 653.812 C 1210.2 670.055 1208.32 680.077 1196.04 691.783 C 1146.98 693.683 1057.95 691.285 1004.94 692.062 C 1004.36 691.678 1003.77 691.295 1003.18 690.911 L 1002.48 689.261 C 1003.53 678.063 1005.71 665.05 1007.45 653.907 z"/>
<path transform="translate(0,0)" fill="rgb(176,199,214)" d="M 821.527 653.34 C 837.345 651.877 857.996 653.19 874.345 652.773 C 915.515 651.725 958.588 653.809 999.44 653.449 C 1055.8 652.63 1112.17 652.409 1168.53 652.785 C 1179.62 652.768 1229.17 651.864 1236.4 653.185 C 1229.94 654.332 1217.06 653.858 1210.05 653.812 L 1007.45 653.907 C 1005.71 665.05 1003.53 678.063 1002.48 689.261 C 1002.1 692.523 1001.73 695.787 1001.39 699.054 L 1000.89 694.005 C 998.292 691.829 998.457 691.917 995.082 691.516 C 991.441 692.8 992.881 691.742 990.546 694.725 C 987.848 681.685 986.7 667.929 983.713 653.809 L 874.911 653.871 C 862.667 653.877 832.262 654.71 821.527 653.34 z"/>
<path transform="translate(0,0)" fill="rgb(176,199,214)" d="M 918.648 504.8 C 925.647 496.869 934.974 490.959 944.617 486.76 C 940.555 496.202 937.603 503.491 936.014 513.873 C 929.92 511.046 927.552 509.85 921.08 508.413 L 918.648 504.8 z"/>
<path transform="translate(0,0)" fill="rgb(197,219,239)" d="M 1055.21 1179.55 L 1059.59 1180.09 C 1070.19 1222.07 1071.68 1246.14 1102.04 1279.61 C 1097.44 1279.63 1077.95 1280.37 1075.4 1278.05 C 1075.47 1275.37 1075.79 1273.7 1074.43 1271.26 C 1073.94 1258.74 1070.45 1245.68 1066.56 1233.81 L 1054.39 1223.9 C 1054.15 1218.85 1053.77 1213.81 1053.22 1208.79 C 1053.07 1205.45 1053.11 1203.34 1053.31 1200 L 1054.63 1199.16 C 1053.73 1193.67 1052.99 1187.5 1052.37 1181.95 L 1055.21 1179.55 z"/>
<path transform="translate(0,0)" fill="rgb(235,29,37)" d="M 1053.22 1208.79 C 1053.07 1205.45 1053.11 1203.34 1053.31 1200 L 1054.63 1199.16 C 1057.96 1211.65 1062.99 1221.98 1066.56 1233.81 L 1054.39 1223.9 C 1054.15 1218.85 1053.77 1213.81 1053.22 1208.79 z"/>
<path transform="translate(0,0)" fill="rgb(245,156,116)" d="M 1047.71 1162.66 L 1053.42 1163.16 C 1055.45 1163.84 1055.54 1164.16 1057.43 1163.92 C 1061.25 1171.27 1063.2 1172.33 1059.59 1180.09 L 1055.21 1179.55 L 1052.37 1181.95 L 1051.73 1182.56 C 1049.85 1180.57 1047.96 1178.59 1046.05 1176.63 C 1045.55 1173.16 1045.76 1171.54 1045.97 1168 C 1045.45 1166.51 1045.64 1166.09 1045.62 1164.42 L 1047.71 1162.66 z"/>
<path transform="translate(0,0)" fill="rgb(235,29,37)" d="M 1045.97 1168 C 1048.87 1170.13 1055.53 1173.64 1056.45 1174.97 C 1056.03 1176.91 1055.96 1177.69 1055.21 1179.55 L 1052.37 1181.95 L 1051.73 1182.56 C 1049.85 1180.57 1047.96 1178.59 1046.05 1176.63 C 1045.55 1173.16 1045.76 1171.54 1045.97 1168 z"/>
<path transform="translate(0,0)" fill="rgb(30,79,148)" d="M 1069.18 1105.65 C 1070.08 1101.29 1070.19 1091.38 1070.37 1086.59 L 1071.44 1085.9 C 1071.97 1087.34 1072.52 1088.77 1073.08 1090.2 C 1077.71 1101.04 1078.12 1119.75 1075.67 1131.4 C 1074.49 1123.05 1071.52 1113.84 1069.18 1105.65 z"/>
<path transform="translate(0,0)" fill="rgb(197,219,239)" d="M 1410.63 718.395 C 1437.69 716.91 1468.38 720.757 1490.9 737.065 C 1507.05 748.759 1511.39 769.618 1497.63 785.185 C 1477.31 808.176 1445.5 814.824 1416.24 817.805 L 1414.84 817.87 C 1378.19 819.209 1345.64 797.934 1319.89 773.958 C 1320.32 773.417 1320.75 772.881 1321.19 772.35 C 1344.22 744.434 1373.52 721.925 1410.63 718.395 z"/>
<path transform="translate(0,0)" fill="rgb(197,219,239)" d="M 1053.18 730.892 C 1057.19 730.421 1069.02 727.912 1073.45 726.731 C 1091.9 721.814 1107.14 728.437 1124.11 728.563 L 1126.76 728.392 L 1127.6 730.026 C 1156.43 748.213 1162.39 749.569 1184.07 779.612 C 1158.74 798.938 1131.51 814.313 1098.24 809.817 C 1088.93 808.483 1079.79 806.164 1070.97 802.899 C 1066.7 801.304 1056.26 795.451 1053.08 795.847 C 1052.88 797.429 1052.66 798.058 1052.25 799.598 L 1050.88 800.068 C 1048.7 797.294 1049 795.447 1048.79 791.794 C 1043.51 787.984 1039.47 784.521 1035.28 779.58 C 1016.69 757.614 1032.37 745.244 1048.7 732.809 C 1049.27 729.132 1048.51 730.662 1050.91 727.985 L 1052.26 728.505 L 1053.18 730.892 z"/>
<path transform="translate(0,0)" fill="rgb(248,251,252)" d="M 1048.7 732.809 C 1049.27 729.132 1048.51 730.662 1050.91 727.985 L 1052.26 728.505 L 1053.18 730.892 C 1053.25 735.286 1053.81 738.374 1051.54 741.993 L 1050.09 741.528 C 1048.53 738.38 1048.79 736.308 1048.7 732.809 z"/>
<path transform="translate(0,0)" fill="rgb(248,251,252)" d="M 1048.79 791.794 C 1049.21 787.671 1048.55 788.433 1050.65 785.465 C 1054.01 787.67 1053.27 792.237 1053.08 795.847 C 1052.88 797.429 1052.66 798.058 1052.25 799.598 L 1050.88 800.068 C 1048.7 797.294 1049 795.447 1048.79 791.794 z"/>
<path transform="translate(0,0)" fill="rgb(248,251,252)" d="M 1124.11 728.563 L 1126.76 728.392 L 1127.6 730.026 C 1127.81 734.023 1128.67 738.848 1126.07 741.822 L 1124.64 740.817 C 1122.95 736.627 1123.68 733.03 1124.11 728.563 z"/>
<path transform="translate(0,0)" fill="rgb(248,251,252)" d="M 1049.45 756.232 C 1051.37 756.785 1051.28 756.67 1052.61 758.135 C 1053.92 762.644 1053.05 767.348 1052.59 772.078 C 1051.18 771.399 1050.94 771.127 1049.67 770.207 C 1048.28 765.905 1049.09 760.813 1049.45 756.232 z"/>
<path transform="translate(0,0)" fill="rgb(248,251,252)" d="M 1125.05 784.659 L 1126.71 786.202 C 1127.99 790.751 1127.51 795.968 1127.39 800.755 C 1125.91 800.259 1125.77 800.043 1124.41 799.227 C 1122.96 794.566 1123.27 789.186 1125.05 784.659 z"/>
<path transform="translate(0,0)" fill="rgb(248,251,252)" d="M 1124 756.168 C 1124.87 756.517 1126.04 757.233 1126.9 757.709 C 1128.23 761.621 1127.5 766.576 1127.25 770.866 C 1125.57 770.958 1126.12 770.914 1124.41 770.258 C 1123.05 765.848 1123.75 760.895 1124 756.168 z"/>
<path transform="translate(0,0)" fill="rgb(18,56,117)" d="M 1233 1043.38 C 1292.28 1035.98 1326.13 1099.07 1342.57 1146.08 C 1303.57 1087.85 1261.01 1068.75 1192.07 1086.79 C 1152.57 1100.16 1116.24 1121.5 1085.33 1149.49 L 1084.87 1148.2 C 1086.55 1145.68 1088.32 1143.22 1090.18 1140.84 C 1122.38 1099.57 1178.78 1049.88 1233 1043.38 z"/>
<path transform="translate(0,0)" fill="rgb(248,251,252)" d="M 1087.03 863.376 C 1088.28 863.929 1088.58 864.282 1089.69 865.101 C 1091.19 870.486 1090.35 875.357 1089.62 880.808 C 1088.37 880.042 1087.93 879.586 1086.82 878.638 C 1085.4 873.052 1086.12 868.948 1087.03 863.376 z"/>
<path transform="translate(0,0)" fill="rgb(248,251,252)" d="M 1087.01 893.354 C 1088.82 893.939 1088.7 894.076 1089.92 895.584 C 1091.06 901.169 1090.26 905.136 1089.6 910.783 L 1087.01 908.774 C 1085.29 903.02 1086.02 899.138 1087.01 893.354 z"/>
<path transform="translate(0,0)" fill="rgb(248,251,252)" d="M 1086.86 923.219 C 1092.72 925.755 1090.3 934.955 1089.62 940.435 L 1087.36 939.009 C 1084.93 935.246 1086.3 927.631 1086.86 923.219 z"/>
<path transform="translate(0,0)" fill="rgb(248,251,252)" d="M 1086.46 834.243 C 1087.45 834.517 1088.57 835.052 1089.55 835.461 C 1091.33 840.251 1090.26 845.744 1089.62 850.819 C 1088.35 850.073 1087.93 849.641 1086.79 848.709 C 1085.5 844.351 1086.19 838.877 1086.46 834.243 z"/>
<path transform="translate(0,0)" fill="rgb(248,251,252)" d="M 1086.8 953.214 C 1092.78 955.589 1090.33 964.777 1089.64 970.254 C 1088.04 969.321 1087.92 968.992 1086.67 967.6 C 1085.44 962.377 1086.21 958.538 1086.8 953.214 z"/>
<path transform="translate(0,0)" fill="rgb(248,251,252)" d="M 1086.66 983.226 L 1088.87 984.043 C 1091.77 988.049 1090.24 995.265 1089.61 1000.18 C 1088.29 999.294 1087.94 998.867 1086.77 997.78 C 1085.42 992.921 1086.21 988.272 1086.66 983.226 z"/>
<path transform="translate(0,0)" fill="rgb(248,251,252)" d="M 1049.81 698.307 C 1055.3 700.42 1053.08 710.01 1052.59 714.804 L 1049.89 713.176 C 1048.13 708.262 1049.11 703.434 1049.81 698.307 z"/>
<path transform="translate(0,0)" fill="rgb(248,251,252)" d="M 1124.07 698.329 C 1125.38 698.834 1125.85 699.232 1127.05 699.979 C 1128.44 704.15 1127.74 709.38 1127.53 713.933 C 1125.12 713.842 1126.17 714.211 1124.24 712.883 C 1122.8 708.321 1123.67 703.183 1124.07 698.329 z"/>
<path transform="translate(0,0)" fill="rgb(248,251,252)" d="M 1049.78 842.23 L 1052.38 843.789 C 1054.07 849.031 1053.13 853.363 1052.3 858.702 L 1050.43 857.684 C 1047.77 854.101 1049.21 846.616 1049.78 842.23 z"/>
<path transform="translate(0,0)" fill="rgb(248,251,252)" d="M 1049.98 813.476 C 1051.65 814.321 1051.28 814.227 1052.67 815.626 C 1053.84 820.594 1053.1 824.72 1052.59 829.796 C 1051.7 829.342 1050.59 828.524 1049.72 827.942 C 1048.19 822.56 1049 818.866 1049.98 813.476 z"/>
<path transform="translate(0,0)" fill="rgb(248,251,252)" d="M 1124.05 842.316 C 1125.38 842.845 1125.81 843.259 1127.02 844.055 C 1128.4 848.149 1127.72 853.361 1127.51 857.841 C 1124.76 857.678 1125.82 858.229 1124.07 856.454 C 1122.93 851.837 1123.68 847.138 1124.05 842.316 z"/>
<path transform="translate(0,0)" fill="rgb(248,251,252)" d="M 1125.25 928.718 L 1127.21 930.42 C 1128.29 935.163 1127.58 939.897 1127.18 944.773 C 1125.2 944.021 1125.86 944.313 1124.18 942.868 C 1122.94 938.237 1122.98 933.024 1125.25 928.718 z"/>
<path transform="translate(0,0)" fill="rgb(248,251,252)" d="M 1124.6 813.353 L 1127.19 815.358 C 1128.46 820.126 1127.59 824.835 1127.08 829.782 L 1124.42 828.247 C 1122.77 822.717 1123.44 818.982 1124.6 813.353 z"/>
<path transform="translate(0,0)" fill="rgb(248,251,252)" d="M 1049.21 929.092 C 1051.14 929.531 1050.64 929.439 1052.42 930.444 C 1053.94 935.122 1053.15 939.727 1052.81 944.736 C 1051.51 944.263 1051.01 943.893 1049.8 943.207 C 1048.3 938.865 1048.99 933.827 1049.21 929.092 z"/>
<path transform="translate(0,0)" fill="rgb(248,251,252)" d="M 1049.67 871.219 C 1051.61 872.014 1050.97 871.705 1052.6 873.118 C 1053.92 877.703 1053.03 882.725 1052.59 887.549 C 1050.95 886.701 1050.94 886.559 1049.62 885.24 C 1048.31 880.464 1049.14 876.154 1049.67 871.219 z"/>
<path transform="translate(0,0)" fill="rgb(248,251,252)" d="M 1124 871.2 C 1125.9 871.937 1125.41 871.769 1127.08 873.039 C 1128.34 877.154 1127.7 882.371 1127.51 886.821 C 1125.27 886.416 1126.11 886.703 1124.19 885.298 C 1122.89 880.834 1123.67 875.956 1124 871.2 z"/>
<path transform="translate(0,0)" fill="rgb(248,251,252)" d="M 1049.46 900.238 C 1051.41 900.754 1051.32 900.645 1052.66 902.133 C 1053.94 906.676 1053.05 911.544 1052.57 916.305 L 1049.81 914.424 C 1048.33 909.869 1049.1 905.072 1049.46 900.238 z"/>
<path transform="translate(0,0)" fill="rgb(248,251,252)" d="M 1123.85 900.056 C 1125.25 900.595 1125.67 900.933 1126.95 901.701 C 1128.47 906.08 1127.78 910.559 1127.52 915.294 C 1125.38 915.151 1126.16 915.357 1124.29 914.246 C 1122.93 909.849 1123.62 904.782 1123.85 900.056 z"/>
<path transform="translate(0,0)" fill="rgb(176,199,214)" d="M 1046.05 1176.63 C 1047.96 1178.59 1049.85 1180.57 1051.73 1182.56 L 1052.37 1181.95 C 1052.99 1187.5 1053.73 1193.67 1054.63 1199.16 L 1053.31 1200 C 1053.11 1203.34 1053.07 1205.45 1053.22 1208.79 C 1053.77 1213.81 1054.15 1218.85 1054.39 1223.9 L 1066.56 1233.81 C 1070.45 1245.68 1073.94 1258.74 1074.43 1271.26 C 1075.79 1273.7 1075.47 1275.37 1075.4 1278.05 C 1077.95 1280.37 1097.44 1279.63 1102.04 1279.61 C 1145.41 1319.65 1195.76 1326.36 1252.9 1324.6 C 1304.37 1323.01 1333.82 1316.61 1378.18 1291.64 C 1378.59 1291.82 1378.99 1292.02 1379.4 1292.2 C 1385.61 1294.83 1409.97 1295.38 1418.06 1296.13 C 1442 1298.35 1545.36 1308.5 1554.19 1327.3 C 1554.68 1328.36 1554.43 1329.68 1554.41 1330.84 C 1542.55 1355.5 1372.51 1366.97 1339.72 1369.24 C 1204.29 1377.92 1068.57 1381.29 932.881 1379.33 C 824.159 1378.73 715.499 1374 607.137 1365.15 C 579.661 1362.69 455.65 1352.11 443.915 1331.41 C 443.677 1328.73 443.444 1327.33 445.204 1325 C 459.038 1306.71 576.486 1296.27 603.944 1293.67 C 649.644 1324.78 692.563 1333.51 747.256 1334.07 C 807.252 1334.68 858.911 1326.17 900.044 1278.78 C 904.688 1280.42 926.566 1279.29 932.999 1279.13 C 932.574 1250.68 938.236 1232.34 947.707 1206.07 C 952.455 1203.23 955.662 1202.44 960.922 1200.8 C 963.189 1199.91 997.861 1195 1003.45 1193.91 C 1006.05 1192.37 1009.68 1190.89 1012.67 1191.81 C 1014.3 1189.58 1041.08 1179.14 1046.05 1176.63 z"/>
<path transform="translate(0,0)" fill="rgb(227,143,104)" d="M 1003.45 1193.91 C 1006.05 1192.37 1009.68 1190.89 1012.67 1191.81 L 1010.64 1203.01 C 1008.43 1227.4 1007.85 1250.18 1007.44 1274.23 C 1007.26 1284.32 1008.74 1332.39 1007.47 1338.87 C 1004.47 1342.55 1001.52 1346.18 997.083 1348.2 L 997.232 1348.77 C 990.927 1351.41 985.15 1356.6 977.06 1359.72 C 973.64 1356.28 971.905 1353.68 969.112 1349.73 C 978.681 1337.72 986.938 1338.92 992.554 1332.89 L 992.132 1330.8 C 955.873 1327.33 938.103 1316.61 932.999 1279.13 C 932.574 1250.68 938.236 1232.34 947.707 1206.07 C 952.455 1203.23 955.662 1202.44 960.922 1200.8 C 963.189 1199.91 997.861 1195 1003.45 1193.91 z"/>
<path transform="translate(0,0)" fill="rgb(18,56,117)" d="M 947.707 1206.07 C 952.455 1203.23 955.662 1202.44 960.922 1200.8 C 962.594 1234.5 962.511 1275.15 974.223 1308.26 C 975.34 1311.42 982.275 1320.03 984.95 1322.71 C 988.181 1325.94 991.598 1326.47 992.132 1330.8 C 955.873 1327.33 938.103 1316.61 932.999 1279.13 C 932.574 1250.68 938.236 1232.34 947.707 1206.07 z"/>
<path transform="translate(0,0)" fill="rgb(200,127,93)" d="M 1003.68 1340.12 C 1004.42 1328.37 1004.06 1315.27 1004.76 1302.82 L 1005.63 1302.19 C 1008.57 1311.81 1006.18 1326.36 1007.35 1337.78 L 1007.47 1338.87 C 1004.47 1342.55 1001.52 1346.18 997.083 1348.2 C 998.153 1345.6 1001.63 1342.31 1003.68 1340.12 z"/>
<path transform="translate(0,0)" fill="rgb(235,29,37)" d="M 1003.45 1193.91 C 1006.05 1192.37 1009.68 1190.89 1012.67 1191.81 L 1010.64 1203.01 L 1006.98 1202.68 C 1004.3 1200.08 1004.53 1198.04 1003.45 1193.91 z"/>
<path transform="translate(0,0)" fill="rgb(245,156,116)" d="M 1046.05 1176.63 C 1047.96 1178.59 1049.85 1180.57 1051.73 1182.56 L 1052.37 1181.95 C 1052.99 1187.5 1053.73 1193.67 1054.63 1199.16 L 1053.31 1200 C 1053.11 1203.34 1053.07 1205.45 1053.22 1208.79 C 1053.77 1213.81 1054.15 1218.85 1054.39 1223.9 L 1066.56 1233.81 C 1070.45 1245.68 1073.94 1258.74 1074.43 1271.26 C 1073.18 1305.13 1061.06 1320.71 1027.21 1328.28 C 1023.6 1336.5 1025.47 1337.92 1027.89 1346.56 C 1019.55 1358.24 1007.3 1373.04 991.44 1363.3 C 987.628 1357.43 998.116 1355.08 997.232 1348.77 L 997.083 1348.2 C 1001.52 1346.18 1004.47 1342.55 1007.47 1338.87 C 1008.74 1332.39 1007.26 1284.32 1007.44 1274.23 C 1007.85 1250.18 1008.43 1227.4 1010.64 1203.01 L 1012.67 1191.81 C 1014.3 1189.58 1041.08 1179.14 1046.05 1176.63 z"/>
<path transform="translate(0,0)" fill="rgb(18,56,117)" d="M 1054.39 1223.9 L 1066.56 1233.81 C 1070.45 1245.68 1073.94 1258.74 1074.43 1271.26 C 1073.18 1305.13 1061.06 1320.71 1027.21 1328.28 L 1028.64 1322.8 C 1032.75 1320.92 1035.98 1319.02 1039.88 1316.76 C 1042.72 1309.94 1050.26 1288.36 1054.15 1284.7 C 1054.76 1263.19 1055.55 1245.69 1054.39 1223.9 z"/>
<path transform="translate(0,0)" fill="rgb(200,127,93)" d="M 1039.88 1316.76 C 1042.72 1309.94 1050.26 1288.36 1054.15 1284.7 C 1052.3 1298.14 1052.76 1309.04 1039.88 1316.76 z"/>
<path transform="translate(0,0)" fill="rgb(227,143,104)" d="M 1053.22 1208.79 C 1053.77 1213.81 1054.15 1218.85 1054.39 1223.9 C 1055.55 1245.69 1054.76 1263.19 1054.15 1284.7 C 1050.26 1288.36 1042.72 1309.94 1039.88 1316.76 C 1035.98 1319.02 1032.75 1320.92 1028.64 1322.8 C 1039.62 1287.01 1047.26 1245.64 1053.22 1208.79 z"/>
</svg>