<svg version="1.1" xmlns="http://www.w3.org/2000/svg" style="display: block;" viewBox="0 0 2048 1707" width="2000" height="1667" preserveAspectRatio="none">
<defs>
	<linearGradient id="Gradient1" gradientUnits="userSpaceOnUse" x1="1031.31" y1="861.14" x2="1502.29" y2="511.915">
		<stop class="stop0" offset="0" stop-opacity="1" stop-color="rgb(143,96,180)"/>
		<stop class="stop1" offset="1" stop-opacity="1" stop-color="rgb(108,94,193)"/>
	</linearGradient>
</defs>
<path transform="translate(0,0)" fill="url(#Gradient1)" d="M 697.955 292.418 C 720.788 276.317 750.812 259.131 775.644 245.811 C 947.617 153.565 1144.31 115.069 1337.55 148.238 C 1505.87 177.129 1666.53 253.36 1767.09 395.594 C 1842.63 502.448 1876.27 641.797 1853.32 771.087 C 1849.14 794.715 1842.81 817.911 1834.4 840.383 C 1830.89 849.627 1807.11 898.607 1806.78 903.838 L 1806.02 904.784 C 1797.68 915.227 1786.29 935.683 1777.83 947.924 C 1751.42 986.181 1718.36 1019.39 1680.23 1045.97 C 1675.49 1049.24 1657.78 1062.66 1653.44 1060.58 C 1648.72 1066.69 1644.71 1073.02 1639.75 1078.95 C 1627.71 1093.34 1613.56 1105.69 1603.96 1121.97 C 1596.53 1134.4 1595.04 1154.6 1615.67 1150.53 C 1625.47 1148.59 1640.57 1141.98 1649.5 1147.71 C 1659.13 1153.89 1651.25 1169.5 1646.14 1175.97 C 1635.22 1189.84 1621.59 1201.15 1610.76 1214.78 C 1618.79 1216.09 1633.03 1217.53 1639.09 1222.36 C 1646.67 1227.08 1648.12 1227.79 1652.08 1236.11 C 1652.69 1239.09 1653.77 1243.28 1653.62 1246.2 C 1651.94 1257.97 1649.92 1269.68 1647.55 1281.33 L 1645.73 1290.28 L 1637.33 1334 C 1636.79 1337.24 1636.24 1340.47 1635.68 1343.7 C 1633.2 1356.53 1630.8 1369.38 1628.48 1382.25 L 1626.68 1391.6 L 1627.38 1393.11 C 1626.43 1396.84 1625.15 1401.35 1624.57 1405.09 L 1622.8 1414.04 L 1620.42 1426.88 C 1625.17 1427.37 1635.43 1427.12 1638.24 1428.29 C 1638.77 1431.19 1638.9 1431.13 1638.06 1434.11 C 1632.71 1436.52 1577.04 1435.11 1566 1435.31 C 1550.26 1446.77 1526.19 1458.23 1508.04 1466.07 C 1418.05 1504.97 1318.09 1519.67 1220.92 1505.4 C 1193.61 1501.39 1158.3 1492.86 1132.84 1482.95 C 1130.47 1483.14 1128.36 1483.28 1126 1483.64 C 1024.77 1509.12 918.711 1508.32 817.881 1481.31 C 788.157 1473.13 767.197 1464.79 738.775 1454.01 L 737.732 1453.82 C 723.588 1466.78 709.209 1482.65 695.072 1496.15 C 663.038 1526.75 626.996 1551.94 583.851 1563.94 C 540.402 1576.02 497.134 1571.52 457.759 1549.16 C 422.194 1528.95 395.747 1496.78 374.392 1462.48 C 370.244 1455.82 362.92 1443.09 360.938 1435.86 C 351.854 1433.11 328.654 1439.05 323.178 1431.7 L 323.774 1429.1 C 327.282 1426.11 346.989 1428.37 354.408 1426.32 C 345.035 1399.85 335.647 1378.69 327.538 1350.46 C 312.826 1299.22 304.194 1248.14 297.885 1195.34 C 295.312 1172.48 293.335 1149.56 291.955 1126.6 C 290.491 1097.46 290.147 1068.7 289.593 1039.58 C 288.982 1038.69 288.371 1037.8 287.761 1036.92 C 277.577 1028.43 265.788 1013.54 257.962 1002.55 C 176.1 887.606 196.502 720.314 264.141 603.753 C 306.562 530.648 380.313 461.516 449.752 412.909 C 454.058 409.733 459.842 403.463 463.748 399.476 C 484.983 377.797 510.588 362.618 539.612 354.058 C 546.373 352.063 553.509 350.473 560.236 348.06 L 561.256 347.685 C 592.752 331.276 645.784 310.539 679.929 301.42 C 687.508 298.608 690.887 296.557 697.955 292.418 z"/>
<path transform="translate(0,0)" fill="rgb(121,97,191)" d="M 561.256 347.685 C 565.353 349.484 589.112 347.656 597.003 347.901 C 604.175 348.063 611.318 348.86 618.349 350.283 C 665.22 359.355 704.473 384.447 731.291 424.263 C 733.855 428.149 736.339 432.086 738.744 436.072 L 735.261 440.499 C 730.909 445.582 724.55 451.918 724.439 458.718 C 720.117 464.984 716.231 472.723 712.594 479.499 C 693.96 517.222 677.138 572.494 679.321 614.819 C 679.293 619.249 678.988 627.649 679.784 631.674 C 680.092 645.199 681.84 655.164 684.534 668.212 C 686.328 676.165 687.701 681.977 690.221 689.802 C 695.64 705.066 703.79 727.451 716.727 737.946 L 720.995 741.068 C 737.31 749.986 750.907 751.859 768.295 743.793 C 786.892 772.904 801.753 793.753 830.98 814.198 C 895.227 854.463 968.076 854.366 1032.78 815.062 C 1033.36 814.307 1041.76 808.171 1043.06 807.203 C 1078.66 860.118 1100.3 918.627 1115.33 980.27 C 1115.98 983.804 1116.83 987.825 1117.34 991.331 C 1118.57 995.997 1119.54 1000.54 1120.45 1005.27 C 1132.49 1067.94 1128.51 1129.51 1140.65 1192.49 C 1143.34 1213.21 1146.18 1233.9 1149.16 1254.58 L 1149.98 1260.92 C 1226.7 1280.14 1318.73 1212.69 1374.4 1166.94 C 1385.71 1157.65 1399.03 1139.85 1409.56 1132.02 C 1409.71 1136.06 1403.49 1139.32 1401.81 1143.83 C 1419.04 1139.21 1438.71 1138.47 1455.96 1133.12 C 1458.38 1130.59 1457.69 1131.78 1457.86 1127.48 L 1458.93 1126.94 C 1464.65 1153.4 1473.88 1172.9 1486.64 1196.68 C 1489.41 1201.84 1498.54 1217.24 1500.19 1221.34 C 1502.66 1221.14 1506.31 1220.15 1508.85 1219.54 L 1513.57 1218.93 L 1522.37 1206.39 C 1524.51 1209.85 1526.68 1213.32 1528.77 1216.81 C 1531.26 1216.63 1534.78 1216.06 1536.89 1216.83 C 1546.52 1209.91 1597.06 1213.36 1610.76 1214.78 C 1618.79 1216.09 1633.03 1217.53 1639.09 1222.36 C 1646.67 1227.08 1648.12 1227.79 1652.08 1236.11 C 1652.69 1239.09 1653.77 1243.28 1653.62 1246.2 C 1651.94 1257.97 1649.92 1269.68 1647.55 1281.33 L 1645.73 1290.28 L 1637.33 1334 C 1636.79 1337.24 1636.24 1340.47 1635.68 1343.7 C 1633.2 1356.53 1630.8 1369.38 1628.48 1382.25 L 1626.68 1391.6 L 1627.38 1393.11 C 1626.43 1396.84 1625.15 1401.35 1624.57 1405.09 L 1622.8 1414.04 L 1620.42 1426.88 C 1625.17 1427.37 1635.43 1427.12 1638.24 1428.29 C 1638.77 1431.19 1638.9 1431.13 1638.06 1434.11 C 1632.71 1436.52 1577.04 1435.11 1566 1435.31 C 1550.26 1446.77 1526.19 1458.23 1508.04 1466.07 C 1418.05 1504.97 1318.09 1519.67 1220.92 1505.4 C 1193.61 1501.39 1158.3 1492.86 1132.84 1482.95 C 1130.47 1483.14 1128.36 1483.28 1126 1483.64 C 1024.77 1509.12 918.711 1508.32 817.881 1481.31 C 788.157 1473.13 767.197 1464.79 738.775 1454.01 L 737.732 1453.82 C 723.588 1466.78 709.209 1482.65 695.072 1496.15 C 663.038 1526.75 626.996 1551.94 583.851 1563.94 C 540.402 1576.02 497.134 1571.52 457.759 1549.16 C 422.194 1528.95 395.747 1496.78 374.392 1462.48 C 370.244 1455.82 362.92 1443.09 360.938 1435.86 C 351.854 1433.11 328.654 1439.05 323.178 1431.7 L 323.774 1429.1 C 327.282 1426.11 346.989 1428.37 354.408 1426.32 C 345.035 1399.85 335.647 1378.69 327.538 1350.46 C 312.826 1299.22 304.194 1248.14 297.885 1195.34 C 295.312 1172.48 293.335 1149.56 291.955 1126.6 C 290.491 1097.46 290.147 1068.7 289.593 1039.58 C 288.982 1038.69 288.371 1037.8 287.761 1036.92 C 277.577 1028.43 265.788 1013.54 257.962 1002.55 C 176.1 887.606 196.502 720.314 264.141 603.753 C 306.562 530.648 380.313 461.516 449.752 412.909 C 454.058 409.733 459.842 403.463 463.748 399.476 C 484.983 377.797 510.588 362.618 539.612 354.058 C 546.373 352.063 553.509 350.473 560.236 348.06 L 561.256 347.685 z"/>
<path transform="translate(0,0)" fill="rgb(118,109,214)" d="M 561.256 347.685 C 565.353 349.484 589.112 347.656 597.003 347.901 C 604.175 348.063 611.318 348.86 618.349 350.283 C 665.22 359.355 704.473 384.447 731.291 424.263 C 733.855 428.149 736.339 432.086 738.744 436.072 L 735.261 440.499 C 730.909 445.582 724.55 451.918 724.439 458.718 C 720.117 464.984 716.231 472.723 712.594 479.499 C 693.96 517.222 677.138 572.494 679.321 614.819 C 679.293 619.249 678.988 627.649 679.784 631.674 C 680.092 645.199 681.84 655.164 684.534 668.212 C 686.328 676.165 687.701 681.977 690.221 689.802 C 695.64 705.066 703.79 727.451 716.727 737.946 L 720.995 741.068 C 709.531 761.201 693.192 781.826 669.824 787.41 C 627.136 797.609 578.058 768.342 545.781 743.704 C 540.456 753.98 528.437 766.008 521.738 776.112 C 452.196 880.999 423.811 1025.72 458.297 1147.6 C 484.663 1240.72 540.13 1322.96 616.586 1382.3 C 639.251 1400.03 658.765 1410.85 681.614 1426.55 L 456.207 1426.72 C 423.07 1426.71 387.509 1426.09 354.545 1426.89 L 354.408 1426.32 C 345.035 1399.85 335.647 1378.69 327.538 1350.46 C 312.826 1299.22 304.194 1248.14 297.885 1195.34 C 295.312 1172.48 293.335 1149.56 291.955 1126.6 C 290.491 1097.46 290.147 1068.7 289.593 1039.58 C 288.982 1038.69 288.371 1037.8 287.761 1036.92 C 277.577 1028.43 265.788 1013.54 257.962 1002.55 C 176.1 887.606 196.502 720.314 264.141 603.753 C 306.562 530.648 380.313 461.516 449.752 412.909 C 454.058 409.733 459.842 403.463 463.748 399.476 C 484.983 377.797 510.588 362.618 539.612 354.058 C 546.373 352.063 553.509 350.473 560.236 348.06 L 561.256 347.685 z"/>
<path transform="translate(0,0)" fill="rgb(254,254,254)" d="M 561.256 347.685 C 565.353 349.484 589.112 347.656 597.003 347.901 C 604.175 348.063 611.318 348.86 618.349 350.283 C 665.22 359.355 704.473 384.447 731.291 424.263 C 733.855 428.149 736.339 432.086 738.744 436.072 L 735.261 440.499 C 730.909 445.582 724.55 451.918 724.439 458.718 C 720.117 464.984 716.231 472.723 712.594 479.499 C 693.96 517.222 677.138 572.494 679.321 614.819 C 679.293 619.249 678.988 627.649 679.784 631.674 C 680.092 645.199 681.84 655.164 684.534 668.212 C 686.328 676.165 687.701 681.977 690.221 689.802 C 695.64 705.066 703.79 727.451 716.727 737.946 L 720.995 741.068 C 709.531 761.201 693.192 781.826 669.824 787.41 C 627.136 797.609 578.058 768.342 545.781 743.704 C 493.77 699.542 442.108 636.709 423.103 570.122 C 421.37 564.372 419.895 558.547 418.683 552.664 C 407.915 500.441 422.195 458.149 450.248 415.286 L 449.752 412.909 C 454.058 409.733 459.842 403.463 463.748 399.476 C 484.983 377.797 510.588 362.618 539.612 354.058 C 546.373 352.063 553.509 350.473 560.236 348.06 L 561.256 347.685 z"/>
<path transform="translate(0,0)" fill="rgb(199,212,222)" d="M 667.932 689.571 C 674.85 689.007 683.425 688.158 690.221 689.802 C 695.64 705.066 703.79 727.451 716.727 737.946 C 704.558 757.812 690.21 777.017 666.025 782.772 C 639.415 789.103 600.808 773.632 578.345 759.52 C 577.417 758.939 576.5 758.34 575.596 757.722 C 583.925 753.662 593.111 750.576 602.407 745.928 C 624.32 734.974 655.137 710.913 667.932 689.571 z"/>
<path transform="translate(0,0)" fill="rgb(68,112,152)" d="M 561.256 347.685 C 565.353 349.484 589.112 347.656 597.003 347.901 C 604.175 348.063 611.318 348.86 618.349 350.283 C 665.22 359.355 704.473 384.447 731.291 424.263 C 733.855 428.149 736.339 432.086 738.744 436.072 L 735.261 440.499 C 716.564 413.982 707.569 396.928 676.37 378.526 C 639.988 355.274 595.901 347.314 553.684 356.375 C 509.891 365.556 471.621 391.945 447.472 429.615 C 423.499 466.719 415.284 511.84 424.642 555.012 C 440.776 628.159 508.473 715.199 571.164 755.03 C 572.622 755.958 574.1 756.855 575.596 757.722 C 576.5 758.34 577.417 758.939 578.345 759.52 C 600.808 773.632 639.415 789.103 666.025 782.772 C 690.21 777.017 704.558 757.812 716.727 737.946 L 720.995 741.068 C 709.531 761.201 693.192 781.826 669.824 787.41 C 627.136 797.609 578.058 768.342 545.781 743.704 C 493.77 699.542 442.108 636.709 423.103 570.122 C 421.37 564.372 419.895 558.547 418.683 552.664 C 407.915 500.441 422.195 458.149 450.248 415.286 L 449.752 412.909 C 454.058 409.733 459.842 403.463 463.748 399.476 C 484.983 377.797 510.588 362.618 539.612 354.058 C 546.373 352.063 553.509 350.473 560.236 348.06 L 561.256 347.685 z"/>
<path transform="translate(0,0)" fill="rgb(199,212,222)" d="M 676.37 378.526 C 707.569 396.928 716.564 413.982 735.261 440.499 C 730.909 445.582 724.55 451.918 724.439 458.718 C 720.117 464.984 716.231 472.723 712.594 479.499 C 703.411 438.309 696.281 416.471 676.37 378.526 z"/>
<path transform="translate(0,0)" fill="rgb(68,112,152)" d="M 607.085 709.258 C 621.599 678.508 649.363 654.649 684.534 668.212 C 686.328 676.165 687.701 681.977 690.221 689.802 C 683.425 688.158 674.85 689.007 667.932 689.571 C 643.602 694.58 630.181 699.971 607.085 709.258 z"/>
<path transform="translate(0,0)" fill="rgb(68,112,152)" d="M 679.302 490.505 C 682.562 491.405 682.438 491.27 684.777 493.66 C 686.942 500.304 682.993 510.192 679.985 516.243 C 672.433 531.435 660.679 547.22 641.805 543.25 C 616.711 528.642 646.038 517.277 657.552 509.864 C 664.043 505.685 673.415 496.033 679.302 490.505 z"/>
<path transform="translate(0,0)" fill="rgb(68,112,152)" d="M 546.505 551.244 C 551.376 550.55 556.525 551.439 559.115 556.194 C 563.616 564.457 558.196 574.817 549.879 578.143 C 538.392 582.736 526.287 578.867 515.521 574.234 C 510.034 571.155 491.26 561.844 495.667 554.77 C 500.03 552.404 504.223 552.32 509.065 552.765 C 522.559 554.004 533.258 553.969 546.505 551.244 z"/>
<path transform="translate(0,0)" fill="rgb(68,112,152)" d="M 617.748 485.579 L 619.546 486.678 C 620.204 492.154 609.86 511.346 603.764 514.047 C 601.4 511.93 601.272 512.058 600.201 508.931 C 600.73 502.237 612.496 491.277 617.748 485.579 z"/>
<path transform="translate(0,0)" fill="rgb(68,112,152)" d="M 541.658 511.106 C 548.523 510.689 565.209 513.298 570.971 517.979 C 572.461 521.548 571.968 520.535 571.302 524.953 C 564.529 525.953 544.267 516.804 541.658 511.106 z"/>
<path transform="translate(0,0)" fill="rgb(134,113,210)" d="M 449.752 412.909 L 450.248 415.286 C 422.195 458.149 407.915 500.441 418.683 552.664 C 419.895 558.547 421.37 564.372 423.103 570.122 C 362.829 660.549 320.943 783.132 303.002 889.636 C 296.287 930.284 292.148 971.316 290.609 1012.49 C 290.408 1017.6 290.705 1034.23 287.761 1036.92 C 277.577 1028.43 265.788 1013.54 257.962 1002.55 C 176.1 887.606 196.502 720.314 264.141 603.753 C 306.562 530.648 380.313 461.516 449.752 412.909 z"/>
<path transform="translate(0,0)" fill="rgb(121,97,191)" d="M 1409.56 1132.02 C 1409.71 1136.06 1403.49 1139.32 1401.81 1143.83 C 1419.04 1139.21 1438.71 1138.47 1455.96 1133.12 C 1458.38 1130.59 1457.69 1131.78 1457.86 1127.48 L 1458.93 1126.94 C 1464.65 1153.4 1473.88 1172.9 1486.64 1196.68 C 1489.41 1201.84 1498.54 1217.24 1500.19 1221.34 C 1502.66 1221.14 1506.31 1220.15 1508.85 1219.54 L 1513.57 1218.93 L 1522.37 1206.39 C 1524.51 1209.85 1526.68 1213.32 1528.77 1216.81 C 1531.26 1216.63 1534.78 1216.06 1536.89 1216.83 C 1546.52 1209.91 1597.06 1213.36 1610.76 1214.78 C 1618.79 1216.09 1633.03 1217.53 1639.09 1222.36 C 1646.67 1227.08 1648.12 1227.79 1652.08 1236.11 C 1652.69 1239.09 1653.77 1243.28 1653.62 1246.2 C 1651.94 1257.97 1649.92 1269.68 1647.55 1281.33 L 1645.73 1290.28 L 1637.33 1334 C 1636.79 1337.24 1636.24 1340.47 1635.68 1343.7 C 1633.2 1356.53 1630.8 1369.38 1628.48 1382.25 L 1626.68 1391.6 L 1627.38 1393.11 C 1626.43 1396.84 1625.15 1401.35 1624.57 1405.09 L 1622.8 1414.04 L 1620.42 1426.88 C 1625.17 1427.37 1635.43 1427.12 1638.24 1428.29 C 1638.77 1431.19 1638.9 1431.13 1638.06 1434.11 C 1632.71 1436.52 1577.04 1435.11 1566 1435.31 C 1550.26 1446.77 1526.19 1458.23 1508.04 1466.07 C 1418.05 1504.97 1318.09 1519.67 1220.92 1505.4 C 1193.61 1501.39 1158.3 1492.86 1132.84 1482.95 C 1130.47 1483.14 1128.36 1483.28 1126 1483.64 C 1024.77 1509.12 918.711 1508.32 817.881 1481.31 C 788.157 1473.13 767.197 1464.79 738.775 1454.01 L 737.732 1453.82 C 723.588 1466.78 709.209 1482.65 695.072 1496.15 C 663.038 1526.75 626.996 1551.94 583.851 1563.94 C 540.402 1576.02 497.134 1571.52 457.759 1549.16 C 422.194 1528.95 395.747 1496.78 374.392 1462.48 C 370.244 1455.82 362.92 1443.09 360.938 1435.86 C 351.854 1433.11 328.654 1439.05 323.178 1431.7 L 323.774 1429.1 C 327.282 1426.11 346.989 1428.37 354.408 1426.32 L 354.545 1426.89 C 358.959 1428.15 849.759 1429.27 856.805 1427.1 L 857.691 1426.96 C 857.622 1417.28 859.648 1411.94 866.583 1405.24 C 876.308 1401.4 883.207 1402.09 892.911 1406.28 C 895.223 1407.27 897.475 1408.4 899.655 1409.65 C 904.679 1414.07 909.302 1418.72 908.927 1426.06 L 908.946 1427.04 C 914.464 1428.5 974.4 1427.85 984.466 1427.84 L 1085.95 1427.81 C 1102.92 1427.8 1122.8 1428.29 1139.58 1427.68 C 1137.51 1419.68 1138.45 1415.88 1140.31 1408.18 C 1149.87 1406.85 1160.29 1404.93 1169.95 1403.43 C 1168.75 1401.57 1151.83 1274.37 1149.98 1260.92 C 1226.7 1280.14 1318.73 1212.69 1374.4 1166.94 C 1385.71 1157.65 1399.03 1139.85 1409.56 1132.02 z"/>
<path transform="translate(0,0)" fill="rgb(134,113,210)" d="M 866.583 1405.24 C 876.308 1401.4 883.207 1402.09 892.911 1406.28 C 895.223 1407.27 897.475 1408.4 899.655 1409.65 C 904.679 1414.07 909.302 1418.72 908.927 1426.06 L 908.946 1427.04 C 914.464 1428.5 974.4 1427.85 984.466 1427.84 L 1085.95 1427.81 C 1102.92 1427.8 1122.8 1428.29 1139.58 1427.68 C 1137.51 1419.68 1138.45 1415.88 1140.31 1408.18 C 1149.87 1406.85 1160.29 1404.93 1169.95 1403.43 C 1182.97 1408.06 1192.93 1413.73 1200.09 1426 L 1200.63 1427.45 C 1211.92 1428.69 1248.14 1427.75 1261.82 1427.79 L 1399.67 1427.78 L 1473.94 1427.88 C 1480.94 1427.91 1504.94 1428.36 1510.68 1427.38 C 1518.62 1428.4 1616.17 1428.4 1620.42 1426.88 C 1625.17 1427.37 1635.43 1427.12 1638.24 1428.29 C 1638.77 1431.19 1638.9 1431.13 1638.06 1434.11 C 1632.71 1436.52 1577.04 1435.11 1566 1435.31 C 1550.26 1446.77 1526.19 1458.23 1508.04 1466.07 C 1418.05 1504.97 1318.09 1519.67 1220.92 1505.4 C 1193.61 1501.39 1158.3 1492.86 1132.84 1482.95 C 1130.47 1483.14 1128.36 1483.28 1126 1483.64 C 1024.77 1509.12 918.711 1508.32 817.881 1481.31 C 788.157 1473.13 767.197 1464.79 738.775 1454.01 L 737.732 1453.82 C 723.588 1466.78 709.209 1482.65 695.072 1496.15 C 663.038 1526.75 626.996 1551.94 583.851 1563.94 C 540.402 1576.02 497.134 1571.52 457.759 1549.16 C 422.194 1528.95 395.747 1496.78 374.392 1462.48 C 370.244 1455.82 362.92 1443.09 360.938 1435.86 C 351.854 1433.11 328.654 1439.05 323.178 1431.7 L 323.774 1429.1 C 327.282 1426.11 346.989 1428.37 354.408 1426.32 L 354.545 1426.89 C 358.959 1428.15 849.759 1429.27 856.805 1427.1 L 857.691 1426.96 C 857.622 1417.28 859.648 1411.94 866.583 1405.24 z"/>
<path transform="translate(0,0)" fill="rgb(118,109,214)" d="M 362.142 1435.9 C 440.781 1437.01 522.773 1435.77 601.688 1435.79 L 661.045 1435.83 C 670.9 1435.81 690.872 1435.37 699.579 1436.8 C 704.557 1437.62 733.017 1450.95 737.732 1453.82 C 723.588 1466.78 709.209 1482.65 695.072 1496.15 C 663.038 1526.75 626.996 1551.94 583.851 1563.94 C 540.402 1576.02 497.134 1571.52 457.759 1549.16 C 422.194 1528.95 395.747 1496.78 374.392 1462.48 C 370.244 1455.82 362.92 1443.09 360.938 1435.86 L 362.142 1435.9 z"/>
<path transform="translate(0,0)" fill="rgb(134,113,210)" d="M 756.32 1435.07 L 1036.98 1435.05 C 1061.14 1450.94 1084.85 1464.11 1111.47 1475.19 C 1115.19 1476.74 1124.08 1480.2 1126 1483.64 C 1024.77 1509.12 918.711 1508.32 817.881 1481.31 C 788.157 1473.13 767.197 1464.79 738.775 1454.01 C 741.724 1449.53 752.101 1438.88 756.32 1435.07 z"/>
<path transform="translate(0,0)" fill="rgb(87,16,68)" d="M 866.583 1405.24 C 876.308 1401.4 883.207 1402.09 892.911 1406.28 C 895.223 1407.27 897.475 1408.4 899.655 1409.65 C 904.679 1414.07 909.302 1418.72 908.927 1426.06 L 908.946 1427.04 C 914.464 1428.5 974.4 1427.85 984.466 1427.84 L 1085.95 1427.81 C 1102.92 1427.8 1122.8 1428.29 1139.58 1427.68 C 1137.51 1419.68 1138.45 1415.88 1140.31 1408.18 C 1149.87 1406.85 1160.29 1404.93 1169.95 1403.43 C 1182.97 1408.06 1192.93 1413.73 1200.09 1426 L 1200.63 1427.45 C 1211.92 1428.69 1248.14 1427.75 1261.82 1427.79 L 1399.67 1427.78 L 1473.94 1427.88 C 1480.94 1427.91 1504.94 1428.36 1510.68 1427.38 C 1518.62 1428.4 1616.17 1428.4 1620.42 1426.88 C 1625.17 1427.37 1635.43 1427.12 1638.24 1428.29 C 1638.77 1431.19 1638.9 1431.13 1638.06 1434.11 C 1632.71 1436.52 1577.04 1435.11 1566 1435.31 C 1524.52 1433.81 1470.39 1434.72 1428.53 1435.15 C 1417.03 1436.87 1400.59 1436.14 1388.67 1436.08 L 1305.42 1435.78 C 1291.76 1435.78 1274.4 1435.34 1261.15 1436.71 C 1253.75 1437.48 1234.96 1446.88 1227.41 1450.3 C 1217.48 1454.8 1205.74 1458.56 1196.17 1462.82 C 1179.47 1470.26 1148.09 1476.05 1132.84 1482.95 C 1130.47 1483.14 1128.36 1483.28 1126 1483.64 C 1124.08 1480.2 1115.19 1476.74 1111.47 1475.19 C 1084.85 1464.11 1061.14 1450.94 1036.98 1435.05 L 756.32 1435.07 C 752.101 1438.88 741.724 1449.53 738.775 1454.01 L 737.732 1453.82 C 733.017 1450.95 704.557 1437.62 699.579 1436.8 C 690.872 1435.37 670.9 1435.81 661.045 1435.83 L 601.688 1435.79 C 522.773 1435.77 440.781 1437.01 362.142 1435.9 L 360.938 1435.86 C 351.854 1433.11 328.654 1439.05 323.178 1431.7 L 323.774 1429.1 C 327.282 1426.11 346.989 1428.37 354.408 1426.32 L 354.545 1426.89 C 358.959 1428.15 849.759 1429.27 856.805 1427.1 L 857.691 1426.96 C 857.622 1417.28 859.648 1411.94 866.583 1405.24 z"/>
<path transform="translate(0,0)" fill="rgb(121,97,191)" d="M 1036.98 1435.05 L 1295.11 1434.98 L 1383.42 1434.95 C 1396.82 1434.97 1415.48 1434.46 1428.53 1435.15 C 1417.03 1436.87 1400.59 1436.14 1388.67 1436.08 L 1305.42 1435.78 C 1291.76 1435.78 1274.4 1435.34 1261.15 1436.71 C 1253.75 1437.48 1234.96 1446.88 1227.41 1450.3 C 1217.48 1454.8 1205.74 1458.56 1196.17 1462.82 C 1179.47 1470.26 1148.09 1476.05 1132.84 1482.95 C 1130.47 1483.14 1128.36 1483.28 1126 1483.64 C 1124.08 1480.2 1115.19 1476.74 1111.47 1475.19 C 1084.85 1464.11 1061.14 1450.94 1036.98 1435.05 z"/>
<path transform="translate(0,0)" fill="rgb(69,9,57)" d="M 1140.31 1408.18 C 1149.87 1406.85 1160.29 1404.93 1169.95 1403.43 C 1182.97 1408.06 1192.93 1413.73 1200.09 1426 C 1195.93 1429.31 1148.02 1428.33 1139.58 1427.68 C 1137.51 1419.68 1138.45 1415.88 1140.31 1408.18 z"/>
<path transform="translate(0,0)" fill="rgb(69,9,57)" d="M 866.583 1405.24 C 876.308 1401.4 883.207 1402.09 892.911 1406.28 C 895.223 1407.27 897.475 1408.4 899.655 1409.65 C 904.679 1414.07 909.302 1418.72 908.927 1426.06 C 904.724 1428.99 863.28 1428.89 857.691 1426.96 C 857.622 1417.28 859.648 1411.94 866.583 1405.24 z"/>
<path transform="translate(0,0)" fill="rgb(121,97,191)" d="M 362.142 1435.9 C 367.678 1433.81 454.625 1434.91 469.022 1434.91 L 756.32 1435.07 C 752.101 1438.88 741.724 1449.53 738.775 1454.01 L 737.732 1453.82 C 733.017 1450.95 704.557 1437.62 699.579 1436.8 C 690.872 1435.37 670.9 1435.81 661.045 1435.83 L 601.688 1435.79 C 522.773 1435.77 440.781 1437.01 362.142 1435.9 z"/>
<path transform="translate(0,0)" fill="rgb(237,99,92)" d="M 1522.37 1206.39 C 1524.51 1209.85 1526.68 1213.32 1528.77 1216.81 C 1531.26 1216.63 1534.78 1216.06 1536.89 1216.83 C 1546.52 1209.91 1597.06 1213.36 1610.76 1214.78 C 1618.79 1216.09 1633.03 1217.53 1639.09 1222.36 C 1646.67 1227.08 1648.12 1227.79 1652.08 1236.11 C 1652.69 1239.09 1653.77 1243.28 1653.62 1246.2 C 1651.94 1257.97 1649.92 1269.68 1647.55 1281.33 L 1645.73 1290.28 L 1637.33 1334 C 1636.79 1337.24 1636.24 1340.47 1635.68 1343.7 C 1633.2 1356.53 1630.8 1369.38 1628.48 1382.25 L 1626.68 1391.6 L 1627.38 1393.11 C 1626.43 1396.84 1625.15 1401.35 1624.57 1405.09 L 1622.8 1414.04 L 1620.42 1426.88 C 1616.17 1428.4 1518.62 1428.4 1510.68 1427.38 L 1507.36 1413.94 L 1505.38 1404.93 C 1502.01 1386.05 1496.21 1363.37 1492.25 1343.79 L 1489.73 1332.77 L 1489.41 1331.12 L 1487.64 1321.72 L 1480.69 1285.87 L 1479.11 1276.94 L 1477.88 1268.69 C 1477.95 1265.6 1477.17 1260.88 1476.77 1257.67 L 1476.34 1248.03 C 1485.29 1245.99 1494.27 1244.07 1503.28 1242.26 C 1502.87 1236.2 1502.19 1227.4 1499.87 1221.92 L 1500.19 1221.34 C 1502.66 1221.14 1506.31 1220.15 1508.85 1219.54 L 1513.57 1218.93 L 1522.37 1206.39 z"/>
<path transform="translate(0,0)" fill="rgb(229,75,73)" d="M 1489.41 1331.12 C 1499.85 1331.99 1539.93 1334.18 1547.67 1336.71 C 1558.28 1337.4 1630.59 1341.56 1635.68 1343.7 C 1633.2 1356.53 1630.8 1369.38 1628.48 1382.25 L 1626.68 1391.6 L 1627.38 1393.11 C 1626.43 1396.84 1625.15 1401.35 1624.57 1405.09 L 1622.8 1414.04 L 1620.42 1426.88 C 1616.17 1428.4 1518.62 1428.4 1510.68 1427.38 L 1507.36 1413.94 L 1505.38 1404.93 C 1502.01 1386.05 1496.21 1363.37 1492.25 1343.79 L 1489.73 1332.77 L 1489.41 1331.12 z"/>
<path transform="translate(0,0)" fill="rgb(237,99,92)" d="M 1547.67 1336.71 C 1558.28 1337.4 1630.59 1341.56 1635.68 1343.7 C 1633.2 1356.53 1630.8 1369.38 1628.48 1382.25 C 1612.81 1376.31 1594.39 1371.07 1579.15 1364.6 C 1570.7 1355.53 1559.33 1349.64 1547.67 1336.71 z"/>
<path transform="translate(0,0)" fill="rgb(251,135,133)" d="M 1489.41 1331.12 C 1499.85 1331.99 1539.93 1334.18 1547.67 1336.71 C 1559.33 1349.64 1570.7 1355.53 1579.15 1364.6 C 1594.39 1371.07 1612.81 1376.31 1628.48 1382.25 L 1626.68 1391.6 C 1617.46 1387.06 1581.24 1374.66 1570.24 1371.03 C 1546.43 1363.17 1515.59 1350.33 1492.25 1343.79 L 1489.73 1332.77 L 1489.41 1331.12 z"/>
<path transform="translate(0,0)" fill="rgb(229,75,73)" d="M 1489.41 1331.12 C 1499.85 1331.99 1539.93 1334.18 1547.67 1336.71 C 1559.33 1349.64 1570.7 1355.53 1579.15 1364.6 C 1549.27 1354.2 1519.46 1343.59 1489.73 1332.77 L 1489.41 1331.12 z"/>
<path transform="translate(0,0)" fill="rgb(229,75,73)" d="M 1507.36 1413.94 C 1544.62 1413.94 1585.86 1413.06 1622.8 1414.04 L 1620.42 1426.88 C 1616.17 1428.4 1518.62 1428.4 1510.68 1427.38 L 1507.36 1413.94 z"/>
<path transform="translate(0,0)" fill="rgb(251,135,133)" d="M 1505.38 1404.93 C 1544.4 1404.99 1585.79 1404.29 1624.57 1405.09 L 1622.8 1414.04 C 1585.86 1413.06 1544.62 1413.94 1507.36 1413.94 L 1505.38 1404.93 z"/>
<path transform="translate(0,0)" fill="rgb(237,99,92)" d="M 1515.3 1282.91 C 1549.83 1281.37 1611.9 1281.13 1645.73 1290.28 L 1637.33 1334 C 1636.79 1337.24 1636.24 1340.47 1635.68 1343.7 C 1630.59 1341.56 1558.28 1337.4 1547.67 1336.71 C 1539.93 1334.18 1499.85 1331.99 1489.41 1331.12 L 1487.64 1321.72 L 1480.69 1285.87 C 1491.9 1284.45 1503.97 1283.75 1515.3 1282.91 z"/>
<path transform="translate(0,0)" fill="rgb(229,75,73)" d="M 1480.69 1285.87 C 1491.9 1284.45 1503.97 1283.75 1515.3 1282.91 C 1517.75 1294.73 1530.98 1314.51 1537.65 1325.05 C 1537.49 1325.49 1537.33 1325.93 1537.17 1326.37 C 1520.78 1325.22 1504.02 1323.36 1487.64 1321.72 L 1480.69 1285.87 z"/>
<path transform="translate(0,0)" fill="rgb(251,135,133)" d="M 1487.64 1321.72 C 1504.02 1323.36 1520.78 1325.22 1537.17 1326.37 C 1543.63 1327.6 1552.04 1328.01 1558.67 1328.48 C 1584.82 1330.3 1611.14 1332.86 1637.33 1334 C 1636.79 1337.24 1636.24 1340.47 1635.68 1343.7 C 1630.59 1341.56 1558.28 1337.4 1547.67 1336.71 C 1539.93 1334.18 1499.85 1331.99 1489.41 1331.12 L 1487.64 1321.72 z"/>
<path transform="translate(0,0)" fill="rgb(237,99,92)" d="M 1522.37 1206.39 C 1524.51 1209.85 1526.68 1213.32 1528.77 1216.81 C 1531.26 1216.63 1534.78 1216.06 1536.89 1216.83 C 1546.52 1209.91 1597.06 1213.36 1610.76 1214.78 C 1618.79 1216.09 1633.03 1217.53 1639.09 1222.36 C 1646.67 1227.08 1648.12 1227.79 1652.08 1236.11 C 1638.3 1235.77 1624.34 1234.38 1610.35 1233.87 C 1572.25 1232.48 1540.53 1235.85 1503.28 1242.26 C 1502.87 1236.2 1502.19 1227.4 1499.87 1221.92 L 1500.19 1221.34 C 1502.66 1221.14 1506.31 1220.15 1508.85 1219.54 L 1513.57 1218.93 L 1522.37 1206.39 z"/>
<path transform="translate(0,0)" fill="rgb(241,234,210)" d="M 1536.89 1216.83 C 1546.52 1209.91 1597.06 1213.36 1610.76 1214.78 C 1618.79 1216.09 1633.03 1217.53 1639.09 1222.36 C 1635.52 1222.09 1630.58 1221.31 1627.07 1220.41 C 1596.82 1212.65 1567.55 1215.89 1536.89 1216.83 z"/>
<path transform="translate(0,0)" fill="rgb(134,113,210)" d="M 1522.37 1206.39 C 1524.51 1209.85 1526.68 1213.32 1528.77 1216.81 C 1524.21 1217.42 1517.98 1218.07 1513.57 1218.93 L 1522.37 1206.39 z"/>
<path transform="translate(0,0)" fill="rgb(251,135,133)" d="M 1476.77 1257.67 C 1485.35 1254.93 1494.39 1253.21 1503.21 1251.33 C 1506.65 1254.03 1509.75 1268.66 1511.33 1274.06 C 1556.61 1271.85 1602.97 1272.17 1647.55 1281.33 L 1645.73 1290.28 C 1611.9 1281.13 1549.83 1281.37 1515.3 1282.91 C 1503.97 1283.75 1491.9 1284.45 1480.69 1285.87 L 1479.11 1276.94 L 1477.88 1268.69 C 1477.95 1265.6 1477.17 1260.88 1476.77 1257.67 z"/>
<path transform="translate(0,0)" fill="rgb(229,75,73)" d="M 1476.77 1257.67 C 1485.35 1254.93 1494.39 1253.21 1503.21 1251.33 C 1506.65 1254.03 1509.75 1268.66 1511.33 1274.06 C 1502.26 1274.82 1487.69 1275.6 1479.11 1276.94 L 1477.88 1268.69 C 1477.95 1265.6 1477.17 1260.88 1476.77 1257.67 z"/>
<path transform="translate(0,0)" fill="rgb(251,135,133)" d="M 1503.28 1242.26 C 1540.53 1235.85 1572.25 1232.48 1610.35 1233.87 C 1624.34 1234.38 1638.3 1235.77 1652.08 1236.11 C 1652.69 1239.09 1653.77 1243.28 1653.62 1246.2 C 1609.85 1239.92 1546.45 1242 1503.21 1251.33 C 1494.39 1253.21 1485.35 1254.93 1476.77 1257.67 L 1476.34 1248.03 C 1485.29 1245.99 1494.27 1244.07 1503.28 1242.26 z"/>
<path transform="translate(0,0)" fill="rgb(134,113,210)" d="M 1278.59 1426.62 C 1345.06 1390.38 1404.96 1347.59 1456.56 1291.82 C 1463.7 1284.1 1470.45 1276.12 1477.88 1268.69 L 1479.11 1276.94 L 1480.69 1285.87 L 1487.64 1321.72 L 1489.41 1331.12 L 1489.73 1332.77 L 1492.25 1343.79 C 1496.21 1363.37 1502.01 1386.05 1505.38 1404.93 L 1507.36 1413.94 L 1510.68 1427.38 C 1503.98 1425.97 1453 1426.71 1441.81 1426.72 L 1278.59 1426.62 z"/>
<path transform="translate(0,0)" fill="rgb(229,75,73)" d="M 1476.34 1248.03 C 1477.73 1229.72 1482.94 1226.55 1499.87 1221.92 C 1502.19 1227.4 1502.87 1236.2 1503.28 1242.26 C 1494.27 1244.07 1485.29 1245.99 1476.34 1248.03 z"/>
<path transform="translate(0,0)" fill="rgb(87,16,68)" d="M 1043.06 807.203 C 1078.66 860.118 1100.3 918.627 1115.33 980.27 C 1115.98 983.804 1116.83 987.825 1117.34 991.331 C 1118.57 995.997 1119.54 1000.54 1120.45 1005.27 C 1132.49 1067.94 1128.51 1129.51 1140.65 1192.49 C 1143.34 1213.21 1146.18 1233.9 1149.16 1254.58 L 1149.98 1260.92 C 1151.83 1274.37 1168.75 1401.57 1169.95 1403.43 C 1160.29 1404.93 1149.87 1406.85 1140.31 1408.18 C 1138.45 1415.88 1137.51 1419.68 1139.58 1427.68 C 1122.8 1428.29 1102.92 1427.8 1085.95 1427.81 L 984.466 1427.84 C 974.4 1427.85 914.464 1428.5 908.946 1427.04 L 908.927 1426.06 C 909.302 1418.72 904.679 1414.07 899.655 1409.65 C 897.475 1408.4 895.223 1407.27 892.911 1406.28 C 883.207 1402.09 876.308 1401.4 866.583 1405.24 C 858.279 1387.08 852.043 1368.58 845.576 1349.74 C 839.794 1331.87 835.137 1313.99 830.273 1295.86 C 865.763 1232.85 880.031 1151.93 878.309 1079.97 C 877.172 1032.45 857.864 992.001 822.714 959.871 C 819.406 957.088 811.518 951.577 810.659 948.17 C 812.577 917.243 821.044 844.633 830.98 814.198 C 895.227 854.463 968.076 854.366 1032.78 815.062 C 1033.36 814.307 1041.76 808.171 1043.06 807.203 z"/>
<path transform="translate(0,0)" fill="rgb(121,97,191)" d="M 914.197 1319.7 C 919.016 1286.01 927.698 1241.13 929.566 1208.41 C 930.386 1195.4 930.277 1182.34 929.24 1169.34 C 925.878 1131.49 921.848 1104.15 937.743 1067.26 C 943.79 1053.23 948.544 1035.86 953.837 1021.31 C 971.106 1054.31 989.29 1087.9 1017.34 1113.32 C 991.974 1213.41 1048.47 1306.11 1112.36 1379.19 C 1121.2 1389.29 1130.99 1398.53 1140.31 1408.18 C 1138.45 1415.88 1137.51 1419.68 1139.58 1427.68 C 1122.8 1428.29 1102.92 1427.8 1085.95 1427.81 L 984.466 1427.84 C 974.4 1427.85 914.464 1428.5 908.946 1427.04 L 908.927 1426.06 C 909.302 1418.72 904.679 1414.07 899.655 1409.65 C 903.15 1381.64 909.662 1348.09 914.197 1319.7 z"/>
<path transform="translate(0,0)" fill="rgb(134,113,210)" d="M 914.197 1319.7 C 922.452 1324.03 951.732 1362.72 961.821 1372.52 C 980.745 1390.9 1002.39 1411.98 1024.61 1426.64 L 949.604 1426.71 C 938.401 1426.7 919.568 1426.16 908.946 1427.04 L 908.927 1426.06 C 909.302 1418.72 904.679 1414.07 899.655 1409.65 C 903.15 1381.64 909.662 1348.09 914.197 1319.7 z"/>
<path transform="translate(0,0)" fill="rgb(69,9,57)" d="M 810.659 948.17 C 812.577 917.243 821.044 844.633 830.98 814.198 C 895.227 854.463 968.076 854.366 1032.78 815.062 C 1033.28 817.548 1033.4 819.083 1031.31 821.163 C 981.003 871.192 914.303 870.883 850.946 854.816 C 832.25 881.179 830.38 930.903 822.714 959.871 C 819.406 957.088 811.518 951.577 810.659 948.17 z"/>
<path transform="translate(0,0)" fill="rgb(68,112,152)" d="M 830.273 1295.86 C 816.697 1316.91 797.903 1338.97 771.512 1342.03 C 741.314 1345.54 702.428 1326.11 678.803 1307.25 C 617.104 1258.01 565.373 1182.3 551.949 1103.54 C 546.164 1061.51 558.553 1017.7 583.352 984.446 C 632.863 918.055 726.917 898.902 797.559 941.707 C 800.772 943.654 807.539 948.579 810.659 948.17 C 811.518 951.577 819.406 957.088 822.714 959.871 C 857.864 992.001 877.172 1032.45 878.309 1079.97 C 880.031 1151.93 865.763 1232.85 830.273 1295.86 z"/>
<path transform="translate(0,0)" fill="rgb(254,254,254)" d="M 680.602 1301.69 C 678.647 1300.24 676.732 1298.75 674.857 1297.2 C 620.702 1252.52 563.308 1167.79 556.736 1096.68 C 553.02 1055 565.998 1013.55 592.819 981.434 C 619.698 949.069 658.372 928.757 700.274 924.996 C 744.508 921.033 784.438 934.855 818.155 963.251 C 850.77 992.08 871.16 1032 872.678 1075.67 C 875.069 1144.43 862.823 1217.8 832.854 1280 C 821.914 1302.71 799.587 1332.59 772.826 1336.54 C 742.432 1341.03 703.747 1320.26 680.602 1301.69 z"/>
<path transform="translate(0,0)" fill="rgb(199,212,222)" d="M 818.155 963.251 C 850.77 992.08 871.16 1032 872.678 1075.67 C 875.069 1144.43 862.823 1217.8 832.854 1280 C 821.914 1302.71 799.587 1332.59 772.826 1336.54 C 742.432 1341.03 703.747 1320.26 680.602 1301.69 C 701.102 1298.19 734.855 1285.23 750.523 1271.16 C 771.113 1289.98 777.258 1266.67 776.357 1248.98 C 789.566 1237.29 806.022 1211.47 813.975 1195.29 C 841.255 1139.79 846.353 1075.11 833.617 1015.01 C 829.827 997.128 823.957 980.487 818.155 963.251 z"/>
<path transform="translate(0,0)" fill="rgb(68,112,152)" d="M 750.523 1271.16 C 746.987 1266.69 744.147 1261.72 742.098 1256.4 C 726.093 1215.16 764.155 1192.74 776.357 1248.98 C 777.258 1266.67 771.113 1289.98 750.523 1271.16 z"/>
<path transform="translate(0,0)" fill="rgb(68,112,152)" d="M 645.882 1102.02 C 674.944 1100.94 698.517 1147.92 672.196 1161.48 C 643.404 1161.61 620.454 1116.71 645.882 1102.02 z"/>
<path transform="translate(0,0)" fill="rgb(68,112,152)" d="M 783.071 1065.92 C 812.868 1063.98 815.39 1114.19 791.769 1129.88 C 761.289 1132.8 757.984 1081.57 783.071 1065.92 z"/>
<path transform="translate(0,0)" fill="rgb(68,112,152)" d="M 792.114 1017.88 C 807.937 1017.6 820.017 1045.99 821.715 1058.88 L 821.014 1058.83 C 816.819 1052.55 813.313 1048.64 808.149 1043.3 C 803.59 1038.59 789.475 1030.36 787.999 1025.72 C 788.407 1021.77 789.442 1021.13 792.114 1017.88 z"/>
<path transform="translate(0,0)" fill="rgb(68,112,152)" d="M 613.943 1064.91 C 618.956 1064.68 620.049 1064.51 623.431 1068.34 C 625.293 1076.14 616.982 1087.55 614.78 1095.5 C 613.355 1100.65 613.021 1103.8 612.483 1109.1 C 612.225 1111.44 612.342 1111.47 611.324 1113.56 C 605.143 1103.69 605.931 1074.71 613.943 1064.91 z"/>
<path transform="translate(0,0)" fill="rgb(134,113,210)" d="M 765.76 1426.6 C 773.572 1417.31 837.393 1354.98 845.576 1349.74 C 852.043 1368.58 858.279 1387.08 866.583 1405.24 C 859.648 1411.94 857.622 1417.28 857.691 1426.96 L 856.805 1427.1 C 830.595 1425.61 793.303 1427.05 765.76 1426.6 z"/>
<path transform="translate(0,0)" fill="rgb(118,109,214)" d="M 697.955 292.418 C 720.788 276.317 750.812 259.131 775.644 245.811 C 947.617 153.565 1144.31 115.069 1337.55 148.238 C 1505.87 177.129 1666.53 253.36 1767.09 395.594 C 1842.63 502.448 1876.27 641.797 1853.32 771.087 C 1849.14 794.715 1842.81 817.911 1834.4 840.383 C 1830.89 849.627 1807.11 898.607 1806.78 903.838 L 1806.02 904.784 C 1797.68 915.227 1786.29 935.683 1777.83 947.924 C 1751.42 986.181 1718.36 1019.39 1680.23 1045.97 C 1675.49 1049.24 1657.78 1062.66 1653.44 1060.58 C 1667.16 1038.22 1678.68 1009.83 1653.91 990.752 C 1635.42 976.517 1627.13 1027.41 1613.05 1016.56 C 1601.03 992.784 1652.84 927.928 1603.44 869.34 C 1605.63 855.422 1600.86 814.136 1599 798.391 C 1583.15 664.569 1530.04 554.18 1454.03 444.601 C 1439.86 424.546 1424.96 405.02 1409.36 386.064 C 1401.44 376.432 1385.23 359.288 1379.66 348.96 L 1379.06 347.824 C 1371.44 344.595 1363.95 335.52 1358.05 329.376 C 1330.09 300.257 1298.97 271.682 1265.42 249.073 C 1228.68 224.316 1180.31 198.333 1134.81 206.809 C 1098.77 213.522 1078.79 243.078 1059.77 271.259 C 1042.81 297.909 1024.19 340.861 1009.2 370.512 C 990.645 362.981 968.843 359.546 948.967 357.677 C 944.008 357.211 937.639 357.63 933.185 355.805 L 922.558 370.155 C 911.206 374.829 911.963 375.765 900.981 369.33 C 899.102 367.738 894.509 361.475 892.601 359.091 C 876.113 362.821 860.072 365.012 843.799 370.685 C 841.925 371.338 837.053 372.835 835.195 372.835 C 801.911 380.254 761.487 411.003 738.744 436.072 C 736.339 432.086 733.855 428.149 731.291 424.263 C 704.473 384.447 665.22 359.355 618.349 350.283 C 611.318 348.86 604.175 348.063 597.003 347.901 C 589.112 347.656 565.353 349.484 561.256 347.685 C 592.752 331.276 645.784 310.539 679.929 301.42 C 687.508 298.608 690.887 296.557 697.955 292.418 z"/>
<path transform="translate(0,0)" fill="rgb(121,97,191)" d="M 697.955 292.418 C 703.606 295.171 730.498 287.185 737.745 285.489 C 755.179 281.581 772.719 278.163 790.345 275.238 C 866.409 263.299 982.609 261.348 1059.77 271.259 C 1042.81 297.909 1024.19 340.861 1009.2 370.512 C 990.645 362.981 968.843 359.546 948.967 357.677 C 944.008 357.211 937.639 357.63 933.185 355.805 L 922.558 370.155 C 911.206 374.829 911.963 375.765 900.981 369.33 C 899.102 367.738 894.509 361.475 892.601 359.091 C 876.113 362.821 860.072 365.012 843.799 370.685 C 841.925 371.338 837.053 372.835 835.195 372.835 C 801.911 380.254 761.487 411.003 738.744 436.072 C 736.339 432.086 733.855 428.149 731.291 424.263 C 704.473 384.447 665.22 359.355 618.349 350.283 C 611.318 348.86 604.175 348.063 597.003 347.901 C 589.112 347.656 565.353 349.484 561.256 347.685 C 592.752 331.276 645.784 310.539 679.929 301.42 C 687.508 298.608 690.887 296.557 697.955 292.418 z"/>
<path transform="translate(0,0)" fill="rgb(243,174,106)" d="M 889.602 304.852 C 894.194 308.174 897.131 310.651 902.395 312.728 C 921.844 320.403 937.191 301.092 941.503 327.36 C 941.755 328.913 941.977 330.47 942.171 332.03 L 943.89 332.792 C 946.156 339.509 936.534 348.067 933.185 355.805 L 922.558 370.155 C 911.206 374.829 911.963 375.765 900.981 369.33 C 899.102 367.738 894.509 361.475 892.601 359.091 C 888.265 350.243 877.576 337.529 881.104 328.854 C 882.517 330.662 882.07 330.804 883.644 331.29 C 884.825 319.959 885.337 315.284 889.602 304.852 z"/>
<path transform="translate(0,0)" fill="rgb(69,9,57)" d="M 887.745 296.096 C 884.26 287.121 882.876 277.048 894.818 273.492 C 914.371 267.668 940.022 287.57 945.545 305.895 C 948.543 315.475 946.532 323.81 943.89 332.792 L 942.171 332.03 C 941.977 330.47 941.755 328.913 941.503 327.36 C 937.191 301.092 921.844 320.403 902.395 312.728 C 897.131 310.651 894.194 308.174 889.602 304.852 C 885.337 315.284 884.825 319.959 883.644 331.29 C 882.07 330.804 882.517 330.662 881.104 328.854 C 880.351 313.633 879.679 309.552 887.745 296.096 z"/>
<path transform="translate(0,0)" fill="rgb(134,113,210)" d="M 561.256 347.685 C 592.752 331.276 645.784 310.539 679.929 301.42 C 676.449 308.064 628.142 342.321 618.349 350.283 C 611.318 348.86 604.175 348.063 597.003 347.901 C 589.112 347.656 565.353 349.484 561.256 347.685 z"/>
<path transform="translate(0,0)" fill="rgb(192,157,168)" d="M 922.558 370.155 L 933.185 355.805 C 937.639 357.63 944.008 357.211 948.967 357.677 C 968.843 359.546 990.645 362.981 1009.2 370.512 C 1025.46 375.722 1057.54 392.301 1070.04 404.338 C 1073.34 411.132 1089.72 425.495 1096.04 432.768 C 1127.72 469.231 1154.97 522.547 1157.08 571.648 C 1161.15 573.186 1164.59 574.247 1168.23 576.656 C 1173.73 629.633 1171.91 725.359 1102.08 732.106 L 1101.37 732.17 C 1089.72 756.804 1065.16 792.27 1043.06 807.203 C 1041.76 808.171 1033.36 814.307 1032.78 815.062 C 968.076 854.366 895.227 854.463 830.98 814.198 C 801.753 793.753 786.892 772.904 768.295 743.793 C 750.907 751.859 737.31 749.986 720.995 741.068 L 716.727 737.946 C 703.79 727.451 695.64 705.066 690.221 689.802 C 687.701 681.977 686.328 676.165 684.534 668.212 C 681.84 655.164 680.092 645.199 679.784 631.674 C 678.988 627.649 679.293 619.249 679.321 614.819 C 677.138 572.494 693.96 517.222 712.594 479.499 C 716.231 472.723 720.117 464.984 724.439 458.718 C 724.55 451.918 730.909 445.582 735.261 440.499 L 738.744 436.072 C 761.487 411.003 801.911 380.254 835.195 372.835 C 837.053 372.835 841.925 371.338 843.799 370.685 C 860.072 365.012 876.113 362.821 892.601 359.091 C 894.509 361.475 899.102 367.738 900.981 369.33 C 911.963 375.765 911.206 374.829 922.558 370.155 z"/>
<path transform="translate(0,0)" fill="rgb(192,157,168)" d="M 932.734 547.669 L 940.063 554.159 C 942.131 556.005 944.441 557.982 946.376 559.924 L 949.244 569.436 C 951.59 574.837 953.807 580.293 955.893 585.799 C 968.635 623.65 1003.76 666.478 1033.18 693.159 C 1044.07 703.03 1060.2 713.756 1072 723.075 C 1082.21 728.39 1089.64 731.688 1101.37 732.17 C 1089.72 756.804 1065.16 792.27 1043.06 807.203 C 1041.76 808.171 1033.36 814.307 1032.78 815.062 C 968.076 854.366 895.227 854.463 830.98 814.198 C 801.753 793.753 786.892 772.904 768.295 743.793 C 812.958 719.031 873.135 635.314 889.819 587.56 C 895.919 571.492 896.688 565.134 909.202 553.177 L 913.988 557.681 C 923.555 557.445 926.527 554.15 932.734 547.669 z"/>
<path transform="translate(0,0)" fill="rgb(176,140,152)" d="M 932.734 547.669 L 940.063 554.159 C 942.131 556.005 944.441 557.982 946.376 559.924 L 949.244 569.436 C 936.47 580.887 924.928 583.524 908.363 580.144 C 893.891 654.661 855.708 718.625 806.734 775.947 C 845.156 806.447 890.785 815.546 938.844 810.915 C 992.089 805.784 1046.5 770.671 1072 723.075 C 1082.21 728.39 1089.64 731.688 1101.37 732.17 C 1089.72 756.804 1065.16 792.27 1043.06 807.203 C 1041.76 808.171 1033.36 814.307 1032.78 815.062 C 968.076 854.366 895.227 854.463 830.98 814.198 C 801.753 793.753 786.892 772.904 768.295 743.793 C 812.958 719.031 873.135 635.314 889.819 587.56 C 895.919 571.492 896.688 565.134 909.202 553.177 L 913.988 557.681 C 923.555 557.445 926.527 554.15 932.734 547.669 z"/>
<path transform="translate(0,0)" fill="rgb(199,212,222)" d="M 932.734 547.669 L 940.063 554.159 C 931.331 563.42 924.757 567.01 913.988 557.681 C 923.555 557.445 926.527 554.15 932.734 547.669 z"/>
<path transform="translate(0,0)" fill="rgb(243,174,106)" d="M 932.734 547.669 C 927.111 542.933 923.484 550.078 919.7 542.938 L 920.478 542.036 C 934.241 543.884 926.989 537.306 932.882 531.644 C 936.717 530.167 938.502 530.697 942.656 531.107 L 951.043 534.866 C 959.136 539.098 961.577 540.257 967.49 547.441 C 988.784 543.182 1032.18 568.469 1051 577.77 C 1049.69 572.922 1048.54 566.443 1047.5 561.403 C 1092.64 558.692 1113.87 558.77 1157.08 571.648 C 1161.15 573.186 1164.59 574.247 1168.23 576.656 C 1173.73 629.633 1171.91 725.359 1102.08 732.106 L 1101.37 732.17 C 1089.64 731.688 1082.21 728.39 1072 723.075 C 1060.2 713.756 1044.07 703.03 1033.18 693.159 C 1003.76 666.478 968.635 623.65 955.893 585.799 C 953.807 580.293 951.59 574.837 949.244 569.436 L 946.376 559.924 C 944.441 557.982 942.131 556.005 940.063 554.159 L 932.734 547.669 z"/>
<path transform="translate(0,0)" fill="rgb(239,151,89)" d="M 1157.08 571.648 C 1161.15 573.186 1164.59 574.247 1168.23 576.656 C 1173.73 629.633 1171.91 725.359 1102.08 732.106 L 1101.37 732.17 C 1089.64 731.688 1082.21 728.39 1072 723.075 C 1060.2 713.756 1044.07 703.03 1033.18 693.159 C 1003.76 666.478 968.635 623.65 955.893 585.799 C 962.228 588.713 981.046 622.52 989.18 628.677 C 992.63 632.304 996.882 637.729 1000.44 641.02 C 1028.81 667.232 1074.01 719.535 1116.29 691.869 C 1154.25 667.028 1157.16 610.567 1157.08 571.648 z"/>
<path transform="translate(0,0)" fill="rgb(241,234,210)" d="M 967.49 547.441 C 988.784 543.182 1032.18 568.469 1051 577.77 C 1062.07 584.437 1099.14 608.615 1106.53 617.807 L 1105.8 618.642 C 1101.85 616.688 1082.61 601.737 1077.46 598.069 C 1058.87 584.788 1039.05 573.302 1018.28 563.767 C 1009.27 559.681 999.975 556.254 990.47 553.513 C 985.267 552.022 969.827 549.702 967.49 547.441 z"/>
<path transform="translate(0,0)" fill="rgb(243,174,106)" d="M 899.308 534.097 C 913.417 531.091 918.569 542.072 909.202 553.177 C 896.688 565.134 895.919 571.492 889.819 587.56 C 873.135 635.314 812.958 719.031 768.295 743.793 C 750.907 751.859 737.31 749.986 720.995 741.068 L 716.727 737.946 C 703.79 727.451 695.64 705.066 690.221 689.802 C 687.701 681.977 686.328 676.165 684.534 668.212 C 681.84 655.164 680.092 645.199 679.784 631.674 C 678.988 627.649 679.293 619.249 679.321 614.819 C 679.64 613.662 679.834 607.461 679.913 605.868 C 680.982 605.141 682.063 604.432 683.155 603.74 C 713.156 584.793 737.68 576.124 773.726 574.169 C 778.885 573.889 787.639 573.233 792.388 574.314 C 793.095 577.187 791.999 580.288 791.357 583.44 C 798.205 579.191 805.102 575.024 812.047 570.939 C 817.043 568.052 827.662 562.104 833.272 563.596 C 848.541 559.576 859.492 554.351 875.669 552.551 C 880.373 547.943 885.145 543.584 890.567 539.809 C 893.855 537.52 896.228 536.887 899.308 534.097 z"/>
<path transform="translate(0,0)" fill="rgb(239,151,89)" d="M 679.784 631.674 C 684.549 637.256 686.044 645.953 688.135 652.935 C 695.487 677.484 705.149 709.028 732.568 717.807 C 743.098 721.122 754.461 720.592 764.636 716.312 C 797.292 702.765 843.654 645.84 866.221 617.818 C 871.753 610.948 882.759 590.486 889.819 587.56 C 873.135 635.314 812.958 719.031 768.295 743.793 C 750.907 751.859 737.31 749.986 720.995 741.068 L 716.727 737.946 C 703.79 727.451 695.64 705.066 690.221 689.802 C 687.701 681.977 686.328 676.165 684.534 668.212 C 681.84 655.164 680.092 645.199 679.784 631.674 z"/>
<path transform="translate(0,0)" fill="rgb(241,234,210)" d="M 791.357 583.44 C 798.205 579.191 805.102 575.024 812.047 570.939 C 817.043 568.052 827.662 562.104 833.272 563.596 C 832.258 564.066 819.884 569.953 819.916 569.954 C 807.21 569.481 758.486 616.517 756.628 617.04 C 756.67 610.607 784.744 588.605 791.357 583.44 z"/>
<path transform="translate(0,0)" fill="rgb(254,254,254)" d="M 899.308 534.097 C 885.134 503.51 911.59 468.714 942.895 488.146 C 951.075 505.719 949.773 511.399 943.28 529.415 C 943.075 529.981 942.867 530.545 942.656 531.107 C 938.502 530.697 936.717 530.167 932.882 531.644 C 926.989 537.306 934.241 543.884 920.478 542.036 L 919.7 542.938 C 923.484 550.078 927.111 542.933 932.734 547.669 C 926.527 554.15 923.555 557.445 913.988 557.681 L 909.202 553.177 C 918.569 542.072 913.417 531.091 899.308 534.097 z"/>
<path transform="translate(0,0)" fill="rgb(68,112,152)" d="M 931.831 512.841 C 938.7 511.975 940.455 514.391 943.294 520.25 C 937.23 518.917 933.452 519.145 931.831 512.841 z"/>
<path transform="translate(0,0)" fill="rgb(239,151,89)" d="M 900.981 369.33 C 911.963 375.765 911.206 374.829 922.558 370.155 C 924.83 375.903 926.037 376.792 931.01 380.481 C 927.117 393.528 892.275 394.959 894.952 378.943 C 898.081 376.121 899.116 373.147 900.981 369.33 z"/>
<path transform="translate(0,0)" fill="rgb(176,140,152)" d="M 931.01 380.481 C 934.657 381.337 937.386 382.015 939.071 385.461 C 934.081 396.521 886.506 395.276 878.409 387.434 C 877.115 380.028 889.737 379.292 894.952 378.943 C 892.275 394.959 927.117 393.528 931.01 380.481 z"/>
<path transform="translate(0,0)" fill="rgb(254,254,254)" d="M 738.744 436.072 C 761.487 411.003 801.911 380.254 835.195 372.835 C 832.445 376.371 814.464 383.28 808.358 386.242 C 796.417 392.167 784.959 399.018 774.089 406.734 C 759.657 416.877 747.924 428.687 737.018 442.455 C 733.863 446.439 727.363 455.561 724.439 458.718 C 724.55 451.918 730.909 445.582 735.261 440.499 L 738.744 436.072 z"/>
<path transform="translate(0,0)" fill="rgb(199,212,222)" d="M 942.895 488.146 C 959.941 500.799 958.744 517.331 951.043 534.866 L 942.656 531.107 C 942.867 530.545 943.075 529.981 943.28 529.415 C 949.773 511.399 951.075 505.719 942.895 488.146 z"/>
<path transform="translate(0,0)" fill="rgb(254,254,254)" d="M 1117.34 991.331 C 1137.07 939.444 1161.05 898.297 1214.65 874.116 C 1254.22 856.394 1299.21 855.13 1339.71 870.603 C 1380.37 886.268 1413.06 917.563 1430.48 957.499 C 1436.99 972.4 1442.69 993.185 1443.34 1009.57 C 1437.95 1020.96 1433.45 1032.28 1427.72 1043.59 C 1410.62 1077.43 1387.46 1107.85 1359.39 1133.34 C 1354.05 1138.2 1339.33 1150.66 1333.38 1153.21 C 1328.12 1164.73 1325.28 1171.48 1311.25 1167.8 C 1289.09 1183.04 1247.62 1196.26 1220.99 1198.82 L 1222.2 1210.72 C 1220.63 1208.3 1216.41 1201.54 1214.8 1199.63 C 1187.97 1201.94 1166.62 1199.75 1140.65 1192.49 C 1128.51 1129.51 1132.49 1067.94 1120.45 1005.27 C 1119.54 1000.54 1118.57 995.997 1117.34 991.331 z"/>
<path transform="translate(0,0)" fill="rgb(68,112,152)" d="M 1146.72 1166.35 C 1185.74 1144.61 1212.45 1154.37 1220.99 1198.82 L 1222.2 1210.72 C 1220.63 1208.3 1216.41 1201.54 1214.8 1199.63 C 1213.26 1197.61 1211.66 1195.63 1210 1193.7 C 1193.72 1175.05 1170.57 1168.09 1146.72 1166.35 z"/>
<path transform="translate(0,0)" fill="rgb(68,112,152)" d="M 1311.25 1167.8 C 1303.45 1153.12 1320.61 1151.55 1327.99 1142.5 C 1332.05 1137.52 1334.66 1131.42 1337.45 1125.62 C 1336.95 1135.9 1335.85 1143.28 1333.38 1153.21 C 1328.12 1164.73 1325.28 1171.48 1311.25 1167.8 z"/>
<path transform="translate(0,0)" fill="rgb(68,112,152)" d="M 1297.2 1057.8 C 1301.87 1063.94 1302.18 1070.09 1309.52 1077.51 C 1319.73 1087.83 1328.94 1091.5 1343.72 1091.94 C 1345.58 1091.99 1345.33 1091.99 1346.98 1092.91 L 1345.24 1094.09 C 1312.68 1105.41 1297.51 1090.23 1297.2 1057.8 z"/>
<path transform="translate(0,0)" fill="rgb(68,112,152)" d="M 1187.83 989.621 C 1199.88 1015.21 1209.8 1021.3 1237.56 1024.3 L 1235.8 1025.76 C 1203.18 1036.99 1188.19 1022.33 1187.83 989.621 z"/>
<path transform="translate(0,0)" fill="rgb(68,112,152)" d="M 1241.78 972.955 C 1253.6 974.426 1274.94 988.893 1271.74 1002.46 C 1268.33 1003.24 1267.85 1003.54 1264.54 1002.84 C 1261.3 1000.21 1260.61 995.967 1258.35 991.891 C 1254.58 985.109 1243.24 978.452 1241.78 972.955 z"/>
<path transform="translate(0,0)" fill="rgb(68,112,152)" d="M 1302.12 1014.91 C 1315.55 1014.92 1327.36 1018.51 1337.64 1027.54 L 1338.55 1028.35 L 1338.4 1027.96 L 1338.2 1030.65 L 1336.4 1031 C 1324.33 1024.83 1304.9 1027.22 1300.13 1021.61 C 1300.09 1017.42 1299.94 1018.91 1302.12 1014.91 z"/>
<path transform="translate(0,0)" fill="rgb(243,174,106)" d="M 1545.11 1039.01 C 1551.33 1042.54 1560.34 1045.82 1566.24 1040.58 C 1569 1033.64 1563.66 1015.35 1562.27 1006.91 C 1559.32 988.861 1557.36 970.666 1556.43 952.404 C 1555.2 927.681 1554.17 885.73 1570.77 865.781 C 1580.86 853.654 1594 860.563 1603.44 869.34 C 1652.84 927.928 1601.03 992.784 1613.05 1016.56 C 1627.13 1027.41 1635.42 976.517 1653.91 990.752 C 1678.68 1009.83 1667.16 1038.22 1653.44 1060.58 C 1648.72 1066.69 1644.71 1073.02 1639.75 1078.95 C 1627.71 1093.34 1613.56 1105.69 1603.96 1121.97 C 1596.53 1134.4 1595.04 1154.6 1615.67 1150.53 C 1625.47 1148.59 1640.57 1141.98 1649.5 1147.71 C 1659.13 1153.89 1651.25 1169.5 1646.14 1175.97 C 1635.22 1189.84 1621.59 1201.15 1610.76 1214.78 C 1597.06 1213.36 1546.52 1209.91 1536.89 1216.83 C 1534.78 1216.06 1531.26 1216.63 1528.77 1216.81 C 1526.68 1213.32 1524.51 1209.85 1522.37 1206.39 C 1511.82 1187.61 1489.49 1147.37 1495 1125.55 C 1499.74 1106.78 1527.08 1120.96 1538.59 1114.97 C 1540.23 1112.55 1540.98 1111.68 1540.44 1108.58 C 1537.95 1094.27 1504.35 1043.39 1520.55 1032.12 C 1526.75 1030.6 1530.12 1032.86 1536.13 1035.35 L 1545.11 1039.01 z"/>
<path transform="translate(0,0)" fill="rgb(121,97,191)" d="M 1596.89 884.448 C 1609.24 888.569 1615.09 900.199 1604.78 910.209 C 1592.33 906.89 1587 894.093 1596.89 884.448 z"/>
<path transform="translate(0,0)" fill="rgb(121,97,191)" d="M 1510.87 1124.46 C 1521.59 1126.63 1525.62 1137.69 1518.21 1146.41 C 1507.56 1144.02 1502.49 1132.9 1510.87 1124.46 z"/>
<path transform="translate(0,0)" fill="rgb(121,97,191)" d="M 1588.93 911.705 C 1595.16 914.398 1596.67 917.029 1594.64 923.578 C 1590.62 923.393 1590.02 922.476 1587.73 919.591 C 1586.95 915.732 1587.26 915.485 1588.93 911.705 z"/>
<path transform="translate(0,0)" fill="rgb(121,97,191)" d="M 1611.86 918.659 C 1615.34 919.648 1615.15 919.605 1617.83 922.097 C 1619.45 925.806 1619.01 926.545 1618.35 930.757 C 1614.24 929.994 1614.2 929.855 1611.69 927.106 C 1610.61 923.193 1610.92 922.774 1611.86 918.659 z"/>
<path transform="translate(0,0)" fill="rgb(199,212,222)" d="M 1443.34 1009.57 C 1447.02 1052.42 1433.36 1094.95 1405.43 1127.64 C 1361.9 1179.59 1220.58 1285.58 1149.16 1254.58 C 1146.18 1233.9 1143.34 1213.21 1140.65 1192.49 C 1166.62 1199.75 1187.97 1201.94 1214.8 1199.63 C 1216.41 1201.54 1220.63 1208.3 1222.2 1210.72 L 1220.99 1198.82 C 1247.62 1196.26 1289.09 1183.04 1311.25 1167.8 C 1325.28 1171.48 1328.12 1164.73 1333.38 1153.21 C 1339.33 1150.66 1354.05 1138.2 1359.39 1133.34 C 1387.46 1107.85 1410.62 1077.43 1427.72 1043.59 C 1433.45 1032.28 1437.95 1020.96 1443.34 1009.57 z"/>
<path transform="translate(0,0)" fill="rgb(121,97,191)" d="M 1498.57 1096.08 C 1494.31 1079.56 1487.53 1062.72 1480.54 1043.23 C 1472.17 1019.93 1464.52 950.759 1512 971.245 C 1531.25 979.554 1540.23 1018.07 1545.11 1039.01 L 1536.13 1035.35 C 1530.12 1032.86 1526.75 1030.6 1520.55 1032.12 C 1504.35 1043.39 1537.95 1094.27 1540.44 1108.58 C 1540.98 1111.68 1540.23 1112.55 1538.59 1114.97 C 1527.08 1120.96 1499.74 1106.78 1495 1125.55 C 1489.49 1147.37 1511.82 1187.61 1522.37 1206.39 L 1513.57 1218.93 L 1508.85 1219.54 C 1506.31 1220.15 1502.66 1221.14 1500.19 1221.34 C 1498.54 1217.24 1489.41 1201.84 1486.64 1196.68 C 1473.88 1172.9 1464.65 1153.4 1458.93 1126.94 C 1457.27 1115.23 1456.3 1094.12 1470.43 1089.33 C 1479.82 1086.14 1490.24 1092.04 1498.57 1096.08 z"/>
<path transform="translate(0,0)" fill="rgb(239,151,89)" d="M 1498.57 1096.08 C 1494.31 1079.56 1487.53 1062.72 1480.54 1043.23 C 1472.17 1019.93 1464.52 950.759 1512 971.245 C 1531.25 979.554 1540.23 1018.07 1545.11 1039.01 L 1536.13 1035.35 C 1531.66 1016.09 1526.54 990.695 1508.82 978.839 C 1499.84 972.827 1489.29 973.743 1484.86 984.625 C 1476.58 1004.96 1485.58 1032.68 1491.88 1052.53 C 1495.98 1065.44 1507.28 1086.81 1505.23 1100.23 C 1505.09 1101.16 1503.74 1102.75 1502.5 1103.2 C 1493.81 1106.35 1474.62 1088.03 1468.6 1100.31 C 1461.6 1114.55 1468.9 1138.98 1474.53 1152.72 C 1482.6 1172.41 1496.88 1202.32 1508.85 1219.54 C 1506.31 1220.15 1502.66 1221.14 1500.19 1221.34 C 1498.54 1217.24 1489.41 1201.84 1486.64 1196.68 C 1473.88 1172.9 1464.65 1153.4 1458.93 1126.94 C 1457.27 1115.23 1456.3 1094.12 1470.43 1089.33 C 1479.82 1086.14 1490.24 1092.04 1498.57 1096.08 z"/>
<path transform="translate(0,0)" fill="rgb(68,112,152)" d="M 1115.33 980.27 C 1121.46 967.729 1126.37 955.631 1133.09 943.241 C 1153.58 905.451 1186.49 877.16 1227.45 863.149 C 1270.1 848.856 1316.68 852.141 1356.89 872.278 C 1396.55 892.321 1426.78 927.092 1441.13 969.148 C 1457.32 1018.02 1449.73 1075.27 1420.64 1117.05 C 1417.08 1122.17 1412.82 1127.14 1409.56 1132.02 C 1399.03 1139.85 1385.71 1157.65 1374.4 1166.94 C 1318.73 1212.69 1226.7 1280.14 1149.98 1260.92 L 1149.16 1254.58 C 1220.58 1285.58 1361.9 1179.59 1405.43 1127.64 C 1433.36 1094.95 1447.02 1052.42 1443.34 1009.57 C 1442.69 993.185 1436.99 972.4 1430.48 957.499 C 1413.06 917.563 1380.37 886.268 1339.71 870.603 C 1299.21 855.13 1254.22 856.394 1214.65 874.116 C 1161.05 898.297 1137.07 939.444 1117.34 991.331 C 1116.83 987.825 1115.98 983.804 1115.33 980.27 z"/>
<path transform="translate(0,0)" fill="rgb(176,140,152)" d="M 1070.04 404.338 C 1121.41 443.548 1165.95 510.532 1168.23 576.656 C 1164.59 574.247 1161.15 573.186 1157.08 571.648 C 1154.97 522.547 1127.72 469.231 1096.04 432.768 C 1089.72 425.495 1073.34 411.132 1070.04 404.338 z"/>
<path transform="translate(0,0)" fill="rgb(134,113,210)" d="M 1806.78 903.838 C 1808.61 932.938 1810.3 965.625 1808.43 994.528 C 1800.87 1111.72 1764.03 1251.32 1683.4 1340.78 C 1668.55 1357.26 1645.46 1380.95 1627.38 1393.11 L 1626.68 1391.6 L 1628.48 1382.25 C 1630.8 1369.38 1633.2 1356.53 1635.68 1343.7 C 1636.24 1340.47 1636.79 1337.24 1637.33 1334 L 1645.73 1290.28 L 1647.55 1281.33 C 1649.92 1269.68 1651.94 1257.97 1653.62 1246.2 C 1653.77 1243.28 1652.69 1239.09 1652.08 1236.11 C 1648.12 1227.79 1646.67 1227.08 1639.09 1222.36 C 1633.03 1217.53 1618.79 1216.09 1610.76 1214.78 C 1621.59 1201.15 1635.22 1189.84 1646.14 1175.97 C 1651.25 1169.5 1659.13 1153.89 1649.5 1147.71 C 1640.57 1141.98 1625.47 1148.59 1615.67 1150.53 C 1595.04 1154.6 1596.53 1134.4 1603.96 1121.97 C 1613.56 1105.69 1627.71 1093.34 1639.75 1078.95 C 1644.71 1073.02 1648.72 1066.69 1653.44 1060.58 C 1657.78 1062.66 1675.49 1049.24 1680.23 1045.97 C 1718.36 1019.39 1751.42 986.181 1777.83 947.924 C 1786.29 935.683 1797.68 915.227 1806.02 904.784 L 1806.78 903.838 z"/>
<path transform="translate(0,0)" fill="rgb(87,16,68)" d="M 1660.8 1427.32 C 1673.77 1427.89 1713.26 1426.07 1723.07 1427.93 C 1724.93 1430.12 1724.56 1432.18 1724.64 1435.16 C 1716.62 1435.18 1666.12 1435.83 1661.02 1434.46 C 1659.67 1431.72 1660.26 1430.37 1660.8 1427.32 z"/>
</svg>