<svg version="1.1" xmlns="http://www.w3.org/2000/svg" style="display: block;" viewBox="0 0 2048 2048" width="2000" height="2000" preserveAspectRatio="none">
<defs>
	<linearGradient id="Gradient1" gradientUnits="userSpaceOnUse" x1="1748.42" y1="929.074" x2="1686.75" y2="910.818">
		<stop class="stop0" offset="0" stop-opacity="1" stop-color="rgb(7,5,28)"/>
		<stop class="stop1" offset="1" stop-opacity="1" stop-color="rgb(25,25,90)"/>
	</linearGradient>
</defs>
<path transform="translate(0,0)" fill="rgb(0,0,0)" d="M 1011.38 533.085 C 1026.29 546.34 1047.68 553.278 1066.89 557.252 L 1067.99 587.133 C 1080.2 589.404 1097.42 591.913 1108.82 594.724 C 1139.71 602.343 1245.96 637.304 1266.81 656.474 L 1267.89 657.483 L 1269.33 659.091 C 1330.15 709.392 1364.26 782.627 1381.14 859.079 C 1381.45 860.501 1381.37 863.424 1381.36 865 C 1418.76 862.225 1455.66 860.183 1493.08 856.099 C 1511.84 853.914 1530.61 851.823 1549.39 849.826 C 1559.83 848.699 1570.73 846.938 1581.22 847.021 C 1586 847.059 1589.84 847.873 1593.49 851.154 C 1595.98 853.394 1598.02 858.928 1597.88 862.198 C 1597.39 873.357 1566.25 945.837 1559.96 961.871 C 1543.04 1005.84 1527.33 1050.26 1512.84 1095.08 C 1504.21 1121.44 1492.39 1171.35 1474.73 1191.84 C 1517.62 1192.07 1624.26 1200.64 1660.85 1219.42 C 1660.79 1207.82 1666.18 1190.97 1672.71 1181.14 C 1672.48 1179.69 1672.84 1170.28 1672.88 1168.21 C 1670.53 1165.2 1670.37 1163.72 1669.32 1160.09 C 1670.72 1154.75 1668.89 1150.92 1670.94 1146.25 C 1681.46 1145.89 1695.44 1147.05 1706.13 1148.06 L 1706.49 1148.67 C 1715.31 1149.39 1724.79 1149.97 1733.54 1150.9 C 1732.96 1153.9 1731.73 1157.48 1732.96 1159.96 C 1731.92 1166.74 1731.23 1169.57 1724 1171.74 C 1724.21 1175.63 1724.83 1183.1 1724.63 1186.71 C 1725.16 1198.52 1727.01 1260.84 1723.35 1270.8 C 1722.85 1281.49 1722.51 1292.64 1717.71 1302.36 C 1716.47 1337.99 1703.94 1363.19 1684.68 1392.93 C 1689.78 1392.93 1703.42 1392.66 1707.54 1393.78 C 1737.49 1394.06 1724.9 1440.79 1727.68 1460.35 C 1728.8 1468.26 1724.62 1477.58 1719.13 1483.59 C 1751.83 1484.7 1785.71 1482.66 1818.48 1483.38 C 1826.66 1483.55 1848.37 1482.85 1855.03 1484.97 C 1867.14 1492.22 1865.57 1507.24 1865.33 1519.99 C 1864.76 1550.01 1865.2 1553.86 1835.52 1554.87 C 1835.86 1570.96 1836.67 1593.05 1835.42 1609.05 C 1854.14 1609 1884 1607.89 1901.86 1610.2 C 1917.24 1612.2 1914.06 1649.23 1913.82 1660.03 C 1913.34 1686.44 1895.38 1680.24 1876.14 1680.93 C 1876.6 1696.97 1876.62 1713.03 1876.22 1729.07 L 1875.85 1739.08 C 1889.09 1739 1960.75 1737.48 1967.33 1740.81 C 1946.53 1743.23 1894.89 1741.46 1871.68 1741.43 L 1690.33 1741.6 C 1625.57 1742.56 1560.8 1742.99 1496.03 1742.9 C 1467.28 1742.91 1430.63 1741.85 1402.47 1742.98 C 1391.38 1757.25 1381.19 1767.6 1368.65 1780.57 C 1350.27 1768.63 1335.08 1757.24 1317.34 1744.92 C 1308.16 1752.62 1288.14 1768.32 1282.79 1778.28 C 1274.76 1776.09 1242.29 1791.54 1227.37 1777.2 C 1226.42 1776.53 1225.48 1775.84 1224.56 1775.14 C 1219.05 1770.98 1186.32 1733.64 1185.86 1730.28 C 1193.51 1720.3 1206.4 1704.06 1212.95 1693.91 C 1199.91 1682.86 1184.39 1670.34 1172.59 1658.26 C 1175.16 1655.13 1178.01 1652 1180.7 1648.95 L 1206.3 1616.58 C 1211.05 1608.65 1231.53 1584.09 1238.36 1575.35 C 1285.04 1515.43 1335.44 1458.5 1389.25 1404.9 L 1389.12 1401.47 C 1356.62 1433.9 1327.53 1466.52 1296.27 1499.9 C 1274.42 1500.33 1246.17 1498.43 1223.97 1497.59 C 1169.3 1495.52 1094.79 1493.84 1042.62 1477.6 C 1045.02 1471.18 1048.43 1461.83 1048.68 1455.05 C 1048.12 1450.63 1049.24 1434.77 1049.26 1428.81 C 1049.28 1419.56 1047.79 1407.57 1048.24 1399.08 L 1049.06 1398.76 C 1048.49 1378.47 1039.82 1346.16 1034.63 1326.21 L 1032.51 1326.21 C 1028.93 1317.12 1021.62 1284.96 1020.34 1275.22 C 1016.27 1274.92 1004.2 1275.96 999.649 1276.28 C 986.088 1277.2 974.36 1277.34 960.783 1275.98 C 926.774 1272.57 895.922 1260.35 863.136 1252.38 C 846.595 1248.36 825.316 1249.65 807.904 1246.71 C 797.982 1238.62 785.429 1225.41 774.809 1219.33 L 772.488 1217.02 C 764.393 1214.48 754.957 1209.12 745.634 1205.98 C 722.497 1198.21 698.779 1197.32 675.253 1204.15 C 668.655 1206.06 660.142 1210.87 653.475 1213.26 L 651.94 1213.8 C 567.037 1225.6 503.727 1183.69 500.711 1095.55 C 498.648 1035.25 516.677 989.731 531.824 933.813 C 532.759 931.515 534.138 926.447 534.927 923.872 C 537.467 913.297 544.863 894.155 548.867 883.601 C 571.156 824.844 598.457 769.018 636.762 719.027 L 638.632 717.072 C 652.093 699.704 675.17 675.206 694.043 664.298 C 699.04 660.07 722.451 646.734 728.59 643.14 C 779.144 613.549 836.144 595.928 893.521 585.403 C 909.155 582.536 925.661 581.576 941.574 578.643 C 945.644 583.233 950.231 587.612 954.607 591.935 C 961.286 600.135 974.824 613.277 982.697 621.025 C 999.992 638.045 1019.32 659.005 1037.88 674.296 C 1040.76 668.079 1046.55 659.056 1049.93 652.672 C 1060.59 632.498 1072.67 612.734 1083.22 592.524 C 1051.84 587.684 1020.91 570.057 1010.58 538.318 C 1009.57 535.568 1009.93 536.955 1011.38 533.085 z M 883.16 1197.54 C 888.45 1197 894.012 1197.57 899.358 1197.9 L 901.302 1184.82 C 904.907 1174.44 916.683 1125.05 917.446 1114.87 C 913.491 1112.65 894.586 1110.28 889 1109.43 C 886.556 1123.36 876.328 1186.19 880.7 1196.81 L 883.16 1197.54 z M 1523.81 1609.55 C 1539.1 1607.8 1562.42 1610.49 1576.3 1608.38 C 1581.27 1601.52 1579.68 1564.49 1577.97 1555.36 C 1573.37 1555.56 1568.84 1555.78 1564.23 1555.82 C 1551.16 1573.34 1533.92 1592.29 1522.37 1608.23 L 1523.81 1609.55 z M 1362.94 1205.51 C 1352.27 1203.55 1233.5 1214.07 1230.33 1218 C 1253.22 1218.98 1347.04 1221.04 1361.94 1208.89 L 1362.94 1205.51 z"/>
<path transform="translate(0,0)" fill="rgb(254,134,6)" d="M 1011.38 533.085 C 1026.29 546.34 1047.68 553.278 1066.89 557.252 L 1067.99 587.133 C 1080.2 589.404 1097.42 591.913 1108.82 594.724 C 1139.71 602.343 1245.96 637.304 1266.81 656.474 L 1267.89 657.483 L 1269.33 659.091 C 1330.15 709.392 1364.26 782.627 1381.14 859.079 C 1381.45 860.501 1381.37 863.424 1381.36 865 C 1336.96 868.037 1291.79 869.103 1247.1 871.971 L 1244.68 871.496 L 1243.77 871.614 C 1217 874.898 1161.39 866.343 1153.07 896.043 C 1134.3 963.01 1107.1 1030.03 1088.77 1096.79 C 1086.08 1106.05 1084.78 1122.41 1076.96 1127.57 C 1072.85 1130.27 1056.49 1129.16 1052.91 1126.51 L 1052.63 1125.71 C 1043.66 1117.72 938.31 1116.2 917.446 1114.87 C 913.491 1112.65 894.586 1110.28 889 1109.43 C 886.556 1123.36 876.328 1186.19 880.7 1196.81 L 883.16 1197.54 L 881.465 1199.14 C 879.7 1202.2 880.052 1214.54 879.968 1218.99 C 850.752 1217.55 821.4 1218.57 792.161 1218.69 C 786.371 1218.71 780.568 1218.66 774.809 1219.33 L 772.488 1217.02 C 764.393 1214.48 754.957 1209.12 745.634 1205.98 C 722.497 1198.21 698.779 1197.32 675.253 1204.15 C 668.655 1206.06 660.142 1210.87 653.475 1213.26 L 651.94 1213.8 C 567.037 1225.6 503.727 1183.69 500.711 1095.55 C 498.648 1035.25 516.677 989.731 531.824 933.813 C 532.759 931.515 534.138 926.447 534.927 923.872 C 537.467 913.297 544.863 894.155 548.867 883.601 C 571.156 824.844 598.457 769.018 636.762 719.027 L 638.632 717.072 C 652.093 699.704 675.17 675.206 694.043 664.298 C 699.04 660.07 722.451 646.734 728.59 643.14 C 779.144 613.549 836.144 595.928 893.521 585.403 C 909.155 582.536 925.661 581.576 941.574 578.643 C 945.644 583.233 950.231 587.612 954.607 591.935 C 961.286 600.135 974.824 613.277 982.697 621.025 C 999.992 638.045 1019.32 659.005 1037.88 674.296 C 1040.76 668.079 1046.55 659.056 1049.93 652.672 C 1060.59 632.498 1072.67 612.734 1083.22 592.524 C 1051.84 587.684 1020.91 570.057 1010.58 538.318 C 1009.57 535.568 1009.93 536.955 1011.38 533.085 z"/>
<path transform="translate(0,0)" fill="rgb(254,134,6)" d="M 1011.38 533.085 C 1026.29 546.34 1047.68 553.278 1066.89 557.252 L 1067.99 587.133 C 1080.2 589.404 1097.42 591.913 1108.82 594.724 C 1139.71 602.343 1245.96 637.304 1266.81 656.474 L 1267.89 657.483 L 1269.33 659.091 C 1330.15 709.392 1364.26 782.627 1381.14 859.079 C 1381.45 860.501 1381.37 863.424 1381.36 865 C 1336.96 868.037 1291.79 869.103 1247.1 871.971 L 1244.68 871.496 L 1243.77 871.614 C 1217 874.898 1161.39 866.343 1153.07 896.043 C 1134.3 963.01 1107.1 1030.03 1088.77 1096.79 C 1086.58 1091.65 1086.69 1084.22 1087.03 1078.61 C 1088.47 1054.49 1092.65 1030.22 1095.52 1006.22 C 1098.58 980.681 1100.49 955.398 1105.16 930.064 C 1116.49 906.958 1096.61 907.959 1080.92 907.854 L 1080.02 906.47 C 1080.47 897.335 1076.5 871.479 1075.18 861.57 C 1071.13 830.679 1066.25 799.648 1062.1 768.807 C 1060.54 757.259 1048.77 700.423 1056.19 693.05 L 1058.58 693.938 L 1060.09 693.117 C 1054.53 689.046 1043.36 681.396 1039.08 676.711 L 1037.88 674.296 C 1040.76 668.079 1046.55 659.056 1049.93 652.672 C 1060.59 632.498 1072.67 612.734 1083.22 592.524 C 1051.84 587.684 1020.91 570.057 1010.58 538.318 C 1009.57 535.568 1009.93 536.955 1011.38 533.085 z"/>
<path transform="translate(0,0)" fill="rgb(254,134,6)" d="M 1247.1 871.971 C 1247.25 858.489 1252.95 823.386 1254.54 806.674 C 1257.54 772.694 1260.77 738.733 1264.21 704.794 C 1265.71 690.349 1267.08 673.303 1269.33 659.091 C 1330.15 709.392 1364.26 782.627 1381.14 859.079 C 1381.45 860.501 1381.37 863.424 1381.36 865 C 1336.96 868.037 1291.79 869.103 1247.1 871.971 z"/>
<path transform="translate(0,0)" fill="rgb(249,249,248)" d="M 1086.24 592.227 C 1102.36 595.134 1118.25 599.232 1133.77 604.487 C 1123.42 645.977 1115.1 688.419 1105.11 730.169 C 1092.73 718.164 1074.11 703.614 1060.09 693.117 C 1054.53 689.046 1043.36 681.396 1039.08 676.711 C 1055.2 648.587 1069.88 620.434 1086.24 592.227 z"/>
<path transform="translate(0,0)" fill="rgb(59,31,21)" d="M 1011.38 533.085 C 1026.29 546.34 1047.68 553.278 1066.89 557.252 L 1067.99 587.133 C 1080.2 589.404 1097.42 591.913 1108.82 594.724 C 1139.71 602.343 1245.96 637.304 1266.81 656.474 C 1252.89 651.687 1237.25 640.923 1223.53 635.667 C 1196.04 625.133 1164.71 613.585 1136.53 604.987 C 1125.47 646.462 1118.11 694.709 1106.63 734.723 C 1097.91 724.875 1070.21 702.97 1058.58 693.938 L 1060.09 693.117 C 1074.11 703.614 1092.73 718.164 1105.11 730.169 C 1115.1 688.419 1123.42 645.977 1133.77 604.487 C 1118.25 599.232 1102.36 595.134 1086.24 592.227 C 1069.88 620.434 1055.2 648.587 1039.08 676.711 L 1037.88 674.296 C 1040.76 668.079 1046.55 659.056 1049.93 652.672 C 1060.59 632.498 1072.67 612.734 1083.22 592.524 C 1051.84 587.684 1020.91 570.057 1010.58 538.318 C 1009.57 535.568 1009.93 536.955 1011.38 533.085 z"/>
<path transform="translate(0,0)" fill="rgb(239,163,120)" d="M 1011.38 533.085 C 1026.29 546.34 1047.68 553.278 1066.89 557.252 L 1067.99 587.133 C 1047.62 580.628 1031.69 569.699 1019.66 551.626 C 1016.78 547.306 1014.17 540.331 1010.58 538.318 C 1009.57 535.568 1009.93 536.955 1011.38 533.085 z"/>
<path transform="translate(0,0)" fill="rgb(75,36,5)" d="M 1267.89 657.483 L 1269.33 659.091 C 1267.08 673.303 1265.71 690.349 1264.21 704.794 C 1260.77 738.733 1257.54 772.694 1254.54 806.674 C 1252.95 823.386 1247.25 858.489 1247.1 871.971 L 1244.68 871.496 C 1250.16 828.782 1254.86 785.973 1258.79 743.089 C 1261.68 713.345 1263.61 687.326 1267.89 657.483 z"/>
<path transform="translate(0,0)" fill="rgb(253,199,166)" d="M 531.824 933.813 C 571.727 947.043 612.338 965.476 651.437 981.142 C 653.812 982.093 657.433 981.485 659.731 980.752 C 674.627 990.705 690.01 998.157 704.067 1009.27 C 702.734 1016.35 701.462 1024.48 697.723 1030.7 C 686.277 1026.96 661.811 1017 652.916 1014.86 C 656.29 1023.85 860.982 1088.26 888.654 1095.38 C 881.453 1134.5 876.616 1176.19 876.941 1216 L 811.608 1216.03 C 800.268 1216.08 783.349 1215.76 772.488 1217.02 C 764.393 1214.48 754.957 1209.12 745.634 1205.98 C 722.497 1198.21 698.779 1197.32 675.253 1204.15 C 668.655 1206.06 660.142 1210.87 653.475 1213.26 L 651.94 1213.8 C 567.037 1225.6 503.727 1183.69 500.711 1095.55 C 498.648 1035.25 516.677 989.731 531.824 933.813 z"/>
<path transform="translate(0,0)" fill="rgb(252,177,5)" d="M 906.829 904.972 L 1023.51 905.183 C 1037.7 905.3 1066.7 904.919 1080.02 906.47 L 1080.92 907.854 C 1096.61 907.959 1116.49 906.958 1105.16 930.064 C 1100.49 955.398 1098.58 980.681 1095.52 1006.22 C 1092.65 1030.22 1088.47 1054.49 1087.03 1078.61 C 1086.69 1084.22 1086.58 1091.65 1088.77 1096.79 C 1086.08 1106.05 1084.78 1122.41 1076.96 1127.57 C 1072.85 1130.27 1056.49 1129.16 1052.91 1126.51 L 1052.63 1125.71 C 1043.66 1117.72 938.31 1116.2 917.446 1114.87 C 913.491 1112.65 894.586 1110.28 889 1109.43 C 888.751 1104.41 889.622 1098.53 890.169 1093.45 C 893.346 1067.16 868.723 940 872.112 931.527 L 877.274 930.214 C 874.843 930.207 868.518 930.586 867.086 928.552 C 853.189 908.805 872.399 906.082 887.697 906.942 C 893.05 907.244 901.563 907.058 906.987 907.108 L 906.829 904.972 z"/>
<path transform="translate(0,0)" fill="rgb(0,0,0)" d="M 906.829 904.972 L 1023.51 905.183 C 1037.7 905.3 1066.7 904.919 1080.02 906.47 L 1080.92 907.854 C 1096.61 907.959 1116.49 906.958 1105.16 930.064 C 1054.63 929.704 1004.09 929.673 953.56 929.97 C 928.183 930.047 902.62 929.535 877.274 930.214 C 874.843 930.207 868.518 930.586 867.086 928.552 C 853.189 908.805 872.399 906.082 887.697 906.942 C 893.05 907.244 901.563 907.058 906.987 907.108 L 906.829 904.972 z"/>
<path transform="translate(0,0)" fill="rgb(216,199,189)" d="M 906.829 904.972 L 1023.51 905.183 C 1037.7 905.3 1066.7 904.919 1080.02 906.47 L 1080.92 907.854 C 1022.94 908.075 964.961 907.827 906.987 907.108 L 906.829 904.972 z"/>
<path transform="translate(0,0)" fill="rgb(0,0,0)" d="M 1037.88 674.296 L 1039.08 676.711 C 1043.36 681.396 1054.53 689.046 1060.09 693.117 L 1058.58 693.938 L 1056.19 693.05 C 1048.77 700.423 1060.54 757.259 1062.1 768.807 C 1066.25 799.648 1071.13 830.679 1075.18 861.57 C 1076.5 871.479 1080.47 897.335 1080.02 906.47 C 1066.7 904.919 1037.7 905.3 1023.51 905.183 L 906.829 904.972 C 906.815 901.317 906.579 900.338 908.109 896.951 C 913.147 892.75 995.148 893.916 1007.94 893.981 L 1008.32 892.127 C 1009.44 887.239 1010.86 864.115 1011.37 857.485 C 1013.5 831.063 1015.38 804.622 1017.03 778.166 C 1018.17 760.399 1025.17 710.86 1019 697.717 L 1017.4 697.477 C 1013.34 699.316 1010.33 702.993 1007.11 706.258 L 1005.94 704.828 C 1016.13 696.032 1026.16 685.64 1036.94 676.35 L 1037.88 674.296 z"/>
<path transform="translate(0,0)" fill="rgb(216,199,189)" d="M 1008.32 892.127 C 1012.61 892.007 1016.32 891.46 1020.21 893.039 C 1016.91 894.932 1011.92 894.196 1007.94 893.981 L 1008.32 892.127 z"/>
<path transform="translate(0,0)" fill="rgb(249,249,248)" d="M 940.882 580.921 C 950.307 591.748 964.045 604.21 974.264 614.871 C 994.432 635.91 1014.84 657.356 1036.94 676.35 C 1026.16 685.64 1016.13 696.032 1005.94 704.828 C 996.77 713.378 987.881 722.228 979.291 731.363 C 959.8 698.252 937.277 665.085 917.037 632.281 C 907.979 617.6 897.056 603.593 888.591 588.405 C 905.916 586.175 923.748 584.123 940.882 580.921 z"/>
<path transform="translate(0,0)" fill="rgb(59,31,21)" d="M 713.031 1036.33 C 726.981 994.691 740.335 952.849 753.089 910.823 C 771.096 851.679 798.998 777.782 770.479 717.982 C 762.078 700.368 748.393 684.096 730.044 676.612 C 725.917 674.909 717.311 674.026 714.421 671.53 C 721.586 669.859 733.878 675.864 740.124 679.691 C 772.552 699.612 786.094 741.511 785.2 777.856 C 784.259 816.137 772.1 853.071 761.682 889.558 C 747.496 939.24 730.109 987.963 715.191 1037.38 C 762.736 1055.21 812.453 1069.5 860.756 1085.21 C 870.255 1088.3 880.477 1091.1 890.169 1093.45 C 889.622 1098.53 888.751 1104.41 889 1109.43 C 886.556 1123.36 876.328 1186.19 880.7 1196.81 L 883.16 1197.54 L 881.465 1199.14 C 879.7 1202.2 880.052 1214.54 879.968 1218.99 C 850.752 1217.55 821.4 1218.57 792.161 1218.69 C 786.371 1218.71 780.568 1218.66 774.809 1219.33 L 772.488 1217.02 C 783.349 1215.76 800.268 1216.08 811.608 1216.03 L 876.941 1216 C 876.616 1176.19 881.453 1134.5 888.654 1095.38 C 860.982 1088.26 656.29 1023.85 652.916 1014.86 C 661.811 1017 686.277 1026.96 697.723 1030.7 L 713.031 1036.33 z"/>
<path transform="translate(0,0)" fill="rgb(59,31,21)" d="M 694.043 664.298 C 699.04 660.07 722.451 646.734 728.59 643.14 C 779.144 613.549 836.144 595.928 893.521 585.403 C 909.155 582.536 925.661 581.576 941.574 578.643 C 945.644 583.233 950.231 587.612 954.607 591.935 C 961.286 600.135 974.824 613.277 982.697 621.025 C 999.992 638.045 1019.32 659.005 1037.88 674.296 L 1036.94 676.35 C 1014.84 657.356 994.432 635.91 974.264 614.871 C 964.045 604.21 950.307 591.748 940.882 580.921 C 923.748 584.123 905.916 586.175 888.591 588.405 C 897.056 603.593 907.979 617.6 917.037 632.281 C 937.277 665.085 959.8 698.252 979.291 731.363 C 987.881 722.228 996.77 713.378 1005.94 704.828 L 1007.11 706.258 C 997 715.973 988.38 724.222 979.085 734.687 C 948.829 684.994 917.217 637.839 886.517 588.868 C 840.521 599.505 804.962 608.177 761.814 628.377 C 747.179 635.228 704.078 661.487 694.043 664.298 z"/>
<path transform="translate(0,0)" fill="rgb(239,163,120)" d="M 534.927 923.872 C 546.095 928.592 562.301 932.974 571.532 936.99 C 593.989 946.76 641.643 966.597 659.731 980.752 C 657.433 981.485 653.812 982.093 651.437 981.142 C 612.338 965.476 571.727 947.043 531.824 933.813 C 532.759 931.515 534.138 926.447 534.927 923.872 z"/>
<path transform="translate(0,0)" fill="rgb(249,249,248)" d="M 1707.54 1393.78 C 1737.49 1394.06 1724.9 1440.79 1727.68 1460.35 C 1728.8 1468.26 1724.62 1477.58 1719.13 1483.59 C 1751.83 1484.7 1785.71 1482.66 1818.48 1483.38 C 1826.66 1483.55 1848.37 1482.85 1855.03 1484.97 C 1867.14 1492.22 1865.57 1507.24 1865.33 1519.99 C 1864.76 1550.01 1865.2 1553.86 1835.52 1554.87 C 1835.86 1570.96 1836.67 1593.05 1835.42 1609.05 C 1854.14 1609 1884 1607.89 1901.86 1610.2 C 1917.24 1612.2 1914.06 1649.23 1913.82 1660.03 C 1913.34 1686.44 1895.38 1680.24 1876.14 1680.93 C 1876.6 1696.97 1876.62 1713.03 1876.22 1729.07 L 1875.85 1739.08 C 1889.09 1739 1960.75 1737.48 1967.33 1740.81 C 1946.53 1743.23 1894.89 1741.46 1871.68 1741.43 L 1690.33 1741.6 C 1694.32 1741.51 1695.84 1742.17 1698.72 1740.37 C 1687.73 1740.11 1656.42 1742.88 1649.77 1737.37 C 1644.59 1722.94 1645.11 1696.72 1649.38 1682.2 L 1652.42 1681.38 L 1651.34 1680.03 C 1641.16 1676.17 1480.82 1677.63 1460.96 1678.83 C 1479.91 1656.34 1500.7 1635.02 1519.12 1611.98 C 1520.18 1610.66 1522.26 1610.02 1523.81 1609.55 C 1539.1 1607.8 1562.42 1610.49 1576.3 1608.38 C 1581.27 1601.52 1579.68 1564.49 1577.97 1555.36 C 1574.75 1554.84 1568.51 1554.83 1565.01 1554.71 C 1580.79 1531.92 1601.26 1510.13 1617.7 1487.47 C 1619.04 1485.63 1624.97 1485.97 1627.26 1485.92 C 1629.03 1484.89 1628.37 1485.6 1629.29 1483.84 C 1626.04 1483.15 1624.1 1483.02 1620.85 1482.77 C 1630.58 1468.87 1641.71 1455.21 1651.64 1441.36 C 1662.63 1426.02 1673.26 1410.51 1683.89 1394.91 L 1707.82 1394.54 L 1707.54 1393.78 z"/>
<path transform="translate(0,0)" fill="rgb(20,21,80)" d="M 1627.26 1485.92 C 1644.79 1485.06 1674.05 1482.45 1690.79 1486.79 C 1680.66 1498.99 1675.67 1546.07 1690.7 1552.55 L 1689.19 1555.02 C 1655.01 1555 1614.26 1554.06 1580.65 1555.57 C 1581.06 1570.25 1581.93 1594.29 1580.17 1608.6 C 1620.69 1609.1 1661.15 1608.5 1701.7 1608.86 L 1703.46 1613.15 C 1690.72 1621.88 1693.82 1636.96 1693.46 1650.94 C 1693.23 1659.93 1693.53 1669.97 1699.05 1677.34 L 1698.44 1681.43 C 1690.6 1681.47 1658.34 1682.2 1652.42 1681.38 L 1651.34 1680.03 C 1641.16 1676.17 1480.82 1677.63 1460.96 1678.83 C 1479.91 1656.34 1500.7 1635.02 1519.12 1611.98 C 1520.18 1610.66 1522.26 1610.02 1523.81 1609.55 C 1539.1 1607.8 1562.42 1610.49 1576.3 1608.38 C 1581.27 1601.52 1579.68 1564.49 1577.97 1555.36 C 1574.75 1554.84 1568.51 1554.83 1565.01 1554.71 C 1580.79 1531.92 1601.26 1510.13 1617.7 1487.47 C 1619.04 1485.63 1624.97 1485.97 1627.26 1485.92 z"/>
<path transform="translate(0,0)" fill="rgb(252,177,5)" d="M 1621.91 1508.18 C 1627.94 1507.78 1633.81 1506.91 1637.73 1512.19 C 1640.01 1521.13 1630.14 1527.14 1623 1529.8 C 1599.6 1526.61 1597.22 1513.78 1621.91 1508.18 z"/>
<path transform="translate(0,0)" fill="rgb(249,249,248)" d="M 1707.54 1393.78 C 1737.49 1394.06 1724.9 1440.79 1727.68 1460.35 C 1728.8 1468.26 1724.62 1477.58 1719.13 1483.59 C 1751.83 1484.7 1785.71 1482.66 1818.48 1483.38 C 1826.66 1483.55 1848.37 1482.85 1855.03 1484.97 L 1853.99 1486.09 C 1866.2 1494.4 1863.14 1504.56 1863.03 1517.99 C 1862.94 1528.83 1866.04 1550.05 1851.06 1551.72 C 1836.5 1553.51 1821.42 1552.83 1806.78 1552.78 L 1723.21 1552.6 C 1714.29 1552.64 1699.12 1552.08 1690.7 1552.55 C 1675.67 1546.07 1680.66 1498.99 1690.79 1486.79 C 1674.05 1482.45 1644.79 1485.06 1627.26 1485.92 C 1629.03 1484.89 1628.37 1485.6 1629.29 1483.84 C 1626.04 1483.15 1624.1 1483.02 1620.85 1482.77 C 1630.58 1468.87 1641.71 1455.21 1651.64 1441.36 C 1662.63 1426.02 1673.26 1410.51 1683.89 1394.91 L 1707.82 1394.54 L 1707.54 1393.78 z"/>
<path transform="translate(0,0)" fill="rgb(173,167,228)" d="M 1707.54 1393.78 C 1737.49 1394.06 1724.9 1440.79 1727.68 1460.35 C 1728.8 1468.26 1724.62 1477.58 1719.13 1483.59 C 1751.83 1484.7 1785.71 1482.66 1818.48 1483.38 C 1826.66 1483.55 1848.37 1482.85 1855.03 1484.97 L 1853.99 1486.09 C 1822.42 1483.18 1779.43 1486.72 1746.73 1485.7 C 1739.6 1485.48 1695.28 1485.78 1690.79 1486.79 C 1674.05 1482.45 1644.79 1485.06 1627.26 1485.92 C 1629.03 1484.89 1628.37 1485.6 1629.29 1483.84 C 1626.04 1483.15 1624.1 1483.02 1620.85 1482.77 C 1630.58 1468.87 1641.71 1455.21 1651.64 1441.36 C 1662.63 1426.02 1673.26 1410.51 1683.89 1394.91 L 1707.82 1394.54 L 1707.54 1393.78 z"/>
<path transform="translate(0,0)" fill="rgb(30,29,41)" d="M 1707.54 1393.78 C 1737.49 1394.06 1724.9 1440.79 1727.68 1460.35 C 1728.8 1468.26 1724.62 1477.58 1719.13 1483.59 C 1751.83 1484.7 1785.71 1482.66 1818.48 1483.38 C 1826.66 1483.55 1848.37 1482.85 1855.03 1484.97 L 1853.99 1486.09 C 1822.42 1483.18 1779.43 1486.72 1746.73 1485.7 C 1739.6 1485.48 1695.28 1485.78 1690.79 1486.79 C 1674.05 1482.45 1644.79 1485.06 1627.26 1485.92 C 1629.03 1484.89 1628.37 1485.6 1629.29 1483.84 C 1626.04 1483.15 1624.1 1483.02 1620.85 1482.77 C 1627.73 1481.65 1639.92 1481.98 1647.15 1481.85 C 1670.21 1481.45 1693.25 1483.29 1716.3 1482.95 C 1720.63 1479.16 1721.39 1478.2 1724.73 1473.48 C 1727.85 1456.51 1725.26 1430.03 1724.89 1412.33 C 1724.68 1401.88 1717.95 1395.66 1707.82 1394.54 L 1707.54 1393.78 z"/>
<path transform="translate(0,0)" fill="rgb(252,177,5)" d="M 1698.44 1681.43 L 1874.43 1681 C 1875.25 1697.63 1875.12 1714.28 1874.03 1730.89 L 1876.22 1729.07 L 1875.85 1739.08 C 1889.09 1739 1960.75 1737.48 1967.33 1740.81 C 1946.53 1743.23 1894.89 1741.46 1871.68 1741.43 L 1690.33 1741.6 C 1694.32 1741.51 1695.84 1742.17 1698.72 1740.37 C 1687.73 1740.11 1656.42 1742.88 1649.77 1737.37 C 1644.59 1722.94 1645.11 1696.72 1649.38 1682.2 L 1652.42 1681.38 C 1658.34 1682.2 1690.6 1681.47 1698.44 1681.43 z"/>
<path transform="translate(0,0)" fill="rgb(0,0,0)" d="M 1876.22 1729.07 L 1875.85 1739.08 C 1889.09 1739 1960.75 1737.48 1967.33 1740.81 C 1946.53 1743.23 1894.89 1741.46 1871.68 1741.43 L 1690.33 1741.6 C 1694.32 1741.51 1695.84 1742.17 1698.72 1740.37 C 1718.4 1739.77 1863.77 1741.73 1872.15 1738.52 C 1874.04 1736.04 1873.81 1734.05 1874.03 1730.89 L 1876.22 1729.07 z"/>
<path transform="translate(0,0)" fill="rgb(252,177,5)" d="M 1689.19 1555.02 L 1834.04 1555.06 C 1834.05 1571.4 1834.64 1592.82 1833.42 1608.74 C 1789.51 1609.12 1745.6 1609.16 1701.7 1608.86 C 1661.15 1608.5 1620.69 1609.1 1580.17 1608.6 C 1581.93 1594.29 1581.06 1570.25 1580.65 1555.57 C 1614.26 1554.06 1655.01 1555 1689.19 1555.02 z"/>
<path transform="translate(0,0)" fill="rgb(75,36,5)" d="M 1855.03 1484.97 C 1867.14 1492.22 1865.57 1507.24 1865.33 1519.99 C 1864.76 1550.01 1865.2 1553.86 1835.52 1554.87 C 1835.86 1570.96 1836.67 1593.05 1835.42 1609.05 C 1854.14 1609 1884 1607.89 1901.86 1610.2 C 1917.24 1612.2 1914.06 1649.23 1913.82 1660.03 C 1913.34 1686.44 1895.38 1680.24 1876.14 1680.93 C 1876.6 1696.97 1876.62 1713.03 1876.22 1729.07 L 1874.03 1730.89 C 1875.12 1714.28 1875.25 1697.63 1874.43 1681 L 1698.44 1681.43 L 1699.05 1677.34 C 1709.74 1680.93 1798.99 1678.71 1815.59 1678.74 L 1868.6 1678.88 C 1903.58 1678.97 1914.43 1686.17 1911.93 1644.03 C 1911.54 1637.43 1913.67 1618.6 1906.31 1614.43 C 1903.28 1612.72 1893.09 1611.42 1889.17 1611.36 C 1857.1 1610.8 1824.93 1611.3 1792.84 1611.24 C 1775.88 1611.44 1715.17 1610.08 1703.46 1613.15 L 1701.7 1608.86 C 1745.6 1609.16 1789.51 1609.12 1833.42 1608.74 C 1834.64 1592.82 1834.05 1571.4 1834.04 1555.06 L 1689.19 1555.02 L 1690.7 1552.55 C 1699.12 1552.08 1714.29 1552.64 1723.21 1552.6 L 1806.78 1552.78 C 1821.42 1552.83 1836.5 1553.51 1851.06 1551.72 C 1866.04 1550.05 1862.94 1528.83 1863.03 1517.99 C 1863.14 1504.56 1866.2 1494.4 1853.99 1486.09 L 1855.03 1484.97 z"/>
<path transform="translate(0,0)" fill="rgb(20,21,80)" d="M 1206.3 1616.58 C 1263.71 1652.47 1319.08 1692.48 1378.4 1725.46 C 1384.9 1729.08 1398.36 1735.75 1402.32 1741.14 L 1402.47 1742.98 C 1391.38 1757.25 1381.19 1767.6 1368.65 1780.57 C 1350.27 1768.63 1335.08 1757.24 1317.34 1744.92 C 1308.16 1752.62 1288.14 1768.32 1282.79 1778.28 C 1274.76 1776.09 1242.29 1791.54 1227.37 1777.2 C 1226.42 1776.53 1225.48 1775.84 1224.56 1775.14 C 1219.05 1770.98 1186.32 1733.64 1185.86 1730.28 C 1193.51 1720.3 1206.4 1704.06 1212.95 1693.91 C 1199.91 1682.86 1184.39 1670.34 1172.59 1658.26 C 1175.16 1655.13 1178.01 1652 1180.7 1648.95 L 1206.3 1616.58 z"/>
<path transform="translate(0,0)" fill="rgb(253,199,166)" d="M 1222.83 1676.88 C 1251.08 1698.42 1289.53 1721.68 1315.71 1743.44 C 1284.58 1769.41 1271.19 1788.37 1227.37 1777.2 C 1226.42 1776.53 1225.48 1775.84 1224.56 1775.14 C 1219.05 1770.98 1186.32 1733.64 1185.86 1730.28 C 1193.51 1720.3 1206.4 1704.06 1212.95 1693.91 L 1222.83 1676.88 z"/>
<path transform="translate(0,0)" fill="rgb(0,0,0)" d="M 1180.7 1648.95 C 1188.42 1652.94 1217.68 1669.98 1222.8 1675.75 L 1222.83 1676.88 L 1212.95 1693.91 C 1199.91 1682.86 1184.39 1670.34 1172.59 1658.26 C 1175.16 1655.13 1178.01 1652 1180.7 1648.95 z"/>
<path transform="translate(0,0)" fill="rgb(252,115,2)" d="M 881.465 1199.14 C 904.353 1198.88 924.667 1206.49 947.291 1210.5 C 981.771 1216.62 1022.62 1228.95 1056.09 1235.63 C 1066.56 1237.72 1113.86 1229.55 1126.74 1227.9 C 1159.57 1223.72 1192.45 1219.94 1225.37 1216.58 C 1208.93 1227.27 1190.87 1233.29 1172.69 1240.04 C 1121.79 1258.96 1075.17 1268.19 1021.48 1274.89 L 1020.34 1275.22 C 1016.27 1274.92 1004.2 1275.96 999.649 1276.28 C 986.088 1277.2 974.36 1277.34 960.783 1275.98 C 926.774 1272.57 895.922 1260.35 863.136 1252.38 C 846.595 1248.36 825.316 1249.65 807.904 1246.71 C 797.982 1238.62 785.429 1225.41 774.809 1219.33 C 780.568 1218.66 786.371 1218.71 792.161 1218.69 C 821.4 1218.57 850.752 1217.55 879.968 1218.99 C 880.052 1214.54 879.7 1202.2 881.465 1199.14 z"/>
<path transform="translate(0,0)" fill="rgb(20,21,80)" d="M 1456.72 1681.98 C 1512.02 1683.23 1567.9 1681.06 1623.26 1681.71 C 1631.83 1681.81 1640.92 1681.32 1649.38 1682.2 C 1645.11 1696.72 1644.59 1722.94 1649.77 1737.37 C 1656.42 1742.88 1687.73 1740.11 1698.72 1740.37 C 1695.84 1742.17 1694.32 1741.51 1690.33 1741.6 C 1625.57 1742.56 1560.8 1742.99 1496.03 1742.9 C 1467.28 1742.91 1430.63 1741.85 1402.47 1742.98 L 1402.32 1741.14 C 1406.8 1739.63 1405.5 1741.02 1407.25 1737.78 C 1422.14 1718.62 1440.01 1699.74 1456.72 1681.98 z"/>
<path transform="translate(0,0)" fill="rgb(30,29,41)" d="M 1407.25 1737.78 C 1434.22 1736.33 1463.1 1736.89 1490.27 1736.98 C 1525.67 1737.18 1561.07 1737.14 1596.48 1736.88 C 1608.72 1736.84 1640.68 1738.99 1649.77 1737.37 C 1656.42 1742.88 1687.73 1740.11 1698.72 1740.37 C 1695.84 1742.17 1694.32 1741.51 1690.33 1741.6 C 1625.57 1742.56 1560.8 1742.99 1496.03 1742.9 C 1467.28 1742.91 1430.63 1741.85 1402.47 1742.98 L 1402.32 1741.14 C 1406.8 1739.63 1405.5 1741.02 1407.25 1737.78 z"/>
<path transform="translate(0,0)" fill="rgb(253,199,166)" d="M 917.446 1114.87 C 938.31 1116.2 1043.66 1117.72 1052.63 1125.71 L 1052.91 1126.51 L 1048.77 1127.27 L 1048.24 1128.18 C 1057.53 1132.4 1079.15 1133.93 1073.48 1149.94 C 1070.83 1157.42 1051.23 1152.89 1044.52 1152.76 C 1046.05 1153.95 1046.01 1153.93 1047.48 1155.41 C 1047.52 1157.86 1047.67 1158.1 1046.98 1160.4 C 1052.36 1162.55 1061.3 1164.54 1059.66 1171.64 C 1053.08 1177.49 1047.35 1175.67 1039.21 1174.81 C 1045.39 1177.34 1063.69 1183.89 1060.29 1192.87 C 1048.89 1200.62 1015.45 1193.15 1001.1 1192.13 C 968.016 1189.78 934.502 1184.71 901.302 1184.82 C 904.907 1174.44 916.683 1125.05 917.446 1114.87 z"/>
<path transform="translate(0,0)" fill="rgb(0,0,0)" d="M 1009.05 1150.07 C 1018.61 1149.8 1035.29 1150.71 1044.52 1152.76 C 1046.05 1153.95 1046.01 1153.93 1047.48 1155.41 C 1047.52 1157.86 1047.67 1158.1 1046.98 1160.4 C 1035.31 1156.72 1021.03 1153.27 1009.05 1150.07 z"/>
<path transform="translate(0,0)" fill="rgb(252,177,5)" d="M 1670.94 1146.25 C 1681.46 1145.89 1695.44 1147.05 1706.13 1148.06 L 1706.49 1148.67 C 1715.31 1149.39 1724.79 1149.97 1733.54 1150.9 C 1732.96 1153.9 1731.73 1157.48 1732.96 1159.96 C 1731.92 1166.74 1731.23 1169.57 1724 1171.74 C 1724.21 1175.63 1724.83 1183.1 1724.63 1186.71 C 1725.16 1198.52 1727.01 1260.84 1723.35 1270.8 C 1722.85 1281.49 1722.51 1292.64 1717.71 1302.36 C 1716.11 1292.1 1714.83 1286.06 1711.51 1276.31 C 1707.5 1266.54 1703.65 1259.86 1697.88 1251.12 C 1687.48 1238.54 1682.13 1232.68 1668.67 1223.8 L 1660.85 1219.42 C 1660.79 1207.82 1666.18 1190.97 1672.71 1181.14 C 1672.48 1179.69 1672.84 1170.28 1672.88 1168.21 C 1670.53 1165.2 1670.37 1163.72 1669.32 1160.09 C 1670.72 1154.75 1668.89 1150.92 1670.94 1146.25 z"/>
<path transform="translate(0,0)" fill="rgb(252,115,2)" d="M 1670.94 1146.25 C 1681.46 1145.89 1695.44 1147.05 1706.13 1148.06 L 1706.49 1148.67 C 1715.31 1149.39 1724.79 1149.97 1733.54 1150.9 C 1732.96 1153.9 1731.73 1157.48 1732.96 1159.96 C 1731.92 1166.74 1731.23 1169.57 1724 1171.74 C 1724.21 1175.63 1724.83 1183.1 1724.63 1186.71 L 1723.39 1185.34 L 1719.85 1185.55 C 1716.24 1186.02 1711.06 1186.07 1707.3 1186.23 C 1702.51 1186.04 1703 1186.77 1699.48 1184.58 C 1697.65 1181.22 1698.7 1175.26 1699 1171.13 L 1693.79 1170.73 L 1693.84 1169.91 C 1686.34 1169.05 1680.42 1168.54 1672.88 1168.21 C 1670.53 1165.2 1670.37 1163.72 1669.32 1160.09 C 1670.72 1154.75 1668.89 1150.92 1670.94 1146.25 z"/>
<path transform="translate(0,0)" fill="rgb(254,134,6)" d="M 1670.94 1146.25 C 1681.46 1145.89 1695.44 1147.05 1706.13 1148.06 L 1706.49 1148.67 C 1697.76 1157.41 1711.19 1169.05 1693.84 1169.91 C 1686.34 1169.05 1680.42 1168.54 1672.88 1168.21 C 1670.53 1165.2 1670.37 1163.72 1669.32 1160.09 C 1670.72 1154.75 1668.89 1150.92 1670.94 1146.25 z"/>
<path transform="translate(0,0)" fill="rgb(0,0,0)" d="M 1699 1171.13 C 1705.29 1170.54 1717.59 1171.05 1724 1171.74 C 1724.21 1175.63 1724.83 1183.1 1724.63 1186.71 L 1723.39 1185.34 L 1719.85 1185.55 C 1716.24 1186.02 1711.06 1186.07 1707.3 1186.23 C 1702.51 1186.04 1703 1186.77 1699.48 1184.58 C 1697.65 1181.22 1698.7 1175.26 1699 1171.13 z"/>
<path transform="translate(0,0)" fill="rgb(250,205,110)" d="M 1719.85 1185.55 L 1723.39 1185.34 L 1724.63 1186.71 C 1725.16 1198.52 1727.01 1260.84 1723.35 1270.8 C 1722.85 1281.49 1722.51 1292.64 1717.71 1302.36 C 1716.11 1292.1 1714.83 1286.06 1711.51 1276.31 C 1707.5 1266.54 1703.65 1259.86 1697.88 1251.12 C 1703.37 1247.5 1705.68 1251.94 1708.86 1243.71 C 1716.43 1224.12 1728.09 1207.21 1719.85 1185.55 z"/>
<path transform="translate(0,0)" fill="rgb(248,223,174)" d="M 1711.51 1276.31 C 1712.82 1272.64 1714.97 1268.66 1716.17 1264.59 L 1717.25 1268.94 L 1718 1269.13 C 1719.42 1266.51 1719.59 1265.6 1722 1263.88 L 1723.22 1264.58 L 1723.35 1270.8 C 1722.85 1281.49 1722.51 1292.64 1717.71 1302.36 C 1716.11 1292.1 1714.83 1286.06 1711.51 1276.31 z"/>
<path transform="translate(0,0)" fill="rgb(249,249,248)" d="M 1672.88 1168.21 C 1680.42 1168.54 1686.34 1169.05 1693.84 1169.91 L 1693.79 1170.73 L 1699 1171.13 C 1698.7 1175.26 1697.65 1181.22 1699.48 1184.58 C 1703 1186.77 1702.51 1186.04 1707.3 1186.23 C 1706.17 1192.7 1695.8 1219.71 1692.68 1225.54 C 1689.37 1213.02 1689.22 1201.58 1687.16 1188.92 C 1686.86 1187.06 1684.55 1184.87 1683.11 1183.5 L 1676.02 1182.41 L 1672.71 1181.14 C 1672.48 1179.69 1672.84 1170.28 1672.88 1168.21 z"/>
<path transform="translate(0,0)" fill="rgb(0,0,0)" d="M 1672.88 1168.21 C 1680.42 1168.54 1686.34 1169.05 1693.84 1169.91 L 1693.79 1170.73 C 1691.16 1173.74 1691.74 1178.68 1691.84 1182.73 C 1689.14 1185.7 1686.77 1184.41 1683.11 1183.5 L 1676.02 1182.41 L 1672.71 1181.14 C 1672.48 1179.69 1672.84 1170.28 1672.88 1168.21 z"/>
<path transform="translate(0,0)" fill="rgb(250,205,110)" d="M 1672.71 1181.14 L 1676.02 1182.41 C 1671.12 1194.32 1669.27 1210.97 1668.67 1223.8 L 1660.85 1219.42 C 1660.79 1207.82 1666.18 1190.97 1672.71 1181.14 z"/>
<path transform="translate(0,0)" fill="rgb(216,199,189)" d="M 1389.12 1401.47 C 1407.03 1378.72 1537.89 1257.46 1558.11 1250.47 C 1555.16 1255.57 1528.35 1275.1 1521.85 1280.45 C 1512.6 1288.14 1503.51 1296.01 1494.56 1304.05 C 1471.89 1324.42 1449.7 1345.31 1427.99 1366.69 C 1416.71 1377.82 1400.57 1395.29 1389.25 1404.9 L 1389.12 1401.47 z"/>
<path transform="translate(0,0)" fill="rgb(249,249,248)" d="M 1049.06 1398.76 C 1052.76 1409.93 1054.02 1444.16 1048.68 1455.05 C 1048.12 1450.63 1049.24 1434.77 1049.26 1428.81 C 1049.28 1419.56 1047.79 1407.57 1048.24 1399.08 L 1049.06 1398.76 z"/>
<path transform="translate(0,0)" fill="rgb(216,199,189)" d="M 1021.48 1274.89 C 1024.05 1284.37 1033.43 1317.66 1034.63 1326.21 L 1032.51 1326.21 C 1028.93 1317.12 1021.62 1284.96 1020.34 1275.22 L 1021.48 1274.89 z"/>
<path transform="translate(0,0)" fill="rgb(253,199,166)" d="M 1362.94 1205.51 C 1358.25 1196.36 1352.23 1170.3 1364.75 1164.04 C 1367.45 1162.68 1368.33 1163.38 1370.87 1164.29 C 1379.85 1173.39 1377.52 1198.8 1386.74 1205.17 C 1389.87 1204.42 1388.91 1204.61 1391.41 1201.42 C 1393.6 1190.2 1375.46 1144.45 1397.69 1147.16 C 1410.65 1154.46 1404.2 1198.58 1418.94 1196.56 C 1432.39 1186.4 1412.83 1144.69 1439.04 1143.4 C 1441.71 1143.26 1444.52 1145.5 1445.92 1147.68 C 1447.46 1161.08 1446.39 1175.06 1445.76 1188.59 C 1453.13 1179.62 1469.8 1141.21 1480.97 1142.88 C 1499.72 1145.69 1481.41 1181.25 1473.8 1188.63 C 1462.28 1200.41 1443.99 1217.53 1427.24 1220.74 C 1421.63 1221.81 1411.75 1219.39 1405.73 1219.72 C 1385.11 1222.05 1374.04 1228.19 1362.94 1205.51 z"/>
<path transform="translate(0,0)" fill="rgb(252,177,5)" d="M 1341.27 1017.05 C 1375.62 1016.18 1365.99 1070.49 1332.28 1079.97 C 1329.49 1080.09 1326.71 1079.53 1324.18 1078.35 C 1297.7 1066.22 1320.18 1024.71 1341.27 1017.05 z"/>
<path transform="translate(0,0)" fill="rgb(0,0,0)" d="M 651.94 1213.8 L 653.475 1213.26 C 660.142 1210.87 668.655 1206.06 675.253 1204.15 C 698.779 1197.32 722.497 1198.21 745.634 1205.98 C 754.957 1209.12 764.393 1214.48 772.488 1217.02 L 774.809 1219.33 C 785.429 1225.41 797.982 1238.62 807.904 1246.71 C 825.316 1249.65 846.595 1248.36 863.136 1252.38 C 895.922 1260.35 926.774 1272.57 960.783 1275.98 C 974.36 1277.34 986.088 1277.2 999.649 1276.28 C 1004.2 1275.96 1016.27 1274.92 1020.34 1275.22 C 1021.62 1284.96 1028.93 1317.12 1032.51 1326.21 C 1035.87 1340.4 1039.17 1354.36 1042.18 1368.61 C 1043.43 1374.58 1046.54 1394.84 1048.24 1399.08 C 1047.79 1407.57 1049.28 1419.56 1049.26 1428.81 C 1049.24 1434.77 1048.12 1450.63 1048.68 1455.05 C 1046.71 1456.49 1041.57 1473.6 1040.08 1477.48 C 1027.26 1500.33 933.374 1524.8 905.229 1525.57 C 890.395 1481.57 877.411 1435.88 862.645 1391.7 C 856.758 1374.08 853.102 1358.56 846.077 1340.55 C 840.424 1326.06 839.876 1316.05 831.339 1300.77 C 830.452 1302.93 896.831 1506.82 902.518 1526.29 C 923.11 1590.32 940.568 1653.14 958.662 1717.76 C 960.003 1721.28 962.01 1726.08 963.064 1729.57 C 963.986 1732.61 965.287 1738.13 967.137 1740.42 L 968.718 1740.95 L 968.726 1742.12 C 967.364 1745.82 970.617 1754.73 971.805 1759 C 962.619 1761.93 950.7 1765.68 941.241 1767.68 C 933.22 1769.35 923.953 1771.06 916.141 1773.18 C 883.71 1781.28 849.331 1789.24 817.273 1797.62 C 799.889 1802.22 775.383 1806.79 757.622 1810.34 C 756.772 1805.23 755.308 1799.41 754.156 1794.3 C 752.57 1787.77 750.942 1781.25 749.272 1774.73 C 747.838 1769.48 741.645 1745.15 739.477 1742.2 C 735.608 1741.96 733.94 1742.15 730.038 1742.51 C 727.712 1747.55 739.942 1809.36 740.779 1821.03 C 742.402 1843.68 751.607 1871.72 734.962 1892.06 C 727.562 1901.1 716.652 1908.49 704.777 1909.15 C 678.027 1910.68 650.883 1910.08 624.041 1910.08 L 478.451 1909.95 L 370.201 1909.92 C 349.223 1909.99 315.411 1915.24 299.222 1901.28 C 290.825 1893.9 285.047 1883.99 282.757 1873.04 C 280.074 1860.69 281.733 1847.79 282.726 1835.28 L 287.375 1776.42 C 288.035 1767.93 289.717 1751.53 289.021 1743.74 L 287.054 1742.51 C 288.677 1740.74 287.944 1741.75 289.185 1739.44 L 289.89 1737.44 C 291.519 1723.37 293.742 1703.22 292.747 1688.99 C 292.529 1685.86 290.119 1684.76 287.81 1683.05 L 289.242 1682.19 C 291.676 1682.9 290.446 1682.86 292.979 1681.77 C 294.94 1660.79 297.763 1627.6 297.873 1606.98 C 298.745 1600.91 299.759 1594.86 300.916 1588.83 L 302.445 1591.38 C 314.47 1530.5 366.299 1535.6 415.284 1535.9 L 418.93 1533.65 C 424.318 1533.62 428.807 1533.37 434.12 1534.38 C 434.736 1520.55 433.784 1507.74 443.47 1496.14 C 454.555 1482.87 491.676 1497.47 500.823 1488.68 C 500.989 1485.74 508.202 1466.59 509.801 1461.82 C 504.637 1450.89 498.927 1427.48 494.639 1415.22 C 489.956 1401.82 485.356 1391.5 480.087 1378.5 L 480.324 1376.58 C 501.469 1339.67 555.867 1289.54 593.942 1272.79 C 595.8 1277.43 596.398 1282.99 598.084 1288.21 L 599.857 1288.74 C 610.275 1253.22 621.417 1235.44 651.94 1213.8 z M 591.961 1423.78 C 590.366 1449.49 582.407 1467.63 572.625 1491.06 C 594.991 1496.24 590.457 1515.31 590.421 1534.16 C 612.516 1534.09 634.611 1534.47 656.691 1535.29 C 634.022 1479.78 613.434 1423 599.87 1364.65 C 597.612 1383.07 594.892 1403.5 593.052 1421.78 L 591.961 1423.78 z M 572.442 1534.1 C 572.753 1526.2 574.309 1516.66 570.303 1510.33 C 566.353 1508.13 565.364 1508.93 560.408 1509.02 C 556.47 1520.33 554.018 1523.73 547.04 1533.31 C 553.328 1534.31 565.638 1534.05 572.442 1534.1 z M 739.019 1741.09 C 738.167 1735.44 726.178 1706.2 723.198 1697.78 C 723.746 1708.95 726.859 1728.45 728.832 1739.79 C 732.225 1740.25 735.621 1740.68 739.019 1741.09 z"/>
<path transform="translate(0,0)" fill="rgb(121,117,177)" d="M 463.25 1509.51 C 466.678 1507.78 492.333 1507.97 495.601 1510.03 C 499.357 1508.82 552.901 1509.13 560.408 1509.02 C 556.47 1520.33 554.018 1523.73 547.04 1533.31 L 546.001 1533.69 L 547.992 1536.08 C 578.388 1536.02 609.112 1536.51 639.529 1536.83 C 645.454 1536.89 651.634 1536.99 657.52 1537.48 L 691.647 1624.84 C 700.315 1646.64 708.19 1667.15 719.205 1687.92 C 683.982 1703.52 645.495 1718.13 609.591 1732.88 C 594.614 1739.04 559.431 1754.79 545.587 1759 C 545.664 1747.35 545.911 1735.65 545.255 1724.03 C 529.191 1721.77 484.098 1723.95 465.49 1724.04 C 465.192 1735.87 465.193 1747.72 465.494 1759.55 C 449.764 1752.69 296.893 1686.45 294.701 1681.83 L 292.979 1681.77 C 294.94 1660.79 297.763 1627.6 297.873 1606.98 C 298.745 1600.91 299.759 1594.86 300.916 1588.83 L 302.445 1591.38 C 314.47 1530.5 366.299 1535.6 415.284 1535.9 L 418.93 1533.65 C 424.318 1533.62 428.807 1533.37 434.12 1534.38 C 436.794 1535.42 451.548 1535.29 454.105 1534.2 C 453.551 1526.5 452.266 1519 455.135 1512.04 C 458.479 1509.16 457.899 1510.08 463.25 1509.51 z"/>
<path transform="translate(0,0)" fill="rgb(173,167,228)" d="M 495.601 1510.03 C 499.357 1508.82 552.901 1509.13 560.408 1509.02 C 556.47 1520.33 554.018 1523.73 547.04 1533.31 L 546.001 1533.69 C 526.592 1533.85 507.183 1533.65 487.782 1533.08 C 489.805 1525.41 492.867 1517.52 495.601 1510.03 z"/>
<path transform="translate(0,0)" fill="rgb(173,167,228)" d="M 463.25 1509.51 C 473.132 1510.03 483.929 1509.51 493.905 1509.51 C 491.291 1517.17 488.503 1526.03 485.391 1533.39 C 477.571 1533.49 461.231 1533.25 454.105 1534.2 C 453.551 1526.5 452.266 1519 455.135 1512.04 C 458.479 1509.16 457.899 1510.08 463.25 1509.51 z"/>
<path transform="translate(0,0)" fill="rgb(30,29,41)" d="M 463.25 1509.51 C 466.678 1507.78 492.333 1507.97 495.601 1510.03 C 492.867 1517.52 489.805 1525.41 487.782 1533.08 C 507.183 1533.65 526.592 1533.85 546.001 1533.69 L 547.992 1536.08 L 415.284 1535.9 L 418.93 1533.65 C 424.318 1533.62 428.807 1533.37 434.12 1534.38 C 436.794 1535.42 451.548 1535.29 454.105 1534.2 C 461.231 1533.25 477.571 1533.49 485.391 1533.39 C 488.503 1526.03 491.291 1517.17 493.905 1509.51 C 483.929 1509.51 473.132 1510.03 463.25 1509.51 z"/>
<path transform="translate(0,0)" fill="rgb(30,29,41)" d="M 300.916 1588.83 L 302.445 1591.38 C 298.12 1621.14 298.679 1653.69 294.701 1681.83 L 292.979 1681.77 C 294.94 1660.79 297.763 1627.6 297.873 1606.98 C 298.745 1600.91 299.759 1594.86 300.916 1588.83 z"/>
<path transform="translate(0,0)" fill="rgb(173,167,228)" d="M 480.324 1376.58 C 501.469 1339.67 555.867 1289.54 593.942 1272.79 C 595.8 1277.43 596.398 1282.99 598.084 1288.21 L 599.857 1288.74 C 600.266 1290.39 597.058 1310.57 596.577 1315.12 C 595.19 1328.26 600.853 1354.31 599.87 1364.65 C 597.612 1383.07 594.892 1403.5 593.052 1421.78 L 591.961 1423.78 C 590.366 1449.49 582.407 1467.63 572.625 1491.06 C 562.735 1491.18 506.168 1492.66 502.407 1489.71 L 500.823 1488.68 C 500.989 1485.74 508.202 1466.59 509.801 1461.82 C 504.637 1450.89 498.927 1427.48 494.639 1415.22 C 489.956 1401.82 485.356 1391.5 480.087 1378.5 L 480.324 1376.58 z"/>
<path transform="translate(0,0)" fill="rgb(173,167,228)" d="M 591.961 1423.78 C 590.366 1449.49 582.407 1467.63 572.625 1491.06 C 562.735 1491.18 506.168 1492.66 502.407 1489.71 L 504.952 1482.09 C 506.461 1477.64 510.504 1465.81 513.76 1463.45 C 533.882 1448.89 569.551 1434.84 591.961 1423.78 z"/>
<path transform="translate(0,0)" fill="rgb(30,29,41)" d="M 510.486 1460.54 C 523.681 1429.5 540.177 1396.92 554.636 1366.36 C 563.421 1347.8 581.297 1303.09 593.319 1288.75 C 592.371 1292.56 575.645 1325.4 572.865 1331.65 C 553.509 1375.2 531.515 1416.93 512.896 1460.91 C 524.663 1453.75 581.397 1424.85 593.052 1421.78 L 591.961 1423.78 C 569.551 1434.84 533.882 1448.89 513.76 1463.45 C 510.504 1465.81 506.461 1477.64 504.952 1482.09 L 502.407 1489.71 L 500.823 1488.68 C 500.989 1485.74 508.202 1466.59 509.801 1461.82 C 504.637 1450.89 498.927 1427.48 494.639 1415.22 C 489.956 1401.82 485.356 1391.5 480.087 1378.5 L 480.324 1376.58 C 490.436 1388.97 504.714 1442.43 510.486 1460.54 z"/>
<path transform="translate(0,0)" fill="rgb(20,21,80)" d="M 749.272 1774.73 C 752.678 1768.46 787.733 1761.95 795.958 1759.57 C 827.893 1750.35 861.149 1743.19 893.233 1735.14 C 908.826 1731.23 945.966 1723.51 958.662 1717.76 C 960.003 1721.28 962.01 1726.08 963.064 1729.57 C 963.986 1732.61 965.287 1738.13 967.137 1740.42 L 968.718 1740.95 L 968.726 1742.12 C 967.364 1745.82 970.617 1754.73 971.805 1759 C 962.619 1761.93 950.7 1765.68 941.241 1767.68 C 933.22 1769.35 923.953 1771.06 916.141 1773.18 C 883.71 1781.28 849.331 1789.24 817.273 1797.62 C 799.889 1802.22 775.383 1806.79 757.622 1810.34 C 756.772 1805.23 755.308 1799.41 754.156 1794.3 C 752.57 1787.77 750.942 1781.25 749.272 1774.73 z"/>
<path transform="translate(0,0)" fill="rgb(0,0,0)" d="M 963.064 1729.57 C 963.986 1732.61 965.287 1738.13 967.137 1740.42 L 968.718 1740.95 L 968.726 1742.12 C 967.364 1745.82 970.617 1754.73 971.805 1759 C 962.619 1761.93 950.7 1765.68 941.241 1767.68 C 933.22 1769.35 923.953 1771.06 916.141 1773.18 C 883.71 1781.28 849.331 1789.24 817.273 1797.62 C 799.889 1802.22 775.383 1806.79 757.622 1810.34 C 756.772 1805.23 755.308 1799.41 754.156 1794.3 C 760.983 1791.49 773.819 1789.38 781.454 1787.72 C 796.716 1784.34 811.96 1780.89 827.185 1777.36 C 872.517 1766.5 918.557 1753.47 964.267 1742.23 C 963.172 1737.11 963.22 1734.73 963.064 1729.57 z"/>
<path transform="translate(0,0)" fill="rgb(252,177,5)" d="M 482.895 1725.45 C 502.703 1724.69 523.98 1724.98 543.9 1724.92 C 543.759 1744.96 543.386 1765 542.783 1785.03 L 531.25 1785.02 L 467.416 1785.13 C 466.921 1765.43 466.923 1745.72 467.42 1726.03 L 482.895 1725.45 z"/>
<path transform="translate(0,0)" fill="rgb(20,21,80)" d="M 1547.2 345.457 C 1554.07 302.052 1598.1 289.459 1635.99 292.757 C 1683.99 299.061 1706.51 327.243 1716.34 372.735 C 1728.99 311.669 1759.02 352.51 1776.44 383.209 C 1789.28 409.42 1798.12 442.967 1795.51 472.112 C 1795.27 474.819 1791.59 478.107 1789.24 478.889 C 1770.11 485.256 1742.9 495.872 1723.12 491.684 C 1729.05 497.276 1783.66 523.793 1793.24 528.456 C 1790.49 538.478 1780.53 565.886 1773.32 573.174 C 1755.64 601.544 1741.01 617.13 1713.1 636.266 C 1709.42 639.602 1699.13 645.849 1694.69 648.169 C 1649.87 671.606 1600.41 675.333 1552.42 660.689 C 1503.51 645.33 1462.63 611.303 1438.65 565.992 C 1405.43 503.312 1412.04 429.718 1432.03 364.095 C 1433.32 382.35 1438.63 407.994 1451.45 421.625 C 1463.6 433.895 1485.87 413.68 1495.1 405.283 C 1510.79 391.004 1530.81 375.213 1544.57 359.42 C 1545.27 354.578 1546.21 350.23 1547.2 345.457 z"/>
<path transform="translate(0,0)" fill="rgb(252,177,5)" d="M 1547.2 345.457 C 1554.07 302.052 1598.1 289.459 1635.99 292.757 C 1683.99 299.061 1706.51 327.243 1716.34 372.735 C 1728.99 311.669 1759.02 352.51 1776.44 383.209 C 1789.28 409.42 1798.12 442.967 1795.51 472.112 C 1795.27 474.819 1791.59 478.107 1789.24 478.889 C 1770.11 485.256 1742.9 495.872 1723.12 491.684 C 1709.01 481.389 1667.61 467.799 1650.19 464.503 L 1649.92 462.478 C 1640.66 461.06 1629.96 462.702 1618.26 459.588 C 1609.56 457.272 1591 451.726 1585.91 443.786 C 1582.2 442.055 1575.98 436.103 1573.29 432.781 C 1553.73 408.564 1550.17 387.57 1552.04 357.973 C 1547.89 360.018 1549.78 360.051 1546.22 359.027 C 1546.69 356.629 1547.5 353.654 1548.1 351.228 L 1547.2 345.457 z"/>
<path transform="translate(0,0)" fill="rgb(249,249,248)" d="M 1716.34 372.735 C 1728.99 311.669 1759.02 352.51 1776.44 383.209 C 1789.28 409.42 1798.12 442.967 1795.51 472.112 C 1795.27 474.819 1791.59 478.107 1789.24 478.889 C 1770.11 485.256 1742.9 495.872 1723.12 491.684 C 1709.01 481.389 1667.61 467.799 1650.19 464.503 L 1649.92 462.478 C 1667.5 459.757 1676.23 453.576 1689.5 442.463 C 1689.83 443.622 1689.86 444.722 1689.92 445.921 C 1693.04 446.979 1691.79 446.697 1695.32 446.294 C 1707.74 434.396 1704.52 434.32 1706.42 419.631 C 1708.27 412.649 1711.87 406 1713.29 398.919 C 1715.02 390.329 1714.14 381.165 1716.34 372.735 z"/>
<path transform="translate(0,0)" fill="rgb(124,88,58)" d="M 1547.2 345.457 C 1554.07 302.052 1598.1 289.459 1635.99 292.757 L 1636 295.243 C 1612.63 295.162 1591.32 302.847 1574.63 319.64 C 1567.61 326.704 1562.06 335.095 1558.32 344.323 L 1555.96 344.992 C 1554.51 349.38 1553.06 353.457 1552.04 357.973 C 1547.89 360.018 1549.78 360.051 1546.22 359.027 C 1546.69 356.629 1547.5 353.654 1548.1 351.228 L 1547.2 345.457 z"/>
<path transform="translate(0,0)" fill="rgb(248,223,174)" d="M 1548.1 351.228 C 1549.14 346.721 1551.79 340.227 1556.58 338.713 C 1557.82 341.288 1557.06 341.315 1555.96 344.992 C 1554.51 349.38 1553.06 353.457 1552.04 357.973 C 1547.89 360.018 1549.78 360.051 1546.22 359.027 C 1546.69 356.629 1547.5 353.654 1548.1 351.228 z"/>
<path transform="translate(0,0)" fill="rgb(137,88,6)" d="M 1635.99 292.757 C 1683.99 299.061 1706.51 327.243 1716.34 372.735 C 1714.14 381.165 1715.02 390.329 1713.29 398.919 C 1711.87 406 1708.27 412.649 1706.42 419.631 C 1704.52 434.32 1707.74 434.396 1695.32 446.294 C 1691.79 446.697 1693.04 446.979 1689.92 445.921 C 1689.86 444.722 1689.83 443.622 1689.5 442.463 C 1676.23 453.576 1667.5 459.757 1649.92 462.478 C 1640.66 461.06 1629.96 462.702 1618.26 459.588 C 1609.56 457.272 1591 451.726 1585.91 443.786 C 1587.43 444.013 1586.77 443.779 1588.27 444.685 C 1601.61 452.743 1612.86 458.354 1628.6 459.638 C 1649.13 461.312 1666.95 458.945 1683.08 445.222 C 1700.56 430.234 1711.38 408.93 1713.18 385.977 C 1714.85 362.971 1707.33 340.243 1692.27 322.769 C 1677.49 305.425 1658.49 296.934 1636 295.243 L 1635.99 292.757 z"/>
<path transform="translate(0,0)" fill="rgb(137,88,6)" d="M 1555.96 344.992 L 1558.32 344.323 C 1546.86 375.564 1554.55 408.131 1575.83 433.021 C 1578.98 436.7 1583.01 440.174 1585.91 443.786 C 1582.2 442.055 1575.98 436.103 1573.29 432.781 C 1553.73 408.564 1550.17 387.57 1552.04 357.973 C 1553.06 353.457 1554.51 349.38 1555.96 344.992 z"/>
<path transform="translate(0,0)" fill="rgb(0,0,0)" d="M 1642.67 309.336 C 1645.86 309.729 1649.92 310.544 1653.16 311.093 L 1648.93 328.986 C 1658.15 332.863 1664.88 337.008 1669.96 345.947 C 1673.08 351.435 1679.09 364.723 1671.69 368.981 C 1667.89 371.161 1661.13 368.082 1657.3 366.791 C 1657.19 365.249 1657.06 363.71 1656.92 362.172 C 1656.43 357.199 1655.06 346.987 1648.34 348.333 C 1642.19 354.003 1641.45 360.905 1639.2 369.177 C 1649.42 377.995 1660.81 383.608 1662.06 398.602 C 1663.9 420.656 1646.78 427.253 1629.05 428.982 L 1628.33 431.567 C 1626.45 438.573 1627.3 440.209 1620.29 442.416 C 1616.03 441.175 1616.74 442.011 1613.95 439.238 C 1612.54 434.943 1614.03 430.129 1614.88 425.463 C 1600.4 418.998 1589.99 410.779 1587.55 393.989 C 1585.67 381.054 1603.19 384.347 1609.8 385.48 C 1608.58 393.305 1605.79 403.232 1614.92 406.928 L 1617.08 405.618 C 1620.1 400.459 1622.02 388.79 1623.45 382.459 C 1613.48 375.648 1602.61 367.518 1601.3 354.446 C 1600.66 347.606 1602.94 340.814 1607.59 335.749 C 1615.7 326.852 1625.8 326.104 1636.82 325.883 C 1638.35 320.691 1639.97 313.821 1642.67 309.336 z"/>
<path transform="translate(0,0)" fill="rgb(252,177,5)" d="M 1635.42 389.527 C 1644.72 397.24 1644.99 406.029 1637.31 415.395 C 1632.66 415.664 1634.6 416.288 1631.08 414.297 C 1628.64 408.083 1633.32 396.409 1635.42 389.527 z"/>
<path transform="translate(0,0)" fill="rgb(252,177,5)" d="M 1628.3 343.598 L 1632.01 344.213 L 1633.07 345.774 C 1633.37 350.773 1631.53 360.542 1628.35 364.309 C 1618.77 357.365 1618.38 350.806 1628.3 343.598 z"/>
<path transform="translate(0,0)" fill="rgb(121,117,177)" d="M 1650.19 464.503 C 1667.61 467.799 1709.01 481.389 1723.12 491.684 C 1729.05 497.276 1783.66 523.793 1793.24 528.456 C 1790.49 538.478 1780.53 565.886 1773.32 573.174 C 1755.64 601.544 1741.01 617.13 1713.1 636.266 C 1696.58 642.206 1684.75 653.126 1661.16 660.007 C 1613.74 673.88 1562.76 668.39 1519.39 644.742 C 1525.23 635.262 1536.11 621.325 1543.03 611.962 C 1556.94 593.036 1570.98 574.198 1585.13 555.448 C 1592 546.346 1607.1 527.303 1611.76 517.833 C 1612.77 515.474 1614.52 513.86 1616.27 511.825 C 1618.87 506.411 1645.64 469.592 1650.19 464.503 z"/>
<path transform="translate(0,0)" fill="rgb(30,29,41)" d="M 1650.19 464.503 C 1667.61 467.799 1709.01 481.389 1723.12 491.684 C 1729.05 497.276 1783.66 523.793 1793.24 528.456 C 1790.49 538.478 1780.53 565.886 1773.32 573.174 C 1774.55 569.429 1778.33 562.2 1780.17 558.163 C 1784.61 548.665 1788.54 538.94 1791.95 529.03 C 1749.55 511.397 1692.29 471.49 1650.36 467.682 C 1640.25 478.725 1626.05 502.905 1616.27 511.825 C 1618.87 506.411 1645.64 469.592 1650.19 464.503 z"/>
<path transform="translate(0,0)" fill="rgb(0,0,0)" d="M 1670.55 550.233 C 1675.23 551.909 1677.09 556.773 1679.83 561.358 C 1681.9 560.679 1683.98 560.037 1686.07 559.433 C 1690.04 558.309 1691.17 558.236 1694.93 560.347 C 1697.52 567.22 1688.12 569.247 1683.12 571.101 L 1683.37 584.628 C 1715.58 592.266 1722.96 604.361 1695.09 624.984 C 1693.3 626.308 1695.02 631.009 1695.46 633.098 C 1692.89 634.217 1693.02 634.14 1690.19 634.319 C 1686.66 632.842 1685.28 629.498 1683.24 626.111 C 1678.11 626.333 1663.02 627.268 1664.65 618.733 C 1669.98 613.66 1674.75 614.869 1682.48 614.845 L 1679.54 598.882 C 1656.28 590.385 1646.08 576.513 1672.49 562.55 C 1670.21 557.365 1669.64 555.685 1670.55 550.233 z"/>
<path transform="translate(0,0)" fill="rgb(93,93,139)" d="M 1685.21 597.042 C 1690.37 598.328 1693.51 598.726 1696.36 603.331 C 1696.99 607.327 1696.79 607.208 1695.33 611.127 C 1691.99 613.2 1692.64 613.594 1689.6 613.156 C 1687.71 610.742 1687.63 610.594 1687.09 607.55 L 1685.21 597.042 z"/>
<path transform="translate(0,0)" fill="rgb(121,117,177)" d="M 1677.42 570.707 C 1679.79 573.831 1680.45 580.227 1679.19 583.924 L 1676.29 584.743 C 1673.46 581.969 1672.48 581.267 1672.02 577.483 C 1673.08 573.69 1674.34 573.172 1677.42 570.707 z"/>
<path transform="translate(0,0)" fill="rgb(252,177,5)" d="M 1454.06 428.676 C 1463.61 428.03 1475.13 424.746 1482.2 418.185 C 1499 402.603 1534.02 377.335 1546.22 359.027 C 1549.78 360.051 1547.89 360.018 1552.04 357.973 C 1550.17 387.57 1553.73 408.564 1573.29 432.781 C 1575.98 436.103 1582.2 442.055 1585.91 443.786 C 1591 451.726 1609.56 457.272 1618.26 459.588 C 1629.96 462.702 1640.66 461.06 1649.92 462.478 L 1650.19 464.503 C 1645.64 469.592 1618.87 506.411 1616.27 511.825 C 1614.52 513.86 1612.77 515.474 1611.76 517.833 C 1607.88 521.232 1604.68 525.597 1601.43 529.647 C 1570.25 482.563 1560.77 441.008 1489.67 459.921 C 1455.18 469.094 1451.15 461.883 1454.06 428.676 z"/>
<path transform="translate(0,0)" fill="rgb(20,21,80)" d="M 264.308 1369.42 C 263.678 1306.93 273.212 1248.27 289.421 1188.2 C 293.887 1171.65 314.684 1097.54 328.567 1093.41 L 331.078 1094.13 C 360.598 1117.81 414.528 1243.4 422.878 1279.69 L 423.204 1280.7 C 428.521 1291.75 433.578 1308.02 437.502 1320 C 447.07 1349.2 455.643 1378.71 463.206 1408.48 C 468.529 1397.48 473.204 1388.57 480.087 1378.5 C 485.356 1391.5 489.956 1401.82 494.639 1415.22 C 498.927 1427.48 504.637 1450.89 509.801 1461.82 C 508.202 1466.59 500.989 1485.74 500.823 1488.68 C 491.676 1497.47 454.555 1482.87 443.47 1496.14 C 433.784 1507.74 434.736 1520.55 434.12 1534.38 C 428.807 1533.37 424.318 1533.62 418.93 1533.65 L 415.284 1535.9 C 366.299 1535.6 314.47 1530.5 302.445 1591.38 L 300.916 1588.83 C 301.385 1582.67 284.276 1527.44 281.77 1516.34 C 271.09 1469.01 262.63 1418.04 264.308 1369.42 z"/>
<path transform="translate(0,0)" fill="rgb(20,21,80)" d="M 264.308 1369.42 C 263.678 1306.93 273.212 1248.27 289.421 1188.2 C 293.887 1171.65 314.684 1097.54 328.567 1093.41 L 331.078 1094.13 C 360.598 1117.81 414.528 1243.4 422.878 1279.69 L 423.204 1280.7 C 402.956 1302.44 383.095 1324.54 363.63 1346.99 C 368.854 1382.56 374.59 1418.04 380.837 1453.44 C 383.403 1468.02 394.666 1522.29 391.894 1532.99 L 379.973 1460.5 C 367.222 1451.31 268.26 1376.25 264.308 1369.42 z"/>
<path transform="translate(0,0)" fill="rgb(20,21,80)" d="M 331.078 1094.13 C 360.598 1117.81 414.528 1243.4 422.878 1279.69 C 417.023 1281.66 371.35 1334.6 363.461 1343.27 C 358.965 1301.08 352.273 1257.21 346.456 1215.1 C 341.293 1177.71 331.502 1131.37 331.078 1094.13 z"/>
<path transform="translate(0,0)" fill="rgb(197,196,218)" d="M 328.567 1093.41 L 331.078 1094.13 C 331.502 1131.37 341.293 1177.71 346.456 1215.1 C 352.273 1257.21 358.965 1301.08 363.461 1343.27 C 371.35 1334.6 417.023 1281.66 422.878 1279.69 L 423.204 1280.7 C 402.956 1302.44 383.095 1324.54 363.63 1346.99 C 368.854 1382.56 374.59 1418.04 380.837 1453.44 C 383.403 1468.02 394.666 1522.29 391.894 1532.99 L 379.973 1460.5 C 367.222 1451.31 268.26 1376.25 264.308 1369.42 C 271.391 1371.76 363.852 1446.01 379.384 1457.9 C 372.98 1422.42 367.247 1386.81 362.186 1351.11 C 357.974 1319.11 354.764 1284.1 348.951 1252.58 C 330.722 1241.94 314.704 1228.08 296.986 1216.68 C 292.239 1213.62 287.653 1210.37 283.167 1206.95 C 298.416 1213.09 331.34 1238.95 348.443 1249.76 C 347.48 1232.73 343.992 1214.83 341.375 1197.93 C 336.076 1163.71 329.407 1128.04 328.567 1093.41 z"/>
<path transform="translate(0,0)" fill="rgb(173,167,228)" d="M 480.087 1378.5 C 485.356 1391.5 489.956 1401.82 494.639 1415.22 C 498.927 1427.48 504.637 1450.89 509.801 1461.82 C 508.202 1466.59 500.989 1485.74 500.823 1488.68 C 491.676 1497.47 454.555 1482.87 443.47 1496.14 C 433.784 1507.74 434.736 1520.55 434.12 1534.38 C 428.807 1533.37 424.318 1533.62 418.93 1533.65 L 416.64 1532.76 C 412.321 1517.89 455.297 1426.78 463.206 1408.48 C 468.529 1397.48 473.204 1388.57 480.087 1378.5 z"/>
<path transform="translate(0,0)" fill="rgb(0,0,0)" d="M 916.141 1773.18 C 923.953 1771.06 933.22 1769.35 941.241 1767.68 C 949.367 1779.3 956.033 1791.5 964.148 1803.12 C 973.122 1815.98 983.381 1827.39 991.272 1840.94 C 997.91 1850.76 1010.82 1880.34 1015.97 1891.75 C 915.896 1948.98 791.374 1993.95 677.574 2011.72 C 663.937 2013.85 627.756 2018.62 616.493 2013.46 C 613.826 1997.88 700.575 1937.09 717.832 1928.68 C 728.104 1923.67 744.466 1914.11 751.892 1906.04 C 764.054 1887.82 804.803 1837.18 821.311 1825.04 L 826.13 1821.05 C 825.14 1816.87 819.304 1803.49 817.273 1797.62 C 849.331 1789.24 883.71 1781.28 916.141 1773.18 z"/>
<path transform="translate(0,0)" fill="rgb(252,177,5)" d="M 916.141 1773.18 C 923.953 1771.06 933.22 1769.35 941.241 1767.68 C 949.367 1779.3 956.033 1791.5 964.148 1803.12 C 973.122 1815.98 983.381 1827.39 991.272 1840.94 L 862.201 1906.27 C 843.438 1915.63 824.26 1924.37 805.49 1933.4 C 774.309 1948.39 742.611 1954.41 751.892 1906.04 C 764.054 1887.82 804.803 1837.18 821.311 1825.04 L 826.13 1821.05 C 825.14 1816.87 819.304 1803.49 817.273 1797.62 C 849.331 1789.24 883.71 1781.28 916.141 1773.18 z"/>
<path transform="translate(0,0)" fill="rgb(253,199,166)" d="M 817.273 1797.62 C 849.331 1789.24 883.71 1781.28 916.141 1773.18 C 914.394 1790.8 911.068 1803.51 899.678 1816.86 C 889.457 1828.38 877.027 1836.23 861.166 1837.23 C 847.298 1838.1 832.161 1835.13 826.13 1821.05 C 825.14 1816.87 819.304 1803.49 817.273 1797.62 z"/>
<path transform="translate(0,0)" fill="rgb(0,0,0)" d="M 899.678 1816.86 L 900.116 1819.32 C 883.004 1843.61 842.368 1848.17 821.311 1825.04 L 826.13 1821.05 C 832.161 1835.13 847.298 1838.1 861.166 1837.23 C 877.027 1836.23 889.457 1828.38 899.678 1816.86 z"/>
<path transform="translate(0,0)" fill="rgb(0,0,0)" d="M 969.046 403.413 C 959.897 390.82 957.095 376.714 969.534 368.06 C 980.363 360.526 991.479 364.349 1003.4 363.931 C 1020.24 352.395 1030.81 320.008 1057.04 325.052 C 1071.83 327.898 1080.41 340.099 1093.17 347.97 C 1108.87 344.239 1122.26 339.024 1137.77 348.511 C 1145.36 353.153 1149.87 361.261 1151.5 369.925 C 1153.8 382.364 1150.86 395.201 1143.38 405.406 C 1136.06 415.236 1129.18 417.738 1117.99 420.121 C 1117.91 449.408 1120.83 479.543 1117.94 508.639 C 1114.67 541.598 1101.14 556.984 1066.89 557.252 C 1047.68 553.278 1026.29 546.34 1011.38 533.085 C 1009.93 536.955 1009.57 535.568 1010.58 538.318 C 1020.91 570.057 1051.84 587.684 1083.22 592.524 C 1072.67 612.734 1060.59 632.498 1049.93 652.672 C 1046.55 659.056 1040.76 668.079 1037.88 674.296 C 1019.32 659.005 999.992 638.045 982.697 621.025 C 974.824 613.277 961.286 600.135 954.607 591.935 C 955.4 583.776 959.18 573.017 961.257 564.775 C 967.125 541.495 973.655 518.428 981.032 495.571 C 954.311 487.914 941.446 451.28 949.472 426.133 C 953.163 414.567 959.466 409.653 969.046 403.413 z"/>
<path transform="translate(0,0)" fill="rgb(253,199,166)" d="M 1028.44 400.436 C 1059.39 414.781 1081.04 425.964 1115.93 419.483 C 1116.1 433.338 1119.15 492.548 1111.57 500.527 C 1104.36 503.418 1095.68 498.818 1088.71 495.839 L 1086.84 495.033 C 1043.93 505.19 1031.94 502.781 1005.7 465.643 C 1004.45 463.873 1003.61 463.521 1001.68 463.54 C 994.043 476.294 1003.07 520.071 1011.38 533.085 C 1009.93 536.955 1009.57 535.568 1010.58 538.318 C 1020.91 570.057 1051.84 587.684 1083.22 592.524 C 1072.67 612.734 1060.59 632.498 1049.93 652.672 C 1046.55 659.056 1040.76 668.079 1037.88 674.296 C 1019.32 659.005 999.992 638.045 982.697 621.025 C 974.824 613.277 961.286 600.135 954.607 591.935 C 955.4 583.776 959.18 573.017 961.257 564.775 C 967.125 541.495 973.655 518.428 981.032 495.571 C 984.869 495.138 986.812 495.288 989.987 493.087 C 990.75 491.689 991.691 490.745 991.072 489.617 C 983.934 477.039 964.507 469.106 972.286 451.28 C 974.073 447.183 979.717 442.893 983.89 442.298 C 1013.4 438.087 1026.22 434.747 1028.44 400.436 z"/>
<path transform="translate(0,0)" fill="rgb(249,249,248)" d="M 1072.14 509.296 C 1080.28 508.813 1088.94 507.408 1096.34 510.501 C 1100.81 515.721 1095.65 520.087 1091.93 524.395 C 1080.2 531.466 1067.09 520.384 1069.3 510.694 L 1072.14 509.296 z"/>
<path transform="translate(0,0)" fill="rgb(0,0,0)" d="M 1163.99 1740.58 C 1168.87 1734.63 1168.72 1726.63 1176.63 1725 C 1180.66 1725.83 1182.44 1727.72 1185.86 1730.28 C 1186.32 1733.64 1219.05 1770.98 1224.56 1775.14 C 1225.48 1775.84 1226.42 1776.53 1227.37 1777.2 C 1242.29 1791.54 1274.76 1776.09 1282.79 1778.28 C 1316.36 1791.51 1352.26 1804.37 1385.19 1818.44 C 1407.05 1827.78 1430.24 1842.77 1453.31 1852.12 C 1479.48 1860.84 1535.6 1875.47 1555.31 1896.71 C 1567.06 1909.35 1544.39 1915.51 1533.5 1915.8 C 1388.57 1919.55 1250.91 1899.32 1109.86 1869.2 C 1113.4 1853.44 1120.45 1829.68 1125.66 1814.22 C 1132.27 1793.28 1138.05 1783.21 1150.31 1764.4 C 1154.28 1758.3 1160.86 1748.56 1163.79 1742.14 L 1163.99 1740.58 z"/>
<path transform="translate(0,0)" fill="rgb(252,177,5)" d="M 1163.99 1740.58 C 1168.87 1734.63 1168.72 1726.63 1176.63 1725 C 1180.66 1725.83 1182.44 1727.72 1185.86 1730.28 C 1186.32 1733.64 1219.05 1770.98 1224.56 1775.14 C 1225.48 1775.84 1226.42 1776.53 1227.37 1777.2 C 1242.29 1791.54 1274.76 1776.09 1282.79 1778.28 C 1316.36 1791.51 1352.26 1804.37 1385.19 1818.44 C 1407.05 1827.78 1430.24 1842.77 1453.31 1852.12 C 1441.18 1862.81 1431.63 1871.38 1414.38 1870.5 C 1385.91 1869.06 1357.19 1863.63 1329.12 1858.39 C 1261.22 1845.71 1192.02 1833.65 1125.66 1814.22 C 1132.27 1793.28 1138.05 1783.21 1150.31 1764.4 C 1154.28 1758.3 1160.86 1748.56 1163.79 1742.14 L 1163.99 1740.58 z"/>
<path transform="translate(0,0)" fill="rgb(173,167,228)" d="M 130.359 1344.95 C 130.402 1344.33 130.318 1344.83 130.994 1342.93 L 132.713 1344.22 C 137.862 1349.28 144.085 1352.48 149.625 1357.16 C 165.489 1370.7 179.478 1386.29 191.222 1403.53 L 192.471 1406.03 C 206.377 1426.45 222.927 1453.25 232.964 1475.77 L 233.564 1478.74 C 251.88 1510.67 265.898 1542.14 281.356 1575.42 C 286.315 1586.1 293.341 1596.63 297.873 1606.98 C 297.763 1627.6 294.94 1660.79 292.979 1681.77 C 290.446 1682.86 291.676 1682.9 289.242 1682.19 L 287.81 1683.05 C 290.119 1684.76 292.529 1685.86 292.747 1688.99 C 293.742 1703.22 291.519 1723.37 289.89 1737.44 C 282.036 1734.71 277.748 1731.92 270.823 1727.31 C 235.889 1704.01 204.165 1673.89 184.477 1636.48 L 181.331 1632.54 C 147.076 1584.17 120.634 1503.04 119.931 1443.78 L 118.891 1440.15 C 118.744 1396.77 120.888 1386.65 130.359 1344.95 z"/>
<path transform="translate(0,0)" fill="rgb(173,167,228)" d="M 224.243 1584.92 C 222.629 1582.11 220.611 1578.32 220.703 1575.07 C 221.541 1545.27 228.701 1507.99 233.564 1478.74 C 251.88 1510.67 265.898 1542.14 281.356 1575.42 C 286.315 1586.1 293.341 1596.63 297.873 1606.98 C 297.763 1627.6 294.94 1660.79 292.979 1681.77 C 290.446 1682.86 291.676 1682.9 289.242 1682.19 C 286.214 1677.33 273.513 1664.35 268.715 1657.78 C 250.733 1633.17 238.004 1611.9 224.243 1584.92 z"/>
<path transform="translate(0,0)" fill="rgb(173,167,228)" d="M 192.471 1406.03 C 206.377 1426.45 222.927 1453.25 232.964 1475.77 C 227.122 1496.31 220.622 1547.01 217.724 1569.46 C 207.396 1551.31 178.571 1493.29 180.297 1472.47 C 181.686 1455.71 189.926 1424.76 192.309 1407.29 L 192.471 1406.03 z"/>
<path transform="translate(0,0)" fill="rgb(173,167,228)" d="M 184.477 1636.48 C 206.866 1641.87 253.916 1660.7 275.573 1670.87 C 277.919 1671.98 285.067 1680.57 287.81 1683.05 C 290.119 1684.76 292.529 1685.86 292.747 1688.99 C 293.742 1703.22 291.519 1723.37 289.89 1737.44 C 282.036 1734.71 277.748 1731.92 270.823 1727.31 C 235.889 1704.01 204.165 1673.89 184.477 1636.48 z"/>
<path transform="translate(0,0)" fill="rgb(173,167,228)" d="M 130.359 1344.95 C 140.718 1381.35 153.835 1417.6 166.935 1453.1 C 172.378 1467.85 177.114 1482.82 182.684 1497.58 C 165.341 1480.86 137.973 1453.86 118.891 1440.15 C 118.744 1396.77 120.888 1386.65 130.359 1344.95 z"/>
<path transform="translate(0,0)" fill="rgb(173,167,228)" d="M 132.713 1344.22 C 137.862 1349.28 144.085 1352.48 149.625 1357.16 C 165.489 1370.7 179.478 1386.29 191.222 1403.53 C 185.497 1422.06 179.805 1459.37 177.336 1478.81 C 172.316 1461.2 165.051 1443.82 158.926 1426.47 C 149.296 1399.35 140.553 1371.92 132.713 1344.22 z"/>
<path transform="translate(0,0)" fill="rgb(30,29,41)" d="M 130.359 1344.95 C 130.402 1344.33 130.318 1344.83 130.994 1342.93 L 132.713 1344.22 C 140.553 1371.92 149.296 1399.35 158.926 1426.47 C 165.051 1443.82 172.316 1461.2 177.336 1478.81 C 179.805 1459.37 185.497 1422.06 191.222 1403.53 L 192.471 1406.03 L 192.309 1407.29 C 189.926 1424.76 181.686 1455.71 180.297 1472.47 C 178.571 1493.29 207.396 1551.31 217.724 1569.46 C 220.622 1547.01 227.122 1496.31 232.964 1475.77 L 233.564 1478.74 C 228.701 1507.99 221.541 1545.27 220.703 1575.07 C 220.611 1578.32 222.629 1582.11 224.243 1584.92 L 223.094 1586.43 C 222.082 1584.64 220.215 1581.77 218.361 1580.84 C 197.925 1570.56 176.877 1561.39 156.428 1551.07 C 148.649 1547.15 143.679 1544.37 136.871 1539.02 C 159.917 1547.87 193.242 1567.34 218.244 1578.08 C 214.479 1568.06 185.459 1503.03 180.591 1498.65 C 168.273 1487.57 133.131 1452.6 119.931 1443.78 L 118.891 1440.15 C 137.973 1453.86 165.341 1480.86 182.684 1497.58 C 177.114 1482.82 172.378 1467.85 166.935 1453.1 C 153.835 1417.6 140.718 1381.35 130.359 1344.95 z"/>
<path transform="translate(0,0)" fill="rgb(30,29,41)" d="M 224.243 1584.92 C 238.004 1611.9 250.733 1633.17 268.715 1657.78 C 273.513 1664.35 286.214 1677.33 289.242 1682.19 L 287.81 1683.05 C 285.067 1680.57 277.919 1671.98 275.573 1670.87 C 253.916 1660.7 206.866 1641.87 184.477 1636.48 L 181.331 1632.54 C 211.948 1643.37 242.452 1654.51 272.838 1665.97 C 254.329 1641.91 236.204 1613.81 223.094 1586.43 L 224.243 1584.92 z"/>
<path transform="translate(0,0)" fill="rgb(216,199,189)" d="M 1675.65 941.015 C 1686.65 916.738 1697.26 904.141 1714.85 884.913 C 1753.42 930.422 1760.32 989.594 1755.8 1047.14 C 1754.55 1062.97 1752.08 1081.75 1747.95 1096.92 L 1744.98 1106.95 C 1754.84 1115.45 1766.61 1125.05 1772.87 1136.5 C 1773.1 1146.12 1773.52 1180.46 1769.08 1186.97 C 1767.59 1187.54 1766.37 1188.29 1764.9 1187.03 C 1752.59 1176.55 1747.73 1168.02 1732.96 1159.96 C 1731.73 1157.48 1732.96 1153.9 1733.54 1150.9 C 1724.79 1149.97 1715.31 1149.39 1706.49 1148.67 L 1706.13 1148.06 C 1712.96 1098.48 1714.45 1059.46 1717.25 1009.89 C 1705.37 1014.02 1692.02 1013.34 1685.71 1000.84 C 1682.71 995.03 1682.37 988.206 1684.79 982.13 C 1690.75 966.792 1706.12 963.5 1720.16 970.114 C 1721.07 962.235 1720.41 952.324 1720.13 944.24 C 1706.28 943.224 1692.44 943.565 1678.81 942.421 C 1678.16 941.879 1676.55 941.369 1675.65 941.015 z"/>
<path transform="translate(0,0)" fill="url(#Gradient1)" d="M 1675.65 941.015 C 1686.65 916.738 1697.26 904.141 1714.85 884.913 C 1753.42 930.422 1760.32 989.594 1755.8 1047.14 C 1754.55 1062.97 1752.08 1081.75 1747.95 1096.92 L 1746.68 1095.74 C 1758.72 1049.98 1757.55 991.982 1745.97 946.465 C 1738.34 945.493 1727.68 944.206 1720.13 944.24 C 1706.28 943.224 1692.44 943.565 1678.81 942.421 C 1678.16 941.879 1676.55 941.369 1675.65 941.015 z"/>
<path transform="translate(0,0)" fill="rgb(20,21,80)" d="M 1746.68 1095.74 L 1747.95 1096.92 L 1744.98 1106.95 C 1754.84 1115.45 1766.61 1125.05 1772.87 1136.5 C 1773.1 1146.12 1773.52 1180.46 1769.08 1186.97 C 1767.59 1187.54 1766.37 1188.29 1764.9 1187.03 C 1752.59 1176.55 1747.73 1168.02 1732.96 1159.96 C 1731.73 1157.48 1732.96 1153.9 1733.54 1150.9 C 1736.43 1134.22 1741.88 1111.95 1746.68 1095.74 z"/>
<path transform="translate(0,0)" fill="rgb(30,29,41)" d="M 1717.25 1009.89 C 1705.37 1014.02 1692.02 1013.34 1685.71 1000.84 C 1682.71 995.03 1682.37 988.206 1684.79 982.13 C 1690.75 966.792 1706.12 963.5 1720.16 970.114 C 1731.54 985.374 1733.94 997.302 1717.25 1009.89 z"/>
<path transform="translate(0,0)" fill="rgb(121,117,177)" d="M 1703.28 977.397 C 1705.16 973.2 1704 974.245 1707.48 972.05 C 1718.99 972.63 1728.45 996.727 1717.32 1004.06 C 1714.68 1005.79 1707.83 1005.99 1704.7 1006.14 C 1702.85 1005.08 1702.17 1004.22 1700.23 1003.42 C 1688.5 994.534 1689.11 982.999 1703.28 977.397 z"/>
<path transform="translate(0,0)" fill="rgb(93,93,139)" d="M 1703.28 977.397 C 1705.16 973.2 1704 974.245 1707.48 972.05 C 1718.99 972.63 1728.45 996.727 1717.32 1004.06 C 1714.68 1005.79 1707.83 1005.99 1704.7 1006.14 C 1702.85 1005.08 1702.17 1004.22 1700.23 1003.42 C 1710.32 1002.03 1710.81 999.839 1718.19 991.988 C 1716.95 987.396 1716.19 982.631 1713.27 979.079 C 1709.86 976.646 1707.75 977.267 1703.28 977.397 z"/>
<path transform="translate(0,0)" fill="rgb(252,177,5)" d="M 314.235 402.709 C 299.048 386.592 298.187 356.813 310.096 338.475 C 334.575 300.779 401.537 311.23 409.367 356.746 L 409.667 358.782 C 416.431 389.163 398.102 418.885 367.488 424.861 C 353.582 427.581 339.168 424.462 327.63 416.236 C 323.211 413.109 319.252 409.379 315.868 405.154 C 313.085 405.4 305.036 411.004 302.024 412.84 L 301.487 411.281 C 305.978 408.415 309.96 405.925 314.235 402.709 z"/>
<path transform="translate(0,0)" fill="rgb(59,31,21)" d="M 346.952 379.71 C 346.383 337.087 386.003 386.914 348.52 380.234 L 346.952 379.71 z"/>
<path transform="translate(0,0)" fill="rgb(137,88,6)" d="M 314.235 402.709 C 326.241 396.005 339.634 383.355 346.952 379.71 L 348.52 380.234 C 339.793 388.166 325.639 398.305 315.868 405.154 C 313.085 405.4 305.036 411.004 302.024 412.84 L 301.487 411.281 C 305.978 408.415 309.96 405.925 314.235 402.709 z"/>
<path transform="translate(0,0)" fill="rgb(252,177,5)" d="M 600.861 292.227 C 550.625 273.033 542.46 207.763 591.814 187.062 C 605.208 181.333 620.344 181.237 633.81 186.795 C 664.046 199.357 674.286 231.586 661.988 260.626 C 650.876 269.636 614.534 288.139 600.861 292.227 z"/>
<path transform="translate(0,0)" fill="rgb(59,31,21)" d="M 607.73 227.772 C 612.47 227.873 619.474 229.034 618.205 236.039 C 617.085 242.216 611.902 244.803 606.849 247.668 L 603.222 250.664 C 602.664 249.125 603.336 238.316 603.131 235.683 C 602.847 232.039 605.202 230.068 607.73 227.772 z"/>
<path transform="translate(0,0)" fill="rgb(252,177,5)" d="M 604.901 560.446 C 602.188 545.855 605.577 530.874 615.922 519.891 C 624.723 510.699 636.861 505.448 649.586 505.326 C 661.795 505.289 671.635 510.346 680.007 518.938 C 681.33 520.379 680.633 520.03 681.81 520.43 C 699.3 536.234 699.014 563.956 682.881 580.821 C 673.973 590.147 661.717 595.543 648.822 595.815 C 627.727 596.243 611.41 582.948 604.876 563.452 L 604.901 560.446 z"/>
<path transform="translate(0,0)" fill="rgb(59,31,21)" d="M 647.23 544.543 C 651.762 544.139 655.811 547.365 656.43 551.873 C 657.048 556.38 654.017 560.578 649.544 561.409 C 646.456 561.983 643.303 560.811 641.338 558.361 C 639.374 555.91 638.917 552.578 640.149 549.688 C 641.381 546.799 644.102 544.822 647.23 544.543 z"/>
<path transform="translate(0,0)" fill="rgb(0,0,0)" fill-opacity="0.905882" d="M 175.583 720.187 C 176.58 702.867 176.098 682.321 176.083 664.799 L 175.544 555.499 L 175.523 237.292 C 175.582 211.828 175.472 186.363 175.195 160.9 C 175.1 151.924 173.447 115.167 176.959 108.896 C 179.082 114.152 177.928 202.501 177.927 215.734 L 177.951 401.109 C 177.86 447.184 177.214 495.963 178.425 541.912 C 206.809 483.418 245.715 444.227 301.487 411.281 L 302.024 412.84 C 252.808 445.145 196.799 491.101 179.259 550.5 C 176.853 558.646 177.999 594.928 178.004 604.787 L 178.146 712.18 C 187.129 702.274 195.027 694.482 204.11 685.019 L 205.435 686.042 C 198.294 693.281 184.228 706.556 179.907 715.028 L 179.924 716.91 C 181.024 717.328 181.473 717.625 182.603 717.735 C 195.633 719.19 261.978 718.894 274.529 717.195 C 304.302 716.737 348.915 717.825 380.015 716.806 C 380.773 716.323 381.532 715.84 382.291 715.356 L 383.947 716.617 C 390.858 717.7 405.884 717.24 413.471 717.206 C 420.816 718.133 434.238 718.364 441.532 717.202 L 527.451 716.92 C 536.178 716.905 559.925 716.25 567.724 717.05 C 564.045 719.217 560.056 717.74 555.701 718.805 C 544.101 719.395 528.238 718.951 516.371 718.986 L 437.491 719.253 L 175.583 720.187 z"/>
<path transform="translate(0,0)" fill="rgb(20,21,80)" d="M 1660.96 1104.72 C 1664.04 1103.42 1665.17 1102.24 1667.75 1102.86 C 1670.22 1111.88 1668.51 1140.08 1670.94 1146.25 C 1668.89 1150.92 1670.72 1154.75 1669.32 1160.09 L 1668.4 1159.48 C 1653.85 1160.98 1640.13 1186.48 1630.99 1185.63 C 1626.3 1180.6 1629.53 1143.79 1630.57 1135.58 C 1631.49 1128.35 1652.43 1109.78 1659.25 1106.37 L 1660.96 1104.72 z"/>
<path transform="translate(0,0)" fill="rgb(20,21,80)" d="M 759.816 137.974 C 761.866 152.81 766.031 170.631 766.392 184.893 C 756.061 182.945 745.134 179.055 735.103 175.663 L 731.467 174.149 C 725.51 172.057 706.039 167.019 703.965 163.11 C 707.903 158.544 751.503 141.407 759.816 137.974 z"/>
<path transform="translate(0,0)" fill="rgb(252,177,5)" d="M 750.096 389.05 C 758.598 378.983 788.554 358.022 800.6 352.557 C 801.634 373.053 812.16 413.916 779.177 393.083 L 776.736 392.356 C 767.885 391.693 758.902 390.287 750.096 389.05 z"/>
<path transform="translate(0,0)" fill="rgb(0,0,0)" d="M 680.935 247.669 L 682.017 249.094 C 640.558 285.22 612.259 297.193 562.205 317.94 C 548.933 323.441 527.135 331.175 515.73 337.969 C 514.82 336.138 514.294 335.687 513.027 334.054 C 529.87 323.475 547.541 314.276 565.867 306.546 C 577.323 301.711 589.835 297.639 600.861 292.227 C 614.534 288.139 650.876 269.636 661.988 260.626 C 670.278 255.532 673.112 253.91 680.935 247.669 z"/>
<path transform="translate(0,0)" fill="rgb(0,0,0)" fill-opacity="0.831373" d="M 409.367 356.746 C 414.594 355.551 420.19 354.506 425.496 353.681 C 455.433 349.027 483.818 341.861 513.027 334.054 C 514.294 335.687 514.82 336.138 515.73 337.969 C 469.034 374.637 457.15 414.339 425.462 459.998 C 366.406 545.089 277.403 612.087 205.435 686.042 L 204.11 685.019 C 213.221 675.106 227.909 661.754 237.868 651.905 C 287.078 603.241 343.784 555.679 389.219 503.342 C 404.795 485.694 418.82 466.736 431.138 446.679 C 445.45 423.195 459.099 397.454 475.326 375.435 C 485.975 360.987 501.511 347.494 514.653 335.018 C 475.264 345.968 450.026 351.428 409.667 358.782 L 409.367 356.746 z"/>
<path transform="translate(0,0)" fill="rgb(0,0,0)" fill-opacity="0.0313725" d="M 902.518 1526.29 C 896.831 1506.82 830.452 1302.93 831.339 1300.77 C 839.876 1316.05 840.424 1326.06 846.077 1340.55 C 853.102 1358.56 856.758 1374.08 862.645 1391.7 C 877.411 1435.88 890.395 1481.57 905.229 1525.57 L 902.518 1526.29 z"/>
<path transform="translate(0,0)" fill="rgb(0,0,0)" fill-opacity="0.980392" d="M 287.054 1742.51 C 278.387 1743.66 239.624 1742.15 228.193 1742.14 C 188.408 1742.12 148.272 1741.79 108.442 1742.04 C 104.964 1742.06 97.6873 1741.91 94.6245 1740.73 C 107.937 1736.89 266.055 1738.47 289.185 1739.44 C 287.944 1741.75 288.677 1740.74 287.054 1742.51 z"/>
<path transform="translate(0,0)" fill="rgb(0,0,0)" fill-opacity="0.705882" d="M 395.57 703.645 C 453.268 655.203 510.936 601.915 580.256 570.75 C 588.374 567.101 596.759 564.11 604.901 560.446 L 604.876 563.452 C 536.61 583.507 450.96 658.027 396.3 705.127 L 395.57 703.645 z"/>
<path transform="translate(0,0)" fill="rgb(0,0,0)" fill-opacity="0.878431" d="M 776.736 392.356 L 779.177 393.083 C 769.694 404.484 755.637 428.594 746.466 442.135 C 725.2 473.536 707.613 493.59 681.81 520.43 C 680.633 520.03 681.33 520.379 680.007 518.938 C 709.274 493.301 731.988 459.302 753.818 427.382 C 760.409 417.744 769.833 400.673 776.736 392.356 z"/>
<path transform="translate(0,0)" fill="rgb(0,0,0)" fill-opacity="0.894118" d="M 968.718 1740.95 C 977.081 1738.32 1078.45 1739.84 1094.12 1740.04 L 1094.17 1741.94 L 968.726 1742.12 L 968.718 1740.95 z"/>
<path transform="translate(0,0)" fill="rgb(0,0,0)" fill-opacity="0.933333" d="M 731.467 174.149 L 735.103 175.663 L 734.5 176.529 C 731.874 180.377 729.594 184.398 727.416 188.511 C 715.51 210.996 701.731 232.57 682.017 249.094 L 680.935 247.669 C 705.743 224.771 716.902 203.772 731.467 174.149 z"/>
<path transform="translate(0,0)" fill="rgb(0,0,0)" fill-opacity="0.0588235" d="M 1032.51 1326.21 L 1034.63 1326.21 C 1039.82 1346.16 1048.49 1378.47 1049.06 1398.76 L 1048.24 1399.08 C 1046.54 1394.84 1043.43 1374.58 1042.18 1368.61 C 1039.17 1354.36 1035.87 1340.4 1032.51 1326.21 z"/>
<path transform="translate(0,0)" fill="rgb(0,0,0)" fill-opacity="0.796078" d="M 567.724 717.05 C 584.274 716.901 622.947 715.279 637.451 716.944 L 638.632 717.072 L 636.762 719.027 C 609.794 718.78 582.55 719.247 555.701 718.805 C 560.056 717.74 564.045 719.217 567.724 717.05 z"/>
<path transform="translate(0,0)" fill="rgb(0,0,0)" fill-opacity="0.882353" d="M 1675.65 941.015 C 1676.55 941.369 1678.16 941.879 1678.81 942.421 C 1669.52 949.758 1661.22 998.374 1659.73 1011.05 C 1658.66 1020.13 1658.03 1029.26 1657.82 1038.41 C 1657.32 1036.1 1656.89 1032.67 1656.51 1030.26 C 1657.67 1022.93 1658.28 1010.08 1659.44 1001.5 C 1662.63 977.936 1667.48 962.893 1675.65 941.015 z"/>
<path transform="translate(0,0)" fill="rgb(67,60,17)" fill-opacity="0.921569" d="M 1094.12 1740.04 C 1104.28 1739.96 1157.04 1739.06 1163.99 1740.58 L 1163.79 1742.14 L 1094.17 1741.94 L 1094.12 1740.04 z"/>
<path transform="translate(0,0)" fill="rgb(0,0,0)" fill-opacity="0.866667" d="M 1656.18 1037.46 C 1657.69 1047.39 1655.79 1058.77 1657.89 1067.29 C 1658.38 1077.37 1659.03 1095.05 1660.96 1104.72 L 1659.25 1106.37 C 1656.05 1092.41 1656 1052.26 1656.18 1037.46 z"/>
<path transform="translate(0,0)" fill="rgb(0,0,0)" fill-opacity="0.639216" d="M 182.603 717.735 C 207.046 715.87 249.4 716.716 274.529 717.195 C 261.978 718.894 195.633 719.19 182.603 717.735 z"/>
<path transform="translate(0,0)" fill="rgb(0,0,0)" fill-opacity="0.0666667" d="M 1040.08 1477.48 C 1041.57 1473.6 1046.71 1456.49 1048.68 1455.05 C 1048.43 1461.83 1045.02 1471.18 1042.62 1477.6 L 1040.08 1477.48 z"/>
<path transform="translate(0,0)" fill="rgb(0,0,0)" fill-opacity="0.447059" d="M 1656.51 1030.26 C 1656.89 1032.67 1657.32 1036.1 1657.82 1038.41 C 1658.16 1047.9 1657.95 1057.76 1657.89 1067.29 C 1655.79 1058.77 1657.69 1047.39 1656.18 1037.46 C 1655.76 1034.53 1656.16 1033.22 1656.51 1030.26 z"/>
<path transform="translate(0,0)" fill="rgb(0,0,0)" fill-opacity="0.760784" d="M 395.57 703.645 L 396.3 705.127 C 392.189 708.664 387.339 712.487 383.947 716.617 L 382.291 715.356 C 386.377 710.664 390.72 707.521 395.57 703.645 z"/>
<path transform="translate(0,0)" fill="rgb(0,0,0)" fill-opacity="0.67451" d="M 413.471 717.206 C 423.089 717.021 431.881 716.926 441.532 717.202 C 434.238 718.364 420.816 718.133 413.471 717.206 z"/>
</svg>