<svg version="1.1" xmlns="http://www.w3.org/2000/svg" style="display: block;" viewBox="0 0 2048 2048" width="2000" height="2000" preserveAspectRatio="none">
<defs>
	<linearGradient id="Gradient1" gradientUnits="userSpaceOnUse" x1="1119.61" y1="1844.46" x2="1119.45" y2="1863.24">
		<stop class="stop0" offset="0" stop-opacity="1" stop-color="rgb(190,204,214)"/>
		<stop class="stop1" offset="1" stop-opacity="1" stop-color="rgb(193,198,224)"/>
	</linearGradient>
</defs>
<path transform="translate(0,0)" fill="rgb(46,84,126)" d="M 903.945 305.596 C 1006.43 254.347 1098.86 181.941 1208.92 146.522 C 1312.62 113.15 1427.77 120.64 1530.22 154.841 C 1691.63 209.762 1824.88 326.108 1901.05 478.64 C 1924.83 526.439 1944.17 580.695 1954.91 633.01 C 1968.83 700.799 1966.68 771.031 1970.25 839.853 C 1972.06 874.614 1976.58 908.671 1979.73 943.311 C 1987.33 1026.66 1989.12 1112.14 1961.94 1192.41 C 1946.64 1237.57 1923.36 1274.39 1890.6 1308.6 C 1829.93 1372.07 1750.45 1413.06 1682.31 1467.14 C 1583.99 1545.16 1500.5 1644.07 1386.21 1700.38 C 1332.22 1726.97 1273.96 1741.56 1213.79 1743.36 C 1200.95 1743.74 1187.22 1743.97 1174.44 1742.87 C 1175.9 1751.97 1177.3 1761.08 1178.61 1770.2 C 1179.59 1774.2 1181.32 1779.1 1180.33 1782.89 C 1177.23 1786.17 1175.66 1785.28 1171.2 1785.05 C 1174.72 1794.76 1175.04 1809.22 1179 1817.61 C 1180.38 1817.9 1181.77 1818.17 1183.16 1818.4 C 1185.16 1822.58 1187.05 1831.76 1189.87 1833.19 C 1205.58 1832.31 1277.83 1842.89 1281.65 1859.51 C 1281.25 1861.52 1280.9 1862.51 1279.53 1864.11 C 1264.27 1881.9 1162.38 1890.38 1135.95 1892.11 C 1060.4 1896.96 984.627 1897.61 908.997 1894.05 C 884.392 1892.84 729.498 1885.42 727.973 1858.55 C 733.596 1840.62 818.869 1830.51 837.932 1831.48 C 844.895 1831.29 863.205 1822.48 867.957 1818.37 L 867.353 1815.77 C 869.993 1815.16 869.977 1815.55 872.675 1816.13 C 876.677 1814.66 875.235 1815.88 877.555 1812.9 L 876.755 1809.55 L 877.511 1809.35 C 880.388 1810.66 880.619 1811.07 883.793 1810.74 C 887.286 1808.61 886.655 1809.89 887.978 1807.01 L 886.499 1804.74 L 887.587 1803.93 L 892.02 1806.17 C 895.352 1805.07 895.338 1805.22 898.116 1802.78 L 897.099 1799.96 C 901.059 1797.82 916.705 1800.5 915.817 1788.78 C 913.141 1787.05 907.136 1787.3 902.39 1786.29 C 899.333 1783.76 900.299 1784.27 899.392 1779.17 C 896.243 1748.04 889.29 1706.49 884.53 1674.98 C 865.589 1667.43 842.268 1661.27 822.868 1655.09 C 704.542 1617.37 589.789 1595.18 466.308 1619.08 C 378.538 1636.06 260.691 1669.81 180.615 1616.7 C 123.087 1578.54 87.0449 1497.71 72.4109 1431.5 C 34.1836 1264.76 151.217 1209.25 178.784 1064.14 C 190.618 1001.85 183.167 942.254 170.918 880.733 C 163.36 842.771 156.497 805.726 152.531 767.295 C 143.754 682.228 171.151 597.313 218.078 526.764 C 254.624 471.823 311.452 408.042 372.177 379.707 C 395.635 368.761 415.378 363.531 440.382 358.344 C 452.135 329.683 487.595 309.174 514.116 295.564 C 542.077 281.215 567.134 276.963 598.161 280.222 C 618.866 254.683 635.684 238.875 668.475 227.942 C 724.232 209.352 792.249 222.75 831.281 268.196 C 836.496 274.268 851.667 299.727 853.675 300.038 C 872.987 303.029 881.942 294.404 903.945 305.596 z M 956.904 1762.96 C 957.864 1768.22 959.401 1781.27 958.231 1786.18 C 955.705 1787.13 955.307 1787.06 952.581 1787.35 C 953.273 1793.57 953.912 1804.35 955.659 1809.79 L 959.058 1809.7 C 961.676 1812.44 963.701 1820.11 965.03 1824.09 C 972.574 1822.18 991.258 1822.67 999.85 1822.67 C 1030.33 1822.63 1060.8 1823.32 1091.25 1824.73 L 1091.79 1824.43 C 1095.36 1824.93 1095.16 1825.09 1098.48 1823.81 C 1101.18 1820.61 1100.32 1822.47 1100.51 1817.77 C 1104.4 1818.89 1108.87 1820.19 1111.23 1816.11 L 1109.74 1812.92 L 1110.56 1812.29 C 1112.2 1812.93 1113.43 1813.74 1114.86 1814.77 C 1117.92 1814.18 1119.13 1813.01 1121.67 1811.24 C 1121.13 1809.97 1120.69 1809.01 1120.11 1807.78 C 1123.16 1806.82 1127 1808.36 1128.85 1807.59 C 1135.06 1804.99 1134.69 1803.83 1141.24 1807.35 C 1141.75 1802.96 1139.04 1795.03 1138.47 1789.72 L 1138.28 1787.75 L 1137.34 1786.11 C 1134.54 1784.48 1129.29 1784.97 1125.81 1784.97 C 1122.83 1777.76 1118.96 1749.42 1115.9 1740.3 C 1114.84 1737.14 1116.04 1738.16 1113.14 1736.69 C 1061.53 1729.16 1002.78 1712.8 953.037 1696.85 C 953.164 1714.75 957.892 1747.97 956.904 1762.96 z"/>
<path transform="translate(0,0)" fill="rgb(81,164,220)" d="M 1038.92 1212.31 C 1041.83 1211.27 1041.69 1211.44 1044.8 1211.91 C 1077.63 1212.34 1110.48 1211.65 1143.25 1211.91 L 1138.77 1435.63 L 1137.26 1500.86 C 1137.08 1508.97 1136.13 1532.97 1137.05 1540.02 C 1140.6 1567.15 1145.84 1596 1150.34 1623.1 L 1175.89 1777.82 C 1176.87 1774.14 1176.99 1773.57 1178.61 1770.2 C 1179.59 1774.2 1181.32 1779.1 1180.33 1782.89 C 1177.23 1786.17 1175.66 1785.28 1171.2 1785.05 C 1174.72 1794.76 1175.04 1809.22 1179 1817.61 C 1180.38 1817.9 1181.77 1818.17 1183.16 1818.4 C 1185.16 1822.58 1187.05 1831.76 1189.87 1833.19 C 1205.58 1832.31 1277.83 1842.89 1281.65 1859.51 C 1281.25 1861.52 1280.9 1862.51 1279.53 1864.11 C 1264.27 1881.9 1162.38 1890.38 1135.95 1892.11 C 1060.4 1896.96 984.627 1897.61 908.997 1894.05 C 884.392 1892.84 729.498 1885.42 727.973 1858.55 C 733.596 1840.62 818.869 1830.51 837.932 1831.48 C 844.895 1831.29 863.205 1822.48 867.957 1818.37 L 867.353 1815.77 C 869.993 1815.16 869.977 1815.55 872.675 1816.13 C 876.677 1814.66 875.235 1815.88 877.555 1812.9 L 876.755 1809.55 L 877.511 1809.35 C 880.388 1810.66 880.619 1811.07 883.793 1810.74 C 887.286 1808.61 886.655 1809.89 887.978 1807.01 L 886.499 1804.74 L 887.587 1803.93 L 892.02 1806.17 C 895.352 1805.07 895.338 1805.22 898.116 1802.78 L 897.099 1799.96 C 901.059 1797.82 916.705 1800.5 915.817 1788.78 C 913.141 1787.05 907.136 1787.3 902.39 1786.29 C 899.333 1783.76 900.299 1784.27 899.392 1779.17 L 903.577 1779.18 C 892.817 1695.56 878.373 1611.47 868.296 1527.74 C 867.328 1519.7 872.155 1497.76 873.778 1488.49 L 882.583 1436.94 C 895.14 1362.88 909.016 1286.81 920.409 1212.73 C 928.626 1212.66 937.796 1212.32 945.882 1213.21 C 938.948 1225.84 934.938 1229.58 920.539 1231.77 L 918.959 1233.11 C 920.464 1236.09 919.397 1234.9 922.43 1236.66 C 933.458 1237.43 946.492 1223.06 949.895 1213.11 C 965.846 1211.23 989.996 1212.79 1006.81 1212.11 C 1011.11 1211.94 1035.64 1211.85 1038.92 1212.31 z M 956.904 1762.96 C 957.864 1768.22 959.401 1781.27 958.231 1786.18 C 955.705 1787.13 955.307 1787.06 952.581 1787.35 C 953.273 1793.57 953.912 1804.35 955.659 1809.79 L 959.058 1809.7 C 961.676 1812.44 963.701 1820.11 965.03 1824.09 C 972.574 1822.18 991.258 1822.67 999.85 1822.67 C 1030.33 1822.63 1060.8 1823.32 1091.25 1824.73 L 1091.79 1824.43 C 1095.36 1824.93 1095.16 1825.09 1098.48 1823.81 C 1101.18 1820.61 1100.32 1822.47 1100.51 1817.77 C 1104.4 1818.89 1108.87 1820.19 1111.23 1816.11 L 1109.74 1812.92 L 1110.56 1812.29 C 1112.2 1812.93 1113.43 1813.74 1114.86 1814.77 C 1117.92 1814.18 1119.13 1813.01 1121.67 1811.24 C 1121.13 1809.97 1120.69 1809.01 1120.11 1807.78 C 1123.16 1806.82 1127 1808.36 1128.85 1807.59 C 1135.06 1804.99 1134.69 1803.83 1141.24 1807.35 C 1141.75 1802.96 1139.04 1795.03 1138.47 1789.72 L 1138.28 1787.75 L 1137.34 1786.11 C 1134.54 1784.48 1129.29 1784.97 1125.81 1784.97 C 1122.83 1777.76 1118.96 1749.42 1115.9 1740.3 C 1114.84 1737.14 1116.04 1738.16 1113.14 1736.69 C 1061.53 1729.16 1002.78 1712.8 953.037 1696.85 C 953.164 1714.75 957.892 1747.97 956.904 1762.96 z"/>
<path transform="translate(0,0)" fill="rgb(46,84,126)" d="M 1011.12 1305.44 C 1014.14 1312.97 1017.34 1327.05 1019.46 1335.34 L 1032.69 1387.18 C 1045.41 1437 1059.26 1486.72 1071.22 1536.72 C 1076.55 1559.01 1115.41 1732.07 1114.12 1736.01 L 1113.14 1736.69 C 1061.53 1729.16 1002.78 1712.8 953.037 1696.85 C 949.459 1665.53 948.954 1629.27 945.962 1597.36 C 945.142 1588.61 941.686 1540.75 942.493 1536.03 C 945.355 1519.26 957.82 1481.48 963.362 1463.57 C 979.595 1411.13 994.672 1357.68 1011.12 1305.44 z"/>
<path transform="translate(0,0)" fill="rgb(214,219,213)" d="M 953.898 1769.49 C 955.124 1757.08 954.072 1745.66 953.392 1733.23 C 953.837 1740.01 954.166 1757.68 956.904 1762.96 C 957.864 1768.22 959.401 1781.27 958.231 1786.18 C 955.705 1787.13 955.307 1787.06 952.581 1787.35 C 953.273 1793.57 953.912 1804.35 955.659 1809.79 L 959.058 1809.7 C 961.676 1812.44 963.701 1820.11 965.03 1824.09 C 972.574 1822.18 991.258 1822.67 999.85 1822.67 C 1030.33 1822.63 1060.8 1823.32 1091.25 1824.73 L 1091.79 1824.43 C 1095.36 1824.93 1095.16 1825.09 1098.48 1823.81 C 1101.18 1820.61 1100.32 1822.47 1100.51 1817.77 C 1104.4 1818.89 1108.87 1820.19 1111.23 1816.11 L 1109.74 1812.92 L 1110.56 1812.29 C 1112.2 1812.93 1113.43 1813.74 1114.86 1814.77 C 1117.92 1814.18 1119.13 1813.01 1121.67 1811.24 C 1121.13 1809.97 1120.69 1809.01 1120.11 1807.78 C 1123.16 1806.82 1127 1808.36 1128.85 1807.59 C 1135.06 1804.99 1134.69 1803.83 1141.24 1807.35 C 1141.75 1802.96 1139.04 1795.03 1138.47 1789.72 L 1138.28 1787.75 L 1137.34 1786.11 C 1134.54 1784.48 1129.29 1784.97 1125.81 1784.97 L 1127.31 1782 L 1129.83 1781.48 C 1139.48 1780.13 1168.71 1782.28 1175.47 1780.13 L 1175.89 1777.82 C 1176.87 1774.14 1176.99 1773.57 1178.61 1770.2 C 1179.59 1774.2 1181.32 1779.1 1180.33 1782.89 C 1177.23 1786.17 1175.66 1785.28 1171.2 1785.05 C 1174.72 1794.76 1175.04 1809.22 1179 1817.61 C 1180.38 1817.9 1181.77 1818.17 1183.16 1818.4 C 1185.16 1822.58 1187.05 1831.76 1189.87 1833.19 C 1205.58 1832.31 1277.83 1842.89 1281.65 1859.51 C 1281.25 1861.52 1280.9 1862.51 1279.53 1864.11 C 1264.27 1881.9 1162.38 1890.38 1135.95 1892.11 C 1060.4 1896.96 984.627 1897.61 908.997 1894.05 C 884.392 1892.84 729.498 1885.42 727.973 1858.55 C 733.596 1840.62 818.869 1830.51 837.932 1831.48 C 844.895 1831.29 863.205 1822.48 867.957 1818.37 L 867.353 1815.77 C 869.993 1815.16 869.977 1815.55 872.675 1816.13 C 876.677 1814.66 875.235 1815.88 877.555 1812.9 L 876.755 1809.55 L 877.511 1809.35 C 880.388 1810.66 880.619 1811.07 883.793 1810.74 C 887.286 1808.61 886.655 1809.89 887.978 1807.01 L 886.499 1804.74 L 887.587 1803.93 L 892.02 1806.17 C 895.352 1805.07 895.338 1805.22 898.116 1802.78 L 897.099 1799.96 C 901.059 1797.82 916.705 1800.5 915.817 1788.78 C 913.141 1787.05 907.136 1787.3 902.39 1786.29 C 899.333 1783.76 900.299 1784.27 899.392 1779.17 L 903.577 1779.18 L 904.45 1781.62 C 908.373 1783.51 924.497 1783.32 929.787 1782.69 C 933.384 1782.25 929.835 1779.53 931.968 1773.99 L 933.419 1774.64 C 933.77 1777.45 934.029 1779.37 934.604 1782.18 C 938.424 1783.32 949.662 1782.7 954.289 1782.6 L 953.898 1769.49 z"/>
<path transform="translate(0,0)" fill="rgb(40,37,86)" d="M 1178.61 1770.2 C 1179.59 1774.2 1181.32 1779.1 1180.33 1782.89 C 1177.23 1786.17 1175.66 1785.28 1171.2 1785.05 C 1174.72 1794.76 1175.04 1809.22 1179 1817.61 C 1180.38 1817.9 1181.77 1818.17 1183.16 1818.4 C 1185.16 1822.58 1187.05 1831.76 1189.87 1833.19 C 1187.05 1837.65 1199.12 1851.64 1194.86 1863.42 C 1186.67 1871.28 1100.77 1868.41 1085.25 1869.15 C 1074.29 1869.67 1053.9 1869.89 1044.9 1862.84 C 1036.34 1848.04 1081.15 1835.08 1091.38 1826.8 L 1091.25 1824.73 L 1091.79 1824.43 C 1095.36 1824.93 1095.16 1825.09 1098.48 1823.81 C 1101.18 1820.61 1100.32 1822.47 1100.51 1817.77 C 1104.4 1818.89 1108.87 1820.19 1111.23 1816.11 L 1109.74 1812.92 L 1110.56 1812.29 C 1112.2 1812.93 1113.43 1813.74 1114.86 1814.77 C 1117.92 1814.18 1119.13 1813.01 1121.67 1811.24 C 1121.13 1809.97 1120.69 1809.01 1120.11 1807.78 C 1123.16 1806.82 1127 1808.36 1128.85 1807.59 C 1135.06 1804.99 1134.69 1803.83 1141.24 1807.35 C 1141.75 1802.96 1139.04 1795.03 1138.47 1789.72 L 1138.28 1787.75 L 1137.34 1786.11 C 1134.54 1784.48 1129.29 1784.97 1125.81 1784.97 L 1127.31 1782 L 1129.83 1781.48 C 1139.48 1780.13 1168.71 1782.28 1175.47 1780.13 L 1175.89 1777.82 C 1176.87 1774.14 1176.99 1773.57 1178.61 1770.2 z"/>
<path transform="translate(0,0)" fill="rgb(190,201,214)" d="M 1066.09 1846.34 C 1067.98 1843.39 1091.51 1831.17 1094.85 1831.48 C 1096.56 1833.34 1097.21 1834.05 1099.15 1835.64 L 1099.97 1834.43 L 1097.32 1830.17 C 1099.75 1824.81 1104.89 1826.79 1108.86 1828.81 C 1108.37 1823.91 1107.85 1826.04 1109.81 1822.06 C 1114.99 1818.6 1115.66 1819.81 1119.64 1822.87 L 1120.98 1822.34 L 1118.79 1819.29 L 1119.4 1817.68 C 1126.76 1813.32 1125.53 1812.57 1131.45 1817.53 L 1132.41 1816.48 L 1130 1813.17 C 1132.01 1810.77 1130.93 1811.84 1134.26 1810.53 C 1144.93 1816.54 1147.01 1852.61 1180.97 1824.43 L 1187.3 1842.84 C 1189.21 1848.23 1193.17 1856.25 1190.44 1861.54 C 1175.7 1864.85 1062.24 1867.97 1052.26 1862.41 C 1049.97 1861.13 1049.51 1860.22 1048.94 1857.75 C 1050.93 1852.2 1059.37 1846.97 1065.05 1847.24 L 1066.09 1846.34 z"/>
<path transform="translate(0,0)" fill="url(#Gradient1)" d="M 1160.4 1859.28 C 1182.9 1866.11 1170.79 1840.99 1187.3 1842.84 C 1189.21 1848.23 1193.17 1856.25 1190.44 1861.54 C 1175.7 1864.85 1062.24 1867.97 1052.26 1862.41 C 1049.97 1861.13 1049.51 1860.22 1048.94 1857.75 C 1050.93 1852.2 1059.37 1846.97 1065.05 1847.24 C 1066.31 1849.73 1067.55 1852.09 1068.65 1854.66 L 1069.47 1854.87 C 1072.82 1855.31 1076.16 1855.77 1079.5 1856.26 C 1076.55 1856.64 1074.09 1856.54 1071.93 1858.4 C 1080.4 1861.24 1146.69 1858.51 1160.4 1859.28 z"/>
<path transform="translate(0,0)" fill="rgb(51,57,98)" d="M 1079.5 1856.26 C 1092.53 1860.06 1165.95 1854.2 1170.24 1858.25 C 1166.11 1859.72 1164.91 1859.41 1160.4 1859.28 C 1146.69 1858.51 1080.4 1861.24 1071.93 1858.4 C 1074.09 1856.54 1076.55 1856.64 1079.5 1856.26 z"/>
<path transform="translate(0,0)" fill="rgb(51,57,98)" d="M 1066.09 1846.34 C 1068.88 1849.42 1070.55 1850.52 1069.47 1854.87 L 1068.65 1854.66 C 1067.55 1852.09 1066.31 1849.73 1065.05 1847.24 L 1066.09 1846.34 z"/>
<path transform="translate(0,0)" fill="rgb(245,207,196)" d="M 1141.7 1785.46 C 1147.36 1785.12 1164.58 1783.72 1168.35 1786.64 C 1168.74 1789.65 1169.12 1793.53 1169.64 1796.44 C 1171.5 1805.54 1173.35 1814.82 1175.61 1823.81 C 1165.85 1830.64 1155.53 1832.6 1145.65 1822.29 C 1143.79 1820.35 1143.48 1816.44 1143.29 1813.82 C 1148.75 1806.83 1146.03 1805.06 1144.29 1796.83 C 1143.33 1793.27 1142.51 1789.11 1141.7 1785.46 z"/>
<path transform="translate(0,0)" fill="rgb(238,171,151)" d="M 1141.7 1785.46 C 1147.36 1785.12 1164.58 1783.72 1168.35 1786.64 C 1168.74 1789.65 1169.12 1793.53 1169.64 1796.44 C 1165.02 1796.19 1148.31 1794.8 1144.98 1795.99 L 1144.29 1796.83 C 1143.33 1793.27 1142.51 1789.11 1141.7 1785.46 z"/>
<path transform="translate(0,0)" fill="rgb(53,35,48)" d="M 1162.57 1809.41 C 1166.07 1810.84 1166.36 1812.18 1167.06 1815.51 C 1166.06 1819.38 1165.73 1819.47 1162.64 1822.27 L 1161.7 1820.98 C 1165.35 1815.57 1165.01 1815.03 1162.57 1809.41 z"/>
<path transform="translate(0,0)" fill="rgb(40,37,86)" d="M 953.898 1769.49 C 955.124 1757.08 954.072 1745.66 953.392 1733.23 C 953.837 1740.01 954.166 1757.68 956.904 1762.96 C 957.864 1768.22 959.401 1781.27 958.231 1786.18 C 955.705 1787.13 955.307 1787.06 952.581 1787.35 C 953.273 1793.57 953.912 1804.35 955.659 1809.79 L 959.058 1809.7 C 961.676 1812.44 963.701 1820.11 965.03 1824.09 C 968.041 1832.73 973.713 1844.96 971.709 1853.4 C 968.271 1857.79 963.275 1858.55 957.843 1858.88 C 940.914 1859.91 923.787 1860.1 906.836 1860.37 C 890.085 1860.73 873.329 1860.75 856.577 1860.43 C 847.3 1860.31 821.515 1863.3 820.301 1849.91 C 819.484 1840.88 836.364 1837.16 839.938 1832.23 L 837.932 1831.48 C 844.895 1831.29 863.205 1822.48 867.957 1818.37 L 867.353 1815.77 C 869.993 1815.16 869.977 1815.55 872.675 1816.13 C 876.677 1814.66 875.235 1815.88 877.555 1812.9 L 876.755 1809.55 L 877.511 1809.35 C 880.388 1810.66 880.619 1811.07 883.793 1810.74 C 887.286 1808.61 886.655 1809.89 887.978 1807.01 L 886.499 1804.74 L 887.587 1803.93 L 892.02 1806.17 C 895.352 1805.07 895.338 1805.22 898.116 1802.78 L 897.099 1799.96 C 901.059 1797.82 916.705 1800.5 915.817 1788.78 C 913.141 1787.05 907.136 1787.3 902.39 1786.29 C 899.333 1783.76 900.299 1784.27 899.392 1779.17 L 903.577 1779.18 L 904.45 1781.62 C 908.373 1783.51 924.497 1783.32 929.787 1782.69 C 933.384 1782.25 929.835 1779.53 931.968 1773.99 L 933.419 1774.64 C 933.77 1777.45 934.029 1779.37 934.604 1782.18 C 938.424 1783.32 949.662 1782.7 954.289 1782.6 L 953.898 1769.49 z"/>
<path transform="translate(0,0)" fill="rgb(190,201,214)" d="M 842.529 1837.09 C 846.94 1834.21 867.238 1823.04 871.592 1822.72 C 873.243 1824.76 873.823 1825.78 876.015 1827.22 C 878.75 1824.91 873.92 1825.96 874.909 1820.26 C 877.821 1818.19 877.697 1818.11 881.355 1817.25 L 884.975 1820.52 L 886.002 1820.03 L 884.013 1815.87 C 888.262 1810.45 891.141 1811.75 896.297 1814.48 L 897.616 1813.67 L 895.297 1810.24 C 897.122 1807.91 901.445 1805.67 904.385 1805.35 C 906.129 1807.34 906.145 1807.65 908.433 1808.86 C 908.335 1806.86 907.971 1806.23 907.296 1804.32 L 908.15 1802.54 L 911.291 1801.99 C 914.278 1803.66 918.402 1813.46 921.096 1816.87 C 932.852 1831.74 944.818 1826.47 957.57 1816.06 L 961.847 1828.34 C 964.261 1834.88 969.108 1845.64 967.704 1852.07 C 959.817 1858.46 858.226 1855.65 841.464 1856.07 C 836.257 1856.2 828.323 1855.97 824.796 1851.43 C 824.944 1844.42 835.185 1839.49 841.172 1838.19 L 842.529 1837.09 z"/>
<path transform="translate(0,0)" fill="rgb(190,201,214)" d="M 960.426 1834.32 C 960.489 1831.96 961.131 1830.65 961.847 1828.34 C 964.261 1834.88 969.108 1845.64 967.704 1852.07 C 959.817 1858.46 858.226 1855.65 841.464 1856.07 C 836.257 1856.2 828.323 1855.97 824.796 1851.43 C 824.944 1844.42 835.185 1839.49 841.172 1838.19 C 843.562 1842.26 844.528 1843.6 845.931 1848.01 L 848.176 1849.25 C 856.078 1848.09 943.097 1848.02 947.438 1849.52 L 949.588 1847.63 C 951.299 1845.28 960.245 1834.95 960.426 1834.32 z"/>
<path transform="translate(0,0)" fill="rgb(51,57,98)" d="M 848.176 1849.25 C 856.078 1848.09 943.097 1848.02 947.438 1849.52 C 946.808 1850.42 947.303 1849.82 945.558 1850.9 C 918.016 1850.97 878.671 1851.33 849.978 1850.75 C 849.377 1850.25 848.777 1849.75 848.176 1849.25 z"/>
<path transform="translate(0,0)" fill="rgb(51,57,98)" d="M 960.426 1834.32 C 960.245 1834.95 951.299 1845.28 949.588 1847.63 C 949.342 1842.17 954.92 1835.11 960.426 1834.32 z"/>
<path transform="translate(0,0)" fill="rgb(51,57,98)" d="M 841.172 1838.19 L 842.529 1837.09 C 845.218 1840.52 846.367 1841.33 846.858 1845.44 L 845.931 1848.01 C 844.528 1843.6 843.562 1842.26 841.172 1838.19 z"/>
<path transform="translate(0,0)" fill="rgb(245,207,196)" d="M 921.447 1786.91 C 930.31 1787.08 938.488 1785.27 946.558 1787.83 C 949.242 1790.85 948.4 1790.11 949.064 1794.9 L 951.617 1815.48 C 938.528 1825.47 923.708 1822.01 919.503 1805.53 L 920.813 1804.31 C 923.093 1802.14 923.549 1801.92 923.817 1799.04 C 922.978 1796.49 921.976 1789.85 921.447 1786.91 z"/>
<path transform="translate(0,0)" fill="rgb(238,171,151)" d="M 921.447 1786.91 C 930.31 1787.08 938.488 1785.27 946.558 1787.83 C 949.242 1790.85 948.4 1790.11 949.064 1794.9 C 944.072 1794.82 927.992 1794.07 923.95 1796.11 L 923.817 1799.04 C 922.978 1796.49 921.976 1789.85 921.447 1786.91 z"/>
<path transform="translate(0,0)" fill="rgb(53,35,48)" d="M 939.429 1800.61 C 942.765 1802.83 942.764 1803.38 943.703 1806.51 C 942.966 1810.38 942.593 1810.54 939.906 1813.64 L 938.746 1812.38 C 942.064 1807.31 941.243 1805.66 939.429 1800.61 z"/>
<path transform="translate(0,0)" fill="rgb(35,35,99)" d="M 982.609 1275.99 C 981.588 1275.48 978.556 1274.32 978.475 1273.35 C 977.727 1264.36 974.047 1223.04 977.403 1217.01 L 978.703 1217.37 C 981.138 1225.62 981.548 1260.01 982.062 1271.02 C 990.666 1275.01 997.741 1278.54 1006.07 1283.08 C 1004.34 1277.56 1002.51 1273.63 1003.37 1267.99 L 1004.4 1266.82 C 1008.58 1271.02 1032.24 1369.34 1036.11 1383.48 C 1060.44 1472.2 1081.11 1561.25 1100.72 1651.09 L 1119.37 1735.91 C 1121.16 1744.29 1127.21 1776.06 1129.83 1781.48 L 1127.31 1782 L 1125.81 1784.97 C 1122.83 1777.76 1118.96 1749.42 1115.9 1740.3 C 1114.84 1737.14 1116.04 1738.16 1113.14 1736.69 L 1114.12 1736.01 C 1115.41 1732.07 1076.55 1559.01 1071.22 1536.72 C 1059.26 1486.72 1045.41 1437 1032.69 1387.18 L 1019.46 1335.34 C 1017.34 1327.05 1014.14 1312.97 1011.12 1305.44 C 994.672 1357.68 979.595 1411.13 963.362 1463.57 C 957.82 1481.48 945.355 1519.26 942.493 1536.03 C 941.686 1540.75 945.142 1588.61 945.962 1597.36 C 948.954 1629.27 949.459 1665.53 953.037 1696.85 C 953.164 1714.75 957.892 1747.97 956.904 1762.96 C 954.166 1757.68 953.837 1740.01 953.392 1733.23 C 954.072 1745.66 955.124 1757.08 953.898 1769.49 C 952.517 1761.43 951.68 1741.43 951.065 1732.5 L 945.981 1658.57 L 940.38 1576.94 C 939.838 1569.05 936.985 1537.42 938.52 1531.69 C 943.963 1511.39 951.733 1487.45 957.863 1467.24 L 1000.61 1325.97 C 995.988 1315.41 992.826 1303.33 987.95 1292.78 C 984.994 1286.38 985.724 1282.1 982.609 1275.99 z"/>
<path transform="translate(0,0)" fill="rgb(51,125,168)" d="M 982.609 1275.99 C 1019.84 1292.57 1007.87 1292.89 1000.61 1325.97 C 995.988 1315.41 992.826 1303.33 987.95 1292.78 C 984.994 1286.38 985.724 1282.1 982.609 1275.99 z"/>
<path transform="translate(0,0)" fill="rgb(35,35,99)" d="M 1038.92 1212.31 C 1041.83 1211.27 1041.69 1211.44 1044.8 1211.91 L 1045.7 1212.94 C 1073.25 1243.64 1083.71 1230.16 1115.92 1235.29 C 1117.51 1237.73 1116.86 1238.06 1116.73 1241.63 L 1115.84 1242.72 L 1114.83 1242.07 L 1114.28 1239.56 C 1110.78 1238.21 1102.88 1239.03 1098.82 1239.05 C 1068.33 1239.21 1058.68 1233.18 1038.92 1212.31 z"/>
<path transform="translate(0,0)" fill="rgb(35,35,99)" d="M 1115.1 1266.69 C 1117.81 1268.93 1116.93 1271.18 1116.91 1274.5 L 1115.71 1274.22 C 1114.05 1271.53 1114.84 1270.61 1115.1 1266.69 z"/>
<path transform="translate(0,0)" fill="rgb(35,35,99)" d="M 1137.65 1658.43 C 1140.87 1660.49 1140.18 1660.92 1140.67 1664.47 L 1139.62 1664.81 C 1137.8 1663.31 1138.16 1661.5 1137.65 1658.43 z"/>
<path transform="translate(0,0)" fill="rgb(35,35,99)" d="M 1115.87 1348.52 C 1117.58 1351.8 1117.39 1352.63 1116.46 1355.92 L 1115.84 1355.53 C 1114.4 1352.43 1115.08 1352.7 1115.87 1348.52 z"/>
<path transform="translate(0,0)" fill="rgb(35,35,99)" d="M 1115.19 1318.53 C 1116.42 1318.16 1115.75 1318.16 1117.17 1318.87 L 1116.83 1322.48 C 1115.63 1322.84 1116.28 1322.85 1114.92 1322.13 L 1115.19 1318.53 z"/>
<path transform="translate(0,0)" fill="rgb(35,35,99)" d="M 1116.14 1531.54 C 1117.37 1531.16 1116.71 1531.16 1118.12 1531.87 L 1117.76 1535.49 C 1116.57 1535.85 1117.22 1535.85 1115.84 1535.13 L 1116.14 1531.54 z"/>
<path transform="translate(0,0)" fill="rgb(254,254,254)" d="M 598.161 280.222 C 618.866 254.683 635.684 238.875 668.475 227.942 C 724.232 209.352 792.249 222.75 831.281 268.196 C 836.496 274.268 851.667 299.727 853.675 300.038 C 872.987 303.029 881.942 294.404 903.945 305.596 C 916.307 316.218 925.426 326.746 926.643 343.914 C 926.909 347.692 926.821 351.486 926.38 355.247 C 934.196 353.276 942.339 351.023 950.419 351.153 C 1011.82 352.142 1051.57 406.699 1035 464.485 C 1060.91 452.111 1090.65 449.536 1117.28 461.686 C 1129.73 467.223 1135.11 471.02 1145.55 480.058 C 1198.57 476.657 1261.41 473.526 1309.97 497.392 C 1295.28 513.488 1284.99 515.342 1263.85 516.294 C 1230.65 517.994 1197.41 518.773 1164.17 518.63 C 1149.57 518.634 1131.2 519.086 1116.84 517.894 C 1117.36 512.139 1117.8 506.378 1118.16 500.611 C 1092.46 508.06 1077.54 509.443 1050.89 508.937 C 1017.66 509.116 996.073 507.706 962.973 515.421 C 954.481 518.478 948.302 520.951 940.105 524.71 C 929.202 526.71 904.001 536.909 891.928 540.563 C 844.588 554.893 802.49 558.962 757.814 534.623 C 735.794 522.626 714.43 515.049 689.121 512.641 C 584.304 502.86 494.815 569.184 388.612 542.143 C 333.247 528.047 308.663 517.248 290.986 458.055 C 325.022 411.916 377.274 393.752 432.42 409.21 C 429.576 386.313 431.4 379.724 440.382 358.344 C 452.135 329.683 487.595 309.174 514.116 295.564 C 542.077 281.215 567.134 276.963 598.161 280.222 z"/>
<path transform="translate(0,0)" fill="rgb(214,219,213)" d="M 962.973 515.421 C 978.375 501.316 1033.31 499.296 1050.89 508.937 C 1017.66 509.116 996.073 507.706 962.973 515.421 z"/>
<path transform="translate(0,0)" fill="rgb(190,201,214)" d="M 1313.34 339.996 C 1319.3 336.128 1324.93 330.388 1332.07 325.902 C 1357.43 309.97 1379.74 311.452 1407.73 317.695 C 1431.69 330.356 1442.8 336.202 1455.13 362.013 C 1478.08 352.489 1498.12 365.987 1498.31 390.667 C 1513.19 387.616 1525.46 388.174 1538.89 396.719 C 1550.85 404.274 1559.27 416.316 1562.28 430.141 C 1564.02 438.478 1563.4 445.242 1562.14 453.534 C 1575.82 446.362 1591.89 446.574 1605.24 453.122 C 1640.52 470.427 1675.97 459.646 1712.29 469.02 C 1722.2 472.85 1737.11 478.657 1730.24 492.193 C 1723.05 506.382 1699.14 504.676 1685.74 504.955 C 1605.36 506.626 1525.81 523.761 1445.16 520.077 C 1419.75 518.915 1394.44 515.872 1369.12 513.587 C 1357.81 512.625 1338.79 510.427 1327.82 510.985 C 1320.24 503.941 1318.95 502.366 1309.97 497.392 C 1261.41 473.526 1198.57 476.657 1145.55 480.058 C 1135.11 471.02 1129.73 467.223 1117.28 461.686 C 1121.28 458.341 1129.26 448.9 1135.17 443.675 C 1145.45 434.468 1146.64 433.484 1158.47 427.623 C 1173.27 420.291 1197.45 425.275 1207.92 416.182 C 1215.62 409.485 1224.52 392.514 1233.94 382.58 C 1247.87 367.901 1263.77 353.55 1284.08 348.377 C 1288.48 347.258 1303.05 346.948 1308.28 346.655 C 1312.06 344.26 1311 344.663 1313.34 339.996 z"/>
<path transform="translate(0,0)" fill="rgb(147,167,188)" d="M 1135.17 443.675 C 1140.32 445.853 1146.27 446.081 1151.02 448.538 C 1160.09 453.263 1166.37 459.716 1176.5 462.453 C 1204.27 469.955 1231.24 463.403 1258.82 460.102 C 1290.51 456.31 1320.8 479.124 1347.31 493.189 C 1360.39 500.283 1374.26 505.805 1388.64 509.642 C 1418.1 517.504 1460.27 518.851 1490.22 511.604 C 1556.11 495.66 1625.32 511.92 1690.6 493.193 C 1699.68 490.588 1708.13 477.151 1712.29 469.02 C 1722.2 472.85 1737.11 478.657 1730.24 492.193 C 1723.05 506.382 1699.14 504.676 1685.74 504.955 C 1605.36 506.626 1525.81 523.761 1445.16 520.077 C 1419.75 518.915 1394.44 515.872 1369.12 513.587 C 1357.81 512.625 1338.79 510.427 1327.82 510.985 C 1320.24 503.941 1318.95 502.366 1309.97 497.392 C 1261.41 473.526 1198.57 476.657 1145.55 480.058 C 1135.11 471.02 1129.73 467.223 1117.28 461.686 C 1121.28 458.341 1129.26 448.9 1135.17 443.675 z"/>
<path transform="translate(0,0)" fill="rgb(40,37,86)" d="M 1050.89 508.937 C 1077.54 509.443 1092.46 508.06 1118.16 500.611 C 1117.8 506.378 1117.36 512.139 1116.84 517.894 C 1115.24 530.326 1112.85 551.323 1109.28 563.196 L 1108.97 564.805 C 1103.72 590.037 1097.59 607.737 1081.13 627.483 C 1092.89 640.883 1092.29 659.81 1077.42 670.548 C 1083.74 706.415 1082.14 721.567 1053.3 747.002 C 1064.93 747.104 1104.8 751.525 1109.38 763.062 C 1107.72 762.814 1107.17 762.677 1105.56 762.274 L 1104.32 763.586 L 1103.38 763.662 C 1064.01 779.016 1027.25 816.827 1003.83 851.044 C 999.084 857.982 991.603 869.347 988.705 877.212 C 987.778 880.535 987.081 879.198 986.168 881.705 C 967.555 857.93 956.015 844.441 957.195 813.226 L 958.039 810.829 L 956.647 810.607 L 956.202 809.562 L 958.048 808.675 C 959.618 810.724 957.228 830.183 962.397 840.398 C 963.18 835.33 957.057 820.467 960.151 812.28 C 961.541 808.602 959.712 800.309 963.185 796.045 C 958.577 797.669 957.7 799.939 954.781 799.717 C 959.111 792.5 977.992 777.483 988.124 773.935 C 988.122 767.618 987.841 761.012 987.661 754.675 C 985.911 754.068 984.164 753.449 982.422 752.82 C 958.393 744.117 951.107 731.658 940.767 709.71 C 919.723 709 908.002 700.399 908.96 677.66 C 896.949 664.091 893.638 657.925 888.16 640.903 C 889.297 638.663 889.419 638.922 891.258 637.021 C 888.216 616.552 887.082 600.224 905.177 585.818 L 904.839 584.979 C 901.691 581.058 905.728 585.247 906.196 578.013 L 905.589 576.603 C 905.89 574.557 906.235 572.518 906.623 570.487 C 910.933 548.317 922.053 536.764 940.105 524.71 C 948.302 520.951 954.481 518.478 962.973 515.421 C 996.073 507.706 1017.66 509.116 1050.89 508.937 z"/>
<path transform="translate(0,0)" fill="rgb(252,229,110)" d="M 1050.89 508.937 C 1077.54 509.443 1092.46 508.06 1118.16 500.611 C 1117.8 506.378 1117.36 512.139 1116.84 517.894 C 1115.24 530.326 1112.85 551.323 1109.28 563.196 L 1108.97 564.805 L 1105.1 564.266 C 1099.39 587.309 1094.26 607.591 1077.39 625.009 C 1074.01 624.645 1070.42 624.149 1067.05 624.103 L 1066.63 624.274 C 1059.61 620.039 1061.73 590.154 1032.5 573.149 L 1031.61 572.638 L 1031.93 571.35 L 1026.98 570.447 C 1014.23 568.076 1009.63 568.51 997.099 568.338 L 994.997 567.427 C 990.719 569.772 964.64 578.416 960.372 578.747 L 958.418 578.453 C 956.071 582.179 940.095 592.046 936.157 592.804 L 934.359 593.997 L 929.081 599.542 C 910.091 619.553 918.401 639.71 924.351 662.917 C 918.458 666.058 915.241 668.037 910.68 673.207 C 899.64 660.397 895.952 653.635 891.258 637.021 C 888.216 616.552 887.082 600.224 905.177 585.818 L 904.839 584.979 C 901.691 581.058 905.728 585.247 906.196 578.013 L 905.589 576.603 C 905.89 574.557 906.235 572.518 906.623 570.487 C 910.933 548.317 922.053 536.764 940.105 524.71 C 948.302 520.951 954.481 518.478 962.973 515.421 C 996.073 507.706 1017.66 509.116 1050.89 508.937 z"/>
<path transform="translate(0,0)" fill="rgb(221,188,86)" d="M 905.177 585.818 C 904.495 587.693 904.544 587.44 904.18 589.453 L 905.624 590.135 C 921.187 581.785 924.049 562.969 939.632 550.872 C 950.353 542.549 952.062 542.264 964.613 536.462 C 987.806 524.894 1011.05 528.477 1035.34 534.809 C 1059.06 540.992 1072.66 543.147 1092.33 525.27 C 1090.69 533.974 1090.01 544.122 1089.88 552.978 L 1090.05 554.484 L 1088.67 555.883 C 1068.89 565.779 1054.36 570.069 1031.93 571.35 L 1026.98 570.447 C 1014.23 568.076 1009.63 568.51 997.099 568.338 L 994.997 567.427 C 990.719 569.772 964.64 578.416 960.372 578.747 L 958.418 578.453 C 956.071 582.179 940.095 592.046 936.157 592.804 L 934.359 593.997 L 929.081 599.542 C 910.091 619.553 918.401 639.71 924.351 662.917 C 918.458 666.058 915.241 668.037 910.68 673.207 C 899.64 660.397 895.952 653.635 891.258 637.021 C 888.216 616.552 887.082 600.224 905.177 585.818 z"/>
<path transform="translate(0,0)" fill="rgb(48,40,20)" d="M 934.359 593.997 C 935.277 579.156 936.419 571.989 946.018 559.119 C 953.434 549.177 974.449 538.521 986.107 537.449 L 986.372 538.6 C 955.754 550.235 939.954 556.134 936.157 592.804 L 934.359 593.997 z"/>
<path transform="translate(0,0)" fill="rgb(48,40,20)" d="M 958.418 578.453 C 970.613 554.223 995.38 541.634 1022.05 540.917 L 1022.11 541.787 C 1016.44 544.199 1009.68 544.632 1003.55 546.173 C 984.571 550.944 968.974 560.62 960.372 578.747 L 958.418 578.453 z"/>
<path transform="translate(0,0)" fill="rgb(48,40,20)" d="M 1089.88 552.978 L 1090.05 554.484 L 1088.67 555.883 C 1068.89 565.779 1054.36 570.069 1031.93 571.35 L 1026.98 570.447 C 1042.08 568.438 1058.07 566.64 1072.41 561.429 C 1078.28 559.299 1083.67 555.1 1089.88 552.978 z"/>
<path transform="translate(0,0)" fill="rgb(48,40,20)" d="M 994.997 567.427 C 1001.98 560.203 1035.19 546.029 1043.22 550.843 L 1042.69 551.695 C 1028.18 555.02 1009.63 555.806 997.099 568.338 L 994.997 567.427 z"/>
<path transform="translate(0,0)" fill="rgb(221,188,86)" d="M 1088.67 555.883 C 1084.21 584.531 1079.4 597.982 1067.05 624.103 L 1066.63 624.274 C 1059.61 620.039 1061.73 590.154 1032.5 573.149 L 1031.61 572.638 L 1031.93 571.35 C 1054.36 570.069 1068.89 565.779 1088.67 555.883 z"/>
<path transform="translate(0,0)" fill="rgb(40,37,86)" d="M 1050.89 508.937 C 1077.54 509.443 1092.46 508.06 1118.16 500.611 C 1117.8 506.378 1117.36 512.139 1116.84 517.894 C 1115.24 530.326 1112.85 551.323 1109.28 563.196 L 1108.97 564.805 L 1105.1 564.266 C 1108.97 545.462 1112.45 525.59 1113.47 506.391 C 1099.29 510.17 1085.18 512.541 1071.04 512.946 C 1013.27 514.599 917.922 501.509 909.101 581.37 C 908.967 582.584 905.894 584.432 904.839 584.979 C 901.691 581.058 905.728 585.247 906.196 578.013 L 905.589 576.603 C 905.89 574.557 906.235 572.518 906.623 570.487 C 910.933 548.317 922.053 536.764 940.105 524.71 C 948.302 520.951 954.481 518.478 962.973 515.421 C 996.073 507.706 1017.66 509.116 1050.89 508.937 z"/>
<path transform="translate(0,0)" fill="rgb(254,89,95)" d="M 1041.25 752.415 C 1063.16 749.281 1084.61 751.06 1103.38 763.662 C 1064.01 779.016 1027.25 816.827 1003.83 851.044 C 999.084 857.982 991.603 869.347 988.705 877.212 C 960.545 851.424 944.361 798.458 988.011 777.882 C 986.408 786.921 982.164 795.548 980.672 804.758 C 977.685 823.196 983.043 835.186 993.081 849.408 C 1010.08 818.681 1023.39 799.727 1047.9 774.486 C 1044.68 766.608 1043.03 760.66 1041.25 752.415 z"/>
<path transform="translate(0,0)" fill="rgb(245,207,196)" d="M 945.454 592.727 C 978.712 573.229 1031.86 555.321 1052.21 601.047 C 1063.64 626.722 1070.83 656.855 1075.69 684.396 C 1081.37 716.618 1061.56 743.748 1030.68 751.143 C 951.662 765.786 939.732 702.966 923.325 641.502 C 916.835 617.188 925.568 605.48 945.454 592.727 z"/>
<path transform="translate(0,0)" fill="rgb(238,171,151)" d="M 945.454 592.727 C 935.352 634.761 934.983 640.784 951.342 683.392 C 963.446 714.918 973.195 739.216 1010.42 747.051 C 1015.92 748.208 1025.75 749.357 1030.68 751.143 C 951.662 765.786 939.732 702.966 923.325 641.502 C 916.835 617.188 925.568 605.48 945.454 592.727 z"/>
<path transform="translate(0,0)" fill="rgb(53,35,48)" d="M 1042.57 691.882 C 1048.27 692.747 1057.58 696.127 1059.46 701.98 C 1056.93 711.107 1043.22 713.27 1032.58 720.047 C 1028.39 719.319 1024.11 718.385 1019.93 717.534 C 1014.52 722.214 1012.78 723.317 1006.61 726.899 C 995.319 727.965 985.942 719.78 995.134 709.103 C 998.631 705.041 1005.79 705.83 1010.95 705.937 C 1013.48 700.81 1013.94 698.632 1018.9 696.454 C 1023.04 696.631 1025.64 698.621 1029.33 700.698 C 1034.34 696.285 1036.54 694.629 1042.57 691.882 z"/>
<path transform="translate(0,0)" fill="rgb(238,171,151)" d="M 1042.61 693.701 C 1046.92 694.639 1059.06 699.75 1056.92 705.468 C 1045.53 713.295 1025.42 695.42 1002.93 722.315 L 1001.1 724.346 C 995.615 724.188 993.815 719.682 993.637 714.885 C 996.963 706.432 1004.3 707.857 1011.81 708.074 L 1018.19 697.157 C 1021.68 698.758 1025.89 701.442 1029.27 703.456 C 1034.65 698.809 1036.37 697.244 1042.61 693.701 z"/>
<path transform="translate(0,0)" fill="rgb(240,163,214)" d="M 1037.76 708.349 C 1041.28 708.389 1044.31 708.061 1047.46 709.474 C 1045.34 711.149 1036.15 715.368 1032.27 717.955 C 1022.78 716.299 1021.46 713.373 1014.15 719.944 C 1011.66 721.724 1008.83 724.107 1005.89 723.793 C 1007 713.317 1029.13 709.172 1037.76 708.349 z"/>
<path transform="translate(0,0)" fill="rgb(40,37,86)" d="M 1006.72 626.247 L 1009.03 626.865 C 1012.28 629.496 1012.43 635.688 1014.74 638.928 C 1026.44 655.35 1041.45 658.557 1021.12 678.539 L 1018.92 677.433 C 1018.67 675.424 1026.34 664.49 1028.1 660.092 C 1018.8 648.513 1007.94 644.285 1006.72 626.247 z"/>
<path transform="translate(0,0)" fill="rgb(40,37,86)" d="M 978.62 619.607 C 980.448 621.054 979.799 620.127 980.51 622.427 C 976.938 630.266 962.649 642.405 955.575 647.398 C 954.531 646.814 954.335 646.398 953.47 645.481 C 953.897 644.273 975.512 623.124 978.62 619.607 z"/>
<path transform="translate(0,0)" fill="rgb(35,35,99)" d="M 981.848 652.533 C 985.356 651.807 988.814 653.973 989.691 657.447 C 990.568 660.921 988.553 664.469 985.12 665.495 C 982.764 666.2 980.211 665.554 978.472 663.815 C 976.734 662.076 976.089 659.523 976.794 657.167 C 977.499 654.811 979.44 653.032 981.848 652.533 z"/>
<path transform="translate(0,0)" fill="rgb(35,35,99)" d="M 1038 635.492 C 1040.32 634.828 1042.82 635.463 1044.54 637.155 C 1046.26 638.846 1046.93 641.332 1046.3 643.66 C 1045.68 645.988 1043.84 647.799 1041.51 648.399 C 1037.97 649.309 1034.35 647.204 1033.39 643.674 C 1032.43 640.144 1034.49 636.499 1038 635.492 z"/>
<path transform="translate(0,0)" fill="rgb(40,37,86)" d="M 1014.04 609.935 C 1015.97 609.86 1026.66 612.896 1029.69 613.665 C 1034.93 614.997 1044.5 614.743 1047.28 615.693 L 1048.33 618.669 C 1039.59 619.679 1016.79 619.709 1014.04 609.935 z"/>
<path transform="translate(0,0)" fill="rgb(245,207,196)" d="M 991.82 755.547 C 1007.32 757.878 1021.88 757.936 1037.19 753.976 C 1038.39 758.939 1039.89 766.729 1042.66 770.773 C 1042.72 774.989 1036.38 780.442 1032.93 784.345 C 1017.29 801.877 1003.76 821.175 992.595 841.847 C 973.791 805.134 990.853 803.871 992.233 769.93 L 991.82 755.547 z"/>
<path transform="translate(0,0)" fill="rgb(238,171,151)" d="M 991.82 755.547 C 1007.32 757.878 1021.88 757.936 1037.19 753.976 C 1038.39 758.939 1039.89 766.729 1042.66 770.773 C 1030.08 773.704 1017.47 776.746 1004.55 774.05 C 1000.31 773.165 996.768 770.857 992.233 769.93 L 991.82 755.547 z"/>
<path transform="translate(0,0)" fill="rgb(245,207,196)" d="M 1068.16 628.034 C 1088.5 628.995 1089.89 655.57 1076.94 666.1 C 1075.12 659.544 1071.56 650.81 1074.5 645.426 C 1075.65 643.307 1075.68 642.307 1075.5 640.317 C 1074.16 641.674 1073.09 642.668 1071.66 643.93 C 1069.55 640.261 1066.96 632.074 1068.16 628.034 z"/>
<path transform="translate(0,0)" fill="rgb(238,171,151)" d="M 914.612 690.944 C 909.188 677.862 915.453 673.201 925.552 666.793 C 926.811 670.781 931.536 682.998 929.723 686.106 L 928.057 687.887 C 924.582 687.934 921.786 687.869 918.316 687.699 L 914.612 690.944 z"/>
<path transform="translate(0,0)" fill="rgb(53,35,48)" d="M 918.316 687.699 L 918.705 686.707 C 921.923 685.26 926.05 685.907 929.723 686.106 L 928.057 687.887 C 924.582 687.934 921.786 687.869 918.316 687.699 z"/>
<path transform="translate(0,0)" fill="rgb(238,171,151)" d="M 918.316 687.699 C 921.786 687.869 924.582 687.934 928.057 687.887 L 927.806 688.924 C 927.131 691.825 926.577 692.901 927.64 695.669 C 929.381 692.191 929.302 690.564 931.98 689.59 C 934.124 692.2 938.223 701.513 937.719 704.842 C 928.21 708.745 918.542 698.58 914.612 690.944 L 918.316 687.699 z"/>
<path transform="translate(0,0)" fill="rgb(214,219,213)" d="M 905.589 576.603 C 895.35 579.038 881.254 580.012 870.728 580.758 C 800.733 585.692 730.494 574.435 662.476 558.661 C 629.772 551.077 598.126 561.179 565.629 563.896 C 480.76 570.991 392.069 578.047 309.274 553.401 C 288.31 546.313 256.546 538.445 251.82 513.211 C 247.284 488.994 264.118 491.741 277.336 481.962 C 279.197 480.586 287.921 462.791 290.986 458.055 C 308.663 517.248 333.247 528.047 388.612 542.143 C 494.815 569.184 584.304 502.86 689.121 512.641 C 714.43 515.049 735.794 522.626 757.814 534.623 C 802.49 558.962 844.588 554.893 891.928 540.563 C 904.001 536.909 929.202 526.71 940.105 524.71 C 922.053 536.764 910.933 548.317 906.623 570.487 C 906.235 572.518 905.89 574.557 905.589 576.603 z"/>
<path transform="translate(0,0)" fill="rgb(156,210,197)" d="M 913.384 1178.71 C 914.582 1158.17 914.565 1133.58 915.187 1112.71 C 916.454 1065.65 918.277 1018.61 920.652 971.601 C 923.683 915.258 924.565 862.248 955.922 812.844 L 957.195 813.226 C 956.015 844.441 967.555 857.93 986.168 881.705 C 982.766 943.097 980.237 1004.53 978.583 1066 C 977.847 1093.78 976.046 1157.06 980.84 1182.95 C 958.532 1181.38 935.516 1180.87 913.384 1178.71 z"/>
<path transform="translate(0,0)" fill="rgb(252,229,110)" d="M 1229.6 208.779 C 1249.44 197.896 1267.36 192.353 1290.26 192.425 C 1321.68 192.461 1351.79 205.076 1373.85 227.454 C 1399.25 253.222 1408.11 282.367 1407.73 317.695 C 1379.74 311.452 1357.43 309.97 1332.07 325.902 C 1324.93 330.388 1319.3 336.128 1313.34 339.996 C 1313.88 338.18 1314.35 336.343 1314.76 334.491 C 1325.64 285.666 1302.71 237.511 1256.56 216.833 C 1247.36 212.712 1239.45 210.94 1229.6 208.779 z"/>
<path transform="translate(0,0)" fill="rgb(35,35,99)" d="M 884.53 1674.98 C 880.603 1640.96 873.898 1605.41 869.665 1571.38 C 868.6 1562.81 863.349 1532.49 864.026 1525.96 C 866.424 1502.85 871.867 1474.73 875.814 1451.58 L 902.454 1294.52 C 906.575 1270.29 911.586 1242.85 915.251 1218.85 C 917.22 1205.95 908.498 1182.26 909.45 1163.14 C 910.488 1164.97 909.46 1175.86 910.115 1177.88 C 914.076 1190.1 945.785 1178.18 956.141 1185.79 L 971.687 1186.61 C 974.957 1186.14 979.439 1184.97 982.077 1186.42 C 983.337 1189.1 983.927 1203.84 983.284 1207.39 L 984.279 1207.89 C 986.422 1199.57 982.317 1189.16 988.505 1184.96 C 991.445 1184.87 995.186 1185.6 997.335 1187.76 C 1028.37 1189.36 1059.44 1190.19 1090.51 1190.27 C 1101.19 1190.3 1119.77 1190.7 1129.66 1189.79 C 1143.71 1178 1152.35 1199.75 1147.63 1208.79 C 1128.44 1210.11 1103.7 1208.39 1083.6 1209.16 L 1083.7 1209.82 C 1094.24 1210.07 1141.61 1210.8 1149.35 1208.85 C 1150.47 1206.76 1147.22 1194.94 1148.65 1189.39 C 1149.81 1194.26 1150.98 1200.05 1150.98 1205.09 C 1150.98 1209.47 1147.9 1210.48 1147.65 1215.49 C 1147 1228.8 1146.86 1242.39 1146.57 1255.72 L 1143.27 1415.99 C 1142.34 1453.39 1140.45 1493.59 1141.02 1530.87 C 1141.44 1558.79 1151.06 1601.06 1155.74 1629.68 L 1167.59 1702.44 C 1169.57 1714.59 1171.77 1731.14 1174.44 1742.87 C 1175.9 1751.97 1177.3 1761.08 1178.61 1770.2 C 1176.99 1773.57 1176.87 1774.14 1175.89 1777.82 L 1150.34 1623.1 C 1145.84 1596 1140.6 1567.15 1137.05 1540.02 C 1136.13 1532.97 1137.08 1508.97 1137.26 1500.86 L 1138.77 1435.63 L 1143.25 1211.91 C 1110.48 1211.65 1077.63 1212.34 1044.8 1211.91 C 1041.69 1211.44 1041.83 1211.27 1038.92 1212.31 C 1035.64 1211.85 1011.11 1211.94 1006.81 1212.11 C 989.996 1212.79 965.846 1211.23 949.895 1213.11 C 946.492 1223.06 933.458 1237.43 922.43 1236.66 C 919.397 1234.9 920.464 1236.09 918.959 1233.11 L 920.539 1231.77 C 934.938 1229.58 938.948 1225.84 945.882 1213.21 C 937.796 1212.32 928.626 1212.66 920.409 1212.73 C 909.016 1286.81 895.14 1362.88 882.583 1436.94 L 873.778 1488.49 C 872.155 1497.76 867.328 1519.7 868.296 1527.74 C 878.373 1611.47 892.817 1695.56 903.577 1779.18 L 899.392 1779.17 C 896.243 1748.04 889.29 1706.49 884.53 1674.98 z"/>
<path transform="translate(0,0)" fill="rgb(254,89,95)" d="M 986.087 1187.39 L 997.335 1187.76 C 1028.37 1189.36 1059.44 1190.19 1090.51 1190.27 C 1101.19 1190.3 1119.77 1190.7 1129.66 1189.79 L 1144.72 1188.88 L 1146.95 1207.64 L 986.186 1208.16 L 986.087 1187.39 z"/>
<path transform="translate(0,0)" fill="rgb(254,89,95)" d="M 917.065 1184.93 C 930.734 1184.89 942.516 1184.88 956.141 1185.79 L 971.687 1186.61 C 977.208 1186.88 977.398 1185.95 981.038 1188.64 C 983.351 1193.8 982.205 1201.77 982.136 1208.17 L 917.992 1208.55 L 917.065 1184.93 z"/>
<path transform="translate(0,0)" fill="rgb(214,219,213)" d="M 1309.97 497.392 C 1318.95 502.366 1320.24 503.941 1327.82 510.985 C 1328.82 515.311 1329.69 518.605 1326.7 522.454 C 1311.18 542.383 1252.98 549.227 1230.51 553.485 C 1216.78 556.088 1116.4 566.026 1109.28 563.196 C 1112.85 551.323 1115.24 530.326 1116.84 517.894 C 1131.2 519.086 1149.57 518.634 1164.17 518.63 C 1197.41 518.773 1230.65 517.994 1263.85 516.294 C 1284.99 515.342 1295.28 513.488 1309.97 497.392 z"/>
<path transform="translate(0,0)" fill="rgb(51,57,98)" d="M 906.196 578.013 C 905.728 585.247 901.691 581.058 904.839 584.979 L 905.177 585.818 C 887.082 600.224 888.216 616.552 891.258 637.021 C 889.419 638.922 889.297 638.663 888.16 640.903 C 880.873 611.743 885.613 598.965 906.196 578.013 z"/>
<path transform="translate(0,0)" fill="rgb(254,254,254)" d="M 1510.01 699.579 C 1543.96 689.86 1566.12 689.645 1598.84 703.578 C 1610.24 710.629 1621.73 717.656 1630.41 728.053 C 1644.32 743.04 1643.85 748.057 1653.24 762.509 C 1655.73 763.649 1656.75 767.141 1657.56 770.039 C 1676.19 836.991 1655.51 912.098 1644.23 979.035 C 1644.13 979.623 1643.39 980.269 1642.98 980.677 L 1641.62 980.224 L 1640.83 981.545 C 1648.62 1001.14 1658.35 1016.57 1649.07 1040.41 C 1647.58 1044.25 1640.89 1053.62 1637.28 1056.12 L 1636.71 1054.52 C 1602.26 1083.01 1578.3 1051.05 1540.58 1046.83 C 1534.02 1046.1 1526.29 1045.13 1519.08 1045.34 C 1510.55 1045.58 1502.87 1043.97 1500.72 1034.16 C 1498.61 1002.06 1536.81 1006.3 1557.71 1008.83 C 1567.3 1009.99 1591.2 1018.92 1596.12 1010.72 C 1596.62 1003.31 1585.9 981.484 1578.73 981.052 C 1578.43 984.619 1578.84 983.933 1580.94 987.731 C 1586.61 995.715 1589.73 1001.36 1593.07 1010.67 C 1588.84 1010.06 1584.37 1009.5 1580.2 1008.69 C 1554.31 1003.19 1519.79 994.365 1499.77 1017.27 C 1496.36 1024.12 1494.36 1030.22 1496.93 1037.76 C 1502.16 1053.11 1517.59 1048.67 1530.08 1049.74 C 1535.08 1050.17 1539.79 1051.36 1544.49 1052.45 C 1554.7 1054.78 1564.76 1057.76 1574.6 1061.36 C 1593.13 1068.14 1602.18 1074.66 1622.29 1068.87 C 1616.85 1090.79 1603.21 1137.91 1603.58 1157.29 C 1605.18 1164.21 1608.38 1173.86 1615.35 1176.84 C 1645.19 1189.63 1692.53 1164.11 1721 1155.96 C 1758.98 1145.09 1764.65 1171.69 1771.61 1200.14 C 1757.91 1189.78 1739.34 1177.09 1721.18 1180.07 C 1696.41 1184.14 1683.42 1214.69 1669.73 1231 C 1652.93 1258.11 1616.76 1280.54 1587.29 1291 C 1538.18 1308.29 1484.22 1305.43 1437.21 1283.04 C 1398.73 1264.42 1376.02 1237.04 1362.19 1197.01 C 1335.28 1119.46 1356.21 982.212 1379.94 904.855 C 1398.39 844.681 1427.47 765.015 1475.28 721.039 C 1486.8 710.447 1497.31 706.513 1510.01 699.579 z"/>
<path transform="translate(0,0)" fill="rgb(214,219,213)" d="M 1362.19 1197.01 C 1418.33 1244.53 1474.12 1276.35 1549.74 1268.6 C 1599.11 1263.54 1626.53 1252.22 1669.73 1231 C 1652.93 1258.11 1616.76 1280.54 1587.29 1291 C 1538.18 1308.29 1484.22 1305.43 1437.21 1283.04 C 1398.73 1264.42 1376.02 1237.04 1362.19 1197.01 z"/>
<path transform="translate(0,0)" fill="rgb(214,219,213)" d="M 1630.41 728.053 C 1644.32 743.04 1643.85 748.057 1653.24 762.509 C 1655.73 763.649 1656.75 767.141 1657.56 770.039 C 1676.19 836.991 1655.51 912.098 1644.23 979.035 C 1644.13 979.623 1643.39 980.269 1642.98 980.677 L 1641.62 980.224 L 1640.83 981.545 C 1648.62 1001.14 1658.35 1016.57 1649.07 1040.41 C 1647.58 1044.25 1640.89 1053.62 1637.28 1056.12 L 1636.71 1054.52 C 1663.6 1023.64 1647.69 992.378 1626.17 964.982 C 1625.72 961.044 1629.72 929.985 1630.25 924.277 C 1637.23 850.432 1656.8 800.552 1630.41 728.053 z"/>
<path transform="translate(0,0)" fill="rgb(40,37,86)" d="M 1653.24 762.509 C 1655.73 763.649 1656.75 767.141 1657.56 770.039 C 1676.19 836.991 1655.51 912.098 1644.23 979.035 C 1644.13 979.623 1643.39 980.269 1642.98 980.677 L 1641.62 980.224 L 1640.83 981.545 C 1648.62 1001.14 1658.35 1016.57 1649.07 1040.41 C 1647.58 1044.25 1640.89 1053.62 1637.28 1056.12 L 1636.71 1054.52 C 1663.6 1023.64 1647.69 992.378 1626.17 964.982 L 1628.06 963.218 C 1633.37 964.754 1638.94 974.787 1642.33 979.801 C 1653.44 922.693 1667.91 852.596 1661.54 794.108 C 1660.64 785.802 1655.71 771.047 1653.24 762.509 z"/>
<path transform="translate(0,0)" fill="rgb(214,219,213)" d="M 1489.23 1058 C 1485.13 1055.28 1482.16 1053.06 1480.15 1048.38 C 1478.09 1043.65 1478.11 1038.27 1480.21 1033.56 C 1484.1 1024.61 1491.27 1020.6 1499.77 1017.27 C 1496.36 1024.12 1494.36 1030.22 1496.93 1037.76 C 1502.16 1053.11 1517.59 1048.67 1530.08 1049.74 C 1535.08 1050.17 1539.79 1051.36 1544.49 1052.45 C 1554.7 1054.78 1564.76 1057.76 1574.6 1061.36 C 1593.13 1068.14 1602.18 1074.66 1622.29 1068.87 C 1616.85 1090.79 1603.21 1137.91 1603.58 1157.29 C 1602.76 1152 1597.92 1144.09 1596.17 1137.54 C 1590.43 1116.07 1595.79 1099.02 1600.92 1078.42 C 1574.8 1082.31 1566.56 1071.59 1540.99 1065 C 1518.34 1059.17 1512.21 1057.65 1489.23 1058 z"/>
<path transform="translate(0,0)" fill="rgb(214,219,213)" d="M 1580.94 987.731 C 1586.61 995.715 1589.73 1001.36 1593.07 1010.67 C 1588.84 1010.06 1584.37 1009.5 1580.2 1008.69 C 1582.04 1004 1581.14 993.026 1580.94 987.731 z"/>
<path transform="translate(0,0)" fill="rgb(35,35,99)" d="M 1526.52 771.161 C 1565.13 770.6 1572.78 851.943 1530.59 863.063 C 1490.83 862.595 1485.03 781.61 1526.52 771.161 z"/>
<path transform="translate(0,0)" fill="rgb(254,254,254)" d="M 1512.92 797.214 C 1532.8 794.706 1542.36 811.626 1524.47 822.928 C 1517.42 824.08 1510.81 823.598 1506.2 817.33 C 1504.23 814.637 1503.49 811.238 1504.17 807.971 C 1505.29 802.322 1508.45 800.248 1512.92 797.214 z"/>
<path transform="translate(0,0)" fill="rgb(35,35,99)" d="M 1464.62 764.057 C 1500.51 762.839 1491.45 835.363 1453.62 847.84 C 1416.81 848.902 1427.15 775.606 1464.62 764.057 z"/>
<path transform="translate(0,0)" fill="rgb(254,254,254)" d="M 1450.97 784.514 C 1457.9 783.303 1464.5 787.919 1465.74 794.841 C 1466.98 801.763 1462.4 808.387 1455.48 809.66 C 1448.52 810.941 1441.85 806.319 1440.6 799.353 C 1439.35 792.387 1444 785.732 1450.97 784.514 z"/>
<path transform="translate(0,0)" fill="rgb(254,254,254)" d="M 552.845 671.78 C 567.245 665.683 586.771 664.278 602.23 664.426 C 604.487 665.321 614.914 665.701 618.507 665.854 C 630.134 666.351 663.219 673.796 671.216 682.179 L 670.559 684.071 C 676.132 688.054 682.872 689.686 684.619 695.663 C 732.433 740.726 730.45 796.248 731.254 857.005 C 731.851 902.183 727.027 938.111 717.811 982.285 C 699.952 970.255 685.172 965.775 663.531 964.961 C 655.034 964.642 643.94 962.897 636.647 968.026 C 634.273 974.685 644.724 979.465 649.764 981.77 L 659.08 985.81 C 654.177 987.543 646.321 990.052 641.779 992.049 C 632.48 995.872 604.24 1006.14 604.03 1018.03 C 610.199 1024.97 629.002 1017.32 636.636 1014.93 C 629.883 1019.67 608.301 1032.15 612.745 1041.01 C 616.706 1043.34 616.777 1043.07 621.782 1043 C 625.197 1040.1 644.33 1032.82 649.898 1030.5 C 647.234 1033.47 632.669 1051.98 631.379 1052.89 C 630.288 1056.66 629.463 1058.13 630.52 1061.9 C 632.27 1064.12 632.395 1064.57 634.688 1066.13 C 643.79 1063.96 653.85 1051.97 660.899 1044.99 C 657.406 1053.64 655.65 1057.91 653.911 1067.22 C 655.545 1069.69 656.047 1070.71 658.107 1072.88 C 673.146 1072.08 673.577 1052.24 685.376 1042.36 C 693.877 1035.24 693.544 1035.86 703.974 1031.36 L 696.709 1049.77 C 687.936 1069.85 675.819 1093.76 658.918 1108.28 C 644.623 1124.18 618.12 1130.48 598.058 1133.22 C 545.081 1140.43 508.111 1104.46 476.285 1067.3 C 461.781 1050.36 448.315 1032.28 425.425 1026.86 C 412.419 1029.33 398.616 1038.1 390.562 1048.21 C 389.847 1050.65 390.358 1053.03 388.66 1054.74 C 373.397 1070.1 348.096 1092.46 325.82 1094.83 C 301.454 1097.43 293.27 1050.55 265.807 1053.49 C 256.802 1054.43 255.071 1065.38 249.444 1068.17 L 247.891 1066.45 C 247.359 1061.39 254.212 1049.03 257.078 1045.11 C 270.765 1026.35 297.361 1031.69 314.132 1042.84 C 318.973 1046.05 328.818 1053.84 333.815 1053.11 C 341.42 1045.8 348.384 1025.06 354.016 1014.62 C 365.139 994.017 383.905 978.601 406.276 971.688 C 424.561 966.225 445.633 967.223 463.627 974.665 C 467.08 976.094 476.926 983.699 482.026 986.497 C 486.564 982.737 486.886 972.835 487.566 966.953 C 477.463 966.971 466.029 961.099 460.475 952.822 C 436.326 916.837 457.239 888.829 484.998 867.94 C 483.204 855.447 483.143 842.382 481.665 829.929 C 474.584 770.289 484.987 692.303 552.845 671.78 z"/>
<path transform="translate(0,0)" fill="rgb(40,37,86)" d="M 552.845 671.78 C 567.245 665.683 586.771 664.278 602.23 664.426 C 604.487 665.321 614.914 665.701 618.507 665.854 C 630.134 666.351 663.219 673.796 671.216 682.179 L 670.559 684.071 C 676.132 688.054 682.872 689.686 684.619 695.663 C 652.959 671.733 617.386 665.282 578.387 669.87 C 503.904 722.847 495.29 791.111 505.415 876.172 C 502.288 873.843 496.726 870.201 494.808 867.141 C 486.931 872.576 481.04 876.424 473.079 882.914 C 445.677 905.25 447.538 957.324 487.216 963.105 C 507.665 966.085 531.878 947.354 552.982 948.753 C 561.779 948.618 573.534 954.189 581.456 948.65 C 589.811 942.809 583.221 929.556 578.308 923.726 C 560.741 902.879 532.26 920.374 514.552 905.357 C 509.379 900.97 509.618 891.332 514.601 887.142 C 516.126 885.718 519.269 884.461 521.451 884.297 L 522.493 885.387 C 520.535 891.296 511.89 893.097 514.934 898.902 C 521.844 912.078 540.184 906.56 552.141 907.853 C 573.044 910.114 586.749 919.792 590.229 941.108 C 583.118 964.656 564.557 951.193 546.665 953.187 C 528.7 955.19 509.531 968.269 491.678 966.965 C 488.948 971.88 492.959 981.937 484.138 991.95 C 478.404 991.495 469.764 983.137 463.699 980.096 C 418.709 957.534 367.781 985.489 350.868 1030.38 C 348.813 1035.83 340.65 1060.18 330.883 1057.61 C 311.066 1048.33 292.396 1027.88 268.016 1041.14 C 265.498 1042.5 259.304 1047.49 258.301 1050.68 C 261.999 1050.78 264.901 1049.66 268.558 1049.26 C 292.133 1046.71 305.972 1090.44 323.803 1090.68 C 346.129 1090.97 373.836 1061.92 390.562 1048.21 C 389.847 1050.65 390.358 1053.03 388.66 1054.74 C 373.397 1070.1 348.096 1092.46 325.82 1094.83 C 301.454 1097.43 293.27 1050.55 265.807 1053.49 C 256.802 1054.43 255.071 1065.38 249.444 1068.17 L 247.891 1066.45 C 247.359 1061.39 254.212 1049.03 257.078 1045.11 C 270.765 1026.35 297.361 1031.69 314.132 1042.84 C 318.973 1046.05 328.818 1053.84 333.815 1053.11 C 341.42 1045.8 348.384 1025.06 354.016 1014.62 C 365.139 994.017 383.905 978.601 406.276 971.688 C 424.561 966.225 445.633 967.223 463.627 974.665 C 467.08 976.094 476.926 983.699 482.026 986.497 C 486.564 982.737 486.886 972.835 487.566 966.953 C 477.463 966.971 466.029 961.099 460.475 952.822 C 436.326 916.837 457.239 888.829 484.998 867.94 C 483.204 855.447 483.143 842.382 481.665 829.929 C 474.584 770.289 484.987 692.303 552.845 671.78 z"/>
<path transform="translate(0,0)" fill="rgb(214,219,213)" d="M 494.808 867.141 L 493.38 865.736 C 488.911 865.081 489.03 865.299 488.425 860.55 C 486.974 849.163 486.769 837.421 485.655 826.023 C 478.452 752.309 494.633 683.197 578.387 669.87 C 503.904 722.847 495.29 791.111 505.415 876.172 C 502.288 873.843 496.726 870.201 494.808 867.141 z"/>
<path transform="translate(0,0)" fill="rgb(214,219,213)" d="M 425.425 1026.86 C 438.718 1024.5 454.743 1029.5 464.187 1037.59 C 512.634 1079.08 554.488 1130.49 625.958 1117.67 C 637.165 1115.66 647.837 1110.86 658.918 1108.28 C 644.623 1124.18 618.12 1130.48 598.058 1133.22 C 545.081 1140.43 508.111 1104.46 476.285 1067.3 C 461.781 1050.36 448.315 1032.28 425.425 1026.86 z"/>
<path transform="translate(0,0)" fill="rgb(214,219,213)" d="M 590.229 941.108 C 600.332 969.387 568.968 958.793 555.868 959.815 C 544.811 960.677 528.734 969.43 517.171 972.739 C 514.9 987.442 510.634 997.933 492.587 995.112 C 489.426 994.617 486.995 992.55 484.138 991.95 C 492.959 981.937 488.948 971.88 491.678 966.965 C 509.531 968.269 528.7 955.19 546.665 953.187 C 564.557 951.193 583.118 964.656 590.229 941.108 z"/>
<path transform="translate(0,0)" fill="rgb(214,219,213)" d="M 658.107 1072.88 C 673.146 1072.08 673.577 1052.24 685.376 1042.36 C 693.877 1035.24 693.544 1035.86 703.974 1031.36 L 696.709 1049.77 C 677.608 1052.69 675.689 1077.22 662.008 1085.62 L 659.386 1085.59 C 655.461 1081.32 657.11 1078.4 658.107 1072.88 z"/>
<path transform="translate(0,0)" fill="rgb(214,219,213)" d="M 621.782 1043 C 625.197 1040.1 644.33 1032.82 649.898 1030.5 C 647.234 1033.47 632.669 1051.98 631.379 1052.89 C 625.999 1054.13 619.441 1059.14 614.114 1055.93 L 613.986 1053.91 C 616.869 1048.29 617.823 1048.44 622.132 1044.02 L 621.782 1043 z"/>
<path transform="translate(0,0)" fill="rgb(214,219,213)" d="M 634.688 1066.13 C 643.79 1063.96 653.85 1051.97 660.899 1044.99 C 657.406 1053.64 655.65 1057.91 653.911 1067.22 L 653.582 1066.4 C 648.506 1067.63 643.497 1078.79 635.525 1079.98 C 632.447 1078.43 633.613 1079.55 631.978 1076.43 C 632.162 1072.83 634.001 1070.22 635.725 1066.96 L 634.688 1066.13 z"/>
<path transform="translate(0,0)" fill="rgb(214,219,213)" d="M 649.764 981.77 L 659.08 985.81 C 654.177 987.543 646.321 990.052 641.779 992.049 C 639.615 989.328 638.696 988.419 639.293 985.138 C 641.653 983.292 646.384 983.051 649.764 981.77 z"/>
<path transform="translate(0,0)" fill="rgb(35,35,99)" d="M 616.729 755.127 C 665.998 752.937 673.028 826.177 626.245 837.943 C 577.729 840.052 569.379 767.927 616.729 755.127 z"/>
<path transform="translate(0,0)" fill="rgb(254,254,254)" d="M 630.614 780.483 C 635.716 778.594 641.441 779.61 645.581 783.14 C 649.721 786.67 651.629 792.162 650.571 797.498 C 649.512 802.835 645.652 807.182 640.478 808.865 C 632.698 811.395 624.323 807.235 621.638 799.508 C 618.952 791.78 622.942 783.323 630.614 780.483 z"/>
<path transform="translate(0,0)" fill="rgb(35,35,99)" d="M 692.452 759.17 C 706.923 758.697 717.805 764.777 723.177 778.68 C 726.973 788.43 726.649 799.303 722.28 808.811 C 717.563 818.843 711.141 823.051 701.139 826.456 C 685.208 826.924 673.771 820.127 668.862 804.343 C 665.875 794.749 666.78 784.366 671.38 775.433 C 676.287 766.1 682.745 762.072 692.452 759.17 z"/>
<path transform="translate(0,0)" fill="rgb(254,254,254)" d="M 704.787 779.481 C 711.266 777.657 718.001 781.417 719.848 787.89 C 721.695 794.364 717.958 801.111 711.491 802.981 C 704.992 804.86 698.203 801.1 696.347 794.595 C 694.491 788.089 698.275 781.314 704.787 779.481 z"/>
<path transform="translate(0,0)" fill="rgb(156,210,197)" d="M 1106.84 766.359 C 1168.53 785.006 1231.86 800.728 1293.3 820.244 C 1302.81 823.265 1310.36 830.692 1313.94 840.03 C 1318.69 852.393 1315.22 861.615 1310.47 873.104 C 1295.99 872.655 1290.94 875.799 1285.09 889.048 C 1284.82 898.755 1286.08 900.16 1290.87 908.344 L 1273.81 935.418 C 1257.03 960.926 1239.76 986.108 1222.01 1010.95 C 1210.38 1005.32 1195.34 996.479 1183.71 990.112 C 1196.99 963.205 1210.12 936.221 1223.09 909.163 C 1228.53 897.813 1235.1 883.36 1241.11 872.391 C 1241.92 870.898 1254.65 858.355 1256.78 856.248 L 1256.3 854.071 L 1254.41 853.986 C 1249.8 856.342 1247.36 859.019 1243.57 862.519 L 1241.8 862.57 L 1241.5 864.138 C 1242.35 859.98 1242.94 858.729 1241.24 855.022 L 1239.84 855.171 C 1237.23 858.776 1236.74 861.405 1235.41 865.675 C 1208.41 858.215 1179.74 855.536 1150.85 851.491 C 1122.37 847.503 1091.09 849.312 1083.46 812.715 C 1082.43 807.804 1086.18 796.747 1084.72 790.82 C 1077.36 792.108 1079.16 811.88 1079.78 817.721 C 1090.94 846.013 1103.09 849.811 1131.53 853.495 C 1132.83 865 1135.04 878.451 1136 889.588 C 1140.77 929.003 1141.9 966.556 1145.82 1004.91 C 1138.06 1007.68 1127.14 1010.33 1122.54 1016.72 C 1121.85 1021.44 1122.22 1022.16 1125.93 1025.63 L 1127.16 1025.63 C 1134.27 1025.58 1139.68 1024.26 1146.01 1024.22 C 1146.72 1027.36 1126.58 1063.53 1123.41 1070.38 L 1122.36 1074.92 C 1124.1 1078.2 1124.29 1079.22 1127.6 1080.92 C 1133.15 1081.01 1134.25 1079.49 1137.77 1075.42 L 1139.27 1079.33 C 1139.73 1082.81 1139.73 1082.65 1139.11 1086.11 L 1141.95 1087.06 C 1145.88 1100.21 1150.44 1085.56 1150.91 1110.18 C 1150.73 1133.16 1152.13 1160.48 1152.7 1183.72 C 1136.58 1186.15 1110.49 1186.06 1094.08 1186.05 C 1057.86 1185.9 1021.65 1184.85 985.488 1182.9 C 982.463 1167.64 980.812 1097.43 982.705 1082.76 C 986.21 1055.57 984.241 894.99 992.482 878.565 C 1017.21 829.594 1057.41 790.152 1106.84 766.359 z"/>
<path transform="translate(0,0)" fill="rgb(118,169,159)" d="M 1125.93 1025.63 L 1127.16 1025.63 C 1134.27 1025.58 1139.68 1024.26 1146.01 1024.22 C 1146.72 1027.36 1126.58 1063.53 1123.41 1070.38 C 1116.81 1073.23 1103.28 1103.24 1093.18 1102.71 L 1091.96 1101.19 C 1089.95 1088.11 1114.59 1053.14 1122.93 1041.59 C 1114.41 1044.36 1102.25 1047.86 1093.37 1046.87 C 1090.57 1044.98 1091.52 1046.21 1090.37 1043.1 C 1093.27 1035.37 1115.91 1030.28 1125 1026.07 L 1125.93 1025.63 z"/>
<path transform="translate(0,0)" fill="rgb(118,169,159)" d="M 1079.78 817.721 C 1090.94 846.013 1103.09 849.811 1131.53 853.495 C 1132.83 865 1135.04 878.451 1136 889.588 C 1102.27 878.843 1078.63 854.59 1079.78 817.721 z"/>
<path transform="translate(0,0)" fill="rgb(118,169,159)" d="M 1273.81 935.418 C 1268.39 918.205 1249.43 888.408 1285.09 889.048 C 1284.82 898.755 1286.08 900.16 1290.87 908.344 L 1273.81 935.418 z"/>
<path transform="translate(0,0)" fill="rgb(118,169,159)" d="M 1139.27 1079.33 C 1132.83 1086.9 1121.33 1113.61 1113.04 1115.31 L 1111.55 1114.03 C 1109.78 1106.26 1118.55 1082.25 1122.36 1074.92 C 1124.1 1078.2 1124.29 1079.22 1127.6 1080.92 C 1133.15 1081.01 1134.25 1079.49 1137.77 1075.42 L 1139.27 1079.33 z"/>
<path transform="translate(0,0)" fill="rgb(118,169,159)" d="M 1139.11 1086.11 L 1141.95 1087.06 C 1145.88 1100.21 1150.44 1085.56 1150.91 1110.18 L 1149.67 1107.21 C 1146.37 1111.24 1150.23 1118.92 1142.37 1123.27 C 1133.45 1121.74 1138.04 1092.52 1139.11 1086.11 z"/>
<path transform="translate(0,0)" fill="rgb(156,210,197)" d="M 876.647 959.255 C 892.371 922.517 931.064 828.41 955.87 803.384 C 935.79 838.127 930.088 852.802 922.245 892.283 C 918.004 931.062 916.153 969.568 914.357 1008.5 C 907.025 1012.79 902.24 1013.67 893.927 1015.32 C 847.737 1022.13 772.492 1025.55 725.906 1022.88 C 728.231 1009.9 729.402 990.45 731.325 976.521 C 738.336 976.004 745.894 975.216 752.882 974.327 C 793.74 969.125 836.099 966.268 876.647 959.255 z"/>
<path transform="translate(0,0)" fill="rgb(118,169,159)" d="M 922.245 892.283 C 918.004 931.062 916.153 969.568 914.357 1008.5 C 907.025 1012.79 902.24 1013.67 893.927 1015.32 C 898.962 993.69 898.305 985.396 900.415 965.102 C 902.158 948.34 914.352 906.483 922.245 892.283 z"/>
<path transform="translate(0,0)" fill="rgb(198,156,111)" d="M 1588.95 650.996 C 1607.15 644.92 1623.82 654.39 1638.59 664.507 C 1642.76 667.837 1645.83 670.139 1649.54 674.039 C 1660.34 688.318 1660.2 695.751 1652.41 711.592 C 1661.81 721.814 1669.66 730.898 1673.91 744.358 C 1677.45 760.02 1672.75 763.736 1659.69 770.94 L 1658.85 770.353 L 1658.77 768.496 C 1658.66 766.349 1658.88 767.14 1658.4 765.842 C 1654.47 754.019 1647.83 743.937 1641.43 733.297 C 1630.6 720.088 1620.42 711.224 1606.18 701.714 C 1606.12 701.751 1606.07 701.811 1606.01 701.826 C 1603.65 702.379 1585.88 692.947 1581.68 691.242 L 1584.06 692.988 L 1581.07 692.778 C 1578.71 691.078 1578.49 691.131 1575.7 690.133 L 1575.72 690.919 L 1578.41 692.514 L 1578.02 693.094 C 1583.25 695.986 1597.94 699.726 1599.03 703.119 L 1598.84 703.578 C 1566.12 689.645 1543.96 689.86 1510.01 699.579 L 1509.71 698.356 C 1513.07 696.482 1524.24 693.557 1528.35 692.478 C 1526.68 686.387 1522.88 675.18 1525.09 669.43 C 1531.97 651.5 1562.46 658.751 1575.41 662.614 C 1580.04 657.219 1582.86 654.598 1588.95 650.996 z"/>
<path transform="translate(0,0)" fill="rgb(198,156,111)" d="M 1588.95 650.996 C 1607.15 644.92 1623.82 654.39 1638.59 664.507 C 1642.76 667.837 1645.83 670.139 1649.54 674.039 C 1660.34 688.318 1660.2 695.751 1652.41 711.592 C 1661.81 721.814 1669.66 730.898 1673.91 744.358 L 1669.65 744.667 C 1665.93 733.55 1659.04 725.129 1651.34 716.581 C 1651.52 713.146 1651.98 710.454 1650.89 707.218 C 1650.76 707.272 1650.64 707.37 1650.5 707.381 C 1647.04 707.645 1629.68 691.737 1625.89 688.738 C 1609.33 677.68 1597.92 671.559 1579.89 663.971 C 1584.47 658.923 1585.26 658.174 1591.05 654.324 L 1590.8 653.749 L 1591.45 652.668 L 1588.95 650.996 z"/>
<path transform="translate(0,0)" fill="rgb(170,131,94)" d="M 1626.55 661.742 L 1633.38 666.198 C 1639.95 670.907 1642.12 672.591 1647.73 678.336 L 1649.54 674.039 C 1660.34 688.318 1660.2 695.751 1652.41 711.592 C 1661.81 721.814 1669.66 730.898 1673.91 744.358 L 1669.65 744.667 C 1665.93 733.55 1659.04 725.129 1651.34 716.581 C 1651.52 713.146 1651.98 710.454 1650.89 707.218 C 1650.76 707.272 1650.64 707.37 1650.5 707.381 C 1647.04 707.645 1629.68 691.737 1625.89 688.738 C 1629.63 681.135 1627.72 669.873 1626.55 661.742 z"/>
<path transform="translate(0,0)" fill="rgb(35,35,99)" d="M 1649.54 674.039 C 1660.34 688.318 1660.2 695.751 1652.41 711.592 C 1661.81 721.814 1669.66 730.898 1673.91 744.358 L 1669.65 744.667 C 1665.93 733.55 1659.04 725.129 1651.34 716.581 C 1651.52 713.146 1651.98 710.454 1650.89 707.218 C 1654.71 694.022 1655.43 689.992 1647.73 678.336 L 1649.54 674.039 z"/>
<path transform="translate(0,0)" fill="rgb(40,37,86)" d="M 1588.95 650.996 C 1607.15 644.92 1623.82 654.39 1638.59 664.507 C 1642.76 667.837 1645.83 670.139 1649.54 674.039 L 1647.73 678.336 C 1642.12 672.591 1639.95 670.907 1633.38 666.198 L 1626.55 661.742 C 1613.5 654.986 1605.88 650.825 1591.05 654.324 L 1590.8 653.749 L 1591.45 652.668 L 1588.95 650.996 z"/>
<path transform="translate(0,0)" fill="rgb(170,131,94)" d="M 1637.13 703.237 C 1642.7 707.974 1646.23 711.338 1651.34 716.581 C 1659.04 725.129 1665.93 733.55 1669.65 744.667 L 1673.91 744.358 C 1677.45 760.02 1672.75 763.736 1659.69 770.94 L 1658.85 770.353 L 1658.77 768.496 C 1658.66 766.349 1658.88 767.14 1658.4 765.842 C 1654.47 754.019 1647.83 743.937 1641.43 733.297 C 1643.5 722.311 1640.25 713.584 1637.13 703.237 z"/>
<path transform="translate(0,0)" fill="rgb(40,37,86)" d="M 1673.91 744.358 C 1677.45 760.02 1672.75 763.736 1659.69 770.94 L 1658.85 770.353 L 1658.77 768.496 C 1658.66 766.349 1658.88 767.14 1658.4 765.842 C 1670.45 762.859 1672.44 755.694 1669.65 744.667 L 1673.91 744.358 z"/>
<path transform="translate(0,0)" fill="rgb(40,37,86)" d="M 1575.41 662.614 C 1580.04 657.219 1582.86 654.598 1588.95 650.996 L 1591.45 652.668 L 1590.8 653.749 L 1591.05 654.324 C 1585.26 658.174 1584.47 658.923 1579.89 663.971 C 1597.92 671.559 1609.33 677.68 1625.89 688.738 C 1629.68 691.737 1647.04 707.645 1650.5 707.381 C 1650.64 707.37 1650.76 707.272 1650.89 707.218 C 1651.98 710.454 1651.52 713.146 1651.34 716.581 C 1646.23 711.338 1642.7 707.974 1637.13 703.237 C 1630.56 697.55 1623.61 692.326 1616.32 687.601 C 1596.72 674.766 1565.07 658.269 1540.53 662.648 C 1524.39 665.527 1528.19 679.054 1532.31 690.27 C 1547.47 687.907 1560.58 688.918 1575.72 690.919 L 1578.41 692.514 L 1578.02 693.094 C 1583.25 695.986 1597.94 699.726 1599.03 703.119 L 1598.84 703.578 C 1566.12 689.645 1543.96 689.86 1510.01 699.579 L 1509.71 698.356 C 1513.07 696.482 1524.24 693.557 1528.35 692.478 C 1526.68 686.387 1522.88 675.18 1525.09 669.43 C 1531.97 651.5 1562.46 658.751 1575.41 662.614 z"/>
<path transform="translate(0,0)" fill="rgb(40,37,86)" d="M 1575.7 690.133 C 1566.35 686.839 1555.29 684.17 1545.07 682.379 C 1544.79 681.868 1544.52 681.357 1544.24 680.846 L 1543.36 681.37 L 1545 682.323 L 1544.4 680.731 C 1563.9 677.165 1590.42 690.958 1606.18 701.714 C 1606.12 701.751 1606.07 701.811 1606.01 701.826 C 1603.65 702.379 1585.88 692.947 1581.68 691.242 L 1584.06 692.988 L 1581.07 692.778 C 1578.71 691.078 1578.49 691.131 1575.7 690.133 z"/>
<path transform="translate(0,0)" fill="rgb(254,254,254)" d="M 1309.12 987.074 C 1306.5 978.944 1306.85 969.504 1306.14 961.009 C 1305.28 950.633 1304.03 940.197 1301.99 929.989 C 1300.59 922.998 1298.88 915.557 1295.95 909.028 C 1293.97 904.616 1290.81 900.265 1289.68 895.549 C 1288.77 891.739 1289.75 888.543 1291.85 885.351 C 1294.27 881.702 1297.83 878.061 1302.4 877.468 C 1306.43 876.943 1310.63 878.383 1314.22 880.163 C 1342.38 894.142 1340.86 948.295 1352.88 955.749 C 1353.36 956.042 1353.85 956.3 1354.33 956.575 C 1358.69 953.738 1360.11 952.831 1363.76 949.201 C 1358.92 970.584 1354.84 992.133 1351.53 1013.81 C 1331.97 1011.95 1317.52 1006.33 1309.12 987.074 z"/>
<path transform="translate(0,0)" fill="rgb(214,219,213)" d="M 1354.33 956.575 C 1358.69 953.738 1360.11 952.831 1363.76 949.201 C 1358.92 970.584 1354.84 992.133 1351.53 1013.81 C 1331.97 1011.95 1317.52 1006.33 1309.12 987.074 C 1340.58 1000.96 1344.58 982.083 1354.33 956.575 z"/>
<path transform="translate(0,0)" fill="rgb(254,254,254)" d="M 748.799 891.089 L 750.111 891.033 C 758.578 890.611 763.887 889.269 771.773 886.461 C 790.844 879.673 819.201 858.434 838.485 875.342 C 845.832 881.785 849.564 893.696 840.72 900.577 C 829.868 909.018 816.907 909.399 804.503 914.108 C 797.081 917.091 786.772 925.938 780.136 930.609 C 771.025 938.257 742.058 956.179 731.643 945.384 C 729.013 939.968 734.763 901.494 735.212 891.094 L 748.799 891.089 z"/>
<path transform="translate(0,0)" fill="rgb(214,219,213)" d="M 735.212 891.094 L 748.799 891.089 C 747.318 891.454 744.524 891.684 743.951 892.947 C 738.143 905.742 747.915 921.754 759.729 927.198 C 767.146 930.616 772.519 930.332 780.136 930.609 C 771.025 938.257 742.058 956.179 731.643 945.384 C 729.013 939.968 734.763 901.494 735.212 891.094 z"/>
<path transform="translate(0,0)" fill="rgb(245,207,196)" d="M 640.742 969.323 C 664.56 966.648 693.013 970.571 713.103 984.728 L 725.801 984.975 C 725.246 989.971 724.368 1004.83 722.55 1008.24 C 715.227 1009.54 715.147 1017.88 710.183 1021.68 C 694.876 1033.38 678.797 1033.64 671.405 1054.83 C 670.219 1058.23 664.547 1068.49 659.849 1067.77 C 656.252 1058.85 672.671 1034.35 677.163 1025.25 C 664.271 1033.24 644.966 1057.68 635.828 1059.91 L 634.847 1058.58 C 635.502 1054.3 637.792 1051.93 640.367 1048.35 C 645.032 1042.44 661.232 1026.66 662.075 1022.84 C 654.477 1021.06 624.812 1039.45 617.234 1037.09 C 620.209 1027.09 657.988 1011.26 657.789 1004.56 C 644.598 1005.01 621.14 1018.39 609.375 1015.69 L 609.109 1013.84 C 615.936 1007.28 639.112 997.77 648.641 993.964 C 652.886 992.268 664.187 989.904 667.695 987.096 C 665.435 979.951 645.348 978.836 640.742 969.323 z"/>
<path transform="translate(0,0)" fill="rgb(53,35,48)" d="M 673.897 987.718 C 680.156 990.989 683.351 997.436 691.626 997.431 C 693.458 997.43 696.613 998.358 698.417 999.011 C 689.022 1002.41 678.362 996.119 673.897 987.718 z"/>
<path transform="translate(0,0)" fill="rgb(245,207,196)" d="M 1182.75 996.096 C 1187.21 995.742 1209.62 1009.49 1214.74 1012.59 C 1212.41 1027.36 1206.22 1035.16 1201.16 1048.84 C 1198.43 1056.2 1206.11 1083.13 1200.03 1087.32 C 1190.83 1079.31 1192.69 1057.13 1189.03 1048.77 L 1187.33 1048.7 C 1182.97 1053.84 1183.02 1091.21 1175.72 1096.24 C 1169.16 1087.86 1176.64 1054.63 1178.19 1044.22 C 1171.29 1051.32 1158.93 1073.64 1153.15 1083.45 C 1151.4 1086.39 1150.55 1087.92 1147.68 1089.02 C 1144.2 1080.56 1162.31 1048.29 1161.55 1038.02 C 1155.43 1038.63 1139.6 1070.52 1129.84 1075.32 L 1128.71 1074.26 C 1129.5 1058.64 1152.4 1027.54 1161.91 1014.28 C 1151.5 1016.32 1138.56 1022.52 1128.29 1019.84 L 1128.06 1018.41 C 1134.42 1012.37 1172.32 999.887 1182.75 996.096 z"/>
<path transform="translate(0,0)" fill="rgb(156,210,197)" d="M 552.845 671.78 C 524.931 648.947 500.79 687.466 472.319 678.054 C 463.58 675.165 459.81 664.063 464.39 655.682 C 466.94 651.017 471.349 647.652 476.521 646.423 C 482.101 645.074 492.815 645.235 493.036 652.912 C 491.175 655.815 489.822 656.604 487.15 658.709 C 482.531 658.029 488.173 652.734 483.796 647.251 C 476.973 646.52 468.445 655.881 465.668 661.786 C 465.751 665.301 465.128 663.833 467.607 666.333 C 498.681 677.199 525.328 639.998 559.632 640.663 C 580.66 641.07 591.121 647.575 607.774 661.178 C 609.663 662.722 609.384 662.817 609.385 664.283 L 602.23 664.426 C 586.771 664.278 567.245 665.683 552.845 671.78 z"/>
<path transform="translate(0,0)" fill="rgb(254,254,254)" d="M 1706.17 923.986 C 1726.54 922.761 1731.52 934.106 1735.99 951.239 C 1745.11 955.752 1761.66 956.122 1760.29 969.919 C 1758.25 970.002 1758.08 969.904 1756.03 969.638 C 1753.4 967.14 1752.71 966.038 1750.67 963.153 C 1723.34 955.955 1734.17 956.103 1722.82 935.631 C 1719.27 929.244 1706.14 935.167 1706.17 923.986 z"/>
<path transform="translate(0,0)" fill="rgb(254,254,254)" d="M 391.882 876.105 C 395.548 876.1 395.535 876.265 398.821 877.514 L 399.293 879.119 C 396.331 883.217 385.945 884.687 382.136 887.864 C 377.085 892.078 378.228 903.127 373.486 907.57 C 364.46 916.026 357.571 910.314 349.636 921.114 C 349.284 921.628 348.233 921.991 347.516 922.351 L 345.172 921.404 L 344.222 919.084 C 347.587 908.014 353.409 910.676 361.018 906.921 C 381.621 896.754 363.38 884.386 391.882 876.105 z"/>
<path transform="translate(0,0)" fill="rgb(254,254,254)" d="M 844.458 1521.63 C 847.467 1521.79 847.575 1522 848.97 1524.03 C 848.553 1527.41 843.362 1533.8 841.162 1536.99 L 842.585 1537.96 C 855.291 1546.64 855.035 1551.78 845.285 1563.65 C 849.506 1566.16 853.476 1567.97 856.412 1571.79 C 856.79 1575.56 857.128 1573.7 854.462 1577.36 C 848.91 1574.12 841.377 1570.76 838.901 1565.01 C 838.882 1560.87 841.301 1560.58 843.125 1557.26 C 849.894 1544.95 837.392 1545.84 835.375 1536.52 C 836.352 1529.93 840.037 1526.34 844.458 1521.63 z"/>
<path transform="translate(0,0)" fill="rgb(254,254,254)" d="M 1164.18 1540.25 C 1168.3 1540.78 1168.46 1541.03 1170.4 1544.33 C 1170.97 1549.43 1168.79 1554.34 1167.16 1559.38 C 1170.15 1561.9 1173.13 1564.44 1176.09 1566.99 C 1175.77 1584.63 1177.9 1576.72 1184.9 1586.87 C 1185.12 1590.41 1184.02 1592.15 1182.63 1595.41 C 1174.72 1594.53 1178.86 1590.7 1177.63 1589.66 C 1168.57 1582 1169.45 1582.12 1169.89 1570.25 C 1155.76 1559.92 1163.52 1555.87 1164.14 1541.23 L 1164.18 1540.25 z"/>
<path transform="translate(0,0)" fill="rgb(254,254,254)" d="M 1713.67 958.016 C 1731.69 961.899 1721.06 975.268 1730.96 980.312 C 1738.82 984.318 1758.58 979.584 1753.24 1000.35 C 1750.61 999.997 1750.8 999.971 1748.69 998.31 C 1744.19 986.869 1742.97 987.566 1731.31 987.892 C 1721.68 988.161 1720.27 970.54 1715.21 964.954 C 1712.03 961.429 1712.38 962.251 1713.67 958.016 z"/>
<path transform="translate(0,0)" fill="rgb(254,254,254)" d="M 861.607 1033.06 C 868.022 1033.29 872.074 1037.16 877.304 1040.91 C 881.678 1038.41 885.845 1034.72 890.619 1037.18 L 890.474 1039.48 C 886.217 1045.28 883.402 1045.45 876.598 1047.72 C 873.199 1046.04 869.64 1043.49 866.448 1041.35 C 857.182 1037.77 839.16 1055.41 835.293 1038.01 L 836.429 1036.45 C 840.907 1035.91 839.268 1035.95 844.034 1038.98 C 849.601 1038.74 856.015 1035.32 861.607 1033.06 z"/>
<path transform="translate(0,0)" fill="rgb(254,254,254)" d="M 387.566 910.506 C 391.11 911.279 390.751 911.188 392.434 913.845 L 391.894 915.72 C 381.152 922.687 386.57 928.223 382.007 934.962 C 372.396 949.158 362.665 928.559 355.903 952.8 C 353.557 952.339 353.671 952.31 351.601 951.065 C 350.952 949.567 350.218 948.022 350.642 946.46 C 355.483 928.635 371.036 936.289 375.008 932.236 C 382.447 924.644 374.674 919.245 387.566 910.506 z"/>
<path transform="translate(0,0)" fill="rgb(254,254,254)" d="M 935.903 795.022 L 938.127 797.018 C 939.653 803.62 926.979 803.528 924.81 808.717 C 922.062 815.293 924.361 822.852 915.45 825.504 C 905.212 828.55 913.326 830.171 908.331 839.15 C 904.211 837.191 900.04 832.888 902.207 827.709 C 904.827 821.446 910.385 819.933 916.236 817.634 L 918.882 804.927 C 924.992 798.626 927.865 797.731 935.903 795.022 z"/>
<path transform="translate(0,0)" fill="rgb(254,254,254)" d="M 1137.28 750.951 C 1149.14 751.24 1144.44 754.875 1151.98 758.511 C 1155.08 756.799 1156.06 755.882 1159.61 756.088 C 1163.91 758.053 1171.78 763.086 1170.6 768.383 C 1167.34 769.608 1169.1 769.322 1165.03 768.237 C 1162.44 765.803 1161.45 764.296 1157.96 763.937 C 1146.43 769.785 1148.69 763.555 1141.75 758.376 C 1139.26 756.516 1135.21 761.863 1130.55 759.83 L 1130.21 756.986 C 1131.75 753.963 1134.34 752.833 1137.28 750.951 z"/>
<path transform="translate(0,0)" fill="rgb(254,254,254)" d="M 1234.37 1049.49 C 1235.45 1050.29 1236.64 1051.46 1237.66 1052.38 C 1237.4 1056.3 1234.04 1058.38 1230.95 1063.19 C 1229.99 1074.61 1249.87 1071.13 1238.71 1089.17 C 1231.94 1083.98 1236.33 1084.54 1234.46 1079.77 C 1232.26 1074.15 1223.19 1071.87 1222.74 1064.47 C 1224.58 1058.1 1229.52 1053.73 1234.37 1049.49 z"/>
<path transform="translate(0,0)" fill="rgb(254,254,254)" d="M 1218.37 1112.24 C 1222.12 1112.17 1223.46 1111.9 1226.01 1114.48 L 1225.61 1116.31 C 1221.5 1118.95 1217.72 1120.88 1213.43 1123.06 C 1205.62 1127.01 1205.17 1129.7 1195.86 1128.12 C 1192.73 1126.11 1192.36 1125.64 1189.75 1123.13 C 1188.9 1119.87 1188.59 1121.28 1189.95 1118.67 C 1194.23 1118.37 1201.3 1122.11 1202.39 1121.65 C 1210.89 1118.08 1207.16 1114.49 1218.37 1112.24 z"/>
<path transform="translate(0,0)" fill="rgb(254,254,254)" d="M 1666.51 1036.36 C 1670.96 1037.19 1671.56 1038.43 1673.88 1042.25 C 1675.58 1055.87 1661.83 1063.59 1651.29 1068.29 C 1649.12 1067.37 1649.94 1067.82 1648.33 1065.71 C 1649.88 1059.1 1662.84 1056.27 1666 1050.53 C 1668.3 1046.35 1664.16 1042.38 1666.51 1036.36 z"/>
<path transform="translate(0,0)" fill="rgb(254,254,254)" d="M 1682.82 1041.36 C 1687.93 1042.98 1691.63 1048.96 1689.56 1054.35 C 1686.24 1062.97 1680.74 1066.04 1673.14 1070.23 C 1670.67 1069.19 1671.52 1069.56 1669.51 1067.39 C 1669.69 1062.24 1681.72 1058.67 1682.79 1054.21 C 1684.4 1047.51 1679.45 1049.55 1682.82 1041.36 z"/>
<path transform="translate(0,0)" fill="rgb(147,167,188)" d="M 1137.77 1075.42 C 1141.77 1069.99 1145.99 1063.99 1150.09 1058.71 C 1147.46 1067.25 1143.64 1078.51 1141.95 1087.06 L 1139.11 1086.11 C 1139.73 1082.65 1139.73 1082.81 1139.27 1079.33 L 1137.77 1075.42 z"/>
</svg>