<svg version="1.1" xmlns="http://www.w3.org/2000/svg" style="display: block;" viewBox="0 0 2048 1707" width="2000" height="1667" preserveAspectRatio="none">
<defs>
	<linearGradient id="Gradient1" gradientUnits="userSpaceOnUse" x1="578.892" y1="901.47" x2="273.697" y2="957.21">
		<stop class="stop0" offset="0" stop-opacity="1" stop-color="rgb(192,94,188)"/>
		<stop class="stop1" offset="1" stop-opacity="1" stop-color="rgb(159,92,200)"/>
	</linearGradient>
	<linearGradient id="Gradient2" gradientUnits="userSpaceOnUse" x1="602.354" y1="590.697" x2="1518.37" y2="1093.54">
		<stop class="stop0" offset="0" stop-opacity="1" stop-color="rgb(214,83,135)"/>
		<stop class="stop1" offset="1" stop-opacity="1" stop-color="rgb(174,88,157)"/>
	</linearGradient>
</defs>
<path transform="translate(0,0)" fill="url(#Gradient2)" d="M 292.79 587.001 C 236.84 540.277 201.958 446.848 201.382 375.033 C 200.573 274.026 249.45 177.928 330.62 118.316 C 393.093 72.0113 468.77 46.963 546.533 46.8512 C 645.391 45.9743 734.39 79.5524 805.322 149.359 C 1002.74 72.6658 1164.78 111.348 1304.77 272.41 L 1305.71 272.937 C 1352.81 224.364 1399.96 181.83 1472.99 179.32 C 1515.29 177.866 1554.08 197.043 1583.91 226.381 C 1674.41 315.373 1697.43 506.222 1698.14 627.628 C 1698.18 630.55 1698.17 633.473 1698.11 636.395 L 1698.53 637.316 C 1716.97 648.279 1745.29 670.57 1762.27 684.441 C 1836.84 745.356 1903.8 820.442 1928.29 915.943 C 1953.58 1014.53 1921.93 1109.07 1881.3 1198.74 C 1874.3 1214.19 1864.21 1227.92 1857.75 1241.47 C 1897.5 1316.22 1876.98 1392.49 1799.88 1431.12 C 1781.29 1440.44 1762.52 1448.72 1741.92 1452.73 C 1742.25 1455.94 1745.35 1464.04 1746.3 1467.86 C 1752.29 1492.04 1743.29 1516.28 1727.63 1536.05 C 1692.55 1580.35 1637.1 1602.52 1584.34 1616.59 C 1496.49 1640.02 1414.13 1627.24 1325.83 1621.56 C 1271.78 1617.86 1217.58 1617.11 1163.46 1619.31 C 1118.91 1621.08 1074.48 1625.26 1030.38 1631.83 C 997.425 1636.78 964.389 1643.47 931.985 1648.87 C 801.952 1670.58 669.365 1663.8 547.578 1609.9 C 512.486 1594.37 472.269 1576.2 435.078 1567.57 C 377.783 1555.11 336.997 1586.52 282.169 1550.02 C 238.963 1521.25 199.02 1468.01 231.14 1416.07 C 226.651 1413.72 222.419 1410.92 218.513 1407.69 C 193.034 1386.82 173.995 1353.49 171.073 1320.49 C 167.937 1281.72 180.53 1243.31 206.017 1213.91 C 232.698 1182.66 280.228 1154.77 321.426 1151.61 C 310.075 1124.14 299.189 1096.39 293.418 1067.11 L 292.077 1065.73 C 235.791 1044.55 188.973 1014.59 153.447 965.165 C 121.167 920.257 103.612 861.698 113.433 806.659 C 134.187 690.348 204.264 650.147 292.79 587.001 z"/>
<path transform="translate(0,0)" fill="rgb(88,94,140)" d="M 417.958 1094.07 C 449.152 1077.79 481.633 1090.94 506.048 1113.5 C 516.65 1089.99 539.604 1083.47 562.32 1093.57 C 592.706 1107.08 605.957 1138.06 624.392 1162.02 C 625.075 1163.22 626.151 1165.43 627.076 1166.26 C 650.804 1175.38 677.489 1190.98 700.461 1202.36 C 709.211 1206.7 721.304 1214.32 729.986 1217.65 C 732.731 1219.68 734.403 1220.84 736.798 1223.24 C 745.425 1229.96 753.585 1236.35 762.555 1242.6 C 786.528 1258.16 799.641 1263.36 825.186 1274.48 C 872.913 1290.38 902.107 1294.13 952.083 1295.71 L 953.631 1295.81 L 978.652 1295 C 982.608 1317.05 989.178 1348.05 991.768 1369.57 C 994.527 1384.15 997.113 1400.7 1000.15 1415.02 C 994.259 1427.07 986.971 1441.05 981.614 1453.14 C 985.687 1459.93 987.897 1463.15 993.238 1469.08 C 1011.8 1486.46 1029.17 1491.04 1054.29 1493.26 C 1065.22 1493.89 1072.98 1493.38 1083.71 1492.54 C 1090.57 1486.33 1101.87 1472.83 1108.05 1465.67 C 1133.36 1436.35 1154.87 1405.87 1176.13 1373.62 C 1195.95 1374.15 1221.35 1372.88 1239.89 1374.12 C 1243.04 1391.2 1244.66 1408.74 1247.24 1425.97 C 1249.91 1443.83 1266.66 1442.42 1281.78 1444.55 C 1307.59 1445.93 1326.07 1444.03 1351.29 1438.36 C 1356.48 1437.06 1361.74 1435.45 1366.89 1433.95 C 1368.41 1415 1368.73 1393.46 1370.82 1375.08 L 1371.89 1375.22 C 1411.35 1375.56 1450.82 1376.15 1490.28 1376.99 C 1563.24 1378.48 1665.83 1376.19 1724.44 1430.21 C 1732.5 1437.63 1736.26 1445.99 1741.92 1452.73 C 1742.25 1455.94 1745.35 1464.04 1746.3 1467.86 C 1752.29 1492.04 1743.29 1516.28 1727.63 1536.05 C 1692.55 1580.35 1637.1 1602.52 1584.34 1616.59 C 1496.49 1640.02 1414.13 1627.24 1325.83 1621.56 C 1271.78 1617.86 1217.58 1617.11 1163.46 1619.31 C 1118.91 1621.08 1074.48 1625.26 1030.38 1631.83 C 997.425 1636.78 964.389 1643.47 931.985 1648.87 C 801.952 1670.58 669.365 1663.8 547.578 1609.9 C 512.486 1594.37 472.269 1576.2 435.078 1567.57 C 377.783 1555.11 336.997 1586.52 282.169 1550.02 C 238.963 1521.25 199.02 1468.01 231.14 1416.07 C 226.651 1413.72 222.419 1410.92 218.513 1407.69 C 193.034 1386.82 173.995 1353.49 171.073 1320.49 C 167.937 1281.72 180.53 1243.31 206.017 1213.91 C 232.698 1182.66 280.228 1154.77 321.426 1151.61 C 353.707 1146.73 373.801 1148.56 405.794 1153.4 C 395.961 1126.99 394.645 1112.95 417.958 1094.07 z"/>
<path transform="translate(0,0)" fill="rgb(223,224,152)" d="M 417.958 1094.07 C 449.152 1077.79 481.633 1090.94 506.048 1113.5 C 516.65 1089.99 539.604 1083.47 562.32 1093.57 C 592.706 1107.08 605.957 1138.06 624.392 1162.02 C 625.075 1163.22 626.151 1165.43 627.076 1166.26 C 650.804 1175.38 677.489 1190.98 700.461 1202.36 C 709.211 1206.7 721.304 1214.32 729.986 1217.65 C 732.731 1219.68 734.403 1220.84 736.798 1223.24 C 728.443 1252.83 716.761 1282.47 707.754 1311.95 C 706.306 1316.69 704.459 1322.5 702.657 1327.03 L 702.036 1328.37 C 699.572 1329.59 699.073 1332.69 698.401 1335.45 C 695.29 1344.98 690.763 1357.51 688.188 1366.91 C 687.359 1369.26 686.914 1372.27 684.856 1372.86 C 675.814 1375.42 661.713 1373.73 652.247 1373.87 C 635.892 1373.79 619.536 1373.91 603.183 1374.21 L 596.819 1374.18 C 532.144 1374.54 467.471 1375.3 402.805 1376.46 C 370.715 1377.14 337.828 1377.05 305.929 1380.47 C 277.121 1383.55 249.962 1393.36 231.14 1416.07 C 226.651 1413.72 222.419 1410.92 218.513 1407.69 C 193.034 1386.82 173.995 1353.49 171.073 1320.49 C 167.937 1281.72 180.53 1243.31 206.017 1213.91 C 232.698 1182.66 280.228 1154.77 321.426 1151.61 C 353.707 1146.73 373.801 1148.56 405.794 1153.4 C 395.961 1126.99 394.645 1112.95 417.958 1094.07 z"/>
<path transform="translate(0,0)" fill="rgb(223,224,152)" d="M 506.048 1113.5 C 516.65 1089.99 539.604 1083.47 562.32 1093.57 C 592.706 1107.08 605.957 1138.06 624.392 1162.02 C 625.075 1163.22 626.151 1165.43 627.076 1166.26 C 650.804 1175.38 677.489 1190.98 700.461 1202.36 C 709.211 1206.7 721.304 1214.32 729.986 1217.65 C 732.731 1219.68 734.403 1220.84 736.798 1223.24 C 728.443 1252.83 716.761 1282.47 707.754 1311.95 C 706.306 1316.69 704.459 1322.5 702.657 1327.03 L 702.036 1328.37 C 699.572 1329.59 699.073 1332.69 698.401 1335.45 C 695.29 1344.98 690.763 1357.51 688.188 1366.91 C 685.643 1363.08 680.587 1353.1 678.08 1348.65 C 670.087 1334.4 662.001 1320.2 653.823 1306.06 C 618.89 1246.48 559.549 1156.14 506.048 1113.5 z"/>
<path transform="translate(0,0)" fill="rgb(201,110,189)" d="M 627.076 1166.26 C 650.804 1175.38 677.489 1190.98 700.461 1202.36 C 709.211 1206.7 721.304 1214.32 729.986 1217.65 C 732.731 1219.68 734.403 1220.84 736.798 1223.24 C 728.443 1252.83 716.761 1282.47 707.754 1311.95 C 706.306 1316.69 704.459 1322.5 702.657 1327.03 C 701.961 1319.26 684.791 1288.28 679.652 1281.96 C 662.532 1240.34 648.53 1206.28 627.076 1166.26 z"/>
<path transform="translate(0,0)" fill="rgb(185,133,250)" d="M 679.652 1281.96 C 684.791 1288.28 701.961 1319.26 702.657 1327.03 L 702.036 1328.37 C 699.572 1329.59 699.073 1332.69 698.401 1335.45 C 694.248 1325.89 682.404 1291.95 679.652 1281.96 z"/>
<path transform="translate(0,0)" fill="rgb(193,194,97)" d="M 417.958 1094.07 C 449.152 1077.79 481.633 1090.94 506.048 1113.5 C 559.549 1156.14 618.89 1246.48 653.823 1306.06 C 662.001 1320.2 670.087 1334.4 678.08 1348.65 C 680.587 1353.1 685.643 1363.08 688.188 1366.91 C 687.359 1369.26 686.914 1372.27 684.856 1372.86 C 675.814 1375.42 661.713 1373.73 652.247 1373.87 L 652.902 1373.09 C 653.111 1367.3 634.588 1332.54 630.567 1325.46 C 593.827 1260.83 540.727 1206.45 472.431 1175.56 C 448.374 1164.68 430.617 1160.28 405.794 1153.4 C 395.961 1126.99 394.645 1112.95 417.958 1094.07 z"/>
<path transform="translate(0,0)" fill="rgb(193,194,97)" d="M 596.819 1374.18 C 515.235 1309.75 420.508 1265.05 314.016 1277.63 C 295.514 1279.84 277.264 1283.8 259.51 1289.46 C 254.603 1291.04 240.633 1297.21 237.333 1297.68 L 236.512 1296.01 C 240.746 1289.35 275.711 1280.44 284.813 1278.36 C 395.724 1253.02 519.721 1300.53 603.183 1374.21 L 596.819 1374.18 z"/>
<path transform="translate(0,0)" fill="rgb(201,110,189)" d="M 762.555 1242.6 C 786.528 1258.16 799.641 1263.36 825.186 1274.48 C 872.913 1290.38 902.107 1294.13 952.083 1295.71 L 953.631 1295.81 L 978.652 1295 C 982.608 1317.05 989.178 1348.05 991.768 1369.57 C 990.669 1371.68 990.961 1372.26 989.214 1372.5 C 981.198 1373.6 969.622 1373.09 961.49 1372.95 C 935.585 1373.56 907.672 1373.02 881.609 1373.04 L 733.029 1373.33 C 730.564 1369.59 725.582 1360.34 722.321 1359.08 L 721.162 1358.59 C 734.113 1320.21 750.284 1280.84 762.555 1242.6 z"/>
<path transform="translate(0,0)" fill="rgb(170,88,176)" d="M 825.186 1274.48 C 872.913 1290.38 902.107 1294.13 952.083 1295.71 L 953.631 1295.81 L 978.652 1295 C 982.608 1317.05 989.178 1348.05 991.768 1369.57 C 990.669 1371.68 990.961 1372.26 989.214 1372.5 C 981.198 1373.6 969.622 1373.09 961.49 1372.95 C 927.932 1346.91 893.532 1321.98 858.344 1298.19 C 853.053 1294.61 826.94 1277.75 825.186 1274.48 z"/>
<path transform="translate(0,0)" fill="rgb(50,49,59)" d="M 1351.29 1438.36 C 1354.63 1441.78 1352.76 1452.22 1353.23 1457.92 C 1355.97 1458.08 1356.02 1457.83 1358.2 1459.39 C 1358.59 1459.31 1359.64 1459 1359.95 1459 C 1394.82 1459.33 1424.09 1482.01 1426.29 1514.23 L 1350.09 1513.24 C 1331.67 1513.08 1305.86 1514.85 1288.68 1509.56 C 1280.48 1507.03 1275.94 1450.3 1279.06 1445.16 L 1281.78 1444.55 C 1307.59 1445.93 1326.07 1444.03 1351.29 1438.36 z"/>
<path transform="translate(0,0)" fill="rgb(113,112,120)" d="M 1353.23 1457.92 C 1355.97 1458.08 1356.02 1457.83 1358.2 1459.39 C 1342.95 1462.66 1336.39 1466.65 1327.34 1479.44 L 1326.81 1479.17 C 1330 1466.98 1342.77 1462.19 1353.23 1457.92 z"/>
<path transform="translate(0,0)" fill="rgb(50,49,59)" d="M 993.238 1469.08 C 1011.8 1486.46 1029.17 1491.04 1054.29 1493.26 C 1052.72 1500.82 1052.03 1500.21 1044.97 1502.62 L 1045.07 1504.39 C 1071.8 1495.85 1099.66 1507.39 1116.46 1529.12 C 1119.88 1533.54 1129.03 1552.37 1123.21 1555.98 C 1101.71 1556.01 999.909 1556.92 987.279 1552.18 C 983.773 1550.86 981.478 1547.35 980.16 1543.99 C 972.118 1523.46 985.265 1488.53 993.238 1469.08 z"/>
<path transform="translate(0,0)" fill="rgb(113,112,120)" d="M 1044.97 1502.62 L 1045.07 1504.39 C 1035.03 1509.98 1032.99 1513.81 1024.86 1521.64 L 1024.55 1521.26 C 1029.92 1512.63 1035.13 1506.31 1044.97 1502.62 z"/>
<path transform="translate(0,0)" fill="rgb(244,245,246)" d="M 736.798 1223.24 C 745.425 1229.96 753.585 1236.35 762.555 1242.6 C 750.284 1280.84 734.113 1320.21 721.162 1358.59 C 702.476 1407.58 686.183 1457.9 667.467 1506.9 C 660.486 1525.17 638.69 1523.75 644.456 1504.66 C 662.307 1445.57 683.952 1387.4 702.036 1328.37 L 702.657 1327.03 C 704.459 1322.5 706.306 1316.69 707.754 1311.95 C 716.761 1282.47 728.443 1252.83 736.798 1223.24 z"/>
<path transform="translate(0,0)" fill="rgb(185,133,250)" d="M 722.321 1359.08 C 725.582 1360.34 730.564 1369.59 733.029 1373.33 L 717.118 1373.4 C 719.021 1368.86 720.681 1363.76 722.321 1359.08 z"/>
<path transform="translate(0,0)" fill="rgb(244,245,246)" d="M 292.79 587.001 C 236.84 540.277 201.958 446.848 201.382 375.033 C 200.573 274.026 249.45 177.928 330.62 118.316 C 393.093 72.0113 468.77 46.963 546.533 46.8512 C 645.391 45.9743 734.39 79.5524 805.322 149.359 C 814.244 156.896 826.031 170.925 833.223 180.177 C 870.431 227.399 893.049 284.455 898.301 344.345 C 898.582 347.734 898.824 351.127 899.028 354.521 C 900.438 423.424 887.282 476.448 850.384 535.421 C 794.898 616.565 717.751 668.274 620.614 686.654 C 595.754 691.353 570.479 693.492 545.183 693.038 C 501.735 693.183 457.712 683.768 417.138 668.612 C 381.944 656.059 315.13 616.51 292.79 587.001 z"/>
<path transform="translate(0,0)" fill="rgb(230,231,187)" d="M 442.119 129.184 C 509.84 110.688 581.232 92.3458 648.368 72.7638 L 721.61 316.795 L 739.787 377.09 C 741.633 383.211 748.112 403.478 748.526 408.926 C 773.42 412.937 811.627 433.121 808.869 463.165 C 814.744 472.422 816.347 477.353 815.913 488.538 C 816.38 507.804 819.402 525.624 805.342 540.405 C 803.127 542.715 800.829 544.945 798.453 547.09 C 796.063 563.056 791.042 572.623 777.518 582.285 C 747.167 603.967 699.993 608.449 663.851 602.695 C 657.826 601.736 641.51 598.45 636.655 595.316 C 632.538 605.91 629.858 612.686 623.293 622.126 C 609.132 641.824 587.743 655.108 563.809 659.069 C 534.873 663.67 500.169 653.141 481.565 629.747 C 476.804 625.029 473.458 620.136 470.194 614.348 C 459.85 596.419 456.654 578.504 457.75 557.918 C 409.154 557.396 353.58 559.561 305.847 557.572 C 302.921 555.583 300.03 553.303 300.019 549.431 C 299.841 488.739 299.559 428.003 300.138 367.316 C 300.168 364.242 300.438 359.063 302.436 356.799 C 315.951 351.49 423.879 354.094 447.088 354.112 C 419.652 318.172 391.807 278.611 364.935 241.882 C 378.327 232.496 391.589 222.927 404.719 213.177 C 399.504 202.819 393.86 192.049 388.855 181.644 C 408.879 172.072 429.461 162.673 449.321 152.956 L 442.119 129.184 z"/>
<path transform="translate(0,0)" fill="rgb(50,49,59)" d="M 478.162 353.776 C 486.781 354.614 501.108 354.265 509.771 353.764 L 512.093 353.545 C 518.386 354.245 522.26 354.214 528.617 354.127 L 542.784 354.102 C 553.168 353.888 569.535 350.563 569.902 364.948 C 569.93 366.561 569.903 368.175 569.819 369.787 C 570.008 376.392 570.167 382.697 570.09 389.303 C 570.057 399.456 569.734 415.64 570.245 425.244 C 571.554 449.816 576.328 451.414 569.077 475.772 C 589.621 481.574 588.561 483.593 605.802 491.876 C 608.645 495.342 610.094 497.66 614.012 499.853 C 614.292 500.111 615.329 500.978 615.442 501.263 C 619.766 508.026 625.962 510.831 632.882 514.665 L 632.387 518.431 L 628.168 516.225 C 626.923 519.488 634.242 530.519 635.402 535.806 L 636.992 537.967 L 640.328 554.801 C 642.688 558.373 647.557 559.57 651.943 561.235 L 651.848 565.364 L 654.21 567.016 L 654.202 569.213 C 651.321 569.086 642.541 566.761 641.394 567.233 C 641.43 571.712 644.019 572.058 648.151 572.838 L 646.751 573.422 C 644.662 574.273 643.88 574.362 641.676 574.753 L 641.948 575.737 C 642.292 577.01 643.014 579.705 643.163 580.922 L 640.311 581.837 C 638.942 584.669 637.325 591.451 637.52 594.407 L 636.655 595.316 C 632.538 605.91 629.858 612.686 623.293 622.126 C 609.132 641.824 587.743 655.108 563.809 659.069 C 534.873 663.67 500.169 653.141 481.565 629.747 C 476.804 625.029 473.458 620.136 470.194 614.348 C 459.85 596.419 456.654 578.504 457.75 557.918 C 409.154 557.396 353.58 559.561 305.847 557.572 C 302.921 555.583 300.03 553.303 300.019 549.431 C 299.841 488.739 299.559 428.003 300.138 367.316 C 300.168 364.242 300.438 359.063 302.436 356.799 C 315.951 351.49 423.879 354.094 447.088 354.112 C 454.902 354.137 467.51 354.545 474.919 353.667 L 478.162 353.776 z"/>
<path transform="translate(0,0)" fill="rgb(223,224,152)" d="M 529.944 475.477 C 545.874 472.823 553.348 472.503 569.077 475.772 C 589.621 481.574 588.561 483.593 605.802 491.876 C 608.645 495.342 610.094 497.66 614.012 499.853 C 614.292 500.111 615.329 500.978 615.442 501.263 C 619.766 508.026 625.962 510.831 632.882 514.665 L 632.387 518.431 L 628.168 516.225 C 626.923 519.488 634.242 530.519 635.402 535.806 L 636.992 537.967 L 640.328 554.801 C 642.688 558.373 647.557 559.57 651.943 561.235 L 651.848 565.364 L 654.21 567.016 L 654.202 569.213 C 651.321 569.086 642.541 566.761 641.394 567.233 C 641.43 571.712 644.019 572.058 648.151 572.838 L 646.751 573.422 C 644.662 574.273 643.88 574.362 641.676 574.753 L 641.948 575.737 C 642.292 577.01 643.014 579.705 643.163 580.922 L 640.311 581.837 C 638.942 584.669 637.325 591.451 637.52 594.407 L 636.655 595.316 C 632.538 605.91 629.858 612.686 623.293 622.126 C 609.132 641.824 587.743 655.108 563.809 659.069 C 534.873 663.67 500.169 653.141 481.565 629.747 C 476.804 625.029 473.458 620.136 470.194 614.348 C 459.85 596.419 456.654 578.504 457.75 557.918 C 409.154 557.396 353.58 559.561 305.847 557.572 C 321.678 556.722 342.114 557.303 358.356 557.298 L 457.54 557.302 C 458.347 551.544 460.521 543.834 461.989 538.01 C 464.147 531.549 466.927 525.312 470.29 519.388 C 483.94 495.792 503.949 482.237 529.944 475.477 z"/>
<path transform="translate(0,0)" fill="rgb(254,212,124)" d="M 529.944 475.477 C 545.874 472.823 553.348 472.503 569.077 475.772 C 589.621 481.574 588.561 483.593 605.802 491.876 C 608.645 495.342 610.094 497.66 614.012 499.853 C 614.292 500.111 615.329 500.978 615.442 501.263 C 619.766 508.026 625.962 510.831 632.882 514.665 L 632.387 518.431 L 628.168 516.225 C 626.923 519.488 634.242 530.519 635.402 535.806 L 636.992 537.967 L 640.328 554.801 C 642.688 558.373 647.557 559.57 651.943 561.235 L 651.848 565.364 L 654.21 567.016 L 654.202 569.213 C 651.321 569.086 642.541 566.761 641.394 567.233 C 641.43 571.712 644.019 572.058 648.151 572.838 L 646.751 573.422 C 644.662 574.273 643.88 574.362 641.676 574.753 L 641.948 575.737 C 642.292 577.01 643.014 579.705 643.163 580.922 L 640.311 581.837 C 638.942 584.669 637.325 591.451 637.52 594.407 L 636.655 595.316 C 632.538 605.91 629.858 612.686 623.293 622.126 L 621.131 621.661 C 623.718 613.362 622.379 612.131 615.495 608.257 C 631.687 582.222 631.134 549.119 614.082 523.64 C 597.031 498.16 566.64 485.025 536.398 490.064 C 506.156 495.104 481.667 517.384 473.799 547.016 C 473.609 544.522 473.822 542.732 472.23 540.912 C 469.722 541.855 469.926 542.054 467.376 542.132 C 464.614 540.727 463.835 540.563 461.989 538.01 C 464.147 531.549 466.927 525.312 470.29 519.388 C 483.94 495.792 503.949 482.237 529.944 475.477 z"/>
<path transform="translate(0,0)" fill="rgb(250,202,112)" d="M 457.54 557.302 C 458.347 551.544 460.521 543.834 461.989 538.01 C 463.835 540.563 464.614 540.727 467.376 542.132 C 469.926 542.054 469.722 541.855 472.23 540.912 C 473.822 542.732 473.609 544.522 473.799 547.016 C 463.882 584.365 482.792 623.348 518.265 638.679 C 553.737 654.01 595.087 641.072 615.495 608.257 C 622.379 612.131 623.718 613.362 621.131 621.661 L 623.293 622.126 C 609.132 641.824 587.743 655.108 563.809 659.069 C 534.873 663.67 500.169 653.141 481.565 629.747 C 476.804 625.029 473.458 620.136 470.194 614.348 C 459.85 596.419 456.654 578.504 457.75 557.918 C 409.154 557.396 353.58 559.561 305.847 557.572 C 321.678 556.722 342.114 557.303 358.356 557.298 L 457.54 557.302 z"/>
<path transform="translate(0,0)" fill="rgb(244,197,125)" d="M 473.202 599.398 C 475.376 601.212 474.517 600.051 475.177 603.421 C 477.451 605.484 476.123 604.657 479.672 605.3 L 479.078 606.874 L 478.727 605.99 L 478.032 606.058 L 477.747 608.236 L 475.449 609.983 C 475.066 611.199 475.439 610.629 474.021 611.446 C 467.032 603.647 474.759 609.047 473.202 599.398 z"/>
<path transform="translate(0,0)" fill="rgb(254,212,124)" d="M 485.792 600.876 C 479.709 594.837 477.466 574.075 477.439 565.375 C 477.382 546.878 485.162 527.883 498.204 514.797 C 511.907 501.018 530.598 493.364 550.029 493.574 C 568.991 493.779 587.095 501.51 600.354 515.067 C 614.03 529.073 621.549 547.959 621.242 567.532 C 620.213 609.326 587.54 642.629 545.404 640.225 C 540.946 639.971 536.581 639.345 532.17 638.704 C 525.485 636.422 515.985 632.726 510 629.008 L 504.453 625.003 C 495.052 613.905 492.912 614.429 485.792 600.876 z"/>
<path transform="translate(0,0)" fill="rgb(244,197,125)" d="M 485.792 600.876 C 490.534 598.943 490.683 599.485 492.024 593.786 L 493.459 593.002 C 498.447 595.645 501.758 602.103 505.608 606.099 C 506.563 607.091 514.585 604.062 515.443 608.266 C 516.665 614.247 514.505 621.22 509.05 624.549 L 504.453 625.003 C 495.052 613.905 492.912 614.429 485.792 600.876 z"/>
<path transform="translate(0,0)" fill="rgb(250,202,112)" d="M 510 629.008 L 511.422 627.167 C 513.699 628.459 512.899 628.575 514.862 628.414 L 515.461 627.455 C 517.096 624.885 517.537 623.589 520.318 622.417 C 526.772 624.726 526.757 633.336 532.17 638.704 C 525.485 636.422 515.985 632.726 510 629.008 z"/>
<path transform="translate(0,0)" fill="rgb(223,224,152)" d="M 537.794 523.205 C 543.553 530.446 552.523 527.767 561.873 528.134 C 561.6 532.32 560.685 538.104 560.121 542.406 C 555.435 541.986 550.215 541.774 545.474 541.478 C 547.209 546.549 549.365 551.804 551.331 556.818 C 554.184 556.764 557.038 556.756 559.892 556.796 C 566.595 556.916 572.995 559.269 577.57 564.315 C 581.126 568.218 582.838 573.459 582.272 578.71 C 581.19 588.69 575.087 593.204 567.989 598.813 C 569.016 601.277 570.205 605.639 571.035 608.331 C 567.213 610.055 564.669 611.959 561.218 611.033 L 560.582 608.561 C 556.751 600.357 540.778 603.674 530.759 602.291 L 533.802 587.729 C 541.207 589.287 545.31 589.59 552.915 590.049 C 550.734 583.206 549.567 579.782 546.464 573.369 C 537.028 573.567 528.695 573.957 521.144 566.689 C 517.739 563.473 515.823 558.987 515.855 554.303 C 515.82 534.46 530.89 539.346 530.054 526.741 C 532.222 524.261 534.229 524.304 537.794 523.205 z"/>
<path transform="translate(0,0)" fill="rgb(254,212,124)" d="M 557.029 571.332 C 557.802 571.449 558.572 571.577 559.341 571.716 C 563.817 572.53 564.525 572.942 566.865 576.377 C 567.374 580.402 566.908 580.984 565.527 584.969 C 563.859 585.656 564.557 585.481 562.635 585.283 C 559.777 581.578 558.488 575.958 557.029 571.332 z"/>
<path transform="translate(0,0)" fill="rgb(254,212,124)" d="M 534.678 544.6 C 537.668 546.917 541.241 554.642 538.659 558.444 C 534.346 557.254 533.307 557.097 531.127 553.071 C 531.268 548.97 532.261 548.187 534.678 544.6 z"/>
<path transform="translate(0,0)" fill="rgb(113,112,120)" d="M 569.819 369.787 C 570.008 376.392 570.167 382.697 570.09 389.303 C 570.057 399.456 569.734 415.64 570.245 425.244 C 571.554 449.816 576.328 451.414 569.077 475.772 C 553.348 472.503 545.874 472.823 529.944 475.477 C 519.421 469.837 426.033 478.828 414.827 471.958 C 412.513 470.54 410.975 468.516 410.416 465.847 C 409.165 459.866 409.08 442.297 412.598 437.528 C 414.313 435.204 416.626 434.502 419.35 434.028 C 431.738 431.869 446.37 433.25 458.981 433.253 L 540.843 433.358 C 547.656 433.387 562.817 434.236 568.488 433.494 C 570.301 424.574 569.114 382.715 569.819 369.787 z"/>
<path transform="translate(0,0)" fill="rgb(50,49,59)" d="M 424.384 443.549 C 428.725 441.838 433.63 443.98 435.326 448.327 C 437.021 452.674 434.862 457.572 430.509 459.252 C 426.177 460.924 421.31 458.777 419.622 454.452 C 417.935 450.126 420.065 445.251 424.384 443.549 z"/>
<path transform="translate(0,0)" fill="rgb(223,224,152)" d="M 607.75 439.047 C 631.571 407.164 690.729 399.652 727.625 405.012 L 746.267 407.696 L 748.526 408.926 C 773.42 412.937 811.627 433.121 808.869 463.165 C 814.744 472.422 816.347 477.353 815.913 488.538 C 816.38 507.804 819.402 525.624 805.342 540.405 C 803.127 542.715 800.829 544.945 798.453 547.09 C 796.063 563.056 791.042 572.623 777.518 582.285 C 747.167 603.967 699.993 608.449 663.851 602.695 C 657.826 601.736 641.51 598.45 636.655 595.316 L 637.52 594.407 C 637.325 591.451 638.942 584.669 640.311 581.837 L 643.163 580.922 C 643.014 579.705 642.292 577.01 641.948 575.737 L 641.676 574.753 C 643.88 574.362 644.662 574.273 646.751 573.422 L 648.151 572.838 C 644.019 572.058 641.43 571.712 641.394 567.233 C 642.541 566.761 651.321 569.086 654.202 569.213 L 654.21 567.016 L 651.848 565.364 L 651.943 561.235 C 647.557 559.57 642.688 558.373 640.328 554.801 L 636.992 537.967 L 635.402 535.806 C 634.242 530.519 626.923 519.488 628.168 516.225 L 632.387 518.431 L 632.882 514.665 C 625.962 510.831 619.766 508.026 615.442 501.263 C 615.329 500.978 614.292 500.111 614.012 499.853 C 610.094 497.66 608.645 495.342 605.802 491.876 C 600.334 481.727 600.684 475.293 601.137 464.058 C 601.24 461.785 601.043 460.863 600.786 458.631 C 600.738 451.981 604.27 444.589 607.75 439.047 z"/>
<path transform="translate(0,0)" fill="rgb(244,245,246)" d="M 814.299 497.038 L 815.913 488.538 C 816.38 507.804 819.402 525.624 805.342 540.405 C 803.127 542.715 800.829 544.945 798.453 547.09 C 796.063 563.056 791.042 572.623 777.518 582.285 C 747.167 603.967 699.993 608.449 663.851 602.695 C 657.826 601.736 641.51 598.45 636.655 595.316 L 637.52 594.407 C 637.325 591.451 638.942 584.669 640.311 581.837 L 643.163 580.922 C 643.014 579.705 642.292 577.01 641.948 575.737 L 641.676 574.753 C 643.88 574.362 644.662 574.273 646.751 573.422 L 648.151 572.838 C 644.019 572.058 641.43 571.712 641.394 567.233 C 642.541 566.761 651.321 569.086 654.202 569.213 L 654.21 567.016 L 651.848 565.364 L 651.943 561.235 C 647.557 559.57 642.688 558.373 640.328 554.801 L 636.992 537.967 L 635.402 535.806 C 634.242 530.519 626.923 519.488 628.168 516.225 L 632.387 518.431 L 632.882 514.665 C 644.823 520.205 651.42 522.638 664.237 525.606 C 676.718 528.734 694.696 530.432 707.47 530.01 C 731.89 531.132 760.191 522.963 781.996 512.137 C 783.832 512.513 788.275 513.056 789.323 513.641 L 796.315 515.367 C 804.293 509.393 811.399 498.866 814.299 497.038 z"/>
<path transform="translate(0,0)" fill="rgb(244,245,246)" d="M 796.315 515.367 C 804.293 509.393 811.399 498.866 814.299 497.038 C 812.923 544.62 738.653 554.968 702.391 553.058 C 676.67 551.703 658.313 546.672 635.402 535.806 C 634.242 530.519 626.923 519.488 628.168 516.225 L 632.387 518.431 L 632.882 514.665 C 644.823 520.205 651.42 522.638 664.237 525.606 C 676.718 528.734 694.696 530.432 707.47 530.01 C 731.89 531.132 760.191 522.963 781.996 512.137 C 783.832 512.513 788.275 513.056 789.323 513.641 L 796.315 515.367 z"/>
<path transform="translate(0,0)" fill="rgb(244,197,125)" d="M 781.996 512.137 C 783.832 512.513 788.275 513.056 789.323 513.641 L 796.315 515.367 C 767.733 533.77 739.491 538.613 705.938 538.113 C 690.097 537.298 681.883 536.109 666.514 532.629 L 664.237 525.606 C 676.718 528.734 694.696 530.432 707.47 530.01 C 731.89 531.132 760.191 522.963 781.996 512.137 z"/>
<path transform="translate(0,0)" fill="rgb(250,202,112)" d="M 632.882 514.665 C 644.823 520.205 651.42 522.638 664.237 525.606 L 666.514 532.629 C 653.956 529.198 643.443 525.276 632.387 518.431 L 632.882 514.665 z"/>
<path transform="translate(0,0)" fill="rgb(244,245,246)" d="M 814.299 497.038 L 815.913 488.538 C 816.38 507.804 819.402 525.624 805.342 540.405 C 803.127 542.715 800.829 544.945 798.453 547.09 C 796.063 563.056 791.042 572.623 777.518 582.285 C 747.167 603.967 699.993 608.449 663.851 602.695 C 657.826 601.736 641.51 598.45 636.655 595.316 L 637.52 594.407 C 671.29 605.095 707.401 605.97 741.648 596.93 C 759.562 592.021 781.906 582.034 791.394 565.023 C 793.492 561.26 796.603 554.948 795.447 550.747 L 793.643 550.436 L 789.795 553.298 C 771.976 562.177 767.944 561.958 750.791 567.718 C 744.531 568.686 729.206 571.216 723.177 571.147 L 721.255 572.393 C 715.489 572.419 710.52 573.994 704.224 574.552 C 689.114 575.798 672.749 574.802 658.125 570.657 C 657.165 570.385 655.349 569.577 654.202 569.213 L 654.21 567.016 L 651.848 565.364 L 651.943 561.235 C 647.557 559.57 642.688 558.373 640.328 554.801 L 636.992 537.967 L 635.402 535.806 C 658.313 546.672 676.67 551.703 702.391 553.058 C 738.653 554.968 812.923 544.62 814.299 497.038 z"/>
<path transform="translate(0,0)" fill="rgb(113,112,120)" d="M 814.299 497.038 L 815.913 488.538 C 816.38 507.804 819.402 525.624 805.342 540.405 C 803.127 542.715 800.829 544.945 798.453 547.09 C 796.063 563.056 791.042 572.623 777.518 582.285 C 747.167 603.967 699.993 608.449 663.851 602.695 C 657.826 601.736 641.51 598.45 636.655 595.316 L 637.52 594.407 C 671.29 605.095 707.401 605.97 741.648 596.93 C 759.562 592.021 781.906 582.034 791.394 565.023 C 793.492 561.26 796.603 554.948 795.447 550.747 L 793.643 550.436 L 789.795 553.298 C 771.976 562.177 767.944 561.958 750.791 567.718 C 744.531 568.686 729.206 571.216 723.177 571.147 L 721.255 572.393 C 715.489 572.419 710.52 573.994 704.224 574.552 C 689.114 575.798 672.749 574.802 658.125 570.657 C 657.165 570.385 655.349 569.577 654.202 569.213 L 654.21 567.016 L 651.848 565.364 L 651.943 561.235 C 647.557 559.57 642.688 558.373 640.328 554.801 C 648.802 557.391 656.501 561.265 665.644 563.658 C 706.065 574.236 754.727 571.637 791.158 550.094 C 803.682 542.688 816.206 528.507 813.533 513.049 C 804.662 525.609 799.507 532.157 785.409 539.175 C 741.367 561.1 679.899 560.511 636.992 537.967 L 635.402 535.806 C 658.313 546.672 676.67 551.703 702.391 553.058 C 738.653 554.968 812.923 544.62 814.299 497.038 z"/>
<path transform="translate(0,0)" fill="rgb(244,197,125)" d="M 651.943 561.235 C 680.991 570.842 693.539 571.001 723.177 571.147 L 721.255 572.393 C 715.489 572.419 710.52 573.994 704.224 574.552 C 689.114 575.798 672.749 574.802 658.125 570.657 C 657.165 570.385 655.349 569.577 654.202 569.213 L 654.21 567.016 L 651.848 565.364 L 651.943 561.235 z"/>
<path transform="translate(0,0)" fill="rgb(244,197,125)" d="M 789.795 553.298 C 779.235 567.988 755.12 579.481 738.034 582.418 C 736.696 582.646 735.353 582.838 734.005 582.995 C 708.417 591.518 668.826 587.934 643.163 580.922 C 643.014 579.705 642.292 577.01 641.948 575.737 L 641.676 574.753 C 643.88 574.362 644.662 574.273 646.751 573.422 L 648.151 572.838 C 644.019 572.058 641.43 571.712 641.394 567.233 C 642.541 566.761 651.321 569.086 654.202 569.213 C 655.349 569.577 657.165 570.385 658.125 570.657 C 672.749 574.802 689.114 575.798 704.224 574.552 C 710.52 573.994 715.489 572.419 721.255 572.393 L 723.177 571.147 C 729.206 571.216 744.531 568.686 750.791 567.718 C 767.944 561.958 771.976 562.177 789.795 553.298 z"/>
<path transform="translate(0,0)" fill="rgb(223,224,152)" d="M 648.151 572.838 C 644.019 572.058 641.43 571.712 641.394 567.233 C 642.541 566.761 651.321 569.086 654.202 569.213 C 655.349 569.577 657.165 570.385 658.125 570.657 C 672.749 574.802 689.114 575.798 704.224 574.552 C 710.52 573.994 715.489 572.419 721.255 572.393 L 723.177 571.147 C 729.206 571.216 744.531 568.686 750.791 567.718 C 749.204 570.525 738.983 574.131 736.049 573.903 C 734.044 574.673 732.007 575.36 729.944 575.963 C 710.866 581.473 665.099 582.104 648.151 572.838 z"/>
<path transform="translate(0,0)" fill="rgb(244,245,246)" d="M 808.869 463.165 C 814.744 472.422 816.347 477.353 815.913 488.538 L 814.299 497.038 C 811.399 498.866 804.293 509.393 796.315 515.367 L 789.323 513.641 C 788.275 513.056 783.832 512.513 781.996 512.137 C 760.191 522.963 731.89 531.132 707.47 530.01 C 694.696 530.432 676.718 528.734 664.237 525.606 C 651.42 522.638 644.823 520.205 632.882 514.665 C 625.962 510.831 619.766 508.026 615.442 501.263 C 615.329 500.978 614.292 500.111 614.012 499.853 C 610.094 497.66 608.645 495.342 605.802 491.876 C 600.334 481.727 600.684 475.293 601.137 464.058 C 602.238 466.655 603.096 468.049 603.034 470.882 C 633.4 516.575 714.456 521.387 761.871 504.021 C 783.556 496.513 794.214 489.125 807.079 470.732 L 808.869 463.165 z"/>
<path transform="translate(0,0)" fill="rgb(254,212,124)" d="M 808.869 463.165 C 814.744 472.422 816.347 477.353 815.913 488.538 L 814.299 497.038 C 811.399 498.866 804.293 509.393 796.315 515.367 L 789.323 513.641 C 791.339 510.03 793.34 510.77 794.563 508.142 L 792.974 504.343 C 807.959 491.542 809.468 482.021 808.869 463.165 z"/>
<path transform="translate(0,0)" fill="rgb(126,113,80)" d="M 808.869 463.165 C 809.468 482.021 807.959 491.542 792.974 504.343 L 794.563 508.142 C 793.34 510.77 791.339 510.03 789.323 513.641 C 788.275 513.056 783.832 512.513 781.996 512.137 C 760.191 522.963 731.89 531.132 707.47 530.01 C 694.696 530.432 676.718 528.734 664.237 525.606 C 651.42 522.638 644.823 520.205 632.882 514.665 C 625.962 510.831 619.766 508.026 615.442 501.263 C 642.808 521.229 669.257 527.829 702.992 528.259 C 738.211 528.707 807.381 517.012 807.079 470.732 L 808.869 463.165 z"/>
<path transform="translate(0,0)" fill="rgb(250,202,112)" d="M 792.974 504.343 L 794.563 508.142 C 793.34 510.77 791.339 510.03 789.323 513.641 C 788.275 513.056 783.832 512.513 781.996 512.137 C 785.808 509.676 789.323 507.028 792.974 504.343 z"/>
<path transform="translate(0,0)" fill="rgb(126,113,80)" d="M 601.137 464.058 C 602.238 466.655 603.096 468.049 603.034 470.882 C 602.774 486.925 606.043 487.965 614.012 499.853 C 610.094 497.66 608.645 495.342 605.802 491.876 C 600.334 481.727 600.684 475.293 601.137 464.058 z"/>
<path transform="translate(0,0)" fill="rgb(254,212,124)" d="M 607.75 439.047 C 631.571 407.164 690.729 399.652 727.625 405.012 L 746.267 407.696 L 748.526 408.926 C 773.42 412.937 811.627 433.121 808.869 463.165 L 807.079 470.732 C 794.214 489.125 783.556 496.513 761.871 504.021 C 758.811 499.18 759.252 500.4 760.958 495.445 C 762.794 491.733 781.797 485.004 787.09 474.205 C 807.382 432.798 749.644 414.65 719.608 412.347 C 699.391 410.798 679.774 411.942 660.522 418.312 C 647.52 422.471 628.189 431.939 621.877 444.123 C 621.429 441.566 621.416 440.596 620.118 438.287 L 618.603 437.873 C 616.049 442.047 615.877 444.132 611.022 442.964 L 610.307 439.861 L 607.75 439.047 z"/>
<path transform="translate(0,0)" fill="rgb(244,197,125)" d="M 607.75 439.047 L 610.307 439.861 L 611.022 442.964 C 615.877 444.132 616.049 442.047 618.603 437.873 L 620.118 438.287 C 621.416 440.596 621.429 441.566 621.877 444.123 C 616.366 455.19 619.432 455.74 618.068 464.458 C 628.724 484.405 636.462 491.637 659.948 498.888 C 688.487 507.568 718.923 507.839 747.612 499.669 C 750.839 498.754 758.248 496.847 760.958 495.445 C 759.252 500.4 758.811 499.18 761.871 504.021 C 714.456 521.387 633.4 516.575 603.034 470.882 C 603.096 468.049 602.238 466.655 601.137 464.058 C 601.24 461.785 601.043 460.863 600.786 458.631 C 600.738 451.981 604.27 444.589 607.75 439.047 z"/>
<path transform="translate(0,0)" fill="rgb(250,202,112)" d="M 607.75 439.047 L 610.307 439.861 L 611.022 442.964 C 615.877 444.132 616.049 442.047 618.603 437.873 L 620.118 438.287 C 621.416 440.596 621.429 441.566 621.877 444.123 C 616.366 455.19 619.432 455.74 618.068 464.458 L 615.733 460.768 C 607.416 458.594 613.787 457.715 611.2 451.423 L 609.375 451.59 C 606.484 453.657 605.716 454.018 604.326 457.278 L 600.786 458.631 C 600.738 451.981 604.27 444.589 607.75 439.047 z"/>
<path transform="translate(0,0)" fill="rgb(254,212,124)" d="M 621.861 453.135 C 631.455 434.505 641.428 430.511 660.244 422.626 C 689.552 410.343 775.136 413.735 786.302 451.46 C 788.16 457.94 787.267 464.899 783.834 470.7 C 774.304 486.516 748.866 495.721 731.651 498.231 C 727.548 498.829 722.035 499.052 718.427 499.855 C 707.473 499.981 702.895 500.752 691.465 499.729 L 688.797 499.325 C 682.607 497.586 675.851 498.019 668.163 495.6 C 664.779 496.115 656.02 492.56 652.24 491.247 C 642.993 486.002 640.635 484.981 632.552 477.868 C 628.379 474.693 625.893 470.061 623.025 465.595 C 622.893 460.298 622.778 458.405 621.861 453.135 z"/>
<path transform="translate(0,0)" fill="rgb(244,197,125)" d="M 631.895 463.837 C 635.25 462.939 633.696 462.781 636.73 464.123 C 639.847 469.243 639.98 469.391 646.372 470.109 C 646.056 471.558 646.308 470.852 644.532 472.074 L 649.166 471.918 C 651.006 473.712 651.171 476.109 651.774 478.726 L 653.234 479.545 L 656.009 478.483 L 657.328 479.584 C 656.084 483.163 653.474 483.1 653.621 483.699 C 654.542 487.442 656.895 487.617 652.24 491.247 C 642.993 486.002 640.635 484.981 632.552 477.868 C 628.379 474.693 625.893 470.061 623.025 465.595 C 627.14 465.565 629.398 466.097 631.895 463.837 z"/>
<path transform="translate(0,0)" fill="rgb(250,202,112)" d="M 623.025 465.595 C 627.14 465.565 629.398 466.097 631.895 463.837 L 631.533 467.37 C 633.811 469.107 634.13 469.349 635.119 472.222 C 634.205 476.807 633.998 474.765 632.552 477.868 C 628.379 474.693 625.893 470.061 623.025 465.595 z"/>
<path transform="translate(0,0)" fill="rgb(244,197,125)" d="M 668.163 495.6 L 667.354 493.294 L 662.226 491.164 L 661.655 489.603 L 664.435 485.433 L 661.982 484.829 C 661.131 482.64 661.47 482.482 662.051 480.112 C 663.427 479.682 670.877 481.198 673.101 481.49 C 671.162 486.022 667.794 484.672 667.557 488.629 C 670.677 490.021 677.003 491.551 680.463 490.933 C 683.951 490.31 678.836 486.637 683.594 488.298 C 686.814 495.82 683.465 494.045 688.797 499.325 C 682.607 497.586 675.851 498.019 668.163 495.6 z"/>
<path transform="translate(0,0)" fill="rgb(244,197,125)" d="M 691.465 499.729 C 697.727 491.368 703.418 497.53 705.716 487.733 L 706.968 487.922 C 708.212 490.684 708.027 490.977 708.103 493.94 L 709.409 494.441 C 713.677 496.097 715.075 496.525 718.427 499.855 C 707.473 499.981 702.895 500.752 691.465 499.729 z"/>
<path transform="translate(0,0)" fill="rgb(223,224,152)" d="M 688.311 432.869 C 687.838 432.905 719.67 437.057 719.433 436.94 C 718.876 440.025 718.937 440.805 717.043 443.374 C 713.22 445.11 706.62 443.91 701.811 443.633 C 703.776 446.598 705.777 449.539 707.814 452.454 C 717.618 451.959 738.087 452.526 743.503 462.174 C 744.353 471.603 735.285 472.775 728.791 476.587 C 729.058 480.932 729.064 481.918 725.661 484.346 C 722.609 484.581 722.316 484.718 719.207 484.154 C 718.721 483.534 716.36 480.577 715.77 480.477 C 705.302 478.692 695.404 480.197 684.451 478.993 C 685.07 477.604 687.045 472.991 688.118 472.356 C 692.344 469.85 704.413 471.402 709.724 471.549 C 707.849 468.659 705.312 465.285 703.281 462.418 C 694.06 462.782 670.869 463.689 669.539 450.339 C 669.028 445.211 683.972 435.005 688.311 432.869 z"/>
<path transform="translate(0,0)" fill="rgb(254,212,124)" d="M 715.689 460.873 C 719.485 461.367 721.235 461.266 724.414 463.186 C 726.281 466.364 725.861 464.656 725.417 468.55 C 721.195 468.972 722.877 469.312 718.976 467.566 C 716.656 464.651 716.607 464.536 715.689 460.873 z"/>
<path transform="translate(0,0)" fill="rgb(254,212,124)" d="M 687.8 445.199 C 691.786 446.06 693.45 448.615 695.244 452.019 L 694.518 453.617 C 690.654 453.165 688.843 453.398 686.002 451.007 C 685.454 447.53 685.357 448.894 687.8 445.199 z"/>
<path transform="translate(0,0)" fill="rgb(244,245,246)" d="M 442.119 129.184 C 509.84 110.688 581.232 92.3458 648.368 72.7638 L 721.61 316.795 L 739.787 377.09 C 741.633 383.211 748.112 403.478 748.526 408.926 L 746.267 407.696 L 727.625 405.012 C 718.042 369.098 705.407 330 694.631 294.192 L 644.975 128.962 C 623.846 130.058 612.441 126.619 603.236 105.798 C 569.991 113.385 531.635 125.481 497.714 134.251 C 500.845 154.533 494.365 167.417 475.135 174.89 C 478.617 191.111 488.968 222.296 493.971 238.945 L 528.617 354.127 C 522.26 354.214 518.386 354.245 512.093 353.545 L 509.771 353.764 C 501.108 354.265 486.781 354.614 478.162 353.776 L 474.919 353.667 C 467.51 354.545 454.902 354.137 447.088 354.112 C 419.652 318.172 391.807 278.611 364.935 241.882 C 378.327 232.496 391.589 222.927 404.719 213.177 C 399.504 202.819 393.86 192.049 388.855 181.644 C 408.879 172.072 429.461 162.673 449.321 152.956 L 442.119 129.184 z"/>
<path transform="translate(0,0)" fill="rgb(244,245,246)" d="M 392.526 182.864 C 410.068 174.561 432.658 163.032 450.146 155.75 L 489.5 286.832 C 495.628 307.245 502.902 334.587 509.771 353.764 C 501.108 354.265 486.781 354.614 478.162 353.776 L 392.526 182.864 z"/>
<path transform="translate(0,0)" fill="rgb(113,112,120)" d="M 404.719 213.177 C 419.632 246.444 439.199 280.351 455.199 313.246 C 459.744 322.591 472.013 344.766 474.919 353.667 C 467.51 354.545 454.902 354.137 447.088 354.112 C 419.652 318.172 391.807 278.611 364.935 241.882 C 378.327 232.496 391.589 222.927 404.719 213.177 z"/>
<path transform="translate(0,0)" fill="rgb(57,53,55)" d="M 442.119 129.184 C 509.84 110.688 581.232 92.3458 648.368 72.7638 L 721.61 316.795 L 739.787 377.09 C 741.633 383.211 748.112 403.478 748.526 408.926 L 746.267 407.696 C 742.917 398.85 738.45 382.108 735.495 372.281 L 713.709 299.715 L 646.614 76.1272 C 580.386 93.0436 511.609 112.95 445.425 130.999 C 449.456 142.383 453.736 158.32 457.281 170.138 L 480.033 246.004 C 489.554 277.745 504.754 322.632 512.093 353.545 L 509.771 353.764 C 502.902 334.587 495.628 307.245 489.5 286.832 L 450.146 155.75 C 432.658 163.032 410.068 174.561 392.526 182.864 L 478.162 353.776 L 474.919 353.667 C 472.013 344.766 459.744 322.591 455.199 313.246 C 439.199 280.351 419.632 246.444 404.719 213.177 C 399.504 202.819 393.86 192.049 388.855 181.644 C 408.879 172.072 429.461 162.673 449.321 152.956 L 442.119 129.184 z"/>
<path transform="translate(0,0)" fill="rgb(223,224,152)" d="M 542.784 354.102 C 536.211 332.869 535.858 314.722 546.47 294.442 C 555.344 277.527 570.626 264.874 588.899 259.311 C 608.607 253.075 629.996 255.04 648.238 264.763 C 666.15 274.219 679.444 290.555 685.062 310.015 C 704.295 376.24 634.039 426.037 572.818 390.888 L 570.09 389.303 C 570.167 382.697 570.008 376.392 569.819 369.787 C 569.903 368.175 569.93 366.561 569.902 364.948 C 569.535 350.563 553.168 353.888 542.784 354.102 z"/>
<path transform="translate(0,0)" fill="rgb(244,245,246)" d="M 622.311 298.682 C 625.053 300.237 628.915 304 630.499 306.604 C 635.347 314.576 636.156 310.073 640.241 311.783 C 641.645 314.669 642.145 315.256 642.192 318.53 L 639.122 320.676 C 637.358 324.557 639.288 328.204 638.405 331.358 C 631.574 355.748 612.35 345.343 601.58 332.518 L 587.85 336.99 C 592.49 342.544 594.584 344.314 600.368 348.516 C 597.712 352.068 595.498 355.542 591.996 358.202 C 584.443 352.29 582.096 348.912 576.946 340.836 C 573.616 342.292 572.789 342.643 569.278 343.446 C 566.97 341.884 565.673 337.648 566.499 334.994 C 567.153 334.755 571.698 333.023 571.767 332.816 C 577.669 315.348 570.353 311.879 591.415 306.63 C 601.505 309.747 604.244 312.873 610.15 320.918 L 623.38 316.48 C 620.578 313.047 617.563 310.357 614.355 307.316 L 622.311 298.682 z"/>
<path transform="translate(0,0)" fill="rgb(223,224,152)" d="M 586.513 320.622 C 590.791 320.74 592.163 321.184 595.643 323.395 L 595.846 324.914 L 593.875 326.178 C 589.995 327.257 589.056 328.178 585.491 327.288 C 584.795 324.025 585.328 324.327 586.513 320.622 z"/>
<path transform="translate(0,0)" fill="rgb(223,224,152)" d="M 624.197 324.967 C 625.612 325.083 625.512 325.251 626.89 325.911 L 627 328.068 C 624.94 331.389 624.572 331.661 621.011 333.289 C 618.874 331.758 617.76 331.271 616.681 328.868 C 618.416 326.378 620.84 326.19 624.197 324.967 z"/>
<path transform="translate(0,0)" fill="rgb(223,224,152)" d="M 574.432 200.426 C 582.271 198.073 590.764 200.457 596.232 206.547 C 601.7 212.637 603.16 221.337 599.979 228.878 C 597.517 234.713 592.569 239.136 586.495 240.93 C 575.321 244.231 563.583 237.864 560.257 226.696 C 556.931 215.529 563.273 203.777 574.432 200.426 z"/>
<path transform="translate(0,0)" fill="rgb(223,224,152)" d="M 1698.53 637.316 C 1716.97 648.279 1745.29 670.57 1762.27 684.441 C 1836.84 745.356 1903.8 820.442 1928.29 915.943 C 1953.58 1014.53 1921.93 1109.07 1881.3 1198.74 C 1874.3 1214.19 1864.21 1227.92 1857.75 1241.47 C 1897.5 1316.22 1876.98 1392.49 1799.88 1431.12 C 1781.29 1440.44 1762.52 1448.72 1741.92 1452.73 C 1736.26 1445.99 1732.5 1437.63 1724.44 1430.21 C 1665.83 1376.19 1563.24 1378.48 1490.28 1376.99 C 1450.82 1376.15 1411.35 1375.56 1371.89 1375.22 L 1370.82 1375.08 C 1370.3 1363.41 1371.44 1305.71 1373.44 1297.89 C 1371.7 1290.03 1372.32 1261.69 1371.85 1251.4 C 1371.34 1240.15 1369.38 1222.56 1369.43 1212.03 C 1372.07 1208.7 1375.19 1201.03 1377.35 1196.54 C 1404.67 1139.67 1446.47 1049.54 1507.53 1023.63 C 1524.94 1016.25 1542.26 1020.61 1558.26 1028.26 C 1573.06 1039.18 1575.01 1045.06 1578.29 1062.67 C 1582.98 1059.52 1585.32 1057.86 1589.57 1054.14 C 1650.61 946.789 1683.39 845.863 1694.58 722.044 C 1697.27 692.35 1697.29 666.8 1698.53 637.316 z"/>
<path transform="translate(0,0)" fill="rgb(247,125,162)" d="M 1698.53 637.316 C 1716.97 648.279 1745.29 670.57 1762.27 684.441 C 1836.84 745.356 1903.8 820.442 1928.29 915.943 C 1953.58 1014.53 1921.93 1109.07 1881.3 1198.74 C 1874.3 1214.19 1864.21 1227.92 1857.75 1241.47 C 1810.69 1169.5 1747.92 1146.19 1665.13 1148.77 C 1696.84 1117.24 1727.88 1062.05 1670.86 1037.88 C 1640.42 1024.98 1616.08 1042.8 1590.37 1053.8 L 1589.57 1054.14 C 1650.61 946.789 1683.39 845.863 1694.58 722.044 C 1697.27 692.35 1697.29 666.8 1698.53 637.316 z"/>
<path transform="translate(0,0)" fill="rgb(193,194,97)" d="M 1369.43 1212.03 C 1372.07 1208.7 1375.19 1201.03 1377.35 1196.54 C 1404.67 1139.67 1446.47 1049.54 1507.53 1023.63 C 1524.94 1016.25 1542.26 1020.61 1558.26 1028.26 C 1573.06 1039.18 1575.01 1045.06 1578.29 1062.67 C 1582.98 1059.52 1585.32 1057.86 1589.57 1054.14 L 1590.37 1053.8 C 1616.08 1042.8 1640.42 1024.98 1670.86 1037.88 C 1727.88 1062.05 1696.84 1117.24 1665.13 1148.77 C 1656.07 1150.08 1646.97 1151.11 1637.97 1152.53 C 1565.88 1163.94 1501.91 1201.27 1452.16 1254.1 C 1417.8 1290.57 1393.13 1330.09 1371.89 1375.22 L 1370.82 1375.08 C 1370.3 1363.41 1371.44 1305.71 1373.44 1297.89 C 1371.7 1290.03 1372.32 1261.69 1371.85 1251.4 C 1371.34 1240.15 1369.38 1222.56 1369.43 1212.03 z"/>
<path transform="translate(0,0)" fill="rgb(223,224,152)" d="M 1369.43 1212.03 C 1372.07 1208.7 1375.19 1201.03 1377.35 1196.54 C 1404.67 1139.67 1446.47 1049.54 1507.53 1023.63 C 1524.94 1016.25 1542.26 1020.61 1558.26 1028.26 C 1573.06 1039.18 1575.01 1045.06 1578.29 1062.67 C 1513.58 1110.9 1463.72 1174.95 1415.55 1239.04 C 1402.66 1256.2 1386.05 1282.26 1373.44 1297.89 C 1371.7 1290.03 1372.32 1261.69 1371.85 1251.4 C 1371.34 1240.15 1369.38 1222.56 1369.43 1212.03 z"/>
<path transform="translate(0,0)" fill="rgb(193,194,97)" d="M 1654.84 1269.42 C 1691.49 1267.72 1734.68 1274.25 1769.02 1287.04 C 1778.41 1290.53 1809.68 1302.5 1813.54 1311.05 C 1809.03 1311.67 1797.38 1303.83 1792.6 1301.51 C 1717.74 1265.27 1633.64 1266.56 1556.43 1291.21 C 1507.6 1306.08 1467.74 1329.61 1425.06 1356.43 L 1423.93 1356.12 C 1424.39 1355.23 1425.97 1352.31 1426.75 1351.75 C 1494.96 1303.25 1571.14 1274.21 1654.84 1269.42 z"/>
<path transform="translate(0,0)" fill="rgb(254,212,124)" d="M 671.067 907.143 C 711.87 907.21 747.083 891.497 774.346 860.857 C 762.934 918.111 760.261 970.473 762.671 1028.94 C 763.213 1042.08 763.494 1061.07 765.28 1073.6 L 764.904 1075.77 C 766.356 1090.15 767.009 1106.66 768.73 1120.56 C 774.361 1121.71 778.598 1122.63 784.34 1123.1 C 850.033 1124.52 908.907 1094.84 966.824 1068.42 C 968.072 1067.85 972.247 1068.15 973.774 1068.28 C 1006.33 1072.84 1063.76 1058.32 1094.11 1046.95 L 1101.17 1044.65 C 1130.83 1034.68 1158.83 1021.99 1189.1 1013.36 C 1209.87 1007.44 1227.47 1022.85 1241.34 1021.85 C 1248.06 1023.03 1258.31 1027.49 1264.62 1030.28 C 1305.96 1048.6 1343.86 1073.9 1355.4 1120.36 C 1363.06 1151.18 1367.08 1180.18 1369.43 1212.03 C 1369.38 1222.56 1371.34 1240.15 1371.85 1251.4 C 1372.32 1261.69 1371.7 1290.03 1373.44 1297.89 C 1371.44 1305.71 1370.3 1363.41 1370.82 1375.08 C 1368.73 1393.46 1368.41 1415 1366.89 1433.95 C 1361.74 1435.45 1356.48 1437.06 1351.29 1438.36 C 1326.07 1444.03 1307.59 1445.93 1281.78 1444.55 C 1266.66 1442.42 1249.91 1443.83 1247.24 1425.97 C 1244.66 1408.74 1243.04 1391.2 1239.89 1374.12 C 1221.35 1372.88 1195.95 1374.15 1176.13 1373.62 C 1154.87 1405.87 1133.36 1436.35 1108.05 1465.67 C 1101.87 1472.83 1090.57 1486.33 1083.71 1492.54 C 1072.98 1493.38 1065.22 1493.89 1054.29 1493.26 C 1029.17 1491.04 1011.8 1486.46 993.238 1469.08 C 987.897 1463.15 985.687 1459.93 981.614 1453.14 C 986.971 1441.05 994.259 1427.07 1000.15 1415.02 C 997.113 1400.7 994.527 1384.15 991.768 1369.57 C 989.178 1348.05 982.608 1317.05 978.652 1295 L 953.631 1295.81 L 952.083 1295.71 C 902.107 1294.13 872.913 1290.38 825.186 1274.48 C 799.641 1263.36 786.528 1258.16 762.555 1242.6 C 753.585 1236.35 745.425 1229.96 736.798 1223.24 C 734.403 1220.84 732.731 1219.68 729.986 1217.65 C 717.972 1205.73 705.781 1194.22 695.588 1180.68 L 694.322 1179.48 C 669.149 1147.44 649.223 1111.6 635.286 1073.31 L 634.657 1071.55 C 629.509 1060.09 624.078 1041.47 620.87 1029.35 C 635.567 984.033 649.269 949.064 671.067 907.143 z"/>
<path transform="translate(0,0)" fill="rgb(254,154,98)" d="M 671.067 907.143 C 711.87 907.21 747.083 891.497 774.346 860.857 C 762.934 918.111 760.261 970.473 762.671 1028.94 C 763.213 1042.08 763.494 1061.07 765.28 1073.6 L 764.904 1075.77 C 766.356 1090.15 767.009 1106.66 768.73 1120.56 C 774.361 1121.71 778.598 1122.63 784.34 1123.1 C 787.503 1143.97 794.225 1166.86 812.58 1178.78 C 858.632 1208.68 935.412 1208.39 987.711 1209.19 C 1027.43 1209.62 1067.16 1209.43 1106.87 1208.63 C 1104.77 1212.38 1100.45 1218.85 1100.65 1222.87 C 1096.15 1231.32 1071.37 1279.43 1067.68 1283.86 C 1048.02 1287.7 1028.19 1290.67 1008.27 1292.76 C 998.415 1293.73 988.54 1294.48 978.652 1295 L 953.631 1295.81 L 952.083 1295.71 C 902.107 1294.13 872.913 1290.38 825.186 1274.48 C 799.641 1263.36 786.528 1258.16 762.555 1242.6 C 753.585 1236.35 745.425 1229.96 736.798 1223.24 C 734.403 1220.84 732.731 1219.68 729.986 1217.65 C 717.972 1205.73 705.781 1194.22 695.588 1180.68 L 694.322 1179.48 C 669.149 1147.44 649.223 1111.6 635.286 1073.31 L 634.657 1071.55 C 629.509 1060.09 624.078 1041.47 620.87 1029.35 C 635.567 984.033 649.269 949.064 671.067 907.143 z"/>
<path transform="translate(0,0)" fill="rgb(254,154,98)" d="M 671.067 907.143 C 711.87 907.21 747.083 891.497 774.346 860.857 C 762.934 918.111 760.261 970.473 762.671 1028.94 C 763.213 1042.08 763.494 1061.07 765.28 1073.6 L 764.904 1075.77 C 752.147 1081.49 727.925 1086.66 716.481 1076.28 C 696.809 1058.43 712.535 1023.29 710.151 1000.67 C 709.241 992.038 705.788 984.356 695.324 987.78 C 663.153 1000.25 650.559 1045.58 635.688 1072.6 L 635.286 1073.31 L 634.657 1071.55 C 629.509 1060.09 624.078 1041.47 620.87 1029.35 C 635.567 984.033 649.269 949.064 671.067 907.143 z"/>
<path transform="translate(0,0)" fill="rgb(244,197,125)" d="M 634.657 1071.55 C 642.444 1051.15 668.282 995.224 689.631 987.725 C 738.701 970.488 687.619 1064.55 720.725 1076.73 C 738.495 1083.26 751.16 1080.43 765.28 1073.6 L 764.904 1075.77 C 752.147 1081.49 727.925 1086.66 716.481 1076.28 C 696.809 1058.43 712.535 1023.29 710.151 1000.67 C 709.241 992.038 705.788 984.356 695.324 987.78 C 663.153 1000.25 650.559 1045.58 635.688 1072.6 L 635.286 1073.31 L 634.657 1071.55 z"/>
<path transform="translate(0,0)" fill="rgb(254,154,98)" d="M 695.588 1180.68 C 778.59 1193.23 884.591 1208.74 941.865 1279.1 C 946.037 1284.23 948.67 1290.21 952.083 1295.71 C 902.107 1294.13 872.913 1290.38 825.186 1274.48 C 799.641 1263.36 786.528 1258.16 762.555 1242.6 C 753.585 1236.35 745.425 1229.96 736.798 1223.24 C 734.403 1220.84 732.731 1219.68 729.986 1217.65 C 717.972 1205.73 705.781 1194.22 695.588 1180.68 z"/>
<path transform="translate(0,0)" fill="rgb(244,197,125)" d="M 694.322 1179.48 C 705.373 1178.66 728.669 1183.06 739.791 1184.94 C 807.91 1196.47 922.567 1225.89 953.631 1295.81 L 952.083 1295.71 C 948.67 1290.21 946.037 1284.23 941.865 1279.1 C 884.591 1208.74 778.59 1193.23 695.588 1180.68 L 694.322 1179.48 z"/>
<path transform="translate(0,0)" fill="rgb(254,212,124)" d="M 1101.17 1044.65 C 1130.83 1034.68 1158.83 1021.99 1189.1 1013.36 C 1209.87 1007.44 1227.47 1022.85 1241.34 1021.85 C 1248.06 1023.03 1258.31 1027.49 1264.62 1030.28 C 1305.96 1048.6 1343.86 1073.9 1355.4 1120.36 C 1363.06 1151.18 1367.08 1180.18 1369.43 1212.03 C 1369.38 1222.56 1371.34 1240.15 1371.85 1251.4 C 1372.32 1261.69 1371.7 1290.03 1373.44 1297.89 C 1371.44 1305.71 1370.3 1363.41 1370.82 1375.08 C 1368.73 1393.46 1368.41 1415 1366.89 1433.95 C 1361.74 1435.45 1356.48 1437.06 1351.29 1438.36 C 1326.07 1444.03 1307.59 1445.93 1281.78 1444.55 C 1266.66 1442.42 1249.91 1443.83 1247.24 1425.97 C 1244.66 1408.74 1243.04 1391.2 1239.89 1374.12 C 1237.7 1349.73 1232.94 1326.02 1229.11 1301.89 C 1228.07 1295.39 1227.08 1289.36 1225.61 1282.92 L 1222.76 1284.06 C 1239.1 1237.25 1262.65 1154.14 1230.3 1109.71 C 1201.21 1069.76 1140.81 1054.87 1094.11 1046.95 L 1101.17 1044.65 z"/>
<path transform="translate(0,0)" fill="rgb(201,127,57)" d="M 1094.11 1046.95 L 1101.17 1044.65 C 1108.43 1047.94 1125.63 1050.05 1134.63 1052.46 C 1175.69 1063.44 1222.83 1082.62 1241.43 1123.86 C 1254.71 1153.55 1245.33 1177.18 1248.72 1204.39 C 1245.4 1207.74 1245.66 1206.52 1244.78 1210.47 C 1246.24 1211.93 1246.27 1211.82 1248.2 1212.64 C 1247.65 1214.22 1247.64 1214.51 1246.3 1215.72 C 1239.55 1221.8 1239.02 1254.31 1233.84 1259.06 C 1237.08 1260.21 1236.22 1259.18 1237.4 1261.49 L 1235.88 1262.93 C 1234.76 1262.35 1234.34 1262.2 1233.32 1261.45 C 1232.2 1264.18 1229.79 1268.83 1230.29 1271.44 L 1231.86 1273.28 C 1229.91 1277.41 1228.46 1274.37 1225.61 1282.92 L 1222.76 1284.06 C 1239.1 1237.25 1262.65 1154.14 1230.3 1109.71 C 1201.21 1069.76 1140.81 1054.87 1094.11 1046.95 z"/>
<path transform="translate(0,0)" fill="rgb(170,88,176)" d="M 1222.76 1284.06 L 1225.61 1282.92 C 1227.08 1289.36 1228.07 1295.39 1229.11 1301.89 C 1232.94 1326.02 1237.7 1349.73 1239.89 1374.12 C 1221.35 1372.88 1195.95 1374.15 1176.13 1373.62 C 1194.89 1339.94 1207.71 1322.04 1222.76 1284.06 z"/>
<path transform="translate(0,0)" fill="rgb(244,245,246)" d="M 978.652 1295 C 988.54 1294.48 998.415 1293.73 1008.27 1292.76 C 1010.9 1312.78 1016.35 1355.41 1020.61 1374.2 C 1017.89 1379.87 1002.89 1411.11 1000.15 1415.02 C 997.113 1400.7 994.527 1384.15 991.768 1369.57 C 989.178 1348.05 982.608 1317.05 978.652 1295 z"/>
<path transform="translate(0,0)" fill="rgb(170,88,176)" d="M 1008.27 1292.76 C 1028.19 1290.67 1048.02 1287.7 1067.68 1283.86 C 1051.73 1313.84 1036.04 1343.95 1020.61 1374.2 C 1016.35 1355.41 1010.9 1312.78 1008.27 1292.76 z"/>
<path transform="translate(0,0)" fill="rgb(201,127,57)" d="M 1106.87 1208.63 C 1112.16 1201.54 1134.13 1177.11 1143.55 1179 C 1142.76 1181.67 1132.34 1187.86 1129.53 1189.37 C 1115.56 1196.87 1109.08 1213.69 1100.65 1222.87 C 1100.45 1218.85 1104.77 1212.38 1106.87 1208.63 z"/>
<path transform="translate(0,0)" fill="rgb(50,49,59)" d="M 1073.32 507.962 C 1083.21 498.317 1091.19 492.541 1106.08 492.322 C 1112.36 492.229 1122.35 494.904 1126.7 499.363 C 1128.85 501.524 1129.94 504.523 1129.67 507.559 C 1129.33 511.807 1127.35 513.295 1124.42 516.196 L 1123.48 517.147 C 1123.29 517.333 1123.09 517.519 1122.9 517.705 C 1139.38 519.201 1171.35 522.771 1171.92 545.536 C 1172.09 552.14 1163.16 551.528 1158.66 551.536 C 1179.68 568.379 1199.45 605.527 1166.94 622.391 C 1162.52 622.214 1157.98 622.082 1153.57 621.842 C 1152.35 626.761 1151.16 631.733 1149.46 636.499 C 1142.34 656.5 1128.64 674.128 1110.7 685.554 C 1103.15 690.365 1094.15 691.781 1085.67 694.17 C 1085.49 694.713 1085.3 695.256 1085.12 695.799 C 1088.02 702.572 1106.33 713.213 1113.69 719.024 C 1130.06 731.952 1163.52 780.564 1165.16 799.887 C 1163.88 802.963 1163.11 803.332 1160.54 805.646 C 1176.69 852.315 1186.01 910.625 1184 960.017 C 1206.37 967.001 1212.53 978.778 1226.85 996.474 C 1233.93 1005.21 1241.28 1009.76 1241.34 1021.85 C 1227.47 1022.85 1209.87 1007.44 1189.1 1013.36 C 1158.83 1021.99 1130.83 1034.68 1101.17 1044.65 L 1094.11 1046.95 C 1063.76 1058.32 1006.33 1072.84 973.774 1068.28 C 972.247 1068.15 968.072 1067.85 966.824 1068.42 C 908.907 1094.84 850.033 1124.52 784.34 1123.1 C 778.598 1122.63 774.361 1121.71 768.73 1120.56 C 767.009 1106.66 766.356 1090.15 764.904 1075.77 L 765.28 1073.6 C 763.494 1061.07 763.213 1042.08 762.671 1028.94 C 760.261 970.473 762.934 918.111 774.346 860.857 L 775.218 857.69 C 776.791 850.821 778.879 843.519 780.699 836.668 L 781.475 834.511 C 789.175 807.579 801.999 782.494 816.375 758.602 C 824.09 747.26 831.446 735.934 840.766 725.834 C 867.756 696.585 905.917 678.196 944.733 670.965 C 963.339 667.436 982.365 666.688 1001.19 668.746 C 1013.27 654.103 1026.71 639.549 1039.43 625.377 C 1033.99 624.352 1030.46 624.549 1026.73 620.981 C 1025.76 616.839 1028.43 613.743 1026.45 612.102 C 1017.34 604.548 1003.26 599.586 1023.26 591.499 C 1005.46 555.125 1020.03 531.201 1055.18 514.12 C 1055.75 513.844 1056.32 513.577 1056.9 513.318 C 1053.71 510.223 1050.86 507.947 1048.92 503.989 C 1048.88 500.542 1048.37 502.062 1050.63 499.321 C 1056.06 498.425 1057.81 501.67 1061.55 505.365 C 1063.14 501.364 1063.11 499.504 1066.17 497.188 C 1071.36 498.953 1072.24 503.133 1073.32 507.962 z"/>
<path transform="translate(0,0)" fill="rgb(244,245,246)" d="M 1157.85 808.322 L 1160.54 805.646 C 1176.69 852.315 1186.01 910.625 1184 960.017 C 1206.37 967.001 1212.53 978.778 1226.85 996.474 C 1233.93 1005.21 1241.28 1009.76 1241.34 1021.85 C 1227.47 1022.85 1209.87 1007.44 1189.1 1013.36 C 1158.83 1021.99 1130.83 1034.68 1101.17 1044.65 L 1094.11 1046.95 C 1063.76 1058.32 1006.33 1072.84 973.774 1068.28 C 978.154 1066.55 980.413 1066.57 985.011 1066.21 C 961.981 1066.47 943.148 1062.54 924.597 1049.01 C 918.951 1044.93 913.314 1038.64 908.795 1033.41 C 893.234 1013.21 886.707 996.315 878.273 972.829 C 874.554 960.589 871.299 948.213 868.513 935.727 L 867.24 929.845 L 866.111 922.997 C 861.65 899.844 859.671 877.758 857.951 854.263 C 895.716 864.787 932.349 862.02 968.843 847.972 L 991.839 921.807 C 995.335 933.042 1001.37 950.578 1003.91 961.721 C 1008.11 963.008 1008.99 962.407 1011.98 963.07 C 1020.35 964.16 1067.8 964.787 1077.42 964.155 C 1076.85 962.133 1076.87 961.93 1076.75 959.817 L 1080.65 958.727 C 1085.07 975.671 1089.56 989.441 1104.21 1000.85 C 1123.6 1015.99 1154.62 1019.33 1170.74 997.614 C 1176.35 990.053 1180.2 979.834 1181.14 970.51 C 1181.61 965.921 1179.88 956.522 1179.16 951.643 L 1181.27 947.164 C 1185.07 921.717 1168.43 831.204 1157.85 808.322 z"/>
<path transform="translate(0,0)" fill="rgb(57,53,55)" d="M 1157.85 808.322 L 1160.54 805.646 C 1176.69 852.315 1186.01 910.625 1184 960.017 C 1206.37 967.001 1212.53 978.778 1226.85 996.474 C 1233.93 1005.21 1241.28 1009.76 1241.34 1021.85 C 1227.47 1022.85 1209.87 1007.44 1189.1 1013.36 C 1158.83 1021.99 1130.83 1034.68 1101.17 1044.65 L 1094.11 1046.95 C 1063.76 1058.32 1006.33 1072.84 973.774 1068.28 C 978.154 1066.55 980.413 1066.57 985.011 1066.21 C 997.646 1066.21 1007.4 1065.28 1019.74 1063.62 L 1033.82 1061.24 C 1088.92 1049.23 1137.63 1026.27 1191.22 1010.11 C 1206.2 1005.59 1232.71 1019.49 1238.33 1018.48 L 1238.54 1016.4 C 1232.21 1000.9 1207.31 985.674 1192.15 980.834 C 1189.53 979.999 1189.72 979.57 1189.14 977.947 L 1190.39 977.364 C 1202.26 981.189 1209.57 985.447 1219.95 991.763 C 1209.07 978.301 1201.24 975.427 1184.35 972.05 C 1178.82 995.456 1167.55 1015.32 1140.37 1016.16 C 1118.59 1016.82 1094.58 1003.85 1086.07 983.326 C 1084.22 978.876 1080.59 966.652 1077.42 964.155 C 1076.85 962.133 1076.87 961.93 1076.75 959.817 L 1080.65 958.727 C 1085.07 975.671 1089.56 989.441 1104.21 1000.85 C 1123.6 1015.99 1154.62 1019.33 1170.74 997.614 C 1176.35 990.053 1180.2 979.834 1181.14 970.51 C 1181.61 965.921 1179.88 956.522 1179.16 951.643 L 1181.27 947.164 C 1185.07 921.717 1168.43 831.204 1157.85 808.322 z"/>
<path transform="translate(0,0)" fill="rgb(244,245,246)" d="M 1183.75 962.664 C 1192.59 965.491 1200.56 968.518 1206.55 975.926 C 1198.8 972.593 1192.81 972.234 1185.51 968.796 C 1183.7 967.943 1183.98 965.003 1183.75 962.664 z"/>
<path transform="translate(0,0)" fill="rgb(57,53,55)" d="M 1003.91 961.721 C 1008.11 963.008 1008.99 962.407 1011.98 963.07 C 998.606 964.653 980.526 978.252 971.476 988.203 C 968.263 991.736 963.13 1002.95 960.546 1004 L 959.417 1002.79 C 961.666 988.004 990.036 964.367 1003.91 961.721 z"/>
<path transform="translate(0,0)" fill="rgb(230,231,187)" d="M 868.513 935.727 C 872.78 936.634 873.27 935.904 875.118 938.505 L 874.322 939.952 L 871.48 940.703 C 874.694 945.025 875.56 940.371 877.522 945.593 C 876.047 947.96 875.737 947.972 873.531 949.569 C 878.438 959.039 888.347 959.277 886.895 967.723 C 883.912 971.329 882.533 971.129 878.273 972.829 C 874.554 960.589 871.299 948.213 868.513 935.727 z"/>
<path transform="translate(0,0)" fill="rgb(230,231,187)" d="M 866.111 922.997 C 870.402 916.795 871.904 913.825 879.877 915.783 C 885.627 921.748 878.388 928.012 872.414 930.075 L 870.265 929.704 L 869.208 927.991 C 867.76 928.951 868.132 928.466 867.24 929.845 L 866.111 922.997 z"/>
<path transform="translate(0,0)" fill="rgb(230,231,187)" d="M 908.795 1033.41 C 922.856 1028.38 921.357 1041.64 924.597 1049.01 C 918.951 1044.93 913.314 1038.64 908.795 1033.41 z"/>
<path transform="translate(0,0)" fill="rgb(230,231,187)" d="M 1019.74 1063.62 C 1016.01 1062.03 1017.38 1063.24 1015.21 1060.22 L 1016.46 1058.51 C 1023.15 1056.48 1028.79 1056.12 1033.82 1061.24 L 1019.74 1063.62 z"/>
<path transform="translate(0,0)" fill="rgb(230,231,187)" d="M 898.929 990.502 C 899.889 990.936 900.26 991.407 901.101 992.124 C 899.235 995.895 894.556 994.701 889.079 996.692 L 888.22 997.013 L 887.771 994.774 C 888.987 991.147 890.181 993.723 894.761 993.163 C 894.761 993.163 898.576 990.727 898.929 990.502 z"/>
<path transform="translate(0,0)" fill="rgb(230,231,187)" d="M 943.374 1033.36 L 944.667 1033.32 C 945.274 1037.13 945.731 1039.17 946.801 1042.87 L 944.929 1042.23 C 943.222 1039.32 941.895 1036.56 943.374 1033.36 z"/>
<path transform="translate(0,0)" fill="rgb(244,245,246)" d="M 1035.89 632.328 L 1036.22 631.974 C 1036.51 629.73 1036.57 629.384 1037.27 627.236 C 1038.79 649.676 1041.82 667.124 1059.7 682.794 C 1060.34 683.358 1061 683.913 1061.66 684.46 C 1059.23 678.161 1054.34 668.198 1058.74 661.939 C 1069.97 658.049 1080.92 682.946 1082.62 691.21 L 1077.83 694.396 C 1096.66 714.19 1094.95 735.175 1091.77 760.76 C 1120.58 808.769 1164.94 899.712 1179.16 951.643 C 1179.88 956.522 1181.61 965.921 1181.14 970.51 C 1180.2 979.834 1176.35 990.053 1170.74 997.614 C 1154.62 1019.33 1123.6 1015.99 1104.21 1000.85 C 1089.56 989.441 1085.07 975.671 1080.65 958.727 C 1075.81 940.306 1046.73 776.27 1050.48 767.429 L 1055 767.877 L 1055.62 766.763 C 1053.23 762.371 1045.35 761.21 1042.27 754.091 C 1038.01 744.235 1040.93 734.447 1044.26 725.152 C 1037.1 725.743 1029 727.129 1024.09 720.773 L 1024.47 718.075 C 1027.09 714.442 1027.91 714.223 1031.85 711.787 L 1029.78 706.687 C 1033.52 693.192 1044.11 686.078 1057.09 683.48 C 1056.66 683.074 1056.24 682.662 1055.83 682.242 C 1042.56 668.754 1035.83 651.188 1035.89 632.328 z"/>
<path transform="translate(0,0)" fill="rgb(57,53,55)" d="M 1035.89 632.328 L 1036.22 631.974 C 1036.51 629.73 1036.57 629.384 1037.27 627.236 C 1038.79 649.676 1041.82 667.124 1059.7 682.794 C 1060.34 683.358 1061 683.913 1061.66 684.46 C 1059.23 678.161 1054.34 668.198 1058.74 661.939 C 1069.97 658.049 1080.92 682.946 1082.62 691.21 L 1077.83 694.396 C 1069.7 688.946 1051.32 683.247 1043.14 690.314 C 1042.21 692.815 1041.98 692.067 1042.36 694.143 C 1050.07 694.184 1069.82 699.834 1072.91 707.09 L 1072.39 708.607 C 1061.4 704.831 1042.05 685.702 1033.09 706.386 L 1033.64 707.831 C 1040.02 708.341 1053.95 708.369 1057.99 712.282 L 1057.88 714.006 C 1053.87 714.855 1047.94 711.636 1043.48 711.212 C 1039.46 710.83 1035.82 711.329 1031.85 711.787 L 1029.78 706.687 C 1033.52 693.192 1044.11 686.078 1057.09 683.48 C 1056.66 683.074 1056.24 682.662 1055.83 682.242 C 1042.56 668.754 1035.83 651.188 1035.89 632.328 z"/>
<path transform="translate(0,0)" fill="rgb(244,245,246)" d="M 1059.7 663.244 C 1069.59 664.535 1076.19 682.994 1079.94 691.405 C 1074.15 688.143 1071.44 686.76 1065.28 684.347 C 1061.53 676.015 1059.66 672.318 1059.7 663.244 z"/>
<path transform="translate(0,0)" fill="rgb(230,231,187)" d="M 1093.95 917.314 L 1095.12 918.554 L 1094.78 919.761 L 1089.86 920.642 L 1087.67 919.496 L 1087.92 918.454 L 1093.95 917.314 z"/>
<path transform="translate(0,0)" fill="rgb(244,245,246)" d="M 1089.95 581.949 C 1097.16 588.764 1097.77 588.965 1107.98 588.662 C 1109.1 588.629 1110.22 588.574 1111.33 588.496 C 1115.67 592.066 1117.44 595.809 1120.17 600.642 C 1126.74 612.256 1139.17 617.856 1151.61 621.396 C 1146.76 646.466 1133.12 667.907 1112.14 682.583 C 1105.03 687.556 1091.3 693.357 1082.62 691.21 C 1080.92 682.946 1069.97 658.049 1058.74 661.939 C 1054.34 668.198 1059.23 678.161 1061.66 684.46 C 1061 683.913 1060.34 683.358 1059.7 682.794 C 1041.82 667.124 1038.79 649.676 1037.27 627.236 C 1037.94 616.995 1039.36 618.779 1044.66 611.351 C 1048.43 606.06 1042.52 595.295 1053.7 593.758 C 1060.6 595.777 1064.11 601.003 1070.23 603.783 C 1084.71 610.362 1088.32 591.454 1089.95 581.949 z"/>
<path transform="translate(0,0)" fill="rgb(57,53,55)" d="M 1072.08 638.84 C 1082.28 640.497 1091.15 653.48 1092.08 663.297 C 1090.11 662.265 1082.37 646.347 1077.09 643.848 C 1075.73 643.206 1073.13 640.192 1072.08 638.84 z"/>
<path transform="translate(0,0)" fill="rgb(57,53,55)" d="M 1126 633.413 C 1129.48 633.597 1129.95 633.532 1131.84 635.998 C 1131.81 639.507 1130.82 640.326 1128.76 643.413 C 1125.29 643.024 1124.84 643.267 1122.84 640.541 C 1122.92 637.117 1123.9 636.371 1126 633.413 z"/>
<path transform="translate(0,0)" fill="rgb(57,53,55)" d="M 1095.34 614.406 C 1099.03 616.383 1098.37 615.341 1099.95 618.51 C 1099.62 621.728 1097.8 623.206 1095.66 625.744 C 1092.32 624.599 1091.95 624.512 1090.8 621.525 C 1091.52 617.841 1092.59 617.262 1095.34 614.406 z"/>
<path transform="translate(0,0)" fill="rgb(57,53,55)" d="M 1129.32 621.33 C 1137.5 620.768 1142.68 622.868 1145.34 630.797 C 1139.85 627.571 1135.7 625.831 1129.83 623.303 L 1129.32 621.33 z"/>
<path transform="translate(0,0)" fill="rgb(57,53,55)" d="M 1093.98 604.365 C 1101.9 603.321 1108.8 604.84 1110.44 613.696 C 1105.73 610.455 1095.36 606.319 1093.98 604.365 z"/>
<path transform="translate(0,0)" fill="rgb(244,245,246)" d="M 1157.85 808.322 C 1168.43 831.204 1185.07 921.717 1181.27 947.164 C 1168.36 904.048 1150.91 867.813 1131.02 827.665 C 1142.52 821.262 1148.1 817.158 1157.85 808.322 z"/>
<path transform="translate(0,0)" fill="rgb(244,245,246)" d="M 1035.89 632.328 C 1035.83 651.188 1042.56 668.754 1055.83 682.242 C 1056.24 682.662 1056.66 683.074 1057.09 683.48 C 1044.11 686.078 1033.52 693.192 1029.78 706.687 C 1020.13 705.442 1020.3 704.044 1013.4 698.974 C 992.477 683.622 1001.17 669.222 1015.99 653.787 C 1021.99 647.539 1029.53 639.095 1035.89 632.328 z"/>
<path transform="translate(0,0)" fill="url(#Gradient1)" d="M 292.79 587.001 C 315.13 616.51 381.944 656.059 417.138 668.612 C 457.712 683.768 501.735 693.183 545.183 693.038 C 540.288 702.763 533.614 726.207 530.824 737.258 C 511.362 814.331 521.912 891.684 546.578 966.28 C 560.93 1009.68 578.868 1051.6 597.339 1093.44 C 606.056 1113.18 615.368 1133.11 623.69 1153.05 C 625.095 1156.41 625.104 1158.53 624.392 1162.02 C 605.957 1138.06 592.706 1107.08 562.32 1093.57 C 539.604 1083.47 516.65 1089.99 506.048 1113.5 C 481.633 1090.94 449.152 1077.79 417.958 1094.07 C 394.645 1112.95 395.961 1126.99 405.794 1153.4 C 373.801 1148.56 353.707 1146.73 321.426 1151.61 C 310.075 1124.14 299.189 1096.39 293.418 1067.11 L 292.077 1065.73 C 235.791 1044.55 188.973 1014.59 153.447 965.165 C 121.167 920.257 103.612 861.698 113.433 806.659 C 134.187 690.348 204.264 650.147 292.79 587.001 z"/>
<path transform="translate(0,0)" fill="rgb(201,110,189)" d="M 292.79 587.001 C 315.13 616.51 381.944 656.059 417.138 668.612 C 345.75 725.149 294.719 829.074 284.263 918.601 C 280.424 953.083 280.743 987.901 285.212 1022.31 C 286.454 1031.72 292.093 1059.4 292.077 1065.73 C 235.791 1044.55 188.973 1014.59 153.447 965.165 C 121.167 920.257 103.612 861.698 113.433 806.659 C 134.187 690.348 204.264 650.147 292.79 587.001 z"/>
<path transform="translate(0,0)" fill="rgb(185,133,250)" d="M 293.418 1067.11 C 304.714 1068.84 324.045 1076.32 336.678 1078.97 C 363.376 1084.58 391.796 1087.33 417.958 1094.07 C 394.645 1112.95 395.961 1126.99 405.794 1153.4 C 373.801 1148.56 353.707 1146.73 321.426 1151.61 C 310.075 1124.14 299.189 1096.39 293.418 1067.11 z"/>
<path transform="translate(0,0)" fill="rgb(185,133,250)" d="M 1305.71 272.937 C 1352.81 224.364 1399.96 181.83 1472.99 179.32 C 1515.29 177.866 1554.08 197.043 1583.91 226.381 C 1674.41 315.373 1697.43 506.222 1698.14 627.628 C 1698.18 630.55 1698.17 633.473 1698.11 636.395 C 1635.92 595.998 1576.51 559.176 1510.21 525.272 C 1485.33 512.549 1460.12 498.18 1434.74 486.544 L 1434.24 485.908 C 1423.51 463.138 1414.82 442.6 1403.2 419.609 C 1374.64 363.124 1345.25 321.273 1305.71 272.937 z"/>
<path transform="translate(0,0)" fill="rgb(201,110,189)" d="M 805.322 149.359 C 1002.74 72.6658 1164.78 111.348 1304.77 272.41 C 1296.23 282.529 1279.29 298.437 1269.38 308.143 C 1247.56 329.529 1225.46 350.634 1203.1 371.452 L 1201.66 371.218 C 1193.74 367.379 1178.74 362.471 1170.33 359.546 C 1117.55 341.179 1052.95 329.285 996.817 334.486 C 986.472 320.698 969.154 314.04 952.237 317.348 C 935.32 320.655 921.785 333.346 917.396 350.015 C 910.336 350.989 905.907 352.439 899.028 354.521 C 898.824 351.127 898.582 347.734 898.301 344.345 C 893.049 284.455 870.431 227.399 833.223 180.177 C 826.031 170.925 814.244 156.896 805.322 149.359 z"/>
<path transform="translate(0,0)" fill="rgb(201,110,189)" d="M 1434.74 486.544 C 1460.12 498.18 1485.33 512.549 1510.21 525.272 C 1576.51 559.176 1635.92 595.998 1698.11 636.395 L 1698.53 637.316 C 1697.29 666.8 1697.27 692.35 1694.58 722.044 C 1683.39 845.863 1650.61 946.789 1589.57 1054.14 C 1585.32 1057.86 1582.98 1059.52 1578.29 1062.67 C 1575.01 1045.06 1573.06 1039.18 1558.26 1028.26 C 1543.32 842.693 1501.72 660.245 1434.74 486.544 z"/>
<path transform="translate(0,0)" fill="rgb(247,125,162)" d="M 917.396 350.015 C 921.785 333.346 935.32 320.655 952.237 317.348 C 969.154 314.04 986.472 320.698 996.817 334.486 C 1052.95 329.285 1117.55 341.179 1170.33 359.546 C 1178.74 362.471 1193.74 367.379 1201.66 371.218 C 1118.69 452.072 1037.76 503.134 922.951 523.964 C 903.325 527.525 869.641 534.839 850.384 535.421 C 887.282 476.448 900.438 423.424 899.028 354.521 C 905.907 352.439 910.336 350.989 917.396 350.015 z"/>
<path transform="translate(0,0)" fill="rgb(244,245,246)" d="M 917.396 350.015 C 921.785 333.346 935.32 320.655 952.237 317.348 C 969.154 314.04 986.472 320.698 996.817 334.486 C 1009.41 351.276 1008.71 374.549 995.126 390.551 C 981.541 406.552 958.69 411.02 940.079 401.314 C 921.468 391.608 912.052 370.313 917.396 350.015 z"/>
<path transform="translate(0,0)" fill="rgb(244,245,246)" d="M 1050.71 388.482 C 1059.38 386.619 1068.38 389.561 1074.28 396.183 C 1080.17 402.806 1082.05 412.086 1079.2 420.48 C 1076.34 428.874 1069.19 435.084 1060.48 436.739 C 1047.24 439.255 1034.43 430.65 1031.76 417.436 C 1029.08 404.223 1037.53 391.315 1050.71 388.482 z"/>
<path transform="translate(0,0)" fill="rgb(254,154,98)" d="M 619.849 1025.65 C 604.595 972.613 588.523 902.662 600.037 847.824 C 606.227 818.343 623.103 792.62 649.202 776.493 C 684.235 754.846 734.123 748.02 774.964 750.853 C 788.312 751.779 803.358 755.642 816.375 758.602 C 801.999 782.494 789.175 807.579 781.475 834.511 L 780.699 836.668 C 778.879 843.519 776.791 850.821 775.218 857.69 L 774.346 860.857 C 747.083 891.497 711.87 907.21 671.067 907.143 C 649.269 949.064 635.567 984.033 620.87 1029.35 L 619.849 1025.65 z"/>
<path transform="translate(0,0)" fill="rgb(254,154,98)" d="M 672.545 904.741 C 689.55 874.037 719.106 827.112 758.922 828.131 C 768.473 828.376 773.864 829.632 780.699 836.668 C 778.879 843.519 776.791 850.821 775.218 857.69 C 772.832 859.35 768.416 864.592 765.778 866.954 C 738.071 891.764 709.887 905.893 672.545 904.741 z"/>
<path transform="translate(0,0)" fill="rgb(244,197,125)" d="M 669.108 906.774 C 663.557 905.464 657.667 904.098 652.418 902.142 C 612.388 887.223 643.267 853.015 657.21 832.052 C 667.76 816.189 684.095 793.384 669.779 775.658 C 668.249 773.763 667.388 772.402 666.279 770.263 C 669.682 771.256 670.042 772.297 672.171 775.307 C 692.934 809.038 641.765 843.083 635.429 874.145 C 631.119 895.275 652.95 902.257 669.273 904.168 L 670.554 904.311 C 678.961 888.741 688.29 874.865 699.227 860.99 C 717.082 838.337 753.662 811.192 781.475 834.511 L 780.699 836.668 C 773.864 829.632 768.473 828.376 758.922 828.131 C 719.106 827.112 689.55 874.037 672.545 904.741 C 709.887 905.893 738.071 891.764 765.778 866.954 C 768.416 864.592 772.832 859.35 775.218 857.69 L 774.346 860.857 C 747.083 891.497 711.87 907.21 671.067 907.143 C 649.269 949.064 635.567 984.033 620.87 1029.35 L 619.849 1025.65 C 634.752 981.252 647.295 948.23 669.108 906.774 z"/>
<path transform="translate(0,0)" fill="rgb(170,88,176)" d="M 1304.77 272.41 L 1305.71 272.937 C 1345.25 321.273 1374.64 363.124 1403.2 419.609 C 1414.82 442.6 1423.51 463.138 1434.24 485.908 C 1416.25 477.845 1394.51 464.605 1376.22 455.384 C 1321.28 427.68 1260.68 392.904 1203.1 371.452 C 1225.46 350.634 1247.56 329.529 1269.38 308.143 C 1279.29 298.437 1296.23 282.529 1304.77 272.41 z"/>
</svg>