<svg version="1.1" xmlns="http://www.w3.org/2000/svg" style="display: block;" viewBox="0 0 1546 2048" width="1510" height="2000" preserveAspectRatio="none">
<defs>
	<linearGradient id="Gradient1" gradientUnits="userSpaceOnUse" x1="1130.15" y1="728.208" x2="1109.15" y2="729.065">
		<stop class="stop0" offset="0" stop-opacity="1" stop-color="rgb(96,90,96)"/>
		<stop class="stop1" offset="1" stop-opacity="1" stop-color="rgb(87,100,110)"/>
	</linearGradient>
</defs>
<path transform="translate(0,0)" fill="rgb(215,171,163)" d="M 0 159.689 C 16.0161 160.741 38.5779 165.027 54.768 167.637 L 136.464 180.401 C 221.346 194.302 306.53 206.284 391.953 216.337 L 450.264 223.946 C 486.983 228.769 490.621 228.016 526.96 221.964 L 596.909 210.34 L 657.483 200.425 C 671.797 198.158 686.61 196.493 700.599 192.63 C 724.098 186.142 747.287 177.525 770.442 169.833 C 781.539 166.147 792.787 161.752 804.296 159.613 C 815.526 157.525 1017.37 158.012 1023.83 160.009 C 1035.73 163.684 1048.68 173.305 1059.55 179.617 C 1081.57 192.403 1104.03 204.919 1125.54 218.525 C 1146.09 231.52 1165.78 245.845 1185.53 260.004 C 1197.92 268.884 1211.23 277.424 1222.82 287.314 C 1220.97 298.205 1218.97 312.16 1216.37 322.651 C 1209.76 325.565 1182.97 334.214 1175.51 333.626 C 1158.33 332.275 1132 322.835 1114.89 317.734 C 1106.69 315.291 1101.15 308.066 1095.93 302.11 C 1096.91 297.665 1112.94 288.413 1116.48 282.343 C 1117.31 281.711 1119.62 279.858 1120.16 279.203 C 1124.9 273.527 1139.94 235.207 1135.3 231.135 C 1128.24 237.382 1123.1 269.237 1116.31 276.232 C 1110.81 279.435 1094.38 291.513 1090.6 296.056 L 1086.34 294.776 C 1036.63 286.493 1043.87 292.167 1008.22 259.793 C 989.397 267.221 969.411 278.818 949.721 282.634 C 943.249 283.888 931.009 281.358 922.875 282.193 L 920.179 282.193 C 912.328 292.172 877.715 354.685 872.24 356.582 C 836.749 351.67 801.825 346.657 766.666 339.733 C 763.966 339.201 763.473 339.04 761.064 340.235 C 759.053 339.025 757.855 338.739 755.665 338.028 C 754.254 341.354 751.938 346.369 751.018 349.697 C 748.837 355.504 739.821 381.139 737.72 385.067 C 732.529 395.859 728.054 408.79 723.839 420.144 L 729.641 433.379 C 734.417 444.376 739.868 456.264 744.296 467.314 C 727.865 470.721 708.803 471.155 692.038 473.299 C 686.037 474.066 674.926 474.685 669.546 476.651 C 660.242 481.331 651.427 489.166 641.121 491.402 C 614.483 497.18 466.193 495.104 444.762 487.548 C 430.115 482.384 400.397 459.699 385.827 450.039 C 375.065 448.811 360.246 448.493 349.035 448.179 C 337.793 447.864 316.191 445.597 305.801 446.748 C 279.963 449.611 252.433 454.325 226.635 458.158 L 65.3762 482.043 C 48.0774 484.613 16.1116 490.148 0 491.302 L 0 159.689 z"/>
<path transform="translate(0,0)" fill="rgb(197,148,133)" d="M 385.827 450.039 C 401.974 446.269 484.496 437.12 500.614 439.106 C 518.936 441.364 537.251 444.749 555.494 447.619 C 566.145 449.294 577.413 451.779 588.213 451.272 C 598.491 450.79 610.646 446.173 620.639 443.485 C 634.747 439.69 648.868 434.565 663.228 431.943 C 684.09 428.134 708.689 430.562 729.641 433.379 C 734.417 444.376 739.868 456.264 744.296 467.314 C 727.865 470.721 708.803 471.155 692.038 473.299 C 686.037 474.066 674.926 474.685 669.546 476.651 C 660.242 481.331 651.427 489.166 641.121 491.402 C 614.483 497.18 466.193 495.104 444.762 487.548 C 430.115 482.384 400.397 459.699 385.827 450.039 z"/>
<path transform="translate(0,0)" fill="rgb(197,148,133)" d="M 801.863 295.677 C 830.38 284.326 862.338 268.285 891.457 258.112 C 897.742 255.916 923.185 255.676 931.562 255.269 L 1009.87 251.364 C 1021.77 257.598 1079.74 288.212 1086.34 294.776 C 1036.63 286.493 1043.87 292.167 1008.22 259.793 C 989.397 267.221 969.411 278.818 949.721 282.634 C 943.249 283.888 931.009 281.358 922.875 282.193 L 920.179 282.193 C 912.328 292.172 877.715 354.685 872.24 356.582 C 836.749 351.67 801.825 346.657 766.666 339.733 C 763.966 339.201 763.473 339.04 761.064 340.235 C 759.053 339.025 757.855 338.739 755.665 338.028 C 753.329 336.987 742.873 335.048 739.73 334.401 C 741.77 330.428 754.077 314.249 757.485 309.661 L 796.389 257.413 C 798.529 270.12 800.354 282.879 801.863 295.677 z"/>
<path transform="translate(0,0)" fill="rgb(237,197,184)" d="M 661.906 312.895 C 655.984 304.248 650.115 295.565 644.3 286.845 C 673.194 302.774 709.701 319.672 739.73 334.401 C 742.873 335.048 753.329 336.987 755.665 338.028 C 754.254 341.354 751.938 346.369 751.018 349.697 C 741.909 348.401 674.726 318.46 661.906 312.895 z"/>
<path transform="translate(0,0)" fill="rgb(22,22,23)" d="M 953.328 1202.78 C 969.579 1183.83 998.425 1177.76 1015.68 1199.29 L 1016.1 1199.83 L 1015.82 1209.02 C 1015.46 1219.69 1016.01 1227.96 1016.17 1238.52 C 1016.27 1244.91 1014.36 1254.83 1013.74 1261.5 C 1005.96 1272.05 998.458 1267.2 996.094 1278.17 C 1007.05 1278.59 1020.96 1277.95 1032.14 1277.73 C 1041.19 1283.39 1048.22 1287.41 1056.63 1294.08 C 1068.14 1294.17 1076.68 1293.31 1087.95 1291.92 C 1108.56 1274.63 1108.67 1266.42 1121.2 1242.41 C 1123.23 1238.52 1126.66 1231.16 1129.45 1227.93 C 1132.49 1221.93 1134.95 1213.42 1137.08 1206.86 C 1141.26 1208.82 1157.31 1216.71 1160.84 1217.27 C 1163.17 1218.33 1166.03 1218.95 1166.35 1221.14 C 1167.57 1229.63 1163.11 1235.66 1163.13 1245.34 L 1165.64 1247.31 C 1164.83 1252.97 1130.81 1312.68 1125.63 1322.05 C 1114.35 1327.44 1096.46 1336.65 1085.08 1339.67 C 1074.37 1342.51 1059 1343.95 1047.75 1346.06 C 1044.97 1357.76 1034.47 1397.7 1034.79 1406.15 C 1035.72 1430.82 1040.08 1462.2 1043.2 1487.19 C 1044.89 1500.69 1047.06 1507.77 1046.49 1522.31 C 1046.94 1547.53 1056.67 1573.59 1059.13 1598.89 C 1061.79 1626.25 1054.72 1658.57 1056.81 1685.46 C 1058.5 1707.21 1065.38 1726.91 1060.89 1750.88 C 1059.8 1756.68 1065.08 1776.06 1064.75 1783.23 C 1066.9 1800.32 1062.63 1815.18 1072.11 1829.99 C 1073.74 1832.53 1073.18 1853.75 1072.74 1859 C 1064.83 1862.06 1045.34 1867.85 1039.65 1870.63 C 1038.19 1866.71 1035.21 1842.17 1033.28 1834.42 C 1028.66 1815.94 1020.52 1797.17 1016.63 1779.22 C 1014.13 1764.37 1014.45 1748.19 1011.87 1733.41 C 1009.55 1719.99 1001.17 1703.14 1002.87 1689.43 C 1005.5 1668.18 997.152 1654.88 991.173 1635.53 C 988.592 1627.17 987.162 1611.15 985.768 1601.72 C 970.726 1631.49 969.023 1641.44 962.212 1673.95 C 957.609 1695.92 952.753 1696.76 952.99 1721.92 L 944.257 1731.34 C 945.144 1748.03 946.322 1765.29 946.7 1781.97 C 946.934 1792.28 942.729 1810.8 944.462 1820.65 C 945.901 1828.82 950.698 1844.13 953.12 1852.74 C 951.749 1857.36 949.142 1867.82 946.401 1870.93 C 938.979 1869.97 922.957 1870.29 915.32 1870.58 C 913.774 1868.69 899.21 1788.32 899.194 1783.29 C 899 1719.54 905.829 1655.98 911.823 1592.57 C 913.49 1574.94 915.945 1557.03 916.75 1539.35 C 914.335 1538.19 911.785 1538.37 911.811 1534.94 C 911.95 1516.75 912.415 1498.55 912.692 1480.36 C 913.164 1436.45 901.974 1393.21 880.265 1355.04 C 854.886 1361.48 847.301 1366.13 824.489 1377.85 C 816.873 1395.29 818 1421.15 816.872 1441.1 C 817.376 1447.31 819.088 1453.54 820.55 1459.62 C 801.56 1461.27 799.528 1462.01 782.132 1470.37 C 780.231 1464.17 781.968 1458.72 778.894 1451.76 L 776.289 1450.32 C 773.41 1442.21 781.204 1380.58 781.23 1365.74 L 782.227 1365.53 C 784.306 1361.25 784.526 1353.47 784.639 1348.7 C 785.32 1346.93 785.861 1345.94 787.547 1344.94 C 816.888 1327.45 847.621 1311.63 876.32 1293.06 L 882.05 1273.63 C 893.364 1273.9 933.302 1277.14 940.964 1275.59 L 943.813 1271.54 C 946.86 1259.82 940.852 1250.32 940.202 1237.91 C 939.8 1230.23 940.361 1224.81 941.006 1217.24 L 947.846 1209.16 L 953.328 1202.78 z"/>
<path transform="translate(0,0)" fill="rgb(197,148,133)" d="M 953.328 1202.78 C 969.579 1183.83 998.425 1177.76 1015.68 1199.29 L 1016.1 1199.83 L 1015.82 1209.02 C 1015.46 1219.69 1016.01 1227.96 1016.17 1238.52 C 1016.27 1244.91 1014.36 1254.83 1013.74 1261.5 C 1005.96 1272.05 998.458 1267.2 996.094 1278.17 L 996.58 1281.05 C 993.368 1282.58 992.79 1285.56 990.737 1289.31 L 979.779 1289.27 C 971.205 1280.62 962.596 1270.62 953.608 1262.57 C 950.567 1263.19 949.856 1264.76 947.331 1267.26 L 943.813 1271.54 C 946.86 1259.82 940.852 1250.32 940.202 1237.91 C 939.8 1230.23 940.361 1224.81 941.006 1217.24 L 947.846 1209.16 L 953.328 1202.78 z"/>
<path transform="translate(0,0)" fill="rgb(51,42,37)" d="M 953.328 1202.78 C 969.579 1183.83 998.425 1177.76 1015.68 1199.29 L 1016.1 1199.83 L 1015.82 1209.02 C 1000.79 1206.83 994.614 1207.74 979.762 1209.32 L 970.906 1216.31 C 969.686 1222.06 967.98 1230.07 964.002 1234.53 L 962.027 1234.75 C 957.599 1231.21 955.999 1227.86 951.168 1226.22 C 948.271 1226.57 949.566 1225.96 947.435 1228.61 C 945.92 1236.75 946.073 1239.18 949.451 1246.52 L 957.774 1252.19 C 952.999 1262.46 949.202 1257.71 947.331 1267.26 L 943.813 1271.54 C 946.86 1259.82 940.852 1250.32 940.202 1237.91 C 939.8 1230.23 940.361 1224.81 941.006 1217.24 L 947.846 1209.16 L 953.328 1202.78 z"/>
<path transform="translate(0,0)" fill="rgb(248,249,249)" d="M 947.331 1267.26 C 949.856 1264.76 950.567 1263.19 953.608 1262.57 C 962.596 1270.62 971.205 1280.62 979.779 1289.27 L 970.621 1298.37 L 978.981 1307.71 C 975.878 1326.81 974.088 1344.05 974.149 1363.38 C 974.159 1366.64 974.04 1371.18 973.644 1374.36 C 960.349 1360.01 947.923 1344.44 935.488 1329.31 C 937.696 1318.28 944.809 1284.73 940.964 1275.59 L 943.813 1271.54 L 947.331 1267.26 z"/>
<path transform="translate(0,0)" fill="rgb(103,136,181)" d="M 979.779 1289.27 L 990.737 1289.31 C 995.432 1296.73 996.689 1297.21 993.968 1305.77 C 997.685 1312.33 1002.23 1319.57 1004.1 1326.78 L 1004.31 1327.57 C 1006.82 1337.23 1005.95 1351.81 1008.35 1359.99 L 986.284 1388.87 L 973.644 1374.36 C 974.04 1371.18 974.159 1366.64 974.149 1363.38 C 974.088 1344.05 975.878 1326.81 978.981 1307.71 L 970.621 1298.37 L 979.779 1289.27 z"/>
<path transform="translate(0,0)" fill="rgb(248,249,249)" d="M 1137.08 1206.86 C 1141.26 1208.82 1157.31 1216.71 1160.84 1217.27 C 1163.17 1218.33 1166.03 1218.95 1166.35 1221.14 C 1167.57 1229.63 1163.11 1235.66 1163.13 1245.34 C 1157.05 1243.46 1135.82 1231.54 1129.45 1227.93 C 1132.49 1221.93 1134.95 1213.42 1137.08 1206.86 z"/>
<path transform="translate(0,0)" fill="rgb(248,249,249)" d="M 990.737 1289.31 C 992.79 1285.56 993.368 1282.58 996.58 1281.05 C 1002.28 1301.86 1003.93 1302.44 1019.66 1317.13 C 1017.6 1328.76 1015.02 1351.83 1008.35 1359.99 C 1005.95 1351.81 1006.82 1337.23 1004.31 1327.57 L 1004.1 1326.78 C 1002.23 1319.57 997.685 1312.33 993.968 1305.77 C 996.689 1297.21 995.432 1296.73 990.737 1289.31 z"/>
<path transform="translate(0,0)" fill="rgb(248,249,249)" d="M 778.894 1451.76 C 781.025 1444.68 809.676 1440.81 816.872 1441.1 C 817.376 1447.31 819.088 1453.54 820.55 1459.62 C 801.56 1461.27 799.528 1462.01 782.132 1470.37 C 780.231 1464.17 781.968 1458.72 778.894 1451.76 z"/>
<path transform="translate(0,0)" fill="rgb(215,171,163)" d="M 872.24 356.582 C 877.715 354.685 912.328 292.172 920.179 282.193 L 922.875 282.193 C 944.546 296.077 966.133 310.091 987.636 324.234 C 995.255 329.265 1013.14 340.579 1019.37 346.318 C 1033.15 387.806 1046.68 429.378 1059.96 471.032 C 1055.76 472.969 1029.79 484.504 1028.06 487.531 C 1019.54 491.549 1003.22 498.627 995.726 503.202 C 996.627 504.974 997.211 506.37 998.525 507.883 C 993.988 510.46 990.461 512.287 985.74 514.509 C 986.125 517.755 987.939 528.894 986.994 531.268 L 986.412 530.917 C 984.13 539.757 982.32 583.372 981.665 595.702 L 974.112 749.877 L 959.076 1054.26 L 954.383 1145 C 953.522 1163.59 952.205 1184.28 953.328 1202.78 L 947.846 1209.16 C 948.37 1188.06 944.371 1164.84 941.63 1143.69 C 938.054 1115.3 934.332 1086.93 930.465 1058.58 L 899.927 826.178 L 884.124 705.649 C 882.92 696.347 878.312 656.773 876.094 650.218 C 866.78 650.446 857.462 650.491 848.147 650.353 C 843.528 644.692 835.362 630.083 831.663 623.394 C 837.308 591.078 839.263 584.684 864.764 559.968 C 866.113 557.289 866.865 554.926 867.854 552.107 C 866.035 548.744 865.712 544.25 865.159 540.566 C 862.211 520.918 865.211 509.45 870.488 491.083 L 853.501 491.624 C 845.163 484.485 839.754 475.646 831.206 468.112 C 817.322 463.216 805.528 460.042 791.252 456.262 C 785.521 456.247 757.109 463.694 750.954 465.657 C 749.459 468.285 749.846 471.2 749.853 474.293 C 748.631 461.815 741.936 446.718 737.569 434.354 C 735.504 429.883 732.896 422.344 731.056 417.536 C 734.9 407.962 739.388 397.412 742.402 387.649 C 744.016 381.687 753.933 358.704 756.971 350.832 L 761.064 340.235 C 763.473 339.04 763.966 339.201 766.666 339.733 C 801.825 346.657 836.749 351.67 872.24 356.582 z M 930.184 588.55 C 915.92 607.051 897.947 624.295 882.572 644.361 C 883.572 658.697 886.832 679.068 888.727 693.907 L 901.777 794.953 L 933.208 1042.21 C 938.787 1082.99 944.033 1123.82 948.945 1164.69 C 950.773 1150.99 950.829 1137.26 951.518 1123.43 L 955.144 1048.01 L 971.915 708.443 L 977.825 587.138 C 978.43 574.683 979.935 513.036 984.406 507.805 C 965.003 477.196 971.587 473.298 971.47 437.441 C 965.471 433.491 959.065 430.199 952.361 427.622 C 943.001 449.004 950.083 502.205 946.929 527.141 C 944.928 542.961 936.856 566.67 932.434 582.906 L 930.184 588.55 z"/>
<path transform="translate(0,0)" fill="rgb(91,96,106)" d="M 984.406 507.805 C 988.136 505.884 991.65 503.633 995.726 503.202 C 996.627 504.974 997.211 506.37 998.525 507.883 C 993.988 510.46 990.461 512.287 985.74 514.509 C 986.125 517.755 987.939 528.894 986.994 531.268 L 986.412 530.917 C 984.13 539.757 982.32 583.372 981.665 595.702 L 974.112 749.877 L 959.076 1054.26 L 954.383 1145 C 953.522 1163.59 952.205 1184.28 953.328 1202.78 L 947.846 1209.16 C 948.37 1188.06 944.371 1164.84 941.63 1143.69 C 938.054 1115.3 934.332 1086.93 930.465 1058.58 L 899.927 826.178 L 884.124 705.649 C 882.92 696.347 878.312 656.773 876.094 650.218 C 866.78 650.446 857.462 650.491 848.147 650.353 C 843.528 644.692 835.362 630.083 831.663 623.394 C 837.308 591.078 839.263 584.684 864.764 559.968 C 866.113 557.289 866.865 554.926 867.854 552.107 C 889.44 562.248 910.967 572.514 932.434 582.906 L 930.184 588.55 C 915.92 607.051 897.947 624.295 882.572 644.361 C 883.572 658.697 886.832 679.068 888.727 693.907 L 901.777 794.953 L 933.208 1042.21 C 938.787 1082.99 944.033 1123.82 948.945 1164.69 C 950.773 1150.99 950.829 1137.26 951.518 1123.43 L 955.144 1048.01 L 971.915 708.443 L 977.825 587.138 C 978.43 574.683 979.935 513.036 984.406 507.805 z"/>
<path transform="translate(0,0)" fill="rgb(215,171,163)" d="M 864.764 559.968 C 866.407 569.701 877.262 646.58 876.094 650.218 C 866.78 650.446 857.462 650.491 848.147 650.353 C 843.528 644.692 835.362 630.083 831.663 623.394 C 837.308 591.078 839.263 584.684 864.764 559.968 z"/>
<path transform="translate(0,0)" fill="rgb(215,171,163)" d="M 871.639 561.095 L 930.184 588.55 C 915.92 607.051 897.947 624.295 882.572 644.361 C 878.495 616.996 875.498 588.67 871.639 561.095 z"/>
<path transform="translate(0,0)" fill="rgb(197,148,133)" d="M 737.569 434.354 C 771.113 436.648 809.79 444.822 843.605 448.475 C 853.594 449.554 878.722 454.41 887.252 453.066 C 906.364 450.056 926.437 442.087 946.066 438.483 C 929.258 446.237 904.41 460.638 887.625 465.502 C 879.403 467.885 839.286 463.791 831.206 468.112 C 817.322 463.216 805.528 460.042 791.252 456.262 C 785.521 456.247 757.109 463.694 750.954 465.657 C 749.459 468.285 749.846 471.2 749.853 474.293 C 748.631 461.815 741.936 446.718 737.569 434.354 z"/>
<path transform="translate(0,0)" fill="rgb(237,197,184)" d="M 761.064 340.235 C 763.473 339.04 763.966 339.201 766.666 339.733 C 801.825 346.657 836.749 351.67 872.24 356.582 C 875.758 357.608 899.098 359.135 905.616 360.801 C 917.025 363.719 928.059 367.533 939.406 369.898 C 898.02 370.235 851.498 363.155 810.633 357.688 C 795.334 355.642 771.851 351.434 756.971 350.832 L 761.064 340.235 z"/>
<path transform="translate(0,0)" fill="rgb(197,148,133)" d="M 870.831 376.043 C 871.679 377.361 870.913 411.409 870.854 416.438 L 940.361 433.435 L 924.24 434.825 C 907.839 436.388 890.856 438.236 874.457 439.217 C 869.518 433.7 862.847 424.676 858.134 418.626 C 860.762 406.828 867.14 388.1 870.831 376.043 z"/>
<path transform="translate(0,0)" fill="rgb(215,171,163)" d="M 749.853 474.293 C 749.846 471.2 749.459 468.285 750.954 465.657 C 757.109 463.694 785.521 456.247 791.252 456.262 C 799.269 473.307 808.563 491.16 815.606 508.657 C 819.069 517.258 819.464 529.202 821.119 538.386 C 828.571 579.726 823.503 621.31 823.233 662.973 C 823.21 666.499 823.145 670.65 822.843 674.173 C 814.594 676.248 802.902 679.459 794.637 680.323 C 787.201 675.327 769.662 662.485 763.71 656.147 C 759.564 628.207 766.614 611.802 755.228 588.887 C 753.623 583.8 753.134 558.724 752.822 551.385 C 751.587 525.698 750.597 499.999 749.853 474.293 z"/>
<path transform="translate(0,0)" fill="rgb(215,171,163)" d="M 1059.96 471.032 L 1060.16 477.865 C 1060.39 495.708 1061.4 514.657 1060.28 532.498 C 1059.16 550.485 1057.72 568.277 1058.07 586.349 C 1058.17 591.428 1058.22 597.709 1057.85 602.705 C 1049.13 608.287 1040.18 613.496 1031.02 618.318 C 1024.17 615.651 995.839 599.515 994.672 593.37 C 991.406 576.169 988.935 548.959 986.994 531.268 C 987.939 528.894 986.125 517.755 985.74 514.509 C 990.461 512.287 993.988 510.46 998.525 507.883 C 1007.19 503.194 1015.99 498.771 1024.92 494.621 C 1027.08 492.734 1029.48 491.113 1030.36 488.472 L 1028.06 487.531 C 1029.79 484.504 1055.76 472.969 1059.96 471.032 z"/>
<path transform="translate(0,0)" fill="rgb(91,96,106)" d="M 1059.96 471.032 L 1060.16 477.865 C 1053.06 481.576 1032.26 492.69 1024.92 494.621 C 1027.08 492.734 1029.48 491.113 1030.36 488.472 L 1028.06 487.531 C 1029.79 484.504 1055.76 472.969 1059.96 471.032 z"/>
<path transform="translate(0,0)" fill="rgb(91,96,106)" d="M 723.839 420.144 C 728.054 408.79 732.529 395.859 737.72 385.067 L 737.507 389.811 L 738.305 390.214 L 742.402 387.649 C 739.388 397.412 734.9 407.962 731.056 417.536 C 732.896 422.344 735.504 429.883 737.569 434.354 C 741.936 446.718 748.631 461.815 749.853 474.293 C 750.597 499.999 751.587 525.698 752.822 551.385 C 753.134 558.724 753.623 583.8 755.228 588.887 C 755.012 605.864 755.834 623.543 756.615 640.545 C 758.668 685.264 760.332 729.978 762.125 774.707 L 777.27 1151.45 C 777.932 1169.35 782.821 1344.92 784.639 1348.7 C 784.526 1353.47 784.306 1361.25 782.227 1365.53 L 781.23 1365.74 C 776.577 1275.08 772.751 1184.38 769.753 1093.65 L 755.867 754.432 L 750.152 614.333 C 749.788 604.225 748.529 552.696 746.726 545.268 C 741.5 539.66 733.849 531.518 730.319 525.018 C 729.905 517.554 730.026 508.15 729.938 500.527 C 714.592 495.572 698.624 491.03 684.192 483.75 C 679.32 481.293 674.501 478.938 669.546 476.651 C 674.926 474.685 686.037 474.066 692.038 473.299 C 708.803 471.155 727.865 470.721 744.296 467.314 C 739.868 456.264 734.417 444.376 729.641 433.379 L 723.839 420.144 z"/>
<path transform="translate(0,0)" fill="rgb(215,171,163)" d="M 669.546 476.651 C 674.926 474.685 686.037 474.066 692.038 473.299 C 708.803 471.155 727.865 470.721 744.296 467.314 C 744.793 477.873 747.939 538.428 746.726 545.268 C 741.5 539.66 733.849 531.518 730.319 525.018 C 729.905 517.554 730.026 508.15 729.938 500.527 C 714.592 495.572 698.624 491.03 684.192 483.75 C 679.32 481.293 674.501 478.938 669.546 476.651 z"/>
<path transform="translate(0,0)" fill="url(#Gradient1)" d="M 1090.6 296.056 C 1094.38 291.513 1110.81 279.435 1116.31 276.232 L 1114.29 280.655 C 1115.27 282.377 1114.54 281.805 1116.48 282.343 C 1112.94 288.413 1096.91 297.665 1095.93 302.11 C 1096.42 331.806 1098.27 359.183 1099.67 388.772 L 1106.25 529.692 L 1126.62 958.487 L 1134.17 1122.2 C 1134.7 1132.8 1135.23 1168.94 1137.63 1176.31 C 1137.82 1179.5 1137.87 1204.37 1137.15 1206.26 C 1135.1 1199.72 1132.77 1154.73 1132.26 1144.76 L 1126.16 1022.68 L 1101.2 516.398 L 1093.48 359.082 C 1092.61 342.265 1092.53 311.113 1090.6 296.056 z"/>
<path transform="translate(0,0)" fill="rgb(51,42,37)" d="M 1072.74 1859 C 1082.03 1868.63 1095.59 1878.19 1105.36 1887.78 C 1110.67 1893 1118.95 1889.77 1123.78 1899.15 C 1123.27 1910.99 1089.32 1907.5 1081.16 1906.74 C 1075.89 1902.15 1072.53 1899.02 1067.78 1893.91 C 1053.12 1895.24 1053.01 1894.28 1039.51 1888.73 C 1039.74 1883.54 1040.36 1875.48 1039.65 1870.63 C 1045.34 1867.85 1064.83 1862.06 1072.74 1859 z"/>
<path transform="translate(0,0)" fill="rgb(197,148,133)" d="M 820.55 1459.62 C 822.797 1467.54 830.347 1491.07 820.291 1496.75 C 817.028 1495.82 815.328 1493.56 812.841 1491.1 C 809.855 1496.67 820.181 1509.61 816.664 1516.79 C 813.774 1518.06 812.121 1517.86 808.837 1516.46 C 799.599 1512.49 791.175 1507.41 786.937 1497.92 C 783.043 1489.2 784.593 1478.04 782.132 1470.37 C 799.528 1462.01 801.56 1461.27 820.55 1459.62 z"/>
<path transform="translate(0,0)" fill="rgb(197,148,133)" d="M 1152.12 1166.96 C 1163.52 1149.4 1173.63 1170.46 1178.03 1181.04 C 1174.87 1199 1171.04 1202.14 1160.84 1217.27 C 1157.31 1216.71 1141.26 1208.82 1137.08 1206.86 L 1137.15 1206.26 C 1137.87 1204.37 1137.82 1179.5 1137.63 1176.31 C 1141.64 1170.09 1145.28 1169.41 1152.12 1166.96 z"/>
<path transform="translate(0,0)" fill="rgb(51,42,37)" d="M 915.32 1870.58 C 922.957 1870.29 938.979 1869.97 946.401 1870.93 C 946.144 1873.51 946.908 1879.01 947.117 1881.76 C 948.566 1900.78 949.949 1904.44 940.928 1920.95 C 934.881 1920.88 928.836 1920.75 922.791 1920.56 C 914.239 1908.43 909.083 1900.64 912.467 1885.17 C 913.543 1880.25 915.123 1875.61 915.32 1870.58 z"/>
</svg>