<svg version="1.1" xmlns="http://www.w3.org/2000/svg" style="display: block;" viewBox="0 0 2048 2048" width="2000" height="2000" preserveAspectRatio="none">
<defs>
	<linearGradient id="Gradient1" gradientUnits="userSpaceOnUse" x1="1240.83" y1="1388.88" x2="1272.12" y2="1372.41">
		<stop class="stop0" offset="0" stop-opacity="1" stop-color="rgb(242,187,112)"/>
		<stop class="stop1" offset="1" stop-opacity="1" stop-color="rgb(222,199,148)"/>
	</linearGradient>
	<linearGradient id="Gradient2" gradientUnits="userSpaceOnUse" x1="1377.8" y1="1448.27" x2="1382.55" y2="1381.69">
		<stop class="stop0" offset="0" stop-opacity="1" stop-color="rgb(251,250,230)"/>
		<stop class="stop1" offset="1" stop-opacity="1" stop-color="rgb(253,252,251)"/>
	</linearGradient>
	<linearGradient id="Gradient3" gradientUnits="userSpaceOnUse" x1="1393.92" y1="707.223" x2="1411.35" y2="696.391">
		<stop class="stop0" offset="0" stop-opacity="1" stop-color="rgb(218,198,184)"/>
		<stop class="stop1" offset="1" stop-opacity="1" stop-color="rgb(255,254,249)"/>
	</linearGradient>
</defs>
<path transform="translate(0,0)" fill="rgb(239,188,115)" d="M 558.38 429.815 C 571.107 431.288 578.409 419.885 588.51 413.307 C 603.801 403.348 618.81 392.914 634.388 383.39 C 694.135 347.317 758.546 319.609 825.822 301.038 C 866.445 289.424 912.384 281.842 954.488 278.009 C 1104.6 263.341 1255.61 294.838 1387.33 368.292 C 1410.09 370.952 1443.26 369.683 1467 369.829 C 1480.72 369.914 1508.89 370.605 1521.32 369.562 C 1529.93 367.516 1567.5 344.06 1577.5 338.064 C 1581.52 334.99 1584.46 333.32 1586.89 328.913 C 1587.53 327.193 1587.66 327.504 1589.17 326.049 C 1591.65 324.942 1594.12 323.799 1596.57 322.621 C 1606.2 322.542 1625.85 312.261 1636.11 308.252 C 1645.62 304.576 1655.29 301.314 1665.08 298.474 C 1702.34 287.944 1722.15 290.027 1758.78 290.979 C 1761.16 309.931 1761.59 349.204 1756.44 367.351 C 1760.3 370.834 1761 370.233 1761.11 375.381 C 1761.99 419.019 1761.32 462.862 1761.3 506.51 L 1761.27 756.745 L 1761.26 841.15 C 1761.25 862.57 1760.37 886.921 1764.11 907.718 C 1776.4 969.378 1775.92 1075.87 1764.41 1138.06 C 1761.75 1154.72 1761.25 1169.9 1761.6 1186.72 C 1761.7 1191.41 1759.56 1192.3 1755.37 1192.67 C 1753.49 1197.98 1751.09 1207.87 1752.86 1213.37 C 1757.39 1213.27 1756.54 1212.63 1759.91 1214.58 C 1765.75 1226.42 1752.66 1253.63 1744.83 1263.57 L 1740.52 1265.73 C 1736.62 1270.02 1734.99 1271.55 1730.47 1275.17 L 1730.17 1275.67 L 1730.1 1279.8 C 1730.38 1292.35 1731.29 1294.08 1725.74 1305.29 L 1725.28 1306.18 C 1725.69 1311.98 1726.91 1319.76 1724.42 1324.78 L 1725.17 1328.15 C 1725.74 1334.99 1726.03 1338.59 1725.72 1345.49 C 1719.22 1355.9 1714.09 1357.82 1703.26 1363.3 C 1703.23 1367.5 1703.38 1376.65 1702.95 1380.54 L 1703.03 1382.92 L 1703.26 1392.35 C 1712.15 1396.39 1723.57 1401.05 1725.39 1411.96 C 1725.72 1416.46 1726.69 1423.96 1724.09 1427.66 L 1724.23 1429.52 C 1726.82 1437.19 1726.4 1445.56 1723.06 1452.93 C 1729.69 1459.22 1731.99 1461.34 1732.18 1471.05 C 1732.13 1474.34 1732.48 1478.58 1730.96 1481.26 L 1731.49 1484.8 C 1732.33 1490.53 1732.03 1496.92 1731.74 1502.74 C 1723.52 1515.38 1711.31 1519.06 1697.61 1523.75 C 1697.43 1527.21 1697.33 1532.09 1696.96 1535.41 L 1697.02 1538.36 C 1697.93 1546.52 1699.52 1554.22 1693.8 1560.99 C 1680.36 1576.89 1642.63 1582.32 1623.68 1584.11 C 1594.93 1586.83 1554.73 1585.75 1527.25 1578.53 C 1515.68 1590.46 1500.9 1601.82 1487.77 1612.35 C 1400.72 1681.08 1299.53 1729.71 1191.47 1754.74 C 1173.68 1758.9 1130.47 1768.49 1114.43 1764.75 L 1113.88 1764.62 C 1108.53 1766.1 1108.73 1766.5 1103.33 1764.76 C 1093.09 1770.69 1077.77 1771.12 1065.97 1771.8 C 994.423 1775.96 921.031 1769.65 851.264 1753.18 C 842.872 1751.19 831.859 1748.2 823.427 1747.72 C 823.857 1752.76 824.72 1753.26 822.91 1757.18 C 821.523 1757.99 820.551 1758.59 818.86 1758.61 C 751.53 1759.3 688.195 1734.67 637.56 1690.62 C 629.281 1683.42 621.163 1675.78 613.056 1667.97 C 615.402 1663.31 617.736 1659.53 619.783 1654.62 C 602.762 1645.54 570.196 1621.62 555.776 1608.74 C 541.835 1610.34 527.805 1611.02 513.775 1610.78 L 510.052 1610.45 C 503.258 1610.19 496.989 1609.67 490.216 1609.07 L 486.576 1608.51 C 391.334 1598.55 300.972 1520.82 290.543 1423.41 C 287.817 1397.94 288.905 1369.75 288.917 1343.94 L 288.958 1233.82 C 288.961 1208.92 289.78 1182.58 287.212 1157.98 C 280.505 1131.46 277.833 1097.95 275.997 1070.45 C 269.832 974.247 282.3 877.761 312.717 786.289 C 321.531 759.92 332.814 733.759 343.013 707.811 L 342.712 706.957 C 342.572 706.818 342.432 706.68 342.291 706.541 C 319.854 673.067 309.908 627.523 314.165 588.53 C 319.098 536.098 342.129 497.005 381.203 462.814 C 391.532 454.391 402.742 447.111 414.638 441.103 C 458.261 419.341 512.015 414.228 558.38 429.815 z"/>
<path transform="translate(0,0)" fill="rgb(242,230,221)" d="M 558.38 429.815 C 571.107 431.288 578.409 419.885 588.51 413.307 C 603.801 403.348 618.81 392.914 634.388 383.39 C 694.135 347.317 758.546 319.609 825.822 301.038 C 866.445 289.424 912.384 281.842 954.488 278.009 C 1104.6 263.341 1255.61 294.838 1387.33 368.292 C 1410.09 370.952 1443.26 369.683 1467 369.829 C 1480.72 369.914 1508.89 370.605 1521.32 369.562 C 1529.93 367.516 1567.5 344.06 1577.5 338.064 C 1581.52 334.99 1584.46 333.32 1586.89 328.913 C 1587.53 327.193 1587.66 327.504 1589.17 326.049 C 1591.65 324.942 1594.12 323.799 1596.57 322.621 C 1606.2 322.542 1625.85 312.261 1636.11 308.252 C 1645.62 304.576 1655.29 301.314 1665.08 298.474 C 1702.34 287.944 1722.15 290.027 1758.78 290.979 C 1761.16 309.931 1761.59 349.204 1756.44 367.351 C 1760.3 370.834 1761 370.233 1761.11 375.381 C 1761.99 419.019 1761.32 462.862 1761.3 506.51 L 1761.27 756.745 L 1761.26 841.15 C 1761.25 862.57 1760.37 886.921 1764.11 907.718 C 1776.4 969.378 1775.92 1075.87 1764.41 1138.06 C 1761.75 1154.72 1761.25 1169.9 1761.6 1186.72 C 1761.7 1191.41 1759.56 1192.3 1755.37 1192.67 C 1749.53 1191.44 1707.76 1191.94 1700.15 1191.95 L 1569.07 1192.03 L 1042.75 1191.91 L 1047.74 1181.03 L 924.727 1181.02 L 875.565 1181 L 854.69 1225.37 C 838.627 1211.55 841.344 1202.39 836.216 1196.92 C 835.683 1192.37 845.278 1179.82 848.438 1175.14 L 801.07 1127.87 C 789.437 1116.08 777.72 1102.29 764.209 1093.31 C 755.825 1088.43 749.655 1086.56 740.087 1085.54 C 730.973 1099.24 747.19 1095.91 743.631 1105.82 C 730.811 1118.37 677.933 1107.77 672.666 1091.08 C 673.472 1086.92 672.638 1088.87 676.01 1085.4 L 677.019 1085.58 C 674.667 1078.67 675.902 1019.21 675.897 1007.94 L 675.914 786.884 L 675.9 715.645 C 675.896 708.2 676.73 674.599 674.212 670.05 C 676.285 662.665 680.14 651.145 681.471 643.936 C 688.021 608.474 685.374 576.913 673.783 543.013 C 667.296 525.063 657.981 508.267 646.189 493.26 L 659.739 482.171 L 650.803 471.029 L 637.163 482.508 L 634.188 484.8 C 611.148 459.709 587.35 444.94 555.488 433.705 L 554.685 431.609 L 557.587 430.759 L 558.38 429.815 z"/>
<path transform="translate(0,0)" fill="rgb(239,188,115)" d="M 1596.57 322.621 C 1606.2 322.542 1625.85 312.261 1636.11 308.252 C 1645.62 304.576 1655.29 301.314 1665.08 298.474 C 1702.34 287.944 1722.15 290.027 1758.78 290.979 C 1761.16 309.931 1761.59 349.204 1756.44 367.351 L 1755.86 369.261 C 1751.73 383.295 1740.02 435.858 1730.63 445.442 C 1728.6 444.256 1728.83 444.478 1727.06 442.934 C 1727.12 447.905 1727.81 454.981 1725.7 459.228 L 1726.91 461.02 C 1726.53 461.909 1726.02 463.279 1725.55 464.06 C 1704.51 444.003 1683.65 423.767 1662.96 403.355 C 1657.04 403.582 1651.12 403.911 1645.2 404.342 C 1668.51 426.906 1691.7 449.593 1714.76 472.4 C 1658.74 583.29 1578.65 681.717 1492.61 770.664 L 1403.2 683.497 C 1397.23 677.681 1364.69 643.707 1360.02 643.101 C 1357.42 645.408 1358.2 644.044 1357.33 647.165 L 1353.88 644.205 L 1328.96 619.871 L 1312.44 636.925 C 1310.94 635.027 1310.15 634.116 1308.45 632.398 L 1305.64 633.037 C 1309.53 624.762 1313.2 616.384 1316.63 607.912 L 1308.51 599.796 L 1306.35 597.769 C 1308.19 595.793 1308.35 595.912 1309.12 593.388 C 1306.58 586.909 1291.36 573.877 1285.57 568.03 C 1349.01 504.003 1399.48 459.42 1472.98 405.255 C 1476.89 402.824 1523.01 371.035 1523.6 370.288 L 1521.32 369.562 C 1529.93 367.516 1567.5 344.06 1577.5 338.064 C 1581.52 334.99 1584.46 333.32 1586.89 328.913 C 1587.53 327.193 1587.66 327.504 1589.17 326.049 C 1591.65 324.942 1594.12 323.799 1596.57 322.621 z"/>
<path transform="translate(0,0)" fill="rgb(239,188,115)" d="M 1596.57 322.621 C 1606.2 322.542 1625.85 312.261 1636.11 308.252 C 1645.62 304.576 1655.29 301.314 1665.08 298.474 C 1702.34 287.944 1722.15 290.027 1758.78 290.979 C 1761.16 309.931 1761.59 349.204 1756.44 367.351 L 1755.86 369.261 C 1751.73 383.295 1740.02 435.858 1730.63 445.442 C 1728.6 444.256 1728.83 444.478 1727.06 442.934 C 1716.16 430.799 1699.21 415.315 1687.17 403.651 C 1682.81 403.774 1673.58 403.818 1669.66 404.359 C 1657.73 393.245 1645.91 381.29 1634.28 369.806 C 1619.35 355.11 1604.31 340.524 1589.17 326.049 C 1591.65 324.942 1594.12 323.799 1596.57 322.621 z"/>
<path transform="translate(0,0)" fill="rgb(254,254,253)" d="M 1596.57 322.621 C 1605.99 322.44 1608.3 326.475 1615.69 333.392 C 1627.82 344.753 1639.47 357.603 1651.79 368.77 C 1647.58 370.44 1639.29 369.762 1634.28 369.806 C 1619.35 355.11 1604.31 340.524 1589.17 326.049 C 1591.65 324.942 1594.12 323.799 1596.57 322.621 z"/>
<path transform="translate(0,0)" fill="rgb(226,201,182)" d="M 1651.79 368.77 C 1663.65 380.326 1675.45 391.953 1687.17 403.651 C 1682.81 403.774 1673.58 403.818 1669.66 404.359 C 1657.73 393.245 1645.91 381.29 1634.28 369.806 C 1639.29 369.762 1647.58 370.44 1651.79 368.77 z"/>
<path transform="translate(0,0)" fill="rgb(242,230,221)" d="M 1669.66 404.359 C 1673.58 403.818 1682.81 403.774 1687.17 403.651 C 1699.21 415.315 1716.16 430.799 1727.06 442.934 C 1727.12 447.905 1727.81 454.981 1725.7 459.228 L 1669.66 404.359 z"/>
<path transform="translate(0,0)" fill="rgb(57,61,67)" d="M 1586.89 328.913 C 1587.53 327.193 1587.66 327.504 1589.17 326.049 C 1604.31 340.524 1619.35 355.11 1634.28 369.806 C 1645.91 381.29 1657.73 393.245 1669.66 404.359 L 1725.7 459.228 L 1726.91 461.02 C 1726.53 461.909 1726.02 463.279 1725.55 464.06 C 1704.51 444.003 1683.65 423.767 1662.96 403.355 C 1651.62 391.896 1640.07 380.641 1628.32 369.595 C 1614.61 355.936 1600.8 342.374 1586.89 328.913 z"/>
<path transform="translate(0,0)" fill="rgb(242,230,221)" d="M 1308.51 599.796 C 1310.37 597.627 1310.76 596.345 1313.01 595.739 C 1325.48 606.616 1346.43 627.205 1357.83 639.387 C 1357.02 642.35 1356.69 641.813 1353.88 644.205 L 1328.96 619.871 L 1312.44 636.925 C 1310.94 635.027 1310.15 634.116 1308.45 632.398 L 1305.64 633.037 C 1309.53 624.762 1313.2 616.384 1316.63 607.912 L 1308.51 599.796 z"/>
<path transform="translate(0,0)" fill="rgb(254,254,253)" d="M 1586.89 328.913 C 1600.8 342.374 1614.61 355.936 1628.32 369.595 C 1622.38 369.843 1616.43 369.98 1610.48 370.004 C 1600.92 362.059 1586.73 347.201 1577.5 338.064 C 1581.52 334.99 1584.46 333.32 1586.89 328.913 z"/>
<path transform="translate(0,0)" fill="rgb(226,201,182)" d="M 1628.32 369.595 C 1640.07 380.641 1651.62 391.896 1662.96 403.355 C 1657.04 403.582 1651.12 403.911 1645.2 404.342 C 1633.43 393.307 1621.89 381.467 1610.48 370.004 C 1616.43 369.98 1622.38 369.843 1628.32 369.595 z"/>
<path transform="translate(0,0)" fill="rgb(254,254,253)" d="M 1523.14 430.39 C 1573.91 425.014 1619.42 461.826 1624.77 512.597 C 1630.12 563.368 1593.29 608.859 1542.51 614.187 C 1491.77 619.512 1446.32 582.708 1440.97 531.97 C 1435.62 481.233 1472.4 435.761 1523.14 430.39 z"/>
<path transform="translate(0,0)" fill="rgb(57,61,67)" d="M 1521.82 447.467 C 1563.4 441.347 1601.98 470.299 1607.73 511.925 C 1613.48 553.55 1584.19 591.879 1542.51 597.259 C 1501.36 602.573 1463.61 573.724 1457.93 532.618 C 1452.26 491.511 1480.77 453.51 1521.82 447.467 z"/>
<path transform="translate(0,0)" fill="rgb(254,254,253)" d="M 1528.43 450.493 C 1567.82 448.07 1601.8 477.853 1604.57 517.223 C 1607.33 556.593 1577.84 590.831 1538.5 593.934 C 1498.67 597.075 1463.92 567.144 1461.12 527.291 C 1458.32 487.438 1488.55 452.947 1528.43 450.493 z"/>
<path transform="translate(0,0)" fill="rgb(226,201,182)" d="M 1756.44 367.351 C 1760.3 370.834 1761 370.233 1761.11 375.381 C 1761.99 419.019 1761.32 462.862 1761.3 506.51 L 1761.27 756.745 L 1761.26 841.15 C 1761.25 862.57 1760.37 886.921 1764.11 907.718 C 1776.4 969.378 1775.92 1075.87 1764.41 1138.06 C 1761.75 1154.72 1761.25 1169.9 1761.6 1186.72 C 1761.7 1191.41 1759.56 1192.3 1755.37 1192.67 C 1749.53 1191.44 1707.76 1191.94 1700.15 1191.95 L 1569.07 1192.03 L 1042.75 1191.91 L 1047.74 1181.03 L 924.727 1181.02 C 934.555 1165.09 948.272 1137.73 957.238 1120.75 C 972.168 1116.99 991.137 1108.05 994.838 1091.62 C 1004.91 1093.12 1047.95 1092.07 1061.21 1092.05 L 1208.96 1092.05 L 1727 1091.98 L 1727.08 1086.1 C 1727.97 956.734 1726.5 609.007 1726.95 465.487 C 1726.48 465.011 1726.01 464.536 1725.55 464.06 C 1726.02 463.279 1726.53 461.909 1726.91 461.02 L 1725.7 459.228 C 1727.81 454.981 1727.12 447.905 1727.06 442.934 C 1728.83 444.478 1728.6 444.256 1730.63 445.442 C 1740.02 435.858 1751.73 383.295 1755.86 369.261 L 1756.44 367.351 z"/>
<path transform="translate(0,0)" fill="rgb(242,230,221)" d="M 1764.11 907.718 C 1776.4 969.378 1775.92 1075.87 1764.41 1138.06 C 1763.47 1136.88 1762.03 1134.94 1761.94 1133.49 C 1760.4 1107.66 1761 1077.02 1761 1051.43 L 1761 963.553 C 1761 952.186 1759.36 915.453 1764.11 907.718 z"/>
<path transform="translate(0,0)" fill="rgb(254,254,253)" d="M 1212.5 1118.47 C 1223.27 1115.19 1234.67 1121.25 1237.97 1132.02 C 1241.28 1142.78 1235.23 1154.19 1224.47 1157.51 C 1213.68 1160.84 1202.24 1154.78 1198.93 1143.99 C 1195.62 1133.19 1201.7 1121.76 1212.5 1118.47 z"/>
<path transform="translate(0,0)" fill="rgb(242,230,221)" d="M 558.38 429.815 C 571.107 431.288 578.409 419.885 588.51 413.307 C 603.801 403.348 618.81 392.914 634.388 383.39 C 694.135 347.317 758.546 319.609 825.822 301.038 C 866.445 289.424 912.384 281.842 954.488 278.009 C 1104.6 263.341 1255.61 294.838 1387.33 368.292 C 1381.27 370.964 1322.48 369.878 1311.45 369.875 L 1167.96 369.827 C 1005.02 369.806 838.597 368.27 675.907 369.952 L 675.993 432.339 L 655.514 449.251 C 656.339 454.644 658.013 467.927 659.713 472.445 L 661.243 472.321 C 661.872 473.247 663.204 475.1 663.754 476.117 C 665.867 478.807 672.495 480.713 676.009 481.808 C 675.965 491.777 677.503 537.559 673.783 543.013 C 667.296 525.063 657.981 508.267 646.189 493.26 L 659.739 482.171 L 650.803 471.029 L 637.163 482.508 L 634.188 484.8 C 611.148 459.709 587.35 444.94 555.488 433.705 L 554.685 431.609 L 557.587 430.759 L 558.38 429.815 z"/>
<path transform="translate(0,0)" fill="rgb(213,116,89)" d="M 557.587 430.759 C 586.991 439.848 617.062 459.148 637.163 482.508 L 634.188 484.8 C 611.148 459.709 587.35 444.94 555.488 433.705 L 554.685 431.609 L 557.587 430.759 z"/>
<path transform="translate(0,0)" fill="rgb(57,61,67)" d="M 1312.44 636.925 L 1328.96 619.871 L 1353.88 644.205 L 1357.33 647.165 C 1383.85 673.961 1414.33 701.499 1439.85 728.351 L 1423.35 745.284 L 1420.71 748.009 C 1423.09 751.243 1425.39 754.532 1427.61 757.874 C 1411.79 765.835 1397.18 776.022 1384.24 788.125 C 1383 781.963 1384.35 782.085 1380.67 778.011 C 1365.49 807.016 1348.21 823.405 1316.23 834.261 C 1310.11 836.338 1302.02 836.752 1296.32 838.553 C 1275.53 840.359 1263.15 839.673 1244.01 848.167 C 1231.15 855.089 1227.85 858.067 1216.95 868.098 L 1214.54 854.913 C 1210.7 857.757 1206.98 861.539 1203.49 864.866 C 1199.5 844.086 1199.63 830.635 1199.88 809.852 C 1202.2 788.958 1205.5 774.95 1213.72 755.761 L 1216.16 749.807 C 1221.76 740.498 1226.12 733.531 1232.44 724.604 L 1236.44 719.826 C 1235.1 714.403 1233.97 711.077 1232.1 705.926 C 1260.24 692.617 1276.55 675.366 1294.6 650.928 C 1298.22 645.015 1301.63 638.617 1305.64 633.037 L 1308.45 632.398 C 1310.15 634.116 1310.94 635.027 1312.44 636.925 z"/>
<path transform="translate(0,0)" fill="rgb(57,61,67)" d="M 1312.44 636.925 L 1328.96 619.871 L 1353.88 644.205 L 1357.33 647.165 C 1383.85 673.961 1414.33 701.499 1439.85 728.351 L 1423.35 745.284 L 1420.71 748.009 L 1406.63 762.101 L 1332.39 689.611 C 1323.98 681.414 1302.44 661.372 1296.31 653.417 L 1294.6 650.928 C 1298.22 645.015 1301.63 638.617 1305.64 633.037 L 1308.45 632.398 C 1310.15 634.116 1310.94 635.027 1312.44 636.925 z"/>
<path transform="translate(0,0)" fill="rgb(226,201,182)" d="M 1305.64 633.037 L 1308.45 632.398 C 1310.15 634.116 1310.94 635.027 1312.44 636.925 L 1296.31 653.417 L 1294.6 650.928 C 1298.22 645.015 1301.63 638.617 1305.64 633.037 z"/>
<path transform="translate(0,0)" fill="rgb(242,230,221)" d="M 1329.11 625.294 C 1335.92 631.881 1343.51 638.93 1350.03 645.699 L 1352.79 648.335 C 1355.1 650.641 1361.56 656.8 1363.25 659.048 C 1387.36 681.165 1410.94 705.394 1434.53 728.245 L 1421.48 741.927 L 1418.76 744.718 L 1406.71 756.895 L 1301.09 653.71 L 1312.23 642.406 L 1314.96 639.718 L 1329.11 625.294 z"/>
<path transform="translate(0,0)" fill="url(#Gradient3)" d="M 1363.25 659.048 C 1387.36 681.165 1410.94 705.394 1434.53 728.245 L 1421.48 741.927 L 1418.76 744.718 C 1413.84 737.273 1409.01 729.777 1404.25 722.229 C 1399.26 716.437 1366.6 665.364 1363.25 659.048 z"/>
<path transform="translate(0,0)" fill="rgb(226,201,182)" d="M 1404.25 722.229 L 1406.96 721.338 C 1411.62 725.32 1417.54 736.514 1421.48 741.927 L 1418.76 744.718 C 1413.84 737.273 1409.01 729.777 1404.25 722.229 z"/>
<path transform="translate(0,0)" fill="rgb(242,230,221)" d="M 1329.11 625.294 C 1335.92 631.881 1343.51 638.93 1350.03 645.699 C 1338.62 650.605 1323.97 648.419 1314.96 639.718 L 1329.11 625.294 z"/>
<path transform="translate(0,0)" fill="rgb(226,201,182)" d="M 1312.23 642.406 L 1314.96 639.718 C 1323.97 648.419 1338.62 650.605 1350.03 645.699 L 1352.79 648.335 C 1338.43 655.56 1324.14 652.457 1312.23 642.406 z"/>
<path transform="translate(0,0)" fill="rgb(242,230,221)" d="M 1294.6 650.928 L 1296.31 653.417 C 1302.44 661.372 1323.98 681.414 1332.39 689.611 L 1406.63 762.101 L 1420.71 748.009 C 1423.09 751.243 1425.39 754.532 1427.61 757.874 C 1411.79 765.835 1397.18 776.022 1384.24 788.125 C 1383 781.963 1384.35 782.085 1380.67 778.011 C 1382.65 773.848 1384.69 768.516 1386.49 764.177 C 1358.14 737.875 1327.73 706.887 1299.86 679.63 C 1296.04 681.498 1292.14 683.596 1288.36 685.558 C 1286.49 683.916 1285.73 682.456 1284.09 682.894 C 1269.83 686.681 1244.89 709.428 1236.44 719.826 C 1235.1 714.403 1233.97 711.077 1232.1 705.926 C 1260.24 692.617 1276.55 675.366 1294.6 650.928 z"/>
<path transform="translate(0,0)" fill="rgb(213,116,89)" d="M 1236.44 719.826 C 1244.89 709.428 1269.83 686.681 1284.09 682.894 C 1285.73 682.456 1286.49 683.916 1288.36 685.558 C 1249.39 711.507 1225.96 742.226 1215.96 789.011 C 1210.86 812.892 1212.74 831.197 1214.54 854.913 C 1210.7 857.757 1206.98 861.539 1203.49 864.866 C 1199.5 844.086 1199.63 830.635 1199.88 809.852 C 1202.2 788.958 1205.5 774.95 1213.72 755.761 L 1216.16 749.807 C 1221.76 740.498 1226.12 733.531 1232.44 724.604 L 1236.44 719.826 z"/>
<path transform="translate(0,0)" fill="rgb(213,116,89)" d="M 1291.28 688.352 C 1294.15 686.663 1296.42 684.737 1299.55 685.05 C 1309.52 693.269 1323.15 707.511 1332.63 716.837 C 1349.22 732.934 1365.71 749.125 1382.12 765.41 C 1380.04 770.033 1377.86 775.241 1375.6 779.722 C 1358.83 809.825 1332.54 830.34 1297.55 834.444 C 1284.3 837.461 1271.17 836.018 1257.06 839.38 C 1247.07 842.592 1239.96 845.245 1231.11 851.062 C 1228.27 852.929 1221.35 859.457 1219.48 859.398 L 1218.09 852.122 C 1209.25 783.023 1232.31 726.375 1291.28 688.352 z"/>
<path transform="translate(0,0)" fill="rgb(242,230,221)" d="M 1291.28 688.352 C 1294.15 686.663 1296.42 684.737 1299.55 685.05 C 1309.52 693.269 1323.15 707.511 1332.63 716.837 C 1349.22 732.934 1365.71 749.125 1382.12 765.41 C 1380.04 770.033 1377.86 775.241 1375.6 779.722 L 1363.42 779.344 C 1365.43 775.185 1367.8 769.202 1369.67 764.84 L 1291.28 688.352 z"/>
<path transform="translate(0,0)" fill="rgb(226,201,182)" d="M 1363.42 779.344 L 1375.6 779.722 C 1358.83 809.825 1332.54 830.34 1297.55 834.444 C 1300.27 831.818 1308.39 829.783 1312.78 827.842 C 1337.23 817.03 1350.68 802.203 1363.42 779.344 z"/>
<path transform="translate(0,0)" fill="rgb(226,201,182)" d="M 1218.09 852.122 C 1228.86 846.188 1244.48 838.504 1257.06 839.38 C 1247.07 842.592 1239.96 845.245 1231.11 851.062 C 1228.27 852.929 1221.35 859.457 1219.48 859.398 L 1218.09 852.122 z"/>
<path transform="translate(0,0)" fill="rgb(226,201,182)" d="M 1387.33 368.292 C 1410.09 370.952 1443.26 369.683 1467 369.829 C 1480.72 369.914 1508.89 370.605 1521.32 369.562 L 1523.6 370.288 C 1523.01 371.035 1476.89 402.824 1472.98 405.255 C 1468.24 402.954 1397.52 403.912 1384.84 403.919 L 1217.64 403.956 L 710.053 403.972 L 710.011 452.551 L 719.967 456.405 L 709.962 464.871 L 685.303 485.08 L 676.009 481.808 C 672.495 480.713 665.867 478.807 663.754 476.117 C 663.204 475.1 661.872 473.247 661.243 472.321 L 659.713 472.445 C 658.013 467.927 656.339 454.644 655.514 449.251 L 675.993 432.339 L 675.907 369.952 C 838.597 368.27 1005.02 369.806 1167.96 369.827 L 1311.45 369.875 C 1322.48 369.878 1381.27 370.964 1387.33 368.292 z"/>
<path transform="translate(0,0)" fill="rgb(213,116,89)" d="M 696.751 448.066 L 710.011 452.551 L 719.967 456.405 L 709.962 464.871 L 685.303 485.08 L 676.009 481.808 C 672.495 480.713 665.867 478.807 663.754 476.117 C 667.104 471.808 691.416 452.422 696.751 448.066 z"/>
<path transform="translate(0,0)" fill="rgb(213,116,89)" d="M 675.993 432.339 L 690.549 420.227 C 691.747 428.39 692.998 436.545 694.301 444.692 C 687.994 450.02 665.169 468.092 661.243 472.321 L 659.713 472.445 C 658.013 467.927 656.339 454.644 655.514 449.251 L 675.993 432.339 z"/>
<path transform="translate(0,0)" fill="rgb(226,201,182)" d="M 1199.88 809.852 C 1199.63 830.635 1199.5 844.086 1203.49 864.866 C 1206.98 861.539 1210.7 857.757 1214.54 854.913 L 1216.95 868.098 C 1227.85 858.067 1231.15 855.089 1244.01 848.167 C 1263.15 839.673 1275.53 840.359 1296.32 838.553 L 1298.43 839.373 C 1299.54 844.328 1299.18 865.654 1299.25 872.36 C 1301.56 869.986 1304.07 867.015 1306.78 865.314 L 1305.81 866.2 C 1306.66 865.816 1307.81 865.105 1308.65 864.627 C 1308.45 869.6 1302.36 874.688 1298.75 878.284 C 1280.61 896.808 1261.93 915.517 1244.07 934.261 L 1244.25 1041.12 L 1159.97 1041.14 C 1159.68 1022.71 1161.5 889.918 1158.77 883.018 C 1163.2 877.317 1185.51 857.916 1185.29 853.457 C 1179.37 853.998 1164.9 871.187 1160.05 876.309 C 1159.5 854.844 1159.95 831.232 1159.95 809.613 C 1173.26 809.568 1186.57 809.647 1199.88 809.852 z"/>
<path transform="translate(0,0)" fill="rgb(242,230,221)" d="M 1244.01 848.167 C 1263.15 839.673 1275.53 840.359 1296.32 838.553 L 1298.43 839.373 C 1299.54 844.328 1299.18 865.654 1299.25 872.36 L 1244.51 928.184 C 1243.28 903.331 1244.31 873.666 1244.01 848.167 z"/>
<path transform="translate(0,0)" fill="rgb(57,61,67)" d="M 1299.25 872.36 C 1301.56 869.986 1304.07 867.015 1306.78 865.314 L 1305.81 866.2 C 1306.66 865.816 1307.81 865.105 1308.65 864.627 C 1308.45 869.6 1302.36 874.688 1298.75 878.284 C 1280.61 896.808 1261.93 915.517 1244.07 934.261 C 1235.41 943.048 1204.06 977.455 1196.15 979.965 C 1198.19 974.245 1237.29 935.659 1244.51 928.184 L 1299.25 872.36 z"/>
<path transform="translate(0,0)" fill="rgb(226,201,182)" d="M 709.962 464.871 L 709.999 846.993 C 709.999 859.052 708.973 964.715 710.839 969.677 C 701.421 971.865 692.035 974.046 686.721 982.903 C 679.108 995.591 686.881 1008.34 696.467 1016.57 C 678.969 1023.69 685.171 1034.41 699.797 1038.97 C 700.907 1040.23 702.336 1041.61 701.662 1043.44 C 698.725 1051.44 681.933 1081.04 677.019 1085.58 C 674.667 1078.67 675.902 1019.21 675.897 1007.94 L 675.914 786.884 L 675.9 715.645 C 675.896 708.2 676.73 674.599 674.212 670.05 C 676.285 662.665 680.14 651.145 681.471 643.936 C 688.021 608.474 685.374 576.913 673.783 543.013 C 677.503 537.559 675.965 491.777 676.009 481.808 L 685.303 485.08 L 709.962 464.871 z"/>
<path transform="translate(0,0)" fill="rgb(226,201,182)" d="M 1380.67 778.011 C 1384.35 782.085 1383 781.963 1384.24 788.125 C 1357.32 815.195 1340.91 843.926 1340.95 883.151 L 1340.96 884.744 C 1344.67 884.068 1350.21 882.794 1353.8 883.045 C 1354.15 884.417 1354.33 884.394 1355.13 885.646 C 1361.02 886.887 1376.85 882.074 1383.37 880.35 C 1384.7 933.305 1383 987.975 1383.7 1041.14 L 1299.1 1041.13 L 1299.08 967.65 C 1299.08 957.95 1299.65 937.897 1298.66 928.738 C 1303.32 923.956 1317.31 910.934 1318.81 905.232 C 1314.55 905.856 1303.06 918.804 1299.2 922.736 C 1298.88 908.097 1299.58 892.83 1298.75 878.284 C 1302.36 874.688 1308.45 869.6 1308.65 864.627 C 1307.81 865.105 1306.66 865.816 1305.81 866.2 L 1306.78 865.314 C 1304.07 867.015 1301.56 869.986 1299.25 872.36 C 1299.18 865.654 1299.54 844.328 1298.43 839.373 L 1296.32 838.553 C 1302.02 836.752 1310.11 836.338 1316.23 834.261 C 1348.21 823.405 1365.49 807.016 1380.67 778.011 z"/>
<path transform="translate(0,0)" fill="rgb(225,161,143)" d="M 710.839 969.677 C 722.633 967.838 731.394 965.387 741.421 958.633 C 753.872 950.247 773.179 939.194 772.29 964.726 C 771.911 975.641 770.077 986.362 761.768 994.087 C 770.798 1002.78 772.573 1008.17 777.442 1019.6 C 780.612 1021.91 783.644 1023.34 785.132 1026.5 C 784.061 1028.87 783.755 1029.38 782.304 1031.55 C 782.766 1045.01 791.924 1053.62 777.334 1062.74 L 776.973 1064.05 C 769.739 1067.79 759.175 1066.32 750.938 1065.87 C 747.452 1072.87 744.041 1078.78 740.087 1085.54 C 730.973 1099.24 747.19 1095.91 743.631 1105.82 C 730.811 1118.37 677.933 1107.77 672.666 1091.08 C 673.472 1086.92 672.638 1088.87 676.01 1085.4 L 677.019 1085.58 C 681.933 1081.04 698.725 1051.44 701.662 1043.44 C 702.336 1041.61 700.907 1040.23 699.797 1038.97 C 685.171 1034.41 678.969 1023.69 696.467 1016.57 C 686.881 1008.34 679.108 995.591 686.721 982.903 C 692.035 974.046 701.421 971.865 710.839 969.677 z"/>
<path transform="translate(0,0)" fill="rgb(57,61,67)" d="M 710.839 969.677 C 722.633 967.838 731.394 965.387 741.421 958.633 C 753.872 950.247 773.179 939.194 772.29 964.726 C 771.911 975.641 770.077 986.362 761.768 994.087 C 747.271 999.155 718.324 993.301 727.524 1020.95 C 729.179 1025.92 731.688 1030.29 731.782 1035.56 C 730.517 1038.24 731.463 1037.61 729.438 1038.54 C 726.741 1028 718.956 1017.86 707.199 1026.26 C 701.201 1030.54 702.43 1033.58 699.797 1038.97 C 685.171 1034.41 678.969 1023.69 696.467 1016.57 C 686.881 1008.34 679.108 995.591 686.721 982.903 C 692.035 974.046 701.421 971.865 710.839 969.677 z"/>
<path transform="translate(0,0)" fill="rgb(57,61,67)" d="M 750.938 1065.87 C 746.373 1065.28 743.47 1065.27 739.423 1063.01 L 740.026 1062.18 C 751.307 1060.92 763.509 1063.25 774.968 1062.35 C 775.637 1062.92 776.305 1063.48 776.973 1064.05 C 769.739 1067.79 759.175 1066.32 750.938 1065.87 z"/>
<path transform="translate(0,0)" fill="rgb(57,61,67)" d="M 752.508 1021.38 C 760.564 1016.61 767.568 1019.53 775.74 1022.26 C 768.264 1028.49 764.333 1031.95 754.061 1032.08 C 749.828 1031.29 746.216 1029.89 742.153 1028.49 C 745.152 1025.87 748.803 1022.46 752.508 1021.38 z"/>
<path transform="translate(0,0)" fill="rgb(254,254,253)" d="M 742.153 1028.49 C 745.152 1025.87 748.803 1022.46 752.508 1021.38 C 752.884 1024.73 753.212 1028.92 754.061 1032.08 C 749.828 1031.29 746.216 1029.89 742.153 1028.49 z"/>
<path transform="translate(0,0)" fill="rgb(57,61,67)" d="M 763.125 1038.53 C 768.42 1041.12 767.467 1041.08 773.267 1041 L 774.42 1040.98 L 775.761 1043.47 C 771.883 1045.71 770.045 1046.73 765.602 1044.75 C 762.92 1041.25 763.836 1043.19 763.125 1038.53 z"/>
<path transform="translate(0,0)" fill="rgb(57,61,67)" d="M 1448.34 752.594 L 1459.84 747.683 L 1476.38 763.857 C 1474.6 775.639 1472.9 787.878 1469.29 799.238 L 1467.62 804.447 C 1462.32 818.768 1457.97 827.338 1448.75 839.728 L 1445.76 843.235 C 1427.83 862.582 1408.81 873.103 1383.37 880.35 C 1376.85 882.074 1361.02 886.887 1355.13 885.646 C 1354.33 884.394 1354.15 884.417 1353.8 883.045 C 1350.21 882.794 1344.67 884.068 1340.96 884.744 L 1340.95 883.151 C 1340.91 843.926 1357.32 815.195 1384.24 788.125 C 1397.18 776.022 1411.79 765.835 1427.61 757.874 L 1430.74 756.173 C 1437.33 752.801 1441.72 748.703 1448.34 752.594 z"/>
<path transform="translate(0,0)" fill="rgb(213,116,89)" d="M 1430.74 756.173 C 1437.33 752.801 1441.72 748.703 1448.34 752.594 C 1394.05 779.55 1355.83 820.192 1353.8 883.045 C 1350.21 882.794 1344.67 884.068 1340.96 884.744 L 1340.95 883.151 C 1340.91 843.926 1357.32 815.195 1384.24 788.125 C 1397.18 776.022 1411.79 765.835 1427.61 757.874 L 1430.74 756.173 z"/>
<path transform="translate(0,0)" fill="rgb(213,116,89)" d="M 1450.58 755.875 C 1453.06 754.787 1456.52 753.147 1458.95 752.217 L 1472.4 765.124 C 1470.4 778.936 1468.76 790.839 1463.7 804.05 C 1459.1 818.382 1454.21 826.951 1444.88 838.765 C 1424.84 861.723 1400.65 873.08 1371.05 879.257 C 1368.47 880.543 1360.88 882.022 1357.66 882.761 C 1359.31 822.599 1398.11 780.837 1450.58 755.875 z"/>
<path transform="translate(0,0)" fill="rgb(242,230,221)" d="M 1454.76 792.228 C 1457.33 796.18 1460.12 801.222 1463.7 804.05 C 1459.1 818.382 1454.21 826.951 1444.88 838.765 C 1424.84 861.723 1400.65 873.08 1371.05 879.257 C 1375.55 876.223 1390.81 870.848 1397.07 867.465 C 1427.53 851.031 1442.85 829.901 1453.2 797.728 C 1453.58 796.961 1454.48 793.282 1454.76 792.228 z"/>
<path transform="translate(0,0)" fill="rgb(226,201,182)" d="M 1454.76 792.228 C 1457.33 796.18 1460.12 801.222 1463.7 804.05 C 1459.1 818.382 1454.21 826.951 1444.88 838.765 C 1444.58 818.019 1448.85 821.472 1456.95 804.926 C 1456.45 800.841 1456.09 801.562 1453.2 797.728 C 1453.58 796.961 1454.48 793.282 1454.76 792.228 z"/>
<path transform="translate(0,0)" fill="rgb(242,230,221)" d="M 1450.58 755.875 C 1453.06 754.787 1456.52 753.147 1458.95 752.217 L 1472.4 765.124 C 1470.4 778.936 1468.76 790.839 1463.7 804.05 C 1460.12 801.222 1457.33 796.18 1454.76 792.228 C 1456.99 783.551 1458.56 773.081 1459.46 764.166 L 1450.58 755.875 z"/>
<path transform="translate(0,0)" fill="rgb(225,161,143)" d="M 904.867 1092.19 C 909.253 1085.43 914.089 1078.96 919.342 1072.85 C 923.333 1068.21 938.172 1050.57 944.019 1056.77 C 944.924 1060.86 942.221 1068.29 941.052 1072.95 C 957.791 1073.11 969.536 1056.82 976.854 1058.35 C 978.079 1061.58 977.073 1063.9 975.848 1067.54 C 978.649 1066.96 981.206 1063.36 985.573 1061.88 C 988.766 1062.28 987.536 1061.56 989.493 1063.89 C 989.897 1067.51 986.973 1071.04 985.213 1075.07 L 986.055 1075.74 C 990.001 1075.01 989.57 1074.42 992.496 1075.8 C 994.121 1080.91 989.185 1087.06 986.537 1091.64 C 989.972 1091.42 991.42 1091.37 994.838 1091.62 C 991.137 1108.05 972.168 1116.99 957.238 1120.75 C 948.272 1137.73 934.555 1165.09 924.727 1181.02 L 875.565 1181 L 854.69 1225.37 C 838.627 1211.55 841.344 1202.39 836.216 1196.92 C 835.683 1192.37 845.278 1179.82 848.438 1175.14 C 850.21 1172.17 851.241 1171.48 853.765 1169.21 C 856.504 1168.49 900.123 1099.54 904.867 1092.19 z"/>
<path transform="translate(0,0)" fill="rgb(57,61,67)" d="M 853.765 1169.21 C 854.37 1176.35 843.621 1189.68 839.013 1195.91 C 838.244 1196.22 836.961 1196.8 836.216 1196.92 C 835.683 1192.37 845.278 1179.82 848.438 1175.14 C 850.21 1172.17 851.241 1171.48 853.765 1169.21 z"/>
<path transform="translate(0,0)" fill="rgb(57,61,67)" d="M 919.959 1077.39 L 921.319 1074.95 C 927.425 1072.13 934.329 1072.81 941.052 1072.95 C 940.721 1074.73 941.058 1073.82 939.847 1075.61 C 934.36 1077.09 925.669 1077.75 919.959 1077.39 z"/>
<path transform="translate(0,0)" fill="rgb(57,61,67)" d="M 951.068 1094.33 C 955.541 1094.88 956.085 1094.22 959.174 1096.52 C 953.965 1100.07 948.31 1095.51 938.181 1103.71 C 936.296 1106.21 936.404 1106.28 933.868 1108.04 L 932.456 1107.33 C 932.929 1098.92 944.319 1095.33 951.068 1094.33 z"/>
<path transform="translate(0,0)" fill="rgb(57,61,67)" d="M 978.948 1079.86 C 980.559 1080.99 979.934 1080.21 980.61 1082.35 C 977.959 1086.82 971.064 1089.56 966.327 1091.78 C 964.768 1090.75 965.373 1091.45 964.583 1089.64 C 965.845 1087.97 974.728 1082.99 977.895 1080.65 L 978.948 1079.86 z"/>
<path transform="translate(0,0)" fill="rgb(57,61,67)" d="M 981.601 1093.75 L 983.08 1094.64 L 983.451 1096.5 C 979.914 1101.14 974.545 1103.13 969.259 1105.44 L 967.583 1103.82 C 968.588 1101.71 977.29 1097.05 980.611 1094.52 L 981.601 1093.75 z"/>
<path transform="translate(0,0)" fill="rgb(57,61,67)" d="M 970.409 1071.8 C 971.994 1072.28 971.207 1071.82 972.511 1073.53 C 970.474 1078.09 963.66 1080.92 959.175 1083.16 C 957.047 1082.77 957.946 1083.29 956.542 1081.49 C 957.734 1079.62 966.339 1074.87 969.446 1072.53 L 970.409 1071.8 z"/>
<path transform="translate(0,0)" fill="rgb(57,61,67)" d="M 1300.12 591.653 L 1306.35 597.769 L 1308.51 599.796 L 1316.63 607.912 C 1313.2 616.384 1309.53 624.762 1305.64 633.037 C 1301.63 638.617 1298.22 645.015 1294.6 650.928 C 1276.55 675.366 1260.24 692.617 1232.1 705.926 L 1228.59 707.341 C 1217.57 711.625 1191.59 719.586 1180.27 715.829 C 1186.91 666.267 1205.86 623.187 1254.44 603.415 C 1260.05 601.134 1265.71 598.98 1271.33 596.728 C 1281.2 594.642 1290.18 593.197 1300.12 591.653 z"/>
<path transform="translate(0,0)" fill="rgb(213,116,89)" d="M 1288.72 597.433 C 1292.96 596.53 1295.62 595.477 1299.63 596.743 C 1301.5 598.294 1302.7 599.215 1304.37 600.999 L 1307.3 603.92 C 1314.46 610.906 1310.66 613.879 1306.45 622.086 L 1302.78 629.261 C 1300.1 634.374 1293.87 646.123 1289.79 650.091 C 1285.63 656.447 1279.83 664.708 1274.26 669.903 C 1256.19 690.497 1228.52 707.5 1201.13 711.25 C 1197.48 712.853 1188.63 712.931 1184.36 713.083 C 1193.72 648.608 1223 609.157 1288.72 597.433 z"/>
<path transform="translate(0,0)" fill="rgb(242,230,221)" d="M 1288.72 597.433 C 1292.96 596.53 1295.62 595.477 1299.63 596.743 C 1301.5 598.294 1302.7 599.215 1304.37 600.999 L 1307.3 603.92 C 1314.46 610.906 1310.66 613.879 1306.45 622.086 L 1302.78 629.261 C 1300.1 634.374 1293.87 646.123 1289.79 650.091 C 1283.64 653.508 1276.73 660.306 1271.88 662.005 L 1270.29 661.043 C 1284.33 642.166 1290.96 629.848 1299.96 608.436 L 1288.72 597.433 z"/>
<path transform="translate(0,0)" fill="rgb(226,201,182)" d="M 1304.37 600.999 L 1307.3 603.92 C 1314.46 610.906 1310.66 613.879 1306.45 622.086 L 1302.78 629.261 C 1300.32 616.829 1299.81 612.882 1304.37 600.999 z"/>
<path transform="translate(0,0)" fill="rgb(242,230,221)" d="M 1307.3 603.92 C 1314.46 610.906 1310.66 613.879 1306.45 622.086 C 1303.35 617.068 1305.23 609.064 1307.3 603.92 z"/>
<path transform="translate(0,0)" fill="rgb(242,230,221)" d="M 1248.92 684.843 C 1251.15 683.986 1271.91 670.239 1272.67 668.805 L 1274.26 669.903 C 1256.19 690.497 1228.52 707.5 1201.13 711.25 L 1200.93 710.363 C 1222.85 703.583 1231.02 697.346 1248.92 684.843 z"/>
<path transform="translate(0,0)" fill="rgb(226,201,182)" d="M 1270.29 661.043 L 1271.88 662.005 C 1276.73 660.306 1283.64 653.508 1289.79 650.091 C 1285.63 656.447 1279.83 664.708 1274.26 669.903 L 1272.67 668.805 C 1271.91 670.239 1251.15 683.986 1248.92 684.843 C 1255.2 677.419 1263.52 668.865 1270.29 661.043 z"/>
<path transform="translate(0,0)" fill="rgb(226,201,182)" d="M 1586.08 770.61 C 1578.5 749.591 1585.13 728.867 1607.21 721.026 C 1616.19 717.927 1626.05 718.629 1634.49 722.972 C 1643.28 727.38 1649.98 734.556 1652.82 744.06 C 1655.7 753.558 1654.54 763.822 1649.62 772.44 C 1644.78 780.935 1636.72 787.119 1627.26 789.592 C 1618.01 791.973 1608.19 790.491 1600.05 785.488 C 1594.86 782.354 1591.53 778.703 1587.8 773.994 C 1565.11 787.286 1534.88 804.382 1513.24 818.558 C 1516.85 829.758 1517.88 839.716 1512.35 850.808 C 1508.02 859.398 1500.29 865.776 1491.03 868.382 C 1481.65 871.143 1471.55 869.97 1463.06 865.131 C 1453.24 859.43 1449.9 852.947 1445.76 843.235 L 1448.75 839.728 C 1457.97 827.338 1462.32 818.768 1467.62 804.447 L 1469.29 799.238 C 1488.59 797.613 1498.91 798.607 1511.29 815.238 L 1586.08 770.61 z"/>
<path transform="translate(0,0)" fill="rgb(242,230,221)" d="M 1467.62 804.447 C 1486.75 798.86 1505.44 804.438 1511.13 825.238 C 1513.58 834.329 1512.06 844.032 1506.94 851.936 C 1496.7 868.019 1477.96 870.17 1462.32 860.21 C 1454.86 855.455 1451.42 847.84 1448.75 839.728 C 1457.97 827.338 1462.32 818.768 1467.62 804.447 z"/>
<path transform="translate(0,0)" fill="rgb(242,230,221)" d="M 1612.6 723.521 C 1623.93 721.38 1635.53 725.509 1642.97 734.324 C 1650.41 743.14 1652.52 755.276 1648.5 766.085 C 1644.48 776.893 1634.95 784.699 1623.56 786.512 C 1606.3 789.259 1590.03 777.637 1587.03 760.418 C 1584.04 743.199 1595.42 726.765 1612.6 723.521 z"/>
<path transform="translate(0,0)" fill="rgb(226,201,182)" d="M 764.209 1093.31 C 770.054 1090.74 888.74 1092.09 904.867 1092.19 C 900.123 1099.54 856.504 1168.49 853.765 1169.21 C 851.241 1171.48 850.21 1172.17 848.438 1175.14 L 801.07 1127.87 C 789.437 1116.08 777.72 1102.29 764.209 1093.31 z"/>
<path transform="translate(0,0)" fill="rgb(242,230,221)" d="M 1228.59 707.341 L 1232.1 705.926 C 1233.97 711.077 1235.1 714.403 1236.44 719.826 L 1232.44 724.604 C 1226.12 733.531 1221.76 740.498 1216.16 749.807 L 1213.72 755.761 C 1201.16 758.075 1196.55 758.818 1184.38 754.274 L 1187.14 751.636 C 1190.21 748.592 1193.37 746.159 1194.71 742.198 L 1193.67 741.273 C 1189.43 742.88 1187 746.272 1183.81 749.69 C 1177.72 745.533 1176.54 743.727 1172.04 738.1 C 1174.94 735.352 1177.26 734.053 1176.8 729.891 C 1173.23 730.486 1173.61 731.172 1170.39 734.236 C 1167.73 728.928 1167.94 721.061 1167.86 715.166 C 1172.59 714.959 1176.5 713.989 1180.27 715.829 C 1191.59 719.586 1217.57 711.625 1228.59 707.341 z"/>
<path transform="translate(0,0)" fill="rgb(226,201,182)" d="M 1216.16 749.807 L 1213.72 755.761 C 1201.16 758.075 1196.55 758.818 1184.38 754.274 L 1187.14 751.636 C 1198.46 755.741 1205.76 754.131 1216.16 749.807 z"/>
<path transform="translate(0,0)" fill="rgb(226,201,182)" d="M 1228.59 707.341 L 1232.1 705.926 C 1233.97 711.077 1235.1 714.403 1236.44 719.826 L 1232.44 724.604 C 1231.82 717.309 1231.09 713.992 1228.59 707.341 z"/>
<path transform="translate(0,0)" fill="rgb(213,116,89)" d="M 1167.72 707.788 C 1169.41 704.066 1172.25 691.701 1173.14 687.21 C 1182.02 642.067 1223.54 599.966 1271.33 596.728 C 1265.71 598.98 1260.05 601.134 1254.44 603.415 C 1205.86 623.187 1186.91 666.267 1180.27 715.829 C 1176.5 713.989 1172.59 714.959 1167.86 715.166 L 1167.72 707.788 z"/>
<path transform="translate(0,0)" fill="rgb(57,61,67)" d="M 1160.05 876.309 C 1164.9 871.187 1179.37 853.998 1185.29 853.457 C 1185.51 857.916 1163.2 877.317 1158.77 883.018 C 1147.27 893.887 1091.74 954.478 1082.68 957.164 C 1088.48 946.232 1148.27 888.313 1160.05 876.309 z"/>
<path transform="translate(0,0)" fill="rgb(57,61,67)" d="M 1183.81 749.69 C 1187 746.272 1189.43 742.88 1193.67 741.273 L 1194.71 742.198 C 1193.37 746.159 1190.21 748.592 1187.14 751.636 L 1184.38 754.274 C 1167.35 772.065 1138.41 803.341 1120.78 818.503 L 1119.3 818.585 L 1119.09 818.726 C 1123.94 808.782 1169.64 764.151 1181.09 752.442 L 1183.81 749.69 z"/>
<path transform="translate(0,0)" fill="rgb(57,61,67)" d="M 1299.2 922.736 C 1303.06 918.804 1314.55 905.856 1318.81 905.232 C 1317.31 910.934 1303.32 923.956 1298.66 928.738 C 1293.01 934.316 1278.6 951.63 1272.61 952.184 C 1272.9 948.007 1294.64 927.332 1299.2 922.736 z"/>
<path transform="translate(0,0)" fill="rgb(57,61,67)" d="M 1170.39 734.236 C 1173.61 731.172 1173.23 730.486 1176.8 729.891 C 1177.26 734.053 1174.94 735.352 1172.04 738.1 L 1169.58 740.569 C 1163.97 746.379 1152.03 760.25 1145.45 762.971 L 1144.45 762.458 C 1146.47 757.963 1162.99 741.821 1167.32 737.41 L 1170.39 734.236 z"/>
<path transform="translate(0,0)" fill="rgb(226,201,182)" d="M 1167.32 737.41 C 1167.09 736.744 1166.86 736.075 1166.65 735.403 C 1163.56 725.721 1162.93 717 1167.72 707.788 L 1167.86 715.166 C 1167.94 721.061 1167.73 728.928 1170.39 734.236 L 1167.32 737.41 z"/>
<path transform="translate(0,0)" fill="rgb(226,201,182)" d="M 1169.58 740.569 L 1172.04 738.1 C 1176.54 743.727 1177.72 745.533 1183.81 749.69 L 1181.09 752.442 C 1176.05 749.007 1172.78 745.728 1169.58 740.569 z"/>
<path transform="translate(0,0)" fill="rgb(226,201,182)" d="M 1423.35 745.284 C 1425.99 748.957 1428.45 752.263 1430.74 756.173 L 1427.61 757.874 C 1425.39 754.532 1423.09 751.243 1420.71 748.009 L 1423.35 745.284 z"/>
<path transform="translate(0,0)" fill="rgb(226,201,182)" d="M 931.847 424.486 C 1017.51 418.132 1092.15 482.333 1098.67 567.986 C 1105.2 653.639 1041.15 728.404 955.507 735.099 C 869.626 741.813 794.604 677.54 788.061 591.646 C 781.519 505.752 845.94 430.858 931.847 424.486 z"/>
<path transform="translate(0,0)" fill="rgb(242,230,221)" d="M 929.547 428.479 C 1013.46 420.821 1087.59 482.897 1094.79 566.855 C 1101.98 650.813 1039.5 724.598 955.504 731.331 C 872.16 738.012 799.072 676.118 791.932 592.812 C 784.792 509.507 846.282 436.078 929.547 428.479 z"/>
<path transform="translate(0,0)" fill="rgb(226,201,182)" d="M 930.594 473.477 C 989.64 466.41 1043.14 508.789 1049.78 567.884 C 1056.42 626.979 1013.66 680.173 954.515 686.385 C 895.975 692.533 843.44 650.299 836.868 591.805 C 830.296 533.311 872.149 480.472 930.594 473.477 z"/>
<path transform="translate(0,0)" fill="rgb(242,230,221)" d="M 928.882 477.525 C 985.441 469.528 1037.76 508.943 1045.67 565.513 C 1053.58 622.083 1014.09 674.34 957.506 682.168 C 901.043 689.981 848.92 650.589 841.024 594.137 C 833.128 537.686 872.442 485.504 928.882 477.525 z"/>
<path transform="translate(0,0)" fill="rgb(140,135,93)" d="M 816.929 655.695 C 806.648 643.197 798.362 613.137 796.529 597.046 C 791.953 557.509 803.443 517.791 828.422 486.804 C 855.512 453.321 890.948 436.823 933.138 432.255 L 933.417 468.786 C 916.731 471.165 903.611 474.662 888.746 483.032 C 862.847 497.572 843.837 521.865 835.952 550.501 C 827.906 579.614 832.143 609.165 847.094 635.261 L 816.929 655.695 z"/>
<path transform="translate(0,0)" fill="rgb(226,201,182)" d="M 934.208 432.02 C 939.708 431.971 945.409 432.093 950.927 432.144 C 1030.45 440.08 1083.69 491.958 1091.18 572.062 C 1091.51 576.033 1091.19 584.684 1091.14 589.01 L 1053.92 588.821 C 1054.54 582.583 1054.52 578.171 1054.5 571.922 C 1048.37 515.377 1008.42 473.704 951.129 468.874 L 934.319 469.093 L 934.208 432.02 z"/>
<path transform="translate(0,0)" fill="rgb(254,254,253)" d="M 1054.5 571.922 L 1091.18 572.062 C 1091.51 576.033 1091.19 584.684 1091.14 589.01 L 1053.92 588.821 C 1054.54 582.583 1054.52 578.171 1054.5 571.922 z"/>
<path transform="translate(0,0)" fill="rgb(254,254,253)" d="M 934.208 432.02 C 939.708 431.971 945.409 432.093 950.927 432.144 L 951.129 468.874 L 934.319 469.093 L 934.208 432.02 z"/>
<path transform="translate(0,0)" fill="rgb(226,201,182)" d="M 847.094 635.261 C 849.788 638.931 854.179 645.59 856.486 649.564 C 894.042 692.155 938.395 700.312 990.617 680.986 C 996.499 691.324 1002.9 702.135 1008.32 712.665 C 941.97 742.274 872.568 727.152 826.413 670.426 C 822.375 665.009 819.761 661.843 816.929 655.695 L 847.094 635.261 z"/>
<path transform="translate(0,0)" fill="rgb(254,254,253)" d="M 847.094 635.261 C 849.788 638.931 854.179 645.59 856.486 649.564 C 846.587 656.931 836.461 663.379 826.413 670.426 C 822.375 665.009 819.761 661.843 816.929 655.695 L 847.094 635.261 z"/>
<path transform="translate(0,0)" fill="rgb(226,201,182)" d="M 1054.26 589.643 L 1090.87 590.002 C 1085.3 638.841 1065.21 676.664 1023.44 704.147 C 1018.41 707.16 1013.62 710.14 1008.32 712.665 C 1002.9 702.135 996.499 691.324 990.617 680.986 C 995.2 677.989 1000.78 674.814 1005.54 671.96 C 1029.24 656.605 1046.17 631.162 1052.1 603.641 C 1053.08 599.019 1053.8 594.346 1054.26 589.643 z"/>
<path transform="translate(0,0)" fill="rgb(254,254,253)" d="M 990.617 680.986 C 995.2 677.989 1000.78 674.814 1005.54 671.96 C 1010.52 680.656 1019.52 695.384 1023.44 704.147 C 1018.41 707.16 1013.62 710.14 1008.32 712.665 C 1002.9 702.135 996.499 691.324 990.617 680.986 z"/>
<path transform="translate(0,0)" fill="rgb(226,201,182)" d="M 1577.72 848.395 C 1605.83 848.282 1633.95 848.349 1662.06 848.597 C 1662.78 900.268 1661.54 952.205 1662.19 1003.9 C 1662.34 1015.72 1662.73 1029.41 1661.84 1041.13 L 1577.54 1041.1 C 1577.4 1032.35 1577.37 1023.31 1577.49 1014.56 C 1578.2 959.329 1576.36 903.573 1577.72 848.395 z"/>
<path transform="translate(0,0)" fill="rgb(226,201,182)" d="M 1438.36 891.35 C 1466.55 891.541 1494.75 891.55 1522.94 891.379 L 1522.94 1041.11 L 1438.38 1041.13 C 1436.96 993.895 1438.18 939.21 1438.36 891.35 z"/>
<path transform="translate(0,0)" fill="rgb(226,201,182)" d="M 910.104 857.769 C 935.465 859.215 955.106 876.94 957.887 902.531 C 959.493 916.334 955.323 930.187 946.363 940.809 C 935.011 954.296 922.935 957.525 906.537 958.851 C 875.024 955.885 860.265 937.19 856.827 907.088 L 910.044 907.136 L 910.104 857.769 z"/>
<path transform="translate(0,0)" fill="rgb(213,116,89)" d="M 895.773 819.415 C 898.56 819.244 898.611 819.275 901.366 819.798 C 903.143 823.354 902.249 889.628 902.21 899.351 L 822.75 899.304 L 818.98 899.261 C 817.691 898.007 816.918 897.451 817.112 895.324 C 821.051 851.978 852.6 822.323 895.773 819.415 z"/>
<path transform="translate(0,0)" fill="rgb(57,61,67)" d="M 1148.89 855.761 C 1150.18 856.754 1149.5 856.061 1150.59 858.133 C 1147.93 863.257 1105.22 905.803 1098.74 912.401 L 1097.02 911.835 L 1096.57 910.172 C 1099.55 905.455 1110.19 895.143 1114.63 890.621 L 1148.89 855.761 z"/>
<path transform="translate(0,0)" fill="rgb(242,230,221)" d="M 1042.75 1191.91 L 1569.07 1192.03 L 1700.15 1191.95 C 1707.76 1191.94 1749.53 1191.44 1755.37 1192.67 C 1753.49 1197.98 1751.09 1207.87 1752.86 1213.37 C 1757.39 1213.27 1756.54 1212.63 1759.91 1214.58 C 1765.75 1226.42 1752.66 1253.63 1744.83 1263.57 L 1740.52 1265.73 C 1736.62 1270.02 1734.99 1271.55 1730.47 1275.17 L 1730.17 1275.67 L 1730.1 1279.8 C 1730.38 1292.35 1731.29 1294.08 1725.74 1305.29 L 1725.28 1306.18 C 1725.69 1311.98 1726.91 1319.76 1724.42 1324.78 L 1725.17 1328.15 C 1725.74 1334.99 1726.03 1338.59 1725.72 1345.49 C 1719.22 1355.9 1714.09 1357.82 1703.26 1363.3 C 1703.23 1367.5 1703.38 1376.65 1702.95 1380.54 L 1703.03 1382.92 L 1703.26 1392.35 C 1712.15 1396.39 1723.57 1401.05 1725.39 1411.96 C 1725.72 1416.46 1726.69 1423.96 1724.09 1427.66 L 1724.23 1429.52 C 1726.82 1437.19 1726.4 1445.56 1723.06 1452.93 C 1729.69 1459.22 1731.99 1461.34 1732.18 1471.05 C 1732.13 1474.34 1732.48 1478.58 1730.96 1481.26 L 1731.49 1484.8 C 1732.33 1490.53 1732.03 1496.92 1731.74 1502.74 C 1723.52 1515.38 1711.31 1519.06 1697.61 1523.75 C 1697.43 1527.21 1697.33 1532.09 1696.96 1535.41 L 1697.02 1538.36 C 1697.93 1546.52 1699.52 1554.22 1693.8 1560.99 C 1680.36 1576.89 1642.63 1582.32 1623.68 1584.11 C 1594.93 1586.83 1554.73 1585.75 1527.25 1578.53 C 1515.68 1590.46 1500.9 1601.82 1487.77 1612.35 C 1400.72 1681.08 1299.53 1729.71 1191.47 1754.74 C 1173.68 1758.9 1130.47 1768.49 1114.43 1764.75 L 1113.88 1764.62 C 1108.53 1766.1 1108.73 1766.5 1103.33 1764.76 C 1084.92 1755.14 1072.22 1745.8 1058.32 1730.14 C 1045.21 1715.36 1042.03 1707 1043.16 1687.78 C 1062.44 1700.12 1077.71 1692.34 1093.97 1679.46 C 1109.79 1666.92 1119.15 1656.92 1115.02 1635.64 C 1111.56 1627.67 1101.77 1614.6 1096.43 1607.07 C 1086.51 1593.27 1076.76 1579.35 1067.17 1565.32 L 1080.51 1553.58 C 1059.49 1522.25 1037.17 1491.81 1013.59 1462.36 C 1003.32 1449.54 991.339 1436.52 981.558 1423.69 C 980.441 1418.72 972.099 1410.7 968.388 1406.71 C 973.729 1395.99 975.549 1383.87 973.587 1372.06 C 970.559 1353.37 960.491 1341.51 945.651 1330.98 C 952.393 1331.02 960.574 1331.34 967.079 1330.19 C 968.168 1329.87 969.245 1329.5 970.307 1329.1 C 983.046 1324.17 987.068 1311.14 992.486 1299.27 C 996.9 1290.15 1001.12 1280.93 1005.13 1271.62 L 1006.94 1268.55 C 1011.13 1259.27 1017.35 1244.77 1022.25 1236.07 L 1023.73 1231.91 C 1026.52 1226.78 1029.74 1219.53 1032.33 1214.12 L 1042.75 1191.91 z"/>
<path transform="translate(0,0)" fill="rgb(226,201,182)" d="M 1042.75 1191.91 L 1569.07 1192.03 L 1700.15 1191.95 C 1707.76 1191.94 1749.53 1191.44 1755.37 1192.67 C 1753.49 1197.98 1751.09 1207.87 1752.86 1213.37 C 1757.39 1213.27 1756.54 1212.63 1759.91 1214.58 C 1765.75 1226.42 1752.66 1253.63 1744.83 1263.57 L 1740.52 1265.73 C 1736.62 1270.02 1734.99 1271.55 1730.47 1275.17 L 1730.17 1275.67 L 1730.1 1279.8 C 1730.38 1292.35 1731.29 1294.08 1725.74 1305.29 L 1725.28 1306.18 C 1725.69 1311.98 1726.91 1319.76 1724.42 1324.78 L 1725.17 1328.15 C 1725.74 1334.99 1726.03 1338.59 1725.72 1345.49 C 1719.22 1355.9 1714.09 1357.82 1703.26 1363.3 C 1662.08 1378.38 1552.99 1383.99 1520.18 1350.68 L 1518.06 1347.8 L 1516.72 1344.55 C 1517.34 1336.28 1516.96 1323.11 1516.99 1314.48 C 1516.85 1307.84 1517.43 1305.91 1521.02 1300.29 C 1509.86 1299.18 1487.72 1299.84 1475.57 1299.86 L 1391.38 1299.9 L 1105.45 1299.91 L 1033.78 1299.97 C 1021.62 1299.98 1004.17 1300.49 992.486 1299.27 C 996.9 1290.15 1001.12 1280.93 1005.13 1271.62 L 1006.94 1268.55 C 1011.13 1259.27 1017.35 1244.77 1022.25 1236.07 L 1023.73 1231.91 C 1026.52 1226.78 1029.74 1219.53 1032.33 1214.12 L 1042.75 1191.91 z"/>
<path transform="translate(0,0)" fill="rgb(224,170,99)" d="M 1521.84 1297.27 C 1522.35 1287.65 1521.89 1277.74 1522.46 1267.8 C 1533.03 1279.41 1546.87 1285.33 1562.26 1287.34 C 1615.35 1299.96 1679.56 1303.76 1730.1 1279.8 C 1730.38 1292.35 1731.29 1294.08 1725.74 1305.29 L 1725.28 1306.18 C 1725.69 1311.98 1726.91 1319.76 1724.42 1324.78 L 1725.17 1328.15 C 1725.74 1334.99 1726.03 1338.59 1725.72 1345.49 C 1719.22 1355.9 1714.09 1357.82 1703.26 1363.3 C 1662.08 1378.38 1552.99 1383.99 1520.18 1350.68 L 1518.06 1347.8 L 1516.72 1344.55 C 1517.34 1336.28 1516.96 1323.11 1516.99 1314.48 C 1516.85 1307.84 1517.43 1305.91 1521.02 1300.29 L 1522.33 1299.64 L 1521.84 1297.27 z"/>
<path transform="translate(0,0)" fill="rgb(224,170,99)" d="M 1521.84 1297.27 C 1522.35 1287.65 1521.89 1277.74 1522.46 1267.8 C 1533.03 1279.41 1546.87 1285.33 1562.26 1287.34 C 1615.35 1299.96 1679.56 1303.76 1730.1 1279.8 C 1730.38 1292.35 1731.29 1294.08 1725.74 1305.29 L 1725.28 1306.18 L 1723.98 1305.65 L 1722.63 1306.6 C 1684.46 1333.01 1567.02 1335.1 1530.12 1307.35 L 1527.42 1305.44 C 1525.14 1303.67 1524.12 1301.95 1522.33 1299.64 L 1521.84 1297.27 z"/>
<path transform="translate(0,0)" fill="rgb(239,188,115)" d="M 1530.12 1307.35 C 1567.02 1335.1 1684.46 1333.01 1722.63 1306.6 L 1723.98 1305.65 L 1725.28 1306.18 C 1725.69 1311.98 1726.91 1319.76 1724.42 1324.78 C 1680.39 1344.05 1624.4 1344.47 1577.51 1335.98 C 1559.77 1332.77 1535.28 1326.9 1530.12 1307.35 z"/>
<path transform="translate(0,0)" fill="rgb(254,254,253)" d="M 1527.42 1305.44 L 1530.12 1307.35 C 1535.28 1326.9 1559.77 1332.77 1577.51 1335.98 C 1624.4 1344.47 1680.39 1344.05 1724.42 1324.78 L 1725.17 1328.15 C 1686.1 1347.2 1631.71 1347.53 1588.83 1342.27 C 1581.39 1341.36 1565.22 1337.24 1557.22 1335.41 C 1543.02 1328.27 1526.19 1324.84 1527.42 1305.44 z"/>
<path transform="translate(0,0)" fill="rgb(239,188,115)" d="M 1522.33 1299.64 C 1524.12 1301.95 1525.14 1303.67 1527.42 1305.44 C 1526.19 1324.84 1543.02 1328.27 1557.22 1335.41 C 1542.8 1335.14 1526.05 1325.44 1516.99 1314.48 C 1516.85 1307.84 1517.43 1305.91 1521.02 1300.29 L 1522.33 1299.64 z"/>
<path transform="translate(0,0)" fill="rgb(242,230,221)" d="M 1042.75 1191.91 L 1569.07 1192.03 L 1700.15 1191.95 C 1707.76 1191.94 1749.53 1191.44 1755.37 1192.67 C 1753.49 1197.98 1751.09 1207.87 1752.86 1213.37 C 1748.51 1215.39 1103.32 1214.37 1032.33 1214.12 L 1042.75 1191.91 z"/>
<path transform="translate(0,0)" fill="rgb(239,188,115)" d="M 1556.1 1239.53 C 1567.78 1236.05 1582.36 1231.95 1594.17 1229.85 C 1626.58 1224.09 1733.7 1224.32 1743.98 1260.23 C 1744.29 1261.33 1744.58 1262.45 1744.83 1263.57 L 1740.52 1265.73 C 1736.62 1270.02 1734.99 1271.55 1730.47 1275.17 L 1730.17 1275.67 L 1730.1 1279.8 C 1679.56 1303.76 1615.35 1299.96 1562.26 1287.34 C 1530.23 1273.39 1516.76 1256.79 1556.1 1239.53 z"/>
<path transform="translate(0,0)" fill="rgb(254,254,253)" d="M 1556.1 1239.53 C 1567.78 1236.05 1582.36 1231.95 1594.17 1229.85 C 1626.58 1224.09 1733.7 1224.32 1743.98 1260.23 C 1744.29 1261.33 1744.58 1262.45 1744.83 1263.57 L 1740.52 1265.73 C 1738.99 1249.34 1720.25 1241.78 1705.86 1239.74 C 1661.56 1226.89 1590.27 1227.11 1547.38 1247.45 C 1542.85 1249.8 1538.27 1253.68 1536.9 1258.71 C 1536.06 1261.77 1536.83 1267.17 1538.98 1269.33 C 1567.44 1297.97 1678.62 1298.29 1710.13 1283.34 C 1717.48 1281.46 1723.36 1278.87 1730.17 1275.67 L 1730.1 1279.8 C 1679.56 1303.76 1615.35 1299.96 1562.26 1287.34 C 1530.23 1273.39 1516.76 1256.79 1556.1 1239.53 z"/>
<path transform="translate(0,0)" fill="rgb(226,201,182)" d="M 1705.86 1239.74 C 1720.25 1241.78 1738.99 1249.34 1740.52 1265.73 C 1736.62 1270.02 1734.99 1271.55 1730.47 1275.17 C 1729.94 1272.45 1730 1268.62 1729.92 1265.74 C 1730.26 1248.58 1717.31 1247.92 1705.86 1239.74 z"/>
<path transform="translate(0,0)" fill="rgb(224,170,99)" d="M 1710.13 1283.34 C 1714.44 1278.39 1722.47 1276.79 1729.92 1265.74 C 1730 1268.62 1729.94 1272.45 1730.47 1275.17 L 1730.17 1275.67 C 1723.36 1278.87 1717.48 1281.46 1710.13 1283.34 z"/>
<path transform="translate(0,0)" fill="rgb(226,201,182)" d="M 1006.94 1268.55 C 1011.13 1259.27 1017.35 1244.77 1022.25 1236.07 C 1040.03 1236.47 1058.95 1235.72 1076.35 1236.36 C 1067.32 1275.57 1039.4 1269.46 1006.94 1268.55 z"/>
<path transform="translate(0,0)" fill="rgb(242,230,221)" d="M 1023.73 1231.91 L 1025.17 1232.01 C 1035 1232.67 1073.73 1230.62 1078.7 1234.25 C 1082.18 1251.02 1062.15 1271.59 1046.24 1271.85 C 1039.49 1271.96 1010.67 1273.81 1005.13 1271.62 L 1006.94 1268.55 C 1039.4 1269.46 1067.32 1275.57 1076.35 1236.36 C 1058.95 1235.72 1040.03 1236.47 1022.25 1236.07 L 1023.73 1231.91 z"/>
<path transform="translate(0,0)" fill="rgb(239,188,115)" d="M 1541.98 1242.37 C 1547.27 1240.09 1550.41 1239.04 1556.1 1239.53 C 1516.76 1256.79 1530.23 1273.39 1562.26 1287.34 C 1546.87 1285.33 1533.03 1279.41 1522.46 1267.8 C 1521.89 1277.74 1522.35 1287.65 1521.84 1297.27 C 1520.71 1290.86 1521.06 1282.18 1521.09 1275.48 L 1521.37 1270.6 C 1520.26 1254.38 1525.42 1250.83 1539.31 1243.4 L 1541.98 1242.37 z"/>
<path transform="translate(0,0)" fill="rgb(242,230,221)" d="M 1521.09 1275.48 C 1512.46 1282.67 1483.54 1297.68 1473.58 1290.87 C 1475.77 1287.12 1481.34 1288.59 1486.23 1288.05 C 1500.03 1286.5 1511.16 1279.15 1521.37 1270.6 L 1521.09 1275.48 z"/>
<path transform="translate(0,0)" fill="rgb(242,230,221)" d="M 1539.31 1243.4 C 1538.76 1239.3 1539.88 1225.61 1543.63 1223.24 C 1545.92 1228.06 1543.22 1237.04 1541.98 1242.37 L 1539.31 1243.4 z"/>
<path transform="translate(0,0)" fill="rgb(224,170,99)" d="M 1516.72 1344.55 L 1518.06 1347.8 L 1520.18 1350.68 C 1552.99 1383.99 1662.08 1378.38 1703.26 1363.3 C 1703.23 1367.5 1703.38 1376.65 1702.95 1380.54 L 1703.03 1382.92 L 1703.26 1392.35 C 1712.15 1396.39 1723.57 1401.05 1725.39 1411.96 C 1725.72 1416.46 1726.69 1423.96 1724.09 1427.66 L 1724.23 1429.52 C 1726.82 1437.19 1726.4 1445.56 1723.06 1452.93 C 1729.69 1459.22 1731.99 1461.34 1732.18 1471.05 C 1732.13 1474.34 1732.48 1478.58 1730.96 1481.26 L 1731.49 1484.8 C 1732.33 1490.53 1732.03 1496.92 1731.74 1502.74 C 1723.52 1515.38 1711.31 1519.06 1697.61 1523.75 C 1697.43 1527.21 1697.33 1532.09 1696.96 1535.41 L 1697.02 1538.36 C 1697.93 1546.52 1699.52 1554.22 1693.8 1560.99 C 1680.36 1576.89 1642.63 1582.32 1623.68 1584.11 C 1594.93 1586.83 1554.73 1585.75 1527.25 1578.53 C 1511.81 1573.43 1498.5 1570.2 1488.97 1556.31 C 1488.69 1545.81 1488.59 1535.31 1488.68 1524.8 C 1488.28 1505.5 1507.6 1500.66 1522.86 1495.88 C 1523.25 1488.35 1523.02 1478.76 1523.06 1471.07 C 1522.91 1465.34 1523.27 1464 1525.63 1458.78 C 1512.78 1448.49 1516.4 1433.11 1516.67 1417.93 C 1507.23 1413.51 1499.17 1410.08 1494.82 1400.1 C 1493.37 1392.79 1494.35 1367.46 1495.24 1359.64 C 1501.96 1351.54 1507.12 1348.44 1516.72 1344.55 z"/>
<path transform="translate(0,0)" fill="rgb(224,170,99)" d="M 1516.72 1344.55 L 1518.06 1347.8 L 1520.18 1350.68 C 1552.99 1383.99 1662.08 1378.38 1703.26 1363.3 C 1703.23 1367.5 1703.38 1376.65 1702.95 1380.54 L 1703.03 1382.92 L 1703.26 1392.35 C 1712.15 1396.39 1723.57 1401.05 1725.39 1411.96 C 1725.72 1416.46 1726.69 1423.96 1724.09 1427.66 L 1724.23 1429.52 C 1726.82 1437.19 1726.4 1445.56 1723.06 1452.93 C 1685.59 1485.93 1579.83 1483.17 1536.65 1464.48 L 1534.58 1463.53 L 1525.63 1458.78 C 1512.78 1448.49 1516.4 1433.11 1516.67 1417.93 C 1507.23 1413.51 1499.17 1410.08 1494.82 1400.1 C 1493.37 1392.79 1494.35 1367.46 1495.24 1359.64 C 1501.96 1351.54 1507.12 1348.44 1516.72 1344.55 z"/>
<path transform="translate(0,0)" fill="rgb(239,188,115)" d="M 1520.18 1350.68 C 1552.99 1383.99 1662.08 1378.38 1703.26 1363.3 C 1703.23 1367.5 1703.38 1376.65 1702.95 1380.54 C 1700.03 1380.05 1699.05 1380.81 1696.29 1382.08 C 1686.99 1386.35 1675.12 1389.34 1664.85 1391.27 C 1641.24 1395.69 1615.76 1397.2 1591.28 1395.5 C 1566 1392.81 1531.69 1390.63 1512.18 1372.84 C 1503.57 1364.99 1513.88 1355.42 1520.18 1350.68 z"/>
<path transform="translate(0,0)" fill="rgb(239,188,115)" d="M 1703.26 1392.35 C 1712.15 1396.39 1723.57 1401.05 1725.39 1411.96 C 1725.72 1416.46 1726.69 1423.96 1724.09 1427.66 C 1718.99 1429.63 1713.99 1431.62 1708.76 1433.27 C 1706.33 1434.63 1692.65 1438.09 1689.83 1438.67 C 1648.96 1447.07 1574.24 1447.03 1539.08 1424.62 C 1573.55 1430.84 1700.03 1439.84 1703.26 1392.35 z"/>
<path transform="translate(0,0)" fill="rgb(224,170,99)" d="M 1725.39 1411.96 C 1725.72 1416.46 1726.69 1423.96 1724.09 1427.66 C 1718.99 1429.63 1713.99 1431.62 1708.76 1433.27 C 1713.54 1424.95 1723.7 1426.36 1725.39 1411.96 z"/>
<path transform="translate(0,0)" fill="rgb(254,254,253)" d="M 1518.06 1347.8 L 1520.18 1350.68 C 1513.88 1355.42 1503.57 1364.99 1512.18 1372.84 C 1531.69 1390.63 1566 1392.81 1591.28 1395.5 C 1615.76 1397.2 1641.24 1395.69 1664.85 1391.27 C 1675.12 1389.34 1686.99 1386.35 1696.29 1382.08 C 1699.05 1380.81 1700.03 1380.05 1702.95 1380.54 L 1703.03 1382.92 C 1656.28 1405.04 1587.74 1403.67 1538.4 1391.3 C 1516.3 1382.97 1487.92 1369.94 1518.06 1347.8 z"/>
<path transform="translate(0,0)" fill="rgb(254,254,253)" d="M 1531.69 1422.66 L 1539.08 1424.62 C 1574.24 1447.03 1648.96 1447.07 1689.83 1438.67 C 1692.65 1438.09 1706.33 1434.63 1708.76 1433.27 C 1713.99 1431.62 1718.99 1429.63 1724.09 1427.66 L 1724.23 1429.52 C 1721.11 1434.2 1710.95 1436.99 1705.61 1438.5 C 1663.31 1450.51 1616.97 1450.39 1573.98 1442 C 1570.32 1441.29 1564.86 1439.69 1561.35 1439.28 C 1550.88 1435.32 1538.91 1431.5 1531.69 1422.66 z"/>
<path transform="translate(0,0)" fill="rgb(239,188,115)" d="M 1516.72 1344.55 L 1518.06 1347.8 C 1487.92 1369.94 1516.3 1382.97 1538.4 1391.3 C 1523.56 1389.87 1505.24 1382.11 1495.31 1370.55 C 1495.29 1378.9 1495.64 1392.17 1494.82 1400.1 C 1493.37 1392.79 1494.35 1367.46 1495.24 1359.64 C 1501.96 1351.54 1507.12 1348.44 1516.72 1344.55 z"/>
<path transform="translate(0,0)" fill="rgb(239,188,115)" d="M 1561.35 1439.28 C 1548.14 1439.17 1527.77 1429.96 1519.49 1419.58 C 1523.58 1420.52 1527.65 1421.55 1531.69 1422.66 C 1538.91 1431.5 1550.88 1435.32 1561.35 1439.28 z"/>
<path transform="translate(0,0)" fill="rgb(224,170,99)" d="M 1723.06 1452.93 C 1729.69 1459.22 1731.99 1461.34 1732.18 1471.05 C 1732.13 1474.34 1732.48 1478.58 1730.96 1481.26 L 1731.49 1484.8 C 1732.33 1490.53 1732.03 1496.92 1731.74 1502.74 C 1723.52 1515.38 1711.31 1519.06 1697.61 1523.75 C 1697.43 1527.21 1697.33 1532.09 1696.96 1535.41 C 1693.75 1535.16 1693.84 1535.4 1690.8 1536.68 L 1689.15 1536.2 C 1691.98 1533.16 1696.11 1533.86 1696.33 1526.72 C 1695.89 1526.12 1695.45 1525.51 1695.01 1524.91 C 1687.98 1525.77 1680.95 1527.31 1673.98 1528.43 C 1649.34 1532.38 1623.92 1532.95 1599.08 1530.8 C 1581.12 1529.24 1562.65 1526.1 1545.73 1519.82 C 1538.35 1517.08 1525.98 1510.24 1523.99 1502.08 L 1523.1 1498.81 L 1522.86 1495.88 C 1523.25 1488.35 1523.02 1478.76 1523.06 1471.07 C 1522.91 1465.34 1523.27 1464 1525.63 1458.78 L 1534.58 1463.53 L 1536.65 1464.48 C 1579.83 1483.17 1685.59 1485.93 1723.06 1452.93 z"/>
<path transform="translate(0,0)" fill="rgb(239,188,115)" d="M 1723.06 1452.93 C 1729.69 1459.22 1731.99 1461.34 1732.18 1471.05 C 1732.13 1474.34 1732.48 1478.58 1730.96 1481.26 C 1725.27 1482.83 1721.18 1485.73 1715.74 1486.82 C 1712.1 1488.39 1708.33 1489.66 1704.47 1490.61 C 1663.25 1501.17 1587.47 1501.78 1548.91 1480.84 C 1541.31 1476.71 1538.57 1472.44 1536.65 1464.48 C 1579.83 1483.17 1685.59 1485.93 1723.06 1452.93 z"/>
<path transform="translate(0,0)" fill="rgb(224,170,99)" d="M 1715.74 1486.82 L 1715.58 1486.05 C 1717.03 1484.28 1728.47 1474.77 1732.18 1471.05 C 1732.13 1474.34 1732.48 1478.58 1730.96 1481.26 C 1725.27 1482.83 1721.18 1485.73 1715.74 1486.82 z"/>
<path transform="translate(0,0)" fill="rgb(254,254,253)" d="M 1534.58 1463.53 L 1536.65 1464.48 C 1538.57 1472.44 1541.31 1476.71 1548.91 1480.84 C 1587.47 1501.78 1663.25 1501.17 1704.47 1490.61 C 1708.33 1489.66 1712.1 1488.39 1715.74 1486.82 C 1721.18 1485.73 1725.27 1482.83 1730.96 1481.26 L 1731.49 1484.8 C 1682.3 1507.5 1616.42 1505.02 1564.5 1492.34 C 1553.87 1487.89 1528.71 1478.67 1534.58 1463.53 z"/>
<path transform="translate(0,0)" fill="rgb(239,188,115)" d="M 1525.63 1458.78 L 1534.58 1463.53 C 1528.71 1478.67 1553.87 1487.89 1564.5 1492.34 C 1550.36 1491.5 1531.52 1482.46 1523.06 1471.07 C 1522.91 1465.34 1523.27 1464 1525.63 1458.78 z"/>
<path transform="translate(0,0)" fill="rgb(239,188,115)" d="M 1488.68 1524.8 C 1488.28 1505.5 1507.6 1500.66 1522.86 1495.88 L 1523.1 1498.81 L 1523.99 1502.08 C 1525.98 1510.24 1538.35 1517.08 1545.73 1519.82 C 1562.65 1526.1 1581.12 1529.24 1599.08 1530.8 C 1623.92 1532.95 1649.34 1532.38 1673.98 1528.43 C 1680.95 1527.31 1687.98 1525.77 1695.01 1524.91 C 1695.45 1525.51 1695.89 1526.12 1696.33 1526.72 C 1696.11 1533.86 1691.98 1533.16 1689.15 1536.2 L 1690.8 1536.68 C 1693.84 1535.4 1693.75 1535.16 1696.96 1535.41 L 1697.02 1538.36 C 1650.4 1559.41 1581.3 1559.53 1532.18 1546.18 C 1516.02 1545.42 1499.44 1536.78 1488.68 1524.8 z"/>
<path transform="translate(0,0)" fill="rgb(254,254,253)" d="M 1488.68 1524.8 C 1488.28 1505.5 1507.6 1500.66 1522.86 1495.88 L 1523.1 1498.81 C 1521.57 1505.93 1507.77 1508.19 1505.2 1513.57 C 1492.35 1540.38 1561.62 1548.25 1572.53 1549.41 C 1602.5 1552.61 1666.09 1551.72 1690.8 1536.68 C 1693.84 1535.4 1693.75 1535.16 1696.96 1535.41 L 1697.02 1538.36 C 1650.4 1559.41 1581.3 1559.53 1532.18 1546.18 C 1516.02 1545.42 1499.44 1536.78 1488.68 1524.8 z"/>
<path transform="translate(0,0)" fill="rgb(239,188,115)" d="M 1488.68 1524.8 C 1488.28 1505.5 1507.6 1500.66 1522.86 1495.88 L 1523.1 1498.81 C 1517.71 1499.9 1503.96 1506.54 1501.44 1511.4 C 1491.34 1530.84 1519.64 1541.62 1532.18 1546.18 C 1516.02 1545.42 1499.44 1536.78 1488.68 1524.8 z"/>
<path transform="translate(0,0)" fill="rgb(57,61,67)" d="M 1115.02 1635.64 C 1163.62 1611.14 1211.48 1605.91 1263.7 1623.26 C 1268.48 1624.83 1273.2 1626.55 1277.85 1628.44 C 1243.97 1664.44 1216.2 1690.7 1176.63 1721.08 C 1166.72 1728.67 1156.54 1735.9 1146.12 1742.75 C 1141.57 1745.78 1116.12 1761.97 1113.88 1764.62 C 1108.53 1766.1 1108.73 1766.5 1103.33 1764.76 C 1084.92 1755.14 1072.22 1745.8 1058.32 1730.14 C 1045.21 1715.36 1042.03 1707 1043.16 1687.78 C 1062.44 1700.12 1077.71 1692.34 1093.97 1679.46 C 1109.79 1666.92 1119.15 1656.92 1115.02 1635.64 z"/>
<path transform="translate(0,0)" fill="rgb(224,170,99)" d="M 1281.33 1400 L 1282.71 1399.99 C 1332.41 1399.17 1407.67 1372.2 1442.85 1336.09 L 1448.67 1353.84 C 1444.01 1368.37 1436.35 1374.64 1424.64 1383.5 C 1446.9 1387.13 1502.18 1405.77 1461.96 1431.35 C 1461.97 1437.29 1462.14 1444.19 1461.9 1450.04 C 1455.81 1458.01 1450.93 1461.49 1441.75 1465.64 L 1441.91 1480.29 C 1442.17 1480.13 1442.44 1479.96 1442.7 1479.79 C 1450.48 1475.5 1450.36 1469.51 1453.02 1461.76 C 1453.54 1461.79 1454.05 1461.83 1454.56 1461.86 C 1459.76 1473.25 1449.97 1480.44 1440.96 1485.43 C 1442.37 1491.49 1442.93 1501.48 1438.82 1506.55 C 1452.89 1517.36 1450.35 1527.02 1436.95 1536.75 L 1433.72 1538.99 C 1434.33 1544.1 1434.04 1551.51 1434.01 1556.81 C 1410.31 1596.16 1264.64 1593.75 1231.34 1563.83 C 1223.19 1556.5 1225.61 1536.07 1225.73 1525.63 C 1225.66 1515.21 1227.73 1513.56 1234.99 1506.59 C 1231.9 1498.44 1232.99 1482.65 1233.13 1473.35 C 1232.03 1457.5 1241.32 1453.84 1253.76 1447.33 C 1253.84 1420.88 1251.73 1420.58 1242.15 1395.07 C 1253.83 1400.21 1268.78 1404.22 1281.33 1400 z"/>
<path transform="translate(0,0)" fill="rgb(224,170,99)" d="M 1281.33 1400 L 1282.71 1399.99 C 1332.41 1399.17 1407.67 1372.2 1442.85 1336.09 L 1448.67 1353.84 C 1444.01 1368.37 1436.35 1374.64 1424.64 1383.5 C 1446.9 1387.13 1502.18 1405.77 1461.96 1431.35 C 1461.97 1437.29 1462.14 1444.19 1461.9 1450.04 C 1455.81 1458.01 1450.93 1461.49 1441.75 1465.64 C 1408.8 1478.1 1367.64 1480.67 1332.62 1477.94 C 1310.92 1476.24 1271.71 1471.01 1256.65 1453.42 L 1254.95 1451.49 L 1253.76 1447.33 C 1253.84 1420.88 1251.73 1420.58 1242.15 1395.07 C 1253.83 1400.21 1268.78 1404.22 1281.33 1400 z"/>
<path transform="translate(0,0)" fill="rgb(239,188,115)" d="M 1420.14 1386.63 L 1424.64 1383.5 C 1446.9 1387.13 1502.18 1405.77 1461.96 1431.35 C 1423.39 1451.52 1364.71 1450.78 1321.88 1444.97 C 1314.61 1443.98 1286.76 1437.94 1282.36 1432.81 L 1283.81 1431.92 L 1283.9 1433.27 L 1285.19 1431.84 L 1288.37 1432.26 C 1331.26 1429.92 1384.78 1410.36 1420.14 1386.63 z"/>
<path transform="translate(0,0)" fill="url(#Gradient2)" d="M 1420.14 1386.63 L 1424.64 1383.5 C 1446.9 1387.13 1502.18 1405.77 1461.96 1431.35 C 1423.39 1451.52 1364.71 1450.78 1321.88 1444.97 C 1314.61 1443.98 1286.76 1437.94 1282.36 1432.81 L 1283.81 1431.92 L 1283.9 1433.27 L 1285.19 1431.84 L 1288.37 1432.26 C 1301.74 1436.41 1312.54 1439.14 1326.46 1441.49 C 1354.29 1446.18 1415.33 1446.19 1441.12 1435.35 C 1448.36 1433.87 1455.43 1430.49 1462.05 1427.32 L 1462.13 1418.02 C 1462.12 1399.67 1446.22 1395.43 1431.47 1389.9 C 1427.68 1388.88 1423.9 1387.79 1420.14 1386.63 z"/>
<path transform="translate(0,0)" fill="rgb(242,230,221)" d="M 1431.47 1389.9 C 1448.94 1391.28 1490.61 1406.83 1462.05 1427.32 L 1462.13 1418.02 C 1462.12 1399.67 1446.22 1395.43 1431.47 1389.9 z"/>
<path transform="translate(0,0)" fill="rgb(224,170,99)" d="M 1462.13 1418.02 L 1462.05 1427.32 C 1455.43 1430.49 1448.36 1433.87 1441.12 1435.35 C 1444.18 1431.25 1453.74 1428.82 1462.13 1418.02 z"/>
<path transform="translate(0,0)" fill="rgb(224,170,99)" d="M 1233.13 1473.35 C 1232.03 1457.5 1241.32 1453.84 1253.76 1447.33 L 1254.95 1451.49 L 1256.65 1453.42 C 1271.71 1471.01 1310.92 1476.24 1332.62 1477.94 C 1367.64 1480.67 1408.8 1478.1 1441.75 1465.64 L 1441.91 1480.29 C 1442.17 1480.13 1442.44 1479.96 1442.7 1479.79 C 1450.48 1475.5 1450.36 1469.51 1453.02 1461.76 C 1453.54 1461.79 1454.05 1461.83 1454.56 1461.86 C 1459.76 1473.25 1449.97 1480.44 1440.96 1485.43 C 1442.37 1491.49 1442.93 1501.48 1438.82 1506.55 L 1437.5 1509.26 L 1432.23 1513.27 C 1390 1539.61 1284.07 1538.81 1242.41 1513.19 L 1240.65 1511.84 C 1238.55 1510.44 1236.81 1508.42 1234.99 1506.59 C 1231.9 1498.44 1232.99 1482.65 1233.13 1473.35 z"/>
<path transform="translate(0,0)" fill="rgb(239,188,115)" d="M 1233.13 1473.35 C 1232.03 1457.5 1241.32 1453.84 1253.76 1447.33 L 1254.95 1451.49 L 1256.65 1453.42 C 1271.71 1471.01 1310.92 1476.24 1332.62 1477.94 C 1367.64 1480.67 1408.8 1478.1 1441.75 1465.64 L 1441.91 1480.29 C 1442.17 1480.13 1442.44 1479.96 1442.7 1479.79 C 1450.48 1475.5 1450.36 1469.51 1453.02 1461.76 C 1453.54 1461.79 1454.05 1461.83 1454.56 1461.86 C 1459.76 1473.25 1449.97 1480.44 1440.96 1485.43 C 1394.24 1508.57 1329.2 1504.04 1279.47 1494.2 C 1265.46 1493.66 1247.37 1485.44 1236.91 1475.94 C 1234.72 1473.95 1236.29 1474.42 1233.13 1473.35 z"/>
<path transform="translate(0,0)" fill="rgb(254,254,253)" d="M 1233.13 1473.35 C 1232.03 1457.5 1241.32 1453.84 1253.76 1447.33 L 1254.95 1451.49 L 1256.65 1453.42 C 1250.8 1460.2 1241.46 1469.92 1254.24 1478.41 C 1288.1 1500.92 1386.08 1505.12 1423.09 1488.39 C 1429.45 1486.56 1436.3 1484.52 1441.41 1480.21 L 1441.91 1480.29 C 1442.17 1480.13 1442.44 1479.96 1442.7 1479.79 C 1450.48 1475.5 1450.36 1469.51 1453.02 1461.76 C 1453.54 1461.79 1454.05 1461.83 1454.56 1461.86 C 1459.76 1473.25 1449.97 1480.44 1440.96 1485.43 C 1394.24 1508.57 1329.2 1504.04 1279.47 1494.2 C 1265.46 1493.66 1247.37 1485.44 1236.91 1475.94 C 1234.72 1473.95 1236.29 1474.42 1233.13 1473.35 z"/>
<path transform="translate(0,0)" fill="rgb(239,188,115)" d="M 1233.13 1473.35 C 1232.03 1457.5 1241.32 1453.84 1253.76 1447.33 L 1254.95 1451.49 C 1225.39 1473.1 1260.08 1487.4 1279.47 1494.2 C 1265.46 1493.66 1247.37 1485.44 1236.91 1475.94 C 1234.72 1473.95 1236.29 1474.42 1233.13 1473.35 z"/>
<path transform="translate(0,0)" fill="rgb(224,170,99)" d="M 1423.09 1488.39 C 1423.63 1487.56 1440.22 1474.31 1440.59 1474.22 L 1441.41 1480.21 C 1436.3 1484.52 1429.45 1486.56 1423.09 1488.39 z"/>
<path transform="translate(0,0)" fill="rgb(239,188,115)" d="M 1234.99 1506.59 C 1236.81 1508.42 1238.55 1510.44 1240.65 1511.84 L 1242.41 1513.19 C 1284.07 1538.81 1390 1539.61 1432.23 1513.27 L 1437.5 1509.26 L 1438.82 1506.55 C 1452.89 1517.36 1450.35 1527.02 1436.95 1536.75 L 1433.72 1538.99 C 1394.09 1558.31 1339.08 1558.46 1295.7 1552.72 C 1287.41 1551.62 1275.24 1548.1 1266.44 1546.35 C 1252.18 1546.09 1234.74 1536.5 1225.73 1525.63 C 1225.66 1515.21 1227.73 1513.56 1234.99 1506.59 z"/>
<path transform="translate(0,0)" fill="rgb(254,254,253)" d="M 1234.99 1506.59 C 1236.81 1508.42 1238.55 1510.44 1240.65 1511.84 L 1242.41 1513.19 C 1236.37 1530.45 1251.12 1536.46 1265.35 1541.24 C 1306.02 1554.9 1397.85 1558.3 1434.29 1534.3 L 1435.35 1534.36 L 1436.95 1536.75 L 1433.72 1538.99 C 1394.09 1558.31 1339.08 1558.46 1295.7 1552.72 C 1287.41 1551.62 1275.24 1548.1 1266.44 1546.35 C 1252.18 1546.09 1234.74 1536.5 1225.73 1525.63 C 1225.66 1515.21 1227.73 1513.56 1234.99 1506.59 z"/>
<path transform="translate(0,0)" fill="rgb(239,188,115)" d="M 1234.99 1506.59 C 1236.81 1508.42 1238.55 1510.44 1240.65 1511.84 C 1220.94 1525.58 1257.11 1541.97 1266.44 1546.35 C 1252.18 1546.09 1234.74 1536.5 1225.73 1525.63 C 1225.66 1515.21 1227.73 1513.56 1234.99 1506.59 z"/>
<path transform="translate(0,0)" fill="rgb(242,230,221)" d="M 1438.82 1506.55 C 1452.89 1517.36 1450.35 1527.02 1436.95 1536.75 L 1435.35 1534.36 L 1434.29 1534.3 C 1434.25 1526.47 1434.58 1520.78 1432.23 1513.27 L 1437.5 1509.26 L 1438.82 1506.55 z"/>
<path transform="translate(0,0)" fill="rgb(254,254,253)" d="M 1438.82 1506.55 C 1452.89 1517.36 1450.35 1527.02 1436.95 1536.75 L 1435.35 1534.36 C 1445.13 1524.84 1448.65 1519.8 1437.5 1509.26 L 1438.82 1506.55 z"/>
<path transform="translate(0,0)" fill="rgb(239,188,115)" d="M 1427.26 1344.68 C 1392.34 1374.81 1313.31 1400.37 1267.35 1394.11 C 1258.26 1392.88 1249.31 1385.26 1254.92 1376.18 C 1271.84 1348.74 1312.36 1331.24 1341.73 1320.67 C 1366.65 1311.7 1402.54 1301.58 1427.87 1311.36 C 1434.63 1314.53 1436.32 1318.44 1438.48 1324.95 C 1442.59 1335.97 1435.8 1338.15 1427.26 1344.68 z"/>
<path transform="translate(0,0)" fill="rgb(224,170,99)" d="M 1427.26 1344.68 C 1427.74 1341.81 1435.72 1330.82 1438.48 1324.95 C 1442.59 1335.97 1435.8 1338.15 1427.26 1344.68 z"/>
<path transform="translate(0,0)" fill="url(#Gradient1)" d="M 1242.15 1395.07 C 1234.39 1375.95 1254.66 1361.1 1269.38 1352.9 C 1261.98 1360.08 1250.18 1370.45 1249.76 1381.52 C 1249.65 1385.32 1251.19 1388.99 1253.97 1391.59 C 1260.86 1398.1 1272.3 1399.02 1281.33 1400 C 1268.78 1404.22 1253.83 1400.21 1242.15 1395.07 z"/>
<path transform="translate(0,0)" fill="rgb(140,135,93)" d="M 594.079 1099 C 604.968 1092.14 612.466 1088.99 625.166 1086.17 C 632.068 1084.64 672.352 1082.95 676.01 1085.4 C 672.638 1088.87 673.472 1086.92 672.666 1091.08 C 677.933 1107.77 730.811 1118.37 743.631 1105.82 C 747.19 1095.91 730.973 1099.24 740.087 1085.54 C 749.655 1086.56 755.825 1088.43 764.209 1093.31 C 777.72 1102.29 789.437 1116.08 801.07 1127.87 L 848.438 1175.14 C 845.278 1179.82 835.683 1192.37 836.216 1196.92 C 841.344 1202.39 838.627 1211.55 854.69 1225.37 L 875.565 1181 L 924.727 1181.02 L 1047.74 1181.03 L 1042.75 1191.91 L 1032.33 1214.12 C 1029.74 1219.53 1026.52 1226.78 1023.73 1231.91 L 1022.25 1236.07 C 1017.35 1244.77 1011.13 1259.27 1006.94 1268.55 L 1005.13 1271.62 C 1001.12 1280.93 996.9 1290.15 992.486 1299.27 C 987.068 1311.14 983.046 1324.17 970.307 1329.1 C 969.245 1329.5 968.168 1329.87 967.079 1330.19 C 960.574 1331.34 952.393 1331.02 945.651 1330.98 C 960.491 1341.51 970.559 1353.37 973.587 1372.06 C 975.549 1383.87 973.729 1395.99 968.388 1406.71 C 972.099 1410.7 980.441 1418.72 981.558 1423.69 C 991.339 1436.52 1003.32 1449.54 1013.59 1462.36 C 1037.17 1491.81 1059.49 1522.25 1080.51 1553.58 L 1067.17 1565.32 C 1076.76 1579.35 1086.51 1593.27 1096.43 1607.07 C 1101.77 1614.6 1111.56 1627.67 1115.02 1635.64 C 1119.15 1656.92 1109.79 1666.92 1093.97 1679.46 C 1077.71 1692.34 1062.44 1700.12 1043.16 1687.78 C 1042.03 1707 1045.21 1715.36 1058.32 1730.14 C 1072.22 1745.8 1084.92 1755.14 1103.33 1764.76 C 1093.09 1770.69 1077.77 1771.12 1065.97 1771.8 C 994.423 1775.96 921.031 1769.65 851.264 1753.18 C 842.872 1751.19 831.859 1748.2 823.427 1747.72 C 823.857 1752.76 824.72 1753.26 822.91 1757.18 C 821.523 1757.99 820.551 1758.59 818.86 1758.61 C 751.53 1759.3 688.195 1734.67 637.56 1690.62 C 629.281 1683.42 621.163 1675.78 613.056 1667.97 C 615.402 1663.31 617.736 1659.53 619.783 1654.62 C 621.108 1653.59 626.352 1647.6 628.083 1645.85 C 637.183 1636.65 658.559 1615.76 671.949 1615.53 C 671.819 1615.65 677.543 1606.44 678.382 1605.21 C 686.824 1592.92 695.454 1580.76 704.272 1568.74 L 684.614 1556.85 C 687.234 1552.33 689.829 1547.8 692.399 1543.25 C 695.819 1538.98 714.569 1505.03 718.485 1498.14 L 702.559 1498.12 L 625.123 1498.18 C 579.755 1498.2 542.258 1503.35 505.656 1470.15 C 487.236 1453.44 472.1 1426.37 470.849 1401.29 C 461.464 1399.78 450.631 1397.34 441.196 1395.46 L 441.481 1392.98 C 449.796 1374 460.657 1352.7 469.724 1333.88 L 519.955 1229.27 L 553.19 1160.08 C 566.538 1132.35 569.699 1118.8 594.079 1099 z"/>
<path transform="translate(0,0)" fill="rgb(254,254,253)" d="M 594.079 1099 C 604.968 1092.14 612.466 1088.99 625.166 1086.17 C 632.068 1084.64 672.352 1082.95 676.01 1085.4 C 672.638 1088.87 673.472 1086.92 672.666 1091.08 C 677.933 1107.77 730.811 1118.37 743.631 1105.82 C 747.19 1095.91 730.973 1099.24 740.087 1085.54 C 749.655 1086.56 755.825 1088.43 764.209 1093.31 C 777.72 1102.29 789.437 1116.08 801.07 1127.87 L 848.438 1175.14 C 845.278 1179.82 835.683 1192.37 836.216 1196.92 C 841.344 1202.39 838.627 1211.55 854.69 1225.37 L 837.275 1262.79 C 833.788 1270.15 816.234 1306.13 814.659 1311.78 L 812.258 1315.52 L 811.333 1315.61 C 795.16 1317.07 711.185 1313.66 703.489 1316.64 C 702.774 1326.42 711.33 1329.69 719.174 1330.96 L 734.526 1330.78 C 675.764 1415.89 562.758 1417.02 470.849 1401.29 C 461.464 1399.78 450.631 1397.34 441.196 1395.46 L 441.481 1392.98 C 449.796 1374 460.657 1352.7 469.724 1333.88 L 519.955 1229.27 L 553.19 1160.08 C 566.538 1132.35 569.699 1118.8 594.079 1099 z"/>
<path transform="translate(0,0)" fill="rgb(225,161,143)" d="M 539.714 1221.16 C 560.817 1221.2 583.61 1221.66 604.579 1220.91 C 609.128 1224.58 644.143 1223.06 652.695 1223.03 C 650.074 1228.85 635.914 1250.43 648.735 1252.19 C 660.093 1253.75 674.536 1253.06 686.219 1253.04 L 764.449 1252.96 C 777.396 1252.98 791.14 1252.77 804.019 1253.13 C 818.807 1255.95 823.779 1256.86 837.275 1262.79 C 833.788 1270.15 816.234 1306.13 814.659 1311.78 L 812.258 1315.52 L 811.333 1315.61 C 795.16 1317.07 711.185 1313.66 703.489 1316.64 C 702.774 1326.42 711.33 1329.69 719.174 1330.96 C 672.132 1329.59 624.322 1331.5 577.224 1330.95 C 565.265 1330.82 555.821 1330.32 544.801 1324.69 C 532.41 1318.42 523.232 1307.22 519.517 1293.84 C 512.487 1269.36 527.767 1242.69 539.714 1221.16 z"/>
<path transform="translate(0,0)" fill="rgb(254,254,253)" d="M 812.258 1315.52 C 793.514 1313.44 712.75 1317.79 703.493 1312.98 C 712.161 1309.99 800.416 1311.75 814.659 1311.78 L 812.258 1315.52 z"/>
<path transform="translate(0,0)" fill="rgb(226,201,182)" d="M 774.553 1224.08 C 784.766 1233.53 794.085 1243.46 804.019 1253.13 C 791.14 1252.77 777.396 1252.98 764.449 1252.96 C 767.471 1243.21 771.054 1233.67 774.553 1224.08 z"/>
<path transform="translate(0,0)" fill="rgb(57,61,67)" d="M 662.255 1219.63 C 668.222 1205.23 690.868 1146.8 697.835 1138.75 L 698.964 1138.29 C 697.933 1144.25 689.695 1163.02 686.786 1169.96 C 679.461 1187.44 672.312 1205.72 664.792 1223.08 L 652.695 1223.03 C 644.143 1223.06 609.128 1224.58 604.579 1220.91 C 612.634 1218.27 651.135 1219.62 662.255 1219.63 z"/>
<path transform="translate(0,0)" fill="rgb(242,230,221)" d="M 800.494 1626.53 C 820.305 1601.17 841.12 1572.57 861.33 1547.97 C 869.124 1556.76 895.931 1587.27 905.034 1591.82 C 908.553 1593.62 927.013 1611.31 931.379 1615.18 C 944.797 1627.08 958.548 1638.6 972.614 1649.72 C 975.886 1646.81 979.568 1643.35 982.905 1640.61 C 1001.08 1656.43 1023.75 1673.09 1043.16 1687.78 C 1042.03 1707 1045.21 1715.36 1058.32 1730.14 C 1072.22 1745.8 1084.92 1755.14 1103.33 1764.76 C 1093.09 1770.69 1077.77 1771.12 1065.97 1771.8 C 994.423 1775.96 921.031 1769.65 851.264 1753.18 C 842.872 1751.19 831.859 1748.2 823.427 1747.72 C 823.857 1752.76 824.72 1753.26 822.91 1757.18 C 821.523 1757.99 820.551 1758.59 818.86 1758.61 C 751.53 1759.3 688.195 1734.67 637.56 1690.62 C 629.281 1683.42 621.163 1675.78 613.056 1667.97 C 615.402 1663.31 617.736 1659.53 619.783 1654.62 C 621.108 1653.59 626.352 1647.6 628.083 1645.85 C 637.183 1636.65 658.559 1615.76 671.949 1615.53 C 671.819 1615.65 677.543 1606.44 678.382 1605.21 C 686.824 1592.92 695.454 1580.76 704.272 1568.74 L 786.163 1618.05 L 800.494 1626.53 z"/>
<path transform="translate(0,0)" fill="rgb(57,61,67)" d="M 704.272 1568.74 L 786.163 1618.05 C 779.652 1624.58 759.4 1643.58 754.962 1649.08 C 783.498 1668.45 804.028 1688.94 816.344 1722.05 C 819.98 1731.82 820.764 1739.47 823.427 1747.72 C 823.857 1752.76 824.72 1753.26 822.91 1757.18 C 821.523 1757.99 820.551 1758.59 818.86 1758.61 C 751.53 1759.3 688.195 1734.67 637.56 1690.62 C 629.281 1683.42 621.163 1675.78 613.056 1667.97 C 615.402 1663.31 617.736 1659.53 619.783 1654.62 C 621.108 1653.59 626.352 1647.6 628.083 1645.85 C 637.183 1636.65 658.559 1615.76 671.949 1615.53 C 671.819 1615.65 677.543 1606.44 678.382 1605.21 C 686.824 1592.92 695.454 1580.76 704.272 1568.74 z"/>
<path transform="translate(0,0)" fill="rgb(225,161,143)" d="M 704.272 1568.74 L 786.163 1618.05 C 779.652 1624.58 759.4 1643.58 754.962 1649.08 C 752.54 1651.13 748.242 1655.63 745.689 1658.05 C 738.707 1664.69 731.867 1668.15 721.877 1667.43 C 707.633 1666.39 687.999 1656.1 678.518 1645.38 C 670.462 1636.27 670.853 1626.78 671.949 1615.53 C 671.819 1615.65 677.543 1606.44 678.382 1605.21 C 686.824 1592.92 695.454 1580.76 704.272 1568.74 z"/>
<path transform="translate(0,0)" fill="rgb(57,61,67)" d="M 924.727 1181.02 L 1047.74 1181.03 L 1042.75 1191.91 L 1032.33 1214.12 C 1029.74 1219.53 1026.52 1226.78 1023.73 1231.91 L 1022.25 1236.07 C 1017.35 1244.77 1011.13 1259.27 1006.94 1268.55 L 1005.13 1271.62 C 1001.12 1280.93 996.9 1290.15 992.486 1299.27 C 987.068 1311.14 983.046 1324.17 970.307 1329.1 C 969.245 1329.5 968.168 1329.87 967.079 1330.19 C 960.574 1331.34 952.393 1331.02 945.651 1330.98 C 960.491 1341.51 970.559 1353.37 973.587 1372.06 C 975.549 1383.87 973.729 1395.99 968.388 1406.71 C 972.099 1410.7 980.441 1418.72 981.558 1423.69 C 976.741 1423.38 962.415 1405.59 958.032 1400.76 C 947.536 1389.14 936.72 1377.81 925.596 1366.78 C 911.61 1352.86 891.696 1337.39 872.357 1332.05 C 864.014 1329.74 832.505 1330.65 822.496 1330.66 L 734.526 1330.78 L 719.174 1330.96 C 711.33 1329.69 702.774 1326.42 703.489 1316.64 C 711.185 1313.66 795.16 1317.07 811.333 1315.61 L 812.258 1315.52 L 814.659 1311.78 C 816.234 1306.13 833.788 1270.15 837.275 1262.79 L 854.69 1225.37 L 875.565 1181 L 924.727 1181.02 z"/>
<path transform="translate(0,0)" fill="rgb(140,135,93)" d="M 881.168 1330.75 C 908.099 1330.76 941.052 1329.42 967.079 1330.19 C 960.574 1331.34 952.393 1331.02 945.651 1330.98 C 960.491 1341.51 970.559 1353.37 973.587 1372.06 C 975.549 1383.87 973.729 1395.99 968.388 1406.71 C 939.786 1374.13 919.671 1350.53 881.168 1330.75 z"/>
<path transform="translate(0,0)" fill="rgb(242,230,221)" d="M 932.706 1238.53 C 936.101 1237.03 940.043 1237.46 943.027 1239.67 C 946.012 1241.88 947.579 1245.52 947.131 1249.21 C 946.683 1252.89 944.289 1256.06 940.862 1257.49 C 935.643 1259.66 929.645 1257.24 927.41 1252.04 C 925.175 1246.85 927.537 1240.82 932.706 1238.53 z"/>
<path transform="translate(0,0)" fill="rgb(225,161,143)" d="M 982.905 1640.61 C 990.347 1633.04 1003.36 1622.27 1011.86 1614.73 L 1067.17 1565.32 C 1076.76 1579.35 1086.51 1593.27 1096.43 1607.07 C 1101.77 1614.6 1111.56 1627.67 1115.02 1635.64 C 1119.15 1656.92 1109.79 1666.92 1093.97 1679.46 C 1077.71 1692.34 1062.44 1700.12 1043.16 1687.78 C 1023.75 1673.09 1001.08 1656.43 982.905 1640.61 z"/>
<path transform="translate(0,0)" fill="rgb(57,61,67)" d="M 861.33 1547.97 C 850.659 1536.29 840.968 1523.6 831.735 1510.91 C 826.561 1503.79 821.45 1499.94 812.538 1499.81 C 792.953 1499.53 773.098 1500.21 753.489 1500.17 C 746.486 1500.15 739.754 1500.24 733.113 1498.16 L 733.158 1497.84 L 734.185 1498.2 C 734.574 1497.95 734.952 1497.69 735.353 1497.47 C 740.05 1494.84 815.184 1495.17 822.986 1497.62 C 825.292 1498.34 826.366 1499.46 827.984 1501.17 C 828.402 1501.61 828.831 1502.03 829.251 1502.47 C 838.088 1511.7 845.248 1522.78 853.331 1532.68 C 866.362 1548.41 880.126 1563.52 894.578 1577.96 C 899.03 1582.44 905.089 1586.29 905.034 1591.82 C 895.931 1587.27 869.124 1556.76 861.33 1547.97 z"/>
<path transform="translate(0,0)" fill="rgb(254,254,253)" d="M 381.203 462.814 C 391.532 454.391 402.742 447.111 414.638 441.103 C 458.261 419.341 512.015 414.228 558.38 429.815 L 557.587 430.759 L 554.685 431.609 L 555.488 433.705 C 587.35 444.94 611.148 459.709 634.188 484.8 L 637.163 482.508 L 650.803 471.029 L 659.739 482.171 L 646.189 493.26 C 657.981 508.267 667.296 525.063 673.783 543.013 C 685.374 576.913 688.021 608.474 681.471 643.936 C 680.14 651.145 676.285 662.665 674.212 670.05 C 654.515 717.84 621.386 758.207 572.189 777.688 L 572.183 773.196 L 572.179 755.848 L 426.621 755.941 L 426.793 773.12 C 418.475 772.087 396.761 757.12 389.737 751.988 C 371.573 738.718 357.453 721.233 344.598 703.012 L 342.712 706.957 C 342.572 706.818 342.432 706.68 342.291 706.541 C 319.854 673.067 309.908 627.523 314.165 588.53 C 319.098 536.098 342.129 497.005 381.203 462.814 z"/>
<path transform="translate(0,0)" fill="rgb(239,188,115)" d="M 454.413 703.336 C 442.916 697.481 433.497 691.487 424.078 682.473 C 403.569 662.754 391.754 635.681 391.242 607.235 C 390.917 578.554 401.967 550.913 421.975 530.361 C 441.911 509.93 469.181 498.307 497.726 498.076 C 529.214 497.91 554.821 510.083 576.815 532.008 C 571.224 536.642 564.013 542.98 558.257 547.124 C 561.279 550.877 564.651 555.449 568.212 558.568 C 571.057 554.804 581.771 546.461 585.923 543.038 C 603.227 569.216 609.415 595.955 603.429 627.121 C 597.618 657.377 574.255 690.413 544.856 701.597 C 539.003 715.407 531.897 731.089 526.581 744.924 L 524.985 747.02 C 524.287 746.932 523.044 746.846 522.459 746.612 C 520.849 746.29 479.29 746.632 476.697 746.809 C 476.343 747.016 474.867 747.262 474.387 747.362 L 472.368 744.958 C 467.076 732.079 460.502 715.605 454.413 703.336 z"/>
<path transform="translate(0,0)" fill="rgb(254,254,253)" d="M 550.781 568.133 C 557.304 576.608 561.606 589.044 562.629 599.634 C 564.217 616.415 559.016 633.133 548.188 646.051 C 537.036 659.532 520.896 667.915 503.454 669.286 C 486.654 670.696 469.98 665.393 457.081 654.536 C 394.314 600.729 472.33 496.46 545.985 561.557 L 550.321 557.342 L 556.103 564.271 L 550.781 568.133 z"/>
<path transform="translate(0,0)" fill="rgb(213,116,89)" d="M 522.457 588.742 C 540.382 618.715 505.422 648.128 479.548 627.1 C 474.011 622.605 470.514 616.071 469.845 608.971 C 469.044 600.992 471.501 593.028 476.657 586.888 C 481.562 580.946 488.664 577.246 496.344 576.632 C 506.191 575.837 512.809 579.62 519.981 585.65 C 516.518 588.961 507.194 597.496 504.597 600.758 C 511.286 596.956 516.216 593.279 522.457 588.742 z"/>
<path transform="translate(0,0)" fill="rgb(57,61,67)" d="M 550.321 557.342 L 556.103 564.271 L 550.781 568.133 L 522.457 588.742 C 516.216 593.279 511.286 596.956 504.597 600.758 C 507.194 597.496 516.518 588.961 519.981 585.65 L 545.985 561.557 L 550.321 557.342 z"/>
<path transform="translate(0,0)" fill="rgb(254,254,253)" d="M 460.252 706.827 C 464.081 705.828 474.172 710.354 480.208 711.222 C 492.984 713.059 502.537 712.704 515.217 711.507 C 521.553 710.908 535.249 705.073 538.846 706.189 C 536.094 712.52 523.233 741.39 522.459 746.612 C 520.849 746.29 479.29 746.632 476.697 746.809 C 475.227 740.529 463.489 714.334 460.252 706.827 z"/>
<path transform="translate(0,0)" fill="rgb(57,61,67)" d="M 538.846 706.189 C 552.654 675.968 565.467 639.126 580.282 610.083 L 581.818 609.611 L 582.066 607.278 L 581.228 608.458 L 582.102 608.633 C 580.546 620.905 551.775 685.328 544.856 701.597 C 539.003 715.407 531.897 731.089 526.581 744.924 L 524.985 747.02 C 524.287 746.932 523.044 746.846 522.459 746.612 C 523.233 741.39 536.094 712.52 538.846 706.189 z"/>
<path transform="translate(0,0)" fill="rgb(57,61,67)" d="M 454.413 703.336 C 449.872 691.844 415.084 614.226 416.56 608.733 C 420.808 611.76 454.518 693.429 460.252 706.827 C 463.489 714.334 475.227 740.529 476.697 746.809 C 476.343 747.016 474.867 747.262 474.387 747.362 L 472.368 744.958 C 467.076 732.079 460.502 715.605 454.413 703.336 z"/>
<path transform="translate(0,0)" fill="rgb(213,116,89)" d="M 551.525 548.872 C 553.618 546.886 553.533 546.768 556.122 545.619 L 558.257 547.124 C 561.279 550.877 564.651 555.449 568.212 558.568 L 568.438 560.961 C 567.073 562.454 566.13 563.483 564.663 564.887 L 560.685 567.606 C 557.288 566.907 558.938 567.613 556.103 564.271 L 550.321 557.342 L 547.793 553.963 C 548.007 551.018 548.515 551.562 551.525 548.872 z"/>
<path transform="translate(0,0)" fill="rgb(254,254,253)" d="M 551.525 548.872 C 553.618 546.886 553.533 546.768 556.122 545.619 L 558.257 547.124 C 561.279 550.877 564.651 555.449 568.212 558.568 L 568.438 560.961 C 567.073 562.454 566.13 563.483 564.663 564.887 L 551.525 548.872 z"/>
<path transform="translate(0,0)" fill="rgb(254,254,253)" d="M 472.368 744.958 C 444.72 739.067 422.099 728.245 401.299 708.694 C 373.703 682.77 357.622 646.886 356.638 609.036 C 355.535 571.41 369.538 534.908 395.523 507.674 C 421.53 480.05 457.587 464.095 495.521 463.424 C 540.549 462.549 572.241 479.478 603.709 509.669 C 594.883 517.28 585.917 524.727 576.815 532.008 C 554.821 510.083 529.214 497.91 497.726 498.076 C 469.181 498.307 441.911 509.93 421.975 530.361 C 401.967 550.913 390.917 578.554 391.242 607.235 C 391.754 635.681 403.569 662.754 424.078 682.473 C 433.497 691.487 442.916 697.481 454.413 703.336 C 460.502 715.605 467.076 732.079 472.368 744.958 z"/>
<path transform="translate(0,0)" fill="rgb(254,254,253)" d="M 612.875 521.245 C 635.982 554.792 645.575 590.611 638.211 631.23 C 631.353 668.309 610.008 701.128 578.895 722.432 C 561.902 734.098 546.364 739.994 526.581 744.924 C 531.897 731.089 539.003 715.407 544.856 701.597 C 574.255 690.413 597.618 657.377 603.429 627.121 C 609.415 595.955 603.227 569.216 585.923 543.038 C 594.76 535.595 603.746 528.329 612.875 521.245 z"/>
<path transform="translate(0,0)" fill="rgb(213,116,89)" d="M 615.797 518.813 C 634.406 545.079 644.197 572.895 644.168 605.294 C 644.306 644.328 628.711 681.772 600.906 709.169 C 573.306 736.479 535.904 751.577 497.079 751.082 C 458.421 750.788 421.491 735.023 394.539 707.308 C 367.093 679.424 352.072 641.638 352.885 602.521 C 353.5 563.917 369.518 527.159 397.375 500.426 C 457.97 442.084 549.493 447.404 606.71 507.682 L 603.709 509.669 C 572.241 479.478 540.549 462.549 495.521 463.424 C 457.587 464.095 421.53 480.05 395.523 507.674 C 369.538 534.908 355.535 571.41 356.638 609.036 C 357.622 646.886 373.703 682.77 401.299 708.694 C 422.099 728.245 444.72 739.067 472.368 744.958 L 474.387 747.362 C 474.867 747.262 476.343 747.016 476.697 746.809 C 479.29 746.632 520.849 746.29 522.459 746.612 C 523.044 746.846 524.287 746.932 524.985 747.02 L 526.581 744.924 C 546.364 739.994 561.902 734.098 578.895 722.432 C 610.008 701.128 631.353 668.309 638.211 631.23 C 645.575 590.611 635.982 554.792 612.875 521.245 L 615.797 518.813 z"/>
<path transform="translate(0,0)" fill="rgb(213,116,89)" d="M 381.203 462.814 C 391.532 454.391 402.742 447.111 414.638 441.103 C 458.261 419.341 512.015 414.228 558.38 429.815 L 557.587 430.759 L 554.685 431.609 L 555.488 433.705 C 491.459 415.645 433.664 425.634 381.653 468.259 C 343.533 502.329 325.008 538.013 318.073 588.623 C 315.816 635.755 321.674 661.459 344.598 703.012 L 342.712 706.957 C 342.572 706.818 342.432 706.68 342.291 706.541 C 319.854 673.067 309.908 627.523 314.165 588.53 C 319.098 536.098 342.129 497.005 381.203 462.814 z"/>
<path transform="translate(0,0)" fill="rgb(140,135,93)" d="M 637.163 482.508 L 650.803 471.029 L 659.739 482.171 L 646.189 493.26 L 643.422 495.467 C 636.707 501.181 621.317 513.249 615.797 518.813 L 612.875 521.245 C 603.746 528.329 594.76 535.595 585.923 543.038 C 581.771 546.461 571.057 554.804 568.212 558.568 C 564.651 555.449 561.279 550.877 558.257 547.124 C 564.013 542.98 571.224 536.642 576.815 532.008 C 585.917 524.727 594.883 517.28 603.709 509.669 L 606.71 507.682 C 613.921 500.901 626.228 491.352 634.188 484.8 L 637.163 482.508 z"/>
<path transform="translate(0,0)" fill="rgb(213,116,89)" d="M 646.189 493.26 C 657.981 508.267 667.296 525.063 673.783 543.013 C 685.374 576.913 688.021 608.474 681.471 643.936 C 680.14 651.145 676.285 662.665 674.212 670.05 C 654.515 717.84 621.386 758.207 572.189 777.688 L 572.183 773.196 C 580.255 771.161 595.539 761.539 602.399 756.754 C 642.843 728.985 670.359 686.059 678.703 637.715 C 687.876 584.505 674.003 538.7 643.422 495.467 L 646.189 493.26 z"/>
<path transform="translate(0,0)" fill="rgb(242,230,221)" d="M 674.212 670.05 C 676.73 674.599 675.896 708.2 675.9 715.645 L 675.914 786.884 L 675.897 1007.94 C 675.902 1019.21 674.667 1078.67 677.019 1085.58 L 676.01 1085.4 C 672.352 1082.95 632.068 1084.64 625.166 1086.17 C 612.466 1088.99 604.968 1092.14 594.079 1099 C 604.293 1050.25 616.103 1001.9 626.398 953.037 C 577.565 952.827 527.948 952.366 479.167 952.894 L 289.014 952.794 L 289.074 1085.02 C 289.076 1094.62 290.242 1152.72 287.212 1157.98 C 280.505 1131.46 277.833 1097.95 275.997 1070.45 C 269.832 974.247 282.3 877.761 312.717 786.289 C 321.531 759.92 332.814 733.759 343.013 707.811 L 342.712 706.957 L 344.598 703.012 C 357.453 721.233 371.573 738.718 389.737 751.988 C 396.761 757.12 418.475 772.087 426.793 773.12 L 426.621 755.941 L 572.179 755.848 L 572.183 773.196 L 572.189 777.688 C 621.386 758.207 654.515 717.84 674.212 670.05 z"/>
<path transform="translate(0,0)" fill="rgb(57,61,67)" d="M 426.621 755.941 L 572.179 755.848 L 572.183 773.196 L 572.189 777.688 C 572.552 814.624 578.722 852.145 551.494 879.791 C 537.762 893.679 519.017 901.453 499.487 901.358 C 479.983 901.382 461.288 893.569 447.601 879.674 C 419.594 851.206 427.395 815.422 426.73 777.972 L 426.793 773.12 L 426.621 755.941 z"/>
<path transform="translate(0,0)" fill="rgb(242,230,221)" d="M 430.181 759.521 L 568.716 759.229 L 568.835 775.305 L 568.875 779.686 L 568.87 808.909 C 552.73 823.747 445.109 824.595 430.378 808.928 C 429.293 804.476 430.129 781.267 430.321 775.31 L 430.181 759.521 z"/>
<path transform="translate(0,0)" fill="rgb(254,254,253)" d="M 430.181 759.521 L 568.716 759.229 L 568.835 775.305 C 519.592 793.819 479.324 793.123 430.321 775.31 L 430.181 759.521 z"/>
<path transform="translate(0,0)" fill="rgb(213,116,89)" d="M 430.321 775.31 C 479.324 793.123 519.592 793.819 568.835 775.305 L 568.875 779.686 C 559.304 782.091 548.715 786.427 539.415 788.386 C 503.983 795.85 464.325 793.199 430.72 779.431 C 430.73 785.378 431.125 803.791 430.378 808.928 C 429.293 804.476 430.129 781.267 430.321 775.31 z"/>
<path transform="translate(0,0)" fill="rgb(242,230,221)" d="M 432.829 847.493 C 459.807 858.017 537.706 856.579 566.132 847.641 C 562.567 859.089 558.181 866.271 550.561 875.228 C 542.918 883.253 534.581 889.194 524.207 893.196 C 507.113 899.784 488.093 899.255 471.392 891.727 C 451.011 882.533 440.386 867.782 432.829 847.493 z"/>
<path transform="translate(0,0)" fill="rgb(242,230,221)" d="M 430.384 814.853 C 453.986 827.592 544.417 826.052 568.809 814.742 C 568.843 824.73 568.957 831.174 567.712 841.025 C 563.26 845.591 557.029 846.542 550.972 847.615 C 531.966 850.979 447.192 854.88 434.354 843.317 C 428.399 837.953 430.322 822.424 430.384 814.853 z"/>
<path transform="translate(0,0)" fill="rgb(213,116,89)" d="M 344.598 703.012 C 357.453 721.233 371.573 738.718 389.737 751.988 C 396.761 757.12 418.475 772.087 426.793 773.12 L 426.73 777.972 C 387.399 759.72 368.311 741.894 343.013 707.811 L 342.712 706.957 L 344.598 703.012 z"/>
<path transform="translate(0,0)" fill="rgb(224,170,99)" d="M 479.167 952.894 C 527.948 952.366 577.565 952.827 626.398 953.037 C 616.103 1001.9 604.293 1050.25 594.079 1099 C 569.699 1118.8 566.538 1132.35 553.19 1160.08 L 519.955 1229.27 L 469.724 1333.88 C 460.657 1352.7 449.796 1374 441.481 1392.98 C 430.762 1375.4 431.538 1297.12 432.463 1274.31 C 436.853 1166.01 457.122 1058.76 479.167 952.894 z"/>
<path transform="translate(0,0)" fill="rgb(224,170,99)" d="M 441.196 1395.46 C 450.631 1397.34 461.464 1399.78 470.849 1401.29 C 472.1 1426.37 487.236 1453.44 505.656 1470.15 C 542.258 1503.35 579.755 1498.2 625.123 1498.18 L 702.559 1498.12 C 696.382 1498.9 686.086 1505.82 679.692 1508.81 C 624.375 1534.69 557.98 1535.81 507.596 1497.91 C 482.907 1479.33 461.439 1451.35 449.89 1422.06 C 446.37 1413.14 442.684 1405.47 441.196 1395.46 z"/>
<path transform="translate(0,0)" fill="rgb(242,230,221)" d="M 555.776 1608.74 C 614.308 1597.48 647.686 1583.29 691.017 1542.85 L 692.399 1543.25 C 689.829 1547.8 687.234 1552.33 684.614 1556.85 L 704.272 1568.74 C 695.454 1580.76 686.824 1592.92 678.382 1605.21 C 677.543 1606.44 671.819 1615.65 671.949 1615.53 C 658.559 1615.76 637.183 1636.65 628.083 1645.85 C 626.352 1647.6 621.108 1653.59 619.783 1654.62 C 602.762 1645.54 570.196 1621.62 555.776 1608.74 z"/>
<path transform="translate(0,0)" fill="rgb(116,82,81)" d="M 510.052 1610.45 L 513.775 1610.78 C 513.557 1634.19 513.87 1658.04 513.833 1681.52 C 531.52 1683.08 596.415 1692.51 580.972 1727.38 C 579.701 1730.25 575.015 1734.5 571.753 1735.2 C 571.643 1731.6 580.008 1724.6 579.936 1719.17 C 579.6 1693.61 530.787 1686.85 513.724 1684.43 C 513.831 1692.14 514.901 1713.03 512.271 1719.21 L 511.054 1719.1 C 509.306 1715.71 510.049 1621.91 510.052 1610.45 z"/>
<path transform="translate(0,0)" fill="rgb(116,82,81)" d="M 486.576 1608.51 L 490.216 1609.07 L 490.156 1673.6 C 490.179 1686.43 491.377 1707.56 488.405 1719.06 L 488.398 1718.42 L 487.408 1717.59 C 484.766 1688.78 486.92 1639.26 486.576 1608.51 z"/>
<path transform="translate(0,0)" fill="rgb(116,82,81)" d="M 550.419 1744.17 L 551.905 1744.61 L 552.366 1746.02 C 550.251 1748.11 544.457 1749.62 541.454 1750.37 C 516.977 1756.49 492 1756.16 467.217 1752.23 L 464.692 1751.28 L 464.723 1749.77 C 469.69 1748.84 484.366 1751.04 490.589 1751.3 C 512.822 1752.22 529.276 1750.29 550.419 1744.17 z"/>
<path transform="translate(0,0)" fill="rgb(116,82,81)" d="M 427.955 1698.64 L 429.382 1699.32 C 429.759 1704 420.107 1709.42 419.408 1717.3 C 418.07 1732.36 439.072 1736.16 444.253 1744.21 C 431.874 1744.03 415.826 1730.8 416.839 1717.48 C 417.571 1707.86 421.295 1704.6 427.955 1698.64 z"/>
<path transform="translate(0,0)" fill="rgb(116,82,81)" d="M 478.353 1682.36 C 481.399 1681.77 482.951 1681.45 485.169 1683.68 C 481.52 1685.38 466.7 1687.46 461.731 1688.37 L 455.593 1689.58 L 455.743 1689.29 L 453.606 1689.14 L 454.268 1687.83 C 464.779 1683.93 467.24 1683.81 478.353 1682.36 z"/>
</svg>