<svg version="1.1" xmlns="http://www.w3.org/2000/svg" style="display: block;" viewBox="0 0 2048 2048" width="2000" height="2000" preserveAspectRatio="none">
<defs>
	<linearGradient id="Gradient1" gradientUnits="userSpaceOnUse" x1="225.117" y1="710.51" x2="235.769" y2="713.627">
		<stop class="stop0" offset="0" stop-opacity="0.913725" stop-color="rgb(182,117,100)"/>
		<stop class="stop1" offset="1" stop-opacity="1" stop-color="rgb(226,100,80)"/>
	</linearGradient>
	<linearGradient id="Gradient2" gradientUnits="userSpaceOnUse" x1="1368.92" y1="723.745" x2="1005.12" y2="839.811">
		<stop class="stop0" offset="0" stop-opacity="0.694118" stop-color="rgb(235,233,232)"/>
		<stop class="stop1" offset="1" stop-opacity="0.886275" stop-color="rgb(255,255,255)"/>
	</linearGradient>
</defs>
<path transform="translate(0,0)" fill="rgb(239,225,203)" d="M 1072.23 152.893 C 1084.46 133.972 1093.81 121.432 1117 116.052 C 1152.75 107.76 1186.59 127.341 1193.85 163.938 C 1195.03 169.869 1195.77 181.875 1194.11 187.628 C 1209.23 189.306 1226.13 193.895 1240.81 197.987 C 1332.3 223.48 1419 267.473 1496.5 322.064 C 1505.42 328.349 1535.78 348.985 1539.34 358.45 C 1558.11 352.425 1565.5 350.601 1585.01 347.857 C 1585.02 327.513 1584.37 308.075 1591.41 288.79 C 1605.9 249.072 1640.07 223.205 1682.93 224.104 C 1733.41 225.163 1763.44 257.561 1777.76 303.117 C 1798.52 296.677 1813.8 292.563 1836.06 293.619 C 1872.46 295.345 1905.66 316.728 1926.28 346.238 C 1950.65 376.518 1965.73 431.288 1962.88 469.904 C 1891.68 471.217 1817.07 469.988 1745.51 469.921 L 1693.5 469.787 C 1683.52 469.697 1668.66 468.857 1659.21 470.176 C 1666.53 477.831 1676.98 493.464 1683.28 502.652 C 1721.42 558.534 1752.34 619.01 1775.32 682.643 C 1778.76 691.941 1787.22 712.526 1786.08 721.808 C 1787.52 724.278 1788.37 726.106 1790.49 728.051 C 1795.05 733.603 1797.44 753.185 1799.58 761.564 C 1814.32 819.267 1817.91 875.921 1820.64 935.08 C 1821.58 955.288 1819.44 988.985 1821.5 1007.24 L 1820.84 1008.94 C 1818.21 1015.64 1813.32 1024.39 1810.27 1031.46 C 1803.34 1047.5 1799.71 1060.3 1796.2 1077.23 C 1793.86 1081.26 1791.32 1083.32 1788.92 1087.01 C 1799.06 1093.85 1813 1097.14 1821.33 1105.81 C 1822.25 1106.76 1823.33 1111.74 1823.72 1113.4 C 1828.73 1117.47 1846.39 1118.38 1852.93 1118.06 L 1854.43 1120.8 C 1849.93 1125.16 1834.86 1132.16 1828.39 1136.34 C 1816.54 1144 1805.51 1151.63 1794.12 1160.02 C 1798.11 1178.54 1767.65 1265.27 1755.65 1282.57 C 1782.92 1280.89 1830.04 1274.14 1858.04 1270.18 C 1863.35 1278.3 1869.58 1287.13 1873.57 1295.93 C 1875.59 1300.36 1874.95 1305.42 1876.9 1309.05 C 1879.52 1313.9 1886.7 1319.1 1889.45 1323.62 L 1889.01 1324.65 C 1867.91 1326.49 1841.1 1335.16 1820.1 1340.95 L 1737.7 1363.41 L 1698.42 1373.54 L 1697.49 1378.93 C 1694.01 1444.19 1670.73 1517.18 1626.43 1566.25 C 1608.37 1586.33 1590.75 1604.62 1568.92 1620.8 C 1542.44 1608.3 1490.13 1580.54 1467.11 1562.71 C 1461.75 1572.28 1452.51 1581.25 1444.87 1589.28 C 1432.23 1589.53 1420.29 1588.12 1407.53 1590.5 C 1365.37 1598.37 1349.62 1617.31 1326.48 1649.32 C 1318.2 1642.58 1312.86 1635.08 1303.36 1628.81 C 1289.9 1642.15 1283.48 1657.17 1271.36 1670.96 C 1250.86 1660.14 1217.96 1633.5 1191.34 1629.4 C 1183.79 1628.24 1164.84 1650.39 1157.9 1657.19 C 1151.37 1648.04 1145.8 1637.03 1138.1 1629.06 C 1103.53 1593.27 1048.27 1594.01 1013.12 1628.76 C 985.238 1656.32 982.752 1681.56 981.935 1718.45 C 967.26 1719.26 950.273 1716.37 935.556 1715.34 C 775.888 1704.15 627.538 1637.55 502.489 1539.57 C 490.989 1530.56 468.344 1516 461.955 1503.03 L 461.35 1502.03 L 455.819 1503.04 C 453.193 1506.04 416.697 1518.38 410.028 1520.75 C 404.615 1509.42 398.714 1493.51 393.892 1481.51 C 385.359 1460.52 376.978 1439.47 368.751 1418.36 C 364.008 1419.17 357.479 1420.37 354.081 1416.84 C 345.387 1407.81 318.874 1366.73 317.432 1357.46 C 297.022 1350.64 273.355 1346.3 252.251 1339.04 L 269.759 1272.46 C 271.919 1264.27 276.952 1247.37 277.923 1239.99 L 276.626 1239.2 C 272.285 1233.86 267.146 1219.09 264.629 1211.98 C 178.31 968.116 227.277 663.824 394.87 466.636 C 535.094 302.037 734.81 199.686 950.315 181.981 C 948.817 164.791 954.226 147.713 965.347 134.521 C 976.287 121.801 990.341 115.927 1006.73 114.63 C 1037.81 112.17 1057.13 127.23 1072.23 152.893 z M 1212.72 623.135 C 1211.64 627.894 1211.01 628.421 1206.19 630.377 C 1203.45 636.942 1198.72 647.809 1196.69 654.253 C 1191.26 666.575 1186.41 678.212 1180.71 690.557 C 1169.96 713.834 1151.57 736.52 1162.09 762.953 C 1166.25 773.377 1169.39 774.536 1172.91 781.074 C 1177.07 786.143 1178.54 787.989 1183.82 792.161 C 1194.7 800.768 1213.28 805.128 1217.86 818.856 L 1219.34 820.785 C 1226.48 819.634 1226.47 820.123 1233.15 820.111 L 1233.49 821.781 C 1236.63 805.658 1238.95 783.263 1241.13 766.636 C 1245.02 735.128 1249.27 703.666 1253.87 672.255 C 1254.92 664.729 1257.01 639.258 1259.72 633.978 L 1261.53 633.136 C 1263.9 635.15 1262.42 643.672 1262 646.836 C 1253.25 712.079 1246.43 778.277 1236.3 843.274 C 1197.8 869.096 1156.01 889.131 1114.5 909.771 C 1093.77 920.079 1061.24 936.747 1039.7 942.435 L 1036.6 944.134 C 1036.56 945.357 1053.07 980.151 1054.97 985.765 C 1069.04 986.229 1124.81 969.591 1140.79 965.569 C 1138.61 963.547 1117.88 970.594 1112.84 970.796 C 1107.82 970.998 1107.95 971.089 1102.51 970.146 C 1125.15 967.612 1132.57 964.151 1152.62 958.651 C 1179.52 951.276 1203.9 944.528 1230.25 935.155 C 1240.36 931.557 1277.61 913.598 1284.3 913.256 L 1300.66 904.581 C 1314.16 893.51 1315.74 887.732 1320.76 871.556 C 1341.97 863.501 1372.62 851.813 1394.48 846.275 C 1395.63 845.574 1396.85 844.886 1397.86 843.966 C 1408.6 834.094 1383.97 777.325 1384.86 757.662 L 1384.14 757.426 C 1379.39 751.432 1377.94 738.403 1375.58 730.633 C 1362.74 688.415 1357.79 627.767 1323.37 597.824 C 1309.75 585.97 1291.25 580.05 1276.41 570.713 L 1275.38 570.053 C 1262.84 582.795 1249.77 595.008 1236.21 606.659 C 1229.69 611.303 1218.48 618.594 1212.72 623.135 z M 312.876 966.398 C 302.82 967.646 298.324 967.911 288.257 967.777 C 288.959 970.492 290.045 974.253 290.556 976.909 C 288.596 982.463 284.57 990.876 286.566 995.961 C 289.587 996.101 288.207 996.08 291.606 993.719 C 297.565 988.689 319.188 972.066 320.501 966.633 C 317.066 965.232 317.144 965.889 312.876 966.398 z M 1193.77 863.1 L 1194.81 862.55 C 1197.67 859.086 1198.1 858.641 1199.75 854.485 L 1200.23 853.268 C 1201.98 848.892 1202.8 847.527 1199.45 843.674 C 1191.25 843.529 1190.17 850.813 1189.5 857.263 C 1190.59 861.098 1189.89 861.312 1193.77 863.1 z M 694.187 1547.59 C 698.802 1546.65 706.622 1546.61 711.552 1546.42 L 715.339 1538.03 C 714.519 1532.81 714.269 1531.36 709.134 1528.55 L 707.158 1529.1 C 704.16 1534.71 704.768 1538.67 701.236 1542.5 C 687.659 1544.5 643.643 1504.8 631.54 1512.52 C 632.576 1515.98 635.27 1518.28 638.466 1519.55 C 653.49 1525.55 679.589 1545.96 694.187 1547.59 z"/>
<path transform="translate(0,0)" fill="url(#Gradient2)" d="M 1256.88 591.868 C 1266.52 589.078 1270.7 589.534 1280.67 589.395 C 1284.9 592.031 1300.37 601.119 1303.17 604.032 C 1315.91 617.289 1329.89 638.53 1334.39 656.696 C 1338.51 669.223 1336.01 685.125 1340.7 696.876 C 1344.62 706.723 1357.36 714.475 1363.75 723.557 C 1368.14 729.809 1374.96 760.883 1383.2 758.573 L 1384.14 757.426 L 1384.86 757.662 C 1383.97 777.325 1408.6 834.094 1397.86 843.966 C 1396.85 844.886 1395.63 845.574 1394.48 846.275 C 1372.62 851.813 1341.97 863.501 1320.76 871.556 C 1315.74 887.732 1314.16 893.51 1300.66 904.581 L 1284.3 913.256 C 1277.61 913.598 1240.36 931.557 1230.25 935.155 C 1203.9 944.528 1179.52 951.276 1152.62 958.651 C 1132.57 964.151 1125.15 967.612 1102.51 970.146 C 1107.95 971.089 1107.82 970.998 1112.84 970.796 C 1117.88 970.594 1138.61 963.547 1140.79 965.569 C 1124.81 969.591 1069.04 986.229 1054.97 985.765 C 1053.07 980.151 1036.56 945.357 1036.6 944.134 L 1039.7 942.435 C 1061.24 936.747 1093.77 920.079 1114.5 909.771 C 1156.01 889.131 1197.8 869.096 1236.3 843.274 C 1246.43 778.277 1253.25 712.079 1262 646.836 C 1262.42 643.672 1263.9 635.15 1261.53 633.136 L 1259.72 633.978 C 1257.01 639.258 1254.92 664.729 1253.87 672.255 C 1249.27 703.666 1245.02 735.128 1241.13 766.636 C 1238.95 783.263 1236.63 805.658 1233.49 821.781 L 1233.15 820.111 C 1226.47 820.123 1226.48 819.634 1219.34 820.785 L 1217.86 818.856 C 1213.28 805.128 1194.7 800.768 1183.82 792.161 C 1178.54 787.989 1177.07 786.143 1172.91 781.074 C 1173.11 776.737 1174.49 776.992 1176.08 773.702 C 1183.16 759.035 1153.84 752.802 1163.56 739.772 L 1166.48 739.917 C 1169.82 736.188 1169 729.518 1171.81 725.043 C 1178.76 713.998 1194.38 698.138 1189.83 683.787 C 1187.14 675.329 1194.56 664.613 1197.75 655.564 L 1196.69 654.253 C 1198.72 647.809 1203.45 636.942 1206.19 630.377 C 1211.01 628.421 1211.64 627.894 1212.72 623.135 C 1218.48 618.594 1229.69 611.303 1236.21 606.659 C 1245.54 610.546 1250.48 597.599 1256.88 591.868 z"/>
<path transform="translate(0,0)" fill="rgb(189,192,192)" fill-opacity="0.670588" d="M 1275.38 570.053 L 1276.41 570.713 C 1291.25 580.05 1309.75 585.97 1323.37 597.824 C 1357.79 627.767 1362.74 688.415 1375.58 730.633 C 1377.94 738.403 1379.39 751.432 1384.14 757.426 L 1383.2 758.573 C 1374.96 760.883 1368.14 729.809 1363.75 723.557 C 1357.36 714.475 1344.62 706.723 1340.7 696.876 C 1336.01 685.125 1338.51 669.223 1334.39 656.696 C 1329.89 638.53 1315.91 617.289 1303.17 604.032 C 1300.37 601.119 1284.9 592.031 1280.67 589.395 C 1270.7 589.534 1266.52 589.078 1256.88 591.868 C 1250.48 597.599 1245.54 610.546 1236.21 606.659 C 1249.77 595.008 1262.84 582.795 1275.38 570.053 z"/>
<path transform="translate(0,0)" fill="rgb(250,250,247)" fill-opacity="0.564706" d="M 1196.69 654.253 L 1197.75 655.564 C 1194.56 664.613 1187.14 675.329 1189.83 683.787 C 1194.38 698.138 1178.76 713.998 1171.81 725.043 C 1169 729.518 1169.82 736.188 1166.48 739.917 L 1163.56 739.772 C 1153.84 752.802 1183.16 759.035 1176.08 773.702 C 1174.49 776.992 1173.11 776.737 1172.91 781.074 C 1169.39 774.536 1166.25 773.377 1162.09 762.953 C 1151.57 736.52 1169.96 713.834 1180.71 690.557 C 1186.41 678.212 1191.26 666.575 1196.69 654.253 z"/>
<path transform="translate(0,0)" fill="rgb(250,250,247)" fill-opacity="0.807843" d="M 1189.5 857.263 C 1190.17 850.813 1191.25 843.529 1199.45 843.674 C 1202.8 847.527 1201.98 848.892 1200.23 853.268 L 1199.75 854.485 C 1198.1 858.641 1197.67 859.086 1194.81 862.55 L 1193.77 863.1 C 1189.89 861.312 1190.59 861.098 1189.5 857.263 z"/>
<path transform="translate(0,0)" fill="rgb(239,225,203)" d="M 1790.49 728.051 C 1795.05 733.603 1797.44 753.185 1799.58 761.564 C 1814.32 819.267 1817.91 875.921 1820.64 935.08 C 1821.58 955.288 1819.44 988.985 1821.5 1007.24 L 1820.84 1008.94 C 1818.21 1015.64 1813.32 1024.39 1810.27 1031.46 C 1803.34 1047.5 1799.71 1060.3 1796.2 1077.23 C 1793.86 1081.26 1791.32 1083.32 1788.92 1087.01 C 1799.06 1093.85 1813 1097.14 1821.33 1105.81 C 1822.25 1106.76 1823.33 1111.74 1823.72 1113.4 C 1828.73 1117.47 1846.39 1118.38 1852.93 1118.06 L 1854.43 1120.8 C 1849.93 1125.16 1834.86 1132.16 1828.39 1136.34 C 1816.54 1144 1805.51 1151.63 1794.12 1160.02 C 1798.11 1178.54 1767.65 1265.27 1755.65 1282.57 C 1782.92 1280.89 1830.04 1274.14 1858.04 1270.18 C 1863.35 1278.3 1869.58 1287.13 1873.57 1295.93 C 1875.59 1300.36 1874.95 1305.42 1876.9 1309.05 C 1879.52 1313.9 1886.7 1319.1 1889.45 1323.62 L 1889.01 1324.65 C 1867.91 1326.49 1841.1 1335.16 1820.1 1340.95 L 1737.7 1363.41 L 1698.42 1373.54 L 1697.49 1378.93 C 1694.01 1444.19 1670.73 1517.18 1626.43 1566.25 C 1608.37 1586.33 1590.75 1604.62 1568.92 1620.8 C 1542.44 1608.3 1490.13 1580.54 1467.11 1562.71 C 1461.75 1572.28 1452.51 1581.25 1444.87 1589.28 C 1432.23 1589.53 1420.29 1588.12 1407.53 1590.5 C 1365.37 1598.37 1349.62 1617.31 1326.48 1649.32 C 1318.2 1642.58 1312.86 1635.08 1303.36 1628.81 C 1289.9 1642.15 1283.48 1657.17 1271.36 1670.96 C 1250.86 1660.14 1217.96 1633.5 1191.34 1629.4 C 1183.79 1628.24 1164.84 1650.39 1157.9 1657.19 C 1151.37 1648.04 1145.8 1637.03 1138.1 1629.06 C 1103.53 1593.27 1048.27 1594.01 1013.12 1628.76 C 985.238 1656.32 982.752 1681.56 981.935 1718.45 C 967.26 1719.26 950.273 1716.37 935.556 1715.34 C 775.888 1704.15 627.538 1637.55 502.489 1539.57 C 490.989 1530.56 468.344 1516 461.955 1503.03 C 463.213 1501.07 463.804 1500.48 466.295 1499.61 C 496.18 1489.15 526.639 1478.48 556.65 1468.6 C 608.006 1451.92 659.244 1434.89 710.361 1417.49 C 748.108 1404.64 785.606 1392.16 822.167 1376.11 C 843.651 1366.67 858.733 1355.46 877.249 1341.73 C 916.728 1319.18 936.294 1277.11 930.206 1232.64 C 922.863 1178.98 884.015 1135.27 849.119 1096.62 C 798.543 1040.6 743.292 988.979 683.965 942.324 C 684.931 938.355 685.974 930.056 686.638 925.714 L 687.56 923.78 C 692.077 923.352 706.431 929.597 711.092 931.342 C 729.292 938.155 848.749 980.322 861.887 973.97 C 866.77 961.202 879.038 934.214 879.979 920.918 C 889.036 914.441 890.395 901.405 899.451 890.586 C 898.794 886.167 898.363 882.591 898.017 878.139 C 919.684 888.208 927.52 900.399 954.247 892.717 C 981.607 884.854 1000.76 893.196 1021.05 911.254 C 1024.99 911.737 1031.28 912.304 1034.98 913.1 C 1038.87 921.307 1042 928.782 1044.28 937.629 C 1042.76 939.174 1041.07 940.783 1039.7 942.435 L 1036.6 944.134 C 1036.56 945.357 1053.07 980.151 1054.97 985.765 C 1069.04 986.229 1124.81 969.591 1140.79 965.569 C 1138.61 963.547 1117.88 970.594 1112.84 970.796 C 1107.82 970.998 1107.95 971.089 1102.51 970.146 C 1125.15 967.612 1132.57 964.151 1152.62 958.651 C 1179.52 951.276 1203.9 944.528 1230.25 935.155 C 1240.36 931.557 1277.61 913.598 1284.3 913.256 L 1300.66 904.581 C 1314.16 893.51 1315.74 887.732 1320.76 871.556 C 1341.97 863.501 1372.62 851.813 1394.48 846.275 C 1396.98 853.623 1400.11 863.804 1402.96 870.789 C 1408.62 874.271 1418.85 878.637 1425.25 881.407 C 1440.16 888.699 1450.16 894.206 1464.02 903.731 C 1472.14 901.15 1496.75 906.254 1507.29 906.945 C 1580.58 911.751 1636.65 852.946 1689.71 810.33 C 1722.79 783.763 1755.61 753.729 1790.49 728.051 z M 711.552 1546.42 L 715.339 1538.03 C 714.519 1532.81 714.269 1531.36 709.134 1528.55 L 707.158 1529.1 C 704.16 1534.71 704.768 1538.67 701.236 1542.5 C 687.659 1544.5 643.643 1504.8 631.54 1512.52 C 632.576 1515.98 635.27 1518.28 638.466 1519.55 C 653.49 1525.55 679.589 1545.96 694.187 1547.59 C 698.802 1546.65 706.622 1546.61 711.552 1546.42 z"/>
<path transform="translate(0,0)" fill="rgb(235,97,69)" d="M 1790.49 728.051 C 1795.05 733.603 1797.44 753.185 1799.58 761.564 C 1814.32 819.267 1817.91 875.921 1820.64 935.08 C 1821.58 955.288 1819.44 988.985 1821.5 1007.24 L 1820.84 1008.94 C 1818.21 1015.64 1813.32 1024.39 1810.27 1031.46 C 1803.34 1047.5 1799.71 1060.3 1796.2 1077.23 C 1793.86 1081.26 1791.32 1083.32 1788.92 1087.01 C 1799.06 1093.85 1813 1097.14 1821.33 1105.81 C 1822.25 1106.76 1823.33 1111.74 1823.72 1113.4 C 1828.73 1117.47 1846.39 1118.38 1852.93 1118.06 L 1854.43 1120.8 C 1849.93 1125.16 1834.86 1132.16 1828.39 1136.34 C 1816.54 1144 1805.51 1151.63 1794.12 1160.02 C 1798.11 1178.54 1767.65 1265.27 1755.65 1282.57 C 1782.92 1280.89 1830.04 1274.14 1858.04 1270.18 C 1863.35 1278.3 1869.58 1287.13 1873.57 1295.93 C 1875.59 1300.36 1874.95 1305.42 1876.9 1309.05 C 1879.52 1313.9 1886.7 1319.1 1889.45 1323.62 L 1889.01 1324.65 C 1867.91 1326.49 1841.1 1335.16 1820.1 1340.95 L 1737.7 1363.41 L 1698.42 1373.54 L 1697.49 1378.93 C 1694.01 1444.19 1670.73 1517.18 1626.43 1566.25 C 1608.37 1586.33 1590.75 1604.62 1568.92 1620.8 C 1542.44 1608.3 1490.13 1580.54 1467.11 1562.71 C 1451.83 1550.67 1434.02 1539.3 1418.01 1526.93 C 1402.38 1514.85 1385.16 1498.21 1370.17 1487.26 C 1312.84 1482.79 1247.56 1475.45 1208.01 1428.49 C 1161.12 1372.81 1185.43 1292.9 1205.57 1231.28 C 1218.72 1192.03 1232.45 1152.98 1246.76 1114.14 C 1271.81 1044.03 1290.61 994.082 1275.62 918.079 L 1284.3 913.256 L 1300.66 904.581 C 1314.16 893.51 1315.74 887.732 1320.76 871.556 C 1341.97 863.501 1372.62 851.813 1394.48 846.275 C 1396.98 853.623 1400.11 863.804 1402.96 870.789 C 1408.62 874.271 1418.85 878.637 1425.25 881.407 C 1440.16 888.699 1450.16 894.206 1464.02 903.731 C 1472.14 901.15 1496.75 906.254 1507.29 906.945 C 1580.58 911.751 1636.65 852.946 1689.71 810.33 C 1722.79 783.763 1755.61 753.729 1790.49 728.051 z"/>
<path transform="translate(0,0)" fill="rgb(239,225,203)" d="M 1790.49 728.051 C 1795.05 733.603 1797.44 753.185 1799.58 761.564 C 1814.32 819.267 1817.91 875.921 1820.64 935.08 C 1821.58 955.288 1819.44 988.985 1821.5 1007.24 L 1820.84 1008.94 C 1818.21 1015.64 1813.32 1024.39 1810.27 1031.46 C 1803.34 1047.5 1799.71 1060.3 1796.2 1077.23 C 1793.86 1081.26 1791.32 1083.32 1788.92 1087.01 C 1776.21 1095.23 1757.9 1104.84 1744.28 1112.26 C 1716.68 1127.26 1688.88 1141.91 1660.9 1156.21 C 1642.79 1164.56 1625.07 1173.74 1607.79 1183.7 C 1575.02 1155.88 1551.7 1108.82 1536.48 1069.02 C 1535.65 1053.02 1536.75 1034.04 1534.84 1018.63 C 1528.77 969.707 1500.88 933.701 1464.02 903.731 C 1472.14 901.15 1496.75 906.254 1507.29 906.945 C 1580.58 911.751 1636.65 852.946 1689.71 810.33 C 1722.79 783.763 1755.61 753.729 1790.49 728.051 z"/>
<path transform="translate(0,0)" fill="rgb(250,250,247)" d="M 1749.1 870.492 L 1751.64 870.998 C 1759.45 879.705 1736.23 917.014 1728.86 925.068 C 1712.36 943.104 1697.95 949.212 1673.94 950.841 C 1672.69 950.597 1672.3 950.276 1671.12 949.71 C 1670.96 950.083 1699.93 931.589 1703.45 928.944 C 1726.05 911.961 1736.4 894.916 1749.1 870.492 z"/>
<path transform="translate(0,0)" fill="rgb(190,76,53)" d="M 1536.48 1069.02 C 1551.7 1108.82 1575.02 1155.88 1607.79 1183.7 C 1625.07 1173.74 1642.79 1164.56 1660.9 1156.21 C 1688.88 1141.91 1716.68 1127.26 1744.28 1112.26 C 1757.9 1104.84 1776.21 1095.23 1788.92 1087.01 C 1799.06 1093.85 1813 1097.14 1821.33 1105.81 C 1822.25 1106.76 1823.33 1111.74 1823.72 1113.4 C 1828.73 1117.47 1846.39 1118.38 1852.93 1118.06 L 1854.43 1120.8 C 1849.93 1125.16 1834.86 1132.16 1828.39 1136.34 C 1816.54 1144 1805.51 1151.63 1794.12 1160.02 C 1798.11 1178.54 1767.65 1265.27 1755.65 1282.57 C 1782.92 1280.89 1830.04 1274.14 1858.04 1270.18 C 1863.35 1278.3 1869.58 1287.13 1873.57 1295.93 C 1875.59 1300.36 1874.95 1305.42 1876.9 1309.05 C 1879.52 1313.9 1886.7 1319.1 1889.45 1323.62 L 1889.01 1324.65 C 1867.91 1326.49 1841.1 1335.16 1820.1 1340.95 L 1737.7 1363.41 L 1698.42 1373.54 L 1697.49 1378.93 C 1692.69 1378.81 1690.53 1379.15 1685.74 1379.86 C 1667.23 1380.75 1648.67 1382.98 1630.21 1383.68 C 1596.16 1384.96 1564.37 1379.67 1531.19 1372.87 C 1503.96 1353.42 1491.7 1332.19 1496.21 1297.4 C 1499.44 1272.53 1505.31 1247.28 1510.18 1222.64 L 1529.93 1117.83 C 1531.67 1108.58 1534.02 1073.71 1536.48 1069.02 z"/>
<path transform="translate(0,0)" fill="rgb(104,129,131)" d="M 1788.92 1087.01 C 1799.06 1093.85 1813 1097.14 1821.33 1105.81 C 1822.25 1106.76 1823.33 1111.74 1823.72 1113.4 C 1828.73 1117.47 1846.39 1118.38 1852.93 1118.06 L 1854.43 1120.8 C 1849.93 1125.16 1834.86 1132.16 1828.39 1136.34 C 1816.54 1144 1805.51 1151.63 1794.12 1160.02 C 1783.83 1166.06 1770.55 1177.11 1761.01 1184.72 L 1715.61 1221.09 C 1699.18 1207.68 1673.8 1173.81 1660.9 1156.21 C 1688.88 1141.91 1716.68 1127.26 1744.28 1112.26 C 1757.9 1104.84 1776.21 1095.23 1788.92 1087.01 z"/>
<path transform="translate(0,0)" fill="rgb(104,129,131)" d="M 1755.65 1282.57 C 1782.92 1280.89 1830.04 1274.14 1858.04 1270.18 C 1863.35 1278.3 1869.58 1287.13 1873.57 1295.93 C 1875.59 1300.36 1874.95 1305.42 1876.9 1309.05 C 1879.52 1313.9 1886.7 1319.1 1889.45 1323.62 L 1889.01 1324.65 C 1867.91 1326.49 1841.1 1335.16 1820.1 1340.95 L 1737.7 1363.41 C 1729.19 1336.69 1717.49 1313.89 1706 1288.56 C 1717.73 1287.97 1744.53 1284.7 1755.65 1282.57 z"/>
<path transform="translate(0,0)" fill="rgb(239,225,203)" d="M 1715.61 1221.09 L 1761.01 1184.72 C 1770.55 1177.11 1783.83 1166.06 1794.12 1160.02 C 1798.11 1178.54 1767.65 1265.27 1755.65 1282.57 C 1744.53 1284.7 1717.73 1287.97 1706 1288.56 C 1702.68 1288.43 1698.32 1288.98 1694.93 1289.29 C 1688.78 1284.61 1691.45 1268.51 1673.09 1253.85 C 1687.35 1243.04 1701.52 1232.12 1715.61 1221.09 z"/>
<path transform="translate(0,0)" fill="rgb(159,63,36)" d="M 1660.9 1156.21 C 1673.8 1173.81 1699.18 1207.68 1715.61 1221.09 C 1701.52 1232.12 1687.35 1243.04 1673.09 1253.85 C 1661.85 1243.55 1647.46 1224.47 1636.1 1212.05 C 1628.39 1203.62 1613.39 1190.44 1607.79 1183.7 C 1625.07 1173.74 1642.79 1164.56 1660.9 1156.21 z"/>
<path transform="translate(0,0)" fill="rgb(159,63,36)" d="M 1694.93 1289.29 C 1698.32 1288.98 1702.68 1288.43 1706 1288.56 C 1717.49 1313.89 1729.19 1336.69 1737.7 1363.41 L 1698.42 1373.54 C 1698.81 1354.96 1699.35 1336.95 1698.22 1318.36 C 1697.79 1311.13 1692.8 1293.67 1694.93 1289.29 z"/>
<path transform="translate(0,0)" fill="rgb(190,76,53)" d="M 1284.3 913.256 L 1300.66 904.581 L 1307.84 904.443 C 1312.27 947.055 1316.16 997.897 1311 1040.55 C 1308.52 1061.11 1302.33 1088.99 1298.15 1109.62 C 1290.59 1146.32 1283.22 1183.05 1276.05 1219.83 C 1273.35 1233.91 1264.16 1286.32 1265.22 1298.96 C 1267.78 1301.99 1267.89 1315.62 1268.12 1320.13 C 1269.55 1347.99 1283.6 1373.91 1300.34 1395.56 C 1302.86 1398.83 1310.54 1407.28 1310.85 1410.78 C 1326.07 1420.51 1335.14 1432.02 1347.69 1443.41 C 1361.81 1456.24 1400.3 1483.84 1417.93 1489.28 C 1426.39 1494.26 1453.44 1510.9 1461.16 1512 C 1467.82 1510.76 1469.19 1514.89 1474.31 1517.74 C 1495.12 1535.87 1590.23 1560.29 1620.2 1565.61 C 1623.03 1566.13 1623.58 1566.25 1626.43 1566.25 C 1608.37 1586.33 1590.75 1604.62 1568.92 1620.8 C 1542.44 1608.3 1490.13 1580.54 1467.11 1562.71 C 1451.83 1550.67 1434.02 1539.3 1418.01 1526.93 C 1402.38 1514.85 1385.16 1498.21 1370.17 1487.26 C 1312.84 1482.79 1247.56 1475.45 1208.01 1428.49 C 1161.12 1372.81 1185.43 1292.9 1205.57 1231.28 C 1218.72 1192.03 1232.45 1152.98 1246.76 1114.14 C 1271.81 1044.03 1290.61 994.082 1275.62 918.079 L 1284.3 913.256 z"/>
<path transform="translate(0,0)" fill="rgb(251,154,79)" d="M 1265.22 1298.96 C 1267.78 1301.99 1267.89 1315.62 1268.12 1320.13 C 1269.55 1347.99 1283.6 1373.91 1300.34 1395.56 C 1302.86 1398.83 1310.54 1407.28 1310.85 1410.78 C 1279.39 1385.73 1261.36 1338.65 1265.22 1298.96 z"/>
<path transform="translate(0,0)" fill="rgb(41,60,63)" d="M 1320.76 871.556 C 1341.97 863.501 1372.62 851.813 1394.48 846.275 C 1396.98 853.623 1400.11 863.804 1402.96 870.789 C 1391.05 875.689 1361.32 887.358 1349.37 890.618 L 1344.7 892.389 C 1332.35 896.209 1320.06 900.228 1307.84 904.443 L 1300.66 904.581 C 1314.16 893.51 1315.74 887.732 1320.76 871.556 z"/>
<path transform="translate(0,0)" fill="rgb(251,154,79)" d="M 1531.19 1372.87 C 1564.37 1379.67 1596.16 1384.96 1630.21 1383.68 C 1648.67 1382.98 1667.23 1380.75 1685.74 1379.86 C 1690.01 1379.71 1691.29 1379.59 1695.44 1380.28 L 1694.51 1381.38 C 1675.61 1386.4 1537.33 1392.19 1531.19 1372.87 z"/>
<path transform="translate(0,0)" fill="rgb(251,154,79)" d="M 1474.31 1517.74 C 1479.83 1517.4 1509.49 1530.22 1517.4 1533.23 C 1534.17 1539.46 1551.16 1545.07 1568.35 1550.04 C 1576.17 1552.32 1617.12 1561.52 1622.04 1564.21 L 1621.64 1565.25 L 1620.2 1565.61 C 1590.23 1560.29 1495.12 1535.87 1474.31 1517.74 z"/>
<path transform="translate(0,0)" fill="rgb(251,154,79)" d="M 1344.7 892.389 L 1349.37 890.618 C 1353.13 903.491 1361.57 914.661 1367.09 926.016 C 1372.1 936.328 1393.42 987.629 1390.06 996.004 C 1385.2 984.015 1382.24 969.499 1377.87 958.121 C 1370.81 939.697 1355.38 908.625 1344.7 892.389 z"/>
<path transform="translate(0,0)" fill="rgb(251,154,79)" d="M 1417.93 1489.28 C 1424.89 1489.42 1459.76 1506.49 1461.16 1512 C 1453.44 1510.9 1426.39 1494.26 1417.93 1489.28 z"/>
<path transform="translate(0,0)" fill="rgb(251,154,79)" d="M 1390.14 1001.69 C 1405.58 1014.36 1375.81 1225.89 1373.12 1257.42 C 1371.59 1275.38 1370.1 1296.22 1372.39 1314.07 C 1374.5 1330.48 1381.78 1348.15 1391.14 1361.73 C 1405.04 1381.87 1425.27 1397.99 1445.84 1410.87 C 1496.53 1442.58 1551.77 1458.18 1610.49 1467.01 C 1622.28 1468.79 1634.14 1470.16 1646.03 1471.13 C 1654.51 1471.78 1665.22 1471.9 1673.32 1473.38 L 1673.33 1474.62 C 1581.63 1470.49 1489.78 1452.55 1416.97 1393.05 C 1368.68 1353.59 1364.58 1314.49 1369.9 1256.24 C 1377.55 1172.53 1396.67 1085.62 1390.14 1001.69 z"/>
<path transform="translate(0,0)" fill="rgb(251,154,79)" d="M 1450.15 1068.72 C 1459 1078.54 1437.97 1189.38 1437.12 1208.41 C 1436.91 1213.25 1435.49 1226.59 1434.41 1231.25 C 1430.86 1227.33 1432.92 1220.2 1433.69 1214.87 C 1438.25 1183.19 1442.4 1151.4 1446.3 1119.65 C 1448.19 1104.23 1447.07 1083.18 1450.15 1068.72 z"/>
<path transform="translate(0,0)" fill="rgb(251,154,79)" d="M 1441.24 999.857 C 1449.23 1007.1 1453.31 1052.67 1451.64 1064.3 C 1448.54 1062.07 1449.33 1053.84 1449.17 1049.18 C 1448.57 1031.96 1444.87 1016.61 1441.24 999.857 z"/>
<path transform="translate(0,0)" fill="rgb(251,154,79)" d="M 1432.12 1235.67 C 1434.05 1237.41 1433.9 1245 1433.45 1247.31 C 1431.04 1259.67 1436.35 1280.31 1435.27 1291 L 1434.06 1289.54 C 1431.2 1274.17 1428.35 1250.87 1432.12 1235.67 z"/>
<path transform="translate(0,0)" fill="rgb(251,154,79)" d="M 1427.14 964.745 C 1430.98 967.001 1439.54 990.078 1440.02 995.154 C 1436.34 991.186 1428.37 970.347 1427.14 964.745 z"/>
<path transform="translate(0,0)" fill="rgb(159,63,36)" d="M 898.017 878.139 C 919.684 888.208 927.52 900.399 954.247 892.717 C 981.607 884.854 1000.76 893.196 1021.05 911.254 C 1024.99 911.737 1031.28 912.304 1034.98 913.1 C 1038.87 921.307 1042 928.782 1044.28 937.629 C 1042.76 939.174 1041.07 940.783 1039.7 942.435 L 1036.6 944.134 C 1036.56 945.357 1053.07 980.151 1054.97 985.765 C 1044.87 986.343 1009.78 991.853 1001.78 997.312 C 980.393 1011.9 967.549 1027.98 938.587 1016.15 C 908.337 1003.81 895.431 981.141 861.887 973.97 C 866.77 961.202 879.038 934.214 879.979 920.918 C 889.036 914.441 890.395 901.405 899.451 890.586 C 898.794 886.167 898.363 882.591 898.017 878.139 z"/>
<path transform="translate(0,0)" fill="rgb(235,97,69)" d="M 882.423 1552.13 C 899.211 1550.2 912.328 1558.08 916.164 1574.55 C 922.24 1600.64 896.678 1640.81 884.158 1662.38 C 871.634 1657.06 857.435 1649.44 845.511 1642.96 C 828.44 1633.81 809.31 1621.29 806.105 1600.41 C 803.707 1584.78 814.107 1570.56 830.165 1569.52 C 842.683 1568.71 850.196 1574.79 858.886 1582.58 C 862.65 1565.73 865.617 1558.13 882.423 1552.13 z"/>
<path transform="translate(0,0)" fill="rgb(250,250,247)" d="M 715.339 1538.03 L 717.319 1539.37 C 717.911 1544.97 713.662 1547.82 709.803 1551.56 C 725.282 1565.53 794.075 1605.01 798.966 1619.11 L 798.288 1620.84 C 796.627 1621.45 794.463 1622.62 793.199 1621.14 C 786.398 1613.17 692.11 1551.24 690.886 1548.63 L 694.187 1547.59 C 698.802 1546.65 706.622 1546.61 711.552 1546.42 L 715.339 1538.03 z"/>
<path transform="translate(0,0)" fill="rgb(104,129,131)" d="M 683.965 942.324 C 743.292 988.979 798.543 1040.6 849.119 1096.62 C 884.015 1135.27 922.863 1178.98 930.206 1232.64 C 936.294 1277.11 916.728 1319.18 877.249 1341.73 C 858.733 1355.46 843.651 1366.67 822.167 1376.11 C 785.606 1392.16 748.108 1404.64 710.361 1417.49 C 659.244 1434.89 608.006 1451.92 556.65 1468.6 C 526.639 1478.48 496.18 1489.15 466.295 1499.61 C 463.804 1500.48 463.213 1501.07 461.955 1503.03 L 461.35 1502.03 L 455.819 1503.04 C 453.193 1506.04 416.697 1518.38 410.028 1520.75 C 404.615 1509.42 398.714 1493.51 393.892 1481.51 C 385.359 1460.52 376.978 1439.47 368.751 1418.36 C 364.008 1419.17 357.479 1420.37 354.081 1416.84 C 345.387 1407.81 318.874 1366.73 317.432 1357.46 C 297.022 1350.64 273.355 1346.3 252.251 1339.04 L 269.759 1272.46 C 271.919 1264.27 276.952 1247.37 277.923 1239.99 L 276.626 1239.2 C 281.956 1234.68 283.623 1219.42 287.378 1211.11 C 355.622 1230.09 424.526 1246.61 493.957 1260.64 C 549.025 1272.31 603.736 1290.12 655.991 1259 C 663.582 1254.48 668.983 1251.22 674.727 1244.18 C 671.672 1239.46 622.407 1213.37 614.728 1209.09 C 586.215 1193.11 557.886 1176.8 529.746 1160.17 C 514.82 1151.37 489.074 1136.54 475.86 1126.13 L 472.055 1123.5 C 471.024 1122.79 470.002 1122.07 468.988 1121.34 C 421.303 1086.77 413.742 1033.06 405.278 979.965 L 403.787 977.247 C 416.401 971.719 435.221 968.843 449.14 966.614 C 522.917 954.796 593.398 964.678 666.131 979.079 C 659.695 968.751 651.246 959.891 643.284 950.581 C 649.819 952.511 656.728 954.698 662.803 957.756 C 679.193 966.003 680.63 955.656 683.965 942.324 z"/>
<path transform="translate(0,0)" fill="rgb(41,60,63)" d="M 287.378 1211.11 C 355.622 1230.09 424.526 1246.61 493.957 1260.64 C 549.025 1272.31 603.736 1290.12 655.991 1259 C 663.582 1254.48 668.983 1251.22 674.727 1244.18 L 676.48 1243.12 C 684.461 1246.02 687.836 1249.77 697.502 1250.32 C 706.266 1250.83 715.251 1249.71 724.031 1249.23 C 738.18 1248.45 752.371 1249.12 766.384 1251.23 C 768.903 1251.63 773.84 1252.2 775.547 1253.6 C 765.693 1254.72 749.266 1253.68 738.789 1253.75 C 724.075 1253.85 713.298 1254.63 698.592 1256.67 C 714.268 1260.65 750.729 1268.94 763.507 1275.74 C 750.22 1274.55 737.347 1271.66 724.452 1268.34 C 713.642 1265.56 699.161 1259.09 688.086 1259.65 C 677.327 1260.18 432.326 1372.01 409.147 1383.43 C 418.707 1405.94 427.851 1428.63 436.575 1451.48 C 440.279 1461.39 451.322 1496.08 455.819 1503.04 C 453.193 1506.04 416.697 1518.38 410.028 1520.75 C 404.615 1509.42 398.714 1493.51 393.892 1481.51 C 385.359 1460.52 376.978 1439.47 368.751 1418.36 C 364.008 1419.17 357.479 1420.37 354.081 1416.84 C 345.387 1407.81 318.874 1366.73 317.432 1357.46 C 297.022 1350.64 273.355 1346.3 252.251 1339.04 L 269.759 1272.46 C 271.919 1264.27 276.952 1247.37 277.923 1239.99 L 276.626 1239.2 C 281.956 1234.68 283.623 1219.42 287.378 1211.11 z"/>
<path transform="translate(0,0)" fill="rgb(239,225,203)" d="M 317.432 1357.46 C 324.654 1358.22 398.79 1377.83 403.347 1380.69 L 403.325 1382.15 C 394.702 1387.14 372.667 1393.97 362.292 1398.49 L 368.751 1418.36 C 364.008 1419.17 357.479 1420.37 354.081 1416.84 C 345.387 1407.81 318.874 1366.73 317.432 1357.46 z"/>
<path transform="translate(0,0)" fill="rgb(250,250,247)" d="M 333.135 1291.17 C 339.431 1291.23 381.979 1301.87 387.443 1305.86 C 380.738 1305.54 338.45 1295.17 333.135 1291.17 z"/>
<path transform="translate(0,0)" fill="rgb(189,192,192)" d="M 389.208 1305.22 C 396.155 1306.07 407.684 1309.28 414.243 1311.83 C 408.745 1312.5 394.022 1308.68 389.208 1305.22 z"/>
<path transform="translate(0,0)" fill="rgb(41,60,63)" d="M 683.965 942.324 C 743.292 988.979 798.543 1040.6 849.119 1096.62 C 884.015 1135.27 922.863 1178.98 930.206 1232.64 C 936.294 1277.11 916.728 1319.18 877.249 1341.73 C 876.195 1336.96 884.997 1317.6 885.807 1310.41 C 892.874 1247.66 854.732 1195.21 818.713 1148.01 C 791.798 1112.56 763.266 1078.38 733.206 1045.56 C 713.833 1024.18 696.082 1003.6 674.04 984.899 C 656.843 982.221 637.238 978.182 619.715 975.167 C 542.964 961.962 481.59 962.7 405.278 979.965 L 403.787 977.247 C 416.401 971.719 435.221 968.843 449.14 966.614 C 522.917 954.796 593.398 964.678 666.131 979.079 C 659.695 968.751 651.246 959.891 643.284 950.581 C 649.819 952.511 656.728 954.698 662.803 957.756 C 679.193 966.003 680.63 955.656 683.965 942.324 z"/>
<path transform="translate(0,0)" fill="rgb(41,60,63)" d="M 518.028 999.291 C 506.964 1000.53 419.993 1021.47 419.349 1021.12 C 424.152 1016.31 508.661 997.921 520.322 996.108 C 523.428 1008.79 539.801 1087.2 539.214 1096.22 C 529.957 1109.86 489.115 1117.24 475.86 1126.13 L 472.055 1123.5 L 473.672 1122.79 C 485.201 1117.79 529.393 1105.36 535.978 1096.9 C 536.597 1085.11 521.329 1014.53 518.028 999.291 z"/>
<path transform="translate(0,0)" fill="rgb(250,250,247)" d="M 803.458 1259.85 C 811.894 1267.63 800.931 1291.33 792.22 1296.38 C 774.447 1306.67 754.386 1313.38 735.19 1320.69 L 650.348 1352.97 C 648.726 1352.58 649.528 1352.98 648.109 1351.48 C 651.916 1345.96 760.657 1309.2 776.941 1300.51 C 797.658 1289.45 803.231 1285.39 803.458 1259.85 z"/>
<path transform="translate(0,0)" fill="rgb(250,250,247)" d="M 632.585 1354.9 L 634.653 1355.68 L 634.416 1357.33 C 629.738 1360.26 604.28 1369.7 597.888 1372.18 L 514.36 1404.8 L 513.168 1404.79 L 512.306 1403.36 C 514.815 1399.91 619.465 1360.2 632.585 1354.9 z"/>
<path transform="translate(0,0)" fill="rgb(250,250,247)" d="M 582.503 1000.37 C 583.167 1000.48 583.832 1000.6 584.496 1000.72 C 589.603 1004.3 597.985 1020.21 601.727 1024.78 C 617.001 1043.45 633.614 1060.3 649.629 1078.21 C 654.836 1084.04 663.109 1092.05 666.843 1098.37 C 654.624 1094.2 589.556 1015.45 582.503 1000.37 z"/>
<path transform="translate(0,0)" fill="rgb(250,250,247)" d="M 731.765 1162.93 C 734.81 1165.01 745.398 1175.94 747.798 1178.84 C 758.745 1192.12 792.731 1221.46 796.393 1236.38 C 790.163 1231.63 732.239 1166.88 731.765 1162.93 z"/>
<path transform="translate(0,0)" fill="rgb(250,250,247)" d="M 495.46 1407.92 C 497.463 1408.4 496.494 1407.99 498.112 1409.91 L 497.564 1411.23 C 481.129 1419.18 453.329 1428.57 435.527 1435.11 C 434.567 1435.05 435.221 1435.15 433.67 1434.41 C 438.362 1430.3 486.669 1411.53 495.46 1407.92 z"/>
<path transform="translate(0,0)" fill="rgb(250,250,247)" d="M 683.239 1115.68 C 688.414 1117.57 704.75 1135.71 707.126 1141.06 C 702.204 1139.58 685.806 1120.86 683.239 1115.68 z"/>
<path transform="translate(0,0)" fill="rgb(235,97,69)" d="M 720.585 476.942 C 723.249 477.076 726.21 474.354 730.684 474.16 C 750.751 498.783 774.252 520.396 800.465 538.336 C 799.521 545.307 798.505 552.268 797.416 559.218 C 806.218 565.917 799.903 650.545 794.219 663.731 C 783.648 711.806 769.31 764.269 755.526 811.517 C 803.687 834.271 849.865 853.804 898.017 878.139 C 898.363 882.591 898.794 886.167 899.451 890.586 C 890.395 901.405 889.036 914.441 879.979 920.918 C 879.038 934.214 866.77 961.202 861.887 973.97 C 848.749 980.322 729.292 938.155 711.092 931.342 C 706.431 929.597 692.077 923.352 687.56 923.78 L 686.638 925.714 C 685.974 930.056 684.931 938.355 683.965 942.324 C 680.63 955.656 679.193 966.003 662.803 957.756 C 656.728 954.698 649.819 952.511 643.284 950.581 C 651.246 959.891 659.695 968.751 666.131 979.079 C 593.398 964.678 522.917 954.796 449.14 966.614 C 435.221 968.843 416.401 971.719 403.787 977.247 L 400.098 950.148 L 398.68 912.096 C 398.379 888.808 407.738 849.799 413.506 825.939 C 442.425 706.312 502.368 573.01 609.492 503.858 C 636.045 486.717 689.661 469.623 720.585 476.942 z"/>
<path transform="translate(0,0)" fill="rgb(190,76,53)" d="M 705.396 821.964 C 727.589 788.5 748.326 754.093 767.546 718.837 C 773.273 708.119 790.6 668.188 794.219 663.731 C 783.648 711.806 769.31 764.269 755.526 811.517 C 803.687 834.271 849.865 853.804 898.017 878.139 C 898.363 882.591 898.794 886.167 899.451 890.586 C 890.395 901.405 889.036 914.441 879.979 920.918 C 876.247 917.472 873.677 911.446 867.425 907.024 C 855.146 898.338 841.343 891.739 827.974 885.017 L 751.002 846.441 C 738.329 840.089 716.277 829.835 705.396 821.964 z"/>
<path transform="translate(0,0)" fill="rgb(250,250,247)" d="M 720.585 476.942 C 723.249 477.076 726.21 474.354 730.684 474.16 C 750.751 498.783 774.252 520.396 800.465 538.336 C 799.521 545.307 798.505 552.268 797.416 559.218 C 794.861 558.693 792.341 558.008 789.872 557.169 C 753.597 545.113 722.945 514.381 706.207 480.61 L 720.585 476.942 z"/>
<path transform="translate(0,0)" fill="rgb(190,76,53)" d="M 605.844 886.221 C 632.79 901.333 659.104 910.083 685.841 923.204 L 686.638 925.714 C 685.974 930.056 684.931 938.355 683.965 942.324 C 680.63 955.656 679.193 966.003 662.803 957.756 C 656.728 954.698 649.819 952.511 643.284 950.581 C 636.798 943.6 611.794 896.895 605.844 886.221 z"/>
<path transform="translate(0,0)" fill="rgb(190,76,53)" d="M 398.68 912.096 C 417.626 919.046 436.845 928.698 455.564 936.34 C 437.524 939.94 419.055 943.66 401.657 949.745 C 400.578 950.122 401.08 950.005 400.098 950.148 L 398.68 912.096 z"/>
<path transform="translate(0,0)" fill="rgb(190,76,53)" d="M 594.599 636.843 C 597.215 639.493 593.243 667.862 592.643 672.877 C 587.804 713.312 587.437 754.193 584.23 794.747 C 582.916 811.366 586.062 836.004 583.671 851.069 L 582.433 851.606 L 580.179 849.399 C 570.121 823.344 573.577 750.217 576.376 719.544 C 577.049 712.169 580.724 699.628 581.962 691.912 C 585.194 671.775 588.564 656.356 594.599 636.843 z"/>
<path transform="translate(0,0)" fill="rgb(190,76,53)" d="M 721.337 580.99 C 722.416 590.499 689.663 728.746 686.64 745.997 C 685.082 754.882 676.417 778.222 677.361 788.809 C 677.997 795.939 684.855 807.218 688.341 813.781 C 677.167 807.583 671.522 804.614 659.423 800.521 C 653.514 799.316 648.006 800.567 641.562 798.164 C 644.29 796.454 650.559 797.998 653.414 796.156 C 657.399 793.585 662.753 796.453 667.104 797.948 C 666.149 785.327 667.28 772.636 670.453 760.384 C 676.148 737.456 687.209 721.439 694.499 700.211 C 696.822 693.444 699.663 675.156 701.724 666.927 C 705.261 652.805 708.473 636.472 711.825 622.277 C 713.897 613.501 717.77 587.631 721.337 580.99 z"/>
<path transform="translate(0,0)" fill="rgb(41,60,63)" d="M 1161.7 377.485 C 1160 375.256 1158.48 374.062 1159.07 371.106 C 1171.31 309.778 1263.13 278.228 1308.89 322.652 C 1313.49 327.109 1317.01 332.042 1320.62 336.925 C 1352.18 319.587 1382.79 312.302 1418.32 322.192 C 1460.08 333.817 1480.72 372.965 1466.42 413.854 C 1464.21 420.188 1463.17 420.501 1457.08 421.793 L 1456.94 422.594 C 1478.11 427.06 1491.51 431.966 1507.72 447.093 C 1543.04 429.648 1586.03 439.717 1604.36 476.567 C 1610.13 488.177 1609.96 497.507 1610.53 510.031 C 1618.8 516.687 1627.41 522.45 1634.82 530.08 C 1700.78 597.987 1657.01 718.25 1561.98 726.257 C 1546.58 727.554 1533.49 726.17 1519.26 720.175 C 1495.78 769.582 1430.82 785.906 1384.86 757.662 L 1384.14 757.426 C 1379.39 751.432 1377.94 738.403 1375.58 730.633 C 1362.74 688.415 1357.79 627.767 1323.37 597.824 C 1309.75 585.97 1291.25 580.05 1276.41 570.713 L 1275.38 570.053 C 1246.99 548.016 1237.16 526.091 1235.62 490.098 C 1246.47 490.347 1256.24 489.983 1264.94 482.132 C 1270 477.634 1273.01 471.269 1273.28 464.505 C 1273.72 453.346 1266.35 443.429 1254.52 443.992 C 1243.52 444.515 1236.99 452.332 1229.99 459.695 C 1229.39 414.454 1204.92 387.404 1161.7 377.485 z"/>
<path transform="translate(0,0)" fill="rgb(250,250,247)" d="M 1242.53 306.328 C 1277.35 301.116 1299.77 313.835 1319.13 341.529 C 1361.07 318.404 1417.97 307.509 1453.94 349.983 C 1466.5 364.805 1467.65 381.398 1465.32 400.002 C 1463.08 389.592 1461.67 380.66 1457.82 370.682 C 1435.92 321.112 1379.33 316.504 1335.39 339.416 C 1327.83 343.355 1321.64 347.434 1314.58 352.191 C 1296.52 309.5 1255.67 303.472 1214.67 313.997 C 1219.09 309.479 1235.95 307.268 1242.53 306.328 z"/>
<path transform="translate(0,0)" fill="rgb(250,250,247)" d="M 1509.69 451.042 C 1525.04 455.88 1532.55 485.967 1532.84 500.623 C 1532.73 500.578 1532.6 500.55 1532.49 500.489 C 1528.99 498.545 1525.4 483.796 1523.47 479.318 C 1519.38 469.825 1512.74 460.845 1509.69 451.042 z"/>
<path transform="translate(0,0)" fill="rgb(228,209,180)" d="M 1769.75 364.773 C 1775.46 361.678 1782.82 355.156 1788.33 350.926 C 1816.01 329.667 1859.13 326.442 1890.03 342.523 C 1898.77 347.075 1913.24 357.887 1922.34 359.318 C 1923.89 357.021 1925.26 349.549 1926.28 346.238 C 1950.65 376.518 1965.73 431.288 1962.88 469.904 C 1891.68 471.217 1817.07 469.988 1745.51 469.921 L 1693.5 469.787 C 1683.52 469.697 1668.66 468.857 1659.21 470.176 C 1645.06 467.959 1620.63 468.838 1604.67 467.768 C 1600.67 463.43 1598.83 462.257 1598.73 456.666 C 1601.05 452.128 1605.66 450.103 1610.16 447.359 C 1614.15 436.518 1614.66 427.771 1617.58 417.027 C 1636.12 348.898 1713.89 314.153 1769.75 364.773 z"/>
<path transform="translate(0,0)" fill="rgb(235,97,69)" d="M 1072.23 152.893 C 1084.46 133.972 1093.81 121.432 1117 116.052 C 1152.75 107.76 1186.59 127.341 1193.85 163.938 C 1195.03 169.869 1195.77 181.875 1194.11 187.628 C 1190.97 196.161 1187.31 209.499 1182.68 217.145 C 1156.98 259.54 1108.76 302.904 1071.09 334.008 C 1038.02 309.192 983.895 253.54 961.702 217.63 C 955.912 208.26 952.396 192.725 950.315 181.981 C 948.817 164.791 954.226 147.713 965.347 134.521 C 976.287 121.801 990.341 115.927 1006.73 114.63 C 1037.81 112.17 1057.13 127.23 1072.23 152.893 z"/>
<path transform="translate(0,0)" fill="rgb(159,63,36)" d="M 878.321 346.275 C 894.685 347.917 929.222 348.238 944.266 353.616 C 944.316 361.114 944.533 370.162 943.744 377.961 C 942.361 391.629 937.448 405.449 938.419 419.514 C 939.075 429.018 959.876 442.316 952.177 450.963 C 948.554 455.045 938.416 453.305 937.128 459.172 C 936.238 463.224 933.792 469.99 929.557 471.501 C 920.431 474.76 904.061 462.169 896.405 457.821 C 909.861 475.757 912.153 473.112 926.733 485.6 C 922.701 488.785 919.97 490.938 915.539 493.693 C 898.852 537.613 867.761 511.768 843.284 491.985 C 830.245 505.623 816.208 522.383 803.34 535.209 L 800.465 538.336 C 774.252 520.396 750.751 498.783 730.684 474.16 C 744.892 461.382 756.661 445.588 773.883 430.789 C 781.584 426.175 789.679 421.045 797.781 417.297 L 806.251 421.285 C 799.774 413.972 796.901 409.542 794.395 399.081 C 789.451 378.444 810.816 357.698 828.249 375.055 C 832.449 379.237 833.24 386.448 838.751 390.974 C 842.299 392.018 842.338 391.791 845.844 391.104 C 848.987 388.348 875.829 350.66 878.321 346.275 z"/>
<path transform="translate(0,0)" fill="rgb(93,46,35)" d="M 813.077 455.811 C 819.358 465.591 824.898 473.669 833.431 481.733 C 836.249 484.396 842.564 489.153 843.284 491.985 C 830.245 505.623 816.208 522.383 803.34 535.209 C 802.24 524.981 806.972 501.773 808.75 490.784 C 810.802 478.096 812.005 468.794 813.077 455.811 z"/>
<path transform="translate(0,0)" fill="rgb(65,53,48)" d="M 906.46 369.412 C 914.208 369.52 935.091 368.332 936.336 378.451 C 930.519 385.782 917.273 384.342 908.75 384.234 C 900.183 384.018 891.711 386.307 883.155 387.903 C 889.595 376.909 893.095 370.655 906.46 369.412 z"/>
<path transform="translate(0,0)" fill="rgb(93,46,35)" d="M 895.445 397.402 C 903.775 401.073 900.352 405.735 907.113 409.39 C 916.051 409.01 916.486 403.622 922.537 401.377 L 922.258 403.784 C 920.961 405.554 919.303 407.86 917.772 409.396 C 906.81 420.393 894.197 411.099 895.445 397.402 z"/>
<path transform="translate(0,0)" fill="rgb(93,46,35)" d="M 813.46 382.485 C 819.916 386.431 823.084 392.335 823.948 399.763 C 819.71 399.012 815.456 386.743 813.46 382.485 z"/>
<path transform="translate(0,0)" fill="rgb(41,60,63)" d="M 820.874 260.622 C 834.895 241.26 847.127 241.926 865.573 255.577 C 891.189 238.871 892.474 254.341 916.409 261.4 C 921.703 262.962 925.288 271.474 927.691 276.054 C 945.191 271.245 949.273 280.974 952.968 295.447 C 955.295 296.578 962.887 301.213 963.288 303.312 C 966.452 319.875 975.364 362.933 944.266 353.616 C 929.222 348.238 894.685 347.917 878.321 346.275 C 875.829 350.66 848.987 388.348 845.844 391.104 C 842.338 391.791 842.299 392.018 838.751 390.974 C 833.24 386.448 832.449 379.237 828.249 375.055 C 810.816 357.698 789.451 378.444 794.395 399.081 C 796.901 409.542 799.774 413.972 806.251 421.285 L 797.781 417.297 C 789.679 421.045 781.584 426.175 773.883 430.789 C 763.588 425.278 762.086 420.219 759.98 409.553 C 739.947 399.98 737.982 387.575 750.472 369.386 C 733.084 355.19 733.742 334.019 754.679 324.272 C 753.938 323.033 753.233 321.773 752.563 320.494 C 734.451 285.396 782.399 279.195 782.49 279.024 C 792.578 260.189 793.485 246.894 820.874 260.622 z"/>
<path transform="translate(0,0)" fill="rgb(159,63,36)" d="M 1161.7 377.485 C 1204.92 387.404 1229.39 414.454 1229.99 459.695 C 1236.99 452.332 1243.52 444.515 1254.52 443.992 C 1266.35 443.429 1273.72 453.346 1273.28 464.505 C 1273.01 471.269 1270 477.634 1264.94 482.132 C 1256.24 489.983 1246.47 490.347 1235.62 490.098 C 1237.16 526.091 1246.99 548.016 1275.38 570.053 C 1262.84 582.795 1249.77 595.008 1236.21 606.659 C 1229.69 611.303 1218.48 618.594 1212.72 623.135 L 1210.62 616.74 C 1205.2 595.862 1196.96 573.057 1189.31 552.976 L 1178.24 530.284 C 1162.26 534.016 1135.01 540.254 1122.94 526.203 C 1116.62 518.857 1117.89 510.352 1118.68 501.525 C 1118.04 500.892 1117.4 500.25 1116.77 499.6 C 1113.25 495.946 1112.75 495.237 1112.85 490.621 C 1114.64 487.153 1116.3 486.495 1119.56 484.35 L 1119.96 482.887 C 1116.93 480.907 1117.08 481.122 1115.47 477.888 C 1114.96 473.622 1116.72 470.621 1118.36 466.521 C 1097.92 437.028 1123.52 448.05 1135.71 432.919 C 1144.1 422.505 1155.43 391.02 1161.7 377.485 z"/>
<path transform="translate(0,0)" fill="rgb(65,53,48)" d="M 1178.24 530.284 C 1189.85 527.113 1198.98 524.67 1209.99 519.542 C 1204.5 526.79 1198.94 533.878 1194.44 541.81 C 1192.45 545.322 1190.92 550.072 1189.31 552.976 L 1178.24 530.284 z"/>
<path transform="translate(0,0)" fill="rgb(228,182,158)" d="M 1119.96 482.887 C 1124.48 481.411 1130.47 482.198 1135.43 482.349 C 1129.38 483.407 1125.72 484.085 1119.56 484.35 L 1119.96 482.887 z"/>
<path transform="translate(0,0)" fill="rgb(65,53,48)" d="M 1166.69 393.822 C 1181.25 394.914 1190.09 399.908 1192.88 415.483 C 1193.43 418.53 1193.73 417.799 1192.02 420.14 L 1189.63 419.341 C 1180.61 414.121 1162.89 410.913 1161.71 401.154 C 1163.03 397.13 1163.56 396.913 1166.69 393.822 z"/>
<path transform="translate(0,0)" fill="rgb(93,46,35)" d="M 1160.99 419.601 C 1166.51 424.948 1162.74 433.226 1167.01 437.092 C 1172.29 436.971 1176.2 434.25 1181.99 433.182 L 1182.67 434.215 L 1180.83 436.965 C 1163.88 448.712 1153.1 437.721 1160.99 419.601 z"/>
<path transform="translate(0,0)" fill="rgb(93,46,35)" d="M 1249.23 460.641 C 1250.1 460.9 1249.57 460.658 1250.58 461.781 C 1248.87 465.177 1245.63 467.56 1242.74 470.133 C 1241.86 469.937 1242.42 470.14 1241.31 469.041 C 1242.71 465.959 1246.59 463.015 1249.23 460.641 z"/>
<path transform="translate(0,0)" fill="rgb(235,97,69)" d="M 1233.49 821.781 C 1236.63 805.658 1238.95 783.263 1241.13 766.636 C 1245.02 735.128 1249.27 703.666 1253.87 672.255 C 1254.92 664.729 1257.01 639.258 1259.72 633.978 L 1261.53 633.136 C 1263.9 635.15 1262.42 643.672 1262 646.836 C 1253.25 712.079 1246.43 778.277 1236.3 843.274 C 1197.8 869.096 1156.01 889.131 1114.5 909.771 C 1093.77 920.079 1061.24 936.747 1039.7 942.435 C 1041.07 940.783 1042.76 939.174 1044.28 937.629 C 1060.36 930.963 1083.27 919.579 1099.23 911.762 C 1130.03 896.683 1164.09 880.027 1193.77 863.1 L 1194.81 862.55 C 1200.3 860.072 1204.19 857.679 1209.36 854.599 C 1201.92 834.729 1192.23 814.002 1183.86 794.24 C 1194.32 801.454 1208.57 810.762 1217.86 818.856 L 1219.34 820.785 C 1226.48 819.634 1226.47 820.123 1233.15 820.111 L 1233.49 821.781 z"/>
<path transform="translate(0,0)" fill="rgb(250,250,247)" d="M 1219.34 820.785 C 1226.48 819.634 1226.47 820.123 1233.15 820.111 L 1233.49 821.781 C 1233.09 827.415 1232.04 833.499 1231.21 839.125 C 1227.27 832.457 1224.14 826.853 1219.34 820.785 z"/>
<path transform="translate(0,0)" fill="rgb(250,250,247)" d="M 1034.98 913.1 C 1042.04 906.806 1143.03 871.697 1162.17 863.65 C 1167.57 861.377 1185.58 850.204 1188.13 850.117 C 1190.2 852.655 1189.44 853.08 1189.5 857.263 C 1190.59 861.098 1189.89 861.312 1193.77 863.1 C 1164.09 880.027 1130.03 896.683 1099.23 911.762 C 1083.27 919.579 1060.36 930.963 1044.28 937.629 C 1042 928.782 1038.87 921.307 1034.98 913.1 z"/>
<path transform="translate(0,0)" fill="rgb(250,250,247)" d="M 1786.08 721.808 C 1787.52 724.278 1788.37 726.106 1790.49 728.051 C 1755.61 753.729 1722.79 783.763 1689.71 810.33 C 1636.65 852.946 1580.58 911.751 1507.29 906.945 C 1496.75 906.254 1472.14 901.15 1464.02 903.731 C 1450.16 894.206 1440.16 888.699 1425.25 881.407 C 1426.48 880.495 1427.78 879.663 1429.44 880.118 C 1448.18 885.281 1467.54 893.126 1486.81 895.6 C 1511.19 898.729 1550.24 897.515 1572.71 886.435 C 1626.63 859.859 1672.06 813.659 1718.99 776.45 C 1742.17 757.621 1763.1 740.117 1786.08 721.808 z"/>
<path transform="translate(0,0)" fill="rgb(250,250,247)" d="M 1206.19 630.377 C 1199.91 629.066 1186.25 645.66 1176.89 647.666 C 1175.85 642.803 1177.06 644.635 1173.58 641.692 C 1179.59 635.281 1201.65 622.792 1210.62 616.74 L 1212.72 623.135 C 1211.64 627.894 1211.01 628.421 1206.19 630.377 z"/>
<path transform="translate(0,0)" fill="rgb(235,97,69)" d="M 987.962 564.371 C 989.679 561.894 991.99 558.271 994.098 556.231 C 1012.79 538.141 1042.09 550.101 1040.88 576.669 C 1040.02 595.56 1025.83 608.397 1013.23 620.333 C 1004.81 628.219 996.665 635.02 987.833 642.398 C 971.409 630.7 947.717 610.309 939.025 591.766 C 930.313 573.179 936.556 555.611 956.21 548.159 C 973.059 546.889 979.343 550.354 987.962 564.371 z"/>
<path transform="translate(0,0)" fill="rgb(235,97,69)" d="M 1012.85 425.089 C 1024.23 424.868 1028.91 427.902 1034.18 437.635 C 1047.32 429.331 1067 426.621 1065.67 449.453 C 1065.12 458.772 1055.62 465.82 1048.4 470.963 C 1041.06 476.236 1033.72 480.841 1026.11 485.679 C 1012.75 471.115 985.83 439.336 1012.85 425.089 z"/>
<path transform="translate(0,0)" fill="rgb(250,250,247)" d="M 1141.21 663.188 C 1143.51 664.565 1145.86 666.753 1146.03 669.472 C 1144.29 672.787 1106.64 696.501 1100.35 700.805 C 1031.39 747.487 963.167 795.254 895.714 844.088 C 893.848 844.697 893.461 844.559 891.462 844.712 L 890.043 843.348 C 890.593 836.235 923.426 814.842 931.034 809.398 C 955.411 791.98 979.888 774.703 1004.46 757.568 L 1088.76 698.794 C 1105.33 687.287 1124.21 673.657 1141.21 663.188 z"/>
<path transform="translate(0,0)" fill="rgb(235,97,69)" d="M 279.126 809.895 C 288.748 810.133 291.471 813.421 297.244 820.318 C 309.746 812.326 324.293 814.594 321.989 832.772 C 320.86 841.682 313.219 846.663 306.25 851.348 C 299.744 855.273 295.038 857.735 288.181 861.056 C 276.079 846.839 253.666 822.458 279.126 809.895 z"/>
<path transform="translate(0,0)" fill="rgb(251,171,66)" d="M 517.829 442.545 C 535.835 466.01 537.283 466.908 567.283 470.666 C 555.015 472.453 549.46 472.955 538.302 478.857 C 526.271 487.07 524.956 489.464 520.004 503.094 C 511.184 483.09 510.418 463.147 517.829 442.545 z"/>
<path transform="translate(0,0)" fill="rgb(250,250,247)" d="M 434.662 588.884 C 436.623 590.975 434.328 595.823 433.74 598.493 C 431.467 608.801 432.201 612.513 437.406 621.27 C 423.757 623.029 415.3 626.869 403.202 632.958 C 400.733 633.624 401.523 633.612 399.178 633.293 L 398.569 631.36 C 401.516 616.773 423.99 598.448 434.662 588.884 z"/>
<path transform="translate(0,0)" fill="rgb(251,171,66)" d="M 352.524 1123.74 C 355.096 1126.17 356.239 1129.64 357.68 1132.95 C 351.705 1136.21 344.639 1139.2 338.363 1142.01 L 336.245 1142.38 L 336.145 1140.92 C 340.175 1135.57 347.565 1128.66 352.524 1123.74 z"/>
<path transform="translate(0,0)" fill="rgb(41,60,63)" d="M 1008.89 1801.5 C 1031.92 1799.74 1068.53 1803.3 1092.54 1804.78 L 1230.9 1812.72 L 1788.35 1843.31 L 1941.25 1852.14 C 1952.29 1852.8 2015.2 1855.08 2018.49 1861.53 C 2004.41 1871.72 1141.25 1932.15 1037.25 1939.89 C 1010.2 1941.84 962.007 1936.53 932.939 1934.4 L 755.415 1921.7 C 583.396 1909.97 411.466 1896.97 239.64 1882.7 C 195.764 1879.44 151.911 1875.88 108.084 1872.03 C 88.9499 1870.34 35.8289 1866.69 20.5749 1860.29 C 38.7255 1854.59 98.9795 1852.03 120.091 1850.78 L 268.395 1842.04 L 777.151 1814.54 C 853.931 1810.36 932.263 1806.73 1008.89 1801.5 z"/>
<path transform="translate(0,0)" fill="rgb(190,76,53)" d="M 253.518 1432.75 C 268.266 1429.16 296.42 1420.37 311.819 1425.31 C 318.882 1427.57 316.858 1446.58 318.192 1452.13 C 322.441 1480.75 329.195 1513.8 349.565 1535.77 C 357.095 1526.37 354.516 1512.41 371.451 1509.57 C 374.042 1509.13 374.239 1509.03 376.968 1509.76 C 384.995 1519.2 362.258 1548.1 356.202 1555.62 C 359.108 1563.26 362.726 1570.62 361.474 1578.73 L 359.996 1580.58 C 350.629 1580.95 353.129 1570.33 349.144 1568.25 C 348.267 1569.86 347.697 1570.91 346.933 1572.58 C 349.79 1577.32 350.664 1578.78 352.494 1583.95 C 348.993 1598.56 344.12 1651.71 345.292 1666.13 C 341.237 1686.41 350.298 1712.86 320.159 1715.67 L 311.69 1715.52 C 298.873 1714.44 297.667 1713.31 286.197 1706.65 C 265.969 1654.62 254.362 1588.3 242.506 1533.4 C 237.185 1508.77 227.174 1464.19 225.37 1440.64 C 234.28 1436.8 244.022 1434.93 253.518 1432.75 z M 344.78 1540.21 C 336.824 1537.08 322.279 1532.62 314.735 1538.24 C 313.808 1544.35 321.248 1544.64 325.756 1545.47 C 331.697 1546.31 341.099 1549.57 345.917 1546.94 C 347.072 1543.61 346.61 1544.53 344.78 1540.21 z M 339.605 1564.16 C 343.317 1563.54 341.723 1564.29 344.567 1561.84 C 345.641 1557.87 345.953 1559.57 344.446 1556.47 C 339.748 1553.85 331.202 1554.25 325.348 1553.97 C 320.864 1554.15 319.76 1553.45 316.496 1555.46 C 316.451 1558.99 316.236 1559 318.166 1562.12 C 323.668 1566.07 331.608 1563.78 339.605 1564.16 z M 346.378 1572.71 C 344.664 1572.33 342.055 1572.2 340.229 1572.04 C 333.044 1572.41 325.705 1572.21 319.295 1575.41 L 318.253 1577.26 C 322.723 1584.99 337.433 1584.35 344.564 1580.5 C 346.622 1577.99 346.267 1576.02 346.378 1572.71 z M 330.159 1601.33 C 338.56 1600.3 341.781 1600.81 347.683 1595.01 C 348.691 1592.14 348.819 1593.48 347.996 1590.91 C 345.489 1589.71 343.681 1589.62 340.658 1590.38 C 334.527 1591.07 327.403 1591.33 321.991 1593.88 L 320.487 1595.88 C 321.35 1599.41 320.541 1597.83 323.378 1600.58 C 326.625 1601.27 326.87 1601.37 330.159 1601.33 z"/>
<path transform="translate(0,0)" fill="rgb(93,46,35)" d="M 225.37 1440.64 C 234.28 1436.8 244.022 1434.93 253.518 1432.75 C 266.547 1493.02 279.011 1552.9 290.662 1613.45 C 296.987 1646.32 308.632 1682.44 311.69 1715.52 C 298.873 1714.44 297.667 1713.31 286.197 1706.65 C 265.969 1654.62 254.362 1588.3 242.506 1533.4 C 237.185 1508.77 227.174 1464.19 225.37 1440.64 z"/>
<path transform="translate(0,0)" fill="rgb(235,97,69)" d="M 349.565 1535.77 C 357.095 1526.37 354.516 1512.41 371.451 1509.57 C 374.042 1509.13 374.239 1509.03 376.968 1509.76 C 384.995 1519.2 362.258 1548.1 356.202 1555.62 C 359.108 1563.26 362.726 1570.62 361.474 1578.73 L 359.996 1580.58 C 350.629 1580.95 353.129 1570.33 349.144 1568.25 C 348.267 1569.86 347.697 1570.91 346.933 1572.58 L 346.378 1572.71 C 344.664 1572.33 342.055 1572.2 340.229 1572.04 C 337.415 1570.19 336.072 1569.51 333.824 1566.92 L 334.744 1565.37 L 339.605 1564.16 C 343.317 1563.54 341.723 1564.29 344.567 1561.84 C 345.641 1557.87 345.953 1559.57 344.446 1556.47 C 339.748 1553.85 331.202 1554.25 325.348 1553.97 C 324.401 1550.4 323.192 1548.32 325.756 1545.47 C 331.697 1546.31 341.099 1549.57 345.917 1546.94 C 347.072 1543.61 346.61 1544.53 344.78 1540.21 C 346.62 1537.8 347.18 1537.64 349.565 1535.77 z"/>
<path transform="translate(0,0)" fill="rgb(235,97,69)" d="M 193.382 434.27 C 220.382 431.855 235.628 444.264 249.006 465.895 C 255.562 454.844 262.132 444.945 274.301 439.221 C 292.834 430.427 319.465 432.528 334.106 447.745 C 359.969 474.626 350.66 511.131 329.494 537.128 C 318.104 551.117 308.094 562.14 295.529 574.706 C 280.703 589.262 264.368 606.305 247.851 618.45 C 219.534 597.242 157.745 537.499 148.852 501.526 C 141.045 469.942 158.545 440.309 193.382 434.27 z"/>
<path transform="translate(0,0)" fill="rgb(190,76,53)" d="M 111.141 1460.47 C 103.935 1458.29 89.1639 1455.51 85.2996 1448.71 C 78.3025 1436.39 138.102 1220.73 147.18 1188.94 C 148.489 1184.35 151.581 1172.73 155.94 1170.9 C 164.122 1167.47 176.983 1174 184.552 1177.25 C 196.547 1181.65 208.417 1185.84 219.92 1191.53 C 230.277 1196.66 243.2 1202.74 236.484 1216.71 C 226.566 1237.35 216.935 1258.02 215.178 1281.24 C 214.062 1293.24 214.799 1308.81 212.638 1320.26 C 218.658 1313.24 232.328 1300.73 241.811 1307.35 C 245.052 1320.77 220.804 1334.18 211.378 1340.59 C 209.592 1351.02 208.497 1361.5 200.708 1369.38 L 198.61 1369.87 C 193.615 1364.15 199.675 1353.23 201.198 1346.91 C 195.824 1353.04 187.02 1362.32 182.986 1369.18 C 169.079 1392.83 149.907 1449.41 127.624 1463.85 C 120.604 1463.01 117.959 1462.42 111.141 1460.47 z M 188.439 1299.74 C 186.442 1302.77 186.146 1302.72 186.269 1306.44 C 189.49 1314.28 199.767 1322.19 206.1 1328.51 C 212.658 1316.54 199.463 1303.09 188.439 1299.74 z M 195.812 1340.25 C 198.51 1337.01 198.258 1338.2 198.88 1334.5 C 196.515 1328.01 185.645 1321.33 179.508 1318.65 C 176.797 1322.21 176.717 1321.19 176.51 1324.9 C 179.644 1331.22 189.732 1337.79 195.812 1340.25 z M 188.312 1352.01 L 189.672 1349.43 C 187.397 1344.25 176.486 1340.02 171.06 1337.56 L 168.819 1341.08 C 170.813 1348.22 181.546 1352.15 188.312 1352.01 z M 181.343 1368.16 C 182.939 1363.55 183.492 1364.23 182.635 1360.16 C 178.092 1357 173.304 1357.82 167.465 1357.8 C 168.708 1364.39 173.16 1367.36 179.457 1368.7 L 181.343 1368.16 z"/>
<path transform="translate(0,0)" fill="rgb(41,60,63)" d="M 111.141 1460.47 C 103.935 1458.29 89.1639 1455.51 85.2996 1448.71 C 78.3025 1436.39 138.102 1220.73 147.18 1188.94 C 148.489 1184.35 151.581 1172.73 155.94 1170.9 C 164.122 1167.47 176.983 1174 184.552 1177.25 C 178.877 1187.45 176.113 1200.84 172.948 1212.13 C 150.836 1291.04 129.359 1370.02 111.648 1450.05 C 110.977 1453.08 111.05 1457.36 111.141 1460.47 z"/>
<path transform="translate(0,0)" fill="rgb(228,209,180)" d="M 358.033 1666.33 C 371.323 1640.65 386.538 1624 415.182 1615.06 C 436.739 1608.17 460.152 1610.13 480.259 1620.52 C 497.196 1629.45 505.207 1639.61 515.792 1654.99 C 557.673 1622.96 599.215 1646.27 626.935 1683.47 C 635.114 1694.28 641.835 1706.13 646.922 1718.7 C 629.695 1719.14 612.223 1718.54 594.896 1718.66 L 421.94 1719.05 C 395.859 1719.08 354.481 1717.89 330.005 1719.76 C 327.335 1716.6 324.853 1716.87 320.159 1715.67 C 350.298 1712.86 341.237 1686.41 345.292 1666.13 C 350.07 1664.91 353.138 1665.7 358.033 1666.33 z"/>
<path transform="translate(0,0)" fill="rgb(239,225,203)" d="M 1723.4 1644.32 C 1757.15 1642.62 1769.24 1659.63 1774.67 1690.05 C 1775.45 1689.67 1776.23 1689.29 1777.02 1688.91 C 1806.8 1674.7 1841.34 1673.64 1854.99 1709.05 C 1856.24 1712.29 1857.54 1715.06 1856.07 1718.4 C 1849.15 1720.63 1806.21 1719.21 1795.36 1719.19 L 1655.25 1718.99 L 1574.92 1718.83 C 1567.51 1718.87 1530.34 1720.58 1526.31 1717.27 L 1526.13 1714.86 C 1538.39 1690.49 1574.8 1692.57 1597.12 1693.21 C 1603.33 1657.31 1630.73 1640.08 1666.32 1650.69 C 1674.66 1653.17 1681.26 1659.81 1687.27 1665.87 C 1699.73 1652.11 1704.74 1648.11 1723.4 1644.32 z"/>
<path transform="translate(0,0)" fill="rgb(41,60,63)" d="M 1821.5 1007.24 C 1824.08 1002.25 1827.52 995.11 1830.31 990.45 C 1843.08 995.257 1877.59 1013.79 1888.54 1022.1 C 1886.14 1025.78 1883.71 1029.42 1881.23 1033.05 C 1884.55 1035.75 1891.69 1041.92 1895.07 1043.53 C 1897.71 1042.06 1900.46 1039.8 1903.06 1040.98 C 1920.9 1049.11 1993.83 1089.6 2003.19 1102.78 C 2003.55 1106.97 1997.66 1114.42 1995.08 1118.17 C 1964.48 1118.36 1918.04 1116.37 1887.55 1111.82 C 1894.38 1114.5 1905.28 1118.57 1901.17 1128.52 C 1892.97 1137.69 1877.17 1126.53 1868.36 1122.7 C 1872.57 1130.65 1875.86 1136.93 1873.34 1146.33 C 1870.93 1155.33 1855.11 1152.47 1852.77 1145.25 C 1850.47 1138.12 1855.1 1128.31 1858.22 1121.97 L 1857.47 1120.56 L 1854.43 1120.8 L 1852.93 1118.06 C 1846.39 1118.38 1828.73 1117.47 1823.72 1113.4 C 1823.33 1111.74 1822.25 1106.76 1821.33 1105.81 C 1813 1097.14 1799.06 1093.85 1788.92 1087.01 C 1791.32 1083.32 1793.86 1081.26 1796.2 1077.23 C 1799.71 1060.3 1803.34 1047.5 1810.27 1031.46 C 1813.32 1024.39 1818.21 1015.64 1820.84 1008.94 L 1821.5 1007.24 z M 1892.38 1128.46 C 1895.82 1124.94 1895.57 1126.19 1896.56 1122.03 C 1893.33 1113.48 1880.93 1114.44 1873.3 1114.96 L 1870.23 1118.13 L 1870.25 1119.49 L 1871.88 1119.78 C 1885.81 1122.28 1883.32 1127.12 1892.38 1128.46 z M 1866.07 1148.54 C 1873.86 1139.84 1869.47 1133.16 1862.17 1125.61 C 1857.22 1133.96 1851.83 1146.14 1866.07 1148.54 z M 1874.62 1096.68 C 1878.05 1100.85 1878.15 1102.14 1879.41 1107.46 L 1881.15 1109.19 L 1883.39 1108.91 C 1883.2 1100.21 1876.26 1096.15 1868.41 1095.44 C 1864.92 1100.28 1861.35 1104.38 1861.28 1110.46 L 1862.52 1112.55 L 1864.52 1112.46 C 1870.17 1106.15 1868.81 1102.32 1874.62 1096.68 z"/>
<path transform="translate(0,0)" fill="rgb(159,63,36)" d="M 1788.92 1087.01 C 1791.32 1083.32 1793.86 1081.26 1796.2 1077.23 C 1800.51 1078.28 1803.83 1076.41 1807.94 1076.5 C 1820.12 1076.77 1833.51 1079.79 1841.48 1089.76 C 1847.44 1097.02 1851.37 1109.08 1852.93 1118.06 C 1846.39 1118.38 1828.73 1117.47 1823.72 1113.4 C 1823.33 1111.74 1822.25 1106.76 1821.33 1105.81 C 1813 1097.14 1799.06 1093.85 1788.92 1087.01 z"/>
<path transform="translate(0,0)" fill="rgb(41,60,63)" d="M 1869.86 1262.72 C 1884.01 1238.2 1912.93 1218.13 1937.49 1204.6 C 1945.56 1214.16 1968.83 1252.48 1973.96 1264.06 L 1963.75 1269.24 C 1969.12 1278.99 1971.52 1289.05 1982.78 1290.91 C 1991.44 1297.04 2029.81 1372.85 2034.05 1386.47 C 2028.81 1391.7 2027.76 1392.54 2021.34 1396.58 C 2011.88 1393.27 1996.14 1382.77 1987.16 1377.15 C 1972.45 1368.02 1957.82 1358.76 1943.27 1349.37 C 1934.77 1343.83 1925.83 1337.09 1916.55 1333.4 C 1923.75 1339.8 1929.97 1345.72 1923.94 1356.07 C 1912.55 1363.64 1905.87 1349.56 1901.6 1341.29 C 1890.98 1364.51 1868.52 1355.66 1877.37 1337.74 C 1878.6 1335.26 1889.26 1329.24 1892.69 1326.92 C 1890.74 1325.33 1891.41 1325.76 1889.01 1324.65 L 1889.45 1323.62 C 1886.7 1319.1 1879.52 1313.9 1876.9 1309.05 C 1874.95 1305.42 1875.59 1300.36 1873.57 1295.93 C 1869.58 1287.13 1863.35 1278.3 1858.04 1270.18 C 1863.5 1267.4 1864.94 1266.66 1869.86 1262.72 z M 1882.48 1351.1 C 1893.19 1350.63 1903.23 1335.4 1895.95 1329.82 C 1893.18 1336.72 1872.46 1338.57 1882.48 1351.1 z M 1919.77 1353.55 C 1920.93 1350.78 1922.5 1348.72 1921.25 1345.76 C 1918.67 1339.69 1912.4 1334.06 1906.08 1332.35 C 1905.64 1340.22 1908.73 1350.75 1916.54 1354.15 L 1919.77 1353.55 z M 1922.46 1317.04 C 1919.63 1314.39 1919.4 1313.92 1915.48 1313.31 C 1910.24 1314.38 1903.71 1320.15 1902.55 1325.22 C 1909.74 1326.12 1910.4 1310.75 1920.96 1319.09 C 1917.99 1323.15 1913.08 1327.1 1917.04 1331.34 C 1924.65 1329.47 1925 1323.23 1922.46 1317.04 z"/>
<path transform="translate(0,0)" fill="rgb(159,63,36)" d="M 1869.86 1262.72 C 1883.29 1274.8 1896.52 1280.21 1897.19 1300.81 C 1897.36 1305.92 1897.97 1318.88 1895.29 1322.66 C 1891.61 1324.45 1893.5 1324.14 1889.45 1323.62 C 1886.7 1319.1 1879.52 1313.9 1876.9 1309.05 C 1874.95 1305.42 1875.59 1300.36 1873.57 1295.93 C 1869.58 1287.13 1863.35 1278.3 1858.04 1270.18 C 1863.5 1267.4 1864.94 1266.66 1869.86 1262.72 z"/>
<path transform="translate(0,0)" fill="rgb(0,0,0)" fill-opacity="0.0588235" d="M 1920.96 1319.09 C 1910.4 1310.75 1909.74 1326.12 1902.55 1325.22 C 1903.71 1320.15 1910.24 1314.38 1915.48 1313.31 C 1919.4 1313.92 1919.63 1314.39 1922.46 1317.04 L 1920.96 1319.09 z"/>
<path transform="translate(0,0)" fill="rgb(251,171,66)" d="M 419.195 120.486 C 453.545 116.071 485.037 140.159 489.766 174.467 C 494.496 208.776 470.697 240.487 436.434 245.531 C 401.723 250.64 369.508 226.462 364.716 191.707 C 359.925 156.951 384.397 124.959 419.195 120.486 z"/>
<path transform="translate(0,0)" fill="rgb(235,97,69)" d="M 171.939 925.24 C 174.322 925.413 177.112 925.613 179.415 926.183 C 186.68 928.008 192.806 932.875 196.227 939.539 C 201.238 949.101 201.655 962.732 197.787 973.822 C 193.474 986.189 176.999 1020.21 166.21 1027.37 C 162.295 1029.97 134.491 1015.52 128.817 1012.82 C 112.999 1004.28 98.2703 994.765 94.2519 975.636 C 90.8383 959.384 100.474 942.828 117.734 941.267 C 129.314 940.219 135.627 944.85 144.136 951.528 C 149.419 934.837 153.628 928.12 171.939 925.24 z"/>
<path transform="translate(0,0)" fill="rgb(239,225,203)" d="M 183.467 1695.26 C 185.051 1683.18 188.419 1671.53 201.322 1666.96 C 207.33 1664.85 213.941 1665.31 219.598 1668.23 C 230.442 1673.91 233.312 1684.66 236.516 1695.22 C 260.565 1691.27 265.542 1692.14 286.197 1706.65 C 297.667 1713.31 298.873 1714.44 311.69 1715.52 L 320.159 1715.67 C 324.853 1716.87 327.335 1716.6 330.005 1719.76 C 319.616 1720.66 267.243 1720.59 258.918 1719.49 C 236.408 1716.54 69.9855 1722.38 62.5328 1717.1 C 64.8796 1711.78 72.3875 1707.93 77.7894 1706.49 C 93.1436 1702.41 105.154 1705.33 118.59 1712.47 L 122.035 1699.39 C 138.063 1681.71 163.804 1689.81 183.467 1695.26 z"/>
<path transform="translate(0,0)" fill="rgb(235,97,69)" d="M 1863.25 550.123 C 1886.74 548.292 1880.54 558.278 1890.59 560.206 C 1893.64 558.456 1893.98 556.32 1896.27 553.672 C 1898.72 550.869 1904.56 549.838 1908.07 549.566 C 1921.82 548.501 1930.3 559.507 1929.95 572.503 C 1929.62 585.179 1919.08 594.882 1910.9 603.201 C 1907.28 606.762 1893.01 622.686 1887.62 619.404 C 1870.01 608.666 1826.8 565.401 1863.25 550.123 z"/>
<path transform="translate(0,0)" fill="rgb(239,225,203)" d="M 77.0555 320.191 C 97.9468 318.99 104.599 320.91 120.543 334.721 C 134.658 325.369 151.547 320.192 160.101 340.297 C 161.824 344.346 162.139 348.337 160.254 352.397 C 155.71 355.67 134.906 353.999 128.114 353.95 C 107.219 353.856 86.5498 351.69 65.6127 352.589 C 57.2158 352.949 45.2726 353.658 37.2899 351.941 L 36.6213 350.352 C 38.4513 342.905 46.4588 335.435 52.1738 330.462 C 59.641 323.964 67.7089 322.156 77.0555 320.191 z"/>
<path transform="translate(0,0)" fill="rgb(235,97,69)" d="M 1932.4 812.091 C 1940.22 812.677 1950.34 815.974 1949.39 825.654 C 1947.84 841.65 1929.6 855.328 1918.19 864.873 C 1913.85 861.785 1911 859.072 1907.12 855.5 C 1899.74 848.559 1873.05 821.155 1899.32 812.381 C 1905.22 810.411 1914.04 816.509 1918.86 820.742 C 1923.76 815.465 1925.59 814.409 1932.4 812.091 z"/>
<path transform="translate(0,0)" fill="rgb(239,225,203)" d="M 343.024 350.334 C 346.496 350.423 350.615 350.752 353.675 352.543 C 361.838 357.318 378.649 375.353 372.844 385.242 C 368.957 386.704 350.028 386.416 345.003 386.474 C 327.463 387.227 297.304 392.531 319.165 363.736 C 326.437 354.157 331.499 351.742 343.024 350.334 z"/>
<path transform="translate(0,0)" fill="rgb(251,171,66)" d="M 1503.93 156.169 C 1512.71 158.018 1509.46 171.753 1515.44 181.417 C 1522.57 185.502 1540.66 188.811 1542.82 192.309 C 1538.7 198.459 1524.37 195.362 1518.21 201.169 C 1508.77 210.057 1514.29 218.321 1505.03 226.53 C 1497.47 219.147 1501.41 210.124 1492.55 202.135 C 1483.89 194.324 1470.9 197.969 1466.16 192.997 C 1468.73 188.518 1487.41 184.857 1494.51 182.028 C 1500.11 175.59 1500.68 165.178 1503.93 156.169 z"/>
<path transform="translate(0,0)" fill="rgb(239,225,203)" d="M 112.686 578.932 C 115.899 578.696 117.267 578.315 119.916 580.579 C 128.337 587.772 132.54 624.233 125.574 631.722 C 121.586 630.408 117.956 627.029 114.552 624.342 C 101.542 613.447 77.3843 606.379 100.162 588.204 C 104.772 584.525 107.405 582.033 112.686 578.932 z"/>
<path transform="translate(0,0)" fill="rgb(65,53,48)" d="M 798.762 1768.51 C 811.781 1767.22 903.789 1768.06 910.455 1775.09 L 909.063 1775.91 C 894.588 1777.67 803.184 1776.54 797.268 1769.53 L 798.762 1768.51 z"/>
<path transform="translate(0,0)" fill="rgb(65,53,48)" d="M 1250.81 1767.5 C 1256.81 1766.91 1295.44 1765.44 1298.15 1767.99 L 1297.51 1770.09 C 1292.65 1773.79 1254.01 1774.8 1245.75 1775.15 C 1232.29 1776.17 1218.78 1776.26 1205.31 1775.44 L 1204.04 1773.61 L 1204.25 1775.31 L 1203.05 1773.82 L 1202.03 1774.1 L 1203.54 1775.12 L 1203.45 1773.59 L 1203.33 1775.06 L 1201.48 1774.57 L 1201.51 1774.18 C 1210.13 1769.83 1240 1768.24 1250.81 1767.5 z"/>
<path transform="translate(0,0)" fill="rgb(235,97,69)" d="M 1879.46 1443.93 L 1880.78 1444.62 C 1865.26 1454.83 1852.31 1461.11 1838.37 1474.8 C 1831.66 1481.39 1819.38 1496.25 1811.98 1499.52 C 1810.78 1498.19 1810.56 1497.62 1809.62 1496.08 C 1809.4 1474.99 1863.5 1451.23 1879.46 1443.93 z"/>
<path transform="translate(0,0)" fill="rgb(41,60,63)" d="M 251.214 1775.37 C 262.134 1774.94 330.854 1772.45 334.159 1778.3 C 331.412 1780.75 329 1780.44 325.24 1780.74 C 313.607 1781.26 253.037 1782.95 246.461 1779.55 L 246.075 1778 C 248.38 1775.25 246.934 1776.4 251.214 1775.37 z"/>
<path transform="translate(0,0)" fill="rgb(41,60,63)" d="M 1547.67 1763.41 C 1564.37 1763.69 1581.32 1763.22 1598.02 1763.39 C 1606.03 1763.47 1617.3 1762.9 1624.89 1764.14 C 1626.68 1766.36 1625.98 1765.07 1625.7 1768.99 C 1616.68 1769.01 1549.8 1770.33 1546.25 1767.73 C 1546.13 1764.66 1545.76 1766.08 1547.67 1763.41 z"/>
<path transform="translate(0,0)" fill="rgb(235,97,69)" d="M 130.923 790.961 C 115.667 798.443 104.85 807.786 90.8646 816.846 C 87.618 818.95 84.8349 819.939 81.2069 818.968 C 77.3344 806.565 121.234 791.906 130.05 788.964 L 130.923 790.961 z"/>
<path transform="translate(0,0)" fill="rgb(251,171,66)" d="M 512.399 82.5212 C 515.902 83.4955 516.03 83.7548 516.833 86.9347 C 514.835 93.5946 498.007 109.592 492.323 114.542 C 489.893 114.094 490.728 114.374 488.599 113.135 L 488.098 110.617 C 490.681 103.072 506.389 88.3553 512.399 82.5212 z"/>
<path transform="translate(0,0)" fill="rgb(235,97,69)" d="M 1817.48 715.181 C 1818.31 715.145 1819.14 715.123 1819.97 715.116 C 1824.5 715.093 1826.6 715.446 1829.82 718.645 C 1832.77 728.237 1824.63 732.742 1817.1 735.981 L 1822.47 724.98 C 1816.26 720.208 1801.44 725.852 1793.12 727.111 C 1802.15 719.862 1806.29 717.178 1817.48 715.181 z"/>
<path transform="translate(0,0)" fill="rgb(251,171,66)" d="M 496.764 239.801 C 504.284 242.429 521.139 257.667 525.27 265.078 C 525.839 266.099 523.84 268.186 523.17 269.141 C 516.284 266.123 498.142 252.013 494.336 245.356 C 494.47 241.429 493.922 243.304 496.764 239.801 z"/>
<path transform="translate(0,0)" fill="rgb(251,171,66)" d="M 534.56 169.44 C 541.04 168.963 546.106 167.804 551.644 171.316 L 551.869 173.146 C 547.207 178.245 540.106 177.379 533.614 177.57 C 527.025 178.035 522.083 179.179 516.498 175.493 L 516.319 173.891 C 521.198 168.705 527.835 169.617 534.56 169.44 z"/>
<path transform="translate(0,0)" fill="rgb(251,171,66)" d="M 308.95 161.304 C 316.076 161.028 335.053 159.007 339.534 162.673 C 339.861 166.291 339.942 164.457 337.901 168.447 C 330.912 170.331 317.495 171.617 311.077 167.851 C 308.698 164.451 309.405 165.772 308.95 161.304 z"/>
<path transform="translate(0,0)" fill="rgb(251,171,66)" d="M 330.833 239.816 C 335.119 240.325 333.671 239.345 336.02 241.762 L 335.929 243.757 C 332.069 248.985 315.208 256.627 308.59 259.969 C 305.221 258.737 306.48 259.754 304.481 257.083 L 305.173 254.75 C 310.157 249.793 323.924 243.359 330.833 239.816 z"/>
<path transform="translate(0,0)" fill="rgb(251,171,66)" d="M 416.599 339.28 C 419.172 339.655 419.424 339.382 421.22 341.124 C 424.542 348.226 423.832 365.931 421.642 372.966 C 418.89 372.61 418.604 372.909 416.675 371.072 C 413.424 363.753 414.357 346.533 416.599 339.28 z"/>
<path transform="translate(0,0)" fill="rgb(251,171,66)" d="M 319.39 66.8531 C 326.926 69.4897 339.215 81.4232 343.482 88.1554 C 343.861 92.0335 344.181 90.1968 342.214 93.8061 C 337.789 91.391 319.49 76.2184 317.63 70.3657 C 317.228 69.1014 318.344 68.3023 319.39 66.8531 z"/>
<path transform="translate(0,0)" fill="url(#Gradient1)" d="M 236.667 691.347 C 251.886 701.39 229.599 723.594 220.642 730.094 L 219.781 730.631 L 219.298 729.772 C 234.155 709.99 229.505 712.608 236.051 693.134 L 236.667 691.347 z"/>
<path transform="translate(0,0)" fill="rgb(251,171,66)" d="M 362.048 253.632 C 370.193 254.21 377.735 259.238 382.836 265.665 C 384.563 267.841 383.517 270.093 382.979 272.553 C 375.656 272.026 367.439 266.303 362.722 260.703 C 360.746 258.356 361.561 256.35 362.048 253.632 z"/>
<path transform="translate(0,0)" fill="rgb(251,171,66)" d="M 416.431 271.306 C 419.348 271.514 419.327 271.313 421.788 272.78 C 426.109 279.372 424.262 291.758 423.312 299.61 C 420.383 299.474 420.511 299.525 417.786 298.472 C 413.73 292.589 415.881 278.892 416.431 271.306 z"/>
<path transform="translate(0,0)" fill="rgb(251,171,66)" d="M 327.29 195.817 C 330.305 195.753 330.766 195.504 333.544 196.75 C 339.253 203.201 340.543 210.767 334.335 217.431 C 328.12 212.239 321.192 203.364 327.29 195.817 z"/>
<path transform="translate(0,0)" fill="rgb(251,171,66)" d="M 395.24 89.9053 C 398.394 89.6099 399.194 89.1992 402.024 90.5419 C 403.57 96.7728 387.73 101.354 383.218 102.996 C 379.18 103.729 380.94 104.115 377.68 102.212 C 375.169 95.4415 389.794 92.033 395.24 89.9053 z"/>
<path transform="translate(0,0)" fill="rgb(251,171,66)" d="M 511.253 132.071 C 513.948 131.902 514.268 131.954 516.959 132.33 C 523.073 136.485 523.295 141.818 522.072 148.713 C 510.514 150.35 509.618 141.107 511.253 132.071 z"/>
<path transform="translate(0,0)" fill="rgb(251,171,66)" d="M 515.912 201.262 C 526.687 204.484 519.338 218.229 514.644 223.666 C 512.864 223.259 512.612 223.05 510.922 222.321 C 508.952 216.885 513.774 206.972 515.912 201.262 z"/>
<path transform="translate(0,0)" fill="rgb(251,171,66)" d="M 352.908 116.576 L 355.512 117.053 C 361.151 123.164 351.488 131.399 346.661 134.807 C 343.733 134.207 345.048 134.785 342.889 132.606 C 341.96 126.047 348.327 120.313 352.908 116.576 z"/>
<path transform="translate(0,0)" fill="rgb(251,171,66)" d="M 534.045 273.787 C 543.61 273.593 549.878 279.033 550.987 288.515 C 542.311 287.654 535.539 282.63 534.045 273.787 z"/>
<path transform="translate(0,0)" fill="rgb(251,171,66)" d="M 441.053 84.1121 C 445.792 84.5182 451.627 84.7552 453.823 89.3997 C 452.246 92.1779 452.517 91.3813 449.075 93.0952 C 444.283 93.0953 436.748 93.0547 434.928 87.763 C 437.495 84.7363 436.809 85.6525 441.053 84.1121 z"/>
<path transform="translate(0,0)" fill="rgb(251,171,66)" d="M 458.064 267.02 C 462.045 266.462 463.211 266.21 465.674 269.161 L 465.053 271.632 C 462.482 275.137 461.391 275.016 456.913 276.286 C 452.913 276.884 451.605 277.565 449.288 273.961 L 450.064 271.141 C 453.45 267.63 452.762 268.658 458.064 267.02 z"/>
<path transform="translate(0,0)" fill="rgb(251,171,66)" d="M 418.377 313.576 C 422.082 315.488 421.927 315.786 423.245 318.919 C 422.988 322.569 423.112 322.338 420.867 325.213 C 416.965 323.763 416.991 323.737 415.542 320.116 C 416.111 316.268 416.127 316.466 418.377 313.576 z"/>
<path transform="translate(0,0)" fill="rgb(251,171,66)" d="M 346.631 232.153 C 350.871 232.854 350.914 232.894 353.033 235.462 C 353.348 238.897 352.793 239.137 351.013 242.11 C 348.221 242.164 348.164 242.434 345.88 240.967 C 344.605 238.155 345.841 235.363 346.631 232.153 z"/>
<path transform="translate(0,0)" fill="rgb(190,76,53)" fill-opacity="0.784314" d="M 130.05 788.964 C 133.422 787.584 138.47 785.072 141.871 785.179 C 139.074 787.824 134.559 789.383 130.923 790.961 L 130.05 788.964 z"/>
</svg>