<svg version="1.1" xmlns="http://www.w3.org/2000/svg" style="display: block;" viewBox="0 0 2048 2048" width="2000" height="2000" preserveAspectRatio="none">
<defs>
	<linearGradient id="Gradient1" gradientUnits="userSpaceOnUse" x1="1099.25" y1="495.495" x2="1056.07" y2="494.324">
		<stop class="stop0" offset="0" stop-opacity="1" stop-color="rgb(65,10,6)"/>
		<stop class="stop1" offset="1" stop-opacity="1" stop-color="rgb(43,16,14)"/>
	</linearGradient>
	<linearGradient id="Gradient2" gradientUnits="userSpaceOnUse" x1="1121.11" y1="802.908" x2="1138.1" y2="811.655">
		<stop class="stop0" offset="0" stop-opacity="1" stop-color="rgb(51,10,7)"/>
		<stop class="stop1" offset="1" stop-opacity="1" stop-color="rgb(40,21,24)"/>
	</linearGradient>
</defs>
<path transform="translate(0,0)" fill="rgb(45,16,13)" d="M 879.794 728.77 C 909.215 731.883 938.502 736.15 967.588 741.56 C 979.958 743.91 993.417 746.239 1005.61 749.016 C 1010.18 749.685 1014.73 750.515 1019.25 751.506 C 1027.07 752.99 1073.03 760.414 1076.81 762.721 L 1077.26 763.709 L 1078.6 762.472 C 1089.01 763.459 1128.29 770.371 1138.63 772.94 L 1142.78 773.381 C 1183.9 781.552 1234.99 789.861 1276.63 795.218 L 1287.06 796.889 C 1290.85 808.498 1293.94 831.149 1297 844.694 C 1304.38 877.316 1313.86 903.759 1327.29 934.28 C 1330.8 942.262 1342.87 963.135 1341.92 968.279 C 1338.59 970.148 1326.24 967.505 1322.16 966.757 C 1303.88 963.41 1287.34 961.948 1268.96 960.734 C 1255.71 959.859 1232.52 960.309 1220.56 957.07 C 1229.03 984.629 1237.12 1060.61 1237.45 1089.63 C 1223.32 1084.59 1217.92 1081.11 1205.2 1073.51 C 1205.56 1107.57 1206.22 1151.11 1180.87 1177.41 C 1174.28 1184.24 1160.83 1190.79 1156.82 1195.48 L 1161.37 1193.55 C 1176.37 1187.23 1213.64 1184.84 1228.86 1188.53 C 1229.73 1190.94 1228.18 1194.14 1227.31 1197.12 L 1226.19 1199.96 C 1213.45 1205.44 1134.48 1197.48 1113.87 1201.87 C 1149.86 1202.96 1189.47 1202.15 1225.73 1202.14 C 1220.9 1225.26 1219.49 1239.09 1217.73 1262.64 L 1212.95 1263.43 C 1204.83 1264.52 1169.87 1263.83 1160.49 1263.83 L 1046.57 1263.69 L 921.882 1263.74 C 909.39 1263.76 871.526 1264.62 861.141 1262.87 C 869.488 1304.82 878.211 1346.69 887.31 1388.49 C 892.583 1412.73 897.996 1436.87 903 1461.23 C 906.166 1476.65 903.697 1477.87 888.656 1481.85 C 883.972 1483.09 879.015 1484.14 874.277 1485.23 C 863.402 1486.86 839.383 1493.65 827.971 1496.68 C 814.445 1500.27 792.522 1504.93 779.812 1509.06 C 771.986 1511.14 752.612 1518.23 745.529 1514.57 C 738.445 1510.91 669.338 1285.6 662.945 1262.78 C 650.575 1264.57 618.463 1263.72 605.591 1262.75 L 605.139 1263.9 C 596.729 1263.95 556.557 1263.45 550.711 1264.53 L 549.068 1262.8 C 521.982 1264.6 494.729 1263.52 467.994 1264.09 C 430.951 1264.89 442.823 1244.94 448.911 1220.23 C 451.488 1209.78 454.818 1196.6 465.209 1190.92 C 469.108 1188.79 478.328 1187.85 482.984 1187.28 C 508.13 1187.72 624.576 1183.5 640.953 1188.31 C 635.098 1166.22 627.811 1143.2 624.056 1120.78 C 595.855 1130.32 567.08 1138.97 538.824 1148.37 C 526.202 1152.56 510.776 1156.94 498.596 1161.72 L 494.567 1162.53 C 491.021 1163.89 487.461 1165.22 483.887 1166.51 C 466.714 1172.64 462.978 1166.3 459.318 1151 C 450.288 1119.67 442.257 1088.05 435.237 1056.21 C 427.668 1027.85 433.089 1023.28 460.144 1014.61 L 462.152 1013.85 C 523.284 986.64 584.711 960.096 646.42 934.222 C 686.543 917.134 723.932 898.999 766.032 886.926 C 776.194 884.185 786.866 881.827 797.14 879.408 C 761.356 851.381 791.109 768.61 801.396 733.179 C 813.525 739.097 817.899 737.502 830.384 738.945 C 849.298 738.172 863.243 739.116 879.794 728.77 z M 848.612 1196.9 L 893.852 1197.04 C 868.563 1185.01 863.853 1173.09 848.635 1150.17 C 846.121 1146.38 842.319 1139.79 839.59 1136.57 C 842.062 1157.21 845.98 1176.68 848.612 1196.9 z"/>
<path transform="translate(0,0)" fill="rgb(88,83,104)" d="M 879.794 728.77 C 909.215 731.883 938.502 736.15 967.588 741.56 C 979.958 743.91 993.417 746.239 1005.61 749.016 C 1010.18 749.685 1014.73 750.515 1019.25 751.506 C 1027.07 752.99 1073.03 760.414 1076.81 762.721 L 1077.26 763.709 L 1078.6 762.472 C 1089.01 763.459 1128.29 770.371 1138.63 772.94 L 1142.78 773.381 C 1183.9 781.552 1234.99 789.861 1276.63 795.218 L 1287.06 796.889 C 1290.85 808.498 1293.94 831.149 1297 844.694 C 1304.38 877.316 1313.86 903.759 1327.29 934.28 C 1330.8 942.262 1342.87 963.135 1341.92 968.279 C 1338.59 970.148 1326.24 967.505 1322.16 966.757 C 1303.88 963.41 1287.34 961.948 1268.96 960.734 C 1255.71 959.859 1232.52 960.309 1220.56 957.07 C 1215.74 949.644 1214.72 948.487 1206.6 945.091 C 1208.16 939.247 1209.47 933.574 1211.88 928.026 L 1210.79 925.876 C 1206.92 924.775 1196.21 931.52 1190.02 932.198 C 1126.55 939.149 1057.33 895.669 1009.14 859.147 C 1024.93 853.219 1083.67 832.272 1091.41 820.791 C 1091.9 817.459 1092.23 818.975 1090.29 816.116 C 1086.49 816.834 1085.23 823.25 1079.12 825.981 C 1035.67 844.995 991.328 861.877 946.238 876.566 C 940.685 878.434 935.434 880.134 929.991 882.481 C 897.374 896.544 846.214 907.219 812.932 891.247 C 807.95 888.856 801.586 882.948 797.14 879.408 C 761.356 851.381 791.109 768.61 801.396 733.179 C 813.525 739.097 817.899 737.502 830.384 738.945 C 849.298 738.172 863.243 739.116 879.794 728.77 z"/>
<path transform="translate(0,0)" fill="rgb(254,212,226)" d="M 1276.63 795.218 L 1287.06 796.889 C 1290.85 808.498 1293.94 831.149 1297 844.694 C 1304.38 877.316 1313.86 903.759 1327.29 934.28 C 1330.8 942.262 1342.87 963.135 1341.92 968.279 C 1338.59 970.148 1326.24 967.505 1322.16 966.757 C 1303.88 963.41 1287.34 961.948 1268.96 960.734 C 1255.71 959.859 1232.52 960.309 1220.56 957.07 C 1215.74 949.644 1214.72 948.487 1206.6 945.091 C 1208.16 939.247 1209.47 933.574 1211.88 928.026 C 1212.09 927.184 1212.31 926.342 1212.52 925.5 C 1222.09 917.997 1236.57 902.706 1242.06 892.546 C 1258.62 861.915 1267.58 828.428 1276.63 795.218 z"/>
<path transform="translate(0,0)" fill="rgb(254,137,121)" d="M 879.794 728.77 C 909.215 731.883 938.502 736.15 967.588 741.56 C 963.716 746.408 955.926 756.776 951.954 760.837 L 947.865 762.805 C 943.153 765.124 910.661 769.306 903.417 770.564 C 896.662 787.81 897.642 811.442 887.34 821.354 L 885.115 821.841 C 878.843 817.619 878.51 797.689 879.366 790.791 L 876.553 791.245 C 876.472 792.588 876.346 793.928 876.174 795.262 C 875.15 802.88 867.642 823.924 857.378 820.088 C 854.887 815.658 857.079 775.031 858.18 768.393 L 855.445 768.352 C 853.361 781.274 846.922 819.24 828.764 815.896 C 827.312 814.552 825.65 812.987 826.191 810.575 C 827.961 802.682 829.432 781.42 832.298 775.164 L 829.851 773.563 C 826.492 782.127 813.719 800.602 803.228 798.845 C 792.042 789.488 823.297 747.231 830.384 738.945 C 849.298 738.172 863.243 739.116 879.794 728.77 z"/>
<path transform="translate(0,0)" fill="rgb(45,16,13)" d="M 829.851 773.563 C 830.144 765.798 832.534 744.715 839.62 740.641 L 841.486 741.112 C 842.205 744.961 838.962 746.89 837.586 751.582 C 835.631 758.246 835.807 769.389 832.298 775.164 L 829.851 773.563 z"/>
<path transform="translate(0,0)" fill="rgb(45,16,13)" d="M 876.553 791.245 C 875.17 782.469 875.814 764.742 882.693 758.305 C 883.751 760.125 883.73 761.854 882.857 763.949 C 879.222 772.677 881.969 781.616 879.366 790.791 L 876.553 791.245 z"/>
<path transform="translate(0,0)" fill="rgb(45,16,13)" d="M 855.445 768.352 C 854.745 759.818 856.537 753.621 861.461 746.793 L 863.364 745.79 C 864.674 748.836 859.615 764.829 858.18 768.393 L 855.445 768.352 z"/>
<path transform="translate(0,0)" fill="rgb(254,137,121)" d="M 1077.26 763.709 L 1078.6 762.472 C 1089.01 763.459 1128.29 770.371 1138.63 772.94 C 1136.57 780.815 1131.84 800.95 1129.28 807.086 C 1123.38 807.73 1125.14 803.323 1115.97 806.158 C 1113.28 807.352 1093.97 812.563 1089.77 813.786 C 1085.37 797.289 1081.72 780.369 1077.26 763.709 z"/>
<path transform="translate(0,0)" fill="rgb(88,83,104)" d="M 967.588 741.56 C 979.958 743.91 993.417 746.239 1005.61 749.016 C 999.359 752.797 961.832 759.003 951.954 760.837 C 955.926 756.776 963.716 746.408 967.588 741.56 z"/>
<path transform="translate(0,0)" fill="url(#Gradient2)" d="M 1138.63 772.94 L 1142.78 773.381 C 1140.52 783.09 1127.1 838.224 1123.13 843.24 L 1121.57 843.853 C 1119.75 838.673 1126.42 819.214 1128.15 812.771 C 1125.01 811.075 1118.74 807.953 1115.97 806.158 C 1125.14 803.323 1123.38 807.73 1129.28 807.086 C 1131.84 800.95 1136.57 780.815 1138.63 772.94 z"/>
<path transform="translate(0,0)" fill="rgb(45,16,13)" d="M 1005.61 749.016 C 1010.18 749.685 1014.73 750.515 1019.25 751.506 C 1013.71 753.996 953.49 765.847 949.304 764.559 L 947.865 762.805 L 951.954 760.837 C 961.832 759.003 999.359 752.797 1005.61 749.016 z"/>
<path transform="translate(0,0)" fill="rgb(247,229,209)" d="M 849.333 1201.28 C 910.798 1201.23 971.544 1202.83 1032.97 1203.02 L 1034.51 1203.51 C 1040.1 1202.74 1059.37 1203.26 1066.36 1203.28 C 1082.21 1203.34 1098.05 1202.87 1113.87 1201.87 C 1149.86 1202.96 1189.47 1202.15 1225.73 1202.14 C 1220.9 1225.26 1219.49 1239.09 1217.73 1262.64 L 1212.95 1263.43 C 1204.83 1264.52 1169.87 1263.83 1160.49 1263.83 L 1046.57 1263.69 L 921.882 1263.74 C 909.39 1263.76 871.526 1264.62 861.141 1262.87 C 856.64 1245.05 852.729 1219.78 849.333 1201.28 z"/>
<path transform="translate(0,0)" fill="rgb(88,83,104)" d="M 985.889 906.327 C 988.656 898.135 996.512 865.417 1001.21 861.937 C 1008.89 863.529 1034.41 882.837 1043.19 888.699 C 1081.37 914.185 1169.99 957.365 1211.88 928.026 C 1209.47 933.574 1208.16 939.247 1206.6 945.091 C 1214.72 948.487 1215.74 949.644 1220.56 957.07 C 1229.03 984.629 1237.12 1060.61 1237.45 1089.63 C 1223.32 1084.59 1217.92 1081.11 1205.2 1073.51 C 1162.52 1041.2 1118.03 988.305 1093.6 940.643 C 1084.58 939.432 1060.8 935.878 1052.82 936.28 C 1046.41 933.273 1043.42 926.219 1036.05 930.203 C 1024.72 923.454 998.595 912.094 985.889 906.327 z"/>
<path transform="translate(0,0)" fill="rgb(45,16,13)" d="M 1098.96 936.805 C 1120.29 941.168 1193.9 987.922 1210.57 1005.66 C 1212.4 1007.61 1211.72 1007.12 1211.54 1010.26 C 1207.27 1009.15 1193.75 997.465 1189.3 994.089 C 1177.02 984.747 1164.32 975.979 1151.22 967.814 C 1141.2 961.574 1103.91 943.56 1099.23 939.883 L 1098.96 936.805 z"/>
<path transform="translate(0,0)" fill="rgb(247,229,209)" d="M 549.068 1262.8 C 521.982 1264.6 494.729 1263.52 467.994 1264.09 C 430.951 1264.89 442.823 1244.94 448.911 1220.23 C 451.488 1209.78 454.818 1196.6 465.209 1190.92 C 469.108 1188.79 478.328 1187.85 482.984 1187.28 C 508.13 1187.72 624.576 1183.5 640.953 1188.31 C 642.157 1191.87 643.27 1193.17 642.691 1196.37 C 636.507 1198.04 615.423 1197.17 607.946 1197.11 L 518.975 1196.92 C 505.49 1196.9 452.76 1191.87 457.534 1215.97 L 458.759 1216.49 C 463.908 1212.57 465.529 1205.18 471.782 1203.14 C 485.406 1198.7 620.451 1201.33 645.064 1201.31 C 650.833 1221.85 656.793 1242.34 662.945 1262.78 C 650.575 1264.57 618.463 1263.72 605.591 1262.75 L 605.139 1263.9 C 596.729 1263.95 556.557 1263.45 550.711 1264.53 L 549.068 1262.8 z"/>
<path transform="translate(0,0)" fill="rgb(45,16,13)" d="M 549.068 1262.8 C 550.45 1261 550.515 1260.09 553.372 1260.07 C 567.451 1259.96 590.091 1258.76 603.398 1260.32 C 604.969 1261.62 604.703 1261.08 605.591 1262.75 L 605.139 1263.9 C 596.729 1263.95 556.557 1263.45 550.711 1264.53 L 549.068 1262.8 z"/>
<path transform="translate(0,0)" fill="rgb(45,16,13)" d="M 435.237 1056.21 C 427.668 1027.85 433.089 1023.28 460.144 1014.61 L 494.567 1162.53 C 491.021 1163.89 487.461 1165.22 483.887 1166.51 C 466.714 1172.64 462.978 1166.3 459.318 1151 C 450.288 1119.67 442.257 1088.05 435.237 1056.21 z"/>
<path transform="translate(0,0)" fill="rgb(106,98,121)" d="M 1032.97 1203.02 C 999.779 1172.1 966.839 1140.9 934.155 1109.44 C 883.953 1061.83 817.385 991.019 743.526 994.023 C 710.18 995.622 678.778 1010.18 656.01 1034.59 C 638.664 1053.42 627.957 1078.15 627.619 1103.55 C 627.561 1107.93 627.788 1117.8 624.245 1119.49 C 622.341 1117.77 622.256 1117.15 622.165 1113.92 C 621.338 1081.2 634.153 1049.62 657.541 1026.72 C 682.748 1002.35 716.599 988.977 751.659 989.544 C 812.405 990.765 862.8 1037.18 905.059 1076.06 C 929.461 1098.7 953.625 1121.59 977.546 1144.74 C 995.465 1161.9 1013.76 1178.64 1031.64 1195.84 C 1034.47 1198.55 1035.33 1199.7 1034.51 1203.51 L 1032.97 1203.02 z"/>
<path transform="translate(0,0)" fill="rgb(106,98,121)" d="M 479.481 1078.1 C 499.996 1068.56 659.766 997.185 671.938 997.156 C 668.978 1002.88 614.632 1023.76 605.591 1027.7 C 563.895 1045.89 521.429 1063.11 480.245 1082.47 C 485.742 1105.34 494.803 1139.47 498.596 1161.72 L 494.567 1162.53 L 460.144 1014.61 L 462.152 1013.85 C 462.892 1014.38 463.633 1014.91 464.374 1015.44 C 469.894 1033.09 474.666 1061.57 479.481 1078.1 z"/>
<path transform="translate(0,0)" fill="rgb(247,229,209)" d="M 1156.82 1195.48 L 1161.37 1193.55 C 1176.37 1187.23 1213.64 1184.84 1228.86 1188.53 C 1229.73 1190.94 1228.18 1194.14 1227.31 1197.12 C 1217.87 1196.94 1155.3 1197.68 1149.9 1196.25 C 1152.55 1194.71 1152.45 1194.78 1155.45 1194.1 L 1156.82 1195.48 z"/>
<path transform="translate(0,0)" fill="rgb(106,98,121)" d="M 1036.05 930.203 C 1043.42 926.219 1046.41 933.273 1052.82 936.28 C 1058.33 939.841 1084.74 955.493 1083.91 960.377 C 1078.17 959.907 1043.32 935.253 1036.05 930.203 z"/>
<path transform="translate(0,0)" fill="rgb(106,98,121)" d="M 788.614 1266.21 C 789.56 1266.41 792.288 1267.13 792.6 1268.23 C 796.936 1283.45 799.98 1299.03 803.711 1314.41 C 815.122 1360.46 826.294 1406.58 837.225 1452.74 C 848.436 1449.8 885.919 1438.86 894.777 1440.42 L 892.778 1441.82 L 892.369 1440.72 L 890.807 1441.03 L 890.497 1442.83 C 879.822 1446.9 862.84 1450.68 851.365 1453.62 C 832.949 1458.37 814.575 1463.28 796.244 1468.35 C 788.247 1470.58 742.95 1484.64 738.485 1482.84 L 738.579 1481.35 C 743.6 1477.17 821.963 1456.85 832.936 1453.89 C 822.695 1409.7 812.089 1365.6 801.119 1321.58 C 798.284 1309.82 789.381 1277.38 788.614 1266.21 z"/>
<path transform="translate(0,0)" fill="rgb(88,83,104)" d="M 990.603 865.974 L 991.925 865.94 C 993.337 869.252 983.73 899.182 982.218 904.626 C 970.866 899.649 960.908 895.718 949.289 891.39 L 931.983 885.726 C 951.634 879.476 971.177 872.891 990.603 865.974 z"/>
<path transform="translate(0,0)" fill="rgb(106,98,121)" d="M 827.095 1061.71 L 829.004 1062.79 C 830.633 1066.08 839.046 1122.27 838.482 1127.77 C 836.828 1127.01 835.855 1127.01 835.406 1125.59 C 832.334 1115.89 824.754 1068.43 827.095 1061.71 z"/>
<path transform="translate(0,0)" fill="rgb(195,83,83)" d="M 925.732 391.752 C 930.246 358.476 935.784 335.174 938.088 299.711 C 939.504 275.544 940.062 251.334 939.761 227.127 C 939.645 220.884 936.385 200.905 942.341 198.371 C 947.538 201.432 952.977 217.418 956.394 224.232 C 965.561 242.597 975.812 260.4 987.093 277.547 C 993.462 287.13 1005.65 303.364 1010.26 312.627 C 1016.28 305.904 1026.64 299.289 1036.04 300.616 L 1036.47 301.981 C 1031.28 309.845 1024.35 313.361 1018.23 323.313 C 1058.72 295.489 1076.61 305.685 1122.65 299.455 C 1138.15 297.359 1156.65 287.41 1170.54 285.604 L 1172.56 286.376 C 1171.64 292.982 1154.41 306.399 1148.55 311.344 C 1160.59 310.014 1172.58 308.306 1184.51 306.222 C 1191.05 305.053 1204.28 301.305 1210.02 301.773 L 1211.33 303.073 C 1208.49 312.145 1176.12 328.864 1167.15 337.839 C 1173.62 337.174 1195.38 333.064 1199.46 335.591 C 1199.27 340.302 1193.66 343.773 1190.09 346.714 L 1187.84 348.907 C 1174.04 371.098 1158.33 388.243 1151.31 414.129 C 1150.66 418.07 1149.76 423.067 1150 427.032 C 1150.33 432.769 1154.43 440.039 1153.15 445.415 C 1149.09 448.124 1144.6 446.536 1139.52 445.706 C 1140.56 451.086 1143.08 458.531 1141.13 462.652 C 1138.7 463.341 1138.88 463.355 1136.44 462.74 L 1135.45 463.054 C 1141.39 478.19 1149.27 501.046 1155.59 515.33 C 1163.29 514.568 1174.15 513.288 1181.81 513.174 C 1185.21 511.665 1186.76 511.212 1190.37 510.193 L 1192.34 509.709 C 1208.34 513.722 1256.42 525.491 1264.24 539.833 C 1265.02 542.467 1264.23 541.43 1266.33 543.201 C 1270.5 538.788 1271.56 535.604 1277.31 538.434 C 1289.34 535.1 1294.48 534.85 1307.06 534.73 C 1308.05 534.447 1311.78 532.739 1312.94 532.238 L 1315.06 533.78 L 1314.63 535.467 C 1323.92 536.134 1335.62 538.337 1343.85 542.771 C 1347.39 544.41 1345.95 543.197 1348.04 546.83 L 1348.99 545.334 C 1350.75 546.159 1352.41 546.942 1354.19 547.694 C 1364.41 554.18 1370.22 558.931 1377.69 568.699 C 1385.39 564.529 1396.08 549.862 1403.92 567.927 C 1403.23 571.41 1402.1 573.519 1404.27 576 C 1407.41 579.581 1413.66 584.83 1412.06 590.565 C 1408.9 601.963 1400.91 594.76 1404.75 607.981 C 1401.66 622.68 1389.37 621.798 1376.69 623.552 L 1375.3 627.031 C 1376.63 629.433 1417.15 657.754 1423.1 662.292 L 1426.52 664.871 C 1430.2 667.912 1434.13 671.306 1437.92 674.156 C 1459.54 677.104 1466.74 681.861 1486.06 692.501 C 1505.44 700.324 1526.77 717.84 1542.71 731.531 L 1545.81 734.255 L 1554.66 742.983 C 1562.65 748.122 1573.64 760.654 1580.5 768.106 C 1603.58 792.447 1633.39 830.876 1651.6 859.53 L 1653.5 863.236 C 1658.21 869.795 1664.63 877.601 1664 885.871 C 1663.04 885.928 1662.08 885.985 1661.11 886.042 C 1609.76 921.166 1557.67 955.051 1503.61 985.905 C 1498.59 988.767 1493.62 991.652 1488.51 994.393 C 1482.01 990.435 1479.41 986.226 1474.97 980.203 L 1472.26 977.192 C 1460.43 964.661 1447.8 948.388 1435.99 935.104 C 1424.15 938.821 1410.9 943.038 1398.35 941.892 C 1363.74 938.732 1363.74 896.885 1367.22 870.927 L 1366.53 868.016 C 1367.3 861.928 1366.14 856.491 1367.54 847.407 C 1368.5 840.398 1367.13 816.62 1366.8 807.889 L 1363.64 805.536 C 1338.05 803.29 1312.51 800.407 1287.06 796.889 L 1276.63 795.218 C 1234.99 789.861 1183.9 781.552 1142.78 773.381 L 1138.63 772.94 C 1128.29 770.371 1089.01 763.459 1078.6 762.472 L 1077.26 763.709 L 1076.81 762.721 C 1073.03 760.414 1027.07 752.99 1019.25 751.506 C 1014.73 750.515 1010.18 749.685 1005.61 749.016 C 993.417 746.239 979.958 743.91 967.588 741.56 C 938.502 736.15 909.215 731.883 879.794 728.77 C 863.243 739.116 849.298 738.172 830.384 738.945 C 817.899 737.502 813.525 739.097 801.396 733.179 C 797.668 727.961 793.065 711.181 788.982 704.517 C 788.547 702.284 791.241 693.85 790.433 692.243 C 785.461 682.354 780.273 676.84 789.606 666.974 L 789.373 664.473 C 784.814 660.886 780.053 652.992 786.107 648.025 C 793.993 641.554 799.44 641.825 809.011 641.845 C 814.308 627.931 822.683 631.954 834.964 634.418 C 842.15 617.285 849.046 596.859 855.591 579.187 C 848.094 575.203 839.404 570.293 831.676 567.081 C 806.901 551.969 755.33 530.28 735.273 510.293 C 751.523 512.522 851.72 545.213 853.85 544.89 L 854.05 542.941 C 858.379 537.152 865.003 527.871 870.787 523.969 L 872.048 523.491 C 870.451 520.205 850.942 500.625 847.383 496.916 C 834.677 483.675 821.702 469.091 809.404 455.451 C 799.521 444.489 778.669 423.405 771.718 411.143 C 780.48 415.095 803.512 432.467 812.581 439.014 L 889.33 494.225 C 891.352 486.744 911.778 437.972 916.183 433.448 C 915.723 428.291 912.278 415.666 911.05 410.398 C 907.111 393.492 902.049 376.373 899.783 359.143 C 906.208 366.711 918.459 392.411 924.156 402.889 L 925.116 402.404 C 925.135 398.448 925.338 395.693 925.732 391.752 z M 1040.09 404.494 C 1039.74 400.599 1039.32 397.063 1039.5 393.138 C 1031.73 395.59 1025.52 398.019 1020.06 404.597 C 1027.64 405.369 1032.55 405.731 1040.09 404.494 z"/>
<path transform="translate(0,0)" fill="rgb(254,137,121)" d="M 925.732 391.752 C 930.246 358.476 935.784 335.174 938.088 299.711 C 939.504 275.544 940.062 251.334 939.761 227.127 C 939.645 220.884 936.385 200.905 942.341 198.371 C 947.538 201.432 952.977 217.418 956.394 224.232 C 965.561 242.597 975.812 260.4 987.093 277.547 C 993.462 287.13 1005.65 303.364 1010.26 312.627 C 1016.28 305.904 1026.64 299.289 1036.04 300.616 L 1036.47 301.981 C 1031.28 309.845 1024.35 313.361 1018.23 323.313 C 1058.72 295.489 1076.61 305.685 1122.65 299.455 C 1138.15 297.359 1156.65 287.41 1170.54 285.604 L 1172.56 286.376 C 1171.64 292.982 1154.41 306.399 1148.55 311.344 C 1160.59 310.014 1172.58 308.306 1184.51 306.222 C 1191.05 305.053 1204.28 301.305 1210.02 301.773 L 1211.33 303.073 C 1208.49 312.145 1176.12 328.864 1167.15 337.839 C 1173.62 337.174 1195.38 333.064 1199.46 335.591 C 1199.27 340.302 1193.66 343.773 1190.09 346.714 L 1187.84 348.907 C 1174.04 371.098 1158.33 388.243 1151.31 414.129 C 1150.66 418.07 1149.76 423.067 1150 427.032 C 1150.33 432.769 1154.43 440.039 1153.15 445.415 C 1149.09 448.124 1144.6 446.536 1139.52 445.706 C 1140.56 451.086 1143.08 458.531 1141.13 462.652 C 1138.7 463.341 1138.88 463.355 1136.44 462.74 L 1135.45 463.054 C 1141.39 478.19 1149.27 501.046 1155.59 515.33 C 1163.29 514.568 1174.15 513.288 1181.81 513.174 C 1162.77 528.509 1092.55 596.867 1074.81 600.201 C 1066.92 596.955 1049.8 535.458 1046.44 524.047 C 1049.13 521.009 1055.78 518.671 1059.72 516.985 C 1057.97 510.339 1056.93 502.733 1053.71 496.83 C 1045.86 503.04 1024.63 504.84 1015.46 501.66 C 1007.48 498.896 1005.16 496.773 1001.31 489.58 C 998.496 491.819 991.873 497.51 988.918 498.582 C 980.726 496.85 974.421 496.211 966.042 495.342 C 959.038 478.943 951.8 462.644 944.332 446.451 C 939.568 436.282 931.347 420.176 927.812 410.197 L 927.142 408.271 C 925.052 402.383 925.582 398.028 925.732 391.752 z M 1040.09 404.494 C 1039.74 400.599 1039.32 397.063 1039.5 393.138 C 1031.73 395.59 1025.52 398.019 1020.06 404.597 C 1027.64 405.369 1032.55 405.731 1040.09 404.494 z"/>
<path transform="translate(0,0)" fill="rgb(254,212,226)" d="M 925.732 391.752 C 930.246 358.476 935.784 335.174 938.088 299.711 C 939.504 275.544 940.062 251.334 939.761 227.127 C 939.645 220.884 936.385 200.905 942.341 198.371 C 947.538 201.432 952.977 217.418 956.394 224.232 C 965.561 242.597 975.812 260.4 987.093 277.547 C 993.462 287.13 1005.65 303.364 1010.26 312.627 C 1001.37 326.424 994.379 345.736 1003.65 361.087 C 1001.1 375.21 1002.02 385.909 1000.65 401.08 C 999.881 409.544 983.409 430.542 986.044 439.853 C 986.732 442.284 996.843 446.262 1000.04 447.609 C 1000.08 462.154 1000.22 475.069 1001.31 489.58 C 998.496 491.819 991.873 497.51 988.918 498.582 C 980.726 496.85 974.421 496.211 966.042 495.342 C 959.038 478.943 951.8 462.644 944.332 446.451 C 939.568 436.282 931.347 420.176 927.812 410.197 L 927.142 408.271 C 925.052 402.383 925.582 398.028 925.732 391.752 z"/>
<path transform="translate(0,0)" fill="rgb(242,176,143)" d="M 1018.23 323.313 C 1058.72 295.489 1076.61 305.685 1122.65 299.455 C 1138.15 297.359 1156.65 287.41 1170.54 285.604 L 1172.56 286.376 C 1171.64 292.982 1154.41 306.399 1148.55 311.344 C 1160.59 310.014 1172.58 308.306 1184.51 306.222 C 1191.05 305.053 1204.28 301.305 1210.02 301.773 L 1211.33 303.073 C 1208.49 312.145 1176.12 328.864 1167.15 337.839 C 1173.62 337.174 1195.38 333.064 1199.46 335.591 C 1199.27 340.302 1193.66 343.773 1190.09 346.714 L 1187.84 348.907 C 1174.04 371.098 1158.33 388.243 1151.31 414.129 C 1150.66 418.07 1149.76 423.067 1150 427.032 C 1150.33 432.769 1154.43 440.039 1153.15 445.415 C 1149.09 448.124 1144.6 446.536 1139.52 445.706 C 1140.56 451.086 1143.08 458.531 1141.13 462.652 C 1138.7 463.341 1138.88 463.355 1136.44 462.74 L 1135.45 463.054 C 1134.59 461.133 1132.48 458.699 1131.2 456.982 C 1123.62 446.821 1123.82 444.586 1123.86 432.825 C 1134.81 428.245 1135.16 428.156 1142.92 418.005 C 1159.39 396.479 1147.17 358.467 1116.59 372.92 C 1109.48 376.281 1104.47 384.813 1095.4 387.492 C 1086.79 385.877 1088.79 377.218 1088.94 370.097 C 1071.65 340.828 1031.67 367.133 1022.96 361.526 C 1022.78 358.586 1023 357.987 1021.56 355.404 C 1017.08 355.83 1007.35 358.754 1003.65 361.087 C 994.379 345.736 1001.37 326.424 1010.26 312.627 C 1016.28 305.904 1026.64 299.289 1036.04 300.616 L 1036.47 301.981 C 1031.28 309.845 1024.35 313.361 1018.23 323.313 z"/>
<path transform="translate(0,0)" fill="rgb(45,16,13)" d="M 1187.84 348.907 C 1175.39 349.144 1162.97 350.124 1150.64 351.84 C 1145.53 352.549 1126.61 356.846 1123.67 355.68 L 1123.12 353.94 L 1124.42 352.35 C 1137.25 349.416 1179.66 341.226 1190.09 346.714 L 1187.84 348.907 z"/>
<path transform="translate(0,0)" fill="rgb(45,16,13)" d="M 1148.82 333.378 C 1152.37 333.031 1150.74 332.712 1153.89 334.351 L 1153.95 335.739 C 1150.58 337.824 1127.16 341.803 1120.97 343.57 C 1108.41 347.151 1102.02 349.548 1089.99 355.05 L 1087.43 355.55 L 1085.92 353.92 L 1086.95 351.966 C 1101.19 342.949 1132.57 335.775 1148.82 333.378 z"/>
<path transform="translate(0,0)" fill="rgb(45,16,13)" d="M 1071.87 316.047 L 1074.08 317.109 C 1074.17 320.487 1070.28 321.389 1066.71 322.614 C 1048.84 328.758 1035.96 339.79 1024.88 355.004 L 1022.54 354.399 C 1021.87 352.858 1021.38 352.775 1022.17 351.581 C 1034.77 332.597 1051.88 322.82 1071.87 316.047 z"/>
<path transform="translate(0,0)" fill="rgb(45,16,13)" d="M 1142.99 309.248 C 1144.5 309.116 1144.58 309.278 1146.1 309.561 L 1146.69 310.957 C 1143.5 314.287 1130.19 316.688 1125.29 317.817 L 1122.81 317.547 L 1121.89 315.856 C 1124.81 312.208 1137.61 310.384 1142.99 309.248 z"/>
<path transform="translate(0,0)" fill="rgb(45,16,13)" d="M 1012.93 330.361 C 1013.52 330.614 1014.72 331.486 1015.3 331.881 C 1015.35 334.747 1010.02 346.183 1008.54 352.224 L 1008.2 353.687 L 1005.52 352.507 C 1003.23 345.927 1009.39 335.946 1012.93 330.361 z"/>
<path transform="translate(0,0)" fill="url(#Gradient1)" d="M 1053.71 496.83 C 1062.05 491.199 1074.25 488.611 1082.86 482.718 C 1089.83 477.947 1094.55 470.598 1100.35 464.391 L 1101.87 465.178 C 1101.95 474.871 1086.34 485.366 1078.73 490.178 C 1074.41 502.266 1068.8 518.55 1062.93 529.857 L 1059.72 516.985 C 1057.97 510.339 1056.93 502.733 1053.71 496.83 z"/>
<path transform="translate(0,0)" fill="rgb(195,83,83)" d="M 1006.17 384.504 C 1019.01 381.939 1039.15 361.705 1052 368.285 L 1052.38 369.462 C 1047.17 373.518 1040.33 375.506 1036.73 378.367 C 1029.36 384.23 1028.4 391.621 1018.03 394.63 C 1012.64 397.008 1005.45 390.689 1004.33 385.644 L 1006.17 384.504 z"/>
<path transform="translate(0,0)" fill="rgb(45,16,13)" d="M 1006.17 384.504 C 1010.08 386.531 1015.38 391.239 1018.03 394.63 C 1012.64 397.008 1005.45 390.689 1004.33 385.644 L 1006.17 384.504 z"/>
<path transform="translate(0,0)" fill="rgb(45,16,13)" d="M 1020.06 404.597 C 1017.77 404.983 1017.92 404.901 1015.7 404.122 L 1015.33 402.656 C 1024.75 390.828 1042.04 384.869 1056.57 390.05 L 1056.06 391.512 C 1048.8 395.031 1047.66 400.44 1040.09 404.494 C 1039.74 400.599 1039.32 397.063 1039.5 393.138 C 1031.73 395.59 1025.52 398.019 1020.06 404.597 z"/>
<path transform="translate(0,0)" fill="rgb(45,16,13)" d="M 1032.44 438.896 C 1035.64 438.703 1035.73 438.442 1038.62 439.616 L 1038.88 440.98 C 1030.33 446.37 1021.8 451.152 1012.95 456.822 C 1009.92 456.838 1008.6 456.991 1007.07 454.524 C 1008.54 453.069 1028.82 441.164 1032.44 438.896 z"/>
<path transform="translate(0,0)" fill="rgb(45,16,13)" d="M 1130.88 376.838 C 1132.12 377.835 1132.12 378.129 1133.06 379.475 L 1132.12 381.159 C 1119.32 386.846 1118.44 394.339 1113.3 407.062 L 1110.95 404.937 C 1109.61 393.609 1121.01 381.164 1130.88 376.838 z"/>
<path transform="translate(0,0)" fill="rgb(242,176,143)" d="M 1437.92 674.156 C 1459.54 677.104 1466.74 681.861 1486.06 692.501 C 1505.44 700.324 1526.77 717.84 1542.71 731.531 L 1545.81 734.255 L 1554.66 742.983 C 1562.65 748.122 1573.64 760.654 1580.5 768.106 C 1603.58 792.447 1633.39 830.876 1651.6 859.53 L 1653.5 863.236 C 1658.21 869.795 1664.63 877.601 1664 885.871 C 1663.04 885.928 1662.08 885.985 1661.11 886.042 C 1609.76 921.166 1557.67 955.051 1503.61 985.905 C 1498.59 988.767 1493.62 991.652 1488.51 994.393 C 1482.01 990.435 1479.41 986.226 1474.97 980.203 L 1472.26 977.192 C 1460.43 964.661 1447.8 948.388 1435.99 935.104 C 1424.15 938.821 1410.9 943.038 1398.35 941.892 C 1363.74 938.732 1363.74 896.885 1367.22 870.927 L 1366.53 868.016 C 1367.3 861.928 1366.14 856.491 1367.54 847.407 C 1368.5 840.398 1367.13 816.62 1366.8 807.889 C 1371.65 807.901 1376.98 807.794 1381.78 807.989 L 1385.67 807.259 C 1386.49 821.464 1387.8 837.692 1388.06 851.762 C 1394.82 852.305 1407.41 851.925 1411.78 852.497 L 1415.59 851.845 C 1428.23 849.194 1438.37 846.222 1450.39 841.306 C 1454.56 839.605 1462.91 834.843 1466.38 834.861 L 1469.69 833.015 C 1470 831.931 1493.65 815.634 1497.45 812.274 C 1517.03 794.94 1534.4 776.326 1546.07 752.858 C 1525.2 730.28 1502.41 708.873 1476.38 692.335 C 1450.56 675.935 1415.07 669.104 1396.92 700.757 L 1392.25 701.001 C 1396.25 682.127 1421.3 674.933 1437.92 674.156 z"/>
<path transform="translate(0,0)" fill="rgb(242,176,143)" d="M 1366.8 807.889 C 1371.65 807.901 1376.98 807.794 1381.78 807.989 L 1385.67 807.259 C 1386.49 821.464 1387.8 837.692 1388.06 851.762 C 1394.82 852.305 1407.41 851.925 1411.78 852.497 C 1415.18 859.337 1429.27 875.77 1434.76 882.461 C 1456.04 908.591 1477.99 934.164 1500.59 959.152 C 1492.1 964.416 1480.04 971.42 1472.26 977.192 C 1460.43 964.661 1447.8 948.388 1435.99 935.104 C 1424.15 938.821 1410.9 943.038 1398.35 941.892 C 1363.74 938.732 1363.74 896.885 1367.22 870.927 L 1366.53 868.016 C 1367.3 861.928 1366.14 856.491 1367.54 847.407 C 1368.5 840.398 1367.13 816.62 1366.8 807.889 z"/>
<path transform="translate(0,0)" fill="rgb(195,83,83)" d="M 1366.8 807.889 C 1371.65 807.901 1376.98 807.794 1381.78 807.989 C 1382.06 819.792 1382.38 838.936 1383.78 850.34 C 1377.43 848.792 1374.07 847.846 1367.54 847.407 C 1368.5 840.398 1367.13 816.62 1366.8 807.889 z"/>
<path transform="translate(0,0)" fill="rgb(45,16,13)" d="M 1366.53 868.016 C 1369.57 868.162 1370.6 867.82 1372.97 871.01 C 1380.93 881.742 1419.2 927.645 1421.84 936.123 L 1421.33 937.255 C 1413.37 932.322 1376.63 882.156 1367.22 870.927 L 1366.53 868.016 z"/>
<path transform="translate(0,0)" fill="rgb(242,176,143)" d="M 1415.59 851.845 C 1428.23 849.194 1438.37 846.222 1450.39 841.306 C 1454.56 839.605 1462.91 834.843 1466.38 834.861 C 1471.1 842.673 1482.4 856.011 1488.44 863.522 C 1506.73 886.418 1525.64 908.808 1545.15 930.667 C 1531.71 939.269 1517.77 948.492 1504.18 956.752 C 1473.73 922.577 1444.18 887.595 1415.59 851.845 z"/>
<path transform="translate(0,0)" fill="rgb(242,176,143)" d="M 1474.97 980.203 C 1491.86 970.801 1515.96 954.629 1532.52 944.021 C 1573.42 917.956 1613.76 891.021 1653.5 863.236 C 1658.21 869.795 1664.63 877.601 1664 885.871 C 1663.04 885.928 1662.08 885.985 1661.11 886.042 C 1609.76 921.166 1557.67 955.051 1503.61 985.905 C 1498.59 988.767 1493.62 991.652 1488.51 994.393 C 1482.01 990.435 1479.41 986.226 1474.97 980.203 z"/>
<path transform="translate(0,0)" fill="rgb(45,16,13)" d="M 1635.49 870.439 C 1613.92 842.444 1592.34 814.924 1568.51 788.775 C 1565.2 785.142 1547.99 767.215 1547.23 763.943 L 1548.3 762.781 C 1560.96 767.625 1627.45 852.848 1638.95 867.952 C 1642.82 865.354 1647.7 861.853 1651.6 859.53 L 1653.5 863.236 C 1613.76 891.021 1573.42 917.956 1532.52 944.021 C 1515.96 954.629 1491.86 970.801 1474.97 980.203 L 1472.26 977.192 C 1480.04 971.42 1492.1 964.416 1500.59 959.152 C 1477.99 934.164 1456.04 908.591 1434.76 882.461 C 1429.27 875.77 1415.18 859.337 1411.78 852.497 L 1415.59 851.845 C 1444.18 887.595 1473.73 922.577 1504.18 956.752 C 1517.77 948.492 1531.71 939.269 1545.15 930.667 C 1525.64 908.808 1506.73 886.418 1488.44 863.522 C 1482.4 856.011 1471.1 842.673 1466.38 834.861 L 1469.69 833.015 C 1495.45 865.086 1521.27 897.777 1548.97 928.19 C 1564.19 918.402 1579.28 908.437 1594.26 898.296 L 1532.85 826.174 C 1529.21 821.899 1513.45 804.755 1513.14 801.143 L 1514.22 800.197 C 1520.73 803.311 1587.77 883.983 1597.95 895.971 L 1635.49 870.439 z"/>
<path transform="translate(0,0)" fill="rgb(195,83,83)" d="M 1486.06 692.501 C 1505.44 700.324 1526.77 717.84 1542.71 731.531 L 1545.81 734.255 L 1554.66 742.983 C 1552.4 744.539 1550.13 746.077 1547.85 747.597 C 1546.33 746.84 1530.85 731.009 1528.24 728.348 C 1515 714.86 1500.24 704.648 1486.06 692.501 z"/>
<path transform="translate(0,0)" fill="rgb(88,83,104)" d="M 899.783 359.143 C 906.208 366.711 918.459 392.411 924.156 402.889 L 925.116 402.404 C 925.135 398.448 925.338 395.693 925.732 391.752 C 925.582 398.028 925.052 402.383 927.142 408.271 L 927.812 410.197 C 931.347 420.176 939.568 436.282 944.332 446.451 C 951.8 462.644 959.038 478.943 966.042 495.342 C 974.421 496.211 980.726 496.85 988.918 498.582 C 991.873 497.51 998.496 491.819 1001.31 489.58 C 1005.16 496.773 1007.48 498.896 1015.46 501.66 C 1024.63 504.84 1045.86 503.04 1053.71 496.83 C 1056.93 502.733 1057.97 510.339 1059.72 516.985 C 1055.78 518.671 1049.13 521.009 1046.44 524.047 C 1036.9 528.792 1042.36 560.923 1033.33 574.248 L 1029.93 577.299 C 1034.11 582.278 1037.92 586.866 1041.84 592.054 C 1035.97 593.647 984.676 605.458 988.887 613.894 C 1000.34 636.842 1017.05 657.204 1028.93 680.363 L 936.766 675.874 L 932.77 675.873 C 921.247 673.759 903.869 675.521 890.284 672.737 C 877.22 651.124 857.986 642.592 834.964 634.418 C 842.15 617.285 849.046 596.859 855.591 579.187 C 848.094 575.203 839.404 570.293 831.676 567.081 C 806.901 551.969 755.33 530.28 735.273 510.293 C 751.523 512.522 851.72 545.213 853.85 544.89 L 854.05 542.941 C 858.379 537.152 865.003 527.871 870.787 523.969 L 872.048 523.491 C 870.451 520.205 850.942 500.625 847.383 496.916 C 834.677 483.675 821.702 469.091 809.404 455.451 C 799.521 444.489 778.669 423.405 771.718 411.143 C 780.48 415.095 803.512 432.467 812.581 439.014 L 889.33 494.225 C 891.352 486.744 911.778 437.972 916.183 433.448 C 915.723 428.291 912.278 415.666 911.05 410.398 C 907.111 393.492 902.049 376.373 899.783 359.143 z"/>
<path transform="translate(0,0)" fill="rgb(195,83,83)" d="M 1001.31 489.58 C 1005.16 496.773 1007.48 498.896 1015.46 501.66 C 1024.63 504.84 1045.86 503.04 1053.71 496.83 C 1056.93 502.733 1057.97 510.339 1059.72 516.985 C 1055.78 518.671 1049.13 521.009 1046.44 524.047 C 1036.9 528.792 1042.36 560.923 1033.33 574.248 L 1029.93 577.299 C 1026.25 578.932 1028.05 578.778 1024.42 578.251 C 1020.25 573.919 1020.93 562.189 1020.73 555.658 C 1017.58 566.32 1015.63 579.231 1002.11 578.818 C 998.891 575.4 1000.09 560.753 999.686 554.15 C 995.763 564.156 993.665 569.854 982.637 573.479 C 979.364 572.974 980.66 573.723 978.579 571.228 C 976.796 563.799 982.234 545.138 983.912 536.39 C 979.583 542.542 968.214 558.935 959.867 556.368 C 956.489 548.904 967.939 531 971.659 523.978 L 973.814 519.865 L 980.026 509.804 L 983.859 505.141 C 986.172 502.763 987.591 501.656 988.918 498.582 C 991.873 497.51 998.496 491.819 1001.31 489.58 z"/>
<path transform="translate(0,0)" fill="rgb(45,16,13)" d="M 1005.68 512.181 L 1008.21 513.236 C 1009.7 517.918 1002.74 544.415 1001.27 550.764 C 999.742 550.661 1000.08 550.541 998.56 549.611 C 997.098 543.295 1003.77 519.354 1005.68 512.181 z"/>
<path transform="translate(0,0)" fill="rgb(45,16,13)" d="M 1026.09 512.529 C 1027.67 513.927 1027.17 513.381 1028.22 515.255 C 1026.87 521.105 1022.63 543.597 1021.47 547.008 C 1019.49 545.491 1018.81 545.654 1018.68 543.87 C 1018.02 534.451 1020.97 520.226 1026.09 512.529 z"/>
<path transform="translate(0,0)" fill="rgb(45,16,13)" d="M 989.275 507.172 L 991.676 508.427 C 993.341 512.972 987.111 532.434 985.422 538.316 C 983.773 537.903 984.204 537.952 982.715 536.937 C 981.525 531.119 987.341 513.718 989.275 507.172 z"/>
<path transform="translate(0,0)" fill="rgb(254,212,226)" d="M 916.183 433.448 C 921.17 445.398 929.642 482.442 933.928 497.108 C 922.304 499.784 917.299 501.358 906.819 507.007 C 901.404 503.099 894.406 498.336 889.33 494.225 C 891.352 486.744 911.778 437.972 916.183 433.448 z"/>
<path transform="translate(0,0)" fill="rgb(254,212,226)" d="M 870.787 523.969 C 875.562 525.244 877.09 527.304 880.464 531.182 C 875.494 538.371 872.478 543.318 868.245 550.975 C 863.639 549.5 858.846 548.425 855.123 545.514 L 854.05 542.941 C 858.379 537.152 865.003 527.871 870.787 523.969 z"/>
<path transform="translate(0,0)" fill="rgb(45,16,13)" d="M 932.77 675.873 C 933.834 666.823 942.201 627.452 947.277 621.551 C 949.605 626.411 938.517 668.533 936.766 675.874 L 932.77 675.873 z"/>
<path transform="translate(0,0)" fill="rgb(45,16,13)" d="M 971.659 523.978 C 967.668 521.236 963.824 519.161 962.047 514.833 C 962.732 505.991 976.562 505.549 983.859 505.141 L 980.026 509.804 L 973.814 519.865 L 971.659 523.978 z"/>
<path transform="translate(0,0)" fill="rgb(106,98,121)" d="M 964.887 513.309 L 980.026 509.804 L 973.814 519.865 L 964.887 513.309 z"/>
<path transform="translate(0,0)" fill="rgb(88,83,104)" d="M 1190.37 510.193 L 1192.34 509.709 C 1208.34 513.722 1256.42 525.491 1264.24 539.833 C 1265.02 542.467 1264.23 541.43 1266.33 543.201 L 1265.52 544.321 C 1259.56 544.64 1253.83 549.561 1248.86 553.106 C 1245.84 551.503 1243.41 552.116 1239.7 552.181 C 1200 568.338 1163.51 585.64 1125.11 604.33 C 1133.24 607.97 1161.07 619.471 1165.63 624.581 C 1165.75 626.257 1166.36 628.751 1164.59 629.65 C 1155.69 634.192 1134.39 646.927 1126.96 650.593 C 1117.77 655.124 1078.46 682.022 1073.18 683.577 L 1067.75 682.847 C 1063.19 682.949 1056.33 682.21 1051.59 681.854 L 1047.43 681.866 C 1043.09 680.922 1038.48 680.979 1034.09 681.387 L 1028.93 680.363 C 1017.05 657.204 1000.34 636.842 988.887 613.894 C 984.676 605.458 1035.97 593.647 1041.84 592.054 C 1037.92 586.866 1034.11 582.278 1029.93 577.299 L 1033.33 574.248 C 1042.36 560.923 1036.9 528.792 1046.44 524.047 C 1049.8 535.458 1066.92 596.955 1074.81 600.201 C 1092.55 596.867 1162.77 528.509 1181.81 513.174 C 1185.21 511.665 1186.76 511.212 1190.37 510.193 z"/>
<path transform="translate(0,0)" fill="rgb(45,16,13)" d="M 1190.37 510.193 L 1192.34 509.709 C 1208.34 513.722 1256.42 525.491 1264.24 539.833 C 1265.02 542.467 1264.23 541.43 1266.33 543.201 L 1265.52 544.321 C 1259.56 544.64 1253.83 549.561 1248.86 553.106 C 1245.84 551.503 1243.41 552.116 1239.7 552.181 C 1200 568.338 1163.51 585.64 1125.11 604.33 C 1133.24 607.97 1161.07 619.471 1165.63 624.581 C 1165.75 626.257 1166.36 628.751 1164.59 629.65 C 1155.69 634.192 1134.39 646.927 1126.96 650.593 C 1117.77 655.124 1078.46 682.022 1073.18 683.577 L 1067.75 682.847 C 1097.94 662.029 1129.45 643.184 1162.07 626.429 C 1153.91 622.283 1125.67 610.52 1121.35 605.737 L 1121.52 602.845 C 1127.48 594.416 1241.52 546.656 1258.69 538.871 C 1241 528.048 1221.68 521.495 1201.64 516.673 C 1198.57 515.935 1192.21 514.947 1190.2 513.008 L 1190.37 510.193 z"/>
<path transform="translate(0,0)" fill="rgb(106,98,121)" d="M 1264.24 539.833 C 1265.02 542.467 1264.23 541.43 1266.33 543.201 L 1265.52 544.321 C 1259.56 544.64 1253.83 549.561 1248.86 553.106 C 1245.84 551.503 1243.41 552.116 1239.7 552.181 C 1247.05 548.499 1258.62 544.907 1264.24 539.833 z"/>
<path transform="translate(0,0)" fill="rgb(45,16,13)" d="M 1033.33 574.248 C 1037.18 578.944 1045.74 587.955 1045.73 593.576 C 1037.56 598.855 1006.84 605.754 992.053 613.059 C 1006 634.116 1023.2 658.861 1034.09 681.387 L 1028.93 680.363 C 1017.05 657.204 1000.34 636.842 988.887 613.894 C 984.676 605.458 1035.97 593.647 1041.84 592.054 C 1037.92 586.866 1034.11 582.278 1029.93 577.299 L 1033.33 574.248 z"/>
<path transform="translate(0,0)" fill="rgb(45,16,13)" d="M 1047.43 681.866 C 1049.37 671.073 1065.95 613.473 1071.1 605.068 L 1072.14 604.623 C 1072.87 613.345 1055.27 667.887 1051.59 681.854 L 1047.43 681.866 z"/>
<path transform="translate(0,0)" fill="rgb(88,83,104)" d="M 1239.7 552.181 C 1243.41 552.116 1245.84 551.503 1248.86 553.106 C 1240.48 554.204 1239.98 558.917 1237.32 566.42 C 1231.58 568.769 1222.99 587.286 1220.53 593.046 C 1209.09 619.768 1205.47 647.097 1236.2 662.277 C 1240.96 671.497 1249.37 681.355 1261.08 676.761 C 1271.24 689.155 1282.33 700.75 1294.27 711.442 C 1263.64 713.139 1231.4 715.164 1200.92 710.237 C 1188.27 708.191 1170.87 700.583 1160.15 699.101 L 1156.43 697.137 C 1126.1 688.77 1104.21 686.231 1073.18 683.577 C 1078.46 682.022 1117.77 655.124 1126.96 650.593 C 1134.39 646.927 1155.69 634.192 1164.59 629.65 C 1166.36 628.751 1165.75 626.257 1165.63 624.581 C 1161.07 619.471 1133.24 607.97 1125.11 604.33 C 1163.51 585.64 1200 568.338 1239.7 552.181 z"/>
<path transform="translate(0,0)" fill="rgb(45,16,13)" d="M 1156.43 697.137 C 1157.91 691.016 1166.19 653.326 1168.88 650.847 C 1171.47 653.703 1170.51 659.398 1169.42 662.726 C 1165.57 674.518 1164.09 687.416 1160.15 699.101 L 1156.43 697.137 z"/>
<path transform="translate(0,0)" fill="rgb(45,16,13)" d="M 1312.94 532.238 L 1315.06 533.78 L 1314.63 535.467 C 1323.92 536.134 1335.62 538.337 1343.85 542.771 C 1347.39 544.41 1345.95 543.197 1348.04 546.83 L 1348.99 545.334 C 1350.75 546.159 1352.41 546.942 1354.19 547.694 C 1364.41 554.18 1370.22 558.931 1377.69 568.699 C 1385.39 564.529 1396.08 549.862 1403.92 567.927 C 1403.23 571.41 1402.1 573.519 1404.27 576 C 1407.41 579.581 1413.66 584.83 1412.06 590.565 C 1408.9 601.963 1400.91 594.76 1404.75 607.981 C 1401.66 622.68 1389.37 621.798 1376.69 623.552 C 1377.29 617.699 1377.23 611.796 1376.5 605.957 C 1371.7 593.52 1362.79 580.593 1346.46 586.779 C 1337.09 590.327 1335.24 599.675 1333.83 608.648 C 1318.03 607.251 1305.47 604.624 1291.72 596.043 C 1282.12 603.846 1276.09 607.816 1263.04 606.09 C 1259.59 618.376 1258.4 621.966 1248.61 630.9 C 1250.98 643.127 1250.68 647.923 1248.95 660.421 C 1252.78 666.021 1256.83 671.472 1261.08 676.761 C 1249.37 681.355 1240.96 671.497 1236.2 662.277 C 1205.47 647.097 1209.09 619.768 1220.53 593.046 C 1222.99 587.286 1231.58 568.769 1237.32 566.42 C 1239.98 558.917 1240.48 554.204 1248.86 553.106 C 1253.83 549.561 1259.56 544.64 1265.52 544.321 L 1266.33 543.201 C 1270.5 538.788 1271.56 535.604 1277.31 538.434 C 1289.34 535.1 1294.48 534.85 1307.06 534.73 C 1308.05 534.447 1311.78 532.739 1312.94 532.238 z"/>
<path transform="translate(0,0)" fill="rgb(106,98,121)" d="M 1312.94 532.238 L 1315.06 533.78 L 1314.63 535.467 C 1323.92 536.134 1335.62 538.337 1343.85 542.771 C 1347.39 544.41 1345.95 543.197 1348.04 546.83 L 1348.99 545.334 C 1350.75 546.159 1352.41 546.942 1354.19 547.694 C 1364.41 554.18 1370.22 558.931 1377.69 568.699 C 1385.39 564.529 1396.08 549.862 1403.92 567.927 C 1403.23 571.41 1402.1 573.519 1404.27 576 C 1407.41 579.581 1413.66 584.83 1412.06 590.565 C 1408.9 601.963 1400.91 594.76 1404.75 607.981 C 1401.66 622.68 1389.37 621.798 1376.69 623.552 C 1377.29 617.699 1377.23 611.796 1376.5 605.957 C 1379.55 594.222 1378.69 585.858 1377.82 573.885 C 1346.21 561.85 1316.4 568.042 1292.93 592.414 L 1291.69 591.396 C 1285.05 571.872 1291.42 548.258 1307.06 534.73 C 1308.05 534.447 1311.78 532.739 1312.94 532.238 z"/>
<path transform="translate(0,0)" fill="rgb(45,16,13)" d="M 1348.04 546.83 L 1348.99 545.334 C 1350.75 546.159 1352.41 546.942 1354.19 547.694 C 1364.41 554.18 1370.22 558.931 1377.69 568.699 C 1346.22 559.579 1319.98 562.837 1294.09 583.661 L 1293.94 568.051 C 1312.73 550.61 1324.67 550.225 1348.04 546.83 z"/>
<path transform="translate(0,0)" fill="rgb(45,16,13)" d="M 1314.63 535.467 C 1323.92 536.134 1335.62 538.337 1343.85 542.771 C 1321.25 545.267 1313.92 548.119 1294.91 560.688 C 1300.34 547.115 1302.13 543.185 1314.63 535.467 z"/>
<path transform="translate(0,0)" fill="rgb(106,98,121)" d="M 1237.32 566.42 C 1239.98 558.917 1240.48 554.204 1248.86 553.106 C 1225.43 594.967 1253.51 619.122 1249.44 628.182 L 1247.9 628.251 C 1236.25 614.135 1232.44 583.973 1237.32 566.42 z"/>
<path transform="translate(0,0)" fill="rgb(106,98,121)" d="M 1266.33 543.201 C 1270.5 538.788 1271.56 535.604 1277.31 538.434 C 1247.65 566.729 1268.01 598.791 1264.44 602.742 C 1256.85 601.44 1257.55 592.163 1256.96 585.779 C 1255.63 571.302 1257.43 556.628 1265.52 544.321 L 1266.33 543.201 z"/>
<path transform="translate(0,0)" fill="rgb(106,98,121)" d="M 1228.84 638.515 C 1229.6 638.821 1230.85 639.7 1231.6 640.176 C 1235.77 650.893 1240.45 659.219 1248.12 667.921 C 1250.08 670.134 1249.38 668.975 1249.57 672.287 C 1239.76 670.726 1226.85 648.236 1228.84 638.515 z"/>
<path transform="translate(0,0)" fill="rgb(45,16,13)" d="M 1348.1 703.897 C 1356.06 692.836 1359.02 685.673 1362.2 672.573 C 1364.14 664.616 1362.16 651.74 1364.84 648.494 L 1366.39 649.002 C 1369.05 652.612 1367.07 657.925 1368.42 662.197 C 1372.54 675.261 1375.07 688.65 1377.76 702.088 L 1392.25 701.001 L 1396.92 700.757 C 1400.45 700.325 1401.97 700.065 1404.67 702.223 C 1404.15 703.165 1403.29 704.587 1402.07 704.533 C 1390.97 704.043 1299.3 714.292 1295.31 712.104 L 1295.12 710.501 C 1299.22 707.077 1339.2 705.01 1348.1 703.897 z"/>
<path transform="translate(0,0)" fill="rgb(45,16,13)" d="M 1363.64 805.536 C 1364.53 804.89 1365.43 804.244 1366.32 803.598 C 1380.77 803.584 1427.01 801.931 1437.96 803.435 L 1439 805.154 L 1438.1 806.771 C 1432.34 807.71 1405.55 807.732 1398.17 807.896 C 1405.35 814.412 1411.97 819.534 1420.81 823.761 C 1426.31 826.392 1435.27 827.715 1437.93 833.282 C 1436.04 834.454 1435.68 834.284 1433.56 833.832 C 1416.55 830.207 1395.92 808.225 1385.67 807.259 L 1381.78 807.989 C 1376.98 807.794 1371.65 807.901 1366.8 807.889 L 1363.64 805.536 z"/>
<path transform="translate(0,0)" fill="rgb(45,16,13)" d="M 809.011 641.845 C 814.337 639.677 842.608 646.341 846.032 651.272 C 840.308 652.889 812.468 646.809 809.011 641.845 z"/>
<path transform="translate(0,0)" fill="rgb(45,16,13)" d="M 789.373 664.473 C 794.136 662.135 804.378 661.842 808.35 665.982 L 807.84 667.585 C 803.697 669.122 793.757 668.061 789.606 666.974 L 789.373 664.473 z"/>
<path transform="translate(0,0)" fill="rgb(247,229,209)" d="M 1324.88 660.645 C 1329.43 660.76 1330.64 660.5 1333.48 663.846 C 1332.5 671.152 1323.72 674.702 1320.43 681.319 C 1319.28 683.625 1317.64 686.362 1316.36 688.692 C 1311.66 688.894 1310.88 689.193 1308.49 685.011 C 1308.66 679.853 1321.08 664.876 1324.88 660.645 z"/>
<path transform="translate(0,0)" fill="rgb(45,16,13)" d="M 1298.98 608.813 C 1301.24 610.147 1301.05 610.128 1302.36 612.445 C 1302.41 621.179 1290.43 625.336 1283.34 627.65 C 1279.56 625.086 1279.8 625.382 1279.07 622.017 C 1281.02 617.001 1292.86 612.356 1298.98 608.813 z"/>
<path transform="translate(0,0)" fill="rgb(45,16,13)" d="M 1262.99 633.309 C 1266.16 634.292 1265.92 634.282 1268.24 636.719 C 1271.24 645.26 1266.17 654.207 1259.78 659.768 C 1258.35 659.497 1255.31 658.764 1255.12 657.186 C 1254.32 650.723 1259.57 638.327 1262.99 633.309 z"/>
<path transform="translate(0,0)" fill="rgb(45,16,13)" d="M 1282.61 642.583 C 1289.61 645.09 1293.5 660.857 1298.9 666.383 C 1303.02 670.606 1303.82 665.409 1309.87 665.553 L 1311.55 668.149 C 1304.01 672.884 1299.98 674.015 1293.46 666.261 C 1289.3 661.319 1282.14 648.894 1282.61 642.583 z"/>
<path transform="translate(0,0)" fill="rgb(45,16,13)" d="M 1308.34 617.03 C 1313.15 617.561 1313.69 617.423 1317.76 619.762 C 1315.94 624.831 1307.16 620.5 1301.7 626.365 C 1300.26 630.946 1300.61 631.854 1301.04 636.799 C 1301.89 637.744 1301.46 637.084 1301.78 639.038 L 1300.08 639.737 C 1295.75 637.244 1295.14 631.303 1296.77 626.822 C 1298.78 621.286 1303.13 619.177 1308.34 617.03 z"/>
<path transform="translate(0,0)" fill="rgb(45,16,13)" d="M 1273.07 651.961 C 1277.47 652.041 1280.53 651.533 1283.36 655.262 C 1275.49 658.907 1273 653.847 1267.17 662.593 C 1267.51 666.592 1268.07 666.194 1266.67 669.401 L 1264.92 669.303 C 1259.53 661.512 1266.53 655.209 1273.07 651.961 z"/>
<path transform="translate(0,0)" fill="rgb(45,16,13)" d="M 1347.7 593.188 L 1350.09 594.303 C 1350.81 596.055 1355.49 621.78 1355.44 624.588 C 1347.22 622.426 1346.36 600.402 1347.7 593.188 z"/>
<path transform="translate(0,0)" fill="rgb(45,16,13)" d="M 791.705 690.075 C 797.646 690.444 811.8 690.742 816.51 693.748 L 817.103 696.909 C 810.658 696.44 799.743 696.076 793.653 693.828 C 792.151 693.274 792.338 692.161 791.705 690.075 z"/>
<path transform="translate(0,0)" fill="rgb(45,16,13)" d="M 795.859 715.288 C 800.756 714.576 810.666 715.395 815.477 716.729 C 819.103 717.735 818.212 717.489 819.785 720.445 C 815.923 721.221 806.245 720.349 802.366 719.464 C 797.227 718.293 798.234 718.781 795.859 715.288 z"/>
<path transform="translate(0,0)" fill="rgb(242,176,143)" d="M 1488.51 994.393 C 1493.62 991.652 1498.59 988.767 1503.61 985.905 C 1557.67 955.051 1609.76 921.166 1661.11 886.042 C 1662.08 885.985 1663.04 885.928 1664 885.871 C 1664.7 888.535 1688.02 931.72 1690.67 934.633 C 1697.31 939.801 1701.8 949.241 1705.77 956.664 L 1706.91 959.17 C 1738.93 1008.49 1767.51 1088.72 1755.43 1147.26 C 1751.62 1165.73 1743.95 1178.73 1733.02 1193.62 C 1761.09 1183.39 1785.96 1187.69 1815.85 1186.12 C 1825.11 1185.63 1852.06 1183.98 1856.23 1194.66 C 1860.87 1208.75 1846.65 1257.77 1831.8 1260.9 C 1815.35 1264.36 1759.41 1266.32 1746.09 1262.73 L 1744.87 1266.92 C 1745.44 1279.49 1699.52 1476.29 1693.96 1489.9 C 1684.25 1492.78 1680.15 1495.03 1671.47 1499.93 C 1666.51 1495.09 1646.26 1472.46 1644.27 1466.83 C 1642.93 1453.89 1662.75 1375.47 1667.38 1355.96 L 1688.71 1264.06 C 1649.61 1263.2 1610.06 1264.09 1570.93 1263.75 C 1550.33 1263.57 1529.16 1264.19 1508.63 1262.74 C 1514.35 1274.44 1526.96 1293.47 1534.36 1305.23 C 1551.39 1332.26 1568.75 1359.09 1586.45 1385.69 C 1591.85 1393.79 1611.81 1420.72 1612.33 1428.94 C 1601.23 1429.58 1524.66 1468.03 1512.46 1476.12 C 1498.79 1482.22 1474.8 1497.39 1461.16 1505.61 C 1440.2 1519.51 1418.76 1532.68 1396.89 1545.11 C 1379.82 1553.59 1357.61 1564.46 1338.43 1565.44 C 1319.36 1566.42 1300.53 1560.78 1281.58 1567.68 C 1261.68 1574.93 1247.62 1588.31 1230.43 1599.76 C 1227.68 1574.42 1226.11 1543.67 1224.64 1518.02 C 1222.53 1484.96 1220.89 1451.88 1219.73 1418.78 C 1218.86 1390.64 1218.22 1362.5 1217.82 1334.35 C 1217.71 1323.79 1218.81 1269.68 1216.98 1264.28 L 1212.95 1263.43 L 1217.73 1262.64 C 1219.49 1239.09 1220.9 1225.26 1225.73 1202.14 C 1189.47 1202.15 1149.86 1202.96 1113.87 1201.87 C 1134.48 1197.48 1213.45 1205.44 1226.19 1199.96 L 1227.31 1197.12 C 1228.18 1194.14 1229.73 1190.94 1228.86 1188.53 C 1230.91 1185.85 1234.08 1178.12 1235.58 1174.7 C 1245.53 1151.93 1259.86 1132.07 1281.84 1119.21 C 1323.91 1095.27 1371.57 1078.48 1416.97 1061.69 C 1440.18 1053.11 1471.51 1040.88 1495.29 1035.14 L 1496.31 1030.66 C 1492.62 1026.76 1491.88 1004.88 1492.16 999.002 C 1491.11 997.103 1489.95 996.034 1488.51 994.393 z"/>
<path transform="translate(0,0)" fill="rgb(247,229,209)" d="M 1733.02 1193.62 C 1761.09 1183.39 1785.96 1187.69 1815.85 1186.12 C 1825.11 1185.63 1852.06 1183.98 1856.23 1194.66 C 1860.87 1208.75 1846.65 1257.77 1831.8 1260.9 C 1815.35 1264.36 1759.41 1266.32 1746.09 1262.73 L 1744.87 1266.92 C 1745.44 1279.49 1699.52 1476.29 1693.96 1489.9 C 1684.25 1492.78 1680.15 1495.03 1671.47 1499.93 C 1666.51 1495.09 1646.26 1472.46 1644.27 1466.83 C 1642.93 1453.89 1662.75 1375.47 1667.38 1355.96 L 1688.71 1264.06 C 1649.61 1263.2 1610.06 1264.09 1570.93 1263.75 C 1550.33 1263.57 1529.16 1264.19 1508.63 1262.74 C 1505.32 1259.94 1486.45 1224.29 1482.96 1217.96 C 1543.39 1218.62 1603.8 1222.56 1664.34 1218.39 C 1687.5 1216.79 1701.76 1213.89 1721.67 1202.16 C 1734.81 1202.01 1790.94 1203.27 1800.56 1201.22 L 1752.79 1201.16 C 1746.05 1201.15 1730.89 1201.45 1724.76 1200.38 L 1725.1 1199.37 C 1730.05 1196.64 1731.44 1196.82 1737.16 1196.6 C 1734.78 1193.98 1736.29 1195.02 1731.82 1194.45 L 1733.02 1193.62 z"/>
<path transform="translate(0,0)" fill="rgb(45,16,13)" d="M 1800.56 1201.22 L 1752.79 1201.16 C 1746.05 1201.15 1730.89 1201.45 1724.76 1200.38 L 1725.1 1199.37 C 1730.05 1196.64 1731.44 1196.82 1737.16 1196.6 C 1758.11 1198.42 1781.1 1196.16 1802.23 1196.85 C 1815.2 1197.28 1831.97 1194.07 1841.78 1204.52 C 1845.52 1208.49 1847.04 1214.71 1842.63 1218.79 L 1841.44 1218.01 L 1841.31 1216.75 C 1839.05 1196.33 1816.37 1200.84 1800.56 1201.22 z"/>
<path transform="translate(0,0)" fill="rgb(45,16,13)" d="M 1744.87 1266.92 C 1738.07 1263.95 1703.38 1268.3 1695.02 1265.25 L 1694.34 1263.53 L 1695.45 1262.22 C 1702.54 1261.21 1740.02 1260.78 1746.09 1262.73 L 1744.87 1266.92 z"/>
<path transform="translate(0,0)" fill="rgb(195,83,83)" d="M 1488.51 994.393 C 1493.62 991.652 1498.59 988.767 1503.61 985.905 C 1557.67 955.051 1609.76 921.166 1661.11 886.042 C 1662.08 885.985 1663.04 885.928 1664 885.871 C 1664.7 888.535 1688.02 931.72 1690.67 934.633 C 1682.46 938.524 1673.45 941.615 1664.89 944.755 C 1662.54 947.595 1662.62 947.342 1662.27 951.002 L 1662.11 947.2 L 1661 946.418 C 1655.54 948.41 1613.63 963.247 1612.28 964.866 L 1613.24 965.396 L 1609.98 965.658 C 1607.98 965.359 1566.02 978.249 1563.86 980.005 L 1561.52 980.524 C 1554.52 979.845 1530.91 989.361 1522.05 991.059 L 1518.28 993.909 L 1517.04 993 C 1511.96 994.093 1495.71 998.905 1492.16 999.002 C 1491.11 997.103 1489.95 996.034 1488.51 994.393 z"/>
<path transform="translate(0,0)" fill="rgb(45,16,13)" d="M 1690.67 934.633 C 1697.31 939.801 1701.8 949.241 1705.77 956.664 L 1706.91 959.17 C 1692.69 972.594 1516.96 1021.98 1496.69 1018.11 C 1499.71 1014.54 1516.76 1011.76 1522.25 1010.73 L 1518.28 993.909 L 1522.05 991.059 C 1530.91 989.361 1554.52 979.845 1561.52 980.524 L 1563.86 980.005 C 1566.02 978.249 1607.98 965.359 1609.98 965.658 L 1613.24 965.396 L 1612.28 964.866 C 1613.63 963.247 1655.54 948.41 1661 946.418 L 1662.11 947.2 L 1662.27 951.002 C 1662.62 947.342 1662.54 947.595 1664.89 944.755 C 1673.45 941.615 1682.46 938.524 1690.67 934.633 z"/>
<path transform="translate(0,0)" fill="rgb(242,176,143)" d="M 1613.24 965.396 L 1612.28 964.866 C 1613.63 963.247 1655.54 948.41 1661 946.418 L 1662.11 947.2 L 1662.27 951.002 C 1663.62 957.723 1664.78 964.484 1665.72 971.276 C 1649.77 976.777 1633.72 982.002 1617.59 986.95 C 1616.74 981.031 1615.65 970.218 1613.24 965.396 z"/>
<path transform="translate(0,0)" fill="rgb(242,176,143)" d="M 1563.86 980.005 C 1566.02 978.249 1607.98 965.359 1609.98 965.658 C 1611.01 973.182 1612.2 980.682 1613.56 988.152 C 1598.91 992.276 1584.22 996.261 1569.49 1000.11 C 1568.62 994.216 1567.97 983.892 1563.86 980.005 z"/>
<path transform="translate(0,0)" fill="rgb(242,176,143)" d="M 1522.05 991.059 C 1530.91 989.361 1554.52 979.845 1561.52 980.524 C 1562.77 987.468 1564.42 994.367 1565.63 1001.18 C 1552.94 1004.05 1539.35 1007.38 1526.65 1009.86 L 1522.05 991.059 z"/>
<path transform="translate(0,0)" fill="rgb(242,176,143)" d="M 1690.67 934.633 C 1697.31 939.801 1701.8 949.241 1705.77 956.664 L 1669.8 970.059 C 1668.92 963.628 1667.66 949.799 1664.89 944.755 C 1673.45 941.615 1682.46 938.524 1690.67 934.633 z"/>
<path transform="translate(0,0)" fill="rgb(45,16,13)" d="M 1496.31 1030.66 C 1502.18 1034.42 1510.03 1049.17 1516.03 1055.73 C 1525.01 1065.35 1534.66 1074.34 1544.89 1082.62 C 1550 1086.69 1562.5 1094.6 1564.79 1100.13 L 1564.51 1100.97 C 1552.64 1099.5 1514.14 1061.44 1506.53 1050.39 C 1503.81 1046.43 1498.3 1038.16 1495.29 1035.14 L 1496.31 1030.66 z"/>
<path transform="translate(0,0)" fill="rgb(45,16,13)" d="M 1262.41 1218.41 C 1262.93 1218.6 1264.77 1219.12 1265.11 1219.69 C 1274.82 1236.35 1285.44 1255.94 1296.13 1271.68 L 1384.84 1399.6 L 1412.83 1439.3 C 1416.44 1444.42 1428.29 1459.08 1428.23 1464.76 C 1417.85 1460.73 1339.66 1339.37 1325.66 1322.11 C 1316.21 1310.45 1260.75 1229.4 1262.41 1218.41 z"/>
<path transform="translate(0,0)" fill="rgb(45,16,13)" d="M 1269.86 1370.36 L 1273.12 1371.51 C 1275.05 1375.62 1278.65 1391.52 1279.94 1396.67 C 1284.1 1413.25 1288.42 1429.8 1292.91 1446.3 C 1298.28 1465.4 1303.86 1484.43 1309.65 1503.4 C 1312.01 1511.17 1317.48 1527.26 1318.47 1534.78 C 1316.33 1534.25 1316.89 1534.41 1314.93 1533.35 C 1308.48 1520.58 1269.97 1383.35 1269.86 1370.36 z"/>
<path transform="translate(0,0)" fill="rgb(45,16,13)" d="M 1382.05 1199.05 C 1378.09 1199.24 1484.89 1215.65 1480.45 1213.87 L 1481.88 1217.23 C 1460.7 1217.58 1405.7 1209.16 1383.82 1202.44 C 1382.25 1201.96 1382.52 1201.04 1382.05 1199.05 z"/>
<path transform="translate(0,0)" fill="rgb(247,229,209)" d="M 111.661 1078.08 C 124.566 1067.55 132.062 1066.26 149 1067.67 C 179.47 1070.21 211.015 1077.42 240.735 1081.38 C 244.404 1081.39 244.441 1081.78 246.68 1085.29 C 259.011 1083.22 261.275 1086.33 271.681 1086.81 C 274.324 1086.44 273.237 1086.07 275.184 1087.25 C 281.85 1088.67 295.976 1092.02 302.241 1092.57 L 305.962 1094.17 C 311.635 1097.13 317.016 1099.09 322.502 1101.83 C 336.382 1115.91 337.734 1126.17 338.415 1145.32 L 337.756 1149.9 C 363.218 1142.41 396.946 1135.96 402.246 1172.35 C 401.749 1181.55 400.195 1189.98 399.716 1198 L 398.138 1201.79 C 388.335 1237.08 380.432 1243.36 358.936 1270.53 C 356.661 1280.31 346.608 1297.66 334.713 1293.44 C 328.099 1291.1 319.762 1284.06 314.71 1279.13 L 311.864 1276.82 C 299.376 1268.81 268.237 1244.09 256.837 1234.21 L 254.768 1232.35 C 244.011 1225.31 205.875 1195.93 196.593 1187.09 L 193.783 1184.89 C 179.307 1175.55 151.146 1152.59 137.099 1141.18 L 134.221 1139.09 C 122.407 1128.27 103.8 1119.46 94.6147 1106.47 C 88.6471 1098.03 104.916 1081.6 111.661 1078.08 z"/>
<path transform="translate(0,0)" fill="rgb(247,229,209)" d="M 111.661 1078.08 C 124.566 1067.55 132.062 1066.26 149 1067.67 C 179.47 1070.21 211.015 1077.42 240.735 1081.38 C 244.404 1081.39 244.441 1081.78 246.68 1085.29 C 259.011 1083.22 261.275 1086.33 271.681 1086.81 C 274.324 1086.44 273.237 1086.07 275.184 1087.25 C 281.85 1088.67 295.976 1092.02 302.241 1092.57 L 305.962 1094.17 C 311.635 1097.13 317.016 1099.09 322.502 1101.83 C 336.382 1115.91 337.734 1126.17 338.415 1145.32 L 337.756 1149.9 C 302.78 1136.44 258.087 1126.3 221.444 1115.6 C 203.827 1110.45 194.78 1119.47 187.524 1134.79 C 186.789 1134.62 184.596 1133.27 183.823 1132.83 C 176.83 1126.83 167.217 1119.62 159.896 1113.8 L 156.354 1111.61 C 150.226 1118.9 139.083 1131.45 134.221 1139.09 C 122.407 1128.27 103.8 1119.46 94.6147 1106.47 C 88.6471 1098.03 104.916 1081.6 111.661 1078.08 z"/>
<path transform="translate(0,0)" fill="rgb(242,176,143)" d="M 111.661 1078.08 C 119.948 1082.16 149.325 1105.17 156.354 1111.61 C 150.226 1118.9 139.083 1131.45 134.221 1139.09 C 122.407 1128.27 103.8 1119.46 94.6147 1106.47 C 88.6471 1098.03 104.916 1081.6 111.661 1078.08 z"/>
<path transform="translate(0,0)" fill="rgb(45,16,13)" d="M 240.735 1081.38 C 244.404 1081.39 244.441 1081.78 246.68 1085.29 C 259.011 1083.22 261.275 1086.33 271.681 1086.81 C 274.324 1086.44 273.237 1086.07 275.184 1087.25 C 281.85 1088.67 295.976 1092.02 302.241 1092.57 L 305.962 1094.17 C 303.845 1106.46 300.73 1116.38 296.642 1128.11 C 289.004 1119.37 280.117 1104.07 273.901 1093.86 C 270.624 1103.13 267.9 1111.05 263.744 1120.01 C 256.442 1109.96 249.489 1098.66 242.749 1088.16 C 240.735 1093.6 237.218 1105.35 232.56 1108.35 C 231.208 1102.74 238.27 1087.39 240.735 1081.38 z"/>
<path transform="translate(0,0)" fill="rgb(247,229,209)" d="M 275.184 1087.25 C 281.85 1088.67 295.976 1092.02 302.241 1092.57 C 299.998 1101.98 297.965 1109.97 295.142 1119.28 C 287.913 1108.49 281.831 1098.4 275.184 1087.25 z"/>
<path transform="translate(0,0)" fill="rgb(247,229,209)" d="M 246.68 1085.29 C 259.011 1083.22 261.275 1086.33 271.681 1086.81 L 262.933 1111.22 C 258.16 1104.12 250.474 1092.6 246.68 1085.29 z"/>
<path transform="translate(0,0)" fill="rgb(45,16,13)" d="M 183.823 1132.83 C 187.458 1124.29 192.062 1115.31 201.442 1112.27 C 218.563 1106.71 244.614 1117.15 261.335 1121.99 C 287.183 1129.25 312.882 1137.02 338.415 1145.32 L 337.756 1149.9 C 302.78 1136.44 258.087 1126.3 221.444 1115.6 C 203.827 1110.45 194.78 1119.47 187.524 1134.79 C 186.789 1134.62 184.596 1133.27 183.823 1132.83 z"/>
<path transform="translate(0,0)" fill="rgb(242,176,143)" d="M 278.719 1207.03 C 288.151 1213.22 299.418 1222.66 308.539 1229.8 L 311.969 1232.5 C 318.835 1237.84 327.169 1243.99 333.625 1249.63 L 335.71 1251.4 C 343.34 1256.67 353.11 1263.33 358.936 1270.53 C 356.661 1280.31 346.608 1297.66 334.713 1293.44 C 328.099 1291.1 319.762 1284.06 314.71 1279.13 L 311.864 1276.82 C 299.376 1268.81 268.237 1244.09 256.837 1234.21 C 263.002 1228.19 273.567 1214.17 278.719 1207.03 z"/>
<path transform="translate(0,0)" fill="rgb(242,176,143)" d="M 335.71 1251.4 C 343.34 1256.67 353.11 1263.33 358.936 1270.53 C 356.661 1280.31 346.608 1297.66 334.713 1293.44 C 328.099 1291.1 319.762 1284.06 314.71 1279.13 C 319.363 1273.78 332.234 1257.11 335.71 1251.4 z"/>
<path transform="translate(0,0)" fill="rgb(45,16,13)" d="M 333.625 1249.63 L 335.71 1251.4 C 332.234 1257.11 319.363 1273.78 314.71 1279.13 L 311.864 1276.82 C 315.488 1270.73 328.175 1252.63 333.625 1249.63 z"/>
<path transform="translate(0,0)" fill="rgb(247,229,209)" d="M 311.969 1232.5 C 338.117 1208.9 363.422 1200.65 398.138 1201.79 C 388.335 1237.08 380.432 1243.36 358.936 1270.53 C 353.11 1263.33 343.34 1256.67 335.71 1251.4 L 333.625 1249.63 C 327.169 1243.99 318.835 1237.84 311.969 1232.5 z"/>
<path transform="translate(0,0)" fill="rgb(242,176,143)" d="M 156.354 1111.61 L 159.896 1113.8 C 167.217 1119.62 176.83 1126.83 183.823 1132.83 C 184.596 1133.27 186.789 1134.62 187.524 1134.79 C 191.175 1139.44 209.638 1152.5 215.162 1157.21 L 218.189 1159.93 C 212.935 1167.25 202.697 1180.63 196.593 1187.09 L 193.783 1184.89 C 179.307 1175.55 151.146 1152.59 137.099 1141.18 L 134.221 1139.09 C 139.083 1131.45 150.226 1118.9 156.354 1111.61 z"/>
<path transform="translate(0,0)" fill="rgb(45,16,13)" d="M 156.354 1111.61 L 159.896 1113.8 C 153.558 1121.83 144.137 1133.93 137.099 1141.18 L 134.221 1139.09 C 139.083 1131.45 150.226 1118.9 156.354 1111.61 z"/>
<path transform="translate(0,0)" fill="rgb(45,16,13)" d="M 215.162 1157.21 L 218.189 1159.93 C 212.935 1167.25 202.697 1180.63 196.593 1187.09 L 193.783 1184.89 C 197.85 1178.13 209.864 1163.84 215.162 1157.21 z"/>
<path transform="translate(0,0)" fill="rgb(242,176,143)" d="M 218.189 1159.93 C 234.732 1170.51 259.263 1191.82 276.027 1204.39 L 278.719 1207.03 C 273.567 1214.17 263.002 1228.19 256.837 1234.21 L 254.768 1232.35 C 244.011 1225.31 205.875 1195.93 196.593 1187.09 C 202.697 1180.63 212.935 1167.25 218.189 1159.93 z"/>
<path transform="translate(0,0)" fill="rgb(45,16,13)" d="M 276.027 1204.39 L 278.719 1207.03 C 273.567 1214.17 263.002 1228.19 256.837 1234.21 L 254.768 1232.35 C 256.882 1226.54 271.402 1209.72 276.027 1204.39 z"/>
<path transform="translate(0,0)" fill="rgb(45,16,13)" d="M 308.539 1229.8 C 312.607 1225.93 316.929 1222.34 321.477 1219.04 C 342.397 1203.93 373.917 1193.69 399.716 1198 L 398.138 1201.79 C 363.422 1200.65 338.117 1208.9 311.969 1232.5 L 308.539 1229.8 z"/>
<path transform="translate(0,0)" fill="rgb(247,229,209)" d="M 898.097 1585.95 C 914.883 1592.42 922.236 1602.07 929.264 1618.43 L 930.394 1622.3 C 940.5 1644.77 945.475 1676.51 941.026 1700.49 C 944.246 1707.01 947.193 1730.33 937.973 1733.82 C 930.86 1736.51 919.334 1734.11 911.387 1734.99 L 907.73 1734.03 C 898.762 1735.62 848.605 1734.31 838.226 1733.8 L 835.073 1733.65 C 822.268 1734.78 774.938 1734.05 761.981 1733.07 L 757.913 1733.21 C 737.139 1733.95 707.58 1733.46 686.728 1732.68 L 682.7 1732.2 C 671.811 1734.32 641.311 1733.1 630.072 1731.15 C 622.544 1729.84 625.55 1703.72 628.494 1697.81 C 631.298 1685.84 632.852 1678.99 643.941 1671.82 C 664.443 1658.55 686.371 1647.3 707.563 1635.17 C 715.519 1630.62 723.6 1626.09 732.232 1622.96 L 733.613 1621.25 L 737.344 1620.9 C 746.125 1615.38 750.393 1612.55 759.858 1607.93 L 761.593 1606.28 L 764.927 1606.42 C 772.154 1601.92 780.357 1598.22 788.064 1594.55 C 790.088 1593.07 790.238 1593.35 792.825 1593.27 C 795.844 1592.6 797.823 1591.58 800.619 1590.34 C 823.042 1587.64 836.077 1595.87 848.876 1613.87 L 851.263 1616.82 C 853.72 1614.87 863.622 1601.32 867.855 1597.48 C 877.995 1588.26 884.357 1586.09 898.097 1585.95 z"/>
<path transform="translate(0,0)" fill="rgb(247,229,209)" d="M 800.619 1590.34 C 823.042 1587.64 836.077 1595.87 848.876 1613.87 L 851.263 1616.82 C 842.098 1621.73 826.271 1626.57 816.119 1630.35 C 798.333 1637.08 780.598 1643.94 762.915 1650.94 C 749.021 1656.35 727.802 1661.96 721.741 1677.17 C 719.303 1683.29 721.234 1690.56 722.635 1696.82 C 726.676 1699.32 751.8 1697.41 758.5 1698.38 C 757.64 1707.83 757.713 1723.41 757.913 1733.21 C 737.139 1733.95 707.58 1733.46 686.728 1732.68 L 682.7 1732.2 C 671.811 1734.32 641.311 1733.1 630.072 1731.15 C 622.544 1729.84 625.55 1703.72 628.494 1697.81 C 631.298 1685.84 632.852 1678.99 643.941 1671.82 C 664.443 1658.55 686.371 1647.3 707.563 1635.17 C 715.519 1630.62 723.6 1626.09 732.232 1622.96 L 733.613 1621.25 L 737.344 1620.9 C 746.125 1615.38 750.393 1612.55 759.858 1607.93 L 761.593 1606.28 L 764.927 1606.42 C 772.154 1601.92 780.357 1598.22 788.064 1594.55 C 790.088 1593.07 790.238 1593.35 792.825 1593.27 C 795.844 1592.6 797.823 1591.58 800.619 1590.34 z"/>
<path transform="translate(0,0)" fill="rgb(242,176,143)" d="M 722.635 1696.82 C 726.676 1699.32 751.8 1697.41 758.5 1698.38 C 757.64 1707.83 757.713 1723.41 757.913 1733.21 C 737.139 1733.95 707.58 1733.46 686.728 1732.68 C 687.269 1721.08 687.961 1709.48 687.807 1697.87 C 694.737 1697.23 711.655 1697.8 718.528 1698.1 C 720.141 1697.94 721.05 1697.42 722.635 1696.82 z"/>
<path transform="translate(0,0)" fill="rgb(242,176,143)" d="M 628.494 1697.81 C 634.323 1696.88 681.838 1696.36 687.004 1697.63 L 687.807 1697.87 C 687.961 1709.48 687.269 1721.08 686.728 1732.68 L 682.7 1732.2 C 671.811 1734.32 641.311 1733.1 630.072 1731.15 C 622.544 1729.84 625.55 1703.72 628.494 1697.81 z"/>
<path transform="translate(0,0)" fill="rgb(45,16,13)" d="M 682.7 1732.2 C 682.751 1723.29 682.492 1706.8 684.432 1698.79 L 687.004 1697.63 L 687.807 1697.87 C 687.961 1709.48 687.269 1721.08 686.728 1732.68 L 682.7 1732.2 z"/>
<path transform="translate(0,0)" fill="rgb(45,16,13)" d="M 788.064 1594.55 C 790.088 1593.07 790.238 1593.35 792.825 1593.27 C 797.237 1605.07 801.737 1613.51 805.215 1625.91 C 792.086 1621.86 778.662 1617.33 766.086 1611.79 C 769.429 1621.67 771.987 1629.25 774.284 1639.51 L 737.993 1626.44 C 739.689 1632.05 744.527 1644.87 743.486 1649.4 L 742.273 1650.27 C 738.019 1647.04 734.787 1629.6 732.232 1622.96 L 733.613 1621.25 L 737.344 1620.9 C 746.125 1615.38 750.393 1612.55 759.858 1607.93 L 761.593 1606.28 L 764.927 1606.42 C 772.154 1601.92 780.357 1598.22 788.064 1594.55 z"/>
<path transform="translate(0,0)" fill="rgb(247,229,209)" d="M 788.064 1594.55 C 792.15 1603.18 795.333 1610.47 798.853 1619.35 C 792.088 1617.08 770.441 1609.82 764.927 1606.42 C 772.154 1601.92 780.357 1598.22 788.064 1594.55 z"/>
<path transform="translate(0,0)" fill="rgb(247,229,209)" d="M 759.858 1607.93 C 763.276 1616.71 765.539 1623.74 768.256 1632.78 C 762.377 1630.67 741.353 1623.37 737.344 1620.9 C 746.125 1615.38 750.393 1612.55 759.858 1607.93 z"/>
<path transform="translate(0,0)" fill="rgb(45,16,13)" d="M 848.876 1613.87 L 851.263 1616.82 C 842.098 1621.73 826.271 1626.57 816.119 1630.35 C 798.333 1637.08 780.598 1643.94 762.915 1650.94 C 749.021 1656.35 727.802 1661.96 721.741 1677.17 C 719.303 1683.29 721.234 1690.56 722.635 1696.82 C 721.05 1697.42 720.141 1697.94 718.528 1698.1 C 708.105 1659.79 744.141 1653.44 772.546 1642.4 C 797.78 1632.34 823.23 1622.83 848.876 1613.87 z"/>
<path transform="translate(0,0)" fill="rgb(242,176,143)" d="M 881.281 1696.25 L 882.341 1698.42 C 895.211 1700.94 925.086 1697.52 941.026 1700.49 C 944.246 1707.01 947.193 1730.33 937.973 1733.82 C 930.86 1736.51 919.334 1734.11 911.387 1734.99 L 907.73 1734.03 C 898.762 1735.62 848.605 1734.31 838.226 1733.8 L 835.073 1733.65 C 833.852 1728.7 834.943 1705.32 835.138 1699.02 L 838.89 1698.96 C 844.646 1698.99 873.299 1699.65 876.471 1698.17 C 878.996 1699.18 877.739 1698.95 880.324 1698.6 L 881.281 1696.25 z"/>
<path transform="translate(0,0)" fill="rgb(45,16,13)" d="M 907.73 1734.03 C 906.838 1726.01 905.52 1708.3 908.621 1701.26 L 909.915 1701.16 C 912.838 1707.83 911.597 1726.87 911.387 1734.99 L 907.73 1734.03 z"/>
<path transform="translate(0,0)" fill="rgb(45,16,13)" d="M 835.138 1699.02 L 838.89 1698.96 C 839.125 1706.69 839.567 1726.69 838.226 1733.8 L 835.073 1733.65 C 833.852 1728.7 834.943 1705.32 835.138 1699.02 z"/>
<path transform="translate(0,0)" fill="rgb(247,229,209)" d="M 881.281 1696.25 C 888.369 1662.8 903.116 1642.1 930.394 1622.3 C 940.5 1644.77 945.475 1676.51 941.026 1700.49 C 925.086 1697.52 895.211 1700.94 882.341 1698.42 L 881.281 1696.25 z"/>
<path transform="translate(0,0)" fill="rgb(242,176,143)" d="M 761.898 1698.14 C 783.576 1698.12 813.821 1697.62 835.138 1699.02 C 834.943 1705.32 833.852 1728.7 835.073 1733.65 C 822.268 1734.78 774.938 1734.05 761.981 1733.07 L 757.913 1733.21 C 757.713 1723.41 757.64 1707.83 758.5 1698.38 L 761.898 1698.14 z"/>
<path transform="translate(0,0)" fill="rgb(45,16,13)" d="M 761.898 1698.14 C 762.912 1705.64 762.09 1724.72 761.981 1733.07 L 757.913 1733.21 C 757.713 1723.41 757.64 1707.83 758.5 1698.38 L 761.898 1698.14 z"/>
<path transform="translate(0,0)" fill="rgb(45,16,13)" d="M 929.264 1618.43 L 930.394 1622.3 C 903.116 1642.1 888.369 1662.8 881.281 1696.25 L 880.324 1698.6 C 877.739 1698.95 878.996 1699.18 876.471 1698.17 C 883.882 1665.43 898.838 1635.54 929.264 1618.43 z"/>
<path transform="translate(0,0)" fill="rgb(195,83,83)" d="M 1612.33 1428.94 C 1613 1433.1 1641.05 1465.29 1644.27 1466.83 C 1646.26 1472.46 1666.51 1495.09 1671.47 1499.93 C 1680.15 1495.03 1684.25 1492.78 1693.96 1489.9 C 1702.24 1490.01 1708.57 1490.35 1715.75 1495.36 C 1714.21 1487.57 1712.2 1482.24 1717.04 1475.27 C 1719.23 1472.07 1722.71 1469.99 1726.57 1469.56 C 1737.61 1468.25 1741.16 1475.42 1743.34 1484.63 C 1760.67 1557.6 1779.53 1630.6 1795.56 1703.79 C 1797.55 1712.87 1772.34 1731.64 1764.93 1698.35 C 1756.64 1700.46 1752.45 1699.49 1746.48 1692.62 C 1730.08 1673.73 1718.71 1647.5 1701.92 1629.13 L 1698.6 1627.84 C 1696.25 1625.45 1696.22 1623.56 1695.5 1620.27 C 1687.99 1612.18 1679.52 1602.75 1671.07 1595.85 L 1669.89 1596.18 C 1666.18 1587.57 1631.23 1562.32 1621.89 1555.69 C 1585.87 1528.55 1549.38 1502.02 1512.46 1476.12 C 1524.66 1468.03 1601.23 1429.58 1612.33 1428.94 z"/>
<path transform="translate(0,0)" fill="rgb(132,57,57)" d="M 1715.75 1495.36 C 1714.21 1487.57 1712.2 1482.24 1717.04 1475.27 C 1719.23 1472.07 1722.71 1469.99 1726.57 1469.56 C 1737.61 1468.25 1741.16 1475.42 1743.34 1484.63 C 1760.67 1557.6 1779.53 1630.6 1795.56 1703.79 C 1797.55 1712.87 1772.34 1731.64 1764.93 1698.35 C 1756.64 1700.46 1752.45 1699.49 1746.48 1692.62 C 1730.08 1673.73 1718.71 1647.5 1701.92 1629.13 L 1698.6 1627.84 C 1696.25 1625.45 1696.22 1623.56 1695.5 1620.27 C 1704.8 1609.87 1730.78 1609.83 1743.91 1609.74 C 1736.54 1583.79 1731.22 1554.37 1724.22 1528.1 C 1721.66 1518.49 1719.14 1504.25 1715.75 1495.36 z"/>
<path transform="translate(0,0)" fill="rgb(195,83,83)" d="M 1701.92 1629.13 C 1717.78 1623.3 1730.15 1620.52 1747.27 1623.15 C 1748.75 1629.95 1754.9 1652.85 1754.36 1657.95 L 1755.97 1659.56 C 1754.52 1661.76 1755.55 1661.02 1753.02 1662.05 L 1755.95 1662.72 C 1757.98 1666.44 1760.32 1674.02 1759.07 1678.11 C 1761.28 1679.98 1760.56 1678.82 1761.19 1681.76 C 1762.54 1687.3 1763.94 1692.73 1764.93 1698.35 C 1756.64 1700.46 1752.45 1699.49 1746.48 1692.62 C 1730.08 1673.73 1718.71 1647.5 1701.92 1629.13 z"/>
<path transform="translate(0,0)" fill="rgb(45,16,13)" d="M 1761.19 1681.76 C 1747.27 1684.32 1743.52 1677.89 1736.75 1665.6 C 1734.11 1660.81 1725.46 1645.55 1726.75 1641.33 L 1728.67 1640.99 C 1735.03 1647.12 1740.51 1669.13 1748.89 1675.88 C 1752.85 1679.07 1754.15 1678.38 1759.07 1678.11 C 1761.28 1679.98 1760.56 1678.82 1761.19 1681.76 z"/>
<path transform="translate(0,0)" fill="rgb(45,16,13)" d="M 1753.02 1662.05 C 1745.3 1657.97 1732.29 1633.01 1734.2 1625.82 L 1735.8 1625.61 C 1742.96 1633.47 1744.41 1651.66 1754.36 1657.95 L 1755.97 1659.56 C 1754.52 1661.76 1755.55 1661.02 1753.02 1662.05 z"/>
<path transform="translate(0,0)" fill="rgb(254,212,226)" d="M 831.676 567.081 C 839.404 570.293 848.094 575.203 855.591 579.187 C 849.046 596.859 842.15 617.285 834.964 634.418 C 822.683 631.954 814.308 627.931 809.011 641.845 C 799.44 641.825 793.993 641.554 786.107 648.025 C 780.053 652.992 784.814 660.886 789.373 664.473 L 789.606 666.974 C 780.273 676.84 785.461 682.354 790.433 692.243 C 791.241 693.85 788.547 702.284 788.982 704.517 C 793.065 711.181 797.668 727.961 801.396 733.179 C 791.109 768.61 761.356 851.381 797.14 879.408 C 786.866 881.827 776.194 884.185 766.032 886.926 C 759.991 871.015 756.069 848.047 749.359 829.927 C 724.477 762.738 686.859 710.237 634.645 662.133 C 625.115 653.393 615.246 645.031 605.059 637.066 C 597.808 631.352 579.899 620.06 575.811 613.738 L 576.24 612.334 C 578.596 611.475 581.542 611.203 583.998 611.681 C 602.816 615.338 620.574 618.299 639.799 619.636 C 666.267 621.431 692.854 619.981 718.97 615.319 C 745.64 610.545 771.354 601.453 795.097 588.401 C 805.863 582.575 821.086 568.902 831.676 567.081 z"/>
<path transform="translate(0,0)" fill="rgb(247,229,209)" d="M 550.711 1264.53 C 556.557 1263.45 596.729 1263.95 605.139 1263.9 C 606.012 1268.58 606.095 1272.83 605.044 1277.49 C 594.301 1325.11 583.005 1372.81 572.043 1420.36 L 530.331 1600.49 C 526.727 1616.14 510.764 1696.02 504.559 1705.64 C 500.836 1711.42 494.016 1713.93 487.515 1714.92 C 479.153 1716.19 460.921 1716.91 454.01 1711.83 C 451.363 1709.88 450.002 1707.15 449.406 1703.96 C 448.514 1699.2 450.33 1692.29 451.339 1687.54 C 458.597 1653.42 467.236 1619.46 475.099 1585.46 L 523.814 1375.38 C 527.455 1359.87 545.154 1275.23 550.711 1264.53 z"/>
<path transform="translate(0,0)" fill="rgb(88,83,104)" d="M 1243.74 420.965 C 1249.58 416.941 1269.64 413.047 1278.07 410.599 C 1287.07 407.902 1295.97 404.914 1304.77 401.639 C 1331.7 391.503 1357.05 375.544 1381.57 360.643 C 1389.02 356.113 1417.3 332.612 1423.63 332.57 C 1425.99 337.517 1420.15 343.58 1417.27 347.671 C 1380.49 399.891 1351.23 456.909 1327.57 516.175 C 1325.7 520.862 1323.8 525.643 1321.34 530.068 C 1318.41 532.341 1318.27 532.34 1315.06 533.78 L 1312.94 532.238 C 1311.78 532.739 1308.05 534.447 1307.06 534.73 C 1294.48 534.85 1289.34 535.1 1277.31 538.434 C 1271.56 535.604 1270.5 538.788 1266.33 543.201 C 1264.23 541.43 1265.02 542.467 1264.24 539.833 C 1256.42 525.491 1208.34 513.722 1192.34 509.709 L 1190.37 510.193 C 1186.76 511.212 1185.21 511.665 1181.81 513.174 C 1174.15 513.288 1163.29 514.568 1155.59 515.33 C 1149.27 501.046 1141.39 478.19 1135.45 463.054 L 1136.44 462.74 C 1138.88 463.355 1138.7 463.341 1141.13 462.652 C 1143.08 458.531 1140.56 451.086 1139.52 445.706 C 1144.6 446.536 1149.09 448.124 1153.15 445.415 C 1154.43 440.039 1150.33 432.769 1150 427.032 C 1149.76 423.067 1150.66 418.07 1151.31 414.129 C 1170.05 417.738 1188.21 420.785 1207.29 421.539 C 1211.31 421.697 1218.81 421.802 1222.41 422.849 C 1225.17 412.827 1239.99 355.351 1245.16 351.705 C 1247.98 356.311 1244.15 412.351 1243.74 420.965 z"/>
<path transform="translate(0,0)" fill="rgb(254,212,226)" d="M 1243.74 420.965 C 1249.58 416.941 1269.64 413.047 1278.07 410.599 C 1287.07 407.902 1295.97 404.914 1304.77 401.639 C 1331.7 391.503 1357.05 375.544 1381.57 360.643 C 1389.02 356.113 1417.3 332.612 1423.63 332.57 C 1425.99 337.517 1420.15 343.58 1417.27 347.671 C 1380.49 399.891 1351.23 456.909 1327.57 516.175 C 1325.7 520.862 1323.8 525.643 1321.34 530.068 C 1318.41 532.341 1318.27 532.34 1315.06 533.78 L 1312.94 532.238 C 1306.41 523.168 1303.75 521.124 1294.69 514.921 C 1315.99 483.237 1335.6 450.452 1353.44 416.703 C 1358.63 406.754 1366.73 391.203 1369.85 380.705 C 1362.42 386.324 1340.03 412.822 1332.15 421.776 L 1257.41 506.798 C 1250.83 506.878 1244.26 506.789 1237.69 506.531 C 1239.45 482.841 1240.64 443.335 1243.74 420.965 z"/>
<path transform="translate(0,0)" fill="rgb(254,212,226)" d="M 1151.31 414.129 C 1170.05 417.738 1188.21 420.785 1207.29 421.539 C 1211.31 421.697 1218.81 421.802 1222.41 422.849 C 1218.2 438.548 1214.09 454.272 1210.07 470.02 C 1208.52 476.264 1202.37 503.917 1199.97 508.173 C 1196.71 509.437 1195.73 509.391 1192.34 509.709 L 1190.37 510.193 C 1186.76 511.212 1185.21 511.665 1181.81 513.174 C 1174.15 513.288 1163.29 514.568 1155.59 515.33 C 1149.27 501.046 1141.39 478.19 1135.45 463.054 L 1136.44 462.74 C 1138.88 463.355 1138.7 463.341 1141.13 462.652 C 1143.08 458.531 1140.56 451.086 1139.52 445.706 C 1144.6 446.536 1149.09 448.124 1153.15 445.415 C 1154.43 440.039 1150.33 432.769 1150 427.032 C 1149.76 423.067 1150.66 418.07 1151.31 414.129 z"/>
<path transform="translate(0,0)" fill="rgb(45,16,13)" d="M 1403.92 567.927 C 1445.4 555.162 1501.98 545.863 1489.83 611.542 C 1520.13 604.597 1558.05 595.898 1586.54 613.49 C 1600.47 622.224 1610.3 636.198 1613.81 652.26 C 1617.62 668.891 1614.5 686.357 1605.16 700.637 C 1597.02 713.302 1588.13 719.787 1574.97 726.317 C 1593.59 736.412 1604.26 757.024 1580.5 768.106 C 1573.64 760.654 1562.65 748.122 1554.66 742.983 L 1545.81 734.255 L 1542.71 731.531 C 1526.77 717.84 1505.44 700.324 1486.06 692.501 C 1466.74 681.861 1459.54 677.104 1437.92 674.156 C 1434.13 671.306 1430.2 667.912 1426.52 664.871 L 1423.1 662.292 C 1417.15 657.754 1376.63 629.433 1375.3 627.031 L 1376.69 623.552 C 1389.37 621.798 1401.66 622.68 1404.75 607.981 C 1400.91 594.76 1408.9 601.963 1412.06 590.565 C 1413.66 584.83 1407.41 579.581 1404.27 576 C 1402.1 573.519 1403.23 571.41 1403.92 567.927 z"/>
<path transform="translate(0,0)" fill="rgb(106,98,121)" d="M 1542.71 731.531 C 1560.43 703.054 1549.15 680.132 1525.59 660.194 C 1523.22 658.188 1519.49 655.313 1518.26 652.62 L 1519.42 651.471 C 1524.72 652.27 1531.44 659.059 1535.32 662.816 C 1555.37 682.247 1564.25 710.38 1545.81 734.255 L 1542.71 731.531 z"/>
<path transform="translate(0,0)" fill="rgb(106,98,121)" d="M 1423.1 662.292 L 1424.03 661.285 C 1430.12 654.575 1433.06 649.853 1432.86 640.61 C 1432.61 629.179 1420.82 622.217 1419.43 616.46 C 1426.28 610.652 1449.93 641.671 1426.52 664.871 L 1423.1 662.292 z"/>
<path transform="translate(0,0)" fill="rgb(106,98,121)" d="M 1456.23 581.954 C 1464.2 583.93 1471.5 588 1477.37 593.742 C 1487.15 603.238 1492.53 616.387 1492.2 630.018 C 1491.91 646.776 1485.29 657.727 1473.66 668.813 L 1471.49 667.1 C 1471.05 663.623 1493.64 643.609 1487.8 622.555 C 1480.23 595.233 1474.11 599.145 1456.37 584.915 L 1456.23 581.954 z"/>
<path transform="translate(0,0)" fill="rgb(195,83,83)" d="M 1396.89 1545.11 C 1418.76 1532.68 1440.2 1519.51 1461.16 1505.61 C 1466.23 1515.75 1471.64 1530.42 1482.8 1533.39 C 1498.16 1537.48 1510.29 1535.33 1521.97 1548.72 C 1524.41 1534.9 1526.29 1530.04 1542.38 1532.47 C 1546.44 1533.08 1549.1 1536.46 1551 1539.7 C 1551.98 1549.34 1550.58 1564.12 1549.9 1574.22 L 1546.4 1624.91 C 1545.09 1643.87 1538.76 1767.47 1533.91 1778.68 C 1519.63 1791.17 1505.56 1781.75 1507.84 1763.21 C 1494.61 1771.64 1489.88 1763.91 1483.98 1752.28 C 1483.18 1749.52 1482.91 1747.1 1482.45 1744.26 C 1480.91 1740.11 1478.97 1732.71 1477.66 1728.25 C 1475.99 1724.81 1475.92 1721.95 1475.44 1718.16 C 1471.44 1705.82 1467.65 1693.41 1464.08 1680.94 C 1460.36 1679.87 1459.86 1679.09 1458.2 1676.01 C 1457.96 1672.07 1458.35 1671.98 1460.16 1668.55 C 1440.47 1609.6 1437.82 1593.51 1396.89 1545.11 z"/>
<path transform="translate(0,0)" fill="rgb(132,57,57)" d="M 1521.97 1548.72 C 1524.41 1534.9 1526.29 1530.04 1542.38 1532.47 C 1546.44 1533.08 1549.1 1536.46 1551 1539.7 C 1551.98 1549.34 1550.58 1564.12 1549.9 1574.22 L 1546.4 1624.91 C 1545.09 1643.87 1538.76 1767.47 1533.91 1778.68 C 1519.63 1791.17 1505.56 1781.75 1507.84 1763.21 C 1494.61 1771.64 1489.88 1763.91 1483.98 1752.28 C 1483.18 1749.52 1482.91 1747.1 1482.45 1744.26 C 1480.91 1740.11 1478.97 1732.71 1477.66 1728.25 C 1475.99 1724.81 1475.92 1721.95 1475.44 1718.16 C 1471.44 1705.82 1467.65 1693.41 1464.08 1680.94 C 1460.36 1679.87 1459.86 1679.09 1458.2 1676.01 C 1457.96 1672.07 1458.35 1671.98 1460.16 1668.55 C 1481.71 1663.1 1492.45 1661.97 1514.71 1666.21 C 1515.81 1639.71 1518.57 1612.77 1520.12 1586.29 C 1520.65 1577.07 1522.77 1556.84 1521.97 1548.72 z"/>
<path transform="translate(0,0)" fill="rgb(195,83,83)" d="M 1464.08 1680.94 C 1483.87 1675.02 1493.57 1675.24 1513.8 1678.87 C 1511.18 1706.46 1509.94 1735.45 1507.84 1763.21 C 1494.61 1771.64 1489.88 1763.91 1483.98 1752.28 C 1483.18 1749.52 1482.91 1747.1 1482.45 1744.26 C 1480.91 1740.11 1478.97 1732.71 1477.66 1728.25 C 1475.99 1724.81 1475.92 1721.95 1475.44 1718.16 C 1471.44 1705.82 1467.65 1693.41 1464.08 1680.94 z"/>
<path transform="translate(0,0)" fill="rgb(45,16,13)" d="M 1482.45 1744.26 C 1485.63 1738.07 1484.98 1732.49 1485.73 1725.98 C 1486.23 1721.66 1484.5 1705.55 1486.88 1703.68 C 1494.25 1707.76 1489.71 1744.8 1483.98 1752.28 C 1483.18 1749.52 1482.91 1747.1 1482.45 1744.26 z"/>
<path transform="translate(0,0)" fill="rgb(45,16,13)" d="M 1475.44 1718.16 C 1476.82 1710.38 1474.07 1691.96 1475.35 1688.59 C 1482.12 1693.92 1482.48 1720.62 1477.66 1728.25 C 1475.99 1724.81 1475.92 1721.95 1475.44 1718.16 z"/>
<path transform="translate(0,0)" fill="rgb(45,16,13)" d="M 1455.48 1547.79 C 1465.46 1548.65 1475.15 1566.73 1476.51 1575.74 C 1474.34 1575.23 1474.95 1575.4 1472.96 1574.34 C 1468.92 1566.61 1456.03 1550.82 1455.48 1547.79 z"/>
<path transform="translate(0,0)" fill="rgb(254,137,121)" d="M 779.812 1509.06 C 792.522 1504.93 814.445 1500.27 827.971 1496.68 C 839.383 1493.65 863.402 1486.86 874.277 1485.23 C 883.557 1514.8 889.814 1554.83 898.097 1585.95 C 884.357 1586.09 877.995 1588.26 867.855 1597.48 C 863.622 1601.32 853.72 1614.87 851.263 1616.82 L 848.876 1613.87 C 836.077 1595.87 823.042 1587.64 800.619 1590.34 C 795.218 1564.28 783.894 1534.59 779.812 1509.06 z"/>
<path transform="translate(0,0)" fill="rgb(254,137,121)" d="M 322.502 1101.83 C 340.263 1093.82 361.599 1085.87 379.744 1078.17 C 395.2 1071.61 419.555 1061 435.237 1056.21 C 442.257 1088.05 450.288 1119.67 459.318 1151 C 440.613 1158.8 421.162 1165.08 402.246 1172.35 C 396.946 1135.96 363.218 1142.41 337.756 1149.9 L 338.415 1145.32 C 337.734 1126.17 336.382 1115.91 322.502 1101.83 z"/>
<path transform="translate(0,0)" fill="rgb(247,229,209)" d="M 1621.89 1555.69 C 1631.23 1562.32 1666.18 1587.57 1669.89 1596.18 C 1669.49 1603.8 1662.21 1632.21 1660.24 1640.86 C 1655.62 1658.98 1652.44 1677.99 1647 1695.85 C 1642.04 1710.06 1638 1714.91 1622.97 1715.44 C 1589.03 1717.1 1583.09 1712.35 1592.19 1679.16 C 1603.19 1639.05 1610.14 1595.44 1621.89 1555.69 z"/>
<path transform="translate(0,0)" fill="rgb(88,83,104)" d="M 1321.34 530.068 C 1352.37 516.29 1383.45 499.165 1414.79 485.525 C 1425.7 480.777 1440.79 473.105 1452 469.776 C 1441.22 484.813 1372.48 536.199 1354.19 547.694 C 1352.41 546.942 1350.75 546.159 1348.99 545.334 L 1348.04 546.83 C 1345.95 543.197 1347.39 544.41 1343.85 542.771 C 1335.62 538.337 1323.92 536.134 1314.63 535.467 L 1315.06 533.78 C 1318.27 532.34 1318.41 532.341 1321.34 530.068 z"/>
</svg>