<svg version="1.1" xmlns="http://www.w3.org/2000/svg" style="display: block;" viewBox="0 0 2048 2048" width="2000" height="2000" preserveAspectRatio="none">
<path transform="translate(0,0)" fill="rgb(0,108,154)" d="M 996.125 918.024 C 1070.47 942.532 1264.7 931.947 1344.15 917.069 C 1376.72 911.066 1408.57 901.675 1439.18 889.049 L 1468.7 1007.07 C 1471.89 1019.42 1477.32 1043.25 1481.4 1054.83 L 1483.47 1063.35 C 1500.19 1121.23 1514.91 1181.46 1531.62 1239.88 L 1583.81 1423.02 L 1634.64 1596.2 L 1649.95 1647.58 C 1651.29 1652 1655.57 1667.1 1657.09 1670.51 C 1600.13 1693.76 1539.84 1720.98 1483.08 1742.9 L 1481.73 1743.24 C 1466.45 1751.03 1445.95 1757.24 1431.59 1764.69 C 1426.82 1754.45 1414.92 1716.25 1410.38 1702.8 L 1368.08 1579.79 L 1227.97 1179.83 C 1228.09 1203.53 1223.51 1240.47 1221.38 1265.05 L 1210.82 1396.48 L 1183.18 1756.02 C 1168.27 1755.98 1152.71 1755.72 1137.87 1756.27 L 1135.7 1755.87 C 1112.44 1756.61 1086.15 1756.03 1062.71 1756.03 L 923.713 1756.03 C 927.078 1729.9 928.259 1690.8 930.289 1662.91 C 934.809 1601.6 939.687 1540.31 944.925 1479.06 C 945.338 1471.27 946.033 1462.52 946.868 1454.78 C 952.793 1399.83 955.027 1343.25 961.304 1288.48 C 962.487 1283.14 964.85 1248.46 965.477 1241.34 L 975.512 1134.63 C 976.828 1120.92 977.452 1101.18 979.593 1088.29 L 980.121 1080.57 C 985.003 1041.06 986.762 1000.33 991.658 960.713 L 991.399 958.616 C 993.43 947.997 994.577 929.844 996.125 918.024 z"/>
<path transform="translate(0,0)" fill="rgb(0,108,154)" d="M 1137.87 1756.27 C 1151.68 1626.44 1168.02 1496.88 1186.89 1367.68 C 1193.55 1321.76 1201.43 1276.03 1210.54 1230.53 C 1215 1209.07 1220.6 1182.21 1228.14 1161.7 C 1233.47 1174.9 1241.64 1191.67 1247.59 1204.95 L 1288.91 1297.27 C 1330.28 1390.16 1371.17 1483.27 1411.56 1576.59 C 1427.83 1614.58 1443.91 1652.65 1459.78 1690.81 C 1462.75 1697.97 1478.71 1739.77 1481.73 1743.24 C 1466.45 1751.03 1445.95 1757.24 1431.59 1764.69 C 1426.82 1754.45 1414.92 1716.25 1410.38 1702.8 L 1368.08 1579.79 L 1227.97 1179.83 C 1228.09 1203.53 1223.51 1240.47 1221.38 1265.05 L 1210.82 1396.48 L 1183.18 1756.02 C 1168.27 1755.98 1152.71 1755.72 1137.87 1756.27 z"/>
<path transform="translate(0,0)" fill="rgb(0,108,154)" d="M 996.125 918.024 C 1070.47 942.532 1264.7 931.947 1344.15 917.069 C 1376.72 911.066 1408.57 901.675 1439.18 889.049 L 1468.7 1007.07 C 1471.89 1019.42 1477.32 1043.25 1481.4 1054.83 C 1437.57 1027.45 1404.28 1003.11 1386.58 951.739 C 1402.01 946.87 1435.75 937.161 1447.38 928.551 L 1447.08 927.147 C 1443 928.293 1426.59 935.485 1420.91 937.622 C 1403.26 944.159 1385.22 949.608 1366.91 953.939 C 1298.07 970.036 1225.38 972.938 1154.86 973.617 C 1114.91 974.001 1073.84 972.788 1034.2 967.946 C 1020.07 966.22 1005.26 962.066 991.399 958.616 C 993.43 947.997 994.577 929.844 996.125 918.024 z"/>
<path transform="translate(0,0)" fill="rgb(1,146,201)" d="M 991.399 958.616 C 1005.26 962.066 1020.07 966.22 1034.2 967.946 C 1073.84 972.788 1114.91 974.001 1154.86 973.617 C 1225.38 972.938 1298.07 970.036 1366.91 953.939 C 1385.22 949.608 1403.26 944.159 1420.91 937.622 C 1426.59 935.485 1443 928.293 1447.08 927.147 L 1447.38 928.551 C 1435.75 937.161 1402.01 946.87 1386.58 951.739 C 1404.28 1003.11 1437.57 1027.45 1481.4 1054.83 L 1483.47 1063.35 L 1482.34 1064.82 C 1477.19 1063.67 1470.51 1059.09 1465.78 1056.21 C 1424.92 1031.37 1392.48 999.997 1377.31 953.837 C 1343.75 962.768 1302.22 969.015 1267.64 971.493 C 1267.97 996.676 1268.1 1021.86 1268.01 1047.05 C 1268.03 1079.32 1275.03 1116.18 1230.12 1118.3 C 1183.72 1120.49 1189.24 1081.76 1187.36 1048.48 C 1186.02 1024.67 1184.59 999.97 1183.82 975.923 C 1149.81 976.237 1109.24 977.212 1075.68 974.375 C 1060.87 1026.47 1028.65 1059.37 983.838 1089.93 C 982.61 1090.77 981.882 1090.76 980.488 1090.76 L 979.593 1088.29 L 980.121 1080.57 C 985.003 1041.06 986.762 1000.33 991.658 960.713 L 991.399 958.616 z"/>
<path transform="translate(0,0)" fill="rgb(0,108,154)" d="M 991.658 960.713 C 1016.72 970.09 1040.2 970.91 1065.96 973.733 C 1062.34 985.489 1057.44 998.73 1051.06 1009.28 C 1036.15 1033.89 1005.99 1067.32 980.121 1080.57 C 985.003 1041.06 986.762 1000.33 991.658 960.713 z"/>
<path transform="translate(0,0)" fill="rgb(0,108,154)" d="M 1259.24 972.45 C 1261.83 972.004 1261.75 971.858 1264.25 972.533 C 1265.7 976.035 1265.14 1007.72 1265.15 1013.45 L 1265.18 1059.99 C 1265.17 1085.56 1268.18 1111.48 1234.34 1115.49 C 1220.78 1117.1 1213.47 1116.65 1202.33 1108.01 C 1188.56 1094.44 1190.68 1064.52 1189.81 1045.75 L 1186.39 976.144 C 1194.54 974.928 1207.5 974.944 1216.2 974.648 C 1230.56 974.214 1244.91 973.481 1259.24 972.45 z"/>
<path transform="translate(0,0)" fill="rgb(1,146,201)" d="M 961.304 1288.48 C 1054.23 1305.35 1050.23 1466.25 944.925 1479.06 C 945.338 1471.27 946.033 1462.52 946.868 1454.78 C 952.793 1399.83 955.027 1343.25 961.304 1288.48 z"/>
<path transform="translate(0,0)" fill="rgb(1,146,201)" d="M 1583.81 1423.02 C 1579.22 1424.59 1570.89 1424.99 1565.92 1424.76 C 1535.11 1423.3 1509.61 1402.42 1495.66 1376.14 C 1482.11 1350.32 1479.27 1320.2 1487.75 1292.29 C 1495.3 1268.15 1509.37 1251.46 1531.62 1239.88 L 1583.81 1423.02 z"/>
<path transform="translate(0,0)" fill="rgb(1,85,126)" d="M 1135.7 1755.87 C 1146.04 1660.88 1157.54 1566.03 1170.19 1471.32 C 1179.63 1397.73 1191 1324.41 1204.31 1251.42 C 1210.16 1220.85 1216.79 1189.98 1225.84 1160.22 C 1229.04 1149.69 1225.15 1125.26 1228 1119.58 C 1230.17 1123.19 1228.32 1144.42 1229.52 1151.83 C 1231.65 1165.05 1233.97 1169.02 1239.29 1181.05 C 1291.26 1296.29 1342.42 1411.89 1392.77 1527.84 C 1424.15 1598.99 1454.26 1670.68 1483.08 1742.9 L 1481.73 1743.24 C 1478.71 1739.77 1462.75 1697.97 1459.78 1690.81 C 1443.91 1652.65 1427.83 1614.58 1411.56 1576.59 C 1371.17 1483.27 1330.28 1390.16 1288.91 1297.27 L 1247.59 1204.95 C 1241.64 1191.67 1233.47 1174.9 1228.14 1161.7 C 1220.6 1182.21 1215 1209.07 1210.54 1230.53 C 1201.43 1276.03 1193.55 1321.76 1186.89 1367.68 C 1168.02 1496.88 1151.68 1626.44 1137.87 1756.27 L 1135.7 1755.87 z"/>
<path transform="translate(0,0)" fill="rgb(0,108,154)" d="M 1115.95 331.025 C 1117.72 295.001 1123.76 286.93 1158.44 277.053 C 1188.64 268.453 1218.24 272.145 1246.23 286.412 C 1257.73 292.275 1260.65 301.7 1263.36 313.036 C 1270.61 340.468 1278.47 417.297 1263.81 442.308 C 1261.79 445.755 1257.52 450.096 1254.39 452.896 C 1256.73 463.57 1259.3 470 1263.88 479.99 C 1269.94 489.307 1277.45 501.548 1286.94 507.685 C 1291.49 507.863 1298.02 507.911 1302.38 508.394 C 1312.87 509.152 1343.06 511.353 1351.55 514.322 L 1352.17 602.375 C 1352.26 613.954 1352.95 634.443 1352.29 645.59 C 1354.54 683.481 1379.49 734.414 1408.25 759.587 C 1409.22 760.441 1410.23 761.266 1411.25 762.063 C 1413.12 767.638 1413.94 772.716 1415.16 778.41 C 1422.82 814.298 1429.2 851.148 1438.99 886.516 L 1439.18 889.049 C 1408.57 901.675 1376.72 911.066 1344.15 917.069 C 1264.7 931.947 1070.47 942.532 996.125 918.024 L 995.728 915.652 C 996.85 911.861 998.421 893.057 998.902 888.107 L 1004.88 825.922 C 1005.72 817.357 1007.19 798.946 1009.13 791.089 C 1042.17 763.321 1057.97 711.733 1061.96 670.107 C 1058.28 622.743 1056.44 573.885 1053.48 526.298 C 1065.31 518.732 1087.7 512.078 1101.24 509.105 L 1106.32 507.596 C 1123.99 498.564 1128.66 479.8 1136.93 463.41 C 1118.77 447.036 1119.3 434.667 1116.31 410.509 C 1106.83 408.252 1097.05 406.271 1089.82 399.204 C 1082.37 391.914 1079.22 379.218 1088.21 371.734 C 1096.29 365.005 1104.21 365.74 1113.84 366.615 C 1114.38 354.743 1115.09 342.879 1115.95 331.025 z"/>
<path transform="translate(0,0)" fill="rgb(254,125,103)" d="M 1115.95 331.025 C 1117.72 295.001 1123.76 286.93 1158.44 277.053 C 1188.64 268.453 1218.24 272.145 1246.23 286.412 C 1257.73 292.275 1260.65 301.7 1263.36 313.036 C 1270.61 340.468 1278.47 417.297 1263.81 442.308 C 1261.79 445.755 1257.52 450.096 1254.39 452.896 C 1256.73 463.57 1259.3 470 1263.88 479.99 C 1269.94 489.307 1277.45 501.548 1286.94 507.685 C 1282.9 516.219 1279.63 523.203 1273.9 530.647 C 1235.79 580.159 1155.77 568.126 1119.28 523.005 C 1115.6 518.448 1110.39 511.691 1106.32 507.596 C 1123.99 498.564 1128.66 479.8 1136.93 463.41 C 1118.77 447.036 1119.3 434.667 1116.31 410.509 C 1106.83 408.252 1097.05 406.271 1089.82 399.204 C 1082.37 391.914 1079.22 379.218 1088.21 371.734 C 1096.29 365.005 1104.21 365.74 1113.84 366.615 C 1114.38 354.743 1115.09 342.879 1115.95 331.025 z"/>
<path transform="translate(0,0)" fill="rgb(0,0,0)" d="M 1115.95 331.025 C 1117.72 295.001 1123.76 286.93 1158.44 277.053 C 1188.64 268.453 1218.24 272.145 1246.23 286.412 C 1257.73 292.275 1260.65 301.7 1263.36 313.036 C 1257.09 305.469 1244.68 289.926 1234.42 289.515 C 1221.7 289.005 1217.32 301.664 1200.9 304.66 C 1175.61 309.274 1154.62 281.611 1135.24 299.493 C 1124.56 309.35 1121.82 318.612 1115.95 331.025 z"/>
<path transform="translate(0,0)" fill="rgb(144,23,8)" d="M 1254.39 452.896 C 1256.73 463.57 1259.3 470 1263.88 479.99 C 1236.36 489.451 1199.78 485.311 1172.05 478.009 C 1167.19 476.729 1144.26 468.914 1141.64 465.401 C 1187.99 479.699 1214.75 483.08 1254.39 452.896 z"/>
<path transform="translate(0,0)" fill="rgb(144,23,8)" d="M 1171.73 418.442 C 1169.5 412.593 1164.91 398.246 1168.49 392.763 C 1171.51 392.793 1170.08 392.446 1172.66 394.416 C 1176.34 393.751 1197.74 394.961 1203.22 395.022 C 1216.06 395.165 1227.08 394.582 1239.94 393.783 L 1243.12 392.958 C 1248.04 396.432 1243.09 411.483 1241.27 416.692 C 1236.39 424.388 1230.34 428.925 1221.14 430.231 C 1204.7 432.566 1182.08 433.955 1171.73 418.442 z"/>
<path transform="translate(0,0)" fill="rgb(254,82,71)" d="M 1171.73 418.442 C 1192.11 410.441 1220.57 410.084 1241.27 416.692 C 1236.39 424.388 1230.34 428.925 1221.14 430.231 C 1204.7 432.566 1182.08 433.955 1171.73 418.442 z"/>
<path transform="translate(0,0)" fill="rgb(254,254,251)" d="M 1172.66 394.416 C 1176.34 393.751 1197.74 394.961 1203.22 395.022 C 1216.06 395.165 1227.08 394.582 1239.94 393.783 C 1224.65 407.552 1188.55 407.607 1172.66 394.416 z"/>
<path transform="translate(0,0)" fill="rgb(0,0,0)" d="M 1161.51 327.746 C 1169.6 329.36 1183.8 329.819 1188.94 335.153 C 1189.82 339.037 1189.68 337.612 1188.19 341.827 L 1180.12 340.734 C 1173.94 339.879 1163.39 339.321 1159.59 334.298 C 1159.2 330.484 1159.27 331.74 1161.51 327.746 z"/>
<path transform="translate(0,0)" fill="rgb(0,0,0)" d="M 1239.27 323.989 C 1243.23 323.778 1243.54 323.685 1245.76 325.67 C 1247.17 334.272 1230.8 337.335 1223.61 339.935 C 1219.98 340.238 1219.28 340.363 1217.07 337.911 C 1215.98 329.95 1232.67 326.378 1239.27 323.989 z"/>
<path transform="translate(0,0)" fill="rgb(144,23,8)" d="M 1205.22 346.651 C 1213.34 348.986 1228.78 366.242 1227.21 375.125 C 1221.6 381.586 1210.02 382.587 1201.76 383.576 L 1199.9 382.679 L 1199.66 380.893 C 1202.6 378.655 1216 377.059 1223.96 373.4 C 1219.41 364.191 1212.37 357.487 1205.44 349.919 C 1205.37 348.83 1205.3 347.741 1205.22 346.651 z"/>
<path transform="translate(0,0)" fill="rgb(144,23,8)" d="M 1239.28 371.365 C 1260.59 367.272 1264.24 393.472 1262.52 408.812 C 1260.21 406.654 1260.87 391.632 1258.17 385.655 C 1252.64 373.419 1249.25 376.554 1239.28 371.365 z"/>
<path transform="translate(0,0)" fill="rgb(144,23,8)" d="M 1165.81 376.742 L 1168.24 376.92 L 1168.83 377.892 C 1152.16 388.404 1150.92 391.793 1151.03 412.079 L 1150.81 413.006 L 1149.83 413.48 C 1147.87 409.157 1148.56 398.715 1150.15 394.252 C 1153.47 384.881 1157.55 381.295 1165.81 376.742 z"/>
<path transform="translate(0,0)" fill="rgb(0,0,0)" d="M 1229.38 349.498 C 1231.86 348.404 1234.77 349.386 1236.08 351.761 C 1237.39 354.136 1236.66 357.118 1234.41 358.631 C 1232.77 359.737 1230.64 359.82 1228.92 358.846 C 1227.19 357.872 1226.17 356.008 1226.26 354.03 C 1226.36 352.051 1227.57 350.297 1229.38 349.498 z"/>
<path transform="translate(0,0)" fill="rgb(0,0,0)" d="M 1177.26 351.468 C 1180.04 350.946 1182.73 352.729 1183.33 355.492 C 1183.94 358.254 1182.23 360.996 1179.49 361.678 C 1177.64 362.138 1175.69 361.557 1174.39 360.161 C 1173.1 358.765 1172.67 356.776 1173.26 354.968 C 1173.86 353.16 1175.39 351.819 1177.26 351.468 z"/>
<path transform="translate(0,0)" fill="rgb(144,23,8)" d="M 1093.94 377.326 C 1106.22 375.355 1117.78 383.772 1121.35 395.381 C 1117.26 393.829 1114.94 387.061 1110.38 383.968 C 1104.99 380.308 1101.24 380.293 1095.53 377.982 L 1093.94 377.326 z"/>
<path transform="translate(0,0)" fill="rgb(254,82,71)" d="M 1286.94 507.685 C 1291.49 507.863 1298.02 507.911 1302.38 508.394 C 1312.87 509.152 1343.06 511.353 1351.55 514.322 L 1352.17 602.375 C 1352.26 613.954 1352.95 634.443 1352.29 645.59 C 1352.2 648.717 1352.54 651.728 1350.91 654.224 C 1342.98 655.416 1312.65 656.9 1303.84 656.891 C 1255.19 659.781 1164.88 665.021 1111.98 667.426 C 1111.48 667.045 1110.98 666.664 1110.48 666.282 C 1106.19 669.42 1069.38 670.093 1061.96 670.107 C 1058.28 622.743 1056.44 573.885 1053.48 526.298 C 1065.31 518.732 1087.7 512.078 1101.24 509.105 L 1106.32 507.596 C 1110.39 511.691 1115.6 518.448 1119.28 523.005 C 1155.77 568.126 1235.79 580.159 1273.9 530.647 C 1279.63 523.203 1282.9 516.219 1286.94 507.685 z"/>
<path transform="translate(0,0)" fill="rgb(1,146,201)" d="M 1053.48 526.298 C 1065.31 518.732 1087.7 512.078 1101.24 509.105 C 1101.75 515.827 1102.24 522.335 1102.5 529.073 L 1102.93 533.898 C 1104.72 577.546 1107.89 622.57 1110.48 666.282 C 1106.19 669.42 1069.38 670.093 1061.96 670.107 C 1058.28 622.743 1056.44 573.885 1053.48 526.298 z"/>
<path transform="translate(0,0)" fill="rgb(1,146,201)" d="M 1302.38 508.394 C 1312.87 509.152 1343.06 511.353 1351.55 514.322 L 1352.17 602.375 C 1352.26 613.954 1352.95 634.443 1352.29 645.59 C 1352.2 648.717 1352.54 651.728 1350.91 654.224 C 1342.98 655.416 1312.65 656.9 1303.84 656.891 L 1302.72 531.262 L 1302.98 524.843 C 1302.59 520.043 1302.55 513.339 1302.38 508.394 z"/>
<path transform="translate(0,0)" fill="rgb(254,82,71)" d="M 1286.94 507.685 C 1291.49 507.863 1298.02 507.911 1302.38 508.394 C 1302.55 513.339 1302.59 520.043 1302.98 524.843 L 1302.72 531.262 C 1293.09 544.428 1284.17 556.8 1270.56 566.174 C 1210.86 607.308 1147.06 582.154 1102.93 533.898 L 1102.5 529.073 C 1102.24 522.335 1101.75 515.827 1101.24 509.105 L 1106.32 507.596 C 1110.39 511.691 1115.6 518.448 1119.28 523.005 C 1155.77 568.126 1235.79 580.159 1273.9 530.647 C 1279.63 523.203 1282.9 516.219 1286.94 507.685 z"/>
<path transform="translate(0,0)" fill="rgb(254,254,251)" d="M 1102.5 529.073 C 1136.82 567.711 1179.45 592.941 1233.07 580.651 C 1265.49 573.219 1285.92 552.35 1302.98 524.843 L 1302.72 531.262 C 1293.09 544.428 1284.17 556.8 1270.56 566.174 C 1210.86 607.308 1147.06 582.154 1102.93 533.898 L 1102.5 529.073 z"/>
<path transform="translate(0,0)" fill="rgb(1,146,201)" d="M 995.728 915.652 C 1078.22 938.573 1248.48 930.013 1335.06 916.04 C 1373.08 909.903 1403.48 899.557 1438.99 886.516 L 1439.18 889.049 C 1408.57 901.675 1376.72 911.066 1344.15 917.069 C 1264.7 931.947 1070.47 942.532 996.125 918.024 L 995.728 915.652 z"/>
<path transform="translate(0,0)" fill="rgb(1,146,201)" d="M 1124.45 767.785 L 1125.47 764.445 C 1129.03 762.905 1300.08 754.348 1320.01 754.053 C 1319.9 768.508 1319.76 783.458 1320.1 798.305 C 1320.64 821.468 1319.77 844.428 1290.74 847.187 C 1271 849.063 1250.66 848.799 1230.83 850.032 C 1209.63 850.126 1176.5 853.982 1156.5 852.85 C 1148.01 852.432 1140.1 848.442 1134.71 841.866 C 1125.19 830.085 1126.31 786.157 1124.45 767.785 z"/>
<path transform="translate(0,0)" fill="rgb(1,146,201)" d="M 1122.98 738.07 C 1141 737.83 1160.41 736.205 1178.53 735.461 C 1225.47 733.535 1272.97 729.988 1319.9 728.599 C 1319.96 736.356 1319.91 744.113 1319.75 751.868 C 1273.45 752.118 1222.71 757.526 1176.11 758.854 C 1160.44 759.3 1138.91 761.556 1124.17 760.921 C 1123.85 753.3 1123.45 745.683 1122.98 738.07 z"/>
<path transform="translate(0,0)" fill="rgb(254,254,251)" d="M 1085.86 681.523 C 1092.79 680.047 1099.63 684.436 1101.17 691.36 C 1102.71 698.284 1098.38 705.156 1091.47 706.762 C 1084.47 708.389 1077.49 703.994 1075.93 696.978 C 1074.37 689.962 1078.83 683.019 1085.86 681.523 z"/>
<path transform="translate(0,0)" fill="rgb(254,254,251)" d="M 1328.64 667.506 C 1333.17 666.164 1338.06 667.396 1341.42 670.72 C 1344.77 674.043 1346.04 678.929 1344.74 683.465 C 1343.43 688 1339.76 691.465 1335.15 692.501 C 1328.36 694.032 1321.57 689.896 1319.81 683.152 C 1318.06 676.409 1321.96 669.487 1328.64 667.506 z"/>
<path transform="translate(0,0)" fill="rgb(42,43,33)" d="M 390.435 1094.95 C 451.665 1081.05 481.67 1146.73 491 1195.45 C 498.529 1234.77 501.639 1275.02 499.55 1315 L 499.025 1325.97 C 498.731 1374.77 499.979 1423.57 502.765 1472.29 C 504.206 1496.18 505.855 1525.05 509.893 1548.37 C 519.011 1601.03 538.257 1654.99 557.314 1704.77 C 563.656 1721.34 571.718 1743.32 578.785 1759.1 L 579.636 1761.58 C 581.731 1767.04 584.377 1773.5 586.178 1778.96 L 577.541 1784.51 L 523.149 1819.48 C 515.854 1824.18 502.566 1832.19 495.969 1837.21 C 490.782 1840.74 484.707 1844.38 479.336 1847.76 C 476.249 1842.5 473.599 1836.85 470.894 1831.37 L 469.558 1829.78 C 465.978 1818.3 456.052 1798.57 451.223 1785.24 C 435.318 1741.05 421.716 1696.06 410.473 1650.45 C 406.794 1635.84 400.651 1613.13 398.779 1599 L 397.396 1598.32 C 378.845 1654.1 379.449 1749.03 377.132 1809.1 C 376.859 1816.17 376.683 1852.48 377.562 1857.31 L 377.075 1858.99 L 377.07 1877.33 C 374.115 1877.37 369.179 1877.18 366.503 1877.87 C 363.591 1876.38 278.346 1877.14 268.007 1877.16 L 267.946 1859.11 L 267.869 1856.62 C 268.843 1801.04 272.287 1740.34 280.043 1685.52 C 286.309 1641.23 297.172 1593.06 306.576 1549.01 L 355.58 1325.89 C 356.484 1322.41 356.933 1318.56 357.452 1314.97 C 356.061 1270.99 344.892 1242.22 324.598 1204.37 C 313.302 1213.12 299.798 1223.56 287.629 1230.85 C 280.691 1208.26 281.35 1206.06 270.379 1183.09 L 269.823 1180.47 C 273.755 1174.28 279.311 1157.5 281.922 1150.15 C 298.858 1134.45 314.523 1125.67 335.232 1115.3 L 349.629 1113.93 C 352.23 1122.35 357.052 1135.59 369.28 1128.9 C 380.895 1122.55 386.45 1106.97 390.435 1094.95 z"/>
<path transform="translate(0,0)" fill="rgb(254,187,1)" d="M 390.435 1094.95 C 451.665 1081.05 481.67 1146.73 491 1195.45 C 498.529 1234.77 501.639 1275.02 499.55 1315 L 459.553 1314.83 C 461.667 1288.97 465.325 1263.27 466.906 1237.59 C 444.148 1237.74 421.389 1237.73 398.631 1237.55 C 399.591 1243.33 403.654 1265.1 403.421 1269.11 C 402.501 1284.89 399.264 1298.5 398.734 1315.09 C 388.95 1314.17 367.797 1314.89 357.452 1314.97 C 356.061 1270.99 344.892 1242.22 324.598 1204.37 C 313.302 1213.12 299.798 1223.56 287.629 1230.85 C 280.691 1208.26 281.35 1206.06 270.379 1183.09 L 269.823 1180.47 C 273.755 1174.28 279.311 1157.5 281.922 1150.15 C 298.858 1134.45 314.523 1125.67 335.232 1115.3 L 349.629 1113.93 C 352.23 1122.35 357.052 1135.59 369.28 1128.9 C 380.895 1122.55 386.45 1106.97 390.435 1094.95 z"/>
<path transform="translate(0,0)" fill="rgb(110,87,6)" d="M 415.66 1118.64 C 414.418 1121.51 414.423 1121.52 412.494 1123.98 C 396.75 1145.91 396.524 1182.5 397.446 1208.42 C 397.714 1215.96 399.573 1230.74 398.631 1237.55 C 394.163 1223.93 394.913 1180.04 396.984 1165.37 C 399.072 1150.58 403.169 1128.36 415.66 1118.64 z"/>
<path transform="translate(0,0)" fill="rgb(141,112,8)" d="M 415.66 1118.64 C 419.26 1114.55 427.356 1112.57 432.417 1113.97 L 433.004 1115.45 C 431.172 1116.08 428.708 1116.4 426.827 1116.15 C 420.876 1115.35 417.193 1119.79 412.494 1123.98 C 414.423 1121.52 414.418 1121.51 415.66 1118.64 z"/>
<path transform="translate(0,0)" fill="rgb(240,240,212)" d="M 398.631 1237.55 C 421.389 1237.73 444.148 1237.74 466.906 1237.59 C 465.325 1263.27 461.667 1288.97 459.553 1314.83 L 458.513 1325.23 C 455.022 1356.51 450.75 1389.02 444.425 1419.77 C 453.668 1427.42 459.046 1432.56 461.164 1445.03 C 463.125 1456.57 449.222 1465.57 458.167 1473.41 C 465.249 1479.61 485.78 1464.88 479.421 1484.44 L 480.062 1486.67 C 481.616 1492 482.215 1492.98 480.57 1498.19 L 480.995 1500.37 C 481.853 1504.46 482.216 1505.07 481.317 1509 L 480.539 1511.95 C 479.407 1524.59 472.673 1528.07 460.318 1528.67 C 437.23 1529.79 410.455 1499.66 404.993 1479.02 C 401.125 1464.41 408.189 1440.77 407.442 1425.57 C 406.769 1410.45 402.806 1395.97 400.808 1381.02 C 398.249 1361.88 398.056 1345.04 397.946 1325.87 L 398.734 1315.09 C 399.264 1298.5 402.501 1284.89 403.421 1269.11 C 403.654 1265.1 399.591 1243.33 398.631 1237.55 z"/>
<path transform="translate(0,0)" fill="rgb(182,181,149)" d="M 480.062 1486.67 C 470.253 1492.77 455.305 1497.51 447.803 1485.16 L 448.591 1484.05 C 462.202 1493.46 464.64 1491.98 479.421 1484.44 L 480.062 1486.67 z"/>
<path transform="translate(0,0)" fill="rgb(182,181,149)" d="M 480.539 1511.95 C 468.737 1517.98 458.351 1522.53 448.052 1511.34 L 448.667 1510.38 C 461.643 1518.57 468.704 1515.21 481.317 1509 L 480.539 1511.95 z"/>
<path transform="translate(0,0)" fill="rgb(182,181,149)" d="M 480.995 1500.37 C 474.899 1503.61 470.041 1506.14 462.868 1506.62 C 458.531 1506.91 448.498 1503.17 448.324 1498.6 C 451.744 1499.69 453.889 1501.63 457.286 1502.69 C 466.643 1505.63 472.45 1502.4 480.57 1498.19 L 480.995 1500.37 z"/>
<path transform="translate(0,0)" fill="rgb(42,43,33)" d="M 579.636 1761.58 C 581.731 1767.04 584.377 1773.5 586.178 1778.96 L 577.541 1784.51 L 523.149 1819.48 C 515.854 1824.18 502.566 1832.19 495.969 1837.21 C 490.782 1840.74 484.707 1844.38 479.336 1847.76 C 476.249 1842.5 473.599 1836.85 470.894 1831.37 C 479.533 1826.94 498.652 1813.91 507.62 1808.12 L 579.636 1761.58 z"/>
<path transform="translate(0,0)" fill="rgb(42,43,33)" d="M 267.946 1859.11 L 377.075 1858.99 L 377.07 1877.33 C 374.115 1877.37 369.179 1877.18 366.503 1877.87 C 363.591 1876.38 278.346 1877.14 268.007 1877.16 L 267.946 1859.11 z"/>
<path transform="translate(0,0)" fill="rgb(0,0,0)" d="M 357.452 1314.97 C 367.797 1314.89 388.95 1314.17 398.734 1315.09 L 397.946 1325.87 L 355.58 1325.89 C 356.484 1322.41 356.933 1318.56 357.452 1314.97 z"/>
<path transform="translate(0,0)" fill="rgb(0,0,0)" d="M 459.553 1314.83 L 499.55 1315 L 499.025 1325.97 C 492.122 1326.01 463.559 1326.61 458.513 1325.23 L 459.553 1314.83 z"/>
<path transform="translate(0,0)" fill="rgb(0,0,0)" d="M 397.396 1598.32 C 390.909 1560.87 386.531 1522.56 381.082 1484.92 C 377.894 1462.9 376.003 1453.07 354.384 1442.91 L 354.928 1441.64 C 366.629 1441.06 379.043 1458.75 380.848 1468.19 C 384.171 1485.57 386.254 1505.89 388.754 1523.36 L 395.627 1570.43 C 396.801 1578.42 399.389 1591.3 398.779 1599 L 397.396 1598.32 z"/>
<path transform="translate(0,0)" fill="rgb(0,0,0)" d="M 578.785 1759.1 L 579.636 1761.58 L 507.62 1808.12 C 498.652 1813.91 479.533 1826.94 470.894 1831.37 L 469.558 1829.78 C 477.95 1823.1 498.378 1810.79 508.697 1804.13 C 531.93 1788.92 555.294 1773.91 578.785 1759.1 z"/>
<path transform="translate(0,0)" fill="rgb(0,0,0)" d="M 267.869 1856.62 C 302.395 1857.96 344.342 1854.93 377.562 1857.31 L 377.075 1858.99 L 267.946 1859.11 L 267.869 1856.62 z"/>
<path transform="translate(0,0)" fill="rgb(254,254,251)" d="M 1742.16 124.369 C 1753.06 116.786 1827.78 59.6644 1834.07 60.09 C 1836.88 60.2804 1837.65 61.2084 1839.51 63.0609 C 1840.02 64.9732 1840.9 67.8725 1839.21 69.1882 C 1816.12 87.2198 1771.64 119.957 1749.44 135.161 C 1766.47 146.472 1780.73 176.208 1788.94 194.518 C 1791.78 200.863 1793.5 208.429 1796.08 214.433 C 1830.96 203.93 1866.08 193.406 1901.05 183.182 C 1903.76 182.389 1904.35 182.755 1906.96 183.637 C 1909.89 186.617 1908.95 184.916 1910 188.889 C 1909.6 190.998 1908.82 193.861 1906.79 194.563 C 1877.27 204.767 1827.45 219.213 1798.72 227.018 C 1806.57 247.056 1812.78 313.727 1805.14 332.22 C 1818.67 333.385 1905.65 339.166 1911.77 342.229 C 1915.04 346.378 1914.85 349.135 1910.71 352.555 C 1901.16 354.455 1819.22 346.385 1803.94 345.028 C 1795.29 441.834 1701.5 541.184 1613.21 453.331 C 1612.15 454.126 1609.83 455.691 1609.14 456.629 C 1605.65 456.342 1599.62 454.942 1596 454.218 C 1580.57 451.473 1564.95 446.803 1549.41 443.723 C 1509.7 435.852 1470.33 428.354 1429.96 424.79 C 1425.4 423.926 1420.1 423.701 1415.42 423.352 C 1390.42 421.811 1378.16 423.622 1356.27 411.597 L 1352.19 413.112 C 1342.55 419.728 1333.74 424.153 1322.47 432.416 C 1287.11 422.488 1274.37 370.559 1300.73 345.77 C 1314.94 348.534 1321.3 349.173 1335.81 349.127 L 1339.31 350.119 C 1348.58 330.329 1364.96 322.434 1382.21 310.531 L 1434.81 274.029 C 1485.68 238.894 1535.33 202.022 1583.67 163.478 C 1584.99 162.361 1586.33 160.243 1587.35 158.727 C 1605.91 131.1 1628.23 107.411 1662.62 101.732 C 1693.16 96.6885 1717.48 106.647 1742.16 124.369 z M 1570.89 253.946 C 1628.41 243.308 1639.46 366.154 1584.08 377.579 C 1591.28 395.297 1610.24 437.222 1627.77 445.9 C 1648.66 436.88 1661.75 429.511 1674.77 408.849 C 1713.77 346.976 1707.24 235.515 1643.39 191.57 C 1626.47 179.928 1609.27 181.24 1590.13 185.687 C 1578.83 214.602 1576.42 222.053 1570.89 253.946 z"/>
<path transform="translate(0,0)" fill="rgb(254,254,251)" d="M 1583.67 163.478 C 1584.5 165.939 1582.1 169.424 1580.85 171.983 C 1538.07 259.465 1547.66 380.118 1613.21 453.331 C 1612.15 454.126 1609.83 455.691 1609.14 456.629 C 1605.65 456.342 1599.62 454.942 1596 454.218 C 1580.57 451.473 1564.95 446.803 1549.41 443.723 C 1509.7 435.852 1470.33 428.354 1429.96 424.79 C 1425.4 423.926 1420.1 423.701 1415.42 423.352 C 1390.42 421.811 1378.16 423.622 1356.27 411.597 L 1352.19 413.112 C 1342.55 419.728 1333.74 424.153 1322.47 432.416 C 1287.11 422.488 1274.37 370.559 1300.73 345.77 C 1314.94 348.534 1321.3 349.173 1335.81 349.127 L 1339.31 350.119 C 1348.58 330.329 1364.96 322.434 1382.21 310.531 L 1434.81 274.029 C 1485.68 238.894 1535.33 202.022 1583.67 163.478 z"/>
<path transform="translate(0,0)" fill="rgb(254,254,251)" d="M 1300.73 345.77 C 1314.94 348.534 1321.3 349.173 1335.81 349.127 L 1339.31 350.119 C 1332.03 377.415 1336.33 392.446 1356.27 411.597 L 1352.19 413.112 C 1342.55 419.728 1333.74 424.153 1322.47 432.416 C 1287.11 422.488 1274.37 370.559 1300.73 345.77 z"/>
<path transform="translate(0,0)" fill="rgb(240,240,212)" d="M 1335.81 349.127 L 1339.31 350.119 C 1332.03 377.415 1336.33 392.446 1356.27 411.597 L 1352.19 413.112 C 1332.73 396.947 1326.93 372.817 1335.81 349.127 z"/>
<path transform="translate(0,0)" fill="rgb(254,82,71)" d="M 1583.67 163.478 C 1584.99 162.361 1586.33 160.243 1587.35 158.727 C 1605.91 131.1 1628.23 107.411 1662.62 101.732 C 1693.16 96.6885 1717.48 106.647 1742.16 124.369 C 1737.9 127.682 1733.98 130.784 1729.46 133.774 C 1718.52 125.839 1710.98 120.944 1697.88 117.125 C 1653.51 104.191 1614.5 136.701 1595.22 174.091 C 1593.27 177.882 1591.23 181.552 1590.13 185.687 C 1578.83 214.602 1576.42 222.053 1570.89 253.946 C 1628.41 243.308 1639.46 366.154 1584.08 377.579 C 1591.28 395.297 1610.24 437.222 1627.77 445.9 L 1627.01 446.355 C 1632.77 456.637 1660.29 469.959 1672.11 471.606 C 1745.58 481.851 1780.05 401.736 1790.82 343.86 C 1795.23 344.161 1799.57 344.365 1803.94 345.028 C 1795.29 441.834 1701.5 541.184 1613.21 453.331 C 1547.66 380.118 1538.07 259.465 1580.85 171.983 C 1582.1 169.424 1584.5 165.939 1583.67 163.478 z"/>
<path transform="translate(0,0)" fill="rgb(0,0,0)" d="M 1570.89 253.946 C 1628.41 243.308 1639.46 366.154 1584.08 377.579 C 1569.82 338.201 1566.17 295.406 1570.89 253.946 z"/>
<path transform="translate(0,0)" fill="rgb(0,0,0)" d="M 1796.08 214.433 C 1830.96 203.93 1866.08 193.406 1901.05 183.182 C 1903.76 182.389 1904.35 182.755 1906.96 183.637 C 1909.89 186.617 1908.95 184.916 1910 188.889 C 1909.6 190.998 1908.82 193.861 1906.79 194.563 C 1877.27 204.767 1827.45 219.213 1798.72 227.018 L 1785.91 230.523 C 1776.71 233.837 1745.73 245.17 1738.36 240.111 C 1734.2 229.971 1749.51 228.385 1756.55 226.119 C 1764.95 223.415 1773.77 221.085 1782.26 218.597 L 1796.08 214.433 z"/>
<path transform="translate(0,0)" fill="rgb(0,0,0)" d="M 1742.16 124.369 C 1753.06 116.786 1827.78 59.6644 1834.07 60.09 C 1836.88 60.2804 1837.65 61.2084 1839.51 63.0609 C 1840.02 64.9732 1840.9 67.8725 1839.21 69.1882 C 1816.12 87.2198 1771.64 119.957 1749.44 135.161 C 1746.32 137.354 1742.01 140.18 1739.12 142.497 C 1728.18 150.251 1712.04 163.747 1699.82 169.703 C 1697.91 170.63 1695.67 169.211 1693.96 168.122 C 1690.18 161.475 1698.64 155.906 1703.61 152.301 C 1712.19 146.088 1720.86 139.958 1729.46 133.774 C 1733.98 130.784 1737.9 127.682 1742.16 124.369 z"/>
<path transform="translate(0,0)" fill="rgb(0,0,0)" d="M 1790.82 343.86 C 1775.4 341.965 1757.66 342.329 1742.39 339.314 C 1738.69 338.583 1736.72 336.993 1734.99 333.886 C 1735.63 330.139 1734.93 331.864 1737.54 328.695 C 1743.09 325.682 1782.83 330.506 1792.71 331.25 C 1796.83 331.608 1801.02 332.029 1805.14 332.22 C 1818.67 333.385 1905.65 339.166 1911.77 342.229 C 1915.04 346.378 1914.85 349.135 1910.71 352.555 C 1901.16 354.455 1819.22 346.385 1803.94 345.028 C 1799.57 344.365 1795.23 344.161 1790.82 343.86 z"/>
<path transform="translate(0,0)" fill="rgb(254,82,71)" d="M 1785.91 230.523 L 1798.72 227.018 C 1806.57 247.056 1812.78 313.727 1805.14 332.22 C 1801.02 332.029 1796.83 331.608 1792.71 331.25 C 1795.61 291.433 1794.53 270.046 1785.91 230.523 z"/>
<path transform="translate(0,0)" fill="rgb(254,82,71)" d="M 1749.44 135.161 C 1766.47 146.472 1780.73 176.208 1788.94 194.518 C 1791.78 200.863 1793.5 208.429 1796.08 214.433 L 1782.26 218.597 C 1776.68 193.476 1756.84 161.278 1739.12 142.497 C 1742.01 140.18 1746.32 137.354 1749.44 135.161 z"/>
<path transform="translate(0,0)" fill="rgb(254,125,103)" d="M 841.55 713.014 C 865.73 732.736 890.371 757.579 914.467 777.88 C 922.781 784.885 931.463 793.687 939.943 800.299 C 900.239 844.739 860.384 894.21 822.212 940.27 L 785.365 984.692 C 778.109 993.44 768.245 1004.61 762.213 1013.97 C 761.997 1034.71 760.142 1049.24 749.522 1067.62 C 745.293 1074.95 739.081 1083.37 739.044 1091.6 C 737.904 1105.78 772.544 1158.62 740.823 1156.56 C 726.044 1155.13 705.655 1142.29 697.142 1130.32 C 685.205 1114.31 686.619 1093.83 688.206 1075.14 C 667.533 1091.24 533.298 1185.48 517.233 1184.19 C 513.085 1183.86 509.057 1181.35 506.453 1178.18 C 504.314 1175.57 504.039 1172.09 504.621 1168.89 C 507.166 1154.91 532.323 1128.97 542.164 1117.15 L 544.146 1115.41 L 550.523 1108.2 L 552.42 1106.06 L 554.902 1103.28 L 555.015 1102.15 C 549.303 1092.17 549.141 1092.03 549.532 1080.41 C 536.924 1065.66 535.692 1064.64 538.175 1045.38 L 538.102 1043.74 C 537.391 1039.94 536.808 1036.56 536.33 1032.64 C 532.055 1001.89 570.002 986.785 592.897 974.095 C 632.173 952.326 655.856 928.065 685.57 894.635 C 707.652 869.515 729.412 844.114 750.844 818.439 C 780.86 783.109 811.096 747.967 841.55 713.014 z"/>
<path transform="translate(0,0)" fill="rgb(144,23,8)" d="M 555.015 1102.15 C 569.309 1090.12 582.882 1077.26 595.663 1063.63 C 598.981 1060.11 613.399 1043.32 615.872 1042.38 L 616.341 1043.59 C 612.205 1050.69 562.015 1104.11 554.902 1103.28 L 555.015 1102.15 z"/>
<path transform="translate(0,0)" fill="rgb(144,23,8)" d="M 538.102 1043.74 C 542.806 1035.47 554.073 1016.89 563.969 1014.77 C 561.178 1019.46 556.589 1021.96 552.546 1026.56 C 548.742 1030.89 542.067 1043.12 538.175 1045.38 L 538.102 1043.74 z"/>
<path transform="translate(0,0)" fill="rgb(144,23,8)" d="M 550.523 1108.2 L 552.42 1106.06 C 559.12 1112.26 560.434 1113.5 565.293 1121.14 L 564.515 1121.35 C 557.769 1116.25 556.16 1113.06 550.523 1108.2 z"/>
<path transform="translate(0,0)" fill="rgb(144,23,8)" d="M 544.146 1115.41 C 548.148 1119.08 555.272 1125.64 556.981 1130.83 C 552 1127.64 546.795 1121.6 542.164 1117.15 L 544.146 1115.41 z"/>
<path transform="translate(0,0)" fill="rgb(144,23,8)" d="M 580.43 1034.82 C 581.427 1038.33 575.983 1041.56 573.275 1044.13 C 563.464 1053.42 559.69 1067 552.86 1077.88 L 552.005 1079.22 L 550.708 1078.23 C 553.501 1064.42 568.786 1043.47 580.43 1034.82 z"/>
<path transform="translate(0,0)" fill="rgb(144,23,8)" d="M 524.431 1144.17 C 546.667 1142.32 540.54 1170.92 516.409 1174.48 C 515.672 1173.26 515.965 1174 515.786 1172.17 L 517.037 1171.81 C 533.246 1166.85 546.034 1154.55 524.431 1144.17 z"/>
<path transform="translate(0,0)" fill="rgb(144,23,8)" d="M 739.842 1112.62 C 740.332 1113.05 740.822 1113.49 741.313 1113.92 C 740.389 1114.89 739.489 1115.88 738.616 1116.9 C 726.843 1130.5 732.489 1138.86 746.627 1145.47 C 746.891 1145.75 747.155 1146.03 747.419 1146.31 C 730.839 1148.55 723 1124.96 739.842 1112.62 z"/>
<path transform="translate(0,0)" fill="rgb(144,23,8)" d="M 711.428 1058.88 L 713.191 1059.13 L 713.119 1060.34 C 703.925 1065.19 698.489 1067.44 690.433 1074.17 L 689.138 1074.9 L 688.413 1074.19 C 692.801 1066.42 703.46 1062.17 711.428 1058.88 z"/>
<path transform="translate(0,0)" fill="rgb(254,125,103)" d="M 1427.45 460.011 C 1436.79 450.072 1451.55 442.723 1465.2 443.071 C 1494.63 443.82 1542.04 448.44 1569.25 458.578 C 1575.32 461.613 1575.98 463.209 1578.27 469.761 C 1584.21 473.49 1586.32 475.975 1591.19 481.006 C 1595.22 470.145 1596.07 465.662 1596 454.218 C 1599.62 454.942 1605.65 456.342 1609.14 456.629 C 1613.01 464.787 1605.63 485.646 1600.33 492.851 C 1614.03 497.667 1716.13 604.134 1730.05 620.969 C 1737.35 629.664 1743.59 639.193 1748.64 649.356 C 1765.2 683.484 1759.76 727.323 1721.85 742.388 C 1658.52 767.554 1565.31 744.192 1502.49 726.757 C 1495.68 725.019 1486.77 722.526 1480.48 719.514 C 1482.89 712.994 1489.51 680.451 1491.37 672.077 L 1513.95 570.472 L 1519.49 572.172 C 1521.98 569.916 1521.99 569.286 1523.37 566.248 C 1520.77 565.433 1519.21 564.331 1516.89 562.946 C 1511.23 561.689 1505.71 559.835 1500.44 557.416 C 1489.37 552.222 1482.08 546.463 1477.92 534.836 C 1464.04 539.332 1452.85 540.989 1441.01 531.248 C 1404.22 530.257 1403.06 498.335 1417.46 472.197 L 1427.45 460.011 z"/>
<path transform="translate(0,0)" fill="rgb(254,125,103)" d="M 1427.45 460.011 C 1436.79 450.072 1451.55 442.723 1465.2 443.071 C 1494.63 443.82 1542.04 448.44 1569.25 458.578 C 1575.32 461.613 1575.98 463.209 1578.27 469.761 C 1584.21 473.49 1586.32 475.975 1591.19 481.006 C 1595.22 470.145 1596.07 465.662 1596 454.218 C 1599.62 454.942 1605.65 456.342 1609.14 456.629 C 1613.01 464.787 1605.63 485.646 1600.33 492.851 C 1584.71 510.862 1571.96 512.434 1549.43 515.141 C 1549.37 524.863 1548.72 528.388 1553.18 537.117 C 1540.33 545.291 1528.34 551.703 1516.38 538.192 C 1496.25 544.564 1496.58 543.583 1479.55 534.254 L 1477.92 534.836 C 1464.04 539.332 1452.85 540.989 1441.01 531.248 C 1404.22 530.257 1403.06 498.335 1417.46 472.197 L 1427.45 460.011 z"/>
<path transform="translate(0,0)" fill="rgb(0,0,0)" d="M 1596 454.218 C 1599.62 454.942 1605.65 456.342 1609.14 456.629 C 1613.01 464.787 1605.63 485.646 1600.33 492.851 C 1584.71 510.862 1571.96 512.434 1549.43 515.141 L 1548.81 508.661 C 1549.81 505.968 1549.97 504.336 1550.49 501.525 L 1555.69 500.571 C 1558.74 500.146 1561.78 499.576 1564.78 498.863 C 1577.64 495.871 1584.2 492.201 1591.19 481.006 C 1595.22 470.145 1596.07 465.662 1596 454.218 z"/>
<path transform="translate(0,0)" fill="rgb(144,23,8)" d="M 1441.01 531.248 C 1434.05 516.744 1427.98 476.196 1447.17 469.813 C 1447.41 471.701 1440.67 479.33 1439.04 484.524 C 1433.82 501.175 1436.44 515.574 1443.76 530.664 C 1457.71 538.623 1464 536.937 1478.58 531.671 C 1472.59 515.651 1467.65 488.083 1479.51 473.64 C 1481.31 478.158 1475 488.741 1474.83 497.417 C 1474.54 511.834 1476.37 519.655 1481.99 532.801 C 1494.59 541.808 1501.04 540.367 1515.23 536.077 C 1508.71 519.069 1502.89 493.737 1513.96 477.398 L 1515.23 477.48 C 1510 495.992 1509.03 504.855 1513.4 523.859 C 1518.75 547.092 1531.14 546.812 1549.65 536.693 C 1545.75 525.689 1546.69 519.554 1548.81 508.661 L 1549.43 515.141 C 1549.37 524.863 1548.72 528.388 1553.18 537.117 C 1540.33 545.291 1528.34 551.703 1516.38 538.192 C 1496.25 544.564 1496.58 543.583 1479.55 534.254 L 1477.92 534.836 C 1464.04 539.332 1452.85 540.989 1441.01 531.248 z"/>
<path transform="translate(0,0)" fill="rgb(254,125,103)" d="M 1578.27 469.761 C 1584.21 473.49 1586.32 475.975 1591.19 481.006 C 1584.2 492.201 1577.64 495.871 1564.78 498.863 C 1561.78 499.576 1558.74 500.146 1555.69 500.571 L 1554.27 499.332 L 1554.37 497.2 C 1559.9 489.905 1578.08 496.347 1578.27 469.761 z"/>
<path transform="translate(0,0)" fill="rgb(144,23,8)" d="M 1569.25 458.578 C 1575.32 461.613 1575.98 463.209 1578.27 469.761 C 1578.08 496.347 1559.9 489.905 1554.37 497.2 L 1554.27 499.332 L 1555.69 500.571 L 1550.49 501.525 L 1553.59 492.529 C 1575.9 488.337 1581.46 478.527 1569.25 458.578 z"/>
<path transform="translate(0,0)" fill="rgb(254,82,71)" d="M 1513.95 570.472 L 1519.49 572.172 C 1529.8 576.544 1529.49 581.649 1534.05 584.114 C 1533.26 586.794 1532.88 586.087 1533.7 587.709 C 1526.48 619.221 1519.42 650.769 1512.52 682.354 C 1509.83 694.478 1505.85 715.282 1502.49 726.757 C 1495.68 725.019 1486.77 722.526 1480.48 719.514 C 1482.89 712.994 1489.51 680.451 1491.37 672.077 L 1513.95 570.472 z"/>
<path transform="translate(0,0)" fill="rgb(144,23,8)" d="M 1533.7 587.709 C 1532.88 586.087 1533.26 586.794 1534.05 584.114 C 1542.15 594.804 1586.54 661.966 1589.27 670.394 C 1586.23 668.774 1539.48 596.5 1533.7 587.709 z"/>
<path transform="translate(0,0)" fill="rgb(144,23,8)" d="M 1516.89 562.946 C 1532.21 562.898 1542.06 566.7 1558.71 563.667 C 1567.08 562.141 1576.18 554.526 1579.38 554.955 C 1579.06 557.035 1579.53 556.393 1577.33 558.001 C 1562.6 568.78 1543.22 568.1 1525.98 566.145 C 1524.58 565.987 1524.96 566.047 1523.37 566.248 C 1520.77 565.433 1519.21 564.331 1516.89 562.946 z"/>
<path transform="translate(0,0)" fill="rgb(254,82,71)" d="M 1483.08 1742.9 C 1539.84 1720.98 1600.13 1693.76 1657.09 1670.51 L 1657.33 1673.12 C 1659.49 1678.56 1676.89 1726.72 1676.76 1728.71 C 1674.91 1730.3 1674.65 1730.64 1672.5 1731.75 C 1681.49 1737.83 1692.57 1741.2 1702.84 1744.79 C 1707.77 1745.7 1709.27 1745.89 1713.84 1747.71 C 1719.46 1749.1 1733.75 1752.35 1738.1 1754.55 L 1749.23 1757.11 C 1757.83 1757.72 1766.08 1760.56 1774.38 1761.56 C 1779.43 1762.28 1780.47 1762.51 1785.2 1764.4 C 1805.49 1766.09 1828.45 1769.9 1843.26 1784.52 C 1848.45 1789.85 1850.03 1793.48 1852.53 1800.51 C 1845.41 1804.6 1826.41 1810.84 1817.74 1813.94 L 1753.07 1837.15 L 1568.28 1904.46 C 1545.44 1912.8 1521.71 1923.49 1498.2 1929.25 C 1495.09 1930.01 1490.58 1915.43 1489.6 1912.73 C 1487.8 1905.85 1481.9 1891.07 1479.15 1883.41 C 1472.59 1864.75 1465.93 1846.12 1459.18 1827.52 L 1455.49 1828.12 C 1451.91 1825.63 1434.69 1774.82 1431.94 1767.19 L 1431.59 1764.69 C 1445.95 1757.24 1466.45 1751.03 1481.73 1743.24 L 1483.08 1742.9 z"/>
<path transform="translate(0,0)" fill="rgb(0,108,154)" d="M 1483.08 1742.9 C 1539.84 1720.98 1600.13 1693.76 1657.09 1670.51 L 1657.33 1673.12 C 1659.49 1678.56 1676.89 1726.72 1676.76 1728.71 C 1674.91 1730.3 1674.65 1730.64 1672.5 1731.75 C 1664.87 1733.68 1622.28 1753.46 1613.06 1757.71 C 1571.6 1776.81 1528.87 1794.92 1487.56 1814.16 L 1484.1 1815.85 C 1476.79 1819.06 1465.74 1823.53 1459.18 1827.52 L 1455.49 1828.12 C 1451.91 1825.63 1434.69 1774.82 1431.94 1767.19 L 1431.59 1764.69 C 1445.95 1757.24 1466.45 1751.03 1481.73 1743.24 L 1483.08 1742.9 z"/>
<path transform="translate(0,0)" fill="rgb(211,242,241)" d="M 1483.08 1742.9 C 1539.84 1720.98 1600.13 1693.76 1657.09 1670.51 L 1657.33 1673.12 L 1509.1 1735.04 C 1483.96 1745.53 1457.18 1757.3 1431.94 1767.19 L 1431.59 1764.69 C 1445.95 1757.24 1466.45 1751.03 1481.73 1743.24 L 1483.08 1742.9 z"/>
<path transform="translate(0,0)" fill="rgb(254,254,251)" d="M 1843.26 1784.52 C 1848.45 1789.85 1850.03 1793.48 1852.53 1800.51 C 1845.41 1804.6 1826.41 1810.84 1817.74 1813.94 L 1753.07 1837.15 L 1568.28 1904.46 C 1545.44 1912.8 1521.71 1923.49 1498.2 1929.25 C 1495.09 1930.01 1490.58 1915.43 1489.6 1912.73 C 1497.71 1910.55 1514.93 1903.75 1523.38 1900.67 C 1541.51 1894.07 1560.98 1887.43 1578.84 1880.38 L 1580.19 1879.9 C 1591.61 1876.18 1603.48 1871.74 1614.76 1867.53 C 1690.56 1839.2 1767.66 1813.33 1843.26 1784.52 z"/>
<path transform="translate(0,0)" fill="rgb(254,82,71)" d="M 1484.1 1815.85 L 1487.56 1814.16 C 1520.3 1825.95 1545.06 1839.63 1569.27 1865.85 C 1572.13 1868.95 1578.3 1876.36 1580.19 1879.9 L 1578.84 1880.38 C 1560.98 1887.43 1541.51 1894.07 1523.38 1900.67 C 1514.93 1903.75 1497.71 1910.55 1489.6 1912.73 C 1487.8 1905.85 1481.9 1891.07 1479.15 1883.41 C 1472.59 1864.75 1465.93 1846.12 1459.18 1827.52 C 1465.74 1823.53 1476.79 1819.06 1484.1 1815.85 z"/>
<path transform="translate(0,0)" fill="rgb(144,23,8)" d="M 1484.1 1815.85 L 1487.56 1814.16 C 1520.3 1825.95 1545.06 1839.63 1569.27 1865.85 C 1572.13 1868.95 1578.3 1876.36 1580.19 1879.9 L 1578.84 1880.38 C 1575.73 1878.65 1564.61 1864.53 1560.74 1860.8 C 1538.36 1839.17 1513.45 1825.33 1484.1 1815.85 z"/>
<path transform="translate(0,0)" fill="rgb(254,254,251)" d="M 1774.38 1761.56 C 1779.43 1762.28 1780.47 1762.51 1785.2 1764.4 C 1778.54 1770.93 1745.11 1803.69 1737.92 1799.45 L 1737.53 1796.34 C 1741.1 1789.28 1766.65 1768.46 1774.38 1761.56 z"/>
<path transform="translate(0,0)" fill="rgb(254,254,251)" d="M 1702.84 1744.79 C 1707.77 1745.7 1709.27 1745.89 1713.84 1747.71 C 1702.94 1756.8 1687.3 1772.96 1674.79 1780.59 C 1673.04 1781.66 1671.48 1780.2 1670.13 1779.25 L 1669.79 1777 C 1673.44 1768.87 1694.72 1751.92 1702.84 1744.79 z"/>
<path transform="translate(0,0)" fill="rgb(254,254,251)" d="M 1738.1 1754.55 L 1749.23 1757.11 C 1740.25 1765.07 1720.17 1784.4 1709.2 1790.58 C 1708.29 1791.09 1706.97 1789.9 1705.77 1789.18 L 1705.25 1786.93 C 1708.17 1778.44 1730.41 1761.17 1738.1 1754.55 z"/>
<path transform="translate(0,0)" fill="rgb(254,82,71)" d="M 1135.7 1755.87 L 1137.87 1756.27 C 1152.71 1755.72 1168.27 1755.98 1183.18 1756.02 L 1182.9 1758.95 C 1182.68 1767.36 1180.01 1814.18 1177.14 1818.98 L 1174.42 1819.99 C 1173.62 1831.4 1174.41 1847.02 1174.61 1858.76 C 1174.91 1876.21 1174.82 1893.67 1174.36 1911.11 C 1174.78 1916.31 1176.16 1924.4 1173.04 1928.48 C 1165.84 1930.55 1135.32 1929.9 1125.54 1929.9 L 1048.46 1929.89 L 886.361 1929.9 C 856.259 1929.91 823.127 1930.56 793.245 1929.61 C 794.707 1921.91 795.409 1918.41 798.049 1911.12 C 808.901 1889.87 825.629 1883.09 845.826 1871.85 C 849.222 1869.65 852.16 1868.09 855.732 1866.17 C 862.725 1861.09 869.088 1856.36 876.98 1852.74 C 880.045 1850.48 883.224 1848.63 886.474 1846.66 C 892.444 1842.34 902.241 1834.79 908.936 1832.6 C 911.532 1829.86 913.746 1828.11 916.666 1825.7 C 919.655 1823.51 919.886 1823.57 922.011 1820.38 C 920.744 1808.95 923.219 1772.02 923.863 1758.94 L 923.713 1756.03 L 1062.71 1756.03 C 1086.15 1756.03 1112.44 1756.61 1135.7 1755.87 z"/>
<path transform="translate(0,0)" fill="rgb(0,108,154)" d="M 1135.7 1755.87 L 1137.87 1756.27 C 1152.71 1755.72 1168.27 1755.98 1183.18 1756.02 L 1182.9 1758.95 C 1182.68 1767.36 1180.01 1814.18 1177.14 1818.98 L 1174.42 1819.99 C 1167.64 1818.77 1152.18 1819.35 1144.67 1819.51 L 1141.02 1819.41 C 1096.13 1818.26 1048.51 1820.03 1003.29 1819.36 C 986.095 1819.11 936.638 1818.19 922.011 1820.38 C 920.744 1808.95 923.219 1772.02 923.863 1758.94 L 923.713 1756.03 L 1062.71 1756.03 C 1086.15 1756.03 1112.44 1756.61 1135.7 1755.87 z"/>
<path transform="translate(0,0)" fill="rgb(211,242,241)" d="M 1135.7 1755.87 L 1137.87 1756.27 C 1152.71 1755.72 1168.27 1755.98 1183.18 1756.02 L 1182.9 1758.95 L 923.863 1758.94 L 923.713 1756.03 L 1062.71 1756.03 C 1086.15 1756.03 1112.44 1756.61 1135.7 1755.87 z"/>
<path transform="translate(0,0)" fill="rgb(254,254,251)" d="M 798.049 1911.12 L 989.275 1911.29 L 1045.65 1911.22 C 1054.02 1911.21 1070.03 1910.79 1077.97 1911.58 L 1080.75 1911.11 C 1110.84 1911.41 1144.26 1911.74 1174.36 1911.11 C 1174.78 1916.31 1176.16 1924.4 1173.04 1928.48 C 1165.84 1930.55 1135.32 1929.9 1125.54 1929.9 L 1048.46 1929.89 L 886.361 1929.9 C 856.259 1929.91 823.127 1930.56 793.245 1929.61 C 794.707 1921.91 795.409 1918.41 798.049 1911.12 z"/>
<path transform="translate(0,0)" fill="rgb(254,82,71)" d="M 1144.67 1819.51 C 1152.18 1819.35 1167.64 1818.77 1174.42 1819.99 C 1173.62 1831.4 1174.41 1847.02 1174.61 1858.76 C 1174.91 1876.21 1174.82 1893.67 1174.36 1911.11 C 1144.26 1911.74 1110.84 1911.41 1080.75 1911.11 C 1093.13 1871.31 1113.54 1845.95 1144.67 1819.51 z"/>
<path transform="translate(0,0)" fill="rgb(254,254,251)" d="M 855.732 1866.17 C 865.791 1870.43 896.599 1880.9 902.15 1886.36 C 903.018 1889.73 903.32 1888.3 901.827 1890.88 C 894.791 1893.39 853.193 1876.35 845.826 1871.85 C 849.222 1869.65 852.16 1868.09 855.732 1866.17 z"/>
<path transform="translate(0,0)" fill="rgb(254,254,251)" d="M 886.474 1846.66 C 895.72 1850.58 923.825 1859.97 928.631 1865.43 L 929.331 1868.15 C 928.243 1869.72 928.476 1870.16 926.672 1870.28 C 918.258 1870.88 884.058 1856.45 876.98 1852.74 C 880.045 1850.48 883.224 1848.63 886.474 1846.66 z"/>
<path transform="translate(0,0)" fill="rgb(254,254,251)" d="M 916.666 1825.7 C 926.741 1830.12 956.851 1839.4 960.401 1846.6 L 959.328 1849.85 C 949.917 1850.61 918.208 1836.98 908.936 1832.6 C 911.532 1829.86 913.746 1828.11 916.666 1825.7 z"/>
<path transform="translate(0,0)" fill="rgb(144,23,8)" d="M 1141.02 1819.41 L 1144.67 1819.51 C 1113.54 1845.95 1093.13 1871.31 1080.75 1911.11 L 1077.97 1911.58 C 1089.33 1872.03 1110.41 1845.58 1141.02 1819.41 z"/>
<path transform="translate(0,0)" fill="rgb(254,82,71)" d="M 858.644 693.289 C 908.227 636.923 984.423 555.45 1053.48 526.298 C 1056.44 573.885 1058.28 622.743 1061.96 670.107 C 1057.97 711.733 1042.17 763.321 1009.13 791.089 C 1009.61 770.21 1013.78 738.366 1015.78 716.175 C 997.23 738.794 974.98 760.317 956.938 782.151 L 955.131 783.279 C 950.718 789.227 945.074 794.887 939.943 800.299 C 931.463 793.687 922.781 784.885 914.467 777.88 C 890.371 757.579 865.73 732.736 841.55 713.014 C 846.153 708.521 851.553 701.075 857.152 695.461 L 858.644 693.289 z"/>
<path transform="translate(0,0)" fill="rgb(254,82,71)" d="M 841.55 713.014 C 846.153 708.521 851.553 701.075 857.152 695.461 C 867.013 705.562 882.089 718.198 893.101 728.014 L 955.131 783.279 C 950.718 789.227 945.074 794.887 939.943 800.299 C 931.463 793.687 922.781 784.885 914.467 777.88 C 890.371 757.579 865.73 732.736 841.55 713.014 z"/>
<path transform="translate(0,0)" fill="rgb(254,254,251)" d="M 858.644 693.289 C 881.016 713.522 903.522 733.605 926.163 753.538 C 931.356 758.151 954.326 777.952 956.938 782.151 L 955.131 783.279 L 893.101 728.014 C 882.089 718.198 867.013 705.562 857.152 695.461 L 858.644 693.289 z"/>
<path transform="translate(0,0)" fill="rgb(144,23,8)" d="M 1035.99 691.548 L 1036.98 691.983 L 1037.35 693.255 C 1032.8 699.623 1023.36 709.216 1017.75 715.255 L 1016.98 715.442 L 1016.31 714.312 C 1018.27 710.48 1032.27 695.649 1035.99 691.548 z"/>
<path transform="translate(0,0)" fill="rgb(254,82,71)" d="M 1351.55 514.322 C 1394.34 521.597 1434.32 538.978 1474.69 554.08 C 1483.04 557.202 1505.64 567.377 1512.33 569.089 L 1513.95 570.472 L 1491.37 672.077 C 1489.51 680.451 1482.89 712.994 1480.48 719.514 L 1478.13 719.096 C 1463.5 714.109 1449.02 708.737 1434.68 702.985 C 1424.24 698.73 1412.2 693.046 1401.64 689.76 L 1400.67 690.147 C 1403.63 713.542 1408.73 740.111 1411.25 762.063 C 1410.23 761.266 1409.22 760.441 1408.25 759.587 C 1379.49 734.414 1354.54 683.481 1352.29 645.59 C 1352.95 634.443 1352.26 613.954 1352.17 602.375 L 1351.55 514.322 z"/>
<path transform="translate(0,0)" fill="rgb(254,254,251)" d="M 1512.33 569.089 L 1513.95 570.472 L 1491.37 672.077 C 1489.51 680.451 1482.89 712.994 1480.48 719.514 L 1478.13 719.096 L 1500.77 616.615 C 1502.78 607.541 1509.06 576.324 1512.33 569.089 z"/>
<path transform="translate(0,0)" fill="rgb(144,23,8)" d="M 1400.67 690.147 C 1397.83 686.116 1391.28 634.654 1392.65 629.744 C 1396.64 633.309 1398.49 679.854 1401.64 689.76 L 1400.67 690.147 z"/>
<path transform="translate(0,0)" fill="rgb(240,240,212)" d="M 323.457 805.372 C 349.154 804.496 346.758 820.363 369.068 825.69 C 392.961 830.837 415.858 821.715 439.433 830.242 C 457.673 836.839 472.273 855.848 464.175 875.639 C 456.784 894.6 427.313 901.688 408.771 898.722 C 379.229 893.997 352.574 882.194 338.333 920.013 C 329.78 942.73 331.693 962.901 341.433 985.412 L 341.411 985.688 L 340.369 986.543 C 309.898 975.579 316.756 932.62 311.209 907.619 C 305.006 879.657 278.898 888.605 258.17 889.907 C 239.041 891.511 214.126 893.202 197.634 880.849 C 175.09 863.962 192.53 845.986 211.426 836.515 C 234.549 824.924 257.163 834.297 278.426 828.362 C 295.769 823.521 298.818 807.94 323.457 805.372 z"/>
<path transform="translate(0,0)" fill="rgb(182,181,149)" d="M 326.061 824.732 L 327.725 824.156 C 339.201 825.942 341.944 837.564 352.403 840.776 C 363.203 844.094 374.328 835.452 383.987 840.543 C 368.358 841.212 357.516 849.013 343.384 837.755 C 338.694 834.018 335.021 828.864 329.829 827.007 C 327.38 826.131 328.019 826.502 326.061 824.732 z"/>
<path transform="translate(0,0)" fill="rgb(182,181,149)" d="M 222.923 844.815 C 223.068 849.046 216.582 854.052 216.358 858.933 C 215.742 872.374 234.193 871.309 242.341 872.389 L 242.589 874.034 C 232.515 874.521 223.696 874.665 216.349 866.273 C 209.644 858.614 216.391 849.757 222.923 844.815 z"/>
<path transform="translate(0,0)" fill="rgb(182,181,149)" d="M 431.618 848.446 C 434.058 849.309 437.866 853.972 437.879 856.285 C 437.979 872.959 419.683 879.47 407.375 881.466 L 406.642 880.511 C 409.813 876.136 443.752 877.048 431.618 848.446 z"/>
<path transform="translate(0,0)" fill="rgb(240,240,212)" d="M 295.859 1025.62 C 301.991 1025.2 303.868 1024.78 309.524 1027.23 L 312.007 1029.85 L 314.634 1033.06 L 315.852 1035.42 L 317.419 1036.44 L 317.318 1038.36 C 318.019 1041.48 318.992 1045.25 319.356 1048.35 L 322.648 1049.59 C 319.039 1051.95 319.651 1055.49 319.674 1059.67 L 319.675 1060.72 C 317.49 1061.27 318.336 1060.68 317.137 1062.22 C 311.873 1068.96 304.117 1076.26 296.845 1080.73 L 293.998 1080.91 C 293.436 1083.93 293.755 1084.25 294.538 1087.11 C 301.035 1110.86 287.483 1124.11 281.922 1150.15 C 279.311 1157.5 273.755 1174.28 269.823 1180.47 L 270.379 1183.09 C 281.35 1206.06 280.691 1208.26 287.629 1230.85 C 273.675 1240.22 245.559 1253.25 228.982 1258.38 L 225.151 1259.75 C 221.025 1260.83 216.784 1261.42 212.518 1261.5 C 192.236 1261.95 179.254 1249.64 180.97 1229.4 C 184.55 1187.18 222.445 1138.24 252.768 1110.51 C 252.319 1095.39 249.671 1060.41 256.813 1047.56 C 263.42 1035.66 283.306 1029.18 295.859 1025.62 z"/>
<path transform="translate(0,0)" fill="rgb(240,240,212)" d="M 270.379 1183.09 C 281.35 1206.06 280.691 1208.26 287.629 1230.85 C 273.675 1240.22 245.559 1253.25 228.982 1258.38 C 245.184 1231.7 256.666 1211.11 270.379 1183.09 z"/>
<path transform="translate(0,0)" fill="rgb(182,181,149)" d="M 225.151 1259.75 C 237.345 1239.65 249.715 1219.65 260.107 1198.54 C 262.787 1193.1 266.264 1185.22 269.823 1180.47 L 270.379 1183.09 C 256.666 1211.11 245.184 1231.7 228.982 1258.38 L 225.151 1259.75 z"/>
<path transform="translate(0,0)" fill="rgb(182,181,149)" d="M 319.356 1048.35 L 322.648 1049.59 C 319.039 1051.95 319.651 1055.49 319.674 1059.67 L 319.675 1060.72 C 317.49 1061.27 318.336 1060.68 317.137 1062.22 C 311.873 1068.96 304.117 1076.26 296.845 1080.73 L 293.998 1080.91 C 298.384 1075.68 316.667 1063.01 317.923 1054.62 C 311.502 1052.21 296.588 1064.69 291.083 1064.54 L 290.5 1065.2 C 294.936 1059.6 312.616 1051.41 319.356 1048.35 z"/>
<path transform="translate(0,0)" fill="rgb(182,181,149)" d="M 309.524 1027.23 L 312.007 1029.85 C 302.134 1034.15 283.885 1044.49 275.659 1047 L 276.773 1046.5 L 276.995 1045.35 C 288.605 1036.82 298.243 1034.66 307.878 1028.33 L 309.524 1027.23 z"/>
<path transform="translate(0,0)" fill="rgb(182,181,149)" d="M 315.852 1035.42 L 317.419 1036.44 L 317.318 1038.36 C 310.631 1041.6 288.071 1053.89 282.509 1054.88 C 292.296 1045.27 306.253 1043.12 315.852 1035.42 z"/>
<path transform="translate(0,0)" fill="rgb(240,240,212)" d="M 295.859 1025.62 C 302.792 1019.71 307.452 1015.42 315.884 1011.64 C 341.828 1000.02 374.126 1010.45 378.466 1041.07 C 386.584 1053.2 383.989 1059.18 374.326 1069.63 C 379.604 1079.75 383.094 1086.19 390.435 1094.95 C 386.45 1106.97 380.895 1122.55 369.28 1128.9 C 357.052 1135.59 352.23 1122.35 349.629 1113.93 L 335.232 1115.3 C 313.246 1110.93 306.005 1099.36 296.845 1080.73 C 304.117 1076.26 311.873 1068.96 317.137 1062.22 C 318.336 1060.68 317.49 1061.27 319.675 1060.72 L 319.674 1059.67 C 319.651 1055.49 319.039 1051.95 322.648 1049.59 L 319.356 1048.35 C 318.992 1045.25 318.019 1041.48 317.318 1038.36 L 317.419 1036.44 L 315.852 1035.42 L 314.634 1033.06 L 312.007 1029.85 L 309.524 1027.23 C 303.868 1024.78 301.991 1025.2 295.859 1025.62 z"/>
<path transform="translate(0,0)" fill="rgb(0,0,0)" d="M 295.859 1025.62 C 302.792 1019.71 307.452 1015.42 315.884 1011.64 C 341.828 1000.02 374.126 1010.45 378.466 1041.07 C 367.758 1037.79 363.164 1041.53 355.122 1048.74 C 343.164 1050.01 334.679 1050.53 322.648 1049.59 L 319.356 1048.35 C 318.992 1045.25 318.019 1041.48 317.318 1038.36 L 317.419 1036.44 L 315.852 1035.42 L 314.634 1033.06 L 312.007 1029.85 L 309.524 1027.23 C 303.868 1024.78 301.991 1025.2 295.859 1025.62 z"/>
<path transform="translate(0,0)" fill="rgb(42,43,33)" d="M 314.634 1033.06 C 320.292 1034.35 324.543 1035.4 330.336 1035.95 C 335.251 1036.42 349.317 1035.28 353.07 1036.62 L 351.837 1037.16 L 351.587 1036 L 350.583 1037.46 C 337.949 1039.82 331.899 1038.93 319.291 1036.56 C 318.092 1036.34 318.579 1036.38 317.419 1036.44 L 315.852 1035.42 L 314.634 1033.06 z"/>
<path transform="translate(0,0)" fill="rgb(42,43,33)" d="M 318.514 1022.17 C 323.01 1021.58 334.847 1024.31 340.962 1024.38 C 347.598 1024.47 350.806 1023.14 356.504 1022.97 L 357.81 1024.34 C 345.4 1027.83 330.172 1028.24 318.514 1022.17 z"/>
<path transform="translate(0,0)" fill="rgb(0,0,0)" d="M 319.674 1059.67 C 323.501 1058.91 330.501 1057.03 333.708 1058.53 L 332.153 1058.09 L 331.585 1059.86 C 327.19 1061.11 324.268 1061.79 319.675 1060.72 L 319.674 1059.67 z"/>
<path transform="translate(0,0)" fill="rgb(65,64,42)" d="M 315.872 1069.49 C 321.468 1072.94 320.873 1085.49 321.154 1091.56 C 325.276 1089.4 328.038 1087.53 332.499 1085.43 L 334.259 1086.48 C 330.359 1089.57 326.844 1092.69 321.802 1092.49 C 316.961 1088.63 317.436 1077.8 315.872 1069.49 z"/>
<path transform="translate(0,0)" fill="rgb(65,64,42)" d="M 340.992 1089.89 L 342.089 1090.66 C 341.756 1093.02 335.24 1094.51 330.617 1099.77 L 329.879 1099.74 L 329.033 1098.58 C 331.611 1093.8 336.164 1091.82 340.992 1089.89 z"/>
<path transform="translate(0,0)" fill="rgb(65,64,42)" d="M 371.565 1043.7 L 372.59 1044.81 C 370.151 1050.62 368.456 1048.95 365.82 1058.38 L 364.452 1056.39 C 364.867 1050.09 367.066 1048.26 371.565 1043.7 z"/>
<path transform="translate(0,0)" fill="rgb(254,187,1)" d="M 268.007 1877.16 C 278.346 1877.14 363.591 1876.38 366.503 1877.87 C 370.257 1888.49 372.563 1904.2 371.471 1915.29 C 371.885 1920.02 371.503 1925.29 371.318 1930.09 C 314.811 1929.79 258.302 1929.79 201.795 1930.06 C 201.681 1924.29 199.508 1917.28 204.937 1914.5 C 206.997 1912.75 227.152 1902.68 231.643 1900.36 C 244.13 1893.9 256.665 1883.12 268.007 1877.16 z"/>
<path transform="translate(0,0)" fill="rgb(42,43,33)" d="M 204.937 1914.5 C 213.92 1916.08 247.636 1915.41 258.809 1915.4 L 371.471 1915.29 C 371.885 1920.02 371.503 1925.29 371.318 1930.09 C 314.811 1929.79 258.302 1929.79 201.795 1930.06 C 201.681 1924.29 199.508 1917.28 204.937 1914.5 z"/>
<path transform="translate(0,0)" fill="rgb(254,187,1)" d="M 577.541 1784.51 C 585.48 1790.76 591.724 1796.31 598.464 1803.95 C 601.502 1807.19 605.471 1811.18 608.139 1814.6 C 568.056 1852.28 524.527 1893.25 483.545 1929.79 C 480.416 1926.63 476.494 1923.19 474.504 1919.36 L 475.242 1917.28 C 476.443 1908.35 482.837 1897.86 485.771 1888.95 C 491.711 1870.89 494.365 1855.9 495.969 1837.21 C 502.566 1832.19 515.854 1824.18 523.149 1819.48 L 577.541 1784.51 z"/>
<path transform="translate(0,0)" fill="rgb(42,43,33)" d="M 598.464 1803.95 C 601.502 1807.19 605.471 1811.18 608.139 1814.6 C 568.056 1852.28 524.527 1893.25 483.545 1929.79 C 480.416 1926.63 476.494 1923.19 474.504 1919.36 L 475.242 1917.28 C 486.104 1908.99 507.212 1888.35 517.915 1878.44 L 598.464 1803.95 z"/>
<path transform="translate(0,0)" fill="rgb(0,0,0)" d="M 1415.42 423.352 C 1420.1 423.701 1425.4 423.926 1429.96 424.79 C 1426.29 436.305 1423.47 447.917 1427.45 460.011 L 1417.46 472.197 C 1408.86 455.632 1410.7 440.454 1415.42 423.352 z"/>
</svg>