<svg version="1.1" xmlns="http://www.w3.org/2000/svg" style="display: block;" viewBox="0 0 2048 2048" width="2000" height="2000" preserveAspectRatio="none">
<defs>
	<linearGradient id="Gradient1" gradientUnits="userSpaceOnUse" x1="1419.83" y1="892.338" x2="1432.29" y2="833.496">
		<stop class="stop0" offset="0" stop-opacity="0.517647" stop-color="rgb(212,216,224)"/>
		<stop class="stop1" offset="1" stop-opacity="0.858824" stop-color="rgb(246,246,245)"/>
	</linearGradient>
	<linearGradient id="Gradient2" gradientUnits="userSpaceOnUse" x1="1493.85" y1="821.335" x2="1413.05" y2="745.66">
		<stop class="stop0" offset="0" stop-opacity="0.686275" stop-color="rgb(231,234,238)"/>
		<stop class="stop1" offset="1" stop-opacity="1" stop-color="rgb(255,255,255)"/>
	</linearGradient>
</defs>
<path transform="translate(0,0)" fill="rgb(201,220,252)" d="M 786.112 306.329 C 798.61 298.479 834.405 292.783 849.995 290.056 C 959.427 270.915 1067.89 270.319 1176.65 295.166 C 1231.2 308.028 1284.4 326.073 1335.53 349.054 C 1343.18 352.47 1360.25 359.023 1364.2 366.158 C 1383.91 367.195 1403.88 366.306 1423.62 366.454 C 1433.16 366.525 1447.2 365.695 1456.18 367.634 C 1464.07 369.292 1471.21 373.462 1476.53 379.519 C 1488.33 393.106 1484.14 421.01 1484.73 439.229 C 1485.9 439.239 1488.38 439.259 1489.31 439.942 C 1519.13 461.711 1556.1 494.523 1580.92 520.16 C 1711.86 655.382 1771.79 819.357 1770.44 1006 C 1770.12 1097.23 1751.5 1187.46 1715.68 1271.36 C 1711.1 1282.18 1700.02 1308.35 1692.74 1316.32 L 1749.44 1591.81 L 1765.65 1670.57 C 1767.84 1681.24 1772.94 1702.63 1773.64 1712.26 C 1766.53 1717.9 1753.36 1722.6 1744.65 1725.91 C 1706.11 1740.55 1667.43 1757.42 1628.62 1770.95 C 1624.06 1772.54 1570.07 1770.63 1563.04 1770.49 L 1433.54 1768.18 L 1245.6 1765.19 C 1213.55 1764.78 1164.39 1765.09 1133.23 1762.83 C 1136.25 1751.11 1139.55 1736.56 1142.96 1725.2 C 1129.85 1730.59 1094.84 1738.13 1080.29 1741.38 C 950.097 1770.52 810.577 1779.48 678.498 1758.76 C 656.731 1755.35 628.872 1750.11 607.918 1743.26 C 606.004 1742.64 603.632 1741.01 602.336 1739.37 C 594.418 1748.09 582.348 1753.33 570.653 1754.28 C 555 1755.55 480.118 1742.03 471.435 1732.81 C 463.675 1724.57 469.205 1696.86 470.296 1686.31 C 455.631 1682.45 391.206 1643.71 385.961 1630.36 C 385.754 1635.77 385.678 1641.35 384.859 1646.71 C 383.624 1654.79 379.006 1664.98 381.324 1673 C 384.698 1684.68 397.871 1753.43 393.775 1761.39 C 391.738 1765.36 387.076 1767.85 383.02 1769.16 C 369.997 1773.36 335.016 1773.65 323.06 1766.88 C 319.774 1765.02 317.216 1762.58 316.272 1758.81 C 313.683 1748.46 328.75 1704.52 333.17 1694.57 C 336.504 1687.06 340.48 1680.47 345.216 1673.77 C 344.561 1669.06 344.145 1664.04 343.668 1659.28 L 332.684 1660.04 C 327.505 1626.92 323.533 1593.61 320.777 1560.19 C 311.444 1554.54 306.971 1542.25 302.2 1533.25 C 259.05 1451.82 279.789 1365.44 307.449 1283.24 C 311.526 1271.12 313.328 1251.44 322.936 1242.32 C 322.685 1231.32 323.723 1214.81 324.074 1203.34 C 324.948 1176.97 325.652 1150.59 326.186 1124.22 C 293.417 1107.32 281.423 1067.26 283.656 1032.96 C 283.959 1028.3 278.364 1033.43 274.262 1030.41 C 271.954 1012.16 294.86 953.282 304.59 936.949 C 330.622 893.255 348.928 886.659 394.738 873.846 C 395.329 853.468 396.076 833.324 395.753 812.921 C 395.641 805.858 395.602 796.609 397.438 789.967 C 393.211 782.119 394.192 777.457 395.978 769.45 C 395.543 767.852 395.16 766.239 394.832 764.616 C 392.841 754.947 392.384 737.608 391.502 727.174 C 388.037 686.153 386.107 645.836 398.065 605.835 C 401.63 593.91 403.659 585.159 410.712 574.66 C 396.644 574.986 372.851 577.545 362.624 567.986 C 355.379 561.214 354.335 554.547 354.306 545.18 C 354.167 501.177 354.487 456.931 354.448 412.953 L 354.181 359.979 C 354.079 343.018 350.24 310.162 374.923 307.327 C 387.526 305.88 403.865 306.679 416.772 306.68 L 496.047 306.735 L 675.119 306.725 C 711.848 306.719 749.51 307.169 786.112 306.329 z M 1202.44 1499.12 C 1203.94 1492.63 1205.55 1486.17 1207.24 1479.73 C 1200.86 1474.25 1198.33 1474.81 1190.05 1474 C 1189.79 1455.68 1191.21 1432.33 1191.55 1413.5 L 1194.95 1233.89 C 1219.06 1234.66 1238.05 1236.13 1262.9 1233.8 C 1262.81 1244.18 1262.9 1254.56 1263.16 1264.94 C 1268.74 1255.66 1273.33 1256.98 1283.42 1256.92 C 1280.63 1247.3 1283.19 1192.49 1283.53 1179.04 C 1303.66 1179.17 1326.38 1178.41 1346.55 1179.48 C 1350.31 1179.68 1351.07 1181.96 1352.81 1184.62 C 1359.33 1153.58 1362.18 1143.51 1384 1119.53 C 1384.24 1107.84 1388.96 1083.73 1373.2 1083.11 C 1358.34 1082.52 1343.69 1082.57 1328.82 1082.56 L 1248.53 1082.54 L 990.548 1082.54 L 762.278 1082.52 L 693.76 1082.45 C 681.649 1082.44 668.383 1082.2 656.233 1082.95 C 648.286 1083.44 642.544 1086.3 642.242 1095.54 C 641.325 1123.6 640.89 1151.78 640.273 1179.9 L 636.575 1346.2 L 634.508 1436.39 C 634.373 1442.42 632.141 1490.96 636.256 1492.59 C 649.855 1498 675.134 1496.08 690.547 1496.07 L 765.796 1496.06 L 996.055 1495.97 L 1048.03 1495.95 C 1054.83 1495.95 1062.61 1495.88 1069.47 1496.16 C 1071.32 1496.23 1072.41 1498.44 1073.36 1499.96 C 1084.55 1498.36 1107.75 1498.92 1119.83 1498.92 L 1202.44 1499.12 z M 332.684 1660.04 L 343.668 1659.28 C 344.145 1664.04 344.561 1669.06 345.216 1673.77 C 340.48 1680.47 336.504 1687.06 333.17 1694.57 C 328.75 1704.52 313.683 1748.46 316.272 1758.81 C 317.216 1762.58 319.774 1765.02 323.06 1766.88 C 335.016 1773.65 369.997 1773.36 383.02 1769.16 C 387.076 1767.85 391.738 1765.36 393.775 1761.39 C 397.871 1753.43 384.698 1684.68 381.324 1673 C 379.006 1664.98 383.624 1654.79 384.859 1646.71 C 385.678 1641.35 385.754 1635.77 385.961 1630.36 C 391.206 1643.71 455.631 1682.45 470.296 1686.31 C 469.205 1696.86 463.675 1724.57 471.435 1732.81 C 480.118 1742.03 555 1755.55 570.653 1754.28 C 582.348 1753.33 594.418 1748.09 602.336 1739.37 C 604.819 1717.84 570.169 1700.24 555.763 1688.35 C 544.961 1679.43 532.716 1663.29 519.584 1659.61 L 518.017 1659.18 C 516.514 1651.94 521.644 1650.97 523.296 1645.44 C 524.334 1641.96 525.409 1635.25 526.125 1631.38 C 532.064 1599.96 536.916 1568.35 540.674 1536.6 C 542.127 1523.89 543.193 1511.55 543.973 1498.79 C 545.575 1472.54 543.298 1446.6 543.027 1420.33 C 542.662 1373.89 542.903 1327.45 543.749 1281.02 L 554.881 1279.69 C 562.817 1233.55 557.374 1167.71 557.207 1120.24 C 557.154 1105.14 554.399 1086.18 555.807 1071.71 C 556.353 1066.1 561.766 1048.88 563.581 1042.69 C 628.859 1068.04 680.963 1058.35 725.674 1003.87 C 733.015 1009.02 743.407 1015.55 751.912 1009.39 C 773.005 1009.87 794.394 1008.58 815.541 1009.04 C 820.456 1009.15 826.025 1009.2 830.874 1008.86 C 834.865 1013.34 840.089 1012.34 845.872 1012.37 L 961.583 1012.01 C 972.742 1012.01 987.895 1011.39 998.681 1012.01 C 1054.15 1015.2 1048.6 993.613 1048.33 947.981 L 1328.9 947.964 L 1408.97 948.058 C 1433.38 948.106 1480.09 954.641 1483.33 919.09 C 1485.59 894.256 1484.38 866.307 1484.38 841.163 L 1484.31 677.569 C 1506.47 678.338 1528.63 678.922 1550.8 679.319 C 1553.04 625.393 1533.25 562.919 1504.5 517.674 C 1498.96 508.946 1490.54 498.039 1484.33 489.328 C 1484.32 473.794 1483.69 454.293 1484.73 439.229 C 1484.14 421.01 1488.33 393.106 1476.53 379.519 C 1471.21 373.462 1464.07 369.292 1456.18 367.634 C 1447.2 365.695 1433.16 366.525 1423.62 366.454 C 1403.88 366.306 1383.91 367.195 1364.2 366.158 C 1360.25 359.023 1343.18 352.47 1335.53 349.054 C 1284.4 326.073 1231.2 308.028 1176.65 295.166 C 1067.89 270.319 959.427 270.915 849.995 290.056 C 834.405 292.783 798.61 298.479 786.112 306.329 C 749.51 307.169 711.848 306.719 675.119 306.725 L 496.047 306.735 L 416.772 306.68 C 403.865 306.679 387.526 305.88 374.923 307.327 C 350.24 310.162 354.079 343.018 354.181 359.979 L 354.448 412.953 C 354.487 456.931 354.167 501.177 354.306 545.18 C 354.335 554.547 355.379 561.214 362.624 567.986 C 372.851 577.545 396.644 574.986 410.712 574.66 C 403.659 585.159 401.63 593.91 398.065 605.835 C 386.107 645.836 388.037 686.153 391.502 727.174 C 392.384 737.608 392.841 754.947 394.832 764.616 C 395.16 766.239 395.543 767.852 395.978 769.45 C 394.192 777.457 393.211 782.119 397.438 789.967 C 395.602 796.609 395.641 805.858 395.753 812.921 C 396.076 833.324 395.329 853.468 394.738 873.846 C 348.928 886.659 330.622 893.255 304.59 936.949 C 294.86 953.282 271.954 1012.16 274.262 1030.41 C 278.364 1033.43 283.959 1028.3 283.656 1032.96 C 281.423 1067.26 293.417 1107.32 326.186 1124.22 C 325.652 1150.59 324.948 1176.97 324.074 1203.34 C 323.723 1214.81 322.685 1231.32 322.936 1242.32 C 313.328 1251.44 311.526 1271.12 307.449 1283.24 C 279.789 1365.44 259.05 1451.82 302.2 1533.25 C 306.971 1542.25 311.444 1554.54 320.777 1560.19 C 323.533 1593.61 327.505 1626.92 332.684 1660.04 z M 935.011 637.989 C 935.041 669.392 934.222 706.028 935.583 737.018 L 936.362 739.246 C 937.671 737.364 937.617 733.843 937.898 731.215 C 937.539 725.103 936.85 719.281 939.762 713.797 C 945.076 710.37 958.062 709.856 960.281 716.452 C 968.812 741.806 980.572 729.631 999.312 735.025 L 999.815 735.031 C 1001.64 732.788 1001.05 732.575 1003.11 732.536 C 1010.7 732.39 1015.63 730.41 1022.11 734.848 C 1022.82 736.342 1023.67 737.958 1022.41 739.662 C 1015.71 748.724 1014.14 739.124 1005.69 751.678 L 1006.43 753.686 C 979.098 756.739 999.302 782.706 998.544 791.89 L 995.902 792.802 C 990.392 793.278 984.7 793.646 979.265 792.746 C 974.17 793.289 968.535 793.389 963.378 793.603 C 957.85 790.095 955.651 792.369 949.853 795.187 C 973.582 795.166 999.53 794.848 1023.19 795.823 C 1023.28 812.036 1023.28 828.248 1023.19 844.46 C 1023.16 853.211 1022.79 871.08 1024.16 878.942 C 1026.27 875.485 1028.28 870.992 1031.41 869.176 C 1039.83 879.976 1038.25 915.987 1030.29 928.089 C 1025.12 930.822 1022.44 929.491 1019.25 932.766 C 1017.72 937.98 1017.61 941.013 1013.27 943.94 C 1009.67 944.289 1011.27 944.669 1008.26 942.959 L 1007.32 944.209 C 1002.45 946.049 944.739 945.002 935.997 944.978 C 936.055 937.43 936.649 906.993 935.426 901.287 C 933.521 904.465 934.821 903.509 931.749 904.677 L 930.038 903.046 C 928.405 897.669 929.12 841.713 929.12 832.651 L 929.267 643.312 C 925.291 643.384 920.599 643.111 916.971 644.464 L 917.241 647.956 C 920.098 651.556 918.902 739.218 918.902 751.692 L 918.996 945.022 L 847.89 945.002 C 847.888 929.028 848.783 777.615 846.666 774.068 C 845.091 774.05 843.818 773.827 842.252 773.632 C 839.653 770.424 840.878 716.787 840.898 707.715 C 831.271 707.805 817.677 707.536 808.45 708.799 L 815.043 711.553 C 820.877 711.985 824.897 712.072 830.687 712.023 C 828.83 767.882 831.607 826.545 830.386 882.635 C 830.011 899.871 831.724 928.889 830.427 945.018 C 815.724 944.969 801.021 945.006 786.319 945.128 C 779.492 945.175 762.436 946.499 757.343 942.432 C 757.683 940.932 759.102 933.917 760.509 933.564 C 782.767 927.988 803.414 910.454 782.81 887.809 C 787.655 882.261 810.778 858.354 796.89 851.88 C 786.101 853.035 767.309 874.428 759.949 882.92 C 759.238 871.613 759.67 856.159 759.67 844.61 L 759.607 776.641 C 759.599 768.004 759.07 718.892 760.257 713.469 C 762.922 712.288 766.922 712.742 770.008 712.825 L 769.983 711.912 C 769.889 707.63 769.388 705.127 772.075 702.292 C 789.287 700.109 822.144 702.731 840.568 701.967 C 844.455 701.806 845.266 702.548 847.283 704.703 C 849.643 698.137 846.119 659.535 848.599 648.504 C 853.571 648.429 853.502 649.192 857.214 647.047 C 858.632 643.504 858.553 643.438 858.968 639.838 C 862.847 636.528 924.157 637.965 935.011 637.989 z M 1383.91 1127.44 C 1365.09 1150.86 1362.88 1163.78 1356.82 1192.76 C 1352.57 1213.13 1348.54 1235.92 1343.4 1255.94 L 1384.42 1254.83 C 1382.56 1237.44 1384.74 1196.06 1385.91 1178.29 C 1385.12 1177.3 1384.34 1176.32 1383.55 1175.33 C 1381.79 1162.77 1383.44 1139.21 1383.91 1127.44 z"/>
<path transform="translate(0,0)" fill="rgb(201,220,252)" d="M 1015.67 1241.01 C 1037.47 1240.46 1060.79 1240.95 1082.72 1240.99 C 1083.49 1255.6 1082.51 1275.09 1082.25 1290.11 L 1080.3 1386.54 L 1079.14 1444.82 C 1078.94 1453.43 1079.04 1468.48 1077.51 1476.47 C 1063.02 1476.66 1023.3 1477.48 1010.72 1475.83 L 1013.4 1340.15 C 1014.09 1307.81 1014.34 1273.19 1015.67 1241.01 z"/>
<path transform="translate(0,0)" fill="rgb(201,220,252)" d="M 837.94 1269.11 C 850.199 1270.32 897.076 1267.76 903.504 1270.79 C 906.096 1284.74 904.355 1310.06 903.919 1325.21 L 902.397 1393.53 L 901.199 1445.52 C 901.014 1453.5 901.123 1469.04 899.729 1476.46 C 878.231 1477.05 854.729 1476.49 832.979 1476.65 C 832.44 1413.04 837.103 1348.44 836.883 1284.69 C 836.867 1279.92 836.641 1273.61 837.94 1269.11 z"/>
<path transform="translate(0,0)" fill="rgb(201,220,252)" d="M 1104.31 1301.39 C 1117.68 1302.05 1159.79 1300.29 1169.15 1302.13 C 1170.9 1306.64 1170.31 1320.31 1170.19 1325.58 C 1169.09 1373.59 1168.07 1421.6 1167.1 1469.61 C 1167.06 1471.4 1166.55 1472.5 1165.74 1474.02 C 1143.38 1472.98 1121.7 1473.44 1099.37 1473.59 C 1098.67 1462.36 1102.34 1305.79 1103.1 1303.47 C 1103.35 1302.71 1103.91 1302.08 1104.31 1301.39 z"/>
<path transform="translate(0,0)" fill="rgb(201,220,252)" d="M 925.508 1310.06 C 947.866 1309.94 970.224 1309.95 992.581 1310.09 C 994.315 1338.93 990.855 1378.94 990.909 1409 C 990.93 1420.46 990.099 1466.3 988.493 1476.29 C 968.682 1477.44 941.796 1476.47 921.546 1476.24 C 921.293 1471.42 921.271 1464.96 921.504 1460.1 C 923.881 1410.63 922.511 1359.41 925.508 1310.06 z"/>
<path transform="translate(0,0)" fill="rgb(201,220,252)" d="M 753.957 1338.33 C 772.302 1339.28 799.522 1339.12 817.835 1338 C 819.217 1369.32 815.399 1439.6 815.068 1474.46 C 815.058 1475.57 813.007 1475.99 811.529 1476.6 C 790.421 1476.46 768.494 1476.93 747.504 1476.27 C 748.965 1442.89 748.708 1409.02 749.945 1375.63 C 750.185 1369.14 750.278 1344.42 751.685 1339.43 L 753.957 1338.33 z"/>
<path transform="translate(0,0)" fill="rgb(201,220,252)" d="M 666.502 1374.24 C 677.343 1374.76 726.421 1373.42 731.305 1375.53 C 733.118 1380.58 731.412 1472.79 729.744 1476.49 C 707.459 1476.74 685.17 1476.59 662.89 1476.05 C 663.158 1465.02 664.764 1378.14 666.502 1374.24 z"/>
<path transform="translate(0,0)" fill="rgb(0,0,0)" d="M 1308.62 1126.92 C 1302.81 1101.5 1325.21 1086.68 1343 1096.15 C 1366.5 1108.67 1341.81 1159.05 1312.04 1131.79 C 1274.27 1156.4 1236.64 1181.21 1199.13 1206.23 C 1184.74 1215.74 1160.25 1233.1 1145.98 1241.23 L 1143.23 1236.28 L 1308.62 1126.92 z"/>
<path transform="translate(0,0)" fill="rgb(83,121,246)" d="M 1328.41 1099.07 C 1352.03 1099.2 1353.88 1124.58 1331.93 1133.25 C 1309.06 1134.65 1304.93 1108.2 1328.41 1099.07 z"/>
<path transform="translate(0,0)" fill="rgb(0,0,0)" fill-opacity="0.988235" d="M 849.26 1209.95 L 852.025 1214.97 L 734.556 1292.68 C 736.255 1299.84 736.968 1311.26 732.123 1316.41 C 699.342 1351.23 669.405 1292.94 711.88 1281.17 C 717.6 1279.59 726.07 1284.17 731.196 1288.31 L 849.26 1209.95 z M 709.336 1318.04 C 709.248 1310.34 712.893 1313.68 716.646 1306.45 C 714.594 1304.46 701.521 1302.66 697.912 1302.13 C 698.693 1305.14 706.73 1315.34 709.336 1318.04 z"/>
<path transform="translate(0,0)" fill="rgb(201,220,252)" d="M 697.912 1302.13 C 702.515 1294.78 704.684 1288.62 712.861 1286.79 C 716.13 1286.04 719.565 1286.62 722.404 1288.41 C 726.109 1290.74 728.652 1294.52 729.4 1298.83 C 730.142 1303.05 729.053 1307.38 726.406 1310.75 C 722.314 1315.97 715.8 1318.35 709.336 1318.04 C 709.248 1310.34 712.893 1313.68 716.646 1306.45 C 714.594 1304.46 701.521 1302.66 697.912 1302.13 z"/>
<path transform="translate(0,0)" fill="rgb(152,184,253)" fill-opacity="0.878431" d="M 697.912 1302.13 C 701.521 1302.66 714.594 1304.46 716.646 1306.45 C 712.893 1313.68 709.248 1310.34 709.336 1318.04 C 706.73 1315.34 698.693 1305.14 697.912 1302.13 z"/>
<path transform="translate(0,0)" fill="rgb(83,121,246)" d="M 1037.26 1190.54 C 1026.76 1147.52 1094.71 1156.65 1071.62 1192.68 L 1067.51 1196.77 C 1056.86 1203.09 1050.09 1202.55 1040.34 1195.31 L 1037.26 1190.54 z"/>
<path transform="translate(0,0)" fill="rgb(152,184,253)" d="M 1114.1 1234.64 C 1124.64 1227.92 1134.06 1226.75 1143.23 1236.28 L 1145.98 1241.23 C 1153.28 1280.17 1092.04 1276.81 1110.21 1238.66 L 1114.1 1234.64 z"/>
<path transform="translate(0,0)" fill="rgb(152,184,253)" d="M 849.26 1209.95 C 844.47 1185.95 868.061 1173.73 882.762 1187 C 886.177 1190.12 888.156 1194.51 888.232 1199.14 C 888.37 1204.64 886.774 1207.99 884.253 1212.68 L 880.31 1216.88 C 868.758 1223.78 862.429 1222.97 852.025 1214.97 L 849.26 1209.95 z"/>
<path transform="translate(0,0)" fill="rgb(152,184,253)" d="M 921.393 1247.91 C 931.984 1241 940.133 1239.57 950.355 1248.27 L 953.472 1252.96 C 954.431 1257.68 955.082 1261.83 953.724 1266.59 C 952.123 1272.3 948.145 1277.05 942.802 1279.62 C 924.782 1288.32 908.784 1273.29 917.588 1252.44 L 921.393 1247.91 z"/>
<path transform="translate(0,0)" fill="rgb(0,0,0)" d="M 1037.26 1190.54 L 1040.34 1195.31 C 1011.56 1214.29 981.871 1233.53 953.472 1252.96 L 950.355 1248.27 C 976.308 1229.7 1010.26 1208.11 1037.26 1190.54 z"/>
<path transform="translate(0,0)" fill="rgb(0,0,0)" d="M 1067.51 1196.77 L 1071.62 1192.68 L 1114.1 1234.64 L 1110.21 1238.66 C 1096.05 1224.62 1081.82 1210.66 1067.51 1196.77 z"/>
<path transform="translate(0,0)" fill="rgb(0,0,0)" d="M 884.253 1212.68 C 894.691 1222.88 910.425 1238.55 921.393 1247.91 L 917.588 1252.44 L 880.31 1216.88 L 884.253 1212.68 z"/>
<path transform="translate(0,0)" fill="rgb(83,121,246)" d="M 770.008 712.825 L 769.983 711.912 C 769.889 707.63 769.388 705.127 772.075 702.292 C 789.287 700.109 822.144 702.731 840.568 701.967 C 844.455 701.806 845.266 702.548 847.283 704.703 C 845.558 713.666 845.647 763.658 846.666 774.068 C 845.091 774.05 843.818 773.827 842.252 773.632 C 839.653 770.424 840.878 716.787 840.898 707.715 C 831.271 707.805 817.677 707.536 808.45 708.799 L 815.043 711.553 C 820.877 711.985 824.897 712.072 830.687 712.023 C 828.83 767.882 831.607 826.545 830.386 882.635 C 830.011 899.871 831.724 928.889 830.427 945.018 C 815.724 944.969 801.021 945.006 786.319 945.128 C 779.492 945.175 762.436 946.499 757.343 942.432 C 757.683 940.932 759.102 933.917 760.509 933.564 C 782.767 927.988 803.414 910.454 782.81 887.809 C 787.655 882.261 810.778 858.354 796.89 851.88 C 786.101 853.035 767.309 874.428 759.949 882.92 C 759.238 871.613 759.67 856.159 759.67 844.61 L 759.607 776.641 C 759.599 768.004 759.07 718.892 760.257 713.469 C 762.922 712.288 766.922 712.742 770.008 712.825 z"/>
<path transform="translate(0,0)" fill="rgb(0,0,0)" d="M 770.008 712.825 L 769.983 711.912 C 769.889 707.63 769.388 705.127 772.075 702.292 C 789.287 700.109 822.144 702.731 840.568 701.967 C 844.455 701.806 845.266 702.548 847.283 704.703 C 845.558 713.666 845.647 763.658 846.666 774.068 C 845.091 774.05 843.818 773.827 842.252 773.632 C 839.653 770.424 840.878 716.787 840.898 707.715 C 831.271 707.805 817.677 707.536 808.45 708.799 L 815.043 711.553 C 804.922 713.468 788.008 712.69 777.163 712.366 C 771.542 719.46 780.761 842.865 773.63 853.002 L 772.219 852.558 C 769.855 847.652 769.967 844.374 769.917 839.064 C 769.529 797.28 771.343 754.513 770.008 712.825 z"/>
<path transform="translate(0,0)" fill="rgb(254,254,254)" d="M 777.163 712.366 C 779.347 710.521 779.682 710.912 780.398 708.856 L 776.691 708.732 L 777.061 708.033 C 784.516 707.089 801.619 706.316 808.45 708.799 L 815.043 711.553 C 804.922 713.468 788.008 712.69 777.163 712.366 z"/>
<path transform="translate(0,0)" fill="rgb(0,0,0)" d="M 786.112 306.329 C 798.61 298.479 834.405 292.783 849.995 290.056 C 959.427 270.915 1067.89 270.319 1176.65 295.166 C 1231.2 308.028 1284.4 326.073 1335.53 349.054 C 1343.18 352.47 1360.25 359.023 1364.2 366.158 C 1383.91 367.195 1403.88 366.306 1423.62 366.454 C 1433.16 366.525 1447.2 365.695 1456.18 367.634 C 1464.07 369.292 1471.21 373.462 1476.53 379.519 C 1488.33 393.106 1484.14 421.01 1484.73 439.229 C 1483.69 454.293 1484.32 473.794 1484.33 489.328 C 1490.54 498.039 1498.96 508.946 1504.5 517.674 C 1533.25 562.919 1553.04 625.393 1550.8 679.319 C 1528.63 678.922 1506.47 678.338 1484.31 677.569 L 1484.38 841.163 C 1484.38 866.307 1485.59 894.256 1483.33 919.09 C 1480.09 954.641 1433.38 948.106 1408.97 948.058 L 1328.9 947.964 L 1048.33 947.981 C 1048.6 993.613 1054.15 1015.2 998.681 1012.01 C 987.895 1011.39 972.742 1012.01 961.583 1012.01 L 845.872 1012.37 C 840.089 1012.34 834.865 1013.34 830.874 1008.86 C 837.012 1005.55 860.725 1006.77 868.971 1006.77 L 964.327 1006.51 C 981.969 1006.42 1000.23 1006.8 1017.75 1005.27 C 1028.4 1004.35 1041.47 1000 1042.19 987.461 C 1043.06 972.291 1042.74 956.934 1042.73 941.735 L 1042.62 846.319 L 1042.79 690.318 C 1042.76 666.226 1042.96 642.108 1042.49 618.027 C 1042.25 605.817 1032.66 597.36 1020.71 597.113 C 1003.28 596.752 985.824 596.939 968.384 596.975 L 871.346 597.009 L 788.667 596.915 C 774.199 596.906 759.843 596.747 745.379 597.276 C 732.755 597.739 725.003 605.161 724.086 617.842 C 723.26 629.275 723.706 641.281 723.77 652.798 L 723.864 713.217 L 723.896 931.25 C 739.069 916.56 748.425 900.419 759.949 882.92 C 767.309 874.428 786.101 853.035 796.89 851.88 C 810.778 858.354 787.655 882.261 782.81 887.809 C 803.414 910.454 782.767 927.988 760.509 933.564 C 759.102 933.917 757.683 940.932 757.343 942.432 C 749.538 964.257 742.495 979.273 729.373 999.012 C 741.305 1009.29 748.886 1003.4 751.912 1009.39 C 743.407 1015.55 733.015 1009.02 725.674 1003.87 C 680.963 1058.35 628.859 1068.04 563.581 1042.69 C 561.766 1048.88 556.353 1066.1 555.807 1071.71 C 554.399 1086.18 557.154 1105.14 557.207 1120.24 C 557.374 1167.71 562.817 1233.55 554.881 1279.69 L 543.749 1281.02 C 542.903 1327.45 542.662 1373.89 543.027 1420.33 C 543.298 1446.6 545.575 1472.54 543.973 1498.79 C 543.193 1511.55 542.127 1523.89 540.674 1536.6 C 536.916 1568.35 532.064 1599.96 526.125 1631.38 C 525.409 1635.25 524.334 1641.96 523.296 1645.44 C 521.644 1650.97 516.514 1651.94 518.017 1659.18 L 519.584 1659.61 C 532.716 1663.29 544.961 1679.43 555.763 1688.35 C 570.169 1700.24 604.819 1717.84 602.336 1739.37 C 594.418 1748.09 582.348 1753.33 570.653 1754.28 C 555 1755.55 480.118 1742.03 471.435 1732.81 C 463.675 1724.57 469.205 1696.86 470.296 1686.31 C 455.631 1682.45 391.206 1643.71 385.961 1630.36 C 385.754 1635.77 385.678 1641.35 384.859 1646.71 C 383.624 1654.79 379.006 1664.98 381.324 1673 C 384.698 1684.68 397.871 1753.43 393.775 1761.39 C 391.738 1765.36 387.076 1767.85 383.02 1769.16 C 369.997 1773.36 335.016 1773.65 323.06 1766.88 C 319.774 1765.02 317.216 1762.58 316.272 1758.81 C 313.683 1748.46 328.75 1704.52 333.17 1694.57 C 336.504 1687.06 340.48 1680.47 345.216 1673.77 C 344.561 1669.06 344.145 1664.04 343.668 1659.28 L 332.684 1660.04 C 327.505 1626.92 323.533 1593.61 320.777 1560.19 C 311.444 1554.54 306.971 1542.25 302.2 1533.25 C 259.05 1451.82 279.789 1365.44 307.449 1283.24 C 311.526 1271.12 313.328 1251.44 322.936 1242.32 C 322.685 1231.32 323.723 1214.81 324.074 1203.34 C 324.948 1176.97 325.652 1150.59 326.186 1124.22 C 293.417 1107.32 281.423 1067.26 283.656 1032.96 C 283.959 1028.3 278.364 1033.43 274.262 1030.41 C 271.954 1012.16 294.86 953.282 304.59 936.949 C 330.622 893.255 348.928 886.659 394.738 873.846 C 395.329 853.468 396.076 833.324 395.753 812.921 C 395.641 805.858 395.602 796.609 397.438 789.967 C 393.211 782.119 394.192 777.457 395.978 769.45 C 395.543 767.852 395.16 766.239 394.832 764.616 C 392.841 754.947 392.384 737.608 391.502 727.174 C 388.037 686.153 386.107 645.836 398.065 605.835 C 401.63 593.91 403.659 585.159 410.712 574.66 C 396.644 574.986 372.851 577.545 362.624 567.986 C 355.379 561.214 354.335 554.547 354.306 545.18 C 354.167 501.177 354.487 456.931 354.448 412.953 L 354.181 359.979 C 354.079 343.018 350.24 310.162 374.923 307.327 C 387.526 305.88 403.865 306.679 416.772 306.68 L 496.047 306.735 L 675.119 306.725 C 711.848 306.719 749.51 307.169 786.112 306.329 z M 956.373 591.132 L 999.339 591.066 C 1028.86 533.962 1080.09 491.111 1141.51 472.142 C 1166.59 464.124 1192.81 460.239 1219.13 460.641 L 1216.92 595.968 C 1180.14 602.078 1158.52 613.67 1138.77 645.971 C 1109.55 636.047 1077.09 625.809 1048.43 615.195 L 1048.42 636.319 C 1074.39 645.073 1106.06 654.775 1131.41 664.315 C 1123.73 705.009 1134.04 732.353 1166.29 758.434 L 1116.02 836.151 C 1108.94 847.063 1095.73 868.731 1088.14 878.437 C 1074.01 870.256 1060.73 860.676 1048.52 849.842 C 1048.25 880.684 1048.18 911.527 1048.3 942.37 C 1157.14 942.433 1270.36 943.915 1378.78 942.129 L 1381.56 941.983 C 1385.11 942.061 1390.85 942.371 1394.21 942.133 C 1397.69 940.677 1400.49 938.442 1403.79 937.387 C 1415.3 933.704 1427.02 932.307 1439.03 931.948 C 1441.33 931.879 1455.11 931.555 1456.37 931.172 C 1459.61 930.183 1464.97 926.878 1469.96 925.397 L 1471.89 926.985 L 1473.43 929.323 C 1481.39 914.795 1479.07 900.206 1478.7 884.066 C 1478.54 854.639 1479.11 825.23 1478.73 795.797 L 1478.8 773.118 C 1478.6 764.184 1478.65 755.246 1478.93 746.314 C 1479.02 739.814 1479.94 704.768 1478.18 700.272 C 1478.83 692.624 1478.79 685.208 1478.84 677.548 L 1384.22 674.738 C 1368.38 674.285 1350.97 674.411 1335.4 673.402 C 1328.3 625.749 1301.08 599.843 1254.06 591.129 C 1253.68 537.845 1255.91 479.567 1256.85 426.004 L 1080.74 425.998 C 1048.33 426 1015.58 426.077 983.139 425.935 C 980.182 425.922 978.594 425.193 976.333 423.388 L 977.388 421.954 C 988.316 418.394 1081.29 419.967 1098.56 420.033 L 1256.94 420.067 L 1257.37 397.419 C 1248.78 397.43 1192.51 398.597 1189.08 395.294 C 1190.91 393.133 1197.64 391.217 1200.4 391.304 C 1219.4 391.901 1238.45 391.713 1257.46 391.742 L 1257.86 372.15 C 1203.79 372.12 1140.62 370.607 1087.2 372.794 C 1090.36 377.513 1096.97 386.091 1097.41 391.406 C 1106.86 391.535 1135.86 390.438 1142.34 393.704 L 1143.11 395.564 C 1140.07 398.332 1105.35 397.507 1098.38 397.747 C 1115.17 422.702 1064.59 418.002 1054.35 418.147 C 1027.83 418.523 1002.56 419.025 976.365 413.643 C 961.245 410.634 970.67 390.6 979.514 398.822 C 978.888 392.198 979.544 389.888 984.947 385.762 C 976.447 380.208 970.925 383.166 967.17 379.311 C 964.169 382.515 958.089 389.19 957.836 393.68 C 954.149 459.124 957.752 525.538 956.373 591.132 z M 1363.67 397.48 C 1379.49 404.648 1391.08 410.961 1405.87 420.035 C 1413.99 420.007 1454.38 418.82 1458.55 421.782 L 1458.64 424.001 C 1456.32 426.355 1455.89 426.053 1451.84 426.079 L 1414.96 426.024 C 1424.29 432.513 1434.87 440.155 1443.35 447.739 C 1456.61 459.352 1467.7 469.822 1479.06 483.632 C 1478.83 465.347 1478.8 447.059 1478.99 428.772 C 1479.05 409.205 1482.91 375.589 1452.74 372.706 C 1430.1 370.542 1405.89 373.019 1383.05 372.095 C 1353.19 373.087 1316.07 370.56 1287.21 372.238 C 1285.91 372.311 1284.61 372.406 1283.3 372.521 C 1292.24 375.689 1306.65 377.709 1316.83 380.77 C 1327.62 384.013 1340.94 388.637 1351.49 391.343 C 1357.91 392.989 1383.65 389.206 1390.42 393.622 L 1390.45 395.532 C 1387.17 398.546 1369.34 397.492 1363.67 397.48 z M 497.499 1680.6 C 501.642 1675.16 505.305 1670.07 510.142 1665.22 C 510.307 1661.92 511.115 1656.93 509.821 1654.47 C 498.513 1656.07 491.345 1657.06 479.798 1657.08 C 479.972 1662.81 479.544 1668.42 481.965 1673.44 C 484.59 1675.53 484.528 1675.39 487.742 1676.5 L 497.499 1680.6 z M 360.281 1658.43 L 349.399 1659.13 L 351.381 1677.71 C 354.196 1674.19 354.81 1672.93 359.193 1671.99 C 364.664 1671.19 366.469 1670.97 371.96 1671.2 C 376.68 1668.52 375.099 1663.13 374.929 1657.87 C 371.15 1658.01 363.813 1658.07 360.281 1658.43 z M 593.652 972.643 C 572.14 1002.55 575.068 1001.5 565.193 1037.28 C 650.062 1068.95 712.462 1039.32 746.66 954.222 C 749.821 946.358 753.16 930.877 758.295 925.053 L 758.589 922.371 C 761.173 919.301 765.392 917.273 768.943 915.206 C 776.001 900.629 772.293 900.766 763.574 888.438 C 756.365 898.501 749.115 910.729 741.455 920.121 C 703.752 966.347 653.377 997.282 593.652 972.643 z M 1056.52 402.608 C 1059.44 402.148 1061.88 400.124 1062.87 397.333 C 1063.86 394.542 1063.24 391.433 1061.26 389.233 C 1059.28 387.033 1056.25 386.095 1053.37 386.79 C 1049.16 387.806 1046.51 391.962 1047.35 396.209 C 1048.2 400.456 1052.24 403.279 1056.52 402.608 z M 1366.56 857.199 C 1362.88 859.816 1360.03 861.784 1356.62 864.796 C 1326.18 884.937 1300.85 897.58 1264.47 905.462 C 1222.46 914.536 1178.84 912.704 1137.74 900.142 C 1128.76 897.476 1114.63 892.698 1106.8 887.619 C 1131.96 848.653 1158.24 806.288 1184.24 768.171 C 1188.72 769.741 1193.27 771.125 1197.86 772.316 C 1223.7 778.839 1251.06 774.822 1273.93 761.152 C 1299.65 745.546 1311.07 725.669 1318.02 697.364 L 1410.55 699.635 C 1421.12 699.903 1442.89 699.548 1452.05 701.09 C 1442.76 767.07 1424.12 800.202 1378 847.413 C 1375.74 849.064 1368.39 855.024 1366.56 857.199 z M 343.089 1007.13 C 325.201 1015.44 307.224 1023.57 289.163 1031.51 C 288.515 1056.77 292.411 1087.84 311.475 1105.76 C 366.224 1157.24 427.138 1118.89 464.26 1072.42 C 469.591 1073.9 471.672 1074.81 477.262 1074.56 C 493 1071.03 519.744 1059.73 530.341 1047.68 L 530.859 1045.58 C 520.487 1040.05 469.875 1064.55 463.884 1041.2 C 462.455 1035.63 461.532 1030.65 458.78 1025.25 C 458.813 1039.36 459.616 1045.26 462.762 1059.02 C 408.302 1082.41 348.001 1081.53 343.703 1007.86 L 343.089 1007.13 z"/>
<path transform="translate(0,0)" fill="rgb(201,220,252)" d="M 786.112 306.329 C 798.61 298.479 834.405 292.783 849.995 290.056 C 959.427 270.915 1067.89 270.319 1176.65 295.166 C 1231.2 308.028 1284.4 326.073 1335.53 349.054 C 1343.18 352.47 1360.25 359.023 1364.2 366.158 L 1362.99 366.265 C 1338.7 368.212 1291.36 366.635 1265.76 366.637 L 1070.23 366.727 L 1015.78 366.607 C 1005.95 366.554 988.559 366.001 979.743 367.471 C 972.025 368.78 964.984 372.681 959.782 378.531 C 948.786 390.724 951.091 407.567 950.88 422.858 C 950.713 434.999 950.872 447.224 950.876 459.373 L 950.974 591.158 L 809.087 591.104 C 786.902 591.1 763.339 590.275 741.348 591.976 C 713.358 594.141 718.04 629.896 718.124 649.079 L 718.326 711.892 L 718.268 936.986 C 680.563 970.494 646.804 986.413 597.089 967.89 L 605.825 955.575 C 584.705 933.559 563.138 911.893 540.119 891.845 C 527.339 880.715 514.542 872.527 497.459 870.095 C 481.085 867.764 470.856 867.155 468.509 848.279 C 477.911 841.815 484.752 843.793 487.543 828.904 C 488.415 824.25 488.472 819.031 488.602 814.244 C 492.592 811.222 492.194 812.438 493.677 808.428 C 492.48 802.123 484.15 795.974 480.846 785.918 C 511.169 764.512 499.12 728.729 461.399 736.017 C 455.57 737.144 444.543 746.686 438.214 748.243 C 417.436 754.047 409.356 749.651 395.978 769.45 C 395.543 767.852 395.16 766.239 394.832 764.616 C 392.841 754.947 392.384 737.608 391.502 727.174 C 388.037 686.153 386.107 645.836 398.065 605.835 C 401.63 593.91 403.659 585.159 410.712 574.66 C 396.644 574.986 372.851 577.545 362.624 567.986 C 355.379 561.214 354.335 554.547 354.306 545.18 C 354.167 501.177 354.487 456.931 354.448 412.953 L 354.181 359.979 C 354.079 343.018 350.24 310.162 374.923 307.327 C 387.526 305.88 403.865 306.679 416.772 306.68 L 496.047 306.735 L 675.119 306.725 C 711.848 306.719 749.51 307.169 786.112 306.329 z"/>
<path transform="translate(0,0)" fill="rgb(0,0,0)" d="M 410.712 574.66 C 396.644 574.986 372.851 577.545 362.624 567.986 C 355.379 561.214 354.335 554.547 354.306 545.18 C 354.167 501.177 354.487 456.931 354.448 412.953 L 354.181 359.979 C 354.079 343.018 350.24 310.162 374.923 307.327 C 387.526 305.88 403.865 306.679 416.772 306.68 L 496.047 306.735 L 675.119 306.725 C 711.848 306.719 749.51 307.169 786.112 306.329 C 802.44 308.258 833.61 306.965 850.584 306.613 C 902.011 305.546 894.836 322.78 894.89 365.151 L 895.04 442.926 L 895.076 513.067 C 895.073 526.331 895.511 539.435 894.27 552.648 C 893.031 565.846 882.974 573.596 870.08 574.164 C 855.599 574.802 840.958 574.465 826.418 574.408 L 749.355 574.282 L 492.691 574.343 L 439.2 574.262 C 433.133 574.253 416.191 573.915 410.712 574.66 z"/>
<path transform="translate(0,0)" fill="rgb(152,184,253)" d="M 376.901 312.346 C 400.592 311.419 429.031 312.162 453.265 312.162 L 597.727 312.172 L 771.299 312.123 C 802.032 312.1 832.814 312.047 863.496 312.187 C 882.827 311.741 889.46 319.768 889.518 338.731 C 889.569 355.682 889.551 373.119 889.541 390.228 L 889.307 494.751 C 889.269 511.92 890.099 529.176 889.63 546.313 C 889.301 558.356 884.18 565.288 872.965 568.834 C 845.785 569.593 815.849 568.946 788.328 568.947 L 624.399 568.949 L 467.33 568.994 C 438.779 569.003 410.049 569.658 381.519 568.812 C 378.061 568.709 374.566 568.481 371.386 566.986 C 367.094 564.969 363.537 561.928 362.05 557.347 C 357.28 542.65 360.019 408.367 360.084 382.882 C 360.123 367.25 358.902 351.326 359.668 335.741 C 359.901 331.01 360.738 326.441 362.96 322.212 C 366.083 316.268 370.742 314.182 376.901 312.346 z"/>
<path transform="translate(0,0)" fill="rgb(201,220,252)" d="M 389.992 380.962 L 539.451 380.994 L 539.443 524.53 C 539.502 525.159 539.548 524.661 538.684 526.498 C 534.536 527.433 504.202 526.937 498.311 526.937 L 389.986 526.976 L 389.992 380.962 z"/>
<path transform="translate(0,0)" fill="rgb(201,220,252)" d="M 621.912 438.966 L 859.072 438.986 L 859.073 470.947 L 621.887 470.938 L 621.912 438.966 z"/>
<path transform="translate(0,0)" fill="rgb(201,220,252)" d="M 621.868 380.976 L 859.042 380.993 L 859.162 412.917 L 621.912 412.921 L 621.868 380.976 z"/>
<path transform="translate(0,0)" fill="rgb(201,220,252)" d="M 621.913 494.982 L 859.194 495.003 C 859.09 505.632 859.092 516.262 859.2 526.891 C 781.745 528.172 699.72 526.985 621.954 526.994 L 621.913 494.982 z"/>
<path transform="translate(0,0)" fill="rgb(201,220,252)" d="M 371.917 344.057 C 400.198 343.19 430.434 343.756 458.925 343.762 L 610.812 343.758 L 809.136 343.823 C 826.769 343.907 857.439 342.339 875.54 344.902 C 876.814 345.082 876.851 347.467 877.186 348.96 C 846.727 349.834 378.197 350.396 374.491 348.978 C 373.899 348.751 373.407 348.321 372.865 347.992 L 371.917 344.057 z"/>
<path transform="translate(0,0)" fill="rgb(201,220,252)" d="M 518.694 323.194 C 578.38 321.625 645.286 323.01 705.601 323.013 L 783.181 322.998 C 790.452 322.979 826.286 321.478 830.249 325.028 L 830.34 326.694 L 828.07 328.2 C 766.589 330.081 697.916 328.582 635.959 328.57 L 557.02 328.488 C 549.418 328.47 522.799 330.168 518.259 326.492 L 518.694 323.194 z"/>
<path transform="translate(0,0)" fill="rgb(201,220,252)" d="M 566.1 438.239 L 598.227 438.213 L 598.222 470.528 L 565.99 470.599 L 566.1 438.239 z"/>
<path transform="translate(0,0)" fill="rgb(201,220,252)" d="M 565.989 495.985 L 598.168 495.982 L 598.283 528.23 L 566.007 528.236 L 565.989 495.985 z"/>
<path transform="translate(0,0)" fill="rgb(201,220,252)" d="M 566.11 380.436 L 598.204 380.294 C 598.231 391.177 598.2 402.061 598.111 412.945 L 565.982 413.017 L 566.11 380.436 z"/>
<path transform="translate(0,0)" fill="rgb(201,220,252)" d="M 839.914 323.281 C 847.835 323.012 871.201 321.111 876.377 325.049 L 876.673 328.074 C 869.172 328.577 844.987 330.398 839.944 326.453 L 839.914 323.281 z"/>
<path transform="translate(0,0)" fill="rgb(201,220,252)" d="M 454.103 323.373 C 461.534 322.745 479.032 321.884 486.428 323.869 C 488.036 324.301 487.931 325.713 488.712 327.953 C 479.893 328.465 464.189 330.149 456.115 327.515 C 454.477 326.981 454.759 325.777 454.103 323.373 z"/>
<path transform="translate(0,0)" fill="rgb(201,220,252)" d="M 435.297 321.475 C 438.114 320.256 441.392 321.457 442.756 324.207 C 444.119 326.957 443.091 330.293 440.417 331.798 C 438.558 332.844 436.273 332.78 434.476 331.629 C 432.68 330.479 431.664 328.432 431.836 326.305 C 432.008 324.179 433.339 322.321 435.297 321.475 z"/>
<path transform="translate(0,0)" fill="rgb(201,220,252)" d="M 412.381 321.48 C 414.311 320.706 416.508 321.03 418.131 322.328 C 419.755 323.627 420.553 325.7 420.22 327.752 C 419.888 329.804 418.476 331.519 416.525 332.238 C 413.568 333.329 410.283 331.843 409.15 328.902 C 408.018 325.961 409.457 322.655 412.381 321.48 z"/>
<path transform="translate(0,0)" fill="rgb(201,220,252)" d="M 389.141 321.57 C 391.052 320.717 393.276 320.969 394.947 322.229 C 396.619 323.489 397.474 325.557 397.181 327.629 C 396.888 329.701 395.492 331.451 393.537 332.197 C 390.627 333.309 387.36 331.901 386.169 329.022 C 384.979 326.144 386.296 322.84 389.141 321.57 z"/>
<path transform="translate(0,0)" fill="rgb(201,220,252)" d="M 385.961 1630.36 C 384.665 1611.52 386.747 1585.73 387.656 1566.5 C 389.209 1533.68 387.227 1504.7 400.698 1474.1 C 420.283 1429.61 421.953 1378.66 437.517 1332.66 C 441.095 1321.85 443.696 1309.68 448.227 1299.28 L 461.445 1544.74 L 465.22 1613.38 C 465.876 1625.87 466.03 1643.6 468.273 1655.36 C 481.334 1665.15 471.667 1672.84 470.296 1686.31 C 455.631 1682.45 391.206 1643.71 385.961 1630.36 z"/>
<path transform="translate(0,0)" fill="rgb(201,220,252)" d="M 322.936 1242.32 C 322.771 1250.78 321.982 1264.41 322.371 1272.42 L 334.508 1268.14 C 331.581 1322.31 328.352 1376.48 324.819 1430.62 C 323.145 1456.2 320.968 1481.92 319.576 1507.5 C 318.642 1524.67 320.86 1543.24 320.777 1560.19 C 311.444 1554.54 306.971 1542.25 302.2 1533.25 C 259.05 1451.82 279.789 1365.44 307.449 1283.24 C 311.526 1271.12 313.328 1251.44 322.936 1242.32 z"/>
<path transform="translate(0,0)" fill="rgb(201,220,252)" d="M 397.438 789.967 C 405.441 803.912 397.997 823.079 410.214 826.349 C 411.144 826.588 412.078 826.813 413.015 827.024 C 416.142 829.813 415.47 837.327 417.504 841.02 C 420.774 846.961 430.922 845.692 430.526 853.904 C 429.77 869.548 404.817 872.286 394.738 873.846 C 395.329 853.468 396.076 833.324 395.753 812.921 C 395.641 805.858 395.602 796.609 397.438 789.967 z"/>
<path transform="translate(0,0)" fill="rgb(152,184,253)" d="M 1263.16 375.914 C 1269.78 376.802 1276.38 377.797 1282.97 378.899 C 1366.79 392.664 1441.74 439.099 1491.39 508.028 C 1520.7 549.18 1538.79 597.252 1543.89 647.517 C 1544.54 654.183 1545.88 666.784 1544.81 672.96 L 1543.04 673.778 C 1477.71 670.657 1406.19 669.411 1340.42 667.955 C 1332.24 622.915 1304.41 595.855 1259.81 586.343 C 1260.16 516.419 1262.31 445.934 1263.16 375.914 z"/>
<path transform="translate(0,0)" fill="rgb(0,0,0)" d="M 1318.02 697.364 L 1410.55 699.635 C 1421.12 699.903 1442.89 699.548 1452.05 701.09 C 1442.76 767.07 1424.12 800.202 1378 847.413 C 1375.74 849.064 1368.39 855.024 1366.56 857.199 C 1362.88 859.816 1360.03 861.784 1356.62 864.796 C 1326.18 884.937 1300.85 897.58 1264.47 905.462 C 1222.46 914.536 1178.84 912.704 1137.74 900.142 C 1128.76 897.476 1114.63 892.698 1106.8 887.619 C 1131.96 848.653 1158.24 806.288 1184.24 768.171 C 1188.72 769.741 1193.27 771.125 1197.86 772.316 C 1223.7 778.839 1251.06 774.822 1273.93 761.152 C 1299.65 745.546 1311.07 725.669 1318.02 697.364 z"/>
<path transform="translate(0,0)" fill="rgb(152,184,253)" d="M 1322.46 703.04 L 1445.58 705.969 C 1440.94 747.159 1424.38 786.099 1397.94 818.017 C 1354.96 870.55 1296.91 897.891 1230.24 904.789 C 1185.98 906.804 1156.03 902.498 1114.85 885.663 L 1186.31 774.779 C 1188.52 775.571 1190.75 776.292 1193.01 776.942 C 1220.65 784.856 1250.33 781.223 1275.25 766.873 C 1300.88 752.065 1315.05 731.175 1322.46 703.04 z"/>
<path transform="translate(0,0)" fill="rgb(0,0,0)" d="M 1425.71 718.41 C 1427.51 719.128 1429.25 719.306 1429.33 720.681 C 1430.05 733.101 1416.2 765.026 1411 774.504 C 1379.09 832.706 1333.91 865.02 1272.24 884.337 C 1269.5 883.414 1270.63 884.181 1268.76 881.888 C 1270.29 878.083 1297.83 869.882 1305.91 866.039 C 1353.45 843.437 1390.84 807.41 1412.33 759.093 C 1418.84 744.479 1420.21 733.165 1424.99 720.302 L 1425.71 718.41 z"/>
<path transform="translate(0,0)" fill="rgb(0,0,0)" d="M 1136.34 874.786 C 1141.51 875.456 1155.67 879.767 1161.99 881.239 C 1182.33 885.963 1203.25 887.698 1224.1 886.388 C 1227.59 888.273 1226.19 886.894 1227.81 891.254 C 1207.43 896.142 1157.14 889.027 1137.16 879.283 C 1135.86 878.65 1136.35 876.151 1136.34 874.786 z"/>
<path transform="translate(0,0)" fill="rgb(83,121,246)" d="M 488.166 874.852 C 516.86 875.567 533.662 892.948 553.42 911.282 C 568.958 925.7 583.8 941.037 598.716 956.099 C 593.742 963.066 588.307 971.088 582.768 977.49 C 582.288 974.867 582.774 976.042 580.939 974.093 L 464.348 974.085 C 455.766 1001.68 447.778 1032.84 439.938 1060.9 C 436.241 1061.99 432.502 1062.93 428.73 1063.73 C 407.752 1068.26 389.288 1069.12 370.632 1057.04 C 369.519 1056.12 368.428 1055.18 367.363 1054.2 C 350.838 1038.99 349.942 1019.23 349.119 998.617 C 326.17 1007.55 303.185 1022.1 279.684 1025.45 C 287.811 989.229 297.173 957.021 318.541 925.579 C 340.141 893.795 371.313 883.752 408.194 877.291 C 438.023 892.086 459.644 892.549 488.166 874.852 z"/>
<path transform="translate(0,0)" fill="rgb(83,121,246)" d="M 549.739 1093.12 C 553.415 1102.04 553.366 1220.59 552.873 1237.51 C 552.515 1249.97 551.652 1262.41 550.285 1274.8 C 506.85 1277.93 493.033 1278.97 451.483 1266.04 C 421.835 1256.81 370.889 1255.75 341.063 1260.56 C 336.81 1261.69 332.233 1263.2 327.989 1264.49 C 328.232 1220.42 330.281 1171.34 331.903 1127.09 C 374.027 1145.41 404.675 1133.49 439.354 1106.7 C 474.081 1106.07 510.615 1106.66 545.488 1106.71 C 546.826 1102.15 548.244 1097.63 549.739 1093.12 z"/>
<path transform="translate(0,0)" fill="rgb(0,0,0)" d="M 498.315 1132.38 C 501.455 1133.66 500.307 1132.63 501.975 1135.45 C 501.249 1139.49 496.636 1146.77 494.226 1150.28 C 466.273 1190.98 426.195 1210.92 379.167 1220.23 C 376.863 1219.71 377.963 1220.12 376.043 1218.42 L 376.404 1216.41 C 380.7 1213.04 396.001 1211.18 401.995 1209.2 C 447.279 1194.25 475.508 1173.16 498.315 1132.38 z"/>
<path transform="translate(0,0)" fill="rgb(152,184,253)" d="M 1204.12 466.424 L 1213.54 466.167 C 1212.11 507.43 1212.46 549.701 1211.3 591.193 C 1209.24 591.455 1207.19 591.77 1205.16 592.137 C 1174.54 597.74 1153.38 613.927 1136.17 639.101 L 1046.72 608.515 C 1035.41 589.532 1025.85 590.967 1005.69 591.104 C 1013.73 575.605 1023.58 561.117 1035.04 547.944 C 1079.01 497.429 1138.02 471.245 1204.12 466.424 z"/>
<path transform="translate(0,0)" fill="rgb(0,0,0)" d="M 1108.91 505.808 C 1111.58 505.536 1111.85 505.942 1113.51 507.479 C 1113.39 508.026 1113.28 508.574 1113.16 509.121 C 1104.35 514.825 1089.27 524.273 1081.52 530.148 C 1072.89 536.575 1064.78 543.667 1057.25 551.357 C 1055.02 551.78 1056.15 551.71 1053.63 550.669 L 1053.1 549.03 C 1058.85 536.432 1096.02 513.28 1108.91 505.808 z"/>
<path transform="translate(0,0)" fill="rgb(0,0,0)" d="M 1194.59 480.441 L 1197.53 480.161 C 1199.7 481.429 1198.9 480.527 1199.88 482.905 C 1196.23 486.807 1162.83 490.359 1153.84 493.646 C 1148.22 495.703 1139.45 498.587 1133.33 500.935 C 1132.24 501.15 1131.21 501.075 1130.08 501.085 L 1128.41 499.36 L 1128.74 497.948 C 1138.26 489.124 1180.76 481.819 1194.59 480.441 z"/>
<path transform="translate(0,0)" fill="rgb(152,184,253)" d="M 1048.29 642.263 L 1124.87 667.931 C 1117.75 705.912 1130.49 734.817 1158.91 759.71 C 1144.08 781.614 1129.25 805.193 1114.74 827.438 L 1086.55 871.098 C 1071.75 861.66 1061.11 853.565 1048.3 841.736 C 1047.6 775.708 1048.24 708.372 1048.29 642.263 z"/>
<path transform="translate(0,0)" fill="url(#Gradient2)" d="M 1452.05 701.09 L 1458.01 699.02 C 1465.84 696.304 1463.98 694.444 1468.28 692.393 C 1471.3 695.813 1474.15 698.701 1477.35 701.933 L 1478.18 700.272 C 1479.94 704.768 1479.02 739.814 1478.93 746.314 L 1477.78 743.786 C 1474.22 750.009 1474.8 766.816 1478.8 773.118 L 1478.73 795.797 C 1475.9 803.038 1477.28 826.051 1476.1 835.993 C 1473.86 854.813 1471.34 859.31 1464.51 876.099 C 1463.01 874.218 1461.68 872.861 1460.02 871.119 C 1459.83 870.199 1463.42 845.488 1463.72 840.476 L 1462.8 840.193 C 1460.61 844.903 1460.11 846.03 1456.22 849.297 C 1445.86 851.663 1446.71 839.844 1434.17 854.168 C 1422.96 858.788 1419.28 842.499 1409.88 841.279 C 1407.44 840.962 1407.6 840.98 1405.87 839.683 C 1407.9 836.914 1412.31 831.598 1412.89 828.588 C 1402.54 836.222 1391.28 845.227 1378 847.413 C 1424.12 800.202 1442.76 767.07 1452.05 701.09 z"/>
<path transform="translate(0,0)" fill="rgb(0,0,0)" fill-opacity="0.984314" d="M 1405.71 392.167 C 1412.38 391.373 1455.11 390.258 1458.76 393.561 L 1458.79 397.415 C 1446.68 397.528 1419.13 398.881 1407.26 396.182 C 1406.16 395.931 1406.09 393.804 1405.71 392.167 z"/>
<path transform="translate(0,0)" fill="rgb(152,184,253)" d="M 520.239 1664.65 C 531.652 1672.47 541.375 1683.41 552.078 1692.22 C 565.671 1703.4 582.261 1712.51 593.324 1726.54 C 594.593 1728.48 596.611 1731.41 596.728 1733.76 C 596.828 1735.75 595.552 1737.95 594.255 1739.36 C 588.248 1745.91 574.804 1748.11 566.155 1748.53 C 553.917 1749.12 481.723 1735.9 475.507 1728.87 C 472.44 1725.4 473.289 1720.19 473.492 1715.95 C 474.159 1703.87 474.971 1689.96 477.264 1678.14 L 499.574 1687.43 C 507.058 1677.17 510.163 1672.17 520.239 1664.65 z"/>
<path transform="translate(0,0)" fill="rgb(152,184,253)" d="M 593.324 1726.54 C 594.593 1728.48 596.611 1731.41 596.728 1733.76 C 596.828 1735.75 595.552 1737.95 594.255 1739.36 C 588.248 1745.91 574.804 1748.11 566.155 1748.53 C 553.917 1749.12 481.723 1735.9 475.507 1728.87 C 472.44 1725.4 473.289 1720.19 473.492 1715.95 L 475.941 1718.41 C 482.722 1718.23 490.902 1722.94 497.604 1724.83 C 529.786 1733.92 561.205 1747.13 592.448 1729.07 L 593.324 1726.54 z"/>
<path transform="translate(0,0)" fill="rgb(0,0,0)" d="M 475.941 1718.41 C 482.722 1718.23 490.902 1722.94 497.604 1724.83 C 529.786 1733.92 561.205 1747.13 592.448 1729.07 C 593.987 1735.44 590.003 1738.51 583.936 1740.17 C 550.422 1749.29 510.888 1736.18 479.516 1723.93 C 476.73 1722.85 476.614 1720.86 475.941 1718.41 z"/>
<path transform="translate(0,0)" fill="rgb(0,0,0)" d="M 541.317 1686.51 L 544.19 1687.6 L 544.719 1689.43 C 542.187 1694.69 531.33 1703.3 526.61 1707.39 C 524.935 1707.23 525.219 1707.11 523.597 1706.28 L 523.342 1704.16 C 525.974 1699.35 536.941 1690.35 541.317 1686.51 z"/>
<path transform="translate(0,0)" fill="rgb(254,254,254)" d="M 967.17 379.311 C 968.373 378.298 969.242 377.683 970.402 376.808 C 972.958 374.881 980.254 372.351 983.222 372.417 C 999.312 372.775 1077.09 370.333 1087.2 372.794 C 1090.36 377.513 1096.97 386.091 1097.41 391.406 C 1096.65 394.575 1096.17 394.839 1098.38 397.747 C 1115.17 422.702 1064.59 418.002 1054.35 418.147 C 1027.83 418.523 1002.56 419.025 976.365 413.643 C 961.245 410.634 970.67 390.6 979.514 398.822 C 978.888 392.198 979.544 389.888 984.947 385.762 C 976.447 380.208 970.925 383.166 967.17 379.311 z M 1056.52 402.608 C 1059.44 402.148 1061.88 400.124 1062.87 397.333 C 1063.86 394.542 1063.24 391.433 1061.26 389.233 C 1059.28 387.033 1056.25 386.095 1053.37 386.79 C 1049.16 387.806 1046.51 391.962 1047.35 396.209 C 1048.2 400.456 1052.24 403.279 1056.52 402.608 z"/>
<path transform="translate(0,0)" fill="rgb(152,184,253)" d="M 984.947 385.762 C 1003.27 388.1 996.917 404.807 984.851 403.516 C 981.794 401.689 981.71 401.83 979.514 398.822 C 978.888 392.198 979.544 389.888 984.947 385.762 z"/>
<path transform="translate(0,0)" fill="rgb(152,184,253)" d="M 1019.25 386.5 C 1023.64 385.258 1028.22 387.761 1029.54 392.128 C 1030.87 396.494 1028.45 401.117 1024.11 402.521 C 1021.23 403.453 1018.07 402.757 1015.84 400.7 C 1013.62 398.643 1012.68 395.546 1013.39 392.601 C 1014.1 389.657 1016.34 387.324 1019.25 386.5 z"/>
<path transform="translate(0,0)" fill="rgb(152,184,253)" fill-opacity="0.835294" d="M 1053.37 386.79 C 1056.25 386.095 1059.28 387.033 1061.26 389.233 C 1063.24 391.433 1063.86 394.542 1062.87 397.333 C 1061.88 400.124 1059.44 402.148 1056.52 402.608 C 1052.24 403.279 1048.2 400.456 1047.35 396.209 C 1046.51 391.962 1049.16 387.806 1053.37 386.79 z"/>
<path transform="translate(0,0)" fill="rgb(152,184,253)" d="M 358.208 1677.72 L 371.275 1676.42 C 372.504 1683.74 371.897 1684.98 378.54 1688.68 C 382.726 1703.79 386.813 1736.23 389.738 1753.14 C 390.737 1765.64 369.267 1766.51 360.544 1766.07 C 347.646 1765.42 318.879 1769.88 322.258 1749.9 C 327.107 1730.51 333.933 1699.66 345.581 1683.82 C 346.817 1685.45 348.072 1687.06 349.349 1688.66 C 353.852 1687.97 356.125 1681.63 358.208 1677.72 z"/>
<path transform="translate(0,0)" fill="rgb(0,0,0)" d="M 323.807 1750.35 L 324.654 1750.38 C 332.004 1750.67 341.179 1752.29 348.831 1753 C 357.203 1753.78 382.217 1746.37 387.587 1750.97 C 378.708 1759.33 336.555 1760.6 325.384 1754.58 C 324.039 1753.86 324.097 1751.8 323.807 1750.35 z"/>
<path transform="translate(0,0)" fill="rgb(0,0,0)" d="M 341.215 1722.34 C 348.293 1721.98 367.14 1719.87 371.657 1723.61 L 371.611 1726.91 C 364.869 1727.02 344.979 1729.9 340.958 1725.54 L 341.215 1722.34 z"/>
<path transform="translate(0,0)" fill="rgb(254,254,254)" d="M 459.629 770.108 C 462.383 770.633 464.975 771.795 467.2 773.501 C 474.748 779.412 474.124 787.942 478.361 796.008 C 480.275 799.65 487.127 805.034 487.587 808.037 C 476.023 814.755 488.59 827.455 477.552 837.261 C 463.481 849.761 451.016 830.108 444.051 827.169 L 442.375 828.321 C 440.732 836.979 456.142 843.704 462.831 846.658 C 463.717 860.901 467.527 864.889 478.25 872.797 L 478.491 874.503 C 475.896 875.772 473.272 876.981 470.621 878.128 C 452.117 885.976 435.395 883.177 417.519 875.997 C 439.775 864.249 435.277 848.978 435.001 826.959 C 431.348 824.837 426.073 820.689 425.235 816.4 C 430.893 806.624 446.75 812.772 436.66 790.07 C 443.492 788.073 447.171 786.88 453.68 784.078 C 454.936 777.221 454.638 774.317 459.629 770.108 z"/>
<path transform="translate(0,0)" fill="rgb(198,203,210)" fill-opacity="0.443137" d="M 1464.51 876.099 C 1471.34 859.31 1473.86 854.813 1476.1 835.993 C 1477.28 826.051 1475.9 803.038 1478.73 795.797 C 1479.11 825.23 1478.54 854.639 1478.7 884.066 C 1477.7 877.508 1477.96 861.825 1477.88 854.554 C 1478.07 849.504 1477.94 846.648 1477.52 841.598 C 1476.14 849.582 1473.5 861.663 1475.07 869.529 C 1474.73 886.1 1469.4 893.211 1467.25 908.705 C 1466.39 914.913 1475.08 918.411 1471.89 926.985 L 1469.96 925.397 C 1464.97 926.878 1459.61 930.183 1456.37 931.172 C 1455.11 931.555 1441.33 931.879 1439.03 931.948 C 1427.02 932.307 1415.3 933.704 1403.79 937.387 C 1400.49 938.442 1397.69 940.677 1394.21 942.133 C 1390.85 942.371 1385.11 942.061 1381.56 941.983 C 1381.63 940.672 1381.93 940.033 1382.31 938.745 C 1391.23 931.583 1427.67 928.014 1439.88 923.417 C 1449.22 920.826 1448.2 907.472 1446.3 899.11 C 1441.66 878.743 1414.14 887.974 1399.78 883.745 C 1391.88 881.418 1387.49 876.293 1381.03 872.8 C 1370.29 866.998 1370.18 879.108 1359.6 867.921 L 1358.9 867.168 L 1356.62 864.796 C 1360.03 861.784 1362.88 859.816 1366.56 857.199 L 1367.18 858.516 L 1365.77 861.327 C 1372.34 861.505 1379.35 860.173 1384.86 859.559 C 1390.14 858.972 1405.45 872.376 1410.02 876.231 C 1425.51 879.538 1435.47 874.189 1446.19 880.128 C 1449.64 886.313 1453.35 902.162 1457.98 904.863 C 1461.55 901.292 1462.8 883.029 1464.51 876.099 z"/>
<path transform="translate(0,0)" fill="url(#Gradient1)" d="M 1378 847.413 C 1391.28 845.227 1402.54 836.222 1412.89 828.588 C 1412.31 831.598 1407.9 836.914 1405.87 839.683 C 1407.6 840.98 1407.44 840.962 1409.88 841.279 C 1419.28 842.499 1422.96 858.788 1434.17 854.168 C 1446.71 839.844 1445.86 851.663 1456.22 849.297 C 1460.11 846.03 1460.61 844.903 1462.8 840.193 L 1463.72 840.476 C 1463.42 845.488 1459.83 870.199 1460.02 871.119 C 1461.68 872.861 1463.01 874.218 1464.51 876.099 C 1462.8 883.029 1461.55 901.292 1457.98 904.863 C 1453.35 902.162 1449.64 886.313 1446.19 880.128 C 1435.47 874.189 1425.51 879.538 1410.02 876.231 C 1405.45 872.376 1390.14 858.972 1384.86 859.559 C 1379.35 860.173 1372.34 861.505 1365.77 861.327 L 1367.18 858.516 L 1366.56 857.199 C 1368.39 855.024 1375.74 849.064 1378 847.413 z"/>
<path transform="translate(0,0)" fill="rgb(176,185,209)" fill-opacity="0.133333" d="M 1358.9 867.168 L 1359.6 867.921 C 1370.18 879.108 1370.29 866.998 1381.03 872.8 C 1387.49 876.293 1391.88 881.418 1399.78 883.745 C 1414.14 887.974 1441.66 878.743 1446.3 899.11 C 1448.2 907.472 1449.22 920.826 1439.88 923.417 C 1427.67 928.014 1391.23 931.583 1382.31 938.745 C 1381.93 940.033 1381.63 940.672 1381.56 941.983 L 1378.78 942.129 L 1377.74 938.963 C 1381.79 930.908 1425.85 928.753 1435.43 915.426 C 1432.57 906.026 1439.53 894.991 1427.4 889.862 C 1426.28 889.391 1412.85 890.96 1411.07 891.469 C 1401.37 894.25 1389.77 888.287 1380.52 888.791 C 1373.43 889.178 1372.37 895.283 1362.49 895.573 C 1360.93 891.433 1364.74 884.073 1360.08 878.352 C 1357.95 875.738 1358.57 870.526 1358.9 867.168 z"/>
<path transform="translate(0,0)" fill="rgb(254,254,254)" d="M 763.574 888.438 C 769.624 879.661 783.308 863.695 793.271 860.361 L 794.572 861.132 C 793.861 868.504 779.575 882.897 774.551 888.363 C 779.561 892.591 783.861 895.758 784.652 902.8 C 786.025 915.023 774.837 925.723 763.243 926.974 C 760.912 927.226 759.63 927.237 758.295 925.053 L 758.589 922.371 C 761.173 919.301 765.392 917.273 768.943 915.206 C 776.001 900.629 772.293 900.766 763.574 888.438 z"/>
<path transform="translate(0,0)" fill="rgb(254,254,254)" d="M 1394.21 942.133 C 1397.69 940.677 1400.49 938.442 1403.79 937.387 C 1415.3 933.704 1427.02 932.307 1439.03 931.948 C 1441.33 931.879 1455.11 931.555 1456.37 931.172 C 1459.61 930.183 1464.97 926.878 1469.96 925.397 L 1471.89 926.985 L 1473.43 929.323 C 1463.82 943.941 1448.03 942.797 1432.47 942.719 C 1419.72 942.655 1406.96 942.289 1394.21 942.133 z"/>
<path transform="translate(0,0)" fill="rgb(254,254,254)" d="M 528.422 1502.39 C 531.354 1503.35 530.189 1502.51 532.029 1505 C 531.719 1508.85 525.951 1517.3 523.742 1521.39 C 513.907 1539.61 504.308 1558.47 499.097 1578.59 C 497.544 1584.58 497.975 1590.91 495.344 1596.6 C 493.23 1595.73 493.388 1595.77 491.942 1593.97 C 488.411 1573.5 516.676 1521.29 528.422 1502.39 z"/>
<path transform="translate(0,0)" fill="rgb(0,0,0)" d="M 1097.41 391.406 C 1106.86 391.535 1135.86 390.438 1142.34 393.704 L 1143.11 395.564 C 1140.07 398.332 1105.35 397.507 1098.38 397.747 C 1096.17 394.839 1096.65 394.575 1097.41 391.406 z"/>
<path transform="translate(0,0)" fill="rgb(254,254,254)" d="M 364.884 1493.32 C 370.672 1493.1 380.611 1491.48 384.738 1495.53 L 384.536 1498.84 C 378.839 1498.9 367.684 1500.74 364.153 1496.55 L 364.884 1493.32 z"/>
<path transform="translate(0,0)" fill="rgb(254,254,254)" fill-opacity="0.541176" d="M 1478.8 773.118 C 1474.8 766.816 1474.22 750.009 1477.78 743.786 L 1478.93 746.314 C 1478.65 755.246 1478.6 764.184 1478.8 773.118 z"/>
<path transform="translate(0,0)" fill="rgb(201,220,252)" fill-opacity="0.227451" d="M 1477.52 841.598 C 1477.94 846.648 1478.07 849.504 1477.88 854.554 C 1477.05 859.015 1476.12 865.294 1475.07 869.529 C 1473.5 861.663 1476.14 849.582 1477.52 841.598 z"/>
<path transform="translate(0,0)" fill="rgb(0,0,0)" d="M 639.239 1500.84 C 635.35 1498.48 629.399 1494.1 628.863 1489.56 C 627.14 1474.93 628.539 1453.79 628.905 1439 L 630.722 1359.12 L 634.509 1187.4 C 635.148 1158.57 635.651 1129.74 636.477 1100.93 C 636.937 1084.85 641.366 1077.03 658.26 1076.99 C 706.474 1076.88 754.693 1077 802.908 1077 L 1096.19 1076.98 L 1286.62 1077.05 C 1313.85 1077.12 1341.1 1076.72 1368.29 1076.86 C 1373.82 1077.05 1384.51 1079.16 1387.39 1084.7 C 1391.45 1092.48 1390.06 1105.91 1389.78 1114.68 C 1409.24 1100.3 1429.64 1093.24 1454.03 1095.02 C 1478.62 1096.87 1501.41 1108.59 1517.21 1127.52 C 1548.66 1164.69 1538.87 1207.28 1535.2 1252.95 C 1550.93 1252.82 1566.65 1252.51 1582.37 1252.02 C 1576.97 1228.94 1566 1168.05 1557.21 1150.13 C 1548.03 1131.65 1532.82 1116.85 1514.09 1108.18 C 1509.06 1105.88 1499.14 1104.53 1497.08 1100.03 L 1497.75 1098.33 C 1504.23 1096.27 1522.92 1106.16 1528.88 1110.01 C 1562.99 1132.03 1568.3 1161.3 1576.3 1198.18 L 1587.94 1252.08 C 1626.56 1251.47 1641.18 1251.06 1680.24 1256.22 L 1692.74 1316.32 L 1749.44 1591.81 L 1765.65 1670.57 C 1767.84 1681.24 1772.94 1702.63 1773.64 1712.26 C 1766.53 1717.9 1753.36 1722.6 1744.65 1725.91 C 1706.11 1740.55 1667.43 1757.42 1628.62 1770.95 C 1624.06 1772.54 1570.07 1770.63 1563.04 1770.49 L 1433.54 1768.18 L 1245.6 1765.19 C 1213.55 1764.78 1164.39 1765.09 1133.23 1762.83 C 1136.25 1751.11 1139.55 1736.56 1142.96 1725.2 C 1150.47 1699.44 1157.37 1671.02 1164.21 1644.89 L 1202.44 1499.12 C 1203.94 1492.63 1205.55 1486.17 1207.24 1479.73 C 1200.86 1474.25 1198.33 1474.81 1190.05 1474 C 1189.79 1455.68 1191.21 1432.33 1191.55 1413.5 L 1194.95 1233.89 C 1219.06 1234.66 1238.05 1236.13 1262.9 1233.8 C 1262.81 1244.18 1262.9 1254.56 1263.16 1264.94 C 1268.74 1255.66 1273.33 1256.98 1283.42 1256.92 C 1280.63 1247.3 1283.19 1192.49 1283.53 1179.04 C 1303.66 1179.17 1326.38 1178.41 1346.55 1179.48 C 1350.31 1179.68 1351.07 1181.96 1352.81 1184.62 C 1359.33 1153.58 1362.18 1143.51 1384 1119.53 C 1384.24 1107.84 1388.96 1083.73 1373.2 1083.11 C 1358.34 1082.52 1343.69 1082.57 1328.82 1082.56 L 1248.53 1082.54 L 990.548 1082.54 L 762.278 1082.52 L 693.76 1082.45 C 681.649 1082.44 668.383 1082.2 656.233 1082.95 C 648.286 1083.44 642.544 1086.3 642.242 1095.54 C 641.325 1123.6 640.89 1151.78 640.273 1179.9 L 636.575 1346.2 L 634.508 1436.39 C 634.373 1442.42 632.141 1490.96 636.256 1492.59 C 649.855 1498 675.134 1496.08 690.547 1496.07 L 765.796 1496.06 L 996.055 1495.97 L 1048.03 1495.95 C 1054.83 1495.95 1062.61 1495.88 1069.47 1496.16 C 1071.32 1496.23 1072.41 1498.44 1073.36 1499.96 C 1065.38 1502.3 1020.3 1501.42 1008.91 1501.42 L 882.86 1501.4 L 725.642 1501.37 C 700.561 1501.38 663.518 1502.45 639.239 1500.84 z M 1343.4 1255.94 L 1384.42 1254.83 C 1382.56 1237.44 1384.74 1196.06 1385.91 1178.29 C 1385.12 1177.3 1384.34 1176.32 1383.55 1175.33 C 1381.79 1162.77 1383.44 1139.21 1383.91 1127.44 C 1365.09 1150.86 1362.88 1163.78 1356.82 1192.76 C 1352.57 1213.13 1348.54 1235.92 1343.4 1255.94 z"/>
<path transform="translate(0,0)" fill="rgb(201,220,252)" d="M 1194.95 1233.89 C 1219.06 1234.66 1238.05 1236.13 1262.9 1233.8 C 1262.81 1244.18 1262.9 1254.56 1263.16 1264.94 C 1263.13 1269.69 1256.41 1293.41 1254.86 1299.26 L 1236.83 1368.03 L 1217.34 1442.4 C 1214.89 1451.77 1210.36 1471.17 1207.24 1479.73 C 1200.86 1474.25 1198.33 1474.81 1190.05 1474 C 1189.79 1455.68 1191.21 1432.33 1191.55 1413.5 L 1194.95 1233.89 z"/>
<path transform="translate(0,0)" fill="rgb(201,220,252)" d="M 1283.53 1179.04 C 1303.66 1179.17 1326.38 1178.41 1346.55 1179.48 C 1350.31 1179.68 1351.07 1181.96 1352.81 1184.62 C 1347.92 1208.46 1342.84 1232.26 1337.58 1256.02 C 1319.94 1256.35 1300.89 1257.19 1283.42 1256.92 C 1280.63 1247.3 1283.19 1192.49 1283.53 1179.04 z"/>
<path transform="translate(0,0)" fill="rgb(83,121,246)" d="M 1534.95 1258.76 C 1564.85 1257.01 1603.73 1257.65 1634.35 1257.1 L 1627.32 1765.78 L 1140.37 1757.65 L 1226.21 1430.3 L 1254.12 1323.76 C 1259.23 1304.21 1264.51 1282.25 1270.33 1263.06 C 1291.27 1261.87 1315.25 1262.09 1336.38 1261.89 L 1333.64 1275.24 C 1332.29 1280.56 1330.51 1285.4 1331.29 1290.71 L 1332.47 1292.51 C 1337.46 1290.71 1337.95 1281.38 1338.92 1276.46 L 1342.11 1261.77 C 1402.56 1259.64 1468.39 1259.44 1529.17 1258.86 L 1528.11 1275.15 C 1527.51 1281.11 1526.48 1286.01 1528.13 1291.68 L 1529.48 1293.22 C 1533.97 1290.5 1533.2 1280.8 1533.66 1275.69 L 1534.95 1258.76 z"/>
<path transform="translate(0,0)" fill="rgb(201,220,252)" d="M 1338.92 1276.46 C 1346.01 1280.6 1352.83 1289.88 1348.6 1297.61 C 1337.29 1318.26 1308.19 1306.9 1318.52 1283.83 C 1320.83 1278.68 1328.39 1276.32 1333.64 1275.24 C 1332.29 1280.56 1330.51 1285.4 1331.29 1290.71 L 1332.47 1292.51 C 1337.46 1290.71 1337.95 1281.38 1338.92 1276.46 z"/>
<path transform="translate(0,0)" fill="rgb(201,220,252)" d="M 1533.66 1275.69 C 1548.72 1284.49 1549.71 1301.51 1537.19 1307.06 C 1519.43 1314.95 1495.75 1286.74 1528.11 1275.15 C 1527.51 1281.11 1526.48 1286.01 1528.13 1291.68 L 1529.48 1293.22 C 1533.97 1290.5 1533.2 1280.8 1533.66 1275.69 z"/>
<path transform="translate(0,0)" fill="rgb(254,254,254)" d="M 1407.6 1489.22 C 1419.67 1473.96 1435.64 1460.4 1455.84 1458.59 C 1481.65 1456.27 1494.24 1474.94 1494.7 1498.73 C 1495.3 1529.09 1478.09 1550.65 1458.17 1571.47 C 1441.34 1588.07 1427.62 1598.67 1407.95 1611.43 L 1406.8 1610.78 C 1367.17 1587.91 1305.66 1525.93 1333.82 1472.83 C 1338.13 1464.69 1346.04 1461.12 1354.72 1459.17 C 1379.89 1458.03 1394.35 1469.96 1407.6 1489.22 z"/>
<path transform="translate(0,0)" fill="rgb(152,184,253)" d="M 1640.05 1257.59 C 1651.91 1258.54 1663.74 1259.78 1675.53 1261.32 L 1768.09 1710.45 L 1724.27 1727.66 C 1695.12 1739.96 1662.69 1751.96 1633.05 1763.64 L 1640.05 1257.59 z"/>
<path transform="translate(0,0)" fill="rgb(254,254,254)" d="M 1660.51 1293.23 L 1664.15 1294.65 C 1666.49 1298 1666.62 1316.02 1666.91 1321.16 L 1671.04 1393.97 L 1686.29 1662.68 C 1704.59 1673.9 1732.54 1688.01 1750.25 1701.04 C 1751.29 1701.81 1750.75 1703.54 1750.63 1705.31 C 1743.89 1704.26 1690.56 1671.74 1681.18 1666.24 C 1678.49 1639.18 1677.47 1606.68 1675.91 1579.24 L 1666.74 1417.58 L 1662.05 1337.59 C 1661.48 1327.83 1659.42 1301.96 1660.51 1293.23 z"/>
<path transform="translate(0,0)" fill="rgb(201,220,252)" d="M 1389.36 1122.42 C 1409.04 1106.38 1429.77 1098.01 1455.61 1100.66 C 1478.95 1103.08 1500.31 1114.88 1514.78 1133.34 C 1544.32 1170.55 1531.39 1209.36 1529.85 1253 C 1490.86 1254.01 1451.86 1254.5 1412.85 1254.49 C 1403.6 1254.49 1393.53 1255.11 1384.42 1254.83 C 1382.56 1237.44 1384.74 1196.06 1385.91 1178.29 C 1390.68 1170.13 1388.82 1134.73 1389.36 1122.42 z"/>
<path transform="translate(0,0)" fill="rgb(0,0,0)" d="M 1430.49 1106.85 C 1433.34 1106.96 1432.05 1106.57 1434.5 1108.08 C 1434.21 1112.07 1420.63 1120.61 1416.76 1124.3 C 1412.13 1128.71 1408.82 1132.32 1404.74 1137.27 C 1402.06 1136.5 1403.23 1137.14 1401.43 1134.93 C 1402.33 1126.1 1423.35 1111.43 1430.49 1106.85 z"/>
<path transform="translate(0,0)" fill="rgb(0,0,0)" d="M 679.127 1612.69 C 683.439 1613.04 713.454 1623.78 720.341 1625.99 C 738.672 1631.9 757.231 1637.07 775.975 1641.49 C 854.586 1660.25 934.574 1669.01 1015.13 1661.04 C 1021.67 1660.39 1041.32 1655.05 1045.83 1658.99 L 1045.8 1662.14 C 1029.83 1664.82 1013.74 1666.77 997.581 1667.96 C 904.895 1674.91 806.528 1658.69 718.148 1631.19 C 708.18 1628.09 688.734 1622.86 679.976 1616.93 C 678.767 1616.11 679.181 1614.63 679.127 1612.69 z"/>
<path transform="translate(0,0)" fill="rgb(0,0,0)" d="M 1604.48 666.397 C 1608.68 667.768 1608.88 668.116 1611.52 672.358 C 1617.71 682.29 1623.17 693.392 1628.43 703.859 C 1659.17 765.152 1678.28 831.613 1684.8 899.872 C 1685.75 910.281 1687.39 933.228 1685.35 942.827 C 1682.87 942.116 1682.74 942.338 1681.11 940.43 C 1680.55 928.836 1680.74 917.055 1679.78 905.572 C 1675.25 853.165 1663.22 801.678 1644.06 752.688 C 1637.24 735.239 1629.66 718.742 1621.41 701.927 C 1617.57 694.116 1603.12 673.235 1604.48 666.397 z"/>
<path transform="translate(0,0)" fill="rgb(0,0,0)" d="M 1680.26 755.52 C 1686.32 757.784 1690.46 772.956 1692.57 778.92 C 1718.82 853.126 1732.29 933.335 1721.49 1011.84 C 1720.48 1019.12 1719.62 1027.44 1716.4 1034.04 C 1715.76 1033.63 1712.96 1032.16 1713.12 1031.33 C 1729.6 940.464 1713.87 846.481 1679.76 761.318 C 1678.66 758.57 1679.36 757.995 1680.26 755.52 z"/>
<path transform="translate(0,0)" fill="rgb(0,0,0)" d="M 813.238 1681.21 C 874.013 1695.62 932.181 1701.88 994.683 1694.68 C 1010.62 1692.85 1026.43 1690.04 1042.03 1686.27 C 1047.38 1684.95 1059.31 1680.59 1063.83 1681.38 C 1065.62 1683.73 1065.1 1682.39 1064.76 1685.74 C 996.923 1706.68 922.947 1707.18 853.34 1695.41 C 845.241 1694.04 819.528 1689.12 812.771 1686.18 C 811.662 1683.08 811.717 1684.69 813.238 1681.21 z"/>
<path transform="translate(0,0)" fill="rgb(0,0,0)" d="M 618.258 1572.5 C 628.011 1570.27 637.73 1576.35 639.996 1586.09 C 642.263 1595.84 636.224 1605.58 626.489 1607.89 C 616.699 1610.2 606.89 1604.12 604.611 1594.32 C 602.331 1584.53 608.45 1574.74 618.258 1572.5 z"/>
<path transform="translate(0,0)" fill="rgb(201,220,252)" d="M 617.636 1578.53 C 621.871 1576.84 626.689 1577.57 630.233 1580.44 C 633.777 1583.3 635.495 1587.86 634.726 1592.36 C 633.956 1596.85 630.819 1600.58 626.522 1602.11 C 620.053 1604.4 612.935 1601.1 610.515 1594.67 C 608.094 1588.25 611.26 1581.07 617.636 1578.53 z"/>
<path transform="translate(0,0)" fill="rgb(0,0,0)" d="M 1646.47 678.528 C 1653.15 675.823 1660.75 679.013 1663.5 685.669 C 1666.25 692.326 1663.12 699.954 1656.48 702.751 C 1649.78 705.575 1642.06 702.4 1639.28 695.679 C 1636.5 688.957 1639.73 681.259 1646.47 678.528 z"/>
<path transform="translate(0,0)" fill="rgb(201,220,252)" d="M 1649.01 683.499 C 1652.81 682.227 1656.94 684.158 1658.4 687.889 C 1659.86 691.621 1658.14 695.843 1654.49 697.489 C 1651.95 698.631 1649 698.284 1646.8 696.587 C 1644.6 694.89 1643.51 692.12 1643.98 689.381 C 1644.44 686.642 1646.37 684.38 1649.01 683.499 z"/>
<path transform="translate(0,0)" fill="rgb(0,0,0)" d="M 1671.84 1105.52 L 1674.43 1107.16 L 1674.73 1109.36 C 1672.63 1113.68 1668.25 1117.27 1664.69 1120.71 C 1663.92 1120.4 1662.57 1119.55 1661.8 1119.1 L 1661.53 1117.13 C 1663.7 1112.69 1668.17 1109.05 1671.84 1105.52 z"/>
<path transform="translate(0,0)" fill="rgb(0,0,0)" d="M 1701.47 1074.66 L 1704.18 1075.92 L 1704.66 1077.9 C 1702.59 1082.28 1698.3 1085.95 1694.77 1089.49 C 1693.98 1089.25 1692.56 1088.53 1691.76 1088.16 L 1691.32 1086.13 C 1693.37 1081.69 1697.81 1078.15 1701.47 1074.66 z"/>
<path transform="translate(0,0)" fill="rgb(0,0,0)" d="M 1691.14 1105.49 C 1697.33 1105.78 1706.04 1113.12 1704.1 1119.93 C 1698.43 1119.04 1691.57 1111.45 1691.14 1105.49 z"/>
<path transform="translate(0,0)" fill="rgb(0,0,0)" d="M 1661.08 1075.46 C 1667.22 1076.15 1675.35 1083.42 1674.19 1090.24 C 1668.7 1089.7 1661.25 1081.55 1661.08 1075.46 z"/>
<path transform="translate(0,0)" fill="rgb(83,121,246)" d="M 848.599 648.504 C 853.571 648.429 853.502 649.192 857.214 647.047 C 858.632 643.504 858.553 643.438 858.968 639.838 C 862.847 636.528 924.157 637.965 935.011 637.989 C 935.041 669.392 934.222 706.028 935.583 737.018 C 935.185 746.153 935.133 753.9 935.3 763.047 C 935.091 776.97 935.03 790.894 935.115 804.818 C 934.478 814.274 934.388 825.181 934.637 834.728 C 935.205 856.52 933.88 879.621 935.426 901.287 C 933.521 904.465 934.821 903.509 931.749 904.677 L 930.038 903.046 C 928.405 897.669 929.12 841.713 929.12 832.651 L 929.267 643.312 C 925.291 643.384 920.599 643.111 916.971 644.464 L 917.241 647.956 C 920.098 651.556 918.902 739.218 918.902 751.692 L 918.996 945.022 L 847.89 945.002 C 847.888 929.028 848.783 777.615 846.666 774.068 C 845.647 763.658 845.558 713.666 847.283 704.703 C 849.643 698.137 846.119 659.535 848.599 648.504 z"/>
<path transform="translate(0,0)" fill="rgb(0,0,0)" d="M 848.599 648.504 C 853.571 648.429 853.502 649.192 857.214 647.047 C 858.632 643.504 858.553 643.438 858.968 639.838 C 862.847 636.528 924.157 637.965 935.011 637.989 C 935.041 669.392 934.222 706.028 935.583 737.018 C 935.185 746.153 935.133 753.9 935.3 763.047 C 935.091 776.97 935.03 790.894 935.115 804.818 C 934.478 814.274 934.388 825.181 934.637 834.728 C 935.205 856.52 933.88 879.621 935.426 901.287 C 933.521 904.465 934.821 903.509 931.749 904.677 L 930.038 903.046 C 928.405 897.669 929.12 841.713 929.12 832.651 L 929.267 643.312 C 925.291 643.384 920.599 643.111 916.971 644.464 L 917.241 647.956 C 909.677 648.576 869.965 649.413 863.26 647.937 C 864.507 654.677 864.084 668.997 864.08 676.343 L 864.042 726.109 L 863.968 811.988 C 863.963 819.241 865.571 850.562 861.99 854.652 L 860.084 854.473 C 855.919 848.865 860.394 673.822 858.752 655.389 C 858.061 647.626 859.859 648.775 848.599 648.504 z"/>
<path transform="translate(0,0)" fill="rgb(254,254,254)" d="M 863.26 647.937 C 863.696 645.637 863.456 646.376 864.735 644.186 C 871.716 641.93 908.895 643.137 916.971 644.464 L 917.241 647.956 C 909.677 648.576 869.965 649.413 863.26 647.937 z"/>
<path transform="translate(0,0)" fill="rgb(83,121,246)" d="M 936.472 805.58 C 938.505 799.871 938.621 797.012 944.339 794.64 L 946.917 795.785 L 949.853 795.187 C 973.582 795.166 999.53 794.848 1023.19 795.823 C 1023.28 812.036 1023.28 828.248 1023.19 844.46 C 1023.16 853.211 1022.79 871.08 1024.16 878.942 C 1026.27 875.485 1028.28 870.992 1031.41 869.176 C 1039.83 879.976 1038.25 915.987 1030.29 928.089 C 1025.12 930.822 1022.44 929.491 1019.25 932.766 C 1017.72 937.98 1017.61 941.013 1013.27 943.94 C 1009.67 944.289 1011.27 944.669 1008.26 942.959 L 1007.32 944.209 C 1002.45 946.049 944.739 945.002 935.997 944.978 C 936.055 937.43 936.649 906.993 935.426 901.287 C 933.88 879.621 935.205 856.52 934.637 834.728 C 934.388 825.181 934.478 814.274 935.115 804.818 L 936.472 805.58 z M 1007.65 822.064 C 1008.41 836.155 1008.78 850.265 1008.78 864.377 C 1008.81 870.356 1008.12 881.132 1008.82 886.163 C 1012.52 885.761 1010.86 881.877 1011.9 878.385 C 1015.54 879.732 1011.38 878.648 1015.12 883.435 L 1019.43 882.855 C 1014.77 876.612 1018.58 817.649 1016.92 803.154 C 1015.23 801.424 1013.6 802.033 1010.32 801.877 C 1019.37 808.245 1011.18 813.92 1007.65 822.064 z"/>
<path transform="translate(0,0)" fill="rgb(0,0,0)" d="M 936.472 805.58 C 938.505 799.871 938.621 797.012 944.339 794.64 L 946.917 795.785 L 949.853 795.187 C 973.582 795.166 999.53 794.848 1023.19 795.823 C 1023.28 812.036 1023.28 828.248 1023.19 844.46 C 1023.16 853.211 1022.79 871.08 1024.16 878.942 L 1019.43 882.855 C 1014.77 876.612 1018.58 817.649 1016.92 803.154 C 1015.23 801.424 1013.6 802.033 1010.32 801.877 C 1005.38 800.205 956.982 800.866 951.417 802.117 C 953.6 812.424 953.744 909.558 950.729 915.336 L 949.238 915.069 C 945.101 907.617 946.945 887.084 946.96 877.55 L 946.966 806.333 C 942.458 806.387 940.909 806.316 936.472 805.58 z"/>
<path transform="translate(0,0)" fill="rgb(254,254,254)" d="M 936.472 805.58 C 938.505 799.871 938.621 797.012 944.339 794.64 L 946.917 795.785 L 946.966 806.333 C 942.458 806.387 940.909 806.316 936.472 805.58 z"/>
<path transform="translate(0,0)" fill="rgb(254,254,254)" d="M 1024.16 878.942 C 1026.27 875.485 1028.28 870.992 1031.41 869.176 C 1039.83 879.976 1038.25 915.987 1030.29 928.089 C 1025.12 930.822 1022.44 929.491 1019.25 932.766 C 1017.72 937.98 1017.61 941.013 1013.27 943.94 C 1009.67 944.289 1011.27 944.669 1008.26 942.959 C 1006.89 936.23 1006.22 890.378 1007.59 884.832 L 1008.82 886.163 C 1012.52 885.761 1010.86 881.877 1011.9 878.385 C 1015.54 879.732 1011.38 878.648 1015.12 883.435 L 1019.43 882.855 L 1024.16 878.942 z"/>
<path transform="translate(0,0)" fill="rgb(254,254,254)" d="M 951.417 802.117 C 956.982 800.866 1005.38 800.205 1010.32 801.877 C 1019.37 808.245 1011.18 813.92 1007.65 822.064 C 1006.78 817.458 1006.99 811.183 1006.96 806.367 C 991.767 806.518 969.584 807.349 954.312 805.702 C 952.559 805.513 952.591 804.349 951.417 802.117 z"/>
<path transform="translate(0,0)" fill="rgb(152,184,253)" fill-opacity="0.176471" d="M 942.892 719.825 C 946.513 719.647 949.875 719.447 953.5 719.51 C 961.547 727.096 964.966 730.365 966.22 742.504 C 966.916 749.242 963.569 759.335 969.07 763.835 C 976.34 769.783 981.837 761.937 989.478 768.977 C 989.322 772.332 987.905 779.138 989.356 781.072 C 991.179 783.5 997.476 789.456 995.902 792.802 C 990.392 793.278 984.7 793.646 979.265 792.746 C 980.449 781.462 967.933 786.871 963.378 793.603 C 957.85 790.095 955.651 792.369 949.853 795.187 L 946.917 795.785 L 944.339 794.64 C 938.621 797.012 938.505 799.871 936.472 805.58 L 935.115 804.818 C 935.03 790.894 935.091 776.97 935.3 763.047 L 936.378 758.827 L 938.143 762.612 L 937.937 763.669 C 937.892 771.125 937.85 785.64 948.308 784.552 C 964.069 775.112 958.448 738.921 954.011 724.022 C 950.4 722.362 946.644 721.145 942.892 719.825 z"/>
<path transform="translate(0,0)" fill="rgb(198,203,210)" fill-opacity="0.133333" d="M 937.898 731.215 C 937.539 725.103 936.85 719.281 939.762 713.797 C 945.076 710.37 958.062 709.856 960.281 716.452 C 968.812 741.806 980.572 729.631 999.312 735.025 L 999.904 736.2 L 1000.12 740.701 C 999.106 739.711 998.105 738.71 997.115 737.699 C 990.796 737.361 980.799 735.022 976.342 738.358 C 971.274 749.667 986.444 759.824 998.581 751.076 C 1001.72 750.832 1001.52 750.805 1004.35 749.335 C 1004.72 748.674 1005.1 748.019 1005.5 747.37 C 1011 738.457 1018.86 744.28 1020.5 737.898 L 1018.53 735.679 C 1012.14 734.944 1005.99 733.722 999.815 735.031 C 1001.64 732.788 1001.05 732.575 1003.11 732.536 C 1010.7 732.39 1015.63 730.41 1022.11 734.848 C 1022.82 736.342 1023.67 737.958 1022.41 739.662 C 1015.71 748.724 1014.14 739.124 1005.69 751.678 L 1006.43 753.686 C 979.098 756.739 999.302 782.706 998.544 791.89 L 995.902 792.802 C 997.476 789.456 991.179 783.5 989.356 781.072 C 987.905 779.138 989.322 772.332 989.478 768.977 C 981.837 761.937 976.34 769.783 969.07 763.835 C 963.569 759.335 966.916 749.242 966.22 742.504 C 964.966 730.365 961.547 727.096 953.5 719.51 C 949.875 719.447 946.513 719.647 942.892 719.825 C 938.73 724.019 939.305 725.051 937.898 731.215 z M 978.906 762.541 C 979.92 757.269 980.173 759.747 978.19 754.817 C 974.655 752.094 973.107 752.341 968.499 752.611 C 968.35 757.165 968.238 757.402 970.611 761.086 C 973.439 763.113 975.537 764.032 978.906 762.541 z"/>
<path transform="translate(0,0)" fill="rgb(165,166,170)" fill-opacity="0.0627451" d="M 968.499 752.611 C 973.107 752.341 974.655 752.094 978.19 754.817 C 980.173 759.747 979.92 757.269 978.906 762.541 C 975.537 764.032 973.439 763.113 970.611 761.086 C 968.238 757.402 968.35 757.165 968.499 752.611 z"/>
<path transform="translate(0,0)" fill="rgb(176,185,209)" fill-opacity="0.682353" d="M 942.892 719.825 C 946.644 721.145 950.4 722.362 954.011 724.022 C 958.448 738.921 964.069 775.112 948.308 784.552 C 937.85 785.64 937.892 771.125 937.937 763.669 C 938.831 766.84 938.342 767.255 940.427 768.941 L 942.629 767.667 C 947.968 757.134 944.882 749.475 938.898 740.639 C 938.335 747.62 938.314 755.532 938.143 762.612 L 936.378 758.827 L 935.3 763.047 C 935.133 753.9 935.185 746.153 935.583 737.018 L 936.362 739.246 C 937.671 737.364 937.617 733.843 937.898 731.215 C 939.305 725.051 938.73 724.019 942.892 719.825 z"/>
<path transform="translate(0,0)" fill="rgb(254,254,254)" fill-opacity="0.160784" d="M 998.581 751.076 C 986.444 759.824 971.274 749.667 976.342 738.358 C 980.799 735.022 990.796 737.361 997.115 737.699 C 998.105 738.71 999.106 739.711 1000.12 740.701 C 1000.98 745.056 1000.96 745.022 1000.6 749.462 L 998.581 751.076 z"/>
<path transform="translate(0,0)" fill="rgb(201,220,252)" fill-opacity="0.807843" d="M 938.898 740.639 C 944.882 749.475 947.968 757.134 942.629 767.667 L 940.427 768.941 C 938.342 767.255 938.831 766.84 937.937 763.669 L 938.143 762.612 C 938.314 755.532 938.335 747.62 938.898 740.639 z"/>
<path transform="translate(0,0)" fill="rgb(152,184,253)" fill-opacity="0.152941" d="M 999.815 735.031 C 1005.99 733.722 1012.14 734.944 1018.53 735.679 L 1020.5 737.898 C 1018.86 744.28 1011 738.457 1005.5 747.37 C 1005.1 748.019 1004.72 748.674 1004.35 749.335 C 1001.52 750.805 1001.72 750.832 998.581 751.076 L 1000.6 749.462 L 1001.38 749.464 C 1004.55 745.182 1006.36 743.569 1006.4 738.516 C 1004.33 736.219 1003.8 736.865 999.904 736.2 L 999.312 735.025 L 999.815 735.031 z"/>
<path transform="translate(0,0)" fill="rgb(133,145,190)" fill-opacity="0.278431" d="M 963.378 793.603 C 967.933 786.871 980.449 781.462 979.265 792.746 C 974.17 793.289 968.535 793.389 963.378 793.603 z"/>
<path transform="translate(0,0)" fill="rgb(165,166,170)" fill-opacity="0.2" d="M 999.904 736.2 C 1003.8 736.865 1004.33 736.219 1006.4 738.516 C 1006.36 743.569 1004.55 745.182 1001.38 749.464 L 1000.6 749.462 C 1000.96 745.022 1000.98 745.056 1000.12 740.701 L 999.904 736.2 z"/>
</svg>