<svg version="1.1" xmlns="http://www.w3.org/2000/svg" style="display: block;" viewBox="0 0 2048 2048" width="2000" height="2000" preserveAspectRatio="none">
<path transform="translate(0,0)" fill="rgb(0,0,0)" d="M 1636.73 191.026 C 1638.28 259.215 1636.95 332.205 1636.93 400.766 C 1636.87 404.502 1636.96 409.712 1636.54 413.291 C 1616.08 409.67 1589.91 407.554 1568.73 404.927 C 1544.59 422.142 1533.63 443.734 1513.59 465.408 C 1493.73 486.875 1461.66 506.363 1444.57 527.607 C 1405.14 576.61 1374.39 632.628 1339.95 685.027 C 1327.47 704.143 1304.86 722.86 1290.73 741.263 C 1280.72 754.325 1268.34 785.343 1248.03 785.723 C 1247.96 783.791 1247.76 784.796 1248.98 782.799 C 1262.29 778.14 1265.02 769.683 1272.51 758.107 C 1261.92 754.3 1256.94 750.919 1247.7 744.461 C 1242.96 740.96 1235.76 733.162 1231.18 730.817 C 1218.78 753.636 1205.53 765.866 1237.73 781.605 C 1240.82 783.115 1241.04 782.268 1242.41 785.307 L 1241.51 788.308 C 1200.09 778.097 1210.45 736.379 1208.52 704.999 L 1208.4 703.198 C 1235.85 649.626 1299.05 556.487 1292.85 492.623 C 1290.32 466.56 1244.65 414.207 1222.34 398.357 C 1198 394.577 1163.23 400.016 1138.26 403.361 C 1131.3 415.279 1126.95 420.974 1117.58 431.147 C 1109.87 465.993 1107.18 495.881 1066.02 504.013 L 1065.53 501.679 C 1062.78 501.585 1060.86 501.846 1058.13 502.088 L 1055.95 501.624 C 1053.72 498.79 1054.76 491.06 1054.9 487.135 C 1055.2 479.119 1056.8 469.115 1057.33 460.31 C 1057.93 450.47 1057.8 437.958 1058.78 428.677 C 1045.05 434.142 1030.8 440.047 1016.86 444.791 L 1017.06 481.471 C 1017.16 499.326 1019.76 523.183 1006.2 537.816 C 1001.13 543.296 988.358 543.24 980.986 542.906 C 979.699 542.843 978.414 542.74 977.132 542.599 L 971.037 540.262 L 970.612 539.342 C 959.056 534.318 960.116 528.748 959.505 517.338 C 958.658 513.944 959.669 511.233 960.442 507.75 L 959.636 502.861 C 957.938 502.982 941.168 517.067 938.618 519.325 C 934.44 557.026 934.82 606.227 882.147 607.315 L 881.893 605.404 L 875.75 605.873 C 872.283 605.68 872.416 605.773 869.222 604.489 C 865.802 599.789 868.031 586.671 868.063 578.935 C 867.94 575.958 868.376 574.192 868.806 571.248 C 869.229 566.68 869.627 562.109 870 557.536 C 870.246 548.445 872.107 499.041 874.77 493.613 C 892.347 457.779 917.71 408.754 944.002 379.387 L 940.011 379.836 C 926.446 381.332 902.617 405.09 890.895 414.19 C 868.663 431.449 857.079 462.984 834.915 481.312 C 828.07 486.972 817.582 492.036 808.535 492.235 C 805.825 492.263 806.371 491.965 803.492 492.715 C 799.59 480.611 803.429 464.759 796.449 456.132 C 792.388 451.084 788.741 443.818 784.749 438.032 C 785.892 434.854 787.66 432.75 789.611 429.996 L 794.3 422.509 C 797.425 416.663 801.34 409.76 806.066 405.007 C 838.455 371.849 873.395 339.927 906.15 307.328 C 936.437 277.186 934.31 278.007 974.851 267.793 L 1041.81 250.92 L 1124.74 229.887 C 1145.39 224.671 1164.82 218.509 1186.15 218.035 C 1195.72 217.823 1205.9 216.896 1215.53 216.347 L 1291.35 211.714 L 1562.94 195.415 C 1585.52 194.093 1607.66 192.801 1630.31 193.125 C 1633.33 193.169 1634.57 192.839 1636.73 191.026 z"/>
<path transform="translate(0,0)" fill="rgb(254,250,252)" d="M 1241.19 714.196 C 1259.45 721.207 1271.33 725.717 1283.48 741.365 L 1276.24 752.239 C 1271 750.256 1267.5 749.013 1262.54 746.256 L 1260.99 747.817 C 1250.13 740.934 1243.76 735.667 1234.85 726.564 L 1235.68 724.462 C 1237.58 720.219 1238.74 718.161 1241.19 714.196 z"/>
<path transform="translate(0,0)" fill="rgb(34,34,34)" d="M 1235.68 724.462 C 1245.22 733.996 1251.05 739.129 1262.54 746.256 L 1260.99 747.817 C 1250.13 740.934 1243.76 735.667 1234.85 726.564 L 1235.68 724.462 z"/>
<path transform="translate(0,0)" fill="rgb(254,250,252)" d="M 868.806 571.248 L 882.768 574.319 C 882.888 576.608 883.479 579.788 883.446 581.54 C 883.197 589.831 883.107 597.155 881.893 605.404 L 875.75 605.873 C 872.283 605.68 872.416 605.773 869.222 604.489 C 865.802 599.789 868.031 586.671 868.063 578.935 C 867.94 575.958 868.376 574.192 868.806 571.248 z"/>
<path transform="translate(0,0)" fill="rgb(34,34,34)" d="M 868.806 571.248 L 882.768 574.319 C 882.888 576.608 883.479 579.788 883.446 581.54 C 877.849 581.301 873.504 580.135 868.063 578.935 C 867.94 575.958 868.376 574.192 868.806 571.248 z"/>
<path transform="translate(0,0)" fill="rgb(254,250,252)" d="M 959.505 517.338 C 967.533 520.373 970.366 520.951 979.221 521.805 C 978.988 526.622 979.328 536.076 975.775 539.063 C 974.568 540.079 972.59 539.481 970.612 539.342 C 959.056 534.318 960.116 528.748 959.505 517.338 z"/>
<path transform="translate(0,0)" fill="rgb(254,250,252)" d="M 1232.46 728.049 L 1234.85 726.564 C 1243.76 735.667 1250.13 740.934 1260.99 747.817 C 1265.78 749.98 1268.04 750.792 1272.31 753.983 L 1271.52 754.803 C 1260.68 751.374 1258.75 749.738 1249.32 743.168 L 1247.7 744.461 C 1242.96 740.96 1235.76 733.162 1231.18 730.817 L 1232.46 728.049 z"/>
<path transform="translate(0,0)" fill="rgb(34,34,34)" d="M 1232.46 728.049 C 1238.15 733.416 1243.23 738.266 1249.32 743.168 L 1247.7 744.461 C 1242.96 740.96 1235.76 733.162 1231.18 730.817 L 1232.46 728.049 z"/>
<path transform="translate(0,0)" fill="rgb(34,34,34)" d="M 784.749 438.032 C 785.892 434.854 787.66 432.75 789.611 429.996 C 792.528 435.418 795.868 442.104 799.348 446.998 L 797.669 448.29 C 799.217 451.029 800.705 451.966 798.735 455.001 L 796.449 456.132 C 792.388 451.084 788.741 443.818 784.749 438.032 z"/>
<path transform="translate(0,0)" fill="rgb(254,250,252)" d="M 798.735 455.001 C 794.731 451.33 788.534 440.298 787.54 435.036 C 791.978 438.319 794.692 443.534 797.669 448.29 C 799.217 451.029 800.705 451.966 798.735 455.001 z"/>
<path transform="translate(0,0)" fill="rgb(254,250,252)" d="M 1054.9 487.135 C 1059.05 487.303 1063.24 487.578 1067.38 487.363 C 1066.87 492.217 1066.48 496.888 1065.53 501.679 C 1062.78 501.585 1060.86 501.846 1058.13 502.088 L 1055.95 501.624 C 1053.72 498.79 1054.76 491.06 1054.9 487.135 z"/>
<path transform="translate(0,0)" fill="rgb(254,250,252)" d="M 794.3 422.509 C 798.594 428.266 804.037 440.432 800.388 447.318 L 799.348 446.998 C 795.868 442.104 792.528 435.418 789.611 429.996 L 794.3 422.509 z"/>
<path transform="translate(0,0)" fill="rgb(254,250,252)" d="M 870 557.536 C 877.393 561.496 883.754 564.815 882.768 574.319 L 868.806 571.248 C 869.229 566.68 869.627 562.109 870 557.536 z"/>
<path transform="translate(0,0)" fill="rgb(34,34,34)" d="M 960.442 507.75 L 960.684 507.81 C 963.456 512.703 968.829 512.984 974.085 514.135 L 974.445 515.61 C 978.85 516.678 976.99 515.632 980.185 518.948 L 979.221 521.805 C 970.366 520.951 967.533 520.373 959.505 517.338 C 958.658 513.944 959.669 511.233 960.442 507.75 z"/>
<path transform="translate(0,0)" fill="rgb(254,250,252)" d="M 980.185 518.948 C 974.285 519.345 966.212 518.697 961.735 514.42 C 965.04 513.61 968.85 515.318 973.542 515.569 L 974.445 515.61 C 978.85 516.678 976.99 515.632 980.185 518.948 z"/>
<path transform="translate(0,0)" fill="rgb(254,250,252)" d="M 960.684 507.81 C 965.215 507.52 973.212 510.393 977.121 512.732 L 976.784 513.918 L 974.085 514.135 C 968.829 512.984 963.456 512.703 960.684 507.81 z"/>
<path transform="translate(0,0)" fill="rgb(254,250,252)" d="M 996.182 339.777 L 998.055 340.592 C 996.767 344.841 956.64 372.515 950.132 377.207 L 948.638 377.753 L 947.902 376.508 C 949.655 372.117 989.507 344.583 996.182 339.777 z"/>
<path transform="translate(0,0)" fill="rgb(254,250,252)" d="M 999.364 457.575 C 1000.62 458.588 1000 457.889 1000.85 459.944 C 995.857 471.466 971.376 493.85 961.555 502.034 C 960.618 500.604 961.083 501.499 960.427 499.224 C 976.291 484.599 986.312 474.967 999.364 457.575 z"/>
<path transform="translate(0,0)" fill="rgb(0,0,0)" d="M 1636.73 191.026 L 1637.73 189.184 C 1642.01 186.646 1681.19 187.802 1689.12 187.955 L 2048 187.977 L 2048 507.199 C 2009.89 506.009 1965.84 507.082 1927.36 507.083 L 1688.92 507.097 L 1688.96 474.049 C 1672.07 474.305 1653.7 473.669 1637.01 474.818 C 1636.18 466.219 1636.73 454.992 1636.65 446.165 C 1636.55 435.383 1636.08 423.993 1636.54 413.291 C 1636.96 409.712 1636.87 404.502 1636.93 400.766 C 1636.95 332.205 1638.28 259.215 1636.73 191.026 z"/>
<path transform="translate(0,0)" fill="rgb(254,250,252)" d="M 1636.73 191.026 L 1637.73 189.184 C 1642.01 186.646 1681.19 187.802 1689.12 187.955 L 1689.06 400.747 L 1636.93 400.766 C 1636.95 332.205 1638.28 259.215 1636.73 191.026 z"/>
<path transform="translate(0,0)" fill="rgb(154,153,153)" d="M 1636.93 400.766 L 1689.06 400.747 C 1689.05 423.703 1689.81 451.503 1688.96 474.049 C 1672.07 474.305 1653.7 473.669 1637.01 474.818 C 1636.18 466.219 1636.73 454.992 1636.65 446.165 C 1636.55 435.383 1636.08 423.993 1636.54 413.291 C 1636.96 409.712 1636.87 404.502 1636.93 400.766 z"/>
<path transform="translate(0,0)" fill="rgb(0,0,0)" d="M 1080 1139.34 L 1082.25 1141.13 C 1094.46 1139.46 1122.5 1144.71 1131.54 1153.1 C 1156.08 1175.87 1141.85 1201.74 1125.8 1222.9 C 1114.8 1237.42 1092.3 1240.5 1088.75 1245.31 C 1091.81 1252.09 1131.91 1257.9 1141.25 1260.59 C 1144.57 1269.27 1147.69 1278.02 1150.61 1286.83 C 1159.49 1291.96 1168.86 1296.32 1177.91 1301.21 C 1177.67 1315.58 1171.96 1352.45 1169.85 1368.44 C 1154.72 1362.57 1126.85 1347.92 1111.63 1340.23 C 1095.32 1351.08 1069.4 1367.18 1054.41 1378.5 C 1053.42 1396.13 1048.2 1440.28 1049.25 1454.97 C 1050.08 1466.49 1062.11 1514.85 1065.22 1528.44 L 1077.05 1580.25 C 1079.25 1589.88 1081.7 1602.93 1084.87 1611.96 C 1085.36 1620.87 1087.55 1629.58 1089.8 1638.21 L 1091.16 1638.39 C 1091.88 1640.61 1092.26 1641.47 1092.64 1643.73 C 1074.97 1664.9 1063.36 1672.41 1035.26 1676.68 C 1034.61 1676.01 1033.2 1673.48 1032.64 1672.53 C 1031.09 1666.96 1018.97 1644.57 1015.38 1637.33 L 974.634 1554.07 C 967.582 1588.76 959.934 1621.02 958.991 1656.46 C 958.766 1664.91 957.016 1673.97 958.397 1682.38 C 958.364 1685.35 958.698 1685.36 957.642 1687.89 C 933.361 1695.09 915.696 1692.24 891.529 1687.47 C 889.66 1684.48 890.148 1686.16 890.755 1682.1 C 894.053 1673.83 889.365 1488.59 888.976 1462.71 C 882.969 1458.43 877.009 1454.08 871.095 1449.67 C 882.895 1416.63 898.49 1379.97 911.716 1347.21 C 904.864 1336.82 906.43 1275.18 904.667 1260.3 C 903.894 1253.78 903.539 1230.44 903.943 1223.06 C 895.535 1219.61 877.256 1211.57 869.264 1211.01 C 868.098 1199.33 864.997 1173.99 865.258 1163.14 C 876.955 1162.08 888.724 1162.09 900.419 1163.17 L 906.033 1163.93 C 930.344 1167.02 944.74 1172.19 967.404 1181.87 C 974.974 1179.66 985.361 1176.14 992.745 1174.38 C 994.631 1177.06 995.746 1178.67 999.151 1179.74 C 1004.51 1184.4 1039.12 1213.42 1042.79 1213.87 L 1044.96 1212.11 C 1045.16 1209.08 1044.34 1203.67 1044.73 1201.41 C 1047.6 1186.97 1056.35 1172.13 1062.67 1158.71 C 1065.31 1153.11 1079.59 1149.11 1079.77 1140.18 L 1080 1139.34 z M 914.171 1339.3 C 920.903 1327.97 922.082 1311.38 924.262 1298.17 C 927.872 1276.91 931.26 1255.6 934.425 1234.27 L 908.957 1224.89 C 910.504 1259.01 910.686 1306.45 914.171 1339.3 z"/>
<path transform="translate(0,0)" fill="rgb(254,250,252)" d="M 903.943 1223.06 C 907.158 1223.77 906.378 1223.23 908.957 1224.89 C 910.504 1259.01 910.686 1306.45 914.171 1339.3 C 913.355 1343.19 913.279 1343.59 911.716 1347.21 C 904.864 1336.82 906.43 1275.18 904.667 1260.3 C 903.894 1253.78 903.539 1230.44 903.943 1223.06 z"/>
<path transform="translate(0,0)" fill="rgb(254,250,252)" d="M 1091.16 1638.39 C 1091.88 1640.61 1092.26 1641.47 1092.64 1643.73 C 1074.97 1664.9 1063.36 1672.41 1035.26 1676.68 C 1034.61 1676.01 1033.2 1673.48 1032.64 1672.53 C 1060.61 1666.65 1073.55 1662.43 1089.8 1638.21 L 1091.16 1638.39 z"/>
<path transform="translate(0,0)" fill="rgb(254,250,252)" d="M 890.755 1682.1 C 915.976 1687.77 933.314 1690.3 958.397 1682.38 C 958.364 1685.35 958.698 1685.36 957.642 1687.89 C 933.361 1695.09 915.696 1692.24 891.529 1687.47 C 889.66 1684.48 890.148 1686.16 890.755 1682.1 z"/>
<path transform="translate(0,0)" fill="rgb(0,0,0)" d="M 1092.64 1643.73 C 1097.9 1657.18 1115.99 1686.27 1123.55 1700.53 C 1144.64 1740.3 1167.44 1779.73 1188.59 1819.51 C 1193.66 1821.74 1200.75 1824.52 1205.16 1827.55 C 1204.74 1832.18 1203.81 1849.85 1201.87 1852.36 L 1197.51 1854.79 C 1196.72 1865.11 1201.86 1890.26 1202.74 1902.71 C 1196.95 1915.75 1187.28 1927.73 1173.74 1933.48 C 1167.9 1935.97 1158.44 1933.97 1156.4 1927.4 C 1152.59 1905.66 1154.84 1882.07 1150.39 1860.43 C 1143.48 1847.19 1125.6 1819.21 1116.73 1804.96 C 1092.04 1765.28 1067.62 1725.38 1042.59 1685.92 C 1040.43 1682.51 1038.3 1679.35 1035.26 1676.68 C 1063.36 1672.41 1074.97 1664.9 1092.64 1643.73 z"/>
<path transform="translate(0,0)" fill="rgb(0,0,0)" d="M 891.529 1687.47 C 915.696 1692.24 933.361 1695.09 957.642 1687.89 C 955.623 1700.54 959.144 1732.17 960.485 1745.7 C 964.534 1786.55 964.272 1826.98 965.531 1867.98 C 965.628 1871.16 964.47 1871.5 962.364 1873.41 C 961.344 1879.72 961.783 1893.08 961.812 1899.99 C 954.759 1911.67 953.693 1915.19 940.373 1920.54 C 931.123 1924.78 913.231 1929.83 906.201 1919.19 C 896.937 1905.17 912.289 1885.88 920.593 1876.1 C 915.279 1850.61 897.741 1697.95 891.529 1687.47 z"/>
<path transform="translate(0,0)" fill="rgb(0,0,0)" d="M 1174.04 1371.53 C 1175.39 1367.76 1176.57 1355.29 1177.21 1350.61 C 1179.36 1335.13 1180.36 1318.54 1183.43 1303.25 C 1186 1306.38 1190.23 1308.38 1193.76 1310.59 C 1207.85 1319.39 1222.21 1327.01 1230.77 1341.85 C 1232.54 1382.17 1214.87 1416.3 1204.24 1454.18 C 1200.35 1468.04 1199.14 1491.04 1195.09 1503.16 C 1192.05 1505.21 1193.69 1504.69 1189.96 1504.68 C 1188.44 1503.2 1188.93 1503.99 1188.27 1502.48 C 1188.11 1505.58 1188.59 1507.78 1187.09 1509.85 C 1184.57 1509.94 1183.14 1509.92 1180.62 1509.76 L 1180.47 1510.94 C 1180.29 1512.4 1180.09 1513.51 1179.81 1514.94 C 1177.26 1515.81 1177.38 1515.66 1174.68 1515.16 C 1172.9 1511.4 1172.89 1504.51 1172.72 1500.17 C 1171.46 1504.19 1170.9 1507.36 1168.13 1510.47 L 1166.07 1511.08 C 1160.81 1505.87 1165.34 1487.64 1163.99 1479.01 L 1163.24 1478.42 C 1159.78 1481.64 1159.34 1482.14 1154.74 1483.07 L 1152.66 1482.3 C 1152.18 1472.51 1168.86 1442.66 1170.12 1431.63 C 1172.22 1413.26 1173.68 1389.96 1174.04 1371.53 z"/>
<path transform="translate(0,0)" fill="rgb(254,250,252)" d="M 1231.18 730.817 C 1235.76 733.162 1242.96 740.96 1247.7 744.461 C 1256.94 750.919 1261.92 754.3 1272.51 758.107 C 1265.02 769.683 1262.29 778.14 1248.98 782.799 C 1247.76 784.796 1247.96 783.791 1248.03 785.723 L 1202.65 1150.49 C 1196.58 1199.69 1188.34 1254.31 1183.43 1303.25 C 1180.36 1318.54 1179.36 1335.13 1177.21 1350.61 C 1176.57 1355.29 1175.39 1367.76 1174.04 1371.53 L 1169.85 1368.44 C 1171.96 1352.45 1177.67 1315.58 1177.91 1301.21 L 1241.51 788.308 L 1242.41 785.307 C 1241.04 782.268 1240.82 783.115 1237.73 781.605 C 1205.53 765.866 1218.78 753.636 1231.18 730.817 z"/>
<path transform="translate(0,0)" fill="rgb(0,0,0)" d="M 859.48 1164.31 C 861.445 1172.97 863.708 1201.58 864.161 1211.13 C 845.42 1213.81 826.331 1227.62 811.936 1239.11 C 810.873 1245.18 810.153 1251.3 809.778 1257.45 C 809.374 1264.79 812.784 1276.17 805.613 1278.8 C 796.899 1275.52 802.759 1265.95 797.156 1258.48 L 796.127 1258.71 C 796.095 1260.24 796.047 1261.76 795.982 1263.28 C 795.494 1274.56 794.032 1292.2 785.517 1300.67 C 781.308 1304.6 774.684 1301.72 773.503 1296.46 C 767.657 1270.44 778.873 1229.27 793.737 1207.47 C 806.354 1188.97 837.691 1171.42 859.48 1164.31 z"/>
<path transform="translate(0,0)" fill="rgb(254,250,252)" d="M 784.749 438.032 C 788.741 443.818 792.388 451.084 796.449 456.132 C 803.429 464.759 799.59 480.611 803.492 492.715 C 805.652 527.309 809.901 564.009 813.055 598.818 L 836.042 846.866 L 855.868 1060.11 L 862.338 1129.65 C 863.273 1140.07 863.833 1153.03 865.258 1163.14 C 864.997 1173.99 868.098 1199.33 869.264 1211.01 L 864.161 1211.13 C 863.708 1201.58 861.445 1172.97 859.48 1164.31 L 796.984 489.833 C 788.777 485.35 786.15 483.109 780.495 475.909 C 777.404 471.9 774.472 466.235 771.932 461.738 C 776.316 453.894 780.783 446.095 784.749 438.032 z"/>
<path transform="translate(0,0)" fill="rgb(0,0,0)" d="M 780.495 475.909 C 787.384 470.829 789.073 469.364 794.946 463.347 C 795.809 471.197 797.282 482.243 796.984 489.833 C 788.777 485.35 786.15 483.109 780.495 475.909 z"/>
<path transform="translate(0,0)" fill="rgb(254,250,252)" d="M 1058.13 502.088 C 1060.86 501.846 1062.78 501.585 1065.53 501.679 L 1066.02 504.013 L 1075.42 929.999 L 1078.79 1074.44 C 1079.22 1094.92 1080.43 1119.31 1080 1139.34 L 1079.77 1140.18 C 1078.04 1141.64 1078.79 1141.18 1076.5 1141.76 C 1073.52 1137.88 1073.42 1094.27 1073.15 1085.21 L 1070.08 947.445 L 1062.25 614.037 L 1061 537.42 C 1060.79 526.742 1061.03 513.747 1060.2 503.38 L 1058.13 502.088 z"/>
<path transform="translate(0,0)" fill="rgb(254,250,252)" d="M 971.037 540.262 L 977.132 542.599 C 978.54 619.606 982.407 699.314 985.371 776.347 L 993.85 1025.67 C 995.617 1076.14 998.48 1129.38 999.151 1179.74 C 995.746 1178.67 994.631 1177.06 992.745 1174.38 C 993.961 1160.71 991.53 1125.5 990.925 1109.77 L 986.49 983.658 L 980.316 812.495 C 977.755 721.733 974.662 630.987 971.037 540.262 z"/>
<path transform="translate(0,0)" fill="rgb(254,250,252)" d="M 875.75 605.873 L 881.893 605.404 L 882.147 607.315 C 882.519 648.717 886.057 697.299 887.777 739.124 L 899.75 1019 C 901.852 1067.42 904.817 1115.41 906.033 1163.93 L 900.419 1163.17 C 900.058 1150.86 898.906 1138.1 898.461 1125.67 L 886.015 836.999 L 878.992 677.585 C 877.917 653.989 877.601 629.303 875.75 605.873 z"/>
<path transform="translate(0,0)" fill="rgb(254,250,252)" d="M 1084.87 1611.96 C 1085.55 1592.77 1084.26 1572.03 1083.84 1552.67 L 1081.32 1442.74 C 1080.95 1429.06 1078.38 1373.32 1081.63 1363.94 L 1082.66 1364.28 C 1086.45 1374.81 1086.15 1412.89 1086.56 1426.53 C 1087.83 1472.76 1088.81 1519 1089.5 1565.25 C 1089.9 1587.58 1089.7 1616.29 1091.16 1638.39 L 1089.8 1638.21 C 1087.55 1629.58 1085.36 1620.87 1084.87 1611.96 z"/>
</svg>