<svg version="1.1" xmlns="http://www.w3.org/2000/svg" style="display: block;" viewBox="0 0 2048 2048" width="2000" height="2000" preserveAspectRatio="none">
<path transform="translate(0,0)" fill="rgb(0,0,0)" d="M 359.382 277.006 C 360.226 270.702 367.293 260.158 371.041 254.355 C 395.233 216.822 425.769 183.783 461.284 156.715 C 640.84 19.2937 929.574 31.718 1142.15 58.8231 C 1322.42 81.8099 1508.91 142.722 1651.27 258.416 C 1664.01 268.765 1723.08 318.485 1728.3 331.354 L 1729.14 331.48 C 1739.58 332.962 1755.95 333.509 1766.84 334.194 L 1835.62 338.459 C 1868.63 340.488 1895.16 339.102 1917.07 368.336 C 1923.7 377.02 1928.01 387.241 1929.62 398.045 C 1931.73 412.725 1928.72 443.826 1927.68 459.702 L 1919.18 592.304 C 1918.43 604.06 1915.11 643.683 1915.83 653.367 C 1974.34 817.026 1998.97 1093.24 1971.72 1264.84 C 1959.99 1338.45 1937.91 1410.02 1906.14 1477.45 C 1894.35 1502.38 1873.53 1541.77 1857.67 1564.53 C 1853.35 1626.4 1849.35 1688.28 1845.68 1750.19 C 1844.65 1766.92 1843.53 1783.74 1842.54 1800.64 C 1840.8 1830.51 1841.37 1855 1816.86 1876.06 C 1788.65 1900.28 1752.25 1891.77 1717.4 1889.49 L 1564.76 1879.8 L 1518.02 1876.79 C 1511.22 1876.35 1497.67 1875.17 1491.36 1875.64 C 1480.36 1885.74 1445.24 1898.86 1430.46 1905 C 1296.62 1960.64 1147.78 1983.92 1003.26 1997.28 C 748.022 2020.88 435.747 2008.47 228.597 1839.18 C 115.128 1746.45 52.2577 1611.66 39.6439 1467.44 C 31.3963 1373.14 40.337 1266.28 69.3073 1175.88 C 82.1551 1135.78 100.789 1091.93 119.936 1054.32 C 128.504 1037.49 149.83 992.553 160.545 979.652 C 161.808 976.12 154.982 893.338 154.33 884.721 L 127.689 523.351 L 119.546 414.284 C 118.36 398.205 115.341 367.834 116.367 353.383 C 117.281 339.502 122.589 326.272 131.52 315.607 C 156.78 285.044 195.497 290.034 231.537 286.659 C 273.964 282.686 316.932 281.21 359.382 277.006 z"/>
<path transform="translate(0,0)" fill="rgb(227,218,252)" d="M 359.382 277.006 C 360.226 270.702 367.293 260.158 371.041 254.355 C 395.233 216.822 425.769 183.783 461.284 156.715 C 640.84 19.2937 929.574 31.718 1142.15 58.8231 C 1322.42 81.8099 1508.91 142.722 1651.27 258.416 C 1664.01 268.765 1723.08 318.485 1728.3 331.354 C 1715.65 331.95 1698.67 330.091 1685.73 329.261 L 1610.29 324.394 L 1368.38 309.118 L 1306.8 305.056 C 1294.57 304.253 1274.99 302.368 1263.59 303.864 C 1248.08 305.934 1233.76 313.278 1223.04 324.662 C 1214.56 333.641 1208.69 344.76 1206.06 356.825 C 1202.81 371.111 1201.07 418.614 1199.96 436.46 L 1189.6 599.393 C 1189.2 605.851 1187.4 645.077 1186.26 647.796 C 1185.02 681.022 1182.27 716.975 1180.01 750.297 L 1176.94 799.539 C 1107.37 827.6 1026.95 862.259 965.729 905.227 C 940.786 878.015 910.02 855.452 880.216 833.939 L 856.289 508.649 C 852.87 462.489 848.432 413.494 846.036 367.495 C 842.184 330.579 847.833 289.991 818.69 264.419 C 809.194 256.125 797.609 250.589 785.19 248.413 C 770.901 245.945 746.371 248.816 730.989 249.986 C 707.26 251.892 683.52 253.645 659.769 255.243 C 592.645 261.109 523.63 265.358 456.28 270.342 L 392.501 275.113 C 385.156 275.663 366.179 277.456 359.382 277.006 z"/>
<path transform="translate(0,0)" fill="rgb(254,254,254)" d="M 729.964 179.97 C 732.771 147.484 741.002 123.173 767.207 101.405 C 787.939 84.2838 814.632 76.1163 841.395 78.7047 C 868.542 81.1475 893.549 94.4584 910.736 115.614 C 926.724 135.074 932.979 156.665 933.326 181.482 C 952.134 177.831 968.295 178.822 984.832 190.111 C 998.525 199.363 1007.92 213.73 1010.92 229.982 C 1013.97 246.951 1010.1 262.367 1001.09 276.882 C 1024.17 270.477 1045.73 270.773 1067 282.83 C 1084.87 293.037 1097.99 309.903 1103.47 329.745 C 1104.07 331.871 1104.58 334.02 1105.01 336.187 C 1141.47 319.613 1177.41 327.538 1194.78 365.823 L 1195.37 367.171 C 1164.66 367.859 1133.48 367.961 1102.75 367.672 C 1017.31 366.869 931.433 368.816 846.036 367.495 C 842.184 330.579 847.833 289.991 818.69 264.419 C 809.194 256.125 797.609 250.589 785.19 248.413 C 770.901 245.945 746.371 248.816 730.989 249.986 C 707.26 251.892 683.52 253.645 659.769 255.243 C 656.642 236.853 658.679 220.832 669.862 205.279 C 679.618 191.77 694.395 182.749 710.87 180.244 C 717.834 179.198 723.012 179.445 729.964 179.97 z"/>
<path transform="translate(0,0)" fill="rgb(254,254,254)" d="M 1094.48 661.921 C 1095.66 653.008 1096.75 646.493 1101.37 638.448 C 1107.78 627.301 1118.36 619.16 1130.78 615.815 C 1151.79 610.342 1183.24 622.053 1185.93 645.026 L 1186.26 647.796 C 1185.02 681.022 1182.27 716.975 1180.01 750.297 L 1025.27 750.282 C 1029.39 730.269 1036.19 724.128 1055.63 720.154 C 1056.3 711.565 1058.65 706.619 1062.1 698.974 C 1058.11 675.676 1071.59 661.973 1094.48 661.921 z"/>
<path transform="translate(0,0)" fill="rgb(227,218,252)" d="M 160.545 979.652 C 163.962 988.21 170.06 1096.1 171.202 1111.6 L 207.821 1607.68 L 216.548 1726.47 C 219.578 1767.48 215.123 1813.45 258.49 1834.57 C 282.284 1846.16 312.39 1840.3 338.344 1838.38 L 425.973 1831.88 C 526.375 1824.41 629.524 1815.65 729.884 1809.53 C 734.734 1808.89 739.946 1808.75 744.861 1808.33 C 792.443 1804.2 840.521 1802.28 888.015 1797.5 C 921.92 1790.87 946.476 1764.42 945.806 1729.53 C 945.367 1706.7 942.907 1682.44 941.231 1659.63 L 928.363 1485.96 C 927.654 1476.41 920.677 1397.9 923.142 1394.09 C 928.32 1395.51 938.468 1400.62 943.329 1396.72 C 956.207 1386.39 971.297 1399.9 974.771 1377.04 C 978.448 1374.49 990.63 1376.8 994.621 1364.74 C 995.759 1361.3 993.208 1356.36 991.703 1352.96 C 998.732 1346.1 1006.04 1358.32 1012.88 1339.85 C 1020.38 1340.78 1034.9 1346.66 1044.09 1348.48 C 1075.89 1354.76 1108.73 1360.8 1141.12 1362.39 L 1122.05 1663.51 L 1116.9 1744.07 C 1114.82 1776.75 1108.43 1806.09 1132.13 1832.6 C 1140.97 1842.49 1152.56 1849.52 1165.42 1852.78 C 1179.3 1856.41 1224.51 1858.19 1241.08 1859.2 L 1413.2 1870.11 C 1430.1 1871.2 1476.53 1872.83 1491.36 1875.64 C 1480.36 1885.74 1445.24 1898.86 1430.46 1905 C 1296.62 1960.64 1147.78 1983.92 1003.26 1997.28 C 748.022 2020.88 435.747 2008.47 228.597 1839.18 C 115.128 1746.45 52.2577 1611.66 39.6439 1467.44 C 31.3963 1373.14 40.337 1266.28 69.3073 1175.88 C 82.1551 1135.78 100.789 1091.93 119.936 1054.32 C 128.504 1037.49 149.83 992.553 160.545 979.652 z"/>
<path transform="translate(0,0)" fill="rgb(254,254,254)" d="M 729.884 1809.53 C 734.734 1808.89 739.946 1808.75 744.861 1808.33 C 792.443 1804.2 840.521 1802.28 888.015 1797.5 C 900.291 1802.14 895.91 1822.08 891.991 1831.33 C 915.759 1826.02 932.791 1835.65 940.195 1858.98 C 959.225 1852.77 973.093 1855.05 982.759 1874.21 C 962.719 1875.21 939.981 1874.66 919.639 1874.66 L 810.787 1874.65 L 736.932 1874.69 C 725.306 1874.69 704.82 1875.21 693.723 1874.04 C 698.81 1854.63 704.055 1848.27 724.368 1844 C 726.65 1826.89 730.836 1829.34 729.884 1809.53 z"/>
<path transform="translate(0,0)" fill="rgb(227,218,252)" d="M 1857.67 1564.53 C 1857.81 1545.42 1860.16 1519.73 1861.42 1500.08 L 1868.94 1381.75 L 1891.86 1020.75 L 1907.57 773.85 L 1912.29 697.706 C 1913.06 685.3 1913.8 665.004 1915.83 653.367 C 1974.34 817.026 1998.97 1093.24 1971.72 1264.84 C 1959.99 1338.45 1937.91 1410.02 1906.14 1477.45 C 1894.35 1502.38 1873.53 1541.77 1857.67 1564.53 z"/>
<path transform="translate(0,0)" fill="rgb(254,254,254)" d="M 121.684 391.667 L 586.367 357.382 C 670.694 351.166 756.283 344.011 840.554 338.754 C 843.4 393.089 848.705 451.059 852.73 505.555 L 876.727 831.547 C 834.616 803.248 792.042 777.529 744.725 758.686 C 737.68 755.88 723.963 750.611 716.892 749.795 L 715.124 748.857 C 711.151 747.526 706.656 746.404 702.579 745.282 C 703.625 738.489 704.835 731.723 706.209 724.988 L 706.383 722.404 C 706.774 720.597 708.061 714.203 709.071 713.447 C 716.389 707.968 726.575 710.825 734.319 704.926 C 746.994 695.27 748.328 672.91 750.57 657.997 L 753.948 634.091 C 778.412 622.252 789.204 589.671 760.572 577.072 C 761.958 562.046 763.402 547.219 764.194 532.146 C 790.304 506.474 781.961 472.51 770.784 441.839 C 769.598 439.174 769.806 438.892 767.455 437.334 C 765.089 439.105 766.138 438.044 765.266 441.98 C 766.153 457.955 754.764 470.151 738.744 469.829 C 719.077 469.432 701.669 454.059 683.78 448.273 C 662.982 441.806 645.41 442.765 631.866 462.007 C 633.466 457.072 638.362 446.103 638.678 443.227 C 634.851 444.216 632.691 449.045 630.856 452.359 C 629.941 456.641 628.911 461.106 628.139 465.398 C 616.309 457.604 607.005 456.195 592.907 457.686 L 593.95 460.079 C 602.944 462.12 618.388 460.231 625.739 467.294 L 626.746 469.972 C 624.488 471.432 613.942 468.863 610.032 468.911 C 580.487 469.268 562.698 490.229 557.176 517.034 C 556.921 518.222 556.703 519.417 556.523 520.618 L 555.743 522.95 C 552.72 551.337 554.177 568.274 562.568 595.726 C 557.099 599.05 552.447 601.866 549.752 608.018 L 548.09 610.019 C 540.273 636.496 554.849 651.724 577.618 661.769 L 576.519 670.909 C 573.936 685.925 571.143 700.905 568.14 715.843 L 567.997 718.438 C 565.985 726.338 558.65 725.481 552.897 740.741 C 539.153 744.75 529.07 748.083 515.966 754.324 C 512.447 756 501.444 761.818 499.032 762.723 L 494.135 765.901 C 479.521 775.914 470.973 783.75 457.552 795.313 C 452.072 800.034 443.154 803.892 435.922 809.829 L 433.735 812.282 C 419.968 827.315 412.928 840.151 404.458 858.839 C 378.531 922.302 368.084 989.883 361.573 1057.79 C 361.115 1062.57 360.949 1067.93 360.308 1072.6 C 359.036 1088.38 358.193 1104.2 357.781 1120.04 C 357.785 1123.75 357.732 1127.8 357.21 1131.48 C 357.09 1144.75 357.332 1158.29 356.386 1171.51 C 355.64 1181.92 351.085 1199.25 350.927 1208.81 L 350.062 1210.57 C 348.425 1223.01 336.996 1285.45 333.158 1297.04 L 332.598 1298.62 C 329.059 1318.95 321.441 1340.94 315.961 1360.93 C 314.084 1367.77 313.885 1381.61 312.476 1385.95 L 312.359 1386.66 C 314.694 1389.63 314.331 1394.87 316.003 1399.8 C 319.251 1409.37 320.948 1414 327.177 1422.35 C 322.638 1439.9 320.266 1453.87 317.716 1471.84 L 317.383 1474.07 C 313.962 1501.8 311.729 1528.37 308.874 1556.05 L 309.267 1558.07 C 306.525 1579.86 305.227 1605.68 303.678 1627.79 L 296.663 1730.85 C 271.692 1732.82 245.618 1735.05 220.671 1736.28 L 155.065 846.74 L 133.297 551.72 C 129.394 498.821 124.632 444.434 121.684 391.667 z"/>
<path transform="translate(0,0)" fill="rgb(147,107,253)" d="M 630.856 452.359 C 629.941 456.641 628.911 461.106 628.139 465.398 C 616.309 457.604 607.005 456.195 592.907 457.686 L 593.95 460.079 C 602.944 462.12 618.388 460.231 625.739 467.294 L 626.746 469.972 C 624.488 471.432 613.942 468.863 610.032 468.911 C 580.487 469.268 562.698 490.229 557.176 517.034 C 556.921 518.222 556.703 519.417 556.523 520.618 L 555.743 522.95 C 552.72 551.337 554.177 568.274 562.568 595.726 C 557.099 599.05 552.447 601.866 549.752 608.018 L 548.09 610.019 C 540.273 636.496 554.849 651.724 577.618 661.769 L 576.519 670.909 C 558.613 671.311 535.163 673.8 516.652 675.17 L 407.441 683.172 C 392.18 684.327 353.786 688.261 340.957 686.882 C 332.63 685.995 324.792 682.517 318.549 676.937 C 307.16 666.951 304.354 654.375 303.364 639.951 C 301.073 606.566 298.924 573.163 296.032 539.824 C 294.445 521.529 292.005 503.918 305.031 488.757 C 319.262 472.193 341.373 473.534 361.391 472.112 L 419.536 467.974 C 473.274 464.098 533.667 458.073 586.92 455.836 C 595.529 454.207 620.945 453.059 630.856 452.359 z"/>
<path transform="translate(0,0)" fill="rgb(227,218,252)" d="M 555.743 522.95 C 541.024 523.335 521.383 525.373 506.428 526.483 L 411.193 533.544 C 394.353 534.79 374.089 536.797 357.461 536.673 C 365.275 532.952 534.324 521.881 556.523 520.618 L 555.743 522.95 z"/>
<path transform="translate(0,0)" fill="rgb(227,218,252)" d="M 548.09 610.019 C 519.593 613.711 478.662 614.945 449.012 617.537 C 428.394 619.34 382.078 623.655 363.296 623.225 C 367.431 620.865 376.625 620.236 381.428 620 C 437.339 617.258 493.882 610.257 549.752 608.018 L 548.09 610.019 z"/>
<path transform="translate(0,0)" fill="rgb(254,254,254)" d="M 253.552 1560.1 C 251.968 1528.2 248.891 1494.14 246.527 1462.19 L 233.118 1280.81 L 228.022 1211.64 C 227.057 1198.65 225.479 1185.21 225.442 1172.37 C 225.313 1128.49 265.067 1129.06 297.082 1127.59 C 316.331 1126.71 336.852 1123.21 355.59 1123.54 C 357.536 1126.55 356.915 1127.32 357.21 1131.48 C 357.09 1144.75 357.332 1158.29 356.386 1171.51 C 355.64 1181.92 351.085 1199.25 350.927 1208.81 L 350.062 1210.57 C 348.425 1223.01 336.996 1285.45 333.158 1297.04 L 332.598 1298.62 C 329.059 1318.95 321.441 1340.94 315.961 1360.93 C 314.084 1367.77 313.885 1381.61 312.476 1385.95 L 312.359 1386.66 C 314.694 1389.63 314.331 1394.87 316.003 1399.8 C 319.251 1409.37 320.948 1414 327.177 1422.35 C 322.638 1439.9 320.266 1453.87 317.716 1471.84 L 317.383 1474.07 C 313.962 1501.8 311.729 1528.37 308.874 1556.05 C 293.287 1558.13 269.763 1559.06 253.552 1560.1 z"/>
<path transform="translate(0,0)" fill="rgb(151,136,193)" d="M 350.062 1210.57 C 337.44 1212.21 298.234 1215.67 286.294 1215.44 L 286.038 1214.23 C 290.575 1212.36 341.421 1209.87 350.927 1208.81 L 350.062 1210.57 z"/>
<path transform="translate(0,0)" fill="rgb(151,136,193)" d="M 332.598 1298.62 C 326.134 1299.68 298.138 1302.02 292.867 1300.88 C 305.932 1298.8 319.842 1298.44 333.158 1297.04 L 332.598 1298.62 z"/>
<path transform="translate(0,0)" fill="rgb(151,136,193)" d="M 317.383 1474.07 C 313.277 1474.25 309.747 1474.7 305.769 1473.76 C 309.046 1472.21 313.962 1472.16 317.716 1471.84 L 317.383 1474.07 z"/>
<path transform="translate(0,0)" fill="rgb(151,136,193)" d="M 312.359 1386.66 C 307.144 1387.86 304.897 1388.37 299.687 1387.82 L 299.366 1387.1 C 303.728 1385.45 307.746 1385.91 312.476 1385.95 L 312.359 1386.66 z"/>
<path transform="translate(0,0)" fill="rgb(254,254,254)" d="M 199.299 827.114 C 199.079 812.38 196.707 797.719 196.741 782.879 C 196.785 763.756 211.081 745.452 230.557 743.263 C 252.536 740.793 275.028 739.554 297.16 737.952 L 425.218 728.523 L 518.81 721.665 C 529.726 720.817 558.482 717.834 567.997 718.438 C 565.985 726.338 558.65 725.481 552.897 740.741 C 539.153 744.75 529.07 748.083 515.966 754.324 C 512.447 756 501.444 761.818 499.032 762.723 L 494.135 765.901 C 479.521 775.914 470.973 783.75 457.552 795.313 C 452.072 800.034 443.154 803.892 435.922 809.829 C 412.576 810.807 386.361 813.32 362.894 815.06 L 199.299 827.114 z"/>
<path transform="translate(0,0)" fill="rgb(151,136,193)" d="M 494.135 765.901 C 477.286 765.706 446.767 768.881 429.124 770.185 L 306.847 779.155 C 291.872 780.256 267.561 782.86 253.038 782.625 C 259.243 779.7 308.045 777.175 318.001 776.439 L 433.69 767.876 C 454.387 766.364 478.877 765.266 499.032 762.723 L 494.135 765.901 z"/>
<path transform="translate(0,0)" fill="rgb(147,107,253)" d="M 770.784 441.839 C 824.239 442.414 816.866 489.429 820.593 527.201 C 824.658 568.388 825.464 610.821 829.816 651.884 C 803.671 654.45 776.357 655.306 750.57 657.997 L 753.948 634.091 C 778.412 622.252 789.204 589.671 760.572 577.072 C 761.958 562.046 763.402 547.219 764.194 532.146 C 790.304 506.474 781.961 472.51 770.784 441.839 z"/>
<path transform="translate(0,0)" fill="rgb(147,107,253)" d="M 360.308 1072.6 C 340.421 1063.16 333.695 1051.05 332.338 1029.86 C 330.545 1001.87 327.64 973.56 325.992 945.584 C 325.281 933.512 321.981 909.495 323.597 898.645 C 324.764 890.248 328.329 882.366 333.864 875.945 C 349.354 858.259 381.434 860.103 404.458 858.839 C 378.531 922.302 368.084 989.883 361.573 1057.79 C 361.115 1062.57 360.949 1067.93 360.308 1072.6 z"/>
<path transform="translate(0,0)" fill="rgb(147,107,253)" d="M 683.78 448.273 C 700.14 447.681 717.805 445.809 734.262 444.858 C 741.133 444.461 759.386 443.454 765.266 441.98 C 766.153 457.955 754.764 470.151 738.744 469.829 C 719.077 469.432 701.669 454.059 683.78 448.273 z"/>
<path transform="translate(0,0)" fill="rgb(151,136,193)" d="M 568.14 715.843 L 567.997 718.438 C 558.482 717.834 529.726 720.817 518.81 721.665 L 425.218 728.523 L 297.16 737.952 C 275.028 739.554 252.536 740.793 230.557 743.263 C 211.081 745.452 196.785 763.756 196.741 782.879 C 196.707 797.719 199.079 812.38 199.299 827.114 L 362.894 815.06 C 386.361 813.32 412.576 810.807 435.922 809.829 L 433.735 812.282 C 428.105 811.723 411.733 813.327 405.145 813.835 L 353.7 817.721 L 256.191 824.822 C 238.143 826.124 215.74 827.173 198.104 829.503 C 193.564 787.325 185.568 743.38 242.5 739.982 C 248.448 739.627 254.788 739.088 260.767 738.663 L 318.426 734.535 C 400.47 728.284 486.683 723.572 568.14 715.843 z"/>
<path transform="translate(0,0)" fill="rgb(151,136,193)" d="M 252.054 1562.31 C 244.828 1484.76 240.09 1401.65 234.339 1323.75 L 227.396 1230.26 C 225.783 1209.31 220.315 1174.79 226.439 1154.79 C 236.869 1129.75 255.389 1129.56 276.26 1127.02 C 290.117 1125.34 350.502 1124.05 357.781 1120.04 C 357.785 1123.75 357.732 1127.8 357.21 1131.48 C 356.915 1127.32 357.536 1126.55 355.59 1123.54 C 336.852 1123.21 316.331 1126.71 297.082 1127.59 C 265.067 1129.06 225.313 1128.49 225.442 1172.37 C 225.479 1185.21 227.057 1198.65 228.022 1211.64 L 233.118 1280.81 L 246.527 1462.19 C 248.891 1494.14 251.968 1528.2 253.552 1560.1 C 269.763 1559.06 293.287 1558.13 308.874 1556.05 L 309.267 1558.07 C 295.29 1558.07 267.446 1561.35 252.054 1562.31 z"/>
<path transform="translate(0,0)" fill="rgb(254,254,254)" d="M 706.209 724.988 C 711.301 732.91 714.938 738.954 715.124 748.857 C 711.151 747.526 706.656 746.404 702.579 745.282 C 703.625 738.489 704.835 731.723 706.209 724.988 z"/>
<path transform="translate(0,0)" fill="rgb(151,136,193)" d="M 706.209 724.988 L 706.383 722.404 C 712.54 730.603 717.417 739.041 716.892 749.795 L 715.124 748.857 C 714.938 738.954 711.301 732.91 706.209 724.988 z"/>
<path transform="translate(0,0)" fill="rgb(0,0,0)" d="M 788.112 371.42 C 800.076 370.083 807.169 371.962 809.487 385.703 C 813.015 406.605 774.173 403.313 759.84 404.139 C 748.514 405.562 739.868 405.434 736.852 391.342 C 732.079 369.045 772.511 372.421 788.112 371.42 z"/>
<path transform="translate(0,0)" fill="rgb(147,107,253)" d="M 748.512 377.09 L 750.141 377.099 C 765.029 377.116 824.703 363.429 800.587 396.255 C 797.759 400.105 762.883 400.629 756.116 401.127 C 737.207 403.923 734.937 382.762 748.512 377.09 z"/>
<path transform="translate(0,0)" fill="rgb(254,254,254)" d="M 756.116 401.127 C 737.207 403.923 734.937 382.762 748.512 377.09 C 750.232 377.42 753.079 377.537 753.685 378.707 C 756.409 383.968 755.633 394.779 756.116 401.127 z"/>
<path transform="translate(0,0)" fill="rgb(0,0,0)" d="M 699.922 375.487 C 704.519 378.38 704.591 402.71 704.243 408.616 L 702.453 407.486 C 699.926 403.73 699.387 380.496 699.922 375.487 z"/>
<path transform="translate(0,0)" fill="rgb(0,0,0)" d="M 173.486 441.593 C 178.419 441.043 179.97 440.523 184.602 441.815 L 184 442.961 C 178.942 445.254 174.271 445.003 168.754 445.169 C 165.337 445.543 165.183 445.583 161.561 445.169 L 160.941 444.082 C 165.921 441.499 167.915 441.824 173.486 441.593 z"/>
<path transform="translate(0,0)" fill="rgb(0,0,0)" d="M 173.681 429.591 C 177.807 429.193 180.114 428.673 183.987 429.883 L 183.393 430.867 C 178.032 433.282 173.835 433.019 168.023 433.226 C 164.178 433.768 164.156 433.714 160.264 433.217 L 159.924 432.253 C 165.043 429.613 168.031 429.852 173.681 429.591 z"/>
<path transform="translate(0,0)" fill="rgb(0,0,0)" d="M 176.36 417.416 C 180.049 416.915 179.826 416.887 183.448 417.707 L 183.163 418.651 C 177.457 421.236 173.962 420.981 167.804 421.217 C 163.541 421.73 163.484 421.663 159.181 421.058 L 159.234 420.065 C 165.655 417.559 169.485 417.734 176.36 417.416 z"/>
<path transform="translate(0,0)" fill="rgb(0,0,0)" d="M 686.94 384.61 L 688.885 386.587 C 690.276 393.196 690.881 402.913 690.236 409.615 C 685.34 406.403 685.652 389.768 686.94 384.61 z"/>
<path transform="translate(0,0)" fill="rgb(0,0,0)" d="M 673.265 393.586 L 675.367 395.003 C 676.806 399.748 676.583 405.156 676.71 410.201 C 674.646 409.764 675.647 410.244 673.875 408.452 C 672.408 402.928 672.976 399.273 673.265 393.586 z"/>
<path transform="translate(0,0)" fill="rgb(254,254,254)" d="M 550.746 743.113 C 552.769 745.593 551.132 749.974 550.97 753.547 C 549.08 795.113 577.104 826.805 606.726 852.163 C 615.994 860.098 625.609 868.812 635.784 875.808 C 638.839 865.06 642.772 854.048 646.373 843.43 C 647.148 844.956 649.762 850.139 650.162 851.487 C 655.676 870.052 657.686 896.406 659.219 915.529 C 665.328 991.716 661.592 1072.46 637.335 1145.43 C 630.454 1166.13 620.406 1187.13 611.657 1207.17 C 583.98 1204.45 556.249 1202.33 528.481 1200.81 C 554.29 1119.48 575.439 1022.6 574.459 936.706 C 574.391 930.705 573.573 911.12 571.525 905.978 L 570.097 905.593 C 569.45 908.549 571.02 934.27 571.119 939.651 C 571.5 955.48 570.985 971.319 569.58 987.09 C 563.649 1059.59 546.31 1131.64 525.056 1201.05 C 519.396 1205.87 489.424 1229.1 486.266 1233.86 C 492.986 1233.44 516.209 1212.68 522.785 1207.38 C 519.764 1215.33 506.664 1248.21 506.265 1255.53 L 507.263 1255.9 C 509.83 1253.92 525.195 1210.25 527.572 1203.83 C 572.971 1207.24 614.803 1210.4 660.236 1215.31 C 715.845 1222.01 764.948 1228.8 818.336 1245.17 C 811.829 1273.62 805.144 1319.16 800.279 1348.83 C 786.393 1350.56 771.663 1351.75 757.638 1353.26 C 759.627 1340.47 773.934 1244.2 771.752 1239.22 C 767.588 1247.56 756.414 1338.32 754.572 1353.44 C 672.048 1360.47 488.334 1375.38 413.891 1352.95 C 400.285 1348.85 391.488 1343.12 384.716 1330.2 C 372.485 1306.88 368.311 1277.61 365.175 1251.61 C 352.46 1146.24 362.191 1000.96 393.411 899.353 C 403.382 866.904 421.211 813.348 456.633 801.157 C 465.298 798.174 482.053 800.572 486.475 798.229 L 486.04 796.982 C 479.9 794.729 467.223 795.821 460.492 796.15 C 487.008 768.249 514.436 754.169 550.746 743.113 z"/>
<path transform="translate(0,0)" fill="rgb(147,107,253)" d="M 1633.4 759.045 C 1667.11 765.434 1706.8 784.567 1734.45 804.179 C 1725.58 804.862 1713.48 805.345 1705.49 808.671 L 1705.27 810.408 C 1708.55 811.397 1716.96 809.284 1721.04 808.616 C 1734.31 806.445 1749.04 810.168 1759.53 818.795 C 1804.36 855.663 1824.21 945.538 1832.06 1000.1 C 1865.55 1232.69 1792.2 1447.03 1653.15 1632.57 L 1555.62 1578.39 C 1599.87 1484.08 1647.37 1375.47 1675.02 1275.21 C 1679.73 1258.79 1683.62 1242.15 1686.68 1225.34 C 1693.96 1228.67 1730.81 1247.14 1735.11 1246.21 L 1734.5 1244.46 C 1731.33 1241.87 1700.42 1227.85 1694.89 1225.25 C 1702.17 1224.9 1718.46 1224.99 1724.28 1222.42 L 1724.04 1221.34 C 1718.58 1219.63 1694.96 1221.91 1687.59 1222.24 C 1688.91 1210.69 1689.46 1199.06 1689.23 1187.43 C 1688.44 1142.09 1675.76 1095.53 1665.75 1051.53 C 1664.27 1045.04 1658.97 1018.97 1655.61 1015.73 C 1653.86 1017.07 1654.2 1017.47 1654.78 1020.08 C 1666.85 1078.01 1690.47 1147.87 1685.57 1207.39 C 1681.43 1257.67 1656.77 1324.88 1639.94 1372.18 C 1619.48 1369.18 1597.02 1368.2 1576.46 1365.21 C 1560.85 1362.94 1543.54 1358.52 1528.15 1354.77 C 1527.71 1324.78 1529.32 1278.33 1535.43 1249.23 C 1542.63 1214.93 1560.39 1169.79 1573.45 1136.61 C 1596.63 1078.39 1620.9 1020.6 1646.24 963.277 C 1637.6 955.153 1623.62 944.655 1614.1 937.216 L 1660.78 937.106 C 1665.84 916.51 1669.36 885.64 1669.08 864.376 C 1668.52 822.538 1663.42 789.234 1633.4 759.045 z"/>
<path transform="translate(0,0)" fill="rgb(0,0,0)" d="M 1681.12 1540.62 L 1682.58 1542.44 C 1681.23 1547.63 1641.29 1605.65 1635.82 1613.4 L 1634.41 1612.19 C 1634.3 1607.95 1676.01 1547.8 1681.12 1540.62 z"/>
<path transform="translate(0,0)" fill="rgb(254,254,254)" d="M 1598.11 420.024 C 1705.83 428.856 1817.03 433.324 1925.22 441.052 L 1839.88 1786.89 C 1800.16 1784.08 1756.77 1782.53 1717.64 1778.87 C 1715.3 1765.27 1712.33 1748 1711.56 1734.2 C 1731.19 1738.44 1750.78 1742.84 1770.34 1747.39 L 1777.04 1717.95 C 1785.45 1718.94 1795.65 1719.89 1803.87 1721.28 C 1810.05 1671.68 1814.29 1621.41 1819.94 1571.85 C 1825.13 1526.36 1827.35 1482.69 1840.07 1438.46 C 1840.99 1435.26 1842.97 1427.98 1841.03 1425.43 L 1837.01 1424.22 C 1834.74 1419.49 1838.34 1399.73 1839.23 1393.39 C 1823.82 1391.7 1807.87 1389.77 1792.46 1388.54 C 1808.92 1343.78 1822.43 1298.58 1830.79 1251.49 C 1845.62 1167.89 1847.17 1081.31 1834.99 997.267 C 1831.28 971.655 1825.85 944.801 1818.51 920.092 C 1807.83 884.153 1793.22 846.269 1766 819.663 C 1759.29 813.111 1750.28 810.035 1742.34 805.374 C 1734.27 800.372 1726.46 794.523 1718.43 789.488 C 1690.13 771.748 1658.82 762.004 1626.86 753.485 C 1622.98 752.449 1617.92 749.554 1614.27 747.53 C 1613.45 742.397 1612.92 738.662 1611.5 733.62 C 1609.05 725.492 1606.69 722.296 1601.71 715.789 C 1602.36 704.202 1605.55 681.729 1608 670.468 L 1608.05 668.713 C 1608.23 667.6 1608.83 662.466 1610.1 662.353 C 1640.05 659.668 1670.19 634.19 1644.38 603.867 C 1648.71 598.788 1653.54 591.912 1657.59 586.435 L 1658.34 584.847 C 1670.68 566.428 1675.99 545.402 1676.18 523.471 C 1674.33 490.819 1657 459.705 1618.99 467.27 C 1632.43 457.535 1633.12 456.543 1649.49 457.698 L 1650.01 456.12 C 1643.16 448.071 1625.49 458.4 1618.73 463.182 C 1622.47 440.873 1617.79 431.234 1598.11 420.024 z"/>
<path transform="translate(0,0)" fill="rgb(147,107,253)" d="M 1676.18 523.471 L 1790.29 530.555 C 1802.02 531.3 1815.99 532.765 1828 532.905 C 1853.17 533.198 1875.56 544.774 1877.58 572.733 C 1878.91 591.116 1874.79 611.832 1874.52 630.424 C 1871.81 669.2 1870.08 708.483 1867.12 747.17 L 1866.94 749.37 C 1783.23 746.131 1695.61 738.187 1611.5 733.62 C 1609.05 725.492 1606.69 722.296 1601.71 715.789 C 1602.36 704.202 1605.55 681.729 1608 670.468 L 1608.05 668.713 C 1608.23 667.6 1608.83 662.466 1610.1 662.353 C 1640.05 659.668 1670.19 634.19 1644.38 603.867 C 1648.71 598.788 1653.54 591.912 1657.59 586.435 L 1658.34 584.847 C 1670.68 566.428 1675.99 545.402 1676.18 523.471 z"/>
<path transform="translate(0,0)" fill="rgb(227,218,252)" d="M 1608.05 668.713 C 1627.47 668.286 1671.56 672.118 1692.52 673.724 C 1729.07 676.523 1774.2 677.233 1809.34 681.852 C 1805.4 682.778 1797.43 682.729 1793.41 682.469 C 1751.76 679.773 1709.7 677.226 1668.07 674.43 C 1657.16 673.697 1615.95 672.107 1608 670.468 L 1608.05 668.713 z"/>
<path transform="translate(0,0)" fill="rgb(227,218,252)" d="M 1658.34 584.847 L 1763.23 591.415 C 1771.2 591.932 1812.76 593.38 1815.67 596.464 C 1790.46 597.294 1751.8 591.92 1725.24 591.365 C 1717.35 591.201 1662.97 587.81 1657.59 586.435 L 1658.34 584.847 z"/>
<path transform="translate(0,0)" fill="rgb(0,0,0)" d="M 1825.76 459.156 C 1837.29 459.086 1849.46 460.483 1860.97 460.768 C 1875.55 461.13 1893.04 462.479 1887.94 482.102 C 1886.21 488.756 1885.94 488.675 1880.06 492.687 C 1868.57 493.466 1854.45 491.04 1842.87 491.033 C 1828.06 491.024 1812.42 487.889 1817.51 469.029 C 1819.06 463.283 1820.73 462.311 1825.76 459.156 z"/>
<path transform="translate(0,0)" fill="rgb(147,107,253)" d="M 1833.97 487.074 C 1820.54 486.222 1814.63 476.535 1823.77 465.026 C 1826.33 461.811 1831.59 462.558 1835.51 462.858 C 1849.99 463.546 1903.69 459.732 1880.51 488.112 C 1878.09 491.07 1840.73 486.959 1833.97 487.074 z"/>
<path transform="translate(0,0)" fill="rgb(254,254,254)" d="M 1833.97 487.074 C 1820.54 486.222 1814.63 476.535 1823.77 465.026 C 1826.33 461.811 1831.59 462.558 1835.51 462.858 C 1835.06 470.666 1834.75 479.361 1833.97 487.074 z"/>
<path transform="translate(0,0)" fill="rgb(0,0,0)" d="M 1781.32 454.275 L 1783.03 454.983 C 1785.31 458.677 1782.77 481.656 1782 486.776 L 1780.5 486.067 C 1778.06 482.295 1780.79 460.227 1781.32 454.275 z"/>
<path transform="translate(0,0)" fill="rgb(0,0,0)" d="M 1768.26 460.734 C 1771.16 464.142 1769.62 482.632 1766.64 486.206 L 1765.45 484.009 C 1765.4 477.035 1765.34 466.992 1768.26 460.734 z"/>
<path transform="translate(0,0)" fill="rgb(0,0,0)" d="M 1752.45 468.359 L 1754.74 469.693 C 1755.76 474.76 1754.94 479.575 1754.46 484.774 L 1751.87 483.366 C 1750.92 478.23 1751.85 473.593 1752.45 468.359 z"/>
<path transform="translate(0,0)" fill="rgb(254,254,254)" d="M 1206.07 395.214 C 1236.28 397.876 1268.96 399.331 1299.42 401.265 L 1476.86 412.514 L 1543.43 416.686 C 1565.58 418.026 1610.53 415.43 1616.28 445.605 C 1616.7 447.81 1617.42 453.145 1616.13 454.931 C 1598.19 415.527 1559.56 433.205 1527.67 431.149 C 1511 430.075 1502.06 418.158 1481.65 428.625 C 1474.56 432.245 1469.28 438.627 1467.04 446.268 C 1463.26 458.929 1467.51 469.047 1473.42 479.81 C 1470.68 489.422 1468.26 500.09 1465.85 509.859 C 1462.05 526.653 1454.47 557.141 1452.56 573.079 C 1441.56 612.46 1426.3 675.799 1435.45 715.841 L 1426.89 722.321 C 1419.11 728.774 1414.63 734.707 1408.75 742.808 C 1395.56 747.88 1381.78 754.363 1369.08 760.542 C 1362.44 754.217 1359.14 754.757 1349.92 753.639 C 1354.01 750.308 1356.7 748.809 1356.75 743.161 C 1349.95 726.809 1294.81 737.485 1281.25 742.036 C 1281.45 740.597 1281.61 739.154 1281.73 737.707 C 1282.27 731.321 1278.28 707.656 1268.18 709.916 C 1257.27 712.357 1256.84 734.578 1250.62 744.058 C 1240.15 760.028 1224.85 770.807 1212.85 786.008 C 1203.16 788.979 1190.09 794.355 1180.36 798.064 C 1181.76 781.361 1182.23 764.355 1183.51 747.61 C 1192.48 630.5 1196.62 512.229 1206.07 395.214 z"/>
<path transform="translate(0,0)" fill="rgb(147,107,253)" d="M 1426.89 722.321 C 1403.92 717.446 1375.8 725.5 1358.05 705.451 C 1348.47 694.639 1346.25 683.828 1347.14 669.972 C 1348.89 642.575 1350.36 615.586 1352.29 588.161 C 1353.99 570.893 1353.13 551.918 1357.13 535.075 C 1360.4 521.263 1377.09 507.178 1391.22 506.507 C 1415.77 505.34 1441.15 508.674 1465.85 509.859 C 1462.05 526.653 1454.47 557.141 1452.56 573.079 C 1441.56 612.46 1426.3 675.799 1435.45 715.841 L 1426.89 722.321 z"/>
<path transform="translate(0,0)" fill="rgb(227,218,252)" d="M 1413.01 570.723 C 1419.51 568.883 1446.23 570.072 1452.56 573.079 C 1446.53 574.345 1418.32 572.491 1413.01 570.723 z"/>
<path transform="translate(0,0)" fill="rgb(227,218,252)" d="M 1407.6 656.461 C 1413.4 655.557 1430.18 656.239 1435.51 658.583 C 1428.97 659.847 1413.73 659.305 1407.6 656.461 z"/>
<path transform="translate(0,0)" fill="rgb(0,0,0)" d="M 1238.93 423.329 C 1244.37 422.509 1255.86 423.313 1261.57 424.032 C 1264.7 424.427 1264.09 424.573 1265.58 426.872 C 1258.86 427.202 1250.41 426.897 1243.72 426.074 C 1239.88 425.602 1240.79 425.881 1238.93 423.329 z"/>
<path transform="translate(0,0)" fill="rgb(0,0,0)" d="M 1237.05 447.442 C 1242.68 446.318 1259.79 446.659 1264.21 449.785 C 1259.58 452.084 1241.08 451.133 1237.05 447.442 z"/>
<path transform="translate(0,0)" fill="rgb(0,0,0)" d="M 1237.84 435.436 C 1243.77 434.206 1260.8 434.443 1264.95 438.583 C 1263.53 438.741 1262.1 438.854 1260.67 438.923 C 1254.86 439.231 1242.07 439.177 1237.84 435.436 z"/>
<path transform="translate(0,0)" fill="rgb(254,254,254)" d="M 805.17 1339.43 C 810.652 1338.29 816.596 1337.17 821.995 1335.86 C 829.307 1346.82 834.576 1350.73 845.552 1357.68 C 841.266 1365.04 834.528 1378.66 843.133 1383.74 C 848.834 1387.12 861.438 1383.69 867.648 1381.35 C 871.891 1387.52 873.313 1396.43 885.841 1391.68 C 888.856 1390.54 892.647 1387.37 895.84 1384.98 C 897.585 1400.93 906.08 1399.34 918.701 1396.86 C 923.467 1491.6 934.743 1589.14 939.486 1683.68 C 888.021 1686.75 836.217 1691.58 784.739 1694.93 C 763.894 1696.29 741.853 1698.57 721.1 1699.41 C 716.774 1686.2 712.271 1673.05 707.594 1659.96 C 703.468 1646.76 697.847 1632.61 693.475 1619.1 L 692.433 1617.14 C 690.179 1608.04 681.303 1585.46 677.909 1576.15 L 662.152 1533 L 661.029 1530 C 659.64 1526.39 655.793 1516.57 655.31 1513.17 C 652.812 1495.61 653.117 1466.62 654.87 1449.15 L 654.535 1447.12 C 655.181 1438.12 656.471 1414.56 658.223 1407.1 C 660.945 1395.51 670.714 1374.29 675.735 1362.51 C 701.857 1361 727.949 1359.02 753.998 1356.56 C 756.614 1355.91 759.339 1356.08 762.057 1356.07 C 774.973 1354.66 790.564 1353.66 803.059 1351.77 L 805.17 1339.43 z"/>
<path transform="translate(0,0)" fill="rgb(254,254,254)" d="M 753.998 1356.56 C 756.614 1355.91 759.339 1356.08 762.057 1356.07 L 768.317 1440.78 C 769.243 1453.23 772.107 1480.09 770.481 1490.99 C 769.373 1498.84 766.055 1506.22 760.912 1512.26 C 742.813 1533.23 706.744 1527.02 681.343 1530.35 C 676.379 1531 666.688 1530.96 662.152 1533 L 661.029 1530 C 659.64 1526.39 655.793 1516.57 655.31 1513.17 C 652.812 1495.61 653.117 1466.62 654.87 1449.15 L 654.535 1447.12 C 655.181 1438.12 656.471 1414.56 658.223 1407.1 C 660.945 1395.51 670.714 1374.29 675.735 1362.51 C 701.857 1361 727.949 1359.02 753.998 1356.56 z"/>
<path transform="translate(0,0)" fill="rgb(151,136,193)" d="M 753.998 1356.56 C 756.614 1355.91 759.339 1356.08 762.057 1356.07 L 768.317 1440.78 C 769.243 1453.23 772.107 1480.09 770.481 1490.99 C 769.373 1498.84 766.055 1506.22 760.912 1512.26 C 742.813 1533.23 706.744 1527.02 681.343 1530.35 C 676.379 1531 666.688 1530.96 662.152 1533 L 661.029 1530 C 683.737 1529.72 707.261 1526.37 730.376 1525.06 C 748.454 1524.04 765.784 1510.52 768.677 1491.78 C 769.34 1482.62 768.921 1472.2 767.985 1463.06 C 764.474 1428.79 764.4 1392.13 759.923 1358.16 C 758.346 1356.27 757.393 1356.88 753.998 1356.56 z"/>
<path transform="translate(0,0)" fill="rgb(151,136,193)" d="M 654.535 1447.12 C 670.954 1445.72 687.395 1444.57 703.851 1443.69 L 704.368 1444.22 C 694.933 1447 666.735 1447.81 654.87 1449.15 L 654.535 1447.12 z"/>
<path transform="translate(0,0)" fill="rgb(147,107,253)" d="M 677.909 1576.15 L 801.086 1567.05 C 814.787 1566.04 830.354 1565.25 843.882 1563.93 C 903.897 1558.09 900.212 1602.21 903.016 1645.5 L 775.325 1654.82 C 754.264 1656.38 728.043 1657.61 707.594 1659.96 C 703.468 1646.76 697.847 1632.61 693.475 1619.1 L 692.433 1617.14 C 690.179 1608.04 681.303 1585.46 677.909 1576.15 z"/>
<path transform="translate(0,0)" fill="rgb(227,218,252)" d="M 692.433 1617.14 C 721.528 1613.48 755.315 1612.82 784.982 1610.06 C 796.011 1609.04 828.7 1606.16 837.222 1607.12 C 832.652 1609.93 708.013 1618.1 693.475 1619.1 L 692.433 1617.14 z"/>
<path transform="translate(0,0)" fill="rgb(254,254,254)" d="M 710.866 751.826 C 711.385 751.839 711.904 751.853 712.423 751.866 C 789.276 771.755 915.367 853.34 963.447 907.779 C 960.934 913.351 943.683 949.535 943.849 953.515 C 949.939 949.512 960.208 922.897 964.659 913.905 C 964.985 923.732 968.036 969.01 971.904 976.513 C 973.726 971.133 968.055 917.52 967.111 908.416 C 1030.53 862.726 1133.54 819.404 1207.97 791.045 C 1221.27 821.795 1236.48 853.332 1250.22 884.169 L 1219.66 907.059 C 1219.39 907.259 1217.85 907.613 1217.46 907.718 C 1213.69 903.732 1210.48 895.892 1207.86 891.627 C 1200.99 880.409 1177.48 831.256 1169.51 824.546 C 1169.73 830.171 1208.82 900.233 1214.5 910.684 C 1154.76 954.553 1033.07 1040.95 957.429 1051.02 C 915.161 1056.65 806.576 1021.8 766.174 1003.47 C 771.681 944.926 776.46 874.921 761.539 817.23 C 752.571 782.553 740.762 768.858 710.866 751.826 z"/>
<path transform="translate(0,0)" fill="rgb(147,107,253)" d="M 931.461 1687.42 C 934.2 1686.98 934.781 1687.07 937.591 1687.18 C 942.971 1692.01 940.197 1701.91 941.402 1708.47 C 949.936 1754.94 923.334 1794.66 874.306 1795.49 C 868.569 1795.59 859.61 1796.6 853.31 1797.06 L 788.268 1801.84 L 579.718 1817.23 L 381.259 1831.81 L 324.238 1836.07 C 294.032 1838.4 274.843 1843.16 248.91 1824.65 C 220.44 1801.15 223.457 1773.43 220.829 1739.71 L 931.461 1687.42 z"/>
<path transform="translate(0,0)" fill="rgb(147,107,253)" d="M 1120.1 1744.45 C 1214.23 1749.3 1310.23 1756.58 1404.47 1762.5 L 1839.69 1790.16 C 1837.63 1823.28 1840.64 1843.91 1818.92 1869.52 L 1818.22 1870.18 C 1801.83 1885.27 1786.15 1890.32 1764.06 1889 C 1720.22 1886.36 1676.31 1883.44 1632.49 1880.67 L 1362.45 1863.53 L 1234.37 1855.44 C 1213.46 1854.14 1189.04 1853.35 1168.4 1850.29 C 1156.44 1848.52 1142.58 1839.02 1134.42 1830.04 C 1111.7 1805.04 1118.56 1775.54 1120.1 1744.45 z"/>
<path transform="translate(0,0)" fill="rgb(254,254,254)" d="M 1381.75 1347.82 L 1638.72 1375.25 C 1620.73 1423.21 1601.22 1470.58 1580.22 1517.3 C 1570.9 1538.32 1558.39 1562.17 1550.14 1582.93 C 1546.32 1585.88 1542.57 1588.89 1539.32 1592.47 C 1518.54 1615.34 1488.88 1628.16 1460.22 1639.24 L 1457.99 1640.27 C 1454.93 1644.81 1460.9 1650.43 1464.58 1652.61 C 1485.97 1665.22 1507.72 1645.82 1527.81 1640.45 C 1530.5 1639.73 1531.64 1640.44 1533.49 1642 C 1535.28 1650.07 1517.99 1676.46 1513.12 1686.64 L 1347.7 1668.94 C 1349.63 1636.94 1355.56 1593.34 1359.03 1560.76 L 1381.75 1347.82 z"/>
<path transform="translate(0,0)" fill="rgb(147,107,253)" d="M 757.33 251.408 C 779.741 249.879 797.423 250.409 815.566 266.019 C 838.078 285.388 838.266 308.241 840.283 335.373 L 197.139 382.883 C 172.615 383.936 146.104 386.74 121.181 388.232 C 120.964 384.513 120.702 380.796 120.398 377.083 C 118.636 354.12 119.072 334.884 135.296 316.293 C 144.459 305.952 156.626 298.736 170.093 295.654 C 181.978 293.022 217.815 291.217 231.039 290.254 L 347.575 281.71 L 757.33 251.408 z"/>
<path transform="translate(0,0)" fill="rgb(0,0,0)" d="M 593.569 297.435 C 599.345 296.782 601.458 298.143 604.256 302.853 C 605.651 310.934 599.995 312.353 593.468 313.004 C 566.19 315.725 538.341 317.411 511.02 319.417 L 344.247 331.762 C 337.014 332.132 331.088 329.466 333.646 321.112 C 341.142 313.607 362.725 314.288 373.71 313.59 C 389.136 312.611 404.554 311.5 419.962 310.257 L 593.569 297.435 z"/>
<path transform="translate(0,0)" fill="rgb(147,107,253)" d="M 582.774 301.59 C 589.17 300.903 597.423 298.819 601.137 305.518 L 599.971 307.276 C 596.781 308.965 594.042 309.898 590.387 310.203 C 511.13 316.812 431.467 321.039 352.24 327.852 C 347.652 328.158 343.264 328.772 338.797 327.888 C 336.067 325.607 336.879 326.979 335.946 323.852 C 338.928 319.515 347.196 318.854 352.084 318.504 C 375.5 316.827 398.942 315.178 422.353 313.46 L 582.774 301.59 z"/>
<path transform="translate(0,0)" fill="rgb(147,107,253)" d="M 1262.84 307.257 C 1270.26 306.361 1276.99 306.561 1284.45 306.977 L 1698.57 333.335 L 1817.04 340.831 C 1849.79 342.862 1887.8 339.364 1911 366.073 C 1930.22 388.204 1927.28 410.531 1925.63 437.534 C 1908.16 436.623 1890.7 435.57 1873.24 434.375 L 1206.19 391.949 C 1207.24 371.872 1206.97 352.911 1218.55 335.691 C 1229.83 318.936 1243.61 311.269 1262.84 307.257 z"/>
<path transform="translate(0,0)" fill="rgb(0,0,0)" d="M 1446.06 351.951 C 1457.82 350.539 1704.2 366.821 1710.8 369.333 C 1715.91 374.763 1714.2 377.759 1710.08 383.087 C 1704.03 383.759 1687.26 382.371 1680.59 381.944 L 1625.97 378.436 C 1569.09 374.822 1512.07 371.262 1455.19 367.677 C 1452.16 367.248 1447.99 367.484 1445.55 365.531 C 1439.92 361.031 1442.2 356.718 1446.06 351.951 z"/>
<path transform="translate(0,0)" fill="rgb(147,107,253)" d="M 1447.45 354.838 C 1460.77 354.913 1478.93 356.604 1492.76 357.478 L 1576.39 362.802 L 1662.21 368.264 C 1676.36 369.165 1690.69 370.011 1704.83 371.083 C 1708.43 371.356 1707.59 371.217 1709.99 373.249 C 1710.52 377.268 1710.44 375.894 1708.72 380.062 C 1694.61 380.019 1674.65 378.243 1660.29 377.341 L 1568.9 371.513 L 1489.34 366.439 C 1481.21 365.918 1450.24 365.171 1446.11 361.68 C 1445.49 357.527 1445.46 359.105 1447.45 354.838 z"/>
<path transform="translate(0,0)" fill="rgb(254,254,254)" d="M 1184.92 1364.59 C 1191.38 1362.51 1210.19 1362.31 1218.07 1361.37 C 1244.09 1358.25 1264.98 1352.26 1288.38 1340.96 C 1288.07 1363.33 1286.46 1384.19 1285.84 1406.12 C 1285.79 1407.49 1285.76 1411.69 1285.42 1412.74 L 1280.81 1488.58 C 1280.74 1491.7 1280.88 1493.03 1280.22 1496.09 C 1279.15 1517.02 1277.76 1557.56 1275.03 1576.96 L 1275.39 1579.06 C 1272.67 1604.45 1271.7 1636.42 1270.28 1662.4 C 1274.49 1670.93 1277.43 1675.79 1283.08 1683.34 L 1282.91 1751.27 C 1228.8 1748.12 1174.71 1744.68 1120.63 1740.94 C 1121.97 1706.53 1125.2 1670.54 1127.11 1636.01 C 1132.15 1545.11 1139.6 1453.7 1144.35 1362.82 C 1152.3 1363.22 1178.59 1363.15 1183.85 1364.57 L 1184.92 1364.59 z"/>
<path transform="translate(0,0)" fill="rgb(254,254,254)" d="M 1184.92 1364.59 C 1191.38 1362.51 1210.19 1362.31 1218.07 1361.37 C 1244.09 1358.25 1264.98 1352.26 1288.38 1340.96 C 1288.07 1363.33 1286.46 1384.19 1285.84 1406.12 C 1285.79 1407.49 1285.76 1411.69 1285.42 1412.74 L 1280.81 1488.58 C 1280.74 1491.7 1280.88 1493.03 1280.22 1496.09 C 1279.15 1517.02 1277.76 1557.56 1275.03 1576.96 C 1243.34 1576.73 1204.64 1571.99 1171.87 1570.83 C 1173.46 1560.38 1173.97 1544.32 1174.66 1533.3 L 1178.77 1467.8 L 1183.04 1402.29 C 1183.79 1391.01 1185.26 1375.64 1184.92 1364.59 z"/>
<path transform="translate(0,0)" fill="rgb(151,136,193)" d="M 1280.22 1496.09 C 1273.39 1495.03 1238.57 1494.26 1236.2 1491.75 C 1242.68 1491.65 1276.27 1494.17 1279.3 1493.21 L 1280.81 1488.58 C 1280.74 1491.7 1280.88 1493.03 1280.22 1496.09 z"/>
<path transform="translate(0,0)" fill="rgb(151,136,193)" d="M 1285.42 1412.74 C 1285.19 1411.72 1284.44 1409.4 1283.88 1409.33 C 1273.57 1407.92 1248.63 1408.22 1239.85 1405.77 C 1242.85 1402.47 1279.67 1409.82 1285.84 1406.12 C 1285.79 1407.49 1285.76 1411.69 1285.42 1412.74 z"/>
<path transform="translate(0,0)" fill="rgb(151,136,193)" d="M 1183.85 1364.57 L 1184.92 1364.59 C 1185.26 1375.64 1183.79 1391.01 1183.04 1402.29 L 1178.77 1467.8 L 1174.66 1533.3 C 1173.97 1544.32 1173.46 1560.38 1171.87 1570.83 C 1204.64 1571.99 1243.34 1576.73 1275.03 1576.96 L 1275.39 1579.06 C 1244.69 1578.68 1201.84 1574.43 1170.24 1572.47 C 1171.8 1556.45 1172.51 1537.35 1173.53 1521.13 L 1180.15 1417.73 C 1180.92 1406.48 1181.92 1373.67 1183.85 1364.57 z"/>
<path transform="translate(0,0)" fill="rgb(227,218,252)" d="M 1166.1 949.051 C 1169.03 952.463 1152.83 1178.71 1151.03 1205.83 C 1097.5 1210.57 1045.01 1219.46 992.062 1228.22 C 976.3 1230.83 972.314 1231.28 961.204 1243.4 L 948.463 1245.81 C 950.827 1239.68 953.803 1230.53 947.355 1225.96 C 936.718 1223.32 926.398 1233.8 914.037 1238.83 L 912.283 1239.54 C 910.918 1239.84 911.627 1239.91 910.207 1239.03 C 904.639 1175.76 901.377 1111.52 895.925 1048.04 C 897.299 1048.34 898.676 1048.62 900.056 1048.88 C 948.062 1058.21 972.535 1057.07 1017.53 1036.54 C 1070.6 1012.32 1117.84 981.509 1166.1 949.051 z"/>
<path transform="translate(0,0)" fill="rgb(254,254,254)" d="M 1517.87 780.622 C 1532.73 789.243 1550.81 851.612 1555.56 870.348 C 1580.25 858.484 1592.82 841.831 1605.27 818.383 C 1586.72 974.553 1543.19 1130.77 1527.41 1286.82 C 1524.91 1309.27 1524.13 1331.87 1525.07 1354.43 C 1510.91 1350.62 1493.1 1347.15 1478.54 1343.89 C 1450.33 1195.93 1452.62 972.17 1476.99 822.722 L 1517.87 780.622 z"/>
<path transform="translate(0,0)" fill="rgb(147,107,253)" d="M 1298.73 813.074 L 1299.34 813.409 C 1289.28 834.445 1284.06 850.09 1280.71 873.576 C 1270.64 944.106 1273.95 1020.31 1277.61 1091.53 C 1281.85 1174.35 1287.73 1254.05 1288.41 1336.96 C 1218.78 1372.64 1108.74 1362.03 1035 1342.47 C 1046.38 1315.76 1051.58 1293.42 1044.29 1264.86 C 1036.1 1244.52 1029.66 1237.75 1009.39 1229.04 C 1078.56 1216.62 1149.21 1206.97 1219.52 1204.7 C 1220.98 1210.51 1227.72 1243.48 1229.95 1245.92 C 1232.77 1240.97 1225.64 1216.11 1224.02 1208.52 C 1228.29 1212.86 1240.99 1227.08 1245.49 1228.09 L 1245.78 1226.69 C 1239.24 1218.73 1230.21 1209.9 1222.91 1202.39 C 1224.62 1182.9 1224.72 1158.15 1225.47 1138.15 C 1226.6 1105.06 1228.63 1072 1231.56 1039.01 C 1236.86 979.16 1250.28 853.631 1298.73 813.074 z"/>
<path transform="translate(0,0)" fill="rgb(147,107,253)" d="M 1444.79 804.663 C 1456.37 806.612 1464.98 814.106 1473.91 821.259 C 1447.06 979.853 1448.42 1184.69 1474.71 1342.82 C 1463.09 1340.6 1395.89 1323.74 1391.45 1325.65 L 1389.93 1330.21 C 1388.44 1337.82 1389.23 1343.47 1380.88 1344.5 C 1377.03 1347.95 1375.71 1371.89 1375 1378.71 C 1357.69 1203.16 1357.44 962.005 1444.79 804.663 z"/>
<path transform="translate(0,0)" fill="rgb(254,254,254)" d="M 1791.25 1391.59 C 1805.41 1392.73 1821.24 1394.55 1835.36 1396.32 L 1801.05 1717.34 L 1687.24 1705.3 C 1668.04 1703.39 1648.86 1701.25 1629.71 1698.88 C 1636.39 1686.24 1643.92 1670.09 1646.87 1655.99 C 1648.24 1649.43 1647.94 1642.72 1649.76 1635.56 C 1651.66 1635.68 1652.55 1635.67 1654.45 1635.56 C 1661.21 1628.62 1676.57 1606.62 1682.39 1598.22 C 1726.79 1533.93 1763.34 1464.56 1791.25 1391.59 z"/>
<path transform="translate(0,0)" fill="rgb(254,254,254)" d="M 760.75 1046.79 C 760.984 1041.18 764.526 1012.73 766.04 1008.33 C 770.49 1008.52 806.926 1022.97 813.742 1025.32 C 828.543 1030.26 843.442 1034.9 858.431 1039.24 C 869.559 1041.94 881.715 1045.13 892.825 1047.52 C 896.867 1111.25 901.687 1178.29 907.148 1241.88 C 889.985 1249.07 878.598 1254.62 863.471 1265.74 C 848.921 1260.52 835.352 1256.46 820.507 1252.07 C 820.914 1248.46 821.847 1246.07 820.585 1243.3 C 809.671 1237.41 764.88 1227.03 752.116 1225.77 L 750.206 1225.09 L 724.05 1220.45 C 731.231 1194.76 737.671 1168.88 743.362 1142.82 C 744.272 1139.23 744.872 1135.36 745.52 1131.7 C 752.323 1105.13 755.873 1073.98 760.75 1046.79 z"/>
<path transform="translate(0,0)" fill="rgb(147,107,253)" d="M 760.75 1046.79 C 760.984 1041.18 764.526 1012.73 766.04 1008.33 C 770.49 1008.52 806.926 1022.97 813.742 1025.32 C 828.543 1030.26 843.442 1034.9 858.431 1039.24 C 826.658 1043.05 791.96 1043.19 760.75 1046.79 z"/>
<path transform="translate(0,0)" fill="rgb(254,254,254)" d="M 743.362 1142.82 C 745.668 1146.87 749.959 1215.89 750.206 1225.09 L 724.05 1220.45 C 731.231 1194.76 737.671 1168.88 743.362 1142.82 z"/>
<path transform="translate(0,0)" fill="rgb(151,136,193)" d="M 743.362 1142.82 C 744.272 1139.23 744.872 1135.36 745.52 1131.7 C 746.735 1152.79 748.775 1174 750.138 1195.07 C 750.737 1204.34 752.156 1216.71 752.116 1225.77 L 750.206 1225.09 C 749.959 1215.89 745.668 1146.87 743.362 1142.82 z"/>
<path transform="translate(0,0)" fill="rgb(254,254,254)" d="M 1440.83 770.041 C 1441.99 772.186 1438.85 806.908 1437.21 810.222 C 1366.29 953.021 1357.42 1126.55 1364.56 1283.25 C 1365.58 1304.81 1367.02 1326.35 1368.89 1347.85 C 1370.49 1366.19 1374.4 1391.11 1371.78 1408.66 C 1350.38 1404.21 1329.59 1398.09 1312.81 1383.56 C 1312.49 1225.84 1316.43 919.311 1391.23 783.62 C 1388.02 798.593 1387.03 807.791 1385.97 822.828 C 1404.84 800.458 1416.25 786.827 1440.83 770.041 z"/>
<path transform="translate(0,0)" fill="rgb(254,254,254)" d="M 356.422 1185.63 C 358.043 1190.73 359.007 1217.23 359.29 1223.78 C 360.545 1252.87 370.059 1326.73 391.615 1345.26 C 420.18 1369.83 527.719 1367.94 564.784 1367.27 C 558.095 1399.89 552.454 1432.72 547.869 1465.7 C 539.66 1465.93 531.453 1466.23 523.249 1466.59 C 466.541 1468.45 360.633 1467.06 324.156 1414.54 C 307.198 1390.12 318.469 1359.08 325.772 1333.1 C 329.734 1319.17 333.302 1305.13 336.473 1291 C 344.341 1255.81 348.879 1218.76 356.422 1185.63 z"/>
<path transform="translate(0,0)" fill="rgb(254,254,254)" d="M 715.177 597.797 L 716.189 596.529 C 719.371 592.577 722.469 588.471 727.87 587.909 L 729.256 589.254 C 730.003 593.865 727.525 601.679 727.063 606.643 C 725.343 625.145 732.867 633.356 750.632 634.544 C 745.692 664.563 749.169 711.939 707.683 707.75 C 682.631 705.22 657.505 698.923 639.376 680.108 C 633.799 674.321 631.285 667.077 626.92 662.227 L 625.288 662.786 C 624.645 674.444 647.425 691.676 656.194 697.158 C 672.619 705.714 687.736 709.029 705.941 710.728 C 702.006 725.934 699.545 741.483 698.593 757.161 C 677.496 789.209 654.568 790.423 619.008 782.418 C 593.167 776.601 561.81 747.564 570.56 718.742 C 575.789 701.52 576.275 680.497 581.035 664.456 C 583.726 663.051 585.012 663.985 588.779 664.562 L 589.806 663.559 C 587.983 661.22 571.157 655.726 566.102 652.242 C 552.346 642.761 542.154 622.448 553.927 607.242 C 570.686 585.594 589.318 602.101 604.435 615.344 L 606.946 615.065 L 607.639 617.788 L 609.195 617.911 C 612.547 614.189 615.216 607.821 617.505 603.152 C 632.683 603.857 649.062 603.84 664.337 604.091 C 662.425 649.362 713.782 641.13 715.177 597.797 z"/>
<path transform="translate(0,0)" fill="rgb(0,0,0)" d="M 720.813 597.453 C 721.359 597.874 722.786 599.331 722.783 599.993 C 722.723 611.999 723.024 622.699 728.954 633.486 L 729.572 634.586 L 728.32 637.222 C 719.299 629.04 717.832 608.794 720.813 597.453 z"/>
<path transform="translate(0,0)" fill="rgb(0,0,0)" d="M 686.018 639.869 C 689.264 641.852 691.809 649.553 694.916 653.268 C 700.854 660.37 705.698 657.436 713.289 658.518 L 714.215 660.421 C 700.007 665.545 683.121 652.051 686.018 639.869 z"/>
<path transform="translate(0,0)" fill="rgb(0,0,0)" d="M 571.172 608.833 C 579.031 609.93 590.364 617.607 588.577 625.901 C 585.708 624.778 585.66 623.326 583.594 620.054 C 580.085 616.02 577.629 612.313 571.98 612.984 C 567.798 616.424 567.382 617.434 562.409 617.181 L 562.178 616.057 C 565.753 611.959 566.43 611.542 571.172 608.833 z"/>
<path transform="translate(0,0)" fill="rgb(147,107,253)" d="M 1375.87 761.201 L 1376.4 761.512 C 1369.21 769.173 1364.6 772.233 1357.21 781.455 C 1332.85 811.846 1319.24 845.143 1307.28 881.415 C 1316.57 887.833 1325.3 893.902 1334.32 900.74 C 1322.98 904.636 1312.07 908.954 1300.91 913.312 C 1301.08 938.17 1302.52 965.033 1303.39 989.988 L 1309.31 1158.94 C 1309.99 1178.84 1311.27 1199.65 1311.69 1219.34 C 1312.06 1236.34 1310.68 1257.33 1310.32 1274.67 C 1309.69 1310.11 1309.4 1345.56 1309.45 1381 C 1309.99 1487.53 1313.6 1594.02 1320.27 1700.35 L 1309.87 1698.49 C 1291.76 1690.59 1272.98 1673.73 1274.12 1652.46 C 1279.19 1571.27 1283.4 1489.84 1288.87 1408.69 C 1299.54 1250.58 1272.71 1093.27 1278.33 935.161 C 1279.54 900.964 1283.17 866.352 1293.87 833.692 C 1305.85 797.088 1342.92 776.542 1375.87 761.201 z"/>
<path transform="translate(0,0)" fill="rgb(147,107,253)" d="M 677.457 849.174 C 679.917 848.97 686.574 848.024 687.585 851.001 C 714.37 929.831 734.404 1013.75 726.714 1097.51 C 722.83 1139.81 712.861 1177.29 701.009 1217.37 C 689.374 1215.48 677.474 1214.16 665.762 1212.73 C 649.916 1210.46 630.994 1208.91 614.927 1207.41 C 624.405 1186.47 634.467 1165.49 641.452 1143.61 C 671.335 1049.99 669.013 951.85 655.517 855.917 C 663.584 852.713 669.038 850.941 677.457 849.174 z"/>
<path transform="translate(0,0)" fill="rgb(147,107,253)" d="M 645.208 1364.42 L 660.403 1363.74 C 650.044 1417.36 647.578 1506.58 654.219 1560.56 C 637.663 1576.78 619.58 1593.25 602.671 1609.32 C 597.076 1602.75 591.549 1595.99 586.026 1589.35 C 572.188 1572.14 557.667 1554.86 543.594 1537.8 C 546.742 1484.05 557.662 1420.05 568.075 1367.21 C 593.803 1366.83 619.52 1365.9 645.208 1364.42 z"/>
<path transform="translate(0,0)" fill="rgb(254,254,254)" d="M 1171.09 945.738 C 1199.33 926.043 1227.19 905.806 1254.66 885.037 C 1232.25 953.18 1224.15 1073.42 1221.91 1146.6 C 1221.92 1152.71 1222.02 1157.04 1221.12 1163.1 C 1220.96 1175.79 1220.55 1188.49 1219.9 1201.17 C 1211.9 1201.6 1203.91 1201.95 1195.91 1202.2 C 1194.3 1202.48 1191.83 1202.98 1190.29 1203.11 C 1183.46 1202.78 1162.21 1204.74 1154.56 1205.29 C 1159.14 1119.85 1164.99 1031 1171.09 945.738 z"/>
<path transform="translate(0,0)" fill="rgb(254,254,254)" d="M 1190.29 1203.11 C 1200.18 1199.01 1184.16 1166.48 1221.91 1146.6 C 1221.92 1152.71 1222.02 1157.04 1221.12 1163.1 C 1220.96 1175.79 1220.55 1188.49 1219.9 1201.17 C 1211.9 1201.6 1203.91 1201.95 1195.91 1202.2 C 1194.3 1202.48 1191.83 1202.98 1190.29 1203.11 z"/>
<path transform="translate(0,0)" fill="rgb(151,136,193)" d="M 1190.29 1203.11 C 1200.18 1199.01 1184.16 1166.48 1221.91 1146.6 C 1221.92 1152.71 1222.02 1157.04 1221.12 1163.1 C 1220.97 1158.02 1220.86 1153.86 1221.12 1148.75 C 1197.41 1162.57 1196.4 1176.83 1195.91 1202.2 C 1194.3 1202.48 1191.83 1202.98 1190.29 1203.11 z"/>
<path transform="translate(0,0)" fill="rgb(147,107,253)" d="M 1614.95 754.669 C 1641.34 758.588 1656.28 794.473 1661.16 817.366 C 1669.43 856.16 1665.38 895.326 1658.35 933.838 C 1639.51 933.948 1620.42 934.261 1601.61 933.472 C 1615.98 942.289 1629.19 953.268 1642.33 963.828 C 1614.71 1026.22 1588.46 1089.22 1563.59 1152.76 C 1555.69 1173.2 1547.55 1199.03 1539.41 1218.29 L 1583.58 974.377 C 1593.59 920.759 1602.86 869.234 1608.9 815.001 C 1611.7 789.839 1615.11 782.206 1614.95 754.669 z"/>
<path transform="translate(0,0)" fill="rgb(254,254,254)" d="M 702.16 750 C 714.168 755.326 725.745 761.554 735.237 770.806 C 763.764 798.61 768.53 857.061 769.253 895.382 C 771.071 901.742 771.438 920.365 769.275 926.623 C 768.988 1017.71 745.996 1133.04 722.262 1220.42 L 704.198 1217.59 C 748.415 1083.11 735.275 988.953 693.112 856.304 C 697.028 843.455 700.064 828.911 702.677 815.745 C 710.904 828.784 716.778 841.286 724 854.838 C 725.56 823.142 720.73 788.623 701.79 762.381 L 702.16 750 z"/>
<path transform="translate(0,0)" fill="rgb(146,147,149)" d="M 769.253 895.382 C 771.071 901.742 771.438 920.365 769.275 926.623 C 768.73 916.83 768.976 905.129 769.253 895.382 z"/>
<path transform="translate(0,0)" fill="rgb(254,254,254)" d="M 1555.76 1582.76 C 1559.46 1583.99 1579.34 1595.4 1584.12 1598.07 L 1646.24 1632.69 C 1645.17 1662.14 1632.94 1690.59 1615.7 1714.14 C 1610.57 1721.15 1597.4 1733.61 1588.36 1726.15 C 1586.23 1719.94 1591.47 1712.38 1594.24 1704.58 C 1588.4 1710.72 1569.97 1739.02 1560.36 1724.7 C 1557.11 1719.86 1568.16 1704.24 1570.69 1698.47 L 1571.23 1697.22 C 1562.45 1704.37 1560.69 1711.4 1552.84 1718.37 C 1538.64 1727.51 1534.44 1718.56 1537.45 1704.73 C 1538.31 1700.81 1541.7 1694.58 1543.51 1690.84 C 1536.7 1695.73 1527.02 1708.37 1517.76 1704.65 C 1504.19 1690.57 1540.69 1657.74 1536.82 1639.92 C 1524.94 1625.85 1480.82 1672.27 1460.97 1644.77 C 1462.93 1639.87 1475.61 1637.36 1482.43 1633.9 C 1497.91 1626.04 1516.49 1617.87 1529.76 1606.39 C 1539.34 1598.09 1544.96 1590.71 1555.76 1582.76 z"/>
<path transform="translate(0,0)" fill="rgb(254,254,254)" d="M 1475.8 483.42 C 1504.58 510.308 1554.02 513.555 1591.97 513.856 C 1591.95 537.683 1592.77 558.314 1596.75 581.954 L 1546.36 625.014 L 1521.49 646.184 C 1520.79 630.723 1517.71 613.131 1505.74 602.313 C 1489.11 587.283 1468.89 589.223 1454.26 605.159 C 1453.55 565.424 1465.81 521.901 1475.8 483.42 z"/>
<path transform="translate(0,0)" fill="rgb(0,0,0)" d="M 1496.42 536.482 C 1497.88 537.325 1497.51 537.192 1498.66 538.558 C 1499.74 557.551 1489.26 568.312 1486.57 581.5 C 1490.15 589.382 1494.59 583.71 1500.46 589.225 C 1496.29 590.621 1489.37 590.277 1485.76 587.541 C 1480.16 578.767 1490.05 567.638 1492.13 558.542 C 1493.8 551.259 1494.97 543.822 1496.42 536.482 z"/>
<path transform="translate(0,0)" fill="rgb(0,0,0)" d="M 1478.03 506.864 C 1485.81 507.689 1500.67 510.805 1496.43 521.402 C 1489.12 520.842 1481.2 519.351 1476.77 512.967 C 1476.03 508.87 1475.79 510.862 1478.03 506.864 z"/>
<path transform="translate(0,0)" fill="rgb(0,0,0)" d="M 1539.8 523.868 C 1548.68 523.247 1561.89 526.008 1560.54 537.341 C 1559.34 537.352 1558.15 537.327 1556.96 537.266 C 1548.91 536.793 1538.66 533.557 1539.8 523.868 z"/>
<path transform="translate(0,0)" fill="rgb(0,0,0)" d="M 1520.33 548.52 C 1521.73 547.867 1523.38 548.039 1524.62 548.968 C 1525.86 549.897 1526.49 551.432 1526.26 552.964 C 1526.03 554.496 1524.97 555.777 1523.51 556.298 C 1521.4 557.054 1519.06 556.012 1518.21 553.931 C 1517.35 551.851 1518.29 549.468 1520.33 548.52 z"/>
<path transform="translate(0,0)" fill="rgb(0,0,0)" d="M 1474.24 542.506 C 1476.24 541.398 1478.75 542.092 1479.9 544.065 C 1481.04 546.039 1480.4 548.567 1478.45 549.751 C 1477.15 550.537 1475.53 550.562 1474.21 549.816 C 1472.89 549.069 1472.08 547.668 1472.08 546.152 C 1472.09 544.636 1472.92 543.241 1474.24 542.506 z"/>
<path transform="translate(0,0)" fill="rgb(254,254,254)" d="M 939.36 1227.68 C 952.572 1229.46 949.005 1242.79 942.747 1245.19 C 933.61 1248.71 920.254 1249.71 911.012 1254.19 C 890.015 1264.37 873.773 1280.64 857.435 1296.83 C 851.65 1302.59 841.561 1309.38 838.624 1316.23 C 839.238 1322.08 844.045 1325.39 849.537 1326.04 C 874.191 1328.96 892.686 1311.06 914.374 1303.13 C 921.198 1300.63 930.806 1300.43 937.992 1299.23 C 949.368 1297.83 954.65 1295.57 963.693 1288.85 C 976.394 1291.53 1024.91 1301.56 1025.56 1316.96 C 1022.05 1327.87 1008.86 1326.3 999.61 1326.29 C 1022.71 1347.99 997.547 1348.67 980.588 1347.46 C 985.131 1352.3 991.134 1355.37 991.19 1362.84 C 991.26 1372.29 976.669 1373 970.179 1373.06 L 969.333 1373.89 C 969.497 1374.62 969.661 1375.35 969.826 1376.08 C 974.047 1384.23 961.767 1391.46 955.317 1389.04 C 953.911 1384.31 959.167 1375.56 958.213 1370.71 C 955.148 1355.09 945.368 1364.39 938.619 1366.56 C 931.521 1361.56 936.965 1338.01 909.956 1360.07 C 912.319 1341.57 908.323 1334.4 889.479 1343.55 C 889.26 1338.96 889.306 1335.75 886.51 1332.05 C 873.856 1324.01 854.709 1345.92 847.44 1354.93 C 836.42 1347.77 830.485 1344.15 824.155 1332.19 L 805.543 1335.96 C 810.868 1311.2 815.321 1280.53 819.634 1255.29 C 834.897 1259.71 849.291 1264.02 864.183 1269.57 C 892.059 1247.75 916.992 1245.63 939.36 1227.68 z"/>
<path transform="translate(0,0)" fill="rgb(254,254,254)" d="M 1435.52 719.726 C 1437.33 720.945 1442.91 728.322 1445.57 730.87 C 1459.77 744.484 1479.8 743.402 1497.92 745.573 C 1509.94 747.012 1521.47 749.017 1533.66 748.283 C 1562.81 746.655 1580.69 740.005 1600.42 719.061 C 1601.41 720.523 1602.37 722.005 1603.29 723.506 C 1615.23 742.943 1612.93 778.067 1607.68 799.274 C 1600.25 829.281 1583.93 849.944 1557.78 865.666 L 1553.5 848.912 C 1518.56 736.242 1468.27 721.892 1389.71 813.098 C 1394.42 773.905 1403.9 744.599 1435.52 719.726 z"/>
<path transform="translate(0,0)" fill="rgb(254,254,254)" d="M 1267.13 712.817 C 1285.62 720.114 1276.3 744.438 1273.26 758.058 C 1268.43 779.662 1267.87 804.574 1251.06 821.016 L 1249.96 822.081 L 1250.06 823.379 C 1271.16 819.277 1273.27 764.126 1279.34 746.461 C 1280.44 746.014 1281.54 745.585 1282.65 745.177 C 1294.19 740.887 1349.74 730.285 1353.22 745.045 C 1348.09 759.514 1289.61 758.577 1280.64 768.186 L 1281.08 769.437 C 1287.91 769.339 1294.3 765.794 1300.03 764.993 C 1310.95 763.466 1354.62 752.73 1363.03 760.391 L 1363.01 762.439 C 1360.12 766.163 1355.5 767.874 1351.13 770.064 C 1327.36 784.371 1311.53 776.235 1289.38 786.865 C 1287.91 787.57 1286.43 788.639 1286.12 790.279 C 1299.78 785.158 1316.66 783.521 1331.24 782.454 C 1319.76 790.938 1314.33 796.034 1304 805.915 C 1299.49 806.731 1297.36 806.511 1292.55 807.906 L 1291.9 809.425 L 1294.43 811.159 C 1274.2 835.265 1270.27 841.273 1259.21 871.109 L 1250.3 875.889 L 1212.35 792.601 C 1226.1 771.718 1250.04 758.838 1258.47 734.77 C 1261.5 726.118 1260.66 720.236 1267.13 712.817 z"/>
<path transform="translate(0,0)" fill="rgb(147,107,253)" d="M 1311.02 880.24 C 1327.12 833.684 1353.73 768.217 1403.88 750.826 C 1391.73 777.487 1376.98 800.419 1367.31 827.784 C 1338.21 910.158 1327.35 1001.24 1319.58 1087.89 C 1318.26 1102.55 1314.66 1141.65 1315.02 1154.71 C 1315.25 1162.14 1314.29 1168.82 1313.46 1176.19 C 1312.71 1165.62 1311.6 1154.3 1312.1 1143.78 L 1306.93 995.567 C 1306 969.651 1305.59 941.357 1303.98 915.735 C 1311.61 912.72 1334.86 905.605 1337.05 900.612 C 1334.92 894.874 1316.86 883.884 1311.02 880.24 z"/>
<path transform="translate(0,0)" fill="rgb(77,71,126)" d="M 1312.1 1143.78 C 1312.57 1146.85 1313.14 1157.46 1313.8 1158.44 L 1315.02 1154.71 C 1315.25 1162.14 1314.29 1168.82 1313.46 1176.19 C 1312.71 1165.62 1311.6 1154.3 1312.1 1143.78 z"/>
<path transform="translate(0,0)" fill="rgb(254,254,254)" d="M 1016.95 1241.41 C 1025 1240.39 1030.51 1243.98 1034.6 1251.11 C 1046.89 1272.58 1045.75 1295.29 1040.27 1318.69 C 1028.07 1314.38 1024.66 1306.75 1012.32 1299.72 C 1001.84 1293.75 973.953 1290.13 967.664 1285.59 L 968.157 1281.09 C 963.886 1280.95 954.271 1293.14 949.105 1293.98 C 926.435 1297.67 915.436 1297.84 894.59 1308.63 C 883.795 1314.72 849.256 1334.08 841.46 1315.88 C 843.776 1311.82 845.727 1311.5 849.338 1308.72 C 862.753 1298.36 872.575 1285.53 886.132 1274.3 C 914.651 1250.67 938.598 1248.83 973.994 1245.64 L 1016.95 1241.41 z"/>
<path transform="translate(0,0)" fill="rgb(254,254,254)" d="M 563.675 728.514 C 565.692 730.083 567.517 738.24 568.611 741.481 C 585.667 792.06 666.559 809.139 698.503 763.547 C 716.617 787.645 719.285 812.747 721.058 842.074 C 714.177 827.361 705.74 813.428 695.891 800.512 C 680.482 784.025 671.895 783.899 659.938 804.997 C 648.459 825.253 640.948 848.37 633.88 870.501 C 600.724 843.648 559.682 811.159 554.438 766.292 C 552.735 751.724 554.525 740.285 563.675 728.514 z"/>
<path transform="translate(0,0)" fill="rgb(254,254,254)" d="M 1620.77 601.275 C 1641.93 600.283 1655.73 613.953 1648.44 635.629 C 1643.53 650.226 1626.69 656.904 1612.66 658.056 C 1608.74 658.378 1601.29 658.284 1597.86 659.861 C 1601.2 661.428 1602.05 661.61 1604.62 664.384 C 1605.95 667.999 1598.88 709.177 1597.91 716.725 C 1585.01 732.938 1567.55 739.909 1547.81 743.696 C 1533.97 746.171 1518.38 745.126 1504.53 743.377 C 1561.16 727.636 1586.35 658.549 1602.57 607.428 C 1610.08 604.174 1612.86 603.121 1620.77 601.275 z"/>
<path transform="translate(0,0)" fill="rgb(0,0,0)" d="M 1624.43 613.004 C 1630.35 612.996 1637.63 616.972 1638.87 622.894 C 1637.16 624.681 1638.2 624.174 1635.77 624.442 C 1633.82 621.138 1633.54 620.64 1631.04 617.784 C 1627.56 616.088 1626.6 616.478 1622.96 616.984 C 1617.46 620.235 1614.64 623.115 1608.8 625.036 L 1608.76 624.013 C 1614.81 617.306 1616.23 616.623 1624.43 613.004 z"/>
<path transform="translate(0,0)" fill="rgb(254,254,254)" d="M 641.349 527.198 C 655.657 533.235 707.531 551.99 720.14 546.845 L 720.778 545.123 C 723.836 542.251 727.808 542.919 733.185 542.085 C 743.89 541.137 751.557 539.186 761.147 534.018 C 760.638 539.699 759.243 561.95 757.604 565.26 C 751.251 565.318 744.234 561.361 735.461 568.258 L 734.397 570.584 C 739.236 581.127 754.116 570.532 757.543 571.943 L 756.924 576.201 C 750.775 578.831 746.155 577.018 741.047 581.882 C 738.809 584.012 734.979 587.824 732.174 588.328 L 730.689 587.492 C 722.39 582.872 719.857 586.85 714.373 593.264 C 701.902 564.488 675.141 576.725 665.222 600.928 L 619.09 600.031 C 629.313 577.428 639.015 552.07 641.349 527.198 z"/>
<path transform="translate(0,0)" fill="rgb(0,0,0)" d="M 688.072 561.132 C 694.078 560.855 698.014 560.128 702.564 564.21 L 702.675 566.537 C 700.559 569.591 698.845 569.881 695.395 571.307 C 690.727 571.829 680.356 572.506 680.405 565.803 C 682.574 562.805 684.589 562.473 688.072 561.132 z"/>
<path transform="translate(0,0)" fill="rgb(147,107,253)" d="M 1472.51 757.208 C 1493.01 755.344 1503.24 763.183 1516.44 777.33 L 1481.42 813.332 L 1476.05 819.009 C 1465.6 809.739 1456.24 801.958 1441.79 802.09 L 1445.46 767.166 C 1455.31 761.562 1461.54 759.315 1472.51 757.208 z"/>
<path transform="translate(0,0)" fill="rgb(254,254,254)" d="M 1627.94 1702.04 C 1675.78 1708.01 1725.63 1712.6 1773.72 1717.79 L 1767.97 1743.4 L 1622.36 1710.67 L 1627.94 1702.04 z"/>
<path transform="translate(0,0)" fill="rgb(254,254,254)" d="M 1367.5 1447.75 C 1367.77 1455.25 1362.48 1497.67 1361.4 1507.76 L 1346.54 1648.63 L 1327.2 1644.27 C 1324.4 1643.61 1325.48 1644.39 1323.65 1642.28 C 1323.61 1637.87 1334.24 1592.98 1336.12 1584.58 L 1355.08 1500.47 C 1358.33 1485.76 1362.91 1461.46 1367.5 1447.75 z"/>
<path transform="translate(0,0)" fill="rgb(147,107,253)" d="M 675.256 791.66 C 686.889 791.825 693.885 803.097 700.044 811.662 C 697.535 824.291 695.184 835.402 691.983 847.861 C 683.551 844.433 680.895 845.172 672.205 846.734 C 665.991 848.424 660.564 850.487 654.53 852.704 L 648.091 839.396 C 653.761 823.466 662.41 802.649 675.256 791.66 z"/>
<path transform="translate(0,0)" fill="rgb(254,254,254)" d="M 690.471 580.088 C 720.965 579.344 717.754 621.9 688.529 631.031 C 659.042 631.89 660.762 590.518 690.471 580.088 z"/>
<path transform="translate(0,0)" fill="rgb(0,0,0)" d="M 695.114 594.529 C 696.892 593.048 699.532 593.282 701.022 595.052 C 702.512 596.822 702.292 599.463 700.529 600.962 C 698.754 602.472 696.09 602.25 694.589 600.467 C 693.088 598.684 693.324 596.021 695.114 594.529 z"/>
<path transform="translate(0,0)" fill="rgb(254,254,254)" d="M 1393.81 1328.1 L 1487.97 1349.33 C 1500.02 1352.05 1524.46 1356.86 1534.79 1360.31 L 1532.78 1360.52 C 1485.22 1355.77 1437.43 1349.96 1389.89 1345.54 L 1393.81 1328.1 z"/>
<path transform="translate(0,0)" fill="rgb(254,254,254)" d="M 880.91 1332.93 C 883.765 1334.01 883.542 1333.99 885.391 1336.47 C 888.183 1348.2 874.706 1358.37 869.043 1374.59 C 861.662 1380.5 859.179 1382.25 850.023 1382.94 C 826.973 1370.96 865.81 1337.49 880.91 1332.93 z"/>
<path transform="translate(0,0)" fill="rgb(254,254,254)" d="M 901.439 1341.95 C 915.984 1348.58 902.718 1370.09 896.124 1378.5 C 890.919 1385.13 887.635 1387.59 879.859 1390.42 C 857.644 1381.17 885.741 1347.3 901.439 1341.95 z"/>
<path transform="translate(0,0)" fill="rgb(254,254,254)" d="M 1473.22 616.067 C 1474.07 616.103 1474.92 616.153 1475.76 616.217 C 1488.41 617.194 1494.14 622.014 1501.97 630.955 C 1495.83 632.196 1487.24 633.615 1481.06 632.1 C 1477.83 631.308 1476.14 629.764 1472.14 628.996 L 1470.25 630.387 L 1470.75 631.183 C 1479.42 635.883 1488.22 636.597 1497.77 635.035 C 1499.01 634.885 1500.27 634.85 1501.52 634.781 L 1503.02 636.736 C 1504.42 649.714 1490.18 657.014 1478.56 650.999 C 1464.29 643.612 1452.74 622.297 1473.22 616.067 z"/>
<path transform="translate(0,0)" fill="rgb(254,254,254)" d="M 754.229 579.967 C 755.459 580.28 754.698 580.003 756.338 581.17 C 756.607 587.97 754.63 597.947 754.167 605.294 C 753.675 613.119 754.345 627.23 746.69 630.938 C 742.531 630.761 741.491 629.964 737.585 628.174 C 720.159 611.92 732.471 585.778 754.229 579.967 z"/>
<path transform="translate(0,0)" fill="rgb(0,0,0)" d="M 743.404 596.484 C 745.588 595.861 747.872 597.085 748.562 599.249 C 749.252 601.412 748.098 603.733 745.956 604.488 C 744.512 604.998 742.904 604.681 741.761 603.662 C 740.617 602.642 740.119 601.081 740.461 599.587 C 740.803 598.094 741.931 596.905 743.404 596.484 z"/>
<path transform="translate(0,0)" fill="rgb(254,254,254)" d="M 923.408 1354.8 C 944.593 1354.05 926.616 1380.07 924.036 1388.28 C 918.799 1392.85 916.163 1394.33 909.409 1395.72 C 883.949 1391.78 911.875 1361.25 923.408 1354.8 z"/>
<path transform="translate(0,0)" fill="rgb(147,107,253)" d="M 760.417 580.459 C 779.759 589.45 776.142 609.836 764.187 623.756 C 761.607 626.126 757.559 628.584 754.555 630.562 C 755.985 615.066 758.108 595.708 760.417 580.459 z"/>
<path transform="translate(0,0)" fill="rgb(254,254,254)" d="M 946.65 1365.73 C 948.011 1365.66 949.528 1365.83 950.914 1365.92 C 963.079 1373.79 948.843 1391.88 936.845 1395.22 C 933.173 1394.53 931.616 1394.63 928.936 1392.04 C 924.079 1382.04 939.193 1370.38 946.65 1365.73 z"/>
<path transform="translate(0,0)" fill="rgb(147,107,253)" d="M 1029.02 1318.2 L 1039.28 1321.74 C 1037.16 1328.26 1034.16 1335.57 1031.67 1342.05 L 1022.29 1339.49 C 1018.31 1337.72 1013.34 1335.89 1010.85 1332.51 C 1012.55 1327.34 1022.93 1330.01 1029.02 1318.2 z"/>
<path transform="translate(0,0)" fill="rgb(147,107,253)" d="M 992.536 1231.31 C 1004.15 1230.62 1009.92 1232.82 1019.98 1237.45 C 1012.29 1238.76 1003.22 1239.4 995.359 1240.14 C 983.737 1241.85 977.51 1242.19 965.716 1242.14 C 975.812 1234.44 980.316 1233.09 992.536 1231.31 z"/>
<path transform="translate(0,0)" fill="rgb(254,254,254)" d="M 632.606 550.733 C 633.739 557.726 621.296 588.753 617.153 596.036 C 614.718 600.318 615.058 599.433 610.859 600.714 C 610.539 596.13 619.105 581.545 621.603 576.235 C 625.631 567.676 629.122 559.56 632.606 550.733 z"/>
<path transform="translate(0,0)" fill="rgb(254,254,254)" d="M 663.42 1363.28 C 666.434 1363.14 670.865 1362.44 672.732 1363.93 C 670.572 1371.47 666.152 1380.89 662.959 1388.26 L 661.33 1391.62 L 660.439 1391.6 C 659.632 1386.18 662.546 1369.35 663.42 1363.28 z"/>
<path transform="translate(0,0)" fill="rgb(254,254,254)" d="M 1671.61 523.652 C 1671.12 520.181 1670.54 516.724 1669.87 513.284 C 1665.7 492.707 1658.18 482.784 1641.08 471.415 L 1642.25 470.864 C 1660.59 476.712 1668.76 497.967 1672.38 515.026 C 1672.28 518.376 1672.48 520.449 1671.61 523.652 z"/>
<path transform="translate(0,0)" fill="rgb(112,102,167)" d="M 593.306 474.793 C 594.262 474.991 593.653 474.801 594.988 475.704 C 576.381 487.698 570.835 494.67 561.506 514.75 C 561.555 512.686 562.183 509.611 562.961 507.729 C 570.209 490.202 576.357 482.557 593.306 474.793 z"/>
<path transform="translate(0,0)" fill="rgb(112,102,167)" d="M 1672.38 515.026 C 1675.76 529.507 1670.37 559.365 1660.91 571.264 C 1669 555.468 1669.6 543.705 1671.24 526.01 C 1671.4 524.257 1671.18 525.458 1671.61 523.652 C 1672.48 520.449 1672.28 518.376 1672.38 515.026 z"/>
<path transform="translate(0,0)" fill="rgb(146,147,149)" d="M 684.254 538.526 C 704.434 540.723 711.771 542.099 733.185 542.085 C 727.808 542.919 723.836 542.251 720.778 545.123 C 706.633 542.327 700.154 543.617 684.254 538.526 z"/>
<path transform="translate(0,0)" fill="rgb(254,254,254)" d="M 606.946 615.065 C 604.655 611.034 603.695 610.617 604.603 606.652 L 609.307 601.62 L 612.3 603.376 C 612.814 607.474 609.644 612.155 606.946 615.065 z"/>
<path transform="translate(0,0)" fill="rgb(254,254,254)" d="M 1835.68 1427.21 C 1837.8 1428.4 1836.94 1427.6 1838.26 1429.57 C 1837.83 1436.45 1835.61 1443.01 1833.72 1449.66 L 1833.68 1449.82 C 1832.74 1446.57 1834.98 1431.44 1835.68 1427.21 z"/>
</svg>