<svg version="1.1" xmlns="http://www.w3.org/2000/svg" style="display: block;" viewBox="0 0 2048 1364" width="2000" height="1332" preserveAspectRatio="none">
<defs>
	<linearGradient id="Gradient1" gradientUnits="userSpaceOnUse" x1="1480.67" y1="348.911" x2="1463.14" y2="370.106">
		<stop class="stop0" offset="0" stop-opacity="1" stop-color="rgb(55,40,48)"/>
		<stop class="stop1" offset="1" stop-opacity="1" stop-color="rgb(46,46,49)"/>
	</linearGradient>
</defs>
<path transform="translate(0,0)" fill="rgb(254,240,199)" d="M 751.814 826.06 C 723.919 813.201 671.429 745.198 654.164 717.392 C 532.947 522.161 592.302 255.076 786.841 131.672 C 884.218 68.542 1002.9 47.2493 1116.15 72.5911 C 1196.01 90.765 1269.17 131 1327.28 188.715 C 1333.43 194.915 1350.68 213.064 1355 219.891 C 1360.78 219.122 1365.69 219.025 1370.43 223.23 C 1382.76 234.171 1414.5 256.143 1388.7 271.087 C 1385.35 267.668 1379.88 261.222 1374.35 262.887 C 1373.63 266.831 1375.81 268.49 1378.72 271.135 L 1383.03 275.546 L 1388.96 281.411 C 1390.92 283.38 1406.38 300.241 1406.15 300.117 C 1433.39 350.367 1451.95 421.959 1451.96 479.464 C 1459.67 474.982 1490.74 451.712 1495.28 451.397 L 1497.11 452.227 C 1497.22 463.544 1458.72 480.702 1451.04 489.251 C 1451.7 496.12 1451.11 511.917 1452.33 516.273 C 1452.5 518.748 1452.74 520.071 1452.21 522.538 C 1450.81 528.751 1450.9 534.887 1450.04 541.2 C 1448.28 553.454 1446.19 565.66 1443.77 577.801 C 1434.69 623.126 1407.63 699.741 1376.44 735.108 C 1370.09 721.131 1373.84 702.458 1353.28 695.681 C 1335.08 689.683 1309.56 689.67 1291.43 696.226 C 1270.75 704.34 1277.81 719.087 1273.8 732.331 C 1269.39 734.339 1267.29 730.197 1262.09 732.171 C 1260.56 737.039 1265.52 743.839 1268.05 748.092 C 1267.1 754.169 1265.1 764.539 1264.82 770.386 C 1263.5 797.558 1292.13 780.167 1284.49 813.416 C 1281.04 811.135 1281.69 810.712 1278.58 811.091 C 1275.64 813.931 1274.89 818.995 1273.94 823.124 C 1229.25 821.454 1210.5 832.018 1197.07 875.24 C 1196.19 878.05 1193.65 886.186 1190.93 887.197 C 1183.17 890.936 1169.07 897.299 1160.84 898.833 L 1159.86 898.075 C 1158.31 895.048 1158.62 884.83 1158.61 880.774 C 1158.43 836.792 1153.83 793.511 1150 749.735 L 1136.8 599.037 C 1081.92 620.558 1043.8 624.861 985.069 611.222 C 977.589 609.484 942.657 598.047 939.401 598.843 C 926.325 650.957 913.51 703.136 900.957 755.379 C 858.06 736.707 878.752 712.85 847.308 700.809 L 839.312 700.142 L 835.724 699.913 C 812.116 700.789 789.972 708.766 773.029 725.844 C 748.949 750.115 762.597 805.612 751.814 826.06 z"/>
<path transform="translate(0,0)" fill="rgb(254,240,199)" d="M 1228.05 344.325 C 1242.97 324.735 1265.43 294.986 1281.66 275.013 C 1282.44 274.795 1283.22 274.578 1284 274.36 C 1286.33 276.668 1287.23 277.732 1290.07 279.447 L 1342.14 317.565 L 1347.23 321.303 C 1357.13 311.34 1367.03 300.86 1378.33 292.485 C 1384.01 288.274 1385.32 287.528 1388.96 281.411 C 1390.92 283.38 1406.38 300.241 1406.15 300.117 C 1433.39 350.367 1451.95 421.959 1451.96 479.464 C 1459.67 474.982 1490.74 451.712 1495.28 451.397 L 1497.11 452.227 C 1497.22 463.544 1458.72 480.702 1451.04 489.251 C 1451.7 496.12 1451.11 511.917 1452.33 516.273 C 1452.5 518.748 1452.74 520.071 1452.21 522.538 C 1450.81 528.751 1450.9 534.887 1450.04 541.2 C 1448.28 553.454 1446.19 565.66 1443.77 577.801 C 1434.69 623.126 1407.63 699.741 1376.44 735.108 C 1370.09 721.131 1373.84 702.458 1353.28 695.681 C 1335.08 689.683 1309.56 689.67 1291.43 696.226 C 1270.75 704.34 1277.81 719.087 1273.8 732.331 C 1269.39 734.339 1267.29 730.197 1262.09 732.171 C 1260.56 737.039 1265.52 743.839 1268.05 748.092 C 1267.1 754.169 1265.1 764.539 1264.82 770.386 C 1263.5 797.558 1292.13 780.167 1284.49 813.416 C 1281.04 811.135 1281.69 810.712 1278.58 811.091 C 1275.64 813.931 1274.89 818.995 1273.94 823.124 C 1229.25 821.454 1210.5 832.018 1197.07 875.24 C 1196.19 878.05 1193.65 886.186 1190.93 887.197 C 1183.17 890.936 1169.07 897.299 1160.84 898.833 L 1159.86 898.075 C 1158.31 895.048 1158.62 884.83 1158.61 880.774 C 1158.43 836.792 1153.83 793.511 1150 749.735 L 1136.8 599.037 C 1139.79 596.074 1140.42 595.435 1142.71 591.855 C 1142.63 588.498 1142.97 589.794 1140.93 586.882 C 1139.17 586.471 1138.18 586.164 1136.61 585.202 C 1136.35 586.835 1136.24 589.548 1135.24 590.433 C 1124.48 599.956 1089.49 607.684 1076.44 609.529 C 1078.99 593.558 1080.83 580.319 1082 563.993 C 1082.41 558.212 1083.12 532.01 1084.4 527.316 C 1090.12 506.429 1101.5 477.366 1112.33 458.204 C 1114.74 453.949 1119.86 448.891 1123.17 445.623 C 1116.52 433.407 1112.3 424.728 1107.67 411.662 C 1112.39 413.725 1119.35 418.535 1123.35 414.906 C 1124.26 409.346 1122.1 395.39 1121.52 389.129 C 1118.31 354.728 1116.06 325.551 1106.19 292.042 C 1115.73 295.031 1133.69 303.451 1143.76 307.738 C 1171.92 319.79 1200.01 331.986 1228.05 344.325 z"/>
<path transform="translate(0,0)" fill="rgb(55,39,49)" d="M 1228.05 344.325 C 1242.97 324.735 1265.43 294.986 1281.66 275.013 C 1282.44 274.795 1283.22 274.578 1284 274.36 C 1286.33 276.668 1287.23 277.732 1290.07 279.447 L 1342.14 317.565 L 1347.23 321.303 C 1329.07 343.419 1313.27 368.94 1295.83 391.642 C 1283.18 408.102 1270.79 432.952 1247.32 434.023 C 1211.17 435.672 1172.54 418.857 1141.42 402.174 C 1134.78 477.593 1114.4 508.206 1136.61 585.202 C 1136.35 586.835 1136.24 589.548 1135.24 590.433 C 1124.48 599.956 1089.49 607.684 1076.44 609.529 C 1078.99 593.558 1080.83 580.319 1082 563.993 C 1082.41 558.212 1083.12 532.01 1084.4 527.316 C 1090.12 506.429 1101.5 477.366 1112.33 458.204 C 1114.74 453.949 1119.86 448.891 1123.17 445.623 C 1116.52 433.407 1112.3 424.728 1107.67 411.662 C 1112.39 413.725 1119.35 418.535 1123.35 414.906 C 1124.26 409.346 1122.1 395.39 1121.52 389.129 C 1118.31 354.728 1116.06 325.551 1106.19 292.042 C 1115.73 295.031 1133.69 303.451 1143.76 307.738 C 1171.92 319.79 1200.01 331.986 1228.05 344.325 z"/>
<path transform="translate(0,0)" fill="rgb(225,210,209)" d="M 1451.96 479.464 C 1459.67 474.982 1490.74 451.712 1495.28 451.397 L 1497.11 452.227 C 1497.22 463.544 1458.72 480.702 1451.04 489.251 C 1448.51 489.485 1431.35 498.467 1427.32 499.901 C 1414.17 504.583 1387.25 519.035 1374.39 514.136 C 1375.02 511.75 1374.46 511.81 1376.41 510.978 C 1384.54 507.517 1393.68 505.412 1402.05 502.446 C 1419.55 496.252 1436.25 489.34 1451.96 479.464 z"/>
<path transform="translate(0,0)" fill="rgb(55,39,49)" d="M 1060.54 278.808 C 1069.84 275.027 1073.75 280.157 1078.32 287.702 C 1081.82 288.432 1090.68 290.514 1093.74 290.694 C 1098.51 289.555 1100.65 287.974 1104.3 289.321 L 1106.19 292.042 C 1116.06 325.551 1118.31 354.728 1121.52 389.129 C 1122.1 395.39 1124.26 409.346 1123.35 414.906 C 1119.35 418.535 1112.39 413.725 1107.67 411.662 C 1112.3 424.728 1116.52 433.407 1123.17 445.623 C 1119.86 448.891 1114.74 453.949 1112.33 458.204 C 1101.5 477.366 1090.12 506.429 1084.4 527.316 C 1083.12 532.01 1082.41 558.212 1082 563.993 C 1080.83 580.319 1078.99 593.558 1076.44 609.529 C 1089.49 607.684 1124.48 599.956 1135.24 590.433 C 1136.24 589.548 1136.35 586.835 1136.61 585.202 C 1138.18 586.164 1139.17 586.471 1140.93 586.882 C 1142.97 589.794 1142.63 588.498 1142.71 591.855 C 1140.42 595.435 1139.79 596.074 1136.8 599.037 C 1081.92 620.558 1043.8 624.861 985.069 611.222 C 977.589 609.484 942.657 598.047 939.401 598.843 C 926.325 650.957 913.51 703.136 900.957 755.379 C 858.06 736.707 878.752 712.85 847.308 700.809 C 842.785 684.426 854.969 685.261 857.246 677.654 L 855.198 673.859 C 855.235 673.19 855.273 672.521 855.31 671.852 C 857.869 664.725 861.853 638.46 866.837 634.945 C 854.39 626.561 818.144 608.128 803.118 600.016 C 800.264 598.51 799.95 598.339 797.585 596.185 C 798.382 592.21 805.671 578.668 807.865 574.352 L 834.189 522.604 C 837.051 516.986 845.71 501.458 847.176 495.988 C 855.73 464.535 864.767 433.785 870.188 401.602 C 875.253 371.537 883.022 316.579 915.59 304.734 L 916.279 304.169 C 922.99 302.451 934.904 300.665 942.08 299.361 C 945.498 296.339 944.275 296.48 947.913 296.324 C 950.736 298.12 953.764 300.268 957.157 300.504 L 957.831 298.794 C 961.617 295.265 984.226 289.631 989.7 289.411 C 993.087 282.096 994.285 280.651 1001.39 277.896 L 1002.17 278.868 C 1006.22 283.955 1007.84 288.529 1011.09 293.333 C 1016.12 300.765 1031.99 306.519 1040.47 307.906 C 1058.3 310.825 1059.59 291 1060.54 278.808 z"/>
<path transform="translate(0,0)" fill="rgb(248,236,235)" d="M 1060.54 278.808 C 1069.84 275.027 1073.75 280.157 1078.32 287.702 C 1081.82 288.432 1090.68 290.514 1093.74 290.694 C 1096.28 291.516 1097.78 291.544 1099.11 294.398 C 1104.57 306.184 1106.19 321.776 1107.14 334.438 C 1106.81 354.194 1105.99 381.961 1101.34 401.201 C 1098.09 402.989 1098.88 401.931 1097.91 404.954 C 1098.88 407.982 1100.12 410.474 1099.4 413.431 C 1094.47 436.547 1088.62 461.077 1080.88 483.396 L 1080.01 483.468 C 1072.78 466.886 1063.88 436.099 1056.47 416.668 L 1054.66 412.419 C 1046.68 395.649 1042.61 387.103 1032.21 371.16 L 1030.51 371.615 C 1025.51 371.268 1021.01 370.793 1016.03 370.195 L 1011.96 372.394 C 1004.68 356 986.473 332.127 973.969 319.294 C 970.275 315.503 958.004 305.178 957.496 301.592 L 957.157 300.504 L 957.831 298.794 C 961.617 295.265 984.226 289.631 989.7 289.411 C 993.087 282.096 994.285 280.651 1001.39 277.896 L 1002.17 278.868 C 1006.22 283.955 1007.84 288.529 1011.09 293.333 C 1016.12 300.765 1031.99 306.519 1040.47 307.906 C 1058.3 310.825 1059.59 291 1060.54 278.808 z"/>
<path transform="translate(0,0)" fill="rgb(174,164,164)" d="M 1060.54 278.808 C 1069.84 275.027 1073.75 280.157 1078.32 287.702 C 1081.24 296.196 1084.69 316.687 1080.82 324.725 C 1075.41 328.468 1063 313.762 1058.6 309.606 C 1051.17 314.794 1050.15 314.974 1041.19 315.213 C 1039.94 322.66 1038.59 338.331 1033.84 342.624 C 1028.91 343.818 1025.14 341.824 1021.05 339.218 C 1004.27 328.507 987.131 310.899 989.7 289.411 C 993.087 282.096 994.285 280.651 1001.39 277.896 L 1002.17 278.868 C 1006.22 283.955 1007.84 288.529 1011.09 293.333 C 1016.12 300.765 1031.99 306.519 1040.47 307.906 C 1058.3 310.825 1059.59 291 1060.54 278.808 z"/>
<path transform="translate(0,0)" fill="rgb(248,236,235)" d="M 997.592 287.489 L 999.975 288.472 C 1000.38 289.317 1000.81 290.155 1001.25 290.983 C 1008.69 304.816 1020.77 309.384 1034.67 313.541 C 1033.07 320.165 1031.78 327.801 1030.49 334.562 C 1021.09 336.462 989.131 303.203 997.592 287.489 z"/>
<path transform="translate(0,0)" fill="rgb(248,236,235)" d="M 1066.93 284.893 C 1074.2 291.207 1076.36 304.354 1074.73 313.41 L 1073.36 313.619 L 1062.57 304.002 C 1065.92 296.646 1066.4 292.901 1066.93 284.893 z"/>
<path transform="translate(0,0)" fill="rgb(55,39,49)" d="M 957.496 301.592 C 985.853 312.108 1007.91 339.832 1026.01 362.995 L 1016.03 370.195 L 1011.96 372.394 C 1004.68 356 986.473 332.127 973.969 319.294 C 970.275 315.503 958.004 305.178 957.496 301.592 z"/>
<path transform="translate(0,0)" fill="rgb(39,90,130)" d="M 1038.09 353.868 C 1045.81 345.15 1042.17 332.356 1048.6 323.238 C 1057.97 322.461 1076.13 331.272 1065.71 342.109 C 1060.68 347.334 1050.5 353.044 1043.84 356.344 L 1038.09 353.868 z"/>
<path transform="translate(0,0)" fill="rgb(174,164,164)" d="M 1026.01 362.995 L 1030.26 359.709 L 1039 362.016 C 1037.48 363.945 1033.08 369.318 1032.21 371.16 L 1030.51 371.615 C 1025.51 371.268 1021.01 370.793 1016.03 370.195 L 1026.01 362.995 z"/>
<path transform="translate(0,0)" fill="rgb(55,39,49)" d="M 1038.09 353.868 L 1043.84 356.344 L 1039 362.016 L 1030.26 359.709 L 1038.09 353.868 z"/>
<path transform="translate(0,0)" fill="rgb(174,164,164)" d="M 1064.91 363.548 C 1067.94 362.454 1071.3 363.952 1072.51 366.94 C 1073.72 369.927 1072.36 373.339 1069.42 374.667 C 1067.41 375.574 1065.07 375.31 1063.32 373.98 C 1061.56 372.65 1060.68 370.466 1061.01 368.29 C 1061.34 366.114 1062.84 364.294 1064.91 363.548 z"/>
<path transform="translate(0,0)" fill="rgb(174,164,164)" d="M 1078.22 441.499 C 1081.26 440.543 1084.51 442.128 1085.63 445.108 C 1086.75 448.087 1085.34 451.421 1082.43 452.698 C 1080.4 453.588 1078.04 453.283 1076.3 451.906 C 1074.56 450.529 1073.73 448.305 1074.13 446.124 C 1074.53 443.944 1076.11 442.164 1078.22 441.499 z"/>
<path transform="translate(0,0)" fill="rgb(174,164,164)" d="M 1074.27 400.568 C 1077.23 399.412 1080.58 400.78 1081.88 403.678 C 1083.18 406.576 1081.98 409.985 1079.15 411.428 C 1077.19 412.427 1074.84 412.266 1073.03 411.008 C 1071.23 409.751 1070.26 407.601 1070.52 405.416 C 1070.78 403.232 1072.22 401.368 1074.27 400.568 z"/>
<path transform="translate(0,0)" fill="rgb(254,240,199)" d="M 866.837 634.945 C 867.603 634.746 868.754 634.093 869.521 633.711 C 882.286 612.98 894.151 588.075 906.321 566.622 C 913.785 553.466 922.137 537.29 928.716 523.762 C 929.716 521.706 934.221 503.869 935.185 500.408 C 938.974 487.11 942.878 473.845 946.895 460.614 C 959.858 495.623 956.235 508.289 940.654 541.704 C 934.343 555.24 927.123 570.834 922.198 584.881 C 921.811 585.985 922.983 586.638 923.7 587.321 C 927.811 599.203 934.565 592.673 939.401 598.843 C 926.325 650.957 913.51 703.136 900.957 755.379 C 858.06 736.707 878.752 712.85 847.308 700.809 C 842.785 684.426 854.969 685.261 857.246 677.654 L 855.198 673.859 C 855.235 673.19 855.273 672.521 855.31 671.852 C 857.869 664.725 861.853 638.46 866.837 634.945 z"/>
<path transform="translate(0,0)" fill="rgb(97,96,97)" d="M 1093.74 290.694 C 1098.51 289.555 1100.65 287.974 1104.3 289.321 L 1106.19 292.042 C 1116.06 325.551 1118.31 354.728 1121.52 389.129 C 1122.1 395.39 1124.26 409.346 1123.35 414.906 C 1119.35 418.535 1112.39 413.725 1107.67 411.662 C 1112.3 424.728 1116.52 433.407 1123.17 445.623 C 1119.86 448.891 1114.74 453.949 1112.33 458.204 C 1101.5 477.366 1090.12 506.429 1084.4 527.316 C 1083.12 532.01 1082.41 558.212 1082 563.993 C 1080.83 580.319 1078.99 593.558 1076.44 609.529 C 1089.49 607.684 1124.48 599.956 1135.24 590.433 C 1136.24 589.548 1136.35 586.835 1136.61 585.202 C 1138.18 586.164 1139.17 586.471 1140.93 586.882 C 1142.97 589.794 1142.63 588.498 1142.71 591.855 C 1140.42 595.435 1139.79 596.074 1136.8 599.037 C 1081.92 620.558 1043.8 624.861 985.069 611.222 C 977.589 609.484 942.657 598.047 939.401 598.843 C 934.565 592.673 927.811 599.203 923.7 587.321 C 932.227 586.251 982.349 604.81 998.168 607.206 C 1028.03 611.728 1038.01 612.957 1068.67 610.819 C 1073.73 587.434 1076.02 561.457 1076.54 537.384 C 1076.93 519.456 1062.77 497.112 1055.71 480.854 C 1053.92 475.903 1041.73 462.676 1041.63 458.203 C 1041.35 446.243 1045.39 436.333 1044.89 423.126 C 1040.03 426.261 1036.33 430.771 1031.15 433.06 C 1026.58 430.248 1017.49 399.874 1013.56 391.084 L 1015.55 388.355 L 1017.78 386.625 C 1023.08 389.948 1030.41 415.696 1032.79 423.131 C 1038.96 418.793 1047.13 411.965 1054.66 412.419 L 1056.47 416.668 C 1063.88 436.099 1072.78 466.886 1080.01 483.468 L 1080.88 483.396 C 1088.62 461.077 1094.47 436.547 1099.4 413.431 C 1100.12 410.474 1098.88 407.982 1097.91 404.954 C 1098.88 401.931 1098.09 402.989 1101.34 401.201 C 1105.99 381.961 1106.81 354.194 1107.14 334.438 C 1106.19 321.776 1104.57 306.184 1099.11 294.398 C 1097.78 291.544 1096.28 291.516 1093.74 290.694 z"/>
<path transform="translate(0,0)" fill="rgb(55,39,49)" d="M 1056.47 416.668 C 1063.88 436.099 1072.78 466.886 1080.01 483.468 C 1076.84 493.102 1077.07 499.097 1076.76 509.08 C 1071.9 497.687 1067.05 487.11 1060.74 476.417 C 1056.58 469.363 1051.93 463.137 1048.32 455.819 C 1051.08 442.907 1051.87 433.934 1051.56 420.839 C 1051.52 419.506 1055.15 417.566 1056.47 416.668 z"/>
<path transform="translate(0,0)" fill="rgb(55,39,49)" d="M 1099.4 413.431 C 1100.9 414.104 1112.18 439.871 1114.45 444.208 C 1099.43 460.701 1092.54 484.047 1084.12 505.099 C 1084.27 499.908 1084.75 492.744 1083.53 487.693 C 1083.05 485.695 1081.54 485.757 1080.88 483.396 C 1088.62 461.077 1094.47 436.547 1099.4 413.431 z"/>
<path transform="translate(0,0)" fill="rgb(55,39,49)" d="M 1107.14 334.438 C 1110.48 338.219 1115.33 398.497 1116.31 407.457 C 1113.19 406.197 1103.83 402.655 1101.34 401.201 C 1105.99 381.961 1106.81 354.194 1107.14 334.438 z"/>
<path transform="translate(0,0)" fill="rgb(39,90,130)" d="M 942.469 413.32 C 954.307 406.893 966.077 400.339 977.776 393.66 C 983.657 396.09 998.622 397.535 1005.72 399.453 C 999.645 405.554 993.492 411.575 987.261 417.515 C 971.912 416.792 957.653 415.167 942.469 413.32 z"/>
<path transform="translate(0,0)" fill="rgb(97,96,97)" d="M 942.08 299.361 C 945.498 296.339 944.275 296.48 947.913 296.324 C 950.736 298.12 953.764 300.268 957.157 300.504 L 957.496 301.592 C 958.004 305.178 970.275 315.503 973.969 319.294 C 986.473 332.127 1004.68 356 1011.96 372.394 L 1005.77 376.891 C 1004.7 372.213 1001.37 367.057 998.914 362.849 C 982.766 335.23 964.837 320.098 942.08 299.361 z"/>
<path transform="translate(0,0)" fill="rgb(97,96,97)" d="M 915.59 304.734 L 916.279 304.169 C 929.42 312.76 948.833 384.003 942.79 396.442 C 940.169 397.683 941.482 397.577 938.724 396.825 C 935.686 388.967 934.598 367.885 932.519 358.583 C 929.869 346.728 925.409 336.413 920.972 325.234 C 918.015 317.783 912.805 311.126 915.59 304.734 z"/>
<path transform="translate(0,0)" fill="rgb(174,164,164)" d="M 994.992 383.443 C 1002.37 385.791 1008 386.865 1015.55 388.355 L 1013.56 391.084 L 1005.72 399.453 C 998.622 397.535 983.657 396.09 977.776 393.66 L 994.992 383.443 z"/>
<path transform="translate(0,0)" fill="rgb(39,90,130)" d="M 1011.96 372.394 L 1016.03 370.195 C 1021.01 370.793 1025.51 371.268 1030.51 371.615 C 1027.84 374.84 1024.55 379.035 1021.72 381.985 C 1017.29 381.381 1009.2 380.583 1005.37 378.983 L 1004.77 377.979 L 1005.77 376.891 L 1011.96 372.394 z"/>
<path transform="translate(0,0)" fill="rgb(39,90,130)" d="M 928.01 420.768 C 944.816 423.214 963.088 423.942 980.11 424.669 C 974.667 429.72 968.666 435.51 963.099 440.311 C 957.028 446.052 950.792 451.615 944.397 456.993 C 937.064 455.888 885.296 446.731 883.371 443.408 C 885.948 438.662 897.827 434.834 903.198 432.66 L 928.01 420.768 z"/>
<path transform="translate(0,0)" fill="rgb(174,164,164)" d="M 928.01 420.768 C 944.816 423.214 963.088 423.942 980.11 424.669 C 974.667 429.72 968.666 435.51 963.099 440.311 C 947.216 439.671 918.164 436.794 903.198 432.66 L 928.01 420.768 z"/>
<path transform="translate(0,0)" fill="rgb(174,164,164)" d="M 876.588 453.065 C 896.462 458.445 915.878 463.242 936.569 464.089 C 932.074 468.611 925.483 474.878 921.367 479.484 C 920.1 481.098 918.213 483.711 916.133 484.097 C 896.042 487.816 873.745 489.262 853.477 491.331 C 856.837 483.733 862.545 474.294 867.113 467.361 L 876.588 453.065 z"/>
<path transform="translate(0,0)" fill="rgb(39,90,130)" d="M 853.477 491.331 C 856.837 483.733 862.545 474.294 867.113 467.361 C 887.222 473.007 900.85 476.078 921.367 479.484 C 920.1 481.098 918.213 483.711 916.133 484.097 C 896.042 487.816 873.745 489.262 853.477 491.331 z"/>
<path transform="translate(0,0)" fill="rgb(254,171,162)" d="M 1053.34 174.054 C 1063.75 183.617 1065.73 189.702 1068.21 203.097 C 1070.55 216.179 1074.7 237.194 1062.37 246.962 C 1064.01 251.23 1064.22 249.964 1063.39 253.8 L 1058.9 258.118 L 1060.54 278.808 C 1059.59 291 1058.3 310.825 1040.47 307.906 C 1031.99 306.519 1016.12 300.765 1011.09 293.333 C 1007.84 288.529 1006.22 283.955 1002.17 278.868 L 1001.39 277.896 C 1002.83 274.306 1000.62 248.867 1000.22 243.276 C 985.524 241.008 972.737 228.612 992.446 222.579 C 994.661 224.019 993.483 223.674 996.088 223.698 C 997.511 220.632 991.744 201.076 995.842 193.431 C 1001.39 183.079 1006.34 191.991 1012.54 189.344 C 1013.68 186.398 1013.82 185.901 1015.62 183.358 C 1028 180.313 1022.92 188.86 1034.58 175.902 C 1038.4 179.628 1039.43 181.583 1044.3 182.298 C 1048.07 180.953 1050.58 177.242 1053.34 174.054 z"/>
<path transform="translate(0,0)" fill="rgb(228,97,95)" d="M 1062.37 246.962 C 1064.01 251.23 1064.22 249.964 1063.39 253.8 L 1058.9 258.118 C 1051.81 261.948 1038.14 266.1 1030.93 261.137 L 1031.1 259.252 C 1037.15 253.47 1041.01 257.724 1048.36 255.905 C 1050.43 255.39 1058.42 248.996 1062.37 246.962 z"/>
<path transform="translate(0,0)" fill="rgb(228,97,95)" d="M 1038.86 204.745 C 1044.94 206.387 1053.78 214.145 1050.72 221.65 C 1048.18 224.664 1046.67 224.952 1043.07 226.273 C 1040.1 225.999 1038.99 225.959 1037.33 223.677 C 1038.27 220.833 1039.72 220.199 1042.22 218.373 L 1043.21 217.656 C 1042.39 214.032 1040.77 214.666 1037.35 210.786 C 1037 207.043 1036.9 208.45 1038.86 204.745 z"/>
<path transform="translate(0,0)" fill="rgb(55,39,49)" d="M 1052.94 231.169 L 1053.57 231.771 C 1053.21 242.372 1039.37 242.549 1031.53 239.116 C 1030.09 237.433 1029.99 237.583 1029.82 235.411 C 1042.48 234.3 1041.32 238.32 1052.94 231.169 z"/>
<path transform="translate(0,0)" fill="rgb(228,97,95)" d="M 986.411 225.764 C 991.307 227.836 996.35 228.298 999.935 231.137 C 1000.88 234.254 1000.71 233.076 999.231 236.77 C 993.855 236.151 988.559 235.815 984.906 231.437 C 984.317 227.801 984.032 229.311 986.411 225.764 z"/>
<path transform="translate(0,0)" fill="rgb(130,72,45)" d="M 1049.06 189.967 C 1051.89 190.122 1052.25 190.35 1054.96 191.351 C 1057.13 193.949 1056.83 192.839 1056.96 195.783 C 1054.24 198.062 1055.35 197.384 1051.23 197.71 C 1048.11 199.022 1046.64 199.329 1043.73 197.905 L 1043.34 195.696 C 1045.4 191.635 1044.93 192.746 1049.06 189.967 z"/>
<path transform="translate(0,0)" fill="rgb(130,72,45)" d="M 1015.02 196.892 C 1019.32 197.136 1020.23 197.723 1022.68 200.256 L 1022.62 202.608 C 1019.5 205.251 1020.28 204.468 1015.56 204.93 C 1013.03 206.289 1011.5 206.42 1009.34 204.793 C 1008.74 200.18 1011.8 199.044 1015.02 196.892 z"/>
<path transform="translate(0,0)" fill="rgb(254,171,162)" d="M 1284 274.36 C 1289.99 271.171 1311.1 204.424 1340.4 216.59 C 1345.51 218.714 1349.97 221.264 1355 219.891 C 1360.78 219.122 1365.69 219.025 1370.43 223.23 C 1382.76 234.171 1414.5 256.143 1388.7 271.087 C 1385.35 267.668 1379.88 261.222 1374.35 262.887 C 1373.63 266.831 1375.81 268.49 1378.72 271.135 L 1383.03 275.546 L 1388.96 281.411 C 1385.32 287.528 1384.01 288.274 1378.33 292.485 C 1367.03 300.86 1357.13 311.34 1347.23 321.303 L 1342.14 317.565 L 1290.07 279.447 C 1287.23 277.732 1286.33 276.668 1284 274.36 z"/>
<path transform="translate(0,0)" fill="rgb(228,97,95)" d="M 1284 274.36 C 1289.99 271.171 1311.1 204.424 1340.4 216.59 C 1345.51 218.714 1349.97 221.264 1355 219.891 C 1360.78 219.122 1365.69 219.025 1370.43 223.23 C 1382.76 234.171 1414.5 256.143 1388.7 271.087 C 1385.35 267.668 1379.88 261.222 1374.35 262.887 C 1373.63 266.831 1375.81 268.49 1378.72 271.135 C 1375.05 277.021 1372.08 281.909 1363.97 280.585 C 1359.22 276.225 1362.54 267.968 1366.19 263.799 C 1372.48 256.614 1383.39 263.417 1390.23 261.472 C 1396.23 251.596 1380.23 242.166 1372.83 239.059 C 1362.56 247.617 1362.06 252.475 1356.29 263.509 C 1355.45 265.125 1352.75 266.201 1350.97 266.739 L 1349.26 266.179 C 1348.12 261.073 1354.98 249.946 1357.53 245.043 C 1359.87 240.566 1365.77 236.495 1369.87 233.338 C 1367.74 228.149 1361.4 225.205 1355.85 227.607 C 1344.98 232.316 1339.74 255.841 1331.29 259.249 L 1329.34 258.068 C 1327.41 248.101 1345.18 233.119 1342.98 225.256 C 1328.56 218.212 1322.07 251.545 1312.06 253.102 C 1310.72 245.795 1316.9 236.761 1320.47 230.641 C 1305.61 241.79 1298.47 263.736 1290.07 279.447 C 1287.23 277.732 1286.33 276.668 1284 274.36 z"/>
<path transform="translate(0,0)" fill="rgb(228,97,95)" d="M 1383.03 275.546 L 1388.96 281.411 C 1385.32 287.528 1384.01 288.274 1378.33 292.485 C 1367.03 300.86 1357.13 311.34 1347.23 321.303 L 1342.14 317.565 C 1350.61 306.793 1361.36 296.431 1372.16 288.056 C 1378.16 283.399 1379.45 282.306 1383.03 275.546 z"/>
<path transform="translate(0,0)" fill="rgb(254,171,162)" d="M 803.118 600.016 C 818.144 608.128 854.39 626.561 866.837 634.945 C 861.853 638.46 857.869 664.725 855.31 671.852 C 855.273 672.521 855.235 673.19 855.198 673.859 L 857.246 677.654 C 854.969 685.261 842.785 684.426 847.308 700.809 L 839.312 700.142 L 835.724 699.913 C 830.706 688.862 836.73 678.432 831.522 672.048 C 817.043 668.842 807.174 706.674 783.461 700.239 L 781.072 694.926 C 781.06 694.189 781.09 693.452 781.163 692.719 C 781.879 685.546 787.735 679.86 792.857 675.441 L 795.528 672.738 C 800.708 665.942 802.602 664.713 806.575 656.816 C 792.088 665.743 775.562 695.995 757.772 687.17 C 755.424 685.644 754.781 685.227 754.35 682.613 L 755.939 680.682 C 760.417 673.023 762.851 669.526 768.335 662.558 C 768.5 661.091 769.174 660.02 769.815 658.625 C 776.786 658.419 785.948 647.597 790.231 642.382 C 780.865 647.938 770.989 660.367 760.523 651.407 C 758.787 644.74 766.726 642.413 770.685 634.512 C 771.153 633.6 771.611 632.682 772.059 631.76 L 774.94 631.744 C 784.332 626.185 797.738 609.688 803.118 600.016 z"/>
<path transform="translate(0,0)" fill="rgb(228,97,95)" d="M 769.815 658.625 C 772.821 660.078 775.877 661.58 776.393 665.188 C 778.196 677.809 766.949 684.746 757.772 687.17 C 755.424 685.644 754.781 685.227 754.35 682.613 L 755.939 680.682 C 760.417 673.023 762.851 669.526 768.335 662.558 C 768.5 661.091 769.174 660.02 769.815 658.625 z"/>
<path transform="translate(0,0)" fill="rgb(254,171,162)" d="M 755.939 680.682 C 760.417 673.023 762.851 669.526 768.335 662.558 C 769.53 674.437 767.714 677.291 755.939 680.682 z"/>
<path transform="translate(0,0)" fill="rgb(228,97,95)" d="M 795.528 672.738 C 807.475 682.823 793.749 695.129 784.029 699.966 L 783.461 700.239 L 781.072 694.926 C 781.06 694.189 781.09 693.452 781.163 692.719 C 781.879 685.546 787.735 679.86 792.857 675.441 L 795.528 672.738 z"/>
<path transform="translate(0,0)" fill="rgb(254,171,162)" d="M 781.072 694.926 C 781.06 694.189 781.09 693.452 781.163 692.719 C 781.879 685.546 787.735 679.86 792.857 675.441 C 791.748 691.026 790.085 686.064 781.072 694.926 z"/>
<path transform="translate(0,0)" fill="rgb(228,97,95)" d="M 855.198 673.859 L 857.246 677.654 C 854.969 685.261 842.785 684.426 847.308 700.809 L 839.312 700.142 C 837.377 684.85 840.716 679.283 855.198 673.859 z"/>
<path transform="translate(0,0)" fill="rgb(228,97,95)" d="M 772.059 631.76 C 776.189 633.919 774.952 632.657 777.146 636.35 C 778.119 645.512 768.122 650.153 760.523 651.407 C 758.787 644.74 766.726 642.413 770.685 634.512 C 771.153 633.6 771.611 632.682 772.059 631.76 z"/>
<path transform="translate(0,0)" fill="rgb(130,72,45)" d="M 1016.11 148.774 C 1027.99 128.503 1024.09 144.178 1037.9 144.015 C 1051.34 134.143 1049.8 146.814 1055.93 151.756 L 1063.57 150.835 C 1067.07 152.815 1065.93 151.688 1067.96 155.052 C 1066.86 171.408 1074.49 164.796 1078.67 171.186 C 1078.79 175.513 1076.75 178.881 1074.89 182.828 C 1083.99 194.967 1082.83 198.852 1068.21 203.097 C 1065.73 189.702 1063.75 183.617 1053.34 174.054 C 1050.58 177.242 1048.07 180.953 1044.3 182.298 C 1039.43 181.583 1038.4 179.628 1034.58 175.902 C 1022.92 188.86 1028 180.313 1015.62 183.358 C 1013.82 185.901 1013.68 186.398 1012.54 189.344 C 1006.34 191.991 1001.39 183.079 995.842 193.431 C 991.744 201.076 997.511 220.632 996.088 223.698 C 993.483 223.674 994.661 224.019 992.446 222.579 C 986.072 210.473 982.413 220.52 974.934 216.023 C 973.735 212.314 975.208 209.396 976.42 205.501 L 966.371 199.448 L 972.745 190.082 C 970.208 185.703 967.304 182.103 968.534 177.319 C 970.664 173.925 974.691 172.303 978.369 170.272 C 979.076 154.239 980.422 155.902 995.428 155.971 C 997.247 149.35 997.429 144.407 1004.69 142.73 C 1009.2 143.349 1012.36 146.125 1016.11 148.774 z"/>
<path transform="translate(0,0)" fill="rgb(254,174,63)" d="M 1197.62 117.346 C 1202.86 118.959 1205.78 129.501 1207.63 134.296 L 1212.09 137.174 C 1215.07 139.059 1215.96 139.126 1217.24 142.252 C 1215.87 146.7 1211.4 148.699 1207.24 151.389 C 1204.92 157.752 1203.66 161.525 1200.26 167.456 C 1191.83 166.01 1194.7 156.841 1190.25 151.552 C 1186.84 147.495 1181.02 148.378 1179.89 141.518 C 1181.71 138.684 1187.24 136.002 1190.46 134.15 C 1192.74 127.897 1194.29 123.186 1197.62 117.346 z"/>
<path transform="translate(0,0)" fill="rgb(254,240,199)" d="M 1198.55 134.805 C 1200.88 137.401 1203.39 139.984 1205.8 142.526 L 1198.59 150.38 L 1193.02 143.876 C 1192.81 140.589 1195.82 138.416 1198.55 134.805 z"/>
<path transform="translate(0,0)" fill="rgb(254,174,63)" d="M 1148.13 207.653 C 1149.81 210.922 1152.57 218.88 1153.99 222.622 L 1164.14 228.136 C 1160.77 229.893 1157.02 232.208 1153.7 234.163 C 1151.96 238.408 1150.27 243.127 1148.63 247.45 C 1145.69 244.614 1143.79 238.016 1142.26 233.872 L 1132.6 227.888 L 1142.09 222.855 L 1148.13 207.653 z"/>
<path transform="translate(0,0)" fill="rgb(174,164,164)" d="M 1733.51 676.755 C 1743.1 670.478 1746.28 664.379 1753.45 656.34 C 1757.81 651.456 1767.94 651.374 1768.16 643.61 C 1768.22 641.482 1769.03 639.871 1770.62 638.37 C 1789.05 629.148 1822.2 660.722 1829.73 676.259 C 1835.06 687.094 1835.75 699.634 1831.64 710.99 C 1825.19 728.83 1810.04 740.548 1794.66 750.249 C 1794.65 778.431 1796.64 762.773 1808.9 780.81 C 1829.99 788.321 1872.81 793.579 1889.23 801.678 C 1914.72 814.244 1937.4 889.275 1946.67 915.068 C 1955.38 939.323 1967.37 967.385 1970.52 991.513 C 1971.39 998.71 1971.41 1005.98 1970.59 1013.19 C 1970.03 1018.25 1969.03 1024.68 1967.87 1029.58 C 1960.07 1062.32 1956.55 1098.85 1948.1 1131.09 C 1943.68 1135.34 1941.46 1128.4 1939.66 1139.04 C 1937.28 1153.05 1950.18 1189.9 1942.13 1199.5 C 1931.99 1202.85 1927.08 1180.25 1925.02 1173.84 C 1924.34 1186.21 1929.59 1200.98 1929.55 1213.23 C 1929.51 1226.82 1924.18 1229.02 1925.02 1244.05 C 1940.76 1252.14 1974.43 1268.49 1987.86 1277.3 C 1987.18 1306.18 1985.28 1335.11 1984.43 1364 L 1791.99 1364 C 1780.91 1354.44 1772.31 1355.6 1761.26 1348.73 C 1760.84 1333.04 1764.37 1317.85 1764.92 1301.84 C 1766.11 1267.13 1769.94 1237.88 1764.55 1203.24 L 1756.05 1196.89 C 1752.1 1204.68 1745.65 1230.31 1743.15 1239.81 C 1732.46 1280.43 1721.61 1322.73 1713.98 1364 L 1614.8 1364 C 1615.49 1341.97 1623.87 1303.42 1627.57 1280.54 C 1636.73 1223.83 1648.25 1166.64 1656.73 1109.85 C 1642.44 1103.77 1636.85 1102.51 1643.43 1085.61 C 1654.04 1058.38 1656.44 1030.38 1655.64 1001.57 C 1649.11 1017.16 1638.73 1034.48 1630.62 1049.47 C 1615.27 1077.82 1598.69 1105.53 1582.77 1133.53 L 1568.83 1125 C 1553.7 1145.13 1539.79 1167.38 1530.65 1191.11 C 1527.41 1194.03 1512.88 1205.89 1509.59 1205.37 C 1488.68 1202.07 1485.94 1207.55 1469.14 1192.9 C 1456.53 1193.48 1451.63 1193.6 1439.44 1192.29 L 1460.18 1256.21 L 1445.01 1258.53 L 1462.17 1321.6 C 1465.64 1334.45 1470.61 1351.16 1472.9 1364 L 1386.68 1364 C 1374.18 1334.46 1360.03 1304.19 1347.01 1274.62 C 1326.99 1277.03 1309.34 1278.78 1289.26 1279.54 C 1286.96 1303.57 1281.48 1341.35 1280.84 1364 L 1207.09 1364 L 1202.23 1270.76 L 1189.83 1267.58 C 1195.37 1204.26 1189.97 1162.96 1207.51 1097.21 L 1204.4 1097.87 C 1193.07 1117.95 1192.04 1138.47 1190.03 1160.7 C 1189.35 1168.21 1188.65 1176.51 1185.56 1183.42 C 1183.34 1185.56 1183.46 1185.44 1180.4 1186.06 C 1168.37 1181.27 1173.88 1157.08 1163.93 1155.22 C 1152.5 1160.88 1143.02 1192.35 1127.21 1192.88 C 1123.46 1191.81 1123.05 1191.17 1120.38 1188.25 C 1116.37 1179.02 1132.73 1160.49 1136.41 1150.09 L 1135.39 1150.08 C 1125.18 1159.99 1113.92 1184.25 1098.48 1184.85 C 1081.41 1176.98 1115.67 1144.25 1117.43 1138.06 C 1111.57 1141.98 1102.82 1149.16 1096.09 1148.28 C 1093.34 1146.29 1092.02 1143.55 1093.79 1140.24 C 1102.5 1123.97 1118.38 1109.86 1126.01 1093.07 L 1126.49 1091.98 L 1128.58 1086.03 L 1140.6 1056.23 L 1142.98 1050.05 L 1149.14 1035.01 L 1150 1031.74 C 1153.29 1025.68 1159.88 1007.91 1162.13 1001.13 C 1164.56 996.669 1191.39 888.948 1190.93 887.197 C 1193.65 886.186 1196.19 878.05 1197.07 875.24 C 1210.5 832.018 1229.25 821.454 1273.94 823.124 C 1274.89 818.995 1275.64 813.931 1278.58 811.091 C 1281.69 810.712 1281.04 811.135 1284.49 813.416 C 1292.13 780.167 1263.5 797.558 1264.82 770.386 C 1265.1 764.539 1267.1 754.169 1268.05 748.092 C 1265.52 743.839 1260.56 737.039 1262.09 732.171 C 1267.29 730.197 1269.39 734.339 1273.8 732.331 C 1277.81 719.087 1270.75 704.34 1291.43 696.226 C 1309.56 689.67 1335.08 689.683 1353.28 695.681 C 1373.84 702.458 1370.09 721.131 1376.44 735.108 C 1372.72 752.56 1373.93 755.906 1366.97 774.105 C 1375.4 773.896 1377.82 774.088 1385.32 777.811 C 1396.5 792.957 1396.14 807.544 1381.47 820.687 C 1372.49 828.735 1361.9 823.95 1356.83 826.132 C 1361.36 829.969 1402.06 826.005 1414.23 837.862 C 1426.83 850.144 1448.35 879.012 1456.98 893.531 C 1456.96 894.605 1456.95 895.86 1456.93 897.296 C 1459.86 900.906 1464.61 906.688 1467.33 910.031 C 1501.84 952.499 1525.44 988.267 1489.59 1040.45 C 1481.2 1052.67 1478.95 1057.68 1467.28 1068.97 C 1455.65 1080.23 1442.96 1091.75 1431.49 1103.23 C 1425.97 1108.75 1427.42 1111.33 1423.97 1116.36 C 1423.3 1117.34 1414.92 1122.26 1413.39 1123.17 C 1419.19 1136.28 1424.57 1149.58 1429.54 1163.03 C 1430.74 1166.36 1434.99 1181.35 1436.2 1182.6 C 1439.16 1181.07 1439.67 1179.57 1441.4 1176.71 C 1454.71 1169.91 1456.57 1177.09 1477.03 1162.18 C 1481.12 1152.86 1485.06 1143.48 1488.83 1134.03 C 1483.51 1141.26 1471.27 1159.67 1461.09 1157.88 C 1449.57 1147.19 1475.37 1115.44 1483.43 1107.39 C 1492.46 1098.39 1505.48 1095.87 1517.48 1093.06 L 1508.77 1087.11 C 1525.35 1056.33 1541.77 1025.46 1558.02 994.51 C 1563.48 984.146 1568.86 973.688 1574.48 963.415 C 1583.42 947.073 1588.27 928.185 1594.03 910.408 C 1601.07 888.946 1608.24 867.527 1615.55 846.152 C 1625.56 816.53 1626.06 799.964 1660.07 791.063 C 1678.31 786.289 1696.6 781.894 1715.07 777.762 C 1733.77 754.657 1732.92 781.735 1732.75 739.326 C 1693.29 717.879 1720.36 719.455 1723.47 692.271 C 1723.68 690.392 1717.1 684.289 1716.89 679.431 C 1720.05 675.092 1728.27 676.574 1733.51 676.755 z M 1214.33 1072.79 L 1215.25 1073.08 C 1218.65 1069.54 1227.72 1052.65 1228.72 1047.21 C 1229.18 1044.74 1229.12 1038.13 1229.07 1035.36 C 1225.85 1046.82 1219.05 1061.66 1214.33 1072.79 z M 1878.54 1190.62 C 1879.04 1201.1 1880.18 1209.11 1881.69 1219.53 C 1891.54 1224.85 1901.45 1230.05 1911.42 1235.14 C 1911 1230.08 1910.72 1225.55 1909.72 1220.57 C 1907.95 1212.96 1906.71 1210.53 1903.42 1203.62 C 1903.15 1211.21 1903.1 1222.87 1892.35 1223.27 C 1879.04 1219.12 1882.81 1194.57 1878.54 1190.62 z M 1396.7 956.643 C 1390.51 975.839 1382.35 1004.57 1379.35 1024.28 L 1384.42 1032.96 L 1395.84 1021.28 C 1402 1014.92 1418.34 996.65 1425.48 993.359 C 1420.47 984.928 1403.59 962.049 1396.7 956.643 z M 1869.19 1081.71 L 1870.41 1083.54 C 1872.06 1078.22 1874.3 1061.9 1875.29 1055.67 C 1878.09 1037.76 1881.02 1019.88 1884.1 1002.02 C 1875.4 980.673 1867.04 959.189 1859.03 937.574 C 1830.97 1015.05 1837.74 1007.37 1869.19 1081.71 z"/>
<path transform="translate(0,0)" fill="rgb(18,17,18)" fill-opacity="0.0117647" d="M 1229.07 1035.36 C 1229.12 1038.13 1229.18 1044.74 1228.72 1047.21 C 1227.72 1052.65 1218.65 1069.54 1215.25 1073.08 L 1214.33 1072.79 C 1219.05 1061.66 1225.85 1046.82 1229.07 1035.36 z"/>
<path transform="translate(0,0)" fill="rgb(97,96,97)" d="M 1214.33 1072.79 L 1215.25 1073.08 C 1212.41 1081.04 1209.83 1089.09 1207.51 1097.21 L 1204.4 1097.87 C 1207.19 1089.27 1210.8 1081.11 1214.33 1072.79 z"/>
<path transform="translate(0,0)" fill="rgb(174,164,164)" d="M 369.872 718.645 C 315.923 680.637 317.194 632.841 383.196 605.496 C 394.059 600.995 400.285 605.299 401.65 616.664 C 420.191 625.773 417.607 634.42 432.438 646.881 C 438.195 647.032 447.059 646.091 450.151 651.42 C 449.414 656.65 443.476 660.304 442.761 664.53 C 441.883 671.712 446.568 679.298 450.424 685.052 C 458.934 697.754 441.325 704.951 431.716 709.608 C 431.979 715.466 432.583 735.593 436.189 739.093 C 446.326 739.714 447.532 741.319 453.424 749.08 C 472.49 753.59 505.892 764.327 521.253 777.331 C 526.31 781.612 534.441 801.424 537.648 808.572 C 547.723 830.998 557.648 853.491 567.424 876.049 C 572.856 888.655 579.701 905.821 586.086 917.283 C 588.178 921.039 604.542 937.457 608.616 941.665 L 654.904 989.489 C 660.946 979.01 696.316 925.895 697.142 919.914 C 695.961 917.026 695.673 916.607 695.422 913.557 C 700.864 902.03 728.762 864.563 739.311 855.785 C 743.406 852.377 755.952 846.328 761.078 843.438 C 763.495 842.076 763.186 839.421 763.539 836.446 L 758.081 833.181 C 756.313 838.206 753.7 848.417 746.958 847.039 C 744.682 841.363 750.852 832.389 751.814 826.06 C 762.597 805.612 748.949 750.115 773.029 725.844 C 789.972 708.766 812.116 700.789 835.724 699.913 L 839.312 700.142 L 847.308 700.809 C 878.752 712.85 858.06 736.707 900.957 755.379 C 908.306 758.221 925.399 762.034 928.194 766.679 L 927.723 769.048 C 921.836 771.712 910.779 766.759 903.845 764.686 C 908.949 768.045 914.861 772.154 920.095 775.13 C 912.205 783.075 902.641 786.362 892.39 790.969 C 890.899 797.262 886.556 817.517 884.631 822.546 C 885.143 827.176 884.413 826.619 886.905 829.934 C 893.52 832.352 905.444 829.747 912.694 829.42 C 938.544 828.253 961.169 847.097 970.652 870.277 C 971.303 871.868 974.1 878.029 974.908 879.391 C 976.483 885.531 988.382 914.137 991.316 920.142 L 1000.06 941.51 C 992.473 944.412 984.827 947.168 977.13 949.777 C 988.079 987.326 999.743 1024.66 1012.12 1061.77 C 1022.05 1091.12 1029.41 1115.05 1048.28 1139.85 C 1053.22 1146.34 1073.93 1172.94 1061.05 1177.71 C 1047.9 1176.27 1042.48 1160.51 1034.09 1162.79 C 1024.3 1174.35 1042.06 1213.36 1022.23 1215.82 C 1007.44 1217.66 1011.42 1184.41 1007.31 1176.33 L 1008.11 1178.47 L 1007.25 1176.03 C 1003.78 1187.19 1010.87 1217.22 998.589 1226.39 C 996.485 1226.71 995.507 1226.88 993.627 1225.36 C 978.426 1213.01 987.933 1193.25 984.564 1177.7 L 983.596 1176.9 C 982.081 1184.18 981.521 1200.16 971.46 1199.03 C 966.536 1195.59 965.408 1192.1 966.085 1186.09 C 969.219 1158.23 962.902 1144.87 950.409 1119.99 C 957.737 1150.01 964.484 1205.32 969.464 1238.06 C 960.452 1241.74 953.571 1243.96 944.231 1246.81 C 942.355 1286.6 939.174 1324.42 936.555 1364 L 865.189 1364 C 863.73 1355.99 862.506 1333.65 861.897 1324.53 C 860.56 1304.52 857.272 1280.71 856.945 1261.05 C 843.159 1261.46 829.345 1261.21 815.552 1261.06 C 809.764 1272.23 802.798 1288.89 797.314 1300.75 L 767.447 1364 L 683.285 1364 C 694.795 1327.16 708.298 1281.06 718.163 1243.88 L 708.079 1240.36 L 752.968 1119.16 C 760.845 1098.19 773.29 1059.33 786.77 1043.15 C 772.782 1038.54 761.447 1033.18 751.084 1022.49 C 754.915 1003.41 761.266 980.596 766.085 961.442 C 754.667 980.509 728.581 1014.28 714.811 1034.03 C 722.203 1037.72 738.086 1043.87 737.654 1053.55 C 731.684 1062.99 715.849 1056.79 707.206 1054.39 L 705.05 1067.47 C 710.624 1077.77 730.945 1099.39 722.722 1111 C 716.218 1120.18 706.525 1110.84 700.728 1105.61 C 697.69 1111.42 707.116 1122.35 703.923 1133.48 C 700.051 1146.96 718.915 1191.26 704.862 1199.9 C 690.131 1200.5 695.705 1180.82 684.407 1176.45 C 674.401 1179.65 669.821 1212.67 663.222 1217.84 C 660.81 1219.77 657.712 1220.62 654.656 1220.19 C 637.961 1217.95 654.067 1183.51 656.636 1171.92 C 650.488 1181.17 638.675 1220.32 627.342 1219.77 C 604.23 1218.66 632.685 1178.02 632.716 1170.39 C 628.763 1171.92 626.752 1182.38 618.448 1186.29 C 615.016 1186.65 614.621 1186.52 611.511 1185.01 C 607.268 1178.67 611.802 1171.24 615.518 1164.84 C 629.759 1140.29 628.302 1108.31 630.292 1079.19 C 628.022 1076.52 626.585 1074.17 623.383 1073.04 C 622.427 1073.21 617.871 1073.98 617.468 1073.63 C 586.748 1047.11 555.705 1014.71 526.815 986.039 C 520.163 979.438 514.642 969.284 512.254 965.128 C 510.57 998.703 510.078 1036.2 523.423 1069.55 C 524.581 1072.45 527.13 1069.28 530.156 1072.85 C 530.302 1081.22 523.275 1084.11 516.912 1087.95 L 543.569 1242.69 C 550.598 1282.88 559.104 1323.36 561.76 1364 L 460.747 1364 C 456.148 1340.75 424.111 1189.97 414.564 1180.17 C 411.265 1180.68 408.764 1183.33 406.044 1185.56 L 374.033 1295.06 C 368.591 1313.77 359.875 1346.92 353.299 1364 L 241.424 1364 C 264.277 1274.03 280.88 1180.44 302.412 1089.97 C 304.689 1080.41 289.518 1082.65 292.556 1072.36 C 301.926 1040.66 323.411 1010.69 325.416 977.194 C 324.682 956.062 307.577 915.384 299.993 893.297 C 287.33 917.927 269.601 942.84 255.151 966.538 C 251.093 973.194 240.687 991.651 236.126 996.749 C 207.021 1029.27 174.566 1059.5 143.82 1090.54 C 143.89 1090.47 138.892 1091.38 138.685 1091.56 C 128.244 1101.73 109.898 1155.32 92.4947 1150.25 C 86.1684 1143.85 95.745 1127.42 94.9003 1119.16 C 87.5127 1107.77 56.0909 1142.02 42.6456 1135.52 C 18.0083 1123.6 64.9648 1107.99 68.0898 1098.13 L 66.8294 1099.65 L 66.0494 1098.31 C 55.2205 1102.59 27.7289 1122.73 16.8666 1114.23 C 6.92653 1097.69 50.9645 1082.4 61.9288 1076.33 C 53.1927 1078.22 34.374 1086.85 28.7344 1077.69 C 29.5668 1069.46 42.3421 1064.25 48.8191 1060.49 C 60.752 1053.57 74.1129 1047.27 84.8221 1038.46 C 86.4071 1033.66 82.0969 1035.83 82.4387 1030.7 C 114.455 989.958 158.061 960.386 181.045 912.698 C 183.799 906.983 189.41 898.325 193.007 892.621 C 217.444 853.871 229.358 804.161 269.136 777.141 C 290.493 763.987 332.496 762.542 358.38 752.006 C 362.717 745.351 363.676 744.25 370.995 741.465 L 369.872 718.645 z"/>
<path transform="translate(0,0)" fill="rgb(254,240,199)" d="M 884.631 822.546 L 879.928 819.68 C 879.088 817.433 882.119 806.735 882.621 803.184 C 880.791 801.726 880.633 801.727 879.274 799.709 L 880.265 797.108 C 883.204 794.041 888.265 792.565 892.39 790.969 C 890.899 797.262 886.556 817.517 884.631 822.546 z"/>
<path transform="translate(0,0)" fill="rgb(254,240,199)" d="M 758.081 833.181 C 763.731 806.942 761.353 793.768 764.597 770.035 C 765.506 776.111 764.59 828.797 763.539 836.446 L 758.081 833.181 z"/>
<path transform="translate(0,0)" fill="rgb(55,39,49)" d="M 939.401 598.843 C 942.657 598.047 977.589 609.484 985.069 611.222 C 1043.8 624.861 1081.92 620.558 1136.8 599.037 L 1150 749.735 C 1153.83 793.511 1158.43 836.792 1158.61 880.774 C 1158.62 884.83 1158.31 895.048 1159.86 898.075 L 1160.84 898.833 L 1159.41 899.172 C 1158.55 903.786 1159.43 910.165 1159.64 914.97 C 1160.88 943.556 1160.34 972.609 1162.13 1001.13 C 1159.88 1007.91 1153.29 1025.68 1150 1031.74 L 1149.14 1035.01 L 1142.98 1050.05 L 1140.6 1056.23 L 1128.58 1086.03 L 1126.49 1091.98 L 1107.62 1082.94 L 1107.55 1096.23 L 1077.98 1096.19 C 1077.84 1086.82 1077.95 1077.23 1077.96 1067.83 C 1077.67 1057.1 1078.04 1044.85 1078.12 1034 C 1076.86 1033.88 1074.34 1033.29 1072.98 1033.02 C 1070.1 1029.48 1068.22 931.135 1067.88 919.478 C 1052.39 922.831 1006.9 923.556 991.316 920.142 C 988.382 914.137 976.483 885.531 974.908 879.391 C 974.1 878.029 971.303 871.868 970.652 870.277 C 961.169 847.097 938.544 828.253 912.694 829.42 C 905.444 829.747 893.52 832.352 886.905 829.934 C 884.413 826.619 885.143 827.176 884.631 822.546 C 886.556 817.517 890.899 797.262 892.39 790.969 C 902.641 786.362 912.205 783.075 920.095 775.13 C 914.861 772.154 908.949 768.045 903.845 764.686 C 910.779 766.759 921.836 771.712 927.723 769.048 L 928.194 766.679 C 925.399 762.034 908.306 758.221 900.957 755.379 C 913.51 703.136 926.325 650.957 939.401 598.843 z"/>
<path transform="translate(0,0)" fill="rgb(254,240,199)" d="M 1036.27 685.777 C 1039.81 692.015 1043.49 716.193 1045 724.873 C 1055.85 787.016 1067.45 856.171 1067.88 919.478 C 1052.39 922.831 1006.9 923.556 991.316 920.142 C 988.382 914.137 976.483 885.531 974.908 879.391 L 1027.75 692.115 C 1028.34 691.392 1035.07 686.642 1036.27 685.777 z"/>
<path transform="translate(0,0)" fill="rgb(130,72,45)" d="M 1078.12 1034 C 1090.29 1033.98 1103.18 1036.12 1115.52 1035.53 C 1118.43 1035.38 1122.71 1035.09 1125.43 1035.25 C 1129.53 1041.72 1135.21 1050.92 1140.6 1056.23 L 1128.58 1086.03 L 1126.49 1091.98 L 1107.62 1082.94 L 1107.55 1096.23 L 1077.98 1096.19 C 1077.84 1086.82 1077.95 1077.23 1077.96 1067.83 C 1077.67 1057.1 1078.04 1044.85 1078.12 1034 z"/>
<path transform="translate(0,0)" fill="rgb(55,39,49)" d="M 1077.96 1067.83 C 1099.7 1071.71 1108.96 1075.33 1128.58 1086.03 L 1126.49 1091.98 L 1107.62 1082.94 L 1107.55 1096.23 L 1077.98 1096.19 C 1077.84 1086.82 1077.95 1077.23 1077.96 1067.83 z"/>
<path transform="translate(0,0)" fill="rgb(97,96,97)" d="M 1027.75 692.115 C 1026.99 690.366 1026.26 688.605 1025.55 686.833 C 1026.99 682.911 1050.89 664.053 1055.71 664.415 C 1057.47 666.757 1057.04 665.645 1056.9 668.954 C 1054.65 672.398 1040.92 681.817 1036.27 685.777 C 1035.07 686.642 1028.34 691.392 1027.75 692.115 z"/>
<path transform="translate(0,0)" fill="rgb(130,72,45)" d="M 1132.28 1035 L 1132.77 1034.51 C 1138.01 1034.75 1143.94 1035.16 1149.14 1035.01 L 1142.98 1050.05 C 1140.49 1046.05 1135.71 1037.42 1132.28 1035 z"/>
<path transform="translate(0,0)" fill="rgb(254,171,162)" d="M 1132.77 1034.51 C 1139.04 1033.19 1143.63 1032.49 1150 1031.74 L 1149.14 1035.01 C 1143.94 1035.16 1138.01 1034.75 1132.77 1034.51 z"/>
<path transform="translate(0,0)" fill="rgb(97,96,97)" d="M 1065.51 848.667 C 1069.93 848.359 1079.16 856.534 1090.75 859.089 L 1091.91 859.336 C 1094.33 861.796 1093.59 860.814 1093.91 865.132 C 1085.14 866.123 1074.02 863.247 1067.79 856.537 C 1064.73 853.244 1065.32 852.814 1065.51 848.667 z"/>
<path transform="translate(0,0)" fill="rgb(97,96,97)" d="M 1085.96 835.212 C 1089.67 834.991 1088.37 834.528 1090.95 836.606 C 1092.22 842.948 1077.37 844.769 1072.21 846.051 L 1069.5 846.219 C 1066.88 844.6 1067.75 845.701 1066.75 842.855 C 1070.05 837.958 1079.8 836.697 1085.96 835.212 z"/>
<path transform="translate(0,0)" fill="rgb(254,174,63)" d="M 1571.42 453.405 C 1584.53 436.066 1608.93 432.067 1626.88 444.317 C 1644.83 456.567 1650 480.752 1638.63 499.272 C 1627.26 517.792 1603.36 524.124 1584.31 513.66 C 1565.26 503.196 1557.78 479.622 1567.32 460.093 C 1568.47 457.736 1569.84 455.497 1571.42 453.405 z"/>
<path transform="translate(0,0)" fill="rgb(248,236,235)" d="M 1585.87 454.787 C 1594.76 447.914 1606.78 446.685 1616.88 451.616 C 1626.98 456.546 1633.4 466.782 1633.45 478.02 C 1633.5 489.258 1627.16 499.549 1617.11 504.566 C 1603.51 511.349 1586.99 506.71 1578.92 493.842 C 1570.84 480.974 1573.85 464.078 1585.87 454.787 z"/>
<path transform="translate(0,0)" fill="rgb(225,210,209)" d="M 1585.87 454.787 C 1574.23 483.216 1585.87 503.004 1617.11 504.566 C 1603.51 511.349 1586.99 506.71 1578.92 493.842 C 1570.84 480.974 1573.85 464.078 1585.87 454.787 z"/>
<path transform="translate(0,0)" fill="rgb(55,39,49)" d="M 1603.38 450.797 C 1608.34 450.954 1608.9 450.765 1612.05 453.567 C 1614.72 461.145 1606.48 468.925 1610.03 475.492 C 1614.23 475.07 1617.2 473.819 1619.06 478.032 C 1618.13 481.381 1615.06 482.922 1612.13 486.341 L 1611.66 486.896 C 1607.66 489.832 1604.36 492.445 1599.21 491.722 C 1592 484.927 1605.3 460.947 1603.38 450.797 z"/>
<path transform="translate(0,0)" fill="url(#Gradient1)" d="M 1378.72 271.135 C 1375.81 268.49 1373.63 266.831 1374.35 262.887 C 1379.88 261.222 1385.35 267.668 1388.7 271.087 L 1571.42 453.405 C 1569.84 455.497 1568.47 457.736 1567.32 460.093 L 1460.21 352.923 C 1449.71 342.371 1415.92 307.109 1406.15 300.117 C 1406.38 300.241 1390.92 283.38 1388.96 281.411 L 1383.03 275.546 L 1378.72 271.135 z"/>
<path transform="translate(0,0)" fill="rgb(225,210,209)" d="M 1452.33 516.273 C 1474.14 504.672 1494.69 497.095 1514.37 480.636 C 1518.05 477.559 1527.32 470.267 1531.86 470.961 C 1536.99 481.473 1469.74 515.814 1459.97 519.864 C 1457.43 520.899 1454.85 521.792 1452.21 522.538 C 1452.74 520.071 1452.5 518.748 1452.33 516.273 z"/>
</svg>