<svg version="1.1" xmlns="http://www.w3.org/2000/svg" style="display: block;" viewBox="0 0 2048 2048" width="2000" height="2000" preserveAspectRatio="none">
<path transform="translate(0,0)" fill="rgb(238,237,237)" d="M 844.16 517.412 C 861.968 476.413 876.731 443.269 921.404 425.551 C 945.408 416.031 967.052 416.163 992.403 414.573 C 1030.72 410.84 1075.18 403.231 1099.75 370.309 C 1104.61 363.797 1110.79 355.799 1113.67 348.507 C 1138.46 285.971 1071.89 234.034 1014.2 261.718 C 995.929 269.612 981.342 281.236 973.497 299.904 C 960.163 331.633 982.363 370.682 1019.16 359.419 C 1029.03 356.397 1027.3 341.692 1031.42 336.362 C 1037.21 338.602 1036 356.635 1033.49 361.751 C 1021.97 385.252 988.528 391.39 965.037 386.447 C 939.429 381.594 916.84 358.031 908.939 333.692 C 887.492 267.626 930.416 217.09 988.902 196.605 C 1054.87 174.151 1127.09 179.074 1189.4 210.272 C 1259.02 244.371 1295.58 304.692 1295.38 381.623 C 1389.85 393.959 1462.58 425.654 1446.33 533.939 C 1443.12 555.308 1438.98 556.739 1428.55 574.104 C 1442.36 580.739 1456.02 586.45 1469.48 594.006 C 1507.58 615.39 1540.84 646.734 1555.38 689.091 C 1570.31 732.586 1564.36 778.673 1545.12 820.114 C 1537.54 836.451 1512.1 854.302 1514.22 868.414 C 1514.78 872.162 1525.34 891.049 1527.92 896.285 C 1534.41 909.464 1540.68 924.154 1545 938.349 C 1548.53 949.977 1550.25 963.333 1551.4 975.409 C 1551.87 980.309 1551.6 996.391 1552.72 999.857 L 1552.12 1001.79 C 1550.55 1006.96 1549.3 1013.86 1548.36 1019.26 C 1537.44 1081.73 1459.64 1143.14 1395.42 1128.02 C 1385.69 1189.64 1342.78 1222.12 1286.08 1240.23 C 1279.23 1242.42 1256.37 1246.32 1252.11 1249.23 C 1266.22 1261.95 1311.12 1302.15 1320.15 1317.48 C 1330.26 1320.22 1355.75 1331.08 1353.12 1343.74 L 1350.38 1343.75 C 1351.7 1345.72 1354.43 1347.65 1356.38 1349.09 C 1365.3 1355.74 1368.53 1359.79 1373.51 1369.89 L 1356.63 1367.17 C 1360.63 1368.72 1365.45 1370.54 1369.09 1372.78 C 1381.59 1380.47 1389.25 1408.22 1376.85 1418.81 C 1374.23 1419.28 1374.32 1419.12 1371.73 1418.34 C 1372.16 1421.63 1388.63 1451.13 1391.43 1457.05 C 1397.15 1469.12 1402.61 1480.86 1407.58 1493.69 C 1413.73 1509.57 1412.04 1524.56 1414.91 1539.07 C 1440.64 1539.69 1493.62 1541.88 1506.13 1568.18 C 1512.68 1589.07 1492.36 1713.42 1487.44 1743 C 1513.22 1743.17 1539.01 1743.17 1564.79 1743 L 1684.65 1742.93 L 1684.65 1812.78 L 395.295 1812.77 C 396.091 1790.32 395.76 1765.59 395.851 1742.96 C 420.999 1743.27 446.553 1743.05 471.733 1743.05 C 394.398 1639.34 360.977 1509.37 378.692 1381.22 C 388.331 1308.1 425.223 1188.64 485.477 1142.43 C 480.58 1128.01 475.45 1103.14 472.778 1088 C 459.554 1013.07 457.691 927.341 489.006 856.552 C 514.347 799.268 555.595 763.802 613.087 741.406 C 613.06 684.152 627.15 594.974 696.78 584.527 C 697.167 584.331 697.554 584.136 697.94 583.941 C 741.415 536.424 778.862 521.428 844.16 517.412 z"/>
<path transform="translate(0,0)" fill="rgb(105,105,105)" d="M 844.16 517.412 C 861.968 476.413 876.731 443.269 921.404 425.551 C 945.408 416.031 967.052 416.163 992.403 414.573 C 1030.72 410.84 1075.18 403.231 1099.75 370.309 C 1104.61 363.797 1110.79 355.799 1113.67 348.507 C 1138.46 285.971 1071.89 234.034 1014.2 261.718 C 995.929 269.612 981.342 281.236 973.497 299.904 C 960.163 331.633 982.363 370.682 1019.16 359.419 C 1029.03 356.397 1027.3 341.692 1031.42 336.362 C 1037.21 338.602 1036 356.635 1033.49 361.751 C 1021.97 385.252 988.528 391.39 965.037 386.447 C 939.429 381.594 916.84 358.031 908.939 333.692 C 887.492 267.626 930.416 217.09 988.902 196.605 C 1054.87 174.151 1127.09 179.074 1189.4 210.272 C 1259.02 244.371 1295.58 304.692 1295.38 381.623 C 1389.85 393.959 1462.58 425.654 1446.33 533.939 C 1443.12 555.308 1438.98 556.739 1428.55 574.104 C 1442.36 580.739 1456.02 586.45 1469.48 594.006 C 1507.58 615.39 1540.84 646.734 1555.38 689.091 C 1570.31 732.586 1564.36 778.673 1545.12 820.114 C 1537.54 836.451 1512.1 854.302 1514.22 868.414 C 1514.78 872.162 1525.34 891.049 1527.92 896.285 C 1534.41 909.464 1540.68 924.154 1545 938.349 C 1548.53 949.977 1550.25 963.333 1551.4 975.409 C 1551.87 980.309 1551.6 996.391 1552.72 999.857 L 1552.12 1001.79 C 1550.55 1006.96 1549.3 1013.86 1548.36 1019.26 C 1537.44 1081.73 1459.64 1143.14 1395.42 1128.02 C 1385.69 1189.64 1342.78 1222.12 1286.08 1240.23 C 1279.23 1242.42 1256.37 1246.32 1252.11 1249.23 C 1244.17 1243.18 1232.94 1231.85 1224.88 1225.03 C 1195.17 1199.91 1121.11 1137.22 1084.84 1130.28 C 1079.86 1127.27 1060.91 1107.97 1054.96 1102.54 L 1055.16 1101.7 C 1057.99 1095.29 1071.35 1074.33 1075.66 1067.26 C 1039.1 1041.53 1013.48 1012.04 989.339 975.099 C 980.43 978.712 977.804 978.688 968.503 977.908 C 947.796 969.076 938.084 959.75 926.329 940.432 C 916.255 950.992 892.451 976.341 882.131 985.259 C 868.858 978.731 842.609 979.15 828.148 983.519 C 809.061 976.901 766.571 989.784 748.343 998.61 C 729.452 1007.85 711.629 1019.13 695.192 1032.25 C 687.302 1022 681.244 1004.81 678.873 992.169 C 672.81 960.788 681.048 928.338 701.345 903.649 C 710.281 892.846 723.05 880.857 730.486 869.464 C 724.566 864.72 718.634 860.123 712.82 855.245 C 638.088 792.536 628.667 684.342 682.967 605.291 C 686.086 600.751 695.459 588.973 696.78 584.527 C 697.167 584.331 697.554 584.136 697.94 583.941 C 741.415 536.424 778.862 521.428 844.16 517.412 z"/>
<path transform="translate(0,0)" fill="rgb(220,182,181)" d="M 933.509 825.936 C 921.132 752.979 930.75 638.16 974.312 578.434 C 1093.73 414.703 1386.03 521.015 1413.5 709.044 C 1423.98 780.827 1407.26 815.843 1376.21 876.217 C 1372.29 884.163 1367.24 893.743 1364.05 901.85 C 1362 906.051 1361.34 905.584 1362.01 909.241 C 1365.52 913.061 1371.37 914.347 1376.47 916.784 C 1364.05 915.459 1288.96 904.651 1280.77 906.468 C 1260.34 883.266 1251.22 898.162 1228.66 902.482 C 1220.41 904.062 1203.68 904.341 1194.7 905.008 C 1169.33 906.915 1143.96 908.693 1118.59 910.34 C 1112.05 910.806 1088.79 914.469 1084.45 913.273 C 1056.76 905.645 1028.74 893.189 1001.22 885.014 C 992.793 853.183 968.997 824.101 933.509 825.936 z"/>
<path transform="translate(0,0)" fill="rgb(66,65,65)" d="M 1280.77 906.468 C 1281.22 885.997 1282.05 858.03 1310.08 858.859 C 1324.05 859.271 1336.15 866.176 1347.9 873.042 C 1352.5 876.033 1356.89 878.288 1360.02 882.685 L 1360.27 885.036 C 1353.68 890.412 1319.09 883.991 1304.19 889.1 C 1287.39 894.861 1289.98 901.747 1280.77 906.468 z"/>
<path transform="translate(0,0)" fill="rgb(126,31,30)" d="M 966.913 698.166 C 961.969 660.727 974.773 620.617 997.626 590.913 C 1026.39 553.28 1069.19 528.922 1116.24 523.405 C 1237.78 508.552 1374.98 612.648 1393.36 735.411 C 1396.7 757.675 1391.78 786.927 1377.39 805 C 1339.73 858.067 1246.17 840.895 1195.09 821.801 C 1178.64 827.693 1161.46 831.257 1144.03 832.39 C 1061.34 838.081 973.214 786.602 966.913 698.166 z"/>
<path transform="translate(0,0)" fill="rgb(102,141,203)" d="M 966.913 698.166 C 961.969 660.727 974.773 620.617 997.626 590.913 C 1026.39 553.28 1069.19 528.922 1116.24 523.405 C 1237.78 508.552 1374.98 612.648 1393.36 735.411 C 1396.7 757.675 1391.78 786.927 1377.39 805 C 1374.24 801.516 1373.53 796.675 1372.27 791.998 C 1375.66 784.75 1377.81 779.254 1379.73 771.468 C 1387.85 738.566 1373.9 684.997 1336.21 676.797 C 1326.12 711.88 1308.39 727.197 1271.65 732.252 L 1271.33 732.619 C 1260.79 732.282 1254.4 732.03 1244.2 729.534 C 1242.05 731.425 1242.01 731.375 1239.41 732.628 C 1237.13 730.94 1238.11 732.034 1237.48 728.147 C 1236.19 726.027 1225.27 720.489 1219.75 714.354 L 1218.95 713.49 C 1208.66 703.87 1206.15 687.947 1205.33 674.654 C 1203.92 676.272 1203.35 676.753 1202.24 678.574 L 1201.93 680.385 C 1200.4 680.785 1199.54 681.048 1197.97 681.273 C 1192.85 680.309 1189.06 679.3 1184.11 677.923 C 1181.19 680.289 1178.28 682.725 1175.27 684.973 L 1170.79 682.533 L 1169.56 682.904 C 1170.05 684.785 1170.03 684.919 1170.81 686.693 C 1173.88 689.634 1174.32 690.376 1176.72 693.968 C 1143.68 706.574 1123.34 700.266 1103.71 671.059 L 1103.38 671.162 C 1088.94 638.102 1081.87 601.798 1088.28 565.969 C 1051.09 546.455 1005.63 593.05 990.78 623.706 C 981.624 642.608 977.73 661.656 977.182 682.544 C 973.849 687.189 969.739 694.548 966.913 698.166 z"/>
<path transform="translate(0,0)" fill="rgb(215,103,102)" d="M 1234.98 606.231 C 1263.78 582.233 1293.85 588.931 1316.42 616.859 C 1330.84 634.71 1336.27 653.502 1336.1 676.265 L 1336.21 676.797 C 1326.12 711.88 1308.39 727.197 1271.65 732.252 L 1271.33 732.619 C 1260.79 732.282 1254.4 732.03 1244.2 729.534 C 1242.05 731.425 1242.01 731.375 1239.41 732.628 C 1237.13 730.94 1238.11 732.034 1237.48 728.147 C 1236.19 726.027 1225.27 720.489 1219.75 714.354 L 1218.95 713.49 C 1208.66 703.87 1206.15 687.947 1205.33 674.654 C 1207.82 647.697 1214.68 625.847 1234.86 606.715 L 1234.98 606.231 z"/>
<path transform="translate(0,0)" fill="rgb(160,73,114)" d="M 1271.65 732.252 C 1283.18 702.915 1300.83 675.19 1336.1 676.265 L 1336.21 676.797 C 1326.12 711.88 1308.39 727.197 1271.65 732.252 z"/>
<path transform="translate(0,0)" fill="rgb(160,73,114)" d="M 1205.33 674.654 C 1207.82 647.697 1214.68 625.847 1234.86 606.715 C 1236.4 621.604 1236.02 633.628 1229.07 647.439 C 1226.2 646.949 1223.33 648.271 1221.83 650.768 C 1220.33 653.265 1220.52 656.425 1222.3 658.726 C 1218.69 662.031 1208.07 672.726 1205.33 674.654 z"/>
<path transform="translate(0,0)" fill="rgb(126,31,30)" d="M 1243.45 707.089 L 1246.91 708.522 C 1250.76 708.813 1267.66 713.879 1270.24 716.223 C 1265.19 723.86 1257.11 726.506 1248.26 723.963 L 1244.2 729.534 C 1242.05 731.425 1242.01 731.375 1239.41 732.628 C 1237.13 730.94 1238.11 732.034 1237.48 728.147 C 1236.19 726.027 1225.27 720.489 1219.75 714.354 L 1218.95 713.49 C 1220.62 710.761 1220.83 711.114 1223.75 709.337 C 1231.13 707.331 1235.96 707.205 1243.45 707.089 z"/>
<path transform="translate(0,0)" fill="rgb(215,103,102)" d="M 1219.75 714.354 L 1226.98 713.799 C 1231.89 717.57 1236.29 720.946 1242.29 722.975 C 1241.02 724.387 1238.82 727.004 1237.48 728.147 C 1236.19 726.027 1225.27 720.489 1219.75 714.354 z"/>
<path transform="translate(0,0)" fill="rgb(238,237,237)" d="M 1243.45 707.089 L 1246.91 708.522 C 1240.73 710.208 1233.11 712.5 1226.98 713.799 L 1219.75 714.354 L 1218.95 713.49 C 1220.62 710.761 1220.83 711.114 1223.75 709.337 C 1231.13 707.331 1235.96 707.205 1243.45 707.089 z"/>
<path transform="translate(0,0)" fill="rgb(238,237,237)" d="M 1242.29 722.975 C 1245 720.92 1247.9 718.194 1251.1 717.722 C 1251.38 720.382 1250.13 721.061 1248.26 723.963 L 1244.2 729.534 C 1242.05 731.425 1242.01 731.375 1239.41 732.628 C 1237.13 730.94 1238.11 732.034 1237.48 728.147 C 1238.82 727.004 1241.02 724.387 1242.29 722.975 z"/>
<path transform="translate(0,0)" fill="rgb(173,63,61)" d="M 1257.11 692.68 C 1265.7 699.229 1269.86 705.262 1270.24 716.223 C 1267.66 713.879 1250.76 708.813 1246.91 708.522 L 1243.45 707.089 C 1239.28 704.391 1232.22 700.869 1235.6 695.212 C 1244.01 690.958 1247.87 692.996 1257.11 692.68 z"/>
<path transform="translate(0,0)" fill="rgb(126,31,30)" d="M 1223.75 709.337 C 1219.02 702.118 1213.84 688.665 1225.98 685.396 C 1237.07 682.415 1247.68 687.454 1257.11 692.68 C 1247.87 692.996 1244.01 690.958 1235.6 695.212 C 1232.22 700.869 1239.28 704.391 1243.45 707.089 C 1235.96 707.205 1231.13 707.331 1223.75 709.337 z"/>
<path transform="translate(0,0)" fill="rgb(238,237,237)" d="M 1229.07 647.439 C 1232.19 647.97 1234.57 650.504 1234.91 653.645 C 1235.24 656.786 1233.45 659.769 1230.52 660.95 C 1227.6 662.131 1224.24 661.223 1222.3 658.726 C 1220.52 656.425 1220.33 653.265 1221.83 650.768 C 1223.33 648.271 1226.2 646.949 1229.07 647.439 z"/>
<path transform="translate(0,0)" fill="rgb(238,237,237)" d="M 1273.51 666.503 C 1276.05 665.403 1278.99 665.808 1281.14 667.554 C 1283.29 669.3 1284.29 672.096 1283.73 674.807 C 1283.17 677.519 1281.15 679.694 1278.49 680.451 C 1274.73 681.52 1270.78 679.489 1269.47 675.807 C 1268.16 672.126 1269.92 668.056 1273.51 666.503 z"/>
<path transform="translate(0,0)" fill="rgb(126,31,30)" d="M 966.913 698.166 C 961.969 660.727 974.773 620.617 997.626 590.913 C 1026.39 553.28 1069.19 528.922 1116.24 523.405 C 1237.78 508.552 1374.98 612.648 1393.36 735.411 C 1396.7 757.675 1391.78 786.927 1377.39 805 C 1374.24 801.516 1373.53 796.675 1372.27 791.998 C 1375.66 784.75 1377.81 779.254 1379.73 771.468 C 1387.85 738.566 1373.9 684.997 1336.21 676.797 L 1336.1 676.265 C 1336.27 653.502 1330.84 634.71 1316.42 616.859 C 1293.85 588.931 1263.78 582.233 1234.98 606.231 C 1223.01 548.779 1167.89 524.62 1114.45 541.559 C 1101.58 545.639 1094.11 554.243 1088.71 565.992 L 1088.28 565.969 C 1051.09 546.455 1005.63 593.05 990.78 623.706 C 981.624 642.608 977.73 661.656 977.182 682.544 C 973.849 687.189 969.739 694.548 966.913 698.166 z"/>
<path transform="translate(0,0)" fill="rgb(126,31,30)" d="M 1136.71 687.853 C 1117.69 675.474 1133.88 659.806 1146.97 651.268 C 1167.56 637.838 1197.2 643.402 1187.05 673.876 C 1192.96 675.065 1196.78 675.646 1202.24 678.574 L 1201.93 680.385 C 1200.4 680.785 1199.54 681.048 1197.97 681.273 C 1192.85 680.309 1189.06 679.3 1184.11 677.923 C 1181.19 680.289 1178.28 682.725 1175.27 684.973 L 1170.79 682.533 L 1169.56 682.904 C 1170.05 684.785 1170.03 684.919 1170.81 686.693 C 1168.73 687.535 1166.66 688.395 1164.59 689.271 C 1153.44 691.22 1147.49 691.711 1136.71 687.853 z"/>
<path transform="translate(0,0)" fill="rgb(173,63,61)" d="M 1136.71 687.853 C 1142.21 649.817 1172.67 662.058 1170.49 672.442 C 1166.36 677.007 1162.29 676.299 1155.98 676.734 L 1164.59 689.271 C 1153.44 691.22 1147.49 691.711 1136.71 687.853 z"/>
<path transform="translate(0,0)" fill="rgb(238,237,237)" d="M 1187.05 673.876 C 1192.96 675.065 1196.78 675.646 1202.24 678.574 L 1201.93 680.385 C 1200.4 680.785 1199.54 681.048 1197.97 681.273 C 1192.85 680.309 1189.06 679.3 1184.11 677.923 C 1181.13 677.262 1178.23 677.038 1176.08 675.06 C 1179.16 673.563 1183.46 673.912 1187.05 673.876 z"/>
<path transform="translate(0,0)" fill="rgb(160,73,114)" d="M 1088.28 565.969 L 1088.71 565.992 C 1111.38 588.992 1109.18 619.433 1106.77 649.862 C 1106.22 656.87 1104.29 664.276 1103.71 671.059 L 1103.38 671.162 C 1088.94 638.102 1081.87 601.798 1088.28 565.969 z"/>
<path transform="translate(0,0)" fill="rgb(238,237,237)" d="M 1123.72 636.494 C 1127.4 635.168 1131.45 637.076 1132.78 640.754 C 1134.1 644.432 1132.19 648.485 1128.51 649.803 C 1124.83 651.118 1120.79 649.209 1119.47 645.537 C 1118.15 641.866 1120.05 637.819 1123.72 636.494 z"/>
<path transform="translate(0,0)" fill="rgb(238,237,237)" d="M 1195.94 627.53 C 1199.17 626.353 1202.76 627.851 1204.2 630.974 C 1205.64 634.097 1204.43 637.8 1201.44 639.485 C 1199.27 640.705 1196.6 640.603 1194.53 639.221 C 1192.47 637.84 1191.35 635.413 1191.65 632.944 C 1191.95 630.475 1193.6 628.382 1195.94 627.53 z"/>
<path transform="translate(0,0)" fill="rgb(215,103,102)" d="M 977.182 682.544 C 977.73 661.656 981.624 642.608 990.78 623.706 C 1005.63 593.05 1051.09 546.455 1088.28 565.969 C 1081.87 601.798 1088.94 638.102 1103.38 671.162 C 1095.29 697.789 1094.04 703.554 1068.76 688.566 C 1061.49 731.262 1046.04 682.16 1020.09 694.56 C 1014.6 699.591 1012.3 702.108 1008.89 709.074 C 999.931 731.853 1030.16 728.075 1043.13 726.657 C 1044.82 729.17 1047.7 733.16 1049.08 735.676 C 1047.85 736.825 1048.11 736.353 1047.48 737.607 C 1045.15 742.279 1042.3 746.676 1038.99 750.714 C 1020.05 774.134 1000.73 749.014 991.012 732.078 C 981.594 715.669 978.77 701.001 977.182 682.544 z"/>
<path transform="translate(0,0)" fill="rgb(238,237,237)" d="M 1047.79 659.671 C 1051.51 658.898 1055.14 661.297 1055.89 665.017 C 1056.64 668.738 1054.22 672.359 1050.5 673.088 C 1046.8 673.811 1043.22 671.415 1042.48 667.725 C 1041.73 664.036 1044.1 660.438 1047.79 659.671 z"/>
<path transform="translate(0,0)" fill="rgb(102,141,203)" d="M 1336.21 676.797 C 1373.9 684.997 1387.85 738.566 1379.73 771.468 C 1377.81 779.254 1375.66 784.75 1372.27 791.998 C 1361.19 809.206 1347.53 820.482 1326.85 824.9 C 1317.29 826.944 1305.26 827.881 1297.14 821.599 C 1292.36 817.801 1285.41 814.103 1289.99 807.589 C 1297.04 803.573 1304.91 810.491 1315.33 806.835 C 1320.39 802.838 1320.79 801.1 1322.64 794.815 C 1316.54 774.844 1304.69 786.073 1290.38 785.15 C 1282.46 785.556 1289.24 772.627 1286.23 771.452 C 1261.11 761.636 1261.46 764.979 1271.33 732.619 L 1271.65 732.252 C 1308.39 727.197 1326.12 711.88 1336.21 676.797 z"/>
<path transform="translate(0,0)" fill="rgb(238,237,237)" d="M 1302.75 732.534 L 1307.44 733.323 C 1310.85 736.085 1309.76 734.408 1311.05 738.38 C 1310.64 742.333 1309.86 742.892 1307.48 746.017 L 1304.01 745.629 C 1298.39 741.385 1299.37 738.079 1302.75 732.534 z"/>
<path transform="translate(0,0)" fill="rgb(173,63,61)" d="M 1008.89 709.074 C 1012.3 702.108 1014.6 699.591 1020.09 694.56 C 1032.07 699.83 1037.18 708.448 1033.09 721.42 L 1031.47 722.677 C 1021.17 719.435 1025.18 708.364 1008.89 709.074 z"/>
<path transform="translate(0,0)" fill="rgb(173,63,61)" d="M 1304.29 796.6 C 1299.88 798.637 1293.75 803.011 1289.99 798.946 C 1290.2 793.512 1296.36 789.286 1300.99 787.491 C 1308.7 784.496 1315.67 791.315 1322.64 794.815 C 1320.79 801.1 1320.39 802.838 1315.33 806.835 C 1311.43 804.26 1307.64 800.005 1304.29 796.6 z"/>
<path transform="translate(0,0)" fill="rgb(102,141,203)" d="M 1184.11 677.923 C 1189.06 679.3 1192.85 680.309 1197.97 681.273 C 1194.99 683.173 1184.1 689.463 1183.07 691.723 C 1180.58 690.258 1177.49 687.071 1175.27 684.973 C 1178.28 682.725 1181.19 680.289 1184.11 677.923 z"/>
<path transform="translate(0,0)" fill="rgb(238,237,237)" d="M 1035.9 715.446 C 1041.78 719.313 1054.15 727.582 1053.22 735.4 C 1050.55 736.401 1051.88 736.301 1049.08 735.676 C 1047.7 733.16 1044.82 729.17 1043.13 726.657 C 1040.81 723.073 1038.07 719.06 1035.9 715.446 z"/>
<path transform="translate(0,0)" fill="rgb(238,237,237)" d="M 1170.81 686.693 C 1170.03 684.919 1170.05 684.785 1169.56 682.904 L 1170.79 682.533 L 1175.27 684.973 C 1177.49 687.071 1180.58 690.258 1183.07 691.723 C 1183.48 695.539 1184.16 695.359 1182.44 697.626 C 1179.58 697.231 1178.81 696.005 1176.72 693.968 C 1174.32 690.376 1173.88 689.634 1170.81 686.693 z"/>
<path transform="translate(0,0)" fill="rgb(238,237,237)" d="M 1120.55 786.944 C 1124.89 787.401 1128.95 787.878 1131.95 791.228 C 1133.12 794.369 1132.26 796.362 1131.37 799.458 C 1130.16 803.63 1136.97 806.326 1139.88 812.602 C 1139.97 817.999 1136.71 820.657 1133.07 824.423 C 1130.77 825.851 1126.54 828.261 1123.96 827.482 C 1113.47 824.312 1112.4 798.959 1113.61 790.818 C 1115.37 788.129 1117.41 787.942 1120.55 786.944 z"/>
<path transform="translate(0,0)" fill="rgb(126,31,30)" d="M 1122.28 807.537 C 1126.21 807.937 1128.73 808.434 1131.31 811.397 C 1131.86 815.538 1131.9 813.987 1129.85 818.216 C 1125.91 819.52 1127.58 819.788 1124.56 818.543 C 1122.24 815.392 1122.52 811.554 1122.28 807.537 z"/>
<path transform="translate(0,0)" fill="rgb(238,237,237)" d="M 1043.03 750.563 C 1046.61 750.745 1054.18 754.039 1055.12 757.999 C 1057.05 766.212 1046.7 769.258 1050.03 777.823 C 1050.71 779.577 1050.6 782.474 1050.22 784.306 C 1047.76 787.893 1047.15 787.96 1043.18 790.109 C 1014.91 791.643 1035.03 762.075 1043.03 750.563 z"/>
<path transform="translate(0,0)" fill="rgb(126,31,30)" d="M 1039.49 770.661 C 1042.4 772.9 1043.42 774.067 1044.18 777.51 C 1043.61 781.465 1043.18 781.416 1040.41 784.227 C 1037.6 782.976 1037.27 783.208 1035.75 780.666 C 1035.43 776.981 1037.65 774.008 1039.49 770.661 z"/>
<path transform="translate(0,0)" fill="rgb(238,237,237)" d="M 1173.98 778.616 C 1175.56 778.703 1180.22 778.782 1180.83 779.619 C 1184.37 784.517 1197.04 804.176 1197.5 808.635 C 1195.27 810.916 1195.1 811.542 1192.02 812.297 C 1188.95 810.533 1188.48 808.182 1186.58 804.623 C 1185.24 804.398 1182.01 805.402 1180.46 805.777 C 1176.35 809.576 1178.46 809.554 1175.74 815.893 C 1172.44 817.692 1174.04 817.565 1170.88 817.017 C 1167.18 812.246 1171.56 784.689 1173.98 778.616 z"/>
<path transform="translate(0,0)" fill="rgb(238,237,237)" d="M 1064.96 720.141 C 1068.9 719.776 1071.36 718.989 1074.79 720.841 C 1075.45 722.822 1075.58 723.418 1075.84 725.435 L 1076.06 727.248 C 1079.53 733.186 1084.83 730.174 1088.53 737.295 C 1088.5 742.571 1084.5 747.706 1081.27 751.631 C 1077.31 753.374 1075.46 753.137 1072.3 749.964 C 1066.1 743.727 1060.68 735.056 1059.95 726.128 C 1059.74 723.642 1063.25 721.553 1064.96 720.141 z"/>
<path transform="translate(0,0)" fill="rgb(126,31,30)" d="M 1072.05 735.977 C 1076.42 735.849 1077.15 735.506 1080.37 737.53 C 1081.43 740.767 1080.77 741.641 1079.64 744.865 C 1073.99 745.061 1072.58 740.792 1072.05 735.977 z"/>
<path transform="translate(0,0)" fill="rgb(238,237,237)" d="M 1089.94 780.49 C 1094.45 781.872 1092.73 780.65 1095.65 783.736 C 1097.85 791.146 1093.84 809.203 1092.76 817.997 C 1090.43 820.201 1091.77 819.481 1088.57 820.161 L 1087.21 819.058 C 1085.08 813.279 1087.93 810.997 1084.8 807.058 C 1081.4 805.834 1081.04 805.179 1077.78 805.686 C 1076.09 808.082 1075.14 810.083 1072.5 811.141 C 1069.22 809.516 1070.49 810.695 1068.68 807.347 C 1069.41 801.959 1085.38 785.779 1089.94 780.49 z"/>
<path transform="translate(0,0)" fill="rgb(215,103,102)" d="M 1221.72 790.391 C 1244.38 792.47 1230.96 799.896 1232.6 808.288 C 1234.14 810.631 1234.82 811.734 1236.07 814.234 C 1235.77 817.85 1234.83 818.584 1232.66 821.473 C 1207.09 833.22 1216.81 802.638 1221.72 790.391 z"/>
<path transform="translate(0,0)" fill="rgb(126,31,30)" d="M 1223.5 807.632 C 1226.62 809.22 1226.86 809.087 1228.95 812.014 C 1229.2 816.319 1229.48 814.18 1227.32 818.537 C 1222.74 817.558 1224.3 818.756 1221.94 815.623 C 1221.68 812.078 1222.34 810.945 1223.5 807.632 z"/>
<path transform="translate(0,0)" fill="rgb(215,103,102)" d="M 1146.32 706.062 C 1151.09 705.77 1154.03 705.139 1157.52 708.129 C 1157.87 722.519 1164.57 718.643 1166.22 726.45 C 1164.87 730.956 1163.93 731.619 1160.82 735.372 C 1158.4 736.866 1158.07 736.828 1155.36 737.874 C 1145.52 736.365 1144.32 720.883 1143.37 712.9 C 1142.93 709.21 1144.07 708.594 1146.32 706.062 z"/>
<path transform="translate(0,0)" fill="rgb(126,31,30)" d="M 1151.98 721.541 C 1155.36 722.247 1155.42 722.141 1158.59 723.907 C 1160.07 727.454 1159.7 726.134 1158.65 730.569 C 1155.11 731.101 1156.73 731.384 1153.62 729.828 C 1151.83 726.544 1152.08 725.246 1151.98 721.541 z"/>
<path transform="translate(0,0)" fill="rgb(238,237,237)" d="M 1108.93 693.033 C 1114.12 696.443 1130.59 708.285 1132.9 713.341 L 1132.18 714.52 C 1127.12 715.616 1126.16 715.427 1121.53 712.613 L 1119.03 713.646 C 1113.59 720.616 1118.27 719.529 1116.04 725.878 L 1113.78 726.613 C 1106.98 723.178 1105.06 705.53 1104.54 698.54 C 1104.33 695.777 1107.05 694.454 1108.93 693.033 z"/>
<path transform="translate(0,0)" fill="rgb(238,237,237)" d="M 1240.92 743.522 C 1244.3 744.44 1246.34 745.978 1248.68 748.564 C 1250.89 758.363 1242.81 752.821 1241.91 768.287 L 1241.84 769.585 C 1239.65 772.592 1237.89 772.926 1234.45 774.374 C 1228.82 773.44 1226.93 773.971 1224.7 768.523 C 1225.37 759.502 1234.85 750.327 1240.92 743.522 z"/>
<path transform="translate(0,0)" fill="rgb(215,103,102)" d="M 1089.6 745.629 C 1094.43 746.388 1099.73 746.821 1101.33 751.718 C 1098.26 760.046 1098.43 759.214 1102.86 766.787 C 1102.65 770.121 1101.79 770.794 1099.8 773.469 C 1095.68 775.48 1092.62 776.962 1088.08 775.322 C 1081.61 769.569 1086.57 752.478 1089.6 745.629 z"/>
<path transform="translate(0,0)" fill="rgb(215,103,102)" d="M 1270.5 802.29 C 1273.16 802.57 1273.11 802.581 1275.6 803.585 C 1279.63 809.146 1283.37 827.481 1279.2 833.116 L 1277.15 833.087 C 1274.08 830.009 1274.82 829.654 1273.51 824.72 L 1268.09 825.159 C 1265.06 827.932 1262.37 830.365 1257.96 829.76 C 1256.99 826.074 1267.99 807.096 1270.5 802.29 z"/>
<path transform="translate(0,0)" fill="rgb(215,103,102)" d="M 1165.63 742.461 C 1169.57 743.123 1174.47 744.228 1176.69 747.861 C 1177.85 755.451 1170.47 752.213 1175.53 763.882 C 1174.58 767.768 1174.93 766.525 1171.93 769.796 C 1166.18 771.207 1162.03 772.049 1157.94 767.406 C 1155.83 759.147 1161.68 749.987 1165.63 742.461 z"/>
<path transform="translate(0,0)" fill="rgb(215,103,102)" d="M 1191.34 693.492 L 1194.96 693.983 C 1200.63 697.94 1211.93 711.942 1210.3 718.94 L 1208.79 719.845 C 1205.34 718.561 1204.8 717.13 1202.67 714.11 C 1195.38 714.527 1197 719.853 1191.39 724.773 L 1190 724.418 C 1188.55 719.109 1188.7 698.627 1191.34 693.492 z"/>
<path transform="translate(0,0)" fill="rgb(238,237,237)" d="M 1273.44 770.61 C 1277.07 771.499 1275.71 770.559 1277.93 773.06 C 1278.76 779.725 1272.58 796.778 1267.13 800.268 L 1265.58 799.727 C 1265.01 796.31 1265.61 795.425 1266.77 792.182 L 1267.17 791.104 C 1265.48 790.233 1264.29 789.781 1262.53 789.064 C 1259.27 790.049 1255.45 791.529 1252.82 788.858 C 1254.79 785.193 1269.31 774 1273.44 770.61 z"/>
<path transform="translate(0,0)" fill="rgb(215,103,102)" d="M 1132.53 754.482 C 1134.54 754.718 1135.27 754.957 1137.23 755.45 C 1141.2 760.708 1145.24 776.563 1141.23 781.932 L 1139.58 781.817 C 1137.23 779.655 1137.3 778.168 1136.67 774.985 L 1136.44 773.792 L 1131.61 774.807 C 1128.62 777.909 1126.94 779.789 1122.41 779.366 C 1121.91 776.424 1130.67 758.589 1132.53 754.482 z"/>
<path transform="translate(0,0)" fill="rgb(215,103,102)" d="M 1208.55 760.684 L 1212.19 762.578 C 1215.37 767.846 1216.32 783.35 1211.28 788.066 C 1205.11 786.948 1212.17 784.654 1203.98 778.374 C 1200.98 778.817 1200.06 780.108 1197.75 782.15 L 1196.83 782.97 L 1194.28 782.59 L 1193.41 781.151 C 1194.73 774.834 1203.87 765.888 1208.55 760.684 z"/>
<path transform="translate(0,0)" fill="rgb(238,237,237)" d="M 1143.42 788.322 C 1152.98 791.163 1148.44 807.395 1154.96 810.63 C 1158.01 809.718 1158.66 809.331 1161.87 809.324 C 1164.34 812.066 1163.69 810.474 1163.67 814.34 L 1161.74 816 L 1148.29 820.697 C 1145.33 813.009 1139.65 795.781 1143.42 788.322 z"/>
<path transform="translate(0,0)" fill="rgb(238,237,237)" d="M 1062.46 768.15 L 1066.02 769.912 C 1068.36 776.684 1060.89 785.476 1060.66 792.678 C 1062.51 793.996 1064.15 795.077 1066.06 796.299 C 1067.23 799.874 1066.91 798.659 1065.44 802.994 C 1060.46 801.161 1055.91 799.155 1051.06 797.049 C 1053.28 788.345 1058.68 776.515 1062.46 768.15 z"/>
<path transform="translate(0,0)" fill="rgb(238,237,237)" d="M 1082.59 713.42 C 1092.22 715.385 1091.01 725.581 1098.45 727.92 C 1100.77 726.028 1101.21 725.445 1103.99 724.263 L 1105.87 725.255 L 1106.65 727.973 L 1105.41 730.119 C 1102.67 732.854 1099.24 735.673 1096.28 738.225 C 1093.87 735.415 1091.55 732.525 1089.33 729.561 C 1085.13 724.008 1081.67 719.929 1082.59 713.42 z"/>
<path transform="translate(0,0)" fill="rgb(215,103,102)" d="M 1243.6 799.395 C 1253.07 802.438 1244.37 812.614 1247.61 819.819 C 1249.76 820.483 1251.89 821.194 1254 821.95 C 1254.56 825.143 1254.62 823.496 1252.62 826.968 L 1239.88 825.779 C 1240.31 817.791 1240.82 806.875 1243.6 799.395 z"/>
<path transform="translate(0,0)" fill="rgb(238,237,237)" d="M 1193.37 738.71 C 1196.05 738.823 1196.15 738.871 1198.74 739.617 C 1206 747.071 1209.78 749.584 1205.07 759.714 L 1202.05 759.776 C 1196.2 756.217 1190.96 745.612 1193.37 738.71 z"/>
<path transform="translate(0,0)" fill="rgb(238,237,237)" d="M 1114.51 727.399 C 1117.76 728.203 1118.11 728.003 1120.49 730.427 C 1122.42 737.124 1123.3 742.86 1120.38 748.995 L 1115.89 750.392 C 1108.09 747.782 1112.4 733.351 1114.51 727.399 z"/>
<path transform="translate(0,0)" fill="rgb(215,103,102)" d="M 1167.36 704.416 C 1174.23 707.565 1172.03 715.631 1176.6 720.684 C 1177.47 721.652 1181.91 720.466 1183.81 720.17 L 1185.13 721.425 L 1184.97 724.013 L 1182.6 725.771 C 1179.58 727.264 1176.3 728.715 1173.22 730.146 C 1171.76 726.633 1170.34 723.101 1168.97 719.552 C 1166.71 713.555 1164.87 709.908 1167.36 704.416 z"/>
<path transform="translate(0,0)" fill="rgb(238,237,237)" d="M 1253.81 758.653 L 1255.99 760.176 C 1257.93 765.847 1251.91 768.125 1249.51 775.33 C 1250.31 779.298 1249.46 777.465 1252.85 780.637 C 1252.9 783.604 1253.06 782.136 1250.62 785.272 L 1240.4 780.086 C 1243.72 772.852 1249.2 765.09 1253.81 758.653 z"/>
<path transform="translate(0,0)" fill="rgb(215,103,102)" d="M 1108.69 753.172 C 1118.2 756.357 1108.98 764.402 1113.52 771.254 C 1116.32 771.481 1116.28 771.323 1118.72 772.591 L 1119.54 776.781 C 1113.73 777.18 1111.96 778.048 1107.77 774.826 C 1104.68 768.176 1107.29 760.891 1108.69 753.172 z"/>
<path transform="translate(0,0)" fill="rgb(238,237,237)" d="M 1216.39 725.493 C 1220.97 727.213 1230.07 735.248 1230.28 740.166 C 1226.95 740.664 1227.62 740.186 1223.85 737.889 C 1222.68 740.447 1222.88 742.638 1222.79 745.475 L 1221.38 746.635 L 1219.9 745.46 C 1217.7 740.656 1215.07 730.741 1216.39 725.493 z"/>
<path transform="translate(0,0)" fill="rgb(238,237,237)" d="M 1141.15 731.176 C 1142.63 731.73 1142.08 731.417 1143.39 732.338 C 1145.65 733.916 1146.78 740.067 1147.18 742.781 C 1147.62 745.776 1147.82 748.745 1145.99 751.182 C 1143.33 749.769 1144.08 749.806 1142.69 746.126 C 1136.69 748.558 1141.38 749.185 1135.92 751.165 C 1134.19 746.819 1139.28 736.09 1141.15 731.176 z"/>
<path transform="translate(0,0)" fill="rgb(215,103,102)" d="M 1183.45 754.18 C 1193.34 756.623 1182.56 764.183 1185.68 771.678 C 1188.4 772.693 1188.45 772.506 1190.44 774.538 L 1190.35 778.146 L 1177.11 774.983 C 1178.61 768.224 1181.25 760.814 1183.45 754.18 z"/>
<path transform="translate(0,0)" fill="rgb(238,237,237)" d="M 1042.93 709.414 C 1049.27 709.152 1068.61 708.682 1069.62 716.504 C 1061.83 716.257 1050.18 713.667 1042.95 710.715 L 1042.93 709.414 z"/>
<path transform="translate(0,0)" fill="rgb(238,237,237)" d="M 1203.61 736.535 C 1210.48 738.223 1207.74 742.741 1213.02 745.598 L 1216.03 744.576 L 1217.29 745.253 L 1217.79 747.928 L 1213.84 750.876 L 1211.49 750.475 C 1206.93 747.027 1205.43 741.986 1203.61 736.535 z"/>
<path transform="translate(0,0)" fill="rgb(238,237,237)" d="M 1126.25 732.324 L 1128.32 733.734 C 1128.46 735.318 1129.57 743.552 1130.29 744.502 C 1132.63 747.6 1132.12 744.29 1132.75 749.523 C 1130 749.879 1128.56 750.412 1126.21 749.026 C 1123.23 744.11 1125.24 738.274 1126.25 732.324 z"/>
<path transform="translate(0,0)" fill="rgb(66,65,65)" d="M 1164.48 857.238 C 1191.04 856.527 1206.17 877.669 1218.56 898.109 C 1203.74 893.986 1188.96 889.728 1174.22 885.334 L 1151.84 891.346 C 1143.5 893.449 1102.22 909.187 1099.79 901.863 C 1105.17 881.286 1144.02 860.907 1164.48 857.238 z"/>
<path transform="translate(0,0)" fill="rgb(220,182,181)" d="M 1001.22 885.014 C 1028.74 893.189 1056.76 905.645 1084.45 913.273 C 1088.79 914.469 1112.05 910.806 1118.59 910.34 C 1143.96 908.693 1169.33 906.915 1194.7 905.008 C 1203.68 904.341 1220.41 904.062 1228.66 902.482 C 1251.22 898.162 1260.34 883.266 1280.77 906.468 C 1288.96 904.651 1364.05 915.459 1376.47 916.784 C 1371.37 914.347 1365.52 913.061 1362.01 909.241 C 1361.34 905.584 1362 906.051 1364.05 901.85 L 1395.08 914.598 C 1400.49 916.841 1408.5 919.893 1413.55 922.411 C 1412.28 928.261 1410.92 934.035 1409.13 939.733 C 1399.27 970.983 1397.8 1001.19 1356.55 996.758 C 1348.13 996.572 1347.51 997.315 1340.68 1002.54 C 1333.3 1019.44 1327.46 1031.98 1316.49 1047.06 C 1262.96 1120.73 1159.42 1120.36 1087.59 1074.92 C 1083.66 1072.44 1079.63 1069.82 1075.66 1067.26 C 1039.1 1041.53 1013.48 1012.04 989.339 975.099 C 1010.89 957.991 1008.25 919.69 1004.03 895.417 L 1001.22 885.014 z"/>
<path transform="translate(0,0)" fill="rgb(238,237,237)" d="M 1001.22 885.014 C 1028.74 893.189 1056.76 905.645 1084.45 913.273 C 1088.79 914.469 1112.05 910.806 1118.59 910.34 C 1143.96 908.693 1169.33 906.915 1194.7 905.008 C 1203.68 904.341 1220.41 904.062 1228.66 902.482 C 1251.22 898.162 1260.34 883.266 1280.77 906.468 C 1288.96 904.651 1364.05 915.459 1376.47 916.784 C 1371.37 914.347 1365.52 913.061 1362.01 909.241 C 1361.34 905.584 1362 906.051 1364.05 901.85 L 1395.08 914.598 C 1400.49 916.841 1408.5 919.893 1413.55 922.411 C 1412.28 928.261 1410.92 934.035 1409.13 939.733 C 1399.27 970.983 1397.8 1001.19 1356.55 996.758 C 1330.06 992.438 1295.94 993.12 1275.31 973.97 C 1273.26 965.884 1271.43 959.772 1268.74 951.871 C 1269.65 928.173 1279.33 893.811 1240.28 913.86 C 1239.36 936.821 1242.38 978.153 1213.76 983.756 C 1187.2 988.954 1140.14 1000.39 1114.73 988.88 C 1100.67 982.512 1093.12 942.641 1089.02 927.238 C 1061.11 916.323 1032.15 906.217 1004.03 895.417 L 1001.22 885.014 z"/>
<path transform="translate(0,0)" fill="rgb(174,118,179)" d="M 1217.89 918.037 C 1222.03 917.792 1227.02 917.349 1231.09 917.534 C 1228.92 963.335 1234.55 974.359 1184.18 980.54 C 1173.94 982.404 1138.79 985.719 1128.88 984.904 C 1112.46 980.004 1110.63 967.932 1106.96 953.186 L 1104.9 948.063 C 1108.39 943.385 1120.17 938.32 1125.77 935.624 C 1134.3 930.407 1147.52 926.248 1157.24 922.909 C 1170.64 920.662 1194.06 919.663 1208.32 918.656 C 1211.21 917.565 1214.62 917.988 1217.89 918.037 z"/>
<path transform="translate(0,0)" fill="rgb(66,65,65)" d="M 1208.32 918.656 L 1209.61 919.56 C 1205.16 923.237 1188.36 929.117 1182.43 931.325 C 1182.08 941.902 1182.11 952.912 1173.97 960.824 C 1168.13 966.503 1160.62 964.51 1156.51 958.317 C 1151.98 951.511 1151.18 942.238 1150.77 934.309 C 1143.8 935.706 1131.92 939.111 1125.77 935.624 C 1134.3 930.407 1147.52 926.248 1157.24 922.909 C 1170.64 920.662 1194.06 919.663 1208.32 918.656 z"/>
<path transform="translate(0,0)" fill="rgb(220,182,181)" d="M 1217.89 918.037 C 1222.03 917.792 1227.02 917.349 1231.09 917.534 C 1228.92 963.335 1234.55 974.359 1184.18 980.54 C 1187.44 977.393 1190.61 974.15 1193.68 970.815 C 1207.57 955.783 1218.67 938.991 1217.89 918.037 z"/>
<path transform="translate(0,0)" fill="rgb(220,182,181)" d="M 1127.88 947.898 C 1124.38 952.464 1120.99 955.821 1121.62 961.729 C 1126.51 969.131 1136.76 965.018 1143.64 962.531 C 1137.75 968.554 1128.82 976.135 1128.88 984.904 C 1112.46 980.004 1110.63 967.932 1106.96 953.186 C 1115.31 951.703 1119.73 950.455 1127.88 947.898 z"/>
<path transform="translate(0,0)" fill="rgb(174,118,179)" d="M 1279.55 921.768 L 1280.71 919.517 C 1285.71 918.653 1306.61 921.508 1311.83 922.861 C 1324.29 923.609 1345.39 925.559 1357.76 927.459 L 1392.69 931.442 C 1396.13 931.9 1398 931.539 1400.37 933.331 C 1400 943.611 1390.18 975.074 1382.08 982.692 C 1376.15 988.271 1367.15 988.227 1359.6 988.078 C 1355.17 987.836 1350.35 987.304 1345.89 986.909 C 1337.78 985.793 1329.96 984.37 1321.91 982.919 L 1316.27 981.284 C 1281.63 978.085 1276.43 966.787 1279.09 934.502 C 1279.19 930.256 1279.35 926.011 1279.55 921.768 z"/>
<path transform="translate(0,0)" fill="rgb(215,103,102)" d="M 1357.76 927.459 L 1392.69 931.442 C 1396.13 931.9 1398 931.539 1400.37 933.331 C 1400 943.611 1390.18 975.074 1382.08 982.692 C 1376.15 988.271 1367.15 988.227 1359.6 988.078 C 1355.17 987.836 1350.35 987.304 1345.89 986.909 C 1348.87 976.077 1350.91 967.374 1352.85 956.418 C 1354.25 948.526 1355.64 934.604 1357.76 927.459 z"/>
<path transform="translate(0,0)" fill="rgb(105,105,105)" d="M 1392.69 931.442 C 1396.13 931.9 1398 931.539 1400.37 933.331 C 1400 943.611 1390.18 975.074 1382.08 982.692 C 1376.15 988.271 1367.15 988.227 1359.6 988.078 C 1372.06 975.622 1379.74 962.329 1386.45 946.145 C 1388.08 942.199 1390.55 934.568 1392.69 931.442 z"/>
<path transform="translate(0,0)" fill="rgb(220,182,181)" d="M 1311.83 922.861 C 1324.29 923.609 1345.39 925.559 1357.76 927.459 C 1355.64 934.604 1354.25 948.526 1352.85 956.418 C 1350.91 967.374 1348.87 976.077 1345.89 986.909 C 1337.78 985.793 1329.96 984.37 1321.91 982.919 C 1323.03 976.224 1321.01 972.712 1318.49 966.562 C 1324.23 969.011 1330.67 972.339 1336.56 969.533 C 1340.38 962.16 1331.61 952.465 1331.86 948.424 C 1336.44 949.122 1338.34 950.153 1341.36 946.434 C 1341.16 944.545 1340.92 943.457 1340.4 941.665 L 1342 940.077 L 1342.26 939.166 C 1338.78 933.287 1318.25 925.456 1311.83 922.861 z"/>
<path transform="translate(0,0)" fill="rgb(66,65,65)" d="M 1279.55 921.768 L 1280.71 919.517 C 1285.71 918.653 1306.61 921.508 1311.83 922.861 C 1318.25 925.456 1338.78 933.287 1342.26 939.166 L 1342 940.077 C 1335.22 940.076 1328.86 938.708 1322.18 937.536 C 1321.98 939.374 1321.73 941.206 1321.43 943.03 C 1316.27 974.173 1284.92 965.248 1295.25 931.886 C 1289.39 928.411 1285.02 925.847 1279.55 921.768 z"/>
<path transform="translate(0,0)" fill="rgb(220,182,181)" d="M 1279.09 934.502 C 1289.51 957.248 1294.58 967.136 1316.27 981.284 C 1281.63 978.085 1276.43 966.787 1279.09 934.502 z"/>
<path transform="translate(0,0)" fill="rgb(220,182,181)" d="M 1104.9 948.063 C 1104.96 940.703 1099.46 933.5 1102 928.126 C 1109.75 924.693 1147.29 923.039 1157.24 922.909 C 1147.52 926.248 1134.3 930.407 1125.77 935.624 C 1120.17 938.32 1108.39 943.385 1104.9 948.063 z"/>
<path transform="translate(0,0)" fill="rgb(66,65,65)" d="M 1275.31 973.97 C 1297.33 1075.39 1221.61 1039.8 1226.82 1022.05 C 1233.81 1020.8 1246.44 1036.05 1258.07 1030.28 C 1287.98 1015.45 1251.86 940.035 1256.94 927.271 L 1258.4 927.145 C 1262.16 931.719 1266.78 945.795 1268.74 951.871 C 1271.43 959.772 1273.26 965.884 1275.31 973.97 z"/>
<path transform="translate(0,0)" fill="rgb(215,103,102)" d="M 933.509 825.936 C 968.997 824.101 992.793 853.183 1001.22 885.014 L 1004.03 895.417 C 1008.25 919.69 1010.89 957.991 989.339 975.099 C 980.43 978.712 977.804 978.688 968.503 977.908 C 947.796 969.076 938.084 959.75 926.329 940.432 C 924.482 937.226 922.314 932.675 921.087 929.212 C 910.577 899.558 894.291 841.66 933.509 825.936 z"/>
<path transform="translate(0,0)" fill="rgb(173,63,61)" d="M 934.845 851.061 C 969.153 850.279 996.346 917.516 981.589 926.38 C 974.101 926.476 971.693 921.899 969.256 915.716 L 968.771 914.457 C 967.3 903.749 972.601 888.589 961.062 884.118 C 950.269 885.617 945.17 904.738 937.231 901.583 C 920.708 895.018 917.078 860.121 934.845 851.061 z"/>
<path transform="translate(0,0)" fill="rgb(215,103,102)" d="M 1376.21 876.217 C 1392.68 886.763 1395.01 895.741 1395.08 914.598 L 1364.05 901.85 C 1367.24 893.743 1372.29 884.163 1376.21 876.217 z"/>
<path transform="translate(0,0)" fill="rgb(147,146,146)" d="M 613.087 741.406 C 613.06 684.152 627.15 594.974 696.78 584.527 C 695.459 588.973 686.086 600.751 682.967 605.291 C 628.667 684.342 638.088 792.536 712.82 855.245 C 718.634 860.123 724.566 864.72 730.486 869.464 C 723.05 880.857 710.281 892.846 701.345 903.649 C 681.048 928.338 672.81 960.788 678.873 992.169 C 681.244 1004.81 687.302 1022 695.192 1032.25 C 681.022 1044.28 667.797 1056.54 656.867 1071.7 C 626.319 1114.09 612.894 1171.09 608.807 1222.62 C 602.693 1299.73 612.726 1387.01 630.785 1462.12 C 634.325 1477.07 638.259 1491.93 642.583 1506.68 C 644.539 1513.21 653.152 1538.23 652.865 1543.72 C 649.409 1609.71 645.927 1677.25 641.11 1743.08 L 471.733 1743.05 C 394.398 1639.34 360.977 1509.37 378.692 1381.22 C 388.331 1308.1 425.223 1188.64 485.477 1142.43 C 480.58 1128.01 475.45 1103.14 472.778 1088 C 459.554 1013.07 457.691 927.341 489.006 856.552 C 514.347 799.268 555.595 763.802 613.087 741.406 z"/>
<path transform="translate(0,0)" fill="rgb(102,141,203)" d="M 1414.91 1539.07 C 1440.64 1539.69 1493.62 1541.88 1506.13 1568.18 C 1512.68 1589.07 1492.36 1713.42 1487.44 1743 C 1513.22 1743.17 1539.01 1743.17 1564.79 1743 L 1684.65 1742.93 L 1684.65 1812.78 L 395.295 1812.77 C 396.091 1790.32 395.76 1765.59 395.851 1742.96 C 420.999 1743.27 446.553 1743.05 471.733 1743.05 L 641.11 1743.08 L 933.167 1743.05 L 1025.84 1743.05 C 1096.11 1743.06 1168.64 1742.1 1238.71 1743.12 C 1243.23 1720.09 1241.98 1691.37 1240.99 1667.99 C 1240.82 1650.39 1238.15 1619.05 1235.94 1601.37 C 1244.08 1600.9 1254.07 1600.97 1262.36 1600.8 C 1262.9 1599.66 1263.48 1598.54 1264.08 1597.43 C 1277.96 1571.46 1293.26 1570.3 1317.37 1571.53 C 1318.36 1571.58 1319.26 1568.63 1319.77 1567.5 C 1323.99 1539.94 1393.09 1539.01 1414.91 1539.07 z"/>
<path transform="translate(0,0)" fill="rgb(210,210,209)" d="M 1414.91 1539.07 C 1440.64 1539.69 1493.62 1541.88 1506.13 1568.18 C 1512.68 1589.07 1492.36 1713.42 1487.44 1743 C 1486.06 1751.07 1484.59 1765.27 1482.38 1772.61 C 1480.49 1778.88 1466.31 1782.54 1461.26 1785.58 C 1458.96 1786.09 1456.65 1786.56 1454.34 1787 C 1424.93 1792.49 1371.82 1791.49 1343.77 1776.46 C 1337.89 1773.3 1336.67 1757.11 1335.51 1749.91 L 1334.61 1743.23 L 1238.71 1743.12 C 1243.23 1720.09 1241.98 1691.37 1240.99 1667.99 C 1240.82 1650.39 1238.15 1619.05 1235.94 1601.37 C 1244.08 1600.9 1254.07 1600.97 1262.36 1600.8 C 1262.9 1599.66 1263.48 1598.54 1264.08 1597.43 C 1277.96 1571.46 1293.26 1570.3 1317.37 1571.53 C 1318.36 1571.58 1319.26 1568.63 1319.77 1567.5 C 1323.99 1539.94 1393.09 1539.01 1414.91 1539.07 z"/>
<path transform="translate(0,0)" fill="rgb(49,97,160)" d="M 1414.91 1539.07 C 1440.64 1539.69 1493.62 1541.88 1506.13 1568.18 C 1488.98 1602.37 1341.72 1595.91 1319.77 1567.5 C 1323.99 1539.94 1393.09 1539.01 1414.91 1539.07 z"/>
<path transform="translate(0,0)" fill="rgb(147,146,146)" d="M 1235.94 1601.37 C 1244.08 1600.9 1254.07 1600.97 1262.36 1600.8 C 1245.44 1643.6 1263.09 1691.13 1297.94 1719.29 C 1308.78 1728.05 1319.9 1731.44 1332.61 1736.52 C 1334.08 1737.13 1334.45 1741.87 1334.61 1743.23 L 1238.71 1743.12 C 1243.23 1720.09 1241.98 1691.37 1240.99 1667.99 C 1240.82 1650.39 1238.15 1619.05 1235.94 1601.37 z"/>
<path transform="translate(0,0)" fill="rgb(147,146,146)" d="M 1294.14 1596.38 C 1300.89 1595.72 1316.82 1595.59 1317.99 1605.04 C 1322.1 1638.23 1324.19 1671.91 1329.34 1704.99 C 1322.98 1703.34 1320.05 1702.37 1313.97 1699.88 C 1284.5 1685.05 1266.03 1646.8 1276.09 1613.37 C 1278.69 1604.73 1286.05 1599.72 1294.14 1596.38 z"/>
<path transform="translate(0,0)" fill="rgb(173,63,61)" d="M 1414.01 1623.04 C 1419.2 1629.95 1423.68 1637.36 1427.39 1645.15 C 1429.74 1640.83 1431.02 1637.92 1434.42 1634.3 L 1436.11 1634.46 C 1437.21 1635.84 1437.55 1636.44 1438.24 1638.12 C 1446.96 1657.19 1448.73 1694.17 1423.56 1700.99 C 1394.46 1708.87 1380.29 1682.16 1385.97 1657.01 C 1387.9 1648.47 1387.3 1641.71 1391.85 1634.13 L 1393.36 1633.93 C 1397.15 1636.71 1400.49 1641.53 1403.48 1645.33 C 1406.43 1638.16 1408.92 1631.49 1412.93 1624.83 L 1413.6 1623.7 C 1413.73 1623.48 1413.87 1623.26 1414.01 1623.04 z"/>
<path transform="translate(0,0)" fill="rgb(126,31,30)" d="M 1414.01 1623.04 C 1419.2 1629.95 1423.68 1637.36 1427.39 1645.15 C 1423.85 1651.64 1420.97 1656.29 1415.96 1661.72 C 1411.04 1656 1407.84 1651.53 1403.48 1645.33 C 1406.43 1638.16 1408.92 1631.49 1412.93 1624.83 L 1413.6 1623.7 C 1413.73 1623.48 1413.87 1623.26 1414.01 1623.04 z"/>
<path transform="translate(0,0)" fill="rgb(49,97,160)" d="M 1420.15 1705.15 C 1447.95 1704.4 1457.52 1717.86 1466.9 1741.5 C 1447.75 1740.18 1424.88 1724.19 1420.15 1705.15 z"/>
<path transform="translate(0,0)" fill="rgb(49,97,160)" d="M 1355.6 1685.29 L 1356.87 1685.2 C 1374.63 1684.19 1386.19 1692.54 1398.79 1703.73 C 1392.16 1704.59 1387.08 1704.68 1380.41 1704.85 C 1363.41 1703.57 1349.79 1702.29 1337.05 1689.92 C 1344.66 1687.3 1347.73 1686.5 1355.6 1685.29 z"/>
<path transform="translate(0,0)" fill="rgb(102,141,203)" d="M 1408.29 1706.72 L 1410.89 1707.7 C 1418.83 1720.89 1400.72 1738.65 1388.25 1743.17 C 1385.27 1743.26 1386.57 1743.66 1384.18 1742.04 C 1383.17 1738.08 1384.78 1732.02 1386.53 1728.48 C 1393.03 1715.37 1395.89 1711.9 1408.29 1706.72 z"/>
<path transform="translate(0,0)" fill="rgb(102,141,203)" d="M 1454.96 1688.09 C 1459.65 1687.73 1475.01 1688.13 1475.46 1694.29 C 1471.93 1699.84 1465.23 1701.07 1458.93 1703.13 C 1452.1 1704.4 1441.1 1706.29 1437.84 1698.56 C 1439.73 1691.44 1448.6 1689.88 1454.96 1688.09 z"/>
<path transform="translate(0,0)" fill="rgb(49,97,160)" d="M 1335.51 1749.91 C 1336.67 1757.11 1337.89 1773.3 1343.77 1776.46 C 1371.82 1791.49 1424.93 1792.49 1454.34 1787 C 1456.65 1786.56 1458.96 1786.09 1461.26 1785.58 C 1429.74 1802.21 1251.49 1806.99 1236.94 1775.57 C 1238.36 1755.4 1319.3 1751.05 1335.51 1749.91 z"/>
<path transform="translate(0,0)" fill="rgb(220,182,181)" d="M 1195.37 1363.95 C 1233.01 1333.84 1268.65 1308.04 1320.15 1317.48 C 1330.26 1320.22 1355.75 1331.08 1353.12 1343.74 L 1350.38 1343.75 C 1351.7 1345.72 1354.43 1347.65 1356.38 1349.09 C 1365.3 1355.74 1368.53 1359.79 1373.51 1369.89 L 1356.63 1367.17 C 1360.63 1368.72 1365.45 1370.54 1369.09 1372.78 C 1381.59 1380.47 1389.25 1408.22 1376.85 1418.81 C 1374.23 1419.28 1374.32 1419.12 1371.73 1418.34 C 1372.16 1421.63 1388.63 1451.13 1391.43 1457.05 C 1397.15 1469.12 1402.61 1480.86 1407.58 1493.69 C 1413.73 1509.57 1412.04 1524.56 1414.91 1539.07 C 1393.09 1539.01 1323.99 1539.94 1319.77 1567.5 C 1319.26 1568.63 1318.36 1571.58 1317.37 1571.53 C 1293.26 1570.3 1277.96 1571.46 1264.08 1597.43 C 1263.48 1598.54 1262.9 1599.66 1262.36 1600.8 C 1254.07 1600.97 1244.08 1600.9 1235.94 1601.37 C 1210.19 1601.94 1184.1 1601.26 1158.32 1600.86 C 1154.15 1601.14 1148.41 1600.92 1144.11 1600.89 C 977.012 1797.75 907.941 1656.93 793.2 1509.59 C 850.613 1479.59 904.872 1443.9 955.163 1403.08 C 960.12 1410.31 965.618 1418.98 970.68 1425.89 C 982.025 1427.36 985.012 1431.84 990.866 1441.29 C 1005.93 1436.52 1012.04 1442.64 1019.93 1455.06 C 1040.88 1446.69 1051.3 1460.74 1059.64 1478.08 C 1067.33 1469.5 1092.85 1448.98 1103.14 1440.26 C 1133.41 1414.26 1164.16 1388.82 1195.37 1363.95 z"/>
<path transform="translate(0,0)" fill="rgb(209,155,154)" d="M 1250.43 1459.86 C 1280.58 1450.1 1330.24 1419.14 1358.47 1401.35 C 1363.24 1409.23 1366.38 1411.5 1371.73 1418.34 C 1372.16 1421.63 1388.63 1451.13 1391.43 1457.05 C 1397.15 1469.12 1402.61 1480.86 1407.58 1493.69 C 1413.73 1509.57 1412.04 1524.56 1414.91 1539.07 C 1393.09 1539.01 1323.99 1539.94 1319.77 1567.5 C 1319.26 1568.63 1318.36 1571.58 1317.37 1571.53 C 1293.26 1570.3 1277.96 1571.46 1264.08 1597.43 C 1263.48 1598.54 1262.9 1599.66 1262.36 1600.8 C 1254.07 1600.97 1244.08 1600.9 1235.94 1601.37 C 1210.19 1601.94 1184.1 1601.26 1158.32 1600.86 C 1154.66 1600.27 1148.98 1600.1 1145.13 1599.87 C 1175.1 1563.51 1201.82 1524.84 1229.51 1486.77 C 1236.07 1477.76 1243.05 1468.2 1250.43 1459.86 z"/>
<path transform="translate(0,0)" fill="rgb(209,155,154)" d="M 970.68 1425.89 C 982.025 1427.36 985.012 1431.84 990.866 1441.29 C 1005.93 1436.52 1012.04 1442.64 1019.93 1455.06 C 1040.88 1446.69 1051.3 1460.74 1059.64 1478.08 C 1056.61 1481.84 1041.62 1494.65 1037.51 1498.09 C 1027.62 1506.38 991.765 1550.53 978.811 1542.08 C 974.657 1534.52 978.126 1523.35 980.042 1515.18 C 973.033 1521.73 946.588 1549.23 940.377 1531.88 C 936.455 1520.93 949.518 1495.88 954.576 1485.59 C 945.578 1490.82 928.716 1506.89 918.471 1507.4 C 917.281 1507.46 916.806 1506.27 915.875 1505.08 C 914.589 1494.02 925.455 1472.57 931.232 1463.35 C 941.256 1447.36 951.624 1430.85 970.68 1425.89 z"/>
<path transform="translate(0,0)" fill="rgb(66,65,65)" d="M 653.77 1230.41 C 654.937 1189.34 661.26 1130.39 692.133 1100.99 C 736.641 1058.59 796.945 1114.01 826.881 1146.75 C 864.2 1187.55 890.607 1232.52 918.308 1279.87 C 938.182 1313.74 958.513 1349.33 975.971 1384.38 C 969.097 1390.68 962.161 1396.91 955.163 1403.08 C 904.872 1443.9 850.613 1479.59 793.2 1509.59 C 778.131 1517.52 756.706 1528.7 740.893 1533.77 C 729.115 1512.64 717.094 1490.71 706.487 1468.99 C 670.135 1394.54 653.973 1312.99 653.77 1230.41 z"/>
<path transform="translate(0,0)" fill="rgb(210,210,209)" d="M 738.165 1615.98 C 728.848 1599.58 718.534 1576.61 710.702 1559.07 C 669.165 1466.05 641.016 1357.7 651.904 1255.17 C 652.725 1247.44 652.271 1236.3 653.77 1230.41 C 653.973 1312.99 670.135 1394.54 706.487 1468.99 C 717.094 1490.71 729.115 1512.64 740.893 1533.77 C 756.706 1528.7 778.131 1517.52 793.2 1509.59 C 907.941 1656.93 977.012 1797.75 1144.11 1600.89 C 1148.41 1600.92 1154.15 1601.14 1158.32 1600.86 C 1184.1 1601.26 1210.19 1601.94 1235.94 1601.37 C 1238.15 1619.05 1240.82 1650.39 1240.99 1667.99 C 1241.98 1691.37 1243.23 1720.09 1238.71 1743.12 C 1168.64 1742.1 1096.11 1743.06 1025.84 1743.05 L 933.167 1743.05 C 876.696 1699.69 833.154 1628.96 788.294 1574.4 C 772.63 1588.52 754.323 1601.5 738.165 1615.98 z"/>
<path transform="translate(0,0)" fill="rgb(238,237,237)" d="M 1112.27 1667.01 C 1154.92 1666.68 1197.6 1668.52 1240.99 1667.99 C 1241.98 1691.37 1243.23 1720.09 1238.71 1743.12 C 1168.64 1742.1 1096.11 1743.06 1025.84 1743.05 C 1044.45 1727.09 1062.87 1710.9 1081.09 1694.5 C 1089.52 1686.93 1103.59 1673.46 1112.27 1667.01 z"/>
<path transform="translate(0,0)" fill="rgb(209,155,154)" d="M 926.329 940.432 C 938.084 959.75 947.796 969.076 968.503 977.908 C 977.804 978.688 980.43 978.712 989.339 975.099 C 1013.48 1012.04 1039.1 1041.53 1075.66 1067.26 C 1071.35 1074.33 1057.99 1095.29 1055.16 1101.7 L 1054.96 1102.54 C 1051.7 1106.14 1051.2 1107.25 1048.77 1111.56 L 1037.17 1130.58 C 1046.86 1147.72 1053.95 1166.16 1055.62 1185.77 C 1057.41 1206.9 1043.86 1224.5 1021.54 1222.83 C 975.202 1219.36 928.585 1181.63 897.254 1148.76 C 867.639 1116.16 832.979 1071.82 832.442 1025.9 C 832.148 1000.73 851.296 993.464 872.734 994.734 L 882.131 985.259 C 892.451 976.341 916.255 950.992 926.329 940.432 z"/>
<path transform="translate(0,0)" fill="rgb(215,103,102)" d="M 968.503 977.908 C 977.804 978.688 980.43 978.712 989.339 975.099 C 1013.48 1012.04 1039.1 1041.53 1075.66 1067.26 C 1071.35 1074.33 1057.99 1095.29 1055.16 1101.7 C 1015.24 1062.64 991.699 1028.68 968.503 977.908 z"/>
<path transform="translate(0,0)" fill="rgb(66,65,65)" d="M 828.148 983.519 C 842.609 979.15 868.858 978.731 882.131 985.259 L 872.734 994.734 C 851.296 993.464 832.148 1000.73 832.442 1025.9 C 832.979 1071.82 867.639 1116.16 897.254 1148.76 C 928.585 1181.63 975.202 1219.36 1021.54 1222.83 C 1043.86 1224.5 1057.41 1206.9 1055.62 1185.77 C 1053.95 1166.16 1046.86 1147.72 1037.17 1130.58 L 1048.77 1111.56 C 1057.43 1123.87 1065.1 1136.84 1071.7 1150.37 C 1083.61 1174.92 1094.84 1208.33 1085.02 1235.38 C 1080.6 1247.91 1071.26 1258.1 1059.15 1263.58 C 945.76 1316.14 723.179 1024.52 828.148 983.519 z"/>
<path transform="translate(0,0)" fill="rgb(66,65,65)" d="M 1084.84 1130.28 C 1121.11 1137.22 1195.17 1199.91 1224.88 1225.03 C 1232.94 1231.85 1244.17 1243.18 1252.11 1249.23 C 1266.22 1261.95 1311.12 1302.15 1320.15 1317.48 C 1268.65 1308.04 1233.01 1333.84 1195.37 1363.95 C 1187.88 1337.14 1179.33 1311.81 1170.58 1285.5 C 1150.37 1224.7 1127.77 1178.4 1084.84 1130.28 z"/>
<path transform="translate(0,0)" fill="rgb(147,146,146)" d="M 1552.72 999.857 C 1576.9 1069.31 1552.96 1122.76 1503.05 1171.82 C 1522.63 1198.1 1556.85 1219.19 1579.57 1247.19 C 1647.73 1331.22 1661.04 1450.34 1646.46 1554.13 C 1638.14 1613.34 1608.91 1702.73 1564.79 1743 C 1539.01 1743.17 1513.22 1743.17 1487.44 1743 C 1492.36 1713.42 1512.68 1589.07 1506.13 1568.18 C 1493.62 1541.88 1440.64 1539.69 1414.91 1539.07 C 1412.04 1524.56 1413.73 1509.57 1407.58 1493.69 C 1402.61 1480.86 1397.15 1469.12 1391.43 1457.05 C 1388.63 1451.13 1372.16 1421.63 1371.73 1418.34 C 1374.32 1419.12 1374.23 1419.28 1376.85 1418.81 C 1389.25 1408.22 1381.59 1380.47 1369.09 1372.78 C 1365.45 1370.54 1360.63 1368.72 1356.63 1367.17 L 1373.51 1369.89 C 1368.53 1359.79 1365.3 1355.74 1356.38 1349.09 C 1354.43 1347.65 1351.7 1345.72 1350.38 1343.75 L 1353.12 1343.74 C 1355.75 1331.08 1330.26 1320.22 1320.15 1317.48 C 1311.12 1302.15 1266.22 1261.95 1252.11 1249.23 C 1256.37 1246.32 1279.23 1242.42 1286.08 1240.23 C 1342.78 1222.12 1385.69 1189.64 1395.42 1128.02 C 1459.64 1143.14 1537.44 1081.73 1548.36 1019.26 C 1549.3 1013.86 1550.55 1006.96 1552.12 1001.79 L 1552.72 999.857 z"/>
</svg>