<svg version="1.1" xmlns="http://www.w3.org/2000/svg" style="display: block;" viewBox="0 0 2040 2048" width="1992" height="2000" preserveAspectRatio="none">
<path transform="translate(0,0)" fill="rgb(27,27,27)" d="M 767.269 1687.66 C 700.86 1656.01 637.43 1618.45 577.742 1575.45 C 372.519 1426.03 245.844 1224.57 206.604 973.316 C 196.128 904.627 192.226 835.096 194.949 765.666 C 200.369 618.756 231.509 485.648 319.36 364.707 C 422.936 222.117 587.918 136.027 760.25 109.322 C 936.835 82.3161 1116.9 126.886 1260.49 233.147 C 1305.09 231.946 1368.15 235.107 1388.94 283.45 C 1392.34 291.357 1393.17 298.798 1394.28 307.256 C 1375.21 281.242 1352.05 280.495 1322.24 278.803 C 1353.12 295.808 1374.84 318.031 1356.8 354.842 C 1355.9 349.982 1355.52 345.006 1353.42 340.484 C 1342.79 317.61 1311.81 307.362 1289.58 299.803 C 1290.41 301.006 1291.22 302.224 1292 303.456 C 1310.1 331.432 1310.29 357.978 1279.78 377.207 C 1282.06 362.352 1283.76 352.683 1274.82 337.021 C 1271.29 326.55 1238.75 305.956 1228.23 315.215 C 1214.89 326.971 1243.71 356.545 1250.09 362.76 C 1203.68 360.206 1172.89 335.86 1185.37 285.448 C 1078.79 186.666 891.806 168.703 763.914 234.148 C 704.495 264.554 670.283 313.54 650.917 376.035 C 692.981 308.587 774.202 230.155 861.052 251.153 C 920.408 265.504 964.541 321.783 946.852 383.508 C 939.904 407.752 926.057 431.344 903.85 444.703 C 889.76 453.14 875.868 451.849 860.915 447.421 C 855.57 449.534 850.165 451.494 844.707 453.298 C 846.249 448.616 848.974 443.127 851.058 438.563 L 831.32 448.739 C 833.339 443.348 839.816 431.529 833.194 428.622 C 828.109 428.922 820.769 432.534 815.735 434.653 C 819.009 430.076 826.607 421.083 825.838 415.796 C 821.212 412.547 809.928 415.812 803.614 416.869 L 818.511 402.07 C 815.842 396.477 814.032 392.084 811.792 386.31 C 797.019 399.983 792.118 407.514 787.046 427.007 L 801.629 422.524 C 798.116 426.959 788.455 437.881 788.757 443.025 L 790.691 444.135 C 797.472 444.118 804.165 441.451 810.925 439.528 C 807.263 444.01 798.327 452.742 799.342 458.172 C 804.323 460.777 816.456 457.241 822.484 455.926 L 812.486 468.526 L 823.025 473.263 C 807.881 491.168 787.124 500.148 766.816 510.81 C 805.854 499.681 845.458 490.643 885.46 483.735 C 1026.47 459.004 1154.43 462.67 1289.58 510.645 C 1321.77 477.487 1356.58 472.902 1394.36 501.385 C 1366.41 503.457 1350.23 500.713 1339.05 531.765 C 1369.68 539.976 1438.45 561.639 1456.96 587.529 C 1468.12 603.134 1468.56 614.341 1466.23 632.001 C 1463.96 625.67 1462.08 619.882 1458.08 614.39 C 1442.97 593.609 1414.69 589.175 1390.82 590.838 C 1425.45 602.63 1449.41 636.502 1451.64 672.65 C 1426.68 648.632 1412.17 638.578 1377.84 631.097 C 1401.69 666.623 1389.5 702.66 1365.27 733.823 C 1375.14 672.935 1342.21 627.367 1289.08 599.89 C 1220.53 564.442 1132.45 555.981 1056.43 563.015 C 1016.71 566.689 975.428 577.436 937.531 589.047 C 944.567 615.956 937.894 619.292 922.192 639.995 L 919.749 639.058 L 865.694 713.966 C 885.645 722.146 906.968 729.292 926.392 738.416 C 940.373 744.983 941.403 764.48 926.343 770.253 C 912.972 776.238 835.842 765.988 828.726 771.101 C 834.103 772.651 837.219 772.456 842.719 772.526 C 841.889 784.719 841.22 796.923 840.711 809.133 C 803.235 807.533 765.26 795.225 746.685 836.882 C 741.427 821.659 735.522 815.815 723.603 805.204 C 723.271 804.909 723.088 800.771 723.083 800.039 C 722.942 795.505 723.282 792.05 721.326 788.031 L 724.149 737.601 L 718.68 728.317 C 653.28 808.346 628.754 897.964 639.629 1000.53 C 658.558 1179.06 774.021 1367.74 895.204 1495.25 C 899.805 1495.61 904.409 1495.94 909.014 1496.25 L 908.098 1498.91 C 947.526 1500.23 987.304 1503.57 1026.72 1505.42 C 1043.95 1506.22 1066.2 1508.35 1083.15 1507.9 C 1107.81 1492.5 1086.36 1473.64 1075.94 1455.06 C 1061.68 1429.65 1042.47 1404.72 1028.93 1378.96 C 1079.78 1315.63 1113.45 1235.47 1104.17 1153 C 1103.56 1147.99 1102.88 1142.99 1102.12 1138.01 C 1124.75 1137.24 1147.69 1137.07 1170.19 1136.1 C 1170.45 1173.46 1169.89 1202 1182.24 1238.42 C 1188.21 1256 1195.54 1269.69 1203.31 1286.43 C 1218.54 1319.5 1233.99 1352.46 1249.66 1385.31 C 1260.18 1407.53 1277.63 1441.82 1284.35 1464.34 C 1303.05 1527.54 1285.91 1595.92 1239.6 1642.82 C 1211.34 1671.63 1180.37 1686.91 1141.27 1694.85 L 1140.41 1697.86 C 1136.93 1698.23 1135.93 1697.65 1134.08 1699.57 C 1137.23 1702.99 1164.87 1721.05 1170.35 1724.67 C 1223.68 1759.84 1278.82 1792.18 1335.54 1821.57 C 1346.67 1827.28 1415.99 1862.15 1421.59 1862.12 C 1421.15 1859.9 1421.44 1860.57 1420.38 1858.58 L 1420.98 1854.68 C 1410.1 1838.2 1399.78 1820.71 1389.14 1803.99 L 1267.89 1610.57 C 1295.87 1562.19 1302.34 1509.52 1284.55 1455.89 C 1278.94 1438.99 1270.5 1424.9 1263.29 1408.8 C 1247.3 1373.59 1230.94 1338.55 1214.2 1303.69 C 1179.79 1230.9 1173.73 1217.37 1172.64 1136.14 C 1193.31 1135.16 1214.32 1135.07 1235.1 1134.32 C 1263.56 1183.94 1292.23 1235.79 1319.77 1285.94 L 1322.4 1284.91 L 1620.86 1818.55 L 1601.16 1828.02 C 1625.65 1850.96 1645.64 1865.06 1674.23 1883.14 C 1693.58 1895.38 1719.66 1907.39 1737.11 1920.86 C 1745.67 1927.46 1744.29 1945.82 1743.8 1956.11 C 1708.74 1955.26 1669.14 1952.15 1633.81 1950.19 L 1453 1939.97 L 1455.52 1898.46 L 1447.32 1902.2 C 1440.67 1891.4 1433.95 1880.65 1427.16 1869.95 C 1329.96 1839.65 1234.86 1802.95 1142.5 1760.1 C 1113.54 1746.51 1084.9 1732.23 1056.61 1717.28 C 1050.08 1713.85 1020.39 1696.25 1016.09 1695.98 C 982.638 1693.84 934.434 1686.72 902.294 1693.36 C 960.627 1729.96 1022.2 1761.13 1086.23 1786.47 C 1102.55 1792.97 1119.02 1799.1 1135.61 1804.85 C 1146.91 1808.67 1167.52 1814.9 1177.63 1819.76 L 1176.58 1820.26 C 1162.7 1819.88 1131.4 1811.65 1116.54 1808.15 C 1023.35 1786.58 932.016 1757.62 843.424 1721.53 C 841.228 1723.7 839.97 1725.35 837.076 1726.4 C 834.629 1722.16 837.594 1721.37 835.387 1718 C 820.239 1733.26 812.289 1764.26 797.631 1779.11 C 788.572 1788.29 773.646 1786.85 761.884 1785.88 L 765.578 1722.57 C 747.278 1720.46 722.742 1715.09 704.259 1711.26 C 650.519 1700.08 597.336 1686.38 544.888 1670.19 C 420.249 1631.56 294.734 1577.47 192.531 1494.7 C 164.106 1471.68 115.004 1429.26 129.895 1386.9 C 143.352 1351.73 192.586 1352.52 219.888 1369.53 C 243.83 1384.46 264.327 1408.72 285.208 1428.16 C 307.232 1448.43 330.092 1467.76 353.728 1486.12 C 468.598 1576.22 627.673 1662.29 765.942 1714.06 C 766.6 1705.27 767.042 1696.47 767.269 1687.66 z M 772.866 1593.14 C 774.052 1572.34 775.945 1548.31 776.152 1527.72 C 724.954 1484.01 676.659 1437.02 631.574 1387.03 C 616.99 1370.89 602.725 1354.45 588.788 1337.74 C 584.871 1333.03 566.813 1310.55 563.389 1307.62 C 600.515 1400.97 657.665 1481.1 727.63 1552.89 C 737.308 1562.82 761.167 1586.73 771.499 1594.49 L 772.751 1594.12 L 772.866 1593.14 z"/>
<path transform="translate(0,0)" fill="rgb(0,120,215)" d="M 1102.12 1138.01 C 1124.75 1137.24 1147.69 1137.07 1170.19 1136.1 C 1170.45 1173.46 1169.89 1202 1182.24 1238.42 C 1188.21 1256 1195.54 1269.69 1203.31 1286.43 C 1218.54 1319.5 1233.99 1352.46 1249.66 1385.31 C 1260.18 1407.53 1277.63 1441.82 1284.35 1464.34 C 1303.05 1527.54 1285.91 1595.92 1239.6 1642.82 C 1211.34 1671.63 1180.37 1686.91 1141.27 1694.85 C 1110.55 1699.16 1087.78 1696.31 1057.24 1694.66 L 975.223 1690.19 C 913.572 1686.55 890.4 1682.99 838.443 1721.6 L 851.02 1495.87 C 868.467 1496.13 890.556 1497.76 908.098 1498.91 C 947.526 1500.23 987.304 1503.57 1026.72 1505.42 C 1043.95 1506.22 1066.2 1508.35 1083.15 1507.9 C 1107.81 1492.5 1086.36 1473.64 1075.94 1455.06 C 1061.68 1429.65 1042.47 1404.72 1028.93 1378.96 C 1079.78 1315.63 1113.45 1235.47 1104.17 1153 C 1103.56 1147.99 1102.88 1142.99 1102.12 1138.01 z"/>
<path transform="translate(0,0)" fill="rgb(6,84,171)" d="M 1172.64 1136.14 C 1193.31 1135.16 1214.32 1135.07 1235.1 1134.32 C 1263.56 1183.94 1292.23 1235.79 1319.77 1285.94 C 1343.17 1328.31 1366.83 1370.53 1390.76 1412.6 L 1530.39 1662.45 L 1585.8 1761.59 C 1595.85 1779.59 1607.33 1799.12 1616.65 1817.36 C 1603.87 1823.95 1590.54 1830.4 1577.51 1836.5 C 1534.43 1856.66 1491.89 1878.65 1448.69 1898.46 C 1439.02 1884.03 1430.44 1868.82 1420.98 1854.68 C 1410.1 1838.2 1399.78 1820.71 1389.14 1803.99 L 1267.89 1610.57 C 1295.87 1562.19 1302.34 1509.52 1284.55 1455.89 C 1278.94 1438.99 1270.5 1424.9 1263.29 1408.8 C 1247.3 1373.59 1230.94 1338.55 1214.2 1303.69 C 1179.79 1230.9 1173.73 1217.37 1172.64 1136.14 z"/>
<path transform="translate(0,0)" fill="rgb(254,196,194)" d="M 795.316 568.704 C 799.124 564.569 813.153 548.522 817.654 547.487 C 858.172 538.164 836.383 586.846 827.662 603.324 L 824.519 604.232 L 823.899 605.382 C 826.754 607.963 832.973 611.156 836.923 611.644 C 840.162 597.444 859.232 586.098 866.077 567.748 C 868.37 561.602 852.71 498.709 894.038 519.107 C 901.654 522.866 901.831 541.33 902.462 550.702 L 903.883 553.148 C 931.879 547.135 931.361 577.538 936.578 596.185 C 942.139 616.058 929.548 624.084 919.749 639.058 L 865.694 713.966 C 885.645 722.146 906.968 729.292 926.392 738.416 C 940.373 744.983 941.403 764.48 926.343 770.253 C 912.972 776.238 835.842 765.988 828.726 771.101 C 834.103 772.651 837.219 772.456 842.719 772.526 C 841.889 784.719 841.22 796.923 840.711 809.133 C 803.235 807.533 765.26 795.225 746.685 836.882 C 741.427 821.659 735.522 815.815 723.603 805.204 C 723.271 804.909 723.088 800.771 723.083 800.039 C 725.249 789.506 725.364 755.66 727.036 741.554 L 728.204 738.199 C 704.97 706.424 724.162 681.627 738.531 652.186 C 744.363 640.238 750.452 628.344 756.396 616.453 C 772.683 623.122 772.111 618.235 784.682 611.832 C 786.948 610.678 796.644 616.275 801.66 613.844 C 808.518 610.521 821.496 600.714 824.024 593.838 L 823.14 592.364 C 812.737 597.059 806.359 621.246 785.069 606.768 L 784.116 606.106 C 771.575 589.887 784.189 580.258 795.316 568.704 z"/>
<path transform="translate(0,0)" fill="rgb(27,27,27)" d="M 896.519 590.031 C 898.333 597.307 900.012 600.517 896.961 607.386 C 890.316 617.433 882.865 627.265 875.716 636.983 C 872.529 635.07 869.903 633.772 867.32 631.088 L 867.24 629.357 L 870.361 627.089 C 877.429 616.455 886.603 602.889 894.511 592.955 L 896.519 590.031 z"/>
<path transform="translate(0,0)" fill="rgb(253,253,252)" d="M 872.54 628.913 C 874.917 625.212 877.332 621.535 879.784 617.884 C 884.222 611.343 886.491 607.355 894.109 605.892 C 891.266 611.638 879.686 627.154 875.217 632.016 L 874.11 632.074 L 872.54 628.913 z"/>
<path transform="translate(0,0)" fill="rgb(27,27,27)" d="M 902.462 550.702 L 903.883 553.148 C 887.763 563.001 891.448 574.163 896.519 590.031 L 894.511 592.955 C 889.111 575.237 883.826 562.07 902.462 550.702 z"/>
<path transform="translate(0,0)" fill="rgb(37,15,14)" d="M 728.204 738.199 C 731.027 740.955 735.015 744.162 736.232 747.719 C 733.126 748.126 729.227 743.701 727.036 741.554 L 728.204 738.199 z"/>
<path transform="translate(0,0)" fill="rgb(254,196,194)" d="M 782.809 608.852 C 768.977 622.443 749.834 615.812 750.508 600.075 C 751.36 580.141 770.116 542.694 793.799 566.123 L 795.316 568.704 C 784.189 580.258 771.575 589.887 784.116 606.106 L 782.809 608.852 z"/>
<path transform="translate(0,0)" fill="rgb(27,27,27)" d="M 793.799 566.123 L 795.316 568.704 C 784.189 580.258 771.575 589.887 784.116 606.106 L 782.809 608.852 C 767.363 590.673 781.052 579.433 793.799 566.123 z"/>
<path transform="translate(0,0)" fill="rgb(238,80,48)" d="M 1597.03 1829.91 C 1600.37 1829.82 1618.99 1847.63 1623.27 1851.04 C 1656.05 1877.09 1691.95 1897.76 1728.75 1917.45 C 1737.82 1922.3 1740.19 1930.78 1742.29 1940.29 L 1619.24 1923.54 C 1614.71 1922.32 1586.17 1918.88 1580.11 1918.05 L 1493.05 1906.2 C 1485.67 1905.21 1463.89 1902.94 1458.51 1900.36 L 1458.66 1898.61 C 1465.05 1891.4 1579.45 1838.46 1597.03 1829.91 z"/>
<path transform="translate(0,0)" fill="rgb(238,80,48)" d="M 816.868 1500.61 C 827.252 1502.07 837.655 1503.39 848.074 1504.58 C 843.504 1572.58 841.56 1641.23 835.417 1708.96 C 835.309 1710.15 802.678 1767.8 799.281 1773.77 C 791.837 1781.55 788.122 1782.32 778.141 1784.95 C 781.221 1754.17 787.123 1717.71 791.391 1686.65 L 816.868 1500.61 z"/>
<path transform="translate(0,0)" fill="rgb(238,80,48)" d="M 879.071 999.917 C 925.026 939.086 972.898 879.58 1019.15 818.97 C 1033.38 800.319 1043.78 784.496 1068.65 780.533 C 1099.9 775.555 1119.11 797.011 1140.6 815.561 C 1133.11 827.277 1133.08 836.394 1132.23 849.856 C 1130.85 871.576 1128.53 893.469 1127.47 915.184 C 1144.77 909.936 1162.09 904.777 1179.45 899.708 C 1194.36 917.63 1218.36 948.942 1233.26 964.46 C 1233.87 940.997 1234.14 917.527 1234.09 894.056 C 1255.45 911.23 1268.99 931.396 1272.15 959.219 C 1273.14 967.941 1272.93 976.758 1271.52 985.422 C 1269.36 999.496 1262.35 1023.96 1258.68 1038.25 L 1234.97 1131.96 C 1164.57 1133.49 1086.27 1134.34 1016.16 1137.77 C 1017.22 1099.04 1018.53 1060.32 1020.09 1021.61 C 1021.06 1001.52 1024.5 964.468 1023.39 945.995 C 1019.8 953.044 1017.8 1018.04 1016.88 1030.56 C 1004.22 1045.4 991.445 1060.14 978.554 1074.77 C 973.97 1080.02 969.029 1085.39 964.597 1090.72 C 928.021 1134.74 880.528 1154.61 823.143 1146.54 L 822.829 1149.01 C 808.421 1147.5 793.21 1141.53 779.884 1136.03 C 793.56 1218.93 815.333 1288.61 851.481 1365 C 861.625 1386.43 872.541 1406.1 882.966 1427.15 C 877.328 1422.57 869.834 1413.7 865.11 1407.79 C 803.998 1331.44 747.74 1242.62 722.562 1147.22 C 716.676 1124.91 712.451 1100.37 714.652 1077.67 C 713.372 1075.34 712.119 1072.99 710.895 1070.62 C 688.898 1028.36 692.849 999.825 695.465 954.281 L 700.047 872.068 C 700.471 864.366 703.12 807.122 704.615 802.402 C 708.116 800.987 712.055 802.362 715.174 804.117 L 715.712 806.297 C 740.423 815.966 741.34 829.463 746.206 851.884 C 749.328 837.067 752.802 824.701 766.45 815.937 C 782.33 805.741 802.35 809.983 820.195 810.765 C 842.474 811.742 864.771 813.579 887.059 814.393 C 883.28 866.698 881.225 919.985 877.932 972.385 C 877.282 982.733 873.777 1036.35 875.066 1043.29 C 878.297 1035.26 878.169 1010.04 879.071 999.917 z"/>
<path transform="translate(0,0)" fill="rgb(27,27,27)" d="M 714.652 1077.67 C 713.372 1075.34 712.119 1072.99 710.895 1070.62 C 688.898 1028.36 692.849 999.825 695.465 954.281 L 700.047 872.068 C 700.471 864.366 703.12 807.122 704.615 802.402 C 708.116 800.987 712.055 802.362 715.174 804.117 L 715.712 806.297 L 706.283 804.057 L 699.372 930.042 C 697.729 959.011 693.292 1001.13 698.639 1028.37 C 703.623 1054.15 715.565 1078.08 733.173 1097.57 C 758.004 1125.01 787.333 1139.37 823.143 1146.54 L 822.829 1149.01 C 808.421 1147.5 793.21 1141.53 779.884 1136.03 C 793.56 1218.93 815.333 1288.61 851.481 1365 C 861.625 1386.43 872.541 1406.1 882.966 1427.15 C 877.328 1422.57 869.834 1413.7 865.11 1407.79 C 803.998 1331.44 747.74 1242.62 722.562 1147.22 C 716.676 1124.91 712.451 1100.37 714.652 1077.67 z"/>
<path transform="translate(0,0)" fill="rgb(27,27,27)" d="M 787.814 840.445 C 792.859 838.613 798.502 839.7 802.504 843.274 C 806.507 846.849 808.223 852.334 806.97 857.552 C 805.717 862.771 801.699 866.879 796.509 868.247 C 788.972 870.235 781.204 865.941 778.877 858.501 C 776.55 851.061 780.487 843.107 787.814 840.445 z"/>
<path transform="translate(0,0)" fill="rgb(238,80,48)" d="M 789.672 842.557 C 795.966 840.837 802.479 844.466 804.328 850.723 C 806.178 856.979 802.685 863.566 796.468 865.545 C 792.33 866.862 787.804 865.838 784.635 862.869 C 781.467 859.9 780.151 855.45 781.196 851.236 C 782.241 847.021 785.484 843.701 789.672 842.557 z"/>
<path transform="translate(0,0)" fill="rgb(27,27,27)" fill-opacity="0.968627" d="M 919.749 639.058 L 922.192 639.995 C 905.373 663.61 885.977 689.229 870.019 712.89 C 878.793 716.282 976.782 742.568 927.202 773.287 C 921.369 776.901 858.995 772.859 845.13 772.818 C 844.585 785.061 843.923 797.3 843.146 809.531 C 856.516 810.136 876.872 810.498 889.589 812.128 L 882.972 930.408 C 881.879 949.906 881.174 977.593 878.493 996.263 C 912.313 951.006 948.77 905.351 983.485 860.563 L 1015.95 818.574 C 1031.32 798.729 1041.87 781.834 1068.82 777.751 C 1101.22 772.842 1120.29 794.505 1142.74 813.913 C 1146.48 811.532 1151.85 808.783 1154.06 805.233 L 1154.92 806.034 L 1154.92 807.143 C 1154.77 832.057 1143.29 859.742 1162.41 878.551 C 1169.79 885.799 1179.85 889.661 1190.18 889.216 C 1199.78 888.886 1208.84 884.729 1215.35 877.674 C 1223.78 868.382 1232.16 842.198 1237.01 829.096 L 1239.52 829.998 L 1227.75 861.177 C 1231.89 873.202 1233.35 877.768 1234.19 890.292 C 1305.64 952.399 1264.98 1008.53 1249.31 1086.37 C 1259.5 1085.4 1269.7 1084.49 1279.91 1083.66 C 1288.92 1074.95 1294.22 1074.18 1304.75 1081.43 C 1319.02 1079.71 1332.23 1077.51 1346.56 1079 L 1348.21 1079.16 C 1348.54 1079.2 1348.87 1079.23 1349.2 1079.27 L 1380.24 1017.28 C 1385.55 1006.68 1390.49 994.589 1397.25 984.889 C 1398.42 983.212 1399.43 982.126 1401.36 981.346 C 1404.24 980.18 1408.74 980.097 1411.5 981.69 C 1414.09 983.191 1415.11 986.37 1415.41 989.173 C 1416.71 1001.37 1396.27 1047.32 1390.91 1061.06 C 1406.57 1039.56 1420.18 1016.45 1436.19 995.274 C 1439.66 990.684 1447.12 988.7 1451.39 992.366 C 1462.89 1002.25 1441.34 1029.24 1436.79 1041.11 C 1444.97 1030.56 1455.21 1009.49 1467.53 1004.76 C 1472.68 1002.79 1479.26 1009.84 1478.74 1014.95 C 1470.68 1041.1 1450.84 1065.94 1440.02 1091.07 C 1446.38 1085.31 1501.5 1028.32 1498.85 1065.56 C 1498.44 1071.38 1453.82 1115.31 1446.06 1124.08 C 1428.05 1143.88 1414.33 1170.55 1392.94 1186.53 C 1387.91 1190.29 1377.93 1189.2 1373.9 1191.49 C 1338.49 1211.65 1307.45 1196.79 1268.57 1189.13 C 1284.86 1215.91 1300.52 1246.16 1316.24 1273.62 L 1578.22 1273.32 L 1578.05 1050.45 C 1578.16 1046.32 1577.51 1045.18 1579.3 1042.12 C 1585.25 1041.11 1599.17 1041.55 1605.97 1041.56 L 1653.29 1041.55 L 1734.26 1041.54 C 1747.55 1041.54 1766.44 1041.01 1779.21 1041.85 C 1781.59 1044.48 1781.02 1046.75 1781.16 1050.97 C 1780.61 1124.75 1781.97 1199.67 1780.86 1273.18 C 1795.89 1273.17 1855.29 1271.75 1865.3 1274.93 C 1857 1277.48 1794.38 1276.02 1780.91 1275.97 C 1780.97 1280.52 1781.6 1304.38 1779.11 1306.57 C 1778.15 1295.64 1778.09 1287.02 1778.18 1276.04 L 1580.86 1275.97 C 1580.91 1283.08 1581.5 1300.23 1579.1 1306.07 C 1577.85 1295.73 1577.99 1286.39 1578.1 1275.97 L 1317.51 1275.97 L 1322.4 1284.91 L 1319.77 1285.94 C 1292.23 1235.79 1263.56 1183.94 1235.1 1134.32 C 1214.32 1135.07 1193.31 1135.16 1172.64 1136.14 C 1173.73 1217.37 1179.79 1230.9 1214.2 1303.69 C 1230.94 1338.55 1247.3 1373.59 1263.29 1408.8 C 1270.5 1424.9 1278.94 1438.99 1284.55 1455.89 C 1302.34 1509.52 1295.87 1562.19 1267.89 1610.57 L 1389.14 1803.99 C 1399.78 1820.71 1410.1 1838.2 1420.98 1854.68 L 1420.38 1858.58 C 1415.04 1851.3 1407.63 1838.71 1402.65 1830.77 L 1369.37 1777.53 L 1266.39 1613.27 C 1265.41 1614.78 1264.41 1616.29 1263.41 1617.79 C 1233.34 1662.49 1192.68 1687.48 1140.41 1697.86 L 1141.27 1694.85 C 1180.37 1686.91 1211.34 1671.63 1239.6 1642.82 C 1285.91 1595.92 1303.05 1527.54 1284.35 1464.34 C 1277.63 1441.82 1260.18 1407.53 1249.66 1385.31 C 1233.99 1352.46 1218.54 1319.5 1203.31 1286.43 C 1195.54 1269.69 1188.21 1256 1182.24 1238.42 C 1169.89 1202 1170.45 1173.46 1170.19 1136.1 C 1147.69 1137.07 1124.75 1137.24 1102.12 1138.01 C 1102.88 1142.99 1103.56 1147.99 1104.17 1153 C 1113.45 1235.47 1079.78 1315.63 1028.93 1378.96 C 1042.47 1404.72 1061.68 1429.65 1075.94 1455.06 C 1086.36 1473.64 1107.81 1492.5 1083.15 1507.9 C 1066.2 1508.35 1043.95 1506.22 1026.72 1505.42 C 987.304 1503.57 947.526 1500.23 908.098 1498.91 L 909.014 1496.25 L 1024.26 1502.7 C 1042.5 1503.76 1061.68 1505.55 1079.93 1505.05 C 1083.81 1504.86 1086.87 1503.01 1089.16 1499.98 C 1098.5 1487.65 1080.4 1468.14 1073.46 1456.95 L 1034.35 1393.69 C 1008.01 1351.52 991.411 1326.97 984.339 1275.94 L 907.696 1275.98 C 899.902 1275.99 878.667 1276.6 872.105 1275.61 L 871.344 1274.53 C 876.162 1271.11 969.161 1273.44 984.063 1273.51 C 979.298 1241.03 986.948 1196.25 1000.01 1166.26 C 1003.08 1159.2 1012.59 1144.42 1013.26 1138.59 C 1014.5 1127.72 1014.61 1113.01 1014.94 1101.85 L 1017.03 1033.93 C 1011.36 1041.83 998.616 1056.09 991.579 1063.99 C 972.325 1085.59 955.016 1108.81 931.118 1125.33 C 899.547 1147.18 860.635 1155.68 822.829 1149.01 L 823.143 1146.54 C 880.528 1154.61 928.021 1134.74 964.597 1090.72 C 969.029 1085.39 973.97 1080.02 978.554 1074.77 C 991.445 1060.14 1004.22 1045.4 1016.88 1030.56 C 1017.8 1018.04 1019.8 953.044 1023.39 945.995 C 1024.5 964.468 1021.06 1001.52 1020.09 1021.61 C 1018.53 1060.32 1017.22 1099.04 1016.16 1137.77 C 1086.27 1134.34 1164.57 1133.49 1234.97 1131.96 L 1258.68 1038.25 C 1262.35 1023.96 1269.36 999.496 1271.52 985.422 C 1272.93 976.758 1273.14 967.941 1272.15 959.219 C 1268.99 931.396 1255.45 911.23 1234.09 894.056 C 1234.14 917.527 1233.87 940.997 1233.26 964.46 C 1218.36 948.942 1194.36 917.63 1179.45 899.708 C 1162.09 904.777 1144.77 909.936 1127.47 915.184 C 1128.53 893.469 1130.85 871.576 1132.23 849.856 C 1133.08 836.394 1133.11 827.277 1140.6 815.561 C 1119.11 797.011 1099.9 775.555 1068.65 780.533 C 1043.78 784.496 1033.38 800.319 1019.15 818.97 C 972.898 879.58 925.026 939.086 879.071 999.917 C 878.169 1010.04 878.297 1035.26 875.066 1043.29 C 873.777 1036.35 877.282 982.733 877.932 972.385 C 881.225 919.985 883.28 866.698 887.059 814.393 C 864.771 813.579 842.474 811.742 820.195 810.765 C 802.35 809.983 782.33 805.741 766.45 815.937 C 752.802 824.701 749.328 837.067 746.206 851.884 C 741.34 829.463 740.423 815.966 715.712 806.297 L 715.174 804.117 C 718.191 804.655 717.191 804.812 719.998 804.235 C 721.978 800.074 721.121 793.043 721.326 788.031 C 723.282 792.05 722.942 795.505 723.083 800.039 C 723.088 800.771 723.271 804.909 723.603 805.204 C 735.522 815.815 741.427 821.659 746.685 836.882 C 765.26 795.225 803.235 807.533 840.711 809.133 C 841.22 796.923 841.889 784.719 842.719 772.526 C 837.219 772.456 834.103 772.651 828.726 771.101 C 835.842 765.988 912.972 776.238 926.343 770.253 C 941.403 764.48 940.373 744.983 926.392 738.416 C 906.968 729.292 885.645 722.146 865.694 713.966 L 919.749 639.058 z M 1580.82 1273.51 C 1644.3 1272.34 1714.78 1272.39 1778.31 1273.3 L 1778.07 1053.9 C 1758.46 1071.95 1726.27 1085.11 1700.03 1087.95 C 1654.08 1092.93 1617.07 1082.38 1581.09 1054.2 L 1580.82 1273.51 z M 1129.88 911.781 C 1145.68 906.806 1164.37 900.924 1180.44 896.722 C 1196.36 916.047 1213.82 936.474 1229.18 956.062 L 1230.65 956.791 C 1231.32 953.141 1231.24 946.503 1231.13 942.623 C 1230.44 915.833 1234.49 890.828 1226.65 864.865 C 1221.52 875.476 1214.42 885.986 1202.25 889.542 C 1180.2 895.983 1158.38 888.151 1151.19 865.069 C 1145.39 846.43 1153.01 828.572 1151.84 811.026 C 1133.27 821.117 1136.52 837.555 1134.42 855.714 C 1132.32 873.934 1132.6 893.782 1129.88 911.781 z"/>
<path transform="translate(0,0)" fill="rgb(0,120,215)" d="M 1081.61 1138.45 L 1099.67 1138 C 1100.4 1146.08 1101.58 1154.31 1102.37 1162.58 C 1109.31 1234.62 1074.23 1321.47 1027.24 1376.73 C 1024.77 1373.16 1022.23 1368.77 1019.92 1365.02 C 971.529 1293.17 977.249 1213.69 1016.7 1140.08 C 1038.35 1139.45 1059.98 1139.3 1081.61 1138.45 z"/>
<path transform="translate(0,0)" fill="rgb(254,196,194)" d="M 1402.87 982.774 C 1423.18 984.061 1408.32 1006.96 1404.24 1018.82 C 1397.56 1038.21 1388.67 1057.17 1382.44 1076.79 C 1388.72 1070.57 1392.89 1062.95 1398.2 1055.54 C 1412.44 1035.67 1424.81 1013.4 1440.54 994.836 C 1447.04 989.718 1455.71 997.218 1452.34 1004.54 C 1440.96 1029.23 1422.23 1055.53 1412.5 1080.45 C 1431.38 1062.62 1445.5 1026.28 1465.17 1008.08 C 1468.65 1004.86 1479.97 1010.39 1475.34 1019.29 C 1461.34 1046.26 1445.78 1072.71 1432.25 1099.9 C 1447.78 1088.9 1469.76 1068.38 1485.39 1055.48 C 1490.65 1054.41 1494.5 1056.35 1496.72 1061.14 C 1497.43 1071.14 1456.25 1108.17 1447.72 1118.21 C 1430.8 1137.09 1416.45 1159.28 1399.58 1178.07 C 1376.78 1200.68 1352.88 1178.56 1330.25 1167.68 C 1306.95 1156.47 1298.02 1122.8 1285.38 1101.97 C 1279.92 1092.97 1280.37 1079.57 1292.1 1079.4 C 1301.93 1079.27 1325.94 1105.56 1333.7 1112.94 C 1340.72 1100.55 1347.54 1088.04 1354.15 1075.43 C 1361.06 1061.96 1395.87 988.886 1402.87 982.774 z"/>
<path transform="translate(0,0)" fill="rgb(238,80,48)" d="M 1581.09 1054.2 C 1580.95 1050.69 1580.35 1047.42 1581.91 1044.44 C 1596.36 1043.93 1611.51 1043.95 1625.99 1044.12 C 1676.15 1044.74 1726.77 1043.18 1776.89 1044.31 C 1778.76 1046.42 1778.22 1050.88 1778.07 1053.9 C 1758.46 1071.95 1726.27 1085.11 1700.03 1087.95 C 1654.08 1092.93 1617.07 1082.38 1581.09 1054.2 z"/>
<path transform="translate(0,0)" fill="rgb(238,80,48)" d="M 1267.77 1087.4 C 1271.55 1087.11 1275.97 1086.05 1278.67 1087.67 C 1279.24 1099.85 1297.56 1131.92 1304.45 1145.34 C 1307.67 1151.47 1311.95 1156.98 1317.09 1161.62 C 1325.58 1169.32 1358.36 1186.76 1369.48 1190.31 C 1357.87 1196.63 1351.61 1198.4 1338.72 1199.58 C 1324.76 1199.23 1282.53 1189.3 1267.23 1185.96 C 1258.24 1172.19 1245.66 1147.73 1237.36 1132.76 L 1248.6 1089.15 L 1267.77 1087.4 z"/>
<path transform="translate(0,0)" fill="rgb(238,80,48)" d="M 1330.6 1081.41 C 1336.71 1080.45 1341.56 1081.23 1347.7 1081.84 C 1344.74 1087.21 1336.46 1104.47 1332.42 1107.3 L 1330.39 1105.89 L 1306.38 1083.38 C 1314.07 1083.09 1322.85 1082.1 1330.6 1081.41 z"/>
<path transform="translate(0,0)" fill="rgb(81,120,12)" d="M 1467.65 717.927 C 1508.04 730.636 1540.6 753.045 1568.36 785.048 C 1613.89 837.292 1637 905.366 1632.69 974.526 C 1632.28 981.182 1637.83 993.571 1639.75 1000.7 L 1662 1000.76 C 1662.1 995.089 1662.74 990.211 1660.68 985.01 C 1620.35 908.477 1633.09 775.356 1720.13 736.213 C 1718.58 746.44 1716.59 758.122 1716.24 768.243 C 1714.21 826.37 1710.36 884.755 1688.55 939.385 C 1682.51 954.531 1675.05 972.64 1665.59 986.188 C 1664.21 990.783 1664.31 995.878 1664.1 1000.74 L 1723.97 1000.79 C 1724.21 997.456 1725.05 990.181 1724.28 987.304 C 1689.37 929.246 1704.55 839.736 1764.58 803.353 C 1770.27 799.906 1777.58 796.691 1783.98 794.879 C 1782.8 850.54 1785.24 894.767 1757.52 946.59 C 1749.98 960.7 1740.36 975.657 1729.27 987.295 C 1726.49 990.971 1726.66 996.07 1726.25 1000.79 L 1750.58 1000.75 C 1754.8 990.155 1761.29 982.05 1764.81 973.272 C 1766.8 931.692 1803.03 904.958 1843.24 907.418 C 1898.22 910.781 1935.26 963.816 1930.31 1016.61 C 1929.23 1028.13 1927.74 1035.21 1923.86 1046.05 C 1895.68 1019.25 1870.44 986.542 1834.42 969.947 C 1812.19 959.711 1792.2 967.105 1770.74 974.766 C 1763.07 977.809 1756.93 993.094 1753.16 1000.77 C 1765.46 1000.76 1809.12 999.852 1818.6 1001.15 L 1818.99 1002.38 L 1816.91 1004.85 C 1809.4 1021.24 1795.88 1040.39 1781.16 1050.97 C 1781.02 1046.75 1781.59 1044.48 1779.21 1041.85 C 1766.44 1041.01 1747.55 1041.54 1734.26 1041.54 L 1653.29 1041.55 L 1605.97 1041.56 C 1599.17 1041.55 1585.25 1041.11 1579.3 1042.12 C 1577.51 1045.18 1578.16 1046.32 1578.05 1050.45 C 1563.78 1041.8 1548.66 1017.95 1541.32 1003.37 L 1540.38 1002.85 L 1540.23 1001.44 C 1544.45 1000.03 1582.79 1000.71 1590.34 1000.69 L 1578.43 984.24 L 1579.7 980.214 L 1580.08 978.912 C 1581.38 984.489 1589.37 995.377 1592.85 1000.67 C 1607.66 1000.86 1622.47 1000.86 1637.28 1000.69 C 1635.19 994.425 1631.57 981.996 1627.77 977.002 C 1617.55 967.958 1603.63 951.274 1594.91 940.595 C 1540.07 873.443 1502.16 796.871 1467.65 717.927 z"/>
<path transform="translate(0,0)" fill="rgb(81,120,12)" d="M 1720.13 736.213 C 1718.58 746.44 1716.59 758.122 1716.24 768.243 C 1714.21 826.37 1710.36 884.755 1688.55 939.385 C 1682.51 954.531 1675.05 972.64 1665.59 986.188 C 1664.51 978.759 1665.17 970.301 1665.53 962.851 C 1667.9 914.938 1673.32 867.974 1683.92 821.178 C 1685.52 814.137 1696.05 781.127 1695.86 778.679 L 1694.64 778.709 C 1680.81 798.951 1665.69 906.329 1664.62 932.757 C 1664.07 946.235 1663.62 969.817 1661.27 983.911 C 1661.07 984.277 1660.87 984.643 1660.68 985.01 C 1620.35 908.477 1633.09 775.356 1720.13 736.213 z"/>
<path transform="translate(0,0)" fill="rgb(81,120,12)" d="M 1764.81 973.272 C 1766.8 931.692 1803.03 904.958 1843.24 907.418 C 1898.22 910.781 1935.26 963.816 1930.31 1016.61 C 1929.23 1028.13 1927.74 1035.21 1923.86 1046.05 C 1895.68 1019.25 1870.44 986.542 1834.42 969.947 C 1812.19 959.711 1792.2 967.105 1770.74 974.766 L 1769.56 973.618 C 1771.77 966.621 1782.64 958.204 1788.3 953.739 C 1829.55 921.158 1875.02 946.151 1899.36 985.494 C 1903.13 991.578 1906.2 999.964 1910.31 1005.65 L 1911.3 1005.49 C 1911.33 1005.03 1911.35 1004.57 1911.38 1004.11 C 1900.35 971.884 1863.78 934.64 1829.21 936.12 C 1794.56 937.604 1784.06 954.249 1764.81 973.272 z"/>
<path transform="translate(0,0)" fill="rgb(238,80,48)" d="M 1541.32 1003.37 L 1730.65 1003.36 L 1786.79 1003.33 C 1791.28 1003.33 1814.47 1002.47 1816.91 1004.85 C 1809.4 1021.24 1795.88 1040.39 1781.16 1050.97 C 1781.02 1046.75 1781.59 1044.48 1779.21 1041.85 C 1766.44 1041.01 1747.55 1041.54 1734.26 1041.54 L 1653.29 1041.55 L 1605.97 1041.56 C 1599.17 1041.55 1585.25 1041.11 1579.3 1042.12 C 1577.51 1045.18 1578.16 1046.32 1578.05 1050.45 C 1563.78 1041.8 1548.66 1017.95 1541.32 1003.37 z"/>
<path transform="translate(0,0)" fill="rgb(81,120,12)" d="M 1724.28 987.304 C 1689.37 929.246 1704.55 839.736 1764.58 803.353 C 1770.27 799.906 1777.58 796.691 1783.98 794.879 C 1782.8 850.54 1785.24 894.767 1757.52 946.59 C 1749.98 960.7 1740.36 975.657 1729.27 987.295 C 1727.47 982.867 1728.96 973.763 1729.67 968.86 C 1736.28 923.399 1744.74 877.026 1762.5 834.446 C 1763.52 831.985 1765 829.171 1764.03 826.707 C 1760.96 829.2 1757.4 839.07 1755.87 843.123 C 1743.76 875.214 1736.53 909.233 1730.88 942.973 C 1728.53 957.028 1727.4 972.301 1724.56 986.001 L 1724.28 987.304 z"/>
<path transform="translate(0,0)" fill="rgb(9,18,4)" d="M 1627.77 977.002 C 1627.46 969.85 1621.09 955.306 1618.21 948.173 C 1598.8 899.305 1574.25 852.64 1544.97 808.966 C 1533.46 792.074 1521.14 776.605 1508.53 760.605 C 1508.53 760.019 1508.52 759.433 1508.52 758.848 L 1510.11 759.071 C 1558.08 813.943 1593.31 880.564 1620.89 947.509 C 1624.4 956.041 1627.03 965.946 1631.34 974.007 L 1632.69 974.526 C 1632.28 981.182 1637.83 993.571 1639.75 1000.7 L 1662 1000.76 C 1662.1 995.089 1662.74 990.211 1660.68 985.01 C 1660.87 984.643 1661.07 984.277 1661.27 983.911 C 1663.62 969.817 1664.07 946.235 1664.62 932.757 C 1665.69 906.329 1680.81 798.951 1694.64 778.709 L 1695.86 778.679 C 1696.05 781.127 1685.52 814.137 1683.92 821.178 C 1673.32 867.974 1667.9 914.938 1665.53 962.851 C 1665.17 970.301 1664.51 978.759 1665.59 986.188 C 1664.21 990.783 1664.31 995.878 1664.1 1000.74 L 1723.97 1000.79 C 1724.21 997.456 1725.05 990.181 1724.28 987.304 L 1724.56 986.001 C 1727.4 972.301 1728.53 957.028 1730.88 942.973 C 1736.53 909.233 1743.76 875.214 1755.87 843.123 C 1757.4 839.07 1760.96 829.2 1764.03 826.707 C 1765 829.171 1763.52 831.985 1762.5 834.446 C 1744.74 877.026 1736.28 923.399 1729.67 968.86 C 1728.96 973.763 1727.47 982.867 1729.27 987.295 C 1726.49 990.971 1726.66 996.07 1726.25 1000.79 L 1750.58 1000.75 C 1754.8 990.155 1761.29 982.05 1764.81 973.272 C 1784.06 954.249 1794.56 937.604 1829.21 936.12 C 1863.78 934.64 1900.35 971.884 1911.38 1004.11 C 1911.35 1004.57 1911.33 1005.03 1911.3 1005.49 L 1910.31 1005.65 C 1906.2 999.964 1903.13 991.578 1899.36 985.494 C 1875.02 946.151 1829.55 921.158 1788.3 953.739 C 1782.64 958.204 1771.77 966.621 1769.56 973.618 L 1770.74 974.766 C 1763.07 977.809 1756.93 993.094 1753.16 1000.77 C 1765.46 1000.76 1809.12 999.852 1818.6 1001.15 L 1818.99 1002.38 L 1816.91 1004.85 C 1814.47 1002.47 1791.28 1003.33 1786.79 1003.33 L 1730.65 1003.36 L 1541.32 1003.37 L 1540.38 1002.85 L 1540.23 1001.44 C 1544.45 1000.03 1582.79 1000.71 1590.34 1000.69 L 1578.43 984.24 L 1579.7 980.214 L 1580.08 978.912 C 1581.38 984.489 1589.37 995.377 1592.85 1000.67 C 1607.66 1000.86 1622.47 1000.86 1637.28 1000.69 C 1635.19 994.425 1631.57 981.996 1627.77 977.002 z"/>
<path transform="translate(0,0)" fill="rgb(27,27,27)" d="M 1204.49 672.262 C 1210.35 667.304 1205.14 653.329 1215.03 646.322 C 1224.92 639.313 1236.21 641.407 1245.79 648.111 C 1282.75 673.968 1321.79 692.928 1316.78 745.451 C 1314.78 767.106 1304.02 787.005 1287 800.535 C 1273.63 811.241 1259.88 814.261 1243.76 819.328 L 1239.52 829.998 L 1237.01 829.096 C 1232.16 842.198 1223.78 868.382 1215.35 877.674 C 1208.84 884.729 1199.78 888.886 1190.18 889.216 C 1179.85 889.661 1169.79 885.799 1162.41 878.551 C 1143.29 859.742 1154.77 832.057 1154.92 807.143 L 1154.92 806.034 L 1154.06 805.233 C 1141.55 798.815 1121.76 788.932 1118.1 774.195 C 1114.91 761.369 1127.96 755.464 1138.63 754.859 C 1142.38 749.365 1148.22 742.359 1150.7 736.502 C 1148.44 723.979 1154.62 729.074 1162.31 722.817 L 1164.09 723.196 C 1181.93 722.534 1191.76 706.127 1187.89 689.45 C 1193.87 683.193 1197.66 680.219 1204.54 674.818 L 1204.49 672.262 z"/>
<path transform="translate(0,0)" fill="rgb(254,196,194)" d="M 1204.54 674.818 L 1207.42 674.009 C 1210.31 676.119 1212.6 678.775 1215.31 681.17 C 1227.28 691.751 1235.87 696.42 1238.6 712.515 C 1242.45 735.22 1218.79 742.499 1227.84 757.875 C 1242.1 764.789 1249.61 722.723 1264.84 743.478 C 1266.38 745.574 1265.26 751.704 1263.55 753.709 C 1259.82 758.823 1246.9 779.216 1242.95 782.501 C 1242.12 781.562 1242.3 782.049 1242.18 780.779 C 1240.25 760.83 1220.72 773.605 1210.74 777.625 C 1200.19 781.874 1187.52 780.18 1176.8 778.057 C 1180.69 765.079 1181.78 756.775 1175.5 743.636 C 1171.94 736.191 1163.54 731.366 1162 726.577 L 1164.09 723.196 C 1181.93 722.534 1191.76 706.127 1187.89 689.45 C 1193.87 683.193 1197.66 680.219 1204.54 674.818 z"/>
<path transform="translate(0,0)" fill="rgb(27,27,27)" d="M 1199.34 703.035 C 1224.95 701.274 1210.98 731.735 1194 739.531 C 1169.89 742.043 1182.62 711.981 1199.34 703.035 z"/>
<path transform="translate(0,0)" fill="rgb(254,196,194)" d="M 1202.51 704.897 C 1221.18 708.589 1204.33 732.081 1191.56 737.345 C 1183.14 736.053 1181.61 729.312 1184.88 722.319 C 1189.01 713.505 1193.7 708.798 1202.51 704.897 z"/>
<path transform="translate(0,0)" fill="rgb(254,196,194)" d="M 1154.92 806.034 C 1161.07 806.726 1166.35 809.33 1172.57 810.188 C 1198.18 813.724 1215.49 806.698 1236.28 792.753 C 1210.55 828.527 1235.68 816.276 1239.28 822.577 L 1237.01 829.096 C 1232.16 842.198 1223.78 868.382 1215.35 877.674 C 1208.84 884.729 1199.78 888.886 1190.18 889.216 C 1179.85 889.661 1169.79 885.799 1162.41 878.551 C 1143.29 859.742 1154.77 832.057 1154.92 807.143 L 1154.92 806.034 z"/>
<path transform="translate(0,0)" fill="rgb(254,196,194)" d="M 1153.53 738.449 C 1164.87 744.158 1173.79 767.36 1163.79 770.626 L 1160.37 768.398 C 1153.62 763.5 1148.49 760.199 1141.34 755.878 L 1153.53 738.449 z"/>
<path transform="translate(0,0)" fill="rgb(27,27,27)" d="M 135.39 1024.4 C 182.845 1027.09 188.102 1079.06 199.888 1114.47 C 208.108 1138.88 217.535 1162.87 228.134 1186.34 C 268.648 1277.78 326.225 1364.81 389.235 1442.27 C 396.844 1451.63 404.743 1460.62 412.159 1470.17 C 404.243 1466.02 397.646 1460.36 390.695 1454.79 C 284.888 1370.59 178.523 1256.17 122.812 1131.24 C 109.959 1102.42 82.2357 1029.91 135.39 1024.4 z"/>
<path transform="translate(0,0)" fill="rgb(81,120,12)" d="M 1351.38 903.439 C 1352.65 901.874 1353.94 900.324 1355.25 898.788 C 1412.65 831.199 1516.81 853.408 1560.21 924.64 C 1569.98 940.684 1578.72 959.939 1580.08 978.912 L 1579.7 980.214 L 1578.43 984.24 L 1576.71 983.318 C 1564.67 978.716 1535.44 963.416 1523.37 956.985 C 1460.3 923.38 1423.06 907.72 1351.38 903.439 z"/>
<path transform="translate(0,0)" fill="rgb(9,18,4)" d="M 1576.71 983.318 C 1573.73 975.282 1562.54 963.851 1556.62 957.221 C 1522.85 919.42 1476.79 888.808 1424.58 888.149 C 1418.7 888.075 1405.4 889.707 1400.25 888.243 C 1403.81 886.312 1413.97 885.719 1417.9 885.567 C 1485.18 882.973 1539.92 928.57 1578.51 979.166 C 1578.91 979.516 1579.3 979.865 1579.7 980.214 L 1578.43 984.24 L 1576.71 983.318 z"/>
<path transform="translate(0,0)" fill="rgb(27,27,27)" fill-opacity="0.960784" d="M 1162.31 722.817 C 1157.1 717.904 1156.29 711.762 1158.19 706.613 C 1163.93 691.053 1170.67 686.06 1186.11 686.592 C 1185.63 686.575 1200.68 674.364 1204.49 672.262 L 1204.54 674.818 C 1197.66 680.219 1193.87 683.193 1187.89 689.45 C 1191.76 706.127 1181.93 722.534 1164.09 723.196 L 1162.31 722.817 z M 1164.61 717.473 C 1169.9 709.973 1178.87 698.025 1183.09 690.347 L 1182.58 689.239 C 1180.48 689.135 1178.38 688.978 1176.28 689.023 C 1166.57 695.166 1156.91 704.954 1161.22 717.443 L 1162.61 718.779 C 1164.42 717.905 1163.87 718.48 1164.61 717.473 z"/>
<path transform="translate(0,0)" fill="rgb(254,196,194)" d="M 1184.9 693.672 L 1186.03 694.844 C 1188.56 706.216 1177.89 716.261 1168.5 720.675 L 1167.61 718.989 C 1171.1 712.302 1180.2 700.258 1184.9 693.672 z"/>
</svg>