<svg version="1.1" xmlns="http://www.w3.org/2000/svg" style="display: block;" viewBox="0 0 2048 2048" width="2000" height="2000" preserveAspectRatio="none">
<defs>
	<linearGradient id="Gradient1" gradientUnits="userSpaceOnUse" x1="1015.06" y1="889.1" x2="990.182" y2="1200.89">
		<stop class="stop0" offset="0" stop-opacity="1" stop-color="rgb(194,146,97)"/>
		<stop class="stop1" offset="1" stop-opacity="1" stop-color="rgb(205,181,139)"/>
	</linearGradient>
	<linearGradient id="Gradient2" gradientUnits="userSpaceOnUse" x1="1085.05" y1="541.782" x2="952.938" y2="540.218">
		<stop class="stop0" offset="0" stop-opacity="1" stop-color="rgb(36,34,35)"/>
		<stop class="stop1" offset="1" stop-opacity="1" stop-color="rgb(59,50,57)"/>
	</linearGradient>
	<linearGradient id="Gradient3" gradientUnits="userSpaceOnUse" x1="1149.01" y1="540.817" x2="889.989" y2="541.172">
		<stop class="stop0" offset="0" stop-opacity="1" stop-color="rgb(118,150,181)"/>
		<stop class="stop1" offset="1" stop-opacity="1" stop-color="rgb(149,175,199)"/>
	</linearGradient>
	<linearGradient id="Gradient4" gradientUnits="userSpaceOnUse" x1="1286.98" y1="595.17" x2="742.082" y2="473.171">
		<stop class="stop0" offset="0" stop-opacity="1" stop-color="rgb(109,100,103)"/>
		<stop class="stop1" offset="1" stop-opacity="1" stop-color="rgb(149,137,143)"/>
	</linearGradient>
</defs>
<path transform="translate(0,0)" fill="rgb(248,161,143)" d="M 629.053 378.333 C 631.789 361.465 649.714 343.932 663.381 334.76 C 771.905 261.928 951.759 267.687 1074.7 286.567 C 1160.55 299.752 1249.46 326.661 1327.72 361.195 C 1340.78 366.955 1382.04 385.499 1392.34 393.153 C 1395.24 381.612 1399.19 377.099 1409.06 370.516 C 1430.95 361.831 1440.93 372.156 1454.39 388.18 C 1465.58 401.507 1474.75 415.538 1482.7 431.018 C 1487.8 440.6 1491.59 452.773 1498.09 461.371 C 1497.77 462.229 1497.45 463.088 1497.13 463.947 C 1500.29 481.177 1505.68 497.604 1507.02 515.23 C 1508.74 536.782 1507.59 558.467 1503.61 579.717 C 1496.91 616.922 1480.88 648.706 1458.52 678.903 C 1455.14 683.463 1443.5 694.459 1442.3 697.923 C 1450.33 710.922 1457.17 723.969 1461.87 738.589 C 1458.45 744.702 1456.36 750.398 1456.58 757.797 C 1456.84 766.986 1470.38 771.589 1473.31 775.085 C 1485.33 818.089 1496.74 865.287 1526.35 899.858 C 1554.78 929.13 1567.8 934.627 1586.87 974.628 L 1587.2 976.781 C 1512.09 1017.69 1464.6 1054.72 1419.43 1128.13 C 1423.08 1134.74 1426.6 1141.13 1430.52 1147.59 L 1439.35 1143.58 C 1464.31 1162.51 1493.07 1188.09 1513.63 1211.82 C 1519.98 1219.06 1550.62 1253.59 1553.6 1261.74 L 1555.82 1263.41 L 1557.27 1265.61 C 1574.23 1289.94 1603.85 1336.16 1614.4 1364.04 C 1621.72 1379.51 1628.15 1395.4 1633.66 1411.61 C 1635.59 1417.13 1641.12 1434.8 1643.3 1439 C 1661.45 1510.08 1682.24 1608.95 1642.84 1675.46 C 1614.76 1722.84 1563.27 1749.79 1511.31 1762.84 C 1497.46 1766.32 1454.17 1776.2 1442.47 1771.48 C 1434.5 1768.27 1387.26 1767.14 1374.52 1766.13 C 1315.26 1761.42 1256.14 1755.31 1196.8 1751.51 C 1166.51 1749.57 1135.3 1747.11 1104.97 1748.69 C 1018.42 1767.83 925.735 1767 837.258 1765.22 C 821.09 1764.9 803.536 1761.66 787.476 1759.63 C 773.511 1758.48 730.862 1763.35 715.55 1764.79 C 622.823 1773.54 537.262 1785.03 450.759 1740.62 C 411.51 1720.47 376.094 1685.53 364.352 1642.68 C 341.312 1558.62 375.302 1423.55 414.077 1349.35 C 430.116 1316.79 445.792 1292.37 466.425 1262.76 C 479.212 1245.64 492.688 1229.05 506.818 1213.02 L 509.055 1210.53 C 532.821 1185.96 554.436 1163.83 582.347 1143.83 L 591.052 1147.48 C 621.467 1098.37 648.04 1046.07 678.642 997.025 C 679.342 995.905 684.798 994.519 686.217 994.13 C 683.325 959.09 680.103 950.969 660.533 920 C 617.846 852.444 556.936 810.246 488.454 771.983 L 489.452 769.497 C 493.889 759.726 498.223 752.437 503.686 743.333 C 510.71 751.215 523.966 767.82 533.572 770.802 C 548.087 777.949 568.416 774.63 570.957 757.193 C 573.218 741.678 547.028 718.314 537.238 706.077 C 548.921 695.668 557.261 686.957 565.856 673.948 C 575.165 685.407 584.847 698.542 597.705 705.884 C 602.775 708.553 613.951 711.516 619.185 709.249 C 666.29 688.847 598.115 650.009 592.554 618.028 C 595.22 610.426 597.412 603.342 599.72 595.617 C 596.266 592.813 592.368 587.416 594.347 583.434 C 606.614 558.748 609.587 540.147 610.928 512.007 C 610.837 487.925 609.523 453.135 612.911 430.151 C 626.727 408.795 644.558 408.102 629.053 378.333 z"/>
<path transform="translate(0,0)" fill="rgb(249,239,230)" d="M 629.053 378.333 C 631.789 361.465 649.714 343.932 663.381 334.76 C 771.905 261.928 951.759 267.687 1074.7 286.567 C 1160.55 299.752 1249.46 326.661 1327.72 361.195 C 1340.78 366.955 1382.04 385.499 1392.34 393.153 C 1395.24 381.612 1399.19 377.099 1409.06 370.516 C 1430.95 361.831 1440.93 372.156 1454.39 388.18 C 1465.58 401.507 1474.75 415.538 1482.7 431.018 C 1487.8 440.6 1491.59 452.773 1498.09 461.371 C 1497.77 462.229 1497.45 463.088 1497.13 463.947 C 1500.29 481.177 1505.68 497.604 1507.02 515.23 C 1508.74 536.782 1507.59 558.467 1503.61 579.717 C 1496.91 616.922 1480.88 648.706 1458.52 678.903 C 1455.14 683.463 1443.5 694.459 1442.3 697.923 C 1450.33 710.922 1457.17 723.969 1461.87 738.589 C 1458.45 744.702 1456.36 750.398 1456.58 757.797 C 1456.84 766.986 1470.38 771.589 1473.31 775.085 C 1485.33 818.089 1496.74 865.287 1526.35 899.858 C 1554.78 929.13 1567.8 934.627 1586.87 974.628 L 1587.2 976.781 C 1512.09 1017.69 1464.6 1054.72 1419.43 1128.13 C 1423.08 1134.74 1426.6 1141.13 1430.52 1147.59 C 1413.4 1154.93 1395.18 1162.4 1378.35 1170.19 C 1367.54 1152.78 1345.66 1135.02 1326.73 1128.95 C 1290.58 1117.35 1277.45 1087.03 1255.83 1059.05 C 1251.23 1053.11 1233.9 1024.01 1228.65 1020.31 C 1226.25 1015.25 1225.56 1013.21 1224.73 1007.77 C 1222.68 998.532 1220.57 989.31 1218.4 980.102 C 1212.85 975.731 1196.65 973.282 1189.31 970.959 C 1173.77 966.043 1166.28 957.08 1157.19 944.772 L 1155.54 940.853 C 1157.38 936.27 1157.48 935.632 1157.57 930.683 C 1142.37 887.611 1173.06 894.368 1181.9 859.389 C 1185.77 841.095 1166.96 830.848 1169.11 812.505 C 1170.53 797.133 1190.82 786.19 1180.11 770.159 C 1167.78 751.692 1151.73 751.356 1132.13 748.325 C 1109.77 744.868 1125.56 704.391 1093.43 718.972 C 1078.89 725.568 1065.12 740.072 1048.62 737.982 C 1032.18 735.842 1038.77 710.887 1023.69 708.514 C 1004.42 708.715 987.076 733.872 972.664 744.316 C 947.773 762.762 955.232 741.415 946.954 727.183 C 943.356 720.954 937.402 716.434 930.435 714.641 C 918.698 711.517 906.404 714.973 896.065 720.668 C 882.294 733.269 889.406 748.933 880.196 762.976 C 864.268 787.261 829.103 765.744 826.858 822.538 C 825.832 848.486 831.829 876.55 843.503 899.75 C 851.317 914.055 856.542 922.668 861.95 938.147 C 861.397 938.905 860.844 939.664 860.292 940.422 C 851.326 943.461 834.833 948.792 826.222 950.771 C 814.902 955.036 802.373 958.067 790.906 961.916 C 758.017 972.956 720.836 982.055 688.402 993.735 L 686.217 994.13 C 683.325 959.09 680.103 950.969 660.533 920 C 617.846 852.444 556.936 810.246 488.454 771.983 L 489.452 769.497 C 493.889 759.726 498.223 752.437 503.686 743.333 C 510.71 751.215 523.966 767.82 533.572 770.802 C 548.087 777.949 568.416 774.63 570.957 757.193 C 573.218 741.678 547.028 718.314 537.238 706.077 C 548.921 695.668 557.261 686.957 565.856 673.948 C 575.165 685.407 584.847 698.542 597.705 705.884 C 602.775 708.553 613.951 711.516 619.185 709.249 C 666.29 688.847 598.115 650.009 592.554 618.028 C 595.22 610.426 597.412 603.342 599.72 595.617 C 596.266 592.813 592.368 587.416 594.347 583.434 C 606.614 558.748 609.587 540.147 610.928 512.007 C 610.837 487.925 609.523 453.135 612.911 430.151 C 626.727 408.795 644.558 408.102 629.053 378.333 z"/>
<path transform="translate(0,0)" fill="rgb(241,234,228)" d="M 822.117 436.33 C 896.762 381.521 972.212 358.417 1065.09 372.133 C 1162.51 386.519 1235.5 448.224 1294.74 522.817 C 1299.45 528.743 1303.2 534.821 1301.56 542.609 C 1302.16 550.318 1302.94 553.375 1297.06 559.422 C 1262.95 594.491 1225.71 626.524 1183.96 652.149 C 1177.34 656.214 1138.22 673.774 1136.89 675.425 C 1132.37 678.848 1118.26 684.358 1112.68 685.55 C 1047.22 711.774 963.391 703.12 898.02 679.124 C 852.336 665.516 796.871 621.924 762.216 590.888 L 760.805 588.624 C 753.229 583.102 731.152 560.735 723.775 553.264 C 724.645 550.212 724.747 547.761 725.042 544.627 L 723.66 544.889 C 725.831 536.022 724.914 533.322 729.53 524.799 C 732.681 522.849 733.129 520.247 734.514 516.68 C 742.161 490.347 755.356 450.503 766.194 425.262 C 783.331 428.901 798.196 432.657 813.123 442.584 C 816.013 440.411 819.116 438.367 822.117 436.33 z"/>
<path transform="translate(0,0)" fill="url(#Gradient4)" d="M 822.117 436.33 C 896.762 381.521 972.212 358.417 1065.09 372.133 C 1162.51 386.519 1235.5 448.224 1294.74 522.817 C 1299.45 528.743 1303.2 534.821 1301.56 542.609 C 1295.43 532.431 1277.12 512.857 1268.63 503.949 C 1220.17 453.114 1164.16 413.73 1095.02 396.75 C 1012.06 376.005 924.257 389.132 850.995 433.233 C 816.242 454.457 787.477 480.264 759.694 509.862 C 731.456 539.946 730.563 540.007 759.968 568.831 C 821.208 628.861 893.937 680.07 980.959 691.833 C 1026.56 698.052 1067.29 694.822 1111.76 683.621 L 1112.68 685.55 C 1047.22 711.774 963.391 703.12 898.02 679.124 C 852.336 665.516 796.871 621.924 762.216 590.888 L 760.805 588.624 C 753.229 583.102 731.152 560.735 723.775 553.264 C 724.645 550.212 724.747 547.761 725.042 544.627 L 723.66 544.889 C 725.831 536.022 724.914 533.322 729.53 524.799 C 732.681 522.849 733.129 520.247 734.514 516.68 C 742.161 490.347 755.356 450.503 766.194 425.262 C 783.331 428.901 798.196 432.657 813.123 442.584 C 816.013 440.411 819.116 438.367 822.117 436.33 z"/>
<path transform="translate(0,0)" fill="rgb(122,155,146)" d="M 766.194 425.262 C 783.331 428.901 798.196 432.657 813.123 442.584 C 794.573 456.685 778.203 472.161 761.931 488.715 C 756.172 494.574 739.867 514.268 735.819 517.121 L 734.514 516.68 C 742.161 490.347 755.356 450.503 766.194 425.262 z"/>
<path transform="translate(0,0)" fill="rgb(154,167,174)" d="M 813.123 442.584 C 816.013 440.411 819.116 438.367 822.117 436.33 C 817.59 442.607 801.631 455.095 795.342 460.792 C 780.934 473.843 730.092 529.054 725.042 544.627 L 723.66 544.889 C 725.831 536.022 724.914 533.322 729.53 524.799 C 732.681 522.849 733.129 520.247 734.514 516.68 L 735.819 517.121 C 739.867 514.268 756.172 494.574 761.931 488.715 C 778.203 472.161 794.573 456.685 813.123 442.584 z"/>
<path transform="translate(0,0)" fill="rgb(154,167,174)" d="M 1111.76 683.621 C 1116.19 681.379 1131.31 677.26 1136.89 675.425 C 1132.37 678.848 1118.26 684.358 1112.68 685.55 L 1111.76 683.621 z"/>
<path transform="translate(0,0)" fill="url(#Gradient3)" d="M 1011.13 427.42 C 1074.24 423.695 1142.38 463.893 1150.96 530.235 C 1154.28 557.269 1146.6 584.504 1129.65 605.828 C 1105.06 637.374 1071.3 650.344 1032.82 654.943 C 1026.24 655.126 1019.46 655.171 1012.89 654.885 C 953.952 652.325 893.208 609.54 888.824 547.027 C 886.935 519.516 896.216 492.404 914.569 471.823 C 939.699 443.091 973.778 430.067 1011.13 427.42 z"/>
<path transform="translate(0,0)" fill="url(#Gradient2)" d="M 1013.23 479.369 C 1047.52 476.221 1082.66 500.187 1086.68 535.518 C 1088.51 551.232 1083.9 567.019 1073.9 579.275 C 1061.37 594.808 1044.72 601.605 1025.36 603.616 C 991.056 606.601 956.758 583.139 952.219 547.982 C 950.263 532.323 954.714 516.538 964.562 504.207 C 977.045 488.471 993.734 481.523 1013.23 479.369 z"/>
<path transform="translate(0,0)" fill="rgb(61,102,99)" d="M 1333.07 655.167 C 1359.75 652.981 1380.48 655.002 1405.28 665.175 C 1398.5 671.844 1391.93 678.324 1392.34 688.574 C 1393.23 710.738 1414.44 713.661 1430.76 705.967 C 1435.11 703.397 1437.38 700.322 1442.3 697.923 C 1450.33 710.922 1457.17 723.969 1461.87 738.589 C 1458.45 744.702 1456.36 750.398 1456.58 757.797 C 1456.84 766.986 1470.38 771.589 1473.31 775.085 C 1485.33 818.089 1496.74 865.287 1526.35 899.858 C 1554.78 929.13 1567.8 934.627 1586.87 974.628 L 1587.2 976.781 C 1512.09 1017.69 1464.6 1054.72 1419.43 1128.13 C 1423.08 1134.74 1426.6 1141.13 1430.52 1147.59 C 1413.4 1154.93 1395.18 1162.4 1378.35 1170.19 C 1367.54 1152.78 1345.66 1135.02 1326.73 1128.95 C 1290.58 1117.35 1277.45 1087.03 1255.83 1059.05 C 1251.23 1053.11 1233.9 1024.01 1228.65 1020.31 C 1226.25 1015.25 1225.56 1013.21 1224.73 1007.77 C 1222.68 998.532 1220.57 989.31 1218.4 980.102 C 1212.85 975.731 1196.65 973.282 1189.31 970.959 C 1173.77 966.043 1166.28 957.08 1157.19 944.772 L 1155.54 940.853 C 1157.38 936.27 1157.48 935.632 1157.57 930.683 C 1158.04 934.372 1157.76 937.222 1159.82 939.723 C 1171.59 944.359 1201.93 953.653 1214.53 956.795 C 1202.69 893.484 1205.37 784.685 1237.82 727.922 L 1238.98 725.014 C 1261.57 685.076 1284.64 664.612 1329.99 655.368 L 1333.07 655.167 z"/>
<path transform="translate(0,0)" fill="rgb(61,102,99)" d="M 1237.82 727.922 C 1296.45 762.95 1383.58 849.545 1398.65 919.036 C 1405.66 951.339 1414.37 1075.34 1407.75 1108.18 L 1409.95 1111.54 C 1412.65 1116.71 1414.73 1120.52 1417.85 1125.5 L 1419.43 1128.13 C 1423.08 1134.74 1426.6 1141.13 1430.52 1147.59 C 1413.4 1154.93 1395.18 1162.4 1378.35 1170.19 C 1367.54 1152.78 1345.66 1135.02 1326.73 1128.95 C 1290.58 1117.35 1277.45 1087.03 1255.83 1059.05 C 1251.23 1053.11 1233.9 1024.01 1228.65 1020.31 C 1226.25 1015.25 1225.56 1013.21 1224.73 1007.77 C 1222.68 998.532 1220.57 989.31 1218.4 980.102 C 1212.85 975.731 1196.65 973.282 1189.31 970.959 C 1173.77 966.043 1166.28 957.08 1157.19 944.772 L 1155.54 940.853 C 1157.38 936.27 1157.48 935.632 1157.57 930.683 C 1158.04 934.372 1157.76 937.222 1159.82 939.723 C 1171.59 944.359 1201.93 953.653 1214.53 956.795 C 1202.69 893.484 1205.37 784.685 1237.82 727.922 z"/>
<path transform="translate(0,0)" fill="rgb(200,166,121)" d="M 1157.57 930.683 C 1158.04 934.372 1157.76 937.222 1159.82 939.723 C 1171.59 944.359 1201.93 953.653 1214.53 956.795 C 1254.47 969.13 1304.8 983.138 1343.35 996.689 C 1364.2 1032.82 1386.23 1072.81 1407.75 1108.18 L 1409.95 1111.54 C 1412.65 1116.71 1414.73 1120.52 1417.85 1125.5 L 1419.43 1128.13 C 1423.08 1134.74 1426.6 1141.13 1430.52 1147.59 C 1413.4 1154.93 1395.18 1162.4 1378.35 1170.19 C 1367.54 1152.78 1345.66 1135.02 1326.73 1128.95 C 1290.58 1117.35 1277.45 1087.03 1255.83 1059.05 C 1251.23 1053.11 1233.9 1024.01 1228.65 1020.31 C 1226.25 1015.25 1225.56 1013.21 1224.73 1007.77 C 1222.68 998.532 1220.57 989.31 1218.4 980.102 C 1212.85 975.731 1196.65 973.282 1189.31 970.959 C 1173.77 966.043 1166.28 957.08 1157.19 944.772 L 1155.54 940.853 C 1157.38 936.27 1157.48 935.632 1157.57 930.683 z"/>
<path transform="translate(0,0)" fill="rgb(61,102,99)" d="M 1218.4 980.102 C 1233.92 982.001 1293.32 1014.17 1292.4 1031.26 C 1282.05 1047.76 1244.91 1005.3 1231.49 1004.19 C 1228.94 1003.97 1226.29 1006.4 1224.73 1007.77 C 1222.68 998.532 1220.57 989.31 1218.4 980.102 z"/>
<path transform="translate(0,0)" fill="rgb(61,102,99)" d="M 1329.99 655.368 L 1333.07 655.167 C 1340.85 677.323 1348.91 698.231 1356.02 720.737 C 1385.83 813.31 1403.73 909.3 1409.31 1006.39 C 1410.46 1028.22 1410.99 1050.08 1410.89 1071.94 C 1410.76 1084.45 1409.69 1099.48 1409.95 1111.54 L 1407.75 1108.18 C 1414.37 1075.34 1405.66 951.339 1398.65 919.036 C 1383.58 849.545 1296.45 762.95 1237.82 727.922 L 1238.98 725.014 C 1261.57 685.076 1284.64 664.612 1329.99 655.368 z"/>
<path transform="translate(0,0)" fill="rgb(112,148,140)" d="M 1329.99 655.368 L 1333.07 655.167 C 1340.85 677.323 1348.91 698.231 1356.02 720.737 C 1385.83 813.31 1403.73 909.3 1409.31 1006.39 C 1410.46 1028.22 1410.99 1050.08 1410.89 1071.94 C 1410.76 1084.45 1409.69 1099.48 1409.95 1111.54 L 1407.75 1108.18 C 1414.37 1075.34 1405.66 951.339 1398.65 919.036 C 1383.58 849.545 1296.45 762.95 1237.82 727.922 L 1238.98 725.014 C 1299.74 766.583 1354.46 815.061 1386.74 882.721 C 1389.89 889.314 1392.67 896.059 1396.27 902.417 L 1396.82 903.367 C 1387.11 830.535 1358.09 723.729 1329.99 655.368 z"/>
<path transform="translate(0,0)" fill="rgb(112,148,140)" d="M 1586.87 974.628 L 1587.2 976.781 C 1512.09 1017.69 1464.6 1054.72 1419.43 1128.13 L 1417.85 1125.5 C 1459.73 1056.46 1515.33 1011.44 1586.87 974.628 z"/>
<path transform="translate(0,0)" fill="rgb(122,155,146)" d="M 683.873 436.41 C 709.539 425.217 735.617 422.338 763.37 425.148 L 766.194 425.262 C 755.356 450.503 742.161 490.347 734.514 516.68 C 733.129 520.247 732.681 522.849 729.53 524.799 C 724.914 533.322 725.831 536.022 723.66 544.889 L 725.042 544.627 C 724.747 547.761 724.645 550.212 723.775 553.264 C 731.152 560.735 753.229 583.102 760.805 588.624 L 762.216 590.888 C 796.871 621.924 852.336 665.516 898.02 679.124 C 897.612 684.936 894.745 716.957 896.065 720.668 C 882.294 733.269 889.406 748.933 880.196 762.976 C 864.268 787.261 829.103 765.744 826.858 822.538 C 825.832 848.486 831.829 876.55 843.503 899.75 C 851.317 914.055 856.542 922.668 861.95 938.147 C 861.397 938.905 860.844 939.664 860.292 940.422 C 851.326 943.461 834.833 948.792 826.222 950.771 C 814.902 955.036 802.373 958.067 790.906 961.916 C 758.017 972.956 720.836 982.055 688.402 993.735 L 686.217 994.13 C 683.325 959.09 680.103 950.969 660.533 920 C 617.846 852.444 556.936 810.246 488.454 771.983 L 489.452 769.497 C 493.889 759.726 498.223 752.437 503.686 743.333 C 510.71 751.215 523.966 767.82 533.572 770.802 C 548.087 777.949 568.416 774.63 570.957 757.193 C 573.218 741.678 547.028 718.314 537.238 706.077 C 548.921 695.668 557.261 686.957 565.856 673.948 C 575.165 685.407 584.847 698.542 597.705 705.884 C 602.775 708.553 613.951 711.516 619.185 709.249 C 666.29 688.847 598.115 650.009 592.554 618.028 C 595.22 610.426 597.412 603.342 599.72 595.617 C 596.266 592.813 592.368 587.416 594.347 583.434 C 606.614 558.748 609.587 540.147 610.928 512.007 L 612.435 513.278 C 614.902 511.154 616.898 498.527 618.507 494.466 C 628.549 469.132 649.002 418.569 683.873 436.41 z"/>
<path transform="translate(0,0)" fill="rgb(122,155,146)" d="M 683.873 436.41 C 709.539 425.217 735.617 422.338 763.37 425.148 L 766.194 425.262 C 755.356 450.503 742.161 490.347 734.514 516.68 C 733.129 520.247 732.681 522.849 729.53 524.799 C 724.914 533.322 725.831 536.022 723.66 544.889 L 725.042 544.627 C 724.747 547.761 724.645 550.212 723.775 553.264 C 731.152 560.735 753.229 583.102 760.805 588.624 L 762.216 590.888 C 735.196 621.347 703.628 668.712 692.697 708.157 C 687.849 725.65 683.867 780.944 682.779 799.735 C 680.135 843.322 680.08 887.029 682.616 930.623 C 683.664 948.198 685.783 976.569 688.402 993.735 L 686.217 994.13 C 683.325 959.09 680.103 950.969 660.533 920 C 617.846 852.444 556.936 810.246 488.454 771.983 L 489.452 769.497 C 493.889 759.726 498.223 752.437 503.686 743.333 C 510.71 751.215 523.966 767.82 533.572 770.802 C 548.087 777.949 568.416 774.63 570.957 757.193 C 573.218 741.678 547.028 718.314 537.238 706.077 C 548.921 695.668 557.261 686.957 565.856 673.948 C 575.165 685.407 584.847 698.542 597.705 705.884 C 602.775 708.553 613.951 711.516 619.185 709.249 C 666.29 688.847 598.115 650.009 592.554 618.028 C 595.22 610.426 597.412 603.342 599.72 595.617 C 596.266 592.813 592.368 587.416 594.347 583.434 C 606.614 558.748 609.587 540.147 610.928 512.007 L 612.435 513.278 C 614.902 511.154 616.898 498.527 618.507 494.466 C 628.549 469.132 649.002 418.569 683.873 436.41 z"/>
<path transform="translate(0,0)" fill="rgb(241,234,228)" d="M 610.928 512.007 L 612.435 513.278 C 614.902 511.154 616.898 498.527 618.507 494.466 C 628.549 469.132 649.002 418.569 683.873 436.41 L 685.497 437.926 C 698.688 462.97 685.474 467.456 672.58 486.632 C 655.043 512.713 653.25 549.203 667.467 577.071 C 675.299 593.33 695.89 605.781 690.409 625.062 C 686.802 637.751 672.622 641.24 661.129 640.061 C 632.779 622.304 617.912 583.18 612.689 551.711 C 609.034 563.619 604.247 584.837 599.72 595.617 C 596.266 592.813 592.368 587.416 594.347 583.434 C 606.614 558.748 609.587 540.147 610.928 512.007 z"/>
<path transform="translate(0,0)" fill="rgb(122,155,146)" d="M 723.775 553.264 C 731.152 560.735 753.229 583.102 760.805 588.624 C 743.724 605.456 722.845 637.55 711.147 658.756 C 705.581 668.847 701.087 680.393 694.652 689.957 C 701.847 642.602 711.748 599.53 723.775 553.264 z"/>
<path transform="translate(0,0)" fill="rgb(162,193,185)" d="M 723.66 544.889 L 725.042 544.627 C 724.747 547.761 724.645 550.212 723.775 553.264 C 711.748 599.53 701.847 642.602 694.652 689.957 C 701.087 680.393 705.581 668.847 711.147 658.756 C 722.845 637.55 743.724 605.456 760.805 588.624 L 762.216 590.888 C 735.196 621.347 703.628 668.712 692.697 708.157 C 687.849 725.65 683.867 780.944 682.779 799.735 C 680.135 843.322 680.08 887.029 682.616 930.623 C 683.664 948.198 685.783 976.569 688.402 993.735 L 686.217 994.13 C 683.325 959.09 680.103 950.969 660.533 920 C 617.846 852.444 556.936 810.246 488.454 771.983 L 489.452 769.497 C 502.4 777.487 516.277 784.372 529.777 792.782 C 571.775 818.946 611.645 851.351 642.475 890.267 C 650.794 900.734 658.47 911.697 665.46 923.095 C 668.401 927.898 676.935 943.983 679.225 946.389 L 681.226 946.172 C 682.03 939.667 680.004 909.867 679.679 901.998 C 678.8 880.38 678.724 858.736 679.451 837.112 C 682.198 738.264 697.045 640.126 723.66 544.889 z"/>
<path transform="translate(0,0)" fill="rgb(211,190,176)" d="M 685.497 437.926 C 700.44 447.373 705.802 461.223 693.598 476.078 C 672.771 501.428 662.875 524.874 668.369 557.951 C 670.035 568.566 673.76 578.754 679.335 587.94 C 686.222 599.102 698.049 607.394 700.33 620.887 C 702.513 633.802 693.403 642.745 680.98 644.164 C 674.095 644.94 667.142 643.503 661.129 640.061 C 672.622 641.24 686.802 637.751 690.409 625.062 C 695.89 605.781 675.299 593.33 667.467 577.071 C 653.25 549.203 655.043 512.713 672.58 486.632 C 685.474 467.456 698.688 462.97 685.497 437.926 z"/>
<path transform="translate(0,0)" fill="rgb(162,193,185)" d="M 763.37 425.148 L 766.194 425.262 C 755.356 450.503 742.161 490.347 734.514 516.68 C 733.129 520.247 732.681 522.849 729.53 524.799 C 739.494 491.15 750.783 457.907 763.37 425.148 z"/>
<path transform="translate(0,0)" fill="rgb(249,239,230)" d="M 826.222 950.771 C 829.619 935.933 835.953 912.499 843.503 899.75 C 851.317 914.055 856.542 922.668 861.95 938.147 C 861.397 938.905 860.844 939.664 860.292 940.422 C 851.326 943.461 834.833 948.792 826.222 950.771 z"/>
<path transform="translate(0,0)" fill="rgb(241,234,228)" d="M 1409.06 370.516 C 1430.95 361.831 1440.93 372.156 1454.39 388.18 C 1465.58 401.507 1474.75 415.538 1482.7 431.018 C 1487.8 440.6 1491.59 452.773 1498.09 461.371 C 1497.77 462.229 1497.45 463.088 1497.13 463.947 C 1500.29 481.177 1505.68 497.604 1507.02 515.23 C 1508.74 536.782 1507.59 558.467 1503.61 579.717 C 1496.91 616.922 1480.88 648.706 1458.52 678.903 C 1455.14 683.463 1443.5 694.459 1442.3 697.923 C 1437.38 700.322 1435.11 703.397 1430.76 705.967 C 1414.44 713.661 1393.23 710.738 1392.34 688.574 C 1391.93 678.324 1398.5 671.844 1405.28 665.175 C 1407.11 663.293 1409.4 660.337 1411.08 658.257 C 1460.49 597.82 1466.61 512.861 1426.38 445.964 C 1416.3 429.414 1403.59 419.196 1394.18 403.468 C 1393.26 401.92 1392.57 395.319 1392.34 393.153 C 1395.24 381.612 1399.19 377.099 1409.06 370.516 z"/>
<path transform="translate(0,0)" fill="rgb(211,190,176)" d="M 1409.06 370.516 C 1390.5 403.083 1412.47 406.995 1430.6 433.711 C 1469.48 491.83 1472.07 566.956 1437.3 627.621 C 1432.94 635.252 1427.4 643.715 1422.1 650.348 C 1412.71 662.107 1396.63 671.753 1401.63 689.387 C 1405.52 703.081 1419.05 705.386 1430.76 705.967 C 1414.44 713.661 1393.23 710.738 1392.34 688.574 C 1391.93 678.324 1398.5 671.844 1405.28 665.175 C 1407.11 663.293 1409.4 660.337 1411.08 658.257 C 1460.49 597.82 1466.61 512.861 1426.38 445.964 C 1416.3 429.414 1403.59 419.196 1394.18 403.468 C 1393.26 401.92 1392.57 395.319 1392.34 393.153 C 1395.24 381.612 1399.19 377.099 1409.06 370.516 z"/>
<path transform="translate(0,0)" fill="rgb(241,234,228)" d="M 1341.55 438.386 C 1356.79 425.222 1372.57 433.7 1383.68 447.13 C 1407.37 475.511 1418.75 512.18 1415.28 548.987 C 1412.68 574.653 1404 598.689 1388.07 619.14 C 1383.61 624.862 1373.49 638.401 1366.29 640.602 L 1364.67 641.214 C 1357.98 643.771 1354.31 644.895 1347.08 644.139 C 1330.04 642.357 1322.73 628.592 1329.49 613.192 C 1331.24 609.202 1336.04 604.906 1338.9 601.386 C 1349.68 588.157 1357.37 572.804 1359.85 555.823 C 1364.73 522.864 1354.05 500.247 1333.8 475.307 C 1330.59 471.363 1326.14 461.227 1327.73 456.068 C 1330.44 447.332 1334.43 443.351 1341.55 438.386 z"/>
<path transform="translate(0,0)" fill="rgb(211,190,176)" d="M 1341.55 438.386 C 1330.19 466.291 1339.67 464.004 1354.98 486.425 C 1378.57 520.982 1373.32 569.1 1344.58 599.105 C 1338.75 605.271 1337.33 609.862 1335.51 618.046 C 1341.09 638.311 1346.9 638.824 1366.29 640.602 L 1364.67 641.214 C 1357.98 643.771 1354.31 644.895 1347.08 644.139 C 1330.04 642.357 1322.73 628.592 1329.49 613.192 C 1331.24 609.202 1336.04 604.906 1338.9 601.386 C 1349.68 588.157 1357.37 572.804 1359.85 555.823 C 1364.73 522.864 1354.05 500.247 1333.8 475.307 C 1330.59 471.363 1326.14 461.227 1327.73 456.068 C 1330.44 447.332 1334.43 443.351 1341.55 438.386 z"/>
<path transform="translate(0,0)" fill="url(#Gradient1)" d="M 896.065 720.668 C 906.404 714.973 918.698 711.517 930.435 714.641 C 937.402 716.434 943.356 720.954 946.954 727.183 C 955.232 741.415 947.773 762.762 972.664 744.316 C 987.076 733.872 1004.42 708.715 1023.69 708.514 C 1038.77 710.887 1032.18 735.842 1048.62 737.982 C 1065.12 740.072 1078.89 725.568 1093.43 718.972 C 1125.56 704.391 1109.77 744.868 1132.13 748.325 C 1151.73 751.356 1167.78 751.692 1180.11 770.159 C 1190.82 786.19 1170.53 797.133 1169.11 812.505 C 1166.96 830.848 1185.77 841.095 1181.9 859.389 C 1173.06 894.368 1142.37 887.611 1157.57 930.683 C 1157.48 935.632 1157.38 936.27 1155.54 940.853 L 1157.19 944.772 C 1150.65 968.811 1139.12 975.817 1136.49 1002.24 L 1137.54 1004.32 C 1145.65 1001.66 1159.76 992.288 1167.29 997.676 C 1187.85 1012.39 1183.35 1054.57 1172.14 1073.16 C 1159.8 1093.64 1147.73 1102.59 1125.62 1101.59 C 1120 1126.96 1109 1179.14 1086.49 1194.33 C 1082.87 1196.78 1075.73 1198.03 1071.24 1198.6 C 1043.49 1199.58 1016.37 1197.19 988.561 1199.64 C 971.796 1201.11 953.46 1199.78 936.862 1197.3 L 935.313 1197.06 L 933.136 1196.03 C 920.947 1193.57 913.536 1186.03 908.824 1174.7 C 898.919 1150.88 893.073 1125.68 887.352 1100.61 C 872.314 1102.98 859.276 1101.05 848.133 1089.94 C 825.033 1066.92 820.773 1034.52 832.963 1005.37 C 827.232 995.495 825.442 984.506 824.725 973.304 C 845.674 966.79 845.693 966.341 860.464 950.562 L 862.444 950.811 C 862.965 947.416 864.837 943.896 866.021 940.188 L 863.116 939.536 L 861.95 938.147 C 856.542 922.668 851.317 914.055 843.503 899.75 C 831.829 876.55 825.832 848.486 826.858 822.538 C 829.103 765.744 864.268 787.261 880.196 762.976 C 889.406 748.933 882.294 733.269 896.065 720.668 z"/>
<path transform="translate(0,0)" fill="rgb(45,40,44)" d="M 896.065 720.668 C 906.404 714.973 918.698 711.517 930.435 714.641 C 937.402 716.434 943.356 720.954 946.954 727.183 C 955.232 741.415 947.773 762.762 972.664 744.316 C 987.076 733.872 1004.42 708.715 1023.69 708.514 C 1038.77 710.887 1032.18 735.842 1048.62 737.982 C 1065.12 740.072 1078.89 725.568 1093.43 718.972 C 1125.56 704.391 1109.77 744.868 1132.13 748.325 C 1151.73 751.356 1167.78 751.692 1180.11 770.159 C 1190.82 786.19 1170.53 797.133 1169.11 812.505 C 1166.96 830.848 1185.77 841.095 1181.9 859.389 C 1173.06 894.368 1142.37 887.611 1157.57 930.683 C 1157.48 935.632 1157.38 936.27 1155.54 940.853 L 1157.19 944.772 C 1150.65 968.811 1139.12 975.817 1136.49 1002.24 C 1134 1010.82 1136.37 1030.01 1137.52 1038.89 L 1125.52 1041.84 C 1131.75 1002.39 1138.42 939.856 1112.83 906.587 C 1096.9 885.868 1066.39 896.47 1044.53 900.256 C 1032.97 902.239 1021.32 903.722 1009.62 904.703 C 977.351 907.443 950.468 905.4 918.366 902.635 C 908.97 901.826 897.497 902.619 890.685 909.708 C 859.838 941.815 886.32 1000.11 884.973 1036.34 C 875.357 1027.42 865.218 1010.57 860.558 998.207 C 850.363 1000.49 845.696 987.797 832.963 1005.37 C 827.232 995.495 825.442 984.506 824.725 973.304 C 845.674 966.79 845.693 966.341 860.464 950.562 L 862.444 950.811 C 862.965 947.416 864.837 943.896 866.021 940.188 L 863.116 939.536 L 861.95 938.147 C 856.542 922.668 851.317 914.055 843.503 899.75 C 831.829 876.55 825.832 848.486 826.858 822.538 C 829.103 765.744 864.268 787.261 880.196 762.976 C 889.406 748.933 882.294 733.269 896.065 720.668 z"/>
<path transform="translate(0,0)" fill="rgb(249,239,230)" d="M 824.725 973.304 C 845.674 966.79 845.693 966.341 860.464 950.562 L 862.444 950.811 C 859.914 971.171 855.097 977.332 860.558 998.207 C 850.363 1000.49 845.696 987.797 832.963 1005.37 C 827.232 995.495 825.442 984.506 824.725 973.304 z"/>
<path transform="translate(0,0)" fill="rgb(122,155,146)" d="M 861.95 938.147 L 863.116 939.536 L 866.021 940.188 C 864.837 943.896 862.965 947.416 862.444 950.811 L 860.464 950.562 C 845.693 966.341 845.674 966.79 824.725 973.304 C 825.442 984.506 827.232 995.495 832.963 1005.37 C 820.773 1034.52 825.033 1066.92 848.133 1089.94 C 859.276 1101.05 872.314 1102.98 887.352 1100.61 C 893.073 1125.68 898.919 1150.88 908.824 1174.7 C 913.536 1186.03 920.947 1193.57 933.136 1196.03 L 935.313 1197.06 L 936.862 1197.3 C 940.106 1236.33 942.738 1296.74 916.645 1328.29 C 912.896 1332.82 910.222 1335.26 904.844 1337.41 C 898.643 1336.62 876.737 1338.89 868.715 1339.24 L 866.329 1340.13 C 863.173 1340.19 861.31 1339.97 858.275 1340.75 C 840.805 1342.02 816.103 1345.49 798.652 1348.65 L 795.95 1349.21 C 757.295 1313.95 681.612 1276.31 634.31 1255.18 L 635.045 1252.79 C 637.491 1246.27 640.747 1234.16 642.999 1226.88 C 648.205 1210.16 653.581 1193.49 659.126 1176.88 L 643.186 1169.95 C 627.515 1163.22 605.878 1154.81 591.052 1147.48 C 621.467 1098.37 648.04 1046.07 678.642 997.025 C 679.342 995.905 684.798 994.519 686.217 994.13 L 688.402 993.735 C 720.836 982.055 758.017 972.956 790.906 961.916 C 802.373 958.067 814.902 955.036 826.222 950.771 C 834.833 948.792 851.326 943.461 860.292 940.422 C 860.844 939.664 861.397 938.905 861.95 938.147 z"/>
<path transform="translate(0,0)" fill="rgb(200,166,121)" d="M 861.95 938.147 L 863.116 939.536 L 866.021 940.188 C 864.837 943.896 862.965 947.416 862.444 950.811 L 860.464 950.562 C 845.693 966.341 845.674 966.79 824.725 973.304 C 800.605 978.092 737.105 1004.26 728.847 1030.21 C 729.633 1033.82 728.761 1032.3 731.788 1034.77 C 751.703 1039.15 785.941 994.114 795.636 1007.48 C 795.924 1009.32 796.504 1013.31 795.333 1014.91 C 774.613 1043.16 740.376 1105.79 711.451 1122.45 L 709.875 1122.97 C 682.999 1131.86 659.114 1146 643.186 1169.95 C 627.515 1163.22 605.878 1154.81 591.052 1147.48 C 621.467 1098.37 648.04 1046.07 678.642 997.025 C 679.342 995.905 684.798 994.519 686.217 994.13 L 688.402 993.735 C 720.836 982.055 758.017 972.956 790.906 961.916 C 802.373 958.067 814.902 955.036 826.222 950.771 C 834.833 948.792 851.326 943.461 860.292 940.422 C 860.844 939.664 861.397 938.905 861.95 938.147 z"/>
<path transform="translate(0,0)" fill="rgb(122,155,146)" d="M 935.313 1197.06 L 936.862 1197.3 C 940.106 1236.33 942.738 1296.74 916.645 1328.29 C 912.896 1332.82 910.222 1335.26 904.844 1337.41 C 898.643 1336.62 876.737 1338.89 868.715 1339.24 C 884.437 1283.33 903.222 1245.97 935.313 1197.06 z"/>
<path transform="translate(0,0)" fill="rgb(162,193,185)" d="M 635.045 1252.79 C 673.692 1269.78 706.786 1286.05 742.95 1308.16 C 756.706 1316.57 777.849 1333.38 789.577 1339.6 L 790.567 1336.78 L 791.654 1336.84 C 793.339 1339.87 796.626 1346.21 798.652 1348.65 L 795.95 1349.21 C 757.295 1313.95 681.612 1276.31 634.31 1255.18 L 635.045 1252.79 z"/>
<path transform="translate(0,0)" fill="rgb(162,193,185)" d="M 709.875 1122.97 L 711.451 1122.45 C 723.129 1166.82 734.978 1205.5 751.789 1248.34 C 757.602 1262.83 763.673 1277.23 770.001 1291.51 C 771.93 1295.92 777.809 1308.25 778.724 1311.99 C 772.691 1306.22 768.728 1293.85 765.239 1285.98 C 741.968 1233.4 723.44 1178.84 709.875 1122.97 z"/>
<path transform="translate(0,0)" fill="rgb(162,193,185)" d="M 933.136 1196.03 L 935.313 1197.06 C 903.222 1245.97 884.437 1283.33 868.715 1339.24 L 866.329 1340.13 C 870.26 1305.36 912.118 1224.25 933.136 1196.03 z"/>
<path transform="translate(0,0)" fill="rgb(249,239,230)" d="M 1157.19 944.772 C 1166.28 957.08 1173.77 966.043 1189.31 970.959 C 1196.65 973.282 1212.85 975.731 1218.4 980.102 C 1220.57 989.31 1222.68 998.532 1224.73 1007.77 C 1225.56 1013.21 1226.25 1015.25 1228.65 1020.31 C 1232.66 1034.81 1237.75 1049 1243.86 1062.75 C 1261.09 1101.49 1290.84 1151.68 1267.34 1194.67 C 1251.36 1223.92 1209.96 1243.8 1183.03 1262.21 C 1164.07 1275.18 1144.58 1288.42 1129.3 1305.91 L 1127.44 1308.03 C 1121.49 1315.66 1117.55 1321.21 1113.24 1329.98 C 1110.75 1331.46 1110.07 1331.33 1107.22 1331.74 C 1076.42 1297.41 1071.91 1242.7 1071.24 1198.6 C 1075.73 1198.03 1082.87 1196.78 1086.49 1194.33 C 1109 1179.14 1120 1126.96 1125.62 1101.59 C 1147.73 1102.59 1159.8 1093.64 1172.14 1073.16 C 1183.35 1054.57 1187.85 1012.39 1167.29 997.676 C 1159.76 992.288 1145.65 1001.66 1137.54 1004.32 L 1136.49 1002.24 C 1139.12 975.817 1150.65 968.811 1157.19 944.772 z"/>
<path transform="translate(0,0)" fill="rgb(61,102,99)" d="M 1228.65 1020.31 C 1233.9 1024.01 1251.23 1053.11 1255.83 1059.05 C 1277.45 1087.03 1290.58 1117.35 1326.73 1128.95 C 1345.66 1135.02 1367.54 1152.78 1378.35 1170.19 C 1373.03 1172.45 1367.51 1174.72 1362.25 1177.08 C 1372.44 1205.13 1381.05 1234.29 1389.61 1262.9 L 1390.62 1266.94 C 1386.75 1279.63 1384.57 1295.24 1381.06 1308.23 C 1374.76 1331.55 1367.82 1354.73 1360.39 1377.7 L 1358.43 1376.39 C 1286.85 1343.01 1227.54 1335.33 1149.07 1331.68 C 1142.42 1323.21 1135.54 1314.67 1129.3 1305.91 C 1144.58 1288.42 1164.07 1275.18 1183.03 1262.21 C 1209.96 1243.8 1251.36 1223.92 1267.34 1194.67 C 1290.84 1151.68 1261.09 1101.49 1243.86 1062.75 C 1237.75 1049 1232.66 1034.81 1228.65 1020.31 z"/>
<path transform="translate(0,0)" fill="rgb(112,148,140)" d="M 1389.61 1262.9 L 1390.62 1266.94 C 1386.75 1279.63 1384.57 1295.24 1381.06 1308.23 C 1374.76 1331.55 1367.82 1354.73 1360.39 1377.7 L 1358.43 1376.39 C 1361.27 1370.16 1366.7 1351.82 1368.74 1344.95 C 1376.73 1317.88 1383.69 1290.5 1389.61 1262.9 z"/>
<path transform="translate(0,0)" fill="rgb(200,166,121)" d="M 936.862 1197.3 C 953.46 1199.78 971.796 1201.11 988.561 1199.64 C 1016.37 1197.19 1043.49 1199.58 1071.24 1198.6 C 1071.91 1242.7 1076.42 1297.41 1107.22 1331.74 C 1110.35 1334.96 1112.44 1337.68 1116.76 1339.03 C 1120.46 1343.89 1126.19 1346.18 1130.54 1350.81 C 1134.33 1354 1135.43 1361.24 1130.85 1364.52 C 1113.79 1376.74 1094.23 1384.11 1074.28 1389.91 C 1055.02 1395.51 1035.31 1396.95 1015.51 1396.28 C 976.855 1394.96 937.816 1389.32 901.559 1375.49 C 894.328 1372.73 885.703 1369.24 880.228 1363.62 C 877.538 1360.82 878.731 1355.46 879.129 1351.38 C 885.186 1348.29 892.59 1345.61 897.781 1341.24 C 900.833 1338.68 901.722 1339.45 904.844 1337.41 C 910.222 1335.26 912.896 1332.82 916.645 1328.29 C 942.738 1296.74 940.106 1236.33 936.862 1197.3 z"/>
<path transform="translate(0,0)" fill="rgb(112,148,140)" d="M 634.31 1255.18 C 681.612 1276.31 757.295 1313.95 795.95 1349.21 C 740.744 1358.62 702.285 1371.36 652.705 1395.47 C 638.357 1385.93 619.9 1378.1 604.071 1370.47 C 613.094 1331.77 623.177 1293.33 634.31 1255.18 z"/>
<path transform="translate(0,0)" fill="rgb(230,129,116)" d="M 868.715 1339.24 C 876.737 1338.89 898.643 1336.62 904.844 1337.41 C 901.722 1339.45 900.833 1338.68 897.781 1341.24 C 892.59 1345.61 885.186 1348.29 879.129 1351.38 C 878.731 1355.46 877.538 1360.82 880.228 1363.62 C 885.703 1369.24 894.328 1372.73 901.559 1375.49 C 937.816 1389.32 976.855 1394.96 1015.51 1396.28 C 1035.31 1396.95 1055.02 1395.51 1074.28 1389.91 C 1094.23 1384.11 1113.79 1376.74 1130.85 1364.52 C 1135.43 1361.24 1134.33 1354 1130.54 1350.81 C 1126.19 1346.18 1120.46 1343.89 1116.76 1339.03 C 1131.74 1338.92 1167.62 1338.36 1166.26 1359.38 C 1165.66 1368.62 1159.48 1377.17 1152.35 1382.96 C 1104.35 1419.33 1031.42 1428.33 972.893 1423.23 C 931.531 1419.62 877.025 1406.86 847.956 1376.73 C 832.153 1360.34 839.175 1347.6 858.275 1340.75 C 861.31 1339.97 863.173 1340.19 866.329 1340.13 L 868.715 1339.24 z"/>
<path transform="translate(0,0)" fill="rgb(61,102,99)" d="M 1390.62 1266.94 C 1405.73 1318.75 1418.54 1371.2 1429.03 1424.15 C 1410.62 1408.24 1382.52 1387.6 1360.39 1377.7 C 1367.82 1354.73 1374.76 1331.55 1381.06 1308.23 C 1384.57 1295.24 1386.75 1279.63 1390.62 1266.94 z"/>
<path transform="translate(0,0)" fill="rgb(249,239,230)" d="M 787.476 1759.63 C 787.485 1758.83 787.403 1759.38 788.455 1758.29 C 815.085 1751.68 1087.74 1740.52 1104.97 1748.69 C 1018.42 1767.83 925.735 1767 837.258 1765.22 C 821.09 1764.9 803.536 1761.66 787.476 1759.63 z"/>
<path transform="translate(0,0)" fill="rgb(61,102,99)" d="M 604.071 1370.47 C 619.9 1378.1 638.357 1385.93 652.705 1395.47 C 637.63 1403.42 619.479 1414.28 605.911 1424.82 L 603.805 1426.26 C 600.767 1422.67 597.384 1419.08 594.199 1415.59 L 594.54 1412.84 C 596.895 1406.09 602.298 1378.54 604.071 1370.47 z"/>
<path transform="translate(0,0)" fill="rgb(112,148,140)" d="M 594.54 1412.84 C 597.221 1415.84 602.985 1422.68 605.911 1424.82 L 603.805 1426.26 C 600.767 1422.67 597.384 1419.08 594.199 1415.59 L 594.54 1412.84 z"/>
<path transform="translate(0,0)" fill="rgb(61,102,99)" d="M 1129.3 1305.91 C 1135.54 1314.67 1142.42 1323.21 1149.07 1331.68 C 1143.99 1331.83 1139.94 1331.55 1134.9 1331.24 C 1129.5 1331.17 1117.47 1331.74 1113.24 1329.98 C 1117.55 1321.21 1121.49 1315.66 1127.44 1308.03 L 1129.3 1305.91 z"/>
<path transform="translate(0,0)" fill="rgb(112,148,140)" d="M 1129.3 1305.91 C 1135.54 1314.67 1142.42 1323.21 1149.07 1331.68 C 1143.99 1331.83 1139.94 1331.55 1134.9 1331.24 L 1144.14 1330.93 L 1144.87 1329.9 C 1138.81 1322.74 1133.19 1315.43 1127.44 1308.03 L 1129.3 1305.91 z"/>
<path transform="translate(0,0)" fill="rgb(61,102,99)" d="M 594.199 1415.59 C 597.384 1419.08 600.767 1422.67 603.805 1426.26 L 590.225 1437.27 C 591.213 1430.42 592.902 1422.48 594.199 1415.59 z"/>
<path transform="translate(0,0)" fill="rgb(61,102,99)" d="M 287.265 914.582 C 281.353 901.279 280.162 884.802 278.539 870.305 C 270.425 797.844 270.939 716.403 307.08 650.985 C 333.937 602.371 386.115 598.998 435.739 611.724 C 436.352 612.158 436.965 612.593 437.578 613.027 C 447.748 655.283 466.865 695.468 493.038 730.156 C 495.906 733.958 500.3 739.868 503.686 743.333 C 498.223 752.437 493.889 759.726 489.452 769.497 L 488.454 771.983 C 556.936 810.246 617.846 852.444 660.533 920 C 680.103 950.969 683.325 959.09 686.217 994.13 C 684.798 994.519 679.342 995.905 678.642 997.025 C 648.04 1046.07 621.467 1098.37 591.052 1147.48 L 582.347 1143.83 C 554.436 1163.83 532.821 1185.96 509.055 1210.53 L 506.818 1213.02 C 492.688 1229.05 479.212 1245.64 466.425 1262.76 C 445.792 1292.37 430.116 1316.79 414.077 1349.35 C 382.407 1325.04 347.318 1314.69 317.078 1282.96 C 292.848 1257.54 274.878 1229.68 274.799 1193.33 L 274.714 1191.81 C 268.903 1156.96 297.835 1116.49 300.847 1081.03 C 305.779 1022.98 285.437 972.784 287.265 914.582 z"/>
<path transform="translate(0,0)" fill="rgb(122,155,146)" d="M 488.454 771.983 C 556.936 810.246 617.846 852.444 660.533 920 C 680.103 950.969 683.325 959.09 686.217 994.13 C 684.798 994.519 679.342 995.905 678.642 997.025 C 648.04 1046.07 621.467 1098.37 591.052 1147.48 L 582.347 1143.83 C 554.436 1163.83 532.821 1185.96 509.055 1210.53 L 506.818 1213.02 C 492.724 1207.42 466.308 1206.62 455.822 1202.19 L 456.22 1200.86 L 456.221 1199.69 C 446.752 1183.09 399.798 1063.09 403.832 1053.07 L 405.521 1056.48 C 406.501 1051.71 405.731 1039.99 405.933 1034.5 C 408.438 966.448 434.632 907.078 469.234 849.703 L 471.431 851.281 L 481.09 859.571 C 480.865 854.205 479.148 844.715 478.658 838.544 C 476.655 813.355 479.603 795.264 488.454 771.983 z"/>
<path transform="translate(0,0)" fill="rgb(61,102,99)" d="M 469.234 849.703 L 471.431 851.281 L 481.09 859.571 C 489.822 889.712 498.36 911.285 514.863 938.09 C 539.425 977.986 590.26 1022.6 561.801 1073.15 C 540.637 1108.76 495.108 1139.21 469.598 1174.2 C 468.137 1177.96 458.699 1197.55 456.221 1199.69 C 446.752 1183.09 399.798 1063.09 403.832 1053.07 L 405.521 1056.48 C 406.501 1051.71 405.731 1039.99 405.933 1034.5 C 408.438 966.448 434.632 907.078 469.234 849.703 z"/>
<path transform="translate(0,0)" fill="rgb(112,148,140)" d="M 469.234 849.703 L 471.431 851.281 C 437.541 904.173 412.611 965.357 408.755 1028.5 C 408.009 1040.72 407.717 1063.29 410.81 1075.2 C 421.796 1117.52 440.107 1158.21 456.914 1198.1 C 460.749 1188.38 463.402 1182.71 469.598 1174.2 C 468.137 1177.96 458.699 1197.55 456.221 1199.69 C 446.752 1183.09 399.798 1063.09 403.832 1053.07 L 405.521 1056.48 C 406.501 1051.71 405.731 1039.99 405.933 1034.5 C 408.438 966.448 434.632 907.078 469.234 849.703 z"/>
<path transform="translate(0,0)" fill="rgb(162,193,185)" d="M 456.22 1200.86 C 475.152 1203.14 490.433 1206.45 509.055 1210.53 L 506.818 1213.02 C 492.724 1207.42 466.308 1206.62 455.822 1202.19 L 456.22 1200.86 z"/>
<path transform="translate(0,0)" fill="rgb(249,239,230)" d="M 287.265 914.582 C 281.353 901.279 280.162 884.802 278.539 870.305 C 270.425 797.844 270.939 716.403 307.08 650.985 C 333.937 602.371 386.115 598.998 435.739 611.724 C 436.352 612.158 436.965 612.593 437.578 613.027 C 447.748 655.283 466.865 695.468 493.038 730.156 C 495.906 733.958 500.3 739.868 503.686 743.333 C 498.223 752.437 493.889 759.726 489.452 769.497 L 488.454 771.983 C 479.603 795.264 476.655 813.355 478.658 838.544 C 479.148 844.715 480.865 854.205 481.09 859.571 L 471.431 851.281 L 469.234 849.703 C 436.705 824.863 406.671 816.914 366.852 826.306 C 366.247 826.5 364.251 827.191 363.711 827.251 C 316.411 844.862 296.222 865.466 287.265 914.582 z"/>
<path transform="translate(0,0)" fill="rgb(61,102,99)" d="M 274.799 1193.33 C 345.023 1199.91 395.601 1207.45 458.165 1245.32 C 460.749 1251.09 463.323 1257.29 466.425 1262.76 C 445.792 1292.37 430.116 1316.79 414.077 1349.35 C 382.407 1325.04 347.318 1314.69 317.078 1282.96 C 292.848 1257.54 274.878 1229.68 274.799 1193.33 z"/>
<path transform="translate(0,0)" fill="rgb(112,148,140)" d="M 274.714 1191.81 C 279.421 1190.61 285.798 1191.44 290.748 1191.87 C 346.19 1196.74 402.162 1209.49 450.518 1238.02 C 452.748 1239.34 454.926 1240.75 457.048 1242.24 C 453.529 1228.57 452.252 1216.08 455.822 1202.19 C 466.308 1206.62 492.724 1207.42 506.818 1213.02 C 492.688 1229.05 479.212 1245.64 466.425 1262.76 C 463.323 1257.29 460.749 1251.09 458.165 1245.32 C 395.601 1207.45 345.023 1199.91 274.799 1193.33 L 274.714 1191.81 z"/>
<path transform="translate(0,0)" fill="rgb(112,148,140)" d="M 363.711 827.251 C 364.251 827.191 366.247 826.5 366.852 826.306 C 365.836 833.396 368.014 849.391 368.697 856.992 C 372.551 901.129 379.038 944.996 388.124 988.36 C 389.324 994.081 402.56 1046.77 401.342 1048.53 C 397.48 1039.92 392.598 1016.8 390.303 1006.9 C 381.305 968.544 374.451 929.72 369.774 890.605 C 367.48 871.017 366.352 845.424 363.711 827.251 z"/>
<path transform="translate(0,0)" fill="rgb(122,155,146)" d="M 1473.31 775.085 C 1480.59 773.094 1488.48 775.526 1496.32 770.557 C 1506.66 763.998 1514.45 754.752 1522.28 745.518 C 1556.18 705.784 1580.06 658.497 1591.91 607.626 C 1595.43 592.835 1596.1 566.283 1599.99 554.418 C 1616.76 572.05 1628.49 587.58 1642.87 607.089 C 1735.51 732.781 1777.02 885.105 1772.62 1040.32 C 1772.14 1057.31 1768.68 1130.12 1760.9 1141.56 C 1766.32 1161.61 1767.86 1169.78 1768.69 1190.98 L 1768.23 1193.02 C 1766.59 1238.46 1747.59 1256.6 1721.19 1288.04 C 1720.44 1316.84 1663.67 1412.85 1643.3 1439 C 1641.12 1434.8 1635.59 1417.13 1633.66 1411.61 C 1628.15 1395.4 1621.72 1379.51 1614.4 1364.04 C 1603.85 1336.16 1574.23 1289.94 1557.27 1265.61 L 1555.82 1263.41 L 1553.6 1261.74 C 1550.62 1253.59 1519.98 1219.06 1513.63 1211.82 C 1493.07 1188.09 1464.31 1162.51 1439.35 1143.58 L 1430.52 1147.59 C 1426.6 1141.13 1423.08 1134.74 1419.43 1128.13 C 1464.6 1054.72 1512.09 1017.69 1587.2 976.781 L 1586.87 974.628 C 1567.8 934.627 1554.78 929.13 1526.35 899.858 C 1496.74 865.287 1485.33 818.089 1473.31 775.085 z"/>
<path transform="translate(0,0)" fill="rgb(249,239,230)" d="M 1473.31 775.085 C 1480.59 773.094 1488.48 775.526 1496.32 770.557 C 1506.66 763.998 1514.45 754.752 1522.28 745.518 C 1556.18 705.784 1580.06 658.497 1591.91 607.626 C 1595.43 592.835 1596.1 566.283 1599.99 554.418 C 1616.76 572.05 1628.49 587.58 1642.87 607.089 C 1735.51 732.781 1777.02 885.105 1772.62 1040.32 C 1772.14 1057.31 1768.68 1130.12 1760.9 1141.56 C 1755.31 1128.13 1750.12 1116.29 1745.64 1101.58 C 1722.7 1026.17 1786.11 929.716 1734.86 862.897 C 1718.38 841.405 1680.52 824.511 1654.45 822.408 C 1625.45 820.068 1593.78 832.438 1571.92 851.376 C 1554.71 863.659 1538.97 883.046 1526.35 899.858 C 1496.74 865.287 1485.33 818.089 1473.31 775.085 z"/>
<path transform="translate(0,0)" fill="rgb(112,148,140)" d="M 1768.23 1193.02 C 1766.59 1238.46 1747.59 1256.6 1721.19 1288.04 C 1720.44 1316.84 1663.67 1412.85 1643.3 1439 C 1641.12 1434.8 1635.59 1417.13 1633.66 1411.61 C 1628.15 1395.4 1621.72 1379.51 1614.4 1364.04 C 1603.85 1336.16 1574.23 1289.94 1557.27 1265.61 C 1603.02 1226.85 1660.18 1207.14 1718.79 1198.32 C 1735.83 1195.75 1751.45 1195.04 1768.23 1193.02 z"/>
<path transform="translate(0,0)" fill="rgb(249,239,230)" d="M 1614.4 1364.04 C 1636.14 1338.27 1657.57 1332.09 1685.49 1314.58 C 1698.72 1306.28 1708.78 1296.92 1721.19 1288.04 C 1720.44 1316.84 1663.67 1412.85 1643.3 1439 C 1641.12 1434.8 1635.59 1417.13 1633.66 1411.61 C 1628.15 1395.4 1621.72 1379.51 1614.4 1364.04 z"/>
<path transform="translate(0,0)" fill="rgb(61,102,99)" d="M 1587.2 976.781 C 1601.15 1004.08 1598.86 1047.27 1589.23 1075.54 C 1581.27 1098.9 1569.92 1121.38 1555.65 1141.6 C 1538.71 1165.64 1522.61 1182.84 1513.63 1211.82 C 1493.07 1188.09 1464.31 1162.51 1439.35 1143.58 L 1430.52 1147.59 C 1426.6 1141.13 1423.08 1134.74 1419.43 1128.13 C 1464.6 1054.72 1512.09 1017.69 1587.2 976.781 z"/>
<path transform="translate(0,0)" fill="rgb(112,148,140)" d="M 1571.92 851.376 C 1579.34 873.526 1600.28 899.765 1609.86 927.023 C 1626.35 973.886 1638.98 1020.47 1632.13 1071.35 C 1625.09 1107.13 1599.98 1163.96 1585.7 1197.7 C 1576.47 1219.5 1563.17 1241.18 1553.6 1261.74 C 1550.62 1253.59 1519.98 1219.06 1513.63 1211.82 C 1522.61 1182.84 1538.71 1165.64 1555.65 1141.6 C 1569.92 1121.38 1581.27 1098.9 1589.23 1075.54 C 1598.86 1047.27 1601.15 1004.08 1587.2 976.781 L 1586.87 974.628 C 1567.8 934.627 1554.78 929.13 1526.35 899.858 C 1538.97 883.046 1554.71 863.659 1571.92 851.376 z"/>
<path transform="translate(0,0)" fill="rgb(162,193,185)" d="M 1768.69 1190.98 L 1768.23 1193.02 C 1751.45 1195.04 1735.83 1195.75 1718.79 1198.32 C 1660.18 1207.14 1603.02 1226.85 1557.27 1265.61 L 1555.82 1263.41 C 1559.26 1261.71 1565.82 1255.98 1569.35 1253.34 C 1627.62 1209.84 1698.03 1196.3 1768.69 1190.98 z"/>
<path transform="translate(0,0)" fill="rgb(241,234,228)" d="M 1472.07 307.207 C 1478.36 303.508 1486.83 300.914 1493.91 302.785 C 1514.86 308.322 1545.14 355.157 1555.59 373.027 C 1581.09 416.581 1596.02 465.509 1599.18 515.881 C 1600.02 528.867 1599.58 541.553 1599.99 554.418 C 1596.1 566.283 1595.43 592.835 1591.91 607.626 C 1580.06 658.497 1556.18 705.784 1522.28 745.518 C 1514.45 754.752 1506.66 763.998 1496.32 770.557 C 1488.48 775.526 1480.59 773.094 1473.31 775.085 C 1470.38 771.589 1456.84 766.986 1456.58 757.797 C 1456.36 750.398 1458.45 744.702 1461.87 738.589 C 1457.17 723.969 1450.33 710.922 1442.3 697.923 C 1443.5 694.459 1455.14 683.463 1458.52 678.903 C 1480.88 648.706 1496.91 616.922 1503.61 579.717 C 1507.59 558.467 1508.74 536.782 1507.02 515.23 C 1505.68 497.604 1500.29 481.177 1497.13 463.947 C 1497.45 463.088 1497.77 462.229 1498.09 461.371 C 1512.68 471.731 1527.53 483.68 1539.81 496.715 C 1540.75 488.587 1535.81 471.282 1533.42 463.234 C 1523.42 429.481 1506.73 397.676 1485 369.999 C 1479.95 363.557 1473.39 357.598 1468.05 351.338 C 1462.07 344.431 1456.26 337.192 1457.79 327.447 C 1459.29 317.923 1464.76 312.526 1472.07 307.207 z"/>
<path transform="translate(0,0)" fill="rgb(249,239,230)" d="M 1498.09 461.371 C 1512.68 471.731 1527.53 483.68 1539.81 496.715 C 1548.09 508.349 1543.28 572.974 1540.79 587.865 C 1534.25 627.441 1518.96 665.057 1496.02 697.967 C 1489.6 707.278 1481.89 716.149 1476.05 724.548 C 1471.65 728.082 1465.94 734.359 1461.87 738.589 C 1457.17 723.969 1450.33 710.922 1442.3 697.923 C 1443.5 694.459 1455.14 683.463 1458.52 678.903 C 1480.88 648.706 1496.91 616.922 1503.61 579.717 C 1507.59 558.467 1508.74 536.782 1507.02 515.23 C 1505.68 497.604 1500.29 481.177 1497.13 463.947 C 1497.45 463.088 1497.77 462.229 1498.09 461.371 z"/>
<path transform="translate(0,0)" fill="rgb(211,190,176)" d="M 1472.07 307.207 C 1468.93 315.125 1463.87 324.457 1467.83 332.674 C 1472.82 343.005 1484.5 353.847 1492.18 362.948 C 1497.88 369.585 1503.12 376.599 1507.88 383.944 C 1556.14 457.401 1566.77 549.373 1536.55 631.907 C 1525.43 661.675 1509.3 689.242 1488.89 713.599 C 1485.9 717.173 1480.6 723.521 1476.05 724.548 C 1481.89 716.149 1489.6 707.278 1496.02 697.967 C 1518.96 665.057 1534.25 627.441 1540.79 587.865 C 1543.28 572.974 1548.09 508.349 1539.81 496.715 C 1540.75 488.587 1535.81 471.282 1533.42 463.234 C 1523.42 429.481 1506.73 397.676 1485 369.999 C 1479.95 363.557 1473.39 357.598 1468.05 351.338 C 1462.07 344.431 1456.26 337.192 1457.79 327.447 C 1459.29 317.923 1464.76 312.526 1472.07 307.207 z"/>
<path transform="translate(0,0)" fill="rgb(241,234,228)" d="M 435.739 611.724 C 436.78 608.351 432.624 589.265 431.854 584.364 C 417.172 490.825 446.251 392.746 509.112 322.029 C 523.889 305.405 532.486 296.848 555.225 306.341 C 567.965 316.172 576.661 331.165 564.479 345.821 C 554.302 358.064 544.171 367.697 534.875 380.852 C 495.113 436.606 477.431 505.12 485.246 573.152 C 486.859 586.864 491.038 613.347 496.9 625.538 C 504.195 624.246 529.539 623.217 536.84 624.741 C 541.133 630.6 544.643 639.737 548.248 646.345 C 553.165 655.359 559.521 665.888 565.856 673.948 C 557.261 686.957 548.921 695.668 537.238 706.077 C 547.028 718.314 573.218 741.678 570.957 757.193 C 568.416 774.63 548.087 777.949 533.572 770.802 C 523.966 767.82 510.71 751.215 503.686 743.333 C 500.3 739.868 495.906 733.958 493.038 730.156 C 466.865 695.468 447.748 655.283 437.578 613.027 C 436.965 612.593 436.352 612.158 435.739 611.724 z"/>
<path transform="translate(0,0)" fill="rgb(211,190,176)" d="M 555.225 306.341 C 567.965 316.172 576.661 331.165 564.479 345.821 C 554.302 358.064 544.171 367.697 534.875 380.852 C 495.113 436.606 477.431 505.12 485.246 573.152 C 486.859 586.864 491.038 613.347 496.9 625.538 C 504.195 624.246 529.539 623.217 536.84 624.741 C 541.133 630.6 544.643 639.737 548.248 646.345 C 553.165 655.359 559.521 665.888 565.856 673.948 C 557.261 686.957 548.921 695.668 537.238 706.077 C 547.028 718.314 573.218 741.678 570.957 757.193 C 568.416 774.63 548.087 777.949 533.572 770.802 C 570.183 767.899 567.543 744.352 546.585 722.166 C 461.762 632.378 450.546 486.555 519.725 384.244 C 525.655 375.584 532.016 367.227 538.783 359.204 C 544.352 352.647 555.466 341.213 559.363 334.392 C 564.497 325.409 558.551 315.955 555.875 308.243 L 555.225 306.341 z"/>
<path transform="translate(0,0)" fill="rgb(249,239,230)" d="M 496.9 625.538 C 504.195 624.246 529.539 623.217 536.84 624.741 C 541.133 630.6 544.643 639.737 548.248 646.345 C 553.165 655.359 559.521 665.888 565.856 673.948 C 557.261 686.957 548.921 695.668 537.238 706.077 C 524.701 687.629 499.425 647.169 496.9 625.538 z"/>
<path transform="translate(0,0)" fill="rgb(241,234,228)" d="M 536.84 624.741 C 536.314 620.666 528.063 597.117 526.169 588.864 C 512.215 529.641 522.681 463.979 555.57 412.59 C 567.795 393.488 592.97 353.755 620.127 371.218 C 623.105 373.552 626.168 375.893 629.053 378.333 C 644.558 408.102 626.727 408.795 612.911 430.151 C 581.482 473.628 569.951 518.908 577.73 572.674 C 579.429 584.416 586.329 608.135 592.554 618.028 C 598.115 650.009 666.29 688.847 619.185 709.249 C 613.951 711.516 602.775 708.553 597.705 705.884 C 584.847 698.542 575.165 685.407 565.856 673.948 C 559.521 665.888 553.165 655.359 548.248 646.345 C 544.643 639.737 541.133 630.6 536.84 624.741 z"/>
<path transform="translate(0,0)" fill="rgb(211,190,176)" d="M 620.127 371.218 C 623.105 373.552 626.168 375.893 629.053 378.333 C 644.558 408.102 626.727 408.795 612.911 430.151 C 581.482 473.628 569.951 518.908 577.73 572.674 C 579.429 584.416 586.329 608.135 592.554 618.028 C 598.115 650.009 666.29 688.847 619.185 709.249 C 613.951 711.516 602.775 708.553 597.705 705.884 C 608.942 705.182 620.786 702.695 625.243 691.073 C 631.756 674.091 618.203 665.927 609.793 655.637 C 599.402 642.771 590.541 628.741 583.387 613.83 C 555.998 554.94 561.628 485.982 598.206 432.315 C 605.702 421.225 613.844 413.68 622.014 403.411 C 631.189 391.878 624.156 383.408 620.714 373.041 L 620.127 371.218 z"/>
</svg>