<svg version="1.1" xmlns="http://www.w3.org/2000/svg" style="display: block;" viewBox="0 0 2048 2048" width="2000" height="2000" preserveAspectRatio="none">
<defs>
	<linearGradient id="Gradient1" gradientUnits="userSpaceOnUse" x1="614.515" y1="1702.38" x2="493.497" y2="1705.71">
		<stop class="stop0" offset="0" stop-opacity="1" stop-color="rgb(21,17,70)"/>
		<stop class="stop1" offset="1" stop-opacity="1" stop-color="rgb(42,52,129)"/>
	</linearGradient>
	<linearGradient id="Gradient2" gradientUnits="userSpaceOnUse" x1="328.913" y1="1713.63" x2="259.109" y2="1713.4">
		<stop class="stop0" offset="0" stop-opacity="1" stop-color="rgb(19,16,69)"/>
		<stop class="stop1" offset="1" stop-opacity="1" stop-color="rgb(43,51,128)"/>
	</linearGradient>
	<linearGradient id="Gradient3" gradientUnits="userSpaceOnUse" x1="1707" y1="418.821" x2="1640.05" y2="487.148">
		<stop class="stop0" offset="0" stop-opacity="1" stop-color="rgb(248,217,71)"/>
		<stop class="stop1" offset="1" stop-opacity="1" stop-color="rgb(237,170,80)"/>
	</linearGradient>
	<linearGradient id="Gradient4" gradientUnits="userSpaceOnUse" x1="1722.44" y1="371.957" x2="1622.49" y2="521.665">
		<stop class="stop0" offset="0" stop-opacity="1" stop-color="rgb(251,236,70)"/>
		<stop class="stop1" offset="1" stop-opacity="1" stop-color="rgb(242,187,78)"/>
	</linearGradient>
	<linearGradient id="Gradient5" gradientUnits="userSpaceOnUse" x1="1299.24" y1="702.096" x2="1211.93" y2="836.41">
		<stop class="stop0" offset="0" stop-opacity="1" stop-color="rgb(71,146,252)"/>
		<stop class="stop1" offset="1" stop-opacity="1" stop-color="rgb(77,184,250)"/>
	</linearGradient>
	<linearGradient id="Gradient6" gradientUnits="userSpaceOnUse" x1="1575.62" y1="614.257" x2="1491.49" y2="701.702">
		<stop class="stop0" offset="0" stop-opacity="1" stop-color="rgb(248,218,71)"/>
		<stop class="stop1" offset="1" stop-opacity="1" stop-color="rgb(238,170,80)"/>
	</linearGradient>
	<linearGradient id="Gradient7" gradientUnits="userSpaceOnUse" x1="1597.46" y1="558.187" x2="1465.65" y2="742.463">
		<stop class="stop0" offset="0" stop-opacity="1" stop-color="rgb(252,236,70)"/>
		<stop class="stop1" offset="1" stop-opacity="1" stop-color="rgb(243,187,77)"/>
	</linearGradient>
	<linearGradient id="Gradient8" gradientUnits="userSpaceOnUse" x1="1286.79" y1="539.509" x2="1238.29" y2="590.465">
		<stop class="stop0" offset="0" stop-opacity="1" stop-color="rgb(249,216,72)"/>
		<stop class="stop1" offset="1" stop-opacity="1" stop-color="rgb(237,170,79)"/>
	</linearGradient>
	<linearGradient id="Gradient9" gradientUnits="userSpaceOnUse" x1="1484.06" y1="360.681" x2="1402.54" y2="445.774">
		<stop class="stop0" offset="0" stop-opacity="1" stop-color="rgb(248,218,70)"/>
		<stop class="stop1" offset="1" stop-opacity="1" stop-color="rgb(238,169,80)"/>
	</linearGradient>
	<linearGradient id="Gradient10" gradientUnits="userSpaceOnUse" x1="1471.78" y1="446.188" x2="1300.14" y2="709.197">
		<stop class="stop0" offset="0" stop-opacity="1" stop-color="rgb(57,72,249)"/>
		<stop class="stop1" offset="1" stop-opacity="1" stop-color="rgb(71,147,252)"/>
	</linearGradient>
	<linearGradient id="Gradient11" gradientUnits="userSpaceOnUse" x1="511.991" y1="728.042" x2="583.176" y2="671.702">
		<stop class="stop0" offset="0" stop-opacity="1" stop-color="rgb(248,151,107)"/>
		<stop class="stop1" offset="1" stop-opacity="1" stop-color="rgb(250,189,122)"/>
	</linearGradient>
	<linearGradient id="Gradient12" gradientUnits="userSpaceOnUse" x1="1915.43" y1="836.652" x2="1247.47" y2="1547.65">
		<stop class="stop0" offset="0" stop-opacity="1" stop-color="rgb(251,232,67)"/>
		<stop class="stop1" offset="1" stop-opacity="1" stop-color="rgb(229,119,90)"/>
	</linearGradient>
	<linearGradient id="Gradient13" gradientUnits="userSpaceOnUse" x1="540.131" y1="733.983" x2="520.992" y2="813.408">
		<stop class="stop0" offset="0" stop-opacity="1" stop-color="rgb(245,110,97)"/>
		<stop class="stop1" offset="1" stop-opacity="1" stop-color="rgb(247,153,107)"/>
	</linearGradient>
	<linearGradient id="Gradient14" gradientUnits="userSpaceOnUse" x1="632.509" y1="1136.81" x2="518.258" y2="1097.71">
		<stop class="stop0" offset="0" stop-opacity="1" stop-color="rgb(22,20,73)"/>
		<stop class="stop1" offset="1" stop-opacity="1" stop-color="rgb(39,44,114)"/>
	</linearGradient>
	<linearGradient id="Gradient15" gradientUnits="userSpaceOnUse" x1="762.739" y1="1101.89" x2="846.681" y2="745.266">
		<stop class="stop0" offset="0" stop-opacity="1" stop-color="rgb(219,69,147)"/>
		<stop class="stop1" offset="1" stop-opacity="1" stop-color="rgb(187,60,188)"/>
	</linearGradient>
	<linearGradient id="Gradient16" gradientUnits="userSpaceOnUse" x1="871.492" y1="1120.61" x2="715" y2="957.336">
		<stop class="stop0" offset="0" stop-opacity="1" stop-color="rgb(16,8,55)"/>
		<stop class="stop1" offset="1" stop-opacity="1" stop-color="rgb(44,53,131)"/>
	</linearGradient>
	<linearGradient id="Gradient17" gradientUnits="userSpaceOnUse" x1="484.409" y1="642.085" x2="327.511" y2="637.886">
		<stop class="stop0" offset="0" stop-opacity="1" stop-color="rgb(244,148,232)"/>
		<stop class="stop1" offset="1" stop-opacity="1" stop-color="rgb(211,136,242)"/>
	</linearGradient>
	<linearGradient id="Gradient18" gradientUnits="userSpaceOnUse" x1="717.347" y1="726.056" x2="415.236" y2="1084.68">
		<stop class="stop0" offset="0" stop-opacity="1" stop-color="rgb(255,255,63)"/>
		<stop class="stop1" offset="1" stop-opacity="1" stop-color="rgb(236,159,82)"/>
	</linearGradient>
	<linearGradient id="Gradient19" gradientUnits="userSpaceOnUse" x1="689.507" y1="1727.75" x2="605.5" y2="1481.57">
		<stop class="stop0" offset="0" stop-opacity="1" stop-color="rgb(255,254,63)"/>
		<stop class="stop1" offset="1" stop-opacity="1" stop-color="rgb(246,206,74)"/>
	</linearGradient>
	<linearGradient id="Gradient20" gradientUnits="userSpaceOnUse" x1="408.873" y1="1389.53" x2="332.895" y2="1304.62">
		<stop class="stop0" offset="0" stop-opacity="1" stop-color="rgb(237,155,82)"/>
		<stop class="stop1" offset="1" stop-opacity="1" stop-color="rgb(230,127,89)"/>
	</linearGradient>
	<linearGradient id="Gradient21" gradientUnits="userSpaceOnUse" x1="550.711" y1="1519.76" x2="434.785" y2="1402.75">
		<stop class="stop0" offset="0" stop-opacity="1" stop-color="rgb(247,202,73)"/>
		<stop class="stop1" offset="1" stop-opacity="1" stop-color="rgb(237,162,82)"/>
	</linearGradient>
	<linearGradient id="Gradient22" gradientUnits="userSpaceOnUse" x1="691.013" y1="1232.9" x2="287.196" y2="1615.48">
		<stop class="stop0" offset="0" stop-opacity="1" stop-color="rgb(63,102,250)"/>
		<stop class="stop1" offset="1" stop-opacity="1" stop-color="rgb(70,141,252)"/>
	</linearGradient>
	<linearGradient id="Gradient23" gradientUnits="userSpaceOnUse" x1="1351.54" y1="1748.25" x2="1282.3" y2="1649.43">
		<stop class="stop0" offset="0" stop-opacity="1" stop-color="rgb(255,248,65)"/>
		<stop class="stop1" offset="1" stop-opacity="1" stop-color="rgb(248,216,70)"/>
	</linearGradient>
	<linearGradient id="Gradient24" gradientUnits="userSpaceOnUse" x1="1313.13" y1="1632.45" x2="1032.71" y2="1248.27">
		<stop class="stop0" offset="0" stop-opacity="1" stop-color="rgb(248,217,70)"/>
		<stop class="stop1" offset="1" stop-opacity="1" stop-color="rgb(224,91,96)"/>
	</linearGradient>
	<linearGradient id="Gradient25" gradientUnits="userSpaceOnUse" x1="1052.3" y1="1096.92" x2="722.808" y2="1669.94">
		<stop class="stop0" offset="0" stop-opacity="1" stop-color="rgb(254,246,65)"/>
		<stop class="stop1" offset="1" stop-opacity="1" stop-color="rgb(229,120,90)"/>
	</linearGradient>
</defs>
<path transform="translate(0,0)" fill="rgb(246,220,250)" d="M 615.204 336.766 C 623.108 331.518 629.349 325.848 638.392 320.211 C 706.76 278.008 782.168 248.46 861.007 232.981 C 1005.77 206.927 1154.9 220.838 1292.35 273.219 C 1312.12 280.805 1350.36 296.076 1367.22 307.604 C 1384.74 293.401 1398.92 287.477 1420.57 282.238 C 1440.26 279.018 1460.43 280.414 1479.49 286.316 C 1543.75 312.3 1574.12 375.059 1548.96 440.699 C 1564.26 452.274 1568.01 460.47 1580.36 472.886 C 1587.98 490.386 1592.51 502.893 1607.49 516.541 C 1610.56 519.336 1621.6 526.957 1623.43 529.118 C 1655.21 574.949 1685.72 635.65 1706.38 687.472 C 1710.74 698.411 1716.95 713.66 1720.15 724.885 L 1720.57 724.203 C 1726.64 714.019 1744.75 692.741 1753.18 682.645 C 1765.18 667.272 1768.17 660.609 1789.56 662.105 C 1804.65 670.714 1804.95 679.057 1804.3 695.826 C 1803.81 708.509 1802.14 721.269 1801.69 733.936 L 1788.21 957.467 L 1784.4 1020.94 C 1782.93 1045.06 1786.05 1066.17 1763.17 1080.81 C 1764.25 1100.95 1758.42 1142.18 1755.15 1163.03 C 1735.25 1289.92 1686.64 1425.86 1599.82 1522.65 C 1586.53 1537.47 1572.34 1551.45 1557.34 1564.52 C 1537.6 1581.74 1463.6 1637.88 1440.02 1644.56 C 1431.73 1662.12 1423.58 1679.74 1415.56 1697.43 C 1410.72 1707.65 1404.63 1716.68 1393.55 1720.88 C 1377.17 1727.1 1271.36 1724.63 1251.14 1721.17 C 1213.12 1732.32 1175.89 1738.28 1136.73 1742.68 C 1004.86 1756.88 871.49 1745.51 743.93 1709.19 C 714.169 1723.15 698.24 1727.16 664.695 1726.02 C 647.593 1725.44 637.862 1726.45 620.833 1721.19 C 616.957 1718.99 605.282 1709.7 601.795 1706.67 C 582.88 1685.68 562.937 1662.31 548.584 1637.83 C 547.789 1647.68 549.615 1655.91 539.453 1659.42 C 524.168 1661.86 520.302 1661.91 504.856 1660.28 C 503.091 1659.73 501.695 1659.1 499.972 1658.4 C 497.553 1654.11 500.549 1605.85 500.887 1597.42 C 477.654 1587.5 417.942 1529.9 401.921 1509.31 C 397.215 1519.09 337.197 1647.49 339.438 1645.85 L 336.161 1646.17 C 329.364 1642.85 312.961 1638.37 302.106 1633.46 C 300.854 1632.67 300.038 1632.22 299.306 1630.87 C 297.355 1627.28 354.75 1468.49 360.127 1453.46 C 349.436 1443.75 327.77 1407.12 323.348 1393.15 C 320.277 1384.11 283.576 1361.63 274.495 1357.28 C 281.442 1348.48 287.336 1343.36 296.201 1336.48 C 289.499 1322.89 285.144 1308.88 280.338 1294.51 C 258.488 1229.21 246.641 1155.54 244.283 1086.32 C 240.435 973.366 261.744 853.48 300.464 747.47 C 303.168 740.068 314.171 709.871 317.444 706.301 C 314.081 700.401 312.266 698.633 312.222 692.069 L 313.633 691.285 C 316.731 692.796 317.594 694.801 319.505 697.705 C 323.4 688.311 325.36 685.094 331.553 677.377 C 329.55 672.949 326.174 661.835 324.48 656.765 C 328.739 653.058 333.169 649.907 337.706 646.557 C 337.565 638.385 337.75 632.195 339.317 624.189 L 327.894 612.326 C 330.518 606.308 334.143 599.52 337.143 593.575 C 342.596 594.506 347.94 595.153 353.42 595.848 C 359.372 589.758 363.207 585.935 370.509 581.559 L 370.537 564.452 C 381.478 561.374 387.643 554.827 395.633 564.573 C 397.314 567.011 398.564 568.959 400.495 571.225 C 408.974 571.331 414.308 571.592 422.761 572.874 L 434.494 561.296 L 453.348 570.794 L 450.729 587.114 C 457.017 593.035 460.738 596.749 465.659 603.996 L 482.023 604.166 C 483.32 607.966 486.639 618.567 488.106 621.716 C 512.514 607.305 534.669 611.122 554.363 597.487 C 556.216 596.299 558.723 593.432 560.371 591.734 L 562.65 590.966 C 565.64 587.896 580.152 557.273 583.729 550.392 C 586.202 546.088 591.436 535.355 595.199 533.497 C 598.576 530.546 613.836 505.833 618.198 499.936 C 629.884 484.322 642.38 469.331 655.633 455.022 C 654.237 453.602 651.609 451.466 651.635 449.661 C 651.824 436.872 653.542 427.541 653.065 414.536 L 674.182 398.582 L 663.782 367.014 L 637.642 366.842 C 631.347 357.928 617.376 343.624 614.455 338.92 L 615.204 336.766 z M 378.172 609.078 C 387.506 600.462 391.27 602.129 397.845 596.153 L 397.778 594.703 C 390.136 591.681 374.89 601.355 371.3 608.24 L 378.172 609.078 z"/>
<path transform="translate(0,0)" fill="url(#Gradient25)" d="M 949.093 1131.28 C 1004.37 1090.1 1069.61 1082.14 1116.17 1143 C 1129.1 1159.91 1136.99 1183.91 1145.03 1203.88 C 1146.02 1205.8 1147.3 1208.52 1148.41 1210.28 L 1151.89 1216.97 C 1152.99 1219.17 1157.01 1227.67 1158.06 1229.27 L 1249.88 1409.29 C 1265.62 1440.11 1281.89 1473.47 1298.26 1503.76 C 1314.99 1538.04 1333.27 1572.82 1350.66 1606.85 C 1359 1623.07 1367.26 1639.33 1375.43 1655.63 C 1382.11 1668.86 1390.54 1690.58 1405.45 1695.5 C 1408.72 1696.57 1412.12 1697.22 1415.56 1697.43 C 1410.72 1707.65 1404.63 1716.68 1393.55 1720.88 C 1377.17 1727.1 1271.36 1724.63 1251.14 1721.17 C 1213.12 1732.32 1175.89 1738.28 1136.73 1742.68 C 1004.86 1756.88 871.49 1745.51 743.93 1709.19 C 714.169 1723.15 698.24 1727.16 664.695 1726.02 C 647.593 1725.44 637.862 1726.45 620.833 1721.19 C 616.957 1718.99 605.282 1709.7 601.795 1706.67 C 582.88 1685.68 562.937 1662.31 548.584 1637.83 C 547.789 1647.68 549.615 1655.91 539.453 1659.42 C 524.168 1661.86 520.302 1661.91 504.856 1660.28 C 503.091 1659.73 501.695 1659.1 499.972 1658.4 C 497.553 1654.11 500.549 1605.85 500.887 1597.42 C 477.654 1587.5 417.942 1529.9 401.921 1509.31 C 397.215 1519.09 337.197 1647.49 339.438 1645.85 L 336.161 1646.17 C 329.364 1642.85 312.961 1638.37 302.106 1633.46 C 300.854 1632.67 300.038 1632.22 299.306 1630.87 C 297.355 1627.28 354.75 1468.49 360.127 1453.46 C 349.436 1443.75 327.77 1407.12 323.348 1393.15 C 320.277 1384.11 283.576 1361.63 274.495 1357.28 C 281.442 1348.48 287.336 1343.36 296.201 1336.48 C 332.566 1308.13 375.894 1288.6 422.307 1285.56 C 439.57 1238.82 458.781 1192.83 479.89 1147.7 C 524.09 1159.3 579.231 1160.11 624.514 1156.93 C 631.507 1151.51 632.562 1138.35 634.718 1128.93 L 679.47 1128.83 L 684.616 1133.57 C 686.77 1132.91 685.813 1133.3 687.517 1132.46 L 688.416 1133.45 C 697.281 1143.1 709.827 1152.73 720.493 1160.6 C 764.369 1192.92 813.451 1217.49 865.615 1233.25 C 888.566 1200.48 921.284 1159.14 949.093 1131.28 z"/>
<path transform="translate(0,0)" fill="rgb(246,220,250)" d="M 1030.5 1290.78 C 1038.4 1277.5 1048.46 1263.83 1057.08 1250.83 C 1079.34 1217.24 1097.41 1176.43 1145.03 1203.88 C 1146.02 1205.8 1147.3 1208.52 1148.41 1210.28 L 1151.89 1216.97 C 1152.99 1219.17 1157.01 1227.67 1158.06 1229.27 L 1249.88 1409.29 C 1265.62 1440.11 1281.89 1473.47 1298.26 1503.76 C 1314.99 1538.04 1333.27 1572.82 1350.66 1606.85 C 1359 1623.07 1367.26 1639.33 1375.43 1655.63 C 1382.11 1668.86 1390.54 1690.58 1405.45 1695.5 C 1408.72 1696.57 1412.12 1697.22 1415.56 1697.43 C 1410.72 1707.65 1404.63 1716.68 1393.55 1720.88 C 1377.17 1727.1 1271.36 1724.63 1251.14 1721.17 C 1213.12 1732.32 1175.89 1738.28 1136.73 1742.68 C 1004.86 1756.88 871.49 1745.51 743.93 1709.19 L 743.438 1708.12 C 761.684 1694.67 771.208 1683.6 781.797 1664.04 C 789.85 1653.64 802.218 1633.74 809.885 1622.23 L 864.168 1540.67 L 1030.5 1290.78 z"/>
<path transform="translate(0,0)" fill="url(#Gradient24)" d="M 1030.5 1290.78 C 1038.4 1277.5 1048.46 1263.83 1057.08 1250.83 C 1079.34 1217.24 1097.41 1176.43 1145.03 1203.88 C 1146.02 1205.8 1147.3 1208.52 1148.41 1210.28 L 1151.89 1216.97 C 1152.99 1219.17 1157.01 1227.67 1158.06 1229.27 L 1249.88 1409.29 C 1265.62 1440.11 1281.89 1473.47 1298.26 1503.76 C 1314.99 1538.04 1333.27 1572.82 1350.66 1606.85 C 1359 1623.07 1367.26 1639.33 1375.43 1655.63 C 1382.11 1668.86 1390.54 1690.58 1405.45 1695.5 C 1408.72 1696.57 1412.12 1697.22 1415.56 1697.43 C 1410.72 1707.65 1404.63 1716.68 1393.55 1720.88 C 1377.17 1727.1 1271.36 1724.63 1251.14 1721.17 C 1239.38 1715.69 1231.88 1712.19 1222.55 1703.32 C 1205.79 1687.27 1196.8 1660.4 1187.2 1639.12 L 1145.13 1545.75 C 1107.24 1461.58 1067.01 1375.28 1030.5 1290.78 z"/>
<path transform="translate(0,0)" fill="url(#Gradient23)" d="M 1350.66 1606.85 C 1359 1623.07 1367.26 1639.33 1375.43 1655.63 C 1382.11 1668.86 1390.54 1690.58 1405.45 1695.5 C 1408.72 1696.57 1412.12 1697.22 1415.56 1697.43 C 1410.72 1707.65 1404.63 1716.68 1393.55 1720.88 C 1377.17 1727.1 1271.36 1724.63 1251.14 1721.17 C 1239.38 1715.69 1231.88 1712.19 1222.55 1703.32 C 1222.02 1700.23 1221.43 1699.45 1222.34 1696.74 C 1245.5 1677.85 1271.3 1661.11 1295.77 1643.9 C 1313.93 1631.13 1328.65 1612.84 1350.66 1606.85 z"/>
<path transform="translate(0,0)" fill="url(#Gradient22)" d="M 422.307 1285.56 C 439.57 1238.82 458.781 1192.83 479.89 1147.7 C 524.09 1159.3 579.231 1160.11 624.514 1156.93 C 620.425 1176.41 617.364 1199.58 614.192 1219.57 L 596.642 1330.07 L 580.008 1434.99 C 577.47 1451.08 573.267 1473.36 571.667 1488.9 C 563.692 1538.5 555.998 1588.14 548.584 1637.83 C 547.789 1647.68 549.615 1655.91 539.453 1659.42 C 524.168 1661.86 520.302 1661.91 504.856 1660.28 C 503.091 1659.73 501.695 1659.1 499.972 1658.4 C 497.553 1654.11 500.549 1605.85 500.887 1597.42 C 477.654 1587.5 417.942 1529.9 401.921 1509.31 C 397.215 1519.09 337.197 1647.49 339.438 1645.85 L 336.161 1646.17 C 329.364 1642.85 312.961 1638.37 302.106 1633.46 C 300.854 1632.67 300.038 1632.22 299.306 1630.87 C 297.355 1627.28 354.75 1468.49 360.127 1453.46 C 349.436 1443.75 327.77 1407.12 323.348 1393.15 C 320.277 1384.11 283.576 1361.63 274.495 1357.28 C 281.442 1348.48 287.336 1343.36 296.201 1336.48 C 332.566 1308.13 375.894 1288.6 422.307 1285.56 z"/>
<path transform="translate(0,0)" fill="url(#Gradient21)" d="M 485.54 1349.6 C 494.845 1361.84 503.696 1374.42 512.075 1387.31 C 507.707 1449.78 504.337 1512.32 501.966 1574.9 L 500.887 1597.42 C 477.654 1587.5 417.942 1529.9 401.921 1509.31 C 405.739 1500.14 412.033 1488.65 416.722 1479.71 C 435.693 1439.11 463.738 1389.72 485.54 1349.6 z"/>
<path transform="translate(0,0)" fill="rgb(246,220,250)" d="M 401.921 1509.31 C 405.739 1500.14 412.033 1488.65 416.722 1479.71 C 433.485 1497.32 449.944 1515.23 466.091 1533.41 C 477.337 1546.24 490.56 1562.91 501.966 1574.9 L 500.887 1597.42 C 477.654 1587.5 417.942 1529.9 401.921 1509.31 z"/>
<path transform="translate(0,0)" fill="url(#Gradient20)" d="M 296.201 1336.48 C 332.566 1308.13 375.894 1288.6 422.307 1285.56 C 403.978 1333.63 386.832 1383.73 368.438 1431.11 C 366.221 1437.24 362.744 1447.85 360.127 1453.46 C 349.436 1443.75 327.77 1407.12 323.348 1393.15 C 320.277 1384.11 283.576 1361.63 274.495 1357.28 C 281.442 1348.48 287.336 1343.36 296.201 1336.48 z"/>
<path transform="translate(0,0)" fill="rgb(246,220,250)" d="M 323.348 1393.15 C 328.519 1392.19 361.623 1425.47 368.438 1431.11 C 366.221 1437.24 362.744 1447.85 360.127 1453.46 C 349.436 1443.75 327.77 1407.12 323.348 1393.15 z"/>
<path transform="translate(0,0)" fill="rgb(246,220,250)" d="M 523.674 1281.07 C 520.134 1303.92 517.389 1326.88 515.444 1349.92 C 514.394 1361.22 513.613 1376.41 512.075 1387.31 C 503.696 1374.42 494.845 1361.84 485.54 1349.6 L 523.674 1281.07 z"/>
<path transform="translate(0,0)" fill="rgb(74,147,249)" d="M 550.774 1237.01 L 551.37 1238.07 C 545.696 1247.99 535.045 1272.62 526.214 1280.17 L 524.672 1277.18 C 525.162 1269.78 545.679 1243.41 550.774 1237.01 z"/>
<path transform="translate(0,0)" fill="rgb(246,220,250)" d="M 634.718 1128.93 L 679.47 1128.83 L 684.616 1133.57 C 686.77 1132.91 685.813 1133.3 687.517 1132.46 L 688.416 1133.45 C 697.281 1143.1 709.827 1152.73 720.493 1160.6 C 764.369 1192.92 813.451 1217.49 865.615 1233.25 C 805.35 1313.37 748.8 1399.18 692.144 1482.03 C 670.781 1513.26 649.234 1548.22 627.583 1578.61 C 614.09 1560.17 601.148 1537 589.131 1517.46 C 583.563 1508.4 577.82 1497.36 571.667 1488.9 C 573.267 1473.36 577.47 1451.08 580.008 1434.99 L 596.642 1330.07 L 614.192 1219.57 C 617.364 1199.58 620.425 1176.41 624.514 1156.93 C 631.507 1151.51 632.562 1138.35 634.718 1128.93 z"/>
<path transform="translate(0,0)" fill="url(#Gradient19)" d="M 571.667 1488.9 C 577.82 1497.36 583.563 1508.4 589.131 1517.46 C 601.148 1537 614.09 1560.17 627.583 1578.61 C 652.179 1613.59 689.235 1665.04 733.756 1673.11 C 751.241 1676.28 766.212 1671.41 781.797 1664.04 C 771.208 1683.6 761.684 1694.67 743.438 1708.12 L 743.93 1709.19 C 714.169 1723.15 698.24 1727.16 664.695 1726.02 C 647.593 1725.44 637.862 1726.45 620.833 1721.19 C 616.957 1718.99 605.282 1709.7 601.795 1706.67 C 582.88 1685.68 562.937 1662.31 548.584 1637.83 C 555.998 1588.14 563.692 1538.5 571.667 1488.9 z"/>
<path transform="translate(0,0)" fill="rgb(253,254,249)" d="M 1081.17 1162.11 C 1089.03 1161.27 1092.95 1162.19 1100.08 1165.87 C 1104.45 1168.13 1110.86 1173.86 1106.16 1178.77 C 1101.1 1177.11 1099.03 1171.89 1094.99 1169.44 C 1088.32 1165.82 1078.81 1167.41 1074.13 1173.65 C 1060.15 1192.31 1047.32 1212.4 1034.27 1231.76 L 954.5 1349.97 L 948.838 1358.44 C 946.475 1362.02 942.477 1367.83 938.084 1368.47 C 937.482 1362.13 957.145 1335.38 961.768 1328.55 L 1007.96 1260.34 L 1048.84 1199.5 C 1055.7 1189.32 1062.76 1178.33 1070.32 1168.71 C 1072.69 1165.68 1077.58 1163.72 1081.17 1162.11 z"/>
<path transform="translate(0,0)" fill="rgb(253,254,249)" d="M 912.812 1401.66 C 914.828 1402.7 914.671 1402.65 915.897 1404.58 C 915.657 1410.25 909.551 1416.63 905.897 1421.12 L 903.248 1419.31 L 902.898 1417.07 C 904.984 1411.38 909.133 1406.59 912.812 1401.66 z"/>
<path transform="translate(0,0)" fill="url(#Gradient18)" d="M 370.537 564.452 C 381.478 561.374 387.643 554.827 395.633 564.573 C 397.314 567.011 398.564 568.959 400.495 571.225 C 408.974 571.331 414.308 571.592 422.761 572.874 L 434.494 561.296 L 453.348 570.794 L 450.729 587.114 C 457.017 593.035 460.738 596.749 465.659 603.996 L 482.023 604.166 C 483.32 607.966 486.639 618.567 488.106 621.716 C 482.396 626.125 479.921 627.941 475.639 633.802 C 473.14 637.224 470.592 650.712 468.443 651.115 C 461.906 652.343 459.92 650.634 453.654 656.39 L 450.832 663.495 C 452.114 674.064 453.096 676.697 458.64 685.795 C 463.607 691.975 465.775 694.101 471.694 699.436 C 468.145 703.454 467.968 702.485 466.921 707.053 C 469.867 720.194 493.325 723.298 504.523 723.354 L 504.348 724.483 C 512.247 725.528 521.031 751.401 561.972 746.967 L 564 788.047 C 589.459 787.336 617.935 786.706 643.422 789.171 C 653.495 790.146 669.309 796.52 679.957 799.134 C 719.044 808.726 761.525 808.279 798.563 791.301 C 813.3 810.961 823.665 839.899 826.422 864.262 C 862.896 836.758 883.03 801.168 897.049 758.446 C 900.77 747.103 903.31 735.972 906.115 724.386 L 912.915 726.371 C 937.864 742.779 973.391 761.462 996.07 777.601 L 1000.26 779.184 L 1003.12 779.346 L 1002.44 781.232 L 949.093 1131.28 C 921.284 1159.14 888.566 1200.48 865.615 1233.25 C 813.451 1217.49 764.369 1192.92 720.493 1160.6 C 709.827 1152.73 697.281 1143.1 688.416 1133.45 L 687.517 1132.46 C 685.813 1133.3 686.77 1132.91 684.616 1133.57 L 679.47 1128.83 L 634.718 1128.93 C 632.562 1138.35 631.507 1151.51 624.514 1156.93 C 579.231 1160.11 524.09 1159.3 479.89 1147.7 C 458.781 1192.83 439.57 1238.82 422.307 1285.56 C 375.894 1288.6 332.566 1308.13 296.201 1336.48 C 289.499 1322.89 285.144 1308.88 280.338 1294.51 C 258.488 1229.21 246.641 1155.54 244.283 1086.32 C 240.435 973.366 261.744 853.48 300.464 747.47 C 303.168 740.068 314.171 709.871 317.444 706.301 C 314.081 700.401 312.266 698.633 312.222 692.069 L 313.633 691.285 C 316.731 692.796 317.594 694.801 319.505 697.705 C 323.4 688.311 325.36 685.094 331.553 677.377 C 329.55 672.949 326.174 661.835 324.48 656.765 C 328.739 653.058 333.169 649.907 337.706 646.557 C 337.565 638.385 337.75 632.195 339.317 624.189 L 327.894 612.326 C 330.518 606.308 334.143 599.52 337.143 593.575 C 342.596 594.506 347.94 595.153 353.42 595.848 C 359.372 589.758 363.207 585.935 370.509 581.559 L 370.537 564.452 z M 378.172 609.078 C 387.506 600.462 391.27 602.129 397.845 596.153 L 397.778 594.703 C 390.136 591.681 374.89 601.355 371.3 608.24 L 378.172 609.078 z"/>
<path transform="translate(0,0)" fill="rgb(246,220,250)" d="M 370.537 564.452 C 381.478 561.374 387.643 554.827 395.633 564.573 C 397.314 567.011 398.564 568.959 400.495 571.225 C 408.974 571.331 414.308 571.592 422.761 572.874 L 434.494 561.296 L 453.348 570.794 L 450.729 587.114 C 457.017 593.035 460.738 596.749 465.659 603.996 L 482.023 604.166 C 483.32 607.966 486.639 618.567 488.106 621.716 C 482.396 626.125 479.921 627.941 475.639 633.802 C 473.14 637.224 470.592 650.712 468.443 651.115 C 461.906 652.343 459.92 650.634 453.654 656.39 L 450.832 663.495 C 452.114 674.064 453.096 676.697 458.64 685.795 C 463.607 691.975 465.775 694.101 471.694 699.436 C 468.145 703.454 467.968 702.485 466.921 707.053 C 469.867 720.194 493.325 723.298 504.523 723.354 L 504.348 724.483 C 502.608 740.825 499.045 779.652 495.014 794.127 C 465.719 798.534 398.88 808.212 383.288 835.35 C 338.568 913.183 325.789 1037.8 418.943 1087.13 C 442.869 1100.97 460.76 1106.51 487.118 1113.39 C 486.112 1126.25 479.956 1142.23 479.89 1147.7 C 458.781 1192.83 439.57 1238.82 422.307 1285.56 C 375.894 1288.6 332.566 1308.13 296.201 1336.48 C 289.499 1322.89 285.144 1308.88 280.338 1294.51 C 258.488 1229.21 246.641 1155.54 244.283 1086.32 C 240.435 973.366 261.744 853.48 300.464 747.47 C 303.168 740.068 314.171 709.871 317.444 706.301 C 314.081 700.401 312.266 698.633 312.222 692.069 L 313.633 691.285 C 316.731 692.796 317.594 694.801 319.505 697.705 C 323.4 688.311 325.36 685.094 331.553 677.377 C 329.55 672.949 326.174 661.835 324.48 656.765 C 328.739 653.058 333.169 649.907 337.706 646.557 C 337.565 638.385 337.75 632.195 339.317 624.189 L 327.894 612.326 C 330.518 606.308 334.143 599.52 337.143 593.575 C 342.596 594.506 347.94 595.153 353.42 595.848 C 359.372 589.758 363.207 585.935 370.509 581.559 L 370.537 564.452 z M 378.172 609.078 C 387.506 600.462 391.27 602.129 397.845 596.153 L 397.778 594.703 C 390.136 591.681 374.89 601.355 371.3 608.24 L 378.172 609.078 z"/>
<path transform="translate(0,0)" fill="url(#Gradient17)" d="M 370.537 564.452 C 381.478 561.374 387.643 554.827 395.633 564.573 C 397.314 567.011 398.564 568.959 400.495 571.225 C 408.974 571.331 414.308 571.592 422.761 572.874 L 434.494 561.296 L 453.348 570.794 L 450.729 587.114 C 457.017 593.035 460.738 596.749 465.659 603.996 L 482.023 604.166 C 483.32 607.966 486.639 618.567 488.106 621.716 C 482.396 626.125 479.921 627.941 475.639 633.802 C 473.14 637.224 470.592 650.712 468.443 651.115 C 461.906 652.343 459.92 650.634 453.654 656.39 L 450.832 663.495 C 452.114 674.064 453.096 676.697 458.64 685.795 C 452.838 691.919 449.703 694.345 442.889 699.19 L 442.769 715.554 C 436.649 717.866 429.167 720.104 422.853 722.166 L 412.934 709.054 C 403.901 709.242 399.527 708.941 390.704 707.61 L 378.76 719.145 L 360.249 709.812 L 362.421 693.457 C 356.147 687.766 352.508 682.915 347.199 676.264 C 342.327 676.241 335.86 675.68 331.553 677.377 C 329.55 672.949 326.174 661.835 324.48 656.765 C 328.739 653.058 333.169 649.907 337.706 646.557 C 337.565 638.385 337.75 632.195 339.317 624.189 L 327.894 612.326 C 330.518 606.308 334.143 599.52 337.143 593.575 C 342.596 594.506 347.94 595.153 353.42 595.848 C 359.372 589.758 363.207 585.935 370.509 581.559 L 370.537 564.452 z M 378.172 609.078 C 387.506 600.462 391.27 602.129 397.845 596.153 L 397.778 594.703 C 390.136 591.681 374.89 601.355 371.3 608.24 L 378.172 609.078 z"/>
<path transform="translate(0,0)" fill="rgb(232,154,231)" fill-opacity="0.196078" d="M 371.3 608.24 C 374.89 601.355 390.136 591.681 397.778 594.703 L 397.845 596.153 C 391.27 602.129 387.506 600.462 378.172 609.078 L 371.3 608.24 z"/>
<path transform="translate(0,0)" fill="rgb(244,201,247)" d="M 378.172 609.078 C 369.366 620.199 363.381 629.854 364.943 645.095 C 366.087 656.476 371.956 666.855 381.118 673.702 C 390.33 680.692 402.002 683.608 413.419 681.771 C 436.236 678.207 451.552 656.447 447.52 633.353 C 445.571 622.192 441.587 617.416 434.399 608.922 C 436.017 605.918 435.747 605.791 438.736 604.328 C 442.334 605.092 443.353 606.042 445.396 609.297 C 454.436 623.701 458.17 639.717 453.654 656.39 L 450.832 663.495 C 443.335 674.69 435.37 682.875 422.12 687.331 C 409.212 691.732 395.049 690.52 383.077 683.989 C 371.538 677.803 362.942 667.27 359.195 654.726 C 355.712 642.899 358.245 612.05 371.3 608.24 L 378.172 609.078 z"/>
<path transform="translate(0,0)" fill="rgb(244,201,247)" d="M 401.192 620.522 C 408.318 618.545 415.956 620.563 421.176 625.801 C 426.397 631.039 428.389 638.683 426.389 645.802 C 424.389 652.922 418.707 658.41 411.523 660.163 C 400.653 662.816 389.665 656.255 386.843 645.428 C 384.022 634.6 390.41 623.512 401.192 620.522 z"/>
<path transform="translate(0,0)" fill="rgb(245,148,232)" d="M 404.12 627.506 C 410.889 626.159 417.526 630.355 419.212 637.048 C 420.899 643.74 417.043 650.581 410.444 652.603 C 405.869 654.005 400.893 652.771 397.503 649.393 C 394.113 646.016 392.861 641.045 394.245 636.465 C 395.63 631.884 399.426 628.44 404.12 627.506 z"/>
<path transform="translate(0,0)" fill="rgb(244,201,247)" d="M 317.444 706.301 C 314.081 700.401 312.266 698.633 312.222 692.069 L 313.633 691.285 C 316.731 692.796 317.594 694.801 319.505 697.705 C 320.778 701.647 321.285 701.007 320.212 704.129 L 317.444 706.301 z"/>
<path transform="translate(0,0)" fill="rgb(244,201,247)" d="M 448.342 735.951 L 450.457 737.201 L 450.832 739.028 C 447.627 743.316 435.578 745.711 430.21 747.156 C 428.207 746.831 428.978 747.038 427.195 745.719 L 427.479 743.952 C 430.402 741.957 443.836 737.667 448.342 735.951 z"/>
<path transform="translate(0,0)" fill="rgb(244,201,247)" d="M 383.82 742.879 C 390.397 743.41 397.378 742.12 399.266 748.852 C 392.478 749.002 385.295 750.755 383.82 742.879 z"/>
<path transform="translate(0,0)" fill="url(#Gradient16)" d="M 863.863 935.039 C 897.571 898.565 930.265 859.13 963.943 822.465 C 975.912 809.435 988.91 793.221 1000.98 780.915 L 1002.44 781.232 L 949.093 1131.28 C 921.284 1159.14 888.566 1200.48 865.615 1233.25 C 813.451 1217.49 764.369 1192.92 720.493 1160.6 C 709.827 1152.73 697.281 1143.1 688.416 1133.45 L 687.517 1132.46 C 685.813 1133.3 686.77 1132.91 684.616 1133.57 L 679.47 1128.83 L 634.718 1128.93 C 637.971 1125.47 642.3 1114.59 644.402 1109.82 L 644.973 1109.23 L 649.801 1099.19 L 654.596 1089.28 L 658.027 1081.68 C 662.715 1073.4 668.797 1059.41 673.17 1050.22 L 703.834 985.606 C 729.709 931.037 725.994 934.94 786.353 935.045 L 862.521 935.074 L 863.863 935.039 z"/>
<path transform="translate(0,0)" fill="rgb(178,58,199)" d="M 863.863 935.039 C 897.571 898.565 930.265 859.13 963.943 822.465 C 975.912 809.435 988.91 793.221 1000.98 780.915 L 1002.44 781.232 L 949.093 1131.28 C 921.284 1159.14 888.566 1200.48 865.615 1233.25 C 813.451 1217.49 764.369 1192.92 720.493 1160.6 C 709.827 1152.73 697.281 1143.1 688.416 1133.45 L 687.517 1132.46 C 685.813 1133.3 686.77 1132.91 684.616 1133.57 L 679.47 1128.83 C 739.151 1128.1 798.998 1129.7 858.674 1128.41 C 878.06 1128 882.13 1105.4 888.326 1089.94 L 909.309 1037.52 C 919.823 1011.22 933.942 978.249 942.959 950.703 C 945.394 943.266 936.941 935.847 928.605 935.482 C 907.252 934.549 885.43 935.155 863.863 935.039 z"/>
<path transform="translate(0,0)" fill="rgb(74,147,249)" d="M 816.277 1006.98 C 840.223 1004.85 833.244 1041.06 814.984 1050.56 C 793.889 1054.31 798.039 1019.38 816.277 1006.98 z"/>
<path transform="translate(0,0)" fill="url(#Gradient15)" d="M 906.115 724.386 L 912.915 726.371 C 937.864 742.779 973.391 761.462 996.07 777.601 L 1000.26 779.184 L 1003.12 779.346 L 1002.44 781.232 L 1000.98 780.915 C 988.91 793.221 975.912 809.435 963.943 822.465 C 930.265 859.13 897.571 898.565 863.863 935.039 L 862.521 935.074 L 786.353 935.045 C 725.994 934.94 729.709 931.037 703.834 985.606 L 673.17 1050.22 C 668.797 1059.41 662.715 1073.4 658.027 1081.68 L 654.596 1089.28 L 644.609 1077.88 L 645.91 1067.38 C 653.78 1024.06 659.028 942.985 651.807 899.345 L 653.996 894.573 C 709.621 908.806 779.833 898.569 826.422 864.262 C 862.896 836.758 883.03 801.168 897.049 758.446 C 900.77 747.103 903.31 735.972 906.115 724.386 z"/>
<path transform="translate(0,0)" fill="rgb(239,72,122)" d="M 906.115 724.386 L 912.915 726.371 C 937.864 742.779 973.391 761.462 996.07 777.601 C 988.468 778.782 911.106 761.385 897.049 758.446 C 900.77 747.103 903.31 735.972 906.115 724.386 z"/>
<path transform="translate(0,0)" fill="rgb(232,154,231)" d="M 1000.26 779.184 L 1003.12 779.346 L 1002.44 781.232 L 1000.98 780.915 C 988.91 793.221 975.912 809.435 963.943 822.465 C 930.265 859.13 897.571 898.565 863.863 935.039 L 862.521 935.074 C 864.797 930.393 882.915 910.994 887.515 905.927 C 925.436 864.159 961.937 820.53 1000.26 779.184 z"/>
<path transform="translate(0,0)" fill="rgb(253,254,249)" d="M 645.91 1067.38 C 649.823 1072.09 653.918 1077.21 658.027 1081.68 L 654.596 1089.28 L 644.609 1077.88 L 645.91 1067.38 z"/>
<path transform="translate(0,0)" fill="rgb(242,119,95)" d="M 418.943 1087.13 C 427.61 1068.41 433.143 1056.83 444.482 1039.15 C 456.783 1057.64 466.584 1067.94 484.928 1080.8 C 493.749 1087.87 512.267 1097.82 523.027 1101.59 C 550.995 1072.74 560.739 1085.51 584.631 1109.01 C 600.61 1109 623.143 1108.28 638.595 1109.23 L 644.973 1109.23 L 644.402 1109.82 C 642.3 1114.59 637.971 1125.47 634.718 1128.93 C 632.562 1138.35 631.507 1151.51 624.514 1156.93 C 579.231 1160.11 524.09 1159.3 479.89 1147.7 C 479.956 1142.23 486.112 1126.25 487.118 1113.39 C 460.76 1106.51 442.869 1100.97 418.943 1087.13 z"/>
<path transform="translate(0,0)" fill="rgb(238,169,79)" d="M 487.118 1113.39 C 494.319 1115.09 503.23 1116.42 509.726 1118.1 C 510.74 1121.82 511.489 1125.48 515.142 1127.53 C 521.549 1131.12 618.564 1128.34 634.718 1128.93 C 632.562 1138.35 631.507 1151.51 624.514 1156.93 C 579.231 1160.11 524.09 1159.3 479.89 1147.7 C 479.956 1142.23 486.112 1126.25 487.118 1113.39 z"/>
<path transform="translate(0,0)" fill="url(#Gradient14)" d="M 509.726 1118.1 C 511.513 1114.44 513.546 1110.41 518.09 1110.11 C 531.527 1109.22 545.415 1109.57 558.894 1109.58 L 644.402 1109.82 C 642.3 1114.59 637.971 1125.47 634.718 1128.93 C 618.564 1128.34 521.549 1131.12 515.142 1127.53 C 511.489 1125.48 510.74 1121.82 509.726 1118.1 z"/>
<path transform="translate(0,0)" fill="rgb(246,220,250)" d="M 452.298 920.754 C 464.808 947.022 485.476 1052.78 484.928 1080.8 C 466.584 1067.94 456.783 1057.64 444.482 1039.15 C 421.906 994.673 429.659 963.494 452.298 920.754 z"/>
<path transform="translate(0,0)" fill="url(#Gradient13)" d="M 504.348 724.483 C 512.247 725.528 521.031 751.401 561.972 746.967 L 564 788.047 C 564.098 793.367 564.729 798.668 560.585 802.692 C 548.305 814.618 523.9 816.759 507.875 812.461 C 497.007 809.546 492.278 805.172 495.014 794.127 C 499.045 779.652 502.608 740.825 504.348 724.483 z"/>
<path transform="translate(0,0)" fill="rgb(238,169,79)" d="M 651.807 899.345 C 647.793 893.215 644.963 871.612 643.105 863.502 C 641.168 855.207 638.837 847.009 636.119 838.935 C 634.381 833.863 628.369 822.587 629.248 818.644 C 642.458 823.647 651.707 879.911 653.996 894.573 L 651.807 899.345 z"/>
<path transform="translate(0,0)" fill="rgb(239,72,122)" d="M 644.609 1077.88 L 654.596 1089.28 L 649.801 1099.19 L 642.097 1090.62 L 644.609 1077.88 z"/>
<path transform="translate(0,0)" fill="rgb(246,220,250)" d="M 642.097 1090.62 L 649.801 1099.19 L 644.973 1109.23 L 638.595 1109.23 C 639.917 1103.55 641.027 1096.46 642.097 1090.62 z"/>
<path transform="translate(0,0)" fill="url(#Gradient12)" d="M 1753.18 682.645 C 1765.18 667.272 1768.17 660.609 1789.56 662.105 C 1804.65 670.714 1804.95 679.057 1804.3 695.826 C 1803.81 708.509 1802.14 721.269 1801.69 733.936 L 1788.21 957.467 L 1784.4 1020.94 C 1782.93 1045.06 1786.05 1066.17 1763.17 1080.81 C 1764.25 1100.95 1758.42 1142.18 1755.15 1163.03 C 1735.25 1289.92 1686.64 1425.86 1599.82 1522.65 C 1586.53 1537.47 1572.34 1551.45 1557.34 1564.52 C 1537.6 1581.74 1463.6 1637.88 1440.02 1644.56 C 1431.73 1662.12 1423.58 1679.74 1415.56 1697.43 C 1412.12 1697.22 1408.72 1696.57 1405.45 1695.5 C 1390.54 1690.58 1382.11 1668.86 1375.43 1655.63 C 1367.26 1639.33 1359 1623.07 1350.66 1606.85 C 1333.27 1572.82 1314.99 1538.04 1298.26 1503.76 C 1346.15 1415.48 1393.62 1321.64 1440.08 1232.31 L 1495.89 1125.37 C 1505.9 1106.22 1518.09 1084.16 1527.12 1064.8 C 1510.24 1064.08 1473.47 1068.06 1459.73 1060.46 C 1445 1052.33 1479.87 1017.62 1486.79 1009.23 L 1538.31 946.62 L 1720.15 724.885 L 1720.57 724.203 C 1726.64 714.019 1744.75 692.741 1753.18 682.645 z"/>
<path transform="translate(0,0)" fill="rgb(246,220,250)" d="M 1700.5 1079.6 C 1721.71 1082.36 1743.14 1087.4 1763.17 1080.81 C 1764.25 1100.95 1758.42 1142.18 1755.15 1163.03 C 1735.25 1289.92 1686.64 1425.86 1599.82 1522.65 C 1586.53 1537.47 1572.34 1551.45 1557.34 1564.52 C 1537.6 1581.74 1463.6 1637.88 1440.02 1644.56 C 1444.28 1631.61 1460.43 1599.21 1466.85 1585.32 L 1523.47 1462.67 C 1582.13 1335.56 1640.55 1205.85 1700.5 1079.6 z"/>
<path transform="translate(0,0)" fill="rgb(253,254,249)" d="M 1760.83 695.47 C 1764 692.246 1769.4 687.079 1774.29 688.117 C 1789.15 691.271 1779.27 730.568 1778.51 741.223 L 1774.97 741.708 L 1773.29 740.004 C 1772.22 734.549 1773.68 727.812 1774.48 722.117 C 1774.01 720.225 1773.85 719.844 1773.16 718.041 C 1766.36 722.82 1757.68 724.74 1751.09 718.406 L 1599.56 915.307 L 1547.82 982.506 C 1541.95 990.137 1517.91 1023.14 1511.49 1026.13 C 1510.7 1017.68 1526.88 1000.2 1532.25 993.197 L 1572.39 941.033 L 1695.26 781.263 C 1715.56 754.857 1742.47 722.186 1760.83 695.47 z"/>
<path transform="translate(0,0)" fill="rgb(251,233,72)" d="M 1751.09 718.406 C 1756.07 711.79 1765.88 696.583 1772.98 695.036 C 1779.53 698.483 1775.42 715.312 1774.48 722.117 C 1774.01 720.225 1773.85 719.844 1773.16 718.041 C 1766.36 722.82 1757.68 724.74 1751.09 718.406 z"/>
<path transform="translate(0,0)" fill="rgb(251,233,72)" d="M 1753.18 682.645 C 1765.18 667.272 1768.17 660.609 1789.56 662.105 C 1804.65 670.714 1804.95 679.057 1804.3 695.826 C 1803.81 708.509 1802.14 721.269 1801.69 733.936 L 1800.72 732.371 C 1799.67 730.657 1799.47 730.424 1799.3 728.378 C 1795.18 734.228 1794.88 746.063 1791.32 750.338 C 1791.41 750.367 1790.2 750.949 1789.19 748.987 C 1785.1 741.08 1779.32 746.185 1778.51 741.223 C 1779.27 730.568 1789.15 691.271 1774.29 688.117 C 1769.4 687.079 1764 692.246 1760.83 695.47 C 1756.73 696.883 1753.67 699.257 1750.77 698.711 L 1751.73 694.916 C 1749.07 695.195 1749.9 695.646 1748.33 694.565 C 1749.61 688.851 1755.78 690.574 1753.18 682.645 z"/>
<path transform="translate(0,0)" fill="rgb(253,254,249)" d="M 1768.99 776.251 C 1769.97 776.629 1771.49 777.465 1772.48 777.964 C 1775.26 783.2 1772.21 794.876 1771.12 800.836 C 1767.8 800.093 1769.1 800.875 1766.82 798.853 C 1765.31 791.215 1767.45 783.928 1768.99 776.251 z"/>
<path transform="translate(0,0)" fill="rgb(186,127,251)" d="M 655.633 455.022 C 749.642 359.406 864.329 306.35 999.568 305.213 C 1068.56 304.707 1136.82 319.339 1199.54 348.078 L 1068.62 635.034 L 1025.42 729.666 C 1018.46 744.918 1009.67 762.905 1003.35 778.226 L 1003.12 779.346 L 1000.26 779.184 L 996.07 777.601 C 973.391 761.462 937.864 742.779 912.915 726.371 L 906.115 724.386 C 903.31 735.972 900.77 747.103 897.049 758.446 C 883.03 801.168 862.896 836.758 826.422 864.262 C 823.665 839.899 813.3 810.961 798.563 791.301 C 761.525 808.279 719.044 808.726 679.957 799.134 C 669.309 796.52 653.495 790.146 643.422 789.171 C 617.935 786.706 589.459 787.336 564 788.047 L 561.972 746.967 C 521.031 751.401 512.247 725.528 504.348 724.483 L 504.523 723.354 C 493.325 723.298 469.867 720.194 466.921 707.053 C 467.968 702.485 468.145 703.454 471.694 699.436 C 465.775 694.101 463.607 691.975 458.64 685.795 C 453.096 676.697 452.114 674.064 450.832 663.495 L 453.654 656.39 C 459.92 650.634 461.906 652.343 468.443 651.115 C 470.592 650.712 473.14 637.224 475.639 633.802 C 479.921 627.941 482.396 626.125 488.106 621.716 C 512.514 607.305 534.669 611.122 554.363 597.487 C 556.216 596.299 558.723 593.432 560.371 591.734 L 562.65 590.966 C 565.64 587.896 580.152 557.273 583.729 550.392 C 586.202 546.088 591.436 535.355 595.199 533.497 C 598.576 530.546 613.836 505.833 618.198 499.936 C 629.884 484.322 642.38 469.331 655.633 455.022 z"/>
<path transform="translate(0,0)" fill="rgb(239,72,122)" d="M 583.729 550.392 C 586.202 546.088 591.436 535.355 595.199 533.497 C 607.165 541.719 622.598 550.522 635.164 558.123 L 701.14 598.112 L 885.299 709.902 C 876.351 724.38 867.027 738.112 855.082 750.352 C 837.185 768.713 822.114 780.406 798.563 791.301 C 761.525 808.279 719.044 808.726 679.957 799.134 C 669.309 796.52 653.495 790.146 643.422 789.171 C 617.935 786.706 589.459 787.336 564 788.047 L 561.972 746.967 C 521.031 751.401 512.247 725.528 504.348 724.483 L 504.523 723.354 C 493.325 723.298 469.867 720.194 466.921 707.053 C 467.968 702.485 468.145 703.454 471.694 699.436 C 465.775 694.101 463.607 691.975 458.64 685.795 C 453.096 676.697 452.114 674.064 450.832 663.495 L 453.654 656.39 C 459.92 650.634 461.906 652.343 468.443 651.115 C 470.592 650.712 473.14 637.224 475.639 633.802 C 479.921 627.941 482.396 626.125 488.106 621.716 C 512.514 607.305 534.669 611.122 554.363 597.487 C 556.216 596.299 558.723 593.432 560.371 591.734 L 562.65 590.966 C 565.64 587.896 580.152 557.273 583.729 550.392 z"/>
<path transform="translate(0,0)" fill="rgb(178,58,199)" d="M 582.168 694.074 C 636.439 703.555 695.904 717.229 750.264 728.381 L 815.483 741.685 C 826.859 743.996 844.196 747.084 855.082 750.352 C 837.185 768.713 822.114 780.406 798.563 791.301 C 761.525 808.279 719.044 808.726 679.957 799.134 C 669.309 796.52 653.495 790.146 643.422 789.171 C 617.935 786.706 589.459 787.336 564 788.047 L 561.972 746.967 C 569.511 745.259 574.787 744.56 580.137 738.17 C 587.862 728.944 583.515 706.327 582.168 694.074 z"/>
<path transform="translate(0,0)" fill="rgb(37,42,113)" d="M 562.65 590.966 L 565.98 591.773 C 567.163 591.01 569.791 588.84 570.973 589.252 C 575.816 590.94 582.339 596.415 584.401 601.302 C 593.108 621.933 584.031 636.43 566.664 645.928 C 573.582 663.679 577.475 675.555 582.168 694.074 C 583.515 706.327 587.862 728.944 580.137 738.17 C 574.787 744.56 569.511 745.259 561.972 746.967 C 521.031 751.401 512.247 725.528 504.348 724.483 L 504.523 723.354 C 493.325 723.298 469.867 720.194 466.921 707.053 C 467.968 702.485 468.145 703.454 471.694 699.436 C 465.775 694.101 463.607 691.975 458.64 685.795 C 453.096 676.697 452.114 674.064 450.832 663.495 L 453.654 656.39 C 459.92 650.634 461.906 652.343 468.443 651.115 C 470.592 650.712 473.14 637.224 475.639 633.802 C 479.921 627.941 482.396 626.125 488.106 621.716 C 512.514 607.305 534.669 611.122 554.363 597.487 C 556.216 596.299 558.723 593.432 560.371 591.734 L 562.65 590.966 z"/>
<path transform="translate(0,0)" fill="url(#Gradient11)" d="M 566.664 645.928 C 573.582 663.679 577.475 675.555 582.168 694.074 C 583.515 706.327 587.862 728.944 580.137 738.17 C 574.787 744.56 569.511 745.259 561.972 746.967 C 521.031 751.401 512.247 725.528 504.348 724.483 L 504.523 723.354 C 512.902 712.389 470.198 695.543 493.032 681.281 C 503.759 680.244 504.226 690.956 511.859 697.057 C 518.168 693.783 504.076 682.512 508.828 667.995 C 513.893 663.326 554.399 651.435 566.664 645.928 z"/>
<path transform="translate(0,0)" fill="rgb(248,168,113)" d="M 885.299 709.902 C 898.191 687.742 898.529 675.584 925.959 667.177 C 937.915 663.512 992.329 643.613 1000.39 647.112 C 1002.63 660.24 976.127 664.057 966.157 667.299 C 966.969 680.783 968.131 694.733 958.215 705.64 C 949.21 715.544 929.62 725.769 916.303 726.278 C 915.174 726.324 914.045 726.355 912.915 726.371 L 906.115 724.386 C 903.31 735.972 900.77 747.103 897.049 758.446 C 883.03 801.168 862.896 836.758 826.422 864.262 C 823.665 839.899 813.3 810.961 798.563 791.301 C 822.114 780.406 837.185 768.713 855.082 750.352 C 867.027 738.112 876.351 724.38 885.299 709.902 z"/>
<path transform="translate(0,0)" fill="rgb(253,254,249)" d="M 977.606 322.426 C 1009.36 319.906 1057.93 324.134 1089.94 331.484 C 1091.97 331.95 1092.24 333.806 1092.63 335.558 C 1090.05 339.323 1084.79 338.216 1080.48 337.422 C 1046.64 330.885 1012.13 328.432 977.699 330.116 C 892.143 333.62 815.708 360.58 744.549 407.317 C 729.857 417.132 715.827 427.902 702.548 439.558 C 696.765 444.63 681.141 459.395 675.845 462.79 C 672.74 462.574 674.029 463.171 671.857 460.925 C 671.847 458.88 671.563 458.004 673.292 456.228 C 686.113 443.055 701.479 429.775 715.872 418.644 C 791.021 360.194 882.492 326.568 977.606 322.426 z"/>
<path transform="translate(0,0)" fill="rgb(245,148,232)" d="M 1003.12 779.346 L 1003.35 778.226 C 1008.85 781.212 1109.72 795.954 1123.56 798.131 L 1470.51 852.932 C 1464.88 882.36 1459.86 905.312 1450.18 933.808 C 1416.69 1031.82 1352.17 1116.24 1266.39 1174.3 C 1244.75 1189.01 1221.4 1201.67 1197.75 1212.9 C 1186.84 1218.08 1167.51 1224.15 1158.06 1229.27 C 1157.01 1227.67 1152.99 1219.17 1151.89 1216.97 L 1148.41 1210.28 C 1147.3 1208.52 1146.02 1205.8 1145.03 1203.88 C 1136.99 1183.91 1129.1 1159.91 1116.17 1143 C 1069.61 1082.14 1004.37 1090.1 949.093 1131.28 L 1002.44 781.232 L 1003.12 779.346 z"/>
<path transform="translate(0,0)" fill="rgb(253,254,249)" d="M 1148.41 1210.28 C 1203.23 1189.43 1241.2 1169.12 1287.09 1131.76 C 1299.88 1121.2 1312.04 1109.88 1323.48 1097.86 C 1329.13 1092.03 1341.3 1077.51 1347.7 1074.94 L 1349.26 1076.28 C 1349.53 1082.4 1343.48 1087.69 1339.03 1092.55 C 1287.83 1148.78 1223.55 1191.51 1151.89 1216.97 L 1148.41 1210.28 z"/>
<path transform="translate(0,0)" fill="url(#Gradient10)" d="M 1420.57 282.238 C 1440.26 279.018 1460.43 280.414 1479.49 286.316 C 1543.75 312.3 1574.12 375.059 1548.96 440.699 C 1532.7 472.744 1513.2 494.263 1478.01 505.843 C 1474.99 506.857 1471.92 507.74 1468.82 508.489 C 1474.48 518.28 1481.13 531.192 1485.57 541.677 C 1456.84 554.157 1434.35 575.579 1422.61 604.926 C 1421.49 607.685 1420.5 610.498 1419.66 613.353 C 1409.76 640.641 1412.21 674.458 1424.35 700.767 C 1437.57 729.362 1461.65 751.507 1491.25 762.301 C 1503.32 766.711 1514.29 768.678 1527.1 769.249 C 1526.34 788.018 1523.34 810.333 1519.62 828.849 L 1468.46 819.137 C 1468.12 817.274 1469.14 814.533 1468.23 813.56 C 1462.27 806.651 1451.42 803.969 1443.97 799.118 C 1422.75 785.308 1401.86 770.791 1380.34 757.376 C 1376.06 754.707 1368.12 747.458 1364.55 745.91 C 1361.1 746.254 1358.06 747.065 1355.15 745.508 L 1353.86 741.007 C 1349.94 737.6 1328.13 721.098 1322.81 721.163 C 1318.84 721.212 1318.54 721.324 1314.59 717.607 L 1317.09 716.974 L 1316.62 715.815 C 1300.73 704.363 1284.43 693.501 1267.74 683.25 C 1260.8 679.072 1254.08 676.355 1247.28 672.541 C 1243.32 669.986 1238.96 664.532 1235.06 662.283 C 1212.68 649.388 1192.34 633.751 1170.05 620.561 C 1165.69 617.979 1143.52 601.741 1140.45 601.317 C 1128.82 599.708 1133.97 593.942 1127.47 591.778 C 1139.74 564.886 1154.25 536.567 1167.28 509.781 L 1263.41 312.265 C 1288.17 324.303 1311.75 338.632 1333.83 355.066 C 1343.31 333.31 1350.14 324.005 1367.22 307.604 C 1384.74 293.401 1398.92 287.477 1420.57 282.238 z"/>
<path transform="translate(0,0)" fill="rgb(201,75,83)" d="M 1420.57 282.238 C 1440.26 279.018 1460.43 280.414 1479.49 286.316 C 1543.75 312.3 1574.12 375.059 1548.96 440.699 C 1532.7 472.744 1513.2 494.263 1478.01 505.843 C 1474.99 506.857 1471.92 507.74 1468.82 508.489 C 1455.97 511.421 1442.74 512.255 1429.62 510.957 C 1399.62 507.844 1372.04 493.047 1352.86 469.766 C 1330.98 443.27 1324.07 413.694 1327.46 380.09 L 1329.27 371.45 C 1330.41 366.176 1332.3 360.297 1333.83 355.066 C 1343.31 333.31 1350.14 324.005 1367.22 307.604 C 1384.74 293.401 1398.92 287.477 1420.57 282.238 z"/>
<path transform="translate(0,0)" fill="rgb(247,210,75)" d="M 1423.03 286.023 C 1439.29 283.25 1455.97 284.11 1471.86 288.54 C 1526.78 303.849 1561.4 358.017 1552.22 414.287 C 1543.04 470.558 1493.01 510.919 1436.07 507.984 C 1379.13 505.049 1333.51 459.757 1330.17 402.841 C 1326.83 345.925 1366.83 295.604 1423.03 286.023 z"/>
<path transform="translate(0,0)" fill="rgb(253,247,214)" d="M 1436.5 304.317 C 1488.52 299.891 1534.28 338.48 1538.7 390.505 C 1543.12 442.531 1504.53 488.287 1452.5 492.701 C 1400.49 497.114 1354.74 458.527 1350.32 406.511 C 1345.9 354.495 1384.48 308.743 1436.5 304.317 z"/>
<path transform="translate(0,0)" fill="url(#Gradient9)" d="M 1435.49 332.164 C 1449.85 330.785 1451.06 331.245 1451.51 345.896 C 1459.14 346.816 1471.93 347.14 1477.22 351.969 C 1491.25 386.861 1430.13 351.824 1430.72 378.242 C 1435.55 386.856 1458.06 390.474 1468.42 395.114 C 1486.5 403.213 1493.39 419.939 1484.68 438.415 C 1479.89 448.558 1466.66 454.009 1455.82 456.892 C 1456.06 462.581 1457.15 467.813 1454.47 472.417 C 1451.47 474.995 1449.84 474.843 1445.92 475.415 C 1442.34 474.657 1441.93 474.895 1439.31 472.297 C 1437.21 468.053 1437.74 464.056 1437.72 459.202 C 1422.29 457.934 1395.09 457.771 1408.14 436.319 C 1411.54 431.65 1424.91 434.701 1428.99 435.905 C 1455.05 443.589 1477.42 422.193 1440.71 413.272 C 1415.78 407.212 1390.77 394.037 1407 364.288 C 1412.16 354.824 1423.56 350.852 1433.23 348.39 C 1432.94 341.876 1432.02 337.516 1435.49 332.164 z"/>
<path transform="translate(0,0)" fill="rgb(253,247,214)" d="M 1431.61 291.336 C 1437.28 290.941 1454.23 289.456 1458.21 293.522 L 1457.38 295.49 C 1447.08 295.915 1439.05 294.712 1428.51 296.355 C 1397.75 301.151 1377.5 314.207 1359.17 338.601 C 1355.93 343.01 1351.48 353.612 1347.91 355.695 L 1346.4 354.828 C 1345.2 349.173 1355.58 335.577 1359.11 331.06 C 1377.59 307.408 1402.05 294.957 1431.61 291.336 z"/>
<path transform="translate(0,0)" fill="rgb(253,254,249)" d="M 1273.26 333.552 C 1292.58 345.045 1311.04 358.307 1329.27 371.45 L 1327.46 380.09 C 1311.06 367.302 1293.99 355.41 1276.31 344.464 C 1254.56 389.755 1231.36 435.383 1209.08 480.502 L 1186 526.943 C 1182.09 534.807 1175.53 553.982 1167.11 556.225 L 1165.84 555.171 C 1165.22 548.585 1195.03 491.696 1200.77 480.087 L 1273.26 333.552 z"/>
<path transform="translate(0,0)" fill="rgb(247,210,75)" d="M 1256.83 490.524 C 1295.47 487.571 1329.25 516.358 1332.46 554.974 C 1335.67 593.591 1307.1 627.559 1268.51 631.026 C 1229.55 634.526 1195.19 605.636 1191.95 566.653 C 1188.71 527.671 1217.83 493.504 1256.83 490.524 z"/>
<path transform="translate(0,0)" fill="rgb(253,247,214)" d="M 1262.24 504.393 C 1293.99 503.523 1320.52 528.398 1321.69 560.141 C 1322.86 591.885 1298.24 618.644 1266.5 620.114 C 1234.35 621.603 1207.15 596.576 1205.96 564.406 C 1204.78 532.235 1230.06 505.275 1262.24 504.393 z"/>
<path transform="translate(0,0)" fill="url(#Gradient8)" d="M 1258.06 520.794 C 1262.36 520.871 1263.72 520.443 1266.73 522.776 C 1267.81 535.518 1279.01 528.699 1284.25 534.692 C 1284.95 538.888 1283.55 541.59 1282.17 545.679 C 1275.2 543.617 1258.3 539.285 1255.65 548.939 C 1260.11 556.964 1280.33 557.723 1287.31 567 C 1300.12 583.999 1281.28 591.595 1271.27 599.768 C 1270.63 607.217 1271.34 606.977 1265.33 610.556 C 1259.79 607.958 1260.53 606.001 1259.09 600.43 C 1255.46 597.553 1248.43 599.595 1241.07 595.594 C 1239.79 593.503 1239.13 591.602 1239.9 589.156 C 1243.53 577.726 1261.99 590.317 1271.65 583.643 C 1272.36 581.947 1273.36 579.594 1272.35 577.516 C 1268.63 569.89 1250.79 570.488 1243.63 563.917 C 1240.08 560.658 1238.11 558.626 1237.8 554.506 C 1236.3 534.552 1251.05 537.409 1256.67 529.513 C 1256.93 525.28 1256.97 524.875 1258.06 520.794 z"/>
<path transform="translate(0,0)" fill="rgb(253,247,214)" d="M 1257.26 495.261 C 1262.56 494.963 1269.67 494.493 1274.15 497.708 L 1273.12 499.173 C 1268.93 501.027 1259.26 499.51 1252.97 500.675 C 1233.46 504.291 1222.52 512.778 1211.06 527.933 C 1209.06 531.981 1208.21 534.704 1204.24 536.461 L 1203.31 534.851 C 1206.64 512.176 1236.64 497.918 1257.26 495.261 z"/>
<path transform="translate(0,0)" fill="url(#Gradient7)" d="M 1485.57 541.677 C 1511.35 529.177 1545.17 529.211 1571.93 538.638 C 1601.98 549.251 1626.5 571.511 1639.95 600.402 C 1653.31 629.211 1654.65 662.152 1643.69 691.954 C 1632.71 721.862 1610.08 746.048 1580.97 758.996 C 1579.75 759.563 1578.51 760.092 1577.26 760.583 C 1560.84 767.616 1544.91 769.865 1527.1 769.249 C 1514.29 768.678 1503.32 766.711 1491.25 762.301 C 1461.65 751.507 1437.57 729.362 1424.35 700.767 C 1412.21 674.458 1409.76 640.641 1419.66 613.353 C 1420.5 610.498 1421.49 607.685 1422.61 604.926 C 1434.35 575.579 1456.84 554.157 1485.57 541.677 z"/>
<path transform="translate(0,0)" fill="rgb(201,75,83)" d="M 1485.57 541.677 C 1511.35 529.177 1545.17 529.211 1571.93 538.638 C 1601.98 549.251 1626.5 571.511 1639.95 600.402 C 1653.31 629.211 1654.65 662.152 1643.69 691.954 C 1632.71 721.862 1610.08 746.048 1580.97 758.996 C 1579.75 759.563 1578.51 760.092 1577.26 760.583 L 1581.08 754.917 C 1628.1 732.774 1654.44 681.858 1645.35 630.684 C 1636.25 579.51 1593.98 540.786 1542.21 536.2 C 1490.44 531.614 1442.02 562.304 1424.07 611.083 L 1419.66 613.353 C 1420.5 610.498 1421.49 607.685 1422.61 604.926 C 1434.35 575.579 1456.84 554.157 1485.57 541.677 z"/>
<path transform="translate(0,0)" fill="rgb(242,119,95)" d="M 1424.07 611.083 C 1407.95 654.902 1419.9 704.121 1454.33 735.661 C 1488.76 767.202 1538.84 774.809 1581.08 754.917 L 1577.26 760.583 C 1560.84 767.616 1544.91 769.865 1527.1 769.249 C 1514.29 768.678 1503.32 766.711 1491.25 762.301 C 1461.65 751.507 1437.57 729.362 1424.35 700.767 C 1412.21 674.458 1409.76 640.641 1419.66 613.353 L 1424.07 611.083 z"/>
<path transform="translate(0,0)" fill="rgb(253,247,214)" d="M 1524.48 556.409 C 1577.63 550.731 1625.41 589.008 1631.46 642.121 C 1637.51 695.234 1599.57 743.276 1546.5 749.698 C 1492.9 756.183 1444.28 717.78 1438.17 664.14 C 1432.06 610.499 1470.8 562.144 1524.48 556.409 z"/>
<path transform="translate(0,0)" fill="url(#Gradient6)" d="M 1528.15 584.199 C 1542.56 583.583 1541.74 587.253 1542.09 599.559 C 1556.6 600.365 1577.8 598.761 1566.37 621.549 C 1562.87 628.51 1519.54 609.975 1520.98 632.048 C 1526.87 642.199 1549.28 644.647 1560.3 650.205 C 1578.91 659.591 1585.94 675.311 1575.56 694.299 C 1569.01 706.296 1558.27 709.853 1546.18 713.456 C 1546.77 719.672 1548.24 724.897 1544.4 729.673 C 1540.79 731.996 1538.57 731.751 1534.12 732.156 C 1526.31 729.055 1527.81 722.367 1527.77 715.237 C 1520.75 715.032 1494.7 714.114 1494.52 704.501 C 1493.9 675.254 1516.89 696.608 1534.9 693.063 C 1559.41 689.456 1552.19 672.052 1532.01 668.728 C 1486.21 661.182 1471.58 618.051 1523.2 601.15 C 1522.79 593.508 1520.97 588.466 1528.15 584.199 z"/>
<path transform="translate(0,0)" fill="rgb(253,247,214)" d="M 1529.69 542.442 C 1535.26 542.365 1543.87 541.859 1548.56 544.575 L 1548.75 546.394 L 1547.05 547.56 C 1501.73 544.481 1469.29 558.236 1443.59 596.406 C 1441 601.379 1439.84 604.807 1435.43 608.055 L 1434.75 606.705 C 1437.24 595.798 1443.87 586.448 1451.33 578.322 C 1472.93 554.79 1498.34 544.173 1529.69 542.442 z"/>
<path transform="translate(0,0)" fill="url(#Gradient5)" d="M 1127.47 591.778 C 1133.97 593.942 1128.82 599.708 1140.45 601.317 C 1143.52 601.741 1165.69 617.979 1170.05 620.561 C 1192.34 633.751 1212.68 649.388 1235.06 662.283 C 1238.96 664.532 1243.32 669.986 1247.28 672.541 C 1254.08 676.355 1260.8 679.072 1267.74 683.25 C 1284.43 693.501 1300.73 704.363 1316.62 715.815 L 1317.09 716.974 L 1314.59 717.607 C 1318.54 721.324 1318.84 721.212 1322.81 721.163 C 1328.13 721.098 1349.94 737.6 1353.86 741.007 L 1355.15 745.508 C 1358.06 747.065 1361.1 746.254 1364.55 745.91 C 1368.12 747.458 1376.06 754.707 1380.34 757.376 C 1401.86 770.791 1422.75 785.308 1443.97 799.118 C 1451.42 803.969 1462.27 806.651 1468.23 813.56 C 1469.14 814.533 1468.12 817.274 1468.46 819.137 C 1430.59 810.816 1388.75 803.579 1350.47 796.158 L 1055.73 738.889 C 1076.94 692.488 1104.35 637.484 1127.47 591.778 z"/>
<path transform="translate(0,0)" fill="rgb(253,254,249)" d="M 1104.99 674.479 C 1108.57 675.047 1108.42 674.812 1109.95 677.407 C 1109.76 684.359 1093.84 713.549 1089.62 722.343 C 1141.68 731.375 1193.75 742.003 1245.78 751.392 C 1256.15 753.261 1329.14 765.674 1332.6 769.319 C 1332.62 772.979 1333.04 771.165 1330.33 774.653 C 1319 773.324 1303.15 769.9 1291.67 767.756 L 1223.55 755.024 C 1180.82 747.052 1137.68 739.184 1095 730.907 C 1091.11 730.152 1083.91 728.252 1081.31 725.502 C 1082.27 716.904 1099.9 683.358 1104.99 674.479 z"/>
<path transform="translate(0,0)" fill="rgb(244,201,247)" d="M 691.246 337.561 C 697.308 339.089 702.161 350.906 701.843 356.674 C 697.136 354.396 691.612 342.761 691.246 337.561 z"/>
<path transform="translate(0,0)" fill="rgb(244,201,247)" d="M 707.189 376.28 C 709.228 377.18 708.699 376.943 710.473 378.372 C 713.011 384.301 714.14 390.738 713.771 397.176 L 710.955 395.082 C 708.625 389.079 707.351 382.718 707.189 376.28 z"/>
<path transform="translate(0,0)" fill="rgb(244,201,247)" d="M 671.273 309.556 C 677.077 310.691 679.108 314.412 681.149 319.486 L 678.644 319.545 C 674.175 316.96 672.949 314.296 671.273 309.556 z"/>
<path transform="translate(0,0)" fill="rgb(245,148,232)" d="M 486.16 304.381 C 495.083 300.86 508.539 296.681 517.738 294.094 C 522.141 298.713 529.638 309.12 533.782 314.532 C 547.712 314.207 555.504 314.929 569.28 317.154 C 575.556 310.929 581.52 304.868 588.272 299.138 C 596.713 302.518 609.189 309.264 617.656 313.568 C 616.68 321.283 615.863 329.017 615.204 336.766 L 614.455 338.92 C 617.376 343.624 631.347 357.928 637.642 366.842 L 663.782 367.014 L 674.182 398.582 L 653.065 414.536 C 653.542 427.541 651.824 436.872 651.635 449.661 C 651.609 451.466 654.237 453.602 655.633 455.022 C 642.38 469.331 629.884 484.322 618.198 499.936 C 613.836 505.833 598.576 530.546 595.199 533.497 C 591.436 535.355 586.202 546.088 583.729 550.392 C 580.152 557.273 565.64 587.896 562.65 590.966 L 560.371 591.734 C 558.723 593.432 556.216 596.299 554.363 597.487 C 534.669 611.122 512.514 607.305 488.106 621.716 C 486.639 618.567 483.32 607.966 482.023 604.166 L 465.659 603.996 C 460.738 596.749 457.017 593.035 450.729 587.114 L 453.348 570.794 L 434.494 561.296 L 422.761 572.874 C 414.308 571.592 408.974 571.331 400.495 571.225 C 398.564 568.959 397.314 567.011 395.633 564.573 C 399.84 555.723 410.3 539.842 416.508 532.021 L 418.154 529.69 C 425.179 517.156 441.994 496.1 452.789 486.741 C 448.71 479.773 431.773 481.826 423.732 481.632 C 420.214 474.453 415.522 458.434 412.948 450.22 C 419.586 444.506 426.625 439.276 434.012 434.569 C 433.455 420.757 433.554 412.364 436.567 399.027 C 430.08 392.604 424.064 386.741 418.068 379.82 C 422.134 371.507 428.5 357.469 433.42 350.185 C 442.756 351.652 449.882 352.66 459.294 353.387 C 469.623 342.297 473.497 338.808 486.012 330.264 C 486 321.636 486.049 313.008 486.16 304.381 z M 616.792 409.549 C 613.223 392.244 606.357 380.94 593.532 368.867 L 591.991 368.886 L 589.478 372.323 C 592.683 376.597 596.205 379.762 599.316 383.355 C 604.111 388.893 612.147 406.23 612.904 412.944 L 616.792 409.549 z M 518.411 411.776 L 521.568 409.16 C 522.818 406.095 526.23 401.992 529.607 401.597 L 527.98 404.718 C 535.846 403.053 542.583 397.612 551.578 401.541 C 556.825 403.833 558.349 408.528 563.69 409.865 C 565.263 406.871 564.673 408.441 564.239 404.36 C 558.3 394.071 544.417 395.985 534.526 395.785 C 527.249 399.997 520.277 402.915 518.411 411.776 z M 485.958 385 C 501.517 365.256 511.93 361.379 534.69 354.362 C 535.777 354.027 535.491 352.92 535.605 351.817 C 529.896 349.12 513.926 355.704 508.49 358.308 C 497.124 363.751 490.052 371.491 482.148 381.014 C 475.944 390.502 469.535 404.304 468.99 415.713 C 468.776 424.327 468.387 433.32 469.96 441.83 C 473.439 451.323 474.499 455.894 480.467 464.251 L 484.376 468.893 L 485.556 468.992 L 485.805 467.127 C 481.351 457.568 477.124 448.526 474.549 438.283 C 473.264 430.215 472.958 426.725 473.393 418.696 C 473.745 417.869 474.913 410.709 475.339 409.051 C 477.82 399.409 481.015 393.45 485.958 385 z"/>
<path transform="translate(0,0)" fill="rgb(246,220,250)" d="M 452.789 486.741 C 459.815 495.194 464.901 501.496 473.295 508.787 L 469.599 534.822 C 479.506 539.892 489.444 544.9 499.414 549.844 L 517.729 531.691 C 532.124 533.594 539.165 534.318 553.807 533.924 C 558.992 541.041 564.07 548.223 569.965 554.776 L 583.729 550.392 C 580.152 557.273 565.64 587.896 562.65 590.966 L 560.371 591.734 C 558.723 593.432 556.216 596.299 554.363 597.487 C 534.669 611.122 512.514 607.305 488.106 621.716 C 486.639 618.567 483.32 607.966 482.023 604.166 L 465.659 603.996 C 460.738 596.749 457.017 593.035 450.729 587.114 L 453.348 570.794 L 434.494 561.296 L 422.761 572.874 C 414.308 571.592 408.974 571.331 400.495 571.225 C 398.564 568.959 397.314 567.011 395.633 564.573 C 399.84 555.723 410.3 539.842 416.508 532.021 L 418.154 529.69 C 425.179 517.156 441.994 496.1 452.789 486.741 z"/>
<path transform="translate(0,0)" fill="rgb(244,201,247)" d="M 416.508 532.021 L 418.154 529.69 C 423.058 530.537 428.049 530.773 431.757 533.754 L 431.938 535.526 C 426.725 537.793 420.735 535.305 416.508 532.021 z"/>
<path transform="translate(0,0)" fill="rgb(244,201,247)" d="M 554.363 597.487 C 549.772 595.822 549.27 598.007 544.356 594.405 L 544.605 593.425 C 549.921 592.453 554.994 592.164 560.371 591.734 C 558.723 593.432 556.216 596.299 554.363 597.487 z"/>
<path transform="translate(0,0)" fill="rgb(244,201,247)" d="M 486.176 566.413 C 492.535 567.915 496.875 574.014 496.438 580.493 C 490.605 579.369 486.243 572.122 486.176 566.413 z"/>
<path transform="translate(0,0)" fill="rgb(244,201,247)" d="M 508.8 590.261 C 514.732 589.708 519.53 588.952 522.067 594.768 C 515.745 594.95 512.57 595.503 508.8 590.261 z"/>
<path transform="translate(0,0)" fill="rgb(244,201,247)" d="M 616.792 409.549 C 621.848 423.752 618.189 443.678 611.867 457.037 C 603.109 475.409 587.411 489.549 568.227 496.346 C 549.324 503.029 528.529 501.85 510.503 493.071 C 501.98 488.911 480.77 474.351 480.467 464.251 L 484.376 468.893 L 485.556 468.992 L 485.805 467.127 C 486.098 466.664 485.826 466.987 487.075 466.071 C 500.831 480.386 508.86 488.931 529.812 492.91 C 548.27 496.559 567.42 492.643 582.963 482.041 C 598.525 471.245 609.119 454.024 612.115 435.33 C 613.257 428.203 611.493 419.311 612.904 412.944 L 616.792 409.549 z"/>
<path transform="translate(0,0)" fill="rgb(244,201,247)" d="M 521.568 409.16 L 523.446 410.475 L 522.965 412.079 C 520.528 420.407 519.296 430.862 523.937 437.556 C 535.142 453.716 562.786 451.744 565.712 429.457 C 566.391 424.282 565.729 412.366 567.08 409.417 C 568.962 409.755 569.717 410.182 570.596 412.224 C 585.28 446.354 537.391 471.847 517.987 438.978 C 512.785 430.168 512.231 420.449 517.001 411.324 L 517.918 411.19 L 518.411 411.776 L 521.568 409.16 z"/>
<path transform="translate(0,0)" fill="rgb(245,148,232)" fill-opacity="0.054902" d="M 482.148 381.014 C 490.052 371.491 497.124 363.751 508.49 358.308 C 513.926 355.704 529.896 349.12 535.605 351.817 C 535.491 352.92 535.777 354.027 534.69 354.362 C 511.93 361.379 501.517 365.256 485.958 385 L 482.148 381.014 z"/>
<path transform="translate(0,0)" fill="rgb(232,154,231)" fill-opacity="0.0156863" d="M 612.904 412.944 C 612.147 406.23 604.111 388.893 599.316 383.355 C 596.205 379.762 592.683 376.597 589.478 372.323 L 591.991 368.886 L 593.532 368.867 C 606.357 380.94 613.223 392.244 616.792 409.549 L 612.904 412.944 z"/>
<path transform="translate(0,0)" fill="rgb(232,154,231)" fill-opacity="0.388235" d="M 534.526 395.785 C 544.417 395.985 558.3 394.071 564.239 404.36 C 564.673 408.441 565.263 406.871 563.69 409.865 C 558.349 408.528 556.825 403.833 551.578 401.541 C 542.583 397.612 535.846 403.053 527.98 404.718 L 529.607 401.597 C 526.23 401.992 522.818 406.095 521.568 409.16 L 518.411 411.776 C 520.277 402.915 527.249 399.997 534.526 395.785 z"/>
<path transform="translate(0,0)" fill="rgb(232,154,231)" fill-opacity="0.243137" d="M 468.99 415.713 C 469.535 404.304 475.944 390.502 482.148 381.014 L 485.958 385 C 481.015 393.45 477.82 399.409 475.339 409.051 C 474.913 410.709 473.745 417.869 473.393 418.696 L 472.692 416.782 L 468.99 415.713 z"/>
<path transform="translate(0,0)" fill="rgb(232,154,231)" fill-opacity="0.25098" d="M 474.549 438.283 C 477.124 448.526 481.351 457.568 485.805 467.127 L 485.556 468.992 L 484.376 468.893 L 480.467 464.251 C 474.499 455.894 473.439 451.323 469.96 441.83 C 472.626 440.481 472.872 440.657 474.549 438.283 z"/>
<path transform="translate(0,0)" fill="rgb(232,154,231)" fill-opacity="0.027451" d="M 468.99 415.713 L 472.692 416.782 L 473.393 418.696 C 472.958 426.725 473.264 430.215 474.549 438.283 C 472.872 440.657 472.626 440.481 469.96 441.83 C 468.387 433.32 468.776 424.327 468.99 415.713 z"/>
<path transform="translate(0,0)" fill="url(#Gradient4)" d="M 1593.47 394.089 C 1604.21 375.408 1626.39 360.932 1646.94 355.323 C 1671.58 348.561 1697.89 351.837 1720.11 364.432 C 1741.95 377.01 1757.85 397.8 1764.27 422.17 C 1769.47 442.47 1768.12 473.068 1756.19 490.992 C 1735.68 532.838 1684.4 551.324 1641.19 536.58 C 1634.73 534.375 1629.62 532.023 1623.43 529.118 C 1621.6 526.957 1610.56 519.336 1607.49 516.541 C 1592.51 502.893 1587.98 490.386 1580.36 472.886 C 1572.79 448.855 1578.55 414.348 1593.47 394.089 z"/>
<path transform="translate(0,0)" fill="rgb(247,210,75)" d="M 1593.47 394.089 C 1604.21 375.408 1626.39 360.932 1646.94 355.323 C 1671.58 348.561 1697.89 351.837 1720.11 364.432 C 1741.95 377.01 1757.85 397.8 1764.27 422.17 C 1769.47 442.47 1768.12 473.068 1756.19 490.992 C 1754.37 487.955 1757.84 481.685 1758.93 477.712 C 1761.1 469.755 1762.91 461.898 1764.58 453.829 C 1765.88 450.054 1764.24 446.294 1764.05 442.479 C 1762.02 400.604 1733.17 366.071 1690.76 356.571 L 1688.09 357.821 C 1687.49 359.949 1686.83 362.064 1686.13 364.163 C 1681.6 365.441 1672.83 365.17 1667.9 365.226 C 1646.84 365.468 1628.68 373.944 1613.78 388.628 C 1608.02 394.246 1601.23 406.842 1596.19 413.433 C 1595.88 413.83 1593.19 414.012 1592.44 413.995 C 1592.35 413.691 1592.26 413.387 1592.17 413.084 C 1586.78 405.253 1593.68 403.152 1593.47 394.089 z"/>
<path transform="translate(0,0)" fill="rgb(253,247,214)" d="M 1622.87 374.692 C 1627.12 371.911 1631.6 369.491 1636.26 367.457 C 1645.02 363.69 1682.04 352.401 1686.13 364.163 C 1681.6 365.441 1672.83 365.17 1667.9 365.226 C 1646.84 365.468 1628.68 373.944 1613.78 388.628 C 1608.02 394.246 1601.23 406.842 1596.19 413.433 C 1595.88 413.83 1593.19 414.012 1592.44 413.995 C 1594.79 399.303 1611.74 383.388 1622.87 374.692 z"/>
<path transform="translate(0,0)" fill="rgb(251,233,72)" d="M 1622.87 374.692 C 1634.9 353.742 1669.52 353.26 1690.76 356.571 L 1688.09 357.821 C 1687.49 359.949 1686.83 362.064 1686.13 364.163 C 1682.04 352.401 1645.02 363.69 1636.26 367.457 C 1631.6 369.491 1627.12 371.911 1622.87 374.692 z"/>
<path transform="translate(0,0)" fill="rgb(253,247,214)" d="M 1665.88 371.443 C 1708.49 366.709 1746.89 397.343 1751.75 439.938 C 1756.61 482.532 1726.08 521.025 1683.5 526.003 C 1640.75 531.002 1602.06 500.327 1597.19 457.559 C 1592.31 414.792 1623.1 376.196 1665.88 371.443 z"/>
<path transform="translate(0,0)" fill="url(#Gradient3)" d="M 1666.19 394.08 C 1686.78 392.726 1675.67 397.318 1681.58 405.534 C 1683.06 407.591 1696.3 404.93 1701.8 410.531 C 1703.1 415.399 1701.64 419.636 1699.41 424.007 C 1693.53 427.445 1669.48 417.482 1663.06 428.231 C 1662.85 438.654 1679.8 441.701 1687.77 443.806 C 1706.41 448.729 1714.9 460.73 1708.33 479.843 C 1704.98 489.566 1692.95 493.967 1683.77 497.247 C 1684.02 501.524 1684.72 505.154 1683.11 508.997 C 1680.5 511.734 1678.42 511.526 1674.6 512.036 C 1672.22 511.213 1672.35 511.205 1670.37 509.608 C 1668.42 506.211 1668.87 502.458 1668.85 498.459 C 1658.41 497.875 1633.32 497.601 1644.24 480.475 C 1649.64 472.012 1679.83 489.197 1686.55 474.202 C 1689.97 468.763 1679.51 463.083 1675.03 462.299 C 1638.17 455.853 1621.2 423.22 1665.2 406.877 C 1665.05 401.676 1664.63 399.082 1666.19 394.08 z"/>
<path transform="translate(0,0)" fill="url(#Gradient2)" d="M 302.106 1633.46 C 312.961 1638.37 329.364 1642.85 336.161 1646.17 C 333.122 1650.35 330.351 1660.47 328.659 1665.88 C 337.192 1687.85 319.192 1750.16 304.771 1767.24 C 295.94 1775.15 290.152 1774.66 278.92 1773.9 C 265.655 1770.91 258.066 1768.19 257.544 1753.6 C 257.585 1730.2 276.249 1671.31 295.724 1658.07 C 298.073 1651.26 300.333 1640.7 302.106 1633.46 z"/>
<path transform="translate(0,0)" fill="rgb(248,168,113)" d="M 302.106 1633.46 C 312.961 1638.37 329.364 1642.85 336.161 1646.17 C 333.122 1650.35 330.351 1660.47 328.659 1665.88 C 320.391 1681.74 296.497 1673.58 295.724 1658.07 C 298.073 1651.26 300.333 1640.7 302.106 1633.46 z"/>
<path transform="translate(0,0)" fill="rgb(64,90,242)" d="M 279.831 1766.73 C 285.387 1767.09 302.777 1766.32 304.771 1767.24 C 295.94 1775.15 290.152 1774.66 278.92 1773.9 L 279.831 1766.73 z"/>
<path transform="translate(0,0)" fill="rgb(90,180,242)" d="M 257.544 1753.6 C 265.288 1763.73 267.182 1764.79 279.831 1766.73 L 278.92 1773.9 C 265.655 1770.91 258.066 1768.19 257.544 1753.6 z"/>
<path transform="translate(0,0)" fill="url(#Gradient1)" d="M 504.856 1660.28 C 520.302 1661.91 524.168 1661.86 539.453 1659.42 C 538.356 1665.87 537.277 1673.27 535.922 1679.6 C 562.392 1687.98 576.754 1693.6 601.795 1706.67 C 605.282 1709.7 616.957 1718.99 620.833 1721.19 L 621.035 1722.97 C 622.945 1725.68 623.789 1726.4 624.099 1729.72 C 620.023 1737.98 592.531 1735.59 583.585 1735.8 C 557.566 1736.52 530.549 1735.82 504.535 1734.86 C 498.607 1734.64 494.622 1734.75 492.722 1729 C 489.715 1715.41 498.278 1692.19 505.88 1680.88 C 505.954 1675.73 505.1 1665.87 504.856 1660.28 z"/>
<path transform="translate(0,0)" fill="rgb(74,147,249)" d="M 576.846 1726.88 C 586.021 1725 609.577 1724.55 621.035 1722.97 C 622.945 1725.68 623.789 1726.4 624.099 1729.72 C 620.023 1737.98 592.531 1735.59 583.585 1735.8 C 557.566 1736.52 530.549 1735.82 504.535 1734.86 C 498.607 1734.64 494.622 1734.75 492.722 1729 L 494.026 1727.45 C 497.798 1726.97 507.182 1729.49 512.402 1729.58 C 533.824 1729.95 555.472 1727.94 576.846 1726.88 z"/>
<path transform="translate(0,0)" fill="rgb(64,90,242)" d="M 576.846 1726.88 C 586.021 1725 609.577 1724.55 621.035 1722.97 C 622.945 1725.68 623.789 1726.4 624.099 1729.72 C 620.023 1737.98 592.531 1735.59 583.585 1735.8 C 589.302 1732.92 596.468 1733.43 603.182 1733.14 C 602.763 1730.39 603.037 1730.07 601.752 1727.86 C 596.039 1726.66 584.955 1727.67 576.846 1726.88 z"/>
<path transform="translate(0,0)" fill="rgb(248,168,113)" d="M 504.856 1660.28 C 520.302 1661.91 524.168 1661.86 539.453 1659.42 C 538.356 1665.87 537.277 1673.27 535.922 1679.6 C 531.387 1693.4 509.883 1695.26 505.88 1680.88 C 505.954 1675.73 505.1 1665.87 504.856 1660.28 z"/>
<path transform="translate(0,0)" fill="rgb(244,201,247)" d="M 297.016 641.267 C 303.437 643.602 303.393 661.082 302.742 667.027 C 295.838 663.62 296.026 648.015 297.016 641.267 z"/>
<path transform="translate(0,0)" fill="rgb(244,201,247)" d="M 307.362 591.269 L 309.948 592.148 C 311.408 596.275 305.06 609.651 303.056 614.524 C 296.685 611.893 305.05 596.32 307.362 591.269 z"/>
<path transform="translate(0,0)" fill="rgb(244,201,247)" d="M 341.364 550.734 C 342.89 552.002 342.349 551.486 343.26 553.441 C 341.334 557.591 331.024 565.264 326.916 568.63 L 325.427 567.664 L 325.506 565.437 C 329.81 559.141 335.304 555.211 341.364 550.734 z"/>
<path transform="translate(0,0)" fill="rgb(244,201,247)" fill-opacity="0.988235" d="M 386.466 532.283 C 387.348 532.203 388.611 532.393 389.546 532.48 L 389.183 533.823 C 383.112 536.521 378.652 537.52 372.233 539.176 L 369.325 539.036 L 368.254 537.806 C 370.932 534.002 381.909 532.952 386.466 532.283 z"/>
<path transform="translate(0,0)" fill="rgb(244,201,247)" d="M 372.21 395.359 L 374.151 396.941 C 374.948 402.576 373.914 409.125 373.033 414.759 C 371.737 414.142 371.583 413.851 370.455 412.92 C 369.218 406.271 370.551 401.946 372.21 395.359 z"/>
<path transform="translate(0,0)" fill="rgb(244,201,247)" fill-opacity="0.988235" d="M 384.109 355.521 C 387.606 358.57 381.691 370.055 380.074 374.014 L 378.312 371.874 C 378.872 364.994 380.863 361.691 384.109 355.521 z"/>
<path transform="translate(0,0)" fill="rgb(244,201,247)" fill-opacity="0.984314" d="M 371.017 436.462 C 375.623 440.7 375.008 448.879 375.487 455.728 L 373.406 454.159 C 370.82 448.307 371.075 442.774 371.017 436.462 z"/>
<path transform="translate(0,0)" fill="rgb(244,201,247)" fill-opacity="0.92549" d="M 433.177 289.703 C 433.61 290.075 434.043 290.447 434.476 290.818 C 432.678 294.344 425.981 299.693 422.718 302.599 L 421.661 302.466 L 421.423 300.704 C 424.519 296.284 428.946 293.162 433.177 289.703 z"/>
<path transform="translate(0,0)" fill="rgb(232,154,231)" fill-opacity="0.92549" d="M 379.327 477.808 L 381.84 478.671 C 384.415 483.371 387.012 490.305 387.938 495.594 C 383.962 493.103 380.541 482.425 379.327 477.808 z"/>
<path transform="translate(0,0)" fill="rgb(232,154,231)" fill-opacity="0.85098" d="M 404.422 319.675 C 405.488 320.675 404.965 319.974 405.454 322.089 C 402.942 327.673 400.341 330.483 396.552 335.181 L 395.606 333.627 C 397.384 328.795 401.338 323.966 404.422 319.675 z"/>
<path transform="translate(0,0)" fill="rgb(232,154,231)" fill-opacity="0.866667" d="M 467.498 267.973 C 468.044 268.073 468.43 268.579 468.87 268.918 C 466.532 271.715 459.091 275 455.39 276.93 L 454.221 276.74 L 454.227 275.301 C 457.905 272.214 463.079 270.097 467.498 267.973 z"/>
<path transform="translate(0,0)" fill="rgb(232,154,231)" fill-opacity="0.898039" d="M 502.709 255.178 C 504.873 254.797 505.129 254.952 507.364 255.036 C 505.363 257.007 500.644 258.265 497.708 259.338 C 495.035 259.685 494.837 260.005 492.455 258.953 C 495.148 256.983 499.363 256.121 502.709 255.178 z"/>
</svg>