<svg version="1.1" xmlns="http://www.w3.org/2000/svg" style="display: block;" viewBox="0 0 2048 1365" width="2000" height="1333" preserveAspectRatio="none">
<path transform="translate(0,0)" fill="rgb(29,23,54)" d="M 430.049 405.384 C 440.454 361.013 459.463 319.115 485.998 282.063 C 548.846 193.048 638.359 148.651 746.219 155.488 C 824.115 160.426 878.522 180.093 942.001 225.149 C 935.922 264.99 925.144 313.534 917.404 353.644 C 928 362.981 931.825 368.172 935.957 381.946 C 950.1 386.64 960.205 392.507 967.246 406.449 C 972.708 417.449 973.601 430.163 969.731 441.819 C 957.972 477.382 922.948 471.629 894.229 472.228 L 889.079 500.016 L 1018.94 583.145 L 913.561 870.43 L 1008.82 929.319 C 1023.45 938.34 1044.23 950.278 1058.03 959.783 C 1056.05 1024.22 1051.5 1089.43 1049.32 1153.92 C 1048.44 1179.95 1045.63 1211.4 1045.9 1236.95 C 1061.49 1159.5 1080.39 1079.53 1097.46 1002.12 L 1109.94 945.071 C 1111.01 940.161 1114.94 920.808 1116.7 917.123 C 1113.22 912.451 1011.68 848.544 998.799 840.08 C 1003.24 828.922 1010.56 814.63 1015.83 803.593 L 1047.09 737.865 C 1071.59 686.113 1097.55 628.236 1123.5 577.74 C 1124.74 573.474 1132.22 558.86 1134.75 554.837 L 1061.22 495.835 L 1158.99 218.11 C 1227.24 167.443 1324.9 147.222 1408.42 157.633 C 1485.58 167.25 1549.53 211.301 1596.6 271.608 C 1611.03 269.568 1624.53 267.926 1639.01 270.994 C 1678.39 279.342 1703.22 306.51 1712.9 344.601 C 1741.5 353.16 1762.2 365.185 1777.04 392.815 C 1788.71 414.917 1791.18 440.736 1783.91 464.651 C 1776.51 488.496 1759.86 508.379 1737.68 519.851 C 1708.22 535.199 1693.49 527.97 1666.36 530.867 C 1662.95 600.506 1622.14 704.416 1584.39 764.068 C 1581.43 769.923 1575.02 780.438 1571.13 785.92 L 1567.49 791.162 C 1562.7 800.483 1548.9 819.744 1542.13 828.885 C 1505.09 878.941 1458.88 933.748 1413.16 976.116 C 1392.73 997.594 1366.86 1019.57 1344.52 1039.22 C 1338.68 1044.36 1321.11 1059.28 1315.18 1062.99 C 1311.91 1066.36 1309.48 1068.3 1305.82 1071.25 C 1274.42 1097.34 1238.46 1123.5 1205.18 1147.04 C 1192.74 1155.83 1165.42 1174.92 1152.36 1181.94 C 1144.29 1191.27 1060.53 1238.44 1045.24 1246.98 C 994.707 1219.75 928.835 1178.41 882.41 1144.68 C 841.25 1116.93 794.831 1079.77 756.85 1048.11 C 725.652 1022.01 689.146 989.416 660.964 959.792 C 571.694 871.312 470.527 736.668 439.981 612.483 C 450.862 613.204 478.748 613.36 490.646 613.237 C 518.595 612.948 570.766 617.572 595.477 611.569 C 591.314 601.392 590.642 593.882 587.902 583.792 C 580.688 572.846 593.892 557.344 596.072 547.221 C 598.45 536.173 589.975 528.696 602.081 519.596 L 602.168 517.282 C 585.815 519.085 584.029 505.831 586.106 493.327 C 589.322 473.958 598.42 459.759 609.089 444.061 C 603.393 443.114 597.468 441.493 591.841 440.076 C 582.064 398.709 556.739 375.882 515.479 367.709 C 473.505 365.005 456.934 376.962 430.049 405.384 z M 864.295 421.257 L 877.72 421.049 C 872.403 430.144 867.266 439.344 862.313 448.642 L 862.601 450.093 C 866.056 447.077 882.141 426.52 883.647 422.332 C 882.618 417.257 877.525 418.211 877.923 414.382 C 878.605 407.814 892.134 386.029 891.687 380.86 C 882.489 394.279 873.358 407.745 864.295 421.257 z"/>
<path transform="translate(0,0)" fill="rgb(211,199,242)" d="M 834.618 556.689 C 851.992 560.443 880.054 590.686 889.275 606.073 C 929.23 672.755 921.75 753.942 896.293 824.565 C 881.16 866.548 862.05 917.044 865.926 962.65 C 866.887 973.951 885.477 1023.55 879.855 1030.37 L 878.124 1031.35 C 888.407 1075.16 895.151 1098.66 882.41 1144.68 C 841.25 1116.93 794.831 1079.77 756.85 1048.11 C 725.652 1022.01 689.146 989.416 660.964 959.792 C 571.694 871.312 470.527 736.668 439.981 612.483 C 450.862 613.204 478.748 613.36 490.646 613.237 C 518.595 612.948 570.766 617.572 595.477 611.569 C 591.314 601.392 590.642 593.882 587.902 583.792 C 601.504 582.543 622.235 576.071 630.415 564.453 C 638.372 570.19 641.003 591.014 646.651 602.62 L 647.056 603.466 C 653.814 604.61 657.561 600.73 663.358 596.755 C 674.975 611.527 690.9 610.533 693.272 614.154 C 707.087 635.245 718.835 633.595 731.641 599.866 C 735.934 602.085 742.266 605.612 746.633 607.152 C 770.317 586.604 803.286 562.571 834.618 556.689 z"/>
<path transform="translate(0,0)" fill="rgb(29,23,54)" d="M 439.981 612.483 C 450.862 613.204 478.748 613.36 490.646 613.237 C 518.595 612.948 570.766 617.572 595.477 611.569 C 596.811 613.625 600.093 618.688 600.424 620.875 C 606.276 659.497 600.787 706.461 602.432 745.271 C 603.45 766.308 606.18 787.228 610.594 807.822 C 613.623 822.504 615.729 839.787 630.911 845.709 C 629.399 870.121 632.611 886.747 661.706 883.084 C 659.256 910.571 659.502 932.293 660.964 959.792 C 571.694 871.312 470.527 736.668 439.981 612.483 z"/>
<path transform="translate(0,0)" fill="rgb(236,124,64)" d="M 630.415 564.453 C 638.372 570.19 641.003 591.014 646.651 602.62 L 647.056 603.466 C 653.814 604.61 657.561 600.73 663.358 596.755 C 674.975 611.527 690.9 610.533 693.272 614.154 C 707.087 635.245 718.835 633.595 731.641 599.866 C 735.934 602.085 742.266 605.612 746.633 607.152 C 710.184 642.821 704.951 659.802 686.619 704.962 C 682.259 722.273 678.136 737.394 674.74 754.981 C 671.821 763.086 666.02 771.351 660.883 778.324 C 642.688 803.022 636.164 815.313 630.911 845.709 C 615.729 839.787 613.623 822.504 610.594 807.822 C 606.18 787.228 603.45 766.308 602.432 745.271 C 600.787 706.461 606.276 659.497 600.424 620.875 C 600.093 618.688 596.811 613.625 595.477 611.569 C 591.314 601.392 590.642 593.882 587.902 583.792 C 601.504 582.543 622.235 576.071 630.415 564.453 z"/>
<path transform="translate(0,0)" fill="rgb(29,23,54)" d="M 647.056 603.466 C 653.814 604.61 657.561 600.73 663.358 596.755 C 674.975 611.527 690.9 610.533 693.272 614.154 C 707.087 635.245 718.835 633.595 731.641 599.866 C 735.934 602.085 742.266 605.612 746.633 607.152 C 710.184 642.821 704.951 659.802 686.619 704.962 C 679.416 716.617 674.674 728.361 666.757 739.657 C 658.662 717.404 644.808 695.699 640.951 672.442 C 637.763 653.219 635.901 619.799 647.056 603.466 z"/>
<path transform="translate(0,0)" fill="rgb(247,148,86)" d="M 687.252 731.669 C 710.425 760.626 735.575 770.768 770.476 779.631 C 744.511 818.714 712.435 872.748 663.609 882.707 C 662.976 882.837 662.341 882.962 661.706 883.084 C 632.611 886.747 629.399 870.121 630.911 845.709 C 636.164 815.313 642.688 803.022 660.883 778.324 C 666.02 771.351 671.821 763.086 674.74 754.981 C 680.766 749.018 684.106 739.546 687.252 731.669 z"/>
<path transform="translate(0,0)" fill="rgb(83,71,124)" d="M 756.85 1048.11 C 784.83 1048.17 811.112 1048.25 838.766 1042.57 C 849.913 1040.27 868.476 1032.64 878.124 1031.35 C 888.407 1075.16 895.151 1098.66 882.41 1144.68 C 841.25 1116.93 794.831 1079.77 756.85 1048.11 z"/>
<path transform="translate(0,0)" fill="rgb(29,23,54)" d="M 828.596 709.808 C 829.962 721.006 785.833 764.856 776.294 775.083 C 775.417 764.645 820.024 720.987 828.596 709.808 z"/>
<path transform="translate(0,0)" fill="rgb(247,148,86)" d="M 1326.43 537.863 C 1328.17 543.325 1330.13 550.407 1332.82 555.311 L 1333.84 555.784 C 1337.14 551.278 1338.5 547.341 1343.87 546.482 C 1346.01 546.14 1351.97 546.415 1353.11 544.057 C 1363.76 522.138 1375.76 539.418 1380.14 551.062 C 1392.38 532.471 1400.12 553.714 1404.24 564.405 C 1416.72 596.826 1423.57 628.848 1430.14 662.722 L 1431.07 663.24 C 1434.22 659.471 1441.16 650.553 1445.61 650.641 C 1459.9 650.923 1452.26 675.364 1452.26 683.686 C 1452.25 693.632 1453.14 699.984 1452.65 709.566 C 1451.02 720.495 1445.27 733.67 1442.09 744.651 C 1439.53 753.459 1437.13 768.825 1433.25 776.23 C 1424.88 792.16 1412.15 807.464 1404.13 823.808 C 1401.86 828.442 1398.31 838.6 1398 843.606 C 1395.75 880.968 1403.65 939.313 1413.16 976.116 C 1392.73 997.594 1366.86 1019.57 1344.52 1039.22 C 1338.68 1044.36 1321.11 1059.28 1315.18 1062.99 C 1311.91 1066.36 1309.48 1068.3 1305.82 1071.25 C 1274.42 1097.34 1238.46 1123.5 1205.18 1147.04 C 1192.74 1155.83 1165.42 1174.92 1152.36 1181.94 C 1153.25 1174.39 1157.6 1157.27 1159.55 1149.39 C 1165.58 1124.73 1172.35 1100.26 1179.84 1076.01 C 1197.78 1016.69 1214.62 960.5 1220.76 898.497 C 1222.23 883.689 1224.5 857.423 1222.67 842.816 C 1219.91 820.716 1198.21 796.732 1187.92 777.243 C 1182.04 766.124 1181.03 751.908 1177.36 739.631 C 1174.89 730.036 1169.1 722.328 1168.66 712.1 C 1167.89 694.403 1167.6 676.43 1166.72 658.698 C 1166.4 652.355 1171.52 651.084 1176.75 650.529 C 1183.55 637.295 1188.17 630.536 1198.4 620.211 C 1204.69 600.789 1210.52 580.93 1217.56 561.867 C 1221.92 550.052 1228.53 534.35 1240.57 550.797 C 1243.32 544.055 1245.77 537.655 1252.81 534.632 C 1260.55 531.307 1265.86 538.198 1267.98 544.42 C 1279.36 553.625 1283.55 536.561 1288.57 568.008 C 1304.85 559.983 1314.91 552.211 1326.43 537.863 z"/>
<path transform="translate(0,0)" fill="rgb(29,23,54)" d="M 1309.04 920.029 L 1310.96 910.411 C 1313.6 946.806 1311.85 986.193 1313.41 1022.81 C 1313.89 1034.19 1313.67 1051.99 1315.18 1062.99 C 1311.91 1066.36 1309.48 1068.3 1305.82 1071.25 L 1309.04 920.029 z"/>
<path transform="translate(0,0)" fill="rgb(236,124,64)" d="M 1198.4 620.211 C 1196.89 632.596 1191.56 652.387 1190.82 662.269 C 1189.3 681.676 1183.62 698.024 1182.09 717.547 C 1178.94 693.791 1182.05 685.529 1189.69 663.101 C 1184.23 657.045 1183.51 655.402 1176.75 650.529 C 1183.55 637.295 1188.17 630.536 1198.4 620.211 z"/>
<path transform="translate(0,0)" fill="rgb(236,124,64)" d="M 1430.14 662.722 L 1431.07 663.24 C 1437.52 686.721 1441.87 688.258 1439.17 716.13 C 1436.7 701.061 1430.18 676.519 1430.14 662.722 z"/>
<path transform="translate(0,0)" fill="rgb(107,60,42)" d="M 1310.55 897.734 C 1310.94 902.416 1311 905.703 1310.96 910.411 L 1309.04 920.029 C 1308.87 911.235 1309.42 906.37 1310.55 897.734 z"/>
<path transform="translate(0,0)" fill="rgb(236,124,64)" d="M 1383.7 561.697 C 1389.91 567.967 1399.73 601.822 1402.61 611.159 C 1408.98 631.789 1410.64 654.602 1409.49 676.091 C 1408.03 674.596 1407.76 668.378 1407.53 666.095 C 1403.98 630.819 1392.73 595.932 1383.7 561.697 z"/>
<path transform="translate(0,0)" fill="rgb(236,124,64)" d="M 1335.34 594.763 C 1338.61 598.786 1345.29 646.374 1345.7 654.489 C 1346.08 662.027 1345.97 673.207 1345.53 681.114 C 1341.27 676.503 1334.8 603.703 1335.34 594.763 z"/>
<path transform="translate(0,0)" fill="rgb(236,124,64)" d="M 1284.78 595.876 C 1288.22 611.915 1277.85 661.428 1276.38 681.457 C 1270.28 666.847 1280.08 612.22 1284.78 595.876 z"/>
<path transform="translate(0,0)" fill="rgb(236,124,64)" d="M 1260.27 574.652 C 1261.97 579.177 1247.63 624.865 1245.15 635.009 C 1241.32 650.656 1244.43 663.076 1242.83 677.105 L 1241.53 676.508 C 1237.76 642.844 1251.27 606.996 1260.27 574.652 z"/>
<path transform="translate(0,0)" fill="rgb(119,99,165)" d="M 1158.99 218.11 C 1227.24 167.443 1324.9 147.222 1408.42 157.633 C 1485.58 167.25 1549.53 211.301 1596.6 271.608 C 1570.28 280.777 1552.58 292.103 1538.03 316.972 C 1517.81 306.972 1504.29 305.167 1482.07 311.939 C 1451 327.858 1439.91 348.069 1442.37 382.791 C 1423.43 382.778 1418.68 384.025 1401.08 391.098 C 1398.39 391.761 1396.66 391.435 1395.64 394.16 C 1385.83 401.421 1378.06 409.589 1372.23 420.451 C 1370.52 423.624 1363.59 445.043 1361.45 445.922 C 1359.43 446.752 1354.6 446.283 1352.31 446.287 C 1349.07 444.563 1339.27 438.333 1336.83 437.799 C 1266.3 422.327 1193.89 469.666 1153.42 524.601 C 1145.91 534.794 1141.15 545.043 1134.75 554.837 L 1061.22 495.835 L 1158.99 218.11 z"/>
<path transform="translate(0,0)" fill="rgb(29,23,54)" d="M 1319.36 249.894 C 1327.28 236.228 1339.99 225.988 1355.03 221.157 C 1371.14 216.132 1388.59 217.837 1403.43 225.883 C 1421.59 235.739 1429.53 249.483 1435.15 268.398 C 1458.96 274.295 1474.53 288.541 1482.07 311.939 C 1451 327.858 1439.91 348.069 1442.37 382.791 C 1423.43 382.778 1418.68 384.025 1401.08 391.098 C 1355.6 390.454 1309.92 391.47 1264.42 391.083 C 1256.53 391.015 1249.32 391.223 1241.51 389.657 C 1220.2 385.386 1205.14 366.901 1203.7 345.449 C 1202.78 332.124 1207.35 319.002 1216.33 309.124 C 1227.53 296.625 1240.4 294.005 1256.13 293.058 C 1255.7 283.389 1255.89 276.527 1260.2 267.517 C 1264.92 257.596 1273.41 249.97 1283.77 246.331 C 1296.93 241.756 1307.3 244.14 1319.36 249.894 z"/>
<path transform="translate(0,0)" fill="rgb(254,253,253)" d="M 1374.48 267.901 C 1374.81 272.269 1358.16 306.386 1355.13 312.841 L 1372.91 312.849 C 1358.93 330.479 1345.54 349.164 1331.46 367.002 C 1331.95 362.122 1351.87 328.231 1355.54 321.801 L 1337.73 321.805 C 1349.81 303.717 1362.06 285.748 1374.48 267.901 z"/>
<path transform="translate(0,0)" fill="rgb(137,128,185)" d="M 1315.59 290.804 C 1316.59 295.642 1308.62 306.03 1307.03 313.068 C 1309.32 316.268 1311.9 313.077 1315.21 315.64 C 1312.67 320.755 1299.33 337.207 1295.11 342.625 L 1294.38 341.895 C 1297.42 334.541 1302.27 329.161 1305.05 321.361 C 1303.64 318.841 1301.73 320.809 1297.23 319.312 C 1298.39 314.294 1311.72 296.29 1315.59 290.804 z"/>
<path transform="translate(0,0)" fill="rgb(137,128,185)" d="M 1414.63 290.833 C 1415.75 296.134 1405 309.211 1406.86 314.357 C 1410 314.296 1411.66 313.965 1414.4 315.367 C 1411.13 321.315 1398.62 336.746 1394.15 342.462 L 1393.74 342.261 C 1393.49 338.511 1402.39 327.23 1403.97 320.695 L 1403.07 319.789 C 1400.14 320.077 1398.88 320.459 1396.18 319.521 C 1396.32 316.176 1411.54 295.251 1414.63 290.833 z"/>
<path transform="translate(0,0)" fill="rgb(29,23,54)" d="M 430.049 405.384 C 440.454 361.013 459.463 319.115 485.998 282.063 C 548.846 193.048 638.359 148.651 746.219 155.488 C 824.115 160.426 878.522 180.093 942.001 225.149 C 935.922 264.99 925.144 313.534 917.404 353.644 C 892.4 338.633 867.004 343.901 850.747 368.288 C 832.355 360.652 821.621 363.638 808.211 378.193 C 806.019 408.115 793.579 427.83 765.435 439.679 C 758.845 442.216 752.836 442.907 745.943 443.823 C 727.654 421.411 715.785 411.795 686.636 411.028 C 670.612 410.607 666.042 408.628 649.821 413.408 L 648.657 414.253 C 639.946 419.078 632.647 423.03 624.753 429.311 C 620.593 432.62 612.478 441.721 609.089 444.061 C 603.393 443.114 597.468 441.493 591.841 440.076 C 582.064 398.709 556.739 375.882 515.479 367.709 C 473.505 365.005 456.934 376.962 430.049 405.384 z"/>
<path transform="translate(0,0)" fill="rgb(119,99,165)" d="M 632.726 293.685 C 643.933 277.016 657.216 265.621 677.601 261.649 C 694.99 258.183 713.043 261.798 727.756 271.693 C 742.696 281.905 751.143 296.052 755.654 313.276 C 788.19 323.316 806.675 343.171 808.211 378.193 C 806.019 408.115 793.579 427.83 765.435 439.679 C 758.845 442.216 752.836 442.907 745.943 443.823 C 727.654 421.411 715.785 411.795 686.636 411.028 C 670.612 410.607 666.042 408.628 649.821 413.408 L 648.657 414.253 C 639.946 419.078 632.647 423.03 624.753 429.311 C 620.593 432.62 612.478 441.721 609.089 444.061 C 603.393 443.114 597.468 441.493 591.841 440.076 C 582.064 398.709 556.739 375.882 515.479 367.709 C 527.398 348.187 542.895 339.712 565.774 339.978 C 564.744 325.678 566.412 313.924 576.327 302.665 C 584.141 293.773 595.226 288.43 607.048 287.857 C 617.044 287.352 623.83 289.547 632.726 293.685 z"/>
<path transform="translate(0,0)" fill="rgb(254,253,253)" d="M 652.522 370.047 C 665.465 350.684 679.865 328.589 693.527 309.97 C 687.218 325.886 678.041 344.941 670.886 360.676 L 689.332 360.725 C 677.382 378.159 662.043 395.616 649.821 413.408 L 648.657 414.253 C 648.323 413.938 648.125 413.11 647.936 412.583 C 653.984 399.907 664.172 382.652 671.197 370.038 L 652.522 370.047 z"/>
<path transform="translate(0,0)" fill="rgb(29,23,54)" d="M 629.713 335.888 C 630.094 339.024 621.207 356.498 619.349 361.12 C 621.456 363.933 623.771 361.311 628.516 363.365 C 624.218 371.119 611.963 385.889 606.121 393.4 L 605.431 392.642 C 608.162 387.696 616.261 373.745 617.533 369.138 C 615.369 365.972 613.321 370.069 609.203 367.562 C 609.616 364.006 626.457 340.578 629.713 335.888 z"/>
<path transform="translate(0,0)" fill="rgb(29,23,54)" d="M 734.92 335.91 C 734.606 340.1 726.58 356.495 724.346 361.26 C 726.549 364.037 730.061 361.058 733.622 363.458 C 728.172 372.341 718.723 383.731 712.09 392.192 L 711.268 391.623 C 714.83 383.741 720.148 376.764 722.915 369.479 L 722.093 368.259 C 719.248 368.167 717.375 368.073 714.557 367.709 C 714.313 363.583 731.519 340.715 734.92 335.91 z"/>
<path transform="translate(0,0)" fill="rgb(83,71,124)" d="M 1596.6 271.608 C 1611.03 269.568 1624.53 267.926 1639.01 270.994 C 1678.39 279.342 1703.22 306.51 1712.9 344.601 C 1741.5 353.16 1762.2 365.185 1777.04 392.815 C 1788.71 414.917 1791.18 440.736 1783.91 464.651 C 1776.51 488.496 1759.86 508.379 1737.68 519.851 C 1708.22 535.199 1693.49 527.97 1666.36 530.867 L 1556.18 530.59 C 1549.68 538.934 1542.74 548.251 1536.06 556.345 C 1540.17 548.162 1544.44 540.065 1548.88 532.059 C 1544.46 529.415 1487.3 530.854 1477.19 530.984 C 1473.59 523.641 1469.45 516.571 1464.82 509.831 C 1445.88 482.249 1411.9 456.061 1379.12 447.602 C 1371.69 445.683 1360.84 448.19 1352.31 446.287 C 1354.6 446.283 1359.43 446.752 1361.45 445.922 C 1363.59 445.043 1370.52 423.624 1372.23 420.451 C 1378.06 409.589 1385.83 401.421 1395.64 394.16 C 1396.66 391.435 1398.39 391.761 1401.08 391.098 C 1418.68 384.025 1423.43 382.778 1442.37 382.791 C 1439.91 348.069 1451 327.858 1482.07 311.939 C 1504.29 305.167 1517.81 306.972 1538.03 316.972 C 1552.58 292.103 1570.28 280.777 1596.6 271.608 z"/>
<path transform="translate(0,0)" fill="rgb(29,23,54)" d="M 1554.27 459.161 L 1603.21 386.544 C 1612.13 373.327 1622.72 356.81 1632.35 344.481 C 1620.15 375.158 1602.21 410.767 1588.54 441.77 L 1623.27 441.734 C 1605.51 468.053 1575.9 504.104 1556.18 530.59 C 1549.68 538.934 1542.74 548.251 1536.06 556.345 C 1540.17 548.162 1544.44 540.065 1548.88 532.059 C 1550.46 529.971 1559.64 513.087 1561.28 510.126 L 1589.2 459.338 L 1554.27 459.161 z"/>
<path transform="translate(0,0)" fill="rgb(254,253,253)" d="M 1527.59 391.801 C 1528.29 395.596 1507.97 437.892 1504.71 445.138 L 1525.37 445.116 C 1509.24 466.515 1492.99 487.814 1476.6 509.01 C 1476.16 505.72 1501.61 461.699 1504.9 455.806 L 1484.37 455.767 C 1497.69 434.896 1513.59 412.472 1527.59 391.801 z"/>
<path transform="translate(0,0)" fill="rgb(254,253,253)" d="M 1697.59 390.953 C 1697.81 394.612 1677.07 438.049 1673.98 445.157 L 1694.71 445.154 C 1678.75 464.731 1660.61 489.793 1645.13 510.074 C 1645.24 506.332 1670.19 462.854 1674.09 455.749 L 1653.5 455.816 C 1668.03 434.081 1682.73 412.459 1697.59 390.953 z"/>
<path transform="translate(0,0)" fill="rgb(119,99,165)" d="M 1556.18 530.59 L 1666.36 530.867 C 1662.95 600.506 1622.14 704.416 1584.39 764.068 C 1582.85 761.544 1577.9 745.195 1576.68 741.554 C 1573.71 732.686 1569.96 724.097 1565.48 715.886 C 1547.93 683.753 1517.14 650.172 1503.79 614.77 C 1492.63 585.197 1490.68 561.674 1477.19 530.984 C 1487.3 530.854 1544.46 529.415 1548.88 532.059 C 1544.44 540.065 1540.17 548.162 1536.06 556.345 C 1542.74 548.251 1549.68 538.934 1556.18 530.59 z"/>
<path transform="translate(0,0)" fill="rgb(83,71,124)" d="M 850.747 368.288 C 867.004 343.901 892.4 338.633 917.404 353.644 C 928 362.981 931.825 368.172 935.957 381.946 C 950.1 386.64 960.205 392.507 967.246 406.449 C 972.708 417.449 973.601 430.163 969.731 441.819 C 957.972 477.382 922.948 471.629 894.229 472.228 L 830.708 472.297 C 801.318 472.387 772.236 476.72 765.435 439.679 C 793.579 427.83 806.019 408.115 808.211 378.193 C 821.621 363.638 832.355 360.652 850.747 368.288 z M 864.295 421.257 L 877.72 421.049 C 872.403 430.144 867.266 439.344 862.313 448.642 L 862.601 450.093 C 866.056 447.077 882.141 426.52 883.647 422.332 C 882.618 417.257 877.525 418.211 877.923 414.382 C 878.605 407.814 892.134 386.029 891.687 380.86 C 882.489 394.279 873.358 407.745 864.295 421.257 z"/>
<path transform="translate(0,0)" fill="rgb(29,23,54)" d="M 919.357 400.91 C 919.857 403.717 916.15 410.858 914.805 414.021 C 915.7 417.992 917.367 414.222 919.753 416.782 C 917.432 421.687 908.642 432.784 904.946 437.679 C 906.638 431.173 912.208 426.262 912.274 420.535 L 909.159 419.363 C 908.427 414.117 915.954 405.558 919.357 400.91 z"/>
<path transform="translate(0,0)" fill="rgb(29,23,54)" d="M 844.325 404.027 L 845.392 406.216 C 839.185 418.645 844.546 411.732 847.026 417.615 C 845.142 421.517 835.164 433.428 831.851 437.541 C 834.842 431.947 837.464 427.415 839.471 421.345 C 837.299 416.137 838.326 422.027 835.51 417.856 C 836.939 413.532 841.502 407.92 844.325 404.027 z"/>
<path transform="translate(0,0)" fill="rgb(53,44,89)" d="M 844.325 404.027 C 845.926 400.727 846.045 399.164 848.773 397.22 C 848.987 400.581 847.08 403.12 845.392 406.216 L 844.325 404.027 z"/>
<path transform="translate(0,0)" fill="rgb(210,101,48)" d="M 602.168 517.282 L 603.042 516.431 C 610.127 509.431 610.82 500.488 615.915 496.531 C 627.455 497.733 628.428 516.345 642.423 516.8 C 650.841 517.074 657.986 513.266 666.213 514.415 C 678.152 515.812 688.169 530.893 698.762 524.806 C 699.845 523.117 701.557 520.677 700.612 518.586 C 695.258 506.744 668.944 481.544 695.201 474.657 C 707.964 471.309 716.177 488.5 718.988 497.686 C 731.388 507.748 745.955 513.659 762.088 512.131 C 766.164 511.745 770.311 504.173 772.752 506.958 C 791.155 527.947 811.636 541.062 834.618 556.689 C 803.286 562.571 770.317 586.604 746.633 607.152 C 742.266 605.612 735.934 602.085 731.641 599.866 C 718.835 633.595 707.087 635.245 693.272 614.154 C 690.9 610.533 674.975 611.527 663.358 596.755 C 657.561 600.73 653.814 604.61 647.056 603.466 L 646.651 602.62 C 641.003 591.014 638.372 570.19 630.415 564.453 C 622.235 576.071 601.504 582.543 587.902 583.792 C 580.688 572.846 593.892 557.344 596.072 547.221 C 598.45 536.173 589.975 528.696 602.081 519.596 L 602.168 517.282 z"/>
<path transform="translate(0,0)" fill="rgb(247,148,86)" d="M 602.081 519.596 C 607.995 518.84 616.238 516.701 620.617 520.016 L 621.01 521 C 622.247 524.058 622.392 524.971 625.053 526.923 C 634.474 528.533 638.551 529.712 633.907 540.065 C 635.291 542.372 635.488 542.67 637.273 544.669 C 638.205 555.012 626.828 553.898 625.479 558.523 L 630.415 564.453 C 622.235 576.071 601.504 582.543 587.902 583.792 C 580.688 572.846 593.892 557.344 596.072 547.221 C 598.45 536.173 589.975 528.696 602.081 519.596 z"/>
<path transform="translate(0,0)" fill="rgb(210,101,48)" d="M 616.729 541.138 C 620.538 540.768 626.612 540.854 630.616 540.798 C 624.751 542.099 618.871 543.329 612.977 544.49 C 610.587 545.075 605.59 546.738 603.652 545.899 C 607.698 543.353 612.113 542.426 616.729 541.138 z"/>
<path transform="translate(0,0)" fill="rgb(210,101,48)" d="M 610.938 558.113 C 614.268 557.774 615.378 557.987 618.752 558.365 C 617.112 559.613 607.499 561.264 604.774 561.826 C 601.574 562.88 599.878 563.141 596.537 563.675 L 596.478 563.088 C 602.312 559.949 604.387 559.601 610.938 558.113 z"/>
<path transform="translate(0,0)" fill="rgb(119,99,165)" d="M 1123.5 577.74 C 1123.8 581.597 1122.55 585.279 1121.27 588.899 C 1083.64 695.546 1086.73 813.516 1143.36 914.697 C 1137.75 915.262 1121.21 917.388 1116.7 917.123 C 1113.22 912.451 1011.68 848.544 998.799 840.08 C 1003.24 828.922 1010.56 814.63 1015.83 803.593 L 1047.09 737.865 C 1071.59 686.113 1097.55 628.236 1123.5 577.74 z"/>
<path transform="translate(0,0)" fill="rgb(119,99,165)" d="M 1567.49 791.162 C 1565.94 786.282 1563.23 770.89 1561.68 764.704 C 1557.06 746.184 1552.74 735.871 1544.92 718.565 C 1560.03 742.307 1564 758.881 1571.13 785.92 L 1567.49 791.162 z"/>
<path transform="translate(0,0)" fill="rgb(119,99,165)" d="M 1126.95 825.702 C 1133.45 841.707 1137.31 860.886 1145.27 878.189 C 1150.47 889.49 1157.96 901.379 1162.39 911.659 L 1162.7 912.418 C 1160.13 912.681 1159.81 912.676 1157.23 912.448 C 1146.77 900.011 1129.19 842.701 1126.95 825.702 z"/>
<path transform="translate(0,0)" fill="rgb(83,71,124)" d="M 515.479 367.709 C 556.739 375.882 582.064 398.709 591.841 440.076 C 597.468 441.493 603.393 443.114 609.089 444.061 C 598.42 459.759 589.322 473.958 586.106 493.327 C 584.029 505.831 585.815 519.085 602.168 517.282 L 602.081 519.596 C 589.975 528.696 598.45 536.173 596.072 547.221 C 593.892 557.344 580.688 572.846 587.902 583.792 C 590.642 593.882 591.314 601.392 595.477 611.569 C 570.766 617.572 518.595 612.948 490.646 613.237 C 478.748 613.36 450.862 613.204 439.981 612.483 C 433.977 611.591 423.12 612.347 416.953 611.882 C 391.629 609.974 332.639 613.995 310.523 607.838 C 299.176 604.621 288.826 598.59 280.431 590.306 C 267.286 577.403 259.916 559.734 259.994 541.315 C 259.846 522.527 267.379 504.493 280.847 491.392 C 297.389 475.203 314.354 471.399 336.434 471.549 C 333.683 429.601 360.146 398.659 404.494 402.664 C 410.294 403.187 424.614 410.972 428.108 409.959 L 430.049 405.384 C 456.934 376.962 473.505 365.005 515.479 367.709 z M 451.689 513.924 L 477.25 514.159 C 464.912 535.483 451.89 557.356 440.056 578.896 L 441.037 579.675 L 502.07 501.937 C 493.541 501.549 485.649 501.267 477.112 501.269 C 480.749 493.473 508.911 436.242 508.495 432.804 C 490.084 459.448 470.775 487.861 451.689 513.924 z"/>
<path transform="translate(0,0)" fill="rgb(211,199,242)" d="M 564.658 467.868 C 564.884 471.802 550.662 499.576 547.985 505.048 L 562.71 505.319 C 551.368 520.18 539.375 535.113 527.81 549.845 C 529.531 543.439 543.638 520.193 548.02 512.751 L 533.355 512.351 L 564.658 467.868 z"/>
<path transform="translate(0,0)" fill="rgb(137,128,185)" d="M 423.351 466.02 C 423.915 468.953 409.142 497.985 406.708 502.937 L 421.434 503.077 C 410.441 517.578 399.181 531.874 387.661 545.959 C 387.402 542.969 404.072 515.23 406.899 510.271 L 392.121 510.042 C 402.191 497.023 413.075 479.967 423.351 466.02 z"/>
</svg>