<svg version="1.1" xmlns="http://www.w3.org/2000/svg" style="display: block;" viewBox="0 0 2048 1204" width="2000" height="1176" preserveAspectRatio="none">
<defs>
	<linearGradient id="Gradient1" gradientUnits="userSpaceOnUse" x1="1078.27" y1="429.574" x2="1090.57" y2="427.455">
		<stop class="stop0" offset="0" stop-opacity="1" stop-color="rgb(3,66,66)"/>
		<stop class="stop1" offset="1" stop-opacity="1" stop-color="rgb(8,94,85)"/>
	</linearGradient>
</defs>
<path transform="translate(0,0)" fill="rgb(236,246,242)" d="M 487.887 1141.54 C 487.523 1141.62 487.159 1141.7 486.795 1141.79 C 405.571 1143.01 322.11 1114.82 253.731 1072.39 C 92.9757 972.641 69.0038 743.297 165.797 591.297 C 219.4 507.119 309.262 462.863 398.861 426.565 C 438.388 411.323 477.861 396.755 513.279 373.037 C 560.463 341.566 602.35 300.189 641.46 259.159 C 731.651 164.541 832.36 94.8748 964.416 77.6879 C 1138.79 54.9934 1325.96 87.3327 1457.69 211.234 C 1487.79 239.551 1509.69 271.786 1535.04 304.136 C 1563.4 340.796 1593.65 375.953 1625.67 409.466 C 1651.2 436.259 1678.07 461.748 1706.16 485.836 C 1762.22 533.68 1809.29 567.232 1856.02 626.723 C 1950.3 746.758 1967.71 910.13 1882.05 1040.04 C 1848.14 1091.48 1797.62 1127.41 1737.16 1140.77 C 1730.59 1142.23 1720.53 1143.34 1713.89 1143.09 C 1706.05 1146.58 1647.67 1145.09 1633.83 1145.08 L 1488.14 1145.01 L 1478.11 1145.11 L 1476.6 1145.47 C 1472.04 1144.83 1460.3 1145.08 1455.15 1145.08 L 1454.05 1145.4 C 1448.55 1144.85 1438.03 1145.02 1432.13 1144.96 L 1430.88 1145.08 C 1423.38 1145.03 1416.98 1144.99 1409.48 1145.51 L 1407.72 1145.02 L 1386.77 1145.2 L 1382.72 1145.13 L 1375 1145.04 C 1364.07 1143.31 1333.89 1143.97 1321.38 1143.97 L 1223.38 1144.01 L 877.211 1143.99 L 797.909 1144.08 C 788.738 1144.09 762.935 1144.68 754.836 1142.94 C 744.078 1145.95 658.396 1144.82 641.504 1144.83 L 553.513 1144.82 C 533.904 1144.81 506.059 1146.61 487.887 1141.54 z"/>
<path transform="translate(0,0)" fill="rgb(68,119,165)" d="M 399.731 580.101 C 403.923 574.66 409.925 568.498 417.154 568.072 C 431.852 567.206 447.768 567.537 462.534 567.527 L 548.802 567.503 L 628.093 567.532 C 643.208 567.543 673.125 564.468 683.409 575.275 C 700.595 593.335 697.003 637.098 706.21 660.586 C 709.749 669.613 711.98 680.848 712.854 689.661 L 719.213 748.635 L 719.821 748.812 C 727.222 755.47 731.371 763.488 731.904 773.558 C 731.988 775.295 732.024 777.034 732.014 778.774 L 724.574 782.787 C 731.513 812.157 734.88 848.29 740.77 878.507 C 741.648 883.015 744.687 904.896 746.098 907.832 C 746.188 914.27 751.448 944.621 753.115 952.026 L 753.264 954.719 C 754.505 961.559 755.895 973.859 757.361 979.69 C 758.532 986.029 759.66 992.376 760.743 998.731 L 761.157 1000.61 C 764.066 1019.46 767.183 1038.27 770.508 1057.04 C 773.108 1075.57 786.244 1116.33 769.521 1128.53 C 764.191 1134.65 761.349 1138.13 754.836 1142.94 C 744.078 1145.95 658.396 1144.82 641.504 1144.83 L 553.513 1144.82 C 533.904 1144.81 506.059 1146.61 487.887 1141.54 C 487.378 1139.94 483.223 1137.06 481.488 1135.32 C 472.583 1126.36 471.922 1116.43 470.161 1104.67 C 467.959 1091.93 457.251 1018.01 453.526 1012.06 L 453.74 1010.38 C 454.32 1006.09 450.434 985.193 449.519 979.758 C 445.844 958.005 441.575 935 438.633 913.232 C 436.812 904.808 434.576 879.894 430.389 875.237 L 430.58 873.311 C 432.205 869.703 422.796 817.829 421.297 809.863 C 419.674 795.199 415.544 774.395 413.063 759.387 L 396.077 657.277 C 393.185 639.886 389.789 621.46 387.669 603.964 C 386.431 593.747 393.44 587.113 399.731 580.101 z"/>
<path transform="translate(0,0)" fill="rgb(127,175,218)" d="M 399.731 580.101 C 403.923 574.66 409.925 568.498 417.154 568.072 C 431.852 567.206 447.768 567.537 462.534 567.527 L 548.802 567.503 L 628.093 567.532 C 643.208 567.543 673.125 564.468 683.409 575.275 C 700.595 593.335 697.003 637.098 706.21 660.586 C 709.749 669.613 711.98 680.848 712.854 689.661 L 719.213 748.635 L 716.256 748.817 C 714.006 748.003 713.457 748.315 711 748.781 C 708.532 749.267 705.933 748.614 703.388 748.215 L 687.841 653.702 C 685.106 637.145 683.029 619.933 678.373 603.846 C 675.523 593.995 665.399 586.311 655.232 585.803 C 640.465 585.066 625.429 585.355 610.612 585.353 L 527.442 585.357 L 466.907 585.377 C 461.342 585.376 455.777 585.391 450.024 585.397 C 436.611 585.41 421.512 584.238 418.458 601.037 C 417.839 604.443 417.95 607.848 418.29 611.278 C 422.356 635.533 426.455 659.784 430.462 684.055 L 456.612 842.397 L 483.346 1003.89 C 488.087 1032.71 492.608 1061.63 497.878 1090.34 C 500.614 1105.23 512.499 1112.67 526.956 1113.01 C 540.865 1113.35 554.689 1113.22 568.593 1113.21 L 647.605 1113.14 L 701.424 1113.13 C 715.839 1113.23 732.373 1114.49 746.463 1111.95 C 756.108 1110.22 760.836 1100.06 759.804 1091.15 C 757.793 1075.12 754.882 1059.09 752.217 1043.13 L 737.226 953.122 L 719.243 844.061 C 716.702 828.647 713.412 803.923 710.086 789.296 L 724.574 782.787 C 731.513 812.157 734.88 848.29 740.77 878.507 C 741.648 883.015 744.687 904.896 746.098 907.832 C 746.188 914.27 751.448 944.621 753.115 952.026 L 753.264 954.719 C 754.505 961.559 755.895 973.859 757.361 979.69 C 758.532 986.029 759.66 992.376 760.743 998.731 L 761.157 1000.61 C 764.066 1019.46 767.183 1038.27 770.508 1057.04 C 773.108 1075.57 786.244 1116.33 769.521 1128.53 C 764.191 1134.65 761.349 1138.13 754.836 1142.94 C 744.078 1145.95 658.396 1144.82 641.504 1144.83 L 553.513 1144.82 C 533.904 1144.81 506.059 1146.61 487.887 1141.54 C 487.378 1139.94 483.223 1137.06 481.488 1135.32 C 472.583 1126.36 471.922 1116.43 470.161 1104.67 C 467.959 1091.93 457.251 1018.01 453.526 1012.06 L 453.74 1010.38 C 454.32 1006.09 450.434 985.193 449.519 979.758 C 445.844 958.005 441.575 935 438.633 913.232 C 436.812 904.808 434.576 879.894 430.389 875.237 L 430.58 873.311 C 432.205 869.703 422.796 817.829 421.297 809.863 C 419.674 795.199 415.544 774.395 413.063 759.387 L 396.077 657.277 C 393.185 639.886 389.789 621.46 387.669 603.964 C 386.431 593.747 393.44 587.113 399.731 580.101 z"/>
<path transform="translate(0,0)" fill="rgb(26,29,47)" d="M 399.731 580.101 C 399.024 598.767 406.379 635.159 409.739 655.381 L 429.971 777.327 L 465.769 993.793 C 471.825 1030.53 477.724 1067.3 484.097 1103.98 C 486.831 1119.72 498.763 1130.9 514.997 1130.98 C 564.112 1131.23 613.24 1131.03 662.361 1131.07 L 722.638 1131.11 C 738.113 1131.11 754.563 1132.34 769.521 1128.53 C 764.191 1134.65 761.349 1138.13 754.836 1142.94 C 744.078 1145.95 658.396 1144.82 641.504 1144.83 L 553.513 1144.82 C 533.904 1144.81 506.059 1146.61 487.887 1141.54 C 487.378 1139.94 483.223 1137.06 481.488 1135.32 C 472.583 1126.36 471.922 1116.43 470.161 1104.67 C 467.959 1091.93 457.251 1018.01 453.526 1012.06 L 453.74 1010.38 C 454.32 1006.09 450.434 985.193 449.519 979.758 C 445.844 958.005 441.575 935 438.633 913.232 C 436.812 904.808 434.576 879.894 430.389 875.237 L 430.58 873.311 C 432.205 869.703 422.796 817.829 421.297 809.863 C 419.674 795.199 415.544 774.395 413.063 759.387 L 396.077 657.277 C 393.185 639.886 389.789 621.46 387.669 603.964 C 386.431 593.747 393.44 587.113 399.731 580.101 z"/>
<path transform="translate(0,0)" fill="rgb(127,175,218)" d="M 406.407 697.38 C 408.506 697.758 410.999 697.754 411.98 699.928 C 415.161 706.977 419.893 737.452 418.809 743.715 C 416.43 743.232 416.287 743.097 414.167 741.845 C 410.705 736.359 405.725 703.621 406.407 697.38 z"/>
<path transform="translate(0,0)" fill="rgb(127,175,218)" d="M 414.549 745.445 C 417.285 745.787 417.529 745.698 419.547 747.407 C 422.941 753.632 427.743 784.699 426.874 791.713 C 424.309 791.372 424.087 791.441 422.054 789.973 C 418.745 784.445 413.607 751.717 414.549 745.445 z"/>
<path transform="translate(0,0)" fill="rgb(26,29,47)" d="M 566.376 573.157 C 573.388 572.944 581.146 572.017 587.695 573.65 C 590.583 576.149 589.72 574.82 590.615 579.079 C 583.505 579.373 575.778 580.343 569.082 578.736 C 566.185 576.379 567.028 577.709 566.376 573.157 z"/>
<path transform="translate(0,0)" fill="rgb(26,29,47)" d="M 533.071 571.827 C 535.443 570.236 538.649 570.822 540.306 573.147 C 541.963 575.473 541.47 578.695 539.192 580.418 C 537.66 581.577 535.619 581.812 533.864 581.031 C 532.109 580.25 530.917 578.577 530.752 576.663 C 530.587 574.749 531.475 572.896 533.071 571.827 z"/>
<path transform="translate(0,0)" fill="rgb(150,109,93)" d="M 658.475 695.465 C 666.546 696.49 668.974 697.295 675.711 701.827 C 682.051 713.898 688.393 747.618 703.388 748.215 C 705.933 748.614 708.532 749.267 711 748.781 C 713.457 748.315 714.006 748.003 716.256 748.817 L 719.213 748.635 L 719.821 748.812 C 727.222 755.47 731.371 763.488 731.904 773.558 C 731.988 775.295 732.024 777.034 732.014 778.774 L 724.574 782.787 L 710.086 789.296 C 705.358 791.464 696.812 795.683 692.136 797.092 C 696.148 776.329 677.932 764.633 674.993 743.108 C 673.195 729.939 666.291 706.31 658.475 695.465 z"/>
<path transform="translate(0,0)" fill="rgb(55,34,31)" d="M 711 748.781 C 713.457 748.315 714.006 748.003 716.256 748.817 C 717.828 752.182 718.492 752.122 717.888 755.307 L 718.539 754.542 L 718.982 756.396 C 718.536 756.306 713.916 750.491 711 748.781 z"/>
<path transform="translate(0,0)" fill="rgb(26,29,47)" d="M 661.715 771.281 C 664.304 770.364 666.141 770.029 667.93 768.001 C 659.851 753.294 642.319 711.574 652.778 696.765 C 656.177 694.759 654.661 695.077 658.475 695.465 C 666.291 706.31 673.195 729.939 674.993 743.108 C 677.932 764.633 696.148 776.329 692.136 797.092 C 689.135 798.776 686.117 800.588 682.959 801.926 C 682.008 800.416 680.918 794.482 680.413 792.295 C 678.814 785.374 676.444 779.893 673.409 773.472 C 669.298 773.223 665.112 773.433 661.715 771.281 z"/>
<path transform="translate(0,0)" fill="rgb(32,39,72)" d="M 682.959 801.926 C 681.353 802.47 677.849 803.704 676.276 803.786 C 663.771 804.433 655.512 783.761 654.979 774.398 C 657.574 771.68 657.538 772.367 661.715 771.281 C 665.112 773.433 669.298 773.223 673.409 773.472 C 676.444 779.893 678.814 785.374 680.413 792.295 C 680.918 794.482 682.008 800.416 682.959 801.926 z"/>
<path transform="translate(0,0)" fill="rgb(197,168,70)" d="M 570.479 685.006 C 573.818 685.035 580.771 684.916 583.79 685.289 C 593.57 687.454 601.676 690.186 610.009 696.069 C 642.034 720.368 656.814 768.79 618.511 794.427 L 616.855 795.66 C 608.254 798.749 604.633 799.29 595.487 799.477 C 586.491 798.921 581.307 797.378 573.181 793.932 L 569.93 793.032 C 566.285 795.565 562.263 799.538 558.941 802.62 C 546.841 795.445 540.538 790.459 532.172 778.528 L 531.528 777.062 C 528.008 773.77 523.992 762.859 522.122 758.099 L 521.392 755.92 L 519.894 744.092 C 519.826 737.429 520.21 732.749 521.987 726.369 C 523.831 717.233 528.969 710.728 535.34 704.338 C 542.273 699.049 549.644 693.134 557.171 688.85 C 561.512 686.979 565.892 686.093 570.479 685.006 z"/>
<path transform="translate(0,0)" fill="rgb(253,239,178)" d="M 572.838 785.184 C 575.316 773.881 581.796 697.864 584.824 693.26 C 594.425 695.866 598.668 697.642 607.115 703.253 C 602.87 732.385 600.23 762.871 596.4 792.247 C 586.058 790.802 581.93 789.493 572.838 785.184 z"/>
<path transform="translate(0,0)" fill="rgb(250,226,121)" d="M 607.115 703.253 C 616.515 711.399 621.331 716.588 627.479 727.819 C 624.62 732.204 618.66 781.047 620.254 783.775 C 611.427 790.074 607.167 790.748 596.4 792.247 C 600.23 762.871 602.87 732.385 607.115 703.253 z"/>
<path transform="translate(0,0)" fill="rgb(250,226,121)" d="M 535.34 704.338 C 542.273 699.049 549.644 693.134 557.171 688.85 L 559.17 694.48 C 554.787 697.036 546.049 702.678 545.276 708.211 C 531.009 723.386 539.973 752.815 550.512 767.719 L 547.795 773.419 L 543.012 766.771 C 538.774 768.414 534.331 773.483 531.528 777.062 C 528.008 773.77 523.992 762.859 522.122 758.099 L 521.392 755.92 L 519.894 744.092 C 519.826 737.429 520.21 732.749 521.987 726.369 C 523.831 717.233 528.969 710.728 535.34 704.338 z"/>
<path transform="translate(0,0)" fill="rgb(250,202,53)" d="M 531.816 734.83 C 532.486 738.119 533.113 741.257 533.956 744.511 L 534.232 746.573 C 537.587 755.836 538.661 758.091 543.012 766.771 C 538.774 768.414 534.331 773.483 531.528 777.062 C 528.008 773.77 523.992 762.859 522.122 758.099 L 521.392 755.92 L 519.894 744.092 C 523.487 740.636 527.758 737.75 531.816 734.83 z"/>
<path transform="translate(0,0)" fill="rgb(250,202,53)" d="M 531.816 734.83 C 532.486 738.119 533.113 741.257 533.956 744.511 L 534.232 746.573 C 532.172 748.488 523.386 756.408 522.122 758.099 L 521.392 755.92 L 519.894 744.092 C 523.487 740.636 527.758 737.75 531.816 734.83 z"/>
<path transform="translate(0,0)" fill="rgb(195,144,28)" d="M 533.956 744.511 L 534.232 746.573 C 532.172 748.488 523.386 756.408 522.122 758.099 L 521.392 755.92 C 525.4 752.579 530.034 748.097 533.956 744.511 z"/>
<path transform="translate(0,0)" fill="rgb(253,239,178)" d="M 527.014 721.706 L 531.43 719.755 L 533.218 720.865 C 534.186 725.076 532.264 730.006 531.816 734.83 C 527.758 737.75 523.487 740.636 519.894 744.092 C 519.826 737.429 520.21 732.749 521.987 726.369 C 523.564 724.818 525.374 723.219 527.014 721.706 z"/>
<path transform="translate(0,0)" fill="rgb(253,239,178)" d="M 535.34 704.338 C 536.766 713.031 532.657 715.774 527.014 721.706 C 525.374 723.219 523.564 724.818 521.987 726.369 C 523.831 717.233 528.969 710.728 535.34 704.338 z"/>
<path transform="translate(0,0)" fill="rgb(250,226,121)" d="M 567.962 693.074 C 573.195 693.001 579.726 692.718 584.824 693.26 C 581.796 697.864 575.316 773.881 572.838 785.184 C 567.022 781.407 564.612 779.813 559.42 774.961 C 560.98 765.466 569.738 697.956 567.962 693.074 z"/>
<path transform="translate(0,0)" fill="rgb(253,239,178)" d="M 567.962 693.074 C 569.738 697.956 560.98 765.466 559.42 774.961 C 555.023 770.63 553.802 769.09 550.369 763.948 C 552.074 743.016 556.475 717.658 557.213 697.61 C 560.097 695.881 564.698 694.312 567.962 693.074 z"/>
<path transform="translate(0,0)" fill="rgb(250,226,121)" d="M 610.009 696.069 C 642.034 720.368 656.814 768.79 618.511 794.427 L 616.855 795.66 C 608.254 798.749 604.633 799.29 595.487 799.477 L 596.991 793.571 C 605.186 793.681 611.53 791.364 618.486 787.424 C 650.191 762.495 633.219 719.982 605.069 699.771 L 610.009 696.069 z"/>
<path transform="translate(0,0)" fill="rgb(250,226,121)" d="M 557.213 697.61 C 556.475 717.658 552.074 743.016 550.369 763.948 C 537.63 744.32 537.995 729.399 545.276 708.211 C 546.36 707.745 554.367 699.711 557.213 697.61 z"/>
<path transform="translate(0,0)" fill="rgb(250,202,53)" d="M 531.528 777.062 C 534.331 773.483 538.774 768.414 543.012 766.771 L 547.795 773.419 C 550.653 776.784 553.645 780.618 557.135 783.244 L 557.123 783.704 C 560.746 786.148 567.035 790.089 569.93 793.032 C 566.285 795.565 562.263 799.538 558.941 802.62 C 546.841 795.445 540.538 790.459 532.172 778.528 L 531.528 777.062 z"/>
<path transform="translate(0,0)" fill="rgb(197,168,70)" d="M 531.528 777.062 C 534.331 773.483 538.774 768.414 543.012 766.771 C 540.687 771.089 535.848 775.092 532.172 778.528 L 531.528 777.062 z"/>
<path transform="translate(0,0)" fill="rgb(197,168,70)" d="M 546.071 793.919 C 548.783 790.014 552.545 785.33 557.123 783.704 C 554.319 788.359 551.128 791.763 546.071 793.919 z"/>
<path transform="translate(0,0)" fill="rgb(253,239,178)" d="M 620.254 783.775 C 618.66 781.047 624.62 732.204 627.479 727.819 L 629.396 732.407 C 628.268 748.123 626.024 763.53 624.587 779.205 L 620.254 783.775 z"/>
<path transform="translate(0,0)" fill="rgb(250,226,121)" d="M 629.396 732.407 C 634.371 747.774 635.926 766.072 624.587 779.205 C 626.024 763.53 628.268 748.123 629.396 732.407 z"/>
<path transform="translate(0,0)" fill="rgb(253,239,178)" d="M 583.79 685.289 C 593.57 687.454 601.676 690.186 610.009 696.069 L 605.069 699.771 C 597.075 694.909 592.641 693.579 583.872 691.25 L 583.79 685.289 z"/>
<path transform="translate(0,0)" fill="rgb(253,239,178)" d="M 572.755 787.242 C 582.345 791.78 586.498 792.728 596.991 793.571 L 595.487 799.477 C 586.491 798.921 581.307 797.378 573.181 793.932 L 572.755 787.242 z"/>
<path transform="translate(0,0)" fill="rgb(250,226,121)" d="M 560.706 778.939 C 564.538 781.768 568.615 784.961 572.755 787.242 L 573.181 793.932 L 569.93 793.032 C 567.035 790.089 560.746 786.148 557.123 783.704 L 557.135 783.244 C 558.731 782.155 559.597 780.558 560.706 778.939 z"/>
<path transform="translate(0,0)" fill="rgb(250,226,121)" d="M 570.479 685.006 C 573.818 685.035 580.771 684.916 583.79 685.289 L 583.872 691.25 C 579.874 690.73 573.894 690.988 569.696 691.041 L 570.479 685.006 z"/>
<path transform="translate(0,0)" fill="rgb(253,239,178)" d="M 550.512 767.719 C 553.545 771.116 557.528 775.858 560.706 778.939 C 559.597 780.558 558.731 782.155 557.135 783.244 C 553.645 780.618 550.653 776.784 547.795 773.419 L 550.512 767.719 z"/>
<path transform="translate(0,0)" fill="rgb(253,239,178)" d="M 557.171 688.85 C 561.512 686.979 565.892 686.093 570.479 685.006 L 569.696 691.041 C 566.807 691.957 561.797 693.384 559.17 694.48 L 557.171 688.85 z"/>
<path transform="translate(0,0)" fill="rgb(127,175,218)" d="M 485.222 848.358 C 493.742 847.883 503.685 848.028 512.32 848.18 C 573.658 849.257 636.003 846.603 697.241 848.449 C 698.475 854.556 701.511 867.382 699.996 872.949 C 675.757 873.682 647.855 873.05 623.359 873.056 L 486.743 872.959 C 485.711 867.087 482.104 852.906 485.222 848.358 z"/>
<path transform="translate(0,0)" fill="rgb(236,246,242)" d="M 548.064 952.147 C 558.081 951.342 566.723 953.198 575.275 958.585 C 585.93 965.344 593.51 976.011 596.388 988.296 C 601.38 1010.29 590.529 1028.04 568.493 1033 C 558.842 1033.55 551.579 1032.45 543.06 1027.61 C 531.826 1021.1 523.662 1010.37 520.384 997.808 C 514.591 975.285 525.734 957.543 548.064 952.147 z"/>
<path transform="translate(0,0)" fill="rgb(199,67,67)" d="M 553.297 964.441 C 556.478 966.822 573.841 990.395 577.224 994.902 L 563.499 994.979 C 564.896 1003.34 566.213 1011.29 567.217 1019.71 C 564.007 1019.92 562.183 1020.27 559.085 1019.33 C 554.119 1015.3 554.103 1002.33 553.015 994.938 L 539.511 994.933 C 544.028 984.733 548.623 974.569 553.297 964.441 z"/>
<path transform="translate(0,0)" fill="rgb(236,246,242)" d="M 662.623 951.335 C 672.241 951.156 681.651 954.138 689.409 959.825 C 699.794 967.414 706.709 978.845 708.608 991.567 C 711.734 1013.8 699.143 1029.69 677.152 1032.7 C 667.678 1033.04 658.361 1030.21 650.675 1024.66 C 622.096 1004.33 622.104 957.492 662.623 951.335 z"/>
<path transform="translate(0,0)" fill="rgb(98,167,128)" d="M 661.872 963.514 L 671.544 963.401 C 672.096 970.537 674.002 980.821 675.161 988.136 L 688.694 988.18 C 684.262 998.287 679.706 1008.34 675.027 1018.33 C 672.158 1017.44 654.282 992.445 651.191 988.262 L 664.648 988.112 C 663.764 982.917 660.587 967.642 661.872 963.514 z"/>
<path transform="translate(0,0)" fill="rgb(127,175,218)" d="M 493.064 892.065 L 705.398 892.029 C 707.131 898.617 709.747 909.252 708.601 915.829 C 702.613 915.098 695.572 914.993 689.517 915.028 C 624.792 915.408 559.902 914.34 495.194 915.253 C 494.107 909.552 491.073 896.905 493.064 892.065 z"/>
<path transform="translate(0,0)" fill="rgb(127,175,218)" d="M 581.342 1079.21 C 584.412 1079.01 596.592 1078.69 599.482 1078.97 C 610.138 1080.01 662.014 1076.5 667.201 1080.94 C 668.058 1083.88 667.832 1082.89 666.76 1086.3 C 657.647 1087.13 586.237 1087.84 581.304 1085.51 C 579.893 1082.54 580.462 1082.93 581.342 1079.21 z"/>
<path transform="translate(0,0)" fill="rgb(195,144,28)" d="M 569.93 793.032 L 573.181 793.932 C 581.307 797.378 586.491 798.921 595.487 799.477 C 604.633 799.29 608.254 798.749 616.855 795.66 C 599.717 811.436 579.566 812.461 558.941 802.62 C 562.263 799.538 566.285 795.565 569.93 793.032 z"/>
<path transform="translate(0,0)" fill="rgb(180,209,216)" d="M 552.739 637.776 C 563.801 643.697 567.94 667.969 568.085 679.551 C 564.977 676.989 565.991 675.819 565.687 671.904 C 564.703 659.247 558.948 648.516 552.739 637.776 z"/>
<path transform="translate(0,0)" fill="rgb(180,209,216)" d="M 594.859 642.871 C 594.625 645.978 592.029 648.506 590.157 651.069 C 582.93 660.961 580.035 669.06 578.447 680.983 C 572.552 670.716 587.436 649.738 594.859 642.871 z"/>
<path transform="translate(0,0)" fill="rgb(236,246,242)" d="M 496.282 639.536 C 498.214 638.308 500.774 638.866 502.021 640.785 C 503.268 642.705 502.736 645.27 500.829 646.536 C 498.895 647.82 496.285 647.278 495.02 645.332 C 493.756 643.385 494.323 640.78 496.282 639.536 z"/>
<path transform="translate(0,0)" fill="rgb(236,246,242)" d="M 609.024 651.48 C 610.95 650.548 613.27 651.233 614.381 653.062 C 615.492 654.892 615.03 657.266 613.314 658.545 C 612.049 659.488 610.36 659.633 608.953 658.919 C 607.546 658.205 606.666 656.755 606.681 655.178 C 606.696 653.6 607.604 652.168 609.024 651.48 z"/>
<path transform="translate(0,0)" fill="rgb(229,158,94)" d="M 1682.53 918.027 C 1688.18 920.872 1696.44 916.983 1699.3 926.521 C 1705.62 947.556 1706.08 971.167 1710.81 992.458 C 1713.55 992.944 1716.64 992.951 1717.82 995.634 C 1722.24 1005.68 1723.98 1022.96 1725.82 1033.58 C 1723.98 1036.02 1721.3 1039.79 1719.38 1041.97 C 1720.35 1064.42 1729.81 1097.3 1731.23 1120.56 C 1729.73 1122.73 1727.2 1126.63 1725.58 1128.47 L 1713.89 1143.09 C 1706.05 1146.58 1647.67 1145.09 1633.83 1145.08 L 1488.14 1145.01 L 1478.11 1145.11 L 1476.6 1145.47 C 1472.04 1144.83 1460.3 1145.08 1455.15 1145.08 L 1454.05 1145.4 C 1448.55 1144.85 1438.03 1145.02 1432.13 1144.96 L 1430.88 1145.08 C 1423.38 1145.03 1416.98 1144.99 1409.48 1145.51 L 1407.72 1145.02 L 1386.77 1145.2 L 1382.72 1145.13 L 1375 1145.04 C 1372.63 1135.38 1375.4 1121.68 1373.24 1113.05 C 1374.25 1111.32 1375.96 1109.38 1377.25 1107.78 C 1379.3 1108.35 1386.01 1108.13 1388.48 1108.11 L 1388.38 1106.48 C 1387.53 1102.42 1388.08 1093.45 1387.43 1087.95 C 1388.24 1084.44 1387.99 1081.11 1387.94 1077.49 C 1387.84 1075.46 1388.31 1074.16 1388.74 1072.14 L 1391.31 1072.05 L 1394.01 1071.77 C 1392.54 1068.64 1393.08 1040.97 1393.02 1035.55 L 1391.78 1035.55 L 1389.82 1034.99 L 1387.38 1033.28 L 1387.96 1031.41 C 1388.37 1027.52 1386.37 1016.61 1385.61 1012.22 L 1372.44 933.668 L 1373.21 932.789 C 1373.78 932.872 1374.34 932.945 1374.9 933.009 C 1380.78 933.632 1383.65 929.734 1388.72 925.625 C 1390.51 923.73 1393.82 920.458 1396.25 920.05 C 1418.63 916.291 1454.02 921.399 1475.6 918.128 C 1482.98 919.774 1527.69 919.121 1538.58 919.042 C 1581.12 918.733 1624.31 919.531 1666.78 918.938 C 1670.7 919.094 1679.31 919.562 1682.53 918.027 z"/>
<path transform="translate(0,0)" fill="rgb(250,202,53)" d="M 1391.31 1072.05 L 1394.01 1071.77 L 1394.76 1071.79 C 1402.32 1072.02 1408.74 1072.13 1416.3 1071.86 L 1427.92 1071.91 L 1441.19 1072.06 L 1447.09 1072 C 1446.97 1080.17 1447.35 1101.35 1446.5 1108.62 C 1452.18 1107.86 1462.29 1107.93 1468.16 1108.36 L 1469.21 1108.01 L 1474 1108.27 C 1477.9 1108.27 1483.34 1108.06 1486.99 1108.82 L 1488.63 1108.82 C 1489.49 1115.9 1489.26 1120.52 1489.05 1127.61 L 1489.08 1129.3 C 1489.24 1134.54 1489.75 1140.04 1488.14 1145.01 L 1478.11 1145.11 L 1476.6 1145.47 C 1472.04 1144.83 1460.3 1145.08 1455.15 1145.08 L 1454.05 1145.4 C 1448.55 1144.85 1438.03 1145.02 1432.13 1144.96 L 1430.88 1145.08 C 1423.38 1145.03 1416.98 1144.99 1409.48 1145.51 L 1407.72 1145.02 L 1386.77 1145.2 L 1382.72 1145.13 L 1375 1145.04 C 1372.63 1135.38 1375.4 1121.68 1373.24 1113.05 C 1374.25 1111.32 1375.96 1109.38 1377.25 1107.78 C 1379.3 1108.35 1386.01 1108.13 1388.48 1108.11 L 1388.38 1106.48 C 1387.53 1102.42 1388.08 1093.45 1387.43 1087.95 C 1388.24 1084.44 1387.99 1081.11 1387.94 1077.49 C 1387.84 1075.46 1388.31 1074.16 1388.74 1072.14 L 1391.31 1072.05 z"/>
<path transform="translate(0,0)" fill="rgb(250,202,53)" d="M 1468.16 1108.36 L 1469.21 1108.01 L 1474 1108.27 C 1477.9 1108.27 1483.34 1108.06 1486.99 1108.82 L 1488.63 1108.82 C 1489.49 1115.9 1489.26 1120.52 1489.05 1127.61 L 1489.08 1129.3 C 1489.24 1134.54 1489.75 1140.04 1488.14 1145.01 L 1478.11 1145.11 L 1476.6 1145.47 C 1472.04 1144.83 1460.3 1145.08 1455.15 1145.08 L 1454.05 1145.4 C 1448.55 1144.85 1438.03 1145.02 1432.13 1144.96 L 1430.88 1145.08 C 1430.64 1133.93 1430.84 1122.47 1430.9 1111.3 L 1430.55 1110.36 C 1424.62 1110.25 1422.3 1110.1 1416.51 1109 L 1416.78 1108.33 L 1421.91 1107.91 L 1423.93 1108.46 C 1431.41 1108.01 1437.48 1108.01 1444.96 1108.11 L 1446.5 1108.62 C 1452.18 1107.86 1462.29 1107.93 1468.16 1108.36 z"/>
<path transform="translate(0,0)" fill="rgb(250,202,53)" d="M 1430.9 1111.3 C 1431.78 1111.3 1434.05 1111.2 1434.74 1111.43 C 1440.5 1112.56 1448.48 1114.35 1454.12 1115.13 L 1455.33 1115.6 C 1454.82 1125.5 1455.02 1135.17 1455.15 1145.08 L 1454.05 1145.4 C 1448.55 1144.85 1438.03 1145.02 1432.13 1144.96 L 1430.88 1145.08 C 1430.64 1133.93 1430.84 1122.47 1430.9 1111.3 z"/>
<path transform="translate(0,0)" fill="rgb(197,168,70)" d="M 1430.9 1111.3 C 1431.78 1111.3 1434.05 1111.2 1434.74 1111.43 C 1430.73 1115.15 1433.21 1137.76 1432.13 1144.96 L 1430.88 1145.08 C 1430.64 1133.93 1430.84 1122.47 1430.9 1111.3 z"/>
<path transform="translate(0,0)" fill="rgb(195,144,28)" d="M 1454.12 1115.13 L 1455.33 1115.6 C 1454.82 1125.5 1455.02 1135.17 1455.15 1145.08 L 1454.05 1145.4 C 1453.68 1135.42 1453.97 1125.14 1454.12 1115.13 z"/>
<path transform="translate(0,0)" fill="rgb(26,29,47)" d="M 1468.16 1108.36 L 1469.21 1108.01 L 1474 1108.27 C 1477.9 1108.27 1483.34 1108.06 1486.99 1108.82 L 1488.63 1108.82 C 1489.49 1115.9 1489.26 1120.52 1489.05 1127.61 L 1479.01 1123.09 L 1477.31 1121.89 C 1475.85 1121.75 1458.19 1116.4 1455.33 1115.6 L 1454.12 1115.13 C 1448.48 1114.35 1440.5 1112.56 1434.74 1111.43 C 1434.05 1111.2 1431.78 1111.3 1430.9 1111.3 L 1430.55 1110.36 C 1424.62 1110.25 1422.3 1110.1 1416.51 1109 L 1416.78 1108.33 L 1421.91 1107.91 L 1423.93 1108.46 C 1431.41 1108.01 1437.48 1108.01 1444.96 1108.11 L 1446.5 1108.62 C 1452.18 1107.86 1462.29 1107.93 1468.16 1108.36 z"/>
<path transform="translate(0,0)" fill="rgb(87,68,25)" d="M 1468.16 1108.36 L 1469.21 1108.01 L 1474 1108.27 C 1477.9 1108.27 1483.34 1108.06 1486.99 1108.82 C 1479.84 1109.19 1432.23 1108.55 1430.18 1109.96 L 1430.55 1110.36 C 1424.62 1110.25 1422.3 1110.1 1416.51 1109 L 1416.78 1108.33 L 1421.91 1107.91 L 1423.93 1108.46 C 1431.41 1108.01 1437.48 1108.01 1444.96 1108.11 L 1446.5 1108.62 C 1452.18 1107.86 1462.29 1107.93 1468.16 1108.36 z"/>
<path transform="translate(0,0)" fill="rgb(238,199,93)" d="M 1479.01 1123.09 L 1489.05 1127.61 L 1489.08 1129.3 C 1489.24 1134.54 1489.75 1140.04 1488.14 1145.01 L 1478.11 1145.11 C 1478.11 1140.13 1477.49 1127 1479.01 1123.09 z"/>
<path transform="translate(0,0)" fill="rgb(195,144,28)" d="M 1477.31 1121.89 L 1479.01 1123.09 C 1477.49 1127 1478.11 1140.13 1478.11 1145.11 L 1476.6 1145.47 C 1476.21 1138.59 1476.68 1128.71 1477.31 1121.89 z"/>
<path transform="translate(0,0)" fill="rgb(253,239,178)" d="M 1377.25 1107.78 C 1379.3 1108.35 1386.01 1108.13 1388.48 1108.11 L 1400.02 1108.5 C 1402.2 1108.49 1405.14 1108.59 1407.24 1108.27 C 1407.18 1120.83 1407.21 1132.44 1407.72 1145.02 L 1386.77 1145.2 L 1382.72 1145.13 L 1375 1145.04 C 1372.63 1135.38 1375.4 1121.68 1373.24 1113.05 C 1374.25 1111.32 1375.96 1109.38 1377.25 1107.78 z"/>
<path transform="translate(0,0)" fill="rgb(250,202,53)" d="M 1377.25 1107.78 C 1379.3 1108.35 1386.01 1108.13 1388.48 1108.11 C 1385.54 1112.34 1387.31 1137.72 1386.77 1145.2 L 1382.72 1145.13 L 1375 1145.04 C 1372.63 1135.38 1375.4 1121.68 1373.24 1113.05 C 1374.25 1111.32 1375.96 1109.38 1377.25 1107.78 z"/>
<path transform="translate(0,0)" fill="rgb(238,199,93)" d="M 1377.25 1107.78 C 1379.3 1108.35 1386.01 1108.13 1388.48 1108.11 C 1385.54 1112.34 1387.31 1137.72 1386.77 1145.2 L 1382.72 1145.13 C 1382.23 1134.92 1384.17 1119.51 1381.53 1110.1 C 1381.12 1108.63 1379.07 1108.41 1377.25 1107.78 z"/>
<path transform="translate(0,0)" fill="rgb(250,202,53)" d="M 1441.19 1072.06 L 1447.09 1072 C 1446.97 1080.17 1447.35 1101.35 1446.5 1108.62 L 1444.96 1108.11 C 1437.48 1108.01 1431.41 1108.01 1423.93 1108.46 L 1421.91 1107.91 C 1422.04 1098.45 1422.36 1088.47 1421.79 1079.07 L 1423.95 1078.24 C 1428.18 1076.44 1436.6 1074.28 1441.3 1072.94 L 1441.19 1072.06 z"/>
<path transform="translate(0,0)" fill="rgb(195,144,28)" d="M 1441.19 1072.06 L 1447.09 1072 C 1446.97 1080.17 1447.35 1101.35 1446.5 1108.62 L 1444.96 1108.11 C 1444.9 1101.42 1446.19 1078.79 1443.93 1073.7 L 1441.3 1072.94 L 1441.19 1072.06 z"/>
<path transform="translate(0,0)" fill="rgb(195,144,28)" d="M 1423.95 1078.24 C 1423.97 1087.72 1424.3 1099.14 1423.93 1108.46 L 1421.91 1107.91 C 1422.04 1098.45 1422.36 1088.47 1421.79 1079.07 L 1423.95 1078.24 z"/>
<path transform="translate(0,0)" fill="rgb(26,29,47)" d="M 1391.31 1072.05 L 1394.01 1071.77 L 1394.76 1071.79 C 1402.32 1072.02 1408.74 1072.13 1416.3 1071.86 L 1427.92 1071.91 L 1441.19 1072.06 L 1441.3 1072.94 C 1436.6 1074.28 1428.18 1076.44 1423.95 1078.24 L 1421.79 1079.07 C 1414.7 1082.91 1407.06 1087.63 1401.07 1093.06 L 1398.67 1095.06 C 1398.89 1098.93 1398.99 1104.99 1400.02 1108.5 L 1388.48 1108.11 L 1388.38 1106.48 C 1387.53 1102.42 1388.08 1093.45 1387.43 1087.95 C 1388.24 1084.44 1387.99 1081.11 1387.94 1077.49 C 1387.84 1075.46 1388.31 1074.16 1388.74 1072.14 L 1391.31 1072.05 z"/>
<path transform="translate(0,0)" fill="rgb(250,202,53)" d="M 1398.67 1095.06 C 1398.89 1098.93 1398.99 1104.99 1400.02 1108.5 L 1388.48 1108.11 L 1388.38 1106.48 C 1391.85 1102.18 1394.88 1099 1398.67 1095.06 z"/>
<path transform="translate(0,0)" fill="rgb(195,144,28)" d="M 1407.24 1108.27 L 1410.45 1108.13 C 1410.38 1107.96 1409.67 1143.08 1409.48 1145.51 L 1407.72 1145.02 C 1407.21 1132.44 1407.18 1120.83 1407.24 1108.27 z"/>
<path transform="translate(0,0)" fill="rgb(195,144,28)" d="M 1398.67 1095.06 L 1401.07 1093.06 C 1401.12 1097.07 1401.72 1105.29 1400.02 1108.5 C 1398.99 1104.99 1398.89 1098.93 1398.67 1095.06 z"/>
<path transform="translate(0,0)" fill="rgb(199,67,67)" d="M 1710.81 992.458 C 1713.55 992.944 1716.64 992.951 1717.82 995.634 C 1722.24 1005.68 1723.98 1022.96 1725.82 1033.58 C 1723.98 1036.02 1721.3 1039.79 1719.38 1041.97 C 1709.69 1031.63 1651.21 1043.05 1636.11 1037.26 C 1633.79 1036.37 1632.94 1035.16 1631.97 1032.89 C 1629.26 1026.46 1623.92 1001.1 1626.47 995.028 C 1627.39 994.222 1628.52 993.272 1629.79 993.187 C 1655.82 991.462 1683.89 994.524 1709.72 992.546 L 1710.81 992.458 z"/>
<path transform="translate(0,0)" fill="rgb(236,246,242)" d="M 1658.05 999.984 C 1679.05 999.001 1690.31 1021.08 1669.17 1030.91 C 1648.76 1032.04 1637.15 1010.4 1658.05 999.984 z"/>
<path transform="translate(0,0)" fill="rgb(26,29,47)" d="M 1489.08 1129.3 C 1553.42 1128.11 1618.34 1130.12 1682.73 1129.26 C 1696.35 1129.08 1712.3 1130.16 1725.58 1128.47 L 1713.89 1143.09 C 1706.05 1146.58 1647.67 1145.09 1633.83 1145.08 L 1488.14 1145.01 C 1489.75 1140.04 1489.24 1134.54 1489.08 1129.3 z"/>
<path transform="translate(0,0)" fill="rgb(253,239,178)" d="M 1436.78 1035.14 L 1439.82 1035.1 L 1452.91 1035.2 C 1452.98 1041.94 1453.61 1066.31 1452.21 1070.92 C 1450.92 1071.37 1450.9 1071.54 1449.59 1071.56 L 1447.09 1072 L 1441.19 1072.06 L 1427.92 1071.91 L 1416.3 1071.86 C 1408.74 1072.13 1402.32 1072.02 1394.76 1071.79 L 1394.01 1071.77 C 1392.54 1068.64 1393.08 1040.97 1393.02 1035.55 C 1395.34 1035.05 1402.39 1035.18 1405.15 1035.17 L 1414.15 1034.91 L 1415.99 1035.27 L 1428.1 1035.13 L 1436.78 1035.14 z"/>
<path transform="translate(0,0)" fill="rgb(250,202,53)" d="M 1405.15 1035.17 L 1414.15 1034.91 L 1415.99 1035.27 C 1416 1041.24 1415.68 1067.19 1416.3 1071.86 C 1408.74 1072.13 1402.32 1072.02 1394.76 1071.79 L 1394.01 1071.77 C 1392.54 1068.64 1393.08 1040.97 1393.02 1035.55 C 1395.34 1035.05 1402.39 1035.18 1405.15 1035.17 z"/>
<path transform="translate(0,0)" fill="rgb(195,144,28)" d="M 1414.15 1034.91 L 1415.99 1035.27 C 1416 1041.24 1415.68 1067.19 1416.3 1071.86 C 1408.74 1072.13 1402.32 1072.02 1394.76 1071.79 C 1398.86 1071.1 1409.57 1071.33 1414.2 1071.31 C 1413.96 1059.3 1414.13 1046.95 1414.15 1034.91 z"/>
<path transform="translate(0,0)" fill="rgb(250,202,53)" d="M 1415.99 1035.27 L 1428.1 1035.13 C 1428.24 1045.26 1428.82 1061.42 1427.98 1071.1 L 1427.92 1071.91 L 1416.3 1071.86 C 1415.68 1067.19 1416 1041.24 1415.99 1035.27 z"/>
<path transform="translate(0,0)" fill="rgb(253,239,178)" d="M 1428.1 1035.13 L 1436.78 1035.14 C 1436.96 1043.08 1437.74 1063.34 1436.5 1070.31 C 1433.17 1071.41 1431.44 1071.16 1427.98 1071.1 C 1428.82 1061.42 1428.24 1045.26 1428.1 1035.13 z"/>
<path transform="translate(0,0)" fill="rgb(238,199,93)" d="M 1436.78 1035.14 L 1439.82 1035.1 C 1438.2 1039.44 1438.82 1064.41 1439.34 1069.96 C 1441.75 1071.72 1446.17 1070.73 1449.59 1071.56 L 1447.09 1072 L 1441.19 1072.06 L 1427.92 1071.91 L 1427.98 1071.1 C 1431.44 1071.16 1433.17 1071.41 1436.5 1070.31 C 1437.74 1063.34 1436.96 1043.08 1436.78 1035.14 z"/>
<path transform="translate(0,0)" fill="rgb(250,202,53)" d="M 1459.91 1035.36 L 1461.88 1035.24 C 1467.18 1035.23 1466.81 1034.47 1470.92 1036.74 C 1475.25 1043.22 1473.56 1062.9 1472.39 1070.68 L 1473.98 1072.02 C 1474.1 1084.11 1474.1 1096.19 1474 1108.27 L 1469.21 1108.01 L 1468.16 1108.36 C 1462.29 1107.93 1452.18 1107.86 1446.5 1108.62 C 1447.35 1101.35 1446.97 1080.17 1447.09 1072 L 1449.59 1071.56 C 1450.9 1071.54 1450.92 1071.37 1452.21 1070.92 C 1453.61 1066.31 1452.98 1041.94 1452.91 1035.2 L 1459.91 1035.36 z"/>
<path transform="translate(0,0)" fill="rgb(195,144,28)" d="M 1459.91 1035.36 L 1461.88 1035.24 C 1461.94 1041.48 1462.5 1065.36 1460.64 1069.72 C 1459.69 1058.68 1459.93 1046.52 1459.91 1035.36 z"/>
<path transform="translate(0,0)" fill="rgb(195,144,28)" d="M 1468.16 1108.36 C 1467.54 1099.92 1467.83 1082.07 1468.06 1073.36 L 1468.88 1073.57 C 1469.83 1082.68 1469.33 1098.41 1469.21 1108.01 L 1468.16 1108.36 z"/>
<path transform="translate(0,0)" fill="rgb(26,29,47)" d="M 1388.72 925.625 C 1387.06 936.177 1402.36 1018.92 1405.15 1035.17 C 1402.39 1035.18 1395.34 1035.05 1393.02 1035.55 L 1391.78 1035.55 L 1389.82 1034.99 L 1387.38 1033.28 L 1387.96 1031.41 C 1388.37 1027.52 1386.37 1016.61 1385.61 1012.22 L 1372.44 933.668 L 1373.21 932.789 C 1373.78 932.872 1374.34 932.945 1374.9 933.009 C 1380.78 933.632 1383.65 929.734 1388.72 925.625 z"/>
<path transform="translate(0,0)" fill="rgb(253,239,178)" d="M 1490.63 1072.02 L 1498.16 1071.14 C 1496.66 1080.78 1497.33 1098.9 1497.54 1109.07 L 1490.66 1108.15 L 1488.63 1108.82 L 1486.99 1108.82 C 1483.34 1108.06 1477.9 1108.27 1474 1108.27 C 1474.1 1096.19 1474.1 1084.11 1473.98 1072.02 C 1478.56 1072.02 1486.32 1071.74 1490.63 1072.02 z"/>
<path transform="translate(0,0)" fill="rgb(250,202,53)" d="M 1498.16 1071.14 C 1500.11 1072.16 1502.2 1072.62 1502.58 1075.29 C 1503.68 1083.14 1504 1090.94 1503.18 1098.85 C 1502.51 1105.41 1503.52 1105.92 1497.54 1109.07 C 1497.33 1098.9 1496.66 1080.78 1498.16 1071.14 z"/>
<path transform="translate(0,0)" fill="rgb(21,112,104)" d="M 1175.48 281.747 L 1177.41 283.104 C 1180.56 283.672 1182.02 284.491 1182.99 287.897 C 1180.81 293.746 1179.97 295.919 1176.78 301.212 L 1176.85 301.703 C 1179.63 304.916 1187.67 308.008 1191.93 309.783 L 1192.98 308.44 L 1196.3 303.609 C 1200.42 308.304 1199.22 313.149 1198.96 319.958 C 1206.52 320.864 1211.69 321.439 1219.1 323.302 C 1230.12 326.335 1239.12 328.985 1248.29 336.416 C 1247.4 353.068 1246.27 369.707 1244.9 386.327 C 1244.16 396.102 1243.81 407.499 1242.17 417.169 C 1239.3 434.148 1232.2 450.724 1227.75 467.381 C 1215.93 511.745 1197.97 555.419 1184.42 598.764 C 1178.9 616.387 1200.17 647.74 1186.27 670.035 C 1183.61 657.194 1182.7 652.86 1172.92 643.768 C 1169.09 643.397 1157.42 638.523 1152.93 636.862 C 1136.95 630.953 1110.11 622.819 1093.31 623.042 C 1092.59 624.921 1092.61 624.846 1091.34 626.415 L 1090.83 622.882 C 1082.6 619.448 1060.22 621.346 1051.18 622.229 C 1049.06 622.923 1044.2 624.705 1042.22 624.772 C 1056.69 593.862 1053.57 565.254 1055.58 533.026 C 1059.18 489.862 1040.69 447.471 1035.98 405.537 C 1033.14 380.278 1034.02 347.62 1033.45 321.84 C 1040.97 316.102 1045.95 314.659 1054.75 311.891 C 1060.05 310.353 1070.57 308.552 1076.24 307.486 C 1075 303.992 1073.95 299.634 1072.97 295.99 L 1070.79 293.341 L 1073.16 287.358 C 1068.28 286.16 1069.92 286.798 1064.11 289.605 L 1065.49 289.029 C 1065.45 286.466 1065.95 286.885 1068.38 284.284 C 1071.1 285.176 1077.9 287.628 1080.35 288.187 C 1083.55 302.049 1088.96 314.419 1101.7 322.094 L 1106.12 324.819 C 1118.76 328.912 1124.17 328.764 1136.99 325.833 C 1146.9 321.807 1152.91 317.128 1160.27 309.677 C 1164.65 304.387 1168.38 299.297 1171.33 293.086 C 1173.69 288.509 1174.8 286.806 1175.48 281.747 z"/>
<path transform="translate(0,0)" fill="rgb(236,246,242)" d="M 1175.48 281.747 L 1177.41 283.104 C 1180.56 283.672 1182.02 284.491 1182.99 287.897 C 1180.81 293.746 1179.97 295.919 1176.78 301.212 L 1176.85 301.703 C 1179.63 304.916 1187.67 308.008 1191.93 309.783 L 1192.98 308.44 L 1196.3 303.609 C 1200.42 308.304 1199.22 313.149 1198.96 319.958 C 1195.94 320.032 1191.71 319.858 1189.02 320.845 L 1185.45 321.123 C 1183.7 325.868 1193.11 407.473 1194.32 418.633 C 1189.98 425.113 1188.02 427.234 1187.39 434.922 L 1185.71 438.61 C 1184.54 443.144 1181.09 455.285 1180.5 459.327 L 1178.48 462.918 C 1176.53 471.728 1175.98 479.461 1168.87 485.529 C 1164.87 487.328 1162.78 491.197 1160.79 494.961 C 1158.87 501.737 1148.9 510.243 1142.44 512.853 C 1117.14 523.07 1105.63 503.605 1116.15 480.734 C 1105.14 478.582 1110.99 471.092 1100.36 465.483 C 1093.28 449.629 1091.99 421.891 1084 405.106 C 1083.6 404.268 1084.23 399.837 1084.41 398.686 C 1087.07 392.575 1094.08 337.992 1095.44 329.225 L 1090.58 324.827 C 1083.1 318.331 1082.31 313.599 1076.24 307.486 C 1075 303.992 1073.95 299.634 1072.97 295.99 L 1070.79 293.341 L 1073.16 287.358 C 1068.28 286.16 1069.92 286.798 1064.11 289.605 L 1065.49 289.029 C 1065.45 286.466 1065.95 286.885 1068.38 284.284 C 1071.1 285.176 1077.9 287.628 1080.35 288.187 C 1083.55 302.049 1088.96 314.419 1101.7 322.094 L 1106.12 324.819 C 1118.76 328.912 1124.17 328.764 1136.99 325.833 C 1146.9 321.807 1152.91 317.128 1160.27 309.677 C 1164.65 304.387 1168.38 299.297 1171.33 293.086 C 1173.69 288.509 1174.8 286.806 1175.48 281.747 z"/>
<path transform="translate(0,0)" fill="rgb(252,187,150)" d="M 1135.87 435.133 C 1145.83 435.259 1146.29 433.083 1157.8 434.526 C 1163.31 436.1 1170.65 438.594 1172.63 444.689 C 1175.58 449.727 1177.89 454.148 1180.5 459.327 L 1178.48 462.918 C 1176.53 471.728 1175.98 479.461 1168.87 485.529 C 1164.87 487.328 1162.78 491.197 1160.79 494.961 C 1158.87 501.737 1148.9 510.243 1142.44 512.853 C 1117.14 523.07 1105.63 503.605 1116.15 480.734 C 1120.06 481.002 1128.17 483.346 1132.3 484.409 C 1130.53 482.713 1126.73 479.011 1125.26 477.278 C 1117.03 467.543 1129.21 444.074 1135.87 435.133 z"/>
<path transform="translate(0,0)" fill="rgb(236,246,242)" d="M 1169.53 471.001 L 1178.48 462.918 C 1176.53 471.728 1175.98 479.461 1168.87 485.529 C 1164.87 487.328 1162.78 491.197 1160.79 494.961 C 1159.23 493.737 1159.03 493.371 1157.82 491.863 C 1157.58 486.168 1159.56 482.898 1162.31 477.952 L 1169.53 471.001 z"/>
<path transform="translate(0,0)" fill="rgb(26,29,47)" d="M 1172.63 444.689 C 1175.58 449.727 1177.89 454.148 1180.5 459.327 L 1178.48 462.918 L 1169.53 471.001 L 1167.1 468.858 C 1170.44 466.673 1172.74 465.735 1172.17 461.375 C 1169.93 459.138 1169.23 458.823 1166.47 457.172 C 1167.1 453.404 1170.57 448.215 1172.63 444.689 z"/>
<path transform="translate(0,0)" fill="rgb(55,34,31)" d="M 1167.1 468.858 L 1169.53 471.001 L 1162.31 477.952 C 1162.69 472.834 1162.46 471.262 1167.1 468.858 z"/>
<path transform="translate(0,0)" fill="rgb(55,34,31)" d="M 1136.07 460.221 C 1140.4 459.889 1143.69 458.99 1146.83 461.528 L 1146.74 464.105 C 1143.54 465.497 1142.35 466.406 1138.98 465.742 C 1136.37 463.28 1137.23 464.332 1136.07 460.221 z"/>
<path transform="translate(0,0)" fill="rgb(55,34,31)" d="M 1151.17 435.186 C 1159.62 434.419 1163.72 438.748 1163.94 446.808 C 1160.68 441.375 1158.94 440.092 1152.98 437.672 L 1152.03 437.291 L 1151.17 435.186 z"/>
<path transform="translate(0,0)" fill="rgb(197,168,70)" d="M 1175.48 281.747 L 1177.41 283.104 C 1180.56 283.672 1182.02 284.491 1182.99 287.897 C 1180.81 293.746 1179.97 295.919 1176.78 301.212 L 1176.85 301.703 C 1174.37 305.15 1167.36 313.77 1165.79 316.837 L 1163.98 317.803 L 1161.22 320.837 L 1159.59 322.442 C 1152.74 327.365 1148.83 329.918 1140.91 333.505 L 1130.59 336.266 C 1125.7 336.745 1120.8 337.124 1115.89 337.402 C 1115.02 337.157 1113.08 336.169 1112.17 335.738 C 1106.57 334.62 1100.84 331.465 1095.44 329.225 L 1090.58 324.827 C 1083.1 318.331 1082.31 313.599 1076.24 307.486 C 1075 303.992 1073.95 299.634 1072.97 295.99 L 1070.79 293.341 L 1073.16 287.358 C 1068.28 286.16 1069.92 286.798 1064.11 289.605 L 1065.49 289.029 C 1065.45 286.466 1065.95 286.885 1068.38 284.284 C 1071.1 285.176 1077.9 287.628 1080.35 288.187 C 1083.55 302.049 1088.96 314.419 1101.7 322.094 L 1106.12 324.819 C 1118.76 328.912 1124.17 328.764 1136.99 325.833 C 1146.9 321.807 1152.91 317.128 1160.27 309.677 C 1164.65 304.387 1168.38 299.297 1171.33 293.086 C 1173.69 288.509 1174.8 286.806 1175.48 281.747 z"/>
<path transform="translate(0,0)" fill="rgb(250,226,121)" d="M 1073.16 287.358 C 1074.26 287.914 1075.6 288.592 1077.19 289.391 C 1086.7 307.446 1086.43 318.66 1108.29 327.577 C 1118.6 331.651 1127.48 330.215 1137.71 327.339 L 1140.91 333.505 L 1130.59 336.266 C 1125.7 336.745 1120.8 337.124 1115.89 337.402 C 1115.02 337.157 1113.08 336.169 1112.17 335.738 C 1106.57 334.62 1100.84 331.465 1095.44 329.225 L 1090.58 324.827 C 1083.1 318.331 1082.31 313.599 1076.24 307.486 C 1075 303.992 1073.95 299.634 1072.97 295.99 L 1070.79 293.341 L 1073.16 287.358 z"/>
<path transform="translate(0,0)" fill="rgb(253,239,178)" d="M 1160.42 312.334 C 1161.4 313.789 1163.26 316.344 1163.98 317.803 L 1161.22 320.837 L 1159.59 322.442 C 1152.74 327.365 1148.83 329.918 1140.91 333.505 L 1137.71 327.339 C 1147.54 323.131 1152.73 319.44 1160.42 312.334 z"/>
<path transform="translate(0,0)" fill="rgb(250,226,121)" d="M 1160.42 312.334 C 1165.36 306.814 1167.71 303.15 1171.74 297.018 C 1174.11 299.955 1173.51 300.148 1176.78 301.212 L 1176.85 301.703 C 1174.37 305.15 1167.36 313.77 1165.79 316.837 L 1163.98 317.803 C 1163.26 316.344 1161.4 313.789 1160.42 312.334 z"/>
<path transform="translate(0,0)" fill="rgb(253,239,178)" d="M 1177.41 283.104 C 1180.56 283.672 1182.02 284.491 1182.99 287.897 C 1180.81 293.746 1179.97 295.919 1176.78 301.212 C 1173.51 300.148 1174.11 299.955 1171.74 297.018 C 1173.76 292.542 1175.59 287.688 1177.41 283.104 z"/>
<path transform="translate(0,0)" fill="rgb(94,53,49)" d="M 1132.47 417.032 C 1131.72 410.767 1131.1 404.926 1137.81 402.156 C 1143.8 403.422 1183.31 430.339 1187.39 434.922 L 1185.71 438.61 C 1184.54 443.144 1181.09 455.285 1180.5 459.327 C 1177.89 454.148 1175.58 449.727 1172.63 444.689 C 1170.65 438.594 1163.31 436.1 1157.8 434.526 C 1146.29 433.083 1145.83 435.259 1135.87 435.133 L 1133.68 434.38 C 1134.97 429.083 1125.35 424.181 1132.47 417.032 z"/>
<path transform="translate(0,0)" fill="rgb(55,34,31)" d="M 1132.47 417.032 C 1138.52 415.177 1146.42 415.492 1151.54 419.514 C 1145.17 418.755 1138.83 417.747 1132.47 417.032 z"/>
<path transform="translate(0,0)" fill="rgb(195,144,28)" d="M 1159.59 322.442 L 1161.22 320.837 C 1165.24 322.704 1172.86 325.767 1175.74 328.689 C 1165.67 336.108 1154.85 341.915 1141.97 342.427 C 1130.29 342.57 1126.78 341.047 1115.89 337.402 C 1120.8 337.124 1125.7 336.745 1130.59 336.266 L 1140.91 333.505 C 1148.83 329.918 1152.74 327.365 1159.59 322.442 z"/>
<path transform="translate(0,0)" fill="rgb(174,124,18)" d="M 1159.59 322.442 L 1161.22 320.837 C 1165.24 322.704 1172.86 325.767 1175.74 328.689 C 1171.35 328.421 1163.88 324.434 1159.59 322.442 z"/>
<path transform="translate(0,0)" fill="rgb(250,202,53)" d="M 1176.85 301.703 C 1179.63 304.916 1187.67 308.008 1191.93 309.783 C 1189.46 313.516 1187.22 316.933 1184.49 320.483 L 1181.7 323.386 L 1175.74 328.689 C 1172.86 325.767 1165.24 322.704 1161.22 320.837 L 1163.98 317.803 L 1165.79 316.837 C 1167.36 313.77 1174.37 305.15 1176.85 301.703 z"/>
<path transform="translate(0,0)" fill="rgb(195,144,28)" d="M 1165.79 316.837 C 1171.31 318.403 1176.43 321.105 1181.7 323.386 L 1175.74 328.689 C 1172.86 325.767 1165.24 322.704 1161.22 320.837 L 1163.98 317.803 L 1165.79 316.837 z"/>
<path transform="translate(0,0)" fill="rgb(4,86,80)" d="M 1185.45 321.123 L 1189.02 320.845 L 1191.23 322.091 C 1193.52 330.844 1195.4 346.668 1196.95 356.121 C 1199.98 373.753 1203.36 391.324 1207.09 408.823 L 1207.43 410.338 C 1197.12 424.874 1186.56 457.852 1183.07 475.646 L 1184.02 477.284 C 1185.96 477.203 1186.88 477 1188.76 477.42 C 1186.84 479.677 1172.6 484.441 1168.87 485.529 C 1175.98 479.461 1176.53 471.728 1178.48 462.918 L 1180.5 459.327 C 1181.09 455.285 1184.54 443.144 1185.71 438.61 L 1187.39 434.922 C 1188.02 427.234 1189.98 425.113 1194.32 418.633 C 1193.11 407.473 1183.7 325.868 1185.45 321.123 z"/>
<path transform="translate(0,0)" fill="rgb(168,51,50)" d="M 1091.82 612.043 L 1093.36 612.091 C 1118.58 614.877 1155.68 623.721 1172.92 643.768 C 1169.09 643.397 1157.42 638.523 1152.93 636.862 C 1136.95 630.953 1110.11 622.819 1093.31 623.042 C 1092.59 624.921 1092.61 624.846 1091.34 626.415 L 1090.83 622.882 C 1090.85 619.872 1091.48 615.157 1091.82 612.043 z"/>
<path transform="translate(0,0)" fill="rgb(94,53,49)" d="M 1091.82 612.043 L 1093.36 612.091 C 1093.23 615.756 1092.99 619.395 1093.31 623.042 C 1092.59 624.921 1092.61 624.846 1091.34 626.415 L 1090.83 622.882 C 1090.85 619.872 1091.48 615.157 1091.82 612.043 z"/>
<path transform="translate(0,0)" fill="rgb(4,86,80)" d="M 1090.58 324.827 L 1095.44 329.225 C 1094.08 337.992 1087.07 392.575 1084.41 398.686 L 1081.68 401.727 C 1078.23 401.499 1075.97 398.428 1072.09 396.786 L 1072.03 396.314 C 1076.58 390.109 1087.71 336.585 1090.58 324.827 z"/>
<path transform="translate(0,0)" fill="url(#Gradient1)" d="M 1072.09 396.786 C 1075.97 398.428 1078.23 401.499 1081.68 401.727 L 1084.41 398.686 C 1084.23 399.837 1083.6 404.268 1084 405.106 C 1091.99 421.891 1093.28 449.629 1100.36 465.483 C 1098.89 464.897 1092.77 462.318 1092.41 461.065 C 1086.94 442.146 1083.98 416.324 1073.52 399.209 L 1072.09 396.786 z"/>
<path transform="translate(0,0)" fill="rgb(168,51,50)" d="M 1051.18 622.229 C 1051.55 620.699 1052.63 618.39 1053.28 616.853 C 1061.64 609.801 1080.61 611.852 1091.82 612.043 C 1091.48 615.157 1090.85 619.872 1090.83 622.882 C 1082.6 619.448 1060.22 621.346 1051.18 622.229 z"/>
<path transform="translate(0,0)" fill="rgb(4,86,80)" d="M 1073.52 399.209 C 1068.72 397.149 1063.35 395.165 1059.29 391.969 L 1060.15 392.575 L 1061.36 391.638 C 1064.53 392.476 1068.94 394.816 1072.03 396.314 L 1072.09 396.786 L 1073.52 399.209 z"/>
<path transform="translate(0,0)" fill="rgb(4,86,80)" d="M 1207.09 408.823 C 1211.34 407.022 1214.37 405.475 1218.98 404.975 L 1218.81 405.925 C 1214.66 408.189 1211.95 408.919 1207.43 410.338 L 1207.09 408.823 z"/>
<path transform="translate(0,0)" fill="rgb(199,67,67)" d="M 1051.18 622.229 C 1060.22 621.346 1082.6 619.448 1090.83 622.882 L 1091.34 626.415 C 1092.61 624.846 1092.59 624.921 1093.31 623.042 C 1110.11 622.819 1136.95 630.953 1152.93 636.862 C 1157.42 638.523 1169.09 643.397 1172.92 643.768 C 1182.7 652.86 1183.61 657.194 1186.27 670.035 C 1186.67 680.117 1201.02 717.339 1204.77 728.826 C 1218.06 769.525 1234.25 811.11 1247 851.881 L 1243.99 856.238 C 1240.65 854.313 1235.33 851.006 1231.55 851.889 C 1227.84 849.462 1221.35 850.031 1217.17 850.942 C 1210.7 852.398 1204.72 855.511 1199.81 859.975 C 1197.81 862.576 1195.81 864.892 1194.46 867.864 C 1189.39 859.759 1177.71 825.35 1173.41 814.267 L 1116.86 667.974 C 1098.47 670.484 1085.6 667.366 1068.23 662.169 C 1054.18 665.61 1029.58 674.24 1015.2 678.821 L 910.349 712.183 L 823.108 739.599 C 809.383 743.857 788.135 749.646 775.527 754.719 C 775.334 757.721 775.134 759.987 774.26 762.917 C 774.24 752.053 772.98 740.314 765.01 732.234 C 761.518 729.439 759.986 729.197 755.733 727.897 C 779.729 718.406 807.867 709.131 832.399 700.391 L 975.964 649.256 C 985.123 645.996 1037.81 627.876 1042.22 624.772 C 1044.2 624.705 1049.06 622.923 1051.18 622.229 z"/>
<path transform="translate(0,0)" fill="rgb(94,53,49)" d="M 1184.63 736.981 C 1189.85 736.573 1195.62 736.714 1198.81 741.581 C 1196.46 741.779 1194.91 740.047 1192.49 738.438 C 1185.34 738.556 1184.22 740.559 1177.21 741.975 C 1179.01 739.27 1181.61 738.447 1184.63 736.981 z"/>
<path transform="translate(0,0)" fill="rgb(98,167,128)" d="M 351.548 832.287 C 353.795 816.922 360.07 800.95 358.999 785.396 C 356.276 745.88 296.266 699.774 289.519 637.123 C 287.426 617.684 289.576 593.74 302.397 578.158 C 308.546 570.61 317.493 565.878 327.193 565.045 C 335.513 564.281 342.327 565.956 348.034 572.269 C 366.855 593.087 384.734 702.945 392.706 736.029 C 397.423 755.606 402.836 775.418 411.241 793.769 C 413.2 798.046 416.786 806.44 420.426 809.237 C 420.709 809.455 421.007 809.655 421.297 809.863 C 422.796 817.829 432.205 869.703 430.58 873.311 L 430.389 875.237 C 434.576 879.894 436.812 904.808 438.633 913.232 C 381.216 906.162 345.025 901.412 351.548 832.287 z"/>
<path transform="translate(0,0)" fill="rgb(15,34,29)" d="M 430.389 875.237 C 369.341 864.37 388.606 814.904 376.954 772.292 C 363.236 722.122 323.576 677.609 325.183 623.069 C 325.351 617.379 326.81 602.144 330.623 598.575 C 331.104 600.797 328.526 611.987 328.121 615.686 C 320.978 680.946 377.729 731.257 383.343 794.133 C 385.14 814.259 383.047 834.207 394.582 852.381 C 403.649 867.001 415.048 869.39 430.58 873.311 L 430.389 875.237 z"/>
<path transform="translate(0,0)" fill="rgb(65,125,91)" d="M 435.539 975.422 C 433.06 964.637 414.049 952.805 403.037 951.634 C 377.217 948.889 355.142 969.533 331.953 949.759 C 308.93 930.128 324.346 902.884 311.915 880.27 C 300.1 860.401 266.468 860.84 246.578 858.031 C 205.316 850.295 199.86 814.496 207.05 778.701 C 210.155 755.851 234.315 716.522 261.265 722.43 C 289.002 728.511 289.016 791.129 304.459 811.491 C 317.452 828.622 332.892 828.166 351.548 832.287 C 345.025 901.412 381.216 906.162 438.633 913.232 C 441.575 935 445.844 958.005 449.519 979.758 C 445.152 978.229 440.019 976.794 435.539 975.422 z"/>
<path transform="translate(0,0)" fill="rgb(15,34,29)" d="M 242.454 751.746 C 245.627 756.321 235.204 794.195 255.828 819.354 C 274.273 841.855 344.319 847.595 351.071 856.809 C 349.146 856.482 347.232 856.088 345.333 855.629 C 327.726 851.181 278.139 837.972 265.287 829.944 C 258.581 825.754 253.006 819.984 249.049 813.138 C 239.416 796.767 237.59 769.928 242.454 751.746 z"/>
<path transform="translate(0,0)" fill="rgb(98,167,128)" d="M 746.098 907.832 C 783.42 861.448 837.13 805.244 898.596 794.083 C 905.077 792.906 914.881 793.962 918.354 800.428 C 918.353 803.348 917.786 806.682 915.247 808.44 C 898.651 819.936 867.559 829.39 869.401 855.758 C 870.454 870.837 884.964 905.224 851.76 905.411 C 832.528 905.519 811.49 896.387 794.419 913.532 C 782.599 924.527 779.773 945.62 779.755 961.539 C 779.754 962.928 779.778 964.316 779.828 965.704 C 773.851 968.655 760.174 974.32 757.361 979.69 C 755.895 973.859 754.505 961.559 753.264 954.719 L 753.115 952.026 C 751.448 944.621 746.188 914.27 746.098 907.832 z"/>
<path transform="translate(0,0)" fill="rgb(15,34,29)" d="M 753.115 952.026 C 776.508 899.469 813.486 857.12 860.908 824.814 C 867.536 820.299 889.159 805.512 896.457 804.149 L 896.987 804.961 C 894.785 807.352 870.474 820.936 865.35 824.372 C 846.662 836.895 829.289 851.279 813.498 867.302 C 795.958 885.358 780.599 905.412 767.737 927.051 C 764.51 932.585 756.04 951.692 753.264 954.719 L 753.115 952.026 z"/>
<path transform="translate(0,0)" fill="rgb(168,51,50)" d="M 1068.23 662.169 C 1085.6 667.366 1098.47 670.484 1116.86 667.974 L 1173.41 814.267 C 1177.71 825.35 1189.39 859.759 1194.46 867.864 C 1193.88 871.17 1193.04 875.209 1192.62 878.467 L 1113.17 693.485 C 1103.52 692.418 1083.66 687.787 1075.16 688.949 C 1066.03 690.196 1048.77 695.848 1039.42 698.667 L 980.824 716.291 L 770.592 778.845 C 773.544 773.239 774.101 769.993 773.924 763.784 L 774.26 762.917 C 775.134 759.987 775.334 757.721 775.527 754.719 C 788.135 749.646 809.383 743.857 823.108 739.599 L 910.349 712.183 L 1015.2 678.821 C 1029.58 674.24 1054.18 665.61 1068.23 662.169 z"/>
<path transform="translate(0,0)" fill="rgb(21,112,104)" d="M 294.112 979.389 C 316.986 947.718 404.777 966.626 435.539 975.422 C 440.019 976.794 445.152 978.229 449.519 979.758 C 450.434 985.193 454.32 1006.09 453.74 1010.38 L 453.526 1012.06 C 457.251 1018.01 467.959 1091.93 470.161 1104.67 C 457.962 1093.28 449.374 1082.07 439.171 1069.05 C 421.146 1046.05 407.42 1020.69 377.207 1012.26 C 364.932 1008.62 352.827 1007.3 340.181 1005.9 C 327.528 1004.5 283.449 1004.25 293.655 981.223 L 294.112 979.389 z"/>
<path transform="translate(0,0)" fill="rgb(21,112,104)" d="M 294.112 979.389 C 316.986 947.718 404.777 966.626 435.539 975.422 C 440.019 976.794 445.152 978.229 449.519 979.758 C 450.434 985.193 454.32 1006.09 453.74 1010.38 L 453.526 1012.06 C 446.693 1009.73 428.064 999.281 418.664 995.687 C 372.24 977.943 341.383 976.103 293.655 981.223 L 294.112 979.389 z"/>
<path transform="translate(0,0)" fill="rgb(15,34,29)" d="M 294.112 979.389 C 350.945 970.233 403.922 982.029 453.74 1010.38 L 453.526 1012.06 C 446.693 1009.73 428.064 999.281 418.664 995.687 C 372.24 977.943 341.383 976.103 293.655 981.223 L 294.112 979.389 z"/>
<path transform="translate(0,0)" fill="rgb(98,167,128)" d="M 1326.86 1060.87 C 1330.6 1060.13 1333.28 1061.26 1336.29 1059.4 C 1337.98 1055.5 1337.06 1047.43 1335.52 1043.44 C 1326.33 1020.54 1298.11 1031.57 1279.84 1022.68 C 1251.96 1009.11 1263.28 949.968 1290.07 942.327 C 1317.39 939.041 1313.34 990.817 1331.11 1000.85 C 1336.81 1004.07 1383.32 1013.12 1385.61 1012.22 C 1386.37 1016.61 1388.37 1027.52 1387.96 1031.41 L 1387.38 1033.28 L 1389.82 1034.99 L 1391.78 1035.55 L 1393.02 1035.55 C 1393.08 1040.97 1392.54 1068.64 1394.01 1071.77 L 1391.31 1072.05 L 1388.74 1072.14 C 1388.31 1074.16 1387.84 1075.46 1387.94 1077.49 C 1387.99 1081.11 1388.24 1084.44 1387.43 1087.95 C 1383.3 1086.03 1378.58 1084.09 1375.1 1081.24 C 1361.01 1087.94 1349.87 1085.19 1341.23 1072.48 L 1340.27 1070.14 C 1339.38 1067.63 1338.44 1065.14 1337.47 1062.66 C 1334.11 1060.43 1331.46 1061.08 1326.86 1060.87 z"/>
<path transform="translate(0,0)" fill="rgb(250,202,53)" d="M 1389.82 1034.99 L 1391.78 1035.55 L 1393.02 1035.55 C 1393.08 1040.97 1392.54 1068.64 1394.01 1071.77 L 1391.31 1072.05 L 1388.74 1072.14 C 1383.08 1071.88 1375.86 1072 1370.08 1071.94 L 1370.15 1065.55 C 1371.87 1059.7 1371.08 1042.8 1370.94 1035.76 L 1371 1035.21 L 1389.82 1034.99 z"/>
<path transform="translate(0,0)" fill="rgb(195,144,28)" d="M 1391.78 1035.55 L 1393.02 1035.55 C 1393.08 1040.97 1392.54 1068.64 1394.01 1071.77 L 1391.31 1072.05 L 1391.78 1035.55 z"/>
<path transform="translate(0,0)" fill="rgb(250,202,53)" d="M 1368.88 1072.07 C 1365.12 1072.11 1363.79 1072.12 1360.01 1071.5 C 1356.55 1067.63 1357.08 1041.66 1359.23 1036.41 C 1362.26 1034.43 1365.11 1035 1368.88 1035.11 L 1371 1035.21 L 1370.94 1035.76 C 1371.08 1042.8 1371.87 1059.7 1370.15 1065.55 L 1370.08 1071.94 L 1368.88 1072.07 z"/>
<path transform="translate(0,0)" fill="rgb(195,144,28)" d="M 1368.88 1035.11 L 1371 1035.21 L 1370.94 1035.76 C 1371.08 1042.8 1371.87 1059.7 1370.15 1065.55 L 1370.08 1071.94 L 1368.88 1072.07 L 1368.88 1035.11 z"/>
<path transform="translate(0,0)" fill="rgb(238,199,93)" d="M 1370.15 1065.55 C 1370 1059.36 1369.17 1040.8 1370.94 1035.76 C 1371.08 1042.8 1371.87 1059.7 1370.15 1065.55 z"/>
<path transform="translate(0,0)" fill="rgb(15,34,29)" d="M 1387.38 1033.28 C 1377.17 1028.97 1366.63 1025.51 1355.85 1022.94 C 1350.39 1021.61 1340.62 1019.25 1335.64 1018.48 C 1301.12 1013.11 1280.4 1002.16 1285.08 962.888 C 1285.24 961.603 1285.27 962.116 1286.41 961.293 C 1287.71 964.994 1285.8 983.561 1290.57 992.182 C 1292.19 996.455 1296.89 1003.88 1301.45 1005.8 C 1329.98 1017.84 1358.83 1018.61 1387.96 1031.41 L 1387.38 1033.28 z"/>
<path transform="translate(0,0)" fill="rgb(15,34,29)" d="M 1375.1 1081.24 C 1380.61 1080.75 1382.94 1083.34 1386.29 1082.55 L 1387.94 1077.49 C 1387.99 1081.11 1388.24 1084.44 1387.43 1087.95 C 1383.3 1086.03 1378.58 1084.09 1375.1 1081.24 z"/>
<path transform="translate(0,0)" fill="rgb(253,239,178)" d="M 1113.96 213.879 C 1125.99 235.734 1136.29 261.763 1147.65 284.175 C 1150.43 289.667 1157.15 305.266 1160.27 309.677 C 1152.91 317.128 1146.9 321.807 1136.99 325.833 C 1124.17 328.764 1118.76 328.912 1106.12 324.819 L 1101.7 322.094 C 1088.96 314.419 1083.55 302.049 1080.35 288.187 C 1081.02 285.831 1081.59 285.555 1083.42 283.769 C 1085.96 280.331 1084.72 281.001 1088.02 280.338 C 1090.19 278.673 1091.13 275.042 1090.7 272.442 C 1088.25 269.443 1083.24 268.038 1079.66 265.531 C 1083.02 251.901 1085.64 244.507 1093.15 232.775 C 1098.31 225.233 1106.27 218.719 1113.96 213.879 z"/>
<path transform="translate(0,0)" fill="rgb(250,226,121)" d="M 1093.15 232.775 C 1106.73 263.751 1122.79 294.984 1136.99 325.833 C 1124.17 328.764 1118.76 328.912 1106.12 324.819 L 1101.7 322.094 C 1088.96 314.419 1083.55 302.049 1080.35 288.187 C 1081.02 285.831 1081.59 285.555 1083.42 283.769 C 1085.96 280.331 1084.72 281.001 1088.02 280.338 C 1090.19 278.673 1091.13 275.042 1090.7 272.442 C 1088.25 269.443 1083.24 268.038 1079.66 265.531 C 1083.02 251.901 1085.64 244.507 1093.15 232.775 z"/>
<path transform="translate(0,0)" fill="rgb(250,226,121)" d="M 1080.35 288.187 C 1081.02 285.831 1081.59 285.555 1083.42 283.769 C 1087.65 290.441 1099.09 314.638 1101.7 322.094 C 1088.96 314.419 1083.55 302.049 1080.35 288.187 z"/>
<path transform="translate(0,0)" fill="rgb(253,239,178)" d="M 1083.42 283.769 C 1085.96 280.331 1084.72 281.001 1088.02 280.338 C 1093.61 291.738 1098.65 303.466 1104.19 314.904 C 1106.06 318.76 1107.49 320.747 1106.12 324.819 L 1101.7 322.094 C 1099.09 314.638 1087.65 290.441 1083.42 283.769 z"/>
<path transform="translate(0,0)" fill="rgb(127,175,218)" d="M 1637.72 867.814 C 1641.26 869.268 1644.62 870.495 1647.85 872.572 C 1651.5 876.467 1652.39 877.429 1654.91 882.083 L 1655.21 883.226 C 1656.08 886.045 1658.13 893.883 1659.79 895.667 L 1660.23 895.084 L 1660.95 896.397 C 1659.41 900.667 1665 913.989 1666.78 918.938 C 1624.31 919.531 1581.12 918.733 1538.58 919.042 C 1527.69 919.121 1482.98 919.774 1475.6 918.128 C 1487.38 913.732 1529.25 901.712 1537.32 896.943 C 1549.18 894.959 1591.65 880.227 1605.28 875.811 C 1610.55 874.105 1615.81 872.352 1621.05 870.552 C 1626.38 868.353 1632.05 868.05 1637.72 867.814 z"/>
<path transform="translate(0,0)" fill="rgb(21,112,104)" d="M 779.828 965.704 C 801.715 954.936 848.3 937.453 870.653 952.85 L 871.465 954.251 C 883.568 971.217 838.725 979.138 827.835 983.167 C 792.102 996.389 788.314 1027.99 770.508 1057.04 C 767.183 1038.27 764.066 1019.46 761.157 1000.61 L 760.743 998.731 C 759.66 992.376 758.532 986.029 757.361 979.69 C 760.174 974.32 773.851 968.655 779.828 965.704 z"/>
<path transform="translate(0,0)" fill="rgb(21,112,104)" d="M 779.828 965.704 C 801.715 954.936 848.3 937.453 870.653 952.85 C 824.174 955.976 796.481 969.756 760.743 998.731 C 759.66 992.376 758.532 986.029 757.361 979.69 C 760.174 974.32 773.851 968.655 779.828 965.704 z"/>
<path transform="translate(0,0)" fill="rgb(15,34,29)" d="M 870.653 952.85 L 871.465 954.251 C 865.912 955.353 860.161 955.974 854.617 956.585 C 823.357 960.029 793.764 974.904 769.44 994.414 C 767.162 996.241 763.577 999.197 761.157 1000.61 L 760.743 998.731 C 796.481 969.756 824.174 955.976 870.653 952.85 z"/>
<path transform="translate(0,0)" fill="rgb(98,167,128)" d="M 1605.28 875.811 C 1612 855.026 1612.4 831.837 1621.09 811.402 C 1627.51 796.281 1636.9 782.154 1652.45 775.509 C 1674.39 766.001 1693.4 782.948 1683.17 805.728 C 1671.89 830.838 1648.78 842.645 1637.72 867.814 C 1632.05 868.05 1626.38 868.353 1621.05 870.552 C 1615.81 872.352 1610.55 874.105 1605.28 875.811 z"/>
<path transform="translate(0,0)" fill="rgb(15,34,29)" d="M 1665.16 791.771 L 1665.55 793.596 C 1639.4 815.508 1639.35 820.494 1628.01 853.674 C 1626.46 858.192 1623.81 866.9 1621.05 870.552 C 1619.44 865.482 1634.47 828.149 1637.71 822.153 C 1644.46 809.686 1652.69 798.977 1665.16 791.771 z"/>
<path transform="translate(0,0)" fill="rgb(26,29,47)" d="M 1264.22 837.219 C 1281.69 829.98 1287.33 837.185 1283.94 854.666 C 1279.98 875.058 1269.95 891.215 1254.1 904.59 C 1253.68 904.943 1255.02 909.249 1255.32 909.989 C 1249.93 911.774 1240.94 905.157 1234.62 902.547 C 1223.8 909.049 1224.05 912.563 1216.85 920.056 L 1215.77 915.397 C 1214.81 911.018 1212.43 901.453 1210.56 897.723 C 1210.47 893.559 1206.54 880.551 1205.27 875.972 L 1199.81 859.975 C 1204.72 855.511 1210.7 852.398 1217.17 850.942 C 1221.35 850.031 1227.84 849.462 1231.55 851.889 C 1235.33 851.006 1240.65 854.313 1243.99 856.238 L 1247 851.881 C 1252.7 845.343 1256.1 840.677 1264.22 837.219 z"/>
<path transform="translate(0,0)" fill="rgb(150,109,93)" d="M 1247 851.881 C 1252.7 845.343 1256.1 840.677 1264.22 837.219 C 1242.56 858.762 1245.9 865.235 1232.89 890.578 C 1228.53 899.072 1219.32 902.339 1215.77 915.397 C 1214.81 911.018 1212.43 901.453 1210.56 897.723 C 1210.47 893.559 1206.54 880.551 1205.27 875.972 L 1199.81 859.975 C 1204.72 855.511 1210.7 852.398 1217.17 850.942 C 1221.35 850.031 1227.84 849.462 1231.55 851.889 C 1235.33 851.006 1240.65 854.313 1243.99 856.238 L 1247 851.881 z"/>
<path transform="translate(0,0)" fill="rgb(252,187,150)" d="M 1199.81 859.975 C 1204.72 855.511 1210.7 852.398 1217.17 850.942 C 1221.35 850.031 1227.84 849.462 1231.55 851.889 L 1233.72 858.028 C 1220.29 857.207 1211.1 864.062 1205.27 875.972 L 1199.81 859.975 z"/>
<path transform="translate(0,0)" fill="rgb(26,29,47)" d="M 1231.55 851.889 C 1235.33 851.006 1240.65 854.313 1243.99 856.238 C 1241.65 861.673 1238.39 866.503 1234.57 871.019 L 1234.12 868.55 L 1234.73 865.52 L 1235.36 864.417 L 1236.33 863.338 L 1233.72 858.028 L 1231.55 851.889 z"/>
<path transform="translate(0,0)" fill="rgb(55,34,31)" d="M 1234.57 871.019 C 1233.76 872.685 1224.31 885.111 1222.62 887.24 L 1222.04 886.588 C 1223.28 882.952 1228.53 876.405 1231.03 873.001 L 1230.54 872.137 L 1228.58 872.188 C 1224.46 874.623 1220.79 879.862 1217.7 883.714 L 1217.25 883.333 C 1221 874.278 1224.87 871.731 1234.12 868.55 L 1234.57 871.019 z"/>
<path transform="translate(0,0)" fill="rgb(55,34,31)" d="M 1234.73 865.52 C 1221.54 864.354 1220.13 873.429 1213.88 879.049 C 1212.61 877.29 1213.05 878.326 1213.23 875.627 C 1216.9 869.152 1227.55 863.081 1235.36 864.417 L 1234.73 865.52 z"/>
<path transform="translate(0,0)" fill="rgb(199,67,67)" d="M 1372.44 933.668 C 1371.46 931.095 1369.72 918.908 1369.09 915.669 C 1368.15 913.214 1369.17 900.784 1372.01 899.783 C 1386.74 894.594 1423.31 896.637 1437.68 896.641 C 1470.89 896.551 1504.11 896.651 1537.32 896.943 C 1529.25 901.712 1487.38 913.732 1475.6 918.128 C 1454.02 921.399 1418.63 916.291 1396.25 920.05 C 1393.82 920.458 1390.51 923.73 1388.72 925.625 C 1383.65 929.734 1380.78 933.632 1374.9 933.009 C 1374.34 932.945 1373.78 932.872 1373.21 932.789 L 1372.44 933.668 z"/>
<path transform="translate(0,0)" fill="rgb(250,226,121)" d="M 1130.04 208.097 C 1133.9 208.108 1140.13 207.946 1143.76 208.363 C 1148.56 216.692 1168.83 263.928 1172.64 266.791 C 1176.52 271.892 1174.72 276.856 1175.48 281.747 C 1174.8 286.806 1173.69 288.509 1171.33 293.086 C 1168.38 299.297 1164.65 304.387 1160.27 309.677 C 1157.15 305.266 1150.43 289.667 1147.65 284.175 C 1136.29 261.763 1125.99 235.734 1113.96 213.879 C 1118.85 210.882 1124.52 209.592 1130.04 208.097 z"/>
<path transform="translate(0,0)" fill="rgb(253,239,178)" d="M 1130.04 208.097 C 1133.9 208.108 1140.13 207.946 1143.76 208.363 C 1148.56 216.692 1168.83 263.928 1172.64 266.791 C 1176.52 271.892 1174.72 276.856 1175.48 281.747 C 1174.8 286.806 1173.69 288.509 1171.33 293.086 C 1156.88 268.151 1143.52 234.627 1130.04 208.097 z"/>
<path transform="translate(0,0)" fill="rgb(21,112,104)" d="M 1291.23 1072.49 C 1301.4 1062.67 1313.19 1061.36 1326.86 1060.87 C 1331.46 1061.08 1334.11 1060.43 1337.47 1062.66 C 1338.44 1065.14 1339.38 1067.63 1340.27 1070.14 L 1341.23 1072.48 C 1349.87 1085.19 1361.01 1087.94 1375.1 1081.24 C 1378.58 1084.09 1383.3 1086.03 1387.43 1087.95 C 1388.08 1093.45 1387.53 1102.42 1388.38 1106.48 L 1388.48 1108.11 C 1386.01 1108.13 1379.3 1108.35 1377.25 1107.78 C 1375.96 1109.38 1374.25 1111.32 1373.24 1113.05 C 1364.67 1106.15 1360.28 1096.38 1347.37 1090.06 C 1332.21 1082.63 1301.47 1090.36 1291.65 1081.07 C 1290.08 1078.14 1290.17 1077.68 1290.72 1074.38 L 1291.23 1072.49 z"/>
<path transform="translate(0,0)" fill="rgb(21,112,104)" d="M 1291.23 1072.49 C 1301.4 1062.67 1313.19 1061.36 1326.86 1060.87 C 1331.46 1061.08 1334.11 1060.43 1337.47 1062.66 C 1338.44 1065.14 1339.38 1067.63 1340.27 1070.14 C 1319.49 1068.26 1311.85 1068.68 1291.23 1072.49 z"/>
<path transform="translate(0,0)" fill="rgb(15,34,29)" d="M 1291.23 1072.49 C 1311.85 1068.68 1319.49 1068.26 1340.27 1070.14 L 1341.23 1072.48 C 1326.52 1070.89 1314.74 1070.83 1300.05 1073.28 C 1297.75 1073.66 1292.69 1074.64 1290.72 1074.38 L 1291.23 1072.49 z"/>
<path transform="translate(0,0)" fill="rgb(21,112,104)" d="M 1647.85 872.572 C 1664.87 853.991 1690.18 830.413 1716.86 825.773 C 1720.21 825.191 1724.84 827.304 1725.28 831.21 C 1717.64 839.379 1702.7 840.622 1702.57 853.115 C 1702.52 858.538 1705.71 867.624 1701.84 871.836 C 1692.64 881.857 1676.85 867.482 1667.24 878.601 C 1662.97 883.548 1661.53 888.929 1660.23 895.084 L 1659.79 895.667 C 1658.13 893.883 1656.08 886.045 1655.21 883.226 L 1654.91 882.083 C 1652.39 877.429 1651.5 876.467 1647.85 872.572 z"/>
<path transform="translate(0,0)" fill="rgb(15,34,29)" d="M 1654.91 882.083 C 1665.8 866.443 1677.68 853.449 1693.61 842.714 C 1698.11 839.689 1711.56 829.912 1716.48 831.181 C 1714.83 833.166 1711.83 834.322 1709.4 835.622 C 1696.39 842.733 1684.38 851.55 1673.7 861.838 C 1669.29 866.034 1658.23 881.916 1655.21 883.226 L 1654.91 882.083 z"/>
<path transform="translate(0,0)" fill="rgb(252,187,150)" d="M 1179.62 258.911 L 1181.08 259.426 L 1188.09 259.667 C 1194.8 260.726 1196.59 261.024 1200.97 266.437 L 1204.93 267.735 C 1209.1 272.73 1211.27 274.764 1213.48 281.106 C 1217.48 299.208 1218.1 304.537 1219.1 323.302 C 1211.69 321.439 1206.52 320.864 1198.96 319.958 C 1199.22 313.149 1200.42 308.304 1196.3 303.609 L 1192.98 308.44 L 1191.93 309.783 C 1187.67 308.008 1179.63 304.916 1176.85 301.703 L 1176.78 301.212 C 1179.97 295.919 1180.81 293.746 1182.99 287.897 C 1182.02 284.491 1180.56 283.672 1177.41 283.104 L 1175.48 281.747 C 1174.72 276.856 1176.52 271.892 1172.64 266.791 C 1173.47 265.462 1175.12 264.834 1175.27 264.55 C 1177.58 260.023 1175.5 261.133 1179.62 258.911 z"/>
<path transform="translate(0,0)" fill="rgb(250,202,53)" d="M 1182.99 287.897 L 1183.72 285.243 L 1185.37 284.506 C 1187.84 286.121 1189.28 287.219 1191.55 289.099 C 1192.34 293.119 1193.34 301.252 1196.3 303.609 L 1192.98 308.44 L 1191.93 309.783 C 1187.67 308.008 1179.63 304.916 1176.85 301.703 L 1176.78 301.212 C 1179.97 295.919 1180.81 293.746 1182.99 287.897 z"/>
<path transform="translate(0,0)" fill="rgb(195,144,28)" d="M 1176.85 301.703 C 1180.49 302.562 1189.93 306.41 1192.98 308.44 L 1191.93 309.783 C 1187.67 308.008 1179.63 304.916 1176.85 301.703 z"/>
<path transform="translate(0,0)" fill="rgb(229,158,94)" d="M 1200.97 266.437 L 1204.93 267.735 C 1209.1 272.73 1211.27 274.764 1213.48 281.106 C 1209.35 275.661 1205.54 271.474 1200.97 266.437 z"/>
<path transform="translate(0,0)" fill="rgb(252,187,150)" d="M 742.032 738.966 C 745.922 731.293 747.585 730.352 755.733 727.897 C 759.986 729.197 761.518 729.439 765.01 732.234 C 772.98 740.314 774.24 752.053 774.26 762.917 L 773.924 763.784 C 774.101 769.993 773.544 773.239 770.592 778.845 C 761.822 782.986 756.356 777.604 750.378 771.932 L 732.014 778.774 C 732.024 777.034 731.988 775.295 731.904 773.558 C 731.371 763.488 727.222 755.47 719.821 748.812 C 725.381 746.166 739.326 742.867 742.032 738.966 z"/>
<path transform="translate(0,0)" fill="rgb(26,29,47)" d="M 750.378 771.932 C 757.048 770.066 767.127 766.169 773.924 763.784 C 774.101 769.993 773.544 773.239 770.592 778.845 C 761.822 782.986 756.356 777.604 750.378 771.932 z"/>
<path transform="translate(0,0)" fill="rgb(26,29,47)" d="M 742.032 738.966 C 745.922 731.293 747.585 730.352 755.733 727.897 C 759.986 729.197 761.518 729.439 765.01 732.234 C 759.984 734.122 746.199 740.207 742.032 738.966 z"/>
<path transform="translate(0,0)" fill="rgb(252,187,150)" d="M 1068.6 266.692 C 1071.16 264.504 1072 264.044 1072.96 260.879 C 1074.88 263.252 1075.26 264.855 1078.64 264.776 L 1079.66 265.531 C 1083.24 268.038 1088.25 269.443 1090.7 272.442 C 1091.13 275.042 1090.19 278.673 1088.02 280.338 C 1084.72 281.001 1085.96 280.331 1083.42 283.769 C 1081.59 285.555 1081.02 285.831 1080.35 288.187 C 1077.9 287.628 1071.1 285.176 1068.38 284.284 C 1065.95 286.885 1065.45 286.466 1065.49 289.029 L 1064.11 289.605 C 1069.92 286.798 1068.28 286.16 1073.16 287.358 L 1070.79 293.341 L 1072.97 295.99 C 1073.95 299.634 1075 303.992 1076.24 307.486 C 1070.57 308.552 1060.05 310.353 1054.75 311.891 C 1055.68 302.774 1060.41 280.651 1063.85 271.93 C 1065.24 270.208 1067.08 268.341 1068.6 266.692 z"/>
<path transform="translate(0,0)" fill="rgb(229,158,94)" d="M 1063.85 271.93 C 1065.24 270.208 1067.08 268.341 1068.6 266.692 C 1071.98 268.865 1075.67 270.219 1077.73 273.566 L 1076.92 274.724 C 1070.21 274.783 1069.61 272.619 1063.85 271.93 z"/>
<path transform="translate(0,0)" fill="rgb(229,158,94)" d="M 1070.79 293.341 L 1072.97 295.99 C 1071.88 301.868 1067.81 306.127 1062.41 301.527 C 1064.9 301.244 1066.7 300.986 1069.15 300.479 C 1072.95 295.719 1068.52 298.375 1070.79 293.341 z"/>
<path transform="translate(0,0)" fill="rgb(250,226,121)" d="M 1143.76 208.363 C 1170.58 216.722 1176.26 232.986 1179.62 258.911 C 1175.5 261.133 1177.58 260.023 1175.27 264.55 C 1175.12 264.834 1173.47 265.462 1172.64 266.791 C 1168.83 263.928 1148.56 216.692 1143.76 208.363 z"/>
<path transform="translate(0,0)" fill="rgb(32,39,72)" d="M 1216.85 920.056 C 1224.05 912.563 1223.8 909.049 1234.62 902.547 C 1240.94 905.157 1249.93 911.774 1255.32 909.989 C 1257.52 912.048 1256.94 910.824 1257.23 913.729 C 1249.56 927.548 1223.47 941.746 1216.85 920.056 z"/>
<path transform="translate(0,0)" fill="rgb(250,226,121)" d="M 1141.78 199.427 C 1149.65 200.539 1159.59 204.366 1167.35 207.009 C 1169.94 212.59 1171.77 215.817 1177.07 219.293 L 1179.95 222.166 C 1178.78 225.896 1183.75 237.032 1186.81 239.266 C 1185.43 242.679 1186.8 248.195 1187.43 252.021 L 1188.09 259.667 L 1181.08 259.426 C 1181.5 232.925 1168.81 213.014 1142.76 206.222 C 1141.26 202.17 1140.93 203.099 1141.78 199.427 z"/>
<path transform="translate(0,0)" fill="rgb(199,67,67)" d="M 1660.95 896.397 C 1679.63 897.059 1680.07 900.183 1682.53 918.027 C 1679.31 919.562 1670.7 919.094 1666.78 918.938 C 1665 913.989 1659.41 900.667 1660.95 896.397 z"/>
<path transform="translate(0,0)" fill="rgb(250,202,53)" d="M 1186.81 239.266 C 1191.94 241.135 1197.17 243.113 1202.37 244.764 C 1203.14 248.755 1204.29 253.775 1204.32 257.74 C 1205.35 261.638 1205.09 263.727 1204.93 267.735 L 1200.97 266.437 C 1196.59 261.024 1194.8 260.726 1188.09 259.667 L 1187.43 252.021 C 1186.8 248.195 1185.43 242.679 1186.81 239.266 z"/>
<path transform="translate(0,0)" fill="rgb(238,199,93)" d="M 1187.43 252.021 C 1192.32 252.486 1199.52 256.488 1203.59 259.28 L 1204.32 257.74 C 1205.35 261.638 1205.09 263.727 1204.93 267.735 L 1200.97 266.437 C 1196.59 261.024 1194.8 260.726 1188.09 259.667 L 1187.43 252.021 z"/>
<path transform="translate(0,0)" fill="rgb(195,144,28)" d="M 1187.43 252.021 C 1192.32 252.486 1199.52 256.488 1203.59 259.28 C 1199.97 259.761 1190.31 254.498 1187.43 252.021 z"/>
<path transform="translate(0,0)" fill="rgb(26,29,47)" d="M 1199.81 859.975 L 1205.27 875.972 C 1206.54 880.551 1210.47 893.559 1210.56 897.723 C 1199.5 892.714 1196.94 889.462 1192.62 878.467 C 1193.04 875.209 1193.88 871.17 1194.46 867.864 C 1195.81 864.892 1197.81 862.576 1199.81 859.975 z"/>
<path transform="translate(0,0)" fill="rgb(197,168,70)" d="M 1142.76 206.222 C 1168.81 213.014 1181.5 232.925 1181.08 259.426 L 1179.62 258.911 C 1176.26 232.986 1170.58 216.722 1143.76 208.363 C 1140.13 207.946 1133.9 208.108 1130.04 208.097 C 1124.52 209.592 1118.85 210.882 1113.96 213.879 C 1106.27 218.719 1098.31 225.233 1093.15 232.775 C 1085.64 244.507 1083.02 251.901 1079.66 265.531 L 1078.64 264.776 C 1079.83 253.663 1085.23 238.738 1092.65 230.478 C 1098.16 222.27 1105.66 216.757 1113.85 211.635 C 1120.8 208.644 1122.93 207.973 1130.24 206.241 C 1134.54 206.071 1138.47 205.81 1142.76 206.222 z"/>
<path transform="translate(0,0)" fill="rgb(250,226,121)" d="M 1088.55 224.716 L 1092.65 230.478 C 1085.23 238.738 1079.83 253.663 1078.64 264.776 C 1075.26 264.855 1074.88 263.252 1072.96 260.879 C 1077.34 244.801 1077.46 238.945 1088.55 224.716 z"/>
<path transform="translate(0,0)" fill="rgb(253,239,178)" d="M 1186.81 239.266 C 1183.75 237.032 1178.78 225.896 1179.95 222.166 C 1184.93 224.425 1189.42 226.518 1194.6 228.34 C 1197.82 231.661 1200.72 240.212 1202.37 244.764 C 1197.17 243.113 1191.94 241.135 1186.81 239.266 z"/>
<path transform="translate(0,0)" fill="rgb(253,239,178)" d="M 1088.55 224.716 C 1099.31 215.114 1095.53 215.188 1110.5 206.043 L 1113.85 211.635 C 1105.66 216.757 1098.16 222.27 1092.65 230.478 L 1088.55 224.716 z"/>
<path transform="translate(0,0)" fill="rgb(253,239,178)" d="M 1167.35 207.009 C 1176.62 210.295 1188.77 217.067 1193.28 226.15 L 1194.6 228.34 C 1189.42 226.518 1184.93 224.425 1179.95 222.166 L 1177.07 219.293 C 1171.77 215.817 1169.94 212.59 1167.35 207.009 z"/>
<path transform="translate(0,0)" fill="rgb(238,199,93)" d="M 1177.07 219.293 L 1193.28 226.15 L 1194.6 228.34 C 1189.42 226.518 1184.93 224.425 1179.95 222.166 L 1177.07 219.293 z"/>
<path transform="translate(0,0)" fill="rgb(250,226,121)" d="M 1125.14 200.198 C 1127.2 202.431 1128.42 203.802 1130.24 206.241 C 1122.93 207.973 1120.8 208.644 1113.85 211.635 L 1110.5 206.043 C 1115.08 203.572 1120.21 201.94 1125.14 200.198 z"/>
<path transform="translate(0,0)" fill="rgb(253,239,178)" d="M 1125.14 200.198 C 1130.65 199.599 1136.31 198.704 1141.78 199.427 C 1140.93 203.099 1141.26 202.17 1142.76 206.222 C 1138.47 205.81 1134.54 206.071 1130.24 206.241 C 1128.42 203.802 1127.2 202.431 1125.14 200.198 z"/>
<path transform="translate(0,0)" fill="rgb(197,168,70)" d="M 767.573 351.385 C 774.756 351.365 778.951 351.588 786.091 352.368 C 799.65 356.476 802.645 358.389 814.553 366.259 C 823.824 373.112 831.847 381.509 838.27 391.083 L 842.348 398.259 C 855.759 421.515 856.721 449.878 833.893 467.488 C 814.424 486.789 800.145 496.899 771.674 485.656 C 749.939 477.817 735.34 462.052 723.576 442.952 C 719.038 435.423 716.376 426.045 715.144 417.42 L 714.923 416.16 C 714.557 413.433 714.558 409.051 714.469 406.178 C 716.844 388.118 722.157 381.762 735.89 370.603 C 741.403 365.085 745.462 360.671 751.92 356.259 C 754.64 353.655 763.644 352.175 767.573 351.385 z"/>
<path transform="translate(0,0)" fill="rgb(250,202,53)" d="M 742.979 425.747 C 745.499 429.429 748.744 434.487 751.521 437.816 C 753.521 440.348 755.244 442.648 757.54 444.935 C 760.145 447.537 764.143 451.784 766.97 453.797 C 776.329 460.464 780.818 463.799 791.747 467.999 C 785.233 474.083 778.539 479.971 771.674 485.656 C 749.939 477.817 735.34 462.052 723.576 442.952 C 727.559 441.101 739.052 429.54 742.979 425.747 z"/>
<path transform="translate(0,0)" fill="rgb(197,168,70)" d="M 739.881 461.142 C 740.908 457.648 753.679 446.193 757.54 444.935 C 755.989 448.132 743.234 460.743 739.881 461.142 z"/>
<path transform="translate(0,0)" fill="rgb(197,168,70)" d="M 773.068 461.827 L 774.728 462.5 C 772.723 466.02 764.002 474.081 760.607 477.403 L 759.37 476.992 C 759.743 474.674 770.577 464.41 773.068 461.827 z"/>
<path transform="translate(0,0)" fill="rgb(195,144,28)" d="M 796.987 460.879 C 807.613 463.687 814.866 464.52 825.279 460.766 C 823.237 465.192 823.078 465.777 823.18 470.643 L 827.108 469.724 C 828.991 468.918 831.863 468.124 833.893 467.488 C 814.424 486.789 800.145 496.899 771.674 485.656 C 778.539 479.971 785.233 474.083 791.747 467.999 L 793.432 468.276 C 796.618 466.533 796.251 464.242 796.987 460.879 z"/>
<path transform="translate(0,0)" fill="rgb(250,226,121)" d="M 796.987 460.879 C 807.613 463.687 814.866 464.52 825.279 460.766 C 823.237 465.192 823.078 465.777 823.18 470.643 C 812.44 472.477 803.818 472.25 793.432 468.276 C 796.618 466.533 796.251 464.242 796.987 460.879 z"/>
<path transform="translate(0,0)" fill="rgb(174,124,18)" d="M 799.612 470.677 C 800.598 471.589 800.205 471.035 800.462 472.55 C 795.531 478.102 789.121 483.761 783.612 488.883 L 782.753 487.231 C 787.109 482.21 794.588 475.452 799.612 470.677 z"/>
<path transform="translate(0,0)" fill="rgb(250,202,53)" d="M 732.83 392.228 C 733.491 394.649 734.004 396.431 734.392 398.93 C 735.177 406.669 737.262 412.593 740.356 419.718 L 742.734 424.728 L 742.979 425.747 C 739.052 429.54 727.559 441.101 723.576 442.952 C 719.038 435.423 716.376 426.045 715.144 417.42 L 714.923 416.16 C 714.557 413.433 714.558 409.051 714.469 406.178 L 732.83 392.228 z"/>
<path transform="translate(0,0)" fill="rgb(250,202,53)" d="M 732.83 392.228 C 733.491 394.649 734.004 396.431 734.392 398.93 C 728.611 402.185 719.749 411.29 714.923 416.16 C 714.557 413.433 714.558 409.051 714.469 406.178 L 732.83 392.228 z"/>
<path transform="translate(0,0)" fill="rgb(197,168,70)" d="M 714.923 416.16 C 719.749 411.29 728.611 402.185 734.392 398.93 C 732.709 402.778 718.862 415.969 715.144 417.42 L 714.923 416.16 z"/>
<path transform="translate(0,0)" fill="rgb(195,144,28)" d="M 723.576 442.952 C 725.196 439.467 739.042 426.795 742.734 424.728 L 742.979 425.747 C 739.052 429.54 727.559 441.101 723.576 442.952 z"/>
<path transform="translate(0,0)" fill="rgb(250,226,121)" d="M 751.92 356.259 C 751.847 359.263 751.238 365.48 751.318 367.758 C 740.167 381.527 740.456 391.243 744.65 407.967 C 741.997 412.243 741.591 414.805 740.356 419.718 C 737.262 412.593 735.177 406.669 734.392 398.93 C 734.004 396.431 733.491 394.649 732.83 392.228 L 714.469 406.178 C 716.844 388.118 722.157 381.762 735.89 370.603 C 741.403 365.085 745.462 360.671 751.92 356.259 z"/>
<path transform="translate(0,0)" fill="rgb(253,239,178)" d="M 714.469 406.178 C 716.844 388.118 722.157 381.762 735.89 370.603 C 735.526 373.644 733.88 390.521 732.83 392.228 L 714.469 406.178 z"/>
<path transform="translate(0,0)" fill="rgb(250,226,121)" d="M 842.348 398.259 C 855.759 421.515 856.721 449.878 833.893 467.488 C 831.863 468.124 828.991 468.918 827.108 469.724 L 823.18 470.643 C 823.078 465.777 823.237 465.192 825.279 460.766 L 830.032 458.291 C 834.554 455.069 838.148 450.715 840.456 445.666 C 845.873 433.917 842.758 420.512 838.521 408.978 C 839.648 407.17 841.57 400.67 842.348 398.259 z"/>
<path transform="translate(0,0)" fill="rgb(253,239,178)" d="M 830.032 458.291 C 830.915 461.797 828.741 466.508 827.108 469.724 L 823.18 470.643 C 823.078 465.777 823.237 465.192 825.279 460.766 L 830.032 458.291 z"/>
<path transform="translate(0,0)" fill="rgb(250,226,121)" d="M 814.553 366.259 C 823.824 373.112 831.847 381.509 838.27 391.083 L 842.348 398.259 C 841.57 400.67 839.648 407.17 838.521 408.978 L 835.346 402.586 C 830.168 391.67 821.067 382.084 811.755 374.507 C 813.825 371.802 813.952 369.564 814.553 366.259 z"/>
<path transform="translate(0,0)" fill="rgb(253,239,178)" d="M 838.27 391.083 L 842.348 398.259 C 841.57 400.67 839.648 407.17 838.521 408.978 L 835.346 402.586 C 835.855 399.496 837.409 394.289 838.27 391.083 z"/>
<path transform="translate(0,0)" fill="rgb(253,239,178)" d="M 786.091 352.368 C 799.65 356.476 802.645 358.389 814.553 366.259 C 813.952 369.564 813.825 371.802 811.755 374.507 C 801.85 367.521 796.365 364.418 784.615 361.201 L 786.091 352.368 z"/>
<path transform="translate(0,0)" fill="rgb(253,239,178)" d="M 768.438 444.386 C 777.048 450.937 786.385 457.877 796.987 460.879 C 796.251 464.242 796.618 466.533 793.432 468.276 L 791.747 467.999 C 780.818 463.799 776.329 460.464 766.97 453.797 C 767.551 451.028 768.009 447.265 768.438 444.386 z"/>
<path transform="translate(0,0)" fill="rgb(250,226,121)" d="M 753.683 427.004 C 758.842 434.19 761.775 438.228 768.438 444.386 C 768.009 447.265 767.551 451.028 766.97 453.797 C 764.143 451.784 760.145 447.537 757.54 444.935 C 755.244 442.648 753.521 440.348 751.521 437.816 C 752.753 435.331 753.262 429.967 753.683 427.004 z"/>
<path transform="translate(0,0)" fill="rgb(253,239,178)" d="M 744.65 407.967 C 747.896 416.866 748.832 418.687 753.683 427.004 C 753.262 429.967 752.753 435.331 751.521 437.816 C 748.744 434.487 745.499 429.429 742.979 425.747 L 742.734 424.728 L 740.356 419.718 C 741.591 414.805 741.997 412.243 744.65 407.967 z"/>
<path transform="translate(0,0)" fill="rgb(250,226,121)" d="M 767.573 351.385 C 774.756 351.365 778.951 351.588 786.091 352.368 L 784.615 361.201 C 777.992 359.396 772.461 359.795 765.762 360.176 L 767.573 351.385 z"/>
<path transform="translate(0,0)" fill="rgb(253,239,178)" d="M 751.92 356.259 C 754.64 353.655 763.644 352.175 767.573 351.385 L 765.762 360.176 C 759.281 362.698 757 363.742 751.318 367.758 C 751.238 365.48 751.847 359.263 751.92 356.259 z"/>
<path transform="translate(0,0)" fill="rgb(253,239,178)" d="M 765.373 362.042 C 772.024 362.071 778.368 361.855 784.911 363.094 C 794.972 366.261 803.725 370.272 811.956 377.101 C 822.847 387.587 828.934 393.677 835.711 407.627 L 838.77 414.905 C 842.766 430.573 843.233 442.866 831.435 454.927 L 827.09 457.941 C 815.685 462.904 808.896 461.171 797.082 458.976 C 784.952 454.62 778.868 450.519 769.463 442.406 C 764.255 437.494 756.354 428.542 753.328 422.225 C 739.345 401.347 738.807 372.571 765.373 362.042 z"/>
<path transform="translate(0,0)" fill="rgb(250,226,121)" d="M 811.956 377.101 C 822.847 387.587 828.934 393.677 835.711 407.627 L 838.77 414.905 C 842.766 430.573 843.233 442.866 831.435 454.927 L 827.09 457.941 C 815.685 462.904 808.896 461.171 797.082 458.976 C 802.176 439.21 808.562 398.315 811.956 377.101 z"/>
<path transform="translate(0,0)" fill="rgb(253,239,178)" d="M 835.711 407.627 L 838.77 414.905 C 842.766 430.573 843.233 442.866 831.435 454.927 L 827.09 457.941 C 825.065 453.817 832.692 412.83 835.711 407.627 z"/>
<path transform="translate(0,0)" fill="rgb(250,226,121)" d="M 838.77 414.905 C 842.766 430.573 843.233 442.866 831.435 454.927 L 838.77 414.905 z"/>
<path transform="translate(0,0)" fill="rgb(250,226,121)" d="M 765.373 362.042 C 772.024 362.071 778.368 361.855 784.911 363.094 C 782.245 369.911 780.854 381.12 779.336 388.537 C 775.738 406.124 773.233 424.93 769.463 442.406 C 764.255 437.494 756.354 428.542 753.328 422.225 C 739.345 401.347 738.807 372.571 765.373 362.042 z"/>
<path transform="translate(0,0)" fill="rgb(253,239,178)" d="M 765.373 362.042 C 764.288 370.31 756.501 417.132 753.328 422.225 C 739.345 401.347 738.807 372.571 765.373 362.042 z"/>
<path transform="translate(0,0)" fill="rgb(197,168,70)" d="M 1539.09 447.911 C 1544.81 440.847 1553.75 435.163 1563.04 434.403 C 1570.58 433.785 1572.22 434.961 1577.74 439.822 C 1584.59 444.838 1597.95 454.44 1602.79 460.796 C 1603.28 467.43 1603.69 470.889 1602.75 477.582 L 1600.76 483.986 C 1597.66 491.385 1595.39 496.65 1591.58 503.694 C 1587.75 510.129 1581.36 520.351 1576.4 525.988 C 1566.79 537.868 1560.93 543.602 1549.25 553.506 C 1544.57 556.859 1540.68 559.783 1535.55 562.49 C 1514.26 572.56 1506.53 559.295 1490.06 546.195 C 1474.79 534.002 1488.37 508.073 1496.54 494.849 C 1498.33 491.943 1500.65 492.2 1503.71 491.755 C 1504.77 480.282 1517.48 465.379 1526.43 459.079 C 1531.02 455.841 1534.15 449.554 1539.09 447.911 z"/>
<path transform="translate(0,0)" fill="rgb(250,202,53)" d="M 1566.09 483.433 C 1570.31 486.152 1589.17 500.182 1591.58 503.694 C 1587.75 510.129 1581.36 520.351 1576.4 525.988 C 1566.79 537.868 1560.93 543.602 1549.25 553.506 L 1523.02 532.742 L 1523.02 532.261 C 1526.32 530.325 1528.59 527.867 1531.32 525.204 C 1535.31 521.769 1539.62 517.089 1543.34 513.252 C 1545.11 511.419 1548.15 507.519 1549.88 505.411 L 1550.63 504.949 C 1553.81 500.456 1560.54 491.52 1562.61 486.905 L 1564.9 484.322 L 1566.09 483.433 z"/>
<path transform="translate(0,0)" fill="rgb(250,202,53)" d="M 1566.09 483.433 C 1570.31 486.152 1589.17 500.182 1591.58 503.694 C 1587.75 510.129 1581.36 520.351 1576.4 525.988 C 1573.7 522.33 1555.29 508.545 1550.63 504.949 C 1553.81 500.456 1560.54 491.52 1562.61 486.905 L 1564.9 484.322 L 1566.09 483.433 z"/>
<path transform="translate(0,0)" fill="rgb(195,144,28)" d="M 1566.09 483.433 C 1570.31 486.152 1589.17 500.182 1591.58 503.694 C 1586.69 502.533 1569.57 488.087 1564.9 484.322 L 1566.09 483.433 z"/>
<path transform="translate(0,0)" fill="rgb(197,168,70)" d="M 1531.32 525.204 C 1535.48 525.978 1554.6 540.155 1556.09 544.095 C 1552.46 543.881 1534.88 529.432 1532.76 527.004 C 1532.25 526.428 1531.77 525.827 1531.32 525.204 z"/>
<path transform="translate(0,0)" fill="rgb(195,144,28)" d="M 1549.88 505.411 L 1550.63 504.949 C 1555.29 508.545 1573.7 522.33 1576.4 525.988 C 1572.37 525 1552.14 509.024 1549.88 505.411 z"/>
<path transform="translate(0,0)" fill="rgb(250,202,53)" d="M 1577.74 439.822 C 1584.59 444.838 1597.95 454.44 1602.79 460.796 C 1603.28 467.43 1603.69 470.889 1602.75 477.582 L 1600.76 483.986 C 1597.66 491.385 1595.39 496.65 1591.58 503.694 C 1589.17 500.182 1570.31 486.152 1566.09 483.433 L 1566.07 481.78 C 1568.83 476.486 1571.85 469.6 1574.41 464.078 C 1574.88 462.291 1576.14 459.335 1576.86 457.506 C 1576.04 454.707 1577.42 443.427 1577.74 439.822 z"/>
<path transform="translate(0,0)" fill="rgb(253,239,178)" d="M 1577.74 439.822 C 1584.59 444.838 1597.95 454.44 1602.79 460.796 C 1603.28 467.43 1603.69 470.889 1602.75 477.582 L 1600.76 483.986 C 1595.39 478.633 1580.88 468.667 1574.41 464.078 C 1574.88 462.291 1576.14 459.335 1576.86 457.506 C 1576.04 454.707 1577.42 443.427 1577.74 439.822 z"/>
<path transform="translate(0,0)" fill="rgb(253,239,178)" d="M 1540.57 452.97 C 1542.67 461.17 1542.37 492.593 1542.88 503.475 C 1536.33 511.152 1529.88 518.389 1522.04 524.827 C 1520.24 514.037 1521.4 485.489 1520.55 472.149 C 1526.82 465.676 1533.55 458.541 1540.57 452.97 z"/>
<path transform="translate(0,0)" fill="rgb(195,144,28)" d="M 1523.02 532.742 L 1549.25 553.506 C 1544.57 556.859 1540.68 559.783 1535.55 562.49 C 1514.26 572.56 1506.53 559.295 1490.06 546.195 L 1499.5 545.537 C 1502.75 544.304 1505.96 542.855 1509.15 541.464 C 1513.16 539.628 1519.18 535.316 1523.02 532.742 z"/>
<path transform="translate(0,0)" fill="rgb(174,124,18)" d="M 1512 543.91 C 1515.12 543.978 1534.35 559.061 1535.55 562.49 C 1530.74 560.761 1516.99 549.249 1512.2 545.385 L 1512 543.91 z"/>
<path transform="translate(0,0)" fill="rgb(250,226,121)" d="M 1540.57 452.97 C 1546.45 448.197 1554.11 444.59 1561.01 441.508 C 1560.82 448.57 1558.93 466.709 1563.81 471.193 C 1556.63 485.253 1552.63 490.97 1542.88 503.475 C 1542.37 492.593 1542.67 461.17 1540.57 452.97 z"/>
<path transform="translate(0,0)" fill="rgb(250,226,121)" d="M 1520.55 472.149 C 1521.4 485.489 1520.24 514.037 1522.04 524.827 C 1520.95 525.879 1519.17 527.505 1518.22 528.579 C 1515.03 529.746 1511.95 531.952 1509.07 533.822 C 1509.06 525.601 1508.51 496.837 1507.13 490.08 C 1510.44 484.962 1516.68 477.233 1520.55 472.149 z"/>
<path transform="translate(0,0)" fill="rgb(250,226,121)" d="M 1539.09 447.911 C 1544.81 440.847 1553.75 435.163 1563.04 434.403 C 1570.58 433.785 1572.22 434.961 1577.74 439.822 C 1577.42 443.427 1576.04 454.707 1576.86 457.506 C 1576.14 459.335 1574.88 462.291 1574.41 464.078 C 1571.85 469.6 1568.83 476.486 1566.07 481.78 C 1566.06 481.557 1565.52 473.578 1565.17 474.796 C 1569.94 458.006 1582.84 428.437 1550.33 444.011 C 1545.14 446.497 1539.88 452.147 1534.95 454.098 C 1535.26 451.594 1537.3 449.917 1539.09 447.911 z"/>
<path transform="translate(0,0)" fill="rgb(253,239,178)" d="M 1498.22 505.037 C 1501.47 498.561 1503.06 495.985 1507.13 490.08 C 1508.51 496.837 1509.06 525.601 1509.07 533.822 C 1505.83 535.292 1502.67 536.874 1499.26 537.834 C 1498.57 526.986 1499.51 516.312 1498.22 505.037 z"/>
<path transform="translate(0,0)" fill="rgb(250,226,121)" d="M 1503.71 491.755 C 1497.8 502.108 1475.07 537.612 1498.94 539.726 L 1499.5 545.537 L 1490.06 546.195 C 1474.79 534.002 1488.37 508.073 1496.54 494.849 C 1498.33 491.943 1500.65 492.2 1503.71 491.755 z"/>
<path transform="translate(0,0)" fill="rgb(250,226,121)" d="M 1498.22 505.037 C 1499.51 516.312 1498.57 526.986 1499.26 537.834 C 1482.69 536.138 1494 513.387 1498.22 505.037 z"/>
<path transform="translate(0,0)" fill="rgb(250,226,121)" d="M 1542.59 506.857 C 1550.11 497.32 1553.02 492.634 1559.55 483.366 C 1560.62 484.747 1561.44 485.647 1562.61 486.905 C 1560.54 491.52 1553.81 500.456 1550.63 504.949 L 1549.88 505.411 C 1548.15 507.519 1545.11 511.419 1543.34 513.252 L 1542.59 506.857 z"/>
<path transform="translate(0,0)" fill="rgb(253,239,178)" d="M 1542.59 506.857 L 1543.34 513.252 C 1539.62 517.089 1535.31 521.769 1531.32 525.204 C 1528.59 527.867 1526.32 530.325 1523.02 532.261 L 1521.27 528.169 C 1528.64 521.339 1535.75 514.229 1542.59 506.857 z"/>
<path transform="translate(0,0)" fill="rgb(253,239,178)" d="M 1561.01 441.508 L 1565.31 442.046 C 1564.54 449.842 1564.8 460.293 1565.18 468.227 L 1563.81 471.193 C 1558.93 466.709 1560.82 448.57 1561.01 441.508 z"/>
<path transform="translate(0,0)" fill="rgb(250,226,121)" d="M 1565.31 442.046 C 1573.45 449.561 1568.65 459.31 1565.18 468.227 C 1564.8 460.293 1564.54 449.842 1565.31 442.046 z"/>
<path transform="translate(0,0)" fill="rgb(250,226,121)" d="M 1521.27 528.169 L 1523.02 532.261 L 1523.02 532.742 C 1519.18 535.316 1513.16 539.628 1509.15 541.464 L 1508.86 536.255 C 1512.83 533.47 1516.6 532.244 1518.22 528.579 L 1521.27 528.169 z"/>
<path transform="translate(0,0)" fill="rgb(253,239,178)" d="M 1508.86 536.255 L 1509.15 541.464 C 1505.96 542.855 1502.75 544.304 1499.5 545.537 L 1498.94 539.726 L 1508.86 536.255 z"/>
<path transform="translate(0,0)" fill="rgb(197,168,70)" d="M 1425.54 754.274 C 1418.64 743.495 1421.15 740.194 1430.01 732.522 C 1435.32 727.917 1439.88 722.905 1445.99 719.134 C 1455.94 719.034 1474.37 732.621 1477.95 741.725 C 1486.82 750.033 1496.16 755.371 1503.5 766.184 C 1508.77 773.943 1533.43 799.819 1523.63 809.317 C 1517.03 815.398 1507.85 824.335 1500.81 829.346 C 1495.12 827.287 1493.12 826.608 1488.07 823.408 C 1484.99 821.457 1480.14 817.564 1477.08 815.266 L 1469.56 808.892 C 1463.69 803.174 1458.79 798.271 1453.3 792.18 L 1452.83 791.378 C 1444.78 783.667 1432.6 768.29 1427.78 758.252 C 1427.24 757.518 1426.05 755.197 1425.54 754.274 z"/>
<path transform="translate(0,0)" fill="rgb(250,202,53)" d="M 1452.83 791.378 C 1456.73 787.04 1470.95 774.64 1475.78 771.685 C 1481.05 779.388 1485.91 782.368 1490.99 788.476 L 1492.38 789.338 C 1495.92 791.717 1496.39 792.125 1499.1 795.417 C 1507.36 801.89 1513.28 806.509 1523.63 809.317 C 1517.03 815.398 1507.85 824.335 1500.81 829.346 C 1495.12 827.287 1493.12 826.608 1488.07 823.408 C 1484.99 821.457 1480.14 817.564 1477.08 815.266 L 1469.56 808.892 C 1463.69 803.174 1458.79 798.271 1453.3 792.18 L 1452.83 791.378 z"/>
<path transform="translate(0,0)" fill="rgb(195,144,28)" d="M 1477.08 815.266 C 1484.52 809.201 1491.37 801.802 1499.1 795.417 C 1507.36 801.89 1513.28 806.509 1523.63 809.317 C 1517.03 815.398 1507.85 824.335 1500.81 829.346 C 1495.12 827.287 1493.12 826.608 1488.07 823.408 C 1484.99 821.457 1480.14 817.564 1477.08 815.266 z"/>
<path transform="translate(0,0)" fill="rgb(174,124,18)" d="M 1488.07 823.408 C 1489.84 819.111 1506.07 805.077 1510.65 803.285 C 1507.52 808.144 1493.09 821.655 1488.07 823.408 z"/>
<path transform="translate(0,0)" fill="rgb(250,202,53)" d="M 1490.99 788.476 L 1492.38 789.338 C 1495.92 791.717 1496.39 792.125 1499.1 795.417 C 1491.37 801.802 1484.52 809.201 1477.08 815.266 L 1469.56 808.892 C 1471.62 804.984 1486.73 792.273 1490.99 788.476 z"/>
<path transform="translate(0,0)" fill="rgb(195,144,28)" d="M 1490.99 788.476 L 1492.38 789.338 C 1488.34 793.027 1473.32 807.22 1469.56 808.892 C 1471.62 804.984 1486.73 792.273 1490.99 788.476 z"/>
<path transform="translate(0,0)" fill="rgb(197,168,70)" d="M 1452.83 791.378 C 1456.73 787.04 1470.95 774.64 1475.78 771.685 C 1473.43 776.719 1458.26 790.114 1453.3 792.18 L 1452.83 791.378 z"/>
<path transform="translate(0,0)" fill="rgb(250,202,53)" d="M 1450.68 739.203 C 1453.87 744.611 1456.95 749.199 1460.46 754.378 C 1465.18 760.209 1470.24 766.668 1475.78 771.685 C 1470.95 774.64 1456.73 787.04 1452.83 791.378 C 1444.78 783.667 1432.6 768.29 1427.78 758.252 C 1433.58 752.243 1443.85 744.145 1450.68 739.203 z"/>
<path transform="translate(0,0)" fill="rgb(195,144,28)" d="M 1460.46 754.378 C 1458.93 758.52 1442.45 772.746 1437.92 774.612 C 1441.05 770.318 1455.85 756.56 1460.46 754.378 z"/>
<path transform="translate(0,0)" fill="rgb(253,239,178)" d="M 1425.54 754.274 C 1418.64 743.495 1421.15 740.194 1430.01 732.522 C 1435.32 727.917 1439.88 722.905 1445.99 719.134 C 1455.94 719.034 1474.37 732.621 1477.95 741.725 C 1471.57 735.759 1458.66 723.541 1449.99 722.398 L 1447.71 723.157 C 1445.61 727.609 1449.62 730.246 1448.77 733.32 C 1448 736.059 1429.23 750.722 1425.54 754.274 z"/>
<path transform="translate(0,0)" fill="rgb(253,239,178)" d="M 1461.37 748.101 C 1458.21 743.829 1447.53 729.931 1451.11 725.357 C 1454.55 725.356 1456.6 727.177 1459.6 729.093 L 1465.63 733.794 C 1468.15 735.959 1474.22 740.896 1476.2 743.105 C 1480.47 747.283 1485.89 752.309 1489.75 756.716 C 1490.15 761.779 1492 778.332 1491.57 781.99 C 1486.37 777.45 1481.88 772.321 1477.22 767.227 C 1473.92 763.636 1470.72 759.951 1467.64 756.176 C 1465.63 753.842 1463.29 750.61 1461.37 748.101 z"/>
<path transform="translate(0,0)" fill="rgb(253,239,178)" d="M 1461.37 748.101 C 1458.21 743.829 1447.53 729.931 1451.11 725.357 C 1454.55 725.356 1456.6 727.177 1459.6 729.093 L 1465.63 733.794 C 1466.68 739.984 1468.42 750.149 1467.64 756.176 C 1465.63 753.842 1463.29 750.61 1461.37 748.101 z"/>
<path transform="translate(0,0)" fill="rgb(250,226,121)" d="M 1461.37 748.101 C 1458.21 743.829 1447.53 729.931 1451.11 725.357 C 1454.55 725.356 1456.6 727.177 1459.6 729.093 C 1459.99 735.868 1460.54 741.386 1461.37 748.101 z"/>
<path transform="translate(0,0)" fill="rgb(250,226,121)" d="M 1465.63 733.794 C 1468.15 735.959 1474.22 740.896 1476.2 743.105 C 1474.01 747.399 1477.31 760.319 1477.22 767.227 C 1473.92 763.636 1470.72 759.951 1467.64 756.176 C 1468.42 750.149 1466.68 739.984 1465.63 733.794 z"/>
<path transform="translate(0,0)" fill="rgb(250,226,121)" d="M 1489.75 756.716 L 1504.58 773.879 L 1506.69 776.782 C 1510.43 781.973 1520.86 795.202 1519.09 801.711 C 1515.44 802.507 1509.75 797.931 1507.14 795.404 L 1505.99 794.91 C 1500.39 790.373 1496.73 787.016 1491.57 781.99 C 1492 778.332 1490.15 761.779 1489.75 756.716 z"/>
<path transform="translate(0,0)" fill="rgb(250,226,121)" d="M 1506.69 776.782 C 1510.43 781.973 1520.86 795.202 1519.09 801.711 C 1515.44 802.507 1509.75 797.931 1507.14 795.404 C 1508.29 792.081 1507 780.955 1506.69 776.782 z"/>
<path transform="translate(0,0)" fill="rgb(253,239,178)" d="M 1504.58 773.879 L 1506.69 776.782 C 1507 780.955 1508.29 792.081 1507.14 795.404 L 1505.99 794.91 C 1504.56 787.989 1502.84 780.812 1504.58 773.879 z"/>
</svg>