<svg version="1.1" xmlns="http://www.w3.org/2000/svg" style="display: block;" viewBox="0 0 2048 2048" width="2000" height="2000" preserveAspectRatio="none">
<defs>
	<linearGradient id="Gradient1" gradientUnits="userSpaceOnUse" x1="607.947" y1="433.844" x2="658.884" y2="529.837">
		<stop class="stop0" offset="0" stop-opacity="1" stop-color="rgb(124,157,138)"/>
		<stop class="stop1" offset="1" stop-opacity="1" stop-color="rgb(174,208,185)"/>
	</linearGradient>
	<linearGradient id="Gradient2" gradientUnits="userSpaceOnUse" x1="547.916" y1="472.674" x2="543.196" y2="529.666">
		<stop class="stop0" offset="0" stop-opacity="1" stop-color="rgb(140,173,146)"/>
		<stop class="stop1" offset="1" stop-opacity="1" stop-color="rgb(172,201,187)"/>
	</linearGradient>
	<linearGradient id="Gradient3" gradientUnits="userSpaceOnUse" x1="1213.63" y1="856.78" x2="1325.68" y2="1076.39">
		<stop class="stop0" offset="0" stop-opacity="1" stop-color="rgb(0,4,4)"/>
		<stop class="stop1" offset="1" stop-opacity="1" stop-color="rgb(28,52,56)"/>
	</linearGradient>
	<linearGradient id="Gradient4" gradientUnits="userSpaceOnUse" x1="537.404" y1="1134.36" x2="361.692" y2="803.723">
		<stop class="stop0" offset="0" stop-opacity="1" stop-color="rgb(0,0,0)"/>
		<stop class="stop1" offset="1" stop-opacity="1" stop-color="rgb(25,51,57)"/>
	</linearGradient>
</defs>
<path transform="translate(0,0)" fill="rgb(219,253,234)" d="M 1049.4 217.217 C 1049.97 205.389 1049.71 186.338 1049.07 174.503 C 1045.55 108.693 1099.29 121.385 1143.4 120.627 C 1203.87 120.151 1264.34 120.215 1324.81 120.818 L 1380.13 120.778 C 1400.45 120.891 1421.41 118.969 1434.88 137.32 C 1445.9 152.326 1442.84 181.455 1442.77 199.539 C 1458.16 195.304 1498.61 198.843 1516.59 199.374 C 1594.9 201.684 1673.19 208.186 1750.01 224.595 C 1807.97 236.165 1903.13 255.777 1919.14 323.272 C 1928.24 361.609 1924.72 412.076 1919.84 451.508 C 1893.19 666.937 1822.02 874.573 1753.53 1079.6 C 1745.74 1102.91 1735.49 1125.81 1727.18 1148.97 C 1723.32 1148.93 1722.06 1148.14 1719.49 1150.83 C 1710.24 1160.53 1713.64 1189.55 1709.28 1198.57 C 1702.23 1206.22 1692.31 1233.84 1688.52 1245.16 C 1679.55 1271.92 1662.04 1301.92 1655.13 1328.46 C 1654.51 1345.32 1668.85 1385.83 1653.68 1399.01 C 1654.7 1415.57 1660.54 1438.47 1663.64 1455.44 C 1670.66 1493.89 1676.34 1528.55 1679.88 1567.55 C 1675.4 1562.28 1676.77 1543.15 1673.71 1534.97 C 1671.77 1548.91 1676.96 1560.84 1675.04 1568.54 C 1670.71 1551.79 1669.79 1526.75 1667.53 1508.82 C 1663.44 1476.35 1659.43 1442.17 1651.79 1410.34 C 1634.96 1410.7 1622.64 1395.17 1615.21 1381.91 C 1613.29 1388.05 1609.4 1394.47 1610.51 1399.05 C 1622.03 1405.17 1637.87 1434.61 1635.78 1447.83 L 1633.4 1447.68 C 1632.5 1449.94 1632.15 1450.49 1631.66 1452.81 L 1631.2 1452.44 C 1617.05 1446.46 1591.04 1434.44 1580.14 1425.18 L 1579.03 1425.04 C 1576.18 1427.27 1573.61 1427.98 1570.24 1429.27 C 1593.01 1449.93 1618.02 1481.32 1631.68 1509.01 L 1629.37 1509.18 C 1609.29 1517.47 1597.15 1506.96 1587.04 1490.51 C 1584.64 1496.11 1578.53 1508.01 1577.1 1512.44 C 1570.06 1513.95 1559.12 1511.77 1553.45 1516.05 C 1552.18 1522.58 1557.95 1526.62 1562.32 1531.03 C 1559.14 1550.26 1540.94 1583.6 1531.29 1601.96 C 1486.99 1686.29 1440.08 1773.01 1374.62 1843.06 C 1344.86 1874.91 1312.16 1897.18 1267.31 1898.76 C 1230.72 1900.05 1194.05 1899.23 1157.87 1892.86 C 998.43 1863.97 845.854 1807.32 696.195 1746.63 C 675.833 1738.4 631.124 1721.51 617.378 1708.05 C 621.794 1749.64 627.766 1791.07 631.884 1832.7 C 632.591 1839.85 635.378 1848.14 637.271 1855.06 C 638.665 1860.16 638.12 1862.87 638.333 1867.99 L 635.869 1871.04 C 619.914 1886.73 607.218 1893.04 584.836 1893.63 C 584.528 1894.45 584.136 1895.3 583.995 1896.13 C 582.295 1896.99 581.801 1896.94 579.91 1897.38 C 580.748 1878.57 572.121 1868.26 577.957 1851.43 C 561.251 1804.08 544.984 1756.58 529.157 1708.93 C 524.918 1696.52 520.927 1682.4 516.506 1670.48 L 514.185 1669.86 C 498.086 1665.29 436.761 1638.24 428.359 1625.88 C 426.33 1634.11 424.405 1642.64 419.89 1649.88 C 409.312 1666.83 395.496 1683.91 383.486 1699.98 L 323.894 1780.37 C 312.624 1795.54 301.235 1810.58 290.224 1825.96 C 280.336 1839.77 287.819 1845.95 277.004 1857.03 C 273.368 1860.76 273.31 1860.96 272.424 1865.44 C 271.521 1865.57 269.834 1865.86 268.989 1865.87 L 268.601 1863.04 C 264.121 1863.8 255.621 1866.59 252.277 1866.53 C 240.277 1866.33 231.46 1856.73 223.967 1848.82 L 222.434 1848.9 L 221.878 1852 L 217.625 1853.28 C 218.9 1833.69 211.384 1827.55 233.125 1819.73 C 238.503 1809.22 245.132 1792.34 249.856 1781.29 L 279.574 1712.18 C 291.655 1684.24 307.985 1655.31 313.787 1625.59 C 317.668 1605.71 320.519 1585.62 324.753 1565.78 C 326.446 1557.85 328.609 1548.84 329.179 1540.86 C 317.813 1535.14 314.982 1526.28 307.853 1516.61 C 246.784 1433.81 241.714 1337.99 231.547 1240.11 C 208.83 1021.42 191.813 800.883 203.072 580.91 C 205.639 530.866 209.132 461.928 231.267 414.993 C 258.061 369.876 366.061 336.514 413.803 323.409 C 413.978 319.737 413.762 318.763 415.687 315.573 C 420.856 314.424 455.74 314.046 462.293 314.382 C 468.908 309.724 474.048 308.722 480.637 304.325 C 460.606 298.757 438.045 293.219 418.462 287.032 C 421.681 276.77 424.776 266.47 427.745 256.133 C 461.165 265.384 494.848 273.631 528.22 283.053 C 536.733 285.456 545.097 287.82 553.889 289.001 C 563.998 283.864 577.548 281.7 588.733 279.181 C 628.22 270.286 669.027 263.07 709.064 256.978 C 741.046 252.112 772.918 246.007 804.798 241.457 C 854.433 234.61 904.174 228.562 954.004 223.317 C 975.378 220.882 1031.9 211.103 1049.4 217.217 z M 423.301 285.194 C 443.607 290.239 468.985 297.656 488.865 301.872 C 495.759 300.85 506.461 295.916 514.445 293.988 C 521.941 292.179 528.575 291.54 535.649 289.242 C 500.473 279.17 465.201 269.438 429.837 260.048 C 427.708 268.443 425.53 276.825 423.301 285.194 z"/>
<path transform="translate(0,0)" fill="rgb(8,22,17)" d="M 1049.4 217.217 C 1049.97 205.389 1049.71 186.338 1049.07 174.503 C 1045.55 108.693 1099.29 121.385 1143.4 120.627 C 1203.87 120.151 1264.34 120.215 1324.81 120.818 L 1380.13 120.778 C 1400.45 120.891 1421.41 118.969 1434.88 137.32 C 1445.9 152.326 1442.84 181.455 1442.77 199.539 C 1441.24 217.707 1442.31 244.891 1442.31 263.947 L 1442.13 378.558 C 1504.84 405.3 1555.62 432.748 1607.94 477.637 C 1614.84 483.557 1633.48 499.295 1638.51 505.989 C 1667.42 532.773 1691.85 564.121 1713.62 596.342 C 1772.76 683.871 1805.84 786.403 1808.58 892.024 C 1808.66 895.119 1808.77 897.867 1808.68 901.037 L 1530.5 900.829 C 1476.18 900.924 1418.94 900.059 1364.8 901.214 L 1363.48 901.406 L 1362.24 896.839 C 1359.97 852.535 1332.91 813.298 1292.31 795.431 C 1251.7 777.564 1204.49 784.121 1170.3 812.377 C 1169.48 812.208 1167.48 812.615 1166.51 812.75 L 1166.47 811.47 L 1168.62 809.203 C 1165.44 807.857 1103.62 755.53 1100.93 752.401 L 1098.08 750.11 C 1104.92 744.225 1112.97 736.942 1120.1 731.628 C 1111.63 717.375 1101.07 703.225 1091.36 689.676 L 1046.98 627.429 C 1023.69 594.169 1000.18 561.059 976.463 528.102 C 964.314 510.927 949.842 488.406 936.688 472.408 C 830.041 545.507 748.126 673.017 724.387 799.977 C 720.126 821.987 717.265 844.244 715.821 866.616 C 715.12 876.721 715.209 887.666 714.407 897.409 L 780.338 896.972 L 777.173 900.582 C 748.34 901.847 711.934 901.273 682.833 900.991 C 682.219 773.532 735.354 628.674 822.004 534.706 C 828.99 526.043 840.578 514.573 848.611 506.514 C 908.444 446.49 971.331 408.758 1049.22 377.68 C 1050.81 348.95 1049.67 314.533 1049.97 285.337 C 1050.13 268.51 1050.82 233.416 1049.4 217.217 z"/>
<path transform="translate(0,0)" fill="rgb(24,44,47)" d="M 1049.4 217.217 C 1049.97 205.389 1049.71 186.338 1049.07 174.503 C 1045.55 108.693 1099.29 121.385 1143.4 120.627 C 1203.87 120.151 1264.34 120.215 1324.81 120.818 L 1380.13 120.778 C 1400.45 120.891 1421.41 118.969 1434.88 137.32 C 1445.9 152.326 1442.84 181.455 1442.77 199.539 C 1441.24 217.707 1442.31 244.891 1442.31 263.947 L 1442.13 378.558 C 1504.84 405.3 1555.62 432.748 1607.94 477.637 C 1614.84 483.557 1633.48 499.295 1638.51 505.989 L 1637.58 509.241 C 1615.86 489.316 1595.78 471.484 1571.97 454.073 C 1473.03 381.733 1346.11 341.168 1223.19 346.615 C 1104.53 351.927 990.543 394.383 897.321 467.986 C 872.802 487.477 847.64 512.238 825.935 535.035 L 822.004 534.706 C 828.99 526.043 840.578 514.573 848.611 506.514 C 908.444 446.49 971.331 408.758 1049.22 377.68 C 1050.81 348.95 1049.67 314.533 1049.97 285.337 C 1050.13 268.51 1050.82 233.416 1049.4 217.217 z"/>
<path transform="translate(0,0)" fill="rgb(94,234,172)" d="M 1118.96 167.977 C 1145.73 167.528 1188.93 160.649 1186.36 200.553 C 1185.53 213.544 1182.25 222.021 1170.77 228.914 C 1177.78 248.12 1182.06 268.625 1188.8 288.288 L 1166.46 288.386 C 1164.77 283.856 1163.23 277.865 1161.86 273.12 C 1159.5 263.982 1154.13 239.399 1148.81 233.657 C 1146.16 232.786 1145.86 233.164 1143.02 233.716 C 1140.09 237.54 1141.65 280 1141.71 288.355 L 1119.62 288.909 C 1119.88 263.329 1119.96 237.747 1119.85 212.166 C 1119.83 199.286 1120.33 180.071 1118.96 167.977 z"/>
<path transform="translate(0,0)" fill="rgb(24,44,47)" d="M 1141.93 182.957 C 1145.96 182.867 1152.33 182.444 1155.89 184.171 C 1167.91 189.993 1166.25 204.832 1160.91 214.902 C 1154.86 218.9 1148.89 218.508 1141.59 218.998 C 1141.9 207.15 1141.84 194.843 1141.93 182.957 z"/>
<path transform="translate(0,0)" fill="rgb(94,234,172)" d="M 1361.01 167.169 C 1368.25 167.605 1375.92 167.691 1383.21 167.889 C 1375.75 181.938 1365.99 206.909 1359.54 222.043 C 1367.63 241.262 1375.24 260.677 1382.37 280.271 C 1383.33 282.566 1383.62 283.48 1384.27 285.882 L 1382.92 287.561 C 1377.97 289.331 1368.38 288.269 1362.62 288.214 C 1356.76 271.359 1348.21 250.628 1343.98 234.071 L 1338.15 244.093 C 1338.26 258.863 1338.27 273.632 1338.19 288.402 L 1316.65 288.017 C 1316.19 248.01 1316.01 208.001 1316.12 167.992 L 1331.67 167.467 C 1333.58 167.355 1335.09 167.485 1337.01 167.568 C 1340.03 172.55 1338.24 212.778 1338.06 220.298 C 1346.01 203.211 1353.59 184.583 1361.01 167.169 z"/>
<path transform="translate(0,0)" fill="rgb(94,234,172)" d="M 1268.51 166.324 C 1294.19 165.776 1299.5 176.642 1303.73 199.485 L 1284.14 201.949 C 1283.28 196.198 1283.19 191.893 1279.09 187.137 C 1275.5 182.98 1266.08 180.087 1263.06 186.103 C 1255.5 201.103 1275.59 215.734 1285.63 224.721 C 1301.76 239.15 1313.39 257.763 1298.84 278.449 C 1292.48 287.475 1282.05 288.668 1271.76 289.821 C 1246.79 287.542 1242.18 274.988 1238.76 252.804 C 1245.94 251.713 1253.1 250.445 1260.23 249.001 C 1259.78 257.237 1260.46 264.579 1267.34 269.985 C 1271.66 273.369 1278.82 273.07 1281.12 267.61 C 1288.09 251.179 1271.89 238.436 1260.04 228.978 C 1243.5 215.772 1232.13 198.168 1245.67 177.595 C 1250.42 170.369 1260.16 167.472 1268.51 166.324 z"/>
<path transform="translate(0,0)" fill="rgb(94,234,172)" d="M 1207.88 167.531 L 1224.82 166.836 C 1225.13 178.643 1225.79 283.423 1224.08 288.136 L 1221.75 288.475 L 1202.9 288.164 C 1202.9 276.152 1202.09 171.372 1203.97 168.081 L 1207.88 167.531 z"/>
<path transform="translate(0,0)" fill="rgb(94,234,172)" d="M 825.935 535.035 C 847.64 512.238 872.802 487.477 897.321 467.986 C 990.543 394.383 1104.53 351.927 1223.19 346.615 C 1346.11 341.168 1473.03 381.733 1571.97 454.073 C 1595.78 471.484 1615.86 489.316 1637.58 509.241 C 1740.68 615.041 1803.17 748.291 1805.13 897.321 L 1778.99 897.041 C 1780.81 879.506 1777.61 851.169 1775.21 833.486 C 1761.71 736.229 1721.57 644.603 1659.22 568.751 C 1568.37 457.49 1437.02 386.901 1294.1 372.527 C 1127.36 355.251 961.01 422.961 848.684 546.192 C 771.069 631.026 723.444 738.991 713.122 853.509 C 711.863 866.444 710.697 884.406 710.853 897.353 L 685.717 897.477 C 690.025 763.836 736.67 635.449 825.935 535.035 z"/>
<path transform="translate(0,0)" fill="rgb(254,254,254)" d="M 1100.93 752.401 C 1143.83 714.125 1195.88 692.558 1254 695.736 C 1312.12 698.852 1366.49 725.424 1404.66 769.367 C 1433.93 802.522 1453.68 852.801 1454.2 897.092 C 1424.77 896.915 1395.34 897.056 1365.92 897.514 C 1363.24 862.759 1351.72 834.955 1324.49 811.816 C 1299.46 790.36 1266.9 779.783 1234.04 782.431 C 1214.5 784.197 1181.49 795.301 1168.62 809.203 C 1165.44 807.857 1103.62 755.53 1100.93 752.401 z"/>
<path transform="translate(0,0)" fill="rgb(254,254,254)" d="M 1217.89 374.428 C 1233.29 372.976 1264.51 373.96 1279.99 375.101 C 1376.78 382.273 1469.82 415.481 1549.28 471.209 C 1533.47 495.043 1513.83 520.297 1497.09 543.798 L 1402.89 677.492 C 1391 694.243 1376.16 713.111 1365.19 729.759 C 1337.08 709.893 1304.43 697.387 1270.24 693.383 C 1214.3 685.986 1170.13 700.51 1123.6 729.566 C 1064.75 642.869 999.843 556.747 940.064 470.491 C 947.491 464.529 961.958 455.789 970.366 450.586 C 1045.39 404.158 1130.15 379.774 1217.89 374.428 z"/>
<path transform="translate(0,0)" fill="rgb(193,193,192)" d="M 1209 459.024 C 1222.46 458.672 1249.7 455.235 1250.39 473.946 C 1250.94 488.875 1254.55 516.935 1245.73 529.128 C 1235.03 537.546 1222.77 535.195 1209.1 534.795 C 1209.29 509.538 1209.25 484.28 1209 459.024 z"/>
<path transform="translate(0,0)" fill="rgb(254,254,254)" d="M 1223.08 468.829 C 1226.4 468.789 1236.11 467.926 1236.37 472.405 C 1237.06 484.008 1240.09 512.515 1236.01 522.463 C 1231.43 524.228 1227.72 526.057 1223.54 522.99 C 1222.13 514.54 1223.01 479.272 1223.08 468.829 z"/>
<path transform="translate(0,0)" fill="rgb(193,193,192)" d="M 1106.08 458.809 L 1120.98 458.87 C 1123.8 477.67 1128.3 494.535 1131.85 513.023 C 1136.44 494.238 1140.42 477.944 1143.49 458.879 L 1158.04 458.958 L 1157.99 503.21 C 1158.06 510.952 1158.71 525.471 1157.56 532.652 C 1155.48 534.285 1150.74 534.581 1148.45 533.243 C 1146.9 518.379 1149.25 505.394 1146.07 489.528 L 1145.25 489.63 C 1141.39 503.974 1142.39 528.279 1131.79 535.986 C 1130.42 536.074 1129.43 536.477 1128.9 535.436 C 1124.34 526.311 1121.61 506.214 1118.98 496.077 L 1115.96 497.246 C 1116 503.882 1116.95 529.898 1114.54 534.378 C 1110.4 534.606 1109.22 534.532 1105.07 534.067 C 1104.93 508.793 1106.26 484.049 1106.08 458.809 z"/>
<path transform="translate(0,0)" fill="rgb(229,230,230)" d="M 1115.96 497.246 C 1115.95 494.253 1115.56 489.99 1116.86 487.545 C 1118.43 490.547 1118.49 492.744 1118.98 496.077 L 1115.96 497.246 z"/>
<path transform="translate(0,0)" fill="rgb(193,193,192)" d="M 1342.91 458.842 L 1357.58 458.685 C 1361.71 476.044 1364.4 494.285 1369.19 511.512 C 1372.06 493.16 1377.3 475.603 1379.66 459.063 L 1393.03 458.978 C 1393.03 472.657 1393.22 486.336 1393.63 500.009 C 1393.85 508.217 1394.83 525.485 1393.43 532.96 C 1390.47 534.268 1386.68 534.035 1384.19 531.896 C 1383.38 521.665 1383.95 508.24 1384.11 497.75 C 1384.29 493.776 1384.07 487.971 1384.05 483.846 C 1378.17 500.046 1378.22 516.742 1371.39 531.616 C 1370.3 533.992 1367.78 534.383 1365.7 534.843 C 1362.43 533.01 1360.2 512.53 1358.98 507.301 C 1357.27 499.994 1355.8 493.755 1353.42 486.497 C 1352.73 499.758 1353.15 517.334 1352.19 530.897 C 1352.02 533.335 1349.66 534.189 1347.84 535.086 C 1343.96 534.892 1345.55 535.575 1342.76 533.438 C 1341.84 524.3 1342.68 511.822 1342.84 502.38 C 1342.96 487.868 1342.98 473.355 1342.91 458.842 z"/>
<path transform="translate(0,0)" fill="rgb(193,193,192)" d="M 1287.93 458.909 L 1300.89 459.055 C 1301.1 477.163 1300.36 495.568 1301.24 513.663 C 1301.49 518.719 1302.54 522.611 1307.36 524.774 C 1323.51 523.313 1317.43 471.972 1317.28 459.032 C 1321.25 458.877 1326.35 458.076 1329.54 460.016 C 1331.42 463.045 1330.83 466.572 1330.71 470.25 C 1330.93 484.045 1333.59 523.843 1324.78 529.811 C 1275.99 562.839 1287.88 468.779 1287.93 458.909 z"/>
<path transform="translate(0,0)" fill="rgb(193,193,192)" d="M 1169.09 459.023 C 1178.49 459.246 1189.94 458.15 1198.92 459.56 L 1199.95 461.184 C 1199.87 464.461 1200.42 464.742 1198.89 467.042 C 1194.12 468.733 1187.38 468.181 1182.1 468.145 L 1182.02 490.572 C 1187.76 490.514 1195.25 489.037 1197.12 495.635 L 1195.43 497.818 C 1191.69 499.974 1187.29 499.256 1182.74 499.157 L 1183.02 523.735 C 1187.44 527.153 1194.91 522.538 1200.81 526.213 C 1202.08 529.303 1201.7 529.75 1201.22 533.049 C 1198.58 535.581 1174.12 534.824 1168.63 534.876 L 1169.09 459.023 z"/>
<path transform="translate(0,0)" fill="rgb(193,193,192)" d="M 1262.99 458.97 L 1276.09 459.016 C 1276.18 483.967 1276.4 508.917 1276.75 533.866 L 1262.23 534.239 C 1263.28 510.1 1262.92 483.334 1262.99 458.97 z"/>
<path transform="translate(0,0)" fill="rgb(254,254,254)" d="M 1552.39 473.578 C 1570.17 484.227 1610 520.115 1624.2 534.874 C 1702.54 616.297 1758.9 724.324 1772.47 837.109 C 1774.83 856.741 1777.27 877.107 1776.82 896.999 L 1593.14 896.87 C 1548.08 897.319 1503.02 897.44 1457.96 897.235 C 1456.33 830.149 1422.54 770.776 1368.33 732.262 C 1375.9 720.832 1384.89 709.193 1392.92 697.88 L 1452.3 614.102 C 1473.04 584.456 1493.96 554.939 1515.06 525.553 C 1526.05 510.056 1540.65 487.893 1552.39 473.578 z"/>
<path transform="translate(0,0)" fill="rgb(193,193,192)" d="M 1668.79 704.981 L 1682.33 704.824 C 1682.99 722.113 1683.49 765.939 1681.74 782.01 L 1668.41 781.287 L 1668.79 747.99 L 1652.83 748.252 C 1652.74 759.425 1652.71 770.598 1652.74 781.771 L 1638.73 780.972 L 1639.17 705.027 L 1652.93 704.957 L 1653.02 737.756 L 1668.88 737.269 C 1668.74 726.546 1668.81 715.714 1668.79 704.981 z"/>
<path transform="translate(0,0)" fill="rgb(193,193,192)" d="M 1504.27 705.322 L 1517.16 705.614 L 1517.41 738.032 L 1533.91 737.06 L 1533.91 705.784 L 1547 705.425 C 1547.71 731.263 1547.32 755.862 1546.99 781.734 L 1533.84 781.673 L 1533.22 747.98 C 1528.03 747.957 1523.2 748.423 1518.03 748.836 L 1518.01 782.063 L 1504.02 781.993 C 1503.95 756.436 1504.03 730.879 1504.27 705.322 z"/>
<path transform="translate(0,0)" fill="rgb(193,193,192)" d="M 1605.27 704.24 C 1623.73 702.936 1626.35 714.453 1627.49 729.534 L 1615.09 729.957 C 1614.43 723.074 1615.16 714.112 1606.67 713.844 C 1595.68 718.846 1599 738.852 1598.41 748.994 C 1597.97 756.667 1598.25 767.828 1605.57 772.211 C 1614.34 772.368 1614.64 763.99 1615.07 756.834 C 1615.53 749.33 1611.3 752.089 1606.99 747.954 L 1607.23 744.185 L 1608.99 742.927 L 1627.4 742.907 C 1627.43 749.786 1629.61 778.596 1623.42 780.936 C 1620.56 779.186 1618.77 777.539 1615.56 777.86 C 1589.32 798.955 1582.1 759.716 1583.88 740.445 C 1585.47 723.24 1582.57 707.618 1605.27 704.24 z"/>
<path transform="translate(0,0)" fill="rgb(193,193,192)" d="M 1559.93 705.585 L 1572.59 705.816 C 1573.57 730.393 1573.26 756.802 1573.28 781.468 L 1559.85 781.083 C 1559.42 755.919 1559.44 730.748 1559.93 705.585 z"/>
<path transform="translate(0,0)" fill="rgb(254,254,254)" d="M 936.688 472.408 C 949.842 488.406 964.314 510.927 976.463 528.102 C 1000.18 561.059 1023.69 594.169 1046.98 627.429 L 1091.36 689.676 C 1101.07 703.225 1111.63 717.375 1120.1 731.628 C 1112.97 736.942 1104.92 744.225 1098.08 750.11 L 1100.93 752.401 C 1103.62 755.53 1165.44 807.857 1168.62 809.203 L 1166.47 811.47 L 1166.51 812.75 C 1167.48 812.615 1169.48 812.208 1170.3 812.377 C 1160.1 820.803 1151.4 830.891 1144.57 842.217 C 1143.56 839.798 1144.21 840.929 1141.82 839.139 C 1123.3 823.015 1093.66 794.28 1074.82 781.038 C 1067.62 793.538 1060.1 806.238 1053.45 819.004 L 1051.4 820.349 L 1050.64 819.619 C 1039.24 821.439 1023.84 835.418 1016.44 844.083 C 1003.33 859.442 1009.19 887.219 1003.07 897.327 C 981.993 896.031 941.588 896.751 920.103 897.444 C 914.031 897.858 909.922 897.399 905.079 900.87 C 880.58 910.872 880.638 936.121 878.135 957.001 C 874.298 989.005 845.734 996.705 820.541 1005.75 C 818.165 1006.6 807.619 1015.26 804.142 1017.6 L 803.754 1016.88 C 814.218 1001.59 823.203 1000.48 838.835 995.677 C 862.378 988.458 875.165 971.701 876.274 947.451 C 876.879 934.227 878.203 923.205 886.91 913.234 C 889.402 910.38 895.99 903.889 896.989 900.887 C 877.274 901.387 856.594 900.949 836.805 900.814 C 837.293 898.236 836.8 899.437 838.867 897.436 L 836.928 896.315 C 835.734 891.176 839.435 886.608 841.684 882.415 C 855.074 857.454 882.082 860.825 901.962 846.091 C 918.372 833.929 920.43 812.026 922.229 793.333 C 923.188 783.368 924.254 781.747 933.501 780.538 C 938.538 770.678 932.881 770.84 944.586 761.986 L 944.408 761.439 C 942.505 762.738 938.423 765.37 936.791 766.701 C 930.712 769.995 929.048 771.783 923.978 776.442 C 923.569 778.688 922.915 780.545 921.944 782.619 C 916.344 794.575 918.413 808.134 914.171 820.492 C 896.324 872.489 848.563 837.179 833.556 896.853 C 826.555 896.896 816.241 896.648 809.501 897.189 L 783.95 896.995 L 784.008 900.751 C 765.438 929.464 754.513 919.827 728.175 935.126 C 724.349 937.348 719.02 942.761 715.701 946.056 C 729.491 917.246 771.565 926.097 778.813 901.667 L 777.173 900.582 L 780.338 896.972 L 714.407 897.409 C 715.209 887.666 715.12 876.721 715.821 866.616 C 717.265 844.244 720.126 821.987 724.387 799.977 C 748.126 673.017 830.041 545.507 936.688 472.408 z"/>
<path transform="translate(0,0)" fill="rgb(254,254,254)" d="M 902.336 716.364 C 905.267 716.701 908.632 715.564 910.795 713.565 C 912.224 710.166 912.57 708.384 915.534 706.208 C 920.011 705.334 920.123 706.291 924.101 708.998 C 931.811 707.366 944.532 697.702 951.974 692.971 C 948.988 696.92 946.288 699.848 943.397 704.084 C 941.118 705.441 940.006 706.357 937.484 707.101 C 933.94 708.921 928.723 711.331 925.663 713.597 C 920.778 715.674 918.972 716.517 913.817 717.528 C 917.385 738.183 919.71 755.671 923.978 776.442 C 923.569 778.688 922.915 780.545 921.944 782.619 C 916.344 794.575 918.413 808.134 914.171 820.492 C 896.324 872.489 848.563 837.179 833.556 896.853 C 826.555 896.896 816.241 896.648 809.501 897.189 L 783.95 896.995 L 784.008 900.751 C 765.438 929.464 754.513 919.827 728.175 935.126 C 724.349 937.348 719.02 942.761 715.701 946.056 C 729.491 917.246 771.565 926.097 778.813 901.667 L 777.173 900.582 L 780.338 896.972 C 790.751 886.763 781.621 856.674 799.607 836.961 C 820.766 813.77 841.395 822.837 861.909 799.881 C 866.28 794.989 871.434 786.046 871.21 779.241 C 871.379 778.605 875.452 752.663 875.479 752.026 C 879.014 739.537 884.068 736.108 889.549 725.2 C 895.642 722.338 893.447 718.543 902.336 716.364 z"/>
<path transform="translate(0,0)" fill="rgb(94,234,172)" d="M 902.336 716.364 C 905.267 716.701 908.632 715.564 910.795 713.565 C 912.224 710.166 912.57 708.384 915.534 706.208 C 920.011 705.334 920.123 706.291 924.101 708.998 C 931.811 707.366 944.532 697.702 951.974 692.971 C 948.988 696.92 946.288 699.848 943.397 704.084 C 941.118 705.441 940.006 706.357 937.484 707.101 C 933.94 708.921 928.723 711.331 925.663 713.597 C 920.778 715.674 918.972 716.517 913.817 717.528 C 910.38 717.662 903.287 718.295 902.212 722.378 C 895.754 724.128 894.445 725.891 891.185 731.74 L 890.391 732.056 C 879.037 735.34 876.828 760.524 876.976 770.502 C 876.293 773.611 875.668 776.733 875.102 779.866 C 870.626 809.951 844.415 817.167 821.118 825.898 C 789.033 837.922 795.293 870.091 783.95 896.995 L 784.008 900.751 C 765.438 929.464 754.513 919.827 728.175 935.126 C 724.349 937.348 719.02 942.761 715.701 946.056 C 729.491 917.246 771.565 926.097 778.813 901.667 L 777.173 900.582 L 780.338 896.972 C 790.751 886.763 781.621 856.674 799.607 836.961 C 820.766 813.77 841.395 822.837 861.909 799.881 C 866.28 794.989 871.434 786.046 871.21 779.241 C 871.379 778.605 875.452 752.663 875.479 752.026 C 879.014 739.537 884.068 736.108 889.549 725.2 C 895.642 722.338 893.447 718.543 902.336 716.364 z"/>
<path transform="translate(0,0)" fill="rgb(193,193,192)" d="M 890.391 732.056 L 891.185 731.74 C 894.445 725.891 895.754 724.128 902.212 722.378 C 903.683 739.636 905.723 754.606 901.721 771.601 C 893.367 781.183 887.301 782.796 875.102 779.866 C 875.668 776.733 876.293 773.611 876.976 770.502 C 876.828 760.524 879.037 735.34 890.391 732.056 z"/>
<path transform="translate(0,0)" fill="rgb(254,254,254)" d="M 876.976 770.502 C 876.828 760.524 879.037 735.34 890.391 732.056 C 890.34 737.593 890.356 743.375 890.489 748.892 C 890.796 761.664 892.445 770.079 876.976 770.502 z"/>
<path transform="translate(0,0)" fill="rgb(24,44,47)" d="M 942.955 663.63 C 949.796 655.586 956.773 647.658 963.883 639.849 C 970.837 644.534 989.046 660.505 996.762 666.87 L 1071.73 729.009 C 1076.19 732.685 1093.97 748.178 1098.08 750.11 L 1100.93 752.401 C 1103.62 755.53 1165.44 807.857 1168.62 809.203 L 1166.47 811.47 L 1166.51 812.75 C 1167.48 812.615 1169.48 812.208 1170.3 812.377 C 1160.1 820.803 1151.4 830.891 1144.57 842.217 C 1143.56 839.798 1144.21 840.929 1141.82 839.139 C 1123.3 823.015 1093.66 794.28 1074.82 781.038 L 1073.37 778.922 C 1031.38 739.462 984.943 702.59 942.955 663.63 z"/>
<path transform="translate(0,0)" fill="rgb(193,193,192)" d="M 937.484 707.101 C 940.006 706.357 941.118 705.441 943.397 704.084 C 952.392 712.258 952.75 740.62 953.547 752.961 C 958.051 736.838 959.772 721.74 961.868 705.196 L 973.505 705.002 C 971.449 719.989 968.876 734.9 965.79 749.709 C 959.625 752.542 949.714 754.819 946.639 758.925 L 946.857 761.369 L 944.586 761.986 L 944.408 761.439 C 942.505 762.738 938.423 765.37 936.791 766.701 C 930.712 769.995 929.048 771.783 923.978 776.442 C 919.71 755.671 917.385 738.183 913.817 717.528 C 918.972 716.517 920.778 715.674 925.663 713.597 C 928.723 711.331 933.94 708.921 937.484 707.101 z"/>
<path transform="translate(0,0)" fill="rgb(254,254,254)" d="M 925.663 713.597 C 928.723 711.331 933.94 708.921 937.484 707.101 C 935.316 720.567 933.126 740.288 929.596 752.616 L 925.663 713.597 z"/>
<path transform="translate(0,0)" fill="rgb(254,254,254)" d="M 942.379 729.724 C 944.416 738.722 946.503 752.423 944.408 761.439 C 942.505 762.738 938.423 765.37 936.791 766.701 C 937.184 758.753 940.975 738.635 942.379 729.724 z"/>
<path transform="translate(0,0)" fill="rgb(193,193,192)" d="M 871.21 779.241 C 857.898 770.27 859.357 741.984 860.177 727.57 C 861.618 702.204 886.813 694.015 902.336 716.364 C 893.447 718.543 895.642 722.338 889.549 725.2 C 884.068 736.108 879.014 739.537 875.479 752.026 C 875.452 752.663 871.379 778.605 871.21 779.241 z"/>
<path transform="translate(0,0)" fill="rgb(254,254,254)" d="M 875.479 752.026 C 871.858 744.497 871.846 716.198 882.855 712.516 C 888.489 713.969 889.026 720.207 889.549 725.2 C 884.068 736.108 879.014 739.537 875.479 752.026 z"/>
<path transform="translate(0,0)" fill="rgb(94,234,172)" d="M 1040.42 762.992 C 1024.39 796.348 985.401 781.491 970.271 816.06 C 960.448 838.505 969.912 855.197 952.479 876.13 C 947.083 882.73 940 887.745 931.983 890.642 C 927.93 892.106 918.167 894.091 916.136 896.109 C 917.899 896.805 918.255 896.97 920.103 897.444 C 914.031 897.858 909.922 897.399 905.079 900.87 C 880.58 910.872 880.638 936.121 878.135 957.001 C 874.298 989.005 845.734 996.705 820.541 1005.75 C 818.165 1006.6 807.619 1015.26 804.142 1017.6 L 803.754 1016.88 C 814.218 1001.59 823.203 1000.48 838.835 995.677 C 862.378 988.458 875.165 971.701 876.274 947.451 C 876.879 934.227 878.203 923.205 886.91 913.234 C 889.402 910.38 895.99 903.889 896.989 900.887 L 900.98 896.875 C 919.681 888.375 952.339 885.713 957.813 862.004 C 965.129 830.318 959.183 801.696 998.367 787.612 C 1018.37 780.423 1024.66 778.762 1040.42 762.992 z"/>
<path transform="translate(0,0)" fill="rgb(193,193,192)" d="M 948.164 761.113 C 953.786 758.237 959.575 755.72 965.336 753.128 C 963.696 762.239 962.783 770.663 961.755 779.836 L 950.55 781.196 C 950.061 776.547 949.136 765.116 948.164 761.113 z"/>
<path transform="translate(0,0)" fill="rgb(8,22,17)" d="M 838.867 897.436 C 859.857 896.571 879.907 898.35 900.98 896.875 L 896.989 900.887 C 877.274 901.387 856.594 900.949 836.805 900.814 C 837.293 898.236 836.8 899.437 838.867 897.436 z"/>
<path transform="translate(0,0)" fill="rgb(1,2,2)" d="M 1073.37 778.922 L 1074.82 781.038 C 1067.62 793.538 1060.1 806.238 1053.45 819.004 L 1051.4 820.349 L 1050.64 819.619 C 1051.67 810.486 1067.35 786.567 1073.37 778.922 z"/>
<path transform="translate(0,0)" fill="rgb(159,191,175)" d="M 965.79 749.709 C 978.542 743.981 981.144 743.945 989.466 733.255 C 992.726 741.569 971.05 750.382 965.336 753.128 C 959.575 755.72 953.786 758.237 948.164 761.113 L 946.857 761.369 L 946.639 758.925 C 949.714 754.819 959.625 752.542 965.79 749.709 z"/>
<path transform="translate(0,0)" fill="rgb(193,193,192)" d="M 822.738 704.891 L 835.994 705.122 L 835.966 771 C 841.871 771.332 848.218 769.963 852.866 772.408 C 855.2 776.172 854.397 775.888 854.537 781.066 C 844.342 782.089 833.21 781.93 822.898 782.023 L 822.738 704.891 z"/>
<path transform="translate(0,0)" fill="rgb(24,44,47)" d="M 351.647 981.302 L 354.012 983.359 C 347.947 995.141 338.911 1008.48 333.978 1020.36 C 314.13 1068.15 304.393 1127.33 310.101 1178.75 C 312.524 1200.57 322.9 1221.51 322.677 1244.59 C 322.58 1254.65 324.365 1265.55 323.478 1275.8 C 323.376 1284.44 318.867 1298.53 321.261 1306.45 C 334.352 1320.77 382.835 1327.83 402.404 1328.74 C 428.023 1329.93 453.54 1324.79 476.697 1313.77 C 454.701 1306.8 418.327 1295.55 400.624 1281.18 L 403.803 1279.06 C 420.728 1291.97 463.215 1306.12 484.399 1312.39 L 482.821 1315.48 C 486.093 1362.89 493.838 1371.87 514.22 1414.9 C 534.064 1456.32 553.69 1497.85 573.097 1539.48 C 581.468 1557.43 591.217 1577.26 598.638 1595.51 C 601.617 1602.84 604.26 1623.69 605.527 1632.37 L 612.963 1683.55 C 613.694 1688.56 615.56 1704.07 617.378 1708.05 C 621.794 1749.64 627.766 1791.07 631.884 1832.7 C 632.591 1839.85 635.378 1848.14 637.271 1855.06 C 638.665 1860.16 638.12 1862.87 638.333 1867.99 L 635.869 1871.04 C 619.914 1886.73 607.218 1893.04 584.836 1893.63 C 584.528 1894.45 584.136 1895.3 583.995 1896.13 C 582.295 1896.99 581.801 1896.94 579.91 1897.38 C 580.748 1878.57 572.121 1868.26 577.957 1851.43 C 561.251 1804.08 544.984 1756.58 529.157 1708.93 C 524.918 1696.52 520.927 1682.4 516.506 1670.48 L 514.185 1669.86 C 498.086 1665.29 436.761 1638.24 428.359 1625.88 C 426.33 1634.11 424.405 1642.64 419.89 1649.88 C 409.312 1666.83 395.496 1683.91 383.486 1699.98 L 323.894 1780.37 C 312.624 1795.54 301.235 1810.58 290.224 1825.96 C 280.336 1839.77 287.819 1845.95 277.004 1857.03 C 273.368 1860.76 273.31 1860.96 272.424 1865.44 C 271.521 1865.57 269.834 1865.86 268.989 1865.87 L 268.601 1863.04 C 264.121 1863.8 255.621 1866.59 252.277 1866.53 C 240.277 1866.33 231.46 1856.73 223.967 1848.82 L 222.434 1848.9 L 221.878 1852 L 217.625 1853.28 C 218.9 1833.69 211.384 1827.55 233.125 1819.73 C 238.503 1809.22 245.132 1792.34 249.856 1781.29 L 279.574 1712.18 C 291.655 1684.24 307.985 1655.31 313.787 1625.59 C 317.668 1605.71 320.519 1585.62 324.753 1565.78 C 326.446 1557.85 328.609 1548.84 329.179 1540.86 C 332.581 1533.36 332.008 1525.35 330.864 1517.41 C 324.378 1472.38 317.955 1427.42 317.787 1381.86 C 317.701 1358.33 320.081 1336.31 321.362 1312.91 C 320.204 1311.07 315.946 1304.76 315.9 1303.23 C 315.57 1292.1 320.563 1285.73 319.812 1273.66 C 318.649 1254.96 319.334 1236.69 315.222 1218.25 C 312.743 1207.13 309.309 1196.5 307.16 1185.34 C 300.469 1140.8 307.992 1086.18 321.063 1043.06 C 326.577 1024.86 340.847 996.949 351.647 981.302 z"/>
<path transform="translate(0,0)" fill="rgb(219,253,234)" d="M 447.174 1547.57 L 479.657 1591.27 C 486.52 1600.6 495.522 1611.55 500.593 1622.21 C 506.874 1635.42 511.411 1653.84 515.624 1668.03 C 515.903 1668.97 514.827 1669.36 514.185 1669.86 C 498.086 1665.29 436.761 1638.24 428.359 1625.88 C 430.976 1608.21 442.444 1566.92 447.174 1547.57 z"/>
<path transform="translate(0,0)" fill="rgb(254,254,254)" d="M 476.697 1313.77 C 453.54 1324.79 428.023 1329.93 402.404 1328.74 C 382.835 1327.83 334.352 1320.77 321.261 1306.45 C 318.867 1298.53 323.376 1284.44 323.478 1275.8 C 324.365 1265.55 322.58 1254.65 322.677 1244.59 C 322.9 1221.51 312.524 1200.57 310.101 1178.75 C 304.393 1127.33 314.13 1068.15 333.978 1020.36 C 338.911 1008.48 347.947 995.141 354.012 983.359 C 365.589 988.95 444.779 1041.21 452.927 1049.49 C 457.322 1066.11 462.857 1085.26 466.194 1101.92 C 451.976 1130.09 442.158 1151.07 442.895 1183.97 L 444.268 1184.7 L 445.883 1181.8 C 445.342 1198.51 460.024 1208.34 460.076 1236.01 C 493.571 1252.13 526.836 1268.72 559.863 1285.77 C 575.578 1293.91 601.371 1308.48 617.105 1314.66 L 618.276 1313.84 C 630.547 1305.02 635.329 1292.12 648.238 1287.19 C 652.583 1285.54 662.641 1285.89 668.283 1284.26 C 674.918 1282.34 678.437 1276.75 683.225 1275.72 C 686.56 1277.4 685.377 1276.22 687.266 1278.98 C 687.753 1282.8 685.562 1286.03 683.246 1288.9 C 675.916 1297.97 673.964 1298.19 663.612 1300.8 C 661.081 1300.63 661.165 1300.46 658.935 1301.58 C 667.078 1308.83 683.626 1315.12 688.63 1323.52 C 688.301 1330.64 679.583 1329.34 674.269 1329.17 C 664.577 1340.36 656.745 1354.56 642.269 1355.03 C 606.409 1356.19 565.89 1337.58 531.42 1327.59 C 518.668 1323.9 495.927 1317.06 484.399 1312.39 C 463.215 1306.12 420.728 1291.97 403.803 1279.06 L 400.624 1281.18 C 418.327 1295.55 454.701 1306.8 476.697 1313.77 z"/>
<path transform="translate(0,0)" fill="rgb(254,254,254)" d="M 457.014 1238.75 C 491.497 1255.34 525.752 1272.39 559.77 1289.92 C 576.372 1298.41 602.719 1313.12 619.052 1319.52 C 626.833 1311.72 632.501 1304.26 639.763 1296.61 C 647.101 1288.89 658.901 1289.76 668.353 1287.49 C 672.823 1286.42 676.347 1283.48 680.802 1281.47 L 681.582 1282.56 C 677.908 1298.54 661.147 1293.52 658.935 1301.58 C 667.078 1308.83 683.626 1315.12 688.63 1323.52 C 688.301 1330.64 679.583 1329.34 674.269 1329.17 C 664.577 1340.36 656.745 1354.56 642.269 1355.03 C 606.409 1356.19 565.89 1337.58 531.42 1327.59 C 518.668 1323.9 495.927 1317.06 484.399 1312.39 C 463.215 1306.12 420.728 1291.97 403.803 1279.06 C 408.582 1273.26 429.864 1259.61 436.995 1254.63 C 443.96 1249.71 450.644 1244.41 457.014 1238.75 z"/>
<path transform="translate(0,0)" fill="rgb(1,2,2)" d="M 440.815 1193.81 C 432.953 1161.39 419.178 1079.63 401.399 1055.47 C 397.725 1050.48 393.034 1045.08 387.957 1041.48 C 384.139 1038.78 379.379 1037 376.323 1033.41 L 377.08 1032.17 L 379.43 1032.12 C 409.772 1047.34 415.067 1071.6 423.021 1101.77 C 427.8 1119.63 432.075 1137.62 435.841 1155.73 C 437.434 1163.03 439.916 1177.55 442.895 1183.97 L 444.268 1184.7 L 445.883 1181.8 C 445.342 1198.51 460.024 1208.34 460.076 1236.01 C 493.571 1252.13 526.836 1268.72 559.863 1285.77 C 575.578 1293.91 601.371 1308.48 617.105 1314.66 L 618.276 1313.84 C 630.547 1305.02 635.329 1292.12 648.238 1287.19 C 652.583 1285.54 662.641 1285.89 668.283 1284.26 C 674.918 1282.34 678.437 1276.75 683.225 1275.72 C 686.56 1277.4 685.377 1276.22 687.266 1278.98 C 687.753 1282.8 685.562 1286.03 683.246 1288.9 C 675.916 1297.97 673.964 1298.19 663.612 1300.8 C 661.081 1300.63 661.165 1300.46 658.935 1301.58 C 661.147 1293.52 677.908 1298.54 681.582 1282.56 L 680.802 1281.47 C 676.347 1283.48 672.823 1286.42 668.353 1287.49 C 658.901 1289.76 647.101 1288.89 639.763 1296.61 C 632.501 1304.26 626.833 1311.72 619.052 1319.52 C 602.719 1313.12 576.372 1298.41 559.77 1289.92 C 525.752 1272.39 491.497 1255.34 457.014 1238.75 C 450.644 1244.41 443.96 1249.71 436.995 1254.63 C 429.864 1259.61 408.582 1273.26 403.803 1279.06 L 400.624 1281.18 C 392.74 1287.1 384.31 1293.48 375.247 1297.41 C 360.629 1283.29 357.668 1268.37 350.992 1249.35 C 353.694 1247.54 357.093 1245.63 359.927 1243.93 C 351.904 1191.85 329.817 1137.64 321.375 1085.17 C 318.757 1068.89 328.289 1047.17 342.076 1038.54 L 343.577 1039.25 C 341.58 1044.02 334.875 1049.73 331.444 1055.32 C 326.671 1063.05 324.251 1072 324.48 1081.08 C 324.753 1090.55 332.522 1119.12 335.161 1129.65 C 344.468 1166.77 354.925 1203.65 363.894 1240.91 C 389.671 1225.43 415.312 1209.73 440.815 1193.81 z"/>
<path transform="translate(0,0)" fill="rgb(254,254,254)" d="M 443.456 1196.92 L 445.08 1197.39 C 450.361 1203.28 455.946 1225.84 457.183 1234.19 C 441.927 1248.68 397.237 1278.1 378.081 1291.19 C 376.026 1292.59 374.233 1291.53 372.41 1290.66 C 364.167 1277.69 360.258 1265.19 354.836 1250.81 C 383.728 1234.24 414.358 1214.07 443.456 1196.92 z"/>
<path transform="translate(0,0)" fill="rgb(254,254,254)" d="M 1170.3 812.377 C 1204.49 784.121 1251.7 777.564 1292.31 795.431 C 1332.91 813.298 1359.97 852.535 1362.24 896.839 C 1364.42 939.388 1343.37 979.776 1307.24 1002.36 C 1271.12 1024.94 1225.59 1026.17 1188.3 1005.56 C 1151 984.963 1127.81 945.768 1127.69 903.163 C 1127.63 881.687 1133.47 860.606 1144.57 842.217 C 1151.4 830.891 1160.1 820.803 1170.3 812.377 z"/>
<path transform="translate(0,0)" fill="rgb(24,44,47)" d="M 1233.26 836.934 C 1269.52 830.554 1304.09 854.749 1310.51 890.997 C 1316.93 927.246 1292.77 961.843 1256.53 968.306 C 1220.23 974.779 1185.57 950.576 1179.14 914.269 C 1172.71 877.962 1196.95 843.323 1233.26 836.934 z"/>
<path transform="translate(0,0)" fill="rgb(254,254,254)" d="M 579.263 998.187 L 585.732 1003.28 C 593.37 1009.73 623.288 1034.68 630.889 1039.28 L 631.142 1041.46 C 625.858 1047.82 612.291 1059.71 605.686 1066.04 C 600.224 1065.23 599.047 1064.76 593.801 1065.84 C 588.296 1071.16 596.496 1073 581.893 1082.3 C 580.445 1085.15 580.278 1084.97 580.626 1088.09 C 582.236 1089.58 581.795 1089.19 581.953 1092.4 C 578.787 1092.87 577.199 1092.74 574.985 1094.99 L 574.152 1097.95 L 572.651 1099.1 L 571.351 1098.71 C 567.969 1098.85 566.668 1098.61 563.789 1100.41 C 562.151 1102.86 558.577 1110.59 557.581 1111.54 C 520.249 1147.16 509.702 1216.21 556.87 1249.01 C 586.705 1269.75 627.676 1260.22 655.508 1238.16 C 674.163 1224.59 691.558 1193.31 704.396 1173.49 C 714.226 1158.35 724.286 1143.37 734.574 1128.54 C 749.139 1141.43 770.847 1157.86 786.541 1170.28 C 786.512 1175.11 758.718 1217.16 753.966 1224.31 C 732.107 1257.19 716.938 1290.66 683.828 1313.59 C 676.642 1308.32 669.285 1304.97 663.612 1300.8 C 673.964 1298.19 675.916 1297.97 683.246 1288.9 C 685.562 1286.03 687.753 1282.8 687.266 1278.98 C 685.377 1276.22 686.56 1277.4 683.225 1275.72 C 678.437 1276.75 674.918 1282.34 668.283 1284.26 C 662.641 1285.89 652.583 1285.54 648.238 1287.19 C 635.329 1292.12 630.547 1305.02 618.276 1313.84 L 617.105 1314.66 C 601.371 1308.48 575.578 1293.91 559.863 1285.77 C 526.836 1268.72 493.571 1252.13 460.076 1236.01 C 460.024 1208.34 445.342 1198.51 445.883 1181.8 C 445.885 1180.89 445.871 1179.1 445.926 1178.38 C 450.926 1112.59 476.539 1093.5 519.687 1053.48 C 539.387 1034.88 559.247 1016.45 579.263 998.187 z"/>
<path transform="translate(0,0)" fill="rgb(1,2,2)" d="M 580.626 1088.09 C 582.236 1089.58 581.795 1089.19 581.953 1092.4 C 578.787 1092.87 577.199 1092.74 574.985 1094.99 L 574.152 1097.95 L 572.651 1099.1 L 571.351 1098.71 C 572.55 1091.04 573.566 1091.26 580.626 1088.09 z"/>
<path transform="translate(0,0)" fill="url(#Gradient4)" d="M 351.647 981.302 C 340.065 969.058 363.319 952.428 362.387 940.993 C 357.776 936.585 344.159 931.205 337.397 926.569 C 324.727 917.882 306.843 902.624 304.409 886.566 C 302.298 869.793 310.037 846.767 320.003 833.502 C 338.333 809.103 373.966 793.317 404.228 794.918 C 414.928 795.484 433.806 785.301 438.851 799.968 C 440.56 804.938 440.104 814.367 440.269 819.985 L 438.862 821.984 C 452.017 837.635 454.341 845.725 461.288 864.268 C 464.667 873.287 481.412 882.434 479.168 895.735 L 480.556 899.055 C 478.497 901.011 478.314 900.409 478.447 903.703 C 479.004 917.485 485.319 935.058 486.483 948.097 C 477.549 953.234 468.134 955.693 458.288 958.799 C 455.576 971.401 451.561 992.768 447.726 1004.17 C 451.057 1006.8 457.474 1010.4 461.317 1012.72 C 459.669 1020.88 457.615 1052.01 459.094 1060.11 C 461.074 1070.94 466.405 1087.02 469.202 1098.46 C 484.346 1080 499.004 1068.07 516.281 1051.93 L 582.012 990.338 L 583.427 993.854 C 583.332 997.47 584.719 998.03 587.32 1000.66 L 585.732 1003.28 L 579.263 998.187 C 559.247 1016.45 539.387 1034.88 519.687 1053.48 C 476.539 1093.5 450.926 1112.59 445.926 1178.38 C 445.871 1179.1 445.885 1180.89 445.883 1181.8 L 444.268 1184.7 L 442.895 1183.97 C 442.158 1151.07 451.976 1130.09 466.194 1101.92 C 462.857 1085.26 457.322 1066.11 452.927 1049.49 C 444.779 1041.21 365.589 988.95 354.012 983.359 L 351.647 981.302 z"/>
<path transform="translate(0,0)" fill="rgb(254,254,254)" d="M 438.862 821.984 C 452.017 837.635 454.341 845.725 461.288 864.268 C 464.667 873.287 481.412 882.434 479.168 895.735 L 480.556 899.055 C 478.497 901.011 478.314 900.409 478.447 903.703 C 479.004 917.485 485.319 935.058 486.483 948.097 C 477.549 953.234 468.134 955.693 458.288 958.799 C 455.576 971.401 451.561 992.768 447.726 1004.17 L 445.697 1002.03 C 420.554 987.727 394.224 966.773 367.542 951.456 C 382.202 947.087 387.757 935.599 392.853 922.363 C 366.98 908.186 368.355 876.1 406.259 897.355 C 410.359 896.161 413.351 894.658 417.181 892.892 C 416.896 880.037 417.418 870.487 418.336 857.619 C 419.032 847.86 415.422 844.584 409.228 838.281 C 421.662 832.681 427.564 829.641 438.862 821.984 z"/>
<path transform="translate(0,0)" fill="rgb(24,44,47)" d="M 479.168 895.735 L 480.556 899.055 C 478.497 901.011 478.314 900.409 478.447 903.703 C 479.004 917.485 485.319 935.058 486.483 948.097 C 477.549 953.234 468.134 955.693 458.288 958.799 C 455.576 971.401 451.561 992.768 447.726 1004.17 L 445.697 1002.03 C 445.294 992.606 413.565 955.877 406.249 941.602 C 413.525 944.624 420.301 949.193 428.18 952.437 C 446.568 960.009 465.169 953.991 482.466 946.608 C 479.295 934.472 476.111 916.462 475.076 903.897 C 474.698 899.308 476.432 898.37 479.168 895.735 z"/>
<path transform="translate(0,0)" fill="rgb(1,2,2)" d="M 454.09 908.114 C 458.79 908.882 468.128 910.113 472.153 911.688 L 472.329 913.587 C 464.931 915.685 457.466 916.178 454.09 908.114 z"/>
<path transform="translate(0,0)" fill="rgb(1,2,2)" d="M 446.656 853.754 C 449.98 853.7 451.609 853.686 453.959 855.528 C 451.625 858.439 450.427 858.078 446.265 859.628 C 444.273 861.302 443.421 862.511 440.921 862.658 L 440.548 861.311 C 442.311 857.121 443.068 856.835 446.656 853.754 z"/>
<path transform="translate(0,0)" fill="rgb(1,2,2)" d="M 448.571 865.622 C 454.976 866.948 457.017 872.193 458.067 877.949 L 455.308 877.534 C 450.831 873.926 449.833 871.226 448.571 865.622 z"/>
<path transform="translate(0,0)" fill="rgb(254,254,254)" d="M 361.575 951.437 C 393.239 972.553 426.111 992.746 457.159 1014.81 C 456.938 1019.88 457.3 1041.89 453.591 1044.57 L 451.332 1043.21 C 442.709 1035.52 423.032 1022.97 412.959 1016.4 C 392.165 1003.04 371.53 989.443 351.058 975.602 C 353.958 967.968 358.213 959.012 361.575 951.437 z"/>
<path transform="translate(0,0)" fill="rgb(24,44,47)" d="M 662.265 914.479 C 678.007 923.109 724.844 958.573 736.072 972.245 C 699.139 1010.52 654.61 1046.64 618.628 1084.71 C 617.465 1093.2 619.049 1091.2 612.385 1096.77 C 609.178 1099.45 598.108 1105.49 597.337 1107.66 C 593.766 1118.52 581.244 1119.17 572.352 1129.04 C 547.371 1156.79 537.444 1202.65 556.675 1236.19 C 577.782 1273 625.135 1254.19 652.185 1236.7 L 655.508 1238.16 C 627.676 1260.22 586.705 1269.75 556.87 1249.01 C 509.702 1216.21 520.249 1147.16 557.581 1111.54 C 558.577 1110.59 562.151 1102.86 563.789 1100.41 C 566.668 1098.61 567.969 1098.85 571.351 1098.71 L 572.651 1099.1 L 574.152 1097.95 L 574.985 1094.99 C 577.199 1092.74 578.787 1092.87 581.953 1092.4 C 581.795 1089.19 582.236 1089.58 580.626 1088.09 C 580.278 1084.97 580.445 1085.15 581.893 1082.3 C 596.496 1073 588.296 1071.16 593.801 1065.84 C 599.047 1064.76 600.224 1065.23 605.686 1066.04 C 612.291 1059.71 625.858 1047.82 631.142 1041.46 L 630.889 1039.28 C 623.288 1034.68 593.37 1009.73 585.732 1003.28 L 587.32 1000.66 C 584.719 998.03 583.332 997.47 583.427 993.854 L 582.012 990.338 C 599.658 971.087 631.984 943.134 652.002 924.436 L 662.265 914.479 z"/>
<path transform="translate(0,0)" fill="rgb(236,28,38)" d="M 656.547 925.472 C 658.573 923.656 660.778 920.802 662.589 921.846 C 677.968 930.715 700.469 951.843 714.452 962.34 C 697.253 979.125 679.925 995.778 662.47 1012.3 C 656.883 1017.66 639.479 1035.07 634.15 1038.39 L 632.239 1038.11 L 630.889 1039.28 C 623.288 1034.68 593.37 1009.73 585.732 1003.28 L 587.32 1000.66 C 584.719 998.03 583.332 997.47 583.427 993.854 L 582.012 990.338 C 599.658 971.087 631.984 943.134 652.002 924.436 C 653.105 924.654 655.658 925.059 656.547 925.472 z"/>
<path transform="translate(0,0)" fill="rgb(1,2,2)" d="M 582.012 990.338 C 599.658 971.087 631.984 943.134 652.002 924.436 C 653.105 924.654 655.658 925.059 656.547 925.472 C 646.916 935.92 634.067 947.073 623.472 956.801 L 583.427 993.854 L 582.012 990.338 z"/>
<path transform="translate(0,0)" fill="rgb(1,2,2)" d="M 587.32 1000.66 C 598.356 1009.26 624.181 1028.51 632.239 1038.11 L 630.889 1039.28 C 623.288 1034.68 593.37 1009.73 585.732 1003.28 L 587.32 1000.66 z"/>
<path transform="translate(0,0)" fill="rgb(254,254,254)" d="M 574.152 1097.95 L 574.985 1094.99 C 577.199 1092.74 578.787 1092.87 581.953 1092.4 L 582.937 1093.62 C 586.687 1098.23 590.692 1100.7 593 1106.05 C 592.353 1109.83 592.588 1108.63 589.871 1111.95 C 583.483 1113.89 577.57 1102.8 574.152 1097.95 z"/>
<path transform="translate(0,0)" fill="rgb(254,254,254)" d="M 594.773 1068.39 C 602.338 1069.11 609.668 1079.16 613.59 1085.28 C 615.326 1087.99 614.417 1089.36 613.642 1092.25 C 612.034 1092.23 610.189 1092.08 608.562 1091.98 C 600.072 1086.6 592.153 1078.94 594.773 1068.39 z"/>
<path transform="translate(0,0)" fill="rgb(254,254,254)" d="M 586.473 1081.44 C 593.669 1082.49 601.246 1087.75 603.412 1095.1 C 604.248 1097.94 601.731 1099.94 600.061 1101.97 C 594.699 1101.34 587.519 1093.06 585.264 1088.33 C 583.726 1085.09 584.995 1084.23 586.473 1081.44 z"/>
<path transform="translate(0,0)" fill="rgb(254,254,254)" d="M 567.861 1100.44 C 573.216 1103.36 578.955 1107.96 580.549 1114 C 579.73 1118.19 579.923 1116.95 576.876 1120.64 C 571.443 1117.07 566.518 1112.69 564.573 1106.45 C 565.193 1102.46 564.79 1103.86 567.861 1100.44 z"/>
<path transform="translate(0,0)" fill="rgb(219,253,234)" d="M 413.803 323.409 C 413.978 319.737 413.762 318.763 415.687 315.573 C 420.856 314.424 455.74 314.046 462.293 314.382 L 469.092 315.885 C 475.001 315.904 480.909 315.851 486.816 315.729 C 486.686 328.313 486.434 340.897 486.061 353.477 C 487.555 362.458 487.123 396.322 487.158 407.201 L 486.829 528.446 C 463.947 529.28 437.302 528.755 414.163 528.839 L 414.153 398.455 C 414.214 378.863 415.613 341.165 413.803 323.409 z"/>
<path transform="translate(0,0)" fill="rgb(159,191,175)" d="M 413.803 323.409 C 413.978 319.737 413.762 318.763 415.687 315.573 C 420.856 314.424 455.74 314.046 462.293 314.382 L 469.092 315.885 C 465.737 315.98 459.36 315.504 457.225 317.105 L 457.029 317.857 C 444.01 318.321 430.974 317.98 417.997 316.836 L 417.927 524.807 C 436.258 524.567 466.386 523.557 483.598 525.021 C 483.216 499.834 483.364 474.64 483.741 449.454 C 483.955 435.186 481.95 412.569 483.32 399.298 C 484.4 394.488 483.838 381.127 484.266 375.479 C 484.814 368.225 485.466 360.733 486.061 353.477 C 487.555 362.458 487.123 396.322 487.158 407.201 L 486.829 528.446 C 463.947 529.28 437.302 528.755 414.163 528.839 L 414.153 398.455 C 414.214 378.863 415.613 341.165 413.803 323.409 z"/>
<path transform="translate(0,0)" fill="rgb(148,179,161)" d="M 469.092 315.885 C 475.001 315.904 480.909 315.851 486.816 315.729 C 486.686 328.313 486.434 340.897 486.061 353.477 C 485.466 360.733 484.814 368.225 484.266 375.479 C 483.838 381.127 484.4 394.488 483.32 399.298 C 483.14 372.18 484.083 344.725 483.529 317.82 C 474.555 318.095 465.989 317.977 457.029 317.857 L 457.225 317.105 C 459.36 315.504 465.737 315.98 469.092 315.885 z"/>
<path transform="translate(0,0)" fill="rgb(148,179,161)" d="M 427.745 256.133 C 461.165 265.384 494.848 273.631 528.22 283.053 C 536.733 285.456 545.097 287.82 553.889 289.001 C 565.864 297.086 624.238 361.63 631.763 373.639 C 636.597 369.118 641.487 364.658 646.431 360.258 C 649.396 376.921 656.141 413.222 661.065 428.587 C 638.536 421.459 615.681 411.87 592.83 406.87 C 597.678 403.195 604.569 397.658 609.528 394.554 C 583.644 368.324 566.425 347.725 542.128 320.979 C 531.917 317.631 489.598 304.76 480.637 304.325 C 460.606 298.757 438.045 293.219 418.462 287.032 C 421.681 276.77 424.776 266.47 427.745 256.133 z M 423.301 285.194 C 443.607 290.239 468.985 297.656 488.865 301.872 C 495.759 300.85 506.461 295.916 514.445 293.988 C 521.941 292.179 528.575 291.54 535.649 289.242 C 500.473 279.17 465.201 269.438 429.837 260.048 C 427.708 268.443 425.53 276.825 423.301 285.194 z"/>
<path transform="translate(0,0)" fill="rgb(219,253,234)" d="M 535.649 289.242 C 557.853 291.438 563.582 299.804 577.298 316.114 C 593.203 335.026 610.949 353.789 626.484 372.792 C 628.147 374.808 629.768 376.86 631.343 378.945 C 634.756 375.768 639.736 370.84 643.295 368.119 C 647.833 386.707 652.258 405.322 656.571 423.964 C 637.409 417.39 618.198 410.965 598.937 404.686 C 603.309 401.493 608.796 397.712 612.859 394.288 C 598.817 380.53 553.381 323.901 541.723 318.539 C 525.093 310.889 505.219 310.018 488.865 301.872 C 495.759 300.85 506.461 295.916 514.445 293.988 C 521.941 292.179 528.575 291.54 535.649 289.242 z"/>
<path transform="translate(0,0)" fill="rgb(254,254,254)" d="M 1074.82 781.038 C 1093.66 794.28 1123.3 823.015 1141.82 839.139 C 1144.21 840.929 1143.56 839.798 1144.57 842.217 C 1133.47 860.606 1127.63 881.687 1127.69 903.163 L 1125.89 903.172 C 1125.14 906.333 1125.28 909.531 1124.48 912.256 C 1124.34 909.424 1124.59 905.029 1123.35 902.545 C 1121.05 897.969 1018.38 903.731 1004.98 899.995 C 1009.22 896.363 1024.74 898.333 1033.21 897.205 C 1034.15 871.214 1037.83 851.369 1047.23 826.781 L 1051.35 825.94 C 1053.35 823.889 1056.32 822.955 1058.93 821.621 C 1072.38 814.748 1076.34 812.465 1085.01 800.145 C 1075.35 805.63 1065.6 818.431 1053.45 819.004 C 1060.1 806.238 1067.62 793.538 1074.82 781.038 z"/>
<path transform="translate(0,0)" fill="rgb(1,2,2)" d="M 1047.23 826.781 L 1051.35 825.94 C 1042.56 848.759 1037.66 872.893 1036.87 897.334 L 1124.11 897.172 C 1125.94 874.422 1129.89 859.058 1141.82 839.139 C 1144.21 840.929 1143.56 839.798 1144.57 842.217 C 1133.47 860.606 1127.63 881.687 1127.69 903.163 L 1125.89 903.172 C 1125.14 906.333 1125.28 909.531 1124.48 912.256 C 1124.34 909.424 1124.59 905.029 1123.35 902.545 C 1121.05 897.969 1018.38 903.731 1004.98 899.995 C 1009.22 896.363 1024.74 898.333 1033.21 897.205 C 1034.15 871.214 1037.83 851.369 1047.23 826.781 z"/>
<path transform="translate(0,0)" fill="rgb(24,44,47)" d="M 808.786 1044.77 C 805.269 1039.72 803.112 1038.67 798.151 1035.02 L 797.392 1033.18 C 797.001 1033.13 796.611 1033.08 796.221 1033.03 C 799.865 1032.96 800.696 1033.55 803.789 1035.15 L 805.423 1034.71 C 816.138 1041.32 862.062 1078.48 870.071 1087.99 L 780.367 1224.53 C 761.756 1253.23 743.886 1287.38 720.105 1311.99 C 706.555 1326.02 685.217 1335.38 668.473 1344.82 C 661.252 1349.26 655.503 1357.41 646.574 1358.6 C 627.711 1361.11 608.509 1355.18 590.107 1352.59 C 566.292 1349.24 547.471 1338.64 525.571 1329.98 C 512.076 1324.63 496.152 1321.1 482.821 1315.48 L 484.399 1312.39 C 495.927 1317.06 518.668 1323.9 531.42 1327.59 C 565.89 1337.58 606.409 1356.19 642.269 1355.03 C 656.745 1354.56 664.577 1340.36 674.269 1329.17 C 679.583 1329.34 688.301 1330.64 688.63 1323.52 C 683.626 1315.12 667.078 1308.83 658.935 1301.58 C 661.165 1300.46 661.081 1300.63 663.612 1300.8 C 669.285 1304.97 676.642 1308.32 683.828 1313.59 C 716.938 1290.66 732.107 1257.19 753.966 1224.31 C 758.718 1217.16 786.512 1175.11 786.541 1170.28 L 788.572 1168.94 C 797.966 1160.79 818.79 1124.51 827.084 1112.64 C 833.754 1103.09 843.634 1089 850.034 1079.17 C 838.423 1067.76 821.6 1057.3 808.786 1044.77 z"/>
<path transform="translate(0,0)" fill="rgb(94,234,172)" d="M 1615.21 1381.91 C 1616.11 1378.91 1611.52 1367.73 1611.99 1361.05 C 1612.4 1350.65 1619.03 1337.46 1617.4 1327.1 C 1611.71 1290.93 1577.53 1249.87 1605.64 1214.7 C 1607.15 1212.81 1607.83 1213.18 1609.81 1213.31 C 1616.22 1218.13 1618.52 1232.29 1622.17 1239.45 C 1637.12 1268.85 1646.16 1296.67 1655.13 1328.46 C 1654.51 1345.32 1668.85 1385.83 1653.68 1399.01 C 1654.7 1415.57 1660.54 1438.47 1663.64 1455.44 C 1670.66 1493.89 1676.34 1528.55 1679.88 1567.55 C 1675.4 1562.28 1676.77 1543.15 1673.71 1534.97 C 1671.77 1548.91 1676.96 1560.84 1675.04 1568.54 C 1670.71 1551.79 1669.79 1526.75 1667.53 1508.82 C 1663.44 1476.35 1659.43 1442.17 1651.79 1410.34 C 1634.96 1410.7 1622.64 1395.17 1615.21 1381.91 z"/>
<path transform="translate(0,0)" fill="rgb(8,22,17)" d="M 1651.79 1410.34 C 1646.14 1373.29 1635.99 1335.05 1626.82 1298.73 C 1623.37 1285.07 1612.54 1259.41 1613.86 1246.21 L 1614.91 1247.1 L 1614.21 1246.13 L 1614.15 1247.8 L 1615.56 1248.35 C 1619.37 1257.68 1622.44 1271.25 1625.52 1281.13 C 1637.53 1319.64 1645.27 1359.52 1653.68 1399.01 C 1654.7 1415.57 1660.54 1438.47 1663.64 1455.44 C 1670.66 1493.89 1676.34 1528.55 1679.88 1567.55 C 1675.4 1562.28 1676.77 1543.15 1673.71 1534.97 C 1671.77 1548.91 1676.96 1560.84 1675.04 1568.54 C 1670.71 1551.79 1669.79 1526.75 1667.53 1508.82 C 1663.44 1476.35 1659.43 1442.17 1651.79 1410.34 z"/>
<path transform="translate(0,0)" fill="rgb(236,28,38)" d="M 796.539 1035.86 C 800.581 1038.69 804.777 1041.85 808.786 1044.77 C 821.6 1057.3 838.423 1067.76 850.034 1079.17 C 843.634 1089 833.754 1103.09 827.084 1112.64 C 818.79 1124.51 797.966 1160.79 788.572 1168.94 C 769.978 1151.99 754.972 1141.39 735.76 1125.89 C 753.122 1098.33 781.718 1064.05 796.539 1035.86 z"/>
<path transform="translate(0,0)" fill="url(#Gradient3)" d="M 1362.24 896.839 L 1363.48 901.406 L 1364.8 901.214 C 1369.85 918.653 1358.35 946.884 1350.54 962.388 C 1359 969.19 1368.35 976.412 1376.14 983.114 C 1391.54 996.348 1421.85 1013.98 1403.73 1037.3 C 1397.7 1045.05 1385.38 1049.43 1375.54 1044.75 C 1355.67 1031.99 1339.02 1013.13 1320.36 998.139 C 1288.73 1018.78 1260.43 1030.16 1221.36 1021.93 C 1188.93 1014.81 1160.66 995.091 1142.78 967.109 C 1131.49 949.384 1126.6 932.904 1124.48 912.256 C 1125.28 909.531 1125.14 906.333 1125.89 903.172 L 1127.69 903.163 C 1127.81 945.768 1151 984.963 1188.3 1005.56 C 1225.59 1026.17 1271.12 1024.94 1307.24 1002.36 C 1343.37 979.776 1364.42 939.388 1362.24 896.839 z"/>
<path transform="translate(0,0)" fill="rgb(94,234,172)" d="M 1580.14 1425.18 L 1580.75 1424.88 C 1580.76 1424.37 1571.34 1413.76 1570.02 1412.49 C 1560.02 1402.91 1545.7 1345.72 1564.09 1341.5 C 1574.69 1344.67 1581.8 1366.54 1588.79 1375.9 C 1595 1384.23 1600.71 1392.57 1609.06 1399.2 L 1610.51 1399.05 C 1622.03 1405.17 1637.87 1434.61 1635.78 1447.83 L 1633.4 1447.68 C 1632.5 1449.94 1632.15 1450.49 1631.66 1452.81 L 1631.2 1452.44 C 1617.05 1446.46 1591.04 1434.44 1580.14 1425.18 z"/>
<path transform="translate(0,0)" fill="rgb(8,45,23)" d="M 1631.2 1452.44 C 1627.18 1440.41 1614.55 1427.14 1606.61 1417.39 C 1599.7 1408.9 1564.92 1375.26 1570.71 1365.18 C 1573.17 1366.71 1577.36 1376.93 1581.11 1381.73 C 1594.88 1399.33 1624.37 1428.11 1633.4 1447.68 C 1632.5 1449.94 1632.15 1450.49 1631.66 1452.81 L 1631.2 1452.44 z"/>
<path transform="translate(0,0)" fill="rgb(94,234,172)" d="M 1587.04 1490.51 C 1580.12 1471.57 1576.96 1453.15 1562.46 1437.74 C 1558.12 1433.12 1542.07 1419.66 1543.48 1414.33 C 1553.21 1411.44 1560.15 1425.37 1569.47 1429.76 C 1570.32 1426.71 1569.48 1427.62 1571.39 1425.83 C 1574.95 1425.03 1575.6 1424.44 1579.03 1425.04 C 1576.18 1427.27 1573.61 1427.98 1570.24 1429.27 C 1593.01 1449.93 1618.02 1481.32 1631.68 1509.01 L 1629.37 1509.18 C 1609.29 1517.47 1597.15 1506.96 1587.04 1490.51 z"/>
<path transform="translate(0,0)" fill="rgb(254,254,254)" d="M 1007.35 896.897 C 1011.14 876.319 1006.67 858.448 1022.82 840.187 C 1028.95 833.249 1037.88 827.594 1047.23 826.781 C 1037.83 851.369 1034.15 871.214 1033.21 897.205 C 1024.59 897.004 1015.97 896.902 1007.35 896.897 z"/>
<path transform="translate(0,0)" fill="rgb(1,2,2)" d="M 797.177 1029.17 C 800.629 1031.04 802.256 1032.32 805.423 1034.71 L 803.789 1035.15 C 800.696 1033.55 799.865 1032.96 796.221 1033.03 C 796.611 1033.08 797.001 1033.13 797.392 1033.18 L 798.151 1035.02 C 803.112 1038.67 805.269 1039.72 808.786 1044.77 C 804.777 1041.85 800.581 1038.69 796.539 1035.86 C 781.718 1064.05 753.122 1098.33 735.76 1125.89 C 754.972 1141.39 769.978 1151.99 788.572 1168.94 L 786.541 1170.28 C 770.847 1157.86 749.139 1141.43 734.574 1128.54 C 724.286 1143.37 714.226 1158.35 704.396 1173.49 C 691.558 1193.31 674.163 1224.59 655.508 1238.16 L 652.185 1236.7 C 677.716 1214.56 698.471 1175.85 718.292 1146.2 L 797.177 1029.17 z"/>
<path transform="translate(0,0)" fill="rgb(94,234,172)" d="M 1053.45 819.004 C 1065.6 818.431 1075.35 805.63 1085.01 800.145 C 1076.34 812.465 1072.38 814.748 1058.93 821.621 C 1056.32 822.955 1053.35 823.889 1051.35 825.94 L 1047.23 826.781 C 1037.88 827.594 1028.95 833.249 1022.82 840.187 C 1006.67 858.448 1011.14 876.319 1007.35 896.897 C 1015.97 896.902 1024.59 897.004 1033.21 897.205 C 1024.74 898.333 1009.22 896.363 1004.98 899.995 C 1001.39 905.535 994.275 915.829 989.162 919.53 C 969.813 933.533 949.251 929.295 933.496 951.141 C 916.801 974.29 930.581 999.056 909.245 1020.57 C 896.341 1033.59 883.18 1033.61 867.621 1040.22 C 863.415 1042.01 852.626 1051.11 848.901 1054.28 C 848.78 1051.32 850.686 1049.45 852.915 1047.11 C 868.347 1030.89 888.989 1036.06 905.331 1020.3 C 931.387 995.186 911.286 968.152 936.91 942.469 C 954.344 924.993 980.519 929.552 995.517 909.656 C 997.651 906.826 999.82 904.569 1000.27 901.064 L 1003.07 897.327 C 1009.19 887.219 1003.33 859.442 1016.44 844.083 C 1023.84 835.418 1039.24 821.439 1050.64 819.619 L 1051.4 820.349 L 1053.45 819.004 z"/>
<path transform="translate(0,0)" fill="rgb(94,234,172)" d="M 944.408 761.439 L 944.586 761.986 C 932.881 770.84 938.538 770.678 933.501 780.538 C 924.254 781.747 923.188 783.368 922.229 793.333 C 920.43 812.026 918.372 833.929 901.962 846.091 C 882.082 860.825 855.074 857.454 841.684 882.415 C 839.435 886.608 835.734 891.176 836.928 896.315 L 838.867 897.436 C 836.8 899.437 837.293 898.236 836.805 900.814 C 835.483 903.694 834.906 917.636 833.952 922.28 C 830.556 938.811 818.511 952.813 802.763 958.905 C 794.154 962.236 785.527 963.922 777.24 967.894 C 768.988 971.714 766.951 976.134 760.089 980.856 L 759.05 979.722 C 762.295 962.921 814.861 960.137 824.909 937.098 C 828.715 928.372 835.163 913.2 832.637 901.661 L 830.297 900.531 L 832.136 899.613 L 832.161 898.433 C 828.22 897.206 815.029 897.483 809.501 897.189 C 816.241 896.648 826.555 896.896 833.556 896.853 C 848.563 837.179 896.324 872.489 914.171 820.492 C 918.413 808.134 916.344 794.575 921.944 782.619 C 922.915 780.545 923.569 778.688 923.978 776.442 C 929.048 771.783 930.712 769.995 936.791 766.701 C 938.423 765.37 942.505 762.738 944.408 761.439 z"/>
<path transform="translate(0,0)" fill="rgb(8,22,17)" d="M 920.103 897.444 C 941.588 896.751 981.993 896.031 1003.07 897.327 L 1000.27 901.064 C 968.721 900.655 936.655 900.778 905.079 900.87 C 909.922 897.399 914.031 897.858 920.103 897.444 z"/>
<path transform="translate(0,0)" fill="rgb(1,2,2)" d="M 440.269 819.985 C 455.696 835.271 456.393 844.12 464.798 862.878 C 468.984 872.221 481.421 879.002 483.729 891.993 C 482.834 895.976 482.979 895.832 480.556 899.055 L 479.168 895.735 C 481.412 882.434 464.667 873.287 461.288 864.268 C 454.341 845.725 452.017 837.635 438.862 821.984 L 440.269 819.985 z"/>
<path transform="translate(0,0)" fill="rgb(8,22,17)" d="M 783.95 896.995 L 809.501 897.189 C 815.029 897.483 828.22 897.206 832.161 898.433 L 832.136 899.613 L 830.297 900.531 C 817.933 901.658 796.726 901.006 784.008 900.751 L 783.95 896.995 z"/>
<path transform="translate(0,0)" fill="rgb(219,253,234)" d="M 1213.33 1476.67 C 1235.15 1476.75 1257.88 1477.13 1279.63 1476.84 C 1280.9 1495.57 1283.86 1518.58 1286.32 1537.42 C 1303.48 1542.34 1311.42 1546.51 1326.5 1556.26 C 1342.88 1545.95 1360.15 1535.69 1375.36 1523.84 C 1390.17 1539.58 1403.66 1560.55 1418.63 1576.58 C 1403.97 1591.7 1388.08 1605.66 1374.57 1619.56 C 1381.27 1637.86 1382.38 1644.27 1384.4 1663.54 C 1402.67 1669.87 1426.06 1675.35 1443.42 1683.08 C 1437.52 1704.47 1433.39 1726.81 1427.62 1747.64 C 1409.27 1745.41 1380.25 1740.18 1362.88 1739.81 C 1357.58 1752.24 1346.94 1761.65 1337.24 1770.85 C 1341.84 1780.74 1356.64 1821.95 1359.5 1832.76 C 1338.84 1840.61 1318.68 1853.21 1298.04 1861.62 C 1286.95 1842.93 1275.33 1824.6 1264.29 1805.9 C 1251.57 1807.99 1237.58 1806.88 1224.79 1805.8 C 1213.8 1824.9 1202.2 1843.64 1189.99 1862 C 1173.42 1852.87 1147.65 1841.41 1130.07 1833.9 C 1137.54 1812.3 1145.19 1790.76 1153.03 1769.28 C 1140.63 1758.49 1135.33 1752.4 1127.01 1738.3 C 1109.16 1739.7 1081.2 1743.92 1063.48 1747.34 C 1059.18 1728.03 1053.98 1700.19 1048.27 1682.02 C 1068.11 1676.17 1088.33 1667.29 1109.16 1661.34 C 1110.08 1647.35 1113.81 1633.35 1117.68 1619.94 C 1102.77 1605.78 1088.25 1590.74 1073.46 1576.36 C 1082.24 1562.39 1102.03 1538.79 1112.84 1524.93 C 1119.23 1523.9 1157.9 1550.83 1166.3 1555.73 C 1181.1 1546.87 1189.43 1542.1 1206.64 1537.54 C 1207.85 1517.4 1211.79 1496.87 1213.33 1476.67 z"/>
<path transform="translate(0,0)" fill="rgb(148,179,161)" d="M 1213.33 1476.67 C 1235.15 1476.75 1257.88 1477.13 1279.63 1476.84 C 1280.9 1495.57 1283.86 1518.58 1286.32 1537.42 C 1303.48 1542.34 1311.42 1546.51 1326.5 1556.26 C 1342.88 1545.95 1360.15 1535.69 1375.36 1523.84 C 1390.17 1539.58 1403.66 1560.55 1418.63 1576.58 C 1403.97 1591.7 1388.08 1605.66 1374.57 1619.56 C 1381.27 1637.86 1382.38 1644.27 1384.4 1663.54 C 1402.67 1669.87 1426.06 1675.35 1443.42 1683.08 C 1437.52 1704.47 1433.39 1726.81 1427.62 1747.64 C 1409.27 1745.41 1380.25 1740.18 1362.88 1739.81 C 1357.58 1752.24 1346.94 1761.65 1337.24 1770.85 C 1341.84 1780.74 1356.64 1821.95 1359.5 1832.76 C 1357.87 1830.97 1357.6 1830.62 1355.75 1829.06 C 1349.46 1818.4 1340.39 1785.95 1332.69 1770.5 C 1345.92 1758.99 1352.13 1750.89 1361.46 1736.29 C 1382.69 1739.26 1403.97 1741.81 1425.29 1743.95 C 1428.52 1723.85 1435.35 1704.65 1438.64 1684.81 C 1419.87 1679.3 1400.13 1672.38 1381.09 1666.56 C 1379.34 1647.82 1377.48 1636.93 1370.89 1619.49 C 1384.45 1604.93 1401.1 1590.68 1413.42 1576.81 C 1410.67 1573.15 1407.08 1569.01 1404.06 1565.48 C 1394 1553.78 1385.4 1541.1 1375.9 1529 C 1359.08 1538.13 1342.41 1549.85 1326.64 1560.72 C 1313.19 1551.34 1298.46 1544.89 1282.83 1540.19 C 1280.16 1523.86 1278.18 1497.11 1276.81 1480.26 C 1256.64 1480.02 1236.47 1480.18 1216.31 1480.74 C 1214.31 1493.63 1209.19 1527.7 1209.14 1539.38 C 1190.92 1545.03 1181.5 1550.02 1165.47 1560.4 C 1152.49 1549.67 1128.59 1538.78 1116.18 1528.42 C 1113.93 1527.23 1114.54 1527.32 1112.84 1524.93 C 1119.23 1523.9 1157.9 1550.83 1166.3 1555.73 C 1181.1 1546.87 1189.43 1542.1 1206.64 1537.54 C 1207.85 1517.4 1211.79 1496.87 1213.33 1476.67 z"/>
<path transform="translate(0,0)" fill="rgb(159,191,175)" d="M 1112.84 1524.93 C 1114.54 1527.32 1113.93 1527.23 1116.18 1528.42 C 1108.62 1535.56 1085.33 1566.46 1077.81 1576.53 C 1094.06 1591.56 1106.58 1602.49 1122.28 1618.54 C 1116.29 1634.62 1113.79 1646.07 1112.78 1663.41 C 1092.67 1669.48 1072.78 1677.76 1052.78 1684.41 C 1057.11 1703.55 1061.64 1724.56 1066.51 1743.53 C 1086.69 1740.22 1110.02 1738.46 1128.95 1734.44 C 1135.25 1744.59 1147.82 1762.22 1157.2 1769.61 C 1150.54 1787.73 1140.22 1813.53 1134.96 1831.53 C 1153.32 1839.28 1171.39 1847.68 1189.15 1856.72 C 1199.87 1838.98 1212.97 1819.09 1222.94 1801.59 C 1238.79 1802.93 1250.5 1803.84 1266.54 1801.09 C 1275.71 1817.74 1289.39 1841.02 1300.35 1856.83 C 1317.18 1847.37 1341.89 1837.47 1355.75 1829.06 C 1357.6 1830.62 1357.87 1830.97 1359.5 1832.76 C 1338.84 1840.61 1318.68 1853.21 1298.04 1861.62 C 1286.95 1842.93 1275.33 1824.6 1264.29 1805.9 C 1251.57 1807.99 1237.58 1806.88 1224.79 1805.8 C 1213.8 1824.9 1202.2 1843.64 1189.99 1862 C 1173.42 1852.87 1147.65 1841.41 1130.07 1833.9 C 1137.54 1812.3 1145.19 1790.76 1153.03 1769.28 C 1140.63 1758.49 1135.33 1752.4 1127.01 1738.3 C 1109.16 1739.7 1081.2 1743.92 1063.48 1747.34 C 1059.18 1728.03 1053.98 1700.19 1048.27 1682.02 C 1068.11 1676.17 1088.33 1667.29 1109.16 1661.34 C 1110.08 1647.35 1113.81 1633.35 1117.68 1619.94 C 1102.77 1605.78 1088.25 1590.74 1073.46 1576.36 C 1082.24 1562.39 1102.03 1538.79 1112.84 1524.93 z"/>
<path transform="translate(0,0)" fill="rgb(148,179,161)" d="M 1240.3 1580.42 C 1288.62 1577.34 1330.36 1613.86 1333.71 1662.16 C 1337.06 1710.46 1300.77 1752.39 1252.49 1756.01 C 1203.84 1759.65 1161.5 1723.02 1158.12 1674.34 C 1154.75 1625.67 1191.61 1583.54 1240.3 1580.42 z"/>
<path transform="translate(0,0)" fill="rgb(219,253,234)" d="M 1237.32 1584.63 C 1283.68 1579.85 1325.13 1613.57 1329.87 1659.94 C 1334.61 1706.3 1300.83 1747.71 1254.47 1752.4 C 1208.17 1757.08 1166.83 1723.37 1162.1 1677.08 C 1157.37 1630.79 1191.04 1589.41 1237.32 1584.63 z"/>
<path transform="translate(0,0)" fill="rgb(159,191,175)" d="M 1091.49 1150.32 C 1157.41 1143.9 1216.03 1192.16 1222.38 1258.08 C 1228.74 1324 1180.41 1382.58 1114.48 1388.86 C 1048.66 1395.14 990.187 1346.9 983.843 1281.08 C 977.498 1215.25 1025.68 1156.73 1091.49 1150.32 z"/>
<path transform="translate(0,0)" fill="rgb(219,253,234)" d="M 1090.29 1154.08 C 1154.06 1147.11 1211.4 1193.16 1218.36 1256.93 C 1225.32 1320.69 1179.27 1378.03 1115.5 1384.98 C 1051.74 1391.93 994.421 1345.88 987.462 1282.13 C 980.503 1218.37 1026.54 1161.05 1090.29 1154.08 z"/>
<path transform="translate(0,0)" fill="rgb(148,179,161)" d="M 1100.06 1181.3 L 1112.2 1181.18 L 1112.57 1195.19 C 1137.44 1202.08 1140.24 1214.01 1142.79 1237.34 L 1114.71 1242.17 L 1114.21 1235.96 C 1113.73 1229.47 1113.09 1221.96 1105.82 1219.54 C 1103.91 1219.94 1102.14 1220.19 1100.96 1222.31 C 1089.15 1244.56 1121.77 1256.62 1134.16 1273.35 C 1151.5 1296.76 1149.3 1333.49 1114.81 1339.33 C 1114.6 1344.36 1115.42 1348.73 1113.6 1353.23 C 1110.64 1356.1 1110.93 1355.21 1105.88 1355.98 C 1101.51 1354.21 1102.27 1344.89 1102.03 1340.31 C 1073.51 1338.7 1070.55 1317.27 1066.55 1295.3 C 1075.98 1293.21 1085.96 1291.86 1095.54 1290.39 C 1095.71 1299.49 1095.89 1313.85 1106.95 1316.42 C 1113.14 1314.61 1113.91 1308.6 1113.06 1302.88 C 1109.87 1277.13 1072.45 1269.91 1067.84 1244.47 C 1063.03 1217.92 1074.74 1201.66 1100.1 1196.47 L 1100.06 1181.3 z"/>
<path transform="translate(0,0)" fill="rgb(219,253,234)" d="M 1105.04 1184.5 C 1109.45 1186.69 1108.75 1194.73 1109.02 1199.47 C 1132.65 1204.01 1135.54 1211.6 1139.02 1234.45 C 1132.08 1235.44 1124.7 1236.91 1117.75 1238.17 C 1117.45 1230.04 1117.58 1222.57 1110.05 1217.67 C 1104.57 1214.1 1098.74 1216.66 1096.33 1222.3 C 1088.24 1240.74 1105.81 1252.79 1118.42 1263.24 C 1135.73 1277.59 1148.46 1297 1137.49 1319.93 C 1132.61 1330.14 1121.15 1333.58 1110.99 1336.53 C 1111.17 1340.85 1112.02 1349.26 1108.43 1351.93 C 1106.33 1350.4 1107.26 1351.36 1106.58 1347.76 L 1106 1336.8 C 1079.09 1333.87 1073.36 1322.74 1070.22 1297.86 L 1091.73 1293.27 C 1092.22 1302.67 1094.02 1319.87 1107.47 1319.13 C 1110.08 1319.01 1112.51 1317.77 1114.15 1315.74 C 1117.08 1312.12 1116.95 1308.24 1116.76 1303.83 C 1115.55 1275.4 1073.57 1269.51 1071.09 1240.64 C 1069.08 1217.21 1079.67 1201.6 1103.41 1199.78 C 1103.64 1194.33 1103.54 1189.74 1105.04 1184.5 z"/>
<path transform="translate(0,0)" fill="rgb(148,179,161)" d="M 890.325 1454.22 C 907.083 1455.2 921.273 1454.94 937.963 1454.09 C 939.695 1466.1 940.417 1482.42 941.822 1495.27 C 953.622 1499.85 959.786 1502.81 970.728 1509.22 C 978.533 1503.08 994.791 1493.3 1004.04 1486.95 C 1015.08 1498.88 1025.11 1511.28 1035.44 1523.81 C 1025.59 1534.52 1014.99 1544.34 1004.98 1554.96 C 1007.82 1563.16 1010.61 1575.71 1011.16 1584.33 C 1024.94 1588.56 1038.19 1592.57 1051.74 1597.49 C 1047.9 1611.74 1043.03 1629.34 1040.46 1643.64 C 1026.24 1641.22 1011.51 1638.91 997.141 1637.83 C 991.016 1648.02 986.399 1652.16 978.012 1660.62 C 982.869 1674.68 988.824 1688.15 993.784 1702.97 C 979.757 1710.12 964.658 1716.9 950.305 1723.51 L 929.915 1688.54 C 926.5 1682.74 906.711 1684.93 899.632 1684.88 L 876.03 1722.64 C 862.03 1716.68 847.023 1708.83 833.288 1701.98 C 838.514 1687.61 844.056 1673.58 849.082 1659.09 C 840.5 1650.9 837.125 1646.4 830.583 1636.47 C 820.138 1637.44 798.389 1642.6 786.329 1644.69 C 782.574 1629.26 779.33 1612.46 776.147 1596.87 C 789.528 1592.06 802.975 1587.43 816.483 1582.98 C 818.599 1574.6 822.079 1561.75 823.09 1553.52 C 813.698 1545.49 801.826 1533.18 793.034 1524.33 C 802.646 1511.61 813.48 1500.08 823.042 1487 C 837.124 1495.14 846.144 1501.26 859.111 1510.72 C 869.649 1503.67 874.996 1500.38 886.794 1495.94 C 887.797 1482.02 888.974 1468.11 890.325 1454.22 z"/>
<path transform="translate(0,0)" fill="rgb(219,253,234)" d="M 893.28 1458.05 L 935.55 1458.08 C 936.251 1471.47 937.379 1485.29 938.343 1498.7 C 950.986 1501.15 959.71 1506.59 970.154 1513.95 C 981.153 1506.03 992.343 1498.38 1003.72 1491.01 C 1013.73 1500.93 1021.84 1514.4 1031.08 1523.67 C 1022 1530.84 1010.56 1544.24 1000.04 1553.29 C 1004.75 1565 1006.25 1574.19 1007.15 1586.66 L 1047.76 1599.92 C 1043.63 1612.06 1040.39 1627.93 1037.75 1640.5 C 1023.61 1638.22 1010.78 1636.5 996.574 1633.77 C 988.109 1644.84 984.092 1650.29 973.75 1659.64 C 977.071 1670.44 985.36 1689.83 989.671 1701.19 C 978.766 1705.58 963.458 1713.45 952.498 1718.67 C 947.219 1708.16 937.748 1693.09 930.84 1683.64 C 929.88 1682.35 928.654 1680.76 926.96 1680.74 C 916.001 1680.56 908.768 1681.69 897.899 1679.82 C 890.849 1689.97 881.115 1707.4 874.57 1718.34 C 863.097 1713.12 849.449 1705.49 837.467 1699.71 C 842.789 1687.79 848.191 1671.42 852.502 1658.96 C 842.434 1650.33 839.553 1645.01 832.411 1634.11 C 817.756 1636.17 803.125 1638.39 788.52 1640.77 C 787.058 1629.59 782.413 1611.55 780.165 1599.17 L 820.782 1584.91 C 821.381 1574.01 822.933 1563.04 827.639 1553.14 C 817.921 1543.39 808.133 1533.72 798.277 1524.11 C 805.049 1514.33 816.046 1500.07 823.923 1491.29 C 835.572 1499.47 847.531 1505.02 859.452 1513.85 C 867.656 1506.42 878.351 1501.93 888.829 1498.8 C 890.48 1485.47 891.785 1471.46 893.28 1458.05 z"/>
<path transform="translate(0,0)" fill="rgb(148,179,161)" d="M 908.478 1527.17 C 942.258 1523.91 972.298 1548.62 975.612 1582.4 C 978.927 1616.17 954.264 1646.25 920.494 1649.62 C 886.648 1653 856.485 1628.27 853.164 1594.41 C 849.842 1560.56 874.621 1530.44 908.478 1527.17 z"/>
<path transform="translate(0,0)" fill="rgb(219,253,234)" d="M 908.466 1530.25 C 940.356 1527.13 968.79 1550.33 972.119 1582.2 C 975.448 1614.07 952.424 1642.65 920.576 1646.18 C 888.444 1649.74 859.555 1626.46 856.196 1594.31 C 852.837 1562.15 876.292 1533.41 908.466 1530.25 z"/>
<path transform="translate(0,0)" fill="rgb(148,179,161)" d="M 1739.76 274.336 C 1742.64 273.85 1744.24 273.22 1746.82 274.482 C 1747.91 279.86 1747.32 300.114 1747.26 306.393 C 1747.04 325.776 1746.94 345.161 1746.97 364.545 C 1774.71 363.785 1812.97 363.951 1841.11 364.553 C 1839.87 380.995 1838.64 393.695 1831.25 408.705 C 1815.22 441.27 1790.2 458.476 1755.29 464.866 C 1729.25 465.639 1709.34 462.198 1687.9 445.953 C 1667.68 430.879 1654.38 408.295 1651.01 383.299 C 1647.48 358.571 1654.07 333.464 1669.29 313.658 C 1687.87 289.602 1709.88 278.247 1739.76 274.336 z"/>
<path transform="translate(0,0)" fill="rgb(219,253,234)" d="M 1741.75 276.549 L 1743.41 276.339 C 1743.79 276.777 1744.18 277.215 1744.56 277.652 C 1743.77 302.768 1743.92 344.707 1743.44 368.115 C 1775 368.177 1805.17 367.798 1836.97 368.239 C 1834.65 418.666 1801.49 455.413 1751.25 461.655 C 1731.47 464.354 1706.88 455.661 1691.04 443.922 C 1671.08 429.05 1657.89 406.826 1654.4 382.186 C 1646.91 326.86 1688.4 283.186 1741.75 276.549 z"/>
<path transform="translate(0,0)" fill="rgb(148,179,161)" d="M 1605.13 956.396 C 1647.83 950.104 1687.57 979.547 1693.99 1022.23 C 1700.4 1064.91 1671.07 1104.73 1628.41 1111.27 C 1585.57 1117.84 1545.55 1088.37 1539.11 1045.51 C 1532.67 1002.65 1562.26 962.714 1605.13 956.396 z"/>
<path transform="translate(0,0)" fill="rgb(219,253,234)" d="M 1614.41 958.812 C 1655.54 957.545 1690.01 989.642 1691.67 1030.75 C 1693.34 1071.86 1661.58 1106.64 1620.49 1108.7 C 1578.83 1110.8 1543.46 1078.5 1541.77 1036.82 C 1540.09 995.146 1572.72 960.096 1614.41 958.812 z"/>
<path transform="translate(0,0)" fill="rgb(148,179,161)" d="M 1614.41 976.046 C 1618.61 976.062 1618.63 975.408 1621.77 977.197 C 1623.34 992.812 1640.14 981.786 1642.84 1011.49 C 1636.96 1013.23 1630.71 1013.77 1624.6 1014.55 C 1624.22 1009.59 1624.71 1001.22 1617.86 1002.16 C 1611.45 1009.31 1616.26 1016.44 1622.62 1021.75 C 1636.35 1033.21 1654.66 1053.9 1638.58 1071.22 C 1634.08 1076.05 1628.46 1076.86 1624.25 1080.79 C 1624.11 1082.81 1624.01 1084.84 1623.96 1086.86 C 1621.41 1089.48 1621.9 1088.66 1617.4 1089.39 C 1615.06 1085.98 1617.31 1081.47 1614.77 1080.17 C 1602.02 1073.65 1588.38 1069.37 1593.8 1050.22 C 1598.59 1047.66 1604.6 1047.03 1609.95 1047.26 C 1612.25 1050.58 1611.75 1054.48 1612.5 1059.37 C 1616.71 1064.61 1624.16 1060.94 1623.59 1056.92 C 1620.66 1036.14 1588.56 1031.35 1593.18 1006.72 C 1595.63 993.622 1602.33 991.4 1612.76 984.861 C 1615.36 983.229 1614.44 978.825 1614.41 976.046 z"/>
<path transform="translate(0,0)" fill="rgb(219,253,234)" d="M 1618 978.66 L 1619.52 980.29 C 1621.08 991.575 1625.66 987.507 1634.41 994.326 C 1638.61 997.603 1639.39 1005.3 1640.33 1010.14 L 1627.55 1012.43 C 1626.37 1006.15 1625.96 999.158 1618.17 997.813 C 1611.23 1000.86 1609.27 1009.5 1613.74 1015.44 C 1624.53 1029.78 1647.3 1041.49 1641.76 1062.96 C 1640.15 1069.22 1623.95 1079.37 1618.83 1077.72 C 1607.21 1077.07 1600.08 1070.41 1596.22 1058.79 C 1595.39 1056.31 1596.62 1054.58 1597.92 1052.62 C 1601.39 1050.77 1601.67 1051.03 1605.51 1050.92 C 1609.9 1054.75 1607.17 1058.2 1612.21 1063.94 C 1616.53 1066.47 1623.5 1065.88 1626.95 1062.12 C 1631.42 1048.97 1606.3 1031.81 1599.07 1023.21 C 1597.86 1021.77 1595.34 1013.87 1594.64 1011.72 C 1596.83 1001.55 1598.39 992.648 1609.52 989.766 C 1612.36 989.031 1615.07 988.243 1617.27 986.335 C 1617.32 983.946 1617.32 982.691 1617.71 980.324 L 1618 978.66 z"/>
<path transform="translate(0,0)" fill="rgb(219,253,234)" d="M 506.237 388.159 L 550.226 388.05 C 557.386 388.015 570.277 387.536 576.969 388.574 C 578.634 391.764 578.051 394.113 577.807 397.755 C 578.008 422.645 578.056 447.537 577.949 472.428 L 578.113 528.405 C 568.927 528.665 511.483 529.999 507.031 527.837 C 505.981 523.572 506.643 496.913 506.635 490.897 C 506.817 456.651 506.684 422.403 506.237 388.159 z"/>
<path transform="translate(0,0)" fill="rgb(159,191,175)" d="M 506.237 388.159 L 550.226 388.05 C 557.386 388.015 570.277 387.536 576.969 388.574 C 578.634 391.764 578.051 394.113 577.807 397.755 C 576.958 402.405 577.552 411.474 576.215 414.462 L 574.944 413.316 L 574.791 391.829 L 510.119 391.97 L 510.053 479.437 C 510.035 492.908 509.464 511.78 510.193 524.911 L 508.914 527.407 L 507.031 527.837 C 505.981 523.572 506.643 496.913 506.635 490.897 C 506.817 456.651 506.684 422.403 506.237 388.159 z"/>
<path transform="translate(0,0)" fill="url(#Gradient2)" d="M 575.222 461.394 C 576.585 466.564 576.453 468.009 576.366 473.417 L 576.901 474.056 L 577.949 472.428 L 578.113 528.405 C 568.927 528.665 511.483 529.999 507.031 527.837 L 508.914 527.407 L 510.193 524.911 C 518.044 523.529 564.367 524.763 574.725 524.966 L 575.222 461.394 z"/>
<path transform="translate(0,0)" fill="rgb(148,179,161)" d="M 577.807 397.755 C 578.008 422.645 578.056 447.537 577.949 472.428 L 576.901 474.056 L 576.366 473.417 C 576.453 468.009 576.585 466.564 575.222 461.394 C 574.249 449.623 574.94 425.732 574.944 413.316 L 576.215 414.462 C 577.552 411.474 576.958 402.405 577.807 397.755 z"/>
<path transform="translate(0,0)" fill="rgb(148,179,161)" d="M 1754.43 265.403 C 1759.13 265.853 1763.82 266.385 1768.5 266.998 C 1795.18 270.759 1814.73 283.333 1831.39 304.644 C 1841.46 317.522 1850.99 342.297 1848.61 358.824 C 1834.49 359.126 1819.97 358.375 1805.76 358.473 C 1788.47 358.592 1771.18 359.386 1753.92 358.562 L 1753.7 298.021 C 1753.68 290.332 1753.28 272.345 1754.43 265.403 z"/>
<path transform="translate(0,0)" fill="rgb(219,253,234)" d="M 1756.31 268.184 C 1783.93 271.606 1804.56 279.511 1823.52 300.709 C 1835.71 314.339 1846.99 336.72 1845.85 355.424 C 1816.78 355.035 1785.91 355.876 1756.49 355.844 C 1756.73 326.615 1756 297.071 1756.31 268.184 z"/>
<path transform="translate(0,0)" fill="rgb(219,253,234)" d="M 599.237 437.162 C 622.094 436.654 647.478 437.166 670.352 437.799 C 670.257 467.086 671.067 499.05 670.287 527.997 C 647.497 528.179 620.762 528.843 598.185 527.991 C 598.261 520.669 598.147 488.241 599.058 482.672 C 598.715 469.446 598.5 450.136 599.237 437.162 z"/>
<path transform="translate(0,0)" fill="url(#Gradient1)" d="M 599.237 437.162 C 622.094 436.654 647.478 437.166 670.352 437.799 C 670.257 467.086 671.067 499.05 670.287 527.997 C 647.497 528.179 620.762 528.843 598.185 527.991 C 598.261 520.669 598.147 488.241 599.058 482.672 C 600.287 479.744 600.506 476.188 600.926 472.981 L 601.605 524.77 C 622.775 523.743 645.552 523.996 666.854 523.871 L 667.04 440.157 C 644.961 440.132 622.883 439.83 600.812 439.249 L 599.237 437.162 z"/>
<path transform="translate(0,0)" fill="rgb(113,145,118)" d="M 599.237 437.162 L 600.812 439.249 C 601.103 450.491 601.141 461.738 600.926 472.981 C 600.506 476.188 600.287 479.744 599.058 482.672 C 598.715 469.446 598.5 450.136 599.237 437.162 z"/>
<path transform="translate(0,0)" fill="rgb(24,44,47)" d="M 1713.84 1581.97 C 1719.43 1583.68 1717.86 1580.39 1718.13 1574.82 C 1718.82 1560.11 1722.74 1531.97 1733.5 1521.13 L 1735.4 1521.69 C 1726.34 1545.01 1726.25 1558.96 1723.39 1583.17 C 1728.7 1583.27 1734.79 1583.26 1740.03 1583.56 C 1735.35 1599.43 1731.21 1615.46 1727.65 1631.62 C 1780.33 1667.03 1791.69 1701.58 1774.89 1763.62 C 1762.32 1810.08 1748.42 1856.15 1732.44 1901.73 C 1729.3 1910.7 1726.47 1919.96 1722.52 1928.68 C 1764.48 1927.97 1808.99 1928.99 1851.29 1928.81 L 1901.54 1928.46 C 1908.54 1928.42 1926.12 1926.79 1930.86 1931.31 C 1927.08 1933.83 1895.57 1932.45 1888.4 1932.49 C 1853.85 1932.73 1819.3 1932.76 1784.75 1932.57 C 1735.54 1932.44 1685.05 1933.84 1636.09 1932.5 C 1639.39 1932.1 1639.71 1932.14 1642.97 1930.98 L 1643.93 1928.9 C 1645.14 1927.39 1644.77 1926.76 1644.37 1924.8 C 1641.67 1911.77 1635.24 1897.4 1630.95 1884.66 C 1618.01 1846.25 1580.02 1741.05 1586.65 1703.39 C 1592.16 1672.05 1615.6 1649.26 1640.93 1632.37 C 1636.29 1617.22 1631.51 1599.84 1629.38 1584.11 C 1633.6 1583.89 1639.04 1584.32 1642.34 1582.35 L 1642.47 1579.29 C 1643.68 1578.72 1645.91 1578.19 1647.29 1577.81 L 1649.56 1582.46 C 1651.83 1582.72 1650.92 1582.91 1652.34 1582.4 C 1654.93 1581.3 1656.1 1581.48 1658.92 1581.36 C 1661.96 1583.77 1660.2 1583.05 1664.61 1582.93 C 1667.14 1582.76 1667.36 1582.43 1669.62 1583.09 C 1673.11 1583.23 1672.61 1583.66 1675.43 1582.24 C 1676.91 1579.39 1675.3 1572.23 1675.04 1568.54 C 1676.96 1560.84 1671.77 1548.91 1673.71 1534.97 C 1676.77 1543.15 1675.4 1562.28 1679.88 1567.55 C 1680.37 1573.43 1680.25 1577.51 1682.87 1582.78 L 1684.57 1583.79 C 1687.25 1581.62 1686.86 1581.54 1687.62 1577.05 L 1689.93 1577.33 C 1690.46 1582.22 1689.57 1580.83 1692.66 1583.39 C 1695.36 1583.94 1695.29 1583.68 1697.87 1582.5 L 1698.88 1581.16 C 1701.42 1581.73 1701.14 1581.44 1703.33 1582.64 C 1707.26 1583.05 1706.73 1583.35 1709.15 1581.05 L 1712.36 1580.49 L 1713.84 1581.97 z"/>
<path transform="translate(0,0)" fill="rgb(94,234,172)" d="M 1709.28 1198.57 C 1713.64 1189.55 1710.24 1160.53 1719.49 1150.83 C 1722.06 1148.14 1723.32 1148.93 1727.18 1148.97 C 1747.62 1167.93 1755.22 1187.47 1760.98 1214.12 C 1772.7 1268.32 1759.62 1316.22 1715.07 1351.15 C 1698.44 1383.04 1689.39 1456.06 1688.99 1491.89 C 1686.63 1490.52 1686.48 1490.72 1683.74 1489.99 C 1685.96 1460.45 1690.94 1427.23 1696.97 1398.1 C 1699.94 1383.79 1705.64 1369.55 1708.49 1355.49 L 1708.74 1354.18 C 1692.88 1344.75 1685.57 1298.17 1692.99 1284.3 C 1710.21 1252.11 1708.75 1234.69 1709.28 1198.57 z"/>
<path transform="translate(0,0)" fill="rgb(8,22,17)" d="M 1730.94 1170.62 C 1749.75 1212.65 1736.29 1275.06 1724.2 1317.29 C 1721.45 1326.88 1715.48 1342.5 1715.07 1351.15 C 1698.44 1383.04 1689.39 1456.06 1688.99 1491.89 C 1686.63 1490.52 1686.48 1490.72 1683.74 1489.99 C 1685.96 1460.45 1690.94 1427.23 1696.97 1398.1 C 1699.94 1383.79 1705.64 1369.55 1708.49 1355.49 L 1708.74 1354.18 C 1711.45 1347.32 1714.22 1337.35 1716.09 1330.25 C 1725.39 1294.98 1737.48 1258.96 1736.76 1222.12 C 1736.42 1204.97 1730.91 1187.4 1730.94 1170.62 z"/>
<path transform="translate(0,0)" fill="rgb(94,234,172)" d="M 1710.37 1393.54 C 1719.49 1386.19 1733.65 1380.04 1741.28 1372.1 C 1758.37 1354.35 1770 1328.13 1792.94 1316.72 C 1813.15 1306.67 1808.83 1329.19 1804.61 1340.3 C 1796.07 1362.75 1776.32 1370.57 1763.67 1389.3 C 1754.52 1403.51 1758.77 1426.11 1746.21 1440.8 C 1739.16 1449.05 1727.04 1455.26 1717.24 1459.28 C 1715.86 1459.84 1714.48 1460.38 1713.08 1460.89 C 1709.67 1465.25 1707.89 1488.07 1707.15 1494.9 C 1705.81 1491.9 1706 1492.03 1703.42 1490.02 C 1704.1 1478.58 1708.59 1468.2 1708.08 1454.38 C 1698.44 1439.5 1703.9 1409 1710.37 1393.54 z"/>
<path transform="translate(0,0)" fill="rgb(1,2,2)" d="M 1708.08 1454.38 C 1711.68 1445.1 1713.89 1436.04 1716.99 1426.49 C 1726.89 1395.9 1755.77 1375.78 1773.6 1349.83 C 1776.24 1345.98 1785.16 1332.85 1788.1 1331.44 L 1789.53 1332.97 C 1787.74 1346.04 1738.29 1393.09 1729.86 1407.99 C 1725.13 1416.35 1709.03 1453.71 1713.08 1460.89 C 1709.67 1465.25 1707.89 1488.07 1707.15 1494.9 C 1705.81 1491.9 1706 1492.03 1703.42 1490.02 C 1704.1 1478.58 1708.59 1468.2 1708.08 1454.38 z"/>
<path transform="translate(0,0)" fill="rgb(24,44,47)" d="M 748.052 1928.72 C 773.813 1928.23 799.941 1928.81 825.763 1928.78 L 983.473 1928.63 L 1387.77 1928.69 L 1568.92 1928.82 L 1620.06 1928.64 C 1624.32 1928.62 1640.48 1928.25 1643.93 1928.9 L 1642.97 1930.98 C 1639.71 1932.14 1639.39 1932.1 1636.09 1932.5 L 726.432 1932.34 L 724.932 1930.87 C 727.415 1928.25 743.025 1928.94 748.052 1928.72 z"/>
<path transform="translate(0,0)" fill="rgb(94,234,172)" d="M 1733.5 1521.13 C 1752.07 1489.79 1796.32 1466.26 1829.31 1452.45 C 1831.61 1451.49 1835.32 1451.77 1837.66 1452.62 C 1838.7 1454.25 1838.96 1453.91 1838.64 1455.54 C 1837.08 1463.36 1787.52 1507.48 1779.17 1512.17 C 1768.96 1517.89 1756.33 1518.99 1744.94 1520.24 C 1741.81 1520.59 1738.28 1520.49 1735.4 1521.69 L 1733.5 1521.13 z"/>
<path transform="translate(0,0)" fill="rgb(94,234,172)" d="M 1750.26 1467.51 C 1774.37 1441.35 1797.24 1412.38 1819.93 1384.92 C 1821.97 1382.45 1822.77 1381.58 1825.71 1380.8 C 1829.76 1385.94 1829.21 1406.09 1828.48 1413.02 C 1824.75 1448.62 1782.9 1457.77 1755.02 1467.46 C 1752.5 1468.34 1754.96 1467.21 1751.98 1468.73 L 1750.26 1467.51 z"/>
<path transform="translate(0,0)" fill="rgb(94,234,172)" d="M 1577.1 1512.44 C 1596.3 1518.49 1622.96 1526.05 1627.56 1549.08 C 1629.07 1553.53 1641.35 1563.06 1647.29 1577.81 C 1645.91 1578.19 1643.68 1578.72 1642.47 1579.29 C 1636.17 1565.98 1634.18 1560.46 1621.9 1552.11 C 1600.87 1551.97 1579.03 1543.52 1562.32 1531.03 C 1557.95 1526.62 1552.18 1522.58 1553.45 1516.05 C 1559.12 1511.77 1570.06 1513.95 1577.1 1512.44 z"/>
<path transform="translate(0,0)" fill="rgb(8,22,17)" d="M 1575.9 1523.11 C 1596.11 1528.81 1613.22 1544.73 1627.56 1549.08 C 1629.07 1553.53 1641.35 1563.06 1647.29 1577.81 C 1645.91 1578.19 1643.68 1578.72 1642.47 1579.29 C 1636.17 1565.98 1634.18 1560.46 1621.9 1552.11 C 1606.87 1540.3 1588.95 1537.63 1575.9 1523.11 z"/>
<path transform="translate(0,0)" fill="rgb(24,44,47)" d="M 269.269 1929.18 C 293.485 1928.34 320.049 1928.88 344.46 1928.89 L 470.088 1928.79 L 545.958 1928.72 C 554.315 1928.74 576.132 1928.4 583.249 1929.29 L 582.481 1931.45 C 576.988 1932.92 575.575 1932.08 570.488 1932.64 L 372.681 1932.54 L 306.866 1932.77 C 295.345 1932.82 280.381 1933.29 269.313 1932.41 L 269.269 1929.18 z"/>
<path transform="translate(0,0)" fill="rgb(1,2,2)" fill-opacity="0.988235" d="M 638.333 1867.99 C 644.682 1872.39 651.04 1876.58 657.833 1880.28 C 668.593 1886.14 721.155 1909.78 723.043 1919.9 C 723.683 1923.33 721.15 1926.16 719.244 1928.7 C 728.251 1928.3 739.019 1928.09 748.052 1928.72 C 743.025 1928.94 727.415 1928.25 724.932 1930.87 L 726.432 1932.34 C 707.882 1931.51 707.069 1936.63 689.396 1938.78 C 675.174 1940.52 658.777 1935.99 646.008 1936.24 C 626.633 1936.62 609.326 1940.22 589.168 1938.72 C 583.77 1933.2 583.601 1932.69 576.428 1932.6 C 574.448 1932.58 572.468 1932.59 570.488 1932.64 C 575.575 1932.08 576.988 1932.92 582.481 1931.45 L 583.249 1929.29 C 581.16 1920.68 580.343 1906.35 579.91 1897.38 C 581.801 1896.94 582.295 1896.99 583.995 1896.13 C 585.717 1906.76 584.064 1923.01 588.369 1932.73 C 601.36 1937.97 632.408 1932.15 646.799 1932.66 C 665.834 1933.35 686.987 1938.64 705.015 1931.2 C 710.689 1928.86 717.286 1927.06 718.415 1920.42 C 713.202 1911.46 653.16 1883.65 635.869 1871.04 L 638.333 1867.99 z"/>
<path transform="translate(0,0)" fill="rgb(1,2,2)" fill-opacity="0.988235" d="M 221.878 1852 C 220.526 1878.9 215.523 1921.1 236.128 1940.67 C 273.608 1976.26 263.339 1915.92 265.51 1896.15 C 266.513 1887.02 267 1874.53 268.989 1865.87 C 269.834 1865.86 271.521 1865.57 272.424 1865.44 C 272.874 1873.4 270.351 1884.3 269.701 1892.54 C 268.812 1903.83 268.45 1917.91 269.269 1929.18 L 269.313 1932.41 C 268.654 1934.26 268.831 1933.47 268.556 1935.4 C 261.567 1984.46 229.918 1934.73 221.246 1932.13 L 222.101 1928.94 L 222.401 1927.72 C 221.452 1925.28 217.341 1913.57 217.312 1911.27 C 217.105 1894.66 215.909 1869.4 217.625 1853.28 L 221.878 1852 z"/>
<path transform="translate(0,0)" fill="rgb(1,2,2)" d="M 1635.78 1447.83 L 1636.22 1449.41 C 1638.98 1458.91 1647.04 1473.24 1650.16 1483.49 C 1660.05 1515.98 1666.28 1549.38 1669.62 1583.09 C 1667.36 1582.43 1667.14 1582.76 1664.61 1582.93 C 1662.74 1555.93 1649.23 1472.54 1631.66 1452.81 C 1632.15 1450.49 1632.5 1449.94 1633.4 1447.68 L 1635.78 1447.83 z"/>
<path transform="translate(0,0)" fill="rgb(24,44,47)" d="M 221.246 1932.13 C 204.111 1932.74 144.008 1934.76 130.532 1930.77 L 130.406 1929.32 C 138.86 1927.95 157.877 1928.6 166.934 1928.68 L 222.101 1928.94 L 221.246 1932.13 z"/>
<path transform="translate(0,0)" fill="rgb(1,2,2)" fill-opacity="0.988235" d="M 1631.68 1509.01 C 1642.1 1524.5 1655.45 1563.95 1658.92 1581.36 C 1656.1 1581.48 1654.93 1581.3 1652.34 1582.4 C 1652.47 1564.37 1636.75 1525.98 1629.37 1509.18 L 1631.68 1509.01 z"/>
<path transform="translate(0,0)" fill="rgb(24,44,47)" d="M 1683.74 1489.99 C 1686.48 1490.72 1686.63 1490.52 1688.99 1491.89 C 1688.75 1510.5 1688.79 1529.11 1689.09 1547.71 L 1685.76 1548.43 L 1683.79 1546.85 C 1682.65 1525.57 1682.34 1511.28 1683.74 1489.99 z"/>
<path transform="translate(0,0)" fill="rgb(24,44,47)" d="M 1703.42 1490.02 C 1706 1492.03 1705.81 1491.9 1707.15 1494.9 C 1705.16 1510.49 1704.68 1533.17 1703.98 1549.37 L 1700 1547.73 C 1697.93 1544.3 1698.72 1543.26 1698.65 1538.52 C 1699.15 1521.22 1700.32 1507.01 1703.42 1490.02 z"/>
<path transform="translate(0,0)" fill="rgb(1,2,2)" d="M 1710.45 1547.11 L 1711.94 1547.49 C 1715.35 1546.06 1714.59 1545.76 1716.96 1541.73 C 1715.89 1554.25 1714.26 1569.56 1713.84 1581.97 L 1712.36 1580.49 L 1709.15 1581.05 C 1708.78 1567.91 1708.62 1560.02 1710.45 1547.11 z"/>
<path transform="translate(0,0)" fill="rgb(1,2,2)" d="M 1698.88 1581.16 C 1697.41 1568.92 1697.77 1550.76 1698.65 1538.52 C 1698.72 1543.26 1697.93 1544.3 1700 1547.73 L 1703.98 1549.37 C 1703.72 1558.32 1702.29 1574.81 1703.33 1582.64 C 1701.14 1581.44 1701.42 1581.73 1698.88 1581.16 z"/>
<path transform="translate(0,0)" fill="rgb(24,44,47)" d="M 1717.45 1513.47 L 1721.63 1516.38 C 1719.27 1525.85 1718.29 1531.99 1716.96 1541.73 C 1714.59 1545.76 1715.35 1546.06 1711.94 1547.49 L 1710.45 1547.11 C 1711.52 1537.1 1713.78 1522.76 1717.45 1513.47 z"/>
<path transform="translate(0,0)" fill="rgb(1,2,2)" d="M 1739.63 1478.18 L 1741.44 1480.41 C 1730.98 1494.02 1726.43 1499.89 1721.63 1516.38 L 1717.45 1513.47 C 1723.6 1497.44 1728.07 1490.97 1739.63 1478.18 z"/>
<path transform="translate(0,0)" fill="rgb(1,2,2)" d="M 1683.79 1546.85 L 1685.76 1548.43 L 1689.09 1547.71 C 1689.41 1556.86 1690.13 1568.35 1689.93 1577.33 L 1687.62 1577.05 C 1685 1572.96 1684.2 1553.07 1683.79 1546.85 z"/>
<path transform="translate(0,0)" fill="rgb(43,72,68)" fill-opacity="0.905882" d="M 1750.26 1467.51 L 1751.98 1468.73 C 1748.43 1473.19 1745.36 1476.35 1741.44 1480.41 L 1739.63 1478.18 C 1743.12 1474.6 1746.72 1471.05 1750.26 1467.51 z"/>
</svg>