<svg version="1.1" xmlns="http://www.w3.org/2000/svg" style="display: block;" viewBox="0 0 2048 2048" width="2000" height="2000" preserveAspectRatio="none">
<defs>
	<linearGradient id="Gradient1" gradientUnits="userSpaceOnUse" x1="1036.9" y1="865.76" x2="1014.3" y2="835.09">
		<stop class="stop0" offset="0" stop-opacity="1" stop-color="rgb(64,197,151)"/>
		<stop class="stop1" offset="1" stop-opacity="1" stop-color="rgb(117,230,180)"/>
	</linearGradient>
</defs>
<path transform="translate(0,0)" fill="rgb(254,254,254)" d="M 0 0 L 2048 0 L 2048 2048 L 0 2048 L 0 0 z"/>
<path transform="translate(0,0)" fill="rgb(226,255,241)" d="M 1049.88 182.645 C 1050.41 163.119 1045.85 127.963 1053.67 111.191 C 1058.19 101.478 1069.05 92.1045 1079.38 88.9855 C 1093.72 84.6565 1211.61 87.0819 1233.17 87.0645 L 1349.1 87.0014 C 1370.55 87.0029 1392.43 86.7285 1413.61 87.4107 C 1437.11 88.1678 1454.85 107.036 1454.96 130.293 C 1454.99 136.91 1453.61 161.505 1455.9 166.024 C 1473.31 163.966 1491.77 165.904 1509.36 165.985 C 1612.06 166.455 1834.53 183.2 1915.27 247.383 C 1938.34 265.719 1948.06 290.752 1951.08 319.524 C 1959.26 397.287 1940.41 492.101 1924.46 568.505 C 1888.89 734.717 1842.08 898.323 1784.34 1058.19 C 1773.38 1088.84 1761.74 1122.89 1749.33 1152.74 C 1759.96 1160.82 1767.84 1170.64 1772.66 1183.16 C 1797.61 1247.99 1794.73 1316.64 1736.37 1361.27 C 1714.97 1402.96 1708.31 1517.48 1709.93 1566.17 C 1710.13 1572.08 1710.08 1590.65 1711.35 1595.93 L 1713.68 1596.59 C 1715.65 1595.15 1716.96 1593.77 1717.01 1591.07 C 1717.3 1577.32 1717.29 1564.33 1717.73 1550.5 C 1718.62 1522.98 1726.29 1496.28 1729.33 1469.6 C 1718.78 1450.33 1721.99 1436.78 1726.46 1416.4 C 1731.34 1394.17 1751.38 1394.95 1763.07 1381.36 C 1779.73 1362.01 1791.56 1337.49 1814.93 1324.27 C 1820.24 1321.19 1830.76 1319.76 1832.46 1327.22 C 1834.8 1337.46 1827.18 1352.24 1822.17 1360.95 C 1815.19 1375.6 1795.61 1386.19 1788 1398.72 C 1776.47 1417.69 1782.27 1445.74 1760.46 1460.07 C 1752.13 1465.54 1744.66 1469.97 1734.33 1470.39 C 1727.56 1505.88 1726.1 1538.75 1725.12 1574.89 C 1724.95 1581.08 1723.32 1590.68 1724.26 1595.85 L 1725.36 1596.72 L 1726.71 1596.02 C 1728.3 1586.71 1727.69 1577.06 1729.03 1568.24 C 1735.47 1525.78 1739.17 1508.35 1771.71 1480.09 L 1774.69 1481.87 C 1742.23 1514.72 1740.78 1531.16 1737.7 1575.85 L 1739.31 1576.19 C 1745.07 1558.45 1743.74 1550.19 1755.47 1532.46 L 1758.91 1535.17 C 1748.82 1555.98 1747.93 1573.76 1745.77 1596.61 C 1750.39 1596.58 1754.47 1596.13 1758.73 1597.74 C 1760.81 1603.56 1750.81 1637.71 1748.15 1645.12 C 1775.99 1665.25 1799.87 1690.47 1805.4 1725.69 C 1810.42 1757.69 1759.69 1918.7 1745.35 1954.95 L 1899.47 1954.99 C 1908.22 1955 1952.21 1954.68 1957.62 1956.19 L 1958.57 1958.32 C 1950.81 1964.46 1934.48 1961.87 1924.41 1961.8 C 1907.25 1961.74 1890.08 1961.77 1872.91 1961.89 L 1684.35 1961.92 L 883.889 1961.72 L 764.158 1961.87 C 746.667 1961.87 729.207 1961.52 711.73 1961.55 C 700.077 1961.57 688.259 1965.42 676.65 1966.33 C 661.133 1967.55 645.95 1964.75 630.494 1964.34 C 614.023 1964.48 595.457 1968.52 578.437 1966.76 C 573.249 1966.22 571.505 1965.34 567.52 1962.08 L 361.531 1961.84 C 324.084 1961.84 280.99 1960.78 244.147 1962.14 C 238.469 1998.71 211.986 1982.08 198.671 1961.65 C 189.407 1961.69 103.908 1962.78 100.551 1961.01 L 98.937 1958.91 L 99.2354 1957 C 105.384 1953.09 180.325 1954.98 194.215 1954.97 C 184.602 1934.79 189.238 1898.44 189.642 1876.04 C 189.995 1856.46 187.002 1849.69 206.098 1840.91 L 249.509 1742.16 C 260.327 1718.08 271.243 1693.36 281.136 1668.6 C 291.501 1642.66 292.948 1608.22 299.522 1580.82 C 300.971 1574.78 302.804 1564.43 303.352 1558.32 C 291.041 1545.9 280.827 1530.85 271.718 1515.96 C 242.216 1467.7 226.343 1417.46 217.329 1361.97 C 205.44 1288.79 200.216 1213.84 193.65 1140.04 C 179.108 976.56 168.762 813.109 171.77 648.902 C 173.027 580.262 174.517 508.378 189.862 441.25 C 193.731 424.328 197.152 407.096 206.997 392.458 C 245.418 335.335 390.35 299.662 394.051 294.526 C 394.145 291.653 394.189 290.814 394.715 288.004 L 432.985 287.958 C 437.771 287.022 453.008 279.759 458.807 277.389 C 453.192 275.42 450.527 274.874 444.842 273.775 C 429.325 269.422 413.281 265.756 397.616 261.602 C 401.038 251.593 404.374 237.556 407.257 227.114 C 441.943 236.01 477.288 247.273 512.09 256.1 C 518.412 257.704 524.247 259.723 530.727 260.811 C 658.165 230.135 793.4 210.57 923.539 195.053 C 959.827 190.726 1013.77 182.953 1049.88 182.645 z"/>
<path transform="translate(0,0)" fill="rgb(1,0,0)" d="M 1049.88 182.645 C 1050.41 163.119 1045.85 127.963 1053.67 111.191 C 1058.19 101.478 1069.05 92.1045 1079.38 88.9855 C 1093.72 84.6565 1211.61 87.0819 1233.17 87.0645 L 1349.1 87.0014 C 1370.55 87.0029 1392.43 86.7285 1413.61 87.4107 C 1437.11 88.1678 1454.85 107.036 1454.96 130.293 C 1454.99 136.91 1453.61 161.505 1455.9 166.024 C 1453.31 174.38 1454.12 222.16 1454.13 233.571 L 1454.09 354.015 C 1597.65 407.127 1714.26 515.048 1778.31 654.074 C 1815.67 734.745 1831.14 808.914 1832.27 897.194 C 1794.44 896.872 1756.62 896.837 1718.8 897.091 L 1377.46 897.088 C 1376.63 920.465 1373.73 937.037 1361.91 957.769 C 1375.71 970.406 1411.13 995.589 1419.45 1008.68 C 1421.7 1012.23 1422.6 1016.9 1422.68 1021.05 C 1422.84 1028.69 1419.75 1035.21 1414.31 1040.55 C 1409.74 1045.03 1403.79 1047.41 1397.38 1047.23 C 1379.51 1046.71 1343.08 1007.86 1329.61 995.504 C 1305.89 1015.82 1275.01 1025.76 1243.89 1023.1 C 1176.07 1017.73 1129.51 964.87 1127.01 897.897 C 1086.47 896.588 1045.41 897.436 1004.72 896.911 L 1003.79 897.066 L 999.244 896.161 L 999.702 895.186 L 999.025 894.057 C 990.246 892.683 971.642 893.843 960.869 893.2 L 918.017 893.203 C 913.261 893.342 905.326 893.005 901.53 895.047 L 900.218 897.21 C 872.715 908.486 877.13 936.946 872.239 959.847 C 865.538 991.223 838.602 994.231 814.279 1004.46 C 808.841 1006.74 802.62 1014.28 796.421 1017.75 L 795.098 1017.12 L 795.112 1015.11 C 805.218 996.446 837.484 996.815 852.089 983.532 C 885.656 953.003 854.442 928.331 893.13 896.894 L 877.509 897.19 C 865.133 898.452 842.129 897.92 828.964 897.973 C 827.112 945.802 808.813 953.605 767.669 967.477 C 763.762 968.795 751.732 980.226 745.895 983.796 C 762.631 954.387 783.744 963.642 806.451 945.986 C 822.411 933.576 823.483 916.535 825.086 898.153 C 816.618 898.094 805.657 898.341 797.47 897.219 L 774.688 897.16 C 771.62 901.001 765.121 910.119 761.715 912.476 C 732.431 932.746 728.405 918.793 701.359 947.707 L 701.814 946.378 C 710.435 921.991 728.983 925.866 748.833 915.786 C 753.463 913.435 769.925 903.93 765.854 897.727 L 760.985 897.054 C 731.327 897.182 701.668 897.125 672.011 896.882 C 670.409 810.391 695.612 711.613 735.006 634.96 C 786.246 534.247 865.713 450.64 963.696 394.355 C 987.65 380.401 1023.69 362.435 1050.01 353.973 C 1050.11 299.024 1051.64 237.15 1049.88 182.645 z"/>
<path transform="translate(0,0)" fill="rgb(254,254,254)" d="M 934.337 452.049 C 954.963 484.396 984.094 523.653 1006.55 555.279 L 1124.19 720.58 C 1116.89 727.106 1108.09 733.9 1100.4 740.115 C 1068.58 713.808 1037.25 685.888 1005.4 659.547 C 991.059 647.681 976.849 634.703 962.094 623.432 C 953.954 631.065 946.832 640.419 939.888 649.186 C 949.718 659.542 965.42 672.622 976.493 682.496 L 1040.95 739.617 C 1051.96 749.279 1064.1 759.201 1074.68 769.094 C 1064.94 785.939 1058.92 794.417 1050.26 812.817 C 1052.82 813.542 1051.6 813.673 1053.98 813.002 L 1056.14 816.47 L 1052.5 818.908 L 1047.54 821.04 C 1039.29 821.047 1029.05 829.372 1023.11 834.7 C 1004.74 851.171 1012.18 876.69 1004.9 893.258 C 1004.86 893.877 1004.65 896.394 1004.72 896.911 L 1003.79 897.066 L 999.244 896.161 L 999.702 895.186 L 999.025 894.057 C 990.246 892.683 971.642 893.843 960.869 893.2 L 918.017 893.203 C 913.261 893.342 905.326 893.005 901.53 895.047 L 900.218 897.21 C 872.715 908.486 877.13 936.946 872.239 959.847 C 865.538 991.223 838.602 994.231 814.279 1004.46 C 808.841 1006.74 802.62 1014.28 796.421 1017.75 L 795.098 1017.12 L 795.112 1015.11 C 805.218 996.446 837.484 996.815 852.089 983.532 C 885.656 953.003 854.442 928.331 893.13 896.894 L 877.509 897.19 C 865.133 898.452 842.129 897.92 828.964 897.973 C 827.112 945.802 808.813 953.605 767.669 967.477 C 763.762 968.795 751.732 980.226 745.895 983.796 C 762.631 954.387 783.744 963.642 806.451 945.986 C 822.411 933.576 823.483 916.535 825.086 898.153 C 816.618 898.094 805.657 898.341 797.47 897.219 L 774.688 897.16 C 771.62 901.001 765.121 910.119 761.715 912.476 C 732.431 932.746 728.405 918.793 701.359 947.707 L 701.814 946.378 C 710.435 921.991 728.983 925.866 748.833 915.786 C 753.463 913.435 769.925 903.93 765.854 897.727 L 760.985 897.054 C 766.393 897.105 769.669 898.448 771.716 893.267 L 704.155 893.084 C 704.578 887.726 704.81 881.925 704.955 876.547 C 705.653 850.792 709.135 825.971 713.446 800.555 C 738.709 659.986 817.996 534.891 934.337 452.049 z"/>
<path transform="translate(0,0)" fill="rgb(189,191,189)" d="M 865.929 771.806 C 850.514 758.988 855.246 730.268 855.479 712.668 C 855.684 697.131 865.158 691.238 880.032 691.303 C 897.34 691.868 899.958 713.648 899.96 726.76 C 899.964 749.668 903.401 777.175 870.912 772.252 L 869.47 772.023 C 870.734 769.36 871.052 765.042 871.038 762.096 C 871.514 748.159 874.919 735.323 885.662 725.687 L 884.928 721.258 C 881.598 726.869 874.556 735.924 870.274 741.266 C 870.209 743.134 866.076 771.433 865.929 771.806 z"/>
<path transform="translate(0,0)" fill="rgb(254,254,254)" d="M 870.274 741.266 C 869.739 733.705 864.9 695.403 881.436 704.003 C 885.644 709.037 884.863 714.639 884.928 721.258 C 881.598 726.869 874.556 735.924 870.274 741.266 z"/>
<path transform="translate(0,0)" fill="rgb(254,254,254)" d="M 871.038 762.096 C 871.514 748.159 874.919 735.323 885.662 725.687 C 886.005 734.323 888.775 755.295 882.907 760.441 C 879.589 763.352 875.011 762.462 871.038 762.096 z"/>
<path transform="translate(0,0)" fill="rgb(189,191,189)" d="M 927.996 741.69 C 929.505 730.066 930.874 718.255 932.78 706.697 C 933.791 700.565 935.404 690.244 943.295 691.242 C 948.313 699.197 950.032 729.049 951.784 740.293 C 954.056 726.743 957.684 713.347 958.81 699.413 C 959.053 696.402 959.868 695.169 962.177 693.576 C 965.039 693.465 967.507 693.078 970.14 694.078 C 974.155 703.88 963.208 728.818 965.033 736.97 C 958.222 738.747 951.251 741.783 944.362 743.95 C 941.96 745.641 939.607 747.38 937.106 748.911 C 928.212 751.735 924.421 759.98 919.316 767.905 C 919.628 753.606 909.327 713.679 907.752 693.075 L 921.747 693.066 C 922.835 710.224 925.312 724.763 927.996 741.69 z"/>
<path transform="translate(0,0)" fill="rgb(254,254,254)" d="M 937.106 748.911 C 935.94 744.519 939.887 724.386 941.168 719.041 C 943.238 727.779 942.502 734.755 944.362 743.95 C 941.96 745.641 939.607 747.38 937.106 748.911 z"/>
<path transform="translate(0,0)" fill="rgb(112,225,178)" d="M 896.031 893.109 C 918.67 884.689 943.57 881.538 953.469 858.099 C 963.647 833.999 953.434 817.669 972.523 795.567 C 977.578 789.627 983.909 784.903 991.043 781.748 C 999.904 777.927 1010.18 776.614 1019.28 771.665 C 1026.14 767.941 1030.68 761.11 1036.59 758.588 L 1037.39 759.735 C 1032.91 777.483 1002.46 780.084 991.319 787.05 C 932.973 823.531 996.303 867.592 910.347 891.732 L 910.542 892.422 L 918.017 893.203 C 913.261 893.342 905.326 893.005 901.53 895.047 L 900.218 897.21 C 872.715 908.486 877.13 936.946 872.239 959.847 C 865.538 991.223 838.602 994.231 814.279 1004.46 C 808.841 1006.74 802.62 1014.28 796.421 1017.75 L 795.098 1017.12 L 795.112 1015.11 C 805.218 996.446 837.484 996.815 852.089 983.532 C 885.656 953.003 854.442 928.331 893.13 896.894 C 895.708 895.164 894.65 896.283 896.031 893.109 z"/>
<path transform="translate(0,0)" fill="rgb(112,225,178)" d="M 965.033 736.97 L 966.376 736.508 C 978.355 732.287 981.19 727.058 990.507 723.26 C 989.573 730.61 971.114 739.412 964.038 741.393 C 959.068 742.625 948.908 745.715 944.618 748.336 C 940.845 750.495 936.256 752.602 934.582 756.69 C 928.651 759.991 924.804 766.41 920.634 772.022 L 920.342 773.048 C 915.876 789.329 917.396 814.735 908.347 827.588 C 881.302 865.999 847.328 839.898 829.019 893.239 L 829.65 896.066 C 835.859 898.44 868.245 896.693 877.509 897.19 C 865.133 898.452 842.129 897.92 828.964 897.973 C 827.112 945.802 808.813 953.605 767.669 967.477 C 763.762 968.795 751.732 980.226 745.895 983.796 C 762.631 954.387 783.744 963.642 806.451 945.986 C 822.411 933.576 823.483 916.535 825.086 898.153 C 816.618 898.094 805.657 898.341 797.47 897.219 C 803.101 896.998 821.323 898.024 824.94 895.234 C 822.538 893.239 819.785 893.478 816.526 893.198 C 817.449 893.205 822.049 893.213 822.25 893.053 C 830.333 886.662 828.876 878.002 838.017 867.691 C 857.504 844.444 889.192 852.281 905.387 824.248 C 916.167 805.59 909.027 785.183 919.316 767.905 C 924.421 759.98 928.212 751.735 937.106 748.911 C 939.607 747.38 941.96 745.641 944.362 743.95 C 951.251 741.783 958.222 738.747 965.033 736.97 z"/>
<path transform="translate(0,0)" fill="rgb(112,225,178)" d="M 884.928 721.258 L 885.662 725.687 C 874.919 735.323 871.514 748.159 871.038 762.096 C 871.052 765.042 870.734 769.36 869.47 772.023 C 848.077 833.834 808.064 796.516 786.018 849.139 C 780.948 861.239 783.324 879.778 777.037 893.186 L 774.688 897.16 C 771.62 901.001 765.121 910.119 761.715 912.476 C 732.431 932.746 728.405 918.793 701.359 947.707 L 701.814 946.378 C 710.435 921.991 728.983 925.866 748.833 915.786 C 753.463 913.435 769.925 903.93 765.854 897.727 L 760.985 897.054 C 766.393 897.105 769.669 898.448 771.716 893.267 C 779.797 882.476 776.164 857.927 782.494 844.514 C 806.034 794.633 844.797 828.603 865.929 771.806 C 866.076 771.433 870.209 743.134 870.274 741.266 C 874.556 735.924 881.598 726.869 884.928 721.258 z"/>
<path transform="translate(0,0)" fill="url(#Gradient1)" d="M 1001.57 892.969 C 1005.74 881.106 1003.79 866.335 1007.09 854.038 C 1011.05 839.045 1022.28 825.718 1036.24 819.025 C 1039.91 817.263 1047.62 814.674 1050.26 812.817 C 1052.82 813.542 1051.6 813.673 1053.98 813.002 L 1056.14 816.47 L 1052.5 818.908 L 1047.54 821.04 C 1039.29 821.047 1029.05 829.372 1023.11 834.7 C 1004.74 851.171 1012.18 876.69 1004.9 893.258 C 1004.86 893.877 1004.65 896.394 1004.72 896.911 L 1003.79 897.066 L 999.244 896.161 L 999.702 895.186 L 999.025 894.057 C 990.246 892.683 971.642 893.843 960.869 893.2 C 972.642 892.418 989.421 892.926 1001.57 892.969 z"/>
<path transform="translate(0,0)" fill="rgb(189,191,189)" d="M 944.618 748.336 C 948.908 745.715 959.068 742.625 964.038 741.393 C 962.563 751.262 961.179 761.716 959.347 771.48 L 947.327 772.079 C 946.824 763.912 946.185 756.394 944.618 748.336 z"/>
<path transform="translate(0,0)" fill="rgb(1,0,0)" d="M 829.019 893.239 C 851.366 892.823 873.912 893.608 896.031 893.109 C 894.65 896.283 895.708 895.164 893.13 896.894 L 877.509 897.19 C 868.245 896.693 835.859 898.44 829.65 896.066 L 829.019 893.239 z"/>
<path transform="translate(0,0)" fill="rgb(1,0,0)" d="M 777.037 893.186 L 816.526 893.198 C 819.785 893.478 822.538 893.239 824.94 895.234 C 821.323 898.024 803.101 896.998 797.47 897.219 L 774.688 897.16 L 777.037 893.186 z"/>
<path transform="translate(0,0)" fill="rgb(189,191,189)" d="M 920.634 772.022 C 924.804 766.41 928.651 759.991 934.582 756.69 C 933.961 761.37 933.862 768.092 931.11 771.274 C 927.886 772.935 924.351 772.258 920.634 772.022 z"/>
<path transform="translate(0,0)" fill="rgb(189,191,189)" d="M 816.006 693.169 L 830.794 693.043 C 830.019 716.161 829.979 739.298 830.673 762.418 C 835.589 762.342 843.797 761.094 847.715 763.059 C 849.973 766.603 849.131 766.971 849.165 772.025 L 815.91 772.171 C 816.148 745.838 816.18 719.503 816.006 693.169 z"/>
<path transform="translate(0,0)" fill="rgb(254,254,254)" d="M 1077.76 772.266 C 1093.97 785.211 1130.26 817.279 1145.72 832.373 C 1133.39 853.505 1128.58 868.547 1127.29 893.232 L 1037.64 893.267 C 1038.57 865.18 1042.85 845.421 1052.5 818.908 L 1056.14 816.47 L 1053.98 813.002 L 1054.62 812.4 C 1062.53 797.191 1068.31 786.777 1077.76 772.266 z"/>
<path transform="translate(0,0)" fill="rgb(112,225,178)" d="M 1054.62 812.4 C 1068.55 813.218 1078.87 792.299 1083.83 796.477 C 1083.04 804.206 1063.33 815.067 1056.14 816.47 L 1053.98 813.002 L 1054.62 812.4 z"/>
<path transform="translate(0,0)" fill="rgb(254,254,254)" d="M 1004.9 893.258 C 1012.18 876.69 1004.74 851.171 1023.11 834.7 C 1029.05 829.372 1039.29 821.047 1047.54 821.04 C 1039.06 842.173 1033.93 870.524 1033.7 893.264 L 1004.9 893.258 z"/>
<path transform="translate(0,0)" fill="rgb(254,254,254)" d="M 1246.83 350.475 C 1368.37 349.643 1467.08 382.441 1567.15 449.983 C 1563.72 455.962 1553.47 469.222 1548.96 475.502 C 1537.46 491.524 1526.05 507.621 1514.76 523.793 L 1421.17 656.54 C 1406.36 677.431 1391.3 697.595 1376.74 718.734 C 1337.05 692.785 1304.62 681.142 1256.75 679.594 C 1206.16 677.672 1168.78 692.909 1127.1 718.561 L 1007.72 549.91 L 972.732 500.365 C 962.202 485.734 946.865 465.03 937.924 449.843 C 1026.11 384.038 1137.9 352.808 1246.83 350.475 z"/>
<path transform="translate(0,0)" fill="rgb(189,191,189)" d="M 1215.47 436.944 C 1238.35 436.857 1259.51 432.79 1258.57 463.562 C 1258.06 480.091 1261.55 497.318 1251.85 511.893 C 1242.12 518.514 1227.1 516.82 1215.03 516.793 C 1215.37 490.178 1215.52 463.561 1215.47 436.944 z"/>
<path transform="translate(0,0)" fill="rgb(254,254,254)" d="M 1229.16 447.774 C 1234.67 447.766 1238.62 447.024 1242.71 450.546 C 1245.22 457.529 1245.26 496.823 1241.94 504.111 C 1237.28 505.464 1235.66 506.325 1230.99 505.758 C 1227.39 502.077 1229.1 456.095 1229.16 447.774 z"/>
<path transform="translate(0,0)" fill="rgb(189,191,189)" d="M 1146.28 437.095 L 1161.34 437.093 C 1161.83 448.854 1163.12 507.267 1160.86 515.591 L 1158.19 516.883 C 1154.02 516.633 1155.83 517.299 1152.5 514.936 C 1150.94 511.791 1151.03 480.647 1150.87 474.75 L 1150.7 469.361 L 1149.24 468.05 L 1150.51 468.248 L 1149.79 466.751 C 1147.52 470.955 1142.66 506.394 1139.63 515.964 C 1136.86 517.601 1135.5 517.03 1131.8 517.163 C 1128.04 512.194 1121.18 472.102 1119.56 463.568 C 1118.19 477.249 1118.53 501.338 1117.96 516.341 L 1106.92 516.616 C 1107.6 490.106 1108.02 463.59 1108.17 437.072 C 1113.25 437.215 1118.55 437.14 1123.65 437.149 C 1126.29 453.956 1131.49 475.446 1135.13 492.377 C 1139.05 473.991 1142.77 455.563 1146.28 437.095 z"/>
<path transform="translate(0,0)" fill="rgb(189,191,189)" d="M 1390.49 436.779 L 1405.56 436.823 C 1405.72 463.587 1406.5 489.597 1406.28 516.522 L 1395.48 516.187 C 1394.91 503.872 1395.04 490.655 1394.97 478.25 C 1395.06 472.652 1394.72 467.293 1394.42 461.715 C 1390.33 478.667 1386.42 499.125 1383.35 516.209 L 1373.94 516.482 C 1370.47 501.593 1368.11 478.078 1361.94 465.31 C 1362.32 482.435 1361.86 499.286 1361.48 516.395 C 1358.35 516.619 1354.61 516.521 1351.42 516.521 C 1353.17 493.469 1351.58 460.988 1351.63 436.995 L 1367.15 436.994 C 1369.47 453.416 1374.54 475.687 1377.74 492.522 C 1382.3 473.821 1386.76 455.685 1390.49 436.779 z"/>
<path transform="translate(0,0)" fill="rgb(189,191,189)" d="M 1295.78 436.827 L 1309.71 436.926 C 1309.45 452.711 1309.47 468.591 1309.4 484.383 C 1309.37 491.519 1308.96 502.805 1316.54 506.256 C 1318.9 506.326 1320.67 506.124 1322.59 504.55 C 1329.44 498.908 1326.06 447.77 1325.99 436.991 L 1339.95 436.809 L 1340.07 448.731 C 1340.33 465.391 1341 481.298 1339.86 497.954 C 1338.02 524.815 1297.69 524.592 1296.1 500.174 C 1294.78 479.833 1295.65 457.425 1295.78 436.827 z"/>
<path transform="translate(0,0)" fill="rgb(189,191,189)" d="M 1173.15 437.047 C 1182.66 437.269 1196.09 436.133 1204.9 437.534 L 1206.05 439.225 C 1206.06 443.591 1206.85 443.653 1204.72 446.162 C 1199.62 447.829 1193.15 447.196 1187.6 447.083 C 1187.52 454.574 1187.78 462.485 1187.9 470.011 L 1192.51 469.996 C 1197.87 469.934 1200.32 469.403 1203.65 474.334 C 1202.27 481.697 1193.79 480.183 1188.08 479.987 L 1187.91 504.787 C 1192.31 509.084 1202.94 502.226 1207.57 509.221 C 1207.55 512.498 1207.77 512.786 1206.35 515.816 C 1198.95 517.025 1182.03 516.479 1173.87 516.439 C 1174.03 490.357 1173.2 463.365 1173.15 437.047 z"/>
<path transform="translate(0,0)" fill="rgb(189,191,189)" d="M 1269.89 436.978 L 1284.04 437.009 C 1284.19 463.42 1284.03 489.831 1283.56 516.238 L 1269.88 516.211 L 1269.89 436.978 z"/>
<path transform="translate(0,0)" fill="rgb(254,254,254)" d="M 1570.28 452.581 C 1584.35 460.775 1617.39 489.371 1629.23 500.775 C 1703.73 572.522 1757.17 663.178 1783.18 763.276 C 1794.21 805.733 1798.43 849.607 1799.32 893.202 L 1609.5 893.189 L 1471 893.126 C 1470.34 883.643 1469.39 874.182 1468.16 864.756 C 1459.9 805.33 1426.99 756.807 1379.97 720.972 C 1444.68 633.615 1506.22 540.787 1570.28 452.581 z"/>
<path transform="translate(0,0)" fill="rgb(189,191,189)" d="M 1687 693.197 L 1701.13 693.101 C 1701.14 708.829 1701.25 724.558 1701.45 740.285 C 1701.59 748.911 1702.3 763.225 1701.49 771.056 L 1700.04 772.098 L 1686.85 772.755 L 1686.99 736.8 L 1671 736.933 L 1670.72 772.362 L 1656.04 772.228 C 1655.84 747.292 1655.71 718.125 1657.12 693.473 L 1670.76 693.506 C 1671.02 704.533 1670.97 715.935 1671.06 726.994 L 1686.98 726.281 L 1687 693.197 z"/>
<path transform="translate(0,0)" fill="rgb(189,191,189)" d="M 1548.72 693.108 L 1561.93 693.005 L 1562.08 743.645 C 1562.09 751.041 1562.48 764.288 1561.66 771.091 L 1560.08 772.117 L 1548.43 772.628 C 1548.42 760.662 1548.33 748.697 1548.18 736.732 L 1532.14 736.94 C 1531.89 748.919 1531.75 760.901 1531.73 772.883 L 1517.97 772.804 C 1517.84 746.108 1517.35 719.9 1517.61 693.15 L 1531.76 693.68 L 1532.09 726.48 L 1548.29 726.836 L 1548.72 693.108 z"/>
<path transform="translate(0,0)" fill="rgb(189,191,189)" d="M 1618.19 692.289 C 1631.53 691.155 1641.5 696.967 1645.92 710.537 C 1647.04 713.954 1645.7 716.335 1643.88 719.201 C 1640.33 720.379 1635.21 719.564 1631.32 719.264 C 1631.06 712.026 1631.61 702.98 1622.15 702.917 C 1610.33 707.634 1615.41 745.203 1615.62 756.649 C 1615.85 769.023 1639.98 761.479 1631.22 742.909 C 1628.01 740.364 1629.87 741.24 1625.13 741.004 C 1623.32 739.368 1623.61 735.744 1623.3 732.66 L 1645.22 732.131 C 1645.07 738.599 1645.61 745.041 1645.46 751.416 C 1645.3 758.455 1647.81 771.754 1638.72 772.821 C 1634.13 769.796 1637.85 770.762 1634.05 766.841 C 1624.06 779.2 1605.87 773.139 1602.21 758.583 C 1599.33 745.859 1599.96 731.514 1600.52 718.442 C 1601.11 704.97 1605.03 695.922 1618.19 692.289 z"/>
<path transform="translate(0,0)" fill="rgb(189,191,189)" d="M 1575.16 693.04 L 1589.02 693.066 C 1589.56 719.498 1589.62 746.197 1589.81 772.644 L 1574.98 772.331 L 1575.16 693.04 z"/>
<path transform="translate(0,0)" fill="rgb(254,254,254)" d="M 1241.11 777.759 C 1307.55 771.661 1366.37 820.54 1372.54 886.973 C 1378.71 953.407 1329.89 1012.28 1263.46 1018.51 C 1196.94 1024.76 1137.96 975.852 1131.79 909.32 C 1125.61 842.789 1174.58 783.865 1241.11 777.759 z"/>
<path transform="translate(0,0)" fill="rgb(1,0,0)" d="M 1240.78 829.584 C 1278.63 823.362 1314.35 849.032 1320.52 886.892 C 1326.69 924.751 1300.97 960.432 1263.1 966.547 C 1225.31 972.65 1189.71 946.991 1183.56 909.207 C 1177.4 871.424 1203.01 835.793 1240.78 829.584 z"/>
<path transform="translate(0,0)" fill="rgb(64,239,167)" d="M 1237.55 321.436 C 1240.15 321.334 1242.76 321.256 1245.37 321.205 C 1550.21 315.241 1810.5 560.311 1827.07 862.58 C 1827.64 872.82 1827.99 882.925 1828.19 893.177 L 1802.96 893.226 C 1804.77 758.701 1748.27 622.596 1657.6 524.026 C 1557.65 415.049 1418.04 350.882 1270.25 345.987 C 1266.42 345.89 1262.59 345.815 1258.75 345.762 C 1110 344.163 966.875 402.551 861.689 507.744 C 843.433 525.704 822.177 551.801 807.158 572.469 C 738.684 665.473 701.461 777.792 700.84 893.282 L 675.869 893.149 C 677.249 751.816 730.35 615.884 825.136 511.04 C 911.945 415.209 1028.39 351.26 1155.83 329.424 C 1181.65 324.953 1211.4 322.739 1237.55 321.436 z"/>
<path transform="translate(0,0)" fill="rgb(254,254,254)" d="M 1234.58 684.395 C 1237.05 684.183 1239.52 684.015 1242 683.89 C 1298.84 681.192 1354.44 701.14 1396.6 739.36 C 1441.81 780.61 1463.52 832.598 1466.5 893.105 L 1377.26 893.084 C 1376.39 873.002 1371.91 859.271 1363.49 841.42 C 1361.01 836.692 1357.45 830.969 1354.38 826.608 C 1334.99 799.093 1305.5 780.378 1272.35 774.558 C 1234.37 768.24 1203.81 778.938 1173.38 800.673 C 1163.59 792.915 1154.12 783.869 1144.41 775.837 C 1131.12 764.85 1117.61 754.211 1104.28 743.287 C 1135.79 709.056 1188.77 688.82 1234.58 684.395 z"/>
<path transform="translate(0,0)" fill="rgb(64,239,167)" d="M 1142.09 136.479 C 1160.42 136.239 1184.47 135.899 1189.99 157.925 C 1194.2 174.683 1190.68 190.811 1176.19 200.945 C 1182.41 219.969 1187.91 241.707 1193.44 261.126 L 1170.94 261.109 C 1168.15 251.727 1165.42 242.326 1162.76 232.907 C 1160.68 225.081 1158.67 209.546 1153.3 204.752 C 1150.14 204.022 1150.32 204.122 1147.1 204.71 C 1144.06 209.462 1145.15 252.657 1145.15 261.135 L 1122.58 261.012 C 1123.34 248.173 1122.89 230.447 1122.92 217.286 C 1123.09 190.486 1122.99 163.685 1122.61 136.886 L 1142.09 136.479 z"/>
<path transform="translate(0,0)" fill="rgb(1,0,0)" d="M 1145.5 152.554 C 1149.95 152.52 1156.54 152.006 1160.52 153.984 C 1173.29 160.323 1172.22 175.468 1165.71 186.142 C 1158.29 190.502 1154.04 189.949 1145.44 190.224 C 1145.68 177.871 1145.5 164.953 1145.5 152.554 z"/>
<path transform="translate(0,0)" fill="rgb(64,239,167)" d="M 1371.19 136.291 C 1378.28 136.042 1385.91 136.114 1393.05 136.053 C 1386.44 155.644 1377.22 173.929 1369.77 193.054 L 1392.06 250.333 L 1396.18 261.418 C 1388.68 261.632 1381.09 261.41 1373.58 261.267 C 1366.42 243.068 1358.46 223.789 1352.01 205.429 C 1343.56 219.739 1346.84 244.365 1346.56 261.093 L 1324.78 261.124 C 1324.92 245.482 1322.83 141.917 1324.96 137.223 L 1328.43 136.494 L 1347.08 136.342 L 1347.28 188.753 C 1355.89 172.054 1363.8 153.553 1371.19 136.291 z"/>
<path transform="translate(0,0)" fill="rgb(64,239,167)" d="M 1272.73 135.241 C 1299.76 133.488 1308.11 144.528 1310.73 169.947 C 1304.61 170.421 1298.48 170.834 1292.35 171.185 C 1290.93 166.106 1289.83 160.278 1286.09 156.275 C 1282.27 151.827 1273.78 150.186 1270.6 156.443 C 1260.33 176.633 1290.44 191.471 1301.69 204.325 C 1315.08 219.627 1317.95 234.922 1305.66 251.984 C 1299.93 259.932 1292.45 261.863 1283.5 263.214 C 1255.2 262.28 1250.18 251.179 1247.02 225.124 L 1265.95 221.768 C 1266.84 229.057 1267.35 235.381 1272.72 240.902 C 1282.62 250.879 1291.45 244.249 1290.49 231.387 C 1290.09 222.664 1284.64 214.772 1277.63 209.246 C 1256.38 192.508 1236.62 176.103 1252.8 146.737 C 1256.5 140.031 1265.38 136.912 1272.73 135.241 z"/>
<path transform="translate(0,0)" fill="rgb(64,239,167)" d="M 1208.55 136.059 L 1230.95 136.201 L 1230.87 260.87 L 1208.9 261.003 L 1208.55 136.059 z"/>
<path transform="translate(0,0)" fill="rgb(1,0,0)" d="M 297.301 1319.27 C 288.913 1308.2 292.326 1305.04 293.502 1293.05 C 295.375 1273.96 295.397 1238.29 289.471 1220.5 C 271.568 1166.73 279.763 1113.97 291.382 1059.87 C 297.156 1032.99 310.283 1008.36 324.138 984.555 C 327.447 978.731 326.692 978.632 323.082 973.998 C 324.935 967.971 331.898 948.587 334.883 943.817 C 337.23 943.371 337.116 943.471 339.468 944.048 C 342.392 936.349 321.373 929.847 315.897 926.08 C 287.259 906.382 270.421 888.155 282.836 851.633 C 294.023 815.489 325.139 796.216 360.604 788.509 C 369.776 786.516 381.962 787.835 389.529 786.205 C 415.416 780.629 422.589 784.164 420.728 813.716 C 432.842 827.138 440.355 836.657 441.489 855.422 C 448.582 863.527 464.611 878.691 463.225 889.879 C 462.752 893.701 460.646 896.072 458.354 899.124 C 460.561 912.184 463.547 924.851 466.168 937.636 C 468.872 950.825 447.312 954.327 437.914 956.636 C 434.603 971.898 431.04 987.105 427.227 1002.25 L 440.348 1011.03 C 440.147 1023.8 438.437 1045.52 438.519 1056.31 C 438.565 1062.47 447.676 1089.69 449.594 1099.76 C 466.803 1078.21 489.616 1059.49 510.023 1040.31 C 556.522 996.985 603.279 953.938 650.293 911.171 C 669.13 922.553 711.227 954.303 726.303 970.973 C 702.005 994.457 677.515 1017.74 652.835 1040.82 C 639.186 1053.41 617.865 1071.56 605.475 1084.24 L 605.307 1085.52 C 605.114 1086.88 604.541 1091.27 603.627 1092.09 C 595.124 1099.78 586.284 1107.3 577.489 1114.68 C 571.916 1118.99 564.853 1122.68 559.74 1127.45 C 529.903 1155.06 518.717 1211.69 543.414 1245.87 C 569.919 1280.73 635.137 1253.82 656.432 1225.49 C 673.475 1202.81 688.541 1176.61 704.93 1153.13 C 729.314 1118.2 752.728 1082.25 776.342 1046.79 C 780.297 1040.85 784.264 1034.68 788.445 1028.91 C 800.945 1034.35 855.809 1078.07 864.413 1088.37 C 836.654 1134.42 800.552 1185.94 770.53 1231.81 C 761.932 1244.84 753.441 1257.94 745.056 1271.11 C 735.402 1286.49 726.917 1301.95 714.58 1315.15 C 698.51 1332.64 677.038 1341.57 656.518 1352.4 C 650.531 1355.56 643.067 1365.35 635.767 1366.52 C 624.681 1368.08 610.237 1366.95 599.298 1364.67 C 584.715 1361.62 563.554 1360.31 549.913 1354.64 C 520.577 1342.44 494.324 1332.25 463.458 1323.71 C 466.487 1352.26 465.221 1359.57 478.032 1385.44 C 504.122 1438.74 529.751 1492.26 554.915 1546 C 561.623 1560.38 582.012 1601.75 585.479 1614.65 C 591.904 1638.55 594.788 1682.85 599.058 1708.02 C 600.34 1715.59 601.311 1729.75 603.457 1736.78 C 608.227 1737.1 707.403 1779.37 718.625 1783.79 C 860.627 1839.76 1152.9 1949.99 1300.95 1922.09 C 1396.98 1904 1501.03 1708.33 1544.27 1626.19 C 1553.37 1608.85 1562.26 1591.41 1570.95 1573.86 C 1574.83 1566.15 1580.13 1553.99 1585.06 1547.22 C 1579.29 1542.97 1567.17 1536.13 1572.13 1528.22 C 1580.15 1523.75 1586.63 1524.83 1596.01 1524.83 C 1596.4 1518.98 1602.11 1508.12 1606.46 1503.97 C 1616.76 1523.12 1627.25 1532.12 1649.66 1524.5 L 1650.58 1520.9 C 1648.84 1507.3 1608.23 1456.02 1595.92 1447.03 C 1592.22 1445.05 1591.8 1444.87 1588.78 1442.04 C 1592.46 1439.5 1596.17 1437.01 1599.91 1434.57 C 1576.48 1415.9 1568.82 1387.93 1573.33 1358.67 C 1573.94 1354.69 1575.04 1352.36 1578.34 1350.15 C 1590.7 1349.44 1600.03 1375.78 1606.37 1384.19 C 1614.89 1395.5 1625.17 1410.47 1638.62 1415.9 L 1638.73 1410.02 C 1651.17 1408.65 1653.52 1421.41 1671.85 1422.35 C 1669.8 1408.72 1666.05 1393 1663.1 1379.34 C 1655.93 1344.99 1647.22 1310.97 1637 1277.4 C 1635.09 1271.15 1630.1 1257.65 1631.15 1251.82 L 1632.37 1251.3 C 1640.24 1259.45 1670.86 1394.51 1675.28 1415.32 C 1675.7 1408.37 1705.92 1605.38 1701.92 1596.36 L 1703.6 1596.29 C 1704.7 1594.27 1705.25 1591.79 1704.99 1589.49 C 1696.23 1513.05 1708.25 1438.43 1729.88 1364.89 C 1728.85 1363.5 1726.1 1361.08 1724.69 1359.64 C 1712.05 1346.67 1710.39 1332.74 1710.04 1315.84 C 1709.57 1293.66 1721.04 1281.97 1726.15 1260.68 C 1730.87 1241.04 1729.22 1164.53 1741.48 1152.62 C 1745.65 1151.21 1744.39 1151.66 1749.33 1152.74 C 1759.96 1160.82 1767.84 1170.64 1772.66 1183.16 C 1797.61 1247.99 1794.73 1316.64 1736.37 1361.27 C 1714.97 1402.96 1708.31 1517.48 1709.93 1566.17 C 1710.13 1572.08 1710.08 1590.65 1711.35 1595.93 L 1713.68 1596.59 C 1715.65 1595.15 1716.96 1593.77 1717.01 1591.07 C 1717.3 1577.32 1717.29 1564.33 1717.73 1550.5 C 1718.62 1522.98 1726.29 1496.28 1729.33 1469.6 C 1718.78 1450.33 1721.99 1436.78 1726.46 1416.4 C 1731.34 1394.17 1751.38 1394.95 1763.07 1381.36 C 1779.73 1362.01 1791.56 1337.49 1814.93 1324.27 C 1820.24 1321.19 1830.76 1319.76 1832.46 1327.22 C 1834.8 1337.46 1827.18 1352.24 1822.17 1360.95 C 1815.19 1375.6 1795.61 1386.19 1788 1398.72 C 1776.47 1417.69 1782.27 1445.74 1760.46 1460.07 C 1752.13 1465.54 1744.66 1469.97 1734.33 1470.39 C 1727.56 1505.88 1726.1 1538.75 1725.12 1574.89 C 1724.95 1581.08 1723.32 1590.68 1724.26 1595.85 L 1725.36 1596.72 L 1726.71 1596.02 C 1728.3 1586.71 1727.69 1577.06 1729.03 1568.24 C 1735.47 1525.78 1739.17 1508.35 1771.71 1480.09 L 1774.69 1481.87 C 1742.23 1514.72 1740.78 1531.16 1737.7 1575.85 L 1739.31 1576.19 C 1745.07 1558.45 1743.74 1550.19 1755.47 1532.46 L 1758.91 1535.17 C 1748.82 1555.98 1747.93 1573.76 1745.77 1596.61 C 1750.39 1596.58 1754.47 1596.13 1758.73 1597.74 C 1760.81 1603.56 1750.81 1637.71 1748.15 1645.12 C 1775.99 1665.25 1799.87 1690.47 1805.4 1725.69 C 1810.42 1757.69 1759.69 1918.7 1745.35 1954.95 L 1899.47 1954.99 C 1908.22 1955 1952.21 1954.68 1957.62 1956.19 L 1958.57 1958.32 C 1950.81 1964.46 1934.48 1961.87 1924.41 1961.8 C 1907.25 1961.74 1890.08 1961.77 1872.91 1961.89 L 1684.35 1961.92 L 883.889 1961.72 L 764.158 1961.87 C 746.667 1961.87 729.207 1961.52 711.73 1961.55 C 700.077 1961.57 688.259 1965.42 676.65 1966.33 C 661.133 1967.55 645.95 1964.75 630.494 1964.34 C 614.023 1964.48 595.457 1968.52 578.437 1966.76 C 573.249 1966.22 571.505 1965.34 567.52 1962.08 L 361.531 1961.84 C 324.084 1961.84 280.99 1960.78 244.147 1962.14 C 238.469 1998.71 211.986 1982.08 198.671 1961.65 C 189.407 1961.69 103.908 1962.78 100.551 1961.01 L 98.937 1958.91 L 99.2354 1957 C 105.384 1953.09 180.325 1954.98 194.215 1954.97 C 184.602 1934.79 189.238 1898.44 189.642 1876.04 C 189.995 1856.46 187.002 1849.69 206.098 1840.91 L 249.509 1742.16 C 260.327 1718.08 271.243 1693.36 281.136 1668.6 C 291.501 1642.66 292.948 1608.22 299.522 1580.82 C 300.971 1574.78 302.804 1564.43 303.352 1558.32 C 310.667 1536.33 303.063 1518.36 300.508 1496.03 C 297.84 1472.72 294.969 1449.44 293.337 1426.01 C 291.787 1397.1 292.252 1347.01 297.301 1319.27 z"/>
<path transform="translate(0,0)" fill="rgb(254,254,254)" d="M 603.457 1736.78 C 608.227 1737.1 707.403 1779.37 718.625 1783.79 C 860.627 1839.76 1152.9 1949.99 1300.95 1922.09 C 1396.98 1904 1501.03 1708.33 1544.27 1626.19 C 1553.37 1608.85 1562.26 1591.41 1570.95 1573.86 C 1574.83 1566.15 1580.13 1553.99 1585.06 1547.22 C 1600.56 1556.91 1621.57 1566.88 1640.2 1567.35 C 1650.85 1571.3 1657.07 1586.2 1661.07 1596.23 C 1656.43 1596.58 1651.45 1596.85 1646.86 1597.34 C 1648.15 1609.04 1655.63 1634.36 1658.98 1647.01 C 1635.35 1661.98 1611.16 1687.78 1604.81 1715.81 C 1595.21 1758.12 1639.71 1884.41 1654.33 1929.44 C 1657.09 1937.91 1660.58 1946.33 1662.96 1954.89 C 1623.33 1956.02 1583.12 1955.11 1543.48 1955.02 L 1353.19 1955.14 L 710.274 1954.9 C 712.812 1950.38 713.342 1951.05 713.273 1946.61 C 704.915 1929.91 646.307 1908.96 624.657 1892.37 C 625.891 1874.33 621.301 1879.66 620.019 1865.8 C 618.059 1844.62 615.068 1824.02 612.611 1802.97 C 610.068 1781.18 605.894 1758.28 603.457 1736.78 z"/>
<path transform="translate(0,0)" fill="rgb(64,239,167)" d="M 1729.88 1364.89 C 1728.85 1363.5 1726.1 1361.08 1724.69 1359.64 C 1712.05 1346.67 1710.39 1332.74 1710.04 1315.84 C 1709.57 1293.66 1721.04 1281.97 1726.15 1260.68 C 1730.87 1241.04 1729.22 1164.53 1741.48 1152.62 C 1745.65 1151.21 1744.39 1151.66 1749.33 1152.74 C 1759.96 1160.82 1767.84 1170.64 1772.66 1183.16 C 1797.61 1247.99 1794.73 1316.64 1736.37 1361.27 C 1738.31 1348.04 1743.2 1334.1 1746.68 1321.07 C 1758.06 1278.54 1771.85 1223.53 1754 1181.21 L 1752.83 1180.53 C 1751.79 1189.59 1756.15 1205.13 1757.3 1217.17 C 1760.37 1249.26 1753.8 1278.7 1745.52 1309.44 C 1744.04 1314.93 1729.72 1363.56 1729.88 1364.89 z"/>
<path transform="translate(0,0)" fill="rgb(64,239,167)" d="M 1729.33 1469.6 C 1718.78 1450.33 1721.99 1436.78 1726.46 1416.4 C 1731.34 1394.17 1751.38 1394.95 1763.07 1381.36 C 1779.73 1362.01 1791.56 1337.49 1814.93 1324.27 C 1820.24 1321.19 1830.76 1319.76 1832.46 1327.22 C 1834.8 1337.46 1827.18 1352.24 1822.17 1360.95 C 1815.19 1375.6 1795.61 1386.19 1788 1398.72 C 1776.47 1417.69 1782.27 1445.74 1760.46 1460.07 C 1752.13 1465.54 1744.66 1469.97 1734.33 1470.39 C 1736.94 1453.7 1743.45 1435.01 1751.12 1419.89 C 1759.16 1404.05 1813.3 1351.35 1812.76 1339.55 L 1811.16 1339.32 C 1808.96 1341.09 1792.06 1363.28 1788.77 1367.46 C 1774.39 1385.71 1751.86 1406.61 1742.87 1427.44 C 1738.43 1437.72 1732.77 1458.2 1729.33 1469.6 z"/>
<path transform="translate(0,0)" fill="rgb(64,239,167)" d="M 1599.91 1434.57 C 1576.48 1415.9 1568.82 1387.93 1573.33 1358.67 C 1573.94 1354.69 1575.04 1352.36 1578.34 1350.15 C 1590.7 1349.44 1600.03 1375.78 1606.37 1384.19 C 1614.89 1395.5 1625.17 1410.47 1638.62 1415.9 C 1646.71 1426.4 1658.21 1449.82 1658.33 1463.26 L 1656.14 1463.51 C 1652.91 1458.39 1649.42 1453.1 1646.37 1447.92 C 1634.67 1428 1616.8 1413.01 1602.4 1395.15 C 1596.95 1388.37 1592.8 1378.53 1586.79 1372.71 C 1582.06 1382.32 1622.08 1423.73 1628.34 1431.22 C 1638.21 1443.03 1645.98 1453.82 1652.92 1467.7 C 1641.81 1462.26 1632.95 1456.79 1621.15 1451.58 C 1618.31 1444.85 1606.53 1438.45 1599.91 1434.57 z"/>
<path transform="translate(0,0)" fill="rgb(254,254,254)" d="M 1599.91 1434.57 C 1606.53 1438.45 1618.31 1444.85 1621.15 1451.58 C 1632.95 1456.79 1641.81 1462.26 1652.92 1467.7 C 1668.42 1487.25 1679.88 1567.57 1683.69 1594.94 C 1683.45 1595.55 1683.22 1596.15 1682.99 1596.76 L 1681.01 1596.93 C 1679.08 1594.3 1675.37 1576.86 1673.43 1571.48 C 1666.93 1553.38 1659.57 1537.81 1650.58 1520.9 C 1648.84 1507.3 1608.23 1456.02 1595.92 1447.03 C 1592.22 1445.05 1591.8 1444.87 1588.78 1442.04 C 1592.46 1439.5 1596.17 1437.01 1599.91 1434.57 z"/>
<path transform="translate(0,0)" fill="rgb(112,225,178)" d="M 1599.91 1434.57 C 1606.53 1438.45 1618.31 1444.85 1621.15 1451.58 C 1614.12 1448.88 1603.39 1442.68 1597.33 1444.29 L 1595.92 1447.03 C 1592.22 1445.05 1591.8 1444.87 1588.78 1442.04 C 1592.46 1439.5 1596.17 1437.01 1599.91 1434.57 z"/>
<path transform="translate(0,0)" fill="rgb(254,254,254)" d="M 1638.73 1410.02 C 1651.17 1408.65 1653.52 1421.41 1671.85 1422.35 C 1674.74 1439.95 1695.99 1590.28 1693.19 1596.54 L 1691.39 1596.35 C 1688.2 1591.14 1689.35 1577.23 1688.41 1570.73 C 1684.52 1543.94 1678.04 1517.56 1669.57 1491.86 C 1666.45 1482.38 1660.83 1472.99 1658.33 1463.26 C 1658.21 1449.82 1646.71 1426.4 1638.62 1415.9 L 1638.73 1410.02 z"/>
<path transform="translate(0,0)" fill="rgb(64,239,167)" d="M 1585.06 1547.22 C 1579.29 1542.97 1567.17 1536.13 1572.13 1528.22 C 1580.15 1523.75 1586.63 1524.83 1596.01 1524.83 C 1616.48 1527.93 1642.92 1540.83 1646.89 1563.17 C 1636.66 1557.46 1606.48 1538.59 1597.87 1537.96 L 1597.76 1539.06 C 1609.82 1550.42 1630.19 1556.49 1640.2 1567.35 C 1621.57 1566.88 1600.56 1556.91 1585.06 1547.22 z"/>
<path transform="translate(0,0)" fill="rgb(254,254,254)" d="M 1596.01 1524.83 C 1596.4 1518.98 1602.11 1508.12 1606.46 1503.97 C 1616.76 1523.12 1627.25 1532.12 1649.66 1524.5 C 1654.12 1538.18 1671.63 1583.57 1670.87 1594.45 C 1667.26 1592.13 1661.06 1579.43 1657.24 1574.81 C 1653.53 1570.31 1651.2 1567.5 1646.89 1563.17 C 1642.92 1540.83 1616.48 1527.93 1596.01 1524.83 z"/>
<path transform="translate(0,0)" fill="rgb(254,254,254)" d="M 1737.7 1575.85 L 1739.31 1576.19 C 1738.82 1579.99 1738.42 1593.33 1736.34 1595.53 C 1735.77 1586.71 1736.16 1584.64 1737.7 1575.85 z"/>
<path transform="translate(0,0)" fill="rgb(254,254,254)" d="M 426.797 1561.21 C 436.63 1575.62 446.86 1589.76 457.473 1603.61 C 464.01 1612.11 477.552 1627.62 481.63 1636.99 C 487.643 1650.81 497.202 1676.75 499.393 1691.28 C 519.286 1752.61 539.791 1813.74 560.904 1874.66 C 553.517 1892.71 561.441 1891.59 562.317 1905.66 C 563.424 1923.43 562.055 1937.01 565.549 1955.16 L 243.999 1954.97 C 243.907 1927.61 244.606 1913.25 248.131 1886.11 C 262.156 1874.03 254.65 1872.07 260.235 1859.79 C 266.899 1845.15 285.058 1824.32 294.973 1811.07 L 356.51 1728.31 C 371.166 1708.71 387.754 1687.38 400.362 1666.54 C 404.037 1660.47 404.955 1655.22 406.46 1648.34 C 409.176 1627.82 421.68 1584.3 426.797 1561.21 z"/>
<path transform="translate(0,0)" fill="rgb(226,255,241)" d="M 426.797 1561.21 C 436.63 1575.62 446.86 1589.76 457.473 1603.61 C 464.01 1612.11 477.552 1627.62 481.63 1636.99 C 487.643 1650.81 497.202 1676.75 499.393 1691.28 C 463.029 1676.12 441.45 1667.09 406.46 1648.34 C 409.176 1627.82 421.68 1584.3 426.797 1561.21 z"/>
<path transform="translate(0,0)" fill="rgb(254,254,254)" d="M 563.431 996.676 C 570.527 1000.8 610.222 1035.39 617.089 1041.36 C 610.9 1047.3 595.171 1064.09 589.036 1067.39 C 585.428 1066.23 584.558 1065.74 580.694 1065.96 C 572.385 1069.82 575.394 1076.94 573.832 1078.44 C 547.332 1103.95 521.612 1126.53 511.338 1163.16 C 494.499 1223.18 536.576 1278.4 600.521 1263.72 C 648.6 1252.68 664.343 1222.45 689.027 1184.86 C 700.725 1167.4 712.257 1149.83 723.62 1132.15 C 741.64 1146.56 760.825 1161.62 778.314 1176.55 C 764.817 1196.63 752.293 1218.15 738.953 1237.46 C 718.19 1268.82 704.573 1299.29 672.844 1319.87 C 664.272 1315.56 658.179 1312.01 650.02 1306.93 C 652.568 1306.62 655.108 1306.25 657.637 1305.81 C 668.021 1303.91 675.555 1293.81 673.438 1283.68 L 671.594 1282.68 C 666.338 1283.07 664.317 1288.13 656.887 1290.17 C 650.577 1291.91 641.488 1291.7 636.387 1293.28 C 623.882 1297.17 615.187 1312.13 603.565 1321.3 L 602.432 1322.17 C 594.938 1318.93 585.94 1314.2 578.732 1310.26 C 533.46 1285.55 484.512 1265.53 439.433 1240.77 C 440.516 1213.29 423.659 1206.37 425.708 1179.65 C 428.162 1147.66 440.076 1114.51 462.336 1090.95 C 473.389 1079.26 489.099 1065.69 501.127 1054.27 C 521.578 1034.73 542.349 1015.53 563.431 996.676 z"/>
<path transform="translate(0,0)" fill="rgb(254,254,254)" d="M 331.083 980.96 C 339.936 985.392 362.931 1001.82 371.632 1007.78 C 388.815 1019.57 415.333 1035.09 431.21 1048.13 C 435.651 1059.87 443.583 1091.45 446.508 1104.01 C 427.125 1136.88 423.074 1155.07 421.364 1192 C 416.095 1164.61 410.082 1137.37 403.33 1110.31 C 395.998 1081.24 388.684 1045.07 357.752 1032.15 C 355.37 1031.16 355.399 1031.32 353.429 1032.4 L 353.595 1034.3 C 361.02 1039.06 375.847 1048.47 379.839 1056.37 C 400.879 1097.99 408.867 1154.28 418.745 1199.42 C 393.756 1213.66 365.092 1231.53 340.951 1247.27 C 326.809 1199.93 316.274 1150.12 303.531 1102.3 C 300.327 1090.28 299.261 1079.37 301.496 1067.11 C 305.766 1055.78 317.316 1043.62 317.817 1038.56 C 306.238 1043.14 294.761 1066.73 295.84 1079.04 C 297.486 1097.8 302.847 1116.8 307.367 1135.1 C 316.972 1173.33 327.02 1211.45 337.509 1249.45 C 334.343 1251.39 331.088 1253.7 328.006 1255.79 C 332.133 1274.8 337.789 1293.36 354.348 1304.22 C 361.779 1299.72 369.963 1293.12 378.284 1287.97 C 404.768 1305.47 426.285 1311.88 456.152 1321.11 C 425.303 1340.29 367.719 1338.17 334.083 1329.04 C 328.52 1328.6 296.272 1318.53 296.706 1311.03 C 298.294 1283.57 300.941 1254.75 294.994 1226.76 C 292.818 1216.52 288.472 1204.24 286.947 1194.99 C 278.41 1143.21 286.477 1085.01 302.997 1035.4 C 308.647 1018.71 322.137 995.441 331.083 980.96 z"/>
<path transform="translate(0,0)" fill="rgb(254,254,254)" d="M 436.973 1244.97 C 492.875 1270.33 547.725 1300.85 602.956 1326.71 C 616.257 1318.8 623.964 1304.3 633.063 1299.31 C 646.883 1291.74 653.061 1299.1 669.597 1286.45 C 663.181 1310.03 651.43 1297.99 645.411 1307.29 C 647.649 1314.96 675.366 1322.05 678.52 1331.19 L 677.228 1333.34 C 671.696 1336.82 668.926 1336.41 662.223 1337.24 C 653.044 1345.09 645.082 1360.63 632.857 1362.96 C 623.246 1364.8 604.052 1361.95 594.62 1359.49 C 566.07 1352.05 537.47 1342.45 509.319 1333.52 C 478.454 1323.73 446.862 1314.65 416.567 1303.38 C 404.832 1299.01 392.316 1292.17 381.904 1285.26 C 400.716 1271.99 418.873 1259.23 436.973 1244.97 z"/>
<path transform="translate(0,0)" fill="rgb(254,254,254)" d="M 418.162 817.001 C 434.941 829.691 432.91 844.725 441.722 861.006 C 447.46 871.608 468.552 882.308 455.478 896.137 C 453.116 898.635 461.576 938.088 462.643 943.683 C 447.064 952.367 423.527 956.809 406.888 949.093 C 402.896 947.242 392.233 940.99 389.276 941.249 C 387.115 951.461 423.884 989.075 422.857 997.904 C 419.087 997.764 418.545 996.479 414.776 994.005 C 392.46 980.666 366.938 963.101 345.016 948.715 C 358.42 944.249 364.504 931.546 370.272 919.537 C 361.574 913.653 349.2 903.402 353.491 890.47 C 358.141 876.454 383.837 897.949 392.357 890.985 C 397.776 886.555 393.99 865.157 395.643 857.812 C 396.638 853.261 397.328 850.735 398.695 846.467 C 395.661 839.401 394.247 837.611 389.24 832.139 C 398.59 826.492 407.184 823.878 418.162 817.001 z"/>
<path transform="translate(0,0)" fill="rgb(1,0,0)" d="M 433.054 904.92 C 435.675 905.17 451.186 907.314 452.591 908.257 L 452.74 911.2 C 445.372 912.401 435.607 913.502 433.054 904.92 z"/>
<path transform="translate(0,0)" fill="rgb(1,0,0)" d="M 428.295 860.341 C 435.533 862.504 437.398 867.576 435.966 874.45 C 429.626 872.318 427.927 866.403 428.295 860.341 z"/>
<path transform="translate(0,0)" fill="rgb(1,0,0)" d="M 424.729 849.989 C 427.867 849.741 432.529 848.908 433.919 852.363 C 430.527 854.597 430.544 853.841 425.768 854.074 C 423.273 857.095 423.655 857.784 420.738 858.248 L 420.184 856.324 C 421.089 852.733 421.938 852.388 424.729 849.989 z"/>
<path transform="translate(0,0)" fill="rgb(221,14,0)" d="M 650.057 917.864 C 661.08 923.7 691.944 951.62 702.35 961.034 C 686.031 977.865 666.576 993.24 650.114 1010.15 C 640.719 1019.8 629.645 1030.08 619.273 1038.67 C 601.923 1025.92 582.776 1007.73 564.96 993.686 C 569.719 989.035 576.666 983.576 581.973 978.657 C 604.33 958.017 627.028 937.75 650.057 917.864 z"/>
<path transform="translate(0,0)" fill="rgb(221,14,0)" d="M 788.686 1035.36 C 795.331 1038.41 833.341 1071.51 842.181 1078.6 C 836.244 1089.45 827.735 1100.88 821.179 1111.51 C 808.163 1132.62 794.094 1152.97 780.155 1173.48 C 762.988 1158.82 742.453 1144.23 726.05 1129.06 C 730.624 1121.62 737.814 1111.99 742.871 1104.43 C 758.315 1081.52 773.587 1058.5 788.686 1035.36 z"/>
<path transform="translate(0,0)" fill="rgb(254,254,254)" d="M 621.736 1898.8 C 624.342 1899.3 646.225 1912.63 649.599 1915.03 C 659.43 1922.05 711.524 1938.59 704.065 1952.45 C 692.401 1960.87 667.227 1960.08 653.232 1959.91 C 638.053 1957.99 579.516 1962.19 573.478 1957.6 C 568.897 1948.51 569.47 1931.62 569.659 1921.37 C 592.594 1919.42 604.694 1913.33 621.736 1898.8 z"/>
<path transform="translate(0,0)" fill="rgb(254,254,254)" d="M 422.439 1201.8 L 424.572 1202.68 C 429.086 1210.19 437.208 1229.37 435.107 1237.82 C 433.181 1245.56 368.313 1291.06 357.525 1297.21 C 354.863 1298.73 354.043 1298.8 351.137 1297.92 C 340.49 1285.62 337.166 1272.55 332.26 1257.33 L 422.439 1201.8 z"/>
<path transform="translate(0,0)" fill="rgb(254,254,254)" d="M 196.107 1874.75 C 212.39 1890.59 219.271 1893.95 241.667 1889.3 C 235.454 1918.48 240.925 1949.1 235.927 1971.72 C 233.729 1975.41 232.329 1977.12 228.056 1978.04 C 222.399 1977.3 215.199 1971.17 211.134 1967.42 C 187.408 1945.56 196.508 1904.63 196.107 1874.75 z"/>
<path transform="translate(0,0)" fill="rgb(254,254,254)" d="M 336.408 948.321 C 345.54 953.38 357.65 961.802 366.74 967.678 C 389.978 982.837 413.134 998.121 436.208 1013.53 C 436.119 1019.39 436.282 1040.08 433.758 1043.76 L 431.555 1042.68 L 364.028 997.301 C 351.66 989.013 339.027 981.344 327.12 972.412 C 330.923 963.747 333.787 957.484 336.408 948.321 z"/>
<path transform="translate(0,0)" fill="rgb(254,254,254)" d="M 581.89 1069.43 L 585.297 1070.39 C 589.632 1074.81 598.401 1082.94 600.125 1089.14 C 600.512 1090.53 598.895 1091.53 597.446 1093.15 L 594.1 1092.69 C 588.67 1087.92 582.636 1083.1 579.771 1075.86 C 578.747 1073.27 580.423 1071.71 581.89 1069.43 z"/>
<path transform="translate(0,0)" fill="rgb(254,254,254)" d="M 563.564 1093.41 C 568.976 1094.22 577.919 1104.2 578.177 1109.9 C 578.241 1111.29 576.206 1112.99 575.24 1114.07 C 569.064 1112.76 560.034 1105.01 559.976 1097.84 C 559.964 1096.3 562.359 1094.58 563.564 1093.41 z"/>
<path transform="translate(0,0)" fill="rgb(254,254,254)" d="M 575.008 1082.86 C 580.604 1086.12 586.061 1091.19 588.061 1097.49 C 587.277 1101 587.178 1100.13 583.92 1103.11 C 578.663 1098.5 573.107 1094.83 570.899 1088.44 C 571.702 1084.88 571.675 1085.85 575.008 1082.86 z"/>
<path transform="translate(0,0)" fill="rgb(254,254,254)" d="M 552.393 1102.48 C 556.817 1105.22 564.114 1111.25 564.448 1116.87 C 564.56 1118.76 562.743 1120.09 561.461 1121.61 C 556.298 1118.89 551.09 1113.94 548.895 1108.33 C 549.356 1104.54 549.105 1105.81 552.393 1102.48 z"/>
<path transform="translate(0,0)" fill="rgb(226,255,241)" d="M 398.062 291.907 C 419.88 291.848 443.041 292.635 464.982 292.911 C 465.101 300.111 465.375 307.306 465.804 314.493 L 465.877 351.493 C 464.257 366.493 464.971 394.216 464.996 409.985 L 464.889 505.883 C 442.615 505.781 420.341 505.807 398.068 505.96 L 398.062 291.907 z"/>
<path transform="translate(0,0)" fill="rgb(64,239,167)" d="M 1638.73 1410.02 C 1638.71 1409.12 1640.23 1400.35 1641.12 1402.74 C 1637.2 1392.26 1630.67 1385.36 1631.44 1373.49 C 1631.79 1368.03 1632.07 1364.81 1633.15 1359.42 C 1634.73 1351.51 1637.14 1342.26 1635.56 1334.31 C 1628.26 1297.64 1596.77 1257.42 1622.25 1221.15 C 1623.05 1220.02 1624.65 1219.17 1625.82 1218.52 C 1632.3 1220.47 1634.76 1234.34 1637.92 1240.55 C 1662.91 1289.58 1688.1 1359.92 1675.28 1415.32 C 1670.86 1394.51 1640.24 1259.45 1632.37 1251.3 L 1631.15 1251.82 C 1630.1 1257.65 1635.09 1271.15 1637 1277.4 C 1647.22 1310.97 1655.93 1344.99 1663.1 1379.34 C 1666.05 1393 1669.8 1408.72 1671.85 1422.35 C 1653.52 1421.41 1651.17 1408.65 1638.73 1410.02 z"/>
<path transform="translate(0,0)" fill="rgb(226,255,241)" d="M 512.311 262.14 L 513.172 262.381 C 522.365 264.848 532.829 264.605 541.293 269.393 C 550.509 274.607 605.239 339.896 617.862 353.602 C 621.616 350.268 625.82 346.676 629.451 343.271 C 633.334 361.643 638.547 383.026 641.773 401.114 C 625.319 395.005 602.071 386.656 585.126 381.825 L 597.859 370.678 C 583.162 355.684 569.72 338.112 555.31 322.684 C 546.772 313.543 538.038 303.329 530.28 293.573 C 512.181 287.511 489.488 281.305 470.914 276.082 C 479.198 273.593 506.447 266.128 512.311 262.14 z"/>
<path transform="translate(0,0)" fill="rgb(64,239,167)" d="M 1606.46 1503.97 C 1598.84 1485.55 1597.65 1467.59 1583.31 1451.93 C 1577.19 1445.25 1559.27 1433.1 1559.43 1424.63 C 1566.41 1423.53 1582.75 1437.38 1588.78 1442.04 C 1591.8 1444.87 1592.22 1445.05 1595.92 1447.03 C 1608.23 1456.02 1648.84 1507.3 1650.58 1520.9 L 1649.66 1524.5 C 1627.25 1532.12 1616.76 1523.12 1606.46 1503.97 z"/>
<path transform="translate(0,0)" fill="rgb(254,254,254)" d="M 410.162 234.221 C 430.678 238.213 453.357 245.087 473.76 250.411 C 482.192 252.611 504.86 258.757 512.311 262.14 C 506.447 266.128 479.198 273.593 470.914 276.082 C 449.237 269.624 432.869 264.803 410.905 260.002 C 409.184 259.384 406.266 258.821 405.925 257.501 C 404.347 251.396 408.92 241.451 410.162 234.221 z"/>
<path transform="translate(0,0)" fill="rgb(189,191,189)" d="M 407.257 227.114 C 441.943 236.01 477.288 247.273 512.09 256.1 C 518.412 257.704 524.247 259.723 530.727 260.811 C 533.043 261.771 544.138 265.706 545.04 266.638 C 570.282 292.733 593.174 321.673 618.3 347.921 C 622.985 344.075 627.728 340.298 632.526 336.594 C 634.97 345.831 637.174 358.771 639.131 368.416 C 641.485 380.022 645.209 394.615 646.766 406.074 C 638.188 403.427 583.192 386.775 579.567 382.419 L 581.16 380.701 C 581.699 380.861 584.669 381.794 585.126 381.825 C 602.071 386.656 625.319 395.005 641.773 401.114 C 638.547 383.026 633.334 361.643 629.451 343.271 C 625.82 346.676 621.616 350.268 617.862 353.602 C 605.239 339.896 550.509 274.607 541.293 269.393 C 532.829 264.605 522.365 264.848 513.172 262.381 L 512.311 262.14 C 504.86 258.757 482.192 252.611 473.76 250.411 C 453.357 245.087 430.678 238.213 410.162 234.221 C 408.92 241.451 404.347 251.396 405.925 257.501 C 406.266 258.821 409.184 259.384 410.905 260.002 C 416.898 264.611 442.891 267.193 448.146 272.361 C 446.726 274.077 447.637 273.386 444.842 273.775 C 429.325 269.422 413.281 265.756 397.616 261.602 C 401.038 251.593 404.374 237.556 407.257 227.114 z"/>
<path transform="translate(0,0)" fill="rgb(154,186,171)" d="M 432.985 287.958 C 438.57 288.202 464.3 288.687 467.498 289.925 L 467.728 291.955 C 465.313 296.441 466.186 308.572 465.804 314.493 C 465.375 307.306 465.101 300.111 464.982 292.911 C 443.041 292.635 419.88 291.848 398.062 291.907 L 398.068 505.96 C 420.341 505.807 442.615 505.781 464.889 505.883 L 464.996 409.985 C 464.971 394.216 464.257 366.493 465.877 351.493 L 466.647 360.531 L 467.884 351.967 C 468.725 367.898 468.263 388.985 468.274 405.306 C 468.314 440.168 468.146 475.029 467.772 509.889 C 443.273 509.624 418.771 509.698 394.274 510.11 C 393.709 448.177 395.683 385.841 394.93 323.857 C 394.788 312.19 395.608 299.572 394.715 288.004 L 432.985 287.958 z"/>
<path transform="translate(0,0)" fill="rgb(112,225,178)" d="M 999.244 896.161 L 1003.79 897.066 C 980.204 937.423 956.097 916.788 930.697 948.449 C 917.391 965.035 925.234 990.442 913.617 1009.56 C 899.099 1033.45 882.298 1031.62 859.863 1042.04 C 852.853 1045.3 846.277 1052.96 842.868 1053.84 L 841.171 1052.38 C 845.167 1039.2 877.642 1032.06 888.931 1027 C 911.564 1016.85 916.711 992.843 918.496 970.592 C 919.432 958.919 926.294 945.384 934.97 937.816 C 953.157 920.131 989.126 925.105 997.993 896.912 L 999.244 896.161 z"/>
<path transform="translate(0,0)" fill="rgb(154,186,171)" d="M 410.905 260.002 C 432.869 264.803 449.237 269.624 470.914 276.082 C 489.488 281.305 512.181 287.511 530.28 293.573 C 538.038 303.329 546.772 313.543 555.31 322.684 C 569.72 338.112 583.162 355.684 597.859 370.678 L 585.126 381.825 C 584.669 381.794 581.699 380.861 581.16 380.701 C 584.403 377.753 589.898 373.728 593.532 370.894 C 570.38 349.234 549.542 319.867 527.645 297.799 C 524.28 294.408 467.784 279.521 458.807 277.389 C 453.192 275.42 450.527 274.874 444.842 273.775 C 447.637 273.386 446.726 274.077 448.146 272.361 C 442.891 267.193 416.898 264.611 410.905 260.002 z"/>
<path transform="translate(0,0)" fill="rgb(1,0,0)" d="M 918.017 893.203 L 960.869 893.2 C 971.642 893.843 990.246 892.683 999.025 894.057 L 999.702 895.186 L 999.244 896.161 L 997.993 896.912 C 965.616 897.594 932.797 896.194 900.218 897.21 L 901.53 895.047 C 905.326 893.005 913.261 893.342 918.017 893.203 z"/>
<path transform="translate(0,0)" fill="rgb(105,141,117)" d="M 467.728 291.955 C 468.385 311.149 468.213 332.648 467.884 351.967 L 466.647 360.531 L 465.877 351.493 L 465.804 314.493 C 466.186 308.572 465.313 296.441 467.728 291.955 z"/>
<path transform="translate(0,0)" fill="rgb(154,186,171)" d="M 1225.33 1488.32 C 1245.43 1488.92 1268.39 1488.37 1288.72 1488.36 C 1290.56 1509.4 1292.95 1529.66 1295.34 1550.62 C 1313.72 1556.63 1321.15 1559.6 1337.17 1570.24 C 1350.18 1562.33 1377.66 1545.76 1388.86 1537.12 C 1402.87 1555.44 1419.01 1573.59 1432.23 1592.32 C 1420.3 1604.3 1399.6 1626.3 1387.37 1636.02 C 1392.84 1652.97 1395.37 1662.56 1396.23 1680.18 C 1412.92 1685.04 1441.03 1694.91 1457.38 1701.18 C 1451.79 1719.35 1446.06 1748.23 1440.97 1768.32 C 1419.05 1766.66 1397.55 1762.84 1375.78 1760.81 C 1367.45 1774.96 1361.45 1781.74 1349.57 1793.04 C 1357.3 1813.51 1364.14 1834.92 1371.83 1855.61 L 1309.33 1885.75 C 1297.28 1867.68 1285.44 1848.79 1273.69 1830.46 C 1273.04 1829.76 1271.98 1829.01 1271.07 1829 C 1257.34 1828.92 1245.96 1829.91 1232.27 1827.7 C 1221.06 1847.44 1208.54 1866.45 1196.88 1885.97 C 1177.31 1875.83 1154.29 1865.43 1134.22 1855.83 C 1138.88 1838.8 1150.96 1808.75 1157.48 1791.2 C 1146.51 1782.12 1138.88 1771.92 1131.81 1759.73 C 1116.41 1760.48 1080.57 1765.89 1064.9 1768.57 C 1061.32 1747.2 1052.99 1720.86 1050.52 1700.2 C 1069.8 1694.04 1091.14 1685.36 1111.8 1678.68 C 1112.4 1662.35 1116.22 1650.63 1121.39 1635.56 C 1107.86 1625.79 1089.04 1604.25 1075.63 1591.51 C 1088.42 1572.56 1105.09 1555.64 1117.63 1536.76 C 1136.37 1547.88 1153.34 1558.21 1171.43 1570.37 C 1185.89 1560 1195.36 1555.73 1212.31 1550.86 C 1215.52 1530.58 1216.83 1510.47 1219.31 1490.06 C 1221.17 1488.22 1222.03 1488.74 1225.33 1488.32 z"/>
<path transform="translate(0,0)" fill="rgb(226,255,241)" d="M 1222.95 1492.23 C 1243.82 1492.04 1264.69 1492.01 1285.56 1492.13 C 1286.79 1511.22 1289.69 1534.75 1291.98 1553.72 C 1312.35 1560.03 1319.24 1564.16 1336.69 1575.56 C 1354.15 1564.82 1371.45 1553.8 1388.57 1542.52 C 1399.64 1558 1414.55 1575.73 1426.54 1591.06 L 1383.06 1635.29 C 1389.07 1654.46 1391.19 1663.66 1392.42 1683.5 C 1411.57 1688.96 1432.84 1697.21 1451.81 1704.01 C 1447.65 1724.18 1443.15 1744.27 1438.29 1764.29 C 1416.79 1761.47 1395.27 1758.77 1373.73 1756.19 C 1366.08 1769.31 1356.02 1782.16 1344.02 1791.56 C 1351.78 1812.17 1359 1832.99 1365.67 1853.98 C 1347.37 1862.49 1328.6 1871.37 1311.05 1881.39 C 1299.6 1862.66 1287.44 1843.95 1275.87 1825.11 C 1273.28 1822.67 1266.17 1824.27 1262.07 1824.47 C 1250.67 1825.02 1241.64 1824.72 1230.46 1822.49 C 1219 1842.03 1206.44 1861.08 1195.26 1880.46 C 1179.04 1871.58 1157.34 1861.81 1139.83 1852.69 C 1147.76 1833.05 1154.65 1810.72 1162.71 1790.24 C 1148.71 1777.23 1143.8 1770.49 1133.6 1754.98 C 1116.21 1758.2 1087.03 1760.85 1068.56 1763.35 C 1064.12 1743.11 1059.32 1722.95 1054.17 1702.88 C 1074.17 1696.16 1095.69 1686.9 1115.89 1682.15 C 1116.53 1663.47 1119.1 1650.89 1126.3 1633.98 C 1111.25 1621.24 1094.95 1604.67 1080.49 1590.89 C 1093.46 1574.73 1106.32 1558.49 1119.07 1542.15 C 1134.63 1551.1 1156.44 1566 1172.02 1576.03 C 1187.33 1563.62 1197.8 1560.18 1216.1 1553.61 C 1218.29 1533.14 1220.93 1512.72 1222.95 1492.23 z"/>
<path transform="translate(0,0)" fill="rgb(154,186,171)" d="M 1247.32 1595.94 C 1297.46 1592.15 1341.21 1629.66 1345.12 1679.79 C 1349.03 1729.92 1311.62 1773.76 1261.5 1777.79 C 1211.21 1781.84 1167.19 1744.28 1163.27 1693.98 C 1159.34 1643.67 1197.01 1599.74 1247.32 1595.94 z"/>
<path transform="translate(0,0)" fill="rgb(226,255,241)" d="M 1249.52 1600.17 C 1297.51 1597.64 1338.46 1634.52 1340.95 1682.51 C 1343.44 1730.51 1306.53 1771.43 1258.53 1773.87 C 1210.59 1776.31 1169.75 1739.45 1167.26 1691.52 C 1164.77 1643.59 1201.59 1602.71 1249.52 1600.17 z"/>
<path transform="translate(0,0)" fill="rgb(154,186,171)" d="M 1088.64 1153.57 C 1156.74 1143.93 1219.68 1191.56 1228.9 1259.72 C 1238.12 1327.88 1190.09 1390.52 1121.88 1399.31 C 1054.26 1408.02 992.297 1360.51 983.16 1292.96 C 974.023 1225.4 1021.14 1163.14 1088.64 1153.57 z"/>
<path transform="translate(0,0)" fill="rgb(226,255,241)" d="M 1101.44 1156.36 C 1167.46 1153.85 1223.09 1205.19 1225.86 1271.2 C 1228.64 1337.22 1177.51 1393.04 1111.51 1396.07 C 1045.14 1399.12 988.94 1347.65 986.151 1281.27 C 983.363 1214.9 1035.05 1158.89 1101.44 1156.36 z"/>
<path transform="translate(0,0)" fill="rgb(154,186,171)" d="M 1102.78 1184.08 L 1115.1 1184.29 C 1115.08 1189.41 1115.29 1194.73 1115.41 1199.87 C 1141.37 1205.22 1145.05 1218.67 1147.41 1242.58 C 1137.35 1244.15 1127.31 1245.85 1117.29 1247.69 C 1116.99 1238.88 1118.08 1227.09 1107.03 1225.17 C 1104.73 1225.99 1102.89 1226.98 1101.89 1229.46 C 1095.88 1244.47 1110.38 1254.73 1120.34 1263.31 C 1129.8 1271.45 1144.46 1283.77 1147.68 1296.61 C 1154.41 1323.52 1144.22 1341.52 1117.67 1350.04 C 1117.75 1354.38 1118.44 1360.22 1116.46 1363.79 C 1112.91 1366.01 1112.74 1365.23 1107.8 1365.36 L 1105.94 1364.38 C 1104.46 1360.32 1104.81 1355.06 1104.76 1350.59 C 1075.13 1344.9 1070.67 1328.37 1068.66 1301.61 C 1078.37 1299.62 1088.11 1297.8 1097.88 1296.15 C 1098.11 1304.1 1100.19 1330.36 1114.49 1321.47 C 1130.91 1294.95 1070.93 1275.48 1069.16 1248.36 C 1067.37 1220.71 1074.36 1205.51 1103.05 1200.25 L 1102.78 1184.08 z"/>
<path transform="translate(0,0)" fill="rgb(226,255,241)" d="M 1107.59 1188.25 L 1110.42 1189.53 C 1112.04 1193.6 1111.47 1198.47 1111.37 1203 C 1136.03 1209.08 1138.4 1215.42 1143.29 1239.03 L 1121.3 1242.93 C 1120.59 1234.45 1119.76 1218.69 1104.93 1220.71 C 1102.82 1221 1099.53 1224.01 1098.52 1226 C 1089.93 1241.94 1105.11 1257.58 1118.63 1267.64 C 1143.76 1286.32 1161.12 1318.33 1128.31 1340.84 C 1124.67 1343.34 1118.98 1344.59 1114.35 1345.69 C 1114.28 1350.43 1114.89 1360.22 1111.32 1363.21 L 1111.41 1362.06 L 1109.72 1362.93 L 1109.03 1360.2 L 1108.92 1346.37 C 1081.43 1342.58 1075.37 1331.97 1071.94 1305.24 C 1077.83 1303.7 1086.75 1302.29 1092.95 1301.13 C 1094.13 1309.73 1094.88 1318.78 1102.23 1324.44 C 1113.86 1332.89 1121.75 1322.81 1121.01 1311.08 C 1119.97 1294.57 1106.28 1286.15 1094.48 1276.75 C 1085.15 1269.33 1075.9 1260.46 1073.14 1248.17 C 1070.96 1238.48 1072.59 1226.59 1077.96 1218.14 C 1084.36 1208.05 1096.39 1204.85 1107.18 1202.48 L 1107.59 1188.25 z"/>
<path transform="translate(0,0)" fill="rgb(226,255,241)" d="M 885.127 1464.98 C 901.662 1465.28 918.201 1465.29 934.737 1464.99 C 936.816 1479.94 937.449 1494.97 939.334 1509.88 C 947.374 1509.17 960.654 1517.52 967.611 1521.61 C 977.75 1516.04 994.129 1504.66 1004.16 1498.12 C 1011.26 1506.13 1028.75 1528.49 1035.39 1537.21 C 1025.15 1548.12 1013.92 1558.46 1003.09 1568.83 C 1007.67 1581.17 1008.75 1585.01 1009.45 1598.13 C 1023.79 1602.88 1038.03 1607.94 1052.15 1613.32 C 1048.16 1629.44 1044.47 1645.63 1041.1 1661.89 C 1026.26 1659.7 1011.39 1657.76 996.479 1656.1 C 990.255 1664.56 984.302 1670.47 977.049 1677.97 C 980.567 1689.85 988.748 1709.54 993.276 1721.42 C 977.451 1728.27 963.486 1735.64 948.096 1743.35 C 938.588 1729.74 931.202 1717.39 922.856 1703.09 C 915.251 1703.37 903.259 1703.77 896.052 1702.15 C 888.332 1716.22 878.71 1729.21 870.591 1743.23 C 856.192 1735.68 840.008 1728.47 825.162 1721.66 C 830.172 1708.88 838.368 1688.86 841.704 1675.96 C 833.101 1668.22 830.127 1664.33 823.822 1654.64 C 808.34 1656.62 792.878 1658.76 777.44 1661.05 C 774.394 1645.04 770.518 1628.81 766.889 1612.88 C 780.735 1608.25 795.938 1602.23 809.583 1596.91 C 811.65 1586.88 813.278 1578.78 816.307 1568.94 C 805.715 1558.09 794.84 1547.51 783.693 1537.23 C 794.388 1524.83 805.481 1510.39 815.343 1497.33 C 827.766 1505.36 840.231 1513.31 852.739 1521.2 C 859.709 1517.16 872.672 1509.3 880.534 1508.95 C 882.518 1496.2 884.489 1477.97 885.127 1464.98 z"/>
<path transform="translate(0,0)" fill="rgb(154,186,171)" d="M 815.343 1497.33 C 827.766 1505.36 840.231 1513.31 852.739 1521.2 C 859.709 1517.16 872.672 1509.3 880.534 1508.95 L 884.85 1510 C 882.757 1512.33 868.38 1516.97 863.709 1520.04 C 860.193 1522.35 856.832 1524.25 852.873 1527.19 C 844.933 1521.87 822.542 1507.6 815.923 1501.94 C 808.507 1512.95 797.577 1526.29 788.944 1536.63 C 798.317 1544.79 812.947 1558.04 821.452 1566.94 C 816.987 1579.95 815.79 1586.58 814.022 1600.26 C 801.697 1604.07 783.413 1610.91 771.448 1616.08 C 774.328 1627.55 778.9 1644.65 780.287 1656.16 C 794.525 1654.05 812.718 1651.73 827.026 1650.83 C 832.703 1660.03 837.892 1667.11 846.227 1674.26 C 841.783 1689.7 836.724 1704.78 829.623 1719.26 C 842.74 1725.04 856.234 1730.9 868.458 1738.42 C 876.434 1724.82 884.864 1711.49 893.733 1698.45 C 904.728 1699.23 914.165 1699.64 925.183 1698.43 C 933.025 1711.63 941.039 1724.72 949.224 1737.7 C 961.354 1731.96 975.701 1724.74 987.944 1719.58 C 983.303 1707.09 975.861 1689.09 971.99 1676.78 C 980.282 1668.45 987 1661.39 994.202 1651.88 C 1008.4 1654.59 1023.64 1655.01 1037.79 1657.29 C 1040.89 1644.04 1044 1629.52 1047.44 1616.44 C 1033.63 1611.52 1019.86 1606.47 1006.14 1601.3 C 1005.5 1588.14 1003.79 1580.04 998.3 1567.95 C 1008.62 1557.59 1019.68 1547.44 1029.64 1536.88 C 1021.4 1526.3 1011.89 1513.39 1002.88 1503.83 C 991.028 1511.46 979.26 1519.23 967.577 1527.12 C 955.543 1519.21 950.02 1515.43 936.128 1511.67 L 935.239 1510.12 L 938.318 1511.1 L 939.334 1509.88 C 947.374 1509.17 960.654 1517.52 967.611 1521.61 C 977.75 1516.04 994.129 1504.66 1004.16 1498.12 C 1011.26 1506.13 1028.75 1528.49 1035.39 1537.21 C 1025.15 1548.12 1013.92 1558.46 1003.09 1568.83 C 1007.67 1581.17 1008.75 1585.01 1009.45 1598.13 C 1023.79 1602.88 1038.03 1607.94 1052.15 1613.32 C 1048.16 1629.44 1044.47 1645.63 1041.1 1661.89 C 1026.26 1659.7 1011.39 1657.76 996.479 1656.1 C 990.255 1664.56 984.302 1670.47 977.049 1677.97 C 980.567 1689.85 988.748 1709.54 993.276 1721.42 C 977.451 1728.27 963.486 1735.64 948.096 1743.35 C 938.588 1729.74 931.202 1717.39 922.856 1703.09 C 915.251 1703.37 903.259 1703.77 896.052 1702.15 C 888.332 1716.22 878.71 1729.21 870.591 1743.23 C 856.192 1735.68 840.008 1728.47 825.162 1721.66 C 830.172 1708.88 838.368 1688.86 841.704 1675.96 C 833.101 1668.22 830.127 1664.33 823.822 1654.64 C 808.34 1656.62 792.878 1658.76 777.44 1661.05 C 774.394 1645.04 770.518 1628.81 766.889 1612.88 C 780.735 1608.25 795.938 1602.23 809.583 1596.91 C 811.65 1586.88 813.278 1578.78 816.307 1568.94 C 805.715 1558.09 794.84 1547.51 783.693 1537.23 C 794.388 1524.83 805.481 1510.39 815.343 1497.33 z"/>
<path transform="translate(0,0)" fill="rgb(154,186,171)" d="M 885.127 1464.98 C 901.662 1465.28 918.201 1465.29 934.737 1464.99 C 936.816 1479.94 937.449 1494.97 939.334 1509.88 L 938.318 1511.1 L 935.239 1510.12 C 933.357 1498.15 932.22 1481.29 931.04 1468.99 C 916.715 1468.85 902.391 1468.6 888.069 1468.25 L 884.85 1510 L 880.534 1508.95 C 882.518 1496.2 884.489 1477.97 885.127 1464.98 z"/>
<path transform="translate(0,0)" fill="rgb(154,186,171)" d="M 907.423 1539.39 C 942.639 1537.92 972.432 1565.16 974.105 1600.37 C 975.777 1635.58 948.7 1665.52 913.504 1667.39 C 878.024 1669.28 847.784 1641.94 846.098 1606.45 C 844.412 1570.96 871.925 1540.87 907.423 1539.39 z"/>
<path transform="translate(0,0)" fill="rgb(226,255,241)" d="M 900.815 1544.34 C 922.08 1540.92 943.539 1549.2 957.01 1566 C 970.48 1582.8 973.886 1605.55 965.928 1625.56 C 957.969 1645.57 939.874 1659.77 918.542 1662.73 C 886.04 1667.25 855.959 1644.76 851.1 1612.31 C 846.241 1579.85 868.415 1549.54 900.815 1544.34 z"/>
<path transform="translate(0,0)" fill="rgb(154,186,171)" d="M 1761.72 246.412 C 1764.54 245.967 1765.1 245.511 1767.64 246.555 C 1768.69 253.537 1768.08 270.773 1768.02 279.049 C 1767.7 299.058 1767.86 319.072 1768.52 339.073 C 1800.4 338.863 1832.28 338.901 1864.16 339.187 C 1864.61 394.146 1829.34 435.924 1774.17 442.069 C 1749.37 444.729 1725.59 436.753 1706.3 421.218 C 1685.43 404.485 1672.2 380.035 1669.61 353.41 C 1664.17 297.885 1706.85 251.086 1761.72 246.412 z"/>
<path transform="translate(0,0)" fill="rgb(226,255,241)" d="M 1756.11 251.35 C 1759.25 250.946 1759.99 251.072 1763.09 251.26 C 1766.54 255.041 1764.85 332.185 1764.73 343.252 C 1796.5 343.053 1828.28 343.049 1860.05 343.241 C 1859.9 364.967 1853.77 385.582 1840.02 402.744 C 1824.14 422.25 1801.24 434.747 1776.25 437.548 C 1754.26 440.824 1730.95 434.543 1712.92 421.649 C 1692.23 407.017 1678.3 384.681 1674.26 359.668 C 1665.7 306.117 1703.29 259.41 1756.11 251.35 z"/>
<path transform="translate(0,0)" fill="rgb(154,186,171)" d="M 1622.45 953.918 C 1666.46 947.171 1707.64 977.277 1714.56 1021.26 C 1721.48 1065.24 1691.54 1106.54 1647.59 1113.63 C 1603.39 1120.77 1561.8 1090.62 1554.84 1046.39 C 1547.88 1002.16 1578.2 960.702 1622.45 953.918 z"/>
<path transform="translate(0,0)" fill="rgb(226,255,241)" d="M 1623.13 957.821 C 1665.08 951.468 1704.26 980.28 1710.7 1022.22 C 1717.13 1064.16 1688.4 1103.39 1646.47 1109.91 C 1604.42 1116.45 1565.06 1087.62 1558.6 1045.56 C 1552.15 1003.5 1581.06 964.192 1623.13 957.821 z"/>
<path transform="translate(0,0)" fill="rgb(154,186,171)" d="M 1631.73 973.893 C 1635.63 973.702 1637.95 973.201 1640.84 975.241 C 1640.78 986.633 1647.04 985.098 1654.65 989.804 C 1659.69 992.919 1661.34 1006.76 1662.05 1012.42 L 1642.11 1015.91 C 1641.62 1010.23 1642.33 1005.11 1637.16 1001.8 L 1635 1002.3 C 1627.14 1012.66 1641.99 1022.5 1648.57 1028.82 C 1668.95 1048.4 1671.55 1068.6 1643.55 1081.86 C 1643.37 1085.36 1643.37 1086.9 1642.52 1090.38 C 1639.55 1092.5 1638.67 1091.73 1634.18 1091.86 C 1634.51 1075.88 1628.52 1082.5 1618.56 1075.3 C 1611.59 1070.26 1610.45 1058.16 1609.74 1049.97 L 1629.51 1046.34 C 1629.97 1053.65 1629.34 1058.02 1634.11 1063.52 C 1637.59 1064.98 1635.94 1064.99 1639.2 1063.93 C 1649.68 1050.43 1621.26 1035.21 1616.06 1027.13 C 1603.02 1006.88 1609.91 992.764 1630 983.232 C 1632.56 982.02 1631.76 976.593 1631.73 973.893 z"/>
<path transform="translate(0,0)" fill="rgb(226,255,241)" d="M 1636.41 977.747 C 1639.3 981.617 1637.39 984.246 1638.17 985.555 C 1641.74 989.272 1647.84 987.923 1651.83 992.424 C 1655.08 996.094 1660.71 1006.68 1656.26 1010.52 C 1652.55 1010.9 1648.22 1011.75 1644.8 1010.62 L 1644.01 1007.43 C 1642.82 1002.48 1643.1 1001.62 1640.15 997.606 C 1635.46 995.468 1629.97 999.581 1629.11 1003.15 C 1622.96 1028.68 1671 1033.23 1658.35 1065.36 C 1656.32 1070.51 1642.68 1079.29 1638.3 1078.67 C 1629.15 1075.85 1618.8 1075.76 1615.79 1064.11 C 1614.85 1060.46 1613.47 1056.92 1615.31 1053.36 C 1631.21 1045.71 1624.13 1059.23 1634.12 1068.18 C 1638.74 1069.53 1643.49 1066.23 1644.42 1061.87 C 1648.8 1041.54 1624.4 1036.17 1616.71 1021.95 C 1607.65 1005.22 1615.87 992.008 1632.94 986.564 C 1635.4 985.729 1635.88 980.33 1636.41 977.747 z"/>
<path transform="translate(0,0)" fill="rgb(154,186,171)" d="M 492.644 365.169 C 516.017 365.042 539.913 364.642 563.237 365.328 C 563.589 379.774 564.752 505.197 562.347 509.547 L 559.25 509.816 C 535.909 509.751 512.568 509.819 489.228 510.018 C 490.727 463.143 488.309 415.133 489.877 368.28 C 489.946 366.212 490.97 366.248 492.644 365.169 z"/>
<path transform="translate(0,0)" fill="rgb(226,255,241)" d="M 509.115 368.469 C 525.026 368.042 543.784 368.79 559.898 369.04 C 559.571 414.641 559.52 460.244 559.745 505.846 L 542.904 505.709 L 492.87 506.108 C 493.196 460.199 492.275 415.022 492.974 368.935 L 509.115 368.469 z"/>
<path transform="translate(0,0)" fill="rgb(154,186,171)" d="M 1773.87 237.17 C 1829.71 235.016 1871.01 281.045 1873.93 334.994 C 1863.97 333.613 1846.39 333.887 1835.89 333.843 L 1774.12 333.859 C 1774.83 301.632 1774.75 269.393 1773.87 237.17 z"/>
<path transform="translate(0,0)" fill="rgb(226,255,241)" d="M 1778 240.961 C 1798.54 241.644 1818.3 249.031 1834.26 261.993 C 1855.6 279.4 1867.14 303.469 1869.83 330.642 C 1842.79 329.061 1804.81 330.011 1777.13 330.231 C 1776.85 300.98 1778.09 270.714 1778 240.961 z"/>
<path transform="translate(0,0)" fill="rgb(154,186,171)" d="M 585.009 415.191 C 605.535 416.288 637.637 415.99 658.375 415.554 C 657.812 447.022 658.509 478.474 658.617 509.952 L 584.044 509.867 C 585.513 479.356 583.261 445.923 585.009 415.191 z"/>
<path transform="translate(0,0)" fill="rgb(226,255,241)" d="M 588.178 419.399 C 610.233 419.654 632.177 418.953 654.56 419.311 C 654.221 448.715 654.76 476.449 654.971 505.777 C 632.813 505.484 610.219 505.652 588.029 505.61 L 588.178 419.399 z"/>
<path transform="translate(0,0)" fill="rgb(64,239,167)" d="M 1755.47 1532.46 C 1757.4 1528.86 1759.92 1524.49 1762.64 1521.53 C 1774.71 1508.42 1848.81 1451.94 1864.19 1462.86 C 1865.44 1472.5 1845.26 1487.9 1838.13 1494.24 C 1812.94 1516.64 1803.68 1531.4 1768.46 1534.62 C 1765.28 1534.89 1762.1 1535.07 1758.91 1535.17 L 1755.47 1532.46 z"/>
<path transform="translate(0,0)" fill="rgb(64,239,167)" d="M 1771.71 1480.09 L 1773.19 1478.67 C 1776.99 1475 1780.93 1469.97 1784.4 1465.88 C 1804.86 1441.69 1826.16 1418.32 1845.09 1392.9 C 1846.2 1391.41 1847.89 1391.02 1849.61 1390.7 C 1851.09 1391.46 1852.17 1391.63 1852.57 1393.71 C 1855.17 1407.16 1856.11 1426.67 1849.08 1438.61 C 1837.65 1458.02 1812.93 1466.68 1793.15 1474.42 C 1787.51 1476.62 1779.48 1479.12 1774.69 1481.87 L 1771.71 1480.09 z"/>
</svg>