<svg version="1.1" xmlns="http://www.w3.org/2000/svg" style="display: block;" viewBox="0 0 2048 2048" width="2000" height="2000" preserveAspectRatio="none">
<path transform="translate(0,0)" fill="rgb(68,69,119)" d="M 227.38 1472.82 C 178.488 1423.71 134.142 1355.62 105.209 1292.99 C 6.25691 1078.77 8.29387 819.216 88.1848 599.684 C 163.131 391.623 309.761 220.298 512.363 128.147 C 711.524 37.5604 926.509 28.8975 1141.61 37.7552 C 1290.31 43.8788 1434.02 76.9972 1574.92 123.463 C 1608.5 134.538 1642.53 144.412 1675.76 156.628 C 1678.7 224.823 1748.38 247.296 1801.24 212.162 C 1904.45 275.994 1970.06 383.866 1996.72 500.448 C 2020.92 606.271 2020.81 711.004 1962.15 805.776 C 1960.2 808.917 1958.22 812.04 1956.21 815.142 C 1961.65 819.761 1967.02 823.77 1972.68 828.097 C 1978.61 832.63 1981.93 836.003 1977.44 843.074 C 1968.16 847.948 1955.36 834.197 1948 828.113 C 1921.2 862.386 1889.41 906.476 1865.2 942.005 L 1864.54 943.028 C 1859.24 951.804 1853.34 961.143 1848.35 970.028 L 1847.6 971.088 L 1846.66 973.086 C 1841.05 983.643 1835.52 993.95 1830.34 1004.73 C 1818.34 1031.25 1807.86 1057.13 1799.74 1085.12 C 1798.39 1089.76 1796.8 1095.76 1795.09 1100.2 L 1794.78 1101.15 C 1792.75 1113.38 1788.65 1126.37 1786.1 1138.94 C 1781.7 1160.58 1779.06 1180.89 1776.64 1202.81 C 1820.39 1183.81 1847.97 1218.97 1829.36 1259.75 C 1818.34 1283.88 1791.95 1300.72 1781.55 1323.02 C 1783.2 1338.39 1788.43 1366.96 1792.55 1381.87 L 1793.66 1382.25 C 1830.87 1394.57 1829.04 1330.61 1865.32 1340.07 C 1883.47 1344.8 1889.43 1363.79 1883.26 1380.13 C 1870.93 1412.76 1831.29 1416.23 1803.51 1428.16 C 1812.85 1469.42 1823.19 1512.37 1819.99 1554.98 C 1832.46 1561.08 1845.4 1566.18 1858.68 1570.24 C 1874.16 1575.13 1952.46 1592.89 1957.09 1603.95 C 1948.83 1602.58 1929.98 1593.5 1919.62 1590.47 C 1883.69 1579.99 1854.5 1574.69 1820.06 1558.84 C 1801.23 1729.1 1634.81 1812.81 1486.3 1847.79 C 1468.38 1852.01 1447.63 1857.29 1429.4 1859.47 C 1425.93 1866.62 1422.74 1877.7 1420.56 1885.47 C 1423.4 1900.63 1424.77 1921.7 1425.94 1937.34 C 1427.65 1959.98 1429.75 1984.64 1430.23 2007.26 C 1420.83 2008.14 1404.24 2007.74 1394.18 2007.79 L 1326.16 2008.08 C 1249.78 2008.4 1170.91 2008.1 1094.75 2009.4 C 1092.25 1995.95 1087.99 1971.85 1084.1 1959.46 C 1083.93 1975.82 1084.71 1994.13 1085.43 2010.57 C 1023.93 2010.05 962.421 2009.86 900.914 2010.02 C 861.779 2010.01 818.765 2009.15 779.913 2010.44 C 780.754 1978.23 783.864 1945.41 784.828 1913.14 C 785.188 1901.09 785.927 1887.99 787.333 1876.03 C 780.33 1874.96 771.995 1874.33 764.888 1873.64 C 764.873 1856.51 767.065 1837.45 767.214 1819.37 C 729.894 1804.99 700.065 1794.5 662.458 1778.05 C 658.227 1782.5 651.335 1793.25 648.094 1798.51 C 629.191 1829.15 622.987 1852.82 618.193 1887.9 C 615.611 1876.3 614.552 1863.25 611.381 1851.55 C 595.806 1794.06 561.996 1757.75 512.681 1728.06 C 520.351 1723.18 528.055 1718.35 535.792 1713.57 C 529.096 1708.36 510.253 1697.57 502.231 1692.62 C 484.594 1681.64 467.205 1670.26 450.076 1658.49 C 397.209 1621.89 347.738 1581.38 298.697 1539.87 C 276.908 1521.43 256.478 1502.42 236.508 1482.07 C 227.979 1502.31 221.801 1521.37 224.641 1543.8 C 233.41 1613.07 345.083 1667.17 405.784 1684.36 C 419.31 1688.19 433.034 1691.29 446.894 1693.65 C 454.366 1694.87 479.45 1695.08 478.045 1705.12 C 472.416 1712.86 459.64 1708.77 450.953 1707.35 C 407.199 1700.67 364.869 1686.73 325.705 1666.11 C 249.221 1625.69 178.072 1565.85 227.38 1472.82 z M 1754.08 1223.23 L 1752.27 1225.12 C 1709.46 1225.92 1664.08 1225.21 1621.08 1225.2 C 1626.05 1280.83 1636.7 1340.77 1634.93 1397.24 C 1632.38 1478.11 1594 1564.03 1561.53 1637.42 C 1538.41 1689.92 1514.07 1741.88 1488.52 1793.23 C 1486.69 1803.17 1479.42 1805.93 1470.5 1808.46 C 1466.73 1807.58 1457.85 1805.23 1455.2 1807.19 C 1447.83 1812.66 1430.81 1852.16 1429.4 1859.47 C 1447.63 1857.29 1468.38 1852.01 1486.3 1847.79 C 1634.81 1812.81 1801.23 1729.1 1820.06 1558.84 C 1854.5 1574.69 1883.69 1579.99 1919.62 1590.47 C 1929.98 1593.5 1948.83 1602.58 1957.09 1603.95 C 1952.46 1592.89 1874.16 1575.13 1858.68 1570.24 C 1845.4 1566.18 1832.46 1561.08 1819.99 1554.98 C 1823.19 1512.37 1812.85 1469.42 1803.51 1428.16 C 1831.29 1416.23 1870.93 1412.76 1883.26 1380.13 C 1889.43 1363.79 1883.47 1344.8 1865.32 1340.07 C 1829.04 1330.61 1830.87 1394.57 1793.66 1382.25 L 1792.55 1381.87 C 1788.43 1366.96 1783.2 1338.39 1781.55 1323.02 C 1791.95 1300.72 1818.34 1283.88 1829.36 1259.75 C 1847.97 1218.97 1820.39 1183.81 1776.64 1202.81 C 1766.11 1208.99 1761.35 1213.04 1754.08 1223.23 z"/>
<path transform="translate(0,0)" fill="rgb(134,134,227)" d="M 1215.47 586.602 L 1223.98 580.777 L 1255.99 643.067 C 1259.37 644.075 1265.7 646.373 1268.88 646.041 C 1272.3 646.875 1271.77 646.083 1273.66 648.016 C 1288.14 654.423 1303.42 659.189 1318 665.789 C 1344.71 677.886 1371.41 690.18 1397.53 703.671 C 1439.17 725.184 1490.41 747.949 1524 781.115 C 1556.49 813.207 1568.3 864.582 1574.61 908.129 C 1575.36 913.338 1578.31 937.904 1580.24 940.852 C 1673.18 938.856 1767.19 941.801 1860.2 940.74 C 1862.15 940.717 1863.47 941.171 1865.2 942.005 L 1864.54 943.028 C 1859.24 951.804 1853.34 961.143 1848.35 970.028 L 1847.6 971.088 L 1846.66 973.086 C 1841.05 983.643 1835.52 993.95 1830.34 1004.73 C 1818.34 1031.25 1807.86 1057.13 1799.74 1085.12 C 1798.39 1089.76 1796.8 1095.76 1795.09 1100.2 L 1794.78 1101.15 C 1792.75 1113.38 1788.65 1126.37 1786.1 1138.94 C 1781.7 1160.58 1779.06 1180.89 1776.64 1202.81 C 1820.39 1183.81 1847.97 1218.97 1829.36 1259.75 C 1818.34 1283.88 1791.95 1300.72 1781.55 1323.02 C 1783.2 1338.39 1788.43 1366.96 1792.55 1381.87 L 1793.66 1382.25 C 1830.87 1394.57 1829.04 1330.61 1865.32 1340.07 C 1883.47 1344.8 1889.43 1363.79 1883.26 1380.13 C 1870.93 1412.76 1831.29 1416.23 1803.51 1428.16 C 1812.85 1469.42 1823.19 1512.37 1819.99 1554.98 C 1832.46 1561.08 1845.4 1566.18 1858.68 1570.24 C 1874.16 1575.13 1952.46 1592.89 1957.09 1603.95 C 1948.83 1602.58 1929.98 1593.5 1919.62 1590.47 C 1883.69 1579.99 1854.5 1574.69 1820.06 1558.84 C 1801.23 1729.1 1634.81 1812.81 1486.3 1847.79 C 1468.38 1852.01 1447.63 1857.29 1429.4 1859.47 C 1425.93 1866.62 1422.74 1877.7 1420.56 1885.47 C 1423.4 1900.63 1424.77 1921.7 1425.94 1937.34 C 1427.65 1959.98 1429.75 1984.64 1430.23 2007.26 C 1420.83 2008.14 1404.24 2007.74 1394.18 2007.79 L 1326.16 2008.08 C 1249.78 2008.4 1170.91 2008.1 1094.75 2009.4 C 1092.25 1995.95 1087.99 1971.85 1084.1 1959.46 C 1083.93 1975.82 1084.71 1994.13 1085.43 2010.57 C 1023.93 2010.05 962.421 2009.86 900.914 2010.02 C 861.779 2010.01 818.765 2009.15 779.913 2010.44 C 780.754 1978.23 783.864 1945.41 784.828 1913.14 C 785.188 1901.09 785.927 1887.99 787.333 1876.03 C 780.33 1874.96 771.995 1874.33 764.888 1873.64 C 764.873 1856.51 767.065 1837.45 767.214 1819.37 C 770.011 1784.23 771.196 1745.69 772.938 1710.33 L 782.737 1511.41 L 788.404 1398.24 C 789.192 1382.5 791.592 1351.77 790.563 1337.12 C 775.938 1400.44 750.144 1474.18 679.105 1492.08 C 629.45 1504.58 583.488 1464.57 565.729 1421.01 C 547.469 1376.23 539.616 1326.15 529.327 1278.67 L 481.889 1057.66 C 485.934 1059.21 487.058 1059.64 490.709 1061.87 L 493.865 1061.77 C 496.536 1056.77 494.739 1038.77 495.518 1031.29 C 534.569 1028.87 573.821 1009.05 602.677 983.204 C 605.985 993.298 609.444 1003.34 613.052 1013.33 L 616.71 1006.57 C 613.766 999.99 608.099 979.718 605.766 975.978 C 602.893 975.451 602.369 976.702 599.028 978.778 C 597.388 977.412 597.361 975.377 597.28 973.111 C 596 937.185 621.084 911.563 617.874 873.533 C 616.608 848.052 602.179 817.809 587.585 796.571 C 568.274 768.468 563.077 754.943 554.102 721.978 C 562.101 724.21 601.745 723.088 612.929 723.063 L 754.569 723.128 C 771.044 723.127 811.305 722 825.862 723.529 C 827.864 720.349 828.193 721.052 832.239 719.943 C 836.67 718.739 859.966 706.338 864.279 703.234 L 866.985 702.504 C 876.642 697.805 939.491 667.23 946.479 669.288 C 949.765 664.135 949.234 663.501 954.975 665.126 C 962.447 662.095 972.324 658.861 980.184 657.286 C 985.256 651.523 1020.61 620.639 1026.41 617.959 C 1029.49 621.841 1034.07 629.168 1036.74 633.277 C 1074.53 691.481 1108.71 660.683 1149.58 632.238 C 1171.43 616.863 1193.39 601.65 1215.47 586.602 z M 1754.08 1223.23 L 1752.27 1225.12 C 1709.46 1225.92 1664.08 1225.21 1621.08 1225.2 C 1626.05 1280.83 1636.7 1340.77 1634.93 1397.24 C 1632.38 1478.11 1594 1564.03 1561.53 1637.42 C 1538.41 1689.92 1514.07 1741.88 1488.52 1793.23 C 1486.69 1803.17 1479.42 1805.93 1470.5 1808.46 C 1466.73 1807.58 1457.85 1805.23 1455.2 1807.19 C 1447.83 1812.66 1430.81 1852.16 1429.4 1859.47 C 1447.63 1857.29 1468.38 1852.01 1486.3 1847.79 C 1634.81 1812.81 1801.23 1729.1 1820.06 1558.84 C 1854.5 1574.69 1883.69 1579.99 1919.62 1590.47 C 1929.98 1593.5 1948.83 1602.58 1957.09 1603.95 C 1952.46 1592.89 1874.16 1575.13 1858.68 1570.24 C 1845.4 1566.18 1832.46 1561.08 1819.99 1554.98 C 1823.19 1512.37 1812.85 1469.42 1803.51 1428.16 C 1831.29 1416.23 1870.93 1412.76 1883.26 1380.13 C 1889.43 1363.79 1883.47 1344.8 1865.32 1340.07 C 1829.04 1330.61 1830.87 1394.57 1793.66 1382.25 L 1792.55 1381.87 C 1788.43 1366.96 1783.2 1338.39 1781.55 1323.02 C 1791.95 1300.72 1818.34 1283.88 1829.36 1259.75 C 1847.97 1218.97 1820.39 1183.81 1776.64 1202.81 C 1766.11 1208.99 1761.35 1213.04 1754.08 1223.23 z"/>
<path transform="translate(0,0)" fill="rgb(68,69,119)" d="M 1776.64 1202.81 C 1820.39 1183.81 1847.97 1218.97 1829.36 1259.75 C 1818.34 1283.88 1791.95 1300.72 1781.55 1323.02 C 1783.2 1338.39 1788.43 1366.96 1792.55 1381.87 L 1793.66 1382.25 C 1830.87 1394.57 1829.04 1330.61 1865.32 1340.07 C 1883.47 1344.8 1889.43 1363.79 1883.26 1380.13 C 1870.93 1412.76 1831.29 1416.23 1803.51 1428.16 C 1812.85 1469.42 1823.19 1512.37 1819.99 1554.98 C 1832.46 1561.08 1845.4 1566.18 1858.68 1570.24 C 1874.16 1575.13 1952.46 1592.89 1957.09 1603.95 C 1948.83 1602.58 1929.98 1593.5 1919.62 1590.47 C 1883.69 1579.99 1854.5 1574.69 1820.06 1558.84 C 1801.23 1729.1 1634.81 1812.81 1486.3 1847.79 C 1468.38 1852.01 1447.63 1857.29 1429.4 1859.47 C 1430.81 1852.16 1447.83 1812.66 1455.2 1807.19 C 1457.85 1805.23 1466.73 1807.58 1470.5 1808.46 C 1479.42 1805.93 1486.69 1803.17 1488.52 1793.23 C 1514.07 1741.88 1538.41 1689.92 1561.53 1637.42 C 1594 1564.03 1632.38 1478.11 1634.93 1397.24 C 1636.7 1340.77 1626.05 1280.83 1621.08 1225.2 C 1664.08 1225.21 1709.46 1225.92 1752.27 1225.12 L 1754.08 1223.23 C 1761.35 1213.04 1766.11 1208.99 1776.64 1202.81 z M 1776.29 1206.98 C 1774.66 1250.06 1774.92 1274.15 1780.37 1317.04 C 1795.44 1295.35 1819.08 1277.28 1828.39 1252.79 C 1842.42 1215.88 1811.68 1186.88 1776.29 1206.98 z M 1802.59 1424.83 C 1831.65 1412.89 1875.21 1408.7 1881.89 1370.83 C 1884.66 1360.73 1873.14 1342.86 1862.11 1342.48 C 1828.28 1341.32 1834.95 1393.26 1794.78 1386.42 L 1793.42 1386.18 C 1796.46 1399.02 1799.42 1412.05 1802.59 1424.83 z"/>
<path transform="translate(0,0)" fill="rgb(104,103,161)" fill-opacity="0.654902" d="M 1780.22 1223.55 C 1791.19 1222.01 1811.49 1222.91 1822.56 1223.96 L 1823.03 1225.06 C 1816.1 1225.04 1784.69 1225.55 1779.65 1224.63 L 1780.22 1223.55 z"/>
<path transform="translate(0,0)" fill="rgb(68,69,119)" d="M 1803.51 1428.16 C 1812.85 1469.42 1823.19 1512.37 1819.99 1554.98 C 1787.75 1534.87 1760.67 1507.48 1770.45 1464.46 C 1774.64 1446.02 1787.79 1436.78 1803.51 1428.16 z"/>
<path transform="translate(0,0)" fill="rgb(114,116,51)" d="M 1776.64 1202.81 C 1820.39 1183.81 1847.97 1218.97 1829.36 1259.75 C 1818.34 1283.88 1791.95 1300.72 1781.55 1323.02 C 1783.2 1338.39 1788.43 1366.96 1792.55 1381.87 L 1793.66 1382.25 C 1830.87 1394.57 1829.04 1330.61 1865.32 1340.07 C 1883.47 1344.8 1889.43 1363.79 1883.26 1380.13 C 1870.93 1412.76 1831.29 1416.23 1803.51 1428.16 C 1787.79 1436.78 1774.64 1446.02 1770.45 1464.46 C 1760.67 1507.48 1787.75 1534.87 1819.99 1554.98 C 1832.46 1561.08 1845.4 1566.18 1858.68 1570.24 C 1874.16 1575.13 1952.46 1592.89 1957.09 1603.95 C 1948.83 1602.58 1929.98 1593.5 1919.62 1590.47 C 1883.69 1579.99 1854.5 1574.69 1820.06 1558.84 C 1815.54 1556.09 1810.88 1553.73 1806.4 1550.83 C 1777.43 1532.06 1757.39 1497.32 1767.19 1462.45 C 1772.6 1443.21 1786.08 1433.85 1802.59 1424.83 C 1831.65 1412.89 1875.21 1408.7 1881.89 1370.83 C 1884.66 1360.73 1873.14 1342.86 1862.11 1342.48 C 1828.28 1341.32 1834.95 1393.26 1794.78 1386.42 L 1793.42 1386.18 C 1764.54 1370.88 1763.49 1342.19 1780.37 1317.04 C 1795.44 1295.35 1819.08 1277.28 1828.39 1252.79 C 1842.42 1215.88 1811.68 1186.88 1776.29 1206.98 C 1768.86 1212 1764.41 1216.45 1758.25 1223.02 L 1756.92 1224.98 C 1734.3 1256.32 1716.55 1317.94 1711.73 1356.47 C 1710.83 1363.74 1709.52 1394.9 1707.4 1398.55 L 1705.81 1398.46 C 1704.39 1394.89 1705.99 1379.11 1706.37 1374.48 C 1710.56 1322.88 1725.43 1269.56 1752.27 1225.12 L 1754.08 1223.23 C 1761.35 1213.04 1766.11 1208.99 1776.64 1202.81 z"/>
<path transform="translate(0,0)" fill="rgb(68,69,119)" d="M 1781.55 1323.02 C 1783.2 1338.39 1788.43 1366.96 1792.55 1381.87 C 1768.92 1367.67 1768.26 1345.02 1781.55 1323.02 z"/>
<path transform="translate(0,0)" fill="rgb(134,134,227)" d="M 1758.25 1223.02 C 1759.79 1223.01 1768.52 1222.89 1769.37 1223.15 L 1772.48 1224.05 L 1771.33 1223.36 L 1772.84 1224.09 C 1767.5 1225.49 1762.48 1225.06 1756.92 1224.98 L 1758.25 1223.02 z"/>
<path transform="translate(0,0)" fill="rgb(134,134,227)" d="M 1733.9 1578.46 C 1753.45 1574.61 1772.42 1587.38 1776.19 1606.95 C 1779.96 1626.53 1767.11 1645.44 1747.52 1649.13 C 1728.05 1652.79 1709.27 1640.03 1705.52 1620.58 C 1701.77 1601.12 1714.46 1582.29 1733.9 1578.46 z"/>
<path transform="translate(0,0)" fill="rgb(68,69,119)" d="M 1739.82 1582.37 C 1757.05 1581.79 1771.54 1595.21 1772.27 1612.44 C 1773.01 1629.67 1759.73 1644.28 1742.51 1645.18 C 1725.05 1646.09 1710.21 1632.59 1709.46 1615.13 C 1708.71 1597.67 1722.35 1582.95 1739.82 1582.37 z"/>
<path transform="translate(0,0)" fill="rgb(202,201,253)" d="M 1028.85 1656.67 C 1031.82 1663.74 1034.54 1669.89 1037.89 1676.78 C 1040.07 1679.83 1040.64 1680.23 1040.91 1684.03 C 1050.55 1699.52 1059.01 1714.8 1070.75 1729.01 C 1073.48 1732.31 1085.82 1744.64 1085.92 1747.02 L 1085.82 1747.13 L 1089.26 1748.63 C 1089.73 1750.31 1090.19 1751.99 1090.63 1753.67 L 1091.66 1752.05 C 1096.41 1754.46 1099.33 1758.28 1103.52 1761.53 C 1124.03 1777.5 1146.28 1788.71 1171.32 1795.74 C 1202.62 1804.53 1236.22 1808.93 1268.1 1800.23 C 1269.57 1799.83 1272.6 1798.76 1273.81 1797.79 C 1315.02 1815.74 1348.84 1832.92 1385.16 1860 C 1392.72 1865.63 1414.59 1885.56 1420.56 1885.47 C 1423.4 1900.63 1424.77 1921.7 1425.94 1937.34 C 1427.65 1959.98 1429.75 1984.64 1430.23 2007.26 C 1420.83 2008.14 1404.24 2007.74 1394.18 2007.79 L 1326.16 2008.08 C 1249.78 2008.4 1170.91 2008.1 1094.75 2009.4 C 1092.25 1995.95 1087.99 1971.85 1084.1 1959.46 C 1083.93 1975.82 1084.71 1994.13 1085.43 2010.57 C 1023.93 2010.05 962.421 2009.86 900.914 2010.02 C 861.779 2010.01 818.765 2009.15 779.913 2010.44 C 780.754 1978.23 783.864 1945.41 784.828 1913.14 C 785.188 1901.09 785.927 1887.99 787.333 1876.03 C 821.997 1877 863.808 1882.35 897.858 1878.5 C 930.22 1874.84 978.385 1868.11 998.888 1841.08 C 1036.77 1791.15 1034.3 1715.3 1028.85 1656.67 z"/>
<path transform="translate(0,0)" fill="rgb(202,201,253)" d="M 1040.91 1684.03 C 1050.55 1699.52 1059.01 1714.8 1070.75 1729.01 C 1073.48 1732.31 1085.82 1744.64 1085.92 1747.02 L 1085.82 1747.13 C 1084.49 1751.91 1085.18 1759.5 1085.61 1764.5 C 1089.03 1803.93 1092.77 1840.04 1046.84 1855.04 C 1046.16 1847 1045.94 1838.29 1045.77 1830.19 C 1044.76 1781.57 1041.29 1732.61 1040.91 1684.03 z"/>
<path transform="translate(0,0)" fill="rgb(0,0,0)" d="M 1037.89 1676.78 C 1040.07 1679.83 1040.64 1680.23 1040.91 1684.03 C 1041.29 1732.61 1044.76 1781.57 1045.77 1830.19 C 1045.94 1838.29 1046.16 1847 1046.84 1855.04 C 1092.77 1840.04 1089.03 1803.93 1085.61 1764.5 C 1085.18 1759.5 1084.49 1751.91 1085.82 1747.13 L 1089.26 1748.63 C 1089.73 1750.31 1090.19 1751.99 1090.63 1753.67 C 1093.1 1798.71 1102.21 1844.37 1046.93 1860.62 C 1047.1 1873.52 1049.72 1897.82 1045.68 1909 C 1041.52 1900.27 1041.58 1866.16 1041.23 1855.16 L 1038.72 1783.25 L 1036.37 1717.82 C 1035.94 1706.37 1035.36 1694.46 1035.27 1682.98 C 1035.24 1679.14 1035.65 1679.61 1037.89 1676.78 z"/>
<path transform="translate(0,0)" fill="rgb(0,0,0)" d="M 881.332 1928.2 C 882.945 1928.76 884.927 1929.33 885.243 1930.7 C 888.037 1942.85 885.77 1976.67 882.06 1986.64 L 879.039 1984.89 C 877.557 1982.48 880.157 1961.99 880.5 1957.39 C 881.197 1948.02 880.202 1937.19 881.332 1928.2 z"/>
<path transform="translate(0,0)" fill="rgb(0,0,0)" d="M 1245.93 1933.84 C 1247.17 1934.48 1248.68 1934.89 1248.91 1935.97 C 1250.59 1943.7 1252.8 1982.87 1250.7 1988.03 L 1247.94 1986.7 C 1245.27 1983.05 1243.09 1937.79 1245.93 1933.84 z"/>
<path transform="translate(0,0)" fill="rgb(0,0,0)" d="M 1215.47 586.602 L 1223.98 580.777 L 1255.99 643.067 C 1250.09 657.518 1238.61 678.341 1231.45 693.136 C 1216.32 724.421 1202.14 756.156 1188.92 788.297 C 1150.32 883.734 1121.33 982.442 1085.71 1078.6 C 1079.65 1094.95 1030.7 1233.19 1022.56 1242.84 C 1020.25 1241.98 1020.83 1242.66 1019.89 1240.35 C 1009.39 1214.52 1000.73 1184.81 993.459 1157.95 C 955.291 1016.88 946.572 869.459 967.845 724.873 C 970.221 708.653 975.515 672.815 980.184 657.286 C 985.256 651.523 1020.61 620.639 1026.41 617.959 C 1029.49 621.841 1034.07 629.168 1036.74 633.277 C 1074.53 691.481 1108.71 660.683 1149.58 632.238 C 1171.43 616.863 1193.39 601.65 1215.47 586.602 z"/>
<path transform="translate(0,0)" fill="rgb(202,201,253)" d="M 1024.79 625.17 C 1042.57 652.924 1064.42 683.157 1102.64 667.932 C 1120.81 660.696 1136.03 647.777 1152.22 637.11 C 1175.47 621.396 1198.54 604.207 1221.9 588.803 L 1250.1 643.581 C 1212.99 715.104 1180.74 789.047 1153.57 864.909 C 1143.85 892.607 1134.43 920.407 1125.29 948.304 C 1121.59 959.394 1115.71 978.465 1111.43 988.879 C 1107.8 1000.31 1103.68 1012.09 1099.56 1023.36 C 1074.18 1092.84 1050.04 1163.76 1022.17 1232.23 C 994.23 1152.67 975.812 1070.08 967.299 986.191 C 958.25 897.368 960.515 807.756 974.041 719.503 C 976.464 703.613 980.958 674.75 985.004 659.592 C 994.969 649.461 1013.41 635.208 1024.79 625.17 z"/>
<path transform="translate(0,0)" fill="rgb(225,226,134)" d="M 1081.39 691.38 C 1085.67 697.377 1112.95 735.72 1116.26 737.097 C 1115.84 741.952 1115.36 739.793 1117.26 743.899 C 1110.71 754.808 1092.59 783.781 1088.22 794.222 C 1092.75 838.041 1097.7 881.815 1103.07 925.537 C 1104.28 936.089 1108.21 981.863 1111.43 988.879 C 1107.8 1000.31 1103.68 1012.09 1099.56 1023.36 C 1074.18 1092.84 1050.04 1163.76 1022.17 1232.23 C 994.23 1152.67 975.812 1070.08 967.299 986.191 C 975.824 979.76 1035.03 808.037 1040.44 785.679 C 1041.46 781.425 1036.2 748.424 1034.35 741.235 C 1037.34 737.002 1036.54 739.277 1036.92 734.178 C 1040.05 733.679 1074.39 696.87 1081.39 691.38 z"/>
<path transform="translate(0,0)" fill="rgb(0,0,0)" d="M 1136.62 759.819 C 1159.74 739.064 1182.84 718.078 1205.79 697.121 C 1207.32 695.722 1209.25 694.649 1211.37 694.713 L 1212.96 696.319 C 1212.8 697.061 1212.64 697.803 1212.48 698.544 C 1187.81 720.396 1163.83 743.938 1138.45 764.858 C 1137.81 765.387 1136.38 765.74 1135.82 765.903 C 1129.84 761.519 1122.15 749.871 1117.26 743.899 C 1115.36 739.793 1115.84 741.952 1116.26 737.097 C 1122.98 739.526 1131.57 753.403 1136.62 759.819 z"/>
<path transform="translate(0,0)" fill="rgb(0,0,0)" d="M 1015.27 759.699 C 1009.15 749.065 988.118 696.398 994.609 685.833 L 996.222 685.814 C 999.144 691.363 1001.91 708.31 1003.72 715.197 C 1007.37 729.073 1010.71 737.869 1016.86 750.7 C 1021.96 745.404 1030.36 734.933 1036.92 734.178 C 1036.54 739.277 1037.34 737.002 1034.35 741.235 C 1028.11 747.521 1021.75 753.677 1015.27 759.699 z"/>
<path transform="translate(0,0)" fill="rgb(104,103,161)" d="M 1580.24 940.852 C 1673.18 938.856 1767.19 941.801 1860.2 940.74 C 1862.15 940.717 1863.47 941.171 1865.2 942.005 L 1864.54 943.028 C 1859.24 951.804 1853.34 961.143 1848.35 970.028 L 1847.6 971.088 L 1846.66 973.086 C 1841.05 983.643 1835.52 993.95 1830.34 1004.73 C 1818.34 1031.25 1807.86 1057.13 1799.74 1085.12 C 1798.39 1089.76 1796.8 1095.76 1795.09 1100.2 L 1794.78 1101.15 C 1792.75 1113.38 1788.65 1126.37 1786.1 1138.94 C 1781.7 1160.58 1779.06 1180.89 1776.64 1202.81 C 1766.11 1208.99 1761.35 1213.04 1754.08 1223.23 L 1752.27 1225.12 C 1709.46 1225.92 1664.08 1225.21 1621.08 1225.2 L 1620.95 1222.89 C 1619.19 1218.23 1617.23 1199.36 1616.6 1193.38 L 1616.24 1192 C 1614.43 1184.37 1612.78 1170.28 1611.57 1162.09 L 1611.7 1160.18 C 1609.74 1152.68 1608.05 1138.82 1606.83 1130.73 L 1606.48 1128.93 C 1605.49 1121.96 1602.45 1104.98 1602.77 1099.19 L 1602.79 1097.81 C 1600.57 1093.75 1598.3 1073.82 1597.47 1068.05 L 1597.21 1065.88 C 1596.47 1059.3 1592.71 1041.83 1593.71 1036.24 L 1593.7 1035.07 C 1591.5 1032.23 1589.07 1010.85 1588.36 1005.9 L 1588.49 1003.49 C 1586.83 996.565 1585.47 985.126 1584.37 977.788 C 1584.12 977.067 1583.39 971.14 1583.24 970.015 C 1582.41 963.632 1582.27 948.229 1579.81 943.899 L 1580.24 940.852 z"/>
<path transform="translate(0,0)" fill="rgb(68,69,119)" d="M 1791.04 1098.83 L 1794.78 1101.15 C 1792.75 1113.38 1788.65 1126.37 1786.1 1138.94 C 1781.7 1160.58 1779.06 1180.89 1776.64 1202.81 C 1766.11 1208.99 1761.35 1213.04 1754.08 1223.23 C 1750.35 1222.87 1745.78 1222.81 1741.97 1222.66 L 1741.92 1193.39 C 1749.4 1193.55 1768.95 1194.15 1775.3 1192.5 C 1764.29 1191.67 1753.07 1191.85 1742.02 1191.84 L 1741.94 1162.09 C 1747.23 1162.12 1779.53 1162.37 1780.85 1161.3 C 1772.42 1158.99 1751.67 1160.02 1741.99 1160.09 L 1741.96 1130.75 C 1747.73 1130.8 1782.89 1131.44 1786.6 1130.02 C 1777.78 1128.03 1752.65 1128.87 1742.01 1128.93 C 1741.92 1122.66 1741.15 1104.02 1742.87 1099.07 C 1756.61 1099.35 1777.75 1099.96 1791.04 1098.83 z"/>
<path transform="translate(0,0)" fill="rgb(68,69,119)" d="M 1741.91 1068.03 L 1792.95 1068.03 C 1793 1074.28 1794.41 1094.49 1791.12 1098.09 L 1791.04 1098.83 C 1777.75 1099.96 1756.61 1099.35 1742.87 1099.07 L 1742.9 1097.93 C 1741.28 1093.08 1741.88 1074.23 1741.91 1068.03 z"/>
<path transform="translate(0,0)" fill="rgb(104,103,161)" d="M 1742.9 1097.93 C 1749.08 1097.27 1786.16 1096.76 1791.12 1098.09 L 1791.04 1098.83 C 1777.75 1099.96 1756.61 1099.35 1742.87 1099.07 L 1742.9 1097.93 z"/>
<path transform="translate(0,0)" fill="rgb(68,69,119)" d="M 1795.08 1004.79 L 1830.34 1004.73 C 1818.34 1031.25 1807.86 1057.13 1799.74 1085.12 C 1798.39 1089.76 1796.8 1095.76 1795.09 1100.2 C 1795.06 1094.61 1794.59 1073.23 1795.53 1069.02 C 1798.71 1067.25 1799.21 1067.93 1803.45 1067.94 L 1804.31 1066.91 C 1802.52 1065.07 1800.07 1066.72 1795.6 1065.31 C 1794.41 1059.4 1795.02 1043.28 1795.09 1036.5 C 1800.42 1036.61 1805.76 1036.54 1811.08 1036.29 L 1811.4 1035.45 C 1812.13 1035.58 1812.85 1035.71 1813.58 1035.84 L 1811.61 1035.98 L 1811.32 1035.19 C 1807.36 1034.71 1799.39 1034.98 1795.12 1034.99 L 1795.08 1004.79 z"/>
<path transform="translate(0,0)" fill="rgb(68,69,119)" d="M 1795.07 943.026 L 1846.12 943.138 C 1846.08 948.486 1845.31 967.244 1847.6 971.088 L 1846.66 973.086 C 1842.76 971.213 1802.63 972.182 1795.07 972.248 L 1795.07 943.026 z"/>
<path transform="translate(0,0)" fill="rgb(68,69,119)" d="M 1579.81 943.899 C 1588.12 942.279 1623.73 943.074 1633.49 943.137 L 1633.45 972.142 C 1625.96 972.191 1586.33 973.829 1583.24 970.015 C 1582.41 963.632 1582.27 948.229 1579.81 943.899 z"/>
<path transform="translate(0,0)" fill="rgb(68,69,119)" d="M 1584.37 977.788 L 1584.93 974.96 C 1590.03 972.963 1625.2 973.912 1633.34 973.996 L 1633.47 1003.49 L 1588.49 1003.49 C 1586.83 996.565 1585.47 985.126 1584.37 977.788 z"/>
<path transform="translate(0,0)" fill="rgb(68,69,119)" d="M 1795.07 973.902 C 1804.9 973.998 1838.09 974.835 1846.66 973.086 C 1841.05 983.643 1835.52 993.95 1830.34 1004.73 C 1826.62 1002.57 1800.94 1003.44 1795.12 1003.49 L 1795.07 973.902 z"/>
<path transform="translate(0,0)" fill="rgb(68,69,119)" d="M 1588.36 1005.9 C 1593.38 1003.72 1626.35 1004.82 1633.38 1004.94 L 1633.32 1034.95 C 1620.89 1034.96 1605.93 1034.58 1593.7 1035.07 C 1591.5 1032.23 1589.07 1010.85 1588.36 1005.9 z"/>
<path transform="translate(0,0)" fill="rgb(68,69,119)" d="M 1593.71 1036.24 C 1606.25 1036.87 1620.57 1036.55 1633.27 1036.5 L 1633.43 1065.97 C 1621.84 1065.95 1608.67 1066.25 1597.21 1065.88 C 1596.47 1059.3 1592.71 1041.83 1593.71 1036.24 z"/>
<path transform="translate(0,0)" fill="rgb(68,69,119)" d="M 1597.47 1068.05 L 1633.34 1068.05 C 1633.38 1077.21 1633.72 1088.41 1633.08 1097.39 L 1631.52 1097.89 C 1624.6 1097.01 1609.87 1097.4 1602.79 1097.81 C 1600.57 1093.75 1598.3 1073.82 1597.47 1068.05 z"/>
<path transform="translate(0,0)" fill="rgb(68,69,119)" d="M 1602.79 1097.81 C 1609.87 1097.4 1624.6 1097.01 1631.52 1097.89 L 1631.93 1099.17 L 1633.18 1099.43 C 1633.41 1109.26 1633.51 1119.1 1633.46 1128.93 L 1606.48 1128.93 C 1605.49 1121.96 1602.45 1104.98 1602.77 1099.19 L 1602.79 1097.81 z"/>
<path transform="translate(0,0)" fill="rgb(104,103,161)" d="M 1602.79 1097.81 C 1609.87 1097.4 1624.6 1097.01 1631.52 1097.89 L 1631.93 1099.17 C 1622.67 1099.45 1612.14 1099.2 1602.77 1099.19 L 1602.79 1097.81 z"/>
<path transform="translate(0,0)" fill="rgb(68,69,119)" d="M 1606.83 1130.73 C 1615.54 1130.79 1624.66 1130.99 1633.33 1130.77 C 1633.31 1140.52 1633.34 1150.28 1633.44 1160.03 L 1611.7 1160.18 C 1609.74 1152.68 1608.05 1138.82 1606.83 1130.73 z"/>
<path transform="translate(0,0)" fill="rgb(68,69,119)" d="M 1611.57 1162.09 L 1633.25 1162.14 L 1633.33 1191.83 L 1616.24 1192 C 1614.43 1184.37 1612.78 1170.28 1611.57 1162.09 z"/>
<path transform="translate(0,0)" fill="rgb(68,69,119)" d="M 1616.6 1193.38 C 1622.03 1193.42 1627.87 1193.58 1633.26 1193.47 L 1633.46 1222.73 L 1620.95 1222.89 C 1619.19 1218.23 1617.23 1199.36 1616.6 1193.38 z"/>
<path transform="translate(0,0)" fill="rgb(68,69,119)" d="M 1848.06 943.033 L 1864.54 943.028 C 1859.24 951.804 1853.34 961.143 1848.35 970.028 C 1847.74 962.239 1848.07 951.073 1848.06 943.033 z"/>
<path transform="translate(0,0)" fill="rgb(68,69,119)" d="M 1635.03 1068.01 L 1686.93 1068.03 L 1686.89 1128.96 L 1635.11 1128.93 L 1635.01 1099.39 C 1640.32 1098.61 1661.51 1098.93 1669.33 1098.46 C 1658.05 1097.22 1645.88 1099.02 1634.92 1097.33 C 1635.03 1087.56 1635.06 1077.78 1635.03 1068.01 z"/>
<path transform="translate(0,0)" fill="rgb(68,69,119)" d="M 1688.51 1068.01 L 1739.92 1068.06 C 1739.95 1073.81 1740.64 1093.54 1738.95 1097.78 L 1739.02 1099.11 C 1740.64 1103.6 1739.92 1123.11 1739.88 1128.91 L 1688.67 1128.96 C 1688.46 1120.93 1688.09 1106.75 1689.01 1099.11 L 1689.11 1097.69 C 1687.95 1090.41 1688.53 1075.94 1688.51 1068.01 z"/>
<path transform="translate(0,0)" fill="rgb(68,69,119)" d="M 1688.51 1068.01 L 1739.92 1068.06 C 1739.95 1073.81 1740.64 1093.54 1738.95 1097.78 C 1729.61 1096.68 1699.4 1097.41 1689.11 1097.69 C 1687.95 1090.41 1688.53 1075.94 1688.51 1068.01 z"/>
<path transform="translate(0,0)" fill="rgb(104,103,161)" d="M 1689.11 1097.69 C 1699.4 1097.41 1729.61 1096.68 1738.95 1097.78 L 1739.02 1099.11 C 1723.38 1099.78 1704.73 1099.26 1689.01 1099.11 L 1689.11 1097.69 z"/>
<path transform="translate(0,0)" fill="rgb(68,69,119)" d="M 1635.04 1004.9 L 1686.89 1004.86 L 1686.93 1034.95 L 1635.06 1034.96 L 1635.04 1004.9 z"/>
<path transform="translate(0,0)" fill="rgb(68,69,119)" d="M 1635.05 1162.11 L 1686.93 1162.12 L 1686.93 1191.89 L 1635.11 1191.84 L 1635.05 1162.11 z"/>
<path transform="translate(0,0)" fill="rgb(68,69,119)" d="M 1688.51 1004.88 L 1739.9 1004.95 L 1739.89 1034.98 L 1688.67 1034.97 C 1688.43 1025.1 1688.55 1014.78 1688.51 1004.88 z"/>
<path transform="translate(0,0)" fill="rgb(68,69,119)" d="M 1741.92 1004.93 L 1792.93 1004.83 L 1792.92 1034.97 L 1742.02 1034.95 L 1741.92 1004.93 z"/>
<path transform="translate(0,0)" fill="rgb(68,69,119)" d="M 1635.05 973.967 L 1686.93 973.959 L 1686.95 1003.49 L 1635.06 1003.49 L 1635.05 973.967 z"/>
<path transform="translate(0,0)" fill="rgb(68,69,119)" d="M 1688.51 1162.06 L 1739.88 1162.11 L 1739.88 1191.86 L 1688.67 1191.85 C 1688.44 1182.09 1688.55 1171.87 1688.51 1162.06 z"/>
<path transform="translate(0,0)" fill="rgb(68,69,119)" d="M 1635.09 1036.14 C 1642.75 1037.03 1679.99 1036.85 1686.93 1035.88 L 1686.95 1065.98 L 1635.06 1066 L 1635.09 1036.14 z"/>
<path transform="translate(0,0)" fill="rgb(68,69,119)" d="M 1635.06 1130.72 C 1652.36 1130.97 1669.67 1130.93 1686.97 1130.61 L 1686.94 1160 L 1635.06 1160.04 L 1635.06 1130.72 z"/>
<path transform="translate(0,0)" fill="rgb(68,69,119)" d="M 1741.98 973.957 L 1792.97 973.95 L 1792.96 1003.49 L 1742.01 1003.49 L 1741.98 973.957 z"/>
<path transform="translate(0,0)" fill="rgb(68,69,119)" d="M 1635.61 1193.48 C 1651.13 1193.84 1671.64 1193.96 1686.91 1193.22 L 1686.92 1222.75 L 1635.04 1222.76 C 1635.04 1215.29 1634.53 1200.28 1635.61 1193.48 z"/>
<path transform="translate(0,0)" fill="rgb(68,69,119)" d="M 1688.51 1036.08 C 1695.62 1037.1 1732.3 1036.68 1739.89 1036.03 L 1739.89 1065.7 C 1733.11 1066.72 1697.69 1066.05 1688.58 1065.99 L 1688.51 1036.08 z"/>
<path transform="translate(0,0)" fill="rgb(68,69,119)" d="M 1688.24 973.95 L 1739.88 973.976 L 1739.9 1003.49 L 1688.63 1003.49 C 1688.62 993.673 1688.73 983.746 1688.24 973.95 z"/>
<path transform="translate(0,0)" fill="rgb(68,69,119)" d="M 1635.02 943.03 C 1652.2 943.246 1669.73 943.082 1686.94 943.102 L 1686.96 972.229 L 1635.07 972.153 L 1635.02 943.03 z"/>
<path transform="translate(0,0)" fill="rgb(68,69,119)" d="M 1688.51 1130.66 C 1704.64 1131.32 1723.56 1130.83 1739.89 1130.78 L 1739.9 1160.04 L 1688.52 1160.09 L 1688.51 1130.66 z"/>
<path transform="translate(0,0)" fill="rgb(68,69,119)" d="M 1741.94 1036.12 C 1748.71 1037.15 1785.76 1036.64 1792.92 1036.01 L 1792.96 1065.7 C 1786.43 1066.7 1750.72 1066.02 1742.01 1065.97 L 1741.94 1036.12 z"/>
<path transform="translate(0,0)" fill="rgb(68,69,119)" d="M 1688.51 1193.5 C 1705.65 1193.72 1722.78 1193.7 1739.92 1193.43 L 1739.89 1222.77 L 1688.51 1222.77 L 1688.51 1193.5 z"/>
<path transform="translate(0,0)" fill="rgb(68,69,119)" d="M 1688.24 943.109 L 1739.89 943.123 L 1739.87 972.177 L 1688.51 972.212 C 1688.56 962.419 1688.66 952.908 1688.24 943.109 z"/>
<path transform="translate(0,0)" fill="rgb(68,69,119)" d="M 1741.92 943.032 C 1758.68 943.319 1776.12 943.094 1792.94 943.116 L 1792.96 972.213 L 1742.01 972.132 L 1741.92 943.032 z"/>
<path transform="translate(0,0)" fill="rgb(68,69,119)" d="M 554.102 721.978 C 562.101 724.21 601.745 723.088 612.929 723.063 L 754.569 723.128 C 771.044 723.127 811.305 722 825.862 723.529 C 762.614 758.348 726.803 774.579 707.017 848.973 C 692.634 903.051 678.103 958.522 661.278 1011.93 C 656.791 1026.17 651.302 1044.88 646.185 1058.46 C 637.407 1037.34 629.738 1015.12 621.459 993.73 C 619.876 997.97 618.191 1002.31 616.71 1006.57 C 613.766 999.99 608.099 979.718 605.766 975.978 C 602.893 975.451 602.369 976.702 599.028 978.778 C 597.388 977.412 597.361 975.377 597.28 973.111 C 596 937.185 621.084 911.563 617.874 873.533 C 616.608 848.052 602.179 817.809 587.585 796.571 C 568.274 768.468 563.077 754.943 554.102 721.978 z"/>
<path transform="translate(0,0)" fill="rgb(0,0,0)" d="M 1395.46 1536.35 L 1399.36 1535.96 C 1400.39 1539.78 1397.54 1546.17 1396.31 1550.06 C 1379.15 1604.07 1369.38 1660.61 1354.74 1715.26 C 1416.13 1716.6 1457.7 1739.93 1488.52 1793.23 C 1486.69 1803.17 1479.42 1805.93 1470.5 1808.46 C 1466.73 1807.58 1457.85 1805.23 1455.2 1807.19 C 1447.83 1812.66 1430.81 1852.16 1429.4 1859.47 C 1425.93 1866.62 1422.74 1877.7 1420.56 1885.47 C 1414.59 1885.56 1392.72 1865.63 1385.16 1860 C 1348.84 1832.92 1315.02 1815.74 1273.81 1797.79 C 1277.23 1793.5 1300.63 1782.81 1307.35 1778.52 C 1321.13 1769.74 1336.54 1758.37 1351.43 1752.08 L 1355.71 1739.67 C 1347.55 1732.68 1346.45 1728.46 1348.88 1717.78 C 1359.16 1672.43 1370.17 1627.15 1381.29 1582 C 1384.7 1568.17 1389.8 1549.25 1395.46 1536.35 z"/>
<path transform="translate(0,0)" fill="rgb(254,254,254)" d="M 1355.49 1757.23 C 1388.59 1754.9 1423.01 1784.45 1449.58 1803.27 C 1435.03 1829.02 1425.76 1849.95 1416.95 1878.25 C 1409.88 1872.47 1402.75 1866.77 1395.56 1861.15 C 1360.88 1834.08 1325.27 1814.52 1285.27 1796.82 C 1295.21 1791.82 1302.44 1787.82 1312.03 1782.05 C 1325.69 1773.82 1340.29 1761.01 1355.49 1757.23 z"/>
<path transform="translate(0,0)" fill="rgb(254,254,254)" d="M 1367.71 1720.84 C 1368.4 1720.9 1369.1 1720.97 1369.79 1721.05 C 1414.27 1725.93 1444.53 1742.52 1472.52 1777.35 C 1468.47 1783.66 1462.6 1791.26 1458.1 1797.43 L 1455.99 1799.9 C 1451.79 1798.99 1419.34 1774.95 1412.57 1770.81 C 1392.13 1758.33 1381.85 1752.03 1357.49 1751.71 C 1360.84 1741.41 1364.25 1731.12 1367.71 1720.84 z"/>
<path transform="translate(0,0)" fill="rgb(0,0,0)" d="M 1268.88 646.041 C 1272.3 646.875 1271.77 646.083 1273.66 648.016 C 1286.24 718.717 1280.25 808.863 1254.17 876.293 C 1235.95 885.057 1214.62 891.552 1195.81 900.307 C 1214.43 902.289 1233.01 904.518 1251.57 906.994 C 1231.2 1003.95 1189.05 1059.21 1137.84 1141.97 C 1116.06 1177.17 1094.42 1211.48 1069.67 1244.73 C 1046.95 1275.25 1021.95 1299.63 997.728 1327.73 C 998.316 1401.22 999.979 1489.88 1003.39 1564.57 C 1003.79 1573.34 1032.47 1628.23 1029.03 1635.35 L 1027.07 1635.67 C 1022.71 1632.46 1000.31 1571.72 997.662 1561.86 C 996.051 1553.69 996.287 1544.59 996.116 1536.43 C 994.648 1466.27 994.199 1395.71 991.868 1325.62 C 1016.23 1297.56 1038.89 1276.23 1062.45 1244.98 C 1088.45 1210.49 1108.77 1178.24 1131.55 1141.74 C 1181.77 1061.31 1223.42 1005.22 1245.04 911.347 C 1235.25 910.412 1189.77 905.784 1182.92 903.007 L 1182.2 901.059 C 1184.69 897.217 1241.01 876.052 1249.93 872.554 C 1275.74 795.435 1280.17 726.454 1268.88 647.076 C 1268.88 646.731 1268.88 646.386 1268.88 646.041 z"/>
<path transform="translate(0,0)" fill="rgb(254,254,254)" d="M 602.677 983.204 C 605.985 993.298 609.444 1003.34 613.052 1013.33 C 591.336 1054.97 540.477 1072.84 495.955 1062.93 C 495.97 1053.95 496.406 1039.84 495.518 1031.29 C 534.569 1028.87 573.821 1009.05 602.677 983.204 z"/>
<path transform="translate(0,0)" fill="rgb(68,69,119)" d="M 1395.46 1536.35 C 1392.28 1461.25 1389.85 1381.39 1405.77 1307.22 C 1429.89 1367.96 1421.39 1434.62 1407.83 1496.79 C 1406.26 1504.03 1398.49 1530.41 1399.36 1535.96 L 1395.46 1536.35 z"/>
<path transform="translate(0,0)" fill="rgb(0,0,0)" d="M 946.479 669.288 C 949.765 664.135 949.234 663.501 954.975 665.126 C 946.593 680.698 937.624 694.723 929.498 710.853 C 907.713 754.098 887.413 813.021 882.524 861.406 C 928.673 873.698 924.373 908.138 879.268 908.854 C 880.985 997.298 895.075 1068.88 931.371 1150.5 C 947.315 1186.54 966.326 1221.14 988.194 1253.93 C 991.516 1258.99 1002.15 1272.59 1001.04 1277.29 L 999.288 1277.58 C 993.382 1273.27 978.826 1249.91 974.364 1242.83 C 926.702 1168.53 894.868 1085.2 880.85 998.041 C 875.912 966.584 873.65 934.764 874.089 902.925 C 883.008 903.101 899.594 903.334 905.121 896.213 C 920.409 876.519 887.287 867.999 876.667 866.031 C 882.303 800.879 912.3 724.459 946.479 669.288 z"/>
<path transform="translate(0,0)" fill="rgb(0,0,0)" d="M 1415.74 788.708 C 1418.43 789.549 1417.33 788.818 1419.15 790.979 C 1417.93 794.68 1407.79 803.777 1404.6 807.398 C 1310.96 913.974 1360.74 1061.55 1388.44 1182.83 C 1394.91 1211.14 1401.97 1247.32 1402.66 1275.44 L 1402.68 1276.74 C 1401.69 1276.57 1398.44 1276.39 1398.35 1275.41 C 1388.48 1163.02 1335.76 1049.64 1346.06 936.014 C 1351.2 879.34 1375.25 822.081 1415.74 788.708 z"/>
<path transform="translate(0,0)" fill="rgb(0,0,0)" d="M 743.09 822.166 C 744.877 822.919 744.735 822.964 746.34 824.112 C 747.121 826.845 738.518 862.147 737.383 868.313 C 730.642 906.125 727.921 944.544 729.264 982.929 C 731.107 1041.63 740.497 1098.96 753.842 1156.09 C 759.718 1180.96 766.101 1205.7 772.985 1230.3 C 775.314 1238.62 786.117 1272.36 784.572 1278.74 C 782.432 1277.92 780.906 1277.65 780.127 1275.02 C 742.382 1147.44 709.458 1012.51 730.098 878.863 C 732.74 861.758 737.077 837.826 743.09 822.166 z"/>
<path transform="translate(0,0)" fill="rgb(0,0,0)" d="M 1154.88 1516.82 C 1170.05 1516.05 1193.85 1517.33 1209.69 1517.75 C 1243.52 1518.81 1277.36 1519.58 1311.2 1520.05 C 1316.17 1520.1 1329.07 1519.69 1332.46 1523.15 L 1331.55 1525.3 C 1324.93 1527.5 1178.32 1522.4 1161.38 1522 C 1169.86 1549.93 1178.81 1594.03 1191.23 1619.2 C 1212.15 1654.37 1251.98 1662.49 1289.98 1663.25 C 1295.24 1663.36 1311.52 1662.94 1315.29 1664.81 L 1315.69 1666.4 C 1314.47 1667.68 1312.91 1668.98 1311 1668.98 C 1276.31 1669.09 1240.74 1668.27 1211.03 1648.25 C 1180.52 1628.34 1175.18 1591.66 1166.05 1559.21 C 1162.35 1546.06 1157.21 1530.2 1154.88 1516.82 z"/>
<path transform="translate(0,0)" fill="rgb(0,0,0)" d="M 868.363 1519.44 C 876.885 1518.68 893.347 1518.92 902.456 1518.78 C 914.035 1568.08 917.944 1634.26 872.584 1667.86 C 852.449 1682.77 826.331 1689.88 801.471 1685.82 C 798.807 1685.38 798.04 1685.15 796.603 1682.98 L 797.186 1681.1 C 800.746 1678.86 812.488 1682.28 820.692 1681.35 C 833.294 1679.93 836.65 1679.44 848.766 1675.09 C 914.444 1645.96 907.721 1583.52 898.306 1524.06 L 836.832 1525.78 C 831.33 1525.93 803.125 1527.76 800.405 1524.49 C 806.185 1519.02 856.453 1519.95 868.363 1519.44 z"/>
<path transform="translate(0,0)" fill="rgb(0,0,0)" d="M 645.566 1079.41 C 650.042 1081.99 661.792 1111.99 664.671 1118.64 L 695.365 1189.49 L 736.495 1284.47 C 743.433 1300.5 750.489 1316.65 757.298 1332.74 C 759.168 1337.15 758.878 1337.16 757.775 1340.92 C 754.86 1339.37 754.4 1339.24 752.768 1335.63 C 745.34 1319.16 738.188 1302.3 731.035 1285.73 L 688.728 1187.82 L 657.499 1115.64 C 653.249 1105.83 648.699 1095.69 644.365 1085.87 C 643.268 1083.39 644.58 1081.46 645.566 1079.41 z"/>
<path transform="translate(0,0)" fill="rgb(0,0,0)" d="M 1529 1346.35 C 1534.99 1346.42 1543.44 1348 1546.45 1352.7 C 1569.52 1388.67 1520 1395.72 1496.22 1395.13 C 1484.5 1394.84 1456.77 1398.47 1451.47 1392.19 C 1452.5 1390.38 1453.18 1389.97 1456.14 1389.91 C 1480.52 1389.43 1515.95 1392.51 1538.19 1382.39 C 1554.25 1371.11 1547.34 1350.38 1528.01 1352.53 C 1505.72 1355.01 1483.19 1364.28 1461.3 1369.36 C 1456.98 1370.36 1447.34 1374.77 1444.59 1371.3 L 1445.44 1369.04 C 1450.08 1365.8 1519.03 1347.44 1529 1346.35 z"/>
<path transform="translate(0,0)" fill="rgb(0,0,0)" d="M 1025.2 1339.5 C 1034.94 1336.81 1045.04 1342.45 1047.87 1352.16 C 1050.69 1361.87 1045.18 1372.05 1035.51 1375 C 1029.14 1376.94 1022.21 1375.31 1017.38 1370.72 C 1012.55 1366.13 1010.57 1359.3 1012.19 1352.83 C 1013.8 1346.37 1018.77 1341.28 1025.2 1339.5 z"/>
<path transform="translate(0,0)" fill="rgb(0,0,0)" d="M 1037.33 1508.51 C 1047.18 1506.5 1056.83 1512.73 1059.05 1522.54 C 1061.27 1532.35 1055.24 1542.13 1045.48 1544.56 C 1038.98 1546.17 1032.12 1544.14 1027.54 1539.26 C 1022.96 1534.37 1021.38 1527.39 1023.41 1521.01 C 1025.44 1514.63 1030.77 1509.85 1037.33 1508.51 z"/>
<path transform="translate(0,0)" fill="rgb(113,112,174)" d="M 316.884 357.73 L 866.49 357.702 L 866.533 613.09 L 866.385 674.41 C 866.374 679.308 866.096 698.802 866.985 702.504 L 864.279 703.234 C 859.966 706.338 836.67 718.739 832.239 719.943 C 828.193 721.052 827.864 720.349 825.862 723.529 C 811.305 722 771.044 723.127 754.569 723.128 L 612.929 723.063 C 601.745 723.088 562.101 724.21 554.102 721.978 C 552.393 710.261 549.573 691.487 544.455 681.281 C 536.745 676.035 532.263 676.976 524.759 681.834 L 523.814 682.059 L 456.042 682.046 L 456.035 719.99 C 462.695 719.984 501.383 719.497 504.651 721.195 C 492.708 724.768 480.946 723.013 468.744 723.124 C 418.211 723.585 367.428 722.46 316.919 723.216 L 316.884 357.73 z"/>
<path transform="translate(0,0)" fill="rgb(68,69,119)" d="M 524.071 642.926 C 529.954 640.968 580.939 642.056 590.996 642.023 L 590.983 680.345 C 583.909 680.313 548.619 679.674 544.455 681.281 C 536.745 676.035 532.263 676.976 524.759 681.834 L 524.242 676.849 L 522.998 676.837 C 522.28 672.578 522.461 648.014 522.844 643.025 L 524.071 642.926 z"/>
<path transform="translate(0,0)" fill="rgb(104,103,161)" d="M 524.071 642.926 C 524.285 654.233 524.342 665.541 524.242 676.849 L 522.998 676.837 C 522.28 672.578 522.461 648.014 522.844 643.025 L 524.071 642.926 z"/>
<path transform="translate(0,0)" fill="rgb(68,69,119)" d="M 456.025 641.994 C 466.109 642.105 517.23 640.831 522.844 643.025 C 522.461 648.014 522.28 672.578 522.998 676.837 C 522.746 678.238 522.513 678.34 521.83 679.658 C 516.564 681.193 464.799 680.411 456.062 680.373 L 456.025 641.994 z"/>
<path transform="translate(0,0)" fill="rgb(68,69,119)" d="M 797.778 682.031 L 863.918 682.037 C 863.866 689.341 863.775 695.951 864.279 703.234 C 859.966 706.338 836.67 718.739 832.239 719.943 L 797.95 719.966 C 797.957 707.321 797.899 694.675 797.778 682.031 z"/>
<path transform="translate(0,0)" fill="rgb(68,69,119)" d="M 544.455 681.281 C 553.111 682.789 581.048 682.106 590.977 682.037 L 590.992 719.978 C 583.387 719.925 559.288 717.403 554.102 721.978 C 552.393 710.261 549.573 691.487 544.455 681.281 z"/>
<path transform="translate(0,0)" fill="rgb(68,69,119)" d="M 319.49 400.052 C 338.596 400.056 368.019 399.145 385.881 400.377 L 386.974 400.433 C 387.879 410.244 387.769 427.905 387.248 437.893 L 385.872 437.926 C 382.081 439.93 328.325 438.984 319.5 438.946 L 319.49 400.052 z"/>
<path transform="translate(0,0)" fill="rgb(104,103,161)" d="M 385.881 400.377 L 386.974 400.433 C 387.879 410.244 387.769 427.905 387.248 437.893 L 385.872 437.926 C 385.59 427.141 385.18 410.906 385.881 400.377 z"/>
<path transform="translate(0,0)" fill="rgb(68,69,119)" d="M 729.038 400.067 L 795.956 400.043 L 795.965 438.992 L 729.021 438.953 L 729.038 400.067 z"/>
<path transform="translate(0,0)" fill="rgb(68,69,119)" d="M 729.006 561.055 L 795.962 561.051 L 795.965 599.952 L 729.026 599.933 L 729.006 561.055 z"/>
<path transform="translate(0,0)" fill="rgb(68,69,119)" d="M 456.057 601.608 C 476.986 601.982 502.24 600.76 522.563 602.043 L 524.122 602 C 524.386 614.329 524.401 626.663 524.167 638.993 L 522.908 639.041 C 518.864 640.969 464.956 640.017 456.05 639.974 L 456.057 601.608 z"/>
<path transform="translate(0,0)" fill="rgb(104,103,161)" d="M 522.563 602.043 L 524.122 602 C 524.386 614.329 524.401 626.663 524.167 638.993 L 522.908 639.041 C 522.174 628.19 522.551 613.238 522.563 602.043 z"/>
<path transform="translate(0,0)" fill="rgb(68,69,119)" d="M 524.071 481.909 C 529.844 479.918 580.87 481.078 590.992 480.984 L 590.992 519.157 C 581.816 519.215 529.128 520.337 524.183 518.126 L 522.865 518.066 C 521.943 511.966 522.69 488.631 522.989 481.92 L 524.071 481.909 z"/>
<path transform="translate(0,0)" fill="rgb(104,103,161)" d="M 524.071 481.909 C 524.396 493.979 524.433 506.054 524.183 518.126 L 522.865 518.066 C 521.943 511.966 522.69 488.631 522.989 481.92 L 524.071 481.909 z"/>
<path transform="translate(0,0)" fill="rgb(68,69,119)" d="M 456.05 360.16 C 466.66 360.292 516.457 359.135 522.801 361.057 L 524.079 360.964 C 524.316 371.708 524.894 386.818 524.076 397.324 L 522.965 397.445 C 517.589 399.366 464.899 398.458 456.05 398.463 L 456.05 360.16 z"/>
<path transform="translate(0,0)" fill="rgb(104,103,161)" d="M 524.079 360.964 C 524.316 371.708 524.894 386.818 524.076 397.324 L 522.965 397.445 C 522.087 390.476 522.374 368.455 522.801 361.057 L 524.079 360.964 z"/>
<path transform="translate(0,0)" fill="rgb(68,69,119)" d="M 523.92 399.766 C 544.953 400.767 569.679 400.121 590.978 400.08 L 590.997 438.975 L 524.923 438.928 C 523.699 434.333 524.482 407.772 523.92 399.766 z"/>
<path transform="translate(0,0)" fill="rgb(68,69,119)" d="M 386.974 400.433 C 403.549 398.898 435.876 400.217 454.179 400.052 C 454.152 412.88 454.289 426.136 454.001 438.925 C 444.804 438.976 391.968 440.05 387.248 437.893 C 387.769 427.905 387.879 410.244 386.974 400.433 z"/>
<path transform="translate(0,0)" fill="rgb(68,69,119)" d="M 456.043 561.043 L 522.084 560.995 C 523.481 572.75 522.413 587.617 522.73 599.653 C 501.812 600.605 477.229 599.954 456.047 599.911 L 456.043 561.043 z"/>
<path transform="translate(0,0)" fill="rgb(68,69,119)" d="M 524.866 561 L 590.961 561.041 L 590.975 599.963 C 570.162 599.947 544.664 600.592 524.206 599.785 C 524.163 592.507 523.589 566.581 524.866 561 z"/>
<path transform="translate(0,0)" fill="rgb(68,69,119)" d="M 387.036 561.015 L 454.156 561.035 C 454.219 567.537 455.347 596.106 452.805 599.933 L 386.993 599.964 C 387.99 591.912 387.355 569.649 387.036 561.015 z"/>
<path transform="translate(0,0)" fill="rgb(68,69,119)" d="M 319.49 480.904 C 329.827 481.13 380.002 479.945 386.04 481.88 L 386.995 481.995 C 387.515 488.059 388.013 512.688 386.979 518.106 L 385.961 518.133 C 380.249 520.434 329.123 519.228 319.494 519.162 L 319.49 480.904 z"/>
<path transform="translate(0,0)" fill="rgb(104,103,161)" d="M 386.04 481.88 L 386.995 481.995 C 387.515 488.059 388.013 512.688 386.979 518.106 L 385.961 518.133 C 385.119 513.449 385.848 487.167 386.04 481.88 z"/>
<path transform="translate(0,0)" fill="rgb(68,69,119)" d="M 456.049 400.042 C 478.35 400.269 500.653 400.22 522.953 399.895 C 522.188 408.627 522.191 430.244 522.719 439.16 C 502.787 438.266 476.462 438.938 456.08 438.939 L 456.049 400.042 z"/>
<path transform="translate(0,0)" fill="rgb(68,69,119)" d="M 661.031 561.019 L 727.49 561.048 C 727.389 574.001 727.455 586.955 727.686 599.907 L 661 599.941 L 661.031 561.019 z"/>
<path transform="translate(0,0)" fill="rgb(68,69,119)" d="M 661.057 400.08 L 727.49 400.046 C 727.514 411.093 726.826 428.625 728.005 438.938 L 661.022 438.953 L 661.057 400.08 z"/>
<path transform="translate(0,0)" fill="rgb(68,69,119)" d="M 387.101 521 L 454.152 521.032 C 454.243 529.323 454.855 552.398 453.686 559.512 C 439.644 559.469 398.003 558.561 387.207 560.122 C 387.352 547.082 387.317 534.04 387.101 521 z"/>
<path transform="translate(0,0)" fill="rgb(68,69,119)" d="M 524.086 521.989 C 529.802 519.92 580.923 521.064 590.966 521.02 L 590.977 560.107 C 584.17 559.176 532.157 558.967 524.982 559.773 C 523.726 555.817 524.148 528.614 524.086 521.989 z"/>
<path transform="translate(0,0)" fill="rgb(68,69,119)" d="M 592.905 400.012 C 614.594 400.381 637.339 400.065 659.095 400.056 L 659.132 438.954 L 592.978 438.973 L 592.905 400.012 z"/>
<path transform="translate(0,0)" fill="rgb(68,69,119)" d="M 592.933 561.001 C 614.731 561.306 637.25 561.03 659.102 561.03 C 659.004 573.995 659.052 586.96 659.247 599.924 L 592.992 599.945 L 592.933 561.001 z"/>
<path transform="translate(0,0)" fill="rgb(68,69,119)" d="M 728.999 642.026 L 795.964 642.043 L 795.976 680.357 C 774.023 680.72 751.067 680.403 729.038 680.414 L 728.999 642.026 z"/>
<path transform="translate(0,0)" fill="rgb(68,69,119)" d="M 729.015 360.143 L 795.957 360.179 L 795.973 398.325 C 775.325 399.112 750.06 398.488 729.051 398.513 L 729.015 360.143 z"/>
<path transform="translate(0,0)" fill="rgb(68,69,119)" d="M 729.026 601.548 C 750.249 602.208 774.546 601.723 795.97 601.737 L 795.956 639.974 L 729.051 639.962 L 729.026 601.548 z"/>
<path transform="translate(0,0)" fill="rgb(68,69,119)" d="M 797.767 561.039 L 863.898 561.059 L 863.932 599.941 L 797.904 599.924 C 797.958 586.962 797.913 574 797.767 561.039 z"/>
<path transform="translate(0,0)" fill="rgb(68,69,119)" d="M 661.011 641.961 L 727.49 642.024 L 727.499 680.189 C 706.73 681.044 682.103 680.452 661.023 680.432 L 661.011 641.961 z"/>
<path transform="translate(0,0)" fill="rgb(68,69,119)" d="M 729.016 521.022 L 795.942 521.029 C 795.97 530.942 796.534 550.407 795.611 559.507 C 773.774 559.494 750.801 559.129 729.056 559.792 L 729.016 521.022 z"/>
<path transform="translate(0,0)" fill="rgb(68,69,119)" d="M 525.034 440.231 C 544.793 441.31 570.705 440.539 590.978 440.502 L 590.964 478.971 C 581.454 478.993 528.388 479.899 524.13 477.975 C 524.481 470.282 523.393 445.962 525.034 440.231 z"/>
<path transform="translate(0,0)" fill="rgb(68,69,119)" d="M 456.031 520.999 C 466.038 521.094 517.348 519.81 522.809 522.091 C 522.261 530.744 523.623 553.77 522.01 559.76 C 513.312 558.822 464.921 559.263 456.065 559.95 L 456.031 520.999 z"/>
<path transform="translate(0,0)" fill="rgb(68,69,119)" d="M 729.19 440.284 C 745.417 440.924 780.277 441.271 795.963 440.05 L 795.934 478.966 L 729.04 478.938 C 728.953 466.053 729.003 453.168 729.19 440.284 z"/>
<path transform="translate(0,0)" fill="rgb(68,69,119)" d="M 729.033 480.974 L 795.975 480.97 L 795.98 519.108 C 774.271 519.581 750.864 519.176 729.026 519.189 L 729.033 480.974 z"/>
<path transform="translate(0,0)" fill="rgb(68,69,119)" d="M 797.818 400.02 C 819.56 400.35 842.082 400.075 863.879 400.078 L 863.877 438.946 L 797.905 438.953 C 798.07 426.127 797.861 412.88 797.818 400.02 z"/>
<path transform="translate(0,0)" fill="rgb(68,69,119)" d="M 456.031 440.429 C 476.997 441.076 501.37 440.506 522.591 440.512 C 522.569 447.79 522.006 471.979 522.76 477.927 C 519.169 479.939 464.651 478.98 456.071 478.941 L 456.031 440.429 z"/>
<path transform="translate(0,0)" fill="rgb(68,69,119)" d="M 387.381 440.346 C 404.546 441.106 437.114 441.077 454.139 440.17 C 454.23 453.097 454.198 466.024 454.043 478.951 L 387.132 478.929 C 387.484 466.252 387.12 453.171 387.381 440.346 z"/>
<path transform="translate(0,0)" fill="rgb(68,69,119)" d="M 387.063 601.474 C 409.397 601.773 431.734 601.827 454.07 601.638 C 454.166 607.805 455.38 636.826 452.844 639.954 L 386.997 640.012 C 387.821 628.084 387.245 613.572 387.063 601.474 z"/>
<path transform="translate(0,0)" fill="rgb(68,69,119)" d="M 661.062 360.141 L 727.49 360.194 L 727.499 398.269 C 711.379 399.479 678.554 398.502 661.03 398.505 L 661.062 360.141 z"/>
<path transform="translate(0,0)" fill="rgb(68,69,119)" d="M 661.005 520.979 L 727.49 521.026 C 727.596 533.85 727.591 546.675 727.477 559.5 C 710.224 559.475 676.909 558.571 661.047 559.982 L 661.005 520.979 z"/>
<path transform="translate(0,0)" fill="rgb(68,69,119)" d="M 524.122 602 C 543.32 600.941 571.279 601.689 590.989 601.648 L 590.975 639.974 C 582.282 640.023 528.25 640.994 524.167 638.993 C 524.401 626.663 524.386 614.329 524.122 602 z"/>
<path transform="translate(0,0)" fill="rgb(68,69,119)" d="M 661.029 601.575 C 681.659 602.096 706.943 602.066 727.499 601.426 L 727.49 639.867 C 706.639 640.553 682.131 639.998 661.046 639.991 L 661.029 601.575 z"/>
<path transform="translate(0,0)" fill="rgb(68,69,119)" d="M 319.49 561.042 L 385.427 561.071 C 386.161 572.649 385.819 587.99 385.854 599.887 C 364.299 600.342 341.169 599.95 319.49 599.976 L 319.49 561.042 z"/>
<path transform="translate(0,0)" fill="rgb(68,69,119)" d="M 319.498 360.151 L 385.845 360.186 L 385.841 398.442 L 319.501 398.445 L 319.498 360.151 z"/>
<path transform="translate(0,0)" fill="rgb(68,69,119)" d="M 729.012 682.049 L 795.964 682.009 L 795.956 719.969 L 729.056 719.973 L 729.012 682.049 z"/>
<path transform="translate(0,0)" fill="rgb(68,69,119)" d="M 386.995 481.995 C 392.831 479.858 443.714 481.098 454.112 480.959 L 454.166 519.134 C 444.769 519.21 392.515 520.499 386.979 518.106 C 388.013 512.688 387.515 488.059 386.995 481.995 z"/>
<path transform="translate(0,0)" fill="rgb(68,69,119)" d="M 524.079 360.964 C 530.566 359.247 580.527 360.22 590.96 360.198 L 591.005 398.347 C 582.343 398.411 528.655 399.628 524.076 397.324 C 524.894 386.818 524.316 371.708 524.079 360.964 z"/>
<path transform="translate(0,0)" fill="rgb(68,69,119)" d="M 592.931 520.97 L 659.116 521.032 L 659.06 559.5 C 638.514 559.468 613.12 558.748 592.975 559.785 L 592.931 520.97 z"/>
<path transform="translate(0,0)" fill="rgb(68,69,119)" d="M 320.045 642.019 L 385.828 642.007 L 385.835 680.321 C 364.06 680.661 341.336 680.342 319.49 680.342 C 319.45 669.39 318.971 652.355 320.045 642.019 z"/>
<path transform="translate(0,0)" fill="rgb(68,69,119)" d="M 319.49 521.018 L 385.785 521.049 C 385.81 532.67 386.313 548.221 385.587 559.511 C 365.019 559.483 339.685 558.765 319.49 559.841 L 319.49 521.018 z"/>
<path transform="translate(0,0)" fill="rgb(68,69,119)" d="M 661.048 440.269 C 681.984 441.136 706.303 440.537 727.499 440.51 L 727.49 478.951 L 661.041 478.951 L 661.048 440.269 z"/>
<path transform="translate(0,0)" fill="rgb(68,69,119)" d="M 386.961 360.15 L 454.202 360.202 C 454.364 372.936 454.283 385.673 453.96 398.404 L 387.152 398.524 C 387.356 386.025 387.9 372.544 386.961 360.15 z"/>
<path transform="translate(0,0)" fill="rgb(68,69,119)" d="M 456.051 480.959 C 466.396 481.113 517.206 479.889 522.989 481.92 C 522.69 488.631 521.943 511.966 522.865 518.066 C 518.7 520.175 465.431 519.212 456.02 519.196 L 456.051 480.959 z"/>
<path transform="translate(0,0)" fill="rgb(68,69,119)" d="M 592.884 480.906 L 659.086 480.959 L 659.179 519.137 L 592.972 519.185 L 592.884 480.906 z"/>
<path transform="translate(0,0)" fill="rgb(68,69,119)" d="M 797.816 641.996 L 863.883 642.031 L 863.919 680.321 C 843.818 681.096 818.43 680.392 797.936 680.378 L 797.816 641.996 z"/>
<path transform="translate(0,0)" fill="rgb(68,69,119)" d="M 797.858 521.013 L 863.874 521.052 L 863.852 559.891 C 854.735 558.72 808.177 559.349 797.956 559.82 L 797.858 521.013 z"/>
<path transform="translate(0,0)" fill="rgb(68,69,119)" d="M 319.5 601.487 C 341.312 602.028 364.021 601.708 385.895 601.583 L 385.793 639.98 L 319.49 639.957 L 319.5 601.487 z"/>
<path transform="translate(0,0)" fill="rgb(68,69,119)" d="M 592.969 440.5 C 614.116 440.523 638.217 441.113 659.136 440.209 L 659.107 478.958 L 593 478.952 L 592.969 440.5 z"/>
<path transform="translate(0,0)" fill="rgb(68,69,119)" d="M 661.03 480.899 C 682.782 481.286 705.665 480.959 727.49 480.948 L 727.49 519.097 C 705.691 519.481 682.88 519.177 661.005 519.197 L 661.03 480.899 z"/>
<path transform="translate(0,0)" fill="rgb(68,69,119)" d="M 797.874 360.154 L 863.893 360.174 L 863.861 398.394 L 797.903 398.512 L 797.874 360.154 z"/>
<path transform="translate(0,0)" fill="rgb(68,69,119)" d="M 592.909 641.984 L 659.152 642.034 C 658.932 654.581 659.122 667.67 659.127 680.262 C 638.887 681.062 613.57 680.413 592.973 680.424 L 592.909 641.984 z"/>
<path transform="translate(0,0)" fill="rgb(68,69,119)" d="M 592.922 360.147 L 659.038 360.194 L 659.138 398.318 C 637.092 398.507 615.045 398.574 592.998 398.517 L 592.922 360.147 z"/>
<path transform="translate(0,0)" fill="rgb(68,69,119)" d="M 386.927 641.986 L 454.082 642.051 C 454.217 649.285 455.052 674.012 453.444 679.576 L 451.25 680.392 L 387.6 680.445 C 386.945 667.53 388.095 654.965 386.927 641.986 z"/>
<path transform="translate(0,0)" fill="rgb(68,69,119)" d="M 797.776 440.236 C 812.095 441.656 848.195 440.539 863.905 440.51 L 863.876 479.022 L 797.966 478.958 C 798.004 466.05 797.941 453.143 797.776 440.236 z"/>
<path transform="translate(0,0)" fill="rgb(68,69,119)" d="M 319.585 440.28 C 329.295 441.101 376.731 440.893 385.81 440.049 L 385.783 478.87 C 364.67 479.459 340.817 478.943 319.5 478.947 L 319.585 440.28 z"/>
<path transform="translate(0,0)" fill="rgb(68,69,119)" d="M 592.911 601.659 L 659.124 601.745 C 658.869 614.199 659.116 627.47 659.139 639.988 L 592.996 640.028 L 592.911 601.659 z"/>
<path transform="translate(0,0)" fill="rgb(68,69,119)" d="M 797.843 480.945 L 863.888 480.964 L 863.89 519.07 C 842.696 519.622 819.262 519.181 797.901 519.193 L 797.843 480.945 z"/>
<path transform="translate(0,0)" fill="rgb(68,69,119)" d="M 797.782 601.689 L 863.904 601.586 L 863.902 639.927 L 797.97 640.011 C 797.971 627.237 797.909 614.463 797.782 601.689 z"/>
<path transform="translate(0,0)" fill="rgb(68,69,119)" d="M 592.908 682.017 L 659.112 682.018 L 659.14 719.989 L 593.008 719.97 L 592.908 682.017 z"/>
<path transform="translate(0,0)" fill="rgb(68,69,119)" d="M 387.032 682.01 L 454.071 682.054 C 454.209 690.881 454.862 711.953 453.833 719.96 L 386.907 720.007 C 387.758 707.186 387.298 694.856 387.032 682.01 z"/>
<path transform="translate(0,0)" fill="rgb(68,69,119)" d="M 661.017 682.038 L 727.49 682.018 C 727.393 694.676 727.458 707.334 727.687 719.99 L 661.062 719.977 L 661.017 682.038 z"/>
<path transform="translate(0,0)" fill="rgb(68,69,119)" d="M 319.49 682.04 L 385.807 682.022 C 385.836 694.656 385.783 707.289 385.649 719.922 C 364.757 720.537 340.624 719.959 319.49 719.943 L 319.49 682.04 z"/>
<path transform="translate(0,0)" fill="rgb(104,103,161)" d="M 522.953 399.895 L 523.379 398.454 L 523.92 399.766 C 524.482 407.772 523.699 434.333 524.923 438.928 L 525.034 440.231 C 523.393 445.962 524.481 470.282 524.13 477.975 L 522.76 477.927 C 522.006 471.979 522.569 447.79 522.591 440.512 L 522.719 439.16 C 522.191 430.244 522.188 408.627 522.953 399.895 z"/>
<path transform="translate(0,0)" fill="rgb(104,103,161)" d="M 524.086 521.989 C 524.148 528.614 523.726 555.817 524.982 559.773 L 524.866 561 C 523.589 566.581 524.163 592.507 524.206 599.785 L 522.73 599.653 C 522.413 587.617 523.481 572.75 522.084 560.995 L 522.01 559.76 C 523.623 553.77 522.261 530.744 522.809 522.091 L 524.086 521.989 z"/>
<path transform="translate(0,0)" fill="rgb(254,254,254)" d="M 951.582 334.249 C 965.729 308.048 945.583 266.273 993.898 253.846 C 1037.88 242.532 1150.3 234.954 1169.73 292.129 C 1178.15 327.282 1178.08 391.609 1178.03 430.133 L 1193.22 430.144 C 1200.39 393.464 1212.08 401.411 1236.36 384.244 C 1244.29 385.295 1252.04 387.191 1256.38 394.421 C 1273.05 422.163 1260.59 467.359 1234.84 485.786 C 1225.39 492.547 1215.5 492.425 1205.33 491.775 C 1204.19 526.967 1205.78 552.062 1215.47 586.602 C 1193.39 601.65 1171.43 616.863 1149.58 632.238 C 1108.71 660.683 1074.53 691.481 1036.74 633.277 C 1034.07 629.168 1029.49 621.841 1026.41 617.959 L 1025.89 617.492 C 1024.58 613.779 1024.83 600.389 1024.78 595.634 C 957.179 571.641 956.53 526.764 953.393 463.4 C 951.675 430.444 950.846 397.448 950.906 364.448 C 950.895 358.622 950.43 338.791 951.582 334.249 z"/>
<path transform="translate(0,0)" fill="rgb(0,0,0)" d="M 1065.38 478.537 C 1071.13 478.295 1089.77 476.312 1093.28 479.857 C 1096.6 501.275 1064.84 504.419 1049.9 501.847 C 1043.18 499.728 1020.98 489.83 1024.3 480.859 C 1029.55 477.394 1056.36 478.659 1065.38 478.537 z"/>
<path transform="translate(0,0)" fill="rgb(0,0,0)" d="M 1090.89 376.994 C 1113.77 375.212 1115.61 405.003 1099.41 415.676 C 1077.86 417.862 1075.26 389.429 1090.89 376.994 z"/>
<path transform="translate(0,0)" fill="rgb(0,0,0)" d="M 995.043 377.015 C 1017.66 375.051 1019.88 404.874 1003.42 415.716 C 981.835 417.606 979.381 389.147 995.043 377.015 z"/>
<path transform="translate(0,0)" fill="rgb(0,0,0)" d="M 1172.1 556.54 C 1173.15 556.89 1173.97 557.534 1174.96 558.154 L 1175.15 560.176 C 1170.18 568.915 1149.55 582.291 1140.64 587.206 C 1105.71 606.466 1068.47 610.801 1030.32 600.117 L 1028.38 599.219 C 1026.89 596.414 1026.98 597.793 1027.83 594.976 C 1030.56 594.008 1042.53 597.721 1047.43 598.528 C 1054.06 599.614 1060.76 600.178 1067.47 600.215 C 1109.22 600.578 1142.5 585.394 1172.1 556.54 z"/>
<path transform="translate(0,0)" fill="rgb(0,0,0)" d="M 1083.09 342.247 C 1088.06 341.697 1093.06 341.609 1098.05 341.982 C 1117.78 343.371 1130.72 352.345 1143.27 366.735 L 1130.55 360.239 C 1101.87 348.186 1090.05 362.021 1073.61 355.601 C 1071.26 353.092 1071.75 354.503 1071.74 351.362 C 1074.8 345.497 1076.86 344.737 1083.09 342.247 z"/>
<path transform="translate(0,0)" fill="rgb(0,0,0)" d="M 997.994 341.183 C 1006.47 340.44 1023.67 340.956 1027.77 350.026 L 1026.52 352.366 C 1015.46 359.747 1004.46 351.305 986.009 354.134 C 976.314 356.279 969.815 360.216 961.25 365.067 C 972.189 350.971 980.436 345.141 997.994 341.183 z"/>
<path transform="translate(0,0)" fill="rgb(0,0,0)" d="M 1040.13 384.249 C 1040.84 384.581 1043.16 386.124 1043.16 386.26 C 1043.76 402.109 1023.6 432.615 1030.02 447.121 C 1034.39 457.019 1050.24 453.986 1056.93 456.198 L 1057.76 457.887 L 1056.75 460.564 C 1014.68 461.41 1020.16 440.795 1031.24 410.013 C 1034.32 401.455 1036.19 392.673 1040.13 384.249 z"/>
<path transform="translate(0,0)" fill="rgb(0,0,0)" d="M 1238.55 399.615 C 1240.86 401.014 1239.86 400.157 1241.25 402.556 C 1239.53 408.364 1215.15 434.302 1209.44 440.674 C 1212.63 450.437 1215.36 459.326 1206.3 466.946 L 1204.6 463.752 C 1207.42 452.286 1207.83 449.773 1202.36 440.487 C 1214.56 426.964 1226.08 413.029 1238.55 399.615 z"/>
<path transform="translate(0,0)" fill="rgb(0,0,0)" d="M 1046.98 521.075 C 1052.3 520.747 1063.88 519.376 1068.57 521.805 C 1069.93 522.506 1069.67 523.74 1070.09 525.81 C 1064.64 526.1 1053.69 527.28 1048.75 525.133 C 1047.26 524.485 1047.53 523.313 1046.98 521.075 z"/>
<path transform="translate(0,0)" fill="rgb(0,0,0)" d="M 524.759 681.834 C 532.263 676.976 536.745 676.035 544.455 681.281 C 549.573 691.487 552.393 710.261 554.102 721.978 C 563.077 754.943 568.274 768.468 587.585 796.571 C 602.179 817.809 616.608 848.052 617.874 873.533 C 621.084 911.563 596 937.185 597.28 973.111 C 597.361 975.377 597.388 977.412 599.028 978.778 C 602.369 976.702 602.893 975.451 605.766 975.978 C 608.099 979.718 613.766 999.99 616.71 1006.57 L 613.052 1013.33 C 609.444 1003.34 605.985 993.298 602.677 983.204 C 573.821 1009.05 534.569 1028.87 495.518 1031.29 C 494.739 1038.77 496.536 1056.77 493.865 1061.77 L 490.709 1061.87 C 489.483 1055.56 489.813 1035.47 490.149 1028.08 C 490.194 1027.11 491.808 1027.99 493.12 1024.79 C 483.438 997.709 464.268 979.644 444.474 960.481 C 416.584 933.481 416.567 888.996 413.882 853.049 C 412.809 839.637 404.624 812.652 421.462 805.189 C 450.556 792.293 498.442 799.556 527.691 806.27 C 518.277 766.366 485.308 715.498 523.814 682.059 L 524.759 681.834 z"/>
<path transform="translate(0,0)" fill="rgb(254,254,254)" d="M 534.641 682.729 C 539.081 683.676 541.627 685.829 542.614 690.257 C 546.886 709.428 549.136 728.503 556.005 747.126 C 558.836 754.65 562.113 766.391 566.418 773.116 C 596.954 820.819 629.246 865.5 603.042 923.91 C 593.587 944.986 590.089 961.313 593.185 984.807 C 562.328 1008.5 538.584 1019.28 500.148 1025.47 C 485.384 995.643 473.67 979.473 447.828 956.156 C 416.812 928.17 422.156 864.244 416.482 825.874 C 413.133 803.226 453.082 803.032 468.015 803.596 C 485.785 804.266 516.363 805.432 532.323 815.458 C 533.901 816.442 536.66 824.143 535.692 826.015 C 527.394 843.981 496.569 835.036 482.096 836.232 C 472.736 837.005 438.808 835.746 433.124 839.863 L 434.088 841.314 C 438.454 843.821 440.077 843.327 445.142 842.99 L 446.846 842.868 C 469.51 840.347 498.974 840.157 521.263 844.26 C 534.644 846.723 535.671 869.973 519.732 872.403 C 505.702 874.542 442.052 868.481 434.197 876.642 L 434.623 878.448 C 438.331 880.348 456.864 878.324 462.427 878.101 C 480.792 877.393 499.181 877.663 517.517 878.91 C 522.564 883.511 528.667 890.285 530.039 897.231 C 530.614 900.142 530.03 903.069 528.218 905.446 C 518.154 918.649 454.737 908.572 436.654 912.414 L 435.579 914.463 L 436.167 916.317 C 446.867 921.306 515.918 910.874 521.043 922.163 C 536.643 956.53 457.15 936.606 447.739 942.055 L 447.537 944.339 L 449.125 945.666 C 468.022 949.147 548.163 957.156 525.081 917.447 L 524.363 916.235 C 541.639 906.009 535.143 889.522 524.008 877.092 C 539.843 867.604 541.866 853.802 528.55 840.868 C 543.703 830.1 544.615 823.963 535.021 810.563 C 533.232 808.063 529.314 791.714 527.838 787.429 C 517.094 756.228 492.801 701.952 534.641 682.729 z"/>
<path transform="translate(0,0)" fill="rgb(0,0,0)" d="M 530.587 913.73 C 547.889 918.114 565.544 955.176 558.601 971.391 C 553.638 969.107 555.133 964.406 553.8 958.13 C 551.412 943.908 548.144 934.933 537.429 924.869 C 533.33 921.019 528.751 919.227 530.587 913.73 z"/>
<path transform="translate(0,0)" fill="rgb(0,0,0)" d="M 947.96 197.713 C 947.895 183.951 950.601 170.925 961.469 161.186 C 1002.33 124.564 1066.03 145.859 1107.04 171.118 C 1117.47 177.54 1127.02 185.532 1138.55 189.918 C 1175.42 200.684 1210.63 195.741 1240.22 226.112 C 1261.95 248.415 1262.22 278.235 1262.24 307.917 C 1262.1 334.508 1255.36 364.368 1236.36 384.244 C 1212.08 401.411 1200.39 393.464 1193.22 430.144 L 1178.03 430.133 C 1178.08 391.609 1178.15 327.282 1169.73 292.129 C 1150.3 234.954 1037.88 242.532 993.898 253.846 C 945.583 266.273 965.729 308.048 951.582 334.249 C 914.653 311.386 922.373 303.038 922.262 264.117 C 922.178 234.603 909.568 210.166 947.96 197.713 z"/>
<path transform="translate(0,0)" fill="rgb(202,201,253)" d="M 1021.93 197.421 C 1025.71 198.836 1041.91 219.537 1047.96 224.945 C 1058.83 234.656 1072.03 237.426 1082.1 244.975 C 1064.52 246.93 1028.31 213.605 1021.93 197.421 z"/>
<path transform="translate(0,0)" fill="rgb(202,201,253)" d="M 959.531 211.717 C 964.263 212.839 976.762 231.284 988.384 237.101 C 1002.03 243.932 1018.42 241.209 1026.05 245.624 C 1003.78 250.799 967.486 233.873 959.531 211.717 z"/>
<path transform="translate(0,0)" fill="rgb(202,201,253)" d="M 935.923 245.952 C 941.319 246.716 956.505 259.84 966.36 258.792 C 969.746 258.432 972.936 259.226 975.429 261.815 C 964.44 262.891 940.496 256.928 935.923 245.952 z"/>
<path transform="translate(0,0)" fill="rgb(134,134,227)" d="M 1718.95 410.841 C 1639.91 372.93 1571.23 316.457 1518.75 246.244 C 1511.34 236.266 1477.04 189.277 1479.6 179.129 C 1480.3 176.358 1481.16 175.198 1483.46 173.599 C 1485.23 173.212 1488.8 173.002 1489.71 174.08 C 1495.08 180.431 1500.82 190.741 1505.01 197.579 C 1516.5 216.612 1529.26 234.852 1543.2 252.176 C 1593.69 315.171 1652.75 360.379 1724.62 396.17 C 1751.92 345.556 1791.56 353.143 1839.04 368.776 C 1862.32 376.443 1893.97 396.754 1881.69 425.574 C 1877.78 434.892 1870.29 442.247 1860.9 445.989 C 1829.69 458.65 1764.37 430.058 1733.51 417.67 C 1726.17 443.192 1724.55 477.92 1728.14 504.093 C 1747.25 643.336 1852.92 734.533 1956.21 815.142 C 1961.65 819.761 1967.02 823.77 1972.68 828.097 C 1978.61 832.63 1981.93 836.003 1977.44 843.074 C 1968.16 847.948 1955.36 834.197 1948 828.113 C 1942.36 825.053 1917.78 804.753 1911.16 799.368 C 1853.29 752.261 1796.96 700.462 1758.76 635.549 C 1718.21 566.628 1698.73 490.036 1718.95 410.841 z"/>
<path transform="translate(0,0)" fill="rgb(68,69,119)" d="M 1777.59 373.2 C 1780.44 373.033 1783.28 372.934 1786.13 372.903 C 1802.87 372.819 1849.88 385.262 1860.58 398.388 C 1881.49 424.034 1856.67 436.485 1831.08 432.932 C 1805.63 428.631 1762.1 413.214 1738.68 402.506 C 1749.08 384.391 1756.53 377.155 1777.59 373.2 z"/>
<path transform="translate(0,0)" fill="rgb(225,226,134)" d="M 617.01 1569.47 L 619.075 1570 C 618.735 1595.07 630.306 1626.89 642.289 1648.6 C 661.528 1683.45 689.45 1708.34 723.5 1728.13 C 698.618 1742.54 681.403 1755.78 662.458 1778.05 C 658.227 1782.5 651.335 1793.25 648.094 1798.51 C 629.191 1829.15 622.987 1852.82 618.193 1887.9 C 615.611 1876.3 614.552 1863.25 611.381 1851.55 C 595.806 1794.06 561.996 1757.75 512.681 1728.06 C 520.351 1723.18 528.055 1718.35 535.792 1713.57 C 577.498 1681.43 606.365 1641.08 615.285 1588.27 C 616.375 1581.82 617.098 1576.01 617.01 1569.47 z"/>
<path transform="translate(0,0)" fill="rgb(0,0,0)" d="M 268.023 1280.05 L 186.337 1264.5 C 169.655 1261.33 132.627 1257.51 122.758 1243.15 C 119.437 1238.26 118.339 1232.19 119.735 1226.44 C 130.041 1185.72 288.28 1183.28 298.185 1197.95 C 298.057 1201.51 297.781 1201.48 295.855 1204.36 C 281.847 1206.67 264.771 1202.74 250.31 1202.43 C 227.832 1201.96 147.531 1206.61 134.268 1224.45 C 132.064 1227.42 131.872 1229.91 131.92 1233.51 C 136.843 1245.26 166.273 1248.05 178.295 1250.34 L 263.027 1266.5 C 276.001 1268.97 289.269 1271.1 302.061 1274.24 C 306.708 1275.39 309.367 1277.44 308.322 1282.2 C 296.727 1294.01 203.422 1298.11 180.427 1308.15 C 174.993 1310.52 169.462 1313.85 169.38 1320.37 C 171.507 1326.39 176.533 1330.23 182.113 1333.07 C 209.139 1346.83 302.225 1343.56 312.559 1373.45 C 314.951 1380.37 313.032 1388.23 309.817 1394.55 C 303.018 1407.92 289.838 1417.8 279.05 1427.86 C 262.278 1443.51 246.474 1461.17 236.508 1482.07 C 227.979 1502.31 221.801 1521.37 224.641 1543.8 C 233.41 1613.07 345.083 1667.17 405.784 1684.36 C 419.31 1688.19 433.034 1691.29 446.894 1693.65 C 454.366 1694.87 479.45 1695.08 478.045 1705.12 C 472.416 1712.86 459.64 1708.77 450.953 1707.35 C 407.199 1700.67 364.869 1686.73 325.705 1666.11 C 249.221 1625.69 178.072 1565.85 227.38 1472.82 C 235.276 1458.94 242.006 1449.06 252.623 1436.92 C 258.145 1430.56 263.99 1424.48 270.133 1418.72 C 279.168 1410.4 303.959 1393.31 300.789 1379.41 C 299.756 1374.89 297.255 1372.37 293.322 1370.09 C 264.782 1353.55 168.143 1360.61 158.866 1325.18 C 157.288 1319.18 158.255 1312.79 161.538 1307.52 C 166.945 1298.89 179.433 1294.28 189.034 1292.8 C 215.018 1288.81 242.105 1283.64 268.023 1280.05 z"/>
<path transform="translate(0,0)" fill="rgb(104,103,161)" d="M 617.01 1569.47 C 616.827 1564.04 617.324 1560.86 618.007 1555.57 C 618.541 1560.08 619.455 1565.57 619.075 1570 L 617.01 1569.47 z"/>
<path transform="translate(0,0)" fill="rgb(254,254,254)" d="M 260.537 786.659 C 269.811 859.23 301.551 909.112 365.831 945.684 C 300.518 983.901 270.689 1030.65 260.46 1104.77 C 258.353 1092.67 257.525 1082.01 254.201 1069.96 C 238.275 1012.23 205.167 975.36 154.978 945.598 C 161.73 942.079 169.404 937.231 175.609 932.891 C 213.771 906.652 241.446 867.784 253.756 823.139 C 257.263 810.055 258.235 799.704 260.537 786.659 z"/>
<path transform="translate(0,0)" fill="rgb(225,226,134)" d="M 610.115 102.107 C 613.501 101.604 617.522 101.019 620.633 102.891 C 627.314 106.912 644.379 169.015 647.952 180.356 C 671.084 188.037 694.987 194.195 717.754 202.766 C 731.431 207.915 730.66 219.077 717.097 223.882 C 694.373 231.932 670.993 238.717 647.923 245.813 L 633.31 293.348 C 630.338 303.019 627.292 318.435 619.347 324.52 C 613.047 325.662 608.132 324.477 605.419 318.085 C 601.69 309.296 599.184 299.909 596.37 290.778 L 582.35 245.797 C 567.573 241.245 512.068 227.553 504.111 216.719 C 502.107 213.991 502.24 212.495 502.778 209.396 C 506.695 204.056 514.229 201.632 520.407 199.703 C 541.066 193.252 561.757 186.899 582.383 180.344 C 587.879 164.191 600.169 111.669 610.115 102.107 z"/>
<path transform="translate(0,0)" fill="rgb(225,226,134)" d="M 1726.17 670.929 C 1735.05 671.16 1738.21 674.6 1741.39 682.775 C 1747.08 697.38 1752.1 712.495 1757.74 727.127 C 1830.35 754.96 1837.22 753.965 1757.66 783.874 C 1751.98 797.638 1742.67 833.2 1732.69 839.689 C 1726.11 840.297 1721.86 838.091 1719.16 832.146 C 1712.17 816.741 1706.71 799.648 1700.82 783.755 C 1625.94 756.537 1623.94 755.14 1700.85 727.127 C 1707.13 711.389 1712.97 690.346 1720.93 675.268 C 1721.52 674.158 1724.95 671.754 1726.17 670.929 z"/>
<path transform="translate(0,0)" fill="rgb(254,254,254)" d="M 155.258 685.716 C 155.873 689.438 156.61 693.14 157.468 696.814 C 164.1 724.393 179.106 741.095 202.693 755.498 C 199.071 757.485 195.58 759.702 192.242 762.136 C 169.422 778.461 159.915 798.402 155.344 825.214 C 154.254 822.721 152.815 813.145 151.889 809.86 C 144.665 784.245 129.438 768.807 107.809 755.45 C 108.866 754.816 109.912 754.166 110.948 753.499 C 139.781 735.109 148.137 717.781 155.258 685.716 z"/>
<path transform="translate(0,0)" fill="rgb(28,29,123)" d="M 1906.3 1614.65 C 1908.24 1621.07 1909.1 1640.67 1911.85 1650.5 C 1928.69 1710.84 1960.16 1746.15 2011.83 1777.45 C 1999.92 1784.1 1988.61 1791.8 1978.06 1800.45 C 1932.2 1838.35 1912.04 1883.34 1906.69 1941.34 C 1904.29 1932.98 1904.12 1913.87 1900.4 1901.01 C 1884.11 1844.75 1851.16 1806.15 1801.11 1777.46 C 1865.04 1739.78 1899.88 1688.91 1906.3 1614.65 z"/>
<path transform="translate(0,0)" fill="rgb(68,69,119)" d="M 1797.88 210.229 C 1812.43 197.855 1822.41 185.741 1823.84 165.968 C 1827.35 117.371 1779.05 107.301 1741.48 104.559 C 1721 103.065 1701.26 106.922 1684.74 119.554 C 1679.76 123.512 1670 139.086 1666.51 141.334 C 1671.52 126.47 1681.37 115.793 1695.9 108.925 C 1729.98 92.8219 1805.78 100.587 1822.86 139.097 C 1835.38 167.328 1822.65 192.688 1801.24 212.162 C 1748.38 247.296 1678.7 224.823 1675.76 156.628 C 1677.97 142.411 1681.12 127.903 1691.72 117.131 L 1692.94 116.96 C 1693.3 123.79 1679.75 134.242 1679.79 157.847 C 1721.08 172.848 1760.05 187.233 1797.88 210.229 z"/>
<path transform="translate(0,0)" fill="rgb(114,116,51)" d="M 1797.88 210.229 C 1812.43 197.855 1822.41 185.741 1823.84 165.968 C 1827.35 117.371 1779.05 107.301 1741.48 104.559 C 1721 103.065 1701.26 106.922 1684.74 119.554 C 1679.76 123.512 1670 139.086 1666.51 141.334 C 1671.52 126.47 1681.37 115.793 1695.9 108.925 C 1729.98 92.8219 1805.78 100.587 1822.86 139.097 C 1835.38 167.328 1822.65 192.688 1801.24 212.162 C 1748.38 247.296 1678.7 224.823 1675.76 156.628 C 1677.97 142.411 1681.12 127.903 1691.72 117.131 L 1692.94 116.96 C 1693.3 123.79 1679.75 134.242 1679.79 157.847 C 1682.17 221.259 1748.35 241.21 1797.88 210.229 z"/>
<path transform="translate(0,0)" fill="rgb(134,134,227)" d="M 325.421 1796.43 C 345.511 1794.5 363.424 1809.07 365.632 1829.13 C 367.841 1849.19 353.525 1867.3 333.497 1869.79 C 320.289 1871.43 307.22 1865.84 299.294 1855.15 C 291.368 1844.45 289.812 1830.32 295.223 1818.16 C 300.633 1806 312.172 1797.7 325.421 1796.43 z M 330.489 1863.62 C 347.318 1862.73 360.244 1848.37 359.358 1831.54 C 358.471 1814.71 344.107 1801.79 327.278 1802.68 C 310.456 1803.57 297.539 1817.93 298.425 1834.75 C 299.311 1851.58 313.666 1864.5 330.489 1863.62 z"/>
<path transform="translate(0,0)" fill="rgb(28,29,123)" d="M 1729.29 1798.66 L 1730.03 1803 C 1735.12 1834.09 1749 1850.22 1774.55 1866.98 C 1747.62 1883.97 1733.11 1903.13 1729.59 1935.34 C 1722.38 1902 1714.04 1885 1683.47 1866.99 C 1686.69 1865.06 1689.84 1863.01 1692.92 1860.86 C 1715.92 1844.83 1724.55 1825.26 1729.29 1798.66 z"/>
<path transform="translate(0,0)" fill="rgb(113,112,174)" fill-opacity="0.890196" d="M 122.856 35.437 C 141.91 34.0394 158.524 48.2716 160.069 67.3139 C 161.613 86.3563 147.509 103.08 128.479 104.771 C 109.241 106.48 92.2942 92.188 90.733 72.9371 C 89.1717 53.6862 103.594 36.85 122.856 35.437 z M 133.481 101.828 C 151.007 97.3858 161.59 79.5521 157.094 62.04 C 152.597 44.5279 134.731 33.9991 117.233 38.5492 C 99.8107 43.0797 89.3373 60.8516 93.8143 78.2878 C 98.2913 95.7241 116.031 106.252 133.481 101.828 z"/>
<path transform="translate(0,0)" fill="rgb(114,116,51)" d="M 181.698 192.381 C 202.564 189.246 229.729 200.017 220.637 226.645 C 215.921 240.455 197.757 248.597 184.698 253.643 C 134.618 262.4 133.445 215.615 169.585 195.297 C 174.948 192.282 175.479 192.795 181.698 192.381 z M 182.752 250.539 C 231.451 234.727 229.926 192.661 184.127 195.227 C 138.167 205.988 134.29 259.667 182.752 250.539 z"/>
<path transform="translate(0,0)" fill="rgb(114,116,51)" d="M 117.126 1672.75 L 118.78 1672.95 C 120.554 1676.25 111.33 1680.9 108.272 1683.08 C 80.3787 1702.95 53.2144 1725.55 44.8871 1760.44 C 38.0441 1789.11 51.1978 1822.46 82.2649 1829.2 C 102.138 1833.36 120.294 1822.18 135.934 1811.72 C 131.268 1798.55 127.97 1776.3 139.268 1767.01 C 160.143 1749.85 180.08 1774.5 161.874 1794.42 C 155.193 1801.72 147.814 1806.92 140.273 1812.89 C 154.393 1839.17 176.849 1851.59 206.587 1849.26 C 189.462 1877.32 186.278 1899.51 204.838 1928.15 C 218.142 1943.58 232.154 1951.29 252.498 1952.22 C 254.996 1952.33 260.185 1952.69 262.117 1953.92 L 261.251 1955.46 C 222.032 1961.52 183.274 1923.22 189.148 1884.06 C 191.113 1870.96 193.459 1865.1 199.496 1853.25 C 193.924 1853.28 188.369 1852.63 182.957 1851.31 C 161.026 1846.09 148.618 1833.44 137.206 1814.94 C 121.586 1826.05 102.211 1836.2 82.5795 1832.77 C 49.0555 1826.9 33.8232 1791.71 40.5697 1761.11 C 49.6085 1720.12 84.047 1694.27 117.126 1672.75 z M 144.229 1805.23 C 153.727 1797.75 163.209 1790.54 165.451 1777.69 C 167.019 1768.69 159.138 1764.27 151.294 1764.13 C 133.258 1769.14 130.211 1795.4 139.173 1807.62 C 141.934 1807.81 141.352 1807.45 144.229 1805.23 z"/>
<path transform="translate(0,0)" fill="rgb(142,139,160)" fill-opacity="0.921569" d="M 1953.86 941.82 L 1954.09 943.266 C 1953.85 960.735 1953.23 987.74 1954.23 1004.79 L 1954.19 1005.52 C 1953.66 1023.9 1953.49 1049.01 1954.27 1067.33 L 1954.18 1068.34 C 1953.97 1078.85 1953.88 1088.16 1954.23 1098.7 L 1954.18 1099.51 C 1953.34 1135.02 1954.25 1170.8 1953.98 1206.34 C 1953.94 1211.66 1953.88 1217.51 1954.4 1222.78 L 1953.76 1224.43 L 1952.87 1223.03 C 1953.96 1183.62 1953.13 1138.63 1952.89 1098.89 C 1936.42 1099.32 1919.93 1099.27 1903.45 1098.73 C 1910.66 1097.27 1937.39 1097.83 1946.11 1097.86 C 1948.23 1097.98 1950.23 1097.95 1952.35 1097.95 C 1953.51 1093.11 1953.02 1059.98 1953.02 1052.61 L 1952.98 942.77 L 1953.2 942.073 L 1953.86 941.82 z"/>
<path transform="translate(0,0)" fill="rgb(166,162,187)" fill-opacity="0.960784" d="M 1855.99 1223.2 C 1883.38 1222.84 1917.38 1222.13 1944.57 1223.14 C 1940 1224.02 1937.11 1224.5 1932.49 1224.87 C 1917.35 1225.08 1901.7 1224.85 1886.51 1224.83 C 1878.8 1223.98 1864.52 1223.77 1855.99 1223.2 z"/>
<path transform="translate(0,0)" fill="rgb(154,147,170)" fill-opacity="0.243137" d="M 1954.18 1099.51 C 1955.61 1106.04 1955.84 1216.17 1954.4 1222.78 C 1953.88 1217.51 1953.94 1211.66 1953.98 1206.34 C 1954.25 1170.8 1953.34 1135.02 1954.18 1099.51 z"/>
<path transform="translate(0,0)" fill="rgb(176,172,193)" fill-opacity="0.14902" d="M 1903.45 1098.73 C 1900.9 1099.63 1901.01 1118.89 1900.28 1123.37 L 1899.74 1123.08 C 1899.43 1118.06 1898.46 1101.94 1899.91 1098.01 C 1907.83 1096.49 1938.21 1096.18 1946.11 1097.86 C 1937.39 1097.83 1910.66 1097.27 1903.45 1098.73 z"/>
<path transform="translate(0,0)" fill="rgb(104,103,161)" fill-opacity="0.745098" d="M 1880.26 942.062 L 1879.9 941.237 C 1888.78 940.969 1949.69 939.874 1953.86 941.82 L 1953.2 942.073 C 1945.59 942.045 1931.75 941.633 1924.71 942.79 C 1915.8 942.926 1906.61 941.828 1897.87 942.838 C 1894.76 941.445 1884.12 941.984 1880.26 942.062 z"/>
<path transform="translate(0,0)" fill="rgb(142,139,160)" fill-opacity="0.454902" d="M 1899.97 975.95 L 1900.97 980.281 C 1901.55 988.142 1903.12 1025.26 1899.68 1029.99 C 1899.7 1020.56 1899.83 1011.15 1899.37 1001.74 C 1899.82 993.317 1898.8 984.647 1899.97 975.95 z"/>
<path transform="translate(0,0)" fill="rgb(142,139,160)" fill-opacity="0.913725" d="M 1845.33 1191.87 C 1854.22 1192.02 1878.23 1191.3 1885.24 1192.51 C 1878.52 1193.85 1810.62 1193.42 1807.74 1192.02 C 1820.27 1192.13 1832.8 1192.08 1845.33 1191.87 z"/>
<path transform="translate(0,0)" fill="rgb(166,162,187)" fill-opacity="0.121569" d="M 1898.71 1066.03 C 1903.47 1069.31 1901.54 1089.27 1901.43 1095.63 C 1897.29 1092.58 1899.21 1073.56 1898.79 1067.06 L 1898.71 1066.03 z"/>
<path transform="translate(0,0)" fill="rgb(142,139,160)" fill-opacity="0.737255" d="M 1846.76 1160.18 L 1847.56 1160.14 C 1858.92 1162.8 1880.22 1159.34 1889.44 1161.71 C 1875.72 1163.05 1842.35 1161.96 1827.39 1161.87 L 1827.11 1160.96 C 1833.33 1161.17 1840.69 1161.31 1846.76 1160.18 z"/>
<path transform="translate(0,0)" fill="rgb(142,139,160)" fill-opacity="0.0196078" d="M 1936.28 1034.84 C 1937.26 1034.68 1938.26 1034.53 1939.25 1034.4 C 1942.95 1033.91 1947.77 1033.31 1950.72 1035.57 C 1945.13 1037.17 1940.73 1034.32 1934.99 1037.16 C 1932.26 1037.18 1925.42 1037.59 1923.63 1035.63 C 1927.81 1034.1 1931.74 1034.68 1936.28 1034.84 z"/>
<path transform="translate(0,0)" fill="rgb(154,147,170)" fill-opacity="0.223529" d="M 1954.19 1005.52 C 1955.64 1012.9 1955.49 1060.66 1954.27 1067.33 C 1953.49 1049.01 1953.66 1023.9 1954.19 1005.52 z"/>
<path transform="translate(0,0)" fill="rgb(154,147,170)" fill-opacity="0.227451" d="M 1954.09 943.266 C 1955.61 950.449 1955.63 998.654 1954.23 1004.79 C 1953.23 987.74 1953.85 960.735 1954.09 943.266 z"/>
<path transform="translate(0,0)" fill="rgb(142,139,160)" fill-opacity="0.717647" d="M 1886.51 1224.83 C 1878.9 1225.2 1846.38 1225.8 1840 1224.33 C 1842.98 1222.41 1852.14 1223.03 1855.99 1223.2 C 1864.52 1223.77 1878.8 1223.98 1886.51 1224.83 z"/>
<path transform="translate(0,0)" fill="rgb(176,172,193)" fill-opacity="0.0117647" d="M 1874.52 1128.53 C 1877.32 1127.66 1877.93 1127.99 1880.83 1128.39 L 1881.43 1129.95 L 1870.75 1130.8 L 1869.25 1130.95 C 1866.62 1131.13 1858.97 1131.9 1857.17 1130.15 C 1863.88 1128.32 1867.75 1129.08 1874.52 1128.53 z"/>
<path transform="translate(0,0)" fill="rgb(48,48,85)" fill-opacity="0.0666667" d="M 1845.77 1034.12 C 1847.05 1035 1846.89 1035 1847.92 1036.21 C 1848.53 1045.64 1848.71 1057.12 1847.48 1066.46 C 1844.49 1056.09 1848.18 1044.06 1845.77 1034.12 z"/>
<path transform="translate(0,0)" fill="rgb(176,172,193)" fill-opacity="0.0196078" d="M 1923.82 972.437 C 1930.86 972.314 1938.08 971.977 1945.1 971.938 C 1948.94 971.917 1949.47 972.955 1951.52 975.142 C 1943.24 971.913 1932.41 975.644 1923.57 973.896 L 1923.82 972.437 z"/>
<path transform="translate(0,0)" fill="rgb(106,104,124)" fill-opacity="0.309804" d="M 1794.25 1160.2 C 1808.32 1159.97 1833.33 1159.16 1846.76 1160.18 C 1840.69 1161.31 1833.33 1161.17 1827.11 1160.96 C 1818.66 1161.11 1801.75 1161.71 1794.25 1160.2 z"/>
<path transform="translate(0,0)" fill="rgb(68,69,119)" fill-opacity="0.027451" d="M 1846.65 1066.33 C 1849.18 1070.08 1848.79 1091.35 1847.01 1093.6 C 1845.72 1090.74 1846.42 1070.31 1846.65 1066.33 z"/>
<path transform="translate(0,0)" fill="rgb(104,103,161)" fill-opacity="0.027451" d="M 1806.62 1098.71 L 1805.99 1097.81 L 1807.38 1096.98 C 1819.78 1098.15 1837.28 1095.44 1848.52 1097.49 C 1834.57 1098.66 1820.03 1097.16 1806.62 1098.71 z"/>
<path transform="translate(0,0)" fill="rgb(166,162,187)" fill-opacity="0.278431" d="M 1847.56 1160.14 C 1855.36 1159.99 1885.81 1159.05 1891.14 1161.52 L 1889.44 1161.71 C 1880.22 1159.34 1858.92 1162.8 1847.56 1160.14 z"/>
<path transform="translate(0,0)" fill="rgb(176,172,193)" fill-opacity="0.298039" d="M 1906.66 1161.02 C 1912.18 1159.14 1942.52 1159.25 1948.25 1161.2 C 1947.68 1161.37 1947.1 1161.54 1946.53 1161.71 C 1940.07 1160.34 1914.62 1160.97 1906.66 1161.02 z"/>
<path transform="translate(0,0)" fill="rgb(104,103,161)" fill-opacity="0.788235" d="M 1848.52 1097.49 L 1850.1 1097.95 L 1850.03 1099.1 C 1835.56 1099.1 1821.09 1098.97 1806.62 1098.71 C 1820.03 1097.16 1834.57 1098.66 1848.52 1097.49 z"/>
<path transform="translate(0,0)" fill="rgb(104,103,161)" fill-opacity="0.792157" d="M 1827.39 1161.87 C 1822.57 1162.07 1794.05 1162.91 1791.77 1160.91 L 1793.88 1159.38 L 1794.25 1160.2 C 1801.75 1161.71 1818.66 1161.11 1827.11 1160.96 L 1827.39 1161.87 z"/>
<path transform="translate(0,0)" fill="rgb(142,139,160)" fill-opacity="0.0392157" d="M 1930.22 1003.52 C 1935.82 1003.2 1941.71 1003.67 1947.3 1004.15 C 1943.97 1005.05 1941.51 1005.11 1938.1 1005.38 C 1931.51 1005.3 1926.25 1005.08 1919.69 1004.55 C 1922.28 1003.46 1927.16 1003.61 1930.22 1003.52 z"/>
<path transform="translate(0,0)" fill="rgb(176,172,193)" fill-opacity="0.105882" d="M 1850.1 1097.95 C 1859.21 1097 1878.16 1095.81 1886.71 1098 C 1876.8 1097.95 1864.26 1097.54 1854.65 1098.83 C 1853.85 1098.99 1851.01 1099.06 1850.03 1099.1 L 1850.1 1097.95 z"/>
<path transform="translate(0,0)" fill="rgb(166,162,187)" fill-opacity="0.745098" d="M 1906.66 1161.02 C 1914.62 1160.97 1940.07 1160.34 1946.53 1161.71 C 1941.36 1162.19 1909.57 1162.63 1906.66 1161.02 z"/>
<path transform="translate(0,0)" fill="rgb(106,104,124)" fill-opacity="0.0745098" d="M 1807.74 1192.02 C 1814.07 1190.26 1839.39 1190.34 1845.33 1191.87 C 1832.8 1192.08 1820.27 1192.13 1807.74 1192.02 z"/>
<path transform="translate(0,0)" fill="rgb(48,48,85)" fill-opacity="0.0392157" d="M 1847.05 1012.42 L 1847.93 1013.13 C 1848.14 1019.35 1848.74 1027.66 1847.53 1033.49 C 1845.4 1028.7 1845.95 1017.41 1847.05 1012.42 z"/>
<path transform="translate(0,0)" fill="rgb(166,162,187)" fill-opacity="0.898039" d="M 1900.11 1129.4 L 1900.82 1129.94 C 1901.4 1139.06 1900.94 1152.16 1900.86 1161.52 L 1900.16 1161.22 C 1899.44 1153.43 1900.02 1137.72 1900.11 1129.4 z"/>
<path transform="translate(0,0)" fill="rgb(166,162,187)" fill-opacity="0.756863" d="M 1913.91 1193.2 L 1910.25 1192.55 C 1916.01 1191.7 1938.09 1191.52 1943.29 1192.86 L 1913.91 1193.2 z"/>
<path transform="translate(0,0)" fill="rgb(166,162,187)" fill-opacity="0.933333" d="M 1899.85 1039.44 L 1900.34 1035.99 C 1901.82 1038.55 1901.4 1061.27 1900.05 1064.3 L 1899.85 1039.44 z"/>
<path transform="translate(0,0)" fill="rgb(154,147,170)" fill-opacity="0.635294" d="M 1952.87 1223.03 L 1953.76 1224.43 C 1948.17 1225.29 1938.3 1225.2 1932.49 1224.87 C 1937.11 1224.5 1940 1224.02 1944.57 1223.14 C 1945.89 1222.99 1951.27 1223.05 1952.87 1223.03 z"/>
<path transform="translate(0,0)" fill="rgb(154,147,170)" fill-opacity="0.207843" d="M 1954.18 1068.34 C 1955.35 1073.55 1955.73 1093.82 1954.23 1098.7 C 1953.88 1088.16 1953.97 1078.85 1954.18 1068.34 z"/>
<path transform="translate(0,0)" fill="rgb(176,172,193)" fill-opacity="0.831373" d="M 1854.65 1098.83 C 1864.26 1097.54 1876.8 1097.95 1886.71 1098 L 1886.69 1098.72 C 1876.75 1099.42 1864.76 1098.96 1854.65 1098.83 z"/>
<path transform="translate(0,0)" fill="rgb(68,69,119)" fill-opacity="0.898039" d="M 1900.06 949.532 C 1901.81 953.101 1901.04 974.903 1900.97 980.281 L 1899.97 975.95 L 1899.8 975.324 C 1900.22 967.453 1900 957.561 1900.06 949.532 z"/>
<path transform="translate(0,0)" fill="rgb(176,172,193)" fill-opacity="0.290196" d="M 1913.91 1193.2 L 1943.29 1192.86 C 1937.73 1194.91 1920.04 1194.3 1913.91 1193.2 z"/>
<path transform="translate(0,0)" fill="rgb(104,103,161)" fill-opacity="0.121569" d="M 1899.8 975.324 C 1898.32 970.308 1898.5 954.776 1900.06 949.532 C 1900 957.561 1900.22 967.453 1899.8 975.324 z"/>
<path transform="translate(0,0)" fill="rgb(142,139,160)" fill-opacity="0.454902" d="M 1924.71 942.79 C 1931.75 941.633 1945.59 942.045 1953.2 942.073 L 1952.98 942.77 C 1942.99 943.079 1934.66 943.046 1924.71 942.79 z"/>
<path transform="translate(0,0)" fill="rgb(176,172,193)" fill-opacity="0.14902" d="M 1900.05 1064.3 C 1898.08 1059.92 1898.74 1044.4 1899.85 1039.44 L 1900.05 1064.3 z"/>
<path transform="translate(0,0)" fill="rgb(48,48,85)" fill-opacity="0.121569" d="M 1880.26 942.062 C 1884.12 941.984 1894.76 941.445 1897.87 942.838 C 1893.42 943.75 1884.91 942.59 1880.26 942.062 z"/>
<path transform="translate(0,0)" fill="rgb(176,172,193)" fill-opacity="0.141176" d="M 1899.37 1001.74 C 1899.83 1011.15 1899.7 1020.56 1899.68 1029.99 C 1899.11 1019.43 1898.77 1012.41 1899.37 1001.74 z"/>
</svg>