<svg version="1.1" xmlns="http://www.w3.org/2000/svg" style="display: block;" viewBox="0 0 2048 2048" width="2000" height="2000" preserveAspectRatio="none">
<path transform="translate(0,0)" fill="rgb(15,18,19)" d="M 795.382 1323.16 C 805.789 1368.5 820.098 1412.86 838.149 1455.74 C 858.34 1504.58 883.548 1553.73 893.438 1605.51 C 901.531 1647.87 887.509 1679.5 842.054 1684.07 C 755.826 1692.72 657.135 1629.22 592.038 1579.84 C 442.927 1466.75 347.316 1285.44 322.277 1101.56 C 295.742 903.429 339.078 720.757 460.408 561.507 C 510.484 495.032 572.028 438.033 642.142 393.194 C 653.572 385.872 665.324 379.067 677.364 372.798 C 703.043 359.56 712.697 358.32 729.323 333.703 C 738.623 319.932 765.949 293.567 782.531 289.984 C 798.602 286.511 794.408 316.612 793.626 324.931 C 916.567 290.651 1060.27 286.608 1159.99 378.94 C 1166.69 368.281 1183.74 344.167 1196.78 342.326 C 1205.41 344.941 1203.62 355.937 1202.11 363.093 C 1198.62 379.543 1196.13 393.869 1182.99 405.201 C 1218.97 452.788 1240.34 519.752 1233.65 579.227 C 1218.69 712.412 1095.84 808.601 1000.09 886.832 C 999.453 913.648 995.888 938.22 1007.43 963.737 C 1033.69 1021.78 1113.36 1028.44 1167.49 1043.6 C 1165.91 1050.27 1163.57 1059.87 1163.19 1066.6 C 1161.94 1088.93 1163.59 1099.65 1156.26 1121.12 C 1145.84 1126.29 1145.86 1137.3 1145.07 1147.79 C 1143.45 1154.35 1139.19 1179.63 1135.57 1182.62 C 1132.68 1183.08 1129.79 1183.5 1126.89 1183.86 C 1102.44 1184.63 1074.75 1186.37 1051.07 1192.83 C 1040.45 1195.73 1031.65 1201.04 1023.76 1203.54 C 1020.14 1201.25 1013.17 1197.99 1009.08 1195.94 C 990.204 1197.75 980.147 1198.36 961.23 1197.44 C 960.506 1202.32 959.803 1207.85 958.94 1212.66 C 969.341 1218.99 985.961 1228.73 995.122 1236.44 C 1015.08 1253.86 1021.48 1262.84 991.39 1270.59 C 967.556 1273.22 951.278 1271.96 927.819 1268.69 C 924.379 1271.23 918.15 1277.02 914.774 1280.01 C 921.868 1285.2 952.885 1306.42 942.009 1316.26 C 927.952 1328.98 889.025 1324.46 870.342 1323.18 C 860.271 1322.5 847.512 1317.14 836.987 1317.18 C 822.929 1318.42 809.243 1321.48 795.382 1323.16 z M 884.936 997.613 C 872.46 1013.39 862.45 1026.09 851.524 1042.94 C 866.128 1048.11 883.755 1056.48 896.97 1064.11 C 889.898 1043.05 885.34 1019.87 884.936 997.613 z M 896.475 702.122 L 897.935 701.378 C 911.049 694.628 925.621 670.446 939.605 659.252 C 972.323 633.063 974.17 649.734 970.485 681.083 L 982.518 680.708 C 990.544 672.525 1011.48 648.156 1023.46 654.562 C 1029.85 661.728 1026.93 676.571 1025.35 685.463 C 1071.94 688.255 1128.36 639.012 1089.35 594.694 C 1065.26 567.32 998.154 559.217 961.445 558.945 C 951.595 558.829 941.744 558.995 931.903 559.44 C 873.238 561.969 799.903 580.004 758.148 622.738 C 745.827 635.348 738.628 652.345 739.794 669.873 C 742.686 713.369 774.432 731.717 813.728 730.799 C 827.8 701.369 855.603 665.72 885.375 650.378 C 893.769 646.053 897.753 653.086 900.082 659.461 C 903.534 668.913 894.626 695.761 896.475 702.122 z M 897.837 530.394 C 945.267 543.171 954.16 501.351 962.244 466.019 C 964.378 456.694 972.765 423.621 958.119 421.943 C 931.947 430.258 905.711 464.389 892.937 487.719 C 884.666 502.824 879.079 521.021 897.837 530.394 z M 1035.03 524.299 C 1077.94 534.574 1083.25 499.765 1091.39 467.387 C 1093.77 457.967 1096.48 441.368 1092.17 432.49 C 1089.76 430.66 1088.76 431.031 1085.66 430.972 C 1062.93 440.274 1000.68 505.221 1035.03 524.299 z"/>
<path transform="translate(0,0)" fill="rgb(32,39,46)" d="M 884.936 997.613 C 911.41 961.741 963.561 913.148 1000.09 886.832 C 999.453 913.648 995.888 938.22 1007.43 963.737 C 1033.69 1021.78 1113.36 1028.44 1167.49 1043.6 C 1165.91 1050.27 1163.57 1059.87 1163.19 1066.6 C 1161.94 1088.93 1163.59 1099.65 1156.26 1121.12 C 1145.84 1126.29 1145.86 1137.3 1145.07 1147.79 C 1143.45 1154.35 1139.19 1179.63 1135.57 1182.62 C 1132.68 1183.08 1129.79 1183.5 1126.89 1183.86 C 1102.44 1184.63 1074.75 1186.37 1051.07 1192.83 C 1040.45 1195.73 1031.65 1201.04 1023.76 1203.54 C 1020.14 1201.25 1013.17 1197.99 1009.08 1195.94 C 1013.91 1193.99 1028.62 1188.99 1025.5 1182.25 C 1011.88 1152.76 967.054 1136.39 940.232 1120.26 C 935.254 1117.27 930.641 1109.11 925.898 1105.3 C 911.782 1092.22 893.378 1081 875.934 1073.58 C 807.121 1044.32 736.096 1041.33 674.942 992.77 C 639.185 964.377 629.228 943.828 623.272 900.266 C 628.141 909.043 630.35 920.918 635.086 929.827 C 663.945 984.119 735.394 1009.37 791.498 1024.85 C 811.932 1030.49 831.411 1035.82 851.524 1042.94 C 866.128 1048.11 883.755 1056.48 896.97 1064.11 C 889.898 1043.05 885.34 1019.87 884.936 997.613 z"/>
<path transform="translate(0,0)" fill="rgb(233,217,208)" d="M 1167.49 1043.6 C 1179.32 1018.72 1226.85 1006.22 1253.54 1014.81 C 1254.59 1015.14 1258.44 1018.33 1259.47 1019.2 C 1279.87 1014.21 1299.82 1020.99 1317.5 1031.21 C 1337.74 1042.92 1342.65 1055.73 1351 1076.46 C 1353.17 1081.86 1357.59 1090.63 1359.15 1095.79 C 1366.64 1094.48 1372.48 1094.28 1378.96 1098.85 C 1392.22 1108.2 1485.17 1230.51 1495.55 1247.58 C 1499.35 1253.84 1501.72 1260.24 1502.72 1267.51 C 1504.1 1277.58 1502.45 1289.36 1495.82 1297.43 C 1483.65 1312.25 1463.44 1310.7 1446.59 1314.32 L 1445.54 1315.58 C 1462.95 1321.96 1472.33 1328.85 1480.42 1346.38 C 1492.95 1373.22 1496.3 1401.98 1502.18 1430.56 C 1505.39 1446.19 1512.32 1462.69 1516.28 1478.15 C 1525.88 1515.61 1533.47 1586.93 1514.78 1621.11 L 1506.36 1625.43 L 1507.58 1630.69 C 1492.07 1638.37 1486.44 1640.74 1473.32 1653.25 C 1467.5 1649.7 1463.39 1647.09 1457.91 1643.05 L 1456.03 1643.36 C 1445.8 1634.64 1436.42 1625.01 1426.98 1615.46 C 1429.1 1611.27 1421.11 1556.05 1419.07 1548.26 C 1417.28 1541.41 1408.7 1525.05 1404.82 1518.48 C 1396.46 1535.62 1388 1552.72 1379.45 1569.76 C 1383.17 1581.34 1418.88 1600.09 1423.36 1613.34 C 1417.96 1636.22 1396.79 1652.87 1378.49 1666.56 C 1381.61 1671.77 1384.06 1679.1 1380.74 1684.84 C 1378.03 1688.29 1376.5 1692.87 1374.67 1696.88 C 1366.79 1714.1 1361.95 1735.54 1381.1 1746.63 C 1368.97 1749.06 1347.86 1748.54 1335.24 1748.41 C 1290.4 1748.29 1237.22 1746.37 1193.27 1745.49 C 1156.95 1744.77 916.318 1735.56 902.609 1707.31 C 902.754 1705.46 902.541 1704.73 903.671 1703.17 C 917.856 1683.49 1030.1 1678.29 1058.52 1673.66 C 1046.93 1656.12 1046.56 1641.42 1045.56 1621.21 C 1027.35 1595.58 1026.33 1560.66 1022.94 1530.23 L 1014.93 1460.1 C 1009.04 1404.94 1001.57 1350.26 994.313 1295.29 C 993.197 1286.84 993.562 1279.01 991.39 1270.59 C 1021.48 1262.84 1015.08 1253.86 995.122 1236.44 C 1001.23 1219.48 1008.49 1212.35 1023.76 1203.54 C 1031.65 1201.04 1040.45 1195.73 1051.07 1192.83 C 1074.75 1186.37 1102.44 1184.63 1126.89 1183.86 C 1129.79 1183.5 1132.68 1183.08 1135.57 1182.62 C 1139.19 1179.63 1143.45 1154.35 1145.07 1147.79 C 1145.86 1137.3 1145.84 1126.29 1156.26 1121.12 C 1163.59 1099.65 1161.94 1088.93 1163.19 1066.6 C 1163.57 1059.87 1165.91 1050.27 1167.49 1043.6 z M 1309.28 1432.65 C 1339.77 1388.96 1363.57 1343.31 1413.21 1317.02 C 1386.58 1316 1360.83 1316.03 1334.31 1312.16 C 1329.81 1311.5 1324.18 1310.9 1319.71 1310.72 L 1319.26 1312.58 C 1312.2 1341.18 1298.38 1365.98 1301.05 1396.66 C 1302.21 1409.96 1305.41 1420.06 1309.28 1432.65 z M 1298.04 1185.63 C 1295.13 1189.08 1295.04 1189.43 1290.87 1190.52 C 1287.76 1193.98 1287.36 1198.07 1285 1200.07 C 1282.7 1199.51 1281.59 1198.73 1280.08 1199.6 C 1281.48 1202.12 1284.26 1203.86 1287.16 1204.16 L 1287.92 1203.2 C 1296.54 1200.44 1376.66 1224.3 1390.63 1229.41 C 1379.12 1206.05 1353.3 1156.25 1334.54 1138.87 C 1332.55 1143.91 1331.17 1148.86 1327.46 1152.63 L 1325.25 1153.43 L 1322.19 1151.45 C 1316.03 1159.31 1311.86 1167.34 1306.67 1175.82 C 1303.9 1180.34 1299.72 1183.2 1298.04 1185.63 z"/>
<path transform="translate(0,0)" fill="rgb(15,18,19)" d="M 1173.02 1352.33 C 1180.84 1354.25 1188.01 1356.05 1194.92 1360.38 C 1232.32 1383.81 1260.7 1429.63 1284.99 1465.41 C 1308.15 1498.5 1330.08 1524.23 1360.01 1551.32 C 1364.83 1555.68 1374.24 1566.97 1379.45 1569.76 C 1383.17 1581.34 1418.88 1600.09 1423.36 1613.34 C 1417.96 1636.22 1396.79 1652.87 1378.49 1666.56 C 1381.61 1671.77 1384.06 1679.1 1380.74 1684.84 C 1378.03 1688.29 1376.5 1692.87 1374.67 1696.88 C 1366.79 1714.1 1361.95 1735.54 1381.1 1746.63 C 1368.97 1749.06 1347.86 1748.54 1335.24 1748.41 C 1290.4 1748.29 1237.22 1746.37 1193.27 1745.49 C 1156.95 1744.77 916.318 1735.56 902.609 1707.31 C 902.754 1705.46 902.541 1704.73 903.671 1703.17 C 917.856 1683.49 1030.1 1678.29 1058.52 1673.66 C 1046.93 1656.12 1046.56 1641.42 1045.56 1621.21 C 1048.72 1558.83 1065.31 1499.42 1081.84 1439.48 C 1092.21 1401.85 1098.07 1379.89 1132.14 1358.5 C 1148.23 1356.19 1153.2 1362.41 1173.02 1352.33 z"/>
<path transform="translate(0,0)" fill="rgb(177,143,117)" d="M 1324.09 1661.67 C 1338.21 1668.8 1346.58 1673.3 1362 1677.47 C 1368.71 1674.11 1372.49 1671.06 1378.49 1666.56 C 1381.61 1671.77 1384.06 1679.1 1380.74 1684.84 C 1378.03 1688.29 1376.5 1692.87 1374.67 1696.88 C 1366.79 1714.1 1361.95 1735.54 1381.1 1746.63 C 1368.97 1749.06 1347.86 1748.54 1335.24 1748.41 C 1290.4 1748.29 1237.22 1746.37 1193.27 1745.49 C 1156.95 1744.77 916.318 1735.56 902.609 1707.31 C 902.754 1705.46 902.541 1704.73 903.671 1703.17 C 917.856 1683.49 1030.1 1678.29 1058.52 1673.66 C 1090.97 1714.47 1150.88 1734.98 1199.16 1711 C 1235.53 1720.24 1280.93 1704.97 1307.41 1679.21 C 1313.22 1673.57 1318.65 1667.66 1324.09 1661.67 z"/>
<path transform="translate(0,0)" fill="rgb(32,39,46)" d="M 1413.21 1317.02 C 1425.55 1314.07 1434.06 1314.45 1446.59 1314.32 L 1445.54 1315.58 C 1462.95 1321.96 1472.33 1328.85 1480.42 1346.38 C 1492.95 1373.22 1496.3 1401.98 1502.18 1430.56 C 1505.39 1446.19 1512.32 1462.69 1516.28 1478.15 C 1525.88 1515.61 1533.47 1586.93 1514.78 1621.11 L 1506.36 1625.43 L 1507.58 1630.69 C 1492.07 1638.37 1486.44 1640.74 1473.32 1653.25 C 1467.5 1649.7 1463.39 1647.09 1457.91 1643.05 L 1456.03 1643.36 C 1445.8 1634.64 1436.42 1625.01 1426.98 1615.46 C 1429.1 1611.27 1421.11 1556.05 1419.07 1548.26 C 1417.28 1541.41 1408.7 1525.05 1404.82 1518.48 C 1396.46 1535.62 1388 1552.72 1379.45 1569.76 C 1374.24 1566.97 1364.83 1555.68 1360.01 1551.32 C 1330.08 1524.23 1308.15 1498.5 1284.99 1465.41 C 1293.17 1454.55 1301.27 1443.63 1309.28 1432.65 C 1339.77 1388.96 1363.57 1343.31 1413.21 1317.02 z"/>
<path transform="translate(0,0)" fill="rgb(243,139,78)" d="M 1457.91 1643.05 C 1476.06 1630.16 1483.7 1623.48 1506.36 1625.43 L 1507.58 1630.69 C 1492.07 1638.37 1486.44 1640.74 1473.32 1653.25 C 1467.5 1649.7 1463.39 1647.09 1457.91 1643.05 z"/>
<path transform="translate(0,0)" fill="rgb(243,139,78)" d="M 1167.49 1043.6 C 1179.32 1018.72 1226.85 1006.22 1253.54 1014.81 C 1254.59 1015.14 1258.44 1018.33 1259.47 1019.2 C 1279.87 1014.21 1299.82 1020.99 1317.5 1031.21 C 1337.74 1042.92 1342.65 1055.73 1351 1076.46 C 1353.17 1081.86 1357.59 1090.63 1359.15 1095.79 C 1348.01 1100.37 1344.1 1103.1 1335.17 1111.88 C 1337.05 1124.86 1334.09 1135.2 1334.54 1138.87 C 1332.55 1143.91 1331.17 1148.86 1327.46 1152.63 L 1325.25 1153.43 L 1322.19 1151.45 L 1322.73 1150.01 L 1321.7 1148.28 C 1318.06 1146.83 1305.03 1149.18 1295.54 1147.55 C 1271.64 1143.54 1250.31 1130.18 1236.29 1110.41 C 1223.32 1113.24 1219.74 1115.97 1208.89 1123.56 C 1193.7 1118.33 1171.94 1119.31 1156.26 1121.12 C 1163.59 1099.65 1161.94 1088.93 1163.19 1066.6 C 1163.57 1059.87 1165.91 1050.27 1167.49 1043.6 z"/>
<path transform="translate(0,0)" fill="rgb(15,18,19)" d="M 1208.89 1123.56 C 1208.58 1109.77 1218.78 1107.82 1224.82 1097.06 C 1233.28 1081.98 1231.04 1062.18 1247.4 1052.16 C 1257.37 1046.05 1265.87 1047.83 1275.84 1043.37 C 1278.31 1042.22 1278.22 1038.83 1278.58 1036.24 C 1282.76 1037.6 1288.81 1043.04 1292.3 1045.91 C 1313.52 1063.33 1326.69 1086.1 1335.17 1111.88 C 1337.05 1124.86 1334.09 1135.2 1334.54 1138.87 C 1332.55 1143.91 1331.17 1148.86 1327.46 1152.63 L 1325.25 1153.43 L 1322.19 1151.45 L 1322.73 1150.01 L 1321.7 1148.28 C 1318.06 1146.83 1305.03 1149.18 1295.54 1147.55 C 1271.64 1143.54 1250.31 1130.18 1236.29 1110.41 C 1223.32 1113.24 1219.74 1115.97 1208.89 1123.56 z"/>
<path transform="translate(0,0)" fill="rgb(15,18,19)" d="M 1254.86 1023.19 C 1262.14 1025.72 1268.71 1029.68 1275.42 1033.44 C 1261.61 1031.47 1259.16 1032.34 1245.31 1035.57 C 1239.47 1037.99 1233.67 1040.46 1227.89 1043 C 1236.21 1029.14 1239.78 1027.3 1254.86 1023.19 z"/>
<path transform="translate(0,0)" fill="rgb(243,139,78)" d="M 1236.29 1110.41 C 1250.31 1130.18 1271.64 1143.54 1295.54 1147.55 C 1305.03 1149.18 1318.06 1146.83 1321.7 1148.28 L 1322.73 1150.01 L 1322.19 1151.45 C 1316.03 1159.31 1311.86 1167.34 1306.67 1175.82 C 1303.9 1180.34 1299.72 1183.2 1298.04 1185.63 C 1295.13 1189.08 1295.04 1189.43 1290.87 1190.52 C 1287.76 1193.98 1287.36 1198.07 1285 1200.07 C 1282.7 1199.51 1281.59 1198.73 1280.08 1199.6 C 1281.48 1202.12 1284.26 1203.86 1287.16 1204.16 C 1285.14 1211.79 1262.32 1235.7 1255.15 1242.22 C 1238.79 1257.07 1229.46 1268.93 1208.72 1255.23 C 1210.83 1233.75 1209.91 1213.84 1211.34 1193.1 C 1212.66 1174.07 1218.17 1147.06 1221.58 1128.04 C 1216.68 1125.84 1214.28 1124.58 1208.89 1123.56 C 1219.74 1115.97 1223.32 1113.24 1236.29 1110.41 z"/>
<path transform="translate(0,0)" fill="rgb(15,18,19)" d="M 1290.87 1190.52 C 1286.29 1190.57 1281.39 1191.24 1278.06 1187.76 C 1281.84 1182.06 1292.32 1182.65 1298.04 1185.63 C 1295.13 1189.08 1295.04 1189.43 1290.87 1190.52 z"/>
<path transform="translate(0,0)" fill="rgb(15,18,19)" d="M 1221.6 1163.55 C 1239.09 1162.61 1248.65 1161.64 1257.69 1178.92 L 1256.56 1180.88 C 1250.7 1178.5 1246.14 1173.4 1240.08 1170.25 C 1233.03 1166.57 1228.33 1166.1 1220.5 1164.61 L 1221.6 1163.55 z"/>
<path transform="translate(0,0)" fill="rgb(15,18,19)" d="M 1225.47 1179.1 C 1234.72 1182.79 1242.47 1181.81 1249.83 1187.94 C 1239.46 1188.04 1230.97 1189.07 1225.47 1179.1 z"/>
<path transform="translate(0,0)" fill="rgb(177,143,117)" d="M 1019.29 1298.32 C 1032.02 1311.24 1046.79 1321.97 1063.01 1330.09 C 1088.94 1343.37 1134.64 1357.35 1164.31 1349.22 C 1180.92 1344.67 1191.89 1319.48 1199.02 1304.75 C 1194.91 1325.22 1188.09 1338.39 1173.02 1352.33 C 1153.2 1362.41 1148.23 1356.19 1132.14 1358.5 C 1124.78 1356.91 1116.76 1356.17 1109.04 1354.41 C 1074.23 1346.5 1039.18 1328.75 1019.29 1298.32 z"/>
<path transform="translate(0,0)" fill="rgb(177,143,117)" d="M 1145.07 1147.79 C 1146.33 1174.1 1140.8 1200.29 1129.02 1223.84 C 1115.71 1250.91 1107.24 1257.52 1105.14 1289.92 C 1100.54 1272.28 1102.24 1263.79 1109.58 1247.06 C 1095.76 1233.09 1084.87 1224.3 1068.84 1213.03 C 1089.06 1221.64 1095.08 1225.88 1112.18 1239.95 C 1118.11 1228.98 1136.02 1195.4 1135.36 1184.82 C 1131.65 1183.78 1130.63 1183.9 1126.89 1183.86 C 1129.79 1183.5 1132.68 1183.08 1135.57 1182.62 C 1139.19 1179.63 1143.45 1154.35 1145.07 1147.79 z"/>
<path transform="translate(0,0)" fill="rgb(177,143,117)" d="M 1392.08 1233.37 C 1397.61 1236.5 1426.27 1283.81 1433.84 1294.37 C 1415.03 1283.69 1398.61 1253.16 1392.08 1233.37 z"/>
<path transform="translate(0,0)" fill="rgb(254,254,254)" d="M 1423.36 1613.34 L 1426.98 1615.46 C 1436.42 1625.01 1445.8 1634.64 1456.03 1643.36 L 1457.91 1643.05 C 1463.39 1647.09 1467.5 1649.7 1473.32 1653.25 C 1486.44 1640.74 1492.07 1638.37 1507.58 1630.69 C 1527.13 1640.83 1548.18 1658.59 1565.21 1672.29 C 1569.95 1677.27 1588.15 1692.74 1593.66 1694.77 C 1612.01 1701.53 1633.45 1702.41 1634.24 1728.52 C 1634.33 1731.4 1633.34 1734.31 1632.07 1737.08 C 1614.14 1743.28 1588.5 1751.36 1569.73 1753.78 C 1553.2 1756.43 1536.2 1762.91 1518.84 1765.67 C 1484.96 1771.05 1453.17 1768.51 1420.22 1759.03 C 1406.95 1755.21 1394.36 1750.26 1381.1 1746.63 C 1361.95 1735.54 1366.79 1714.1 1374.67 1696.88 C 1376.5 1692.87 1378.03 1688.29 1380.74 1684.84 C 1384.06 1679.1 1381.61 1671.77 1378.49 1666.56 C 1396.79 1652.87 1417.96 1636.22 1423.36 1613.34 z"/>
<path transform="translate(0,0)" fill="rgb(233,217,208)" d="M 1507.58 1630.69 C 1527.13 1640.83 1548.18 1658.59 1565.21 1672.29 C 1569.95 1677.27 1588.15 1692.74 1593.66 1694.77 C 1612.01 1701.53 1633.45 1702.41 1634.24 1728.52 C 1634.33 1731.4 1633.34 1734.31 1632.07 1737.08 C 1614.14 1743.28 1588.5 1751.36 1569.73 1753.78 C 1577.88 1740.7 1571.53 1727.05 1561.75 1716.57 C 1556.45 1710.91 1544.76 1709.15 1538.46 1704.42 C 1516.43 1687.92 1496.58 1668.08 1473.32 1653.25 C 1486.44 1640.74 1492.07 1638.37 1507.58 1630.69 z"/>
<path transform="translate(0,0)" fill="rgb(177,143,117)" d="M 1615.34 1706.26 L 1617.16 1706.46 L 1616.6 1707.48 C 1600.54 1714.07 1591.17 1718.84 1573.77 1719.46 C 1572.82 1719.11 1571.88 1718.75 1570.93 1718.39 C 1573.21 1717.46 1580.11 1716.37 1583.17 1715.37 C 1595.22 1711.44 1602.81 1708.09 1615.34 1706.26 z"/>
<path transform="translate(0,0)" fill="rgb(177,143,117)" d="M 1516.39 1642.16 C 1519.07 1642.27 1518.03 1641.73 1519.87 1643.13 C 1517.09 1645.57 1498.03 1652.66 1493.28 1654.62 L 1491.21 1655.37 L 1491.05 1653.99 C 1498.12 1646.51 1506.78 1644.13 1516.39 1642.16 z"/>
<path transform="translate(0,0)" fill="rgb(177,143,117)" d="M 1545.17 1661.32 L 1546.4 1662.28 C 1544.54 1664.31 1522 1673.08 1517.61 1674.96 L 1516.55 1674.43 C 1520.65 1666.27 1536.58 1662.56 1545.17 1661.32 z"/>
<path transform="translate(0,0)" fill="rgb(177,143,117)" d="M 1560.89 1684.2 C 1563.53 1683.92 1565.53 1683.32 1567.75 1684.58 C 1565.22 1687.13 1548.43 1693.27 1544.18 1694.99 L 1540.93 1696.53 L 1539.47 1695.98 C 1542.31 1690.39 1555.02 1685.8 1560.89 1684.2 z"/>
<path transform="translate(0,0)" fill="rgb(177,143,117)" d="M 1527.29 1652.16 C 1531.07 1652.05 1530.08 1651.31 1531.96 1653 C 1529.01 1655.37 1511.84 1661.72 1507.25 1663.62 L 1504.46 1664.67 L 1503.87 1663.53 C 1509.34 1656.93 1519.18 1653.8 1527.29 1652.16 z"/>
<path transform="translate(0,0)" fill="rgb(177,143,117)" d="M 1551.12 1673.16 C 1554.57 1672.78 1554.63 1672.13 1556.76 1673.64 C 1554 1675.95 1536.81 1682.48 1532.24 1684.43 L 1529.2 1685.47 L 1528.46 1684.61 C 1532.78 1678.61 1544.14 1674.6 1551.12 1673.16 z"/>
<path transform="translate(0,0)" fill="rgb(243,139,78)" d="M 1423.36 1613.34 L 1426.98 1615.46 C 1436.42 1625.01 1445.8 1634.64 1456.03 1643.36 C 1445.37 1647.56 1441.68 1649.73 1432.52 1656.26 C 1411.84 1670.99 1409.68 1690.86 1380.74 1684.84 C 1384.06 1679.1 1381.61 1671.77 1378.49 1666.56 C 1396.79 1652.87 1417.96 1636.22 1423.36 1613.34 z"/>
<path transform="translate(0,0)" fill="rgb(177,143,117)" d="M 1387.24 1718.91 C 1396.06 1719.98 1407.12 1723.8 1415.66 1726 C 1444.81 1733.51 1472.55 1738.65 1502.4 1731.61 C 1513.43 1729.02 1536.2 1719.88 1546.58 1720.32 L 1544.68 1721.15 C 1531.41 1725.78 1516.93 1732.44 1503.75 1736.28 C 1464.79 1747.64 1423.21 1734.62 1387.24 1718.91 z"/>
<path transform="translate(0,0)" fill="rgb(177,143,117)" d="M 1489 1675.21 C 1490.44 1675.1 1492.57 1675.14 1494.07 1675.12 L 1494.72 1675.98 C 1490.98 1678.62 1472.77 1685.43 1467.27 1687.69 C 1465.57 1688.56 1465.42 1688.45 1463.53 1688.91 L 1463.32 1687.87 C 1470.13 1680.82 1479.77 1677.52 1489 1675.21 z"/>
<path transform="translate(0,0)" fill="rgb(177,143,117)" d="M 1460.87 1654.25 L 1465.58 1654.13 L 1466.44 1655.12 C 1461.92 1658.05 1446.58 1663.34 1439.36 1666.79 L 1435.6 1668.09 L 1435.3 1666.9 C 1441.02 1660.21 1452.57 1656.3 1460.87 1654.25 z"/>
<path transform="translate(0,0)" fill="rgb(177,143,117)" d="M 1479.25 1664.3 L 1480.98 1664.89 C 1479.86 1666.38 1453.44 1676.81 1449.32 1678.65 L 1447.6 1678.27 C 1452.88 1669.82 1469.78 1665.62 1479.25 1664.3 z"/>
<path transform="translate(0,0)" fill="rgb(177,143,117)" d="M 1501.12 1687.2 C 1504.32 1687.04 1505.08 1686.44 1507.44 1687.73 C 1504.14 1690.18 1488.28 1695.84 1483.19 1697.96 C 1481.05 1698.98 1479.18 1699.59 1476.96 1700.37 L 1476.07 1699.55 C 1481.13 1693.25 1493.43 1689 1501.12 1687.2 z"/>
<path transform="translate(0,0)" fill="rgb(177,143,117)" d="M 1513.23 1699.18 L 1518.05 1699.18 L 1518.51 1700.07 C 1514.5 1702.64 1497.02 1709.19 1491.26 1711.68 L 1489.87 1712.34 C 1489.02 1712.76 1489.75 1712.51 1488.15 1712.74 L 1487.57 1711.78 C 1493.64 1704.91 1504.61 1701.25 1513.23 1699.18 z"/>
<path transform="translate(0,0)" fill="rgb(177,143,117)" d="M 1565.21 1672.29 C 1571.52 1670.46 1583.47 1671.34 1590.06 1671.84 C 1620.4 1674.16 1769.52 1681.4 1783.16 1704.42 C 1783.33 1707.31 1783.45 1708.06 1781.6 1710.49 C 1769.5 1726.3 1658.49 1736.84 1635.18 1737.12 C 1634.14 1737.14 1633.11 1737.1 1632.07 1737.08 C 1633.34 1734.31 1634.33 1731.4 1634.24 1728.52 C 1633.45 1702.41 1612.01 1701.53 1593.66 1694.77 C 1588.15 1692.74 1569.95 1677.27 1565.21 1672.29 z"/>
</svg>