<svg version="1.1" xmlns="http://www.w3.org/2000/svg" style="display: block;" viewBox="0 0 2048 2048" width="2000" height="2000" preserveAspectRatio="none">
<path transform="translate(0,0)" fill="rgb(0,0,0)" d="M 986.249 0 L 1475.67 0 C 1543.43 70.6708 1578.69 171.044 1576.83 268.459 C 1576 311.699 1569.26 341.342 1557.84 382.101 C 1578.47 388.063 1599.71 397.589 1609.99 417.663 C 1638.23 472.801 1580.53 550.415 1534.31 576.953 C 1519.3 585.573 1503.44 586.756 1487.5 582.344 C 1472.53 628.467 1452.27 675.722 1423.71 715.214 C 1446.55 758.337 1464.02 773.304 1492.14 809.954 C 1524.74 852.447 1553.65 929.167 1553.01 982.033 C 1542.13 985.588 1526.61 990.372 1515.37 992.788 L 1748.76 1074.26 C 1759.84 1078.13 1774.79 1083.82 1785.75 1086.89 C 1813.56 1094.69 1835.42 1100.35 1860.78 1115.75 C 1901.98 1140.54 1935.2 1176.65 1956.47 1219.78 C 1979.97 1267.49 1982.04 1306.61 1988.45 1357.81 L 1999.67 1447.34 L 2032.78 1711.19 L 2042.45 1789.53 C 2044.06 1802.76 2045.72 1820.48 2048 1833.25 L 2048 2048 L 1546.79 2048 L 1415.38 2048 L 1408.93 2048 L 1366.46 2048 L 542.038 2048 L 535.277 2048 L 225.107 2048 C 227.186 2038.4 229.347 2021.44 231.014 2011.23 L 244.18 1932.03 C 258.891 1845.67 275.714 1759.68 294.634 1674.14 C 317.942 1569.52 356.374 1405.5 427.506 1325.59 C 432.921 1302.59 432.843 1277.76 439.333 1254.96 C 443.22 1241.3 449.274 1226.84 455.724 1214.19 C 481.426 1164.43 524.26 1125.64 576.321 1104.99 C 594.442 1097.75 625.976 1089.15 645.593 1083.01 L 762.139 1046.29 C 753.047 1045.33 743.801 1045.03 734.581 1044.13 C 722.155 1044.89 674.72 1039.95 659.56 1038.85 C 652.294 1037.77 643.259 1037.1 635.744 1036.27 C 607.179 1033.31 578.668 1029.85 550.222 1025.91 L 535.788 1023.64 C 512.249 1020.06 481.853 1014.97 458.993 1009.1 C 455.241 1000.33 451.093 980.379 449.023 970.571 C 437.625 916.559 434.495 860.28 451.309 806.957 C 465.652 761.778 496.64 720.184 528.55 685.51 C 561.564 649.637 579.563 619.014 596.451 573.373 C 612.788 529.222 626.123 485.042 637.143 439.126 C 642.701 415.969 647.187 391.157 653.41 368.268 C 663.804 330.66 680.094 294.936 701.672 262.427 C 749.42 190.311 827.129 135.747 912.118 118.309 C 931.429 70.5762 952.026 38.166 986.249 0 z"/>
<path transform="translate(0,0)" fill="rgb(29,39,183)" d="M 986.249 0 L 1475.67 0 C 1543.43 70.6708 1578.69 171.044 1576.83 268.459 C 1576 311.699 1569.26 341.342 1557.84 382.101 C 1578.47 388.063 1599.71 397.589 1609.99 417.663 C 1638.23 472.801 1580.53 550.415 1534.31 576.953 C 1519.3 585.573 1503.44 586.756 1487.5 582.344 C 1472.53 628.467 1452.27 675.722 1423.71 715.214 C 1446.55 758.337 1464.02 773.304 1492.14 809.954 C 1524.74 852.447 1553.65 929.167 1553.01 982.033 C 1542.13 985.588 1526.61 990.372 1515.37 992.788 L 1508.07 994.725 C 1504.88 995.477 1501.69 996.195 1498.53 997.076 C 1498.57 996.567 1498.6 996.058 1498.64 995.549 C 1490.98 930.526 1467.49 861.368 1422.63 812.714 C 1402.18 790.533 1385.1 783.547 1363.64 765.871 C 1351.26 755.679 1344.2 742.02 1334.19 731.319 C 1312.21 756.357 1276.4 786.233 1243.93 758.082 C 1242.14 756.529 1240.45 754.875 1238.85 753.128 C 1229.79 776.483 1222.91 793.045 1210.8 815.185 L 1205.46 824.25 C 1187.8 851.881 1176.08 866.65 1152.49 890.173 L 1145.17 896.993 C 1125.64 914.239 1109.65 925.279 1086.98 938.349 C 1081.9 941.053 1067.82 947.738 1064.2 950.19 L 1017.54 832.459 C 1026.85 828.538 1052.21 814.864 1056.76 805.977 L 1056.04 804.231 C 1059.52 804.502 1059.31 804.622 1062.5 803.305 L 1063.04 801.675 L 1061.18 799.139 C 1058.28 797.536 1057.13 797.591 1053.9 797.158 C 1053.66 796.048 1053.06 794.827 1052.12 794.26 C 1036.35 784.83 1014.72 779.535 997.225 781.078 C 991.663 765.842 980.976 750.048 960.886 762.032 C 955.084 765.494 953.056 774.339 952.46 780.863 C 940.484 780.864 911.983 787.663 904.67 797.14 C 901.612 797.647 900.787 797.612 897.949 798.927 L 896.023 801.803 L 896.563 803.367 C 899.667 804.701 899.44 804.61 902.807 804.148 L 902.054 805.952 C 909.603 817.931 954.33 842.653 967.698 838.203 C 979.013 880.957 990.432 927.817 1002.7 969.992 C 961.091 979.237 908.161 953.865 872 934.038 C 871.204 944.401 870.106 957.244 869.862 967.606 C 868.024 991.979 866.38 1016.37 864.932 1040.77 L 864.391 1049.03 C 852.408 1049.06 833.401 1049.44 821.937 1048.12 C 802.375 1048.1 782.505 1046.16 762.731 1046.1 L 762.139 1046.29 C 753.047 1045.33 743.801 1045.03 734.581 1044.13 C 722.155 1044.89 674.72 1039.95 659.56 1038.85 C 652.294 1037.77 643.259 1037.1 635.744 1036.27 C 607.179 1033.31 578.668 1029.85 550.222 1025.91 L 535.788 1023.64 C 512.249 1020.06 481.853 1014.97 458.993 1009.1 C 455.241 1000.33 451.093 980.379 449.023 970.571 C 437.625 916.559 434.495 860.28 451.309 806.957 C 465.652 761.778 496.64 720.184 528.55 685.51 C 561.564 649.637 579.563 619.014 596.451 573.373 C 612.788 529.222 626.123 485.042 637.143 439.126 C 642.701 415.969 647.187 391.157 653.41 368.268 C 663.804 330.66 680.094 294.936 701.672 262.427 C 749.42 190.311 827.129 135.747 912.118 118.309 C 931.429 70.5762 952.026 38.166 986.249 0 z"/>
<path transform="translate(0,0)" fill="rgb(170,104,102)" d="M 706.63 408.373 L 918.077 408.17 L 1260.3 408.26 C 1272.77 456.228 1267.8 497.763 1265.05 546.403 C 1262.64 589.182 1261.86 632.669 1257.61 675.261 C 1278.73 644.038 1286.37 626.277 1300.42 591.979 C 1336.99 591.929 1370.77 610.892 1370.28 652.438 C 1369.96 678.918 1355.43 703.306 1340.06 724.139 L 1334.19 731.319 C 1312.21 756.357 1276.4 786.233 1243.93 758.082 C 1242.14 756.529 1240.45 754.875 1238.85 753.128 C 1229.79 776.483 1222.91 793.045 1210.8 815.185 L 1205.46 824.25 C 1187.8 851.881 1176.08 866.65 1152.49 890.173 L 1145.17 896.993 C 1125.64 914.239 1109.65 925.279 1086.98 938.349 C 1081.9 941.053 1067.82 947.738 1064.2 950.19 L 1017.54 832.459 C 1026.85 828.538 1052.21 814.864 1056.76 805.977 L 1056.04 804.231 C 1059.52 804.502 1059.31 804.622 1062.5 803.305 L 1063.04 801.675 L 1061.18 799.139 C 1058.28 797.536 1057.13 797.591 1053.9 797.158 C 1053.66 796.048 1053.06 794.827 1052.12 794.26 C 1036.35 784.83 1014.72 779.535 997.225 781.078 C 991.663 765.842 980.976 750.048 960.886 762.032 C 955.084 765.494 953.056 774.339 952.46 780.863 C 940.484 780.864 911.983 787.663 904.67 797.14 C 901.612 797.647 900.787 797.612 897.949 798.927 L 896.023 801.803 L 896.563 803.367 C 899.667 804.701 899.44 804.61 902.807 804.148 L 902.054 805.952 C 909.603 817.931 954.33 842.653 967.698 838.203 C 979.013 880.957 990.432 927.817 1002.7 969.992 C 961.091 979.237 908.161 953.865 872 934.038 C 871.204 944.401 870.106 957.244 869.862 967.606 C 868.024 991.979 866.38 1016.37 864.932 1040.77 L 864.391 1049.03 C 852.408 1049.06 833.401 1049.44 821.937 1048.12 C 802.375 1048.1 782.505 1046.16 762.731 1046.1 L 762.139 1046.29 C 753.047 1045.33 743.801 1045.03 734.581 1044.13 C 722.155 1044.89 674.72 1039.95 659.56 1038.85 C 652.294 1037.77 643.259 1037.1 635.744 1036.27 C 607.179 1033.31 578.668 1029.85 550.222 1025.91 C 544.609 1013.5 537.053 1000.34 532.397 988.257 C 498.249 899.653 508.387 776.825 592.253 718.969 C 597.954 715.035 604.603 708.967 609.992 704.36 L 606.656 696.725 C 592.672 659.69 599.297 623.608 640.012 608.845 C 648.577 605.694 657.666 604.209 666.789 604.472 C 680.433 637.406 690.368 654.569 710.488 684.185 C 705.398 640.754 704.03 593.651 701.929 549.809 C 700.714 524.458 697.205 482.244 698.486 458.117 C 699.327 441.283 702.059 424.597 706.63 408.373 z"/>
<path transform="translate(0,0)" fill="rgb(29,39,183)" d="M 609.992 704.36 C 619.415 721.848 629.069 737.589 643.237 751.883 L 648.625 757.322 C 670.248 776.851 694.251 791.445 722.66 773.969 C 725.726 770.812 729.196 767.399 732.124 764.173 L 736.287 774.419 C 754.426 815.659 772.57 846.302 803.787 879.654 L 811.777 887.682 C 831.686 906.74 848.51 919.44 872 934.038 C 871.204 944.401 870.106 957.244 869.862 967.606 C 868.024 991.979 866.38 1016.37 864.932 1040.77 L 864.391 1049.03 C 852.408 1049.06 833.401 1049.44 821.937 1048.12 C 802.375 1048.1 782.505 1046.16 762.731 1046.1 L 762.139 1046.29 C 753.047 1045.33 743.801 1045.03 734.581 1044.13 C 722.155 1044.89 674.72 1039.95 659.56 1038.85 C 652.294 1037.77 643.259 1037.1 635.744 1036.27 C 607.179 1033.31 578.668 1029.85 550.222 1025.91 C 544.609 1013.5 537.053 1000.34 532.397 988.257 C 498.249 899.653 508.387 776.825 592.253 718.969 C 597.954 715.035 604.603 708.967 609.992 704.36 z"/>
<path transform="translate(0,0)" fill="rgb(29,39,183)" d="M 736.287 774.419 C 754.426 815.659 772.57 846.302 803.787 879.654 L 811.777 887.682 C 831.686 906.74 848.51 919.44 872 934.038 C 871.204 944.401 870.106 957.244 869.862 967.606 C 868.024 991.979 866.38 1016.37 864.932 1040.77 L 864.391 1049.03 C 852.408 1049.06 833.401 1049.44 821.937 1048.12 C 802.375 1048.1 782.505 1046.16 762.731 1046.1 C 758.659 1038.87 752.292 1031.65 747.704 1024.51 C 702.44 954.025 695.567 848.612 736.287 774.419 z"/>
<path transform="translate(0,0)" fill="rgb(29,39,183)" d="M 811.777 887.682 C 831.686 906.74 848.51 919.44 872 934.038 C 871.204 944.401 870.106 957.244 869.862 967.606 C 868.024 991.979 866.38 1016.37 864.932 1040.77 C 858.673 1038.76 857.217 1035.48 853.101 1030.45 C 829.901 1002.08 806.797 923.324 811.777 887.682 z"/>
<path transform="translate(0,0)" fill="rgb(17,37,156)" d="M 803.787 879.654 L 811.777 887.682 C 806.797 923.324 829.901 1002.08 853.101 1030.45 C 857.217 1035.48 858.673 1038.76 864.932 1040.77 L 864.391 1049.03 C 852.408 1049.06 833.401 1049.44 821.937 1048.12 C 830.916 1046.93 841.609 1048.56 851.697 1047.31 C 853.535 1044.7 830.876 1009.81 827.791 1003.05 C 812.8 970.212 798.495 915.374 803.787 879.654 z"/>
<path transform="translate(0,0)" fill="rgb(29,39,183)" d="M 648.625 757.322 C 670.248 776.851 694.251 791.445 722.66 773.969 C 725.726 770.812 729.196 767.399 732.124 764.173 L 736.287 774.419 C 695.567 848.612 702.44 954.025 747.704 1024.51 C 752.292 1031.65 758.659 1038.87 762.731 1046.1 L 762.139 1046.29 C 753.047 1045.33 743.801 1045.03 734.581 1044.13 C 722.155 1044.89 674.72 1039.95 659.56 1038.85 C 654.209 1029.22 646.216 1019.56 641.514 1010.17 C 601.191 929.686 601.067 834.22 648.625 757.322 z"/>
<path transform="translate(0,0)" fill="rgb(17,37,156)" d="M 722.66 773.969 C 725.726 770.812 729.196 767.399 732.124 764.173 L 736.287 774.419 C 695.567 848.612 702.44 954.025 747.704 1024.51 C 752.292 1031.65 758.659 1038.87 762.731 1046.1 L 762.139 1046.29 C 753.047 1045.33 743.801 1045.03 734.581 1044.13 C 739.137 1043.86 743.69 1043.54 748.24 1043.17 C 745.984 1036.87 734.474 1019.73 730.51 1012.23 C 719.021 990.49 709.416 960.16 705.399 936.315 C 700.137 906.087 699.737 875.213 704.214 844.86 C 706.534 829.71 709.514 817.226 714.497 802.714 C 716.851 795.859 724.388 780.225 722.66 773.969 z"/>
<path transform="translate(0,0)" fill="rgb(17,37,156)" d="M 643.237 751.883 L 648.625 757.322 C 601.067 834.22 601.191 929.686 641.514 1010.17 C 646.216 1019.56 654.209 1029.22 659.56 1038.85 C 652.294 1037.77 643.259 1037.1 635.744 1036.27 C 640.177 1035.8 641.121 1035.67 645.346 1034.38 C 645.594 1034.61 630.712 1007.41 629.856 1005.61 C 617.499 979.365 609.487 951.285 606.135 922.469 C 599.361 866.615 607.924 797.194 643.237 751.883 z"/>
<path transform="translate(0,0)" fill="rgb(0,0,0)" d="M 1040.71 613.99 C 1036.87 613.665 1036.62 613.89 1033.19 611.931 C 1025.44 599.778 1063.67 578.497 1072.34 574.638 C 1095.71 564.242 1124.86 560.561 1149.03 570.422 C 1166.11 577.489 1179.67 591.071 1186.7 608.162 C 1187.71 610.687 1188.65 613.238 1189.53 615.812 C 1172 624.437 1136.39 639.163 1116.92 634.806 C 1092.38 636.137 1062.04 625.5 1040.71 613.99 z"/>
<path transform="translate(0,0)" fill="rgb(254,254,254)" d="M 1040.71 613.99 C 1062.24 593.027 1079.61 580.328 1110.45 576.309 C 1100.45 598.687 1101.35 614.969 1116.92 634.806 C 1092.38 636.137 1062.04 625.5 1040.71 613.99 z"/>
<path transform="translate(0,0)" fill="rgb(0,0,0)" d="M 776.666 613.959 C 772.588 613.8 772.217 613.59 768.582 611.681 C 760.73 599.796 800.129 578.268 808.689 574.538 C 831.229 564.718 859.252 560.315 882.634 569.684 C 897.303 575.027 928.168 599.803 922.727 615.345 C 918.687 626.884 864.796 635.768 852.874 634.937 C 826.97 634.675 798.988 627.142 776.666 613.959 z"/>
<path transform="translate(0,0)" fill="rgb(254,254,254)" d="M 776.666 613.959 C 797.373 592.935 816.23 580.282 846.188 576.295 C 836.254 598.259 837.109 615.703 852.874 634.937 C 826.97 634.675 798.988 627.142 776.666 613.959 z"/>
<path transform="translate(0,0)" fill="rgb(0,0,0)" d="M 1080.7 438.385 C 1136.37 431.888 1181.48 473.19 1207.97 517.663 C 1192.21 513.717 1176.48 509.627 1160.79 505.393 C 1147.16 502.556 1128.92 497.328 1115.08 493.773 L 1021.35 469.462 L 1022.19 468.396 C 1037.66 449.168 1056.73 441.059 1080.7 438.385 z"/>
<path transform="translate(0,0)" fill="rgb(0,0,0)" d="M 851.527 438.331 C 881.791 434.103 912.365 443.762 931.51 468.141 L 812.754 500.668 L 745.722 519.15 C 750.452 510.628 755.78 502.451 761.664 494.682 C 784.971 464.069 813.012 443.571 851.527 438.331 z"/>
<path transform="translate(0,0)" fill="rgb(0,0,0)" d="M 962.482 658.182 L 966.771 659.334 C 969.425 662.589 968.187 713.256 968.172 721.94 C 976.046 722.02 1000.84 719.544 1005.8 724.47 L 1005.71 728.605 C 991.115 728.777 976.516 728.744 961.921 728.504 C 961.177 718.456 960.961 665.716 962.482 658.182 z"/>
<path transform="translate(0,0)" fill="rgb(0,0,0)" d="M 1331.91 652.309 L 1337.05 652.917 C 1337.57 653.814 1338.55 655.336 1338.85 656.235 C 1334.2 659.535 1323.04 660.728 1317.77 662.931 C 1297.18 671.532 1282.81 692.572 1272.11 710.519 C 1268.85 711.797 1270.38 711.819 1267.41 711.047 L 1266.58 708.967 C 1267.59 702.985 1275.22 691.894 1279.11 687.019 C 1293.69 668.736 1308.05 655.299 1331.91 652.309 z"/>
<path transform="translate(0,0)" fill="rgb(0,0,0)" d="M 631.877 665.05 C 659.883 663.402 682.244 686.397 697.148 707.537 C 700.391 712.136 704.544 718.721 703.379 724.354 C 701.542 724.242 699.517 724.229 698.385 722.655 C 688.183 708.467 678.149 691.916 663.754 681.478 C 655.31 675.356 643.506 673.251 633.3 670.71 C 630.939 668.023 631.784 669.666 631.877 665.05 z"/>
<path transform="translate(0,0)" fill="rgb(0,0,0)" d="M 986.249 0 L 1475.67 0 C 1543.43 70.6708 1578.69 171.044 1576.83 268.459 C 1576 311.699 1569.26 341.342 1557.84 382.101 C 1578.47 388.063 1599.71 397.589 1609.99 417.663 C 1638.23 472.801 1580.53 550.415 1534.31 576.953 C 1519.3 585.573 1503.44 586.756 1487.5 582.344 C 1472.53 628.467 1452.27 675.722 1423.71 715.214 C 1401.29 679.434 1396.71 613.531 1386.69 572.023 C 1353.04 432.696 1296.24 263.704 1175.69 175.362 C 1115.04 130.767 1040.9 108.381 965.71 111.96 C 946.54 112.824 931.071 115.373 912.118 118.309 C 931.429 70.5762 952.026 38.166 986.249 0 z"/>
<path transform="translate(0,0)" fill="rgb(17,37,156)" d="M 606.656 696.725 L 609.992 704.36 C 604.603 708.967 597.954 715.035 592.253 718.969 C 508.387 776.825 498.249 899.653 532.397 988.257 C 537.053 1000.34 544.609 1013.5 550.222 1025.91 L 535.788 1023.64 C 536.103 1022.44 536.417 1021.23 536.732 1020.02 C 532.161 1006.38 523.191 989.79 519.059 976.147 C 507.266 937.806 503.378 897.47 507.629 857.582 C 513.863 800.722 537.869 746.608 585.88 713.193 C 592.642 708.487 600.135 701.972 606.656 696.725 z"/>
<path transform="translate(0,0)" fill="rgb(17,37,156)" d="M 1340.06 724.139 C 1366.3 762.709 1378.01 764.543 1411.84 791.134 C 1456.42 826.169 1485.8 892.945 1498.45 947.236 C 1502.24 963.242 1504.35 979.042 1508.07 994.725 C 1504.88 995.477 1501.69 996.195 1498.53 997.076 C 1498.57 996.567 1498.6 996.058 1498.64 995.549 C 1490.98 930.526 1467.49 861.368 1422.63 812.714 C 1402.18 790.533 1385.1 783.547 1363.64 765.871 C 1351.26 755.679 1344.2 742.02 1334.19 731.319 L 1340.06 724.139 z"/>
<path transform="translate(0,0)" fill="rgb(254,254,254)" d="M 675.206 1250.52 C 677.033 1251.09 678.029 1250.84 678.578 1252.6 C 731.584 1422.55 869.102 1494.41 1053.36 1463.68 C 1054.17 1464.15 1054.97 1464.62 1055.78 1465.08 C 1066.74 1486.2 1080.47 1513.84 1090.77 1534.35 C 1116.01 1584.46 1141.6 1634.4 1167.53 1684.16 C 1208.82 1763.64 1251.13 1842.59 1294.44 1920.99 C 1317.2 1962.11 1342.21 2007.89 1366.46 2048 L 542.038 2048 L 535.277 2048 L 225.107 2048 C 227.186 2038.4 229.347 2021.44 231.014 2011.23 L 244.18 1932.03 C 258.891 1845.67 275.714 1759.68 294.634 1674.14 C 317.942 1569.52 356.374 1405.5 427.506 1325.59 C 446.899 1307.1 454.269 1300 479.8 1290.44 C 542.581 1266.92 608.762 1256.74 675.206 1250.52 z"/>
<path transform="translate(0,0)" fill="rgb(0,0,0)" d="M 535.277 2048 C 529.377 1945.69 519.332 1842.77 512.407 1740.48 C 512.232 1737.89 512.406 1735.42 514.102 1733.39 L 516.378 1733.05 C 520.547 1736.36 519.96 1753.5 520.448 1759.63 L 525.044 1820.5 C 530.542 1894.76 534.913 1974.3 542.038 2048 L 535.277 2048 z"/>
<path transform="translate(0,0)" fill="rgb(230,230,229)" d="M 1054.03 1463.54 C 1082.53 1456.77 1101.97 1450.87 1128.72 1437.36 C 1227.62 1582.1 1322.55 1729.99 1422.02 1874.92 C 1416.18 1931.01 1413.71 1991.36 1408.93 2048 L 1366.46 2048 C 1342.21 2007.89 1317.2 1962.11 1294.44 1920.99 C 1251.13 1842.59 1208.82 1763.64 1167.53 1684.16 C 1141.6 1634.4 1116.01 1584.46 1090.77 1534.35 C 1080.47 1513.84 1066.74 1486.2 1055.78 1465.08 C 1054.97 1464.62 1054.17 1464.15 1053.36 1463.68 L 1054.03 1463.54 z"/>
<path transform="translate(0,0)" fill="rgb(170,104,102)" d="M 855.181 1184.44 C 875.047 1219.25 893.544 1240.63 934.003 1252.61 C 940.851 1254.64 947.859 1255.48 954.32 1257.15 C 964.71 1278.27 1053.67 1458.71 1054.03 1463.54 L 1053.36 1463.68 C 869.102 1494.41 731.584 1422.55 678.578 1252.6 C 678.029 1250.84 677.033 1251.09 675.206 1250.52 C 678.908 1249.28 699.341 1249.08 704.683 1248.41 C 750.642 1242.6 836.242 1233.06 855.181 1184.44 z"/>
<path transform="translate(0,0)" fill="rgb(29,39,183)" d="M 1334.19 731.319 C 1344.2 742.02 1351.26 755.679 1363.64 765.871 C 1385.1 783.547 1402.18 790.533 1422.63 812.714 C 1467.49 861.368 1490.98 930.526 1498.64 995.549 C 1498.6 996.058 1498.57 996.567 1498.53 997.076 C 1435.63 1012.35 1349.94 1027.56 1284.73 1030.27 C 1279.89 1031.49 1272.56 1031.71 1267.4 1032.07 C 1278.32 981.796 1272 929.31 1249.45 883.07 C 1243.02 869.953 1217.46 828.373 1205.46 824.25 L 1210.8 815.185 C 1222.91 793.045 1229.79 776.483 1238.85 753.128 C 1240.45 754.875 1242.14 756.529 1243.93 758.082 C 1276.4 786.233 1312.21 756.357 1334.19 731.319 z"/>
<path transform="translate(0,0)" fill="rgb(17,37,156)" d="M 1210.8 815.185 C 1257.59 865.773 1282.84 918.813 1280.71 989.068 C 1280.56 993.919 1277.23 1028.38 1277.86 1029.78 C 1279.61 1029.97 1283.39 1029.98 1284.73 1030.27 C 1279.89 1031.49 1272.56 1031.71 1267.4 1032.07 C 1278.32 981.796 1272 929.31 1249.45 883.07 C 1243.02 869.953 1217.46 828.373 1205.46 824.25 L 1210.8 815.185 z"/>
<path transform="translate(0,0)" fill="rgb(29,39,183)" d="M 1205.46 824.25 C 1217.46 828.373 1243.02 869.953 1249.45 883.07 C 1272 929.31 1278.32 981.796 1267.4 1032.07 C 1233.62 1034.94 1192.2 1040.21 1158.7 1041.18 C 1155.53 1041.43 1151.44 1041.9 1148.35 1041.99 C 1137.42 1042.93 1125.89 1043.39 1114.89 1044.01 C 1102.09 1032.43 1096.02 1034.36 1091.21 1017.39 C 1083.11 1001.31 1071.68 968.404 1064.2 950.19 C 1067.82 947.738 1081.9 941.053 1086.98 938.349 C 1109.65 925.279 1125.64 914.239 1145.17 896.993 L 1152.49 890.173 C 1176.08 866.65 1187.8 851.881 1205.46 824.25 z"/>
<path transform="translate(0,0)" fill="rgb(29,39,183)" d="M 1086.98 938.349 C 1109.65 925.279 1125.64 914.239 1145.17 896.993 C 1149.06 902.662 1151.67 911.216 1153.61 917.84 C 1162.02 946.056 1163.58 975.875 1158.14 1004.81 C 1155.53 1019.06 1151.35 1029.07 1148.35 1041.99 C 1137.42 1042.93 1125.89 1043.39 1114.89 1044.01 C 1102.09 1032.43 1096.02 1034.36 1091.21 1017.39 C 1083.11 1001.31 1071.68 968.404 1064.2 950.19 C 1067.82 947.738 1081.9 941.053 1086.98 938.349 z"/>
<path transform="translate(0,0)" fill="rgb(153,91,88)" d="M 1064.2 950.19 C 1067.82 947.738 1081.9 941.053 1086.98 938.349 C 1088.92 960.811 1091.17 995.119 1091.21 1017.39 C 1083.11 1001.31 1071.68 968.404 1064.2 950.19 z"/>
<path transform="translate(0,0)" fill="rgb(17,37,156)" d="M 1152.49 890.173 C 1168.76 930.306 1173.96 964.076 1166.53 1007.43 C 1165.01 1016.31 1158.9 1033.69 1158.7 1041.18 C 1155.53 1041.43 1151.44 1041.9 1148.35 1041.99 C 1151.35 1029.07 1155.53 1019.06 1158.14 1004.81 C 1163.58 975.875 1162.02 946.056 1153.61 917.84 C 1151.67 911.216 1149.06 902.662 1145.17 896.993 L 1152.49 890.173 z"/>
<path transform="translate(0,0)" fill="rgb(153,91,88)" d="M 893.987 1106.86 C 892.388 1131.28 883.557 1161.56 909.118 1167.94 C 909.547 1168.05 913.941 1194.47 928.292 1191.53 C 941.948 1190.11 946.378 1186.11 952.148 1174.96 C 961.644 1185.66 988.345 1214.69 994.066 1225.41 C 1004.56 1245.08 1010.36 1262.21 1024.09 1282.55 C 1058.78 1333.9 1094.94 1385.48 1128.72 1437.36 C 1101.97 1450.87 1082.53 1456.77 1054.03 1463.54 C 1053.67 1458.71 964.71 1278.27 954.32 1257.15 C 947.859 1255.48 940.851 1254.64 934.003 1252.61 C 893.544 1240.63 875.047 1219.25 855.181 1184.44 C 856.71 1173.18 857.783 1152.32 858.238 1140.47 C 877.157 1137.86 883.158 1120.86 893.987 1106.86 z"/>
<path transform="translate(0,0)" fill="rgb(230,230,229)" d="M 1427.47 1882.91 C 1465.18 1937.14 1505.75 1996.34 1546.79 2048 L 1415.38 2048 C 1419.53 1996.44 1425.31 1934.17 1427.47 1882.91 z"/>
<path transform="translate(0,0)" fill="rgb(153,91,88)" d="M 872 934.038 C 908.161 953.865 961.091 979.237 1002.7 969.992 C 1006.04 982.801 1009.45 995.592 1012.93 1008.36 C 998.721 1005.23 937.2 990.791 926.742 991.035 C 921.583 991.138 916.548 992.64 912.176 995.382 C 907.33 998.455 903.981 1002.39 900.773 1007.05 C 899.442 1004.86 890.725 995.903 888.258 993.005 C 880.822 984.272 876.016 977.132 869.862 967.606 C 870.106 957.244 871.204 944.401 872 934.038 z"/>
<path transform="translate(0,0)" fill="rgb(170,104,102)" d="M 869.862 967.606 C 876.016 977.132 880.822 984.272 888.258 993.005 C 890.725 995.903 899.442 1004.86 900.773 1007.05 C 888.97 1026.56 875.598 1048.1 863.079 1067.15 L 864.391 1049.03 L 864.932 1040.77 C 866.38 1016.37 868.024 991.979 869.862 967.606 z"/>
<path transform="translate(0,0)" fill="rgb(237,102,102)" d="M 902.807 804.148 C 920.925 803.235 940.17 801.951 958.216 801.917 C 961.192 814.06 964.353 826.157 967.698 838.203 C 954.33 842.653 909.603 817.931 902.054 805.952 L 902.807 804.148 z"/>
<path transform="translate(0,0)" fill="rgb(237,102,102)" d="M 1005.65 801.963 C 1022.38 802.213 1039.32 803.299 1056.04 804.231 L 1056.76 805.977 C 1052.21 814.864 1026.85 828.538 1017.54 832.459 L 1005.65 801.963 z"/>
<path transform="translate(0,0)" fill="rgb(237,102,102)" d="M 997.225 781.078 C 1014.72 779.535 1036.35 784.83 1052.12 794.26 C 1053.06 794.827 1053.66 796.048 1053.9 797.158 C 1036.81 796.604 1020.16 795.555 1003 795.327 L 997.225 781.078 z"/>
<path transform="translate(0,0)" fill="rgb(237,102,102)" d="M 904.67 797.14 C 911.983 787.663 940.484 780.864 952.46 780.863 L 956.196 795.081 L 904.67 797.14 z"/>
<path transform="translate(0,0)" fill="rgb(254,254,254)" d="M 1182.33 1237.31 C 1214.89 1246 1243.1 1247.17 1275.8 1250.53 C 1328.13 1255.75 1446.19 1272.74 1491.14 1302.37 C 1567.23 1352.54 1610.38 1511.51 1631.78 1595.02 C 1639.6 1625.53 1647.21 1656.77 1652.96 1685.32 C 1563.71 1602.09 1473.02 1520.4 1380.94 1440.31 L 1289.77 1361.2 C 1275.37 1348.76 1259.17 1335.51 1245.29 1322.89 C 1200.18 1283.7 1199.79 1295.92 1182.33 1237.31 z"/>
<path transform="translate(0,0)" fill="rgb(170,104,102)" d="M 1182.33 1237.31 C 1214.89 1246 1243.1 1247.17 1275.8 1250.53 C 1274.16 1252.64 1265.19 1280.47 1263.43 1284.88 C 1258.23 1297.94 1252.17 1310.64 1245.29 1322.89 C 1200.18 1283.7 1199.79 1295.92 1182.33 1237.31 z"/>
</svg>