<svg version="1.1" xmlns="http://www.w3.org/2000/svg" style="display: block;" viewBox="0 0 2048 1536" width="2000" height="1500" preserveAspectRatio="none">
<defs>
	<linearGradient id="Gradient1" gradientUnits="userSpaceOnUse" x1="962.498" y1="418.047" x2="962.608" y2="120.002">
		<stop class="stop0" offset="0" stop-opacity="1" stop-color="rgb(194,204,221)"/>
		<stop class="stop1" offset="1" stop-opacity="1" stop-color="rgb(248,247,248)"/>
	</linearGradient>
	<linearGradient id="Gradient2" gradientUnits="userSpaceOnUse" x1="975.508" y1="890.639" x2="971.273" y2="412.889">
		<stop class="stop0" offset="0" stop-opacity="1" stop-color="rgb(132,153,188)"/>
		<stop class="stop1" offset="1" stop-opacity="1" stop-color="rgb(194,204,220)"/>
	</linearGradient>
	<linearGradient id="Gradient3" gradientUnits="userSpaceOnUse" x1="807.602" y1="892.927" x2="804.009" y2="723.576">
		<stop class="stop0" offset="0" stop-opacity="1" stop-color="rgb(88,107,146)"/>
		<stop class="stop1" offset="1" stop-opacity="1" stop-color="rgb(114,129,160)"/>
	</linearGradient>
	<linearGradient id="Gradient4" gradientUnits="userSpaceOnUse" x1="564.269" y1="1036.11" x2="818.266" y2="1055.52">
		<stop class="stop0" offset="0" stop-opacity="1" stop-color="rgb(28,57,107)"/>
		<stop class="stop1" offset="1" stop-opacity="1" stop-color="rgb(60,82,128)"/>
	</linearGradient>
	<linearGradient id="Gradient5" gradientUnits="userSpaceOnUse" x1="1140.88" y1="891.291" x2="1144.3" y2="726.736">
		<stop class="stop0" offset="0" stop-opacity="1" stop-color="rgb(89,107,147)"/>
		<stop class="stop1" offset="1" stop-opacity="1" stop-color="rgb(113,129,160)"/>
	</linearGradient>
	<linearGradient id="Gradient6" gradientUnits="userSpaceOnUse" x1="1378.06" y1="1044.92" x2="1119.48" y2="1048.92">
		<stop class="stop0" offset="0" stop-opacity="1" stop-color="rgb(29,58,108)"/>
		<stop class="stop1" offset="1" stop-opacity="1" stop-color="rgb(69,89,133)"/>
	</linearGradient>
</defs>
<path transform="translate(0,0)" fill="rgb(100,128,170)" d="M 881.474 120.616 C 917.314 116.287 989.484 117.821 1024.45 124.96 C 1053.15 129.216 1081.79 133.944 1110.34 139.144 C 1154.13 146.952 1197.2 155.398 1241.76 158.673 C 1289.78 162.203 1336.18 157.368 1384.5 158.952 C 1479.77 162.076 1576.29 213.221 1633.52 289.487 C 1689.72 364.385 1673.2 433.577 1715.73 515.643 C 1722.16 526.282 1729.16 537.958 1737.71 547.001 C 1795.74 608.389 1888.02 623.175 1943.49 688.035 C 1951.8 697.754 1959.43 708.148 1966.48 718.824 C 1981.88 741.989 1994.12 767.106 2002.87 793.508 C 2021.01 848.773 2023.12 908.042 2008.98 964.459 C 1998.86 1005.89 1977.54 1053.81 1951.8 1088.08 C 1943.07 1100.65 1933.6 1112.68 1923.44 1124.12 C 1914.89 1134.62 1900.07 1149.44 1890.21 1159.23 C 1859.45 1189.58 1827.07 1218.25 1793.22 1245.12 C 1785.11 1251.56 1768.68 1264.89 1760.6 1269.83 C 1731.28 1291.51 1701 1311.85 1669.84 1330.79 C 1652.72 1341.46 1635.36 1351.19 1617.73 1360.97 C 1614.58 1362.72 1610.52 1364.79 1607.62 1366.86 C 1600.84 1366.08 1587.82 1366.39 1580.71 1366.41 L 1526.93 1366.62 C 1517.72 1366.65 1503.41 1367.02 1494.71 1366.07 C 1462.45 1367.63 1418 1366.86 1385.17 1366.34 C 1308.71 1366.67 1228.45 1367.43 1152.3 1366.34 C 1132.36 1366.77 1090.42 1367.39 1072.01 1365.81 L 1066.52 1367.77 C 1063.34 1364.79 1061.32 1361.1 1059.03 1357.4 C 1058.72 1340.37 1063.55 1296.73 1065.68 1278.8 C 1065.35 1277.6 1065.03 1277.27 1064.41 1276.16 L 1061.29 1275.87 C 1052.71 1279.18 1044.68 1281.27 1035.85 1283.72 L 1035.12 1291.15 C 1035.01 1312.96 1034.49 1334.77 1033.57 1356.57 L 1018.69 1378.34 C 1003.37 1379.22 988.154 1376.87 972.924 1378.56 C 978.113 1386.55 983.814 1394.38 988.65 1402.5 C 992.694 1409.3 991.842 1412.34 986.769 1417.64 C 977.54 1420.01 968.812 1419.9 959.662 1417.53 C 926.865 1417.01 893.218 1417.29 860.389 1417.55 C 655.396 1419.15 449.881 1415.55 244.94 1417.75 L 244.879 1366.62 C 297.53 1365.6 350.687 1367.37 403.392 1366.5 C 416.404 1366.29 430.682 1365.9 443.537 1366.77 C 441.21 1365 420.888 1357.24 416.726 1355.5 C 366.672 1334.55 315.954 1302.11 294.112 1250.32 C 283.133 1223.92 283.57 1209.72 278.107 1183.22 C 273.364 1160.44 267.003 1138.03 259.072 1116.16 C 243.675 1068.44 225.954 1052.65 193.672 1017.1 C 168.391 989.264 135.21 949.63 116.693 917.23 C 113.089 911.824 109.183 904.893 105.789 899.23 C 101.013 892.428 92.9648 876.602 89.1996 869.083 C 59.0253 809.201 42.9201 743.221 42.1114 676.172 C 41.9723 663.796 41.9248 648.528 43.6234 636.288 C 47.2199 572.332 70.8139 511.121 111.074 461.297 C 159.382 401.21 228.233 363.018 305.996 361.78 C 327.187 361.442 344.152 363.625 364.942 364.574 C 412.462 366.743 458.316 359.653 502.029 340.625 C 539.349 324.38 572.02 298.178 602.408 271.38 C 696.97 187.988 752.101 134.663 881.474 120.616 z"/>
<path transform="translate(0,0)" fill="rgb(100,128,170)" d="M 1024.45 124.96 C 1053.15 129.216 1081.79 133.944 1110.34 139.144 C 1154.13 146.952 1197.2 155.398 1241.76 158.673 C 1289.78 162.203 1336.18 157.368 1384.5 158.952 C 1479.77 162.076 1576.29 213.221 1633.52 289.487 C 1689.72 364.385 1673.2 433.577 1715.73 515.643 C 1722.16 526.282 1729.16 537.958 1737.71 547.001 C 1795.74 608.389 1888.02 623.175 1943.49 688.035 C 1951.8 697.754 1959.43 708.148 1966.48 718.824 C 1981.88 741.989 1994.12 767.106 2002.87 793.508 C 2021.01 848.773 2023.12 908.042 2008.98 964.459 C 1998.86 1005.89 1977.54 1053.81 1951.8 1088.08 C 1943.07 1100.65 1933.6 1112.68 1923.44 1124.12 C 1914.89 1134.62 1900.07 1149.44 1890.21 1159.23 C 1859.45 1189.58 1827.07 1218.25 1793.22 1245.12 C 1785.11 1251.56 1768.68 1264.89 1760.6 1269.83 C 1731.28 1291.51 1701 1311.85 1669.84 1330.79 C 1652.72 1341.46 1635.36 1351.19 1617.73 1360.97 C 1614.58 1362.72 1610.52 1364.79 1607.62 1366.86 C 1600.84 1366.08 1587.82 1366.39 1580.71 1366.41 L 1526.93 1366.62 C 1517.72 1366.65 1503.41 1367.02 1494.71 1366.07 C 1462.45 1367.63 1418 1366.86 1385.17 1366.34 C 1308.71 1366.67 1228.45 1367.43 1152.3 1366.34 C 1168.73 1297.92 1160.31 1270.31 1147.28 1203.07 C 1147.81 1201.96 1148.3 1200.84 1148.76 1199.71 C 1159.88 1172.43 1144.12 1120.02 1132.77 1093.85 C 1153.92 1079.53 1162.98 1059.86 1158.14 1034.59 C 1154.53 1015.76 1142.4 1002.55 1132.13 987.166 C 1137.82 982.322 1140.75 980.836 1147.41 977.387 C 1150.43 981.5 1154.28 993.417 1158.84 993.622 C 1159.39 988.768 1154.6 981.177 1152.15 977.115 L 1151.35 975.565 C 1132.28 942.05 1119.47 942.279 1113.59 895.748 C 1110.01 872.684 1114.63 868.673 1104.15 841.543 L 1101.1 836.063 C 1094.4 824.563 1089.72 819.554 1080.73 810.08 C 1082.12 801.331 1081.57 790.026 1083.95 781.049 C 1089 761.98 1099.3 745.11 1116.39 734.897 C 1131.46 726.02 1149.41 723.394 1166.4 727.581 C 1151.71 661.249 1134.9 593.816 1119.32 527.502 L 1102.95 457.712 C 1100.38 446.777 1096.72 428.886 1093.27 418.618 C 1092.16 410.097 1087.88 393.922 1085.83 385.293 L 1071.57 325.029 L 1024.45 124.96 z"/>
<path transform="translate(0,0)" fill="rgb(34,62,113)" d="M 1413.74 761.512 C 1411.11 769.295 1406.9 784.995 1401.09 790.094 C 1380.11 798.125 1347.16 772.595 1336.31 755.602 C 1335.01 753.565 1330.56 748.121 1328.92 746.619 C 1298.89 719.052 1265.53 684.087 1268.33 640.05 C 1272.07 602.932 1321.7 582.35 1354.05 596.796 C 1384.56 610.417 1389.55 626.122 1400.99 654.79 C 1406.77 669.27 1412.88 683.639 1418.8 697.457 L 1468.36 712.462 C 1483.4 663.762 1509.79 647.998 1559.8 669.166 C 1598.67 685.621 1632.48 718.447 1664.79 744.927 C 1676.74 754.848 1687.89 766.19 1699.65 776.237 C 1806.53 867.531 1872.36 995.085 1923.44 1124.12 C 1914.89 1134.62 1900.07 1149.44 1890.21 1159.23 C 1859.45 1189.58 1827.07 1218.25 1793.22 1245.12 C 1785.11 1251.56 1768.68 1264.89 1760.6 1269.83 C 1722.03 1194.77 1681.67 1120.65 1639.55 1047.52 C 1606.05 989.746 1561.19 913.812 1514.76 863.549 C 1501.31 848.989 1465.71 839.521 1455.09 817.513 C 1450.22 807.424 1449.91 805.122 1452.74 794.723 C 1451.92 792.818 1451.02 790.951 1450.04 789.126 C 1441.24 772.437 1431.01 766.771 1413.74 761.512 z"/>
<path transform="translate(0,0)" fill="rgb(100,128,170)" d="M 1365.77 639.183 C 1368.4 639.024 1368.63 639.224 1371.11 639.878 C 1377.6 648.336 1353.68 670.885 1347.51 677.305 L 1345.54 679.202 C 1344.12 678.183 1343.92 678.377 1343.64 676.477 C 1340.72 656.534 1344.98 643.949 1365.77 639.183 z"/>
<path transform="translate(0,0)" fill="rgb(100,128,170)" d="M 1301.71 680.15 C 1313.54 681.223 1317.65 688.22 1323.34 697.377 C 1318.57 697.2 1314.77 696.522 1310.07 695.768 C 1303.67 694.486 1292.39 693.344 1289.79 686.602 L 1291.04 684.364 C 1294.43 681.803 1297.65 681.248 1301.71 680.15 z"/>
<path transform="translate(0,0)" fill="url(#Gradient6)" d="M 1080.73 810.08 C 1082.12 801.331 1081.57 790.026 1083.95 781.049 C 1089 761.98 1099.3 745.11 1116.39 734.897 C 1131.46 726.02 1149.41 723.394 1166.4 727.581 L 1166.53 728.337 C 1174.72 726.66 1195.32 737.055 1202.55 741.945 C 1252.22 775.557 1241.23 850.575 1226.86 899.313 C 1231.1 911.621 1236.16 927.873 1240.89 939.661 C 1263.08 911.595 1298.84 886.104 1335.22 879.041 C 1340.28 878.057 1347.82 879.603 1351.44 883.217 C 1368.53 900.24 1370.47 953.011 1371.2 975.243 C 1373.75 1052.54 1367.68 1129.45 1369.3 1206.76 C 1369.97 1238.46 1373.92 1263.18 1378.07 1294.47 C 1381.16 1317.87 1382.86 1342.75 1385.17 1366.34 C 1308.71 1366.67 1228.45 1367.43 1152.3 1366.34 C 1168.73 1297.92 1160.31 1270.31 1147.28 1203.07 C 1147.81 1201.96 1148.3 1200.84 1148.76 1199.71 C 1159.88 1172.43 1144.12 1120.02 1132.77 1093.85 C 1153.92 1079.53 1162.98 1059.86 1158.14 1034.59 C 1154.53 1015.76 1142.4 1002.55 1132.13 987.166 C 1137.82 982.322 1140.75 980.836 1147.41 977.387 C 1150.43 981.5 1154.28 993.417 1158.84 993.622 C 1159.39 988.768 1154.6 981.177 1152.15 977.115 L 1151.35 975.565 C 1132.28 942.05 1119.47 942.279 1113.59 895.748 C 1110.01 872.684 1114.63 868.673 1104.15 841.543 L 1101.1 836.063 C 1094.4 824.563 1089.72 819.554 1080.73 810.08 z"/>
<path transform="translate(0,0)" fill="url(#Gradient5)" d="M 1080.73 810.08 C 1082.12 801.331 1081.57 790.026 1083.95 781.049 C 1089 761.98 1099.3 745.11 1116.39 734.897 C 1131.46 726.02 1149.41 723.394 1166.4 727.581 L 1166.53 728.337 C 1168.33 736.003 1178.38 781.889 1180.39 784.449 C 1182.18 788.561 1182.39 789.099 1182.14 793.557 C 1194.59 853.489 1211.65 914.764 1224.6 974.696 C 1227.27 987.006 1237.89 1026.2 1238.35 1035.86 L 1238.43 1032.89 L 1237.55 1034.22 C 1228.66 998.977 1221.2 962.931 1212.36 927.683 C 1210.25 919.277 1204.29 891.117 1201.5 884.514 L 1200.46 886.888 C 1168.96 897.443 1177.73 889.012 1145.8 887.056 C 1143.3 886.903 1124.06 889.62 1117.6 889.531 C 1126.96 908.134 1166.17 913.982 1175.18 926.907 C 1179.36 932.896 1185.85 964.369 1187.46 973.222 C 1171.75 973.241 1167.64 973.131 1152.15 977.115 L 1151.35 975.565 C 1132.28 942.05 1119.47 942.279 1113.59 895.748 C 1110.01 872.684 1114.63 868.673 1104.15 841.543 L 1101.1 836.063 C 1094.4 824.563 1089.72 819.554 1080.73 810.08 z"/>
<path transform="translate(0,0)" fill="rgb(134,154,189)" d="M 1113.59 895.748 C 1113.64 893.67 1113.71 891.683 1113.68 889.6 C 1118.14 890.863 1120.35 895.823 1123.26 898.402 C 1135.55 909.281 1159.87 917.959 1174.66 925.871 C 1178.39 940.959 1182.05 956.067 1185.61 971.196 C 1171.4 971.16 1165.31 971.998 1151.35 975.565 C 1132.28 942.05 1119.47 942.279 1113.59 895.748 z"/>
<path transform="translate(0,0)" fill="rgb(134,154,189)" d="M 1156.41 827.81 C 1150.59 805.159 1154.02 787.895 1180.39 784.449 C 1182.18 788.561 1182.39 789.099 1182.14 793.557 C 1173.45 808.055 1167.64 814.96 1156.41 827.81 z"/>
<path transform="translate(0,0)" fill="rgb(134,154,189)" d="M 1101.1 836.063 C 1117.7 824.134 1126.2 831.541 1136.22 846.217 C 1124.31 845.736 1115.82 844.75 1104.15 841.543 L 1101.1 836.063 z"/>
<path transform="translate(0,0)" fill="rgb(34,62,113)" d="M 1649.27 590.489 C 1632.41 591.6 1596.54 597.355 1582.32 593.956 C 1568.43 590.636 1552.21 579.659 1540.26 571.904 C 1518.99 558.107 1492.84 537.721 1487.52 511.656 C 1484.65 497.607 1488.43 483.982 1496.29 472.207 C 1507.69 455.125 1527.37 439.376 1547.88 435.452 C 1565.98 431.987 1582.58 437.98 1597.43 448.175 C 1609.07 456.163 1650.99 496.317 1657.52 508.371 C 1663.34 519.123 1665.49 531.406 1667.69 543.297 L 1682.92 556.058 C 1693.79 542.532 1704.72 529.06 1715.73 515.643 C 1722.16 526.282 1729.16 537.958 1737.71 547.001 C 1795.74 608.389 1888.02 623.175 1943.49 688.035 C 1951.8 697.754 1959.43 708.148 1966.48 718.824 C 1981.88 741.989 1994.12 767.106 2002.87 793.508 C 2021.01 848.773 2023.12 908.042 2008.98 964.459 C 1998.86 1005.89 1977.54 1053.81 1951.8 1088.08 C 1950.44 1084.6 1941.43 1069.78 1939.28 1066.17 C 1927.61 1046.77 1915.74 1027.5 1903.67 1008.36 C 1850.33 924.885 1794.07 843.309 1735 763.784 C 1717.92 740.695 1700.65 717.749 1683.19 694.95 C 1673.38 682.164 1663.2 669.649 1653.98 656.437 C 1638.22 633.859 1655.13 617.503 1672.04 604.012 L 1649.27 590.489 z"/>
<path transform="translate(0,0)" fill="rgb(100,128,170)" d="M 1580.68 496.916 C 1582.6 496.853 1583.43 497.114 1585.32 497.482 L 1586.44 499.492 C 1586.74 508.354 1576.74 521.813 1571.8 529.41 L 1571.04 530.127 L 1569.76 529.742 C 1562.53 515.659 1567.15 504.209 1580.68 496.916 z"/>
<path transform="translate(0,0)" fill="rgb(100,128,170)" d="M 1538.3 536.902 C 1543.69 537.022 1553.47 540.535 1555.03 546.202 L 1553.75 547.678 L 1548.51 548 C 1542.01 547.962 1535.85 548.592 1530.38 545.026 L 1529.95 542.968 C 1532.03 539.594 1534.69 538.757 1538.3 536.902 z"/>
<path transform="translate(0,0)" fill="rgb(34,62,113)" d="M 1464.05 1051.75 C 1457.91 1030.23 1450.14 1045.96 1439.44 1040 C 1403.05 1019.75 1373.39 967.112 1391.06 926.334 C 1402.68 899.54 1445.6 890.941 1470.47 903.328 C 1493.57 913.799 1505.25 951.042 1504.42 974.692 C 1503.4 1003.39 1505.22 1010.15 1514.38 1037.82 C 1531.14 1003.45 1559.04 967.928 1586.86 1019.68 C 1605.88 1055.07 1606.24 1057.74 1613.3 1098.06 C 1616.92 1118.83 1620.66 1139.58 1624.53 1160.31 C 1634.92 1218.28 1650.08 1275.3 1669.84 1330.79 C 1652.72 1341.46 1635.36 1351.19 1617.73 1360.97 C 1614.58 1362.72 1610.52 1364.79 1607.62 1366.86 C 1600.84 1366.08 1587.82 1366.39 1580.71 1366.41 L 1526.93 1366.62 C 1517.72 1366.65 1503.41 1367.02 1494.71 1366.07 C 1485.07 1322.09 1476.89 1281.35 1464.99 1237.4 C 1456.75 1201.64 1441.58 1166.21 1437.38 1129.69 C 1433.83 1098.87 1430.92 1065.09 1464.05 1051.75 z"/>
<path transform="translate(0,0)" fill="rgb(100,128,170)" d="M 1447.54 932.982 C 1451.63 932.998 1450.72 932.415 1453.74 934.278 C 1455.58 942.316 1441.91 956.725 1436.94 962.965 L 1435.38 964.081 L 1434.27 963.819 C 1427.38 951.126 1435.11 938.222 1447.54 932.982 z"/>
<path transform="translate(0,0)" fill="rgb(100,128,170)" d="M 1397.84 968.034 C 1405.57 967.045 1416.63 970.637 1416.87 979.298 L 1414.76 979.445 C 1408.79 978.939 1395.43 978.919 1392.42 973.125 C 1393.91 969.834 1394.26 970.435 1397.84 968.034 z"/>
<path transform="translate(0,0)" fill="url(#Gradient4)" d="M 783.088 722.17 C 832.363 722.335 858.323 753.637 858.758 802.51 C 859.047 834.929 837.51 872.874 815.855 896.544 C 865.999 881.575 863.877 820.394 898.958 783.247 C 956.806 721.993 1031.58 763.562 1080.73 810.08 C 1089.72 819.554 1094.4 824.563 1101.1 836.063 L 1104.15 841.543 C 1114.63 868.673 1110.01 872.684 1113.59 895.748 C 1119.47 942.279 1132.28 942.05 1151.35 975.565 L 1152.15 977.115 C 1154.6 981.177 1159.39 988.768 1158.84 993.622 C 1154.28 993.417 1150.43 981.5 1147.41 977.387 C 1140.75 980.836 1137.82 982.322 1132.13 987.166 C 1142.4 1002.55 1154.53 1015.76 1158.14 1034.59 C 1162.98 1059.86 1153.92 1079.53 1132.77 1093.85 C 1144.12 1120.02 1159.88 1172.43 1148.76 1199.71 C 1148.3 1200.84 1147.81 1201.96 1147.28 1203.07 C 1160.31 1270.31 1168.73 1297.92 1152.3 1366.34 C 1132.36 1366.77 1090.42 1367.39 1072.01 1365.81 L 1066.52 1367.77 C 1063.34 1364.79 1061.32 1361.1 1059.03 1357.4 C 1058.72 1340.37 1063.55 1296.73 1065.68 1278.8 C 1065.35 1277.6 1065.03 1277.27 1064.41 1276.16 L 1061.29 1275.87 C 1052.71 1279.18 1044.68 1281.27 1035.85 1283.72 L 1035.12 1291.15 C 1035.01 1312.96 1034.49 1334.77 1033.57 1356.57 L 1018.69 1378.34 C 1003.37 1379.22 988.154 1376.87 972.924 1378.56 C 978.113 1386.55 983.814 1394.38 988.65 1402.5 C 992.694 1409.3 991.842 1412.34 986.769 1417.64 C 977.54 1420.01 968.812 1419.9 959.662 1417.53 C 926.865 1417.01 893.218 1417.29 860.389 1417.55 C 655.396 1419.15 449.881 1415.55 244.94 1417.75 L 244.879 1366.62 C 297.53 1365.6 350.687 1367.37 403.392 1366.5 C 416.404 1366.29 430.682 1365.9 443.537 1366.77 L 444.377 1366.51 C 480.086 1365.21 519.345 1368.02 554.909 1366.21 C 556.697 1340.18 559.187 1314.2 562.377 1288.3 C 566.454 1255.67 570.345 1233.44 570.967 1199.84 C 572.682 1112.89 564.096 1025.54 570.987 938.719 C 572.398 920.943 577.747 870.292 604.284 875.467 C 641.618 882.746 675.4 907.114 699.222 936.168 C 704.061 924.168 709.061 908.275 713.383 895.801 C 710.947 888.793 708.684 880.112 707.102 872.716 C 697.452 827.608 694.609 765.577 739.045 737.597 C 750.557 730.349 769.44 722.669 782.821 722.861 L 783.088 722.17 z"/>
<path transform="translate(0,0)" fill="rgb(55,91,145)" d="M 815.855 896.544 C 865.999 881.575 863.877 820.394 898.958 783.247 C 956.806 721.993 1031.58 763.562 1080.73 810.08 C 1089.72 819.554 1094.4 824.563 1101.1 836.063 L 1104.15 841.543 C 1114.63 868.673 1110.01 872.684 1113.59 895.748 C 1119.47 942.279 1132.28 942.05 1151.35 975.565 L 1152.15 977.115 C 1154.6 981.177 1159.39 988.768 1158.84 993.622 C 1154.28 993.417 1150.43 981.5 1147.41 977.387 C 1140.75 980.836 1137.82 982.322 1132.13 987.166 C 1142.4 1002.55 1154.53 1015.76 1158.14 1034.59 C 1162.98 1059.86 1153.92 1079.53 1132.77 1093.85 C 1144.12 1120.02 1159.88 1172.43 1148.76 1199.71 C 1148.3 1200.84 1147.81 1201.96 1147.28 1203.07 C 1160.31 1270.31 1168.73 1297.92 1152.3 1366.34 C 1132.36 1366.77 1090.42 1367.39 1072.01 1365.81 L 1066.52 1367.77 C 1063.34 1364.79 1061.32 1361.1 1059.03 1357.4 C 1058.72 1340.37 1063.55 1296.73 1065.68 1278.8 C 1065.35 1277.6 1065.03 1277.27 1064.41 1276.16 L 1061.29 1275.87 C 1052.71 1279.18 1044.68 1281.27 1035.85 1283.72 L 1035.12 1291.15 C 1035.01 1312.96 1034.49 1334.77 1033.57 1356.57 L 1018.69 1378.34 C 1003.37 1379.22 988.154 1376.87 972.924 1378.56 C 978.113 1386.55 983.814 1394.38 988.65 1402.5 C 992.694 1409.3 991.842 1412.34 986.769 1417.64 C 977.54 1420.01 968.812 1419.9 959.662 1417.53 C 939.337 1402.82 940.112 1381.79 931.767 1377.77 C 925.508 1368.17 930.084 1360.41 934.142 1351.04 C 930.428 1330.32 927.836 1304.81 924.582 1283.45 L 911.803 1283.49 C 898.266 1243.65 890.471 1202.08 883.29 1160.72 C 881.509 1150.46 880.155 1123.64 876.395 1116.13 C 867.916 1148.03 863.435 1165.18 849.172 1194.91 C 829.805 1224.02 812.032 1214.76 804.584 1184.97 C 802.807 1174.61 803.074 1164.18 803.207 1153.73 C 803.882 1151.27 804.318 1146.28 804.689 1143.5 C 808.384 1115.81 815.281 1090.36 825.009 1064.25 C 820.055 1058.28 811.497 1049.07 805.973 1043.61 C 782.398 1018.91 772.747 1003.2 772.2 968.102 C 767.319 968.082 757.256 968.92 754.297 966.2 L 752.66 968.541 L 750.183 968.788 L 749.275 967.049 C 751.734 957.293 757.012 943.196 761.641 934.449 C 775.023 909.161 790.615 904.255 815.855 896.544 z"/>
<path transform="translate(0,0)" fill="rgb(34,62,113)" d="M 815.855 896.544 C 865.999 881.575 863.877 820.394 898.958 783.247 C 956.806 721.993 1031.58 763.562 1080.73 810.08 C 1089.72 819.554 1094.4 824.563 1101.1 836.063 L 1104.15 841.543 C 1114.63 868.673 1110.01 872.684 1113.59 895.748 C 1119.47 942.279 1132.28 942.05 1151.35 975.565 L 1152.15 977.115 C 1154.6 981.177 1159.39 988.768 1158.84 993.622 C 1154.28 993.417 1150.43 981.5 1147.41 977.387 C 1140.75 980.836 1137.82 982.322 1132.13 987.166 C 1142.4 1002.55 1154.53 1015.76 1158.14 1034.59 C 1162.98 1059.86 1153.92 1079.53 1132.77 1093.85 L 1131.35 1089.37 C 1130 1087.02 1126.26 1076.89 1125.05 1073.84 C 1113.14 1046.81 1100.22 1020.24 1086.31 994.183 L 1077.73 997.091 C 1071.61 982.443 1067.19 973.184 1054.1 964.454 C 1052.03 959.553 1040.79 950.914 1036.04 946.557 C 1036.6 929.676 1034.39 921.17 1025.57 906.512 L 1023.01 910.787 C 1027.47 919.49 1031.81 933.727 1027.81 943.165 L 1026.62 943.341 C 1023.38 936.714 1025.02 927.384 1020.48 916.085 C 997.786 956.042 970.266 965.444 940.623 926.093 L 931.933 930.153 L 931.345 930.131 C 929.672 931.79 930.128 931.796 928.149 932.553 C 915.97 932.952 877.388 963.009 867.407 974.354 C 854.929 988.537 858.147 990.275 850.643 1001.16 C 845.169 1016.37 836.901 1031.81 831.154 1047.7 L 826.639 1059.29 L 825.009 1064.25 C 820.055 1058.28 811.497 1049.07 805.973 1043.61 C 782.398 1018.91 772.747 1003.2 772.2 968.102 C 767.319 968.082 757.256 968.92 754.297 966.2 L 752.66 968.541 L 750.183 968.788 L 749.275 967.049 C 751.734 957.293 757.012 943.196 761.641 934.449 C 775.023 909.161 790.615 904.255 815.855 896.544 z"/>
<path transform="translate(0,0)" fill="rgb(245,152,112)" d="M 948.986 859.291 C 953.398 854.388 959.243 845.916 962.726 840.184 C 967.192 847.547 972.157 856.217 977.098 863.142 L 981.535 861.073 C 982.407 861.605 982.898 861.721 983.38 862.454 C 1001.12 875.457 1013.33 888.288 1025.57 906.512 L 1023.01 910.787 C 1027.47 919.49 1031.81 933.727 1027.81 943.165 L 1026.62 943.341 C 1023.38 936.714 1025.02 927.384 1020.48 916.085 C 997.786 956.042 970.266 965.444 940.623 926.093 C 932.801 913.979 930.457 907.089 925.771 893.754 L 923.72 886.218 C 933.885 876.737 940.772 870.625 948.986 859.291 z"/>
<path transform="translate(0,0)" fill="rgb(30,49,101)" d="M 977.098 863.142 L 981.535 861.073 C 982.407 861.605 982.898 861.721 983.38 862.454 C 1001.12 875.457 1013.33 888.288 1025.57 906.512 L 1023.01 910.787 C 1027.47 919.49 1031.81 933.727 1027.81 943.165 L 1026.62 943.341 C 1023.38 936.714 1025.02 927.384 1020.48 916.085 C 1013.55 901.244 989.48 879.653 977.098 863.142 z"/>
<path transform="translate(0,0)" fill="rgb(245,152,112)" d="M 983.38 862.454 C 1001.12 875.457 1013.33 888.288 1025.57 906.512 L 1023.01 910.787 C 1012.99 894.286 987.703 872.796 983.38 862.454 z"/>
<path transform="translate(0,0)" fill="rgb(134,154,189)" d="M 1084.54 836.263 C 1087.87 837.829 1094.16 855.371 1096.99 860.311 C 1100.59 866.594 1104.22 873.326 1108.01 879.616 C 1111.81 933.507 1117.54 934.214 1147.41 977.387 C 1140.75 980.836 1137.82 982.322 1132.13 987.166 C 1125.44 979.31 1105.34 962.733 1102.32 957.735 C 1096.83 948.65 1086.83 908.271 1084.85 895.934 C 1084.49 893.659 1086.33 875.801 1086.6 872.542 C 1087.74 858.628 1086.97 849.603 1084.54 836.263 z"/>
<path transform="translate(0,0)" fill="rgb(134,154,189)" d="M 754.297 966.2 C 767.722 922.765 778.5 910.667 821.578 899.556 C 850.312 892.145 861.779 861.122 872.589 835.965 C 868.104 860.667 859.911 891.036 837.191 904.784 C 803.596 925.112 778.387 921.492 772.2 968.102 C 767.319 968.082 757.256 968.92 754.297 966.2 z"/>
<path transform="translate(0,0)" fill="rgb(55,91,145)" d="M 1141.68 1008.3 C 1162.04 1037.15 1159.99 1067.62 1131.35 1089.37 C 1130 1087.02 1126.26 1076.89 1125.05 1073.84 C 1141.67 1053.78 1142.67 1033.4 1141.68 1008.3 z"/>
<path transform="translate(0,0)" fill="rgb(100,128,170)" d="M 1082.58 818.808 C 1100.95 838.645 1105.39 853.115 1108.01 879.616 C 1104.22 873.326 1100.59 866.594 1096.99 860.311 C 1094.16 855.371 1087.87 837.829 1084.54 836.263 C 1083.5 833.82 1083.23 832.256 1082.65 829.711 C 1083.89 826.967 1082.92 822.048 1082.58 818.808 z"/>
<path transform="translate(0,0)" fill="rgb(30,49,101)" d="M 931.345 930.131 C 926.371 920.455 920.162 903.925 925.771 893.754 C 930.457 907.089 932.801 913.979 940.623 926.093 L 931.933 930.153 L 931.345 930.131 z"/>
<path transform="translate(0,0)" fill="rgb(55,91,145)" d="M 821.132 1052.82 C 811.518 1043.17 798 1029.92 791.222 1018.43 C 801.04 1027.72 811.771 1036.01 823.252 1043.15 C 821.386 1046.88 821.507 1048.7 821.132 1052.82 z"/>
<path transform="translate(0,0)" fill="rgb(134,154,189)" d="M 821.132 1052.82 C 821.507 1048.7 821.386 1046.88 823.252 1043.15 L 831.154 1047.7 L 826.639 1059.29 C 824.864 1057.36 822.86 1054.86 821.132 1052.82 z"/>
<path transform="translate(0,0)" fill="rgb(134,154,189)" d="M 1073.96 809.835 C 1077.08 812.662 1079.74 815.704 1082.58 818.808 C 1082.92 822.048 1083.89 826.967 1082.65 829.711 C 1080.2 822.51 1077.24 816.647 1073.96 809.835 z"/>
<path transform="translate(0,0)" fill="rgb(245,152,112)" d="M 919.28 872.822 C 925.761 869.653 932.216 866.43 938.645 863.154 C 935.801 867.475 926.842 876.804 922.622 879.626 C 920.923 876.88 920.461 875.837 919.28 872.822 z"/>
<path transform="translate(0,0)" fill="rgb(55,91,145)" d="M 1037.74 954.981 C 1043.34 958.474 1048.14 961.528 1054.1 964.454 C 1067.19 973.184 1071.61 982.443 1077.73 997.091 L 1086.31 994.183 C 1100.22 1020.24 1113.14 1046.81 1125.05 1073.84 C 1126.26 1076.89 1130 1087.02 1131.35 1089.37 L 1132.77 1093.85 C 1144.12 1120.02 1159.88 1172.43 1148.76 1199.71 C 1148.3 1200.84 1147.81 1201.96 1147.28 1203.07 C 1160.31 1270.31 1168.73 1297.92 1152.3 1366.34 C 1132.36 1366.77 1090.42 1367.39 1072.01 1365.81 L 1066.52 1367.77 C 1063.34 1364.79 1061.32 1361.1 1059.03 1357.4 C 1058.72 1340.37 1063.55 1296.73 1065.68 1278.8 C 1065.35 1277.6 1065.03 1277.27 1064.41 1276.16 L 1061.29 1275.87 C 1052.71 1279.18 1044.68 1281.27 1035.85 1283.72 L 1035.12 1291.15 C 1034.56 1284.82 1035.59 1277.33 1034.49 1271.28 C 1020.48 1194.19 1003.46 1117.01 992.107 1039.44 C 990.868 1018.78 989.49 979.403 1014.42 970.565 C 1017.83 959.004 1027.09 958.565 1037.74 954.981 z"/>
<path transform="translate(0,0)" fill="rgb(34,62,113)" d="M 1065.68 1278.8 C 1066.64 1276.36 1065.89 1277.34 1068.04 1275.78 C 1069.39 1275.78 1071.16 1275.93 1072.46 1275.61 C 1079.29 1273.94 1088.85 1211.05 1089.87 1202.57 C 1090.98 1193.43 1091.09 1169.67 1094.77 1162.78 C 1102.2 1182.2 1107.8 1199.18 1124.79 1212.16 C 1127.01 1212.3 1129.25 1212.33 1131.47 1212.25 C 1139.17 1211.91 1142.5 1208.21 1147.28 1203.07 C 1160.31 1270.31 1168.73 1297.92 1152.3 1366.34 C 1132.36 1366.77 1090.42 1367.39 1072.01 1365.81 L 1066.52 1367.77 C 1063.34 1364.79 1061.32 1361.1 1059.03 1357.4 C 1058.72 1340.37 1063.55 1296.73 1065.68 1278.8 z"/>
<path transform="translate(0,0)" fill="rgb(100,128,170)" d="M 1124.79 1212.16 C 1127.01 1212.3 1129.25 1212.33 1131.47 1212.25 C 1139.17 1211.91 1142.5 1208.21 1147.28 1203.07 C 1160.31 1270.31 1168.73 1297.92 1152.3 1366.34 C 1132.36 1366.77 1090.42 1367.39 1072.01 1365.81 C 1129.86 1335.36 1133.94 1269.78 1124.79 1212.16 z"/>
<path transform="translate(0,0)" fill="rgb(240,73,79)" d="M 1077.73 997.091 L 1086.31 994.183 C 1100.22 1020.24 1113.14 1046.81 1125.05 1073.84 C 1126.26 1076.89 1130 1087.02 1131.35 1089.37 L 1132.77 1093.85 C 1144.12 1120.02 1159.88 1172.43 1148.76 1199.71 C 1148.3 1200.84 1147.81 1201.96 1147.28 1203.07 C 1142.5 1208.21 1139.17 1211.91 1131.47 1212.25 C 1129.25 1212.33 1127.01 1212.3 1124.79 1212.16 C 1107.8 1199.18 1102.2 1182.2 1094.77 1162.78 C 1089 1144.52 1055.35 1013.02 1063.29 1002.26 C 1068.04 1000.76 1073.03 998.823 1077.73 997.091 z"/>
<path transform="translate(0,0)" fill="rgb(245,152,112)" d="M 1037.74 954.981 C 1043.34 958.474 1048.14 961.528 1054.1 964.454 C 1067.19 973.184 1071.61 982.443 1077.73 997.091 C 1073.03 998.823 1068.04 1000.76 1063.29 1002.26 C 1063.47 998.311 1062.59 994.497 1061.91 990.579 C 1048.84 985.068 1046.07 982.649 1035.01 974.105 C 1029.9 973.694 1018.32 973.44 1014.42 970.565 C 1017.83 959.004 1027.09 958.565 1037.74 954.981 z"/>
<path transform="translate(0,0)" fill="rgb(198,122,94)" d="M 1035.85 1283.72 C 1035.72 1280.56 1035.61 1280.15 1036.43 1277.17 C 1041.43 1273.19 1053.94 1275.43 1061.29 1275.87 C 1052.71 1279.18 1044.68 1281.27 1035.85 1283.72 z"/>
<path transform="translate(0,0)" fill="rgb(237,28,36)" d="M 1025.57 906.512 C 1034.39 921.17 1036.6 929.676 1036.04 946.557 C 1040.79 950.914 1052.03 959.553 1054.1 964.454 C 1048.14 961.528 1043.34 958.474 1037.74 954.981 C 1027.09 958.565 1017.83 959.004 1014.42 970.565 C 989.49 979.403 990.868 1018.78 992.107 1039.44 C 991.608 1096.59 992.965 1155.4 991.622 1212.25 C 985.208 1175.63 980.435 1138.19 973.962 1101.83 C 966.97 1059.83 980.36 974.1 920.512 975.946 C 910.389 983.698 907.685 985.665 895.76 990.69 C 895.208 994.157 894.211 998.814 894.524 1002.18 C 900.598 1010.08 878.697 1100.17 876.395 1116.13 C 867.916 1148.03 863.435 1165.18 849.172 1194.91 C 829.805 1224.02 812.032 1214.76 804.584 1184.97 C 802.807 1174.61 803.074 1164.18 803.207 1153.73 C 803.882 1151.27 804.318 1146.28 804.689 1143.5 C 808.384 1115.81 815.281 1090.36 825.009 1064.25 L 826.639 1059.29 L 831.154 1047.7 C 836.901 1031.81 845.169 1016.37 850.643 1001.16 C 858.147 990.275 854.929 988.537 867.407 974.354 C 877.388 963.009 915.97 932.952 928.149 932.553 C 930.128 931.796 929.672 931.79 931.345 930.131 L 931.933 930.153 L 940.623 926.093 C 970.266 965.444 997.786 956.042 1020.48 916.085 C 1025.02 927.384 1023.38 936.714 1026.62 943.341 L 1027.81 943.165 C 1031.81 933.727 1027.47 919.49 1023.01 910.787 L 1025.57 906.512 z"/>
<path transform="translate(0,0)" fill="rgb(240,73,79)" d="M 871.874 994.244 C 874.649 995.154 877.659 996.427 880.405 997.507 C 885.04 999.056 889.874 1000.76 894.524 1002.18 C 900.598 1010.08 878.697 1100.17 876.395 1116.13 C 867.916 1148.03 863.435 1165.18 849.172 1194.91 C 829.805 1224.02 812.032 1214.76 804.584 1184.97 C 808.101 1181.83 864.955 1013.68 871.874 994.244 z"/>
<path transform="translate(0,0)" fill="rgb(245,152,112)" d="M 920.4 954.947 C 928.045 957.684 942.505 960.186 941.75 969.292 C 936.755 975.952 928.296 971.427 920.512 975.946 C 910.389 983.698 907.685 985.665 895.76 990.69 C 895.208 994.157 894.211 998.814 894.524 1002.18 C 889.874 1000.76 885.04 999.056 880.405 997.507 C 893.97 968.872 892.556 971.386 920.4 954.947 z"/>
<path transform="translate(0,0)" fill="rgb(30,49,101)" d="M 931.345 930.131 L 931.933 930.153 C 933.879 933.578 936.11 936.36 935.678 940.044 L 934.299 941.099 C 931.291 939.64 929.146 935.664 928.149 932.553 C 930.128 931.796 929.672 931.79 931.345 930.131 z"/>
<path transform="translate(0,0)" fill="rgb(34,62,113)" d="M 992.107 1039.44 C 1003.46 1117.01 1020.48 1194.19 1034.49 1271.28 C 1035.59 1277.33 1034.56 1284.82 1035.12 1291.15 C 1035.01 1312.96 1034.49 1334.77 1033.57 1356.57 L 1018.69 1378.34 C 1003.37 1379.22 988.154 1376.87 972.924 1378.56 C 978.113 1386.55 983.814 1394.38 988.65 1402.5 C 992.694 1409.3 991.842 1412.34 986.769 1417.64 C 977.54 1420.01 968.812 1419.9 959.662 1417.53 C 939.337 1402.82 940.112 1381.79 931.767 1377.77 C 925.508 1368.17 930.084 1360.41 934.142 1351.04 C 930.428 1330.32 927.836 1304.81 924.582 1283.45 L 927.884 1283.82 C 936.944 1283.31 944.701 1283.37 953.755 1283.48 C 955.996 1255.56 961.751 1225.64 963.951 1196.63 C 966.111 1168.14 969.075 1139.39 970.584 1110.71 C 970.767 1107.23 971.853 1104.61 973.962 1101.83 C 980.435 1138.19 985.208 1175.63 991.622 1212.25 C 992.965 1155.4 991.608 1096.59 992.107 1039.44 z"/>
<path transform="translate(0,0)" fill="rgb(245,152,112)" d="M 927.884 1283.82 C 936.944 1283.31 944.701 1283.37 953.755 1283.48 L 954.028 1293.52 C 957.301 1333.14 949.795 1344.73 972.924 1378.56 C 978.113 1386.55 983.814 1394.38 988.65 1402.5 C 992.694 1409.3 991.842 1412.34 986.769 1417.64 C 977.54 1420.01 968.812 1419.9 959.662 1417.53 C 939.337 1402.82 940.112 1381.79 931.767 1377.77 C 925.508 1368.17 930.084 1360.41 934.142 1351.04 C 930.428 1330.32 927.836 1304.81 924.582 1283.45 L 927.884 1283.82 z"/>
<path transform="translate(0,0)" fill="rgb(198,122,94)" d="M 927.884 1283.82 C 936.944 1283.31 944.701 1283.37 953.755 1283.48 L 954.028 1293.52 C 948.482 1292.08 932.778 1286.39 927.884 1283.82 z"/>
<path transform="translate(0,0)" fill="rgb(55,91,145)" d="M 787.85 1364.17 L 788.982 1366.06 C 800.16 1367.23 827.312 1366.45 839.433 1366.5 C 849.586 1366.54 877.546 1367.21 886.975 1366.17 C 903.041 1372.51 914.034 1376.42 931.767 1377.77 C 940.112 1381.79 939.337 1402.82 959.662 1417.53 C 926.865 1417.01 893.218 1417.29 860.389 1417.55 C 655.396 1419.15 449.881 1415.55 244.94 1417.75 L 244.879 1366.62 C 297.53 1365.6 350.687 1367.37 403.392 1366.5 C 416.404 1366.29 430.682 1365.9 443.537 1366.77 L 444.377 1366.51 C 480.086 1365.21 519.345 1368.02 554.909 1366.21 C 601.253 1367.43 650.726 1366.28 697.216 1366.39 L 752.201 1366.57 C 763.107 1366.6 774.585 1366.85 785.424 1366.1 C 786.987 1365.99 786.389 1365.97 787.85 1364.17 z"/>
<path transform="translate(0,0)" fill="url(#Gradient3)" d="M 783.088 722.17 C 832.363 722.335 858.323 753.637 858.758 802.51 C 859.047 834.929 837.51 872.874 815.855 896.544 C 790.615 904.255 775.023 909.161 761.641 934.449 C 757.012 943.196 751.734 957.293 749.275 967.049 L 750.183 968.788 L 752.66 968.541 L 754.297 966.2 C 757.256 968.92 767.319 968.082 772.2 968.102 C 772.747 1003.2 782.398 1018.91 805.973 1043.61 C 802.985 1043.29 798.625 1038.63 796.526 1036.27 C 779.011 1016.58 770.571 995.538 771 969.539 C 766.529 969.363 750.334 970.838 748.123 968.548 C 748.865 960.363 761.341 925.454 766.636 920.075 C 778.432 909.867 792.891 900.306 808.441 897.393 C 813.642 896.418 817.434 893.087 816.877 888.111 L 815.324 887.46 C 806.912 892.082 771.106 881.318 764.298 885.068 C 752.709 891.452 750.119 932.617 748.094 944.759 L 728.19 1061.34 C 725.423 1077.45 724.245 1092.85 720.456 1108.99 L 719.736 1108.9 C 720.645 1099.23 722.859 1090.69 724.351 1081.19 C 728.075 1056.88 732.012 1032.61 736.16 1008.38 L 769.218 807.434 L 769.043 806.763 C 769.961 801.197 771.346 788.923 773.637 784.655 L 773.233 784.054 C 774.696 767.906 780.142 739.577 782.821 722.861 L 783.088 722.17 z"/>
<path transform="translate(0,0)" fill="rgb(134,154,189)" d="M 773.637 784.655 C 788.706 795.65 787.823 807.998 783.745 824.497 L 769.218 807.434 L 769.043 806.763 C 769.961 801.197 771.346 788.923 773.637 784.655 z"/>
<path transform="translate(0,0)" fill="rgb(134,154,189)" d="M 819.211 827.123 C 825.813 826.453 832.664 826.671 837.348 831.985 C 838.33 839.174 830.286 839.508 824.758 840.651 C 818.241 841.807 810.575 842.254 803.899 842.813 C 809.2 834.641 811.039 832.258 819.211 827.123 z"/>
<path transform="translate(0,0)" fill="rgb(34,62,113)" d="M 876.395 1116.13 C 880.155 1123.64 881.509 1150.46 883.29 1160.72 C 890.471 1202.08 898.266 1243.65 911.803 1283.49 L 924.582 1283.45 C 927.836 1304.81 930.428 1330.32 934.142 1351.04 C 930.084 1360.41 925.508 1368.17 931.767 1377.77 C 914.034 1376.42 903.041 1372.51 886.975 1366.17 C 876.761 1360.61 868.168 1354.63 860.618 1345.64 C 830.157 1309.38 845.309 1239.08 849.172 1194.91 C 863.435 1165.18 867.916 1148.03 876.395 1116.13 z"/>
<path transform="translate(0,0)" fill="rgb(100,128,170)" d="M 787.85 1364.17 C 785.047 1350.49 778.342 1314.62 778.256 1301.64 C 778.031 1267.79 787.875 1225.8 794.259 1192.18 C 795.951 1183.26 800.386 1161.36 803.207 1153.73 C 803.074 1164.18 802.807 1174.61 804.584 1184.97 C 812.032 1214.76 829.805 1224.02 849.172 1194.91 C 845.309 1239.08 830.157 1309.38 860.618 1345.64 C 868.168 1354.63 876.761 1360.61 886.975 1366.17 C 877.546 1367.21 849.586 1366.54 839.433 1366.5 C 827.312 1366.45 800.16 1367.23 788.982 1366.06 L 787.85 1364.17 z"/>
<path transform="translate(0,0)" fill="rgb(100,128,170)" d="M 769.043 806.763 C 764.686 800.74 758.778 793.76 757.675 786.51 C 758.78 782.674 757.682 784.124 761.098 782.025 C 765.467 781.487 768.928 782.865 773.233 784.054 L 773.637 784.655 C 771.346 788.923 769.961 801.197 769.043 806.763 z"/>
<path transform="translate(0,0)" fill="url(#Gradient2)" d="M 832.62 419.137 C 838.236 418.645 844.148 414.857 847.004 414.97 C 863.91 415.641 880.634 415.659 897.54 415.66 C 946.25 415.219 994.965 415.481 1043.67 416.447 C 1059.25 416.662 1073.88 414.139 1090.32 414.549 C 1091.09 415.967 1091.35 416.329 1092.36 417.533 L 1093.27 418.618 C 1096.72 428.886 1100.38 446.777 1102.95 457.712 L 1119.32 527.502 C 1134.9 593.816 1151.71 661.249 1166.4 727.581 C 1149.41 723.394 1131.46 726.02 1116.39 734.897 C 1099.3 745.11 1089 761.98 1083.95 781.049 C 1081.57 790.026 1082.12 801.331 1080.73 810.08 C 1031.58 763.562 956.806 721.993 898.958 783.247 C 863.877 820.394 865.999 881.575 815.855 896.544 C 837.51 872.874 859.047 834.929 858.758 802.51 C 858.323 753.637 832.363 722.335 783.088 722.17 L 832.62 419.137 z"/>
<path transform="translate(0,0)" fill="rgb(34,62,113)" d="M 521.438 693.943 C 531.879 668.683 542.705 638.269 556.084 615.334 C 566.197 597.998 601.928 584.442 620.457 589.346 C 714.351 614.196 661.192 701.817 612.059 742.114 C 597.176 754.321 589.3 778.657 563.203 784.153 C 533.785 794.42 535.627 785.383 526.489 758.285 C 505.86 763.084 495.913 772.433 487.193 791.495 C 499.624 827.089 437.953 844.786 420.54 865.021 C 372.973 920.296 334.557 985.298 298.087 1048.28 C 289.774 1062.72 281.536 1077.2 273.373 1091.73 C 269.688 1098.25 263.116 1110.62 259.072 1116.16 C 243.675 1068.44 225.954 1052.65 193.672 1017.1 C 168.391 989.264 135.21 949.63 116.693 917.23 C 124.334 907.15 131.958 894.849 139.288 884.296 C 150.662 868.031 162.804 852.316 175.673 837.206 C 190.89 819.502 207.84 802.211 225.275 786.748 C 268.628 748.302 312.043 704.431 362.225 674.852 C 412.318 645.325 455.031 647.857 471.63 708.891 L 521.438 693.943 z"/>
<path transform="translate(0,0)" fill="rgb(100,128,170)" d="M 567.651 635.985 C 594.475 634.128 600.577 654.713 595.456 676.83 C 587.414 668.806 564.955 647.568 567.651 635.985 z"/>
<path transform="translate(0,0)" fill="rgb(100,128,170)" d="M 633.128 677.099 C 634.254 677.013 635.384 676.97 636.514 676.967 C 642.143 677.008 649.961 677.687 649.152 684.749 C 645.26 690.161 639.86 690.308 633.182 691.757 L 616.738 694.363 C 621.641 685.378 624.089 681.891 633.128 677.099 z"/>
<path transform="translate(0,0)" fill="rgb(34,62,113)" d="M 272.542 539.651 C 274.422 528.165 276.39 516.229 281.89 505.833 C 287.72 494.813 329.414 454.15 340.883 445.929 C 355.653 435.341 372.857 428.646 391.214 431.771 C 411.852 435.284 431.398 450.899 443.126 467.743 C 451.206 479.347 455.241 492.77 452.67 506.86 C 448.073 532.05 424.854 551.591 404.638 565.265 C 389.219 575.694 372.694 584.081 355.91 592.059 C 334.403 590.468 312.907 588.733 291.424 586.853 C 283.454 591.341 275.571 595.981 267.779 600.771 C 280.754 609.909 292.63 621.294 292.66 638.141 C 292.672 644.96 286.537 651.209 283.224 656.855 C 270.393 674.133 256.996 691.3 243.939 708.452 C 222.581 736.672 201.487 765.09 180.658 793.702 C 163.905 816.733 147.37 839.921 131.054 863.264 C 124.686 872.354 112.445 891.143 105.789 899.23 C 101.013 892.428 92.9648 876.602 89.1996 869.083 C 59.0253 809.201 42.9201 743.221 42.1114 676.172 C 41.9723 663.796 41.9248 648.528 43.6234 636.288 L 44.6344 638.233 C 49.2282 635.648 70.3796 615.178 76.2158 610.183 C 106.068 584.634 181.294 512.934 215.686 502.188 C 229.985 517.552 243.536 536.758 257.603 552.6 C 262.517 548.208 267.497 543.892 272.542 539.651 z"/>
<path transform="translate(0,0)" fill="rgb(100,128,170)" d="M 354.177 492.805 C 374.485 495.362 375.753 510.904 370.242 526.83 C 364.687 524.466 351.498 500.366 354.177 492.805 z"/>
<path transform="translate(0,0)" fill="rgb(100,128,170)" d="M 394.95 533.984 C 400.042 533.599 410.685 534.736 409.947 541.613 C 407.539 543.801 405.149 543.721 401.821 544.207 C 396.002 544.439 389.208 544.115 383.31 543.971 C 388.064 538.698 388.946 537.676 394.95 533.984 z"/>
<path transform="translate(0,0)" fill="rgb(34,62,113)" d="M 425.724 1034.24 C 427.639 1028.42 434.965 1008.13 435.051 1003.21 C 435.701 968.379 433.549 918.542 469.811 899.843 C 493.437 887.661 537.384 895.647 548.838 922.449 C 567.013 964.978 535.436 1019.87 496.237 1038.75 C 482.974 1035.62 480.272 1034.53 475.946 1048.58 C 529.897 1066.88 493.909 1166.64 483.145 1204.52 C 476.984 1226.21 471.224 1248.01 465.869 1269.91 C 460.896 1290.24 456.26 1310.65 451.963 1331.13 C 450.274 1339.19 446.515 1359.95 444.377 1366.51 L 443.537 1366.77 C 441.21 1365 420.888 1357.24 416.726 1355.5 C 366.672 1334.55 315.954 1302.11 294.112 1250.32 C 314.247 1187.13 319.898 1116.95 335.158 1052.66 C 338.496 1038.59 359.709 1000.54 372.419 992.215 C 394.918 979.805 416.985 1017.08 425.724 1034.24 z"/>
<path transform="translate(0,0)" fill="rgb(100,128,170)" d="M 484.986 929.47 C 506.419 928.955 509.258 942.978 506.449 960.528 L 505.223 960.789 C 497.677 955.589 486.59 939.045 484.986 929.47 z"/>
<path transform="translate(0,0)" fill="rgb(100,128,170)" d="M 534.113 963.959 C 539.643 963.833 544.042 964.304 547.146 969.131 L 546.39 971.443 C 543.493 973.857 540.712 973.961 536.93 974.699 C 531.65 975.796 526.554 975.935 521.177 976.247 C 525.888 969.52 527.244 967.853 534.113 963.959 z"/>
<path transform="translate(0,0)" fill="url(#Gradient1)" d="M 881.474 120.616 C 917.314 116.287 989.484 117.821 1024.45 124.96 L 1071.57 325.029 L 1085.83 385.293 C 1087.88 393.922 1092.16 410.097 1093.27 418.618 L 1092.36 417.533 C 1091.35 416.329 1091.09 415.967 1090.32 414.549 C 1073.88 414.139 1059.25 416.662 1043.67 416.447 C 994.965 415.481 946.25 415.219 897.54 415.66 C 880.634 415.659 863.91 415.641 847.004 414.97 C 844.148 414.857 838.236 418.645 832.62 419.137 C 846.192 347.699 855.454 274.164 868.362 202.46 C 873.108 176.094 878.174 147.084 881.474 120.616 z"/>
<path transform="translate(0,0)" fill="rgb(55,91,145)" d="M 1061.29 1275.87 L 1064.41 1276.16 C 1065.03 1277.27 1065.35 1277.6 1065.68 1278.8 C 1063.55 1296.73 1058.72 1340.37 1059.03 1357.4 C 1061.32 1361.1 1063.34 1364.79 1066.52 1367.77 L 1072.01 1365.81 C 1090.42 1367.39 1132.36 1366.77 1152.3 1366.34 C 1228.45 1367.43 1308.71 1366.67 1385.17 1366.34 C 1418 1366.86 1462.45 1367.63 1494.71 1366.07 C 1503.41 1367.02 1517.72 1366.65 1526.93 1366.62 L 1580.71 1366.41 C 1587.82 1366.39 1600.84 1366.08 1607.62 1366.86 C 1658.34 1364.24 1716.8 1368.16 1768.94 1366.15 L 1768.98 1417.59 L 1229.05 1417.59 L 1069.32 1417.55 C 1044 1417.54 1011.41 1416.58 986.769 1417.64 C 991.842 1412.34 992.694 1409.3 988.65 1402.5 C 983.814 1394.38 978.113 1386.55 972.924 1378.56 C 988.154 1376.87 1003.37 1379.22 1018.69 1378.34 L 1033.57 1356.57 C 1034.49 1334.77 1035.01 1312.96 1035.12 1291.15 L 1035.85 1283.72 C 1044.68 1281.27 1052.71 1279.18 1061.29 1275.87 z"/>
<path transform="translate(0,0)" fill="rgb(245,152,112)" d="M 1061.29 1275.87 L 1064.41 1276.16 C 1065.03 1277.27 1065.35 1277.6 1065.68 1278.8 C 1063.55 1296.73 1058.72 1340.37 1059.03 1357.4 C 1061.32 1361.1 1063.34 1364.79 1066.52 1367.77 C 1074.08 1382.2 1056.88 1391.24 1047.92 1399.52 C 1029.26 1416.77 1022.64 1419.53 1001.67 1402.65 C 1006.84 1395.25 1013.33 1385.31 1018.69 1378.34 L 1033.57 1356.57 C 1034.49 1334.77 1035.01 1312.96 1035.12 1291.15 L 1035.85 1283.72 C 1044.68 1281.27 1052.71 1279.18 1061.29 1275.87 z"/>
</svg>