<svg version="1.1" xmlns="http://www.w3.org/2000/svg" style="display: block;" viewBox="0 0 2048 2048" width="2000" height="2000" preserveAspectRatio="none">
<path transform="translate(0,0)" fill="rgb(233,251,250)" d="M 559.846 472.213 C 562.393 471.696 565.824 468.555 567.889 466.834 C 575.29 460.668 582.134 453.814 589.478 447.568 C 613.74 426.932 638.856 406.295 664.172 386.946 C 684.075 371.733 705.977 357.785 727.06 344.264 C 835.705 274.589 941.453 227.868 1067.29 198.407 C 1124.29 185.06 1182.15 175.965 1240.93 177.422 C 1270.74 178.161 1299.59 180.898 1328.95 186.198 C 1364.74 192.659 1451.13 217.305 1475.53 242.954 C 1536.28 197.334 1612.78 177.954 1687.92 189.146 C 1769.16 201.151 1839.22 246.244 1886.55 312.342 C 1936.87 382.616 1962.05 462.07 1948.17 548.513 C 1940.17 598.282 1920.13 640.023 1890.54 679.766 C 1900.88 686.403 1907.49 704.441 1913.26 715.455 C 1943.53 773.046 1964.68 833.064 1977.81 896.616 C 1999.13 999.781 1980.1 1104.01 1921.08 1191.16 C 1864.35 1274.91 1780.91 1330.5 1688.63 1368.25 C 1661.03 1379.54 1633.42 1390.99 1604.36 1398.41 C 1597.28 1400.35 1591.84 1400.37 1585.13 1397.6 C 1579.09 1400.73 1573.89 1405.02 1568.14 1408.76 C 1566.01 1425.9 1564.86 1443.16 1564.71 1460.43 C 1572.71 1434.52 1601.92 1393.69 1625.8 1430.25 C 1626.94 1441.07 1626.94 1446.46 1619.6 1456.04 C 1609.3 1469.49 1586 1476.49 1569.58 1478.1 C 1568.33 1478.22 1567.08 1478.3 1565.82 1478.34 C 1565.72 1498.53 1567.24 1525.05 1573.23 1544.34 C 1573.87 1521.8 1585.96 1486.42 1613.77 1484.11 C 1624.97 1483.18 1635.07 1497.56 1633.41 1507.92 C 1630.7 1535.36 1599.73 1547.23 1576.96 1552.17 C 1586.15 1581.4 1594.17 1594.99 1605.87 1621.76 C 1607.31 1603.11 1614.57 1579.4 1629.42 1566.48 C 1637.29 1559.64 1642.6 1559.62 1652.36 1560.23 C 1686 1581.82 1654.71 1611.66 1629.84 1621.75 C 1623.4 1624.36 1615.35 1625.38 1608.6 1627.88 C 1618.19 1645.79 1638.08 1680.02 1643.37 1698.24 C 1646.62 1677.62 1659.92 1635.76 1687.83 1641.46 C 1693.62 1642.64 1698.68 1646.11 1701.86 1651.09 C 1713.25 1669.27 1692.78 1688.88 1677.73 1696.83 C 1668.72 1701.65 1659.08 1705.19 1649.1 1707.37 C 1656.71 1723.65 1667.11 1754.79 1671.34 1772.5 C 1674.28 1761.27 1676.4 1751.99 1681.4 1740.9 C 1690.22 1721.35 1713.42 1710.11 1723.89 1735.42 C 1731.36 1753.47 1737.78 1771.74 1735.67 1791.97 C 1744.93 1767.89 1750.66 1751.76 1755.73 1726.22 C 1728.45 1717.5 1700.97 1704.79 1704.13 1670.79 C 1731.38 1633.98 1754.36 1677.65 1760.27 1704.27 C 1763.11 1680.29 1766.29 1656.42 1768.81 1632.41 C 1751.3 1628.21 1731.61 1620.05 1721.31 1604.33 C 1713.6 1592.58 1713.53 1574.43 1726.76 1566.47 C 1731.2 1563.75 1736.58 1563.03 1741.59 1564.47 C 1751.2 1567.16 1757.43 1576.17 1761.83 1584.58 C 1766.12 1592.83 1769.42 1601.56 1771.66 1610.58 C 1774.98 1590.13 1778.91 1567.08 1785.64 1547.46 C 1766.04 1540.51 1745.38 1531.45 1734.82 1512.54 C 1723.88 1492.95 1741.62 1468.73 1762.33 1479.43 C 1782.86 1490.03 1788.95 1517.74 1788.87 1538.37 C 1795.79 1512.28 1806.86 1500.22 1817.69 1478.07 C 1798.31 1465.91 1785.3 1457.5 1778.65 1434.28 C 1772.29 1412.05 1793.89 1391.82 1812.38 1405.88 C 1829.33 1418.78 1827.43 1450.85 1823.81 1468.7 C 1832.44 1455.77 1856.36 1429.68 1860.11 1417.18 C 1867.94 1391.13 1882.71 1367.1 1913.29 1369.28 C 1927.03 1379.9 1931.46 1393.6 1918.91 1407.63 C 1904.36 1423.9 1882.12 1428.53 1861.17 1425.92 C 1850.15 1439.26 1840.75 1453.65 1829.58 1466.64 C 1845.36 1455.15 1880.23 1436.57 1895.1 1458.54 C 1898.15 1463.12 1899.27 1468.72 1898.21 1474.12 C 1894.29 1494.11 1866.47 1497.93 1850.15 1493.57 C 1839.75 1490.79 1831.62 1487 1821.9 1482.53 C 1812.97 1497.07 1799.5 1522.7 1794.39 1538.66 C 1799.59 1532.55 1802.81 1529.46 1808.86 1524.33 C 1823.61 1511.84 1866.72 1499.15 1867.83 1530.16 C 1868.06 1536.78 1865.54 1543.19 1860.87 1547.88 C 1843.51 1565.64 1812.15 1559.95 1792.32 1549.88 C 1783.41 1576.71 1782.17 1597.93 1777.1 1624.22 C 1790.01 1606.71 1823.14 1579.72 1844.95 1596.47 C 1849.71 1600.15 1852.67 1605.67 1853.1 1611.67 C 1854.64 1632.15 1831.83 1641.15 1814.81 1640.8 C 1800.87 1640.51 1789.77 1636.36 1776.99 1631.31 C 1776.11 1650.83 1772.6 1690.08 1768.39 1708.78 C 1782.42 1692.06 1814.3 1666.38 1837.03 1686 C 1840.64 1689.11 1842.44 1695.9 1842.34 1700.65 C 1842.18 1707.57 1839.12 1714.11 1833.91 1718.68 C 1816.3 1734.32 1787.39 1726.9 1767.64 1720.61 C 1762 1747.63 1759.07 1759.27 1750.57 1785.35 C 1767.82 1767.59 1808.85 1737.62 1817.32 1780.27 C 1806.2 1814.94 1773.85 1815.4 1743.86 1807.35 C 1741.45 1813.32 1737.29 1824.37 1734.23 1829.88 L 1846.02 1829.25 C 1870.35 1828.91 1895.27 1829.12 1919.66 1829.28 C 1921.32 1829.29 1922.55 1830.18 1923.87 1831.08 L 1924.99 1833 L 1924.19 1834.45 C 1918.42 1835.96 1912.67 1834.86 1906.75 1834.97 C 1863.76 1835.77 1820.63 1834.18 1777.68 1834.63 L 1157.72 1835.33 L 983.795 1835.65 C 974.046 1835.7 943.005 1833.91 934.922 1835.48 C 924.691 1846.48 904.275 1853.22 890.074 1859.07 C 803.69 1894.62 712.229 1894.51 623.012 1869.8 C 605.375 1864.92 559.895 1850.1 550.944 1834.34 C 494.35 1835.25 436.937 1833.84 380.227 1834.53 C 371.028 1834.64 309.986 1835.13 304.639 1833.62 L 303.784 1832.06 L 304.815 1830.45 C 312.691 1829.12 347.411 1829.76 357.068 1829.77 C 396.63 1830.04 436.193 1829.89 475.752 1829.31 C 491.072 1829.16 511.445 1830.55 526.242 1828.83 C 519.988 1824.3 511.774 1820.21 505.101 1815.91 C 396.92 1746.25 316.342 1635.97 270.337 1516.81 C 265.54 1504.38 261.024 1487.15 254.7 1475.74 L 253.169 1471.06 C 249.233 1445.66 238.024 1419.88 234.009 1393.34 C 229.029 1361.59 219.127 1318.52 216.461 1288.04 C 214.099 1261.04 205.105 1152.66 218.172 1133.38 C 192.897 1133.33 167.622 1133.48 142.35 1133.82 C 144.104 1063.44 143.012 984.945 142.556 914.408 C 147.826 914.702 149.634 915.679 153.318 911.757 C 153.697 908.888 153.508 909.349 154.459 906.667 C 171.05 904.868 196.332 905.666 213.333 905.819 C 233.755 905.843 254.177 905.755 274.598 905.554 C 275.272 889.411 303.499 842.369 311.426 825.035 L 313.82 820.364 C 320.384 803.163 350.124 740.947 364.979 733.549 C 364.11 677.262 361.287 673.809 419.843 673.979 L 478.85 674.157 C 490.162 674.189 505.545 674.607 516.592 673.548 L 517.911 673.41 C 520.278 673.387 526.421 673.553 527.773 672.149 C 540.358 659.083 540.466 652.067 556.249 641.276 C 559.189 637.633 558.059 621.506 558.04 615.786 L 558.088 523.996 C 558.117 513.076 557.488 481.151 559.846 472.213 z M 1499.15 1829.07 C 1556.04 1827.97 1615.01 1831.05 1671.97 1829.11 C 1669.58 1819.42 1667.66 1809.49 1665.66 1799.71 C 1651.79 1801.05 1639.79 1802.21 1626.04 1798.92 C 1609.58 1794.98 1588.99 1780.27 1595.35 1760.77 C 1597.08 1755.58 1600.8 1751.28 1605.69 1748.82 C 1629.03 1737.12 1654.31 1767.32 1662.94 1786.32 C 1659.73 1770.23 1656.83 1756.78 1651.71 1741.06 C 1649.39 1733.93 1645.42 1725.12 1643.72 1718.61 C 1617.87 1729.01 1578.22 1728.03 1570.87 1694.73 L 1571.1 1693.86 L 1571.49 1692.41 C 1580.51 1658.34 1618.25 1680.12 1633.91 1696.28 C 1623.37 1675.58 1614.76 1656.15 1603.29 1635.17 C 1577.91 1648.29 1537.3 1643.48 1529.54 1610.76 C 1537.96 1575.29 1576.03 1593.52 1593.01 1611.56 C 1587.9 1600.27 1573.05 1563.97 1570.55 1552.3 C 1548.54 1560.22 1517.64 1561.92 1500.48 1543.02 C 1489.64 1531.08 1494.84 1518.24 1506.45 1509.35 C 1534.66 1506.01 1551.33 1518.88 1566.6 1540.68 C 1561.7 1519.64 1560.48 1499.34 1560.18 1477.87 C 1557.82 1477.78 1555.46 1477.68 1553.11 1477.55 C 1524.63 1476.08 1490.96 1468.29 1493.76 1431.99 C 1483.42 1437.52 1471.88 1441.26 1460.42 1443.66 C 1465.3 1460.74 1470.3 1478.17 1473.97 1495.6 C 1492.94 1585.62 1491.19 1679.66 1497.02 1771.16 C 1498.22 1790.02 1499.06 1810.24 1499.15 1829.07 z M 1698.65 1784.08 C 1689.48 1789.77 1686.63 1790.46 1676.59 1794.38 C 1679.67 1806.21 1681.58 1817.68 1684.48 1829.15 C 1692.57 1829.31 1702.29 1829.76 1710.25 1829.59 C 1713.95 1829.57 1717.77 1829.5 1721.45 1829.69 C 1724.24 1822.27 1727.88 1811.67 1731.33 1804.83 C 1717.72 1797.9 1710.26 1794.34 1698.65 1784.08 z M 1560.49 1471.73 C 1560.31 1449.65 1562.38 1431.76 1565.41 1410.01 C 1556.95 1418.79 1534.31 1421.02 1522.68 1421.07 C 1545.47 1433.39 1555.71 1446.1 1560.49 1471.73 z"/>
<path transform="translate(0,0)" fill="rgb(0,0,0)" d="M 1001.86 625.098 C 1029.29 601.292 1087.34 580.1 1123.5 576.692 C 1145.43 574.517 1170.94 575.4 1188.84 589.953 C 1200.27 599.24 1197.14 608.372 1188.4 618.189 C 1219.24 626.486 1242.5 631.144 1270.1 648.777 C 1309.3 673.823 1338.48 700.62 1359.59 742.297 C 1361.4 740.565 1363.35 738.983 1365.42 737.567 C 1392.05 719.689 1413.51 744.557 1422.5 767.937 C 1433.72 797.099 1410.93 817.371 1381.97 809.641 C 1394.54 873.941 1386.15 929.293 1351.16 985.389 C 1341.43 1001 1324.29 1023.18 1317.09 1039.12 C 1328.69 1065.3 1331.22 1082.25 1303.35 1098.94 L 1306.99 1111.18 C 1310.83 1110.51 1311.73 1110.24 1315.55 1110.51 C 1322.71 1114.1 1325.01 1123.86 1328.59 1131.25 C 1353.47 1138.38 1345.22 1158.95 1353.24 1177.87 C 1357.34 1187.54 1367.26 1197.79 1372.61 1207.09 C 1379 1218.18 1384.49 1230.15 1389.52 1241.93 C 1408.97 1287.89 1426.42 1334.67 1441.84 1382.13 C 1445.14 1392.22 1448.6 1402.58 1451.51 1412.75 C 1454.37 1422.78 1456.18 1432.34 1459.87 1442.2 L 1460.42 1443.66 C 1465.3 1460.74 1470.3 1478.17 1473.97 1495.6 C 1492.94 1585.62 1491.19 1679.66 1497.02 1771.16 C 1498.22 1790.02 1499.06 1810.24 1499.15 1829.07 C 1556.04 1827.97 1615.01 1831.05 1671.97 1829.11 C 1669.58 1819.42 1667.66 1809.49 1665.66 1799.71 C 1651.79 1801.05 1639.79 1802.21 1626.04 1798.92 C 1609.58 1794.98 1588.99 1780.27 1595.35 1760.77 C 1597.08 1755.58 1600.8 1751.28 1605.69 1748.82 C 1629.03 1737.12 1654.31 1767.32 1662.94 1786.32 C 1659.73 1770.23 1656.83 1756.78 1651.71 1741.06 C 1649.39 1733.93 1645.42 1725.12 1643.72 1718.61 C 1617.87 1729.01 1578.22 1728.03 1570.87 1694.73 L 1571.1 1693.86 L 1571.49 1692.41 C 1580.51 1658.34 1618.25 1680.12 1633.91 1696.28 C 1623.37 1675.58 1614.76 1656.15 1603.29 1635.17 C 1577.91 1648.29 1537.3 1643.48 1529.54 1610.76 C 1537.96 1575.29 1576.03 1593.52 1593.01 1611.56 C 1587.9 1600.27 1573.05 1563.97 1570.55 1552.3 C 1548.54 1560.22 1517.64 1561.92 1500.48 1543.02 C 1489.64 1531.08 1494.84 1518.24 1506.45 1509.35 C 1534.66 1506.01 1551.33 1518.88 1566.6 1540.68 C 1561.7 1519.64 1560.48 1499.34 1560.18 1477.87 C 1557.82 1477.78 1555.46 1477.68 1553.11 1477.55 C 1524.63 1476.08 1490.96 1468.29 1493.76 1431.99 C 1509.38 1414.72 1515.32 1423.9 1522.68 1421.07 C 1545.47 1433.39 1555.71 1446.1 1560.49 1471.73 C 1560.31 1449.65 1562.38 1431.76 1565.41 1410.01 C 1566.39 1406.68 1560.76 1392.3 1560.19 1385.98 C 1558.52 1367.55 1561.17 1336.23 1584.63 1333.77 C 1589.74 1333.23 1593.51 1334.87 1597.59 1337.85 C 1616.55 1351.7 1601.08 1380.04 1588.65 1393.11 C 1586.79 1395.06 1586.28 1394.87 1585.13 1397.6 C 1579.09 1400.73 1573.89 1405.02 1568.14 1408.76 C 1566.01 1425.9 1564.86 1443.16 1564.71 1460.43 C 1572.71 1434.52 1601.92 1393.69 1625.8 1430.25 C 1626.94 1441.07 1626.94 1446.46 1619.6 1456.04 C 1609.3 1469.49 1586 1476.49 1569.58 1478.1 C 1568.33 1478.22 1567.08 1478.3 1565.82 1478.34 C 1565.72 1498.53 1567.24 1525.05 1573.23 1544.34 C 1573.87 1521.8 1585.96 1486.42 1613.77 1484.11 C 1624.97 1483.18 1635.07 1497.56 1633.41 1507.92 C 1630.7 1535.36 1599.73 1547.23 1576.96 1552.17 C 1586.15 1581.4 1594.17 1594.99 1605.87 1621.76 C 1607.31 1603.11 1614.57 1579.4 1629.42 1566.48 C 1637.29 1559.64 1642.6 1559.62 1652.36 1560.23 C 1686 1581.82 1654.71 1611.66 1629.84 1621.75 C 1623.4 1624.36 1615.35 1625.38 1608.6 1627.88 C 1618.19 1645.79 1638.08 1680.02 1643.37 1698.24 C 1646.62 1677.62 1659.92 1635.76 1687.83 1641.46 C 1693.62 1642.64 1698.68 1646.11 1701.86 1651.09 C 1713.25 1669.27 1692.78 1688.88 1677.73 1696.83 C 1668.72 1701.65 1659.08 1705.19 1649.1 1707.37 C 1656.71 1723.65 1667.11 1754.79 1671.34 1772.5 C 1674.28 1761.27 1676.4 1751.99 1681.4 1740.9 C 1690.22 1721.35 1713.42 1710.11 1723.89 1735.42 C 1731.36 1753.47 1737.78 1771.74 1735.67 1791.97 C 1744.93 1767.89 1750.66 1751.76 1755.73 1726.22 C 1728.45 1717.5 1700.97 1704.79 1704.13 1670.79 C 1731.38 1633.98 1754.36 1677.65 1760.27 1704.27 C 1763.11 1680.29 1766.29 1656.42 1768.81 1632.41 C 1751.3 1628.21 1731.61 1620.05 1721.31 1604.33 C 1713.6 1592.58 1713.53 1574.43 1726.76 1566.47 C 1731.2 1563.75 1736.58 1563.03 1741.59 1564.47 C 1751.2 1567.16 1757.43 1576.17 1761.83 1584.58 C 1766.12 1592.83 1769.42 1601.56 1771.66 1610.58 C 1774.98 1590.13 1778.91 1567.08 1785.64 1547.46 C 1766.04 1540.51 1745.38 1531.45 1734.82 1512.54 C 1723.88 1492.95 1741.62 1468.73 1762.33 1479.43 C 1782.86 1490.03 1788.95 1517.74 1788.87 1538.37 C 1795.79 1512.28 1806.86 1500.22 1817.69 1478.07 C 1798.31 1465.91 1785.3 1457.5 1778.65 1434.28 C 1772.29 1412.05 1793.89 1391.82 1812.38 1405.88 C 1829.33 1418.78 1827.43 1450.85 1823.81 1468.7 C 1832.44 1455.77 1856.36 1429.68 1860.11 1417.18 C 1867.94 1391.13 1882.71 1367.1 1913.29 1369.28 C 1927.03 1379.9 1931.46 1393.6 1918.91 1407.63 C 1904.36 1423.9 1882.12 1428.53 1861.17 1425.92 C 1850.15 1439.26 1840.75 1453.65 1829.58 1466.64 C 1845.36 1455.15 1880.23 1436.57 1895.1 1458.54 C 1898.15 1463.12 1899.27 1468.72 1898.21 1474.12 C 1894.29 1494.11 1866.47 1497.93 1850.15 1493.57 C 1839.75 1490.79 1831.62 1487 1821.9 1482.53 C 1812.97 1497.07 1799.5 1522.7 1794.39 1538.66 C 1799.59 1532.55 1802.81 1529.46 1808.86 1524.33 C 1823.61 1511.84 1866.72 1499.15 1867.83 1530.16 C 1868.06 1536.78 1865.54 1543.19 1860.87 1547.88 C 1843.51 1565.64 1812.15 1559.95 1792.32 1549.88 C 1783.41 1576.71 1782.17 1597.93 1777.1 1624.22 C 1790.01 1606.71 1823.14 1579.72 1844.95 1596.47 C 1849.71 1600.15 1852.67 1605.67 1853.1 1611.67 C 1854.64 1632.15 1831.83 1641.15 1814.81 1640.8 C 1800.87 1640.51 1789.77 1636.36 1776.99 1631.31 C 1776.11 1650.83 1772.6 1690.08 1768.39 1708.78 C 1782.42 1692.06 1814.3 1666.38 1837.03 1686 C 1840.64 1689.11 1842.44 1695.9 1842.34 1700.65 C 1842.18 1707.57 1839.12 1714.11 1833.91 1718.68 C 1816.3 1734.32 1787.39 1726.9 1767.64 1720.61 C 1762 1747.63 1759.07 1759.27 1750.57 1785.35 C 1767.82 1767.59 1808.85 1737.62 1817.32 1780.27 C 1806.2 1814.94 1773.85 1815.4 1743.86 1807.35 C 1741.45 1813.32 1737.29 1824.37 1734.23 1829.88 L 1846.02 1829.25 C 1870.35 1828.91 1895.27 1829.12 1919.66 1829.28 C 1921.32 1829.29 1922.55 1830.18 1923.87 1831.08 L 1924.99 1833 L 1924.19 1834.45 C 1918.42 1835.96 1912.67 1834.86 1906.75 1834.97 C 1863.76 1835.77 1820.63 1834.18 1777.68 1834.63 L 1157.72 1835.33 L 983.795 1835.65 C 974.046 1835.7 943.005 1833.91 934.922 1835.48 C 924.691 1846.48 904.275 1853.22 890.074 1859.07 C 803.69 1894.62 712.229 1894.51 623.012 1869.8 C 605.375 1864.92 559.895 1850.1 550.944 1834.34 C 494.35 1835.25 436.937 1833.84 380.227 1834.53 C 371.028 1834.64 309.986 1835.13 304.639 1833.62 L 303.784 1832.06 L 304.815 1830.45 C 312.691 1829.12 347.411 1829.76 357.068 1829.77 C 396.63 1830.04 436.193 1829.89 475.752 1829.31 C 491.072 1829.16 511.445 1830.55 526.242 1828.83 C 529.847 1831.17 727.35 1830 750.216 1830.9 C 744.156 1811.39 739.393 1790.64 732.839 1771.11 C 719.438 1731.18 707.41 1695.36 697.413 1654.34 C 689.86 1622.48 682.591 1590.56 675.607 1558.57 C 671.718 1540.94 666.947 1515.69 661.041 1499.46 C 667.599 1496.36 676.206 1493.32 683.131 1490.67 C 681.016 1485.93 679.732 1482.02 678.099 1477.13 L 708.236 1455.52 C 702.486 1422.67 704.379 1386.49 704.443 1353.01 C 705.136 1332.59 703.468 1312.24 707.358 1292.06 C 711.734 1269.37 717.008 1246.84 722.964 1224.5 C 727.717 1206.67 729.053 1191.54 730.44 1173.3 C 743.864 1165.36 766.005 1166.3 781.275 1165.99 C 799.945 1165.61 816.351 1167.44 833.617 1174.62 C 861.554 1167.26 855.542 1158.63 872.318 1142.2 C 876.242 1141.14 875.644 1141.76 880.3 1143.24 C 886.683 1139.51 898.062 1123.4 903.077 1116.85 C 892.649 1110.71 883.722 1105.11 879.767 1093.47 C 858.097 1085.26 849.38 1072.94 861.249 1050.52 C 865.345 1042.78 867.025 1041 868.225 1032.36 C 863.845 1031.26 859.306 1030.16 855.088 1028.52 C 845.047 1024.62 833.458 1016.46 829.279 1006.3 C 819.567 982.708 853.728 951.218 868.887 935.793 C 874.883 929.692 883.108 922.918 886.321 914.919 C 891.377 902.335 873.012 886.224 868.484 874.96 C 860.992 856.322 895.992 776.784 905.076 756.339 C 886.133 740.286 882.501 716.15 891.046 693.571 C 900.525 668.522 920.749 646.558 940.839 629.384 C 952.852 619.115 973.956 603.891 990.795 609.12 C 996.623 611.042 999.704 619.772 1001.86 625.098 z M 1676.59 1794.38 C 1679.67 1806.21 1681.58 1817.68 1684.48 1829.15 C 1692.57 1829.31 1702.29 1829.76 1710.25 1829.59 C 1713.95 1829.57 1717.77 1829.5 1721.45 1829.69 C 1724.24 1822.27 1727.88 1811.67 1731.33 1804.83 C 1717.72 1797.9 1710.26 1794.34 1698.65 1784.08 C 1689.48 1789.77 1686.63 1790.46 1676.59 1794.38 z"/>
<path transform="translate(0,0)" fill="rgb(233,251,250)" d="M 550.944 1834.34 C 568.917 1833.4 591.17 1834 609.398 1834.01 L 713.595 1834.04 L 867.346 1834.58 C 877.178 1834.63 929.034 1833.03 934.922 1835.48 C 924.691 1846.48 904.275 1853.22 890.074 1859.07 C 803.69 1894.62 712.229 1894.51 623.012 1869.8 C 605.375 1864.92 559.895 1850.1 550.944 1834.34 z"/>
<path transform="translate(0,0)" fill="rgb(233,251,250)" d="M 878.427 1194.42 C 883.32 1195.24 893.873 1205.02 900.057 1208.39 C 931.215 1225.38 972.576 1249.47 1008.18 1249.42 C 1018.93 1249.41 1042.71 1232.81 1051.75 1227.28 C 1052.09 1233.03 1053.46 1240.14 1054.41 1245.97 C 1042.7 1255.1 1026.19 1264.6 1017.64 1275.92 C 1019.97 1286.35 1022.88 1297.02 1025.56 1307.39 C 1010.82 1318.82 998.325 1329.92 985.241 1343.08 C 962.312 1366.15 964.377 1387.44 965.174 1417.55 C 922.438 1458.93 911.293 1481.03 904.717 1540.54 C 901.315 1571.32 905.083 1565 890.971 1592.78 C 886.972 1600.7 882.872 1608.58 878.674 1616.4 C 868.04 1595.68 858.401 1574.47 849.791 1552.83 C 844.911 1540.2 810.749 1443.25 810.416 1433.83 C 807.621 1435.34 803.929 1437.8 801.138 1439.53 C 796.879 1425.14 793.402 1410.53 790.721 1395.77 C 809.694 1378.04 809.452 1370.93 818.021 1346.65 C 850.263 1354.22 854.678 1343.93 842.645 1314.98 C 864.105 1320.7 862.034 1307.71 859.25 1292.65 C 904.115 1301.98 872.687 1255.62 866.042 1238.32 L 865.49 1236.87 C 873.935 1238.23 900.101 1245.58 905.559 1242.21 C 935.505 1223.73 881.134 1204.87 877.161 1197.99 L 878.427 1194.42 z"/>
<path transform="translate(0,0)" fill="rgb(233,251,250)" d="M 714.397 1473.98 C 705.532 1433.9 708.123 1383.34 708.418 1342.31 C 708.487 1332.64 707.982 1308.46 709.606 1299.91 C 715.115 1270.89 723.032 1240.96 729.761 1212.11 C 732.223 1201.56 731.05 1184.93 734.711 1175.65 C 744.687 1166.15 815.183 1169.14 828.021 1176.03 C 841.43 1183.21 908.84 1218.35 911.096 1229.34 C 906.297 1247.58 874.163 1234.13 859.715 1232.17 C 863.862 1245.19 890.974 1285.26 872.41 1289.99 C 846.554 1296.58 846.483 1251.61 821.718 1246.87 C 809.474 1244.53 796.053 1241.11 783.314 1239.79 C 772.979 1239.06 751.101 1232.32 742.562 1232.79 L 741.161 1234.44 C 746.159 1240.88 818.637 1246.1 827.433 1253.36 C 838.523 1262.52 858.352 1294.39 858.043 1308.07 C 856.567 1311.4 856.706 1311.18 853.574 1313.08 C 843.729 1314.86 837.375 1304.52 832.498 1305.13 C 835.835 1314.66 852.923 1338.62 841.104 1345.97 C 835.376 1346.69 826.213 1344.6 821.195 1341.81 C 813.642 1345.55 813.86 1346.1 811.229 1354.21 C 805.292 1372.52 801.976 1381.91 786.097 1393.66 C 789.9 1410.72 792.813 1424.78 798.428 1441.41 C 776.275 1456.17 739.877 1468.33 714.397 1473.98 z"/>
<path transform="translate(0,0)" fill="rgb(0,0,0)" d="M 745.111 1197.54 C 771.016 1198.41 802.875 1204.03 828.552 1208.45 C 835.633 1209.67 858.369 1224.39 859.715 1232.17 C 849.209 1228.26 840.148 1215.49 826.171 1211.43 C 814.478 1208.04 750.719 1204.27 745.948 1199.95 L 745.111 1197.54 z"/>
<path transform="translate(0,0)" fill="rgb(0,0,0)" d="M 754.065 1316.03 C 769.02 1316.28 783.971 1316.68 798.918 1317.24 C 805.37 1323.51 817.571 1334.27 821.195 1341.81 C 810.28 1336.68 805.781 1327.69 796.459 1321.07 C 785.231 1320.57 765.662 1318.76 754.478 1321.38 C 753.227 1321.67 749.261 1324.9 747.955 1325.92 L 746.078 1325.53 L 745.162 1323.55 C 748.108 1321.1 751.247 1318.6 754.065 1316.03 z"/>
<path transform="translate(0,0)" fill="rgb(0,0,0)" d="M 732.969 1268.09 C 743.47 1268.33 789.609 1281.24 802.731 1283.66 C 811.316 1285.24 825.701 1292.52 830.314 1300.72 C 823.225 1300.15 815.854 1290.79 806.915 1288.64 C 783.659 1283.04 760.379 1277.3 737.016 1272.23 C 733.883 1271.55 734.139 1270.64 732.969 1268.09 z"/>
<path transform="translate(0,0)" fill="rgb(233,251,250)" d="M 1036.47 899.5 L 1054.76 898.354 C 1053.25 947.069 1043.05 995.403 1034.08 1043.17 C 1030.93 1058.49 1027.47 1073.46 1023.72 1088.66 C 1019.45 1105.93 1016.21 1124.8 998.063 1132.76 C 969.987 1145.07 958.479 1109.86 947.744 1090.84 C 933.698 1065.94 921.245 1051.71 894.131 1041.33 C 884.307 1039.5 879.813 1039.77 870.22 1041.25 C 870.735 1037.13 871.46 1033.02 872.133 1028.93 C 859.309 1026.81 834.365 1018.29 832.511 1003.36 C 828.18 968.512 875.659 942.979 890.431 916.397 C 891.849 920.773 904.265 976.373 919.613 957.531 C 926.532 949.037 920.776 920.514 918.527 908.297 C 957.806 905.801 997.12 902.026 1036.47 899.5 z"/>
<path transform="translate(0,0)" fill="rgb(233,251,250)" d="M 1154.35 867.16 C 1179.9 865.384 1190.16 892.228 1195.93 911.317 C 1207 947.995 1189.23 987.29 1148.45 991.124 C 1146.48 991.309 1144.34 993.011 1143.34 994.767 C 1148.84 996.29 1164.11 991.918 1170.46 990.329 C 1169.8 1009.44 1166.99 1059.03 1182.95 1070.06 C 1209.98 1088.75 1268.33 1102.3 1299.52 1100.22 L 1303.52 1112.36 C 1282.54 1120.43 1263.67 1127.16 1243.25 1136.93 C 1213.86 1150.98 1185.78 1167.04 1157.3 1182.81 L 1057.27 1244.07 C 1056.58 1237.45 1055.84 1230.84 1055.03 1224.23 C 1062.57 1217.41 1073.04 1210.58 1081.16 1203.67 C 1106.19 1182.42 1143.12 1152.18 1157.78 1122.58 C 1170.01 1097.34 1161.62 1084.61 1150.14 1062.67 C 1138.99 1041.36 1132.5 1012.14 1124.35 990.173 C 1111.18 954.717 1110.44 928.1 1127.23 893.65 C 1133.79 880.189 1139.45 872.331 1154.35 867.16 z"/>
<path transform="translate(0,0)" fill="rgb(204,204,204)" d="M 1249.15 731.218 C 1252.56 730.999 1253.91 730.554 1256.79 732.342 C 1258.94 735.722 1258.18 741.267 1258.09 745.548 C 1263.95 747.484 1272.05 749.412 1278.17 751.048 C 1280.91 747.012 1283.7 743.007 1286.53 739.034 C 1290.32 741.065 1293.5 743.251 1297.07 745.611 L 1290.31 757.729 C 1296.37 763.092 1299.66 766.313 1305.08 772.309 C 1310.77 769.728 1313.81 767.354 1319.52 769.323 C 1322.52 772.106 1322.96 774.7 1324.41 778.712 C 1320.13 780.695 1316.37 782.967 1312.29 785.323 C 1314.47 791.352 1316.19 798.56 1317.85 804.842 L 1331.86 804.958 L 1331.61 819.093 L 1319.02 819.103 C 1317.08 827.438 1315.31 832.044 1312.2 840.114 C 1316.39 842.632 1321.06 845.196 1325.33 847.641 C 1323.33 851.073 1320.35 854.953 1317.98 858.236 L 1305.62 851.206 L 1304.82 852.281 C 1300.41 858.323 1296.41 861.355 1290.75 866.271 C 1294.1 871.392 1295.19 874.141 1297.55 879.655 C 1293.96 881.449 1290.03 883.787 1286.49 885.781 C 1283.91 881.376 1281.03 877.261 1278.17 873.034 C 1271.37 875.3 1264.92 877.104 1258 879.026 C 1258.14 883.208 1258.57 887.045 1257.55 891.065 C 1255.25 893.862 1256.01 892.97 1251.29 893.68 C 1248.56 893.683 1248.54 893.735 1245.92 893.015 C 1244.58 890.642 1244.49 890.553 1244.69 887.822 C 1244.91 884.831 1245.1 881.838 1245.27 878.844 C 1237.8 877.215 1231.1 875.505 1223.72 873.508 C 1221.54 877.764 1218.95 881.798 1216.45 885.877 L 1204.45 878.386 C 1207.31 874.798 1210.16 870.59 1212.85 866.815 C 1206.95 861.615 1202.09 857.055 1197.33 850.798 C 1193.23 853.607 1188.72 856.01 1184.38 858.456 L 1177.19 846.672 C 1182.18 843.554 1185.1 842.222 1190.35 839.845 C 1188.38 834.482 1186.06 824.948 1184.47 819.152 L 1170.13 818.864 L 1170.1 805.245 L 1184.29 804.992 C 1185.51 796.69 1188.2 792.436 1189.36 785.173 C 1185.75 778.805 1181.15 783.079 1179.54 775.19 C 1180.53 770.765 1182.36 769.376 1185.45 765.802 C 1188.81 768.575 1191.5 770.466 1195.09 772.955 L 1213.19 757.878 L 1210.64 754.651 C 1206.76 749.836 1205.56 745.778 1210.51 740.9 C 1218.68 738.897 1220.74 744.862 1223.71 750.726 L 1244.81 745.485 C 1245.02 739.529 1244.05 734.891 1249.15 731.218 z"/>
<path transform="translate(0,0)" fill="rgb(0,0,0)" d="M 1206.17 789.337 C 1217.69 796.724 1227.32 803.163 1239.75 809.05 C 1240.94 817.315 1240.12 817.552 1247.35 822.52 C 1247.64 829.914 1249.03 856.112 1247.22 861.949 L 1245.47 862.593 C 1208.6 855.224 1192.36 824.089 1206.17 789.337 z"/>
<path transform="translate(0,0)" fill="rgb(0,0,0)" d="M 1295.19 789.76 L 1296.63 790.343 C 1304.89 803.678 1301.99 823.522 1294.75 836.611 C 1286.92 850.758 1277.55 857.055 1262.62 861.331 C 1260.18 861.845 1260.25 861.992 1257.87 861.424 C 1254.51 856.112 1255.65 831.185 1255.65 823.205 C 1260.21 817.649 1261.99 810.041 1267.17 806.739 C 1276.22 800.972 1286.06 795.466 1295.19 789.76 z"/>
<path transform="translate(0,0)" fill="rgb(0,0,0)" d="M 1247.11 761.379 C 1248.46 761.433 1249.8 761.506 1251.15 761.599 C 1270.51 762.867 1280.67 768.936 1293.15 783.156 C 1286.79 787.738 1265.11 798.933 1257.73 802.21 C 1256.36 802.186 1253.68 801.962 1252.48 802.096 C 1242.64 803.196 1217.47 788.643 1209.98 782.094 C 1223.3 769.759 1228.77 763.767 1247.11 761.379 z"/>
<path transform="translate(0,0)" fill="rgb(204,204,204)" d="M 1126.16 636.444 C 1129.91 636.354 1132.34 635.836 1135.47 637.79 C 1137.71 641.199 1136.99 647.038 1136.94 651.418 C 1142.65 652.142 1151.56 654.464 1157.43 655.821 C 1159.93 652.427 1162.69 647.439 1164.9 643.714 C 1169.56 646.102 1172.35 648.04 1176.65 650.936 L 1169.28 662.42 C 1174.52 666.575 1179.34 672.439 1183.84 677.519 C 1188.29 675.23 1192.77 673.013 1197.29 670.867 C 1199.59 674.904 1201.26 678.958 1203.13 683.2 L 1191.43 689.66 C 1193.63 696.723 1195.13 702.871 1196.84 710.084 L 1210.64 710.389 L 1210.95 723.805 L 1198.1 723.994 C 1194.87 731.382 1193.24 737.636 1191.02 745.407 C 1197.22 748.123 1202.86 749.838 1201.53 758.106 C 1195.26 764.575 1190.68 760.435 1185 756.219 C 1179.49 762.815 1175.15 766.731 1168.77 772.608 C 1171.94 776.657 1174.86 779.288 1174.63 784.093 C 1172.1 787.241 1167.92 788.213 1164 789.667 L 1157.43 778.112 L 1136.75 783.381 C 1136.49 788.066 1136.22 792.294 1135.74 796.978 L 1134.07 798.064 C 1129.45 798.235 1127.57 798.985 1123.96 797.066 C 1122.16 793.81 1122.88 788.153 1123 784.166 L 1102.53 778.196 C 1100.37 782.156 1097.61 786.281 1095.16 790.117 C 1091.4 788.774 1086.99 786.528 1083.31 784.786 C 1085.43 780.982 1088.43 776.885 1090.94 773.255 C 1085.92 767.705 1080.95 762.104 1076.04 756.452 L 1063.11 763.147 C 1060.7 760.03 1058.09 755.792 1055.89 752.433 C 1060.09 749.507 1064.48 747.223 1068.96 744.749 C 1066.36 738.127 1064.3 730.997 1062.2 724.174 L 1049.25 723.727 L 1050.06 710.847 L 1063.23 710.761 C 1064.93 702.496 1065.97 698.4 1068.73 690.467 C 1064.93 687.332 1060.66 684.934 1056.44 682.363 L 1056.96 681.168 C 1059.36 675.796 1059.38 674.396 1064.4 672.484 C 1068.68 672.814 1072.03 675.358 1075.86 677.588 C 1081.17 672.395 1086.33 667.772 1091.88 662.841 C 1089.4 658.248 1086.76 655.053 1083.62 650.922 C 1087.6 647.98 1091.13 646.236 1095.46 643.901 C 1098.52 648.304 1099.93 651.538 1102.19 656.322 C 1109.79 654.184 1115.19 652.983 1122.97 651.537 C 1123.03 646.731 1121.98 638.984 1126.16 636.444 z"/>
<path transform="translate(0,0)" fill="rgb(0,0,0)" d="M 1140.91 720.307 C 1148.16 720.329 1176.53 719.442 1180.88 722.433 C 1182.88 729.62 1173.21 743.354 1169.32 749.305 C 1162.94 759.045 1155.18 761.324 1144.82 765.349 C 1130.14 768.892 1120.33 768.353 1106.42 762.751 C 1110.35 755.289 1125.45 728.434 1133.27 726.767 C 1137.22 725.927 1138 724.382 1140.91 720.307 z"/>
<path transform="translate(0,0)" fill="rgb(0,0,0)" d="M 1124.21 667.173 C 1157.13 664.88 1173.72 683.473 1181.19 713.287 L 1166.4 713.24 L 1141.24 712.932 C 1137.04 709.441 1135.07 707.907 1130.55 705.727 C 1122.84 702.008 1111.82 680.064 1107.83 671.997 C 1114.44 669.532 1117.33 668.66 1124.21 667.173 z"/>
<path transform="translate(0,0)" fill="rgb(0,0,0)" d="M 1101.26 676.653 C 1107.64 687.671 1113.9 697.704 1120.04 708.987 C 1119.94 714.7 1119.66 717.816 1120.97 723.482 C 1115.64 736.003 1107.8 747.439 1100.36 758.807 C 1070.27 735.143 1073.41 700.886 1101.26 676.653 z"/>
<path transform="translate(0,0)" fill="rgb(233,251,250)" d="M 1010.55 732.32 C 1015.63 731.942 1023.79 731.691 1027 736.089 C 1027.88 753.434 960.753 788.3 957.098 811.314 C 955.116 823.794 973.323 829.228 982.63 835.103 C 1005.09 849.277 1037 867.683 1051.74 889.688 L 1052.48 890.818 L 971.791 896.239 C 954.087 897.549 934.63 899.571 917.034 900.098 C 914.552 891.133 910.424 886.646 908.598 878.565 C 909.52 875.265 909.432 876.217 913.13 873.712 C 919.834 869.886 922.925 868.164 930.064 865.411 C 938.508 867.47 945.853 870.51 953.66 865.322 C 957.195 859.185 953.92 854.555 948.747 850.578 C 929.167 835.523 897.397 852.584 885.02 870.199 C 890.002 882.647 888.997 888.509 889.307 901.849 C 883.805 891.226 874.334 878.387 870.371 868.573 C 872.054 850.75 898.826 773.456 908.729 758.303 C 944.529 759.125 974.44 737.05 1010.55 732.32 z"/>
<path transform="translate(0,0)" fill="rgb(233,251,250)" d="M 1308.73 1115.14 C 1320.57 1114.07 1320.39 1121.55 1323.5 1131.6 C 1240.22 1153.51 1153.02 1212.88 1083.66 1262.94 C 1062.89 1277.93 1044.87 1288.66 1034.66 1312.8 C 1033.88 1313.9 1034.45 1313.43 1032.72 1313.81 C 1028.59 1308.25 1021.56 1281.66 1023.65 1274.72 C 1040.48 1253.22 1199.26 1162.85 1234.14 1145.57 C 1246.86 1139.27 1293.49 1119.92 1308.73 1115.14 z"/>
<path transform="translate(0,0)" fill="rgb(102,225,249)" d="M 1026.42 1312.96 C 1031.11 1314 1028.96 1323.49 1027.38 1326.55 C 1003.45 1372.84 980.593 1419.73 956.132 1465.75 C 939.912 1496.26 925.089 1528.09 908.044 1558.07 L 907.588 1558.42 L 906.836 1557.07 C 907.502 1539.84 910.112 1529.58 912.775 1513.93 C 921.345 1463.6 939.364 1451.86 969.861 1417.79 C 966.844 1376.44 970.403 1358.82 1002.98 1331.32 C 1011.22 1324.37 1016.96 1319 1026.42 1312.96 z"/>
<path transform="translate(0,0)" fill="rgb(233,251,250)" d="M 894.091 1089.21 C 916.382 1088.77 943.546 1106.82 942.977 1131.22 C 942.677 1144.1 939.082 1155.93 924.027 1156.05 C 910.744 1150.5 908.571 1141.08 897.029 1132.71 C 900.85 1125.17 903.58 1120.94 908.69 1114.34 L 908.028 1114.1 C 900.109 1111.33 882.779 1102.85 885.178 1092.5 C 888.724 1089.44 888.75 1090.29 894.091 1089.21 z"/>
<path transform="translate(0,0)" fill="rgb(233,251,250)" d="M 1375.65 736.347 C 1384.9 733.457 1395 735.787 1402.05 742.442 C 1409.1 749.097 1412 759.04 1409.65 768.445 C 1407.3 777.849 1400.05 785.251 1390.7 787.801 C 1376.6 791.645 1362.01 783.488 1357.91 769.46 C 1353.81 755.433 1361.7 740.705 1375.65 736.347 z"/>
<path transform="translate(0,0)" fill="rgb(233,251,250)" d="M 806.151 1440.83 L 806.99 1441.12 C 811.659 1446.49 808.878 1450.92 803.88 1454.53 C 782.253 1470.13 723.54 1499.66 699.057 1496.67 C 696.935 1493.72 697.135 1490.38 696.64 1486.41 C 692.209 1485.46 684.111 1487.21 683.884 1480.46 L 685.111 1479.3 C 717.047 1484.62 779.564 1459.24 806.151 1440.83 z"/>
<path transform="translate(0,0)" fill="rgb(233,251,250)" d="M 873.196 1145.58 C 876.136 1146.23 875.11 1145.41 876.699 1147.58 C 876.203 1155.5 873.402 1161.35 872.531 1168.52 C 871.867 1173.97 877.724 1189.35 874.987 1194.67 L 872.315 1195.28 C 867.439 1194.32 862.959 1190.88 858.629 1188.12 C 851.818 1183.76 846.663 1180.97 839.448 1177.23 C 861.152 1168.14 860.351 1163.62 873.196 1145.58 z"/>
<path transform="translate(0,0)" fill="rgb(233,251,250)" d="M 897.461 880.203 C 910.721 884.943 918.422 940.274 912.748 953.298 C 900.864 943.119 894.894 896.585 897.461 880.203 z"/>
<path transform="translate(0,0)" fill="rgb(233,251,250)" d="M 707.239 1460.76 L 708.513 1461.36 C 709.794 1465.76 710.008 1471 710.42 1475.63 L 690.762 1477.08 L 688.643 1476.29 C 690.313 1473.26 703.576 1463.65 707.239 1460.76 z"/>
<path transform="translate(0,0)" fill="rgb(233,251,250)" d="M 690.998 1489.4 L 692.917 1490.34 C 694.681 1492.77 694.538 1496.79 694.769 1499.99 L 678.757 1498.98 L 675.64 1498.74 C 675.683 1498.64 687.663 1492.1 690.998 1489.4 z"/>
<path transform="translate(0,0)" fill="rgb(0,0,0)" d="M 1475.53 242.954 C 1536.28 197.334 1612.78 177.954 1687.92 189.146 C 1769.16 201.151 1839.22 246.244 1886.55 312.342 C 1936.87 382.616 1962.05 462.07 1948.17 548.513 C 1940.17 598.282 1920.13 640.023 1890.54 679.766 C 1876.03 696.317 1862.47 711.432 1845.66 725.523 C 1759.22 797.96 1635.51 816.742 1533.36 766.757 C 1520.02 760.226 1509.32 755.557 1497.01 746.73 C 1487.04 763.683 1470.6 775.206 1450.22 771.625 C 1437.46 769.327 1426.12 762.096 1418.65 751.498 C 1399.59 724.294 1392.22 698.301 1423.82 677.051 C 1411.94 658.711 1403.02 648.076 1391.71 627.777 C 1361.38 572.14 1349.09 508.456 1356.52 445.528 C 1366.57 360.3 1409.44 295.219 1475.53 242.954 z"/>
<path transform="translate(0,0)" fill="rgb(233,251,250)" d="M 1624.28 191.399 C 1624.44 191.375 1624.61 191.352 1624.77 191.328 C 1697.92 185.931 1768.9 209.457 1826.01 254.699 C 1885.64 302.428 1924.15 371.657 1933.25 447.49 C 1942.72 525.62 1919.84 604.225 1869.92 665.065 C 1859.08 678.513 1849.01 687.526 1836.3 698.652 C 1785.98 742.692 1735.1 762.944 1669.24 769.812 C 1603.05 775.162 1542.45 757.979 1486.85 722.335 C 1487.79 710.047 1486.97 699.344 1479.52 689.062 C 1466.44 671.013 1449.6 670.696 1430.01 673.847 C 1391.57 633.425 1364.9 568.151 1359.54 513.103 C 1343.59 349.391 1459.94 207.533 1624.28 191.399 z"/>
<path transform="translate(0,0)" fill="rgb(0,0,0)" d="M 1635.33 315.34 C 1652.99 312.779 1674.64 316.504 1691.27 322.485 C 1723.13 334.04 1749.01 357.931 1763.06 388.774 C 1779.93 425.447 1777.76 473.364 1755.45 506.896 C 1740.68 527.349 1725.79 544.633 1720.98 570.383 C 1716.26 592.754 1718.82 615.718 1718.15 638.348 C 1717.48 660.727 1723.25 671.382 1700.52 681.809 C 1698.67 708.445 1690.12 714.672 1664.18 714.951 C 1633.96 714.889 1598.65 723.952 1597.86 682.772 C 1595.23 681.326 1590.94 678.708 1588.49 677.208 C 1576.93 670.142 1581.52 639.11 1580.9 625.041 C 1580.14 608.032 1582.21 593.51 1578.68 575.246 C 1569.5 526.946 1529.98 508.985 1524.55 457.31 C 1516.89 384.488 1563.13 325.356 1635.33 315.34 z"/>
<path transform="translate(0,0)" fill="rgb(102,225,249)" d="M 1635.14 319.35 C 1670.24 314.056 1709.58 330.555 1734.37 354.906 C 1770.42 385.432 1781.9 458.034 1755.83 498.039 C 1726.11 543.627 1713.82 550.283 1713.97 611.494 C 1697.28 611.716 1680.58 611.833 1663.89 611.845 C 1637.57 611.924 1611.24 611.814 1584.92 611.516 C 1584.97 571.662 1579.55 547.19 1553.71 515.918 C 1519.79 474.858 1519.51 410.162 1551.6 367.693 C 1571.8 340.986 1601.92 323.556 1635.14 319.35 z"/>
<path transform="translate(0,0)" fill="rgb(233,251,250)" d="M 1707.94 615.495 C 1709.49 615.425 1710.75 615.58 1712.3 615.692 C 1715.76 619.929 1714 638.232 1713.83 644.457 C 1674.59 645.896 1630.32 644.998 1590.75 644.996 L 1586.58 644.686 C 1583.23 640.746 1584.91 621.897 1585.02 615.644 L 1707.94 615.495 z"/>
<path transform="translate(0,0)" fill="rgb(233,251,250)" d="M 1584.38 648.963 C 1627.21 648.485 1670.83 648.977 1713.79 648.848 C 1714.15 659.373 1715.13 664.672 1709.05 673.345 C 1704.16 676.616 1701.38 677.611 1695.34 677.755 C 1668.75 678.26 1641.94 678.141 1615.35 678.286 C 1588.33 678.432 1584.89 675.686 1584.38 648.963 z"/>
<path transform="translate(0,0)" fill="rgb(0,0,0)" d="M 1443.57 440.397 C 1457.9 438.89 1487.52 440.016 1502.61 440.51 C 1504.94 440.586 1504.61 441.219 1506.22 443.554 C 1493.22 445.392 1461.99 444.393 1447.95 444.012 C 1445.16 443.936 1444.98 442.537 1443.57 440.397 z"/>
<path transform="translate(0,0)" fill="rgb(0,0,0)" d="M 1786.05 440.426 C 1793.03 439.562 1841.93 439.317 1847.37 440.854 L 1848.79 443.505 C 1841.13 444.492 1793.28 445.154 1787.48 443.351 L 1786.05 440.426 z"/>
<path transform="translate(0,0)" fill="rgb(0,0,0)" d="M 1644.08 239.218 L 1646.62 240.427 C 1649.21 245.942 1647.36 290.678 1646.93 299.843 L 1644.2 298.657 C 1641.71 292.473 1643.32 248.045 1644.08 239.218 z"/>
<path transform="translate(0,0)" fill="rgb(0,0,0)" d="M 1544.91 542.629 L 1546.4 542.92 L 1547.26 544.215 C 1544.67 550.517 1513.52 579.596 1506.76 586.185 L 1505.4 585.619 L 1504.66 583.835 C 1506.87 578.855 1538.81 548.601 1544.91 542.629 z"/>
<path transform="translate(0,0)" fill="rgb(0,0,0)" d="M 1787.24 297.681 C 1788.16 298.594 1787.59 297.934 1788.61 299.926 C 1784.46 307.959 1755.57 333.837 1747.55 341.092 L 1746.39 338.95 C 1747.97 333.704 1781.1 303.505 1787.24 297.681 z"/>
<path transform="translate(0,0)" fill="rgb(0,0,0)" d="M 1504.02 299.704 C 1506.58 299.955 1507.88 300.638 1510.34 302.948 C 1521.56 313.51 1534.18 324.268 1544.05 336.095 C 1544.14 337.306 1544.23 338.516 1544.31 339.727 C 1535.02 335.162 1513.87 310.466 1504.72 302.776 C 1504.49 301.752 1504.25 300.728 1504.02 299.704 z"/>
<path transform="translate(0,0)" fill="rgb(0,0,0)" d="M 1748.68 543.917 C 1753.74 546.663 1785.61 578.281 1788.15 584.361 C 1782.01 583.772 1747.72 550.378 1748.68 543.917 z"/>
<path transform="translate(0,0)" fill="rgb(233,251,250)" d="M 1436.96 674.976 C 1457.25 670.689 1477.19 683.64 1481.51 703.924 C 1485.84 724.207 1472.93 744.166 1452.66 748.534 C 1432.32 752.915 1412.3 739.959 1407.96 719.618 C 1403.62 699.276 1416.61 679.275 1436.96 674.976 z"/>
<path transform="translate(0,0)" fill="rgb(0,0,0)" d="M 274.598 905.554 C 288.271 907.917 291.441 902.082 303.522 900.203 C 339.641 894.584 374.191 925.988 368.032 963.09 C 367.437 966.51 366.677 969.898 365.754 973.244 C 380.442 981.217 395.435 988.42 410.523 995.6 C 422.275 1001.19 435.835 1006.4 446.032 1014.6 C 448.083 1016.25 449.66 1018.12 450.25 1020.77 C 450.837 1023.42 449.868 1025.84 448.254 1027.89 C 446.61 1029.98 443.923 1031.98 441.225 1032.37 C 433.31 1033.51 368.237 998.135 357.183 992.198 C 346.511 1002.06 341.072 1007.3 326.776 1011.53 C 326.951 1023.06 328.117 1119.76 326.05 1124.16 C 322.034 1124.69 319.116 1124.09 317.121 1126.31 L 316.714 1131.71 C 310.272 1136.47 233.315 1130.45 218.172 1133.38 C 192.897 1133.33 167.622 1133.48 142.35 1133.82 C 144.104 1063.44 143.012 984.945 142.556 914.408 C 147.826 914.702 149.634 915.679 153.318 911.757 C 153.697 908.888 153.508 909.349 154.459 906.667 C 171.05 904.868 196.332 905.666 213.333 905.819 C 233.755 905.843 254.177 905.755 274.598 905.554 z"/>
<path transform="translate(0,0)" fill="rgb(102,225,249)" d="M 171.156 910.438 C 203.206 909.017 245.382 910.24 278.199 910.291 C 261.012 926.657 251.459 943.358 256.104 968.055 C 240.112 967.552 201.1 965.422 187.986 970.107 L 188.082 971.522 C 199.413 973.914 242.587 972.164 257.241 972.253 C 262.354 986.798 265.166 990.776 276.064 1001.69 C 250.392 1000.79 223.747 1001.4 198.006 1001.34 C 193.371 1001.33 189.554 1000.91 186.95 1003.69 C 196.53 1007.57 254.696 1005.91 269.75 1005.95 C 291.227 1005.29 293.366 1016.13 322.706 1013.19 L 323.106 1120.41 C 290.324 1120.77 258.165 1120.84 225.379 1120.44 C 203.139 1120.17 181.383 1120.99 158.997 1120.15 C 158.092 1051.13 158.906 980.276 158.723 911.11 L 171.156 910.438 z"/>
<path transform="translate(0,0)" fill="rgb(0,0,0)" d="M 186.376 1069.16 C 199.169 1069.01 285.693 1067.64 290.329 1069.72 L 290.755 1073.19 C 265.801 1074.1 215.072 1073.87 188.181 1073.2 C 187.138 1073.17 186.853 1070.76 186.376 1069.16 z"/>
<path transform="translate(0,0)" fill="rgb(0,0,0)" d="M 186.842 1035.33 C 198.089 1035.1 286.572 1034.12 291.455 1036.52 L 291.763 1039.31 C 282.552 1040.18 191.04 1040.43 187.865 1039.11 L 186.842 1035.33 z"/>
<path transform="translate(0,0)" fill="rgb(102,225,249)" d="M 303.432 917.185 C 311.94 916.521 315.206 916.731 323.737 917.565 C 323.453 926.881 324.59 991.526 321.79 994.528 C 319.693 996.777 317.263 997.369 314.309 997.571 C 302.984 998.347 291.924 993.998 283.403 986.858 C 278.702 980.937 277.718 978.961 274.294 972.184 C 280.457 972.335 286.719 973.017 292.311 970.473 L 291.187 969.258 C 285.025 967.305 278.854 967.965 272.355 968.164 C 268.149 941.817 278.069 925.665 303.432 917.185 z"/>
<path transform="translate(0,0)" fill="rgb(233,251,250)" d="M 327.773 919.635 C 354.45 930.123 359.952 961.005 343.145 983.336 C 336.993 988.82 334.288 990.529 327.065 993.795 C 327.143 969.074 327.379 944.353 327.773 919.635 z"/>
<path transform="translate(0,0)" fill="rgb(0,0,0)" d="M 364.979 733.549 C 364.11 677.262 361.287 673.809 419.843 673.979 L 478.85 674.157 C 490.162 674.189 505.545 674.607 516.592 673.548 L 517.911 673.41 C 527.551 675.627 537.182 676.103 543.668 686.128 C 548.978 694.337 546.893 716.166 547.152 726.959 C 564.134 727.156 581.118 727.146 598.1 726.929 C 611.513 726.84 629.345 725.344 641.608 730.349 C 655.802 736.143 654.334 754.013 654.33 766.255 C 654.324 785.278 654.459 803.7 654.247 822.657 C 654.197 849.341 645.551 854.394 621.075 854.09 C 613.537 866.377 601.79 886.596 593.201 897.2 C 591.702 884.31 590.981 867.679 590.709 854.529 C 558.523 853.288 524.785 855.422 492.677 853.39 C 489.139 853.166 483.339 849 481.152 846.418 C 472.965 838.004 475.124 813.819 475.092 801.517 L 431.564 802.022 C 430.196 816.221 429.293 830.461 428.858 844.718 C 419.735 831.325 409.346 814.783 400.22 802.037 C 353.172 801.93 366.793 769.712 364.979 733.549 z"/>
<path transform="translate(0,0)" fill="rgb(233,251,250)" d="M 385.853 678.348 C 412.277 676.955 443.692 677.431 469.686 678.017 C 491.156 678.501 544.127 669.569 543.218 699.223 C 542.728 715.226 543.749 731.972 542.956 747.914 C 541.922 768.706 550.078 785.214 529.533 797.727 C 518.008 798.351 503.371 798.031 491.618 798.076 L 427.726 798.029 C 426.707 809.382 425.97 820.759 425.516 832.15 C 417.09 821.297 410.111 810.002 402.698 798.445 C 395.414 798.67 387.033 798.916 380.283 795.878 C 376.352 794.109 372.729 791.184 371.318 787.003 C 367.766 776.477 367.126 697.518 371.881 688.842 C 375.038 683.081 379.686 680.121 385.853 678.348 z"/>
<path transform="translate(0,0)" fill="rgb(0,0,0)" d="M 496.033 729.57 C 500.528 728.156 505.437 729.307 508.835 732.572 C 512.233 735.837 513.579 740.695 512.346 745.244 C 511.113 749.792 507.497 753.305 502.916 754.406 C 496.16 756.03 489.332 752.009 487.477 745.313 C 485.621 738.617 489.405 731.655 496.033 729.57 z"/>
<path transform="translate(0,0)" fill="rgb(0,0,0)" d="M 411.096 728.527 C 418.081 727.484 424.59 732.302 425.633 739.287 C 426.676 746.273 421.859 752.781 414.874 753.825 C 407.887 754.869 401.378 750.052 400.334 743.065 C 399.291 736.079 404.109 729.569 411.096 728.527 z"/>
<path transform="translate(0,0)" fill="rgb(0,0,0)" d="M 451.338 729.757 C 457.735 726.918 465.22 729.817 468.036 736.223 C 470.852 742.63 467.925 750.105 461.508 752.897 C 455.125 755.675 447.697 752.767 444.895 746.394 C 442.094 740.02 444.975 732.581 451.338 729.757 z"/>
<path transform="translate(0,0)" fill="rgb(233,251,250)" d="M 611.383 778.503 C 617.126 776.899 623.091 780.207 624.772 785.928 C 626.454 791.648 623.226 797.658 617.529 799.416 C 613.775 800.575 609.687 799.623 606.831 796.925 C 603.974 794.227 602.791 790.201 603.734 786.386 C 604.676 782.572 607.599 779.56 611.383 778.503 z"/>
<path transform="translate(0,0)" fill="rgb(233,251,250)" d="M 567.628 779.578 C 571.428 778.398 575.568 779.437 578.36 782.271 C 581.152 785.104 582.131 789.259 580.896 793.041 C 579.661 796.823 576.419 799.599 572.492 800.239 C 566.977 801.137 561.707 797.615 560.427 792.176 C 559.147 786.737 562.292 781.235 567.628 779.578 z"/>
<path transform="translate(0,0)" fill="rgb(0,0,0)" d="M 253.169 1471.06 C 259.21 1470.58 265.924 1469.47 271.574 1471.11 C 269.968 1474.24 258.193 1475.3 254.7 1475.74 L 253.169 1471.06 z"/>
<path transform="translate(0,0)" fill="rgb(0,0,0)" d="M 389.842 1203.95 L 420.803 1203.98 C 421.861 1252.59 421.213 1305.95 420.844 1354.71 C 410.285 1354.79 399.725 1354.68 389.169 1354.38 C 390.352 1305.39 389.466 1253.42 389.842 1203.95 z"/>
<path transform="translate(0,0)" fill="rgb(102,225,249)" d="M 393.141 1208.86 L 416.946 1208.59 C 417.307 1256.06 417.393 1303.52 417.206 1350.99 L 392.806 1350.72 C 393.257 1303.44 393.369 1256.15 393.141 1208.86 z"/>
<path transform="translate(0,0)" fill="rgb(0,0,0)" d="M 486.053 1211.65 L 516.843 1212.02 C 516.84 1258.73 515.425 1308.81 516.829 1355.03 L 485.375 1354.86 L 486.053 1211.65 z"/>
<path transform="translate(0,0)" fill="rgb(102,225,249)" d="M 489.437 1215.88 L 512.586 1215.63 L 512.304 1351.29 C 504.634 1351.07 496.581 1351.14 488.875 1351.08 L 489.437 1215.88 z"/>
<path transform="translate(0,0)" fill="rgb(0,0,0)" d="M 345.439 1256.48 L 372.135 1256.15 C 371.711 1268.29 373.004 1349.88 371.094 1354.27 L 368.25 1354.7 L 340.889 1354.88 C 340.901 1343.2 339.978 1260.55 341.986 1256.92 L 345.439 1256.48 z"/>
<path transform="translate(0,0)" fill="rgb(0,0,0)" d="M 437.061 1285.03 L 469.185 1285.18 C 469.052 1308.45 469.078 1331.72 469.265 1354.98 L 436.912 1355.07 L 437.061 1285.03 z"/>
<path transform="translate(0,0)" fill="rgb(0,0,0)" d="M 516.408 1156.91 L 517.739 1157.06 C 519.432 1160.31 510.712 1192.18 509.203 1198.24 L 495.356 1186.2 C 481.043 1200.87 466.865 1218.62 452.349 1234 C 438.102 1213.37 424.167 1194.12 409.576 1173.81 C 397.644 1187.45 366.037 1219.83 350.925 1233.81 C 349.812 1233.89 348.699 1233.97 347.585 1234.05 C 349.082 1229.14 403.74 1174.01 410.763 1166.68 C 422.594 1185.68 439.934 1209.3 452.976 1228.08 C 465.315 1215.17 479.562 1197.52 492.074 1183.73 C 487.336 1178.57 483.622 1175.5 478.282 1170.98 C 491.045 1166.44 503.755 1161.74 516.408 1156.91 z"/>
<path transform="translate(0,0)" fill="rgb(0,0,0)" d="M 761.404 901.191 C 773.166 904.34 787.662 909.786 799.257 913.869 C 794.796 918.953 787.448 924.78 782.106 929.289 L 767.677 941.043 C 766.963 935.259 767.722 928.674 764.605 923.936 C 762.171 923.183 761.914 923.131 759.712 921.887 C 765.472 915.207 762.954 909.212 761.404 901.191 z"/>
<path transform="translate(0,0)" fill="rgb(0,0,0)" d="M 762.91 1054.18 C 764.571 1056.54 755.16 1086.48 754.232 1093.36 C 750.725 1090.16 743.07 1082.29 738.884 1082.29 C 736.241 1076.16 729.815 1071.72 724.998 1065.87 C 737.729 1062.28 750.37 1058.38 762.91 1054.18 z"/>
<path transform="translate(0,0)" fill="rgb(0,0,0)" d="M 671.831 1000.09 C 685.425 1000.68 699.028 1001.03 712.634 1001.14 C 708.087 1007.1 702.619 1016.51 698.539 1023.08 L 689.849 1035.2 C 687.829 1031.12 685.847 1026.9 683.44 1023.02 C 681.339 1019.64 680.761 1020.37 676.373 1019.66 L 678.675 1017.37 C 679.267 1014.54 673.489 1003.71 671.831 1000.09 z"/>
<path transform="translate(0,0)" fill="rgb(0,0,0)" d="M 794.725 728.233 C 799.341 730.601 819.456 750.97 824.048 755.527 C 818.309 757.384 811.644 759.088 805.768 760.733 C 799.228 762.649 792.73 764.704 786.277 766.898 C 787.191 762.503 789.464 753.439 788.975 749.05 C 788.837 747.807 786.859 747.249 785.206 746.349 L 785.411 744.718 C 787.999 744.831 788.09 745.013 790.481 744.163 C 792.941 739.374 793.665 733.611 794.725 728.233 z"/>
<path transform="translate(0,0)" fill="rgb(0,0,0)" d="M 437.829 888.728 C 443.093 890.502 453.54 893.574 457.513 896.711 L 457.556 899.732 C 452.079 898.581 440.984 896.103 437.358 891.926 L 437.829 888.728 z"/>
<path transform="translate(0,0)" fill="rgb(0,0,0)" d="M 399.042 872.744 C 403.932 873.021 415.616 879.12 419.441 882.283 L 419.272 884.77 C 414.593 884.409 405.51 879.764 401.366 877.173 C 398.858 875.605 399.482 875.544 399.042 872.744 z"/>
<path transform="translate(0,0)" fill="rgb(0,0,0)" d="M 472.602 1409.98 L 473.468 1412.1 C 470.954 1416.92 459.812 1420.04 454.385 1422.1 L 453.303 1419.97 C 455.299 1415.96 467.703 1411.93 472.602 1409.98 z"/>
<path transform="translate(0,0)" fill="rgb(0,0,0)" d="M 439.826 1131.17 C 442.659 1130.8 441.522 1130.38 443.511 1131.81 L 442.791 1133.4 C 436.984 1136.66 432.674 1137.7 426.313 1139.61 L 423.636 1139.52 L 423.064 1138.08 C 425.794 1134.28 434.934 1132.52 439.826 1131.17 z"/>
<path transform="translate(0,0)" fill="rgb(0,0,0)" d="M 645.232 1244.48 C 647.281 1245.21 646.277 1244.65 648.151 1246.29 C 647.757 1251.2 640.739 1260.08 637.708 1264.37 L 636.361 1264.32 L 635.537 1262.63 C 637.236 1257.5 642.331 1249.44 645.232 1244.48 z"/>
<path transform="translate(0,0)" fill="rgb(0,0,0)" d="M 708.497 713.735 C 712.98 713.996 724.723 718.768 728.319 721.749 L 728.177 724.482 C 724.256 724.296 714.573 720.225 710.98 717.997 C 708.339 716.359 709.316 717.237 708.497 713.735 z"/>
<path transform="translate(0,0)" fill="rgb(0,0,0)" d="M 574.993 1343.54 L 577.416 1344.65 L 577.458 1346.6 C 574.11 1351.45 569.204 1355.32 564.746 1359.29 L 562.773 1359.23 L 562.008 1357.6 C 563.401 1354.64 572.142 1346.39 574.993 1343.54 z"/>
<path transform="translate(0,0)" fill="rgb(0,0,0)" d="M 241.544 1166.5 C 242.719 1166.2 243.209 1166.4 244.505 1166.51 L 244.928 1168.1 L 243.813 1169.56 C 238.173 1171.71 234.776 1171.18 228.75 1171.08 L 225.575 1170.81 L 224.619 1169.36 L 225.433 1167.88 C 229.865 1166.43 236.674 1166.64 241.544 1166.5 z"/>
<path transform="translate(0,0)" fill="rgb(0,0,0)" d="M 477.429 902.224 C 482.023 903.224 494.641 905.416 497.592 908.029 L 497.606 910.839 C 492.165 909.912 480.933 908.585 477.133 904.947 L 477.429 902.224 z"/>
<path transform="translate(0,0)" fill="rgb(0,0,0)" d="M 624.802 1279.5 C 626.742 1280.57 626.057 1280.02 627.301 1282.03 C 626.361 1286.5 620.189 1294.37 617.236 1298.57 C 615.77 1297.85 616.006 1297.79 614.805 1296.51 C 615.124 1292.99 622.418 1283.05 624.802 1279.5 z"/>
<path transform="translate(0,0)" fill="rgb(0,0,0)" d="M 725.497 1099.44 L 727.647 1100.69 C 727.759 1105.41 720.432 1115.2 717.556 1119.41 L 715.908 1118.11 C 715.169 1113.35 722.61 1103.73 725.497 1099.44 z"/>
<path transform="translate(0,0)" fill="rgb(0,0,0)" d="M 664.68 1208.31 L 666.735 1209.42 C 667.809 1214.54 661.461 1223.44 658.574 1228.38 C 657.909 1228.23 657.244 1228.09 656.578 1227.95 C 655.744 1223.36 662.113 1213.15 664.68 1208.31 z"/>
<path transform="translate(0,0)" fill="rgb(0,0,0)" d="M 685.167 1171.45 C 687.362 1173.22 686.628 1172.12 687.384 1174.9 C 685.786 1180.72 681.516 1187.22 678.385 1192.56 L 676.84 1191.57 C 675.745 1186.79 682.402 1176.54 685.167 1171.45 z"/>
<path transform="translate(0,0)" fill="rgb(0,0,0)" d="M 553.165 1083.99 L 554.737 1085.62 L 554.516 1087.66 C 550.89 1090.57 542.994 1093.99 538.45 1096.17 C 536.526 1094.45 537.021 1095.5 536.792 1093.11 C 539.428 1090.47 548.871 1086.28 553.165 1083.99 z"/>
<path transform="translate(0,0)" fill="rgb(0,0,0)" d="M 544.922 1369.85 L 546.153 1371.1 L 545.977 1372.92 C 541.672 1377.37 535.719 1380.96 530.507 1384.48 C 528.616 1383.34 529.37 1384.12 528.313 1382.05 C 530.458 1378.64 540.984 1372.39 544.922 1369.85 z"/>
<path transform="translate(0,0)" fill="rgb(0,0,0)" d="M 704.231 1135.45 L 706.396 1136.52 C 707.304 1141.1 699.84 1151.35 697.221 1155.44 C 695.58 1154.45 696.331 1155 695.259 1153.01 C 697.099 1147.29 701.182 1140.78 704.231 1135.45 z"/>
<path transform="translate(0,0)" fill="rgb(0,0,0)" d="M 515.777 912.239 C 522.788 911.778 533.388 912.574 538.361 917.783 C 534.42 918.133 527.824 917.86 523.917 916.933 C 517.879 915.5 518.341 916.298 515.777 912.239 z"/>
<path transform="translate(0,0)" fill="rgb(0,0,0)" d="M 738.419 921.538 L 738.963 921.473 L 739.986 922.048 L 740.653 921.496 C 740.668 923.594 740.992 922.576 739.257 924.379 C 732.91 926.457 729.416 926.17 722.751 926.214 L 720.289 925.856 L 719.966 924.63 C 723.727 921.453 733.279 921.737 738.419 921.538 z"/>
<path transform="translate(0,0)" fill="rgb(0,0,0)" d="M 634.961 677.85 C 639.743 679.955 650.26 684.215 653.582 687.592 L 652.822 690.142 C 647.32 688.592 638.461 684.895 634.711 680.578 L 634.961 677.85 z"/>
<path transform="translate(0,0)" fill="rgb(0,0,0)" d="M 598.103 657.844 C 603.715 658.387 615.91 664.89 618.139 670.231 C 612.159 670.022 600.118 663.593 598.103 657.844 z"/>
<path transform="translate(0,0)" fill="rgb(0,0,0)" d="M 596.804 922.2 C 602.522 922.385 611.157 922.304 616.581 923.609 C 618.24 924.008 617.987 924.759 618.869 926.878 C 613.508 926.896 601.783 927.34 597.395 924.934 L 596.804 922.2 z"/>
<path transform="translate(0,0)" fill="rgb(0,0,0)" d="M 313.706 1329.47 C 318.809 1329.37 325.443 1329.11 330.172 1330.75 L 330.799 1332.25 L 328.818 1333.61 C 324.471 1333.75 314.253 1334.45 311.041 1332.09 L 311.231 1330.44 L 313.706 1329.47 z"/>
<path transform="translate(0,0)" fill="rgb(0,0,0)" d="M 637.592 924.204 C 643.845 924.063 656.618 922.744 660.302 927.585 C 654.202 928.082 644.081 929.42 638.629 927.097 L 637.592 924.204 z"/>
<path transform="translate(0,0)" fill="rgb(0,0,0)" d="M 600.806 1312.73 C 601.843 1313.61 602.401 1314.43 603.279 1315.5 C 602.706 1320.04 596.059 1326.51 592.77 1330.2 L 591.692 1330.3 L 590.62 1328.79 C 591.932 1324.52 597.92 1316.8 600.806 1312.73 z"/>
<path transform="translate(0,0)" fill="rgb(0,0,0)" d="M 671.142 696.93 C 676.454 696.605 689.214 702.316 691.478 707.558 C 685.993 708.063 673.966 702.016 671.142 696.93 z"/>
<path transform="translate(0,0)" fill="rgb(0,0,0)" d="M 311.156 1221.4 C 317.787 1220.96 328.013 1218.73 331.813 1224.5 C 327.591 1225.56 318.004 1226.33 313.865 1224.84 C 311.657 1224.04 312.544 1224.3 311.156 1221.4 z"/>
<path transform="translate(0,0)" fill="rgb(0,0,0)" d="M 658.772 1027.98 L 660.25 1029.52 L 659.953 1030.91 C 656.138 1034.14 648.674 1037.68 643.953 1040.15 C 642.886 1039.9 643.616 1040.13 641.992 1038.95 L 642.609 1036.99 C 647.575 1033.11 653.092 1030.77 658.772 1027.98 z"/>
<path transform="translate(0,0)" fill="rgb(0,0,0)" d="M 747.925 729.978 C 753.274 731.033 767.067 734.604 768.604 739.883 C 762.44 739.253 749.643 736.385 747.925 729.978 z"/>
<path transform="translate(0,0)" fill="rgb(0,0,0)" d="M 309.865 1308.39 C 316.294 1307.96 324.076 1307.19 330.256 1308.56 L 331.738 1311.02 C 327.66 1312.12 317.222 1312.7 313.094 1311.63 C 310.614 1310.98 311.604 1311.24 309.865 1308.39 z"/>
<path transform="translate(0,0)" fill="rgb(0,0,0)" d="M 331.585 830.977 C 335.545 832.674 345.867 838.642 348.524 841.635 L 348.171 844.381 C 343.463 842.792 333.688 837.382 330.59 833.469 L 331.585 830.977 z"/>
<path transform="translate(0,0)" fill="rgb(0,0,0)" d="M 515.626 1101.98 C 518.051 1102.19 517.078 1101.67 518.599 1103.44 C 516.818 1106.74 506.476 1110.64 502.493 1112.41 C 501.856 1112.51 500.912 1112.16 500.183 1111.98 L 500.314 1109.99 C 504.81 1106.64 510.474 1104.36 515.626 1101.98 z"/>
<path transform="translate(0,0)" fill="rgb(0,0,0)" d="M 392.414 1441.02 C 394.018 1441.47 393.405 1441.37 394.862 1442.79 L 394.175 1444.48 C 389.215 1447.05 382.947 1448.36 377.456 1449.81 C 375.827 1449.56 376.637 1449.91 375.223 1448.39 C 377.349 1445.44 388.275 1442.42 392.414 1441.02 z"/>
<path transform="translate(0,0)" fill="rgb(0,0,0)" d="M 433.129 1427.06 L 434.475 1428.45 L 433.942 1430.26 C 429.359 1433.09 421.566 1435.53 416.221 1437.43 C 415.788 1437.07 415.008 1435.96 414.622 1435.45 C 416.858 1432.21 428.798 1428.61 433.129 1427.06 z"/>
<path transform="translate(0,0)" fill="rgb(0,0,0)" d="M 320.748 1159.5 L 323.931 1159.32 L 324.538 1160.25 L 324.091 1161.58 C 318.751 1164.17 316.106 1164.03 310.243 1164.58 C 307.179 1165.05 308.61 1165.35 305.824 1164.18 C 305.717 1163 305.686 1163.78 306.616 1161.97 C 311.846 1159.4 314.926 1159.75 320.748 1159.5 z"/>
<path transform="translate(0,0)" fill="rgb(0,0,0)" d="M 273.733 1164.6 C 277.649 1164.16 280.874 1163.29 284.255 1165.09 L 284.345 1166.48 C 281.435 1168.67 278.412 1168.36 274.638 1168.61 C 271.489 1169 267.648 1170.27 266.358 1166.87 C 269.366 1164.32 268.992 1165.13 273.733 1164.6 z"/>
<path transform="translate(0,0)" fill="rgb(0,0,0)" d="M 479.232 1117.07 C 479.799 1117.43 480.544 1118.48 481.028 1119.07 L 480.338 1120.87 C 475.758 1123.68 469.439 1125.17 464.168 1126.75 C 462.686 1125.26 463.149 1126.15 462.774 1124.08 C 465.399 1121.8 474.913 1118.82 479.232 1117.07 z"/>
<path transform="translate(0,0)" fill="rgb(0,0,0)" d="M 587.003 1066.84 C 587.609 1066.86 589.254 1067.27 589.921 1067.42 L 590.154 1068.96 C 586.555 1072.14 579.987 1074.83 575.457 1077 L 574.441 1077.54 L 572.938 1077.13 L 571.9 1078.2 L 572.852 1077.91 L 571.943 1076.6 C 574.124 1072.8 582.739 1069.03 587.003 1066.84 z"/>
<path transform="translate(0,0)" fill="rgb(0,0,0)" d="M 351.145 1453.24 C 353.379 1452.9 352.259 1452.79 354.49 1453.68 L 353.804 1455.28 C 348.85 1457.88 344.604 1458.65 339.225 1459.96 C 335.941 1460.13 337.172 1460.7 335.051 1459.09 L 335.793 1457.55 C 341.047 1454.95 345.459 1454.35 351.145 1453.24 z"/>
<path transform="translate(0,0)" fill="rgb(0,0,0)" d="M 364.644 852.008 C 369.644 854.682 377.563 858.491 381.864 862.057 C 383.127 863.104 382.553 863.75 382.35 865.961 C 377.915 863.904 366.822 857.822 363.763 854.437 L 364.644 852.008 z"/>
<path transform="translate(0,0)" fill="rgb(0,0,0)" d="M 508.982 1391.84 L 510.412 1393.03 L 510.015 1394.92 C 505.579 1398.57 499.2 1401.47 493.987 1404.16 C 492.305 1403.48 493.03 1404.07 492.108 1402.07 C 493.893 1399.3 505.253 1393.83 508.982 1391.84 z"/>
<path transform="translate(0,0)" fill="rgb(0,0,0)" d="M 310.642 1243.24 C 316.515 1242.85 324.232 1241.8 329.554 1243.79 L 330.774 1246.79 C 325.6 1247.03 317.846 1247.77 312.982 1246.49 C 311.278 1246.04 311.627 1245.47 310.642 1243.24 z"/>
<path transform="translate(0,0)" fill="rgb(0,0,0)" d="M 310.042 1351.43 C 315.804 1350.49 323.957 1349.92 329.511 1351.6 L 330.787 1354.07 C 324.044 1354.83 314.044 1357.4 310.042 1351.43 z"/>
<path transform="translate(0,0)" fill="rgb(0,0,0)" d="M 312.4 1462.32 L 313.249 1462.6 L 314 1464.13 C 311.358 1467.43 300.713 1468.52 296.017 1469.37 C 294.941 1468.95 295.667 1469.3 294.115 1467.88 L 294.74 1466.53 C 299.863 1464.3 306.771 1463.37 312.4 1462.32 z"/>
<path transform="translate(0,0)" fill="rgb(0,0,0)" d="M 310.151 1265.43 C 315.795 1264.52 328.115 1262.55 331.15 1267.66 C 324.902 1269.06 314.229 1271.06 310.151 1265.43 z"/>
<path transform="translate(0,0)" fill="rgb(0,0,0)" d="M 400.421 1142.94 C 403.116 1142.7 402.05 1142.26 403.885 1143.74 L 403.196 1145.12 C 398.069 1148.01 392.829 1149.35 387.218 1151.04 L 386.349 1151.37 L 385.325 1150.82 L 384.129 1151.82 L 385.243 1151.54 L 384.428 1150.58 L 384.97 1149.13 C 389.873 1146.4 395.123 1144.78 400.421 1142.94 z"/>
<path transform="translate(0,0)" fill="rgb(0,0,0)" d="M 359.418 1153.28 C 362.169 1152.58 361.991 1152.65 364.806 1153.17 L 364.281 1154.78 C 359.067 1157.66 355.073 1157.8 349.24 1158.57 C 346.918 1159.16 347.238 1158.91 344.698 1158.72 L 345.306 1157.13 C 350.436 1154.43 353.735 1154.25 359.418 1153.28 z"/>
<path transform="translate(0,0)" fill="rgb(0,0,0)" d="M 623.589 1046.86 C 624.731 1048.96 624.439 1047.84 624.016 1050.35 C 619.499 1054.15 613.587 1056.48 608.158 1059.03 C 607.891 1058.67 607.297 1057.06 607.1 1056.57 C 608.779 1053.96 620.045 1048.68 623.589 1046.86 z"/>
<path transform="translate(0,0)" fill="rgb(0,0,0)" d="M 678.888 924.444 C 684.885 924.137 692.917 923.345 698.493 924.695 L 699.863 927.043 C 692.962 927.789 687.282 928.895 680.521 927.266 L 678.888 924.444 z"/>
<path transform="translate(0,0)" fill="rgb(0,0,0)" d="M 563.774 637.788 C 569.273 638.028 579.896 644.62 583.11 649.073 C 582.148 649.26 580.701 649.297 579.678 649.365 C 574.018 646.879 567.346 642.989 563.774 637.788 z"/>
<path transform="translate(0,0)" fill="rgb(0,0,0)" d="M 309.996 1201.49 C 315.127 1200.24 327.417 1199.16 331.348 1202.85 C 326.459 1205.32 314.168 1205.86 309.996 1201.49 z"/>
<path transform="translate(0,0)" fill="rgb(0,0,0)" d="M 557.034 919.271 C 561.974 918.597 576.21 919.922 579.578 923.452 C 573.649 924.74 561.137 924.217 557.034 919.271 z"/>
<path transform="translate(0,0)" fill="rgb(0,0,0)" d="M 309.988 1287.44 C 316.201 1285.97 326.523 1285.5 331.648 1289.51 C 325.526 1290.81 314.438 1292.15 309.988 1287.44 z"/>
<path transform="translate(0,0)" fill="rgb(0,0,0)" d="M 196.736 424.272 C 222.004 425.567 249.817 423.475 275.273 424.539 C 278.707 425.927 276.878 425.515 281.149 424.938 C 301.939 423.659 325.729 424.878 346.803 424.846 C 373.1 424.807 399.631 424.463 425.895 425.08 C 425.673 438.81 425.918 456.34 424.951 469.728 L 523.341 470.086 C 529.679 470.163 555.758 469.353 559.846 472.213 C 557.488 481.151 558.117 513.076 558.088 523.996 L 558.04 615.786 C 558.059 621.506 559.189 637.633 556.249 641.276 C 490.312 639.463 422.591 642.403 356.406 641.081 C 347.049 640.894 337.944 641.322 328.579 640.475 C 328.287 625.642 328.592 610.057 328.665 595.166 L 195.389 595.055 C 197.811 584.144 197.033 550.401 197.032 537.22 L 196.736 424.272 z M 224.807 431.303 C 230.473 439.565 235.997 440.564 239.547 445.83 C 256.901 444.35 265.559 447.725 273.117 463.953 C 284.507 455.863 295.001 452.819 309.176 454.872 C 322.09 456.743 325.16 467.35 329.084 470.322 C 333.769 469.845 339.547 469.726 344.272 469.744 C 368.924 469.837 393.9 468.882 418.515 469.692 C 418.029 457.151 418.344 442.679 418.338 429.99 L 291.986 429.839 C 273.582 429.859 242.262 429.129 224.807 431.303 z M 554.047 475.644 C 540.236 475.035 523.101 475.502 508.829 475.383 L 388.281 475.174 C 373.412 475.162 350.508 476.592 336.692 475.618 L 335.417 475.516 C 333.246 477.515 333.949 477.939 333.563 481.855 C 343.341 471.356 362.215 479.144 371.73 486.488 C 371.314 489.064 371.678 487.816 369.126 490.156 C 372.984 491.924 371.689 489.178 377.534 490.735 C 387.752 492.91 395.284 494.576 401.803 504.103 C 405.914 510.064 407.452 517.429 406.069 524.537 C 403.347 538.346 393.106 543.692 381.03 547.705 C 384.542 550.693 397.497 560.036 401.581 561.687 C 404.26 559.082 407.309 556.531 410.139 554.058 C 425.437 561.982 444.186 574.549 458.896 584.007 C 468.473 575.051 478.069 563.723 487.354 554.284 C 497.854 543.612 508.75 533.202 519.534 522.811 C 530.19 530.99 543.59 543.091 553.924 551.926 C 554.245 526.677 554.019 500.932 554.047 475.644 z"/>
<path transform="translate(0,0)" fill="rgb(102,225,249)" d="M 519.47 528.9 C 528.603 534.946 544.835 549.86 553.191 557.269 C 554.291 581.612 553.548 611.464 553.312 636.081 C 483.141 636.553 412.968 636.497 342.798 635.914 L 338.044 635.525 L 337.195 634.432 C 342.289 627.659 353.024 617.534 359.195 611.155 C 375.887 593.738 392.827 576.558 410.008 559.622 C 425.319 566.935 444.653 580.486 459.967 589.594 C 473.052 574.84 505.168 541.25 519.47 528.9 z"/>
<path transform="translate(0,0)" fill="rgb(233,251,250)" d="M 201.441 585.834 C 200.497 553.029 201.337 518.629 200.989 485.71 C 200.889 476.266 200.341 440.438 201.702 432.242 C 206.581 428.512 219.199 429.407 224.807 431.303 C 230.473 439.565 235.997 440.564 239.547 445.83 C 256.901 444.35 265.559 447.725 273.117 463.953 C 284.507 455.863 295.001 452.819 309.176 454.872 C 322.09 456.743 325.16 467.35 329.084 470.322 C 330.101 477.217 329.621 488.202 329.596 495.472 C 329.686 509.834 329.579 524.198 329.275 538.557 C 316.731 533.23 291.394 515.923 278.872 507.719 C 253.667 531.952 226.974 563.125 201.441 585.834 z"/>
<path transform="translate(0,0)" fill="rgb(0,0,0)" d="M 239.547 445.83 C 256.901 444.35 265.559 447.725 273.117 463.953 C 274.159 469.678 273.858 476.354 271.95 481.873 C 269.412 489.298 263.877 495.32 256.691 498.474 C 233.16 508.738 208.186 483.264 222.515 460.272 C 227.779 451.827 229.797 448.903 239.547 445.83 z"/>
<path transform="translate(0,0)" fill="rgb(233,251,250)" d="M 333.563 481.855 C 343.341 471.356 362.215 479.144 371.73 486.488 C 371.314 489.064 371.678 487.816 369.126 490.156 C 372.984 491.924 371.689 489.178 377.534 490.735 C 387.752 492.91 395.284 494.576 401.803 504.103 C 405.914 510.064 407.452 517.429 406.069 524.537 C 403.347 538.346 393.106 543.692 381.03 547.705 C 384.542 550.693 397.497 560.036 401.581 561.687 C 380.914 582.508 352.647 610.714 333.204 632.587 C 332.263 583.653 333.577 531.113 333.563 481.855 z"/>
<path transform="translate(0,0)" fill="rgb(0,0,0)" d="M 377.534 490.735 C 387.752 492.91 395.284 494.576 401.803 504.103 C 405.914 510.064 407.452 517.429 406.069 524.537 C 403.347 538.346 393.106 543.692 381.03 547.705 C 373.709 544.359 368.033 547.535 359.719 538.802 C 346.599 525.02 348.719 511.614 361.162 498.239 L 362.181 497.159 L 362.013 494.668 L 363.697 493.052 C 370.107 493.21 371.573 492.842 377.534 490.735 z"/>
<path transform="translate(0,0)" fill="rgb(102,225,249)" d="M 372.611 496.456 C 385.164 493.13 398.03 500.633 401.318 513.196 C 404.605 525.758 397.063 538.602 384.49 541.851 C 371.972 545.086 359.196 537.583 355.923 525.075 C 352.65 512.566 360.113 499.767 372.611 496.456 z"/>
<path transform="translate(0,0)" fill="rgb(0,0,0)" d="M 208.031 1829.49 C 217.063 1829.45 260.835 1828.38 266.566 1831.01 L 266.93 1833.43 L 265.763 1834.93 C 255.053 1834.49 213.113 1835.79 207.211 1833.99 C 206.675 1831.04 206.571 1832.52 208.031 1829.49 z"/>
<path transform="translate(0,0)" fill="rgb(0,0,0)" d="M 200.415 354.462 C 204.01 355.74 215.605 365.334 217.797 369.007 C 218.78 370.653 217.999 371.006 217.152 373.588 C 212.234 372.356 202.052 363.545 199.449 359.041 C 198.621 357.608 199.786 356.108 200.415 354.462 z"/>
<path transform="translate(0,0)" fill="rgb(0,0,0)" d="M 167.787 327.622 C 173.36 329.22 181.539 337.189 185.109 341.794 C 186.425 343.492 185.827 343.259 185.203 346.107 C 180.033 345.708 172.049 337.459 168.746 333.635 C 166.511 331.047 167.359 330.888 167.787 327.622 z"/>
<path transform="translate(0,0)" fill="rgb(0,0,0)" d="M 170.17 1475.08 C 176.473 1475.03 184.924 1474.25 190.551 1475.69 C 192.625 1478.25 192.028 1476.75 191.784 1480.55 C 185.589 1480.95 174.881 1482.73 170.423 1479.03 L 170.17 1475.08 z"/>
<path transform="translate(0,0)" fill="rgb(0,0,0)" d="M 175.799 769.699 C 181.459 769.903 192.578 771.183 196.947 774.691 C 198.545 775.974 198.028 776.715 198.45 779.528 C 192.473 778.464 181.229 776.978 176.531 773.824 L 175.799 769.699 z"/>
<path transform="translate(0,0)" fill="rgb(0,0,0)" d="M 254.804 793.685 C 260.409 793.85 270.292 797.845 274.94 801.079 C 277.198 802.651 276.557 803.391 276.77 806.401 C 272.328 805.855 258.251 800.147 254.871 796.971 L 254.804 793.685 z"/>
<path transform="translate(0,0)" fill="rgb(0,0,0)" d="M 216 779.676 C 222.038 780.629 234.009 783.269 237.787 788.007 L 237.334 790.806 C 231.71 790.158 220.595 787.103 216.276 783.463 L 216 779.676 z"/>
<path transform="translate(0,0)" fill="rgb(0,0,0)" d="M 311.426 825.035 C 304.491 820.139 298.901 819.745 293.065 811.728 L 294.364 811.352 C 302.079 813.265 306.919 816.457 313.82 820.364 L 311.426 825.035 z"/>
<path transform="translate(0,0)" fill="rgb(0,0,0)" d="M 232.644 381.336 C 236.52 382.233 247.71 392.093 249.652 395.51 L 248.783 398.446 C 244.286 397.359 233.417 388.671 231.411 384.595 L 232.644 381.336 z"/>
<path transform="translate(0,0)" fill="rgb(0,0,0)" fill-opacity="0.984314" d="M 275.273 424.539 L 276.41 423.386 C 272.534 419.529 265.379 415.186 263.788 411.758 L 264.626 409.74 C 269.109 408.1 277.367 417.862 280.461 421.173 C 280.647 422.132 281.069 424.033 281.149 424.938 C 276.878 425.515 278.707 425.927 275.273 424.539 z"/>
<path transform="translate(0,0)" fill="rgb(0,0,0)" d="M 183.69 1165.83 C 189.933 1166.04 198.255 1164.67 203.858 1166.93 C 205.452 1167.57 205.207 1168.8 205.917 1171.22 C 199.927 1171.48 189.596 1172.6 184.458 1169.83 L 183.69 1165.83 z"/>
<path transform="translate(0,0)" fill="rgb(0,0,0)" d="M 221.55 1473.4 C 226.066 1472.53 228.474 1472.49 232.157 1474.32 L 232.307 1476.02 C 228.36 1478.69 228.922 1477.83 223.404 1478.22 C 218.39 1479.04 216.526 1479.58 212.511 1477.49 L 212.406 1475.71 C 216.168 1473.03 216.15 1473.89 221.55 1473.4 z"/>
<path transform="translate(0,0)" fill="rgb(0,0,0)" d="M 142.897 306.156 C 146.127 306.585 150.729 309.842 152.388 312.776 C 154.218 316.013 153.409 316.195 152.156 319.387 C 146.043 315.197 140.5 313.626 142.897 306.156 z"/>
<path transform="translate(0,0)" fill="rgb(0,0,0)" d="M 144.449 764.682 C 152.07 765.992 156.631 764.281 158.319 772.019 C 152.5 771.495 148.573 772.714 144.597 769.2 L 144.449 764.682 z"/>
<path transform="translate(0,0)" fill="rgb(0,0,0)" fill-opacity="0.988235" d="M 138.649 1474.81 C 142.147 1474.76 144.664 1474.71 148.136 1475.02 C 150.779 1477.15 149.934 1476.38 150.461 1480.97 C 142.525 1480.42 140.118 1482.56 138.649 1474.81 z"/>
<path transform="translate(0,0)" fill="rgb(0,0,0)" fill-opacity="0.984314" d="M 152.453 1164.28 C 159.669 1163.8 162.893 1162.06 166.307 1168.94 C 159.826 1169.28 155.73 1170.49 152.453 1164.28 z"/>
</svg>