<svg version="1.1" xmlns="http://www.w3.org/2000/svg" style="display: block;" viewBox="0 0 2048 1442" width="2000" height="1408" preserveAspectRatio="none">
<path transform="translate(0,0)" fill="rgb(255,246,214)" d="M 0 0 L 2048 0 L 2048 1442 L 0 1442 L 0 0 z"/>
<path transform="translate(0,0)" fill="rgb(254,112,57)" d="M 1414.1 578.226 L 1416.97 579.083 C 1428.66 583.206 1504.64 605.949 1508.51 609.23 L 1508.88 610.197 L 1509.92 610.554 C 1507.73 615.937 1504.37 620.54 1501.14 625.365 C 1536.87 630.358 1569.67 640.07 1603.76 651.074 C 1562.92 724.932 1514.53 775.166 1450.75 829.565 C 1436.08 842.069 1413.8 858.194 1400.65 870.16 C 1391.01 876.543 1384.6 881.989 1373.69 888.813 C 1363.78 895.962 1353.72 902.897 1343.52 909.613 C 1348.82 915.977 1381.01 955.727 1381.65 960.456 L 1380.58 961.469 C 1359.82 975.798 1336.83 995.463 1316.2 1010.7 C 1308.61 1016.3 1282.64 1035.83 1276.59 1041.67 L 1275.76 1042.45 C 1272.67 1044.26 1264.49 1050.82 1261.25 1053.28 C 1244.65 1033.2 1225.22 1006.65 1209.28 985.564 C 1171.08 1002.73 1140.26 1015.79 1100.84 1029.83 C 1099.21 1038.1 1094.17 1072.23 1091.69 1077.44 L 1089.47 1077.57 C 1084.98 1075.83 1038.78 1068.33 1031.72 1067.12 L 986.089 1059.3 C 979.482 1058.16 966.46 1055.58 960.302 1055.35 L 959.146 1054.64 C 953.262 1053.64 947.385 1052.6 941.515 1051.52 C 952.771 986.368 963.268 918.145 975.569 853.526 C 945.085 845.52 914.378 836.693 883.871 828.306 C 862.874 821.807 839.997 817.911 820.231 808.091 C 811.587 803.797 802.554 793.292 796.542 785.816 C 788.927 774.13 783.408 761.205 780.236 747.622 C 771.778 712.129 776.506 671.877 795.881 640.627 C 825.001 671.032 896.213 667.66 933.538 656.564 C 949.537 651.809 967.306 646.221 975.849 630.96 L 1087.16 657.87 C 1103.44 654.339 1120.49 649.089 1137.07 645.454 C 1179.53 636.146 1227.17 626.758 1270.5 623.739 C 1274.43 622.201 1296.48 621.342 1303.26 620.585 C 1331.79 617.208 1386.51 617.234 1415.15 617.483 C 1412.95 601.146 1413.13 594.705 1414.1 578.226 z"/>
<path transform="translate(0,0)" fill="rgb(254,198,23)" d="M 975.849 630.96 L 1087.16 657.87 C 1060.55 665.881 1033.79 673.834 1007.67 683.396 C 1004.73 684.473 999.498 684.982 997.76 685.739 L 998.117 686.757 C 986.462 691.653 974.7 696.292 962.841 700.671 C 985.733 705.035 1012.55 712.655 1035.82 718.048 C 1048.9 721.08 1074.14 726.437 1086.37 730.248 C 1091.79 731.987 1097.03 734.241 1102.02 736.981 C 1113.28 743.306 1123.04 756.564 1129.02 767.741 C 1135.54 783.681 1136.96 799.667 1136.43 816.788 C 1135.19 835.871 1131.18 855.75 1127.88 874.665 L 1109.71 978.189 C 1107.22 992.321 1102.24 1016.35 1100.84 1029.83 C 1099.21 1038.1 1094.17 1072.23 1091.69 1077.44 L 1089.47 1077.57 C 1084.98 1075.83 1038.78 1068.33 1031.72 1067.12 L 986.089 1059.3 C 979.482 1058.16 966.46 1055.58 960.302 1055.35 L 959.146 1054.64 C 953.262 1053.64 947.385 1052.6 941.515 1051.52 C 952.771 986.368 963.268 918.145 975.569 853.526 C 945.085 845.52 914.378 836.693 883.871 828.306 C 862.874 821.807 839.997 817.911 820.231 808.091 C 811.587 803.797 802.554 793.292 796.542 785.816 C 788.927 774.13 783.408 761.205 780.236 747.622 C 771.778 712.129 776.506 671.877 795.881 640.627 C 825.001 671.032 896.213 667.66 933.538 656.564 C 949.537 651.809 967.306 646.221 975.849 630.96 z"/>
<path transform="translate(0,0)" fill="rgb(41,16,67)" d="M 917.826 665.672 C 930.641 671.477 948.625 681.554 961.461 688.297 C 973.554 687.355 985.655 686.502 997.76 685.739 L 998.117 686.757 C 986.462 691.653 974.7 696.292 962.841 700.671 C 957.592 699.138 951.407 697.723 946.038 696.35 C 936.88 687.091 926.737 675.411 917.826 665.672 z"/>
<path transform="translate(0,0)" fill="rgb(95,70,12)" d="M 837.441 676.693 C 841.579 680.149 840.924 692.29 839.803 697.252 C 836.218 713.122 828.543 723.287 815.18 731.977 C 882.441 753.272 954.819 773.693 1022.64 793.781 L 995.157 949.484 C 991.244 971.646 985.287 1000.72 982.611 1022.52 C 992.647 1023.72 1081.3 1036.84 1085.73 1039.2 L 1084.89 1039.92 C 1070.24 1037.96 1057.43 1036.19 1042.77 1033.62 C 1019.6 1030.47 982.543 1025.22 960.16 1020.45 C 965.03 1019.03 975.298 1021.31 980.464 1022.35 C 992.645 946.808 1008.32 870.601 1020.41 794.952 C 996.137 788.514 969.875 780.101 945.64 772.888 L 812.717 733.208 C 808.286 735.53 798.988 739.225 794.022 739.465 L 793.317 738.428 C 827.411 726.707 840.671 715.236 837.441 676.693 z"/>
<path transform="translate(0,0)" fill="rgb(41,16,67)" d="M 1414.1 578.226 L 1416.97 579.083 C 1428.66 583.206 1504.64 605.949 1508.51 609.23 L 1508.88 610.197 L 1509.92 610.554 C 1507.73 615.937 1504.37 620.54 1501.14 625.365 C 1536.87 630.358 1569.67 640.07 1603.76 651.074 C 1562.92 724.932 1514.53 775.166 1450.75 829.565 C 1436.08 842.069 1413.8 858.194 1400.65 870.16 C 1351.28 794.597 1318.12 709.615 1303.26 620.585 C 1331.79 617.208 1386.51 617.234 1415.15 617.483 C 1412.95 601.146 1413.13 594.705 1414.1 578.226 z"/>
<path transform="translate(0,0)" fill="rgb(254,254,254)" d="M 1414.1 578.226 L 1416.97 579.083 C 1428.66 583.206 1504.64 605.949 1508.51 609.23 L 1508.88 610.197 C 1498.74 626.703 1485.74 645.637 1465.52 650.348 C 1455.75 652.722 1445.44 651.08 1436.89 645.791 C 1425.46 638.604 1422.08 630.059 1417.43 618.458 L 1415.15 617.483 C 1412.95 601.146 1413.13 594.705 1414.1 578.226 z"/>
<path transform="translate(0,0)" fill="rgb(86,84,81)" d="M 1414.1 578.226 L 1416.97 579.083 C 1413.27 589.916 1415.81 607.078 1417.43 618.458 L 1415.15 617.483 C 1412.95 601.146 1413.13 594.705 1414.1 578.226 z"/>
<path transform="translate(0,0)" fill="rgb(254,198,23)" d="M 1209.28 985.564 C 1222.27 978.089 1240.65 969.851 1254.7 962.423 C 1285.17 946.323 1314.82 928.697 1343.52 909.613 C 1348.82 915.977 1381.01 955.727 1381.65 960.456 L 1380.58 961.469 C 1359.82 975.798 1336.83 995.463 1316.2 1010.7 C 1308.61 1016.3 1282.64 1035.83 1276.59 1041.67 L 1275.76 1042.45 C 1272.67 1044.26 1264.49 1050.82 1261.25 1053.28 C 1244.65 1033.2 1225.22 1006.65 1209.28 985.564 z"/>
<path transform="translate(0,0)" fill="rgb(254,254,254)" d="M 1270.5 623.739 C 1274.43 622.201 1296.48 621.342 1303.26 620.585 C 1318.12 709.615 1351.28 794.597 1400.65 870.16 C 1391.01 876.543 1384.6 881.989 1373.69 888.813 C 1321.34 809.353 1283.76 718.269 1270.5 623.739 z"/>
<path transform="translate(0,0)" fill="rgb(254,254,254)" d="M 1129.02 767.741 C 1144.81 758.626 1162.49 757.707 1172.43 775.563 C 1176.4 782.692 1177.3 791.136 1174.91 798.942 C 1169.3 817.291 1153.23 820.795 1136.43 816.788 C 1136.96 799.667 1135.54 783.681 1129.02 767.741 z"/>
<path transform="translate(0,0)" fill="rgb(254,254,254)" d="M 1234.74 733.492 C 1244.8 730.992 1255.44 734.123 1262.54 741.68 C 1269.65 749.237 1272.12 760.043 1269.01 769.937 C 1265.89 779.832 1257.68 787.274 1247.52 789.399 C 1232.22 792.601 1217.18 782.96 1213.69 767.721 C 1210.21 752.482 1219.57 737.259 1234.74 733.492 z"/>
<path transform="translate(0,0)" fill="rgb(254,112,57)" d="M 796.542 785.816 C 802.554 793.292 811.587 803.797 820.231 808.091 C 839.997 817.911 862.874 821.807 883.871 828.306 C 914.378 836.693 945.085 845.52 975.569 853.526 C 963.268 918.145 952.771 986.368 941.515 1051.52 C 947.385 1052.6 953.262 1053.64 959.146 1054.64 L 956.156 1068.4 C 930.617 1072.55 901.051 1076.79 875.942 1081.4 C 804.431 1091.04 732.255 1094.86 660.126 1092.82 C 654.146 1092.06 647.324 1092.99 641.81 1090.73 C 627.902 1096.09 620.358 1100.76 605.862 1097.49 C 589.674 1141.89 547.321 1164.69 503.35 1172.73 C 498.639 1173.59 493.639 1174.47 488.975 1175.44 C 483.603 1157.55 482.705 1146.36 488.327 1128.27 C 450.174 1159.52 394.124 1179.87 345.099 1179.1 C 337.917 1180.72 319.203 1180.44 311.813 1179.04 L 310.753 1178.3 C 310.712 1177.57 310.61 1176.75 310.899 1176.05 C 331.071 1127 365.232 1082.67 412.627 1057.43 C 418.587 1054.26 424.953 1051.47 431.189 1048.71 C 412.034 1047.18 399.8 1041.34 384.605 1029.88 C 426.063 966.38 484.213 948.835 555.503 971.215 C 555.883 970.147 555.796 970.326 556.376 969.08 C 561.689 957.656 576.261 954.737 587.098 950.567 L 588.232 949.021 C 591.835 943.942 611.162 926.632 616.445 921.933 C 657.269 885.288 700.443 851.349 745.691 820.332 C 760.946 808.727 780.34 796.509 796.542 785.816 z"/>
<path transform="translate(0,0)" fill="rgb(254,254,254)" d="M 384.605 1029.88 C 426.063 966.38 484.213 948.835 555.503 971.215 L 554.763 973.036 C 555.467 982.984 564.914 1002.14 568.304 1012.17 L 567.617 1012.63 C 559.913 1017.72 545.609 1024.75 537.01 1029.32 L 479.341 1059.94 C 474.594 1062.46 469.743 1064.92 465.05 1067.53 C 458.045 1071.42 444.845 1075.6 451.428 1086.02 C 459.069 1091.89 490.132 1081.49 500.193 1079.04 L 586.325 1058.07 C 590.5 1069.11 596.506 1088.9 604.468 1096.7 L 605.862 1097.49 C 589.674 1141.89 547.321 1164.69 503.35 1172.73 C 498.639 1173.59 493.639 1174.47 488.975 1175.44 C 483.603 1157.55 482.705 1146.36 488.327 1128.27 C 450.174 1159.52 394.124 1179.87 345.099 1179.1 C 337.917 1180.72 319.203 1180.44 311.813 1179.04 L 310.753 1178.3 C 310.712 1177.57 310.61 1176.75 310.899 1176.05 C 331.071 1127 365.232 1082.67 412.627 1057.43 C 418.587 1054.26 424.953 1051.47 431.189 1048.71 C 412.034 1047.18 399.8 1041.34 384.605 1029.88 z"/>
<path transform="translate(0,0)" fill="rgb(86,84,81)" d="M 384.605 1029.88 C 426.063 966.38 484.213 948.835 555.503 971.215 L 554.763 973.036 C 483.02 949.043 430.676 969.118 386.921 1029.33 C 406.782 1044.29 419.85 1047.02 443.967 1046.83 C 391.249 1062.6 351.443 1101.71 325.613 1149.39 C 320.659 1158.53 316.276 1167.97 312.488 1177.65 C 377.457 1179.53 443.744 1167.57 492.635 1121.53 C 493.51 1120.71 494.372 1119.88 495.221 1119.03 C 484.467 1140.69 484.058 1149.88 490.147 1173.45 C 540.515 1163.85 583.254 1149.22 604.468 1096.7 L 605.862 1097.49 C 589.674 1141.89 547.321 1164.69 503.35 1172.73 C 498.639 1173.59 493.639 1174.47 488.975 1175.44 C 483.603 1157.55 482.705 1146.36 488.327 1128.27 C 450.174 1159.52 394.124 1179.87 345.099 1179.1 C 337.917 1180.72 319.203 1180.44 311.813 1179.04 L 310.753 1178.3 C 310.712 1177.57 310.61 1176.75 310.899 1176.05 C 331.071 1127 365.232 1082.67 412.627 1057.43 C 418.587 1054.26 424.953 1051.47 431.189 1048.71 C 412.034 1047.18 399.8 1041.34 384.605 1029.88 z"/>
<path transform="translate(0,0)" fill="rgb(149,143,135)" d="M 311.813 1179.04 C 321.155 1179.01 336.183 1178.54 345.099 1179.1 C 337.917 1180.72 319.203 1180.44 311.813 1179.04 z"/>
<path transform="translate(0,0)" fill="rgb(22,180,112)" d="M 603.898 993.536 C 619.286 985.389 638.455 974.23 654.198 967.785 C 659.381 965.663 679.101 962.067 685.4 960.796 L 738.321 950.117 L 793.66 938.874 C 803.193 936.911 813.027 934.264 822.657 932.971 C 824.522 932.72 826.625 932.573 828.442 933.19 C 830.692 933.954 832.569 935.507 833.398 937.791 C 834.29 940.246 834.001 942.655 832.592 944.825 C 830.147 948.593 693.94 1028.61 681.904 1033.77 C 664.52 1041.22 643.359 1043.93 625.021 1048.79 C 612.076 1051.69 599.176 1054.78 586.325 1058.07 L 500.193 1079.04 C 490.132 1081.49 459.069 1091.89 451.428 1086.02 C 444.845 1075.6 458.045 1071.42 465.05 1067.53 C 469.743 1064.92 474.594 1062.46 479.341 1059.94 L 537.01 1029.32 C 545.609 1024.75 559.913 1017.72 567.617 1012.63 L 568.304 1012.17 C 574.524 1009.96 597.005 997.284 603.898 993.536 z"/>
<path transform="translate(0,0)" fill="rgb(41,16,67)" d="M 555.503 971.215 C 555.883 970.147 555.796 970.326 556.376 969.08 C 561.689 957.656 576.261 954.737 587.098 950.567 C 592.444 964.368 598.155 980.067 603.898 993.536 C 597.005 997.284 574.524 1009.96 568.304 1012.17 C 564.914 1002.14 555.467 982.984 554.763 973.036 L 555.503 971.215 z"/>
<path transform="translate(0,0)" fill="rgb(41,16,67)" d="M 586.325 1058.07 C 599.176 1054.78 612.076 1051.69 625.021 1048.79 C 630.801 1062.06 636.132 1078.51 641.81 1090.73 C 627.902 1096.09 620.358 1100.76 605.862 1097.49 L 604.468 1096.7 C 596.506 1088.9 590.5 1069.11 586.325 1058.07 z"/>
<path transform="translate(0,0)" fill="rgb(254,198,23)" d="M 1427.2 528.091 C 1434.45 512.12 1440.54 488.477 1433.72 471.565 C 1428.13 457.716 1416.09 445.99 1409.14 432.752 C 1378.87 378.309 1372.02 313.002 1397.13 254.74 C 1415.63 211.239 1450.72 176.917 1494.62 159.393 C 1534.6 143.421 1579.33 144.238 1618.7 161.659 C 1658.61 179.034 1689.81 211.784 1705.23 252.484 C 1722.87 298.196 1721.57 349.051 1701.63 393.804 C 1679.76 442.116 1639.89 479.976 1590.51 499.312 C 1546.55 516.121 1544.52 513.97 1529.62 560.576 C 1538.47 567.761 1535.74 574.781 1525.08 576.747 C 1522.88 583.066 1520.96 588.598 1518.26 594.757 C 1529.84 606.394 1517.89 607.988 1509.92 610.554 L 1508.88 610.197 L 1508.51 609.23 C 1504.64 605.949 1428.66 583.206 1416.97 579.083 L 1414.1 578.226 C 1401.95 576.358 1400.22 561.087 1417.05 561.964 C 1418.75 555.874 1420.25 549.523 1421.78 543.374 C 1414.4 536.433 1417.47 529.73 1427.2 528.091 z"/>
<path transform="translate(0,0)" fill="rgb(254,254,254)" d="M 1427.2 528.091 C 1447.7 535.703 1482.16 544.052 1500.11 551.887 L 1501.52 551.964 C 1508.59 554.225 1522.96 559.235 1529.62 560.576 C 1538.47 567.761 1535.74 574.781 1525.08 576.747 C 1522.88 583.066 1520.96 588.598 1518.26 594.757 C 1529.84 606.394 1517.89 607.988 1509.92 610.554 L 1508.88 610.197 L 1508.51 609.23 C 1504.64 605.949 1428.66 583.206 1416.97 579.083 L 1414.1 578.226 C 1401.95 576.358 1400.22 561.087 1417.05 561.964 C 1418.75 555.874 1420.25 549.523 1421.78 543.374 C 1414.4 536.433 1417.47 529.73 1427.2 528.091 z"/>
<path transform="translate(0,0)" fill="rgb(41,16,67)" d="M 1414.1 578.226 C 1401.95 576.358 1400.22 561.087 1417.05 561.964 L 1418.61 562.921 C 1438.51 569.578 1458.5 576.007 1478.55 582.204 C 1489.73 585.741 1505.31 591.2 1516.39 593.953 L 1518.26 594.757 C 1529.84 606.394 1517.89 607.988 1509.92 610.554 L 1508.88 610.197 L 1508.51 609.23 C 1504.64 605.949 1428.66 583.206 1416.97 579.083 L 1414.1 578.226 z"/>
<path transform="translate(0,0)" fill="rgb(41,16,67)" d="M 1427.2 528.091 C 1447.7 535.703 1482.16 544.052 1500.11 551.887 L 1501.52 551.964 C 1508.59 554.225 1522.96 559.235 1529.62 560.576 C 1538.47 567.761 1535.74 574.781 1525.08 576.747 L 1523.59 575.977 C 1493.28 564.933 1454.81 553.843 1423.54 543.948 L 1421.78 543.374 C 1414.4 536.433 1417.47 529.73 1427.2 528.091 z"/>
<path transform="translate(0,0)" fill="rgb(86,84,81)" d="M 1421.78 543.374 L 1423.54 543.948 C 1421.99 549.967 1420.36 557.051 1418.61 562.921 L 1417.05 561.964 C 1418.75 555.874 1420.25 549.523 1421.78 543.374 z"/>
<path transform="translate(0,0)" fill="rgb(86,84,81)" d="M 1523.59 575.977 L 1525.08 576.747 C 1522.88 583.066 1520.96 588.598 1518.26 594.757 L 1516.39 593.953 C 1518.91 589.144 1521.61 581.251 1523.59 575.977 z"/>
<path transform="translate(0,0)" fill="rgb(95,70,12)" d="M 1492.34 365.943 C 1477.29 367.443 1461.87 362.063 1461.19 345.169 C 1459.8 310.379 1506 305.117 1510.94 340.878 C 1512.36 351.231 1503.03 360.332 1494.7 365.423 C 1506.95 382.702 1517.07 382.422 1533.99 371.654 C 1538.99 378.363 1553.23 392.466 1561.94 386.629 C 1564.75 379.241 1556.23 358.639 1573.71 352.118 C 1587.26 347.065 1603.16 349.8 1608.75 364.389 C 1611.35 371.252 1611 378.878 1607.8 385.477 C 1598.4 404.484 1578.91 402.927 1565.19 389.012 L 1521.82 500.337 C 1517.58 511.215 1506.28 542.617 1501.52 551.964 L 1500.11 551.887 C 1505.71 534.385 1515.26 511.972 1522.13 494.36 L 1563.22 389.176 C 1552.13 388.541 1544.77 387.337 1537 378.53 C 1535.79 377.145 1534.6 375.733 1533.46 374.295 C 1515.88 384.323 1506.42 384.296 1493.81 367.471 L 1469.77 483.99 C 1468.08 492.229 1461.76 526.951 1459.13 533.026 L 1458.35 533.51 C 1458.53 526.862 1466.61 490.1 1468.33 481.992 C 1476.52 443.47 1483.93 404.344 1492.34 365.943 z"/>
<path transform="translate(0,0)" fill="rgb(254,198,23)" d="M 1582.7 351.468 C 1595.24 349.759 1606.83 358.448 1608.69 370.964 C 1610.56 383.479 1602.01 395.169 1589.52 397.191 C 1581.3 398.522 1573 395.329 1567.79 388.831 C 1562.58 382.334 1561.27 373.537 1564.36 365.803 C 1567.45 358.069 1574.45 352.593 1582.7 351.468 z"/>
<path transform="translate(0,0)" fill="rgb(254,198,23)" d="M 1478.93 319.559 C 1491.14 315.79 1504.1 322.648 1507.85 334.867 C 1511.59 347.086 1504.71 360.027 1492.49 363.753 C 1480.29 367.471 1467.39 360.611 1463.65 348.422 C 1459.91 336.232 1466.75 323.318 1478.93 319.559 z"/>
<path transform="translate(0,0)" fill="rgb(254,198,23)" d="M 428.772 343.595 L 497.252 322.365 C 498.887 328.645 499.79 335.056 500.817 341.463 C 505.622 339.319 506.807 339.006 511.937 337.946 C 531.009 342.634 547.743 360.6 561.05 374.674 L 559.941 376.054 C 589.679 408.503 616.323 445.589 645.746 478.56 C 650.292 483.654 655.684 490.015 659.72 495.489 L 661 494.224 L 672.564 483.974 C 692.748 505.367 712.593 531.957 732.548 554.005 L 732.822 555.455 C 729.295 558.945 724.627 562.045 720.76 565.275 C 699.042 583.415 672.548 599.421 643.039 593.808 C 632.547 591.727 622.706 587.167 614.337 580.507 C 590.538 561.92 550.264 501.137 532.15 474.229 C 520.035 477.444 507.008 480.007 494.481 480.153 C 473.032 501.828 456.973 505.613 427.107 510.388 C 419.391 523.229 415.649 527.265 404.999 537.723 C 405.262 559.159 408.273 561.208 422.83 576.732 C 413.262 578.747 396.965 584.196 386.852 587.412 C 376.473 590.712 359.838 595.283 349.904 599.101 C 349.49 578.775 355.683 577.121 342.879 557.469 C 326.619 554.211 321.448 552.435 306.2 545.985 C 301.151 548.083 296.089 550.149 291.014 552.183 C 232.321 575.575 204.881 548.274 178.225 498.031 C 166.584 476.088 154.86 455.348 145.772 431.886 C 167.783 424.687 190.838 417.897 213.055 411.155 L 210.036 399.706 C 226.611 396.175 258.047 384.89 275.349 379.746 C 325.362 364.876 375.268 347.967 425.452 333.517 L 428.772 343.595 z"/>
<path transform="translate(0,0)" fill="rgb(254,254,254)" d="M 511.937 337.946 C 531.009 342.634 547.743 360.6 561.05 374.674 L 559.941 376.054 C 589.679 408.503 616.323 445.589 645.746 478.56 C 650.292 483.654 655.684 490.015 659.72 495.489 L 661 494.224 L 672.564 483.974 C 692.748 505.367 712.593 531.957 732.548 554.005 L 732.822 555.455 C 729.295 558.945 724.627 562.045 720.76 565.275 C 699.042 583.415 672.548 599.421 643.039 593.808 C 632.547 591.727 622.706 587.167 614.337 580.507 C 590.538 561.92 550.264 501.137 532.15 474.229 C 520.035 477.444 507.008 480.007 494.481 480.153 L 495.989 478.304 C 499.921 472.926 501.655 469.606 504.785 463.653 C 497.711 465.785 476.661 469.505 473.895 470.825 C 472.133 473.158 471.545 474.156 469.283 475.95 L 468.809 476.952 C 463.643 474.694 454.038 468.346 452.193 462.772 C 450.489 457.623 452.438 449.898 451.259 444.402 C 450.236 439.631 446.65 435.864 447.238 430.733 C 447.524 427.155 451.492 421.874 452.026 418.995 C 452.737 415.163 446.691 407.613 446.542 404.212 C 446.29 398.466 452.989 391.41 456.598 387.585 C 453.191 382.934 450.994 380.674 451.717 374.434 C 453.576 358.404 470.022 357.704 481.3 358.402 C 486.753 351.062 493.113 346.158 500.817 341.463 C 505.622 339.319 506.807 339.006 511.937 337.946 z"/>
<path transform="translate(0,0)" fill="rgb(254,254,254)" d="M 511.937 337.946 C 531.009 342.634 547.743 360.6 561.05 374.674 L 559.941 376.054 C 547.001 362.566 530.4 344.924 512.154 339.525 C 493.5 344.097 483.258 356.84 472.819 372.366 C 465.91 382.643 463.031 400.55 481.69 392.967 C 491.272 388.771 500.665 379.412 510.128 373.399 C 514.266 379.952 519.504 388.914 526.067 392.899 C 531.021 395.907 534.84 397.462 539.192 401.409 C 528.15 400.603 518.651 389.122 512.565 380.795 C 510.717 387.891 509.877 389.982 506.349 396.432 C 510.119 403.904 510.342 404.276 508.761 412.475 L 508.093 416.09 C 509.906 419.492 514.942 427.467 512.912 430.537 C 503.341 445.012 523.785 453.277 504.785 463.653 C 497.711 465.785 476.661 469.505 473.895 470.825 C 472.133 473.158 471.545 474.156 469.283 475.95 L 468.809 476.952 C 463.643 474.694 454.038 468.346 452.193 462.772 C 450.489 457.623 452.438 449.898 451.259 444.402 C 450.236 439.631 446.65 435.864 447.238 430.733 C 447.524 427.155 451.492 421.874 452.026 418.995 C 452.737 415.163 446.691 407.613 446.542 404.212 C 446.29 398.466 452.989 391.41 456.598 387.585 C 453.191 382.934 450.994 380.674 451.717 374.434 C 453.576 358.404 470.022 357.704 481.3 358.402 C 486.753 351.062 493.113 346.158 500.817 341.463 C 505.622 339.319 506.807 339.006 511.937 337.946 z"/>
<path transform="translate(0,0)" fill="rgb(86,84,81)" d="M 511.937 337.946 C 531.009 342.634 547.743 360.6 561.05 374.674 L 559.941 376.054 C 547.001 362.566 530.4 344.924 512.154 339.525 C 493.5 344.097 483.258 356.84 472.819 372.366 C 465.91 382.643 463.031 400.55 481.69 392.967 C 491.272 388.771 500.665 379.412 510.128 373.399 C 514.266 379.952 519.504 388.914 526.067 392.899 C 531.021 395.907 534.84 397.462 539.192 401.409 C 528.15 400.603 518.651 389.122 512.565 380.795 C 510.717 387.891 509.877 389.982 506.349 396.432 C 510.119 403.904 510.342 404.276 508.761 412.475 L 508.093 416.09 C 509.906 419.492 514.942 427.467 512.912 430.537 C 503.341 445.012 523.785 453.277 504.785 463.653 C 497.711 465.785 476.661 469.505 473.895 470.825 C 471.948 470.39 470.819 470.551 469.858 469.345 C 479.802 465.604 516.813 467.902 510.873 446.304 C 510.544 445.106 508.777 442.931 507.377 442.794 C 500.357 442.764 460.105 449.893 456.47 444.636 C 468.577 440.797 516.942 452.046 510.985 425.219 C 510.549 423.255 508.352 420.312 506.175 419.689 C 490.993 417.724 475.353 427.587 459.147 418.599 L 459.382 418.094 C 470.166 420.492 504.853 424.626 507.734 408.172 C 508.286 405.09 507.513 401.919 505.604 399.437 C 498.694 390.294 481.387 398.202 472.259 396.451 C 469.518 395.925 464.172 388.514 460.629 388.644 C 455.28 389.98 448.854 396.173 448.724 401.956 C 448.552 409.617 453.269 412.556 454.908 419.121 C 455.201 420.64 449.191 426.431 448.71 430.193 C 447.84 435.95 452.562 439.287 453.638 445.022 C 454.529 449.774 451.819 455.686 452.639 459.622 C 453.92 465.769 464.493 472.958 469.283 475.95 L 468.809 476.952 C 463.643 474.694 454.038 468.346 452.193 462.772 C 450.489 457.623 452.438 449.898 451.259 444.402 C 450.236 439.631 446.65 435.864 447.238 430.733 C 447.524 427.155 451.492 421.874 452.026 418.995 C 452.737 415.163 446.691 407.613 446.542 404.212 C 446.29 398.466 452.989 391.41 456.598 387.585 C 453.191 382.934 450.994 380.674 451.717 374.434 C 453.576 358.404 470.022 357.704 481.3 358.402 C 486.753 351.062 493.113 346.158 500.817 341.463 C 505.622 339.319 506.807 339.006 511.937 337.946 z"/>
<path transform="translate(0,0)" fill="rgb(254,254,254)" d="M 464.827 360.169 C 469.921 359.726 474.385 359.898 479.483 360.01 C 471.59 369.499 467.681 373.964 464.647 385.793 C 464.641 386.691 464.435 386.767 463.994 387.693 C 446.624 386.401 452.793 367.553 464.827 360.169 z"/>
<path transform="translate(0,0)" fill="rgb(254,254,254)" d="M 508.28 376.866 L 509.794 377.622 C 510.812 382.595 508.924 390.234 505.266 393.977 C 504.231 395.036 493.71 393.939 491.391 393.859 L 488.979 392.669 C 490.161 388.732 504.292 379.663 508.28 376.866 z"/>
<path transform="translate(0,0)" fill="rgb(86,84,81)" d="M 495.989 478.304 C 509.892 477.63 519.224 475.558 532.763 472.252 C 555.135 504.498 574.966 535.057 601.161 565.083 C 629.889 598.012 664.369 601.574 701.077 577.676 C 711.735 570.737 722.044 560.919 732.548 554.005 L 732.822 555.455 C 729.295 558.945 724.627 562.045 720.76 565.275 C 699.042 583.415 672.548 599.421 643.039 593.808 C 632.547 591.727 622.706 587.167 614.337 580.507 C 590.538 561.92 550.264 501.137 532.15 474.229 C 520.035 477.444 507.008 480.007 494.481 480.153 L 495.989 478.304 z"/>
<path transform="translate(0,0)" fill="rgb(86,84,81)" d="M 659.72 495.489 L 661 494.224 C 666.342 504.027 666.84 506.264 669.241 517.203 C 666.068 512.419 663.264 502.084 659.72 495.489 z"/>
<path transform="translate(0,0)" fill="rgb(255,246,214)" d="M 435.629 365.714 C 445.63 362.493 469.217 354.321 478.339 353.057 C 480.813 354.528 480.137 354.698 481.3 358.402 C 470.022 357.704 453.576 358.404 451.717 374.434 C 450.994 380.674 453.191 382.934 456.598 387.585 C 452.989 391.41 446.29 398.466 446.542 404.212 C 446.691 407.613 452.737 415.163 452.026 418.995 C 451.492 421.874 447.524 427.155 447.238 430.733 C 446.65 435.864 450.236 439.631 451.259 444.402 C 452.438 449.898 450.489 457.623 452.193 462.772 C 454.038 468.346 463.643 474.694 468.809 476.952 C 456.39 484.723 451.365 486.749 436.771 488.378 C 446.831 450.446 442.946 420.539 427.754 385.197 C 432.826 383.864 435.52 382.983 440.395 381.052 L 435.629 365.714 z"/>
<path transform="translate(0,0)" fill="rgb(255,246,214)" d="M 176.675 446.282 C 190.764 441.432 205.727 437.095 220.023 432.729 L 224.957 448.525 C 229.494 446.762 232.254 445.905 236.967 444.653 L 237.655 444.982 C 244.454 482.095 259.141 508.167 287.173 533.189 C 283.853 534.943 280.412 536.458 276.876 537.722 C 223.736 556.917 190.473 485.711 176.675 446.282 z"/>
<path transform="translate(0,0)" fill="rgb(254,254,254)" d="M 338.043 446.379 C 340.326 447.8 353.909 462.398 356.757 465.351 C 364.73 463.604 373.9 462.513 382.055 461.346 C 378.924 468.745 374.017 476.946 370.033 484.051 C 372.936 490.83 378.762 501.486 382.248 508.372 C 373.608 506.471 364.648 504.975 355.927 503.4 C 350.304 508.376 342.327 516.87 336.808 522.392 C 335.839 513.59 334.809 504.795 333.718 496.008 C 327.489 492.131 316.658 487.023 309.814 483.588 C 317.767 479.867 325.68 476.064 333.553 472.179 C 335.174 463.601 336.671 455 338.043 446.379 z"/>
<path transform="translate(0,0)" fill="rgb(95,70,12)" d="M 236.967 444.653 C 238.003 443.664 238.588 443.035 240.013 442.581 C 297.036 424.381 354.21 406.599 411.331 388.699 C 414.182 387.806 422.096 385.428 424.58 385.646 C 403.262 393.823 379.146 401.27 357.174 407.597 C 317.419 419.046 277.408 434.113 237.655 444.982 L 236.967 444.653 z"/>
<path transform="translate(0,0)" fill="rgb(22,180,112)" d="M 895.353 376.813 C 907.66 377.41 920.015 376.862 932.251 377.912 C 967.462 380.932 1009 388.529 1042.79 399.421 L 1042.85 400.919 L 1031.04 457.855 C 1029.12 467.207 1025.73 481.588 1024.57 490.626 L 1024.16 491.954 C 1023.39 495.621 1022.59 499.283 1021.77 502.941 C 1010.16 501.214 998.196 499.58 986.666 497.541 C 979.127 496.423 970.792 494.767 963.22 493.425 C 962.918 532.127 961.219 594.588 975.849 630.96 C 967.306 646.221 949.537 651.809 933.538 656.564 C 896.213 667.66 825.001 671.032 795.881 640.627 C 794.614 621.64 792.823 602.691 790.508 583.803 C 788.249 563.919 785.541 543.748 783.063 523.862 C 775.741 529.684 743.285 556.198 737.195 558.497 C 735.323 557.347 734.549 556.812 732.822 555.455 L 732.548 554.005 C 712.593 531.957 692.748 505.367 672.564 483.974 C 671.418 482.394 671.264 481.783 670.523 480.001 C 670.756 479.351 671.234 477.916 671.76 477.325 C 699.189 446.502 740.895 412.178 777.645 393.951 C 787.866 388.882 821.347 382.258 830.56 380.494 C 833.395 382.627 834.854 383.368 838.025 384.999 C 852.082 391.856 885.593 412.333 896.08 388.452 L 896.895 388.059 C 897.355 383.821 896.371 380.896 895.353 376.813 z"/>
<path transform="translate(0,0)" fill="rgb(41,16,67)" d="M 808.304 497.233 C 805.704 510.198 794.617 576.074 790.508 583.803 C 788.249 563.919 785.541 543.748 783.063 523.862 C 791.419 514.931 799.833 506.054 808.304 497.233 z"/>
<path transform="translate(0,0)" fill="rgb(41,16,67)" d="M 960.623 430.209 C 970.792 448.005 985.052 476.699 986.666 497.541 C 979.127 496.423 970.792 494.767 963.22 493.425 C 963.269 469.564 963.476 453.849 960.623 430.209 z"/>
<path transform="translate(0,0)" fill="rgb(41,16,67)" d="M 581.043 313.022 C 593.922 297.795 608.26 292.977 627.346 289.327 C 654.986 283.377 680.836 293.349 702.518 309.655 C 739.829 337.714 751.08 295.683 774.587 276.098 C 787.209 265.583 799.85 265.291 815.206 268.531 C 828.112 271.255 833.116 254.302 841.973 248.514 C 873.639 225.675 936.841 275.665 895.614 304.882 C 901.996 320.901 906.714 336.446 890.865 348.832 C 887.476 351.527 881.697 368.342 878.312 374.496 C 883.69 374.939 890.34 375.208 895.353 376.813 C 896.371 380.896 897.355 383.821 896.895 388.059 L 896.08 388.452 C 885.593 412.333 852.082 391.856 838.025 384.999 C 834.854 383.368 833.395 382.627 830.56 380.494 C 821.347 382.258 787.866 388.882 777.645 393.951 C 740.895 412.178 699.189 446.502 671.76 477.325 C 671.234 477.916 670.756 479.351 670.523 480.001 C 671.264 481.783 671.418 482.394 672.564 483.974 L 661 494.224 L 659.72 495.489 C 655.684 490.015 650.292 483.654 645.746 478.56 C 616.323 445.589 589.679 408.503 559.941 376.054 L 561.05 374.674 C 569.652 319.38 589.338 303.009 644.944 308.627 C 620.518 295.303 604.246 300.285 581.043 313.022 z"/>
<path transform="translate(0,0)" fill="rgb(254,254,254)" d="M 837.644 309.026 C 851.124 305.322 864.067 301.546 862.548 284.733 L 862.415 283.333 L 864.362 282.33 C 868.043 282.969 868.471 283.308 871.518 285.512 C 874.513 289.709 873.031 291.583 873.936 295.588 C 876.091 305.133 885.311 297.825 893.619 304.355 L 895.614 304.882 C 901.996 320.901 906.714 336.446 890.865 348.832 C 887.476 351.527 881.697 368.342 878.312 374.496 C 883.69 374.939 890.34 375.208 895.353 376.813 C 896.371 380.896 897.355 383.821 896.895 388.059 L 896.08 388.452 C 885.593 412.333 852.082 391.856 838.025 384.999 C 836.498 383.325 836.249 383.385 835.798 381.227 C 839.981 378.319 849.746 377.707 855.365 376.942 C 861.518 355.735 853.959 357.452 839.518 345.853 C 838.599 345.115 834.567 338.748 833.768 338.694 C 821.068 337.849 816.147 328.851 821.118 317.544 C 827.284 312.794 830.572 320.043 835.788 319.22 L 837.644 309.026 z"/>
<path transform="translate(0,0)" fill="rgb(41,16,67)" d="M 889.804 347.921 L 890.865 348.832 C 887.476 351.527 881.697 368.342 878.312 374.496 C 883.69 374.939 890.34 375.208 895.353 376.813 C 896.371 380.896 897.355 383.821 896.895 388.059 L 896.08 388.452 C 894.717 373.602 887.193 376.265 874.428 375.802 C 872.192 371.473 870.73 366.633 869.155 362.005 L 858.801 356.936 C 871.869 358.397 878.796 355.562 889.804 347.921 z"/>
<path transform="translate(0,0)" fill="rgb(86,84,81)" d="M 893.619 304.355 L 895.614 304.882 C 901.996 320.901 906.714 336.446 890.865 348.832 L 889.804 347.921 C 904.841 333.23 900.024 321.64 893.619 304.355 z"/>
<path transform="translate(0,0)" fill="rgb(41,16,67)" d="M 860.82 341.668 L 859.696 337.953 C 862.698 335.891 876.031 337.637 879.817 339.073 C 879.369 340.885 879.165 341.982 878.357 343.705 C 869.856 348.277 867.536 349.163 860.82 341.668 z"/>
<path transform="translate(0,0)" fill="rgb(254,112,57)" d="M 860.82 341.668 C 868.266 340.713 871.109 341.435 878.357 343.705 C 869.856 348.277 867.536 349.163 860.82 341.668 z"/>
<path transform="translate(0,0)" fill="rgb(41,16,67)" d="M 857.679 313.706 C 861.552 315.096 862.871 315.768 863.559 319.97 C 861.575 324.186 862.647 322.67 858.307 325.731 C 855.689 324.119 853.213 322.15 852.192 319.247 C 853.29 315.86 854.249 316.09 857.679 313.706 z"/>
<path transform="translate(0,0)" fill="rgb(41,16,67)" d="M 884.814 312.581 C 888.518 313.429 889.318 313.398 892.364 315.48 C 893.224 318.906 892.107 319.601 890.46 323.436 C 885.981 323.906 884.598 324.023 882.142 320.063 C 881.868 316.397 882.673 315.67 884.814 312.581 z"/>
<path transform="translate(0,0)" fill="rgb(41,16,67)" d="M 879.145 305.406 C 886.337 304.349 888.861 304.832 894.026 309.914 C 889.031 308.538 885.943 309.493 880.538 308.399 L 879.145 305.406 z"/>
<path transform="translate(0,0)" fill="rgb(41,16,67)" d="M 858.435 304.759 C 861.223 305.086 862.333 304.862 863.783 307.093 C 861.124 309.541 861.006 308.825 856.8 309.165 L 852.57 310.45 L 851.356 309.751 C 853.456 306.911 855.274 306.354 858.435 304.759 z"/>
<path transform="translate(0,0)" fill="rgb(41,16,67)" d="M 959.146 1054.64 L 960.302 1055.35 C 966.46 1055.58 979.482 1058.16 986.089 1059.3 L 1031.72 1067.12 C 1038.78 1068.33 1084.98 1075.83 1089.47 1077.57 L 1091.69 1077.44 C 1090.19 1083.41 1088.74 1094.81 1089 1100.99 C 1094.83 1105.79 1100.05 1115.7 1104.41 1118.54 C 1159.29 1154.22 1206.18 1181.95 1195.8 1257.44 C 1194.21 1263.88 1192.71 1270.34 1191.31 1276.81 C 1172.12 1272.74 1147.45 1265.72 1128.04 1260.76 L 1007.25 1229.88 L 1012.55 1210.13 L 992.056 1168.99 C 989.456 1180.43 986.669 1191.82 983.696 1203.17 C 981.958 1209.34 980.429 1216.26 978.9 1222.53 C 957.971 1217.57 935.761 1210.64 914.895 1206.35 C 917.067 1199.62 918.555 1193.44 920.228 1186.59 C 931.255 1147.47 944.701 1107.66 956.156 1068.4 L 959.146 1054.64 z"/>
<path transform="translate(0,0)" fill="rgb(254,254,254)" d="M 960.302 1055.35 C 966.46 1055.58 979.482 1058.16 986.089 1059.3 L 1031.72 1067.12 C 1038.78 1068.33 1084.98 1075.83 1089.47 1077.57 L 1091.69 1077.44 C 1090.19 1083.41 1088.74 1094.81 1089 1100.99 L 1087.22 1102.28 C 1059.41 1104.4 1044.62 1112.27 1028.57 1135.28 C 1000.24 1099.63 1005.37 1083.45 957.299 1070.73 L 960.302 1055.35 z"/>
<path transform="translate(0,0)" fill="rgb(86,84,81)" d="M 1089.47 1077.57 L 1091.69 1077.44 C 1090.19 1083.41 1088.74 1094.81 1089 1100.99 L 1087.22 1102.28 C 1087.71 1093.19 1088.18 1086.57 1089.47 1077.57 z"/>
<path transform="translate(0,0)" fill="rgb(254,198,23)" d="M 1012.55 1210.13 C 1027.02 1214.74 1044.91 1218.72 1059.89 1222.53 L 1148.53 1245.25 C 1163.28 1249.03 1181.41 1253.15 1195.8 1257.44 C 1194.21 1263.88 1192.71 1270.34 1191.31 1276.81 C 1172.12 1272.74 1147.45 1265.72 1128.04 1260.76 L 1007.25 1229.88 L 1012.55 1210.13 z"/>
<path transform="translate(0,0)" fill="rgb(254,198,23)" d="M 914.895 1206.35 C 917.067 1199.62 918.555 1193.44 920.228 1186.59 C 940.953 1192.36 963.393 1197.2 983.696 1203.17 C 981.958 1209.34 980.429 1216.26 978.9 1222.53 C 957.971 1217.57 935.761 1210.64 914.895 1206.35 z"/>
<path transform="translate(0,0)" fill="rgb(254,254,254)" d="M 1095.66 1115.23 C 1098.08 1115.3 1134.52 1140.61 1139.42 1143.91 C 1116.49 1142.49 1102.25 1148.79 1081.24 1156.34 C 1074.25 1158.82 1069.21 1159.81 1061.9 1160.68 C 1054.29 1157.43 1047.77 1152.64 1041.37 1147.49 C 1056.96 1128.48 1071.56 1119.76 1095.66 1115.23 z"/>
<path transform="translate(0,0)" fill="rgb(41,16,67)" d="M 1380.58 961.469 L 1381.65 960.456 C 1386.98 966.985 1390.3 971.093 1396.49 976.922 C 1400.18 977.177 1412.81 977.624 1415.32 979.006 C 1430.7 977.191 1447.5 971.123 1463.4 968.462 C 1512.34 955.906 1551.76 965.251 1584.97 1005.08 C 1588.48 1010.63 1592.15 1016.27 1595.5 1021.91 C 1543.74 1057.19 1488.55 1090.15 1436.92 1125.26 L 1425.94 1108.11 L 1381.94 1095.34 L 1401.45 1124.57 L 1412.21 1141.1 C 1394.31 1153.5 1374.83 1164.92 1357.34 1177.15 L 1346.18 1160.23 C 1324.67 1124.52 1298.73 1075.54 1275.76 1042.45 L 1276.59 1041.67 C 1282.64 1035.83 1308.61 1016.3 1316.2 1010.7 C 1336.83 995.463 1359.82 975.798 1380.58 961.469 z"/>
<path transform="translate(0,0)" fill="rgb(254,254,254)" d="M 1276.59 1041.67 C 1282.64 1035.83 1308.61 1016.3 1316.2 1010.7 C 1336.83 995.463 1359.82 975.798 1380.58 961.469 C 1385.9 968.242 1390.91 974.078 1397.37 979.851 C 1380.79 1000.96 1375.12 1018.36 1381.64 1045.29 C 1339.33 1044.19 1326.7 1026.24 1286.02 1054.49 L 1276.59 1041.67 z"/>
<path transform="translate(0,0)" fill="rgb(254,198,23)" d="M 1584.97 1005.08 C 1588.48 1010.63 1592.15 1016.27 1595.5 1021.91 C 1543.74 1057.19 1488.55 1090.15 1436.92 1125.26 L 1425.94 1108.11 C 1435.43 1103.35 1460.19 1086 1470.36 1079.45 L 1584.97 1005.08 z"/>
<path transform="translate(0,0)" fill="rgb(254,254,254)" d="M 1415.32 979.006 C 1430.7 977.191 1447.5 971.123 1463.4 968.462 L 1462.85 970.706 L 1461.86 971.287 C 1428.2 1001.88 1447.17 1036.4 1399.4 1044.69 C 1397.27 1027.58 1399.23 990.541 1415.37 980.633 L 1415.32 979.006 z"/>
<path transform="translate(0,0)" fill="rgb(86,84,81)" d="M 1415.32 979.006 C 1430.7 977.191 1447.5 971.123 1463.4 968.462 L 1462.85 970.706 L 1461.86 971.287 C 1451.97 970.612 1428.03 980.402 1415.37 980.633 L 1415.32 979.006 z"/>
<path transform="translate(0,0)" fill="rgb(254,198,23)" d="M 1401.45 1124.57 L 1412.21 1141.1 C 1394.31 1153.5 1374.83 1164.92 1357.34 1177.15 L 1346.18 1160.23 C 1364.72 1148.71 1382.73 1135.93 1401.45 1124.57 z"/>
<path transform="translate(0,0)" fill="rgb(254,254,254)" d="M 968.868 258.616 C 952.816 238.035 944.297 216.265 944.782 189.842 C 945.38 162.11 957.101 135.782 977.309 116.78 C 997.583 97.5617 1024.77 87.3619 1052.68 88.5014 C 1079.6 89.4774 1105.04 101.112 1123.38 120.844 C 1132.18 115.997 1143.6 109.653 1152.67 105.853 C 1148.06 112.235 1134.65 126.953 1132.22 131.411 C 1133.95 133.718 1135.55 135.964 1137.04 138.447 C 1151.68 162.4 1155.87 191.303 1148.63 218.428 C 1141.43 245.235 1123.87 268.083 1099.82 281.953 C 1072.48 297.643 1045.91 298.822 1016.25 290.785 C 1000.91 295.079 978.856 298.888 962.387 302.788 C 965.087 289.09 966.519 272.807 968.868 258.616 z"/>
<path transform="translate(0,0)" fill="rgb(254,112,57)" d="M 1123.38 120.844 C 1132.18 115.997 1143.6 109.653 1152.67 105.853 C 1148.06 112.235 1134.65 126.953 1132.22 131.411 L 1131.01 132.472 C 1102.64 168.624 1076.5 210.155 1044.83 243.314 C 1023.46 222.959 1000.56 191.917 978.657 168.589 C 999.306 174.399 1019.06 185.273 1037.32 196.22 C 1063.24 166.455 1089.03 143.146 1122.07 121.65 L 1123.38 120.844 z"/>
<path transform="translate(0,0)" fill="rgb(86,84,81)" d="M 968.868 258.616 C 952.816 238.035 944.297 216.265 944.782 189.842 C 945.38 162.11 957.101 135.782 977.309 116.78 C 997.583 97.5617 1024.77 87.3619 1052.68 88.5014 C 1079.6 89.4774 1105.04 101.112 1123.38 120.844 L 1122.07 121.65 C 1101.07 101.24 1076.47 89.6251 1046.73 90.1657 C 1019.58 90.6446 993.753 101.942 974.973 121.55 C 955.968 141.139 945.757 167.62 946.689 194.897 C 947.241 217.867 955.594 239.965 970.373 257.558 C 969.359 269.206 966.766 288.727 964.59 300.29 C 980.205 296.839 999.607 291.934 1015.24 289.978 C 1021.98 289.135 1037.56 294.095 1046.46 294.147 C 1082.14 294.357 1114.74 277.017 1133.91 247.283 C 1148.79 224.262 1153.74 196.216 1147.66 169.492 C 1144.54 155.751 1139.06 143.958 1131.01 132.472 L 1132.22 131.411 C 1133.95 133.718 1135.55 135.964 1137.04 138.447 C 1151.68 162.4 1155.87 191.303 1148.63 218.428 C 1141.43 245.235 1123.87 268.083 1099.82 281.953 C 1072.48 297.643 1045.91 298.822 1016.25 290.785 C 1000.91 295.079 978.856 298.888 962.387 302.788 C 965.087 289.09 966.519 272.807 968.868 258.616 z"/>
<path transform="translate(0,0)" fill="rgb(254,254,254)" d="M 1209.27 339.592 C 1214.55 322.423 1230.54 259.751 1250.68 259.018 C 1262.83 264.162 1257.26 282.989 1261.98 292.257 L 1263.57 292.841 C 1281.91 281.476 1297.7 266.721 1319.24 261.561 C 1325.44 260.074 1337.94 261.131 1336.12 271.459 C 1331.95 282.277 1313.4 294.997 1303.7 301.404 C 1324.43 310.575 1316.45 310.813 1318.58 323.927 C 1319.86 331.845 1332.31 327.065 1329.59 345.559 C 1355.12 380.025 1302.3 399.396 1276.33 402.964 C 1255.03 405.892 1248.22 414.151 1232.06 427.099 C 1214.51 441.253 1196.81 455.227 1178.98 469.019 C 1157.81 485.408 1142.13 500.705 1113.75 501.246 C 1110.38 503.068 1098.94 501.827 1094.85 501.114 C 1083.27 501.312 1036.75 494.543 1024.16 491.954 L 1024.57 490.626 C 1025.73 481.588 1029.12 467.207 1031.04 457.855 L 1042.85 400.919 L 1042.79 399.421 C 1062.86 402.877 1082.86 406.768 1102.76 411.092 C 1136.53 386.975 1174.35 362.355 1209.27 339.592 z"/>
<path transform="translate(0,0)" fill="rgb(86,84,81)" d="M 1209.27 339.592 C 1214.55 322.423 1230.54 259.751 1250.68 259.018 C 1262.83 264.162 1257.26 282.989 1261.98 292.257 L 1263.57 292.841 C 1281.91 281.476 1297.7 266.721 1319.24 261.561 C 1325.44 260.074 1337.94 261.131 1336.12 271.459 C 1331.95 282.277 1313.4 294.997 1303.7 301.404 C 1324.43 310.575 1316.45 310.813 1318.58 323.927 C 1319.86 331.845 1332.31 327.065 1329.59 345.559 C 1355.12 380.025 1302.3 399.396 1276.33 402.964 C 1255.03 405.892 1248.22 414.151 1232.06 427.099 C 1214.51 441.253 1196.81 455.227 1178.98 469.019 C 1157.81 485.408 1142.13 500.705 1113.75 501.246 C 1110.38 503.068 1098.94 501.827 1094.85 501.114 C 1083.27 501.312 1036.75 494.543 1024.16 491.954 L 1024.57 490.626 C 1042.73 492.177 1060.83 495.927 1078.99 497.931 C 1096.69 499.885 1115.05 501.774 1132.37 496.551 C 1156.73 489.205 1231.65 425.297 1257.92 404.253 C 1281.99 403.287 1341.99 388.424 1334.03 355.191 C 1333.39 352.488 1331.6 351.628 1329.53 350.415 C 1320.22 349.27 1307.42 359.732 1298.38 362.703 C 1293.17 364.417 1288.19 364.793 1283.51 367.342 C 1282.29 368.883 1281.39 372.073 1281.75 373.903 C 1284.57 387.971 1310.25 377.203 1316.35 376.617 C 1314.58 378.612 1313.69 378.48 1311.81 379.156 C 1296.01 384.816 1278.79 388.004 1280.19 364.956 C 1280.2 364.804 1272.53 361.059 1272 357.402 C 1271.31 352.56 1273.85 348.005 1272.41 343.668 C 1251.39 332.072 1278.34 320.868 1286.19 313.706 C 1301.63 299.607 1323.17 288.821 1334.28 271.083 C 1337.15 266.502 1328.99 263.882 1325.85 263.059 C 1303.89 263.582 1280.92 283.886 1263.37 295.286 C 1263.11 308.826 1261.66 319.743 1254.24 331.08 C 1260.15 313.833 1264.78 303.545 1258.06 287.671 C 1255.67 282.028 1260.56 266.643 1251.14 261.096 C 1232.74 259.48 1215.43 325.321 1211.23 340.597 C 1183.82 358.34 1156.62 376.403 1129.64 394.783 C 1116.64 403.714 1103.55 411.858 1091.36 421.66 L 1090.87 421.006 C 1093.39 417.431 1096.77 415.261 1100.28 412.578 C 1082.56 407.78 1061.06 405.264 1042.85 400.919 L 1042.79 399.421 C 1062.86 402.877 1082.86 406.768 1102.76 411.092 C 1136.53 386.975 1174.35 362.355 1209.27 339.592 z"/>
<path transform="translate(0,0)" fill="rgb(149,143,135)" d="M 1094.85 501.114 C 1098.77 501.101 1110.45 500.8 1113.75 501.246 C 1110.38 503.068 1098.94 501.827 1094.85 501.114 z"/>
<path transform="translate(0,0)" fill="rgb(254,254,254)" d="M 1301.6 303.172 C 1310.94 305.884 1323.24 313.26 1315.59 324.759 C 1309.52 333.888 1293.5 340.355 1283.18 342.99 C 1276.81 343.163 1268.96 342.984 1266.64 335.987 C 1268.11 325.396 1291.17 312.841 1301.6 303.172 z"/>
<path transform="translate(0,0)" fill="rgb(254,254,254)" d="M 1316.93 327.872 C 1324.75 329.88 1331.24 337.932 1326.76 344.481 C 1320.4 353.795 1296.54 361.419 1286.51 364.636 C 1279.25 363.715 1272.89 359.126 1272.5 351.33 C 1272.97 349.65 1274.28 346.765 1276.05 346.369 C 1292.93 342.592 1302.88 337.765 1316.93 327.872 z"/>
<path transform="translate(0,0)" fill="rgb(22,180,112)" d="M 660.126 1092.82 C 732.255 1094.86 804.431 1091.04 875.942 1081.4 C 860.285 1127.79 845.993 1174.86 830.371 1221.15 C 785.423 1247.03 737.791 1272.47 692.23 1297.71 C 668.459 1310.99 644.605 1324.12 620.67 1337.1 C 614.286 1340.6 595.072 1352.97 589.009 1352.95 L 588.13 1351.59 C 589.279 1348.49 592.903 1345.3 595.234 1342.81 C 644.732 1289.84 734.091 1157.77 660.126 1092.82 z"/>
<path transform="translate(0,0)" fill="rgb(22,180,112)" d="M 626.497 751.059 C 664.991 773.332 708.265 797.057 745.691 820.332 C 700.443 851.349 657.269 885.288 616.445 921.933 C 611.162 926.632 591.835 943.942 588.232 949.021 C 587.212 868.933 474.045 833.767 410.796 820.093 C 396.382 816.976 369.206 815.882 357.608 811.749 L 357.37 810.239 C 361.015 806.704 438.131 791.392 450.317 788.786 L 626.497 751.059 z"/>
<path transform="translate(0,0)" fill="rgb(41,16,67)" d="M 422.83 576.732 C 427.786 574.785 429.979 574.048 435.153 572.85 C 438.27 580.039 441.691 589.349 442.529 597.171 C 450.92 594.493 459.731 591.536 468.164 589.165 C 469.881 594.568 474.716 608.872 475.511 613.834 C 478.869 612.895 479.636 612.031 482.407 613.098 C 489.26 629.198 498.337 664.14 504.194 682.313 C 508.887 681.026 507.997 680.44 511.399 682.01 C 514.157 685.617 515.194 691.447 516.373 696.024 L 402.693 731.149 C 383.006 737.263 360.197 743.743 340.896 750.401 C 339.429 745.843 336.464 739.304 337.261 735.149 C 339.204 732.911 340.453 733.032 343.56 732.405 C 337.767 716.15 326.175 679.404 322.199 663.113 C 323.578 660.509 324.724 660.768 328.048 659.424 C 325.412 652.349 322.584 642.367 320.246 634.972 L 344.765 627.235 C 341.594 618.636 339.509 612.298 337.158 603.465 C 341.409 601.517 345.436 600.435 349.904 599.101 C 359.838 595.283 376.473 590.712 386.852 587.412 C 396.965 584.196 413.262 578.747 422.83 576.732 z"/>
<path transform="translate(0,0)" fill="rgb(254,198,23)" d="M 422.83 576.732 C 427.786 574.785 429.979 574.048 435.153 572.85 C 438.27 580.039 441.691 589.349 442.529 597.171 C 450.92 594.493 459.731 591.536 468.164 589.165 C 469.881 594.568 474.716 608.872 475.511 613.834 L 381.905 642.95 C 365.034 648.184 344.924 654.994 328.048 659.424 C 325.412 652.349 322.584 642.367 320.246 634.972 L 344.765 627.235 C 341.594 618.636 339.509 612.298 337.158 603.465 C 341.409 601.517 345.436 600.435 349.904 599.101 C 359.838 595.283 376.473 590.712 386.852 587.412 C 396.965 584.196 413.262 578.747 422.83 576.732 z"/>
<path transform="translate(0,0)" fill="rgb(251,162,0)" d="M 422.83 576.732 C 427.786 574.785 429.979 574.048 435.153 572.85 C 438.27 580.039 441.691 589.349 442.529 597.171 C 410.22 607.148 377.171 617.916 344.765 627.235 C 341.594 618.636 339.509 612.298 337.158 603.465 C 341.409 601.517 345.436 600.435 349.904 599.101 C 359.838 595.283 376.473 590.712 386.852 587.412 C 396.965 584.196 413.262 578.747 422.83 576.732 z"/>
<path transform="translate(0,0)" fill="rgb(254,198,23)" d="M 504.194 682.313 C 508.887 681.026 507.997 680.44 511.399 682.01 C 514.157 685.617 515.194 691.447 516.373 696.024 L 402.693 731.149 C 383.006 737.263 360.197 743.743 340.896 750.401 C 339.429 745.843 336.464 739.304 337.261 735.149 C 339.204 732.911 340.453 733.032 343.56 732.405 C 356.954 727.036 383.976 719.552 398.364 715.092 L 504.194 682.313 z"/>
<path transform="translate(0,0)" fill="rgb(254,254,254)" d="M 457.611 644.006 L 459.4 643.838 C 462.292 645.808 468.648 669.279 470.211 674.449 C 436.385 685.751 399.481 696.439 365.214 707.067 L 364.194 707.374 C 360.867 705.544 354.828 682.075 353.196 676.549 C 387.143 665.293 423.269 654.814 457.611 644.006 z"/>
<path transform="translate(0,0)" fill="rgb(95,87,97)" d="M 1639.77 1141.41 C 1672.72 1140.12 1696.61 1171.73 1700.5 1201.99 C 1709.76 1198.39 1720.61 1197.43 1729.24 1203.54 C 1737.7 1209.52 1741.45 1222.13 1741.22 1232.04 C 1741.13 1235.97 1740.02 1240.51 1740.54 1244.37 C 1746.3 1243.79 1748.21 1243.44 1753.87 1245.52 C 1760.74 1248.03 1772.65 1258.76 1768.99 1266.76 C 1765.4 1268.77 1711.24 1267.91 1701.08 1267.91 L 1566.52 1267.9 C 1523.17 1267.94 1476.49 1268.85 1433.41 1267.64 C 1450.36 1260.95 1471.7 1255.84 1489.97 1255.79 C 1504.53 1235.06 1520.89 1229.46 1545.14 1229.95 C 1540.46 1205.77 1557.45 1184.29 1581.51 1202.26 C 1583.23 1187.63 1589.2 1173.82 1598.69 1162.55 C 1609.77 1149.62 1622.87 1142.78 1639.77 1141.41 z"/>
<path transform="translate(0,0)" fill="rgb(254,254,254)" d="M 1638.55 1143.41 C 1648.1 1142.42 1661.28 1146.61 1668.96 1152.25 C 1688.67 1166.72 1695.08 1182.22 1699.31 1204.85 C 1701.44 1203.84 1703.63 1202.96 1705.88 1202.22 C 1725.57 1195.76 1741.35 1214.92 1740.22 1233.16 C 1739.89 1238.54 1735.17 1240.78 1737.32 1247.6 C 1755.33 1245.64 1761.66 1248.02 1768.98 1265.65 C 1750.21 1266.89 1722.98 1265.99 1703.27 1265.99 L 1577.5 1265.97 C 1533.83 1265.99 1488.08 1266.69 1444.58 1265.68 C 1463.92 1260.2 1471.05 1258.92 1491.21 1256.96 C 1508.05 1235.08 1521.83 1231.02 1548.3 1232.27 C 1539.37 1208.19 1560.48 1183.59 1582.76 1206.77 C 1587.75 1174.95 1603.69 1147.27 1638.55 1143.41 z"/>
<path transform="translate(0,0)" fill="rgb(86,84,81)" d="M 408.773 131.252 C 445.459 127.488 470.18 158.176 474.906 191.947 C 481.872 186.116 494.574 180.368 502.534 187.89 C 511.261 196.137 511.941 207.235 512.371 218.541 C 517.573 220.939 523.49 219.268 529.628 220.214 C 545.501 222.659 556.672 232.452 566.131 244.519 C 583.909 245.733 606.446 249.954 622.714 257.284 C 582.755 256.434 540.623 257.086 500.5 257.083 L 285.454 257.069 C 290.213 239.499 298.169 232.599 316.793 234.12 C 310.51 206.259 325.345 179.61 355.993 191.52 C 360.115 161.841 378.331 137.025 408.773 131.252 z"/>
<path transform="translate(0,0)" fill="rgb(254,254,254)" d="M 408.573 133.175 C 446.343 130.874 470.538 160.82 473.336 196.418 C 474.33 195.376 475.352 194.36 476.399 193.371 C 489.037 181.373 506.199 187.182 509.828 203.775 C 511.293 210.474 509.92 213.988 509.572 220.6 C 512.397 222.558 522.806 220.97 527.631 221.828 C 545.936 225.081 554.939 233.276 565.661 246.955 C 582.192 246.786 595.151 250.447 610.839 254.752 C 575.655 256.661 526.704 255.177 490.5 255.159 L 287.873 255.076 L 288.085 254.48 C 293.845 238.288 303.319 231.753 320.599 238.013 C 310.42 210.199 325.857 178.757 357.359 194.609 C 361.381 164.321 377.596 140.152 408.573 133.175 z"/>
<path transform="translate(0,0)" fill="rgb(22,180,112)" d="M 1778.4 422.464 C 1806.65 417.013 1833.94 435.577 1839.25 463.852 C 1844.56 492.126 1825.86 519.325 1797.56 524.49 C 1769.46 529.618 1742.5 511.079 1737.23 483.006 C 1731.96 454.932 1750.36 427.876 1778.4 422.464 z"/>
<path transform="translate(0,0)" fill="rgb(254,198,23)" d="M 437.587 1206.56 C 465.811 1200.86 493.281 1219.22 498.804 1247.48 C 504.327 1275.74 485.791 1303.09 457.498 1308.44 C 429.455 1313.74 402.397 1295.4 396.923 1267.39 C 391.449 1239.38 409.613 1212.21 437.587 1206.56 z"/>
<path transform="translate(0,0)" fill="rgb(254,112,57)" d="M 1726.09 910.428 C 1742.27 909.213 1756.44 921.203 1757.92 937.366 C 1759.4 953.53 1747.64 967.891 1731.5 969.631 C 1720.83 970.782 1710.36 966.088 1704.12 957.352 C 1697.88 948.615 1696.84 937.193 1701.39 927.469 C 1705.94 917.746 1715.38 911.232 1726.09 910.428 z"/>
<path transform="translate(0,0)" fill="rgb(86,84,81)" d="M 1713.04 581.963 C 1734.49 615.453 1740.9 663.383 1732.01 701.908 C 1726 727.908 1714.88 756.49 1687.63 766.146 C 1670.12 799.828 1644.15 821.368 1608.28 834.013 C 1584.63 842.353 1522.97 844.929 1506.5 822.48 C 1509.91 822.799 1512.58 826.344 1516.38 828.333 C 1521.44 830.975 1526.48 832.655 1531.94 834.153 C 1573.68 845.296 1618.23 835.673 1651.65 808.296 C 1665.6 796.839 1677.11 782.707 1685.51 766.732 C 1667.01 769.075 1651.81 763.14 1647.6 743.521 C 1645.32 732.953 1657.31 719.438 1667.49 720.138 C 1694.26 721.98 1693.75 745.907 1688.87 764.107 C 1709.08 754.069 1718.91 739.47 1725.63 718.056 C 1740.45 670.855 1735.69 630.182 1714.08 586.867 C 1713.39 585.483 1712.68 584.106 1711.97 582.736 L 1713.04 581.963 z"/>
<path transform="translate(0,0)" fill="rgb(255,246,214)" d="M 1666.71 721.036 C 1686.63 722.771 1696.92 746.005 1686.05 762.894 C 1684.08 765.952 1679.25 765.735 1675.77 765.895 C 1646.82 762.073 1639.12 728.183 1666.71 721.036 z"/>
<path transform="translate(0,0)" fill="rgb(41,16,67)" d="M 1680.45 537.504 C 1695.77 546.57 1715.57 556.471 1731.55 565.004 C 1725.99 569.866 1717.78 576.62 1713.04 581.963 L 1711.97 582.736 C 1708.14 585.222 1692.65 599.268 1688.48 602.916 C 1687.43 586.349 1682.99 554.066 1680.45 537.504 z"/>
<path transform="translate(0,0)" fill="rgb(254,112,57)" d="M 188.536 707.819 C 190.631 710.142 192.343 722.682 194.403 727.267 C 198.815 737.09 205.116 740.384 214.194 744.438 C 195.567 752.931 191.899 763.219 189.413 782.858 C 188.076 780.068 186.318 769.001 184.225 764.042 C 178.913 751.459 174.83 749.924 163.547 744.526 C 181.916 736.732 185.495 726.937 188.536 707.819 z"/>
<path transform="translate(0,0)" fill="rgb(22,180,112)" d="M 1280.57 99.856 C 1282.44 101.815 1284.87 117.079 1287.34 121.558 C 1292.21 130.388 1298.26 133.469 1307.03 136.841 C 1288.25 144.149 1284.32 154.869 1281.41 174.062 C 1279.67 172.249 1277.33 156.839 1274.77 152.249 C 1269.8 143.352 1263.93 140.39 1255.03 136.95 C 1273.78 129.932 1277.71 118.698 1280.57 99.856 z"/>
<path transform="translate(0,0)" fill="rgb(86,84,81)" d="M 642.668 197.887 C 647.068 195.31 651.693 192.124 656.245 190.059 C 675.12 181.496 677.126 199.065 696.52 197.559 C 708.954 196.593 709.901 191.051 720.096 187.953 C 727.78 185.619 739.844 193.72 746.526 197.881 C 750.63 198.035 755.412 197.89 759.582 197.853 C 766.728 193.888 774.654 185.956 783.349 188.752 C 783.19 188.81 783.03 188.869 782.871 188.927 C 773.183 190.017 766.87 197.157 757.427 199.171 C 746.478 201.507 738.845 195.563 730.163 190.111 L 717.421 190.104 C 695.004 203.084 694.263 203.915 671.507 190.092 C 650.309 189.221 653.232 198.672 635.09 199.821 C 628.929 200.211 620.529 194.479 615.591 191.452 C 613.656 190.266 610.148 191.065 608.027 188.669 C 614.362 186.643 624.923 195.808 631.598 197.551 C 634.555 198.323 639.55 198.016 642.668 197.887 z"/>
<path transform="translate(0,0)" fill="rgb(86,84,81)" d="M 658.676 151.002 C 663.038 150.873 667.819 150.985 672.219 150.998 C 691.904 163.407 693.909 164.067 714.073 153.036 C 725.592 146.735 736.768 154.746 746.787 160.05 C 760.857 167.5 770.224 146.833 783.41 151.845 C 776.672 153.607 774.265 153.57 768.04 157.7 C 750.91 169.063 743.72 159.399 728.431 152.999 C 722.393 150.472 713.631 154.795 708.585 158.188 C 692.545 169.39 684.957 158.848 670.524 153.337 C 668.004 152.352 657.672 152.573 655.695 154.398 C 641.145 167.837 629.522 162.416 614.087 153.993 C 613.274 153.55 607.289 152.044 605.277 151.385 C 627.988 146.894 620.677 174.998 658.676 151.002 z"/>
<path transform="translate(0,0)" fill="rgb(86,84,81)" d="M 170.852 931.278 C 174.524 930.704 347.018 965.548 352.76 968.696 C 349.583 969.242 176.848 934.41 170.852 931.278 z"/>
<path transform="translate(0,0)" fill="rgb(86,84,81)" d="M 197.046 901.224 C 197.5 901.172 198.904 900.899 199.289 900.967 C 242.972 908.661 286.459 918.658 329.971 927.502 C 331.632 927.84 331.967 928.227 333.015 929.189 C 330.924 929.706 206.53 904.654 197.046 901.224 z"/>
<path transform="translate(0,0)" fill="rgb(86,84,81)" d="M 223.721 870.24 C 233.272 871.186 313.453 887.398 318.23 890.768 C 308.442 889.802 228.68 873.745 223.721 870.24 z"/>
<path transform="translate(0,0)" fill="rgb(22,180,112)" d="M 1284.93 1191.3 C 1286.58 1193.7 1288.67 1200.57 1291.82 1203.59 C 1292.67 1204.39 1286.44 1213.27 1285.45 1216.92 L 1285.17 1217.99 C 1283.64 1216.3 1283.95 1213.45 1281.34 1210.94 C 1273.96 1203.83 1282.07 1200.22 1284.61 1192.34 L 1284.93 1191.3 z"/>
<path transform="translate(0,0)" fill="rgb(22,180,112)" d="M 270.971 296.039 C 269.652 294.391 278.255 308.874 277.683 307.7 C 277.696 312.359 273.953 313.728 271.528 320.923 L 271.173 321.998 C 272.154 323.177 263.879 309.277 264.247 310.062 C 264.236 306.139 268.129 303.435 270.546 297.159 L 270.971 296.039 z"/>
<path transform="translate(0,0)" fill="rgb(254,112,57)" d="M 1817.25 627.764 C 1818.24 632.184 1820.76 637.082 1823.63 640.566 L 1825.32 640.541 C 1821.76 645.656 1820.2 647.15 1817.79 653.078 L 1817.35 654.158 C 1816.09 652.381 1813.23 646.848 1810.38 642.867 C 1810.32 637.766 1814.41 637.668 1816.94 628.898 L 1817.25 627.764 z"/>
<path transform="translate(0,0)" fill="rgb(86,84,81)" d="M 1773.75 154.058 C 1774.44 154.814 1774.12 154.278 1774.08 155.898 C 1757.65 168.433 1733.07 184.081 1715.48 196.071 L 1714.69 195.487 C 1715.83 192.676 1766.23 159.093 1773.75 154.058 z"/>
<path transform="translate(0,0)" fill="rgb(86,84,81)" d="M 252.214 840.79 C 257.842 839.498 290.747 848.701 297.718 849.556 C 298.531 849.656 299.821 851.046 300.393 851.634 C 294.175 850.765 254.811 843.32 252.214 840.79 z"/>
<path transform="translate(0,0)" fill="rgb(86,84,81)" d="M 1734.48 235.402 C 1739.23 234.67 1761.3 236.296 1765.75 238.576 C 1760.86 239.461 1739.3 237.674 1734.48 235.402 z"/>
</svg>