<svg version="1.1" xmlns="http://www.w3.org/2000/svg" style="display: block;" viewBox="0 0 2048 1442" width="2000" height="1408" preserveAspectRatio="none">
<defs>
	<linearGradient id="Gradient1" gradientUnits="userSpaceOnUse" x1="956.748" y1="678.584" x2="952.084" y2="695.834">
		<stop class="stop0" offset="0" stop-opacity="1" stop-color="rgb(57,24,49)"/>
		<stop class="stop1" offset="1" stop-opacity="1" stop-color="rgb(47,19,74)"/>
	</linearGradient>
</defs>
<path transform="translate(0,0)" fill="rgb(254,112,56)" d="M 1300.33 620.577 L 1302.63 621.283 C 1304.46 625.66 1307.6 644.043 1308.76 649.771 C 1311.48 662.608 1314.57 675.362 1318.05 688.014 C 1336.19 752.557 1364.07 813.954 1400.73 870.086 C 1392.55 876.234 1382.89 885.646 1374.11 888.879 C 1364.17 895.729 1354.14 902.762 1344.12 909.473 C 1350.26 917.168 1379.26 952.831 1381.26 959.32 L 1380.56 961.394 C 1357.59 978.775 1334.74 996.308 1312 1013.99 C 1303.88 1020.26 1283.35 1035.23 1276.57 1041.58 L 1275.49 1042.58 C 1270.74 1046.11 1265.98 1050.03 1261.34 1053.72 C 1247.66 1037.13 1221.06 1003.15 1209.26 985.575 C 1170.46 1003.24 1141.16 1015.48 1101.09 1029.86 C 1100.35 1037.39 1095.54 1072.92 1091.32 1077.24 L 1089.81 1077.91 C 1084.82 1075.49 970.609 1056.02 960.299 1055.35 L 959.152 1054.61 L 941.472 1051.54 C 953.737 986.711 964.157 918.735 975.527 853.529 L 879.762 827.121 C 860.756 821.859 838.07 816.698 820.446 808.169 C 811.972 804.068 802.54 793.086 796.364 785.812 C 782.112 764.314 777.611 745.654 776.151 720.125 C 774.825 696.939 780.044 658.376 795.937 641.02 C 830.872 672.139 897.872 667.738 939.706 654.706 C 953.602 650.377 968.751 644.4 975.727 630.887 C 997.513 635.482 1020.11 641.21 1041.8 646.434 C 1053.3 649.204 1074.45 653.764 1085.05 657.846 C 1089.71 657.646 1105.09 653.235 1110.64 651.779 C 1122.6 648.54 1134.65 645.629 1146.78 643.052 C 1187.73 633.989 1229.19 627.426 1270.94 623.398 C 1278.97 621.991 1291.85 621.272 1300.33 620.577 z"/>
<path transform="translate(0,0)" fill="rgb(254,198,23)" d="M 975.727 630.887 C 997.513 635.482 1020.11 641.21 1041.8 646.434 C 1053.3 649.204 1074.45 653.764 1085.05 657.846 C 1075.07 662.099 1060.9 665.876 1050.27 669.132 C 1036.22 673.471 1022.28 678.109 1008.43 683.044 C 1005.94 683.921 997.7 685.742 997.771 685.711 L 998.08 686.764 C 986.327 691.834 974.884 696.152 962.931 700.67 C 1003.38 708.906 1043.92 721.131 1084.4 729.657 C 1103.94 733.772 1120.13 750.44 1129.02 767.75 C 1135.84 784.266 1136.84 799.252 1136.32 816.936 C 1135.2 836.797 1130.1 861.909 1126.57 882.039 L 1108.93 982.403 C 1107.42 991.122 1101.35 1022.56 1101.09 1029.86 C 1100.35 1037.39 1095.54 1072.92 1091.32 1077.24 L 1089.81 1077.91 C 1084.82 1075.49 970.609 1056.02 960.299 1055.35 L 959.152 1054.61 L 941.472 1051.54 C 953.737 986.711 964.157 918.735 975.527 853.529 L 879.762 827.121 C 860.756 821.859 838.07 816.698 820.446 808.169 C 811.972 804.068 802.54 793.086 796.364 785.812 C 782.112 764.314 777.611 745.654 776.151 720.125 C 774.825 696.939 780.044 658.376 795.937 641.02 C 830.872 672.139 897.872 667.738 939.706 654.706 C 953.602 650.377 968.751 644.4 975.727 630.887 z"/>
<path transform="translate(0,0)" fill="url(#Gradient1)" d="M 917.823 665.663 C 930.662 671.409 948.541 681.582 961.504 688.293 C 973.587 687.348 985.676 686.488 997.771 685.711 L 998.08 686.764 C 986.327 691.834 974.884 696.152 962.931 700.67 C 957.646 699.117 951.483 697.714 946.079 696.344 C 936.568 686.203 927.149 675.976 917.823 665.663 z"/>
<path transform="translate(0,0)" fill="rgb(95,70,13)" d="M 837.57 676.427 C 843.747 687.005 839.285 704.669 833.157 714.434 C 827.934 722.758 823.076 726.809 815.061 732.09 C 836.255 737.485 861.986 746.015 883.538 752.434 L 1022.66 793.8 L 996.358 942.552 C 991.964 967.435 985.622 998.246 982.604 1022.54 C 992.493 1023.64 1083.59 1037.58 1085.44 1039.61 C 1081.5 1040.32 1048.74 1034.69 1042.77 1033.57 C 1018.32 1030.35 984.26 1025.23 960.232 1020.45 C 965.155 1019.06 975.228 1021.32 980.458 1022.39 C 992.928 946.649 1008.01 870.67 1020.45 794.85 C 996.538 788.737 969.397 779.941 945.519 772.833 L 812.767 733.208 C 808.74 735.109 797.459 740.34 793.299 739.048 C 794.327 737.364 801.258 736.017 803.605 735.164 C 833.22 724.397 839.235 705.287 837.57 676.427 z"/>
<path transform="translate(0,0)" fill="rgb(254,198,23)" d="M 1209.26 985.575 C 1214.18 982.871 1219.79 980.124 1224.86 977.697 C 1266.55 957.734 1305.19 934.278 1344.12 909.473 C 1350.26 917.168 1379.26 952.831 1381.26 959.32 L 1380.56 961.394 C 1357.59 978.775 1334.74 996.308 1312 1013.99 C 1303.88 1020.26 1283.35 1035.23 1276.57 1041.58 L 1275.49 1042.58 C 1270.74 1046.11 1265.98 1050.03 1261.34 1053.72 C 1247.66 1037.13 1221.06 1003.15 1209.26 985.575 z"/>
<path transform="translate(0,0)" fill="rgb(254,254,254)" d="M 1300.33 620.577 L 1302.63 621.283 C 1304.46 625.66 1307.6 644.043 1308.76 649.771 C 1311.48 662.608 1314.57 675.362 1318.05 688.014 C 1336.19 752.557 1364.07 813.954 1400.73 870.086 C 1392.55 876.234 1382.89 885.646 1374.11 888.879 C 1367.3 880.149 1356.41 861.876 1350.85 852.273 C 1314.88 789.963 1289.32 722.193 1275.2 651.641 C 1274.26 646.988 1270.08 626.625 1270.94 623.398 C 1278.97 621.991 1291.85 621.272 1300.33 620.577 z"/>
<path transform="translate(0,0)" fill="rgb(254,254,254)" d="M 1129.02 767.75 C 1144.83 758.698 1162.45 757.783 1172.43 775.575 C 1176.32 782.554 1177.27 790.798 1175.06 798.476 C 1169.71 817.088 1153.23 820.567 1136.32 816.936 C 1136.84 799.252 1135.84 784.266 1129.02 767.75 z"/>
<path transform="translate(0,0)" fill="rgb(254,254,254)" d="M 1234.95 733.478 C 1245.01 731.057 1255.58 734.24 1262.63 741.805 C 1269.67 749.371 1272.1 760.147 1268.97 770.001 C 1265.84 779.855 1257.64 787.258 1247.52 789.373 C 1232.2 792.575 1217.15 782.887 1213.71 767.615 C 1210.28 752.344 1219.74 737.143 1234.95 733.478 z"/>
<path transform="translate(0,0)" fill="rgb(254,112,56)" d="M 796.364 785.812 C 802.54 793.086 811.972 804.068 820.446 808.169 C 838.07 816.698 860.756 821.859 879.762 827.121 L 975.527 853.529 C 964.157 918.735 953.737 986.711 941.472 1051.54 L 959.152 1054.61 C 958.406 1057.95 957.047 1064.92 956.047 1067.87 C 937.917 1072.99 895.373 1078.74 875.785 1081.65 C 829.718 1086.78 785.544 1091.66 739.018 1092.72 C 712.783 1093.31 686.768 1092.93 660.552 1093.1 C 654.13 1092.63 647.946 1092.29 641.588 1091.18 C 627.698 1095.55 620.029 1101.44 606.26 1097.39 C 581.642 1152.45 542.502 1164.73 489.02 1175.21 C 483.446 1157.04 483.624 1147.97 487.12 1129.15 C 447.634 1160.28 408.553 1173.13 358.439 1178.32 C 342.593 1179.96 325.85 1180.73 309.929 1179.12 C 315.06 1165.9 335.784 1122.49 347.074 1115.16 C 352.527 1109.47 358.528 1102.04 364.277 1095.92 C 379.349 1079.87 391.515 1071.96 409.806 1060.07 C 412.514 1056.55 427.785 1050.51 432.442 1048.51 C 414.205 1047.68 398.82 1040.97 384.688 1029.68 C 426.985 967.279 483.652 948.18 555.516 971.507 C 559.575 958.001 575.077 955.085 587.044 950.55 L 588.137 948.388 C 640.513 897.442 687.243 862.468 745.179 820.151 C 763.528 807.815 776.965 797.715 796.364 785.812 z"/>
<path transform="translate(0,0)" fill="rgb(254,254,254)" d="M 555.516 971.507 C 559.575 958.001 575.077 955.085 587.044 950.55 C 592.565 964.916 598.183 979.244 603.899 993.534 C 597.21 997.17 574.288 1010.06 568.325 1012.14 C 560.183 1017.73 547.711 1023.59 538.709 1028.37 L 482.661 1058.07 C 473.862 1062.73 452.021 1071.9 449.582 1081.53 C 450.875 1087.06 455.096 1089.26 460.643 1088.39 C 473.863 1086.3 486.758 1082.22 499.781 1079.04 L 586.324 1058.08 C 599.05 1054.92 612.346 1051.41 625.137 1048.76 C 627.792 1055.25 640.107 1085.11 641.588 1091.18 C 627.698 1095.55 620.029 1101.44 606.26 1097.39 C 581.642 1152.45 542.502 1164.73 489.02 1175.21 C 483.446 1157.04 483.624 1147.97 487.12 1129.15 C 447.634 1160.28 408.553 1173.13 358.439 1178.32 C 342.593 1179.96 325.85 1180.73 309.929 1179.12 C 315.06 1165.9 335.784 1122.49 347.074 1115.16 C 352.527 1109.47 358.528 1102.04 364.277 1095.92 C 379.349 1079.87 391.515 1071.96 409.806 1060.07 C 412.514 1056.55 427.785 1050.51 432.442 1048.51 C 414.205 1047.68 398.82 1040.97 384.688 1029.68 C 426.985 967.279 483.652 948.18 555.516 971.507 z"/>
<path transform="translate(0,0)" fill="rgb(41,16,66)" d="M 586.324 1058.08 C 599.05 1054.92 612.346 1051.41 625.137 1048.76 C 627.792 1055.25 640.107 1085.11 641.588 1091.18 C 627.698 1095.55 620.029 1101.44 606.26 1097.39 C 581.642 1152.45 542.502 1164.73 489.02 1175.21 C 483.446 1157.04 483.624 1147.97 487.12 1129.15 C 447.634 1160.28 408.553 1173.13 358.439 1178.32 C 342.593 1179.96 325.85 1180.73 309.929 1179.12 C 315.06 1165.9 335.784 1122.49 347.074 1115.16 C 345.79 1118.05 334.822 1133.94 332.344 1137.95 C 323.75 1151.89 318.59 1162.86 312.114 1177.87 C 381.702 1178.72 442.736 1168.56 495.148 1119.27 C 484.233 1140.91 484.033 1149.94 489.993 1173.46 C 543.681 1164.16 580.015 1149.5 604.897 1096.83 C 596.169 1088.62 590.801 1069.92 586.324 1058.08 z"/>
<path transform="translate(0,0)" fill="rgb(41,16,66)" d="M 555.516 971.507 C 559.575 958.001 575.077 955.085 587.044 950.55 C 592.565 964.916 598.183 979.244 603.899 993.534 C 597.21 997.17 574.288 1010.06 568.325 1012.14 C 563.806 1000.56 556.907 984.238 553.861 972.612 C 483.6 949.536 429.766 968.885 387.07 1029.21 C 401.63 1043.51 423.573 1047.13 443.061 1047.04 C 430.554 1050.59 417.799 1057.89 409.806 1060.07 C 412.514 1056.55 427.785 1050.51 432.442 1048.51 C 414.205 1047.68 398.82 1040.97 384.688 1029.68 C 426.985 967.279 483.652 948.18 555.516 971.507 z"/>
<path transform="translate(0,0)" fill="rgb(21,180,113)" d="M 603.899 993.534 C 614.197 988.231 645.944 969.813 654.816 967.576 C 675.071 962.468 705.011 956.582 724.824 952.763 C 737.09 950.4 823.984 931.368 828.93 933.332 C 831.16 934.241 832.851 936.12 833.52 938.433 C 834.242 940.873 833.761 943.094 832.26 945.105 C 829.642 948.612 695.344 1028.21 681.065 1034.14 C 663.633 1041.38 643.238 1043.24 625.137 1048.76 C 612.346 1051.41 599.05 1054.92 586.324 1058.08 L 499.781 1079.04 C 486.758 1082.22 473.863 1086.3 460.643 1088.39 C 455.096 1089.26 450.875 1087.06 449.582 1081.53 C 452.021 1071.9 473.862 1062.73 482.661 1058.07 L 538.709 1028.37 C 547.711 1023.59 560.183 1017.73 568.325 1012.14 C 574.288 1010.06 597.21 997.17 603.899 993.534 z"/>
<path transform="translate(0,0)" fill="rgb(254,198,23)" d="M 1427.26 528.014 C 1444.43 471.55 1436.75 478.585 1408.3 431.929 C 1381.28 387.623 1374.36 323.085 1389.53 273.147 C 1402.9 227.873 1433.87 189.852 1475.5 167.594 C 1555.82 125.034 1653.19 152.219 1696.53 233.047 C 1748.18 329.385 1704.1 442.381 1609.53 491.117 C 1585.01 503.755 1552.35 506.173 1540.05 532.992 C 1535.89 542.074 1533.82 552.011 1529.76 560.773 C 1523.18 559.364 1508.5 554.215 1501.5 551.985 L 1500.11 551.911 C 1483.48 544.492 1447.07 535.524 1427.26 528.014 z"/>
<path transform="translate(0,0)" fill="rgb(95,70,13)" d="M 1492.24 366.091 C 1449.02 369.509 1453.49 315.82 1486.38 317.096 C 1493.46 317.406 1500.13 320.576 1504.84 325.884 C 1518.01 340.52 1509.15 356.604 1494.74 365.404 C 1506.68 382.686 1517.28 382.369 1533.95 371.686 C 1539.35 378.866 1550.55 389.595 1560.28 387.878 C 1561.55 386.668 1563.23 385.028 1562.65 383.005 C 1551.06 342.044 1613.38 337.545 1610.25 376.299 C 1609.62 383.409 1606.19 389.976 1600.71 394.549 C 1588.55 404.635 1574.88 398.977 1565.22 389.104 L 1522.16 499.484 C 1517.68 510.976 1506.55 542.012 1501.5 551.985 L 1500.11 551.911 C 1505.6 534.592 1515.39 511.611 1522.21 494.147 L 1563.19 389.256 C 1552.03 388.432 1544.57 387.252 1536.84 378.341 C 1535.7 377.009 1534.58 375.652 1533.5 374.269 C 1525.35 378.883 1522.55 379.967 1513.38 381.677 C 1502.82 378.413 1500.25 376.483 1493.87 367.427 L 1466.5 501.87 C 1464.5 512.089 1460.8 523.356 1459.32 533.413 C 1459.4 518.728 1466.55 491.056 1469.82 475.208 L 1492.24 366.091 z"/>
<path transform="translate(0,0)" fill="rgb(254,198,23)" d="M 1479 319.535 C 1491.21 315.812 1504.12 322.691 1507.85 334.901 C 1511.57 347.111 1504.7 360.029 1492.49 363.757 C 1480.28 367.485 1467.35 360.606 1463.63 348.393 C 1459.9 336.18 1466.78 323.259 1479 319.535 z"/>
<path transform="translate(0,0)" fill="rgb(254,198,23)" d="M 1582.52 351.505 C 1590.76 350.31 1599.02 353.647 1604.11 360.239 C 1609.21 366.831 1610.37 375.658 1607.14 383.34 C 1603.91 391.022 1596.79 396.371 1588.51 397.339 C 1575.96 398.808 1564.55 389.916 1562.91 377.381 C 1561.27 364.845 1570 353.317 1582.52 351.505 z"/>
<path transform="translate(0,0)" fill="rgb(254,198,23)" d="M 429.191 343.283 C 437.89 340.185 492.122 321.613 497.328 323.943 C 500.206 329.133 500.476 335.71 500.537 341.544 C 516.014 335.253 524.488 341.883 536.367 351.624 L 535.021 352.208 C 567.329 380.03 593.143 416.566 621.064 449.212 C 630.582 460.341 652.551 485.361 659.711 495.472 L 661.007 494.21 C 664.82 490.992 668.806 487.314 672.569 483.979 C 691.17 503.968 714.655 532.566 732.343 553.94 C 728.366 557.016 719.81 563.248 716.809 566.699 C 693.251 582.041 678.271 597.668 644.882 592.711 C 635.488 591.308 626.565 587.68 618.857 582.129 C 590.433 561.959 554.286 502.315 532.622 473.016 C 521.1 475.726 509.428 477.754 497.667 479.089 C 491.825 480.97 486.68 488.961 481.237 492.778 C 465.675 503.691 445.68 507.502 427.397 510.436 C 419.875 523.603 416.588 526.795 405.94 537.567 C 405.738 561.971 408.436 559.453 422.888 576.326 L 374.835 591.227 C 368.704 593.123 355.314 597.606 349.441 598.69 C 351.634 579.786 352.914 574.199 343.054 557.632 C 326.457 554.323 321.206 552.56 305.701 545.961 C 279.345 557.662 253.87 568.411 225.549 554.827 C 202.351 543.699 186.903 515.284 175.309 493.309 C 165.018 473.803 152.77 452.477 145.458 431.89 C 162.739 424.139 191.832 418.259 211.281 410.619 C 212.584 407.762 209.695 406.497 209.918 401.045 C 213.813 396.603 405.481 338.25 426.003 332.979 L 429.191 343.283 z M 459.718 472.98 C 448.446 465.066 449.393 443.181 448.253 430.384 C 447.903 423.866 449.742 415.312 447.705 409.125 C 444.629 399.781 450.935 393.61 456.755 387.579 C 456.26 387.059 455.76 386.542 455.303 385.988 C 451.981 381.97 451.299 375.306 451.997 370.245 C 453.903 356.416 476.249 361.179 483.893 355.324 C 472.478 351.809 448.973 361.677 436.544 365.963 C 437.813 370.266 439.887 375.589 439.175 379.8 C 435.79 384.29 432.895 384.149 427.027 385.51 C 440.624 405.556 443.408 436.749 442.342 460.61 C 442.175 464.361 437.112 487.676 439.757 487.802 C 444.258 488.015 455.31 483.761 458.779 480.8 C 458.563 478.276 458.314 477.98 457.414 475.673 C 458.566 473.995 458.207 474.275 459.718 472.98 z M 286.653 533.246 C 263.184 510.969 239.401 478.542 238.169 444.992 L 236.624 444.332 C 232.506 445.732 228.383 447.212 224.191 448.351 C 222.39 442.509 221.197 438.924 220.369 432.916 C 205.929 437.083 191.57 441.526 177.3 446.242 C 189.082 483.803 223.673 554.381 273.968 538.223 C 277.999 536.928 282.866 535.069 286.653 533.246 z"/>
<path transform="translate(0,0)" fill="rgb(254,254,254)" d="M 500.537 341.544 C 516.014 335.253 524.488 341.883 536.367 351.624 L 535.021 352.208 C 567.329 380.03 593.143 416.566 621.064 449.212 C 630.582 460.341 652.551 485.361 659.711 495.472 L 661.007 494.21 C 664.82 490.992 668.806 487.314 672.569 483.979 C 691.17 503.968 714.655 532.566 732.343 553.94 C 728.366 557.016 719.81 563.248 716.809 566.699 C 693.251 582.041 678.271 597.668 644.882 592.711 C 635.488 591.308 626.565 587.68 618.857 582.129 C 590.433 561.959 554.286 502.315 532.622 473.016 C 521.1 475.726 509.428 477.754 497.667 479.089 C 496.914 475.997 502.465 467.851 504.594 463.736 C 496.508 466.293 477.777 469.007 473.773 470.903 C 472.39 472.753 470.947 474.778 469.419 476.493 C 467.009 476.012 462.211 473.943 459.718 472.98 C 448.446 465.066 449.393 443.181 448.253 430.384 C 447.903 423.866 449.742 415.312 447.705 409.125 C 444.629 399.781 450.935 393.61 456.755 387.579 C 456.26 387.059 455.76 386.542 455.303 385.988 C 451.981 381.97 451.299 375.306 451.997 370.245 C 453.903 356.416 476.249 361.179 483.893 355.324 C 488.96 349.424 494.059 345.692 500.537 341.544 z"/>
<path transform="translate(0,0)" fill="rgb(254,254,254)" d="M 500.537 341.544 C 516.014 335.253 524.488 341.883 536.367 351.624 L 535.021 352.208 C 527.791 347.023 518.669 339.024 508.765 340.373 C 493.675 342.428 458.917 379.174 470.478 393.679 C 481.883 398.566 500.177 379.493 510.129 373.293 C 513.403 378.555 516.139 382.734 520.046 387.59 C 525.458 394.318 533.318 395.612 539.212 401.161 L 538.04 402.099 C 524.765 396.163 521.262 392.115 512.579 380.845 C 510.75 387.865 509.855 390.061 506.317 396.439 C 512.454 408.53 506.734 409.312 508.143 415.303 C 510.916 427.099 518.789 422.932 509.647 439.638 C 507.979 442.686 521.386 454.997 504.594 463.736 C 496.508 466.293 477.777 469.007 473.773 470.903 C 472.39 472.753 470.947 474.778 469.419 476.493 C 467.009 476.012 462.211 473.943 459.718 472.98 C 448.446 465.066 449.393 443.181 448.253 430.384 C 447.903 423.866 449.742 415.312 447.705 409.125 C 444.629 399.781 450.935 393.61 456.755 387.579 C 456.26 387.059 455.76 386.542 455.303 385.988 C 451.981 381.97 451.299 375.306 451.997 370.245 C 453.903 356.416 476.249 361.179 483.893 355.324 C 488.96 349.424 494.059 345.692 500.537 341.544 z"/>
<path transform="translate(0,0)" fill="rgb(89,88,89)" d="M 500.537 341.544 C 516.014 335.253 524.488 341.883 536.367 351.624 L 535.021 352.208 C 527.791 347.023 518.669 339.024 508.765 340.373 C 493.675 342.428 458.917 379.174 470.478 393.679 C 481.883 398.566 500.177 379.493 510.129 373.293 C 513.403 378.555 516.139 382.734 520.046 387.59 C 525.458 394.318 533.318 395.612 539.212 401.161 L 538.04 402.099 C 524.765 396.163 521.262 392.115 512.579 380.845 C 510.75 387.865 509.855 390.061 506.317 396.439 C 512.454 408.53 506.734 409.312 508.143 415.303 C 510.916 427.099 518.789 422.932 509.647 439.638 C 507.979 442.686 521.386 454.997 504.594 463.736 C 496.508 466.293 477.777 469.007 473.773 470.903 C 471.798 470.412 470.736 470.581 469.862 469.324 C 480.238 465.433 515.871 467.035 512.109 447.381 C 503.229 437.396 464.117 451.837 456.087 444.861 C 463.418 440.469 506.049 450.553 511.327 432.807 C 512.633 428.414 508.631 418.38 504.2 418.016 C 500.807 417.738 493.186 420.945 489.428 421.234 C 481.739 422.173 465.529 423.722 459.243 419.504 L 458.533 417.898 C 461.46 417.678 468.626 419.302 470.827 419.951 C 479.851 422.609 509.925 418.652 509.474 405.448 C 508.973 390.769 480.737 396.49 472.783 396.657 C 470.173 396.711 465.325 389.603 460.633 388.668 C 453.52 390.384 447.444 398.143 449.048 405.444 C 450.128 410.361 455.283 416.441 454.813 420.023 C 440.278 438.855 456.774 433.682 452.781 448.885 C 449.105 462.885 460.492 470.042 469.419 476.493 C 467.009 476.012 462.211 473.943 459.718 472.98 C 448.446 465.066 449.393 443.181 448.253 430.384 C 447.903 423.866 449.742 415.312 447.705 409.125 C 444.629 399.781 450.935 393.61 456.755 387.579 C 456.26 387.059 455.76 386.542 455.303 385.988 C 451.981 381.97 451.299 375.306 451.997 370.245 C 453.903 356.416 476.249 361.179 483.893 355.324 C 488.96 349.424 494.059 345.692 500.537 341.544 z"/>
<path transform="translate(0,0)" fill="rgb(254,254,254)" d="M 469.37 361.368 L 477.512 361.361 C 476.917 363.614 470.24 371.035 468.332 374.931 C 466.117 379.452 465.826 385.741 463.245 388.076 C 462.218 387.693 461.205 387.275 460.206 386.823 C 444.965 380.058 456.158 365.379 469.37 361.368 z"/>
<path transform="translate(0,0)" fill="rgb(254,254,254)" d="M 508.299 376.891 C 508.698 376.988 509.539 377.713 509.933 378.01 C 510.551 382.712 508.903 390.518 505.278 393.919 C 504.115 395.011 493.841 393.931 491.465 393.843 L 489.005 392.649 C 490.214 388.675 504.302 379.673 508.299 376.891 z"/>
<path transform="translate(0,0)" fill="rgb(89,88,89)" d="M 659.711 495.472 L 661.007 494.21 C 666.275 504.029 666.613 505.834 669.221 516.55 L 668.851 516.912 C 665.428 509.54 663.3 502.198 659.711 495.472 z"/>
<path transform="translate(0,0)" fill="rgb(254,254,254)" d="M 338.057 446.388 C 340.262 447.787 353.911 462.419 356.723 465.329 C 364.565 463.669 373.96 462.536 381.992 461.365 C 379.433 468.027 373.777 477.362 370.14 483.813 C 372.718 490.333 378.748 501.624 382.05 508.25 C 373.586 506.477 364.525 504.965 355.978 503.399 C 350.439 508.23 342.302 516.824 336.856 522.229 L 333.745 496.034 C 327.435 492.169 316.904 487.146 310.016 483.633 C 317.957 479.95 325.82 476.1 333.598 472.086 C 335.271 463.929 336.65 454.678 338.057 446.388 z"/>
<path transform="translate(0,0)" fill="rgb(95,70,13)" d="M 236.624 444.332 C 247.238 438.947 415.724 386.195 423.763 385.699 L 425.092 386.201 L 238.169 444.992 L 236.624 444.332 z"/>
<path transform="translate(0,0)" fill="rgb(21,180,113)" d="M 901.057 377.514 C 942.725 374.275 998.676 386.996 1038.73 397.977 C 1045.23 399.761 1057.56 402.507 1063.35 404.349 C 1056.31 404.01 1049.43 402.315 1042.53 400.851 C 1038.3 425.884 1030.28 466.02 1024.18 490.508 C 1055.39 494.749 1093.26 502.858 1124.7 498.257 C 1128.69 497.673 1140.88 493.503 1143.16 493.53 C 1128.78 509.942 1045.27 494.823 1024.41 491.98 L 1022 502.918 C 1010.22 501.383 998.474 499.609 986.768 497.597 C 979.078 496.41 971.216 494.885 963.543 493.496 C 962.613 537.608 961.978 589.042 975.727 630.887 C 968.751 644.4 953.602 650.377 939.706 654.706 C 897.872 667.738 830.872 672.139 795.937 641.02 C 794.35 622.312 792.161 603.377 790.853 584.71 C 787.872 570.488 784.931 539.358 782.951 523.726 C 774.506 531.107 745.873 554.487 736.749 558.494 C 723.744 557.108 728.007 561.523 716.809 566.699 C 719.81 563.248 728.366 557.016 732.343 553.94 C 714.655 532.566 691.17 503.968 672.569 483.979 C 671.766 482.722 670.961 481.263 670.201 479.961 C 671.449 475.743 682.143 465.879 685.755 462.462 C 712.604 437.062 743.637 410.372 777.149 394.162 C 790.077 387.909 816.138 383.269 830.543 380.439 C 833.59 382.747 834.641 383.344 838.076 385.041 C 852.139 391.854 885.549 412.297 896.08 388.476 L 896.607 388.471 C 898.04 384.453 894.77 382.887 897.188 378.187 L 901.057 377.514 z"/>
<path transform="translate(0,0)" fill="rgb(41,16,66)" d="M 808.157 497.434 L 797.685 552.1 C 795.865 561.561 793.506 575.651 790.853 584.71 C 787.872 570.488 784.931 539.358 782.951 523.726 L 808.157 497.434 z"/>
<path transform="translate(0,0)" fill="rgb(41,16,66)" d="M 960.413 430.012 C 971.899 449.719 983.939 474.662 986.768 497.597 C 979.078 496.41 971.216 494.885 963.543 493.496 C 963.079 471.002 963.864 452.281 960.413 430.012 z"/>
<path transform="translate(0,0)" fill="rgb(41,16,66)" d="M 1427.26 528.014 C 1447.07 535.524 1483.48 544.492 1500.11 551.911 L 1501.5 551.985 C 1508.5 554.215 1523.18 559.364 1529.76 560.773 C 1532.88 563.258 1533.71 563.715 1535.3 567.314 C 1534.83 574.189 1530.24 573.06 1526.56 576.927 C 1523.14 580.52 1520.42 589.755 1518.54 594.615 C 1520.79 597.417 1522.25 598.776 1523.21 602.246 C 1522.72 604.166 1522.38 606.068 1520.16 607.024 C 1509.35 611.681 1511.64 608.511 1505.57 618.465 C 1503.9 621.384 1502.44 622.647 1502.84 625.416 C 1513.01 627.716 1522.63 628.764 1532.94 631.016 C 1557.39 636.36 1580.08 643.578 1603.84 651.064 C 1557.76 736.013 1478.48 812.532 1400.73 870.086 C 1364.07 813.954 1336.19 752.557 1318.05 688.014 C 1314.57 675.362 1311.48 662.608 1308.76 649.771 C 1307.6 644.043 1304.46 625.66 1302.63 621.283 L 1300.33 620.577 C 1301.55 620.194 1316.38 619.636 1318.4 619.536 C 1340.8 618.421 1363.22 617.681 1385.65 617.318 C 1394.88 617.197 1405.88 617.854 1414.62 617.507 L 1414.99 614.61 C 1412.47 604.444 1413.15 589.154 1414 578.766 C 1409.67 577.312 1406.31 574.873 1403.54 571.249 C 1402.69 564.759 1411.08 563.113 1416.2 561.157 C 1418.39 557.432 1419.84 549.595 1420.88 545.049 C 1416.2 535.539 1415.03 530.13 1427.26 528.014 z"/>
<path transform="translate(0,0)" fill="rgb(41,16,66)" d="M 1427.26 528.014 C 1447.07 535.524 1483.48 544.492 1500.11 551.911 L 1501.5 551.985 C 1508.5 554.215 1523.18 559.364 1529.76 560.773 C 1532.88 563.258 1533.71 563.715 1535.3 567.314 C 1534.83 574.189 1530.24 573.06 1526.56 576.927 C 1523.14 580.52 1520.42 589.755 1518.54 594.615 C 1520.79 597.417 1522.25 598.776 1523.21 602.246 C 1522.72 604.166 1522.38 606.068 1520.16 607.024 C 1509.35 611.681 1511.64 608.511 1505.57 618.465 L 1504.9 616.994 C 1489.58 638.945 1466.83 662.691 1436.43 645.697 C 1424.85 639.22 1419.23 625.283 1416.4 612.69 L 1414.99 614.61 C 1412.47 604.444 1413.15 589.154 1414 578.766 C 1409.67 577.312 1406.31 574.873 1403.54 571.249 C 1402.69 564.759 1411.08 563.113 1416.2 561.157 C 1418.39 557.432 1419.84 549.595 1420.88 545.049 C 1416.2 535.539 1415.03 530.13 1427.26 528.014 z"/>
<path transform="translate(0,0)" fill="rgb(254,254,254)" d="M 1416.16 578.95 C 1445.94 588.6 1480.53 598.528 1509.49 608.83 L 1504.9 616.994 C 1489.58 638.945 1466.83 662.691 1436.43 645.697 C 1424.85 639.22 1419.23 625.283 1416.4 612.69 C 1414.7 599.221 1414.82 592.514 1416.16 578.95 z"/>
<path transform="translate(0,0)" fill="rgb(254,254,254)" d="M 1423.54 543.905 L 1523.88 575.874 L 1516.88 593.73 C 1511.21 593.891 1429.08 566.491 1418.54 563.132 C 1420.16 556.71 1421.83 550.301 1423.54 543.905 z"/>
<path transform="translate(0,0)" fill="rgb(41,16,66)" d="M 579.594 314.026 C 597.024 296.065 612.671 289.992 638.135 287.889 C 654.199 286.562 668.223 289.297 682.665 296.785 C 704.651 308.185 723.184 333.351 746.813 307.887 C 762.121 291.533 771.847 267.972 798.502 266.665 C 805.708 266.223 823.811 271.236 828.715 264.105 C 837.012 252.038 840.974 244.926 856.727 243.154 C 889.235 239.496 930.622 277.844 895.884 305.23 C 904.867 329.727 905.246 331.275 889.773 350.693 C 887.322 353.77 881 369.34 878.414 374.541 C 883.046 374.912 899.47 377.505 901.057 377.514 L 897.188 378.187 C 894.77 382.887 898.04 384.453 896.607 388.471 L 896.08 388.476 C 885.549 412.297 852.139 391.854 838.076 385.041 C 834.641 383.344 833.59 382.747 830.543 380.439 C 816.138 383.269 790.077 387.909 777.149 394.162 C 743.637 410.372 712.604 437.062 685.755 462.462 C 682.143 465.879 671.449 475.743 670.201 479.961 C 670.961 481.263 671.766 482.722 672.569 483.979 C 668.806 487.314 664.82 490.992 661.007 494.21 L 659.711 495.472 C 652.551 485.361 630.582 460.341 621.064 449.212 C 593.143 416.566 567.329 380.03 535.021 352.208 L 536.367 351.624 C 546.011 358.913 552.4 366.126 561.017 374.518 C 570.167 321.603 588.035 301.409 644.315 308.609 C 619.64 295.252 602.78 300.572 579.594 314.026 z"/>
<path transform="translate(0,0)" fill="rgb(254,254,254)" d="M 837.643 309.055 C 846.947 306.503 854.529 304.857 860.118 296.047 C 862.705 291.97 862.928 287.551 863.491 282.949 C 864.661 282.567 865.666 282.239 866.505 281.964 C 875.509 284.427 871.084 294.806 876.944 300.187 C 886.398 303.207 889.21 297.892 895.097 308.007 C 910.709 334.835 887.71 360.337 858.848 356.923 L 869.147 362.011 C 870.664 366.384 872.346 371.751 874.423 375.787 C 886.393 376.28 895.326 373.745 896.08 388.476 C 885.549 412.297 852.139 391.854 838.076 385.041 L 835.695 381.899 C 838.879 377.757 849.961 377.98 855.371 376.894 C 862.919 349.468 847.451 358.797 835.089 339.973 C 833.638 337.763 828.289 337.478 825.697 336.542 C 818.359 333.89 818.015 323.534 821.524 317.626 C 827.082 314.359 829.958 316.828 835.434 319.811 C 836.626 316.577 837.086 312.519 837.643 309.055 z"/>
<path transform="translate(0,0)" fill="rgb(41,16,66)" d="M 860.538 341.784 L 859.528 336.86 C 861.082 336.271 860.324 336.127 861.817 336.619 C 867.216 338.396 873.845 338.278 879.49 338.476 C 879.846 341.351 879.634 340.633 878.361 343.698 C 868.938 348.101 868.51 349.54 860.538 341.784 z"/>
<path transform="translate(0,0)" fill="rgb(254,112,56)" d="M 860.538 341.784 C 867.996 340.648 871.101 341.475 878.361 343.698 C 868.938 348.101 868.51 349.54 860.538 341.784 z"/>
<path transform="translate(0,0)" fill="rgb(41,16,66)" d="M 857.683 313.701 C 861.844 315.166 862.965 315.837 863.491 320.312 C 862.133 323.674 861.456 323.915 858.265 325.762 C 855.667 324.12 853.228 322.139 852.197 319.244 C 853.288 315.852 854.245 316.089 857.683 313.701 z"/>
<path transform="translate(0,0)" fill="rgb(41,16,66)" d="M 884.787 312.592 C 888.502 313.42 889.326 313.378 892.355 315.486 C 893.196 318.887 892.074 319.654 890.478 323.448 C 885.991 323.891 884.61 324.021 882.139 320.065 C 881.869 316.4 882.654 315.685 884.787 312.592 z"/>
<path transform="translate(0,0)" fill="rgb(41,16,66)" d="M 879.274 305.16 C 885.827 304.714 889.373 304.519 893.542 309.954 C 887.451 307.973 885.74 310.004 880.346 308.264 L 879.274 305.16 z"/>
<path transform="translate(0,0)" fill="rgb(41,16,66)" d="M 858.394 304.774 C 861.166 305.094 862.326 304.873 863.773 307.091 C 861.128 309.54 861.002 308.824 856.804 309.171 L 852.537 310.44 L 851.367 309.751 C 853.465 306.921 855.246 306.372 858.394 304.774 z"/>
<path transform="translate(0,0)" fill="rgb(41,16,66)" d="M 959.152 1054.61 L 960.299 1055.35 C 970.609 1056.02 1084.82 1075.49 1089.81 1077.91 L 1091.32 1077.24 C 1090.26 1085.03 1089.39 1092.85 1088.7 1100.69 C 1095.45 1106.09 1099.79 1115.07 1104.42 1118.39 C 1145.32 1147.76 1189.3 1166.64 1196.5 1223.67 C 1197.68 1233.02 1198.04 1248.59 1195.65 1257.76 C 1194.47 1265.98 1193.6 1269.34 1191.28 1277.19 C 1142.77 1266.02 1094.18 1251.82 1045.72 1240.16 C 1033.17 1237.14 1019.05 1233.77 1006.97 1229.61 C 1008.54 1222.78 1010.05 1216.87 1012.59 1210.3 C 1005.64 1197.01 998.79 1182.91 992.042 1169.47 C 989.749 1180.47 986.697 1192.31 984.084 1203.31 C 983.004 1209.15 982.144 1217.11 978.285 1221.55 C 971.384 1222.5 924.852 1209.05 914.85 1206.37 C 916.489 1199.21 918.064 1193.46 920.136 1186.47 C 930.912 1147.35 945.724 1106.9 956.047 1067.87 C 957.047 1064.92 958.406 1057.95 959.152 1054.61 z"/>
<path transform="translate(0,0)" fill="rgb(254,254,254)" d="M 960.299 1055.35 C 970.609 1056.02 1084.82 1075.49 1089.81 1077.91 C 1088.26 1088.23 1088.02 1091.82 1087.77 1102.31 C 1059.8 1104.13 1044.66 1112.17 1028.57 1135.29 C 1000.32 1100.24 1005.71 1083.22 957.204 1070.77 L 960.299 1055.35 z"/>
<path transform="translate(0,0)" fill="rgb(254,198,23)" d="M 1012.59 1210.3 L 1138.23 1242.64 C 1149.49 1245.51 1187.14 1254.25 1195.65 1257.76 C 1194.47 1265.98 1193.6 1269.34 1191.28 1277.19 C 1142.77 1266.02 1094.18 1251.82 1045.72 1240.16 C 1033.17 1237.14 1019.05 1233.77 1006.97 1229.61 C 1008.54 1222.78 1010.05 1216.87 1012.59 1210.3 z"/>
<path transform="translate(0,0)" fill="rgb(254,198,23)" d="M 920.136 1186.47 C 941.122 1192.74 963.358 1197.12 984.084 1203.31 C 983.004 1209.15 982.144 1217.11 978.285 1221.55 C 971.384 1222.5 924.852 1209.05 914.85 1206.37 C 916.489 1199.21 918.064 1193.46 920.136 1186.47 z"/>
<path transform="translate(0,0)" fill="rgb(254,254,254)" d="M 1095.68 1115.23 C 1097.99 1115.16 1134.82 1140.98 1139.43 1144.11 C 1118.35 1141.83 1101.69 1149.02 1082.27 1155.99 C 1075.32 1158.58 1069.35 1159.78 1062.05 1160.69 C 1054.29 1157.46 1047.84 1152.71 1041.36 1147.47 C 1057.16 1128.4 1071.42 1119.8 1095.68 1115.23 z"/>
<path transform="translate(0,0)" fill="rgb(41,16,66)" d="M 1381.26 959.32 C 1385.64 965.942 1390.87 971.965 1396.81 977.237 C 1401.35 977.49 1416.14 979.075 1419.07 978.427 C 1478.67 965.253 1531.15 944.545 1580.25 999.586 C 1581.85 1001.38 1583.43 1003.19 1584.98 1005.02 C 1590.47 1011.48 1591.99 1014.68 1596.2 1022 C 1559.24 1046.23 1522.16 1070.27 1484.95 1094.11 C 1476.91 1099.3 1443.84 1121.87 1436.8 1124.96 C 1431.87 1119.08 1429.72 1114.84 1426.03 1108.21 C 1411.96 1104.15 1395.92 1099.87 1382.11 1095.43 C 1387.35 1103.28 1397.03 1116.81 1401.39 1124.53 C 1406.66 1131.5 1408.16 1133.35 1411.98 1141.28 C 1396.84 1152.76 1373.64 1166.46 1357.19 1177.22 C 1352.06 1170.34 1350.51 1167.96 1346.49 1160.32 C 1342.12 1155.05 1331.46 1135.29 1327.28 1128.51 C 1310.22 1100.81 1294.38 1068.84 1275.49 1042.58 L 1276.57 1041.58 C 1283.35 1035.23 1303.88 1020.26 1312 1013.99 C 1334.74 996.308 1357.59 978.775 1380.56 961.394 L 1381.26 959.32 z"/>
<path transform="translate(0,0)" fill="rgb(254,254,254)" d="M 1276.57 1041.58 C 1283.35 1035.23 1303.88 1020.26 1312 1013.99 C 1334.74 996.308 1357.59 978.775 1380.56 961.394 C 1385.61 967.959 1391.16 974.351 1397.37 979.865 C 1384.34 996.401 1377.07 1011.05 1379.56 1032.98 C 1379.99 1037.13 1380.69 1041.24 1381.65 1045.3 C 1339.88 1044.2 1326.04 1026.23 1285.99 1054.55 C 1283.07 1050.52 1279.59 1045.4 1276.57 1041.58 z"/>
<path transform="translate(0,0)" fill="rgb(254,198,23)" d="M 1584.98 1005.02 C 1590.47 1011.48 1591.99 1014.68 1596.2 1022 C 1559.24 1046.23 1522.16 1070.27 1484.95 1094.11 C 1476.91 1099.3 1443.84 1121.87 1436.8 1124.96 C 1431.87 1119.08 1429.72 1114.84 1426.03 1108.21 C 1438.23 1101.62 1465 1083.03 1477.53 1074.88 L 1584.98 1005.02 z"/>
<path transform="translate(0,0)" fill="rgb(254,198,23)" d="M 1401.39 1124.53 C 1406.66 1131.5 1408.16 1133.35 1411.98 1141.28 C 1396.84 1152.76 1373.64 1166.46 1357.19 1177.22 C 1352.06 1170.34 1350.51 1167.96 1346.49 1160.32 C 1359.16 1150.82 1387.75 1133.09 1401.39 1124.53 z"/>
<path transform="translate(0,0)" fill="rgb(254,254,254)" d="M 1461.41 970.386 L 1461.5 971.198 C 1449.25 983.62 1441.79 998.392 1435.78 1014.55 C 1427.34 1037.26 1422.35 1040.76 1399.38 1044.48 C 1396.22 1019.95 1399.19 1001.97 1413.54 981.294 C 1428.18 978.901 1446.61 973.878 1461.41 970.386 z"/>
<path transform="translate(0,0)" fill="rgb(254,254,254)" d="M 964.259 301.234 C 964.836 288.456 969.079 275.163 969.147 262.198 C 968.547 254.146 961.075 245.38 957.087 237.816 C 938.697 202.931 942.852 160.474 968.257 128.596 C 985.173 107.151 1009.95 93.35 1037.09 90.2592 C 1069.03 86.7184 1092.93 96.8084 1117.24 116.129 C 1119.84 117.92 1121.09 118.844 1123.39 120.979 C 1133.55 114.718 1141.3 110.401 1152.45 105.813 L 1151.76 106.936 C 1146.9 114.685 1133.13 126.427 1133.27 133.368 L 1135.72 138.27 C 1141.18 148.036 1145.82 158.561 1148.39 169.481 C 1154.29 195.554 1149.72 222.902 1135.66 245.639 C 1116.52 276.779 1082.27 295.393 1045.73 294.507 C 1036.05 294.222 1021.31 289.753 1013.26 290.827 C 998.04 292.857 979.443 297.662 964.259 301.234 z"/>
<path transform="translate(0,0)" fill="rgb(254,112,56)" d="M 1123.39 120.979 C 1133.55 114.718 1141.3 110.401 1152.45 105.813 L 1151.76 106.936 C 1146.9 114.685 1133.13 126.427 1133.27 133.368 L 1135.72 138.27 C 1133.79 135.938 1133.39 135.376 1131.02 133.552 C 1126.68 136.155 1106.12 165.916 1101.2 172.478 C 1083.03 196.684 1066.11 221.563 1044.85 243.346 C 1023.74 223.317 1000.4 191.811 978.737 168.698 C 999.342 174.299 1019.16 185.371 1037.36 196.205 C 1063.83 165.69 1088.21 143.756 1121.85 121.875 C 1120.28 119.983 1118.75 118.068 1117.24 116.129 C 1119.84 117.92 1121.09 118.844 1123.39 120.979 z"/>
<path transform="translate(0,0)" fill="rgb(254,254,254)" d="M 1209.74 339.191 C 1214.02 324.33 1231.18 256.925 1251.73 259.617 C 1262.86 265.546 1255.94 285.94 1263.71 291.914 C 1274.85 289.831 1312.39 251.991 1332.29 263.293 C 1335.42 265.073 1335.76 266.253 1336.67 269.032 C 1335.23 279.026 1316.68 291.868 1308.36 298.191 C 1318.04 310.982 1336.54 349.887 1335.33 367.916 C 1334.96 373.295 1328.44 382.945 1322.87 384.06 C 1309.1 392.897 1297.7 397.199 1281.95 400.572 C 1275.27 402.002 1259.54 404.056 1254.46 407.949 C 1222.35 432.57 1191.22 458.754 1158.51 482.709 C 1153.29 486.533 1148.63 490.075 1143.16 493.53 C 1140.88 493.503 1128.69 497.673 1124.7 498.257 C 1093.26 502.858 1055.39 494.749 1024.18 490.508 C 1030.28 466.02 1038.3 425.884 1042.53 400.851 C 1049.43 402.315 1056.31 404.01 1063.35 404.349 C 1074.66 407.333 1090.94 409.994 1102.96 412.548 L 1102.77 412.671 C 1134.31 390.833 1172.2 367.479 1202.08 345.74 C 1204.91 343.064 1206.58 341.59 1209.74 339.191 z"/>
<path transform="translate(0,0)" fill="rgb(89,88,89)" d="M 1209.74 339.191 C 1214.02 324.33 1231.18 256.925 1251.73 259.617 C 1262.86 265.546 1255.94 285.94 1263.71 291.914 C 1274.85 289.831 1312.39 251.991 1332.29 263.293 C 1335.42 265.073 1335.76 266.253 1336.67 269.032 C 1335.23 279.026 1316.68 291.868 1308.36 298.191 C 1318.04 310.982 1336.54 349.887 1335.33 367.916 C 1334.96 373.295 1328.44 382.945 1322.87 384.06 C 1323.36 383.016 1323.05 383.477 1323.86 382.596 C 1331.94 373.84 1333.08 371.32 1335.52 359.966 C 1333.88 355.973 1333.17 352.639 1329.86 349.99 C 1329.01 349.864 1328.16 349.738 1327.31 349.612 C 1314.37 355.62 1295.42 363.092 1282.91 368.139 C 1275.26 390.93 1311.85 376.313 1316.75 376.212 L 1316 377.476 C 1304.27 382.096 1275.75 390.853 1281.15 367.003 C 1280.06 364.288 1278.72 364.284 1275.88 362.321 C 1268.7 357.355 1273.75 352.526 1272.26 344.047 C 1262.81 337.31 1263.68 329.644 1273.12 322.804 C 1292.81 308.55 1313.84 293.087 1331.39 276.313 C 1334.1 273.724 1334.58 270.888 1334.19 267.509 C 1321.22 250.503 1275.24 287.553 1263.39 295.323 C 1263.18 305.935 1260.77 322.951 1254.55 331.549 C 1253.58 330.108 1255.99 323.916 1257.09 322.063 C 1263.53 311.264 1260.68 269.177 1250.83 261.692 C 1233.47 257.993 1215.42 326.051 1211.13 340.477 C 1207.56 343.247 1206.05 343.874 1202.08 345.74 C 1204.91 343.064 1206.58 341.59 1209.74 339.191 z"/>
<path transform="translate(0,0)" fill="rgb(254,254,254)" d="M 1301.62 303.172 C 1310.82 305.983 1323.07 313.267 1315.58 324.741 C 1309.62 333.875 1293.4 340.324 1283.19 342.97 C 1276.81 343.108 1269.14 342.917 1266.72 335.991 C 1268.04 325.34 1291.26 312.853 1301.62 303.172 z"/>
<path transform="translate(0,0)" fill="rgb(254,254,254)" d="M 1316.97 327.847 C 1324.82 329.621 1331.4 338.682 1326.53 344.89 C 1319.44 353.91 1296.69 361.517 1286.22 364.508 C 1278.96 363.568 1273.78 359.471 1272.65 351.971 C 1273.09 350.441 1274.32 346.75 1276.05 346.376 C 1292.7 342.775 1303.21 337.654 1316.97 327.847 z"/>
<path transform="translate(0,0)" fill="rgb(21,180,113)" d="M 660.552 1093.1 C 686.768 1092.93 712.783 1093.31 739.018 1092.72 C 785.544 1091.66 829.718 1086.78 875.785 1081.65 C 866.558 1111.22 857.117 1140.71 847.463 1170.14 C 842.431 1185.65 836.345 1206.33 830.641 1221 C 820.56 1227.58 805.787 1235.21 794.859 1241.24 L 733.504 1275.04 C 715.569 1284.92 599.425 1351.44 588.708 1353.15 L 588.078 1352.25 C 591.74 1345.28 613.961 1321.69 621.628 1311.33 C 656.626 1264.01 701.581 1189.27 684.179 1127.76 C 679.953 1112.83 671.242 1103.24 660.552 1093.1 z"/>
<path transform="translate(0,0)" fill="rgb(21,180,113)" d="M 588.137 948.388 C 587.605 864.361 454.82 826.115 389.396 816.509 C 378.708 814.94 367.728 814.495 357.162 811.905 L 356.899 810.319 C 362.701 806.079 490.874 780.081 506.723 776.678 L 582.418 760.435 C 596.447 757.429 612.879 753.496 626.906 751.334 C 632.224 754.127 637.779 757.331 642.944 760.439 C 676.558 780.66 712.158 799.072 745.179 820.151 C 687.243 862.468 640.513 897.442 588.137 948.388 z"/>
<path transform="translate(0,0)" fill="rgb(41,16,66)" d="M 422.888 576.326 C 426.907 574.746 429.564 573.165 433.689 573.97 C 439.872 577.534 441.075 589.665 442.965 596.716 C 451.694 593.638 459.179 591.425 468.101 588.928 C 470.472 596.097 473.219 605.23 476.145 612.026 L 476.967 613.136 L 480.933 612.325 C 481.587 612.782 482.24 613.239 482.893 613.696 C 489.59 632.514 498.154 663.862 504.148 681.478 C 508.735 680.154 507.409 679.827 511.336 681.036 C 514.552 684.434 515.347 690.481 516.873 695.473 C 501.173 701.984 470.968 710.357 453.979 715.614 L 340.8 750.613 C 338.527 744.613 335.376 739.205 337.846 733.501 C 339.355 732.323 340.446 731.228 342.281 730.76 C 339.94 718.694 321.151 667.392 322.702 661.564 L 327.056 659.616 L 320.049 634.928 C 327.064 632.104 337.076 629.313 344.533 627.02 C 340.905 619.727 338.962 611.218 337.139 603.305 C 341.115 601.467 345.298 600.131 349.441 598.69 C 355.314 597.606 368.704 593.123 374.835 591.227 L 422.888 576.326 z"/>
<path transform="translate(0,0)" fill="rgb(254,198,23)" d="M 422.888 576.326 C 426.907 574.746 429.564 573.165 433.689 573.97 C 439.872 577.534 441.075 589.665 442.965 596.716 C 451.694 593.638 459.179 591.425 468.101 588.928 C 470.472 596.097 473.219 605.23 476.145 612.026 C 471.512 617.825 371.986 644.595 358.63 650.172 C 355.495 651.481 331.648 658.598 327.056 659.616 L 320.049 634.928 C 327.064 632.104 337.076 629.313 344.533 627.02 C 340.905 619.727 338.962 611.218 337.139 603.305 C 341.115 601.467 345.298 600.131 349.441 598.69 C 355.314 597.606 368.704 593.123 374.835 591.227 L 422.888 576.326 z"/>
<path transform="translate(0,0)" fill="rgb(250,162,1)" d="M 422.888 576.326 C 426.907 574.746 429.564 573.165 433.689 573.97 C 439.872 577.534 441.075 589.665 442.965 596.716 C 428.288 600.469 403.182 609.417 387.373 614.319 L 354.256 624.542 C 351.938 625.251 345.707 626.586 344.533 627.02 C 340.905 619.727 338.962 611.218 337.139 603.305 C 341.115 601.467 345.298 600.131 349.441 598.69 C 355.314 597.606 368.704 593.123 374.835 591.227 L 422.888 576.326 z"/>
<path transform="translate(0,0)" fill="rgb(254,198,23)" d="M 504.148 681.478 C 508.735 680.154 507.409 679.827 511.336 681.036 C 514.552 684.434 515.347 690.481 516.873 695.473 C 501.173 701.984 470.968 710.357 453.979 715.614 L 340.8 750.613 C 338.527 744.613 335.376 739.205 337.846 733.501 C 339.355 732.323 340.446 731.228 342.281 730.76 L 343.954 731.506 C 352.884 730.392 496.912 685.56 504.148 681.478 z"/>
<path transform="translate(0,0)" fill="rgb(254,254,254)" d="M 457.603 644.001 L 459.4 643.839 C 462.287 645.806 468.654 669.29 470.218 674.457 C 436.018 685.718 399.737 696.352 365.213 707.06 L 364.219 707.371 L 362.655 706.541 C 359.102 697.54 356.002 686.012 353.211 676.543 C 387.454 665.318 423.073 654.922 457.603 644.001 z"/>
<path transform="translate(0,0)" fill="rgb(254,254,254)" d="M 412.231 132.227 C 438.908 130.332 461.988 152.588 469.891 176.44 C 471.833 182.3 472.417 188.437 474.728 194.178 C 494.185 174.609 518.012 195.166 508.952 220.692 C 535.493 220.216 549.199 224.448 565.616 246.38 C 585.02 247.005 595.542 249.688 613.971 255.596 C 578.892 257.742 525.915 256.193 489.5 256.21 C 422.442 256.232 353.647 256.801 286.735 256.056 C 292.898 239.08 300.629 233.165 319.409 236.349 C 315.897 224.67 314.065 213.959 320.984 202.715 C 325.016 196.28 331.438 191.709 338.839 190.007 C 350.376 187.463 349.644 193.363 356.239 193.562 C 359.065 188.834 357.924 184.61 359.524 179.848 C 368.086 154.361 385.321 136.389 412.231 132.227 z"/>
<path transform="translate(0,0)" fill="rgb(254,254,254)" d="M 1494.9 1251.16 C 1503.61 1242.97 1511.44 1236.62 1523.04 1232.57 C 1528.57 1230.64 1542.03 1232.44 1546.08 1230.47 C 1545.95 1220.75 1545.17 1209.76 1552.48 1202.28 C 1561.45 1193.09 1573.09 1196.23 1581.17 1204.49 L 1582.27 1204.11 C 1584.58 1197.38 1585.56 1190.03 1587.83 1183.71 C 1597.38 1157.09 1628.24 1134.75 1656.94 1145.72 C 1684.55 1156.28 1693.17 1176.91 1699.93 1203.22 C 1711.09 1201.11 1715.85 1197.3 1728.72 1205.67 C 1736.03 1210.42 1738.48 1219.31 1740.19 1227.06 C 1742.57 1237.8 1736.97 1243.03 1737.5 1247.25 C 1748.31 1245.44 1750.2 1243.7 1759.33 1250.16 C 1760.47 1250.97 1761.6 1251.8 1762.72 1252.65 C 1765.66 1257.28 1767.27 1261.06 1769.53 1266.07 C 1714.96 1267.45 1656.23 1266.32 1601.25 1266.3 L 1520.35 1266.27 C 1512.52 1266.27 1471.93 1268.71 1469.44 1262.17 C 1475.83 1254.62 1488.09 1262.34 1494.9 1251.16 z"/>
<path transform="translate(0,0)" fill="rgb(254,198,23)" d="M 441.711 1205.28 C 470.331 1201.9 496.299 1222.28 499.824 1250.88 C 503.349 1279.49 483.107 1305.56 454.525 1309.24 C 425.728 1312.94 399.412 1292.51 395.86 1263.7 C 392.309 1234.88 412.876 1208.67 441.711 1205.28 z"/>
<path transform="translate(0,0)" fill="rgb(21,180,113)" d="M 1777.77 422.404 C 1806.11 416.562 1833.78 434.941 1839.38 463.328 C 1844.98 491.715 1826.37 519.226 1797.94 524.587 C 1769.84 529.885 1742.73 511.542 1737.19 483.493 C 1731.66 455.443 1749.77 428.176 1777.77 422.404 z"/>
<path transform="translate(0,0)" fill="rgb(254,112,56)" d="M 1724.97 910.24 C 1741.47 908.39 1756.34 920.294 1758.15 936.803 C 1759.95 953.312 1748.01 968.15 1731.5 969.912 C 1715.04 971.667 1700.28 959.778 1698.48 943.331 C 1696.68 926.884 1708.53 912.083 1724.97 910.24 z"/>
<path transform="translate(0,0)" fill="rgb(41,16,66)" d="M 1680.65 537.61 C 1696.96 546.862 1715.07 556.136 1731.7 565.07 C 1725.39 570.502 1719.15 576.021 1712.99 581.627 L 1711.59 583.052 C 1703.52 589.795 1696.16 596.483 1688.4 603.588 C 1687.4 585.333 1682.97 556.644 1680.65 537.61 z"/>
<path transform="translate(0,0)" fill="rgb(254,112,56)" d="M 188.496 706.736 C 189.563 708.398 192.878 722.159 194.792 726.538 C 199.65 737.654 204.438 739.982 215.15 744.661 L 214.434 744.953 C 195.389 752.927 192.912 763.113 189.461 782.218 C 187.957 780.57 186.71 772.178 185.369 768.57 C 179.037 751.532 179.167 752.108 163.456 744.634 C 181.713 735.653 185.302 726.11 188.496 706.736 z"/>
<path transform="translate(0,0)" fill="rgb(21,180,113)" d="M 1280.41 99.7876 C 1288.52 107.671 1278.63 127.802 1307.9 136.74 C 1288.06 145.027 1285.76 152.888 1281.64 173.413 L 1280.68 173.537 C 1276.05 153.713 1274.83 144.716 1254.58 136.912 C 1272.17 130.756 1278.64 117.705 1280.41 99.7876 z"/>
<path transform="translate(0,0)" fill="rgb(0,0,0)" fill-opacity="0.701961" d="M 1432.98 1267.78 C 1445.04 1263.26 1456.39 1260.2 1469.07 1257.85 C 1478.52 1256.1 1487.73 1257.53 1494.9 1251.16 C 1488.09 1262.34 1475.83 1254.62 1469.44 1262.17 C 1471.93 1268.71 1512.52 1266.27 1520.35 1266.27 L 1601.25 1266.3 C 1656.23 1266.32 1714.96 1267.45 1769.53 1266.07 C 1767.27 1261.06 1765.66 1257.28 1762.72 1252.65 C 1767.07 1255.03 1770.27 1260.25 1769.53 1265.26 C 1764.35 1269.89 1738.81 1267.92 1730.5 1267.91 L 1653.31 1267.91 C 1580.16 1267.94 1506.05 1268.59 1432.98 1267.78 z"/>
<path transform="translate(0,0)" fill="rgb(0,0,0)" fill-opacity="0.835294" d="M 1712.99 581.627 C 1734.03 613.648 1740.52 662.869 1732.43 699.997 C 1726.62 726.658 1715.49 756.075 1687.6 766.061 C 1671.65 797.906 1643.73 822.129 1609.95 833.419 C 1581.56 843.08 1544.2 843.307 1516.67 830.264 C 1513.68 828.847 1507.87 825.433 1506.36 822.392 C 1511 824.76 1517.26 829.304 1521.55 830.889 C 1581.98 853.209 1652.8 826.895 1683.43 770.165 C 1684.13 768.874 1684.27 768.462 1684.56 767.032 L 1682.12 765.866 L 1685.54 764.421 C 1688.25 761.455 1688.69 757.789 1689.71 753.765 L 1690.9 755.925 C 1690.28 758.22 1689.86 760.217 1689.38 762.547 L 1690.71 763.2 C 1710.67 756.185 1722.82 729.031 1728.04 710.101 C 1740.1 666.332 1733.83 622.414 1711.59 583.052 L 1712.99 581.627 z"/>
<path transform="translate(0,0)" fill="rgb(0,0,0)" fill-opacity="0.854902" d="M 170.534 931.247 C 173.163 930.854 175.056 931.048 177.614 931.576 C 216.085 939.516 255.122 947.632 293.52 955.605 C 303.551 957.688 347.48 966.095 353.108 968.728 C 348.175 969.34 176.01 933.876 170.534 931.247 z"/>
<path transform="translate(0,0)" fill="rgb(0,0,0)" fill-opacity="0.823529" d="M 196.765 901.175 C 202.184 900.27 331.774 927.209 336.025 929.776 C 329.331 930.195 208.407 905.105 196.765 901.175 z"/>
<path transform="translate(0,0)" fill="rgb(0,0,0)" fill-opacity="0.831373" d="M 657.554 189.079 C 678.332 184.781 676.43 196.314 694.284 198.143 C 704.152 199.154 711.514 189.074 722.252 187.843 C 735.161 186.363 739.911 197.372 749.582 198.359 C 758.152 199.234 773.535 188.523 781.959 187.995 L 782.695 188.855 C 780.989 189.874 780.311 189.92 778.319 190.134 C 769.161 191.118 765.204 199.545 755.75 200.256 C 742.943 201.221 735.999 190.377 723.307 189.93 C 711.409 189.511 704.746 201.396 693.955 200.17 C 675.616 198.086 680.058 188.381 659.122 190.231 L 657.554 189.079 z"/>
<path transform="translate(0,0)" fill="rgb(0,0,0)" fill-opacity="0.756863" d="M 676.338 153.199 C 700.676 170.228 700.355 154.426 723.493 150.898 C 735.404 149.082 743.895 163.493 756.139 161.05 C 767.935 158.767 767.204 151.526 782 150.66 L 782.928 151.384 C 785.276 149.417 756.225 162.956 758.494 162.286 C 756.045 163.011 753.479 163.254 750.937 163.001 C 741.963 162.039 732.22 152.355 725.182 152.658 C 700.712 153.711 702.958 175.129 674.824 154.21 L 676.338 153.199 z"/>
<path transform="translate(0,0)" fill="rgb(254,112,56)" d="M 1817.17 627.541 C 1819.38 633.078 1821.2 635.381 1824.16 640.447 C 1824.4 643.303 1819.09 651.558 1817.18 655.57 C 1814.88 647.737 1809.99 644.797 1810.11 640.203 C 1813.87 634.973 1814.59 633.483 1817.17 627.541 z"/>
<path transform="translate(0,0)" fill="rgb(21,180,113)" d="M 1284.79 1190.99 C 1286.12 1192.57 1287.67 1198.51 1291.01 1201.14 C 1295.05 1204.33 1287.49 1210.72 1285.69 1217.28 L 1285.39 1218.43 L 1284.3 1218.66 C 1282.82 1209.33 1281.69 1212.19 1277.68 1205.38 C 1277.85 1201.55 1283.01 1197.19 1284.79 1190.99 z"/>
<path transform="translate(0,0)" fill="rgb(21,180,113)" d="M 271.204 294.669 C 272.65 299.953 274.86 304.523 278.502 308.658 C 275.069 313.941 273.533 316.221 271.359 322.117 L 270.911 323.354 C 269.272 316.655 267.671 314.711 263.73 309.29 C 263.721 308.293 269.181 299.925 270.766 295.821 L 271.204 294.669 z"/>
<path transform="translate(0,0)" fill="rgb(0,0,0)" fill-opacity="0.807843" d="M 223.29 870.226 C 231.384 870.675 314.16 887.769 317.953 890.699 C 309.243 890.014 227.526 873.244 223.29 870.226 z"/>
<path transform="translate(0,0)" fill="rgb(0,0,0)" fill-opacity="0.839216" d="M 1648.86 748.742 C 1647.38 742.652 1647.49 736.935 1650.21 731.182 C 1652.52 726.381 1656.64 722.693 1661.67 720.929 C 1676.08 715.909 1686.73 726.785 1690.93 739.405 L 1689.77 741.087 C 1678.86 711.161 1647.66 716.962 1650.24 746.887 L 1648.86 748.742 z"/>
<path transform="translate(0,0)" fill="rgb(0,0,0)" fill-opacity="0.760784" d="M 659.122 190.231 C 649.821 195.11 641.745 203.001 630.191 199.359 C 621.177 196.518 618.479 190.993 608.568 189.832 L 607.358 189.697 L 606.795 188.459 C 615.266 186.583 622.107 194.596 631 197.276 C 643.435 201.024 647 194.339 657.554 189.079 L 659.122 190.231 z"/>
<path transform="translate(0,0)" fill="rgb(0,0,0)" fill-opacity="0.807843" d="M 249.324 840.184 C 255.269 840.016 297.119 848.063 300.968 851.69 C 292.739 850.784 254.885 843.279 249.324 840.184 z"/>
<path transform="translate(0,0)" fill="rgb(0,0,0)" fill-opacity="0.552941" d="M 1740.16 177.232 C 1743.96 173.936 1771.56 154.397 1774.68 154.571 C 1773.52 157.916 1745.81 175.521 1740.93 178.779 L 1740.16 177.232 z"/>
<path transform="translate(0,0)" fill="rgb(0,0,0)" fill-opacity="0.929412" d="M 1699.29 135.548 C 1701.19 139.992 1690.88 163.338 1687.79 167.347 L 1687.31 167.127 C 1686.96 164.564 1697.63 139.289 1699.29 135.548 z"/>
<path transform="translate(0,0)" fill="rgb(0,0,0)" fill-opacity="0.870588" d="M 645.25 161.479 C 633.462 164.34 617.11 157.281 606.739 151.436 L 607.156 150.241 C 620.889 150.249 624.861 164.748 643.726 160.006 L 644.811 159.728 L 645.25 161.479 z"/>
<path transform="translate(0,0)" fill="rgb(0,0,0)" fill-opacity="0.729412" d="M 1740.93 178.779 C 1734.02 183.484 1722.76 191.46 1715.47 194.553 C 1723.39 188.769 1731.82 182.167 1740.16 177.232 L 1740.93 178.779 z"/>
<path transform="translate(0,0)" fill="rgb(0,0,0)" fill-opacity="0.929412" d="M 1737.08 235.649 C 1740.59 234.551 1762.03 236.691 1766.3 238.601 C 1762.13 239.276 1739.81 237.92 1737.08 235.649 z"/>
<path transform="translate(0,0)" fill="rgb(0,0,0)" fill-opacity="0.698039" d="M 1650.24 746.887 C 1653.43 754.519 1655.3 756.549 1661.81 761.703 L 1660.84 763.122 C 1654.56 758.433 1651.82 756.053 1648.86 748.742 L 1650.24 746.887 z"/>
<path transform="translate(0,0)" fill="rgb(0,0,0)" fill-opacity="0.921569" d="M 1661.81 761.703 C 1670.23 765.7 1672.72 765.936 1682.12 765.866 L 1684.56 767.032 L 1681.07 767.207 C 1672.08 767.682 1669.16 766.903 1660.84 763.122 L 1661.81 761.703 z"/>
<path transform="translate(0,0)" fill="rgb(0,0,0)" fill-opacity="0.862745" d="M 656.246 152.384 C 663.343 150.233 669.369 150.018 676.338 153.199 L 674.824 154.21 C 667.388 151.889 664.014 151.933 656.659 153.996 L 656.246 152.384 z"/>
<path transform="translate(0,0)" fill="rgb(0,0,0)" fill-opacity="0.568627" d="M 644.811 159.728 C 649.13 156.607 651.598 154.964 656.246 152.384 L 656.659 153.996 C 653.147 156.326 648.798 159.39 645.25 161.479 L 644.811 159.728 z"/>
<path transform="translate(0,0)" fill="rgb(0,0,0)" fill-opacity="0.921569" d="M 1690.93 739.405 C 1691.88 746.398 1692.04 748.908 1690.9 755.925 L 1689.71 753.765 C 1690.11 749.657 1689.87 745.242 1689.77 741.087 L 1690.93 739.405 z"/>
</svg>