<svg version="1.1" xmlns="http://www.w3.org/2000/svg" style="display: block;" viewBox="0 0 2048 1707" width="2000" height="1667" preserveAspectRatio="none">
<defs>
	<linearGradient id="Gradient1" gradientUnits="userSpaceOnUse" x1="1448.85" y1="352.087" x2="1550.07" y2="335.962">
		<stop class="stop0" offset="0" stop-opacity="1" stop-color="rgb(252,241,235)"/>
		<stop class="stop1" offset="1" stop-opacity="1" stop-color="rgb(237,244,245)"/>
	</linearGradient>
</defs>
<path transform="translate(0,0)" fill="rgb(57,41,35)" d="M 1477.73 234.568 C 1483.13 232.134 1491.54 223.999 1497.17 220.417 C 1531.46 198.607 1584.28 191.75 1623.11 205.559 C 1643.21 209.501 1660.87 220.029 1678.63 229.728 C 1707.52 245.506 1737.86 258.328 1767.53 272.498 C 1773.91 275.545 1783.37 279.645 1788.99 283.361 C 1812.72 294.589 1842.71 316.415 1851.93 341.887 C 1858.32 359.538 1856.09 383.819 1847.46 400.432 C 1847.52 400.688 1847.58 400.945 1847.64 401.2 C 1849 406.631 1880.33 454.199 1886.5 464.654 C 1895.05 479.15 1902.77 493.776 1910.35 508.795 C 1977.87 642.482 2000.63 716.336 1949.82 861.634 C 1943.43 879.918 1935.9 898.239 1927.85 915.862 C 1923.65 925.059 1917.09 934.345 1914.38 943.975 C 1909.58 959.918 1908.76 971.271 1906.82 987.469 C 1906.64 988.993 1905.96 989.742 1904.97 990.765 C 1901.68 992.36 1901.78 992.39 1898.19 992.879 C 1883.6 1012.02 1865.33 1122.63 1870.61 1151.02 C 1871.79 1157.31 1874.29 1172.32 1873.89 1178.85 C 1875 1182.75 1885.13 1198.09 1888.25 1201.8 C 1899.42 1215.04 1934.33 1289.3 1914.51 1296.97 C 1910.46 1296.27 1912.14 1297.14 1909.25 1294.37 C 1907.36 1288.83 1908.49 1282.32 1907.88 1276.91 C 1906.61 1265.57 1897.88 1240.48 1891.24 1231.84 C 1890.32 1246.17 1901.63 1294.63 1904.46 1313.44 C 1914.1 1377.55 1905.58 1429.4 1892.81 1492.21 C 1890.82 1501.99 1888.09 1522.47 1884.43 1530.2 C 1903.81 1552.91 1905.49 1557.06 1887.53 1582.07 C 1888.16 1587.44 1889.88 1594.77 1888.55 1599.33 C 1885.91 1601.99 1885.5 1602.03 1881.05 1602.06 L 1879.5 1602.06 C 1878.44 1604.19 1876.54 1607.74 1875.74 1609.83 C 1893.88 1610.8 1933.17 1608.79 1947.63 1610.91 L 1948.45 1611.86 C 1942.48 1615.69 1899.92 1613.94 1889.68 1613.94 L 1773.98 1613.95 L 1417.82 1613.99 L 316.782 1613.95 C 287.214 1614.19 257.441 1615.08 228.149 1611.79 C 223.661 1611.28 217.449 1611.61 212.868 1611.78 C 213.32 1601.12 213.434 1594.92 216.811 1584.84 L 217.645 1583.13 C 215.102 1572.38 209.972 1561.03 205.769 1550.74 C 165.304 1451.69 132.689 1348.05 114.286 1242.55 C 112.482 1232.21 109.218 1215.3 111.707 1205.32 C 98.8234 1191.37 72.1135 1176.97 62.128 1159.58 C 47.531 1134.16 58.7052 1113.4 38.4605 1087.8 C 49.5982 1080.07 69.0091 1073.2 82.1268 1069.06 C 86.1697 1067.78 95.2412 1065.86 98.347 1064.07 C 100.474 1053.79 101.358 1037.02 102.192 1026.37 C 103.47 1010.6 105.203 994.863 107.391 979.191 C 125.844 853.29 187.716 753.064 287.672 675.378 C 325.607 645.895 386.22 611.498 435.169 609.748 C 434.278 551.226 451.005 506.714 489.277 462.813 C 515.198 436.694 538.032 423.595 570.191 405.96 C 576.663 402.411 590.383 394.623 597.129 392.566 C 603.987 385.569 597.111 383.349 599.313 375.636 C 602.457 373.48 601.524 374.154 605.89 373.887 C 607.658 376.271 607.745 382.431 608.46 386.45 L 608.74 388.459 C 606.99 394.537 610.774 436.331 611.003 446.326 C 612.146 467.496 612.881 494.91 615.036 515.65 C 648.005 496.948 682.194 480.485 717.373 466.373 C 719.952 460.215 721.712 453.131 727.394 450.394 C 730.508 451.936 729.151 450.853 731.178 454.215 C 730.289 456.932 728.997 459.043 729.683 461.219 L 732.234 463.315 C 724.958 466.279 725.762 467.793 722.175 475.223 C 721.21 477.223 718.441 484.835 717.948 486.911 C 703.163 518.511 690.506 552.124 676.595 584.184 C 675.761 586.107 674.026 587.399 672.199 588.212 C 668.432 587.806 669.927 588.559 667.332 586.432 C 667.031 582.124 710.601 482.283 715.813 469.814 C 691.38 479.369 636.9 504.088 615.056 518.61 C 615.691 529.801 619.746 573.479 618.176 582.335 C 615.623 583.995 614.435 583.69 611.386 583.677 L 610.38 582.948 C 609.145 563.678 607.734 542.331 607.039 523.079 C 574.346 542.238 558.85 558.905 555.302 598.261 C 559.836 604.546 562.919 611.615 571.207 611.221 C 594.647 616.858 618.516 618.58 641.335 621.075 C 749.69 632.92 815.157 600.356 898.255 535.34 C 921.965 516.79 955.78 494.573 981.092 476.041 C 1002.24 460.553 1047.92 427.858 1072.27 419.677 C 1081.19 416.837 1106.97 424.513 1115.83 429.107 C 1135.63 439.147 1150.51 456.797 1157.06 478.012 C 1166.57 508.527 1151.75 571.541 1148.65 605.905 L 1150.69 605.59 C 1151.14 606.238 1151.59 606.887 1152.04 607.535 C 1170.79 611.128 1250.64 633.291 1264.03 626.184 L 1265.01 624.511 L 1266.68 625.476 L 1274.96 562.2 C 1278.54 534.647 1282.75 509.934 1279.56 482.152 C 1272.49 420.72 1245.92 378.052 1199.3 339.88 C 1214.36 329.232 1233.77 320.496 1250.57 312.192 C 1318.61 278.568 1402.37 245.288 1477.73 234.568 z"/>
<path transform="translate(0,0)" fill="rgb(170,206,212)" d="M 1143.15 664.363 C 1149.34 662.691 1173.42 662.958 1180.58 663.027 C 1183.53 665.599 1251.32 690.803 1255.77 690.359 L 1249.12 743.258 L 1250.37 744.307 C 1256.22 749.143 1271.37 758.561 1278.39 763.468 C 1293.01 773.75 1306.94 784.96 1320.12 797.028 C 1408.89 877.311 1464.84 987.584 1477.2 1106.63 C 1490.38 1231.49 1454.58 1358.13 1376.4 1457.25 C 1343.56 1498.9 1298.57 1516.74 1247.86 1524.76 C 1247.64 1524.78 1247.42 1524.8 1247.2 1524.82 C 1241.21 1524.16 1217.25 1527.95 1209.52 1528.98 C 1190.91 1531.47 1172.27 1533.78 1153.61 1535.9 C 1055.65 1547.04 900.807 1560.08 806.29 1533.8 C 695.626 1503.02 598.544 1400.3 544.539 1301.86 C 577.174 1270.79 611.175 1240.47 644.017 1209.51 C 644.412 1186.51 642.099 1170.29 634.77 1148.43 C 644.59 1127.91 653.858 1107.14 662.563 1086.13 C 665.306 1079.43 676.045 1049.65 679.649 1046.84 L 685.245 1071.43 C 699.135 1065.71 713.144 1060.27 727.262 1055.13 L 758.21 1153.01 C 763.887 1171.19 772.432 1196.56 776.318 1214.75 C 759.349 1240.7 758.437 1249.89 757.777 1279.41 L 773.099 1279.06 C 773.351 1273.46 773.427 1262.29 774.992 1257.42 C 777.582 1260.1 789.795 1277.31 790.619 1280.46 C 802.716 1326.73 810.634 1374.83 822.495 1421.07 C 837.261 1420.47 852.127 1419.32 866.749 1418.75 C 860.102 1389.33 853.489 1356.96 846.227 1327.85 C 832.721 1260.91 815.701 1191.83 801.131 1124.72 C 795.224 1095.89 787.8 1065.32 781.174 1036.55 C 801.295 1029.95 821.562 1023.8 841.958 1018.11 L 823.443 935.506 C 800.677 942.97 778.099 950.998 755.731 959.583 C 748.561 941.357 743.742 910.466 741.744 890.98 C 731.65 886.051 721.687 880.858 711.866 875.407 L 710.885 866.284 C 697.055 859.346 683.168 852.214 669.958 844.162 C 670.209 839.958 669.466 839.181 671.63 836.771 C 682.068 834.434 694.109 848.829 701.707 824.88 C 708.16 804.539 709.534 783.16 710.933 762.01 C 721.209 754.555 731.808 747.554 742.699 741.029 C 837.857 683.593 949.824 660.505 1059.94 675.612 C 1090.98 679.929 1110.14 685.773 1139.67 693.163 C 1140.38 684.289 1142.02 673.341 1143.15 664.363 z"/>
<path transform="translate(0,0)" fill="rgb(142,171,176)" d="M 1143.15 664.363 C 1149.34 662.691 1173.42 662.958 1180.58 663.027 C 1183.53 665.599 1251.32 690.803 1255.77 690.359 L 1249.12 743.258 C 1236.49 731.271 1155.85 693.402 1139.67 693.163 C 1140.38 684.289 1142.02 673.341 1143.15 664.363 z"/>
<path transform="translate(0,0)" fill="rgb(142,171,176)" d="M 801.131 1124.72 C 805.773 1131.06 827.83 1222.28 831.256 1235.37 L 839.833 1240.38 C 841.546 1285.94 841.992 1280.47 869.875 1318.88 C 864.962 1320.48 849.226 1325.16 846.227 1327.85 C 832.721 1260.91 815.701 1191.83 801.131 1124.72 z"/>
<path transform="translate(0,0)" fill="rgb(43,41,39)" d="M 1167.04 880.226 C 1183.13 880.375 1199.22 880.781 1215.3 881.444 C 1212.28 951.598 1204.53 1023.7 1201.78 1094.89 C 1238.22 1160.58 1275.16 1225.99 1312.61 1291.11 C 1300.2 1298.52 1281.35 1307.46 1268.22 1313.77 L 1193.99 1179.96 L 1185.01 1348.55 C 1152.5 1360.93 1118.47 1371.04 1084.99 1380.49 C 1071.02 1345.89 1055.8 1310.49 1041.22 1276.08 C 1012.2 1282.91 983.093 1289.3 953.891 1295.26 C 955.352 1331.46 957.518 1371.27 960.192 1407.38 L 910.944 1414.35 C 910.135 1379.39 907.81 1342.37 906.238 1307.21 L 897.001 1102.25 L 888.881 916.82 L 938.509 905.203 L 1068.09 1209.35 L 1109.95 1307.96 C 1116.51 1323.39 1125.61 1346.73 1132.98 1361.25 C 1135.85 1331.6 1137.13 1297.13 1139.02 1267.05 L 1149.31 1102.01 L 1033.41 889.303 C 1051.24 887.01 1069.13 885.152 1087.05 883.733 C 1110.84 929.145 1135.03 976.962 1159.71 1021.72 C 1161.05 974.87 1165.53 927.11 1167.04 880.226 z"/>
<path transform="translate(0,0)" fill="rgb(249,242,234)" d="M 936.299 908.327 C 938.604 909.738 1114.55 1324.29 1131.26 1364.38 C 1116.84 1369.18 1101.08 1373.44 1086.4 1377.69 L 1043.57 1275.24 L 1043.01 1274.37 C 1042.36 1274.11 1041.7 1273.86 1041.04 1273.6 C 1014.99 1280.23 975.865 1288.26 951.27 1293.31 C 954.424 1329.57 955.085 1368.74 957.605 1405.47 C 943.06 1407.06 928.145 1409.73 913.123 1411.38 C 911.391 1347.71 907.418 1281.02 904.552 1217.19 L 891.171 918.768 C 906.168 915.095 921.212 911.614 936.299 908.327 z"/>
<path transform="translate(0,0)" fill="rgb(43,41,39)" d="M 937.132 1020.04 C 942.719 1029.83 956.927 1066.67 961.829 1078.59 L 1011.08 1197.66 L 1000.78 1199.91 C 982.919 1204.06 965.017 1208.02 947.073 1211.78 C 945.353 1148.91 938.465 1082.87 937.132 1020.04 z"/>
<path transform="translate(0,0)" fill="rgb(170,206,212)" d="M 940.166 1033.85 C 943.567 1039.26 957.807 1075.12 960.983 1082.81 L 1007.71 1196.02 L 995.45 1198.81 C 980.056 1202.24 964.643 1205.59 949.213 1208.86 C 947.016 1150.72 942.232 1091.98 940.166 1033.85 z"/>
<path transform="translate(0,0)" fill="rgb(249,242,234)" d="M 1169.21 882.916 C 1183.85 882.613 1198.5 882.955 1213.11 883.942 C 1211.03 901.75 1210.36 921.61 1208.89 939.602 C 1204.67 991.054 1203.26 1043.73 1199 1095.01 C 1236.33 1159.38 1271.72 1225.39 1309.42 1290.13 C 1296.22 1297.34 1282.8 1304.14 1269.17 1310.51 C 1243.24 1264.29 1217.58 1217.93 1192.18 1171.42 C 1190.27 1190.83 1189.66 1215.48 1188.63 1235.25 L 1182.9 1346.91 L 1162.78 1354.07 C 1154.02 1357.21 1144.35 1360.15 1135.44 1363.03 C 1140.94 1276.95 1145 1187.55 1151.98 1101.85 L 1037.29 891.334 C 1052.94 888.973 1069.56 887.725 1085.41 886.015 C 1092.73 898.182 1102.91 919.189 1109.78 932.289 L 1161.6 1030.68 C 1163.32 981.574 1167.69 931.823 1169.21 882.916 z"/>
<path transform="translate(0,0)" fill="rgb(249,242,234)" d="M 1477.73 234.568 C 1483.13 232.134 1491.54 223.999 1497.17 220.417 C 1531.46 198.607 1584.28 191.75 1623.11 205.559 C 1643.21 209.501 1660.87 220.029 1678.63 229.728 C 1707.52 245.506 1737.86 258.328 1767.53 272.498 C 1773.91 275.545 1783.37 279.645 1788.99 283.361 C 1812.72 294.589 1842.71 316.415 1851.93 341.887 C 1858.32 359.538 1856.09 383.819 1847.46 400.432 C 1847.52 400.688 1847.58 400.945 1847.64 401.2 C 1849 406.631 1880.33 454.199 1886.5 464.654 C 1895.05 479.15 1902.77 493.776 1910.35 508.795 C 1977.87 642.482 2000.63 716.336 1949.82 861.634 C 1943.43 879.918 1935.9 898.239 1927.85 915.862 C 1923.65 925.059 1917.09 934.345 1914.38 943.975 C 1909.58 959.918 1908.76 971.271 1906.82 987.469 C 1906.64 988.993 1905.96 989.742 1904.97 990.765 C 1901.68 992.36 1901.78 992.39 1898.19 992.879 C 1883.6 1012.02 1865.33 1122.63 1870.61 1151.02 C 1871.79 1157.31 1874.29 1172.32 1873.89 1178.85 C 1869.53 1177.26 1840.84 1139.59 1841.74 1133.22 L 1840.33 1131.95 L 1839.06 1131.58 C 1827.59 1117.36 1816.22 1075.8 1811.82 1057.74 C 1803.8 1021.33 1797.35 980.603 1775.45 949.559 C 1771.97 944.622 1768.47 940.371 1765.48 935.02 L 1764.93 934.011 L 1763.66 934.881 C 1754.34 926.272 1746.28 921.649 1738.02 914.265 L 1736.17 912.864 C 1733.5 915.869 1728.76 919.801 1727.09 922.363 C 1726.76 925.516 1727.5 924.415 1725.59 926.203 C 1718.98 925.382 1708.04 918.222 1702.5 914.316 C 1699.74 912.366 1700.08 908.398 1699.64 904.628 L 1699.99 901.924 C 1702.13 899.063 1705.78 898.487 1709.41 897.315 C 1702.75 893.898 1700.03 892.819 1694.24 888.1 L 1691.03 888.713 C 1687.04 887.253 1646.41 866.041 1642.9 863.3 L 1644.41 860.644 C 1627.55 856.683 1596.23 840.277 1580.38 832.374 C 1551.91 818.034 1523.33 803.895 1494.66 789.957 C 1497.13 795.543 1499.76 801.055 1502.54 806.487 L 1488.69 812.398 C 1473.79 806.259 1463.05 803.187 1458.42 785.532 C 1452.33 781.255 1432.5 772.143 1424.49 768.243 L 1356.7 735.336 L 1290.51 703.329 C 1284.16 700.27 1264.08 690.125 1258.41 688.604 L 1256.25 688.501 L 1255.77 690.359 C 1251.32 690.803 1183.53 665.599 1180.58 663.027 C 1173.42 662.958 1149.34 662.691 1143.15 664.363 L 1140.91 664.027 C 1137.73 663.263 1137.9 663.273 1135.44 661.041 C 1133.33 654.378 1137.31 653.295 1142.76 651.836 L 1144.67 652.271 C 1145.51 646.462 1146.01 643.289 1145.97 637.398 L 1144.35 636.557 C 1142.44 632.868 1139.49 632.59 1140.22 626.826 L 1142.47 624.816 C 1150.45 617.738 1141.87 619.128 1139.54 612.298 C 1140.55 608.932 1140.22 609.983 1143.09 607.258 C 1145.35 606.997 1146.56 606.899 1148.65 605.905 L 1150.69 605.59 C 1151.14 606.238 1151.59 606.887 1152.04 607.535 C 1170.79 611.128 1250.64 633.291 1264.03 626.184 L 1265.01 624.511 L 1266.68 625.476 L 1274.96 562.2 C 1278.54 534.647 1282.75 509.934 1279.56 482.152 C 1272.49 420.72 1245.92 378.052 1199.3 339.88 C 1214.36 329.232 1233.77 320.496 1250.57 312.192 C 1318.61 278.568 1402.37 245.288 1477.73 234.568 z"/>
<path transform="translate(0,0)" fill="rgb(43,41,39)" d="M 1477.73 234.568 C 1483.13 232.134 1491.54 223.999 1497.17 220.417 C 1531.46 198.607 1584.28 191.75 1623.11 205.559 C 1643.21 209.501 1660.87 220.029 1678.63 229.728 C 1707.52 245.506 1737.86 258.328 1767.53 272.498 C 1773.91 275.545 1783.37 279.645 1788.99 283.361 C 1812.72 294.589 1842.71 316.415 1851.93 341.887 C 1858.32 359.538 1856.09 383.819 1847.46 400.432 L 1846.62 401.588 C 1842.15 407.812 1837.74 417.325 1833.03 423.247 C 1813.02 448.446 1770.64 472.894 1738.77 478.63 C 1736.82 478.983 1734.84 479.199 1732.86 479.276 C 1698.9 486.197 1676.66 488.779 1641.32 487.743 C 1593.91 486.353 1545.66 486.469 1504.36 458.749 C 1469.67 435.461 1452.98 397.504 1445.81 357.609 C 1440.21 323.407 1435.47 289.612 1457.16 259.556 C 1462.87 251.643 1473.1 241.73 1477.73 234.568 z"/>
<path transform="translate(0,0)" fill="rgb(170,206,212)" d="M 1773.65 279.615 C 1780.95 278.756 1781.52 283.096 1788.99 283.361 C 1812.72 294.589 1842.71 316.415 1851.93 341.887 C 1858.32 359.538 1856.09 383.819 1847.46 400.432 L 1846.62 401.588 C 1842.15 407.812 1837.74 417.325 1833.03 423.247 C 1813.02 448.446 1770.64 472.894 1738.77 478.63 C 1736.82 478.983 1734.84 479.199 1732.86 479.276 C 1740.46 476.665 1747.7 474.114 1755.46 471.188 C 1805.36 452.364 1857.05 403.106 1842.88 344.977 C 1835.42 314.409 1799.64 294.49 1773.65 279.615 z"/>
<path transform="translate(0,0)" fill="rgb(211,211,211)" d="M 1773.65 279.615 C 1770.46 278.66 1746.91 267.042 1741.91 264.647 C 1722.64 255.418 1701.18 246.14 1682.33 236.263 C 1660.36 224.755 1646.07 216.093 1623.02 206.801 L 1623.11 205.559 C 1643.21 209.501 1660.87 220.029 1678.63 229.728 C 1707.52 245.506 1737.86 258.328 1767.53 272.498 C 1773.91 275.545 1783.37 279.645 1788.99 283.361 C 1781.52 283.096 1780.95 278.756 1773.65 279.615 z"/>
<path transform="translate(0,0)" fill="rgb(170,206,212)" d="M 1532.8 207.485 C 1563.92 196.193 1609.73 201.263 1638.45 216.33 C 1655.94 225.503 1675.03 235.282 1693.18 244.861 C 1737.33 268.168 1819.88 293.22 1839 342.244 C 1846.14 360.549 1841.56 385.062 1833.25 401.882 C 1815.69 437.425 1780.05 460.204 1743.6 472.605 C 1727.94 477.927 1711.76 481.531 1695.33 483.353 C 1665.73 486.733 1565.85 486.271 1541.85 473.297 C 1534.48 471.184 1527.32 468.393 1520.46 464.959 C 1488.07 448.765 1467.26 421.297 1456.04 386.92 C 1448.43 361.052 1440.73 323.64 1444.68 296.97 C 1451.13 253.43 1494.21 219.958 1532.8 207.485 z"/>
<path transform="translate(0,0)" fill="url(#Gradient1)" d="M 1541.85 473.297 C 1534.48 471.184 1527.32 468.393 1520.46 464.959 C 1488.07 448.765 1467.26 421.297 1456.04 386.92 C 1448.43 361.052 1440.73 323.64 1444.68 296.97 C 1451.13 253.43 1494.21 219.958 1532.8 207.485 C 1529.83 212.091 1513.32 219.379 1507.9 222.762 C 1462.75 252.295 1447.46 289.011 1455.7 341.403 C 1462.4 384.036 1472.38 421.102 1506.92 450.927 C 1511.94 455.261 1541.53 471.917 1541.85 473.297 z"/>
<path transform="translate(0,0)" fill="rgb(57,41,35)" d="M 1490.1 299.951 L 1729.04 299.913 L 1729.01 312.019 L 1490.22 312.154 L 1490.1 299.951 z"/>
<path transform="translate(0,0)" fill="rgb(249,242,234)" d="M 1492.17 302.951 C 1556.15 302.303 1657.48 303.151 1724.68 303.092 C 1725.23 303.519 1725.78 303.946 1726.34 304.373 L 1726.97 309.632 C 1708.79 310.346 1688.3 309.855 1669.92 309.848 L 1567.93 309.805 L 1517.82 309.798 C 1512.42 309.8 1499.78 310.37 1495.41 309.738 C 1492.19 307.241 1493.22 308.104 1492.17 302.951 z"/>
<path transform="translate(0,0)" fill="rgb(249,242,234)" d="M 1530.09 388.696 L 1749.79 388.632 C 1749.87 392.789 1749.54 397.002 1749.31 401.161 C 1729.16 400.063 1705.41 401.081 1684.93 400.828 C 1634.19 400.2 1582.3 401.776 1531.65 400.662 L 1530.98 400.464 C 1529.35 398.066 1530.02 391.975 1530.09 388.696 z"/>
<path transform="translate(0,0)" fill="rgb(43,41,39)" d="M 1530.09 388.696 L 1749.79 388.632 C 1749.87 392.789 1749.54 397.002 1749.31 401.161 L 1745.57 399.521 L 1747.15 397.554 C 1747.06 393.45 1747.78 393.761 1745.69 391.498 C 1727.29 390.701 1538.91 390.024 1533.47 392.033 C 1532.5 395.136 1532.5 395.428 1532.21 398.702 L 1536.3 399.601 L 1531.65 400.662 L 1530.98 400.464 C 1529.35 398.066 1530.02 391.975 1530.09 388.696 z"/>
<path transform="translate(0,0)" fill="rgb(77,81,78)" d="M 1747.15 397.554 L 1745.57 399.521 L 1749.31 401.161 C 1729.16 400.063 1705.41 401.081 1684.93 400.828 C 1634.19 400.2 1582.3 401.776 1531.65 400.662 L 1536.3 399.601 L 1532.21 398.702 C 1538.43 397.568 1570.31 398.018 1578.9 398.022 L 1692.52 398.032 C 1704.49 398.035 1737.01 398.955 1747.15 397.554 z"/>
<path transform="translate(0,0)" fill="rgb(43,41,39)" d="M 1607.09 330.251 L 1759.45 330.225 L 1759.37 342.886 L 1606.99 342.952 L 1607.09 330.251 z"/>
<path transform="translate(0,0)" fill="rgb(249,242,234)" d="M 1610.01 333.374 L 1702.15 333.237 C 1717.82 333.196 1740.09 332.511 1755.29 333.613 C 1757.4 336.038 1756.69 336.067 1756.99 340.133 L 1662.52 340.273 C 1648.53 340.293 1624.55 341.037 1611.2 339.819 C 1609.42 337.673 1610.08 336.954 1610.01 333.374 z"/>
<path transform="translate(0,0)" fill="rgb(43,41,39)" d="M 1628.1 358.128 L 1773.28 358.086 L 1773 370.511 C 1729.67 370.113 1670.65 368.938 1628.1 370.895 L 1628.1 358.128 z"/>
<path transform="translate(0,0)" fill="rgb(249,242,234)" d="M 1630.91 361.193 L 1717.34 361.119 C 1733.29 361.078 1753.72 360.489 1769.27 361.393 C 1771.35 363.53 1770.63 364.092 1770.87 368.075 L 1680.54 368.147 C 1667.97 368.171 1644.25 368.888 1632.41 367.731 C 1630.36 365.09 1631.06 365.349 1630.91 361.193 z"/>
<path transform="translate(0,0)" fill="rgb(43,41,39)" d="M 1497.22 358.108 L 1614.72 358.096 C 1614.65 362.283 1614.55 366.469 1614.43 370.655 C 1579.5 370.022 1531.53 369.2 1497.19 370.898 L 1497.22 358.108 z"/>
<path transform="translate(0,0)" fill="rgb(249,242,234)" d="M 1500 361.202 L 1571.09 361.073 C 1582.44 361.048 1599.64 360.529 1610.55 361.466 C 1612.41 364.05 1611.77 364.192 1611.95 368.061 L 1542.56 368.162 C 1530.13 368.197 1513.8 368.679 1501.69 367.792 C 1499.43 365.733 1500.22 365.502 1500 361.202 z"/>
<path transform="translate(0,0)" fill="rgb(43,41,39)" d="M 1489.5 330.236 C 1523.32 330.802 1559.01 330.288 1592.96 330.277 L 1592.97 342.872 L 1489.5 342.921 L 1489.5 330.236 z"/>
<path transform="translate(0,0)" fill="rgb(249,242,234)" d="M 1492.08 333.296 C 1518.2 333.349 1563.65 331.757 1588.25 333.556 C 1590.67 335.803 1589.87 335.754 1590.29 340.179 L 1528.33 340.265 C 1518.15 340.291 1502.69 340.828 1493.21 339.813 C 1491.57 337.669 1492.17 336.668 1492.08 333.296 z"/>
<path transform="translate(0,0)" fill="rgb(234,179,176)" d="M 1866.44 786.295 C 1859 823.04 1860.6 820.286 1890.71 823.359 C 1893.55 823.648 1905.15 826.981 1905.88 829.547 L 1906.44 831.207 C 1910.63 831.694 1911.81 831.284 1914.96 835.062 L 1916.58 833.803 C 1928.73 859.446 1920.33 894.251 1917.2 921.565 C 1916.58 926.95 1914.02 939.174 1914.38 943.975 C 1909.58 959.918 1908.76 971.271 1906.82 987.469 C 1906.64 988.993 1905.96 989.742 1904.97 990.765 C 1901.68 992.36 1901.78 992.39 1898.19 992.879 C 1883.6 1012.02 1865.33 1122.63 1870.61 1151.02 C 1871.79 1157.31 1874.29 1172.32 1873.89 1178.85 C 1869.53 1177.26 1840.84 1139.59 1841.74 1133.22 L 1840.33 1131.95 L 1839.06 1131.58 C 1827.59 1117.36 1816.22 1075.8 1811.82 1057.74 C 1803.8 1021.33 1797.35 980.603 1775.45 949.559 C 1771.97 944.622 1768.47 940.371 1765.48 935.02 L 1764.93 934.011 L 1763.66 934.881 C 1754.34 926.272 1746.28 921.649 1738.02 914.265 L 1736.17 912.864 C 1733.5 915.869 1728.76 919.801 1727.09 922.363 C 1726.76 925.516 1727.5 924.415 1725.59 926.203 C 1718.98 925.382 1708.04 918.222 1702.5 914.316 C 1699.74 912.366 1700.08 908.398 1699.64 904.628 L 1699.99 901.924 C 1702.13 899.063 1705.78 898.487 1709.41 897.315 C 1702.75 893.898 1700.03 892.819 1694.24 888.1 L 1691.03 888.713 C 1687.04 887.253 1646.41 866.041 1642.9 863.3 L 1644.41 860.644 C 1669.37 864.258 1694.62 865.314 1719.73 868.515 C 1738.1 870.856 1758.86 877.504 1776.89 874.522 C 1774.75 864.409 1776.09 854.757 1782.24 846.314 C 1793.53 845.541 1826.42 841.421 1824.41 825.26 L 1828.16 799.162 C 1845.72 802.617 1854.21 797.496 1866.44 786.295 z"/>
<path transform="translate(0,0)" fill="rgb(228,111,66)" d="M 1866.44 786.295 C 1859 823.04 1860.6 820.286 1890.71 823.359 C 1893.55 823.648 1905.15 826.981 1905.88 829.547 C 1874.03 840.304 1890.57 892.819 1884.7 917.313 C 1881.91 928.982 1871.66 946.065 1865.01 956.103 C 1840.34 942.033 1816.2 928.729 1789.98 917.692 C 1785.75 915.911 1780.65 913.725 1776.67 911.487 C 1776.53 908.923 1776.75 910.359 1777.73 908.335 C 1781.6 900.374 1778.83 883.877 1777.72 875.587 L 1776.89 874.522 C 1774.75 864.409 1776.09 854.757 1782.24 846.314 C 1793.53 845.541 1826.42 841.421 1824.41 825.26 L 1828.16 799.162 C 1845.72 802.617 1854.21 797.496 1866.44 786.295 z"/>
<path transform="translate(0,0)" fill="rgb(228,111,66)" d="M 1764.93 934.011 L 1766.32 929.54 L 1767.56 929.022 C 1797.06 942.562 1826.71 962.95 1855.19 976.503 C 1851.45 999.327 1854.95 1013.24 1863.42 1034.4 C 1867.61 1044.86 1864.71 1041.38 1859.3 1045.72 C 1848.38 1051.49 1824.65 1056.3 1811.82 1057.74 C 1803.8 1021.33 1797.35 980.603 1775.45 949.559 C 1771.97 944.622 1768.47 940.371 1765.48 935.02 L 1764.93 934.011 z"/>
<path transform="translate(0,0)" fill="rgb(249,242,234)" d="M 1857.4 977.739 C 1869.87 983.588 1884.78 990.683 1898.19 992.879 C 1883.6 1012.02 1865.33 1122.63 1870.61 1151.02 C 1871.79 1157.31 1874.29 1172.32 1873.89 1178.85 C 1869.53 1177.26 1840.84 1139.59 1841.74 1133.22 C 1861.99 1115.4 1867.82 1092.84 1865.64 1065.79 C 1865.27 1061.19 1861.65 1050.2 1862.95 1046.6 L 1867.72 1044.64 C 1870.18 1039.71 1857.04 1013.27 1856.34 1003.5 C 1855.56 992.398 1855.5 989.124 1857.4 977.739 z"/>
<path transform="translate(0,0)" fill="rgb(163,131,129)" d="M 1859.3 1045.72 C 1868.4 1081.01 1865.26 1105.07 1840.33 1131.95 L 1839.06 1131.58 C 1827.59 1117.36 1816.22 1075.8 1811.82 1057.74 C 1824.65 1056.3 1848.38 1051.49 1859.3 1045.72 z"/>
<path transform="translate(0,0)" fill="rgb(249,242,234)" d="M 1642.9 863.3 C 1666.69 864.441 1695.94 868.766 1720.07 870.938 C 1737.88 872.542 1757.99 880.345 1775.54 876.981 C 1779.97 919.384 1776.2 910.907 1744.83 899.509 C 1737.32 896.78 1697.64 885.141 1693.24 886.43 L 1691.03 888.713 C 1687.04 887.253 1646.41 866.041 1642.9 863.3 z"/>
<path transform="translate(0,0)" fill="rgb(57,41,35)" d="M 1905.88 829.547 L 1906.44 831.207 C 1899.53 834.591 1894.39 838.159 1891.86 845.816 C 1883.5 871.042 1889.12 939.277 1888.91 969.826 C 1865.87 960.288 1846.69 947.583 1824.93 936.813 C 1790.66 919.856 1754.33 903.133 1717.07 894.561 C 1710.42 893.032 1700.91 887.576 1694.24 888.1 L 1691.03 888.713 L 1693.24 886.43 C 1697.64 885.141 1737.32 896.78 1744.83 899.509 C 1776.2 910.907 1779.97 919.384 1775.54 876.981 C 1757.99 880.345 1737.88 872.542 1720.07 870.938 C 1695.94 868.766 1666.69 864.441 1642.9 863.3 L 1644.41 860.644 C 1669.37 864.258 1694.62 865.314 1719.73 868.515 C 1738.1 870.856 1758.86 877.504 1776.89 874.522 L 1777.72 875.587 C 1778.83 883.877 1781.6 900.374 1777.73 908.335 C 1776.75 910.359 1776.53 908.923 1776.67 911.487 C 1780.65 913.725 1785.75 915.911 1789.98 917.692 C 1816.2 928.729 1840.34 942.033 1865.01 956.103 C 1871.66 946.065 1881.91 928.982 1884.7 917.313 C 1890.57 892.819 1874.03 840.304 1905.88 829.547 z"/>
<path transform="translate(0,0)" fill="rgb(249,242,234)" d="M 1885.4 923.689 C 1886.87 929.375 1886.51 958.496 1886.48 966.164 L 1875.65 961.365 C 1871.99 959.428 1870.49 959.366 1868.43 956.196 C 1874.93 944.693 1879.86 935.643 1885.4 923.689 z"/>
<path transform="translate(0,0)" fill="rgb(57,41,35)" d="M 1914.96 835.062 L 1916.58 833.803 C 1928.73 859.446 1920.33 894.251 1917.2 921.565 C 1916.58 926.95 1914.02 939.174 1914.38 943.975 C 1909.58 959.918 1908.76 971.271 1906.82 987.469 C 1906.64 988.993 1905.96 989.742 1904.97 990.765 C 1901.68 992.36 1901.78 992.39 1898.19 992.879 C 1884.78 990.683 1869.87 983.588 1857.4 977.739 C 1855.5 989.124 1855.56 992.398 1856.34 1003.5 C 1857.04 1013.27 1870.18 1039.71 1867.72 1044.64 L 1862.95 1046.6 C 1861.65 1050.2 1865.27 1061.19 1865.64 1065.79 C 1867.82 1092.84 1861.99 1115.4 1841.74 1133.22 L 1840.33 1131.95 C 1865.26 1105.07 1868.4 1081.01 1859.3 1045.72 C 1864.71 1041.38 1867.61 1044.86 1863.42 1034.4 C 1854.95 1013.24 1851.45 999.327 1855.19 976.503 C 1826.71 962.95 1797.06 942.562 1767.56 929.022 L 1766.32 929.54 L 1764.93 934.011 L 1763.66 934.881 C 1754.34 926.272 1746.28 921.649 1738.02 914.265 L 1736.17 912.864 C 1747.55 905.887 1885.77 1003.25 1903.87 987.611 C 1910.25 947.048 1928.41 872.55 1914.96 835.062 z"/>
<path transform="translate(0,0)" fill="rgb(249,242,234)" d="M 1738.02 914.265 C 1743.82 915.09 1758.17 922.444 1762.2 927.155 C 1763.87 929.113 1763.48 932.018 1763.66 934.881 C 1754.34 926.272 1746.28 921.649 1738.02 914.265 z"/>
<path transform="translate(0,0)" fill="rgb(57,41,35)" d="M 1851.5 673.393 C 1858 653.531 1867.03 642.793 1889.7 651.073 C 1912.42 659.367 1933.12 687.863 1925.1 712.423 C 1921.29 723.946 1911.91 718.641 1904.52 714.257 C 1912.05 733.151 1919.05 752.974 1927.34 771.488 C 1936.88 792.779 1941.08 820.29 1916.58 833.803 L 1914.96 835.062 C 1911.81 831.284 1910.63 831.694 1906.44 831.207 L 1905.88 829.547 C 1905.15 826.981 1893.55 823.648 1890.71 823.359 C 1860.6 820.286 1859 823.04 1866.44 786.295 C 1854.21 797.496 1845.72 802.617 1828.16 799.162 C 1819.95 792.383 1818.22 785.996 1815.51 776.268 L 1813.24 771.893 C 1812.8 747.972 1815.05 737.611 1821.17 714.747 C 1820.06 695.385 1833.96 679.578 1851.5 673.393 z"/>
<path transform="translate(0,0)" fill="rgb(234,179,176)" d="M 1823.66 715.818 C 1836.48 701.613 1849.6 695.711 1864.91 711.006 C 1875.71 721.795 1875.58 736.326 1886.69 746.401 C 1880.68 764.949 1877.77 770.687 1866.44 786.295 C 1854.21 797.496 1845.72 802.617 1828.16 799.162 C 1819.95 792.383 1818.22 785.996 1815.51 776.268 L 1813.24 771.893 C 1812.8 747.972 1815.05 737.611 1821.17 714.747 L 1823.66 715.818 z"/>
<path transform="translate(0,0)" fill="rgb(57,41,35)" d="M 1821.17 714.747 L 1823.66 715.818 C 1819.21 730.301 1816.51 742.502 1815.75 757.861 C 1815.46 763.821 1815.98 770.833 1815.51 776.268 L 1813.24 771.893 C 1812.8 747.972 1815.05 737.611 1821.17 714.747 z"/>
<path transform="translate(0,0)" fill="rgb(228,111,66)" d="M 1862.93 670.335 C 1886.45 669.692 1907.16 684.536 1904.73 709.595 L 1903.65 710.448 L 1901.49 708.664 C 1900.91 704.802 1900.17 700.792 1898.72 697.189 C 1888.81 672.548 1868.93 679.796 1854.69 673.67 L 1854.38 672.451 C 1857.39 670.685 1859.36 670.77 1862.93 670.335 z"/>
<path transform="translate(0,0)" fill="rgb(57,41,35)" d="M 1148.65 605.905 L 1150.69 605.59 C 1151.14 606.238 1151.59 606.887 1152.04 607.535 C 1170.79 611.128 1250.64 633.291 1264.03 626.184 L 1265.01 624.511 L 1266.68 625.476 C 1267.63 627.869 1268.64 628.574 1270.5 630.215 C 1271.78 634.101 1272.34 634.824 1271.58 638.66 C 1269.36 642.282 1268.46 642.642 1264.95 645.26 C 1263.99 649.419 1267.66 651.005 1270.9 653.464 L 1271.69 655.457 C 1269.42 660.402 1266.98 660.53 1261.93 661.897 L 1259.39 661.394 C 1258.95 665.398 1258.56 669.945 1257.94 673.879 L 1259.99 674.612 C 1262.11 678.055 1326.98 708.259 1335 712.12 L 1467.86 776.651 C 1465.37 779.081 1461.02 783.602 1458.42 785.532 C 1452.33 781.255 1432.5 772.143 1424.49 768.243 L 1356.7 735.336 L 1290.51 703.329 C 1284.16 700.27 1264.08 690.125 1258.41 688.604 L 1256.25 688.501 L 1255.77 690.359 C 1251.32 690.803 1183.53 665.599 1180.58 663.027 C 1173.42 662.958 1149.34 662.691 1143.15 664.363 L 1140.91 664.027 C 1137.73 663.263 1137.9 663.273 1135.44 661.041 C 1133.33 654.378 1137.31 653.295 1142.76 651.836 L 1144.67 652.271 C 1145.51 646.462 1146.01 643.289 1145.97 637.398 L 1144.35 636.557 C 1142.44 632.868 1139.49 632.59 1140.22 626.826 L 1142.47 624.816 C 1150.45 617.738 1141.87 619.128 1139.54 612.298 C 1140.55 608.932 1140.22 609.983 1143.09 607.258 C 1145.35 606.997 1146.56 606.899 1148.65 605.905 z"/>
<path transform="translate(0,0)" fill="rgb(170,206,212)" d="M 1180.58 663.027 C 1184.06 662.816 1201.04 661.642 1203.13 662.415 C 1217.94 667.912 1241.68 679.158 1255.13 686.656 L 1256.25 688.501 L 1255.77 690.359 C 1251.32 690.803 1183.53 665.599 1180.58 663.027 z"/>
<path transform="translate(0,0)" fill="rgb(170,206,212)" d="M 1145.97 637.398 L 1147.66 635.674 C 1153.8 636.985 1174.93 647.87 1181.25 651.314 C 1169.62 651.712 1155.92 651.607 1144.67 652.271 C 1145.51 646.462 1146.01 643.289 1145.97 637.398 z"/>
<path transform="translate(0,0)" fill="rgb(170,206,212)" d="M 1230.19 661.473 C 1238.52 661.247 1251.51 660.528 1259.39 661.394 C 1258.95 665.398 1258.56 669.945 1257.94 673.879 C 1252.8 673.585 1235.58 664.224 1230.19 661.473 z"/>
<path transform="translate(0,0)" fill="rgb(170,206,212)" d="M 1177.73 636.294 C 1192.94 635.629 1245.02 636.759 1261.04 644.027 C 1262.03 644.477 1261.53 647.813 1261.49 649.451 C 1219.86 650.861 1215.37 655.986 1177.73 636.294 z"/>
<path transform="translate(0,0)" fill="rgb(211,211,211)" d="M 1148.14 619.086 C 1154.52 619.601 1164.03 622.255 1170.47 623.894 C 1165.13 624.177 1155.51 625.209 1150.53 623.217 C 1148.89 622.562 1148.92 621.207 1148.14 619.086 z"/>
<path transform="translate(0,0)" fill="rgb(234,179,176)" d="M 1467.86 776.651 C 1470.49 776.476 1474.99 775.614 1476.74 776.751 L 1475.77 777.665 C 1486.41 781.219 1498.46 778.176 1508.75 781.686 C 1516.11 784.199 1523.76 791.289 1530.98 794.399 C 1549.01 802.178 1567.36 809.733 1585.12 818.131 C 1608.61 829.237 1636.71 833.439 1659.41 845.275 C 1678.5 844.421 1700.07 844.748 1719.29 844.732 C 1738.83 844.716 1763.19 844.202 1782.24 846.314 C 1776.09 854.757 1774.75 864.409 1776.89 874.522 C 1758.86 877.504 1738.1 870.856 1719.73 868.515 C 1694.62 865.314 1669.37 864.258 1644.41 860.644 C 1627.55 856.683 1596.23 840.277 1580.38 832.374 C 1551.91 818.034 1523.33 803.895 1494.66 789.957 C 1497.13 795.543 1499.76 801.055 1502.54 806.487 L 1488.69 812.398 C 1473.79 806.259 1463.05 803.187 1458.42 785.532 C 1461.02 783.602 1465.37 779.081 1467.86 776.651 z"/>
<path transform="translate(0,0)" fill="rgb(57,41,35)" d="M 1476.74 776.751 C 1481.66 776.898 1504.74 777.158 1507.88 778.976 C 1531.13 792.433 1556.01 801.382 1579.81 813.221 C 1604.5 825.505 1636.6 830.306 1659.8 842.846 C 1686.84 841.602 1714.19 842.873 1741.19 842.251 C 1766.23 841.673 1803.03 850.329 1821.43 829.741 C 1821.91 829.211 1822.37 828.672 1822.82 828.126 L 1824.41 825.26 C 1826.42 841.421 1793.53 845.541 1782.24 846.314 C 1763.19 844.202 1738.83 844.716 1719.29 844.732 C 1700.07 844.748 1678.5 844.421 1659.41 845.275 C 1636.71 833.439 1608.61 829.237 1585.12 818.131 C 1567.36 809.733 1549.01 802.178 1530.98 794.399 C 1523.76 791.289 1516.11 784.199 1508.75 781.686 C 1498.46 778.176 1486.41 781.219 1475.77 777.665 L 1476.74 776.751 z"/>
<path transform="translate(0,0)" fill="rgb(57,41,35)" d="M 1813.24 771.893 L 1815.51 776.268 C 1818.22 785.996 1819.95 792.383 1828.16 799.162 L 1824.41 825.26 L 1822.82 828.126 C 1803.19 811.829 1809.23 793.54 1813.24 771.893 z"/>
<path transform="translate(0,0)" fill="rgb(43,41,39)" d="M 1259.39 661.394 L 1261.93 661.897 C 1261.54 664.896 1260.8 672.043 1259.99 674.612 L 1257.94 673.879 C 1258.56 669.945 1258.95 665.398 1259.39 661.394 z"/>
<path transform="translate(0,0)" fill="rgb(43,41,39)" d="M 1769.84 553.123 C 1709.84 567.94 1695.42 482.898 1769.65 491.834 C 1819.04 495.467 1813.28 552.892 1769.84 553.123 z"/>
<path transform="translate(0,0)" fill="rgb(170,206,212)" d="M 1769.65 491.834 C 1819.04 495.467 1813.28 552.892 1769.84 553.123 C 1779.11 549.904 1787.65 544.209 1792.09 535.158 C 1795.49 528.242 1795.88 520.223 1793.14 513.015 C 1788.8 501.489 1780.16 496.415 1769.65 491.834 z"/>
<path transform="translate(0,0)" fill="rgb(170,206,212)" d="M 1751.99 493.634 C 1776.03 488.602 1804.81 514.274 1786.23 538.732 C 1780.56 546.149 1772.08 550.9 1762.8 551.863 C 1758.64 552.288 1753.87 552.483 1749.86 551.298 C 1712.11 544.442 1712.69 499.483 1751.99 493.634 z"/>
<path transform="translate(0,0)" fill="rgb(249,242,234)" d="M 1749.86 551.298 C 1712.11 544.442 1712.69 499.483 1751.99 493.634 L 1746.17 497.902 C 1733.3 507.266 1725.25 524.197 1735.86 537.065 C 1738.36 540.102 1749.71 550.811 1749.86 551.298 z"/>
<path transform="translate(0,0)" fill="rgb(43,41,39)" d="M 1814.8 595.239 C 1803.64 597.805 1791.32 597.676 1783.82 587.444 C 1780.7 583.198 1779.49 577.84 1780.49 572.666 C 1783.45 556.654 1800.16 554.464 1813.48 556.939 C 1821.61 557.51 1827.88 558.231 1833.62 564.99 C 1836.99 568.901 1838.49 574.087 1837.73 579.195 C 1835.99 590.627 1825.28 595.308 1814.8 595.239 z"/>
<path transform="translate(0,0)" fill="rgb(170,206,212)" d="M 1813.48 556.939 C 1821.61 557.51 1827.88 558.231 1833.62 564.99 C 1836.99 568.901 1838.49 574.087 1837.73 579.195 C 1835.99 590.627 1825.28 595.308 1814.8 595.239 C 1833.5 583.719 1832.91 567.067 1813.48 556.939 z"/>
<path transform="translate(0,0)" fill="rgb(170,206,212)" d="M 1801.25 558.542 C 1811.73 556.701 1822.84 562.696 1824.76 573.788 C 1825.5 578.14 1824.44 582.608 1821.81 586.156 C 1817.83 591.546 1810.79 593.946 1804.3 594.237 C 1794.96 593.358 1785.34 589.755 1783.11 579.449 C 1782.16 575.148 1783.1 570.647 1785.68 567.077 C 1789.74 561.371 1794.91 559.846 1801.25 558.542 z"/>
<path transform="translate(0,0)" fill="rgb(249,242,234)" d="M 1804.3 594.237 C 1794.96 593.358 1785.34 589.755 1783.11 579.449 C 1782.16 575.148 1783.1 570.647 1785.68 567.077 C 1789.74 561.371 1794.91 559.846 1801.25 558.542 L 1801.36 560.559 C 1787.41 574.162 1789.23 582.804 1804.3 594.237 z"/>
<path transform="translate(0,0)" fill="rgb(57,41,35)" d="M 597.129 392.566 C 603.987 385.569 597.111 383.349 599.313 375.636 C 602.457 373.48 601.524 374.154 605.89 373.887 C 607.658 376.271 607.745 382.431 608.46 386.45 L 608.74 388.459 C 606.99 394.537 610.774 436.331 611.003 446.326 C 612.146 467.496 612.881 494.91 615.036 515.65 C 648.005 496.948 682.194 480.485 717.373 466.373 C 719.952 460.215 721.712 453.131 727.394 450.394 C 730.508 451.936 729.151 450.853 731.178 454.215 C 730.289 456.932 728.997 459.043 729.683 461.219 L 732.234 463.315 C 724.958 466.279 725.762 467.793 722.175 475.223 C 721.21 477.223 718.441 484.835 717.948 486.911 C 703.163 518.511 690.506 552.124 676.595 584.184 C 675.761 586.107 674.026 587.399 672.199 588.212 C 668.432 587.806 669.927 588.559 667.332 586.432 C 667.031 582.124 710.601 482.283 715.813 469.814 C 691.38 479.369 636.9 504.088 615.056 518.61 C 615.691 529.801 619.746 573.479 618.176 582.335 C 615.623 583.995 614.435 583.69 611.386 583.677 L 610.38 582.948 C 609.145 563.678 607.734 542.331 607.039 523.079 C 574.346 542.238 558.85 558.905 555.302 598.261 C 559.836 604.546 562.919 611.615 571.207 611.221 L 566.778 612.135 C 567.749 619.461 581.384 626.078 578.714 633.049 C 575.47 635.043 577.191 634.604 573.358 634.373 C 568.204 630.465 562.264 619.044 556.385 614.075 C 559.408 636.895 574.774 656.542 587.324 675.873 L 585.747 677.583 C 583.748 691.731 587.278 731.108 596.286 741.773 L 598.85 742.762 C 599.932 761.836 603.354 776.059 615.439 791.434 C 610.163 805.7 603.536 824.455 596.561 837.659 L 594.296 835.437 C 591.34 835.659 577.387 845.219 573.552 847.239 C 560.433 854.148 548.18 856.662 537.708 867.799 L 533.954 884.846 C 531.481 895.37 515.51 959.556 518.751 964.592 C 512.318 992.667 508.954 1039.29 506.555 1069.28 C 506.053 1072.4 505.271 1083.23 504.777 1084.58 C 497.362 1104.75 484.494 1125.61 476.024 1144.82 C 473.926 1151.01 473.433 1153.89 472.376 1160.41 C 421.622 1183.81 377.628 1206.81 332.938 1241.08 C 305.264 1262.31 301.126 1269.89 281.747 1298.03 C 286.237 1326.09 291.475 1340.65 292.145 1369.89 C 291.93 1384.34 291.935 1398.79 292.162 1413.24 C 291.353 1439.14 289.345 1464.99 286.144 1490.71 C 284.278 1505.63 281.163 1522.21 279.586 1536.6 C 283.985 1536.68 290.697 1536.32 294.493 1537.91 C 293.321 1541.84 291.85 1547.35 290.528 1551.11 C 287.568 1552.24 284.025 1551.96 281.793 1553.08 C 276.634 1555.7 272.391 1561.09 267.176 1563.74 C 251.415 1571.08 230.527 1569.88 219.765 1584.86 L 216.811 1584.84 L 217.645 1583.13 C 215.102 1572.38 209.972 1561.03 205.769 1550.74 C 165.304 1451.69 132.689 1348.05 114.286 1242.55 C 112.482 1232.21 109.218 1215.3 111.707 1205.32 C 98.8234 1191.37 72.1135 1176.97 62.128 1159.58 C 47.531 1134.16 58.7052 1113.4 38.4605 1087.8 C 49.5982 1080.07 69.0091 1073.2 82.1268 1069.06 C 86.1697 1067.78 95.2412 1065.86 98.347 1064.07 C 100.474 1053.79 101.358 1037.02 102.192 1026.37 C 103.47 1010.6 105.203 994.863 107.391 979.191 C 125.844 853.29 187.716 753.064 287.672 675.378 C 325.607 645.895 386.22 611.498 435.169 609.748 C 434.278 551.226 451.005 506.714 489.277 462.813 C 515.198 436.694 538.032 423.595 570.191 405.96 C 576.663 402.411 590.383 394.623 597.129 392.566 z"/>
<path transform="translate(0,0)" fill="rgb(249,242,234)" d="M 98.347 1064.07 C 100.474 1053.79 101.358 1037.02 102.192 1026.37 C 103.47 1010.6 105.203 994.863 107.391 979.191 C 125.844 853.29 187.716 753.064 287.672 675.378 C 325.607 645.895 386.22 611.498 435.169 609.748 C 441.139 677.619 460.678 700.721 495.78 755.396 L 557.311 851.158 C 547.134 855.865 543.882 858.417 535.663 866.126 C 528.982 895.149 522.435 924.165 516.666 953.384 C 510.922 982.48 516.09 1008.6 496.452 1032.95 C 497.84 1023.29 498.732 1015.02 502.752 1005.98 C 457.948 935.005 387.162 892.583 304.468 882.987 C 324.225 904.746 342.455 926.481 355.847 952.931 C 366.766 974.494 371.874 1000.83 388.301 1019.22 C 401.057 1020.7 407.954 1021.51 420.18 1026.1 C 408.99 1027.02 403.192 1026.9 392.825 1031.55 C 397.978 1055.13 407.942 1099.3 410.327 1122.67 C 432.453 1125.75 447.438 1127.13 466.371 1139.57 C 451.689 1137.56 438.895 1135.65 424.038 1135.54 C 418.654 1147.65 413.826 1160 409.568 1172.55 C 396.905 1163.04 389.076 1157.91 375.006 1150.58 C 374.474 1159.22 373.739 1166.26 370.965 1174.56 C 366.012 1144.88 365.658 1139.98 340.054 1121.91 C 308.126 1099.39 271.497 1082.82 234.849 1069.72 C 232.137 1078.52 230.626 1081.61 225.047 1088.99 C 226.461 1082.39 227.863 1076.45 228.446 1069.69 C 195.891 1060.77 166.109 1057.15 132.218 1059.55 C 124.454 1060.11 103.572 1064.24 98.347 1064.07 z"/>
<path transform="translate(0,0)" fill="rgb(170,206,212)" d="M 597.129 392.566 C 603.987 385.569 597.111 383.349 599.313 375.636 C 602.457 373.48 601.524 374.154 605.89 373.887 C 607.658 376.271 607.745 382.431 608.46 386.45 L 608.74 388.459 C 606.99 394.537 610.774 436.331 611.003 446.326 C 612.146 467.496 612.881 494.91 615.036 515.65 C 648.005 496.948 682.194 480.485 717.373 466.373 C 719.952 460.215 721.712 453.131 727.394 450.394 C 730.508 451.936 729.151 450.853 731.178 454.215 C 730.289 456.932 728.997 459.043 729.683 461.219 L 732.234 463.315 C 724.958 466.279 725.762 467.793 722.175 475.223 C 721.21 477.223 718.441 484.835 717.948 486.911 C 703.163 518.511 690.506 552.124 676.595 584.184 C 675.761 586.107 674.026 587.399 672.199 588.212 C 668.432 587.806 669.927 588.559 667.332 586.432 C 667.031 582.124 710.601 482.283 715.813 469.814 C 691.38 479.369 636.9 504.088 615.056 518.61 C 615.691 529.801 619.746 573.479 618.176 582.335 C 615.623 583.995 614.435 583.69 611.386 583.677 L 610.38 582.948 C 609.145 563.678 607.734 542.331 607.039 523.079 C 574.346 542.238 558.85 558.905 555.302 598.261 C 559.836 604.546 562.919 611.615 571.207 611.221 L 566.778 612.135 C 567.749 619.461 581.384 626.078 578.714 633.049 C 575.47 635.043 577.191 634.604 573.358 634.373 C 568.204 630.465 562.264 619.044 556.385 614.075 C 559.408 636.895 574.774 656.542 587.324 675.873 L 585.747 677.583 C 583.748 691.731 587.278 731.108 596.286 741.773 C 597.712 761.231 600.154 775.944 612.675 791.936 C 607.916 804.904 602.834 817.75 597.431 830.463 C 586.364 834.665 572.432 848.583 559.895 850.639 L 552.575 839.103 L 494.063 748.111 C 482.213 729.643 465.825 705.905 456.653 686.571 C 433.865 638.537 431.857 583.915 449.207 534.011 C 474.656 460.809 532.173 426.027 598.601 394.123 L 597.129 392.566 z"/>
<path transform="translate(0,0)" fill="rgb(142,171,176)" d="M 597.129 392.566 C 603.987 385.569 597.111 383.349 599.313 375.636 C 602.457 373.48 601.524 374.154 605.89 373.887 C 607.658 376.271 607.745 382.431 608.46 386.45 L 608.74 388.459 C 606.99 394.537 610.774 436.331 611.003 446.326 C 612.146 467.496 612.881 494.91 615.036 515.65 C 648.005 496.948 682.194 480.485 717.373 466.373 C 719.952 460.215 721.712 453.131 727.394 450.394 C 730.508 451.936 729.151 450.853 731.178 454.215 C 730.289 456.932 728.997 459.043 729.683 461.219 L 732.234 463.315 C 724.958 466.279 725.762 467.793 722.175 475.223 C 721.21 477.223 718.441 484.835 717.948 486.911 C 703.163 518.511 690.506 552.124 676.595 584.184 C 675.761 586.107 674.026 587.399 672.199 588.212 C 668.432 587.806 669.927 588.559 667.332 586.432 C 667.031 582.124 710.601 482.283 715.813 469.814 C 691.38 479.369 636.9 504.088 615.056 518.61 C 615.691 529.801 619.746 573.479 618.176 582.335 C 615.623 583.995 614.435 583.69 611.386 583.677 L 610.38 582.948 C 609.145 563.678 607.734 542.331 607.039 523.079 C 574.346 542.238 558.85 558.905 555.302 598.261 C 559.836 604.546 562.919 611.615 571.207 611.221 L 566.778 612.135 C 567.749 619.461 581.384 626.078 578.714 633.049 C 575.47 635.043 577.191 634.604 573.358 634.373 C 568.204 630.465 562.264 619.044 556.385 614.075 L 553.583 613.423 C 552.818 606.198 540.489 591.879 535.795 585.604 L 502.546 540.946 C 495.113 530.574 481.297 514.143 475.532 502.541 C 475.099 501.669 476.146 500.733 476.933 499.579 L 479.369 499.228 C 486.714 502.908 499.787 523.334 505.516 531.245 C 508.511 526.31 510.678 520.985 513.949 516.05 C 534.352 485.263 569.097 463.656 603.138 450.3 C 602.83 442.184 601.772 398.128 598.601 394.123 L 597.129 392.566 z"/>
<path transform="translate(0,0)" fill="rgb(57,41,35)" d="M 597.129 392.566 C 603.987 385.569 597.111 383.349 599.313 375.636 C 602.457 373.48 601.524 374.154 605.89 373.887 C 607.658 376.271 607.745 382.431 608.46 386.45 L 608.74 388.459 C 606.99 394.537 610.774 436.331 611.003 446.326 C 612.146 467.496 612.881 494.91 615.036 515.65 C 648.005 496.948 682.194 480.485 717.373 466.373 C 719.952 460.215 721.712 453.131 727.394 450.394 C 730.508 451.936 729.151 450.853 731.178 454.215 C 730.289 456.932 728.997 459.043 729.683 461.219 L 732.234 463.315 C 724.958 466.279 725.762 467.793 722.175 475.223 C 721.21 477.223 718.441 484.835 717.948 486.911 C 703.163 518.511 690.506 552.124 676.595 584.184 C 675.761 586.107 674.026 587.399 672.199 588.212 C 668.432 587.806 669.927 588.559 667.332 586.432 C 667.031 582.124 710.601 482.283 715.813 469.814 C 691.38 479.369 636.9 504.088 615.056 518.61 C 615.691 529.801 619.746 573.479 618.176 582.335 C 615.623 583.995 614.435 583.69 611.386 583.677 L 610.38 582.948 C 609.145 563.678 607.734 542.331 607.039 523.079 C 574.346 542.238 558.85 558.905 555.302 598.261 C 559.836 604.546 562.919 611.615 571.207 611.221 L 566.778 612.135 C 567.749 619.461 581.384 626.078 578.714 633.049 C 575.47 635.043 577.191 634.604 573.358 634.373 C 568.204 630.465 562.264 619.044 556.385 614.075 L 553.583 613.423 C 552.818 606.198 540.489 591.879 535.795 585.604 L 502.546 540.946 C 495.113 530.574 481.297 514.143 475.532 502.541 C 475.099 501.669 476.146 500.733 476.933 499.579 L 479.369 499.228 C 486.714 502.908 499.787 523.334 505.516 531.245 C 514.869 545.976 541.579 580.07 552.606 594.597 C 559.497 554.271 572.708 540.27 607.124 520.209 L 603.138 450.3 C 602.83 442.184 601.772 398.128 598.601 394.123 L 597.129 392.566 z"/>
<path transform="translate(0,0)" fill="rgb(142,171,176)" d="M 502.546 540.946 L 535.795 585.604 C 540.489 591.879 552.818 606.198 553.583 613.423 L 556.385 614.075 C 559.408 636.895 574.774 656.542 587.324 675.873 L 585.747 677.583 C 583.748 691.731 587.278 731.108 596.286 741.773 C 597.712 761.231 600.154 775.944 612.675 791.936 C 607.916 804.904 602.834 817.75 597.431 830.463 C 586.364 834.665 572.432 848.583 559.895 850.639 L 552.575 839.103 C 561.964 825.902 573.879 805.884 582.818 791.805 C 565.497 758.07 548.788 719.335 533.958 684.393 C 515.184 640.156 487.769 589.748 502.546 540.946 z"/>
<path transform="translate(0,0)" fill="rgb(43,41,39)" d="M 553.583 613.423 L 556.385 614.075 C 559.408 636.895 574.774 656.542 587.324 675.873 L 585.747 677.583 C 572.571 662.003 557.285 634.011 553.583 613.423 z"/>
<path transform="translate(0,0)" fill="rgb(249,242,234)" d="M 111.707 1205.32 C 115.079 1202.88 120.624 1195.42 123.614 1191.68 C 137.189 1174.69 150.487 1160.58 171.103 1152.47 C 146.647 1169.6 132.819 1185 121.962 1213.33 C 171.291 1229.76 203.991 1262.1 233.213 1303.85 C 251.992 1287.72 268.554 1279.03 291.25 1270.15 C 271.483 1283.89 259.426 1293.83 242.189 1310.77 C 264.235 1323.78 273.291 1334.29 288.945 1353.89 C 292.12 1410.33 288.008 1466.7 279.441 1522.55 C 278.63 1527.83 275.465 1533.25 279.261 1537.44 C 282.91 1538.53 289.385 1539.48 291.281 1541.73 C 291.208 1545.45 290.959 1544.59 288.476 1548.27 C 284.843 1550.13 281.36 1550.22 279.227 1551.67 C 274.547 1554.84 270.67 1559.26 265.357 1561.68 C 247.747 1569.71 230.624 1567.35 217.645 1583.13 C 215.102 1572.38 209.972 1561.03 205.769 1550.74 C 165.304 1451.69 132.689 1348.05 114.286 1242.55 C 112.482 1232.21 109.218 1215.3 111.707 1205.32 z"/>
<path transform="translate(0,0)" fill="rgb(145,145,125)" d="M 42.7574 1088.45 C 44.1147 1087.59 45.4888 1086.75 46.8788 1085.94 C 97.6542 1056.45 170.566 1056.89 226.137 1071.65 C 225.051 1077.64 223.483 1084.17 222.124 1090.14 L 223.231 1091.19 C 230.592 1088.77 234.042 1079.61 236.775 1073.08 C 272.152 1083.72 320.745 1109.76 350.011 1132.54 C 351.243 1133.62 354.31 1136.15 355.124 1137.3 C 366.616 1146.61 368.238 1172.51 369.616 1186.6 C 374.146 1173.86 375.912 1167.82 377.372 1154.44 C 393.036 1162.84 405.663 1172.34 419.358 1183.48 C 389.502 1196.93 358.027 1220.12 331.265 1239.05 C 322.974 1244.09 311.567 1257.91 303.338 1261.95 C 278.645 1274.06 254.785 1280.58 233.72 1300.14 C 204.467 1260.01 173.188 1228.18 124.998 1211.65 C 133.651 1190.91 146.598 1173.05 165.086 1159.55 C 169.703 1156.18 179.673 1151.91 183.667 1148.66 L 182.906 1147.86 C 155.839 1146.77 126.95 1182.18 112.081 1202.09 C 98.1669 1191.05 65.0205 1165.79 59.9364 1150.05 C 52.6447 1127.46 58.2177 1111.84 42.7574 1088.45 z"/>
<path transform="translate(0,0)" fill="rgb(124,124,106)" d="M 350.011 1132.54 C 351.243 1133.62 354.31 1136.15 355.124 1137.3 C 353.003 1136.53 351.561 1134.34 350.011 1132.54 z"/>
<path transform="translate(0,0)" fill="rgb(145,145,125)" d="M 311.628 886.812 C 317.128 886.901 323.04 887.763 328.44 888.787 C 401.08 902.569 458.692 945.517 499.941 1005.74 C 498.054 1011.17 492.146 1029.23 496.433 1033.66 C 501.909 1032.29 506.336 1022.96 509.054 1018.31 C 506.305 1037.45 506.12 1068.24 501.394 1085.52 C 495.392 1107.46 472.709 1135.05 470.73 1158.4 C 456.544 1164.75 442.509 1171.43 428.636 1178.44 L 421.491 1182.14 L 411.684 1174.31 C 415.386 1162.16 420.584 1149.44 425.705 1137.82 C 434.818 1138.15 464.557 1142.96 468.212 1140.26 L 467.417 1138.12 C 454.097 1126.17 429.99 1122.55 412.523 1120.65 C 409.522 1095.42 400.966 1058.09 395.723 1032.49 C 409.328 1028.09 418.142 1028.79 432.23 1029.02 C 414.49 1020.29 407.937 1018.97 388.786 1016.76 C 373.932 995.969 371.257 980.884 361.503 958.966 C 350.077 933.291 329.979 907.825 311.628 886.812 z"/>
<path transform="translate(0,0)" fill="rgb(145,145,125)" d="M 297.012 1270.16 L 297.346 1271.6 L 279.455 1297.11 L 279.511 1297.67 C 280.942 1313.07 286.093 1333.03 288.756 1349.48 C 283.87 1343.5 279.139 1338.21 273.978 1332.49 C 265.049 1323.24 257.157 1316.77 246.156 1310.26 C 259.713 1296.75 280.683 1279.72 297.012 1270.16 z"/>
<path transform="translate(0,0)" fill="rgb(249,242,234)" d="M 1258.41 688.604 C 1264.08 690.125 1284.16 700.27 1290.51 703.329 L 1356.7 735.336 L 1424.49 768.243 C 1432.5 772.143 1452.33 781.255 1458.42 785.532 C 1463.05 803.187 1473.79 806.259 1488.69 812.398 L 1502.54 806.487 C 1499.76 801.055 1497.13 795.543 1494.66 789.957 C 1523.33 803.895 1551.91 818.034 1580.38 832.374 C 1596.23 840.277 1627.55 856.683 1644.41 860.644 L 1642.9 863.3 C 1646.41 866.041 1687.04 887.253 1691.03 888.713 L 1694.24 888.1 C 1700.03 892.819 1702.75 893.898 1709.41 897.315 C 1705.78 898.487 1702.13 899.063 1699.99 901.924 L 1699.64 904.628 C 1700.08 908.398 1699.74 912.366 1702.5 914.316 C 1708.04 918.222 1718.98 925.382 1725.59 926.203 C 1727.5 924.415 1726.76 925.516 1727.09 922.363 L 1729.52 924.499 C 1741.4 925.963 1763.83 951.586 1770.02 961.535 C 1769.43 968.801 1768.94 978.076 1767.84 985.126 C 1765.45 998.146 1763.27 1007.75 1756.36 1019.74 C 1752.89 1025.75 1745.42 1035.59 1741.43 1041.89 C 1741.29 1042.11 1743.08 1045.26 1743.44 1045.88 C 1739.94 1054.34 1735.85 1062.93 1732.79 1071.44 C 1688.59 1096.47 1657.49 1124.35 1624.97 1163.57 C 1604.06 1188.78 1572.31 1229.59 1545.41 1248.71 C 1543.44 1270.57 1539.23 1296.18 1535.69 1317.94 C 1529.39 1357.16 1521.98 1396.19 1513.47 1434.98 C 1512.18 1440.79 1499.93 1488.74 1500.6 1490.88 L 1503.39 1491.51 C 1504.48 1496.39 1499.98 1511.73 1498.56 1517.41 L 1489.35 1524.6 C 1488.43 1536.63 1486.59 1561.04 1477.33 1568.09 C 1465.58 1577.04 1401.45 1602.74 1458.26 1608.33 L 1458.59 1609.59 C 1447.32 1610.74 1419.45 1610.01 1407.19 1610.07 C 1395.7 1610.13 1365.19 1610.81 1355.13 1609.67 C 1370.33 1591.67 1365.83 1573.04 1378.28 1552.69 C 1387.25 1538.03 1395.6 1526.96 1407.03 1514.06 C 1412.04 1508.4 1427.32 1492.69 1430.26 1486.65 C 1437.26 1472.25 1443.29 1451.13 1446.53 1435.03 C 1448.54 1425.04 1454.5 1396.83 1449.21 1388.31 C 1447.62 1385.76 1430.4 1385.04 1426.23 1384.74 L 1430.84 1376.53 C 1437.19 1377.44 1442.34 1378.38 1448.62 1379.73 C 1454.58 1333.13 1473.64 1272.63 1507 1238.53 C 1500.12 1234.77 1482.67 1227.19 1478.41 1222.69 C 1478.46 1218.94 1477.89 1219.89 1479.82 1217.51 C 1487.29 1215.62 1506.85 1225.01 1514.63 1228.29 C 1532.58 1177.41 1559.63 1129.94 1606.12 1100.27 C 1584.33 1070.93 1565.72 1061.35 1533.01 1048.87 C 1567.15 1054.21 1587.14 1068.69 1613.8 1089.03 C 1625.19 1073.83 1650.07 1040.41 1654.43 1022.84 C 1661.24 995.396 1642.85 973.647 1657.94 942.965 C 1586.25 924.119 1514.06 942.637 1451.38 979.179 C 1453.57 984.211 1456.86 989.855 1457.79 995.068 C 1454.11 995.302 1452.62 989.213 1451.38 986.184 C 1446.15 973.354 1441.1 960.51 1435.23 947.948 C 1429.06 934.892 1422.3 922.127 1414.95 909.692 C 1374.91 841.509 1318.81 784.137 1251.55 742.56 L 1258.41 688.604 z"/>
<path transform="translate(0,0)" fill="rgb(57,41,35)" d="M 1494.66 789.957 C 1523.33 803.895 1551.91 818.034 1580.38 832.374 C 1596.23 840.277 1627.55 856.683 1644.41 860.644 L 1642.9 863.3 C 1646.41 866.041 1687.04 887.253 1691.03 888.713 L 1694.24 888.1 C 1700.03 892.819 1702.75 893.898 1709.41 897.315 C 1705.78 898.487 1702.13 899.063 1699.99 901.924 L 1699.64 904.628 L 1698.18 906.283 C 1690.05 900.256 1653.1 882.059 1641.83 876.295 C 1595.58 852.683 1549.15 829.413 1502.54 806.487 C 1499.76 801.055 1497.13 795.543 1494.66 789.957 z"/>
<path transform="translate(0,0)" fill="rgb(57,41,35)" d="M 1699.64 904.628 C 1700.08 908.398 1699.74 912.366 1702.5 914.316 C 1708.04 918.222 1718.98 925.382 1725.59 926.203 C 1727.5 924.415 1726.76 925.516 1727.09 922.363 L 1729.52 924.499 C 1729.04 926.606 1728.26 928.654 1727.55 930.701 C 1724.26 930.401 1702.78 918.571 1699.4 914.814 C 1697.39 912.575 1698.08 909.095 1698.18 906.283 L 1699.64 904.628 z"/>
<path transform="translate(0,0)" fill="rgb(163,131,129)" d="M 1736.17 912.864 L 1738.02 914.265 C 1746.28 921.649 1754.34 926.272 1763.66 934.881 L 1764.93 934.011 L 1765.48 935.02 C 1768.47 940.371 1771.97 944.622 1775.45 949.559 C 1797.35 980.603 1803.8 1021.33 1811.82 1057.74 C 1816.22 1075.8 1827.59 1117.36 1839.06 1131.58 L 1840.33 1131.95 L 1841.74 1133.22 C 1840.84 1139.59 1869.53 1177.26 1873.89 1178.85 C 1875 1182.75 1885.13 1198.09 1888.25 1201.8 C 1899.42 1215.04 1934.33 1289.3 1914.51 1296.97 C 1910.46 1296.27 1912.14 1297.14 1909.25 1294.37 C 1907.36 1288.83 1908.49 1282.32 1907.88 1276.91 C 1906.61 1265.57 1897.88 1240.48 1891.24 1231.84 C 1890.32 1246.17 1901.63 1294.63 1904.46 1313.44 C 1914.1 1377.55 1905.58 1429.4 1892.81 1492.21 C 1890.82 1501.99 1888.09 1522.47 1884.43 1530.2 C 1903.81 1552.91 1905.49 1557.06 1887.53 1582.07 C 1888.16 1587.44 1889.88 1594.77 1888.55 1599.33 C 1885.91 1601.99 1885.5 1602.03 1881.05 1602.06 L 1879.5 1602.06 C 1878.44 1604.19 1876.54 1607.74 1875.74 1609.83 L 1874.72 1610.19 C 1871.39 1609.77 1863.52 1610.01 1859.87 1610.03 L 1857.96 1607.32 L 1853.06 1608.34 C 1844.98 1609 1839.77 1608.7 1831.77 1608.29 C 1823.86 1607.67 1807.7 1606.03 1802.48 1599.61 C 1800.09 1586.12 1832.08 1576.4 1839.84 1565.55 C 1847.12 1555.38 1849.94 1542.88 1853.49 1531.1 C 1852.65 1528.21 1851.75 1525.35 1850.81 1522.49 C 1849.26 1517.83 1843.07 1501.14 1838.89 1499.04 C 1836.94 1500.98 1837.7 1500.61 1835.34 1501.73 C 1831.62 1496.64 1828.59 1490.19 1825.26 1484.74 C 1789.86 1426.92 1743.39 1369.38 1685.24 1333.21 C 1683.18 1303.38 1694.26 1291.86 1702.44 1266.08 C 1715.63 1224.45 1731.95 1186.9 1749.63 1147.15 C 1733.73 1155.91 1718.11 1162.46 1702.19 1171.78 C 1699.44 1173.9 1699.06 1174.19 1695.92 1175.59 L 1694.08 1174.72 C 1675.76 1183.08 1658.24 1198.33 1640.93 1208.89 C 1630.14 1215.47 1619.84 1225.23 1609.21 1231.89 C 1599.41 1241.48 1585.72 1255.39 1575.57 1264.2 C 1577.65 1281.86 1585.06 1310.11 1580.54 1326.07 C 1570.16 1362.78 1557.58 1399.26 1546.14 1435.68 C 1540.43 1454.04 1535.13 1472.52 1530.23 1491.11 L 1528.97 1492 L 1525.4 1491.35 L 1524.65 1491.93 C 1518.33 1490.55 1513.74 1490.19 1507.26 1489.6 C 1501.84 1487 1502.98 1486.32 1504.46 1481.01 C 1512.86 1450.75 1519.95 1419.28 1525.55 1388.36 C 1533.77 1343.06 1542.92 1296.38 1547.61 1250.6 C 1582.32 1219.77 1605.34 1192.18 1634.29 1156.36 C 1659.5 1125.16 1699.41 1091.76 1735.02 1073.11 C 1738.53 1062.79 1741.29 1055.05 1746.94 1045.73 C 1746.52 1045.03 1744.42 1041.65 1744.42 1041.66 C 1747.45 1037.63 1753.83 1028.3 1756.29 1024.44 C 1764.74 1011.13 1767.5 999.99 1770.09 984.992 L 1767.84 985.126 C 1768.94 978.076 1769.43 968.801 1770.02 961.535 C 1763.83 951.586 1741.4 925.963 1729.52 924.499 L 1727.09 922.363 C 1728.76 919.801 1733.5 915.869 1736.17 912.864 z"/>
<path transform="translate(0,0)" fill="rgb(249,242,234)" d="M 1833.38 1147.1 C 1839.46 1150.54 1892.69 1226.21 1891.24 1231.84 C 1890.32 1246.17 1901.63 1294.63 1904.46 1313.44 C 1914.1 1377.55 1905.58 1429.4 1892.81 1492.21 C 1890.82 1501.99 1888.09 1522.47 1884.43 1530.2 C 1882.79 1527.86 1881.41 1523.13 1879.68 1519.97 C 1872.07 1506.05 1865.64 1496.05 1860.66 1480.93 C 1861.36 1477.94 1862.16 1472.67 1860.95 1469.79 C 1835.43 1408.93 1786.33 1360.8 1730.85 1326.72 C 1736.03 1313.63 1740.09 1300.07 1746.58 1287.47 C 1755.05 1271.01 1765.89 1255.42 1775.62 1239.61 C 1794.64 1208.74 1814.68 1178.12 1833.38 1147.1 z"/>
<path transform="translate(0,0)" fill="rgb(57,41,35)" d="M 1736.17 912.864 L 1738.02 914.265 C 1746.28 921.649 1754.34 926.272 1763.66 934.881 L 1764.93 934.011 L 1765.48 935.02 C 1768.47 940.371 1771.97 944.622 1775.45 949.559 C 1797.35 980.603 1803.8 1021.33 1811.82 1057.74 C 1816.22 1075.8 1827.59 1117.36 1839.06 1131.58 L 1840.33 1131.95 L 1841.74 1133.22 C 1840.84 1139.59 1869.53 1177.26 1873.89 1178.85 C 1875 1182.75 1885.13 1198.09 1888.25 1201.8 C 1899.42 1215.04 1934.33 1289.3 1914.51 1296.97 C 1910.46 1296.27 1912.14 1297.14 1909.25 1294.37 C 1907.36 1288.83 1908.49 1282.32 1907.88 1276.91 C 1906.61 1265.57 1897.88 1240.48 1891.24 1231.84 C 1892.69 1226.21 1839.46 1150.54 1833.38 1147.1 C 1814.68 1178.12 1794.64 1208.74 1775.62 1239.61 C 1765.89 1255.42 1755.05 1271.01 1746.58 1287.47 C 1740.09 1300.07 1736.03 1313.63 1730.85 1326.72 C 1786.33 1360.8 1835.43 1408.93 1860.95 1469.79 C 1862.16 1472.67 1861.36 1477.94 1860.66 1480.93 C 1865.64 1496.05 1872.07 1506.05 1879.68 1519.97 C 1881.41 1523.13 1882.79 1527.86 1884.43 1530.2 C 1903.81 1552.91 1905.49 1557.06 1887.53 1582.07 C 1888.16 1587.44 1889.88 1594.77 1888.55 1599.33 C 1885.91 1601.99 1885.5 1602.03 1881.05 1602.06 L 1879.5 1602.06 C 1878.44 1604.19 1876.54 1607.74 1875.74 1609.83 L 1874.72 1610.19 C 1871.39 1609.77 1863.52 1610.01 1859.87 1610.03 L 1857.96 1607.32 L 1853.06 1608.34 C 1844.98 1609 1839.77 1608.7 1831.77 1608.29 C 1823.86 1607.67 1807.7 1606.03 1802.48 1599.61 C 1800.09 1586.12 1832.08 1576.4 1839.84 1565.55 C 1847.12 1555.38 1849.94 1542.88 1853.49 1531.1 C 1852.65 1528.21 1851.75 1525.35 1850.81 1522.49 C 1849.26 1517.83 1843.07 1501.14 1838.89 1499.04 C 1836.94 1500.98 1837.7 1500.61 1835.34 1501.73 C 1831.62 1496.64 1828.59 1490.19 1825.26 1484.74 C 1789.86 1426.92 1743.39 1369.38 1685.24 1333.21 C 1683.18 1303.38 1694.26 1291.86 1702.44 1266.08 C 1715.63 1224.45 1731.95 1186.9 1749.63 1147.15 C 1733.73 1155.91 1718.11 1162.46 1702.19 1171.78 L 1702.44 1169.82 C 1704.93 1166.7 1749.9 1143.16 1754.78 1142.07 C 1741.93 1169.6 1729.97 1197.55 1718.93 1225.86 C 1713.81 1239.32 1709.6 1252.88 1704.89 1266.44 C 1697.09 1288.86 1685.38 1307.04 1687.44 1331.64 C 1740.87 1365.49 1784.06 1415.98 1818.34 1468.81 C 1821.05 1472.98 1833.69 1495.01 1836.26 1496.84 C 1837.46 1496.03 1839.2 1494.52 1840.34 1494.54 C 1846.36 1487.99 1849.84 1484.98 1856.7 1479.32 C 1856.51 1476.82 1858.28 1478.78 1859.81 1474 C 1838.18 1414.39 1781.29 1359.61 1727.66 1327.86 C 1734.13 1313.18 1738.76 1295.62 1746.77 1281.55 C 1755.7 1265.86 1766.31 1249.87 1775.93 1234.5 L 1832.07 1144.95 C 1831.68 1142.13 1828.26 1136.13 1826.74 1133.42 C 1813.81 1110.39 1806.41 1084.75 1800.55 1059.06 L 1799.73 1059.08 C 1782.24 1059.3 1760.34 1058.69 1746.94 1045.73 C 1746.52 1045.03 1744.42 1041.65 1744.42 1041.66 C 1747.45 1037.63 1753.83 1028.3 1756.29 1024.44 C 1764.74 1011.13 1767.5 999.99 1770.09 984.992 L 1767.84 985.126 C 1768.94 978.076 1769.43 968.801 1770.02 961.535 C 1763.83 951.586 1741.4 925.963 1729.52 924.499 L 1727.09 922.363 C 1728.76 919.801 1733.5 915.869 1736.17 912.864 z"/>
<path transform="translate(0,0)" fill="rgb(142,171,176)" d="M 1876.43 1518.36 L 1879.13 1524.92 C 1885.07 1539.34 1902.85 1547.13 1895.68 1564.37 C 1893.13 1570.52 1888.71 1576.32 1884.9 1581.78 L 1887.2 1598.93 C 1869.23 1599.05 1859.48 1606.14 1842.59 1606.67 C 1834.32 1606.93 1813.33 1604.73 1806.75 1599.74 C 1800.86 1587.92 1836.05 1576.65 1841.93 1567.19 C 1845.88 1560.82 1856.62 1536.43 1855.57 1529.84 C 1859.65 1528.75 1864.61 1521.21 1876.43 1518.36 z"/>
<path transform="translate(0,0)" fill="rgb(228,111,66)" d="M 1770.09 984.992 C 1770.94 978.462 1771.68 971.917 1772.29 965.359 C 1788.93 996.548 1792.62 1025.21 1800.55 1059.06 L 1799.73 1059.08 C 1782.24 1059.3 1760.34 1058.69 1746.94 1045.73 C 1746.52 1045.03 1744.42 1041.65 1744.42 1041.66 C 1747.45 1037.63 1753.83 1028.3 1756.29 1024.44 C 1764.74 1011.13 1767.5 999.99 1770.09 984.992 z"/>
<path transform="translate(0,0)" fill="rgb(234,179,176)" d="M 1840.34 1494.54 C 1846.36 1487.99 1849.84 1484.98 1856.7 1479.32 C 1863.1 1494.57 1867.66 1504.29 1876.43 1518.36 C 1864.61 1521.21 1859.65 1528.75 1855.57 1529.84 C 1851.85 1515.63 1847.36 1507.03 1840.34 1494.54 z"/>
<path transform="translate(0,0)" fill="rgb(249,242,234)" d="M 1857.96 1607.32 C 1864.85 1604.62 1872.01 1601.38 1879.5 1602.06 C 1878.44 1604.19 1876.54 1607.74 1875.74 1609.83 L 1874.72 1610.19 C 1871.39 1609.77 1863.52 1610.01 1859.87 1610.03 L 1857.96 1607.32 z"/>
<path transform="translate(0,0)" fill="rgb(126,102,99)" d="M 1609.21 1231.89 C 1615.25 1218.73 1639.84 1193.77 1651.21 1184.65 C 1684.49 1157.94 1724.75 1136.41 1763.71 1119.27 C 1761.09 1125.25 1755.09 1136.59 1754.78 1142.07 C 1749.9 1143.16 1704.93 1166.7 1702.44 1169.82 L 1702.19 1171.78 C 1699.44 1173.9 1699.06 1174.19 1695.92 1175.59 L 1694.08 1174.72 C 1675.76 1183.08 1658.24 1198.33 1640.93 1208.89 C 1630.14 1215.47 1619.84 1225.23 1609.21 1231.89 z"/>
<path transform="translate(0,0)" fill="rgb(249,242,234)" d="M 1072.27 419.677 C 1081.19 416.837 1106.97 424.513 1115.83 429.107 C 1135.63 439.147 1150.51 456.797 1157.06 478.012 C 1166.57 508.527 1151.75 571.541 1148.65 605.905 C 1146.56 606.899 1145.35 606.997 1143.09 607.258 C 1140.22 609.983 1140.55 608.932 1139.54 612.298 C 1141.87 619.128 1150.45 617.738 1142.47 624.816 L 1140.22 626.826 C 1139.49 632.59 1142.44 632.868 1144.35 636.557 L 1145.97 637.398 C 1146.01 643.289 1145.51 646.462 1144.67 652.271 L 1142.76 651.836 C 1137.31 653.295 1133.33 654.378 1135.44 661.041 C 1137.9 663.273 1137.73 663.263 1140.91 664.027 C 1139.59 672.814 1138.48 681.631 1137.58 690.47 C 1013.16 652.054 878.543 664.952 763.677 726.297 C 731.621 743.386 701.595 764.036 674.169 787.856 C 678.648 763.075 682.773 738.568 676.442 713.753 L 674.109 713.516 C 669.809 711.717 658.576 709.792 653.01 708.466 C 639.465 705.239 628.793 701.976 615.847 696.916 C 615.699 709.249 618.397 737.945 615.578 746.807 C 611.93 749.787 602.786 744.712 598.85 742.762 L 596.286 741.773 C 587.278 731.108 583.748 691.731 585.747 677.583 L 587.324 675.873 C 574.774 656.542 559.408 636.895 556.385 614.075 C 562.264 619.044 568.204 630.465 573.358 634.373 C 577.191 634.604 575.47 635.043 578.714 633.049 C 581.384 626.078 567.749 619.461 566.778 612.135 L 571.207 611.221 C 594.647 616.858 618.516 618.58 641.335 621.075 C 749.69 632.92 815.157 600.356 898.255 535.34 C 921.965 516.79 955.78 494.573 981.092 476.041 C 1002.24 460.553 1047.92 427.858 1072.27 419.677 z"/>
<path transform="translate(0,0)" fill="rgb(57,41,35)" d="M 587.324 675.873 C 593.207 672.302 606.858 666.659 614.311 663.576 C 639.61 653.409 668.585 634.72 696.677 639.07 C 701.185 639.768 707.606 644.39 709.423 648.479 C 722.026 676.854 695.19 699.737 676.442 713.753 L 674.109 713.516 C 669.809 711.717 658.576 709.792 653.01 708.466 C 639.465 705.239 628.793 701.976 615.847 696.916 C 615.699 709.249 618.397 737.945 615.578 746.807 C 611.93 749.787 602.786 744.712 598.85 742.762 L 596.286 741.773 C 587.278 731.108 583.748 691.731 585.747 677.583 L 587.324 675.873 z"/>
<path transform="translate(0,0)" fill="rgb(43,41,39)" d="M 1144.35 636.557 L 1145.97 637.398 C 1146.01 643.289 1145.51 646.462 1144.67 652.271 L 1142.76 651.836 C 1142.94 647.496 1143.85 641.013 1144.35 636.557 z"/>
<path transform="translate(0,0)" fill="rgb(249,242,234)" d="M 1702.19 1171.78 C 1718.11 1162.46 1733.73 1155.91 1749.63 1147.15 C 1731.95 1186.9 1715.63 1224.45 1702.44 1266.08 C 1694.26 1291.86 1683.18 1303.38 1685.24 1333.21 C 1743.39 1369.38 1789.86 1426.92 1825.26 1484.74 C 1828.59 1490.19 1831.62 1496.64 1835.34 1501.73 C 1837.7 1500.61 1836.94 1500.98 1838.89 1499.04 C 1843.07 1501.14 1849.26 1517.83 1850.81 1522.49 C 1851.75 1525.35 1852.65 1528.21 1853.49 1531.1 C 1849.94 1542.88 1847.12 1555.38 1839.84 1565.55 C 1832.08 1576.4 1800.09 1586.12 1802.48 1599.61 C 1807.7 1606.03 1823.86 1607.67 1831.77 1608.29 L 1831 1609.57 C 1819.61 1610.59 1799.01 1609.92 1786.67 1609.92 L 1703.5 1609.91 L 1558.8 1609.97 C 1549.52 1609.99 1500.73 1610.68 1494.92 1609.12 C 1510.5 1604.01 1508.27 1601.2 1527.56 1600.99 C 1527.4 1594.66 1526.4 1587.2 1525.71 1580.8 C 1527.39 1576.93 1530.61 1571.71 1532.7 1567.84 C 1543.89 1547.26 1532.34 1535.21 1521.06 1518.19 C 1522.36 1511.55 1523.68 1503.78 1525.62 1497.35 C 1527.19 1492.15 1528 1496.65 1531.65 1494.86 C 1547.94 1435.47 1568.36 1377.67 1584.64 1318.46 C 1586.11 1313.1 1579.06 1272.55 1577.94 1265.42 C 1587.65 1256.05 1600.55 1242.81 1610.63 1234.56 C 1636.72 1213.19 1667.34 1193.68 1695.92 1175.59 C 1699.06 1174.19 1699.44 1173.9 1702.19 1171.78 z"/>
<path transform="translate(0,0)" fill="rgb(163,131,129)" d="M 476.024 1144.82 C 493.435 1152.14 531.765 1149.22 549.888 1145.19 C 561.676 1142.56 593.691 1133.31 601.408 1124.95 C 608.676 1140.84 611.36 1167.41 610.837 1184.85 L 511.01 1277.29 C 516.082 1294.66 526.027 1332.98 528.499 1350.1 C 533.896 1387.46 547.154 1506.9 540.488 1538.83 C 535.801 1539.06 528.221 1539.14 524.016 1540.33 C 517.178 1541.35 504.918 1541.33 497.958 1540.78 C 494.933 1539.35 485.54 1539.89 481.621 1539.93 C 482.616 1523.93 484.777 1507.87 485.686 1491.49 C 488.052 1452.01 486.989 1412.4 482.51 1373.1 C 480.896 1358.09 478.903 1338.83 474.526 1324.55 C 469.21 1307.66 461.216 1291.74 450.85 1277.38 C 462.995 1250.84 464.698 1248.08 481.761 1224.07 C 477.953 1224.53 450.285 1240.36 443.536 1243.74 C 420.144 1255.46 396.415 1266.49 372.379 1276.82 C 362.287 1281.25 348.041 1287.93 337.93 1291.61 C 334.29 1297.4 350.269 1392.66 352.081 1404.81 C 359.199 1452.55 350.063 1493.86 332.476 1538 C 328.019 1537.81 321.266 1536.86 318.106 1539.52 L 317.473 1541.77 L 316.42 1539.83 C 310.391 1537.87 301.899 1539.73 294.493 1537.91 C 290.697 1536.32 283.985 1536.68 279.586 1536.6 C 281.163 1522.21 284.278 1505.63 286.144 1490.71 C 289.345 1464.99 291.353 1439.14 292.162 1413.24 C 291.935 1398.79 291.93 1384.34 292.145 1369.89 C 291.475 1340.65 286.237 1326.09 281.747 1298.03 C 301.126 1269.89 305.264 1262.31 332.938 1241.08 C 377.628 1206.81 421.622 1183.81 472.376 1160.41 C 473.433 1153.89 473.926 1151.01 476.024 1144.82 z"/>
<path transform="translate(0,0)" fill="rgb(126,102,99)" d="M 337.93 1291.61 C 341.905 1285.11 375.163 1252.18 381.557 1248.17 C 424.786 1221.08 471.838 1193.63 517.708 1171.19 C 507.386 1185.15 497.584 1199.56 487.596 1213.76 C 486.576 1215.21 481.642 1224.19 481.761 1224.07 C 477.953 1224.53 450.285 1240.36 443.536 1243.74 C 420.144 1255.46 396.415 1266.49 372.379 1276.82 C 362.287 1281.25 348.041 1287.93 337.93 1291.61 z"/>
<path transform="translate(0,0)" fill="rgb(126,102,99)" d="M 292.145 1369.89 C 293.3 1378.34 293.83 1405.02 292.162 1413.24 C 291.935 1398.79 291.93 1384.34 292.145 1369.89 z"/>
<path transform="translate(0,0)" fill="rgb(231,157,97)" d="M 637.504 825.971 C 658.57 840.62 685.25 857.283 708.72 867.828 C 711.44 897.196 717.97 928.776 729.923 955.998 C 731.968 960.655 740.877 975.389 739.8 978.496 C 730.556 982.259 714.272 988.756 706.838 995.159 C 700.832 992.9 672.433 949.987 667.073 941.878 C 655.506 1006.95 628.018 1065.33 601.408 1124.95 C 593.691 1133.31 561.676 1142.56 549.888 1145.19 C 531.765 1149.22 493.435 1152.14 476.024 1144.82 C 484.494 1125.61 497.362 1104.75 504.777 1084.58 C 505.271 1083.23 506.053 1072.4 506.555 1069.28 C 508.954 1039.29 512.318 992.667 518.751 964.592 C 515.51 959.556 531.481 895.37 533.954 884.846 L 537.708 867.799 C 548.18 856.662 560.433 854.148 573.552 847.239 C 577.387 845.219 591.34 835.659 594.296 835.437 L 596.561 837.659 C 600.58 846.081 602.07 848.029 608.796 854.148 C 619.821 846.857 630.875 837.554 637.504 825.971 z"/>
<path transform="translate(0,0)" fill="rgb(234,179,176)" d="M 518.751 964.592 L 528.894 967.972 C 527.914 989.526 524.666 1013.7 521.043 1035.04 C 520.128 1040.43 512.131 1068.09 508.959 1071.44 C 506.943 1070.32 507.622 1071.15 506.555 1069.28 C 508.954 1039.29 512.318 992.667 518.751 964.592 z"/>
<path transform="translate(0,0)" fill="rgb(228,111,66)" d="M 533.954 884.846 C 535.771 892.642 531.103 959.832 528.894 967.972 L 518.751 964.592 C 515.51 959.556 531.481 895.37 533.954 884.846 z"/>
<path transform="translate(0,0)" fill="rgb(142,171,176)" d="M 604.158 1123.97 C 631.747 1067.75 654.491 1009.51 668.631 948.43 C 677.099 960.778 685.668 973.056 694.339 985.263 C 685.679 989.154 677.173 993.54 668.683 997.801 C 672.549 1014.1 676.205 1030.45 679.649 1046.84 C 676.045 1049.65 665.306 1079.43 662.563 1086.13 C 653.858 1107.14 644.59 1127.91 634.77 1148.43 C 642.099 1170.29 644.412 1186.51 644.017 1209.51 C 611.175 1240.47 577.174 1270.79 544.539 1301.86 C 598.544 1400.3 695.626 1503.02 806.29 1533.8 C 900.807 1560.08 1055.65 1547.04 1153.61 1535.9 C 1172.27 1533.78 1190.91 1531.47 1209.52 1528.98 C 1217.25 1527.95 1241.21 1524.16 1247.2 1524.82 C 1225.9 1531.65 1195.57 1536.83 1173.05 1541.85 L 1044.03 1570.63 L 943.994 1593.02 C 863.399 1611.12 826.29 1623.6 749.403 1578.13 C 630.749 1507.96 555.155 1404.52 520.657 1271.62 L 613.15 1185.94 C 613.657 1160.95 611.171 1147.65 604.158 1123.97 z"/>
<path transform="translate(0,0)" fill="rgb(249,242,234)" d="M 333.726 1540.33 C 342.501 1520.22 346.567 1506.56 351.743 1485.01 C 355.906 1491.44 364.896 1506.28 370.582 1510.71 C 398.068 1532.12 431.973 1545.27 447.491 1578.95 C 443.544 1588.98 441.103 1599.69 438.973 1610.24 L 352.34 1610.45 C 343.808 1610.33 328.323 1611.01 320.714 1609.82 C 319.539 1606.96 320.227 1606.44 320.74 1602.83 L 320.965 1601.53 C 322.889 1590.02 323.496 1570.45 322.713 1558.65 C 322.298 1552.38 316.512 1548.99 320.394 1541.23 C 323.555 1539.79 329.951 1540.29 333.726 1540.33 z"/>
<path transform="translate(0,0)" fill="rgb(234,179,176)" d="M 739.8 978.496 C 740.345 992.801 752.772 1035.49 756.604 1051.4 C 769.411 1104.58 785.523 1158.87 798.007 1212.04 L 806.408 1217.12 C 807.324 1229.77 808.554 1243.29 809.163 1255.88 C 817.505 1267.94 827.029 1282.52 835.747 1294.06 L 813.484 1301.77 C 802.227 1288.02 790.382 1273.05 778.883 1259.63 C 778.306 1254.97 777.816 1250.29 777.412 1245.61 C 772.893 1254.54 771.824 1259.61 771.003 1269.5 C 770.421 1276.53 771.224 1277.2 763.678 1276.71 C 751.674 1269.3 767.952 1226.03 780.528 1218.46 C 762.94 1156.39 742.086 1095.01 723.042 1033.37 C 718.417 1018.4 715.517 1008.4 706.838 995.159 C 714.272 988.756 730.556 982.259 739.8 978.496 z"/>
<path transform="translate(0,0)" fill="rgb(234,179,176)" d="M 615.847 696.916 C 628.793 701.976 639.465 705.239 653.01 708.466 C 658.576 709.792 669.809 711.717 674.109 713.516 C 678.661 733.406 677.519 754.04 674.223 774.358 C 672.434 785.387 669.426 815.902 653.03 813.835 C 649.277 813.362 641.19 810.37 637.306 808.83 C 637.227 814.09 636.926 820.884 637.504 825.971 C 630.875 837.554 619.821 846.857 608.796 854.148 C 602.07 848.029 600.58 846.081 596.561 837.659 C 603.536 824.455 610.163 805.7 615.439 791.434 C 603.354 776.059 599.932 761.836 598.85 742.762 C 602.786 744.712 611.93 749.787 615.578 746.807 C 618.397 737.945 615.699 709.249 615.847 696.916 z"/>
<path transform="translate(0,0)" fill="rgb(142,171,176)" d="M 294.493 1537.91 C 301.899 1539.73 310.391 1537.87 316.42 1539.83 L 317.473 1541.77 L 316.741 1552.1 C 317.437 1552.89 318.346 1553.93 319.47 1555.21 C 322.089 1568.19 319.792 1583.14 319.401 1596.34 C 319.33 1598.73 318.983 1600.12 319.053 1602 L 320.74 1602.83 C 320.227 1606.44 319.539 1606.96 320.714 1609.82 C 328.323 1611.01 343.808 1610.33 352.34 1610.45 C 340.844 1613.58 324.754 1608.28 316.782 1613.95 C 287.214 1614.19 257.441 1615.08 228.149 1611.79 C 223.661 1611.28 217.449 1611.61 212.868 1611.78 C 213.32 1601.12 213.434 1594.92 216.811 1584.84 L 219.765 1584.86 C 230.527 1569.88 251.415 1571.08 267.176 1563.74 C 272.391 1561.09 276.634 1555.7 281.793 1553.08 C 284.025 1551.96 287.568 1552.24 290.528 1551.11 C 291.85 1547.35 293.321 1541.84 294.493 1537.91 z"/>
<path transform="translate(0,0)" fill="rgb(43,41,39)" d="M 216.811 1584.84 L 219.765 1584.86 C 215.853 1593.71 215.966 1599.49 215.305 1609.21 L 280.288 1608.84 C 289.377 1608.76 308.682 1608.98 316.842 1607.74 C 318.581 1605.31 318.452 1604.88 319.053 1602 L 320.74 1602.83 C 320.227 1606.44 319.539 1606.96 320.714 1609.82 C 328.323 1611.01 343.808 1610.33 352.34 1610.45 C 340.844 1613.58 324.754 1608.28 316.782 1613.95 C 287.214 1614.19 257.441 1615.08 228.149 1611.79 C 223.661 1611.28 217.449 1611.61 212.868 1611.78 C 213.32 1601.12 213.434 1594.92 216.811 1584.84 z"/>
<path transform="translate(0,0)" fill="rgb(234,179,176)" d="M 294.493 1537.91 C 301.899 1539.73 310.391 1537.87 316.42 1539.83 L 317.473 1541.77 L 316.741 1552.1 C 308.156 1552.39 299.213 1551.4 290.528 1551.11 C 291.85 1547.35 293.321 1541.84 294.493 1537.91 z"/>
<path transform="translate(0,0)" fill="rgb(142,171,176)" d="M 1501.32 1516.24 C 1510.57 1514.04 1511.11 1510.99 1518.79 1515.62 C 1518.05 1523.59 1532 1536.01 1533.92 1542.38 C 1537.98 1555.89 1529.55 1568.26 1523.57 1579.33 C 1523.69 1585.57 1524.7 1592.43 1525.47 1598.68 C 1513.82 1598.89 1506.35 1601.83 1495.7 1605.63 C 1484.51 1609.61 1443.14 1608.34 1437.7 1597.75 C 1439.25 1588.18 1468.33 1579.08 1477.21 1571.54 C 1489.39 1561.18 1490.21 1540.48 1491.87 1525.43 C 1496.02 1522.57 1499.71 1520.68 1501.32 1516.24 z"/>
<path transform="translate(0,0)" fill="rgb(142,171,176)" d="M 492.474 1561.08 C 503.643 1560.78 513.808 1562.97 524.316 1563.13 C 524.618 1563.71 541.921 1584.26 543.763 1586.63 C 544.854 1594.04 544.976 1602.43 545.284 1609.99 L 441.254 1609.97 C 443.12 1601.71 445.096 1590.86 448.704 1583.31 C 453.366 1572.75 466.691 1572.42 474.769 1567.61 C 482.702 1562.89 485.801 1563.78 492.474 1561.08 z"/>
<path transform="translate(0,0)" fill="rgb(142,171,176)" d="M 710.933 762.01 C 709.534 783.16 708.16 804.539 701.707 824.88 C 694.109 848.829 682.068 834.434 671.63 836.771 C 669.466 839.181 670.209 839.958 669.958 844.162 C 659.36 838.225 649.354 831.121 639.318 824.265 C 639.364 820.393 639.579 816.533 639.76 812.665 C 664.14 820.668 666.964 813.787 673.631 791.616 C 684.486 781.685 698.946 770.413 710.933 762.01 z"/>
<path transform="translate(0,0)" fill="rgb(142,171,176)" d="M 711.866 875.407 C 721.687 880.858 731.65 886.051 741.744 890.98 C 743.742 910.466 748.561 941.357 755.731 959.583 C 750.797 961.075 742.69 964.682 737.665 966.749 C 722.766 937.452 716.023 907.722 711.866 875.407 z"/>
<path transform="translate(0,0)" fill="rgb(234,179,176)" d="M 497.958 1540.78 C 504.918 1541.33 517.178 1541.35 524.016 1540.33 C 523.899 1548.18 523.711 1555.27 524.316 1563.13 C 513.808 1562.97 503.643 1560.78 492.474 1561.08 C 494.948 1553.71 496.228 1548.4 497.958 1540.78 z"/>
<path transform="translate(0,0)" fill="rgb(163,131,129)" d="M 1853.06 1608.34 L 1857.96 1607.32 L 1859.87 1610.03 C 1863.52 1610.01 1871.39 1609.77 1874.72 1610.19 C 1867.31 1612.04 1496.14 1611.62 1488.73 1609.93 C 1491.33 1609.41 1492.27 1609.3 1494.92 1609.12 C 1500.73 1610.68 1549.52 1609.99 1558.8 1609.97 L 1703.5 1609.91 L 1786.67 1609.92 C 1799.01 1609.92 1819.61 1610.59 1831 1609.57 L 1831.77 1608.29 C 1839.77 1608.7 1844.98 1609 1853.06 1608.34 z"/>
<path transform="translate(0,0)" fill="rgb(249,242,234)" d="M 1853.06 1608.34 L 1857.96 1607.32 L 1859.87 1610.03 C 1857.91 1609.95 1855.95 1609.85 1853.99 1609.73 L 1853.06 1608.34 z"/>
<path transform="translate(0,0)" fill="rgb(234,179,176)" d="M 1507.26 1489.6 C 1513.74 1490.19 1518.33 1490.55 1524.65 1491.93 C 1523.47 1496.89 1520.34 1511.54 1518.79 1515.62 C 1511.11 1510.99 1510.57 1514.04 1501.32 1516.24 L 1507.26 1489.6 z"/>
<path transform="translate(0,0)" fill="rgb(126,102,99)" d="M 1458.26 1608.33 C 1462.83 1608.66 1468.96 1608.72 1473.09 1610.25 C 1463.53 1611.45 1438.03 1611.09 1427.17 1611.04 C 1404.06 1610.93 1378.49 1611.77 1355.63 1610.81 L 1355.13 1609.67 C 1365.19 1610.81 1395.7 1610.13 1407.19 1610.07 C 1419.45 1610.01 1447.32 1610.74 1458.59 1609.59 L 1458.26 1608.33 z"/>
<path transform="translate(0,0)" fill="rgb(145,145,125)" d="M 450.469 1242.9 C 455.163 1240.21 459.643 1236.99 464.853 1236.46 L 466.53 1237.39 C 467.273 1241.71 457.156 1257.61 454.258 1263.85 C 453.203 1266.1 451.884 1269.13 450.696 1271.21 C 449.704 1273.86 447.917 1276.37 449.322 1278.84 C 459.009 1295.87 472.189 1316.79 475.143 1336.54 C 481.039 1375.96 485.275 1417.31 484.636 1457.29 C 484.344 1473.85 483.519 1490.4 482.163 1506.9 C 481.529 1514.2 478.161 1537.48 480.878 1542.31 L 495.362 1542.1 C 493.921 1547.71 492.429 1553.3 490.885 1558.88 C 484.7 1560.35 483.27 1561.08 477.556 1563.91 C 468.244 1568.25 457.17 1570.46 449.356 1576.58 C 438.89 1554.95 414.308 1535.93 393.822 1523.68 C 370.728 1509.88 366.396 1504.36 352.505 1481.13 C 356.044 1458.98 357.979 1442.12 356.282 1419.67 C 383.281 1411.75 388.568 1414.81 413.811 1414.74 C 392.25 1407.32 377.437 1406.72 355.281 1408.21 C 348.979 1375.12 341.615 1326.67 339.605 1293.63 C 375.912 1277.94 412.789 1262.08 447.979 1244.08 L 450.469 1242.9 z"/>
<path transform="translate(0,0)" fill="rgb(124,124,106)" d="M 480.878 1542.31 L 495.362 1542.1 C 493.921 1547.71 492.429 1553.3 490.885 1558.88 C 484.7 1560.35 483.27 1561.08 477.556 1563.91 C 478.74 1557.82 480.966 1548.21 480.878 1542.31 z"/>
<path transform="translate(0,0)" fill="rgb(145,145,125)" d="M 450.469 1242.9 C 455.163 1240.21 459.643 1236.99 464.853 1236.46 L 466.53 1237.39 C 467.273 1241.71 457.156 1257.61 454.258 1263.85 C 453.216 1256.7 451.871 1249.97 450.469 1242.9 z"/>
<path transform="translate(0,0)" fill="rgb(124,124,106)" d="M 447.979 1244.08 L 450.469 1242.9 C 451.871 1249.97 453.216 1256.7 454.258 1263.85 C 453.203 1266.1 451.884 1269.13 450.696 1271.21 C 450.775 1263.38 451.37 1250.85 447.979 1244.08 z"/>
<path transform="translate(0,0)" fill="rgb(145,145,125)" d="M 1590.34 938.405 C 1611.73 937.42 1633.15 939.441 1653.99 944.41 C 1644.07 972.707 1654.22 987.792 1653.57 1013.71 C 1653.08 1033.59 1625.58 1068.91 1613.31 1085.59 C 1589.55 1067.06 1556.11 1043.43 1524.06 1047.84 C 1522.62 1048.04 1522.8 1048.49 1522.29 1049.74 C 1528.4 1051.95 1535.67 1052.91 1542.69 1055.3 C 1568.6 1064.14 1585.64 1078.77 1602.66 1099.45 C 1580.18 1113.67 1566.93 1128.85 1551.49 1149.49 C 1533.31 1176.48 1524.59 1194.54 1513.19 1224.97 C 1501.8 1220.19 1491.16 1215.92 1479 1213.32 C 1489.88 1143.13 1476.63 1066.59 1456.3 999.39 C 1458.4 997.373 1459.21 1000.9 1463.79 1000.21 C 1463.54 997.767 1456.39 984.528 1454.53 980.204 C 1494.59 954.483 1543.21 941.617 1590.34 938.405 z"/>
<path transform="translate(0,0)" fill="rgb(249,242,234)" d="M 1249.56 1527.21 C 1254.78 1526.73 1258.09 1535.48 1261.25 1541.15 C 1278.99 1572.96 1298.5 1592.63 1330.57 1610.18 C 1209.34 1611.95 1084.15 1610.37 962.5 1610.44 C 942.21 1610.47 899.278 1611.6 881.233 1609.58 C 892.076 1606.36 909.931 1603.01 921.66 1600.39 L 1001.28 1582.62 L 1249.56 1527.21 z"/>
<path transform="translate(0,0)" fill="rgb(249,242,234)" d="M 606.492 1456.26 C 657.148 1520.25 740.608 1593.02 822.309 1609.72 C 802.069 1611.05 775.661 1610.44 755 1610.39 L 620.254 1610.39 C 596.903 1610.38 571.003 1610.92 547.833 1610.19 C 547.183 1598.43 548.6 1590.03 541.858 1580 C 567.67 1548.81 601.692 1497.32 606.492 1456.26 z"/>
<path transform="translate(0,0)" fill="rgb(145,145,125)" d="M 1425.04 1387.07 C 1431.16 1387.53 1441.37 1387.72 1446.78 1389.84 C 1455.57 1401.07 1436.55 1468.76 1429.37 1482.81 C 1423.68 1493.95 1409.58 1507.13 1401.1 1517.12 C 1390.75 1529.32 1384.43 1537.86 1376.01 1551.52 C 1362.75 1573.06 1369.18 1592.57 1350.81 1609.87 C 1345.79 1610.27 1338.27 1611.1 1333.89 1608.72 C 1295.87 1591.69 1274.47 1560.98 1255.47 1525.89 C 1267.91 1523.08 1281.15 1520.48 1293.22 1516.64 C 1307.53 1513.11 1324.68 1503.35 1337.69 1496.21 C 1345.24 1489.75 1357.76 1481.26 1364.25 1474.55 C 1386.63 1451.41 1410.5 1415.48 1425.04 1387.07 z"/>
<path transform="translate(0,0)" fill="rgb(145,145,125)" d="M 1255.47 1525.89 C 1267.91 1523.08 1281.15 1520.48 1293.22 1516.64 C 1300.13 1534.68 1306.92 1551.85 1314.9 1569.48 C 1320.07 1580.89 1330.19 1597.51 1333.89 1608.72 C 1295.87 1591.69 1274.47 1560.98 1255.47 1525.89 z"/>
<path transform="translate(0,0)" fill="rgb(124,124,106)" d="M 1293.22 1516.64 C 1307.53 1513.11 1324.68 1503.35 1337.69 1496.21 C 1330 1511.44 1324.13 1519.08 1311.1 1530.37 C 1319.28 1550.07 1338.56 1592.95 1350.81 1609.87 C 1345.79 1610.27 1338.27 1611.1 1333.89 1608.72 C 1330.19 1597.51 1320.07 1580.89 1314.9 1569.48 C 1306.92 1551.85 1300.13 1534.68 1293.22 1516.64 z"/>
<path transform="translate(0,0)" fill="rgb(211,211,211)" d="M 756.11 961.917 C 777.5 953.992 799.784 945.73 821.528 938.794 C 827.89 963.706 833.456 991.083 839.067 1016.33 C 819.023 1022.03 799.089 1028.11 779.274 1034.57 C 778.247 1039.55 829.96 1263.93 834.835 1288.31 C 826.929 1277.42 819.168 1266.43 811.555 1255.33 L 808.766 1215.57 L 799.941 1210.53 L 759.799 1054.04 C 756.656 1041.92 742.645 990.395 742.259 980.481 L 743.917 978.733 C 743.88 975.975 740.542 971.626 738.823 968.803 L 756.11 961.917 z"/>
<path transform="translate(0,0)" fill="rgb(249,242,234)" d="M 756.11 961.917 C 777.5 953.992 799.784 945.73 821.528 938.794 C 827.89 963.706 833.456 991.083 839.067 1016.33 C 819.023 1022.03 799.089 1028.11 779.274 1034.57 C 776.511 1023.54 774.56 1012.38 773.444 1001.1 C 773.275 999.396 766.12 986.037 764.827 983.292 C 761.436 976.097 758.792 969.57 756.11 961.917 z"/>
<path transform="translate(0,0)" fill="rgb(145,145,125)" d="M 534.728 1326.81 C 538.685 1336.48 542.794 1346.27 546.615 1355.98 C 563.494 1391.64 576.658 1415.31 599.999 1447.54 C 591.55 1462.27 577.28 1475.91 564.259 1486.95 C 581.522 1480.17 588.545 1474.84 603.043 1463.02 C 591.544 1503.9 569.009 1547 540.035 1578.13 C 535.773 1572.3 532.264 1566.93 526.624 1562.34 C 526.152 1554.98 525.995 1549.31 526.103 1541.95 C 529.468 1541.87 540.713 1541.96 541.52 1539.62 C 548.878 1518.28 541.257 1459.98 540.755 1438.77 C 539.728 1436.39 533.68 1367.35 532.305 1357.72 L 533.107 1357.44 C 535.472 1353.91 534.771 1332.3 534.728 1326.81 z"/>
<path transform="translate(0,0)" fill="rgb(124,124,106)" d="M 534.728 1326.81 C 538.685 1336.48 542.794 1346.27 546.615 1355.98 C 543.273 1363.57 543.694 1424.04 540.755 1438.77 C 539.728 1436.39 533.68 1367.35 532.305 1357.72 L 533.107 1357.44 C 535.472 1353.91 534.771 1332.3 534.728 1326.81 z"/>
<path transform="translate(0,0)" fill="rgb(249,242,234)" d="M 805.473 1295.88 C 808.12 1299.25 809.95 1302.55 813.844 1303.65 C 817.723 1303.09 818.501 1302.7 822.212 1301.24 L 836.817 1296.37 C 838.815 1305.45 841.182 1315.32 842.912 1324.39 C 849.795 1348.13 858.066 1391.4 863.738 1416.48 L 824.477 1418.69 C 815.17 1383.58 806.446 1338.71 798.376 1302.6 C 799.849 1302.36 801.498 1301.97 802.978 1301.66 C 804.159 1299.34 804.581 1298.25 805.473 1295.88 z"/>
<path transform="translate(0,0)" fill="rgb(211,211,211)" d="M 822.212 1301.24 L 836.817 1296.37 C 838.815 1305.45 841.182 1315.32 842.912 1324.39 C 837.036 1318.37 828.219 1305.01 822.212 1301.24 z"/>
<path transform="translate(0,0)" fill="rgb(249,242,234)" d="M 671.348 999.081 C 676.159 996.631 691.908 988.093 696.341 988.096 C 701.375 994.263 708.697 1001.65 711.761 1008.7 C 717.74 1022.45 722.093 1038.49 726.719 1052.8 C 713.85 1057.51 699.3 1063.57 686.712 1067.87 C 684.775 1058.55 682.918 1049.62 680.584 1040.38 C 678.741 1029.16 674.102 1010.1 671.348 999.081 z"/>
<path transform="translate(0,0)" fill="rgb(211,211,211)" d="M 671.348 999.081 C 676.159 996.631 691.908 988.093 696.341 988.096 C 694.691 992.109 680.645 1038.15 680.584 1040.38 C 678.741 1029.16 674.102 1010.1 671.348 999.081 z"/>
<path transform="translate(0,0)" fill="rgb(145,145,125)" d="M 1477.4 1226.23 C 1486.44 1230.47 1493.98 1234.5 1502.72 1239.29 C 1471.93 1271.64 1455.71 1325.33 1448.1 1368.62 C 1447.63 1371.67 1447.69 1372.41 1446.02 1375.08 C 1441.74 1376.75 1436.21 1375.18 1431.42 1374.67 C 1453.49 1332.39 1471.23 1273.26 1477.4 1226.23 z"/>
<path transform="translate(0,0)" fill="rgb(145,145,125)" d="M 532.305 1357.72 C 528.147 1334.73 523.596 1311.93 517.165 1289.45 C 516.005 1285.39 513.61 1279.99 514.763 1276.38 L 516.52 1275.58 C 518.211 1276.62 519.732 1277.51 520.282 1279.58 C 524.504 1295.51 529.523 1311.19 534.728 1326.81 C 534.771 1332.3 535.472 1353.91 533.107 1357.44 L 532.305 1357.72 z"/>
<path transform="translate(0,0)" fill="rgb(249,242,234)" d="M 583.639 1472.54 C 590.455 1464.99 595.174 1459.21 601.348 1451.12 C 604.125 1452.28 604.763 1453.77 606.492 1456.26 C 601.138 1461 588.964 1472.06 582.925 1474.3 C 582.936 1472.94 582.699 1473.53 583.639 1472.54 z"/>
<path transform="translate(0,0)" fill="rgb(249,242,234)" d="M 356.716 1410.48 C 363.742 1409.94 376.204 1409.22 382.973 1410.76 L 382.561 1411.66 L 376.415 1412.69 C 370.142 1413.4 360.956 1417.45 355.93 1415.35 C 355.543 1412.08 355.359 1413.65 356.716 1410.48 z"/>
<path transform="translate(0,0)" fill="rgb(211,211,211)" d="M 793.952 1282.1 C 797.654 1286.15 801.905 1291.57 805.473 1295.88 C 804.581 1298.25 804.159 1299.34 802.978 1301.66 C 801.498 1301.97 799.849 1302.36 798.376 1302.6 L 793.952 1282.1 z"/>
<path transform="translate(0,0)" fill="rgb(170,206,212)" d="M 879.971 303.337 C 952.336 294.387 1078.54 288.579 1147.08 311.727 C 1165.83 318.059 1183.24 328.456 1199.3 339.88 C 1245.92 378.052 1272.49 420.72 1279.56 482.152 C 1282.75 509.934 1278.54 534.647 1274.96 562.2 L 1266.68 625.476 L 1265.01 624.511 L 1264.03 626.184 C 1250.64 633.291 1170.79 611.128 1152.04 607.535 C 1151.59 606.887 1151.14 606.238 1150.69 605.59 L 1148.65 605.905 C 1151.75 571.541 1166.57 508.527 1157.06 478.012 C 1150.51 456.797 1135.63 439.147 1115.83 429.107 C 1106.97 424.513 1081.19 416.837 1072.27 419.677 C 1030.12 412.41 932.877 415.602 890.979 423.347 C 879.987 428.045 869.063 442.13 858.26 448.532 C 820.06 471.167 762.314 487.485 717.948 486.911 C 718.441 484.835 721.21 477.223 722.175 475.223 C 725.762 467.793 724.958 466.279 732.234 463.315 L 729.683 461.219 C 728.997 459.043 730.289 456.932 731.178 454.215 C 729.151 450.853 730.508 451.936 727.394 450.394 C 721.712 453.131 719.952 460.215 717.373 466.373 C 682.194 480.485 648.005 496.948 615.036 515.65 C 612.881 494.91 612.146 467.496 611.003 446.326 C 610.774 436.331 606.99 394.537 608.74 388.459 L 608.46 386.45 C 692.681 343.361 786.61 316.753 879.971 303.337 z"/>
<path transform="translate(0,0)" fill="rgb(142,171,176)" d="M 611.003 446.326 C 613.775 445.853 624.732 441.856 627.939 440.767 C 638.353 437.187 648.855 433.869 659.435 430.814 C 702.695 418.409 746.357 410.722 790.684 404.107 C 873.152 391.801 957.252 386.543 1039.58 402.929 C 1052.05 405.411 1081.34 412.325 1092.15 418.325 C 1117.81 424.732 1137.63 436.008 1151.54 459.454 C 1157.84 470.1 1161.69 482.009 1162.83 494.325 C 1164.24 509.384 1160.57 531.391 1158.51 546.975 L 1150.69 605.59 L 1148.65 605.905 C 1151.75 571.541 1166.57 508.527 1157.06 478.012 C 1150.51 456.797 1135.63 439.147 1115.83 429.107 C 1106.97 424.513 1081.19 416.837 1072.27 419.677 C 1030.12 412.41 932.877 415.602 890.979 423.347 C 879.987 428.045 869.063 442.13 858.26 448.532 C 820.06 471.167 762.314 487.485 717.948 486.911 C 718.441 484.835 721.21 477.223 722.175 475.223 C 725.762 467.793 724.958 466.279 732.234 463.315 L 729.683 461.219 C 728.997 459.043 730.289 456.932 731.178 454.215 C 729.151 450.853 730.508 451.936 727.394 450.394 C 721.712 453.131 719.952 460.215 717.373 466.373 C 682.194 480.485 648.005 496.948 615.036 515.65 C 612.881 494.91 612.146 467.496 611.003 446.326 z"/>
<path transform="translate(0,0)" fill="rgb(249,242,234)" d="M 732.234 463.315 C 772.911 447.976 814.854 436.229 857.581 428.208 C 865.61 426.682 883.091 423.359 890.979 423.347 C 879.987 428.045 869.063 442.13 858.26 448.532 C 820.06 471.167 762.314 487.485 717.948 486.911 C 718.441 484.835 721.21 477.223 722.175 475.223 C 725.762 467.793 724.958 466.279 732.234 463.315 z"/>
<path transform="translate(0,0)" fill="rgb(43,41,39)" d="M 729.683 461.219 C 734.152 460.381 755.824 452.534 760.861 450.842 C 778.955 444.707 797.301 439.343 815.851 434.764 C 913.42 411.224 993.878 409.514 1092.15 418.325 C 1117.81 424.732 1137.63 436.008 1151.54 459.454 C 1157.84 470.1 1161.69 482.009 1162.83 494.325 C 1164.24 509.384 1160.57 531.391 1158.51 546.975 L 1150.69 605.59 L 1148.65 605.905 C 1151.75 571.541 1166.57 508.527 1157.06 478.012 C 1150.51 456.797 1135.63 439.147 1115.83 429.107 C 1106.97 424.513 1081.19 416.837 1072.27 419.677 C 1030.12 412.41 932.877 415.602 890.979 423.347 C 883.091 423.359 865.61 426.682 857.581 428.208 C 814.854 436.229 772.911 447.976 732.234 463.315 L 729.683 461.219 z"/>
<path transform="translate(0,0)" fill="rgb(43,41,39)" d="M 879.971 303.337 C 952.336 294.387 1078.54 288.579 1147.08 311.727 C 1165.83 318.059 1183.24 328.456 1199.3 339.88 C 1245.92 378.052 1272.49 420.72 1279.56 482.152 C 1282.75 509.934 1278.54 534.647 1274.96 562.2 L 1266.68 625.476 L 1265.01 624.511 C 1264.91 616.457 1268.54 592.039 1269.77 582.864 C 1277.98 522.09 1286.97 479.509 1260.53 420.452 C 1238.91 372.13 1198.98 334.379 1149.52 315.509 C 1114.49 302.206 1072.25 300.233 1034.94 298.823 C 919.052 293.695 803.307 311.758 694.493 351.954 C 663.704 363.375 638.291 375.244 608.74 388.459 L 608.46 386.45 C 692.681 343.361 786.61 316.753 879.971 303.337 z"/>
<path transform="translate(0,0)" fill="rgb(249,242,234)" d="M 489.277 462.813 C 483.484 460.439 476.427 459.499 470.332 457.165 C 435.112 443.679 397.199 422.784 377.155 389.993 C 364.134 368.69 360.313 345.902 372.216 323.924 C 381.369 307.025 398.66 300.922 416.392 298.29 C 450.328 293.253 478.659 312.54 511.778 314.601 C 587.167 321.523 656.922 290.765 728.22 271.531 C 766.473 261.211 815.273 249.305 851.575 270.07 C 863.595 276.946 876.314 289.922 879.971 303.337 C 786.61 316.753 692.681 343.361 608.46 386.45 C 607.745 382.431 607.658 376.271 605.89 373.887 C 601.524 374.154 602.457 373.48 599.313 375.636 C 597.111 383.349 603.987 385.569 597.129 392.566 C 590.383 394.623 576.663 402.411 570.191 405.96 C 538.032 423.595 515.198 436.694 489.277 462.813 z"/>
</svg>