<svg version="1.1" xmlns="http://www.w3.org/2000/svg" style="display: block;" viewBox="0 0 2048 1365" width="2000" height="1333" preserveAspectRatio="none">
<path transform="translate(0,0)" fill="rgb(254,210,210)" d="M 1618.82 377.395 C 1627.18 366.34 1642.92 363.944 1655.9 362.14 C 1690.58 357.32 1753.02 357.927 1782.35 379.789 C 1794.14 388.575 1800.16 405.95 1801.99 420.095 C 1804.79 441.655 1780.85 510.111 1773.47 533.732 C 1729.2 675.323 1680.33 819.397 1623.95 956.606 C 1612.27 985.04 1593.58 1033.67 1575.01 1056.91 C 1568.7 1064.79 1560.27 1067.69 1550.45 1068.74 C 1514.1 1072.63 1456.75 1056.83 1428.29 1033.68 C 1420.64 1027.46 1413.79 1019.17 1412.77 1009 C 1412.33 1004.62 1413.46 999.983 1414.43 995.731 C 1420.55 968.739 1430.38 936.446 1438.09 909.727 C 1451.06 864.026 1464.53 818.467 1478.48 773.058 C 1485.16 751.096 1499.13 710.994 1503.51 690.252 C 1509.75 695.366 1518.98 705.864 1524.61 712.12 C 1537.03 722.96 1549.79 735.472 1565.59 741.597 C 1598.22 754.247 1639.17 719.66 1649.59 690.58 C 1657.71 667.935 1653.77 645.006 1643.41 623.712 C 1639.18 618.132 1634.64 612.525 1629.75 607.526 C 1604.63 581.863 1586.62 548.44 1564.15 521.22 C 1591.76 507.577 1618.74 465.426 1590.23 441.007 C 1592.74 425.558 1610.88 391.463 1618.82 377.395 z"/>
<path transform="translate(0,0)" fill="rgb(82,82,92)" d="M 1618.82 377.395 C 1627.18 366.34 1642.92 363.944 1655.9 362.14 C 1690.58 357.32 1753.02 357.927 1782.35 379.789 C 1794.14 388.575 1800.16 405.95 1801.99 420.095 C 1804.79 441.655 1780.85 510.111 1773.47 533.732 C 1729.2 675.323 1680.33 819.397 1623.95 956.606 C 1612.27 985.04 1593.58 1033.67 1575.01 1056.91 C 1568.7 1064.79 1560.27 1067.69 1550.45 1068.74 C 1514.1 1072.63 1456.75 1056.83 1428.29 1033.68 C 1420.64 1027.46 1413.79 1019.17 1412.77 1009 C 1412.33 1004.62 1413.46 999.983 1414.43 995.731 C 1417.43 1027.38 1455.86 1040.66 1482.33 1048.48 C 1502.64 1054.54 1534.81 1059.35 1553.99 1049.37 C 1564.09 1044.11 1576.55 1008.35 1581.14 996.897 C 1592.42 968.552 1603.36 940.075 1613.97 911.472 C 1653.69 805.353 1691.13 698.39 1726.25 590.657 C 1739.99 548.784 1752.59 506.543 1764.03 463.98 C 1767.75 449.677 1780.6 401.558 1773.48 392.267 C 1749.5 360.946 1646.29 360.554 1618.82 377.395 z"/>
<path transform="translate(0,0)" fill="rgb(197,197,211)" d="M 1750.22 549.419 C 1752.57 549.362 1752.74 549.582 1754.88 550.386 C 1760.25 557.269 1743.77 602.506 1737.71 609.512 C 1735.76 609.158 1730.94 608.041 1731.5 605.361 C 1734.32 591.776 1742.42 559.706 1750.22 549.419 z"/>
<path transform="translate(0,0)" fill="rgb(197,197,211)" d="M 1727.38 615.335 C 1729.79 615.597 1734.77 616.309 1734.27 619.631 C 1732.28 632.859 1723.95 660.939 1716.22 670.93 C 1712.94 671.215 1711.93 670.58 1710.13 668.181 C 1708.78 659.634 1722.39 623.328 1727.38 615.335 z"/>
<path transform="translate(0,0)" fill="rgb(254,187,189)" d="M 1643.41 623.712 C 1659.89 625.535 1660.47 658.748 1658.61 670.258 C 1650.74 719.017 1595.39 806.41 1539.24 802.967 C 1513.7 782.871 1518.1 740.584 1524.61 712.12 C 1537.03 722.96 1549.79 735.472 1565.59 741.597 C 1598.22 754.247 1639.17 719.66 1649.59 690.58 C 1657.71 667.935 1653.77 645.006 1643.41 623.712 z"/>
<path transform="translate(0,0)" fill="rgb(180,226,253)" d="M 633.424 998.807 C 637.758 1017 633.323 1025.9 619.514 1038.15 C 594.601 1060.25 495.805 1091.57 472.469 1060.65 C 457.479 1040.78 434.338 985.869 424.142 961.015 C 407.253 919.53 391.148 877.73 375.835 835.638 C 342.987 745.825 311.98 655.35 282.831 564.27 C 274.082 536.955 265.679 509.531 257.625 482.003 C 248.453 450.1 238.13 426.402 255.76 394.809 C 276.194 358.194 408.833 354.295 429.042 381.468 C 445.721 411.054 457.309 439.856 469.005 471.583 C 473.09 482.664 479.748 499.298 482.365 510.574 C 456.128 540.663 430.935 570.49 407.773 603.07 C 389.471 628.813 387.71 631.085 389.054 661.793 C 393.987 689.88 401.955 712.111 421.738 733.329 C 456.507 770.621 491.21 767.164 526.874 733.773 C 534.704 726.214 540.506 719.43 547.411 711.07 C 555.861 727.909 569.666 777.853 575.616 797.699 C 595.841 864.456 615.113 931.499 633.424 998.807 z"/>
<path transform="translate(0,0)" fill="rgb(82,82,92)" d="M 633.424 998.807 C 637.758 1017 633.323 1025.9 619.514 1038.15 C 594.601 1060.25 495.805 1091.57 472.469 1060.65 C 457.479 1040.78 434.338 985.869 424.142 961.015 C 407.253 919.53 391.148 877.73 375.835 835.638 C 342.987 745.825 311.98 655.35 282.831 564.27 C 274.082 536.955 265.679 509.531 257.625 482.003 C 248.453 450.1 238.13 426.402 255.76 394.809 C 276.194 358.194 408.833 354.295 429.042 381.468 C 401.763 364.798 298.704 365.462 274.918 396.158 C 266.606 406.884 280.985 454.501 283.983 468.332 C 299.37 526.525 318.245 584.819 337.195 641.955 C 366.597 729.922 397.468 817.391 429.796 904.325 C 441.439 935.713 453.383 966.988 465.625 998.147 C 470.649 1010.78 483.673 1048.38 494.526 1053.81 C 529.001 1071.05 633.877 1043.85 633.424 998.807 z"/>
<path transform="translate(0,0)" fill="rgb(197,197,211)" d="M 292.303 553.464 C 297.873 553.776 300.289 555.942 302.193 561.284 C 305.64 570.956 318.728 604.941 315.578 613.581 L 311.006 613.007 C 303.059 607.556 289.076 562.364 292.303 553.464 z"/>
<path transform="translate(0,0)" fill="rgb(197,197,211)" d="M 315.482 619.395 C 321.548 619.797 324.129 624.297 325.793 629.657 C 328.699 639.017 340.91 667.119 337.52 675.514 C 335.785 675.41 334.325 675.054 332.632 674.705 C 324.008 668.096 317.252 639.425 314.437 628.585 C 313.435 624.728 313.525 622.91 315.482 619.395 z"/>
<path transform="translate(0,0)" fill="rgb(137,205,248)" d="M 389.054 661.793 C 393.987 689.88 401.955 712.111 421.738 733.329 C 456.507 770.621 491.21 767.164 526.874 733.773 C 540.058 898.363 388.413 747.42 389.054 661.793 z"/>
<path transform="translate(0,0)" fill="rgb(251,243,237)" d="M 1368.96 334.454 C 1364.96 329.684 1363.12 326.536 1364.02 320.344 C 1366.98 300.061 1384.72 282.428 1406.25 285.997 C 1412.67 286.609 1419.88 289.287 1426.14 289.976 C 1442.94 291.826 1468.57 294.875 1478.95 310.748 C 1492.81 331.954 1494.77 363.636 1507.8 385.964 C 1514.19 396.913 1522.63 404.063 1532.11 412.198 C 1539.13 418.26 1546.01 424.538 1554 429.246 C 1566.15 435.846 1578.35 434.941 1590.23 441.007 C 1618.74 465.426 1591.76 507.577 1564.15 521.22 C 1586.62 548.44 1604.63 581.863 1629.75 607.526 C 1634.64 612.525 1639.18 618.132 1643.41 623.712 C 1653.77 645.006 1657.71 667.935 1649.59 690.58 C 1639.17 719.66 1598.22 754.247 1565.59 741.597 C 1549.79 735.472 1537.03 722.96 1524.61 712.12 C 1518.98 705.864 1509.75 695.366 1503.51 690.252 C 1494.71 678.323 1485.72 667.357 1477.15 655.029 C 1459.87 630.177 1443.67 604.424 1426.43 579.602 C 1407.46 590.613 1387.81 600.418 1367.6 608.957 C 1336.1 622.077 1241.93 652.697 1210.11 647.692 C 1203.38 643.969 1200.24 623.554 1198.21 617.185 L 1197.99 616.503 C 1201.16 613.973 1233.28 603.267 1241.65 599.172 C 1279.96 580.448 1326.2 557.266 1360.58 532.352 C 1307.69 546.177 1273.29 548.487 1218.14 544.69 C 1206.97 543.921 1173.08 542.113 1166.1 534.183 C 1167.31 530.93 1169.79 510.297 1170.12 506.078 C 1177.45 503.511 1200.57 502.665 1209.03 501.837 C 1234.9 499.304 1266.82 498.191 1291.88 491.669 C 1319.55 484.468 1348.5 466.718 1373.85 453.506 C 1384.36 448.03 1393.31 442.181 1404.62 438.152 C 1403.83 437.073 1402.99 436.027 1402.11 435.019 C 1390.95 422.179 1379.54 432.903 1368.9 423.463 C 1365.32 420.289 1366.31 411.651 1365.3 407.844 C 1364.03 403.064 1361.34 404.04 1362.42 397.712 C 1360.48 393.919 1360.81 393.158 1361.74 388.855 C 1362.16 384.336 1357.04 381.342 1353.77 378.496 C 1369.65 352.836 1363.23 361.138 1368.96 334.454 z"/>
<path transform="translate(0,0)" fill="rgb(213,99,31)" d="M 1368.96 334.454 C 1364.96 329.684 1363.12 326.536 1364.02 320.344 C 1366.98 300.061 1384.72 282.428 1406.25 285.997 C 1412.67 286.609 1419.88 289.287 1426.14 289.976 C 1442.94 291.826 1468.57 294.875 1478.95 310.748 C 1492.81 331.954 1494.77 363.636 1507.8 385.964 C 1514.19 396.913 1522.63 404.063 1532.11 412.198 C 1539.13 418.26 1546.01 424.538 1554 429.246 C 1566.15 435.846 1578.35 434.941 1590.23 441.007 C 1618.74 465.426 1591.76 507.577 1564.15 521.22 C 1546.86 527.865 1532.8 529.623 1514.74 524.001 C 1509.12 522.227 1503.65 519.971 1498.41 517.258 C 1490.21 512.991 1482.96 507.219 1475.09 502.582 C 1465.83 497.126 1455.78 494.322 1447.51 486.915 C 1440.8 480.899 1436.91 473.962 1432.79 466.017 L 1429.19 458.207 C 1409.63 460.734 1413.72 452.064 1405.13 438.919 L 1404.62 438.152 C 1403.83 437.073 1402.99 436.027 1402.11 435.019 C 1390.95 422.179 1379.54 432.903 1368.9 423.463 C 1365.32 420.289 1366.31 411.651 1365.3 407.844 C 1364.03 403.064 1361.34 404.04 1362.42 397.712 C 1360.48 393.919 1360.81 393.158 1361.74 388.855 C 1362.16 384.336 1357.04 381.342 1353.77 378.496 C 1369.65 352.836 1363.23 361.138 1368.96 334.454 z"/>
<path transform="translate(0,0)" fill="rgb(253,199,152)" d="M 1368.96 334.454 L 1371.58 331.002 C 1386.42 329.368 1401.23 347.673 1410.71 355.807 C 1413.8 368.917 1418.19 386.994 1425.19 398.734 C 1427.27 403.468 1422.12 420.588 1422.62 427.905 C 1423.41 439.598 1425.18 447.191 1429.19 458.207 C 1409.63 460.734 1413.72 452.064 1405.13 438.919 L 1404.62 438.152 C 1403.83 437.073 1402.99 436.027 1402.11 435.019 C 1390.95 422.179 1379.54 432.903 1368.9 423.463 C 1365.32 420.289 1366.31 411.651 1365.3 407.844 C 1364.03 403.064 1361.34 404.04 1362.42 397.712 C 1360.48 393.919 1360.81 393.158 1361.74 388.855 C 1362.16 384.336 1357.04 381.342 1353.77 378.496 C 1369.65 352.836 1363.23 361.138 1368.96 334.454 z"/>
<path transform="translate(0,0)" fill="rgb(238,163,117)" d="M 1362.42 397.712 C 1360.48 393.919 1360.81 393.158 1361.74 388.855 L 1362.55 391.178 C 1367.08 393.147 1370.13 393.3 1375.01 393.918 C 1373.72 396.141 1365.2 397.478 1362.42 397.712 z"/>
<path transform="translate(0,0)" fill="rgb(213,99,31)" d="M 1371.93 339.639 C 1376.98 340.241 1385.84 342.513 1390.27 344.925 L 1389.67 346.116 C 1382.79 345.031 1376.96 346.605 1371.82 345.04 C 1370.43 342.331 1370.73 343.454 1371.93 339.639 z"/>
<path transform="translate(0,0)" fill="rgb(62,60,56)" d="M 1370.51 355.075 C 1374.35 354.883 1378.74 354.157 1381.99 355.777 C 1383.89 359.565 1383.15 359.547 1382.82 364.367 C 1376.06 363.018 1379.14 360.077 1370.51 355.075 z"/>
<path transform="translate(0,0)" fill="rgb(169,71,14)" d="M 1425.19 398.734 C 1431.72 392.019 1430.35 357.986 1429.27 347.832 C 1428.73 342.783 1426.09 334.814 1426.51 330.498 C 1432.6 342.279 1434.54 369.959 1432.82 382.538 C 1429.18 409.294 1421.25 430.104 1431.08 456.777 C 1431.86 458.909 1432.99 463.635 1432.79 466.017 L 1429.19 458.207 C 1425.18 447.191 1423.41 439.598 1422.62 427.905 C 1422.12 420.588 1427.27 403.468 1425.19 398.734 z"/>
<path transform="translate(0,0)" fill="rgb(169,71,14)" d="M 1460.24 330.446 C 1470.21 334.719 1485.56 379.03 1491.18 390.912 C 1507.32 425.038 1525.96 440.654 1559.92 456.818 C 1542.88 455.745 1529.07 447.264 1516.05 436.94 C 1480.77 408.957 1481.87 366.381 1460.24 330.446 z"/>
<path transform="translate(0,0)" fill="rgb(169,71,14)" d="M 1467.85 404.934 C 1481.59 411.586 1491.26 464.532 1514.88 476.588 C 1526.1 483.875 1538.74 488.381 1551.67 491.596 C 1556.58 492.816 1562.37 493.525 1567.1 495.616 C 1555.82 496.412 1536.79 492.305 1526.85 488.032 C 1496.64 475.045 1488.37 454.496 1477.97 425.815 C 1474.89 417.315 1470.76 412.206 1467.85 404.934 z"/>
<path transform="translate(0,0)" fill="rgb(169,71,14)" d="M 1395.28 293.873 L 1396.34 294.207 C 1394.23 298.333 1378.8 298.808 1370.61 323.375 L 1370.09 323.512 L 1369.37 322.642 C 1372.52 305.527 1379.62 299.913 1395.28 293.873 z"/>
<path transform="translate(0,0)" fill="rgb(251,228,204)" d="M 1430.63 473.801 L 1431.71 475.12 C 1430.88 478.339 1426.2 482.845 1423.91 485.509 C 1406.81 505.389 1389.19 518.897 1366.15 530.974 C 1365.51 530.119 1365.73 530.288 1365.54 529.082 C 1385.13 511.775 1410.42 490.684 1430.63 473.801 z"/>
<path transform="translate(0,0)" fill="rgb(251,228,204)" d="M 1483.65 533.922 L 1484.47 534.698 C 1477.71 548.052 1442.48 570.228 1429.73 577.787 L 1429.02 577.203 C 1429.9 574.395 1438.82 568.556 1441.71 566.301 C 1455.65 555.459 1469.65 544.68 1483.65 533.922 z"/>
<path transform="translate(0,0)" fill="rgb(69,122,227)" d="M 482.365 510.574 C 507.764 482.443 555.6 430.669 593.812 425.526 C 590.609 428.89 587.361 432.21 584.07 435.487 C 588.859 451.463 598.254 460.837 612.817 469.06 C 626.098 476.56 639.945 476.932 638.45 457.159 L 648.067 445.245 C 692.11 464.72 735.341 484.289 783.582 490.653 C 813.674 494.623 841.671 495.061 871.885 493.096 C 873.488 492.992 875.643 493.808 876.941 494.735 C 882.307 508.54 883.017 515.017 883.509 530.104 C 882.909 532.673 882.656 535.668 879.902 536.713 C 839.729 551.958 755.382 553.088 715.174 551.082 L 715.005 552.05 C 743.786 566.088 772.74 579.766 801.863 593.08 C 810.25 596.953 855.04 616.2 857.326 621.209 C 854.085 635.496 852.984 644.202 847.479 658.203 C 829.869 659.028 811.189 656.256 793.812 653.624 C 731.187 644.139 678.067 623.628 620.786 597.871 C 601.746 629.805 569.572 683.038 547.411 711.07 C 540.506 719.43 534.704 726.214 526.874 733.773 C 491.21 767.164 456.507 770.621 421.738 733.329 C 401.955 712.111 393.987 689.88 389.054 661.793 C 387.71 631.085 389.471 628.813 407.773 603.07 C 430.935 570.49 456.128 540.663 482.365 510.574 z"/>
<path transform="translate(0,0)" fill="rgb(40,82,158)" d="M 616.091 486.868 C 620.89 489.406 625.186 492.218 629.633 495.327 C 657.584 514.872 686.411 532.771 715.174 551.082 L 715.005 552.05 C 684.49 540.711 637.555 511.595 616.091 486.868 z"/>
<path transform="translate(0,0)" fill="rgb(40,82,158)" d="M 548.298 557.889 C 564.085 558.802 607.38 587.154 620.381 597.258 C 607.842 594.911 562.228 566.306 548.298 557.889 z"/>
<path transform="translate(0,0)" fill="rgb(251,243,237)" d="M 941.28 1194.53 C 978.337 1193.03 1021.21 1194.03 1058.68 1194.11 C 1142.25 1194.28 1225.81 1195.64 1309.34 1198.22 C 1353.92 1199.38 1398.47 1201.45 1442.96 1204.41 C 1459.35 1205.44 1543.52 1209.8 1549.59 1219.88 L 1548.91 1221.46 C 1523.59 1240.87 1155.58 1244.73 1102.15 1245.3 C 1058.23 1246.5 1011.96 1245.61 967.943 1245.3 C 892.823 1244.9 817.711 1243.66 742.619 1241.6 C 690.536 1240.3 638.494 1237.67 586.545 1233.71 C 572.847 1232.66 502.315 1228.36 496.683 1219.81 L 497.952 1217.9 C 515.618 1210.38 561.648 1208.02 582.087 1206.44 C 701.149 1197.24 821.876 1195.94 941.28 1194.53 z"/>
<path transform="translate(0,0)" fill="rgb(254,105,111)" d="M 919.535 475.821 C 908.652 394.073 983.254 370.46 1038.45 421.713 C 1042.3 418.397 1047.06 415.238 1051.27 412.301 C 1085.66 393.061 1128.18 385.05 1148.93 429.033 C 1159.4 451.233 1153.49 476.607 1144.89 498.583 C 1151.29 501.13 1163.58 506.742 1170.12 506.078 C 1169.79 510.297 1167.31 530.93 1166.1 534.183 C 1161.83 532.165 1133.28 531.936 1127.09 531.755 C 1123.63 533.812 1113.5 549.404 1110.18 553.7 C 1095.38 572.873 1072.08 602.382 1049.98 612.959 C 1010.75 606.013 966.535 566.674 944.009 534.535 L 943.274 533.481 C 931.339 534.403 896.289 532.265 883.509 530.104 C 883.017 515.017 882.307 508.54 876.941 494.735 C 893.835 492.364 904.754 483.381 919.535 475.821 z M 956.221 466.019 C 972.943 463.243 987.852 456.897 998.376 442.862 C 1011.25 425.688 996.407 420.09 980.674 421.344 C 963.802 425.062 948.617 431.279 939.036 446.479 C 928.039 463.925 940.909 467.439 955.509 466.09 L 956.221 466.019 z"/>
<path transform="translate(0,0)" fill="rgb(253,199,152)" d="M 919.535 475.821 C 926.102 500.567 930.008 511.255 943.274 533.481 C 931.339 534.403 896.289 532.265 883.509 530.104 C 883.017 515.017 882.307 508.54 876.941 494.735 C 893.835 492.364 904.754 483.381 919.535 475.821 z"/>
<path transform="translate(0,0)" fill="rgb(253,199,152)" d="M 1144.89 498.583 C 1151.29 501.13 1163.58 506.742 1170.12 506.078 C 1169.79 510.297 1167.31 530.93 1166.1 534.183 C 1161.83 532.165 1133.28 531.936 1127.09 531.755 L 1126.59 530.858 C 1132.02 520.478 1138.99 509.77 1144.89 498.583 z"/>
<path transform="translate(0,0)" fill="rgb(251,70,76)" d="M 1051.27 412.301 C 1056.54 424.99 1059.99 443.114 1062.9 456.865 C 1054.55 443.817 1047.2 434.141 1038.45 421.713 C 1042.3 418.397 1047.06 415.238 1051.27 412.301 z"/>
<path transform="translate(0,0)" fill="rgb(251,70,76)" d="M 1143.41 437.736 C 1152.98 448.057 1137.03 494.976 1130.29 506.868 C 1113.9 535.777 1081.65 590.121 1049.55 600.892 C 1035.6 596.498 1020.73 586.519 1008.74 578.155 C 998.537 571.211 993.031 567.405 984.774 558.056 C 1006.51 560.977 1028.64 558.401 1049.13 550.565 C 1091.13 534.843 1119.13 503.476 1133.91 461.942 C 1136.58 454.433 1139.59 445.93 1142.9 438.807 L 1143.41 437.736 z"/>
<path transform="translate(0,0)" fill="rgb(251,243,237)" d="M 1091.79 410.031 C 1099.4 409.587 1113.24 411.371 1114.81 420.492 C 1113.56 423.964 1112.85 424.074 1109.55 426.219 C 1102 426.758 1087.81 425.002 1086.15 416.04 C 1088.1 411.842 1087.67 412.987 1091.79 410.031 z"/>
<path transform="translate(0,0)" fill="rgb(254,187,189)" d="M 974.407 495.549 C 978.512 495.291 982.12 498.249 982.672 502.326 C 983.223 506.403 980.532 510.213 976.505 511.056 C 973.63 511.658 970.66 510.603 968.809 508.323 C 966.957 506.043 966.535 502.919 967.713 500.229 C 968.892 497.539 971.475 495.733 974.407 495.549 z"/>
<path transform="translate(0,0)" fill="rgb(251,243,237)" d="M 869.635 151.418 C 885.1 150.661 900.594 150.745 916.049 151.668 C 947.337 153.716 986.419 165.365 1006.56 189.131 C 1035.33 223.074 1004.62 256.322 971.837 269.034 C 940.65 281.125 915.044 285.331 881.681 284.202 C 865.643 283.66 851.847 279.233 836.812 277.884 L 835.64 277.785 C 831.985 278.738 813.13 290.278 808.83 293.18 C 799.403 299.542 755.086 322.313 745.849 321.258 L 745.344 320.131 C 748.546 314.841 756.258 308.728 760.492 303.78 C 770.486 292.098 784.46 271.74 790.227 258.195 C 780.419 246.541 766.797 235.815 765.924 218.65 C 764.109 182.947 807.461 166.532 835.291 156.886 C 845.313 153.412 859.039 152.071 869.635 151.418 z"/>
<path transform="translate(0,0)" fill="rgb(251,228,204)" d="M 810.904 196.292 C 825.74 195.441 957.976 194.789 962.994 196.966 C 964.641 200.043 964.05 199.427 963.709 203.575 C 956.046 204.495 942.123 204.126 933.953 204.138 L 880.709 204.182 C 870.267 204.186 819.786 204.805 812.374 203.459 C 810.357 200.562 810.997 200.245 810.904 196.292 z"/>
<path transform="translate(0,0)" fill="rgb(251,228,204)" d="M 811.037 227.043 C 823.756 226.577 913.628 224.988 919.623 228.454 C 921.397 231.45 920.801 230.649 920.354 234.934 C 906.36 235.696 821.936 236.602 812.007 234.483 C 810.226 231.515 810.892 230.93 811.037 227.043 z"/>
<path transform="translate(0,0)" fill="rgb(253,199,152)" d="M 601.619 298.072 C 607.688 296.377 648.644 289.899 654.505 292.168 C 665.635 296.608 672.634 302.54 685.413 301.422 C 697.129 300.396 700.105 309.44 699.395 319.43 C 699.13 323.157 693.978 326.154 690.902 328.421 C 698.98 339.284 698.78 345.475 699.888 358.775 C 698.063 361.876 695.832 365.433 694.265 368.619 C 698.767 378.805 701.608 382.647 707.602 392.052 C 691.386 401.581 695.641 401.737 692.904 420.275 C 691.651 428.766 692.596 437.295 681.996 437.974 C 676.598 438.588 664.955 438.14 659.547 437.214 C 654.372 439.263 652.017 441.237 648.067 445.245 L 638.45 457.159 C 639.945 476.932 626.098 476.56 612.817 469.06 C 598.254 460.837 588.859 451.463 584.07 435.487 C 587.361 432.21 590.609 428.89 593.812 425.526 C 598.121 419.583 599.667 417.453 602.688 410.861 C 586.585 404.143 573.854 352.902 572.327 335.996 C 581.258 315.778 592.148 314.901 601.619 298.072 z"/>
<path transform="translate(0,0)" fill="rgb(72,52,46)" d="M 601.619 298.072 C 607.688 296.377 648.644 289.899 654.505 292.168 C 665.635 296.608 672.634 302.54 685.413 301.422 C 697.129 300.396 700.105 309.44 699.395 319.43 C 699.13 323.157 693.978 326.154 690.902 328.421 L 682.024 334.86 C 675.094 334.659 663.165 334.029 656.635 334.556 C 656.202 354.507 655.504 359.444 644.47 377.084 C 639.324 371.815 634.123 365.408 626.181 365.238 C 618.289 365.068 617.194 373.356 617.566 379.36 C 617.669 381.131 617.849 382.898 618.106 384.653 L 618.331 391.704 C 616.089 404.59 617.136 408.603 602.688 410.861 C 586.585 404.143 573.854 352.902 572.327 335.996 C 581.258 315.778 592.148 314.901 601.619 298.072 z"/>
<path transform="translate(0,0)" fill="rgb(238,163,117)" d="M 630.72 404.762 C 642.484 420.466 644.396 427.637 666.97 433.555 C 672.719 435.063 676.859 434.947 681.996 437.974 C 676.598 438.588 664.955 438.14 659.547 437.214 C 658.1 435.157 656.662 434.902 654.034 433.745 C 638.937 427.096 635.72 419.745 630.72 404.762 z"/>
<path transform="translate(0,0)" fill="rgb(238,163,117)" d="M 618.106 384.653 C 619.11 386.663 620.15 388.655 621.224 390.628 C 623.03 393.875 627.568 397.488 630.454 400.011 L 630.26 400.687 C 623.361 399.149 622.499 397.364 618.331 391.704 L 618.106 384.653 z"/>
<path transform="translate(0,0)" fill="rgb(72,52,46)" d="M 685.688 352.399 C 687.774 352.002 688.115 352.416 690.076 353.288 C 690.282 356.028 690.637 354.805 688.832 357.029 C 684.597 359.402 681.644 358.692 676.773 358.282 C 674.065 358.697 673.342 358.678 670.586 358.583 L 669.837 357.453 C 675.067 353.535 679.429 352.961 685.688 352.399 z"/>
<path transform="translate(0,0)" fill="rgb(62,60,56)" d="M 677.988 364.706 C 679.599 363.857 681.545 363.951 683.065 364.954 C 684.586 365.956 685.44 367.707 685.294 369.522 C 685.148 371.337 684.025 372.929 682.364 373.676 C 679.905 374.781 677.013 373.734 675.831 371.311 C 674.649 368.888 675.604 365.964 677.988 364.706 z"/>
<path transform="translate(0,0)" fill="rgb(251,243,237)" d="M 1161.41 222.395 C 1167.26 221.13 1183.29 221.588 1189.81 222.004 C 1229.19 224.703 1286.45 240.59 1262.92 292.37 C 1259.42 300.093 1298.42 341.855 1304.48 347.796 C 1284.32 342.032 1267.78 334.032 1250.46 322.46 C 1243.62 318.206 1237.25 314.227 1230.17 310.365 C 1188.76 321.499 1141.88 322.884 1104.81 297.926 C 1087.4 286.245 1080.53 266.484 1095.38 249.508 C 1111.18 231.462 1138.58 224.667 1161.41 222.395 z"/>
<path transform="translate(0,0)" fill="rgb(251,228,204)" d="M 1200.2 265.443 C 1202.67 264.773 1205.22 266.229 1205.89 268.697 C 1206.57 271.166 1205.11 273.714 1202.65 274.393 C 1200.17 275.074 1197.62 273.618 1196.94 271.144 C 1196.27 268.669 1197.73 266.116 1200.2 265.443 z"/>
<path transform="translate(0,0)" fill="rgb(251,228,204)" d="M 1152.43 266.628 C 1154.26 265.196 1156.88 265.413 1158.45 267.125 C 1160.02 268.838 1160 271.47 1158.41 273.165 C 1157.27 274.384 1155.55 274.86 1153.94 274.399 C 1152.34 273.937 1151.13 272.615 1150.81 270.976 C 1150.49 269.337 1151.11 267.658 1152.43 266.628 z"/>
<path transform="translate(0,0)" fill="rgb(251,228,204)" d="M 1176.5 266.202 C 1178.56 265.223 1181.03 266.034 1182.1 268.044 C 1183.18 270.055 1182.49 272.556 1180.53 273.729 C 1179.18 274.538 1177.49 274.539 1176.14 273.729 C 1174.79 272.919 1173.99 271.431 1174.07 269.857 C 1174.14 268.283 1175.08 266.878 1176.5 266.202 z"/>
<path transform="translate(0,0)" fill="rgb(253,199,152)" d="M 857.326 621.209 C 884.802 627.828 913.966 595.74 921.798 603.161 C 921.289 610.022 910.494 620.768 905.563 626.472 C 919.649 628.379 968.551 632.058 977.276 636.38 L 977.897 637.902 C 972.762 641.815 952.896 642.647 945.422 643.3 C 953.429 644.528 976.722 646.583 981.872 650.398 L 981.781 652.174 C 977.229 655.491 970.165 655.799 964.462 656.532 C 969.045 658.066 973.192 658.466 976.215 661.615 L 976.028 663.385 C 969.517 666.633 953.369 666.089 947.88 668.7 L 949.121 669.239 C 952.708 670.34 952.466 669.63 954.264 672.049 L 953.218 673.71 C 947.248 676.197 940.471 675.771 934.181 676.077 C 903.857 677.554 876.29 667.298 847.479 658.203 C 852.984 644.202 854.085 635.496 857.326 621.209 z"/>
<path transform="translate(0,0)" fill="rgb(251,228,204)" d="M 949.121 669.239 C 946.681 669.825 940.789 670.098 938.708 668.639 L 939.217 667.319 L 942.21 666.34 C 946.167 667.067 945.194 666.335 947.88 668.7 L 949.121 669.239 z"/>
<path transform="translate(0,0)" fill="rgb(251,228,204)" d="M 946.512 655.556 C 952.629 654.981 959.611 653.046 963.971 657.58 C 959.029 658.012 950.936 657.726 946.512 655.556 z"/>
<path transform="translate(0,0)" fill="rgb(251,228,204)" d="M 932.382 642.501 C 937.231 641.986 941.513 641.564 946.287 642.577 C 941.122 644.974 937.563 644.432 932.382 642.501 z"/>
<path transform="translate(0,0)" fill="rgb(253,199,152)" d="M 1130.14 608.557 C 1128.45 605.111 1126.83 603.673 1127.48 599.764 L 1129.09 598.938 C 1133.02 599.733 1135.78 602.724 1138.82 605.403 C 1157.85 613.266 1177.47 623.526 1197.99 616.503 L 1198.21 617.185 C 1200.24 623.554 1203.38 643.969 1210.11 647.692 C 1195.85 649.734 1169.54 666.795 1151.38 667.765 C 1133.2 668.737 1108.86 661.962 1093.51 651.931 C 1089.47 649.288 1087.14 645.682 1083 642.389 L 1082.35 641.875 C 1078.6 639.777 1071.57 636.453 1073.76 631.383 C 1077.2 630.15 1079.98 630.942 1083.68 631.465 C 1094.51 633.348 1138.6 641.383 1144.06 628.098 C 1142.78 624.359 1133.42 613.549 1130.14 608.557 z"/>
<path transform="translate(0,0)" fill="rgb(254,105,111)" d="M 1082.35 641.875 C 1078.6 639.777 1071.57 636.453 1073.76 631.383 C 1077.2 630.15 1079.98 630.942 1083.68 631.465 L 1081.82 632.616 C 1083.88 636.98 1085.36 637.505 1082.35 641.875 z"/>
<path transform="translate(0,0)" fill="rgb(254,105,111)" d="M 1130.14 608.557 C 1128.45 605.111 1126.83 603.673 1127.48 599.764 L 1129.09 598.938 C 1133.02 599.733 1135.78 602.724 1138.82 605.403 C 1135.21 608.5 1134.7 608.332 1130.14 608.557 z"/>
<path transform="translate(0,0)" fill="rgb(238,163,117)" d="M 1090.29 645.711 C 1095.96 646.441 1103.92 648.796 1109.82 650.075 C 1119.29 652.126 1126.61 652.832 1136.25 653.584 C 1124.58 657.596 1100.89 651.593 1090.29 645.711 z"/>
</svg>