<svg version="1.1" xmlns="http://www.w3.org/2000/svg" style="display: block;" viewBox="0 0 2048 1365" width="2000" height="1333" preserveAspectRatio="none">
<defs>
	<linearGradient id="Gradient1" gradientUnits="userSpaceOnUse" x1="618.814" y1="506.687" x2="869.059" y2="374.28">
		<stop class="stop0" offset="0" stop-opacity="1" stop-color="rgb(8,0,95)"/>
		<stop class="stop1" offset="1" stop-opacity="1" stop-color="rgb(24,17,146)"/>
	</linearGradient>
	<linearGradient id="Gradient2" gradientUnits="userSpaceOnUse" x1="1030.17" y1="706.907" x2="1162.03" y2="1064.42">
		<stop class="stop0" offset="0" stop-opacity="1" stop-color="rgb(6,0,91)"/>
		<stop class="stop1" offset="1" stop-opacity="1" stop-color="rgb(26,19,150)"/>
	</linearGradient>
</defs>
<path transform="translate(0,0)" fill="rgb(255,132,125)" d="M 826.677 328.159 C 847.472 325.9 862.398 326.56 884.159 322.21 C 978.365 303.381 1060.66 234.602 1136.73 179.039 C 1235.63 106.808 1327.87 55.7045 1434.52 147.155 C 1463.1 171.665 1476.56 194.802 1514.27 208.236 C 1571.51 228.627 1632.48 228.733 1692.42 231.86 C 1709.28 232.739 1733.08 233.022 1749.02 235.461 C 1758 232.077 1763.39 232.167 1770.93 238.899 C 1804.18 238.416 1863.93 256.72 1887.22 280.928 C 1952.4 348.657 1906.19 474.505 1854.06 536.223 C 1852.42 538.169 1848.67 540.482 1846.47 541.574 C 1846.53 569.873 1849 589.908 1834.62 615.938 C 1832.27 620.203 1823.58 630.021 1822.85 632.989 C 1823.15 683.512 1808.58 872.412 1757.89 888.66 C 1749.98 885.986 1743.26 882.586 1738.87 874.859 C 1727.19 871.374 1706.84 867.67 1694.48 865.253 C 1718.22 906.269 1733.41 946.232 1728.05 994.46 C 1720.49 1062.56 1668.76 1115.19 1610.91 1146.53 C 1608.53 1147.81 1605.45 1149.19 1603.01 1150.2 C 1596.37 1137.8 1589.77 1135.98 1586.14 1120.75 C 1583.35 1109 1579.14 1096.85 1576.38 1084.79 C 1569.26 1089.29 1563.18 1093.29 1555.02 1095.9 C 1550.65 1097.15 1547.26 1098.15 1542.77 1098.94 C 1530.59 1100.11 1525.26 1099.88 1513.19 1097.81 C 1518.13 1123.21 1527.3 1157.65 1530.83 1181.57 C 1504.1 1190.82 1430.81 1210.83 1403.07 1209.75 L 1400.41 1209.92 L 1390.79 1209.57 L 1391.12 1211.46 C 1378.98 1215.05 1368.78 1216.56 1357.39 1211.22 L 1358.4 1209.64 C 1353.85 1209.23 1349.61 1208.12 1345.16 1207.08 C 1345.02 1210.75 1345.21 1211.22 1343.35 1214.21 C 1339.98 1215.23 1331.98 1218.67 1329.84 1218.7 C 1315.89 1219.68 1303.29 1221.73 1288.56 1222.46 C 1183.89 1227.7 1081.12 1220.23 977.188 1208.23 C 955.073 1205.66 933.017 1202.61 911.032 1199.1 C 895.948 1196.78 880.338 1194.9 865.759 1190.57 L 854.457 1237.03 L 481.386 1237 C 477.836 1217.7 474.122 1197.25 469.623 1178.23 C 442.669 1202.71 429.08 1210.11 392.32 1214.34 C 394.098 1221.62 399.23 1228.98 399.547 1235.17 C 394.231 1238.21 271.935 1236.99 256.018 1236.99 C 240.399 1208.02 230.528 1168.99 223.803 1137.04 C 207.133 1121.94 190.124 1098.25 181.012 1078.09 C 164.341 1041.19 170.73 1013.87 192.105 981.387 C 198.996 970.353 205.436 959.896 210.274 947.774 C 218.041 928.319 214.058 904.358 202.834 887.09 C 196.655 877.582 184.841 867.869 175.825 860.983 C 156.241 846.026 138.369 829.047 128.04 806.225 C 106.066 758.973 106.823 699.275 124.788 650.923 C 131.307 633.21 145.083 610.261 163.396 603.055 C 202.7 587.59 248.674 628.895 273.298 654.946 C 301.394 684.671 321.729 719.009 337.063 756.156 C 336.974 759.395 337.703 761.105 338.622 764.182 C 371.173 725.507 381.211 705.086 433.514 691.749 C 436.235 691.288 438.966 690.895 441.706 690.57 C 460.138 687.468 480.467 686.518 498.774 683.473 C 533.114 679.747 567.507 676.534 601.942 673.835 C 601.905 674.426 601.879 675.017 601.864 675.609 C 601.766 680.335 603.36 687.53 606.998 690.299 C 622.113 701.801 664.968 705.373 683.139 705.652 C 702.824 705.955 742.96 701.846 757.469 687.95 C 763.388 682.281 763.666 676.658 763.577 669.273 C 759.031 651.973 755.777 632.437 751.343 614.503 C 767.568 615.573 802.326 616.544 817.069 612.595 C 821.347 611.449 825.637 609.728 827.804 605.589 C 834.734 592.35 827.127 516.153 822.071 499.486 C 820.108 493.015 815.971 490.538 810.364 487.574 C 801.864 446.165 796.258 397.245 788.537 354.585 C 807.092 349.827 816.916 344.581 826.677 328.159 z"/>
<path transform="translate(0,0)" fill="rgb(65,68,230)" d="M 223.803 1137.04 C 207.133 1121.94 190.124 1098.25 181.012 1078.09 C 164.341 1041.19 170.73 1013.87 192.105 981.387 C 198.996 970.353 205.436 959.896 210.274 947.774 C 218.041 928.319 214.058 904.358 202.834 887.09 C 196.655 877.582 184.841 867.869 175.825 860.983 C 156.241 846.026 138.369 829.047 128.04 806.225 C 106.066 758.973 106.823 699.275 124.788 650.923 C 131.307 633.21 145.083 610.261 163.396 603.055 C 202.7 587.59 248.674 628.895 273.298 654.946 C 301.394 684.671 321.729 719.009 337.063 756.156 C 336.974 759.395 337.703 761.105 338.622 764.182 C 371.173 725.507 381.211 705.086 433.514 691.749 C 436.235 691.288 438.966 690.895 441.706 690.57 C 460.138 687.468 480.467 686.518 498.774 683.473 C 533.114 679.747 567.507 676.534 601.942 673.835 C 601.905 674.426 601.879 675.017 601.864 675.609 C 601.766 680.335 603.36 687.53 606.998 690.299 C 622.113 701.801 664.968 705.373 683.139 705.652 C 702.824 705.955 742.96 701.846 757.469 687.95 C 763.388 682.281 763.666 676.658 763.577 669.273 C 800.35 670.107 837.076 672.375 873.672 676.072 C 885.625 677.292 900.294 680.647 910.277 681.505 C 911.731 680.056 913.176 678.598 914.612 677.131 C 916.457 696.578 918.017 711.292 933.737 724.71 C 936.545 728.466 935.084 727.548 939.101 728.634 C 944.025 730.304 948.712 730.727 950.467 735.891 C 955.707 732.771 994.831 734.009 1004.29 734.03 L 1101.88 734.164 L 1101.84 733.017 C 1108.16 733.339 1123.18 737.017 1130.02 738.559 L 1180.81 750.095 C 1246.44 764.792 1317.53 781.956 1382.95 794.971 C 1383.04 805.514 1382.8 818.874 1383.68 829.156 C 1384.11 833.055 1384.28 854.075 1383.76 858.024 C 1380.04 861.333 1377.46 863.739 1373.28 866.469 C 1375.34 871.593 1381.88 891.671 1384.16 894.199 L 1384.1 895.285 C 1385.79 918.159 1384.09 942.22 1385.71 964.685 L 1383.06 965.938 C 1382.83 969.33 1385.11 969.536 1385.67 973.785 L 1386.57 974.523 L 1387.08 977.513 C 1391.63 980.665 1392.91 976.369 1397.1 982.104 C 1402.65 985.648 1407.48 984.759 1414.02 986.052 C 1413.36 999.525 1412.43 1012.98 1411.23 1026.42 C 1417.38 1079.11 1414.09 1133.75 1406.68 1186.29 C 1406.21 1189.68 1402.49 1208.72 1403.07 1209.75 L 1400.41 1209.92 L 1390.79 1209.57 L 1391.12 1211.46 C 1378.98 1215.05 1368.78 1216.56 1357.39 1211.22 L 1358.4 1209.64 C 1353.85 1209.23 1349.61 1208.12 1345.16 1207.08 C 1345.02 1210.75 1345.21 1211.22 1343.35 1214.21 C 1339.98 1215.23 1331.98 1218.67 1329.84 1218.7 C 1315.89 1219.68 1303.29 1221.73 1288.56 1222.46 C 1183.89 1227.7 1081.12 1220.23 977.188 1208.23 C 955.073 1205.66 933.017 1202.61 911.032 1199.1 C 895.948 1196.78 880.338 1194.9 865.759 1190.57 L 854.457 1237.03 L 481.386 1237 C 477.836 1217.7 474.122 1197.25 469.623 1178.23 C 442.669 1202.71 429.08 1210.11 392.32 1214.34 C 394.098 1221.62 399.23 1228.98 399.547 1235.17 C 394.231 1238.21 271.935 1236.99 256.018 1236.99 C 240.399 1208.02 230.528 1168.99 223.803 1137.04 z"/>
<path transform="translate(0,0)" fill="rgb(225,232,252)" d="M 1101.84 733.017 C 1108.16 733.339 1123.18 737.017 1130.02 738.559 L 1180.81 750.095 C 1246.44 764.792 1317.53 781.956 1382.95 794.971 C 1383.04 805.514 1382.8 818.874 1383.68 829.156 C 1384.11 833.055 1384.28 854.075 1383.76 858.024 C 1380.04 861.333 1377.46 863.739 1373.28 866.469 C 1375.34 871.593 1381.88 891.671 1384.16 894.199 L 1384.1 895.285 C 1385.79 918.159 1384.09 942.22 1385.71 964.685 L 1383.06 965.938 C 1382.83 969.33 1385.11 969.536 1385.67 973.785 L 1386.57 974.523 L 1387.08 977.513 C 1391.63 980.665 1392.91 976.369 1397.1 982.104 C 1402.65 985.648 1407.48 984.759 1414.02 986.052 C 1413.36 999.525 1412.43 1012.98 1411.23 1026.42 C 1417.38 1079.11 1414.09 1133.75 1406.68 1186.29 C 1406.21 1189.68 1402.49 1208.72 1403.07 1209.75 L 1400.41 1209.92 L 1390.79 1209.57 L 1391.12 1211.46 C 1378.98 1215.05 1368.78 1216.56 1357.39 1211.22 L 1358.4 1209.64 C 1353.85 1209.23 1349.61 1208.12 1345.16 1207.08 C 1345.02 1210.75 1345.21 1211.22 1343.35 1214.21 C 1339.98 1215.23 1331.98 1218.67 1329.84 1218.7 C 1315.89 1219.68 1303.29 1221.73 1288.56 1222.46 C 1183.89 1227.7 1081.12 1220.23 977.188 1208.23 C 955.073 1205.66 933.017 1202.61 911.032 1199.1 C 895.948 1196.78 880.338 1194.9 865.759 1190.57 C 867.017 1179.61 878.065 1150.11 878.316 1142.14 C 878.845 1140.53 879.367 1138.46 879.836 1136.79 C 880.812 1135.81 900.766 1072.7 903.174 1065.56 C 924.199 1081.7 969.232 1115.76 995.129 1120.95 L 995.69 1120.97 C 998.459 1124.05 997.02 1123.15 1001.29 1124.17 C 1005.19 1126.54 1013.03 1128.95 1017.56 1129.68 C 1031.72 1131.93 1046.18 1128.4 1057.71 1119.88 C 1061.91 1116.74 1075.12 1104.19 1075.73 1099.71 C 1073.7 1098.73 1072.39 1098.4 1071.32 1096.44 L 1072.7 1094.08 C 1075.62 1092.16 1076.4 1092.35 1079.9 1092.35 L 1080.96 1092.36 C 1086.62 1087.45 1096.55 1066.89 1100.61 1059.16 C 1080.32 1046.53 1072.55 1030.64 1062.73 1009.71 C 1052.4 987.711 1042.9 965.424 1033.28 943.11 C 1014.81 898.65 996.752 854.021 979.107 809.228 C 969.969 786.047 960.255 757.908 950.467 735.891 C 955.707 732.771 994.831 734.009 1004.29 734.03 L 1101.88 734.164 L 1101.84 733.017 z"/>
<path transform="translate(0,0)" fill="url(#Gradient2)" d="M 950.467 735.891 C 955.707 732.771 994.831 734.009 1004.29 734.03 L 1101.88 734.164 C 1104.2 738.414 1109.55 747.539 1111.28 751.602 C 1119.71 751.316 1125.79 751.782 1133.5 755.899 C 1158.27 769.124 1180.04 823.853 1172.57 850.862 C 1171.65 853.814 1169.91 858.811 1169.41 861.682 C 1183.86 891.155 1221.96 965.312 1225.9 1001.24 C 1225.98 1001.97 1223.39 1005.5 1222.7 1006.4 C 1222.65 1009.48 1223.29 1009.99 1224.99 1012.76 C 1225.31 1020.6 1216.53 1033.61 1211.29 1039.09 C 1195.31 1055.76 1167.67 1068.05 1144.35 1068.59 C 1140.39 1068.68 1140.74 1069.16 1138.14 1067.07 L 1136.33 1065.09 C 1132.9 1065.35 1131.84 1066.41 1128.98 1068.28 C 1116.68 1065.96 1112.12 1064.91 1100.61 1059.16 C 1080.32 1046.53 1072.55 1030.64 1062.73 1009.71 C 1052.4 987.711 1042.9 965.424 1033.28 943.11 C 1014.81 898.65 996.752 854.021 979.107 809.228 C 969.969 786.047 960.255 757.908 950.467 735.891 z"/>
<path transform="translate(0,0)" fill="rgb(255,132,125)" d="M 1111.28 751.602 C 1119.71 751.316 1125.79 751.782 1133.5 755.899 C 1158.27 769.124 1180.04 823.853 1172.57 850.862 C 1169.21 849.773 1166.63 849.52 1163.17 849.021 C 1146.15 844.606 1039.13 818.94 1061.15 781.089 C 1067.72 769.792 1097.18 754.05 1111.28 751.602 z"/>
<path transform="translate(0,0)" fill="rgb(255,132,125)" d="M 1163.17 849.021 C 1166.63 849.52 1169.21 849.773 1172.57 850.862 C 1171.65 853.814 1169.91 858.811 1169.41 861.682 C 1167.27 857.767 1165.14 853.086 1163.17 849.021 z"/>
<path transform="translate(0,0)" fill="rgb(126,149,245)" d="M 1209.12 1017.88 C 1207.22 1018.12 1206.62 1018.97 1205.2 1020.28 C 1205.23 1025.13 1204.21 1028.87 1199.07 1030.3 C 1198.73 1029.91 1196.24 1027.04 1195.67 1027.33 C 1174.97 1037.83 1154.63 1039.41 1132.81 1030.99 C 1103.1 1019.53 1094.59 994.556 1082.67 968.053 L 1058.77 914.767 L 1026.54 842.949 C 1022.44 833.919 1005.33 802.418 1008.56 794.674 L 1010.8 794.652 C 1019.43 799.843 1027.54 823.534 1032.09 833.666 L 1073.63 925.794 C 1095.78 975.158 1113.31 1047.36 1184.58 1022.57 C 1191.64 1020.11 1200.82 1009.08 1208.02 1009.28 C 1211.03 1011.76 1210.11 1011.04 1211.61 1015.27 L 1209.12 1017.88 z"/>
<path transform="translate(0,0)" fill="rgb(126,149,245)" d="M 987.644 743.43 C 992.046 745.399 993.577 747.412 995.416 751.805 C 998.794 759.874 1005.53 767.623 1000.35 775.694 C 992.267 773.688 987.526 757.287 985.194 749.927 C 984.324 747.182 986.16 745.452 987.644 743.43 z"/>
<path transform="translate(0,0)" fill="rgb(254,254,254)" d="M 1149 1056.44 C 1151.62 1057.59 1150.58 1056.74 1152.23 1059.06 C 1150.75 1062.29 1149.82 1062.15 1146.58 1064.36 C 1144.27 1063.49 1145.33 1064.13 1143.56 1061.98 C 1144.26 1059.4 1146.74 1058.1 1149 1056.44 z"/>
<path transform="translate(0,0)" fill="rgb(254,254,254)" d="M 1162.58 1048.65 C 1165.42 1049.54 1164.36 1048.72 1165.99 1051.03 C 1165.09 1053.57 1162.71 1054.72 1160.41 1056.3 C 1158.37 1055.68 1159.09 1055.91 1157.34 1054.33 C 1158.4 1051.09 1159.53 1051.04 1162.58 1048.65 z"/>
<path transform="translate(0,0)" fill="rgb(254,254,254)" d="M 1188.72 1031.57 C 1191.74 1032.01 1190.99 1031.45 1192.7 1033.29 C 1192.04 1035.99 1189.97 1037.11 1187.68 1038.96 C 1184.91 1038.46 1186.06 1039.08 1184.15 1036.96 C 1184.73 1034.44 1186.69 1033.27 1188.72 1031.57 z"/>
<path transform="translate(0,0)" fill="rgb(254,254,254)" d="M 1176.92 1039.77 C 1178.22 1040.67 1178.33 1041.06 1179.37 1042.34 C 1178.34 1045.39 1176.8 1045.71 1173.8 1047.92 C 1171.28 1046.95 1172.22 1047.76 1170.86 1045.44 C 1172.11 1042.6 1174.28 1041.59 1176.92 1039.77 z"/>
<path transform="translate(0,0)" fill="rgb(254,254,254)" d="M 1211.61 1015.27 C 1214.81 1012.99 1214.13 1012.65 1217.02 1012.99 C 1217.79 1015.57 1217.57 1014.72 1216.09 1017.9 C 1213.05 1019.86 1214.38 1019.57 1210.99 1019.48 L 1209.12 1017.88 L 1211.61 1015.27 z"/>
<path transform="translate(0,0)" fill="rgb(16,8,122)" d="M 1355.88 1031.11 C 1355.86 1028.72 1355.52 1024.75 1356.55 1022.82 C 1367.36 1024.96 1373 1026.7 1385.21 1028.59 C 1391.28 1030.59 1392.24 1030.46 1398.75 1028.57 L 1411.23 1026.42 C 1417.38 1079.11 1414.09 1133.75 1406.68 1186.29 C 1406.21 1189.68 1402.49 1208.72 1403.07 1209.75 L 1400.41 1209.92 L 1390.79 1209.57 L 1391.12 1211.46 C 1378.98 1215.05 1368.78 1216.56 1357.39 1211.22 L 1358.4 1209.64 C 1353.85 1209.23 1349.61 1208.12 1345.16 1207.08 C 1344.52 1200.4 1351.23 1164.43 1352.02 1154.85 C 1355.27 1113.68 1356.56 1072.39 1355.88 1031.11 z"/>
<path transform="translate(0,0)" fill="rgb(225,232,252)" d="M 1384.4 1086.28 C 1389.4 1106.99 1388.16 1154.95 1389.14 1178.04 C 1389.46 1185.41 1388.77 1203.52 1390.79 1209.57 L 1391.12 1211.46 C 1378.98 1215.05 1368.78 1216.56 1357.39 1211.22 L 1358.4 1209.64 C 1368.44 1197.32 1381.24 1106.17 1384.4 1086.28 z"/>
<path transform="translate(0,0)" fill="rgb(65,68,230)" d="M 1373.28 866.469 C 1375.34 871.593 1381.88 891.671 1384.16 894.199 L 1384.1 895.285 C 1385.79 918.159 1384.09 942.22 1385.71 964.685 L 1383.06 965.938 C 1382.83 969.33 1385.11 969.536 1385.67 973.785 L 1386.57 974.523 L 1387.08 977.513 C 1391.63 980.665 1392.91 976.369 1397.1 982.104 C 1402.65 985.648 1407.48 984.759 1414.02 986.052 C 1413.36 999.525 1412.43 1012.98 1411.23 1026.42 L 1398.75 1028.57 C 1392.24 1030.46 1391.28 1030.59 1385.21 1028.59 C 1373 1026.7 1367.36 1024.96 1356.55 1022.82 C 1355.52 1024.75 1355.86 1028.72 1355.88 1031.11 C 1354.71 1024.61 1354.96 1019.21 1353.27 1011.68 C 1346.99 983.725 1338.81 955.984 1330.98 928.43 C 1314.64 926.49 1304.28 922.827 1289.84 915.607 C 1297.8 905.774 1300.76 897.188 1304.21 885.479 C 1316.51 889.161 1324.65 890.527 1337.58 890.808 C 1340.92 890.881 1351.23 891.012 1354.08 891.609 C 1353.63 885.452 1352.49 878.933 1351.55 872.799 C 1356.26 871.819 1361.29 870.579 1365.43 868.135 C 1367.67 868.163 1371.01 867.077 1373.28 866.469 z"/>
<path transform="translate(0,0)" fill="rgb(255,132,125)" d="M 1373.28 866.469 C 1375.34 871.593 1381.88 891.671 1384.16 894.199 L 1384.1 895.285 C 1373.9 900.876 1362.34 900.197 1354.08 891.609 C 1353.63 885.452 1352.49 878.933 1351.55 872.799 C 1356.26 871.819 1361.29 870.579 1365.43 868.135 C 1367.67 868.163 1371.01 867.077 1373.28 866.469 z"/>
<path transform="translate(0,0)" fill="rgb(65,68,230)" d="M 1397.1 982.104 C 1402.65 985.648 1407.48 984.759 1414.02 986.052 C 1413.36 999.525 1412.43 1012.98 1411.23 1026.42 L 1398.75 1028.57 C 1396.37 1025.42 1397.11 988.741 1397.1 982.104 z"/>
<path transform="translate(0,0)" fill="rgb(16,8,122)" d="M 1385.21 1028.59 C 1388.01 1025.81 1384.69 983.092 1386.57 974.523 L 1387.08 977.513 C 1391.63 980.665 1392.91 976.369 1397.1 982.104 C 1397.11 988.741 1396.37 1025.42 1398.75 1028.57 C 1392.24 1030.46 1391.28 1030.59 1385.21 1028.59 z"/>
<path transform="translate(0,0)" fill="rgb(16,8,122)" d="M 1347.54 837.959 C 1342.48 832.78 1341.64 827.884 1344.78 821.033 C 1350.85 816.693 1352 822.552 1358.34 822.844 C 1365.61 817.651 1370.17 816.493 1375.17 825.139 C 1377.8 829.698 1379.16 828.876 1383.68 829.156 C 1384.11 833.055 1384.28 854.075 1383.76 858.024 C 1380.04 861.333 1377.46 863.739 1373.28 866.469 C 1371.01 867.077 1367.67 868.163 1365.43 868.135 C 1361.29 870.579 1356.26 871.819 1351.55 872.799 C 1329.23 871.264 1341.87 850.763 1347.54 837.959 z"/>
<path transform="translate(0,0)" fill="rgb(253,188,186)" d="M 1347.54 837.959 C 1353.93 840.905 1367.8 843.95 1369.77 847.925 L 1367.29 853.983 L 1367.91 854.78 C 1371.38 854.28 1372.36 853.455 1374.68 855.033 C 1373.68 861.866 1368.81 859.572 1365.43 868.135 C 1361.29 870.579 1356.26 871.819 1351.55 872.799 C 1329.23 871.264 1341.87 850.763 1347.54 837.959 z"/>
<path transform="translate(0,0)" fill="rgb(255,132,125)" d="M 1246.34 840.594 C 1255.94 862.874 1273.2 873.496 1295.07 882.212 C 1298.07 883.409 1301.13 884.498 1304.21 885.479 C 1300.76 897.188 1297.8 905.774 1289.84 915.607 L 1289.17 915.218 C 1260.99 898.453 1246.98 874.743 1239.19 843.652 C 1242.94 843.144 1243.34 842.922 1246.34 840.594 z"/>
<path transform="translate(0,0)" fill="rgb(255,132,125)" d="M 1231.42 817.431 C 1228.77 814.711 1225.66 811.916 1224.99 808.209 C 1230.54 808.851 1242.94 823.525 1246.18 828.038 L 1246.34 840.594 C 1243.34 842.922 1242.94 843.144 1239.19 843.652 C 1228.28 835.899 1224.82 829.57 1231.42 817.431 z"/>
<path transform="translate(0,0)" fill="rgb(254,254,254)" d="M 1128.98 1068.28 C 1131.84 1066.41 1132.9 1065.35 1136.33 1065.09 L 1138.14 1067.07 C 1136.67 1069.85 1136.45 1069.86 1133.54 1071.36 L 1130.98 1071.23 C 1129.92 1069.95 1129.49 1069.74 1128.98 1068.28 z"/>
<path transform="translate(0,0)" fill="rgb(254,254,254)" d="M 923.172 1131.81 C 926.532 1133.25 925.937 1132.42 927.591 1135.04 C 926.017 1137.96 925.225 1137.79 922.168 1139.7 C 918.478 1137.53 918.752 1138.49 917.508 1135.33 C 919.735 1132.49 919.278 1133.32 923.172 1131.81 z"/>
<path transform="translate(0,0)" fill="rgb(254,254,254)" d="M 985.525 1120.37 C 986.796 1120.63 987.979 1121.12 989.21 1121.56 L 990.114 1123.51 C 988.292 1126.74 988.51 1125.9 984.901 1128.11 C 981.475 1126.71 982.112 1127.54 980.3 1124.92 C 981.796 1121.76 982.105 1122.33 985.525 1120.37 z"/>
<path transform="translate(0,0)" fill="rgb(254,254,254)" d="M 938.252 1129.52 C 941.677 1130.47 940.806 1129.73 942.971 1132.08 C 942.079 1135.46 941.997 1134.62 938.66 1137.38 C 934.777 1135.89 935.637 1136.81 933.258 1133.92 C 934.634 1130.69 934.369 1131.65 938.252 1129.52 z"/>
<path transform="translate(0,0)" fill="rgb(254,254,254)" d="M 885.149 1136.35 C 891.7 1135.58 893.83 1133.83 896.722 1140.17 C 893.518 1140.9 892.167 1140.98 888.859 1141.2 C 885.552 1139.47 886.625 1140.62 885.149 1136.35 z"/>
<path transform="translate(0,0)" fill="rgb(254,254,254)" d="M 904.278 1134.13 C 907.209 1134.1 907.741 1134.15 910.572 1134.91 L 911.449 1136.61 L 910.249 1140.08 C 909.715 1140.1 909.181 1140.11 908.647 1140.11 C 905.191 1140.11 903.695 1139.93 901.472 1137.73 C 902.165 1135.27 901.917 1136.06 904.278 1134.13 z"/>
<path transform="translate(0,0)" fill="rgb(254,254,254)" d="M 966.986 1124.74 C 970.705 1124.66 971.298 1124.41 974.432 1126.09 L 974.498 1128.01 L 971.687 1130.99 C 968.402 1130.85 967.994 1130.78 965.036 1129.35 L 964.643 1127.42 L 966.986 1124.74 z"/>
<path transform="translate(0,0)" fill="rgb(254,254,254)" d="M 950.039 1128.18 C 953.656 1127.79 954.664 1127.46 958.144 1128.51 L 958.887 1130.43 L 957.72 1132.99 C 954.132 1133.48 953.402 1133.79 950.001 1132.91 C 948.766 1130.38 948.953 1131.51 950.039 1128.18 z"/>
<path transform="translate(0,0)" fill="rgb(254,254,254)" d="M 1089.81 1085.37 C 1092.43 1085.69 1093.48 1085.55 1095.37 1087.35 C 1095.08 1090.43 1094.86 1089.75 1092.4 1092.64 C 1089.47 1092.4 1089.08 1092.54 1086.75 1090.94 C 1086.73 1087.84 1087.11 1088.5 1089.81 1085.37 z"/>
<path transform="translate(0,0)" fill="rgb(254,254,254)" d="M 1107.12 1078.58 C 1109.7 1079.85 1108.75 1078.91 1110.04 1081.53 C 1108.99 1083.92 1106.79 1084.89 1104.52 1086.31 C 1101.56 1085.42 1102.69 1086.24 1100.89 1083.93 C 1102.02 1080.98 1104.25 1080.24 1107.12 1078.58 z"/>
<path transform="translate(0,0)" fill="rgb(254,254,254)" d="M 1121.52 1071.75 C 1124.11 1073.26 1123.3 1072.19 1124.11 1074.99 C 1122.49 1077.61 1120.26 1078.37 1117.45 1079.86 C 1115.89 1078.41 1116.35 1078.84 1115.25 1076.93 C 1116.66 1073.77 1118.04 1073.78 1121.52 1071.75 z"/>
<path transform="translate(0,0)" fill="rgb(254,254,254)" d="M 1237.87 990.354 C 1239.69 990.644 1239.57 990.737 1240.93 992.033 C 1240.43 995.49 1239.35 995.876 1236.97 998.889 C 1234.79 998.394 1235.85 998.792 1233.88 996.983 C 1234.02 994.112 1235.87 992.651 1237.87 990.354 z"/>
<path transform="translate(0,0)" fill="rgb(254,254,254)" d="M 1249.45 977.728 C 1250.57 978.831 1250.43 979.008 1251.17 980.506 C 1250.54 983.77 1248.29 985.222 1245.75 987.609 C 1244.63 985.758 1244.96 986.223 1244.46 984.009 C 1245.43 980.802 1246.92 979.955 1249.45 977.728 z"/>
<path transform="translate(0,0)" fill="rgb(254,254,254)" d="M 1257.28 964.448 L 1259.43 966.067 C 1259.81 969.602 1258.66 970.003 1256.45 973.667 C 1254.77 973.236 1254.81 972.91 1253.68 971.5 C 1253.72 968.481 1255.39 966.965 1257.28 964.448 z"/>
<path transform="translate(0,0)" fill="rgb(145,178,249)" d="M 223.803 1137.04 C 207.133 1121.94 190.124 1098.25 181.012 1078.09 C 164.341 1041.19 170.73 1013.87 192.105 981.387 C 198.996 970.353 205.436 959.896 210.274 947.774 C 218.041 928.319 214.058 904.358 202.834 887.09 C 196.655 877.582 184.841 867.869 175.825 860.983 C 156.241 846.026 138.369 829.047 128.04 806.225 C 106.066 758.973 106.823 699.275 124.788 650.923 C 131.307 633.21 145.083 610.261 163.396 603.055 C 202.7 587.59 248.674 628.895 273.298 654.946 C 301.394 684.671 321.729 719.009 337.063 756.156 C 336.974 759.395 337.703 761.105 338.622 764.182 C 315.897 794.743 300.621 817.974 281.513 851.136 C 280.042 853.991 277.995 858.271 276.438 860.941 C 241.525 930.106 218.725 999.13 219.11 1077.63 C 219.288 1090.7 220.126 1103.76 221.621 1116.75 C 222.067 1120.9 223.835 1133.51 223.803 1137.04 z"/>
<path transform="translate(0,0)" fill="rgb(126,149,245)" d="M 276.438 860.941 C 273.942 847.996 261.926 787.953 265.451 779.642 L 264.613 781.278 L 266.607 780.408 C 273.442 787.945 276.475 836.688 281.513 851.136 C 280.042 853.991 277.995 858.271 276.438 860.941 z"/>
<path transform="translate(0,0)" fill="rgb(188,207,250)" d="M 165.619 624.634 L 167.073 625.186 C 167.762 627.779 159.729 635.685 157.411 638.913 C 118.598 693.175 138.438 761.309 171.422 812.843 C 175.277 818.866 191.713 841.019 193.016 845.461 C 191.237 845.206 190.177 844.85 188.942 843.303 C 140.714 782.885 103.507 689.711 165.619 624.634 z"/>
<path transform="translate(0,0)" fill="rgb(255,132,125)" d="M 995.129 1120.95 C 994.274 1120.24 993.438 1119.51 992.621 1118.76 C 975.331 1103.09 966.399 1082.76 965.389 1059.48 C 964.782 1047.4 966.862 1035.34 971.478 1024.16 C 980.243 1003.47 1016.79 960.846 1033.28 943.11 C 1042.9 965.424 1052.4 987.711 1062.73 1009.71 C 1072.55 1030.64 1080.32 1046.53 1100.61 1059.16 C 1096.55 1066.89 1086.62 1087.45 1080.96 1092.36 L 1079.9 1092.35 C 1076.4 1092.35 1075.62 1092.16 1072.7 1094.08 L 1071.32 1096.44 C 1072.39 1098.4 1073.7 1098.73 1075.73 1099.71 C 1075.12 1104.19 1061.91 1116.74 1057.71 1119.88 C 1046.18 1128.4 1031.72 1131.93 1017.56 1129.68 C 1013.03 1128.95 1005.19 1126.54 1001.29 1124.17 C 997.02 1123.15 998.459 1124.05 995.69 1120.97 L 995.129 1120.95 z"/>
<path transform="translate(0,0)" fill="rgb(254,254,254)" d="M 995.69 1120.97 C 998.564 1117.95 1000.06 1116.79 1004.49 1118.07 L 1005.35 1119.83 C 1004.22 1122.52 1003.9 1122.55 1001.29 1124.17 C 997.02 1123.15 998.459 1124.05 995.69 1120.97 z"/>
<path transform="translate(0,0)" fill="rgb(254,254,254)" d="M 1048.09 1102.58 C 1050.71 1103.9 1049.63 1102.98 1051.31 1105.57 C 1049.41 1108.89 1049.06 1108.4 1045.58 1110.51 C 1042.17 1109.21 1042.91 1110.08 1041.61 1107.47 C 1043.08 1104.69 1045.2 1104.06 1048.09 1102.58 z"/>
<path transform="translate(0,0)" fill="rgb(254,254,254)" d="M 1033.01 1107.56 C 1035.58 1108.94 1034.52 1108.01 1036.17 1110.57 C 1034.41 1113.91 1033.86 1113.49 1030.32 1115.61 C 1027.28 1114.24 1028.16 1115.13 1026.62 1112.43 C 1028.74 1109.15 1029.32 1109.55 1033.01 1107.56 z"/>
<path transform="translate(0,0)" fill="rgb(254,254,254)" d="M 1016.27 1112.35 C 1019.59 1113.46 1018.83 1112.71 1020.84 1115.09 C 1019.55 1118.42 1019.13 1117.92 1015.87 1120.21 C 1012.32 1118.82 1013.02 1119.7 1011.35 1117 C 1012.27 1114.42 1013.78 1113.93 1016.27 1112.35 z"/>
<path transform="translate(0,0)" fill="rgb(145,178,249)" d="M 392.32 1214.34 C 383.352 1152.56 398.812 1075.25 428.085 1020.47 C 432.365 1038.5 438.481 1056.76 443.717 1074.61 C 451.236 1100.03 457.96 1125.68 463.879 1151.52 L 464.308 1153.25 C 465.392 1157.58 469.712 1174.49 469.623 1178.23 C 442.669 1202.71 429.08 1210.11 392.32 1214.34 z"/>
<path transform="translate(0,0)" fill="rgb(254,254,254)" d="M 464.308 1153.25 C 463.371 1157.62 448.277 1182.78 444.485 1183.32 L 444.019 1181.7 C 446.339 1176.62 460.009 1155.03 463.879 1151.52 L 464.308 1153.25 z"/>
<path transform="translate(0,0)" fill="rgb(254,254,254)" d="M 878.316 1142.14 C 874.401 1142.22 871.881 1143.02 870.219 1139.11 L 871.478 1137.43 C 874.754 1135.8 876.168 1136.34 879.836 1136.79 C 879.367 1138.46 878.845 1140.53 878.316 1142.14 z"/>
<path transform="translate(0,0)" fill="rgb(16,8,122)" d="M 397.151 791.774 C 400.969 792.147 402.051 792.208 405.638 793.482 C 405.176 792.851 404.922 878.41 406.332 889.183 C 409.608 914.225 411.322 943.77 418.786 968.846 C 421.089 976.582 427.972 996.594 427.784 1001.09 C 425.204 1001.96 423.03 1002.5 420.384 1003.16 L 418.882 1002.16 C 415.968 995.925 412.471 983.041 410.582 975.962 C 394.492 915.671 392.559 853.539 397.151 791.774 z"/>
<path transform="translate(0,0)" fill="rgb(254,254,254)" d="M 842.193 770.712 C 845.082 772.446 844.097 771.286 845.489 774.087 C 844.298 777.227 841.796 778.294 838.857 780.236 C 835.704 778.314 836.219 779.283 835.286 776.467 C 836.64 773.687 839.44 772.437 842.193 770.712 z"/>
<path transform="translate(0,0)" fill="rgb(254,254,254)" d="M 828.408 778.807 C 831.206 780.608 830.46 779.597 831.653 782.492 C 830.595 785.171 827.555 786.657 824.985 788.38 C 822.037 786.345 822.605 787.371 821.746 784.473 C 823.077 781.551 825.549 780.563 828.408 778.807 z"/>
<path transform="translate(0,0)" fill="rgb(254,254,254)" d="M 801.296 795.716 C 804.085 797.354 803.524 796.49 804.655 799.039 C 803.683 801.912 801.255 803.238 798.738 805.193 C 797.035 804.808 796.879 804.519 795.286 803.609 L 794.862 801.495 C 796.484 798.461 798.396 797.621 801.296 795.716 z"/>
<path transform="translate(0,0)" fill="rgb(254,254,254)" d="M 788.134 804.628 C 790.876 806.095 789.823 805.098 791.464 807.67 C 790.762 810.79 788.414 812.106 785.817 814.273 C 784.826 814.06 783.433 813.367 782.452 812.939 L 781.726 810.974 C 783.144 807.696 785.181 806.731 788.134 804.628 z"/>
<path transform="translate(0,0)" fill="rgb(254,254,254)" d="M 813.435 787.669 L 816.827 788.289 L 818.036 790.062 C 816.983 793.353 815.057 794.284 812.239 796.418 C 808.667 795.249 809.511 796.119 808.047 793.466 C 808.945 790.568 810.929 789.578 813.435 787.669 z"/>
<path transform="translate(0,0)" fill="rgb(254,254,254)" d="M 869.964 755.642 C 872.913 757.257 872.199 756.332 873.481 759.036 C 872.358 761.837 870.24 762.704 867.599 764.407 C 863.907 763.217 864.706 764.094 863.189 761.424 C 864.724 758.184 866.796 757.478 869.964 755.642 z"/>
<path transform="translate(0,0)" fill="rgb(254,254,254)" d="M 854.542 763.632 C 856.327 763.726 856.842 764.047 858.542 764.602 L 859.257 766.527 C 857.627 769.815 856.002 770.453 852.911 772.477 C 850.619 771.473 850.64 771.611 849.252 769.36 C 850.485 765.989 851.405 766.09 854.542 763.632 z"/>
<path transform="translate(0,0)" fill="rgb(254,254,254)" d="M 749.593 834.623 C 752.943 835.357 751.939 834.634 753.804 837.031 C 752.942 840.413 750.611 841.903 747.918 844.323 C 744.993 842.78 745.832 843.713 744.317 840.957 C 745.058 838.019 747.206 836.714 749.593 834.623 z"/>
<path transform="translate(0,0)" fill="rgb(254,254,254)" d="M 774.139 814.432 C 777.49 815.153 776.49 814.449 778.521 816.762 C 778.052 819.901 776.247 821.035 773.873 823.313 C 771.711 823.457 771.773 823.247 769.664 822.579 L 768.999 820.948 C 770.024 817.618 771.511 816.766 774.139 814.432 z"/>
<path transform="translate(0,0)" fill="rgb(254,254,254)" d="M 762.897 823.782 C 765.439 825.724 764.903 824.772 765.87 827.498 C 764.977 830.441 762.214 831.968 759.617 833.966 C 756.923 832.103 757.907 833.267 756.468 830.413 C 757.992 826.767 759.448 826.513 762.897 823.782 z"/>
<path transform="translate(0,0)" fill="rgb(254,254,254)" d="M 883.401 748.818 C 885.86 749.194 886.774 749.395 887.682 751.614 C 886.183 754.717 884.145 755.505 881.157 757.345 C 877.953 755.694 878.43 756.571 877.406 753.952 C 878.645 751.163 880.683 750.43 883.401 748.818 z"/>
<path transform="translate(0,0)" fill="rgb(254,254,254)" d="M 716.516 867.529 C 718.599 868.82 718.573 868.687 719.675 871.044 C 719.292 874.108 716.686 876.091 714.386 878.474 C 711.469 876.829 712.225 877.786 710.969 875.005 C 711.72 871.826 714.136 869.965 716.516 867.529 z"/>
<path transform="translate(0,0)" fill="rgb(254,254,254)" d="M 910.584 734.588 C 913.554 734.785 914.42 734.71 915.968 737.036 C 914.277 740.905 914.43 739.966 910.604 742.744 C 906.974 742.063 907.935 742.801 906.087 740.395 C 907.262 736.738 907.522 737.328 910.584 734.588 z"/>
<path transform="translate(0,0)" fill="rgb(254,254,254)" d="M 726.35 856.606 C 729.791 857.406 728.959 856.667 730.587 858.999 C 729.882 862.313 727.6 864.035 725.147 866.556 C 722.909 865.676 722.993 865.5 721.613 863.615 C 722.474 859.891 723.544 859.678 726.35 856.606 z"/>
<path transform="translate(0,0)" fill="rgb(254,254,254)" d="M 896.722 741.559 C 900.698 742.331 899.88 741.533 901.801 744.046 C 900.221 747.815 900.303 746.943 896.68 749.713 C 893.919 749.564 893.293 749.63 891.858 747.48 C 893.254 743.623 893.209 744.508 896.722 741.559 z"/>
<path transform="translate(0,0)" fill="rgb(254,254,254)" d="M 738.713 844.641 C 740.829 845.923 740.704 845.96 741.797 848.052 C 740.661 851.766 739.338 852.101 736.252 855.111 C 733.435 853.49 734.445 854.573 732.907 851.953 C 734.116 848.064 735.452 847.775 738.713 844.641 z"/>
<path transform="translate(0,0)" fill="rgb(254,254,254)" d="M 696.551 892.561 C 698.55 893.676 698.492 893.825 699.779 895.622 C 699.291 899.648 698.271 899.88 695.667 903.522 C 692.434 902.264 693.282 903.127 691.762 900.507 C 692.153 897.245 694.378 895.221 696.551 892.561 z"/>
<path transform="translate(0,0)" fill="rgb(254,254,254)" d="M 705.445 880.555 C 708.341 881.13 707.092 880.527 709.344 882.412 C 709.054 886.351 707.657 887.062 705.112 890.729 C 701.859 889.605 703.118 890.548 701.084 887.966 C 701.243 884.79 703.282 883.122 705.445 880.555 z"/>
<path transform="translate(0,0)" fill="rgb(254,254,254)" d="M 657.52 995.43 C 660.843 997.236 659.713 996.193 661.758 999.46 C 662.104 1003.16 661.618 1004.08 660.406 1007.64 C 653.942 1005.53 654.921 1000.72 657.52 995.43 z"/>
<path transform="translate(0,0)" fill="rgb(254,254,254)" d="M 660.99 964.111 C 663.478 964.727 663.392 964.814 665.268 966.383 C 666.326 969.437 664.806 972.555 663.771 975.864 C 661.459 975.417 661.461 975.254 659.604 973.944 C 658.359 970.571 659.833 967.743 660.99 964.111 z"/>
<path transform="translate(0,0)" fill="rgb(254,254,254)" d="M 925.489 727.702 C 927.169 727.576 928.16 728.121 929.735 728.717 L 930.226 730.528 C 928.584 733.694 926.932 734.179 923.773 735.931 C 920.928 734.533 921.639 735.365 920.234 732.884 C 921.805 729.63 922.348 729.946 925.489 727.702 z"/>
<path transform="translate(0,0)" fill="rgb(254,254,254)" d="M 687.03 906.578 C 690.219 907.451 689.404 906.729 691.033 908.999 C 690.895 912.442 688.79 914.496 686.647 917.39 C 684.553 916.284 684.711 916.294 683.29 914.362 C 683.117 911.204 685.08 909.319 687.03 906.578 z"/>
<path transform="translate(0,0)" fill="rgb(254,254,254)" d="M 665.623 949.195 C 667.976 949.576 667.913 949.709 669.691 951.159 C 670.663 954.492 668.984 957.246 667.616 960.68 C 665.378 960.126 665.318 959.869 663.577 958.439 C 662.636 955.111 664.235 952.582 665.623 949.195 z"/>
<path transform="translate(0,0)" fill="rgb(254,254,254)" d="M 679.949 919.401 C 682.181 921.062 682.162 920.911 682.991 923.514 C 682.557 927.184 680.579 928.855 678.159 931.782 C 676.516 930.144 676.526 929.915 675.503 927.911 C 675.593 924.358 677.709 922.367 679.949 919.401 z"/>
<path transform="translate(0,0)" fill="rgb(254,254,254)" d="M 665.531 1042.42 C 672.11 1043.94 673.248 1046.83 672.477 1053.62 C 666.292 1051.71 664.894 1049.08 665.531 1042.42 z"/>
<path transform="translate(0,0)" fill="rgb(254,254,254)" d="M 657.593 980.191 C 660.168 980.511 660.043 980.445 662.158 981.931 C 663.482 984.872 662.258 987.933 661.492 991.298 C 659.097 991.155 659.27 991.146 657.286 989.762 C 655.873 986.646 656.924 983.73 657.593 980.191 z"/>
<path transform="translate(0,0)" fill="rgb(254,254,254)" d="M 671.993 934.463 C 674.318 934.898 674.144 934.9 675.807 936.616 C 676.354 940.009 674.407 942.525 672.682 945.743 C 670.329 944.891 670.501 944.949 668.985 942.937 C 668.583 939.498 670.214 937.594 671.993 934.463 z"/>
<path transform="translate(0,0)" fill="rgb(254,254,254)" d="M 658.366 1011.46 C 661.933 1013.32 660.701 1012.22 662.886 1015.93 C 663.223 1019.7 663.209 1020.16 661.693 1023.62 C 656.058 1020.28 655.532 1017.5 658.366 1011.46 z"/>
<path transform="translate(0,0)" fill="rgb(254,254,254)" d="M 673.276 1056.34 C 679.636 1057.83 680.843 1061.44 680.193 1067.28 C 673.873 1066.29 672.366 1062.18 673.276 1056.34 z"/>
<path transform="translate(0,0)" fill="rgb(254,254,254)" d="M 660.388 1027.3 C 664.313 1028.39 662.876 1027.56 665.795 1030.53 C 667.053 1034.06 666.848 1034.92 666.546 1038.69 C 662.614 1037.68 664.057 1038.49 661.13 1035.52 C 659.829 1031.95 660.037 1031.13 660.388 1027.3 z"/>
<path transform="translate(0,0)" fill="rgb(254,254,254)" d="M 693.202 1081.57 C 699.578 1083.44 701.425 1086.05 700.093 1092.1 C 694.073 1089.65 691.412 1088.01 693.202 1081.57 z"/>
<path transform="translate(0,0)" fill="rgb(254,254,254)" d="M 682.568 1069.58 C 688.641 1071.03 690.761 1074.38 689.091 1080.15 C 683.129 1079.08 681.492 1074.96 682.568 1069.58 z"/>
<path transform="translate(0,0)" fill="rgb(254,254,254)" d="M 704.255 1092.5 C 707.945 1093.54 708.643 1093.65 711.573 1096.07 C 713.302 1099.74 713.126 1098.13 712.191 1102.13 C 705.66 1101.05 704.092 1098.27 704.255 1092.5 z"/>
<path transform="translate(0,0)" fill="rgb(254,254,254)" d="M 730.373 1110.67 C 734.198 1111.19 734.685 1111.36 738.097 1113.16 C 740.283 1116.3 739.797 1114.78 739.396 1119.29 C 736.284 1118.76 735.146 1118.03 732.255 1116.65 C 729.721 1113.29 730.225 1114.88 730.373 1110.67 z"/>
<path transform="translate(0,0)" fill="rgb(254,254,254)" d="M 716.31 1102.88 C 722.896 1102.62 725.197 1104.52 726.597 1110.59 C 720.295 1111.37 717.495 1108.86 716.31 1102.88 z"/>
<path transform="translate(0,0)" fill="rgb(254,254,254)" d="M 789.904 1131.86 C 793.499 1131.79 794.583 1131.74 798.07 1132.5 C 800.767 1135.17 800.037 1133.77 800.407 1138.2 C 797.699 1138.11 795.515 1137.71 792.851 1137.29 C 789.738 1134.78 790.582 1136.19 789.904 1131.86 z"/>
<path transform="translate(0,0)" fill="rgb(254,254,254)" d="M 806.069 1133.96 C 808.902 1134.03 810.794 1134.32 813.609 1134.72 C 816.535 1137.15 815.717 1135.8 816.386 1140.07 C 812.872 1140.17 811.308 1140.42 807.878 1139.45 C 805.606 1136.8 806.24 1138.02 806.069 1133.96 z"/>
<path transform="translate(0,0)" fill="rgb(254,254,254)" d="M 759.346 1123.89 C 763.184 1123.87 763.981 1123.77 767.506 1125.18 C 769.89 1127.99 769.303 1126.59 769.438 1130.65 C 765.957 1130.63 765.241 1130.35 761.893 1129.31 C 759.095 1126.51 759.794 1127.94 759.346 1123.89 z"/>
<path transform="translate(0,0)" fill="rgb(254,254,254)" d="M 775.017 1127.82 C 778.172 1128.25 779.669 1128.59 782.735 1129.46 C 785.243 1132.22 784.62 1130.79 784.671 1135.15 C 781.078 1134.78 780.165 1134.61 776.734 1133.48 C 774.396 1130.77 775.018 1132.07 775.017 1127.82 z"/>
<path transform="translate(0,0)" fill="rgb(254,254,254)" d="M 744.744 1117.61 C 748.186 1118.1 748.977 1118.39 752.224 1119.67 C 754.815 1122.71 754.153 1121.21 754.515 1125.44 C 750.753 1125.03 750.007 1125.01 746.608 1123.41 C 744.257 1120.29 744.811 1121.79 744.744 1117.61 z"/>
<path transform="translate(0,0)" fill="rgb(254,254,254)" d="M 821.656 1136.01 C 826.048 1135.81 828.742 1134.88 831.792 1137.97 L 831.681 1141.67 C 828.555 1141.61 827.063 1141.48 823.979 1140.98 C 821.57 1138.83 822.312 1139.81 821.656 1136.01 z"/>
<path transform="translate(0,0)" fill="rgb(254,254,254)" d="M 853.712 1137.12 C 856.623 1136.93 858.689 1136.93 861.607 1137.01 C 864.402 1139.14 863.565 1137.96 864.336 1142.01 C 860.708 1142.41 859.535 1142.63 855.954 1142.09 C 853.521 1139.86 854.24 1140.96 853.712 1137.12 z"/>
<path transform="translate(0,0)" fill="rgb(254,254,254)" d="M 837.592 1136.98 C 840.667 1136.78 842.525 1136.8 845.606 1136.94 C 848.429 1139.15 847.599 1137.92 848.319 1142.01 C 845.37 1142.19 843.345 1142.18 840.391 1142.07 C 837.502 1139.87 838.354 1141.11 837.592 1136.98 z"/>
<path transform="translate(0,0)" fill="rgb(225,232,252)" d="M 826.677 328.159 C 847.472 325.9 862.398 326.56 884.159 322.21 C 978.365 303.381 1060.66 234.602 1136.73 179.039 C 1235.63 106.808 1327.87 55.7045 1434.52 147.155 C 1463.1 171.665 1476.56 194.802 1514.27 208.236 C 1571.51 228.627 1632.48 228.733 1692.42 231.86 C 1709.28 232.739 1733.08 233.022 1749.02 235.461 C 1745.25 239.292 1741.54 243.185 1737.9 247.137 C 1675.41 267.851 1102.57 469.293 1096.63 468.643 C 1088.09 507.37 1085.88 550.083 1085.76 589.709 C 1085.73 600.939 1087.68 625.993 1086.84 635.591 C 1086.07 639.392 1086 637.798 1087.71 641.879 C 1090.4 659.161 1096.02 718.986 1101.84 733.017 L 1101.88 734.164 L 1004.29 734.03 C 994.831 734.009 955.707 732.771 950.467 735.891 C 948.712 730.727 944.025 730.304 939.101 728.634 C 935.084 727.548 936.545 728.466 933.737 724.71 C 918.017 711.292 916.457 696.578 914.612 677.131 C 913.176 678.598 911.731 680.056 910.277 681.505 C 900.294 680.647 885.625 677.292 873.672 676.072 C 837.076 672.375 800.35 670.107 763.577 669.273 C 759.031 651.973 755.777 632.437 751.343 614.503 C 767.568 615.573 802.326 616.544 817.069 612.595 C 821.347 611.449 825.637 609.728 827.804 605.589 C 834.734 592.35 827.127 516.153 822.071 499.486 C 820.108 493.015 815.971 490.538 810.364 487.574 C 801.864 446.165 796.258 397.245 788.537 354.585 C 807.092 349.827 816.916 344.581 826.677 328.159 z"/>
<path transform="translate(0,0)" fill="rgb(16,8,122)" d="M 914.612 677.131 C 907.283 638.853 902.123 541.497 913.605 507.132 C 919.053 490.295 931.079 476.377 946.948 468.544 C 976.761 453.818 1066.1 458.535 1096.63 468.643 C 1088.09 507.37 1085.88 550.083 1085.76 589.709 C 1085.73 600.939 1087.68 625.993 1086.84 635.591 C 1086.07 639.392 1086 637.798 1087.71 641.879 C 1090.4 659.161 1096.02 718.986 1101.84 733.017 L 1101.88 734.164 L 1004.29 734.03 C 994.831 734.009 955.707 732.771 950.467 735.891 C 948.712 730.727 944.025 730.304 939.101 728.634 C 935.084 727.548 936.545 728.466 933.737 724.71 C 918.017 711.292 916.457 696.578 914.612 677.131 z"/>
<path transform="translate(0,0)" fill="rgb(254,254,254)" d="M 933.737 724.71 C 937.041 722.532 938.317 721.174 942.202 721.33 L 944.29 722.437 C 943.92 726.221 942.306 726.807 939.101 728.634 C 935.084 727.548 936.545 728.466 933.737 724.71 z"/>
<path transform="translate(0,0)" fill="rgb(126,149,245)" d="M 1045.44 665.278 C 1048.27 662.826 1049.96 660.835 1053.56 660.022 C 1056.62 661.42 1055.59 660.572 1057.12 664.663 C 1080.19 666.088 1077.93 682.73 1070.01 693.655 C 1067.54 697.069 1009.62 696.816 1003.07 695.59 C 999.716 697.574 997.183 699.672 993.47 699.429 L 990.498 697.103 C 986.512 692.477 946.555 701.921 943.252 689.157 C 941.819 683.621 943.25 677.498 949.403 675.646 C 951.883 677.288 952.198 681.646 953.319 685.45 C 953.987 686.001 954.655 686.552 955.323 687.103 C 969.996 687.585 991.656 686.358 1005.53 687.312 C 1009.3 685.284 1011.63 683.003 1015.22 685.943 C 1018.32 687.142 1018.79 687.346 1022.09 687.345 C 1030.34 686.787 1060.51 688.428 1064.71 685.831 C 1066.28 682.49 1065.85 680.164 1065.74 676.444 C 1061.7 672.576 1049.87 674.11 1042.71 673.693 C 1037.13 676.3 1037.09 676.719 1031.86 674.243 L 1027.96 674.114 C 1010.98 674.028 993.996 674.042 977.014 674.154 C 969.497 674.169 954.186 676.185 949.648 670.786 C 949.544 667.274 949.062 668.526 951.22 666.157 C 960.572 663.354 1031.82 664.737 1045.44 665.278 z"/>
<path transform="translate(0,0)" fill="rgb(254,254,254)" d="M 1031.86 674.243 C 1034.8 670.986 1035.26 670.444 1039.34 668.44 L 1041.77 668.522 C 1043.37 671.212 1042.94 670.136 1042.71 673.693 C 1037.13 676.3 1037.09 676.719 1031.86 674.243 z"/>
<path transform="translate(0,0)" fill="rgb(254,254,254)" d="M 990.498 697.103 C 993.12 694.568 994.043 693.393 997.569 692.139 C 1001.4 692.746 999.932 692.072 1003.07 695.59 C 999.716 697.574 997.183 699.672 993.47 699.429 L 990.498 697.103 z"/>
<path transform="translate(0,0)" fill="rgb(254,254,254)" d="M 1045.44 665.278 C 1048.27 662.826 1049.96 660.835 1053.56 660.022 C 1056.62 661.42 1055.59 660.572 1057.12 664.663 C 1051.37 667.631 1050.74 669.244 1045.44 665.278 z"/>
<path transform="translate(0,0)" fill="rgb(254,254,254)" d="M 1005.53 687.312 C 1009.3 685.284 1011.63 683.003 1015.22 685.943 C 1014.04 689.703 1012.82 691.615 1008.45 692.035 L 1006.35 690.808 C 1006.13 689.931 1005.62 688.118 1005.53 687.312 z"/>
<path transform="translate(0,0)" fill="rgb(126,149,245)" d="M 931.302 546.141 C 966.712 545.203 1002.87 546.906 1038.23 545.885 C 1063.4 545.159 1058.04 576.367 1043.51 576.656 C 1006.99 577.383 970.297 577.157 933.759 576.773 C 928.733 576.72 926.429 573.611 923.597 570.142 C 922.762 565.7 922.847 562.924 924.94 558.92 C 927.973 556.885 926.697 557.453 930.574 557.225 C 933.532 560.027 931.11 561.025 933.144 566.808 C 936.769 568.825 942.874 568.074 947.315 568.07 C 980.16 568.044 1013.01 567.998 1045.85 567.958 C 1046.02 563.979 1045.9 559.138 1045.91 555.084 L 971.306 555.104 C 963.235 555.12 934.823 556.766 929.741 552.5 C 929.441 548.595 929.259 550.158 931.302 546.141 z"/>
<path transform="translate(0,0)" fill="rgb(126,149,245)" d="M 940.292 498.065 C 977.47 497.244 1015.05 498.726 1052.26 497.85 C 1068.46 497.469 1071.8 528.926 1049.91 528.827 C 1013.74 528.662 977.236 529.805 941.108 528.348 C 939.188 528.271 935.383 524.69 933.939 523.357 C 932.55 518.85 932.584 516.44 933.789 511.926 C 936.455 508.982 935.038 509.807 939.364 509.089 C 944.32 511.854 939.599 513.967 944.745 519.327 C 949.652 521.114 1043.15 519.875 1055.54 519.838 C 1055.73 515.877 1055.52 510.992 1055.44 506.94 C 1018.81 506.521 981.949 507.389 945.319 506.789 C 942.269 506.739 941.871 506.236 939.661 504.567 C 938.729 501.683 939.226 501.119 940.292 498.065 z"/>
<path transform="translate(0,0)" fill="rgb(126,149,245)" d="M 940.065 602.777 C 973.211 601.898 1006.68 603.149 1039.85 602.505 C 1046.28 602.38 1054.35 601.197 1059.8 605.045 C 1067.46 610.456 1066.37 622.981 1061.15 629.678 C 1058.14 633.57 1053.99 633.071 1049.55 633.307 C 1013.39 633.196 977.12 633.855 940.987 632.882 C 939.088 632.831 935.557 629.322 934.141 627.98 C 932.398 623.673 931.961 618.22 935.375 614.654 C 939.01 613.433 937.683 613.349 941.114 614.146 C 943.769 618.172 940.667 619.572 942.499 623.281 C 946.33 625.211 1043.02 624.293 1055.42 624.281 C 1055.71 620.649 1055.58 615.345 1055.59 611.55 C 1041.93 611.036 944.958 613.498 939.884 609.52 C 938.809 605.849 939.152 606.956 940.065 602.777 z"/>
<path transform="translate(0,0)" fill="rgb(254,254,254)" d="M 953.668 713.486 C 956.546 713.621 957.115 713.613 958.854 715.627 C 957.831 719.273 957.506 718.726 954.528 721.526 C 951.575 721.379 950.931 721.444 949.13 719.377 C 950.192 715.727 950.573 716.252 953.668 713.486 z"/>
<path transform="translate(0,0)" fill="rgb(254,254,254)" d="M 970.447 705.887 C 973.007 708.115 972.227 706.775 972.981 709.979 C 971.469 712.656 968.412 713.688 965.5 715.158 C 963.984 713.56 964.114 713.532 963.323 711.437 C 965.124 707.908 966.409 708.118 970.447 705.887 z"/>
<path transform="translate(0,0)" fill="rgb(254,254,254)" d="M 984.175 698.703 C 987.17 700.656 986.506 699.595 987.255 702.539 C 985.675 705.257 983.235 706.108 980.367 707.658 C 978.509 706.532 978.542 706.212 977.5 704.336 C 979.115 701.007 980.576 700.951 984.175 698.703 z"/>
<path transform="translate(0,0)" fill="rgb(254,254,254)" d="M 1066.33 650.604 C 1069.32 651.925 1068.27 650.904 1069.78 653.527 C 1068.92 656.338 1066.79 657.501 1064.39 659.418 L 1061.16 658.372 L 1060.22 656.48 C 1061.49 653.54 1063.64 652.506 1066.33 650.604 z"/>
<path transform="translate(0,0)" fill="rgb(254,254,254)" d="M 1078.83 641.663 C 1082.07 642.498 1081.25 641.777 1082.84 644.05 C 1081.87 647.276 1079.83 648.283 1077.07 650.396 C 1074.07 649.252 1075.23 650.161 1073.36 647.737 C 1074.78 644.176 1075.64 644.285 1078.83 641.663 z"/>
<path transform="translate(0,0)" fill="rgb(254,254,254)" d="M 1028.4 675.741 C 1029.34 679.642 1029.58 678.217 1028.07 681.454 C 1025.5 683.212 1024 684.075 1021.23 685.505 C 1019.79 682.156 1019.74 683.312 1020.32 680.171 C 1022.52 677.391 1024.98 676.968 1028.4 675.741 z"/>
<path transform="translate(0,0)" fill="rgb(254,254,254)" d="M 1225.81 410.4 L 1229.39 411.344 C 1232.01 414.082 1231.73 417.149 1232.09 421.131 C 1230.01 421.174 1229.77 420.904 1227.87 420.117 C 1225.66 417.301 1226 414.16 1225.81 410.4 z"/>
<path transform="translate(0,0)" fill="rgb(254,254,254)" d="M 1198.16 372.481 C 1203.95 373.398 1206.84 375.544 1206.32 381.194 C 1200.14 380.514 1198.33 378.198 1198.16 372.481 z"/>
<path transform="translate(0,0)" fill="rgb(254,254,254)" d="M 1209.27 383.642 C 1215.82 383.344 1217.29 386.091 1218.48 391.998 C 1216.76 392.1 1215.77 391.746 1214.12 391.343 C 1211.02 389.104 1210.61 387.154 1209.27 383.642 z"/>
<path transform="translate(0,0)" fill="rgb(254,254,254)" d="M 1220.13 395.296 C 1221.37 395.76 1222.53 396.414 1223.56 397.232 C 1226.19 399.339 1226.4 402.242 1226.68 405.361 C 1222.71 404.843 1224.18 405.462 1221.06 403.1 C 1219.45 399.965 1219.79 398.866 1220.13 395.296 z"/>
<path transform="translate(0,0)" fill="rgb(254,254,254)" d="M 1184.17 364.713 C 1190.37 366.177 1192.25 365.66 1193.13 372.326 C 1189.73 372.006 1189.23 371.843 1186.08 370.505 C 1183.65 367.31 1184.18 368.839 1184.17 364.713 z"/>
<path transform="translate(0,0)" fill="rgb(254,254,254)" d="M 1169.02 359.925 C 1171.12 359.931 1173.58 360.39 1175.68 360.707 C 1178.67 363.192 1177.81 361.815 1178.54 366.267 L 1171.89 365.022 C 1168.96 362.623 1169.78 363.941 1169.02 359.925 z"/>
<path transform="translate(0,0)" fill="rgb(254,254,254)" d="M 1153.16 357.181 C 1158.99 357.006 1160.64 356.167 1163.79 361.475 C 1161.7 361.851 1159.04 361.929 1156.87 362.058 C 1153.6 360.24 1154.67 361.384 1153.16 357.181 z"/>
<path transform="translate(0,0)" fill="rgb(254,254,254)" d="M 1122.58 358.121 C 1125.8 357.808 1127.22 357.44 1130.32 358.341 C 1131.14 360.603 1130.92 359.818 1129.7 362.742 C 1126.83 362.983 1126.08 362.947 1123.22 362.571 C 1121.69 360.461 1122.06 361.432 1122.58 358.121 z"/>
<path transform="translate(0,0)" fill="rgb(254,254,254)" d="M 1109.88 360.214 C 1113.37 361.052 1112.89 360.384 1115 362.576 C 1114.06 365.77 1113.78 365.148 1110.71 367.756 C 1108.51 367.018 1108.49 366.825 1106.78 365.364 C 1107.02 362.676 1107.71 362.783 1109.88 360.214 z"/>
<path transform="translate(0,0)" fill="rgb(254,254,254)" d="M 1139.81 355.692 C 1142.89 356.314 1145.39 356.232 1146.84 358.935 L 1145.63 361.563 C 1142.11 361.36 1141.27 361.549 1138.27 359.951 C 1138.07 357.334 1137.97 358.313 1139.81 355.692 z"/>
<path transform="translate(0,0)" fill="rgb(254,254,254)" d="M 1081.43 371.348 C 1084.38 372.071 1083.16 371.356 1085.23 373.548 C 1084.06 376.383 1082.87 376.647 1080.23 378.73 C 1078.32 378.05 1078.43 377.932 1077.05 376.395 C 1077.77 373.647 1078.9 373.463 1081.43 371.348 z"/>
<path transform="translate(0,0)" fill="rgb(254,254,254)" d="M 1053.35 386.476 C 1055.44 386.726 1055.29 386.674 1056.87 388.06 C 1056.25 390.959 1055.23 391.13 1052.78 393.472 C 1050.88 393.149 1050.91 392.969 1049.3 391.838 C 1049.67 389.083 1050.91 388.774 1053.35 386.476 z"/>
<path transform="translate(0,0)" fill="rgb(225,232,252)" d="M 1394.12 797.441 L 1619.46 847.87 C 1629.39 850.097 1689.13 862.583 1694.48 865.253 C 1718.22 906.269 1733.41 946.232 1728.05 994.46 C 1720.49 1062.56 1668.76 1115.19 1610.91 1146.53 C 1608.53 1147.81 1605.45 1149.19 1603.01 1150.2 C 1596.37 1137.8 1589.77 1135.98 1586.14 1120.75 C 1583.35 1109 1579.14 1096.85 1576.38 1084.79 C 1569.26 1089.29 1563.18 1093.29 1555.02 1095.9 C 1550.65 1097.15 1547.26 1098.15 1542.77 1098.94 C 1530.59 1100.11 1525.26 1099.88 1513.19 1097.81 C 1518.13 1123.21 1527.3 1157.65 1530.83 1181.57 C 1504.1 1190.82 1430.81 1210.83 1403.07 1209.75 C 1402.49 1208.72 1406.21 1189.68 1406.68 1186.29 C 1414.09 1133.75 1417.38 1079.11 1411.23 1026.42 C 1412.43 1012.98 1413.36 999.525 1414.02 986.052 C 1407.48 984.759 1402.65 985.648 1397.1 982.104 C 1392.91 976.369 1391.63 980.665 1387.08 977.513 L 1386.57 974.523 L 1385.67 973.785 C 1385.11 969.536 1382.83 969.33 1383.06 965.938 L 1385.71 964.685 L 1396.93 961.383 C 1395.72 940.785 1395.97 917.626 1395.79 896.805 C 1394.86 863.954 1394.73 830.408 1394.12 797.441 z"/>
<path transform="translate(0,0)" fill="rgb(16,8,122)" d="M 1525.49 854.987 C 1526.98 849.084 1529.32 841.624 1534.89 839.346 C 1560.74 828.767 1569.74 842.591 1579.77 864.107 C 1582.8 870.597 1596.1 883.748 1599.09 892.24 C 1601.13 895.911 1611.48 901.255 1614.56 904.757 C 1638.38 931.862 1630.33 969.308 1599.17 985.733 C 1592.87 988.037 1590.15 988.932 1583.62 990.206 C 1568.21 990.626 1561.89 989.133 1548.65 981.529 C 1525.2 962.371 1522.07 940.686 1533.83 913.787 C 1528.1 912.085 1526.53 911.714 1521.61 908.464 C 1524.29 901.378 1526.47 894.151 1528.74 886.925 C 1511.55 881.096 1518.03 866.409 1525.49 854.987 z"/>
<path transform="translate(0,0)" fill="rgb(255,132,125)" d="M 1525.49 854.987 C 1527.74 864.077 1530.56 867.215 1535.1 875.259 C 1533.84 880.03 1532.66 884.632 1531.13 889.326 L 1528.74 886.925 C 1511.55 881.096 1518.03 866.409 1525.49 854.987 z"/>
<path transform="translate(0,0)" fill="rgb(255,132,125)" d="M 1528.74 886.925 L 1531.13 889.326 C 1529.57 901.792 1532.35 902.921 1533.83 913.787 C 1528.1 912.085 1526.53 911.714 1521.61 908.464 C 1524.29 901.378 1526.47 894.151 1528.74 886.925 z"/>
<path transform="translate(0,0)" fill="rgb(16,8,122)" d="M 1507.7 990.795 C 1507.9 987.968 1507.95 987.457 1508.73 984.754 C 1522.57 985.363 1534.18 984.529 1547.81 982.789 C 1548.62 995.13 1562.42 999.171 1565.94 1009.02 C 1569.25 1018.25 1577.4 1078.61 1576.38 1084.79 C 1569.26 1089.29 1563.18 1093.29 1555.02 1095.9 C 1550.65 1097.15 1547.26 1098.15 1542.77 1098.94 C 1530.59 1100.11 1525.26 1099.88 1513.19 1097.81 C 1506.13 1067.76 1500.45 1021.15 1507.7 990.795 z"/>
<path transform="translate(0,0)" fill="rgb(65,68,230)" d="M 1395.79 896.805 C 1419.95 901.419 1440.69 924.985 1446.18 948.332 C 1449.15 972.686 1439.2 986.522 1414.02 986.052 C 1407.48 984.759 1402.65 985.648 1397.1 982.104 C 1392.91 976.369 1391.63 980.665 1387.08 977.513 L 1386.57 974.523 L 1385.67 973.785 C 1385.11 969.536 1382.83 969.33 1383.06 965.938 L 1385.71 964.685 L 1396.93 961.383 C 1395.72 940.785 1395.97 917.626 1395.79 896.805 z"/>
<path transform="translate(0,0)" fill="rgb(255,132,125)" d="M 1396.93 961.383 C 1407.03 961.955 1405.04 969.422 1411.66 970.642 C 1416.49 965.66 1412.84 956.247 1414.74 949.149 C 1417.14 950.534 1417.48 952.476 1418.92 955.338 C 1429.82 950.804 1434.55 949.585 1446.18 948.332 C 1449.15 972.686 1439.2 986.522 1414.02 986.052 C 1407.48 984.759 1402.65 985.648 1397.1 982.104 C 1392.91 976.369 1391.63 980.665 1387.08 977.513 L 1386.57 974.523 L 1385.67 973.785 C 1385.11 969.536 1382.83 969.33 1383.06 965.938 L 1385.71 964.685 L 1396.93 961.383 z"/>
<path transform="translate(0,0)" fill="rgb(65,68,230)" d="M 1495.79 909.636 C 1496.12 906.706 1496.1 906.573 1497.74 904.204 C 1503.44 901.642 1515.23 906.515 1521.61 908.464 C 1526.53 911.714 1528.1 912.085 1533.83 913.787 C 1522.07 940.686 1525.2 962.371 1548.65 981.529 L 1547.81 982.789 C 1534.18 984.529 1522.57 985.363 1508.73 984.754 C 1507.95 987.457 1507.9 987.968 1507.7 990.795 C 1505.98 972.949 1496.5 965.01 1490.05 949.19 C 1489.85 948.696 1490.72 942.077 1490.78 940.589 C 1488.4 937.382 1488.04 936.868 1486.78 933.095 L 1490.94 932.006 C 1494.83 928.389 1497.91 921.588 1498.43 916.274 C 1498.83 912.231 1498.25 912.538 1495.79 909.636 z"/>
<path transform="translate(0,0)" fill="rgb(255,132,125)" d="M 1433.67 862.497 C 1429.09 858.605 1422.24 853.527 1420.69 847.785 C 1424.47 846.524 1432.53 852.447 1437.26 851.328 C 1442.66 850.053 1438.26 845.413 1441.29 841.106 L 1440.38 839.565 L 1440.13 841.213 L 1441.12 840.575 C 1454.5 854.426 1435.63 908.242 1495.79 909.636 C 1498.25 912.538 1498.83 912.231 1498.43 916.274 C 1497.91 921.588 1494.83 928.389 1490.94 932.006 L 1486.78 933.095 C 1486.05 932.596 1486 932.395 1485.21 932.34 C 1446.36 929.607 1435.04 897.324 1433.67 862.497 z"/>
<path transform="translate(0,0)" fill="rgb(255,132,125)" d="M 1583.62 990.206 C 1590.15 988.932 1592.87 988.037 1599.17 985.733 C 1599.17 1000.14 1598.89 1005.55 1595.62 1019.69 C 1602.45 1027.51 1603.5 1031.28 1606.73 1041.04 C 1601.63 1035.85 1596.9 1030.59 1589.51 1028.99 C 1586.35 1029.71 1587.61 1028.91 1585.63 1031.51 C 1585.2 1035.76 1585.9 1036.23 1583.4 1038.9 C 1578.74 1034.22 1584.48 1000.51 1583.62 990.206 z"/>
<path transform="translate(0,0)" fill="rgb(233,91,88)" d="M 1749.02 235.461 C 1758 232.077 1763.39 232.167 1770.93 238.899 C 1804.18 238.416 1863.93 256.72 1887.22 280.928 C 1952.4 348.657 1906.19 474.505 1854.06 536.223 C 1852.42 538.169 1848.67 540.482 1846.47 541.574 C 1846.53 569.873 1849 589.908 1834.62 615.938 C 1832.27 620.203 1823.58 630.021 1822.85 632.989 C 1823.15 683.512 1808.58 872.412 1757.89 888.66 C 1749.98 885.986 1743.26 882.586 1738.87 874.859 C 1729.84 858.084 1724.41 844.261 1719.04 826.053 C 1681.78 699.804 1676.47 357.05 1737.9 247.137 C 1741.54 243.185 1745.25 239.292 1749.02 235.461 z"/>
<path transform="translate(0,0)" fill="rgb(225,232,252)" d="M 1770.93 238.899 C 1804.18 238.416 1863.93 256.72 1887.22 280.928 C 1952.4 348.657 1906.19 474.505 1854.06 536.223 C 1852.42 538.169 1848.67 540.482 1846.47 541.574 C 1845.42 516.442 1838.71 500.109 1822.44 480.756 C 1820.17 418.921 1808.66 286.337 1770.93 238.899 z"/>
<path transform="translate(0,0)" fill="rgb(16,8,122)" d="M 1718.9 462.831 C 1746.49 453.504 1774.56 451.877 1801.42 465.026 C 1803.22 465.908 1804.99 466.831 1806.74 467.794 C 1812.67 472.247 1817.14 475.477 1822.44 480.756 C 1838.71 500.109 1845.42 516.442 1846.47 541.574 C 1846.53 569.873 1849 589.908 1834.62 615.938 C 1832.27 620.203 1823.58 630.021 1822.85 632.989 C 1818.74 634.362 1811.7 641.181 1807.37 644.126 C 1778.59 660.546 1748.68 660.254 1718.22 649.331 C 1715.57 600.794 1715.02 552.164 1716.57 503.578 C 1716.86 495.149 1717.41 470.048 1718.9 462.831 z"/>
<path transform="translate(0,0)" fill="rgb(126,149,245)" d="M 1743.33 467.415 C 1782.54 464.974 1820.1 483.302 1831.94 522.453 C 1834.11 529.623 1838.79 547.338 1835.42 553.943 C 1832.12 555.164 1833.54 555.108 1830.06 554.051 C 1827.83 551.332 1828.45 552.587 1828.07 548.876 C 1822.39 501.347 1797.25 476.745 1748.37 476.162 C 1741.96 476.086 1735.91 477.853 1729.51 477.133 C 1726.28 475.041 1726.85 476.009 1725.19 472.952 L 1725.69 471.733 C 1730.47 467.728 1737.37 467.717 1743.33 467.415 z"/>
<path transform="translate(0,0)" fill="rgb(255,132,125)" d="M 1718.22 649.331 C 1748.68 660.254 1778.59 660.546 1807.37 644.126 C 1805.77 700.477 1793.79 820.913 1763.02 866.306 C 1730.84 818.033 1722.07 708.326 1718.22 649.331 z"/>
<path transform="translate(0,0)" fill="rgb(255,132,125)" d="M 1762.56 251.928 C 1787.61 279.325 1801.52 388.744 1804.63 429.17 C 1805.24 437.051 1807.3 457.657 1806.94 465.143 C 1806.9 466.028 1806.83 466.912 1806.74 467.794 C 1804.99 466.831 1803.22 465.908 1801.42 465.026 C 1774.56 451.877 1746.49 453.504 1718.9 462.831 C 1718.67 413.459 1735.71 291.841 1762.56 251.928 z"/>
<path transform="translate(0,0)" fill="rgb(254,254,254)" d="M 1225.17 514.186 C 1228.03 509.964 1231.21 505.138 1236.64 504.382 C 1249.46 502.599 1263.94 502.343 1276.94 501.755 L 1351.56 498.311 L 1476.14 492.354 C 1498.37 491.266 1520.6 490.01 1542.85 489.356 C 1549.4 489.163 1558.64 494.813 1559.03 501.62 C 1560.31 524.372 1559.79 547.558 1559.78 570.389 L 1559.77 646.2 C 1559.79 660.258 1559.91 674.312 1559.68 688.382 C 1559.45 703.273 1555.72 710.506 1539.63 710.834 C 1523.04 711.171 1506.45 711.001 1489.88 710.991 L 1393.03 710.915 L 1381.73 710.911 L 1286.49 710.983 C 1271 710.992 1255.2 711.406 1239.82 710.493 C 1229.66 709.89 1224.45 701.178 1224.4 691.902 C 1224.13 651.178 1224.52 610.371 1224.35 569.63 C 1224.29 553.123 1223.65 534.753 1224.75 518.482 C 1224.85 517.047 1224.99 515.614 1225.17 514.186 z"/>
<path transform="translate(0,0)" fill="rgb(65,68,230)" d="M 1438.99 535.09 C 1451.33 533.865 1468.44 535.199 1481.29 534.689 C 1489.6 535.011 1498.79 533.924 1507 534.516 C 1517.36 535.264 1527.97 545.981 1520.09 555.79 C 1510.35 568.056 1491.59 559.754 1477.85 562.118 C 1466.16 564.128 1462.09 572.415 1464.57 583.288 C 1468.91 602.25 1502.29 586.655 1513.98 596.422 C 1517.44 599.31 1518.54 602.807 1518.79 607.086 C 1520.31 625.34 1493.81 619.667 1482.92 620.46 C 1476.78 620.907 1471.51 621.506 1467.05 626.44 C 1463.03 630.883 1463.75 636.758 1463.91 642.249 C 1465.99 668.45 1508.88 648.06 1521.16 659.705 C 1531.49 670.184 1520.84 686.033 1507.84 684.037 C 1491.28 681.494 1443.98 688.862 1432.92 678.843 C 1431.36 674.739 1430.24 668.374 1430.22 663.942 C 1430.09 624.507 1429.34 584.874 1430.48 545.479 C 1430.62 540.804 1435.48 537.493 1438.99 535.09 z"/>
<path transform="translate(0,0)" fill="rgb(65,68,230)" d="M 1262.82 535.1 C 1266.97 534.73 1271.62 534.362 1275.76 534.836 C 1279.83 535.3 1283.97 537.841 1285.78 541.571 C 1294.23 558.989 1280.85 638.246 1291.9 651.219 C 1299.07 659.636 1324.16 653.83 1334.75 655.557 C 1338.87 656.227 1342.9 658.197 1345.25 661.77 C 1347.38 665.008 1347.59 668.823 1346.75 672.523 C 1345.49 678.029 1342.23 680.737 1337.63 683.421 C 1316.48 685.739 1289.26 683.018 1267.72 683.475 C 1260.53 683.627 1254.17 677.398 1254.14 670.117 C 1253.97 628.507 1253.16 586.661 1254.44 545.098 C 1254.58 540.718 1259.59 537.264 1262.82 535.1 z"/>
<path transform="translate(0,0)" fill="rgb(65,68,230)" d="M 1375.86 535.088 C 1392.52 534.019 1400.45 533.709 1400.73 553.301 C 1401.21 588.929 1400.93 624.603 1400.95 660.238 C 1400.96 671.905 1402.3 676.795 1391.63 683.355 C 1377.62 685.157 1367.51 683.837 1367.25 667.266 C 1366.68 631.196 1367.03 595.06 1366.93 558.978 C 1366.89 546.83 1365.29 542.488 1375.86 535.088 z"/>
<path transform="translate(0,0)" fill="rgb(16,8,122)" d="M 1381.73 710.911 L 1393.03 710.915 L 1394.12 797.441 C 1394.73 830.408 1394.86 863.954 1395.79 896.805 C 1395.97 917.626 1395.72 940.785 1396.93 961.383 L 1385.71 964.685 C 1384.09 942.22 1385.79 918.159 1384.1 895.285 L 1384.16 894.199 C 1381.88 891.671 1375.34 871.593 1373.28 866.469 C 1377.46 863.739 1380.04 861.333 1383.76 858.024 C 1384.28 854.075 1384.11 833.055 1383.68 829.156 C 1382.8 818.874 1383.04 805.514 1382.95 794.971 C 1382.92 767.378 1382.05 738.665 1381.73 710.911 z"/>
<path transform="translate(0,0)" fill="rgb(225,232,252)" d="M 1383.76 858.024 C 1384.12 870.079 1384.25 882.139 1384.16 894.199 C 1381.88 891.671 1375.34 871.593 1373.28 866.469 C 1377.46 863.739 1380.04 861.333 1383.76 858.024 z"/>
<path transform="translate(0,0)" fill="rgb(254,254,254)" d="M 1086.84 635.591 C 1090.21 633.401 1089.92 632.87 1093.68 632.637 L 1094.68 633.933 C 1093.3 638.598 1092.46 638.969 1087.71 641.879 C 1086 637.798 1086.07 639.392 1086.84 635.591 z"/>
<path transform="translate(0,0)" fill="rgb(253,188,186)" d="M 1232.1 428.027 L 1234.18 431.796 C 1241.17 431.713 1295.88 413.054 1306.74 409.629 L 1563.95 327.874 L 1648.34 301.128 C 1657.01 298.385 1689.79 285.024 1696.18 290.671 C 1694.28 297.938 1667.55 304.406 1660.24 306.71 L 1605.88 323.887 C 1571.29 334.878 1236.8 439.896 1233.37 442.892 C 1232.56 448.045 1233.33 448.414 1230.45 451.839 L 1227.4 452.305 L 1226.91 446.088 C 1223.54 442.13 1185.26 461.492 1174.88 458.491 C 1172.71 456.011 1173.21 457.429 1173.42 454.066 C 1180.35 446.942 1215.83 440.986 1227.44 434.429 C 1228.16 431.341 1228.4 429.17 1228.74 426.052 L 1231.67 426.59 L 1232.1 428.027 z"/>
<path transform="translate(0,0)" fill="rgb(254,254,254)" d="M 1227.4 452.305 C 1227.48 451.141 1227.57 449.978 1227.67 448.816 C 1228.02 444.758 1227.59 444.527 1229.97 442.514 L 1233.37 442.892 C 1232.56 448.045 1233.33 448.414 1230.45 451.839 L 1227.4 452.305 z"/>
<path transform="translate(0,0)" fill="rgb(254,254,254)" d="M 1228.74 426.052 L 1231.67 426.59 L 1232.1 428.027 C 1233.06 431.932 1233.75 432.471 1232.18 435.623 L 1230.65 435.322 C 1228.16 431.407 1228.97 431.373 1228.74 426.052 z"/>
<path transform="translate(0,0)" fill="rgb(253,188,186)" d="M 1132.62 469.007 C 1135.3 468.876 1135.49 469.101 1138 470.276 C 1138.96 472.627 1138.81 471.369 1137.94 474.195 C 1132.73 479.791 1116.61 485.3 1109.21 488.107 C 1107.36 488.292 1106.21 487.748 1104.44 487.179 C 1103.01 484.88 1103.3 486.146 1103.96 483.181 C 1108.48 477.817 1125.6 471.81 1132.62 469.007 z"/>
<path transform="translate(0,0)" fill="rgb(254,254,254)" d="M 1104.53 621.664 C 1107.17 622.823 1106.1 621.952 1107.72 624.508 C 1106.96 627.463 1104.43 629.073 1102 631.212 C 1099.22 629.742 1100.26 630.78 1098.79 627.974 C 1099.64 625.127 1102.11 623.665 1104.53 621.664 z"/>
<path transform="translate(0,0)" fill="rgb(254,254,254)" d="M 1138.9 589.51 C 1142.04 590.225 1140.87 589.419 1142.74 591.626 C 1142.37 594.6 1140.29 596.189 1138.15 598.513 C 1134.92 597.823 1136.14 598.629 1134.16 596.402 C 1134.56 593.335 1136.64 591.853 1138.9 589.51 z"/>
<path transform="translate(0,0)" fill="rgb(254,254,254)" d="M 1115.98 611.462 C 1119.1 612.441 1117.9 611.56 1119.81 614.034 C 1119.15 617.011 1117.16 618.223 1114.8 620.35 L 1111.8 619.552 L 1110.92 617.961 C 1111.61 615.119 1113.78 613.592 1115.98 611.462 z"/>
<path transform="translate(0,0)" fill="rgb(254,254,254)" d="M 1150.44 577.549 C 1153.11 578.865 1152.05 577.932 1153.67 580.524 C 1153.02 583.499 1150.56 585.245 1148.26 587.49 C 1145.8 586.137 1146.82 587.042 1145.25 584.486 C 1145.84 581.434 1148.11 579.845 1150.44 577.549 z"/>
<path transform="translate(0,0)" fill="rgb(254,254,254)" d="M 1160.89 565.451 C 1163.54 566.903 1162.57 565.899 1163.98 568.508 C 1163.46 571.6 1161.49 573.112 1159.29 575.508 C 1156.77 574.537 1157.87 575.271 1156.05 572.98 C 1156.31 569.734 1158.56 568.011 1160.89 565.451 z"/>
<path transform="translate(0,0)" fill="rgb(254,254,254)" d="M 1180.81 540.468 C 1182.4 541.104 1182.75 541.773 1183.9 543.072 C 1183.46 546.892 1182.49 547.002 1179.84 550.347 C 1177.22 549.732 1178.4 550.302 1176.29 548.372 C 1176.3 545.253 1178.7 543.087 1180.81 540.468 z"/>
<path transform="translate(0,0)" fill="rgb(254,254,254)" d="M 1128.03 600.483 C 1130.47 601.392 1129.37 600.695 1131.16 603.015 C 1130.86 605.907 1128.99 607.186 1126.85 609.379 C 1123.68 608.863 1124.98 609.541 1122.74 607.447 C 1123.23 604.341 1125.6 602.786 1128.03 600.483 z"/>
<path transform="translate(0,0)" fill="rgb(254,254,254)" d="M 1170.74 553.366 C 1173.59 554.531 1172.52 553.624 1174.18 556.027 C 1173.79 559.386 1171.64 560.955 1169.21 563.542 C 1167.52 562.881 1167.53 562.497 1166.43 560.977 C 1166.5 557.829 1168.64 555.975 1170.74 553.366 z"/>
<path transform="translate(0,0)" fill="rgb(254,254,254)" d="M 1198.69 514.364 C 1200.79 515.213 1200.64 515.289 1202.09 517.085 C 1201.85 520.683 1200.7 521.262 1198.49 524.63 C 1195.65 523.971 1196.8 524.668 1194.91 522.501 C 1194.89 519.436 1196.93 517.084 1198.69 514.364 z"/>
<path transform="translate(0,0)" fill="rgb(254,254,254)" d="M 1206.88 501.24 C 1208.77 501.585 1208.84 501.879 1210.42 503.056 C 1210.54 506.955 1209.38 507.488 1207.16 511.339 C 1205.21 511.044 1205.18 510.729 1203.6 509.448 C 1203.62 505.558 1204.73 505.01 1206.88 501.24 z"/>
<path transform="translate(0,0)" fill="rgb(254,254,254)" d="M 1190.6 527.576 C 1191.16 528.006 1192.5 529.497 1193.07 530.088 C 1192.68 534.384 1191.87 534.115 1188.84 538.158 C 1186.34 536.65 1187.35 537.628 1185.81 534.977 C 1186.18 531.874 1188.42 530.05 1190.6 527.576 z"/>
<path transform="translate(0,0)" fill="rgb(254,254,254)" d="M 1214.5 487.286 C 1217.31 488.17 1216.18 487.409 1218.08 489.548 C 1218.36 492.552 1216.34 494.917 1214.65 497.666 C 1212.95 497.126 1212.85 496.793 1211.49 495.562 C 1211.39 491.564 1212.38 491.213 1214.5 487.286 z"/>
<path transform="translate(0,0)" fill="rgb(254,254,254)" d="M 1221.2 472.311 C 1222.87 473.121 1222.93 473.351 1224.41 474.563 C 1224.7 478.629 1223.55 479.273 1221.53 483.388 C 1220.01 482.651 1219.61 482.08 1218.4 480.896 C 1217.78 477.698 1219.58 475.378 1221.2 472.311 z"/>
<path transform="translate(0,0)" fill="rgb(254,254,254)" d="M 1226.03 457.239 C 1227.81 458.012 1227.72 458.102 1229.31 459.262 C 1230.31 462.388 1228.8 464.897 1227.54 468.157 C 1225.32 467.743 1225.49 467.634 1223.92 465.959 C 1223.29 462.541 1224.63 460.526 1226.03 457.239 z"/>
<path transform="translate(0,0)" fill="rgb(188,207,250)" d="M 333.136 267.34 C 366.309 234.858 416.703 221.967 470.254 222.167 C 538.323 222.422 633.064 257.013 694.603 292.059 C 694.848 292.333 695.094 292.607 695.34 292.881 C 710.855 294.866 711.531 275.482 715.891 265.092 C 721.799 250.463 734.572 241.226 749.976 238.725 C 756.702 237.634 760.857 237.566 767.686 237.571 C 807.097 237.6 836.612 292.807 826.677 328.159 C 816.916 344.581 807.092 349.827 788.537 354.585 C 796.258 397.245 801.864 446.165 810.364 487.574 C 815.971 490.538 820.108 493.015 822.071 499.486 C 827.127 516.153 834.734 592.35 827.804 605.589 C 825.637 609.728 821.347 611.449 817.069 612.595 C 802.326 616.544 767.568 615.573 751.343 614.503 C 755.777 632.437 759.031 651.973 763.577 669.273 C 763.666 676.658 763.388 682.281 757.469 687.95 C 742.96 701.846 702.824 705.955 683.139 705.652 C 664.968 705.373 622.113 701.801 606.998 690.299 C 603.36 687.53 601.766 680.335 601.864 675.609 C 601.879 675.017 601.905 674.426 601.942 673.835 C 567.507 676.534 533.114 679.747 498.774 683.473 C 480.467 686.518 460.138 687.468 441.706 690.57 C 438.966 690.895 436.235 691.288 433.514 691.749 C 381.211 705.086 371.173 725.507 338.622 764.182 C 337.703 761.105 336.974 759.395 337.063 756.156 C 338.76 752.112 339.136 752.332 337.334 747.579 C 327.747 722.29 313.254 697.614 300.915 673.391 C 287.605 647.167 276.343 619.953 267.23 591.992 C 240.754 512.164 215.4 389.534 232.19 306.338 C 243.099 252.281 289.997 254.838 333.136 267.34 z"/>
<path transform="translate(0,0)" fill="url(#Gradient1)" d="M 695.34 292.881 C 710.855 294.866 711.531 275.482 715.891 265.092 C 721.799 250.463 734.572 241.226 749.976 238.725 C 756.702 237.634 760.857 237.566 767.686 237.571 C 807.097 237.6 836.612 292.807 826.677 328.159 C 816.916 344.581 807.092 349.827 788.537 354.585 C 796.258 397.245 801.864 446.165 810.364 487.574 C 815.971 490.538 820.108 493.015 822.071 499.486 C 827.127 516.153 834.734 592.35 827.804 605.589 C 825.637 609.728 821.347 611.449 817.069 612.595 C 802.326 616.544 767.568 615.573 751.343 614.503 C 755.777 632.437 759.031 651.973 763.577 669.273 C 763.666 676.658 763.388 682.281 757.469 687.95 C 742.96 701.846 702.824 705.955 683.139 705.652 C 664.968 705.373 622.113 701.801 606.998 690.299 C 603.36 687.53 601.766 680.335 601.864 675.609 C 601.879 675.017 601.905 674.426 601.942 673.835 C 604.709 657.711 606.639 636.46 608.613 619.949 L 620.528 520.795 C 619.645 517.681 611.511 510.228 608.63 506.8 C 595.074 490.675 588.678 475.573 597.084 455.498 C 584.982 450.443 577.878 436.13 575.935 423.74 C 573.402 407.591 584.762 399.978 593.978 388.767 C 607.293 372.57 584.623 358.943 583.95 342.582 C 583.174 332.319 585.416 324.921 592.116 316.812 C 605.553 300.551 624.174 290.641 645.415 296.404 C 652.373 298.291 664.129 303.327 670.688 302.762 C 683.64 301.646 679.866 294.529 695.34 292.881 z"/>
<path transform="translate(0,0)" fill="rgb(255,132,125)" d="M 661.278 503.547 C 668.666 523.571 675.753 543.704 682.535 563.941 C 700.219 616.238 693.525 611.202 751.343 614.503 C 755.777 632.437 759.031 651.973 763.577 669.273 C 763.666 676.658 763.388 682.281 757.469 687.95 C 742.96 701.846 702.824 705.955 683.139 705.652 C 664.968 705.373 622.113 701.801 606.998 690.299 C 603.36 687.53 601.766 680.335 601.864 675.609 C 601.879 675.017 601.905 674.426 601.942 673.835 C 604.709 657.711 606.639 636.46 608.613 619.949 L 620.528 520.795 L 621.95 519.772 C 640.887 525.518 657.021 526.892 661.278 503.547 z"/>
<path transform="translate(0,0)" fill="rgb(255,132,125)" d="M 810.364 487.574 C 782.644 485.535 760.608 515.524 736.395 523.532 C 726.689 527.608 709.081 514.879 706.146 505.376 C 696.278 473.426 690.268 438.458 682.209 405.84 C 680.816 397.913 678.207 391.464 683.358 384.455 C 704.644 355.488 726.163 352.898 759.321 357.668 C 765.575 358.568 781.362 356.032 788.537 354.585 C 796.258 397.245 801.864 446.165 810.364 487.574 z"/>
<path transform="translate(0,0)" fill="rgb(253,188,186)" d="M 597.084 455.498 C 609.55 443.749 629.531 437.768 643.193 451.672 C 655.781 464.483 654.595 487.951 661.278 503.547 C 657.021 526.892 640.887 525.518 621.95 519.772 L 620.528 520.795 C 619.645 517.681 611.511 510.228 608.63 506.8 C 595.074 490.675 588.678 475.573 597.084 455.498 z"/>
<path transform="translate(0,0)" fill="rgb(225,232,252)" d="M 333.136 267.34 C 366.309 234.858 416.703 221.967 470.254 222.167 C 538.323 222.422 633.064 257.013 694.603 292.059 C 694.848 292.333 695.094 292.607 695.34 292.881 C 679.866 294.529 683.64 301.646 670.688 302.762 C 664.129 303.327 652.373 298.291 645.415 296.404 C 624.174 290.641 605.553 300.551 592.116 316.812 C 585.416 324.921 583.174 332.319 583.95 342.582 C 584.623 358.943 607.293 372.57 593.978 388.767 C 584.762 399.978 573.402 407.591 575.935 423.74 C 577.878 436.13 584.982 450.443 597.084 455.498 C 588.678 475.573 595.074 490.675 608.63 506.8 C 611.511 510.228 619.645 517.681 620.528 520.795 L 608.613 619.949 C 606.639 636.46 604.709 657.711 601.942 673.835 C 567.507 676.534 533.114 679.747 498.774 683.473 C 495.489 681.644 495.381 679.105 495.178 674.741 C 490.751 579.631 552.976 528.957 508.454 430.192 C 474.191 354.187 410.087 298.142 333.136 267.34 z"/>
<path transform="translate(0,0)" fill="rgb(126,149,245)" d="M 433.514 691.749 C 431.652 679.207 425.321 655.252 422.173 642.007 C 412.05 599.797 401.446 557.703 390.365 515.734 C 388.004 506.61 376.009 471.135 378.292 464.707 L 380.174 464.033 C 388.677 471.739 431.216 661.044 437.599 684.702 C 438.724 688.874 437.477 688.671 441.706 690.57 C 438.966 690.895 436.235 691.288 433.514 691.749 z"/>
<path transform="translate(0,0)" fill="rgb(255,132,125)" d="M 1542.77 1098.94 C 1547.26 1098.15 1550.65 1097.15 1555.02 1095.9 C 1559.59 1106.25 1583.48 1152.62 1584.36 1158.86 C 1573.46 1166.3 1558.7 1171.84 1546.14 1176.05 C 1545.6 1182.8 1546.84 1213.11 1549.26 1219.04 C 1542.58 1226.33 1537.4 1227.01 1527.82 1226.62 C 1531.28 1223.08 1535.48 1220.57 1539.62 1217.84 C 1536.32 1206.05 1533.6 1193.53 1530.83 1181.57 C 1527.3 1157.65 1518.13 1123.21 1513.19 1097.81 C 1525.26 1099.88 1530.59 1100.11 1542.77 1098.94 z"/>
<path transform="translate(0,0)" fill="rgb(225,232,252)" d="M 1542.77 1098.94 C 1547.26 1098.15 1550.65 1097.15 1555.02 1095.9 C 1559.59 1106.25 1583.48 1152.62 1584.36 1158.86 C 1573.46 1166.3 1558.7 1171.84 1546.14 1176.05 C 1544.02 1169.03 1542.98 1109.37 1542.77 1098.94 z"/>
<path transform="translate(0,0)" fill="rgb(255,132,125)" d="M 1576.38 1084.79 C 1579.14 1096.85 1583.35 1109 1586.14 1120.75 C 1589.77 1135.98 1596.37 1137.8 1603.01 1150.2 C 1606.2 1156.75 1607.24 1159.93 1609.22 1166.35 C 1610.83 1171.57 1615.05 1193.36 1616.91 1196.29 C 1621.99 1197.27 1620.77 1196.31 1623.51 1199.3 C 1625.24 1205.34 1623.22 1230.32 1614.54 1231.74 C 1611.22 1232.28 1599.95 1232.43 1597.49 1230.76 C 1600.01 1228.01 1603.13 1227.76 1606.82 1227.29 C 1610.34 1199.29 1598.52 1182.95 1584.36 1158.86 C 1583.48 1152.62 1559.59 1106.25 1555.02 1095.9 C 1563.18 1093.29 1569.26 1089.29 1576.38 1084.79 z"/>
<path transform="translate(0,0)" fill="rgb(65,68,230)" d="M 1616.91 1196.29 C 1621.99 1197.27 1620.77 1196.31 1623.51 1199.3 C 1625.24 1205.34 1623.22 1230.32 1614.54 1231.74 C 1611.22 1232.28 1599.95 1232.43 1597.49 1230.76 C 1600.01 1228.01 1603.13 1227.76 1606.82 1227.29 C 1623.74 1226.76 1614.49 1210.44 1616.69 1197.58 L 1616.91 1196.29 z"/>
<path transform="translate(0,0)" fill="rgb(65,68,230)" d="M 1345.16 1207.08 C 1349.61 1208.12 1353.85 1209.23 1358.4 1209.64 L 1357.39 1211.22 L 1356.05 1214.53 C 1357.24 1218.69 1358.72 1224.81 1356.94 1228.84 C 1354.21 1232.15 1349.63 1233.98 1345.87 1233.89 C 1339.16 1233.73 1311.99 1234.86 1307.7 1233.35 L 1307.06 1232 C 1310.17 1226.41 1323.57 1223.68 1329.84 1218.7 C 1331.98 1218.67 1339.98 1215.23 1343.35 1214.21 C 1345.21 1211.22 1345.02 1210.75 1345.16 1207.08 z"/>
<path transform="translate(0,0)" fill="rgb(253,188,186)" d="M 1345.16 1207.08 C 1349.61 1208.12 1353.85 1209.23 1358.4 1209.64 L 1357.39 1211.22 L 1356.05 1214.53 C 1352.97 1217.5 1346.67 1217.1 1343.35 1214.21 C 1345.21 1211.22 1345.02 1210.75 1345.16 1207.08 z"/>
<path transform="translate(0,0)" fill="rgb(65,68,230)" d="M 1390.79 1209.57 L 1400.41 1209.92 C 1400.52 1211.55 1400.63 1214.32 1400.85 1215.83 C 1413.48 1239.94 1389.75 1238.83 1385.42 1231.04 C 1384.48 1226.68 1387.12 1218.88 1390.93 1216.52 C 1391.51 1214.41 1391.25 1213.7 1391.12 1211.46 L 1390.79 1209.57 z"/>
<path transform="translate(0,0)" fill="rgb(253,188,186)" d="M 1390.79 1209.57 L 1400.41 1209.92 C 1400.52 1211.55 1400.63 1214.32 1400.85 1215.83 C 1397.7 1218.2 1394.32 1219.18 1390.93 1216.52 C 1391.51 1214.41 1391.25 1213.7 1391.12 1211.46 L 1390.79 1209.57 z"/>
<path transform="translate(0,0)" fill="rgb(65,68,230)" d="M 1549.26 1219.04 C 1552.69 1222.29 1557.04 1228.19 1554.24 1232.86 C 1547.25 1234.85 1525.73 1235.57 1518.6 1233.84 L 1517.37 1232.6 C 1519.02 1229.59 1524.6 1227.62 1527.82 1226.62 C 1537.4 1227.01 1542.58 1226.33 1549.26 1219.04 z"/>
</svg>