<svg width="914" height="779" viewBox="0 0 914 779" fill="none" xmlns="http://www.w3.org/2000/svg">
<path d="M802.818 711.818V711.273C802.879 705.485 803.485 700.879 804.636 697.455C805.788 694.03 807.424 691.258 809.545 689.136C811.667 687.015 814.212 685.061 817.182 683.273C818.97 682.182 820.576 680.894 822 679.409C823.424 677.894 824.545 676.152 825.364 674.182C826.212 672.212 826.636 670.03 826.636 667.636C826.636 664.667 825.939 662.091 824.545 659.909C823.152 657.727 821.288 656.045 818.955 654.864C816.621 653.682 814.03 653.091 811.182 653.091C808.697 653.091 806.303 653.606 804 654.636C801.697 655.667 799.773 657.288 798.227 659.5C796.682 661.712 795.788 664.606 795.545 668.182H784.091C784.333 663.03 785.667 658.621 788.091 654.955C790.545 651.288 793.773 648.485 797.773 646.545C801.803 644.606 806.273 643.636 811.182 643.636C816.515 643.636 821.152 644.697 825.091 646.818C829.061 648.939 832.121 651.848 834.273 655.545C836.455 659.242 837.545 663.455 837.545 668.182C837.545 671.515 837.03 674.53 836 677.227C835 679.924 833.545 682.333 831.636 684.455C829.758 686.576 827.485 688.455 824.818 690.091C822.152 691.758 820.015 693.515 818.409 695.364C816.803 697.182 815.636 699.348 814.909 701.864C814.182 704.379 813.788 707.515 813.727 711.273V711.818H802.818ZM808.636 738.727C806.394 738.727 804.47 737.924 802.864 736.318C801.258 734.712 800.455 732.788 800.455 730.545C800.455 728.303 801.258 726.379 802.864 724.773C804.47 723.167 806.394 722.364 808.636 722.364C810.879 722.364 812.803 723.167 814.409 724.773C816.015 726.379 816.818 728.303 816.818 730.545C816.818 732.03 816.439 733.394 815.682 734.636C814.955 735.879 813.97 736.879 812.727 737.636C811.515 738.364 810.152 738.727 808.636 738.727Z" fill="#3A506B"/>
<path d="M152.939 779H51.0614L0 690.623L51.0614 602H152.939L204 690.623L152.939 779Z" fill="#2B595F"/>
<path d="M507.939 779H406.061L355 690.623L406.061 602H507.939L559 690.623L507.939 779Z" fill="#2B595F"/>
<path d="M152.939 177L51.0614 177L0 88.6231L51.0614 0L152.939 0L204 88.6231L152.939 177Z" fill="#2B595F"/>
<path d="M862.939 177L761.061 177L710 88.6231L761.061 0L862.939 0L914 88.6231L862.939 177Z" fill="#2B595F"/>
<path d="M507.939 177L406.061 177L355 88.6231L406.061 0L507.939 0L559 88.6231L507.939 177Z" fill="#2B595F"/>
<path d="M152.939 478H51.0614L0 389.623L51.0614 301H152.939L204 389.623L152.939 478Z" fill="#2B595F"/>
<path d="M862.939 478H761.061L710 389.623L761.061 301H862.939L914 389.623L862.939 478Z" fill="#2B595F"/>
<path d="M507.939 478H406.061L355 389.623L406.061 301H507.939L559 389.623L507.939 478Z" fill="#2B595F"/>
<path d="M101.045 123.955C97.0455 123.955 93.4432 123.159 90.2386 121.568C87.0341 119.977 84.4659 117.795 82.5341 115.023C80.6023 112.25 79.5455 109.091 79.3636 105.545H87.5455C87.8636 108.705 89.2955 111.318 91.8409 113.386C94.4091 115.432 97.4773 116.455 101.045 116.455C103.909 116.455 106.455 115.784 108.682 114.443C110.932 113.102 112.693 111.261 113.966 108.92C115.261 106.557 115.909 103.886 115.909 100.909C115.909 97.8636 115.239 95.1477 113.898 92.7614C112.58 90.3523 110.761 88.4545 108.443 87.0682C106.125 85.6818 103.477 84.9773 100.5 84.9545C98.3636 84.9318 96.1705 85.2614 93.9205 85.9432C91.6705 86.6023 89.8182 87.4545 88.3636 88.5L80.4545 87.5455L84.6818 53.1818H120.955V60.6818H91.7727L89.3182 81.2727H89.7273C91.1591 80.1364 92.9545 79.1932 95.1136 78.4432C97.2727 77.6932 99.5227 77.3182 101.864 77.3182C106.136 77.3182 109.943 78.3409 113.284 80.3864C116.648 82.4091 119.284 85.1818 121.193 88.7045C123.125 92.2273 124.091 96.25 124.091 100.773C124.091 105.227 123.091 109.205 121.091 112.705C119.114 116.182 116.386 118.932 112.909 120.955C109.432 122.955 105.477 123.955 101.045 123.955Z" fill="white"/>
<path d="M426.818 424.955C422.318 424.955 418.307 424.182 414.784 422.636C411.284 421.091 408.5 418.943 406.432 416.193C404.386 413.42 403.273 410.205 403.091 406.545H411.682C411.864 408.795 412.636 410.739 414 412.375C415.364 413.989 417.148 415.239 419.352 416.125C421.557 417.011 424 417.455 426.682 417.455C429.682 417.455 432.341 416.932 434.659 415.886C436.977 414.841 438.795 413.386 440.114 411.523C441.432 409.659 442.091 407.5 442.091 405.045C442.091 402.477 441.455 400.216 440.182 398.261C438.909 396.284 437.045 394.739 434.591 393.625C432.136 392.511 429.136 391.955 425.591 391.955H420V384.455H425.591C428.364 384.455 430.795 383.955 432.886 382.955C435 381.955 436.648 380.545 437.83 378.727C439.034 376.909 439.636 374.773 439.636 372.318C439.636 369.955 439.114 367.898 438.068 366.148C437.023 364.398 435.545 363.034 433.636 362.057C431.75 361.08 429.523 360.591 426.955 360.591C424.545 360.591 422.273 361.034 420.136 361.92C418.023 362.784 416.295 364.045 414.955 365.705C413.614 367.341 412.886 369.318 412.773 371.636H404.591C404.727 367.977 405.83 364.773 407.898 362.023C409.966 359.25 412.67 357.091 416.011 355.545C419.375 354 423.068 353.227 427.091 353.227C431.409 353.227 435.114 354.102 438.205 355.852C441.295 357.58 443.67 359.864 445.33 362.705C446.989 365.545 447.818 368.614 447.818 371.909C447.818 375.841 446.784 379.193 444.716 381.966C442.67 384.739 439.886 386.659 436.364 387.727V388.273C440.773 389 444.216 390.875 446.693 393.898C449.17 396.898 450.409 400.614 450.409 405.045C450.409 408.841 449.375 412.25 447.307 415.273C445.261 418.273 442.466 420.636 438.92 422.364C435.375 424.091 431.341 424.955 426.818 424.955ZM487.534 424.955C484.67 424.909 481.807 424.364 478.943 423.318C476.08 422.273 473.466 420.511 471.102 418.034C468.739 415.534 466.841 412.159 465.409 407.909C463.977 403.636 463.261 398.273 463.261 391.818C463.261 385.636 463.841 380.159 465 375.386C466.159 370.591 467.841 366.557 470.045 363.284C472.25 359.989 474.909 357.489 478.023 355.784C481.159 354.08 484.693 353.227 488.625 353.227C492.534 353.227 496.011 354.011 499.057 355.58C502.125 357.125 504.625 359.284 506.557 362.057C508.489 364.83 509.739 368.023 510.307 371.636H501.989C501.216 368.5 499.716 365.898 497.489 363.83C495.261 361.761 492.307 360.727 488.625 360.727C483.216 360.727 478.955 363.08 475.841 367.784C472.75 372.489 471.193 379.091 471.17 387.591H471.716C472.989 385.659 474.5 384.011 476.25 382.648C478.023 381.261 479.977 380.193 482.114 379.443C484.25 378.693 486.511 378.318 488.898 378.318C492.898 378.318 496.557 379.318 499.875 381.318C503.193 383.295 505.852 386.034 507.852 389.534C509.852 393.011 510.852 397 510.852 401.5C510.852 405.818 509.886 409.773 507.955 413.364C506.023 416.932 503.307 419.773 499.807 421.886C496.33 423.977 492.239 425 487.534 424.955ZM487.534 417.455C490.398 417.455 492.966 416.739 495.239 415.307C497.534 413.875 499.341 411.955 500.659 409.545C502 407.136 502.67 404.455 502.67 401.5C502.67 398.614 502.023 395.989 500.727 393.625C499.455 391.239 497.693 389.341 495.443 387.932C493.216 386.523 490.67 385.818 487.807 385.818C485.648 385.818 483.636 386.25 481.773 387.114C479.909 387.955 478.273 389.114 476.864 390.591C475.477 392.068 474.386 393.761 473.591 395.67C472.795 397.557 472.398 399.545 472.398 401.636C472.398 404.409 473.045 407 474.341 409.409C475.659 411.818 477.455 413.761 479.727 415.239C482.023 416.716 484.625 417.455 487.534 417.455Z" fill="white"/>
<path d="M443.773 656.182V726H435.318V665.045H434.909L417.864 676.364V667.773L435.318 656.182H443.773ZM488.398 656.182V726H479.943V665.045H479.534L462.489 676.364V667.773L479.943 656.182H488.398Z" fill="white"/>
<path d="M101.591 725.955C96.9091 725.955 92.7727 725.125 89.1818 723.466C85.6136 721.784 82.8295 719.477 80.8295 716.545C78.8295 713.591 77.8409 710.227 77.8636 706.455C77.8409 703.5 78.4205 700.773 79.6023 698.273C80.7841 695.75 82.3977 693.648 84.4432 691.966C86.5114 690.261 88.8182 689.182 91.3636 688.727V688.318C88.0227 687.455 85.3636 685.58 83.3864 682.693C81.4091 679.784 80.4318 676.477 80.4545 672.773C80.4318 669.227 81.3295 666.057 83.1477 663.261C84.9659 660.466 87.4659 658.261 90.6477 656.648C93.8523 655.034 97.5 654.227 101.591 654.227C105.636 654.227 109.25 655.034 112.432 656.648C115.614 658.261 118.114 660.466 119.932 663.261C121.773 666.057 122.705 669.227 122.727 672.773C122.705 676.477 121.693 679.784 119.693 682.693C117.716 685.58 115.091 687.455 111.818 688.318V688.727C114.341 689.182 116.614 690.261 118.636 691.966C120.659 693.648 122.273 695.75 123.477 698.273C124.682 700.773 125.295 703.5 125.318 706.455C125.295 710.227 124.273 713.591 122.25 716.545C120.25 719.477 117.466 721.784 113.898 723.466C110.352 725.125 106.25 725.955 101.591 725.955ZM101.591 718.455C104.75 718.455 107.477 717.943 109.773 716.92C112.068 715.898 113.841 714.455 115.091 712.591C116.341 710.727 116.977 708.545 117 706.045C116.977 703.409 116.295 701.08 114.955 699.057C113.614 697.034 111.784 695.443 109.466 694.284C107.17 693.125 104.545 692.545 101.591 692.545C98.6136 692.545 95.9545 693.125 93.6136 694.284C91.2955 695.443 89.4659 697.034 88.125 699.057C86.8068 701.08 86.1591 703.409 86.1818 706.045C86.1591 708.545 86.7614 710.727 87.9886 712.591C89.2386 714.455 91.0227 715.898 93.3409 716.92C95.6591 717.943 98.4091 718.455 101.591 718.455ZM101.591 685.318C104.091 685.318 106.307 684.818 108.239 683.818C110.193 682.818 111.727 681.42 112.841 679.625C113.955 677.83 114.523 675.727 114.545 673.318C114.523 670.955 113.966 668.898 112.875 667.148C111.784 665.375 110.273 664.011 108.341 663.057C106.409 662.08 104.159 661.591 101.591 661.591C98.9773 661.591 96.6932 662.08 94.7386 663.057C92.7841 664.011 91.2727 665.375 90.2045 667.148C89.1364 668.898 88.6136 670.955 88.6364 673.318C88.6136 675.727 89.1477 677.83 90.2386 679.625C91.3523 681.42 92.8864 682.818 94.8409 683.818C96.7955 684.818 99.0455 685.318 101.591 685.318Z" fill="white"/>
<path d="M781.818 424.955C777.318 424.955 773.307 424.182 769.784 422.636C766.284 421.091 763.5 418.943 761.432 416.193C759.386 413.42 758.273 410.205 758.091 406.545H766.682C766.864 408.795 767.636 410.739 769 412.375C770.364 413.989 772.148 415.239 774.352 416.125C776.557 417.011 779 417.455 781.682 417.455C784.682 417.455 787.341 416.932 789.659 415.886C791.977 414.841 793.795 413.386 795.114 411.523C796.432 409.659 797.091 407.5 797.091 405.045C797.091 402.477 796.455 400.216 795.182 398.261C793.909 396.284 792.045 394.739 789.591 393.625C787.136 392.511 784.136 391.955 780.591 391.955H775V384.455H780.591C783.364 384.455 785.795 383.955 787.886 382.955C790 381.955 791.648 380.545 792.83 378.727C794.034 376.909 794.636 374.773 794.636 372.318C794.636 369.955 794.114 367.898 793.068 366.148C792.023 364.398 790.545 363.034 788.636 362.057C786.75 361.08 784.523 360.591 781.955 360.591C779.545 360.591 777.273 361.034 775.136 361.92C773.023 362.784 771.295 364.045 769.955 365.705C768.614 367.341 767.886 369.318 767.773 371.636H759.591C759.727 367.977 760.83 364.773 762.898 362.023C764.966 359.25 767.67 357.091 771.011 355.545C774.375 354 778.068 353.227 782.091 353.227C786.409 353.227 790.114 354.102 793.205 355.852C796.295 357.58 798.67 359.864 800.33 362.705C801.989 365.545 802.818 368.614 802.818 371.909C802.818 375.841 801.784 379.193 799.716 381.966C797.67 384.739 794.886 386.659 791.364 387.727V388.273C795.773 389 799.216 390.875 801.693 393.898C804.17 396.898 805.409 400.614 805.409 405.045C805.409 408.841 804.375 412.25 802.307 415.273C800.261 418.273 797.466 420.636 793.92 422.364C790.375 424.091 786.341 424.955 781.818 424.955ZM841.58 353.227C844.443 353.25 847.307 353.795 850.17 354.864C853.034 355.932 855.648 357.705 858.011 360.182C860.375 362.636 862.273 365.989 863.705 370.239C865.136 374.489 865.852 379.818 865.852 386.227C865.852 392.432 865.261 397.943 864.08 402.761C862.92 407.557 861.239 411.602 859.034 414.898C856.852 418.193 854.193 420.693 851.057 422.398C847.943 424.102 844.42 424.955 840.489 424.955C836.58 424.955 833.091 424.182 830.023 422.636C826.977 421.068 824.477 418.898 822.523 416.125C820.591 413.33 819.352 410.091 818.807 406.409H827.125C827.875 409.614 829.364 412.261 831.591 414.352C833.841 416.42 836.807 417.455 840.489 417.455C845.875 417.455 850.125 415.102 853.239 410.398C856.375 405.693 857.943 399.045 857.943 390.455H857.398C856.125 392.364 854.614 394.011 852.864 395.398C851.114 396.784 849.17 397.852 847.034 398.602C844.898 399.352 842.625 399.727 840.216 399.727C836.216 399.727 832.545 398.739 829.205 396.761C825.886 394.761 823.227 392.023 821.227 388.545C819.25 385.045 818.261 381.045 818.261 376.545C818.261 372.273 819.216 368.364 821.125 364.818C823.057 361.25 825.761 358.409 829.239 356.295C832.739 354.182 836.852 353.159 841.58 353.227ZM841.58 360.727C838.716 360.727 836.136 361.443 833.841 362.875C831.568 364.284 829.761 366.193 828.42 368.602C827.102 370.989 826.443 373.636 826.443 376.545C826.443 379.455 827.08 382.102 828.352 384.489C829.648 386.852 831.409 388.739 833.636 390.148C835.886 391.534 838.443 392.227 841.307 392.227C843.466 392.227 845.477 391.807 847.341 390.966C849.205 390.102 850.83 388.932 852.216 387.455C853.625 385.955 854.727 384.261 855.523 382.375C856.318 380.466 856.716 378.477 856.716 376.409C856.716 373.682 856.057 371.125 854.739 368.739C853.443 366.352 851.648 364.42 849.352 362.943C847.08 361.466 844.489 360.727 841.58 360.727Z" fill="white"/>
<path d="M81.7727 354.182V424H73.3182V363.045H72.9091L55.8636 374.364V365.773L73.3182 354.182H81.7727ZM101.852 424V417.864L124.898 392.636C127.602 389.682 129.83 387.114 131.58 384.932C133.33 382.727 134.625 380.659 135.466 378.727C136.33 376.773 136.761 374.727 136.761 372.591C136.761 370.136 136.17 368.011 134.989 366.216C133.83 364.42 132.239 363.034 130.216 362.057C128.193 361.08 125.92 360.591 123.398 360.591C120.716 360.591 118.375 361.148 116.375 362.261C114.398 363.352 112.864 364.886 111.773 366.864C110.705 368.841 110.17 371.159 110.17 373.818H102.125C102.125 369.727 103.068 366.136 104.955 363.045C106.841 359.955 109.409 357.545 112.659 355.818C115.932 354.091 119.602 353.227 123.67 353.227C127.761 353.227 131.386 354.091 134.545 355.818C137.705 357.545 140.182 359.875 141.977 362.807C143.773 365.739 144.67 369 144.67 372.591C144.67 375.159 144.205 377.67 143.273 380.125C142.364 382.557 140.773 385.273 138.5 388.273C136.25 391.25 133.125 394.886 129.125 399.182L113.443 415.955V416.5H145.898V424H101.852Z" fill="white"/>
<path d="M759.227 123V116.864L782.273 91.6364C784.977 88.6818 787.205 86.1136 788.955 83.9318C790.705 81.7273 792 79.6591 792.841 77.7273C793.705 75.7727 794.136 73.7273 794.136 71.5909C794.136 69.1364 793.545 67.0114 792.364 65.2159C791.205 63.4205 789.614 62.0341 787.591 61.0568C785.568 60.0795 783.295 59.5909 780.773 59.5909C778.091 59.5909 775.75 60.1477 773.75 61.2614C771.773 62.3523 770.239 63.8864 769.148 65.8636C768.08 67.8409 767.545 70.1591 767.545 72.8182H759.5C759.5 68.7273 760.443 65.1364 762.33 62.0455C764.216 58.9545 766.784 56.5455 770.034 54.8182C773.307 53.0909 776.977 52.2273 781.045 52.2273C785.136 52.2273 788.761 53.0909 791.92 54.8182C795.08 56.5455 797.557 58.875 799.352 61.8068C801.148 64.7386 802.045 68 802.045 71.5909C802.045 74.1591 801.58 76.6705 800.648 79.125C799.739 81.5568 798.148 84.2727 795.875 87.2727C793.625 90.25 790.5 93.8864 786.5 98.1818L770.818 114.955V115.5H803.273V123H759.227ZM814.216 108.682V101.727L844.898 53.1818H849.943V63.9545H846.534L823.352 100.636V101.182H864.67V108.682H814.216ZM847.08 123V106.568V103.33V53.1818H855.125V123H847.08Z" fill="white"/>
<path d="M456.591 123.955C451.909 123.955 447.773 123.125 444.182 121.466C440.614 119.784 437.83 117.477 435.83 114.545C433.83 111.591 432.841 108.227 432.864 104.455C432.841 101.5 433.42 98.7727 434.602 96.2727C435.784 93.75 437.398 91.6477 439.443 89.9659C441.511 88.2614 443.818 87.1818 446.364 86.7273V86.3182C443.023 85.4545 440.364 83.5795 438.386 80.6932C436.409 77.7841 435.432 74.4773 435.455 70.7727C435.432 67.2273 436.33 64.0568 438.148 61.2614C439.966 58.4659 442.466 56.2614 445.648 54.6477C448.852 53.0341 452.5 52.2273 456.591 52.2273C460.636 52.2273 464.25 53.0341 467.432 54.6477C470.614 56.2614 473.114 58.4659 474.932 61.2614C476.773 64.0568 477.705 67.2273 477.727 70.7727C477.705 74.4773 476.693 77.7841 474.693 80.6932C472.716 83.5795 470.091 85.4545 466.818 86.3182V86.7273C469.341 87.1818 471.614 88.2614 473.636 89.9659C475.659 91.6477 477.273 93.75 478.477 96.2727C479.682 98.7727 480.295 101.5 480.318 104.455C480.295 108.227 479.273 111.591 477.25 114.545C475.25 117.477 472.466 119.784 468.898 121.466C465.352 123.125 461.25 123.955 456.591 123.955ZM456.591 116.455C459.75 116.455 462.477 115.943 464.773 114.92C467.068 113.898 468.841 112.455 470.091 110.591C471.341 108.727 471.977 106.545 472 104.045C471.977 101.409 471.295 99.0795 469.955 97.0568C468.614 95.0341 466.784 93.4432 464.466 92.2841C462.17 91.125 459.545 90.5455 456.591 90.5455C453.614 90.5455 450.955 91.125 448.614 92.2841C446.295 93.4432 444.466 95.0341 443.125 97.0568C441.807 99.0795 441.159 101.409 441.182 104.045C441.159 106.545 441.761 108.727 442.989 110.591C444.239 112.455 446.023 113.898 448.341 114.92C450.659 115.943 453.409 116.455 456.591 116.455ZM456.591 83.3182C459.091 83.3182 461.307 82.8182 463.239 81.8182C465.193 80.8182 466.727 79.4205 467.841 77.625C468.955 75.8295 469.523 73.7273 469.545 71.3182C469.523 68.9545 468.966 66.8977 467.875 65.1477C466.784 63.375 465.273 62.0114 463.341 61.0568C461.409 60.0795 459.159 59.5909 456.591 59.5909C453.977 59.5909 451.693 60.0795 449.739 61.0568C447.784 62.0114 446.273 63.375 445.205 65.1477C444.136 66.8977 443.614 68.9545 443.636 71.3182C443.614 73.7273 444.148 75.8295 445.239 77.625C446.352 79.4205 447.886 80.8182 449.841 81.8182C451.795 82.8182 454.045 83.3182 456.591 83.3182Z" fill="white"/>
</svg>
