<svg width="212" height="185" viewBox="0 0 212 185" fill="none" xmlns="http://www.w3.org/2000/svg">
<g filter="url(#filter0_d_118_671)">
<path d="M156.939 177L55.0614 177L4 88.6231L55.0614 0L156.939 0L208 88.6231L156.939 177Z" fill="#2B595F"/>
</g>
<path d="M75.8182 123.955C71.3182 123.955 67.3068 123.182 63.7841 121.636C60.2841 120.091 57.5 117.943 55.4318 115.193C53.3864 112.42 52.2727 109.205 52.0909 105.545H60.6818C60.8636 107.795 61.6364 109.739 63 111.375C64.3636 112.989 66.1477 114.239 68.3523 115.125C70.5568 116.011 73 116.455 75.6818 116.455C78.6818 116.455 81.3409 115.932 83.6591 114.886C85.9773 113.841 87.7955 112.386 89.1136 110.523C90.4318 108.659 91.0909 106.5 91.0909 104.045C91.0909 101.477 90.4545 99.2159 89.1818 97.2614C87.9091 95.2841 86.0455 93.7386 83.5909 92.625C81.1364 91.5114 78.1364 90.9545 74.5909 90.9545H69V83.4545H74.5909C77.3636 83.4545 79.7955 82.9545 81.8864 81.9545C84 80.9545 85.6477 79.5455 86.8295 77.7273C88.0341 75.9091 88.6364 73.7727 88.6364 71.3182C88.6364 68.9545 88.1136 66.8977 87.0682 65.1477C86.0227 63.3977 84.5455 62.0341 82.6364 61.0568C80.75 60.0795 78.5227 59.5909 75.9545 59.5909C73.5455 59.5909 71.2727 60.0341 69.1364 60.9205C67.0227 61.7841 65.2955 63.0455 63.9545 64.7045C62.6136 66.3409 61.8864 68.3182 61.7727 70.6364H53.5909C53.7273 66.9773 54.8295 63.7727 56.8977 61.0227C58.9659 58.25 61.6705 56.0909 65.0114 54.5455C68.375 53 72.0682 52.2273 76.0909 52.2273C80.4091 52.2273 84.1136 53.1023 87.2045 54.8523C90.2955 56.5795 92.6705 58.8636 94.3295 61.7045C95.9886 64.5455 96.8182 67.6136 96.8182 70.9091C96.8182 74.8409 95.7841 78.1932 93.7159 80.9659C91.6705 83.7386 88.8864 85.6591 85.3636 86.7273V87.2727C89.7727 88 93.2159 89.875 95.6932 92.8977C98.1705 95.8977 99.4091 99.6136 99.4091 104.045C99.4091 107.841 98.375 111.25 96.3068 114.273C94.2614 117.273 91.4659 119.636 87.9205 121.364C84.375 123.091 80.3409 123.955 75.8182 123.955ZM135.58 52.2273C138.443 52.25 141.307 52.7955 144.17 53.8636C147.034 54.9318 149.648 56.7045 152.011 59.1818C154.375 61.6364 156.273 64.9886 157.705 69.2386C159.136 73.4886 159.852 78.8182 159.852 85.2273C159.852 91.4318 159.261 96.9432 158.08 101.761C156.92 106.557 155.239 110.602 153.034 113.898C150.852 117.193 148.193 119.693 145.057 121.398C141.943 123.102 138.42 123.955 134.489 123.955C130.58 123.955 127.091 123.182 124.023 121.636C120.977 120.068 118.477 117.898 116.523 115.125C114.591 112.33 113.352 109.091 112.807 105.409H121.125C121.875 108.614 123.364 111.261 125.591 113.352C127.841 115.42 130.807 116.455 134.489 116.455C139.875 116.455 144.125 114.102 147.239 109.398C150.375 104.693 151.943 98.0455 151.943 89.4545H151.398C150.125 91.3636 148.614 93.0114 146.864 94.3977C145.114 95.7841 143.17 96.8523 141.034 97.6023C138.898 98.3523 136.625 98.7273 134.216 98.7273C130.216 98.7273 126.545 97.7386 123.205 95.7614C119.886 93.7614 117.227 91.0227 115.227 87.5455C113.25 84.0455 112.261 80.0455 112.261 75.5455C112.261 71.2727 113.216 67.3636 115.125 63.8182C117.057 60.25 119.761 57.4091 123.239 55.2955C126.739 53.1818 130.852 52.1591 135.58 52.2273ZM135.58 59.7273C132.716 59.7273 130.136 60.4432 127.841 61.875C125.568 63.2841 123.761 65.1932 122.42 67.6023C121.102 69.9886 120.443 72.6364 120.443 75.5455C120.443 78.4545 121.08 81.1023 122.352 83.4886C123.648 85.8523 125.409 87.7386 127.636 89.1477C129.886 90.5341 132.443 91.2273 135.307 91.2273C137.466 91.2273 139.477 90.8068 141.341 89.9659C143.205 89.1023 144.83 87.9318 146.216 86.4545C147.625 84.9545 148.727 83.2614 149.523 81.375C150.318 79.4659 150.716 77.4773 150.716 75.4091C150.716 72.6818 150.057 70.125 148.739 67.7386C147.443 65.3523 145.648 63.4205 143.352 61.9432C141.08 60.4659 138.489 59.7273 135.58 59.7273Z" fill="white"/>
<defs>
<filter id="filter0_d_118_671" x="0" y="0" width="212" height="185" filterUnits="userSpaceOnUse" color-interpolation-filters="sRGB">
<feFlood flood-opacity="0" result="BackgroundImageFix"/>
<feColorMatrix in="SourceAlpha" type="matrix" values="0 0 0 0 0 0 0 0 0 0 0 0 0 0 0 0 0 0 127 0" result="hardAlpha"/>
<feOffset dy="4"/>
<feGaussianBlur stdDeviation="2"/>
<feComposite in2="hardAlpha" operator="out"/>
<feColorMatrix type="matrix" values="0 0 0 0 0 0 0 0 0 0 0 0 0 0 0 0 0 0 0.25 0"/>
<feBlend mode="normal" in2="BackgroundImageFix" result="effect1_dropShadow_118_671"/>
<feBlend mode="normal" in="SourceGraphic" in2="effect1_dropShadow_118_671" result="shape"/>
</filter>
</defs>
</svg>
