<svg width="212" height="185" viewBox="0 0 212 185" fill="none" xmlns="http://www.w3.org/2000/svg">
<g filter="url(#filter0_d_118_673)">
<path d="M156.939 177L55.0614 177L4 88.6231L55.0614 0L156.939 0L208 88.6231L156.939 177Z" fill="#2B595F"/>
</g>
<path d="M85.7727 54.1818V124H77.3182V63.0455H76.9091L59.8636 74.3636V65.7727L77.3182 54.1818H85.7727ZM128.216 124.955C123.534 124.955 119.398 124.125 115.807 122.466C112.239 120.784 109.455 118.477 107.455 115.545C105.455 112.591 104.466 109.227 104.489 105.455C104.466 102.5 105.045 99.7727 106.227 97.2727C107.409 94.75 109.023 92.6477 111.068 90.9659C113.136 89.2614 115.443 88.1818 117.989 87.7273V87.3182C114.648 86.4545 111.989 84.5795 110.011 81.6932C108.034 78.7841 107.057 75.4773 107.08 71.7727C107.057 68.2273 107.955 65.0568 109.773 62.2614C111.591 59.4659 114.091 57.2614 117.273 55.6477C120.477 54.0341 124.125 53.2273 128.216 53.2273C132.261 53.2273 135.875 54.0341 139.057 55.6477C142.239 57.2614 144.739 59.4659 146.557 62.2614C148.398 65.0568 149.33 68.2273 149.352 71.7727C149.33 75.4773 148.318 78.7841 146.318 81.6932C144.341 84.5795 141.716 86.4545 138.443 87.3182V87.7273C140.966 88.1818 143.239 89.2614 145.261 90.9659C147.284 92.6477 148.898 94.75 150.102 97.2727C151.307 99.7727 151.92 102.5 151.943 105.455C151.92 109.227 150.898 112.591 148.875 115.545C146.875 118.477 144.091 120.784 140.523 122.466C136.977 124.125 132.875 124.955 128.216 124.955ZM128.216 117.455C131.375 117.455 134.102 116.943 136.398 115.92C138.693 114.898 140.466 113.455 141.716 111.591C142.966 109.727 143.602 107.545 143.625 105.045C143.602 102.409 142.92 100.08 141.58 98.0568C140.239 96.0341 138.409 94.4432 136.091 93.2841C133.795 92.125 131.17 91.5455 128.216 91.5455C125.239 91.5455 122.58 92.125 120.239 93.2841C117.92 94.4432 116.091 96.0341 114.75 98.0568C113.432 100.08 112.784 102.409 112.807 105.045C112.784 107.545 113.386 109.727 114.614 111.591C115.864 113.455 117.648 114.898 119.966 115.92C122.284 116.943 125.034 117.455 128.216 117.455ZM128.216 84.3182C130.716 84.3182 132.932 83.8182 134.864 82.8182C136.818 81.8182 138.352 80.4205 139.466 78.625C140.58 76.8295 141.148 74.7273 141.17 72.3182C141.148 69.9545 140.591 67.8977 139.5 66.1477C138.409 64.375 136.898 63.0114 134.966 62.0568C133.034 61.0795 130.784 60.5909 128.216 60.5909C125.602 60.5909 123.318 61.0795 121.364 62.0568C119.409 63.0114 117.898 64.375 116.83 66.1477C115.761 67.8977 115.239 69.9545 115.261 72.3182C115.239 74.7273 115.773 76.8295 116.864 78.625C117.977 80.4205 119.511 81.8182 121.466 82.8182C123.42 83.8182 125.67 84.3182 128.216 84.3182Z" fill="white"/>
<defs>
<filter id="filter0_d_118_673" x="0" y="0" width="212" height="185" filterUnits="userSpaceOnUse" color-interpolation-filters="sRGB">
<feFlood flood-opacity="0" result="BackgroundImageFix"/>
<feColorMatrix in="SourceAlpha" type="matrix" values="0 0 0 0 0 0 0 0 0 0 0 0 0 0 0 0 0 0 127 0" result="hardAlpha"/>
<feOffset dy="4"/>
<feGaussianBlur stdDeviation="2"/>
<feComposite in2="hardAlpha" operator="out"/>
<feColorMatrix type="matrix" values="0 0 0 0 0 0 0 0 0 0 0 0 0 0 0 0 0 0 0.25 0"/>
<feBlend mode="normal" in2="BackgroundImageFix" result="effect1_dropShadow_118_673"/>
<feBlend mode="normal" in="SourceGraphic" in2="effect1_dropShadow_118_673" result="shape"/>
</filter>
</defs>
</svg>
