<svg width="212" height="185" viewBox="0 0 212 185" fill="none" xmlns="http://www.w3.org/2000/svg">
<g filter="url(#filter0_d_118_672)">
<path d="M156.939 177L55.0614 177L4 88.6231L55.0614 0L156.939 0L208 88.6231L156.939 177Z" fill="#2B595F"/>
</g>
<path d="M54.2273 123V116.864L77.2727 91.6364C79.9773 88.6818 82.2045 86.1136 83.9545 83.9318C85.7045 81.7273 87 79.6591 87.8409 77.7273C88.7045 75.7727 89.1364 73.7273 89.1364 71.5909C89.1364 69.1364 88.5455 67.0114 87.3636 65.2159C86.2045 63.4205 84.6136 62.0341 82.5909 61.0568C80.5682 60.0795 78.2955 59.5909 75.7727 59.5909C73.0909 59.5909 70.75 60.1477 68.75 61.2614C66.7727 62.3523 65.2386 63.8864 64.1477 65.8636C63.0795 67.8409 62.5455 70.1591 62.5455 72.8182H54.5C54.5 68.7273 55.4432 65.1364 57.3295 62.0455C59.2159 58.9545 61.7841 56.5455 65.0341 54.8182C68.3068 53.0909 71.9773 52.2273 76.0455 52.2273C80.1364 52.2273 83.7614 53.0909 86.9205 54.8182C90.0795 56.5455 92.5568 58.875 94.3523 61.8068C96.1477 64.7386 97.0455 68 97.0455 71.5909C97.0455 74.1591 96.5795 76.6705 95.6477 79.125C94.7386 81.5568 93.1477 84.2727 90.875 87.2727C88.625 90.25 85.5 93.8864 81.5 98.1818L65.8182 114.955V115.5H98.2727V123H54.2273ZM112.352 123V116.864L135.398 91.6364C138.102 88.6818 140.33 86.1136 142.08 83.9318C143.83 81.7273 145.125 79.6591 145.966 77.7273C146.83 75.7727 147.261 73.7273 147.261 71.5909C147.261 69.1364 146.67 67.0114 145.489 65.2159C144.33 63.4205 142.739 62.0341 140.716 61.0568C138.693 60.0795 136.42 59.5909 133.898 59.5909C131.216 59.5909 128.875 60.1477 126.875 61.2614C124.898 62.3523 123.364 63.8864 122.273 65.8636C121.205 67.8409 120.67 70.1591 120.67 72.8182H112.625C112.625 68.7273 113.568 65.1364 115.455 62.0455C117.341 58.9545 119.909 56.5455 123.159 54.8182C126.432 53.0909 130.102 52.2273 134.17 52.2273C138.261 52.2273 141.886 53.0909 145.045 54.8182C148.205 56.5455 150.682 58.875 152.477 61.8068C154.273 64.7386 155.17 68 155.17 71.5909C155.17 74.1591 154.705 76.6705 153.773 79.125C152.864 81.5568 151.273 84.2727 149 87.2727C146.75 90.25 143.625 93.8864 139.625 98.1818L123.943 114.955V115.5H156.398V123H112.352Z" fill="white"/>
<defs>
<filter id="filter0_d_118_672" x="0" y="0" width="212" height="185" filterUnits="userSpaceOnUse" color-interpolation-filters="sRGB">
<feFlood flood-opacity="0" result="BackgroundImageFix"/>
<feColorMatrix in="SourceAlpha" type="matrix" values="0 0 0 0 0 0 0 0 0 0 0 0 0 0 0 0 0 0 127 0" result="hardAlpha"/>
<feOffset dy="4"/>
<feGaussianBlur stdDeviation="2"/>
<feComposite in2="hardAlpha" operator="out"/>
<feColorMatrix type="matrix" values="0 0 0 0 0 0 0 0 0 0 0 0 0 0 0 0 0 0 0.25 0"/>
<feBlend mode="normal" in2="BackgroundImageFix" result="effect1_dropShadow_118_672"/>
<feBlend mode="normal" in="SourceGraphic" in2="effect1_dropShadow_118_672" result="shape"/>
</filter>
</defs>
</svg>
