<svg width="212" height="185" viewBox="0 0 212 185" fill="none" xmlns="http://www.w3.org/2000/svg">
<g filter="url(#filter0_d_118_674)">
<path d="M156.939 177L55.0614 177L4 88.6231L55.0614 0L156.939 0L208 88.6231L156.939 177Z" fill="#2B595F"/>
</g>
<path d="M75.8182 123.955C71.3182 123.955 67.3068 123.182 63.7841 121.636C60.2841 120.091 57.5 117.943 55.4318 115.193C53.3864 112.42 52.2727 109.205 52.0909 105.545H60.6818C60.8636 107.795 61.6364 109.739 63 111.375C64.3636 112.989 66.1477 114.239 68.3523 115.125C70.5568 116.011 73 116.455 75.6818 116.455C78.6818 116.455 81.3409 115.932 83.6591 114.886C85.9773 113.841 87.7955 112.386 89.1136 110.523C90.4318 108.659 91.0909 106.5 91.0909 104.045C91.0909 101.477 90.4545 99.2159 89.1818 97.2614C87.9091 95.2841 86.0455 93.7386 83.5909 92.625C81.1364 91.5114 78.1364 90.9545 74.5909 90.9545H69V83.4545H74.5909C77.3636 83.4545 79.7955 82.9545 81.8864 81.9545C84 80.9545 85.6477 79.5455 86.8295 77.7273C88.0341 75.9091 88.6364 73.7727 88.6364 71.3182C88.6364 68.9545 88.1136 66.8977 87.0682 65.1477C86.0227 63.3977 84.5455 62.0341 82.6364 61.0568C80.75 60.0795 78.5227 59.5909 75.9545 59.5909C73.5455 59.5909 71.2727 60.0341 69.1364 60.9205C67.0227 61.7841 65.2955 63.0455 63.9545 64.7045C62.6136 66.3409 61.8864 68.3182 61.7727 70.6364H53.5909C53.7273 66.9773 54.8295 63.7727 56.8977 61.0227C58.9659 58.25 61.6705 56.0909 65.0114 54.5455C68.375 53 72.0682 52.2273 76.0909 52.2273C80.4091 52.2273 84.1136 53.1023 87.2045 54.8523C90.2955 56.5795 92.6705 58.8636 94.3295 61.7045C95.9886 64.5455 96.8182 67.6136 96.8182 70.9091C96.8182 74.8409 95.7841 78.1932 93.7159 80.9659C91.6705 83.7386 88.8864 85.6591 85.3636 86.7273V87.2727C89.7727 88 93.2159 89.875 95.6932 92.8977C98.1705 95.8977 99.4091 99.6136 99.4091 104.045C99.4091 107.841 98.375 111.25 96.3068 114.273C94.2614 117.273 91.4659 119.636 87.9205 121.364C84.375 123.091 80.3409 123.955 75.8182 123.955ZM136.943 123.955C132.443 123.955 128.432 123.182 124.909 121.636C121.409 120.091 118.625 117.943 116.557 115.193C114.511 112.42 113.398 109.205 113.216 105.545H121.807C121.989 107.795 122.761 109.739 124.125 111.375C125.489 112.989 127.273 114.239 129.477 115.125C131.682 116.011 134.125 116.455 136.807 116.455C139.807 116.455 142.466 115.932 144.784 114.886C147.102 113.841 148.92 112.386 150.239 110.523C151.557 108.659 152.216 106.5 152.216 104.045C152.216 101.477 151.58 99.2159 150.307 97.2614C149.034 95.2841 147.17 93.7386 144.716 92.625C142.261 91.5114 139.261 90.9545 135.716 90.9545H130.125V83.4545H135.716C138.489 83.4545 140.92 82.9545 143.011 81.9545C145.125 80.9545 146.773 79.5455 147.955 77.7273C149.159 75.9091 149.761 73.7727 149.761 71.3182C149.761 68.9545 149.239 66.8977 148.193 65.1477C147.148 63.3977 145.67 62.0341 143.761 61.0568C141.875 60.0795 139.648 59.5909 137.08 59.5909C134.67 59.5909 132.398 60.0341 130.261 60.9205C128.148 61.7841 126.42 63.0455 125.08 64.7045C123.739 66.3409 123.011 68.3182 122.898 70.6364H114.716C114.852 66.9773 115.955 63.7727 118.023 61.0227C120.091 58.25 122.795 56.0909 126.136 54.5455C129.5 53 133.193 52.2273 137.216 52.2273C141.534 52.2273 145.239 53.1023 148.33 54.8523C151.42 56.5795 153.795 58.8636 155.455 61.7045C157.114 64.5455 157.943 67.6136 157.943 70.9091C157.943 74.8409 156.909 78.1932 154.841 80.9659C152.795 83.7386 150.011 85.6591 146.489 86.7273V87.2727C150.898 88 154.341 89.875 156.818 92.8977C159.295 95.8977 160.534 99.6136 160.534 104.045C160.534 107.841 159.5 111.25 157.432 114.273C155.386 117.273 152.591 119.636 149.045 121.364C145.5 123.091 141.466 123.955 136.943 123.955Z" fill="white"/>
<defs>
<filter id="filter0_d_118_674" x="0" y="0" width="212" height="185" filterUnits="userSpaceOnUse" color-interpolation-filters="sRGB">
<feFlood flood-opacity="0" result="BackgroundImageFix"/>
<feColorMatrix in="SourceAlpha" type="matrix" values="0 0 0 0 0 0 0 0 0 0 0 0 0 0 0 0 0 0 127 0" result="hardAlpha"/>
<feOffset dy="4"/>
<feGaussianBlur stdDeviation="2"/>
<feComposite in2="hardAlpha" operator="out"/>
<feColorMatrix type="matrix" values="0 0 0 0 0 0 0 0 0 0 0 0 0 0 0 0 0 0 0.25 0"/>
<feBlend mode="normal" in2="BackgroundImageFix" result="effect1_dropShadow_118_674"/>
<feBlend mode="normal" in="SourceGraphic" in2="effect1_dropShadow_118_674" result="shape"/>
</filter>
</defs>
</svg>
