<svg width="140" height="139" viewBox="0 0 140 139" fill="none" xmlns="http://www.w3.org/2000/svg">
<g clip-path="url(#clip0_0_632)">
<path fill-rule="evenodd" clip-rule="evenodd" d="M51.316 104.154C51.316 104.154 57.8454 109.313 71.8825 108.512C85.9195 107.719 93.3309 100.566 93.3309 100.566L51.316 104.154Z" fill="url(#paint0_linear_0_632)"/>
<path fill-rule="evenodd" clip-rule="evenodd" d="M36.4267 83.1465C35.1668 86.786 32.8692 85.4221 32.8692 85.4221C32.8692 85.4221 28.63 91.1817 25.243 100.536C24.3388 103.012 23.5013 105.747 22.8195 108.683C22.8195 108.683 25.0429 111.04 25.2652 113.323C25.2652 113.323 23.7978 117.874 23.6421 119.824C23.4865 121.773 23.4717 122.989 23.4717 122.989C23.4717 122.989 22.4415 123.219 20.9667 122.611C20.9667 122.611 20.0847 120.142 20.5813 118.482C21.0852 116.814 22.2414 115.495 22.2414 115.495C22.2414 115.495 22.0116 114.59 21.3595 114.287C21.3595 114.287 20.0032 116.229 19.099 119.631C19.099 119.631 19.3362 123.619 18.6617 127.488C18.6617 127.488 16.8385 127.881 15.9344 127.303L15.7713 126.562L14.3854 126.124L13.0514 125.131L12.0212 125.05C12.0212 125.05 10.8872 123.626 10.6427 120.884L11.6654 119.609C11.6654 119.609 11.7395 117.911 12.1398 117C12.54 116.088 13.2292 114.42 14.9783 111.781C16.2901 109.802 18.9804 104.109 21.9449 97.8085H21.9524C22.9381 95.7107 23.9534 93.5463 24.9614 91.4337C27.7628 85.563 31.5056 80.8115 33.5437 78.4469C34.4404 77.4018 35.0111 76.8162 35.0111 76.8162C35.0111 76.8162 37.6866 79.4995 36.4267 83.1391V83.1465Z" fill="url(#paint1_linear_0_632)"/>
<path fill-rule="evenodd" clip-rule="evenodd" d="M23.4717 122.996C23.4717 122.996 22.4415 123.226 20.9667 122.618C20.9667 122.618 20.0847 120.15 20.5813 118.489C21.0852 116.822 22.2414 115.502 22.2414 115.502C22.2414 115.502 22.0116 114.598 21.3595 114.294C21.3595 114.294 20.0032 116.236 19.099 119.638C19.099 119.638 19.3362 123.626 18.6617 127.496C18.6617 127.496 16.8385 127.889 15.9344 127.31L15.7713 126.569L14.3854 126.132L13.0514 125.139L12.0212 125.057C12.0212 125.057 10.8872 123.634 10.6427 120.891L11.6654 119.616C11.6654 119.616 11.7395 117.919 12.1398 117.007C12.54 116.095 13.2292 114.427 14.9783 111.789C16.2901 109.809 18.9804 104.117 21.9449 97.8159H21.9524C21.9524 97.8159 24.7316 98.7351 25.243 100.536C25.243 100.536 25.243 100.536 25.243 100.544C24.3388 103.02 23.5013 105.755 22.8195 108.69C22.8195 108.69 25.0429 111.047 25.2652 113.33C25.2652 113.33 23.7978 117.882 23.6421 119.831C23.4865 121.781 23.4717 122.996 23.4717 122.996Z" fill="url(#paint2_linear_0_632)"/>
<path fill-rule="evenodd" clip-rule="evenodd" d="M15.7713 126.569C15.7713 126.569 15.712 122.655 16.1419 120.595C16.5717 118.534 16.9645 117.289 16.9645 117.289L15.5415 121.032C15.5415 121.032 14.7856 123.908 15.4378 126.465L15.7713 126.569Z" fill="#F47F81"/>
<path fill-rule="evenodd" clip-rule="evenodd" d="M13.4219 125.42C13.4219 125.42 12.9995 122.381 13.2218 120.802C13.4367 119.223 13.6961 117.385 13.6961 117.385C13.6961 117.385 12.8735 119.994 12.7845 121.039C12.703 122.085 13.0514 125.139 13.0514 125.139L13.4293 125.42H13.4219Z" fill="#F47F81"/>
<path fill-rule="evenodd" clip-rule="evenodd" d="M12.5992 125.101C12.5992 125.101 11.7469 123.545 11.9174 122.062C11.9174 122.062 12.1842 123.819 13.0513 125.139L12.5992 125.101Z" fill="#F47F81"/>
<g style="mix-blend-mode:multiply">
<path fill-rule="evenodd" clip-rule="evenodd" d="M36.4267 83.1465C35.1668 86.786 32.8692 85.4221 32.8692 85.4221L31.5204 87.468C30.4309 87.6088 28.4224 85.9855 28.1853 85.6742C30.9497 81.3082 35.0185 76.8236 35.0185 76.8236C35.0185 76.8236 37.694 79.5069 36.4341 83.1465H36.4267Z" fill="#5E364C"/>
</g>
<path fill-rule="evenodd" clip-rule="evenodd" d="M94.9465 136.643C86.9719 138.059 79.0566 137.666 79.0566 137.666C79.0566 137.666 79.2938 130.023 79.8793 121.277C79.9608 120.113 80.0275 118.912 80.0942 117.711C80.0942 117.622 80.109 117.526 80.109 117.437C80.1609 116.518 80.198 115.599 80.2425 114.694C80.5389 107.89 80.5908 103.435 80.5908 103.435L85.3785 101.671C84.9709 103.672 84.541 109.357 84.3557 114.843C84.3335 115.265 84.3261 115.695 84.3113 116.118C84.1705 121.299 84.2668 126.028 84.8375 126.947C86.0529 128.897 93.6421 131.854 93.6421 131.854C95.2949 134.041 94.9391 136.643 94.9391 136.643H94.9465Z" fill="url(#paint3_linear_0_632)"/>
<path fill-rule="evenodd" clip-rule="evenodd" d="M94.9465 136.643C86.9719 138.059 79.0566 137.666 79.0566 137.666C79.0566 137.666 79.2938 130.023 79.8793 121.277C79.9608 120.113 80.0275 118.912 80.0942 117.711C80.0942 117.711 80.0127 117.607 80.109 117.437C80.2943 117.103 81.1022 116.54 84.3187 116.125C84.1779 121.306 84.2742 126.035 84.8449 126.955C86.0604 128.904 93.6495 131.862 93.6495 131.862C95.3023 134.048 94.9465 136.65 94.9465 136.65V136.643Z" fill="url(#paint4_linear_0_632)"/>
<g style="mix-blend-mode:soft-light" opacity="0.7">
<path fill-rule="evenodd" clip-rule="evenodd" d="M84.8449 126.947C84.8449 126.947 81.8655 130.135 81.8655 131.024C81.8655 131.024 88.4246 131.973 93.6496 131.854C93.6496 131.854 85.8751 128.104 84.8449 126.947Z" fill="white"/>
</g>
<path fill-rule="evenodd" clip-rule="evenodd" d="M79.0566 137.658V139C79.0566 139 90.9666 138.792 95.1763 137.473L94.9465 136.635C94.9465 136.635 87.6019 137.71 79.0566 137.658Z" fill="url(#paint5_linear_0_632)"/>
<g style="mix-blend-mode:multiply">
<path fill-rule="evenodd" clip-rule="evenodd" d="M85.3785 101.67C84.9709 103.672 84.541 109.357 84.3557 114.843C82.792 114.798 81.2504 114.739 80.235 114.687C80.5315 107.882 80.5834 103.427 80.5834 103.427L85.3711 101.663L85.3785 101.67Z" fill="#5E364C"/>
</g>
<path fill-rule="evenodd" clip-rule="evenodd" d="M62.7592 103.657C59.9059 107.096 57.2156 112.27 55.6444 116.458C55.4443 116.992 55.2516 117.526 55.0737 118.06C51.7312 127.785 51.2198 137.11 51.2198 137.11C44.8979 138.17 34.8037 137.11 34.8037 137.11C34.9964 134.864 37.0123 132.092 37.0123 132.092C42.7709 131.202 45.602 128.808 45.602 128.808C47.4104 123.352 49.4781 118.697 51.3458 115.028C51.7831 114.168 52.2129 113.36 52.6205 112.611C55.1107 108.067 58.2754 103.479 58.2754 103.479L62.7592 103.657Z" fill="url(#paint6_linear_0_632)"/>
<path fill-rule="evenodd" clip-rule="evenodd" d="M55.0662 118.06C51.7237 127.785 51.2123 137.11 51.2123 137.11C44.8904 138.17 34.7962 137.11 34.7962 137.11C34.9889 134.864 37.0048 132.092 37.0048 132.092C42.7634 131.202 45.5945 128.808 45.5945 128.808C47.4029 123.352 49.4706 118.697 51.3383 115.028C51.3383 115.028 54.3695 116.103 55.0662 118.06Z" fill="url(#paint7_linear_0_632)"/>
<g style="mix-blend-mode:multiply">
<path fill-rule="evenodd" clip-rule="evenodd" d="M62.7591 103.657C59.9058 107.096 57.2155 112.27 55.6443 116.458L52.6204 112.611C55.1106 108.067 58.2753 103.479 58.2753 103.479L62.7591 103.657Z" fill="#5E364C"/>
</g>
<path fill-rule="evenodd" clip-rule="evenodd" d="M34.7888 137.11V138.652C34.7888 138.652 46.4468 139.437 51.2049 138.652V137.11C51.2049 137.11 40.199 136.88 34.7888 137.11Z" fill="url(#paint8_linear_0_632)"/>
<path fill-rule="evenodd" clip-rule="evenodd" d="M134.464 76.5197L133.908 76.5493L134.19 75.0149C134.078 73.0728 133.145 72.3835 133.145 72.3835L132.255 72.5614C132.085 71.7905 130.921 70.812 130.921 70.812C129.587 71.4124 128.846 72.3835 128.846 72.3835C129.061 70.6934 125.6 71.3012 123.332 70.1078C122.45 69.1887 120.731 69.1813 120.664 69.5519C120.59 69.9299 121.138 71.8794 121.123 73.1914C121.109 74.496 119.493 76.3418 119.567 77.7353C119.648 79.1215 121.924 82.3756 121.924 82.3756C121.924 82.3756 118.292 85.3999 115.357 86.3116C114.624 86.5488 113.927 86.6378 113.341 86.5192C111.83 86.2153 110.303 84.1991 109.169 82.3237C108.116 80.5669 107.42 78.9362 107.42 78.9362L104.811 81.4935C104.811 81.4935 105.545 84.9403 107.257 87.809C108.517 89.9215 110.318 91.708 112.763 91.5745C113.971 91.5078 115.15 91.2632 116.276 90.8926C121.776 89.121 125.985 84.5845 125.985 84.5845C132.166 82.0865 134.975 79.4847 134.975 79.4847C135.353 77.5797 134.464 76.5048 134.464 76.5048V76.5197ZM124.058 75.5931C124.058 75.5931 123.243 74.963 123.228 74.7407C123.213 74.5257 123.74 73.8808 123.806 73.5917C123.873 73.3397 124.147 71.5459 123.599 70.4859C123.68 70.5674 123.747 70.6564 123.828 70.7157C124.481 71.279 126.222 71.4569 126.222 71.4569C126.096 74.244 124.051 75.5857 124.051 75.5857L124.058 75.5931Z" fill="url(#paint9_linear_0_632)"/>
<g style="mix-blend-mode:multiply">
<path fill-rule="evenodd" clip-rule="evenodd" d="M107.279 87.8312L107.264 87.8164C105.552 84.9477 104.818 81.5009 104.818 81.5009L107.427 78.9436C107.427 78.9436 108.131 80.5743 109.176 82.3311C109.035 82.4942 106.916 85.0886 107.279 87.8312Z" fill="#5E364C"/>
</g>
<path fill-rule="evenodd" clip-rule="evenodd" d="M109.258 68.7439C107.724 82.0865 102.832 96.1777 95.2949 99.7358C82.6215 105.703 55.7258 107.23 47.7364 102.849C39.784 98.483 32.5654 86.9936 29.1413 75.0446C26.5993 66.1866 26.1472 57.0766 29.0302 50.4498C32.3579 42.7852 42.4076 35.1503 66.6278 33.779C87.7057 32.5855 105.285 36.9664 108.576 48.9895C109.947 53.993 110.14 61.2498 109.265 68.7513L109.258 68.7439Z" fill="url(#paint10_linear_0_632)"/>
<path style="mix-blend-mode:multiply" opacity="0.3" fill-rule="evenodd" clip-rule="evenodd" d="M45.1943 45.4685C45.1943 45.4685 41.2811 49.1748 41.3923 54.9269C41.3923 54.9269 45.4463 60.6272 52.8576 61.9837C52.8576 61.9837 65.3902 59.6413 68.792 52.0212C68.792 52.0212 63.2038 63.8516 53.1985 66.8463C53.1985 66.8463 42.1556 64.1556 38.7983 54.9418C38.7983 54.9418 41.1996 48.9376 45.2017 45.4685H45.1943Z" fill="url(#paint11_linear_0_632)"/>
<path style="mix-blend-mode:multiply" opacity="0.3" fill-rule="evenodd" clip-rule="evenodd" d="M49.7226 50.6203L49.9301 54.3043C49.9301 54.3043 52.2869 55.8313 55.0439 55.8239C57.8009 55.8164 59.4907 52.8885 59.4907 52.8885C59.4907 52.8885 59.8391 57.7141 53.5765 58.485C53.5765 58.485 49.7226 56.8987 47.8994 54.5637C47.8994 54.5637 48.6776 52.1695 49.7152 50.6277L49.7226 50.6203Z" fill="url(#paint12_linear_0_632)"/>
<path style="mix-blend-mode:multiply" opacity="0.3" fill-rule="evenodd" clip-rule="evenodd" d="M33.7882 62.5767C33.7882 62.5767 40.3547 74.207 42.4447 75.5116C44.5273 76.8162 52.9391 73.7622 52.9391 73.7622C52.9391 73.7622 43.2822 81.4564 42.2372 81.0339C41.1922 80.6114 34.4182 65.26 33.7956 62.5767H33.7882Z" fill="url(#paint13_linear_0_632)"/>
<path style="mix-blend-mode:multiply" opacity="0.3" fill-rule="evenodd" clip-rule="evenodd" d="M29.0969 51.7915C29.0969 51.7915 34.9222 49.6715 38.6278 45.8392C42.3261 42.0069 44.6681 37.8262 44.6681 37.8262C44.6681 37.8262 41.7702 52.0509 27.9333 53.8966L29.0969 51.7915Z" fill="url(#paint14_linear_0_632)"/>
<path style="mix-blend-mode:multiply" opacity="0.3" fill-rule="evenodd" clip-rule="evenodd" d="M71.5564 54.2005C71.5564 54.2005 81.7321 60.7754 86.883 60.9385C92.0339 61.1016 99.3044 51.1317 99.3044 51.1317C99.3044 51.1317 97.9555 61.5463 86.9942 64.0814C86.9942 64.0814 79.0344 64.1111 71.5638 54.1931L71.5564 54.2005Z" fill="url(#paint15_linear_0_632)"/>
<path style="mix-blend-mode:multiply" opacity="0.3" fill-rule="evenodd" clip-rule="evenodd" d="M88.4839 48.2853L88.0466 51.2652C88.0466 51.2652 85.8973 54.119 78.9603 51.784L79.4272 53.7558C79.4272 53.7558 84.2742 56.3872 85.6379 56.4836C87.0016 56.5799 90.7814 51.621 90.7814 51.621L88.4764 48.2927L88.4839 48.2853Z" fill="url(#paint16_linear_0_632)"/>
<path style="mix-blend-mode:multiply" opacity="0.3" fill-rule="evenodd" clip-rule="evenodd" d="M53.532 73.4954C53.532 73.4954 57.1339 71.7238 59.802 71.746C62.4627 71.7757 69.8221 70.2932 69.8221 70.2932L77.063 71.0196C77.063 71.0196 84.3335 70.8194 88.2615 71.2938C92.1969 71.7683 96.4436 72.6429 97.4812 72.3835C98.5188 72.1241 104.485 59.9304 104.485 59.9304C104.485 59.9304 100.157 76.957 97.6665 77.9058C97.6665 77.9058 88.3801 72.0277 84.6374 71.5014C80.8946 70.9825 70.4224 73.9179 70.4224 73.9179L66.3314 73.8586C66.3314 73.8586 59.3499 72.4799 53.5246 73.4954H53.532Z" fill="url(#paint17_linear_0_632)"/>
<path style="mix-blend-mode:multiply" opacity="0.3" fill-rule="evenodd" clip-rule="evenodd" d="M56.3928 38.1375C56.3928 38.1375 60.8248 41.7993 64.5082 41.5918C68.1916 41.3842 68.3991 38.1746 68.3991 38.1746L69.459 37.7002C69.459 37.7002 69.3923 41.5473 72.4457 41.1396C75.4992 40.7319 81.154 35.8693 81.154 35.8693C81.154 35.8693 75.3065 44.0527 68.9921 44.705C62.685 45.3573 56.3928 38.1375 56.3928 38.1375Z" fill="url(#paint18_linear_0_632)"/>
<path fill-rule="evenodd" clip-rule="evenodd" d="M64.0709 33.905L67.9767 37.4852L68.5103 61.9763L70.9635 88.313L70.7115 64.2593L69.459 37.6928L72.6607 33.5047L64.0709 33.905Z" fill="#F47F81"/>
<path fill-rule="evenodd" clip-rule="evenodd" d="M68.7845 52.0212C68.7845 52.0212 63.0333 63.0882 52.9984 66.1421C52.9984 66.1421 41.6146 62.6137 39.3023 54.6675C39.3023 54.6675 41.6961 44.453 51.9534 42.1848C51.9534 42.1848 58.5421 45.6316 58.757 54.9195C58.757 54.9195 56.9338 57.2174 53.0577 57.7066C53.0577 57.7066 49.4336 56.402 48.3811 53.5334L49.7226 50.6128L44.4531 56.3279L47.7808 55.5422C47.7808 55.5422 51.7829 58.7518 53.6877 59.5301C53.6877 59.5301 59.9132 56.6022 60.7432 53.9781C60.7432 53.9781 56.6967 43.645 51.7459 40.9098C51.7459 40.9098 43.2599 43.0817 37.8052 54.9269C37.8052 54.9269 40.7178 64.0221 53.3467 67.6543C53.3467 67.6543 60.8248 63.6812 64.8639 58.8926C64.8639 58.8926 67.5691 57.0247 69.0662 57.0543L68.7771 52.0138L68.7845 52.0212Z" fill="#F47F81"/>
<path fill-rule="evenodd" clip-rule="evenodd" d="M70.415 71.3235L67.0503 73.3768C67.0503 73.3768 57.0376 72.7541 54.4214 73.2211C51.8052 73.6807 44.2086 79.5366 42.5929 80.2334C40.9772 80.9302 34.2255 61.5686 32.8841 61.3759C31.5426 61.1831 28.7041 68.5438 29.4378 74.6443C30.1641 80.7374 36.0561 83.3096 36.5675 83.0131C37.0863 82.7166 36.397 76.8384 35.5373 74.2959C34.685 71.7608 32.2615 70.4711 32.2615 70.4711C32.2615 70.4711 31.5723 74.118 32.5802 76.1342C32.5802 76.1342 32.3504 73.273 32.9063 72.302C32.9063 72.302 34.4923 73.1247 35.2409 75.9267C35.9894 78.7286 35.6337 81.8197 35.6337 81.8197C35.6337 81.8197 31.009 79.6997 30.1048 75.0891C29.2006 70.4785 30.8459 64.4595 31.8909 63.911C32.9359 63.3624 40.2657 80.9302 42.8449 82.6647C42.8449 82.6647 49.0704 75.3114 54.4584 73.8808C59.8465 72.4502 69.2144 74.4071 70.1853 75.5931L70.415 71.3235Z" fill="#F47F81"/>
<path fill-rule="evenodd" clip-rule="evenodd" d="M29.0228 50.4424L29.1932 53.4741C29.1932 53.4741 33.8401 52.2658 38.3388 48.1C42.8375 43.9416 42.8671 39.2642 42.8671 39.2642L40.7252 39.3828L46.3134 37.1739C46.3134 37.1739 41.8444 51.2948 27.6813 54.6972L29.0153 50.4424H29.0228Z" fill="#F47F81"/>
<path fill-rule="evenodd" clip-rule="evenodd" d="M53.2874 35.3875C53.2874 35.3875 59.4388 43.7711 68.4436 45.8318L68.7994 42.8816L66.5834 44.2529C66.5834 44.2529 57.4823 41.11 54.0879 35.2318L53.2874 35.3875Z" fill="#F47F81"/>
<path fill-rule="evenodd" clip-rule="evenodd" d="M36.0116 90.6406C36.0116 90.6406 37.6644 84.3029 39.1096 83.0353C40.5474 81.7678 48.3441 93.9911 49.8634 99.5875C51.3827 105.184 46.3949 102.034 46.3949 102.034L44.8459 100.922C44.8459 100.922 47.3287 102.456 48.7369 101.9C50.1525 101.344 42.4595 84.3696 40.0138 84.288C37.568 84.2065 36.4786 91.3744 36.4786 91.3744L36.0191 90.6406H36.0116Z" fill="#F47F81"/>
<path fill-rule="evenodd" clip-rule="evenodd" d="M41.5257 97.89C41.5257 97.89 43.3192 97.9864 43.5416 97.3119C43.7713 96.6299 41.6591 93.0719 41.6591 93.0719L40.2732 92.8866L41.9926 89.499L42.1334 92.7309C42.1334 92.7309 44.1493 96.2593 44.09 97.4601C44.0307 98.6609 42.3928 98.7647 42.3928 98.7647L41.5331 97.89H41.5257Z" fill="#F47F81"/>
<path fill-rule="evenodd" clip-rule="evenodd" d="M69.7036 51.8359C69.7036 51.8359 76.6702 62.1838 86.9868 64.0814C86.9868 64.0814 97.8962 59.2929 99.297 51.1317C99.297 51.1317 95.7618 41.2582 85.3192 40.1612C85.3192 40.1612 79.1678 44.327 79.9979 53.5779C79.9979 53.5779 82.0656 55.6534 85.9788 55.6979C85.9788 55.6979 89.4325 53.993 90.1514 51.0205L88.4839 48.2779L94.361 53.3629L90.9667 52.9552C90.9667 52.9552 87.3573 56.5948 85.549 57.5881C85.549 57.5881 79.0344 55.3865 77.9153 52.8737C77.9153 52.8737 80.7687 42.1477 85.3785 38.8714C85.3785 38.8714 94.0572 40.0648 100.816 51.2207C100.816 51.2207 98.9487 60.5901 86.8089 65.6307C86.8089 65.6307 78.9232 62.5248 74.3801 58.2255C74.3801 58.2255 71.4749 56.6763 70 56.8765L69.711 51.8359H69.7036Z" fill="#F47F81"/>
<path fill-rule="evenodd" clip-rule="evenodd" d="M69.8814 71.3531L73.3129 73.021C73.3129 73.021 82.7697 71.2938 85.3044 71.4643C87.8465 71.6348 95.7173 76.6086 97.333 77.1201C98.9486 77.6316 104.085 56.7134 105.345 56.3724C106.597 56.0314 109.25 63.9628 109.236 70.1004C109.221 76.238 103.899 79.4402 103.381 79.2104C102.854 78.9732 102.862 73.0506 103.395 70.434C103.929 67.8173 106.086 66.2755 106.086 66.2755C106.086 66.2755 107.146 69.8262 106.404 71.9387C106.404 71.9387 106.308 69.0701 105.671 68.1657C105.671 68.1657 104.255 69.159 103.848 72.0203C103.44 74.8815 104.129 77.9206 104.129 77.9206C104.129 77.9206 108.294 75.304 108.643 70.6193C108.991 65.942 107.16 59.204 106.108 58.7815C105.056 58.3589 99.6305 77.5574 97.3626 79.5588C97.3626 79.5588 90.6257 72.9394 85.3414 72.1166C80.0646 71.2938 71.1339 74.3033 70.3483 75.5931L69.8814 71.3383V71.3531Z" fill="#F47F81"/>
<path fill-rule="evenodd" clip-rule="evenodd" d="M106.968 45.2832L107.138 48.315C107.138 48.315 104.455 48.1222 99.5119 44.4975C94.576 40.8728 93.6051 37.122 93.6051 37.122L94.8576 36.6254L90.396 35.343C90.396 35.343 94.3166 47.5811 108.776 49.3601L106.968 45.2832Z" fill="#F47F81"/>
<path fill-rule="evenodd" clip-rule="evenodd" d="M83.0662 34.1051C83.0662 34.1051 78.0561 42.5777 69.3478 45.6465L68.6585 42.7556L71.0153 43.8674C71.0153 43.8674 79.4568 40.2353 82.1694 34.0088L83.0736 34.1051H83.0662Z" fill="#F47F81"/>
<path fill-rule="evenodd" clip-rule="evenodd" d="M105.107 86.5859C105.107 86.5859 102.973 80.4632 101.572 79.3587C100.172 78.2542 94.613 91.2336 93.8719 96.9561C93.1308 102.679 97.4367 98.3126 97.4367 98.3126L98.7856 97.1858C98.7856 97.1858 96.4214 99.5356 95.117 99.1353C93.8126 98.7351 98.7708 81.0413 100.92 80.6929C103.062 80.352 104.789 87.3568 104.789 87.3568L105.115 86.5785L105.107 86.5859Z" fill="#F47F81"/>
<path fill-rule="evenodd" clip-rule="evenodd" d="M101.031 94.3765C101.031 94.3765 99.4674 94.6656 99.1932 94.0133C98.919 93.361 100.401 89.5954 100.401 89.5954L101.602 89.2618L99.7268 86.0819L99.9492 89.3137C99.9492 89.3137 98.5484 93.0348 98.7337 94.2208C98.919 95.4068 100.364 95.3401 100.364 95.3401L101.031 94.3765Z" fill="#F47F81"/>
<path style="mix-blend-mode:multiply" opacity="0.5" fill-rule="evenodd" clip-rule="evenodd" d="M105.5 73.6955C103.974 74.1551 103.581 71.9832 103.581 71.9832L102.825 73.147C101.78 78.2097 93.4198 88.6244 93.4198 88.6244C93.4198 88.6244 80.7761 109.009 59.4981 101.678C50.3822 98.5349 49.2038 84.7031 54.9031 81.538C59.513 78.9732 67.1615 82.0791 66.6723 81.538C67.4653 78.3506 66.6056 74.3552 65.4865 74.0291C49.9227 69.4407 43.8751 82.7759 42.8449 82.6795C36.9973 82.1532 36.5156 77.7872 36.5156 77.7872C36.5156 77.7872 36.5601 79.418 35.7374 79.4328C34.9148 79.4476 30.8682 76.0156 30.8682 76.0156C30.0233 76.1787 29.4156 74.8963 29.4156 74.8963L29.1339 75.0446C32.558 86.9936 39.7766 98.4905 47.729 102.849C55.7184 107.23 82.6141 105.703 95.2875 99.7358C102.825 96.1852 107.716 82.0865 109.25 68.7513C108.154 71.8127 105.5 73.6955 105.5 73.6955Z" fill="url(#paint19_linear_0_632)"/>
<path fill-rule="evenodd" clip-rule="evenodd" d="M65.1382 58.7296L69.207 52.34C69.207 52.34 72.8978 55.8683 74.0466 57.8475C74.0466 57.8475 70.6522 56.1945 69.4367 56.3279C68.2139 56.4539 65.1456 58.7296 65.1456 58.7296H65.1382Z" fill="#CE5870"/>
<path fill-rule="evenodd" clip-rule="evenodd" d="M66.3388 73.866L70.4743 74.7851L72.6458 73.5102C72.6458 73.5102 71.2896 72.7096 70.0371 72.7763C68.7771 72.8431 66.3388 73.866 66.3388 73.866Z" fill="#CE5870"/>
<path fill-rule="evenodd" clip-rule="evenodd" d="M48.0254 63.9628C48.0254 63.9628 52.3684 66.409 53.5024 65.9865C54.6363 65.5639 58.9793 63.1771 58.9793 63.1771C58.9793 63.1771 54.4881 67.6024 53.3541 67.6691C52.324 67.7284 48.0254 63.9703 48.0254 63.9703V63.9628Z" fill="#CE5870"/>
<path fill-rule="evenodd" clip-rule="evenodd" d="M48.3811 53.5408L48.9222 55.6237L47.7882 55.5496L44.4606 56.3353L49.7226 50.6203L48.3811 53.5408Z" fill="#CE5870"/>
<path fill-rule="evenodd" clip-rule="evenodd" d="M98.4373 49.3157L99.297 51.1391C99.297 51.1391 98.8153 53.8151 97.5109 55.5644C97.5109 55.5644 100.587 52.5327 100.809 51.2355L98.4373 49.3231V49.3157Z" fill="#CE5870"/>
<path fill-rule="evenodd" clip-rule="evenodd" d="M88.4839 48.2853L90.1514 51.0279L89.5511 53.7706L90.9667 52.9626L94.361 53.3703C94.361 53.3703 89.9958 49.627 88.4839 48.2853Z" fill="#CE5870"/>
<path fill-rule="evenodd" clip-rule="evenodd" d="M92.4341 74.5776C92.4341 74.5776 97.4145 77.3795 97.7406 76.9126C98.0667 76.4456 99.4748 73.1322 99.4748 73.1322C99.4748 73.1322 99.1413 77.1201 97.37 79.5662C97.37 79.5662 93.7978 75.2966 92.4341 74.5702V74.5776Z" fill="#CE5870"/>
<path fill-rule="evenodd" clip-rule="evenodd" d="M40.036 76.5123C40.036 76.5123 42.0074 80.5447 42.5855 80.2334C43.1636 79.922 46.3579 77.8243 46.3579 77.8243C46.3579 77.8243 43.3266 83.1168 42.8449 82.6647C42.3557 82.2199 40.3176 78.825 40.036 76.5049V76.5123Z" fill="#CE5870"/>
<path fill-rule="evenodd" clip-rule="evenodd" d="M99.7194 86.0893L99.9418 89.3137L99.5193 90.8778L100.394 89.6028L101.594 89.2693L99.7194 86.0893Z" fill="#CE5870"/>
<path fill-rule="evenodd" clip-rule="evenodd" d="M40.2732 92.8792L41.9926 89.499L42.1334 92.7309L42.5781 93.5463L41.6591 93.0719L40.2732 92.8792Z" fill="#CE5870"/>
<path style="mix-blend-mode:multiply" opacity="0.5" fill-rule="evenodd" clip-rule="evenodd" d="M57.6824 87.809C57.6824 87.809 62.0625 87.1641 65.4865 88.0758C68.9105 88.9876 69.8666 90.7073 69.8666 90.7073C69.8666 90.7073 65.7904 97.0747 61.2843 95.9257C56.7782 94.7842 57.6824 87.8016 57.6824 87.8016V87.809Z" fill="url(#paint20_linear_0_632)"/>
<path fill-rule="evenodd" clip-rule="evenodd" d="M44.8385 100.922C44.8385 100.922 47.9513 102.775 48.7295 101.9C49.5077 101.026 47.6548 97.0524 47.6548 97.0524C47.6548 97.0524 50.3081 100.966 49.8782 102.286C49.4484 103.605 46.9285 102.456 46.9285 102.456L44.8385 100.929V100.922Z" fill="#CE5870"/>
<path fill-rule="evenodd" clip-rule="evenodd" d="M103.751 74.9334C103.751 74.9334 103.818 77.9281 104.129 77.9281C104.44 77.9281 106.123 76.1787 106.123 76.1787C106.123 76.1787 104.403 79.418 103.381 79.2104C103.381 79.2104 103.166 76.8755 103.751 74.9334Z" fill="#CE5870"/>
<path fill-rule="evenodd" clip-rule="evenodd" d="M65.9164 44.7643L69.1477 43.6154L72.3346 44.327L69.3478 45.6464L69.0884 46.5063L68.4436 45.8318L65.9164 44.7643Z" fill="#CE5870"/>
<path fill-rule="evenodd" clip-rule="evenodd" d="M82.8512 63.1697C82.8512 63.1697 86.1196 64.0889 87.2758 64.074C88.432 64.0518 92.397 61.2869 92.397 61.2869C92.397 61.2869 88.2022 65.7715 86.8015 65.6381C85.4007 65.5121 82.8512 63.1697 82.8512 63.1697Z" fill="#CE5870"/>
<path fill-rule="evenodd" clip-rule="evenodd" d="M83.2515 47.848C83.2515 47.848 86.72 46.2617 85.675 43.4227C85.675 43.4227 83.2959 44.5642 83.2515 47.848Z" fill="white"/>
<path fill-rule="evenodd" clip-rule="evenodd" d="M53.9619 47.3587C53.9619 47.3587 53.6358 51.747 56.5633 52.3177C56.5633 52.3177 57.8751 49.2712 53.9619 47.3587Z" fill="white"/>
<path fill-rule="evenodd" clip-rule="evenodd" d="M57.4452 36.1732C57.4452 36.1732 62.5368 37.5075 65.3976 35.721C65.3976 35.721 61.4325 33.4009 57.4452 36.1732Z" fill="white"/>
<path fill-rule="evenodd" clip-rule="evenodd" d="M71.8676 36.0769C71.8676 36.0769 76.4034 36.9219 79.946 34.6907C79.946 34.6907 74.6691 33.1934 71.8676 36.0769Z" fill="white"/>
<path fill-rule="evenodd" clip-rule="evenodd" d="M97.2366 39.0345C97.2366 39.0345 97.8073 41.5621 99.5638 41.8883C101.32 42.2144 101.928 41.4139 101.928 41.4139C101.928 41.4139 100.772 38.7231 97.2366 39.0345Z" fill="white"/>
<path fill-rule="evenodd" clip-rule="evenodd" d="M35.5447 43.7118C35.5447 43.7118 38.0201 44.4753 39.1763 43.1114C40.3324 41.7475 39.9396 40.8209 39.9396 40.8209C39.9396 40.8209 37.0344 40.4947 35.5447 43.7118Z" fill="white"/>
<g style="mix-blend-mode:soft-light">
<path fill-rule="evenodd" clip-rule="evenodd" d="M94.6871 70.7305C94.6871 70.7305 97.0958 71.4717 98.2223 70.1449C99.3489 68.8181 98.9635 67.9211 98.9635 67.9211C98.9635 67.9211 96.1398 67.6024 94.6871 70.7305Z" fill="white"/>
</g>
<g style="mix-blend-mode:soft-light">
<path fill-rule="evenodd" clip-rule="evenodd" d="M80.9021 75.0668C80.9021 75.0668 82.1768 75.7784 82.9698 75.1632C83.7628 74.5479 83.6591 73.992 83.6591 73.992C83.6591 73.992 82.0953 73.4731 80.9021 75.0668Z" fill="white"/>
</g>
<g style="mix-blend-mode:soft-light">
<path fill-rule="evenodd" clip-rule="evenodd" d="M62.6554 95.1622C62.6554 95.1622 63.8708 95.9702 64.7157 95.4142C65.5606 94.8583 65.4939 94.3024 65.4939 94.3024C65.4939 94.3024 63.9746 93.6649 62.6628 95.1622H62.6554Z" fill="white"/>
</g>
<g style="mix-blend-mode:soft-light" opacity="0.7">
<path fill-rule="evenodd" clip-rule="evenodd" d="M86.5199 42.7556L86.5717 43.7118C86.5717 43.7118 90.7814 43.823 92.2636 45.1869C93.7459 46.5508 94.8354 50.3608 95.8063 51.2133C95.8063 51.2133 96.0434 49.0414 94.8724 47.1883C93.7014 45.3277 93.3976 45.765 92.2414 44.9423C91.0852 44.1195 88.7507 42.5035 86.505 42.763L86.5199 42.7556Z" fill="white"/>
</g>
<g style="mix-blend-mode:soft-light" opacity="0.7">
<path fill-rule="evenodd" clip-rule="evenodd" d="M93.8274 54.0597C92.775 54.2746 90.5071 55.4681 90.7814 57.2767C90.7814 57.2767 92.9529 56.4984 93.4346 55.6089C93.9164 54.7194 93.82 54.0671 93.82 54.0671L93.8274 54.0597Z" fill="white"/>
</g>
<g style="mix-blend-mode:soft-light" opacity="0.7">
<path fill-rule="evenodd" clip-rule="evenodd" d="M72.6533 49.9457C72.6533 49.9457 72.3864 47.1141 73.7946 45.3944C75.2027 43.6747 78.6194 42.0588 79.4198 41.2582C80.2202 40.4577 80.5463 38.4414 81.5839 37.8929C82.6215 37.3444 83.2885 37.7966 83.2885 37.7966C83.2885 37.7966 82.0582 39.2568 81.3912 39.9314C80.7242 40.6059 80.0053 40.9691 79.4124 41.5251C78.8195 42.081 77.7597 44.327 76.5294 46.232C75.3065 48.1371 72.6607 49.9457 72.6607 49.9457H72.6533Z" fill="white"/>
</g>
<g style="mix-blend-mode:soft-light" opacity="0.7">
<path fill-rule="evenodd" clip-rule="evenodd" d="M55.6072 71.0122C55.6072 71.0122 56.8745 69.4926 59.3351 69.4704C61.7957 69.4481 63.7448 64.0814 66.9613 63.2364C66.9613 63.2364 65.9979 67.8767 63.9598 68.8848C61.9142 69.8855 60.4913 69.3592 59.3425 69.589C58.1937 69.8187 58.2827 70.6119 57.5045 70.9084C56.7263 71.2049 55.6072 71.0196 55.6072 71.0196V71.0122Z" fill="white"/>
</g>
<g style="mix-blend-mode:soft-light" opacity="0.7">
<path fill-rule="evenodd" clip-rule="evenodd" d="M58.4976 44.8681C58.4976 44.8681 60.6173 50.1607 64.6638 50.3979C64.6638 50.3979 62.9296 45.943 58.4976 44.8681Z" fill="white"/>
</g>
<g style="mix-blend-mode:soft-light" opacity="0.7">
<path fill-rule="evenodd" clip-rule="evenodd" d="M35.8857 61.198C35.8857 61.198 37.7533 62.0504 39.0651 65.2304C40.3769 68.4104 39.7914 70.4933 43.586 72.1833C47.3732 73.8734 51.3605 72.1685 51.3605 72.1685C51.3605 72.1685 48.7814 71.6126 47.4992 71.961C46.217 72.3094 46.1726 72.6652 45.4981 72.5317C44.8237 72.3983 45.3351 69.7891 43.7268 68.6401C42.1186 67.4912 40.6511 67.5209 39.8062 66.2607C38.9539 64.9932 38.7983 63.1845 37.9164 62.169C37.0344 61.1535 35.8857 61.2054 35.8857 61.2054V61.198Z" fill="white"/>
</g>
<g style="mix-blend-mode:soft-light" opacity="0.7">
<path fill-rule="evenodd" clip-rule="evenodd" d="M84.5633 80.693C86.1567 80.389 89.2176 81.0043 89.5956 82.2274C89.5956 82.2274 88.2615 82.7462 86.6014 82.1755C84.9412 81.6047 84.5558 80.693 84.5558 80.693H84.5633Z" fill="white"/>
</g>
<g style="mix-blend-mode:soft-light" opacity="0.7">
<path fill-rule="evenodd" clip-rule="evenodd" d="M42.8375 52.7847C42.8375 52.7847 43.7342 49.0488 46.3282 47.7961C48.9222 46.5359 49.9894 45.854 50.8121 44.6532C51.6347 43.4523 53.3838 46.2839 53.3838 46.2839C53.3838 46.2839 52.7538 45.6687 51.2864 45.7132C49.8189 45.7576 47.4918 47.3662 47.099 48.2186C46.7062 49.071 45.3647 52.4067 42.8375 52.7847Z" fill="white"/>
</g>
<g style="mix-blend-mode:soft-light" opacity="0.7">
<path fill-rule="evenodd" clip-rule="evenodd" d="M47.1064 40.391C47.1064 40.391 49.3446 38.1005 50.8047 37.804C52.2647 37.5149 54.9254 38.9381 56.2001 40.8135C56.2001 40.8135 54.8883 40.4132 52.9095 39.6645C50.9306 38.9159 50.5897 38.6712 50.0339 38.7305C49.478 38.7898 47.1064 40.3835 47.1064 40.3835V40.391Z" fill="white"/>
</g>
<g style="mix-blend-mode:soft-light" opacity="0.7">
<path fill-rule="evenodd" clip-rule="evenodd" d="M37.6051 91.4782C37.6051 91.4782 37.0789 88.2167 38.324 87.4606C38.324 87.4606 39.5098 90.1217 37.6051 91.4782Z" fill="white"/>
</g>
<path fill-rule="evenodd" clip-rule="evenodd" d="M64.1747 79.6923C64.1747 79.6923 62.774 77.2906 60.3282 77.1942C57.0672 77.0682 50.3674 79.7071 47.6919 82.8722C47.6919 82.8722 53.2578 79.6107 58.4754 79.3142C61.9216 79.1215 64.1673 79.6923 64.1673 79.6923H64.1747Z" fill="#37193E"/>
<path fill-rule="evenodd" clip-rule="evenodd" d="M75.6919 79.5737C75.6919 79.5737 76.7072 88.5577 85.7935 88.061C93.9386 87.6163 94.7761 76.5345 94.7761 76.5345L75.6919 79.5737Z" fill="#CE5870"/>
<path fill-rule="evenodd" clip-rule="evenodd" d="M75.1212 76.92C75.1212 76.92 75.9291 86.4599 84.2668 87.09C93.8126 87.8164 94.7687 76.5345 94.7687 76.5345C94.7687 76.5345 92.4637 72.0054 86.0233 71.6274C77.9227 71.1456 75.1212 76.92 75.1212 76.92Z" fill="url(#paint21_linear_0_632)"/>
<path fill-rule="evenodd" clip-rule="evenodd" d="M88.2319 78.5433C88.3949 81.4046 86.2086 83.8507 83.3478 84.0138C80.487 84.1768 78.0413 81.9901 77.8782 79.1289C77.7152 76.2677 79.9015 73.8215 82.7623 73.6584C85.6231 73.4954 88.0688 75.6821 88.2319 78.5433Z" fill="#37193E"/>
<path fill-rule="evenodd" clip-rule="evenodd" d="M75.1212 76.92C75.1212 76.92 76.7962 71.4347 84.7856 70.4414C93.4569 69.3592 97.2885 76.4233 97.2885 76.4233L94.6278 77.2684L94.7687 76.5345C94.7687 76.5345 91.3372 71.5533 84.8671 71.9239C78.397 72.2945 75.1212 76.92 75.1212 76.92Z" fill="#37193E"/>
<path fill-rule="evenodd" clip-rule="evenodd" d="M79.4643 78.7212C79.5013 79.4032 78.9825 79.9813 78.3081 80.0184C77.6337 80.0555 77.0482 79.5366 77.0111 78.8621C76.9741 78.1875 77.4929 77.6019 78.1673 77.5649C78.8417 77.5278 79.4272 78.0467 79.4643 78.7212Z" fill="white"/>
<path fill-rule="evenodd" clip-rule="evenodd" d="M58.6533 87.9498C58.6533 87.9498 66.9614 86.9047 69.4071 90.6183C69.4071 90.6183 65.3827 95.1845 61.7141 94.2579C59.261 93.6352 58.6607 87.9498 58.6607 87.9498H58.6533Z" fill="url(#paint22_linear_0_632)"/>
<path fill-rule="evenodd" clip-rule="evenodd" d="M63.7967 87.9498C63.7967 87.9498 63.0334 90.4108 65.4939 91.4782C67.9545 92.5456 69.4071 90.6183 69.4071 90.6183C69.4071 90.6183 68.1546 88.0833 63.7967 87.9572V87.9498Z" fill="url(#paint23_linear_0_632)"/>
<g style="mix-blend-mode:multiply" opacity="0.5">
<path fill-rule="evenodd" clip-rule="evenodd" d="M68.5622 78.9436C68.5622 78.9436 70.8523 93.1831 83.3404 97.8085C93.783 101.678 101.624 93.5537 101.624 93.5537C101.624 93.5537 99.045 95.5921 87.7501 91.8043C76.4553 88.0165 68.5622 78.951 68.5622 78.951V78.9436Z" fill="#A7364C"/>
</g>
<path fill-rule="evenodd" clip-rule="evenodd" d="M136.709 80.4409L124.962 77.1423L124.347 76.9718L116.78 74.8518L118.796 69.4036L122.576 70.0189L139.274 72.7467C139.541 73.4435 139.741 74.0809 139.852 74.6739C140.445 77.5722 139.266 79.329 136.709 80.4483V80.4409Z" fill="url(#paint24_radial_0_632)"/>
<path d="M117.896 76.3517C121.833 62.4814 113.783 48.0449 99.9148 44.1069C86.0468 40.169 71.6127 48.2207 67.6753 62.091C63.738 75.9613 71.7884 90.3977 85.6564 94.3357C99.5245 98.2737 113.959 90.2219 117.896 76.3517Z" fill="url(#paint25_radial_0_632)"/>
<path d="M107.673 89.2551C119.599 81.1549 122.702 64.9187 114.603 52.9906C106.504 41.0626 90.2707 37.9595 78.3445 46.0597C66.4184 54.1599 63.3158 70.3961 71.4147 82.3242C79.5136 94.2522 95.7471 97.3553 107.673 89.2551Z" fill="url(#paint26_radial_0_632)"/>
<path d="M110.686 79.603C117.278 69.8387 114.708 56.578 104.945 49.9845C95.1828 43.3909 81.9243 45.9613 75.3318 55.7256C68.7393 65.49 71.3093 78.7506 81.072 85.3442C90.8347 91.9377 104.093 89.3673 110.686 79.603Z" fill="url(#paint27_linear_0_632)"/>
<path fill-rule="evenodd" clip-rule="evenodd" d="M106.13 48.8487C100.661 44.8829 93.4717 43.4597 86.5199 45.5871C74.7284 49.2045 68.1101 61.6946 71.7268 73.4879C75.3436 85.2813 87.8317 91.8933 99.6231 88.276C105.819 86.3709 110.592 82.0198 113.193 76.5938C115.535 71.7164 116.121 65.979 114.409 60.39C112.926 55.5496 109.954 51.5839 106.138 48.8487H106.13ZM111.615 76.5123C109.176 81.5899 104.715 85.6668 98.9116 87.4458C87.8835 90.8333 76.1885 84.6364 72.8089 73.6066C69.4219 62.5767 75.6252 50.8797 86.6533 47.4922C93.153 45.4982 99.8899 46.8324 105.004 50.5387C108.583 53.1035 111.363 56.8171 112.749 61.3462C114.357 66.5795 113.808 71.9461 111.607 76.5123H111.615Z" fill="url(#paint28_radial_0_632)"/>
<mask id="mask0_0_632" style="mask-type:luminance" maskUnits="userSpaceOnUse" x="72" y="46" width="42" height="43">
<path d="M112.815 61.5686C114.409 66.7722 113.868 72.1092 111.681 76.6457C109.258 81.6936 104.818 85.7483 99.0524 87.5125C88.0911 90.8778 76.4701 84.7254 73.1053 73.7548C69.7406 62.7916 75.9068 51.1614 86.8682 47.7961C93.3309 45.8095 100.023 47.1438 105.107 50.8204C108.665 53.3703 111.429 57.0617 112.808 61.5612L112.815 61.5686Z" fill="white"/>
</mask>
<g mask="url(#mask0_0_632)">
<path fill-rule="evenodd" clip-rule="evenodd" d="M131.447 56.3427V56.3576C128.994 77.676 121.175 100.21 109.124 105.888C88.8544 115.428 45.8539 117.867 33.0842 110.862C20.3737 103.887 8.82689 85.5111 3.34992 66.409C-0.71149 52.2436 -1.4378 37.6854 3.17205 27.0854C8.49338 14.8251 24.5537 2.63145 63.2779 0.429927C96.9772 -1.48251 125.088 5.52976 130.343 24.7505C132.537 32.756 132.841 44.3567 131.44 56.3427H131.447Z" fill="url(#paint29_linear_0_632)"/>
<path style="mix-blend-mode:multiply" opacity="0.3" fill-rule="evenodd" clip-rule="evenodd" d="M71.1636 33.0896C71.1636 33.0896 87.4314 43.6006 95.6654 43.8674C103.899 44.1343 115.52 28.1899 115.52 28.1899C115.52 28.1899 113.371 44.8459 95.8359 48.8931C95.8359 48.8931 83.1032 48.9376 71.1636 33.0896Z" fill="url(#paint30_linear_0_632)"/>
<path style="mix-blend-mode:multiply" opacity="0.3" fill-rule="evenodd" clip-rule="evenodd" d="M42.3557 63.948C42.3557 63.948 48.1218 61.109 52.3759 61.1535C56.6374 61.198 68.3992 58.8334 68.3992 58.8334L79.9831 59.9897C79.9831 59.9897 91.604 59.671 97.8888 60.4271C104.174 61.1831 110.962 62.5841 112.623 62.1616C114.283 61.7465 123.821 42.2589 123.821 42.2589C123.821 42.2589 116.899 69.4778 112.919 70.9899C112.919 70.9899 98.0741 61.5908 92.0932 60.7532C86.1122 59.9156 69.37 64.6151 69.37 64.6151L62.8332 64.5188C62.8332 64.5188 51.6644 62.3173 42.3557 63.9332V63.948Z" fill="url(#paint31_linear_0_632)"/>
<path fill-rule="evenodd" clip-rule="evenodd" d="M59.2017 0.644891L65.442 6.36737L66.3017 45.5278L70.2298 87.6311L69.8295 49.1748L67.8137 6.70094L72.9349 0L59.2017 0.644891Z" fill="#F47F81"/>
<path fill-rule="evenodd" clip-rule="evenodd" d="M68.2139 29.3166C68.2139 29.3166 79.3457 45.8614 95.8433 48.8931C95.8433 48.8931 113.29 41.2286 115.528 28.1899C115.528 28.1899 109.88 12.4012 93.1752 10.6518C93.1752 10.6518 83.333 17.3157 84.6744 32.1037C84.6744 32.1037 87.9873 35.4245 94.235 35.4987C94.235 35.4987 99.7565 32.7709 100.905 28.0268L98.2446 23.6386L107.642 31.7627L102.21 31.1179C102.21 31.1179 96.4362 36.9441 93.5458 38.523C93.5458 38.523 83.1255 35.002 81.3393 30.9844C81.3393 30.9844 85.8973 13.8392 93.2642 8.59114C93.2642 8.59114 107.138 10.5036 117.944 28.3382C117.944 28.3382 114.965 43.3115 95.5543 51.3689C95.5543 51.3689 82.9476 46.4099 75.6771 39.5311C75.6771 39.5311 71.0376 37.0479 68.666 37.374L68.2065 29.3092L68.2139 29.3166Z" fill="#F47F81"/>
<path fill-rule="evenodd" clip-rule="evenodd" d="M68.4955 60.5234L73.9799 63.1919C73.9799 63.1919 87.6909 54.3562 96.2509 54.3562C110.733 54.3562 111.711 65.942 114.298 66.7574C116.877 67.5727 123.191 37.122 125.192 36.5809C127.201 36.0398 131.44 48.7152 131.41 58.5294C131.381 68.3437 122.88 73.4657 122.042 73.0877C121.205 72.7096 121.212 63.2438 122.065 59.0557C122.917 54.8676 126.371 52.4067 126.371 52.4067C126.371 52.4067 128.068 58.0847 126.882 61.4574C126.882 61.4574 126.726 56.869 125.711 55.431C125.711 55.431 123.443 57.0173 122.798 61.5982C122.154 66.1792 123.243 71.0344 123.243 71.0344C123.243 71.0344 129.906 66.8463 130.462 59.3671C131.017 51.8804 128.09 41.1174 126.408 40.4354C124.725 39.7535 116.054 70.4488 112.43 73.6584C112.43 73.6584 101.661 63.0807 93.2197 61.7613C84.7782 60.4419 70.504 65.26 69.2441 67.3207L68.4955 60.516V60.5234Z" fill="#F47F81"/>
<path fill-rule="evenodd" clip-rule="evenodd" d="M124.814 84.8662C124.814 84.8662 121.405 75.0742 119.159 73.3101C116.914 71.5459 108.035 92.301 106.849 101.448C105.663 110.595 112.156 104.739 112.156 104.739L114.142 102.708C114.142 102.708 110.911 105.569 108.828 104.932C106.745 104.294 114.668 76.0008 118.1 75.4523C121.531 74.9038 124.288 86.1115 124.288 86.1115L124.814 84.8662Z" fill="#F47F81"/>
<path style="mix-blend-mode:multiply" opacity="0.5" fill-rule="evenodd" clip-rule="evenodd" d="M125.444 64.2593C122.998 65.0006 122.368 61.5167 122.368 61.5167L121.16 63.3772C119.485 71.4643 106.13 88.1203 106.13 88.1203C106.13 88.1203 90.937 95.7033 71.6305 89.588C56.9412 84.9329 52.0646 84.3473 48.3441 84.5549C42.9857 84.8588 45.5278 96.8523 45.5278 96.8523C43.3563 96.5632 38.1832 94.9028 37.0937 93.9836C27.1773 85.2442 25.2652 80.2037 23.0937 78.8546C17.1869 75.1854 15.1562 70.7898 15.1562 70.7898C15.1562 70.7898 15.2229 73.399 13.9111 73.4138C12.5993 73.4435 6.12916 67.9508 6.12916 67.9508C4.7803 68.2102 3.80201 66.1644 3.80201 66.1644L3.34991 66.409C8.82689 85.5111 20.3737 103.887 33.0842 110.862C45.8539 117.867 88.8544 115.428 109.124 105.888C121.175 100.21 128.987 77.6686 131.447 56.3576C129.691 61.2498 125.444 64.2593 125.444 64.2593Z" fill="url(#paint32_linear_0_632)"/>
<path fill-rule="evenodd" clip-rule="evenodd" d="M62.8258 64.5336L69.4442 66.0013L72.9201 63.9554C72.9201 63.9554 70.756 62.6805 68.7475 62.7842C66.739 62.888 62.8332 64.5262 62.8332 64.5262L62.8258 64.5336Z" fill="#CE5870"/>
<path fill-rule="evenodd" clip-rule="evenodd" d="M104.544 65.6751C104.544 65.6751 112.511 70.1597 113.03 69.4111C113.549 68.6624 115.795 63.3698 115.795 63.3698C115.795 63.3698 115.261 69.7372 112.43 73.6584C112.43 73.6584 106.716 66.8315 104.544 65.6751Z" fill="#CE5870"/>
<path fill-rule="evenodd" clip-rule="evenodd" d="M89.2324 47.4329C89.2324 47.4329 94.4648 48.908 96.3028 48.8709C98.1482 48.8338 104.492 44.4085 104.492 44.4085C104.492 44.4085 97.7851 51.5765 95.5469 51.3689C93.3086 51.1614 89.225 47.4254 89.225 47.4254L89.2324 47.4329Z" fill="#CE5870"/>
<g style="mix-blend-mode:soft-light">
<path fill-rule="evenodd" clip-rule="evenodd" d="M108.154 59.5227C108.154 59.5227 112 60.7087 113.801 58.5887C115.602 56.4687 114.987 55.0307 114.987 55.0307C114.987 55.0307 110.466 54.5193 108.154 59.5227Z" fill="white"/>
</g>
<g style="mix-blend-mode:soft-light">
<path fill-rule="evenodd" clip-rule="evenodd" d="M86.1196 66.4609C86.1196 66.4609 88.1578 67.595 89.4325 66.6165C90.7073 65.6307 90.5294 64.7486 90.5294 64.7486C90.5294 64.7486 88.0318 63.9109 86.1196 66.4683V66.4609Z" fill="white"/>
</g>
<path fill-rule="evenodd" clip-rule="evenodd" d="M77.1742 68.8922C77.1742 68.8922 81.6728 53.3926 95.1318 53.2814C108.591 53.1702 113.868 67.7655 113.868 67.7655C113.868 67.7655 113.356 70.3228 112.296 70.6119C111.237 70.901 110.399 62.7842 98.2446 61.5612C86.0974 60.3381 77.1742 68.8922 77.1742 68.8922Z" fill="#CE5870"/>
<g style="mix-blend-mode:soft-light" opacity="0.7">
<path fill-rule="evenodd" clip-rule="evenodd" d="M91.9598 75.4449C94.5019 74.963 99.4008 75.9415 100.008 77.8984C100.008 77.8984 97.8814 78.7286 95.2282 77.8169C92.5749 76.9051 91.9598 75.4449 91.9598 75.4449Z" fill="white"/>
</g>
<path fill-rule="evenodd" clip-rule="evenodd" d="M77.7819 73.6584C77.7819 73.6584 79.405 88.0239 93.9312 87.2308C106.96 86.5192 108.294 68.8032 108.294 68.8032L77.7819 73.6584Z" fill="#CE5870"/>
<path fill-rule="evenodd" clip-rule="evenodd" d="M76.8777 69.4185C76.8777 69.4185 78.1673 84.6661 91.5003 85.6742C106.76 86.8305 108.287 68.7958 108.287 68.7958C108.287 68.7958 104.085 57.0914 93.783 56.4836C80.8279 55.7201 76.8703 69.4185 76.8703 69.4185H76.8777Z" fill="url(#paint33_linear_0_632)"/>
<path fill-rule="evenodd" clip-rule="evenodd" d="M97.8295 72.0054C98.0889 76.579 94.5908 80.4928 90.0254 80.7522C85.4526 81.0117 81.5394 77.513 81.28 72.9468C81.0206 68.3733 84.5188 64.4595 89.0842 64.2C93.657 63.9406 97.5701 67.4393 97.8295 72.0054Z" fill="#37193E"/>
<path fill-rule="evenodd" clip-rule="evenodd" d="M76.8779 69.4185C76.8779 69.4185 79.5089 57.0618 92.3009 55.5348C107.005 53.778 112.326 68.6179 112.326 68.6179L108.072 69.967L108.295 68.8032C108.295 68.8032 103.055 56.9802 92.3009 57.6177C81.9621 58.2329 76.8779 69.4259 76.8779 69.4259V69.4185Z" fill="#37193E"/>
<path fill-rule="evenodd" clip-rule="evenodd" d="M83.9555 73.0284C84.0148 74.1106 83.1847 75.0446 82.1027 75.1039C81.0206 75.1632 80.0868 74.333 80.0275 73.2507C79.9682 72.1685 80.7983 71.2345 81.8804 71.1752C82.9624 71.1159 83.8962 71.9461 83.9555 73.0284Z" fill="white"/>
<g style="mix-blend-mode:multiply">
<path fill-rule="evenodd" clip-rule="evenodd" d="M77.3076 71.5977C77.3076 71.5977 80.702 61.8725 91.1742 61.3684C101.654 60.8644 108.087 70.4859 108.087 70.4859L108.28 68.7958C108.28 68.7958 104.477 57.2693 93.0492 57.2693C81.621 57.2693 76.8629 69.411 76.8629 69.411L77.3002 71.5903L77.3076 71.5977Z" fill="#D9CCDA"/>
</g>
</g>
<path style="mix-blend-mode:screen" opacity="0.5" fill-rule="evenodd" clip-rule="evenodd" d="M112.815 61.5686C114.409 66.7722 113.868 72.1092 111.681 76.6457C109.258 81.6936 104.818 85.7483 99.0524 87.5125C88.0911 90.8778 76.4701 84.7254 73.1053 73.7548C69.7406 62.7916 75.9068 51.1614 86.8682 47.7961C93.3309 45.8095 100.023 47.1438 105.107 50.8204C108.665 53.3703 111.429 57.0617 112.808 61.5612L112.815 61.5686Z" fill="url(#paint34_radial_0_632)"/>
<path style="mix-blend-mode:screen" opacity="0.5" fill-rule="evenodd" clip-rule="evenodd" d="M73.4166 59.6191L110.688 79.5736C110.688 79.5736 113.253 76.49 114.164 70.3821L89.9217 46.7731C89.9217 46.7731 78.738 47.6404 73.4166 59.6265V59.6191Z" fill="url(#paint35_linear_0_632)"/>
<path fill-rule="evenodd" clip-rule="evenodd" d="M85.3044 52.6809C85.6379 53.7632 85.0302 54.9047 83.9481 55.2383C82.8661 55.5718 81.7247 54.964 81.3912 53.8818C81.0577 52.7995 81.6654 51.658 82.7475 51.3244C83.8295 50.9909 84.9709 51.5987 85.3044 52.6809Z" fill="white"/>
<g style="mix-blend-mode:soft-light">
<path fill-rule="evenodd" clip-rule="evenodd" d="M108.48 78.3432C108.917 78.7879 108.598 79.8257 107.753 80.6633C106.908 81.5009 105.871 81.8196 105.434 81.3823C104.996 80.9375 105.315 79.8998 106.16 79.0622C107.005 78.2246 108.042 77.9058 108.48 78.3432Z" fill="white"/>
</g>
<g style="mix-blend-mode:soft-light">
<path fill-rule="evenodd" clip-rule="evenodd" d="M70.2816 54.8083L73.55 56.0833C73.55 56.0833 77.4187 47.9147 87.6686 45.2684L87.0386 42.2441C87.0386 42.2441 76.1366 44.1788 70.289 54.8083H70.2816Z" fill="#C5DBFF"/>
</g>
<g style="mix-blend-mode:soft-light">
<path fill-rule="evenodd" clip-rule="evenodd" d="M72.3198 58.6777L68.8661 57.7289C68.8661 57.7289 67.7618 60.264 67.4135 62.4951L71.1265 62.5619C71.1265 62.5619 71.8751 59.6339 72.3198 58.6777Z" fill="#C5DBFF"/>
</g>
<path fill-rule="evenodd" clip-rule="evenodd" d="M98.1482 89.3953C98.1482 89.3953 101.083 87.9721 102.106 88.061C102.106 88.061 100.638 89.3286 98.1482 89.3953Z" fill="white"/>
<path fill-rule="evenodd" clip-rule="evenodd" d="M116.78 85.7483C116.78 85.7483 116.128 88.4613 118.774 89.8771C118.774 89.8771 122.85 88.061 126.23 84.503C126.23 84.503 131.277 82.6054 134.738 79.885L120.152 75.7858C120.152 75.7858 119.589 76.7865 119.582 77.7427C119.574 79.1363 121.583 82.0865 121.583 82.0865C121.583 82.0865 119.434 84.3251 116.788 85.7557L116.78 85.7483Z" fill="url(#paint36_linear_0_632)"/>
<path fill-rule="evenodd" clip-rule="evenodd" d="M120.152 75.7858C120.152 75.7858 120.997 74.4145 121.138 73.1989C121.279 71.9832 120.301 69.8855 120.649 69.2183C120.997 68.5512 123.413 69.4259 123.843 70.7157C124.273 72.0129 123.073 73.9772 123.243 74.7333C123.413 75.4967 126.408 76.364 126.963 78.4618C126.963 78.4618 125.941 82.3534 121.59 82.0791C121.687 81.5157 118.337 78.6916 120.16 75.7858H120.152Z" fill="url(#paint37_linear_0_632)"/>
<path fill-rule="evenodd" clip-rule="evenodd" d="M125.83 68.2547C125.83 68.2547 124.08 71.405 124.725 73.9179C124.725 73.9179 125.37 74.4886 126.949 74.4293L127.564 73.4064C127.564 73.4064 127.193 75.052 127.193 75.7858C127.193 75.7858 127.282 76.5864 129.876 76.5567L130.803 75.2002V76.1268C130.803 76.1268 131.388 76.7495 133.337 76.5567C133.337 76.5567 134.049 75.5338 134.508 74.7036C134.508 74.7036 135.279 75.1335 136.05 75.2002C136.05 75.2002 137.473 73.8067 137.962 71.8646C137.962 71.8646 137.347 71.0937 135.679 70.8417L135.368 71.153L132.463 70.6934L132.151 70.938L132.092 70.4933L128.972 69.8854L128.55 70.1226L128.764 69.2183C128.764 69.2183 128.075 67.4393 125.815 68.2547H125.83Z" fill="url(#paint38_linear_0_632)"/>
<path fill-rule="evenodd" clip-rule="evenodd" d="M125.718 76.6976L126.771 78.9436C126.771 78.9436 129.357 79.9294 133.611 79.5736L125.711 76.6976H125.718Z" fill="#F47F81"/>
<path fill-rule="evenodd" clip-rule="evenodd" d="M128.779 69.2183C128.779 69.2183 127.475 71.4866 126.949 74.4219L127.564 73.399L128.987 69.878L128.616 70.0041L128.779 69.2183Z" fill="#F47F81"/>
<path fill-rule="evenodd" clip-rule="evenodd" d="M132.107 70.4859C132.107 70.4859 131.492 72.4131 130.81 75.1928C130.81 75.1928 131.892 71.4347 132.478 70.686L132.181 70.8491L132.107 70.4859Z" fill="#F47F81"/>
<path fill-rule="evenodd" clip-rule="evenodd" d="M135.383 71.153L134.516 74.7036C134.516 74.7036 135.057 71.7682 134.945 71.0863L135.375 71.153H135.383Z" fill="#F47F81"/>
<path fill-rule="evenodd" clip-rule="evenodd" d="M121.575 82.0865C121.575 82.0865 122.124 82.4794 124.584 82.4423C124.584 82.4423 122.991 83.3022 120.167 83.3911C120.167 83.3911 121.346 82.4127 121.575 82.0865Z" fill="#F47F81"/>
<g style="mix-blend-mode:soft-light" opacity="0.7">
<path fill-rule="evenodd" clip-rule="evenodd" d="M37.0048 132.091H46.5061L45.5945 128.808C45.5945 128.808 42.6967 131.447 37.0048 132.091Z" fill="white"/>
</g>
</g>
<defs>
<linearGradient id="paint0_linear_0_632" x1="51.4386" y1="106.308" x2="93.5265" y2="103.918" gradientUnits="userSpaceOnUse">
<stop offset="0.02" stop-color="#FF4748"/>
<stop offset="1" stop-color="#B54263"/>
</linearGradient>
<linearGradient id="paint1_linear_0_632" x1="17.1396" y1="127.694" x2="30.13" y2="75.601" gradientUnits="userSpaceOnUse">
<stop stop-color="#684A72"/>
<stop offset="0.99" stop-color="#46255E"/>
</linearGradient>
<linearGradient id="paint2_linear_0_632" x1="15.7085" y1="127.337" x2="23.0081" y2="98.065" gradientUnits="userSpaceOnUse">
<stop offset="0.02" stop-color="#FFA993"/>
<stop offset="1" stop-color="#FFCFA9"/>
</linearGradient>
<linearGradient id="paint3_linear_0_632" x1="87.0164" y1="137.71" x2="87.0164" y2="101.671" gradientUnits="userSpaceOnUse">
<stop stop-color="#684A72"/>
<stop offset="0.99" stop-color="#46255E"/>
</linearGradient>
<linearGradient id="paint4_linear_0_632" x1="76.8555" y1="134.545" x2="90.516" y2="124.881" gradientUnits="userSpaceOnUse">
<stop offset="0.02" stop-color="#FFA993"/>
<stop offset="1" stop-color="#FFCFA9"/>
</linearGradient>
<linearGradient id="paint5_linear_0_632" x1="79.0566" y1="137.821" x2="95.1763" y2="137.821" gradientUnits="userSpaceOnUse">
<stop stop-color="#9B1A43"/>
<stop offset="1" stop-color="#731653"/>
</linearGradient>
<linearGradient id="paint6_linear_0_632" x1="48.7741" y1="137.584" x2="48.7741" y2="103.472" gradientUnits="userSpaceOnUse">
<stop stop-color="#684A72"/>
<stop offset="0.99" stop-color="#46255E"/>
</linearGradient>
<linearGradient id="paint7_linear_0_632" x1="35.0852" y1="137.525" x2="57.6626" y2="121.547" gradientUnits="userSpaceOnUse">
<stop offset="0.02" stop-color="#FFA993"/>
<stop offset="1" stop-color="#FFCFA9"/>
</linearGradient>
<linearGradient id="paint8_linear_0_632" x1="34.7888" y1="138.007" x2="51.2123" y2="138.007" gradientUnits="userSpaceOnUse">
<stop stop-color="#9B1A43"/>
<stop offset="1" stop-color="#731653"/>
</linearGradient>
<linearGradient id="paint9_linear_0_632" x1="104.794" y1="81.1453" x2="135.124" y2="79.4233" gradientUnits="userSpaceOnUse">
<stop stop-color="#684A72"/>
<stop offset="0.99" stop-color="#46255E"/>
</linearGradient>
<linearGradient id="paint10_linear_0_632" x1="75.9411" y1="104.708" x2="63.9247" y2="33.552" gradientUnits="userSpaceOnUse">
<stop offset="0.02" stop-color="#FF8E89"/>
<stop offset="1" stop-color="#FFB388"/>
</linearGradient>
<linearGradient id="paint11_linear_0_632" x1="54.5385" y1="66.7672" x2="53.3028" y2="45.0094" gradientUnits="userSpaceOnUse">
<stop offset="0.02" stop-color="#E08893"/>
<stop offset="0.33" stop-color="#ECB9BF"/>
<stop offset="0.62" stop-color="#F6DFE2"/>
<stop offset="0.85" stop-color="#FCF6F7"/>
<stop offset="1" stop-color="white"/>
</linearGradient>
<linearGradient id="paint12_linear_0_632" x1="53.9704" y1="58.4618" x2="53.5127" y2="50.4025" gradientUnits="userSpaceOnUse">
<stop offset="0.02" stop-color="#E08893"/>
<stop offset="1" stop-color="#FFD1C7"/>
</linearGradient>
<linearGradient id="paint13_linear_0_632" x1="44.0825" y1="80.9479" x2="43.009" y2="62.0467" gradientUnits="userSpaceOnUse">
<stop offset="0.02" stop-color="#E08893"/>
<stop offset="1" stop-color="white"/>
</linearGradient>
<linearGradient id="paint14_linear_0_632" x1="36.7281" y1="53.3975" x2="35.872" y2="38.3225" gradientUnits="userSpaceOnUse">
<stop offset="0.02" stop-color="#E08893"/>
<stop offset="1" stop-color="#FFD1C7"/>
</linearGradient>
<linearGradient id="paint15_linear_0_632" x1="86.0791" y1="64.137" x2="85.3856" y2="51.926" gradientUnits="userSpaceOnUse">
<stop offset="0.02" stop-color="#E08893"/>
<stop offset="0.33" stop-color="#ECB9BF"/>
<stop offset="0.62" stop-color="#F6DFE2"/>
<stop offset="0.85" stop-color="#FCF6F7"/>
<stop offset="1" stop-color="white"/>
</linearGradient>
<linearGradient id="paint16_linear_0_632" x1="85.1488" y1="56.5129" x2="84.6941" y2="48.5054" gradientUnits="userSpaceOnUse">
<stop offset="0.02" stop-color="#E08893"/>
<stop offset="0.33" stop-color="#ECB9BF"/>
<stop offset="0.62" stop-color="#F6DFE2"/>
<stop offset="0.85" stop-color="#FCF6F7"/>
<stop offset="1" stop-color="white"/>
</linearGradient>
<linearGradient id="paint17_linear_0_632" x1="79.7036" y1="78.9323" x2="78.7079" y2="61.4002" gradientUnits="userSpaceOnUse">
<stop offset="0.02" stop-color="#E08893"/>
<stop offset="1" stop-color="white"/>
</linearGradient>
<linearGradient id="paint18_linear_0_632" x1="69.2085" y1="44.7001" x2="68.747" y2="36.5742" gradientUnits="userSpaceOnUse">
<stop offset="0.02" stop-color="#E08893"/>
<stop offset="0.33" stop-color="#ECB9BF"/>
<stop offset="0.62" stop-color="#F6DFE2"/>
<stop offset="0.85" stop-color="#FCF6F7"/>
<stop offset="1" stop-color="white"/>
</linearGradient>
<linearGradient id="paint19_linear_0_632" x1="71.0786" y1="105.096" x2="69.1439" y2="71.0309" gradientUnits="userSpaceOnUse">
<stop offset="0.02" stop-color="#E08893"/>
<stop offset="1" stop-color="#FFD1C7"/>
</linearGradient>
<linearGradient id="paint20_linear_0_632" x1="57.6083" y1="91.834" x2="69.8666" y2="91.834" gradientUnits="userSpaceOnUse">
<stop offset="0.02" stop-color="#E08893"/>
<stop offset="1" stop-color="#FFD1C7"/>
</linearGradient>
<linearGradient id="paint21_linear_0_632" x1="85.5354" y1="87.1169" x2="84.654" y2="71.5979" gradientUnits="userSpaceOnUse">
<stop stop-color="white"/>
<stop offset="0.98" stop-color="#FBC9CE"/>
</linearGradient>
<linearGradient id="paint22_linear_0_632" x1="65.3229" y1="93.8008" x2="62.9618" y2="86.548" gradientUnits="userSpaceOnUse">
<stop stop-color="#9B1A43"/>
<stop offset="1" stop-color="#731653"/>
</linearGradient>
<linearGradient id="paint23_linear_0_632" x1="66.5463" y1="91.7969" x2="66.5463" y2="87.9498" gradientUnits="userSpaceOnUse">
<stop stop-color="white"/>
<stop offset="0.98" stop-color="#FBC9CE"/>
</linearGradient>
<radialGradient id="paint24_radial_0_632" cx="0" cy="0" r="1" gradientTransform="matrix(9.26365 1.29059 -1.29038 9.26517 133.297 71.991)" gradientUnits="userSpaceOnUse">
<stop stop-color="#906E9D"/>
<stop offset="0.73" stop-color="#724F92"/>
</radialGradient>
<radialGradient id="paint25_radial_0_632" cx="0" cy="0" r="1" gradientTransform="matrix(42.8514 -13.1522 13.1501 42.8584 95.5234 44.7206)" gradientUnits="userSpaceOnUse">
<stop stop-color="#746874"/>
<stop offset="0.98" stop-color="#6C4D81"/>
</radialGradient>
<radialGradient id="paint26_radial_0_632" cx="0" cy="0" r="1" gradientTransform="matrix(42.8514 -13.1522 13.1501 42.8584 95.7579 43.1641)" gradientUnits="userSpaceOnUse">
<stop stop-color="#D4D4D4"/>
<stop offset="0.98" stop-color="#9F8BBD"/>
</radialGradient>
<linearGradient id="paint27_linear_0_632" x1="72.6313" y1="73.9252" x2="113.408" y2="61.4139" gradientUnits="userSpaceOnUse">
<stop stop-color="#46255E"/>
<stop offset="1" stop-color="#684A72"/>
</linearGradient>
<radialGradient id="paint28_radial_0_632" cx="0" cy="0" r="1" gradientTransform="matrix(21.3407 -6.55001 6.54894 21.3442 93.0621 66.9388)" gradientUnits="userSpaceOnUse">
<stop stop-color="#746874"/>
<stop offset="0.98" stop-color="#6C4D81"/>
</radialGradient>
<linearGradient id="paint29_linear_0_632" x1="78.1821" y1="113.847" x2="58.9716" y2="0.0892912" gradientUnits="userSpaceOnUse">
<stop offset="0.02" stop-color="#FF8E89"/>
<stop offset="1" stop-color="#FFB388"/>
</linearGradient>
<linearGradient id="paint30_linear_0_632" x1="94.3862" y1="48.9795" x2="93.2775" y2="29.4567" gradientUnits="userSpaceOnUse">
<stop offset="0.02" stop-color="#E08893"/>
<stop offset="0.33" stop-color="#ECB9BF"/>
<stop offset="0.62" stop-color="#F6DFE2"/>
<stop offset="0.85" stop-color="#FCF6F7"/>
<stop offset="1" stop-color="white"/>
</linearGradient>
<linearGradient id="paint31_linear_0_632" x1="84.193" y1="72.6263" x2="82.6017" y2="44.6076" gradientUnits="userSpaceOnUse">
<stop offset="0.02" stop-color="#E08893"/>
<stop offset="1" stop-color="white"/>
</linearGradient>
<linearGradient id="paint32_linear_0_632" x1="70.4076" y1="114.459" x2="67.3146" y2="59.9981" gradientUnits="userSpaceOnUse">
<stop offset="0.02" stop-color="#E08893"/>
<stop offset="1" stop-color="#FFD1C7"/>
</linearGradient>
<linearGradient id="paint33_linear_0_632" x1="93.5251" y1="85.7203" x2="91.8645" y2="56.4804" gradientUnits="userSpaceOnUse">
<stop stop-color="white"/>
<stop offset="0.98" stop-color="#FBC9CE"/>
</linearGradient>
<radialGradient id="paint34_radial_0_632" cx="0" cy="0" r="1" gradientTransform="matrix(19.8528 -6.09334 6.09234 19.856 92.9651 67.6587)" gradientUnits="userSpaceOnUse">
<stop/>
<stop offset="0.37" stop-color="#010100"/>
<stop offset="0.51" stop-color="#080504"/>
<stop offset="0.6" stop-color="#140C09"/>
<stop offset="0.68" stop-color="#251712"/>
<stop offset="0.75" stop-color="#3B251C"/>
<stop offset="0.8" stop-color="#56362A"/>
<stop offset="0.86" stop-color="#774A39"/>
<stop offset="0.91" stop-color="#9C624C"/>
<stop offset="0.95" stop-color="#C77D61"/>
<stop offset="0.99" stop-color="#F59A77"/>
<stop offset="1" stop-color="#FFA07C"/>
</radialGradient>
<linearGradient id="paint35_linear_0_632" x1="99.3354" y1="83.064" x2="88.2671" y2="47.0025" gradientUnits="userSpaceOnUse">
<stop/>
<stop offset="1" stop-color="#BA969A"/>
</linearGradient>
<linearGradient id="paint36_linear_0_632" x1="125.726" y1="89.8771" x2="125.726" y2="75.7858" gradientUnits="userSpaceOnUse">
<stop offset="0.02" stop-color="#FFA993"/>
<stop offset="1" stop-color="#FFCFA9"/>
</linearGradient>
<linearGradient id="paint37_linear_0_632" x1="123.28" y1="82.0939" x2="123.28" y2="68.9885" gradientUnits="userSpaceOnUse">
<stop stop-color="#FFCFA9"/>
<stop offset="0.98" stop-color="#FFA993"/>
</linearGradient>
<linearGradient id="paint38_linear_0_632" x1="131.277" y1="76.5938" x2="131.277" y2="68.0397" gradientUnits="userSpaceOnUse">
<stop offset="0.02" stop-color="#FFA993"/>
<stop offset="1" stop-color="#FFCFA9"/>
</linearGradient>
<clipPath id="clip0_0_632">
<rect width="140" height="139" fill="white"/>
</clipPath>
</defs>
</svg>
