<svg width="125" height="108" viewBox="0 0 125 108" fill="none" xmlns="http://www.w3.org/2000/svg">
<g clip-path="url(#clip0_0_371)">
<path fill-rule="evenodd" clip-rule="evenodd" d="M90.5601 67.8562C83.626 68.7314 76.6919 69.3896 69.9958 69.8982L69.8098 69.9132C40.8383 72.0673 16.4127 71.1922 16.4127 71.1922C-1.76329 61.1918 1.94929 35.5886 1.94929 35.5886C13.0945 17.5849 31.4565 11.8479 31.4565 11.8479C53.412 3.57532 73.887 10.4716 73.887 10.4716L74.8616 14.8248L77.421 11.5412C91.5719 13.7627 101.251 21.235 101.251 21.235C104.838 49.5084 90.5527 67.8637 90.5527 67.8637L90.5601 67.8562Z" fill="url(#paint0_linear_0_371)"/>
<path fill-rule="evenodd" clip-rule="evenodd" d="M90.5601 67.8562L69.9958 69.8982L69.8098 69.9132C40.8383 72.0673 16.4127 71.1922 16.4127 71.1922C-1.76329 61.1918 1.94929 35.5886 1.94929 35.5886C13.0945 17.5849 31.4565 11.8479 31.4565 11.8479C31.4565 11.8479 27.1115 31.183 32.0591 43.7266L35.5113 44.7887L32.3344 46.9204C32.3344 46.9204 32.0591 60.6607 38.6882 68.2601L90.5527 67.8562H90.5601Z" fill="url(#paint1_linear_0_371)"/>
<path fill-rule="evenodd" clip-rule="evenodd" d="M74.8616 14.8248C74.8616 14.8248 76.2752 31.3626 74.8616 42.5672C74.8616 42.5672 77.9567 21.9007 77.421 11.5412L74.8616 14.8248Z" fill="#F47F81"/>
<path fill-rule="evenodd" clip-rule="evenodd" d="M69.3337 23.0526C69.3337 23.0526 70.3083 27.0542 68.7385 30.0536L67.8754 27.0542C67.8754 27.0542 64.892 21.9231 62.0424 21.2499C59.1929 20.5843 50.436 21.3846 47.9138 22.7833C45.3917 24.182 42.81 28.4529 42.81 28.4529L38.1004 28.251L36.91 31.587C36.91 31.587 36.7761 26.3885 36.2478 23.2545L38.4799 26.2988C38.4799 26.2988 41.6642 27.0542 42.8546 26.2988C44.045 25.5433 45.905 22.5739 47.8915 21.0106C49.878 19.4473 61.2538 18.7143 64.2521 19.7166C66.6404 20.5169 68.3665 25.7303 68.3665 25.7303C68.3665 25.7303 69.0063 24.915 69.3411 23.0526H69.3337Z" fill="#F47F81"/>
<path fill-rule="evenodd" clip-rule="evenodd" d="M37.9963 9.79846C37.9963 9.79846 37.2299 13.2466 38.5617 14.5182C39.8935 15.7897 48.0477 15.7149 50.8973 13.6505C53.7468 11.5861 54.1486 7.77893 54.1486 7.77893L56.2095 7.79389C56.2095 7.79389 51.4702 15.0418 49.2158 16.0665C46.9615 17.0912 38.3831 17.1361 37.3639 16.0665C36.3446 14.9969 36.791 11.2645 36.791 11.2645L35.3997 10.509L37.9963 9.79098V9.79846Z" fill="#F47F81"/>
<path fill-rule="evenodd" clip-rule="evenodd" d="M88.8563 14.6379C88.8563 14.6379 89.3623 18.7891 92.3457 22.1251C95.3292 25.461 101.676 25.663 101.676 25.663V27.0617C101.676 27.0617 94.9274 25.9921 92.0109 23.1274C89.0944 20.2626 86.7657 13.8824 86.7657 13.8824L88.8563 14.6453V14.6379Z" fill="#F47F81"/>
<path fill-rule="evenodd" clip-rule="evenodd" d="M80.3673 26.7775L79.9432 33.412L81.5353 31.587C81.5353 31.587 84.5188 32.1853 85.181 32.0507C85.8431 31.9161 89.0275 29.2533 90.5527 29.3804C92.0779 29.5151 97.0032 32.1629 98.5879 33.4045C100.173 34.6462 101.058 40.6748 101.058 40.6748L101.348 38.4982C101.348 38.4982 101.08 34.519 99.7486 32.9632C98.1489 31.0858 91.7431 28.0715 90.0691 28.0715C88.3951 28.0715 87.2418 30.652 84.9429 30.9587C82.6439 31.2653 81.7139 30.2032 81.7139 30.2032L80.3673 26.77V26.7775Z" fill="#F47F81"/>
<path fill-rule="evenodd" clip-rule="evenodd" d="M38.2939 55.6642C38.2939 55.6642 40.02 51.8197 44.7965 50.9296L42.3189 54.2281C42.3189 54.2281 44.6179 58.4916 47.3558 59.9127C50.0938 61.3339 52.9284 63.2038 52.9284 63.2038C52.9284 63.2038 54.8554 65.4403 54.2527 68.1554L51.7306 68.1779C51.7306 68.1779 52.2588 64.9915 51.4255 63.6077C50.5848 62.2315 44.9229 60.2269 44.9229 60.2269C44.9229 60.2269 41.694 56.3673 41.0764 54.6694C41.0764 54.6694 39.5735 54.8564 38.2864 55.6717L38.2939 55.6642Z" fill="#F47F81"/>
<path fill-rule="evenodd" clip-rule="evenodd" d="M91.2223 55.4548C91.2223 55.4548 92.7177 57.4669 92.3755 61.5882L91.2223 60.5186C91.2223 60.5186 88.6629 65.4178 84.2361 67.9011H79.9432C79.9432 67.9011 88.0826 64.7521 90.6494 59.5313C90.6494 59.5313 91.6166 57.1826 91.2223 55.4473V55.4548Z" fill="#F47F81"/>
<path fill-rule="evenodd" clip-rule="evenodd" d="M68.2772 42.5672C68.2772 42.5672 68.1135 43.3152 67.7638 44.325C67.2877 45.7311 66.4469 47.6534 65.197 48.8278C64.7729 49.2391 64.2968 49.5458 63.7685 49.7179C60.5842 50.7875 52.8168 49.9871 50.7708 48.0499C50.5401 47.8404 50.3318 47.5562 50.1309 47.2271C49.0149 45.3946 48.3305 42.0586 48.0254 40.1887C47.8766 39.3659 47.8171 38.8273 47.8171 38.8273C49.625 36.1571 59.178 33.225 63.3296 34.3769C67.4885 35.5288 68.2846 42.5523 68.2846 42.5523L68.2772 42.5672Z" fill="url(#paint2_linear_0_371)"/>
<path fill-rule="evenodd" clip-rule="evenodd" d="M94.8009 47.1224C94.8009 47.1224 94.6 47.8105 94.2503 48.7305C93.7891 49.9722 93.0599 51.6327 92.2118 52.62C91.9142 52.9715 91.6091 53.2408 91.2892 53.3829C89.3622 54.2506 82.2719 53.2483 81.0145 51.9842C80.6053 51.5728 80.2482 50.7501 79.9506 49.8226C79.3256 47.8629 78.9685 45.4544 78.9685 45.4544C79.0057 45.1253 79.0503 44.8037 79.1173 44.497C79.9134 40.615 83.001 38.5207 83.001 38.5207C92.1969 38.962 94.8009 47.1224 94.8009 47.1224Z" fill="url(#paint3_linear_0_371)"/>
<g style="mix-blend-mode:multiply" opacity="0.5">
<path fill-rule="evenodd" clip-rule="evenodd" d="M1.71121 43.8163C1.71121 43.8163 7.2094 41.7594 9.15869 42.1633C11.1005 42.5672 14.8206 46.7409 15.5274 48.3416C16.2342 49.9422 16.502 56.6964 16.502 56.6964L14.1137 58.6487C14.1137 58.6487 17.3874 58.7384 20.2146 55.4473L18.0049 56.1579C18.0049 56.1579 16.941 49.0447 16.2118 47.5786C15.4827 46.1126 11.5693 40.7122 8.51884 40.241C5.46843 39.7698 1.71865 42.1483 1.71865 42.1483V43.8014L1.71121 43.8163Z" fill="#CDABAE"/>
</g>
<g style="mix-blend-mode:multiply" opacity="0.5">
<path fill-rule="evenodd" clip-rule="evenodd" d="M29.5816 71.3717C29.5816 71.3717 25.4896 65.8591 25.5565 64.3931C25.6235 62.9271 29.5816 60.5261 29.5816 60.5261L28.3465 55.4623C28.3465 55.4623 32.26 58.1026 32.5278 63.4207L30.5413 61.6929C30.5413 61.6929 26.8511 62.6653 26.7172 64.2659C26.5832 65.8666 32.0219 71.3717 32.0219 71.3717H29.589H29.5816Z" fill="#CDABAE"/>
</g>
<path fill-rule="evenodd" clip-rule="evenodd" d="M78.9611 55.4623C78.9611 55.4623 76.7588 57.1901 76.491 57.9979C76.2678 58.6935 76.3348 61.7528 75.8958 63.2487C75.8288 63.4806 75.747 63.675 75.6503 63.8172C74.9435 64.8868 71.5806 66.3977 67.9126 63.4133C66.4544 62.2389 64.8399 59.2545 63.7165 56.9134L63.7016 56.8984C62.8534 55.1257 62.2954 53.7195 62.2954 53.7195H62.7344C62.7344 53.7195 72.771 57.5491 78.9536 55.4623H78.9611Z" fill="url(#paint4_linear_0_371)"/>
<path style="mix-blend-mode:multiply" opacity="0.5" fill-rule="evenodd" clip-rule="evenodd" d="M78.9611 55.4623C78.9611 55.4623 76.7588 57.1901 76.491 57.9979C76.2678 58.6935 76.3347 61.7528 75.8958 63.2487C75.7842 62.7027 75.2559 60.9225 73.0463 59.5462C70.3902 57.9007 63.7239 56.9134 63.7239 56.9134L63.709 56.8984C62.8608 55.1257 62.3028 53.7195 62.3028 53.7195H62.7418C62.7418 53.7195 72.7784 57.5491 78.9611 55.4623Z" fill="url(#paint5_linear_0_371)"/>
<path fill-rule="evenodd" clip-rule="evenodd" d="M68.2697 55.3127C68.2697 55.3127 69.4601 57.9082 71.7219 58.4392C73.9763 58.9703 75.3452 56.0682 75.3452 56.0682C75.3452 56.0682 71.8782 56.2626 68.2697 55.3127Z" fill="url(#paint6_linear_0_371)"/>
<path fill-rule="evenodd" clip-rule="evenodd" d="M64.2447 51.9917C64.2447 51.9917 61.5886 51.872 59.2078 55.3127L63.0915 53.8467L64.2521 51.9992L64.2447 51.9917Z" fill="#CA4963"/>
<path fill-rule="evenodd" clip-rule="evenodd" d="M74.8616 14.8249C74.8616 14.8249 76.9969 26.0968 76.0595 33.4045C76.0595 33.4045 78.0385 19.8064 77.421 11.5338L74.2962 12.3117L74.8542 14.8174L74.8616 14.8249Z" fill="#CA4963"/>
<path fill-rule="evenodd" clip-rule="evenodd" d="M36.2404 23.2545L36.9026 31.587L38.093 28.251L39.0528 26.4185L38.4724 26.2988L36.2404 23.2545Z" fill="#CA4963"/>
<path fill-rule="evenodd" clip-rule="evenodd" d="M69.3337 23.0526C69.3337 23.0526 70.725 24.7205 68.6715 30.5847L67.8754 27.0542L68.359 25.7303L69.3337 23.0526Z" fill="#CA4963"/>
<path fill-rule="evenodd" clip-rule="evenodd" d="M80.3673 26.7775L79.9432 33.412L81.5353 31.587L82.4728 30.7118L81.7139 30.2107L80.3673 26.7775Z" fill="#CA4963"/>
<path fill-rule="evenodd" clip-rule="evenodd" d="M38.2939 55.6642C38.2939 55.6642 38.6063 52.4405 44.7965 50.9296L42.3189 54.2281L41.5824 55.6717L41.0764 54.6694C41.0764 54.6694 39.4843 54.4525 38.2864 55.6717L38.2939 55.6642Z" fill="#CA4963"/>
<path fill-rule="evenodd" clip-rule="evenodd" d="M91.2223 55.4548C91.2223 55.4548 93.2087 58.2074 92.8144 62.0744L91.2223 60.5186L89.5557 61.2591C89.5557 61.2591 91.1999 58.0952 91.2074 57.5267C91.2148 56.9582 91.2148 55.4473 91.2148 55.4473L91.2223 55.4548Z" fill="#CA4963"/>
<path d="M55.9565 47.1897C58.7054 47.1897 60.9339 44.9494 60.9339 42.1858C60.9339 39.4221 58.7054 37.1818 55.9565 37.1818C53.2076 37.1818 50.9791 39.4221 50.9791 42.1858C50.9791 44.9494 53.2076 47.1897 55.9565 47.1897Z" fill="#37193E"/>
<path d="M83.9013 51.124C86.0873 51.124 87.8594 48.8837 87.8594 46.1201C87.8594 43.3565 86.0873 41.1161 83.9013 41.1161C81.7153 41.1161 79.9432 43.3565 79.9432 46.1201C79.9432 48.8837 81.7153 51.124 83.9013 51.124Z" fill="#37193E"/>
<path fill-rule="evenodd" clip-rule="evenodd" d="M65.1896 48.8278C64.7655 49.2391 64.2893 49.5458 63.7611 49.7178C60.5767 50.7875 52.8094 49.9871 50.7633 48.0499C50.5327 47.8404 50.3244 47.5562 50.1235 47.2271C50.3467 47.3168 55.0562 49.1344 65.1896 48.8278Z" fill="#F47F81"/>
<path fill-rule="evenodd" clip-rule="evenodd" d="M92.2118 52.6275C91.9142 52.979 91.6092 53.2483 91.2892 53.3904C89.3623 54.2581 82.2719 53.2558 81.0145 51.9917C80.6053 51.5803 80.2482 50.7575 79.9506 49.83C79.9506 49.83 82.3835 52.4629 92.2192 52.6275H92.2118Z" fill="#F47F81"/>
<g style="mix-blend-mode:multiply">
<path fill-rule="evenodd" clip-rule="evenodd" d="M68.2772 42.5672C68.2772 42.5672 68.1135 43.3152 67.7638 44.325C67.057 43.0758 65.4202 41.1984 61.73 40.1961C55.9714 38.6254 48.2933 40.1363 48.018 40.1961C47.8692 39.3734 47.8097 38.8348 47.8097 38.8348C49.6176 36.1646 59.1706 33.2325 63.3221 34.3844C67.4811 35.5363 68.2772 42.5597 68.2772 42.5597V42.5672Z" fill="#D9CCDA"/>
</g>
<g style="mix-blend-mode:multiply">
<path fill-rule="evenodd" clip-rule="evenodd" d="M94.8009 47.1224C94.8009 47.1224 94.6 47.8105 94.2503 48.7305C93.3055 47.1299 91.0511 44.2726 86.7731 43.8089C81.7362 43.2628 79.653 44.1828 79.1173 44.4895C79.9134 40.6075 83.001 38.5132 83.001 38.5132C92.1969 38.9545 94.8009 47.1149 94.8009 47.1149V47.1224Z" fill="#D9CCDA"/>
</g>
<path fill-rule="evenodd" clip-rule="evenodd" d="M35.5113 44.7887C35.5113 44.7887 41.6121 44.0332 42.5421 43.6293C43.4721 43.2329 46.1059 38.3262 47.7799 36.6507C49.439 34.9902 57.5338 31.4748 65.6211 33.1427C69.3262 33.9057 70.658 43.9884 70.658 43.9884C70.658 43.9884 73.8423 46.1874 77.9567 45.3198C77.9567 45.3198 80.3598 38.2439 82.9564 37.5408C86.9591 36.4488 95.0018 42.7243 95.6044 45.3198C96.1996 47.9152 95.5375 50.7875 95.5375 50.7875C95.5375 50.7875 97.8067 51.6551 98.5953 51.3185L97.6058 54.2132L94.2355 51.3185C94.2355 51.3185 94.3248 47.6759 93.4394 45.4544C92.554 43.2329 85.5678 38.9844 82.8299 39.5753C80.092 40.1662 78.8048 46.1201 78.8048 46.1201C78.8048 46.1201 73.0537 46.696 68.1507 44.6541C68.1507 44.6541 67.1612 36.3964 63.5974 35.2296C60.0336 34.0627 51.1279 35.8055 47.8097 38.8273C44.4914 41.8492 42.7281 45.6264 42.7281 45.6264L35.5262 44.7812L35.5113 44.7887Z" fill="#F47F81"/>
<path fill-rule="evenodd" clip-rule="evenodd" d="M79.1099 44.9383C79.1099 44.9383 80.4863 39.2911 83.4623 38.7899C86.4383 38.2888 91.8844 41.7669 93.246 43.8762C94.6075 45.9855 94.1462 49.0148 94.1462 49.0148C94.1462 49.0148 94.4364 45.7311 91.4752 43.2628C88.1272 40.4804 85.0545 39.5604 83.1349 40.2261C81.208 40.8918 79.906 43.188 79.1173 44.9383H79.1099Z" fill="#CA4963"/>
<path fill-rule="evenodd" clip-rule="evenodd" d="M47.8022 38.8348C47.8022 38.8348 50.7485 34.7584 59.2078 34.1301C68.8352 33.412 67.9275 43.8163 67.9275 43.8163C67.9275 43.8163 67.4737 36.7929 62.8311 35.7681C58.1885 34.7434 49.7887 37.5483 47.7948 38.8348H47.8022Z" fill="#CA4963"/>
<path fill-rule="evenodd" clip-rule="evenodd" d="M61.73 43.2254C61.73 43.7715 61.291 44.2053 60.7553 44.2053C60.2196 44.2053 59.7807 43.764 59.7807 43.2254C59.7807 42.6869 60.2196 42.2456 60.7553 42.2456C61.291 42.2456 61.73 42.6869 61.73 43.2254Z" fill="white"/>
<path fill-rule="evenodd" clip-rule="evenodd" d="M88.8414 47.2346C88.8414 47.7806 88.4025 48.2144 87.8668 48.2144C87.3311 48.2144 86.8922 47.7731 86.8922 47.2346C86.8922 46.696 87.3311 46.2547 87.8668 46.2547C88.4025 46.2547 88.8414 46.696 88.8414 47.2346Z" fill="white"/>
<g style="mix-blend-mode:soft-light" opacity="0.7">
<path fill-rule="evenodd" clip-rule="evenodd" d="M74.3557 65.6497C74.3855 65.156 75.4122 65.1635 76.4166 63.7199C77.3168 63.6451 76.9448 65.2009 76.4166 65.6497C75.8884 66.091 74.3483 65.8666 74.3557 65.6497Z" fill="white"/>
</g>
<g style="mix-blend-mode:soft-light" opacity="0.7">
<path fill-rule="evenodd" clip-rule="evenodd" d="M46.0985 26.1193C45.0569 28.1014 52.4448 29.5001 59.2524 29.0064C66.0601 28.5203 64.6911 23.808 63.895 23.247C63.0989 22.6935 59.1632 21.8932 53.5459 23.0451C47.9287 24.2044 46.5151 25.3114 46.0985 26.1118V26.1193Z" fill="white"/>
</g>
<g style="mix-blend-mode:soft-light" opacity="0.7">
<path fill-rule="evenodd" clip-rule="evenodd" d="M81.7585 19.2603C79.6232 20.6441 81.0294 26.3212 84.3104 27.4207C87.5915 28.5203 88.7596 26.1866 92.859 26.8224C96.9659 27.4581 99.8824 31.8113 100.411 31.5869C100.939 31.3626 101.162 28.0341 99.8824 27.4058C98.6028 26.785 95.1952 27.3085 92.1448 25.4236C89.0944 23.5387 85.8208 16.62 81.7511 19.2529L81.7585 19.2603Z" fill="white"/>
</g>
<path fill-rule="evenodd" clip-rule="evenodd" d="M91.7654 31.0783C90.2848 31.4299 93.0823 33.9805 95.6193 34.3545C98.1564 34.7284 96.9957 32.7762 95.3068 31.8637C93.6179 30.9512 92.4275 30.9213 91.7654 31.0783Z" fill="white"/>
<g style="mix-blend-mode:soft-light" opacity="0.7">
<path fill-rule="evenodd" clip-rule="evenodd" d="M67.191 14.8622C66.6032 12.4986 58.3894 11.616 56.0235 12.925C53.6575 14.2339 48.7099 18.0262 48.0998 18.3478C47.4897 18.6769 53.6129 17.0763 58.8656 18.0486C64.1182 19.0135 67.8159 17.368 67.191 14.8622Z" fill="white"/>
</g>
<g style="mix-blend-mode:soft-light" opacity="0.7">
<path fill-rule="evenodd" clip-rule="evenodd" d="M45.8009 18.1758C45.4214 17.1137 40.5482 18.4151 40.0199 20.4646C39.4917 22.5215 44.2682 21.2125 44.9304 20.4646C45.5925 19.7166 46.0836 18.9611 45.8083 18.1758H45.8009Z" fill="white"/>
</g>
<g style="mix-blend-mode:soft-light" opacity="0.5">
<path fill-rule="evenodd" clip-rule="evenodd" d="M47.5344 53.8467C45.0792 56.1429 51.1205 58.0877 53.8212 60.2867C56.5219 62.4932 58.0397 65.2159 61.8936 64.812C65.7476 64.4081 61.9606 59.7482 58.5754 57.9904C55.1902 56.2327 54.9595 52.261 52.1918 52.1562C49.4241 52.059 48.4123 53.0239 47.5344 53.8467Z" fill="white"/>
</g>
<g style="mix-blend-mode:soft-light" opacity="0.5">
<path fill-rule="evenodd" clip-rule="evenodd" d="M86.0738 55.6642C83.626 55.395 80.9773 60.5934 82.4728 63.2487C83.9682 65.904 89.0349 61.4536 89.5483 59.5462C90.0616 57.6389 87.9115 55.8662 86.0738 55.6642Z" fill="white"/>
</g>
<path fill-rule="evenodd" clip-rule="evenodd" d="M46.9615 25.7827C47.5121 24.743 49.6548 24.0548 50.7931 24.5186C51.9314 24.9823 49.8185 26.2913 48.7099 26.4558C47.6013 26.6279 46.9541 25.7827 46.9541 25.7827H46.9615Z" fill="white"/>
<path fill-rule="evenodd" clip-rule="evenodd" d="M34.5366 40.989C33.629 41.5201 36.7017 42.8514 38.5394 42.7168C40.3771 42.5822 41.136 41.0339 40.8681 40.7347C40.6077 40.4355 35.6824 40.3158 34.5292 40.989H34.5366Z" fill="white"/>
<path fill-rule="evenodd" clip-rule="evenodd" d="M10.9592 32.6042C10.9592 32.6042 14.8057 41.4976 23.57 44.2128C23.57 44.2128 25.3631 43.5919 24.8944 41.1236C24.8944 41.1236 20.5866 37.8101 19.2548 31.6019C19.2548 31.6019 15.2669 30.6146 10.9592 32.6042Z" fill="#301B39"/>
<path fill-rule="evenodd" clip-rule="evenodd" d="M97.7695 53.712C97.7695 53.712 103.595 58.1101 109.614 69.0081C109.614 69.0081 112.092 68.7912 112.888 66.6595C112.888 66.6595 108.29 56.9059 99.1385 49.4261L97.7769 53.712H97.7695Z" fill="url(#paint7_linear_0_371)"/>
<path fill-rule="evenodd" clip-rule="evenodd" d="M109.48 68.9109C109.48 68.9109 106.75 71.9476 106.474 73.0098C106.206 74.0794 107.003 76.7422 107.003 78.3877C107.003 80.0332 106.474 82.696 106.474 82.696L107.947 83.0102C107.947 83.0102 109.785 82.0303 110.053 80.7887C110.053 80.7887 108.684 77.0413 110.447 75.9568C110.447 75.9568 114.777 80.4297 118.453 81.9855C118.453 81.9855 119.732 81.9855 120.134 81.0954L116.727 77.4079C116.727 77.4079 119.07 79.764 122.604 80.5643C122.604 80.5643 123.884 80.2502 124.286 79.4947L123.802 78.9188L124.286 77.3181C124.286 77.3181 120.171 74.9171 118.847 72.8751C118.847 72.8751 120.305 74.0345 123.847 74.4758C123.847 74.4758 124.777 74.1616 125 73.0098C125 73.0098 116.727 69.2101 112.888 66.652C112.888 66.652 111.206 69.1128 109.48 68.9034V68.9109Z" fill="url(#paint8_linear_0_371)"/>
<path fill-rule="evenodd" clip-rule="evenodd" d="M123.802 78.9262C123.802 78.9262 120.462 77.1909 118.438 75.1938C118.438 75.1938 121.094 77.2283 123.914 78.5597L123.802 78.9262Z" fill="#F47F81"/>
<path fill-rule="evenodd" clip-rule="evenodd" d="M14.7164 34.1151C18.7563 33.1353 21.2934 33.6289 23.6816 32.2527C26.0699 30.8839 28.7111 24.1895 30.1098 21.9456C31.5086 19.7017 35.5187 17.4129 35.5187 17.4129C35.5187 17.4129 35.1765 15.0642 34.2539 14.6229C34.2539 14.6229 28.9417 15.1241 27.5802 16.7621C26.2187 18.3927 26.7395 20.9583 26.3526 21.5192C25.9657 22.0802 21.9779 21.9531 21.9779 21.9531C21.9779 21.9531 21.6356 16.4405 21.1743 13.0148C20.4675 7.80139 18.5406 0.456279 18.5406 0.456279C18.5406 0.456279 16.2416 -0.463729 15.2967 1.43613L15.7952 8.13049L16.1226 15.7673C16.1226 15.7673 15.5794 9.52173 11.2047 0.104731C11.2047 0.104731 8.57092 -0.553486 7.60372 1.40621V2.73012C7.60372 2.73012 6.19011 2.87972 5.07411 4.49534C5.07411 4.49534 5.31963 13.7627 6.33891 19.8737H5.60979L2.96114 9.6414C2.96114 9.6414 0.93001 8.31001 0.00744629 10.3669C0.00744629 10.3669 0.87793 14.6603 1.81537 22.2672C2.79002 30.2257 4.00274 32.7014 5.27499 33.7262C7.61116 35.6111 10.6765 35.095 14.7238 34.1151H14.7164Z" fill="url(#paint9_linear_0_371)"/>
<path style="mix-blend-mode:multiply" opacity="0.5" fill-rule="evenodd" clip-rule="evenodd" d="M3.5117 22.9404C3.5117 22.9404 5.07411 27.69 10.2747 27.3684C10.2747 27.3684 13.087 22.9254 21.9704 21.9605L17.99 16.7696C17.99 16.7696 7.11268 16.2684 3.5117 22.9404Z" fill="url(#paint10_linear_0_371)"/>
<path fill-rule="evenodd" clip-rule="evenodd" d="M7.60372 2.73011C7.60372 2.73011 10.7211 10.7708 11.0113 16.7621C11.0113 16.7621 9.01733 6.81405 6.70348 3.0293L7.60372 2.72263V2.73011Z" fill="#F47F81"/>
<path fill-rule="evenodd" clip-rule="evenodd" d="M4.24083 21.1378C4.24083 21.1378 10.3045 17.181 17.99 16.7621C17.99 16.7621 10.3268 15.311 4.24083 21.1378Z" fill="#F47F81"/>
<path fill-rule="evenodd" clip-rule="evenodd" d="M11.1154 26.3811C11.1154 26.3811 15.7357 21.953 23.2576 21.9156C23.2576 21.9156 16.9484 18.8789 11.1154 26.3811Z" fill="#CE5870"/>
<g style="mix-blend-mode:multiply" opacity="0.5">
<path fill-rule="evenodd" clip-rule="evenodd" d="M38.6882 68.2601L16.4053 71.1922C16.4053 71.1922 56.5517 72.5236 90.5527 67.8562C90.5527 67.8562 57.8686 69.771 38.6882 68.2601Z" fill="#B7868A"/>
</g>
<path fill-rule="evenodd" clip-rule="evenodd" d="M42.929 70.1301C42.929 70.1301 39.8191 68.9034 36.6347 70.1301C36.6347 70.1301 29.0385 77.8641 23.3022 92.3973H28.2126C28.2126 92.3973 33.9191 76.9965 42.929 70.1301Z" fill="url(#paint11_linear_0_371)"/>
<path fill-rule="evenodd" clip-rule="evenodd" d="M73.9911 69.584C73.9911 69.584 82.0413 75.9343 85.8357 92.3973L89.5557 91.3277C89.5557 91.3277 86.669 76.5252 78.9685 69.0081L73.9986 69.5766L73.9911 69.584Z" fill="#301B39"/>
<path fill-rule="evenodd" clip-rule="evenodd" d="M26.0029 85.7328C26.0029 85.7328 28.2945 85.5009 30.772 86.578L29.5369 89.2184C29.5369 89.2184 27.7141 88.5676 24.8795 88.8145L26.0029 85.7328Z" fill="url(#paint12_linear_0_371)"/>
<path fill-rule="evenodd" clip-rule="evenodd" d="M28.7409 91.7316C28.9194 95.0002 28.8525 99.1814 28.7929 101.463C28.7706 102.502 28.7409 103.153 28.7409 103.153C28.7409 103.153 24.7232 103.909 24.0164 105.24C23.3096 106.571 22.335 107.993 22.335 107.993H7.92365C7.42517 106.811 7.44005 105.285 7.56653 104.073C7.67813 103.011 7.87901 102.188 7.91621 102.061V102.039C7.91621 102.039 7.93109 102.039 7.93853 102.039C8.09477 102.001 9.30749 101.68 10.9889 100.999C12.8862 100.229 15.3786 99.0019 17.6106 97.1992C17.7445 97.102 17.871 96.9973 17.9975 96.8926C22.4168 93.1602 25.1994 87.3709 25.1994 87.3709C26.1592 87.2736 27.0669 87.5728 27.8034 87.9693L27.8183 87.9842C28.845 88.5227 29.5369 89.2333 29.5369 89.2333L28.7409 91.739V91.7316Z" fill="url(#paint13_linear_0_371)"/>
<path fill-rule="evenodd" clip-rule="evenodd" d="M84.2658 86.7725C84.2658 86.7725 86.2969 85.0447 88.1718 84.9774C88.1718 84.9774 88.7298 86.7351 88.7298 87.8346C88.7298 87.8346 86.349 87.8571 84.8015 88.4928L84.2658 86.7725Z" fill="#C99AB8"/>
<path fill-rule="evenodd" clip-rule="evenodd" d="M107.523 104.081H84.8015C84.9057 103.116 84.9875 102.173 85.0545 101.253C85.5306 94.1625 84.8015 88.4854 84.8015 88.4854C86.2151 87.9169 88.8563 87.685 88.8563 87.685C88.8563 87.685 88.8712 87.7149 88.8935 87.7598C89.1837 88.418 91.3264 93.1228 94.7042 94.9254C95.7086 95.464 96.8469 95.9277 98.0299 96.3092C99.6667 96.8552 101.37 97.2666 102.821 97.5583C104.971 97.9996 106.556 98.1941 106.556 98.1941C107.888 99.9892 107.531 104.081 107.531 104.081H107.523Z" fill="url(#paint14_linear_0_371)"/>
<path fill-rule="evenodd" clip-rule="evenodd" d="M28.7929 101.463C28.7706 102.502 28.7409 103.153 28.7409 103.153C28.7409 103.153 24.7232 103.909 24.0164 105.24C23.3096 106.571 22.335 107.993 22.335 107.993H7.92365C7.42517 106.811 7.44005 105.285 7.56653 104.073L7.91621 102.061V102.039C7.91621 102.039 7.93109 102.039 7.93853 102.039C8.07245 101.971 9.28517 101.351 10.9889 100.999C12.1496 100.752 13.5483 100.632 14.9842 100.894C18.6522 101.552 21.4422 104.312 21.4422 104.312C21.4422 104.312 22.4615 104.312 23.9644 102.974C25.4226 101.687 28.5846 101.485 28.7855 101.47L28.7929 101.463Z" fill="#FFE3E2"/>
<path fill-rule="evenodd" clip-rule="evenodd" d="M107.523 104.081H84.8015C84.9057 103.116 84.9875 102.173 85.0545 101.253C89.7566 102.383 99.3765 101.926 99.3765 101.926C100.173 98.9944 102.695 97.6705 102.695 97.6705L102.814 97.5658C104.964 98.0071 106.549 98.2015 106.549 98.2015C107.881 99.9967 107.523 104.088 107.523 104.088V104.081Z" fill="#C99AB8"/>
<path fill-rule="evenodd" clip-rule="evenodd" d="M28.7929 101.463C28.7706 102.502 28.7408 103.153 28.7408 103.153C28.7408 103.153 24.7232 103.909 24.0164 105.24C23.3096 106.571 22.335 107.993 22.335 107.993L21.4496 104.305C21.4496 104.305 22.4689 104.305 23.9718 102.966C25.43 101.68 28.592 101.478 28.7929 101.463Z" fill="#CC90AC"/>
<g style="mix-blend-mode:soft-light">
<path fill-rule="evenodd" clip-rule="evenodd" d="M98.0225 96.3166C98.0225 96.3166 95.0613 97.1095 92.4127 94.7983C89.764 92.487 87.8519 87.8795 87.8519 87.8795L88.8787 87.7673C89.1688 88.4255 91.3115 93.1303 94.6893 94.9329C95.6937 95.4714 96.8321 95.9352 98.015 96.3166H98.0225Z" fill="#FFEADE"/>
</g>
<g style="mix-blend-mode:soft-light">
<path fill-rule="evenodd" clip-rule="evenodd" d="M27.8257 87.9767C27.8257 87.9767 25.43 96.0025 23.3096 97.1992C21.1818 98.4035 17.618 97.1992 17.618 97.1992C17.7519 97.102 17.8784 96.9973 18.0049 96.8926C22.4243 93.1602 25.2068 87.3709 25.2068 87.3709C26.1666 87.2736 27.0743 87.5728 27.8109 87.9693L27.8257 87.9842V87.9767Z" fill="#FFEADE"/>
</g>
<path fill-rule="evenodd" clip-rule="evenodd" d="M81.7734 72.3291C81.7734 72.3291 80.9327 74.76 81.208 79.4199C81.208 79.4199 78.1204 73.8325 73.9911 69.5766L78.9611 69.0081C78.9611 69.0081 80.8583 70.9753 81.7734 72.3291Z" fill="#301B39"/>
<path fill-rule="evenodd" clip-rule="evenodd" d="M33.1156 74.4234C33.1156 74.4234 34.2911 75.0517 34.3655 80.1006C34.3655 80.1006 38.1004 73.9971 42.929 70.1301C42.929 70.1301 39.8414 68.305 36.6347 70.1301C36.6347 70.1301 33.8224 72.7181 33.1156 74.4234Z" fill="#301B39"/>
</g>
<defs>
<linearGradient id="paint0_linear_0_371" x1="55.7779" y1="71.7756" x2="48.6653" y2="7.99666" gradientUnits="userSpaceOnUse">
<stop offset="0.02" stop-color="#FF8E89"/>
<stop offset="1" stop-color="#FFB3B4"/>
</linearGradient>
<linearGradient id="paint1_linear_0_371" x1="46.0985" y1="71.3717" x2="46.0985" y2="11.8479" gradientUnits="userSpaceOnUse">
<stop stop-color="#BF4263"/>
<stop offset="0.98" stop-color="#FF6A6F"/>
</linearGradient>
<linearGradient id="paint2_linear_0_371" x1="58.0397" y1="50.1966" x2="58.0397" y2="34.1301" gradientUnits="userSpaceOnUse">
<stop stop-color="white"/>
<stop offset="0.98" stop-color="#FBC9CE"/>
</linearGradient>
<linearGradient id="paint3_linear_0_371" x1="86.8847" y1="53.712" x2="86.8847" y2="38.5282" gradientUnits="userSpaceOnUse">
<stop stop-color="white"/>
<stop offset="0.98" stop-color="#FBC9CE"/>
</linearGradient>
<linearGradient id="paint4_linear_0_371" x1="70.6357" y1="65.156" x2="70.6357" y2="53.712" gradientUnits="userSpaceOnUse">
<stop stop-color="#9B1A43"/>
<stop offset="1" stop-color="#731653"/>
</linearGradient>
<linearGradient id="paint5_linear_0_371" x1="62.3028" y1="58.4766" x2="78.9611" y2="58.4766" gradientUnits="userSpaceOnUse">
<stop stop-color="#540068"/>
<stop offset="1" stop-color="#81899A"/>
</linearGradient>
<linearGradient id="paint6_linear_0_371" x1="71.8112" y1="58.4991" x2="71.8112" y2="55.3127" gradientUnits="userSpaceOnUse">
<stop stop-color="white"/>
<stop offset="0.98" stop-color="#FBC9CE"/>
</linearGradient>
<linearGradient id="paint7_linear_0_371" x1="97.7695" y1="59.2171" x2="112.88" y2="59.2171" gradientUnits="userSpaceOnUse">
<stop stop-color="#684A72"/>
<stop offset="0.99" stop-color="#46255E"/>
</linearGradient>
<linearGradient id="paint8_linear_0_371" x1="115.707" y1="83.0177" x2="115.707" y2="66.6595" gradientUnits="userSpaceOnUse">
<stop stop-color="#FFE3CD"/>
<stop offset="0.98" stop-color="#FFB3B1"/>
</linearGradient>
<linearGradient id="paint9_linear_0_371" x1="17.7519" y1="34.9977" x2="17.7519" y2="1.25342e-05" gradientUnits="userSpaceOnUse">
<stop offset="0.02" stop-color="#FFCAC8"/>
<stop offset="1" stop-color="#FFE3CD"/>
</linearGradient>
<linearGradient id="paint10_linear_0_371" x1="3.5117" y1="22.0652" x2="21.9704" y2="22.0652" gradientUnits="userSpaceOnUse">
<stop offset="0.02" stop-color="#E08893"/>
<stop offset="1" stop-color="#FFD1C7"/>
</linearGradient>
<linearGradient id="paint11_linear_0_371" x1="23.3022" y1="80.9907" x2="42.929" y2="80.9907" gradientUnits="userSpaceOnUse">
<stop stop-color="#684A72"/>
<stop offset="0.99" stop-color="#46255E"/>
</linearGradient>
<linearGradient id="paint12_linear_0_371" x1="24.8795" y1="87.4681" x2="30.772" y2="87.4681" gradientUnits="userSpaceOnUse">
<stop offset="0.02" stop-color="#FFB3B1"/>
<stop offset="1" stop-color="#FFE3CD"/>
</linearGradient>
<linearGradient id="paint13_linear_0_371" x1="7.49213" y1="97.6705" x2="29.5369" y2="97.6705" gradientUnits="userSpaceOnUse">
<stop stop-color="#FC4A1F"/>
<stop offset="1" stop-color="#CE1E53"/>
</linearGradient>
<linearGradient id="paint14_linear_0_371" x1="84.8015" y1="95.8828" x2="107.568" y2="95.8828" gradientUnits="userSpaceOnUse">
<stop stop-color="#9B1A43"/>
<stop offset="1" stop-color="#731653"/>
</linearGradient>
<clipPath id="clip0_0_371">
<rect width="125" height="108" fill="white"/>
</clipPath>
</defs>
</svg>
