<svg width="209" height="101" viewBox="0 0 209 101" fill="none" xmlns="http://www.w3.org/2000/svg">
<g clip-path="url(#clip0_0_443)">
<path fill-rule="evenodd" clip-rule="evenodd" d="M12.2906 42.2666C12.2906 42.2666 40.1855 26.9517 107.295 26.9517C174.404 26.9517 197.614 40.6987 197.614 40.6987L175.449 76.4931L43.8919 79.1979L12.2906 42.2666Z" fill="url(#paint0_radial_0_443)"/>
<path fill-rule="evenodd" clip-rule="evenodd" d="M176.391 37.2285C176.391 37.2285 150.327 26.9517 101.172 26.9517C52.0165 26.9517 32.6095 39.2646 32.6095 39.2646C32.6095 39.2646 17.9615 37.2359 8.34695 44.6965C8.34695 44.6965 40.6302 24.3657 103.314 24.3657C171.861 24.3657 200.112 42.2666 200.112 42.2666C200.112 42.2666 191.921 36.1659 176.391 37.2285Z" fill="url(#paint1_radial_0_443)"/>
<path fill-rule="evenodd" clip-rule="evenodd" d="M42.9505 73.8477C42.9505 73.8477 55.7526 61.4085 102.988 61.4085C150.223 61.4085 166.035 73.2458 166.035 73.2458L42.9579 73.8477H42.9505Z" fill="url(#paint2_linear_0_443)"/>
<path style="mix-blend-mode:multiply" opacity="0.8" fill-rule="evenodd" clip-rule="evenodd" d="M162.187 70.5558L138.889 72.4433L58.0284 68.8245L47.0869 71.1057L43.8771 50.9756L53.0617 50.8047C53.0617 50.8047 122.321 48.2707 162.18 70.5558H162.187Z" fill="url(#paint3_linear_0_443)"/>
<path fill-rule="evenodd" clip-rule="evenodd" d="M66.7682 67.4497C66.7682 67.4497 43.5806 54.26 47.7985 17.626C47.7985 17.626 55.8934 9.05077 71.6607 4.23558L74.359 6.7695L77.3909 2.37787C77.3909 2.37787 106.138 -4.97123 128.903 6.18246C128.903 6.18246 142.395 16.6228 146.316 31.1947C146.316 31.1947 142.143 55.0254 126.843 63.8978C126.843 63.8978 93.3287 71.7968 66.7756 67.4497H66.7682Z" fill="url(#paint4_linear_0_443)"/>
<path fill-rule="evenodd" clip-rule="evenodd" d="M146.316 31.2021C143.662 55.1591 126.843 63.9052 126.843 63.9052C94.9892 71.2692 72.6541 68.4158 67.7764 67.6281C67.1166 67.5241 66.7756 67.4572 66.7756 67.4572C68.4806 67.2268 70.2893 66.9593 72.1574 66.6472H72.1871C86.7609 64.2099 105.063 59.4988 111.676 57.7451H111.705C113.299 57.3141 114.204 57.0689 114.204 57.0689C119.326 51.3025 119.259 45.447 119.259 45.447L117.495 40.5204L121.031 42.2295C125.397 38.6181 124.886 30.5185 124.886 30.5185H118.459C122.335 30.1841 126.212 27.9028 126.212 27.9028C131.609 18.3542 128.911 6.18246 128.911 6.18246C143.373 17.4253 146.324 31.1947 146.324 31.1947L146.316 31.2021Z" fill="url(#paint5_linear_0_443)"/>
<path fill-rule="evenodd" clip-rule="evenodd" d="M71.6607 4.23558L75.8787 4.56997L74.359 6.7695C74.359 6.7695 73.1878 21.9284 75.8787 34.3751C75.8787 34.3751 70.8157 18.3467 71.6607 4.22815V4.23558Z" fill="#F47F81"/>
<path fill-rule="evenodd" clip-rule="evenodd" d="M72.0166 45.2687C69.7408 48.8132 62.7282 50.3811 59.3701 48.4342C58.2656 47.7952 57.2574 45.774 56.5977 44.1764C56.1232 43.0171 55.8341 42.0957 55.8341 42.0957C55.8341 42.0957 61.5866 32.3316 65.9306 32.7552C70.2671 33.1787 72.5058 35.4154 72.5058 35.4154C72.5058 35.4154 72.743 36.2476 72.9358 37.4663C73.2693 39.6287 73.4695 43.0023 72.024 45.2613L72.0166 45.2687Z" fill="url(#paint6_linear_0_443)"/>
<path fill-rule="evenodd" clip-rule="evenodd" d="M107.302 37.1988C104.782 41.1149 92.7505 43.4333 89.0366 41.6573C86.2864 40.342 84.8483 37.288 84.1441 35.1256C83.6993 33.7509 83.5511 32.7403 83.5511 32.7403C83.9217 30.8231 85.9677 26.9442 85.9677 26.9442C96.798 24.2245 103.521 25.6513 106.101 26.4835L106.183 26.5132C106.353 26.5727 106.509 26.6247 106.635 26.6767L106.976 26.803L107.08 26.8402C107.235 26.9071 107.317 26.9442 107.317 26.9442C107.317 26.9442 108.051 28.7871 108.332 31.1129C108.57 33.0821 108.481 35.3931 107.317 37.1914L107.302 37.1988Z" fill="url(#paint7_linear_0_443)"/>
<g style="mix-blend-mode:multiply">
<path fill-rule="evenodd" clip-rule="evenodd" d="M108.318 31.1204C92.1278 27.9771 84.1441 35.1256 84.1441 35.1256C83.6993 33.7509 83.5511 32.7403 83.5511 32.7403C83.9217 30.8231 85.9677 26.9442 85.9677 26.9442C96.798 24.2245 103.521 25.6513 106.101 26.4835L106.183 26.5132L106.635 26.6767L106.976 26.803L107.08 26.8402C107.235 26.9071 107.317 26.9442 107.317 26.9442C107.317 26.9442 108.051 28.7871 108.332 31.1129L108.318 31.1204Z" fill="#D9CCDA"/>
</g>
<path fill-rule="evenodd" clip-rule="evenodd" d="M48.5176 38.7816C48.5176 38.7816 51.846 42.5416 54.7593 42.601L55.8341 42.0957C55.8341 42.0957 59.6889 35.7572 66.0788 33.2233C66.0788 33.2233 70.0595 33.305 72.5058 35.4228C72.5058 35.4228 74.448 35.8761 75.8787 34.3825C75.8787 34.3825 78.4436 35.3262 82.958 34.3825C82.958 34.3825 84.4777 29.4856 86.6867 27.1449C86.6867 27.1449 94.967 23.4072 107.235 27.8434L109.511 31.0089C109.511 31.0089 112.654 31.5588 118.451 30.5259C118.451 30.5259 111.794 30.251 110.653 29.6788L107.806 26.1937C107.806 26.1937 99.2665 19.3128 84.7371 25.2203C84.7371 25.2203 82.2612 29.4856 81.3124 32.5322C81.3124 32.5322 78.7178 33.9664 75.4339 32.8666C75.4339 32.8666 74.4035 34.6872 72.3057 34.3825C72.3057 34.3825 70.8601 30.786 66.8127 30.251C66.8127 30.251 59.1403 31.1427 54.5888 40.0299C54.5888 40.0299 52.6837 40.4907 48.2656 37.5109L48.5176 38.789V38.7816Z" fill="#F47F81"/>
<path fill-rule="evenodd" clip-rule="evenodd" d="M83.3583 12.0974C83.3583 12.0974 81.0233 17.2247 82.706 22.2405L84.2257 19.3128C84.2257 19.3128 90.9937 12.7736 94.1516 12.0974C97.3095 11.4212 111.164 16.385 111.92 17.1652C112.676 17.9455 113.818 21.7501 113.818 21.7501L118.874 22.2331L119.318 23.9645L121.468 17.5591L119.192 20.9178C119.192 20.9178 115.212 21.542 114.292 20.9475C113.373 20.3531 112.365 15.8797 112.365 15.8797C112.365 15.8797 99.6964 10.5667 93.9662 11.072C93.9662 11.072 87.984 13.2715 84.0181 16.9869C84.0181 16.9869 83.1804 15.8426 83.3657 12.0825L83.3583 12.0974Z" fill="#F47F81"/>
<path fill-rule="evenodd" clip-rule="evenodd" d="M66.6051 20.6503C66.6051 20.6503 66.8572 22.8721 67.9543 27.5015L65.8119 25.3689L61.8831 24.3732C61.8831 24.3732 54.9817 26.0451 52.5725 28.9208L50.8823 32.3836V34.6649L48.2804 28.1555L50.4005 30.7785C50.4005 30.7785 51.8089 28.6013 52.6837 27.6799C53.551 26.7585 60.5339 22.9613 61.8386 22.9613C62.5651 22.9613 65.6414 23.9719 65.6414 23.9719L66.62 20.6503H66.6051Z" fill="#F47F81"/>
<path fill-rule="evenodd" clip-rule="evenodd" d="M106.546 0.326957C106.546 0.326957 112.721 8.29282 114.07 8.96903C115.419 9.64523 122.669 8.96903 123.685 8.04017C124.693 7.11132 124.923 4.42878 124.923 4.42878L122.269 3.4702C122.269 3.4702 123.774 5.72918 123.225 7.11132C122.676 8.49345 116.413 8.70152 114.204 7.83211C111.994 6.9627 109.86 2.99463 109.963 0.70593L106.546 0.334388V0.326957Z" fill="#F47F81"/>
<path fill-rule="evenodd" clip-rule="evenodd" d="M55.8341 11.4138C55.8341 11.4138 58.9921 16.1101 62.2834 15.7237C65.5747 15.3447 67.7245 11.3097 68.5399 9.23654C69.3627 7.16333 69.6148 4.88949 69.6148 4.88949L66.7682 5.92981C66.7682 5.92981 68.5696 6.59859 67.9469 9.25883C67.5169 11.0794 63.6993 14.9954 60.4153 14.8988C57.5095 14.8171 57.25 10.5444 57.25 10.5444L55.8267 11.4138H55.8341Z" fill="#F47F81"/>
<g style="mix-blend-mode:multiply">
<path fill-rule="evenodd" clip-rule="evenodd" d="M72.9358 37.4737V37.5035C62.3501 37.3474 56.6051 44.1764 56.6051 44.1764C56.1307 43.0171 55.8416 42.0957 55.8416 42.0957C55.8416 42.0957 61.7422 32.7997 66.0862 33.2233C70.4228 33.6469 72.5132 35.4228 72.5132 35.4228C72.5132 35.4228 72.7504 36.2551 72.9432 37.4737H72.9358Z" fill="#D9CCDA"/>
</g>
<path fill-rule="evenodd" clip-rule="evenodd" d="M107.369 42.2666C107.369 42.2666 110.912 42.928 112.55 45.7145L109.393 44.9566C109.393 44.9566 102.061 49.7123 101.112 52.3057C100.163 54.9065 100.668 59.469 100.668 59.469L102.41 60.1229L97.1241 61.4159C97.1241 61.4159 98.9403 59.8108 99.2368 58.7557C99.5333 57.7005 99.7409 53.2568 100.163 51.845C100.586 50.4331 108.169 43.8791 108.169 43.8791L107.369 42.2741V42.2666Z" fill="#F47F81"/>
<path fill-rule="evenodd" clip-rule="evenodd" d="M55.8341 51.035C55.8341 51.035 57.6651 56.8014 60.8749 59.9297L60.356 56.1549C60.356 56.1549 67.9543 58.3247 70.7415 64.9158L69.6222 67.0485L78.0359 65.5846L72.8765 64.6632C72.8765 64.6632 68.7326 58.4213 60.1707 54.8099L55.8416 51.035H55.8341Z" fill="#F47F81"/>
<path fill-rule="evenodd" clip-rule="evenodd" d="M73.173 49.2813C73.173 49.2813 77.643 50.5297 81.127 50.1508C84.6111 49.7718 90.0448 46.413 91.8165 43.5596L89.9855 43.1137C89.9855 43.1137 91.4384 42.4152 95.1078 43.1137L92.9136 43.5373C92.9136 43.5373 87.9025 50.9533 82.6245 51.8376C77.3539 52.7218 73.1804 49.2813 73.1804 49.2813H73.173Z" fill="url(#paint8_linear_0_443)"/>
<path style="mix-blend-mode:multiply" opacity="0.8" fill-rule="evenodd" clip-rule="evenodd" d="M126.843 63.9052C94.9892 71.2692 72.6541 68.4158 67.7764 67.6281L72.1574 66.6472H72.1871C86.7609 64.2099 105.063 59.4987 111.676 57.7451H111.705C111.705 57.7451 122.958 59.5062 126.85 63.9127L126.843 63.9052Z" fill="url(#paint9_linear_0_443)"/>
<path d="M98.4733 39.0937C101.384 39.0937 103.744 36.7282 103.744 33.8103C103.744 30.8924 101.384 28.527 98.4733 28.527C95.5624 28.527 93.2027 30.8924 93.2027 33.8103C93.2027 36.7282 95.5624 39.0937 98.4733 39.0937Z" fill="#37193E"/>
<path fill-rule="evenodd" clip-rule="evenodd" d="M73.173 41.3155C73.173 44.2507 71.2308 46.636 68.8364 46.636C66.442 46.636 64.4999 44.2507 64.4999 41.3155C64.4999 38.3803 66.442 35.995 68.8364 35.995C71.2308 35.995 73.173 38.3803 73.173 41.3155Z" fill="#37193E"/>
<path fill-rule="evenodd" clip-rule="evenodd" d="M138.889 16.333V20.7692C138.889 20.7692 133.544 26.8848 132.536 29.7605C131.528 32.6363 129 44.9194 129 44.9194L126.843 44.1764L132.869 49.2739L130.749 45.7071C130.749 45.7071 131.439 33.3868 133.544 30.0057C135.649 26.6247 141.72 20.7618 141.72 20.7618L138.896 16.3256L138.889 16.333Z" fill="#CA4C66"/>
<path fill-rule="evenodd" clip-rule="evenodd" d="M87.1167 40.2975C87.1167 40.2975 98.1768 35.7721 107.302 37.1988C107.302 37.1988 105.671 40.9514 97.1167 42.2592C88.5622 43.5745 87.1167 40.29 87.1167 40.29V40.2975Z" fill="#F47F81"/>
<path fill-rule="evenodd" clip-rule="evenodd" d="M60.4598 48.9098C60.4598 48.9098 65.8861 45.1647 72.5651 44.1838C72.5651 44.7634 69.2145 51.5552 60.4598 48.9098Z" fill="#F47F81"/>
<path fill-rule="evenodd" clip-rule="evenodd" d="M83.3583 33.2233C83.3583 33.2233 85.8268 28.2818 90.5415 26.7585C95.2635 25.2351 102.469 26.216 107.235 27.8359C107.235 27.8359 97.6579 22.7978 86.5237 26.6916C86.5237 26.6916 83.7512 29.5748 83.3509 33.2159L83.3583 33.2233Z" fill="#CA4963"/>
<path fill-rule="evenodd" clip-rule="evenodd" d="M72.5058 35.4228C72.5058 35.4228 69.5851 34.0184 66.1085 34.3825C62.6318 34.7466 55.8341 42.1032 55.8341 42.1032C55.8341 42.1032 58.4287 35.133 65.9306 32.7626C65.9306 32.7626 69.8001 32.7403 72.5058 35.4228Z" fill="#CA4963"/>
<path fill-rule="evenodd" clip-rule="evenodd" d="M47.465 31.1427C47.465 31.1427 33.1358 34.2785 32.6243 36.9239C32.1202 39.5692 41.9794 47.3939 41.9794 47.3939C41.9794 47.3939 43.5583 46.0266 45.0113 45.395C45.0113 45.395 39.0587 38.8039 39.3775 37.8824C39.6962 36.961 48.0358 36.1882 48.0358 36.1882L47.4575 31.1427H47.465Z" fill="url(#paint10_linear_0_443)"/>
<path fill-rule="evenodd" clip-rule="evenodd" d="M41.8904 46.3685C41.8904 46.3685 40.2374 48.8058 40.1929 50.5149C40.1929 50.5149 41.972 53.3386 42.4168 54.7356C42.8615 56.1326 44.181 61.1187 44.181 61.1187H45.9972C45.9972 61.1187 46.3308 59.0455 45.5228 55.2483C45.5228 55.2483 48.3249 58.8003 49.6147 62.7312L51.6755 62.7906L52.528 63.021C52.528 63.021 53.6622 62.7683 54.3367 61.7949C54.3367 61.7949 53.8845 56.3927 51.6014 53.1157C51.6014 53.1157 53.1729 55.9022 55.0187 59.0975C55.0187 59.0975 56.101 59.3427 56.8645 57.7376C56.8645 57.7376 55.8564 54.5349 53.0914 50.8121C49.8297 46.4279 44.6925 44.9417 44.6925 44.9417C44.6925 44.9417 42.9653 44.7485 41.9127 46.3759L41.8904 46.3685Z" fill="url(#paint11_linear_0_443)"/>
<path fill-rule="evenodd" clip-rule="evenodd" d="M111.698 57.7302C111.698 57.7302 111.09 61.1187 115.708 60.9923C115.708 60.9923 126.123 51.845 131.579 51.845C134.997 51.845 142.202 65.1833 142.202 65.1833L146.309 64.6112C146.309 64.6112 137.962 47.8769 134.107 46.2273C130.252 44.5776 114.893 53.9033 111.698 57.7376V57.7302Z" fill="#301B39"/>
<path fill-rule="evenodd" clip-rule="evenodd" d="M140.023 61.4085C140.023 61.4085 141.016 59.8331 144.026 59.9223C144.026 59.9223 145.071 63.8607 151.209 64.4923C157.339 65.1239 157.324 65.3245 157.324 65.3245C157.324 65.3245 158.985 67.0931 158.036 69.835H141.831L140.03 61.401L140.023 61.4085Z" fill="url(#paint12_linear_0_443)"/>
<path fill-rule="evenodd" clip-rule="evenodd" d="M134.893 36.9164C134.893 36.9164 136.049 33.6989 140.023 35.4154C140.023 35.4154 151.602 60.5019 155.516 66.5135L151.928 67.0336C151.928 67.0336 140.127 48.3005 134.9 36.9164H134.893Z" fill="url(#paint13_linear_0_443)"/>
<path fill-rule="evenodd" clip-rule="evenodd" d="M150.579 64.8787C150.579 64.8787 149.66 65.971 149.4 66.7735C149.141 67.5761 145.834 69.2034 145.834 69.2034L146.783 70.0282C146.783 70.0282 148.637 70.11 149.015 69.8202C149.393 69.523 149.437 68.8319 149.437 68.8319L151.105 68.1037C151.105 68.1037 152.543 69.7384 154.159 69.9168C155.775 70.0951 162.187 70.5558 162.187 70.5558C162.187 70.5558 162.158 69.0771 161.394 68.7576C161.394 68.7576 156.116 66.9593 154.345 64.574L150.579 64.8787Z" fill="#CE5870"/>
<path fill-rule="evenodd" clip-rule="evenodd" d="M138.889 59.5954C138.889 59.5954 139.637 57.433 142.447 57.3884L144.026 59.9223C144.026 59.9223 142.217 59.5879 140.023 61.4085L138.889 59.5954Z" fill="#C99AB8"/>
<path fill-rule="evenodd" clip-rule="evenodd" d="M52.5132 63.0061C52.5132 63.0061 51.594 57.8417 49.7407 54.2674C49.7407 54.2674 51.4457 58.6368 51.6607 62.7832L52.5132 63.0135V63.0061Z" fill="#CE5870"/>
<path fill-rule="evenodd" clip-rule="evenodd" d="M119.192 20.9253L117.591 22.1142L118.874 22.2405L119.318 23.9719L121.468 17.5665L119.192 20.9253Z" fill="#CA4963"/>
<path fill-rule="evenodd" clip-rule="evenodd" d="M83.3583 12.0974C83.3583 12.0974 81.09 17.143 82.706 22.2405L84.2257 19.3128L84.7371 16.3553L84.0107 17.0018C84.0107 17.0018 82.8765 14.6165 83.3583 12.0974Z" fill="#CA4963"/>
<path fill-rule="evenodd" clip-rule="evenodd" d="M48.2656 28.1555L50.8749 34.6574V32.3762L50.3931 30.7711L48.2656 28.1555Z" fill="#CA4963"/>
<path fill-rule="evenodd" clip-rule="evenodd" d="M66.6051 20.6503L65.6785 23.7936L65.8045 25.3615L67.9469 27.4941L66.6051 20.6503Z" fill="#CA4963"/>
<path fill-rule="evenodd" clip-rule="evenodd" d="M60.3486 56.1549L60.8675 59.9297C60.8675 59.9297 56.9683 56.7419 55.8267 51.035L60.1559 54.8099L61.2233 56.4595L60.3412 56.1549H60.3486Z" fill="#CA4963"/>
<path fill-rule="evenodd" clip-rule="evenodd" d="M107.369 42.2666C107.369 42.2666 110.112 42.5639 112.55 45.7145L109.393 44.9566L106.724 45.1498L108.169 43.8791L107.369 42.2741V42.2666Z" fill="#CA4963"/>
<path fill-rule="evenodd" clip-rule="evenodd" d="M144.026 25.0271L143.536 30.4962L144.945 38.6701L145.256 37.4292C145.256 37.4292 143.47 31.0015 145.071 27.3232L144.033 25.0271H144.026Z" fill="#CA4C66"/>
<path fill-rule="evenodd" clip-rule="evenodd" d="M42.5354 32.3762C42.5354 32.3762 44.8408 33.9812 46.1084 36.3963L48.0432 36.1882L47.465 31.1427L42.5354 32.3762Z" fill="#301B39"/>
<path fill-rule="evenodd" clip-rule="evenodd" d="M142.306 50.9756L150.208 56.6899L140.023 35.4228C140.023 35.4228 136.175 33.0747 134.893 36.9239L142.306 50.983V50.9756Z" fill="#301B39"/>
<path fill-rule="evenodd" clip-rule="evenodd" d="M86.027 68.869C86.027 68.869 83.4844 64.9307 88.8439 64.2991C88.8439 64.2991 102.751 66.5729 130.438 65.4657V69.5007C130.438 69.5007 108.666 71.6333 86.0196 68.869H86.027Z" fill="url(#paint14_linear_0_443)"/>
<path fill-rule="evenodd" clip-rule="evenodd" d="M154.463 70.2883L150.03 71.0611L149.215 70.9943C149.118 70.9943 149.007 70.972 148.889 70.972L148.688 70.9497C148.473 70.9274 148.244 70.9125 147.992 70.8902L147.732 70.8679C147.569 70.8531 147.399 70.8382 147.213 70.8233L146.42 70.7639C141.327 70.3626 132.439 69.7087 130.445 69.8722C127.606 70.11 127.295 69.9911 127.295 69.9911C127.295 69.9911 128.095 68.23 127.295 65.5474C127.295 65.5474 130.92 65.332 131.891 65.0124C132.736 64.7301 133.922 63.8755 135.812 63.1324C136.109 63.021 136.405 62.9244 136.702 62.8649C136.702 62.8649 138.725 62.7609 141.446 62.4042C142.936 62.211 144.648 61.676 146.42 61.2004C147.895 60.7991 149.407 60.435 150.853 60.331L154.463 60.918C154.463 60.918 156.124 65.3542 154.463 70.2883Z" fill="url(#paint15_linear_0_443)"/>
<path fill-rule="evenodd" clip-rule="evenodd" d="M154.463 70.2883L150.03 71.0611L149.215 70.9943L148.889 70.972L148.688 70.9497L147.992 70.8902L147.732 70.8679L147.213 70.8233L146.42 70.7639C143.9 67.3977 146.316 61.4531 146.42 61.2004C146.279 61.2599 143.915 62.211 141.253 62.7535C138.503 63.3182 135.805 63.1399 135.805 63.1399L135.82 63.125C136.116 63.0135 136.413 62.9169 136.709 62.8575C136.709 62.8575 138.733 62.7535 141.453 62.3968C142.943 62.2036 144.656 61.6686 146.428 61.193C147.903 60.7917 149.415 60.4276 150.86 60.3236L154.471 60.9106C154.471 60.9106 156.131 65.3468 154.471 70.2809L154.463 70.2883Z" fill="#FFE3E2"/>
<path fill-rule="evenodd" clip-rule="evenodd" d="M150.853 60.331C150.853 60.331 152.217 63.6452 150.03 71.0611L154.463 70.2883C154.463 70.2883 156.472 65.6589 154.463 60.918L150.853 60.331Z" fill="#CC90AC"/>
<path fill-rule="evenodd" clip-rule="evenodd" d="M123.499 65.6218C123.499 65.6218 124.448 66.6992 124.604 69.9242L127.384 69.7533C127.384 69.7533 128.436 68.0071 127.295 65.5623L123.499 65.6292V65.6218Z" fill="url(#paint16_linear_0_443)"/>
<g style="mix-blend-mode:soft-light">
<path fill-rule="evenodd" clip-rule="evenodd" d="M127.569 66.2682L138.963 65.5475C138.963 65.5475 140.972 66.8107 139.971 69.9168C139.971 69.9168 135.175 69.0102 127.576 69.3223C127.576 69.3223 128.258 67.8807 127.576 66.2682H127.569Z" fill="#FFEADE"/>
</g>
<path fill-rule="evenodd" clip-rule="evenodd" d="M104.211 65.5549C104.211 65.5549 105.731 69.0399 109.978 70.2883C109.978 70.2883 94.0923 70.3552 86.027 68.869C86.027 68.869 83.1063 64.8935 88.8439 64.2991C88.8439 64.2991 99.8743 65.4137 104.203 65.5475L104.211 65.5549Z" fill="#301B39"/>
<g style="mix-blend-mode:soft-light" opacity="0.7">
<path fill-rule="evenodd" clip-rule="evenodd" d="M89.7928 19.1047C89.6371 20.524 98.0656 21.5643 102.343 20.8064C106.62 20.0484 106.665 17.8563 106.487 17.2396C106.309 16.6228 101.283 14.0517 96.6275 14.0814C91.9722 14.1186 89.8891 18.1833 89.7853 19.0973L89.7928 19.1047Z" fill="white"/>
</g>
<g style="mix-blend-mode:soft-light" opacity="0.7">
<path fill-rule="evenodd" clip-rule="evenodd" d="M55.1892 31.1798C55.3894 31.9898 60.2226 30.8677 62.4242 29.597C64.6259 28.3264 64.2108 27.1077 63.9884 26.803C63.766 26.4984 60.4895 26.0971 57.9468 27.0483C55.3968 27.9994 55.0632 30.6522 55.1892 31.1798Z" fill="white"/>
</g>
<g style="mix-blend-mode:soft-light" opacity="0.7">
<path fill-rule="evenodd" clip-rule="evenodd" d="M61.6533 10.158C61.7645 10.6261 63.766 10.641 65.041 9.92017C66.746 8.96159 66.8572 7.80981 66.7311 7.63147C66.6051 7.45313 64.7148 7.22278 63.2397 7.77266C61.7719 8.32254 61.5792 9.8533 61.6459 10.158H61.6533Z" fill="white"/>
</g>
<g style="mix-blend-mode:soft-light" opacity="0.7">
<path fill-rule="evenodd" clip-rule="evenodd" d="M53.8697 17.5739C52.1499 19.9667 52.0387 22.6492 59.1848 20.6429C66.3308 18.6366 68.2953 21.7055 69.6222 21.3414C70.9491 20.9847 69.6815 12.1271 68.8661 12.09C68.0506 12.0528 66.0862 15.8351 63.4917 16.7343C60.8972 17.626 55.6488 15.1069 53.8771 17.5739H53.8697Z" fill="white"/>
</g>
<g style="mix-blend-mode:soft-light" opacity="0.7">
<path fill-rule="evenodd" clip-rule="evenodd" d="M85.5526 2.54878C79.9484 4.82262 82.2612 10.9976 86.7535 11.0497C91.2457 11.1017 93.7364 7.74294 101.787 8.44144C109.837 9.13993 111.957 15.8648 115.731 16.3404C119.504 16.8086 120.201 13.539 120.075 12.0974C119.949 10.6633 111.794 10.2769 106.546 6.91811C101.298 3.55937 92.8914 -0.430989 85.5526 2.54135V2.54878Z" fill="white"/>
</g>
<g style="mix-blend-mode:soft-light" opacity="0.5">
<path fill-rule="evenodd" clip-rule="evenodd" d="M68.8216 54.2674C66.6125 55.709 71.5792 62.8724 80.6007 63.0061C89.6223 63.1473 95.434 60.762 97.1241 57.7228C98.8143 54.6836 99.1553 51.4734 101.179 47.9215C103.203 44.3696 96.3754 43.1286 93.6326 47.3865C90.8899 51.6444 89.5407 55.7759 81.7052 56.036C73.8624 56.2961 72.2019 52.053 68.829 54.26L68.8216 54.2674Z" fill="white"/>
</g>
<g style="mix-blend-mode:soft-light" opacity="0.7">
<path fill-rule="evenodd" clip-rule="evenodd" d="M102.98 53.2568C103.062 51.7632 106.524 47.6168 109.259 47.3939C112.002 47.171 110.86 51.9044 109.259 53.2568C107.658 54.6093 102.943 53.9108 102.98 53.2568Z" fill="white"/>
</g>
<g style="mix-blend-mode:soft-light" opacity="0.7">
<path fill-rule="evenodd" clip-rule="evenodd" d="M86.8646 50.9681C86.8943 50.5 87.9692 49.207 88.8291 49.1402C89.6816 49.0733 89.3332 50.552 88.8291 50.9681C88.325 51.3917 86.8572 51.1762 86.8646 50.9681Z" fill="white"/>
</g>
<path fill-rule="evenodd" clip-rule="evenodd" d="M95.1004 34.7615C95.1004 35.4525 94.5444 36.0099 93.855 36.0099C93.1656 36.0099 92.6097 35.4525 92.6097 34.7615C92.6097 34.0704 93.1656 33.5131 93.855 33.5131C94.5444 33.5131 95.1004 34.0704 95.1004 34.7615Z" fill="white"/>
<path fill-rule="evenodd" clip-rule="evenodd" d="M65.975 42.5713C65.975 43.2624 65.4191 43.8197 64.7297 43.8197C64.0403 43.8197 63.4843 43.2624 63.4843 42.5713C63.4843 41.8802 64.0403 41.3229 64.7297 41.3229C65.4191 41.3229 65.975 41.8802 65.975 42.5713Z" fill="white"/>
<path fill-rule="evenodd" clip-rule="evenodd" d="M82.706 4.94894C83.8105 2.8683 88.1026 1.4936 90.3932 2.42245C92.6838 3.35131 88.4436 5.95953 86.2271 6.30135C84.0107 6.64317 82.7134 4.95637 82.7134 4.95637L82.706 4.94894Z" fill="white"/>
<path fill-rule="evenodd" clip-rule="evenodd" d="M53.6399 18.2204C54.2255 17.1281 56.4791 16.3999 57.6874 16.8903C58.8957 17.3807 56.657 18.7554 55.4932 18.9338C54.3293 19.1121 53.6399 18.2204 53.6399 18.2204Z" fill="white"/>
<path fill-rule="evenodd" clip-rule="evenodd" d="M115.701 33.8921C116.287 32.7997 118.54 32.0715 119.748 32.5619C120.949 33.0524 118.718 34.4271 117.554 34.6054C116.39 34.7838 115.701 33.8921 115.701 33.8921Z" fill="white"/>
<path fill-rule="evenodd" clip-rule="evenodd" d="M75.8787 4.56997L71.6607 4.23558C71.6607 4.23558 71.8757 18.7183 74.448 24.0685C74.448 24.0685 72.9358 14.0889 74.359 6.7695L75.8787 4.56997Z" fill="#CA4963"/>
<path fill-rule="evenodd" clip-rule="evenodd" d="M31.0453 89.3856L45.6487 89.1329C45.6487 89.1329 39.4144 48.4788 32.602 39.2646C32.602 39.2646 7.07186 35.1925 -0.00748444 56.6899C-0.00748444 56.6899 2.52032 65.4806 12.0089 67.0411C12.0089 67.0411 19.1327 67.0485 23.8547 63.0135L31.0453 89.3856Z" fill="url(#paint17_linear_0_443)"/>
<path fill-rule="evenodd" clip-rule="evenodd" d="M42.9505 73.8477L168.703 73.2458L163.981 86.9706L45.6562 89.1329L42.9505 73.8477Z" fill="url(#paint18_radial_0_443)"/>
<path fill-rule="evenodd" clip-rule="evenodd" d="M33.6399 89.2518L35.0335 91.5405L172.743 90.3962L175.457 86.7253L33.6399 89.2518Z" fill="url(#paint19_radial_0_443)"/>
<path fill-rule="evenodd" clip-rule="evenodd" d="M23.8622 63.0061C23.8622 63.0061 28.5768 57.6559 27.9541 48.3079C27.9541 48.3079 18.473 46.0564 12.6539 54.0296L11.3863 52.432L13.41 56.9946L13.6027 54.2674C13.6027 54.2674 18.221 47.6763 26.7532 49.5117C26.7532 49.5117 28.0579 55.9691 23.8622 63.0061Z" fill="url(#paint20_linear_0_443)"/>
<path fill-rule="evenodd" clip-rule="evenodd" d="M178.044 87.0003L163.344 86.9408C163.344 86.9408 169.578 46.4353 176.391 37.2285C176.391 37.2285 201.921 33.1564 209 54.6538C209 54.6538 206.472 63.4445 196.984 65.005C196.984 65.005 189.86 65.0124 185.138 60.9775L178.044 87.0077V87.0003Z" fill="url(#paint21_linear_0_443)"/>
<path fill-rule="evenodd" clip-rule="evenodd" d="M185.138 60.9701C185.138 60.9701 180.423 55.6198 181.046 46.2719C181.046 46.2719 190.527 44.0203 196.346 51.9936L197.614 50.396L195.59 54.9585L195.397 52.2314C195.397 52.2314 190.779 45.6402 182.247 47.4756C182.247 47.4756 180.942 53.9331 185.138 60.9701Z" fill="url(#paint22_linear_0_443)"/>
<path fill-rule="evenodd" clip-rule="evenodd" d="M45.6562 89.1329L47.0869 89.0512L44.2774 72.4433L42.9505 73.8477L45.6562 89.1329Z" fill="#575FBE"/>
<path fill-rule="evenodd" clip-rule="evenodd" d="M164.307 71.0611L161.995 87.0374L163.344 86.9408L166.027 71.8414L164.307 71.0611Z" fill="#575FBE"/>
<path fill-rule="evenodd" clip-rule="evenodd" d="M37.9393 91.5108L35.1595 101H37.9393L47.0869 91.5405L37.9393 91.5108Z" fill="url(#paint23_linear_0_443)"/>
<path fill-rule="evenodd" clip-rule="evenodd" d="M172.743 90.3962L174.663 101H171.883L164.011 90.3962H172.743Z" fill="url(#paint24_linear_0_443)"/>
<path fill-rule="evenodd" clip-rule="evenodd" d="M61.5495 91.3176L60.4598 97.0319H63.4917L67.7764 91.2656L61.5495 91.3176Z" fill="#6A2C45"/>
<path fill-rule="evenodd" clip-rule="evenodd" d="M145.931 90.6191L147.191 97.0319H144.159L139.304 90.6711L145.931 90.6191Z" fill="#6A2C45"/>
<path style="mix-blend-mode:multiply" opacity="0.8" fill-rule="evenodd" clip-rule="evenodd" d="M181.631 73.8477C181.631 73.8477 177.873 53.3163 180.275 45.7071C180.275 45.7071 189.252 42.705 196.339 49.2739L200.119 48.241L196.435 53.0636L195.583 59.3873L194.004 51.8227C194.004 51.8227 191.001 47.2156 184.426 48.1593L183.336 48.6794C183.336 48.6794 181.313 54.1337 185.153 60.9626L181.646 73.8403L181.631 73.8477Z" fill="url(#paint25_linear_0_443)"/>
<path style="mix-blend-mode:multiply" opacity="0.8" fill-rule="evenodd" clip-rule="evenodd" d="M27.3389 75.8169C27.3389 75.8169 31.0972 55.2855 28.6954 47.6763C28.6954 47.6763 19.7184 44.6742 12.6316 51.2431L8.85103 50.2102L12.5353 55.0328L13.3877 61.3565L14.9667 53.7919C14.9667 53.7919 17.9689 49.1847 24.5442 50.1285L25.6339 50.6486C25.6339 50.6486 27.6576 56.0954 23.8177 62.9318L27.324 75.8094L27.3389 75.8169Z" fill="url(#paint26_linear_0_443)"/>
</g>
<defs>
<radialGradient id="paint0_radial_0_443" cx="0" cy="0" r="1" gradientUnits="userSpaceOnUse" gradientTransform="translate(104.952 53.0711) scale(68.0655 68.23)">
<stop stop-color="#5770C5"/>
<stop offset="0.98" stop-color="#3E5BB8"/>
</radialGradient>
<radialGradient id="paint1_radial_0_443" cx="0" cy="0" r="1" gradientUnits="userSpaceOnUse" gradientTransform="translate(104.233 34.5311) scale(68.1767 68.3415)">
<stop stop-color="#97BAF9"/>
<stop offset="0.98" stop-color="#AFD2FF"/>
</radialGradient>
<linearGradient id="paint2_linear_0_443" x1="42.9505" y1="67.6281" x2="166.027" y2="67.6281" gradientUnits="userSpaceOnUse">
<stop offset="0.03" stop-color="#627AED"/>
<stop offset="1" stop-color="#5770C5"/>
</linearGradient>
<linearGradient id="paint3_linear_0_443" x1="43.8845" y1="61.5794" x2="162.187" y2="61.5794" gradientUnits="userSpaceOnUse">
<stop offset="0.02" stop-color="#9C88CC"/>
<stop offset="1" stop-color="#BFD1EC"/>
</linearGradient>
<linearGradient id="paint4_linear_0_443" x1="100.942" y1="67.9699" x2="93.3817" y2="0.00399795" gradientUnits="userSpaceOnUse">
<stop offset="0.02" stop-color="#FF8E89"/>
<stop offset="1" stop-color="#FFB3B4"/>
</linearGradient>
<linearGradient id="paint5_linear_0_443" x1="106.546" y1="68.8319" x2="106.546" y2="6.18246" gradientUnits="userSpaceOnUse">
<stop stop-color="#BF4263"/>
<stop offset="0.98" stop-color="#FF6A6F"/>
</linearGradient>
<linearGradient id="paint6_linear_0_443" x1="64.4999" y1="49.2813" x2="64.4999" y2="32.7477" gradientUnits="userSpaceOnUse">
<stop stop-color="white"/>
<stop offset="0.98" stop-color="#FBC9CE"/>
</linearGradient>
<linearGradient id="paint7_linear_0_443" x1="95.9825" y1="42.2666" x2="95.9825" y2="25.3615" gradientUnits="userSpaceOnUse">
<stop stop-color="white"/>
<stop offset="0.98" stop-color="#FBC9CE"/>
</linearGradient>
<linearGradient id="paint8_linear_0_443" x1="84.1367" y1="51.9787" x2="84.1367" y2="42.8017" gradientUnits="userSpaceOnUse">
<stop stop-color="#9B1A43"/>
<stop offset="1" stop-color="#731653"/>
</linearGradient>
<linearGradient id="paint9_linear_0_443" x1="67.7764" y1="63.281" x2="126.843" y2="63.281" gradientUnits="userSpaceOnUse">
<stop offset="0.02" stop-color="#E08893"/>
<stop offset="1" stop-color="#FFD1C7"/>
</linearGradient>
<linearGradient id="paint10_linear_0_443" x1="32.6095" y1="39.2646" x2="48.0432" y2="39.2646" gradientUnits="userSpaceOnUse">
<stop stop-color="#684A72"/>
<stop offset="0.99" stop-color="#46255E"/>
</linearGradient>
<linearGradient id="paint11_linear_0_443" x1="48.5176" y1="63.0061" x2="48.5176" y2="44.9194" gradientUnits="userSpaceOnUse">
<stop offset="0.02" stop-color="#FFB3B1"/>
<stop offset="1" stop-color="#FFE3CD"/>
</linearGradient>
<linearGradient id="paint12_linear_0_443" x1="140.023" y1="64.8787" x2="158.325" y2="64.8787" gradientUnits="userSpaceOnUse">
<stop stop-color="#9B1A43"/>
<stop offset="1" stop-color="#731653"/>
</linearGradient>
<linearGradient id="paint13_linear_0_443" x1="134.893" y1="50.9756" x2="155.516" y2="50.9756" gradientUnits="userSpaceOnUse">
<stop stop-color="#46255E"/>
<stop offset="1" stop-color="#684A72"/>
</linearGradient>
<linearGradient id="paint14_linear_0_443" x1="85.4265" y1="67.2937" x2="130.445" y2="67.2937" gradientUnits="userSpaceOnUse">
<stop stop-color="#46255E"/>
<stop offset="1" stop-color="#684A72"/>
</linearGradient>
<linearGradient id="paint15_linear_0_443" x1="127.295" y1="65.6961" x2="155.197" y2="65.6961" gradientUnits="userSpaceOnUse">
<stop stop-color="#FC4A1F"/>
<stop offset="1" stop-color="#CE1E53"/>
</linearGradient>
<linearGradient id="paint16_linear_0_443" x1="123.499" y1="67.7321" x2="127.828" y2="67.7321" gradientUnits="userSpaceOnUse">
<stop offset="0.02" stop-color="#FFB3B1"/>
<stop offset="1" stop-color="#FFE3CD"/>
</linearGradient>
<linearGradient id="paint17_linear_0_443" x1="24.8777" y1="91.4439" x2="19.1127" y2="39.6615" gradientUnits="userSpaceOnUse">
<stop offset="0.02" stop-color="#7C90F0"/>
<stop offset="1" stop-color="#7DA9F8"/>
</linearGradient>
<radialGradient id="paint18_radial_0_443" cx="0" cy="0" r="1" gradientUnits="userSpaceOnUse" gradientTransform="translate(105.827 81.1894) scale(44.8111 44.9194)">
<stop stop-color="#7DA9F8"/>
<stop offset="0.98" stop-color="#7C90F0"/>
</radialGradient>
<radialGradient id="paint19_radial_0_443" cx="0" cy="0" r="1" gradientUnits="userSpaceOnUse" gradientTransform="translate(104.544 89.1329) scale(50.1707 50.292)">
<stop stop-color="#CC5E42"/>
<stop offset="1" stop-color="#8C312E"/>
</radialGradient>
<linearGradient id="paint20_linear_0_443" x1="21.0972" y1="63.3182" x2="19.4511" y2="48.5094" gradientUnits="userSpaceOnUse">
<stop offset="0.02" stop-color="#5B74EC"/>
<stop offset="1" stop-color="#5770C5"/>
</linearGradient>
<linearGradient id="paint21_linear_0_443" x1="184.13" y1="89.2518" x2="189.872" y2="37.618" gradientUnits="userSpaceOnUse">
<stop offset="0.02" stop-color="#7C90F0"/>
<stop offset="1" stop-color="#7DA9F8"/>
</linearGradient>
<linearGradient id="paint22_linear_0_443" x1="187.903" y1="61.2747" x2="189.549" y2="46.4734" gradientUnits="userSpaceOnUse">
<stop offset="0.02" stop-color="#5B74EC"/>
<stop offset="1" stop-color="#5770C5"/>
</linearGradient>
<linearGradient id="paint23_linear_0_443" x1="41.1195" y1="101" x2="41.1195" y2="91.5108" gradientUnits="userSpaceOnUse">
<stop stop-color="#CC5E42"/>
<stop offset="1" stop-color="#8C312E"/>
</linearGradient>
<linearGradient id="paint24_linear_0_443" x1="169.333" y1="101" x2="169.333" y2="90.3962" gradientUnits="userSpaceOnUse">
<stop stop-color="#CC5E42"/>
<stop offset="1" stop-color="#8C312E"/>
</linearGradient>
<linearGradient id="paint25_linear_0_443" x1="179.467" y1="59.4393" x2="200.112" y2="59.4393" gradientUnits="userSpaceOnUse">
<stop offset="0.02" stop-color="#9C88CC"/>
<stop offset="1" stop-color="#BFD1EC"/>
</linearGradient>
<linearGradient id="paint26_linear_0_443" x1="29.496" y1="61.4085" x2="8.85103" y2="61.4085" gradientUnits="userSpaceOnUse">
<stop offset="0.02" stop-color="#9C88CC"/>
<stop offset="1" stop-color="#BFD1EC"/>
</linearGradient>
<clipPath id="clip0_0_443">
<rect width="209" height="101" fill="white"/>
</clipPath>
</defs>
</svg>
