<svg width="131" height="135" viewBox="0 0 131 135" fill="none" xmlns="http://www.w3.org/2000/svg">
<g clip-path="url(#clip0_0_942)">
<path opacity="0.5" fill-rule="evenodd" clip-rule="evenodd" d="M65.4405 69.8929C65.4405 69.8929 40.6188 25.1629 66.1542 0C66.1542 0 92.1208 22.993 65.4405 69.8929Z" fill="url(#paint0_linear_0_942)"/>
<path opacity="0.5" fill-rule="evenodd" clip-rule="evenodd" d="M65.7974 70.1382C65.7974 70.1382 64.1768 24.836 99.7108 10.7533C99.7108 10.7533 112.728 37.841 65.7974 70.1382Z" fill="url(#paint1_linear_0_942)"/>
<path opacity="0.5" fill-rule="evenodd" clip-rule="evenodd" d="M65.9312 70.2645C65.9312 70.2645 83.5941 33.2781 120.013 34.4077C120.013 34.4077 119.79 60.7522 65.9312 70.2645Z" fill="url(#paint2_linear_0_942)"/>
<path opacity="0.5" fill-rule="evenodd" clip-rule="evenodd" d="M66.4887 70.2645C66.4887 70.2645 48.8258 33.2781 12.4072 34.4077C12.4072 34.4077 12.6302 60.7522 66.4887 70.2645Z" fill="url(#paint3_linear_0_942)"/>
<path opacity="0.5" fill-rule="evenodd" clip-rule="evenodd" d="M65.946 70.0564C65.946 70.0564 19.9303 40.5981 29.7727 11.4147C29.7727 11.4147 65.3662 22.339 65.946 70.049V70.0564Z" fill="url(#paint4_linear_0_942)"/>
<path fill-rule="evenodd" clip-rule="evenodd" d="M104.848 107.831C104.848 107.831 90.0318 114.37 65.277 114.37C40.5221 114.37 28.3157 110.387 28.3157 110.387C28.3157 110.387 18.0346 121.408 8.46721 125.569V129.731C8.46721 129.731 27.104 134.993 65.2844 134.993C103.465 134.993 120.882 130.073 120.882 130.073V125.569C120.882 125.569 110.163 117.982 104.855 107.823L104.848 107.831Z" fill="url(#paint5_linear_0_942)"/>
<g style="mix-blend-mode:multiply" opacity="0.3">
<path fill-rule="evenodd" clip-rule="evenodd" d="M8.45976 125.577C8.45976 125.577 26.6802 131.856 65.5966 131.856C104.513 131.856 120.875 125.577 120.875 125.577V130.08C120.875 130.08 107.353 135 65.277 135C23.2012 135 8.45976 129.739 8.45976 129.739V125.577Z" fill="#A772B3"/>
</g>
<g style="mix-blend-mode:multiply" opacity="0.72">
<path fill-rule="evenodd" clip-rule="evenodd" d="M37.5114 112.557C37.5114 112.557 41.6893 131.173 64.1991 131.173C88.8796 131.173 91.1767 111.814 91.1767 111.814C91.1767 111.814 75.1269 114.363 63.0691 114.363C51.0114 114.363 37.5114 112.557 37.5114 112.557Z" fill="#A772B3"/>
</g>
<path fill-rule="evenodd" clip-rule="evenodd" d="M130.502 88.5756H129.944L130.316 87.0596C130.316 85.1126 129.417 84.3694 129.417 84.3694L128.517 84.4958C128.391 83.7155 127.283 82.6676 127.283 82.6676C125.915 83.1953 125.112 84.1242 125.112 84.1242C125.425 82.4447 125.268 79.8139 124.83 79.7099C124.399 79.6059 123.655 79.7248 122.325 79.8139C120.994 79.9105 119.507 79.539 119.284 79.8139C119.128 80.022 119.351 80.8618 119.723 81.5306C118.89 80.5571 117.173 80.453 117.084 80.8246C116.987 81.1962 117.426 83.1804 117.336 84.4958C117.247 85.8037 115.523 87.5575 115.523 88.9546C115.523 90.3518 117.619 93.7331 117.619 93.7331C117.619 93.7331 113.813 96.557 110.817 97.3002C110.066 97.4934 109.367 97.5454 108.788 97.3968C107.293 97.0103 105.873 94.8998 104.848 92.9602C103.896 91.1395 103.286 89.4674 103.286 89.4674L100.528 91.8826C100.528 91.8826 101.064 95.3754 102.617 98.3406C103.762 100.525 105.465 102.42 107.918 102.42C109.129 102.42 110.326 102.242 111.471 101.937C117.076 100.473 121.552 96.178 121.552 96.178C129.29 94.5877 130.844 91.5854 130.844 91.5854C131.335 89.6978 130.502 88.5756 130.502 88.5756ZM120.132 87.0596C120.132 87.0596 119.351 86.3834 119.351 86.1604C119.351 85.9375 119.909 85.3281 119.998 85.0457C120.08 84.8005 120.459 83.0169 119.968 81.9245C120.042 82.0136 120.109 82.1028 120.184 82.1697C120.808 82.7717 122.54 83.0466 122.54 83.0466C122.258 85.826 120.132 87.0596 120.132 87.0596Z" fill="url(#paint6_linear_0_942)"/>
<path fill-rule="evenodd" clip-rule="evenodd" d="M130.502 88.5756H129.944L130.316 87.0596C130.316 85.1126 129.417 84.3694 129.417 84.3694L128.517 84.4958C128.391 83.7155 127.283 82.6676 127.283 82.6676C125.915 83.1953 125.112 84.1242 125.112 84.1242C125.425 82.4447 125.268 79.8139 124.83 79.7099C124.399 79.6059 123.484 79.2863 122.154 79.3755C120.823 79.4721 119.507 79.539 119.284 79.8139C119.128 80.022 119.351 80.8618 119.723 81.5306C118.89 80.5571 117.173 80.453 117.084 80.8246C116.987 81.1962 117.426 83.1804 117.337 84.4958C117.247 85.8037 115.523 87.5575 115.523 88.9546C115.523 90.3518 117.619 93.7331 117.619 93.7331C117.619 93.7331 113.813 96.557 110.817 97.3002C110.698 98.2365 110.668 99.7674 111.263 101.551C111.308 101.685 111.375 101.811 111.471 101.937C117.076 100.473 120.949 96.7205 120.949 96.7205C128.688 95.1302 130.844 91.5854 130.844 91.5854C131.335 89.6978 130.502 88.5756 130.502 88.5756ZM120.132 87.0596C120.132 87.0596 119.351 86.3834 119.351 86.1604C119.351 85.9375 119.909 85.3281 119.998 85.0457C120.08 84.8005 120.459 83.0169 119.968 81.9245C120.042 82.0137 120.109 82.1028 120.184 82.1697C120.808 82.7717 122.54 83.0466 122.54 83.0466C122.258 85.826 120.132 87.0596 120.132 87.0596Z" fill="url(#paint7_linear_0_942)"/>
<path fill-rule="evenodd" clip-rule="evenodd" d="M119.351 86.1604C119.351 86.1604 121.7 89.5566 122.012 90.8051C122.012 90.8051 124.086 91.9272 126.19 92.0461C128.294 92.1725 130.123 91.0429 130.123 91.0429C130.123 91.0429 128.294 91.3104 127.179 91.0429C127.179 91.0429 126.651 90.6044 126.807 89.5269L129.937 88.5756L130.123 87.825C130.123 87.825 127.707 89.2816 125.848 89.4748C125.848 89.4748 124.607 89.3262 124.391 88.3675L127.298 85.7294L124.22 88.0108C124.22 88.0108 122.629 88.1446 122.54 87.067L125.112 84.1316C125.112 84.1316 122.912 84.2431 122.54 83.054C122.54 83.054 122.414 85.0531 120.407 86.7623L119.359 86.1678L119.351 86.1604Z" fill="#F47F81"/>
<path fill-rule="evenodd" clip-rule="evenodd" d="M117.619 93.7331C117.619 93.7331 119.596 96.3415 120.942 96.7205C120.942 96.7205 117.158 97.263 115.761 94.9815L117.619 93.7331Z" fill="#F47F81"/>
<g style="mix-blend-mode:multiply">
<path fill-rule="evenodd" clip-rule="evenodd" d="M102.632 98.3554L102.617 98.3406C101.064 95.3754 100.528 91.8826 100.528 91.8826L103.286 89.4674C103.286 89.4674 103.896 91.1395 104.848 92.9602C104.699 93.1163 102.424 95.5909 102.632 98.3554Z" fill="#5E364C"/>
</g>
<path fill-rule="evenodd" clip-rule="evenodd" d="M0.498089 88.5756H1.05563L0.683936 87.0596C0.683936 85.1126 1.58344 84.3694 1.58344 84.3694L2.48294 84.4958C2.60931 83.7155 3.71696 82.6676 3.71696 82.6676C5.0848 83.1953 5.88766 84.1242 5.88766 84.1242C5.57544 82.4447 5.73155 79.8139 6.17015 79.7099C6.60131 79.6059 7.3447 79.7248 8.67537 79.8139C10.006 79.9105 11.4928 79.539 11.7158 79.8139C11.8719 80.022 11.6489 80.8618 11.2772 81.5306C12.1098 80.5571 13.8271 80.453 13.9163 80.8246C14.0129 81.1962 13.5743 83.1804 13.6635 84.4958C13.7527 85.8037 15.4774 87.5575 15.4774 88.9546C15.4774 90.3518 13.381 93.7331 13.381 93.7331C13.381 93.7331 17.1872 96.557 20.183 97.3002C20.9339 97.4934 21.6326 97.5454 22.2125 97.3968C23.7067 97.0103 25.1266 94.8998 26.1524 92.9602C27.104 91.1395 27.7136 89.4674 27.7136 89.4674L30.4715 91.8826C30.4715 91.8826 29.9363 95.3754 28.3826 98.3406C27.2378 100.525 25.5354 102.42 23.0822 102.42C21.8705 102.42 20.6737 102.242 19.5288 101.937C13.9237 100.473 9.44849 96.178 9.44849 96.178C1.70981 94.5877 0.15613 91.5854 0.15613 91.5854C-0.334507 89.6978 0.498089 88.5756 0.498089 88.5756ZM10.8684 87.0596C10.8684 87.0596 11.6489 86.3834 11.6489 86.1604C11.6489 85.9375 11.0914 85.3281 11.0022 85.0457C10.9204 84.8005 10.5413 83.0169 11.0319 81.9245C10.9576 82.0136 10.8907 82.1028 10.8163 82.1697C10.1919 82.7717 8.45978 83.0466 8.45978 83.0466C8.74227 85.826 10.8684 87.0596 10.8684 87.0596Z" fill="url(#paint8_linear_0_942)"/>
<path fill-rule="evenodd" clip-rule="evenodd" d="M0.498089 88.5756H1.05563L0.683936 87.0596C0.683936 85.1126 1.58344 84.3694 1.58344 84.3694L2.48294 84.4958C2.60931 83.7155 3.71696 82.6676 3.71696 82.6676C5.0848 83.1953 5.88766 84.1242 5.88766 84.1242C5.57544 82.4447 5.73155 79.8139 6.17015 79.7099C6.60131 79.6059 7.42647 79.487 8.75714 79.4721C10.6007 79.4572 11.4928 79.539 11.7158 79.8139C11.8719 80.022 11.6489 80.8618 11.2772 81.5306C12.1098 80.5571 13.8271 80.4531 13.9163 80.8246C14.0129 81.1962 13.5743 83.1804 13.6635 84.4958C13.7527 85.8037 15.4774 87.5575 15.4774 88.9546C15.4774 90.3518 13.381 93.7331 13.381 93.7331C13.381 93.7331 17.1872 96.557 20.183 97.3002C20.302 98.2365 20.3317 99.7674 19.737 101.551C19.6924 101.685 19.6255 101.811 19.5288 101.937C13.9237 100.473 10.0506 96.7205 10.0506 96.7205C2.31196 95.1302 0.15613 91.5854 0.15613 91.5854C-0.334507 89.6978 0.498089 88.5756 0.498089 88.5756ZM10.8684 87.0596C10.8684 87.0596 11.6489 86.3834 11.6489 86.1604C11.6489 85.9375 11.0914 85.3281 11.0022 85.0457C10.9204 84.8005 10.5413 83.0169 11.0319 81.9245C10.9576 82.0137 10.8907 82.1028 10.8163 82.1697C10.1919 82.7717 8.45978 83.0466 8.45978 83.0466C8.74227 85.826 10.8684 87.0596 10.8684 87.0596Z" fill="url(#paint9_linear_0_942)"/>
<path fill-rule="evenodd" clip-rule="evenodd" d="M11.6489 86.1604C11.6489 86.1604 9.29979 89.5566 8.98757 90.8051C8.98757 90.8051 6.91352 91.9272 4.80972 92.0461C2.70593 92.1725 0.877197 91.0429 0.877197 91.0429C0.877197 91.0429 2.70593 91.3104 3.82102 91.0429C3.82102 91.0429 4.34882 90.6044 4.19271 89.5269L1.06304 88.5756L0.877197 87.825C0.877197 87.825 3.29321 89.2816 5.15168 89.4748C5.15168 89.4748 6.39314 89.3262 6.60873 88.3675L3.70208 85.7294L6.77971 88.0108C6.77971 88.0108 8.37056 88.1446 8.45976 87.067L5.88764 84.1316C5.88764 84.1316 8.08807 84.2431 8.45976 83.054C8.45976 83.054 8.58614 85.0531 10.5933 86.7623L11.6415 86.1678L11.6489 86.1604Z" fill="#F47F81"/>
<path fill-rule="evenodd" clip-rule="evenodd" d="M13.381 93.7331C13.381 93.7331 11.4036 96.3415 10.0581 96.7205C10.0581 96.7205 13.8419 97.263 15.2395 94.9815L13.381 93.7331Z" fill="#F47F81"/>
<g style="mix-blend-mode:multiply">
<path fill-rule="evenodd" clip-rule="evenodd" d="M28.3677 98.3554L28.3826 98.3406C29.9363 95.3754 30.4715 91.8826 30.4715 91.8826L27.7136 89.4674C27.7136 89.4674 27.104 91.1395 26.1524 92.9602C26.3011 93.1163 28.5759 95.5909 28.3677 98.3554Z" fill="#5E364C"/>
</g>
<path fill-rule="evenodd" clip-rule="evenodd" d="M65.4034 117.596L65.0019 117.038C65.0019 117.038 56.4827 121.14 53.9254 127.777L55.2115 128.111C55.2115 128.111 59.6718 120.226 65.4108 117.588L65.4034 117.596Z" fill="url(#paint10_linear_0_942)"/>
<path fill-rule="evenodd" clip-rule="evenodd" d="M45.6664 111.517C45.6664 111.517 51.9108 117.053 66.0204 117.053C80.1299 117.053 87.9503 110.313 87.9503 110.313L45.6664 111.517Z" fill="url(#paint11_linear_0_942)"/>
<path fill-rule="evenodd" clip-rule="evenodd" d="M105.695 79.368C103.398 92.6332 97.7036 106.463 89.9501 109.592C76.9185 114.846 49.8963 114.846 42.1427 110.001C34.4263 105.178 27.8473 93.2649 25.0968 81.1144C23.0525 72.1001 23.1194 62.9594 26.3829 56.494C30.1519 49.0105 40.6485 41.9432 64.9796 41.9432C86.1588 41.9432 103.509 47.331 106.126 59.5483C107.212 64.6389 106.996 71.9069 105.695 79.368Z" fill="url(#paint12_linear_0_942)"/>
<path style="mix-blend-mode:multiply" opacity="0.3" fill-rule="evenodd" clip-rule="evenodd" d="M42.8638 52.429C42.8638 52.429 38.7306 55.9218 38.515 61.6812C38.515 61.6812 42.2468 67.6189 49.5989 69.395C49.5989 69.395 62.2811 67.7675 66.117 60.3286C66.117 60.3286 59.8502 71.8474 49.6584 74.2775C49.6584 74.2775 38.7529 70.9631 35.9131 61.54C35.9131 61.54 38.6562 55.6691 42.8638 52.4216V52.429Z" fill="url(#paint13_linear_0_942)"/>
<path style="mix-blend-mode:multiply" opacity="0.3" fill-rule="evenodd" clip-rule="evenodd" d="M47.1086 57.8465V61.5474C47.1086 61.5474 49.3833 63.212 52.1487 63.3532C54.9067 63.5019 56.7726 60.663 56.7726 60.663C56.7726 60.663 56.847 65.5084 50.5281 65.9245C50.5281 65.9245 46.7592 64.1187 45.0717 61.6737C45.0717 61.6737 45.9935 59.318 47.116 57.8391L47.1086 57.8465Z" fill="url(#paint14_linear_0_942)"/>
<path style="mix-blend-mode:multiply" opacity="0.3" fill-rule="evenodd" clip-rule="evenodd" d="M30.4715 68.9045C30.4715 68.9045 36.3889 80.9212 38.4035 82.3481C40.4181 83.7749 49.0116 81.1962 49.0116 81.1962C49.0116 81.1962 38.9015 88.3453 37.8831 87.8622C36.8647 87.3792 30.9473 71.6319 30.4789 68.9045H30.4715Z" fill="url(#paint15_linear_0_942)"/>
<path style="mix-blend-mode:multiply" opacity="0.3" fill-rule="evenodd" clip-rule="evenodd" d="M26.3903 57.8465C26.3903 57.8465 32.3449 56.0555 36.2699 52.429C40.195 48.8024 42.7746 44.7448 42.7746 44.7448C42.7746 44.7448 39.0651 58.8126 25.1042 59.8827L26.3903 57.8391V57.8465Z" fill="url(#paint16_linear_0_942)"/>
<path style="mix-blend-mode:multiply" opacity="0.3" fill-rule="evenodd" clip-rule="evenodd" d="M68.7635 62.6696C68.7635 62.6696 78.5837 69.8261 83.7279 70.2868C88.8796 70.7476 96.7223 61.1758 96.7223 61.1758C96.7223 61.1758 94.7821 71.5279 83.6536 73.4377C83.6536 73.4377 75.677 73.0142 68.7635 62.6696Z" fill="url(#paint17_linear_0_942)"/>
<path style="mix-blend-mode:multiply" opacity="0.3" fill-rule="evenodd" clip-rule="evenodd" d="M86.0621 57.7128L85.4526 60.6705C85.4526 60.6705 83.1406 63.4053 76.3237 60.6705L76.6806 62.6696C76.6806 62.6696 81.3862 65.5827 82.7466 65.7536C84.107 65.9245 88.1734 61.1758 88.1734 61.1758L86.0547 57.7128H86.0621Z" fill="url(#paint18_linear_0_942)"/>
<path style="mix-blend-mode:multiply" opacity="0.3" fill-rule="evenodd" clip-rule="evenodd" d="M49.6212 80.9584C49.6212 80.9584 53.3307 79.3903 55.9995 79.5613C58.6683 79.7396 66.117 78.6769 66.117 78.6769L73.3279 79.8139C73.3279 79.8139 80.6131 80.0294 84.5308 80.728C88.441 81.4266 92.6411 82.5413 93.6967 82.3406C94.7524 82.14 101.421 70.2794 101.421 70.2794C101.421 70.2794 96.1202 87.0745 93.5704 87.8845C93.5704 87.8845 84.6051 81.4711 80.8882 80.7354C77.1712 79.9997 66.5184 82.3481 66.5184 82.3481L62.4298 82.0582C62.4298 82.0582 55.5163 80.2821 49.6287 80.9658L49.6212 80.9584Z" fill="url(#paint19_linear_0_942)"/>
<path style="mix-blend-mode:multiply" opacity="0.3" fill-rule="evenodd" clip-rule="evenodd" d="M54.4978 45.7258C54.4978 45.7258 58.7277 49.6422 62.4298 49.6422C66.1319 49.6422 66.5184 46.4467 66.5184 46.4467L67.6038 46.0305C67.6038 46.0305 67.3139 49.88 70.3989 49.6422C73.4766 49.4044 79.4162 44.8638 79.4162 44.8638C79.4162 44.8638 73.09 52.7262 66.7415 53.0161C60.3855 53.3133 54.4978 45.7258 54.4978 45.7258Z" fill="url(#paint20_linear_0_942)"/>
<path fill-rule="evenodd" clip-rule="evenodd" d="M62.4298 41.9283L66.1319 45.7332L66.1096 70.1976L66.2434 90.9909L66.7415 73.7499L67.6038 46.0305L71.0531 42.0101L62.4298 41.9283Z" fill="#F47F81"/>
<path fill-rule="evenodd" clip-rule="evenodd" d="M66.117 60.3361C66.117 60.3361 59.7313 71.0894 49.5097 73.5789C49.5097 73.5789 38.3068 69.4025 36.4409 61.317C36.4409 61.317 39.4219 51.2325 49.8145 49.5456C49.8145 49.5456 56.2151 53.3653 55.9029 62.677C55.9029 62.677 53.9477 64.8767 50.0375 65.1442C50.0375 65.1442 46.4841 63.6356 45.5921 60.7002L47.1011 57.854L41.5034 63.2715L44.8784 62.677C44.8784 62.677 48.6994 66.1177 50.5653 67.0095C50.5653 67.0095 56.9659 64.4308 57.9397 61.8595C57.9397 61.8595 54.4756 51.2845 49.6733 48.2674C49.6733 48.2674 41.05 49.9543 34.917 61.5102C34.917 61.5102 37.3181 70.7773 49.7625 75.1321C49.7625 75.1321 57.4788 71.5799 61.7905 67.017C61.7905 67.017 64.6079 65.3003 66.1022 65.4192V60.3509L66.117 60.3361Z" fill="#F47F81"/>
<path fill-rule="evenodd" clip-rule="evenodd" d="M66.6523 79.7471L63.1658 81.6124C63.1658 81.6124 53.1746 80.4233 50.5282 80.7354C47.8817 81.0476 39.9423 86.48 38.2845 87.0819C36.6268 87.6839 30.9696 67.9236 29.6315 67.6561C28.2934 67.3885 25.0373 74.5971 25.4239 80.7354C25.8105 86.8813 31.5569 89.7795 32.0921 89.5194C32.6273 89.2519 32.2705 83.329 31.5569 80.7354C30.8432 78.1493 28.4941 76.7225 28.4941 76.7225C28.4941 76.7225 27.5946 80.3341 28.4941 82.4075C28.4941 82.4075 28.4272 79.5315 29.0368 78.5877C29.0368 78.5877 30.5756 79.5018 31.1703 82.3481C31.765 85.1943 31.2298 88.2709 31.2298 88.2709C31.2298 88.2709 26.7174 85.8854 26.0781 81.2185C25.4313 76.5515 27.4236 70.6212 28.5015 70.1307C29.5795 69.6403 35.9206 87.6467 38.4035 89.5269C38.4035 89.5269 45.0568 82.519 50.5282 81.3968C55.9995 80.2747 65.277 82.7568 66.1765 84.0053L66.6523 79.7396V79.7471Z" fill="#F47F81"/>
<path fill-rule="evenodd" clip-rule="evenodd" d="M26.3903 56.4866V59.5335C26.3903 59.5335 31.1108 58.5822 35.8536 54.6733C40.5965 50.7643 40.8938 46.0825 40.8938 46.0825H38.738L44.4621 44.1875C44.4621 44.1875 39.184 58.0695 24.8069 60.6705L26.3903 56.4866Z" fill="#F47F81"/>
<path fill-rule="evenodd" clip-rule="evenodd" d="M51.5392 42.7978C51.5392 42.7978 57.2261 51.5372 66.1244 54.1159L66.6523 51.1805L64.3552 52.429C64.3552 52.429 55.4196 48.7653 52.3569 42.6863L51.5466 42.7978H51.5392Z" fill="#F47F81"/>
<path fill-rule="evenodd" clip-rule="evenodd" d="M31.1034 97.1218C31.1034 97.1218 33.118 90.8719 34.6345 89.6829C36.151 88.5013 43.2578 101.172 44.4621 106.864C45.6664 112.55 40.8492 109.116 40.8492 109.116L39.3624 107.92C39.3624 107.92 41.7562 109.599 43.2058 109.124C44.6554 108.648 37.9203 91.2212 35.4745 90.9983C33.0288 90.7753 31.5271 97.8873 31.5271 97.8873L31.1034 97.1292V97.1218Z" fill="#F47F81"/>
<path fill-rule="evenodd" clip-rule="evenodd" d="M36.2105 104.694C36.2105 104.694 38.0021 104.895 38.2622 104.226C38.5299 103.557 36.6193 99.8715 36.6193 99.8715L35.2441 99.6039L37.1546 96.3118L37.11 99.5593C37.11 99.5593 38.9313 103.201 38.7975 104.405C38.6637 105.601 37.0208 105.616 37.0208 105.616L36.2105 104.694Z" fill="#F47F81"/>
<path fill-rule="evenodd" clip-rule="evenodd" d="M67.0537 60.2023C67.0537 60.2023 73.4394 70.9556 83.661 73.4452C83.661 73.4452 94.8639 69.2687 96.7298 61.1833C96.7298 61.1833 93.7488 51.0988 83.3562 49.4118C83.3562 49.4118 76.9556 53.2316 77.2678 62.5432C77.2678 62.5432 79.223 64.7429 83.1332 65.0105C83.1332 65.0105 86.6866 63.5019 87.5786 60.5665L86.0696 57.7202L91.6673 63.1377L88.2923 62.5432C88.2923 62.5432 84.4713 65.984 82.6054 66.8758C82.6054 66.8758 76.2048 64.297 75.231 61.7258C75.231 61.7258 78.6952 51.1508 83.4974 48.1336C83.4974 48.1336 92.1208 49.8205 98.2537 61.3765C98.2537 61.3765 95.8526 70.6435 83.4082 74.9984C83.4082 74.9984 75.6919 71.4461 71.3802 66.8832C71.3802 66.8832 68.5628 65.1665 67.0686 65.2854V60.2172L67.0537 60.2023Z" fill="#F47F81"/>
<path fill-rule="evenodd" clip-rule="evenodd" d="M66.117 79.7471L69.4548 81.6124C69.4548 81.6124 79.0223 80.4233 81.5572 80.7354C84.0922 81.0476 91.697 86.48 93.2805 87.0819C94.8713 87.6839 101.205 67.0392 102.484 66.7717C103.762 66.5042 105.963 74.5896 105.598 80.7354C105.234 86.8813 99.7256 89.7795 99.2127 89.5194C98.6998 89.2519 99.0417 83.329 99.7256 80.7354C100.41 78.1493 102.655 76.7224 102.655 76.7224C102.655 76.7224 103.517 80.3341 102.655 82.4075C102.655 82.4075 102.721 79.5315 102.134 78.5877C102.134 78.5877 100.662 79.5018 100.09 82.3481C99.5175 85.1943 100.03 88.2709 100.03 88.2709C100.03 88.2709 104.35 85.8854 104.967 81.2185C105.584 76.5515 104.134 69.7071 103.101 69.2241C102.067 68.7336 95.5478 87.6467 93.1615 89.5269C93.1615 89.5269 86.7907 82.519 81.5498 81.3968C76.3089 80.2747 67.1949 82.7791 66.3326 84.0276L66.1096 79.7396L66.117 79.7471Z" fill="#F47F81"/>
<path fill-rule="evenodd" clip-rule="evenodd" d="M104.736 55.7508V58.7978C104.736 58.7978 102.06 58.4559 97.317 54.5395C92.5742 50.6306 91.8234 46.8257 91.8234 46.8257L93.1095 46.3946L88.716 44.8563C88.716 44.8563 91.9498 57.3338 106.319 59.9273L104.736 55.7434V55.7508Z" fill="#F47F81"/>
<path fill-rule="evenodd" clip-rule="evenodd" d="M81.4383 43.2065C81.4383 43.2065 75.9372 51.4034 67.0388 53.9822L66.511 51.0467L68.8081 52.2952C68.8081 52.2952 77.4686 49.1368 80.5388 43.0579L81.4383 43.2065Z" fill="#F47F81"/>
<path fill-rule="evenodd" clip-rule="evenodd" d="M100.528 96.988C100.528 96.988 98.7369 90.7382 97.3988 89.5492C96.0533 88.3676 89.5858 100.808 88.5228 106.493C87.4523 112.178 91.9795 108.507 91.9795 108.507L93.4663 107.355C93.4663 107.355 91.0875 109.458 89.8014 108.982C88.5228 108.507 94.4922 91.08 96.6554 90.8571C98.8187 90.6342 100.157 97.7461 100.157 97.7461L100.528 96.988Z" fill="#F47F81"/>
<path fill-rule="evenodd" clip-rule="evenodd" d="M96.0012 104.561C96.0012 104.561 94.4178 104.761 94.1799 104.093C93.9421 103.424 95.637 99.7377 95.637 99.7377L96.8561 99.4702L95.1612 96.178L95.1984 99.4256C95.1984 99.4256 93.5852 103.067 93.7042 104.271C93.8231 105.467 95.2802 105.482 95.2802 105.482L96.0012 104.561Z" fill="#F47F81"/>
<path style="mix-blend-mode:multiply" opacity="0.5" fill-rule="evenodd" clip-rule="evenodd" d="M101.658 84.1093C100.105 84.4883 99.8297 82.2812 99.8297 82.2812L99.0045 83.4033C97.6664 88.4047 91.8383 98.4223 91.8383 98.4223C91.8383 98.4223 87.1401 90.6639 82.1965 89.9505C77.2604 89.237 71.6999 92.9751 71.1126 95.9105C71.1126 95.9105 79.3568 95.5835 87.4671 98.8385C87.4671 98.8385 87.5415 98.8682 87.6604 98.9128C86.9022 100.407 82.2486 113.434 63.6564 111.814C46.9524 110.357 45.0717 100.838 45.265 99.5816C53.3679 96.3267 61.4188 96.1409 61.4188 96.1409C60.8241 93.2054 55.4717 89.9802 50.5281 90.6936C45.592 91.407 40.8938 90.9834 40.8864 90.9909C39.697 90.9017 38.344 90.5376 37.0282 89.6086C33.4599 87.0968 32.3449 84.2803 32.3449 84.2803C32.3449 84.2803 32.2928 85.9152 31.4677 85.878C30.6425 85.8483 26.7917 82.1846 26.7917 82.1846C25.9368 82.2961 25.4016 80.9807 25.4016 80.9807L25.1117 81.1145C27.8622 93.2723 34.4412 105.185 42.1576 110.001C49.9111 114.838 76.9259 114.838 89.9649 109.592C97.7185 106.463 103.413 92.6332 105.71 79.3755C104.439 82.3778 101.673 84.1093 101.673 84.1093H101.658Z" fill="url(#paint21_linear_0_942)"/>
<path fill-rule="evenodd" clip-rule="evenodd" d="M62.0804 66.8386L66.5184 60.6705C66.5184 60.6705 70.0124 64.4085 71.0531 66.4596C71.0531 66.4596 67.7525 64.6166 66.5184 64.676C65.2919 64.7355 62.0804 66.8386 62.0804 66.8386Z" fill="#CE5870"/>
<path fill-rule="evenodd" clip-rule="evenodd" d="M62.4298 82.0508L66.5184 83.2027L68.7635 82.0508C68.7635 82.0508 67.4551 81.1739 66.1913 81.1665C64.9276 81.1665 62.4224 82.0508 62.4224 82.0508H62.4298Z" fill="#CE5870"/>
<path fill-rule="evenodd" clip-rule="evenodd" d="M44.6554 71.1043C44.6554 71.1043 48.863 73.7944 50.0226 73.4377C51.1823 73.081 55.665 70.9408 55.665 70.9408C55.665 70.9408 50.9221 75.1173 49.7773 75.1173C48.744 75.1173 44.6554 71.1117 44.6554 71.1117V71.1043Z" fill="#CE5870"/>
<path fill-rule="evenodd" clip-rule="evenodd" d="M45.5995 60.6854L46.0232 62.8033L44.8858 62.6696L41.5108 63.2641L47.1086 57.8465L45.5995 60.6854Z" fill="#CE5870"/>
<path fill-rule="evenodd" clip-rule="evenodd" d="M95.9715 59.3031L96.7298 61.1758C96.7298 61.1758 96.0904 63.8214 94.6929 65.5009C94.6929 65.5009 97.9489 62.6398 98.2463 61.3542L95.9789 59.3031H95.9715Z" fill="#CE5870"/>
<path fill-rule="evenodd" clip-rule="evenodd" d="M86.0621 57.7128L87.5712 60.559L86.8129 63.2715L88.2774 62.5432L91.6524 63.1377C91.6524 63.1377 87.4894 59.1396 86.0547 57.7202L86.0621 57.7128Z" fill="#CE5870"/>
<path fill-rule="evenodd" clip-rule="evenodd" d="M88.5153 84.2505C88.5153 84.2505 93.3473 87.342 93.6967 86.8887C94.0461 86.4354 95.6444 83.2027 95.6444 83.2027C95.6444 83.2027 95.0869 87.1711 93.1689 89.5269C93.1689 89.5269 89.8311 85.0531 88.5153 84.2431V84.2505Z" fill="#CE5870"/>
<path fill-rule="evenodd" clip-rule="evenodd" d="M35.9354 83.2101C35.9354 83.2101 37.6824 87.3569 38.2771 87.0819C38.8718 86.8069 42.1948 84.8896 42.1948 84.8896C42.1948 84.8896 38.8644 90.0173 38.396 89.5417C37.9351 89.0661 36.0767 85.5585 35.9354 83.2175V83.2101Z" fill="#CE5870"/>
<path fill-rule="evenodd" clip-rule="evenodd" d="M95.1612 96.1855L95.2058 99.4256L94.6855 100.964L95.637 99.7377L96.8561 99.4702L95.1612 96.1855Z" fill="#CE5870"/>
<path fill-rule="evenodd" clip-rule="evenodd" d="M35.2441 99.6039L37.1546 96.3192L37.11 99.5593L37.5114 100.407L36.6193 99.8715L35.2441 99.6039Z" fill="#CE5870"/>
<path fill-rule="evenodd" clip-rule="evenodd" d="M39.355 107.912C39.355 107.912 42.3657 109.941 43.1983 109.116C44.0309 108.284 42.3955 104.197 42.3955 104.197C42.3955 104.197 44.8264 108.262 44.3209 109.555C43.8153 110.848 41.3547 109.555 41.3547 109.555L39.3476 107.912H39.355Z" fill="#CE5870"/>
<path fill-rule="evenodd" clip-rule="evenodd" d="M99.8297 85.2538C99.8297 85.2538 99.7256 88.2561 100.038 88.2784C100.35 88.3007 102.134 86.6434 102.134 86.6434C102.134 86.6434 100.231 89.787 99.2127 89.5269C99.2127 89.5269 99.1235 87.1711 99.8297 85.2612V85.2538Z" fill="#CE5870"/>
<path fill-rule="evenodd" clip-rule="evenodd" d="M63.6564 52.9046L66.9571 51.9385L70.109 52.8229L67.0463 53.9822L66.7415 54.8219L66.1245 54.1159L63.6564 52.9046Z" fill="#CE5870"/>
<path fill-rule="evenodd" clip-rule="evenodd" d="M79.5723 72.2859C79.5723 72.2859 82.7987 73.3931 83.9509 73.4377C85.1032 73.4823 89.2364 70.9408 89.2364 70.9408C89.2364 70.9408 84.7835 75.1916 83.3859 74.9835C81.9884 74.7754 79.5649 72.2933 79.5649 72.2933L79.5723 72.2859Z" fill="#CE5870"/>
<path fill-rule="evenodd" clip-rule="evenodd" d="M80.8436 56.9696C80.8436 56.9696 84.4118 55.5799 83.5198 52.6742C83.5198 52.6742 81.074 53.6849 80.8436 56.9696Z" fill="white"/>
<path fill-rule="evenodd" clip-rule="evenodd" d="M51.5392 54.8219C51.5392 54.8219 50.9593 59.1991 53.866 59.9348C53.866 59.9348 55.3528 56.9547 51.5392 54.8219Z" fill="white"/>
<path fill-rule="evenodd" clip-rule="evenodd" d="M55.665 43.8233C55.665 43.8233 60.6903 45.4508 63.6564 43.8233C63.6564 43.8233 59.8205 41.2744 55.665 43.8233Z" fill="white"/>
<path fill-rule="evenodd" clip-rule="evenodd" d="M70.109 44.5442C70.109 44.5442 74.6065 45.6441 78.2789 43.6153C78.2789 43.6153 73.0751 41.8169 70.109 44.5442Z" fill="white"/>
<path fill-rule="evenodd" clip-rule="evenodd" d="M95.347 48.9436C95.347 48.9436 95.7708 51.5075 97.5177 51.9385C99.2647 52.3695 99.9115 51.5967 99.9115 51.5967C99.9115 51.5967 98.9004 48.8396 95.347 48.9436Z" fill="white"/>
<path fill-rule="evenodd" clip-rule="evenodd" d="M33.3038 50.1252C33.3038 50.1252 35.7422 51.0319 36.9762 49.7314C38.2176 48.4309 37.8682 47.4871 37.8682 47.4871C37.8682 47.4871 34.9765 46.9966 33.3038 50.1327V50.1252Z" fill="white"/>
<g style="mix-blend-mode:soft-light">
<path fill-rule="evenodd" clip-rule="evenodd" d="M90.9908 80.5274C90.9908 80.5274 93.3622 81.4043 94.5665 80.1409C95.7708 78.8776 95.4363 77.9561 95.4363 77.9561C95.4363 77.9561 92.6263 77.473 90.9982 80.5274H90.9908Z" fill="white"/>
</g>
<g style="mix-blend-mode:soft-light">
<path fill-rule="evenodd" clip-rule="evenodd" d="M76.9482 84.087C76.9482 84.087 78.1822 84.8673 79.0148 84.3025C79.8474 83.7303 79.7731 83.173 79.7731 83.173C79.7731 83.173 78.2417 82.5636 76.9482 84.0945V84.087Z" fill="white"/>
</g>
<g style="mix-blend-mode:soft-light">
<path fill-rule="evenodd" clip-rule="evenodd" d="M51.6209 82.2217C51.6209 82.2217 52.5204 84.4214 54.1559 84.4512C55.7988 84.4809 56.2225 83.6634 56.2225 83.6634C56.2225 83.6634 54.7655 81.4117 51.6209 82.2217Z" fill="white"/>
</g>
<g style="mix-blend-mode:soft-light" opacity="0.7">
<path fill-rule="evenodd" clip-rule="evenodd" d="M84.4118 52.0648V53.0235C84.4118 53.0235 88.6268 53.3728 90.0318 54.8219C91.4368 56.2711 92.314 60.1429 93.2358 61.0495C93.2358 61.0495 93.6001 58.8944 92.5296 56.9696C91.4591 55.0449 91.1395 55.461 90.0244 54.5693C88.9168 53.6775 86.6643 51.9236 84.4044 52.0648H84.4118Z" fill="white"/>
</g>
<g style="mix-blend-mode:soft-light" opacity="0.7">
<path fill-rule="evenodd" clip-rule="evenodd" d="M91.08 63.7917C90.017 63.9477 87.6753 65.0179 87.8537 66.8386C87.8537 66.8386 90.0764 66.1772 90.6117 65.3151C91.1469 64.4531 91.0874 63.7917 91.0874 63.7917H91.08Z" fill="white"/>
</g>
<g style="mix-blend-mode:soft-light" opacity="0.7">
<path fill-rule="evenodd" clip-rule="evenodd" d="M70.109 58.4708C70.109 58.4708 69.9975 55.6245 71.5066 53.9822C73.0157 52.3398 76.5319 50.9204 77.3719 50.1624C78.212 49.4044 78.658 47.4053 79.7285 46.9223C80.7915 46.4318 81.4383 46.9223 81.4383 46.9223C81.4383 46.9223 80.1225 48.312 79.4162 48.9511C78.71 49.5902 77.9666 49.9172 77.3496 50.4299C76.7326 50.9427 75.5358 53.1424 74.1977 54.978C72.8596 56.8136 70.109 58.4782 70.109 58.4782V58.4708Z" fill="white"/>
</g>
<g style="mix-blend-mode:soft-light" opacity="0.7">
<path fill-rule="evenodd" clip-rule="evenodd" d="M51.8439 78.5877C51.8439 78.5877 53.1969 77.1386 55.665 77.2575C58.133 77.3764 60.3855 72.1149 63.6564 71.4535C63.6564 71.4535 62.4298 76.0462 60.326 76.9305C58.2222 77.8223 56.8247 77.2129 55.665 77.3764C54.5053 77.5399 54.5499 78.3425 53.747 78.5877C52.9442 78.8404 51.8439 78.5877 51.8439 78.5877Z" fill="white"/>
</g>
<g style="mix-blend-mode:soft-light" opacity="0.7">
<path fill-rule="evenodd" clip-rule="evenodd" d="M56.2225 52.5851C56.2225 52.5851 58.0438 58.0026 62.0804 58.4708C62.0804 58.4708 60.5936 53.9153 56.2225 52.5851Z" fill="white"/>
</g>
<g style="mix-blend-mode:soft-light" opacity="0.7">
<path fill-rule="evenodd" clip-rule="evenodd" d="M32.6496 67.6412C32.6496 67.6412 34.4709 68.5999 35.6083 71.8623C36.7383 75.1173 36.0395 77.1758 39.7416 79.0782C43.4437 80.9807 47.5323 79.5018 47.5323 79.5018C47.5323 79.5018 44.9825 78.7958 43.6815 79.0782C42.3806 79.3532 42.3137 79.7099 41.6447 79.5315C40.983 79.3532 41.6372 76.7745 40.091 75.5334C38.5522 74.2924 37.0802 74.2403 36.2997 72.925C35.5191 71.6096 35.4597 69.7889 34.6345 68.7188C33.8093 67.6561 32.6571 67.6412 32.6571 67.6412H32.6496Z" fill="white"/>
</g>
<g style="mix-blend-mode:soft-light" opacity="0.7">
<path fill-rule="evenodd" clip-rule="evenodd" d="M80.286 89.9207C81.8992 89.7052 84.9322 90.5004 85.2444 91.7414C85.2444 91.7414 83.884 92.1873 82.2486 91.5185C80.6205 90.8497 80.286 89.9207 80.286 89.9207Z" fill="white"/>
</g>
<g style="mix-blend-mode:soft-light" opacity="0.7">
<path fill-rule="evenodd" clip-rule="evenodd" d="M40.091 59.6226C40.091 59.6226 41.1986 55.9366 43.8674 54.8219C46.5362 53.7146 47.6438 53.0904 48.5359 51.9311C49.4279 50.7792 51.0188 53.7072 51.0188 53.7072C51.0188 53.7072 50.4241 53.0606 48.9522 53.0161C47.4803 52.9789 45.0642 54.4503 44.6182 55.2827C44.1722 56.115 42.6408 59.3774 40.091 59.6152V59.6226Z" fill="white"/>
</g>
<g style="mix-blend-mode:soft-light" opacity="0.7">
<path fill-rule="evenodd" clip-rule="evenodd" d="M45.0642 47.4573C45.0642 47.4573 47.4357 45.2874 48.915 45.0793C50.3943 44.8712 52.9813 46.4467 54.1485 48.4011C54.1485 48.4011 52.855 47.9255 50.9147 47.0635C48.9745 46.2014 48.6474 45.9413 48.0824 45.971C47.5174 46.0008 45.0568 47.4573 45.0568 47.4573H45.0642Z" fill="white"/>
</g>
<g style="mix-blend-mode:soft-light" opacity="0.7">
<path fill-rule="evenodd" clip-rule="evenodd" d="M32.6496 98.0508C32.6496 98.0508 32.3077 94.7586 33.6012 94.0749C33.6012 94.0749 34.6345 96.8097 32.6496 98.0508Z" fill="white"/>
</g>
<path style="mix-blend-mode:multiply" opacity="0.5" fill-rule="evenodd" clip-rule="evenodd" d="M53.918 99.8715C53.918 99.8715 57.3748 103.074 65.5966 103.074C73.8185 103.074 78.3606 98.571 78.3606 98.571C78.3606 98.571 75.7736 106.389 66.1393 105.995C56.2225 105.594 53.918 99.8715 53.918 99.8715Z" fill="url(#paint22_linear_0_942)"/>
<path fill-rule="evenodd" clip-rule="evenodd" d="M72.1756 95.1525C72.1756 95.1525 73.9226 93.3615 75.9967 93.0048C78.0707 92.6481 85.5343 94.3796 88.3964 97.4042C88.3964 97.4042 81.862 94.5877 77.3273 94.5951C73.8631 94.5951 72.1756 95.1525 72.1756 95.1525Z" fill="#37193E"/>
<path fill-rule="evenodd" clip-rule="evenodd" d="M59.88 95.1525C59.88 95.1525 58.133 93.3615 56.059 93.0048C53.9849 92.6481 46.0604 94.3796 43.1983 97.4042C43.1983 97.4042 50.1936 94.5877 54.7283 94.5951C58.1925 94.5951 59.88 95.1525 59.88 95.1525Z" fill="#37193E"/>
<path fill-rule="evenodd" clip-rule="evenodd" d="M53.918 99.8715C53.918 99.8715 57.1592 103.074 65.5966 103.074C74.0341 103.074 78.3606 98.571 78.3606 98.571C78.3606 98.571 75.2681 104.524 66.1244 104.524C56.9808 104.524 53.9254 99.8715 53.9254 99.8715H53.918Z" fill="url(#paint23_linear_0_942)"/>
<path fill-rule="evenodd" clip-rule="evenodd" d="M88.9019 115.611C88.8647 117.581 86.3744 120.003 82.1519 122.077C79.3939 123.437 75.9075 124.641 71.8783 125.473C71.6107 125.532 71.3282 125.592 71.0531 125.644C66.6894 126.476 63.9835 127.279 62.1994 127.91C59.8874 128.735 59.1292 129.278 58.3635 129.263C56.9956 129.233 55.2041 128.118 55.2041 128.118C55.2041 128.118 55.5609 127.323 56.2894 126.149C57.3079 124.477 59.0771 122.032 61.6121 119.974C62.7272 119.067 63.9909 118.242 65.4034 117.595C65.4034 117.595 67.6558 117.937 69.2616 120.873C69.2616 120.873 76.636 120.144 80.286 118.294C80.7915 118.041 81.2227 117.759 81.5572 117.462C82.8879 116.265 82.5385 115.567 81.8174 115.165C81.0666 114.742 79.9069 114.645 79.9069 114.645C79.9069 114.645 79.2824 110.484 84.4639 111.316C84.4639 111.316 86.4933 111.747 87.8091 113.047C88.4484 113.672 88.9242 114.511 88.9019 115.611Z" fill="url(#paint24_linear_0_942)"/>
<path fill-rule="evenodd" clip-rule="evenodd" d="M82.1519 122.077C79.2081 123.526 75.4317 124.804 71.0531 125.644C61.0322 127.561 59.7239 129.293 58.3635 129.263C56.9956 129.233 55.2041 128.118 55.2041 128.118C55.2041 128.118 58.527 120.754 65.4034 117.596C65.4034 117.596 67.6558 117.937 69.2616 120.873C69.2616 120.873 76.636 120.145 80.286 118.294C80.286 118.294 82.1817 118.703 82.1519 122.077Z" fill="url(#paint25_linear_0_942)"/>
<path fill-rule="evenodd" clip-rule="evenodd" d="M72.1756 128.891C71.8039 129.523 68.2282 129.449 62.1993 127.91C60.6234 127.509 58.8764 127.004 56.9808 126.387C56.7503 126.313 56.5199 126.231 56.2894 126.149C53.1449 125.079 50.3646 123.771 48.075 122.448L47.9709 122.389C47.1309 121.898 46.3577 121.415 45.6664 120.94C43.005 119.126 41.4142 117.477 41.2283 116.629C40.9756 115.455 43.1537 113.486 44.5513 112.364C45.1906 111.851 45.6664 111.517 45.6664 111.517C45.6664 111.517 49.1752 108.826 51.2864 112.75C51.2864 112.75 49.7253 113.374 48.5284 114.177C47.7702 114.675 47.1606 115.255 47.1755 115.797C47.1978 116.25 47.5918 116.882 48.3128 117.551C49.7996 118.948 52.6394 120.546 56.2374 121.23C56.2374 121.23 58.3263 119.468 60.2814 119.186C60.2814 119.186 60.8538 119.528 61.6121 119.974C62.296 120.375 63.1286 120.858 63.8125 121.23C65.2547 122.025 68.1836 122.485 70.1759 123.37C70.9788 123.726 71.5363 124.551 71.8783 125.473C72.3986 126.848 72.4581 128.423 72.1756 128.891Z" fill="url(#paint26_linear_0_942)"/>
<path fill-rule="evenodd" clip-rule="evenodd" d="M60.2814 119.186L61.1437 118.77C61.1437 118.77 63.5746 120.873 65.6264 121.698C67.6781 122.523 70.2056 122.188 72.0567 123.6C73.9077 125.02 73.038 128.869 73.038 128.869C73.038 128.869 72.7332 129.27 71.0457 129.241C69.3582 129.211 60.2814 119.186 60.2814 119.186Z" fill="url(#paint27_linear_0_942)"/>
<path fill-rule="evenodd" clip-rule="evenodd" d="M72.1756 128.891C71.7073 129.686 66.1319 129.36 56.9808 126.387C53.5537 125.272 50.5281 123.868 48.075 122.448L47.9709 122.389L45.6664 120.94C46.3503 117.417 48.1493 117.536 48.3128 117.551C49.7996 118.948 52.6394 120.546 56.2374 121.229C56.2374 121.229 58.3263 119.468 60.2814 119.186C60.2814 119.186 62.3703 120.442 63.8125 121.229C65.2547 122.025 68.1836 122.485 70.1759 123.37C72.1756 124.254 72.644 128.104 72.1756 128.891Z" fill="url(#paint28_linear_0_942)"/>
<g style="mix-blend-mode:multiply">
<path fill-rule="evenodd" clip-rule="evenodd" d="M51.2864 112.75C51.2864 112.75 49.7253 113.374 48.5284 114.177C47.2795 112.981 45.8299 112.505 44.5513 112.364C45.1906 111.851 45.6664 111.517 45.6664 111.517C45.6664 111.517 49.1752 108.826 51.2864 112.75Z" fill="#5E364C"/>
</g>
<g style="mix-blend-mode:multiply">
<path fill-rule="evenodd" clip-rule="evenodd" d="M87.8091 113.047C85.2519 113.456 82.8953 114.586 81.8174 115.165C81.0666 114.742 79.9069 114.645 79.9069 114.645C79.9069 114.645 79.2824 110.484 84.4639 111.316C84.4639 111.316 86.4933 111.747 87.8091 113.047Z" fill="#5E364C"/>
</g>
<g style="mix-blend-mode:soft-light">
<path fill-rule="evenodd" clip-rule="evenodd" d="M69.6407 104.836C69.6407 104.836 70.8747 105.616 71.7073 105.051C72.5399 104.479 72.4656 103.922 72.4656 103.922C72.4656 103.922 70.9342 103.312 69.6407 104.843V104.836Z" fill="white"/>
</g>
</g>
<defs>
<linearGradient id="paint0_linear_0_942" x1="70.3766" y1="69.3504" x2="62.7247" y2="0.378455" gradientUnits="userSpaceOnUse">
<stop offset="0.02" stop-color="#AB9BFF"/>
<stop offset="1" stop-color="#CAF2D6"/>
</linearGradient>
<linearGradient id="paint1_linear_0_942" x1="74.4592" y1="72.673" x2="93.1624" y2="8.83029" gradientUnits="userSpaceOnUse">
<stop offset="0.02" stop-color="#AB9BFF"/>
<stop offset="1" stop-color="#CAF2D6"/>
</linearGradient>
<linearGradient id="paint2_linear_0_942" x1="73.1911" y1="77.2716" x2="115.94" y2="30.7219" gradientUnits="userSpaceOnUse">
<stop offset="0.02" stop-color="#AB9BFF"/>
<stop offset="1" stop-color="#CAF2D6"/>
</linearGradient>
<linearGradient id="paint3_linear_0_942" x1="59.3574" y1="77.3779" x2="16.6086" y2="30.8283" gradientUnits="userSpaceOnUse">
<stop offset="0.02" stop-color="#AB9BFF"/>
<stop offset="1" stop-color="#CAF2D6"/>
</linearGradient>
<linearGradient id="paint4_linear_0_942" x1="66.0683" y1="69.9789" x2="29.9854" y2="11.2832" gradientUnits="userSpaceOnUse">
<stop offset="0.02" stop-color="#AB9BFF"/>
<stop offset="1" stop-color="#CAF2D6"/>
</linearGradient>
<linearGradient id="paint5_linear_0_942" x1="65.7305" y1="137.222" x2="62.3279" y2="106.619" gradientUnits="userSpaceOnUse">
<stop offset="0.02" stop-color="#C2DBF0"/>
<stop offset="1" stop-color="#FFE6D6"/>
</linearGradient>
<linearGradient id="paint6_linear_0_942" x1="100.528" y1="91.0503" x2="131" y2="91.0503" gradientUnits="userSpaceOnUse">
<stop stop-color="#684A72"/>
<stop offset="0.99" stop-color="#46255E"/>
</linearGradient>
<linearGradient id="paint7_linear_0_942" x1="120.875" y1="101.937" x2="120.875" y2="79.3606" gradientUnits="userSpaceOnUse">
<stop offset="0.02" stop-color="#FFA993"/>
<stop offset="1" stop-color="#FFCFA9"/>
</linearGradient>
<linearGradient id="paint8_linear_0_942" x1="30.4715" y1="-1.15174e-05" x2="1.87317e-05" y2="-1.15174e-05" gradientUnits="userSpaceOnUse">
<stop stop-color="#684A72"/>
<stop offset="0.99" stop-color="#46255E"/>
</linearGradient>
<linearGradient id="paint9_linear_0_942" x1="10.125" y1="101.937" x2="10.125" y2="79.4795" gradientUnits="userSpaceOnUse">
<stop offset="0.02" stop-color="#FFA993"/>
<stop offset="1" stop-color="#FFCFA9"/>
</linearGradient>
<linearGradient id="paint10_linear_0_942" x1="53.918" y1="122.582" x2="65.4034" y2="122.582" gradientUnits="userSpaceOnUse">
<stop stop-color="#9B1A43"/>
<stop offset="1" stop-color="#731653"/>
</linearGradient>
<linearGradient id="paint11_linear_0_942" x1="45.6664" y1="113.687" x2="87.9429" y2="113.687" gradientUnits="userSpaceOnUse">
<stop offset="0.02" stop-color="#FF4748"/>
<stop offset="1" stop-color="#B54263"/>
</linearGradient>
<linearGradient id="paint12_linear_0_942" x1="70.2874" y1="113.471" x2="62.3086" y2="41.571" gradientUnits="userSpaceOnUse">
<stop offset="0.02" stop-color="#FF8E89"/>
<stop offset="1" stop-color="#FFB388"/>
</linearGradient>
<linearGradient id="paint13_linear_0_942" x1="51.0188" y1="74.2849" x2="51.0188" y2="52.429" gradientUnits="userSpaceOnUse">
<stop offset="0.02" stop-color="#E08893"/>
<stop offset="0.33" stop-color="#ECB9BF"/>
<stop offset="0.62" stop-color="#F6DFE2"/>
<stop offset="0.85" stop-color="#FCF6F7"/>
<stop offset="1" stop-color="white"/>
</linearGradient>
<linearGradient id="paint14_linear_0_942" x1="50.9147" y1="65.932" x2="50.9147" y2="57.8465" gradientUnits="userSpaceOnUse">
<stop offset="0.02" stop-color="#E08893"/>
<stop offset="1" stop-color="#FFD1C7"/>
</linearGradient>
<linearGradient id="paint15_linear_0_942" x1="39.7416" y1="87.8845" x2="39.7416" y2="68.9045" gradientUnits="userSpaceOnUse">
<stop offset="0.02" stop-color="#E08893"/>
<stop offset="1" stop-color="white"/>
</linearGradient>
<linearGradient id="paint16_linear_0_942" x1="33.9357" y1="59.8827" x2="33.9357" y2="44.7448" gradientUnits="userSpaceOnUse">
<stop offset="0.02" stop-color="#E08893"/>
<stop offset="1" stop-color="#FFD1C7"/>
</linearGradient>
<linearGradient id="paint17_linear_0_942" x1="82.7466" y1="73.4377" x2="82.7466" y2="61.1758" gradientUnits="userSpaceOnUse">
<stop offset="0.02" stop-color="#E08893"/>
<stop offset="0.33" stop-color="#ECB9BF"/>
<stop offset="0.62" stop-color="#F6DFE2"/>
<stop offset="0.85" stop-color="#FCF6F7"/>
<stop offset="1" stop-color="white"/>
</linearGradient>
<linearGradient id="paint18_linear_0_942" x1="82.2486" y1="65.761" x2="82.2486" y2="57.7128" gradientUnits="userSpaceOnUse">
<stop offset="0.02" stop-color="#E08893"/>
<stop offset="0.33" stop-color="#ECB9BF"/>
<stop offset="0.62" stop-color="#F6DFE2"/>
<stop offset="0.85" stop-color="#FCF6F7"/>
<stop offset="1" stop-color="white"/>
</linearGradient>
<linearGradient id="paint19_linear_0_942" x1="75.5209" y1="87.8845" x2="75.5209" y2="70.2794" gradientUnits="userSpaceOnUse">
<stop offset="0.02" stop-color="#E08893"/>
<stop offset="1" stop-color="white"/>
</linearGradient>
<linearGradient id="paint20_linear_0_942" x1="66.957" y1="53.0235" x2="66.957" y2="44.8638" gradientUnits="userSpaceOnUse">
<stop offset="0.02" stop-color="#E08893"/>
<stop offset="0.33" stop-color="#ECB9BF"/>
<stop offset="0.62" stop-color="#F6DFE2"/>
<stop offset="0.85" stop-color="#FCF6F7"/>
<stop offset="1" stop-color="white"/>
</linearGradient>
<linearGradient id="paint21_linear_0_942" x1="65.4034" y1="113.583" x2="65.4034" y2="79.3755" gradientUnits="userSpaceOnUse">
<stop offset="0.02" stop-color="#E08893"/>
<stop offset="1" stop-color="#FFD1C7"/>
</linearGradient>
<linearGradient id="paint22_linear_0_942" x1="66.1393" y1="106.017" x2="66.1393" y2="98.5784" gradientUnits="userSpaceOnUse">
<stop offset="0.02" stop-color="#E08893"/>
<stop offset="1" stop-color="#FFD1C7"/>
</linearGradient>
<linearGradient id="paint23_linear_0_942" x1="66.1393" y1="104.531" x2="66.1393" y2="98.5784" gradientUnits="userSpaceOnUse">
<stop stop-color="#9B1A43"/>
<stop offset="1" stop-color="#731653"/>
</linearGradient>
<linearGradient id="paint24_linear_0_942" x1="72.0493" y1="129.27" x2="72.0493" y2="111.212" gradientUnits="userSpaceOnUse">
<stop stop-color="#684A72"/>
<stop offset="0.99" stop-color="#46255E"/>
</linearGradient>
<linearGradient id="paint25_linear_0_942" x1="57.4119" y1="131.24" x2="79.1067" y2="115.887" gradientUnits="userSpaceOnUse">
<stop offset="0.02" stop-color="#FF8979"/>
<stop offset="1" stop-color="#FFAE9A"/>
</linearGradient>
<linearGradient id="paint26_linear_0_942" x1="56.7726" y1="129.27" x2="56.7726" y2="110.617" gradientUnits="userSpaceOnUse">
<stop stop-color="#684A72"/>
<stop offset="0.99" stop-color="#46255E"/>
</linearGradient>
<linearGradient id="paint27_linear_0_942" x1="60.2814" y1="124.009" x2="73.2387" y2="124.009" gradientUnits="userSpaceOnUse">
<stop stop-color="#9B1A43"/>
<stop offset="1" stop-color="#731653"/>
</linearGradient>
<linearGradient id="paint28_linear_0_942" x1="59.0028" y1="129.263" x2="59.0028" y2="117.551" gradientUnits="userSpaceOnUse">
<stop offset="0.02" stop-color="#FFA993"/>
<stop offset="1" stop-color="#FFCFA9"/>
</linearGradient>
<clipPath id="clip0_0_942">
<rect width="131" height="135" fill="white"/>
</clipPath>
</defs>
</svg>
