<svg width="167" height="124" viewBox="0 0 167 124" fill="none" xmlns="http://www.w3.org/2000/svg">
<g clip-path="url(#clip0_0_192)">
<path d="M125.791 109.548C125.553 109.548 125.337 109.495 125.226 109.473C124.861 109.391 124.571 109.167 124.385 108.838C123.641 107.516 124.631 104.491 125.419 102.064C125.494 101.832 125.568 101.601 125.635 101.391C125.516 101.272 125.397 101.152 125.278 101.033C124.683 100.443 124.17 99.9349 124.11 99.3748C124.051 98.7549 124.735 98.4785 125.553 98.232C125.218 97.6196 124.854 96.9399 125.003 95.954C123.426 95.6104 121.276 95.3714 119.164 95.1399C114.953 94.6693 110.594 94.1838 109.129 92.8245C106.377 90.2776 107.775 83.0177 107.835 82.704L108.564 82.8459C108.549 82.9206 107.188 90.0012 109.627 92.2718C110.914 93.4668 115.34 93.9598 119.238 94.393C121.529 94.6469 123.634 94.8859 125.211 95.237C125.747 94.3482 127.993 92.817 132.27 89.9564C139.218 85.3107 149.721 78.2973 154.704 71.5005C162.708 60.5958 166.598 38.9507 165.951 35.8436C165.594 34.1108 164.902 33.1623 164.129 33.1623C163.147 33.1921 162.046 34.6561 161.815 36.2245L161.079 36.12C161.369 34.1556 162.753 32.4602 164.106 32.4154C164.835 32.378 166.078 32.7963 166.68 35.6943C167.454 39.4287 163.073 61.3651 155.299 71.9412C150.234 78.8351 139.664 85.9007 132.672 90.5763C129.6 92.6303 126.676 94.5872 125.962 95.4237C126.736 95.6478 127.331 95.9092 127.673 96.2453C128.164 96.7158 128.35 97.149 128.246 97.5598C128.097 98.1573 127.376 98.4561 126.58 98.7026C126.736 99.1283 126.825 99.6212 126.706 100.219C126.654 100.473 126.565 100.801 126.446 101.19C127.011 101.817 127.45 102.519 127.279 103.318C127.093 104.215 126.394 104.708 125.828 105.096C125.159 105.559 125.159 105.641 125.256 105.813C125.345 105.962 125.456 106.149 125.59 106.358C126.371 107.613 126.944 108.621 126.52 109.211C126.334 109.473 126.029 109.54 125.754 109.54L125.791 109.548ZM124.936 106.672C124.817 107.441 124.817 108.091 125.032 108.465C125.114 108.614 125.233 108.704 125.389 108.741C125.836 108.845 125.955 108.771 125.955 108.771C126.074 108.494 125.285 107.232 124.988 106.762C124.965 106.732 124.951 106.702 124.928 106.672H124.936ZM126.208 102.041C126.178 102.123 126.156 102.206 126.126 102.295C125.91 102.952 125.665 103.722 125.442 104.491C125.94 104.14 126.461 103.781 126.587 103.176C126.661 102.811 126.49 102.43 126.208 102.049V102.041ZM125.903 98.9117C125.471 99.0387 124.936 99.203 124.854 99.3449C124.891 99.5914 125.375 100.077 125.806 100.503C125.836 100.532 125.858 100.555 125.888 100.585C125.94 100.391 125.985 100.219 126.014 100.084C126.104 99.6287 126.037 99.2702 125.903 98.9192V98.9117ZM125.747 96.1258C125.657 96.8428 125.925 97.3357 126.23 97.8884C126.252 97.9333 126.275 97.9781 126.304 98.0229C126.862 97.8586 127.509 97.627 127.569 97.3806C127.584 97.3357 127.584 97.1565 127.197 96.783C126.929 96.5291 126.423 96.3125 125.747 96.1258Z" fill="url(#paint0_linear_0_192)"/>
<path fill-rule="evenodd" clip-rule="evenodd" d="M129.176 39.2495C129.176 39.2495 132.902 42.2072 134.271 47.794L130.41 67.4075C130.41 67.4075 127.807 70.5296 123.255 70.6715L129.183 39.2495H129.176Z" fill="url(#paint1_linear_0_192)"/>
<path fill-rule="evenodd" clip-rule="evenodd" d="M134.792 56.1667C133.981 63.9345 130.031 69.8798 125.97 69.4466C121.908 69.0208 119.283 62.3735 120.093 54.6132C120.904 46.8454 124.854 40.9001 128.915 41.3333C132.977 41.7591 135.602 48.4065 134.792 56.1667Z" fill="url(#paint2_linear_0_192)"/>
<path fill-rule="evenodd" clip-rule="evenodd" d="M132.307 55.0688C131.355 64.1137 127.301 71.0972 123.24 70.6715C119.178 70.2458 116.664 62.5602 117.609 53.5152C118.561 44.4703 122.615 37.4868 126.676 37.9125C130.738 38.3383 133.252 46.0238 132.307 55.0688Z" fill="url(#paint3_linear_0_192)"/>
<path fill-rule="evenodd" clip-rule="evenodd" d="M89.7297 4.46645C89.7297 4.46645 116.024 2.59173 121.105 33.5507L129.049 38.4279C129.049 38.4279 117.363 -3.7793 89.7297 4.46645Z" fill="#301B39"/>
<path fill-rule="evenodd" clip-rule="evenodd" d="M157.642 58.8033V66.1453C157.642 66.1453 145.585 72.8898 137.157 72.7255C135.097 72.6881 133.289 72.2997 131.734 71.7321C126.914 69.9843 124.489 66.5635 124.489 66.5635L126.974 63.083C126.974 63.083 128.536 64.7635 131.184 66.1602C132.969 67.0938 135.245 67.893 137.864 67.9602C146.351 68.1694 157.642 58.8107 157.642 58.8107V58.8033Z" fill="url(#paint4_linear_0_192)"/>
<path fill-rule="evenodd" clip-rule="evenodd" d="M149.668 72.001H162.366L165.624 41.7665C165.624 41.7665 160.261 39.9516 153.246 39.5632L149.676 40.0039V72.001H149.668Z" fill="url(#paint5_linear_0_192)"/>
<path fill-rule="evenodd" clip-rule="evenodd" d="M153.239 39.5632L152.22 72.001H149.668V40.0039L153.239 39.5632Z" fill="url(#paint6_linear_0_192)"/>
<path fill-rule="evenodd" clip-rule="evenodd" d="M165.393 48.4737C165.393 48.4737 166.427 49.7957 165.773 51.9692C165.773 51.9692 165.393 52.5891 162.998 52.5891L162.463 50.7368C162.463 50.7368 163.742 49.3924 165.393 48.4737Z" fill="url(#paint7_linear_0_192)"/>
<path fill-rule="evenodd" clip-rule="evenodd" d="M166.189 53.0074C166.189 53.0074 167.848 54.4489 166.427 56.5626L162.455 57.9817C162.455 57.9817 161.555 56.7717 161.949 54.9343L166.182 53.0074H166.189Z" fill="url(#paint8_linear_0_192)"/>
<path fill-rule="evenodd" clip-rule="evenodd" d="M165.854 56.5999C165.854 56.5999 166.948 58.3103 165.854 59.9535L162.715 60.7303C162.715 60.7303 161.726 59.7892 162.299 58.2132L165.862 56.5999H165.854Z" fill="url(#paint9_linear_0_192)"/>
<path fill-rule="evenodd" clip-rule="evenodd" d="M164.977 60.7303L162.864 61.0664C162.864 61.0664 161.964 62.4183 162.864 63.3967L164.977 63.2398C164.977 63.2398 165.624 62.2913 164.977 60.7303Z" fill="url(#paint10_linear_0_192)"/>
<path fill-rule="evenodd" clip-rule="evenodd" d="M165.974 56.7269L162.463 57.9817C162.463 57.9817 164.843 58.1535 166.167 57.2871L165.974 56.7194V56.7269Z" fill="#F47F81"/>
<path fill-rule="evenodd" clip-rule="evenodd" d="M161.652 46.9127C161.414 49.1907 160.506 50.9608 159.629 50.8637C158.751 50.7741 158.23 48.8546 158.468 46.5766C158.706 44.2985 159.614 42.5284 160.491 42.6255C161.369 42.7151 161.89 44.6346 161.652 46.9127Z" fill="#301B39"/>
<path fill-rule="evenodd" clip-rule="evenodd" d="M131.734 71.7321C126.914 69.9843 124.489 66.5635 124.489 66.5635L126.974 63.083C126.974 63.083 128.536 64.7635 131.184 66.1602C131.117 66.3619 130.195 69.2598 131.734 71.7321Z" fill="#301B39"/>
<path fill-rule="evenodd" clip-rule="evenodd" d="M114.634 85.4675C107.537 85.6094 100.463 85.5422 93.6423 85.3406H93.4489C63.9555 84.4293 39.379 80.9488 39.379 80.9488C22.0772 68.9312 28.5264 43.4919 28.5264 43.4919C41.6775 26.5149 60.8314 22.6758 60.8314 22.6758C83.8756 16.6633 103.84 25.7904 103.84 25.7904L104.361 30.2867L107.292 27.2394C121.35 30.9888 130.343 39.5482 130.343 39.5482C130.991 68.4532 114.626 85.4526 114.626 85.4526L114.634 85.4675Z" fill="url(#paint11_linear_0_192)"/>
<path fill-rule="evenodd" clip-rule="evenodd" d="M114.634 85.4675L93.6423 85.3406H93.4489C63.9556 84.4293 39.379 80.9488 39.379 80.9488C22.0772 68.9312 28.5264 43.4919 28.5264 43.4919C41.6775 26.5149 60.8314 22.6758 60.8314 22.6758C60.8314 22.6758 54.4046 41.7217 58.0866 54.897L61.4637 56.3385L58.0271 58.1535C58.0271 58.1535 56.3014 71.986 62.2001 80.3587L114.634 85.4675Z" fill="url(#paint12_linear_0_192)"/>
<path fill-rule="evenodd" clip-rule="evenodd" d="M104.361 30.2942C104.361 30.2942 104.049 47.1293 101.438 58.2804C101.438 58.2804 106.734 37.7557 107.292 27.2468L104.361 30.2942Z" fill="#F47F81"/>
<path fill-rule="evenodd" clip-rule="evenodd" d="M97.9119 38.0022C97.9119 38.0022 98.4698 42.14 96.573 45.0006L96.0151 41.8786C96.0151 41.8786 93.5382 36.3814 90.7339 35.403C87.9296 34.4245 78.996 34.305 76.3033 35.4478C73.6106 36.5905 70.546 40.6238 70.546 40.6238L65.8077 39.9217L64.2531 43.1558C64.2531 43.1558 64.6696 37.8976 64.4614 34.6785L66.3954 37.9872C66.3954 37.9872 69.5344 39.0926 70.8138 38.4503C72.1006 37.8154 74.2875 35.0146 76.4595 33.6552C78.6316 32.2884 90.2057 32.7589 93.1216 34.0884C95.4498 35.149 96.64 40.5939 96.64 40.5939C96.64 40.5939 97.3689 39.8395 97.9045 37.9947L97.9119 38.0022Z" fill="#F47F81"/>
<path fill-rule="evenodd" clip-rule="evenodd" d="M67.6525 21.3015C67.6525 21.3015 66.5218 24.6999 67.7268 26.119C68.9319 27.5381 77.1811 28.3373 80.2829 26.5522C83.3847 24.7671 84.1806 20.9729 84.1806 20.9729L86.2634 21.2119C86.2634 21.2119 80.7143 28.0236 78.3266 28.8153C75.9389 29.607 67.2731 28.7406 66.3582 27.5531C65.4432 26.3655 66.2838 22.6459 66.2838 22.6459L64.9597 21.7347L67.6599 21.2866L67.6525 21.3015Z" fill="#F47F81"/>
<path fill-rule="evenodd" clip-rule="evenodd" d="M118.524 31.5863C118.524 31.5863 118.598 35.8287 121.261 39.5109C123.924 43.1931 130.314 44.067 130.314 44.067L130.165 45.4786C130.165 45.4786 123.463 43.6861 120.815 40.4819C118.167 37.2777 116.486 30.6004 116.486 30.6004L118.516 31.5863H118.524Z" fill="#F47F81"/>
<path fill-rule="evenodd" clip-rule="evenodd" d="M108.668 42.9317L107.545 49.5791L109.345 47.906C109.345 47.906 112.298 48.8322 112.982 48.765C113.667 48.6977 117.163 46.345 118.687 46.6438C120.212 46.9425 124.906 50.1318 126.379 51.5584C127.852 52.9849 128.112 59.1543 128.112 59.1543L128.633 56.9883C128.633 56.9883 128.781 52.9401 127.599 51.2297C126.178 49.1683 120.026 45.4487 118.33 45.2695C116.634 45.0902 115.199 47.5699 112.848 47.6371C110.49 47.7044 109.665 46.5317 109.665 46.5317L108.668 42.9242V42.9317Z" fill="#F47F81"/>
<path fill-rule="evenodd" clip-rule="evenodd" d="M63.1224 67.6017C63.1224 67.6017 65.2721 63.9046 70.1889 63.5162L67.34 66.5785C67.34 66.5785 69.2145 71.1196 71.8328 72.845C74.4511 74.5703 77.1215 76.7587 77.1215 76.7587C77.1215 76.7587 78.8324 79.216 77.9323 81.8899L75.3809 81.6434C75.3809 81.6434 76.2512 78.484 75.552 77.0052C74.8454 75.5263 69.341 72.9047 69.341 72.9047C69.341 72.9047 66.4846 68.6698 66.0383 66.8922C66.0383 66.8922 64.4985 66.9146 63.115 67.6092L63.1224 67.6017Z" fill="#F47F81"/>
<path fill-rule="evenodd" clip-rule="evenodd" d="M116.612 73.0242C116.612 73.0242 117.914 75.2201 117.125 79.3355L116.077 78.1405C116.077 78.1405 112.975 82.8086 108.244 84.8476L103.907 84.392C103.907 84.392 112.462 82.0766 115.601 77.0873C115.601 77.0873 116.828 74.8168 116.605 73.0242H116.612Z" fill="#F47F81"/>
<path fill-rule="evenodd" clip-rule="evenodd" d="M94.7878 57.5784C94.7878 57.5784 94.5498 58.3103 94.0886 59.2962C93.4563 60.6631 92.4075 62.5154 91.0165 63.5685C90.5405 63.9345 90.0272 64.1959 89.4768 64.3154C86.1444 65.0548 78.3861 63.4191 76.519 61.2531C76.3108 61.0141 76.1248 60.7079 75.9612 60.3568C75.0314 58.3925 74.6892 54.9493 74.5702 53.0298C74.5107 52.1858 74.5032 51.6405 74.5032 51.6405C76.6083 49.1384 86.5684 47.1965 90.6446 48.8023C94.7209 50.4081 94.7878 57.5784 94.7878 57.5784Z" fill="url(#paint13_linear_0_192)"/>
<path fill-rule="evenodd" clip-rule="evenodd" d="M121.105 64.9951C121.105 64.9951 120.83 65.6673 120.376 66.5635C119.781 67.7661 118.866 69.3644 117.906 70.2756C117.572 70.5968 117.23 70.8358 116.895 70.9478C114.857 71.62 107.798 69.8574 106.66 68.4457C106.295 67.9901 106.02 67.1237 105.812 66.1528C105.388 64.1137 105.283 61.6415 105.283 61.6415C105.35 61.3129 105.44 60.9992 105.536 60.6929C106.749 56.8613 110.089 55.0763 110.089 55.0763C119.335 56.5028 121.105 65.01 121.105 65.01V64.9951Z" fill="url(#paint14_linear_0_192)"/>
<g style="mix-blend-mode:multiply" opacity="0.5">
<path fill-rule="evenodd" clip-rule="evenodd" d="M27.418 51.7675C27.418 51.7675 33.1902 50.2812 35.1094 50.8936C37.0285 51.5061 40.346 56.1144 40.889 57.8099C41.432 59.5054 40.9931 66.3469 40.9931 66.3469L38.3748 68.0648C38.3748 68.0648 41.67 68.5055 44.876 65.488L42.5701 65.9735C42.5701 65.9735 42.2502 58.6838 41.6626 57.1302C41.0824 55.5692 37.6979 49.7061 34.6631 48.9143C31.6282 48.1226 27.5891 50.1169 27.5891 50.1169L27.418 51.7824V51.7675Z" fill="#CDABAE"/>
</g>
<g style="mix-blend-mode:multiply" opacity="0.5">
<path fill-rule="evenodd" clip-rule="evenodd" d="M52.6715 82.5248C52.6715 82.5248 49.1233 76.5272 49.339 75.0558C49.5622 73.5844 53.8095 71.5827 53.8095 71.5827L53.0954 66.3395C53.0954 66.3395 56.77 69.4242 56.4799 74.8093L54.6501 72.8524C54.6501 72.8524 50.8193 73.4425 50.5143 75.0483C50.2093 76.6467 55.1261 82.7787 55.1261 82.7787L52.6715 82.5248Z" fill="#CDABAE"/>
</g>
<path fill-rule="evenodd" clip-rule="evenodd" d="M104.361 30.2942C104.361 30.2942 105.328 41.8935 103.617 49.1683C103.617 49.1683 107.054 35.6569 107.299 27.2468L104.064 27.7024L104.368 30.2942H104.361Z" fill="#CA4963"/>
<path fill-rule="evenodd" clip-rule="evenodd" d="M64.4614 34.6859L64.2531 43.1707L65.8077 39.9292L66.9755 38.1814L66.3954 38.0022L64.4614 34.6859Z" fill="#CA4963"/>
<path fill-rule="evenodd" clip-rule="evenodd" d="M97.9119 38.0022C97.9119 38.0022 99.1467 39.8321 96.4466 45.5309L96.0151 41.8786L96.6474 40.5939L97.9119 37.9947V38.0022Z" fill="#CA4963"/>
<path fill-rule="evenodd" clip-rule="evenodd" d="M108.668 42.9317L107.545 49.5791L109.345 47.9135L110.386 47.1218L109.665 46.5392L108.668 42.9317Z" fill="#CA4963"/>
<path fill-rule="evenodd" clip-rule="evenodd" d="M63.1224 67.6017C63.1224 67.6017 63.777 64.3826 70.1889 63.5162L67.34 66.5785L66.4474 67.9528L66.0457 66.8847C66.0457 66.8847 64.4614 66.4963 63.1224 67.6017Z" fill="#CA4963"/>
<path fill-rule="evenodd" clip-rule="evenodd" d="M116.612 73.0242C116.612 73.0242 118.33 76.0193 117.52 79.8733L116.077 78.133L114.314 78.7081C114.314 78.7081 116.307 75.6906 116.382 75.1155C116.456 74.5404 116.612 73.0167 116.612 73.0167V73.0242Z" fill="#CA4963"/>
<path fill-rule="evenodd" clip-rule="evenodd" d="M94.758 56.9734C94.468 59.7593 91.9835 61.7834 89.209 61.4921C86.4345 61.2008 84.4186 58.7062 84.7087 55.9203C84.9988 53.1343 87.4833 51.1102 90.2578 51.4015C93.0323 51.6928 95.0481 54.1874 94.758 56.9734Z" fill="#D10CFF"/>
<path fill-rule="evenodd" clip-rule="evenodd" d="M121.38 64.7859C121.09 67.5719 119.059 69.6408 116.858 69.4092C114.648 69.1777 113.094 66.7279 113.384 63.9419C113.674 61.156 115.705 59.0871 117.906 59.3186C120.116 59.5502 121.67 62 121.38 64.7859Z" fill="#C100EE"/>
<path fill-rule="evenodd" clip-rule="evenodd" d="M91.0165 63.5685C90.5405 63.9345 90.0272 64.1959 89.4768 64.3154C86.1444 65.0548 78.3861 63.4191 76.5191 61.2531C76.3108 61.0141 76.1248 60.7079 75.9612 60.3568C76.1769 60.4763 80.7441 62.8067 91.0091 63.5685H91.0165Z" fill="#F47F81"/>
<path fill-rule="evenodd" clip-rule="evenodd" d="M117.906 70.2756C117.572 70.5968 117.23 70.8358 116.895 70.9478C114.857 71.62 107.798 69.8574 106.66 68.4457C106.295 67.9901 106.02 67.1237 105.812 66.1527C105.812 66.1527 107.998 69.0656 117.906 70.2831V70.2756Z" fill="#F47F81"/>
<g style="mix-blend-mode:multiply">
<path fill-rule="evenodd" clip-rule="evenodd" d="M94.7878 57.5784C94.7878 57.5784 94.5498 58.3103 94.0886 59.2962C93.5084 57.9593 92.0505 55.8978 88.428 54.4862C82.7748 52.2903 74.8603 52.9999 74.5776 53.0298C74.5181 52.1858 74.5107 51.6405 74.5107 51.6405C76.6158 49.1384 86.5758 47.1965 90.6521 48.8023C94.7283 50.4081 94.7953 57.5784 94.7953 57.5784H94.7878Z" fill="#D9CCDA"/>
</g>
<g style="mix-blend-mode:multiply">
<path fill-rule="evenodd" clip-rule="evenodd" d="M121.105 64.9951C121.105 64.9951 120.83 65.6673 120.376 66.5635C119.587 64.8532 117.616 61.7311 113.339 60.805C108.303 59.7145 106.109 60.424 105.529 60.678C106.741 56.8464 110.081 55.0613 110.081 55.0613C119.327 56.4879 121.097 64.9951 121.097 64.9951H121.105Z" fill="#D9CCDA"/>
</g>
<path fill-rule="evenodd" clip-rule="evenodd" d="M61.4562 56.3385C61.4562 56.3385 67.6971 56.219 68.6789 55.9202C69.6608 55.614 72.8445 50.9459 74.7041 49.4372C76.5562 47.9434 85.103 45.2471 93.0993 47.794C96.7664 48.9592 97.0491 59.2738 97.0491 59.2738C97.0491 59.2738 100.032 61.8357 104.279 61.395C104.279 61.395 107.448 54.5161 110.148 54.0754C114.306 53.4032 121.774 60.5809 122.102 63.2697C122.429 65.9511 121.462 68.7818 121.462 68.7818C121.462 68.7818 123.664 69.8947 124.497 69.6408L123.188 72.4566L120.086 69.1777C120.086 69.1777 120.562 65.5104 119.9 63.1726C119.238 60.8348 112.633 55.8082 109.799 56.1144C106.965 56.4207 105.045 62.2913 105.045 62.2913C105.045 62.2913 99.1765 62.2614 94.4382 59.6771C94.4382 59.6771 94.3117 51.2372 90.8306 49.6836C87.3494 48.1301 78.1778 48.9442 74.5032 51.6405C70.8361 54.3368 68.6492 57.9593 68.6492 57.9593L61.4562 56.3385Z" fill="#F47F81"/>
<path fill-rule="evenodd" clip-rule="evenodd" d="M105.484 61.1187C105.484 61.1187 107.47 55.5692 110.528 55.375C113.585 55.1808 118.725 59.2738 119.87 61.5444C121.023 63.815 120.242 66.8175 120.242 66.8175C120.242 66.8175 120.882 63.5311 118.144 60.7303C115.05 57.5634 112.052 56.3161 110.037 56.7792C108.021 57.2497 106.466 59.4232 105.484 61.1112V61.1187Z" fill="#CA4963"/>
<path fill-rule="evenodd" clip-rule="evenodd" d="M74.5032 51.6331C74.5032 51.6331 77.9026 47.8388 86.5237 48.1002C96.3201 48.399 94.3117 58.8033 94.3117 58.8033C94.3117 58.8033 94.5944 51.6629 90.0123 50.1393C85.4303 48.6156 76.6529 50.5501 74.5032 51.6331Z" fill="#CA4963"/>
<path fill-rule="evenodd" clip-rule="evenodd" d="M86.9912 59.2093C86.9015 60.3006 86.1727 61.1078 85.343 60.9882C84.5246 60.8687 83.9191 59.897 84.0088 58.7907C84.0985 57.6994 84.8273 56.8922 85.657 57.0118C86.4754 57.1313 87.0809 58.103 86.9912 59.2093Z" fill="white"/>
<path fill-rule="evenodd" clip-rule="evenodd" d="M114.991 66.2093C114.901 67.3006 114.173 68.1078 113.343 67.9882C112.513 67.8687 111.919 66.897 112.009 65.7907C112.099 64.6994 112.827 63.8922 113.657 64.0118C114.475 64.1313 115.081 65.103 114.991 66.2093Z" fill="white"/>
<g style="mix-blend-mode:soft-light" opacity="0.7">
<path fill-rule="evenodd" clip-rule="evenodd" d="M97.116 78.9172C97.1979 78.4243 98.2392 78.5363 99.3996 77.1919C100.315 77.2143 99.7715 78.7454 99.1988 79.1338C98.6186 79.5297 97.0863 79.1338 97.116 78.9172Z" fill="white"/>
</g>
<g style="mix-blend-mode:soft-light" opacity="0.7">
<path fill-rule="evenodd" clip-rule="evenodd" d="M74.1164 38.6296C72.8593 40.5192 80.1713 42.7151 87.1039 42.9392C94.0365 43.1707 93.1439 38.271 92.4001 37.6212C91.6562 36.9789 87.7659 35.754 81.9714 36.3216C76.1769 36.8893 74.6297 37.8603 74.1239 38.6221L74.1164 38.6296Z" fill="white"/>
</g>
<g style="mix-blend-mode:soft-light" opacity="0.7">
<path fill-rule="evenodd" clip-rule="evenodd" d="M110.862 35.5001C108.556 36.6727 109.382 42.5433 112.581 43.9998C115.779 45.4562 117.207 43.2305 121.283 44.306C125.36 45.3815 127.852 50.087 128.409 49.9152C128.967 49.7434 129.54 46.4048 128.313 45.6429C127.085 44.8811 123.589 45.0529 120.703 42.8197C117.817 40.5939 115.243 33.2668 110.855 35.4926L110.862 35.5001Z" fill="white"/>
</g>
<path fill-rule="evenodd" clip-rule="evenodd" d="M119.729 48.4886C118.197 48.6903 120.755 51.5509 123.277 52.2007C125.799 52.8505 124.839 50.7592 123.225 49.6538C121.611 48.5484 120.413 48.3915 119.729 48.4812V48.4886Z" fill="white"/>
<g style="mix-blend-mode:soft-light" opacity="0.7">
<path fill-rule="evenodd" clip-rule="evenodd" d="M96.6177 29.5174C96.2681 27.0676 88.0709 25.3049 85.5419 26.3804C83.0128 27.456 77.6125 30.7498 76.9654 31.0112C76.3182 31.2726 82.6706 30.3166 87.8775 31.8552C93.0844 33.3938 96.9896 32.1166 96.6251 29.5249L96.6177 29.5174Z" fill="white"/>
</g>
<g style="mix-blend-mode:soft-light" opacity="0.7">
<path fill-rule="evenodd" clip-rule="evenodd" d="M74.6594 30.578C74.3917 29.4651 69.3261 30.2568 68.5748 32.2735C67.8235 34.2901 72.785 33.476 73.5288 32.7963C74.2801 32.1166 74.8528 31.3996 74.652 30.578H74.6594Z" fill="white"/>
</g>
<g style="mix-blend-mode:soft-light" opacity="0.5">
<path fill-rule="evenodd" clip-rule="evenodd" d="M72.6511 66.7577C69.9286 68.8117 75.8273 71.4184 78.3192 73.928C80.811 76.4375 82.0681 79.3504 85.9956 79.3504C89.9305 79.3504 86.5981 74.2417 83.3624 72.113C80.1267 69.9843 80.3127 65.9436 77.5307 65.5478C74.7487 65.1519 73.6181 66.0258 72.6436 66.7577H72.6511Z" fill="white"/>
</g>
<g style="mix-blend-mode:soft-light" opacity="0.5">
<path fill-rule="evenodd" clip-rule="evenodd" d="M111.39 72.6806C108.951 72.1503 105.73 77.1097 106.957 79.948C108.184 82.7862 113.771 78.8351 114.492 76.9678C115.214 75.1006 113.228 73.084 111.39 72.6806Z" fill="white"/>
</g>
<path fill-rule="evenodd" clip-rule="evenodd" d="M75.0239 38.3756C75.6934 37.3822 77.9249 36.9192 79.0258 37.5092C80.1267 38.0993 77.858 39.1897 76.7199 39.242C75.5818 39.2943 75.0165 38.3756 75.0165 38.3756H75.0239Z" fill="white"/>
<path fill-rule="evenodd" clip-rule="evenodd" d="M60.876 52.4024C59.9016 52.843 62.8695 54.5086 64.744 54.5684C66.6185 54.6281 67.5409 53.1493 67.3103 52.8206C67.0797 52.492 62.1108 51.8422 60.8835 52.4024H60.876Z" fill="white"/>
<g style="mix-blend-mode:multiply" opacity="0.5">
<path fill-rule="evenodd" clip-rule="evenodd" d="M62.2001 80.3587L39.379 80.9488C39.379 80.9488 79.7994 86.558 114.634 85.4675C114.634 85.4675 81.4135 83.9215 62.2001 80.3587Z" fill="#B7868A"/>
</g>
<path fill-rule="evenodd" clip-rule="evenodd" d="M102.271 71.0898C102.271 71.0898 101.401 71.5155 100.493 73.4724C100.292 73.9056 100.091 74.406 99.8905 74.996C98.8045 78.2674 97.0714 78.7753 94.7804 77.8193C93.0844 77.1097 91.7827 73.1138 91.2322 71.0972C91.0388 70.3951 90.9347 69.9321 90.9347 69.9321C90.9347 69.9321 102.747 63.0905 102.278 71.0972L102.271 71.0898Z" fill="url(#paint15_linear_0_192)"/>
<path style="mix-blend-mode:multiply" opacity="0.3" fill-rule="evenodd" clip-rule="evenodd" d="M102.271 71.0897C102.271 71.0897 101.401 71.5155 100.493 73.4724C98.6335 69.7528 91.4182 71.0599 91.2322 71.0897C91.0388 70.3877 90.9347 69.9246 90.9347 69.9246C90.9347 69.9246 102.747 63.083 102.278 71.0897H102.271Z" fill="url(#paint16_linear_0_192)"/>
<path fill-rule="evenodd" clip-rule="evenodd" d="M96.0151 67.7138C96.0151 67.7138 100.091 69.9171 101.951 68.8192C101.951 68.8192 101.267 66.1005 96.0151 67.7138Z" fill="url(#paint17_linear_0_192)"/>
<path fill-rule="evenodd" clip-rule="evenodd" d="M90.652 68.6175C90.652 68.6175 89.5586 70.4624 90.1537 72.001L90.9347 69.9246L90.6595 68.6175H90.652Z" fill="#CA4963"/>
<path fill-rule="evenodd" clip-rule="evenodd" d="M59.0536 81.8974C59.0536 81.8974 58.2875 97.037 62.691 109.592H66.2019C66.2019 109.592 63.2266 92.9739 63.8217 81.8899C63.8217 81.8899 60.333 81.1131 59.0536 81.8899V81.8974Z" fill="url(#paint18_linear_0_192)"/>
<path fill-rule="evenodd" clip-rule="evenodd" d="M67.8607 119.235C67.8607 119.235 65.9491 119.541 65.473 119.84C65.0118 120.139 63.4349 123.597 63.4349 123.597C63.4349 123.597 57.2684 124.456 49.9118 123.641C49.9118 123.641 49.406 121.58 49.9118 119.623C49.9118 119.608 49.9118 119.593 49.9118 119.586C49.9118 119.586 50.254 119.407 50.8119 119.108L50.9606 119.018C50.9606 119.018 50.9606 119.018 50.983 119.018C52.069 118.413 53.8393 117.405 55.5948 116.277C58.0494 114.694 60.4818 112.864 61.0471 111.512C62.2894 108.614 61.0471 103.841 61.0471 103.841L63.6729 103.535L66.202 103.244C66.202 103.244 66.2243 106.448 66.9756 110.16C67.4367 112.46 67.6673 115.373 67.7715 117.278C67.8384 118.458 67.8607 119.235 67.8607 119.235Z" fill="url(#paint19_linear_0_192)"/>
<path fill-rule="evenodd" clip-rule="evenodd" d="M91.9166 84.8401C91.9166 84.8401 94.7878 83.0252 97.4656 84.8401C97.4656 84.8401 102.256 99.3374 106.689 105.402L101.951 106.515C101.951 106.515 95.249 92.212 91.9091 84.8401H91.9166Z" fill="#301B39"/>
<path fill-rule="evenodd" clip-rule="evenodd" d="M60.5785 101.69C60.5785 101.69 62.0513 100.794 64.8928 100.771L65.2349 103.363L61.0397 103.849L60.5785 101.69Z" fill="url(#paint20_linear_0_192)"/>
<path fill-rule="evenodd" clip-rule="evenodd" d="M99.6302 101.541L103.632 100.152L105.083 102.758L100.701 103.841L99.6302 101.541Z" fill="#C99AB8"/>
<path fill-rule="evenodd" clip-rule="evenodd" d="M67.8607 119.235C67.8607 119.235 65.9491 119.541 65.473 119.84C65.0193 120.131 63.5241 123.388 63.4423 123.597C63.4423 123.597 57.2759 124.463 49.9193 123.649C49.9193 123.649 49.4135 121.588 49.9193 119.631L50.8268 119.108L50.9755 119.018C50.9755 119.018 50.9755 119.018 50.9978 119.018C51.4739 118.921 59.5446 117.278 63.3233 119.914C63.3233 119.914 64.2382 120.019 65.1755 118.727C66.1127 117.42 67.7864 117.293 67.7864 117.293C67.8533 118.473 67.8756 119.25 67.8756 119.25L67.8607 119.235Z" fill="#FFE3E2"/>
<path fill-rule="evenodd" clip-rule="evenodd" d="M122.593 117.285H101.735C101.735 117.285 101.378 115.463 101.274 113.626C101.066 109.943 99.8831 103.251 99.8831 103.251C100.478 102.825 101.735 102.571 102.858 102.43C104.026 102.273 105.045 102.235 105.045 102.235C105.045 102.235 108.43 107.262 112.893 109.413C113.711 109.809 114.537 110.167 115.34 110.481C118.925 111.908 122.072 112.61 122.072 112.61C123.098 114.507 122.585 117.293 122.585 117.293L122.593 117.285Z" fill="url(#paint21_linear_0_192)"/>
<path fill-rule="evenodd" clip-rule="evenodd" d="M117.735 111.348C117.735 111.348 115.883 112.498 115.459 114.895L101.468 115.597V117.973H122.719C122.719 117.973 123.857 113.954 122.719 111.99C122.719 111.99 119.223 111.714 117.735 111.348Z" fill="#C99AB8"/>
<g style="mix-blend-mode:soft-light">
<path fill-rule="evenodd" clip-rule="evenodd" d="M62.3712 115.515C60.1991 116.897 55.5948 116.27 55.5948 116.27C58.0494 114.686 60.4818 112.856 61.0471 111.504C62.2893 108.606 61.0471 103.834 61.0471 103.834L63.6729 103.528C64.7515 106.067 64.5432 114.133 62.3712 115.508V115.515Z" fill="#FFEADE"/>
</g>
<g style="mix-blend-mode:soft-light">
<path fill-rule="evenodd" clip-rule="evenodd" d="M115.355 110.474C115.199 110.526 112.633 111.333 109.211 109.592C105.678 107.8 102.873 102.422 102.873 102.422C104.041 102.265 105.06 102.228 105.06 102.228C105.06 102.228 108.445 107.255 112.908 109.406C113.726 109.801 114.552 110.16 115.355 110.474Z" fill="#FFEADE"/>
</g>
<path fill-rule="evenodd" clip-rule="evenodd" d="M59.0164 86.446C59.0164 86.446 61.8505 85.5796 63.8068 88.4925C63.8068 88.4925 63.658 84.1156 63.8068 81.8974C63.8068 81.8974 60.3479 80.1272 59.0388 81.8974L59.009 86.446H59.0164Z" fill="#301B39"/>
<path fill-rule="evenodd" clip-rule="evenodd" d="M48.4018 55.0688C48.4018 55.0688 51.9053 55.0688 51.0499 60.3568C51.0499 60.3568 41.5213 72.5089 37.5194 73.0242C33.5175 73.5396 24.8443 64.5021 24.8443 64.5021L26.7188 61.1037C26.7188 61.1037 33.2869 67.43 37.1028 67.2059C40.9188 66.9818 48.4093 55.0688 48.4093 55.0688H48.4018Z" fill="url(#paint22_linear_0_192)"/>
<path fill-rule="evenodd" clip-rule="evenodd" d="M67.8607 119.235C67.8607 119.235 65.9491 119.541 65.473 119.84C65.0193 120.131 63.5241 123.388 63.4423 123.597L63.3159 119.907C63.3159 119.907 64.2308 120.012 65.168 118.719C66.1053 117.412 67.7789 117.285 67.7789 117.285C67.8459 118.465 67.8682 119.242 67.8682 119.242L67.8607 119.235Z" fill="#C99AB8"/>
<path fill-rule="evenodd" clip-rule="evenodd" d="M27.3511 61.6863C27.0461 63.6357 24.8518 64.5021 24.8518 64.5021C19.273 63.9195 6.04748 66.6158 6.04748 66.6158L4.85733 65.6822L3.07211 65.376H2.0456C0.684373 65.2938 0.00747681 64.054 0.00747681 64.054L1.58442 62.5602V61.6863C1.58442 61.6863 7.11117 59.0124 11.8792 58.4821C16.6472 57.9443 20.2623 57.8174 20.2623 57.8174C20.2251 57.7128 19.8978 56.9808 19.1763 56.3759C19.0201 56.2489 18.8192 56.1144 18.5812 55.9651C17.6365 55.4049 16.2456 54.785 16.2456 54.785C14.9066 53.082 15.4943 49.7434 15.4943 49.7434C17.2125 48.7127 18.1423 49.4895 18.1423 49.4895C18.1423 49.4895 19.7565 54.1053 20.3888 54.4862C20.478 54.5385 20.6268 54.5908 20.8202 54.658C21.9731 55.0165 24.6733 55.4721 25.2758 56.1518C25.4989 56.4057 25.7965 57.0705 26.094 57.8547C26.7263 59.5054 27.366 61.6863 27.366 61.6863H27.3511Z" fill="url(#paint23_linear_0_192)"/>
<path style="mix-blend-mode:multiply" opacity="0.8" fill-rule="evenodd" clip-rule="evenodd" d="M26.0717 57.8547L24.0782 60.9767C24.0782 60.9767 19.868 59.3037 17.8671 59.7817C15.8662 60.2448 13.6718 62.8589 13.6718 62.8589L11.7006 63.4565C7.02187 63.5461 4.84985 65.6822 4.84985 65.6822L3.06463 65.376H2.03813C0.676896 65.2938 0 64.054 0 64.054L1.57695 62.5602V61.6863C1.57695 61.6863 7.10369 59.0124 11.8717 58.4821C16.6397 57.9443 20.2548 57.8174 20.2548 57.8174C20.2176 57.7128 19.8903 56.9808 19.1688 56.3759C19.0126 56.2489 18.8118 56.1144 18.5737 55.9651C19.3845 55.5244 20.1358 55.0763 20.8127 54.658C21.9657 55.0165 24.6658 55.4721 25.2683 56.1518C25.4915 56.4057 25.789 57.0705 26.0865 57.8547H26.0717Z" fill="url(#paint24_linear_0_192)"/>
<path fill-rule="evenodd" clip-rule="evenodd" d="M1.53976 65.2938C1.53976 65.2938 5.02838 62.732 10.7708 61.7535C10.7708 61.7535 6.04744 63.1726 2.31335 65.3834L1.53232 65.2938H1.53976Z" fill="#F47F81"/>
<path fill-rule="evenodd" clip-rule="evenodd" d="M0 64.054C0 64.054 3.43655 61.1859 9.72202 60.1253C9.72202 60.1253 6.40448 60.1253 1.57695 62.5602L0 64.054Z" fill="#F47F81"/>
<path fill-rule="evenodd" clip-rule="evenodd" d="M44.7123 60.3568C44.7123 60.3568 46.5199 64.4573 43.2098 69.1254C43.2098 69.1254 48.4762 64.1137 51.0499 60.3568C51.0499 60.3568 52.731 55.5841 48.5208 54.5684C48.5208 54.5684 46.4455 58.1759 44.7123 60.3568Z" fill="#301B39"/>
<path d="M151.907 42.1549H150.569V49.8928H151.907V42.1549Z" fill="url(#paint25_linear_0_192)"/>
<path d="M151.907 50.8488H150.569V53.5899H151.907V50.8488Z" fill="url(#paint26_linear_0_192)"/>
<path fill-rule="evenodd" clip-rule="evenodd" d="M57.7073 36.0378C56.7031 45.5832 51.8533 52.8878 46.8695 52.365C41.8858 51.8347 38.6501 43.6711 39.6542 34.1332C40.6584 24.5879 45.5083 17.2832 50.492 17.806C55.4758 18.3363 58.7115 26.4999 57.7073 36.0378Z" fill="url(#paint27_linear_0_192)"/>
<path fill-rule="evenodd" clip-rule="evenodd" d="M55.2749 35.8735C54.2707 45.4189 50.1127 52.7982 45.9769 52.3575C41.8411 51.9169 39.2972 43.828 40.3014 34.2901C41.3056 24.7447 45.4636 17.3654 49.5994 17.806C53.7352 18.2467 56.2791 26.3356 55.2749 35.8735Z" fill="url(#paint28_linear_0_192)"/>
<path fill-rule="evenodd" clip-rule="evenodd" d="M38.3674 47.3907C38.3674 47.3907 42.4139 51.9692 46.4157 52.3725L49.5994 17.7986C49.5994 17.7986 46.4083 17.3728 40.9187 20.3231L38.3674 47.3832V47.3907Z" fill="url(#paint29_linear_0_192)"/>
<path fill-rule="evenodd" clip-rule="evenodd" d="M49.6291 34.8204C48.796 42.7375 44.7718 48.7948 40.6361 48.3542C36.5003 47.9135 33.8225 41.1466 34.6482 33.2295C35.4813 25.3124 39.5054 19.255 43.6412 19.6957C47.777 20.1364 50.4548 26.9033 49.6291 34.8129V34.8204Z" fill="url(#paint30_radial_0_192)"/>
<path fill-rule="evenodd" clip-rule="evenodd" d="M40.9039 33.9017C40.6212 36.5831 39.26 38.637 37.8616 38.4876C36.4632 38.3383 35.5557 36.0453 35.8383 33.3714C36.121 30.69 37.4822 28.6435 38.8806 28.7854C40.2791 28.9348 41.1866 31.2278 40.9039 33.9017Z" fill="white"/>
<g style="mix-blend-mode:soft-light" opacity="0.7">
<path fill-rule="evenodd" clip-rule="evenodd" d="M47.7919 20.6293C47.7919 20.6293 49.8002 23.2883 50.1796 27.6427H54.3897C54.3897 27.6427 54.0253 23.2659 51.9425 20.1065L47.7844 20.6368L47.7919 20.6293Z" fill="white"/>
</g>
<path fill-rule="evenodd" clip-rule="evenodd" d="M48.3349 21.5032L53.1624 20.6219C53.1624 20.6219 67.0574 2.28551 94.7878 4.68305C122.526 7.07312 127.562 37.2553 127.562 37.2553L129.049 38.4354C129.049 38.4354 126.438 4.38429 94.7804 0.410794C65.3019 -3.28635 48.3349 21.5107 48.3349 21.5107V21.5032Z" fill="url(#paint31_radial_0_192)"/>
<path fill-rule="evenodd" clip-rule="evenodd" d="M40.9262 20.3306C40.9262 20.3306 64.2531 -0.672208 90.4512 0.0298759C90.4512 0.0298759 68.4261 -1.75521 48.3423 21.5032C48.3423 21.5032 46.0885 16.5811 40.9262 20.3306Z" fill="#301B39"/>
<path fill-rule="evenodd" clip-rule="evenodd" d="M159.457 40.2877L160.477 35.5225C160.477 35.5225 161.964 35.1789 162.73 36.0378L162.463 40.9076L159.457 40.2951V40.2877Z" fill="url(#paint32_linear_0_192)"/>
</g>
<defs>
<linearGradient id="paint0_linear_0_192" x1="107.441" y1="70.9852" x2="166.792" y2="70.9852" gradientUnits="userSpaceOnUse">
<stop stop-color="#684A72"/>
<stop offset="0.99" stop-color="#46255E"/>
</linearGradient>
<linearGradient id="paint1_linear_0_192" x1="123.247" y1="54.9568" x2="134.264" y2="54.9568" gradientUnits="userSpaceOnUse">
<stop offset="0.02" stop-color="#7C90F0"/>
<stop offset="1" stop-color="#7DA9F8"/>
</linearGradient>
<linearGradient id="paint2_linear_0_192" x1="120.096" y1="54.6186" x2="134.796" y2="56.16" gradientUnits="userSpaceOnUse">
<stop offset="0.02" stop-color="#7C90F0"/>
<stop offset="1" stop-color="#7DA9F8"/>
</linearGradient>
<linearGradient id="paint3_linear_0_192" x1="117.608" y1="53.6378" x2="132.301" y2="55.1783" gradientUnits="userSpaceOnUse">
<stop stop-color="#684A72"/>
<stop offset="0.99" stop-color="#46255E"/>
</linearGradient>
<linearGradient id="paint4_linear_0_192" x1="141.062" y1="72.7255" x2="141.062" y2="58.8033" gradientUnits="userSpaceOnUse">
<stop stop-color="#684A72"/>
<stop offset="0.99" stop-color="#46255E"/>
</linearGradient>
<linearGradient id="paint5_linear_0_192" x1="149.668" y1="55.7858" x2="165.624" y2="55.7858" gradientUnits="userSpaceOnUse">
<stop stop-color="#9B1A43"/>
<stop offset="1" stop-color="#731653"/>
</linearGradient>
<linearGradient id="paint6_linear_0_192" x1="149.668" y1="55.7858" x2="153.239" y2="55.7858" gradientUnits="userSpaceOnUse">
<stop stop-color="#FC4A1F"/>
<stop offset="1" stop-color="#CE1E53"/>
</linearGradient>
<linearGradient id="paint7_linear_0_192" x1="162.463" y1="50.5351" x2="165.996" y2="50.5351" gradientUnits="userSpaceOnUse">
<stop stop-color="#FFE3CD"/>
<stop offset="0.98" stop-color="#FFB3B1"/>
</linearGradient>
<linearGradient id="paint8_linear_0_192" x1="161.86" y1="55.4945" x2="167" y2="55.4945" gradientUnits="userSpaceOnUse">
<stop stop-color="#FFE3CD"/>
<stop offset="0.98" stop-color="#FFB3B1"/>
</linearGradient>
<linearGradient id="paint9_linear_0_192" x1="162.113" y1="58.6614" x2="166.338" y2="58.6614" gradientUnits="userSpaceOnUse">
<stop stop-color="#FFE3CD"/>
<stop offset="0.98" stop-color="#FFB3B1"/>
</linearGradient>
<linearGradient id="paint10_linear_0_192" x1="162.463" y1="62.0597" x2="165.267" y2="62.0597" gradientUnits="userSpaceOnUse">
<stop stop-color="#FFE3CD"/>
<stop offset="0.98" stop-color="#FFB3B1"/>
</linearGradient>
<linearGradient id="paint11_linear_0_192" x1="79.0938" y1="85.7154" x2="78.687" y2="20.6152" gradientUnits="userSpaceOnUse">
<stop offset="0.02" stop-color="#FF8E89"/>
<stop offset="1" stop-color="#FFB3B4"/>
</linearGradient>
<linearGradient id="paint12_linear_0_192" x1="69.3563" y1="84.2782" x2="75.672" y2="24.2329" gradientUnits="userSpaceOnUse">
<stop stop-color="#BF4263"/>
<stop offset="0.98" stop-color="#FF6A6F"/>
</linearGradient>
<linearGradient id="paint13_linear_0_192" x1="83.6429" y1="64.1901" x2="85.3484" y2="47.9755" gradientUnits="userSpaceOnUse">
<stop stop-color="white"/>
<stop offset="0.98" stop-color="#FBC9CE"/>
</linearGradient>
<linearGradient id="paint14_linear_0_192" x1="112.406" y1="70.7977" x2="114.018" y2="55.4744" gradientUnits="userSpaceOnUse">
<stop stop-color="white"/>
<stop offset="0.98" stop-color="#FBC9CE"/>
</linearGradient>
<linearGradient id="paint15_linear_0_192" x1="95.7994" y1="78.1778" x2="96.9768" y2="66.9604" gradientUnits="userSpaceOnUse">
<stop stop-color="#9B1A43"/>
<stop offset="1" stop-color="#731653"/>
</linearGradient>
<linearGradient id="paint16_linear_0_192" x1="90.9868" y1="69.3943" x2="102.324" y2="70.5797" gradientUnits="userSpaceOnUse">
<stop stop-color="#540068"/>
<stop offset="1" stop-color="#81899A"/>
</linearGradient>
<linearGradient id="paint17_linear_0_192" x1="98.9831" y1="69.1254" x2="98.9831" y2="67.1984" gradientUnits="userSpaceOnUse">
<stop stop-color="white"/>
<stop offset="0.98" stop-color="#FBC9CE"/>
</linearGradient>
<linearGradient id="paint18_linear_0_192" x1="62.6017" y1="109.592" x2="62.6017" y2="81.5463" gradientUnits="userSpaceOnUse">
<stop stop-color="#684A72"/>
<stop offset="0.99" stop-color="#46255E"/>
</linearGradient>
<linearGradient id="paint19_linear_0_192" x1="49.6812" y1="113.626" x2="67.8607" y2="113.626" gradientUnits="userSpaceOnUse">
<stop stop-color="#FC4A1F"/>
<stop offset="1" stop-color="#CE1E53"/>
</linearGradient>
<linearGradient id="paint20_linear_0_192" x1="60.5785" y1="102.31" x2="65.2349" y2="102.31" gradientUnits="userSpaceOnUse">
<stop offset="0.02" stop-color="#FFB3B1"/>
<stop offset="1" stop-color="#FFE3CD"/>
</linearGradient>
<linearGradient id="paint21_linear_0_192" x1="99.8906" y1="109.757" x2="122.719" y2="109.757" gradientUnits="userSpaceOnUse">
<stop stop-color="#9B1A43"/>
<stop offset="1" stop-color="#731653"/>
</linearGradient>
<linearGradient id="paint22_linear_0_192" x1="24.8443" y1="64.054" x2="51.1838" y2="64.054" gradientUnits="userSpaceOnUse">
<stop stop-color="#684A72"/>
<stop offset="0.99" stop-color="#46255E"/>
</linearGradient>
<linearGradient id="paint23_linear_0_192" x1="3.83843e-05" y1="57.9145" x2="27.3511" y2="57.9145" gradientUnits="userSpaceOnUse">
<stop stop-color="#FFE3CD"/>
<stop offset="0.98" stop-color="#FFB3B1"/>
</linearGradient>
<linearGradient id="paint24_linear_0_192" x1="0" y1="60.1701" x2="26.0717" y2="60.1701" gradientUnits="userSpaceOnUse">
<stop offset="0.02" stop-color="#E08893"/>
<stop offset="1" stop-color="#FFD1C7"/>
</linearGradient>
<linearGradient id="paint25_linear_0_192" x1="150.569" y1="46.0239" x2="151.907" y2="46.0239" gradientUnits="userSpaceOnUse">
<stop stop-color="#9B1A43"/>
<stop offset="1" stop-color="#731653"/>
</linearGradient>
<linearGradient id="paint26_linear_0_192" x1="150.569" y1="52.2231" x2="151.907" y2="52.2231" gradientUnits="userSpaceOnUse">
<stop stop-color="#9B1A43"/>
<stop offset="1" stop-color="#731653"/>
</linearGradient>
<linearGradient id="paint27_linear_0_192" x1="39.885" y1="34.1946" x2="58.0125" y2="36.0952" gradientUnits="userSpaceOnUse">
<stop stop-color="#684A72"/>
<stop offset="0.99" stop-color="#46255E"/>
</linearGradient>
<linearGradient id="paint28_linear_0_192" x1="47.775" y1="52.4061" x2="46.1281" y2="17.909" gradientUnits="userSpaceOnUse">
<stop offset="0.02" stop-color="#7C90F0"/>
<stop offset="1" stop-color="#7DA9F8"/>
</linearGradient>
<linearGradient id="paint29_linear_0_192" x1="43.9834" y1="52.3725" x2="43.9834" y2="17.7836" gradientUnits="userSpaceOnUse">
<stop offset="0.02" stop-color="#7C90F0"/>
<stop offset="1" stop-color="#7DA9F8"/>
</linearGradient>
<radialGradient id="paint30_radial_0_192" cx="0" cy="0" r="1" gradientTransform="matrix(11.3922 1.20431 -1.19938 11.439 42.1414 34.0309)" gradientUnits="userSpaceOnUse">
<stop stop-color="#5770C5"/>
<stop offset="0.98" stop-color="#3E5BB8"/>
</radialGradient>
<radialGradient id="paint31_radial_0_192" cx="0" cy="0" r="1" gradientUnits="userSpaceOnUse" gradientTransform="translate(88.6957 19.2326) scale(31.5761 31.7058)">
<stop stop-color="#684A72"/>
<stop offset="0.99" stop-color="#46255E"/>
</radialGradient>
<linearGradient id="paint32_linear_0_192" x1="159.457" y1="38.1814" x2="162.73" y2="38.1814" gradientUnits="userSpaceOnUse">
<stop stop-color="#684A72"/>
<stop offset="0.99" stop-color="#46255E"/>
</linearGradient>
<clipPath id="clip0_0_192">
<rect width="167" height="124" fill="white"/>
</clipPath>
</defs>
</svg>
