<svg width="130" height="98" viewBox="0 0 130 98" fill="none" xmlns="http://www.w3.org/2000/svg">
<g clip-path="url(#clip0_0_819)">
<path fill-rule="evenodd" clip-rule="evenodd" d="M104.189 26.9459C104.189 26.9459 104.122 23.4051 113.693 17.7115C123.265 12.018 129.993 10.3701 129.993 10.3701C129.993 10.3701 128.047 14.334 124.267 18.6543C120.48 22.9745 110.218 37.8505 110.218 37.8505C110.218 37.8505 104.768 31.1697 104.189 26.9385V26.9459Z" fill="url(#paint0_linear_0_819)"/>
<path fill-rule="evenodd" clip-rule="evenodd" d="M8.84389 41.3765V41.3987C11.5839 50.1654 17.5764 60.3277 23.9698 64.1803C25.0094 64.7964 26.0564 65.2641 27.1034 65.5239C27.1034 65.5239 29.2123 65.9767 32.6578 66.3033C37.5735 66.7784 45.2071 66.9936 53.2564 65.2789C53.2564 65.2789 56.3974 63.8685 57.6672 61.9756C57.6672 61.9756 76.8772 59.1623 85.6766 55.9184C87.2434 55.3468 95.9165 43.106 93.9561 24.5631C93.4809 20.0498 92.3671 15.158 90.3696 9.96925C90.3696 9.96925 76.9292 -1.32131 55.0311 0.133619C33.1405 1.59597 25.8856 6.36161 23.6802 7.57158C18.5937 10.3478 10.1434 21.1039 7.63352 29.8261C6.85383 32.5429 7.38847 36.7741 8.83646 41.3839L8.84389 41.3765Z" fill="url(#paint1_linear_0_819)"/>
<path style="mix-blend-mode:multiply" opacity="0.3" fill-rule="evenodd" clip-rule="evenodd" d="M71.1892 14.7052C71.1892 14.7052 68.3527 22.2248 65.5903 23.9099C62.828 25.6023 54.0732 26.8271 50.0263 24.6151C45.9867 22.4104 45.3778 15.5737 45.3778 15.5737C45.3778 15.5737 43.8853 17.8378 43.4917 19.2407C43.0982 20.6437 51.1772 30.2566 55.4321 30.5536C62.5978 31.0657 72.2808 24.2884 72.2808 24.2884L73.3055 20.7847L71.1892 14.6904V14.7052Z" fill="url(#paint2_linear_0_819)"/>
<path style="mix-blend-mode:multiply" opacity="0.3" fill-rule="evenodd" clip-rule="evenodd" d="M72.3773 15.1135C72.3773 15.1135 76.9367 21.3192 79.5282 23.65C82.1197 25.9809 85.1197 24.3924 86.8795 22.7964C88.6394 21.2004 86.33 14.2227 86.33 14.2227C86.33 14.2227 88.6988 16.2195 89.0404 18.0901C89.3745 19.9608 88.3647 27.1835 86.5825 27.9035C84.8004 28.6161 78.5926 26.6787 76.1273 24.5631C73.662 22.4401 72.3848 15.1209 72.3848 15.1209L72.3773 15.1135Z" fill="url(#paint3_linear_0_819)"/>
<path style="mix-blend-mode:multiply" opacity="0.3" fill-rule="evenodd" clip-rule="evenodd" d="M83.1593 16.5907C83.1593 16.5907 83.3004 18.8324 81.2732 19.4931C79.246 20.1538 78.5183 17.8526 78.5183 17.8526C78.5183 17.8526 78.5257 20.7328 79.298 21.5493C80.0703 22.3659 83.5826 22.1432 84.1098 21.4528C84.637 20.7625 84.3623 17.4517 84.3623 17.4517L83.1667 16.5907H83.1593Z" fill="url(#paint4_linear_0_819)"/>
<path style="mix-blend-mode:multiply" opacity="0.3" fill-rule="evenodd" clip-rule="evenodd" d="M40.7517 13.0721C40.7517 13.0721 34.1652 20.6957 28.4698 20.9555C22.7817 21.2153 20.7026 18.1866 20.7026 18.1866L21.8016 14.7497C21.8016 14.7497 18.3338 19.315 18.1482 20.5027C17.9625 21.6829 24.9055 25.8696 27.6455 25.4464C30.3856 25.0233 39.1329 19.6935 40.7443 13.0721H40.7517Z" fill="url(#paint5_linear_0_819)"/>
<path style="mix-blend-mode:multiply" opacity="0.3" fill-rule="evenodd" clip-rule="evenodd" d="M65.3379 2.28632C65.3379 2.28632 63.979 3.87487 58.3429 3.11771C52.7069 2.35313 51.7119 0.386002 51.7119 0.386002L47.9248 0.779427C47.9248 0.779427 60.6672 6.4878 68.2784 6.12407C68.2784 6.12407 72.8897 5.70838 75.1694 3.13998C75.1694 3.13998 71.412 4.13468 69.6744 3.57794C67.9368 3.02121 67.3799 1.93743 67.3799 1.93743L65.3379 2.28632Z" fill="url(#paint6_linear_0_819)"/>
<path style="mix-blend-mode:multiply" opacity="0.3" fill-rule="evenodd" clip-rule="evenodd" d="M62.6721 13.8293C62.6721 13.8293 60.7563 16.4496 58.4024 16.8059C56.041 17.1622 55.098 15.1803 55.098 15.1803L54.6079 18.0308C54.6079 18.0308 58.3132 20.4136 59.5459 20.2132C60.7785 20.0127 62.6721 13.8293 62.6721 13.8293Z" fill="url(#paint7_linear_0_819)"/>
<path fill-rule="evenodd" clip-rule="evenodd" d="M61.677 0.066803L67.068 3.32555C67.068 3.32555 72.0358 14.6458 73.8996 25.9215C75.7634 37.1898 75.5406 49.7423 75.5406 49.7423C75.5406 49.7423 76.7659 36.7147 74.7461 24.4072C72.7263 12.0923 67.7883 2.5387 67.7883 2.5387L67.4764 0.653229L61.677 0.0742261V0.066803Z" fill="#F47F81"/>
<path fill-rule="evenodd" clip-rule="evenodd" d="M73.8402 24.0509C73.8402 24.0509 71.0259 26.2333 69.9789 27.0053C68.0631 28.4157 58.2093 31.4221 55.447 31.3701C52.6846 31.3181 42.816 21.5345 42.467 19.4263C42.118 17.3181 47.0189 7.2895 50.7466 6.68822C52.3505 6.42841 61.4468 10.9491 62.4716 12.6341C63.4963 14.3192 60.4221 20.614 59.8503 20.8738C59.2786 21.1336 55.0089 19.1145 55.0089 19.1145L52.7663 20.5249L55.098 15.1951L55.2762 18.3128C55.2762 18.3128 58.0385 19.9014 59.2563 19.9608C60.4741 20.0276 62.776 14.4528 61.9889 12.983C61.2018 11.5132 53.2861 7.74973 50.7391 8.42523C48.1922 9.09331 44.0412 17.1919 44.3754 19.5005C44.7095 21.8091 52.3431 30.5387 55.4247 30.5832C59.6276 30.6426 68.1076 26.9459 69.4516 25.3722C70.7957 23.8059 72.5704 19.211 72.5704 19.211L73.8328 24.0583L73.8402 24.0509Z" fill="#F47F81"/>
<path fill-rule="evenodd" clip-rule="evenodd" d="M73.7808 23.6797C73.7808 23.6797 74.7461 24.4072 76.8772 25.6023C78.8896 26.7306 85.387 28.8908 87.1617 28.3192C88.9364 27.7476 90.5626 19.5822 89.5453 16.8282C88.528 14.0742 82.0083 8.41039 79.7658 9.11558C77.5233 9.82078 77.8277 20.7847 78.8822 22.0689C79.9366 23.3531 83.8722 21.9798 84.3177 21.6235C84.7632 21.2672 84.934 17.9268 84.934 17.9268L86.2632 17.3701L83.1519 16.5907L84.236 18.0456C84.236 18.0456 84.1469 20.6956 83.7682 21.3712C83.3895 22.0467 79.8846 21.9205 79.0604 20.8812C78.2361 19.842 78.0728 12.0254 80.1594 10.9194C82.246 9.82078 88.0825 15.3881 88.684 17.4443C89.2854 19.5005 87.8449 27.1612 85.9513 27.755C84.0578 28.3489 79.298 26.5005 77.4193 25.105C75.5481 23.7094 73.0456 16.702 73.0456 16.702L73.7659 23.6797H73.7808Z" fill="#F47F81"/>
<path fill-rule="evenodd" clip-rule="evenodd" d="M76.3278 2.76882C76.3278 2.76882 72.6595 5.84942 69.7338 6.88865H68.5012C68.5012 6.88865 52.0683 3.80806 45.9793 0.95016L49.3431 0.616119C49.3431 0.616119 53.6425 3.51856 61.885 5.16649C67.1571 6.21315 68.1596 4.79533 68.1596 4.79533L68.969 4.87699C68.969 4.87699 70.0457 5.79746 72.3105 4.95864C74.5753 4.11983 74.9392 2.33086 74.9392 2.33086L76.3278 2.76882Z" fill="#F47F81"/>
<path fill-rule="evenodd" clip-rule="evenodd" d="M29.6356 4.74336C29.6356 4.74336 39.0438 4.83986 40.8928 6.69564C42.7343 8.55142 41.1007 20.6214 27.497 24.7635C27.497 24.7635 21.111 23.8727 19.4328 19.8346C19.4328 19.8346 20.9625 14.2598 27.1034 10.5557C27.1034 10.5557 30.3187 9.6055 32.9548 11.2831C32.9548 11.2831 31.7147 15.8706 28.9895 17.7784L26.3832 17.9788L30.6083 19.4189L30.0514 18.0901C30.0514 18.0901 32.888 14.8314 33.9944 11.2757C33.9944 11.2757 30.8682 9.37539 26.5762 9.90985C26.5762 9.90985 19.7521 14.9056 17.2348 20.8293C17.2348 20.8293 21.5639 26.6416 27.8906 26.1591C27.8906 26.1591 43.4472 20.5843 42.3631 6.45068C42.3631 6.45068 39.8012 4.58748 35.6132 4.03817L35.435 2.95439C35.435 2.95439 31.3954 4.03074 29.6356 4.73594V4.74336Z" fill="#F47F81"/>
<path fill-rule="evenodd" clip-rule="evenodd" d="M92.9611 18.5058C92.9611 18.5058 93.2952 31.1029 92.4265 34.0053C91.5502 36.9077 88.9141 38.5557 88.9141 38.5557C88.9141 38.5557 86.8721 33.0329 81.9341 33.9236C76.9589 34.8218 75.3104 39.7508 75.3104 39.7508C75.3104 39.7508 74.8278 39.5801 69.6818 37.7243C64.3428 35.8017 60.2588 32.7953 53.9618 34.1686C47.6649 35.5419 47.1897 39.5058 46.7961 39.3499C46.4026 39.1866 41.7022 30.2937 38.7988 29.0838C35.8879 27.8738 27.8534 28.0445 25.1134 29.6257C22.3808 31.2142 26.5985 45.088 27.9203 46.7434C29.2494 48.3987 38.4572 46.2906 38.9102 44.9395C39.3631 43.596 37.477 36.2174 35.6577 35.4157C33.8385 34.614 31.091 34.666 31.091 34.666L30.0291 32.3128L31.0539 38.5334L31.544 35.3712C31.544 35.3712 34.8929 35.9056 35.7023 36.7518C36.5117 37.5981 38.524 42.631 38.0042 44.264C37.4844 45.8971 30.1034 46.7359 28.5143 45.7116C26.9252 44.6872 25.6406 34.7179 25.8856 32.4316C26.1307 30.1453 35.9993 28.438 38.6131 29.8112C41.2195 31.1845 45.1699 41.3468 45.5115 41.6882C45.8457 42.0297 48.5115 41.5546 48.5115 41.5546C48.5115 41.5546 52.8257 37.0933 58.692 37.0562C64.5582 37.0117 72.7189 39.6988 72.7189 39.6988L75.8748 42.7943C75.8748 42.7943 77.7312 36.3436 81.9118 36.106C86.0924 35.8685 87.3102 39.8547 87.3102 39.8547L87.2731 42.1559C87.2731 42.1559 90.08 39.9364 92.1369 35.8908C94.1937 31.8452 94.1492 25.8176 94.1492 25.8176L92.9462 18.491L92.9611 18.5058Z" fill="#F47F81"/>
<path fill-rule="evenodd" clip-rule="evenodd" d="M55.6103 62.0795C55.6103 62.0795 48.3926 53.4316 44.8061 53.1718C41.2195 52.9194 38.3532 56.5048 37.8557 58.1082C37.3582 59.7115 39.029 61.983 39.029 61.983L41.6948 62.2428C41.6948 62.2428 38.5834 59.9862 38.4646 58.5387C38.3458 57.0912 41.4274 54.5525 44.8952 54.7455C48.3629 54.9385 51.6228 61.211 51.6228 61.211L50.5535 62.3022C50.5535 62.3022 54.8381 62.4878 55.6029 62.0795H55.6103Z" fill="#F47F81"/>
<path fill-rule="evenodd" clip-rule="evenodd" d="M12.0666 49.3637C12.0666 49.3637 17.22 54.0774 19.5813 54.1071C21.9501 54.1368 25.3733 52.912 25.6109 52.2958C25.8485 51.6723 25.4253 42.0816 22.3808 33.8123C19.3363 25.5429 14.2869 23.0339 12.9874 22.6553C11.6879 22.2768 8.73993 30.1824 9.39339 36.2248C10.0468 42.2672 16.9007 47.1887 18.1407 47.5451C19.3808 47.9014 20.7694 41.6511 19.559 37.3605C18.3487 33.07 15.4898 29.7147 14.1086 29.8335C12.7201 29.9523 12.8389 35.438 13.8487 37.8579C13.8487 37.8579 13.1507 31.0732 14.5096 30.9321C15.8685 30.7911 18.7422 35.6087 19.3214 39.3796C19.908 43.1506 18.215 45.7635 17.0863 45.9862C15.9576 46.2015 10.0691 40.8791 9.98743 35.631C9.90575 30.3828 11.8438 26.2481 13.2918 25.6172C14.7324 24.9862 19.9526 28.4305 22.2248 35.8685C24.4971 43.3065 23.9401 51.7911 23.1902 52.7041C22.4402 53.6172 19.8783 53.6543 16.7373 51.7243C13.5889 49.7943 8.82904 41.3839 8.82904 41.3839C8.82904 41.3839 10.3067 46.105 12.0592 49.3711L12.0666 49.3637Z" fill="#F47F81"/>
<path style="mix-blend-mode:multiply" opacity="0.5" fill-rule="evenodd" clip-rule="evenodd" d="M8.84389 41.3765V41.3987C11.5839 50.1654 17.5764 60.3277 23.9698 64.1803L32.6578 66.3033C37.5735 66.7784 45.2071 66.9936 53.2564 65.2789C53.2564 65.2789 56.3974 63.8685 57.6672 61.9756C57.6672 61.9756 76.8772 59.1622 85.6766 55.9183C87.2434 55.3468 95.9165 43.106 93.9561 24.5631H93.9487C93.9487 24.5631 93.2878 31.0509 90.4215 33.6564C90.4215 33.6564 92.6418 55.5249 73.8402 57.4104C49.1946 59.8823 48.1105 40.7752 48.1105 40.7752L42.4299 34.6066C42.4299 34.6066 42.5932 36.6628 40.2468 37.9618C37.8928 39.2609 36.831 37.9841 36.831 37.9841C36.8533 38.1251 37.2691 40.842 35.0117 42.2078C32.6949 43.6182 25.596 41.1092 25.0688 38.526C25.0688 38.526 25.3064 40.4708 24.3634 40.9088C23.4203 41.3468 19.1135 38.4072 19.1135 38.4072C19.1135 38.4072 15.371 41.9332 11.9849 41.2874L8.82904 41.3839L8.84389 41.3765Z" fill="url(#paint8_linear_0_819)"/>
<path fill-rule="evenodd" clip-rule="evenodd" d="M87.0429 43.789C87.0429 43.789 86.4785 48.473 82.9217 48.7476C79.3722 49.0223 77.798 43.0689 77.798 43.0689L87.0355 43.789H87.0429Z" fill="#CE5870"/>
<path fill-rule="evenodd" clip-rule="evenodd" d="M67.5655 43.6034C67.5655 43.6034 67.9294 52.4072 59.5236 53.3277C51.1178 54.2407 49.1946 45.9194 49.1946 45.9194L67.5581 43.6034H67.5655Z" fill="#CE5870"/>
<path fill-rule="evenodd" clip-rule="evenodd" d="M67.3502 39.2609C67.3502 39.2609 69.0432 46.5801 64.1275 50.3955C59.4568 54.0254 52.8851 52.3552 50.6797 49.2301C48.4817 46.105 48.5114 41.5695 48.5114 41.5695C48.5114 41.5695 55.7885 33.5154 67.3502 39.2609Z" fill="url(#paint9_linear_0_819)"/>
<g style="mix-blend-mode:multiply">
<path fill-rule="evenodd" clip-rule="evenodd" d="M67.6027 43.106C67.6027 43.106 62.0186 41.9183 56.2118 43.0392C50.4124 44.1601 49.2986 46.3722 49.2986 46.3722C49.2986 46.3722 48.5412 43.3065 48.5115 41.5695C48.5115 41.5695 50.2119 38.1251 56.8504 37.0339C63.4815 35.9427 67.3576 39.2609 67.3576 39.2609C67.3576 39.2609 67.7586 41.755 67.6101 43.1135L67.6027 43.106Z" fill="#D9CCDA"/>
</g>
<path fill-rule="evenodd" clip-rule="evenodd" d="M87.3176 39.877C87.3176 39.877 87.9414 47.6861 83.2261 48.0647C78.5109 48.4433 76.9738 41.5694 77.1223 38.8823C77.1223 38.8823 78.7708 35.824 82.2757 35.7349C85.7805 35.6458 87.3176 39.877 87.3176 39.877Z" fill="url(#paint10_linear_0_819)"/>
<g style="mix-blend-mode:multiply">
<path fill-rule="evenodd" clip-rule="evenodd" d="M87.3176 39.877L87.2805 42.1782C87.2805 42.1782 84.882 39.7879 81.392 40.0032C78.0431 40.2184 77.501 42.2078 77.501 42.2078C77.501 42.2078 76.9812 40.3595 77.1149 38.8749C77.1149 38.8749 78.3698 36.21 81.5182 35.7943C84.6741 35.3712 87.3102 39.8696 87.3102 39.8696L87.3176 39.877Z" fill="#D9CCDA"/>
</g>
<path fill-rule="evenodd" clip-rule="evenodd" d="M57.6672 61.9608C57.6672 61.9608 47.2937 62.6214 40.7294 62.1834C34.1652 61.7455 25.5886 56.7423 25.5886 56.7423C25.5886 56.7423 18.8388 55.0573 16.6036 56.9056C16.6036 56.9056 21.1555 63.7943 26.4797 66.1251C31.8113 68.456 50.3976 66.3775 53.7168 65.264C56.3974 64.3658 57.6746 61.9608 57.6746 61.9608H57.6672Z" fill="url(#paint11_linear_0_819)"/>
<path fill-rule="evenodd" clip-rule="evenodd" d="M37.0909 96.7826C44.962 97.666 52.4544 95.7137 52.4544 95.7137C51.7119 88.3796 51.749 81.825 52.098 76.4952C52.2985 73.4146 52.5955 70.7423 52.9 68.5673C53.4866 64.4252 54.1029 62.0647 54.1029 62.0647L50.0114 62.2874C50.0114 62.2874 49.0238 64.878 48.3852 69.7105C48.2961 70.386 48.2219 71.0912 48.1624 71.8261C48.0808 72.7985 48.0065 73.8377 47.9397 74.9141C47.6427 79.264 47.3308 84.141 46.5288 86.7762C45.6006 89.8271 37.9077 93.2863 37.9077 93.2863C36.7939 94.8377 37.076 96.7826 37.076 96.7826H37.0909Z" fill="url(#paint12_linear_0_819)"/>
<path fill-rule="evenodd" clip-rule="evenodd" d="M37.0909 96.7826C44.962 97.6659 52.4544 95.7137 52.4544 95.7137C51.7119 88.3796 51.749 81.825 52.098 76.4952L47.9545 74.9215C47.6575 79.2715 47.3456 84.1484 46.5437 86.7837C45.6155 89.8346 37.9225 93.2937 37.9225 93.2937C36.8087 94.8452 37.0909 96.79 37.0909 96.79V96.7826Z" fill="url(#paint13_linear_0_819)"/>
<path fill-rule="evenodd" clip-rule="evenodd" d="M52.4544 95.7137V97.0127C52.4544 97.0127 45.0882 98.8314 37.0612 97.5323L37.0909 96.7826C37.0909 96.7826 42.5561 97.1389 52.4544 95.7137Z" fill="url(#paint14_linear_0_819)"/>
<g style="mix-blend-mode:multiply">
<path fill-rule="evenodd" clip-rule="evenodd" d="M48.4075 69.7105C50.5238 67.825 52.7515 68.5154 52.9074 68.5673C53.494 64.4252 54.1104 62.0647 54.1104 62.0647L50.0188 62.2874C50.0188 62.2874 49.0312 64.878 48.3926 69.7105H48.4075Z" fill="#5E364C"/>
</g>
<path fill-rule="evenodd" clip-rule="evenodd" d="M77.4267 25.105C77.4267 25.105 74.4639 24.6225 73.8402 24.0509L70.7734 26.4114C70.7734 26.4114 71.4491 21.8908 73.0753 19.5302C73.0753 19.5302 76.3352 24.7116 77.4267 25.1124V25.105Z" fill="#CE5870"/>
<path fill-rule="evenodd" clip-rule="evenodd" d="M84.934 17.9268L86.2632 17.3701L83.1593 16.5907L84.236 18.0456L84.1989 18.8324L84.934 17.9268Z" fill="#CE5870"/>
<path fill-rule="evenodd" clip-rule="evenodd" d="M87.585 25.4242C87.585 25.4242 86.887 27.4507 85.8548 27.7773C84.8226 28.1039 82.6766 27.473 82.6766 27.473C82.6766 27.473 85.3424 28.7497 86.6271 28.4008C87.9043 28.0445 87.585 25.4242 87.585 25.4242Z" fill="#CE5870"/>
<path fill-rule="evenodd" clip-rule="evenodd" d="M59.984 29.789C59.984 29.789 56.6796 30.9915 54.9123 30.4867C53.7613 30.1601 50.5906 28 50.5906 28C50.5906 28 53.4792 31.1326 55.4618 31.3701C57.437 31.6076 59.9914 29.789 59.9914 29.789H59.984Z" fill="#CE5870"/>
<path fill-rule="evenodd" clip-rule="evenodd" d="M77.954 36.017L75.2659 38.9936L70.7214 38.1103L72.7189 39.7063L75.4218 42.1781C75.4218 42.1781 77.7386 38.0212 77.9614 36.0095L77.954 36.017Z" fill="#CE5870"/>
<path fill-rule="evenodd" clip-rule="evenodd" d="M88.476 39.4761C88.476 39.4761 87.5256 34.369 83.538 33.8643C78.6223 33.2407 76.855 37.2418 76.855 37.2418L77.1223 38.8823C77.1223 38.8823 79.053 35.7349 82.2757 35.7349C85.4984 35.7349 88.476 39.4836 88.476 39.4836V39.4761Z" fill="#B53F70"/>
<path fill-rule="evenodd" clip-rule="evenodd" d="M67.1943 38.2068C67.1943 38.2068 64.4839 34.3171 57.6598 33.8271C54.0138 33.5599 48.6006 35.6532 46.7961 39.3574L47.1748 41.6437C47.1748 41.6437 49.7292 37.1453 57.2514 36.737C64.7735 36.3287 67.1943 38.2068 67.1943 38.2068Z" fill="#B53F70"/>
<path fill-rule="evenodd" clip-rule="evenodd" d="M37.8112 41.7476C37.8112 41.7476 38.3607 44.0562 37.6923 44.754C37.024 45.4517 33.4078 46.1347 33.4078 46.1347C33.4078 46.1347 37.3359 46.4019 38.4349 45.4517C39.5339 44.5016 37.8112 41.755 37.8112 41.755V41.7476Z" fill="#CE5870"/>
<path fill-rule="evenodd" clip-rule="evenodd" d="M32.9028 22.3881C32.9028 22.3881 28.6925 24.6002 27.497 24.7635C26.3015 24.9268 22.4179 22.9894 22.4179 22.9894C22.4179 22.9894 23.9179 26.1071 27.8906 26.1591C27.8906 26.1591 30.5341 25.3128 32.8954 22.3881H32.9028Z" fill="#CE5870"/>
<path fill-rule="evenodd" clip-rule="evenodd" d="M30.6083 19.4189L30.0588 18.0975L29.539 17.3404L28.9895 17.7784L26.3832 17.9788L30.6083 19.4189Z" fill="#CE5870"/>
<path fill-rule="evenodd" clip-rule="evenodd" d="M44.7987 17.0954C44.7987 17.0954 44.0264 18.5355 44.3828 19.4857C44.7392 20.4358 46.0016 22.4401 46.0016 22.4401C46.0016 22.4401 43.2244 20.9035 42.8903 19.6416C42.5561 18.387 44.7987 17.0954 44.7987 17.0954Z" fill="#CE5870"/>
<path fill-rule="evenodd" clip-rule="evenodd" d="M72.3105 4.95121C72.3105 4.95121 69.9046 6.56203 68.8576 6.65853C67.8106 6.75503 64.8478 5.53764 64.8478 5.53764C64.8478 5.53764 67.2091 5.51537 67.6472 5.35949C68.0853 5.2036 68.2784 4.47614 68.2784 4.47614C68.2784 4.47614 69.0729 5.21102 69.9195 5.34464C70.766 5.47826 72.3031 4.95121 72.3031 4.95121H72.3105Z" fill="#CE5870"/>
<path fill-rule="evenodd" clip-rule="evenodd" d="M23.851 46.6098C23.851 46.6098 24.1629 51.7985 23.1976 52.6893C22.2322 53.5875 20.2645 53.1718 20.2645 53.1718C20.2645 53.1718 21.4526 54.1145 25.1654 52.6967C25.1654 52.6967 25.6257 52.8006 25.596 50.8261C25.5663 48.8515 23.851 46.6098 23.851 46.6098Z" fill="#CE5870"/>
<path fill-rule="evenodd" clip-rule="evenodd" d="M19.4328 40.701C19.4328 40.701 20.1531 45.1919 17.0937 45.9714C17.0937 45.9714 16.2398 45.9268 15.0665 44.8134C15.0665 44.8134 15.8165 46.9735 18.1407 47.5376C18.1407 47.5376 20.5021 45.3404 19.4328 40.6935V40.701Z" fill="#CE5870"/>
<path fill-rule="evenodd" clip-rule="evenodd" d="M47.5238 54.3372C47.5238 54.3372 46.0536 53.7508 43.0239 54.8939C39.9943 56.0371 38.9844 57.2397 38.9844 57.2397C38.9844 57.2397 40.0388 54.2556 42.5413 53.3945C45.0437 52.5334 47.5238 54.3298 47.5238 54.3298V54.3372Z" fill="#CE5870"/>
<path fill-rule="evenodd" clip-rule="evenodd" d="M21.4526 15.8484C21.4526 15.8484 19.1506 19.263 19.4328 19.842C19.715 20.4136 19.8561 21.2004 21.1333 22.0986C21.1333 22.0986 18.861 21.772 18.1482 20.5027C17.4353 19.2259 21.4451 15.8558 21.4451 15.8558L21.4526 15.8484Z" fill="#CE5870"/>
<path fill-rule="evenodd" clip-rule="evenodd" d="M13.8784 31.8823C13.8784 31.8823 13.2176 35.1707 13.8562 37.8505C13.8562 37.8505 13.121 35.5493 13.1062 34.0276C13.0913 32.5058 13.8784 31.8749 13.8784 31.8749V31.8823Z" fill="#CE5870"/>
<g style="mix-blend-mode:soft-light" opacity="0.7">
<path fill-rule="evenodd" clip-rule="evenodd" d="M37.9225 93.2863C37.9225 93.2863 44.962 93.2863 48.905 90.0127L45.5709 88.2831C45.5709 88.2831 43.2021 91.3489 37.93 93.2863H37.9225Z" fill="white"/>
</g>
<g style="mix-blend-mode:soft-light" opacity="0.7">
<path fill-rule="evenodd" clip-rule="evenodd" d="M60.5632 8.38812C60.5632 8.38812 62.8651 11.8844 64.8478 12.3892C64.8478 12.3892 66.4368 14.0965 66.6893 14.6235C66.9418 15.1506 65.4418 18.8399 63.2884 20.3542C61.135 21.8759 58.7217 22.0986 58.7217 22.0986C58.7217 22.0986 53.9099 21.2746 50.8876 21.6235C50.8876 21.6235 52.6178 23.4348 55.2762 23.5832C57.9345 23.7391 58.3875 22.4401 58.7514 22.3139C59.1152 22.1877 62.234 22.4327 65.3601 20.7031C68.4937 18.9661 68.4863 15.8483 68.0631 14.8462C67.6472 13.8367 65.724 13.3171 65.0557 12.3372C64.3874 11.3574 64.9146 10.9788 64.172 9.66489C63.4295 8.351 60.5484 8.37327 60.5484 8.37327L60.5632 8.38812Z" fill="white"/>
</g>
<g style="mix-blend-mode:soft-light" opacity="0.7">
<path fill-rule="evenodd" clip-rule="evenodd" d="M57.0063 11.6617C57.0063 11.6617 53.8579 9.32343 51.4223 9.88759C48.9867 10.4517 46.3506 15.5366 46.6848 17.088C46.6848 17.088 47.7615 15.8261 48.8679 14.1633C49.9743 12.5079 49.5362 11.5875 50.2045 10.8377C50.8728 10.088 51.6228 10.0435 51.9718 10.1548C52.3282 10.2662 53.4198 11.9438 54.7787 11.8324C56.1375 11.7211 57.0063 11.6617 57.0063 11.6617Z" fill="white"/>
</g>
<g style="mix-blend-mode:soft-light" opacity="0.7">
<path fill-rule="evenodd" clip-rule="evenodd" d="M28.4846 6.79214C28.4846 6.79214 36.727 6.67338 38.1453 7.79427C39.5636 8.90773 37.6329 13.5546 36.0439 14.4899C36.0439 14.4899 35.383 13.2206 35.6652 11.9957C35.9399 10.7709 38.3458 9.67231 38.2493 8.737C38.1527 7.79427 36.779 6.9703 34.3434 7.36373C31.9078 7.75715 28.9821 8.18769 28.492 6.79957L28.4846 6.79214Z" fill="white"/>
</g>
<g style="mix-blend-mode:soft-light" opacity="0.7">
<path fill-rule="evenodd" clip-rule="evenodd" d="M50.1599 30.8282C50.1599 30.8282 46.1947 30.6946 44.3977 28.8759C42.6007 27.0573 42.6749 25.4242 41.1155 23.9915C39.5562 22.5589 34.685 23.9767 33.3706 25.2609C33.3706 25.2609 33.4226 26.2184 34.8261 25.7953C36.2295 25.3648 36.6602 24.0361 38.1156 23.7243C39.5636 23.4199 40.7888 23.6278 41.1601 24.2662C41.5314 24.8971 40.7962 26.9385 41.524 28.8017C42.2517 30.6649 44.0784 29.7444 46.3729 30.8356C48.66 31.9268 49.1129 31.9046 49.1129 31.9046C49.1129 31.9046 50.1674 31.8674 50.1674 30.8282H50.1599Z" fill="white"/>
</g>
<g style="mix-blend-mode:soft-light" opacity="0.7">
<path fill-rule="evenodd" clip-rule="evenodd" d="M80.9391 6.48038C80.9391 6.48038 77.6792 5.91622 76.4985 6.55461C75.3179 7.193 74.5085 11.491 74.5085 11.491C74.5085 11.491 73.5877 8.13573 74.6273 5.7158C75.6669 3.29586 80.9391 6.48038 80.9391 6.48038Z" fill="white"/>
</g>
<g style="mix-blend-mode:soft-light" opacity="0.7">
<path fill-rule="evenodd" clip-rule="evenodd" d="M21.512 46.877C21.512 46.877 22.2174 41.8218 21.809 37.702C21.4006 33.5822 19.1803 31.7858 18.7274 31.0806C18.2744 30.3754 15.4824 27.228 13.7745 27.4284C12.0666 27.6288 11.5171 30.9767 11.5171 30.9767C11.5171 30.9767 12.3042 27.7476 13.6557 27.7328C15.0071 27.7179 15.5938 29.0986 16.2843 29.7147C16.9749 30.3308 18.512 30.6129 19.6259 32.7879C20.7397 34.9629 20.1902 39.4687 20.361 41.5472C20.5318 43.6257 21.512 46.8696 21.512 46.8696V46.877Z" fill="white"/>
</g>
<g style="mix-blend-mode:soft-light" opacity="0.7">
<path fill-rule="evenodd" clip-rule="evenodd" d="M42.2368 38.8674C42.2368 38.8674 40.0908 33.9236 38.6354 31.6744C37.1874 29.4252 32.591 29.6331 29.4871 30.9841C29.4871 30.9841 30.096 31.8749 31.5885 31.9565C33.0811 32.0382 35.4053 30.7762 36.5785 30.7911C37.7518 30.8059 37.2468 33.1665 38.1305 35.6384C39.0067 38.1103 42.2368 38.8674 42.2368 38.8674Z" fill="white"/>
</g>
<g style="mix-blend-mode:soft-light" opacity="0.7">
<path fill-rule="evenodd" clip-rule="evenodd" d="M85.8474 30.8134C85.8474 30.8134 84.3251 28.527 78.6223 29.7222C78.6223 29.7222 82.9811 31.3998 85.8474 30.8134Z" fill="white"/>
</g>
<g style="mix-blend-mode:soft-light" opacity="0.7">
<path fill-rule="evenodd" clip-rule="evenodd" d="M54.5262 55.4581C54.5262 55.4581 51.4371 49.9056 46.863 50.2693C46.863 50.2693 48.6971 54.9756 54.5262 55.4581Z" fill="white"/>
</g>
<path fill-rule="evenodd" clip-rule="evenodd" d="M84.4291 14.8537C84.4291 14.8537 82.8994 12.6416 81.444 13.0201C79.9886 13.3987 79.6396 14.4751 79.6396 14.4751C79.6396 14.4751 83.7831 14.4454 84.4291 14.8537Z" fill="white"/>
<path fill-rule="evenodd" clip-rule="evenodd" d="M61.0904 1.44009C61.0904 1.44009 58.5137 3.10286 54.7861 1.19512C54.7861 1.19512 58.2984 -0.126192 61.0904 1.44009Z" fill="white"/>
<path fill-rule="evenodd" clip-rule="evenodd" d="M57.0063 11.6617C57.0063 11.6617 55.2242 12.6861 53.8727 11.6617C52.5213 10.6373 52.1426 9.76881 52.1426 9.76881C52.1426 9.76881 55.8331 9.95439 57.0063 11.6691V11.6617Z" fill="white"/>
<path fill-rule="evenodd" clip-rule="evenodd" d="M58.7217 22.106C58.7217 22.106 53.197 20.807 50.8876 21.631C50.8876 21.631 51.8233 23.4867 55.2762 23.5907C58.7291 23.6946 58.7142 22.0986 58.7142 22.0986L58.7217 22.106Z" fill="white"/>
<path fill-rule="evenodd" clip-rule="evenodd" d="M36.6825 7.386C36.6825 7.386 34.284 6.11665 28.4846 6.78473C28.4846 6.78473 28.6925 8.26935 30.7568 8.18028C32.8212 8.0912 36.675 7.37858 36.675 7.37858L36.6825 7.386Z" fill="white"/>
<path fill-rule="evenodd" clip-rule="evenodd" d="M36.3854 30.2195C36.3854 30.2195 34.1578 31.667 32.2197 31.9268C30.2816 32.1866 29.4945 30.9841 29.4945 30.9841C29.4945 30.9841 32.8731 29.4178 36.3854 30.2195Z" fill="white"/>
<path fill-rule="evenodd" clip-rule="evenodd" d="M16.9675 29.1431C16.9675 29.1431 15.8685 27.0276 14.3314 27.0647C12.7943 27.1018 12.3933 28.5122 12.3933 28.5122C12.3933 28.5122 13.4775 27.9851 15.2299 28.5641L16.9749 29.1431H16.9675Z" fill="white"/>
<path fill-rule="evenodd" clip-rule="evenodd" d="M110.129 26.1591L105.726 29.685C105.726 29.685 107.575 34.0721 109.609 34.4136C111.644 34.755 116.73 27.6437 116.73 27.6437L115.112 23.1601L110.129 26.1591Z" fill="url(#paint15_linear_0_819)"/>
<path fill-rule="evenodd" clip-rule="evenodd" d="M77.3376 95.7582C68.3081 98.4899 61.5285 95.7062 61.5285 95.7062C61.5285 95.7062 64.2909 83.5843 64.8478 76.1612C65.4047 68.7455 64.8478 60.7879 64.8478 60.7879L68.2041 60.2831C68.9764 65.1527 69.0729 70.4157 68.9096 75.0626C68.6348 82.4783 67.6844 88.2906 67.6844 88.2906C69.8452 90.7253 76.3946 92.1803 76.3946 92.1803C77.6569 94.0138 77.3376 95.7656 77.3376 95.7656V95.7582Z" fill="url(#paint16_linear_0_819)"/>
<path fill-rule="evenodd" clip-rule="evenodd" d="M77.3376 95.7582C68.3081 98.4899 61.5285 95.7063 61.5285 95.7063C61.5285 95.7063 64.2909 83.5843 64.8478 76.1612L68.9022 75.0551C68.6274 82.4708 67.6769 88.2831 67.6769 88.2831C69.8378 90.7179 76.3872 92.1729 76.3872 92.1729C77.6495 94.0064 77.3302 95.7582 77.3302 95.7582H77.3376Z" fill="url(#paint17_linear_0_819)"/>
<path fill-rule="evenodd" clip-rule="evenodd" d="M61.5285 95.7062V97.2131C61.5285 97.2131 72.5407 98.3786 77.3748 96.456L77.3376 95.7508C77.3376 95.7508 68.6942 96.6341 61.5285 95.6988V95.7062Z" fill="url(#paint18_linear_0_819)"/>
<g style="mix-blend-mode:multiply">
<path fill-rule="evenodd" clip-rule="evenodd" d="M68.8799 67.1866C68.8799 67.1866 66.6373 65.9767 65.0928 68.6416C65.0928 68.6416 64.9072 61.79 64.8478 60.7879L68.2041 60.2831C68.2041 60.2831 68.8799 65.1527 68.8799 67.1866Z" fill="#5E364C"/>
</g>
<path fill-rule="evenodd" clip-rule="evenodd" d="M113.3 46.1421C112.394 47.6713 109.906 48.0795 109.906 48.0795L110.842 57.5811C110.842 57.5811 109.401 57.0838 108.317 56.5716C108.317 56.5716 103.721 60.2015 98.0031 59.8452C97.7283 59.8303 97.461 59.8006 97.1788 59.7709C91.0898 58.9915 89.0033 51.2566 89.0033 51.2566L90.9859 47.3669C90.9859 47.3669 92.5675 54.9385 98.0476 55.4507C98.2704 55.473 98.4857 55.4878 98.7011 55.4878C103.743 55.614 106.349 51.561 106.513 51.175C106.684 50.7741 106.684 47.2407 107.144 46.3648C107.612 45.4963 111.265 43.2545 113.292 43.158C113.292 43.158 114.191 44.5981 113.292 46.1347L113.3 46.1421Z" fill="url(#paint19_linear_0_819)"/>
<path fill-rule="evenodd" clip-rule="evenodd" d="M111.473 62.3393L108.02 42.1856L104.196 26.9385C104.196 26.9385 107.389 32.7879 109.617 34.421C109.617 34.421 113.82 27.5472 115.795 25.4242C117.77 23.3012 125.129 16.3754 126.874 14.7052C128.619 13.035 130.007 10.3701 130.007 10.3701L116.203 45.2662L114.131 56.6235L113.24 62.3393C113.24 62.3393 113.07 62.8367 111.473 62.3393Z" fill="url(#paint20_linear_0_819)"/>
<path fill-rule="evenodd" clip-rule="evenodd" d="M111.035 46.6914C111.035 46.6914 111.094 47.8049 111.473 48.755L110.835 49.1559C110.835 49.1559 110.396 50.2397 111.154 51.5239L111.473 51.65C111.473 51.65 111.042 52.526 111.473 54.1368L112.661 54.4411C112.661 54.4411 112.572 55.4655 112.832 56.5048C112.832 56.5048 114.443 56.8982 116.352 56.2895C116.352 56.2895 116.701 55.6956 116.597 54.3595L116.188 54.3001C116.188 54.3001 116.872 52.6744 116.738 51.5239L117.191 51.3086C117.191 51.3086 117.54 49.8759 117.191 48.0944L116.738 48.0276C116.738 48.0276 116.953 46.6914 116.589 45.6002C116.589 45.6002 113.797 45.5779 111.028 46.6988L111.035 46.6914Z" fill="url(#paint21_linear_0_819)"/>
<path fill-rule="evenodd" clip-rule="evenodd" d="M113.3 46.1421C112.394 47.6713 109.906 48.0795 109.906 48.0795L110.842 57.5811C110.842 57.5811 109.401 57.0838 108.317 56.5716C108.317 56.5716 103.721 60.2015 98.0031 59.8452C97.3942 56.8982 98.7085 55.4804 98.7085 55.4804C103.75 55.6066 106.357 51.5535 106.52 51.1675C106.691 50.7667 106.691 47.2333 107.151 46.3574C107.619 45.4889 111.273 43.2471 113.3 43.1506C113.3 43.1506 114.198 44.5907 113.3 46.1272V46.1421Z" fill="url(#paint22_linear_0_819)"/>
<g style="mix-blend-mode:multiply">
<path fill-rule="evenodd" clip-rule="evenodd" d="M91.9735 50.2545C91.9735 50.2545 90.6443 51.1972 90.9562 55.4581C90.9562 55.4581 89.4042 53.1124 89.0033 51.264L90.9859 47.3743C90.9859 47.3743 91.721 49.72 91.9809 50.2545H91.9735Z" fill="#5E364C"/>
</g>
<path fill-rule="evenodd" clip-rule="evenodd" d="M109.906 48.0795L109.617 51.5164L110.835 57.5811L109.906 48.0795Z" fill="#F47F81"/>
<path fill-rule="evenodd" clip-rule="evenodd" d="M111.473 48.755C111.473 48.755 115.097 48.0201 116.753 48.0201L111.347 48.3839L111.473 48.7476V48.755Z" fill="#F47F81"/>
<path fill-rule="evenodd" clip-rule="evenodd" d="M111.154 51.5239C111.154 51.5239 114.013 51.8653 116.753 51.5239C116.753 51.5239 113.433 51.8802 111.473 51.6501L111.154 51.5239Z" fill="#F47F81"/>
<path fill-rule="evenodd" clip-rule="evenodd" d="M111.473 54.1294C111.473 54.1294 113.849 54.456 116.196 54.2927C116.196 54.2927 114.28 54.5228 112.661 54.4337L111.473 54.1294Z" fill="#F47F81"/>
<path fill-rule="evenodd" clip-rule="evenodd" d="M108.124 32.9364L108.896 44.9173L109.617 34.421L108.124 32.9364Z" fill="url(#paint23_linear_0_819)"/>
<path style="mix-blend-mode:multiply" opacity="0.5" fill-rule="evenodd" clip-rule="evenodd" d="M70.5952 52.0435C70.5952 52.0435 77.553 55.2577 79.8104 53.7953C82.0752 52.333 78.5926 50.7741 78.5926 50.7741C78.5926 50.7741 76.8772 52.281 74.5753 52.2216C72.2808 52.1622 70.5878 52.0435 70.5878 52.0435H70.5952Z" fill="url(#paint24_linear_0_819)"/>
<path fill-rule="evenodd" clip-rule="evenodd" d="M32.539 54.7975C32.539 54.7975 32.3608 55.0053 32.034 55.369C30.1702 57.4475 23.3832 64.7222 15.6977 69.1315C15.6977 69.1315 11.6433 75.1665 7.3365 74.9364L5.2202 66.2068C5.2202 66.2068 8.48746 62.6585 10.2176 62.614C10.2176 62.614 12.3042 65.3383 13.3958 65.6278C14.4873 65.9173 24.4896 59.0657 30.7494 51.6426C30.7494 51.6426 31.0836 47.6713 34.336 47.9682C37.5884 48.2651 36.6899 56.4751 32.539 54.8049V54.7975Z" fill="url(#paint25_linear_0_819)"/>
<path fill-rule="evenodd" clip-rule="evenodd" d="M21.9724 60.0753C21.9724 60.0753 24.2966 61.3224 25.1208 62.2131C25.1208 62.2131 20.361 66.5854 15.6903 69.1315C15.6903 69.1315 13.2918 73.8823 7.72263 74.9438L3.69053 63.4677C3.69053 63.4677 8.76964 62.4581 10.2102 62.614C11.6508 62.7699 12.2671 65.1379 13.1507 65.2863C14.7695 65.561 21.9724 60.0753 21.9724 60.0753Z" fill="url(#paint26_linear_0_819)"/>
<path fill-rule="evenodd" clip-rule="evenodd" d="M14.5765 97.7476C14.5765 97.7476 7.7152 91.8759 5.71029 87.5037C4.29942 84.438 6.82413 77.0891 6.95036 74.5726C7.12858 71.0467 2.2054 63.8833 2.2054 63.8833L4.37368 62.8812L19.4031 95.5281L14.569 97.7476H14.5765Z" fill="url(#paint27_linear_0_819)"/>
<path fill-rule="evenodd" clip-rule="evenodd" d="M24.2372 93.3012C24.2372 93.3012 24.2372 84.2747 22.2248 79.9024C20.6283 76.4284 13.678 73.9342 11.6805 72.3902C8.88844 70.2301 6.44542 61.9236 6.44542 61.9236L4.3811 62.8738L19.4105 95.5207L24.2446 93.3012H24.2372Z" fill="url(#paint28_linear_0_819)"/>
<path fill-rule="evenodd" clip-rule="evenodd" d="M1.08414 63.2895C1.34404 64.0244 1.58165 64.4549 2.26481 65.0265L7.11373 62.7996C7.09145 61.9162 6.89096 61.4931 6.51225 60.7879L1.07671 63.2895H1.08414Z" fill="url(#paint29_linear_0_819)"/>
<path fill-rule="evenodd" clip-rule="evenodd" d="M1.93066 62.9035L0 59.9788L5.07911 58.1527L5.76969 61.1368L1.93066 62.9035Z" fill="url(#paint30_linear_0_819)"/>
<path fill-rule="evenodd" clip-rule="evenodd" d="M5.71029 87.5037C5.71029 87.5037 10.1656 86.5016 15.9428 82.7975L20.814 93.3383C20.814 93.3383 17.5467 95.8324 12.824 96.1516C12.824 96.1516 8.62855 92.7593 5.71029 87.5037Z" fill="url(#paint31_linear_0_819)"/>
<g style="mix-blend-mode:multiply">
<path fill-rule="evenodd" clip-rule="evenodd" d="M3.6831 66.2068C3.6831 66.2068 6.61621 66.1548 9.50477 69.5101C9.50477 69.5101 7.64837 66.1994 6.77215 62.9555L2.80688 64.7815L3.6831 66.2068Z" fill="#C6B8C0"/>
</g>
<path style="mix-blend-mode:screen" opacity="0.5" fill-rule="evenodd" clip-rule="evenodd" d="M13.1582 78.789L17.5096 76.562C17.5096 76.562 20.3759 77.6829 21.6753 80.1474C23.7099 84.0223 23.0936 91.438 23.0936 91.438L20.9328 92.8038C20.9328 92.8038 18.0294 83.948 13.1582 78.789Z" fill="url(#paint32_linear_0_819)"/>
<path fill-rule="evenodd" clip-rule="evenodd" d="M0.438112 65.7391C0.438112 65.7391 0.230195 67.2534 1.19552 68.6713L0.341579 69.3022C0.341579 69.3022 0.438112 71.0467 1.11384 72.0636L1.81185 72.0785C1.81185 72.0785 2.23511 73.3924 3.46776 74.1644L4.41823 74.1866L5.81425 75.8271C5.81425 75.8271 8.31668 75.7009 9.66813 74.2163L9.37111 72.5164L9.50477 71.93L8.49489 70.3712C8.49489 70.3712 9.17804 69.7179 8.56172 67.6766L7.98995 67.5949L7.55184 64.8855C7.55184 64.8855 4.03953 65.1304 0.438112 65.7391Z" fill="url(#paint33_linear_0_819)"/>
<path fill-rule="evenodd" clip-rule="evenodd" d="M7.98252 67.5949C7.98252 67.5949 4.19546 68.8123 1.1881 68.6713C1.1881 68.6713 5.39099 69.3542 8.54687 67.6766L7.97509 67.5949H7.98252Z" fill="#F47F81"/>
<path fill-rule="evenodd" clip-rule="evenodd" d="M8.48746 70.3712C8.48746 70.3712 4.76724 72.264 1.80442 72.0785C1.80442 72.0785 5.17564 72.368 8.65825 70.631L8.48746 70.3712Z" fill="#F47F81"/>
<path fill-rule="evenodd" clip-rule="evenodd" d="M4.41081 74.1866C4.41081 74.1866 7.88599 73.8971 9.36368 72.5164C9.36368 72.5164 8.22014 74.0604 4.62615 74.4464L4.40338 74.1866H4.41081Z" fill="#F47F81"/>
<path fill-rule="evenodd" clip-rule="evenodd" d="M7.90084 66.1697C7.90084 66.1697 10.0617 67.3796 11.7027 70.0891L11.6805 72.3902C11.6805 72.3902 10.1062 71.5217 7.90084 66.1697Z" fill="#F47F81"/>
<path fill-rule="evenodd" clip-rule="evenodd" d="M70.5952 52.0435C70.5952 52.0435 72.3922 52.6002 76.0901 51.264C79.7881 49.9279 78.4143 48.1538 78.4143 48.1538L78.6223 48.3542C78.6223 48.3542 79.4465 49.9205 79.0158 50.5589C78.5851 51.1972 80.0925 51.4199 79.1718 52.5928C78.2584 53.7731 75.8896 53.6988 70.5878 52.036L70.5952 52.0435Z" fill="url(#paint34_linear_0_819)"/>
<path fill-rule="evenodd" clip-rule="evenodd" d="M48.9124 44.9173C48.9124 44.9173 57.3256 38.8897 67.5655 40.983C67.5655 40.983 67.3502 38.9862 67.1943 38.2142C67.1943 38.2142 55.8554 31.912 48.1179 40.7752C48.1179 40.7752 48.3184 43.6108 48.9124 44.9173Z" fill="#CE5870"/>
<path fill-rule="evenodd" clip-rule="evenodd" d="M48.9124 44.9173C48.9124 44.9173 53.8133 40.983 59.984 39.877C66.1547 38.7784 70.0977 40.9236 70.0977 40.9236L67.6175 41.6511L67.6027 41.1612C67.6027 41.1612 59.984 39.8547 48.9124 44.9247V44.9173Z" fill="#4B3052"/>
<path fill-rule="evenodd" clip-rule="evenodd" d="M77.1891 40.4708C77.1891 40.4708 78.5257 38.5408 81.4588 38.4517C84.3845 38.3627 87.3473 41.2354 87.3473 41.2354C87.3473 41.2354 87.9043 35.9205 82.2682 35.2375C76.454 34.5323 77.0332 39.2831 77.1891 40.4708Z" fill="#CE5870"/>
<path fill-rule="evenodd" clip-rule="evenodd" d="M77.1891 40.4708C77.1891 40.4708 78.8079 38.7709 82.2311 38.9862C85.6543 39.2089 87.3399 41.2354 87.3399 41.2354L87.3102 41.6437L89.278 40.4708C89.278 40.4708 87.0355 38.1994 82.6544 38.0212C78.6 37.8505 77.1817 40.4708 77.1817 40.4708H77.1891Z" fill="#4B3052"/>
<path fill-rule="evenodd" clip-rule="evenodd" d="M55.6103 45.474C55.6103 45.474 57.0212 42.5642 59.984 43.5143C62.6795 44.3828 61.8627 48.7476 57.6672 51.4125C55.9445 51.4645 50.301 50.3065 50.8505 46.6023C51.2515 43.9374 55.6103 45.474 55.6103 45.474Z" fill="url(#paint35_linear_0_819)"/>
<path fill-rule="evenodd" clip-rule="evenodd" d="M81.0059 41.4136C81.0059 41.4136 81.9192 38.9788 83.5232 40.2853C84.9786 41.473 84.6444 44.9247 81.5257 46.825C81.5257 46.825 77.1965 44.9173 77.85 41.7031C78.3178 39.3871 81.0133 41.4136 81.0133 41.4136H81.0059Z" fill="url(#paint36_linear_0_819)"/>
<path fill-rule="evenodd" clip-rule="evenodd" d="M62.1523 47.5451C62.1523 48.1315 61.677 48.614 61.083 48.614C60.4889 48.614 60.0137 48.1389 60.0137 47.5451C60.0137 46.9512 60.4889 46.4761 61.083 46.4761C61.677 46.4761 62.1523 46.9512 62.1523 47.5451Z" fill="white"/>
<path fill-rule="evenodd" clip-rule="evenodd" d="M84.3474 44.3977C84.3474 44.7614 84.0504 45.0583 83.6865 45.0583C83.3227 45.0583 83.0256 44.7614 83.0256 44.3977C83.0256 44.0339 83.3227 43.737 83.6865 43.737C84.0504 43.737 84.3474 44.0339 84.3474 44.3977Z" fill="white"/>
<g style="mix-blend-mode:soft-light" opacity="0.7">
<path fill-rule="evenodd" clip-rule="evenodd" d="M67.6844 88.2831L65.1225 89.456C65.1225 89.456 70.8402 92.7147 76.3946 92.1729C76.3946 92.1729 70.8105 91.4602 67.6844 88.2831Z" fill="white"/>
</g>
<path fill-rule="evenodd" clip-rule="evenodd" d="M16.9155 76.6066C16.9155 76.6066 17.8214 78.789 19.6556 78.492C19.6556 78.492 19.7001 76.5175 16.9155 76.6066Z" fill="white"/>
<path fill-rule="evenodd" clip-rule="evenodd" d="M108.993 27.1092C108.993 27.1092 107.642 29.7296 108.139 30.5313C108.637 31.333 111.748 31.4295 112.951 30.5313C114.154 29.6331 113.805 27.1092 113.805 27.1092H108.993Z" fill="url(#paint37_linear_0_819)"/>
<path fill-rule="evenodd" clip-rule="evenodd" d="M112.602 18.3796C112.602 18.3796 112 15.2768 114.131 12.9756C114.131 12.9756 115.669 17.4072 114.896 19.7603C114.131 22.1135 112.602 18.3796 112.602 18.3796Z" fill="url(#paint38_linear_0_819)"/>
<path fill-rule="evenodd" clip-rule="evenodd" d="M110.196 19.2927C110.196 19.2927 108.347 16.8876 105.733 17.4221C103.112 17.9565 102.05 22.5663 102.644 24.3701C103.246 26.1739 107.723 25.439 107.723 25.439L110.196 19.2927Z" fill="url(#paint39_linear_0_819)"/>
<path fill-rule="evenodd" clip-rule="evenodd" d="M112.602 29.5143C112.602 29.5143 108.191 29.3807 106.988 28.1781C105.785 26.9756 105.384 24.7041 106.052 23.2344C106.721 21.7646 107.924 21.0965 107.924 21.0965C107.924 21.0965 109.06 18.0901 109.795 17.422C110.53 16.754 114.406 16.6872 116.745 18.2906C119.084 19.8939 117.28 23.7688 117.28 23.7688L115.877 26.5748L112.602 29.5143Z" fill="url(#paint40_linear_0_819)"/>
<path fill-rule="evenodd" clip-rule="evenodd" d="M107.924 21.0965C107.924 21.0965 107.203 23.6575 107.924 24.9417C108.644 26.2259 111.852 26.5228 113.099 26.4783C114.354 26.4263 116.359 22.3881 116.307 21.1039C116.255 19.8197 111.985 19.315 110.938 20.2206C109.891 21.1188 109.75 23.7391 111.592 23.7391C113.433 23.7391 113.849 21.9724 113.849 21.9724L114.131 22.1209C114.131 22.1209 112.706 24.1994 111.599 24.1251C110.5 24.0509 109.847 22.9523 109.795 21.4751C109.743 19.9979 111.273 19.2407 111.273 19.2407C111.273 19.2407 116.337 19.5673 116.686 20.7402C117.035 21.9205 115.461 26.6267 113.255 26.9979C111.05 27.369 108.302 26.6193 107.604 24.9417C106.914 23.2641 107.924 21.0965 107.924 21.0965Z" fill="url(#paint41_linear_0_819)"/>
<path fill-rule="evenodd" clip-rule="evenodd" d="M114.139 17.9565C114.139 17.9565 114.273 15.8855 116.545 14.8833L117.079 13.6808C117.079 13.6808 121.49 12.7455 123.295 13.6808C125.099 14.6161 125.5 18.825 124.097 20.4952C122.693 22.1654 117.28 23.0339 115.609 21.965C113.938 20.8961 114.139 17.9565 114.139 17.9565Z" fill="url(#paint42_linear_0_819)"/>
<path fill-rule="evenodd" clip-rule="evenodd" d="M116.545 14.8834C116.545 14.8834 120.822 14.2969 121.951 15.7741C123.079 17.2513 122.374 19.6787 121.327 20.1315C120.272 20.5843 116.693 19.8346 116.344 18.3054C115.995 16.7762 118.609 15.6479 119.545 15.8261C120.48 16.0042 120.956 17.6819 120.659 18.4316C120.362 19.1813 118.074 17.8526 118.074 17.8526H117.711C117.711 17.8526 120.079 19.3001 120.867 18.5875C121.654 17.8749 121.082 15.7073 119.419 15.6182C117.755 15.5292 115.914 17.0732 115.891 18.3722C115.869 19.6713 119.894 20.859 121.513 20.2651C123.131 19.6787 122.745 16.3012 122.53 15.3362C122.314 14.3712 117.273 14.4825 116.552 14.8834H116.545Z" fill="url(#paint43_linear_0_819)"/>
<g style="mix-blend-mode:multiply">
<path fill-rule="evenodd" clip-rule="evenodd" d="M32.539 54.7974C32.539 54.7974 32.3608 55.0053 32.034 55.369C31.6702 53.2015 30.7494 51.6352 30.7494 51.6352C30.7494 51.6352 31.0836 47.6638 34.336 47.9608C37.5884 48.2577 36.6899 56.4677 32.539 54.7974Z" fill="#5E364C"/>
</g>
<path fill-rule="evenodd" clip-rule="evenodd" d="M70.1571 59.4517L59.3157 60.3203C59.3157 60.3203 59.9246 67.1272 61.8553 68.4486L68.7091 62.5249L71.7981 62.28L78.3327 66.2513C78.3327 66.2513 80.59 62.8664 79.6099 57.4104L70.1719 59.4517H70.1571Z" fill="url(#paint44_linear_0_819)"/>
<g style="mix-blend-mode:multiply">
<path fill-rule="evenodd" clip-rule="evenodd" d="M67.6992 59.6447C67.6992 59.6447 68.7908 60.3425 68.7017 62.5175C68.7017 62.5175 69.0878 61.5376 68.8056 59.9639L71.3229 59.6447C71.3229 59.6447 71.8798 60.5726 71.7833 62.2725C71.7833 62.2725 72.2956 61.3075 72.0506 59.5111L78.7633 57.6108L69.8601 59.5111L67.6992 59.6522V59.6447Z" fill="#5E364C"/>
</g>
<g style="mix-blend-mode:multiply" opacity="0.5">
<path fill-rule="evenodd" clip-rule="evenodd" d="M68.5309 60.8324C68.5309 60.8324 65.5755 60.3351 63.9196 60.8324C62.2637 61.3298 62.8132 63.3712 62.8132 63.3712C62.8132 63.3712 63.3775 63.6161 65.6275 62.7625C67.8774 61.9088 68.6348 61.2927 68.6348 61.2927L68.5309 60.825V60.8324Z" fill="#5E364C"/>
</g>
<g style="mix-blend-mode:multiply" opacity="0.5">
<path fill-rule="evenodd" clip-rule="evenodd" d="M71.9689 60.3202C71.9689 60.3202 74.3006 59.6819 75.8599 59.9639C77.4193 60.2534 78.1322 61.8123 77.8574 62.1686C77.5827 62.5249 71.9689 61.0329 71.9689 61.0329V60.3202Z" fill="#5E364C"/>
</g>
<g style="mix-blend-mode:soft-light">
<path fill-rule="evenodd" clip-rule="evenodd" d="M76.1421 53.4761C76.1421 53.4761 75.0654 53.0604 74.1521 53.1569C74.1521 53.1569 74.5827 53.9512 76.1421 53.4761Z" fill="white"/>
</g>
</g>
<defs>
<linearGradient id="paint0_linear_0_819" x1="119.114" y1="36.8632" x2="116.346" y2="11.8842" gradientUnits="userSpaceOnUse">
<stop offset="0.02" stop-color="#9FAEF0"/>
<stop offset="1" stop-color="#DDCCD6"/>
</linearGradient>
<linearGradient id="paint1_linear_0_819" x1="52.5974" y1="66.0984" x2="49.1761" y2="0.462657" gradientUnits="userSpaceOnUse">
<stop offset="0.02" stop-color="#FF8E89"/>
<stop offset="1" stop-color="#FFB388"/>
</linearGradient>
<linearGradient id="paint2_linear_0_819" x1="60.0429" y1="30.1835" x2="57.3317" y2="13.6577" gradientUnits="userSpaceOnUse">
<stop offset="0.02" stop-color="#E08893"/>
<stop offset="0.33" stop-color="#ECB9BF"/>
<stop offset="0.62" stop-color="#F6DFE2"/>
<stop offset="0.85" stop-color="#FCF6F7"/>
<stop offset="1" stop-color="white"/>
</linearGradient>
<linearGradient id="paint3_linear_0_819" x1="82.6688" y1="28.6154" x2="80.2472" y2="13.855" gradientUnits="userSpaceOnUse">
<stop offset="0.02" stop-color="#E08893"/>
<stop offset="0.33" stop-color="#ECB9BF"/>
<stop offset="0.62" stop-color="#F6DFE2"/>
<stop offset="0.85" stop-color="#FCF6F7"/>
<stop offset="1" stop-color="white"/>
</linearGradient>
<linearGradient id="paint4_linear_0_819" x1="82.077" y1="22.1228" x2="81.2262" y2="16.9365" gradientUnits="userSpaceOnUse">
<stop offset="0.02" stop-color="#E08893"/>
<stop offset="0.33" stop-color="#ECB9BF"/>
<stop offset="0.62" stop-color="#F6DFE2"/>
<stop offset="0.85" stop-color="#FCF6F7"/>
<stop offset="1" stop-color="white"/>
</linearGradient>
<linearGradient id="paint5_linear_0_819" x1="30.7795" y1="24.9646" x2="28.918" y2="13.6178" gradientUnits="userSpaceOnUse">
<stop offset="0.02" stop-color="#E08893"/>
<stop offset="0.33" stop-color="#ECB9BF"/>
<stop offset="0.62" stop-color="#F6DFE2"/>
<stop offset="0.85" stop-color="#FCF6F7"/>
<stop offset="1" stop-color="white"/>
</linearGradient>
<linearGradient id="paint6_linear_0_819" x1="62.3928" y1="7.14044" x2="61.0023" y2="-1.33488" gradientUnits="userSpaceOnUse">
<stop offset="0.02" stop-color="#E08893"/>
<stop offset="0.33" stop-color="#ECB9BF"/>
<stop offset="0.62" stop-color="#F6DFE2"/>
<stop offset="0.85" stop-color="#FCF6F7"/>
<stop offset="1" stop-color="white"/>
</linearGradient>
<linearGradient id="paint7_linear_0_819" x1="59.3497" y1="20.2773" x2="58.4111" y2="14.5563" gradientUnits="userSpaceOnUse">
<stop offset="0.02" stop-color="#E08893"/>
<stop offset="0.33" stop-color="#ECB9BF"/>
<stop offset="0.62" stop-color="#F6DFE2"/>
<stop offset="0.85" stop-color="#FCF6F7"/>
<stop offset="1" stop-color="white"/>
</linearGradient>
<linearGradient id="paint8_linear_0_819" x1="56.6242" y1="64.8209" x2="51.1741" y2="31.6009" gradientUnits="userSpaceOnUse">
<stop offset="0.02" stop-color="#E08893"/>
<stop offset="1" stop-color="#FFD1C7"/>
</linearGradient>
<linearGradient id="paint9_linear_0_819" x1="59.8036" y1="52.3311" x2="57.3411" y2="37.3217" gradientUnits="userSpaceOnUse">
<stop stop-color="white"/>
<stop offset="0.98" stop-color="#FBC9CE"/>
</linearGradient>
<linearGradient id="paint10_linear_0_819" x1="83.5361" y1="48.0615" x2="81.5291" y2="35.8283" gradientUnits="userSpaceOnUse">
<stop stop-color="white"/>
<stop offset="0.98" stop-color="#FBC9CE"/>
</linearGradient>
<linearGradient id="paint11_linear_0_819" x1="56.9124" y1="57.4092" x2="17.7325" y2="63.8413" gradientUnits="userSpaceOnUse">
<stop stop-color="#B54263"/>
<stop offset="0.98" stop-color="#D8474D"/>
</linearGradient>
<linearGradient id="paint12_linear_0_819" x1="45.5858" y1="97.0127" x2="45.5858" y2="62.0647" gradientUnits="userSpaceOnUse">
<stop stop-color="#684A72"/>
<stop offset="0.99" stop-color="#46255E"/>
</linearGradient>
<linearGradient id="paint13_linear_0_819" x1="44.7541" y1="97.0127" x2="44.7541" y2="74.9141" gradientUnits="userSpaceOnUse">
<stop offset="0.02" stop-color="#FFA993"/>
<stop offset="1" stop-color="#FFCFA9"/>
</linearGradient>
<linearGradient id="paint14_linear_0_819" x1="52.4544" y1="96.8568" x2="37.0612" y2="96.8568" gradientUnits="userSpaceOnUse">
<stop stop-color="#9B1A43"/>
<stop offset="1" stop-color="#731653"/>
</linearGradient>
<linearGradient id="paint15_linear_0_819" x1="112.119" y1="34.0647" x2="110.457" y2="23.9245" gradientUnits="userSpaceOnUse">
<stop stop-color="#810043"/>
<stop offset="1" stop-color="#731653"/>
</linearGradient>
<linearGradient id="paint16_linear_0_819" x1="69.4516" y1="96.9607" x2="69.4516" y2="60.2831" gradientUnits="userSpaceOnUse">
<stop stop-color="#684A72"/>
<stop offset="0.99" stop-color="#46255E"/>
</linearGradient>
<linearGradient id="paint17_linear_0_819" x1="69.4516" y1="96.9608" x2="69.4516" y2="75.0626" gradientUnits="userSpaceOnUse">
<stop offset="0.02" stop-color="#FFA993"/>
<stop offset="1" stop-color="#FFCFA9"/>
</linearGradient>
<linearGradient id="paint18_linear_0_819" x1="61.5285" y1="96.6341" x2="77.3748" y2="96.6341" gradientUnits="userSpaceOnUse">
<stop stop-color="#9B1A43"/>
<stop offset="1" stop-color="#731653"/>
</linearGradient>
<linearGradient id="paint19_linear_0_819" x1="101.345" y1="59.8749" x2="101.345" y2="43.1654" gradientUnits="userSpaceOnUse">
<stop stop-color="#684A72"/>
<stop offset="0.99" stop-color="#46255E"/>
</linearGradient>
<linearGradient id="paint20_linear_0_819" x1="121.862" y1="61.5525" x2="116.348" y2="11.884" gradientUnits="userSpaceOnUse">
<stop offset="0.02" stop-color="#C2DBF0"/>
<stop offset="1" stop-color="#FFE6D6"/>
</linearGradient>
<linearGradient id="paint21_linear_0_819" x1="114.035" y1="56.6235" x2="114.035" y2="45.5928" gradientUnits="userSpaceOnUse">
<stop offset="0.02" stop-color="#FFA993"/>
<stop offset="1" stop-color="#FFCFA9"/>
</linearGradient>
<linearGradient id="paint22_linear_0_819" x1="105.763" y1="59.8749" x2="105.763" y2="43.1654" gradientUnits="userSpaceOnUse">
<stop offset="0.02" stop-color="#FFA993"/>
<stop offset="1" stop-color="#FFCFA9"/>
</linearGradient>
<linearGradient id="paint23_linear_0_819" x1="109.825" y1="44.8134" x2="108.504" y2="32.8992" gradientUnits="userSpaceOnUse">
<stop stop-color="#DDCCD6"/>
<stop offset="0.98" stop-color="#9FAEF0"/>
</linearGradient>
<linearGradient id="paint24_linear_0_819" x1="75.9565" y1="54.6045" x2="75.4073" y2="51.2566" gradientUnits="userSpaceOnUse">
<stop offset="0.02" stop-color="#E08893"/>
<stop offset="1" stop-color="#FFD1C7"/>
</linearGradient>
<linearGradient id="paint25_linear_0_819" x1="15.9885" y1="77.209" x2="24.3514" y2="45.3206" gradientUnits="userSpaceOnUse">
<stop stop-color="#684A72"/>
<stop offset="0.99" stop-color="#46255E"/>
</linearGradient>
<linearGradient id="paint26_linear_0_819" x1="11.0067" y1="75.8027" x2="15.5733" y2="58.3901" gradientUnits="userSpaceOnUse">
<stop offset="0.02" stop-color="#FFA993"/>
<stop offset="1" stop-color="#FFCFA9"/>
</linearGradient>
<linearGradient id="paint27_linear_0_819" x1="17.8226" y1="96.4805" x2="-0.726025" y2="65.6423" gradientUnits="userSpaceOnUse">
<stop offset="0.02" stop-color="#86AE31"/>
<stop offset="1" stop-color="#003964"/>
</linearGradient>
<linearGradient id="paint28_linear_0_819" x1="21.144" y1="94.9627" x2="9.81051" y2="60.824" gradientUnits="userSpaceOnUse">
<stop offset="0.02" stop-color="#86AE31"/>
<stop offset="1" stop-color="#003964"/>
</linearGradient>
<linearGradient id="paint29_linear_0_819" x1="4.9736" y1="64.0921" x2="3.58698" y2="61.7882" gradientUnits="userSpaceOnUse">
<stop stop-color="#2C756E"/>
<stop offset="0.98" stop-color="#86AE31"/>
</linearGradient>
<linearGradient id="paint30_linear_0_819" x1="3.89516" y1="61.9979" x2="2.44945" y2="58.8551" gradientUnits="userSpaceOnUse">
<stop stop-color="#B54263"/>
<stop offset="0.98" stop-color="#D86334"/>
</linearGradient>
<linearGradient id="paint31_linear_0_819" x1="17.113" y1="95.6139" x2="10.5018" y2="84.6163" gradientUnits="userSpaceOnUse">
<stop offset="0.02" stop-color="#C2DBF0"/>
<stop offset="1" stop-color="#FFE6D6"/>
</linearGradient>
<linearGradient id="paint32_linear_0_819" x1="15.6736" y1="87.5942" x2="22.5674" y2="80.621" gradientUnits="userSpaceOnUse">
<stop stop-color="#1B000E"/>
<stop offset="1" stop-color="#CC6F4A"/>
</linearGradient>
<linearGradient id="paint33_linear_0_819" x1="4.90343" y1="75.8041" x2="5.16774" y2="64.8285" gradientUnits="userSpaceOnUse">
<stop offset="0.02" stop-color="#FFA993"/>
<stop offset="1" stop-color="#FFCFA9"/>
</linearGradient>
<linearGradient id="paint34_linear_0_819" x1="75.2277" y1="53.6385" x2="74.6513" y2="48.5864" gradientUnits="userSpaceOnUse">
<stop stop-color="#9B1A43"/>
<stop offset="1" stop-color="#731653"/>
</linearGradient>
<linearGradient id="paint35_linear_0_819" x1="57.0063" y1="51.5239" x2="55.7374" y2="43.7888" gradientUnits="userSpaceOnUse">
<stop stop-color="#D11A43"/>
<stop offset="1" stop-color="#731653"/>
</linearGradient>
<linearGradient id="paint36_linear_0_819" x1="80.7124" y1="47.0713" x2="81.0843" y2="40.0868" gradientUnits="userSpaceOnUse">
<stop stop-color="#D11A43"/>
<stop offset="1" stop-color="#731653"/>
</linearGradient>
<linearGradient id="paint37_linear_0_819" x1="111.325" y1="31.1029" x2="110.62" y2="26.8419" gradientUnits="userSpaceOnUse">
<stop stop-color="#810043"/>
<stop offset="1" stop-color="#731653"/>
</linearGradient>
<linearGradient id="paint38_linear_0_819" x1="116.136" y1="18.7805" x2="112.21" y2="14.9488" gradientUnits="userSpaceOnUse">
<stop offset="0.02" stop-color="#86AE31"/>
<stop offset="1" stop-color="#2C756E"/>
</linearGradient>
<linearGradient id="paint39_linear_0_819" x1="107.01" y1="25.5504" x2="105.682" y2="17.4293" gradientUnits="userSpaceOnUse">
<stop stop-color="#810043"/>
<stop offset="1" stop-color="#731653"/>
</linearGradient>
<linearGradient id="paint40_linear_0_819" x1="112.914" y1="29.4623" x2="110.88" y2="17.0507" gradientUnits="userSpaceOnUse">
<stop stop-color="#731653"/>
<stop offset="0.99" stop-color="#D11A43"/>
</linearGradient>
<linearGradient id="paint41_linear_0_819" x1="112.802" y1="27.0721" x2="111.511" y2="19.196" gradientUnits="userSpaceOnUse">
<stop stop-color="#810043"/>
<stop offset="1" stop-color="#731653"/>
</linearGradient>
<linearGradient id="paint42_linear_0_819" x1="120.235" y1="22.21" x2="118.788" y2="13.3911" gradientUnits="userSpaceOnUse">
<stop stop-color="#A41653"/>
<stop offset="0.99" stop-color="#D11A43"/>
</linearGradient>
<linearGradient id="paint43_linear_0_819" x1="119.812" y1="20.5769" x2="118.803" y2="14.4527" gradientUnits="userSpaceOnUse">
<stop stop-color="#810043"/>
<stop offset="1" stop-color="#731653"/>
</linearGradient>
<linearGradient id="paint44_linear_0_819" x1="69.5705" y1="68.4486" x2="69.5705" y2="57.4104" gradientUnits="userSpaceOnUse">
<stop stop-color="#684A72"/>
<stop offset="0.99" stop-color="#46255E"/>
</linearGradient>
<clipPath id="clip0_0_819">
<rect width="130" height="98" fill="white"/>
</clipPath>
</defs>
</svg>
