<svg width="102" height="112" viewBox="0 0 102 112" fill="none" xmlns="http://www.w3.org/2000/svg">
<g clip-path="url(#clip0_0_285)">
<path fill-rule="evenodd" clip-rule="evenodd" d="M97.1129 90.5325C97.1129 90.5325 96.4032 92.8227 96.4032 94.3322C96.4032 95.8417 97.3495 97.1207 97.3495 97.1207L97.941 90.9563L97.1129 90.525V90.5325Z" fill="#F47F81"/>
<path fill-rule="evenodd" clip-rule="evenodd" d="M96.174 44.9056C96.174 44.9056 102.303 62.8708 100.373 80.1445L96.5067 79.6537C96.5067 79.6537 97.4752 64.9083 94.0742 51.6351L96.1813 44.9056H96.174Z" fill="url(#paint0_linear_0_285)"/>
<path fill-rule="evenodd" clip-rule="evenodd" d="M96.551 79.6537C96.551 79.6537 93.9707 81.6317 93.3349 82.6206C92.699 83.6096 93.1057 89.0155 92.9134 90.3912C92.7212 91.7668 92.2406 92.9863 92.2406 92.9863C92.2406 92.9863 92.8543 93.953 94.052 93.7225C94.052 93.7225 95.3976 92.7707 95.6712 91.7817C95.9373 90.7927 95.3015 88.4876 95.3015 88.4876C95.3015 88.4876 95.5529 86.8219 95.9373 86.3386C95.9373 86.3386 96.8689 88.4876 97.3495 91.975C97.3495 91.975 96.7137 96.0425 97.867 98.6823H99.8337L100.277 94.1091L101.372 90.8522L101.985 90.235C101.985 90.235 102.259 84.3755 100.366 80.1445L96.551 79.6537Z" fill="url(#paint1_linear_0_285)"/>
<path fill-rule="evenodd" clip-rule="evenodd" d="M100.27 94.1017V90.1161L100.011 88.2273L100.706 90.3466L101.342 90.2573L101.653 90.1681L101.985 90.2276L101.364 90.8522L100.27 94.1017Z" fill="#F47F81"/>
<path fill-rule="evenodd" clip-rule="evenodd" d="M98.0371 51.6054C98.0371 51.6054 95.9078 55.9703 95.6786 59.9857C95.6786 59.9857 94.7101 54.4013 94.0668 51.6277L96.174 44.8982C96.174 44.8982 97.4382 48.9507 98.0371 51.6054Z" fill="#301B39"/>
<path fill-rule="evenodd" clip-rule="evenodd" d="M3.39359 35.3132C3.39359 35.3132 7.68918 37.8861 51.8059 37.8861C95.9226 37.8861 99.4345 35.3132 99.4345 35.3132C99.4345 35.3132 94.5326 16.1062 59.7686 16.1062C25.0046 16.1062 5.863 30.3089 3.39359 35.3132Z" fill="#575FBE"/>
<path fill-rule="evenodd" clip-rule="evenodd" d="M4.88707 90.5325C4.88707 90.5325 5.59684 92.8227 5.59684 94.3322C5.59684 95.8417 4.65048 97.1207 4.65048 97.1207L4.05901 90.9563L4.88707 90.525V90.5325Z" fill="#F47F81"/>
<path fill-rule="evenodd" clip-rule="evenodd" d="M84.8916 68.7824C40.871 73.0209 17.6703 68.6485 17.6703 68.6485C-1.70789 45.2476 4.26601 13.4367 4.26601 13.4367C26.4094 -2.6695 48.1979 0.20077 48.1979 0.20077L50.8595 3.56181L54.1718 0.20077C88.6252 2.8554 97.9336 13.4367 97.9336 13.4367C102.68 48.0956 84.8842 68.7824 84.8842 68.7824H84.8916Z" fill="url(#paint2_linear_0_285)"/>
<path fill-rule="evenodd" clip-rule="evenodd" d="M48.2053 0.193335C48.2053 0.193335 51.1922 20.2555 51.8059 37.8861C51.8059 37.8861 51.939 9.02722 54.1792 0.193335L50.8595 3.55438L48.1979 0.193335H48.2053Z" fill="#F47F81"/>
<path fill-rule="evenodd" clip-rule="evenodd" d="M40.3386 56.2528C40.3386 56.2528 42.8228 58.9669 51.0739 58.9669C59.325 58.9669 63.0143 55.5167 63.0143 55.5167C63.0143 55.5167 59.1919 60.2905 51.0739 60.2905C42.9559 60.2905 40.3386 56.2454 40.3386 56.2454V56.2528Z" fill="url(#paint3_linear_0_285)"/>
<path fill-rule="evenodd" clip-rule="evenodd" d="M9.16788 29.015C9.16788 29.015 8.56901 32.6735 10.9053 37.0532L11.4894 33.0155C11.4894 33.0155 15.4745 32.2943 16.1769 31.8853C16.8792 31.4763 18.003 25.1781 19.1638 24.1965C21.234 22.4491 32.7308 20.4786 34.934 21.1701C37.1447 21.8691 39.8655 28.9927 40.7231 29.4389C41.5808 29.8924 45.1888 29.1786 45.1888 29.1786L45.9946 31.2904C45.9946 31.2904 46.8597 27.104 45.8985 24.2634L44.8117 27.7955C44.8117 27.7955 41.8026 28.3681 41.0188 28.0781C40.2351 27.7881 37.5587 21.4006 35.5477 19.6383C33.5367 17.876 19.4596 20.3968 17.6482 22.6722C15.8368 24.955 16.2138 29.3199 15.4893 30.5245C14.7647 31.7291 11.2898 31.9448 11.2898 31.9448L9.16788 29.015Z" fill="#F47F81"/>
<path fill-rule="evenodd" clip-rule="evenodd" d="M94.5548 29.015C94.5548 29.015 95.1537 32.6735 92.8173 37.0532L92.2332 33.0155C92.2332 33.0155 88.2482 32.2943 87.5458 31.8853C86.8434 31.4763 85.7196 25.1781 84.5589 24.1965C82.4887 22.4491 70.9919 20.4786 68.7886 21.1701C66.578 21.8691 63.8572 28.9927 62.9996 29.4389C62.1419 29.8924 58.5339 29.1786 58.5339 29.1786L57.728 31.2904C57.728 31.2904 56.863 27.104 57.8241 24.2634L58.911 27.7955C58.911 27.7955 61.9201 28.3681 62.7038 28.0781C63.4875 27.7881 66.164 21.4006 68.175 19.6383C70.186 17.876 84.2631 20.3968 86.0745 22.6722C87.8859 24.955 87.5088 29.3199 88.2334 30.5245C88.9579 31.7291 92.4329 31.9448 92.4329 31.9448L94.5548 29.015Z" fill="#F47F81"/>
<path fill-rule="evenodd" clip-rule="evenodd" d="M75.2949 3.32386C75.2949 3.32386 77.6386 12.1726 80.803 15.2214C83.9674 18.2701 91.0873 19.4227 93.4606 19.0434C95.8339 18.6642 97.941 13.4367 97.941 13.4367L96.8763 12.4626C96.8763 12.4626 96.2331 16.9242 92.1371 17.7421C88.0486 18.5675 82.0525 16.1508 80.0784 12.4403C78.1044 8.72978 79.0729 4.29797 79.0729 4.29797L75.2949 3.32386Z" fill="#F47F81"/>
<path fill-rule="evenodd" clip-rule="evenodd" d="M3.75587 17.4001C3.75587 17.4001 7.87402 19.5565 14.2841 18.2255C20.7016 16.9019 25.7809 6.37259 25.6553 2.79591L23.9696 3.32386C23.9696 3.32386 21.3005 14.0316 14.6982 17.0803C8.10321 20.1291 4.04421 14.8124 4.04421 14.8124L3.74847 17.4001H3.75587Z" fill="#F47F81"/>
<path fill-rule="evenodd" clip-rule="evenodd" d="M19.6444 62.6849C19.6444 62.6849 20.1693 59.77 23.7995 57.911L22.9419 61.2944C22.9419 61.2944 26.2245 67.5331 31.8953 70.1506L28.0138 69.8755C28.0138 69.8755 24.0583 66.6706 21.8181 61.8967L19.6444 62.6923V62.6849Z" fill="#F47F81"/>
<path fill-rule="evenodd" clip-rule="evenodd" d="M77.2911 57.911C77.2911 57.911 81.0691 58.1267 82.2965 64.0308L79.7901 62.2462C79.7901 62.2462 78.4519 66.797 73.4317 69.7342L69.8163 69.9647C69.8163 69.9647 77.3724 65.3321 78.8659 60.298L77.2837 57.911H77.2911Z" fill="#F47F81"/>
<path fill-rule="evenodd" clip-rule="evenodd" d="M61.6244 54.5277C61.6244 54.5277 64.1973 54.6615 65.3137 57.911C65.3137 57.911 64.2121 56.2305 62.3341 56.2231L61.6244 54.5351V54.5277Z" fill="#CA4963"/>
<path fill-rule="evenodd" clip-rule="evenodd" d="M41.078 54.5277C41.078 54.5277 38.5051 54.6615 37.3887 57.911C37.3887 57.911 38.4903 56.2305 40.3682 56.2231L41.078 54.5351V54.5277Z" fill="#CA4963"/>
<path fill-rule="evenodd" clip-rule="evenodd" d="M42.1722 45.4707C42.1131 48.1551 41.699 50.9733 40.346 52.2746C37.3739 55.1226 24.7237 55.1226 22.2838 53.3379C20.8421 52.282 20.1915 50.7651 19.8884 49.6943C19.6813 48.9433 19.6444 48.4154 19.6444 48.4154C19.6444 48.4154 20.8347 41.4776 28.2799 37.8935C36.7454 33.8261 41.7878 39.284 41.7878 39.284C41.7878 39.284 42.2314 42.2881 42.1722 45.4782V45.4707Z" fill="url(#paint4_linear_0_285)"/>
<path fill-rule="evenodd" clip-rule="evenodd" d="M82.2964 48.4154C82.2964 48.4154 82.2373 49.2854 81.8307 50.371C81.4684 51.3451 80.8178 52.4977 79.657 53.3454C77.2245 55.13 64.567 55.13 61.6022 52.282C60.2492 50.9882 59.8204 48.1625 59.7686 45.4782C59.7095 42.2881 60.1531 39.284 60.1531 39.284C60.1531 39.284 65.2028 33.8261 73.6609 37.8935C81.1135 41.4776 82.2964 48.4154 82.2964 48.4154Z" fill="url(#paint5_linear_0_285)"/>
<g style="mix-blend-mode:multiply">
<path fill-rule="evenodd" clip-rule="evenodd" d="M42.1722 45.4707C26.3133 42.4964 19.8884 49.6869 19.8884 49.6869C19.6813 48.9359 19.6444 48.4079 19.6444 48.4079C19.6444 48.4079 20.8347 41.4702 28.2799 37.8861C36.7454 33.8186 41.7878 39.2766 41.7878 39.2766C41.7878 39.2766 42.2314 42.2807 42.1722 45.4707Z" fill="#D9CCDA"/>
</g>
<g style="mix-blend-mode:multiply">
<path fill-rule="evenodd" clip-rule="evenodd" d="M82.2964 48.4154C82.2964 48.4154 82.2373 49.2854 81.8307 50.371C73.6683 43.463 60.1679 45.4187 59.7686 45.4782C59.7095 42.2881 60.1531 39.284 60.1531 39.284C60.1531 39.284 65.2028 33.8261 73.6609 37.8935C81.1135 41.4776 82.2964 48.4154 82.2964 48.4154Z" fill="#D9CCDA"/>
</g>
<path fill-rule="evenodd" clip-rule="evenodd" d="M95.6786 46.943C95.6786 46.943 95.0649 48.8318 93.808 49.159C92.5586 49.4936 86.5551 50.1554 85.106 49.159C83.6568 48.1625 81.6606 41.9312 77.2615 38.7486C72.8698 35.5661 65.7277 34.5027 61.9497 36.4286C60.4266 37.202 58.6522 42.3179 57.6023 42.9053C56.5451 43.5002 51.1848 42.9053 51.1848 42.9053V45.0023C51.1848 45.0023 57.1587 45.2477 58.3491 44.7123C59.532 44.1843 60.5893 39.0089 63.8868 37.8861C67.1842 36.7558 78.2522 38.9345 83.3981 49.6795C83.3981 49.6795 92.4107 50.8395 94.0816 51.8136L95.686 46.9356L95.6786 46.943Z" fill="#F47F81"/>
<path fill-rule="evenodd" clip-rule="evenodd" d="M6.41012 47.0323C6.41012 47.0323 7.31951 48.8243 8.56901 49.1589C9.8185 49.4936 15.822 50.1554 17.2711 49.1589C18.7202 48.1625 20.7238 41.9312 25.1155 38.7486C29.5072 35.5661 36.6493 34.5027 40.4274 36.4286C41.9504 37.202 43.7248 42.3179 44.7747 42.9053C45.832 43.5002 51.1922 42.9053 51.1922 42.9053V45.0023C51.1922 45.0023 45.2183 45.2476 44.028 44.7123C42.845 44.1843 41.7878 39.0089 38.4903 37.8861C35.1928 36.7558 24.1248 38.9345 18.979 49.6795C18.979 49.6795 9.5893 50.6461 7.92578 51.6277L6.40273 47.0323H6.41012Z" fill="#F47F81"/>
<path fill-rule="evenodd" clip-rule="evenodd" d="M19.6444 48.4154C19.6444 48.4154 23.4224 42.0874 29.9508 39.6112C36.4793 37.135 41.2185 39.0089 42.0317 41.4851C42.0317 41.4851 41.4403 37.2243 37.3517 36.6071C33.2631 35.9899 23.1193 39.3212 19.6444 48.4154Z" fill="#CA4963"/>
<path fill-rule="evenodd" clip-rule="evenodd" d="M59.7686 42.6005C59.7686 42.6005 61.2251 37.8861 66.6002 37.8861C74.7847 37.8861 79.9675 43.5597 82.2965 48.4079C82.2965 48.4079 79.8788 37.4399 66.127 36.3766C60.885 35.9676 59.7612 42.593 59.7612 42.593L59.7686 42.6005Z" fill="#CA4963"/>
<path d="M34.6087 51.8879C37.4915 51.8879 39.8285 49.5375 39.8285 46.6382C39.8285 43.7388 37.4915 41.3884 34.6087 41.3884C31.7259 41.3884 29.3889 43.7388 29.3889 46.6382C29.3889 49.5375 31.7259 51.8879 34.6087 51.8879Z" fill="#37193E"/>
<path d="M67.4208 51.8879C70.3036 51.8879 72.6406 49.5375 72.6406 46.6382C72.6406 43.7388 70.3036 41.3884 67.4208 41.3884C64.538 41.3884 62.2011 43.7388 62.2011 46.6382C62.2011 49.5375 64.538 51.8879 67.4208 51.8879Z" fill="#37193E"/>
<path d="M29.5294 49.5233C30.1378 49.5233 30.631 49.0273 30.631 48.4154C30.631 47.8034 30.1378 47.3074 29.5294 47.3074C28.921 47.3074 28.4278 47.8034 28.4278 48.4154C28.4278 49.0273 28.921 49.5233 29.5294 49.5233Z" fill="white"/>
<path d="M63.007 50.6313C63.6154 50.6313 64.1086 50.1352 64.1086 49.5233C64.1086 48.9114 63.6154 48.4154 63.007 48.4154C62.3985 48.4154 61.9053 48.9114 61.9053 49.5233C61.9053 50.1352 62.3985 50.6313 63.007 50.6313Z" fill="white"/>
<path fill-rule="evenodd" clip-rule="evenodd" d="M23.6516 53.9254C23.6516 53.9254 26.3872 55.2936 33.1226 55.0928C39.8581 54.892 40.8636 51.6277 40.8636 51.6277C40.8636 51.6277 37.6326 53.8138 31.8953 54.2303C26.158 54.6392 23.6516 53.9254 23.6516 53.9254Z" fill="#F47F81"/>
<path fill-rule="evenodd" clip-rule="evenodd" d="M61.6096 52.2746C61.6096 52.2746 68.1454 55.2936 78.3336 53.9179C78.3336 53.9179 66.1418 57.6433 61.6096 52.2746Z" fill="#F47F81"/>
<path fill-rule="evenodd" clip-rule="evenodd" d="M9.16787 29.015C9.16787 29.015 8.28805 32.5025 10.9053 37.0533L11.4894 33.0155L11.2972 31.9448L9.17526 29.015H9.16787Z" fill="#CA4963"/>
<path fill-rule="evenodd" clip-rule="evenodd" d="M45.8985 24.2634L44.8117 27.7955L45.1887 29.186L45.9946 31.2978C45.9946 31.2978 47.2367 28.4796 45.8985 24.2709V24.2634Z" fill="#CA4963"/>
<path fill-rule="evenodd" clip-rule="evenodd" d="M57.8242 24.2634C57.8242 24.2634 56.7891 27.0742 57.728 31.2904L58.5339 29.1786L58.911 27.7881L57.8242 24.256V24.2634Z" fill="#CA4963"/>
<path fill-rule="evenodd" clip-rule="evenodd" d="M94.5548 29.015L92.4329 31.9448L92.2406 33.0155L92.8247 37.0533C92.8247 37.0533 95.4346 33.0453 94.5622 29.015H94.5548Z" fill="#CA4963"/>
<path fill-rule="evenodd" clip-rule="evenodd" d="M77.2911 57.911L78.8733 60.298L78.6663 64.6108L79.7975 62.2462L82.3038 64.0308C82.3038 64.0308 81.8676 58.6621 77.2985 57.911H77.2911Z" fill="#CA4963"/>
<path fill-rule="evenodd" clip-rule="evenodd" d="M22.9419 61.2869L23.6516 62.4693L21.8181 61.8818L19.6444 62.6775C19.6444 62.6775 19.5113 59.2941 23.7995 57.9036L22.9419 61.2869Z" fill="#CA4963"/>
<path fill-rule="evenodd" clip-rule="evenodd" d="M50.8595 3.55438L51.8059 37.8935C51.8059 37.8935 52.4195 13.2806 54.1792 0.20077L50.8595 3.56181V3.55438Z" fill="#CA4963"/>
<path style="mix-blend-mode:multiply" opacity="0.6" fill-rule="evenodd" clip-rule="evenodd" d="M84.8916 68.7824C40.871 73.0208 17.6703 68.6485 17.6703 68.6485C-1.70789 45.2476 4.26601 13.4367 4.26601 13.4367C4.26601 13.4367 3.96288 49.7092 19.6444 64.8785C19.6444 64.8785 53.2994 74.0098 83.886 64.0606C83.886 64.0606 99.8781 47.7089 97.9484 13.4367C102.695 48.0956 84.8989 68.7824 84.8989 68.7824H84.8916Z" fill="url(#paint6_linear_0_285)"/>
<g style="mix-blend-mode:soft-light" opacity="0.7">
<path fill-rule="evenodd" clip-rule="evenodd" d="M67.1177 29.8553C64.9366 31.3871 71.7312 35.0232 77.2024 35.0232C82.6735 35.0232 82.9693 31.8407 82.4739 31.2086C81.9785 30.5766 70.4522 27.5129 67.1177 29.8478V29.8553Z" fill="white"/>
</g>
<g style="mix-blend-mode:soft-light" opacity="0.7">
<path fill-rule="evenodd" clip-rule="evenodd" d="M35.9839 28.7771C34.7714 28.2342 22.4983 29.0447 20.6943 30.9037C18.8903 32.7627 23.001 34.5473 28.9675 33.7889C34.934 33.023 36.3092 28.9258 35.9839 28.7771Z" fill="white"/>
</g>
<g style="mix-blend-mode:soft-light" opacity="0.7">
<path fill-rule="evenodd" clip-rule="evenodd" d="M39.237 2.79591C36.7824 2.07463 29.9361 2.79591 27.2892 8.1944C24.6424 13.5929 21.2192 17.4075 17.796 18.6568C14.3655 19.906 14.1585 22.2781 14.7056 22.5086C15.2527 22.7316 18.3653 18.7609 24.5167 16.5078C30.668 14.2547 38.0467 19.668 43.0151 18.6642C47.9835 17.6603 43.2812 3.9931 39.237 2.80335V2.79591Z" fill="white"/>
</g>
<g style="mix-blend-mode:soft-light" opacity="0.7">
<path fill-rule="evenodd" clip-rule="evenodd" d="M12.2657 22.516C11.2159 22.0104 7.78529 23.1927 8.22151 25.5276C8.65772 27.8624 11.6077 26.9776 12.7019 25.8696C13.8036 24.7617 13.1825 22.9622 12.2657 22.516Z" fill="white"/>
</g>
<g style="mix-blend-mode:soft-light" opacity="0.7">
<path fill-rule="evenodd" clip-rule="evenodd" d="M64.1086 5.05643C60.2936 5.50259 57.1809 13.8085 59.7686 16.1062C62.3563 18.4039 70.1121 16.3739 73.4391 16.8126C76.7662 17.2514 73.2543 4.00053 64.116 5.05643H64.1086Z" fill="white"/>
</g>
<g style="mix-blend-mode:soft-light" opacity="0.5">
<path fill-rule="evenodd" clip-rule="evenodd" d="M33.3518 59.5916C29.3446 62.1123 39.8137 67.6967 54.1792 67.6372C68.5446 67.5703 69.735 62.0677 69.1213 60.3054C68.5077 58.5357 61.2325 63.0418 52.523 62.6923C43.8136 62.3354 35.4664 58.2754 33.3518 59.599V59.5916Z" fill="white"/>
</g>
<path fill-rule="evenodd" clip-rule="evenodd" d="M85.069 45.1882C84.3518 46.3035 87.3018 48.2369 89.4829 48.0807C91.664 47.9246 91.664 45.7979 91.0577 45.0469C90.4514 44.2958 85.8823 43.924 85.069 45.1807V45.1882Z" fill="white"/>
<path fill-rule="evenodd" clip-rule="evenodd" d="M11.2159 45.9912C11.0458 46.8092 12.6354 47.0471 14.5429 46.5638C16.4504 46.0805 16.4726 44.5561 16.2878 44.4074C15.8072 44.0282 11.6964 43.6489 11.2159 45.9912Z" fill="white"/>
<path fill-rule="evenodd" clip-rule="evenodd" d="M35.1263 6.14952C33.8102 7.25003 35.9174 9.42133 37.6474 9.86748C39.3849 10.3211 39.932 8.33568 39.8137 7.3467C39.6954 6.35772 36.2649 5.19028 35.1263 6.14952Z" fill="white"/>
<path fill-rule="evenodd" clip-rule="evenodd" d="M5.82603 44.9056C5.82603 44.9056 -0.303139 62.8708 1.62655 80.1445L5.49332 79.6537C5.49332 79.6537 4.52478 64.9083 7.92577 51.6351L5.81863 44.9056H5.82603Z" fill="url(#paint7_linear_0_285)"/>
<path fill-rule="evenodd" clip-rule="evenodd" d="M5.44898 79.6537C5.44898 79.6537 8.02929 81.6317 8.66513 82.6206C9.30096 83.6096 8.89432 89.0155 9.08655 90.3912C9.27878 91.7668 9.75936 92.9863 9.75936 92.9863C9.75936 92.9863 9.1457 93.953 7.94796 93.7225C7.94796 93.7225 6.60236 92.7707 6.3288 91.7817C6.06263 90.7927 6.69847 88.4876 6.69847 88.4876C6.69847 88.4876 6.44709 86.8219 6.06263 86.3386C6.06263 86.3386 5.13106 88.4876 4.65048 91.975C4.65048 91.975 5.28632 96.0425 4.13294 98.6823H2.16629L1.72268 94.1091L0.628449 90.8522L0.0147933 90.235C0.0147933 90.235 -0.258764 84.3755 1.63396 80.1445L5.44898 79.6537Z" fill="url(#paint8_linear_0_285)"/>
<path fill-rule="evenodd" clip-rule="evenodd" d="M99.4345 35.3132C99.4345 35.3132 95.4864 30.0114 83.5386 25.9886C76.2264 23.5199 65.92 21.5345 51.6802 21.5345C35.3629 21.5345 24.0952 24.1445 16.5835 27.0965C6.84634 30.926 3.40099 35.3207 3.40099 35.3207C1.12381 30.4948 1.25689 19.1178 1.25689 19.1178C1.25689 19.1178 4.93143 15.2214 12.384 11.1242C20.6425 6.57336 33.5441 1.77719 51.1996 1.77719C70.5557 1.77719 84.0709 7.39875 92.0336 12.1503C97.8892 15.6452 100.758 18.6642 100.758 18.6642C102.074 26.3455 99.4345 35.3207 99.4345 35.3207V35.3132Z" fill="url(#paint9_radial_0_285)"/>
<g style="mix-blend-mode:multiply" opacity="0.8">
<path fill-rule="evenodd" clip-rule="evenodd" d="M4.15511 36.3691C4.15511 36.3691 19.4152 22.3896 52.1977 22.3896C84.9803 22.3896 97.941 36.4584 97.941 36.4584L98.0371 35.7594L99.4345 35.3207C99.4345 35.3207 87.6937 19.0509 51.414 19.0509C15.1344 19.0509 3.39359 35.3132 3.39359 35.3132H4.01463L4.15511 36.3617V36.3691Z" fill="#E08893"/>
</g>
<g style="mix-blend-mode:soft-light" opacity="0.7">
<path fill-rule="evenodd" clip-rule="evenodd" d="M85.5496 51.821C84.2557 50.8172 80.5442 53.5313 80.803 56.2156C81.0691 58.9 82.5848 60.8854 84.3592 60.2905C86.141 59.6957 87.5236 53.3528 85.5422 51.8136L85.5496 51.821Z" fill="white"/>
</g>
<path fill-rule="evenodd" clip-rule="evenodd" d="M33.7437 70.2472C33.7437 70.2472 35.8434 87.5655 40.8562 97.0612L44.8043 96.5035C44.8043 96.5035 39.9172 82.3529 39.2222 70.4778L33.7363 70.2398L33.7437 70.2472Z" fill="url(#paint10_linear_0_285)"/>
<path fill-rule="evenodd" clip-rule="evenodd" d="M61.5652 70.3737C61.5652 70.3737 64.6927 77.8542 59.7612 89.1568C59.7612 89.1568 60.959 91.2091 63.9903 90.5027C63.9903 90.5027 69.2322 79.1258 65.3063 70.2547L61.5578 70.3737H61.5652Z" fill="#301B39"/>
<path fill-rule="evenodd" clip-rule="evenodd" d="M38.6973 92.0643C38.6973 92.0643 40.2203 90.9266 43.1851 91.2314L44.405 95.1651L40.2425 95.8194L38.6973 92.0568V92.0643Z" fill="url(#paint11_linear_0_285)"/>
<path fill-rule="evenodd" clip-rule="evenodd" d="M47.9835 105.635C47.9835 105.635 45.9207 107.234 45.8246 108.646C45.7432 110.059 44.1537 112.007 44.1537 112.007H31.1929C30.9711 109.888 31.6809 107.583 31.6809 107.583C32.3759 107.367 33.0709 107.025 33.7437 106.579C33.7437 106.579 33.7437 106.579 33.7659 106.579C34.727 105.955 35.6364 105.144 36.4645 104.267C38.823 101.768 40.4717 98.7343 40.4717 97.8122C40.4717 96.3548 39.2296 94.0348 39.2296 94.0348C39.8802 93.7225 40.5013 93.5589 41.0706 93.4994C42.7785 93.3209 44.0132 94.0348 44.0132 94.0348L47.3624 103.806L47.9909 105.635H47.9835Z" fill="url(#paint12_linear_0_285)"/>
<path fill-rule="evenodd" clip-rule="evenodd" d="M60.3157 87.8258C60.3157 87.8258 61.8905 89.2163 64.8331 88.3612L63.6798 91.1868C63.6798 91.1868 61.3139 91.0381 59.4729 89.7294L60.3157 87.8258Z" fill="#C99AB8"/>
<path fill-rule="evenodd" clip-rule="evenodd" d="M71.4355 106.356C66.0383 109.271 57.1218 106.899 57.1218 106.899C57.1218 106.899 57.1514 103.307 56.3603 102.727C55.5692 102.147 54.7707 101.783 54.7707 101.783L55.1699 98.6674C56.0275 96.7415 59.5246 89.1643 59.5246 89.1643C59.9091 89.432 60.3527 89.6476 60.8111 89.8186C62.5781 90.473 64.5966 90.4879 64.5966 90.4879C64.5966 90.4879 61.9645 94.2727 63.4801 97.0612C64.1012 98.1989 65.432 99.3664 66.7924 100.333C68.3302 101.434 69.905 102.289 70.4965 102.601C70.5778 102.638 70.6666 102.683 70.7479 102.727C71.5834 105.397 71.4429 106.349 71.4429 106.349L71.4355 106.356Z" fill="url(#paint13_linear_0_285)"/>
<path fill-rule="evenodd" clip-rule="evenodd" d="M71.4355 106.356C66.0383 109.271 57.1218 106.899 57.1218 106.899C57.1218 106.899 57.1514 103.307 56.3603 102.727C55.5692 102.147 54.7707 101.783 54.7707 101.783L55.1699 98.6674C55.1699 98.6674 58.2752 102.043 58.3565 103.768C58.3565 103.768 64.1382 99.411 70.4965 102.601C70.5778 102.638 70.6666 102.683 70.7479 102.727C71.5834 105.397 71.4429 106.349 71.4429 106.349L71.4355 106.356Z" fill="#C99AB8"/>
<path fill-rule="evenodd" clip-rule="evenodd" d="M47.9835 105.635C47.9835 105.635 45.9207 107.234 45.8246 108.646C45.7432 110.059 44.1537 112.007 44.1537 112.007H31.1929C30.9711 109.888 31.6809 107.583 31.6809 107.583C32.3759 107.367 33.0709 107.025 33.7437 106.579C33.7437 106.579 33.7437 106.579 33.7659 106.579C34.069 106.475 38.3424 105.107 43.7174 108.342C43.7174 108.342 45.1887 108.327 45.6397 106.936C46.0833 105.546 47.3476 103.806 47.3476 103.806L47.9761 105.642L47.9835 105.635Z" fill="#FFE3E2"/>
<g style="mix-blend-mode:soft-light">
<path fill-rule="evenodd" clip-rule="evenodd" d="M41.5512 104.044C39.4293 105.204 36.4645 104.259 36.4645 104.259C38.823 101.761 40.4717 98.7269 40.4717 97.8048C40.4717 96.3474 39.2296 94.0274 39.2296 94.0274C39.8803 93.715 40.5013 93.5515 41.0706 93.492H41.8543C41.8543 93.492 42.9411 96.7117 43.2073 97.8048C43.4735 98.9053 43.6657 102.876 41.5512 104.036V104.044Z" fill="#FFEADE"/>
</g>
<g style="mix-blend-mode:soft-light">
<path fill-rule="evenodd" clip-rule="evenodd" d="M66.785 100.34C66.5632 100.34 62.4303 100.288 61.6613 100.095C60.8776 99.9017 58.9258 98.6376 59.2585 96.0499C59.5838 93.4697 60.8111 89.8261 60.8111 89.8261C62.5781 90.4804 64.5965 90.4953 64.5965 90.4953C64.5965 90.4953 61.9645 94.2802 63.4801 97.0686C64.1012 98.2063 65.432 99.3738 66.7924 100.34H66.785Z" fill="#FFEADE"/>
</g>
<path fill-rule="evenodd" clip-rule="evenodd" d="M47.9835 105.635C47.9835 105.635 45.9207 107.234 45.8246 108.646C45.7433 110.059 44.1537 112.007 44.1537 112.007C44.1537 112.007 44.0649 109.918 43.7175 108.342C43.7175 108.342 45.1887 108.327 45.6397 106.936C46.0834 105.546 47.3476 103.806 47.3476 103.806L47.9761 105.642L47.9835 105.635Z" fill="#C99AB8"/>
<path fill-rule="evenodd" clip-rule="evenodd" d="M1.72281 94.1017V90.1161L1.98897 88.2273L1.29399 90.3466L0.658153 90.2573L0.340235 90.1681L0.0149231 90.2276L0.628579 90.8522L1.72281 94.1017Z" fill="#F47F81"/>
<path fill-rule="evenodd" clip-rule="evenodd" d="M34.4535 74.9691C34.4535 74.9691 39.6954 76.1365 40.4052 79.6537C40.4052 79.6537 39.3923 74.4039 39.2222 70.4852L33.7363 70.2472C33.7363 70.2472 34.2834 74.0396 34.4461 74.9616L34.4535 74.9691Z" fill="#301B39"/>
<path fill-rule="evenodd" clip-rule="evenodd" d="M3.96289 51.6054C3.96289 51.6054 6.0922 55.9703 6.3214 59.9857C6.3214 59.9857 7.28994 54.4013 7.93317 51.6277L5.82604 44.8982C5.82604 44.8982 4.56176 48.9507 3.96289 51.6054Z" fill="#301B39"/>
<path d="M8.08842 30.7922L7.19382 15.1544L7.37865 15.1396L8.27326 30.7848L8.08842 30.7922Z" fill="url(#paint14_radial_0_285)"/>
<path d="M20.7459 7.27664L20.3766 7.29286L21.0941 23.8221L21.4635 23.8058L20.7459 7.27664Z" fill="url(#paint15_radial_0_285)"/>
<path d="M35.3108 3.31358L34.9416 3.33362L35.8435 20.1367L36.2127 20.1166L35.3108 3.31358Z" fill="url(#paint16_radial_0_285)"/>
<path d="M51.0106 1.766L50.6735 19.1107L51.0431 19.118L51.3802 1.77327L51.0106 1.766Z" fill="url(#paint17_radial_0_285)"/>
<path d="M70.7356 3.86233L69.1116 20.5207L69.4795 20.557L71.1035 3.89861L70.7356 3.86233Z" fill="url(#paint18_radial_0_285)"/>
<path d="M82.4813 24.1147L82.1116 24.0775L83.9526 8.10517L84.3223 8.14978L82.4813 24.1147Z" fill="url(#paint19_radial_0_285)"/>
<path d="M93.2092 29.6917L93.0244 29.6768L94.7322 13.8978L94.9171 13.9201L93.2092 29.6917Z" fill="url(#paint20_radial_0_285)"/>
<path style="mix-blend-mode:multiply" opacity="0.6" fill-rule="evenodd" clip-rule="evenodd" d="M16.1916 26.8214C16.2952 26.9106 16.4208 27.0073 16.5761 27.0965C6.83894 30.926 3.39359 35.3207 3.39359 35.3207C1.11641 30.4948 1.24949 19.1178 1.24949 19.1178C1.24949 19.1178 4.92403 15.2214 12.3766 11.1242H12.3914C12.3914 11.1242 11.6964 22.7465 16.199 26.8288L16.1916 26.8214Z" fill="url(#paint21_linear_0_285)"/>
<path style="mix-blend-mode:multiply" opacity="0.6" fill-rule="evenodd" clip-rule="evenodd" d="M99.4345 35.3132C99.4345 35.3132 95.4864 30.0114 83.5385 25.9886C89.2537 22.7093 91.3312 16.8349 92.0336 12.1429C97.8892 15.6378 100.758 18.6568 100.758 18.6568C102.074 26.3381 99.4345 35.3132 99.4345 35.3132Z" fill="url(#paint22_linear_0_285)"/>
<path d="M50.8743 3.65848L53.3141 7.95645L58.7631 8.64799L54.8224 11.9942L55.754 16.7234L50.8743 14.4926L46.002 16.7234L46.9336 11.9942L42.9855 8.64799L48.4345 7.95645L50.8743 3.65848Z" fill="#FFDA62"/>
</g>
<defs>
<linearGradient id="paint0_linear_0_285" x1="97.4087" y1="80.1445" x2="97.4087" y2="44.9056" gradientUnits="userSpaceOnUse">
<stop stop-color="#684A72"/>
<stop offset="0.99" stop-color="#46255E"/>
</linearGradient>
<linearGradient id="paint1_linear_0_285" x1="97.1203" y1="98.6748" x2="97.1203" y2="79.6537" gradientUnits="userSpaceOnUse">
<stop stop-color="#FFE3CD"/>
<stop offset="0.98" stop-color="#FFB3B1"/>
</linearGradient>
<linearGradient id="paint2_linear_0_285" x1="56.2493" y1="71.9798" x2="48.1212" y2="-0.807741" gradientUnits="userSpaceOnUse">
<stop offset="0.02" stop-color="#FF8E89"/>
<stop offset="1" stop-color="#FFB3B4"/>
</linearGradient>
<linearGradient id="paint3_linear_0_285" x1="51.6728" y1="60.298" x2="51.6728" y2="55.5241" gradientUnits="userSpaceOnUse">
<stop stop-color="#9B1A43"/>
<stop offset="1" stop-color="#731653"/>
</linearGradient>
<linearGradient id="paint4_linear_0_285" x1="30.912" y1="54.5649" x2="30.912" y2="36.384" gradientUnits="userSpaceOnUse">
<stop stop-color="white"/>
<stop offset="0.98" stop-color="#FBC9CE"/>
</linearGradient>
<linearGradient id="paint5_linear_0_285" x1="71.0288" y1="54.5649" x2="71.0288" y2="36.384" gradientUnits="userSpaceOnUse">
<stop stop-color="white"/>
<stop offset="0.98" stop-color="#FBC9CE"/>
</linearGradient>
<linearGradient id="paint6_linear_0_285" x1="51.0739" y1="70.6339" x2="51.0739" y2="13.4367" gradientUnits="userSpaceOnUse">
<stop offset="0.02" stop-color="#E08893"/>
<stop offset="1" stop-color="#FFF2EF"/>
</linearGradient>
<linearGradient id="paint7_linear_0_285" x1="4.59132" y1="80.1445" x2="4.59132" y2="44.9056" gradientUnits="userSpaceOnUse">
<stop stop-color="#684A72"/>
<stop offset="0.99" stop-color="#46255E"/>
</linearGradient>
<linearGradient id="paint8_linear_0_285" x1="4.87968" y1="98.6748" x2="4.87968" y2="79.6537" gradientUnits="userSpaceOnUse">
<stop stop-color="#FFE3CD"/>
<stop offset="0.98" stop-color="#FFB3B1"/>
</linearGradient>
<radialGradient id="paint9_radial_0_285" cx="0" cy="0" r="1" gradientUnits="userSpaceOnUse" gradientTransform="translate(51.1848 18.5378) scale(37.226 37.4399)">
<stop stop-color="#7DA9F8"/>
<stop offset="0.98" stop-color="#7C90F0"/>
</radialGradient>
<linearGradient id="paint10_linear_0_285" x1="39.2814" y1="97.0686" x2="39.2814" y2="70.2472" gradientUnits="userSpaceOnUse">
<stop stop-color="#684A72"/>
<stop offset="0.99" stop-color="#46255E"/>
</linearGradient>
<linearGradient id="paint11_linear_0_285" x1="38.6973" y1="93.4994" x2="44.405" y2="93.4994" gradientUnits="userSpaceOnUse">
<stop offset="0.02" stop-color="#FFB3B1"/>
<stop offset="1" stop-color="#FFE3CD"/>
</linearGradient>
<linearGradient id="paint12_linear_0_285" x1="39.5697" y1="112" x2="39.5697" y2="93.4697" gradientUnits="userSpaceOnUse">
<stop stop-color="#FC4A1F"/>
<stop offset="1" stop-color="#CE1E53"/>
</linearGradient>
<linearGradient id="paint13_linear_0_285" x1="54.7707" y1="98.4964" x2="71.4429" y2="98.4964" gradientUnits="userSpaceOnUse">
<stop stop-color="#9B1A43"/>
<stop offset="1" stop-color="#731653"/>
</linearGradient>
<radialGradient id="paint14_radial_0_285" cx="0" cy="0" r="1" gradientUnits="userSpaceOnUse" gradientTransform="translate(7.73354 22.9696) scale(5.51551 5.5472)">
<stop stop-color="#97BAF9"/>
<stop offset="0.98" stop-color="#AFD2FF"/>
</radialGradient>
<radialGradient id="paint15_radial_0_285" cx="0" cy="0" r="1" gradientUnits="userSpaceOnUse" gradientTransform="translate(20.9207 15.5486) scale(5.82604 5.85951)">
<stop stop-color="#97BAF9"/>
<stop offset="0.98" stop-color="#AFD2FF"/>
</radialGradient>
<radialGradient id="paint16_radial_0_285" cx="0" cy="0" r="1" gradientUnits="userSpaceOnUse" gradientTransform="translate(35.5774 11.7295) scale(5.92954 5.96362)">
<stop stop-color="#97BAF9"/>
<stop offset="0.98" stop-color="#AFD2FF"/>
</radialGradient>
<radialGradient id="paint17_radial_0_285" cx="0" cy="0" r="1" gradientUnits="userSpaceOnUse" gradientTransform="translate(51.0277 10.4444) scale(6.10699 6.14208)">
<stop stop-color="#97BAF9"/>
<stop offset="0.98" stop-color="#AFD2FF"/>
</radialGradient>
<radialGradient id="paint18_radial_0_285" cx="0" cy="0" r="1" gradientUnits="userSpaceOnUse" gradientTransform="translate(70.1152 12.2058) scale(5.90736 5.94131)">
<stop stop-color="#97BAF9"/>
<stop offset="0.98" stop-color="#AFD2FF"/>
</radialGradient>
<radialGradient id="paint19_radial_0_285" cx="0" cy="0" r="1" gradientUnits="userSpaceOnUse" gradientTransform="translate(83.2132 16.1137) scale(5.67818 5.7108)">
<stop stop-color="#97BAF9"/>
<stop offset="0.98" stop-color="#AFD2FF"/>
</radialGradient>
<radialGradient id="paint20_radial_0_285" cx="0" cy="0" r="1" gradientUnits="userSpaceOnUse" gradientTransform="translate(93.9707 21.7947) scale(5.58946 5.62156)">
<stop stop-color="#97BAF9"/>
<stop offset="0.98" stop-color="#AFD2FF"/>
</radialGradient>
<linearGradient id="paint21_linear_0_285" x1="8.9091" y1="35.3132" x2="8.9091" y2="11.1093" gradientUnits="userSpaceOnUse">
<stop offset="0.02" stop-color="#E08893"/>
<stop offset="1" stop-color="#FFF2EF"/>
</linearGradient>
<linearGradient id="paint22_linear_0_285" x1="92.3294" y1="35.3132" x2="92.3294" y2="12.1429" gradientUnits="userSpaceOnUse">
<stop offset="0.02" stop-color="#E08893"/>
<stop offset="1" stop-color="#FFF2EF"/>
</linearGradient>
<clipPath id="clip0_0_285">
<rect width="102" height="112" fill="white"/>
</clipPath>
</defs>
</svg>
